<?xml version="1.0" encoding="UTF-8" standalone="no"?>
<svg xmlns:ffdec="https://www.free-decompiler.com/flash" xmlns:xlink="http://www.w3.org/1999/xlink" ffdec:objectType="morphshape" height="52.05px" width="76.7px" xmlns="http://www.w3.org/2000/svg">
  <g transform="matrix(1.0, 0.0, 0.0, 1.0, 2.0, 1.5)">
    <path d="M-2.0 2.0 Q16.85 3.35 21.8 16.75 26.7 30.1 45.15 31.8 63.6 33.45 66.85 50.55 L69.45 49.6 Q66.05 32.25 47.85 29.6 29.65 26.95 25.5 13.45 21.35 -0.05 2.25 -1.5 L-2.0 2.0" fill="#000000" fill-rule="evenodd" stroke="none">
      <animate attributeName="fill" dur="2s" repeatCount="indefinite" values="#000000;#000001"/>
      <animate attributeName="fill-opacity" dur="2s" repeatCount="indefinite" values="1.0;1.0"/>
      <animate attributeName="d" dur="2s" repeatCount="indefinite" values="M-2.0 2.0 Q16.85 3.35 21.8 16.75 26.7 30.1 45.15 31.8 63.6 33.45 66.85 50.55 L69.45 49.6 Q66.05 32.25 47.85 29.6 29.65 26.95 25.5 13.45 21.35 -0.05 2.25 -1.5 L-2.0 2.0;M-2.0 2.0 Q26.4 12.15 30.85 25.45 35.3 38.75 50.95 39.7 66.5 40.65 73.5 46.85 L74.7 45.25 Q65.15 37.7 51.35 36.6 37.5 35.5 33.8 22.15 30.1 8.85 2.25 -1.5 L-2.0 2.0"/>
    </path>
    <path d="M-2.0 2.0 L2.25 -1.5 Q21.35 -0.05 25.5 13.45 29.65 26.95 47.85 29.6 66.05 32.25 69.45 49.6 L66.85 50.55 Q63.6 33.45 45.15 31.8 26.7 30.1 21.8 16.75 16.85 3.35 -2.0 2.0 Z" fill="none" stroke="#000000" stroke-linecap="round" stroke-linejoin="round" stroke-opacity="0.0" stroke-width="0.0">
      <animate attributeName="stroke" dur="2s" repeatCount="indefinite" values="#000000;#000001"/>
      <animate attributeName="stroke-width" dur="2s" repeatCount="indefinite" values="0.0;0.0"/>
      <animate attributeName="fill-opacity" dur="2s" repeatCount="indefinite" values="0.0;0.0"/>
      <animate attributeName="d" dur="2s" repeatCount="indefinite" values="M-2.0 2.0 L2.25 -1.5 Q21.35 -0.05 25.5 13.45 29.65 26.95 47.85 29.6 66.05 32.25 69.45 49.6 L66.85 50.55 Q63.6 33.45 45.15 31.8 26.7 30.1 21.8 16.75 16.85 3.35 -2.0 2.0 Z;M-2.0 2.0 L2.25 -1.5 Q30.1 8.85 33.8 22.15 37.5 35.5 51.35 36.6 65.15 37.7 74.7 45.25 L73.5 46.85 Q66.5 40.65 50.95 39.7 35.3 38.75 30.85 25.45 26.4 12.15 -2.0 2.0 Z"/>
    </path>
  </g>
</svg>
