<?xml version="1.0" encoding="UTF-8" standalone="no"?>
<svg xmlns:ffdec="https://www.free-decompiler.com/flash" xmlns:xlink="http://www.w3.org/1999/xlink" ffdec:objectType="morphshape" height="48.35px" width="79.9px" xmlns="http://www.w3.org/2000/svg">
  <g transform="matrix(1.0, 0.0, 0.0, 1.0, 2.0, 1.5)">
    <path d="M-2.0 2.0 Q26.4 12.15 30.85 25.45 35.3 38.75 50.95 39.7 66.5 40.65 73.5 46.85 L74.7 45.25 Q65.15 37.7 51.35 36.6 37.5 35.5 33.8 22.15 30.1 8.85 2.25 -1.5 L-2.0 2.0" fill="#000000" fill-rule="evenodd" stroke="none">
      <animate attributeName="fill" dur="2s" repeatCount="indefinite" values="#000000;#000001"/>
      <animate attributeName="fill-opacity" dur="2s" repeatCount="indefinite" values="1.0;1.0"/>
      <animate attributeName="d" dur="2s" repeatCount="indefinite" values="M-2.0 2.0 Q26.4 12.15 30.85 25.45 35.3 38.75 50.95 39.7 66.5 40.65 73.5 46.85 L74.7 45.25 Q65.15 37.7 51.35 36.6 37.5 35.5 33.8 22.15 30.1 8.85 2.25 -1.5 L-2.0 2.0;M-2.0 2.0 Q6.35 17.75 19.85 20.9 33.25 24.0 46.9 37.05 60.55 50.1 77.9 40.6 L77.8 38.85 Q59.3 46.6 49.3 34.65 39.3 22.7 26.9 19.3 14.45 15.9 2.25 -1.5 L-2.0 2.0"/>
    </path>
    <path d="M-2.0 2.0 L2.25 -1.5 Q30.1 8.85 33.8 22.15 37.5 35.5 51.35 36.6 65.15 37.7 74.7 45.25 L73.5 46.85 Q66.5 40.65 50.95 39.7 35.3 38.75 30.85 25.45 26.4 12.15 -2.0 2.0 Z" fill="none" stroke="#000000" stroke-linecap="round" stroke-linejoin="round" stroke-opacity="0.0" stroke-width="0.0">
      <animate attributeName="stroke" dur="2s" repeatCount="indefinite" values="#000000;#000001"/>
      <animate attributeName="stroke-width" dur="2s" repeatCount="indefinite" values="0.0;0.0"/>
      <animate attributeName="fill-opacity" dur="2s" repeatCount="indefinite" values="0.0;0.0"/>
      <animate attributeName="d" dur="2s" repeatCount="indefinite" values="M-2.0 2.0 L2.25 -1.5 Q30.1 8.85 33.8 22.15 37.5 35.5 51.35 36.6 65.15 37.7 74.7 45.25 L73.5 46.85 Q66.5 40.65 50.95 39.7 35.3 38.75 30.85 25.45 26.4 12.15 -2.0 2.0 Z;M-2.0 2.0 L2.25 -1.5 Q14.45 15.9 26.9 19.3 39.3 22.7 49.3 34.65 59.3 46.6 77.8 38.85 L77.9 40.6 Q60.55 50.1 46.9 37.05 33.25 24.0 19.85 20.9 6.35 17.75 -2.0 2.0 Z"/>
    </path>
  </g>
</svg>
