<?xml version="1.0" encoding="UTF-8" standalone="no"?>
<svg xmlns:ffdec="https://www.free-decompiler.com/flash" xmlns:xlink="http://www.w3.org/1999/xlink" ffdec:objectType="morphshape" height="47.35px" width="79.9px" xmlns="http://www.w3.org/2000/svg">
  <g transform="matrix(1.0, 0.0, 0.0, 1.0, 2.0, 1.5)">
    <path d="M-2.0 2.0 Q6.35 17.75 19.85 20.9 33.25 24.0 46.9 37.05 60.55 50.1 77.9 40.6 L77.8 38.85 Q59.3 46.6 49.3 34.65 39.3 22.7 26.9 19.3 14.45 15.9 2.25 -1.5 L-2.0 2.0" fill="#000000" fill-rule="evenodd" stroke="none">
      <animate attributeName="fill" dur="2s" repeatCount="indefinite" values="#000000;#000001"/>
      <animate attributeName="fill-opacity" dur="2s" repeatCount="indefinite" values="1.0;1.0"/>
      <animate attributeName="d" dur="2s" repeatCount="indefinite" values="M-2.0 2.0 Q6.35 17.75 19.85 20.9 33.25 24.0 46.9 37.05 60.55 50.1 77.9 40.6 L77.8 38.85 Q59.3 46.6 49.3 34.65 39.3 22.7 26.9 19.3 14.45 15.9 2.25 -1.5 L-2.0 2.0;M-2.0 2.0 Q8.4 26.2 28.4 29.95 48.4 33.7 55.65 40.45 62.9 47.2 75.95 45.55 L76.65 44.0 Q62.25 45.75 57.75 38.95 53.25 32.15 33.05 27.95 12.8 23.75 2.25 -1.5 L-2.0 2.0"/>
    </path>
    <path d="M-2.0 2.0 L2.25 -1.5 Q14.45 15.9 26.9 19.3 39.3 22.7 49.3 34.65 59.3 46.6 77.8 38.85 L77.9 40.6 Q60.55 50.1 46.9 37.05 33.25 24.0 19.85 20.9 6.35 17.75 -2.0 2.0 Z" fill="none" stroke="#000000" stroke-linecap="round" stroke-linejoin="round" stroke-opacity="0.0" stroke-width="0.0">
      <animate attributeName="stroke" dur="2s" repeatCount="indefinite" values="#000000;#000001"/>
      <animate attributeName="stroke-width" dur="2s" repeatCount="indefinite" values="0.0;0.0"/>
      <animate attributeName="fill-opacity" dur="2s" repeatCount="indefinite" values="0.0;0.0"/>
      <animate attributeName="d" dur="2s" repeatCount="indefinite" values="M-2.0 2.0 L2.25 -1.5 Q14.45 15.9 26.9 19.3 39.3 22.7 49.3 34.65 59.3 46.6 77.8 38.85 L77.9 40.6 Q60.55 50.1 46.9 37.05 33.25 24.0 19.85 20.9 6.35 17.75 -2.0 2.0 Z;M-2.0 2.0 L2.25 -1.5 Q12.8 23.75 33.05 27.95 53.25 32.15 57.75 38.95 62.25 45.75 76.65 44.0 L75.95 45.55 Q62.9 47.2 55.65 40.45 48.4 33.7 28.4 29.95 8.4 26.2 -2.0 2.0 Z"/>
    </path>
  </g>
</svg>
