<?xml version="1.0" encoding="UTF-8" standalone="no"?>
<svg xmlns:ffdec="https://www.free-decompiler.com/flash" xmlns:xlink="http://www.w3.org/1999/xlink" ffdec:objectType="morphshape" height="52.05px" width="76.3px" xmlns="http://www.w3.org/2000/svg">
  <g transform="matrix(1.0, 0.0, 0.0, 1.0, 2.0, 1.5)">
    <path d="M-2.0 2.0 Q18.9 25.65 38.1 28.1 57.25 30.45 63.3 38.35 69.35 46.2 73.5 47.45 L74.3 46.4 Q70.05 45.2 66.05 37.5 62.0 29.75 40.0 25.75 17.95 21.75 2.25 -1.5 L-2.0 2.0" fill="#000000" fill-rule="evenodd" stroke="none">
      <animate attributeName="fill" dur="2s" repeatCount="indefinite" values="#000000;#000001"/>
      <animate attributeName="fill-opacity" dur="2s" repeatCount="indefinite" values="1.0;1.0"/>
      <animate attributeName="d" dur="2s" repeatCount="indefinite" values="M-2.0 2.0 Q18.9 25.65 38.1 28.1 57.25 30.45 63.3 38.35 69.35 46.2 73.5 47.45 L74.3 46.4 Q70.05 45.2 66.05 37.5 62.0 29.75 40.0 25.75 17.95 21.75 2.25 -1.5 L-2.0 2.0;M-2.0 2.0 Q16.85 3.35 21.8 16.75 26.7 30.1 45.15 31.8 63.6 33.45 66.85 50.55 L69.45 49.6 Q66.05 32.25 47.85 29.6 29.65 26.95 25.5 13.45 21.35 -0.05 2.25 -1.5 L-2.0 2.0"/>
    </path>
    <path d="M-2.0 2.0 L2.25 -1.5 Q17.95 21.75 40.0 25.75 62.0 29.75 66.05 37.5 70.05 45.2 74.3 46.4 L73.5 47.45 Q69.35 46.2 63.3 38.35 57.25 30.45 38.1 28.1 18.9 25.65 -2.0 2.0 Z" fill="none" stroke="#000000" stroke-linecap="round" stroke-linejoin="round" stroke-opacity="0.0" stroke-width="0.0">
      <animate attributeName="stroke" dur="2s" repeatCount="indefinite" values="#000000;#000001"/>
      <animate attributeName="stroke-width" dur="2s" repeatCount="indefinite" values="0.0;0.0"/>
      <animate attributeName="fill-opacity" dur="2s" repeatCount="indefinite" values="0.0;0.0"/>
      <animate attributeName="d" dur="2s" repeatCount="indefinite" values="M-2.0 2.0 L2.25 -1.5 Q17.95 21.75 40.0 25.75 62.0 29.75 66.05 37.5 70.05 45.2 74.3 46.4 L73.5 47.45 Q69.35 46.2 63.3 38.35 57.25 30.45 38.1 28.1 18.9 25.65 -2.0 2.0 Z;M-2.0 2.0 L2.25 -1.5 Q21.35 -0.05 25.5 13.45 29.65 26.95 47.85 29.6 66.05 32.25 69.45 49.6 L66.85 50.55 Q63.6 33.45 45.15 31.8 26.7 30.1 21.8 16.75 16.85 3.35 -2.0 2.0 Z"/>
    </path>
  </g>
</svg>
