<?xml version="1.0" encoding="UTF-8" standalone="no"?>
<svg xmlns:ffdec="https://www.free-decompiler.com/flash" xmlns:xlink="http://www.w3.org/1999/xlink" ffdec:objectType="morphshape" height="239.0px" width="239.0px" xmlns="http://www.w3.org/2000/svg">
  <g transform="matrix(1.0, 0.0, 0.0, 1.0, 119.5, 120.5)">
    <path d="M-46.0 -1.0 Q-46.0 -20.05 -32.55 -33.55 -19.05 -47.0 0.0 -47.0 19.05 -47.0 32.5 -33.55 46.0 -20.05 46.0 -1.0 46.0 18.05 32.5 31.5 19.05 45.0 0.0 45.0 -19.05 45.0 -32.55 31.5 -46.0 18.05 -46.0 -1.0 -46.0 -20.05 -32.55 -33.55 -19.05 -47.0 0.0 -47.0 19.05 -47.0 32.5 -33.55 46.0 -20.05 46.0 -1.0 46.0 18.05 32.5 31.5 19.05 45.0 0.0 45.0 -19.05 45.0 -32.55 31.5 -46.0 18.05 -46.0 -1.0 Z" fill="none" stroke="#000000" stroke-linecap="round" stroke-linejoin="round" stroke-width="7.0">
      <animate attributeName="stroke" dur="2s" repeatCount="indefinite" values="#000000;#000001"/>
      <animate attributeName="stroke-width" dur="2s" repeatCount="indefinite" values="7.0;7.0"/>
      <animate attributeName="fill-opacity" dur="2s" repeatCount="indefinite" values="1.0;1.0"/>
      <animate attributeName="d" dur="2s" repeatCount="indefinite" values="M-46.0 -1.0 Q-46.0 -20.05 -32.55 -33.55 -19.05 -47.0 0.0 -47.0 19.05 -47.0 32.5 -33.55 46.0 -20.05 46.0 -1.0 46.0 18.05 32.5 31.5 19.05 45.0 0.0 45.0 -19.05 45.0 -32.55 31.5 -46.0 18.05 -46.0 -1.0 -46.0 -20.05 -32.55 -33.55 -19.05 -47.0 0.0 -47.0 19.05 -47.0 32.5 -33.55 46.0 -20.05 46.0 -1.0 46.0 18.05 32.5 31.5 19.05 45.0 0.0 45.0 -19.05 45.0 -32.55 31.5 -46.0 18.05 -46.0 -1.0 Z;M-116.0 -1.0 Q-116.0 -49.05 -82.1 -83.1 -48.05 -117.0 0.0 -117.0 48.05 -117.0 81.95 -83.1 116.0 -49.05 116.0 -1.0 116.0 47.0 81.95 80.95 48.05 115.0 0.0 115.0 -48.05 115.0 -82.1 80.95 -116.0 47.0 -116.0 -1.0 -116.0 -49.05 -82.1 -83.1 -48.05 -117.0 0.0 -117.0 48.05 -117.0 81.95 -83.1 116.0 -49.05 116.0 -1.0 116.0 47.0 81.95 80.95 48.05 115.0 0.0 115.0 -48.05 115.0 -82.1 80.95 -116.0 47.0 -116.0 -1.0 Z"/>
    </path>
  </g>
</svg>
