<?xml version="1.0" encoding="UTF-8" standalone="no"?>
<svg xmlns:ffdec="https://www.free-decompiler.com/flash" xmlns:xlink="http://www.w3.org/1999/xlink" ffdec:objectType="morphshape" height="205.9px" width="229.35px" xmlns="http://www.w3.org/2000/svg">
  <g transform="matrix(1.0, 0.0, 0.0, 1.0, 114.7, 102.1)">
    <path d="M-114.7 24.5 Q-114.7 29.5 -114.2 34.45 L-113.7 34.5 -113.7 33.5 -113.7 32.5 Q-72.5 12.2 -47.15 -23.55 -40.8 -32.6 -34.15 -41.05 -17.95 -61.75 -4.35 -85.3 -2.05 -89.35 2.3 -91.5 27.45 -101.45 48.1 -90.1 L48.3 -89.5 Q49.0 -85.65 37.25 -86.1 19.5 -86.8 5.95 -82.6 -0.35 -80.65 -1.7 -79.5 13.6 -80.2 30.55 -83.05 36.3 -84.0 42.25 -83.05 58.75 -80.45 77.3 -79.5 L77.35 -80.0 Q96.6 -81.8 106.3 -73.5 L106.9 -73.3 Q111.75 -64.0 107.3 -54.5 102.3 -50.0 92.45 -51.55 82.05 -53.15 90.3 -46.5 L91.3 -46.5 Q111.85 -47.2 105.3 -30.5 100.85 -24.45 94.05 -20.95 L92.6 -20.2 Q100.35 -20.25 104.3 -14.5 L104.3 -13.5 Q103.55 0.75 92.3 9.5 92.0 9.6 91.7 9.7 86.45 18.95 96.3 13.5 99.5 13.75 99.15 16.35 98.1 23.8 93.4 28.6 73.9 48.6 38.25 52.15 L25.3 53.0 Q5.8 53.55 -8.95 57.7 -35.55 65.15 -55.3 78.65 -68.8 87.9 -88.7 90.5 L-88.45 91.3 Q-83.3 97.1 -76.7 101.5 -56.95 90.75 -38.3 78.6 -27.3 71.4 -12.55 68.25 4.0 64.7 21.35 63.05 29.95 61.9 38.55 60.8 82.3 53.0 103.3 23.5 103.3 23.0 103.45 22.55 106.2 12.5 101.3 5.5 101.3 5.0 101.55 4.8 113.75 -5.0 106.3 -20.5 106.3 -21.0 106.55 -21.3 115.95 -31.95 110.3 -48.5 L110.55 -49.35 Q117.75 -60.55 112.3 -75.5 107.95 -80.15 100.35 -81.75 79.55 -86.25 54.3 -86.5 L54.1 -87.4 Q46.65 -101.35 25.3 -101.5 12.7 -97.7 0.15 -93.95 -1.2 -93.5 -1.8 -92.75 -26.05 -62.85 -46.7 -29.5 -50.75 -23.05 -55.8 -17.5 -80.0 8.7 -114.7 24.5" fill="#241f1f" fill-opacity="0.9647059" fill-rule="evenodd" stroke="none">
      <animate attributeName="fill" dur="2s" repeatCount="indefinite" values="#241f1f;#241f20"/>
      <animate attributeName="fill-opacity" dur="2s" repeatCount="indefinite" values="0.9647059;0.9647059"/>
      <animate attributeName="d" dur="2s" repeatCount="indefinite" values="M-114.7 24.5 Q-114.7 29.5 -114.2 34.45 L-113.7 34.5 -113.7 33.5 -113.7 32.5 Q-72.5 12.2 -47.15 -23.55 -40.8 -32.6 -34.15 -41.05 -17.95 -61.75 -4.35 -85.3 -2.05 -89.35 2.3 -91.5 27.45 -101.45 48.1 -90.1 L48.3 -89.5 Q49.0 -85.65 37.25 -86.1 19.5 -86.8 5.95 -82.6 -0.35 -80.65 -1.7 -79.5 13.6 -80.2 30.55 -83.05 36.3 -84.0 42.25 -83.05 58.75 -80.45 77.3 -79.5 L77.35 -80.0 Q96.6 -81.8 106.3 -73.5 L106.9 -73.3 Q111.75 -64.0 107.3 -54.5 102.3 -50.0 92.45 -51.55 82.05 -53.15 90.3 -46.5 L91.3 -46.5 Q111.85 -47.2 105.3 -30.5 100.85 -24.45 94.05 -20.95 L92.6 -20.2 Q100.35 -20.25 104.3 -14.5 L104.3 -13.5 Q103.55 0.75 92.3 9.5 92.0 9.6 91.7 9.7 86.45 18.95 96.3 13.5 99.5 13.75 99.15 16.35 98.1 23.8 93.4 28.6 73.9 48.6 38.25 52.15 L25.3 53.0 Q5.8 53.55 -8.95 57.7 -35.55 65.15 -55.3 78.65 -68.8 87.9 -88.7 90.5 L-88.45 91.3 Q-83.3 97.1 -76.7 101.5 -56.95 90.75 -38.3 78.6 -27.3 71.4 -12.55 68.25 4.0 64.7 21.35 63.05 29.95 61.9 38.55 60.8 82.3 53.0 103.3 23.5 103.3 23.0 103.45 22.55 106.2 12.5 101.3 5.5 101.3 5.0 101.55 4.8 113.75 -5.0 106.3 -20.5 106.3 -21.0 106.55 -21.3 115.95 -31.95 110.3 -48.5 L110.55 -49.35 Q117.75 -60.55 112.3 -75.5 107.95 -80.15 100.35 -81.75 79.55 -86.25 54.3 -86.5 L54.1 -87.4 Q46.65 -101.35 25.3 -101.5 12.7 -97.7 0.15 -93.95 -1.2 -93.5 -1.8 -92.75 -26.05 -62.85 -46.7 -29.5 -50.75 -23.05 -55.8 -17.5 -80.0 8.7 -114.7 24.5;M-104.75 28.0 Q-104.6 33.0 -104.0 37.9 L-103.55 37.95 -103.6 36.95 -103.6 35.95 Q-65.35 14.45 -42.6 -22.15 -36.75 -31.05 -30.9 -39.9 -16.3 -61.1 -4.2 -85.0 -2.15 -89.1 1.85 -91.4 25.35 -102.15 45.15 -91.4 L45.3 -90.8 Q46.1 -86.95 35.05 -87.05 18.3 -87.2 5.6 -82.6 -0.3 -80.5 -1.5 -79.4 12.95 -80.55 28.8 -83.8 34.35 -84.0 39.85 -84.15 55.5 -82.15 73.05 -81.75 L73.05 -82.25 Q91.15 -84.5 100.6 -76.65 L101.15 -76.45 Q106.1 -67.3 102.15 -57.65 97.55 -53.0 88.15 -54.25 78.35 -55.5 86.35 -49.1 L87.25 -49.1 Q106.7 -50.45 101.05 -33.55 97.0 -27.45 90.65 -23.8 L89.35 -23.0 Q96.65 -23.25 100.6 -17.65 L100.6 -16.65 Q100.4 -2.35 90.0 6.75 89.55 6.8 89.45 7.0 84.8 16.4 93.95 10.65 96.95 10.85 96.7 13.4 95.95 20.95 91.65 25.85 74.0 46.35 40.4 51.0 L28.2 52.25 Q9.9 53.35 -4.0 57.95 -28.8 66.25 -47.0 80.35 -59.45 89.95 -78.15 93.15 L-77.9 93.95 Q-72.85 99.6 -66.5 103.8 -48.15 92.4 -30.9 79.8 -20.9 72.25 -7.0 68.65 8.55 64.6 24.85 62.45 33.85 61.2 40.95 59.65 82.0 50.5 100.9 20.5 100.85 20.0 100.95 19.55 103.25 9.35 98.35 2.5 98.35 2.0 98.6 1.8 109.85 -8.35 102.3 -23.7 102.3 -24.2 102.55 -24.5 111.05 -35.4 105.15 -51.7 L105.4 -52.6 Q111.85 -64.0 106.2 -78.85 101.95 -83.3 94.7 -84.6 75.0 -88.45 51.1 -87.95 L50.9 -88.85 Q43.35 -102.6 23.35 -102.1 11.3 -98.1 -0.2 -93.8 -1.15 -93.15 -2.05 -92.55 -24.0 -61.95 -42.35 -28.0 -45.95 -21.5 -50.55 -15.75 -72.55 11.2 -104.75 28.0"/>
    </path>
    <path d="M-113.7 32.5 L-113.7 33.5 -113.7 34.5 Q-110.3 59.6 -98.95 76.65 -98.7 77.0 -98.7 77.5 -50.45 67.95 -19.4 32.75 L-18.7 32.5 Q-5.4 37.75 9.05 46.85 L9.3 47.5 Q24.2 49.65 46.4 43.85 L74.25 36.3 Q79.2 34.9 83.3 32.5 83.8 16.7 88.9 2.0 89.75 -0.45 88.3 -2.5 76.9 -7.65 87.35 -15.7 88.35 -16.45 89.0 -17.65 92.85 -24.25 90.3 -35.5 81.25 -41.45 78.8 -48.05 78.5 -48.8 78.3 -51.5 91.45 -63.3 80.3 -77.3 79.35 -78.45 77.3 -79.5 58.75 -80.45 42.25 -83.05 36.3 -84.0 30.55 -83.05 13.6 -80.2 -1.7 -79.5 -0.35 -80.65 5.95 -82.6 19.5 -86.8 37.25 -86.1 49.0 -85.65 48.1 -90.1 27.45 -101.45 2.3 -91.5 -2.05 -89.35 -4.35 -85.3 -17.95 -61.75 -34.15 -41.05 -40.8 -32.6 -47.15 -23.55 -72.5 12.2 -113.7 32.5" fill="#ffffff" fill-rule="evenodd" stroke="none">
      <animate attributeName="fill" dur="2s" repeatCount="indefinite" values="#ffffff;#ffffff"/>
      <animate attributeName="fill-opacity" dur="2s" repeatCount="indefinite" values="1.0;1.0"/>
      <animate attributeName="d" dur="2s" repeatCount="indefinite" values="M-113.7 32.5 L-113.7 33.5 -113.7 34.5 Q-110.3 59.6 -98.95 76.65 -98.7 77.0 -98.7 77.5 -50.45 67.95 -19.4 32.75 L-18.7 32.5 Q-5.4 37.75 9.05 46.85 L9.3 47.5 Q24.2 49.65 46.4 43.85 L74.25 36.3 Q79.2 34.9 83.3 32.5 83.8 16.7 88.9 2.0 89.75 -0.45 88.3 -2.5 76.9 -7.65 87.35 -15.7 88.35 -16.45 89.0 -17.65 92.85 -24.25 90.3 -35.5 81.25 -41.45 78.8 -48.05 78.5 -48.8 78.3 -51.5 91.45 -63.3 80.3 -77.3 79.35 -78.45 77.3 -79.5 58.75 -80.45 42.25 -83.05 36.3 -84.0 30.55 -83.05 13.6 -80.2 -1.7 -79.5 -0.35 -80.65 5.95 -82.6 19.5 -86.8 37.25 -86.1 49.0 -85.65 48.1 -90.1 27.45 -101.45 2.3 -91.5 -2.05 -89.35 -4.35 -85.3 -17.95 -61.75 -34.15 -41.05 -40.8 -32.6 -47.15 -23.55 -72.5 12.2 -113.7 32.5;M-103.6 35.95 L-103.6 36.95 -103.55 37.95 Q-99.45 62.95 -88.25 79.65 -87.95 80.0 -87.95 80.5 -42.75 69.5 -14.6 33.35 L-13.95 33.05 Q-1.25 37.95 12.7 46.55 L13.0 47.25 Q27.1 48.9 47.8 42.45 L73.9 34.1 Q78.55 32.5 82.25 30.0 82.25 14.2 86.55 -0.65 87.3 -3.1 85.85 -5.1 75.0 -9.95 84.5 -18.3 85.5 -19.1 86.05 -20.35 89.5 -26.95 86.75 -38.2 78.05 -43.8 75.5 -50.35 75.2 -51.05 74.95 -53.7 86.85 -65.95 75.95 -79.7 75.0 -80.75 73.05 -81.75 55.5 -82.15 39.85 -84.15 34.3 -83.95 28.8 -83.8 12.95 -80.55 -1.5 -79.4 -0.3 -80.5 5.6 -82.6 18.3 -87.2 35.05 -87.05 46.1 -86.95 45.15 -91.4 25.35 -102.15 1.85 -91.4 -2.15 -89.1 -4.2 -85.0 -16.3 -61.1 -30.9 -39.9 -36.75 -31.0 -42.6 -22.15 -65.35 14.45 -103.6 35.95"/>
    </path>
    <path d="M-98.7 77.5 Q-94.25 84.05 -89.4 90.25 L-88.7 90.5 Q-68.8 87.9 -55.3 78.65 -35.55 65.15 -8.95 57.7 5.8 53.55 25.3 53.0 L38.25 52.15 Q73.9 48.6 93.4 28.6 98.1 23.8 99.15 16.35 99.5 13.75 96.3 13.5 86.45 18.95 91.7 9.7 92.0 9.6 92.3 9.5 103.55 0.75 104.3 -13.5 L104.3 -14.5 Q100.35 -20.25 92.6 -20.2 L94.05 -20.95 Q100.85 -24.45 105.3 -30.5 111.85 -47.2 91.3 -46.5 L90.3 -46.5 Q82.05 -53.15 92.45 -51.55 102.3 -50.0 107.3 -54.5 111.75 -64.0 106.3 -73.5 96.6 -81.8 77.3 -79.5 78.8 -79.5 79.1 -78.9 L80.3 -77.3 Q91.45 -63.3 78.3 -51.5 78.5 -48.8 78.8 -48.05 81.25 -41.45 90.3 -35.5 92.85 -24.25 89.0 -17.65 88.35 -16.45 87.35 -15.7 76.9 -7.65 88.3 -2.5 89.75 -0.45 88.9 2.0 83.8 16.7 83.3 32.5 79.2 34.9 74.25 36.3 L46.4 43.85 Q24.2 49.65 9.05 46.85 -5.4 37.75 -19.4 32.75 -50.45 67.95 -98.7 77.5" fill="#d0d0d0" fill-rule="evenodd" stroke="none">
      <animate attributeName="fill" dur="2s" repeatCount="indefinite" values="#d0d0d0;#d0d0d1"/>
      <animate attributeName="fill-opacity" dur="2s" repeatCount="indefinite" values="1.0;1.0"/>
      <animate attributeName="d" dur="2s" repeatCount="indefinite" values="M-98.7 77.5 Q-94.25 84.05 -89.4 90.25 L-88.7 90.5 Q-68.8 87.9 -55.3 78.65 -35.55 65.15 -8.95 57.7 5.8 53.55 25.3 53.0 L38.25 52.15 Q73.9 48.6 93.4 28.6 98.1 23.8 99.15 16.35 99.5 13.75 96.3 13.5 86.45 18.95 91.7 9.7 92.0 9.6 92.3 9.5 103.55 0.75 104.3 -13.5 L104.3 -14.5 Q100.35 -20.25 92.6 -20.2 L94.05 -20.95 Q100.85 -24.45 105.3 -30.5 111.85 -47.2 91.3 -46.5 L90.3 -46.5 Q82.05 -53.15 92.45 -51.55 102.3 -50.0 107.3 -54.5 111.75 -64.0 106.3 -73.5 96.6 -81.8 77.3 -79.5 78.8 -79.5 79.1 -78.9 L80.3 -77.3 Q91.45 -63.3 78.3 -51.5 78.5 -48.8 78.8 -48.05 81.25 -41.45 90.3 -35.5 92.85 -24.25 89.0 -17.65 88.35 -16.45 87.35 -15.7 76.9 -7.65 88.3 -2.5 89.75 -0.45 88.9 2.0 83.8 16.7 83.3 32.5 79.2 34.9 74.25 36.3 L46.4 43.85 Q24.2 49.65 9.05 46.85 -5.4 37.75 -19.4 32.75 -50.45 67.95 -98.7 77.5;M-87.95 80.5 Q-83.4 86.7 -78.85 92.9 L-78.15 93.15 Q-59.45 89.95 -47.0 80.35 -28.8 66.25 -4.0 57.95 9.9 53.35 28.2 52.25 L40.4 51.0 Q74.0 46.35 91.65 25.85 95.95 20.95 96.7 13.4 96.95 10.85 93.95 10.65 84.8 16.4 89.45 7.0 89.55 6.8 90.0 6.75 100.4 -2.35 100.6 -16.65 L100.6 -17.65 Q96.65 -23.25 89.35 -23.0 L90.65 -23.8 Q97.0 -27.45 101.05 -33.55 106.7 -50.45 87.25 -49.1 L86.35 -49.1 Q78.35 -55.5 88.15 -54.25 97.55 -53.0 102.15 -57.65 106.1 -67.3 100.6 -76.65 91.15 -84.5 73.05 -81.75 74.45 -81.8 74.8 -81.2 L75.95 -79.7 Q86.85 -65.95 74.95 -53.7 75.2 -51.05 75.5 -50.35 78.05 -43.8 86.75 -38.2 89.5 -26.95 86.05 -20.35 85.5 -19.1 84.5 -18.3 75.0 -9.95 85.85 -5.1 87.3 -3.1 86.55 -0.65 82.25 14.2 82.25 30.0 78.55 32.5 73.9 34.1 L47.8 42.45 Q27.1 48.9 12.7 46.55 -1.25 37.95 -14.6 33.35 -42.75 69.5 -87.95 80.5"/>
    </path>
    <path d="M-114.7 24.5 Q-80.0 8.7 -55.8 -17.5 -50.75 -23.05 -46.7 -29.5 -26.05 -62.85 -1.8 -92.75 -1.2 -93.5 0.15 -93.95 12.7 -97.7 25.3 -101.5 46.65 -101.35 54.1 -87.4 L54.3 -86.5 Q79.55 -86.25 100.35 -81.75 107.95 -80.15 112.3 -75.5 117.75 -60.55 110.55 -49.35 L110.3 -48.5 Q115.95 -31.95 106.55 -21.3 106.3 -21.0 106.3 -20.5 113.75 -5.0 101.55 4.8 101.3 5.0 101.3 5.5 106.2 12.5 103.45 22.55 103.3 23.0 103.3 23.5 82.3 53.0 38.55 60.8 29.95 61.9 21.35 63.05 4.0 64.7 -12.55 68.25 -27.3 71.4 -38.3 78.6 -56.95 90.75 -76.7 101.5 -83.3 97.1 -88.45 91.3 L-88.7 90.5 Q-68.8 87.9 -55.3 78.65 -35.55 65.15 -8.95 57.7 5.8 53.55 25.3 53.0 L38.25 52.15 Q73.9 48.6 93.4 28.6 98.1 23.8 99.15 16.35 99.5 13.75 96.3 13.5 86.45 18.95 91.7 9.7 92.0 9.6 92.3 9.5 103.55 0.75 104.3 -13.5 L104.3 -14.5 Q100.35 -20.25 92.6 -20.2 L94.05 -20.95 Q100.85 -24.45 105.3 -30.5 111.85 -47.2 91.3 -46.5 L90.3 -46.5 Q82.05 -53.15 92.45 -51.55 102.3 -50.0 107.3 -54.5 111.75 -64.0 106.9 -73.3 L106.3 -73.5 Q96.6 -81.8 77.35 -80.0 L77.3 -79.5 Q58.75 -80.45 42.25 -83.05 36.3 -84.0 30.55 -83.05 13.6 -80.2 -1.7 -79.5 -0.35 -80.65 5.95 -82.6 19.5 -86.8 37.25 -86.1 49.0 -85.65 48.3 -89.5 L48.1 -90.1 Q27.45 -101.45 2.3 -91.5 -2.05 -89.35 -4.35 -85.3 -17.95 -61.75 -34.15 -41.05 -40.8 -32.6 -47.15 -23.55 -72.5 12.2 -113.7 32.5 L-113.7 33.5 -113.7 34.5 -114.2 34.45 Q-114.7 29.5 -114.7 24.5 M-113.7 32.5 Q-72.5 12.2 -47.15 -23.55 -40.8 -32.6 -34.15 -41.05 -17.95 -61.75 -4.35 -85.3 -2.05 -89.35 2.3 -91.5 27.45 -101.45 48.1 -90.1 49.0 -85.65 37.25 -86.1 19.5 -86.8 5.95 -82.6 -0.35 -80.65 -1.7 -79.5 13.6 -80.2 30.55 -83.05 36.3 -84.0 42.25 -83.05 58.75 -80.45 77.3 -79.5 79.35 -78.45 80.3 -77.3 91.45 -63.3 78.3 -51.5 78.5 -48.8 78.8 -48.05 81.25 -41.45 90.3 -35.5 92.85 -24.25 89.0 -17.65 88.35 -16.45 87.35 -15.7 76.9 -7.65 88.3 -2.5 89.75 -0.45 88.9 2.0 83.8 16.7 83.3 32.5 79.2 34.9 74.25 36.3 L46.4 43.85 Q24.2 49.65 9.3 47.5 L9.05 46.85 Q-5.4 37.75 -18.7 32.5 L-19.4 32.75 Q-50.45 67.95 -98.7 77.5 -98.7 77.0 -98.95 76.65 -110.3 59.6 -113.7 34.5 L-113.7 33.5 -113.7 32.5 M-98.7 77.5 Q-50.45 67.95 -19.4 32.75 -5.4 37.75 9.05 46.85 24.2 49.65 46.4 43.85 L74.25 36.3 Q79.2 34.9 83.3 32.5 83.8 16.7 88.9 2.0 89.75 -0.45 88.3 -2.5 76.9 -7.65 87.35 -15.7 88.35 -16.45 89.0 -17.65 92.85 -24.25 90.3 -35.5 81.25 -41.45 78.8 -48.05 78.5 -48.8 78.3 -51.5 91.45 -63.3 80.3 -77.3 L79.1 -78.9 Q78.8 -79.5 77.3 -79.5 96.6 -81.8 106.3 -73.5 111.75 -64.0 107.3 -54.5 102.3 -50.0 92.45 -51.55 82.05 -53.15 90.3 -46.5 L91.3 -46.5 Q111.85 -47.2 105.3 -30.5 100.85 -24.45 94.05 -20.95 L92.6 -20.2 Q100.35 -20.25 104.3 -14.5 L104.3 -13.5 Q103.55 0.75 92.3 9.5 92.0 9.6 91.7 9.7 86.45 18.95 96.3 13.5 99.5 13.75 99.15 16.35 98.1 23.8 93.4 28.6 73.9 48.6 38.25 52.15 L25.3 53.0 Q5.8 53.55 -8.95 57.7 -35.55 65.15 -55.3 78.65 -68.8 87.9 -88.7 90.5 L-89.4 90.25 Q-94.25 84.05 -98.7 77.5 Z" fill="none" stroke="#000000" stroke-linecap="round" stroke-linejoin="round" stroke-opacity="0.0" stroke-width="0.0">
      <animate attributeName="stroke" dur="2s" repeatCount="indefinite" values="#000000;#000001"/>
      <animate attributeName="stroke-width" dur="2s" repeatCount="indefinite" values="0.0;0.0"/>
      <animate attributeName="fill-opacity" dur="2s" repeatCount="indefinite" values="0.0;0.0"/>
      <animate attributeName="d" dur="2s" repeatCount="indefinite" values="M-114.7 24.5 Q-80.0 8.7 -55.8 -17.5 -50.75 -23.05 -46.7 -29.5 -26.05 -62.85 -1.8 -92.75 -1.2 -93.5 0.15 -93.95 12.7 -97.7 25.3 -101.5 46.65 -101.35 54.1 -87.4 L54.3 -86.5 Q79.55 -86.25 100.35 -81.75 107.95 -80.15 112.3 -75.5 117.75 -60.55 110.55 -49.35 L110.3 -48.5 Q115.95 -31.95 106.55 -21.3 106.3 -21.0 106.3 -20.5 113.75 -5.0 101.55 4.8 101.3 5.0 101.3 5.5 106.2 12.5 103.45 22.55 103.3 23.0 103.3 23.5 82.3 53.0 38.55 60.8 29.95 61.9 21.35 63.05 4.0 64.7 -12.55 68.25 -27.3 71.4 -38.3 78.6 -56.95 90.75 -76.7 101.5 -83.3 97.1 -88.45 91.3 L-88.7 90.5 Q-68.8 87.9 -55.3 78.65 -35.55 65.15 -8.95 57.7 5.8 53.55 25.3 53.0 L38.25 52.15 Q73.9 48.6 93.4 28.6 98.1 23.8 99.15 16.35 99.5 13.75 96.3 13.5 86.45 18.95 91.7 9.7 92.0 9.6 92.3 9.5 103.55 0.75 104.3 -13.5 L104.3 -14.5 Q100.35 -20.25 92.6 -20.2 L94.05 -20.95 Q100.85 -24.45 105.3 -30.5 111.85 -47.2 91.3 -46.5 L90.3 -46.5 Q82.05 -53.15 92.45 -51.55 102.3 -50.0 107.3 -54.5 111.75 -64.0 106.9 -73.3 L106.3 -73.5 Q96.6 -81.8 77.35 -80.0 L77.3 -79.5 Q58.75 -80.45 42.25 -83.05 36.3 -84.0 30.55 -83.05 13.6 -80.2 -1.7 -79.5 -0.35 -80.65 5.95 -82.6 19.5 -86.8 37.25 -86.1 49.0 -85.65 48.3 -89.5 L48.1 -90.1 Q27.45 -101.45 2.3 -91.5 -2.05 -89.35 -4.35 -85.3 -17.95 -61.75 -34.15 -41.05 -40.8 -32.6 -47.15 -23.55 -72.5 12.2 -113.7 32.5 L-113.7 33.5 -113.7 34.5 -114.2 34.45 Q-114.7 29.5 -114.7 24.5 M-113.7 32.5 Q-72.5 12.2 -47.15 -23.55 -40.8 -32.6 -34.15 -41.05 -17.95 -61.75 -4.35 -85.3 -2.05 -89.35 2.3 -91.5 27.45 -101.45 48.1 -90.1 49.0 -85.65 37.25 -86.1 19.5 -86.8 5.95 -82.6 -0.35 -80.65 -1.7 -79.5 13.6 -80.2 30.55 -83.05 36.3 -84.0 42.25 -83.05 58.75 -80.45 77.3 -79.5 79.35 -78.45 80.3 -77.3 91.45 -63.3 78.3 -51.5 78.5 -48.8 78.8 -48.05 81.25 -41.45 90.3 -35.5 92.85 -24.25 89.0 -17.65 88.35 -16.45 87.35 -15.7 76.9 -7.65 88.3 -2.5 89.75 -0.45 88.9 2.0 83.8 16.7 83.3 32.5 79.2 34.9 74.25 36.3 L46.4 43.85 Q24.2 49.65 9.3 47.5 L9.05 46.85 Q-5.4 37.75 -18.7 32.5 L-19.4 32.75 Q-50.45 67.95 -98.7 77.5 -98.7 77.0 -98.95 76.65 -110.3 59.6 -113.7 34.5 L-113.7 33.5 -113.7 32.5 M-98.7 77.5 Q-50.45 67.95 -19.4 32.75 -5.4 37.75 9.05 46.85 24.2 49.65 46.4 43.85 L74.25 36.3 Q79.2 34.9 83.3 32.5 83.8 16.7 88.9 2.0 89.75 -0.45 88.3 -2.5 76.9 -7.65 87.35 -15.7 88.35 -16.45 89.0 -17.65 92.85 -24.25 90.3 -35.5 81.25 -41.45 78.8 -48.05 78.5 -48.8 78.3 -51.5 91.45 -63.3 80.3 -77.3 L79.1 -78.9 Q78.8 -79.5 77.3 -79.5 96.6 -81.8 106.3 -73.5 111.75 -64.0 107.3 -54.5 102.3 -50.0 92.45 -51.55 82.05 -53.15 90.3 -46.5 L91.3 -46.5 Q111.85 -47.2 105.3 -30.5 100.85 -24.45 94.05 -20.95 L92.6 -20.2 Q100.35 -20.25 104.3 -14.5 L104.3 -13.5 Q103.55 0.75 92.3 9.5 92.0 9.6 91.7 9.7 86.45 18.95 96.3 13.5 99.5 13.75 99.15 16.35 98.1 23.8 93.4 28.6 73.9 48.6 38.25 52.15 L25.3 53.0 Q5.8 53.55 -8.95 57.7 -35.55 65.15 -55.3 78.65 -68.8 87.9 -88.7 90.5 L-89.4 90.25 Q-94.25 84.05 -98.7 77.5 Z;M-104.75 28.0 Q-72.55 11.2 -50.55 -15.75 -45.95 -21.5 -42.35 -28.0 -24.0 -61.95 -2.05 -92.55 -1.15 -93.15 -0.2 -93.8 11.3 -98.1 23.35 -102.1 43.35 -102.6 50.9 -88.85 L51.1 -87.95 Q75.0 -88.45 94.7 -84.6 101.95 -83.3 106.2 -78.85 111.85 -64.0 105.4 -52.6 L105.15 -51.7 Q111.05 -35.4 102.55 -24.5 102.3 -24.2 102.3 -23.7 109.85 -8.35 98.6 1.8 98.35 2.0 98.35 2.5 103.25 9.35 100.95 19.55 100.85 20.0 100.9 20.5 82.0 50.5 40.95 59.65 33.85 61.2 24.85 62.45 8.55 64.6 -7.0 68.65 -20.9 72.25 -30.9 79.8 -48.15 92.4 -66.5 103.8 -72.85 99.6 -77.9 93.95 L-78.15 93.15 Q-59.45 89.95 -47.0 80.35 -28.8 66.25 -4.0 57.95 9.9 53.35 28.2 52.25 L40.4 51.0 Q74.0 46.35 91.65 25.85 95.95 20.95 96.7 13.4 96.95 10.85 93.95 10.65 84.8 16.4 89.45 7.0 89.55 6.8 90.0 6.75 100.4 -2.35 100.6 -16.65 L100.6 -17.65 Q96.65 -23.25 89.35 -23.0 L90.65 -23.8 Q97.0 -27.45 101.05 -33.55 106.7 -50.45 87.25 -49.1 L86.35 -49.1 Q78.35 -55.5 88.15 -54.25 97.55 -53.0 102.15 -57.65 106.1 -67.3 101.15 -76.45 L100.6 -76.65 Q91.15 -84.5 73.05 -82.25 L73.05 -81.75 Q55.5 -82.15 39.85 -84.15 34.35 -84.0 28.8 -83.8 12.95 -80.55 -1.5 -79.4 -0.3 -80.5 5.6 -82.6 18.3 -87.2 35.05 -87.05 46.1 -86.95 45.3 -90.8 L45.15 -91.4 Q25.35 -102.15 1.85 -91.4 -2.15 -89.1 -4.2 -85.0 -16.3 -61.1 -30.9 -39.9 -36.75 -31.05 -42.6 -22.15 -65.35 14.45 -103.6 35.95 L-103.6 36.95 -103.55 37.95 -104.0 37.9 Q-104.6 33.0 -104.75 28.0 M-103.6 35.95 Q-65.35 14.45 -42.6 -22.15 -36.75 -31.0 -30.9 -39.9 -16.3 -61.1 -4.2 -85.0 -2.15 -89.1 1.85 -91.4 25.35 -102.15 45.15 -91.4 46.1 -86.95 35.05 -87.05 18.3 -87.2 5.6 -82.6 -0.3 -80.5 -1.5 -79.4 12.95 -80.55 28.8 -83.8 34.3 -83.95 39.85 -84.15 55.5 -82.15 73.05 -81.75 75.0 -80.75 75.95 -79.7 86.85 -65.95 74.95 -53.7 75.2 -51.05 75.5 -50.35 78.05 -43.8 86.75 -38.2 89.5 -26.95 86.05 -20.35 85.5 -19.1 84.5 -18.3 75.0 -9.95 85.85 -5.1 87.3 -3.1 86.55 -0.65 82.25 14.2 82.25 30.0 78.55 32.5 73.9 34.1 L47.8 42.45 Q27.1 48.9 13.0 47.25 L12.7 46.55 Q-1.25 37.95 -13.95 33.05 L-14.6 33.35 Q-42.75 69.5 -87.95 80.5 -87.95 80.0 -88.25 79.65 -99.45 62.95 -103.55 37.95 L-103.6 36.95 -103.6 35.95 M-87.95 80.5 Q-42.75 69.5 -14.6 33.35 -1.25 37.95 12.7 46.55 27.1 48.9 47.8 42.45 L73.9 34.1 Q78.55 32.5 82.25 30.0 82.25 14.2 86.55 -0.65 87.3 -3.1 85.85 -5.1 75.0 -9.95 84.5 -18.3 85.5 -19.1 86.05 -20.35 89.5 -26.95 86.75 -38.2 78.05 -43.8 75.5 -50.35 75.2 -51.05 74.95 -53.7 86.85 -65.95 75.95 -79.7 L74.8 -81.2 Q74.45 -81.8 73.05 -81.75 91.15 -84.5 100.6 -76.65 106.1 -67.3 102.15 -57.65 97.55 -53.0 88.15 -54.25 78.35 -55.5 86.35 -49.1 L87.25 -49.1 Q106.7 -50.45 101.05 -33.55 97.0 -27.45 90.65 -23.8 L89.35 -23.0 Q96.65 -23.25 100.6 -17.65 L100.6 -16.65 Q100.4 -2.35 90.0 6.75 89.55 6.8 89.45 7.0 84.8 16.4 93.95 10.65 96.95 10.85 96.7 13.4 95.95 20.95 91.65 25.85 74.0 46.35 40.4 51.0 L28.2 52.25 Q9.9 53.35 -4.0 57.95 -28.8 66.25 -47.0 80.35 -59.45 89.95 -78.15 93.15 L-78.85 92.9 Q-83.4 86.7 -87.95 80.5 Z"/>
    </path>
  </g>
</svg>
