<?xml version="1.0" encoding="UTF-8" standalone="no"?>
<svg xmlns:ffdec="https://www.free-decompiler.com/flash" xmlns:xlink="http://www.w3.org/1999/xlink" ffdec:objectType="morphshape" height="203.95px" width="229.35px" xmlns="http://www.w3.org/2000/svg">
  <g transform="matrix(1.0, 0.0, 0.0, 1.0, 114.7, 102.45)">
    <path d="M-114.7 24.5 Q-114.7 29.5 -114.2 34.45 L-113.7 34.5 -113.7 33.5 -113.7 32.5 Q-72.5 12.2 -47.15 -23.55 -40.8 -32.6 -34.15 -41.05 -17.95 -61.75 -4.35 -85.3 -2.05 -89.35 2.3 -91.5 27.45 -101.45 48.1 -90.1 L48.3 -89.5 Q49.0 -85.65 37.25 -86.1 19.5 -86.8 5.95 -82.6 -0.35 -80.65 -1.7 -79.5 13.6 -80.2 30.55 -83.05 36.3 -84.0 42.25 -83.05 58.75 -80.45 77.3 -79.5 L77.35 -80.0 Q96.6 -81.8 106.3 -73.5 106.6 -73.4 106.9 -73.3 111.75 -64.0 107.3 -54.5 102.3 -50.0 92.45 -51.55 82.05 -53.15 90.3 -46.5 L91.3 -46.5 Q111.85 -47.2 105.3 -30.5 100.85 -24.45 94.05 -20.95 L92.6 -20.2 Q100.35 -20.25 104.3 -14.5 L104.3 -13.5 Q103.55 0.75 92.3 9.5 L91.7 9.7 Q86.45 18.95 96.3 13.5 99.5 13.75 99.15 16.35 98.1 23.8 93.4 28.6 73.9 48.6 38.25 52.15 L25.3 53.0 Q5.8 53.55 -8.95 57.7 -35.55 65.15 -55.3 78.65 -68.8 87.9 -88.7 90.5 L-88.45 91.3 Q-83.3 97.1 -76.7 101.5 -56.95 90.75 -38.3 78.6 -27.3 71.4 -12.55 68.25 4.0 64.7 21.35 63.05 L38.55 60.8 Q82.3 53.0 103.3 23.5 103.3 23.0 103.45 22.55 106.2 12.5 101.3 5.5 101.3 5.0 101.55 4.8 113.75 -5.0 106.3 -20.5 106.3 -21.0 106.55 -21.3 115.95 -31.95 110.3 -48.5 L110.55 -49.35 Q117.75 -60.55 112.3 -75.5 107.95 -80.15 100.35 -81.75 79.55 -86.25 54.3 -86.5 L54.1 -87.4 Q46.65 -101.35 25.3 -101.5 L0.15 -93.95 Q-1.2 -93.5 -1.8 -92.75 -26.05 -62.85 -46.7 -29.5 -50.75 -23.05 -55.8 -17.5 -80.0 8.7 -114.7 24.5" fill="#241f1f" fill-opacity="0.9647059" fill-rule="evenodd" stroke="none">
      <animate attributeName="fill" dur="2s" repeatCount="indefinite" values="#241f1f;#241f20"/>
      <animate attributeName="fill-opacity" dur="2s" repeatCount="indefinite" values="0.9647059;0.9647059"/>
      <animate attributeName="d" dur="2s" repeatCount="indefinite" values="M-114.7 24.5 Q-114.7 29.5 -114.2 34.45 L-113.7 34.5 -113.7 33.5 -113.7 32.5 Q-72.5 12.2 -47.15 -23.55 -40.8 -32.6 -34.15 -41.05 -17.95 -61.75 -4.35 -85.3 -2.05 -89.35 2.3 -91.5 27.45 -101.45 48.1 -90.1 L48.3 -89.5 Q49.0 -85.65 37.25 -86.1 19.5 -86.8 5.95 -82.6 -0.35 -80.65 -1.7 -79.5 13.6 -80.2 30.55 -83.05 36.3 -84.0 42.25 -83.05 58.75 -80.45 77.3 -79.5 L77.35 -80.0 Q96.6 -81.8 106.3 -73.5 106.6 -73.4 106.9 -73.3 111.75 -64.0 107.3 -54.5 102.3 -50.0 92.45 -51.55 82.05 -53.15 90.3 -46.5 L91.3 -46.5 Q111.85 -47.2 105.3 -30.5 100.85 -24.45 94.05 -20.95 L92.6 -20.2 Q100.35 -20.25 104.3 -14.5 L104.3 -13.5 Q103.55 0.75 92.3 9.5 L91.7 9.7 Q86.45 18.95 96.3 13.5 99.5 13.75 99.15 16.35 98.1 23.8 93.4 28.6 73.9 48.6 38.25 52.15 L25.3 53.0 Q5.8 53.55 -8.95 57.7 -35.55 65.15 -55.3 78.65 -68.8 87.9 -88.7 90.5 L-88.45 91.3 Q-83.3 97.1 -76.7 101.5 -56.95 90.75 -38.3 78.6 -27.3 71.4 -12.55 68.25 4.0 64.7 21.35 63.05 L38.55 60.8 Q82.3 53.0 103.3 23.5 103.3 23.0 103.45 22.55 106.2 12.5 101.3 5.5 101.3 5.0 101.55 4.8 113.75 -5.0 106.3 -20.5 106.3 -21.0 106.55 -21.3 115.95 -31.95 110.3 -48.5 L110.55 -49.35 Q117.75 -60.55 112.3 -75.5 107.95 -80.15 100.35 -81.75 79.55 -86.25 54.3 -86.5 L54.1 -87.4 Q46.65 -101.35 25.3 -101.5 L0.15 -93.95 Q-1.2 -93.5 -1.8 -92.75 -26.05 -62.85 -46.7 -29.5 -50.75 -23.05 -55.8 -17.5 -80.0 8.7 -114.7 24.5;M-113.75 23.55 Q-113.75 28.55 -113.25 33.5 L-112.75 33.55 -112.75 32.55 -112.75 31.55 Q-71.95 11.25 -46.8 -24.5 -40.5 -33.55 -33.9 -42.0 -17.85 -62.7 -4.4 -86.25 -2.15 -90.3 2.2 -92.45 27.05 -102.4 47.55 -91.05 L47.75 -90.45 Q48.4 -86.6 36.8 -87.05 19.2 -87.75 5.75 -83.55 -0.45 -81.6 -1.8 -80.45 13.35 -81.15 30.15 -84.0 35.85 -84.95 41.75 -84.0 58.1 -81.4 76.45 -80.45 L76.5 -80.95 Q95.6 -82.75 105.2 -74.45 105.7 -74.45 105.8 -74.25 110.6 -64.95 106.2 -55.45 101.25 -50.95 91.5 -52.5 81.2 -54.1 89.35 -47.45 L90.35 -47.45 Q110.7 -48.15 104.2 -31.45 99.8 -25.4 93.1 -21.9 L91.65 -21.15 Q99.3 -21.2 103.2 -15.45 L103.2 -14.45 Q102.5 -0.2 91.3 8.55 L90.75 8.75 Q85.55 18.0 95.25 12.55 98.45 12.8 98.1 15.4 97.1 22.85 92.4 27.65 73.1 47.65 37.75 51.2 L24.95 52.05 Q5.6 52.6 -9.0 56.75 -35.3 64.2 -54.9 77.7 -68.25 86.95 -88.0 89.55 L-87.75 90.35 Q-82.65 96.15 -76.1 100.55 -56.5 89.8 -38.05 77.65 -27.15 70.45 -12.5 67.3 3.85 63.75 21.05 62.1 L38.1 59.85 Q81.4 52.05 102.25 22.55 102.25 22.05 102.4 21.6 105.1 11.55 100.25 4.55 100.25 4.05 100.5 3.85 112.55 -5.95 105.2 -21.45 105.2 -21.95 105.45 -22.25 114.75 -32.9 109.15 -49.45 L109.4 -50.3 Q116.55 -61.5 111.15 -76.45 106.85 -81.1 99.3 -82.7 78.7 -87.2 53.65 -87.45 L53.5 -88.35 Q46.15 -102.3 24.95 -102.45 L0.05 -94.9 Q-1.3 -94.45 -1.85 -93.7 -25.9 -63.8 -46.4 -30.45 -50.4 -24.0 -55.35 -18.45 -79.35 7.75 -113.75 23.55"/>
    </path>
    <path d="M-113.7 32.5 L-113.7 33.5 -113.7 34.5 Q-110.3 59.6 -98.95 76.65 -98.7 77.0 -98.7 77.5 -50.45 67.95 -19.4 32.75 -19.05 32.6 -18.7 32.5 -5.4 37.75 9.05 46.85 L9.3 47.5 Q24.2 49.65 46.4 43.85 L74.25 36.3 Q79.2 34.9 83.3 32.5 83.8 16.7 88.9 2.0 89.75 -0.45 88.3 -2.5 76.9 -7.65 87.35 -15.7 88.35 -16.45 89.0 -17.65 92.85 -24.25 90.3 -35.5 81.25 -41.45 78.8 -48.05 78.5 -48.8 78.3 -51.5 91.45 -63.3 80.3 -77.3 79.35 -78.45 77.3 -79.5 58.75 -80.45 42.25 -83.05 36.3 -84.0 30.55 -83.05 13.6 -80.2 -1.7 -79.5 -0.35 -80.65 5.95 -82.6 19.5 -86.8 37.25 -86.1 49.0 -85.65 48.1 -90.1 27.45 -101.45 2.3 -91.5 -2.05 -89.35 -4.35 -85.3 -17.95 -61.75 -34.15 -41.05 -40.8 -32.6 -47.15 -23.55 -72.5 12.2 -113.7 32.5" fill="#ffffff" fill-rule="evenodd" stroke="none">
      <animate attributeName="fill" dur="2s" repeatCount="indefinite" values="#ffffff;#ffffff"/>
      <animate attributeName="fill-opacity" dur="2s" repeatCount="indefinite" values="1.0;1.0"/>
      <animate attributeName="d" dur="2s" repeatCount="indefinite" values="M-113.7 32.5 L-113.7 33.5 -113.7 34.5 Q-110.3 59.6 -98.95 76.65 -98.7 77.0 -98.7 77.5 -50.45 67.95 -19.4 32.75 -19.05 32.6 -18.7 32.5 -5.4 37.75 9.05 46.85 L9.3 47.5 Q24.2 49.65 46.4 43.85 L74.25 36.3 Q79.2 34.9 83.3 32.5 83.8 16.7 88.9 2.0 89.75 -0.45 88.3 -2.5 76.9 -7.65 87.35 -15.7 88.35 -16.45 89.0 -17.65 92.85 -24.25 90.3 -35.5 81.25 -41.45 78.8 -48.05 78.5 -48.8 78.3 -51.5 91.45 -63.3 80.3 -77.3 79.35 -78.45 77.3 -79.5 58.75 -80.45 42.25 -83.05 36.3 -84.0 30.55 -83.05 13.6 -80.2 -1.7 -79.5 -0.35 -80.65 5.95 -82.6 19.5 -86.8 37.25 -86.1 49.0 -85.65 48.1 -90.1 27.45 -101.45 2.3 -91.5 -2.05 -89.35 -4.35 -85.3 -17.95 -61.75 -34.15 -41.05 -40.8 -32.6 -47.15 -23.55 -72.5 12.2 -113.7 32.5;M-112.75 31.55 L-112.75 32.55 -112.75 33.55 Q-109.4 58.65 -98.1 75.7 -97.85 76.05 -97.85 76.55 -50.05 67.0 -19.3 31.8 -19.1 31.55 -18.65 31.55 -5.45 36.8 8.85 45.9 L9.1 46.55 Q23.85 48.7 45.85 42.9 L73.45 35.35 Q78.35 33.95 82.45 31.55 82.9 15.75 87.95 1.05 88.85 -1.4 87.35 -3.45 76.05 -8.6 86.45 -16.65 87.4 -17.4 88.05 -18.6 91.9 -25.2 89.35 -36.45 80.35 -42.4 77.95 -49.0 77.65 -49.75 77.45 -52.45 90.5 -64.25 79.45 -78.25 78.5 -79.4 76.45 -80.45 58.1 -81.4 41.75 -84.0 35.85 -84.95 30.15 -84.0 13.35 -81.15 -1.8 -80.45 -0.45 -81.6 5.75 -83.55 19.2 -87.75 36.8 -87.05 48.4 -86.6 47.55 -91.05 27.05 -102.4 2.2 -92.45 -2.15 -90.3 -4.4 -86.25 -17.85 -62.7 -33.9 -42.0 -40.5 -33.55 -46.8 -24.5 -71.95 11.25 -112.75 31.55"/>
    </path>
    <path d="M-98.7 77.5 Q-94.25 84.05 -89.4 90.25 L-88.7 90.5 Q-68.8 87.9 -55.3 78.65 -35.55 65.15 -8.95 57.7 5.8 53.55 25.3 53.0 L38.25 52.15 Q73.9 48.6 93.4 28.6 98.1 23.8 99.15 16.35 99.5 13.75 96.3 13.5 86.45 18.95 91.7 9.7 L92.3 9.5 Q103.55 0.75 104.3 -13.5 L104.3 -14.5 Q100.35 -20.25 92.6 -20.2 L94.05 -20.95 Q100.85 -24.45 105.3 -30.5 111.85 -47.2 91.3 -46.5 L90.3 -46.5 Q82.05 -53.15 92.45 -51.55 102.3 -50.0 107.3 -54.5 111.75 -64.0 106.3 -73.5 96.6 -81.8 77.3 -79.5 78.8 -79.5 79.1 -78.9 L80.3 -77.3 Q91.45 -63.3 78.3 -51.5 78.5 -48.8 78.8 -48.05 81.25 -41.45 90.3 -35.5 92.85 -24.25 89.0 -17.65 88.35 -16.45 87.35 -15.7 76.9 -7.65 88.3 -2.5 89.75 -0.45 88.9 2.0 83.8 16.7 83.3 32.5 79.2 34.9 74.25 36.3 L46.4 43.85 Q24.2 49.65 9.05 46.85 -5.4 37.75 -19.4 32.75 -50.45 67.95 -98.7 77.5" fill="#d0d0d0" fill-rule="evenodd" stroke="none">
      <animate attributeName="fill" dur="2s" repeatCount="indefinite" values="#d0d0d0;#d0d0d1"/>
      <animate attributeName="fill-opacity" dur="2s" repeatCount="indefinite" values="1.0;1.0"/>
      <animate attributeName="d" dur="2s" repeatCount="indefinite" values="M-98.7 77.5 Q-94.25 84.05 -89.4 90.25 L-88.7 90.5 Q-68.8 87.9 -55.3 78.65 -35.55 65.15 -8.95 57.7 5.8 53.55 25.3 53.0 L38.25 52.15 Q73.9 48.6 93.4 28.6 98.1 23.8 99.15 16.35 99.5 13.75 96.3 13.5 86.45 18.95 91.7 9.7 L92.3 9.5 Q103.55 0.75 104.3 -13.5 L104.3 -14.5 Q100.35 -20.25 92.6 -20.2 L94.05 -20.95 Q100.85 -24.45 105.3 -30.5 111.85 -47.2 91.3 -46.5 L90.3 -46.5 Q82.05 -53.15 92.45 -51.55 102.3 -50.0 107.3 -54.5 111.75 -64.0 106.3 -73.5 96.6 -81.8 77.3 -79.5 78.8 -79.5 79.1 -78.9 L80.3 -77.3 Q91.45 -63.3 78.3 -51.5 78.5 -48.8 78.8 -48.05 81.25 -41.45 90.3 -35.5 92.85 -24.25 89.0 -17.65 88.35 -16.45 87.35 -15.7 76.9 -7.65 88.3 -2.5 89.75 -0.45 88.9 2.0 83.8 16.7 83.3 32.5 79.2 34.9 74.25 36.3 L46.4 43.85 Q24.2 49.65 9.05 46.85 -5.4 37.75 -19.4 32.75 -50.45 67.95 -98.7 77.5;M-97.85 76.55 Q-93.5 83.1 -88.65 89.3 L-88.0 89.55 Q-68.25 86.95 -54.9 77.7 -35.3 64.2 -9.0 56.75 5.6 52.6 24.95 52.05 L37.75 51.2 Q73.1 47.65 92.4 27.65 97.1 22.85 98.1 15.4 98.45 12.8 95.25 12.55 85.55 18.0 90.75 8.75 L91.3 8.55 Q102.5 -0.2 103.2 -14.45 L103.2 -15.45 Q99.3 -21.2 91.65 -21.15 L93.1 -21.9 Q99.8 -25.4 104.2 -31.45 110.7 -48.15 90.35 -47.45 L89.35 -47.45 Q81.2 -54.1 91.5 -52.5 101.25 -50.95 106.2 -55.45 110.6 -64.95 105.2 -74.45 95.6 -82.75 76.45 -80.45 77.95 -80.45 78.25 -79.85 L79.45 -78.25 Q90.5 -64.25 77.45 -52.45 77.65 -49.75 77.95 -49.0 80.35 -42.4 89.35 -36.45 91.9 -25.2 88.05 -18.6 87.4 -17.4 86.45 -16.65 76.05 -8.6 87.35 -3.45 88.85 -1.4 87.95 1.05 82.9 15.75 82.45 31.55 78.35 33.95 73.45 35.35 L45.85 42.9 Q23.85 48.7 8.85 45.9 -5.45 36.8 -19.3 31.8 -50.05 67.0 -97.85 76.55"/>
    </path>
    <path d="M-114.7 24.5 Q-80.0 8.7 -55.8 -17.5 -50.75 -23.05 -46.7 -29.5 -26.05 -62.85 -1.8 -92.75 -1.2 -93.5 0.15 -93.95 L25.3 -101.5 Q46.65 -101.35 54.1 -87.4 L54.3 -86.5 Q79.55 -86.25 100.35 -81.75 107.95 -80.15 112.3 -75.5 117.75 -60.55 110.55 -49.35 L110.3 -48.5 Q115.95 -31.95 106.55 -21.3 106.3 -21.0 106.3 -20.5 113.75 -5.0 101.55 4.8 101.3 5.0 101.3 5.5 106.2 12.5 103.45 22.55 103.3 23.0 103.3 23.5 82.3 53.0 38.55 60.8 L21.35 63.05 Q4.0 64.7 -12.55 68.25 -27.3 71.4 -38.3 78.6 -56.95 90.75 -76.7 101.5 -83.3 97.1 -88.45 91.3 L-88.7 90.5 Q-68.8 87.9 -55.3 78.65 -35.55 65.15 -8.95 57.7 5.8 53.55 25.3 53.0 L38.25 52.15 Q73.9 48.6 93.4 28.6 98.1 23.8 99.15 16.35 99.5 13.75 96.3 13.5 86.45 18.95 91.7 9.7 L92.3 9.5 Q103.55 0.75 104.3 -13.5 L104.3 -14.5 Q100.35 -20.25 92.6 -20.2 L94.05 -20.95 Q100.85 -24.45 105.3 -30.5 111.85 -47.2 91.3 -46.5 L90.3 -46.5 Q82.05 -53.15 92.45 -51.55 102.3 -50.0 107.3 -54.5 111.75 -64.0 106.9 -73.3 106.6 -73.4 106.3 -73.5 96.6 -81.8 77.35 -80.0 L77.3 -79.5 Q58.75 -80.45 42.25 -83.05 36.3 -84.0 30.55 -83.05 13.6 -80.2 -1.7 -79.5 -0.35 -80.65 5.95 -82.6 19.5 -86.8 37.25 -86.1 49.0 -85.65 48.3 -89.5 L48.1 -90.1 Q27.45 -101.45 2.3 -91.5 -2.05 -89.35 -4.35 -85.3 -17.95 -61.75 -34.15 -41.05 -40.8 -32.6 -47.15 -23.55 -72.5 12.2 -113.7 32.5 L-113.7 33.5 -113.7 34.5 -114.2 34.45 Q-114.7 29.5 -114.7 24.5 M-113.7 32.5 Q-72.5 12.2 -47.15 -23.55 -40.8 -32.6 -34.15 -41.05 -17.95 -61.75 -4.35 -85.3 -2.05 -89.35 2.3 -91.5 27.45 -101.45 48.1 -90.1 49.0 -85.65 37.25 -86.1 19.5 -86.8 5.95 -82.6 -0.35 -80.65 -1.7 -79.5 13.6 -80.2 30.55 -83.05 36.3 -84.0 42.25 -83.05 58.75 -80.45 77.3 -79.5 79.35 -78.45 80.3 -77.3 91.45 -63.3 78.3 -51.5 78.5 -48.8 78.8 -48.05 81.25 -41.45 90.3 -35.5 92.85 -24.25 89.0 -17.65 88.35 -16.45 87.35 -15.7 76.9 -7.65 88.3 -2.5 89.75 -0.45 88.9 2.0 83.8 16.7 83.3 32.5 79.2 34.9 74.25 36.3 L46.4 43.85 Q24.2 49.65 9.3 47.5 L9.05 46.85 Q-5.4 37.75 -18.7 32.5 -19.05 32.6 -19.4 32.75 -50.45 67.95 -98.7 77.5 -98.7 77.0 -98.95 76.65 -110.3 59.6 -113.7 34.5 L-113.7 33.5 -113.7 32.5 M-98.7 77.5 Q-50.45 67.95 -19.4 32.75 -5.4 37.75 9.05 46.85 24.2 49.65 46.4 43.85 L74.25 36.3 Q79.2 34.9 83.3 32.5 83.8 16.7 88.9 2.0 89.75 -0.45 88.3 -2.5 76.9 -7.65 87.35 -15.7 88.35 -16.45 89.0 -17.65 92.85 -24.25 90.3 -35.5 81.25 -41.45 78.8 -48.05 78.5 -48.8 78.3 -51.5 91.45 -63.3 80.3 -77.3 L79.1 -78.9 Q78.8 -79.5 77.3 -79.5 96.6 -81.8 106.3 -73.5 111.75 -64.0 107.3 -54.5 102.3 -50.0 92.45 -51.55 82.05 -53.15 90.3 -46.5 L91.3 -46.5 Q111.85 -47.2 105.3 -30.5 100.85 -24.45 94.05 -20.95 L92.6 -20.2 Q100.35 -20.25 104.3 -14.5 L104.3 -13.5 Q103.55 0.75 92.3 9.5 L91.7 9.7 Q86.45 18.95 96.3 13.5 99.5 13.75 99.15 16.35 98.1 23.8 93.4 28.6 73.9 48.6 38.25 52.15 L25.3 53.0 Q5.8 53.55 -8.95 57.7 -35.55 65.15 -55.3 78.65 -68.8 87.9 -88.7 90.5 L-89.4 90.25 Q-94.25 84.05 -98.7 77.5 Z" fill="none" stroke="#000000" stroke-linecap="round" stroke-linejoin="round" stroke-opacity="0.0" stroke-width="0.0">
      <animate attributeName="stroke" dur="2s" repeatCount="indefinite" values="#000000;#000001"/>
      <animate attributeName="stroke-width" dur="2s" repeatCount="indefinite" values="0.0;0.0"/>
      <animate attributeName="fill-opacity" dur="2s" repeatCount="indefinite" values="0.0;0.0"/>
      <animate attributeName="d" dur="2s" repeatCount="indefinite" values="M-114.7 24.5 Q-80.0 8.7 -55.8 -17.5 -50.75 -23.05 -46.7 -29.5 -26.05 -62.85 -1.8 -92.75 -1.2 -93.5 0.15 -93.95 L25.3 -101.5 Q46.65 -101.35 54.1 -87.4 L54.3 -86.5 Q79.55 -86.25 100.35 -81.75 107.95 -80.15 112.3 -75.5 117.75 -60.55 110.55 -49.35 L110.3 -48.5 Q115.95 -31.95 106.55 -21.3 106.3 -21.0 106.3 -20.5 113.75 -5.0 101.55 4.8 101.3 5.0 101.3 5.5 106.2 12.5 103.45 22.55 103.3 23.0 103.3 23.5 82.3 53.0 38.55 60.8 L21.35 63.05 Q4.0 64.7 -12.55 68.25 -27.3 71.4 -38.3 78.6 -56.95 90.75 -76.7 101.5 -83.3 97.1 -88.45 91.3 L-88.7 90.5 Q-68.8 87.9 -55.3 78.65 -35.55 65.15 -8.95 57.7 5.8 53.55 25.3 53.0 L38.25 52.15 Q73.9 48.6 93.4 28.6 98.1 23.8 99.15 16.35 99.5 13.75 96.3 13.5 86.45 18.95 91.7 9.7 L92.3 9.5 Q103.55 0.75 104.3 -13.5 L104.3 -14.5 Q100.35 -20.25 92.6 -20.2 L94.05 -20.95 Q100.85 -24.45 105.3 -30.5 111.85 -47.2 91.3 -46.5 L90.3 -46.5 Q82.05 -53.15 92.45 -51.55 102.3 -50.0 107.3 -54.5 111.75 -64.0 106.9 -73.3 106.6 -73.4 106.3 -73.5 96.6 -81.8 77.35 -80.0 L77.3 -79.5 Q58.75 -80.45 42.25 -83.05 36.3 -84.0 30.55 -83.05 13.6 -80.2 -1.7 -79.5 -0.35 -80.65 5.95 -82.6 19.5 -86.8 37.25 -86.1 49.0 -85.65 48.3 -89.5 L48.1 -90.1 Q27.45 -101.45 2.3 -91.5 -2.05 -89.35 -4.35 -85.3 -17.95 -61.75 -34.15 -41.05 -40.8 -32.6 -47.15 -23.55 -72.5 12.2 -113.7 32.5 L-113.7 33.5 -113.7 34.5 -114.2 34.45 Q-114.7 29.5 -114.7 24.5 M-113.7 32.5 Q-72.5 12.2 -47.15 -23.55 -40.8 -32.6 -34.15 -41.05 -17.95 -61.75 -4.35 -85.3 -2.05 -89.35 2.3 -91.5 27.45 -101.45 48.1 -90.1 49.0 -85.65 37.25 -86.1 19.5 -86.8 5.95 -82.6 -0.35 -80.65 -1.7 -79.5 13.6 -80.2 30.55 -83.05 36.3 -84.0 42.25 -83.05 58.75 -80.45 77.3 -79.5 79.35 -78.45 80.3 -77.3 91.45 -63.3 78.3 -51.5 78.5 -48.8 78.8 -48.05 81.25 -41.45 90.3 -35.5 92.85 -24.25 89.0 -17.65 88.35 -16.45 87.35 -15.7 76.9 -7.65 88.3 -2.5 89.75 -0.45 88.9 2.0 83.8 16.7 83.3 32.5 79.2 34.9 74.25 36.3 L46.4 43.85 Q24.2 49.65 9.3 47.5 L9.05 46.85 Q-5.4 37.75 -18.7 32.5 -19.05 32.6 -19.4 32.75 -50.45 67.95 -98.7 77.5 -98.7 77.0 -98.95 76.65 -110.3 59.6 -113.7 34.5 L-113.7 33.5 -113.7 32.5 M-98.7 77.5 Q-50.45 67.95 -19.4 32.75 -5.4 37.75 9.05 46.85 24.2 49.65 46.4 43.85 L74.25 36.3 Q79.2 34.9 83.3 32.5 83.8 16.7 88.9 2.0 89.75 -0.45 88.3 -2.5 76.9 -7.65 87.35 -15.7 88.35 -16.45 89.0 -17.65 92.85 -24.25 90.3 -35.5 81.25 -41.45 78.8 -48.05 78.5 -48.8 78.3 -51.5 91.45 -63.3 80.3 -77.3 L79.1 -78.9 Q78.8 -79.5 77.3 -79.5 96.6 -81.8 106.3 -73.5 111.75 -64.0 107.3 -54.5 102.3 -50.0 92.45 -51.55 82.05 -53.15 90.3 -46.5 L91.3 -46.5 Q111.85 -47.2 105.3 -30.5 100.85 -24.45 94.05 -20.95 L92.6 -20.2 Q100.35 -20.25 104.3 -14.5 L104.3 -13.5 Q103.55 0.75 92.3 9.5 L91.7 9.7 Q86.45 18.95 96.3 13.5 99.5 13.75 99.15 16.35 98.1 23.8 93.4 28.6 73.9 48.6 38.25 52.15 L25.3 53.0 Q5.8 53.55 -8.95 57.7 -35.55 65.15 -55.3 78.65 -68.8 87.9 -88.7 90.5 L-89.4 90.25 Q-94.25 84.05 -98.7 77.5 Z;M-113.75 23.55 Q-79.35 7.75 -55.35 -18.45 -50.4 -24.0 -46.4 -30.45 -25.9 -63.8 -1.85 -93.7 -1.3 -94.45 0.05 -94.9 L24.95 -102.45 Q46.15 -102.3 53.5 -88.35 L53.65 -87.45 Q78.7 -87.2 99.3 -82.7 106.85 -81.1 111.15 -76.45 116.55 -61.5 109.4 -50.3 L109.15 -49.45 Q114.75 -32.9 105.45 -22.25 105.2 -21.95 105.2 -21.45 112.55 -5.95 100.5 3.85 100.25 4.05 100.25 4.55 105.1 11.55 102.4 21.6 102.25 22.05 102.25 22.55 81.4 52.05 38.1 59.85 L21.05 62.1 Q3.85 63.75 -12.5 67.3 -27.15 70.45 -38.05 77.65 -56.5 89.8 -76.1 100.55 -82.65 96.15 -87.75 90.35 L-88.0 89.55 Q-68.25 86.95 -54.9 77.7 -35.3 64.2 -9.0 56.75 5.6 52.6 24.95 52.05 L37.75 51.2 Q73.1 47.65 92.4 27.65 97.1 22.85 98.1 15.4 98.45 12.8 95.25 12.55 85.55 18.0 90.75 8.75 L91.3 8.55 Q102.5 -0.2 103.2 -14.45 L103.2 -15.45 Q99.3 -21.2 91.65 -21.15 L93.1 -21.9 Q99.8 -25.4 104.2 -31.45 110.7 -48.15 90.35 -47.45 L89.35 -47.45 Q81.2 -54.1 91.5 -52.5 101.25 -50.95 106.2 -55.45 110.6 -64.95 105.8 -74.25 105.7 -74.45 105.2 -74.45 95.6 -82.75 76.5 -80.95 L76.45 -80.45 Q58.1 -81.4 41.75 -84.0 35.85 -84.95 30.15 -84.0 13.35 -81.15 -1.8 -80.45 -0.45 -81.6 5.75 -83.55 19.2 -87.75 36.8 -87.05 48.4 -86.6 47.75 -90.45 L47.55 -91.05 Q27.05 -102.4 2.2 -92.45 -2.15 -90.3 -4.4 -86.25 -17.85 -62.7 -33.9 -42.0 -40.5 -33.55 -46.8 -24.5 -71.95 11.25 -112.75 31.55 L-112.75 32.55 -112.75 33.55 -113.25 33.5 Q-113.75 28.55 -113.75 23.55 M-112.75 31.55 Q-71.95 11.25 -46.8 -24.5 -40.5 -33.55 -33.9 -42.0 -17.85 -62.7 -4.4 -86.25 -2.15 -90.3 2.2 -92.45 27.05 -102.4 47.55 -91.05 48.4 -86.6 36.8 -87.05 19.2 -87.75 5.75 -83.55 -0.45 -81.6 -1.8 -80.45 13.35 -81.15 30.15 -84.0 35.85 -84.95 41.75 -84.0 58.1 -81.4 76.45 -80.45 78.5 -79.4 79.45 -78.25 90.5 -64.25 77.45 -52.45 77.65 -49.75 77.95 -49.0 80.35 -42.4 89.35 -36.45 91.9 -25.2 88.05 -18.6 87.4 -17.4 86.45 -16.65 76.05 -8.6 87.35 -3.45 88.85 -1.4 87.95 1.05 82.9 15.75 82.45 31.55 78.35 33.95 73.45 35.35 L45.85 42.9 Q23.85 48.7 9.1 46.55 L8.85 45.9 Q-5.45 36.8 -18.65 31.55 -19.1 31.55 -19.3 31.8 -50.05 67.0 -97.85 76.55 -97.85 76.05 -98.1 75.7 -109.4 58.65 -112.75 33.55 L-112.75 32.55 -112.75 31.55 M-97.85 76.55 Q-50.05 67.0 -19.3 31.8 -5.45 36.8 8.85 45.9 23.85 48.7 45.85 42.9 L73.45 35.35 Q78.35 33.95 82.45 31.55 82.9 15.75 87.95 1.05 88.85 -1.4 87.35 -3.45 76.05 -8.6 86.45 -16.65 87.4 -17.4 88.05 -18.6 91.9 -25.2 89.35 -36.45 80.35 -42.4 77.95 -49.0 77.65 -49.75 77.45 -52.45 90.5 -64.25 79.45 -78.25 L78.25 -79.85 Q77.95 -80.45 76.45 -80.45 95.6 -82.75 105.2 -74.45 110.6 -64.95 106.2 -55.45 101.25 -50.95 91.5 -52.5 81.2 -54.1 89.35 -47.45 L90.35 -47.45 Q110.7 -48.15 104.2 -31.45 99.8 -25.4 93.1 -21.9 L91.65 -21.15 Q99.3 -21.2 103.2 -15.45 L103.2 -14.45 Q102.5 -0.2 91.3 8.55 L90.75 8.75 Q85.55 18.0 95.25 12.55 98.45 12.8 98.1 15.4 97.1 22.85 92.4 27.65 73.1 47.65 37.75 51.2 L24.95 52.05 Q5.6 52.6 -9.0 56.75 -35.3 64.2 -54.9 77.7 -68.25 86.95 -88.0 89.55 L-88.65 89.3 Q-93.5 83.1 -97.85 76.55 Z"/>
    </path>
  </g>
</svg>
