<?xml version="1.0" encoding="UTF-8" standalone="no"?>
<svg xmlns:ffdec="https://www.free-decompiler.com/flash" xmlns:xlink="http://www.w3.org/1999/xlink" ffdec:objectType="morphshape" height="211.9px" width="229.35px" xmlns="http://www.w3.org/2000/svg">
  <g transform="matrix(1.0, 0.0, 0.0, 1.0, 114.7, 101.5)">
    <path d="M-114.7 24.5 Q-114.7 29.5 -114.2 34.45 L-113.7 34.5 -113.7 33.5 -113.7 32.5 Q-72.5 12.2 -47.15 -23.55 -40.8 -32.6 -34.15 -41.05 -17.95 -61.75 -4.35 -85.3 -2.05 -89.35 2.3 -91.5 27.45 -101.45 48.1 -90.1 L48.3 -89.5 Q49.0 -85.65 37.25 -86.1 19.5 -86.8 5.95 -82.6 -0.35 -80.65 -1.7 -79.5 13.6 -80.2 30.55 -83.05 36.3 -84.0 42.25 -83.05 58.75 -80.45 77.3 -79.5 L77.35 -80.0 Q96.6 -81.8 106.3 -73.5 L106.9 -73.3 Q111.75 -64.0 107.3 -54.5 102.3 -50.0 92.45 -51.55 82.05 -53.15 90.3 -46.5 L91.3 -46.5 Q111.85 -47.2 105.3 -30.5 100.85 -24.45 94.05 -20.95 L92.6 -20.2 Q100.35 -20.25 104.3 -14.5 L104.3 -13.5 Q103.55 0.75 92.3 9.5 92.0 9.6 91.7 9.7 86.45 18.95 96.3 13.5 99.5 13.75 99.15 16.35 98.1 23.8 93.4 28.6 73.9 48.6 38.25 52.15 L25.3 53.0 Q5.8 53.55 -8.95 57.7 -35.55 65.15 -55.3 78.65 -68.8 87.9 -88.7 90.5 L-88.45 91.3 Q-83.3 97.1 -76.7 101.5 -56.95 90.75 -38.3 78.6 -27.3 71.4 -12.55 68.25 4.0 64.7 21.35 63.05 29.95 61.9 38.55 60.8 82.3 53.0 103.3 23.5 103.3 23.0 103.45 22.55 106.2 12.5 101.3 5.5 101.3 5.0 101.55 4.8 113.75 -5.0 106.3 -20.5 106.3 -21.0 106.55 -21.3 115.95 -31.95 110.3 -48.5 110.45 -48.95 110.55 -49.35 117.75 -60.55 112.3 -75.5 107.95 -80.15 100.35 -81.75 79.55 -86.25 54.3 -86.5 L54.1 -87.4 Q46.65 -101.35 25.3 -101.5 12.7 -97.7 0.15 -93.95 -1.2 -93.5 -1.8 -92.75 -26.05 -62.85 -46.7 -29.5 -50.75 -23.05 -55.8 -17.5 -80.0 8.7 -114.7 24.5" fill="#241f1f" fill-opacity="0.9647059" fill-rule="evenodd" stroke="none">
      <animate attributeName="fill" dur="2s" repeatCount="indefinite" values="#241f1f;#241f20"/>
      <animate attributeName="fill-opacity" dur="2s" repeatCount="indefinite" values="0.9647059;0.9647059"/>
      <animate attributeName="d" dur="2s" repeatCount="indefinite" values="M-114.7 24.5 Q-114.7 29.5 -114.2 34.45 L-113.7 34.5 -113.7 33.5 -113.7 32.5 Q-72.5 12.2 -47.15 -23.55 -40.8 -32.6 -34.15 -41.05 -17.95 -61.75 -4.35 -85.3 -2.05 -89.35 2.3 -91.5 27.45 -101.45 48.1 -90.1 L48.3 -89.5 Q49.0 -85.65 37.25 -86.1 19.5 -86.8 5.95 -82.6 -0.35 -80.65 -1.7 -79.5 13.6 -80.2 30.55 -83.05 36.3 -84.0 42.25 -83.05 58.75 -80.45 77.3 -79.5 L77.35 -80.0 Q96.6 -81.8 106.3 -73.5 L106.9 -73.3 Q111.75 -64.0 107.3 -54.5 102.3 -50.0 92.45 -51.55 82.05 -53.15 90.3 -46.5 L91.3 -46.5 Q111.85 -47.2 105.3 -30.5 100.85 -24.45 94.05 -20.95 L92.6 -20.2 Q100.35 -20.25 104.3 -14.5 L104.3 -13.5 Q103.55 0.75 92.3 9.5 92.0 9.6 91.7 9.7 86.45 18.95 96.3 13.5 99.5 13.75 99.15 16.35 98.1 23.8 93.4 28.6 73.9 48.6 38.25 52.15 L25.3 53.0 Q5.8 53.55 -8.95 57.7 -35.55 65.15 -55.3 78.65 -68.8 87.9 -88.7 90.5 L-88.45 91.3 Q-83.3 97.1 -76.7 101.5 -56.95 90.75 -38.3 78.6 -27.3 71.4 -12.55 68.25 4.0 64.7 21.35 63.05 29.95 61.9 38.55 60.8 82.3 53.0 103.3 23.5 103.3 23.0 103.45 22.55 106.2 12.5 101.3 5.5 101.3 5.0 101.55 4.8 113.75 -5.0 106.3 -20.5 106.3 -21.0 106.55 -21.3 115.95 -31.95 110.3 -48.5 110.45 -48.95 110.55 -49.35 117.75 -60.55 112.3 -75.5 107.95 -80.15 100.35 -81.75 79.55 -86.25 54.3 -86.5 L54.1 -87.4 Q46.65 -101.35 25.3 -101.5 12.7 -97.7 0.15 -93.95 -1.2 -93.5 -1.8 -92.75 -26.05 -62.85 -46.7 -29.5 -50.75 -23.05 -55.8 -17.5 -80.0 8.7 -114.7 24.5;M-109.7 37.25 Q-109.25 42.2 -108.25 47.1 L-107.75 47.1 -107.85 46.1 -107.95 45.1 Q-69.15 21.15 -47.5 -16.8 -42.05 -26.35 -36.3 -35.35 -22.2 -57.45 -11.0 -82.15 -9.05 -86.4 -5.0 -88.95 18.9 -101.15 40.35 -91.75 L40.6 -91.15 Q41.65 -87.4 30.0 -86.75 12.45 -85.85 -0.6 -80.4 -6.6 -77.9 -7.85 -76.65 7.2 -78.75 23.7 -83.1 29.25 -84.55 35.2 -84.15 51.7 -83.15 70.1 -83.85 L70.1 -84.4 Q88.95 -87.95 99.25 -80.55 L99.9 -80.4 Q105.5 -71.6 102.0 -61.7 97.5 -56.75 87.65 -57.4 77.25 -58.05 85.95 -52.2 L86.95 -52.3 Q107.15 -54.9 102.25 -37.65 98.4 -31.25 92.0 -27.1 L90.7 -26.2 Q98.35 -27.0 102.7 -21.65 L102.8 -20.65 Q103.4 -6.4 93.15 3.35 92.65 3.4 92.55 3.6 88.2 13.3 97.45 7.0 100.6 6.95 100.5 9.6 100.15 17.05 95.95 22.25 78.6 44.0 43.75 50.75 L31.05 52.8 Q11.85 55.1 -2.3 60.6 -27.85 70.45 -46.1 85.7 -58.55 96.15 -77.95 100.55 L-77.6 101.35 Q-72.0 106.6 -65.1 110.4 -46.55 97.9 -29.35 84.1 -19.15 75.9 -4.9 71.45 11.15 66.4 28.05 63.15 37.5 61.35 44.8 59.3 87.25 47.55 105.25 16.3 105.3 15.8 105.35 15.35 107.1 5.1 101.6 -1.45 101.55 -1.9 101.8 -2.15 112.95 -13.05 104.15 -27.8 104.1 -28.3 104.35 -28.6 112.6 -40.05 105.5 -56.05 105.45 -56.55 105.7 -56.85 111.75 -68.7 105.0 -83.1 100.25 -87.35 92.65 -88.25 71.7 -90.8 46.75 -88.7 L46.5 -89.6 Q37.85 -102.8 16.8 -101.0 4.45 -96.2 -7.35 -91.15 -8.65 -90.6 -9.15 -89.85 -30.3 -57.8 -47.55 -22.75 -51.0 -15.95 -55.45 -9.95 -76.9 18.3 -109.7 37.25"/>
    </path>
    <path d="M-113.7 32.5 L-113.7 33.5 -113.7 34.5 Q-110.3 59.6 -98.95 76.65 -98.7 77.0 -98.7 77.5 -50.45 67.95 -19.4 32.75 -19.05 32.6 -18.7 32.5 -5.4 37.75 9.05 46.85 L9.3 47.5 Q24.2 49.65 46.4 43.85 L74.25 36.3 Q79.2 34.9 83.3 32.5 83.8 16.7 88.9 2.0 89.75 -0.45 88.3 -2.5 76.9 -7.65 87.35 -15.7 88.35 -16.45 89.0 -17.65 92.85 -24.25 90.3 -35.5 81.25 -41.45 78.8 -48.05 78.5 -48.8 78.3 -51.5 91.45 -63.3 80.3 -77.3 79.35 -78.45 77.3 -79.5 58.75 -80.45 42.25 -83.05 36.3 -84.0 30.55 -83.05 13.6 -80.2 -1.7 -79.5 -0.35 -80.65 5.95 -82.6 19.5 -86.8 37.25 -86.1 49.0 -85.65 48.1 -90.1 27.45 -101.45 2.3 -91.5 -2.05 -89.35 -4.35 -85.3 -17.95 -61.75 -34.15 -41.05 -40.8 -32.6 -47.15 -23.55 -72.5 12.2 -113.7 32.5" fill="#ffffff" fill-rule="evenodd" stroke="none">
      <animate attributeName="fill" dur="2s" repeatCount="indefinite" values="#ffffff;#ffffff"/>
      <animate attributeName="fill-opacity" dur="2s" repeatCount="indefinite" values="1.0;1.0"/>
      <animate attributeName="d" dur="2s" repeatCount="indefinite" values="M-113.7 32.5 L-113.7 33.5 -113.7 34.5 Q-110.3 59.6 -98.95 76.65 -98.7 77.0 -98.7 77.5 -50.45 67.95 -19.4 32.75 -19.05 32.6 -18.7 32.5 -5.4 37.75 9.05 46.85 L9.3 47.5 Q24.2 49.65 46.4 43.85 L74.25 36.3 Q79.2 34.9 83.3 32.5 83.8 16.7 88.9 2.0 89.75 -0.45 88.3 -2.5 76.9 -7.65 87.35 -15.7 88.35 -16.45 89.0 -17.65 92.85 -24.25 90.3 -35.5 81.25 -41.45 78.8 -48.05 78.5 -48.8 78.3 -51.5 91.45 -63.3 80.3 -77.3 79.35 -78.45 77.3 -79.5 58.75 -80.45 42.25 -83.05 36.3 -84.0 30.55 -83.05 13.6 -80.2 -1.7 -79.5 -0.35 -80.65 5.95 -82.6 19.5 -86.8 37.25 -86.1 49.0 -85.65 48.1 -90.1 27.45 -101.45 2.3 -91.5 -2.05 -89.35 -4.35 -85.3 -17.95 -61.75 -34.15 -41.05 -40.8 -32.6 -47.15 -23.55 -72.5 12.2 -113.7 32.5;M-107.95 45.1 L-107.85 46.1 -107.75 47.1 Q-102.1 71.8 -89.3 87.7 -89.15 88.15 -89.0 88.55 -42.25 74.6 -14.95 36.75 -14.75 36.45 -14.25 36.4 -0.65 40.45 14.5 48.15 L14.75 48.8 Q29.65 49.55 51.0 41.75 L77.8 31.7 Q82.5 29.85 86.35 27.1 85.4 11.3 89.1 -3.8 89.65 -6.3 88.05 -8.25 76.35 -12.3 85.9 -21.3 86.85 -22.1 87.35 -23.35 90.55 -30.3 86.95 -41.25 77.5 -46.35 74.45 -52.7 74.15 -53.45 73.7 -56.05 85.55 -69.0 73.25 -81.95 72.2 -83.0 70.1 -83.85 51.7 -83.15 35.2 -84.15 29.25 -84.55 23.7 -83.1 7.2 -78.75 -7.85 -76.65 -6.6 -77.9 -0.6 -80.4 12.45 -85.85 30.0 -86.75 41.65 -87.4 40.35 -91.75 18.9 -101.15 -5.0 -88.95 -9.05 -86.4 -11.0 -82.15 -22.2 -57.45 -36.3 -35.35 -42.05 -26.35 -47.5 -16.8 -69.15 21.15 -107.95 45.1"/>
    </path>
    <path d="M-98.7 77.5 Q-94.25 84.05 -89.4 90.25 L-88.7 90.5 Q-68.8 87.9 -55.3 78.65 -35.55 65.15 -8.95 57.7 5.8 53.55 25.3 53.0 L38.25 52.15 Q73.9 48.6 93.4 28.6 98.1 23.8 99.15 16.35 99.5 13.75 96.3 13.5 86.45 18.95 91.7 9.7 92.0 9.6 92.3 9.5 103.55 0.75 104.3 -13.5 L104.3 -14.5 Q100.35 -20.25 92.6 -20.2 L94.05 -20.95 Q100.85 -24.45 105.3 -30.5 111.85 -47.2 91.3 -46.5 L90.3 -46.5 Q82.05 -53.15 92.45 -51.55 102.3 -50.0 107.3 -54.5 111.75 -64.0 106.3 -73.5 96.6 -81.8 77.3 -79.5 78.8 -79.5 79.1 -78.9 L80.3 -77.3 Q91.45 -63.3 78.3 -51.5 78.5 -48.8 78.8 -48.05 81.25 -41.45 90.3 -35.5 92.85 -24.25 89.0 -17.65 88.35 -16.45 87.35 -15.7 76.9 -7.65 88.3 -2.5 89.75 -0.45 88.9 2.0 83.8 16.7 83.3 32.5 79.2 34.9 74.25 36.3 L46.4 43.85 Q24.2 49.65 9.05 46.85 -5.4 37.75 -19.4 32.75 -50.45 67.95 -98.7 77.5" fill="#d0d0d0" fill-rule="evenodd" stroke="none">
      <animate attributeName="fill" dur="2s" repeatCount="indefinite" values="#d0d0d0;#d0d0d1"/>
      <animate attributeName="fill-opacity" dur="2s" repeatCount="indefinite" values="1.0;1.0"/>
      <animate attributeName="d" dur="2s" repeatCount="indefinite" values="M-98.7 77.5 Q-94.25 84.05 -89.4 90.25 L-88.7 90.5 Q-68.8 87.9 -55.3 78.65 -35.55 65.15 -8.95 57.7 5.8 53.55 25.3 53.0 L38.25 52.15 Q73.9 48.6 93.4 28.6 98.1 23.8 99.15 16.35 99.5 13.75 96.3 13.5 86.45 18.95 91.7 9.7 92.0 9.6 92.3 9.5 103.55 0.75 104.3 -13.5 L104.3 -14.5 Q100.35 -20.25 92.6 -20.2 L94.05 -20.95 Q100.85 -24.45 105.3 -30.5 111.85 -47.2 91.3 -46.5 L90.3 -46.5 Q82.05 -53.15 92.45 -51.55 102.3 -50.0 107.3 -54.5 111.75 -64.0 106.3 -73.5 96.6 -81.8 77.3 -79.5 78.8 -79.5 79.1 -78.9 L80.3 -77.3 Q91.45 -63.3 78.3 -51.5 78.5 -48.8 78.8 -48.05 81.25 -41.45 90.3 -35.5 92.85 -24.25 89.0 -17.65 88.35 -16.45 87.35 -15.7 76.9 -7.65 88.3 -2.5 89.75 -0.45 88.9 2.0 83.8 16.7 83.3 32.5 79.2 34.9 74.25 36.3 L46.4 43.85 Q24.2 49.65 9.05 46.85 -5.4 37.75 -19.4 32.75 -50.45 67.95 -98.7 77.5;M-89.0 88.55 Q-83.8 94.5 -78.65 100.4 L-77.95 100.55 Q-58.55 96.15 -46.1 85.7 -27.85 70.45 -2.3 60.6 11.85 55.1 31.05 52.8 L43.75 50.75 Q78.6 44.0 95.95 22.25 100.15 17.05 100.5 9.6 100.6 6.95 97.45 7.0 88.2 13.3 92.55 3.6 92.65 3.4 93.15 3.35 103.4 -6.4 102.8 -20.65 L102.7 -21.65 Q98.35 -27.0 90.7 -26.2 L92.0 -27.1 Q98.4 -31.25 102.25 -37.65 107.15 -54.9 86.95 -52.3 L85.95 -52.2 Q77.25 -58.05 87.65 -57.4 97.5 -56.75 102.0 -61.7 105.5 -71.6 99.25 -80.55 88.95 -87.95 70.1 -83.85 71.55 -84.0 71.9 -83.45 L73.25 -81.95 Q85.55 -69.0 73.7 -56.05 74.15 -53.45 74.45 -52.7 77.5 -46.35 86.95 -41.25 90.55 -30.3 87.35 -23.35 86.85 -22.1 85.9 -21.3 76.35 -12.3 88.05 -8.25 89.65 -6.3 89.1 -3.8 85.4 11.3 86.35 27.1 82.5 29.85 77.8 31.7 L51.0 41.75 Q29.65 49.55 14.5 48.15 -0.65 40.45 -14.95 36.75 -42.25 74.6 -89.0 88.55"/>
    </path>
    <path d="M-114.7 24.5 Q-80.0 8.7 -55.8 -17.5 -50.75 -23.05 -46.7 -29.5 -26.05 -62.85 -1.8 -92.75 -1.2 -93.5 0.15 -93.95 12.7 -97.7 25.3 -101.5 46.65 -101.35 54.1 -87.4 L54.3 -86.5 Q79.55 -86.25 100.35 -81.75 107.95 -80.15 112.3 -75.5 117.75 -60.55 110.55 -49.35 110.45 -48.95 110.3 -48.5 115.95 -31.95 106.55 -21.3 106.3 -21.0 106.3 -20.5 113.75 -5.0 101.55 4.8 101.3 5.0 101.3 5.5 106.2 12.5 103.45 22.55 103.3 23.0 103.3 23.5 82.3 53.0 38.55 60.8 29.95 61.9 21.35 63.05 4.0 64.7 -12.55 68.25 -27.3 71.4 -38.3 78.6 -56.95 90.75 -76.7 101.5 -83.3 97.1 -88.45 91.3 L-88.7 90.5 Q-68.8 87.9 -55.3 78.65 -35.55 65.15 -8.95 57.7 5.8 53.55 25.3 53.0 L38.25 52.15 Q73.9 48.6 93.4 28.6 98.1 23.8 99.15 16.35 99.5 13.75 96.3 13.5 86.45 18.95 91.7 9.7 92.0 9.6 92.3 9.5 103.55 0.75 104.3 -13.5 L104.3 -14.5 Q100.35 -20.25 92.6 -20.2 L94.05 -20.95 Q100.85 -24.45 105.3 -30.5 111.85 -47.2 91.3 -46.5 L90.3 -46.5 Q82.05 -53.15 92.45 -51.55 102.3 -50.0 107.3 -54.5 111.75 -64.0 106.9 -73.3 L106.3 -73.5 Q96.6 -81.8 77.35 -80.0 L77.3 -79.5 Q58.75 -80.45 42.25 -83.05 36.3 -84.0 30.55 -83.05 13.6 -80.2 -1.7 -79.5 -0.35 -80.65 5.95 -82.6 19.5 -86.8 37.25 -86.1 49.0 -85.65 48.3 -89.5 L48.1 -90.1 Q27.45 -101.45 2.3 -91.5 -2.05 -89.35 -4.35 -85.3 -17.95 -61.75 -34.15 -41.05 -40.8 -32.6 -47.15 -23.55 -72.5 12.2 -113.7 32.5 L-113.7 33.5 -113.7 34.5 -114.2 34.45 Q-114.7 29.5 -114.7 24.5 M-113.7 32.5 Q-72.5 12.2 -47.15 -23.55 -40.8 -32.6 -34.15 -41.05 -17.95 -61.75 -4.35 -85.3 -2.05 -89.35 2.3 -91.5 27.45 -101.45 48.1 -90.1 49.0 -85.65 37.25 -86.1 19.5 -86.8 5.95 -82.6 -0.35 -80.65 -1.7 -79.5 13.6 -80.2 30.55 -83.05 36.3 -84.0 42.25 -83.05 58.75 -80.45 77.3 -79.5 79.35 -78.45 80.3 -77.3 91.45 -63.3 78.3 -51.5 78.5 -48.8 78.8 -48.05 81.25 -41.45 90.3 -35.5 92.85 -24.25 89.0 -17.65 88.35 -16.45 87.35 -15.7 76.9 -7.65 88.3 -2.5 89.75 -0.45 88.9 2.0 83.8 16.7 83.3 32.5 79.2 34.9 74.25 36.3 L46.4 43.85 Q24.2 49.65 9.3 47.5 L9.05 46.85 Q-5.4 37.75 -18.7 32.5 -19.05 32.6 -19.4 32.75 -50.45 67.95 -98.7 77.5 -98.7 77.0 -98.95 76.65 -110.3 59.6 -113.7 34.5 L-113.7 33.5 -113.7 32.5 M-98.7 77.5 Q-50.45 67.95 -19.4 32.75 -5.4 37.75 9.05 46.85 24.2 49.65 46.4 43.85 L74.25 36.3 Q79.2 34.9 83.3 32.5 83.8 16.7 88.9 2.0 89.75 -0.45 88.3 -2.5 76.9 -7.65 87.35 -15.7 88.35 -16.45 89.0 -17.65 92.85 -24.25 90.3 -35.5 81.25 -41.45 78.8 -48.05 78.5 -48.8 78.3 -51.5 91.45 -63.3 80.3 -77.3 L79.1 -78.9 Q78.8 -79.5 77.3 -79.5 96.6 -81.8 106.3 -73.5 111.75 -64.0 107.3 -54.5 102.3 -50.0 92.45 -51.55 82.05 -53.15 90.3 -46.5 L91.3 -46.5 Q111.85 -47.2 105.3 -30.5 100.85 -24.45 94.05 -20.95 L92.6 -20.2 Q100.35 -20.25 104.3 -14.5 L104.3 -13.5 Q103.55 0.75 92.3 9.5 92.0 9.6 91.7 9.7 86.45 18.95 96.3 13.5 99.5 13.75 99.15 16.35 98.1 23.8 93.4 28.6 73.9 48.6 38.25 52.15 L25.3 53.0 Q5.8 53.55 -8.95 57.7 -35.55 65.15 -55.3 78.65 -68.8 87.9 -88.7 90.5 L-89.4 90.25 Q-94.25 84.05 -98.7 77.5 Z" fill="none" stroke="#000000" stroke-linecap="round" stroke-linejoin="round" stroke-opacity="0.0" stroke-width="0.0">
      <animate attributeName="stroke" dur="2s" repeatCount="indefinite" values="#000000;#000001"/>
      <animate attributeName="stroke-width" dur="2s" repeatCount="indefinite" values="0.0;0.0"/>
      <animate attributeName="fill-opacity" dur="2s" repeatCount="indefinite" values="0.0;0.0"/>
      <animate attributeName="d" dur="2s" repeatCount="indefinite" values="M-114.7 24.5 Q-80.0 8.7 -55.8 -17.5 -50.75 -23.05 -46.7 -29.5 -26.05 -62.85 -1.8 -92.75 -1.2 -93.5 0.15 -93.95 12.7 -97.7 25.3 -101.5 46.65 -101.35 54.1 -87.4 L54.3 -86.5 Q79.55 -86.25 100.35 -81.75 107.95 -80.15 112.3 -75.5 117.75 -60.55 110.55 -49.35 110.45 -48.95 110.3 -48.5 115.95 -31.95 106.55 -21.3 106.3 -21.0 106.3 -20.5 113.75 -5.0 101.55 4.8 101.3 5.0 101.3 5.5 106.2 12.5 103.45 22.55 103.3 23.0 103.3 23.5 82.3 53.0 38.55 60.8 29.95 61.9 21.35 63.05 4.0 64.7 -12.55 68.25 -27.3 71.4 -38.3 78.6 -56.95 90.75 -76.7 101.5 -83.3 97.1 -88.45 91.3 L-88.7 90.5 Q-68.8 87.9 -55.3 78.65 -35.55 65.15 -8.95 57.7 5.8 53.55 25.3 53.0 L38.25 52.15 Q73.9 48.6 93.4 28.6 98.1 23.8 99.15 16.35 99.5 13.75 96.3 13.5 86.45 18.95 91.7 9.7 92.0 9.6 92.3 9.5 103.55 0.75 104.3 -13.5 L104.3 -14.5 Q100.35 -20.25 92.6 -20.2 L94.05 -20.95 Q100.85 -24.45 105.3 -30.5 111.85 -47.2 91.3 -46.5 L90.3 -46.5 Q82.05 -53.15 92.45 -51.55 102.3 -50.0 107.3 -54.5 111.75 -64.0 106.9 -73.3 L106.3 -73.5 Q96.6 -81.8 77.35 -80.0 L77.3 -79.5 Q58.75 -80.45 42.25 -83.05 36.3 -84.0 30.55 -83.05 13.6 -80.2 -1.7 -79.5 -0.35 -80.65 5.95 -82.6 19.5 -86.8 37.25 -86.1 49.0 -85.65 48.3 -89.5 L48.1 -90.1 Q27.45 -101.45 2.3 -91.5 -2.05 -89.35 -4.35 -85.3 -17.95 -61.75 -34.15 -41.05 -40.8 -32.6 -47.15 -23.55 -72.5 12.2 -113.7 32.5 L-113.7 33.5 -113.7 34.5 -114.2 34.45 Q-114.7 29.5 -114.7 24.5 M-113.7 32.5 Q-72.5 12.2 -47.15 -23.55 -40.8 -32.6 -34.15 -41.05 -17.95 -61.75 -4.35 -85.3 -2.05 -89.35 2.3 -91.5 27.45 -101.45 48.1 -90.1 49.0 -85.65 37.25 -86.1 19.5 -86.8 5.95 -82.6 -0.35 -80.65 -1.7 -79.5 13.6 -80.2 30.55 -83.05 36.3 -84.0 42.25 -83.05 58.75 -80.45 77.3 -79.5 79.35 -78.45 80.3 -77.3 91.45 -63.3 78.3 -51.5 78.5 -48.8 78.8 -48.05 81.25 -41.45 90.3 -35.5 92.85 -24.25 89.0 -17.65 88.35 -16.45 87.35 -15.7 76.9 -7.65 88.3 -2.5 89.75 -0.45 88.9 2.0 83.8 16.7 83.3 32.5 79.2 34.9 74.25 36.3 L46.4 43.85 Q24.2 49.65 9.3 47.5 L9.05 46.85 Q-5.4 37.75 -18.7 32.5 -19.05 32.6 -19.4 32.75 -50.45 67.95 -98.7 77.5 -98.7 77.0 -98.95 76.65 -110.3 59.6 -113.7 34.5 L-113.7 33.5 -113.7 32.5 M-98.7 77.5 Q-50.45 67.95 -19.4 32.75 -5.4 37.75 9.05 46.85 24.2 49.65 46.4 43.85 L74.25 36.3 Q79.2 34.9 83.3 32.5 83.8 16.7 88.9 2.0 89.75 -0.45 88.3 -2.5 76.9 -7.65 87.35 -15.7 88.35 -16.45 89.0 -17.65 92.85 -24.25 90.3 -35.5 81.25 -41.45 78.8 -48.05 78.5 -48.8 78.3 -51.5 91.45 -63.3 80.3 -77.3 L79.1 -78.9 Q78.8 -79.5 77.3 -79.5 96.6 -81.8 106.3 -73.5 111.75 -64.0 107.3 -54.5 102.3 -50.0 92.45 -51.55 82.05 -53.15 90.3 -46.5 L91.3 -46.5 Q111.85 -47.2 105.3 -30.5 100.85 -24.45 94.05 -20.95 L92.6 -20.2 Q100.35 -20.25 104.3 -14.5 L104.3 -13.5 Q103.55 0.75 92.3 9.5 92.0 9.6 91.7 9.7 86.45 18.95 96.3 13.5 99.5 13.75 99.15 16.35 98.1 23.8 93.4 28.6 73.9 48.6 38.25 52.15 L25.3 53.0 Q5.8 53.55 -8.95 57.7 -35.55 65.15 -55.3 78.65 -68.8 87.9 -88.7 90.5 L-89.4 90.25 Q-94.25 84.05 -98.7 77.5 Z;M-109.7 37.25 Q-76.9 18.3 -55.45 -9.95 -51.0 -15.95 -47.55 -22.75 -30.3 -57.8 -9.15 -89.85 -8.65 -90.6 -7.35 -91.15 4.45 -96.2 16.8 -101.0 37.85 -102.8 46.5 -89.6 L46.75 -88.7 Q71.7 -90.8 92.65 -88.25 100.25 -87.35 105.0 -83.1 111.75 -68.7 105.7 -56.85 105.45 -56.55 105.5 -56.05 112.6 -40.05 104.35 -28.6 104.1 -28.3 104.15 -27.8 112.95 -13.05 101.8 -2.15 101.55 -1.9 101.6 -1.45 107.1 5.1 105.35 15.35 105.3 15.8 105.25 16.3 87.25 47.55 44.8 59.3 37.5 61.35 28.05 63.15 11.15 66.4 -4.9 71.45 -19.15 75.9 -29.35 84.1 -46.55 97.9 -65.1 110.4 -72.0 106.6 -77.6 101.35 L-77.95 100.55 Q-58.55 96.15 -46.1 85.7 -27.85 70.45 -2.3 60.6 11.85 55.1 31.05 52.8 L43.75 50.75 Q78.6 44.0 95.95 22.25 100.15 17.05 100.5 9.6 100.6 6.95 97.45 7.0 88.2 13.3 92.55 3.6 92.65 3.4 93.15 3.35 103.4 -6.4 102.8 -20.65 L102.7 -21.65 Q98.35 -27.0 90.7 -26.2 L92.0 -27.1 Q98.4 -31.25 102.25 -37.65 107.15 -54.9 86.95 -52.3 L85.95 -52.2 Q77.25 -58.05 87.65 -57.4 97.5 -56.75 102.0 -61.7 105.5 -71.6 99.9 -80.4 L99.25 -80.55 Q88.95 -87.95 70.1 -84.4 L70.1 -83.85 Q51.7 -83.15 35.2 -84.15 29.25 -84.55 23.7 -83.1 7.2 -78.75 -7.85 -76.65 -6.6 -77.9 -0.6 -80.4 12.45 -85.85 30.0 -86.75 41.65 -87.4 40.6 -91.15 L40.35 -91.75 Q18.9 -101.15 -5.0 -88.95 -9.05 -86.4 -11.0 -82.15 -22.2 -57.45 -36.3 -35.35 -42.05 -26.35 -47.5 -16.8 -69.15 21.15 -107.95 45.1 L-107.85 46.1 -107.75 47.1 -108.25 47.1 Q-109.25 42.2 -109.7 37.25 M-107.95 45.1 Q-69.15 21.15 -47.5 -16.8 -42.05 -26.35 -36.3 -35.35 -22.2 -57.45 -11.0 -82.15 -9.05 -86.4 -5.0 -88.95 18.9 -101.15 40.35 -91.75 41.65 -87.4 30.0 -86.75 12.45 -85.85 -0.6 -80.4 -6.6 -77.9 -7.85 -76.65 7.2 -78.75 23.7 -83.1 29.25 -84.55 35.2 -84.15 51.7 -83.15 70.1 -83.85 72.2 -83.0 73.25 -81.95 85.55 -69.0 73.7 -56.05 74.15 -53.45 74.45 -52.7 77.5 -46.35 86.95 -41.25 90.55 -30.3 87.35 -23.35 86.85 -22.1 85.9 -21.3 76.35 -12.3 88.05 -8.25 89.65 -6.3 89.1 -3.8 85.4 11.3 86.35 27.1 82.5 29.85 77.8 31.7 L51.0 41.75 Q29.65 49.55 14.75 48.8 L14.5 48.15 Q-0.65 40.45 -14.25 36.4 -14.75 36.45 -14.95 36.75 -42.25 74.6 -89.0 88.55 -89.15 88.15 -89.3 87.7 -102.1 71.8 -107.75 47.1 L-107.85 46.1 -107.95 45.1 M-89.0 88.55 Q-42.25 74.6 -14.95 36.75 -0.65 40.45 14.5 48.15 29.65 49.55 51.0 41.75 L77.8 31.7 Q82.5 29.85 86.35 27.1 85.4 11.3 89.1 -3.8 89.65 -6.3 88.05 -8.25 76.35 -12.3 85.9 -21.3 86.85 -22.1 87.35 -23.35 90.55 -30.3 86.95 -41.25 77.5 -46.35 74.45 -52.7 74.15 -53.45 73.7 -56.05 85.55 -69.0 73.25 -81.95 L71.9 -83.45 Q71.55 -84.0 70.1 -83.85 88.95 -87.95 99.25 -80.55 105.5 -71.6 102.0 -61.7 97.5 -56.75 87.65 -57.4 77.25 -58.05 85.95 -52.2 L86.95 -52.3 Q107.15 -54.9 102.25 -37.65 98.4 -31.25 92.0 -27.1 L90.7 -26.2 Q98.35 -27.0 102.7 -21.65 L102.8 -20.65 Q103.4 -6.4 93.15 3.35 92.65 3.4 92.55 3.6 88.2 13.3 97.45 7.0 100.6 6.95 100.5 9.6 100.15 17.05 95.95 22.25 78.6 44.0 43.75 50.75 L31.05 52.8 Q11.85 55.1 -2.3 60.6 -27.85 70.45 -46.1 85.7 -58.55 96.15 -77.95 100.55 L-78.65 100.4 Q-83.8 94.5 -89.0 88.55 Z"/>
    </path>
  </g>
</svg>
