<?xml version="1.0" encoding="UTF-8" standalone="no"?>
<svg xmlns:ffdec="https://www.free-decompiler.com/flash" xmlns:xlink="http://www.w3.org/1999/xlink" ffdec:objectType="morphshape" height="211.9px" width="225.75px" xmlns="http://www.w3.org/2000/svg">
  <g transform="matrix(1.0, 0.0, 0.0, 1.0, 116.95, 101.5)">
    <path d="M-109.7 37.25 Q-109.25 42.2 -108.25 47.1 L-107.75 47.1 -107.85 46.1 -107.95 45.1 Q-69.15 21.15 -47.5 -16.8 -42.05 -26.35 -36.3 -35.35 -22.2 -57.45 -11.0 -82.15 -9.05 -86.4 -5.0 -88.95 18.9 -101.15 40.35 -91.75 L40.6 -91.15 Q41.65 -87.4 30.0 -86.75 12.45 -85.85 -0.6 -80.4 -6.6 -77.9 -7.85 -76.65 7.2 -78.75 23.7 -83.1 29.25 -84.55 35.2 -84.15 51.7 -83.15 70.1 -83.85 L70.1 -84.4 Q88.95 -87.95 99.25 -80.55 L99.9 -80.4 Q105.5 -71.6 102.0 -61.7 97.5 -56.75 87.65 -57.4 77.25 -58.05 85.95 -52.2 L86.95 -52.3 Q107.15 -54.9 102.25 -37.65 98.4 -31.25 92.0 -27.1 L90.7 -26.2 Q98.35 -27.0 102.7 -21.65 L102.8 -20.65 Q103.4 -6.4 93.15 3.35 92.65 3.4 92.55 3.6 88.2 13.3 97.45 7.0 100.6 6.95 100.5 9.6 100.15 17.05 95.95 22.25 78.6 44.0 43.75 50.75 L31.05 52.8 Q11.85 55.1 -2.3 60.6 -27.85 70.45 -46.1 85.7 -58.55 96.15 -77.95 100.55 L-77.6 101.35 Q-72.0 106.6 -65.1 110.4 -46.55 97.9 -29.35 84.1 -19.15 75.9 -4.9 71.45 11.15 66.4 28.05 63.15 37.5 61.35 44.8 59.3 87.25 47.55 105.25 16.3 105.3 15.8 105.35 15.35 107.1 5.1 101.6 -1.45 101.55 -1.9 101.8 -2.15 112.95 -13.05 104.15 -27.8 104.1 -28.3 104.35 -28.6 112.6 -40.05 105.5 -56.05 105.45 -56.55 105.7 -56.85 111.75 -68.7 105.0 -83.1 100.25 -87.35 92.65 -88.25 71.7 -90.8 46.75 -88.7 L46.5 -89.6 Q37.85 -102.8 16.8 -101.0 4.45 -96.2 -7.35 -91.15 -8.65 -90.6 -9.15 -89.85 -30.3 -57.8 -47.55 -22.75 -51.0 -15.95 -55.45 -9.95 -76.9 18.3 -109.7 37.25" fill="#241f1f" fill-opacity="0.9647059" fill-rule="evenodd" stroke="none">
      <animate attributeName="fill" dur="2s" repeatCount="indefinite" values="#241f1f;#241f20"/>
      <animate attributeName="fill-opacity" dur="2s" repeatCount="indefinite" values="0.9647059;0.9647059"/>
      <animate attributeName="d" dur="2s" repeatCount="indefinite" values="M-109.7 37.25 Q-109.25 42.2 -108.25 47.1 L-107.75 47.1 -107.85 46.1 -107.95 45.1 Q-69.15 21.15 -47.5 -16.8 -42.05 -26.35 -36.3 -35.35 -22.2 -57.45 -11.0 -82.15 -9.05 -86.4 -5.0 -88.95 18.9 -101.15 40.35 -91.75 L40.6 -91.15 Q41.65 -87.4 30.0 -86.75 12.45 -85.85 -0.6 -80.4 -6.6 -77.9 -7.85 -76.65 7.2 -78.75 23.7 -83.1 29.25 -84.55 35.2 -84.15 51.7 -83.15 70.1 -83.85 L70.1 -84.4 Q88.95 -87.95 99.25 -80.55 L99.9 -80.4 Q105.5 -71.6 102.0 -61.7 97.5 -56.75 87.65 -57.4 77.25 -58.05 85.95 -52.2 L86.95 -52.3 Q107.15 -54.9 102.25 -37.65 98.4 -31.25 92.0 -27.1 L90.7 -26.2 Q98.35 -27.0 102.7 -21.65 L102.8 -20.65 Q103.4 -6.4 93.15 3.35 92.65 3.4 92.55 3.6 88.2 13.3 97.45 7.0 100.6 6.95 100.5 9.6 100.15 17.05 95.95 22.25 78.6 44.0 43.75 50.75 L31.05 52.8 Q11.85 55.1 -2.3 60.6 -27.85 70.45 -46.1 85.7 -58.55 96.15 -77.95 100.55 L-77.6 101.35 Q-72.0 106.6 -65.1 110.4 -46.55 97.9 -29.35 84.1 -19.15 75.9 -4.9 71.45 11.15 66.4 28.05 63.15 37.5 61.35 44.8 59.3 87.25 47.55 105.25 16.3 105.3 15.8 105.35 15.35 107.1 5.1 101.6 -1.45 101.55 -1.9 101.8 -2.15 112.95 -13.05 104.15 -27.8 104.1 -28.3 104.35 -28.6 112.6 -40.05 105.5 -56.05 105.45 -56.55 105.7 -56.85 111.75 -68.7 105.0 -83.1 100.25 -87.35 92.65 -88.25 71.7 -90.8 46.75 -88.7 L46.5 -89.6 Q37.85 -102.8 16.8 -101.0 4.45 -96.2 -7.35 -91.15 -8.65 -90.6 -9.15 -89.85 -30.3 -57.8 -47.55 -22.75 -51.0 -15.95 -55.45 -9.95 -76.9 18.3 -109.7 37.25;M-116.95 19.9 Q-116.95 24.7 -116.45 29.5 L-115.95 29.55 -115.95 28.55 -115.95 27.6 Q-75.75 8.05 -50.95 -26.4 -44.75 -35.1 -38.25 -43.25 -22.45 -63.2 -9.15 -85.85 -6.9 -89.75 -2.65 -91.85 21.9 -101.45 42.1 -90.5 L42.3 -89.9 Q42.95 -86.2 31.5 -86.65 14.15 -87.3 0.9 -83.25 -5.25 -81.4 -6.55 -80.3 8.4 -80.95 24.95 -83.7 30.55 -84.6 36.35 -83.7 52.5 -81.2 70.6 -80.3 L70.65 -80.75 Q89.45 -82.5 98.95 -74.5 L99.55 -74.3 Q104.25 -65.35 99.9 -56.2 95.05 -51.85 85.4 -53.35 75.25 -54.9 83.3 -48.5 L84.3 -48.5 Q104.35 -49.15 97.95 -33.1 93.6 -27.25 87.0 -23.9 L85.55 -23.15 Q93.15 -23.2 97.0 -17.65 L97.0 -16.7 Q96.25 -3.0 85.25 5.45 84.8 5.45 84.7 5.65 79.55 14.55 89.2 9.3 92.3 9.55 91.95 12.05 90.95 19.25 86.35 23.85 67.3 43.1 32.45 46.55 L19.8 47.35 Q0.75 47.9 -13.65 51.9 -39.65 59.05 -58.9 72.05 -72.1 80.95 -91.55 83.5 L-91.3 84.25 Q-86.3 89.85 -79.85 94.1 -60.55 83.7 -42.3 72.0 -31.55 65.1 -17.15 62.05 -1.0 58.65 15.95 57.05 24.35 55.95 32.75 54.85 75.5 47.35 96.0 18.95 96.0 18.45 96.15 18.0 98.85 8.35 94.05 1.6 94.05 1.1 94.3 0.9 106.2 -8.5 98.95 -23.45 98.95 -23.95 99.2 -24.2 108.35 -34.5 102.85 -50.4 103.0 -50.85 103.1 -51.25 110.15 -62.05 104.8 -76.45 100.55 -80.9 93.15 -82.45 72.8 -86.8 48.15 -87.05 L47.95 -87.9 Q40.65 -101.35 19.8 -101.5 7.25 -97.95 -4.75 -94.2 -5.7 -93.6 -6.65 -93.05 -30.35 -64.25 -50.5 -32.1 -54.5 -25.9 -59.4 -20.55 -83.05 4.7 -116.95 19.9"/>
    </path>
    <path d="M-107.95 45.1 L-107.85 46.1 -107.75 47.1 Q-102.1 71.8 -89.3 87.7 L-89.0 88.55 Q-42.25 74.6 -14.95 36.75 -14.75 36.45 -14.25 36.4 -0.65 40.45 14.5 48.15 L14.75 48.8 Q29.65 49.55 51.0 41.75 L77.8 31.7 Q82.5 29.85 86.35 27.1 85.4 11.3 89.1 -3.8 89.65 -6.3 88.05 -8.25 76.35 -12.3 85.9 -21.3 86.85 -22.1 87.35 -23.35 90.55 -30.3 86.95 -41.25 77.5 -46.35 74.45 -52.7 74.15 -53.45 73.7 -56.05 85.55 -69.0 73.25 -81.95 72.2 -83.0 70.1 -83.85 51.7 -83.15 35.2 -84.15 29.25 -84.55 23.7 -83.1 7.2 -78.75 -7.85 -76.65 -6.6 -77.9 -0.6 -80.4 12.45 -85.85 30.0 -86.75 41.65 -87.4 40.35 -91.75 18.9 -101.15 -5.0 -88.95 -9.05 -86.4 -11.0 -82.15 -22.2 -57.45 -36.3 -35.35 -42.05 -26.35 -47.5 -16.8 -69.15 21.15 -107.95 45.1" fill="#ffffff" fill-rule="evenodd" stroke="none">
      <animate attributeName="fill" dur="2s" repeatCount="indefinite" values="#ffffff;#ffffff"/>
      <animate attributeName="fill-opacity" dur="2s" repeatCount="indefinite" values="1.0;1.0"/>
      <animate attributeName="d" dur="2s" repeatCount="indefinite" values="M-107.95 45.1 L-107.85 46.1 -107.75 47.1 Q-102.1 71.8 -89.3 87.7 L-89.0 88.55 Q-42.25 74.6 -14.95 36.75 -14.75 36.45 -14.25 36.4 -0.65 40.45 14.5 48.15 L14.75 48.8 Q29.65 49.55 51.0 41.75 L77.8 31.7 Q82.5 29.85 86.35 27.1 85.4 11.3 89.1 -3.8 89.65 -6.3 88.05 -8.25 76.35 -12.3 85.9 -21.3 86.85 -22.1 87.35 -23.35 90.55 -30.3 86.95 -41.25 77.5 -46.35 74.45 -52.7 74.15 -53.45 73.7 -56.05 85.55 -69.0 73.25 -81.95 72.2 -83.0 70.1 -83.85 51.7 -83.15 35.2 -84.15 29.25 -84.55 23.7 -83.1 7.2 -78.75 -7.85 -76.65 -6.6 -77.9 -0.6 -80.4 12.45 -85.85 30.0 -86.75 41.65 -87.4 40.35 -91.75 18.9 -101.15 -5.0 -88.95 -9.05 -86.4 -11.0 -82.15 -22.2 -57.45 -36.3 -35.35 -42.05 -26.35 -47.5 -16.8 -69.15 21.15 -107.95 45.1;M-115.95 27.6 L-115.95 28.55 -115.95 29.55 Q-112.65 53.7 -101.55 70.15 L-101.3 70.95 Q-54.2 61.75 -23.85 27.85 -23.65 27.6 -23.15 27.6 -10.2 32.65 3.95 41.45 L4.2 42.05 Q18.75 44.15 40.45 38.55 L67.65 31.25 Q72.45 29.9 76.5 27.6 76.95 12.4 81.95 -1.75 82.8 -4.15 81.35 -6.1 70.2 -11.05 80.45 -18.8 81.4 -19.55 82.05 -20.7 85.8 -27.05 83.3 -37.9 74.45 -43.65 72.1 -50.0 71.8 -50.7 71.6 -53.3 84.45 -64.7 73.55 -78.15 72.05 -79.25 70.6 -80.3 52.5 -81.2 36.35 -83.7 30.55 -84.6 24.95 -83.7 8.4 -80.95 -6.55 -80.3 -5.25 -81.4 0.9 -83.25 14.15 -87.3 31.5 -86.65 42.95 -86.2 42.1 -90.5 21.9 -101.45 -2.65 -91.85 -6.9 -89.75 -9.15 -85.85 -22.45 -63.2 -38.25 -43.25 -44.75 -35.1 -50.95 -26.4 -75.75 8.05 -115.95 27.6"/>
    </path>
    <path d="M-89.0 88.55 L-78.65 100.4 -77.95 100.55 Q-58.55 96.15 -46.1 85.7 -27.85 70.45 -2.3 60.6 11.85 55.1 31.05 52.8 L43.75 50.75 Q78.6 44.0 95.95 22.25 100.15 17.05 100.5 9.6 100.6 6.95 97.45 7.0 88.2 13.3 92.55 3.6 92.65 3.4 93.15 3.35 103.4 -6.4 102.8 -20.65 L102.7 -21.65 Q98.35 -27.0 90.7 -26.2 L92.0 -27.1 Q98.4 -31.25 102.25 -37.65 107.15 -54.9 86.95 -52.3 L85.95 -52.2 Q77.25 -58.05 87.65 -57.4 97.5 -56.75 102.0 -61.7 105.5 -71.6 99.25 -80.55 88.95 -87.95 70.1 -83.85 71.55 -84.0 71.9 -83.45 L73.25 -81.95 Q85.55 -69.0 73.7 -56.05 74.15 -53.45 74.45 -52.7 77.5 -46.35 86.95 -41.25 90.55 -30.3 87.35 -23.35 86.85 -22.1 85.9 -21.3 76.35 -12.3 88.05 -8.25 89.65 -6.3 89.1 -3.8 85.4 11.3 86.35 27.1 82.5 29.85 77.8 31.7 L51.0 41.75 Q29.65 49.55 14.5 48.15 -0.65 40.45 -14.95 36.75 -42.25 74.6 -89.0 88.55" fill="#d0d0d0" fill-rule="evenodd" stroke="none">
      <animate attributeName="fill" dur="2s" repeatCount="indefinite" values="#d0d0d0;#d0d0d1"/>
      <animate attributeName="fill-opacity" dur="2s" repeatCount="indefinite" values="1.0;1.0"/>
      <animate attributeName="d" dur="2s" repeatCount="indefinite" values="M-89.0 88.55 L-78.65 100.4 -77.95 100.55 Q-58.55 96.15 -46.1 85.7 -27.85 70.45 -2.3 60.6 11.85 55.1 31.05 52.8 L43.75 50.75 Q78.6 44.0 95.95 22.25 100.15 17.05 100.5 9.6 100.6 6.95 97.45 7.0 88.2 13.3 92.55 3.6 92.65 3.4 93.15 3.35 103.4 -6.4 102.8 -20.65 L102.7 -21.65 Q98.35 -27.0 90.7 -26.2 L92.0 -27.1 Q98.4 -31.25 102.25 -37.65 107.15 -54.9 86.95 -52.3 L85.95 -52.2 Q77.25 -58.05 87.65 -57.4 97.5 -56.75 102.0 -61.7 105.5 -71.6 99.25 -80.55 88.95 -87.95 70.1 -83.85 71.55 -84.0 71.9 -83.45 L73.25 -81.95 Q85.55 -69.0 73.7 -56.05 74.15 -53.45 74.45 -52.7 77.5 -46.35 86.95 -41.25 90.55 -30.3 87.35 -23.35 86.85 -22.1 85.9 -21.3 76.35 -12.3 88.05 -8.25 89.65 -6.3 89.1 -3.8 85.4 11.3 86.35 27.1 82.5 29.85 77.8 31.7 L51.0 41.75 Q29.65 49.55 14.5 48.15 -0.65 40.45 -14.95 36.75 -42.25 74.6 -89.0 88.55;M-101.3 70.95 L-92.25 83.25 -91.55 83.5 Q-72.1 80.95 -58.9 72.05 -39.65 59.05 -13.65 51.9 0.75 47.9 19.8 47.35 L32.45 46.55 Q67.3 43.1 86.35 23.85 90.95 19.25 91.95 12.05 92.3 9.55 89.2 9.3 79.55 14.55 84.7 5.65 84.8 5.45 85.25 5.45 96.25 -3.0 97.0 -16.7 L97.0 -17.65 Q93.15 -23.2 85.55 -23.15 L87.0 -23.9 Q93.6 -27.25 97.95 -33.1 104.35 -49.15 84.3 -48.5 L83.3 -48.5 Q75.25 -54.9 85.4 -53.35 95.05 -51.85 99.9 -56.2 104.25 -65.35 98.95 -74.5 89.45 -82.5 70.6 -80.3 72.1 -80.3 72.35 -79.7 L73.55 -78.15 Q84.45 -64.7 71.6 -53.3 71.8 -50.7 72.1 -50.0 74.45 -43.65 83.3 -37.9 85.8 -27.05 82.05 -20.7 81.4 -19.55 80.45 -18.8 70.2 -11.05 81.35 -6.1 82.8 -4.15 81.95 -1.75 76.95 12.4 76.5 27.6 72.45 29.9 67.65 31.25 L40.45 38.55 Q18.75 44.15 3.95 41.45 -10.2 32.65 -23.85 27.85 -54.2 61.75 -101.3 70.95"/>
    </path>
    <path d="M-109.7 37.25 Q-76.9 18.3 -55.45 -9.95 -51.0 -15.95 -47.55 -22.75 -30.3 -57.8 -9.15 -89.85 -8.65 -90.6 -7.35 -91.15 4.45 -96.2 16.8 -101.0 37.85 -102.8 46.5 -89.6 L46.75 -88.7 Q71.7 -90.8 92.65 -88.25 100.25 -87.35 105.0 -83.1 111.75 -68.7 105.7 -56.85 105.45 -56.55 105.5 -56.05 112.6 -40.05 104.35 -28.6 104.1 -28.3 104.15 -27.8 112.95 -13.05 101.8 -2.15 101.55 -1.9 101.6 -1.45 107.1 5.1 105.35 15.35 105.3 15.8 105.25 16.3 87.25 47.55 44.8 59.3 37.5 61.35 28.05 63.15 11.15 66.4 -4.9 71.45 -19.15 75.9 -29.35 84.1 -46.55 97.9 -65.1 110.4 -72.0 106.6 -77.6 101.35 L-77.95 100.55 Q-58.55 96.15 -46.1 85.7 -27.85 70.45 -2.3 60.6 11.85 55.1 31.05 52.8 L43.75 50.75 Q78.6 44.0 95.95 22.25 100.15 17.05 100.5 9.6 100.6 6.95 97.45 7.0 88.2 13.3 92.55 3.6 92.65 3.4 93.15 3.35 103.4 -6.4 102.8 -20.65 L102.7 -21.65 Q98.35 -27.0 90.7 -26.2 L92.0 -27.1 Q98.4 -31.25 102.25 -37.65 107.15 -54.9 86.95 -52.3 L85.95 -52.2 Q77.25 -58.05 87.65 -57.4 97.5 -56.75 102.0 -61.7 105.5 -71.6 99.9 -80.4 L99.25 -80.55 Q88.95 -87.95 70.1 -84.4 L70.1 -83.85 Q51.7 -83.15 35.2 -84.15 29.25 -84.55 23.7 -83.1 7.2 -78.75 -7.85 -76.65 -6.6 -77.9 -0.6 -80.4 12.45 -85.85 30.0 -86.75 41.65 -87.4 40.6 -91.15 L40.35 -91.75 Q18.9 -101.15 -5.0 -88.95 -9.05 -86.4 -11.0 -82.15 -22.2 -57.45 -36.3 -35.35 -42.05 -26.35 -47.5 -16.8 -69.15 21.15 -107.95 45.1 L-107.85 46.1 -107.75 47.1 -108.25 47.1 Q-109.25 42.2 -109.7 37.25 M-107.95 45.1 Q-69.15 21.15 -47.5 -16.8 -42.05 -26.35 -36.3 -35.35 -22.2 -57.45 -11.0 -82.15 -9.05 -86.4 -5.0 -88.95 18.9 -101.15 40.35 -91.75 41.65 -87.4 30.0 -86.75 12.45 -85.85 -0.6 -80.4 -6.6 -77.9 -7.85 -76.65 7.2 -78.75 23.7 -83.1 29.25 -84.55 35.2 -84.15 51.7 -83.15 70.1 -83.85 72.2 -83.0 73.25 -81.95 85.55 -69.0 73.7 -56.05 74.15 -53.45 74.45 -52.7 77.5 -46.35 86.95 -41.25 90.55 -30.3 87.35 -23.35 86.85 -22.1 85.9 -21.3 76.35 -12.3 88.05 -8.25 89.65 -6.3 89.1 -3.8 85.4 11.3 86.35 27.1 82.5 29.85 77.8 31.7 L51.0 41.75 Q29.65 49.55 14.75 48.8 L14.5 48.15 Q-0.65 40.45 -14.25 36.4 -14.75 36.45 -14.95 36.75 -42.25 74.6 -89.0 88.55 L-89.3 87.7 Q-102.1 71.8 -107.75 47.1 L-107.85 46.1 -107.95 45.1 M-89.0 88.55 Q-42.25 74.6 -14.95 36.75 -0.65 40.45 14.5 48.15 29.65 49.55 51.0 41.75 L77.8 31.7 Q82.5 29.85 86.35 27.1 85.4 11.3 89.1 -3.8 89.65 -6.3 88.05 -8.25 76.35 -12.3 85.9 -21.3 86.85 -22.1 87.35 -23.35 90.55 -30.3 86.95 -41.25 77.5 -46.35 74.45 -52.7 74.15 -53.45 73.7 -56.05 85.55 -69.0 73.25 -81.95 L71.9 -83.45 Q71.55 -84.0 70.1 -83.85 88.95 -87.95 99.25 -80.55 105.5 -71.6 102.0 -61.7 97.5 -56.75 87.65 -57.4 77.25 -58.05 85.95 -52.2 L86.95 -52.3 Q107.15 -54.9 102.25 -37.65 98.4 -31.25 92.0 -27.1 L90.7 -26.2 Q98.35 -27.0 102.7 -21.65 L102.8 -20.65 Q103.4 -6.4 93.15 3.35 92.65 3.4 92.55 3.6 88.2 13.3 97.45 7.0 100.6 6.95 100.5 9.6 100.15 17.05 95.95 22.25 78.6 44.0 43.75 50.75 L31.05 52.8 Q11.85 55.1 -2.3 60.6 -27.85 70.45 -46.1 85.7 -58.55 96.15 -77.95 100.55 L-78.65 100.4 -89.0 88.55 Z" fill="none" stroke="#000000" stroke-linecap="round" stroke-linejoin="round" stroke-opacity="0.0" stroke-width="0.0">
      <animate attributeName="stroke" dur="2s" repeatCount="indefinite" values="#000000;#000001"/>
      <animate attributeName="stroke-width" dur="2s" repeatCount="indefinite" values="0.0;0.0"/>
      <animate attributeName="fill-opacity" dur="2s" repeatCount="indefinite" values="0.0;0.0"/>
      <animate attributeName="d" dur="2s" repeatCount="indefinite" values="M-109.7 37.25 Q-76.9 18.3 -55.45 -9.95 -51.0 -15.95 -47.55 -22.75 -30.3 -57.8 -9.15 -89.85 -8.65 -90.6 -7.35 -91.15 4.45 -96.2 16.8 -101.0 37.85 -102.8 46.5 -89.6 L46.75 -88.7 Q71.7 -90.8 92.65 -88.25 100.25 -87.35 105.0 -83.1 111.75 -68.7 105.7 -56.85 105.45 -56.55 105.5 -56.05 112.6 -40.05 104.35 -28.6 104.1 -28.3 104.15 -27.8 112.95 -13.05 101.8 -2.15 101.55 -1.9 101.6 -1.45 107.1 5.1 105.35 15.35 105.3 15.8 105.25 16.3 87.25 47.55 44.8 59.3 37.5 61.35 28.05 63.15 11.15 66.4 -4.9 71.45 -19.15 75.9 -29.35 84.1 -46.55 97.9 -65.1 110.4 -72.0 106.6 -77.6 101.35 L-77.95 100.55 Q-58.55 96.15 -46.1 85.7 -27.85 70.45 -2.3 60.6 11.85 55.1 31.05 52.8 L43.75 50.75 Q78.6 44.0 95.95 22.25 100.15 17.05 100.5 9.6 100.6 6.95 97.45 7.0 88.2 13.3 92.55 3.6 92.65 3.4 93.15 3.35 103.4 -6.4 102.8 -20.65 L102.7 -21.65 Q98.35 -27.0 90.7 -26.2 L92.0 -27.1 Q98.4 -31.25 102.25 -37.65 107.15 -54.9 86.95 -52.3 L85.95 -52.2 Q77.25 -58.05 87.65 -57.4 97.5 -56.75 102.0 -61.7 105.5 -71.6 99.9 -80.4 L99.25 -80.55 Q88.95 -87.95 70.1 -84.4 L70.1 -83.85 Q51.7 -83.15 35.2 -84.15 29.25 -84.55 23.7 -83.1 7.2 -78.75 -7.85 -76.65 -6.6 -77.9 -0.6 -80.4 12.45 -85.85 30.0 -86.75 41.65 -87.4 40.6 -91.15 L40.35 -91.75 Q18.9 -101.15 -5.0 -88.95 -9.05 -86.4 -11.0 -82.15 -22.2 -57.45 -36.3 -35.35 -42.05 -26.35 -47.5 -16.8 -69.15 21.15 -107.95 45.1 L-107.85 46.1 -107.75 47.1 -108.25 47.1 Q-109.25 42.2 -109.7 37.25 M-107.95 45.1 Q-69.15 21.15 -47.5 -16.8 -42.05 -26.35 -36.3 -35.35 -22.2 -57.45 -11.0 -82.15 -9.05 -86.4 -5.0 -88.95 18.9 -101.15 40.35 -91.75 41.65 -87.4 30.0 -86.75 12.45 -85.85 -0.6 -80.4 -6.6 -77.9 -7.85 -76.65 7.2 -78.75 23.7 -83.1 29.25 -84.55 35.2 -84.15 51.7 -83.15 70.1 -83.85 72.2 -83.0 73.25 -81.95 85.55 -69.0 73.7 -56.05 74.15 -53.45 74.45 -52.7 77.5 -46.35 86.95 -41.25 90.55 -30.3 87.35 -23.35 86.85 -22.1 85.9 -21.3 76.35 -12.3 88.05 -8.25 89.65 -6.3 89.1 -3.8 85.4 11.3 86.35 27.1 82.5 29.85 77.8 31.7 L51.0 41.75 Q29.65 49.55 14.75 48.8 L14.5 48.15 Q-0.65 40.45 -14.25 36.4 -14.75 36.45 -14.95 36.75 -42.25 74.6 -89.0 88.55 L-89.3 87.7 Q-102.1 71.8 -107.75 47.1 L-107.85 46.1 -107.95 45.1 M-89.0 88.55 Q-42.25 74.6 -14.95 36.75 -0.65 40.45 14.5 48.15 29.65 49.55 51.0 41.75 L77.8 31.7 Q82.5 29.85 86.35 27.1 85.4 11.3 89.1 -3.8 89.65 -6.3 88.05 -8.25 76.35 -12.3 85.9 -21.3 86.85 -22.1 87.35 -23.35 90.55 -30.3 86.95 -41.25 77.5 -46.35 74.45 -52.7 74.15 -53.45 73.7 -56.05 85.55 -69.0 73.25 -81.95 L71.9 -83.45 Q71.55 -84.0 70.1 -83.85 88.95 -87.95 99.25 -80.55 105.5 -71.6 102.0 -61.7 97.5 -56.75 87.65 -57.4 77.25 -58.05 85.95 -52.2 L86.95 -52.3 Q107.15 -54.9 102.25 -37.65 98.4 -31.25 92.0 -27.1 L90.7 -26.2 Q98.35 -27.0 102.7 -21.65 L102.8 -20.65 Q103.4 -6.4 93.15 3.35 92.65 3.4 92.55 3.6 88.2 13.3 97.45 7.0 100.6 6.95 100.5 9.6 100.15 17.05 95.95 22.25 78.6 44.0 43.75 50.75 L31.05 52.8 Q11.85 55.1 -2.3 60.6 -27.85 70.45 -46.1 85.7 -58.55 96.15 -77.95 100.55 L-78.65 100.4 -89.0 88.55 Z;M-116.95 19.9 Q-83.05 4.7 -59.4 -20.55 -54.5 -25.9 -50.5 -32.1 -30.35 -64.25 -6.65 -93.05 -5.7 -93.6 -4.75 -94.2 7.25 -97.95 19.8 -101.5 40.65 -101.35 47.95 -87.9 L48.15 -87.05 Q72.8 -86.8 93.15 -82.45 100.55 -80.9 104.8 -76.45 110.15 -62.05 103.1 -51.25 103.0 -50.85 102.85 -50.4 108.35 -34.5 99.2 -24.2 98.95 -23.95 98.95 -23.45 106.2 -8.5 94.3 0.9 94.05 1.1 94.05 1.6 98.85 8.35 96.15 18.0 96.0 18.45 96.0 18.95 75.5 47.35 32.75 54.85 24.35 55.95 15.95 57.05 -1.0 58.65 -17.15 62.05 -31.55 65.1 -42.3 72.0 -60.55 83.7 -79.85 94.1 -86.3 89.85 -91.3 84.25 L-91.55 83.5 Q-72.1 80.95 -58.9 72.05 -39.65 59.05 -13.65 51.9 0.75 47.9 19.8 47.35 L32.45 46.55 Q67.3 43.1 86.35 23.85 90.95 19.25 91.95 12.05 92.3 9.55 89.2 9.3 79.55 14.55 84.7 5.65 84.8 5.45 85.25 5.45 96.25 -3.0 97.0 -16.7 L97.0 -17.65 Q93.15 -23.2 85.55 -23.15 L87.0 -23.9 Q93.6 -27.25 97.95 -33.1 104.35 -49.15 84.3 -48.5 L83.3 -48.5 Q75.25 -54.9 85.4 -53.35 95.05 -51.85 99.9 -56.2 104.25 -65.35 99.55 -74.3 L98.95 -74.5 Q89.45 -82.5 70.65 -80.75 L70.6 -80.3 Q52.5 -81.2 36.35 -83.7 30.55 -84.6 24.95 -83.7 8.4 -80.95 -6.55 -80.3 -5.25 -81.4 0.9 -83.25 14.15 -87.3 31.5 -86.65 42.95 -86.2 42.3 -89.9 L42.1 -90.5 Q21.9 -101.45 -2.65 -91.85 -6.9 -89.75 -9.15 -85.85 -22.45 -63.2 -38.25 -43.25 -44.75 -35.1 -50.95 -26.4 -75.75 8.05 -115.95 27.6 L-115.95 28.55 -115.95 29.55 -116.45 29.5 Q-116.95 24.7 -116.95 19.9 M-115.95 27.6 Q-75.75 8.05 -50.95 -26.4 -44.75 -35.1 -38.25 -43.25 -22.45 -63.2 -9.15 -85.85 -6.9 -89.75 -2.65 -91.85 21.9 -101.45 42.1 -90.5 42.95 -86.2 31.5 -86.65 14.15 -87.3 0.9 -83.25 -5.25 -81.4 -6.55 -80.3 8.4 -80.95 24.95 -83.7 30.55 -84.6 36.35 -83.7 52.5 -81.2 70.6 -80.3 72.05 -79.25 73.55 -78.15 84.45 -64.7 71.6 -53.3 71.8 -50.7 72.1 -50.0 74.45 -43.65 83.3 -37.9 85.8 -27.05 82.05 -20.7 81.4 -19.55 80.45 -18.8 70.2 -11.05 81.35 -6.1 82.8 -4.15 81.95 -1.75 76.95 12.4 76.5 27.6 72.45 29.9 67.65 31.25 L40.45 38.55 Q18.75 44.15 4.2 42.05 L3.95 41.45 Q-10.2 32.65 -23.15 27.6 -23.65 27.6 -23.85 27.85 -54.2 61.75 -101.3 70.95 L-101.55 70.15 Q-112.65 53.7 -115.95 29.55 L-115.95 28.55 -115.95 27.6 M-101.3 70.95 Q-54.2 61.75 -23.85 27.85 -10.2 32.65 3.95 41.45 18.75 44.15 40.45 38.55 L67.65 31.25 Q72.45 29.9 76.5 27.6 76.95 12.4 81.95 -1.75 82.8 -4.15 81.35 -6.1 70.2 -11.05 80.45 -18.8 81.4 -19.55 82.05 -20.7 85.8 -27.05 83.3 -37.9 74.45 -43.65 72.1 -50.0 71.8 -50.7 71.6 -53.3 84.45 -64.7 73.55 -78.15 L72.35 -79.7 Q72.1 -80.3 70.6 -80.3 89.45 -82.5 98.95 -74.5 104.25 -65.35 99.9 -56.2 95.05 -51.85 85.4 -53.35 75.25 -54.9 83.3 -48.5 L84.3 -48.5 Q104.35 -49.15 97.95 -33.1 93.6 -27.25 87.0 -23.9 L85.55 -23.15 Q93.15 -23.2 97.0 -17.65 L97.0 -16.7 Q96.25 -3.0 85.25 5.45 84.8 5.45 84.7 5.65 79.55 14.55 89.2 9.3 92.3 9.55 91.95 12.05 90.95 19.25 86.35 23.85 67.3 43.1 32.45 46.55 L19.8 47.35 Q0.75 47.9 -13.65 51.9 -39.65 59.05 -58.9 72.05 -72.1 80.95 -91.55 83.5 L-92.25 83.25 -101.3 70.95 Z"/>
    </path>
  </g>
</svg>
