<?xml version="1.0" encoding="UTF-8" standalone="no"?>
<svg xmlns:ffdec="https://www.free-decompiler.com/flash" xmlns:xlink="http://www.w3.org/1999/xlink" ffdec:objectType="morphshape" height="203.0px" width="231.6px" xmlns="http://www.w3.org/2000/svg">
  <g transform="matrix(1.0, 0.0, 0.0, 1.0, 116.95, 101.5)">
    <path d="M-116.95 19.9 Q-116.95 24.7 -116.45 29.5 L-115.95 29.55 -115.95 28.55 -115.95 27.6 Q-75.75 8.05 -50.95 -26.4 -44.75 -35.1 -38.25 -43.25 -22.45 -63.2 -9.15 -85.85 -6.9 -89.75 -2.65 -91.85 21.9 -101.45 42.1 -90.5 L42.3 -89.9 Q42.95 -86.2 31.5 -86.65 14.15 -87.3 0.9 -83.25 -5.25 -81.4 -6.55 -80.3 8.4 -80.95 24.95 -83.7 30.55 -84.6 36.35 -83.7 52.5 -81.2 70.6 -80.3 L70.65 -80.75 Q89.45 -82.5 98.95 -74.5 L99.55 -74.3 Q104.25 -65.35 99.9 -56.2 95.05 -51.85 85.4 -53.35 75.25 -54.9 83.3 -48.5 L84.3 -48.5 Q104.35 -49.15 97.95 -33.1 93.6 -27.25 87.0 -23.9 L85.55 -23.15 Q93.15 -23.2 97.0 -17.65 L97.0 -16.7 Q96.25 -3.0 85.25 5.45 84.8 5.45 84.7 5.65 79.55 14.55 89.2 9.3 92.3 9.55 91.95 12.05 90.95 19.25 86.35 23.85 67.3 43.1 32.45 46.55 L19.8 47.35 Q0.75 47.9 -13.65 51.9 -39.65 59.05 -58.9 72.05 -72.1 80.95 -91.55 83.5 L-91.3 84.25 Q-86.3 89.85 -79.85 94.1 -60.55 83.7 -42.3 72.0 -31.55 65.1 -17.15 62.05 -1.0 58.65 15.95 57.05 L32.75 54.85 Q75.5 47.35 96.0 18.95 96.0 18.45 96.15 18.0 98.85 8.35 94.05 1.6 94.05 1.1 94.3 0.9 106.2 -8.5 98.95 -23.45 98.95 -23.95 99.2 -24.2 108.35 -34.5 102.85 -50.4 L103.1 -51.25 Q110.15 -62.05 104.8 -76.45 100.55 -80.9 93.15 -82.45 72.8 -86.8 48.15 -87.05 L47.95 -87.9 Q40.65 -101.35 19.8 -101.5 7.25 -97.95 -4.75 -94.2 -5.7 -93.6 -6.65 -93.05 -30.35 -64.25 -50.5 -32.1 -54.5 -25.9 -59.4 -20.55 -83.05 4.7 -116.95 19.9" fill="#241f1f" fill-opacity="0.9647059" fill-rule="evenodd" stroke="none">
      <animate attributeName="fill" dur="2s" repeatCount="indefinite" values="#241f1f;#241f20"/>
      <animate attributeName="fill-opacity" dur="2s" repeatCount="indefinite" values="0.9647059;0.9647059"/>
      <animate attributeName="d" dur="2s" repeatCount="indefinite" values="M-116.95 19.9 Q-116.95 24.7 -116.45 29.5 L-115.95 29.55 -115.95 28.55 -115.95 27.6 Q-75.75 8.05 -50.95 -26.4 -44.75 -35.1 -38.25 -43.25 -22.45 -63.2 -9.15 -85.85 -6.9 -89.75 -2.65 -91.85 21.9 -101.45 42.1 -90.5 L42.3 -89.9 Q42.95 -86.2 31.5 -86.65 14.15 -87.3 0.9 -83.25 -5.25 -81.4 -6.55 -80.3 8.4 -80.95 24.95 -83.7 30.55 -84.6 36.35 -83.7 52.5 -81.2 70.6 -80.3 L70.65 -80.75 Q89.45 -82.5 98.95 -74.5 L99.55 -74.3 Q104.25 -65.35 99.9 -56.2 95.05 -51.85 85.4 -53.35 75.25 -54.9 83.3 -48.5 L84.3 -48.5 Q104.35 -49.15 97.95 -33.1 93.6 -27.25 87.0 -23.9 L85.55 -23.15 Q93.15 -23.2 97.0 -17.65 L97.0 -16.7 Q96.25 -3.0 85.25 5.45 84.8 5.45 84.7 5.65 79.55 14.55 89.2 9.3 92.3 9.55 91.95 12.05 90.95 19.25 86.35 23.85 67.3 43.1 32.45 46.55 L19.8 47.35 Q0.75 47.9 -13.65 51.9 -39.65 59.05 -58.9 72.05 -72.1 80.95 -91.55 83.5 L-91.3 84.25 Q-86.3 89.85 -79.85 94.1 -60.55 83.7 -42.3 72.0 -31.55 65.1 -17.15 62.05 -1.0 58.65 15.95 57.05 L32.75 54.85 Q75.5 47.35 96.0 18.95 96.0 18.45 96.15 18.0 98.85 8.35 94.05 1.6 94.05 1.1 94.3 0.9 106.2 -8.5 98.95 -23.45 98.95 -23.95 99.2 -24.2 108.35 -34.5 102.85 -50.4 L103.1 -51.25 Q110.15 -62.05 104.8 -76.45 100.55 -80.9 93.15 -82.45 72.8 -86.8 48.15 -87.05 L47.95 -87.9 Q40.65 -101.35 19.8 -101.5 7.25 -97.95 -4.75 -94.2 -5.7 -93.6 -6.65 -93.05 -30.35 -64.25 -50.5 -32.1 -54.5 -25.9 -59.4 -20.55 -83.05 4.7 -116.95 19.9;M-114.7 24.5 Q-114.7 29.5 -114.2 34.45 L-113.7 34.5 -113.7 33.5 -113.7 32.5 Q-72.5 12.2 -47.15 -23.55 -40.8 -32.6 -34.15 -41.05 -17.95 -61.75 -4.35 -85.3 -2.05 -89.35 2.3 -91.5 27.45 -101.45 48.1 -90.1 L48.3 -89.5 Q49.0 -85.65 37.25 -86.1 19.5 -86.8 5.95 -82.6 -0.35 -80.65 -1.7 -79.5 13.6 -80.2 30.55 -83.05 36.3 -84.0 42.25 -83.05 58.75 -80.45 77.3 -79.5 L77.35 -80.0 Q96.6 -81.8 106.3 -73.5 L106.9 -73.3 Q111.75 -64.0 107.3 -54.5 102.3 -50.0 92.45 -51.55 82.05 -53.15 90.3 -46.5 L91.3 -46.5 Q111.85 -47.2 105.3 -30.5 100.85 -24.45 94.05 -20.95 L92.6 -20.2 Q100.35 -20.25 104.3 -14.5 L104.3 -13.5 Q103.55 0.75 92.3 9.5 92.0 9.6 91.7 9.7 86.45 18.95 96.3 13.5 99.5 13.75 99.15 16.35 98.1 23.8 93.4 28.6 73.9 48.6 38.25 52.15 L25.3 53.0 Q5.8 53.55 -8.95 57.7 -35.55 65.15 -55.3 78.65 -68.8 87.9 -88.7 90.5 L-88.45 91.3 Q-83.3 97.1 -76.7 101.5 -56.95 90.75 -38.3 78.6 -27.3 71.4 -12.55 68.25 4.0 64.7 21.35 63.05 L38.55 60.8 Q82.3 53.0 103.3 23.5 103.3 23.0 103.45 22.55 106.2 12.5 101.3 5.5 101.3 5.0 101.55 4.8 113.75 -5.0 106.3 -20.5 106.3 -21.0 106.55 -21.3 115.95 -31.95 110.3 -48.5 L110.55 -49.35 Q117.75 -60.55 112.3 -75.5 107.95 -80.15 100.35 -81.75 79.55 -86.25 54.3 -86.5 L54.1 -87.4 Q46.65 -101.35 25.3 -101.5 12.7 -97.7 0.15 -93.95 -1.2 -93.5 -1.8 -92.75 -26.05 -62.85 -46.7 -29.5 -50.75 -23.05 -55.8 -17.5 -80.0 8.7 -114.7 24.5"/>
    </path>
    <path d="M-115.95 27.6 L-115.95 28.55 -115.95 29.55 Q-112.65 53.7 -101.55 70.15 -101.4 70.55 -101.3 70.95 -54.2 61.75 -23.85 27.85 -23.65 27.6 -23.15 27.6 -10.2 32.65 3.95 41.45 L4.2 42.05 Q18.75 44.15 40.45 38.55 L67.65 31.25 Q72.45 29.9 76.5 27.6 76.95 12.4 81.95 -1.75 82.8 -4.15 81.35 -6.1 70.2 -11.05 80.45 -18.8 81.4 -19.55 82.05 -20.7 85.8 -27.05 83.3 -37.9 74.45 -43.65 72.1 -50.0 71.8 -50.7 71.6 -53.3 84.45 -64.7 73.55 -78.15 72.05 -79.25 70.6 -80.3 52.5 -81.2 36.35 -83.7 30.55 -84.6 24.95 -83.7 8.4 -80.95 -6.55 -80.3 -5.25 -81.4 0.9 -83.25 14.15 -87.3 31.5 -86.65 42.95 -86.2 42.1 -90.5 21.9 -101.45 -2.65 -91.85 -6.9 -89.75 -9.15 -85.85 -22.45 -63.2 -38.25 -43.25 -44.75 -35.1 -50.95 -26.4 -75.75 8.05 -115.95 27.6" fill="#ffffff" fill-rule="evenodd" stroke="none">
      <animate attributeName="fill" dur="2s" repeatCount="indefinite" values="#ffffff;#ffffff"/>
      <animate attributeName="fill-opacity" dur="2s" repeatCount="indefinite" values="1.0;1.0"/>
      <animate attributeName="d" dur="2s" repeatCount="indefinite" values="M-115.95 27.6 L-115.95 28.55 -115.95 29.55 Q-112.65 53.7 -101.55 70.15 -101.4 70.55 -101.3 70.95 -54.2 61.75 -23.85 27.85 -23.65 27.6 -23.15 27.6 -10.2 32.65 3.95 41.45 L4.2 42.05 Q18.75 44.15 40.45 38.55 L67.65 31.25 Q72.45 29.9 76.5 27.6 76.95 12.4 81.95 -1.75 82.8 -4.15 81.35 -6.1 70.2 -11.05 80.45 -18.8 81.4 -19.55 82.05 -20.7 85.8 -27.05 83.3 -37.9 74.45 -43.65 72.1 -50.0 71.8 -50.7 71.6 -53.3 84.45 -64.7 73.55 -78.15 72.05 -79.25 70.6 -80.3 52.5 -81.2 36.35 -83.7 30.55 -84.6 24.95 -83.7 8.4 -80.95 -6.55 -80.3 -5.25 -81.4 0.9 -83.25 14.15 -87.3 31.5 -86.65 42.95 -86.2 42.1 -90.5 21.9 -101.45 -2.65 -91.85 -6.9 -89.75 -9.15 -85.85 -22.45 -63.2 -38.25 -43.25 -44.75 -35.1 -50.95 -26.4 -75.75 8.05 -115.95 27.6;M-113.7 32.5 L-113.7 33.5 -113.7 34.5 Q-110.3 59.6 -98.95 76.65 -98.7 77.0 -98.7 77.5 -50.45 67.95 -19.4 32.75 -19.05 32.6 -18.7 32.5 -5.4 37.75 9.05 46.85 L9.3 47.5 Q24.2 49.65 46.4 43.85 L74.25 36.3 Q79.2 34.9 83.3 32.5 83.8 16.7 88.9 2.0 89.75 -0.45 88.3 -2.5 76.9 -7.65 87.35 -15.7 88.35 -16.45 89.0 -17.65 92.85 -24.25 90.3 -35.5 81.25 -41.45 78.8 -48.05 78.5 -48.8 78.3 -51.5 91.45 -63.3 80.3 -77.3 79.35 -78.45 77.3 -79.5 58.75 -80.45 42.25 -83.05 36.3 -84.0 30.55 -83.05 13.6 -80.2 -1.7 -79.5 -0.35 -80.65 5.95 -82.6 19.5 -86.8 37.25 -86.1 49.0 -85.65 48.1 -90.1 27.45 -101.45 2.3 -91.5 -2.05 -89.35 -4.35 -85.3 -17.95 -61.75 -34.15 -41.05 -40.8 -32.6 -47.15 -23.55 -72.5 12.2 -113.7 32.5"/>
    </path>
    <path d="M-101.3 70.95 Q-96.75 77.1 -92.25 83.25 L-91.55 83.5 Q-72.1 80.95 -58.9 72.05 -39.65 59.05 -13.65 51.9 0.75 47.9 19.8 47.35 L32.45 46.55 Q67.3 43.1 86.35 23.85 90.95 19.25 91.95 12.05 92.3 9.55 89.2 9.3 79.55 14.55 84.7 5.65 84.8 5.45 85.25 5.45 96.25 -3.0 97.0 -16.7 L97.0 -17.65 Q93.15 -23.2 85.55 -23.15 L87.0 -23.9 Q93.6 -27.25 97.95 -33.1 104.35 -49.15 84.3 -48.5 L83.3 -48.5 Q75.25 -54.9 85.4 -53.35 95.05 -51.85 99.9 -56.2 104.25 -65.35 98.95 -74.5 89.45 -82.5 70.6 -80.3 72.1 -80.3 72.35 -79.7 L73.55 -78.15 Q84.45 -64.7 71.6 -53.3 71.8 -50.7 72.1 -50.0 74.45 -43.65 83.3 -37.9 85.8 -27.05 82.05 -20.7 81.4 -19.55 80.45 -18.8 70.2 -11.05 81.35 -6.1 82.8 -4.15 81.95 -1.75 76.95 12.4 76.5 27.6 72.45 29.9 67.65 31.25 L40.45 38.55 Q18.75 44.15 3.95 41.45 -10.2 32.65 -23.85 27.85 -54.2 61.75 -101.3 70.95" fill="#d0d0d0" fill-rule="evenodd" stroke="none">
      <animate attributeName="fill" dur="2s" repeatCount="indefinite" values="#d0d0d0;#d0d0d1"/>
      <animate attributeName="fill-opacity" dur="2s" repeatCount="indefinite" values="1.0;1.0"/>
      <animate attributeName="d" dur="2s" repeatCount="indefinite" values="M-101.3 70.95 Q-96.75 77.1 -92.25 83.25 L-91.55 83.5 Q-72.1 80.95 -58.9 72.05 -39.65 59.05 -13.65 51.9 0.75 47.9 19.8 47.35 L32.45 46.55 Q67.3 43.1 86.35 23.85 90.95 19.25 91.95 12.05 92.3 9.55 89.2 9.3 79.55 14.55 84.7 5.65 84.8 5.45 85.25 5.45 96.25 -3.0 97.0 -16.7 L97.0 -17.65 Q93.15 -23.2 85.55 -23.15 L87.0 -23.9 Q93.6 -27.25 97.95 -33.1 104.35 -49.15 84.3 -48.5 L83.3 -48.5 Q75.25 -54.9 85.4 -53.35 95.05 -51.85 99.9 -56.2 104.25 -65.35 98.95 -74.5 89.45 -82.5 70.6 -80.3 72.1 -80.3 72.35 -79.7 L73.55 -78.15 Q84.45 -64.7 71.6 -53.3 71.8 -50.7 72.1 -50.0 74.45 -43.65 83.3 -37.9 85.8 -27.05 82.05 -20.7 81.4 -19.55 80.45 -18.8 70.2 -11.05 81.35 -6.1 82.8 -4.15 81.95 -1.75 76.95 12.4 76.5 27.6 72.45 29.9 67.65 31.25 L40.45 38.55 Q18.75 44.15 3.95 41.45 -10.2 32.65 -23.85 27.85 -54.2 61.75 -101.3 70.95;M-98.7 77.5 Q-94.25 84.05 -89.4 90.25 L-88.7 90.5 Q-68.8 87.9 -55.3 78.65 -35.55 65.15 -8.95 57.7 5.8 53.55 25.3 53.0 L38.25 52.15 Q73.9 48.6 93.4 28.6 98.1 23.8 99.15 16.35 99.5 13.75 96.3 13.5 86.45 18.95 91.7 9.7 92.0 9.6 92.3 9.5 103.55 0.75 104.3 -13.5 L104.3 -14.5 Q100.35 -20.25 92.6 -20.2 L94.05 -20.95 Q100.85 -24.45 105.3 -30.5 111.85 -47.2 91.3 -46.5 L90.3 -46.5 Q82.05 -53.15 92.45 -51.55 102.3 -50.0 107.3 -54.5 111.75 -64.0 106.3 -73.5 96.6 -81.8 77.3 -79.5 78.8 -79.5 79.1 -78.9 L80.3 -77.3 Q91.45 -63.3 78.3 -51.5 78.5 -48.8 78.8 -48.05 81.25 -41.45 90.3 -35.5 92.85 -24.25 89.0 -17.65 88.35 -16.45 87.35 -15.7 76.9 -7.65 88.3 -2.5 89.75 -0.45 88.9 2.0 83.8 16.7 83.3 32.5 79.2 34.9 74.25 36.3 L46.4 43.85 Q24.2 49.65 9.05 46.85 -5.4 37.75 -19.4 32.75 -50.45 67.95 -98.7 77.5"/>
    </path>
    <path d="M-116.95 19.9 Q-83.05 4.7 -59.4 -20.55 -54.5 -25.9 -50.5 -32.1 -30.35 -64.25 -6.65 -93.05 -5.7 -93.6 -4.75 -94.2 7.25 -97.95 19.8 -101.5 40.65 -101.35 47.95 -87.9 L48.15 -87.05 Q72.8 -86.8 93.15 -82.45 100.55 -80.9 104.8 -76.45 110.15 -62.05 103.1 -51.25 L102.85 -50.4 Q108.35 -34.5 99.2 -24.2 98.95 -23.95 98.95 -23.45 106.2 -8.5 94.3 0.9 94.05 1.1 94.05 1.6 98.85 8.35 96.15 18.0 96.0 18.45 96.0 18.95 75.5 47.35 32.75 54.85 L15.95 57.05 Q-1.0 58.65 -17.15 62.05 -31.55 65.1 -42.3 72.0 -60.55 83.7 -79.85 94.1 -86.3 89.85 -91.3 84.25 L-91.55 83.5 Q-72.1 80.95 -58.9 72.05 -39.65 59.05 -13.65 51.9 0.75 47.9 19.8 47.35 L32.45 46.55 Q67.3 43.1 86.35 23.85 90.95 19.25 91.95 12.05 92.3 9.55 89.2 9.3 79.55 14.55 84.7 5.65 84.8 5.45 85.25 5.45 96.25 -3.0 97.0 -16.7 L97.0 -17.65 Q93.15 -23.2 85.55 -23.15 L87.0 -23.9 Q93.6 -27.25 97.95 -33.1 104.35 -49.15 84.3 -48.5 L83.3 -48.5 Q75.25 -54.9 85.4 -53.35 95.05 -51.85 99.9 -56.2 104.25 -65.35 99.55 -74.3 L98.95 -74.5 Q89.45 -82.5 70.65 -80.75 L70.6 -80.3 Q52.5 -81.2 36.35 -83.7 30.55 -84.6 24.95 -83.7 8.4 -80.95 -6.55 -80.3 -5.25 -81.4 0.9 -83.25 14.15 -87.3 31.5 -86.65 42.95 -86.2 42.3 -89.9 L42.1 -90.5 Q21.9 -101.45 -2.65 -91.85 -6.9 -89.75 -9.15 -85.85 -22.45 -63.2 -38.25 -43.25 -44.75 -35.1 -50.95 -26.4 -75.75 8.05 -115.95 27.6 L-115.95 28.55 -115.95 29.55 -116.45 29.5 Q-116.95 24.7 -116.95 19.9 M-115.95 27.6 Q-75.75 8.05 -50.95 -26.4 -44.75 -35.1 -38.25 -43.25 -22.45 -63.2 -9.15 -85.85 -6.9 -89.75 -2.65 -91.85 21.9 -101.45 42.1 -90.5 42.95 -86.2 31.5 -86.65 14.15 -87.3 0.9 -83.25 -5.25 -81.4 -6.55 -80.3 8.4 -80.95 24.95 -83.7 30.55 -84.6 36.35 -83.7 52.5 -81.2 70.6 -80.3 72.05 -79.25 73.55 -78.15 84.45 -64.7 71.6 -53.3 71.8 -50.7 72.1 -50.0 74.45 -43.65 83.3 -37.9 85.8 -27.05 82.05 -20.7 81.4 -19.55 80.45 -18.8 70.2 -11.05 81.35 -6.1 82.8 -4.15 81.95 -1.75 76.95 12.4 76.5 27.6 72.45 29.9 67.65 31.25 L40.45 38.55 Q18.75 44.15 4.2 42.05 L3.95 41.45 Q-10.2 32.65 -23.15 27.6 -23.65 27.6 -23.85 27.85 -54.2 61.75 -101.3 70.95 -101.4 70.55 -101.55 70.15 -112.65 53.7 -115.95 29.55 L-115.95 28.55 -115.95 27.6 M-101.3 70.95 Q-54.2 61.75 -23.85 27.85 -10.2 32.65 3.95 41.45 18.75 44.15 40.45 38.55 L67.65 31.25 Q72.45 29.9 76.5 27.6 76.95 12.4 81.95 -1.75 82.8 -4.15 81.35 -6.1 70.2 -11.05 80.45 -18.8 81.4 -19.55 82.05 -20.7 85.8 -27.05 83.3 -37.9 74.45 -43.65 72.1 -50.0 71.8 -50.7 71.6 -53.3 84.45 -64.7 73.55 -78.15 L72.35 -79.7 Q72.1 -80.3 70.6 -80.3 89.45 -82.5 98.95 -74.5 104.25 -65.35 99.9 -56.2 95.05 -51.85 85.4 -53.35 75.25 -54.9 83.3 -48.5 L84.3 -48.5 Q104.35 -49.15 97.95 -33.1 93.6 -27.25 87.0 -23.9 L85.55 -23.15 Q93.15 -23.2 97.0 -17.65 L97.0 -16.7 Q96.25 -3.0 85.25 5.45 84.8 5.45 84.7 5.65 79.55 14.55 89.2 9.3 92.3 9.55 91.95 12.05 90.95 19.25 86.35 23.85 67.3 43.1 32.45 46.55 L19.8 47.35 Q0.75 47.9 -13.65 51.9 -39.65 59.05 -58.9 72.05 -72.1 80.95 -91.55 83.5 L-92.25 83.25 Q-96.75 77.1 -101.3 70.95 Z" fill="none" stroke="#000000" stroke-linecap="round" stroke-linejoin="round" stroke-opacity="0.0" stroke-width="0.0">
      <animate attributeName="stroke" dur="2s" repeatCount="indefinite" values="#000000;#000001"/>
      <animate attributeName="stroke-width" dur="2s" repeatCount="indefinite" values="0.0;0.0"/>
      <animate attributeName="fill-opacity" dur="2s" repeatCount="indefinite" values="0.0;0.0"/>
      <animate attributeName="d" dur="2s" repeatCount="indefinite" values="M-116.95 19.9 Q-83.05 4.7 -59.4 -20.55 -54.5 -25.9 -50.5 -32.1 -30.35 -64.25 -6.65 -93.05 -5.7 -93.6 -4.75 -94.2 7.25 -97.95 19.8 -101.5 40.65 -101.35 47.95 -87.9 L48.15 -87.05 Q72.8 -86.8 93.15 -82.45 100.55 -80.9 104.8 -76.45 110.15 -62.05 103.1 -51.25 L102.85 -50.4 Q108.35 -34.5 99.2 -24.2 98.95 -23.95 98.95 -23.45 106.2 -8.5 94.3 0.9 94.05 1.1 94.05 1.6 98.85 8.35 96.15 18.0 96.0 18.45 96.0 18.95 75.5 47.35 32.75 54.85 L15.95 57.05 Q-1.0 58.65 -17.15 62.05 -31.55 65.1 -42.3 72.0 -60.55 83.7 -79.85 94.1 -86.3 89.85 -91.3 84.25 L-91.55 83.5 Q-72.1 80.95 -58.9 72.05 -39.65 59.05 -13.65 51.9 0.75 47.9 19.8 47.35 L32.45 46.55 Q67.3 43.1 86.35 23.85 90.95 19.25 91.95 12.05 92.3 9.55 89.2 9.3 79.55 14.55 84.7 5.65 84.8 5.45 85.25 5.45 96.25 -3.0 97.0 -16.7 L97.0 -17.65 Q93.15 -23.2 85.55 -23.15 L87.0 -23.9 Q93.6 -27.25 97.95 -33.1 104.35 -49.15 84.3 -48.5 L83.3 -48.5 Q75.25 -54.9 85.4 -53.35 95.05 -51.85 99.9 -56.2 104.25 -65.35 99.55 -74.3 L98.95 -74.5 Q89.45 -82.5 70.65 -80.75 L70.6 -80.3 Q52.5 -81.2 36.35 -83.7 30.55 -84.6 24.95 -83.7 8.4 -80.95 -6.55 -80.3 -5.25 -81.4 0.9 -83.25 14.15 -87.3 31.5 -86.65 42.95 -86.2 42.3 -89.9 L42.1 -90.5 Q21.9 -101.45 -2.65 -91.85 -6.9 -89.75 -9.15 -85.85 -22.45 -63.2 -38.25 -43.25 -44.75 -35.1 -50.95 -26.4 -75.75 8.05 -115.95 27.6 L-115.95 28.55 -115.95 29.55 -116.45 29.5 Q-116.95 24.7 -116.95 19.9 M-115.95 27.6 Q-75.75 8.05 -50.95 -26.4 -44.75 -35.1 -38.25 -43.25 -22.45 -63.2 -9.15 -85.85 -6.9 -89.75 -2.65 -91.85 21.9 -101.45 42.1 -90.5 42.95 -86.2 31.5 -86.65 14.15 -87.3 0.9 -83.25 -5.25 -81.4 -6.55 -80.3 8.4 -80.95 24.95 -83.7 30.55 -84.6 36.35 -83.7 52.5 -81.2 70.6 -80.3 72.05 -79.25 73.55 -78.15 84.45 -64.7 71.6 -53.3 71.8 -50.7 72.1 -50.0 74.45 -43.65 83.3 -37.9 85.8 -27.05 82.05 -20.7 81.4 -19.55 80.45 -18.8 70.2 -11.05 81.35 -6.1 82.8 -4.15 81.95 -1.75 76.95 12.4 76.5 27.6 72.45 29.9 67.65 31.25 L40.45 38.55 Q18.75 44.15 4.2 42.05 L3.95 41.45 Q-10.2 32.65 -23.15 27.6 -23.65 27.6 -23.85 27.85 -54.2 61.75 -101.3 70.95 -101.4 70.55 -101.55 70.15 -112.65 53.7 -115.95 29.55 L-115.95 28.55 -115.95 27.6 M-101.3 70.95 Q-54.2 61.75 -23.85 27.85 -10.2 32.65 3.95 41.45 18.75 44.15 40.45 38.55 L67.65 31.25 Q72.45 29.9 76.5 27.6 76.95 12.4 81.95 -1.75 82.8 -4.15 81.35 -6.1 70.2 -11.05 80.45 -18.8 81.4 -19.55 82.05 -20.7 85.8 -27.05 83.3 -37.9 74.45 -43.65 72.1 -50.0 71.8 -50.7 71.6 -53.3 84.45 -64.7 73.55 -78.15 L72.35 -79.7 Q72.1 -80.3 70.6 -80.3 89.45 -82.5 98.95 -74.5 104.25 -65.35 99.9 -56.2 95.05 -51.85 85.4 -53.35 75.25 -54.9 83.3 -48.5 L84.3 -48.5 Q104.35 -49.15 97.95 -33.1 93.6 -27.25 87.0 -23.9 L85.55 -23.15 Q93.15 -23.2 97.0 -17.65 L97.0 -16.7 Q96.25 -3.0 85.25 5.45 84.8 5.45 84.7 5.65 79.55 14.55 89.2 9.3 92.3 9.55 91.95 12.05 90.95 19.25 86.35 23.85 67.3 43.1 32.45 46.55 L19.8 47.35 Q0.75 47.9 -13.65 51.9 -39.65 59.05 -58.9 72.05 -72.1 80.95 -91.55 83.5 L-92.25 83.25 Q-96.75 77.1 -101.3 70.95 Z;M-114.7 24.5 Q-80.0 8.7 -55.8 -17.5 -50.75 -23.05 -46.7 -29.5 -26.05 -62.85 -1.8 -92.75 -1.2 -93.5 0.15 -93.95 12.7 -97.7 25.3 -101.5 46.65 -101.35 54.1 -87.4 L54.3 -86.5 Q79.55 -86.25 100.35 -81.75 107.95 -80.15 112.3 -75.5 117.75 -60.55 110.55 -49.35 L110.3 -48.5 Q115.95 -31.95 106.55 -21.3 106.3 -21.0 106.3 -20.5 113.75 -5.0 101.55 4.8 101.3 5.0 101.3 5.5 106.2 12.5 103.45 22.55 103.3 23.0 103.3 23.5 82.3 53.0 38.55 60.8 L21.35 63.05 Q4.0 64.7 -12.55 68.25 -27.3 71.4 -38.3 78.6 -56.95 90.75 -76.7 101.5 -83.3 97.1 -88.45 91.3 L-88.7 90.5 Q-68.8 87.9 -55.3 78.65 -35.55 65.15 -8.95 57.7 5.8 53.55 25.3 53.0 L38.25 52.15 Q73.9 48.6 93.4 28.6 98.1 23.8 99.15 16.35 99.5 13.75 96.3 13.5 86.45 18.95 91.7 9.7 92.0 9.6 92.3 9.5 103.55 0.75 104.3 -13.5 L104.3 -14.5 Q100.35 -20.25 92.6 -20.2 L94.05 -20.95 Q100.85 -24.45 105.3 -30.5 111.85 -47.2 91.3 -46.5 L90.3 -46.5 Q82.05 -53.15 92.45 -51.55 102.3 -50.0 107.3 -54.5 111.75 -64.0 106.9 -73.3 L106.3 -73.5 Q96.6 -81.8 77.35 -80.0 L77.3 -79.5 Q58.75 -80.45 42.25 -83.05 36.3 -84.0 30.55 -83.05 13.6 -80.2 -1.7 -79.5 -0.35 -80.65 5.95 -82.6 19.5 -86.8 37.25 -86.1 49.0 -85.65 48.3 -89.5 L48.1 -90.1 Q27.45 -101.45 2.3 -91.5 -2.05 -89.35 -4.35 -85.3 -17.95 -61.75 -34.15 -41.05 -40.8 -32.6 -47.15 -23.55 -72.5 12.2 -113.7 32.5 L-113.7 33.5 -113.7 34.5 -114.2 34.45 Q-114.7 29.5 -114.7 24.5 M-113.7 32.5 Q-72.5 12.2 -47.15 -23.55 -40.8 -32.6 -34.15 -41.05 -17.95 -61.75 -4.35 -85.3 -2.05 -89.35 2.3 -91.5 27.45 -101.45 48.1 -90.1 49.0 -85.65 37.25 -86.1 19.5 -86.8 5.95 -82.6 -0.35 -80.65 -1.7 -79.5 13.6 -80.2 30.55 -83.05 36.3 -84.0 42.25 -83.05 58.75 -80.45 77.3 -79.5 79.35 -78.45 80.3 -77.3 91.45 -63.3 78.3 -51.5 78.5 -48.8 78.8 -48.05 81.25 -41.45 90.3 -35.5 92.85 -24.25 89.0 -17.65 88.35 -16.45 87.35 -15.7 76.9 -7.65 88.3 -2.5 89.75 -0.45 88.9 2.0 83.8 16.7 83.3 32.5 79.2 34.9 74.25 36.3 L46.4 43.85 Q24.2 49.65 9.3 47.5 L9.05 46.85 Q-5.4 37.75 -18.7 32.5 -19.05 32.6 -19.4 32.75 -50.45 67.95 -98.7 77.5 -98.7 77.0 -98.95 76.65 -110.3 59.6 -113.7 34.5 L-113.7 33.5 -113.7 32.5 M-98.7 77.5 Q-50.45 67.95 -19.4 32.75 -5.4 37.75 9.05 46.85 24.2 49.65 46.4 43.85 L74.25 36.3 Q79.2 34.9 83.3 32.5 83.8 16.7 88.9 2.0 89.75 -0.45 88.3 -2.5 76.9 -7.65 87.35 -15.7 88.35 -16.45 89.0 -17.65 92.85 -24.25 90.3 -35.5 81.25 -41.45 78.8 -48.05 78.5 -48.8 78.3 -51.5 91.45 -63.3 80.3 -77.3 L79.1 -78.9 Q78.8 -79.5 77.3 -79.5 96.6 -81.8 106.3 -73.5 111.75 -64.0 107.3 -54.5 102.3 -50.0 92.45 -51.55 82.05 -53.15 90.3 -46.5 L91.3 -46.5 Q111.85 -47.2 105.3 -30.5 100.85 -24.45 94.05 -20.95 L92.6 -20.2 Q100.35 -20.25 104.3 -14.5 L104.3 -13.5 Q103.55 0.75 92.3 9.5 92.0 9.6 91.7 9.7 86.45 18.95 96.3 13.5 99.5 13.75 99.15 16.35 98.1 23.8 93.4 28.6 73.9 48.6 38.25 52.15 L25.3 53.0 Q5.8 53.55 -8.95 57.7 -35.55 65.15 -55.3 78.65 -68.8 87.9 -88.7 90.5 L-89.4 90.25 Q-94.25 84.05 -98.7 77.5 Z"/>
    </path>
  </g>
</svg>
