<?xml version="1.0" encoding="UTF-8" standalone="no"?>
<svg xmlns:ffdec="https://www.free-decompiler.com/flash" xmlns:xlink="http://www.w3.org/1999/xlink" ffdec:objectType="shape" height="40.4px" width="23.7px" xmlns="http://www.w3.org/2000/svg">
  <g transform="matrix(1.0, 0.0, 0.0, 1.0, 11.85, 20.2)">
    <path d="M0.0 -15.95 Q0.8 -15.9 1.0 -14.85 L1.0 -12.2 Q0.85 -11.0 0.0 -11.1 -0.85 -11.0 -0.95 -12.2 L-0.95 -14.85 Q-0.8 -15.9 0.0 -15.95" fill="#666666" fill-rule="evenodd" stroke="none"/>
    <path d="M0.0 -19.7 L0.0 -15.95 Q-0.8 -15.9 -0.95 -14.85 L-0.95 -12.2 Q-0.85 -11.0 0.0 -11.1 L0.0 -8.2 -9.9 -8.2 -10.2 -13.05 Q-10.5 -17.65 -8.1 -18.65 -5.7 -19.7 0.0 -19.7" fill="#ff0000" fill-rule="evenodd" stroke="none"/>
    <path d="M0.0 -19.7 Q5.7 -19.7 8.1 -18.65 10.5 -17.65 10.2 -13.05 L9.95 -8.2 0.0 -8.2 9.95 -8.2 9.9 -5.9 Q9.9 -3.35 11.25 8.35 12.55 20.05 0.0 19.7 -12.55 20.05 -11.2 8.35 -9.9 -3.35 -9.9 -5.9 L-9.9 -8.2 0.0 -8.2 0.0 -11.1 Q0.85 -11.0 1.0 -12.2 L1.0 -14.85 Q0.8 -15.9 0.0 -15.95 L0.0 -19.7" fill="#f7fcdc" fill-rule="evenodd" stroke="none"/>
    <path d="M9.95 -8.2 L10.2 -13.05 Q10.5 -17.65 8.1 -18.65 5.7 -19.7 0.0 -19.7 L0.0 -15.95 Q0.8 -15.9 1.0 -14.85 L1.0 -12.2 Q0.85 -11.0 0.0 -11.1 L0.0 -8.2 M9.95 -8.2 L9.9 -5.9 Q9.9 -3.35 11.25 8.35 12.55 20.05 0.0 19.7 -12.55 20.05 -11.2 8.35 -9.9 -3.35 -9.9 -5.9 L-9.9 -8.2 -10.2 -13.05 Q-10.5 -17.65 -8.1 -18.65 -5.7 -19.7 0.0 -19.7 M0.0 -11.1 Q-0.85 -11.0 -0.95 -12.2 L-0.95 -14.85 Q-0.8 -15.9 0.0 -15.95" fill="none" stroke="#000000" stroke-linecap="round" stroke-linejoin="round" stroke-width="1.0"/>
    <path d="M0.0 -8.2 L9.95 -8.2 M-9.9 -8.2 L0.0 -8.2" fill="none" stroke="#000000" stroke-linecap="round" stroke-linejoin="round" stroke-width="1.0"/>
  </g>
</svg>
