<?xml version="1.0" encoding="UTF-8" standalone="no"?>
<svg xmlns:ffdec="https://www.free-decompiler.com/flash" xmlns:xlink="http://www.w3.org/1999/xlink" ffdec:objectType="shape" height="39.0px" width="174.2px" xmlns="http://www.w3.org/2000/svg">
  <g transform="matrix(1.0, 0.0, 0.0, 1.0, 87.1, 20.0)">
    <path d="M82.6 -19.5 L85.6 -13.5 86.6 18.5 82.6 8.5 82.6 -19.5" fill="#5a5e4f" fill-rule="evenodd" stroke="none"/>
    <path d="M82.6 8.5 L86.6 18.5 -86.6 18.5 -82.6 8.5 82.6 8.5" fill="#878a75" fill-rule="evenodd" stroke="none"/>
    <path d="M82.6 -19.5 L82.6 8.5 -82.6 8.5 -82.6 -19.5 82.6 -19.5" fill="#f9fad3" fill-rule="evenodd" stroke="none"/>
    <path d="M-86.6 18.5 L-85.6 -13.5 -82.6 -19.5 -82.6 8.5 -86.6 18.5" fill="#c9ccad" fill-rule="evenodd" stroke="none"/>
    <path d="M86.6 18.5 L85.6 -13.5 82.6 -19.5 -82.6 -19.5 -85.6 -13.5 -86.6 18.5 86.6 18.5" fill="none" stroke="#000000" stroke-linecap="round" stroke-linejoin="round" stroke-width="1.0"/>
    <path d="M82.6 -19.5 L82.6 8.5 86.6 18.5 M-82.6 8.5 L-86.6 18.5" fill="none" stroke="#000000" stroke-linecap="round" stroke-linejoin="round" stroke-opacity="0.5019608" stroke-width="1.0"/>
    <path d="M-82.6 -19.5 L-82.6 8.5 82.6 8.5" fill="none" stroke="#000000" stroke-linecap="round" stroke-linejoin="round" stroke-opacity="0.7529412" stroke-width="1.0"/>
  </g>
</svg>
