<?xml version="1.0" encoding="UTF-8" standalone="no"?>
<svg xmlns:ffdec="https://www.free-decompiler.com/flash" xmlns:xlink="http://www.w3.org/1999/xlink" ffdec:objectType="shape" height="5.9px" width="2.6px" xmlns="http://www.w3.org/2000/svg">
  <g transform="matrix(1.0, 0.0, 0.0, 1.0, 1.25, 3.45)">
    <path d="M0.95 1.45 L0.95 2.45 -0.95 2.45 -0.95 1.45 0.95 1.45" fill="#f9d044" fill-rule="evenodd" stroke="none"/>
    <path d="M0.25 -2.45 L0.3 -2.45 1.35 -3.15 0.95 -2.4 0.95 1.45 -0.95 1.45 -0.95 -2.45 -1.25 -3.2 -0.45 -2.45 -0.25 -3.45 0.25 -2.45" fill="#ad182f" fill-rule="evenodd" stroke="none"/>
    <path d="M1.35 -3.15 L0.95 -2.4 0.95 1.45 0.95 2.45 -0.95 2.45 M-1.25 -3.2 L-0.45 -2.45 M-0.25 -3.45 L0.25 -2.45" fill="none" stroke="#000000" stroke-linecap="round" stroke-linejoin="round" stroke-opacity="0.8" stroke-width="0.05"/>
    <path d="M0.25 -2.45 L0.3 -2.45 1.35 -3.15 M-0.95 2.45 L-0.95 1.45 -0.95 -2.45 -1.25 -3.2 M-0.45 -2.45 L-0.25 -3.45" fill="none" stroke="#000000" stroke-linecap="round" stroke-linejoin="round" stroke-opacity="0.5019608" stroke-width="0.05"/>
  </g>
</svg>
