<?xml version="1.0" encoding="UTF-8" standalone="no"?>
<svg xmlns:ffdec="https://www.free-decompiler.com/flash" xmlns:xlink="http://www.w3.org/1999/xlink" ffdec:objectType="shape" height="39.0px" width="88.0px" xmlns="http://www.w3.org/2000/svg">
  <g transform="matrix(1.0, 0.0, 0.0, 1.0, 35.0, 20.0)">
    <path d="M48.5 -19.5 L51.5 -13.5 52.5 18.5 48.5 8.5 48.5 -19.5" fill="#5a5e4f" fill-rule="evenodd" stroke="none"/>
    <path d="M48.5 8.5 L52.5 18.5 -34.5 18.5 -30.5 8.5 48.5 8.5" fill="#878a75" fill-rule="evenodd" stroke="none"/>
    <path d="M48.5 -19.5 L48.5 8.5 -30.5 8.5 -30.5 -19.5 48.5 -19.5" fill="#f9fad3" fill-rule="evenodd" stroke="none"/>
    <path d="M-34.5 18.5 L-33.5 -13.5 -30.5 -19.5 -30.5 8.5 -34.5 18.5" fill="#c9ccad" fill-rule="evenodd" stroke="none"/>
    <path d="M52.5 18.5 L51.5 -13.5 48.5 -19.5 -30.5 -19.5 -33.5 -13.5 -34.5 18.5 52.5 18.5" fill="none" stroke="#000000" stroke-linecap="round" stroke-linejoin="round" stroke-width="1.0"/>
    <path d="M48.5 -19.5 L48.5 8.5 52.5 18.5 M-30.5 8.5 L-34.5 18.5" fill="none" stroke="#000000" stroke-linecap="round" stroke-linejoin="round" stroke-opacity="0.5019608" stroke-width="1.0"/>
    <path d="M-30.5 -19.5 L-30.5 8.5 48.5 8.5" fill="none" stroke="#000000" stroke-linecap="round" stroke-linejoin="round" stroke-opacity="0.7529412" stroke-width="1.0"/>
  </g>
</svg>
