<?xml version="1.0" encoding="UTF-8" standalone="no"?>
<svg xmlns:ffdec="https://www.free-decompiler.com/flash" xmlns:xlink="http://www.w3.org/1999/xlink" ffdec:objectType="shape" height="67.95px" width="52.35px" xmlns="http://www.w3.org/2000/svg">
  <g transform="matrix(1.0, 0.0, 0.0, 1.0, 32.25, 20.0)">
    <path d="M15.6 -19.5 L18.6 -13.5 19.6 46.5 15.6 36.5 15.6 -19.5" fill="#5a5e4f" fill-rule="evenodd" stroke="none"/>
    <path d="M15.6 36.5 L19.6 46.5 Q-6.05 48.45 -31.75 46.5 L-27.75 36.5 Q-5.8 37.9 15.6 36.5" fill="#878a75" fill-rule="evenodd" stroke="none"/>
    <path d="M15.6 -19.5 L15.6 36.5 Q-5.8 37.9 -27.75 36.5 L-27.75 8.3 -18.6 8.3 -15.6 8.3 -15.6 -19.5 Q0.0 -18.1 15.6 -19.5 M4.2 10.35 L4.2 15.1 4.2 10.35" fill="#f9fad3" fill-rule="evenodd" stroke="none"/>
    <path d="M-31.75 46.5 L-30.75 14.3 -27.75 8.3 -27.75 36.5 -31.75 46.5 M-18.6 8.3 L-18.6 -13.5 -15.6 -19.5 -15.6 8.3 -18.6 8.3" fill="#c9ccad" fill-rule="evenodd" stroke="none"/>
    <path d="M-15.6 -19.5 Q0.0 -18.1 15.6 -19.5 M4.2 15.1 L4.2 10.35" fill="none" stroke="#000000" stroke-linecap="round" stroke-linejoin="round" stroke-width="1.0"/>
    <path d="M15.6 36.5 L19.6 46.5 M-27.75 36.5 L-31.75 46.5" fill="none" stroke="#000000" stroke-linecap="round" stroke-linejoin="round" stroke-opacity="0.5019608" stroke-width="1.0"/>
    <path d="M-15.6 8.3 L-15.6 -19.5" fill="none" stroke="#000000" stroke-linecap="round" stroke-linejoin="round" stroke-opacity="0.7529412" stroke-width="1.0"/>
    <path d="M19.6 46.5 L18.6 -13.5 15.6 -19.5 M19.6 46.5 Q-6.05 48.45 -31.75 46.5 L-30.75 14.3 -27.75 8.3 -18.6 8.3 -18.6 -13.5 -15.6 -19.5 M-18.6 8.3 L-15.6 8.3" fill="none" stroke="#000000" stroke-linecap="round" stroke-linejoin="round" stroke-width="1.0"/>
    <path d="M-27.75 36.5 L-27.75 8.3 M15.6 36.5 Q-5.8 37.9 -27.75 36.5" fill="none" stroke="#000000" stroke-linecap="round" stroke-linejoin="round" stroke-opacity="0.7529412" stroke-width="1.0"/>
    <path d="M15.6 -19.5 L15.6 36.5" fill="none" stroke="#000000" stroke-linecap="round" stroke-linejoin="round" stroke-opacity="0.5019608" stroke-width="1.0"/>
  </g>
</svg>
