<?xml version="1.0" encoding="UTF-8" standalone="no"?>
<svg xmlns:ffdec="https://www.free-decompiler.com/flash" xmlns:xlink="http://www.w3.org/1999/xlink" ffdec:objectType="shape" height="12.5px" width="22.35px" xmlns="http://www.w3.org/2000/svg">
  <g transform="matrix(1.0, 0.0, 0.0, 1.0, 8.85, 23.2)">
    <path d="M12.7 -16.5 L10.65 -14.25 11.2 -13.95 11.2 -13.9 11.15 -13.8 11.0 -13.65 10.9 -13.6 10.1 -13.6 10.0 -13.5 9.3 -12.45 8.45 -11.0 Q8.2 -10.6 7.8 -10.75 7.65 -10.85 7.65 -11.05 L7.7 -11.15 7.75 -11.25 6.7 -11.35 6.75 -11.65 6.85 -11.7 Q7.9 -12.35 8.8 -13.1 L9.1 -13.6 Q6.6 -13.45 4.2 -12.6 L4.05 -12.55 3.9 -12.25 3.85 -12.2 Q3.55 -12.1 3.45 -12.45 L3.55 -13.65 3.35 -12.95 2.85 -13.0 Q3.7 -18.15 4.85 -23.2 L4.9 -23.2 Q5.3 -22.1 5.05 -20.6 L3.95 -15.35 Q4.4 -14.3 4.2 -13.1 5.25 -13.7 6.75 -14.0 L9.0 -14.3 9.75 -14.4 11.15 -15.95 11.25 -15.8 11.65 -16.45 12.95 -18.15 13.4 -18.3 Q13.75 -17.55 12.7 -16.5 M1.75 -17.7 Q2.2 -16.35 1.7 -14.65 L1.7 -14.5 1.7 -14.4 1.5 -13.45 1.4 -13.05 1.25 -13.0 1.05 -12.9 0.8 -12.7 0.65 -12.6 Q0.3 -12.6 0.1 -12.8 -0.3 -12.95 -0.55 -13.3 L-0.85 -13.2 -0.9 -13.1 -0.95 -13.0 Q-1.3 -12.85 -1.4 -13.2 L-1.4 -14.0 -2.6 -14.65 Q-2.55 -13.95 -3.0 -13.2 L-3.05 -12.95 -3.05 -12.6 -3.25 -12.3 -3.3 -12.25 Q-3.75 -11.95 -4.2 -12.0 L-4.3 -12.2 -4.4 -12.4 -4.65 -12.35 -4.6 -12.1 -4.65 -11.95 Q-4.85 -11.75 -5.1 -11.95 L-5.35 -11.85 -5.55 -11.9 -8.85 -17.55 -8.75 -17.55 Q-6.9 -15.9 -5.8 -13.7 L-5.9 -14.7 -5.85 -14.7 -5.7 -14.65 -5.55 -14.55 -4.85 -13.05 -4.4 -13.2 -4.4 -13.7 -4.3 -13.9 -3.85 -15.1 -6.8 -15.6 -6.8 -15.7 -6.5 -16.05 -6.35 -16.05 -3.6 -15.75 -3.4 -16.2 -3.25 -16.3 -3.1 -16.25 -3.0 -16.15 -2.9 -15.95 -2.8 -15.8 -2.9 -15.5 Q-2.05 -15.2 -1.25 -14.6 L-1.1 -14.95 Q-1.15 -18.15 -0.4 -21.2 L-0.35 -21.2 Q0.1 -20.0 -0.15 -18.35 L-0.45 -15.2 0.0 -14.75 0.05 -14.75 Q0.55 -14.85 0.85 -14.4 L1.0 -14.6 Q1.15 -16.2 1.65 -17.65 L1.75 -17.7 M-3.4 -14.1 L-3.1 -14.85 -3.25 -14.9 -3.4 -14.45 -3.45 -14.2 -3.4 -14.1 M-0.5 -14.0 L-0.45 -14.05 -0.5 -14.15 -0.5 -14.0" fill="#cc0000" fill-rule="evenodd" stroke="none"/>
  </g>
</svg>
