<?xml version="1.0" encoding="UTF-8" standalone="no"?>
<svg xmlns:ffdec="https://www.free-decompiler.com/flash" xmlns:xlink="http://www.w3.org/1999/xlink" ffdec:objectType="shape" height="17.4px" width="28.6px" xmlns="http://www.w3.org/2000/svg">
  <g transform="matrix(1.0, 0.0, 0.0, 1.0, 11.55, 30.05)">
    <path d="M8.1 -27.85 L8.0 -27.75 Q6.5 -25.7 5.5 -23.45 L5.4 -23.25 Q5.05 -23.1 4.95 -23.45 L5.85 -25.6 Q5.6 -25.55 5.45 -25.85 6.1 -27.8 6.15 -29.95 L6.25 -30.05 Q6.9 -28.4 6.4 -26.55 L7.35 -27.9 7.45 -28.05 8.25 -29.2 Q8.85 -28.6 8.1 -27.85 M16.2 -19.7 Q14.95 -18.9 14.1 -17.7 13.2 -16.4 11.95 -15.9 L11.85 -16.2 11.85 -16.3 12.2 -16.7 12.15 -16.7 Q11.8 -16.75 11.85 -17.05 14.3 -19.8 14.9 -23.5 L15.0 -23.55 Q15.6 -21.95 14.7 -20.05 L14.05 -18.75 16.9 -21.2 Q17.4 -20.5 16.2 -19.7 M10.6 -15.2 L10.6 -15.3 11.5 -16.2 Q12.05 -15.75 11.3 -15.1 L11.2 -15.05 11.1 -14.7 Q13.95 -14.3 16.7 -13.3 17.05 -13.15 17.0 -12.8 L17.0 -12.75 16.85 -12.65 16.55 -12.65 Q13.65 -13.9 10.45 -14.1 L10.05 -14.0 9.95 -14.1 9.4 -14.15 Q8.5 -14.15 8.2 -14.7 L8.2 -14.75 8.4 -14.9 8.5 -14.95 10.4 -14.8 10.6 -15.2 M4.7 -22.8 Q4.85 -23.05 5.1 -23.05 5.55 -21.6 4.7 -19.95 L4.6 -19.85 Q4.2 -19.85 4.2 -20.2 L4.35 -20.5 4.4 -20.55 4.7 -22.65 4.7 -22.8 M2.2 -19.55 L2.25 -17.6 2.15 -17.3 1.85 -17.15 1.55 -17.15 1.5 -17.25 1.45 -17.45 1.45 -17.55 Q1.8 -18.2 1.6 -19.0 L1.45 -19.15 Q1.2 -19.4 1.45 -19.6 L1.65 -19.7 2.05 -19.65 2.2 -19.55 M4.25 -16.95 Q4.85 -15.4 3.75 -13.75 L3.65 -13.7 Q3.3 -13.75 3.35 -14.05 L4.15 -16.9 4.25 -16.95 M1.7 -14.95 Q1.6 -14.75 1.45 -14.8 L0.85 -14.8 0.9 -14.7 0.95 -14.3 Q0.9 -14.15 0.75 -14.15 -0.2 -14.2 -0.75 -15.05 -1.0 -15.35 -0.9 -15.75 L-0.85 -15.85 -0.65 -16.0 -0.5 -16.05 Q0.85 -16.1 1.7 -15.0 L1.7 -14.95 M-0.25 -26.55 Q0.5 -23.7 -0.05 -20.5 L-0.1 -20.4 Q-0.45 -20.25 -0.55 -20.6 L-0.4 -26.4 -0.25 -26.55 M-6.95 -15.85 L-7.35 -15.2 Q-7.45 -14.75 -7.75 -14.45 L-7.85 -14.45 -8.1 -14.6 -8.15 -14.7 -8.15 -15.2 Q-7.85 -16.2 -6.85 -16.6 -7.45 -18.05 -7.0 -19.2 -6.3 -18.1 -6.3 -16.7 L-3.95 -16.55 -3.65 -17.5 -4.15 -18.25 -4.0 -18.3 -3.45 -17.95 -3.0 -18.7 Q-2.75 -18.05 -2.85 -17.35 -2.5 -16.75 -2.65 -16.0 L-2.55 -15.95 -2.55 -15.9 -2.6 -15.8 -2.65 -15.7 -2.75 -15.65 -2.85 -15.6 -3.35 -15.75 -3.5 -15.2 -3.6 -15.0 Q-3.95 -14.85 -4.05 -15.2 L-4.0 -15.9 -6.8 -15.95 -6.95 -15.85 M-8.1 -16.5 Q-9.6 -18.65 -11.55 -20.2 L-11.55 -20.3 -11.35 -20.55 -11.25 -20.55 Q-8.85 -19.1 -7.65 -16.65 L-7.65 -16.55 Q-7.75 -16.45 -7.9 -16.45 L-8.1 -16.5" fill="#cc0000" fill-rule="evenodd" stroke="none"/>
  </g>
</svg>
