<?xml version="1.0" encoding="UTF-8" standalone="no"?>
<svg xmlns:ffdec="https://www.free-decompiler.com/flash" xmlns:xlink="http://www.w3.org/1999/xlink" ffdec:objectType="shape" height="22.85px" width="37.3px" xmlns="http://www.w3.org/2000/svg">
  <g transform="matrix(1.0, 0.0, 0.0, 1.0, 14.95, 34.8)">
    <path d="M7.15 -34.65 L7.25 -34.55 7.35 -31.2 7.25 -31.0 6.8 -31.1 6.8 -31.2 6.75 -34.75 6.85 -34.8 7.15 -34.65 M5.6 -25.55 Q5.9 -24.75 4.85 -23.75 L4.75 -23.7 Q4.4 -23.75 4.45 -24.15 4.7 -24.95 5.5 -25.5 L5.6 -25.55 M8.35 -29.75 L8.35 -30.0 8.45 -30.15 Q10.45 -32.1 12.75 -33.55 13.2 -32.9 12.05 -32.1 L8.55 -29.7 8.35 -29.75 M17.05 -26.15 L16.05 -24.25 Q15.7 -24.1 15.6 -24.45 16.05 -26.55 17.4 -28.05 17.75 -27.3 17.05 -26.15 M18.15 -21.7 Q19.9 -23.4 22.25 -23.95 22.75 -23.2 21.1 -22.7 19.9 -22.4 19.0 -21.5 18.65 -21.15 18.2 -21.15 18.0 -21.35 18.1 -21.65 L18.15 -21.7 M13.0 -18.3 L13.45 -17.95 13.45 -17.9 13.25 -17.75 13.1 -17.65 12.75 -16.9 12.6 -16.65 12.15 -16.75 12.1 -16.85 Q12.15 -17.7 12.85 -18.2 L13.0 -18.3 M15.6 -15.35 L15.6 -15.45 15.75 -15.65 15.9 -15.7 Q19.1 -14.7 20.5 -12.0 L20.45 -11.95 Q19.45 -12.4 18.35 -13.45 17.15 -14.6 15.6 -15.35 M1.85 -20.8 L1.8 -21.0 Q1.1 -21.5 1.75 -21.8 2.15 -21.75 2.35 -21.4 L2.45 -21.3 2.55 -20.45 2.4 -20.15 Q2.05 -20.0 1.95 -20.35 L1.85 -20.8 M4.5 -17.7 Q4.95 -16.9 4.0 -16.0 L3.9 -15.95 Q3.55 -16.0 3.6 -16.3 L4.4 -17.65 4.5 -17.7 M2.05 -16.5 L2.05 -16.45 Q1.4 -15.65 0.3 -15.95 0.1 -15.6 -0.25 -15.7 L-0.55 -15.85 -0.6 -16.15 -0.45 -16.5 -0.35 -16.7 -0.05 -16.9 0.05 -16.95 0.15 -16.95 Q1.3 -17.15 2.05 -16.5 M-0.55 -31.8 L-0.5 -31.8 Q0.5 -29.55 0.0 -26.9 L-0.05 -26.9 Q-0.35 -26.8 -0.45 -27.1 L-0.55 -31.8 M-0.4 -24.05 Q0.3 -23.15 -0.05 -21.85 L-0.1 -21.75 Q-0.45 -21.6 -0.55 -21.95 -0.85 -23.25 -0.4 -24.05 M-2.55 -21.55 L-2.5 -20.7 Q-2.45 -20.1 -2.7 -19.65 L-2.85 -19.6 Q-3.2 -19.55 -3.3 -19.85 L-3.3 -19.95 -3.25 -20.0 -3.35 -19.95 -3.5 -19.85 Q-3.95 -20.0 -3.8 -20.45 L-3.8 -20.55 -3.65 -20.65 -4.4 -21.1 -4.65 -21.55 -4.65 -21.65 -4.1 -22.05 Q-3.2 -22.25 -2.65 -21.6 L-2.55 -21.55 M-3.55 -21.35 L-3.55 -21.4 -3.65 -21.4 -3.55 -21.35 M-6.25 -23.05 Q-5.8 -22.2 -6.8 -21.1 L-7.3 -20.75 Q-7.4 -20.65 -7.6 -20.65 L-7.75 -20.95 -7.7 -21.05 Q-7.25 -22.25 -6.25 -23.05 M-8.5 -16.9 L-8.45 -16.8 -8.45 -16.7 -8.65 -16.45 Q-9.75 -16.55 -10.6 -15.95 -10.9 -15.7 -11.3 -15.65 L-11.4 -15.45 -11.65 -14.75 -11.85 -14.5 -12.0 -14.45 -12.3 -14.7 -12.25 -15.3 -11.9 -15.95 -11.65 -16.2 -10.5 -16.8 -9.75 -17.05 -8.5 -16.9 M-11.45 -21.2 L-11.45 -21.15 Q-13.2 -21.5 -14.95 -22.4 L-14.95 -22.5 Q-14.85 -22.7 -14.65 -22.7 -12.75 -22.5 -11.45 -21.2" fill="#cc0000" fill-rule="evenodd" stroke="none"/>
  </g>
</svg>
