<?xml version="1.0" encoding="UTF-8" standalone="no"?>
<svg xmlns:ffdec="https://www.free-decompiler.com/flash" xmlns:xlink="http://www.w3.org/1999/xlink" ffdec:objectType="shape" height="28.25px" width="44.75px" xmlns="http://www.w3.org/2000/svg">
  <g transform="matrix(1.0, 0.0, 0.0, 1.0, 17.55, 39.7)">
    <path d="M7.3 -39.4 L7.35 -39.3 7.9 -38.05 8.05 -37.9 8.15 -37.15 8.1 -36.85 Q7.85 -36.55 7.55 -36.85 L7.4 -37.3 7.45 -37.6 7.3 -37.8 7.2 -37.9 Q6.45 -39.0 6.75 -39.7 L7.3 -39.4 M6.4 -27.2 L6.35 -27.15 Q5.55 -26.4 4.8 -26.85 L4.8 -27.0 4.95 -27.2 5.85 -27.55 Q6.3 -27.65 6.4 -27.2 M15.4 -36.45 Q15.8 -36.5 15.85 -36.1 L15.85 -36.05 12.65 -33.9 12.55 -33.85 Q12.1 -33.8 12.1 -34.2 13.55 -35.45 15.25 -36.4 L15.4 -36.45 M19.95 -30.2 L19.95 -30.15 17.75 -28.75 17.65 -28.7 17.35 -28.95 17.35 -29.15 Q18.2 -30.05 19.4 -30.55 19.85 -30.65 19.95 -30.2 M13.5 -18.9 L13.3 -18.9 Q13.15 -19.0 13.15 -19.2 L13.2 -19.3 14.0 -19.7 Q14.65 -19.05 13.5 -18.9 M2.7 -22.2 L2.5 -22.1 Q1.85 -22.1 1.45 -22.45 L1.45 -22.55 1.5 -22.8 1.75 -22.95 Q2.35 -22.9 2.8 -22.45 L2.8 -22.4 2.7 -22.2 M0.05 -24.05 L-0.55 -24.0 -0.55 -24.3 -0.45 -24.45 Q-0.7 -24.95 -0.35 -25.25 L-0.25 -25.3 Q0.35 -24.9 0.1 -24.15 L0.05 -24.05 M4.05 -17.75 L4.25 -17.8 4.9 -17.65 4.95 -17.55 4.95 -17.45 4.75 -17.2 3.75 -17.3 3.7 -17.35 3.7 -17.45 3.85 -17.7 4.05 -17.75 M1.4 -17.95 Q1.95 -17.5 1.3 -16.85 L1.2 -16.8 Q0.25 -16.2 -0.15 -16.95 0.1 -17.6 1.0 -17.65 L1.4 -17.95 M27.0 -24.2 Q25.1 -23.85 23.6 -24.2 L23.6 -24.3 23.95 -24.65 25.75 -24.8 27.15 -24.65 27.2 -24.55 27.2 -24.45 27.0 -24.2 M23.0 -15.95 Q24.1 -15.5 24.7 -14.5 L24.7 -14.4 24.6 -14.25 24.5 -14.15 24.4 -14.1 Q23.3 -14.85 22.85 -15.9 L23.0 -15.95 M25.0 -14.3 L25.1 -14.2 Q25.7 -12.95 25.15 -11.7 L25.05 -11.5 Q24.7 -11.35 24.6 -11.7 L24.75 -12.45 24.85 -12.65 Q24.35 -13.75 24.75 -14.45 L25.0 -14.3 M-6.35 -25.35 L-6.4 -25.3 -7.7 -24.5 -7.75 -24.6 -7.8 -24.9 -7.15 -25.6 -6.9 -25.7 Q-6.45 -25.8 -6.35 -25.35 M-0.15 -35.55 Q0.55 -34.35 -0.3 -33.0 L-0.4 -32.95 Q-1.0 -34.25 -0.15 -35.55 M-3.25 -23.55 L-3.1 -23.5 -2.8 -23.1 -2.7 -22.95 -2.65 -22.4 -2.85 -22.0 -3.3 -22.1 -3.3 -22.2 -3.3 -22.4 -3.3 -22.6 -3.75 -22.65 -4.4 -22.85 Q-4.2 -23.45 -3.5 -23.55 L-3.25 -23.55 M-15.15 -22.95 L-17.55 -23.35 -17.55 -23.45 -17.15 -23.8 -17.0 -23.8 Q-15.8 -23.95 -14.85 -23.3 L-14.85 -23.2 -14.9 -23.15 -15.05 -23.0 -15.15 -22.95 M-16.05 -16.5 L-15.1 -17.4 -15.0 -17.45 Q-14.6 -17.5 -14.55 -17.1 L-14.55 -17.05 -15.4 -16.3 Q-15.7 -15.5 -15.25 -14.75 -15.1 -14.5 -15.25 -14.2 -15.35 -14.1 -15.5 -14.1 L-15.7 -14.15 Q-16.4 -14.95 -16.1 -16.05 L-16.05 -16.5" fill="#cc0000" fill-rule="evenodd" stroke="none"/>
  </g>
</svg>
