<?xml version="1.0" encoding="UTF-8" standalone="no"?>
<svg xmlns:ffdec="https://www.free-decompiler.com/flash" xmlns:xlink="http://www.w3.org/1999/xlink" ffdec:objectType="shape" height="32.3px" width="51.55px" xmlns="http://www.w3.org/2000/svg">
  <g transform="matrix(1.0, 0.0, 0.0, 1.0, 19.75, 43.45)">
    <path d="M20.7 -31.95 L20.5 -31.7 19.3 -31.5 19.25 -31.6 19.2 -31.9 Q19.5 -32.2 20.0 -32.3 L20.65 -32.15 20.7 -32.05 20.7 -31.95 M29.65 -25.15 L29.75 -25.2 Q30.9 -25.3 31.8 -24.7 L31.8 -24.65 31.75 -24.55 31.6 -24.4 31.5 -24.35 Q30.2 -24.35 29.45 -24.95 L29.45 -25.0 29.65 -25.15 M15.05 -37.65 Q15.45 -36.95 14.0 -36.35 L13.9 -36.3 Q13.55 -36.35 13.6 -36.65 13.95 -37.3 14.75 -37.55 L15.05 -37.65 M17.25 -39.15 L17.4 -39.15 18.05 -39.0 18.1 -38.9 18.1 -38.8 17.9 -38.55 16.45 -38.3 16.35 -38.35 16.4 -38.6 16.7 -39.0 17.25 -39.15 M6.85 -43.45 Q8.1 -43.2 8.4 -41.95 L8.4 -41.85 8.1 -41.65 7.9 -41.65 Q7.4 -42.6 6.55 -43.15 L6.55 -43.2 6.65 -43.4 6.85 -43.45 M0.05 -36.45 L-0.45 -36.5 Q-0.6 -37.6 -0.35 -38.4 L-0.25 -38.45 -0.1 -38.4 0.05 -38.3 0.1 -36.65 0.05 -36.45 M6.3 -28.2 L6.3 -28.1 Q5.7 -27.65 5.3 -28.1 5.45 -28.65 6.1 -28.7 6.55 -28.55 6.3 -28.2 M0.1 -25.4 L0.0 -25.35 Q-0.35 -25.4 -0.3 -25.8 L0.1 -26.05 Q0.65 -25.75 0.1 -25.4 M18.25 -31.15 L18.05 -31.15 Q17.9 -31.25 17.9 -31.45 L17.95 -31.55 18.75 -32.05 Q19.4 -31.45 18.25 -31.15 M14.5 -20.8 Q15.1 -20.8 14.85 -20.3 L14.75 -20.2 Q13.8 -20.3 14.5 -20.8 M2.7 -23.9 Q2.7 -23.7 2.5 -23.65 L2.4 -23.6 2.2 -23.55 2.2 -23.45 1.9 -23.1 Q1.45 -23.3 1.55 -23.9 1.65 -24.2 1.9 -24.2 L2.65 -24.05 2.7 -23.95 2.7 -23.9 M4.65 -17.9 L4.6 -17.8 Q4.0 -17.45 3.85 -18.05 L3.95 -18.2 4.15 -18.3 Q4.75 -18.4 4.65 -17.9 M0.65 -18.3 L1.25 -18.05 1.3 -17.95 1.25 -17.65 1.05 -17.4 Q0.35 -17.1 0.2 -17.7 L0.5 -18.25 0.65 -18.3 M30.4 -15.25 L30.3 -14.15 30.25 -14.15 Q30.05 -14.05 29.9 -14.25 L29.85 -14.35 29.65 -15.45 Q29.05 -16.15 29.4 -16.7 L29.45 -16.65 29.45 -16.7 29.5 -16.7 29.75 -16.5 30.45 -15.45 30.45 -15.35 30.4 -15.25 M28.0 -13.7 Q28.55 -12.3 27.2 -11.15 L27.05 -11.15 Q26.9 -11.25 26.9 -11.45 L26.95 -11.55 27.0 -11.6 27.15 -11.7 Q27.3 -12.8 27.9 -13.65 L28.0 -13.7 M-6.4 -27.9 L-6.35 -27.8 -6.35 -27.7 -6.55 -27.45 Q-7.45 -27.1 -7.95 -27.6 L-7.95 -27.7 -7.5 -28.05 -6.4 -27.9 M-4.15 -23.8 L-3.0 -24.3 Q-2.6 -24.15 -2.7 -23.7 L-2.75 -23.6 -3.3 -23.5 -4.05 -23.4 -4.15 -23.7 -4.15 -23.8 M-17.8 -23.7 L-19.25 -23.55 -19.3 -23.6 Q-19.05 -24.2 -18.25 -24.3 L-17.65 -24.15 -17.6 -24.05 -17.6 -23.95 -17.8 -23.7 M-19.3 -15.55 L-19.3 -15.45 -17.8 -14.15 Q-17.8 -13.95 -18.0 -13.9 L-18.1 -13.85 Q-20.25 -14.6 -19.6 -16.05 -19.2 -15.95 -19.3 -15.55" fill="#cc0000" fill-rule="evenodd" stroke="none"/>
  </g>
</svg>
