<?xml version="1.0" encoding="UTF-8" standalone="no"?>
<svg xmlns:ffdec="https://www.free-decompiler.com/flash" xmlns:xlink="http://www.w3.org/1999/xlink" ffdec:objectType="shape" height="33.85px" width="57.65px" xmlns="http://www.w3.org/2000/svg">
  <g transform="matrix(1.0, 0.0, 0.0, 1.0, 22.9, 45.2)">
    <path d="M21.9 -33.4 L21.85 -33.3 20.85 -33.35 20.85 -33.5 21.0 -33.7 21.35 -33.8 21.5 -33.8 Q22.0 -33.85 21.9 -33.4 M34.55 -25.2 L34.55 -25.1 34.25 -24.9 34.0 -24.9 33.4 -25.4 33.35 -25.55 33.5 -25.7 33.65 -25.8 34.55 -25.2 M20.15 -40.55 L20.15 -40.45 20.05 -40.3 19.85 -40.2 Q19.15 -40.15 18.95 -40.7 L19.05 -40.85 19.25 -40.95 Q19.8 -40.95 20.15 -40.55 M15.8 -39.75 L15.7 -40.05 15.7 -40.15 Q16.1 -40.45 16.6 -40.55 17.25 -39.85 16.0 -39.75 L15.8 -39.75 M8.4 -44.8 L8.4 -44.7 8.2 -44.5 8.1 -44.45 Q7.15 -44.25 6.95 -44.95 L7.25 -45.2 Q7.95 -45.2 8.4 -44.8 M2.15 -24.95 Q2.55 -24.85 2.45 -24.45 L2.45 -24.35 Q2.25 -23.85 1.8 -24.0 1.65 -24.1 1.65 -24.3 L1.7 -24.4 2.05 -24.9 2.15 -24.95 M6.85 -29.15 L6.8 -29.05 Q6.2 -28.7 6.05 -29.3 L6.15 -29.45 6.35 -29.55 Q6.95 -29.65 6.85 -29.15 M0.4 -26.25 L0.3 -26.15 Q-0.1 -26.0 -0.2 -26.35 L0.25 -26.95 Q0.8 -26.7 0.4 -26.25 M19.0 -34.05 Q19.65 -33.4 18.5 -33.15 L18.3 -33.15 Q18.15 -33.25 18.15 -33.45 L18.2 -33.55 19.0 -34.05 M15.15 -21.45 Q15.8 -21.3 15.35 -20.9 L15.25 -20.85 Q14.5 -21.1 15.15 -21.45 M4.4 -18.8 L4.8 -18.45 4.8 -18.4 4.1 -18.35 Q4.0 -18.65 4.3 -18.75 L4.4 -18.8 M0.3 -18.85 L0.5 -18.95 Q1.1 -19.05 1.0 -18.55 L0.95 -18.45 Q0.35 -18.1 0.2 -18.7 L0.3 -18.85 M34.4 -16.55 Q35.0 -15.8 34.55 -14.75 L34.5 -14.7 Q34.2 -14.6 34.1 -14.95 33.95 -15.85 34.3 -16.5 L34.4 -16.55 M29.35 -11.7 Q29.75 -12.35 30.5 -12.7 31.05 -11.95 29.75 -11.4 L29.65 -11.35 Q29.3 -11.4 29.35 -11.7 M-0.7 -39.55 L-0.15 -40.55 Q0.3 -40.1 0.1 -39.65 0.3 -39.3 -0.45 -39.0 L-0.6 -39.0 -0.75 -39.3 -0.7 -39.4 -0.7 -39.55 M-7.0 -30.2 L-6.85 -30.15 -6.45 -29.8 -6.4 -29.4 -6.5 -29.25 -6.85 -29.25 -6.95 -29.35 -7.15 -29.55 Q-7.45 -29.55 -7.65 -29.8 L-7.7 -29.95 -7.7 -30.0 -7.4 -30.2 -7.0 -30.2 M-20.5 -24.05 L-20.45 -24.15 Q-20.15 -24.55 -19.65 -24.7 -19.2 -24.55 -19.45 -24.2 L-19.45 -24.1 Q-19.85 -23.7 -20.35 -23.75 L-20.5 -24.05 M-21.45 -14.2 L-21.45 -14.15 -21.55 -13.95 -21.75 -13.85 Q-22.6 -13.95 -22.9 -14.65 L-22.8 -14.9 -22.6 -14.95 -21.45 -14.2 M-2.3 -24.3 L-2.4 -24.05 -2.55 -23.95 Q-3.2 -23.65 -3.8 -24.1 L-3.85 -24.65 -3.6 -24.95 -2.35 -24.35 -2.3 -24.3" fill="#cc0000" fill-rule="evenodd" stroke="none"/>
  </g>
</svg>
