<?xml version="1.0" encoding="UTF-8" standalone="no"?>
<svg xmlns:ffdec="https://www.free-decompiler.com/flash" xmlns:xlink="http://www.w3.org/1999/xlink" ffdec:objectType="shape" height="35.5px" width="62.6px" xmlns="http://www.w3.org/2000/svg">
  <g transform="matrix(1.0, 0.0, 0.0, 1.0, 25.15, 47.05)">
    <path d="M21.4 -42.05 L21.3 -42.1 Q21.2 -42.4 21.45 -42.5 L21.6 -42.55 Q22.25 -42.05 21.4 -42.05 M22.85 -34.4 L22.75 -34.35 Q22.0 -34.6 22.65 -34.95 23.3 -34.8 22.85 -34.4 M36.45 -25.7 L36.45 -25.6 Q36.3 -25.25 35.95 -25.4 35.4 -26.0 36.0 -26.3 L36.45 -25.7 M17.75 -41.95 Q18.4 -41.55 17.55 -41.25 L17.4 -41.25 Q17.25 -41.35 17.25 -41.55 L17.3 -41.65 Q17.5 -41.9 17.75 -41.95 M0.1 -41.95 Q0.7 -41.4 -0.3 -41.0 L-0.45 -41.0 -0.55 -41.3 -0.55 -41.4 0.0 -41.9 0.1 -41.95 M8.1 -46.65 L8.05 -46.55 Q7.75 -46.25 7.35 -46.2 6.95 -46.25 7.05 -46.65 7.35 -46.95 7.75 -47.05 8.2 -47.05 8.1 -46.65 M7.3 -29.55 L7.3 -29.45 Q7.15 -29.1 6.8 -29.25 6.25 -29.7 6.85 -29.95 L7.3 -29.55 M0.15 -26.7 L0.05 -26.75 Q-0.05 -27.05 0.2 -27.2 L0.35 -27.2 Q1.0 -26.7 0.15 -26.7 M18.6 -35.5 L18.75 -35.55 Q19.4 -35.05 18.55 -35.05 L18.45 -35.1 Q18.35 -35.4 18.6 -35.5 M15.3 -21.05 L15.2 -21.1 Q15.1 -21.4 15.35 -21.5 L15.5 -21.55 Q16.15 -21.05 15.3 -21.05 M4.35 -19.0 L4.5 -19.05 Q5.15 -18.55 4.3 -18.55 L4.2 -18.6 Q4.1 -18.9 4.35 -19.0 M2.15 -24.6 Q1.5 -25.0 2.15 -25.3 2.7 -25.05 2.25 -24.65 L2.15 -24.6 M0.55 -18.95 L0.45 -19.0 Q0.35 -19.3 0.6 -19.45 L0.75 -19.45 Q1.4 -18.95 0.55 -18.95 M32.65 -12.45 Q33.25 -11.6 31.8 -11.55 L31.7 -11.6 Q31.75 -12.25 32.5 -12.45 L32.65 -12.45 M36.75 -15.7 L37.05 -16.15 37.15 -16.2 Q37.55 -16.1 37.45 -15.7 L37.45 -15.6 36.85 -14.6 36.75 -14.45 Q36.45 -14.35 36.35 -14.7 36.25 -15.25 36.65 -15.65 L36.75 -15.7 M-3.8 -25.05 L-3.1 -25.3 Q-2.45 -24.7 -3.5 -24.65 L-3.7 -24.65 -3.85 -24.95 -3.8 -25.05 M-7.25 -31.95 Q-6.8 -31.9 -6.6 -31.45 L-6.6 -31.35 Q-6.75 -31.0 -7.1 -31.15 L-7.55 -31.65 -7.55 -31.7 -7.25 -31.95 M-24.05 -13.95 L-24.05 -13.85 Q-24.85 -13.35 -25.15 -14.05 -24.85 -14.45 -24.25 -14.45 -23.8 -14.3 -24.05 -13.95 M-20.5 -24.7 Q-19.85 -24.25 -20.75 -23.9 L-20.95 -23.9 -21.05 -24.2 -21.05 -24.3 -20.5 -24.7" fill="#cc0000" fill-rule="evenodd" stroke="none"/>
  </g>
</svg>
