<?xml version="1.0" encoding="UTF-8" standalone="no"?>
<svg xmlns:ffdec="https://www.free-decompiler.com/flash" xmlns:xlink="http://www.w3.org/1999/xlink" ffdec:objectType="shape" height="36.35px" width="65.55px" xmlns="http://www.w3.org/2000/svg">
  <g transform="matrix(1.0, 0.0, 0.0, 1.0, 26.2, 48.05)">
    <path d="M22.15 -42.7 L22.05 -42.75 Q21.95 -43.05 22.2 -43.2 L22.35 -43.2 Q23.0 -42.7 22.15 -42.7 M23.2 -34.8 L23.1 -34.85 Q23.0 -35.15 23.3 -35.25 L23.4 -35.3 Q24.05 -34.8 23.2 -34.8 M37.55 -25.8 L37.4 -25.7 Q36.75 -26.1 37.4 -26.45 37.95 -26.2 37.55 -25.8 M18.5 -43.05 Q19.15 -42.55 18.3 -42.55 L18.2 -42.6 Q18.1 -42.9 18.4 -43.0 L18.5 -43.05 M0.2 -42.3 L-0.55 -42.35 -0.3 -42.75 -0.15 -42.8 Q0.35 -42.85 0.25 -42.4 L0.2 -42.3 M7.85 -47.65 L7.8 -47.55 7.05 -47.6 Q7.05 -48.0 7.5 -48.05 7.95 -48.05 7.85 -47.65 M2.05 -25.05 L1.95 -25.1 Q1.85 -25.4 2.1 -25.5 L2.25 -25.55 Q2.9 -25.05 2.05 -25.05 M7.3 -29.45 L7.2 -29.5 Q7.1 -29.8 7.4 -29.95 L7.5 -29.95 Q8.15 -29.45 7.3 -29.45 M18.75 -35.95 Q17.8 -36.05 18.5 -36.55 19.1 -36.55 18.85 -36.05 L18.75 -35.95 M15.55 -21.3 L15.45 -21.35 Q15.35 -21.65 15.6 -21.75 L15.75 -21.8 Q16.4 -21.3 15.55 -21.3 M0.75 -19.7 Q1.4 -19.2 0.55 -19.2 L0.45 -19.25 Q0.35 -19.55 0.6 -19.7 L0.75 -19.7 M4.65 -19.3 Q5.3 -18.8 4.45 -18.8 L4.35 -18.85 Q4.25 -19.15 4.55 -19.25 L4.65 -19.3 M38.75 -15.8 L38.85 -15.7 39.15 -15.8 Q39.65 -15.2 38.9 -15.05 L38.5 -14.65 38.4 -14.6 Q38.0 -14.7 38.05 -15.15 L38.1 -15.2 38.6 -15.75 38.75 -15.8 M33.75 -12.3 Q34.4 -11.65 33.3 -11.7 L33.2 -11.75 33.2 -12.0 33.25 -12.15 33.75 -12.3 M-6.75 -31.75 L-6.8 -31.7 Q-7.1 -31.6 -7.2 -31.95 -7.45 -32.45 -7.1 -32.75 L-7.0 -32.8 Q-6.35 -32.4 -6.75 -31.75 M-2.95 -25.45 L-2.95 -25.4 -3.65 -25.35 Q-3.75 -25.65 -3.45 -25.75 L-3.35 -25.8 -2.95 -25.45 M-26.05 -13.55 L-26.15 -13.6 -26.15 -13.85 -26.05 -13.95 -25.6 -14.2 Q-24.95 -13.55 -26.05 -13.55 M-21.45 -24.2 Q-21.6 -24.7 -21.15 -24.8 -20.65 -24.6 -20.95 -24.1 L-21.0 -24.0 Q-21.35 -23.85 -21.45 -24.2" fill="#cc0000" fill-rule="evenodd" stroke="none"/>
  </g>
</svg>
