<?xml version="1.0" encoding="UTF-8" standalone="no"?>
<svg xmlns:ffdec="https://www.free-decompiler.com/flash" xmlns:xlink="http://www.w3.org/1999/xlink" ffdec:objectType="shape" height="37.15px" width="66.7px" xmlns="http://www.w3.org/2000/svg">
  <g transform="matrix(1.0, 0.0, 0.0, 1.0, 26.6, 48.55)">
    <path d="M22.4 -43.05 L22.3 -43.1 Q22.2 -43.4 22.45 -43.5 L22.6 -43.55 Q23.25 -43.05 22.4 -43.05 M23.3 -34.95 L23.2 -35.0 Q23.1 -35.3 23.35 -35.45 L23.5 -35.45 Q24.15 -34.95 23.3 -34.95 M37.8 -25.7 L37.7 -25.75 Q37.6 -26.05 37.85 -26.2 L38.0 -26.2 Q38.65 -25.7 37.8 -25.7 M18.25 -37.2 Q18.9 -36.7 18.05 -36.7 L17.95 -36.75 Q17.85 -37.05 18.1 -37.2 L18.25 -37.2 M18.6 -43.45 Q19.25 -42.95 18.4 -42.95 L18.3 -43.0 Q18.2 -43.3 18.45 -43.45 L18.6 -43.45 M7.7 -48.05 L7.6 -47.95 Q6.65 -48.05 7.35 -48.55 7.95 -48.55 7.7 -48.05 M2.05 -25.3 L1.95 -25.35 Q1.85 -25.65 2.1 -25.75 L2.25 -25.8 Q2.9 -25.3 2.05 -25.3 M7.4 -29.55 L7.3 -29.6 Q7.2 -29.9 7.45 -30.0 L7.6 -30.05 Q8.25 -29.55 7.4 -29.55 M15.7 -21.3 L15.6 -21.35 Q15.5 -21.65 15.8 -21.75 L15.9 -21.8 Q16.55 -21.3 15.7 -21.3 M0.55 -19.3 L0.45 -19.35 Q0.35 -19.65 0.6 -19.75 L0.75 -19.8 Q1.4 -19.3 0.55 -19.3 M39.4 -14.65 L39.2 -14.65 39.1 -14.95 39.1 -15.05 Q39.4 -15.45 39.9 -15.55 40.5 -15.0 39.4 -14.65 M34.5 -12.05 Q35.1 -12.15 35.0 -11.65 L34.95 -11.55 Q34.35 -11.2 34.2 -11.8 L34.3 -11.95 34.5 -12.05 M-0.25 -42.95 Q-0.7 -43.05 -0.5 -43.45 L-0.15 -43.7 Q0.4 -43.45 -0.1 -43.0 L-0.25 -42.95 M-2.9 -25.7 L-3.0 -25.65 Q-3.95 -25.7 -3.25 -26.2 -2.65 -26.2 -2.9 -25.7 M-7.05 -32.6 Q-7.2 -33.1 -6.75 -33.2 -6.25 -33.0 -6.5 -32.5 L-6.6 -32.4 Q-6.95 -32.25 -7.05 -32.6 M-26.45 -13.55 L-26.55 -13.6 Q-26.65 -13.9 -26.4 -14.0 L-26.25 -14.05 Q-25.6 -13.55 -26.45 -13.55 M-21.5 -24.7 Q-20.85 -24.2 -21.7 -24.2 L-21.8 -24.25 Q-21.9 -24.55 -21.6 -24.7 L-21.5 -24.7" fill="#cc0000" fill-rule="evenodd" stroke="none"/>
  </g>
</svg>
