<?xml version="1.0" encoding="UTF-8" standalone="no"?>
<svg xmlns:ffdec="https://www.free-decompiler.com/flash" xmlns:xlink="http://www.w3.org/1999/xlink" ffdec:objectType="shape" height="37.75px" width="67.6px" xmlns="http://www.w3.org/2000/svg">
  <g transform="matrix(1.0, 0.0, 0.0, 1.0, 26.95, 49.05)">
    <path d="M18.55 -43.2 L18.45 -43.25 Q18.35 -43.55 18.65 -43.7 L18.75 -43.7 Q19.4 -43.2 18.55 -43.2 M18.15 -37.45 Q18.8 -36.95 17.95 -36.95 L17.85 -37.0 Q17.75 -37.3 18.05 -37.45 L18.15 -37.45 M7.15 -48.55 L7.05 -48.6 Q6.95 -48.9 7.2 -49.0 L7.35 -49.05 Q8.0 -48.55 7.15 -48.55 M35.2 -11.3 L35.1 -11.35 Q35.0 -11.65 35.3 -11.75 L35.4 -11.8 Q36.05 -11.3 35.2 -11.3 M40.5 -14.7 Q39.55 -14.8 40.25 -15.3 40.85 -15.3 40.6 -14.8 L40.5 -14.7 M-0.55 -43.5 Q-0.65 -43.8 -0.35 -43.95 L-0.25 -43.95 Q0.4 -43.45 -0.45 -43.45 L-0.55 -43.5 M-6.95 -33.0 L-7.1 -33.0 -7.25 -33.3 -7.2 -33.4 -6.75 -33.7 Q-6.1 -33.3 -6.95 -33.0 M-3.1 -26.55 Q-2.45 -26.05 -3.3 -26.05 L-3.4 -26.1 Q-3.5 -26.4 -3.2 -26.5 L-3.1 -26.55 M-26.8 -13.45 L-26.9 -13.5 Q-27.0 -13.8 -26.7 -13.95 L-26.6 -13.95 Q-25.95 -13.45 -26.8 -13.45 M-21.75 -24.55 Q-21.1 -24.05 -21.95 -24.05 L-22.05 -24.1 Q-22.15 -24.4 -21.85 -24.5 L-21.75 -24.55" fill="#cc0000" fill-rule="evenodd" stroke="none"/>
  </g>
</svg>
