<?xml version="1.0" encoding="UTF-8" standalone="no"?>
<svg xmlns:ffdec="https://www.free-decompiler.com/flash" xmlns:xlink="http://www.w3.org/1999/xlink" ffdec:objectType="shape" height="37.85px" width="63.45px" xmlns="http://www.w3.org/2000/svg">
  <g transform="matrix(1.0, 0.0, 0.0, 1.0, 22.25, 49.3)">
    <path d="M35.8 -11.45 L35.7 -11.5 Q35.6 -11.8 35.85 -11.95 L36.0 -11.95 Q36.65 -11.45 35.8 -11.45 M7.15 -48.8 L7.05 -48.85 Q6.95 -49.15 7.2 -49.25 L7.35 -49.3 Q8.0 -48.8 7.15 -48.8 M40.7 -14.95 L40.6 -15.0 Q40.5 -15.3 40.8 -15.45 L40.9 -15.45 Q41.55 -14.95 40.7 -14.95 M-6.85 -33.55 L-6.95 -33.6 Q-7.05 -33.9 -6.8 -34.0 L-6.65 -34.05 Q-6.0 -33.55 -6.85 -33.55 M-0.35 -44.25 L-0.25 -44.3 Q0.4 -43.8 -0.45 -43.8 L-0.55 -43.85 Q-0.65 -44.15 -0.35 -44.25 M-21.9 -24.45 Q-21.25 -23.95 -22.1 -23.95 L-22.2 -24.0 -22.05 -24.45 -21.9 -24.45" fill="#cc0000" fill-rule="evenodd" stroke="none"/>
  </g>
</svg>
