<?xml version="1.0" encoding="UTF-8" standalone="no"?>
<svg xmlns:ffdec="https://www.free-decompiler.com/flash" xmlns:xlink="http://www.w3.org/1999/xlink" ffdec:objectType="shape" height="61.45px" width="8.4px" xmlns="http://www.w3.org/2000/svg">
  <g transform="matrix(1.0, 0.0, 0.0, 1.0, 3.85, 31.15)">
    <path d="M2.75 -26.8 Q2.75 -25.0 2.25 -23.35 2.05 -22.55 1.3 -22.6 1.15 -22.7 1.15 -22.9 L1.2 -23.0 1.85 -24.5 1.95 -31.1 2.0 -31.15 Q2.7 -29.2 2.75 -26.8 M3.6 -20.05 Q3.5 -19.45 3.65 -20.05 L3.6 -20.05 M2.85 -19.2 Q2.85 -21.0 4.4 -21.9 4.7 -21.25 4.4 -20.15 L4.25 -19.5 Q3.75 -18.75 2.85 -19.2 M2.25 -13.5 L2.3 -13.4 2.3 -13.3 2.1 -13.05 Q1.2 -12.7 0.95 -13.25 0.0 -12.85 -1.15 -12.55 L-1.95 -12.6 -2.0 -12.7 -2.05 -12.9 -2.25 -12.95 Q-2.6 -13.0 -2.55 -13.3 L0.65 -13.9 1.75 -13.75 1.75 -13.7 2.25 -13.5 M1.95 14.5 L1.95 14.6 1.8 14.8 1.65 14.9 Q0.55 14.3 1.15 13.7 L1.95 14.5 M0.65 23.55 Q1.2 25.0 1.15 26.85 L0.8 30.25 Q0.45 30.4 0.35 30.05 L0.5 23.7 Q0.5 23.55 0.65 23.55 M0.65 20.2 Q1.2 21.55 0.95 23.25 L0.9 23.35 Q0.55 23.5 0.45 23.15 0.05 21.45 0.65 20.2 M-3.8 -19.25 Q-3.95 -19.75 -3.6 -20.0 L-3.5 -20.05 -3.2 -19.55 -3.1 -19.65 -2.35 -18.75 -2.3 -18.65 -2.25 -18.45 -1.7 -21.1 -1.6 -21.15 Q-1.15 -20.3 -1.35 -19.0 -1.5 -17.9 -1.9 -17.0 L-1.8 -16.05 Q-1.8 -15.85 -1.95 -15.75 -2.3 -15.6 -2.4 -15.95 L-2.45 -16.6 -2.6 -16.8 -3.75 -19.1 -3.8 -19.25 M-0.7 17.75 L-0.75 17.8 Q-1.05 17.9 -1.15 17.55 -1.25 16.35 -0.85 15.35 L-0.75 15.3 Q-0.2 16.35 -0.7 17.75" fill="#cc0000" fill-rule="evenodd" stroke="none"/>
  </g>
</svg>
