<?xml version="1.0" encoding="UTF-8" standalone="no"?>
<svg xmlns:ffdec="https://www.free-decompiler.com/flash" xmlns:xlink="http://www.w3.org/1999/xlink" ffdec:objectType="shape" height="68.7px" width="12.5px" xmlns="http://www.w3.org/2000/svg">
  <g transform="matrix(1.0, 0.0, 0.0, 1.0, 5.95, 35.15)">
    <path d="M1.9 -35.15 Q2.25 -34.45 1.2 -33.6 L1.1 -33.5 Q1.25 -31.5 2.7 -29.9 L2.75 -29.65 2.5 -29.45 2.3 -29.5 Q0.65 -31.15 0.45 -33.35 L0.45 -33.65 Q0.9 -34.55 1.7 -35.1 L1.9 -35.15 M6.45 -23.9 L5.8 -23.2 6.1 -23.3 6.25 -23.3 Q6.7 -23.15 6.45 -22.8 L6.45 -22.7 Q5.8 -22.2 5.2 -22.45 L5.3 -22.8 5.15 -22.7 Q4.8 -22.75 4.85 -23.05 L5.75 -24.55 5.85 -24.65 6.05 -24.75 6.15 -24.8 Q6.6 -24.6 6.45 -24.0 L6.45 -23.9 M2.4 15.85 L2.35 15.85 Q2.05 15.95 1.95 15.65 1.8 15.1 2.15 14.75 L2.25 14.7 Q2.8 15.15 2.4 15.85 M1.45 24.1 L1.45 24.2 1.15 24.4 0.95 24.35 0.45 23.85 Q0.0 23.25 0.4 22.65 L0.5 22.55 1.45 24.1 M0.9 30.05 Q1.6 31.6 0.95 33.45 L0.85 33.55 Q0.55 33.65 0.45 33.3 L0.85 30.05 0.9 30.05 M-1.35 -24.55 Q-0.55 -22.45 -1.45 -20.25 L-1.5 -20.2 Q-1.85 -20.25 -1.8 -20.55 L-1.4 -24.55 -1.35 -24.55 M-4.4 -20.45 L-5.95 -23.35 -5.85 -23.4 Q-4.1 -22.25 -3.9 -20.35 L-3.95 -20.25 Q-4.3 -20.1 -4.4 -20.45 M-0.75 18.95 L-0.8 19.05 -1.3 19.0 Q-1.45 18.25 -0.85 17.75 L-0.75 17.7 Q-0.3 18.15 -0.75 18.95" fill="#cc0000" fill-rule="evenodd" stroke="none"/>
  </g>
</svg>
