<?xml version="1.0" encoding="UTF-8" standalone="no"?>
<svg xmlns:ffdec="https://www.free-decompiler.com/flash" xmlns:xlink="http://www.w3.org/1999/xlink" ffdec:objectType="shape" height="75.85px" width="16.7px" xmlns="http://www.w3.org/2000/svg">
  <g transform="matrix(1.0, 0.0, 0.0, 1.0, 8.4, 39.3)">
    <path d="M1.15 -37.75 L0.95 -37.75 0.85 -38.05 0.85 -38.15 Q1.3 -38.7 1.9 -38.9 2.45 -38.15 1.15 -37.75 M0.6 -34.5 Q0.3 -34.4 0.2 -34.7 -1.0 -37.0 -0.2 -39.25 L-0.1 -39.3 0.35 -36.95 0.65 -34.55 0.6 -34.5 M7.3 -26.25 Q7.15 -26.35 7.15 -26.55 L7.2 -26.65 7.9 -28.0 8.0 -28.05 Q8.65 -27.05 7.45 -26.25 L7.3 -26.25 M8.1 -23.55 Q7.4 -23.25 6.95 -23.7 L6.95 -23.8 7.1 -24.05 7.45 -24.1 7.65 -24.15 8.25 -24.0 8.3 -23.9 8.3 -23.8 8.1 -23.55 M2.7 16.3 L2.7 16.2 2.85 15.95 3.0 15.95 Q3.6 15.95 3.35 16.45 L3.2 16.55 Q2.75 16.8 2.7 16.3 M0.1 24.35 L0.2 24.1 0.4 24.05 0.75 24.25 0.85 24.35 Q1.25 24.4 1.45 24.7 L1.45 24.8 1.25 25.0 1.15 25.05 0.55 25.0 0.2 24.6 0.1 24.35 M1.0 33.7 Q1.5 34.85 1.0 36.35 L0.95 36.45 0.45 36.4 Q0.4 34.95 0.9 33.75 L1.0 33.7 M-1.5 -27.65 Q-0.6 -25.75 -0.6 -23.5 L-0.65 -23.4 -1.15 -23.45 Q-1.7 -25.6 -1.55 -27.65 L-1.5 -27.65 M-8.1 -25.65 Q-6.1 -25.5 -5.2 -23.8 L-5.2 -23.7 -5.25 -23.6 -5.7 -23.5 -6.05 -23.85 -6.55 -24.5 -8.1 -25.0 Q-8.45 -25.1 -8.4 -25.4 L-8.4 -25.45 -8.2 -25.6 -8.1 -25.65 M-0.9 19.95 L-1.0 20.05 Q-1.65 19.65 -1.0 19.3 -0.45 19.55 -0.9 19.95" fill="#cc0000" fill-rule="evenodd" stroke="none"/>
  </g>
</svg>
