<?xml version="1.0" encoding="UTF-8" standalone="no"?>
<svg xmlns:ffdec="https://www.free-decompiler.com/flash" xmlns:xlink="http://www.w3.org/1999/xlink" ffdec:objectType="shape" height="80.3px" width="19.1px" xmlns="http://www.w3.org/2000/svg">
  <g transform="matrix(1.0, 0.0, 0.0, 1.0, 9.55, 42.9)">
    <path d="M2.2 -41.3 L2.2 -41.25 0.95 -41.2 0.95 -41.35 1.1 -41.55 1.5 -41.65 1.65 -41.65 Q2.15 -41.75 2.2 -41.3 M9.4 -29.5 L9.35 -29.5 Q9.05 -29.4 8.95 -29.7 8.8 -30.2 9.15 -30.5 L9.25 -30.55 Q9.8 -30.15 9.4 -29.5 M9.25 -24.0 L9.2 -23.9 Q8.6 -23.55 8.45 -24.15 L8.55 -24.3 8.75 -24.4 Q9.35 -24.5 9.25 -24.0 M3.2 17.2 L3.1 17.15 Q3.0 16.85 3.3 16.75 L3.4 16.7 Q4.05 17.2 3.2 17.2 M0.8 25.75 L0.65 25.8 Q0.2 25.85 0.2 25.45 0.35 25.1 0.75 25.05 1.3 25.3 0.8 25.75 M1.0 36.2 Q1.6 36.6 1.15 37.25 L1.1 37.35 Q0.75 37.5 0.6 37.15 0.6 36.6 0.9 36.25 L1.0 36.2 M-0.05 -39.95 L-0.1 -39.85 Q-0.45 -39.7 -0.55 -40.05 -0.9 -41.2 -0.9 -42.5 L-0.9 -42.65 -0.5 -42.9 Q-0.05 -41.6 -0.05 -39.95 M-9.2 -27.0 L-9.0 -27.05 Q-7.6 -27.45 -6.8 -26.5 L-6.8 -26.45 Q-7.95 -26.15 -9.45 -26.45 L-9.55 -26.55 -9.55 -26.65 -9.2 -27.0 M-1.6 -29.55 Q-0.4 -28.75 -0.35 -27.0 L-0.4 -26.9 -0.8 -26.85 -0.9 -26.95 Q-1.05 -27.8 -1.5 -28.55 L-1.55 -28.8 Q-2.15 -29.15 -1.7 -29.5 L-1.6 -29.55 M-1.45 20.45 L-1.55 20.4 -1.4 20.0 -1.25 19.95 Q-0.6 20.45 -1.45 20.45" fill="#cc0000" fill-rule="evenodd" stroke="none"/>
  </g>
</svg>
