<?xml version="1.0" encoding="UTF-8" standalone="no"?>
<svg xmlns:ffdec="https://www.free-decompiler.com/flash" xmlns:xlink="http://www.w3.org/1999/xlink" ffdec:objectType="shape" height="83.85px" width="20.85px" xmlns="http://www.w3.org/2000/svg">
  <g transform="matrix(1.0, 0.0, 0.0, 1.0, 10.3, 45.3)">
    <path d="M2.15 -43.4 L2.2 -43.3 2.2 -43.25 Q2.2 -43.05 2.0 -43.0 1.25 -42.7 1.1 -43.3 L1.1 -43.35 Q1.2 -43.55 1.4 -43.55 L2.15 -43.4 M10.55 -31.8 L10.5 -31.55 10.4 -31.35 Q9.35 -31.55 10.0 -32.15 10.3 -32.2 10.5 -31.9 L10.55 -31.8 M9.9 -24.15 L9.85 -24.05 Q9.25 -23.7 9.1 -24.3 L9.2 -24.45 9.4 -24.55 Q10.0 -24.65 9.9 -24.15 M3.45 17.45 L3.35 17.4 Q3.25 17.1 3.55 17.0 L3.65 16.95 Q4.3 17.45 3.45 17.45 M0.85 26.35 L0.75 26.4 Q0.0 26.15 0.65 25.8 1.3 25.95 0.85 26.35 M0.7 38.1 L1.15 37.7 Q1.55 37.8 1.4 38.2 L1.35 38.3 Q1.15 38.65 0.8 38.5 L0.65 38.2 0.7 38.1 M-0.75 -43.4 L-0.8 -43.3 -1.3 -43.35 Q-1.5 -44.45 -0.85 -45.25 L-0.75 -45.3 Q-0.35 -44.55 -0.75 -43.4 M-9.55 -27.45 Q-10.05 -27.25 -10.3 -27.7 -9.8 -28.5 -8.75 -28.65 L-8.6 -28.65 Q-8.05 -27.9 -9.55 -27.45 M-0.05 -30.5 L-0.05 -30.45 Q-1.2 -30.1 -2.05 -31.05 L-1.95 -31.3 -1.75 -31.4 Q-0.75 -31.2 -0.05 -30.5 M-1.55 20.7 L-1.65 20.65 Q-1.75 20.35 -1.45 20.25 L-1.35 20.2 Q-0.7 20.7 -1.55 20.7" fill="#cc0000" fill-rule="evenodd" stroke="none"/>
  </g>
</svg>
