<?xml version="1.0" encoding="UTF-8" standalone="no"?>
<svg xmlns:ffdec="https://www.free-decompiler.com/flash" xmlns:xlink="http://www.w3.org/1999/xlink" ffdec:objectType="shape" height="85.85px" width="22.4px" xmlns="http://www.w3.org/2000/svg">
  <g transform="matrix(1.0, 0.0, 0.0, 1.0, 11.35, 47.05)">
    <path d="M1.1 -44.4 L1.1 -44.45 Q1.2 -44.65 1.4 -44.65 1.85 -44.75 2.15 -44.4 L2.2 -44.3 2.2 -44.25 2.1 -44.05 2.0 -44.0 Q1.45 -43.9 1.1 -44.3 L1.1 -44.4 M0.05 -32.65 L0.05 -32.55 -0.15 -32.3 Q-1.45 -31.75 -1.8 -32.65 L-1.8 -32.7 -1.5 -32.9 0.0 -32.75 0.05 -32.65 M10.85 -32.5 L10.75 -32.45 Q10.0 -32.7 10.65 -33.05 11.3 -32.9 10.85 -32.5 M9.8 -24.05 L9.7 -24.1 Q9.6 -24.4 9.85 -24.55 L10.0 -24.55 Q10.65 -24.05 9.8 -24.05 M0.55 26.7 L0.45 26.65 Q0.35 26.35 0.6 26.25 L0.75 26.2 Q1.4 26.7 0.55 26.7 M0.95 38.8 L0.85 38.75 Q0.75 38.45 1.05 38.3 L1.15 38.3 Q1.8 38.8 0.95 38.8 M-0.55 -46.55 L-0.55 -46.45 -0.65 -46.25 -0.75 -46.15 -0.85 -45.7 -0.95 -45.6 Q-1.3 -45.45 -1.4 -45.8 L-1.4 -46.15 -1.4 -46.35 -0.85 -47.05 Q-0.45 -46.95 -0.55 -46.55 M-11.2 -28.1 L-11.35 -28.5 -11.3 -28.55 Q-10.8 -29.3 -10.1 -29.65 -9.7 -28.8 -11.05 -28.1 L-11.2 -28.1" fill="#cc0000" fill-rule="evenodd" stroke="none"/>
  </g>
</svg>
