<?xml version="1.0" encoding="UTF-8" standalone="no"?>
<svg xmlns:ffdec="https://www.free-decompiler.com/flash" xmlns:xlink="http://www.w3.org/1999/xlink" ffdec:objectType="shape" height="86.95px" width="23.7px" xmlns="http://www.w3.org/2000/svg">
  <g transform="matrix(1.0, 0.0, 0.0, 1.0, 12.5, 47.9)">
    <path d="M10.7 -33.05 L10.6 -33.1 Q10.5 -33.4 10.8 -33.55 L10.9 -33.55 Q11.55 -33.05 10.7 -33.05 M1.75 -45.55 L2.2 -45.15 2.2 -45.05 Q2.05 -44.7 1.7 -44.85 1.15 -45.3 1.75 -45.55 M10.4 -24.3 Q11.05 -23.8 10.2 -23.8 L10.1 -23.85 Q10.0 -24.15 10.3 -24.3 L10.4 -24.3 M0.95 39.05 L0.85 39.0 Q0.75 38.7 1.05 38.55 L1.15 38.55 Q1.8 39.05 0.95 39.05 M-1.35 -47.1 L-1.55 -47.1 -1.65 -47.45 -1.6 -47.55 -1.1 -47.9 Q-0.45 -47.45 -1.35 -47.1 M-11.7 -28.7 L-11.75 -28.6 Q-12.1 -28.3 -12.4 -28.7 -12.65 -29.6 -12.1 -30.05 -11.65 -29.55 -11.7 -28.7 M-0.3 -33.8 L-0.9 -33.4 -1.25 -33.0 -1.35 -32.95 Q-1.7 -33.0 -1.65 -33.4 L-1.35 -33.95 -1.3 -34.0 -0.6 -34.3 Q-0.15 -34.3 -0.25 -33.9 L-0.3 -33.8" fill="#cc0000" fill-rule="evenodd" stroke="none"/>
  </g>
</svg>
