<?xml version="1.0" encoding="UTF-8" standalone="no"?>
<svg xmlns:ffdec="https://www.free-decompiler.com/flash" xmlns:xlink="http://www.w3.org/1999/xlink" ffdec:objectType="shape" height="19.9px" width="24.85px" xmlns="http://www.w3.org/2000/svg">
  <g transform="matrix(1.0, 0.0, 0.0, 1.0, 13.65, 48.65)">
    <path d="M2.3 -45.55 L2.3 -45.5 1.6 -45.45 Q1.5 -45.75 1.8 -45.85 L1.9 -45.9 2.3 -45.55 M10.7 -33.3 L10.6 -33.35 Q10.5 -33.65 10.8 -33.8 L10.9 -33.8 Q11.55 -33.3 10.7 -33.3 M-1.0 -48.25 L-1.05 -48.15 -1.8 -48.2 -1.35 -48.65 Q-0.9 -48.65 -1.0 -48.25 M-12.5 -29.0 L-12.5 -28.9 Q-12.5 -28.75 -12.65 -28.75 L-12.95 -28.75 -13.5 -29.25 -13.65 -29.4 -13.6 -29.65 -13.35 -29.8 Q-12.7 -29.6 -12.5 -29.0 M-0.55 -34.55 L-0.55 -34.5 -0.75 -34.35 -0.9 -34.25 -1.15 -34.0 -1.35 -33.95 -1.65 -34.2 -1.65 -34.3 Q-1.5 -34.75 -1.0 -34.9 -0.6 -34.95 -0.55 -34.55" fill="#cc0000" fill-rule="evenodd" stroke="none"/>
  </g>
</svg>
