<?xml version="1.0" encoding="UTF-8" standalone="no"?>
<svg xmlns:ffdec="https://www.free-decompiler.com/flash" xmlns:xlink="http://www.w3.org/1999/xlink" ffdec:objectType="shape" height="20.15px" width="25.35px" xmlns="http://www.w3.org/2000/svg">
  <g transform="matrix(1.0, 0.0, 0.0, 1.0, 14.05, 48.9)">
    <path d="M10.8 -33.55 L10.7 -33.6 Q10.6 -33.9 10.85 -34.05 L11.0 -34.05 Q11.65 -33.55 10.8 -33.55 M1.95 -45.55 L1.85 -45.6 Q1.75 -45.9 2.05 -46.05 L2.15 -46.05 Q2.8 -45.55 1.95 -45.55 M-1.55 -48.4 L-1.65 -48.45 Q-1.75 -48.75 -1.45 -48.85 L-1.35 -48.9 Q-0.7 -48.4 -1.55 -48.4 M-13.25 -29.0 L-13.3 -28.9 Q-13.9 -28.55 -14.05 -29.15 L-13.95 -29.3 -13.75 -29.4 Q-13.15 -29.5 -13.25 -29.0 M-1.0 -34.6 L-1.1 -34.55 Q-1.45 -34.6 -1.4 -34.9 L-0.95 -35.5 -0.85 -35.55 Q-0.3 -35.15 -1.0 -34.6" fill="#cc0000" fill-rule="evenodd" stroke="none"/>
  </g>
</svg>
