<?xml version="1.0" encoding="UTF-8" standalone="no"?>
<svg xmlns:ffdec="https://www.free-decompiler.com/flash" xmlns:xlink="http://www.w3.org/1999/xlink" ffdec:objectType="shape" height="64.85px" width="54.5px" xmlns="http://www.w3.org/2000/svg">
  <g transform="matrix(1.0, 0.0, 0.0, 1.0, 31.35, 2.05)">
    <path d="M18.65 6.05 L8.3 6.8 0.05 13.8 -7.85 5.5 -16.2 6.9" fill="none" stroke="#000000" stroke-linecap="round" stroke-linejoin="round" stroke-width="3.0"/>
    <path d="M4.55 -0.55 L5.85 12.1 -0.2 30.95 -5.55 12.25 -3.55 -0.35" fill="none" stroke="#000000" stroke-linecap="round" stroke-linejoin="round" stroke-width="3.0"/>
    <path d="M23.05 22.95 Q20.95 23.35 18.95 24.1 18.35 24.6 17.5 24.6 L17.1 24.6 17.05 24.5 17.05 24.2 17.1 24.1 17.95 23.85 18.4 23.7 Q19.7 23.0 21.15 22.75 L22.25 22.45 23.0 22.55 23.1 22.6 23.15 22.7 23.1 22.85 23.05 22.95 M2.45 18.3 L2.5 18.2 2.55 17.8 2.6 17.6 2.65 17.6 2.7 16.85 3.0 16.7 3.15 16.75 3.25 16.85 3.45 24.15 2.9 27.05 2.9 29.2 3.0 29.35 3.15 29.4 3.8 29.45 4.35 29.55 4.55 29.6 4.6 29.7 4.65 29.75 4.75 29.8 4.95 29.85 5.0 29.95 5.15 30.1 5.2 30.2 5.5 30.3 5.75 30.45 5.8 30.55 5.8 30.6 5.8 30.7 5.85 30.75 5.9 30.75 Q6.45 27.25 6.6 23.6 L6.75 22.2 6.85 22.15 7.0 22.1 7.15 22.15 7.25 22.25 Q7.4 24.95 7.05 27.7 L6.95 28.35 7.05 28.4 7.15 28.5 7.2 31.95 7.15 32.15 7.05 32.2 6.9 32.3 6.7 32.25 6.7 31.95 6.0 31.9 5.95 31.8 5.95 31.75 5.9 31.7 5.7 31.65 5.6 31.5 5.55 31.45 5.55 31.4 5.4 31.3 5.25 31.25 5.2 31.1 5.15 31.05 4.85 30.85 4.6 30.75 4.55 30.65 4.55 30.55 4.5 30.45 4.35 30.4 4.1 30.35 4.05 30.25 4.05 30.2 3.35 30.15 3.3 30.5 3.3 30.7 3.4 30.9 3.45 31.1 3.6 31.25 3.7 31.35 Q3.55 32.25 4.0 32.85 L4.05 32.95 4.0 33.15 3.95 33.25 4.2 34.1 Q4.4 34.5 4.2 34.9 L4.15 34.9 4.0 34.95 3.75 34.9 3.65 34.55 3.35 33.85 3.35 33.3 3.25 33.25 3.1 32.65 2.95 32.35 2.9 32.2 2.85 31.6 2.85 31.5 2.75 31.45 2.65 31.35 2.6 31.25 2.55 31.05 2.2 30.5 2.2 30.4 2.15 30.3 2.15 30.2 2.1 30.1 2.0 30.0 1.65 29.95 1.45 29.9 1.3 29.85 -0.15 29.7 -1.15 29.6 -1.2 29.7 -1.25 29.75 -1.3 29.85 -1.35 29.9 Q-1.3 30.85 -1.95 31.6 L-2.05 31.75 -2.1 31.75 -2.35 31.85 -3.45 32.55 Q-3.5 33.35 -4.25 33.25 L-4.3 33.15 -4.3 32.95 -4.3 32.85 -4.25 32.75 -4.1 32.6 -4.1 32.4 -4.05 32.1 -3.95 31.9 -3.8 31.75 -2.75 31.25 -2.1 30.85 -2.05 30.3 -2.05 29.95 -2.05 29.9 -2.65 29.95 -3.3 30.2 -3.95 30.25 -4.05 30.05 -4.05 29.85 -2.55 27.8 Q-2.1 26.9 -2.05 25.9 L-1.9 22.9 -1.7 20.0 -1.65 19.9 -1.65 19.85 -1.55 19.8 -1.4 19.8 -1.25 19.85 -1.15 19.95 -1.0 27.25 Q-1.0 28.2 -1.15 29.05 L0.9 29.15 Q1.55 28.75 1.7 27.9 L1.8 27.75 1.95 27.6 2.2 27.05 2.25 27.0 2.25 20.8 2.3 18.45 2.45 18.3 M14.95 23.25 L15.1 23.2 15.5 23.3 15.6 23.35 15.65 23.45 15.6 23.6 15.55 23.7 15.5 23.75 15.3 23.85 15.25 23.95 15.2 24.0 14.75 24.15 14.55 24.2 Q13.95 24.9 13.05 25.25 L12.65 25.45 12.3 25.6 10.45 27.1 10.4 27.2 10.4 27.3 10.35 27.4 10.25 27.5 10.1 27.55 9.85 27.5 9.75 27.05 9.8 26.75 9.85 26.65 9.85 26.6 9.95 26.55 10.25 26.45 10.3 26.4 10.35 26.3 11.35 25.75 11.5 25.6 11.7 25.35 11.75 25.3 11.85 25.1 Q12.65 24.5 13.6 24.2 L14.0 23.75 14.1 23.6 14.6 23.45 14.8 23.4 14.85 23.3 14.85 23.25 14.95 23.25 M10.95 36.0 L11.0 35.9 11.0 35.85 11.1 35.8 11.25 35.8 Q11.6 35.9 11.85 36.15 L11.95 36.2 11.95 36.3 11.95 36.35 16.75 36.2 20.1 36.35 20.7 36.65 21.5 37.65 21.55 37.75 21.5 37.85 21.5 37.95 21.45 38.0 21.4 38.0 20.75 38.0 20.7 37.9 20.7 37.8 20.7 37.6 20.6 37.55 20.1 37.05 20.0 36.95 12.3 36.85 12.45 37.05 13.0 37.15 13.2 37.25 13.85 38.25 14.0 38.45 14.2 38.95 14.45 39.2 14.5 39.6 14.55 39.95 14.6 40.05 14.75 40.15 14.9 41.0 14.95 41.45 15.05 41.55 15.15 41.65 15.3 44.1 15.3 44.95 15.35 45.0 15.5 45.2 15.55 45.95 15.7 46.45 15.7 46.9 15.7 47.35 16.1 48.85 16.3 49.45 16.3 49.5 16.2 49.7 16.0 49.75 15.75 49.75 Q15.35 49.2 15.35 48.55 L15.35 48.05 15.2 47.85 15.1 47.7 15.1 46.95 14.95 46.45 14.95 46.1 14.95 45.7 14.85 45.6 14.7 45.45 14.6 43.1 14.6 42.25 14.55 42.15 14.4 42.05 14.3 41.6 14.35 41.2 14.2 41.0 14.2 40.75 14.15 40.65 14.0 40.55 13.85 40.0 13.85 39.6 13.7 39.5 13.6 39.85 13.4 39.85 13.2 39.85 13.1 39.75 13.1 39.65 13.05 39.55 12.9 39.45 12.85 39.35 12.85 39.3 12.85 39.2 12.7 39.0 12.65 38.8 12.5 38.7 12.4 38.45 12.3 38.05 12.15 37.95 11.8 37.45 11.6 37.1 11.6 37.05 11.55 36.95 11.0 36.25 10.95 36.1 10.95 36.0 M-8.4 21.3 L-8.25 21.35 -8.15 21.45 Q-7.45 23.15 -7.65 25.1 L-7.7 25.25 -8.15 25.25 -8.3 23.1 -8.3 22.8 Q-8.75 22.35 -8.75 21.7 L-8.7 21.5 -8.65 21.4 -8.65 21.35 -8.55 21.3 -8.4 21.3 M-31.0 38.3 L-30.1 38.3 -29.9 38.35 -29.85 38.45 -29.8 38.5 -29.65 38.5 -29.65 38.45 -29.6 38.35 -29.5 38.3 -29.35 38.3 -27.25 38.6 -27.2 38.65 -24.3 38.85 -24.25 38.95 -24.2 39.0 -23.05 39.05 -22.4 39.25 -22.35 39.35 -22.3 39.4 -21.5 39.4 -13.25 39.45 -13.0 39.45 -13.0 39.1 -12.95 38.85 -12.7 38.55 -12.65 38.5 -12.55 38.45 -12.4 38.45 -12.25 38.5 -12.15 38.6 Q-12.0 38.85 -12.25 39.05 L-12.35 39.15 -12.4 40.35 -12.45 40.65 -12.65 40.95 -12.7 41.05 -12.7 43.75 -12.8 44.1 -13.2 44.1 -13.3 42.9 -13.5 42.85 -13.55 42.75 -13.55 42.7 Q-13.7 42.65 -13.8 42.55 L-14.05 42.4 -14.2 42.3 -14.55 42.1 -14.65 42.0 -14.65 41.9 -15.15 41.65 -15.65 41.5 Q-16.1 41.5 -16.4 41.2 L-16.75 41.15 -17.35 41.05 -17.55 41.0 -17.65 40.9 -17.65 40.85 -18.85 40.65 -19.05 40.6 -19.15 40.5 -19.15 40.45 -22.8 40.25 -22.9 40.15 -22.9 40.1 -24.85 39.9 -25.05 39.85 -25.15 39.75 -25.15 39.7 -28.05 39.5 -28.15 39.4 -28.15 39.35 -30.1 39.15 -30.3 39.1 -30.4 39.0 -30.4 38.95 -31.0 38.9 -31.25 38.85 -31.3 38.75 -31.3 38.45 -31.25 38.35 -31.15 38.35 -31.0 38.3 M-9.7 34.55 L-9.7 34.7 -10.1 35.2 -10.15 35.25 -10.65 35.35 -10.9 35.55 -11.0 36.4 -11.05 36.65 -11.5 36.65 -11.6 35.8 -11.55 35.6 -12.2 34.85 -13.55 33.0 -13.75 32.9 -13.85 32.5 -13.9 32.35 -14.05 32.25 -14.5 31.7 -14.6 31.4 -14.6 31.2 Q-15.05 30.85 -15.05 30.25 L-15.05 30.2 Q-15.9 29.15 -15.9 27.85 L-15.9 27.55 -15.85 27.45 -15.75 27.35 -15.6 27.35 -15.45 27.4 -15.35 27.5 -15.2 27.95 -15.2 28.15 Q-14.65 28.75 -14.5 29.55 L-14.5 29.65 -12.9 32.4 -12.4 33.4 -11.8 33.65 -11.55 33.95 -11.5 34.0 -11.45 34.1 -11.45 34.2 -11.05 34.7 -10.75 34.7 -10.55 34.6 -10.55 34.55 -10.5 34.45 -10.25 34.3 -10.15 34.2 Q-9.9 34.1 -9.75 34.35 L-9.7 34.55 M-12.75 49.25 L-12.95 49.35 -12.95 49.45 -13.05 49.6 -13.95 50.1 -13.95 50.2 -14.05 50.35 -15.05 50.85 Q-16.0 52.1 -17.4 52.85 L-17.55 52.95 -17.95 53.1 Q-18.45 53.8 -19.3 53.85 L-22.05 57.05 -28.0 62.7 -28.4 62.75 -28.45 62.55 -28.45 62.35 -22.65 56.65 -22.5 56.55 -19.75 53.35 Q-18.8 53.05 -18.0 52.45 L-15.7 50.7 -15.7 50.6 -15.7 50.45 -14.6 49.8 -14.55 49.7 -14.5 49.6 -12.8 48.2 -12.7 47.1 -12.7 46.9 -12.65 46.8 -12.65 46.75 -12.55 46.7 -12.4 46.7 -12.25 46.75 -12.15 46.85 Q-12.0 47.7 -12.2 48.6 L-12.3 48.8 -12.65 49.1 -12.7 49.2 -12.75 49.25 M-11.4 48.7 L-11.25 48.75 -11.15 48.85 -11.1 49.05 -11.1 49.2 -10.85 49.85 -10.85 50.05 -10.5 50.45 -10.45 50.6 -10.4 50.7 -10.25 50.8 -10.25 50.9 -10.2 51.1 -9.65 51.6 -9.65 51.65 -9.25 51.85 -9.2 51.95 -9.2 52.1 -8.95 52.4 -8.95 52.5 -7.95 53.9 -8.0 54.1 -8.05 54.25 -8.7 54.25 -9.15 53.7 -9.2 53.6 -9.2 53.5 -9.2 53.4 -9.3 53.3 -9.4 53.2 -9.45 53.1 -9.5 52.95 -9.6 52.85 -9.7 52.75 -9.7 52.65 -9.75 52.45 Q-9.95 52.3 -10.2 52.25 L-10.25 52.15 -10.3 51.95 -10.65 51.85 -10.7 51.75 -10.75 51.55 -11.15 51.35 -11.2 51.25 -11.2 51.2 -11.8 51.1 -12.0 51.25 -12.55 51.7 -13.1 51.9 -14.85 53.35 -15.4 53.35 -15.45 53.15 -15.45 52.95 -15.3 52.7 -15.2 52.6 -13.05 50.9 -12.3 50.45 -11.7 49.85 -11.55 49.85 -11.6 49.8 -11.7 49.6 -11.7 48.95 -11.65 48.8 -11.55 48.75 -11.4 48.7" fill="#cc0000" fill-rule="evenodd" stroke="none"/>
  </g>
</svg>
