<?xml version="1.0" encoding="UTF-8" standalone="no"?>
<svg xmlns:ffdec="https://www.free-decompiler.com/flash" xmlns:xlink="http://www.w3.org/1999/xlink" ffdec:objectType="shape" height="136.25px" width="120.9px" xmlns="http://www.w3.org/2000/svg">
  <g transform="matrix(1.0, 0.0, 0.0, 1.0, 66.2, 17.8)">
    <path d="M4.2 48.05 L5.65 61.25 0.8 72.3 -5.2 61.55 -4.45 47.85" fill="none" stroke="#000000" stroke-linecap="round" stroke-linejoin="round" stroke-width="3.0"/>
    <path d="M14.25 86.0 L10.8 100.2 -0.05 116.95 -10.95 99.95 -12.15 86.35" fill="none" stroke="#000000" stroke-linecap="round" stroke-linejoin="round" stroke-width="3.0"/>
    <path d="M10.25 -12.75 Q9.65 -10.6 8.55 -8.55 L8.5 -8.35 8.4 -8.3 8.25 -8.2 8.05 -8.25 Q7.85 -9.2 8.45 -10.05 9.2 -11.2 9.55 -12.5 L9.65 -12.65 9.7 -12.75 10.0 -12.9 10.15 -12.85 10.25 -12.75 M3.35 -17.65 Q3.4 -15.85 3.1 -14.0 L3.05 -13.85 2.6 -13.85 Q2.4 -15.2 2.65 -16.5 L2.8 -17.6 2.85 -17.7 2.85 -17.75 2.95 -17.8 3.1 -17.8 3.25 -17.75 3.35 -17.65 M2.75 -5.0 L2.75 -4.25 2.7 -4.1 2.25 -4.1 2.15 -4.75 2.2 -4.95 2.25 -5.05 2.25 -5.1 2.35 -5.15 2.5 -5.15 2.65 -5.1 2.75 -5.0 M40.65 22.7 L40.85 22.75 41.25 23.5 41.3 23.7 Q41.6 23.95 41.7 24.35 L41.7 24.55 42.4 25.65 42.45 25.75 42.4 25.85 42.35 26.0 Q41.85 26.15 41.6 25.6 L41.1 24.65 41.1 24.5 40.75 24.05 40.7 23.95 40.7 23.85 40.7 23.75 40.35 23.1 40.35 22.9 40.4 22.8 40.5 22.7 40.65 22.7 M48.0 40.55 L48.2 40.6 48.35 40.75 48.45 40.85 49.2 41.0 49.25 41.1 49.3 41.15 50.15 41.3 50.35 41.35 50.5 41.7 50.55 41.8 50.55 41.9 Q50.45 42.2 50.15 42.15 L49.95 42.1 49.85 42.0 49.85 41.95 49.0 41.8 48.75 41.75 48.7 41.65 48.7 41.6 47.95 41.45 47.75 41.35 47.7 41.15 47.15 41.1 46.75 40.85 46.5 40.8 46.25 40.75 46.2 40.65 46.2 40.4 46.25 40.3 46.35 40.25 46.5 40.2 Q46.9 40.1 47.2 40.35 L47.25 40.4 48.0 40.55 M47.15 42.8 L47.3 42.85 47.4 42.95 47.45 43.85 47.35 44.05 46.95 44.1 Q46.75 43.6 46.85 43.05 L46.9 42.85 47.0 42.8 47.15 42.8 M51.85 42.15 L51.9 42.05 52.0 42.0 52.15 41.95 53.15 42.05 53.35 42.1 53.5 42.25 54.1 42.5 54.15 42.6 54.2 42.65 54.4 42.7 54.65 42.85 54.7 42.95 54.65 43.1 54.6 43.2 54.0 43.3 53.75 43.25 53.7 43.15 53.7 43.1 53.2 42.95 52.95 42.85 52.85 42.75 52.85 42.7 52.5 42.6 51.95 42.5 51.85 42.3 51.85 42.15 M34.8 14.95 L34.8 15.35 34.7 15.6 34.5 15.6 34.3 15.6 34.25 15.5 34.2 15.3 33.15 14.25 33.05 14.2 32.8 14.1 32.75 14.0 32.7 13.8 32.35 13.4 32.3 13.25 32.3 13.15 32.35 13.05 32.35 13.0 32.45 13.0 32.6 12.95 34.7 14.9 34.8 14.95 M5.3 16.55 L3.35 16.6 3.3 16.5 3.3 16.2 3.35 16.1 3.45 16.1 3.6 16.05 5.25 16.15 5.35 16.2 5.4 16.3 5.35 16.45 5.3 16.55 M9.8 42.5 L9.75 42.6 9.7 42.7 8.85 42.9 8.8 42.8 8.8 42.6 8.8 42.5 10.25 41.45 10.5 40.95 10.7 40.8 10.75 40.7 10.8 40.6 10.85 40.5 10.95 40.5 11.1 40.45 11.5 40.55 11.6 40.6 11.65 40.7 11.6 40.85 11.55 40.95 11.5 41.0 11.3 41.1 11.3 41.2 11.25 41.25 11.2 41.35 11.15 41.4 10.95 41.5 10.9 41.7 10.8 41.95 10.75 42.0 10.5 42.1 10.0 42.45 9.8 42.5 M3.4 45.6 L4.1 45.7 4.15 45.75 4.2 45.85 4.15 46.0 4.1 46.1 4.05 46.15 3.7 46.25 3.6 46.35 3.55 46.45 2.65 46.45 1.95 46.4 1.9 46.3 1.85 46.1 1.85 46.0 2.2 45.75 2.35 45.7 2.5 45.7 2.9 45.75 2.95 45.8 3.1 45.75 3.15 45.7 3.25 45.6 3.4 45.6 M38.15 39.3 Q38.8 39.45 39.4 39.85 L39.5 39.95 39.5 40.1 39.45 40.3 Q38.7 40.35 37.95 39.85 L37.85 39.55 37.9 39.35 38.0 39.35 38.15 39.3 M6.4 50.45 L6.4 50.5 6.4 50.7 6.4 50.8 Q6.95 51.45 7.1 52.3 L7.05 52.65 6.85 52.7 6.6 52.65 6.4 52.1 6.2 51.8 6.2 51.7 6.2 51.6 5.95 51.4 5.8 51.25 5.8 51.05 5.8 50.75 5.75 50.75 5.55 50.65 5.45 50.45 Q5.4 50.3 5.5 50.2 L5.6 50.15 5.75 50.1 Q6.15 50.0 6.35 50.35 L6.4 50.45 M-3.75 -7.2 L-3.6 -7.15 -3.5 -7.05 Q-3.1 -4.75 -3.2 -2.3 L-3.25 -2.1 -3.35 -2.0 -3.5 -1.95 -3.75 -2.0 -4.05 -6.9 -4.05 -7.05 -3.75 -7.2 M-10.05 -8.15 L-10.05 -8.25 -10.0 -8.35 -10.0 -8.4 -9.9 -8.45 -9.75 -8.45 Q-8.4 -7.4 -7.8 -5.7 L-7.8 -5.6 -7.55 -5.2 -7.5 -5.05 Q-7.0 -4.65 -7.05 -4.0 L-7.15 -3.65 -7.35 -3.65 -7.55 -3.65 -7.7 -4.05 -7.75 -4.3 -7.8 -4.4 -8.0 -4.5 -8.2 -4.95 -8.4 -5.25 Q-8.85 -6.8 -10.0 -8.0 L-10.05 -8.15 M-15.0 1.85 L-14.85 1.8 -14.6 1.8 -14.4 1.85 Q-13.05 2.7 -11.4 3.05 L-11.35 3.1 -11.25 3.35 -11.35 3.65 -11.45 3.75 -11.6 3.8 -11.8 3.75 -11.9 3.65 -11.95 3.55 -13.9 2.85 -14.75 2.6 -14.8 2.5 -14.8 2.45 -14.85 2.4 -15.05 2.35 -15.15 2.15 -15.1 1.85 -15.0 1.85 M-16.15 11.5 L-16.2 11.4 -16.2 11.2 -16.2 11.1 Q-15.8 10.4 -15.0 10.25 L-14.75 10.2 -14.25 10.3 -14.15 10.35 -14.1 10.45 -14.15 10.6 -14.2 10.7 Q-14.95 10.85 -15.55 11.3 L-15.7 11.45 -15.75 11.5 -16.15 11.5 M-13.6 12.45 L-13.45 12.5 -13.35 12.6 Q-13.25 13.2 -13.9 13.4 L-13.95 13.45 -14.2 13.5 -14.25 13.6 -14.3 13.65 -15.05 13.65 -15.15 13.45 -15.15 13.25 -15.0 13.15 -14.8 13.05 -14.75 12.95 -14.75 12.9 -13.75 12.45 -13.6 12.45 M-4.6 39.45 L-4.4 39.5 Q-3.8 40.7 -2.6 41.3 L-2.55 41.35 -2.6 41.55 -2.65 41.65 -2.85 41.7 Q-4.2 41.3 -4.9 40.1 L-4.9 39.7 -4.85 39.5 -4.75 39.45 -4.6 39.45 M-64.55 38.1 L-64.65 37.8 -64.6 37.6 -63.35 37.35 -59.6 36.95 -59.45 37.0 -59.35 37.1 -59.3 37.2 -59.3 37.35 -62.9 37.85 -64.55 38.1 M-48.15 35.95 L-47.85 35.8 Q-47.55 35.9 -47.35 36.1 L-47.3 36.15 -45.75 36.6 -45.75 36.85 -45.8 36.95 -47.75 36.75 -47.8 36.65 -47.8 36.6 -47.85 36.55 -48.05 36.5 -48.15 36.1 -48.15 35.95 M-42.4 36.9 L-42.35 36.95 -42.3 37.05 -42.35 37.2 -42.4 37.3 -42.45 37.35 -43.0 37.45 -45.55 37.75 -45.6 37.65 -45.65 37.45 -45.65 37.35 -45.15 37.1 -43.45 36.95 -43.35 36.85 -43.25 36.85 -43.1 36.8 -42.4 36.9 M-66.2 96.2 L-66.2 96.0 -66.15 95.9 -66.15 95.85 -66.05 95.8 -65.9 95.8 -65.7 95.85 -65.25 96.4 -65.2 96.5 -65.25 96.7 -65.3 96.85 -65.9 96.85 -66.15 96.45 -66.2 96.35 -66.2 96.2 M-46.25 85.85 L-46.15 85.95 Q-46.1 86.85 -46.75 87.6 L-46.8 87.7 -46.95 88.35 -47.05 88.55 -47.1 88.6 -47.25 88.7 -47.4 88.85 -47.45 88.95 -47.9 89.0 -47.95 88.8 -47.95 88.6 -47.85 88.45 -47.8 88.25 Q-47.5 88.0 -47.5 87.6 L-47.45 87.5 -46.65 85.9 -46.65 85.85 -46.55 85.8 -46.4 85.8 -46.25 85.85 M-55.4 90.05 L-55.25 90.1 -55.15 90.2 Q-55.35 91.0 -56.05 91.75 L-57.7 93.05 -57.95 93.1 -58.05 92.9 -58.05 92.7 -56.65 91.4 -56.5 91.1 -56.45 90.95 -56.15 90.75 -56.1 90.65 -56.05 90.45 -55.9 90.35 -55.7 90.25 -55.65 90.15 -55.65 90.1 -55.55 90.05 -55.4 90.05 M-7.7 64.85 L-7.6 64.95 Q-7.8 66.2 -9.25 66.55 L-9.5 66.45 -9.6 66.2 -9.55 66.0 -9.5 65.9 -9.5 65.85 -8.95 65.7 -8.45 65.4 -8.4 65.3 -8.4 65.2 -8.15 64.95 -8.05 64.85 -7.85 64.8 -7.7 64.85 M-28.05 65.2 L-28.0 65.15 -27.9 65.1 -27.75 65.05 -27.6 65.1 -27.5 65.2 Q-27.35 65.55 -27.65 65.85 L-27.75 65.95 -27.8 66.05 -27.8 66.2 -27.9 66.3 -28.0 66.4 -28.25 66.95 -28.3 67.05 -28.75 67.1 -28.85 66.55 -28.8 66.35 -28.55 66.0 -28.45 65.9 -28.05 65.2" fill="#cc0000" fill-rule="evenodd" stroke="none"/>
  </g>
</svg>
