<?xml version="1.0" encoding="UTF-8" standalone="no"?>
<svg xmlns:ffdec="https://www.free-decompiler.com/flash" xmlns:xlink="http://www.w3.org/1999/xlink" ffdec:objectType="shape" height="159.25px" width="130.1px" xmlns="http://www.w3.org/2000/svg">
  <g transform="matrix(1.0, 0.0, 0.0, 1.0, 72.9, 24.3)">
    <path d="M5.9 78.8 L11.75 93.5 1.0 98.05 -6.5 92.15 -2.15 79.95" fill="none" stroke="#000000" stroke-linecap="round" stroke-linejoin="round" stroke-width="3.0"/>
    <path d="M35.25 125.95 L18.2 130.6 0.25 133.45 -17.6 132.6 -32.85 128.9" fill="none" stroke="#000000" stroke-linecap="round" stroke-linejoin="round" stroke-width="3.0"/>
    <path d="M13.15 -17.5 L13.25 -17.4 Q13.2 -16.7 12.8 -16.0 L12.7 -15.85 12.65 -15.8 12.45 -15.75 11.8 -14.9 11.75 -14.8 11.7 -14.75 11.3 -14.75 11.2 -15.25 11.2 -15.4 11.5 -15.6 11.95 -16.25 12.05 -16.35 12.2 -16.45 12.3 -16.75 12.3 -16.9 12.6 -17.1 12.7 -17.3 12.75 -17.5 12.85 -17.55 13.0 -17.55 13.15 -17.5 M3.4 -24.25 L3.5 -24.15 Q3.7 -22.25 3.35 -20.4 L3.3 -20.25 2.85 -20.25 Q2.65 -20.75 2.9 -21.3 L2.95 -21.4 2.95 -23.9 2.95 -24.1 3.0 -24.2 3.05 -24.25 3.1 -24.3 3.25 -24.3 3.4 -24.25 M2.65 -6.65 L2.8 -6.6 2.9 -6.5 2.95 -6.15 2.9 -5.95 2.8 -5.85 2.65 -5.8 2.45 -5.85 2.35 -6.3 2.35 -6.5 2.65 -6.65 M45.5 23.45 L45.65 23.5 45.75 23.6 Q46.0 24.9 45.5 26.1 L45.45 26.2 45.3 27.05 45.25 27.15 45.15 27.25 45.0 27.3 44.75 27.25 Q44.7 26.15 45.05 25.05 L45.15 24.35 45.2 23.6 45.5 23.45 M50.45 41.5 L50.7 41.8 50.9 41.9 50.95 41.95 51.1 42.0 51.6 42.1 51.85 42.35 52.2 42.5 52.45 42.8 52.7 42.95 52.7 43.05 52.65 43.25 Q52.25 43.5 51.75 43.25 L51.4 42.9 51.2 42.85 51.1 42.75 51.1 42.7 50.4 42.45 50.0 42.35 49.95 42.25 49.95 41.95 49.9 41.85 49.25 41.75 49.2 41.65 49.2 41.45 49.25 41.3 49.35 41.25 49.5 41.2 50.1 41.25 50.35 41.35 50.45 41.5 M41.3 40.6 L41.4 40.7 41.5 40.95 41.4 41.25 41.3 41.3 41.15 41.4 40.95 41.35 Q40.8 41.05 40.5 41.05 L40.25 41.0 40.2 40.7 40.25 40.55 40.35 40.5 40.5 40.45 41.3 40.6 M55.4 42.95 Q56.3 43.1 57.05 43.6 L57.15 43.7 57.15 43.95 57.1 44.05 Q56.05 44.1 55.1 43.4 L55.1 43.15 55.15 43.05 55.4 42.95 M50.7 44.95 Q50.8 44.75 51.0 44.8 L51.4 45.0 51.5 45.1 51.5 45.45 51.45 45.55 50.75 45.5 Q50.65 45.35 50.7 45.1 L50.7 44.95 M36.1 12.05 L36.95 12.15 37.0 12.2 37.2 12.25 37.25 12.35 37.3 12.4 38.1 12.7 38.15 12.8 38.05 13.05 37.5 13.15 36.85 13.0 36.8 12.9 36.8 12.85 36.6 12.8 36.35 12.75 35.85 12.6 35.8 12.5 35.8 12.2 35.85 12.1 35.95 12.1 36.1 12.05 M3.45 14.05 L3.8 14.0 4.0 13.95 4.5 14.05 4.6 14.1 4.65 14.2 4.6 14.35 4.55 14.45 4.2 14.6 3.9 14.7 3.85 14.8 3.8 14.85 3.75 14.85 3.6 14.95 3.55 15.05 3.5 15.2 3.45 15.3 3.4 15.35 3.05 15.35 2.95 14.9 3.05 14.5 3.2 14.3 3.45 14.05 M9.8 39.5 L9.8 39.35 10.1 39.2 10.3 39.25 Q10.7 40.1 10.55 41.1 L10.5 41.3 10.4 41.4 10.25 41.45 10.05 41.4 9.8 39.5 M2.25 47.35 L2.4 47.35 2.6 47.4 3.15 47.8 3.25 47.85 3.25 48.0 3.2 48.2 2.2 48.15 2.05 47.95 1.95 47.75 1.95 47.7 1.95 47.6 1.95 47.5 2.25 47.35 M5.8 53.65 L5.8 53.35 5.85 53.25 5.95 53.25 6.1 53.2 8.0 53.3 8.1 53.35 8.15 53.45 8.1 53.6 8.05 53.7 7.85 53.75 5.85 53.75 5.8 53.65 M-3.35 -12.9 L-3.25 -12.8 -3.25 -10.4 -3.3 -10.2 -3.75 -10.15 -3.8 -12.7 -3.75 -12.9 -3.65 -12.95 -3.5 -12.95 -3.35 -12.9 M-14.05 -12.85 L-14.15 -13.05 -14.8 -13.55 -14.8 -13.65 -14.8 -13.8 -14.5 -13.95 Q-14.0 -13.75 -13.6 -13.35 L-13.55 -13.3 Q-12.55 -12.7 -12.0 -11.6 L-11.85 -10.9 -11.9 -10.65 -12.3 -10.65 -12.85 -11.45 -13.05 -11.8 -13.05 -11.9 -13.05 -11.95 -13.35 -12.35 -13.45 -12.55 -14.0 -12.75 -14.05 -12.85 M-16.85 1.45 L-16.8 1.55 -16.9 1.8 -17.1 1.85 -19.25 1.85 -19.3 1.75 -19.3 1.7 -19.35 1.65 -19.55 1.6 -19.65 1.4 -19.65 1.2 -19.6 1.1 -19.5 1.1 -19.35 1.05 -19.1 1.05 -18.9 1.1 -18.85 1.2 -18.8 1.25 -16.9 1.4 -16.85 1.45 M-17.3 8.1 L-17.15 8.0 -16.65 7.8 -16.0 7.9 -15.9 7.95 -15.85 8.05 -15.9 8.2 -15.95 8.3 -17.2 8.6 -17.25 8.5 -17.3 8.2 -17.3 8.1 M-12.85 11.35 L-11.6 11.45 -11.5 11.5 -11.45 11.6 -11.5 11.75 -11.55 11.85 -13.05 11.9 -13.15 11.8 -13.15 11.55 -13.1 11.45 -13.0 11.4 -12.85 11.35 M-5.0 42.25 L-5.1 41.85 -5.05 41.6 -4.75 41.45 -4.55 41.5 -3.95 42.0 -3.9 42.05 Q-3.35 41.9 -3.0 42.25 L-3.0 42.45 -3.05 42.6 Q-4.05 42.85 -5.0 42.25 M-72.9 39.55 L-72.9 39.45 -72.8 39.35 -72.35 39.2 Q-72.2 39.05 -72.0 39.05 L-71.05 38.9 -71.0 38.8 -71.0 38.75 -70.9 38.75 -70.75 38.7 -69.6 38.8 -69.5 38.85 -69.45 38.95 -69.5 39.1 -69.55 39.2 -69.6 39.25 -70.55 39.35 -70.65 39.45 -70.7 39.55 -71.05 39.6 -71.9 39.7 -72.0 39.8 -72.35 39.95 -72.45 40.05 -72.6 40.05 -72.8 40.0 -72.85 39.9 -72.9 39.55 M-49.75 35.0 Q-49.15 35.15 -48.75 35.65 L-48.75 35.75 -48.75 35.95 -48.8 36.1 -49.3 36.1 -49.55 36.0 -50.25 35.35 -50.4 35.2 -50.4 35.1 -50.4 34.95 -50.1 34.8 -49.8 34.95 -49.75 35.0 M-50.8 38.55 L-50.75 38.3 -50.05 38.1 -50.0 38.05 -49.9 37.95 -49.0 37.7 -48.6 37.8 -48.5 37.85 -48.45 37.95 -48.5 38.1 -48.55 38.2 -48.95 38.4 Q-49.1 38.4 -49.2 38.55 L-49.35 38.55 -49.55 38.6 -49.65 38.7 -49.7 38.8 -50.75 38.75 -50.8 38.55 M-62.0 95.8 L-60.35 95.45 Q-60.05 95.2 -59.65 95.2 L-59.35 95.3 -59.25 95.35 -59.25 95.55 -59.3 95.7 Q-60.5 96.45 -61.95 96.25 L-62.05 95.95 -62.0 95.8 M-49.15 93.85 Q-48.9 95.15 -50.05 95.8 L-50.4 95.85 -50.45 95.65 -50.45 95.45 -50.1 95.2 -49.95 94.8 -49.85 94.7 -49.7 93.95 -49.65 93.8 -49.55 93.75 -49.4 93.7 -49.25 93.75 -49.15 93.85 M-8.6 68.2 L-8.55 68.3 -8.6 68.45 -8.65 68.55 -9.8 68.6 -9.9 68.5 -9.9 68.25 -9.85 68.15 -9.75 68.1 -9.6 68.05 -8.65 68.15 -8.6 68.2 M-30.15 68.3 L-29.85 68.2 -29.85 68.15 -29.7 68.25 -29.6 68.3 Q-29.5 69.05 -29.55 69.8 L-29.6 70.0 -29.7 70.1 -29.85 70.15 -30.05 70.1 -30.15 68.5 -30.15 68.3 M-70.9 99.1 L-70.85 99.55 -70.9 99.75 -71.0 99.8 -71.15 99.9 -71.4 99.85 -71.45 99.3 -71.45 99.1 -71.15 98.95 -71.0 99.0 -70.9 99.1" fill="#cc0000" fill-rule="evenodd" stroke="none"/>
  </g>
</svg>
