<?xml version="1.0" encoding="UTF-8" standalone="no"?>
<svg xmlns:ffdec="https://www.free-decompiler.com/flash" xmlns:xlink="http://www.w3.org/1999/xlink" ffdec:objectType="shape" height="202.8px" width="139.2px" xmlns="http://www.w3.org/2000/svg">
  <g transform="matrix(1.0, 0.0, 0.0, 1.0, 79.8, 27.9)">
    <path d="M5.8 102.7 L12.2 114.75 0.9 117.55 -9.1 115.35 -1.95 103.3" fill="none" stroke="#000000" stroke-linecap="round" stroke-linejoin="round" stroke-width="3.0"/>
    <path d="M21.4 173.4 L14.75 154.05 0.1 141.8 -15.3 148.95 -22.75 169.4" fill="none" stroke="#000000" stroke-linecap="round" stroke-linejoin="round" stroke-width="3.0"/>
    <path d="M3.25 -27.9 L3.4 -27.85 3.5 -27.75 3.5 -26.05 3.45 -25.9 3.05 -25.85 Q2.85 -26.7 2.95 -27.65 L3.0 -27.8 3.1 -27.85 3.25 -27.9 M16.35 -20.55 L16.5 -20.5 16.6 -20.4 Q16.65 -19.65 15.8 -19.5 L15.75 -19.4 15.7 -19.3 15.05 -19.0 15.0 -18.9 14.95 -18.85 14.1 -18.75 14.05 -18.95 14.05 -19.15 Q14.2 -19.4 14.55 -19.45 L14.6 -19.55 14.6 -19.6 15.3 -19.85 16.1 -20.5 16.2 -20.55 16.35 -20.55 M2.35 -7.15 L2.4 -7.3 2.5 -7.35 2.65 -7.4 2.8 -7.35 2.9 -7.25 2.9 -7.05 2.85 -6.9 2.45 -6.85 2.35 -7.15 M49.75 26.1 L49.75 26.2 49.75 26.35 Q49.25 27.15 48.3 27.35 L48.25 27.45 48.2 27.55 48.15 27.6 47.95 27.7 47.25 28.35 47.2 28.45 47.1 28.6 46.7 28.6 Q46.5 28.35 46.65 28.0 L46.7 27.85 47.05 27.65 47.35 27.35 47.4 27.3 47.45 27.2 47.75 27.0 47.85 26.9 47.95 26.75 48.75 26.5 Q49.0 26.0 49.5 25.95 L49.65 26.0 49.75 26.1 M42.8 42.35 L42.9 42.45 43.0 42.7 43.05 42.9 43.0 43.1 42.95 43.25 42.5 43.25 42.35 42.7 42.35 42.5 42.4 42.4 42.45 42.35 42.5 42.3 42.65 42.3 42.8 42.35 M53.7 43.25 L53.95 43.7 54.0 43.85 54.4 43.95 54.6 44.0 54.9 44.4 54.95 44.45 55.15 44.6 55.25 44.7 55.3 44.95 55.25 45.15 55.0 45.3 54.65 45.2 54.5 45.1 54.45 45.0 54.4 44.85 54.4 44.8 54.2 44.75 54.1 44.65 54.1 44.6 53.75 44.5 53.65 44.3 53.6 44.2 53.6 44.15 53.0 43.7 52.95 43.6 52.95 43.45 52.95 43.35 53.05 43.25 53.25 43.2 53.5 43.2 53.7 43.25 M54.25 45.8 L54.4 45.85 54.5 45.95 54.5 46.1 54.45 46.3 54.0 46.35 Q53.9 46.2 53.95 46.05 L54.0 45.85 54.1 45.8 54.25 45.8 M59.35 44.8 L58.25 44.75 58.2 44.45 58.25 44.3 58.35 44.25 58.5 44.2 59.3 44.35 59.4 44.45 59.4 44.6 59.35 44.8 M38.55 11.6 L39.25 11.15 39.6 11.05 40.25 11.15 40.35 11.2 40.4 11.3 40.35 11.45 40.3 11.55 39.6 11.75 39.55 11.8 Q39.25 12.25 38.6 12.0 L38.55 11.9 38.55 11.7 38.55 11.6 M3.35 12.45 L3.5 12.5 3.6 12.6 Q3.45 13.55 2.6 14.15 L2.35 14.1 2.3 13.9 2.3 13.7 2.65 13.05 2.7 12.95 3.1 12.5 3.35 12.45 M10.1 38.5 L10.25 38.65 10.55 39.1 10.55 39.2 10.6 39.35 10.5 39.65 10.4 39.7 10.25 39.8 10.05 39.75 9.95 39.65 9.95 39.6 9.6 39.5 9.3 39.4 9.2 39.2 Q9.15 39.05 9.25 38.95 L9.35 38.9 9.45 38.85 9.1 38.8 8.85 38.75 8.8 38.65 8.8 38.35 8.85 38.25 8.95 38.25 9.1 38.2 9.75 38.2 9.95 38.25 10.0 38.35 10.1 38.5 M2.25 48.85 L2.55 48.95 2.65 49.0 2.65 49.15 2.6 49.35 2.0 49.4 1.95 49.1 2.0 48.95 2.1 48.9 2.25 48.85 M7.35 54.2 L7.5 54.2 8.0 54.3 8.1 54.35 8.15 54.45 8.1 54.6 8.05 54.7 8.0 54.75 7.75 54.85 7.45 55.0 7.15 55.1 7.1 55.2 7.05 55.25 7.0 55.25 6.6 55.25 6.5 54.95 6.55 54.6 Q6.85 54.4 7.25 54.3 L7.35 54.2 M-3.35 -16.5 L-3.25 -16.4 -3.25 -14.7 -3.3 -14.55 -3.75 -14.5 -3.8 -16.3 -3.75 -16.45 -3.65 -16.5 -3.5 -16.55 -3.35 -16.5 M-17.25 -16.55 L-17.05 -16.5 -16.85 -16.3 -16.6 -16.05 -16.55 -15.95 -16.55 -15.8 -16.55 -15.7 -15.85 -14.95 -15.8 -14.85 -15.8 -14.75 -15.85 -14.55 -15.9 -14.5 Q-16.3 -14.35 -16.6 -14.7 L-16.65 -14.8 -16.65 -14.9 -16.75 -14.95 -17.0 -15.0 -17.1 -15.3 -17.15 -15.55 -17.75 -16.05 -17.8 -16.15 -17.8 -16.3 -17.8 -16.4 -17.7 -16.5 -17.5 -16.55 -17.25 -16.55 M-9.8 11.2 L-10.5 11.25 -10.8 11.15 -10.85 11.05 -10.9 10.85 -10.85 10.7 -10.75 10.65 -10.6 10.6 -9.85 10.75 -9.75 10.85 -9.7 10.95 -9.7 11.0 -9.8 11.2 M-17.15 6.1 L-17.2 6.2 -17.55 6.4 -17.75 6.65 -17.85 6.75 -18.0 6.8 -18.2 6.75 -18.3 6.55 -18.3 6.2 -18.2 6.1 -17.95 5.75 -17.9 5.75 -17.75 5.7 -17.25 5.8 -17.15 5.85 -17.1 5.95 -17.15 6.1 M-21.85 0.8 L-21.75 0.85 -21.7 0.95 -21.75 1.1 -21.8 1.2 -22.75 1.25 -22.8 1.15 -22.8 0.9 -22.75 0.8 -22.65 0.75 -22.5 0.7 -21.85 0.8 M-4.75 43.0 L-4.65 43.0 -4.5 42.95 -3.65 43.05 -3.6 43.1 -3.55 43.2 -3.6 43.35 -3.65 43.45 -4.75 43.5 -4.8 43.4 -4.8 43.1 -4.75 43.0 M-79.75 41.85 L-79.8 41.65 -79.8 41.45 Q-79.25 40.75 -78.3 40.7 L-78.25 40.65 -78.15 40.55 -77.5 40.45 -77.35 40.5 -77.25 40.6 Q-77.1 40.8 -77.3 40.95 L-77.35 41.05 -77.7 41.2 -77.75 41.3 -77.8 41.35 Q-78.75 41.4 -79.5 41.9 L-79.75 41.85 M-52.85 33.55 L-51.85 33.8 -51.75 33.85 Q-51.65 33.95 -51.7 34.1 L-51.7 34.2 -51.75 34.4 -51.85 34.5 -52.0 34.55 -52.25 34.5 -52.3 34.4 -52.3 34.35 -52.85 34.2 -53.05 34.1 -53.15 33.8 -53.15 33.7 -53.1 33.6 -53.0 33.6 -52.85 33.55 M-53.35 39.75 L-53.25 39.85 -53.2 40.05 -53.25 40.2 Q-53.75 40.95 -54.5 41.0 L-54.55 40.8 -54.55 40.6 -53.75 39.8 -53.65 39.75 -53.5 39.7 -53.35 39.75 M-64.0 97.9 L-64.05 97.65 -64.0 97.55 -63.9 97.5 -63.75 97.45 -61.95 97.55 -61.9 97.6 -61.85 97.7 -61.9 97.85 -61.95 97.95 -62.15 98.0 -63.95 98.0 -64.0 97.9 M-10.65 70.85 L-10.65 70.6 -10.6 70.5 -10.5 70.45 -10.35 70.45 -10.35 70.4 -9.4 70.5 -9.35 70.55 -9.3 70.65 -9.35 70.85 -9.4 70.95 Q-9.95 71.2 -10.55 70.95 L-10.65 70.85 M-30.75 70.05 L-30.6 70.1 -30.5 70.2 Q-30.4 70.5 -30.45 70.85 L-30.45 71.05 -30.25 71.3 -30.2 71.4 -30.2 71.5 -30.3 71.7 Q-30.75 71.95 -31.05 71.45 L-31.05 70.3 -31.0 70.15 -30.9 70.1 -30.75 70.05 M-51.85 99.3 L-51.9 99.35 -52.15 99.75 -52.3 100.0 -52.5 100.05 -52.7 100.0 -52.75 99.45 -52.7 99.15 -52.65 99.05 -52.65 99.0 -52.55 99.0 -52.4 98.95 -52.0 99.05 -51.9 99.1 -51.85 99.2 -51.85 99.3 M-74.75 100.35 L-74.65 100.45 -74.6 100.55 -74.65 100.7 -75.0 101.2 -75.05 101.25 -75.45 101.25 Q-75.75 100.45 -74.9 100.3 L-74.75 100.35" fill="#cc0000" fill-rule="evenodd" stroke="none"/>
  </g>
</svg>
