<?xml version="1.0" encoding="UTF-8" standalone="no"?>
<svg xmlns:ffdec="https://www.free-decompiler.com/flash" xmlns:xlink="http://www.w3.org/1999/xlink" ffdec:objectType="shape" height="221.8px" width="145.6px" xmlns="http://www.w3.org/2000/svg">
  <g transform="matrix(1.0, 0.0, 0.0, 1.0, 83.8, 31.05)">
    <path d="M9.95 120.55 L13.5 132.2 0.9 131.3 -9.4 131.9 -4.05 120.3" fill="none" stroke="#000000" stroke-linecap="round" stroke-linejoin="round" stroke-width="3.0"/>
    <path d="M5.25 189.25 L0.1 149.0 -4.5 171.4 -4.35 188.85" fill="none" stroke="#000000" stroke-linecap="round" stroke-linejoin="round" stroke-width="3.0"/>
    <path d="M2.85 -31.0 L2.95 -31.05 3.1 -31.05 3.25 -31.0 3.35 -30.9 3.35 -29.5 3.3 -29.35 2.85 -29.35 2.75 -30.65 2.8 -30.85 2.85 -30.95 2.85 -31.0 M19.9 -22.0 L20.0 -21.9 Q20.15 -21.45 19.6 -21.25 L19.6 -21.15 19.55 -21.1 18.6 -21.0 18.55 -21.2 18.55 -21.4 Q18.7 -21.65 19.05 -21.7 L19.1 -21.8 19.1 -21.85 19.75 -22.05 19.9 -22.0 M2.35 -7.8 L2.4 -8.0 2.5 -8.05 2.65 -8.05 2.8 -8.0 2.9 -7.9 2.9 -7.75 2.85 -7.55 2.45 -7.5 2.35 -7.8 M42.15 10.8 L42.0 10.9 41.9 11.0 41.85 11.05 41.8 11.2 41.35 11.25 Q41.25 11.15 41.3 10.95 L41.35 10.8 41.45 10.75 41.45 10.6 41.45 10.45 41.7 10.35 41.7 10.3 41.7 10.1 42.0 9.95 42.15 10.0 42.25 10.1 42.3 10.55 42.25 10.75 42.15 10.8 M52.25 28.8 L53.15 28.9 53.25 28.95 53.25 29.05 53.25 29.2 53.2 29.3 51.7 29.6 51.6 29.7 51.55 29.8 51.4 29.8 50.75 29.75 50.7 29.65 50.7 29.4 50.75 29.3 50.85 29.25 51.35 28.95 52.0 28.85 52.25 28.8 M43.7 44.65 L43.65 44.75 43.55 44.8 43.4 44.9 43.2 44.85 43.0 44.55 42.85 44.35 42.85 44.3 42.85 44.2 42.85 44.1 43.15 43.95 Q43.7 44.1 43.7 44.65 M55.65 46.6 L55.75 46.6 55.9 46.55 56.3 46.65 56.4 46.7 56.45 46.8 56.4 46.95 56.35 47.05 55.7 47.1 55.6 46.9 55.65 46.6 M56.8 45.55 L56.8 45.7 56.9 45.8 57.15 45.95 57.25 46.2 57.15 46.5 57.05 46.55 56.9 46.65 56.7 46.6 56.4 46.3 56.25 46.2 56.2 46.1 56.2 46.05 56.2 45.95 56.0 45.85 56.0 45.75 55.95 45.75 55.85 45.35 55.85 45.1 56.15 44.95 56.75 45.45 56.8 45.55 M61.7 45.55 L61.25 45.6 60.95 45.5 60.85 45.4 60.85 45.15 60.9 45.05 61.0 45.0 61.15 44.95 61.65 45.05 61.75 45.1 61.8 45.2 61.75 45.45 61.7 45.55 M2.5 11.2 L2.55 11.75 2.6 12.25 2.65 12.45 2.65 12.5 2.55 12.7 2.05 12.75 Q1.85 12.25 1.95 11.75 L1.9 11.45 1.95 11.25 2.0 11.15 2.05 11.1 2.1 11.05 2.25 11.05 2.4 11.1 2.5 11.2 M9.5 37.45 L10.25 37.55 10.35 37.6 10.4 37.7 10.35 37.85 10.3 37.95 9.3 38.0 9.2 37.9 9.2 37.6 9.25 37.5 9.35 37.5 9.5 37.45 M8.25 55.6 L8.3 55.7 8.25 55.85 8.2 55.95 8.15 56.0 7.95 56.1 7.9 56.2 7.85 56.25 7.8 56.35 7.75 56.4 7.35 56.4 7.25 56.1 7.3 55.65 7.35 55.55 7.35 55.5 7.45 55.45 7.6 55.45 8.2 55.55 8.25 55.6 M2.4 50.0 L2.5 50.1 2.55 50.2 2.5 50.35 2.45 50.45 1.75 50.4 1.7 50.2 Q1.65 50.05 1.75 49.95 L1.85 49.9 2.0 49.85 2.4 50.0 M-20.75 -18.7 L-20.65 -18.75 -20.5 -18.8 -20.1 -18.8 -19.9 -18.75 -19.5 -18.35 -19.3 -18.0 -19.3 -17.9 -19.35 -17.8 -19.4 -17.75 -19.6 -17.7 -20.0 -17.9 -20.1 -17.95 -20.3 -18.0 -20.4 -18.1 -20.4 -18.15 -20.5 -18.2 -20.75 -18.25 -20.8 -18.35 -20.8 -18.6 -20.75 -18.7 M-3.35 -19.2 L-3.2 -19.15 -3.1 -19.05 -3.05 -18.05 -3.1 -17.85 -3.2 -17.75 -3.35 -17.7 -3.55 -17.75 -3.65 -18.9 -3.65 -19.05 -3.35 -19.2 M-8.95 10.45 L-8.85 10.5 Q-8.75 10.65 -8.8 10.85 L-8.85 11.05 -8.95 11.15 -9.1 11.2 -9.3 11.15 -9.45 10.95 -9.55 10.75 -9.55 10.7 -9.55 10.6 -9.55 10.5 -9.25 10.35 -8.95 10.45 M-18.0 3.85 L-17.9 3.95 -17.85 4.05 -17.9 4.2 -17.95 4.3 -18.05 4.4 -18.15 4.6 -18.2 4.75 -18.65 4.75 -18.7 4.3 -18.7 4.1 -18.15 3.8 -18.0 3.85 M-25.15 1.0 L-25.0 0.95 -24.4 1.05 -24.35 1.1 -24.3 1.2 -24.35 1.35 -24.4 1.45 -24.45 1.5 -24.65 1.6 -24.7 1.7 -24.75 1.85 -24.8 1.95 -24.85 2.0 -25.25 2.0 -25.35 1.6 -25.3 1.15 -25.25 1.05 -25.25 1.0 -25.15 1.0 M-4.25 43.95 L-4.1 44.0 -4.0 44.1 Q-3.9 44.2 -3.95 44.35 L-4.0 44.55 -4.75 44.65 -4.8 44.45 -4.8 44.25 -4.5 44.0 -4.4 43.95 -4.25 43.95 M-55.85 33.2 L-55.15 33.3 -55.1 33.35 -55.05 33.45 -55.1 33.6 -55.15 33.7 -56.05 33.75 -56.1 33.65 -56.15 33.4 -56.1 33.3 -56.0 33.25 -55.85 33.2 M-57.15 42.8 L-57.15 42.6 -56.85 42.45 -56.7 42.5 -56.6 42.6 -56.55 42.95 -56.6 43.15 -56.7 43.25 -56.85 43.3 -57.05 43.25 -57.15 42.8 M-65.95 98.9 L-65.8 99.0 -65.75 99.1 -65.7 99.2 Q-65.25 99.15 -64.9 99.45 L-64.9 99.7 -64.95 99.8 -66.2 99.65 Q-66.2 99.45 -66.45 99.5 L-66.55 99.1 -66.55 98.95 -66.25 98.8 Q-66.05 98.8 -65.95 98.9 M-10.8 73.0 L-10.8 72.9 -10.8 72.65 -10.75 72.55 -10.75 72.45 -10.65 72.45 -10.5 72.45 -10.5 72.4 -9.85 72.65 -9.75 72.7 -9.7 72.8 -9.7 72.85 -9.8 73.05 -10.75 73.1 -10.8 73.0 M-31.15 72.6 L-30.95 72.9 -30.95 72.95 -31.0 73.05 -31.05 73.2 -31.75 73.1 -31.8 72.45 -31.75 72.25 -31.65 72.2 -31.5 72.15 -31.3 72.2 -31.2 72.4 -31.15 72.6 M-83.8 42.95 L-83.75 42.8 -83.15 42.6 -83.1 42.55 -83.0 42.45 -82.85 42.45 -82.6 42.5 -82.5 42.6 -82.55 43.05 -82.6 43.15 -83.75 43.25 -83.8 42.95 M-54.2 101.85 L-54.15 101.8 -54.05 101.7 -53.95 101.5 -53.9 101.35 -53.8 101.3 -53.65 101.3 -53.5 101.35 -53.4 101.45 Q-53.3 101.55 -53.35 101.7 L-53.35 101.9 Q-53.6 102.4 -54.15 102.25 L-54.2 102.05 -54.2 101.85 M-79.95 100.6 L-79.85 100.5 -79.65 100.45 -79.25 100.55 -79.15 100.6 -79.1 100.7 -79.1 100.8 -79.15 100.85 -79.3 101.05 -79.4 101.25 Q-79.5 101.45 -79.75 101.4 L-79.95 101.35 -80.05 100.85 -79.95 100.6" fill="#cc0000" fill-rule="evenodd" stroke="none"/>
  </g>
</svg>
