<?xml version="1.0" encoding="UTF-8" standalone="no"?>
<svg xmlns:ffdec="https://www.free-decompiler.com/flash" xmlns:xlink="http://www.w3.org/1999/xlink" ffdec:objectType="shape" height="225.85px" width="150.25px" xmlns="http://www.w3.org/2000/svg">
  <g transform="matrix(1.0, 0.0, 0.0, 1.0, 86.95, 32.9)">
    <path d="M11.5 133.3 L10.9 144.5 -0.1 139.45 -9.35 143.75 -7.45 131.7" fill="none" stroke="#000000" stroke-linecap="round" stroke-linejoin="round" stroke-width="3.0"/>
    <path d="M9.2 191.45 L10.0 176.05 -0.05 154.2 -11.6 173.05 -8.65 190.35" fill="none" stroke="#000000" stroke-linecap="round" stroke-linejoin="round" stroke-width="3.0"/>
    <path d="M2.8 -32.75 L3.1 -32.9 3.25 -32.85 3.35 -32.75 3.4 -32.3 3.35 -32.1 3.25 -32.05 3.1 -31.95 2.85 -32.0 Q2.75 -32.25 2.8 -32.55 L2.8 -32.75 M2.35 -8.3 L2.4 -8.5 2.5 -8.55 2.65 -8.55 2.8 -8.5 2.9 -8.4 2.9 -8.25 2.85 -8.05 2.45 -8.0 2.35 -8.3 M23.25 -22.5 L23.3 -22.4 23.25 -22.25 23.2 -22.15 22.55 -22.1 22.45 -22.3 22.5 -22.55 22.6 -22.6 22.75 -22.65 23.15 -22.55 23.25 -22.5 M43.0 9.85 L43.1 9.85 43.25 9.8 43.5 9.8 43.7 9.85 43.8 10.0 43.9 10.3 Q43.6 10.75 43.2 10.45 L43.05 10.35 42.95 10.15 43.0 9.85 M55.05 30.55 L55.15 30.6 55.15 30.8 55.1 30.95 53.2 30.75 53.1 30.45 53.15 30.3 53.25 30.25 53.4 30.2 55.05 30.55 M43.9 45.1 L44.0 45.2 44.05 45.55 44.0 45.75 43.9 45.8 43.75 45.9 43.5 45.85 Q43.4 45.65 43.45 45.35 L43.45 45.2 43.75 45.05 43.9 45.1 M58.15 47.05 Q58.75 47.0 59.15 47.45 L59.2 47.55 59.2 47.6 59.1 47.8 58.65 47.85 Q58.35 48.0 58.15 47.7 L57.95 47.6 57.85 47.5 57.9 47.1 58.0 47.05 58.15 47.05 M57.25 47.1 L57.25 47.3 57.2 47.45 56.75 47.5 56.7 47.2 56.75 47.05 56.85 47.0 57.0 46.95 57.15 47.0 57.25 47.1 M63.15 45.75 L63.25 45.85 63.25 46.1 63.2 46.2 62.7 46.25 62.6 45.95 62.65 45.8 62.9 45.7 63.15 45.75 M1.5 10.55 L1.65 10.6 1.75 10.7 1.85 10.95 1.85 11.15 2.1 11.45 2.15 11.55 2.15 11.6 2.05 11.8 1.35 11.85 1.15 10.9 1.25 10.6 1.35 10.55 1.5 10.55 M9.5 36.95 L9.9 37.05 10.0 37.1 10.05 37.2 10.0 37.35 9.95 37.45 9.3 37.5 9.2 37.3 Q9.15 37.15 9.25 37.0 L9.35 37.0 9.5 36.95 M1.6 50.6 L1.65 50.45 1.75 50.4 1.9 50.35 2.05 50.4 2.15 50.5 2.15 50.7 2.1 50.85 1.7 50.9 1.6 50.6 M7.75 56.45 L7.85 56.35 8.0 56.35 8.15 56.4 8.25 56.5 8.35 57.35 8.3 57.5 7.85 57.5 7.7 56.75 7.7 56.55 7.75 56.45 M-24.3 -19.25 L-24.5 -19.45 -24.55 -19.55 -24.55 -19.7 -24.55 -19.8 -24.45 -19.9 -24.25 -19.95 -24.0 -19.95 -23.8 -19.9 -23.75 -19.8 -23.7 -19.75 -23.6 -19.7 -23.35 -19.55 -23.3 -19.45 -23.4 -19.2 -24.25 -19.15 -24.3 -19.25 M-3.35 -20.7 L-3.2 -20.65 -3.1 -20.55 -3.05 -20.2 -3.1 -20.0 -3.2 -19.95 -3.35 -19.85 -3.55 -19.9 -3.65 -20.4 -3.65 -20.55 -3.35 -20.7 M-8.5 10.8 L-8.6 10.9 -8.75 10.95 -9.0 10.9 -9.05 10.5 -9.05 10.35 -8.75 10.2 -8.6 10.25 -8.5 10.35 Q-8.4 10.45 -8.45 10.6 L-8.5 10.8 M-18.6 2.8 L-18.5 2.85 -18.5 3.05 -18.55 3.2 -19.15 3.25 -19.2 2.95 -19.15 2.8 -19.05 2.75 -18.9 2.7 -18.6 2.8 M-26.25 1.45 L-25.95 1.55 -25.85 1.6 -25.85 1.8 -25.9 1.95 -26.5 2.0 -26.55 1.7 -26.5 1.55 -26.4 1.5 -26.25 1.45 M-4.75 45.1 L-4.45 45.2 -4.35 45.25 -4.35 45.45 -4.4 45.6 -5.0 45.65 -5.05 45.35 -5.0 45.2 -4.9 45.15 -4.75 45.1 M-57.1 33.3 L-57.0 33.35 -57.0 33.6 -57.05 33.7 -57.55 33.75 -57.65 33.45 -57.6 33.3 -57.35 33.2 -57.1 33.3 M-57.6 44.0 L-57.5 44.1 Q-57.4 44.25 -57.45 44.45 L-57.5 44.65 -58.0 44.9 -58.25 44.85 -58.35 44.55 -58.3 44.35 -58.0 44.0 -57.75 43.95 -57.6 44.0 M-11.15 73.95 L-11.1 73.75 -10.85 73.7 -10.85 73.65 -10.6 73.75 -10.5 73.8 -10.5 74.1 -10.55 74.2 -11.05 74.2 -11.15 73.95 M-32.1 73.4 Q-31.6 73.45 -31.45 73.95 L-31.45 74.05 -31.6 74.2 -31.75 74.3 -32.35 73.95 -32.4 73.75 -32.4 73.55 -32.1 73.45 -32.1 73.4 M-86.5 43.95 L-85.65 44.05 -85.6 44.1 -85.55 44.2 -85.6 44.35 -85.65 44.45 -85.7 44.5 -86.25 44.6 -86.3 44.7 -86.45 44.85 -86.6 44.9 -86.8 44.85 -86.85 44.75 -86.85 44.2 -86.8 44.1 -86.7 44.0 -86.5 43.95 M-83.25 100.75 L-83.15 100.85 -83.1 101.05 -83.15 101.1 -83.3 101.3 -83.35 101.35 -83.9 101.35 -83.95 101.15 -83.95 100.95 -83.65 100.7 -83.5 100.7 -83.25 100.75 M-54.25 102.85 L-54.15 102.95 -54.1 103.3 -54.15 103.5 -54.25 103.55 -54.4 103.65 -54.65 103.6 -54.7 103.1 -54.7 102.95 -54.4 102.8 -54.25 102.85 M-67.75 100.8 L-67.55 100.85 -67.0 101.3 -66.9 101.35 -66.9 101.55 -66.95 101.7 -67.95 101.6 -68.1 101.2 -68.05 100.95 -67.75 100.8" fill="#cc0000" fill-rule="evenodd" stroke="none"/>
  </g>
</svg>
