<?xml version="1.0" encoding="UTF-8" standalone="no"?>
<svg xmlns:ffdec="https://www.free-decompiler.com/flash" xmlns:xlink="http://www.w3.org/1999/xlink" ffdec:objectType="shape" height="226.35px" width="153.05px" xmlns="http://www.w3.org/2000/svg">
  <g transform="matrix(1.0, 0.0, 0.0, 1.0, 89.15, 34.65)">
    <path d="M0.0 155.65 L0.85 142.6" fill="none" stroke="#000000" stroke-linecap="round" stroke-linejoin="round" stroke-width="3.0"/>
    <path d="M14.5 139.5 L10.9 149.65 0.95 142.4 -9.0 149.1 -8.3 137.9" fill="none" stroke="#000000" stroke-linecap="round" stroke-linejoin="round" stroke-width="3.0"/>
    <path d="M13.75 190.2 L13.3 174.1 -0.05 154.2 -14.55 170.2 -13.2 188.45" fill="none" stroke="#000000" stroke-linecap="round" stroke-linejoin="round" stroke-width="3.0"/>
    <path d="M3.1 -34.65 L3.25 -34.6 3.35 -34.5 3.4 -34.05 3.35 -33.85 3.25 -33.8 3.1 -33.7 2.85 -33.75 Q2.75 -34.0 2.8 -34.3 L2.8 -34.5 3.1 -34.65 M25.9 -22.55 L26.0 -22.5 26.05 -22.4 26.0 -22.25 25.95 -22.15 25.1 -22.1 25.05 -22.2 25.05 -22.45 25.1 -22.55 25.2 -22.6 25.35 -22.65 25.9 -22.55 M44.5 9.95 L44.5 10.1 44.45 10.3 44.05 10.35 43.95 10.05 44.0 9.85 44.1 9.8 44.25 9.8 44.4 9.85 44.5 9.95 M57.0 32.3 L56.95 32.45 56.15 32.5 55.75 31.95 55.7 31.85 55.7 31.55 55.75 31.35 55.85 31.3 56.0 31.3 56.15 31.35 56.9 32.05 57.0 32.1 57.0 32.3 M44.05 46.5 L44.15 46.6 44.15 46.8 44.1 46.95 43.7 47.0 43.6 46.7 43.65 46.55 43.75 46.5 43.9 46.45 44.05 46.5 M57.35 47.45 L57.4 47.3 57.5 47.25 57.65 47.2 57.8 47.25 57.9 47.35 57.9 47.55 57.85 47.7 57.45 47.75 57.35 47.45 M59.2 48.6 L59.2 48.45 59.5 48.3 59.8 48.35 59.9 48.45 59.95 48.7 60.05 48.75 60.15 48.85 60.15 49.05 60.1 49.2 59.7 49.25 59.6 49.05 59.25 48.8 59.2 48.6 M63.85 46.3 L63.45 46.35 63.35 46.05 63.4 45.85 63.5 45.8 63.65 45.8 63.8 45.85 63.9 45.95 63.9 46.1 63.85 46.3 M1.05 10.8 Q0.7 11.05 0.45 10.65 L0.45 10.45 0.5 10.3 0.75 10.2 1.0 10.3 1.1 10.35 1.15 10.6 1.05 10.8 M9.1 36.75 L9.2 36.75 9.35 36.7 9.65 36.75 9.75 36.85 9.75 37.0 9.7 37.2 9.1 37.25 9.05 36.95 9.1 36.75 M1.5 50.7 L1.65 50.7 1.8 50.75 1.9 50.85 1.9 51.0 1.85 51.2 1.45 51.25 1.35 50.95 1.4 50.75 1.5 50.7 M8.55 58.25 L8.45 58.15 8.45 57.85 8.5 57.75 8.6 57.75 8.75 57.7 9.25 57.8 9.35 57.85 9.4 57.95 9.4 58.2 9.35 58.3 9.25 58.4 9.1 58.45 8.85 58.35 8.55 58.25 M-26.05 -19.5 L-26.15 -19.8 -26.1 -19.95 -25.85 -20.05 -25.6 -19.95 -25.5 -19.9 -25.5 -19.65 -25.55 -19.55 -26.05 -19.5 M-3.0 -21.2 L-3.05 -21.05 -3.5 -21.0 -3.55 -21.3 -3.5 -21.45 -3.4 -21.5 -3.25 -21.55 -3.1 -21.5 -3.0 -21.4 -3.0 -21.2 M-8.6 10.6 L-8.35 10.7 -8.25 10.75 -8.25 11.0 -8.3 11.1 -8.8 11.15 -8.9 10.85 -8.85 10.7 -8.6 10.6 M-19.25 1.8 L-19.1 1.85 -19.0 1.95 Q-18.9 2.05 -18.95 2.2 L-19.0 2.4 -19.1 2.5 -19.25 2.55 -19.45 2.5 -19.55 2.1 -19.55 1.95 -19.25 1.8 M-26.75 2.2 L-26.75 2.35 -26.8 2.55 -27.25 2.6 -27.3 2.3 -27.25 2.1 -27.15 2.05 -27.0 2.05 -26.85 2.1 -26.75 2.2 M-4.4 46.35 L-4.8 46.4 -4.9 46.1 -4.85 45.95 -4.75 45.9 -4.6 45.85 -4.45 45.9 -4.35 46.0 -4.35 46.2 -4.4 46.35 M-58.35 33.55 L-58.25 33.6 -58.2 33.7 -58.25 33.85 -58.3 33.95 -59.0 34.0 -59.05 33.8 -59.0 33.55 -58.9 33.5 -58.75 33.45 -58.35 33.55 M-58.6 45.75 L-58.5 45.85 -58.5 46.1 -58.55 46.2 -59.05 46.25 -59.15 45.95 -59.1 45.8 -58.85 45.7 -58.6 45.75 M-32.15 74.95 L-32.55 74.95 -32.65 74.7 -32.6 74.5 -32.5 74.45 -32.35 74.4 -32.2 74.5 -32.1 74.55 -32.1 74.75 -32.15 74.95 M-10.95 74.6 L-10.85 74.7 -10.85 74.85 -10.9 75.05 -11.3 75.1 -11.4 74.8 -11.35 74.65 -11.25 74.6 -11.1 74.55 -10.95 74.6 M-88.65 45.35 L-88.6 45.45 Q-88.5 45.55 -88.55 45.7 L-88.6 45.9 -88.65 46.0 -88.85 46.05 -89.05 46.0 -89.15 45.6 -89.15 45.45 -88.85 45.3 -88.65 45.35 M-85.9 101.35 L-85.95 101.55 -86.4 101.6 -86.45 101.3 -86.4 101.1 -86.3 101.05 -86.15 101.05 -86.0 101.1 -85.9 101.2 -85.9 101.35 M-54.85 104.25 L-54.75 104.35 Q-54.65 104.45 -54.7 104.6 L-54.8 104.8 -55.4 104.85 -55.45 104.65 -55.45 104.45 -55.25 104.3 -55.15 104.2 -55.0 104.2 -54.85 104.25 M-67.9 101.7 L-67.95 102.35 -68.05 102.5 -68.45 102.5 -68.6 101.95 -68.55 101.75 -68.5 101.65 -68.45 101.6 -68.4 101.55 -68.25 101.55 -68.0 101.6 -67.9 101.7" fill="#cc0000" fill-rule="evenodd" stroke="none"/>
  </g>
</svg>
