<?xml version="1.0" encoding="UTF-8" standalone="no"?>
<svg xmlns:ffdec="https://www.free-decompiler.com/flash" xmlns:xlink="http://www.w3.org/1999/xlink" ffdec:objectType="shape" height="225.95px" width="154.95px" xmlns="http://www.w3.org/2000/svg">
  <g transform="matrix(1.0, 0.0, 0.0, 1.0, 90.55, 35.15)">
    <path d="M0.0 155.65 L0.85 145.75" fill="none" stroke="#000000" stroke-linecap="round" stroke-linejoin="round" stroke-width="3.0"/>
    <path d="M13.9 146.25 L9.85 155.3 0.65 145.55 -7.6 154.05 -9.2 145.25" fill="none" stroke="#000000" stroke-linecap="round" stroke-linejoin="round" stroke-width="3.0"/>
    <path d="M16.9 189.3 L15.2 173.3 -0.05 154.2 -16.35 169.1 -15.85 187.25" fill="none" stroke="#000000" stroke-linecap="round" stroke-linejoin="round" stroke-width="3.0"/>
    <path d="M3.35 -35.0 L3.35 -34.8 3.3 -34.65 2.85 -34.6 Q2.75 -34.7 2.8 -34.9 L2.85 -35.05 2.95 -35.1 3.1 -35.15 3.25 -35.1 3.35 -35.0 M26.45 -22.4 L26.5 -22.55 26.6 -22.6 26.75 -22.65 26.9 -22.6 27.0 -22.5 27.0 -22.3 26.95 -22.15 26.55 -22.1 26.45 -22.4 M45.1 9.55 L45.25 9.6 45.35 9.7 45.35 9.85 45.3 10.05 44.85 10.1 44.8 9.8 44.85 9.6 44.95 9.55 45.1 9.55 M57.1 33.0 L57.25 32.95 57.4 33.0 57.5 33.1 57.5 34.0 57.45 34.2 57.0 34.25 56.95 33.2 57.0 33.05 57.1 33.0 M44.5 47.1 L44.55 47.45 44.5 47.65 44.4 47.75 44.25 47.8 44.0 47.75 43.95 47.3 43.95 47.1 44.25 46.95 44.4 47.0 44.5 47.1 M57.85 47.45 L57.9 47.3 58.0 47.25 58.15 47.2 58.3 47.25 58.4 47.35 58.4 47.55 58.35 47.7 57.95 47.75 57.85 47.45 M64.15 46.2 L64.3 46.25 64.4 46.35 64.4 46.55 64.35 46.7 63.95 46.75 63.85 46.45 63.9 46.3 64.0 46.25 64.15 46.2 M0.2 10.45 L0.25 10.3 0.35 10.25 0.5 10.2 0.65 10.25 0.75 10.35 0.75 10.55 0.7 10.7 0.3 10.75 0.2 10.45 M9.6 36.35 L9.6 36.5 9.55 36.7 9.1 36.75 9.05 36.45 9.1 36.25 9.2 36.2 9.35 36.2 9.5 36.25 9.6 36.35 M9.65 58.5 L9.75 58.6 9.8 58.7 9.75 58.85 9.7 58.95 9.05 59.0 8.95 58.8 Q8.9 58.65 9.0 58.5 L9.1 58.5 9.25 58.45 9.65 58.5 M60.9 49.6 L60.9 49.8 60.85 49.95 60.45 50.0 60.35 49.7 60.4 49.55 60.5 49.5 60.65 49.45 60.8 49.5 60.9 49.6 M-27.85 -19.9 L-27.75 -19.9 -27.6 -19.95 -27.2 -19.85 -27.1 -19.8 -27.05 -19.7 -27.1 -19.55 -27.15 -19.45 -27.8 -19.4 -27.9 -19.6 -27.85 -19.9 M-3.55 -22.05 L-3.5 -22.2 -3.4 -22.25 -3.25 -22.3 -3.1 -22.25 -3.0 -22.15 -3.0 -21.95 -3.05 -21.8 -3.5 -21.75 -3.55 -22.05 M-8.2 10.75 L-8.1 10.85 -8.1 11.0 -8.15 11.2 -8.55 11.25 -8.65 10.95 -8.6 10.75 -8.5 10.7 -8.35 10.7 -8.2 10.75 M-19.65 1.45 L-19.35 1.55 -19.25 1.6 -19.25 1.8 -19.3 1.95 -19.9 2.0 -19.95 1.7 -19.9 1.55 -19.8 1.5 -19.65 1.45 M-27.8 2.6 L-27.9 2.3 -27.85 2.1 -27.75 2.05 -27.6 2.05 -27.45 2.1 -27.35 2.2 -27.35 2.35 -27.4 2.55 -27.8 2.6 M-4.6 46.35 L-4.45 46.4 -4.35 46.5 -4.35 46.7 -4.4 46.85 -4.8 46.9 -4.9 46.6 -4.85 46.45 -4.75 46.4 -4.6 46.35 M-59.1 34.1 L-59.0 34.2 -59.0 34.35 -59.05 34.55 -59.5 34.6 -59.55 34.3 -59.5 34.1 -59.4 34.05 -59.25 34.05 -59.1 34.1 M-58.95 46.55 L-58.85 46.6 -58.85 46.8 -58.9 46.95 -59.5 47.0 -59.55 46.7 -59.5 46.55 -59.4 46.5 -59.25 46.45 -58.95 46.55 M-32.5 75.15 L-32.35 75.25 -32.25 75.3 -32.25 75.5 -32.3 75.7 -32.75 75.7 -32.8 75.45 -32.75 75.25 -32.65 75.2 -32.5 75.15 M-11.1 75.0 L-11.0 75.05 -11.0 75.25 -11.05 75.45 -11.5 75.45 -11.55 75.2 -11.5 75.0 -11.4 74.95 -11.25 74.9 -11.1 75.0 M-90.1 46.1 L-90.0 46.2 -90.0 46.35 -90.05 46.55 -90.5 46.6 -90.55 46.3 -90.5 46.1 -90.4 46.05 -90.25 46.05 -90.1 46.1 M-86.75 101.6 L-86.65 101.7 -86.65 101.85 -86.7 102.05 -87.15 102.1 -87.2 101.8 -87.15 101.6 -87.05 101.55 -86.9 101.55 -86.75 101.6 M-54.9 105.45 Q-54.8 105.55 -54.85 105.7 L-54.9 105.9 -55.0 106.0 -55.15 106.05 -55.4 106.0 -55.45 105.6 -55.45 105.45 -55.15 105.3 -55.0 105.35 -54.9 105.45 M-69.4 102.8 L-69.1 102.85 -69.0 102.95 -69.0 103.1 -69.05 103.3 -69.65 103.35 -69.7 103.05 -69.65 102.85 -69.55 102.85 -69.4 102.8" fill="#cc0000" fill-rule="evenodd" stroke="none"/>
  </g>
</svg>
