<?xml version="1.0" encoding="UTF-8" standalone="no"?>
<svg xmlns:ffdec="https://www.free-decompiler.com/flash" xmlns:xlink="http://www.w3.org/1999/xlink" ffdec:objectType="shape" height="141.95px" width="152.05px" xmlns="http://www.w3.org/2000/svg">
  <g transform="matrix(1.0, 0.0, 0.0, 1.0, 91.05, 35.55)">
    <path d="M3.3 -35.05 L2.85 -35.0 2.8 -35.3 2.85 -35.5 2.95 -35.55 3.1 -35.55 3.25 -35.5 3.35 -35.4 3.35 -35.25 3.3 -35.05 M27.4 -22.6 L27.5 -22.5 27.5 -22.3 27.45 -22.15 27.05 -22.1 26.95 -22.4 27.0 -22.55 27.1 -22.6 27.25 -22.65 27.4 -22.6 M45.1 9.6 L45.2 9.55 45.35 9.55 45.5 9.6 45.6 9.7 45.6 9.85 45.55 10.05 45.1 10.1 45.05 9.8 45.1 9.6 M58.15 34.5 L58.25 34.6 58.3 34.85 58.3 35.05 57.9 35.4 57.65 35.35 Q57.45 35.0 57.65 34.7 L57.7 34.6 58.0 34.45 58.15 34.5 M44.5 47.85 L44.5 48.05 44.45 48.2 44.0 48.25 43.95 47.95 44.0 47.8 44.1 47.75 44.25 47.7 44.4 47.75 44.5 47.85 M58.1 47.45 L58.15 47.3 58.25 47.25 58.4 47.2 58.55 47.25 58.65 47.35 58.65 47.55 58.6 47.7 58.2 47.75 58.1 47.45 M0.2 10.7 L-0.2 10.75 -0.3 10.45 -0.25 10.3 -0.15 10.25 0.0 10.2 0.15 10.25 0.25 10.35 0.25 10.55 0.2 10.7 M8.8 36.2 L8.85 36.0 8.95 35.95 9.1 35.95 9.25 36.0 9.35 36.1 9.35 36.25 9.3 36.45 8.85 36.5 8.8 36.2 M9.75 58.9 L9.85 59.0 9.85 59.2 9.8 59.35 9.35 59.4 9.3 59.1 9.35 58.95 9.45 58.9 9.6 58.85 9.75 58.9 M60.9 49.6 L61.0 49.7 61.0 49.85 60.95 50.05 60.5 50.1 60.45 49.8 60.5 49.6 60.6 49.55 60.75 49.55 60.9 49.6 M-28.1 -19.45 L-28.15 -19.3 -28.75 -19.25 -28.8 -19.55 -28.75 -19.7 -28.65 -19.75 -28.5 -19.8 -28.2 -19.7 -28.1 -19.65 -28.1 -19.45 M-3.0 -22.55 L-3.0 -22.4 -3.05 -22.2 -3.5 -22.15 -3.55 -22.45 -3.5 -22.65 -3.4 -22.7 -3.25 -22.7 -3.1 -22.65 -3.0 -22.55 M-19.9 1.2 L-19.75 1.25 -19.65 1.35 -19.65 1.55 -19.7 1.7 -20.15 1.75 -20.2 1.45 -20.15 1.3 -20.05 1.25 -19.9 1.2 M-27.6 2.25 L-27.5 2.35 -27.5 2.55 -27.55 2.7 -28.0 2.75 -28.05 2.45 -28.0 2.3 -27.9 2.25 -27.75 2.2 -27.6 2.25 M-4.35 47.0 L-4.4 47.2 -4.8 47.25 -4.9 46.95 -4.85 46.75 -4.75 46.7 -4.6 46.7 -4.45 46.75 -4.35 46.85 -4.35 47.0 M-59.25 34.35 L-59.3 34.55 -59.75 34.6 -59.8 34.3 -59.75 34.1 -59.65 34.05 -59.5 34.05 -59.35 34.1 -59.25 34.2 -59.25 34.35 M-59.25 47.3 L-59.3 47.45 -59.75 47.5 -59.8 47.2 -59.75 47.05 -59.65 47.0 -59.5 46.95 -59.35 47.0 -59.25 47.1 -59.25 47.3 M-32.65 76.05 L-33.05 76.1 -33.15 75.8 -33.1 75.65 -33.0 75.6 -32.85 75.55 -32.7 75.6 -32.6 75.7 -32.6 75.85 -32.65 76.05 M-11.25 75.45 L-11.25 75.6 -11.3 75.8 -11.75 75.85 -11.8 75.55 -11.75 75.4 -11.65 75.35 -11.5 75.3 -11.35 75.35 -11.25 75.45 M-90.6 46.25 L-90.5 46.35 -90.5 46.55 -90.55 46.7 -91.0 46.75 -91.05 46.45 -91.0 46.3 -90.9 46.25 -90.75 46.2 -90.6 46.25 M-87.65 102.05 L-87.5 102.1 -87.4 102.2 -87.4 102.35 -87.45 102.55 -87.9 102.6 -87.95 102.3 -87.9 102.1 -87.8 102.05 -87.65 102.05 M-55.8 105.95 L-55.75 105.8 -55.65 105.75 -55.5 105.7 -55.35 105.75 -55.25 105.85 Q-55.15 105.95 -55.2 106.1 L-55.3 106.3 -55.7 106.35 -55.8 105.95 M-69.5 103.55 L-69.55 103.7 -69.95 103.75 -70.05 103.45 -70.0 103.3 -69.9 103.25 -69.75 103.2 -69.6 103.25 -69.5 103.35 -69.5 103.55" fill="#cc0000" fill-rule="evenodd" stroke="none"/>
  </g>
</svg>
