<?xml version="1.0" encoding="UTF-8" standalone="no"?>
<svg xmlns:ffdec="https://www.free-decompiler.com/flash" xmlns:xlink="http://www.w3.org/1999/xlink" ffdec:objectType="shape" height="129.35px" width="152.65px" xmlns="http://www.w3.org/2000/svg">
  <g transform="matrix(1.0, 0.0, 0.0, 1.0, 91.4, 22.95)">
    <path d="M27.65 -22.6 L27.75 -22.5 27.75 -22.3 27.7 -22.15 27.3 -22.1 27.2 -22.4 27.25 -22.55 27.35 -22.6 27.5 -22.65 27.65 -22.6 M45.5 9.45 L45.65 9.5 45.75 9.6 45.75 9.8 45.7 9.95 45.3 10.0 45.2 9.7 45.25 9.55 45.35 9.5 45.5 9.45 M57.85 36.4 Q57.8 36.25 57.9 36.1 L58.0 36.1 58.15 36.05 58.55 36.1 58.65 36.2 58.7 36.3 58.65 36.45 58.6 36.55 57.9 36.6 57.85 36.4 M58.45 47.45 L58.5 47.3 58.6 47.25 58.75 47.2 58.9 47.25 59.0 47.35 59.0 47.55 58.95 47.7 58.5 47.75 Q58.4 47.65 58.45 47.45 M0.1 10.6 L0.1 10.8 0.05 10.95 -0.4 11.0 -0.45 10.7 -0.4 10.55 -0.3 10.5 -0.15 10.45 0.0 10.5 0.1 10.6 M10.0 58.9 L10.1 59.0 10.1 59.2 10.05 59.35 9.6 59.4 Q9.5 59.3 9.55 59.1 L9.6 58.95 9.7 58.9 9.85 58.85 10.0 58.9 M60.75 50.35 L60.7 50.05 60.75 49.85 60.85 49.8 61.0 49.8 61.15 49.85 61.25 49.95 61.25 50.1 61.2 50.3 60.75 50.35 M-29.25 -19.55 L-29.1 -19.5 -29.0 -19.4 -29.0 -19.2 -29.05 -19.05 -29.5 -19.0 -29.55 -19.3 -29.5 -19.45 -29.4 -19.5 -29.25 -19.55 M-3.0 -22.65 L-3.05 -22.45 -3.5 -22.4 -3.55 -22.7 -3.5 -22.9 -3.4 -22.95 -3.25 -22.95 -3.1 -22.9 -3.0 -22.8 -3.0 -22.65 M-20.0 1.05 L-19.85 1.1 -19.75 1.2 -19.75 1.35 -19.8 1.55 -20.2 1.6 -20.3 1.3 -20.25 1.1 -20.15 1.05 -20.0 1.05 M-59.35 34.35 L-59.4 34.55 -59.8 34.6 -59.9 34.3 -59.85 34.1 -59.75 34.05 -59.6 34.05 -59.45 34.1 -59.35 34.2 -59.35 34.35 M-59.35 47.45 Q-59.25 47.95 -59.85 48.15 L-60.05 48.1 -60.15 47.9 -60.15 47.7 -59.9 47.45 -59.8 47.35 -59.6 47.3 -59.45 47.35 -59.35 47.45 M-32.7 76.0 L-32.6 76.05 -32.6 76.25 -32.65 76.45 -33.05 76.45 -33.15 76.2 -33.1 76.0 -33.0 75.95 -32.85 75.9 -32.7 76.0 M-91.4 46.7 L-91.35 46.55 -91.25 46.5 -91.1 46.45 -90.9 46.5 -90.85 46.6 -90.85 46.8 -90.9 46.95 -91.3 47.0 -91.4 46.7 M-87.6 102.35 L-87.5 102.45 -87.5 102.6 -87.55 102.8 -87.95 102.85 -88.05 102.55 -88.0 102.35 -87.9 102.3 -87.75 102.3 -87.6 102.35 M-56.05 106.05 L-56.0 105.85 -55.9 105.8 -55.75 105.8 -55.6 105.85 -55.5 105.95 -55.5 106.1 -55.55 106.3 -55.95 106.35 -56.05 106.05 M-70.2 104.3 L-70.65 104.35 -70.7 104.05 -70.65 103.85 -70.55 103.8 -70.4 103.8 -70.25 103.85 -70.15 103.95 -70.15 104.1 -70.2 104.3" fill="#cc0000" fill-rule="evenodd" stroke="none"/>
  </g>
</svg>
