<?xml version="1.0" encoding="UTF-8" standalone="no"?>
<svg xmlns:ffdec="https://www.free-decompiler.com/flash" xmlns:xlink="http://www.w3.org/1999/xlink" ffdec:objectType="shape" height="96.2px" width="153.3px" xmlns="http://www.w3.org/2000/svg">
  <g transform="matrix(1.0, 0.0, 0.0, 1.0, 91.8, 19.55)">
    <path d="M-29.55 -19.3 L-29.5 -19.45 -29.4 -19.5 -29.25 -19.55 -29.1 -19.5 -29.0 -19.4 -29.0 -19.2 -29.05 -19.05 -29.5 -19.0 -29.55 -19.3 M-59.7 47.75 L-59.6 47.85 -59.6 48.05 -59.65 48.2 -60.05 48.25 -60.15 47.95 -60.1 47.8 -60.0 47.75 -59.85 47.7 -59.7 47.75 M-33.1 76.1 L-33.0 76.2 -33.0 76.35 -33.05 76.55 -33.5 76.6 -33.55 76.3 -33.5 76.15 -33.4 76.1 -33.25 76.05 -33.1 76.1 M-91.35 46.5 L-91.25 46.6 -91.25 46.8 -91.3 46.95 -91.75 47.0 -91.8 46.7 -91.75 46.55 -91.65 46.5 -91.5 46.45 -91.35 46.5 M58.4 36.85 L58.5 36.95 58.5 37.1 58.45 37.3 58.0 37.35 57.95 37.05 58.0 36.85 58.1 36.8 58.25 36.8 58.4 36.85 M10.25 59.1 L10.25 59.25 10.2 59.45 9.8 59.5 9.7 59.2 9.75 59.0 9.85 58.95 10.0 58.95 10.15 59.0 10.25 59.1 M61.25 50.2 L61.4 50.25 61.5 50.35 61.5 50.55 61.45 50.7 61.0 50.75 60.95 50.45 61.0 50.3 61.1 50.25 61.25 50.2" fill="#cc0000" fill-rule="evenodd" stroke="none"/>
  </g>
</svg>
