<?xml version="1.0" encoding="UTF-8" standalone="no"?>
<svg xmlns:ffdec="https://www.free-decompiler.com/flash" xmlns:xlink="http://www.w3.org/1999/xlink" ffdec:objectType="shape" height="22.1px" width="122.05px" xmlns="http://www.w3.org/2000/svg">
  <g transform="matrix(1.0, 0.0, 0.0, 1.0, 60.3, -37.45)">
    <path d="M58.4 37.5 L58.5 37.6 58.5 37.75 58.45 37.95 58.0 38.0 57.95 37.7 58.0 37.55 58.1 37.5 58.25 37.45 58.4 37.5 M10.45 59.45 L10.05 59.5 9.95 59.2 10.0 59.0 10.1 58.95 10.25 58.95 10.4 59.0 10.5 59.1 10.5 59.25 10.45 59.45 M61.35 50.55 L61.5 50.55 61.65 50.6 61.75 50.7 61.75 50.85 61.7 51.05 61.25 51.1 61.2 50.8 61.25 50.6 61.35 50.55 M-60.3 48.2 L-60.25 48.05 -60.15 48.0 -60.0 47.95 -59.85 48.0 -59.75 48.1 -59.75 48.3 -59.8 48.45 -60.25 48.5 -60.3 48.2" fill="#cc0000" fill-rule="evenodd" stroke="none"/>
  </g>
</svg>
