<?xml version="1.0" encoding="UTF-8" standalone="no"?>
<svg xmlns:ffdec="https://www.free-decompiler.com/flash" xmlns:xlink="http://www.w3.org/1999/xlink" ffdec:objectType="shape" height="17.5px" width="271.2px" xmlns="http://www.w3.org/2000/svg">
  <g transform="matrix(1.0, 0.0, 0.0, 1.0, 0.0, 0.0)">
    <path d="M261.4 11.7 L261.35 11.7 261.35 10.75 261.35 7.75 261.4 7.75 261.4 11.7 M258.45 11.7 L258.35 11.7 258.35 10.75 257.45 10.75 257.45 9.75 257.45 8.8 257.45 7.95 257.45 7.75 257.4 7.75 257.3 7.75 257.3 7.8 257.3 7.95 256.95 7.95 256.95 8.8 257.3 8.8 257.3 9.75 256.35 9.75 256.35 7.8 256.35 6.95 256.35 6.8 255.95 6.8 255.95 5.95 256.35 5.95 256.35 5.8 256.95 5.8 256.95 5.0 259.8 5.0 260.4 5.0 260.85 5.0 260.85 5.85 260.4 5.85 260.4 5.95 261.45 5.95 261.45 5.0 261.95 5.0 261.9 4.95 260.4 4.95 260.35 4.95 260.35 4.8 260.4 4.8 260.4 4.0 261.9 4.0 262.2 5.0 261.9 3.95 260.4 3.95 260.35 3.95 260.35 3.8 260.4 3.8 260.4 3.0 260.8 3.0 261.4 3.0 261.9 3.0 262.3 4.5 262.35 4.7 262.4 4.8 262.4 4.75 262.4 5.0 262.95 5.0 263.2 5.95 263.4 5.95 263.9 5.95 264.35 7.5 264.4 7.75 264.4 8.75 263.9 6.9 262.4 6.9 262.4 5.95 261.8 5.95 261.8 6.8 261.45 6.8 261.45 6.9 261.4 6.9 261.4 6.8 260.45 6.8 260.4 6.8 260.4 6.9 259.4 6.9 259.4 6.8 258.4 6.8 258.4 6.9 257.9 6.9 257.9 7.75 259.3 7.75 259.3 8.9 259.3 9.75 259.3 10.75 259.3 11.7 258.45 11.7 M255.9 5.8 L254.85 5.8 254.85 4.95 255.9 4.95 255.9 5.8 M256.35 4.95 L256.35 4.85 255.9 4.85 255.9 4.8 254.85 4.8 254.85 3.95 255.9 3.95 255.9 4.0 259.8 4.0 259.8 4.85 259.4 4.85 259.4 4.95 259.35 4.95 259.35 4.85 258.4 4.85 258.4 4.95 257.35 4.95 257.35 4.85 257.3 4.85 257.3 4.95 256.35 4.95 M257.35 3.95 L257.35 3.85 255.9 3.85 255.9 3.8 255.85 3.8 255.85 2.95 256.9 2.95 256.9 3.0 259.8 3.0 259.8 3.85 259.4 3.85 259.35 3.85 258.4 3.85 258.4 3.95 257.35 3.95 M258.35 2.95 L258.35 2.85 256.9 2.85 256.9 2.8 256.85 2.8 256.85 1.95 257.9 1.95 257.9 2.0 260.8 2.0 260.8 2.8 261.3 2.8 261.3 2.95 260.8 2.95 260.35 2.95 260.35 2.85 259.4 2.85 259.35 2.85 259.35 2.95 258.35 2.95 M259.4 1.95 L259.4 1.85 257.9 1.85 257.9 1.0 258.85 1.0 258.85 0.95 259.9 0.95 259.9 1.0 261.8 1.0 261.8 1.85 261.4 1.85 261.3 1.85 261.3 1.95 259.4 1.95 M261.4 0.95 L261.4 0.85 259.9 0.85 259.9 0.0 263.8 0.0 263.8 0.85 262.35 0.85 262.35 0.95 261.4 0.95 M264.4 0.95 L264.4 0.0 265.9 0.0 266.2 1.0 266.4 1.0 267.2 1.0 267.2 1.95 265.65 1.95 265.4 1.95 265.65 1.0 265.95 1.0 265.9 0.95 264.4 0.95 M267.4 0.95 L267.65 0.0 269.2 0.0 269.2 0.95 267.65 0.95 267.4 0.95 M265.4 5.0 L266.25 5.0 266.25 5.95 267.2 5.95 267.2 6.9 265.65 6.9 265.4 6.9 265.65 5.95 264.7 5.95 264.45 5.95 264.7 5.0 265.2 5.0 265.25 5.0 265.4 5.0 M265.8 9.65 L266.15 11.0 266.15 11.7 265.3 11.7 265.3 11.35 265.8 9.65 M264.25 11.35 L264.15 11.7 263.3 11.7 263.3 8.55 263.4 8.9 263.75 10.2 263.85 9.85 264.25 11.35 M262.4 10.75 L262.35 10.6 262.35 7.75 262.4 7.75 262.4 10.75 M264.4 1.8 L264.4 1.95 264.4 2.5 264.35 2.35 264.35 1.8 264.4 1.8 M265.65 2.0 L266.2 2.0 266.2 2.95 264.65 2.95 264.4 2.95 264.2 2.95 263.9 1.95 262.4 1.95 262.4 1.8 262.4 1.0 263.8 1.0 263.9 1.0 264.35 2.65 264.4 2.8 264.4 2.7 264.4 2.95 264.65 2.0 265.65 2.0 M264.65 3.0 L265.2 3.0 265.2 3.95 263.65 3.95 263.4 3.95 263.2 3.95 262.9 2.95 261.4 2.95 261.35 2.95 261.35 2.8 261.4 2.8 261.4 2.0 261.8 2.0 262.4 2.0 262.9 2.0 263.3 3.5 263.35 3.65 263.35 3.15 263.4 3.3 263.4 3.95 263.65 3.0 264.65 3.0 M263.55 4.5 L263.65 4.0 265.2 4.0 265.2 4.1 265.2 4.95 263.65 4.95 263.4 4.95 263.55 4.5 M267.3 2.35 L267.3 1.95 267.35 2.15 267.3 2.35 M264.35 7.35 L264.35 6.95 264.4 7.15 264.35 7.35 M265.3 8.3 L265.3 7.9 265.35 8.1 265.3 8.3 M258.45 5.85 L258.4 5.85 258.4 5.95 258.45 5.95 258.45 5.85 M257.35 6.8 L257.4 6.8 257.4 6.9 257.45 6.9 257.45 6.8 257.9 6.8 257.9 5.95 258.35 5.95 258.35 5.85 257.4 5.85 257.4 5.95 257.35 5.95 257.35 5.85 257.3 5.85 257.3 5.95 256.95 5.95 256.95 6.8 257.3 6.8 257.3 6.9 257.35 6.9 257.35 6.8 M259.4 5.85 L259.4 5.95 260.35 5.95 260.35 5.85 259.4 5.85 M257.9 8.9 L257.9 9.75 258.35 9.75 258.35 8.9 257.9 8.9 M244.05 13.55 L243.0 13.55 243.0 10.85 244.0 10.85 244.0 10.6 243.0 10.6 243.0 4.95 244.0 4.95 244.0 3.95 245.0 3.95 245.0 2.95 246.05 2.95 246.05 2.0 247.0 2.0 247.0 1.95 248.05 1.95 248.05 1.0 249.75 1.0 249.75 1.95 248.05 1.95 248.05 2.95 248.05 3.95 247.75 3.95 247.75 2.95 246.05 2.95 246.05 3.0 246.75 3.0 246.75 3.95 245.05 3.95 245.05 4.0 245.75 4.0 245.75 4.95 244.05 4.95 244.05 5.0 245.75 5.0 245.75 5.95 244.05 5.95 244.05 10.6 244.05 11.85 244.05 13.55 M244.1 10.6 L244.1 6.95 245.1 6.95 245.1 6.0 246.05 6.0 246.8 6.0 246.8 6.95 247.75 6.95 247.75 7.9 246.05 7.9 246.05 12.55 245.1 12.55 245.0 12.55 245.0 11.85 245.0 11.6 244.1 11.6 244.1 10.6 M246.05 6.95 L245.1 6.95 245.1 7.9 246.05 7.9 246.05 6.95 M246.05 13.8 L246.05 15.5 245.0 15.5 245.0 14.55 244.1 14.55 244.1 13.55 244.1 12.85 245.1 12.85 245.1 13.8 246.05 13.8 M235.05 5.0 L235.05 5.95 227.45 5.95 227.45 5.0 235.05 5.0 M235.05 6.0 L236.1 6.0 236.1 6.95 237.05 6.95 237.05 7.9 229.45 7.9 229.45 6.95 228.5 6.95 228.5 6.0 235.05 6.0 M230.4 13.55 L230.0 13.55 230.0 11.6 230.4 11.6 230.4 13.55 M209.35 13.55 L208.3 13.55 208.3 4.95 209.3 4.95 209.3 3.95 210.3 3.95 210.3 2.95 211.35 2.95 211.35 2.0 212.3 2.0 212.3 1.95 213.35 1.95 213.35 1.0 220.95 1.0 220.95 1.95 213.35 1.95 213.35 2.0 218.95 2.0 218.95 2.95 211.35 2.95 211.35 3.0 217.95 3.0 217.95 3.95 210.35 3.95 210.35 4.0 216.95 4.0 216.95 4.95 209.35 4.95 209.35 5.0 216.95 5.0 216.95 5.95 209.35 5.95 209.35 13.55 M222.4 1.95 L222.4 1.0 224.1 1.0 224.1 1.95 222.4 1.95 M224.1 4.95 L224.25 4.95 224.25 3.95 224.4 3.95 225.25 3.95 225.25 2.95 226.1 2.95 226.3 2.95 226.3 2.0 227.25 2.0 227.25 1.95 228.3 1.95 228.3 1.0 230.0 1.0 230.0 1.95 228.3 1.95 228.3 2.95 228.3 3.95 228.0 3.95 228.0 2.95 226.3 2.95 226.3 3.0 227.0 3.0 227.0 3.95 225.3 3.95 225.3 4.0 226.0 4.0 226.0 4.95 224.3 4.95 224.3 5.0 226.0 5.0 226.0 5.95 224.3 5.95 224.3 11.85 224.1 11.85 224.1 7.9 223.25 7.9 223.25 4.95 224.1 4.95 M230.0 2.0 L230.3 2.0 231.45 2.0 237.05 2.0 237.05 2.95 229.45 2.95 229.45 2.0 230.0 2.0 M231.45 1.95 L231.45 1.0 239.05 1.0 239.05 1.95 231.45 1.95 M229.45 3.0 L236.05 3.0 236.05 3.95 228.45 3.95 228.45 3.0 229.45 3.0 M228.45 4.0 L235.05 4.0 235.05 4.95 227.45 4.95 227.45 4.0 228.45 4.0 M226.3 6.0 L227.05 6.0 227.05 6.95 227.45 6.95 228.0 6.95 228.0 7.9 226.3 7.9 226.3 13.8 224.1 13.8 224.1 11.9 224.35 11.9 224.35 6.95 225.35 6.95 225.35 6.0 226.3 6.0 M225.35 6.95 L225.35 7.9 226.3 7.9 226.3 6.95 225.35 6.95 M218.95 6.95 L218.95 7.9 211.35 7.9 211.35 6.95 210.4 6.95 210.4 7.9 211.35 7.9 211.35 15.5 210.3 15.5 210.3 14.55 209.4 14.55 209.4 13.55 209.4 6.95 210.4 6.95 210.4 6.0 216.95 6.0 218.0 6.0 218.0 6.95 218.4 6.95 218.95 6.95 M220.95 2.0 L222.1 2.0 222.1 2.95 220.4 2.95 220.4 2.0 220.95 2.0 M220.4 6.0 L221.15 6.0 221.15 6.95 222.1 6.95 222.1 7.9 220.4 7.9 220.4 6.95 219.45 6.95 219.45 6.0 220.4 6.0 M222.1 12.85 L222.4 12.85 222.4 13.8 222.1 13.8 222.1 12.85 M230.45 11.6 L231.35 11.6 231.35 9.9 230.45 9.9 230.45 9.6 232.4 9.6 232.4 15.5 231.35 15.5 231.35 14.55 230.45 14.55 230.45 13.55 230.45 11.6 M220.4 3.0 L221.1 3.0 221.1 3.95 219.4 3.95 219.4 3.0 220.4 3.0 M219.4 4.0 L220.1 4.0 220.1 4.95 218.4 4.95 218.4 4.0 219.4 4.0 M218.4 5.0 L220.1 5.0 220.1 5.95 218.4 5.95 218.4 5.0 M215.05 11.85 L215.05 11.6 215.25 11.6 215.25 11.85 215.05 11.85 M215.3 11.6 L216.2 11.6 216.2 9.9 215.3 9.9 215.3 9.6 217.25 9.6 217.25 13.8 215.05 13.8 215.05 12.85 215.3 12.85 215.3 11.9 215.3 11.6 M213.05 12.85 L213.35 12.85 213.35 13.8 213.05 13.8 213.05 12.85 M204.15 2.95 L204.15 3.45 203.85 3.45 203.85 2.95 202.15 2.95 202.15 3.0 202.85 3.0 202.85 3.95 201.15 3.95 201.15 4.0 201.85 4.0 201.85 4.95 200.15 4.95 200.15 5.0 201.85 5.0 201.85 5.65 201.85 5.95 200.15 5.95 200.15 7.45 199.0 7.45 199.0 6.95 197.95 6.95 197.95 7.9 196.25 7.9 196.25 6.95 195.3 6.95 195.3 6.0 196.25 6.0 197.0 6.0 197.0 6.95 197.95 6.95 197.95 6.45 198.65 6.45 198.65 5.5 198.95 5.5 198.95 5.45 199.1 5.45 199.1 4.95 199.65 4.95 199.65 4.5 199.95 4.5 199.95 3.95 200.25 3.95 200.65 3.95 200.65 3.5 201.1 3.5 201.1 2.95 201.95 2.95 202.15 2.95 202.15 2.0 203.1 2.0 203.1 1.95 204.15 1.95 204.15 1.0 205.85 1.0 205.85 1.95 204.15 1.95 204.15 2.95 M201.85 6.0 L202.9 6.0 202.9 6.95 203.85 6.95 203.85 7.9 202.15 7.9 202.15 6.95 201.2 6.95 201.2 7.9 202.15 7.9 202.15 9.4 200.65 9.4 200.65 8.45 199.95 8.45 199.95 7.9 199.7 7.9 199.7 7.5 200.2 7.5 200.2 6.95 201.2 6.95 201.2 6.0 201.85 6.0 M204.65 6.9 L204.65 6.95 204.4 6.95 204.4 6.9 204.65 6.9 M203.85 9.1 L204.15 9.1 204.15 9.4 203.85 9.4 203.85 9.1 M202.4 12.85 L202.65 12.85 202.65 13.8 202.4 13.8 202.4 12.85 M158.05 13.55 L157.0 13.55 157.0 4.95 158.0 4.95 158.0 3.95 159.0 3.95 159.0 2.95 160.05 2.95 160.05 2.0 161.0 2.0 161.0 1.95 162.05 1.95 162.05 1.0 169.65 1.0 169.65 1.95 162.05 1.95 162.05 2.0 167.65 2.0 167.65 2.95 160.05 2.95 160.05 3.0 166.65 3.0 166.65 3.95 159.05 3.95 159.05 4.0 165.65 4.0 165.65 4.95 158.05 4.95 158.05 5.0 165.65 5.0 165.65 5.95 158.05 5.95 158.05 13.55 M171.1 1.95 L171.1 1.0 172.8 1.0 172.8 1.95 171.1 1.95 M172.8 6.9 L173.1 6.9 173.1 7.85 172.8 7.85 172.8 6.9 M174.8 6.9 L175.1 6.9 175.1 4.95 176.1 4.95 176.1 3.95 177.1 3.95 177.1 2.95 178.15 2.95 178.15 2.0 179.1 2.0 179.1 1.95 180.15 1.95 180.15 1.0 187.75 1.0 187.75 1.95 180.15 1.95 180.15 2.0 185.75 2.0 185.75 2.95 178.15 2.95 178.15 3.0 184.75 3.0 184.75 3.95 177.15 3.95 177.15 4.0 183.75 4.0 183.75 4.95 176.15 4.95 176.15 5.0 183.75 5.0 183.75 5.95 176.15 5.95 176.15 11.85 175.1 11.85 175.1 10.85 175.1 9.85 172.8 9.85 172.8 8.9 175.1 8.9 175.1 8.85 172.8 8.85 172.8 7.9 175.1 7.9 175.1 7.85 174.8 7.85 174.8 6.9 M189.2 1.95 L189.2 1.0 196.8 1.0 196.8 1.95 189.2 1.95 M198.25 1.95 L198.25 1.0 199.95 1.0 199.95 1.95 198.25 1.95 M196.8 2.0 L197.95 2.0 197.95 2.95 196.25 2.95 196.25 2.0 196.8 2.0 M197.95 3.65 L198.25 3.65 198.25 3.95 197.95 3.95 197.95 3.65 M196.25 3.0 L196.95 3.0 196.95 3.95 195.25 3.95 195.25 3.0 196.25 3.0 M195.25 4.0 L195.95 4.0 195.95 4.95 194.25 4.95 194.25 4.0 195.25 4.0 M194.25 5.0 L195.95 5.0 195.95 5.95 194.25 5.95 194.25 5.0 M194.25 6.95 L194.8 6.95 194.8 7.9 187.2 7.9 187.2 6.95 186.25 6.95 186.25 6.0 192.8 6.0 193.85 6.0 193.85 6.95 194.25 6.95 M189.2 2.0 L194.8 2.0 194.8 2.95 187.2 2.95 187.2 2.0 187.75 2.0 189.2 2.0 M187.2 3.0 L193.8 3.0 193.8 3.95 186.2 3.95 186.2 3.0 187.2 3.0 M192.8 5.0 L192.8 5.95 185.2 5.95 185.2 5.0 192.8 5.0 M186.2 4.0 L192.8 4.0 192.8 4.95 185.2 4.95 185.2 4.0 186.2 4.0 M194.3 9.9 L194.3 9.6 194.8 9.6 196.25 9.6 196.25 13.8 195.2 13.8 195.2 12.85 194.8 12.85 194.8 13.8 190.9 13.8 190.9 11.9 192.8 11.9 193.85 11.9 193.85 12.85 194.25 12.85 194.3 12.85 194.3 11.6 194.8 11.6 194.8 9.9 194.3 9.9 M194.25 9.9 L193.85 9.9 193.85 9.6 194.25 9.6 194.25 9.9 M188.9 12.85 L189.2 12.85 189.2 13.8 188.9 13.8 188.9 12.85 M190.9 11.85 L190.9 11.6 192.8 11.6 192.8 11.85 190.9 11.85 M194.25 11.85 L193.2 11.85 193.2 11.6 194.25 11.6 194.25 11.85 M198.65 6.45 L198.65 6.5 199.1 6.5 199.1 6.45 198.65 6.45 M199.95 9.4 L200.65 9.4 200.65 10.85 199.95 10.85 199.95 9.4 M198.25 10.85 L197.95 10.85 197.95 9.9 198.25 9.9 198.25 10.85 M183.75 6.0 L184.8 6.0 184.8 6.95 185.2 6.95 185.75 6.95 185.75 7.9 178.15 7.9 178.15 13.8 177.1 13.8 177.1 12.85 176.7 12.85 176.7 13.8 172.8 13.8 172.8 11.9 174.7 11.9 175.75 11.9 175.75 12.85 176.15 12.85 176.2 12.85 176.2 6.95 177.2 6.95 177.2 7.9 178.15 7.9 178.15 6.95 177.2 6.95 177.2 6.0 183.75 6.0 M182.1 11.6 L183.0 11.6 183.0 9.9 182.1 9.9 182.1 9.6 184.05 9.6 184.05 13.8 181.85 13.8 181.85 11.9 182.1 11.9 182.1 11.6 M179.85 12.85 L180.15 12.85 180.15 13.8 179.85 13.8 179.85 12.85 M200.65 14.05 L199.95 14.05 199.95 12.55 200.65 12.55 200.65 14.05 M202.15 15.5 L201.1 15.5 201.1 14.35 200.9 14.35 200.9 14.05 202.15 14.05 202.15 15.5 M172.8 11.85 L172.8 10.9 174.7 10.9 174.7 11.85 172.8 11.85 M172.8 10.85 L172.8 9.9 174.7 9.9 174.7 10.85 172.8 10.85 M182.05 11.6 L182.05 11.85 181.85 11.85 181.85 11.6 182.05 11.6 M169.65 2.0 L170.8 2.0 170.8 2.95 169.1 2.95 169.1 2.0 169.65 2.0 M170.8 3.65 L171.1 3.65 171.1 3.95 170.8 3.95 170.8 3.65 M169.1 6.0 L169.85 6.0 169.85 6.95 170.8 6.95 170.8 7.9 169.1 7.9 169.1 6.95 168.15 6.95 168.15 6.0 169.1 6.0 M170.8 12.85 L171.1 12.85 171.1 13.8 170.8 13.8 170.8 12.85 M165.65 6.0 L166.7 6.0 166.7 6.95 167.1 6.95 167.65 6.95 167.65 7.9 160.05 7.9 160.05 6.95 159.1 6.95 159.1 6.0 165.65 6.0 M167.1 5.95 L167.1 5.0 168.8 5.0 168.8 5.95 167.1 5.95 M167.1 4.95 L167.1 4.0 168.1 4.0 168.8 4.0 168.8 4.95 167.1 4.95 M168.1 3.95 L168.1 3.0 169.1 3.0 169.8 3.0 169.8 3.95 168.1 3.95 M169.1 10.85 L168.05 10.85 168.05 9.9 167.15 9.9 167.15 9.6 167.65 9.6 169.1 9.6 169.1 10.85 M161.75 12.85 L162.05 12.85 162.05 13.8 161.75 13.8 161.75 12.85 M164.9 13.8 L164.9 12.85 164.0 12.85 164.0 12.55 165.95 12.55 165.95 13.8 164.9 13.8 M160.05 15.5 L159.0 15.5 159.0 14.55 158.1 14.55 158.1 13.55 158.1 6.95 159.1 6.95 159.1 7.9 160.05 7.9 160.05 15.5 M162.05 10.85 L162.05 12.55 161.95 12.55 161.95 10.85 162.05 10.85 M146.95 1.95 L146.95 1.0 154.55 1.0 154.55 1.95 146.95 1.95 M124.85 14.55 L124.85 13.55 124.45 13.55 124.45 13.1 125.4 13.1 125.4 12.55 125.95 12.55 125.95 11.1 126.85 11.1 126.85 15.5 125.8 15.5 125.8 14.55 124.85 14.55 M118.75 14.55 L118.75 13.6 118.75 13.1 119.3 13.1 119.3 14.55 118.75 14.55 M118.3 13.55 L117.7 13.55 117.7 12.6 117.7 12.15 117.8 12.15 117.8 13.1 118.3 13.1 118.3 13.55 M115.8 10.15 L115.8 9.15 114.75 9.15 114.75 4.95 115.75 4.95 115.75 3.95 116.75 3.95 116.75 2.95 117.8 2.95 117.8 2.0 118.75 2.0 118.75 1.95 119.8 1.95 119.8 1.0 121.5 1.0 121.5 1.95 119.8 1.95 119.8 2.95 119.8 3.95 119.5 3.95 119.5 2.95 117.8 2.95 117.8 3.0 118.5 3.0 118.5 3.95 116.8 3.95 116.8 4.0 117.5 4.0 117.5 4.95 115.8 4.95 115.8 5.0 117.5 5.0 117.5 5.95 115.8 5.95 115.8 6.95 116.8 6.95 116.8 6.0 117.8 6.0 118.5 6.0 118.5 6.95 119.5 6.95 119.5 7.9 117.8 7.9 117.8 11.1 117.8 11.6 117.3 11.6 117.3 11.1 116.75 11.1 116.75 10.6 116.25 10.6 116.25 10.15 115.8 10.15 M121.5 3.95 L121.8 3.95 122.65 3.95 122.65 2.95 123.5 2.95 123.7 2.95 123.7 2.0 124.65 2.0 124.65 1.95 125.7 1.95 125.7 1.0 127.4 1.0 127.4 1.95 125.7 1.95 125.7 2.95 125.7 3.95 125.4 3.95 125.4 2.95 123.7 2.95 123.7 3.0 124.4 3.0 124.4 3.95 122.7 3.95 122.7 4.0 123.4 4.0 123.4 4.95 121.7 4.95 121.7 5.0 123.4 5.0 123.4 5.95 121.7 5.95 121.7 6.95 122.7 6.95 122.7 6.0 123.7 6.0 124.4 6.0 124.4 6.95 124.85 6.95 125.4 6.95 125.4 7.9 123.7 7.9 123.7 6.95 122.7 6.95 122.7 7.9 123.7 7.9 123.7 10.85 122.2 10.85 122.2 9.9 121.5 9.9 121.5 8.95 121.7 8.95 121.7 8.9 121.5 8.9 121.5 7.9 120.5 7.9 120.5 6.95 120.65 6.95 120.65 6.9 120.65 5.9 120.65 4.95 121.5 4.95 121.65 4.95 121.65 4.9 121.5 4.9 121.5 3.95 M127.4 2.0 L127.7 2.0 128.85 2.0 134.45 2.0 134.45 2.95 126.85 2.95 126.85 2.0 127.4 2.0 M128.85 1.95 L128.85 1.0 136.45 1.0 136.45 1.95 128.85 1.95 M137.9 1.95 L137.9 1.0 139.6 1.0 139.6 1.95 137.9 1.95 M139.6 4.95 L139.75 4.95 139.75 3.95 139.9 3.95 140.75 3.95 140.75 2.95 141.6 2.95 141.8 2.95 141.8 2.0 142.75 2.0 142.75 1.95 143.8 1.95 143.8 1.0 145.5 1.0 145.5 1.95 143.8 1.95 143.8 2.95 143.8 3.95 143.5 3.95 143.5 2.95 141.8 2.95 141.8 3.0 142.5 3.0 142.5 3.95 140.8 3.95 140.8 4.0 141.5 4.0 141.5 4.95 139.8 4.95 139.8 5.0 141.5 5.0 141.5 5.95 139.8 5.95 139.8 6.95 140.8 6.95 140.8 6.0 141.8 6.0 142.5 6.0 142.5 6.95 142.95 6.95 143.5 6.95 143.5 7.9 141.8 7.9 141.8 6.95 140.8 6.95 140.8 7.9 141.8 7.9 141.8 13.8 139.6 13.8 139.6 11.9 139.8 11.9 139.8 11.85 139.6 11.85 139.6 7.9 138.75 7.9 138.75 4.95 139.6 4.95 M145.5 2.0 L145.8 2.0 146.95 2.0 152.55 2.0 152.55 2.95 144.95 2.95 144.95 2.0 145.5 2.0 M150.55 5.0 L150.55 5.95 142.95 5.95 142.95 5.0 150.55 5.0 M150.55 6.0 L151.55 6.0 151.55 6.95 152.55 6.95 152.55 7.9 144.95 7.9 144.95 6.95 143.95 6.95 143.95 6.0 150.55 6.0 M143.95 4.0 L150.55 4.0 150.55 4.95 142.95 4.95 142.95 4.0 143.95 4.0 M144.95 3.0 L151.55 3.0 151.55 3.95 143.95 3.95 143.95 3.0 144.95 3.0 M134.45 6.95 L134.45 7.9 126.85 7.9 126.85 6.95 125.85 6.95 125.85 6.0 132.45 6.0 133.45 6.0 133.45 6.95 133.9 6.95 134.45 6.95 M148.85 9.6 L150.85 9.6 150.85 10.85 149.8 10.85 149.8 9.9 148.85 9.9 148.85 9.6 M149.35 15.5 L148.65 15.5 148.65 12.55 149.35 12.55 149.35 15.5 M137.9 13.8 L137.6 13.8 137.6 12.85 137.9 12.85 137.9 13.8 M137.6 7.9 L135.9 7.9 135.9 6.95 134.9 6.95 134.9 6.0 135.9 6.0 136.6 6.0 136.6 6.95 137.6 6.95 137.6 7.9 M137.6 2.95 L135.9 2.95 135.9 2.0 136.45 2.0 137.6 2.0 137.6 2.95 M135.9 3.0 L136.6 3.0 136.6 3.95 134.9 3.95 134.9 3.0 135.9 3.0 M134.9 4.0 L135.6 4.0 135.6 4.95 133.9 4.95 133.9 4.0 134.9 4.0 M133.9 5.0 L135.6 5.0 135.6 5.95 133.9 5.95 133.9 5.0 M132.45 5.0 L132.45 5.95 124.85 5.95 124.85 5.0 132.45 5.0 M125.85 4.0 L132.45 4.0 132.45 4.95 124.85 4.95 124.85 4.0 125.85 4.0 M126.85 3.0 L133.45 3.0 133.45 3.95 125.85 3.95 125.85 3.0 126.85 3.0 M130.55 11.85 L130.55 11.6 131.7 11.6 131.7 9.9 130.75 9.9 130.75 9.6 132.75 9.6 132.75 13.8 130.55 13.8 130.55 11.9 130.75 11.9 130.75 11.85 130.55 11.85 M128.55 12.85 L128.85 12.85 128.85 13.8 128.55 13.8 128.55 12.85 M121.3 12.35 L121.0 12.35 121.0 11.4 121.15 11.4 121.15 11.1 121.3 11.1 121.3 12.35 M119.8 10.85 L119.5 10.85 119.5 9.9 119.8 9.9 119.8 10.85 M118.25 11.1 L119.3 11.1 119.3 12.55 118.25 12.55 118.25 11.1 M119.5 12.55 L120.75 12.55 120.75 15.5 119.7 15.5 119.7 12.85 119.5 12.85 119.5 12.55 M125.4 10.15 L125.7 10.15 125.7 10.85 125.4 10.85 125.4 10.15 M112.25 1.95 L110.55 1.95 110.55 2.95 110.55 3.95 110.25 3.95 110.25 2.95 108.55 2.95 108.55 3.0 109.25 3.0 109.25 3.95 107.55 3.95 107.55 4.0 108.25 4.0 108.25 4.95 106.55 4.95 106.55 5.0 108.25 5.0 108.25 5.95 106.55 5.95 106.55 8.9 106.35 8.9 106.35 7.9 105.4 7.9 105.4 6.95 105.5 6.95 105.5 6.9 105.35 6.9 105.35 5.95 105.5 5.95 105.5 5.9 105.5 4.95 106.35 4.95 106.5 4.95 106.5 4.9 106.35 4.9 106.35 3.95 106.65 3.95 107.5 3.95 107.5 2.95 108.35 2.95 108.55 2.95 108.55 2.0 109.5 2.0 109.5 1.95 110.55 1.95 110.55 1.0 112.25 1.0 112.25 1.95 M100.65 13.55 L100.25 13.55 100.25 11.6 100.65 11.6 100.65 13.55 M94.55 13.55 L93.5 13.55 93.5 11.55 93.5 10.65 93.6 10.65 93.6 11.6 94.55 11.6 94.55 13.55 M76.5 12.1 L75.45 12.1 75.45 4.95 76.45 4.95 76.45 3.95 77.45 3.95 77.45 2.95 78.5 2.95 78.5 2.0 79.45 2.0 79.45 1.95 80.5 1.95 80.5 1.0 82.2 1.0 82.2 1.95 80.5 1.95 80.5 2.95 80.5 3.0 81.45 3.0 82.15 3.0 82.15 3.95 80.45 3.95 80.2 3.95 80.2 2.95 78.5 2.95 78.5 3.0 79.2 3.0 79.2 3.95 77.5 3.95 77.5 4.0 78.2 4.0 78.2 4.95 76.5 4.95 76.5 5.0 78.2 5.0 78.2 5.95 76.5 5.95 76.5 12.1 M82.2 2.0 L82.4 2.0 82.4 1.95 82.5 1.95 82.5 2.0 83.15 2.0 83.15 2.95 81.45 2.95 81.45 2.0 82.2 2.0 M83.45 1.95 L83.45 1.0 85.15 1.0 85.15 1.95 83.45 1.95 M85.15 2.0 L85.35 2.0 85.35 1.95 85.45 1.95 85.45 2.0 86.1 2.0 86.1 2.95 84.4 2.95 84.4 2.0 85.15 2.0 M86.4 1.95 L86.4 1.0 88.1 1.0 88.1 1.95 86.4 1.95 M88.1 2.0 L88.4 2.0 89.55 2.0 92.2 2.0 92.2 2.95 87.55 2.95 87.55 2.0 88.1 2.0 M89.55 1.95 L89.55 1.0 94.2 1.0 94.2 1.95 89.55 1.95 M95.6 1.95 L95.6 1.0 103.2 1.0 103.2 1.95 95.6 1.95 M104.65 1.95 L104.65 1.0 106.35 1.0 106.35 1.95 104.65 1.95 M116.8 6.95 L116.8 7.9 117.8 7.9 117.8 6.95 116.8 6.95 M106.35 8.95 L106.6 8.95 106.6 6.95 107.6 6.95 107.6 6.0 108.55 6.0 109.3 6.0 109.3 6.95 110.25 6.95 110.25 7.9 108.55 7.9 108.55 6.95 107.6 6.95 107.6 7.9 108.55 7.9 108.55 10.85 106.35 10.85 106.35 8.95 M103.2 2.0 L104.35 2.0 104.35 2.95 102.65 2.95 102.65 2.0 103.2 2.0 M104.35 3.65 L104.65 3.65 104.65 3.95 104.35 3.95 104.35 3.65 M102.65 6.0 L103.4 6.0 103.4 6.95 104.35 6.95 104.35 7.9 102.65 7.9 102.65 6.95 101.7 6.95 101.7 6.0 102.65 6.0 M102.65 3.0 L103.35 3.0 103.35 3.95 101.65 3.95 101.65 3.0 102.65 3.0 M101.65 4.0 L102.35 4.0 102.35 4.95 100.65 4.95 100.65 4.0 101.65 4.0 M100.65 5.0 L102.35 5.0 102.35 5.95 100.65 5.95 100.65 5.0 M100.65 6.95 L101.2 6.95 101.2 7.9 93.6 7.9 93.6 6.95 92.65 6.95 92.65 6.0 99.2 6.0 100.25 6.0 100.25 6.95 100.65 6.95 M99.2 5.0 L99.2 5.95 91.6 5.95 91.6 5.0 99.2 5.0 M95.6 2.0 L101.2 2.0 101.2 2.95 93.6 2.95 93.6 2.0 94.2 2.0 95.6 2.0 M93.6 3.0 L100.2 3.0 100.2 3.95 92.6 3.95 92.6 3.0 93.6 3.0 M92.6 4.0 L99.2 4.0 99.2 4.95 91.6 4.95 91.6 4.0 92.6 4.0 M104.35 9.9 L104.65 9.9 104.65 10.85 104.35 10.85 104.35 9.9 M108.55 15.5 L107.5 15.5 107.5 12.85 106.6 12.85 106.6 12.55 108.55 12.55 108.55 15.5 M102.65 15.5 L101.6 15.5 101.6 14.55 100.7 14.55 100.7 13.55 100.7 11.6 101.2 11.6 101.2 9.9 100.7 9.9 100.7 9.6 101.2 9.6 102.65 9.6 102.65 15.5 M90.2 5.0 L90.2 5.95 85.55 5.95 85.55 5.0 90.2 5.0 M90.2 6.0 L91.25 6.0 91.25 6.95 91.6 6.95 92.2 6.95 92.2 7.9 87.55 7.9 87.55 6.95 86.6 6.95 86.6 6.0 90.2 6.0 M87.55 3.0 L91.2 3.0 91.2 3.95 86.55 3.95 86.55 3.0 87.55 3.0 M86.55 4.0 L90.2 4.0 90.2 4.95 85.55 4.95 85.55 4.0 86.55 4.0 M90.75 12.85 L91.05 12.85 91.05 13.8 90.75 13.8 90.75 12.85 M94.6 11.6 L95.5 11.6 95.5 9.9 94.6 9.9 94.6 9.6 96.55 9.6 96.55 15.5 95.5 15.5 95.5 14.55 94.6 14.55 94.6 13.55 94.6 11.6 M100.25 9.6 L100.65 9.6 100.65 9.9 100.25 9.9 100.25 9.6 M84.4 6.0 L85.15 6.0 85.15 6.95 85.55 6.95 86.1 6.95 86.1 7.9 84.4 7.9 84.4 6.95 83.45 6.95 83.45 6.0 84.4 6.0 M84.4 3.0 L85.1 3.0 85.1 3.95 83.4 3.95 83.35 3.95 83.35 2.95 83.45 2.95 83.45 3.0 84.4 3.0 M83.4 4.0 L84.1 4.0 84.1 4.95 82.4 4.95 82.35 4.95 82.35 3.95 82.45 3.95 82.45 4.0 83.4 4.0 M82.4 5.0 L84.1 5.0 84.1 5.95 82.4 5.95 82.4 5.0 M82.4 6.95 L83.15 6.95 83.15 7.9 81.45 7.9 81.45 6.95 80.5 6.95 80.5 6.0 81.35 6.0 81.35 4.95 81.45 4.95 81.45 6.0 82.2 6.0 82.2 6.95 82.4 6.95 M80.45 4.0 L81.15 4.0 81.15 4.95 79.45 4.95 79.4 4.95 79.4 3.95 79.5 3.95 79.5 4.0 80.45 4.0 M79.45 5.0 L81.15 5.0 81.15 5.95 79.45 5.95 79.45 5.0 M79.45 6.95 L80.2 6.95 80.2 7.9 78.5 7.9 78.5 14.05 78.5 14.55 78.05 14.55 78.05 14.05 77.45 14.05 77.45 13.55 76.95 13.55 76.95 13.1 76.55 13.1 76.55 12.1 76.55 6.95 77.55 6.95 77.55 6.0 78.4 6.0 78.4 4.95 78.5 4.95 78.5 6.0 79.25 6.0 79.25 6.95 79.45 6.95 M83.15 12.85 L83.35 12.85 83.35 7.9 83.45 7.9 83.45 13.8 83.15 13.8 83.15 12.85 M80.5 13.8 L80.2 13.8 80.2 12.85 80.4 12.85 80.4 7.9 80.5 7.9 80.5 13.8 M78.95 14.05 L80.0 14.05 80.0 15.5 78.95 15.5 78.95 14.05 M81.85 14.05 L82.0 14.05 82.0 15.5 81.85 15.5 81.85 14.05 M86.1 13.8 L86.1 13.1 86.4 13.1 86.4 13.8 86.1 13.8 M88.1 9.6 L89.05 9.6 89.05 13.8 88.1 13.8 88.1 9.6 M87.55 14.05 L87.55 15.5 86.65 15.5 86.65 14.05 87.55 14.05 M65.4 1.95 L65.4 1.0 73.0 1.0 73.0 1.95 65.4 1.95 M64.35 13.55 L63.95 13.55 63.95 11.6 64.35 11.6 64.35 13.55 M43.3 14.55 L43.3 13.55 42.25 13.55 42.25 4.95 43.25 4.95 43.25 3.95 44.25 3.95 44.25 2.95 45.3 2.95 45.3 2.0 46.25 2.0 46.25 1.95 47.3 1.95 47.3 1.0 54.9 1.0 54.9 1.95 47.3 1.95 47.3 2.0 52.9 2.0 52.9 2.95 45.3 2.95 45.3 3.0 51.9 3.0 51.9 3.95 44.3 3.95 44.3 4.0 50.9 4.0 50.9 4.95 43.3 4.95 43.3 5.0 50.9 5.0 50.9 5.95 43.3 5.95 43.3 6.95 44.3 6.95 44.3 7.9 45.3 7.9 45.3 15.5 44.25 15.5 44.25 14.55 43.3 14.55 M56.35 1.95 L56.35 1.0 58.05 1.0 58.05 1.95 56.35 1.95 M58.05 4.95 L58.2 4.95 58.2 3.95 58.35 3.95 59.2 3.95 59.2 2.95 60.05 2.95 60.25 2.95 60.25 2.0 61.2 2.0 61.2 1.95 62.25 1.95 62.25 1.0 63.95 1.0 63.95 1.95 62.25 1.95 62.25 2.95 62.25 3.95 61.95 3.95 61.95 2.95 60.25 2.95 60.25 3.0 60.95 3.0 60.95 3.95 59.25 3.95 59.25 4.0 59.95 4.0 59.95 4.95 58.25 4.95 58.25 5.0 59.95 5.0 59.95 5.95 58.25 5.95 58.25 11.85 58.05 11.85 58.05 7.9 57.2 7.9 57.2 4.95 58.05 4.95 M63.95 2.0 L64.25 2.0 65.4 2.0 71.0 2.0 71.0 2.95 63.4 2.95 63.4 2.0 63.95 2.0 M63.4 3.0 L70.0 3.0 70.0 3.95 62.4 3.95 62.4 3.0 63.4 3.0 M69.0 5.0 L69.0 5.95 61.4 5.95 61.4 5.0 69.0 5.0 M69.0 6.0 L70.05 6.0 70.05 6.95 71.0 6.95 71.0 7.9 63.4 7.9 63.4 6.95 62.45 6.95 62.45 6.0 69.0 6.0 M78.5 6.95 L77.55 6.95 77.55 7.9 78.5 7.9 78.5 6.95 M62.4 4.0 L69.0 4.0 69.0 4.95 61.4 4.95 61.4 4.0 62.4 4.0 M60.25 6.0 L61.0 6.0 61.0 6.95 61.4 6.95 61.95 6.95 61.95 7.9 60.25 7.9 60.25 6.95 59.3 6.95 59.3 7.9 60.25 7.9 60.25 13.8 58.05 13.8 58.05 11.9 58.3 11.9 58.3 6.95 59.3 6.95 59.3 6.0 60.25 6.0 M52.9 6.95 L52.9 7.9 45.3 7.9 45.3 6.95 44.3 6.95 44.3 6.0 50.9 6.0 51.9 6.0 51.9 6.95 52.35 6.95 52.9 6.95 M64.4 9.6 L66.35 9.6 66.35 15.5 65.3 15.5 65.3 14.55 64.4 14.55 64.4 13.55 64.4 11.6 65.3 11.6 65.3 9.9 64.4 9.9 64.4 9.6 M54.9 2.0 L56.05 2.0 56.05 2.95 54.35 2.95 54.35 2.0 54.9 2.0 M54.35 6.0 L55.1 6.0 55.1 6.95 56.05 6.95 56.05 7.9 54.35 7.9 54.35 6.95 53.4 6.95 53.4 6.0 54.35 6.0 M56.05 12.85 L56.35 12.85 56.35 13.8 56.05 13.8 56.05 12.85 M54.35 3.0 L55.05 3.0 55.05 3.95 53.35 3.95 53.35 3.0 54.35 3.0 M53.35 4.0 L54.05 4.0 54.05 4.95 52.35 4.95 52.35 4.0 53.35 4.0 M52.35 5.0 L54.05 5.0 54.05 5.95 52.35 5.95 52.35 5.0 M38.1 2.95 L38.1 3.45 37.8 3.45 37.8 2.95 36.1 2.95 36.1 3.0 36.8 3.0 36.8 3.95 35.1 3.95 35.1 4.0 35.8 4.0 35.8 4.95 34.1 4.95 34.1 5.0 35.8 5.0 35.8 5.65 35.8 5.95 34.1 5.95 34.1 6.95 35.1 6.95 35.1 7.9 36.1 7.9 36.1 9.4 34.6 9.4 34.6 8.45 33.9 8.45 33.9 7.9 33.6 7.9 33.6 7.5 34.1 7.5 34.1 7.45 32.9 7.45 32.9 6.95 31.9 6.95 31.9 7.9 30.2 7.9 30.2 6.95 29.2 6.95 29.2 6.0 30.2 6.0 30.9 6.0 30.9 6.95 31.9 6.95 31.9 6.45 32.6 6.45 32.6 5.5 32.9 5.5 32.9 5.45 33.05 5.45 33.05 4.95 33.6 4.95 33.6 4.5 33.9 4.5 33.9 3.95 34.2 3.95 34.6 3.95 34.6 3.5 35.05 3.5 35.05 2.95 35.9 2.95 36.1 2.95 36.1 2.0 37.05 2.0 37.05 1.95 38.1 1.95 38.1 1.0 39.8 1.0 39.8 1.95 38.1 1.95 38.1 2.95 M35.8 6.0 L36.8 6.0 36.8 6.95 37.8 6.95 37.8 7.9 36.1 7.9 36.1 6.95 35.1 6.95 35.1 6.0 35.8 6.0 M38.6 6.9 L38.6 6.95 38.35 6.95 38.35 6.9 38.6 6.9 M37.8 9.1 L38.1 9.1 38.1 9.4 37.8 9.4 37.8 9.1 M36.35 12.85 L36.6 12.85 36.6 13.8 36.35 13.8 36.35 12.85 M1.05 14.55 L1.05 13.55 0.0 13.55 0.0 4.95 1.0 4.95 1.0 3.95 2.0 3.95 2.0 2.95 3.05 2.95 3.05 2.0 4.0 2.0 4.0 1.95 5.05 1.95 5.05 1.0 12.65 1.0 12.65 1.95 5.05 1.95 5.05 2.0 10.65 2.0 10.65 2.95 3.05 2.95 3.05 3.0 9.65 3.0 9.65 3.95 2.05 3.95 2.05 4.0 8.65 4.0 8.65 4.95 1.05 4.95 1.05 5.0 8.65 5.0 8.65 5.95 1.05 5.95 1.05 6.95 2.05 6.95 2.05 7.9 3.05 7.9 3.05 6.95 2.05 6.95 2.05 6.0 8.65 6.0 9.65 6.0 9.65 6.95 10.1 6.95 10.65 6.95 10.65 7.9 3.05 7.9 3.05 15.5 2.0 15.5 2.0 14.55 1.05 14.55 M14.1 1.95 L14.1 1.0 21.7 1.0 21.7 1.95 14.1 1.95 M23.15 1.95 L23.15 1.0 30.75 1.0 30.75 1.95 23.15 1.95 M32.2 1.95 L32.2 1.0 33.9 1.0 33.9 1.95 32.2 1.95 M49.0 11.85 L49.0 11.6 50.15 11.6 50.15 9.9 49.2 9.9 49.2 9.6 51.2 9.6 51.2 13.8 49.0 13.8 49.0 11.9 49.2 11.9 49.2 11.85 49.0 11.85 M47.0 12.85 L47.3 12.85 47.3 13.8 47.0 13.8 47.0 12.85 M30.75 2.0 L31.9 2.0 31.9 2.95 30.2 2.95 30.2 2.0 30.75 2.0 M31.9 3.65 L32.2 3.65 32.2 3.95 31.9 3.95 31.9 3.65 M30.2 3.0 L30.9 3.0 30.9 3.95 29.2 3.95 29.2 3.0 30.2 3.0 M29.2 4.0 L29.9 4.0 29.9 4.95 28.2 4.95 28.2 4.0 29.2 4.0 M28.2 5.0 L29.9 5.0 29.9 5.95 28.2 5.95 28.2 5.0 M28.2 6.95 L28.75 6.95 28.75 7.9 21.15 7.9 21.15 6.95 20.15 6.95 20.15 6.0 26.75 6.0 27.75 6.0 27.75 6.95 28.2 6.95 M32.6 6.45 L32.6 6.5 33.05 6.5 33.05 6.45 32.6 6.45 M31.9 9.9 L32.2 9.9 32.2 10.85 31.9 10.85 31.9 9.9 M33.9 10.85 L33.9 9.4 34.6 9.4 34.6 10.85 33.9 10.85 M26.75 5.0 L26.75 5.95 19.15 5.95 19.15 5.0 26.75 5.0 M23.15 2.0 L28.75 2.0 28.75 2.95 21.15 2.95 21.15 2.0 21.7 2.0 23.15 2.0 M21.15 3.0 L27.75 3.0 27.75 3.95 20.15 3.95 20.15 3.0 21.15 3.0 M20.15 4.0 L26.75 4.0 26.75 4.95 19.15 4.95 19.15 4.0 20.15 4.0 M24.85 11.85 L24.85 11.6 26.75 11.6 26.75 11.85 24.85 11.85 M26.75 11.9 L27.75 11.9 27.75 12.85 28.2 12.85 28.2 11.85 27.15 11.85 27.15 11.6 28.75 11.6 28.75 9.9 27.75 9.9 27.75 9.6 28.75 9.6 30.2 9.6 30.2 13.8 29.15 13.8 29.15 12.85 28.75 12.85 28.75 13.8 24.85 13.8 24.85 11.9 26.75 11.9 M22.85 12.85 L23.15 12.85 23.15 13.8 22.85 13.8 22.85 12.85 M34.85 14.05 L36.1 14.05 36.1 15.5 35.05 15.5 35.05 14.35 34.85 14.35 34.85 14.05 M34.6 14.05 L33.9 14.05 33.9 12.55 34.6 12.55 34.6 14.05 M14.1 2.0 L19.7 2.0 19.7 2.95 12.1 2.95 12.1 2.0 12.65 2.0 14.1 2.0 M12.1 3.0 L18.7 3.0 18.7 3.95 11.1 3.95 11.1 3.0 12.1 3.0 M17.7 5.0 L17.7 5.95 10.1 5.95 10.1 5.0 17.7 5.0 M17.7 6.0 L18.7 6.0 18.7 6.95 19.15 6.95 19.7 6.95 19.7 7.9 12.1 7.9 12.1 6.95 11.1 6.95 11.1 6.0 17.7 6.0 M11.1 4.0 L17.7 4.0 17.7 4.95 10.1 4.95 10.1 4.0 11.1 4.0 M15.8 11.85 L15.8 11.6 16.95 11.6 16.95 9.9 16.0 9.9 16.0 9.6 18.0 9.6 18.0 13.8 15.8 13.8 15.8 12.85 16.0 12.85 16.0 11.9 16.0 11.85 15.8 11.85 M13.8 12.85 L14.1 12.85 14.1 13.8 13.8 13.8 13.8 12.85 M7.9 10.85 L7.9 9.9 6.95 9.9 6.95 9.6 8.95 9.6 8.95 10.85 7.9 10.85 M6.75 12.55 L7.45 12.55 7.45 15.5 6.75 15.5 6.75 12.55 M12.1 13.8 L11.2 13.8 11.2 12.55 12.1 12.55 12.1 13.8" fill="#037eda" fill-rule="evenodd" stroke="none"/>
    <path d="M260.35 9.75 L260.35 11.7 259.4 11.7 259.4 10.75 259.3 10.75 259.3 9.75 259.4 9.75 259.4 8.9 259.3 8.9 259.3 7.75 257.9 7.75 257.9 6.9 258.4 6.9 258.4 6.8 259.4 6.8 259.4 6.9 260.4 6.9 260.4 6.8 260.45 6.8 260.45 6.9 261.4 6.9 261.45 6.9 261.45 6.8 261.8 6.8 261.8 5.95 262.4 5.95 262.4 6.9 263.9 6.9 264.4 8.75 264.8 10.2 265.3 8.3 265.35 8.1 265.65 6.9 267.2 6.9 267.2 7.75 267.2 8.65 267.2 11.7 266.25 11.7 266.25 8.2 266.25 8.05 265.8 9.65 265.3 11.35 265.2 11.7 264.35 11.7 264.25 11.35 263.85 9.85 263.6 8.9 263.4 8.9 263.3 8.55 263.3 11.7 262.4 11.7 262.4 10.75 262.4 7.75 262.4 6.9 261.8 6.9 261.8 7.75 261.4 7.75 261.35 7.75 260.45 7.75 260.45 7.95 260.4 7.95 260.4 7.75 260.35 7.75 260.35 7.95 260.35 8.8 260.35 8.9 260.35 9.75 M257.4 9.75 L257.4 8.8 257.45 8.8 257.45 9.75 257.4 9.75 M256.35 5.8 L255.9 5.8 255.9 4.95 256.35 4.95 257.3 4.95 257.35 4.95 258.4 4.95 258.4 4.85 259.35 4.85 259.35 4.95 259.4 4.95 259.8 4.95 259.8 5.0 256.95 5.0 256.95 5.8 256.35 5.8 M255.9 3.95 L257.35 3.95 258.4 3.95 258.4 3.85 259.35 3.85 259.35 3.95 259.4 3.95 259.4 3.85 259.8 3.85 259.8 3.0 256.9 3.0 256.9 2.95 258.35 2.95 259.35 2.95 259.4 2.95 259.4 2.85 260.35 2.85 260.35 2.95 260.8 2.95 260.8 3.0 260.4 3.0 260.4 3.8 260.35 3.8 260.35 3.95 259.8 3.95 259.8 4.0 255.9 4.0 255.9 3.95 M257.9 1.95 L259.4 1.95 261.3 1.95 261.4 1.95 261.4 1.85 261.8 1.85 261.8 1.0 259.9 1.0 259.9 0.95 261.4 0.95 262.35 0.95 263.8 0.95 263.8 1.0 262.4 1.0 262.4 1.8 262.35 1.8 262.35 1.95 261.8 1.95 261.8 2.0 261.4 2.0 261.4 2.8 261.35 2.8 261.3 2.8 260.8 2.8 260.8 2.0 257.9 2.0 257.9 1.95 M269.2 0.95 L269.2 1.95 267.65 1.95 267.4 2.95 266.65 2.95 266.4 3.95 266.25 3.95 266.25 3.25 266.25 3.1 266.2 3.2 266.2 3.95 265.65 3.95 265.4 5.0 265.25 5.0 265.25 4.25 265.2 4.1 265.2 4.0 263.65 4.0 263.55 4.5 263.65 3.95 265.2 3.95 265.2 3.0 264.65 3.0 264.65 2.95 266.2 2.95 266.2 2.0 265.65 2.0 265.65 1.95 267.2 1.95 267.2 2.7 267.3 2.35 267.35 2.15 267.65 0.95 269.2 0.95 M264.4 0.95 L265.9 0.95 265.95 1.0 265.65 1.0 265.4 1.95 264.4 1.95 264.4 1.8 264.4 0.95 M264.2 2.95 L263.4 2.95 263.4 3.3 263.35 3.15 263.3 2.95 263.3 3.5 262.9 2.0 262.4 2.0 262.4 1.95 263.9 1.95 264.2 2.95 M263.2 3.95 L262.4 3.95 262.4 4.35 262.35 4.15 262.3 3.95 262.3 4.5 261.9 3.0 261.4 3.0 261.4 2.95 262.9 2.95 263.2 3.95 M263.4 5.95 L263.65 4.95 265.2 4.95 265.2 5.0 264.7 5.0 264.45 5.95 263.9 5.95 263.4 5.95 M264.7 5.95 L265.65 5.95 265.4 6.9 264.45 6.9 264.7 5.95 M264.35 7.5 L264.35 7.35 264.4 7.15 264.4 7.75 264.35 7.5 M260.4 3.95 L261.9 3.95 262.2 5.0 261.9 4.0 260.4 4.0 260.4 3.95 M260.4 4.95 L261.9 4.95 261.95 5.0 261.45 5.0 261.45 5.95 260.4 5.95 260.4 5.85 260.85 5.85 260.85 5.0 260.4 5.0 260.4 4.95 M258.45 5.85 L258.45 5.95 258.4 5.95 258.4 5.85 258.45 5.85 M257.35 5.95 L257.4 5.95 257.4 5.85 258.35 5.85 258.35 5.95 257.9 5.95 257.9 6.8 257.45 6.8 257.45 6.9 257.4 6.9 257.4 6.8 257.35 6.8 257.3 6.8 256.95 6.8 256.95 5.95 257.3 5.95 257.35 5.95 M257.4 7.75 L257.45 7.75 257.45 7.95 257.4 7.95 257.4 7.8 257.4 7.75 M260.4 8.8 L260.45 8.8 260.45 8.9 260.4 8.9 260.4 8.8 M249.75 1.95 L249.75 2.95 248.05 2.95 248.05 1.95 249.75 1.95 M249.75 7.85 L249.75 7.9 248.8 7.9 248.8 7.85 249.75 7.85 M247.75 11.6 L247.75 12.55 246.05 12.55 246.05 7.9 247.75 7.9 247.75 11.6 M247.75 14.55 L247.75 15.5 246.8 15.5 246.05 15.5 246.05 13.8 247.75 13.8 247.75 14.55 M244.05 10.6 L244.05 5.95 245.75 5.95 245.75 5.0 244.05 5.0 244.05 4.95 245.75 4.95 245.75 4.0 245.05 4.0 245.05 3.95 246.75 3.95 246.75 3.0 246.05 3.0 246.05 2.95 247.75 2.95 247.75 3.95 247.05 3.95 247.05 4.95 246.05 4.95 246.05 6.0 245.1 6.0 245.1 6.95 244.1 6.95 244.1 10.6 244.05 10.6 M246.05 6.95 L246.05 7.9 245.1 7.9 245.1 6.95 246.05 6.95 M244.05 11.85 L245.0 11.85 245.0 12.55 245.1 12.55 245.1 12.85 244.1 12.85 244.1 13.55 244.05 13.55 244.05 11.85 M245.1 12.85 L246.05 12.85 246.05 13.8 245.1 13.8 245.1 12.85 M239.05 1.95 L239.05 2.95 237.05 2.95 237.05 3.95 236.05 3.95 236.05 4.95 235.05 4.95 235.05 5.0 227.45 5.0 227.45 4.95 235.05 4.95 235.05 4.0 228.45 4.0 228.45 3.95 236.05 3.95 236.05 3.0 229.45 3.0 229.45 2.95 237.05 2.95 237.05 2.0 231.45 2.0 231.45 1.95 239.05 1.95 M235.05 5.95 L235.05 6.0 228.5 6.0 228.5 6.95 229.45 6.95 229.45 7.9 237.05 7.9 237.05 9.6 236.1 9.6 234.1 9.6 234.1 14.55 234.1 15.5 232.4 15.5 232.4 9.6 230.45 9.6 229.45 9.6 229.45 7.9 228.5 7.9 228.5 6.95 228.0 6.95 227.45 6.95 227.45 5.95 235.05 5.95 M224.1 1.95 L224.1 2.95 222.4 2.95 222.4 1.95 224.1 1.95 M230.0 1.95 L230.0 2.0 229.45 2.0 229.45 2.95 228.3 2.95 228.3 1.95 230.0 1.95 M228.0 3.95 L227.3 3.95 227.3 4.95 226.3 4.95 226.3 6.0 225.35 6.0 225.35 6.95 224.35 6.95 224.35 11.9 224.1 11.9 224.1 11.85 224.3 11.85 224.3 5.95 226.0 5.95 226.0 5.0 224.3 5.0 224.3 4.95 226.0 4.95 226.0 4.0 225.3 4.0 225.3 3.95 227.0 3.95 227.0 3.0 226.3 3.0 226.3 2.95 228.0 2.95 228.0 3.95 M225.35 6.95 L226.3 6.95 226.3 7.9 225.35 7.9 225.35 6.95 M228.0 7.9 L228.0 15.5 220.4 15.5 220.4 7.9 219.45 7.9 219.45 6.95 218.95 6.95 218.4 6.95 218.4 5.95 220.1 5.95 220.1 5.0 218.4 5.0 218.4 4.95 220.1 4.95 220.1 4.0 219.4 4.0 219.4 3.95 221.1 3.95 221.1 3.0 220.4 3.0 220.4 2.95 218.95 2.95 218.95 3.95 217.95 3.95 217.95 4.95 216.95 4.95 216.95 5.0 209.35 5.0 209.35 4.95 216.95 4.95 216.95 4.0 210.35 4.0 210.35 3.95 217.95 3.95 217.95 3.0 211.35 3.0 211.35 2.95 218.95 2.95 218.95 2.0 213.35 2.0 213.35 1.95 220.95 1.95 220.95 2.0 220.4 2.0 220.4 2.95 222.1 2.95 222.1 3.95 221.4 3.95 221.4 4.95 220.4 4.95 220.4 6.0 219.45 6.0 219.45 6.95 220.4 6.95 220.4 7.9 222.1 7.9 222.1 12.85 222.1 13.8 222.4 13.8 224.1 13.8 226.3 13.8 226.3 7.9 228.0 7.9 M218.95 7.9 L218.95 15.5 211.35 15.5 211.35 7.9 210.4 7.9 210.4 6.95 211.35 6.95 211.35 7.9 218.95 7.9 M209.4 13.55 L209.35 13.55 209.35 5.95 216.95 5.95 216.95 6.0 210.4 6.0 210.4 6.95 209.4 6.95 209.4 13.55 M230.4 11.6 L230.45 11.6 230.45 13.55 230.4 13.55 230.4 11.6 M215.25 11.6 L215.3 11.6 215.3 11.9 215.05 11.9 215.05 11.85 215.25 11.85 215.25 11.6 M215.3 9.6 L213.05 9.6 213.05 12.85 213.05 13.8 213.35 13.8 215.05 13.8 217.25 13.8 217.25 9.6 215.3 9.6 M205.85 2.95 L204.15 2.95 204.15 1.95 205.85 1.95 205.85 2.95 M204.15 3.45 L204.15 3.95 203.15 3.95 203.15 4.65 202.85 4.65 202.85 4.95 202.15 4.95 202.15 5.65 201.85 5.65 201.85 5.0 200.15 5.0 200.15 4.95 201.85 4.95 201.85 4.0 201.15 4.0 201.15 3.95 202.85 3.95 202.85 3.0 202.15 3.0 202.15 2.95 203.85 2.95 203.85 3.45 204.15 3.45 M201.85 5.95 L201.85 6.0 201.2 6.0 201.2 6.95 200.2 6.95 200.2 7.5 199.7 7.5 199.7 7.9 199.0 7.9 199.0 7.45 200.15 7.45 200.15 5.95 201.85 5.95 M203.85 6.95 L203.85 6.35 204.4 6.35 204.4 6.6 204.4 6.9 204.4 6.95 203.85 6.95 M203.85 7.9 L203.85 9.1 203.85 9.4 203.85 9.6 202.4 9.6 202.4 11.1 200.9 11.1 200.9 12.35 202.4 12.35 202.4 12.85 202.4 13.8 202.65 13.8 203.85 13.8 203.85 14.55 203.85 15.5 202.9 15.5 202.15 15.5 202.15 14.05 200.9 14.05 200.65 14.05 200.65 12.55 199.95 12.55 197.95 12.55 197.95 14.55 197.95 15.5 196.25 15.5 196.25 13.8 196.25 9.6 196.25 7.9 195.3 7.9 195.3 6.95 194.8 6.95 194.25 6.95 194.25 5.95 195.95 5.95 195.95 5.0 194.25 5.0 194.25 4.95 195.95 4.95 195.95 4.0 195.25 4.0 195.25 3.95 196.95 3.95 196.95 3.0 196.25 3.0 196.25 2.95 197.95 2.95 197.95 3.65 197.95 3.95 197.25 3.95 197.25 4.95 196.25 4.95 196.25 6.0 195.3 6.0 195.3 6.95 196.25 6.95 196.25 7.9 197.95 7.9 197.95 9.9 197.95 10.85 198.25 10.85 199.95 10.85 200.65 10.85 200.65 9.4 199.95 9.4 199.95 8.45 200.65 8.45 200.65 9.4 202.15 9.4 202.15 7.9 201.2 7.9 201.2 6.95 202.15 6.95 202.15 7.9 203.85 7.9 M194.25 15.5 L193.85 15.5 187.2 15.5 187.2 7.9 194.8 7.9 194.8 9.6 194.3 9.6 194.3 9.9 194.25 9.9 194.25 9.6 193.85 9.6 188.9 9.6 188.9 12.85 188.9 13.8 189.2 13.8 190.9 13.8 194.8 13.8 194.8 15.5 194.25 15.5 M176.15 15.5 L175.75 15.5 169.1 15.5 169.1 10.85 169.1 9.6 169.1 7.9 168.15 7.9 168.15 6.95 167.65 6.95 167.1 6.95 167.1 5.95 168.8 5.95 168.8 5.0 167.1 5.0 167.1 4.95 168.8 4.95 168.8 4.0 168.1 4.0 168.1 3.95 169.8 3.95 169.8 3.0 169.1 3.0 169.1 2.95 167.65 2.95 167.65 3.95 166.65 3.95 166.65 4.95 165.65 4.95 165.65 5.0 158.05 5.0 158.05 4.95 165.65 4.95 165.65 4.0 159.05 4.0 159.05 3.95 166.65 3.95 166.65 3.0 160.05 3.0 160.05 2.95 167.65 2.95 167.65 2.0 162.05 2.0 162.05 1.95 169.65 1.95 169.65 2.0 169.1 2.0 169.1 2.95 170.8 2.95 170.8 3.65 170.8 3.95 170.1 3.95 170.1 4.95 169.1 4.95 169.1 6.0 168.15 6.0 168.15 6.95 169.1 6.95 169.1 7.9 170.8 7.9 170.8 12.85 170.8 13.8 171.1 13.8 172.8 13.8 176.7 13.8 176.7 15.5 176.15 15.5 M172.8 1.95 L172.8 2.95 171.1 2.95 171.1 1.95 172.8 1.95 M199.95 1.95 L199.95 2.95 198.25 2.95 198.25 1.95 199.95 1.95 M205.85 7.85 L205.85 7.9 204.9 7.9 204.9 7.85 205.85 7.85 M196.8 2.0 L196.25 2.0 196.25 2.95 194.8 2.95 194.8 2.0 189.2 2.0 189.2 1.95 196.8 1.95 196.8 2.0 M194.8 2.95 L194.8 3.95 193.8 3.95 193.8 3.0 187.2 3.0 187.2 2.95 194.8 2.95 M193.8 3.95 L193.8 4.95 192.8 4.95 192.8 5.0 185.2 5.0 185.2 4.95 192.8 4.95 192.8 4.0 186.2 4.0 186.2 3.95 193.8 3.95 M192.8 5.95 L192.8 6.0 186.25 6.0 186.25 6.95 187.2 6.95 187.2 7.9 186.25 7.9 186.25 6.95 185.75 6.95 185.2 6.95 185.2 5.95 192.8 5.95 M190.9 11.9 L190.9 11.85 192.8 11.85 192.8 11.9 190.9 11.9 M194.25 12.85 L194.25 11.85 194.25 11.6 194.3 11.6 194.3 12.85 194.25 12.85 M198.65 6.45 L199.1 6.45 199.1 6.5 198.65 6.5 198.65 6.45 M187.75 1.95 L187.75 2.0 187.2 2.0 187.2 2.95 185.75 2.95 185.75 3.95 184.75 3.95 184.75 4.95 183.75 4.95 183.75 5.0 176.15 5.0 176.15 4.95 183.75 4.95 183.75 4.0 177.15 4.0 177.15 3.95 184.75 3.95 184.75 3.0 178.15 3.0 178.15 2.95 185.75 2.95 185.75 2.0 180.15 2.0 180.15 1.95 187.75 1.95 M183.75 5.95 L183.75 6.0 177.2 6.0 177.2 6.95 178.15 6.95 178.15 7.9 177.2 7.9 177.2 6.95 176.2 6.95 176.2 12.85 176.15 12.85 176.15 11.85 176.15 5.95 183.75 5.95 M185.75 7.9 L185.75 15.5 178.15 15.5 178.15 13.8 178.15 7.9 185.75 7.9 M182.1 11.6 L182.1 11.9 181.85 11.9 181.85 11.85 182.05 11.85 182.05 11.6 182.1 11.6 M181.85 13.8 L184.05 13.8 184.05 9.6 182.1 9.6 179.85 9.6 179.85 12.85 179.85 13.8 180.15 13.8 181.85 13.8 M172.8 8.85 L175.1 8.85 175.1 8.9 172.8 8.9 172.8 8.85 M172.8 9.85 L175.1 9.85 175.1 10.85 174.7 10.85 174.7 10.9 172.8 10.9 172.8 10.85 174.7 10.85 174.7 9.9 172.8 9.9 172.8 9.85 M174.8 7.85 L175.1 7.85 175.1 7.9 172.8 7.9 172.8 7.85 173.1 7.85 174.8 7.85 M172.8 11.9 L172.8 11.85 174.7 11.85 174.7 11.9 172.8 11.9 M165.65 5.95 L165.65 6.0 159.1 6.0 159.1 6.95 160.05 6.95 160.05 7.9 167.65 7.9 167.65 9.6 167.15 9.6 167.15 9.9 167.1 9.9 167.1 9.6 161.75 9.6 161.75 12.85 161.75 13.8 162.05 13.8 164.9 13.8 165.95 13.8 165.95 12.55 164.0 12.55 163.0 12.55 163.0 10.85 167.65 10.85 167.65 15.5 160.05 15.5 160.05 7.9 159.1 7.9 159.1 6.95 158.1 6.95 158.1 13.55 158.05 13.55 158.05 5.95 165.65 5.95 M146.95 1.95 L154.55 1.95 154.55 2.95 152.55 2.95 152.55 3.95 151.55 3.95 151.55 4.95 150.55 4.95 150.55 5.0 142.95 5.0 142.95 4.95 150.55 4.95 150.55 4.0 143.95 4.0 143.95 3.95 151.55 3.95 151.55 3.0 144.95 3.0 144.95 2.95 143.8 2.95 143.8 1.95 145.5 1.95 145.5 2.0 144.95 2.0 144.95 2.95 152.55 2.95 152.55 2.0 146.95 2.0 146.95 1.95 M152.55 15.5 L151.55 15.5 149.35 15.5 149.35 12.55 148.65 12.55 146.65 12.55 146.65 14.55 146.65 15.5 144.95 15.5 144.95 7.9 143.95 7.9 143.95 6.95 144.95 6.95 144.95 7.9 152.55 7.9 152.55 12.55 151.1 12.55 151.1 13.8 152.55 13.8 152.55 15.5 M122.45 14.55 L122.45 15.5 120.75 15.5 120.75 12.55 119.5 12.55 119.3 12.55 119.3 11.1 118.25 11.1 117.8 11.1 117.8 7.9 119.5 7.9 119.5 9.9 119.5 10.85 119.8 10.85 121.0 10.85 121.0 11.4 121.0 12.35 121.3 12.35 122.2 12.35 122.2 10.85 121.5 10.85 121.5 9.9 122.2 9.9 122.2 10.85 123.7 10.85 123.7 7.9 122.7 7.9 122.7 6.95 123.7 6.95 123.7 7.9 125.4 7.9 125.4 10.15 125.4 10.85 125.4 11.1 123.95 11.1 123.95 12.55 122.45 12.55 122.45 14.55 M121.5 1.95 L121.5 2.95 119.8 2.95 119.8 1.95 121.5 1.95 M127.4 1.95 L127.4 2.0 126.85 2.0 126.85 2.95 134.45 2.95 134.45 2.0 128.85 2.0 128.85 1.95 136.45 1.95 136.45 2.0 135.9 2.0 135.9 2.95 134.45 2.95 134.45 3.95 133.45 3.95 133.45 4.95 132.45 4.95 132.45 5.0 124.85 5.0 124.85 4.95 132.45 4.95 132.45 4.0 125.85 4.0 125.85 3.95 133.45 3.95 133.45 3.0 126.85 3.0 126.85 2.95 125.7 2.95 125.7 1.95 127.4 1.95 M139.6 1.95 L139.6 2.95 137.9 2.95 137.9 1.95 139.6 1.95 M150.55 5.95 L150.55 6.0 143.95 6.0 143.95 6.95 143.5 6.95 142.95 6.95 142.95 5.95 150.55 5.95 M154.55 7.9 L153.55 7.9 153.55 7.85 154.55 7.85 154.55 7.9 M143.5 3.95 L142.8 3.95 142.8 4.95 141.8 4.95 141.8 6.0 140.8 6.0 140.8 6.95 139.8 6.95 139.8 5.95 141.5 5.95 141.5 5.0 139.8 5.0 139.8 4.95 141.5 4.95 141.5 4.0 140.8 4.0 140.8 3.95 142.5 3.95 142.5 3.0 141.8 3.0 141.8 2.95 143.5 2.95 143.5 3.95 M140.8 6.95 L141.8 6.95 141.8 7.9 143.5 7.9 143.5 15.5 135.9 15.5 135.9 7.9 134.9 7.9 134.9 6.95 134.45 6.95 133.9 6.95 133.9 5.95 135.6 5.95 135.6 5.0 133.9 5.0 133.9 4.95 135.6 4.95 135.6 4.0 134.9 4.0 134.9 3.95 136.6 3.95 136.6 3.0 135.9 3.0 135.9 2.95 137.6 2.95 137.6 3.95 136.9 3.95 136.9 4.95 135.9 4.95 135.9 6.0 134.9 6.0 134.9 6.95 135.9 6.95 135.9 7.9 137.6 7.9 137.6 12.85 137.6 13.8 137.9 13.8 139.6 13.8 141.8 13.8 141.8 7.9 140.8 7.9 140.8 6.95 M134.45 7.9 L134.45 15.5 126.85 15.5 126.85 11.1 126.85 7.9 125.85 7.9 125.85 6.95 125.4 6.95 124.85 6.95 124.85 5.95 132.45 5.95 132.45 6.0 125.85 6.0 125.85 6.95 126.85 6.95 126.85 7.9 134.45 7.9 M148.85 9.6 L146.65 9.6 146.65 10.85 149.8 10.85 150.85 10.85 150.85 9.6 148.85 9.6 M130.55 11.85 L130.75 11.85 130.75 11.9 130.55 11.9 130.55 11.85 M130.55 13.8 L132.75 13.8 132.75 9.6 130.75 9.6 128.55 9.6 128.55 12.85 128.55 13.8 128.85 13.8 130.55 13.8 M139.6 11.9 L139.6 11.85 139.8 11.85 139.8 11.9 139.6 11.9 M125.4 3.95 L124.7 3.95 124.7 4.95 123.7 4.95 123.7 6.0 122.7 6.0 122.7 6.95 121.7 6.95 121.7 5.95 123.4 5.95 123.4 5.0 121.7 5.0 121.7 4.95 123.4 4.95 123.4 4.0 122.7 4.0 122.7 3.95 124.4 3.95 124.4 3.0 123.7 3.0 123.7 2.95 125.4 2.95 125.4 3.95 M121.5 4.9 L121.65 4.9 121.65 4.95 121.5 4.95 121.5 4.9 M120.65 5.9 L120.65 6.9 120.5 6.9 120.5 5.9 120.65 5.9 M121.5 8.9 L121.7 8.9 121.7 8.95 121.5 8.95 121.5 8.9 M117.8 6.0 L116.8 6.0 116.8 6.95 115.8 6.95 115.8 5.95 117.5 5.95 117.5 5.0 115.8 5.0 115.8 4.95 117.5 4.95 117.5 4.0 116.8 4.0 116.8 3.95 118.5 3.95 118.5 3.0 117.8 3.0 117.8 2.95 119.5 2.95 119.5 3.95 118.8 3.95 118.8 4.95 117.8 4.95 117.8 6.0 M119.5 6.95 L119.5 6.9 120.0 6.9 120.0 6.95 119.5 6.95 M112.25 1.95 L112.25 2.95 110.55 2.95 110.55 1.95 112.25 1.95 M110.25 14.55 L110.25 15.5 108.55 15.5 108.55 12.55 106.6 12.55 104.35 12.55 104.35 14.55 104.35 15.5 102.65 15.5 102.65 9.6 102.65 7.9 101.7 7.9 101.7 6.95 101.2 6.95 100.65 6.95 100.65 5.95 102.35 5.95 102.35 5.0 100.65 5.0 100.65 4.95 102.35 4.95 102.35 4.0 101.65 4.0 101.65 3.95 103.35 3.95 103.35 3.0 102.65 3.0 102.65 2.95 101.2 2.95 101.2 3.95 100.2 3.95 100.2 4.95 99.2 4.95 99.2 5.0 91.6 5.0 91.6 4.95 99.2 4.95 99.2 4.0 92.6 4.0 92.6 3.95 100.2 3.95 100.2 3.0 93.6 3.0 93.6 2.95 101.2 2.95 101.2 2.0 95.6 2.0 95.6 1.95 103.2 1.95 103.2 2.0 102.65 2.0 102.65 2.95 104.35 2.95 104.35 3.65 104.35 3.95 103.65 3.95 103.65 4.95 102.65 4.95 102.65 6.0 101.7 6.0 101.7 6.95 102.65 6.95 102.65 7.9 104.35 7.9 104.35 9.9 104.35 10.85 104.65 10.85 106.35 10.85 108.55 10.85 108.55 7.9 107.6 7.9 107.6 6.95 106.6 6.95 106.6 8.95 106.35 8.95 106.35 8.9 106.55 8.9 106.55 5.95 108.25 5.95 108.25 5.0 106.55 5.0 106.55 4.95 108.25 4.95 108.25 4.0 107.55 4.0 107.55 3.95 109.25 3.95 109.25 3.0 108.55 3.0 108.55 2.95 110.25 2.95 110.25 3.95 109.55 3.95 109.55 4.95 108.55 4.95 108.55 6.0 107.6 6.0 107.6 6.95 108.55 6.95 108.55 7.9 110.25 7.9 110.25 14.55 M98.25 14.55 L98.25 15.5 96.55 15.5 96.55 9.6 94.6 9.6 93.6 9.6 93.6 7.9 92.65 7.9 92.65 6.95 92.2 6.95 91.6 6.95 91.6 5.95 99.2 5.95 99.2 6.0 92.65 6.0 92.65 6.95 93.6 6.95 93.6 7.9 101.2 7.9 101.2 9.6 100.7 9.6 100.7 9.9 100.65 9.9 100.65 9.6 100.25 9.6 98.25 9.6 98.25 14.55 M92.2 15.5 L91.25 15.5 87.55 15.5 87.55 14.05 87.55 13.8 88.1 13.8 89.05 13.8 89.05 9.6 88.1 9.6 87.55 9.6 87.55 7.9 86.6 7.9 86.6 6.95 87.55 6.95 87.55 7.9 92.2 7.9 92.2 9.6 90.75 9.6 90.75 12.85 90.75 13.8 91.05 13.8 92.2 13.8 92.2 15.5 M82.2 1.95 L82.2 2.0 81.45 2.0 81.45 2.95 83.15 2.95 83.15 3.95 82.45 3.95 82.35 3.95 82.35 4.95 81.45 4.95 81.35 4.95 81.35 6.0 80.5 6.0 80.5 6.95 80.2 6.95 79.45 6.95 79.45 5.95 81.15 5.95 81.15 5.0 79.45 5.0 79.45 4.95 81.15 4.95 81.15 4.0 80.45 4.0 80.45 3.95 82.15 3.95 82.15 3.0 81.45 3.0 81.45 2.95 80.5 2.95 80.5 1.95 82.2 1.95 M85.15 1.95 L85.15 2.0 84.4 2.0 84.4 2.95 86.1 2.95 86.1 3.95 85.4 3.95 85.4 4.95 84.4 4.95 84.4 6.0 83.45 6.0 83.45 6.95 83.15 6.95 82.4 6.95 82.4 5.95 84.1 5.95 84.1 5.0 82.4 5.0 82.4 4.95 84.1 4.95 84.1 4.0 83.4 4.0 83.4 3.95 85.1 3.95 85.1 3.0 84.4 3.0 84.4 2.95 83.45 2.95 83.45 1.95 85.15 1.95 M88.1 1.95 L88.1 2.0 87.55 2.0 87.55 2.95 92.2 2.95 92.2 2.0 89.55 2.0 89.55 1.95 94.2 1.95 94.2 2.0 93.6 2.0 93.6 2.95 92.2 2.95 92.2 3.95 91.2 3.95 91.2 4.95 90.2 4.95 90.2 5.0 85.55 5.0 85.55 4.95 90.2 4.95 90.2 4.0 86.55 4.0 86.55 3.95 91.2 3.95 91.2 3.0 87.55 3.0 87.55 2.95 86.4 2.95 86.4 1.95 88.1 1.95 M106.35 1.95 L106.35 2.95 104.65 2.95 104.65 1.95 106.35 1.95 M116.8 6.95 L117.8 6.95 117.8 7.9 116.8 7.9 116.8 6.95 M106.35 4.9 L106.5 4.9 106.5 4.95 106.35 4.95 106.35 4.9 M105.5 5.9 L105.5 5.95 105.35 5.95 105.35 5.9 105.5 5.9 M105.35 6.9 L105.5 6.9 105.5 6.95 105.4 6.95 104.35 6.95 104.35 6.9 105.35 6.9 M100.7 13.55 L100.65 13.55 100.65 11.6 100.7 11.6 100.7 13.55 M90.2 5.95 L90.2 6.0 86.6 6.0 86.6 6.95 86.1 6.95 85.55 6.95 85.55 5.95 90.2 5.95 M94.55 11.6 L94.6 11.6 94.6 13.55 94.55 13.55 94.55 11.6 M83.45 6.95 L84.4 6.95 84.4 7.9 83.45 7.9 83.45 6.95 M84.4 7.9 L86.1 7.9 86.1 13.1 86.1 13.8 86.1 14.05 84.65 14.05 84.65 15.5 84.4 15.5 83.7 15.5 82.9 15.5 82.9 14.05 82.0 14.05 81.85 14.05 81.7 14.05 81.7 15.5 80.9 15.5 80.75 15.5 80.0 15.5 80.0 14.05 78.95 14.05 78.5 14.05 78.5 7.9 80.2 7.9 80.2 12.85 80.2 13.8 80.5 13.8 81.45 13.8 81.45 7.9 83.15 7.9 83.15 12.85 83.15 13.8 83.45 13.8 84.4 13.8 84.4 7.9 M80.5 6.95 L81.45 6.95 81.45 7.9 80.5 7.9 80.5 6.95 M76.5 12.1 L76.5 5.95 78.2 5.95 78.2 5.0 76.5 5.0 76.5 4.95 78.2 4.95 78.2 4.0 77.5 4.0 77.5 3.95 79.2 3.95 79.2 3.0 78.5 3.0 78.5 2.95 80.2 2.95 80.2 3.95 79.5 3.95 79.4 3.95 79.4 4.95 78.5 4.95 78.4 4.95 78.4 6.0 77.55 6.0 77.55 6.95 76.55 6.95 76.55 12.1 76.5 12.1 M65.4 1.95 L73.0 1.95 73.0 2.95 71.0 2.95 71.0 2.0 65.4 2.0 65.4 1.95 M71.0 9.6 L70.05 9.6 68.05 9.6 68.05 14.55 68.05 15.5 66.35 15.5 66.35 9.6 64.4 9.6 63.4 9.6 63.4 7.9 62.45 7.9 62.45 6.95 63.4 6.95 63.4 7.9 71.0 7.9 71.0 9.6 M58.05 1.95 L58.05 2.95 56.35 2.95 56.35 1.95 58.05 1.95 M63.95 1.95 L63.95 2.0 63.4 2.0 63.4 2.95 62.25 2.95 62.25 1.95 63.95 1.95 M71.0 2.95 L71.0 3.95 70.0 3.95 70.0 3.0 63.4 3.0 63.4 2.95 71.0 2.95 M70.0 3.95 L70.0 4.95 69.0 4.95 69.0 5.0 61.4 5.0 61.4 4.95 69.0 4.95 69.0 4.0 62.4 4.0 62.4 3.95 70.0 3.95 M69.0 5.95 L69.0 6.0 62.45 6.0 62.45 6.95 61.95 6.95 61.4 6.95 61.4 5.95 69.0 5.95 M78.5 6.95 L78.5 7.9 77.55 7.9 77.55 6.95 78.5 6.95 M61.95 3.95 L61.25 3.95 61.25 4.95 60.25 4.95 60.25 6.0 59.3 6.0 59.3 6.95 58.3 6.95 58.3 11.9 58.05 11.9 58.05 11.85 58.25 11.85 58.25 5.95 59.95 5.95 59.95 5.0 58.25 5.0 58.25 4.95 59.95 4.95 59.95 4.0 59.25 4.0 59.25 3.95 60.95 3.95 60.95 3.0 60.25 3.0 60.25 2.95 61.95 2.95 61.95 3.95 M61.95 7.9 L61.95 15.5 54.35 15.5 54.35 7.9 53.4 7.9 53.4 6.95 52.9 6.95 52.35 6.95 52.35 5.95 54.05 5.95 54.05 5.0 52.35 5.0 52.35 4.95 54.05 4.95 54.05 4.0 53.35 4.0 53.35 3.95 55.05 3.95 55.05 3.0 54.35 3.0 54.35 2.95 52.9 2.95 52.9 2.0 47.3 2.0 47.3 1.95 54.9 1.95 54.9 2.0 54.35 2.0 54.35 2.95 56.05 2.95 56.05 3.95 55.35 3.95 55.35 4.95 54.35 4.95 54.35 6.0 53.4 6.0 53.4 6.95 54.35 6.95 54.35 7.9 56.05 7.9 56.05 12.85 56.05 13.8 56.35 13.8 58.05 13.8 60.25 13.8 60.25 7.9 59.3 7.9 59.3 6.95 60.25 6.95 60.25 7.9 61.95 7.9 M52.9 7.9 L52.9 15.5 45.3 15.5 45.3 7.9 44.3 7.9 44.3 6.95 43.3 6.95 43.3 5.95 50.9 5.95 50.9 6.0 44.3 6.0 44.3 6.95 45.3 6.95 45.3 7.9 52.9 7.9 M64.4 11.6 L64.4 13.55 64.35 13.55 64.35 11.6 64.4 11.6 M52.9 2.95 L52.9 3.95 51.9 3.95 51.9 3.0 45.3 3.0 45.3 2.95 52.9 2.95 M51.9 3.95 L51.9 4.95 50.9 4.95 50.9 5.0 43.3 5.0 43.3 4.95 50.9 4.95 50.9 4.0 44.3 4.0 44.3 3.95 51.9 3.95 M39.8 2.95 L38.1 2.95 38.1 1.95 39.8 1.95 39.8 2.95 M38.1 3.45 L38.1 3.95 37.1 3.95 37.1 4.65 36.8 4.65 36.8 4.95 36.1 4.95 36.1 5.65 35.8 5.65 35.8 5.0 34.1 5.0 34.1 4.95 35.8 4.95 35.8 4.0 35.1 4.0 35.1 3.95 36.8 3.95 36.8 3.0 36.1 3.0 36.1 2.95 37.8 2.95 37.8 3.45 38.1 3.45 M35.8 5.95 L35.8 6.0 35.1 6.0 35.1 6.95 36.1 6.95 36.1 7.9 37.8 7.9 37.8 9.1 37.8 9.4 37.8 9.6 36.35 9.6 36.35 11.1 34.85 11.1 34.85 12.35 36.35 12.35 36.35 12.85 36.35 13.8 36.6 13.8 37.8 13.8 37.8 14.55 37.8 15.5 36.8 15.5 36.1 15.5 36.1 14.05 34.85 14.05 34.6 14.05 34.6 12.55 33.9 12.55 31.9 12.55 31.9 14.55 31.9 15.5 30.2 15.5 30.2 13.8 30.2 9.6 30.2 7.9 29.2 7.9 29.2 6.95 28.75 6.95 28.2 6.95 28.2 5.95 29.9 5.95 29.9 5.0 28.2 5.0 28.2 4.95 29.9 4.95 29.9 4.0 29.2 4.0 29.2 3.95 30.9 3.95 30.9 3.0 30.2 3.0 30.2 2.95 28.75 2.95 28.75 3.95 27.75 3.95 27.75 4.95 26.75 4.95 26.75 5.0 19.15 5.0 19.15 4.95 26.75 4.95 26.75 4.0 20.15 4.0 20.15 3.95 27.75 3.95 27.75 3.0 21.15 3.0 21.15 2.95 28.75 2.95 28.75 2.0 23.15 2.0 23.15 1.95 30.75 1.95 30.75 2.0 30.2 2.0 30.2 2.95 31.9 2.95 31.9 3.65 31.9 3.95 31.2 3.95 31.2 4.95 30.2 4.95 30.2 6.0 29.2 6.0 29.2 6.95 30.2 6.95 30.2 7.9 31.9 7.9 31.9 9.9 31.9 10.85 32.2 10.85 33.9 10.85 34.6 10.85 34.6 9.4 33.9 9.4 33.9 8.45 34.6 8.45 34.6 9.4 36.1 9.4 36.1 7.9 35.1 7.9 35.1 6.95 34.1 6.95 34.1 5.95 35.8 5.95 M37.8 6.95 L37.8 6.35 38.35 6.35 38.35 6.6 38.35 6.9 38.35 6.95 37.8 6.95 M28.2 15.5 L27.75 15.5 21.15 15.5 21.15 7.9 20.15 7.9 20.15 6.95 21.15 6.95 21.15 7.9 28.75 7.9 28.75 9.6 27.75 9.6 22.85 9.6 22.85 12.85 22.85 13.8 23.15 13.8 24.85 13.8 28.75 13.8 28.75 15.5 28.2 15.5 M10.1 15.5 L9.65 15.5 7.45 15.5 7.45 12.55 6.75 12.55 4.75 12.55 4.75 14.55 4.75 15.5 3.05 15.5 3.05 7.9 10.65 7.9 10.65 12.55 9.2 12.55 9.2 13.8 10.65 13.8 10.65 15.5 10.1 15.5 M33.9 1.95 L33.9 2.95 32.2 2.95 32.2 1.95 33.9 1.95 M49.2 9.6 L47.0 9.6 47.0 12.85 47.0 13.8 47.3 13.8 49.0 13.8 51.2 13.8 51.2 9.6 49.2 9.6 M49.0 11.9 L49.0 11.85 49.2 11.85 49.2 11.9 49.0 11.9 M32.9 7.45 L34.1 7.45 34.1 7.5 33.6 7.5 33.6 7.9 32.9 7.9 32.9 7.45 M32.6 6.45 L33.05 6.45 33.05 6.5 32.6 6.5 32.6 6.45 M38.8 7.9 L38.8 7.85 39.8 7.85 39.8 7.9 38.8 7.9 M26.75 5.95 L26.75 6.0 20.15 6.0 20.15 6.95 19.7 6.95 19.15 6.95 19.15 5.95 26.75 5.95 M21.7 1.95 L21.7 2.0 21.15 2.0 21.15 2.95 19.7 2.95 19.7 3.95 18.7 3.95 18.7 3.0 12.1 3.0 12.1 2.95 10.65 2.95 10.65 2.0 5.05 2.0 5.05 1.95 12.65 1.95 12.65 2.0 12.1 2.0 12.1 2.95 19.7 2.95 19.7 2.0 14.1 2.0 14.1 1.95 21.7 1.95 M26.75 11.85 L26.75 11.9 24.85 11.9 24.85 11.85 26.75 11.85 M17.7 5.95 L17.7 6.0 11.1 6.0 11.1 6.95 12.1 6.95 12.1 7.9 19.7 7.9 19.7 15.5 12.1 15.5 12.1 13.8 12.1 12.55 12.1 7.9 11.1 7.9 11.1 6.95 10.65 6.95 10.1 6.95 10.1 5.95 17.7 5.95 M17.7 4.95 L17.7 4.0 11.1 4.0 11.1 3.95 18.7 3.95 18.7 4.95 17.7 4.95 17.7 5.0 10.1 5.0 10.1 4.95 17.7 4.95 M10.65 2.95 L10.65 3.95 9.65 3.95 9.65 4.95 8.65 4.95 8.65 5.0 1.05 5.0 1.05 4.95 8.65 4.95 8.65 4.0 2.05 4.0 2.05 3.95 9.65 3.95 9.65 3.0 3.05 3.0 3.05 2.95 10.65 2.95 M8.65 5.95 L8.65 6.0 2.05 6.0 2.05 6.95 3.05 6.95 3.05 7.9 2.05 7.9 2.05 6.95 1.05 6.95 1.05 5.95 8.65 5.95 M15.8 11.85 L16.0 11.85 16.0 11.9 15.8 11.9 15.8 11.85 M15.8 13.8 L18.0 13.8 18.0 9.6 16.0 9.6 13.8 9.6 13.8 12.85 13.8 13.8 14.1 13.8 15.8 13.8 M6.95 9.9 L6.75 9.9 6.75 9.6 4.75 9.6 4.75 10.85 7.9 10.85 8.95 10.85 8.95 9.6 6.95 9.6 6.95 9.9" fill="#ffffff" fill-rule="evenodd" stroke="none"/>
    <path d="M269.2 1.95 L269.2 2.7 269.65 0.95 271.2 0.95 271.2 5.75 270.25 5.75 270.25 1.95 269.2 5.75 269.2 11.7 268.25 11.7 268.25 10.75 267.5 10.75 267.2 11.7 267.2 13.7 266.25 13.7 266.25 12.75 265.5 12.75 265.2 13.7 264.35 13.7 264.1 12.75 263.4 12.75 263.3 12.4 263.3 13.7 262.4 13.7 262.4 11.75 262.35 11.75 262.35 12.75 261.45 12.75 261.45 11.7 261.4 11.7 261.4 7.75 261.8 7.75 261.8 6.9 262.4 6.9 262.4 7.75 262.35 7.75 262.35 10.6 262.4 10.75 262.4 11.7 263.3 11.7 264.15 11.7 264.25 11.35 264.35 11.7 265.2 11.7 265.3 11.35 265.3 11.7 266.15 11.7 266.15 11.0 265.8 9.65 266.25 8.05 266.25 8.2 266.25 11.7 267.2 11.7 267.2 8.65 267.3 8.25 267.3 7.75 267.25 7.75 267.25 7.6 267.2 7.75 267.2 6.9 267.2 5.95 266.25 5.95 266.25 5.0 265.4 5.0 265.65 3.95 266.2 3.95 266.2 3.2 266.25 3.1 266.25 3.25 266.25 3.95 266.4 3.95 266.65 2.95 267.4 2.95 267.65 1.95 269.2 1.95 M261.35 10.75 L261.3 10.75 261.3 11.75 260.4 11.75 260.4 9.75 260.35 9.75 260.35 8.9 260.4 8.9 260.45 8.9 260.45 8.8 260.4 8.8 260.35 8.8 260.35 7.95 260.4 7.95 260.45 7.95 260.45 7.75 261.35 7.75 261.35 10.75 M260.35 11.7 L260.35 13.7 259.4 13.7 259.4 12.75 258.45 12.75 258.45 11.7 259.3 11.7 259.3 10.75 259.4 10.75 259.4 11.7 260.35 11.7 M258.35 11.7 L258.35 11.75 257.4 11.75 257.4 9.75 257.45 9.75 257.45 10.75 258.35 10.75 258.35 11.7 M257.4 8.8 L257.3 8.8 256.95 8.8 256.95 7.95 257.3 7.95 257.4 7.95 257.45 7.95 257.45 8.8 257.4 8.8 M256.35 7.8 L255.9 7.8 255.9 6.95 256.35 6.95 256.35 7.8 M255.95 6.8 L255.9 6.8 255.9 5.95 255.95 5.95 255.95 6.8 M263.8 0.95 L264.4 0.95 264.4 1.8 264.35 1.8 264.35 2.35 264.35 2.65 263.9 1.0 263.8 1.0 263.8 0.95 M266.4 1.0 L266.4 0.95 267.4 0.95 267.65 0.95 267.35 2.15 267.3 1.95 267.3 2.35 267.2 2.7 267.2 1.95 267.2 1.0 266.4 1.0 M264.4 1.95 L265.4 1.95 265.65 1.95 265.65 2.0 264.65 2.0 264.4 2.95 264.4 2.7 264.4 2.5 264.4 1.95 M264.65 2.95 L264.65 3.0 263.65 3.0 263.4 3.95 263.4 3.3 263.4 2.95 264.2 2.95 264.4 2.95 264.65 2.95 M263.65 3.95 L263.55 4.5 263.4 4.95 263.65 4.95 263.4 5.95 263.2 5.95 262.95 5.0 262.4 5.0 262.4 4.75 262.4 4.35 262.4 3.95 263.2 3.95 263.4 3.95 263.65 3.95 M265.2 4.1 L265.25 4.25 265.25 5.0 265.2 5.0 265.2 4.95 265.2 4.1 M262.4 1.95 L262.4 2.0 261.8 2.0 261.8 1.95 262.35 1.95 262.4 1.95 M263.3 3.5 L263.3 2.95 263.35 3.15 263.35 3.65 263.3 3.5 M263.9 5.95 L264.45 5.95 264.7 5.95 264.45 6.9 265.4 6.9 265.65 6.9 265.35 8.1 265.3 7.9 265.3 8.3 264.8 10.2 264.4 8.75 264.4 7.75 264.4 7.15 264.35 6.95 264.35 7.35 264.35 7.5 263.9 5.95 M268.2 5.25 L268.2 5.95 268.25 5.95 268.25 5.4 268.2 5.25 M263.4 8.9 L263.6 8.9 263.85 9.85 263.75 10.2 263.4 8.9 M261.4 6.9 L260.45 6.9 260.45 6.8 261.4 6.8 261.4 6.9 M259.3 8.9 L259.4 8.9 259.4 9.75 259.3 9.75 259.3 8.9 M264.8 12.2 L264.95 11.75 264.7 11.75 264.8 12.2 M261.3 2.95 L261.35 2.95 261.4 2.95 261.4 3.0 260.8 3.0 260.8 2.95 261.3 2.95 M262.3 4.5 L262.3 3.95 262.35 4.15 262.35 4.7 262.3 4.5 M260.35 3.95 L260.4 3.95 260.4 4.0 260.4 4.8 260.35 4.8 260.35 4.95 260.4 4.95 260.4 5.0 259.8 5.0 259.8 4.95 259.4 4.95 259.4 4.85 259.8 4.85 259.8 4.0 259.8 3.95 260.35 3.95 M259.4 5.85 L260.35 5.85 260.35 5.95 259.4 5.95 259.4 5.85 M257.4 7.75 L257.4 7.8 257.3 7.8 257.3 7.75 257.4 7.75 M257.9 8.9 L258.35 8.9 258.35 9.75 257.9 9.75 257.9 8.9 M250.05 1.95 L251.75 1.95 251.75 6.6 250.05 6.6 250.05 1.95 M249.75 2.95 L249.75 7.85 248.8 7.85 248.8 7.9 249.75 7.9 249.75 12.55 248.05 12.55 248.05 11.6 247.75 11.6 247.75 7.9 247.75 6.95 246.8 6.95 246.8 6.0 246.05 6.0 246.05 4.95 247.05 4.95 247.05 3.95 247.75 3.95 248.05 3.95 248.05 2.95 249.75 2.95 M247.75 12.55 L247.75 12.85 248.8 12.85 248.8 13.8 249.75 13.8 249.75 15.5 248.05 15.5 248.05 14.55 247.75 14.55 247.75 13.8 246.05 13.8 246.05 12.85 245.1 12.85 245.1 12.55 246.05 12.55 247.75 12.55 M246.8 15.5 L246.8 15.8 247.75 15.8 247.75 17.5 246.05 17.5 246.05 16.55 245.1 16.55 245.1 15.55 244.05 15.55 244.05 13.55 244.1 13.55 244.1 14.55 245.0 14.55 245.0 15.5 246.05 15.5 246.8 15.5 M244.05 10.6 L244.1 10.6 244.1 11.6 245.0 11.6 245.0 11.85 244.05 11.85 244.05 10.6 M250.05 9.55 L250.05 7.85 251.75 7.85 251.75 9.55 250.05 9.55 M239.05 1.95 L241.05 1.95 241.05 3.65 239.05 3.65 239.05 5.65 238.1 5.65 238.1 7.9 239.05 7.9 239.05 9.6 237.05 9.6 237.05 7.9 237.05 6.95 236.1 6.95 236.1 6.0 235.05 6.0 235.05 5.95 235.05 5.0 235.05 4.95 236.05 4.95 236.05 3.95 237.05 3.95 237.05 2.95 239.05 2.95 239.05 1.95 M236.1 9.6 L236.1 9.9 237.05 9.9 237.05 11.6 236.1 11.6 236.1 15.5 234.4 15.5 234.4 14.55 234.1 14.55 234.1 9.6 236.1 9.6 M234.1 15.5 L234.1 17.5 232.4 17.5 232.4 16.55 231.45 16.55 231.45 15.55 230.4 15.55 230.4 13.55 230.45 13.55 230.45 14.55 231.35 14.55 231.35 15.5 232.4 15.5 234.1 15.5 M230.0 13.55 L230.0 15.5 228.0 15.5 228.0 17.5 220.4 17.5 220.4 16.55 219.45 16.55 219.45 15.55 218.95 15.55 218.95 17.5 211.35 17.5 211.35 16.55 210.4 16.55 210.4 15.55 209.35 15.55 209.35 13.55 209.4 13.55 209.4 14.55 210.3 14.55 210.3 15.5 211.35 15.5 218.95 15.5 218.95 7.9 218.95 6.95 219.45 6.95 219.45 7.9 220.4 7.9 220.4 15.5 228.0 15.5 228.0 7.9 228.0 6.95 228.5 6.95 228.5 7.9 229.45 7.9 229.45 9.6 230.45 9.6 230.45 9.9 231.35 9.9 231.35 11.6 230.45 11.6 230.4 11.6 230.0 11.6 230.0 13.55 M220.95 1.95 L222.4 1.95 222.4 2.95 224.1 2.95 224.1 4.95 223.25 4.95 223.25 7.9 224.1 7.9 224.1 11.85 224.1 11.9 224.1 13.8 222.4 13.8 222.4 12.85 222.1 12.85 222.1 7.9 222.1 6.95 221.15 6.95 221.15 6.0 220.4 6.0 220.4 4.95 221.4 4.95 221.4 3.95 222.1 3.95 222.1 2.95 222.1 2.0 220.95 2.0 220.95 1.95 M224.4 3.95 L224.4 1.95 226.1 1.95 226.1 2.95 225.25 2.95 225.25 3.95 224.4 3.95 M230.3 2.0 L230.3 1.95 231.45 1.95 231.45 2.0 230.3 2.0 M229.45 2.95 L229.45 3.0 228.45 3.0 228.45 3.95 228.45 4.0 227.45 4.0 227.45 4.95 227.45 5.0 227.45 5.95 227.45 6.95 227.05 6.95 227.05 6.0 226.3 6.0 226.3 4.95 227.3 4.95 227.3 3.95 228.0 3.95 228.3 3.95 228.3 2.95 229.45 2.95 M216.95 5.95 L216.95 5.0 216.95 4.95 217.95 4.95 217.95 3.95 218.95 3.95 218.95 2.95 220.4 2.95 220.4 3.0 219.4 3.0 219.4 3.95 219.4 4.0 218.4 4.0 218.4 4.95 218.4 5.0 218.4 5.95 218.4 6.95 218.0 6.95 218.0 6.0 216.95 6.0 216.95 5.95 M215.25 11.6 L215.05 11.6 215.05 11.85 215.05 11.9 215.3 11.9 215.3 12.85 215.05 12.85 215.05 13.8 213.35 13.8 213.35 12.85 213.05 12.85 213.05 9.6 215.3 9.6 215.3 9.9 216.2 9.9 216.2 11.6 215.3 11.6 215.25 11.6 M205.85 2.95 L205.85 3.45 206.15 3.45 206.15 1.95 207.85 1.95 207.85 3.65 206.4 3.65 206.4 5.15 205.85 5.15 205.85 5.65 204.9 5.65 204.9 6.35 206.4 6.35 206.4 7.85 207.85 7.85 207.85 9.55 206.15 9.55 206.15 8.1 205.85 8.1 205.85 11.55 203.85 11.55 203.85 12.35 204.4 12.35 204.4 12.85 204.9 12.85 204.9 13.8 205.85 13.8 205.85 15.5 204.15 15.5 204.15 14.55 203.85 14.55 203.85 13.8 202.65 13.8 202.65 12.85 202.4 12.85 202.4 12.35 200.9 12.35 200.9 11.1 202.4 11.1 202.4 9.6 203.85 9.6 203.85 9.4 204.15 9.4 204.15 9.1 203.85 9.1 203.85 7.9 203.85 6.95 202.9 6.95 202.9 6.0 201.85 6.0 201.85 5.95 201.85 5.65 202.15 5.65 202.15 4.95 202.85 4.95 202.85 4.65 203.15 4.65 203.15 3.95 204.15 3.95 204.15 3.45 204.15 2.95 205.85 2.95 M204.4 6.6 L204.4 6.35 203.85 6.35 203.85 6.95 204.4 6.95 204.65 6.95 204.65 6.9 204.65 6.6 204.4 6.6 M202.9 15.5 L202.9 15.8 203.85 15.8 203.85 17.5 202.15 17.5 202.15 16.55 201.2 16.55 201.2 16.05 200.65 16.05 200.65 15.55 200.15 15.55 200.15 15.1 199.95 15.1 199.95 15.5 198.25 15.5 198.25 14.55 197.95 14.55 197.95 12.55 199.95 12.55 199.95 14.05 200.65 14.05 200.9 14.05 200.9 14.35 201.1 14.35 201.1 15.5 202.15 15.5 202.9 15.5 M197.95 15.5 L197.95 17.5 196.25 17.5 196.25 16.55 195.3 16.55 195.3 15.55 194.25 15.55 194.25 15.5 194.8 15.5 194.8 13.8 194.8 12.85 195.2 12.85 195.2 13.8 196.25 13.8 196.25 15.5 197.95 15.5 M193.85 15.5 L193.85 15.8 194.8 15.8 194.8 17.5 187.2 17.5 187.2 16.55 186.25 16.55 186.25 15.55 185.75 15.55 185.75 17.5 178.15 17.5 178.15 16.55 177.2 16.55 177.2 15.55 176.15 15.55 176.15 15.5 176.7 15.5 176.7 13.8 176.7 12.85 177.1 12.85 177.1 13.8 178.15 13.8 178.15 15.5 185.75 15.5 185.75 7.9 185.75 6.95 186.25 6.95 186.25 7.9 187.2 7.9 187.2 15.5 193.85 15.5 M175.75 15.5 L175.75 15.8 176.7 15.8 176.7 17.5 169.1 17.5 169.1 16.55 168.15 16.55 168.15 15.55 167.65 15.55 167.65 17.5 160.05 17.5 160.05 16.55 159.1 16.55 159.1 15.55 158.05 15.55 158.05 13.55 158.1 13.55 158.1 14.55 159.0 14.55 159.0 15.5 160.05 15.5 167.65 15.5 167.65 10.85 163.0 10.85 163.0 12.55 164.0 12.55 164.0 12.85 164.9 12.85 164.9 13.8 162.05 13.8 162.05 12.85 161.75 12.85 161.75 9.6 167.1 9.6 167.1 9.9 167.15 9.9 168.05 9.9 168.05 10.85 169.1 10.85 169.1 15.5 175.75 15.5 M169.65 1.95 L171.1 1.95 171.1 2.95 172.8 2.95 172.8 6.9 172.8 7.85 172.8 7.9 172.8 8.85 172.8 8.9 172.8 9.85 172.8 9.9 172.8 10.85 172.8 10.9 172.8 11.85 172.8 11.9 172.8 13.8 171.1 13.8 171.1 12.85 170.8 12.85 170.8 7.9 170.8 6.95 169.85 6.95 169.85 6.0 169.1 6.0 169.1 4.95 170.1 4.95 170.1 3.95 170.8 3.95 171.1 3.95 171.1 3.65 170.8 3.65 170.8 2.95 170.8 2.0 169.65 2.0 169.65 1.95 M173.1 6.9 L173.1 1.95 174.8 1.95 174.8 6.9 174.8 7.85 173.1 7.85 173.1 6.9 M187.75 1.95 L189.2 1.95 189.2 2.0 187.75 2.0 187.75 1.95 M196.8 1.95 L198.25 1.95 198.25 2.95 199.95 2.95 199.95 3.95 199.95 4.5 199.65 4.5 199.65 4.95 199.1 4.95 199.1 5.45 198.95 5.45 198.95 5.5 198.65 5.5 198.65 6.45 197.95 6.45 197.95 6.95 197.0 6.95 197.0 6.0 196.25 6.0 196.25 4.95 197.25 4.95 197.25 3.95 197.95 3.95 198.25 3.95 198.25 3.65 197.95 3.65 197.95 2.95 197.95 2.0 196.8 2.0 196.8 1.95 M200.25 3.95 L200.25 1.95 201.95 1.95 201.95 2.95 201.1 2.95 201.1 3.5 200.65 3.5 200.65 3.95 200.25 3.95 M205.85 7.85 L204.9 7.85 204.9 7.9 205.85 7.9 205.85 7.85 M199.0 7.45 L199.0 7.9 199.7 7.9 199.95 7.9 199.95 8.45 199.95 9.4 199.95 10.85 198.25 10.85 198.25 9.9 197.95 9.9 197.95 7.9 197.95 6.95 199.0 6.95 199.0 7.45 M195.25 3.95 L195.25 4.0 194.25 4.0 194.25 4.95 194.25 5.0 194.25 5.95 194.25 6.95 193.85 6.95 193.85 6.0 192.8 6.0 192.8 5.95 192.8 5.0 192.8 4.95 193.8 4.95 193.8 3.95 194.8 3.95 194.8 2.95 196.25 2.95 196.25 3.0 195.25 3.0 195.25 3.95 M194.8 6.95 L195.3 6.95 195.3 7.9 196.25 7.9 196.25 9.6 194.8 9.6 194.8 7.9 194.8 6.95 M187.2 2.95 L187.2 3.0 186.2 3.0 186.2 3.95 186.2 4.0 185.2 4.0 185.2 4.95 185.2 5.0 185.2 5.95 185.2 6.95 184.8 6.95 184.8 6.0 183.75 6.0 183.75 5.95 183.75 5.0 183.75 4.95 184.75 4.95 184.75 3.95 185.75 3.95 185.75 2.95 187.2 2.95 M193.85 9.6 L193.85 9.9 194.25 9.9 194.3 9.9 194.8 9.9 194.8 11.6 194.3 11.6 194.25 11.6 193.2 11.6 193.2 11.85 194.25 11.85 194.25 12.85 193.85 12.85 193.85 11.9 192.8 11.9 192.8 11.85 192.8 11.6 190.9 11.6 190.9 11.85 190.9 11.9 190.9 13.8 189.2 13.8 189.2 12.85 188.9 12.85 188.9 9.6 193.85 9.6 M182.1 9.6 L182.1 9.9 183.0 9.9 183.0 11.6 182.1 11.6 182.05 11.6 181.85 11.6 181.85 11.85 181.85 11.9 181.85 13.8 180.15 13.8 180.15 12.85 179.85 12.85 179.85 9.6 182.1 9.6 M175.1 10.85 L175.1 11.85 176.15 11.85 176.15 12.85 175.75 12.85 175.75 11.9 174.7 11.9 174.7 11.85 174.7 10.9 174.7 10.85 175.1 10.85 M165.65 5.0 L165.65 4.95 166.65 4.95 166.65 3.95 167.65 3.95 167.65 2.95 169.1 2.95 169.1 3.0 168.1 3.0 168.1 3.95 168.1 4.0 167.1 4.0 167.1 4.95 167.1 5.0 167.1 5.95 167.1 6.95 166.7 6.95 166.7 6.0 165.65 6.0 165.65 5.95 165.65 5.0 M167.65 7.9 L167.65 6.95 168.15 6.95 168.15 7.9 169.1 7.9 169.1 9.6 167.65 9.6 167.65 7.9 M162.05 10.85 L161.95 10.85 161.95 12.55 162.05 12.55 162.05 10.85 M154.55 1.95 L156.55 1.95 156.55 6.6 155.1 6.6 155.1 7.85 156.55 7.85 156.55 9.55 154.55 9.55 154.55 12.55 153.1 12.55 153.1 12.85 153.55 12.85 153.55 13.8 154.55 13.8 154.55 15.5 152.55 15.5 152.55 13.8 151.1 13.8 151.1 12.55 152.55 12.55 152.55 7.9 152.55 6.95 151.55 6.95 151.55 6.0 150.55 6.0 150.55 5.95 150.55 5.0 150.55 4.95 151.55 4.95 151.55 3.95 152.55 3.95 152.55 2.95 154.55 2.95 154.55 1.95 M151.55 15.5 L151.55 15.8 152.55 15.8 152.55 17.5 149.35 17.5 149.35 16.55 148.35 16.55 148.35 15.55 147.35 15.55 147.35 15.5 146.95 15.5 146.95 14.55 146.65 14.55 146.65 12.55 148.65 12.55 148.65 15.5 149.35 15.5 151.55 15.5 M146.65 15.5 L146.65 17.5 144.95 17.5 144.95 16.55 143.95 16.55 143.95 15.55 143.5 15.55 143.5 17.5 135.9 17.5 135.9 16.55 134.9 16.55 134.9 15.55 134.45 15.55 134.45 17.5 126.85 17.5 126.85 16.55 125.85 16.55 125.85 15.55 124.85 15.55 124.85 14.55 125.8 14.55 125.8 15.5 126.85 15.5 134.45 15.5 134.45 7.9 134.45 6.95 134.9 6.95 134.9 7.9 135.9 7.9 135.9 15.5 143.5 15.5 143.5 7.9 143.5 6.95 143.95 6.95 143.95 7.9 144.95 7.9 144.95 15.5 146.65 15.5 M124.45 13.55 L124.45 15.5 122.75 15.5 122.75 14.55 122.45 14.55 122.45 12.55 123.95 12.55 123.95 11.1 125.4 11.1 125.4 10.85 125.7 10.85 125.7 10.15 125.4 10.15 125.4 7.9 125.4 6.95 125.85 6.95 125.85 7.9 126.85 7.9 126.85 11.1 125.95 11.1 125.95 12.55 125.4 12.55 125.4 13.1 124.45 13.1 124.45 13.55 M122.45 15.5 L122.45 17.5 120.75 17.5 120.75 16.55 119.75 16.55 119.75 15.55 118.75 15.55 118.75 14.55 119.3 14.55 119.3 13.1 118.75 13.1 118.75 13.6 118.3 13.6 118.3 13.55 118.3 13.1 117.8 13.1 117.8 12.15 117.7 12.15 117.7 12.6 117.3 12.6 117.3 12.15 116.8 12.15 116.8 11.15 115.8 11.15 115.8 10.15 116.25 10.15 116.25 10.6 116.75 10.6 116.75 11.1 117.3 11.1 117.3 11.6 117.8 11.6 117.8 11.1 118.25 11.1 118.25 12.55 119.3 12.55 119.5 12.55 119.5 12.85 119.7 12.85 119.7 15.5 120.75 15.5 122.45 15.5 M121.5 2.95 L121.5 3.95 121.5 4.9 121.5 4.95 120.65 4.95 120.65 5.9 120.5 5.9 120.5 6.9 120.65 6.9 120.65 6.95 120.5 6.95 120.5 7.9 121.5 7.9 121.5 8.9 121.5 8.95 121.5 9.9 121.5 10.85 122.2 10.85 122.2 12.35 121.3 12.35 121.3 11.1 121.15 11.1 121.15 11.4 121.0 11.4 121.0 10.85 119.8 10.85 119.8 9.9 119.5 9.9 119.5 7.9 119.5 6.95 118.5 6.95 118.5 6.0 117.8 6.0 117.8 4.95 118.8 4.95 118.8 3.95 119.5 3.95 119.8 3.95 119.8 2.95 121.5 2.95 M121.8 3.95 L121.8 1.95 123.5 1.95 123.5 2.95 122.65 2.95 122.65 3.95 121.8 3.95 M127.7 2.0 L127.7 1.95 128.85 1.95 128.85 2.0 127.7 2.0 M136.45 1.95 L137.9 1.95 137.9 2.95 139.6 2.95 139.6 4.95 138.75 4.95 138.75 7.9 139.6 7.9 139.6 11.85 139.6 11.9 139.6 13.8 137.9 13.8 137.9 12.85 137.6 12.85 137.6 7.9 137.6 6.95 136.6 6.95 136.6 6.0 135.9 6.0 135.9 4.95 136.9 4.95 136.9 3.95 137.6 3.95 137.6 2.95 137.6 2.0 136.45 2.0 136.45 1.95 M139.9 3.95 L139.9 1.95 141.6 1.95 141.6 2.95 140.75 2.95 140.75 3.95 139.9 3.95 M145.8 2.0 L145.8 1.95 146.95 1.95 146.95 2.0 145.8 2.0 M154.55 3.65 L154.55 4.9 154.85 4.9 154.85 3.65 154.55 3.65 M154.55 7.9 L154.55 7.85 153.55 7.85 153.55 7.9 154.55 7.9 M143.95 4.0 L142.95 4.0 142.95 4.95 142.95 5.0 142.95 5.95 142.95 6.95 142.5 6.95 142.5 6.0 141.8 6.0 141.8 4.95 142.8 4.95 142.8 3.95 143.5 3.95 143.8 3.95 143.8 2.95 144.95 2.95 144.95 3.0 143.95 3.0 143.95 3.95 143.95 4.0 M149.8 10.85 L146.65 10.85 146.65 9.6 148.85 9.6 148.85 9.9 149.8 9.9 149.8 10.85 M135.9 2.95 L135.9 3.0 134.9 3.0 134.9 3.95 134.9 4.0 133.9 4.0 133.9 4.95 133.9 5.0 133.9 5.95 133.9 6.95 133.45 6.95 133.45 6.0 132.45 6.0 132.45 5.95 132.45 5.0 132.45 4.95 133.45 4.95 133.45 3.95 134.45 3.95 134.45 2.95 135.9 2.95 M124.85 4.95 L124.85 5.0 124.85 5.95 124.85 6.95 124.4 6.95 124.4 6.0 123.7 6.0 123.7 4.95 124.7 4.95 124.7 3.95 125.4 3.95 125.7 3.95 125.7 2.95 126.85 2.95 126.85 3.0 125.85 3.0 125.85 3.95 125.85 4.0 124.85 4.0 124.85 4.95 M130.75 9.6 L130.75 9.9 131.7 9.9 131.7 11.6 130.55 11.6 130.55 11.85 130.55 11.9 130.55 13.8 128.85 13.8 128.85 12.85 128.55 12.85 128.55 9.6 130.75 9.6 M119.5 6.95 L120.0 6.95 120.0 6.9 119.5 6.9 119.5 6.95 M110.55 2.95 L112.25 2.95 112.25 4.9 112.55 4.9 112.55 1.95 114.25 1.95 114.25 9.55 112.55 9.55 112.55 6.6 112.25 6.6 112.25 15.5 110.55 15.5 110.55 14.55 110.25 14.55 110.25 7.9 110.25 6.95 109.3 6.95 109.3 6.0 108.55 6.0 108.55 4.95 109.55 4.95 109.55 3.95 110.25 3.95 110.55 3.95 110.55 2.95 M110.25 15.5 L110.25 17.5 108.55 17.5 108.55 16.55 107.6 16.55 107.6 15.55 106.55 15.55 106.55 14.55 106.35 14.55 106.35 15.5 104.65 15.5 104.65 14.55 104.35 14.55 104.35 12.55 106.6 12.55 106.6 12.85 107.5 12.85 107.5 15.5 108.55 15.5 110.25 15.5 M104.35 15.5 L104.35 17.5 102.65 17.5 102.65 16.55 101.7 16.55 101.7 15.55 100.65 15.55 100.65 13.55 100.7 13.55 100.7 14.55 101.6 14.55 101.6 15.5 102.65 15.5 104.35 15.5 M100.25 13.55 L100.25 15.5 98.55 15.5 98.55 14.55 98.25 14.55 98.25 9.6 100.25 9.6 100.25 9.9 100.65 9.9 100.7 9.9 101.2 9.9 101.2 11.6 100.7 11.6 100.65 11.6 100.25 11.6 100.25 13.55 M98.25 15.5 L98.25 17.5 96.55 17.5 96.55 16.55 95.6 16.55 95.6 15.55 94.55 15.55 94.55 13.55 94.6 13.55 94.6 14.55 95.5 14.55 95.5 15.5 96.55 15.5 98.25 15.5 M93.5 11.55 L92.75 11.55 92.75 12.85 93.25 12.85 93.25 13.8 94.2 13.8 94.2 15.5 92.2 15.5 92.2 13.8 91.05 13.8 91.05 12.85 90.75 12.85 90.75 9.6 92.2 9.6 92.2 7.9 92.2 6.95 92.65 6.95 92.65 7.9 93.6 7.9 93.6 9.6 94.6 9.6 94.6 9.9 95.5 9.9 95.5 11.6 94.6 11.6 94.55 11.6 93.6 11.6 93.6 10.65 93.5 10.65 93.5 11.55 M91.25 15.5 L91.25 15.8 92.2 15.8 92.2 17.5 87.55 17.5 87.55 16.55 86.6 16.55 86.6 15.55 86.1 15.55 86.1 16.05 84.65 16.05 84.65 17.5 82.9 17.5 82.9 16.55 81.95 16.55 81.95 16.05 81.7 16.05 81.7 17.5 80.0 17.5 80.0 16.55 79.05 16.55 79.05 16.05 78.5 16.05 78.5 15.55 78.0 15.55 78.0 15.1 77.55 15.1 77.55 14.1 76.5 14.1 76.5 12.1 76.55 12.1 76.55 13.1 76.95 13.1 76.95 13.55 77.45 13.55 77.45 14.05 78.05 14.05 78.05 14.55 78.5 14.55 78.5 14.05 78.95 14.05 78.95 15.5 80.0 15.5 80.75 15.5 80.75 15.8 81.45 15.8 81.45 15.55 80.9 15.55 80.9 15.5 81.7 15.5 81.7 14.05 81.85 14.05 81.85 15.5 82.0 15.5 82.0 14.05 82.9 14.05 82.9 15.5 83.7 15.5 83.7 15.8 84.4 15.8 84.4 15.5 84.65 15.5 84.65 14.05 86.1 14.05 86.1 13.8 86.4 13.8 86.4 13.1 86.1 13.1 86.1 7.9 86.1 6.95 86.6 6.95 86.6 7.9 87.55 7.9 87.55 9.6 88.1 9.6 88.1 13.8 87.55 13.8 87.55 14.05 86.65 14.05 86.65 15.5 87.55 15.5 91.25 15.5 M82.5 1.95 L83.45 1.95 83.45 2.95 84.4 2.95 84.4 3.0 83.45 3.0 83.45 2.95 83.35 2.95 83.35 3.95 83.4 3.95 83.4 4.0 82.45 4.0 82.45 3.95 83.15 3.95 83.15 2.95 83.15 2.0 82.5 2.0 82.5 1.95 M85.45 1.95 L86.4 1.95 86.4 2.95 87.55 2.95 87.55 3.0 86.55 3.0 86.55 3.95 86.55 4.0 85.55 4.0 85.55 4.95 85.55 5.0 85.55 5.95 85.55 6.95 85.15 6.95 85.15 6.0 84.4 6.0 84.4 4.95 85.4 4.95 85.4 3.95 86.1 3.95 86.1 2.95 86.1 2.0 85.45 2.0 85.45 1.95 M88.4 2.0 L88.4 1.95 89.55 1.95 89.55 2.0 88.4 2.0 M94.2 1.95 L95.6 1.95 95.6 2.0 94.2 2.0 94.2 1.95 M103.2 1.95 L104.65 1.95 104.65 2.95 106.35 2.95 106.35 3.95 106.35 4.9 106.35 4.95 105.5 4.95 105.5 5.9 105.35 5.9 105.35 5.95 105.35 6.9 104.35 6.9 104.35 6.95 103.4 6.95 103.4 6.0 102.65 6.0 102.65 4.95 103.65 4.95 103.65 3.95 104.35 3.95 104.65 3.95 104.65 3.65 104.35 3.65 104.35 2.95 104.35 2.0 103.2 2.0 103.2 1.95 M106.65 3.95 L106.65 1.95 108.35 1.95 108.35 2.95 107.5 2.95 107.5 3.95 106.65 3.95 M105.4 6.95 L105.4 7.9 106.35 7.9 106.35 8.9 106.35 8.95 106.35 10.85 104.65 10.85 104.65 9.9 104.35 9.9 104.35 7.9 104.35 6.95 105.4 6.95 M101.65 3.95 L101.65 4.0 100.65 4.0 100.65 4.95 100.65 5.0 100.65 5.95 100.65 6.95 100.25 6.95 100.25 6.0 99.2 6.0 99.2 5.95 99.2 5.0 99.2 4.95 100.2 4.95 100.2 3.95 101.2 3.95 101.2 2.95 102.65 2.95 102.65 3.0 101.65 3.0 101.65 3.95 M101.2 6.95 L101.7 6.95 101.7 7.9 102.65 7.9 102.65 9.6 101.2 9.6 101.2 7.9 101.2 6.95 M93.6 2.95 L93.6 3.0 92.6 3.0 92.6 3.95 92.6 4.0 91.6 4.0 91.6 4.95 91.6 5.0 91.6 5.95 91.6 6.95 91.25 6.95 91.25 6.0 90.2 6.0 90.2 5.95 90.2 5.0 90.2 4.95 91.2 4.95 91.2 3.95 92.2 3.95 92.2 2.95 93.6 2.95 M82.4 4.95 L82.4 5.0 82.4 5.95 82.4 6.95 82.2 6.95 82.2 6.0 81.45 6.0 81.45 4.95 82.35 4.95 82.4 4.95 M83.15 6.95 L83.45 6.95 83.45 7.9 84.4 7.9 84.4 13.8 83.45 13.8 83.45 7.9 83.35 7.9 83.35 12.85 83.15 12.85 83.15 7.9 83.15 6.95 M81.45 2.95 L81.45 3.0 80.5 3.0 80.5 2.95 81.45 2.95 M80.45 3.95 L80.45 4.0 79.5 4.0 79.5 3.95 80.2 3.95 80.45 3.95 M79.45 4.95 L79.45 5.0 79.45 5.95 79.45 6.95 79.25 6.95 79.25 6.0 78.5 6.0 78.5 4.95 79.4 4.95 79.45 4.95 M80.2 6.95 L80.5 6.95 80.5 7.9 81.45 7.9 81.45 13.8 80.5 13.8 80.5 7.9 80.4 7.9 80.4 12.85 80.2 12.85 80.2 7.9 80.2 6.95 M73.0 1.95 L75.0 1.95 75.0 3.65 73.0 3.65 73.0 5.65 72.05 5.65 72.05 7.9 73.0 7.9 73.0 9.6 71.0 9.6 71.0 7.9 71.0 6.95 70.05 6.95 70.05 6.0 69.0 6.0 69.0 5.95 69.0 5.0 69.0 4.95 70.0 4.95 70.0 3.95 71.0 3.95 71.0 2.95 73.0 2.95 73.0 1.95 M70.05 9.6 L70.05 9.9 71.0 9.9 71.0 11.6 70.05 11.6 70.05 15.5 68.35 15.5 68.35 14.55 68.05 14.55 68.05 9.6 70.05 9.6 M68.05 15.5 L68.05 17.5 66.35 17.5 66.35 16.55 65.4 16.55 65.4 15.55 64.35 15.55 64.35 13.55 64.4 13.55 64.4 14.55 65.3 14.55 65.3 15.5 66.35 15.5 68.05 15.5 M63.95 13.55 L63.95 15.5 61.95 15.5 61.95 17.5 54.35 17.5 54.35 16.55 53.4 16.55 53.4 15.55 52.9 15.55 52.9 17.5 45.3 17.5 45.3 16.55 44.3 16.55 44.3 15.55 43.3 15.55 43.3 14.55 44.25 14.55 44.25 15.5 45.3 15.5 52.9 15.5 52.9 7.9 52.9 6.95 53.4 6.95 53.4 7.9 54.35 7.9 54.35 15.5 61.95 15.5 61.95 7.9 61.95 6.95 62.45 6.95 62.45 7.9 63.4 7.9 63.4 9.6 64.4 9.6 64.4 9.9 65.3 9.9 65.3 11.6 64.4 11.6 64.35 11.6 63.95 11.6 63.95 13.55 M54.9 1.95 L56.35 1.95 56.35 2.95 58.05 2.95 58.05 4.95 57.2 4.95 57.2 7.9 58.05 7.9 58.05 11.85 58.05 11.9 58.05 13.8 56.35 13.8 56.35 12.85 56.05 12.85 56.05 7.9 56.05 6.95 55.1 6.95 55.1 6.0 54.35 6.0 54.35 4.95 55.35 4.95 55.35 3.95 56.05 3.95 56.05 2.95 56.05 2.0 54.9 2.0 54.9 1.95 M58.35 3.95 L58.35 1.95 60.05 1.95 60.05 2.95 59.2 2.95 59.2 3.95 58.35 3.95 M64.25 2.0 L64.25 1.95 65.4 1.95 65.4 2.0 64.25 2.0 M63.4 2.95 L63.4 3.0 62.4 3.0 62.4 3.95 62.4 4.0 61.4 4.0 61.4 4.95 61.4 5.0 61.4 5.95 61.4 6.95 61.0 6.95 61.0 6.0 60.25 6.0 60.25 4.95 61.25 4.95 61.25 3.95 61.95 3.95 62.25 3.95 62.25 2.95 63.4 2.95 M52.9 2.95 L54.35 2.95 54.35 3.0 53.35 3.0 53.35 3.95 53.35 4.0 52.35 4.0 52.35 4.95 52.35 5.0 52.35 5.95 52.35 6.95 51.9 6.95 51.9 6.0 50.9 6.0 50.9 5.95 50.9 5.0 50.9 4.95 51.9 4.95 51.9 3.95 52.9 3.95 52.9 2.95 M39.8 2.95 L39.8 3.45 40.1 3.45 40.1 1.95 41.8 1.95 41.8 3.65 40.35 3.65 40.35 5.15 39.8 5.15 39.8 5.65 38.85 5.65 38.85 6.35 40.35 6.35 40.35 7.85 41.8 7.85 41.8 9.55 40.1 9.55 40.1 8.1 39.8 8.1 39.8 11.55 37.8 11.55 37.8 12.35 38.35 12.35 38.35 12.85 38.8 12.85 38.8 13.8 39.8 13.8 39.8 15.5 38.1 15.5 38.1 14.55 37.8 14.55 37.8 13.8 36.6 13.8 36.6 12.85 36.35 12.85 36.35 12.35 34.85 12.35 34.85 11.1 36.35 11.1 36.35 9.6 37.8 9.6 37.8 9.4 38.1 9.4 38.1 9.1 37.8 9.1 37.8 7.9 37.8 6.95 36.8 6.95 36.8 6.0 35.8 6.0 35.8 5.95 35.8 5.65 36.1 5.65 36.1 4.95 36.8 4.95 36.8 4.65 37.1 4.65 37.1 3.95 38.1 3.95 38.1 3.45 38.1 2.95 39.8 2.95 M38.35 6.6 L38.35 6.35 37.8 6.35 37.8 6.95 38.35 6.95 38.6 6.95 38.6 6.9 38.6 6.6 38.35 6.6 M36.8 15.5 L36.8 15.8 37.8 15.8 37.8 17.5 36.1 17.5 36.1 16.55 35.1 16.55 35.1 16.05 34.6 16.05 34.6 15.55 34.1 15.55 34.1 15.1 33.9 15.1 33.9 15.5 32.2 15.5 32.2 14.55 31.9 14.55 31.9 12.55 33.9 12.55 33.9 14.05 34.6 14.05 34.85 14.05 34.85 14.35 35.05 14.35 35.05 15.5 36.1 15.5 36.8 15.5 M31.9 15.5 L31.9 17.5 30.2 17.5 30.2 16.55 29.2 16.55 29.2 15.55 28.2 15.55 28.2 15.5 28.75 15.5 28.75 13.8 28.75 12.85 29.15 12.85 29.15 13.8 30.2 13.8 30.2 15.5 31.9 15.5 M27.75 15.5 L27.75 15.8 28.75 15.8 28.75 17.5 21.15 17.5 21.15 16.55 20.15 16.55 20.15 15.55 19.7 15.55 19.7 17.5 12.1 17.5 12.1 16.55 11.1 16.55 11.1 15.55 10.1 15.55 10.1 15.5 10.65 15.5 10.65 13.8 9.2 13.8 9.2 12.55 10.65 12.55 10.65 7.9 10.65 6.95 11.1 6.95 11.1 7.9 12.1 7.9 12.1 12.55 11.2 12.55 11.2 13.8 12.1 13.8 12.1 15.5 19.7 15.5 19.7 7.9 19.7 6.95 20.15 6.95 20.15 7.9 21.15 7.9 21.15 15.5 27.75 15.5 M9.65 15.5 L9.65 15.8 10.65 15.8 10.65 17.5 7.45 17.5 7.45 16.55 6.45 16.55 6.45 15.55 5.45 15.55 5.45 15.5 5.05 15.5 5.05 14.55 4.75 14.55 4.75 12.55 6.75 12.55 6.75 15.5 7.45 15.5 9.65 15.5 M4.75 15.5 L4.75 17.5 3.05 17.5 3.05 16.55 2.05 16.55 2.05 15.55 1.05 15.55 1.05 14.55 2.0 14.55 2.0 15.5 3.05 15.5 4.75 15.5 M12.65 1.95 L14.1 1.95 14.1 2.0 12.65 2.0 12.65 1.95 M21.7 1.95 L23.15 1.95 23.15 2.0 21.7 2.0 21.7 1.95 M30.75 1.95 L32.2 1.95 32.2 2.95 33.9 2.95 33.9 3.95 33.9 4.5 33.6 4.5 33.6 4.95 33.05 4.95 33.05 5.45 32.9 5.45 32.9 5.5 32.6 5.5 32.6 6.45 31.9 6.45 31.9 6.95 30.9 6.95 30.9 6.0 30.2 6.0 30.2 4.95 31.2 4.95 31.2 3.95 31.9 3.95 32.2 3.95 32.2 3.65 31.9 3.65 31.9 2.95 31.9 2.0 30.75 2.0 30.75 1.95 M34.2 3.95 L34.2 1.95 35.9 1.95 35.9 2.95 35.05 2.95 35.05 3.5 34.6 3.5 34.6 3.95 34.2 3.95 M49.2 9.6 L49.2 9.9 50.15 9.9 50.15 11.6 49.0 11.6 49.0 11.85 49.0 11.9 49.0 13.8 47.3 13.8 47.3 12.85 47.0 12.85 47.0 9.6 49.2 9.6 M30.2 3.0 L29.2 3.0 29.2 3.95 29.2 4.0 28.2 4.0 28.2 4.95 28.2 5.0 28.2 5.95 28.2 6.95 27.75 6.95 27.75 6.0 26.75 6.0 26.75 5.95 26.75 5.0 26.75 4.95 27.75 4.95 27.75 3.95 28.75 3.95 28.75 2.95 30.2 2.95 30.2 3.0 M28.75 6.95 L29.2 6.95 29.2 7.9 30.2 7.9 30.2 9.6 28.75 9.6 28.75 7.9 28.75 6.95 M32.9 7.45 L32.9 7.9 33.6 7.9 33.9 7.9 33.9 8.45 33.9 9.4 33.9 10.85 32.2 10.85 32.2 9.9 31.9 9.9 31.9 7.9 31.9 6.95 32.9 6.95 32.9 7.45 M38.8 7.9 L39.8 7.9 39.8 7.85 38.8 7.85 38.8 7.9 M21.15 2.95 L21.15 3.0 20.15 3.0 20.15 3.95 20.15 4.0 19.15 4.0 19.15 4.95 19.15 5.0 19.15 5.95 19.15 6.95 18.7 6.95 18.7 6.0 17.7 6.0 17.7 5.95 17.7 5.0 17.7 4.95 18.7 4.95 18.7 3.95 19.7 3.95 19.7 2.95 21.15 2.95 M26.75 11.85 L26.75 11.6 24.85 11.6 24.85 11.85 24.85 11.9 24.85 13.8 23.15 13.8 23.15 12.85 22.85 12.85 22.85 9.6 27.75 9.6 27.75 9.9 28.75 9.9 28.75 11.6 27.15 11.6 27.15 11.85 28.2 11.85 28.2 12.85 27.75 12.85 27.75 11.9 26.75 11.9 26.75 11.85 M10.65 2.95 L12.1 2.95 12.1 3.0 11.1 3.0 11.1 3.95 11.1 4.0 10.1 4.0 10.1 4.95 10.1 5.0 10.1 5.95 10.1 6.95 9.65 6.95 9.65 6.0 8.65 6.0 8.65 5.95 8.65 5.0 8.65 4.95 9.65 4.95 9.65 3.95 10.65 3.95 10.65 2.95 M16.0 9.6 L16.0 9.9 16.95 9.9 16.95 11.6 15.8 11.6 15.8 11.85 15.8 11.9 16.0 11.9 16.0 12.85 15.8 12.85 15.8 13.8 14.1 13.8 14.1 12.85 13.8 12.85 13.8 9.6 16.0 9.6 M7.9 10.85 L4.75 10.85 4.75 9.6 6.75 9.6 6.75 9.9 6.95 9.9 7.9 9.9 7.9 10.85" fill="#000000" fill-rule="evenodd" stroke="none"/>
  </g>
</svg>
