<?xml version="1.0" encoding="UTF-8" standalone="no"?>
<svg xmlns:ffdec="https://www.free-decompiler.com/flash" xmlns:xlink="http://www.w3.org/1999/xlink" ffdec:objectType="shape" height="478.55px" width="478.6px" xmlns="http://www.w3.org/2000/svg">
  <g transform="matrix(1.0, 0.0, 0.0, 1.0, 0.5, 239.25)">
    <path d="M0.0 238.8 L0.0 -238.75 477.6 -238.75 477.6 238.8 0.0 238.8 M474.6 -235.8 L3.0 -235.8 3.0 235.75 474.6 235.75 474.6 -235.8" fill="#333333" fill-rule="evenodd" stroke="none"/>
    <path d="M3.0 235.75 L3.0 -235.8 474.6 -235.8 474.6 235.75 3.0 235.75" fill="url(#gradient0)" fill-rule="evenodd" stroke="none"/>
    <path d="M477.6 -238.75 L477.6 238.8 0.0 238.8 M3.0 235.75 L3.0 -235.8 474.6 -235.8" fill="none" stroke="#000000" stroke-linecap="round" stroke-linejoin="round" stroke-width="1.0"/>
    <path d="M474.6 -235.8 L474.6 235.75 3.0 235.75" fill="none" stroke="#666666" stroke-linecap="round" stroke-linejoin="round" stroke-width="1.0"/>
    <path d="M0.0 238.8 L0.0 -238.75 477.6 -238.75" fill="none" stroke="#666666" stroke-linecap="round" stroke-linejoin="round" stroke-width="1.0"/>
  </g>
  <defs>
    <linearGradient gradientTransform="matrix(-0.2545, -0.2695, 0.2958, -0.2794, 245.95, 7.55)" gradientUnits="userSpaceOnUse" id="gradient0" spreadMethod="pad" x1="-819.2" x2="819.2">
      <stop offset="0.0" stop-color="#000000" stop-opacity="0.9019608"/>
      <stop offset="1.0" stop-color="#000000" stop-opacity="0.8"/>
    </linearGradient>
  </defs>
</svg>
