<?xml version="1.0" encoding="UTF-8" standalone="no"?>
<svg xmlns:ffdec="https://www.free-decompiler.com/flash" xmlns:xlink="http://www.w3.org/1999/xlink" ffdec:objectType="shape" height="31.85px" width="114.0px" xmlns="http://www.w3.org/2000/svg">
  <g transform="matrix(1.0, 0.0, 0.0, 1.0, 59.25, 66.25)">
    <path d="M46.9 -34.45 L45.8 -35.75 Q27.05 -57.45 -1.0 -61.95 -29.05 -66.45 -59.25 -48.6 -34.8 -67.55 -5.45 -66.15 23.9 -64.8 48.0 -41.65 51.65 -38.15 54.75 -34.4 L46.9 -34.45" fill="#ff0000" fill-rule="evenodd" stroke="none"/>
    <path d="M46.9 -34.45 L54.75 -34.4 Q51.65 -38.15 48.0 -41.65 23.9 -64.8 -5.45 -66.15 -34.8 -67.55 -59.25 -48.6 -29.05 -66.45 -1.0 -61.95 27.05 -57.45 45.8 -35.75 L46.9 -34.45 Z" fill="none" stroke="#ff0000" stroke-linecap="round" stroke-linejoin="round" stroke-width="0.05"/>
  </g>
</svg>
