<?xml version="1.0" encoding="UTF-8" standalone="no"?>
<svg xmlns:ffdec="https://www.free-decompiler.com/flash" xmlns:xlink="http://www.w3.org/1999/xlink" ffdec:objectType="shape" height="112.3px" width="130.6px" xmlns="http://www.w3.org/2000/svg">
  <g transform="matrix(1.0, 0.0, 0.0, 1.0, 59.25, 66.25)">
    <path d="M-59.25 -48.6 Q-34.8 -67.55 -5.45 -66.15 23.9 -64.8 48.0 -41.65 72.05 -18.55 71.35 15.6 71.0 32.35 65.45 46.05 L55.15 46.0 Q63.35 31.6 63.8 13.75 64.5 -14.1 45.8 -35.75 27.05 -57.45 -1.0 -61.95 -29.05 -66.45 -59.25 -48.6" fill="#ff0000" fill-rule="evenodd" stroke="none"/>
    <path d="M-59.25 -48.6 Q-29.05 -66.45 -1.0 -61.95 27.05 -57.45 45.8 -35.75 64.5 -14.1 63.8 13.75 63.35 31.6 55.15 46.0 L65.45 46.05 Q71.0 32.35 71.35 15.6 72.05 -18.55 48.0 -41.65 23.9 -64.8 -5.45 -66.15 -34.8 -67.55 -59.25 -48.6 Z" fill="none" stroke="#ff0000" stroke-linecap="round" stroke-linejoin="round" stroke-width="0.05"/>
  </g>
</svg>
