<?xml version="1.0" encoding="UTF-8" standalone="no"?>
<svg xmlns:ffdec="https://www.free-decompiler.com/flash" xmlns:xlink="http://www.w3.org/1999/xlink" ffdec:objectType="shape" height="147.5px" width="130.6px" xmlns="http://www.w3.org/2000/svg">
  <g transform="matrix(1.0, 0.0, 0.0, 1.0, 59.25, 66.25)">
    <path d="M-59.25 -48.6 Q-34.8 -67.55 -5.45 -66.15 23.9 -64.8 48.0 -41.65 72.05 -18.55 71.35 15.6 70.65 49.7 48.25 71.2 42.1 77.05 35.2 81.25 L34.2 78.35 31.8 70.65 Q38.0 66.65 43.6 61.05 63.1 41.55 63.8 13.75 64.5 -14.1 45.8 -35.75 27.05 -57.45 -1.0 -61.95 -29.05 -66.45 -59.25 -48.6" fill="#ff0000" fill-rule="evenodd" stroke="none"/>
    <path d="M-59.25 -48.6 Q-29.05 -66.45 -1.0 -61.95 27.05 -57.45 45.8 -35.75 64.5 -14.1 63.8 13.75 63.1 41.55 43.6 61.05 38.0 66.65 31.8 70.65 L34.2 78.35 35.2 81.25 Q42.1 77.05 48.25 71.2 70.65 49.7 71.35 15.6 72.05 -18.55 48.0 -41.65 23.9 -64.8 -5.45 -66.15 -34.8 -67.55 -59.25 -48.6 Z" fill="none" stroke="#ff0000" stroke-linecap="round" stroke-linejoin="round" stroke-width="0.05"/>
  </g>
</svg>
