<?xml version="1.0" encoding="UTF-8" standalone="no"?>
<svg xmlns:ffdec="https://www.free-decompiler.com/flash" xmlns:xlink="http://www.w3.org/1999/xlink" ffdec:objectType="shape" height="158.05px" width="160.5px" xmlns="http://www.w3.org/2000/svg">
  <g transform="matrix(1.0, 0.0, 0.0, 1.0, 89.15, 66.25)">
    <path d="M-59.25 -48.6 Q-34.8 -67.55 -5.45 -66.15 23.9 -64.8 48.0 -41.65 72.05 -18.55 71.35 15.6 70.65 49.7 48.25 71.2 25.8 92.65 -7.5 91.75 -40.8 90.8 -65.85 63.85 -86.9 41.2 -89.15 11.55 L-80.45 11.9 Q-75.65 37.35 -57.65 55.7 -34.6 79.25 -3.55 80.45 L-0.15 80.5 Q25.3 79.35 43.6 61.05 63.1 41.55 63.8 13.75 64.5 -14.1 45.8 -35.75 27.05 -57.45 -1.0 -61.95 -29.05 -66.45 -59.25 -48.6" fill="#ff0000" fill-rule="evenodd" stroke="none"/>
    <path d="M-59.25 -48.6 Q-29.05 -66.45 -1.0 -61.95 27.05 -57.45 45.8 -35.75 64.5 -14.1 63.8 13.75 63.1 41.55 43.6 61.05 25.3 79.35 -0.15 80.5 L-3.55 80.45 Q-34.6 79.25 -57.65 55.7 -75.65 37.35 -80.45 11.9 L-89.15 11.55 Q-86.9 41.2 -65.85 63.85 -40.8 90.8 -7.5 91.75 25.8 92.65 48.25 71.2 70.65 49.7 71.35 15.6 72.05 -18.55 48.0 -41.65 23.9 -64.8 -5.45 -66.15 -34.8 -67.55 -59.25 -48.6 Z" fill="none" stroke="#ff0000" stroke-linecap="round" stroke-linejoin="round" stroke-width="0.05"/>
  </g>
</svg>
