<?xml version="1.0" encoding="UTF-8" standalone="no"?>
<svg xmlns:ffdec="https://www.free-decompiler.com/flash" xmlns:xlink="http://www.w3.org/1999/xlink" ffdec:objectType="shape" height="172.35px" width="160.8px" xmlns="http://www.w3.org/2000/svg">
  <g transform="matrix(1.0, 0.0, 0.0, 1.0, 89.45, 80.55)">
    <path d="M42.5 -58.25 Q36.9 -62.95 30.85 -66.5 16.2 -75.3 -0.85 -77.6 L-9.1 -78.35 Q-38.2 -79.7 -60.85 -59.05 -83.55 -38.4 -82.15 -3.1 -80.75 32.15 -57.65 55.7 -34.6 79.25 -3.55 80.45 L-0.15 80.5 Q25.3 79.35 43.6 61.05 63.1 41.55 63.8 13.75 64.5 -14.1 45.8 -35.75 27.05 -57.45 -1.0 -61.95 -29.05 -66.45 -59.25 -48.6 -34.8 -67.55 -5.45 -66.15 23.9 -64.8 48.0 -41.65 72.05 -18.55 71.35 15.6 70.65 49.7 48.25 71.2 25.8 92.65 -7.5 91.75 -40.8 90.8 -65.85 63.85 -90.95 36.85 -89.35 -0.1 -87.75 -37.05 -65.2 -59.0 -42.7 -81.0 -11.95 -80.55 L-0.1 -79.55 Q16.8 -76.9 31.4 -67.05 37.1 -63.2 42.5 -58.25" fill="#ff0000" fill-rule="evenodd" stroke="none"/>
    <path d="M42.5 -58.25 Q37.1 -63.2 31.4 -67.05 16.8 -76.9 -0.1 -79.55 L-11.95 -80.55 Q-42.7 -81.0 -65.2 -59.0 -87.75 -37.05 -89.35 -0.1 -90.95 36.85 -65.85 63.85 -40.8 90.8 -7.5 91.75 25.8 92.65 48.25 71.2 70.65 49.7 71.35 15.6 72.05 -18.55 48.0 -41.65 23.9 -64.8 -5.45 -66.15 -34.8 -67.55 -59.25 -48.6 -29.05 -66.45 -1.0 -61.95 27.05 -57.45 45.8 -35.75 64.5 -14.1 63.8 13.75 63.1 41.55 43.6 61.05 25.3 79.35 -0.15 80.5 L-3.55 80.45 Q-34.6 79.25 -57.65 55.7 -80.75 32.15 -82.15 -3.1 -83.55 -38.4 -60.85 -59.05 -38.2 -79.7 -9.1 -78.35 L-0.85 -77.6 Q16.2 -75.3 30.85 -66.5 36.9 -62.95 42.5 -58.25 Z" fill="none" stroke="#ff0000" stroke-linecap="round" stroke-linejoin="round" stroke-width="0.05"/>
  </g>
</svg>
