<?xml version="1.0" encoding="UTF-8" standalone="no"?>
<svg xmlns:ffdec="https://www.free-decompiler.com/flash" xmlns:xlink="http://www.w3.org/1999/xlink" ffdec:objectType="shape" height="7.25px" width="16.6px" xmlns="http://www.w3.org/2000/svg">
  <g transform="matrix(1.0, 0.0, 0.0, 1.0, -5.95, -3.5)">
    <path d="M6.6 5.5 L21.6 5.5 Q23.5 8.0 21.6 10.5 L6.6 10.5 Q5.3 8.0 6.6 5.5" fill="#6c8dc5" fill-rule="evenodd" stroke="none"/>
    <path d="M20.5 10.75 L18.65 10.75 18.65 5.95 17.35 9.05 16.1 9.05 14.75 5.95 14.75 10.75 13.05 10.75 13.05 3.5 15.15 3.5 16.75 7.05 18.35 3.5 20.5 3.5 20.5 10.75 M11.85 4.7 L12.1 5.75 11.95 6.75 11.45 7.5 11.05 7.85 10.55 8.15 10.0 8.3 9.3 8.35 8.35 8.35 8.35 10.75 6.5 10.75 6.5 3.5 9.3 3.5 10.4 3.6 11.25 3.95 11.85 4.7 M10.2 5.8 L10.1 5.3 9.7 5.0 9.25 4.85 8.6 4.85 8.35 4.85 8.35 7.0 8.45 7.0 8.95 7.0 9.35 7.0 9.65 6.9 9.9 6.7 10.15 6.35 10.2 5.8" fill="#224581" fill-rule="evenodd" stroke="none"/>
  </g>
</svg>
