<?xml version="1.0" encoding="UTF-8" standalone="no"?>
<svg xmlns:ffdec="https://www.free-decompiler.com/flash" xmlns:xlink="http://www.w3.org/1999/xlink" ffdec:objectType="shape" height="181.1px" width="54.6px" xmlns="http://www.w3.org/2000/svg">
  <g transform="matrix(1.0, 0.0, 0.0, 1.0, -207.8, 5.85)">
    <path d="M237.55 162.1 L237.6 161.1 Q238.0 157.05 241.0 154.1 L241.95 153.2 Q243.25 152.15 244.75 151.55 246.85 150.65 249.35 150.65 253.55 150.65 256.65 153.2 L257.65 154.1 Q261.1 157.55 261.1 162.45 261.1 167.3 257.65 170.75 254.2 174.2 249.35 174.2 L248.1 174.15 Q244.0 173.75 241.0 170.75 237.55 167.3 237.55 162.45 L237.55 162.1" fill="url(#gradient0)" fill-rule="evenodd" stroke="none"/>
    <path d="M221.65 174.05 L219.55 174.2 Q214.65 174.2 211.2 170.75 209.4 168.95 208.55 166.75 207.75 164.75 207.8 162.45 L207.85 161.1 Q208.25 157.05 211.2 154.1 L211.3 154.05 212.2 153.2 214.95 151.55 Q217.05 150.65 219.55 150.65 222.05 150.65 224.15 151.55 L226.9 153.2 227.9 154.1 Q230.85 157.05 231.3 161.1 L231.35 162.1 231.35 162.45 Q231.35 167.3 227.9 170.75 225.2 173.45 221.65 174.05" fill="url(#gradient1)" fill-rule="evenodd" stroke="none"/>
    <path d="M248.1 174.15 L248.1 175.25 221.65 175.25 221.65 174.05 Q225.2 173.45 227.9 170.75 231.35 167.3 231.35 162.45 L231.35 162.1 237.55 162.1 237.55 162.45 Q237.55 167.3 241.0 170.75 244.0 173.75 248.1 174.15" fill="url(#gradient2)" fill-rule="evenodd" stroke="none"/>
    <path d="M257.95 -3.25 L258.95 -2.4 Q262.4 1.1 262.4 6.0 262.4 10.85 258.95 14.3 255.5 17.75 250.6 17.75 245.7 17.75 242.25 14.3 238.8 10.85 238.8 6.0 L238.85 4.65 Q239.25 0.6 242.25 -2.4 L243.25 -3.25 246.0 -4.9 Q248.1 -5.85 250.6 -5.85 254.8 -5.85 257.95 -3.25" fill="url(#gradient3)" fill-rule="evenodd" stroke="none"/>
  </g>
  <defs>
    <radialGradient cx="0" cy="0" gradientTransform="matrix(0.0144, 0.0, 0.0, 0.0144, 249.15, 162.45)" gradientUnits="userSpaceOnUse" id="gradient0" r="819.2" spreadMethod="pad">
      <stop offset="0.0" stop-color="#000000"/>
      <stop offset="0.0" stop-color="#000000" stop-opacity="0.6509804"/>
      <stop offset="0.0" stop-color="#000000"/>
      <stop offset="0.5725490196078431" stop-color="#000000"/>
      <stop offset="1.0" stop-color="#000000" stop-opacity="0.0"/>
    </radialGradient>
    <radialGradient cx="0" cy="0" gradientTransform="matrix(0.0143, 0.0, 0.0, 0.0143, 219.7, 162.45)" gradientUnits="userSpaceOnUse" id="gradient1" r="819.2" spreadMethod="pad">
      <stop offset="0.0" stop-color="#000000"/>
      <stop offset="0.0" stop-color="#000000" stop-opacity="0.6509804"/>
      <stop offset="0.0" stop-color="#000000"/>
      <stop offset="0.5725490196078431" stop-color="#000000"/>
      <stop offset="1.0" stop-color="#000000" stop-opacity="0.0"/>
    </radialGradient>
    <linearGradient gradientTransform="matrix(1.0E-4, 0.0085, -0.0144, 1.0E-4, 235.5, 167.55)" gradientUnits="userSpaceOnUse" id="gradient2" spreadMethod="pad" x1="-819.2" x2="819.2">
      <stop offset="0.0" stop-color="#000000"/>
      <stop offset="0.0" stop-color="#000000"/>
      <stop offset="0.0" stop-color="#000000" stop-opacity="0.6509804"/>
      <stop offset="0.0" stop-color="#000000" stop-opacity="0.0"/>
      <stop offset="0.24705882352941178" stop-color="#000000"/>
      <stop offset="0.49411764705882355" stop-color="#000000"/>
      <stop offset="0.6666666666666666" stop-color="#000000"/>
      <stop offset="1.0" stop-color="#000000" stop-opacity="0.0"/>
    </linearGradient>
    <radialGradient cx="0" cy="0" gradientTransform="matrix(0.0137, 0.0, 0.0, 0.0137, 250.05, 6.0)" gradientUnits="userSpaceOnUse" id="gradient3" r="819.2" spreadMethod="pad">
      <stop offset="0.0" stop-color="#000000"/>
      <stop offset="0.0" stop-color="#000000" stop-opacity="0.6509804"/>
      <stop offset="0.0" stop-color="#000000"/>
      <stop offset="0.37254901960784315" stop-color="#000000"/>
      <stop offset="1.0" stop-color="#000000" stop-opacity="0.0"/>
    </radialGradient>
  </defs>
</svg>
