<?xml version="1.0" encoding="UTF-8" standalone="no"?>
<svg xmlns:ffdec="https://www.free-decompiler.com/flash" xmlns:xlink="http://www.w3.org/1999/xlink" ffdec:objectType="shape" height="16.85px" width="46.1px" xmlns="http://www.w3.org/2000/svg">
  <g transform="matrix(1.0, 0.0, 0.0, 1.0, 23.05, 8.45)">
    <path d="M-18.0 -6.5 Q-12.55 -5.15 -5.15 -4.85 12.7 -4.15 20.45 -2.35 24.35 4.1 21.0 7.9 4.2 0.7 -17.35 -0.8 L-17.65 -3.6 -18.0 -6.5 M13.15 1.05 Q-3.65 -2.75 -17.65 -3.6 -3.65 -2.75 13.15 1.05" fill="#ffffff" fill-rule="evenodd" stroke="none"/>
    <path d="M-22.55 -7.95 Q-20.5 -7.15 -18.0 -6.5 -12.55 -5.15 -5.15 -4.85 12.7 -4.15 20.45 -2.35 24.35 4.1 21.0 7.9 4.2 0.7 -17.35 -0.8 L-18.85 -0.9 M-17.65 -3.6 L-17.35 -0.8 M-18.0 -6.5 L-17.65 -3.6 Q-3.65 -2.75 13.15 1.05" fill="none" stroke="#000000" stroke-linecap="round" stroke-linejoin="round" stroke-width="1.0"/>
  </g>
</svg>
