<?xml version="1.0" encoding="UTF-8" standalone="no"?>
<svg xmlns:ffdec="https://www.free-decompiler.com/flash" xmlns:xlink="http://www.w3.org/1999/xlink" ffdec:objectType="shape" height="15.05px" width="41.75px" xmlns="http://www.w3.org/2000/svg">
  <g transform="matrix(1.0, 0.0, 0.0, 1.0, 20.9, 7.55)">
    <path d="M13.2 7.0 Q13.8 6.25 13.8 5.25 13.8 4.15 13.05 3.4 12.3 2.65 11.2 2.65 10.1 2.65 9.35 3.4 8.6 4.15 8.6 5.25 8.6 6.0 8.95 6.6 L6.55 5.9 Q4.8 4.4 5.05 2.3 L6.25 1.25 Q11.9 -6.5 17.45 -6.0 23.25 -0.2 19.15 6.05 L13.2 7.0 M10.75 4.8 L10.5 5.05 Q8.75 5.0 9.75 3.65 L9.95 3.6 10.15 3.55 Q10.8 3.65 10.9 4.2 L10.95 4.3 10.75 4.8 M-18.45 -6.8 Q-12.75 -8.15 -8.55 -2.25 -5.7 1.8 -3.95 1.9 -3.45 3.85 -4.95 5.85 L-9.9 6.25 Q-9.4 5.55 -9.4 4.65 -9.4 3.55 -10.15 2.8 -10.9 2.05 -12.0 2.05 -13.1 2.05 -13.85 2.8 -14.6 3.55 -14.6 4.65 -14.6 5.45 -14.2 6.05 L-18.4 5.2 Q-23.35 -1.25 -18.45 -6.8 M-12.95 2.75 L-12.75 2.7 Q-12.1 2.8 -12.0 3.35 L-12.0 3.45 -12.15 3.95 -12.4 4.2 Q-14.15 4.15 -13.15 2.8 L-12.95 2.75" fill="#ffffff" fill-rule="evenodd" stroke="none"/>
    <path d="M8.95 6.6 Q8.6 6.0 8.6 5.25 8.6 4.15 9.35 3.4 10.1 2.65 11.2 2.65 12.3 2.65 13.05 3.4 13.8 4.15 13.8 5.25 13.8 6.25 13.2 7.0 L8.95 6.6 M10.75 4.8 L10.95 4.3 10.9 4.2 Q10.8 3.65 10.15 3.55 L9.95 3.6 9.75 3.65 Q8.75 5.0 10.5 5.05 L10.75 4.8 M-14.2 6.05 Q-14.6 5.45 -14.6 4.65 -14.6 3.55 -13.85 2.8 -13.1 2.05 -12.0 2.05 -10.9 2.05 -10.15 2.8 -9.4 3.55 -9.4 4.65 -9.4 5.55 -9.9 6.25 L-14.2 6.05 M-12.95 2.75 L-13.15 2.8 Q-14.15 4.15 -12.4 4.2 L-12.15 3.95 -12.0 3.45 -12.0 3.35 Q-12.1 2.8 -12.75 2.7 L-12.95 2.75" fill="#000000" fill-rule="evenodd" stroke="none"/>
    <path d="M17.45 -6.0 L19.2 -5.65 M19.15 6.05 L20.1 5.75 M13.2 7.0 L19.15 6.05 M17.45 -6.0 Q11.9 -6.5 6.25 1.25 L5.05 2.3 Q4.8 4.4 6.55 5.9 L8.95 6.6 13.2 7.0 M5.45 5.5 L6.55 5.9 M3.05 0.5 Q3.95 2.65 5.05 2.3 M-18.45 -6.8 L-19.8 -6.4 M-9.9 6.25 L-4.95 5.85 Q-3.45 3.85 -3.95 1.9 -5.7 1.8 -8.55 -2.25 -12.75 -8.15 -18.45 -6.8 M-18.4 5.2 L-14.2 6.05 -9.9 6.25 M-4.95 5.85 L-3.55 5.6 M-3.95 1.9 Q-2.85 1.95 -2.2 0.4 M-18.4 5.2 L-20.15 4.6" fill="none" stroke="#000000" stroke-linecap="round" stroke-linejoin="round" stroke-width="1.0"/>
  </g>
</svg>
