<?xml version="1.0" encoding="UTF-8" standalone="no"?>
<svg xmlns:ffdec="https://www.free-decompiler.com/flash" xmlns:xlink="http://www.w3.org/1999/xlink" ffdec:objectType="shape" height="12.35px" width="41.0px" xmlns="http://www.w3.org/2000/svg">
  <g transform="matrix(1.0, 0.0, 0.0, 1.0, 20.5, 6.2)">
    <path d="M8.3 -3.15 L8.5 -3.2 Q9.1 -3.1 9.25 -2.55 L9.25 -2.45 9.1 -1.95 8.85 -1.7 Q7.1 -1.75 8.1 -3.1 L8.3 -3.15 M16.45 4.85 Q11.75 3.85 6.75 4.1 4.45 1.35 6.0 -2.7 L6.4 -3.7 Q11.65 -8.8 18.9 -0.95 19.75 3.0 16.45 4.85 M7.55 -3.2 Q6.85 -2.45 6.85 -1.45 6.85 -0.45 7.55 0.25 8.3 1.0 9.3 1.0 10.3 1.0 11.0 0.25 11.75 -0.45 11.75 -1.45 11.75 -2.45 11.0 -3.2 10.3 -3.9 9.3 -3.9 8.3 -3.9 7.55 -3.2 M-11.5 -3.0 Q-12.2 -2.25 -12.2 -1.25 -12.2 -0.25 -11.5 0.45 -10.75 1.2 -9.75 1.2 -8.75 1.2 -8.05 0.45 -7.3 -0.25 -7.3 -1.25 -7.3 -2.25 -8.05 -3.0 -8.75 -3.7 -9.75 -3.7 -10.75 -3.7 -11.5 -3.0 M-10.9 -2.95 L-10.7 -3.0 -10.5 -3.05 Q-9.85 -2.95 -9.75 -2.4 L-9.75 -2.3 Q-9.75 -2.05 -9.9 -1.8 L-10.15 -1.55 Q-11.9 -1.6 -10.9 -2.95 M-19.1 -0.5 Q-13.15 -8.45 -6.05 -3.55 -3.9 1.1 -6.85 4.55 L-16.85 5.15 Q-19.45 3.35 -19.1 -0.5" fill="#ffffff" fill-rule="evenodd" stroke="none"/>
    <path d="M8.3 -3.15 L8.1 -3.1 Q7.1 -1.75 8.85 -1.7 L9.1 -1.95 9.25 -2.45 9.25 -2.55 Q9.1 -3.1 8.5 -3.2 L8.3 -3.15 M7.55 -3.2 Q8.3 -3.9 9.3 -3.9 10.3 -3.9 11.0 -3.2 11.75 -2.45 11.75 -1.45 11.75 -0.45 11.0 0.25 10.3 1.0 9.3 1.0 8.3 1.0 7.55 0.25 6.85 -0.45 6.85 -1.45 6.85 -2.45 7.55 -3.2 M-11.5 -3.0 Q-10.75 -3.7 -9.75 -3.7 -8.75 -3.7 -8.05 -3.0 -7.3 -2.25 -7.3 -1.25 -7.3 -0.25 -8.05 0.45 -8.75 1.2 -9.75 1.2 -10.75 1.2 -11.5 0.45 -12.2 -0.25 -12.2 -1.25 -12.2 -2.25 -11.5 -3.0 M-10.9 -2.95 Q-11.9 -1.6 -10.15 -1.55 L-9.9 -1.8 Q-9.75 -2.05 -9.75 -2.3 L-9.75 -2.4 Q-9.85 -2.95 -10.5 -3.05 L-10.7 -3.0 -10.9 -2.95" fill="#000000" fill-rule="evenodd" stroke="none"/>
    <path d="M18.9 -0.95 Q11.65 -8.8 6.4 -3.7 L6.0 -2.7 Q4.45 1.35 6.75 4.1 11.75 3.85 16.45 4.85 L18.5 5.3 M18.9 -0.95 L20.0 0.3 M6.75 4.1 L5.75 4.15 M-6.05 -3.55 L-5.0 -2.75 M-19.1 -0.5 Q-13.15 -8.45 -6.05 -3.55 -3.9 1.1 -6.85 4.55 L-5.9 4.65 M-19.4 5.65 L-16.85 5.15 -6.85 4.55 M-19.1 -0.5 L-20.0 0.8" fill="none" stroke="#000000" stroke-linecap="round" stroke-linejoin="round" stroke-width="1.0"/>
  </g>
</svg>
