<?xml version="1.0" encoding="UTF-8" standalone="no"?>
<svg xmlns:ffdec="https://www.free-decompiler.com/flash" xmlns:xlink="http://www.w3.org/1999/xlink" ffdec:objectType="shape" height="22.2px" width="38.0px" xmlns="http://www.w3.org/2000/svg">
  <g transform="matrix(1.0, 0.0, 0.0, 1.0, 15.85, 11.1)">
    <path d="M20.1 -5.55 L21.35 -2.15 Q22.1 1.4 20.9 4.75 L-10.2 1.9 Q-8.45 -1.75 -10.85 -4.6 L20.1 -5.55" fill="#660000" fill-rule="evenodd" stroke="none"/>
    <path d="M-12.0 -6.6 Q-6.95 -6.9 -0.8 -8.65 3.85 -10.15 8.45 -10.45 L17.0 -10.1 Q18.75 -7.9 20.1 -5.55 L-10.85 -4.6 -12.35 -4.45 -12.0 -6.6 M20.9 4.75 Q19.5 7.85 16.3 10.6 3.05 5.6 -11.0 4.2 L-11.5 1.8 -10.2 1.9 20.9 4.75" fill="#ffffff" fill-rule="evenodd" stroke="none"/>
    <path d="M-12.0 -6.6 Q-6.95 -6.9 -0.8 -8.65 3.85 -10.15 8.45 -10.45 L17.0 -10.1 Q18.75 -7.9 20.1 -5.55 L21.35 -2.15 Q22.1 1.4 20.9 4.75 19.5 7.85 16.3 10.6 3.05 5.6 -11.0 4.2 L-13.75 3.95 M-12.0 -6.6 L-15.35 -6.7 M-10.85 -4.6 L-12.35 -4.45 -12.0 -6.6 M-11.0 4.2 L-11.5 1.8 -10.2 1.9 Q-8.45 -1.75 -10.85 -4.6 L20.1 -5.55 M20.9 4.75 L-10.2 1.9" fill="none" stroke="#000000" stroke-linecap="round" stroke-linejoin="round" stroke-width="1.0"/>
  </g>
</svg>
