<?xml version="1.0" encoding="UTF-8" standalone="no"?>
<svg xmlns:ffdec="https://www.free-decompiler.com/flash" xmlns:xlink="http://www.w3.org/1999/xlink" ffdec:objectType="shape" height="11.75px" width="21.3px" xmlns="http://www.w3.org/2000/svg">
  <g transform="matrix(1.0, 0.0, 0.0, 1.0, 10.9, 5.85)">
    <path d="M9.75 2.8 L8.25 5.4 Q3.4 -0.05 -5.35 0.7 -8.15 2.6 -9.35 1.7 -6.9 1.35 -5.8 -0.2 2.8 -0.65 9.75 2.8 M-6.75 -1.7 Q-6.75 -0.8 -7.05 -0.1 -7.35 0.55 -7.85 0.55 -8.35 0.55 -8.7 0.0 L-9.0 -1.4 Q-9.05 -2.25 -8.75 -2.9 -8.5 -3.55 -7.9 -3.4 L-7.05 -2.95 Q-6.75 -2.65 -6.75 -1.7" fill="#000000" fill-rule="evenodd" stroke="none"/>
    <path d="M-9.35 1.7 Q-10.15 1.15 -10.3 -0.5 L-10.3 -2.85 Q-9.45 -4.35 -7.85 -4.3 -6.6 -4.0 -5.95 -2.3 5.1 -0.7 9.95 -2.45 10.9 0.0 9.75 2.8 2.8 -0.65 -5.8 -0.2 -6.9 1.35 -9.35 1.7 M-6.75 -1.7 Q-6.75 -2.65 -7.05 -2.95 L-7.9 -3.4 Q-8.5 -3.55 -8.75 -2.9 -9.05 -2.25 -9.0 -1.4 L-8.7 0.0 Q-8.35 0.55 -7.85 0.55 -7.35 0.55 -7.05 -0.1 -6.75 -0.8 -6.75 -1.7" fill="#1d1d1d" fill-rule="evenodd" stroke="none"/>
    <path d="M-10.3 -2.85 Q-10.05 -4.95 -8.6 -5.25 -6.5 -5.75 -5.7 -3.75 1.0 -1.7 8.1 -5.25 9.4 -3.9 9.95 -2.45 5.1 -0.7 -5.95 -2.3 -6.6 -4.0 -7.85 -4.3 -9.45 -4.35 -10.3 -2.85" fill="#2c2c2c" fill-rule="evenodd" stroke="none"/>
    <path d="M8.25 5.4 Q3.4 -0.05 -5.35 0.7 -8.15 2.6 -9.35 1.7 -10.15 1.15 -10.3 -0.5 L-10.3 -2.85 Q-10.05 -4.95 -8.6 -5.25 -6.5 -5.75 -5.7 -3.75 1.0 -1.7 8.1 -5.25" fill="none" stroke="#000000" stroke-linecap="round" stroke-linejoin="round" stroke-width="1.0"/>
  </g>
</svg>
