<?xml version="1.0" encoding="UTF-8" standalone="no"?>
<svg xmlns:ffdec="https://www.free-decompiler.com/flash" xmlns:xlink="http://www.w3.org/1999/xlink" ffdec:objectType="shape" height="6.2px" width="43.85px" xmlns="http://www.w3.org/2000/svg">
  <g transform="matrix(1.0, 0.0, 0.0, 1.0, 22.0, 3.1)">
    <path d="M7.55 -2.25 L7.45 -1.55 Q7.45 -0.75 8.0 -0.15 8.6 0.45 9.4 0.45 10.2 0.45 10.8 -0.15 11.4 -0.75 11.4 -1.55 L11.25 -2.25 21.35 -2.25 Q21.8 0.25 20.9 2.45 13.05 2.95 7.0 1.65 6.3 -0.15 6.2 -2.25 L7.55 -2.25 M9.15 -1.95 L9.3 -1.8 9.35 -1.5 9.3 -1.3 9.15 -1.05 Q8.55 -0.65 8.2 -1.2 L8.15 -1.7 8.35 -1.95 8.75 -2.1 8.75 -2.15 9.0 -2.05 9.15 -1.95 M-20.4 -2.6 L-20.45 -2.0 Q-20.45 -1.2 -19.9 -0.6 -19.3 0.0 -18.5 0.0 -17.7 0.0 -17.1 -0.6 -16.5 -1.2 -16.5 -2.0 L-16.6 -2.6 -6.1 -2.6 Q-5.9 -0.5 -6.65 1.6 L-20.65 2.25 Q-21.6 0.2 -21.5 -2.6 L-20.4 -2.6 M-18.7 -1.75 L-18.85 -1.45 Q-19.45 -1.05 -19.8 -1.65 L-19.85 -2.1 -19.65 -2.4 -19.25 -2.5 -19.25 -2.55 -19.0 -2.45 -18.85 -2.4 -18.7 -2.2 -18.65 -1.9 -18.7 -1.75" fill="#ffffff" fill-rule="evenodd" stroke="none"/>
    <path d="M11.25 -2.25 L11.4 -1.55 Q11.4 -0.75 10.8 -0.15 10.2 0.45 9.4 0.45 8.6 0.45 8.0 -0.15 7.45 -0.75 7.45 -1.55 L7.55 -2.25 11.25 -2.25 M9.15 -1.95 L9.0 -2.05 8.75 -2.15 8.75 -2.1 8.35 -1.95 8.15 -1.7 8.2 -1.2 Q8.55 -0.65 9.15 -1.05 L9.3 -1.3 9.35 -1.5 9.3 -1.8 9.15 -1.95 M-16.6 -2.6 L-16.5 -2.0 Q-16.5 -1.2 -17.1 -0.6 -17.7 0.0 -18.5 0.0 -19.3 0.0 -19.9 -0.6 -20.45 -1.2 -20.45 -2.0 L-20.4 -2.6 -16.6 -2.6 M-18.7 -1.75 L-18.65 -1.9 -18.7 -2.2 -18.85 -2.4 -19.0 -2.45 -19.25 -2.55 -19.25 -2.5 -19.65 -2.4 -19.85 -2.1 -19.8 -1.65 Q-19.45 -1.05 -18.85 -1.45 L-18.7 -1.75" fill="#000000" fill-rule="evenodd" stroke="none"/>
    <path d="M7.55 -2.25 L6.2 -2.25 M7.0 1.65 Q13.05 2.95 20.9 2.45 M21.35 -2.25 L11.25 -2.25 7.55 -2.25 M-20.4 -2.6 L-21.5 -2.6 M-20.65 2.25 L-6.65 1.6 M-6.1 -2.6 L-16.6 -2.6 -20.4 -2.6" fill="none" stroke="#000000" stroke-linecap="round" stroke-linejoin="round" stroke-width="1.0"/>
  </g>
</svg>
