<?xml version="1.0" encoding="UTF-8" standalone="no"?>
<svg xmlns:ffdec="https://www.free-decompiler.com/flash" xmlns:xlink="http://www.w3.org/1999/xlink" ffdec:objectType="shape" height="8.7px" width="42.9px" xmlns="http://www.w3.org/2000/svg">
  <g transform="matrix(1.0, 0.0, 0.0, 1.0, 21.55, 4.35)">
    <path d="M14.35 -0.1 L14.35 0.1 14.15 0.35 Q13.55 0.75 13.2 0.2 L13.15 -0.3 13.35 -0.55 13.75 -0.7 13.75 -0.75 14.0 -0.65 14.15 -0.55 14.3 -0.4 14.35 -0.1 M14.25 -1.5 Q13.45 -1.5 12.85 -0.95 12.3 -0.35 12.3 0.45 12.3 1.25 12.85 1.8 13.45 2.4 14.25 2.4 15.05 2.4 15.6 1.8 16.2 1.25 16.2 0.45 16.2 -0.35 15.6 -0.95 15.05 -1.5 14.25 -1.5 M5.7 -1.65 Q11.2 -3.85 15.15 -3.1 19.05 -2.35 20.85 -0.95 21.7 1.7 20.15 3.65 12.3 4.35 6.3 2.65 5.1 0.5 5.7 -1.65 M-12.75 -0.55 L-12.55 -0.8 -12.15 -0.95 -12.15 -1.0 -11.9 -0.9 -11.75 -0.8 -11.6 -0.65 -11.55 -0.35 -11.6 -0.15 -11.75 0.1 Q-12.35 0.5 -12.7 -0.05 L-12.75 -0.55 M-10.35 -1.05 Q-10.9 -1.6 -11.7 -1.6 -12.5 -1.6 -13.1 -1.05 -13.65 -0.45 -13.65 0.35 -13.65 1.15 -13.1 1.7 -12.5 2.3 -11.7 2.3 -10.9 2.3 -10.35 1.7 -9.75 1.15 -9.75 0.35 -9.75 -0.45 -10.35 -1.05 M-21.05 -1.75 Q-18.0 -3.85 -13.65 -3.85 -9.3 -3.9 -5.85 -1.75 -5.4 0.55 -6.7 2.7 -13.95 4.25 -20.05 2.9 -21.45 0.95 -21.05 -1.75" fill="#ffffff" fill-rule="evenodd" stroke="none"/>
    <path d="M14.35 -0.1 L14.3 -0.4 14.15 -0.55 14.0 -0.65 13.75 -0.75 13.75 -0.7 13.35 -0.55 13.15 -0.3 13.2 0.2 Q13.55 0.75 14.15 0.35 L14.35 0.1 14.35 -0.1 M14.25 -1.5 Q15.05 -1.5 15.6 -0.95 16.2 -0.35 16.2 0.45 16.2 1.25 15.6 1.8 15.05 2.4 14.25 2.4 13.45 2.4 12.85 1.8 12.3 1.25 12.3 0.45 12.3 -0.35 12.85 -0.95 13.45 -1.5 14.25 -1.5 M-12.75 -0.55 L-12.7 -0.05 Q-12.35 0.5 -11.75 0.1 L-11.6 -0.15 -11.55 -0.35 -11.6 -0.65 -11.75 -0.8 -11.9 -0.9 -12.15 -1.0 -12.15 -0.95 -12.55 -0.8 -12.75 -0.55 M-10.35 -1.05 Q-9.75 -0.45 -9.75 0.35 -9.75 1.15 -10.35 1.7 -10.9 2.3 -11.7 2.3 -12.5 2.3 -13.1 1.7 -13.65 1.15 -13.65 0.35 -13.65 -0.45 -13.1 -1.05 -12.5 -1.6 -11.7 -1.6 -10.9 -1.6 -10.35 -1.05" fill="#000000" fill-rule="evenodd" stroke="none"/>
    <path d="M5.7 -1.65 Q11.2 -3.85 15.15 -3.1 19.05 -2.35 20.85 -0.95 M20.15 3.65 Q12.3 4.35 6.3 2.65 M-5.85 -1.75 Q-9.3 -3.9 -13.65 -3.85 -18.0 -3.85 -21.05 -1.75 M-20.05 2.9 Q-13.95 4.25 -6.7 2.7" fill="none" stroke="#000000" stroke-linecap="round" stroke-linejoin="round" stroke-width="1.0"/>
  </g>
</svg>
