<?xml version="1.0" encoding="UTF-8" standalone="no"?>
<svg xmlns:ffdec="https://www.free-decompiler.com/flash" xmlns:xlink="http://www.w3.org/1999/xlink" ffdec:objectType="shape" height="17.95px" width="37.65px" xmlns="http://www.w3.org/2000/svg">
  <g transform="matrix(1.0, 0.0, 0.0, 1.0, 18.8, 8.95)">
    <path d="M-13.3 -4.0 Q8.8 -3.35 15.45 -8.45 17.65 -6.0 18.2 -1.8 18.8 2.75 16.7 6.95 13.5 8.3 9.9 8.5 1.35 8.6 -10.55 1.4 L-11.95 -1.25 -13.3 -4.0 M11.55 1.9 Q-1.3 1.95 -11.95 -1.25 -1.3 1.95 11.55 1.9" fill="#ffffff" fill-rule="evenodd" stroke="none"/>
    <path d="M-13.3 -4.0 Q8.8 -3.35 15.45 -8.45 17.65 -6.0 18.2 -1.8 18.8 2.75 16.7 6.95 13.5 8.3 9.9 8.5 1.35 8.6 -10.55 1.4 L-11.95 -1.25 -13.3 -4.0 -18.3 -4.25 M-11.95 -1.25 Q-1.3 1.95 11.55 1.9" fill="none" stroke="#000000" stroke-linecap="round" stroke-linejoin="round" stroke-width="1.0"/>
  </g>
</svg>
