<?xml version="1.0" encoding="UTF-8" standalone="no"?>
<svg xmlns:ffdec="https://www.free-decompiler.com/flash" xmlns:xlink="http://www.w3.org/1999/xlink" ffdec:objectType="shape" height="7.75px" width="41.95px" xmlns="http://www.w3.org/2000/svg">
  <g transform="matrix(1.0, 0.0, 0.0, 1.0, 20.95, 3.85)">
    <path d="M11.7 -1.05 L11.75 -0.55 Q12.1 0.0 12.7 -0.4 L12.9 -0.65 12.9 -0.85 12.85 -1.15 12.7 -1.3 12.55 -1.4 12.3 -1.5 12.3 -1.45 11.9 -1.3 11.7 -1.05 M11.35 -1.6 Q12.0 -2.25 12.9 -2.2 13.75 -2.25 14.4 -1.6 14.95 -1.1 15.05 -0.4 L15.1 -0.05 Q15.05 0.85 14.4 1.45 13.75 2.15 12.9 2.15 12.0 2.15 11.35 1.45 L10.95 0.9 Q10.7 0.5 10.75 -0.05 10.7 -0.95 11.35 -1.6 M-10.15 -1.35 L-9.9 -0.45 Q-9.95 0.45 -10.6 1.05 -11.25 1.75 -12.1 1.75 -13.0 1.75 -13.65 1.05 -14.3 0.45 -14.25 -0.45 -14.3 -1.35 -13.65 -2.0 L-13.1 -2.4 -10.15 -1.35 M-12.7 -1.75 L-12.7 -1.7 -13.1 -1.55 -13.3 -1.3 -13.25 -0.8 Q-12.9 -0.25 -12.3 -0.65 L-12.1 -0.9 -12.1 -1.1 -12.15 -1.4 -12.3 -1.55 -12.45 -1.65 -12.7 -1.75" fill="#000000" fill-rule="evenodd" stroke="none"/>
    <path d="M11.7 -1.05 L11.9 -1.3 12.3 -1.45 12.3 -1.5 12.55 -1.4 12.7 -1.3 12.85 -1.15 12.9 -0.85 12.9 -0.65 12.7 -0.4 Q12.1 0.0 11.75 -0.55 L11.7 -1.05 M11.35 -1.6 Q10.7 -0.95 10.75 -0.05 10.7 0.5 10.95 0.9 L11.35 1.45 Q12.0 2.15 12.9 2.15 13.75 2.15 14.4 1.45 15.05 0.85 15.1 -0.05 L15.05 -0.4 Q14.95 -1.1 14.4 -1.6 13.75 -2.25 12.9 -2.2 12.0 -2.25 11.35 -1.6 M5.2 0.85 Q5.8 0.8 6.4 0.4 7.7 -0.45 9.15 -1.1 11.05 -1.95 13.25 -2.4 L19.0 -2.85 Q21.35 -0.3 20.5 3.1 13.15 4.05 5.65 2.1 L5.2 0.85 M-13.1 -2.4 L-13.65 -2.0 Q-14.3 -1.35 -14.25 -0.45 -14.3 0.45 -13.65 1.05 -13.0 1.75 -12.1 1.75 -11.25 1.75 -10.6 1.05 -9.95 0.45 -9.9 -0.45 L-10.15 -1.35 -6.75 0.45 Q-6.45 0.65 -6.1 0.8 L-6.6 2.15 -20.45 2.65 Q-21.6 -1.45 -18.95 -3.3 L-13.1 -2.4 M-12.7 -1.75 L-12.45 -1.65 -12.3 -1.55 -12.15 -1.4 -12.1 -1.1 -12.1 -0.9 -12.3 -0.65 Q-12.9 -0.25 -13.25 -0.8 L-13.3 -1.3 -13.1 -1.55 -12.7 -1.7 -12.7 -1.75" fill="#ffffff" fill-rule="evenodd" stroke="none"/>
    <path d="M19.0 -2.85 L19.7 -2.85 M5.2 0.85 Q5.8 0.8 6.4 0.4 7.7 -0.45 9.15 -1.1 11.05 -1.95 13.25 -2.4 L19.0 -2.85 M20.5 3.1 Q13.15 4.05 5.65 2.1 L5.2 0.85 Q4.05 0.9 2.95 -0.5 M-18.95 -3.3 L-19.75 -3.35 M-10.15 -1.35 L-13.1 -2.4 -18.95 -3.3 M-20.45 2.65 L-6.6 2.15 -6.1 0.8 Q-6.45 0.65 -6.75 0.45 L-10.15 -1.35 M-6.1 0.8 Q-4.65 1.25 -3.3 -0.45" fill="none" stroke="#000000" stroke-linecap="round" stroke-linejoin="round" stroke-width="1.0"/>
  </g>
</svg>
