<?xml version="1.0" encoding="UTF-8" standalone="no"?>
<svg xmlns:ffdec="https://www.free-decompiler.com/flash" xmlns:xlink="http://www.w3.org/1999/xlink" ffdec:objectType="shape" height="244.85px" width="208.75px" xmlns="http://www.w3.org/2000/svg">
  <g transform="matrix(1.0, 0.0, 0.0, 1.0, 105.95, 122.85)">
    <path d="M-74.0 -57.05 L-74.35 -56.85 -74.35 -57.05 -74.0 -57.05" fill="#7a5f13" fill-rule="evenodd" stroke="none"/>
    <path d="M-9.0 -28.25 L8.0 -28.35 19.15 -27.7 18.5 -27.5 -9.0 -28.25" fill="#353535" fill-rule="evenodd" stroke="none"/>
    <path d="M-43.35 -50.35 L3.8 -50.0 24.15 -49.2 Q39.5 -50.2 44.65 -30.85 L44.3 -19.7 42.8 -14.0 41.3 -11.0 37.0 -6.85 24.5 -0.5 39.3 4.0 42.0 5.5 Q45.3 8.15 46.65 12.65 L48.0 18.8 Q49.65 44.15 26.65 48.0 L3.8 48.8 -43.35 49.15 -43.35 -50.35 M22.15 -9.0 Q23.8 -9.35 26.0 -14.5 L26.5 -23.35 25.3 -28.7 Q23.3 -31.85 21.8 -31.85 L16.8 -32.5 -26.7 -33.2 -26.7 -32.5 -24.7 -28.35 -24.7 -11.85 -26.85 -8.0 8.65 -7.7 18.65 -8.0 22.15 -9.0 M23.5 6.0 L16.3 5.3 8.8 5.3 -26.85 5.3 -26.85 31.15 -26.85 31.65 9.3 31.15 23.5 30.5 Q25.3 30.15 27.65 27.0 31.0 8.3 23.5 6.0" fill="#ffffff" fill-rule="evenodd" stroke="none"/>
    <path d="M2.65 -122.85 L33.3 -92.2 64.15 -72.85 102.8 -59.5 93.65 -18.35 93.65 17.15 102.8 58.65 64.15 72.0 33.65 91.15 2.65 122.0 -29.85 93.3 -62.85 75.3 -105.35 63.3 -105.85 59.15 -96.5 18.0 -96.5 -18.85 -105.2 -57.0 -105.2 -57.05 Q-106.35 -60.2 -105.7 -63.0 L-105.35 -64.2 -62.35 -76.35 -29.7 -94.35 2.3 -122.7 2.65 -122.85 M12.5 -81.2 L12.65 -82.2 14.8 -86.0 -2.35 -96.7 -16.5 -88.85 -13.2 -83.2 -17.0 -80.7 Q-1.0 -60.35 15.5 -78.35 L13.15 -80.2 12.5 -81.2 M-52.5 59.65 L-50.7 60.8 -54.2 67.3 -2.5 95.8 50.5 63.0 48.0 58.0 50.15 55.65 47.8 45.15 Q47.65 35.3 50.0 30.8 52.9 24.05 60.25 20.15 65.0 17.6 71.65 16.3 L72.3 13.65 73.8 12.3 77.0 12.3 77.0 -47.35 28.3 -77.35 26.3 -74.35 26.0 -73.7 22.5 -74.35 Q0.3 -48.2 -24.0 -76.7 L-27.2 -75.2 -30.7 -81.0 -74.0 -57.05 -74.35 -57.05 -74.35 -56.85 -85.85 -50.5 -85.85 13.0 -78.35 13.0 -77.85 17.15 -74.35 17.75 Q-58.55 20.8 -53.2 30.7 -47.75 40.8 -53.2 58.1 L-53.5 59.0 -53.2 59.2 -53.2 59.5 -53.2 59.65 -52.85 59.65 -52.5 59.65 M60.25 50.65 L61.8 50.65 62.0 51.15 64.0 54.5 77.0 46.5 77.0 28.0 73.8 27.8 73.0 27.5 71.8 24.0 Q64.35 25.95 60.25 29.75 52.25 37.15 57.0 51.5 L57.15 51.65 57.65 53.15 57.6 53.25 60.1 53.25 60.25 53.25 60.25 53.1 60.25 50.65 M-74.35 25.55 L-77.85 25.15 -78.5 29.5 -85.85 29.65 -85.85 49.65 -68.5 59.15 -64.7 53.0 -60.7 55.0 -60.35 54.8 Q-53.25 28.85 -74.35 25.55" fill="#fff277" fill-rule="evenodd" stroke="none"/>
    <path d="M19.15 -27.7 L21.3 -26.35 22.5 -22.35 22.15 -16.0 Q21.5 -13.7 20.0 -12.7 L19.5 -12.7 19.0 -12.7 20.15 -14.0 Q21.15 -15.7 21.3 -18.85 L20.8 -24.5 Q20.3 -26.85 18.5 -27.5 L19.15 -27.7" fill="#363636" fill-rule="evenodd" stroke="none"/>
    <path d="M19.0 -12.7 L19.5 -12.7 18.0 -12.2 19.0 -12.7" fill="#aeaeae" fill-rule="evenodd" stroke="none"/>
    <path d="M24.15 -49.2 L21.15 -52.35 Q35.8 -53.35 45.65 -35.2 50.15 -9.0 33.8 -1.5 L24.5 -0.5 37.0 -6.85 41.3 -11.0 42.8 -14.0 44.3 -19.7 44.65 -30.85 Q39.5 -50.2 24.15 -49.2" fill="#d6d6d6" fill-rule="evenodd" stroke="none"/>
    <path d="M33.8 -1.5 L40.0 0.3 Q41.5 0.3 45.65 5.3 50.8 12.3 49.3 26.5 47.3 46.8 23.3 51.15 L26.65 48.0 Q49.65 44.15 48.0 18.8 L46.65 12.65 Q45.3 8.15 42.0 5.5 L39.3 4.0 24.5 -0.5 33.8 -1.5" fill="#979797" fill-rule="evenodd" stroke="none"/>
    <path d="M8.8 5.3 L7.8 9.3 -24.7 9.5 -24.7 27.15 -26.85 31.15 -26.85 5.3 8.8 5.3" fill="#9c9c9c" fill-rule="evenodd" stroke="none"/>
    <path d="M-24.7 27.15 L7.5 26.8 8.0 26.8 9.3 31.15 -26.85 31.65 -26.85 31.15 -24.7 27.15" fill="#f3f3f3" fill-rule="evenodd" stroke="none"/>
    <path d="M60.25 53.1 L60.25 53.25 60.1 53.25 60.25 53.1" fill="#9c851f" fill-rule="evenodd" stroke="none"/>
    <path d="M60.25 50.65 L60.25 53.1 60.1 53.25 57.6 53.25 57.65 53.15 57.15 51.65 57.0 51.5 59.65 50.65 60.25 50.65" fill="#d1aa2b" fill-rule="evenodd" stroke="none"/>
    <path d="M-53.2 59.2 L-52.5 59.65 -52.85 59.65 -53.2 59.5 -53.2 59.2" fill="#ffff38" fill-rule="evenodd" stroke="none"/>
    <path d="M-52.85 59.65 L-53.2 59.65 -53.2 59.5 -52.85 59.65" fill="#83660f" fill-rule="evenodd" stroke="none"/>
    <path d="M-47.2 -53.85 L0.65 -53.2 21.15 -52.35 24.15 -49.2 3.8 -50.0 -43.35 -50.35 -47.2 -53.85 M20.0 -12.7 Q20.75 -10.7 22.15 -9.0 L18.65 -8.0 8.65 -7.7 -26.85 -8.0 -24.7 -11.85 16.0 -11.85 17.0 -12.0 17.3 -12.2 18.0 -12.2 19.5 -12.7 20.0 -12.7 M20.8 9.8 L21.5 9.8 23.5 6.0 Q31.0 8.3 27.65 27.0 25.3 30.15 23.5 30.5 L9.3 31.15 8.0 26.8 7.5 26.8 18.65 26.3 Q20.8 26.15 22.3 24.65 25.65 13.65 20.8 9.8" fill="#cccccc" fill-rule="evenodd" stroke="none"/>
    <path d="M-47.2 -53.85 L-43.35 -50.35 -43.35 49.15 3.8 48.8 26.65 48.0 23.3 51.15 0.5 52.0 -47.0 52.8 -47.5 52.5 -47.2 -53.85 M-24.7 -28.35 L-26.7 -32.5 -26.7 -33.2 16.8 -32.5 21.8 -31.85 Q23.3 -31.85 25.3 -28.7 L26.5 -23.35 26.0 -14.5 Q23.8 -9.35 22.15 -9.0 20.75 -10.7 20.0 -12.7 21.5 -13.7 22.15 -16.0 L22.5 -22.35 21.3 -26.35 19.15 -27.7 8.0 -28.35 -9.0 -28.25 -24.7 -28.35 M20.8 9.8 L20.5 9.65 7.8 9.3 8.8 5.3 16.3 5.3 23.5 6.0 21.5 9.8 20.8 9.8" fill="#999999" fill-rule="evenodd" stroke="none"/>
  </g>
</svg>
