<?xml version="1.0" encoding="UTF-8" standalone="no"?>
<svg xmlns:ffdec="https://www.free-decompiler.com/flash" xmlns:xlink="http://www.w3.org/1999/xlink" ffdec:objectType="shape" height="244.85px" width="212.5px" xmlns="http://www.w3.org/2000/svg">
  <g transform="matrix(1.0, 0.0, 0.0, 1.0, 106.7, 122.85)">
    <path d="M-27.35 -84.5 L-0.7 -100.0 -0.35 -99.85 -0.5 -96.5 -1.85 -95.85 -17.35 -88.85 -21.7 -87.5 -27.35 -84.5" fill="#8d7225" fill-rule="evenodd" stroke="none"/>
    <path d="M26.5 -84.35 L26.5 -84.5 25.65 -84.85 22.5 -86.7 22.15 -87.0 -0.35 -99.85 -0.7 -100.0 -27.35 -84.5 -86.85 -50.35 -86.7 18.0 -86.7 24.0 -87.0 49.0 -86.2 50.0 -0.7 99.15 60.0 64.3 63.5 62.15 64.3 61.8 64.3 61.65 86.0 49.3 85.8 25.65 85.8 16.15 86.15 14.65 85.65 -50.5 26.5 -84.35 M-32.5 -93.35 L-0.7 -100.0 -0.5 -122.85 31.8 -93.2 63.3 -75.0 105.8 -61.7 96.15 -18.7 96.15 18.15 105.8 60.8 64.3 73.65 31.8 92.3 -0.2 122.0 -0.7 122.0 -32.5 92.5 -63.85 74.3 -106.7 60.8 -97.0 18.15 -97.0 -18.85 -106.7 -61.7 -65.2 -74.5 -32.5 -93.35" fill="#bb9826" fill-rule="evenodd" stroke="none"/>
    <path d="M-0.7 -100.0 L-32.5 -93.35 -0.5 -122.85 -0.7 -100.0" fill="#dab439" fill-rule="evenodd" stroke="none"/>
    <path d="M-17.35 -88.85 L-16.5 -87.5 -13.7 -82.7 -17.7 -81.35 -23.2 -78.35 -27.7 -74.7 -30.35 -79.2 -30.5 -79.2 -31.2 -80.5 -30.85 -81.35 -27.35 -84.5 -21.7 -87.5 -17.35 -88.85" fill="#a99a3e" fill-rule="evenodd" stroke="none"/>
    <path d="M26.5 -84.35 L85.65 -50.5 86.15 14.65 85.8 16.15 84.65 12.65 83.0 12.65 82.8 -48.7 29.65 -79.2 30.5 -81.0 26.5 -84.35 M85.8 25.65 L86.0 49.3 64.3 61.65 67.8 58.8 67.0 56.65 82.8 47.8 82.8 28.65 85.0 28.5 85.8 25.65 M60.0 64.3 L-0.7 99.15 -86.2 50.0 -87.0 49.0 -86.7 24.0 -85.85 28.0 -85.5 28.65 -83.7 28.65 -83.5 48.0 -67.7 56.8 -68.35 58.8 -67.5 59.8 -61.5 63.8 -55.35 66.5 -54.35 66.5 -53.7 65.15 -0.5 95.65 53.0 65.0 53.15 65.0 53.65 66.0 54.8 66.3 60.0 64.3 M-86.7 18.0 L-86.85 -50.35 -27.35 -84.5 -30.85 -81.35 -31.2 -80.5 -30.5 -79.2 -83.85 -48.35 -83.7 12.65 -85.7 13.0 -86.7 18.0 M-0.35 -99.85 L22.15 -87.0 17.0 -88.85 15.8 -87.35 -0.5 -96.5 -0.35 -99.85 M-16.5 -87.5 L-17.35 -88.85 -1.85 -95.85 -16.5 -87.5" fill="#a2911f" fill-rule="evenodd" stroke="none"/>
    <path d="M-16.85 -79.7 L-17.35 -80.35 -18.7 -80.2 -22.85 -77.85 -24.2 -76.5 -23.7 -75.5 -26.2 -74.5 -27.7 -74.7 -23.2 -78.35 -17.7 -81.35 -13.7 -82.7 -13.7 -82.0 -14.85 -80.85 -16.85 -79.7" fill="#785f18" fill-rule="evenodd" stroke="none"/>
    <path d="M16.5 -79.35 L17.0 -80.2 19.15 -79.7 23.65 -76.85 23.65 -75.35 Q-2.0 -48.35 -23.7 -75.5 L-24.2 -76.5 -22.85 -77.85 -18.7 -80.2 -17.35 -80.35 -16.85 -79.7 Q-7.2 -68.35 1.15 -69.85 7.15 -71.2 11.15 -74.0 L16.5 -79.35" fill="#9a7e21" fill-rule="evenodd" stroke="none"/>
    <path d="M-25.35 -28.2 L-25.35 -11.7 -28.7 -7.85 -28.5 -32.35 -25.35 -28.2" fill="#ffffff" fill-rule="evenodd" stroke="none"/>
    <path d="M7.3 -28.2 L-25.35 -28.2 -28.5 -32.35 -28.5 -32.85 7.65 -32.85 8.0 -32.0 7.3 -28.2" fill="#3c3c3c" fill-rule="evenodd" stroke="none"/>
    <path d="M2.3 -50.0 L23.3 -49.7 Q44.65 -48.2 44.65 -26.2 L44.0 -18.5 Q41.65 -11.0 40.5 -10.35 L37.5 -7.5 23.5 -0.5 36.65 3.15 41.8 5.5 Q46.65 9.0 48.0 19.0 49.3 45.5 25.8 48.5 L2.0 49.0 -45.2 48.5 -45.0 -49.5 2.3 -50.0 M21.15 -9.2 Q23.8 -10.35 25.15 -14.85 L25.65 -23.2 Q24.3 -30.0 23.5 -30.35 L20.8 -32.0 17.0 -32.7 7.65 -32.85 -28.5 -32.85 -28.5 -32.35 -28.7 -7.85 7.3 -7.7 17.3 -8.0 21.15 -9.2 M8.0 31.3 Q25.65 32.5 26.65 27.5 L28.3 22.15 28.3 17.5 27.65 13.15 Q25.15 5.8 22.5 6.15 L18.15 5.5 7.3 5.3 -28.85 5.3 -28.7 31.15 8.0 31.3" fill="#a6a6a6" fill-rule="evenodd" stroke="none"/>
    <path d="M-25.35 -11.7 L7.15 -11.7 7.3 -7.7 -28.7 -7.85 -25.35 -11.7" fill="#b0b0b0" fill-rule="evenodd" stroke="none"/>
    <path d="M-47.7 -52.85 L-45.0 -49.5 -45.2 48.5 2.0 49.0 25.8 48.5 23.3 51.65 -0.35 52.0 -47.7 51.65 -47.7 -52.85 M19.3 -27.85 L20.5 -27.5 21.3 -26.0 19.3 -27.7 12.55 -28.0 19.3 -27.85 M22.5 6.15 L21.65 9.8 7.3 9.3 7.3 5.3 18.15 5.5 22.5 6.15" fill="#353535" fill-rule="evenodd" stroke="none"/>
    <path d="M0.15 -53.2 L2.3 -50.0 -45.0 -49.5 -47.7 -52.85 0.15 -53.2" fill="#a0a0a0" fill-rule="evenodd" stroke="none"/>
    <path d="M22.15 -87.0 L22.5 -86.7 25.65 -84.85 26.5 -84.5 26.5 -84.35 30.5 -81.0 29.65 -79.2 27.0 -74.5 23.5 -77.7 18.8 -80.5 13.3 -82.7 15.8 -87.35 17.0 -88.85 22.15 -87.0" fill="#ac8f2b" fill-rule="evenodd" stroke="none"/>
    <path d="M13.3 -82.7 L18.8 -80.5 23.5 -77.7 27.0 -74.5 26.15 -74.35 23.65 -75.35 23.65 -76.85 19.15 -79.7 17.0 -80.2 16.5 -79.35 14.65 -80.5 13.15 -82.0 13.3 -82.7 M77.3 12.8 L78.3 16.15 78.3 20.65 Q77.5 20.3 77.65 16.65 L76.3 16.65 76.65 14.0 77.3 12.8 M78.3 21.3 L78.3 26.0 77.8 28.3 77.3 28.65 76.5 24.5 77.65 24.3 77.8 22.0 78.3 21.3" fill="#3d2b02" fill-rule="evenodd" stroke="none"/>
    <path d="M2.3 -50.0 L0.15 -53.2 21.15 -52.85 23.3 -49.7 2.3 -50.0" fill="#a9a9a9" fill-rule="evenodd" stroke="none"/>
    <path d="M23.3 -49.7 L21.15 -52.85 Q39.0 -52.35 46.65 -36.0 52.15 -10.7 34.3 -1.5 L23.5 -0.5 37.5 -7.5 40.5 -10.35 Q41.65 -11.0 44.0 -18.5 L44.65 -26.2 Q44.65 -48.2 23.3 -49.7 M-25.35 23.8 L-25.7 12.3 -25.35 10.15 -25.35 23.8" fill="#cbcbcb" fill-rule="evenodd" stroke="none"/>
    <path d="M19.8 -12.7 L21.3 -14.35 22.0 -16.7 22.15 -17.7 22.3 -18.0 22.3 -22.35 22.15 -23.0 22.15 -23.5 21.5 -25.85 21.3 -26.0 20.5 -27.5 19.3 -27.85 20.8 -32.0 23.5 -30.35 Q24.3 -30.0 25.65 -23.2 L25.15 -14.85 Q23.8 -10.35 21.15 -9.2 L20.5 -10.35 20.3 -12.35 19.8 -12.7" fill="#3d3d3d" fill-rule="evenodd" stroke="none"/>
    <path d="M20.8 -32.0 L19.3 -27.85 12.55 -28.0 7.3 -28.2 8.0 -32.0 7.65 -32.85 17.0 -32.7 20.8 -32.0" fill="#383838" fill-rule="evenodd" stroke="none"/>
    <path d="M19.8 -12.7 L20.3 -12.35 20.5 -10.35 21.15 -9.2 17.3 -8.0 7.3 -7.7 7.15 -11.7 15.0 -11.85 19.8 -12.7" fill="#aaaaaa" fill-rule="evenodd" stroke="none"/>
    <path d="M23.5 -0.5 L34.3 -1.5 Q51.15 -1.85 50.65 26.8 46.3 49.65 23.3 51.65 L25.8 48.5 Q49.3 45.5 48.0 19.0 46.65 9.0 41.8 5.5 L36.65 3.15 23.5 -0.5" fill="#959595" fill-rule="evenodd" stroke="none"/>
    <path d="M85.8 16.15 L85.8 25.65 85.0 28.5 82.8 28.65 77.3 28.65 77.8 28.3 78.3 26.0 78.3 21.3 78.3 20.65 78.3 16.15 77.3 12.8 83.0 12.65 84.65 12.65 85.8 16.15" fill="#ab9a3f" fill-rule="evenodd" stroke="none"/>
    <path d="M76.3 16.65 L77.65 16.65 Q77.5 20.3 78.3 20.65 L78.3 21.3 77.8 22.0 77.65 24.3 76.5 24.5 Q50.3 30.8 59.5 53.15 L60.0 54.3 58.15 56.0 53.8 58.0 53.0 58.0 52.8 57.3 Q41.65 21.65 76.3 16.65" fill="#997c1d" fill-rule="evenodd" stroke="none"/>
    <path d="M21.65 9.8 L22.5 6.15 Q25.15 5.8 27.65 13.15 L28.3 17.5 28.3 22.15 26.65 27.5 Q25.65 32.5 8.0 31.3 L7.65 27.0 20.15 26.65 21.8 26.3 23.15 25.15 23.3 25.0 23.8 24.3 24.0 24.15 24.3 23.15 24.5 23.0 24.5 22.5 24.65 22.0 24.8 21.15 25.0 20.5 25.0 17.3 24.8 16.5 24.5 14.3 23.65 11.65 21.65 9.8" fill="#686868" fill-rule="evenodd" stroke="none"/>
    <path d="M7.3 5.3 L7.3 9.3 -25.35 9.3 -25.35 10.15 -25.7 12.3 -25.35 23.8 -25.35 26.65 -25.5 27.0 -28.7 31.15 -28.85 5.3 7.3 5.3" fill="#939393" fill-rule="evenodd" stroke="none"/>
    <path d="M23.15 25.15 L21.8 26.3 20.15 26.65 7.65 27.0 7.5 26.65 19.65 26.5 23.15 25.15" fill="#797979" fill-rule="evenodd" stroke="none"/>
    <path d="M7.5 26.65 L7.65 27.0 -25.5 27.0 -25.35 26.65 7.5 26.65" fill="#f1f1f1" fill-rule="evenodd" stroke="none"/>
    <path d="M7.65 27.0 L8.0 31.3 -28.7 31.15 -25.5 27.0 7.65 27.0" fill="#cccccc" fill-rule="evenodd" stroke="none"/>
    <path d="M64.3 61.65 L64.3 61.8 63.5 62.15 60.0 64.3 54.8 66.3 53.65 66.0 53.15 65.0 53.0 65.0 50.15 59.8 Q56.8 58.5 64.0 51.8 L64.5 52.0 67.0 56.65 67.8 58.8 64.3 61.65" fill="#a58f27" fill-rule="evenodd" stroke="none"/>
    <path d="M64.0 51.8 Q56.8 58.5 50.15 59.8 L50.3 59.15 52.8 57.3 53.0 58.0 53.8 58.0 58.15 56.0 60.0 54.3 59.5 53.15 64.0 51.8" fill="#cea728" fill-rule="evenodd" stroke="none"/>
    <path d="M-76.85 16.65 L-78.2 17.0 -78.5 22.15 -78.0 24.5 -76.85 24.5 -77.35 28.15 -78.2 28.8 Q-80.0 18.5 -77.85 12.8 L-77.0 14.3 -76.85 16.65" fill="#ffff36" fill-rule="evenodd" stroke="none"/>
    <path d="M-76.85 24.5 L-78.0 24.5 -78.5 22.15 -78.2 17.0 -76.85 16.65 Q-42.0 21.8 -53.2 57.3 -55.2 59.15 -60.5 53.8 L-60.0 53.15 Q-53.0 26.65 -76.85 24.5" fill="#a28b29" fill-rule="evenodd" stroke="none"/>
    <path d="M-86.7 24.0 L-86.7 18.0 -85.7 13.0 -83.7 12.65 -77.85 12.8 Q-80.0 18.5 -78.2 28.8 L-83.7 28.65 -85.5 28.65 -85.85 28.0 -86.7 24.0" fill="#8a6b11" fill-rule="evenodd" stroke="none"/>
    <path d="M-64.7 52.3 L-60.0 55.8 -54.7 58.65 -50.7 59.8 -53.7 65.15 -54.35 66.5 -55.35 66.5 -61.5 63.8 -67.5 59.8 -68.35 58.8 -67.7 56.8 -64.7 52.3" fill="#7c600d" fill-rule="evenodd" stroke="none"/>
    <path d="M-60.0 53.15 L-60.5 53.8 Q-55.2 59.15 -53.2 57.3 L-51.7 58.15 -50.7 59.15 -50.7 59.8 -54.7 58.65 -60.0 55.8 -64.7 52.3 -64.7 51.8 -63.7 51.8 -60.0 53.15" fill="#ffff3d" fill-rule="evenodd" stroke="none"/>
  </g>
</svg>
