<?xml version="1.0" encoding="UTF-8" standalone="no"?>
<svg xmlns:ffdec="https://www.free-decompiler.com/flash" xmlns:xlink="http://www.w3.org/1999/xlink" ffdec:objectType="shape" height="244.85px" width="208.7px" xmlns="http://www.w3.org/2000/svg">
  <g transform="matrix(1.0, 0.0, 0.0, 1.0, 103.7, 122.85)">
    <path d="M29.5 -82.35 L84.8 -52.0 85.0 -50.5 30.0 -80.85 30.15 -81.5 29.3 -82.0 29.5 -82.35 M-1.2 -99.35 L17.3 -89.0 16.15 -89.35 15.8 -88.85 1.5 -96.7 -1.2 -99.35" fill="#473609" fill-rule="evenodd" stroke="none"/>
    <path d="M17.3 -89.0 L28.3 -83.0 Q28.5 -82.9 28.65 -82.85 L29.3 -82.35 29.5 -82.35 29.3 -82.0 30.15 -81.5 30.0 -80.85 26.5 -75.0 23.65 -76.85 23.5 -77.0 19.0 -79.7 17.65 -80.35 13.0 -82.85 12.65 -83.0 15.8 -88.85 16.15 -89.35 17.3 -89.0" fill="#9b7e1f" fill-rule="evenodd" stroke="none"/>
    <path d="M29.5 -82.35 L29.3 -82.35 28.65 -82.85 Q28.5 -82.9 28.3 -83.0 L17.3 -89.0 -1.2 -99.35 -2.7 -100.0 -29.7 -83.0 -84.5 -48.85 -84.35 48.3 -58.5 64.0 -57.35 65.15 -2.7 99.15 55.3 67.15 66.15 61.15 85.0 51.0 84.8 49.8 85.0 29.65 85.0 13.0 85.0 -50.5 84.8 -52.0 29.5 -82.35 M-34.0 -92.35 L-2.7 -100.0 -3.5 -122.7 -3.2 -122.85 29.0 -94.2 61.15 -76.5 104.5 -64.0 96.3 -25.5 94.65 -20.0 95.0 12.3 94.65 19.3 102.65 53.3 104.5 63.15 61.65 75.5 28.8 93.5 -3.2 122.0 -34.85 90.8 -64.2 72.5 -103.7 58.65 -94.5 17.5 -94.5 -18.0 -103.7 -59.35 -65.0 -72.85 -34.0 -92.35" fill="#967514" fill-rule="evenodd" stroke="none"/>
    <path d="M13.0 -82.85 L17.65 -80.35 16.65 -80.5 13.0 -82.85 M23.65 -76.85 L26.5 -75.0 23.65 -76.35 23.5 -76.35 23.65 -76.85" fill="#3d2b02" fill-rule="evenodd" stroke="none"/>
    <path d="M17.65 -80.35 L19.0 -79.7 23.5 -77.0 23.65 -76.85 23.5 -76.35 Q-1.2 -48.35 -22.85 -74.5 L-23.5 -76.5 -21.2 -78.35 -18.0 -79.85 -16.7 -79.85 -16.0 -78.5 Q1.0 -60.2 16.65 -80.5 L17.65 -80.35" fill="#8d7319" fill-rule="evenodd" stroke="none"/>
    <path d="M-29.7 -83.0 L-2.7 -100.0 -1.2 -99.35 1.5 -96.7 0.5 -96.0 -17.0 -88.35 Q-19.7 -88.5 -22.5 -86.85 L-27.85 -83.5 -29.7 -83.0" fill="#856b21" fill-rule="evenodd" stroke="none"/>
    <path d="M21.5 -50.0 L0.65 -50.0 -45.2 -48.7 -45.2 47.65 0.5 49.0 23.8 48.8 22.3 52.0 -1.0 52.0 -46.5 51.15 -46.35 50.15 -46.5 -52.35 -0.7 -53.2 20.15 -53.2 21.5 -50.0 M-29.35 -32.5 L14.3 -32.85 19.0 -32.2 Q22.8 -32.5 23.8 -21.7 23.65 -11.0 19.3 -9.2 L19.15 -12.85 Q21.0 -14.5 21.3 -16.2 L21.8 -20.85 Q21.15 -28.35 18.5 -28.0 L-24.2 -27.85 -25.35 -28.2 -29.35 -32.5 M6.65 27.0 L20.15 26.65 Q23.3 25.5 23.65 23.8 L24.3 19.65 Q24.3 10.3 20.8 10.0 L6.5 9.3 5.5 5.3 16.3 5.5 20.65 6.15 Q29.0 12.0 25.3 26.8 24.65 33.0 6.15 31.3 L6.65 27.0" fill="#999999" fill-rule="evenodd" stroke="none"/>
    <path d="M21.5 -50.0 L20.15 -53.2 Q29.15 -54.35 39.3 -45.85 L39.8 -45.5 41.5 -43.85 41.65 -43.5 42.0 -43.2 45.5 -38.0 45.5 -37.85 Q49.3 -20.0 44.5 -12.2 L43.75 -10.2 Q41.45 -6.7 37.8 -3.85 35.85 -2.6 33.3 -1.5 L34.15 -1.35 34.5 -1.35 36.3 -0.85 37.15 -0.7 37.3 -0.7 Q41.8 0.15 44.95 3.9 50.85 9.8 50.6 20.9 L50.65 21.5 50.45 23.25 50.0 26.9 49.8 28.65 49.2 31.2 48.65 33.5 48.0 34.15 47.5 36.15 47.15 36.8 47.15 37.0 46.8 37.3 46.8 37.5 46.3 38.3 46.15 38.5 46.0 39.0 45.65 39.3 45.5 39.65 43.5 42.3 42.65 43.15 42.15 43.8 41.3 44.65 Q35.8 51.3 22.3 52.0 L23.8 48.8 Q45.8 47.8 46.3 20.15 44.5 8.5 40.0 5.8 L35.8 3.65 21.5 -0.5 34.8 -7.2 Q37.8 -9.35 39.3 -11.7 L42.0 -18.7 42.5 -21.85 42.65 -31.7 Q39.15 -49.7 21.5 -50.0 M19.15 -12.85 L19.3 -9.2 14.8 -8.0 -29.7 -7.7 -25.35 -11.5 -24.2 -11.5 15.15 -12.0 19.15 -12.85 M6.65 27.0 L6.15 31.3 -29.5 31.0 -29.7 5.3 5.5 5.3 6.5 9.3 -24.2 9.3 -25.35 9.3 -25.5 10.0 -25.35 26.65 -24.7 26.65 -16.45 26.7 6.65 27.0" fill="#cccccc" fill-rule="evenodd" stroke="none"/>
    <path d="M23.8 48.8 L0.5 49.0 -45.2 47.65 -45.2 -48.7 0.65 -50.0 21.5 -50.0 Q39.15 -49.7 42.65 -31.7 L42.5 -21.85 42.0 -18.7 39.3 -11.7 Q37.8 -9.35 34.8 -7.2 L21.5 -0.5 35.8 3.65 40.0 5.8 Q44.5 8.5 46.3 20.15 45.8 47.8 23.8 48.8 M19.3 -9.2 Q23.65 -11.0 23.8 -21.7 22.8 -32.5 19.0 -32.2 L14.3 -32.85 -29.35 -32.5 -29.7 -7.7 14.8 -8.0 19.3 -9.2 M-25.35 -28.2 L-24.2 -27.85 -24.2 -11.5 -25.35 -11.5 -25.35 -28.2 M6.15 31.3 Q24.65 33.0 25.3 26.8 29.0 12.0 20.65 6.15 L16.3 5.5 5.5 5.3 -29.7 5.3 -29.5 31.0 6.15 31.3" fill="#ffffff" fill-rule="evenodd" stroke="none"/>
    <path d="M45.5 -37.85 Q50.95 -21.0 43.75 -10.2 L44.5 -12.2 Q49.3 -20.0 45.5 -37.85 M37.8 -3.85 L34.15 -1.35 33.3 -1.5 Q35.85 -2.6 37.8 -3.85" fill="#c1c1c1" fill-rule="evenodd" stroke="none"/>
    <path d="M104.5 63.15 L102.65 53.3 94.65 19.3 95.0 12.3 94.65 -20.0 96.3 -25.5 104.5 -64.0 105.0 -60.35 95.65 -19.0 95.65 18.15 104.65 58.3 105.0 59.15 104.5 63.15" fill="#ba9932" fill-rule="evenodd" stroke="none"/>
    <path d="M85.0 13.0 L85.0 29.65 78.0 29.5 77.65 25.15 77.65 24.65 77.5 23.15 77.5 17.15 78.0 13.0 85.0 13.0" fill="#9a822a" fill-rule="evenodd" stroke="none"/>
    <path d="M84.8 49.8 L85.0 51.0 66.15 61.15 68.3 59.65 68.0 59.0 84.8 49.8 M55.3 67.15 L-2.7 99.15 -57.35 65.15 -58.5 64.0 -84.35 48.3 -84.5 -48.85 -29.7 -83.0 -27.85 -83.5 Q-30.5 -81.5 -30.5 -80.2 L-29.0 -77.5 -78.0 -47.2 -78.0 12.3 Q-84.85 10.15 -83.85 22.65 -83.2 27.3 -82.0 27.65 L-78.0 28.0 -78.0 46.3 -64.5 54.65 Q-68.85 58.5 -58.85 63.5 -54.2 65.5 -52.35 65.15 L-51.2 63.15 1.5 95.8 53.5 67.15 53.8 67.65 55.3 67.15 M-15.5 -86.2 L-17.0 -88.35 0.5 -96.0 -15.5 -86.2" fill="#d4c43a" fill-rule="evenodd" stroke="none"/>
    <path d="M52.8 59.15 Q41.15 21.5 77.5 17.15 L77.5 23.15 77.65 24.65 77.65 25.15 77.5 25.15 Q50.8 28.8 60.0 55.0 L59.3 56.0 59.15 56.0 55.0 58.3 54.5 58.65 54.15 58.8 52.8 59.15" fill="#917518" fill-rule="evenodd" stroke="none"/>
    <path d="M48.65 33.5 L47.5 36.15 48.0 34.15 48.65 33.5" fill="#b8b8b8" fill-rule="evenodd" stroke="none"/>
    <path d="M66.15 61.15 L55.3 67.15 53.8 67.65 53.5 67.15 50.15 60.8 50.5 60.65 50.65 60.65 54.15 58.8 54.5 58.65 55.0 58.3 59.15 56.0 59.3 56.0 63.8 53.15 64.5 53.0 68.0 59.0 68.3 59.65 66.15 61.15" fill="#a5932f" fill-rule="evenodd" stroke="none"/>
    <path d="M50.65 60.65 L52.8 59.15 54.15 58.8 50.65 60.65 M60.0 55.0 L63.8 53.15 59.3 56.0 60.0 55.0" fill="#c9a222" fill-rule="evenodd" stroke="none"/>
    <path d="M-2.7 -100.0 L-34.0 -92.35 -3.5 -122.7 -2.7 -100.0" fill="#a48217" fill-rule="evenodd" stroke="none"/>
    <path d="M-27.2 -74.35 L-29.0 -77.5 -30.5 -80.2 Q-30.5 -81.5 -27.85 -83.5 L-22.5 -86.85 Q-19.7 -88.5 -17.0 -88.35 L-15.5 -86.2 -13.35 -82.2 Q-25.2 -79.2 -27.2 -74.35" fill="#a59436" fill-rule="evenodd" stroke="none"/>
    <path d="M-22.85 -74.5 L-25.5 -73.7 -26.85 -73.7 -27.2 -74.35 Q-25.2 -79.2 -13.35 -82.2 L-13.2 -81.0 -16.0 -78.5 -16.7 -79.85 -18.0 -79.85 -21.2 -78.35 -23.5 -76.5 -22.85 -74.5" fill="#725915" fill-rule="evenodd" stroke="none"/>
    <path d="M-29.35 -32.5 L-25.35 -28.2 -25.35 -11.5 -29.7 -7.7 -29.35 -32.5" fill="#fafafa" fill-rule="evenodd" stroke="none"/>
    <path d="M-24.2 9.3 L-24.2 26.5 -24.7 26.65 -25.35 26.65 -25.5 10.0 -25.35 9.3 -24.2 9.3" fill="#cdcdcd" fill-rule="evenodd" stroke="none"/>
    <path d="M-24.2 26.5 L-16.45 26.7 -24.7 26.65 -24.2 26.5" fill="#f0f0f0" fill-rule="evenodd" stroke="none"/>
    <path d="M-78.0 12.3 L-74.5 12.3 -76.2 14.15 -77.2 21.8 -75.85 27.0 -74.7 28.0 -78.0 28.0 -82.0 27.65 Q-83.2 27.3 -83.85 22.65 -84.85 10.15 -78.0 12.3" fill="#7d600e" fill-rule="evenodd" stroke="none"/>
    <path d="M-74.5 12.3 L-73.35 12.65 Q-72.0 14.65 -72.2 16.3 L-74.2 16.15 -75.2 16.8 -75.7 21.15 -74.5 23.8 -72.2 24.0 -73.35 27.3 -74.7 28.0 -75.85 27.0 -77.2 21.8 -76.2 14.15 -74.5 12.3" fill="#ffff4e" fill-rule="evenodd" stroke="none"/>
    <path d="M-72.2 16.3 Q-41.85 21.3 -50.85 55.5 L-51.5 57.0 -54.5 56.3 -57.85 54.0 -58.2 53.5 -57.7 51.5 Q-51.2 27.8 -72.2 24.0 L-74.5 23.8 -75.7 21.15 -75.2 16.8 -74.2 16.15 -72.2 16.3" fill="#988124" fill-rule="evenodd" stroke="none"/>
    <path d="M-50.85 55.5 L-48.5 57.8 -48.7 58.65 Q-58.5 56.8 -62.5 51.3 L-62.2 50.65 Q-60.85 50.15 -57.7 51.5 L-58.2 53.5 -57.85 54.0 -54.5 56.3 -51.5 57.0 -50.85 55.5" fill="#ffff4a" fill-rule="evenodd" stroke="none"/>
    <path d="M-48.7 58.65 L-51.2 63.15 -52.35 65.15 Q-54.2 65.5 -58.85 63.5 -68.85 58.5 -64.5 54.65 L-62.5 51.3 Q-58.5 56.8 -48.7 58.65" fill="#755a0c" fill-rule="evenodd" stroke="none"/>
  </g>
</svg>
