<?xml version="1.0" encoding="UTF-8" standalone="no"?>
<svg xmlns:ffdec="https://www.free-decompiler.com/flash" xmlns:xlink="http://www.w3.org/1999/xlink" ffdec:objectType="shape" height="243.3px" width="189.5px" xmlns="http://www.w3.org/2000/svg">
  <g transform="matrix(1.0, 0.0, 0.0, 1.0, 87.35, 122.0)">
    <path d="M1.8 -95.35 L-15.0 -87.35 Q-18.85 -87.35 -22.0 -85.35 L-25.85 -82.2 -28.5 -81.2 -6.35 -99.5 -5.85 -99.85 1.8 -95.35" fill="#6d530a" fill-rule="evenodd" stroke="none"/>
    <path d="M-8.85 -122.0 L-5.85 -99.85 -6.35 -99.5 -33.35 -90.2 -8.85 -122.0" fill="#69500a" fill-rule="evenodd" stroke="none"/>
    <path d="M2.65 94.0 L45.8 69.0 60.65 60.5 72.0 54.0 72.0 31.3 72.0 13.8 71.8 -55.0 26.5 -81.2 12.15 -89.35 2.65 -94.85 1.8 -95.35 -5.85 -99.85 -8.85 -122.0 19.65 -95.7 48.65 -79.35 88.65 -68.7 79.65 -20.5 79.8 20.65 88.65 67.8 48.15 78.65 19.5 95.0 -7.9 121.05 -8.0 121.15 -8.7 121.3 -34.5 88.15 -57.35 69.15 -87.35 54.65 -80.2 17.0 -80.2 -17.35 -87.35 -55.35 -57.5 -69.85 -33.35 -90.2 -6.35 -99.5 -28.5 -81.2 -71.5 -45.85 -71.2 14.5 -71.5 45.15 -6.35 98.8 -2.5 97.15 2.65 94.0" fill="#604808" fill-rule="evenodd" stroke="none"/>
    <path d="M-19.2 -72.7 L-22.5 -72.5 -23.85 -73.35 -24.2 -74.2 -24.2 -74.5 Q-20.7 -81.7 -10.0 -81.0 L-9.5 -79.5 -10.35 -78.0 -12.2 -76.35 -14.2 -79.0 -17.35 -78.5 Q-20.2 -77.0 -20.5 -75.5 L-19.2 -72.7" fill="#674e0a" fill-rule="evenodd" stroke="none"/>
    <path d="M20.5 -77.2 Q0.65 -49.2 -19.2 -72.7 L-20.5 -75.5 Q-20.2 -77.0 -17.35 -78.5 L-14.2 -79.0 -12.2 -76.35 Q-0.85 -62.0 11.65 -78.35 L13.15 -80.5 20.5 -77.2" fill="#765e12" fill-rule="evenodd" stroke="none"/>
    <path d="M-15.0 -87.35 L-13.0 -86.85 -11.5 -83.7 -10.0 -81.0 Q-20.7 -81.7 -24.2 -74.5 L-26.85 -79.5 -25.85 -82.2 -22.0 -85.35 Q-18.85 -87.35 -15.0 -87.35" fill="#a28a2d" fill-rule="evenodd" stroke="none"/>
    <path d="M-23.85 -73.35 L-59.5 -44.7 -59.35 11.8 -60.35 11.65 Q-72.2 10.5 -70.2 21.15 -69.7 24.15 -67.2 26.15 L-60.6 26.65 -60.5 26.65 -59.35 26.5 -59.2 44.5 -52.35 49.65 -52.5 50.5 -54.5 54.15 Q-56.2 59.8 -46.7 62.65 -42.35 63.15 -41.85 62.65 L-40.2 59.5 2.65 94.0 -2.5 97.15 -6.35 98.8 -71.5 45.15 -71.2 14.5 -71.5 -45.85 -28.5 -81.2 -25.85 -82.2 -26.85 -79.5 -24.2 -74.5 -24.2 -74.2 -23.85 -73.35 M1.8 -95.35 L2.65 -94.85 -11.5 -83.7 -13.0 -86.85 -15.0 -87.35 1.8 -95.35" fill="#d6cc60" fill-rule="evenodd" stroke="none"/>
    <path d="M18.0 52.8 L-32.5 50.15 -39.5 49.3 -40.2 47.0 -40.35 46.3 -2.85 49.0 17.15 49.65 18.0 52.8 M15.8 -13.2 L14.3 -10.2 13.3 -9.5 13.8 -11.0 15.15 -12.5 15.0 -13.0 15.8 -13.2" fill="#353535" fill-rule="evenodd" stroke="none"/>
    <path d="M-40.5 31.15 L-40.35 30.5 -40.35 -47.35 -2.7 -50.0 15.15 -50.7 21.15 -49.85 26.8 -46.85 31.3 -41.35 Q33.65 -37.2 33.8 -31.35 L33.5 -21.35 32.8 -17.7 31.0 -12.35 27.8 -8.2 15.15 -0.5 27.5 3.65 31.5 6.0 34.8 11.15 36.8 19.65 Q37.3 49.0 17.15 49.65 L-2.85 49.0 -40.35 46.3 -40.35 31.65 -40.5 31.15 M-39.5 49.3 L-39.85 48.65 -40.2 47.0 -39.5 49.3 M13.0 -32.5 Q12.5 -33.35 8.0 -33.2 L-27.5 -31.85 -22.35 -27.7 -20.85 -27.7 -19.35 -27.5 -18.85 -27.5 -18.7 -11.5 -22.35 -11.35 -27.7 -7.5 1.3 -7.7 8.8 -8.0 Q12.15 -8.35 13.3 -9.5 L14.3 -10.2 15.8 -13.2 16.15 -14.0 17.15 -20.85 16.5 -26.85 15.15 -31.0 13.0 -32.5 M18.0 11.15 L15.65 6.8 14.65 6.5 14.3 6.0 12.15 5.65 -27.85 5.15 -27.7 30.3 1.8 31.5 14.65 31.3 Q18.3 29.65 18.65 25.3 L18.8 24.8 19.0 24.5 19.3 16.8 18.0 11.15" fill="#ffffff" fill-rule="evenodd" stroke="none"/>
    <path d="M1.3 -7.7 L-27.7 -7.5 -22.35 -11.35 -18.7 -11.5 4.15 -11.7 1.3 -7.7" fill="#818181" fill-rule="evenodd" stroke="none"/>
    <path d="M26.5 -81.2 L24.15 -76.35 20.5 -77.2 13.15 -80.5 9.5 -83.2 12.15 -89.35 26.5 -81.2" fill="#896f19" fill-rule="evenodd" stroke="none"/>
    <path d="M6.8 -28.35 L4.3 -28.7 13.5 -28.5 6.8 -28.35" fill="#3b3b3b" fill-rule="evenodd" stroke="none"/>
    <path d="M14.8 -28.5 L13.0 -32.5 15.15 -31.0 16.5 -26.85 15.8 -28.0 14.8 -28.5" fill="#3d3d3d" fill-rule="evenodd" stroke="none"/>
    <path d="M13.3 -9.5 Q12.15 -8.35 8.8 -8.0 L1.3 -7.7 4.15 -11.7 12.3 -12.2 15.0 -13.0 15.15 -12.5 13.8 -11.0 13.3 -9.5" fill="#767676" fill-rule="evenodd" stroke="none"/>
    <path d="M-18.7 26.0 L-19.35 26.0 -19.35 9.15 -18.85 9.15 -18.7 26.0" fill="#9b9b9b" fill-rule="evenodd" stroke="none"/>
    <path d="M-7.9 121.05 L19.5 95.0 48.15 78.65 88.65 67.8 79.8 20.65 79.65 -20.5 88.65 -68.7 48.65 -79.35 19.65 -95.7 -8.85 -122.0 7.8 -117.2 33.5 -92.2 61.3 -76.5 102.15 -65.35 92.5 -20.5 92.5 19.3 102.15 64.5 61.3 75.65 33.5 91.3 8.3 115.8 6.3 116.8 -7.9 121.05" fill="#b29e3b" fill-rule="evenodd" stroke="none"/>
    <path d="M45.65 60.3 Q34.3 27.3 66.15 18.3 L65.65 21.15 65.8 24.3 66.0 25.5 66.0 25.65 66.3 27.0 Q45.65 32.15 53.0 56.5 L46.8 59.65 46.0 60.15 45.65 60.3" fill="#765d12" fill-rule="evenodd" stroke="none"/>
    <path d="M66.15 18.3 L68.15 14.5 69.3 13.8 72.0 13.8 72.0 31.3 68.65 31.0 Q67.5 30.5 66.3 27.0 L66.0 25.65 66.0 25.5 65.8 24.3 65.65 21.15 66.15 18.3" fill="#816e1d" fill-rule="evenodd" stroke="none"/>
    <path d="M13.9 27.05 L5.3 27.15 7.5 27.0 13.9 27.05" fill="#f2f2f2" fill-rule="evenodd" stroke="none"/>
    <path d="M45.8 69.0 L42.65 62.65 45.65 60.3 46.0 60.15 46.8 59.65 53.0 56.5 58.15 55.3 60.65 60.5 45.8 69.0" fill="#a7993d" fill-rule="evenodd" stroke="none"/>
    <path d="M-55.85 16.15 Q-46.5 17.5 -40.5 31.15 L-40.35 31.65 -40.35 46.3 -40.2 47.0 -39.85 48.65 -40.7 52.3 -41.7 55.0 -44.7 54.8 -47.85 52.8 Q-49.0 52.15 -47.7 48.8 -44.35 26.15 -56.5 23.8 L-58.0 23.0 -61.0 22.5 -62.2 21.0 -62.35 18.3 -61.0 15.65 Q-60.35 14.65 -55.85 16.15" fill="#8f7820" fill-rule="evenodd" stroke="none"/>
    <path d="M-59.35 11.8 L-58.2 12.15 -57.0 13.3 -55.85 16.15 Q-60.35 14.65 -61.0 15.65 L-62.35 18.3 -62.2 21.0 -61.0 22.5 -58.0 23.0 -56.5 23.8 -58.2 26.0 -59.35 26.5 -60.5 26.65 -60.6 26.65 Q-64.35 26.25 -65.0 21.15 L-64.5 15.65 Q-63.35 12.3 -60.35 11.65 L-59.35 11.8" fill="#ffff57" fill-rule="evenodd" stroke="none"/>
    <path d="M-60.35 11.65 Q-63.35 12.3 -64.5 15.65 L-65.0 21.15 Q-64.35 26.25 -60.6 26.65 L-67.2 26.15 Q-69.7 24.15 -70.2 21.15 -72.2 10.5 -60.35 11.65" fill="#6d530b" fill-rule="evenodd" stroke="none"/>
    <path d="M-40.7 52.3 L-38.7 54.0 -38.35 54.8 -38.85 56.5 Q-48.7 57.0 -52.5 50.5 L-52.35 49.65 -52.0 49.0 -51.0 48.65 -47.7 48.8 Q-49.0 52.15 -47.85 52.8 L-44.7 54.8 -41.7 55.0 -40.7 52.3" fill="#ffff78" fill-rule="evenodd" stroke="none"/>
    <path d="M-38.85 56.5 L-40.2 59.5 -41.85 62.65 Q-42.35 63.15 -46.7 62.65 -56.2 59.8 -54.5 54.15 L-52.5 50.5 Q-48.7 57.0 -38.85 56.5" fill="#6c530a" fill-rule="evenodd" stroke="none"/>
    <path d="M16.0 -53.85 L22.15 -53.35 22.65 -53.2 23.0 -53.2 Q34.65 -53.5 42.15 -35.5 44.65 -6.85 30.5 -1.5 L36.5 0.5 Q39.5 2.0 41.15 4.65 46.15 12.8 45.65 24.65 43.15 48.8 24.65 52.15 L18.0 52.8 17.15 49.65 Q37.3 49.0 36.8 19.65 L34.8 11.15 31.5 6.0 27.5 3.65 15.15 -0.5 27.8 -8.2 31.0 -12.35 32.8 -17.7 33.5 -21.35 33.8 -31.35 Q33.65 -37.2 31.3 -41.35 L26.8 -46.85 21.15 -49.85 15.15 -50.7 16.0 -53.85 M-19.35 26.0 L-22.35 26.3 -22.5 9.8 -22.35 9.15 -19.35 9.15 -19.35 26.0" fill="#cccccc" fill-rule="evenodd" stroke="none"/>
    <path d="M-40.35 -47.35 L-39.5 -50.7 16.0 -53.85 15.15 -50.7 -2.7 -50.0 -40.35 -47.35 M13.5 -28.5 L4.3 -28.7 6.8 -28.35 -18.85 -27.5 -19.35 -27.5 -20.85 -27.7 -22.35 -27.7 -27.5 -31.85 8.0 -33.2 Q12.5 -33.35 13.0 -32.5 L14.8 -28.5 13.5 -28.5 M18.65 25.3 Q18.3 29.65 14.65 31.3 L1.8 31.5 -27.7 30.3 -27.85 5.15 12.15 5.65 14.3 6.0 14.65 6.5 15.65 6.8 18.0 11.15 16.3 10.0 -18.85 9.15 -19.35 9.15 -22.35 9.15 -22.5 9.8 -22.35 26.3 -19.35 26.0 -18.7 26.0 7.5 27.0 5.3 27.15 13.9 27.05 16.0 27.0 17.0 26.8 18.65 25.3" fill="#999999" fill-rule="evenodd" stroke="none"/>
  </g>
</svg>
