<?xml version="1.0" encoding="UTF-8" standalone="no"?>
<svg xmlns:ffdec="https://www.free-decompiler.com/flash" xmlns:xlink="http://www.w3.org/1999/xlink" ffdec:objectType="shape" height="243.15px" width="169.2px" xmlns="http://www.w3.org/2000/svg">
  <g transform="matrix(1.0, 0.0, 0.0, 1.0, 75.2, 122.0)">
    <path d="M-10.85 120.8 L13.3 95.5 38.3 79.8 73.65 69.8 73.8 69.3 66.0 21.3 66.3 20.0 66.0 -22.35 66.5 -23.35 73.65 -70.7 37.65 -81.2 13.3 -96.35 -10.85 -121.7 -10.7 -122.0 10.0 -117.5 32.15 -93.2 56.8 -78.0 94.0 -67.7 84.65 -20.85 84.65 19.8 94.0 66.65 58.15 76.65 32.3 92.15 10.0 116.65 -10.5 121.15 -10.85 120.8" fill="#b49f37" fill-rule="evenodd" stroke="none"/>
    <path d="M-10.85 -121.7 L-7.35 -99.5 -7.85 -99.2 -31.0 -89.2 -10.85 -121.7" fill="#493504" fill-rule="evenodd" stroke="none"/>
    <path d="M1.0 -94.2 L-13.2 -86.85 Q-16.2 -87.2 -19.85 -85.0 L-23.5 -81.5 -26.7 -80.2 -7.85 -99.2 -7.35 -99.5 1.0 -94.2" fill="#6e540b" fill-rule="evenodd" stroke="none"/>
    <path d="M23.15 -79.85 L8.8 -89.0 2.65 -93.2 1.0 -94.2 -7.35 -99.5 -10.85 -121.7 13.3 -96.35 37.65 -81.2 73.65 -70.7 66.5 -23.35 66.0 -22.35 66.3 20.0 66.0 21.3 73.8 69.3 73.65 69.8 38.3 79.8 13.3 95.5 -10.85 120.8 -31.7 87.3 -50.85 67.8 -75.2 53.15 -69.2 16.15 -69.2 -16.7 -75.2 -53.85 -51.2 -68.35 -31.0 -89.2 -7.85 -99.2 -26.7 -80.2 -61.5 -45.0 -61.35 44.65 -38.5 67.15 -7.7 98.65 -5.7 97.8 2.65 92.3 38.0 69.5 52.8 59.8 59.65 55.8 60.15 55.0 60.0 31.8 60.15 14.3 60.15 -56.2 23.15 -79.85" fill="#4f3a05" fill-rule="evenodd" stroke="none"/>
    <path d="M-16.5 -72.0 L-19.0 -72.0 -20.5 -72.35 -21.85 -74.35 Q-18.0 -82.35 -7.5 -80.5 L-7.5 -80.35 -7.0 -77.85 -7.5 -77.0 -9.35 -75.2 -11.35 -78.5 -14.7 -78.35 Q-20.5 -76.2 -16.5 -72.0" fill="#684f0a" fill-rule="evenodd" stroke="none"/>
    <path d="M10.3 -80.35 L17.8 -77.35 Q1.0 -49.35 -16.5 -72.0 -20.5 -76.2 -14.7 -78.35 L-11.35 -78.5 -9.35 -75.2 Q-5.7 -69.7 -0.85 -69.7 1.5 -70.0 6.5 -74.5 L10.3 -80.35" fill="#6c5611" fill-rule="evenodd" stroke="none"/>
    <path d="M-13.2 -86.85 L-10.2 -86.35 -8.35 -82.5 -7.5 -80.5 Q-18.0 -82.35 -21.85 -74.35 L-24.0 -79.0 -23.5 -81.5 -19.85 -85.0 Q-16.2 -87.2 -13.2 -86.85" fill="#a18d2e" fill-rule="evenodd" stroke="none"/>
    <path d="M-19.0 -72.0 L-47.5 -43.85 -47.5 12.3 -50.7 11.5 Q-61.35 11.15 -60.2 18.8 -60.5 26.5 -51.5 26.0 L-51.0 26.0 -50.7 26.15 -47.5 25.15 -47.35 43.3 -42.85 47.8 -44.35 48.3 -45.35 50.15 -45.35 50.3 Q-50.7 56.8 -43.35 60.5 -41.7 61.5 -37.35 62.15 L-34.7 61.8 -33.35 60.65 -32.35 58.15 2.65 92.3 -5.7 97.8 -7.7 98.65 -38.5 67.15 -61.35 44.65 -61.5 -45.0 -26.7 -80.2 -23.5 -81.5 -24.0 -79.0 -21.85 -74.35 -20.5 -72.35 -19.0 -72.0 M1.0 -94.2 L2.65 -93.2 -8.35 -82.5 -10.2 -86.35 -13.2 -86.85 1.0 -94.2" fill="#d4c759" fill-rule="evenodd" stroke="none"/>
    <path d="M-2.35 -53.0 L12.8 -54.2 10.8 -50.85 -4.2 -50.0 -2.35 -53.0" fill="#6a6a6a" fill-rule="evenodd" stroke="none"/>
    <path d="M-35.7 -46.7 L-34.0 -50.0 -2.35 -53.0 -4.2 -50.0 -35.7 -46.7" fill="#616161" fill-rule="evenodd" stroke="none"/>
    <path d="M-35.7 24.65 L-35.7 -46.7 -4.2 -50.0 10.8 -50.85 Q24.0 -52.2 27.0 -31.85 L26.65 -21.2 26.0 -17.2 24.3 -12.0 20.65 -7.2 10.65 -0.5 21.8 3.8 24.65 5.8 Q27.3 8.8 28.0 11.65 L29.65 20.8 Q28.8 51.0 12.65 49.8 L14.5 53.15 -2.7 52.0 -33.0 49.15 -34.0 48.8 -34.2 48.5 -35.7 45.8 -35.7 25.8 -35.7 24.65 M11.65 -28.7 L10.3 -31.85 9.5 -32.35 11.65 -28.7 -14.35 -27.35 -15.85 -27.35 -19.5 -27.5 -25.0 -31.5 -25.35 -7.5 -0.85 -7.7 6.3 -8.2 8.3 -8.7 9.5 -9.85 10.3 -10.85 10.0 -10.2 10.65 -11.35 10.8 -11.5 11.15 -12.2 11.15 -12.7 Q13.5 -20.7 11.65 -28.7 M13.5 27.0 Q15.65 15.3 13.0 10.0 L2.65 9.5 -0.85 5.3 -25.35 5.15 -25.35 30.0 -0.35 31.5 9.0 31.8 Q11.0 31.5 12.3 29.8 L13.0 28.8 13.15 28.5 13.5 27.0" fill="#353535" fill-rule="evenodd" stroke="none"/>
    <path d="M-35.85 25.0 L-35.7 24.65 -35.7 25.8 -35.85 25.0 M-15.85 -27.35 L-14.35 -27.35 -14.2 -11.35 -15.85 -11.35 -15.85 -27.35" fill="#ffffff" fill-rule="evenodd" stroke="none"/>
    <path d="M-19.5 -27.5 L-15.85 -27.35 -15.85 -11.35 -19.5 -11.35 -19.5 -27.5" fill="#eeeeee" fill-rule="evenodd" stroke="none"/>
    <path d="M-0.85 -7.7 L-25.35 -7.5 -19.5 -11.35 -15.85 -11.35 -14.2 -11.35 2.65 -11.7 -0.85 -7.7" fill="#707070" fill-rule="evenodd" stroke="none"/>
    <path d="M-25.35 -7.5 L-25.0 -31.5 -19.5 -27.5 -19.5 -11.35 -25.35 -7.5" fill="#f6f6f6" fill-rule="evenodd" stroke="none"/>
    <path d="M23.15 -79.85 L21.8 -77.2 17.8 -77.35 10.3 -80.35 6.8 -82.85 Q6.0 -83.85 8.8 -89.0 L23.15 -79.85" fill="#8e751c" fill-rule="evenodd" stroke="none"/>
    <path d="M12.8 -54.2 L16.8 -54.0 17.3 -53.85 18.0 -53.85 Q30.5 -51.0 33.65 -33.2 35.65 -10.0 23.0 -1.5 L10.65 -0.5 20.65 -7.2 24.3 -12.0 26.0 -17.2 26.65 -21.2 27.0 -31.85 Q24.0 -52.2 10.8 -50.85 L12.8 -54.2" fill="#a2a2a2" fill-rule="evenodd" stroke="none"/>
    <path d="M33.5 -44.35 L36.15 -40.7 37.0 -38.7 38.15 -32.5 38.0 -21.35 Q37.15 -14.7 34.3 -10.2 41.0 -33.2 33.5 -44.35" fill="#e7e7e7" fill-rule="evenodd" stroke="none"/>
    <path d="M18.0 -53.85 Q26.65 -54.5 33.15 -44.85 L33.5 -44.5 33.5 -44.35 Q41.0 -33.2 34.3 -10.2 L31.8 -5.7 Q29.65 -3.2 26.65 -1.5 L23.0 -1.5 Q35.65 -10.0 33.65 -33.2 30.5 -51.0 18.0 -53.85" fill="#c0c0c0" fill-rule="evenodd" stroke="none"/>
    <path d="M11.65 -28.7 L9.5 -32.35 10.3 -31.85 11.65 -28.7" fill="#454545" fill-rule="evenodd" stroke="none"/>
    <path d="M11.15 -12.7 L11.15 -12.2 10.8 -11.5 10.65 -11.35 10.3 -10.85 9.5 -9.85 8.3 -8.7 6.3 -8.2 -0.85 -7.7 2.65 -11.7 8.5 -12.0 11.15 -12.7" fill="#646464" fill-rule="evenodd" stroke="none"/>
    <path d="M10.65 -11.35 L10.0 -10.2 10.3 -10.85 10.65 -11.35" fill="#dadada" fill-rule="evenodd" stroke="none"/>
    <path d="M26.65 -1.5 Q35.3 -0.35 38.0 9.15 41.3 18.5 39.15 31.65 L39.0 32.0 36.8 39.65 33.65 45.0 33.3 45.3 Q29.15 52.3 20.15 52.65 35.65 45.3 36.3 25.3 36.8 1.3 23.0 -1.5 L26.65 -1.5" fill="#969696" fill-rule="evenodd" stroke="none"/>
    <path d="M10.65 -0.5 L23.0 -1.5 Q36.8 1.3 36.3 25.3 35.65 45.3 20.15 52.65 L20.0 52.65 19.15 52.8 14.5 53.15 12.65 49.8 Q28.8 51.0 29.65 20.8 L28.0 11.65 Q27.3 8.8 24.65 5.8 L21.8 3.8 10.65 -0.5" fill="#7a7a7a" fill-rule="evenodd" stroke="none"/>
    <path d="M55.5 19.15 L56.8 16.5 Q58.8 13.8 60.15 14.3 L60.0 31.8 58.3 31.3 57.0 30.15 55.8 28.0 55.65 27.65 55.3 25.65 55.0 24.8 55.5 19.15" fill="#685512" fill-rule="evenodd" stroke="none"/>
    <path d="M40.3 30.0 Q45.65 21.3 55.5 19.15 L55.0 24.8 55.3 25.65 55.65 27.65 55.8 28.0 Q40.5 34.5 46.3 57.0 L38.5 60.3 36.8 53.3 36.65 41.3 36.8 39.65 39.0 32.0 39.15 31.65 40.3 30.0" fill="#705811" fill-rule="evenodd" stroke="none"/>
    <path d="M12.8 27.15 L13.5 27.0 13.15 28.5 13.0 28.8 12.3 29.8 Q11.0 31.5 9.0 31.8 L-0.35 31.5 3.0 27.15 5.15 27.15 12.8 27.15" fill="#5e5e5e" fill-rule="evenodd" stroke="none"/>
    <path d="M-14.2 26.0 L5.5 27.0 5.15 27.15 3.0 27.15 -19.0 26.0 -15.85 25.8 -14.2 26.0" fill="#f0f0f0" fill-rule="evenodd" stroke="none"/>
    <path d="M5.5 27.0 L12.8 27.15 5.15 27.15 5.5 27.0" fill="#d3d3d3" fill-rule="evenodd" stroke="none"/>
    <path d="M38.0 9.15 Q41.5 11.65 40.3 30.0 L39.15 31.65 Q41.3 18.5 38.0 9.15 M36.65 41.3 L33.65 45.0 36.8 39.65 36.65 41.3" fill="#afafaf" fill-rule="evenodd" stroke="none"/>
    <path d="M38.0 69.5 L35.5 63.8 Q34.8 62.5 38.5 60.3 L46.3 57.0 51.0 56.5 Q51.8 56.3 52.8 59.8 L38.0 69.5" fill="#a89b40" fill-rule="evenodd" stroke="none"/>
    <path d="M2.65 9.5 L-14.35 9.15 -15.85 9.15 -19.5 9.0 -19.7 9.5 -19.5 26.0 -25.35 30.0 -25.35 5.15 -0.85 5.3 2.65 9.5" fill="#727272" fill-rule="evenodd" stroke="none"/>
    <path d="M-14.35 9.15 L-14.2 26.0 -15.85 25.8 -15.85 9.15 -14.35 9.15" fill="#d0d0d0" fill-rule="evenodd" stroke="none"/>
    <path d="M-19.5 26.0 L-19.7 9.5 -19.5 9.0 -15.85 9.15 -15.85 25.8 -19.0 26.0 -19.5 26.0" fill="#acacac" fill-rule="evenodd" stroke="none"/>
    <path d="M-45.0 16.3 L-40.0 19.65 -35.85 25.0 -35.7 25.8 -35.7 45.8 -34.2 48.5 -34.0 48.8 -33.0 49.15 -33.5 50.65 -34.85 54.15 -38.2 54.0 Q-41.35 52.5 -41.2 51.5 L-40.5 47.8 Q-38.0 28.0 -46.2 24.0 L-48.5 22.65 -51.35 22.0 -52.5 20.8 -53.0 18.65 Q-53.35 13.15 -45.0 16.3" fill="#88711b" fill-rule="evenodd" stroke="none"/>
    <path d="M-0.35 31.5 L-25.35 30.0 -19.5 26.0 -19.0 26.0 3.0 27.15 -0.35 31.5" fill="#7b7b7b" fill-rule="evenodd" stroke="none"/>
    <path d="M-51.5 26.0 Q-60.5 26.5 -60.2 18.8 -61.35 11.15 -50.7 11.5 -52.35 11.5 -54.2 13.5 L-56.0 17.65 Q-57.0 23.3 -51.5 26.0" fill="#654c09" fill-rule="evenodd" stroke="none"/>
    <path d="M-47.5 12.3 L-45.85 14.0 -45.0 16.3 Q-53.35 13.15 -53.0 18.65 L-52.5 20.8 -51.35 22.0 -48.5 22.65 -46.2 24.0 -47.5 25.15 -50.7 26.15 -51.0 26.0 -51.5 26.0 Q-57.0 23.3 -56.0 17.65 L-54.2 13.5 Q-52.35 11.5 -50.7 11.5 L-47.5 12.3" fill="#ffe73d" fill-rule="evenodd" stroke="none"/>
    <path d="M-45.35 50.3 L-45.35 50.15 -44.35 48.3 -42.85 47.8 -40.5 47.8 -41.2 51.5 Q-41.35 52.5 -38.2 54.0 L-34.85 54.15 -33.5 50.65 -31.35 52.65 -31.0 53.3 -31.35 55.3 Q-37.7 58.3 -45.35 50.3" fill="#ffff85" fill-rule="evenodd" stroke="none"/>
    <path d="M-32.35 58.15 L-33.35 60.65 -34.7 61.8 -37.35 62.15 Q-41.7 61.5 -43.35 60.5 -50.7 56.8 -45.35 50.3 -37.7 58.3 -31.35 55.3 L-32.35 58.15" fill="#6f550b" fill-rule="evenodd" stroke="none"/>
  </g>
</svg>
