<?xml version="1.0" encoding="UTF-8" standalone="no"?>
<svg xmlns:ffdec="https://www.free-decompiler.com/flash" xmlns:xlink="http://www.w3.org/1999/xlink" ffdec:objectType="shape" height="241.85px" width="142.0px" xmlns="http://www.w3.org/2000/svg">
  <g transform="matrix(1.0, 0.0, 0.0, 1.0, 61.2, 121.35)">
    <path d="M-12.5 -121.35 L11.65 -118.0 29.3 -94.2 49.3 -79.7 80.8 -69.85 72.65 -21.5 72.65 20.5 80.8 69.0 49.5 78.65 29.3 93.3 12.0 117.0 -12.5 120.5 6.0 97.0 6.3 96.0 26.15 80.8 54.3 71.5 48.5 21.0 48.5 -21.7 54.3 -72.35 26.5 -81.5 6.3 -96.85 6.5 -97.2 -12.5 -121.35" fill="#ab922d" fill-rule="evenodd" stroke="none"/>
    <path d="M-12.5 120.5 L-28.2 86.5 -42.5 66.8 -61.2 52.0 -56.5 16.5 -56.5 -17.2 -61.2 -52.5 -42.85 -67.35 -27.7 -88.35 -8.85 -99.0 -23.35 -79.5 -49.85 -44.0 -49.5 13.8 -49.85 43.5 -8.7 98.5 2.65 89.65 28.15 69.5 42.8 58.0 Q46.0 56.65 45.15 54.5 L44.8 31.15 44.8 16.0 45.0 -57.35 18.65 -77.85 5.0 -88.7 2.65 -90.5 0.0 -92.7 -8.5 -99.35 -12.7 -121.0 -12.5 -121.35 6.5 -97.2 6.3 -96.85 26.5 -81.5 54.3 -72.35 48.5 -21.7 48.5 21.0 54.3 71.5 26.15 80.8 6.3 96.0 6.0 97.0 -12.5 120.5" fill="#443103" fill-rule="evenodd" stroke="none"/>
    <path d="M14.65 -77.7 L7.0 -79.85 Q4.5 -81.2 3.3 -82.85 L5.0 -88.7 18.65 -77.85 14.65 -77.7" fill="#7e6516" fill-rule="evenodd" stroke="none"/>
    <path d="M7.0 -79.85 L14.65 -77.7 Q0.8 -50.0 -13.0 -70.35 L-13.7 -71.5 Q-17.35 -76.2 -11.85 -78.2 L-8.5 -78.2 -6.35 -74.2 -4.2 -71.2 -1.85 -69.7 Q2.0 -69.7 7.0 -79.85" fill="#6c5611" fill-rule="evenodd" stroke="none"/>
    <path d="M-13.7 -71.5 L-13.0 -70.35 -34.5 -43.2 -34.5 13.15 -37.35 11.5 -39.5 11.3 Q-48.2 10.8 -48.35 17.65 -48.2 26.0 -40.7 25.5 L-40.35 25.5 -40.0 25.65 -37.5 25.5 -35.85 24.65 -35.0 25.15 -34.35 27.0 -34.2 27.3 -34.35 42.8 -32.2 45.15 -32.5 47.15 Q-35.7 47.15 -36.35 48.3 L-37.0 50.15 Q-41.2 58.3 -34.0 60.3 L-30.35 61.3 -25.7 60.8 -24.7 60.0 -23.5 56.5 2.65 89.65 -8.7 98.5 -49.85 43.5 -49.5 13.8 -49.85 -44.0 -23.35 -79.5 -20.35 -81.0 -20.7 -79.7 -18.85 -74.7 Q-19.0 -72.85 -16.7 -71.85 L-13.7 -71.5 M2.65 -90.5 L-4.85 -81.2 -6.5 -85.5 Q-7.85 -86.85 -10.7 -86.5 L0.0 -92.7 2.65 -90.5" fill="#d2c65b" fill-rule="evenodd" stroke="none"/>
    <path d="M-27.7 -88.35 L-12.7 -121.0 -8.5 -99.35 -8.85 -99.0 -27.7 -88.35" fill="#3d2b02" fill-rule="evenodd" stroke="none"/>
    <path d="M-6.35 -74.2 L-8.5 -78.2 -11.85 -78.2 Q-17.35 -76.2 -13.7 -71.5 L-16.7 -71.85 Q-19.0 -72.85 -18.85 -74.7 -15.2 -82.85 -4.35 -79.7 L-3.7 -78.0 -4.0 -76.35 -6.35 -74.2" fill="#674e0a" fill-rule="evenodd" stroke="none"/>
    <path d="M-4.85 -81.2 L-4.35 -79.7 Q-15.2 -82.85 -18.85 -74.7 L-20.7 -79.7 -20.35 -81.0 Q-19.85 -85.0 -10.7 -86.5 -7.85 -86.85 -6.5 -85.5 L-4.85 -81.2" fill="#a0892e" fill-rule="evenodd" stroke="none"/>
    <path d="M0.0 -92.7 L-10.7 -86.5 Q-19.85 -85.0 -20.35 -81.0 L-23.35 -79.5 -8.85 -99.0 -8.5 -99.35 0.0 -92.7" fill="#6c530a" fill-rule="evenodd" stroke="none"/>
    <path d="M-16.0 -27.35 L-11.85 -27.2 -11.85 -11.35 -16.0 -11.2 -16.0 -27.35" fill="#fbfbfb" fill-rule="evenodd" stroke="none"/>
    <path d="M-29.85 -46.2 L-5.7 -49.85 6.15 -51.0 Q15.15 -53.5 18.8 -33.7 L18.65 -21.85 17.0 -12.85 Q16.15 -10.0 13.8 -7.2 L6.15 -0.5 15.15 4.15 17.3 6.15 19.65 11.65 21.0 20.5 Q21.0 49.65 7.5 50.0 L10.5 53.3 -25.2 48.8 -27.2 48.5 -29.85 45.15 -30.0 44.65 -30.0 20.5 -30.2 20.0 -30.0 19.65 -29.85 -46.2 M6.3 -12.2 L7.5 -19.7 7.0 -28.5 4.65 -28.5 -9.2 -27.35 -9.2 -11.5 -11.85 -11.35 -11.85 -27.2 -16.0 -27.35 -22.0 -31.2 -21.85 -7.35 1.8 -8.0 4.8 -9.35 5.3 -10.0 6.0 -11.35 6.0 -11.5 6.3 -12.2 M1.15 9.5 L-3.0 5.3 -22.0 5.0 -22.2 29.15 -21.7 29.8 4.3 31.8 6.65 30.8 7.15 30.15 7.8 28.8 8.15 27.8 8.15 27.5 8.3 27.3 9.0 23.0 9.0 15.5 7.65 9.8 1.15 9.5" fill="#ffffff" fill-rule="evenodd" stroke="none"/>
    <path d="M-11.85 25.8 L-11.85 9.15 -9.2 9.15 -9.2 26.0 -11.85 25.8" fill="#d1d1d1" fill-rule="evenodd" stroke="none"/>
    <path d="M-35.85 24.65 L-37.5 25.5 -40.0 25.65 -40.35 25.5 -40.7 25.5 Q-46.35 22.8 -45.35 17.3 -44.35 12.3 -39.5 11.3 L-37.35 11.5 -34.5 13.15 -33.35 15.0 -32.85 17.3 Q-41.0 12.3 -41.85 17.3 L-41.5 20.5 -40.7 21.0 -40.85 21.3 -37.7 22.5 -35.85 24.65" fill="#ffe54e" fill-rule="evenodd" stroke="none"/>
    <path d="M-32.5 47.15 L-32.2 45.15 Q-31.0 33.3 -34.2 27.3 L-34.35 27.0 -35.0 25.15 -35.85 24.65 -37.7 22.5 -40.85 21.3 -40.7 21.0 -41.5 20.5 -41.85 17.3 Q-41.0 12.3 -32.85 17.3 L-30.2 20.0 -30.0 20.5 -30.0 44.65 -29.85 45.15 -27.2 48.5 -25.2 48.8 -25.2 49.3 -26.2 53.3 -29.2 53.65 Q-34.5 52.65 -32.5 47.3 L-32.5 47.15" fill="#796212" fill-rule="evenodd" stroke="none"/>
    <path d="M-37.0 50.15 L-36.35 48.3 Q-35.7 47.15 -32.5 47.15 L-32.5 47.3 Q-34.5 52.65 -29.2 53.65 L-26.2 53.3 -25.2 49.3 -22.7 51.65 -22.35 53.15 -22.85 54.15 Q-33.2 57.3 -37.0 50.15" fill="#ffff82" fill-rule="evenodd" stroke="none"/>
    <path d="M-40.7 25.5 Q-48.2 26.0 -48.35 17.65 -48.2 10.8 -39.5 11.3 -44.35 12.3 -45.35 17.3 -46.35 22.8 -40.7 25.5" fill="#5f4808" fill-rule="evenodd" stroke="none"/>
    <path d="M-23.5 56.5 L-24.7 60.0 -25.7 60.8 -30.35 61.3 -34.0 60.3 Q-41.2 58.3 -37.0 50.15 -33.2 57.3 -22.85 54.15 L-23.5 56.5" fill="#69500a" fill-rule="evenodd" stroke="none"/>
    <path d="M34.65 25.3 L37.8 22.5 41.8 20.3 41.3 22.8 41.5 25.5 41.65 25.8 41.8 26.65 42.0 27.3 42.15 27.5 42.3 28.3 42.8 29.0 43.0 29.65 Q33.65 37.3 37.65 57.5 L33.0 58.65 29.65 60.15 29.0 58.3 27.8 46.8 27.8 45.8 28.3 45.5 28.0 44.8 Q27.5 38.0 32.15 28.5 L32.65 28.5 34.65 25.3" fill="#69530f" fill-rule="evenodd" stroke="none"/>
    <path d="M41.8 20.3 L43.5 17.15 44.8 16.0 44.8 31.15 43.0 29.65 42.8 29.0 42.3 28.3 42.15 27.5 42.0 27.3 41.8 26.65 41.65 25.8 41.5 25.5 41.3 22.8 41.8 20.3" fill="#58430b" fill-rule="evenodd" stroke="none"/>
    <path d="M28.0 44.8 L28.3 45.5 27.8 45.8 27.8 46.8 27.5 47.0 24.65 49.3 28.0 44.8" fill="#ababab" fill-rule="evenodd" stroke="none"/>
    <path d="M8.15 27.5 L2.65 27.15 5.3 27.0 8.3 27.3 8.15 27.5" fill="#d3d3d3" fill-rule="evenodd" stroke="none"/>
    <path d="M29.65 60.15 L33.0 58.65 37.65 57.5 41.5 57.3 42.8 58.0 28.15 69.5 26.15 63.5 Q25.8 62.5 29.65 60.15" fill="#a19341" fill-rule="evenodd" stroke="none"/>
    <path d="M14.15 53.15 Q26.3 48.5 27.8 27.65 28.0 0.15 17.3 -1.5 27.5 -10.7 25.5 -35.2 21.45 -52.35 14.65 -54.0 L19.0 -53.5 Q21.65 -52.7 23.5 -50.2 L23.8 -50.0 Q30.15 -47.7 32.5 -33.7 34.15 -13.0 25.8 -5.7 L21.8 -1.5 25.3 0.0 Q27.5 1.3 28.8 3.8 L31.8 7.3 32.65 9.15 34.5 17.0 34.65 25.3 32.65 28.5 32.15 28.5 Q27.5 38.0 28.0 44.8 L24.65 49.3 Q23.15 51.3 20.15 52.5 L14.15 53.15 M-21.85 -7.35 L-22.0 -31.2 -16.0 -27.35 -16.0 -11.2 -21.85 -7.35 M-11.85 25.8 L-16.0 26.0 -16.2 9.15 -11.85 9.15 -11.85 25.8" fill="#cccccc" fill-rule="evenodd" stroke="none"/>
    <path d="M-29.85 -46.2 L-27.2 -49.5 -3.0 -53.0 9.15 -54.35 12.15 -54.35 12.8 -54.2 13.15 -54.2 14.65 -54.0 Q21.45 -52.35 25.5 -35.2 27.5 -10.7 17.3 -1.5 28.0 0.15 27.8 27.65 26.3 48.5 14.15 53.15 L14.0 53.15 13.15 53.3 10.5 53.3 7.5 50.0 Q21.0 49.65 21.0 20.5 L19.65 11.65 17.3 6.15 15.15 4.15 6.15 -0.5 13.8 -7.2 Q16.15 -10.0 17.0 -12.85 L18.65 -21.85 18.8 -33.7 Q15.15 -53.5 6.15 -51.0 L-5.7 -49.85 -29.85 -46.2 M6.3 -12.2 L6.0 -11.5 6.0 -11.35 5.3 -10.0 4.8 -9.35 1.8 -8.0 -21.85 -7.35 -16.0 -11.2 -11.85 -11.35 -9.2 -11.5 6.3 -12.2 M-11.85 9.15 L-16.2 9.15 -16.0 26.0 -11.85 25.8 -9.2 26.0 5.3 27.0 2.65 27.15 8.15 27.5 8.15 27.8 7.8 28.8 7.15 30.15 6.65 30.8 4.3 31.8 -21.7 29.8 -22.2 29.15 -22.0 5.0 -3.0 5.3 1.15 9.5 -9.2 9.15 -11.85 9.15" fill="#999999" fill-rule="evenodd" stroke="none"/>
  </g>
</svg>
