<?xml version="1.0" encoding="UTF-8" standalone="no"?>
<svg xmlns:ffdec="https://www.free-decompiler.com/flash" xmlns:xlink="http://www.w3.org/1999/xlink" ffdec:objectType="shape" height="240.85px" width="109.15px" xmlns="http://www.w3.org/2000/svg">
  <g transform="matrix(1.0, 0.0, 0.0, 1.0, 45.85, 120.85)">
    <path d="M-13.85 119.65 L-23.85 85.3 -33.35 65.65 -45.85 51.0 -42.35 16.15 -42.35 -17.0 -45.85 -51.35 -45.35 -52.5 -33.35 -66.5 -23.35 -87.7 -13.85 -120.35 -13.35 -119.85 -0.35 -96.7 13.0 -82.35 31.8 -73.35 28.3 -24.35 28.65 -22.5 28.3 23.15 31.8 72.15 31.65 72.65 12.8 81.5 -0.35 95.8 -12.5 118.0 -13.85 119.65 M9.3 -78.2 L0.65 -87.85 -1.7 -90.5 -9.35 -99.0 -19.35 -78.85 -37.0 -43.0 -36.85 43.15 -28.35 59.5 -28.2 60.65 -9.5 98.15 -9.0 98.15 -8.7 97.15 2.65 84.65 16.5 69.0 26.3 58.15 27.15 57.15 27.65 45.65 27.3 39.15 27.3 29.5 27.65 19.5 27.3 18.5 27.5 -57.7 10.8 -76.35 9.3 -78.2" fill="#3d2b02" fill-rule="evenodd" stroke="none"/>
    <path d="M-13.85 -120.35 L-12.5 -120.85 13.3 -118.5 25.15 -95.35 40.0 -80.7 63.3 -71.7 56.8 -22.7 56.8 21.5 63.3 70.65 40.15 79.65 25.15 94.5 13.5 117.5 -12.0 120.0 -13.85 119.65 -12.5 118.0 -0.35 95.8 12.8 81.5 31.65 72.65 31.8 72.15 28.3 23.15 28.65 -22.5 28.3 -24.35 31.8 -73.35 13.0 -82.35 -0.35 -96.7 -13.35 -119.85 -13.85 -120.35" fill="#a3882e" fill-rule="evenodd" stroke="none"/>
    <path d="M-19.35 -78.85 L-9.35 -99.0 -1.7 -90.5 -7.85 -86.35 Q-16.5 -85.0 -16.5 -80.5 L-19.35 -78.85" fill="#684f0a" fill-rule="evenodd" stroke="none"/>
    <path d="M0.65 -87.85 L-0.35 -83.85 -0.35 -82.0 0.3 -81.2 -0.7 -79.7 Q-0.85 -87.2 -7.85 -86.35 L-1.7 -90.5 0.65 -87.85 M2.65 84.65 L-8.7 97.15 -9.0 98.15 -9.5 98.15 -28.2 60.65 -28.35 59.5 -36.85 43.15 -37.0 -43.0 -19.35 -78.85 -16.5 -80.5 -16.7 -79.35 -15.7 -75.5 Q-15.85 -71.7 -10.7 -71.35 L-8.0 -65.85 -16.7 -49.85 -19.85 -49.0 -23.0 -45.85 -23.35 12.0 -27.0 11.15 -28.3 11.25 Q-35.2 11.95 -35.5 17.15 -33.7 26.15 -29.35 25.0 L-25.2 25.15 -23.35 30.3 -23.2 32.8 -23.2 44.8 -23.2 45.0 -23.35 46.8 Q-27.85 47.3 -27.7 50.3 L-28.85 56.15 Q-27.2 59.5 -23.0 60.5 L-17.35 60.65 -15.35 59.65 -14.35 58.15 -13.5 55.15 2.65 84.65" fill="#cdc25c" fill-rule="evenodd" stroke="none"/>
    <path d="M-15.7 -75.5 L-16.7 -79.35 -16.5 -80.5 Q-16.5 -85.0 -7.85 -86.35 -0.85 -87.2 -0.7 -79.7 L-0.5 -78.7 Q-9.35 -84.0 -15.7 -75.5" fill="#a79334" fill-rule="evenodd" stroke="none"/>
    <path d="M-15.7 -75.5 Q-9.35 -84.0 -0.5 -78.7 L-0.35 -75.85 Q-1.7 -73.5 -3.0 -73.2 L-4.7 -77.5 Q-6.5 -78.7 -9.0 -77.85 -12.0 -76.2 -11.7 -75.2 L-10.7 -71.35 Q-15.85 -71.7 -15.7 -75.5" fill="#634b09" fill-rule="evenodd" stroke="none"/>
    <path d="M0.65 -87.85 L9.3 -78.2 3.3 -79.5 0.3 -81.2 -0.35 -82.0 -0.35 -83.85 0.65 -87.85" fill="#67520e" fill-rule="evenodd" stroke="none"/>
    <path d="M3.3 -79.5 L9.3 -78.2 10.8 -76.35 Q1.8 -53.7 -8.0 -65.85 L-10.7 -71.35 -11.7 -75.2 Q-12.0 -76.2 -9.0 -77.85 -6.5 -78.7 -4.7 -77.5 L-3.0 -73.2 -1.7 -70.35 -1.2 -70.2 0.5 -72.2 3.3 -79.5" fill="#6f5a15" fill-rule="evenodd" stroke="none"/>
    <path d="M-3.35 -52.85 L-6.7 -49.85 -23.0 -45.85 -19.85 -49.0 -16.7 -49.85 -3.35 -52.85" fill="#404040" fill-rule="evenodd" stroke="none"/>
    <path d="M4.8 -54.5 L1.3 -51.2 -6.7 -49.85 -3.35 -52.85 4.8 -54.5" fill="#464646" fill-rule="evenodd" stroke="none"/>
    <path d="M-12.35 -27.2 L-3.85 -27.5 -3.85 -11.7 -12.2 -11.2 -12.35 -27.2" fill="#ffffff" fill-rule="evenodd" stroke="none"/>
    <path d="M1.3 -51.2 Q7.65 -52.35 9.8 -34.2 11.8 -9.0 1.0 -0.5 12.15 4.0 11.3 20.3 11.8 48.3 2.15 50.15 L5.8 53.5 -14.5 49.3 -16.35 48.8 -20.0 47.8 -21.85 46.0 -22.2 45.8 -23.2 44.8 -23.2 32.8 -23.2 30.0 -23.2 16.0 -23.35 15.8 -23.2 12.15 -23.35 12.0 -23.0 -45.85 -6.7 -49.85 1.3 -51.2 M1.15 -11.85 L2.0 -16.2 1.65 -28.2 -3.85 -27.5 -12.35 -27.2 -18.0 -31.0 -18.2 -8.35 -17.7 -7.35 -5.0 -7.7 -2.0 -8.0 Q-1.15 -8.4 -0.35 -8.85 L0.15 -9.35 0.5 -10.0 1.0 -11.2 1.15 -11.85 M-0.35 9.5 L-5.0 5.3 -18.0 5.0 -18.0 29.5 -4.85 31.5 0.15 31.8 1.3 30.8 1.8 30.15 2.65 27.3 2.65 27.15 3.15 15.3 2.15 9.65 -0.35 9.5" fill="#353535" fill-rule="evenodd" stroke="none"/>
    <path d="M-17.7 -7.35 L-18.2 -8.35 -18.0 -31.0 -12.35 -27.2 -12.2 -11.2 -17.7 -7.35" fill="#949494" fill-rule="evenodd" stroke="none"/>
    <path d="M-5.0 -7.7 L-17.7 -7.35 -12.2 -11.2 -3.85 -11.7 -0.5 -11.7 -5.0 -7.7" fill="#4e4e4e" fill-rule="evenodd" stroke="none"/>
    <path d="M1.15 -11.85 L1.0 -11.2 0.5 -10.0 0.15 -9.35 -0.35 -8.85 Q-1.15 -8.4 -2.0 -8.0 L-5.0 -7.7 -0.5 -11.7 1.15 -11.85" fill="#474747" fill-rule="evenodd" stroke="none"/>
    <path d="M1.3 -51.2 L4.8 -54.5 7.3 -54.5 Q13.65 -53.85 16.5 -35.35 17.3 -7.0 10.8 -1.5 L1.0 -0.5 Q11.8 -9.0 9.8 -34.2 7.65 -52.35 1.3 -51.2" fill="#6b6b6b" fill-rule="evenodd" stroke="none"/>
    <path d="M7.3 -54.5 L12.3 -54.35 Q14.8 -53.85 15.8 -52.35 L16.15 -52.0 Q22.5 -46.2 22.0 -23.2 L20.3 -10.35 Q17.5 -1.85 15.8 -1.5 L10.8 -1.5 Q17.3 -7.0 16.5 -35.35 13.65 -53.85 7.3 -54.5" fill="#bababa" fill-rule="evenodd" stroke="none"/>
    <path d="M1.0 -0.5 L10.8 -1.5 Q18.5 0.8 18.0 28.15 15.5 52.8 8.15 53.5 L5.8 53.5 2.15 50.15 Q11.8 48.3 11.3 20.3 12.15 4.0 1.0 -0.5 M-18.0 29.5 L-18.0 5.0 -5.0 5.3 -0.35 9.5 -3.85 9.3 -7.5 9.15 -12.35 9.15 -12.2 25.8 -18.0 29.5" fill="#565656" fill-rule="evenodd" stroke="none"/>
    <path d="M16.15 -52.0 Q24.5 -49.85 25.5 -32.5 27.15 -8.85 16.8 -1.2 L15.8 -1.5 Q17.5 -1.85 20.3 -10.35 L22.0 -23.2 Q22.5 -46.2 16.15 -52.0" fill="#c8c8c8" fill-rule="evenodd" stroke="none"/>
    <path d="M16.8 -1.2 L19.5 1.3 19.8 1.65 20.0 1.8 21.15 4.5 22.3 9.65 23.65 24.65 Q16.8 35.3 17.8 50.0 L17.0 51.0 17.0 51.15 Q14.5 53.3 13.15 53.3 L8.15 53.5 Q15.5 52.8 18.0 28.15 18.5 0.8 10.8 -1.5 L15.8 -1.5 16.8 -1.2" fill="#939393" fill-rule="evenodd" stroke="none"/>
    <path d="M20.0 1.8 L24.3 6.0 25.65 9.8 26.8 18.65 25.5 23.0 23.65 24.65 22.3 9.65 21.15 4.5 20.0 1.8 M17.0 51.0 L17.8 50.0 17.8 50.5 17.0 51.0" fill="#c6c6c6" fill-rule="evenodd" stroke="none"/>
    <path d="M27.3 18.5 L27.65 19.5 27.3 29.5 27.0 29.3 26.8 29.0 26.15 27.5 25.65 25.65 25.5 23.0 26.8 18.65 27.3 18.5" fill="#412e02" fill-rule="evenodd" stroke="none"/>
    <path d="M27.3 29.5 L27.3 39.15 26.65 45.3 26.65 51.65 27.15 57.15 26.3 58.15 20.8 59.15 19.0 60.0 17.8 50.5 17.8 50.0 Q16.8 35.3 23.65 24.65 L25.5 23.0 25.65 25.65 26.15 27.5 26.8 29.0 27.0 29.3 27.3 29.5" fill="#755d12" fill-rule="evenodd" stroke="none"/>
    <path d="M2.65 27.3 L1.8 30.15 1.3 30.8 0.15 31.8 -4.85 31.5 -0.2 27.15 2.65 27.3" fill="#525252" fill-rule="evenodd" stroke="none"/>
    <path d="M2.65 27.15 L2.65 27.3 -0.2 27.15 -12.2 25.8 -7.35 25.65 -3.85 26.0 2.65 27.15" fill="#f2f2f2" fill-rule="evenodd" stroke="none"/>
    <path d="M26.3 58.15 L16.5 69.0 15.3 63.15 Q15.8 61.3 19.0 60.0 L20.8 59.15 26.3 58.15" fill="#806b1c" fill-rule="evenodd" stroke="none"/>
    <path d="M-12.2 25.8 L-12.35 9.15 -7.5 9.15 -7.35 25.65 -12.2 25.8" fill="#aeaeae" fill-rule="evenodd" stroke="none"/>
    <path d="M-7.5 9.15 L-3.85 9.3 -3.85 26.0 -7.35 25.65 -7.5 9.15" fill="#cbcbcb" fill-rule="evenodd" stroke="none"/>
    <path d="M-28.3 11.25 L-27.0 11.15 -23.35 12.0 -23.2 12.15 -23.35 15.8 Q-29.85 13.15 -29.85 17.65 L-29.35 20.15 Q-25.85 21.5 -25.2 25.15 L-29.35 25.0 Q-34.0 23.0 -33.35 16.8 L-31.0 12.65 Q-29.65 11.55 -28.3 11.25" fill="#fff166" fill-rule="evenodd" stroke="none"/>
    <path d="M-28.3 11.25 Q-29.65 11.55 -31.0 12.65 L-33.35 16.8 Q-34.0 23.0 -29.35 25.0 -33.7 26.15 -35.5 17.15 -35.2 11.95 -28.3 11.25" fill="#5a4307" fill-rule="evenodd" stroke="none"/>
    <path d="M-25.2 25.15 Q-25.85 21.5 -29.35 20.15 L-29.85 17.65 Q-29.85 13.15 -23.35 15.8 L-23.2 16.0 -23.2 30.0 -23.35 30.3 -25.2 25.15 M-22.2 45.8 L-21.85 46.0 -20.0 47.8 -16.35 48.8 -17.0 52.65 -18.0 53.15 -20.7 53.15 -23.5 51.5 Q-24.35 50.8 -23.35 46.8 L-23.2 45.0 -22.2 45.8" fill="#735c0e" fill-rule="evenodd" stroke="none"/>
    <path d="M-23.2 30.0 L-23.2 32.8 -23.35 30.3 -23.2 30.0 M-23.2 44.8 L-22.2 45.8 -23.2 45.0 -23.2 44.8" fill="#f3f3f3" fill-rule="evenodd" stroke="none"/>
    <path d="M-4.85 31.5 L-18.0 29.5 -12.2 25.8 -0.2 27.15 -4.85 31.5" fill="#5b5b5b" fill-rule="evenodd" stroke="none"/>
    <path d="M-16.35 48.8 L-14.5 49.3 -13.2 51.15 -13.5 53.3 Q-21.2 58.0 -27.7 50.3 -27.85 47.3 -23.35 46.8 -24.35 50.8 -23.5 51.5 L-20.7 53.15 -18.0 53.15 -17.0 52.65 -16.35 48.8" fill="#ffff73" fill-rule="evenodd" stroke="none"/>
    <path d="M-13.5 53.3 L-13.5 55.15 -14.35 58.15 -15.35 59.65 -17.35 60.65 -23.0 60.5 Q-27.2 59.5 -28.85 56.15 L-27.7 50.3 Q-21.2 58.0 -13.5 53.3" fill="#70550b" fill-rule="evenodd" stroke="none"/>
  </g>
</svg>
