<?xml version="1.0" encoding="UTF-8" standalone="no"?>
<svg xmlns:ffdec="https://www.free-decompiler.com/flash" xmlns:xlink="http://www.w3.org/1999/xlink" ffdec:objectType="shape" height="239.7px" width="71.3px" xmlns="http://www.w3.org/2000/svg">
  <g transform="matrix(1.0, 0.0, 0.0, 1.0, 42.5, 120.2)">
    <path d="M13.65 -120.2 L13.3 -118.35 13.15 -117.85 13.15 -117.7 6.8 -97.0 0.3 -82.5 -7.85 -74.0 -7.5 -61.7 -7.35 -57.7 -7.0 32.3 -7.35 56.65 -7.5 59.8 -7.5 60.8 -7.85 73.15 -0.7 80.5 0.8 82.65 6.8 96.3 13.65 119.5 -14.85 118.3 -20.7 95.3 -28.5 81.3 -42.5 72.3 -38.2 22.5 -38.2 -23.35 -42.5 -72.7 -42.2 -73.35 -29.2 -81.5 -20.7 -96.2 13.65 -120.2" fill="#644d0a" fill-rule="evenodd" stroke="none"/>
    <path d="M0.15 -78.2 L0.3 -76.85 1.65 -77.5 4.3 -77.7 6.5 -76.85 7.3 -76.0 6.8 -71.35 Q5.3 -62.2 -0.2 -61.85 L-3.0 -62.85 -5.2 -65.85 -5.2 -66.0 -2.7 -71.5 -1.85 -74.5 0.15 -78.2" fill="#c0af4f" fill-rule="evenodd" stroke="none"/>
    <path d="M9.0 -98.5 L9.0 -98.0 3.5 -86.0 3.5 -85.7 0.65 -79.5 0.15 -78.2 -1.85 -74.5 -2.7 -71.5 -5.2 -66.0 -5.2 -65.85 -7.5 -61.7 -7.85 -74.0 0.3 -82.5 6.8 -97.0 9.0 -98.5" fill="#e5e254" fill-rule="evenodd" stroke="none"/>
    <path d="M2.0 -53.35 L2.15 -53.2 5.15 -51.35 6.8 -50.7 9.0 -48.85 9.15 -48.85 9.5 -48.5 10.3 -48.0 Q11.65 -48.2 13.0 -45.35 L15.0 -35.5 Q16.65 -8.0 11.65 -0.5 L14.5 4.15 15.5 11.15 15.65 11.8 15.8 16.15 16.0 16.5 15.8 19.8 15.8 24.3 15.65 24.8 15.0 37.15 13.0 44.65 12.5 45.8 9.15 47.8 8.65 48.0 8.65 48.15 -0.85 51.8 -6.2 56.0 -7.35 56.65 -7.0 32.3 -7.35 -57.7 -6.2 -57.2 -5.85 -57.0 2.0 -53.35 M2.5 -28.35 L2.5 -26.85 2.3 -12.35 2.3 -11.7 4.15 -11.5 5.3 -11.5 6.0 -11.7 6.15 -12.35 6.65 -23.85 6.15 -26.85 11.5 -30.5 10.8 -31.5 9.15 -32.0 2.5 -34.0 2.5 -28.35 M6.65 9.5 L11.5 5.65 10.8 5.15 9.15 5.15 2.5 5.5 2.5 9.5 2.3 26.8 3.65 26.5 4.15 26.5 6.8 25.15 7.15 13.8 6.65 9.5" fill="#ffffff" fill-rule="evenodd" stroke="none"/>
    <path d="M-20.7 -96.2 L-14.85 -119.2 13.65 -120.2 -20.7 -96.2" fill="#937312" fill-rule="evenodd" stroke="none"/>
    <path d="M13.65 -120.2 L14.15 -119.0 17.65 -87.35 22.3 -66.0 28.8 -51.35 26.65 -18.2 26.65 17.0 28.8 50.0 22.3 65.15 17.5 87.65 14.15 118.15 13.65 119.5 6.8 96.3 0.8 82.65 -0.7 80.5 -7.85 73.15 -7.5 60.8 -4.35 67.15 -3.0 70.0 -3.0 70.3 8.8 97.15 9.3 97.0 22.3 41.15 22.15 -44.2 9.0 -98.0 9.0 -98.5 13.15 -117.7 13.15 -117.85 13.3 -118.35 13.65 -120.2" fill="#f9f352" fill-rule="evenodd" stroke="none"/>
    <path d="M13.15 -117.7 L9.0 -98.5 6.8 -97.0 13.15 -117.7" fill="#ffff5d" fill-rule="evenodd" stroke="none"/>
    <path d="M3.0 -80.5 L4.0 -81.85 3.5 -85.7 3.5 -86.0 8.5 -85.0 11.3 -82.7 12.0 -80.85 11.3 -75.5 Q9.15 -79.5 7.5 -79.7 L3.0 -80.5" fill="#ead465" fill-rule="evenodd" stroke="none"/>
    <path d="M3.5 -85.7 L4.0 -81.85 3.0 -80.5 0.65 -79.5 3.5 -85.7" fill="#e3d068" fill-rule="evenodd" stroke="none"/>
    <path d="M3.0 -80.5 L7.5 -79.7 Q9.15 -79.5 11.3 -75.5 10.8 -72.85 9.5 -72.2 L6.8 -71.35 7.3 -76.0 6.5 -76.85 4.3 -77.7 1.65 -77.5 0.3 -76.85 0.15 -78.2 0.65 -79.5 3.0 -80.5" fill="#463304" fill-rule="evenodd" stroke="none"/>
    <path d="M9.0 -98.0 L22.15 -44.2 22.3 41.15 9.3 97.0 8.8 97.15 -3.0 70.3 -3.0 70.0 2.5 52.3 2.65 52.5 Q2.5 62.15 12.3 60.15 16.3 59.0 17.5 57.0 L17.15 50.65 16.8 48.65 15.8 47.65 13.0 46.65 13.0 44.65 15.0 37.15 15.65 24.8 Q22.3 22.0 21.0 16.5 20.5 14.0 18.65 12.5 L15.5 11.15 14.5 4.15 11.65 -0.5 Q16.65 -8.0 15.0 -35.5 L13.0 -45.35 Q11.65 -48.2 10.3 -48.0 L9.5 -48.5 9.15 -48.85 9.0 -48.85 6.8 -50.7 5.15 -51.35 2.15 -53.2 2.0 -53.35 -0.2 -61.85 Q5.3 -62.2 6.8 -71.35 L9.5 -72.2 Q10.8 -72.85 11.3 -75.5 L12.0 -80.85 11.3 -82.7 8.5 -85.0 3.5 -86.0 9.0 -98.0" fill="#ac911f" fill-rule="evenodd" stroke="none"/>
    <path d="M2.5 -26.85 L2.5 -28.35 3.8 -27.85 6.15 -26.85 2.5 -26.85 M4.3 9.15 L6.65 9.5 2.5 9.5 4.3 9.15 M8.65 48.15 L5.8 49.8 2.5 52.0 2.15 52.15 -6.2 56.0 -0.85 51.8 8.65 48.15" fill="#353535" fill-rule="evenodd" stroke="none"/>
    <path d="M6.15 -26.85 L6.65 -23.85 6.15 -12.35 2.3 -12.35 2.5 -26.85 6.15 -26.85" fill="#848484" fill-rule="evenodd" stroke="none"/>
    <path d="M9.15 -32.0 L10.8 -31.5 11.5 -30.5 6.15 -26.85 3.8 -27.85 6.5 -29.5 9.15 -32.0" fill="#4c4c4c" fill-rule="evenodd" stroke="none"/>
    <path d="M2.5 -28.35 L2.5 -34.0 9.15 -32.0 6.5 -29.5 3.8 -27.85 2.5 -28.35" fill="#484848" fill-rule="evenodd" stroke="none"/>
    <path d="M6.15 -12.35 L6.0 -11.7 5.3 -11.5 4.15 -11.5 2.3 -11.7 2.3 -12.35 6.15 -12.35" fill="#d9d9d9" fill-rule="evenodd" stroke="none"/>
    <path d="M9.15 5.15 L10.8 5.15 11.5 5.65 6.65 9.5 4.3 9.15 9.15 5.15" fill="#3b3b3b" fill-rule="evenodd" stroke="none"/>
    <path d="M15.5 11.15 L18.65 12.5 Q20.5 14.0 21.0 16.5 22.3 22.0 15.65 24.8 L15.8 24.3 Q17.65 24.0 19.3 21.5 L20.0 19.0 Q20.15 13.5 15.65 11.8 L15.5 11.15" fill="#c4b526" fill-rule="evenodd" stroke="none"/>
    <path d="M2.5 9.5 L2.5 5.5 9.15 5.15 4.3 9.15 2.5 9.5" fill="#363636" fill-rule="evenodd" stroke="none"/>
    <path d="M6.65 9.5 L7.15 13.8 6.8 25.15 4.15 26.5 3.65 26.5 2.3 26.8 2.5 9.5 6.65 9.5" fill="#a5a5a5" fill-rule="evenodd" stroke="none"/>
    <path d="M15.65 11.8 Q20.15 13.5 20.0 19.0 L19.3 21.5 Q17.65 24.0 15.8 24.3 L15.8 19.8 16.3 19.0 16.0 16.5 15.8 16.15 15.65 11.8" fill="#ad8918" fill-rule="evenodd" stroke="none"/>
    <path d="M13.0 44.65 L13.0 46.65 13.3 51.0 11.8 52.65 Q5.3 53.3 5.8 49.8 L8.65 48.15 8.65 48.0 9.15 47.8 12.5 45.8 13.0 44.65 M16.0 16.5 L16.3 19.0 15.8 19.8 16.0 16.5" fill="#b2941d" fill-rule="evenodd" stroke="none"/>
    <path d="M13.0 46.65 L15.8 47.65 16.8 48.65 17.15 50.65 Q16.0 53.3 13.5 54.0 L9.5 54.8 5.15 54.15 2.65 52.5 2.5 52.0 5.8 49.8 Q5.3 53.3 11.8 52.65 L13.3 51.0 13.0 46.65" fill="#ffe840" fill-rule="evenodd" stroke="none"/>
    <path d="M17.15 50.65 L17.5 57.0 Q16.3 59.0 12.3 60.15 2.5 62.15 2.65 52.5 L5.15 54.15 9.5 54.8 13.5 54.0 Q16.0 53.3 17.15 50.65" fill="#7c610e" fill-rule="evenodd" stroke="none"/>
    <path d="M2.65 52.5 L2.5 52.3 2.15 52.15 2.5 52.0 2.65 52.5" fill="#bea01d" fill-rule="evenodd" stroke="none"/>
    <path d="M-4.35 67.15 L-7.5 60.8 -7.5 59.8 Q-2.5 59.65 -4.35 67.15" fill="#f1dd46" fill-rule="evenodd" stroke="none"/>
  </g>
</svg>
