<?xml version="1.0" encoding="UTF-8" standalone="no"?>
<svg xmlns:ffdec="https://www.free-decompiler.com/flash" xmlns:xlink="http://www.w3.org/1999/xlink" ffdec:objectType="shape" height="242.15px" width="142.0px" xmlns="http://www.w3.org/2000/svg">
  <g transform="matrix(1.0, 0.0, 0.0, 1.0, 81.5, 121.5)">
    <path d="M-7.35 -97.0 L7.8 -99.35 11.8 -121.35 26.65 -88.85 41.8 -67.7 60.5 -52.85 55.8 -17.7 55.8 16.65 60.5 52.0 42.15 66.5 27.65 86.3 11.65 120.65 -7.7 95.65 -26.85 81.15 -55.2 71.5 -49.35 18.0 -49.5 -22.85 -55.35 -72.2 -27.2 -81.7 -7.35 -97.0 M-3.5 -90.5 L-5.7 -88.7 -19.35 -78.0 -45.85 -57.2 -45.7 15.8 -45.7 31.5 -45.85 56.5 -43.35 58.15 -28.85 69.65 -3.5 89.65 7.8 98.5 48.3 44.3 49.0 42.65 48.65 14.5 49.0 13.3 48.8 -44.7 36.15 -60.85 36.0 -61.7 7.8 -99.2 -3.5 -90.5" fill="#f1dd53" fill-rule="evenodd" stroke="none"/>
    <path d="M-5.7 -88.7 L-3.85 -83.0 Q-3.7 -82.2 -7.35 -80.0 L-15.0 -77.7 -17.35 -77.5 -19.35 -78.0 -5.7 -88.7" fill="#a28c38" fill-rule="evenodd" stroke="none"/>
    <path d="M5.65 -74.2 L7.5 -77.35 8.15 -77.85 11.0 -78.0 Q14.65 -77.0 14.8 -75.0 L13.15 -71.5 12.5 -70.2 Q-1.85 -50.2 -15.0 -77.7 L-7.35 -80.0 Q-0.85 -63.35 5.65 -74.2" fill="#b39f3f" fill-rule="evenodd" stroke="none"/>
    <path d="M-19.5 51.65 L7.8 48.5 20.3 46.3 15.3 49.5 2.5 51.8 -25.7 55.8 -19.5 51.65" fill="#353535" fill-rule="evenodd" stroke="none"/>
    <path d="M11.0 -120.85 L-7.35 -97.0 -27.2 -81.7 -55.35 -72.2 -49.5 -22.85 -49.35 18.0 -55.2 71.5 -26.85 81.15 -7.7 95.65 11.65 120.65 -12.7 117.15 -29.85 93.65 -50.35 78.65 -81.5 69.0 -73.2 19.8 -73.35 -21.35 -81.5 -69.85 -50.5 -79.35 -29.85 -94.7 11.0 -120.85" fill="#4d3a05" fill-rule="evenodd" stroke="none"/>
    <path d="M-26.0 -56.85 L2.5 -53.0 3.0 -52.85 14.15 -50.85 18.65 -47.7 21.15 -46.7 Q28.65 -43.2 29.5 -27.85 31.0 -7.5 20.3 -1.7 L20.15 -1.5 23.0 0.0 26.5 3.65 Q30.15 5.3 31.0 18.15 31.8 37.5 23.8 44.65 L22.15 45.5 20.3 46.3 7.8 48.5 -19.5 51.65 -19.5 -52.7 -26.0 -56.85 M17.65 -31.0 L14.8 -31.85 -9.5 -34.0 -9.5 -28.7 -9.5 -12.0 6.3 -11.5 10.8 -11.7 12.8 -12.5 18.0 -8.85 Q19.3 -9.85 19.8 -14.35 L20.0 -24.0 19.5 -28.5 17.65 -31.0 M18.65 5.8 L17.5 5.3 -9.5 5.5 -9.5 9.65 -9.5 27.15 -9.5 27.65 6.15 26.5 11.0 30.65 Q21.3 30.65 21.0 26.0 22.5 9.0 18.65 5.8" fill="#ffffff" fill-rule="evenodd" stroke="none"/>
    <path d="M11.3 -121.5 L11.3 -121.35 11.0 -120.85 -29.85 -94.7 -12.85 -117.85 11.3 -121.5" fill="#69500a" fill-rule="evenodd" stroke="none"/>
    <path d="M11.8 -121.35 L7.8 -99.35 -7.35 -97.0 11.0 -120.85 11.3 -121.35 11.3 -121.5 11.8 -121.35" fill="#ffffbd" fill-rule="evenodd" stroke="none"/>
    <path d="M18.15 -74.5 Q12.65 -83.7 3.65 -79.7 L4.15 -81.0 Q4.0 -88.35 14.5 -85.7 23.0 -83.0 18.15 -74.5" fill="#bfae44" fill-rule="evenodd" stroke="none"/>
    <path d="M5.65 -74.2 L3.5 -76.35 3.15 -77.35 3.65 -79.7 Q12.65 -83.7 18.15 -74.5 L17.8 -73.0 16.5 -72.0 13.15 -71.5 14.8 -75.0 Q14.65 -77.0 11.0 -78.0 L8.15 -77.85 7.5 -77.35 5.65 -74.2" fill="#3d2b02" fill-rule="evenodd" stroke="none"/>
    <path d="M13.15 -71.5 L16.5 -72.0 17.8 -73.0 18.15 -74.5 Q23.0 -83.0 14.5 -85.7 4.0 -88.35 4.15 -81.0 L-3.5 -90.5 7.8 -99.2 36.0 -61.7 36.15 -60.85 48.8 -44.7 49.0 13.3 48.65 14.5 49.0 42.65 48.3 44.3 7.8 98.5 -3.5 89.65 22.8 56.5 Q25.5 64.15 34.8 59.5 40.3 57.15 36.3 50.15 L36.0 48.5 34.5 47.5 31.65 47.15 31.3 45.15 33.65 42.3 33.3 27.5 35.15 24.65 36.3 25.3 39.0 25.65 Q48.8 25.15 47.8 17.15 45.3 11.15 43.5 11.5 L38.8 11.3 35.8 11.8 34.5 12.65 33.5 13.8 33.5 -43.7 12.5 -70.2 13.15 -71.5" fill="#8e7215" fill-rule="evenodd" stroke="none"/>
    <path d="M14.15 -50.85 L16.0 -50.35 21.15 -46.7 18.65 -47.7 14.15 -50.85" fill="#ebebeb" fill-rule="evenodd" stroke="none"/>
    <path d="M-26.0 -56.85 L-19.5 -52.7 -19.5 51.65 -25.7 55.8 -26.0 56.0 -26.2 55.8 -26.0 -56.85 M6.3 -11.5 L7.15 -11.7 8.5 -12.35 12.8 -12.5 Q15.65 -23.0 12.65 -27.0 L17.65 -31.0 19.5 -28.5 20.0 -24.0 19.8 -14.35 Q19.3 -9.85 18.0 -8.85 L12.8 -12.5 10.8 -11.7 6.3 -11.5 M6.15 26.5 L13.3 25.8 14.8 24.15 Q17.0 15.0 13.8 9.5 L18.65 5.8 Q22.5 9.0 21.0 26.0 21.3 30.65 11.0 30.65 L6.15 26.5" fill="#cccccc" fill-rule="evenodd" stroke="none"/>
    <path d="M32.15 17.15 L33.5 13.8 34.5 12.65 35.8 11.8 38.8 11.3 Q41.15 11.5 42.8 13.5 L44.5 17.3 Q45.5 23.5 39.0 25.65 L36.3 25.3 35.15 24.65 36.15 23.15 Q41.0 21.3 41.15 20.0 L41.0 16.5 Q38.65 12.8 32.15 17.15" fill="#7e620e" fill-rule="evenodd" stroke="none"/>
    <path d="M31.0 18.15 L32.15 17.65 32.15 17.15 Q38.65 12.8 41.0 16.5 L41.15 20.0 Q41.0 21.3 36.15 23.15 L35.15 24.65 33.3 27.5 Q31.3 30.65 31.15 37.0 L31.3 45.15 31.65 47.15 32.15 51.65 Q31.0 53.3 29.0 53.65 L27.15 53.8 25.5 53.15 24.5 49.5 23.8 44.65 Q31.8 37.5 31.0 18.15" fill="#c5ab37" fill-rule="evenodd" stroke="none"/>
    <path d="M38.8 11.3 L43.5 11.5 Q45.3 11.15 47.8 17.15 48.8 25.15 39.0 25.65 45.5 23.5 44.5 17.3 L42.8 13.5 Q41.15 11.5 38.8 11.3" fill="#bdad45" fill-rule="evenodd" stroke="none"/>
    <path d="M2.15 26.5 L6.15 26.5 -9.5 27.65 -9.5 27.15 2.15 26.5" fill="#f2f2f2" fill-rule="evenodd" stroke="none"/>
    <path d="M20.3 46.3 L22.15 45.5 17.65 48.65 15.3 49.5 20.3 46.3" fill="#373737" fill-rule="evenodd" stroke="none"/>
    <path d="M31.65 47.15 L34.5 47.5 36.0 48.5 36.3 50.15 Q30.65 57.65 22.3 54.3 20.8 51.65 24.5 49.5 L25.5 53.15 27.15 53.8 29.0 53.65 Q31.0 53.3 32.15 51.65 L31.65 47.15" fill="#f1c431" fill-rule="evenodd" stroke="none"/>
    <path d="M36.3 50.15 Q40.3 57.15 34.8 59.5 25.5 64.15 22.8 56.5 L22.3 54.3 Q30.65 57.65 36.3 50.15" fill="#8c7113" fill-rule="evenodd" stroke="none"/>
    <path d="M-42.35 20.3 L-37.85 22.8 Q-34.5 25.3 -33.2 28.15 L-30.7 32.65 Q-27.2 44.0 -29.2 55.65 L-30.0 60.15 -35.5 58.0 -38.2 57.5 Q-34.5 33.65 -43.5 29.65 L-42.0 26.8 Q-41.5 20.8 -42.35 20.3" fill="#9b8528" fill-rule="evenodd" stroke="none"/>
    <path d="M-45.7 15.8 L-44.0 16.8 -42.35 20.3 Q-41.5 20.8 -42.0 26.8 L-43.5 29.65 -45.7 31.5 -45.7 15.8" fill="#c9bb5d" fill-rule="evenodd" stroke="none"/>
    <path d="M-28.85 69.65 L-43.35 58.15 -42.0 57.3 -38.2 57.5 -35.5 58.0 -30.0 60.15 Q-26.2 62.3 -26.5 63.5 L-28.85 69.65" fill="#bb9f34" fill-rule="evenodd" stroke="none"/>
    <path d="M-33.2 28.15 L-33.0 -51.2 Q-33.5 -52.0 -30.7 -56.2 L-30.5 -56.7 -26.0 -56.85 -26.2 55.8 -29.2 55.65 Q-27.2 44.0 -30.7 32.65 L-33.2 28.15 M17.65 -31.0 L12.65 -27.0 Q15.65 -23.0 12.8 -12.5 L8.5 -12.35 7.15 -11.7 6.3 -11.5 7.3 -18.5 7.15 -23.85 6.5 -27.35 3.15 -27.85 -9.5 -28.7 -9.5 -34.0 14.8 -31.85 17.65 -31.0 M18.65 5.8 L13.8 9.5 Q17.0 15.0 14.8 24.15 L13.3 25.8 6.15 26.5 2.15 26.5 7.8 25.8 8.65 16.65 7.65 9.15 -9.5 9.65 -9.5 5.5 17.5 5.3 18.65 5.8" fill="#999999" fill-rule="evenodd" stroke="none"/>
  </g>
</svg>
