<?xml version="1.0" encoding="UTF-8" standalone="no"?>
<svg xmlns:ffdec="https://www.free-decompiler.com/flash" xmlns:xlink="http://www.w3.org/1999/xlink" ffdec:objectType="shape" height="243.15px" width="169.2px" xmlns="http://www.w3.org/2000/svg">
  <g transform="matrix(1.0, 0.0, 0.0, 1.0, 94.7, 122.0)">
    <path d="M9.0 -121.2 L-14.0 -96.7 -39.35 -80.7 -74.7 -70.7 -67.0 -20.7 -66.85 19.3 -74.5 69.8 -40.5 79.5 -37.5 81.0 -14.0 95.65 -14.2 96.0 9.65 121.15 -10.5 116.8 -32.85 92.5 -57.7 77.15 -94.7 66.8 -85.35 19.3 -85.5 -21.35 -94.7 -67.7 -58.35 -77.7 -32.2 -94.0 9.0 -121.2" fill="#4f3d06" fill-rule="evenodd" stroke="none"/>
    <path d="M-14.0 -96.7 L6.15 -99.5 10.0 -121.85 30.3 -89.0 49.8 -68.85 74.5 -54.0 68.5 -17.5 68.5 16.5 74.5 52.8 74.3 53.3 50.15 67.65 30.65 87.8 10.65 120.3 9.65 121.15 -14.2 96.0 -14.0 95.65 -37.5 81.0 -40.5 79.5 -74.5 69.8 -66.85 19.3 -67.0 -20.7 -74.7 -70.7 -39.35 -80.7 -14.0 -96.7 M-23.85 -80.0 L-61.0 -56.0 -60.85 14.15 -60.85 31.8 -61.0 55.3 -53.35 60.0 -38.5 69.65 -3.5 92.3 6.15 98.65 6.8 98.65 8.8 96.15 60.5 44.3 60.65 43.5 60.5 -45.35 6.15 -99.5 -3.5 -93.2 -9.5 -89.2 -23.85 -80.0" fill="#f4d945" fill-rule="evenodd" stroke="none"/>
    <path d="M-18.0 -77.5 Q-20.0 -76.7 -22.35 -77.2 L-23.85 -80.0 -9.5 -89.2 -7.35 -82.85 -10.7 -80.5 -18.0 -77.5" fill="#9e8e3d" fill-rule="evenodd" stroke="none"/>
    <path d="M8.8 -75.2 Q9.65 -75.0 10.8 -78.0 L14.15 -78.2 Q20.15 -76.35 16.15 -72.0 11.8 -63.5 0.0 -61.85 -10.0 -62.5 -18.0 -77.5 L-10.7 -80.5 Q-9.7 -77.35 -4.85 -72.35 L0.0 -69.7 Q6.8 -71.0 8.8 -75.2" fill="#b59e35" fill-rule="evenodd" stroke="none"/>
    <path d="M-38.85 34.0 L-38.7 -50.5 -37.35 -56.0 -33.7 -56.2 -33.7 55.3 -27.5 51.15 7.15 48.65 23.15 46.65 Q20.85 48.25 18.5 49.8 L2.0 52.0 -33.7 55.3 -37.7 54.8 -37.5 54.15 -37.0 50.15 -37.5 39.5 -38.85 34.0 M7.0 -28.2 L15.15 -27.2 11.8 -27.0 11.3 -27.0 3.65 -27.85 -15.0 -28.85 7.0 -28.2 M12.5 9.3 L16.65 9.65 13.0 9.5 12.5 9.5 12.5 9.3" fill="#353535" fill-rule="evenodd" stroke="none"/>
    <path d="M-27.7 -52.2 L-27.5 51.15 -33.7 55.3 -33.7 -56.2 -27.7 -52.2" fill="#666666" fill-rule="evenodd" stroke="none"/>
    <path d="M-33.7 -56.2 L2.3 -53.0 16.8 -51.2 21.3 -48.0 7.3 -49.7 -27.7 -52.2 -33.7 -56.2 M10.65 -7.5 L-14.85 -7.85 -15.0 -12.0 7.15 -11.5 10.65 -7.5 M11.15 30.8 L-15.0 32.3 -15.0 27.65 -10.25 27.4 6.3 26.65 7.5 26.65 11.15 30.8" fill="#ffffff" fill-rule="evenodd" stroke="none"/>
    <path d="M26.0 -46.5 L26.15 -46.5 26.5 -46.2 Q33.15 -42.5 35.0 -31.85 L34.8 -17.5 Q34.15 -10.7 30.0 -6.5 L29.8 -6.35 22.15 -0.7 21.65 -0.5 30.15 3.0 32.8 4.65 Q37.15 8.3 37.3 21.8 L36.8 29.5 35.5 34.8 31.65 41.8 29.5 44.0 27.5 45.15 23.15 46.65 7.15 48.65 -27.5 51.15 -27.7 -52.2 7.3 -49.7 21.3 -48.0 26.0 -46.5 M19.8 -31.2 L16.15 -32.0 11.15 -32.35 -15.0 -33.85 -15.0 -28.85 -15.0 -12.0 -14.85 -7.85 10.65 -7.5 17.65 -7.85 20.15 -8.85 Q21.0 -9.0 22.5 -12.85 L23.15 -17.7 Q23.0 -30.7 19.8 -31.2 M21.0 5.8 L17.65 5.3 10.8 5.3 -15.0 5.5 -15.0 9.65 -15.0 27.65 -15.0 32.3 11.15 30.8 20.15 30.15 21.3 29.65 23.0 28.15 24.15 25.5 Q26.0 9.15 21.0 5.8" fill="#c5c5c5" fill-rule="evenodd" stroke="none"/>
    <path d="M11.15 -32.35 L7.0 -28.2 -15.0 -28.85 -15.0 -33.85 11.15 -32.35" fill="#575757" fill-rule="evenodd" stroke="none"/>
    <path d="M9.65 -122.0 L9.0 -121.2 -32.2 -94.0 -11.0 -117.35 9.65 -122.0" fill="#523c06" fill-rule="evenodd" stroke="none"/>
    <path d="M10.0 -121.85 L6.15 -99.5 -14.0 -96.7 9.0 -121.2 9.65 -122.0 10.0 -121.85" fill="#fff057" fill-rule="evenodd" stroke="none"/>
    <path d="M6.8 -80.35 L8.8 -81.2 Q10.5 -81.7 14.5 -80.35 L18.5 -78.2 Q20.5 -77.2 21.0 -73.85 L20.0 -72.35 18.15 -72.0 16.15 -72.0 Q20.15 -76.35 14.15 -78.2 L10.8 -78.0 Q9.65 -75.0 8.8 -75.2 4.8 -78.35 6.8 -80.35" fill="#3d2b02" fill-rule="evenodd" stroke="none"/>
    <path d="M21.0 -73.85 Q20.5 -77.2 18.5 -78.2 L14.5 -80.35 Q10.5 -81.7 8.8 -81.2 L6.8 -80.35 7.5 -82.5 Q9.3 -89.85 19.0 -85.2 26.65 -82.35 21.0 -73.85" fill="#bcaa43" fill-rule="evenodd" stroke="none"/>
    <path d="M18.15 -72.0 L20.0 -72.35 21.0 -73.85 Q26.65 -82.35 19.0 -85.2 9.3 -89.85 7.5 -82.5 L-3.5 -93.2 6.15 -99.5 60.5 -45.35 60.65 43.5 60.5 44.3 8.8 96.15 6.8 98.65 6.15 98.65 -3.5 92.3 31.65 58.0 31.8 58.0 Q33.3 65.3 44.65 59.15 46.8 57.5 47.0 55.8 L44.65 49.8 44.5 49.15 43.15 48.0 42.0 47.8 46.65 43.3 46.65 25.0 49.65 26.15 50.3 26.0 50.8 26.0 Q60.15 27.0 59.5 17.15 57.15 9.15 50.0 11.5 L47.65 11.8 46.65 12.5 46.65 -44.2 18.15 -72.0" fill="#816611" fill-rule="evenodd" stroke="none"/>
    <path d="M16.8 -51.2 L21.3 -49.85 26.0 -46.5 21.3 -48.0 16.8 -51.2 M4.0 26.5 L6.3 26.65 -10.25 27.4 4.0 26.5" fill="#f2f2f2" fill-rule="evenodd" stroke="none"/>
    <path d="M11.8 -27.0 L11.8 -26.85 12.15 -26.5 Q15.65 -16.7 11.8 -12.35 L11.0 -12.0 12.0 -19.2 11.3 -27.0 11.8 -27.0" fill="#383838" fill-rule="evenodd" stroke="none"/>
    <path d="M11.8 -27.0 L15.15 -27.2 16.65 -25.7 17.3 -22.5 17.15 -15.5 15.5 -12.5 11.8 -12.35 Q15.65 -16.7 12.15 -26.5 L11.8 -26.85 11.8 -27.0" fill="#494949" fill-rule="evenodd" stroke="none"/>
    <path d="M15.15 -27.2 L19.8 -31.2 Q23.0 -30.7 23.15 -17.7 L22.5 -12.85 Q21.0 -9.0 20.15 -8.85 L15.5 -12.5 17.15 -15.5 17.3 -22.5 16.65 -25.7 15.15 -27.2" fill="#8b8b8b" fill-rule="evenodd" stroke="none"/>
    <path d="M11.15 -32.35 L16.15 -32.0 19.8 -31.2 15.15 -27.2 7.0 -28.2 11.15 -32.35" fill="#585858" fill-rule="evenodd" stroke="none"/>
    <path d="M20.15 -8.85 L17.65 -7.85 10.65 -7.5 7.15 -11.5 8.65 -11.5 14.0 -11.85 15.5 -12.5 20.15 -8.85" fill="#fefefe" fill-rule="evenodd" stroke="none"/>
    <path d="M11.8 -12.35 L15.5 -12.5 14.0 -11.85 8.65 -11.5 11.0 -12.0 11.8 -12.35" fill="#c7c7c7" fill-rule="evenodd" stroke="none"/>
    <path d="M29.8 -6.35 L27.15 -2.85 25.0 -1.5 22.15 -0.7 29.8 -6.35" fill="#4a4a4a" fill-rule="evenodd" stroke="none"/>
    <path d="M25.0 -1.5 L29.8 0.65 32.8 4.65 30.15 3.0 21.65 -0.5 22.15 -0.7 25.0 -1.5" fill="#fafafa" fill-rule="evenodd" stroke="none"/>
    <path d="M44.5 16.3 L44.65 15.15 46.65 12.65 46.65 12.5 47.65 11.8 50.0 11.5 Q52.15 11.65 53.65 13.65 L55.3 17.8 54.65 22.5 Q53.8 25.0 50.8 26.0 L50.3 26.0 49.65 26.15 46.65 25.0 45.65 24.0 51.65 21.3 52.3 20.0 52.3 17.5 50.8 15.3 50.0 15.0 44.5 16.3" fill="#644b09" fill-rule="evenodd" stroke="none"/>
    <path d="M37.3 21.8 L40.15 19.0 44.5 16.3 50.0 15.0 50.8 15.3 52.3 17.5 52.3 20.0 51.65 21.3 45.65 24.0 Q36.15 33.3 39.8 47.8 L40.65 51.8 38.65 53.65 Q36.15 54.65 34.15 54.15 L32.8 50.65 31.65 41.8 35.5 34.8 36.8 29.5 37.3 21.8" fill="#b69b2e" fill-rule="evenodd" stroke="none"/>
    <path d="M50.8 26.0 Q53.8 25.0 54.65 22.5 L55.3 17.8 53.65 13.65 Q52.15 11.65 50.0 11.5 57.15 9.15 59.5 17.15 60.15 27.0 50.8 26.0" fill="#bca948" fill-rule="evenodd" stroke="none"/>
    <path d="M42.0 47.8 L43.15 48.0 44.5 49.15 44.65 49.8 Q39.15 58.0 30.8 55.3 L30.5 53.3 32.8 50.65 34.15 54.15 Q36.15 54.65 38.65 53.65 L40.65 51.8 39.8 47.8 42.0 47.8" fill="#e3b92d" fill-rule="evenodd" stroke="none"/>
    <path d="M13.0 9.5 L13.3 9.8 13.5 9.8 Q17.0 17.65 14.15 24.3 L13.0 25.3 13.65 16.5 12.5 9.5 13.0 9.5" fill="#373737" fill-rule="evenodd" stroke="none"/>
    <path d="M13.0 25.3 L14.15 24.3 Q17.0 17.65 13.5 9.8 L13.3 9.8 13.0 9.5 16.65 9.65 Q20.8 15.8 18.0 24.5 L15.65 26.0 7.5 26.65 6.3 26.65 4.0 26.5 12.8 25.5 13.0 25.3" fill="#7e7e7e" fill-rule="evenodd" stroke="none"/>
    <path d="M10.8 5.3 L17.65 5.3 21.0 5.8 16.65 9.65 12.5 9.3 7.15 9.3 10.8 5.3" fill="#474747" fill-rule="evenodd" stroke="none"/>
    <path d="M16.65 9.65 L21.0 5.8 Q26.0 9.15 24.15 25.5 L23.0 28.15 21.3 29.65 20.15 30.15 11.15 30.8 7.5 26.65 15.65 26.0 18.0 24.5 Q20.8 15.8 16.65 9.65" fill="#b2b2b2" fill-rule="evenodd" stroke="none"/>
    <path d="M10.8 5.3 L7.15 9.3 -15.0 9.65 -15.0 5.5 10.8 5.3" fill="#545454" fill-rule="evenodd" stroke="none"/>
    <path d="M23.15 46.65 L27.5 45.15 22.3 48.8 18.5 49.8 Q20.85 48.25 23.15 46.65" fill="#363636" fill-rule="evenodd" stroke="none"/>
    <path d="M30.8 55.3 Q39.15 58.0 44.65 49.8 L47.0 55.8 Q46.8 57.5 44.65 59.15 33.3 65.3 31.8 58.0 L31.65 58.0 30.8 55.3" fill="#8c7214" fill-rule="evenodd" stroke="none"/>
    <path d="M-56.0 19.15 Q-47.0 19.3 -38.85 34.0 L-37.5 39.5 -37.0 50.15 -37.5 54.15 -37.7 54.8 -39.0 60.3 -42.85 58.3 -46.85 57.0 -45.35 49.5 -45.35 45.5 -47.2 35.65 -51.35 30.65 -55.7 28.15 -56.2 28.0 -55.2 24.5 -56.0 19.15" fill="#9e892c" fill-rule="evenodd" stroke="none"/>
    <path d="M-60.85 14.15 L-59.0 14.65 Q-57.2 15.65 -56.0 19.15 L-55.2 24.5 -56.2 28.0 Q-57.7 31.0 -58.7 31.3 L-60.85 31.8 -60.85 14.15" fill="#b9a842" fill-rule="evenodd" stroke="none"/>
    <path d="M-38.5 69.65 L-53.35 60.0 -51.7 56.5 -46.85 57.0 -42.85 58.3 -39.0 60.3 Q-35.5 62.5 -35.85 63.5 L-38.5 69.65" fill="#a68823" fill-rule="evenodd" stroke="none"/>
  </g>
</svg>
