<?xml version="1.0" encoding="UTF-8" standalone="no"?>
<svg xmlns:ffdec="https://www.free-decompiler.com/flash" xmlns:xlink="http://www.w3.org/1999/xlink" ffdec:objectType="shape" height="244.3px" width="202.85px" xmlns="http://www.w3.org/2000/svg">
  <g transform="matrix(1.0, 0.0, 0.0, 1.0, 106.7, 122.5)">
    <path d="M4.0 -121.85 L1.5 -119.5 -31.7 -93.7 -6.0 -117.0 4.15 -122.2 4.0 -121.85 M21.0 -73.35 L22.15 -75.2 22.0 -76.2 18.5 -78.7 17.0 -79.2 15.3 -79.0 14.0 -77.2 11.15 -80.0 11.15 -81.35 11.65 -81.85 Q18.15 -82.85 25.3 -74.0 L24.3 -73.0 21.0 -73.35 M64.5 16.0 L65.3 13.65 66.5 12.3 67.8 12.0 68.15 12.0 Q69.65 12.2 71.0 15.5 L71.65 21.3 70.15 25.8 69.15 27.0 67.8 27.15 65.8 26.0 64.65 23.8 Q68.8 23.15 69.15 22.3 L69.8 18.5 Q69.0 15.5 68.0 15.65 L64.5 16.0 M-100.0 65.5 L-106.7 62.15 -96.7 16.65 -96.85 -19.2 -106.7 -62.85 -100.2 -66.35 -90.35 -20.7 -90.7 -17.5 -90.35 19.8 -91.0 21.3 -100.0 65.5" fill="#3d2b02" fill-rule="evenodd" stroke="none"/>
    <path d="M3.3 -100.0 L5.3 -122.5 33.5 -91.2 61.15 -71.5 96.0 -57.5 88.0 -17.85 88.0 17.3 96.15 56.3 61.3 70.5 34.8 89.3 5.3 121.8 4.5 121.5 -25.85 94.15 -57.2 77.15 -59.35 76.65 -100.0 65.5 -91.0 21.3 -90.35 19.8 -90.7 -17.5 -90.35 -20.7 -100.2 -66.35 -59.7 -77.35 -59.35 -77.5 -59.0 -77.5 -56.2 -78.5 -25.35 -95.35 2.8 -99.85 -3.5 -96.2 -15.35 -89.5 -29.7 -81.7 -81.2 -53.5 -81.2 13.5 -81.2 30.5 -81.0 52.8 -66.35 60.65 -51.7 68.8 -3.35 95.3 3.15 99.15 3.65 99.0 78.3 46.65 78.5 45.8 78.3 -47.5 3.3 -100.0" fill="#f4df63" fill-rule="evenodd" stroke="none"/>
    <path d="M-15.7 -81.0 L-22.7 -77.2 -26.5 -75.7 -29.7 -81.7 -15.35 -89.5 -12.0 -83.35 -15.7 -81.0" fill="#a89b4a" fill-rule="evenodd" stroke="none"/>
    <path d="M14.0 -77.2 L15.3 -79.0 17.0 -79.2 18.5 -78.7 22.0 -76.2 22.15 -75.2 21.0 -73.35 Q0.15 -48.5 -22.7 -77.2 L-15.7 -81.0 Q-1.2 -60.7 14.0 -77.2" fill="#b19b3d" fill-rule="evenodd" stroke="none"/>
    <path d="M4.3 -122.2 L4.0 -121.85 4.15 -122.2 4.3 -122.2 M1.5 -119.5 L-25.35 -95.35 -56.2 -78.5 -59.0 -77.5 -59.35 -77.5 -34.85 -90.85 -31.7 -93.7 1.5 -119.5" fill="#473304" fill-rule="evenodd" stroke="none"/>
    <path d="M-44.35 -54.7 L-39.7 -51.0 -39.7 50.0 5.15 48.8 26.5 47.5 22.5 50.65 1.0 52.0 -44.35 53.8 -46.0 53.3 -46.0 -54.5 -44.35 -54.7 M7.8 -28.2 L18.3 -27.5 16.8 -27.35 -4.6 -28.3 7.8 -28.2 M19.8 9.65 L18.8 9.65 18.3 9.5 19.8 9.65" fill="#353535" fill-rule="evenodd" stroke="none"/>
    <path d="M-23.7 -32.0 L-23.85 -33.35 10.3 -32.5 7.8 -28.2 -4.6 -28.3 -22.85 -28.7 -23.7 -32.0" fill="#505050" fill-rule="evenodd" stroke="none"/>
    <path d="M-23.85 -8.2 L-23.7 -32.0 -22.85 -28.7 -22.85 -11.85 -23.85 -8.2 M7.8 26.8 L8.3 26.8 10.3 31.15 -23.85 32.0 -23.85 31.15 -22.85 27.3 -8.25 27.0 7.8 26.8" fill="#ffffff" fill-rule="evenodd" stroke="none"/>
    <path d="M9.8 -7.7 L-12.7 -7.7 -23.85 -8.2 -22.85 -11.85 7.8 -11.7 9.8 -7.7" fill="#fafafa" fill-rule="evenodd" stroke="none"/>
    <path d="M5.3 -49.85 L24.15 -48.85 Q39.3 -49.35 43.15 -28.7 L43.0 -20.7 42.65 -18.2 40.5 -11.85 37.0 -7.5 24.65 -0.5 38.15 3.8 42.15 7.0 Q46.05 11.8 46.1 21.05 L45.65 27.65 45.5 28.65 45.5 29.0 45.15 30.3 45.0 30.5 45.0 30.65 44.65 32.0 44.15 33.15 44.15 33.3 44.0 33.8 43.8 34.0 43.5 35.0 43.0 36.0 42.8 36.3 42.5 37.0 42.3 37.3 42.0 38.0 41.65 38.5 41.5 38.8 41.15 39.3 41.0 39.65 40.8 39.8 40.5 40.3 40.0 40.8 40.0 41.0 Q35.5 45.5 33.65 45.8 L26.5 47.5 5.15 48.8 -39.7 50.0 -39.7 -51.0 5.3 -49.85 M22.3 -9.0 Q26.15 -12.7 25.8 -14.35 L26.3 -23.0 Q25.8 -28.0 24.65 -29.35 L22.15 -31.5 17.3 -32.35 10.3 -32.5 -23.85 -33.35 -23.7 -32.0 -23.85 -8.2 -12.7 -7.7 9.8 -7.7 18.5 -7.85 22.3 -9.0 M10.3 31.15 L22.0 30.65 24.0 30.15 27.15 27.3 Q31.8 13.15 23.65 6.0 L18.65 5.3 9.8 5.3 -23.85 5.5 -23.85 31.15 -23.85 32.0 10.3 31.15" fill="#e9e9e9" fill-rule="evenodd" stroke="none"/>
    <path d="M1.3 -53.0 L5.3 -49.85 -39.7 -51.0 -44.35 -54.7 1.3 -53.0" fill="#d7d7d7" fill-rule="evenodd" stroke="none"/>
    <path d="M3.3 -100.0 L2.8 -99.85 -25.35 -95.35 1.5 -119.5 4.0 -121.85 4.3 -122.2 5.3 -122.5 3.3 -100.0" fill="#fff76e" fill-rule="evenodd" stroke="none"/>
    <path d="M2.8 -99.85 L3.3 -100.0 78.3 -47.5 78.5 45.8 78.3 46.65 3.65 99.0 3.15 99.15 -3.35 95.3 45.8 61.15 46.0 61.5 Q47.65 66.5 57.65 60.5 L61.0 57.0 58.65 52.0 68.8 45.15 68.8 27.3 Q79.3 28.65 77.65 18.0 77.3 9.8 68.8 12.0 L68.65 -46.2 26.15 -75.35 Q29.15 -79.85 28.3 -80.85 L24.0 -85.0 Q14.0 -90.85 13.0 -84.85 L-3.5 -96.2 2.8 -99.85" fill="#6d550e" fill-rule="evenodd" stroke="none"/>
    <path d="M13.0 -84.85 Q14.0 -90.85 24.0 -85.0 L28.3 -80.85 Q29.15 -79.85 26.15 -75.35 L25.3 -74.0 Q18.15 -82.85 11.65 -81.85 L13.0 -84.85" fill="#b6a03f" fill-rule="evenodd" stroke="none"/>
    <path d="M5.3 -49.85 L1.3 -53.0 20.5 -52.0 24.15 -48.85 5.3 -49.85" fill="#f5f5f5" fill-rule="evenodd" stroke="none"/>
    <path d="M22.15 -31.5 L24.65 -29.35 Q25.8 -28.0 26.3 -23.0 L25.8 -14.35 Q26.15 -12.7 22.3 -9.0 L19.0 -12.7 Q24.15 -21.7 19.0 -27.5 L22.15 -31.5" fill="#5a5a5a" fill-rule="evenodd" stroke="none"/>
    <path d="M19.0 -27.5 Q24.15 -21.7 19.0 -12.7 L17.15 -12.5 18.3 -13.7 19.0 -15.35 19.5 -21.0 18.8 -25.0 16.8 -27.35 18.3 -27.5 19.0 -27.5" fill="#383838" fill-rule="evenodd" stroke="none"/>
    <path d="M10.3 -32.5 L17.3 -32.35 22.15 -31.5 19.0 -27.5 18.3 -27.5 7.8 -28.2 10.3 -32.5" fill="#4e4e4e" fill-rule="evenodd" stroke="none"/>
    <path d="M17.15 -12.5 L19.0 -12.7 14.8 -11.85 17.15 -12.5" fill="#bababa" fill-rule="evenodd" stroke="none"/>
    <path d="M22.3 -9.0 L18.5 -7.85 9.8 -7.7 7.8 -11.7 13.5 -11.7 14.5 -11.85 14.8 -11.85 19.0 -12.7 22.3 -9.0" fill="#e8e8e8" fill-rule="evenodd" stroke="none"/>
    <path d="M24.15 -48.85 L20.5 -52.0 Q35.0 -51.7 42.8 -34.85 L43.8 -29.0 43.8 -21.35 42.8 -15.35 Q40.8 -5.7 32.0 -1.5 L24.65 -0.5 37.0 -7.5 40.5 -11.85 42.65 -18.2 43.0 -20.7 43.15 -28.7 Q39.3 -49.35 24.15 -48.85" fill="#d9d9d9" fill-rule="evenodd" stroke="none"/>
    <path d="M24.65 -0.5 L32.0 -1.5 Q46.6 0.65 46.1 21.05 46.05 11.8 42.15 7.0 L38.15 3.8 24.65 -0.5 M40.0 41.0 Q35.0 49.5 22.5 50.65 L26.5 47.5 33.65 45.8 Q35.5 45.5 40.0 41.0" fill="#979797" fill-rule="evenodd" stroke="none"/>
    <path d="M68.8 12.0 Q77.3 9.8 77.65 18.0 79.3 28.65 68.8 27.3 L67.8 27.15 69.15 27.0 70.15 25.8 71.65 21.3 71.0 15.5 Q69.65 12.2 68.15 12.0 L68.8 12.0" fill="#bcac45" fill-rule="evenodd" stroke="none"/>
    <path d="M64.5 16.0 L68.0 15.65 Q69.0 15.5 69.8 18.5 L69.15 22.3 Q68.8 23.15 64.65 23.8 47.15 29.3 52.8 50.0 L53.65 52.65 51.8 54.65 48.65 56.0 47.3 56.0 46.5 55.3 46.65 54.65 46.0 53.8 Q37.0 25.0 64.5 16.0" fill="#a78d29" fill-rule="evenodd" stroke="none"/>
    <path d="M20.8 9.65 Q25.8 13.65 22.8 24.15 21.5 26.3 19.3 26.3 L8.3 26.8 7.8 26.8 6.3 26.5 16.5 26.15 Q19.5 26.0 20.5 24.3 23.65 13.15 18.8 9.65 L19.8 9.65 20.8 9.65" fill="#707070" fill-rule="evenodd" stroke="none"/>
    <path d="M8.3 26.8 L19.3 26.3 Q21.5 26.3 22.8 24.15 25.8 13.65 20.8 9.65 L23.65 6.0 Q31.8 13.15 27.15 27.3 L24.0 30.15 22.0 30.65 10.3 31.15 8.3 26.8" fill="#898989" fill-rule="evenodd" stroke="none"/>
    <path d="M20.8 9.65 L19.8 9.65 18.3 9.5 7.8 9.3 9.8 5.3 18.65 5.3 23.65 6.0 20.8 9.65" fill="#3d3d3d" fill-rule="evenodd" stroke="none"/>
    <path d="M9.8 5.3 L7.8 9.3 -22.85 9.5 -22.85 27.3 -23.85 31.15 -23.85 5.5 9.8 5.3" fill="#a5a5a5" fill-rule="evenodd" stroke="none"/>
    <path d="M6.3 26.5 L7.8 26.8 -8.25 27.0 6.3 26.5" fill="#f1f1f1" fill-rule="evenodd" stroke="none"/>
    <path d="M58.65 52.0 L61.0 57.0 57.65 60.5 Q47.65 66.5 46.0 61.5 L45.8 61.15 44.0 57.5 Q53.65 57.3 57.8 50.5 L58.65 52.0" fill="#9b831b" fill-rule="evenodd" stroke="none"/>
    <path d="M52.8 50.0 L56.0 49.5 56.8 49.5 57.8 50.5 Q53.65 57.3 44.0 57.5 L43.8 56.3 46.0 53.8 46.65 54.65 46.5 55.3 47.3 56.0 48.65 56.0 51.8 54.65 53.65 52.65 52.8 50.0" fill="#d5ad2c" fill-rule="evenodd" stroke="none"/>
    <path d="M-81.2 13.5 L-75.85 13.3 Q-74.85 13.3 -73.85 17.65 L-73.7 26.0 Q-74.7 30.5 -76.0 30.3 L-81.2 30.5 -81.2 13.5" fill="#b0952e" fill-rule="evenodd" stroke="none"/>
    <path d="M-73.85 17.65 Q-39.7 22.8 -51.0 59.8 L-58.2 56.0 Q-54.2 40.65 -58.35 34.5 -65.35 26.3 -73.7 26.0 L-73.85 17.65" fill="#a59133" fill-rule="evenodd" stroke="none"/>
    <path d="M-51.0 59.8 Q-47.85 61.3 -48.0 62.3 L-51.7 68.8 -66.35 60.65 -63.2 54.5 Q-62.5 53.65 -58.2 56.0 L-51.0 59.8" fill="#8d6e13" fill-rule="evenodd" stroke="none"/>
    <path d="M-59.35 76.65 L-57.2 77.15 -25.85 94.15 4.5 121.5 -5.7 116.3 -34.0 90.5 Q-46.65 83.6 -59.35 76.65" fill="#9e921c" fill-rule="evenodd" stroke="none"/>
  </g>
</svg>
