<?xml version="1.0" encoding="UTF-8" standalone="no"?>
<svg xmlns:ffdec="https://www.free-decompiler.com/flash" xmlns:xlink="http://www.w3.org/1999/xlink" ffdec:objectType="shape" height="209.0px" width="263.65px" xmlns="http://www.w3.org/2000/svg">
  <g transform="matrix(1.0, 0.0, 0.0, 1.0, 132.4, 101.0)">
    <path d="M13.25 -101.0 Q67.0 -99.25 119.5 -59.0 133.75 -44.75 130.75 -16.75 129.0 7.5 114.0 20.5 85.5 46.5 10.0 47.25 L-75.0 108.0 -75.5 107.75 -42.75 48.0 Q-43.25 46.25 -51.0 45.75 L-78.75 41.5 -91.75 38.5 -100.75 35.25 Q-118.25 27.25 -125.75 11.0 L-129.75 -0.75 Q-139.5 -46.5 -113.25 -73.5 -109.5 -81.75 -68.75 -93.25 L-58.25 -95.5 -31.0 -99.5 -16.25 -100.75 13.25 -101.0 M-55.5 -47.0 Q-77.5 -44.0 -77.5 -24.5 -73.5 -3.75 -55.75 -3.25 -34.25 -5.5 -33.0 -25.0 -36.75 -46.5 -51.5 -47.25 L-55.5 -47.0 M54.25 -3.25 Q77.0 -7.0 76.75 -26.0 73.5 -45.0 58.0 -47.25 L54.25 -47.0 Q33.25 -45.5 32.25 -24.5 34.25 -5.25 54.25 -3.25 M23.75 -25.75 Q20.5 -45.25 5.0 -47.25 L1.25 -47.0 Q-21.75 -43.25 -20.75 -24.25 -18.25 -5.0 1.25 -3.25 24.0 -7.0 23.75 -25.75" fill="#5d7acc" fill-rule="evenodd" stroke="none"/>
    <path d="M23.75 -25.75 Q24.0 -7.0 1.25 -3.25 -18.25 -5.0 -20.75 -24.25 -21.75 -43.25 1.25 -47.0 L5.0 -47.25 Q20.5 -45.25 23.75 -25.75 M54.25 -3.25 Q34.25 -5.25 32.25 -24.5 33.25 -45.5 54.25 -47.0 L58.0 -47.25 Q73.5 -45.0 76.75 -26.0 77.0 -7.0 54.25 -3.25 M-55.5 -47.0 L-51.5 -47.25 Q-36.75 -46.5 -33.0 -25.0 -34.25 -5.5 -55.75 -3.25 -73.5 -3.75 -77.5 -24.5 -77.5 -44.0 -55.5 -47.0" fill="#293465" fill-rule="evenodd" stroke="none"/>
    <path d="M51.0 -67.75 L42.0 -70.5 41.75 -76.25 41.25 -76.5 Q42.0 -73.75 40.75 -73.0 L37.75 -80.25 36.75 -88.0 Q76.0 -81.0 108.0 -58.5 L114.5 -52.75 117.5 -48.25 117.75 -46.25 121.5 -38.25 121.5 -36.5 120.25 -35.5 120.0 -36.0 118.5 -34.0 117.75 -34.5 115.0 -32.5 114.0 -32.5 109.0 -37.0 109.5 -30.5 106.25 -32.5 101.75 -39.75 97.5 -43.75 94.75 -45.25 88.25 -46.0 86.75 -42.0 81.75 -42.0 Q80.0 -42.25 80.0 -47.5 L78.0 -43.5 77.0 -42.75 72.5 -47.75 Q71.25 -48.0 70.5 -44.0 L69.25 -43.25 66.25 -53.25 66.0 -57.75 64.75 -58.0 Q63.25 -55.25 58.75 -52.5 L57.5 -58.75 Q52.75 -63.5 51.0 -67.75 M-66.0 -57.0 L-66.75 -57.0 -69.5 -61.25 -72.0 -69.25 -71.75 -82.75 -56.5 -86.0 -53.0 -69.75 -52.25 -61.25 -52.75 -47.5 -55.0 -47.75 -57.0 -75.5 Q-60.0 -68.25 -64.25 -64.25 L-66.0 -57.0 M-75.75 -81.5 Q-72.25 -68.0 -77.0 -49.5 L-78.75 -46.75 Q-80.5 -52.0 -81.5 -52.0 L-86.75 -48.0 -86.5 -29.5 -87.5 -13.0 -90.0 -14.5 -94.75 -14.25 -100.75 -19.25 -108.75 -31.5 -113.0 -39.75 -117.75 -52.5 Q-110.75 -73.5 -75.75 -81.5" fill="#f1ffff" fill-opacity="0.36862746" fill-rule="evenodd" stroke="none"/>
  </g>
</svg>
