<?xml version="1.0" encoding="UTF-8" standalone="no"?>
<svg xmlns:ffdec="https://www.free-decompiler.com/flash" xmlns:xlink="http://www.w3.org/1999/xlink" ffdec:objectType="shape" height="206.5px" width="258.9px" xmlns="http://www.w3.org/2000/svg">
  <g transform="matrix(1.0, 0.0, 0.0, 1.0, 125.65, 101.5)">
    <path d="M133.0 -17.25 Q130.25 10.0 115.5 21.0 86.5 47.75 8.5 47.5 L-72.75 105.0 -73.25 104.75 -42.5 46.75 -73.25 41.0 -83.25 38.75 -94.0 35.25 Q-109.0 30.25 -119.25 11.0 L-122.75 0.25 Q-133.25 -43.25 -105.75 -73.0 -94.75 -84.25 -57.75 -93.5 L-41.75 -96.75 -21.0 -99.75 3.75 -101.5 23.25 -101.0 33.25 -99.75 51.5 -96.0 74.75 -88.25 Q112.25 -72.75 124.5 -57.5 134.75 -48.75 133.0 -17.25 M-57.5 -46.5 Q-76.75 -44.25 -78.0 -24.0 -74.75 -4.5 -58.75 -3.25 -39.5 -4.0 -36.25 -21.75 -35.0 -42.25 -53.75 -46.25 L-57.5 -46.5 M49.5 -3.25 Q73.25 -7.25 73.0 -25.25 70.0 -47.0 53.75 -48.25 L50.0 -48.5 Q28.5 -45.5 27.75 -24.75 30.75 -4.75 49.5 -3.25 M-3.0 -47.5 Q-22.25 -46.25 -24.5 -24.25 -22.75 -5.5 -3.0 -3.25 18.25 -6.5 19.25 -24.0 16.5 -46.5 0.75 -47.25 L-3.0 -47.5" fill="#5d7acc" fill-rule="evenodd" stroke="none"/>
    <path d="M-3.0 -47.5 L0.75 -47.25 Q16.5 -46.5 19.25 -24.0 18.25 -6.5 -3.0 -3.25 -22.75 -5.5 -24.5 -24.25 -22.25 -46.25 -3.0 -47.5 M49.5 -3.25 Q30.75 -4.75 27.75 -24.75 28.5 -45.5 50.0 -48.5 L53.75 -48.25 Q70.0 -47.0 73.0 -25.25 73.25 -7.25 49.5 -3.25 M-57.5 -46.5 L-53.75 -46.25 Q-35.0 -42.25 -36.25 -21.75 -39.5 -4.0 -58.75 -3.25 -74.75 -4.5 -78.0 -24.0 -76.75 -44.25 -57.5 -46.5" fill="#293465" fill-rule="evenodd" stroke="none"/>
    <path d="M76.0 -76.25 L85.75 -71.25 94.0 -68.25 102.0 -64.0 113.5 -56.0 Q125.75 -46.0 120.75 -21.5 118.75 -21.0 112.0 -28.0 L109.75 -25.0 96.75 -47.25 88.0 -66.75 87.25 -67.5 86.0 -67.25 78.5 -61.75 78.5 -64.5 77.0 -62.75 72.75 -71.25 71.0 -77.5 76.0 -76.25 M-2.75 -57.0 L-8.25 -46.5 Q-16.0 -45.0 -19.75 -38.75 -23.75 -35.0 -23.75 -26.5 L-28.5 -22.0 -28.75 -31.25 -27.75 -36.75 -23.25 -51.0 -18.75 -60.0 -19.0 -60.75 -6.5 -83.25 Q-3.25 -86.75 -1.25 -91.5 L1.75 -91.5 Q3.5 -71.75 -2.75 -57.0 M-37.5 -34.5 Q-45.75 -47.75 -58.25 -46.5 L-58.75 -54.5 -59.5 -55.25 -65.75 -54.0 -65.5 -53.0 Q-66.75 -47.5 -68.0 -47.25 L-69.5 -50.75 -72.25 -62.75 -72.5 -80.75 -59.25 -84.5 -53.75 -85.0 -50.75 -74.75 -50.5 -70.75 -41.0 -67.5 Q-36.25 -65.5 -31.75 -60.75 -19.5 -49.5 -37.5 -34.5 M-87.25 -54.0 L-86.5 -45.25 -87.0 -11.5 -89.0 -16.75 -93.25 -36.75 -92.5 -72.25 Q-93.0 -73.5 -89.75 -74.75 L-77.75 -79.0 Q-73.5 -71.25 -78.25 -47.5 L-79.0 -46.5 -81.25 -53.5 -87.25 -54.0" fill="#f1ffff" fill-opacity="0.36862746" fill-rule="evenodd" stroke="none"/>
  </g>
</svg>
