<?xml version="1.0" encoding="UTF-8" standalone="no"?>
<svg xmlns:ffdec="https://www.free-decompiler.com/flash" xmlns:xlink="http://www.w3.org/1999/xlink" ffdec:objectType="shape" height="204.25px" width="247.55px" xmlns="http://www.w3.org/2000/svg">
  <g transform="matrix(1.0, 0.0, 0.0, 1.0, 115.15, 101.75)">
    <path d="M132.25 -19.0 Q129.25 11.0 115.25 20.75 89.25 47.25 10.25 47.5 L-59.5 98.5 Q-60.75 100.5 -68.25 102.5 L-68.75 102.25 -40.75 46.0 -68.5 40.0 -85.75 34.75 Q-97.25 32.0 -109.0 11.0 L-112.75 -2.5 Q-122.25 -42.5 -93.75 -73.75 L-80.5 -82.0 -71.5 -86.0 -51.75 -92.5 -37.5 -96.0 -18.0 -99.5 0.25 -101.5 21.0 -101.75 44.25 -98.5 54.25 -96.0 73.0 -89.75 Q115.5 -71.75 124.75 -57.25 133.5 -49.5 132.25 -19.0 M-57.5 -45.5 Q-74.5 -42.75 -75.5 -23.25 -73.75 -4.5 -56.0 -3.0 -36.25 -8.75 -37.5 -25.5 -41.25 -45.25 -54.0 -45.5 L-57.5 -45.5 M-7.0 -47.5 Q-27.5 -42.25 -27.0 -24.0 -25.5 -5.5 -7.0 -3.25 13.5 -6.25 14.0 -25.25 11.25 -46.5 -3.5 -47.25 L-7.0 -47.5 M31.5 -45.0 L25.25 -38.0 22.25 -29.5 22.25 -22.25 Q29.5 -1.5 44.75 -3.25 64.5 -5.75 66.25 -27.5 61.75 -49.0 47.25 -49.0 L43.5 -49.25 Q40.0 -50.0 31.5 -45.0" fill="#5d7acc" fill-rule="evenodd" stroke="none"/>
    <path d="M31.5 -45.0 Q40.0 -50.0 43.5 -49.25 L47.25 -49.0 Q61.75 -49.0 66.25 -27.5 64.5 -5.75 44.75 -3.25 29.5 -1.5 22.25 -22.25 L22.25 -29.5 25.25 -38.0 31.5 -45.0 M-7.0 -47.5 L-3.5 -47.25 Q11.25 -46.5 14.0 -25.25 13.5 -6.25 -7.0 -3.25 -25.5 -5.5 -27.0 -24.0 -27.5 -42.25 -7.0 -47.5 M-57.5 -45.5 L-54.0 -45.5 Q-41.25 -45.25 -37.5 -25.5 -36.25 -8.75 -56.0 -3.0 -73.75 -4.5 -75.5 -23.25 -74.5 -42.75 -57.5 -45.5" fill="#293465" fill-rule="evenodd" stroke="none"/>
    <path d="M75.75 -57.25 L74.25 -75.0 80.5 -73.25 84.75 -69.75 85.75 -61.25 85.25 -60.5 83.75 -62.5 78.75 -57.25 77.5 -52.25 Q76.25 -52.5 75.75 -57.25 M111.5 -55.5 L116.75 -50.0 117.25 -49.25 Q116.0 -48.0 116.75 -39.75 L114.25 -27.25 Q104.5 -32.0 97.5 -62.0 L111.5 -55.5 M-5.75 -92.0 L14.0 -92.0 31.75 -90.0 Q37.25 -89.0 37.5 -87.75 L36.75 -76.0 35.25 -68.5 32.0 -60.25 30.75 -68.5 29.5 -58.0 22.5 -56.75 22.25 -63.25 21.75 -65.0 Q21.5 -57.75 20.5 -57.0 L20.75 -56.5 20.0 -56.5 18.75 -58.25 14.75 -67.0 13.75 -67.75 5.0 -65.0 Q3.0 -57.5 -1.25 -54.0 L-2.0 -48.0 Q-2.75 -46.75 -10.75 -47.0 L-18.0 -43.5 Q-28.75 -32.25 -26.5 -24.0 L-30.5 -21.25 Q-33.0 -24.0 -28.0 -43.5 L-29.25 -45.75 -29.5 -49.75 -27.75 -54.5 -23.0 -59.5 -20.0 -68.5 -9.5 -90.5 -9.0 -91.25 -5.75 -92.0 M-55.25 -45.5 L-56.5 -45.75 -57.75 -75.0 Q-53.5 -64.5 -55.25 -45.5" fill="#f1ffff" fill-opacity="0.36862746" fill-rule="evenodd" stroke="none"/>
  </g>
</svg>
