<?xml version="1.0" encoding="UTF-8" standalone="no"?>
<svg xmlns:ffdec="https://www.free-decompiler.com/flash" xmlns:xlink="http://www.w3.org/1999/xlink" ffdec:objectType="shape" height="202.75px" width="228.35px" xmlns="http://www.w3.org/2000/svg">
  <g transform="matrix(1.0, 0.0, 0.0, 1.0, 101.8, 102.5)">
    <path d="M126.5 -26.25 Q127.5 0.75 110.5 20.5 88.75 47.75 9.75 47.75 L-51.75 97.0 Q-52.5 98.5 -61.5 100.25 L-61.75 99.5 -37.75 45.75 -48.25 42.25 -63.0 38.75 -70.75 36.25 -78.25 32.75 Q-92.25 24.0 -96.5 9.0 L-98.25 3.75 -100.5 -8.0 Q-106.75 -42.75 -83.25 -71.5 L-70.0 -81.0 -62.0 -85.0 -45.5 -91.5 -18.5 -98.75 -3.25 -101.25 16.75 -102.5 Q76.5 -97.25 114.25 -65.25 L118.25 -60.5 122.75 -52.75 125.25 -44.0 126.25 -37.5 126.5 -26.25 M-55.0 -44.75 Q-70.75 -40.5 -70.5 -22.5 -69.0 -4.5 -53.5 -3.0 -38.0 -7.0 -37.75 -24.25 -39.25 -43.25 -52.0 -44.75 L-55.0 -44.75 M-10.75 -47.25 Q-28.0 -44.75 -28.25 -22.25 -26.25 -5.5 -10.5 -3.25 7.0 -5.25 8.25 -26.5 5.75 -46.0 -7.75 -47.0 L-10.75 -47.25 M35.0 -50.0 Q16.25 -47.25 15.5 -24.75 17.0 -5.25 36.25 -3.25 55.75 -7.75 56.0 -27.5 53.25 -49.0 38.5 -49.75 L35.0 -50.0" fill="#5d7acc" fill-rule="evenodd" stroke="none"/>
    <path d="M35.0 -50.0 L38.5 -49.75 Q53.25 -49.0 56.0 -27.5 55.75 -7.75 36.25 -3.25 17.0 -5.25 15.5 -24.75 16.25 -47.25 35.0 -50.0 M-10.75 -47.25 L-7.75 -47.0 Q5.75 -46.0 8.25 -26.5 7.0 -5.25 -10.5 -3.25 -26.25 -5.5 -28.25 -22.25 -28.0 -44.75 -10.75 -47.25 M-55.0 -44.75 L-52.0 -44.75 Q-39.25 -43.25 -37.75 -24.25 -38.0 -7.0 -53.5 -3.0 -69.0 -4.5 -70.5 -22.5 -70.75 -40.5 -55.0 -44.75" fill="#293465" fill-rule="evenodd" stroke="none"/>
    <path d="M50.25 -83.0 Q67.75 -82.0 93.25 -58.25 L93.75 -56.25 91.5 -56.5 91.0 -55.5 87.75 -56.0 87.0 -49.0 82.75 -54.0 85.0 -45.75 83.75 -41.5 Q82.0 -41.5 79.0 -48.0 L74.75 -48.25 66.75 -45.75 Q67.5 -44.75 64.75 -38.75 L60.75 -43.75 Q59.5 -44.5 59.75 -50.5 L58.75 -51.5 56.5 -44.25 55.0 -45.75 52.25 -51.5 51.5 -51.0 49.5 -44.5 48.25 -45.75 47.25 -60.25 47.75 -68.0 50.25 -83.0 M43.0 -57.5 L40.5 -49.5 Q36.75 -48.5 37.75 -54.75 L32.5 -57.0 30.0 -57.0 Q26.75 -53.25 24.25 -52.5 L23.5 -60.0 Q22.0 -59.75 21.75 -53.0 L17.75 -54.75 15.75 -56.25 15.5 -65.0 14.5 -57.5 13.75 -57.25 11.25 -62.75 8.75 -73.25 7.5 -73.75 4.5 -80.25 3.25 -85.75 3.5 -92.0 22.5 -91.5 36.25 -88.25 45.25 -85.0 44.75 -68.0 43.0 -57.5 M112.75 -52.5 L100.25 -46.75 99.5 -46.75 97.0 -52.5 107.75 -57.0 114.5 -54.25 114.75 -53.75 112.75 -52.5 M-19.25 -62.0 L-9.75 -90.75 -9.25 -91.5 -1.75 -92.0 Q1.25 -82.75 -7.0 -70.75 L-6.5 -68.75 -7.5 -56.75 -20.5 -52.25 Q-22.5 -53.5 -19.25 -62.0" fill="#f1ffff" fill-opacity="0.36862746" fill-rule="evenodd" stroke="none"/>
  </g>
</svg>
