<?xml version="1.0" encoding="UTF-8" standalone="no"?>
<svg xmlns:ffdec="https://www.free-decompiler.com/flash" xmlns:xlink="http://www.w3.org/1999/xlink" ffdec:objectType="shape" height="201.35px" width="202.4px" xmlns="http://www.w3.org/2000/svg">
  <g transform="matrix(1.0, 0.0, 0.0, 1.0, 88.05, 103.1)">
    <path d="M-14.5 -47.0 Q-31.5 -39.0 -28.75 -21.25 -26.75 -5.5 -13.75 -3.0 1.75 -7.0 2.0 -26.25 -0.75 -47.0 -11.5 -47.0 L-14.5 -47.0 M24.75 -50.5 Q7.5 -46.0 8.0 -23.5 13.75 -1.25 25.25 -3.25 41.75 -5.0 43.25 -28.75 40.5 -49.5 27.75 -50.5 L24.75 -50.5 M53.25 45.0 L27.5 48.0 10.0 48.25 -43.25 96.5 -52.75 98.25 -52.75 96.75 -33.75 44.75 -56.0 37.25 -67.75 31.0 Q-80.25 18.5 -84.75 5.5 L-87.0 -7.25 Q-92.0 -43.75 -73.0 -66.5 -52.75 -93.0 7.5 -102.75 50.0 -106.25 97.25 -73.25 112.5 -60.0 113.75 -40.0 117.0 -7.25 102.0 18.25 L92.0 28.25 82.5 34.75 70.75 40.75 53.25 45.0 M-50.75 -43.75 Q-63.25 -42.25 -63.0 -18.75 -59.0 -1.25 -47.25 -3.25 -35.25 -10.25 -36.25 -25.5 -38.5 -43.0 -48.0 -44.0 L-50.75 -43.75" fill="#5d7acc" fill-rule="evenodd" stroke="none"/>
    <path d="M24.75 -50.5 L27.75 -50.5 Q40.5 -49.5 43.25 -28.75 41.75 -5.0 25.25 -3.25 13.75 -1.25 8.0 -23.5 7.5 -46.0 24.75 -50.5 M-14.5 -47.0 L-11.5 -47.0 Q-0.75 -47.0 2.0 -26.25 1.75 -7.0 -13.75 -3.0 -26.75 -5.5 -28.75 -21.25 -31.5 -39.0 -14.5 -47.0 M-50.75 -43.75 L-48.0 -44.0 Q-38.5 -43.0 -36.25 -25.5 -35.25 -10.25 -47.25 -3.25 -59.0 -1.25 -63.0 -18.75 -63.25 -42.25 -50.75 -43.75" fill="#293465" fill-rule="evenodd" stroke="none"/>
    <path d="M80.5 -56.25 Q79.5 -52.25 81.25 -49.5 L84.5 -46.25 84.5 -29.0 Q84.75 -23.5 82.0 -24.0 L74.5 -33.5 75.25 -32.25 75.75 -23.5 73.5 -25.0 Q67.25 -40.5 59.75 -47.5 L58.0 -48.75 53.25 -50.0 51.75 -46.0 46.75 -46.25 46.0 -53.0 Q43.5 -42.75 40.0 -54.0 L39.25 -53.75 Q38.75 -49.75 37.5 -49.75 L35.5 -62.75 35.5 -77.0 36.5 -85.0 Q56.5 -81.75 78.25 -60.75 L80.5 -56.25 M103.0 -56.25 L105.0 -48.75 105.5 -43.75 105.0 -33.5 99.0 -44.75 96.75 -53.25 90.0 -53.75 92.0 -57.5 91.75 -58.25 96.0 -62.5 96.5 -64.5 98.25 -63.5 103.0 -56.25 M35.0 -85.75 L34.0 -74.25 33.0 -70.0 28.75 -62.0 28.0 -68.5 Q23.25 -75.75 22.5 -81.25 L22.0 -81.75 Q19.75 -80.25 15.25 -80.75 L15.5 -83.0 Q13.5 -83.5 12.75 -91.5 L21.75 -90.0 29.0 -88.25 35.0 -85.75" fill="#f1ffff" fill-opacity="0.36862746" fill-rule="evenodd" stroke="none"/>
  </g>
</svg>
