<?xml version="1.0" encoding="UTF-8" standalone="no"?>
<svg xmlns:ffdec="https://www.free-decompiler.com/flash" xmlns:xlink="http://www.w3.org/1999/xlink" ffdec:objectType="shape" height="199.45px" width="169.5px" xmlns="http://www.w3.org/2000/svg">
  <g transform="matrix(1.0, 0.0, 0.0, 1.0, 72.0, 102.95)">
    <path d="M-17.25 -46.5 Q-21.25 -47.5 -27.25 -35.75 L-29.25 -25.5 Q-25.25 -1.5 -16.5 -3.0 -5.0 -5.5 -4.5 -26.0 -6.25 -47.25 -15.0 -46.75 L-17.25 -46.5 M13.75 -3.25 Q28.5 -8.75 28.0 -29.25 25.75 -50.75 15.5 -50.75 L13.0 -50.75 Q0.5 -45.75 -1.0 -26.0 1.5 -5.0 13.75 -3.25 M88.75 12.0 Q72.5 51.0 9.0 48.75 L-31.0 94.25 Q-31.75 96.25 -41.5 96.5 L-42.75 96.5 -42.75 95.25 -38.25 67.5 -31.25 42.5 -47.5 35.25 -51.25 32.75 -61.75 22.0 -66.5 15.25 -68.75 9.5 -70.75 -0.5 Q-74.75 -33.0 -66.0 -56.5 -14.25 -126.25 59.5 -91.25 115.75 -60.5 88.75 12.0 M-44.75 -43.0 Q-46.25 -43.75 -50.0 -39.0 L-54.25 -30.25 -55.0 -27.0 -54.75 -16.5 Q-48.25 0.25 -41.75 -3.25 -32.75 -9.5 -33.75 -27.0 -37.0 -44.25 -42.5 -43.25 L-44.75 -43.0" fill="#5d7acc" fill-rule="evenodd" stroke="none"/>
    <path d="M13.75 -3.25 Q1.5 -5.0 -1.0 -26.0 0.5 -45.75 13.0 -50.75 L15.5 -50.75 Q25.75 -50.75 28.0 -29.25 28.5 -8.75 13.75 -3.25 M-17.25 -46.5 L-15.0 -46.75 Q-6.25 -47.25 -4.5 -26.0 -5.0 -5.5 -16.5 -3.0 -25.25 -1.5 -29.25 -25.5 L-27.25 -35.75 Q-21.25 -47.5 -17.25 -46.5 M-44.75 -43.0 L-42.5 -43.25 Q-37.0 -44.25 -33.75 -27.0 -32.75 -9.5 -41.75 -3.25 -48.25 0.25 -54.75 -16.5 L-55.0 -27.0 -54.25 -30.25 -50.0 -39.0 Q-46.25 -43.75 -44.75 -43.0" fill="#293465" fill-rule="evenodd" stroke="none"/>
    <path d="M61.25 -54.75 L64.25 -48.75 63.75 -33.75 62.25 -23.5 60.0 -16.25 58.0 -19.25 54.5 -19.25 54.25 -21.75 50.0 -32.25 44.75 -48.75 38.0 -72.75 37.5 -77.0 Q47.0 -75.0 60.5 -59.25 L61.25 -54.75 M75.25 -57.25 L76.5 -65.0 Q91.0 -55.25 83.25 -31.75 L82.0 -34.25 78.5 -48.75 77.5 -56.25 77.25 -57.0 75.25 -57.25 M31.0 -76.25 L29.75 -82.0 Q31.0 -82.5 36.0 -78.25 L32.25 -74.5 32.0 -75.75 31.0 -76.25" fill="#f1ffff" fill-opacity="0.36862746" fill-rule="evenodd" stroke="none"/>
  </g>
</svg>
