<?xml version="1.0" encoding="UTF-8" standalone="no"?>
<svg xmlns:ffdec="https://www.free-decompiler.com/flash" xmlns:xlink="http://www.w3.org/1999/xlink" ffdec:objectType="shape" height="199.35px" width="132.0px" xmlns="http://www.w3.org/2000/svg">
  <g transform="matrix(1.0, 0.0, 0.0, 1.0, 54.5, 104.1)">
    <path d="M28.0 -101.5 Q52.75 -93.0 72.25 -60.75 81.5 -48.25 74.5 2.0 L72.75 7.5 69.25 14.5 51.0 36.5 Q44.25 47.75 11.5 48.75 L3.25 62.0 -19.75 94.25 -29.25 95.25 -31.5 95.25 -32.5 63.5 -28.0 39.75 Q-54.75 20.0 -52.5 9.75 L-54.0 -1.5 -54.5 -21.75 -54.25 -33.25 -51.75 -52.0 Q-52.25 -68.25 -13.75 -96.75 0.75 -108.5 28.0 -101.5 M9.75 -15.5 Q13.0 -49.25 2.75 -50.75 L0.75 -50.5 0.0 -50.25 -3.75 -47.0 -7.5 -41.25 -10.75 -31.0 Q-13.0 -47.0 -17.75 -46.5 L-18.75 -46.75 -19.5 -46.0 Q-26.5 -40.75 -27.5 -35.5 L-29.75 -25.25 -31.75 -38.0 Q-33.75 -42.75 -35.75 -42.75 L-37.25 -42.25 Q-38.75 -42.5 -43.0 -36.0 L-45.75 -29.25 Q-48.5 -14.25 -40.25 -5.5 -38.5 -3.0 -36.0 -3.0 L-33.25 -5.5 -31.0 -11.5 -29.75 -22.75 -26.5 -11.5 Q-21.5 -3.25 -19.5 -3.25 -11.5 -5.0 -10.75 -22.75 L-8.5 -15.0 -8.25 -14.5 Q3.25 8.5 9.75 -15.5" fill="#5d7acc" fill-rule="evenodd" stroke="none"/>
    <path d="M9.75 -15.5 Q3.25 8.5 -8.25 -14.5 L-8.5 -15.0 -10.75 -22.75 Q-11.5 -5.0 -19.5 -3.25 -21.5 -3.25 -26.5 -11.5 L-29.75 -22.75 -31.0 -11.5 -33.25 -5.5 -36.0 -3.0 Q-38.5 -3.0 -40.25 -5.5 -48.5 -14.25 -45.75 -29.25 L-43.0 -36.0 Q-38.75 -42.5 -37.25 -42.25 L-35.75 -42.75 Q-33.75 -42.75 -31.75 -38.0 L-29.75 -25.25 -27.5 -35.5 Q-26.5 -40.75 -19.5 -46.0 L-18.75 -46.75 -17.75 -46.5 Q-13.0 -47.0 -10.75 -31.0 L-7.5 -41.25 -3.75 -47.0 0.0 -50.25 0.75 -50.5 2.75 -50.75 Q13.0 -49.25 9.75 -15.5" fill="#293465" fill-rule="evenodd" stroke="none"/>
    <path d="M38.75 -51.25 L38.5 -43.0 36.0 -33.0 33.5 -26.5 29.0 -44.25 Q28.5 -53.0 27.5 -53.75 L27.25 -65.0 36.0 -60.75 40.5 -55.75 38.75 -51.25" fill="#f1ffff" fill-opacity="0.36862746" fill-rule="evenodd" stroke="none"/>
  </g>
</svg>
