<?xml version="1.0" encoding="UTF-8" standalone="no"?>
<svg xmlns:ffdec="https://www.free-decompiler.com/flash" xmlns:xlink="http://www.w3.org/1999/xlink" ffdec:objectType="shape" height="198.5px" width="90.2px" xmlns="http://www.w3.org/2000/svg">
  <g transform="matrix(1.0, 0.0, 0.0, 1.0, 37.0, 104.0)">
    <path d="M-36.0 -30.75 Q-37.25 -60.75 -25.75 -81.75 L-21.5 -88.0 -4.5 -102.75 -0.75 -104.0 12.75 -103.5 Q56.0 -84.5 53.0 -24.75 L51.5 0.75 50.0 8.75 46.25 19.75 41.5 28.25 25.0 44.5 21.75 46.5 15.75 48.25 11.25 61.5 -7.25 94.0 -19.25 94.5 -26.25 64.5 -24.0 37.0 -31.75 25.25 -34.25 17.0 -35.5 8.0 -36.25 -15.25 -36.0 -15.25 -36.0 -14.5 -32.75 -7.75 Q-26.25 3.25 -26.0 -10.0 L-20.25 -3.0 Q-19.0 -3.25 -17.25 -10.0 -8.75 5.75 -7.0 -14.75 -5.0 -47.75 -10.75 -50.75 L-11.75 -50.25 -13.25 -48.75 -13.5 -48.25 -14.0 -48.0 -15.0 -46.75 -15.5 -46.25 -15.75 -45.5 -16.75 -44.5 -16.75 -44.25 -17.5 -42.75 -17.75 -42.5 -18.75 -45.75 -19.75 -46.25 -20.75 -45.75 -22.75 -43.5 -23.0 -43.0 -26.25 -38.75 -26.75 -41.5 -28.0 -42.0 -28.75 -41.75 -33.25 -36.25 -33.75 -35.25 -34.0 -35.0 -34.0 -34.75 -34.25 -34.0 -35.0 -33.0 -35.5 -31.75 -35.5 -31.5 -35.75 -30.5 -36.0 -30.75" fill="#5d7acc" fill-rule="evenodd" stroke="none"/>
    <path d="M-36.25 -15.25 L-37.0 -23.75 -37.0 -24.25 -36.75 -24.25 -36.75 -26.75 -36.0 -29.75 -36.0 -30.75 -35.75 -30.5 -35.5 -31.5 -35.5 -31.75 -35.0 -33.0 -34.25 -34.0 -34.0 -34.75 -34.0 -35.0 -33.75 -35.25 -33.25 -36.25 -28.75 -41.75 -28.0 -42.0 -26.75 -41.5 -26.25 -38.75 -23.0 -43.0 -22.75 -43.5 -20.75 -45.75 -19.75 -46.25 -18.75 -45.75 -17.75 -42.5 -17.5 -42.75 -16.75 -44.25 -16.75 -44.5 -15.75 -45.5 -15.5 -46.25 -15.0 -46.75 -14.0 -48.0 -13.5 -48.25 -13.25 -48.75 -11.75 -50.25 -10.75 -50.75 Q-5.0 -47.75 -7.0 -14.75 -8.75 5.75 -17.25 -10.0 -19.0 -3.25 -20.25 -3.0 L-26.0 -10.0 Q-26.25 3.25 -32.75 -7.75 L-36.0 -14.5 -36.0 -15.25 -36.25 -15.25" fill="#293465" fill-rule="evenodd" stroke="none"/>
    <path d="M43.5 -52.25 L42.0 -51.25 42.25 -44.0 41.0 -32.75 Q30.0 -53.75 38.0 -67.0 39.25 -66.75 42.0 -59.25 L43.25 -54.25 43.5 -52.25 M13.0 -55.25 L4.0 -51.0 3.0 -51.25 2.75 -56.25 11.5 -60.5 Q15.5 -61.25 19.25 -59.5 L13.0 -55.25" fill="#f1ffff" fill-opacity="0.36862746" fill-rule="evenodd" stroke="none"/>
  </g>
</svg>
