<?xml version="1.0" encoding="UTF-8" standalone="no"?>
<svg xmlns:ffdec="https://www.free-decompiler.com/flash" xmlns:xlink="http://www.w3.org/1999/xlink" ffdec:objectType="shape" height="197.75px" width="65.45px" xmlns="http://www.w3.org/2000/svg">
  <g transform="matrix(1.0, 0.0, 0.0, 1.0, 33.25, 103.75)">
    <path d="M-26.25 -46.75 L-25.75 -62.75 -23.0 -88.75 -22.25 -91.0 -8.0 -103.75 6.75 -103.75 21.25 -90.75 23.75 -74.5 25.0 -47.0 24.75 -6.75 23.5 25.5 Q22.5 37.0 19.75 37.5 L18.25 63.0 5.5 94.0 -5.25 94.0 -7.0 93.25 -19.0 64.25 -20.75 37.75 Q-26.5 33.75 -26.0 -7.0 L-26.25 -7.25 -26.0 -46.5 -26.25 -46.75" fill="#5d7acc" fill-rule="evenodd" stroke="none"/>
    <path d="M25.0 -47.0 Q39.5 -27.75 24.75 -6.75 L25.0 -47.0 M-26.25 -7.25 Q-40.25 -27.25 -26.25 -46.75 L-26.0 -46.5 -26.25 -7.25" fill="#293465" fill-rule="evenodd" stroke="none"/>
    <path d="M-9.75 -67.5 Q-3.25 -63.25 -9.0 -31.5 -16.25 -54.25 -13.5 -57.25 L-18.0 -56.75 -15.0 -61.5 -9.75 -67.5 M7.75 -67.75 Q10.5 -66.5 13.25 -59.75 L17.75 -56.75 18.5 -54.25 18.5 -53.0 12.75 -51.0 11.75 -43.0 8.5 -32.5 Q2.75 -54.5 7.75 -67.75" fill="#f1ffff" fill-opacity="0.36862746" fill-rule="evenodd" stroke="none"/>
  </g>
</svg>
