<?xml version="1.0" encoding="UTF-8" standalone="no"?>
<svg xmlns:ffdec="https://www.free-decompiler.com/flash" xmlns:xlink="http://www.w3.org/1999/xlink" ffdec:objectType="shape" height="198.5px" width="90.25px" xmlns="http://www.w3.org/2000/svg">
  <g transform="matrix(1.0, 0.0, 0.0, 1.0, 54.25, 104.0)">
    <path d="M35.0 -15.25 L34.75 2.0 33.0 18.25 31.25 24.0 23.0 36.75 25.25 64.0 18.25 94.5 6.25 94.0 -10.75 64.75 -16.75 48.5 Q-23.75 50.5 -45.25 24.0 -54.25 11.25 -54.25 -27.0 L-53.75 -48.0 -52.75 -55.75 -49.0 -67.75 -46.5 -72.75 -39.25 -83.25 -24.25 -98.5 Q-19.25 -103.5 -14.5 -103.5 L-1.25 -104.0 1.75 -103.5 11.75 -95.75 21.75 -86.25 Q34.5 -71.75 35.0 -29.25 L34.25 -30.0 34.0 -31.0 34.0 -31.75 33.75 -31.75 33.75 -32.5 33.5 -32.75 33.0 -33.75 33.0 -34.0 32.5 -34.5 32.5 -34.75 32.25 -35.0 32.25 -35.25 32.0 -35.5 32.0 -35.75 31.25 -37.5 30.0 -38.75 27.75 -41.75 26.25 -42.0 25.0 -38.75 24.5 -39.0 23.5 -41.25 21.5 -43.25 19.75 -45.75 18.5 -46.5 17.75 -45.75 16.25 -42.5 14.75 -45.5 10.75 -50.25 9.0 -51.0 8.0 -49.75 5.75 -40.5 5.25 -32.0 5.75 -16.0 7.5 -6.5 9.25 -3.5 10.0 -3.25 12.0 -4.75 16.0 -10.5 Q17.0 4.25 24.5 -10.0 L25.5 -5.0 27.0 -2.75 31.5 -7.75 35.0 -15.25" fill="#5d7acc" fill-rule="evenodd" stroke="none"/>
    <path d="M35.0 -15.25 L31.5 -7.75 27.0 -2.75 25.5 -5.0 24.5 -10.0 Q17.0 4.25 16.0 -10.5 L12.0 -4.75 10.0 -3.25 9.25 -3.5 7.5 -6.5 5.75 -16.0 5.25 -32.0 5.75 -40.5 8.0 -49.75 9.0 -51.0 10.75 -50.25 14.75 -45.5 16.25 -42.5 17.75 -45.75 18.5 -46.5 19.75 -45.75 21.5 -43.25 23.5 -41.25 24.5 -39.0 25.0 -38.75 26.25 -42.0 27.75 -41.75 30.0 -38.75 31.25 -37.5 32.0 -35.75 32.0 -35.5 32.25 -35.25 32.25 -35.0 32.5 -34.75 32.5 -34.5 33.0 -34.0 33.0 -33.75 33.5 -32.75 33.75 -32.5 33.75 -31.75 34.0 -31.75 34.0 -31.0 34.25 -30.0 35.0 -29.25 35.0 -28.75 35.25 -28.25 35.25 -28.0 35.5 -27.0 35.25 -25.5 35.75 -24.75 36.0 -24.25 35.5 -23.25 35.75 -22.5 35.5 -21.75 35.5 -20.75 35.75 -20.25 35.75 -19.75 35.0 -15.25" fill="#293465" fill-rule="evenodd" stroke="none"/>
    <path d="M-3.5 -56.25 L-4.25 -50.75 -13.0 -51.0 -21.5 -52.25 -22.0 -52.75 -21.0 -58.75 -20.75 -59.5 -17.75 -59.5 -5.0 -57.25 -3.5 -56.25 M-43.0 -58.75 L-39.5 -66.0 Q-30.5 -56.0 -41.5 -32.0 L-43.0 -45.25 -43.0 -51.75 -42.0 -57.75 -42.0 -58.5 -43.0 -58.75" fill="#f1ffff" fill-opacity="0.36862746" fill-rule="evenodd" stroke="none"/>
  </g>
</svg>
