<?xml version="1.0" encoding="UTF-8" standalone="no"?>
<svg xmlns:ffdec="https://www.free-decompiler.com/flash" xmlns:xlink="http://www.w3.org/1999/xlink" ffdec:objectType="shape" height="199.1px" width="131.8px" xmlns="http://www.w3.org/2000/svg">
  <g transform="matrix(1.0, 0.0, 0.0, 1.0, 78.55, 103.85)">
    <path d="M8.0 -99.5 Q43.75 -76.25 49.5 -56.25 L51.25 -49.25 53.25 -31.75 53.25 -7.0 51.5 9.25 Q52.75 21.75 26.75 39.25 L31.5 63.75 30.25 95.25 18.75 94.5 -1.75 65.75 -12.25 49.25 -32.0 47.0 Q-43.75 44.25 -46.75 41.25 L-53.0 35.5 -69.0 16.5 -74.25 6.5 Q-82.0 -16.75 -75.75 -55.5 -62.75 -85.25 -30.0 -101.25 -3.0 -107.25 8.0 -99.5 M9.5 -23.5 Q11.25 -2.25 19.0 -3.25 30.75 -17.75 28.25 -26.5 25.75 -43.5 17.25 -46.75 10.5 -45.5 9.5 -28.5 7.5 -48.0 -4.5 -51.0 -10.75 -50.25 -12.25 -29.5 -11.0 -4.25 -2.75 -3.25 9.0 -11.25 9.5 -23.5 M34.25 -42.75 Q31.0 -41.5 29.5 -32.25 L29.0 -18.75 Q30.75 -2.75 35.75 -2.75 45.0 -9.75 45.25 -23.75 42.75 -41.0 34.25 -42.75" fill="#5d7acc" fill-rule="evenodd" stroke="none"/>
    <path d="M34.25 -42.75 Q42.75 -41.0 45.25 -23.75 45.0 -9.75 35.75 -2.75 30.75 -2.75 29.0 -18.75 L29.5 -32.25 Q31.0 -41.5 34.25 -42.75 M9.5 -23.5 Q9.0 -11.25 -2.75 -3.25 -11.0 -4.25 -12.25 -29.5 -10.75 -50.25 -4.5 -51.0 7.5 -48.0 9.5 -28.5 10.5 -45.5 17.25 -46.75 25.75 -43.5 28.25 -26.5 30.75 -17.75 19.0 -3.25 11.25 -2.25 9.5 -23.5" fill="#293465" fill-rule="evenodd" stroke="none"/>
    <path d="M-28.25 -53.25 L-30.5 -40.5 -34.0 -28.75 -34.75 -29.25 -37.0 -38.75 -38.0 -40.25 -38.5 -45.5 -41.5 -52.25 -41.5 -54.5 Q-42.0 -59.75 -27.5 -66.0 L-28.25 -53.25" fill="#f1ffff" fill-opacity="0.36862746" fill-rule="evenodd" stroke="none"/>
  </g>
</svg>
