<?xml version="1.0" encoding="UTF-8" standalone="no"?>
<svg xmlns:ffdec="https://www.free-decompiler.com/flash" xmlns:xlink="http://www.w3.org/1999/xlink" ffdec:objectType="shape" height="199.65px" width="168.4px" xmlns="http://www.w3.org/2000/svg">
  <g transform="matrix(1.0, 0.0, 0.0, 1.0, 97.8, 103.15)">
    <path d="M-15.0 -51.0 Q-28.5 -48.25 -29.0 -29.75 -26.75 -5.0 -17.5 -3.75 -15.25 -2.0 -9.0 -5.25 L-4.5 -10.5 -0.75 -21.0 -0.25 -27.25 Q-5.25 -51.75 -14.5 -50.75 L-15.0 -51.0 M15.25 -47.0 Q4.5 -45.0 3.5 -29.0 2.0 -10.5 13.25 -3.5 24.25 -2.0 28.0 -21.75 29.0 -39.5 15.75 -46.75 L15.25 -47.0 M42.5 -43.25 Q31.25 -39.0 32.75 -20.75 36.25 -1.5 43.0 -2.75 55.5 -9.75 54.0 -25.75 49.0 -43.75 42.5 -43.25 M46.0 35.5 L30.25 42.5 36.25 63.25 41.75 96.5 31.0 95.25 -9.75 49.25 Q-54.75 47.25 -65.0 39.0 L-76.5 30.25 -82.25 24.25 -88.75 14.25 Q-101.5 -4.25 -96.25 -49.25 -91.75 -76.25 -54.25 -94.5 -22.25 -107.25 3.5 -101.25 36.0 -93.5 62.5 -61.0 75.0 -40.75 68.25 7.25 L64.0 17.75 50.75 32.25 46.0 35.5" fill="#5d7acc" fill-rule="evenodd" stroke="none"/>
    <path d="M42.5 -43.25 Q49.0 -43.75 54.0 -25.75 55.5 -9.75 43.0 -2.75 36.25 -1.5 32.75 -20.75 31.25 -39.0 42.5 -43.25 M15.25 -47.0 L15.75 -46.75 Q29.0 -39.5 28.0 -21.75 24.25 -2.0 13.25 -3.5 2.0 -10.5 3.5 -29.0 4.5 -45.0 15.25 -47.0 M-15.0 -51.0 L-14.5 -50.75 Q-5.25 -51.75 -0.25 -27.25 L-0.75 -21.0 -4.5 -10.5 -9.0 -5.25 Q-15.25 -2.0 -17.5 -3.75 -26.75 -5.0 -29.0 -29.75 -28.5 -48.25 -15.0 -51.0" fill="#293465" fill-rule="evenodd" stroke="none"/>
    <path d="M-32.75 -73.5 L-36.75 -78.25 Q-33.5 -82.0 -30.5 -82.0 -31.0 -74.25 -32.75 -73.5 M-38.5 -77.0 L-38.0 -76.75 -42.25 -60.0 -53.25 -26.0 -55.0 -22.25 Q-58.25 -25.0 -60.5 -17.75 -67.0 -33.5 -62.5 -56.75 -59.5 -67.25 -38.5 -77.0 M-76.25 -51.5 L-79.5 -49.5 -83.75 -32.25 Q-92.25 -51.75 -78.0 -65.25 L-77.5 -65.5 -77.0 -63.75 -77.25 -59.5 Q-74.5 -56.75 -75.75 -54.5 L-76.25 -51.5" fill="#f1ffff" fill-opacity="0.36862746" fill-rule="evenodd" stroke="none"/>
  </g>
</svg>
