<?xml version="1.0" encoding="UTF-8" standalone="no"?>
<svg xmlns:ffdec="https://www.free-decompiler.com/flash" xmlns:xlink="http://www.w3.org/1999/xlink" ffdec:objectType="shape" height="201.25px" width="201.8px" xmlns="http://www.w3.org/2000/svg">
  <g transform="matrix(1.0, 0.0, 0.0, 1.0, 115.35, 103.0)">
    <path d="M80.5 -54.25 L84.25 -43.25 Q89.0 -28.0 83.5 6.0 74.75 36.75 32.75 44.5 L52.0 98.25 42.5 96.75 -10.75 48.25 Q-53.25 48.5 -78.75 37.5 L-87.5 32.25 -99.0 23.0 -104.0 17.0 -109.25 7.5 -112.75 -5.0 -115.25 -27.0 Q-116.75 -59.5 -98.5 -73.0 -68.0 -99.0 -15.75 -103.0 30.0 -102.0 68.75 -70.25 L77.5 -59.5 80.5 -54.25 M50.5 -3.0 Q64.25 -10.0 62.0 -27.25 59.25 -44.0 46.25 -44.0 32.5 -35.75 35.75 -18.75 39.75 -1.75 50.5 -3.0 M-25.25 -3.25 Q-7.0 -10.0 -9.0 -29.0 -13.25 -49.5 -26.25 -50.5 -43.75 -49.0 -44.25 -26.75 -43.25 -6.25 -25.25 -3.25 M13.25 -3.0 Q28.0 -8.5 27.75 -22.0 27.0 -45.0 12.5 -47.25 -5.5 -43.0 -2.75 -20.75 3.75 -1.25 13.25 -3.0" fill="#5d7acc" fill-rule="evenodd" stroke="none"/>
    <path d="M13.25 -3.0 Q3.75 -1.25 -2.75 -20.75 -5.5 -43.0 12.5 -47.25 27.0 -45.0 27.75 -22.0 28.0 -8.5 13.25 -3.0 M-25.25 -3.25 Q-43.25 -6.25 -44.25 -26.75 -43.75 -49.0 -26.25 -50.5 -13.25 -49.5 -9.0 -29.0 -7.0 -10.0 -25.25 -3.25 M50.5 -3.0 Q39.75 -1.75 35.75 -18.75 32.5 -35.75 46.25 -44.0 59.25 -44.0 62.0 -27.25 64.25 -10.0 50.5 -3.0" fill="#293465" fill-rule="evenodd" stroke="none"/>
    <path d="M-12.5 -89.0 Q-14.25 -80.75 -16.25 -80.5 L-16.25 -78.5 -23.0 -78.5 -23.75 -75.75 Q-27.25 -67.75 -28.5 -67.25 L-29.25 -61.0 Q-30.75 -61.5 -33.25 -67.25 L-36.25 -79.0 -35.75 -64.25 -36.5 -56.5 -38.25 -49.0 -39.75 -52.75 -41.0 -53.5 -44.25 -47.75 Q-45.5 -48.0 -46.0 -52.25 L-47.0 -52.5 -47.5 -46.5 Q-53.5 -43.75 -53.75 -50.5 L-59.75 -48.5 Q-65.5 -45.25 -75.25 -25.25 L-75.5 -34.25 -82.5 -25.5 -84.5 -26.5 -85.0 -27.75 -85.0 -45.25 -82.75 -48.0 Q-79.5 -53.25 -81.25 -55.75 L-78.75 -61.25 -74.25 -65.75 -65.75 -72.25 -51.25 -80.5 -38.25 -85.0 Q-36.2 -85.6 -36.15 -82.05 L-36.0 -85.75 -29.75 -88.25 -19.5 -90.75 -12.5 -91.5 -12.5 -89.0 M-94.75 -56.25 Q-89.75 -54.0 -90.0 -52.5 L-90.75 -50.0 -99.0 -48.0 -100.0 -44.5 -105.5 -33.75 Q-110.0 -47.75 -97.5 -65.0 L-95.5 -61.25 -94.75 -56.25" fill="#f1ffff" fill-opacity="0.36862746" fill-rule="evenodd" stroke="none"/>
  </g>
</svg>
