<?xml version="1.0" encoding="UTF-8" standalone="no"?>
<svg xmlns:ffdec="https://www.free-decompiler.com/flash" xmlns:xlink="http://www.w3.org/1999/xlink" ffdec:objectType="shape" height="202.25px" width="227.85px" xmlns="http://www.w3.org/2000/svg">
  <g transform="matrix(1.0, 0.0, 0.0, 1.0, 127.75, 102.0)">
    <path d="M-2.25 -101.75 L26.25 -96.75 Q56.75 -90.5 81.0 -72.5 110.0 -44.0 95.0 10.25 L89.25 21.75 79.25 31.5 69.75 36.25 36.5 45.25 60.75 100.25 52.0 98.0 -11.0 47.75 -28.75 48.0 -44.75 46.25 -65.75 43.25 -72.75 41.75 -85.5 37.5 Q-91.5 34.4 -97.5 31.25 L-107.25 24.5 Q-125.0 11.0 -127.0 -16.75 -130.75 -50.25 -115.75 -64.75 -91.0 -90.25 -26.25 -102.0 L-2.25 -101.75 M50.25 -3.25 Q65.0 0.0 69.5 -22.75 68.25 -42.5 53.75 -44.75 L52.75 -45.0 Q37.75 -41.25 36.75 -28.5 37.5 -5.25 50.25 -3.25 M-35.0 -3.25 Q-13.75 -10.75 -16.5 -27.5 -18.75 -47.0 -36.0 -50.0 L-36.75 -50.0 Q-56.5 -47.5 -57.25 -27.0 -53.0 -2.5 -35.0 -3.25 M10.0 -3.0 Q25.75 -3.5 27.25 -27.25 26.5 -33.5 23.75 -38.0 L19.0 -43.75 13.5 -46.75 9.5 -47.5 8.75 -47.5 Q-11.5 -43.25 -9.0 -21.25 -2.0 -1.5 10.0 -3.0" fill="#5d7acc" fill-rule="evenodd" stroke="none"/>
    <path d="M10.0 -3.0 Q-2.0 -1.5 -9.0 -21.25 -11.5 -43.25 8.75 -47.5 L9.5 -47.5 13.5 -46.75 19.0 -43.75 23.75 -38.0 Q26.5 -33.5 27.25 -27.25 25.75 -3.5 10.0 -3.0 M-35.0 -3.25 Q-53.0 -2.5 -57.25 -27.0 -56.5 -47.5 -36.75 -50.0 L-36.0 -50.0 Q-18.75 -47.0 -16.5 -27.5 -13.75 -10.75 -35.0 -3.25 M50.25 -3.25 Q37.5 -5.25 36.75 -28.5 37.75 -41.25 52.75 -45.0 L53.75 -44.75 Q68.25 -42.5 69.5 -22.75 65.0 0.0 50.25 -3.25" fill="#293465" fill-rule="evenodd" stroke="none"/>
    <path d="M-0.25 -92.0 L8.75 -91.25 12.75 -81.25 16.25 -70.75 21.25 -51.25 14.0 -49.25 6.75 -49.75 6.0 -69.5 Q0.0 -77.25 -0.25 -83.25 L-0.25 -92.0 M-2.25 -87.25 L-3.5 -80.5 -6.0 -75.0 Q-8.0 -71.25 -9.25 -71.75 L-9.75 -68.0 -14.0 -57.0 -15.0 -56.75 Q-15.0 -61.75 -16.25 -63.0 L-16.5 -56.25 Q-16.5 -55.25 -21.25 -53.25 L-22.5 -53.25 -24.0 -60.5 -24.75 -52.5 -25.5 -52.25 Q-31.0 -57.75 -32.25 -57.0 L-38.25 -54.75 Q-38.0 -49.75 -40.0 -49.75 -45.75 -54.25 -45.75 -85.0 -26.25 -94.0 -2.75 -92.0 L-2.25 -87.25 M-93.75 -58.25 Q-73.0 -79.5 -51.25 -83.0 L-50.25 -80.25 -48.0 -64.75 -48.75 -46.5 -50.25 -44.75 Q-51.5 -51.5 -53.25 -51.5 L-54.25 -48.5 -57.25 -44.5 -59.0 -50.25 -60.25 -52.0 -60.75 -45.25 -65.25 -39.0 -67.75 -45.5 -75.0 -48.5 -79.5 -48.5 -83.75 -42.0 -85.25 -45.75 -83.5 -53.25 -84.25 -53.75 -87.5 -50.25 -88.0 -56.75 Q-91.25 -56.25 -93.75 -58.25 M-97.75 -52.25 L-100.5 -46.5 -115.25 -47.25 -115.75 -53.5 -106.75 -54.0 -98.5 -53.25 -97.75 -52.25" fill="#f1ffff" fill-opacity="0.36862746" fill-rule="evenodd" stroke="none"/>
  </g>
</svg>
