<?xml version="1.0" encoding="UTF-8" standalone="no"?>
<svg xmlns:ffdec="https://www.free-decompiler.com/flash" xmlns:xlink="http://www.w3.org/1999/xlink" ffdec:objectType="shape" height="204.4px" width="246.95px" xmlns="http://www.w3.org/2000/svg">
  <g transform="matrix(1.0, 0.0, 0.0, 1.0, 133.95, 101.9)">
    <path d="M6.25 -3.0 Q26.25 -7.0 26.0 -26.25 24.0 -45.25 6.0 -47.0 L5.25 -47.5 Q-13.25 -47.0 -15.0 -24.75 -11.75 -3.75 6.25 -3.0 M-33.25 47.5 L-56.0 44.75 -69.5 42.5 -90.0 36.5 -103.5 29.75 -115.75 21.25 Q-129.0 13.0 -133.25 -17.75 -137.0 -46.75 -121.0 -62.75 -88.0 -92.0 -25.0 -101.5 34.0 -105.25 91.75 -74.5 122.75 -50.25 108.5 9.5 102.5 25.0 89.25 32.5 L77.25 37.5 39.75 46.0 67.75 102.5 61.25 100.5 -10.75 47.5 -33.25 47.5 M-45.25 -49.25 Q-66.75 -47.0 -67.25 -26.0 -61.0 -1.0 -42.75 -3.25 -22.75 -7.75 -23.0 -27.5 -26.75 -48.25 -44.5 -48.75 L-45.25 -49.25 M57.25 -3.0 Q75.0 -7.75 74.5 -24.5 69.75 -47.0 56.0 -45.75 L55.25 -45.75 Q38.0 -45.5 36.75 -22.25 43.5 -0.5 57.25 -3.0" fill="#5d7acc" fill-rule="evenodd" stroke="none"/>
    <path d="M6.25 -3.0 Q-11.75 -3.75 -15.0 -24.75 -13.25 -47.0 5.25 -47.5 L6.0 -47.0 Q24.0 -45.25 26.0 -26.25 26.25 -7.0 6.25 -3.0 M57.25 -3.0 Q43.5 -0.5 36.75 -22.25 38.0 -45.5 55.25 -45.75 L56.0 -45.75 Q69.75 -47.0 74.5 -24.5 75.0 -7.75 57.25 -3.0 M-45.25 -49.25 L-44.5 -48.75 Q-26.75 -48.25 -23.0 -27.5 -22.75 -7.75 -42.75 -3.25 -61.0 -1.0 -67.25 -26.0 -66.75 -47.0 -45.25 -49.25" fill="#293465" fill-rule="evenodd" stroke="none"/>
    <path d="M57.0 -65.5 L55.5 -45.75 54.0 -45.75 53.75 -55.75 54.25 -62.75 56.75 -76.0 57.0 -65.5 M1.25 -92.0 L8.25 -91.25 14.75 -78.75 22.5 -59.75 24.75 -58.25 29.0 -52.75 29.75 -47.25 28.0 -42.25 30.25 -31.75 30.75 -21.0 25.75 -23.25 Q27.75 -33.5 17.5 -43.25 L10.25 -47.0 1.5 -47.25 1.0 -52.75 Q-4.5 -59.75 -6.0 -65.25 L-15.25 -68.5 Q-18.5 -58.5 -21.0 -56.5 L-22.5 -65.0 Q-23.75 -64.25 -23.25 -57.5 L-29.5 -58.5 -30.25 -58.75 -31.0 -66.75 -32.0 -67.0 Q-31.75 -61.5 -32.75 -61.0 L-36.5 -72.75 -37.75 -88.5 -25.0 -91.25 -13.0 -92.0 1.25 -92.0 M-97.0 -63.0 Q-99.75 -43.0 -114.75 -29.25 L-116.5 -35.75 Q-115.75 -42.25 -118.0 -46.25 L-117.5 -49.75 -115.25 -52.0 -114.25 -54.25 -107.0 -58.5 -97.0 -63.0 M-85.25 -70.0 Q-83.5 -73.0 -75.75 -75.0 -73.75 -72.5 -77.75 -52.0 L-79.25 -56.75 Q-84.0 -60.75 -84.0 -62.25 L-84.75 -62.5 -86.25 -61.25 -85.25 -70.0" fill="#f1ffff" fill-opacity="0.36862746" fill-rule="evenodd" stroke="none"/>
  </g>
</svg>
