<?xml version="1.0" encoding="UTF-8" standalone="no"?>
<svg xmlns:ffdec="https://www.free-decompiler.com/flash" xmlns:xlink="http://www.w3.org/1999/xlink" ffdec:objectType="shape" height="206.2px" width="258.7px" xmlns="http://www.w3.org/2000/svg">
  <g transform="matrix(1.0, 0.0, 0.0, 1.0, 134.65, 101.2)">
    <path d="M13.25 -6.25 Q28.75 -21.5 22.0 -33.75 15.5 -47.5 1.75 -47.75 L1.25 -47.5 Q-23.25 -43.25 -19.75 -20.25 -10.25 3.5 13.25 -6.25 M-22.75 47.5 L-42.0 46.25 -68.0 42.5 -77.5 40.5 -91.0 36.0 -102.25 30.5 -115.0 22.25 Q-129.25 14.0 -133.75 -15.5 -137.5 -41.0 -125.25 -57.75 -85.5 -93.75 -24.0 -101.0 56.5 -103.75 105.0 -72.75 118.0 -62.75 123.0 -38.0 127.0 -5.25 116.0 15.25 112.0 25.5 91.75 35.75 L82.5 38.75 41.5 46.75 72.25 105.0 67.75 102.75 -9.5 47.5 -22.75 47.5 M-51.75 -48.5 Q-72.25 -48.0 -74.0 -24.75 -74.25 -5.75 -48.75 -3.25 -25.25 -11.0 -28.75 -29.0 -36.75 -50.5 -51.0 -48.0 L-51.75 -48.5 M57.25 -3.0 Q76.25 -6.0 77.25 -25.0 72.75 -47.25 56.25 -46.75 L55.5 -46.75 Q32.0 -40.5 35.25 -22.5 38.25 -4.5 57.25 -3.0" fill="#5d7acc" fill-rule="evenodd" stroke="none"/>
    <path d="M13.25 -6.25 Q-10.25 3.5 -19.75 -20.25 -23.25 -43.25 1.25 -47.5 L1.75 -47.75 Q15.5 -47.5 22.0 -33.75 28.75 -21.5 13.25 -6.25 M57.25 -3.0 Q38.25 -4.5 35.25 -22.5 32.0 -40.5 55.5 -46.75 L56.25 -46.75 Q72.75 -47.25 77.25 -25.0 76.25 -6.0 57.25 -3.0 M-51.75 -48.5 L-51.0 -48.0 Q-36.75 -50.5 -28.75 -29.0 -25.25 -11.0 -48.75 -3.25 -74.25 -5.75 -74.0 -24.75 -72.25 -48.0 -51.75 -48.5" fill="#293465" fill-rule="evenodd" stroke="none"/>
    <path d="M81.75 -77.75 L92.0 -72.75 92.5 -54.75 93.75 -48.75 93.75 -38.75 92.5 -30.75 86.75 -11.25 86.0 -13.25 86.5 -53.0 80.5 -53.5 78.25 -46.5 76.5 -52.25 75.25 -61.25 75.25 -68.5 76.5 -79.0 Q79.0 -77.9 81.75 -77.75 M58.5 -84.5 L71.5 -80.75 Q74.25 -66.0 67.75 -47.5 L67.0 -47.0 65.0 -53.5 64.25 -54.25 58.5 -55.0 57.75 -46.5 Q42.75 -46.75 37.5 -35.0 24.25 -41.25 30.0 -57.75 38.75 -68.5 49.5 -70.25 L52.75 -84.75 58.5 -84.5 M0.5 -91.0 L8.0 -79.25 19.0 -58.75 Q29.5 -37.25 28.0 -22.0 L23.75 -26.25 Q23.5 -33.5 18.0 -40.25 L13.75 -44.0 9.75 -46.0 8.75 -46.25 3.75 -56.25 -1.0 -70.75 -2.25 -78.25 -2.25 -91.5 0.5 -91.0 M-88.0 -67.25 L-97.75 -47.0 -108.5 -28.5 Q-110.0 -25.25 -111.75 -29.5 L-119.25 -23.25 -121.75 -23.75 -122.5 -33.75 -122.0 -41.25 Q-120.75 -42.0 -118.5 -51.25 -115.25 -61.0 -71.25 -78.0 L-71.25 -72.25 -72.5 -72.0 Q-72.5 -69.75 -77.5 -62.75 L-79.0 -63.75 Q-78.75 -61.5 -79.75 -61.5 L-86.25 -66.75 -88.0 -67.25" fill="#f1ffff" fill-opacity="0.36862746" fill-rule="evenodd" stroke="none"/>
  </g>
</svg>
