<?xml version="1.0" encoding="UTF-8" standalone="no"?>
<svg xmlns:ffdec="https://www.free-decompiler.com/flash" xmlns:xlink="http://www.w3.org/1999/xlink" ffdec:objectType="shape" height="208.55px" width="263.35px" xmlns="http://www.w3.org/2000/svg">
  <g transform="matrix(1.0, 0.0, 0.0, 1.0, 132.35, 100.8)">
    <path d="M124.75 11.0 Q117.75 26.25 101.75 34.25 L94.75 37.25 85.0 40.0 41.5 47.5 74.25 107.75 -9.75 47.75 -31.75 46.75 -55.75 43.75 -74.75 40.25 -91.5 34.75 -101.25 29.75 -113.75 21.5 Q-129.75 7.0 -130.75 -9.75 -136.0 -34.5 -124.25 -54.5 -82.25 -92.5 -28.25 -99.75 57.0 -105.75 108.0 -77.0 L118.75 -66.5 124.25 -57.25 129.0 -44.25 Q134.5 -13.0 124.75 11.0 M-2.0 -3.0 Q20.0 -5.75 20.0 -27.5 16.75 -46.75 -3.0 -47.5 -22.75 -46.75 -24.5 -24.0 -23.25 -5.75 -2.0 -3.0 M63.25 -4.75 Q79.25 -13.5 76.25 -30.25 67.75 -49.75 54.25 -47.75 L53.5 -47.5 Q29.5 -43.25 32.5 -20.0 43.5 2.75 63.25 -4.75 M-55.0 -3.0 Q-33.0 -5.75 -33.0 -27.5 -36.25 -46.75 -56.0 -47.5 -75.75 -46.0 -77.75 -25.5 -76.75 -5.0 -55.0 -3.0" fill="#5d7acc" fill-rule="evenodd" stroke="none"/>
    <path d="M-2.0 -3.0 Q-23.25 -5.75 -24.5 -24.0 -22.75 -46.75 -3.0 -47.5 16.75 -46.75 20.0 -27.5 20.0 -5.75 -2.0 -3.0 M63.25 -4.75 Q43.5 2.75 32.5 -20.0 29.5 -43.25 53.5 -47.5 L54.25 -47.75 Q67.75 -49.75 76.25 -30.25 79.25 -13.5 63.25 -4.75 M-55.0 -3.0 Q-76.75 -5.0 -77.75 -25.5 -75.75 -46.0 -56.0 -47.5 -36.25 -46.75 -33.0 -27.5 -33.0 -5.75 -55.0 -3.0" fill="#293465" fill-rule="evenodd" stroke="none"/>
    <path d="M70.5 -82.25 L71.0 -71.25 69.5 -64.0 66.5 -58.0 65.5 -57.75 64.25 -64.25 Q58.75 -69.75 56.0 -79.5 L56.25 -70.75 55.5 -57.75 54.0 -47.5 Q49.0 -51.75 55.75 -85.25 L58.5 -85.5 68.75 -83.25 70.5 -82.25 M74.0 -65.25 L75.0 -81.5 Q105.25 -76.75 117.25 -52.25 118.5 -46.5 101.75 -20.0 L96.25 -14.5 Q95.25 -12.75 89.25 -14.0 L87.0 -12.5 86.25 -19.25 86.0 -48.5 80.5 -52.25 77.5 -47.25 74.75 -57.75 74.0 -65.25 M-36.25 -83.75 L-39.0 -75.25 -41.25 -71.5 -42.5 -74.5 -42.5 -69.0 -51.0 -66.5 Q-53.75 -61.5 -57.75 -58.5 L-58.75 -52.0 -59.75 -52.0 -66.25 -57.0 -67.0 -51.0 -69.5 -43.5 Q-71.25 -42.75 -73.0 -47.5 L-77.75 -42.75 -80.25 -47.25 Q-81.5 -47.25 -81.75 -42.25 L-86.75 -42.25 -88.75 -46.0 -96.0 -45.5 -101.5 -41.5 Q-105.75 -32.5 -109.25 -31.75 -110.5 -32.5 -109.25 -38.0 L-114.5 -33.25 Q-117.75 -36.5 -119.0 -35.25 L-122.0 -38.25 -118.5 -45.5 -117.75 -47.5 -118.25 -48.25 Q-117.0 -48.0 -115.5 -52.25 L-110.5 -57.25 Q-88.75 -76.25 -36.0 -88.5 L-36.25 -83.75" fill="#f1ffff" fill-opacity="0.36862746" fill-rule="evenodd" stroke="none"/>
  </g>
</svg>
