<?xml version="1.0" encoding="UTF-8" standalone="no"?>
<svg xmlns:ffdec="https://www.free-decompiler.com/flash" xmlns:xlink="http://www.w3.org/1999/xlink" ffdec:objectType="shape" height="212.15px" width="258.5px" xmlns="http://www.w3.org/2000/svg">
  <g transform="matrix(1.0, 0.0, 0.0, 1.0, 125.45, 101.4)">
    <path d="M-7.25 -47.5 Q-27.0 -45.25 -28.0 -23.25 -25.75 -5.0 -5.75 -3.0 14.5 -5.0 15.75 -27.0 13.25 -46.5 -6.5 -47.5 L-7.25 -47.5 M-32.25 46.25 L-51.5 43.5 -68.5 40.25 -86.25 34.5 -93.75 30.75 -107.25 21.75 Q-123.0 9.25 -124.75 -15.75 -128.25 -41.0 -113.75 -57.5 -75.0 -92.25 -18.25 -100.25 60.75 -106.5 111.25 -78.25 145.0 -51.5 126.5 11.75 119.75 26.75 101.75 35.75 L93.5 39.0 85.75 41.0 42.0 47.75 73.5 106.0 Q75.25 107.5 73.75 110.75 L-11.25 47.25 -32.25 46.25 M-58.25 -46.5 Q-81.5 -40.0 -77.75 -19.5 -69.5 -0.25 -52.5 -3.5 -33.25 -11.5 -36.25 -29.5 -44.25 -49.0 -57.25 -46.75 L-58.25 -46.5 M50.25 -3.0 Q72.25 -5.75 73.25 -26.75 70.75 -47.5 50.0 -48.0 L49.25 -48.5 Q29.5 -46.5 27.75 -24.75 30.5 -4.25 50.25 -3.0" fill="#5d7acc" fill-rule="evenodd" stroke="none"/>
    <path d="M-7.25 -47.5 L-6.5 -47.5 Q13.25 -46.5 15.75 -27.0 14.5 -5.0 -5.75 -3.0 -25.75 -5.0 -28.0 -23.25 -27.0 -45.25 -7.25 -47.5 M50.25 -3.0 Q30.5 -4.25 27.75 -24.75 29.5 -46.5 49.25 -48.5 L50.0 -48.0 Q70.75 -47.5 73.25 -26.75 72.25 -5.75 50.25 -3.0 M-58.25 -46.5 L-57.25 -46.75 Q-44.25 -49.0 -36.25 -29.5 -33.25 -11.5 -52.5 -3.5 -69.5 -0.25 -77.75 -19.5 -81.5 -40.0 -58.25 -46.5" fill="#293465" fill-rule="evenodd" stroke="none"/>
    <path d="M85.5 -73.5 Q84.0 -73.75 83.0 -80.0 107.0 -76.0 117.75 -55.25 122.0 -47.75 121.25 -26.5 L104.75 -21.0 Q97.25 -18.75 92.5 -31.75 L89.5 -43.75 84.75 -53.25 85.5 -73.5 M-6.5 -90.25 L4.25 -66.75 9.25 -52.75 12.0 -42.5 7.75 -42.5 Q4.75 -45.75 -1.5 -47.25 L-9.75 -47.25 -10.5 -65.25 Q-16.75 -71.0 -18.25 -78.25 L-18.75 -82.75 -17.75 -90.25 Q-11.0 -92.75 -6.5 -90.25 M-19.0 -84.75 L-19.75 -78.0 -22.25 -72.0 Q-25.0 -67.0 -28.0 -66.0 L-29.5 -60.5 -33.25 -53.5 -34.25 -53.25 Q-34.5 -59.25 -35.75 -59.5 L-36.25 -52.0 -42.5 -50.0 -43.5 -56.25 -44.5 -57.5 -45.25 -49.5 -51.5 -53.5 -53.75 -53.5 -59.5 -51.75 Q-58.75 -50.5 -60.25 -46.25 -67.0 -51.75 -68.0 -77.75 -47.0 -89.0 -20.25 -90.5 L-19.0 -84.75 M-84.0 -70.5 L-71.0 -76.25 Q-67.25 -71.25 -70.75 -44.75 L-71.75 -43.25 Q-71.5 -46.25 -74.25 -49.5 L-77.25 -45.0 -79.0 -43.75 -79.0 -45.25 -81.05 -49.2 Q-80.9 -47.95 -81.75 -44.75 L-86.5 -39.5 -88.25 -44.75 -94.5 -47.5 -97.25 -47.5 Q-99.0 -43.5 -100.0 -43.75 L-102.0 -47.25 -101.0 -51.0 -103.25 -49.25 Q-103.0 -56.25 -108.0 -53.75 L-92.5 -65.75 -84.0 -70.5" fill="#f1ffff" fill-opacity="0.36862746" fill-rule="evenodd" stroke="none"/>
  </g>
</svg>
