<?xml version="1.0" encoding="UTF-8" standalone="no"?>
<svg xmlns:ffdec="https://www.free-decompiler.com/flash" xmlns:xlink="http://www.w3.org/1999/xlink" ffdec:objectType="shape" height="215.55px" width="246.85px" xmlns="http://www.w3.org/2000/svg">
  <g transform="matrix(1.0, 0.0, 0.0, 1.0, 114.45, 101.8)">
    <path d="M42.75 -49.25 Q24.0 -47.5 22.0 -24.75 22.5 -5.75 45.75 -3.25 68.0 -9.5 66.25 -29.0 64.5 -47.5 43.5 -49.25 L42.75 -49.25 M-30.25 -23.5 Q-27.75 -4.5 -9.5 -3.0 11.25 -7.5 10.75 -27.0 9.25 -46.0 -10.5 -47.5 -28.75 -45.5 -30.25 -23.5 M-31.75 45.75 L-42.75 44.0 -64.5 39.25 -71.25 37.25 -81.75 32.75 -91.5 26.75 -99.5 20.25 Q-112.25 12.25 -114.25 -21.0 -116.25 -45.25 -99.5 -60.5 -62.75 -94.0 -9.0 -100.75 73.0 -107.0 113.75 -76.5 123.25 -71.5 131.5 -41.75 135.25 -3.5 123.75 15.5 118.75 26.75 99.75 36.75 L83.75 41.75 41.25 48.0 72.5 109.0 Q75.25 111.25 69.75 113.75 L-11.5 47.5 -13.75 46.75 -31.75 45.75 M-57.75 -45.75 Q-73.75 -44.0 -75.75 -23.5 -75.0 -5.0 -55.5 -3.0 -34.5 -10.5 -37.5 -27.25 -44.25 -48.75 -57.0 -45.75 L-57.75 -45.75" fill="#5d7acc" fill-rule="evenodd" stroke="none"/>
    <path d="M42.75 -49.25 L43.5 -49.25 Q64.5 -47.5 66.25 -29.0 68.0 -9.5 45.75 -3.25 22.5 -5.75 22.0 -24.75 24.0 -47.5 42.75 -49.25 M-30.25 -23.5 Q-28.75 -45.5 -10.5 -47.5 9.25 -46.0 10.75 -27.0 11.25 -7.5 -9.5 -3.0 -27.75 -4.5 -30.25 -23.5 M-57.75 -45.75 L-57.0 -45.75 Q-44.25 -48.75 -37.5 -27.25 -34.5 -10.5 -55.5 -3.0 -75.0 -5.0 -75.75 -23.5 -73.75 -44.0 -57.75 -45.75" fill="#293465" fill-rule="evenodd" stroke="none"/>
    <path d="M44.5 -51.75 L44.25 -49.5 40.25 -48.75 39.75 -49.0 40.5 -58.5 42.0 -67.75 44.5 -76.5 45.0 -75.75 44.5 -51.75 M94.25 -74.0 Q123.75 -69.5 114.25 -22.5 103.0 -30.0 98.5 -39.75 L95.75 -49.75 94.75 -57.25 94.25 -74.0 M-7.5 -91.25 L1.5 -74.25 6.5 -62.25 Q6.5 -60.5 15.5 -55.5 L20.25 -48.75 Q22.75 -40.75 15.0 -36.0 L16.75 -30.25 17.75 -17.0 10.25 -21.25 Q11.75 -35.5 5.0 -41.0 -2.25 -49.25 -13.75 -47.0 L-14.75 -52.75 -18.25 -57.75 -21.5 -64.5 -30.25 -67.0 -33.25 -60.25 -36.25 -56.75 -37.0 -62.0 -37.5 -63.5 -37.75 -57.5 -44.25 -59.0 -45.0 -65.5 Q-45.25 -61.25 -46.5 -61.25 L-48.0 -64.75 -50.5 -73.25 -51.75 -82.5 -46.5 -84.75 -30.5 -89.0 -13.75 -91.5 -7.5 -91.25 M-88.75 -58.75 L-88.75 -61.75 Q-89.5 -63.0 -86.25 -64.0 L-86.5 -64.5 -83.0 -66.25 -82.25 -65.75 -84.65 -53.0 Q-84.7 -54.7 -88.75 -58.75" fill="#f1ffff" fill-opacity="0.36862746" fill-rule="evenodd" stroke="none"/>
  </g>
</svg>
