<?xml version="1.0" encoding="UTF-8" standalone="no"?>
<svg xmlns:ffdec="https://www.free-decompiler.com/flash" xmlns:xlink="http://www.w3.org/1999/xlink" ffdec:objectType="shape" height="218.7px" width="227.85px" xmlns="http://www.w3.org/2000/svg">
  <g transform="matrix(1.0, 0.0, 0.0, 1.0, 100.85, 102.2)">
    <path d="M126.5 -34.5 Q129.25 -9.75 117.0 17.75 L109.25 27.75 105.5 31.25 95.0 37.75 88.25 40.5 79.25 42.75 39.0 48.25 68.75 112.5 69.25 114.0 62.75 116.5 -11.75 47.25 Q-65.25 40.25 -75.75 30.0 L-81.5 25.75 -88.0 19.5 -94.25 10.75 Q-105.75 -12.0 -97.25 -44.0 -87.75 -66.0 -50.5 -87.0 -21.25 -106.0 44.0 -101.25 102.75 -95.25 116.25 -69.5 L122.25 -56.75 124.25 -50.0 126.5 -34.5 M36.75 -3.25 Q58.0 -9.75 56.25 -29.25 54.25 -49.0 34.5 -50.0 25.75 -48.5 23.75 -45.25 L18.25 -38.25 15.5 -30.0 15.75 -21.5 Q21.25 -1.75 36.75 -3.25 M-54.5 -45.0 Q-70.5 -41.5 -70.5 -22.25 -66.0 -0.5 -52.75 -3.0 -35.5 -10.5 -37.5 -26.25 -40.5 -45.0 -54.5 -45.0 M-14.25 -47.0 Q-34.5 -39.75 -31.0 -19.75 -21.75 3.25 -5.75 -5.0 7.25 -14.5 5.0 -30.0 -1.25 -49.5 -13.75 -47.25 L-14.25 -47.0" fill="#5d7acc" fill-rule="evenodd" stroke="none"/>
    <path d="M36.75 -3.25 Q21.25 -1.75 15.75 -21.5 L15.5 -30.0 18.25 -38.25 23.75 -45.25 Q25.75 -48.5 34.5 -50.0 54.25 -49.0 56.25 -29.25 58.0 -9.75 36.75 -3.25 M-14.25 -47.0 L-13.75 -47.25 Q-1.25 -49.5 5.0 -30.0 7.25 -14.5 -5.75 -5.0 -21.75 3.25 -31.0 -19.75 -34.5 -39.75 -14.25 -47.0 M-54.5 -45.0 Q-40.5 -45.0 -37.5 -26.25 -35.5 -10.5 -52.75 -3.0 -66.0 -0.5 -70.5 -22.25 -70.5 -41.5 -54.5 -45.0" fill="#293465" fill-rule="evenodd" stroke="none"/>
    <path d="M77.0 -54.75 L78.75 -45.25 Q80.75 -22.75 65.5 1.5 L65.0 -27.75 65.75 -56.25 Q65.25 -57.75 59.75 -57.5 L57.5 -48.0 56.5 -48.25 55.75 -53.75 55.25 -70.25 57.5 -86.5 61.0 -86.5 Q69.5 -84.5 70.75 -82.75 L72.0 -74.25 72.5 -62.75 77.0 -54.75 M112.0 -56.75 Q112.5 -54.75 110.0 -51.0 L105.75 -48.25 101.25 -48.5 Q98.75 -50.0 97.25 -55.75 L97.5 -59.25 102.5 -62.5 108.75 -62.25 112.0 -56.75 M-0.25 -61.25 L5.0 -45.75 7.0 -36.75 7.75 -27.0 Q4.25 -29.25 2.5 -37.75 L-5.5 -47.25 -10.75 -58.75 -16.0 -75.75 -17.0 -90.5 -14.0 -90.0 -0.25 -61.25 M38.25 -90.5 L47.75 -89.0 Q52.25 -69.0 46.75 -50.5 L46.25 -49.5 45.75 -49.75 44.0 -58.75 37.25 -60.5 37.0 -50.0 Q27.0 -50.25 21.0 -41.5 19.5 -41.25 17.75 -46.25 L17.25 -53.75 Q18.75 -62.25 29.25 -66.0 L29.5 -71.0 33.75 -90.25 38.25 -90.5" fill="#f1ffff" fill-opacity="0.36862746" fill-rule="evenodd" stroke="none"/>
  </g>
</svg>
