<?xml version="1.0" encoding="UTF-8" standalone="no"?>
<svg xmlns:ffdec="https://www.free-decompiler.com/flash" xmlns:xlink="http://www.w3.org/1999/xlink" ffdec:objectType="shape" height="221.8px" width="201.7px" xmlns="http://www.w3.org/2000/svg">
  <g transform="matrix(1.0, 0.0, 0.0, 1.0, 87.55, 103.05)">
    <path d="M107.75 -65.75 Q122.75 -15.5 102.5 23.5 L94.0 33.0 89.75 36.25 79.5 41.5 71.75 43.75 35.25 49.0 61.5 115.0 62.0 116.75 53.5 118.75 52.25 118.75 -11.75 46.75 -30.5 44.0 -50.75 37.5 -61.5 31.5 -72.0 21.75 -79.0 12.5 -83.5 5.0 Q-92.0 -21.5 -82.75 -45.5 -60.0 -80.75 -23.5 -96.25 7.5 -108.75 65.25 -98.25 92.5 -96.25 107.75 -65.75 M-53.5 -42.75 L-55.75 -41.5 -58.75 -38.25 -62.25 -31.25 -63.25 -26.5 -63.25 -25.75 Q-63.25 -8.75 -54.5 -4.0 -45.0 -0.75 -39.75 -9.75 -30.0 -39.75 -50.75 -43.75 L-53.5 -42.75 M-16.5 -47.0 L-17.0 -46.75 Q-23.5 -45.0 -25.0 -42.5 L-29.75 -34.0 -31.0 -29.5 Q-32.25 -9.75 -21.5 -4.25 -12.25 0.0 -5.0 -9.75 1.75 -21.75 -1.75 -34.75 -6.0 -47.75 -16.5 -47.0 M24.25 -50.25 Q4.5 -43.0 8.75 -19.0 15.75 2.0 32.5 -5.25 46.5 -16.25 42.5 -35.25 36.25 -52.75 24.75 -50.5 L24.25 -50.25" fill="#5d7acc" fill-rule="evenodd" stroke="none"/>
    <path d="M24.25 -50.25 L24.75 -50.5 Q36.25 -52.75 42.5 -35.25 46.5 -16.25 32.5 -5.25 15.75 2.0 8.75 -19.0 4.5 -43.0 24.25 -50.25 M-16.5 -47.0 Q-6.0 -47.75 -1.75 -34.75 1.75 -21.75 -5.0 -9.75 -12.25 0.0 -21.5 -4.25 -32.25 -9.75 -31.0 -29.5 L-29.75 -34.0 -25.0 -42.5 Q-23.5 -45.0 -17.0 -46.75 L-16.5 -47.0 M-53.5 -42.75 L-50.75 -43.75 Q-30.0 -39.75 -39.75 -9.75 -45.0 -0.75 -54.5 -4.0 -63.25 -8.75 -63.25 -25.75 L-63.25 -26.5 -62.25 -31.25 -58.75 -38.25 -55.75 -41.5 -53.5 -42.75" fill="#293465" fill-rule="evenodd" stroke="none"/>
    <path d="M81.75 -55.75 L83.5 -41.75 Q70.5 -12.5 60.25 -9.25 58.0 -8.25 54.5 -14.75 L51.5 -14.25 51.5 -56.5 Q47.75 -62.0 46.5 -61.5 L44.5 -56.0 43.5 -63.25 43.25 -76.0 44.0 -88.5 Q74.0 -84.5 81.75 -55.75 M34.25 -76.0 L32.25 -90.5 34.5 -90.25 34.25 -76.0 M105.0 -33.5 Q89.75 -53.75 93.25 -76.25 105.75 -66.75 105.0 -33.5" fill="#f1ffff" fill-opacity="0.36862746" fill-rule="evenodd" stroke="none"/>
  </g>
</svg>
