<?xml version="1.0" encoding="UTF-8" standalone="no"?>
<svg xmlns:ffdec="https://www.free-decompiler.com/flash" xmlns:xlink="http://www.w3.org/1999/xlink" ffdec:objectType="shape" height="224.5px" width="168.85px" xmlns="http://www.w3.org/2000/svg">
  <g transform="matrix(1.0, 0.0, 0.0, 1.0, 71.85, 103.75)">
    <path d="M69.0 -95.25 Q86.75 -87.25 95.5 -50.5 106.75 49.25 33.0 49.0 L39.5 69.25 51.75 118.75 41.25 120.75 39.5 120.75 7.75 77.25 -13.25 46.25 Q-46.0 39.75 -57.75 22.0 L-65.25 12.5 -67.5 8.25 -70.0 0.5 Q-75.75 -39.75 -63.5 -53.25 -31.5 -99.25 2.5 -102.5 L9.5 -103.5 29.5 -103.75 52.75 -100.75 58.75 -99.25 69.0 -95.25 M-38.0 -6.25 Q-30.75 -23.5 -34.75 -34.0 -40.25 -47.5 -46.0 -42.5 L-46.5 -42.25 -50.0 -39.0 -51.5 -36.5 Q-57.75 -27.5 -53.0 -11.75 -45.5 2.75 -38.0 -6.25 M-26.25 -40.5 L-29.75 -33.5 Q-32.0 -25.5 -30.25 -17.5 L-25.5 -7.25 Q-15.5 1.75 -9.75 -9.5 -3.5 -25.0 -8.5 -38.75 -14.75 -50.5 -21.25 -45.5 L-21.75 -45.0 Q-25.0 -43.25 -26.25 -40.5 M10.0 -49.25 Q8.0 -49.75 3.25 -42.0 L0.25 -34.0 0.0 -33.5 Q-2.0 -16.0 6.0 -7.0 14.25 1.75 23.25 -9.5 31.0 -25.0 26.75 -38.5 23.5 -51.5 12.75 -50.5 L10.75 -50.25 10.0 -49.25" fill="#5d7acc" fill-rule="evenodd" stroke="none"/>
    <path d="M10.0 -49.25 L10.75 -50.25 12.75 -50.5 Q23.5 -51.5 26.75 -38.5 31.0 -25.0 23.25 -9.5 14.25 1.75 6.0 -7.0 -2.0 -16.0 0.0 -33.5 L0.25 -34.0 3.25 -42.0 Q8.0 -49.75 10.0 -49.25 M-26.25 -40.5 Q-25.0 -43.25 -21.75 -45.0 L-21.25 -45.5 Q-14.75 -50.5 -8.5 -38.75 -3.5 -25.0 -9.75 -9.5 -15.5 1.75 -25.5 -7.25 L-30.25 -17.5 Q-32.0 -25.5 -29.75 -33.5 L-26.25 -40.5 M-38.0 -6.25 Q-45.5 2.75 -53.0 -11.75 -57.75 -27.5 -51.5 -36.5 L-50.0 -39.0 -46.5 -42.25 -46.0 -42.5 Q-40.25 -47.5 -34.75 -34.0 -30.75 -23.5 -38.0 -6.25" fill="#293465" fill-rule="evenodd" stroke="none"/>
    <path d="M74.5 -76.5 Q89.5 -68.25 83.25 -30.5 L76.75 -55.75 74.75 -67.25 74.5 -76.5 M41.75 -84.0 Q72.25 -78.75 59.75 -9.75 58.5 -10.0 58.0 -14.75 L48.0 -20.0 46.0 -22.75 43.25 -30.25 43.75 -30.5 42.75 -33.75 40.5 -56.25 40.5 -70.5 41.75 -84.0" fill="#f1ffff" fill-opacity="0.36862746" fill-rule="evenodd" stroke="none"/>
  </g>
</svg>
