<?xml version="1.0" encoding="UTF-8" standalone="no"?>
<svg xmlns:ffdec="https://www.free-decompiler.com/flash" xmlns:xlink="http://www.w3.org/1999/xlink" ffdec:objectType="shape" height="226.9px" width="133.25px" xmlns="http://www.w3.org/2000/svg">
  <g transform="matrix(1.0, 0.0, 0.0, 1.0, 55.35, 104.65)">
    <path d="M-25.75 -40.5 L-30.25 -31.25 Q-31.75 -44.5 -37.5 -42.0 L-39.75 -40.0 -42.0 -37.0 -45.75 -29.5 -46.0 -27.0 -46.25 -26.5 -46.0 -16.75 -43.5 -10.25 -40.25 -5.5 -37.75 -3.0 -35.75 -3.0 Q-34.0 -3.0 -32.25 -7.0 L-30.0 -17.25 -27.75 -11.75 -24.25 -6.25 Q-21.0 -2.25 -19.25 -3.0 L-16.25 -5.25 Q-14.25 -7.5 -12.5 -15.75 L-11.75 -23.25 Q-11.75 -47.0 -21.0 -45.75 L-21.5 -45.5 -23.0 -44.0 -25.25 -41.0 -25.75 -40.5 M8.5 -10.75 Q13.25 -24.25 9.75 -41.75 5.5 -54.25 0.5 -50.5 L-0.5 -50.0 -1.75 -49.0 -6.25 -43.5 -9.75 -34.5 -10.0 -34.0 -10.75 -27.5 -11.0 -27.0 -9.75 -18.5 -8.25 -14.25 -2.25 -5.0 Q4.75 -0.25 8.5 -10.75 M-27.75 38.25 L-44.25 23.25 -50.25 12.5 -51.75 8.25 -53.75 -3.0 Q-60.0 -37.75 -41.5 -67.75 -16.0 -104.5 9.5 -104.5 39.75 -105.75 51.0 -97.5 75.5 -76.75 77.0 -46.5 80.25 -9.75 71.5 16.75 L68.25 22.75 52.75 41.0 45.0 45.5 30.0 48.5 35.0 70.5 38.75 119.25 38.75 121.0 26.5 122.25 24.75 122.25 -3.5 75.0 -17.25 44.25 -27.75 38.25" fill="#5d7acc" fill-rule="evenodd" stroke="none"/>
    <path d="M8.5 -10.75 Q4.75 -0.25 -2.25 -5.0 L-8.25 -14.25 -9.75 -18.5 -11.0 -27.0 -10.75 -27.5 -10.0 -34.0 -9.75 -34.5 -6.25 -43.5 -1.75 -49.0 -0.5 -50.0 0.5 -50.5 Q5.5 -54.25 9.75 -41.75 13.25 -24.25 8.5 -10.75 M-25.75 -40.5 L-25.25 -41.0 -23.0 -44.0 -21.5 -45.5 -21.0 -45.75 Q-11.75 -47.0 -11.75 -23.25 L-12.5 -15.75 Q-14.25 -7.5 -16.25 -5.25 L-19.25 -3.0 Q-21.0 -2.25 -24.25 -6.25 L-27.75 -11.75 -30.0 -17.25 -32.25 -7.0 Q-34.0 -3.0 -35.75 -3.0 L-37.75 -3.0 -40.25 -5.5 -43.5 -10.25 -46.0 -16.75 -46.25 -26.5 -46.0 -27.0 -45.75 -29.5 -42.0 -37.0 -39.75 -40.0 -37.5 -42.0 Q-31.75 -44.5 -30.25 -31.25 L-25.75 -40.5" fill="#293465" fill-rule="evenodd" stroke="none"/>
    <path d="M33.5 -18.5 Q24.25 -34.75 24.75 -79.5 50.75 -68.75 33.5 -18.5" fill="#f1ffff" fill-opacity="0.36862746" fill-rule="evenodd" stroke="none"/>
  </g>
</svg>
