<?xml version="1.0" encoding="UTF-8" standalone="no"?>
<svg xmlns:ffdec="https://www.free-decompiler.com/flash" xmlns:xlink="http://www.w3.org/1999/xlink" ffdec:objectType="shape" height="228.0px" width="90.25px" xmlns="http://www.w3.org/2000/svg">
  <g transform="matrix(1.0, 0.0, 0.0, 1.0, 37.0, 105.0)">
    <path d="M-36.0 -30.75 L-34.25 -49.0 -32.0 -60.25 -26.25 -79.75 -21.25 -88.25 -4.75 -102.25 2.25 -105.0 18.75 -104.5 Q21.5 -105.0 26.0 -102.75 L43.75 -85.25 46.0 -82.25 49.25 -73.75 51.25 -63.75 53.0 -45.0 53.25 -27.0 52.0 2.25 Q53.0 29.5 25.75 46.5 L28.75 70.75 23.75 122.25 8.5 123.0 -13.25 74.0 -21.25 36.0 -26.0 32.0 -31.5 23.25 -34.5 11.0 -35.5 3.0 -36.0 -14.5 -33.5 -9.0 -33.0 -8.5 -32.25 -7.0 -30.0 -4.25 -29.0 -3.25 -27.75 -2.75 -27.75 -3.5 -27.0 -3.5 -27.25 -4.75 Q-26.0 -4.75 -25.75 -8.75 L-24.25 -6.5 Q-21.25 -2.25 -19.75 -3.25 L-17.5 -11.25 -12.5 -4.25 -11.0 -3.25 -9.75 -3.5 -8.5 -6.25 -6.25 -22.5 -6.25 -34.0 -7.75 -46.75 -9.75 -51.25 Q-11.25 -52.0 -14.0 -48.0 L-17.75 -42.5 -18.0 -42.0 -19.75 -46.0 -21.0 -46.0 -25.0 -41.5 -26.25 -39.75 Q-27.0 -43.25 -28.5 -42.25 L-33.0 -37.0 -35.25 -32.75 -35.25 -32.25 -36.0 -30.75" fill="#5d7acc" fill-rule="evenodd" stroke="none"/>
    <path d="M-36.0 -14.5 L-37.0 -24.25 -36.75 -24.75 -36.75 -26.75 -36.0 -30.0 -36.0 -30.75 -35.25 -32.25 -35.25 -32.75 -33.0 -37.0 -28.5 -42.25 Q-27.0 -43.25 -26.25 -39.75 L-25.0 -41.5 -21.0 -46.0 -19.75 -46.0 -18.0 -42.0 -17.75 -42.5 -14.0 -48.0 Q-11.25 -52.0 -9.75 -51.25 L-7.75 -46.75 -6.25 -34.0 -6.25 -22.5 -8.5 -6.25 -9.75 -3.5 -11.0 -3.25 -12.5 -4.25 -17.5 -11.25 -19.75 -3.25 Q-21.25 -2.25 -24.25 -6.5 L-25.75 -8.75 Q-26.0 -4.75 -27.25 -4.75 L-27.0 -3.5 -27.75 -3.5 -27.75 -2.75 -29.0 -3.25 -30.0 -4.25 -32.25 -7.0 -33.0 -8.5 -33.5 -9.0 -36.0 -14.5" fill="#293465" fill-rule="evenodd" stroke="none"/>
    <path d="M17.25 -54.5 Q15.0 -50.25 10.75 -49.0 L6.75 -49.75 Q3.5 -51.75 3.25 -53.25 L2.75 -60.25 Q5.75 -66.0 8.75 -66.0 L12.0 -65.5 Q16.25 -64.0 17.5 -61.75 L17.25 -54.5 M41.0 -31.5 Q30.5 -57.75 37.0 -78.5 45.5 -69.75 41.0 -31.5" fill="#f1ffff" fill-opacity="0.36862746" fill-rule="evenodd" stroke="none"/>
  </g>
</svg>
