<?xml version="1.0" encoding="UTF-8" standalone="no"?>
<svg xmlns:ffdec="https://www.free-decompiler.com/flash" xmlns:xlink="http://www.w3.org/1999/xlink" ffdec:objectType="shape" height="228.0px" width="65.4px" xmlns="http://www.w3.org/2000/svg">
  <g transform="matrix(1.0, 0.0, 0.0, 1.0, 33.3, 105.0)">
    <path d="M-26.25 -46.75 L-25.5 -73.0 -24.0 -89.25 -23.25 -91.5 -8.0 -105.0 7.25 -105.0 22.5 -91.25 24.0 -84.0 25.0 -47.0 25.0 -7.0 24.0 27.75 23.5 32.0 20.5 40.0 21.25 73.0 7.5 123.0 -8.25 123.0 -22.0 73.5 -21.5 40.0 Q-25.75 30.0 -25.0 24.5 L-26.0 -7.0 -26.25 -46.75" fill="#5d7acc" fill-rule="evenodd" stroke="none"/>
    <path d="M25.0 -47.0 Q39.25 -27.5 25.0 -7.0 L25.0 -47.0 M-26.0 -7.0 Q-40.5 -27.25 -26.25 -46.75 L-26.0 -7.0" fill="#293465" fill-rule="evenodd" stroke="none"/>
    <path d="M8.75 -31.0 Q3.0 -56.25 8.0 -79.5 21.5 -69.5 8.75 -31.0 M-8.5 -31.0 Q-21.75 -50.75 -9.25 -79.0 -3.75 -74.5 -8.5 -31.0" fill="#f1ffff" fill-opacity="0.36862746" fill-rule="evenodd" stroke="none"/>
  </g>
</svg>
