<?xml version="1.0" encoding="UTF-8" standalone="no"?>
<svg xmlns:ffdec="https://www.free-decompiler.com/flash" xmlns:xlink="http://www.w3.org/1999/xlink" ffdec:objectType="shape" height="228.1px" width="89.9px" xmlns="http://www.w3.org/2000/svg">
  <g transform="matrix(1.0, 0.0, 0.0, 1.0, 54.15, 105.1)">
    <path d="M35.25 -16.25 L31.5 -7.75 27.5 -3.0 26.5 -3.25 25.5 -5.75 24.75 -9.0 19.5 -3.25 Q17.75 -4.0 16.75 -12.0 L15.0 -8.5 10.25 -3.5 8.75 -4.25 6.25 -13.25 5.75 -37.5 6.75 -45.5 Q8.5 -55.25 12.5 -48.0 L15.25 -45.0 16.25 -42.25 16.5 -42.25 16.5 -42.0 16.75 -41.5 18.25 -45.0 19.5 -46.0 24.25 -41.0 25.0 -39.0 27.0 -42.25 Q32.5 -37.25 32.0 -35.75 L33.5 -32.75 33.75 -32.75 33.75 -32.25 34.0 -31.75 34.0 -31.0 34.25 -31.0 34.25 -30.25 34.5 -30.25 34.5 -29.75 35.0 -29.5 35.0 -28.5 35.25 -28.25 35.25 -27.75 35.5 -27.75 35.25 -26.75 35.25 -25.5 35.75 -24.75 35.5 -24.0 35.5 -23.25 35.75 -22.5 35.5 -21.75 35.5 -20.75 35.75 -20.0 35.75 -19.75 35.25 -16.25" fill="#293465" fill-rule="evenodd" stroke="none"/>
    <path d="M35.25 -16.25 L34.5 4.25 31.5 20.5 27.25 29.25 Q24.25 33.5 20.0 36.5 L12.75 73.25 -9.25 123.0 -24.0 122.5 -24.75 121.75 -29.75 72.0 -26.5 47.0 Q-52.0 28.75 -51.5 12.25 -58.75 -54.5 -46.0 -83.5 L-30.0 -100.25 -25.75 -103.25 Q0.5 -107.25 3.5 -102.5 L18.75 -89.75 Q21.0 -88.75 24.25 -82.25 L26.75 -76.0 31.0 -60.75 34.0 -45.0 35.0 -29.5 34.5 -29.75 34.5 -30.25 34.25 -30.25 34.25 -31.0 34.0 -31.0 34.0 -31.75 33.75 -32.25 33.75 -32.75 33.5 -32.75 32.0 -35.75 Q32.5 -37.25 27.0 -42.25 L25.0 -39.0 24.25 -41.0 19.5 -46.0 18.25 -45.0 16.75 -41.5 16.5 -42.0 16.5 -42.25 16.25 -42.25 15.25 -45.0 12.5 -48.0 Q8.5 -55.25 6.75 -45.5 L5.75 -37.5 6.25 -13.25 8.75 -4.25 10.25 -3.5 15.0 -8.5 16.75 -12.0 Q17.75 -4.0 19.5 -3.25 L24.75 -9.0 25.5 -5.75 26.5 -3.25 27.5 -3.0 31.5 -7.75 35.25 -16.25" fill="#5d7acc" fill-rule="evenodd" stroke="none"/>
    <path d="M-8.0 -51.25 L-12.75 -51.5 -17.25 -54.75 -18.0 -61.75 Q-18.75 -63.25 -13.25 -66.5 L-8.25 -66.5 Q-6.25 -66.5 -3.25 -62.75 L-3.75 -54.75 Q-3.5 -53.5 -8.0 -51.25 M-38.25 -78.5 Q-29.75 -69.75 -41.25 -31.0 -46.75 -51.75 -38.25 -78.5" fill="#f1ffff" fill-opacity="0.36862746" fill-rule="evenodd" stroke="none"/>
  </g>
</svg>
