<?xml version="1.0" encoding="UTF-8" standalone="no"?>
<svg xmlns:ffdec="https://www.free-decompiler.com/flash" xmlns:xlink="http://www.w3.org/1999/xlink" ffdec:objectType="shape" height="226.8px" width="132.7px" xmlns="http://www.w3.org/2000/svg">
  <g transform="matrix(1.0, 0.0, 0.0, 1.0, 78.55, 104.55)">
    <path d="M35.25 -76.0 Q58.25 -46.0 53.25 -8.5 L51.25 6.75 49.5 12.0 45.0 21.0 42.5 24.25 29.5 36.25 16.5 44.25 3.75 73.0 -25.5 122.25 -39.5 121.0 -36.0 71.25 -30.75 48.5 -40.5 47.0 -49.75 43.75 -55.25 39.25 -69.25 22.5 Q-78.75 13.5 -78.5 -37.0 -79.75 -70.0 -56.0 -94.0 -48.75 -105.25 -10.5 -104.5 9.5 -106.0 35.25 -76.0 M8.75 -19.0 L9.75 -25.0 Q8.25 -43.75 -0.5 -50.0 L-2.0 -50.75 Q-10.25 -51.75 -11.75 -31.75 -13.25 -12.5 -4.0 -3.75 L-0.5 -3.75 Q1.0 -3.75 5.75 -11.25 L8.75 -19.0 M40.0 -38.0 L37.5 -41.75 35.5 -42.75 Q33.0 -42.5 31.5 -39.5 L29.0 -29.25 Q28.75 -34.25 25.5 -39.75 L23.25 -42.0 20.5 -45.5 19.5 -46.0 Q17.5 -48.0 14.5 -43.25 L11.75 -34.5 11.5 -18.75 14.0 -8.25 17.5 -3.5 20.75 -3.5 26.5 -11.0 29.0 -18.0 30.25 -10.75 32.0 -6.25 35.0 -3.0 Q37.0 -2.75 38.75 -4.75 L42.0 -9.75 Q49.5 -23.75 40.0 -38.0" fill="#5d7acc" fill-rule="evenodd" stroke="none"/>
    <path d="M40.0 -38.0 Q49.5 -23.75 42.0 -9.75 L38.75 -4.75 Q37.0 -2.75 35.0 -3.0 L32.0 -6.25 30.25 -10.75 29.0 -18.0 26.5 -11.0 20.75 -3.5 17.5 -3.5 14.0 -8.25 11.5 -18.75 11.75 -34.5 14.5 -43.25 Q17.5 -48.0 19.5 -46.0 L20.5 -45.5 23.25 -42.0 25.5 -39.75 Q28.75 -34.25 29.0 -29.25 L31.5 -39.5 Q33.0 -42.5 35.5 -42.75 L37.5 -41.75 40.0 -38.0 M8.75 -19.0 L5.75 -11.25 Q1.0 -3.75 -0.5 -3.75 L-4.0 -3.75 Q-13.25 -12.5 -11.75 -31.75 -10.25 -51.75 -2.0 -50.75 L-0.5 -50.0 Q8.25 -43.75 9.75 -25.0 L8.75 -19.0" fill="#293465" fill-rule="evenodd" stroke="none"/>
    <path d="M-33.75 -20.0 Q-51.0 -68.0 -25.25 -80.0 -22.5 -48.0 -33.75 -20.0" fill="#f1ffff" fill-opacity="0.36862746" fill-rule="evenodd" stroke="none"/>
  </g>
</svg>
