<?xml version="1.0" encoding="UTF-8" standalone="no"?>
<svg xmlns:ffdec="https://www.free-decompiler.com/flash" xmlns:xlink="http://www.w3.org/1999/xlink" ffdec:objectType="shape" height="224.75px" width="168.75px" xmlns="http://www.w3.org/2000/svg">
  <g transform="matrix(1.0, 0.0, 0.0, 1.0, 98.0, 104.0)">
    <path d="M48.0 -71.5 L56.0 -62.5 63.25 -52.25 69.0 -40.0 70.75 -28.0 70.75 -15.75 69.75 -4.0 Q71.75 8.0 47.5 31.75 40.5 39.5 12.5 46.0 L-3.0 69.25 -40.5 120.75 -52.5 119.0 -41.25 72.5 -34.0 49.25 -55.0 46.0 -62.5 44.25 -71.25 40.5 Q-82.5 35.5 -92.75 10.25 -100.0 -4.25 -97.25 -45.25 -92.75 -77.0 -73.5 -93.0 L-65.5 -97.25 -52.5 -101.0 -30.75 -103.75 -19.0 -104.0 -3.0 -102.5 7.25 -100.25 13.25 -98.25 22.5 -93.75 34.0 -85.25 48.0 -71.5 M-14.5 -50.75 Q-29.0 -49.0 -28.75 -27.25 -26.0 -5.25 -17.25 -3.75 -4.25 -2.25 -0.5 -23.0 1.0 -39.75 -11.75 -49.75 L-14.5 -50.75 M17.75 -46.5 Q5.75 -44.25 5.75 -27.0 5.5 -9.5 15.25 -3.5 26.0 -2.25 29.75 -20.25 30.25 -40.25 19.75 -45.75 L17.75 -46.5 M33.0 -27.25 Q32.25 -7.5 41.25 -3.25 50.25 -0.75 54.0 -21.25 54.5 -35.75 45.0 -42.5 L43.0 -43.25 Q33.5 -41.25 33.0 -27.25" fill="#5d7acc" fill-rule="evenodd" stroke="none"/>
    <path d="M33.0 -27.25 Q33.5 -41.25 43.0 -43.25 L45.0 -42.5 Q54.5 -35.75 54.0 -21.25 50.25 -0.75 41.25 -3.25 32.25 -7.5 33.0 -27.25 M17.75 -46.5 L19.75 -45.75 Q30.25 -40.25 29.75 -20.25 26.0 -2.25 15.25 -3.5 5.5 -9.5 5.75 -27.0 5.75 -44.25 17.75 -46.5 M-14.5 -50.75 L-11.75 -49.75 Q1.0 -39.75 -0.5 -23.0 -4.25 -2.25 -17.25 -3.75 -26.0 -5.25 -28.75 -27.25 -29.0 -49.0 -14.5 -50.75" fill="#293465" fill-rule="evenodd" stroke="none"/>
    <path d="M-40.25 -66.75 L-40.75 -49.0 -43.25 -32.25 -46.25 -23.75 Q-47.75 -20.0 -59.5 -16.25 L-60.25 -11.75 Q-73.0 -79.0 -41.0 -84.5 L-39.75 -81.75 -39.25 -74.75 -40.25 -66.75 M-77.0 -56.5 L-83.5 -31.0 Q-92.75 -53.0 -75.25 -77.0 L-74.5 -75.25 -75.25 -66.25 -77.0 -56.5" fill="#f1ffff" fill-opacity="0.36862746" fill-rule="evenodd" stroke="none"/>
  </g>
</svg>
