<?xml version="1.0" encoding="UTF-8" standalone="no"?>
<svg xmlns:ffdec="https://www.free-decompiler.com/flash" xmlns:xlink="http://www.w3.org/1999/xlink" ffdec:objectType="shape" height="221.75px" width="201.8px" xmlns="http://www.w3.org/2000/svg">
  <g transform="matrix(1.0, 0.0, 0.0, 1.0, 115.3, 103.0)">
    <path d="M-29.5 -3.75 Q-13.25 -0.75 -9.0 -24.0 -8.25 -42.75 -22.75 -49.75 L-25.75 -50.5 Q-42.75 -48.0 -43.75 -31.75 -45.0 -10.0 -29.5 -3.75 M14.0 -3.25 Q24.5 -0.5 30.0 -20.75 L29.0 -33.25 26.25 -39.5 20.5 -45.25 18.25 -46.25 15.5 -46.75 Q0.75 -45.25 0.0 -27.0 1.5 -5.0 14.0 -3.25 M86.0 -33.25 L86.5 -18.5 85.75 -8.5 84.0 1.0 Q70.75 41.25 11.25 46.5 L-53.0 118.75 -63.0 116.75 -36.25 49.25 -43.0 47.75 -68.75 44.5 -75.5 43.0 -85.25 39.5 Q-102.25 32.0 -110.5 8.0 -119.75 -27.25 -111.25 -58.75 -106.75 -82.5 -77.5 -95.25 -39.0 -110.25 22.5 -96.25 52.0 -86.0 79.5 -49.25 L83.25 -42.75 86.0 -33.25 M47.0 -3.25 Q58.75 -1.5 62.25 -20.75 60.5 -42.25 51.75 -43.25 L49.0 -44.0 Q35.75 -41.25 35.5 -25.5 34.75 -9.25 47.0 -3.25" fill="#5d7acc" fill-rule="evenodd" stroke="none"/>
    <path d="M14.0 -3.25 Q1.5 -5.0 0.0 -27.0 0.75 -45.25 15.5 -46.75 L18.25 -46.25 20.5 -45.25 26.25 -39.5 29.0 -33.25 30.0 -20.75 Q24.5 -0.5 14.0 -3.25 M-29.5 -3.75 Q-45.0 -10.0 -43.75 -31.75 -42.75 -48.0 -25.75 -50.5 L-22.75 -49.75 Q-8.25 -42.75 -9.0 -24.0 -13.25 -0.75 -29.5 -3.75 M47.0 -3.25 Q34.75 -9.25 35.5 -25.5 35.75 -41.25 49.0 -44.0 L51.75 -43.25 Q60.5 -42.25 62.25 -20.75 58.75 -1.5 47.0 -3.25" fill="#293465" fill-rule="evenodd" stroke="none"/>
    <path d="M-34.5 -73.0 L-35.5 -76.75 -35.5 -89.75 -35.25 -90.5 -32.25 -91.0 -31.5 -90.75 -31.75 -87.5 -34.0 -80.0 -34.5 -73.0 M-51.75 -56.0 L-52.0 -16.0 -52.5 -14.25 -55.0 -15.0 -55.0 -14.0 -59.0 -10.25 Q-63.0 -8.5 -72.5 -21.75 L-82.0 -40.25 Q-85.0 -44.75 -83.25 -49.75 L-80.25 -62.0 -77.5 -68.25 -73.25 -74.5 Q-53.75 -90.5 -44.5 -88.5 L-43.25 -77.75 -43.25 -69.0 -44.5 -56.25 -45.25 -55.5 Q-46.5 -60.75 -47.5 -60.75 L-51.75 -56.0 M-105.5 -33.5 Q-108.75 -57.25 -94.0 -77.0 -86.75 -66.25 -105.5 -33.5" fill="#f1ffff" fill-opacity="0.36862746" fill-rule="evenodd" stroke="none"/>
  </g>
</svg>
