<?xml version="1.0" encoding="UTF-8" standalone="no"?>
<svg xmlns:ffdec="https://www.free-decompiler.com/flash" xmlns:xlink="http://www.w3.org/1999/xlink" ffdec:objectType="shape" height="219.4px" width="229.05px" xmlns="http://www.w3.org/2000/svg">
  <g transform="matrix(1.0, 0.0, 0.0, 1.0, 127.75, 102.9)">
    <path d="M52.75 -3.0 Q68.75 -5.5 69.5 -23.0 66.5 -43.0 56.5 -44.25 L53.75 -44.75 Q36.0 -41.25 37.0 -25.0 38.0 -5.25 52.75 -3.0 M-16.5 -24.5 Q-19.5 -47.75 -32.5 -49.25 L-36.0 -50.0 Q-55.75 -47.75 -56.75 -29.5 -56.0 -6.75 -38.5 -3.5 -16.5 -6.0 -16.5 -24.5 M12.75 -47.25 Q9.0 -47.75 4.25 -45.25 L-1.5 -40.0 -5.0 -32.5 -5.75 -27.0 Q-3.0 -4.5 9.5 -3.5 25.25 -1.25 30.0 -21.25 29.5 -43.25 16.0 -46.5 L12.75 -47.25 M11.25 46.75 L-63.25 116.5 -70.25 114.0 -40.0 48.25 -76.0 43.5 -88.25 40.75 -95.5 38.0 Q-113.75 31.0 -123.25 5.75 -134.25 -31.5 -118.25 -67.75 -105.25 -94.75 -48.25 -101.0 12.5 -109.0 55.75 -83.5 120.5 -46.25 93.25 10.75 78.25 42.25 11.25 46.75" fill="#5d7acc" fill-rule="evenodd" stroke="none"/>
    <path d="M12.75 -47.25 L16.0 -46.5 Q29.5 -43.25 30.0 -21.25 25.25 -1.25 9.5 -3.5 -3.0 -4.5 -5.75 -27.0 L-5.0 -32.5 -1.5 -40.0 4.25 -45.25 Q9.0 -47.75 12.75 -47.25 M-16.5 -24.5 Q-16.5 -6.0 -38.5 -3.5 -56.0 -6.75 -56.75 -29.5 -55.75 -47.75 -36.0 -50.0 L-32.5 -49.25 Q-19.5 -47.75 -16.5 -24.5 M52.75 -3.0 Q38.0 -5.25 37.0 -25.0 36.0 -41.25 53.75 -44.75 L56.5 -44.25 Q66.5 -43.0 69.5 -23.0 68.75 -5.5 52.75 -3.0" fill="#293465" fill-rule="evenodd" stroke="none"/>
    <path d="M-17.0 -55.75 Q-14.25 -48.0 -20.5 -40.5 -26.75 -50.0 -37.25 -50.0 L-38.0 -60.0 -44.5 -58.5 Q-44.75 -53.5 -47.0 -49.75 -52.5 -67.5 -49.25 -88.75 L-46.25 -89.75 -34.25 -90.5 -31.5 -79.75 -29.75 -67.25 -23.25 -63.75 Q-20.0 -62.0 -17.0 -55.75 M13.25 -64.0 L7.5 -50.5 4.5 -45.0 Q2.5 -45.5 -2.75 -38.25 -5.25 -34.0 -5.0 -30.75 L-8.0 -26.75 Q-10.5 -32.25 -1.0 -60.0 L12.0 -88.0 Q12.25 -91.25 16.5 -90.5 L17.0 -84.0 15.75 -73.5 13.25 -64.0 M-99.0 -52.5 Q-99.25 -51.5 -104.5 -49.5 L-108.25 -50.5 -112.5 -56.25 -110.5 -61.5 Q-110.75 -62.75 -105.75 -64.0 L-100.25 -63.0 -97.25 -58.75 -99.0 -52.5 M-62.75 -86.25 L-58.0 -86.5 -55.75 -71.75 -55.5 -63.0 -56.75 -49.75 -57.75 -47.75 -60.5 -57.0 -66.25 -57.25 -65.5 -47.75 -66.0 0.5 Q-68.0 -5.75 -71.25 -8.25 L-74.25 -15.25 -77.25 -27.25 -78.5 -43.25 -77.0 -53.75 -73.0 -61.5 -73.25 -64.75 -71.25 -82.75 Q-71.0 -84.5 -62.75 -86.25" fill="#f1ffff" fill-opacity="0.36862746" fill-rule="evenodd" stroke="none"/>
  </g>
</svg>
