<?xml version="1.0" encoding="UTF-8" standalone="no"?>
<svg xmlns:ffdec="https://www.free-decompiler.com/flash" xmlns:xlink="http://www.w3.org/1999/xlink" ffdec:objectType="shape" height="215.25px" width="247.25px" xmlns="http://www.w3.org/2000/svg">
  <g transform="matrix(1.0, 0.0, 0.0, 1.0, 133.85, 101.5)">
    <path d="M5.25 -101.0 Q61.0 -96.0 101.75 -57.25 112.0 -48.5 113.25 -27.0 114.75 0.0 101.0 17.75 84.75 42.0 11.5 47.0 L-70.25 113.75 -74.25 110.75 -42.25 48.25 -78.75 43.0 -90.75 40.25 -100.75 36.75 Q-124.0 26.0 -130.25 1.75 -141.5 -43.25 -117.75 -73.5 -110.25 -85.25 -76.0 -95.25 L-63.75 -97.75 -45.25 -100.25 -27.0 -101.5 5.25 -101.0 M-44.5 -49.25 Q-65.75 -48.0 -67.0 -25.75 -63.75 -6.0 -47.75 -3.5 -22.75 -6.0 -23.0 -24.75 -27.0 -48.5 -41.0 -48.75 L-44.5 -49.25 M53.5 -3.25 Q70.5 -2.5 74.25 -21.0 73.75 -42.5 59.25 -45.25 L56.0 -45.75 Q36.0 -42.25 36.75 -24.0 39.75 -5.0 53.5 -3.25 M5.5 -3.5 Q23.75 -1.75 28.75 -20.0 29.75 -43.25 12.75 -46.75 L9.5 -47.25 Q-10.25 -45.0 -11.25 -27.75 -10.75 -7.5 5.5 -3.5" fill="#5d7acc" fill-rule="evenodd" stroke="none"/>
    <path d="M5.5 -3.5 Q-10.75 -7.5 -11.25 -27.75 -10.25 -45.0 9.5 -47.25 L12.75 -46.75 Q29.75 -43.25 28.75 -20.0 23.75 -1.75 5.5 -3.5 M53.5 -3.25 Q39.75 -5.0 36.75 -24.0 36.0 -42.25 56.0 -45.75 L59.25 -45.25 Q73.75 -42.5 74.25 -21.0 70.5 -2.5 53.5 -3.25 M-44.5 -49.25 L-41.0 -48.75 Q-27.0 -48.5 -23.0 -24.75 -22.75 -6.0 -47.75 -3.5 -63.75 -6.0 -67.0 -25.75 -65.75 -48.0 -44.5 -49.25" fill="#293465" fill-rule="evenodd" stroke="none"/>
    <path d="M51.0 -82.5 Q52.75 -79.25 46.25 -61.0 L45.5 -60.5 Q45.5 -64.75 44.25 -64.75 L43.75 -58.5 38.0 -57.0 37.25 -57.25 Q37.75 -62.75 36.25 -63.0 L35.75 -56.5 34.0 -57.75 29.75 -65.5 28.75 -66.0 21.0 -64.25 Q20.0 -60.0 14.75 -54.0 L13.5 -47.0 3.0 -46.5 Q-1.0 -45.75 -6.25 -40.25 -13.5 -29.25 -10.75 -22.25 L-17.75 -17.0 -18.25 -21.0 -15.75 -36.0 -19.75 -41.25 Q-21.0 -43.0 -20.25 -48.0 L-17.75 -53.0 Q-11.5 -59.5 -8.25 -60.0 L-7.25 -61.5 -4.5 -69.0 6.75 -91.25 12.75 -91.5 26.5 -89.5 36.5 -87.5 51.0 -82.5 M81.75 -66.0 L85.25 -64.75 88.5 -61.75 88.5 -58.0 Q86.25 -59.25 84.25 -53.25 L83.25 -55.75 81.75 -66.0 M-94.75 -55.0 L-97.5 -43.0 -102.25 -34.5 -110.75 -28.25 -114.75 -24.25 Q-125.75 -66.0 -94.0 -74.75 L-93.75 -64.5 -94.75 -55.0 M-41.5 -60.75 L-40.75 -48.75 -44.75 -49.25 -45.5 -76.5 -44.5 -75.25 -43.0 -69.25 -41.5 -60.75" fill="#f1ffff" fill-opacity="0.36862746" fill-rule="evenodd" stroke="none"/>
  </g>
</svg>
