<?xml version="1.0" encoding="UTF-8" standalone="no"?>
<svg xmlns:ffdec="https://www.free-decompiler.com/flash" xmlns:xlink="http://www.w3.org/1999/xlink" ffdec:objectType="shape" height="212.0px" width="258.75px" xmlns="http://www.w3.org/2000/svg">
  <g transform="matrix(1.0, 0.0, 0.0, 1.0, 134.75, 101.25)">
    <path d="M117.25 -52.0 L121.0 -45.0 123.25 -36.25 124.0 -20.0 Q123.0 7.75 107.75 20.5 90.75 34.0 74.5 38.5 L43.25 44.75 32.0 46.25 10.25 47.25 -74.0 110.75 -74.75 110.75 -75.5 108.25 -43.0 48.0 -84.25 41.5 -93.5 39.25 -101.75 36.25 Q-116.5 30.75 -127.25 12.0 L-131.25 1.25 Q-142.5 -43.5 -117.75 -73.25 L-106.5 -82.25 -96.25 -87.25 -78.75 -93.0 -65.25 -96.0 -36.25 -100.0 -16.25 -101.25 7.25 -101.0 Q60.25 -100.0 113.0 -57.25 L117.25 -52.0 M-51.0 -48.5 Q-73.5 -45.75 -74.0 -25.25 -71.25 -6.75 -54.75 -3.5 -35.75 -1.25 -29.0 -21.0 -26.5 -42.25 -47.25 -48.0 L-51.0 -48.5 M55.25 -3.25 Q76.75 -6.75 77.0 -22.25 78.0 -41.0 59.75 -46.25 L56.5 -46.5 Q35.0 -43.75 35.25 -24.0 38.25 -4.5 55.25 -3.25 M26.75 -21.5 Q27.0 -43.5 9.25 -47.0 L5.5 -47.5 Q-16.25 -43.25 -16.25 -29.0 -17.5 -9.0 1.25 -3.5 21.0 -1.0 26.75 -21.5" fill="#5d7acc" fill-rule="evenodd" stroke="none"/>
    <path d="M26.75 -21.5 Q21.0 -1.0 1.25 -3.5 -17.5 -9.0 -16.25 -29.0 -16.25 -43.25 5.5 -47.5 L9.25 -47.0 Q27.0 -43.5 26.75 -21.5 M55.25 -3.25 Q38.25 -4.5 35.25 -24.0 35.0 -43.75 56.5 -46.5 L59.75 -46.25 Q78.0 -41.0 77.0 -22.25 76.75 -6.75 55.25 -3.25 M-51.0 -48.5 L-47.25 -48.0 Q-26.5 -42.25 -29.0 -21.0 -35.75 -1.25 -54.75 -3.5 -71.25 -6.75 -74.0 -25.25 -73.5 -45.75 -51.0 -48.5" fill="#293465" fill-rule="evenodd" stroke="none"/>
    <path d="M70.0 -76.0 Q86.5 -72.25 108.0 -53.0 L104.0 -53.0 102.75 -48.75 100.5 -50.5 101.5 -46.75 100.0 -43.5 Q98.25 -42.75 96.5 -47.25 L93.75 -47.25 88.0 -45.0 86.0 -39.5 81.75 -44.0 80.5 -49.0 79.75 -48.5 78.5 -44.0 77.5 -44.0 73.25 -49.5 72.0 -45.5 70.5 -43.75 69.5 -47.25 68.25 -59.75 70.0 -76.0 M50.75 -53.5 L44.5 -49.75 43.75 -57.0 Q42.25 -56.75 41.75 -50.0 L35.75 -52.25 35.0 -59.5 33.25 -53.5 30.0 -59.25 27.75 -66.0 25.25 -68.75 21.5 -75.25 20.0 -81.25 Q19.5 -86.25 21.0 -90.5 45.25 -89.0 67.25 -77.75 69.0 -64.0 60.75 -46.25 58.25 -46.0 58.75 -51.75 L53.25 -53.5 50.75 -53.5 M-4.0 -68.25 L6.75 -91.5 16.0 -91.0 17.0 -86.25 17.0 -81.0 Q14.5 -69.0 10.0 -67.0 L9.0 -51.75 4.5 -49.25 -11.0 -44.0 -11.75 -45.0 -8.0 -57.75 -3.75 -67.5 -4.0 -68.25 M-85.5 -71.0 L-85.25 -50.75 -89.5 -42.25 -90.5 -37.5 -95.25 -26.5 -98.25 -23.5 -102.75 -22.0 -108.75 -22.75 -122.0 -28.25 -121.75 -39.75 -120.0 -50.25 Q-117.5 -71.25 -83.0 -80.5 -81.75 -77.75 -85.5 -71.0" fill="#f1ffff" fill-opacity="0.36862746" fill-rule="evenodd" stroke="none"/>
  </g>
</svg>
