<?xml version="1.0" encoding="UTF-8" standalone="no"?>
<svg xmlns:ffdec="https://www.free-decompiler.com/flash" xmlns:xlink="http://www.w3.org/1999/xlink" ffdec:objectType="shape" height="22.45px" width="19.9px" xmlns="http://www.w3.org/2000/svg">
  <g transform="matrix(1.0, 0.0, 0.0, 1.0, 9.95, 11.25)">
    <path d="M2.85 -0.65 L2.7 -0.55 1.95 -0.4 1.9 -0.4 1.85 -0.35 1.8 -0.35 1.7 -0.35 1.65 -0.35 1.65 -0.3 1.55 -0.3 1.45 -0.3 1.3 -0.3 1.45 0.25 1.65 0.6 1.65 0.65 1.7 0.7 2.25 1.25 2.3 1.3 6.25 0.65 6.3 0.65 7.65 0.4 7.65 0.15 7.9 -0.4 8.0 -1.25 8.0 -1.5 7.95 -1.8 7.9 -1.95 7.9 -2.05 7.65 -2.8 7.45 -3.15 7.0 -3.65 3.6 -1.05 3.45 -1.05 3.35 -1.0 3.0 -0.85 2.85 -0.65 M9.75 -3.3 Q10.5 0.75 8.25 4.25 5.5 7.85 1.8 8.4 L1.8 10.75 Q1.65 11.1 0.55 11.2 L-0.9 11.15 -1.8 10.95 -1.9 10.8 -1.9 8.4 Q-9.5 6.25 -9.95 -1.35 -9.95 -5.45 -7.0 -8.4 L-5.25 -9.8 -3.3 -10.7 -0.45 -11.25 Q3.0 -11.3 5.35 -9.75 8.95 -7.3 9.75 -3.3 M-0.3 6.25 L0.0 6.25 0.65 6.2 0.7 6.15 0.8 6.15 0.85 6.15 1.65 6.05 2.55 5.65 2.6 5.65 2.65 5.6 2.7 5.6 3.1 5.3 3.2 5.25 3.5 4.95 3.55 4.85 3.7 4.7 5.4 2.35 5.4 2.25 5.35 2.3 5.3 2.35 5.05 2.55 4.4 2.95 4.1 3.2 2.3 4.15 1.5 4.4 1.2 4.5 1.15 4.5 1.1 4.5 0.55 4.6 -0.25 4.65 -0.3 4.6 -0.55 4.6 -0.6 4.6 -0.75 4.6 -0.8 4.55 -0.9 4.55 -1.15 4.5 -1.2 4.5 -1.3 4.45 -1.35 4.45 -1.4 4.45 -1.45 4.45 -1.45 4.4 -1.5 4.4 -1.8 4.35 -1.9 4.3 -2.0 4.25 -2.15 4.2 -2.85 3.85 -2.9 3.85 -3.1 3.75 -3.3 3.6 -3.4 3.55 -3.9 3.25 -4.1 3.2 -4.3 3.0 Q-4.65 2.75 -5.05 2.55 L-5.2 2.45 -5.2 2.4 -5.4 2.3 -5.4 2.35 -4.55 3.6 -4.45 3.75 -3.75 4.7 -3.7 4.75 -3.65 4.85 -3.55 4.95 -3.5 5.0 -2.85 5.5 -2.85 5.65 -2.45 5.8 -2.35 5.8 -1.7 6.05 -1.65 6.05 -0.7 6.2 -0.35 6.2 -0.3 6.25 M-3.55 1.05 L-1.95 1.3 -1.35 0.75 -1.25 0.6 -1.15 0.4 -1.15 0.35 -1.0 -0.05 -1.0 -0.15 -1.0 -0.2 -0.9 -0.3 -1.1 -0.3 -1.15 -0.3 -1.25 -0.3 -1.95 -0.45 -2.35 -0.55 -3.05 -0.9 -3.4 -1.15 -3.45 -1.2 -3.5 -1.25 -3.95 -1.55 -4.0 -1.55 -4.25 -1.8 -4.3 -1.8 -4.3 -1.85 -4.35 -1.85 -4.55 -2.0 -4.6 -2.1 -4.65 -2.1 -4.85 -2.25 -5.15 -2.45 -5.15 -2.5 -5.35 -2.65 -5.4 -2.65 -5.65 -2.85 -5.7 -2.9 -5.85 -3.0 -5.9 -3.05 -6.15 -3.25 -6.2 -3.25 -6.35 -3.4 -6.4 -3.4 -6.55 -3.55 -6.75 -3.65 -7.05 -3.35 -7.3 -2.95 -7.7 -1.35 -7.7 -1.1 -7.7 -1.05 -7.7 -0.8 -7.65 -0.75 -7.65 -0.7 -7.65 -0.6 -7.6 -0.6 -7.6 -0.55 -7.6 -0.5 -7.6 -0.45 -7.55 -0.4 -7.55 -0.35 -7.55 -0.3 -7.5 -0.3 -7.5 -0.25 -7.3 0.4 -4.3 0.95 -4.25 0.95 -4.0 1.0 -3.8 1.05 -3.55 1.05" fill="#070707" fill-rule="evenodd" stroke="none"/>
    <path d="M3.6 -1.05 L7.0 -3.65 7.45 -3.15 7.65 -2.8 7.9 -2.05 7.9 -1.95 7.95 -1.8 8.0 -1.5 8.0 -1.25 7.9 -0.4 7.65 0.15 7.65 0.4 6.3 0.65 6.25 0.65 2.3 1.3 2.25 1.25 1.7 0.7 1.65 0.65 1.65 0.6 1.45 0.25 1.3 -0.3 1.45 -0.3 1.55 -0.3 1.65 -0.3 1.65 -0.35 1.7 -0.35 1.8 -0.35 1.85 -0.35 1.9 -0.4 1.95 -0.4 2.7 -0.55 2.85 -0.65 2.95 -0.7 2.9 -0.6 2.75 -0.25 2.7 0.0 Q2.65 0.7 3.55 1.0 L3.8 1.0 4.1 0.85 4.35 0.65 4.6 -0.1 4.45 -0.6 4.1 -0.95 3.6 -1.0 3.55 -1.0 3.6 -1.05 M-0.3 6.25 L-0.35 6.2 -0.7 6.2 -1.65 6.05 -1.7 6.05 -2.35 5.8 -2.45 5.8 -2.85 5.65 -2.85 5.5 -2.85 5.45 -2.85 5.4 -2.55 5.45 -2.5 5.5 -1.85 5.6 -1.8 5.65 -1.75 5.65 -1.55 5.7 -1.5 5.7 -1.35 5.75 -1.3 5.75 -1.25 5.75 -1.2 5.8 -1.1 5.8 -1.05 5.8 -1.0 5.85 -0.85 5.85 -0.8 5.85 -0.7 5.85 -0.65 5.9 -0.6 5.9 -0.5 5.9 -0.15 5.9 -0.05 5.9 0.1 5.95 0.25 5.9 0.5 5.9 0.55 5.85 0.65 5.9 0.8 5.85 0.9 5.85 1.1 5.8 1.2 5.85 1.35 5.75 1.75 5.65 1.8 5.65 1.95 5.55 2.1 5.55 2.75 5.25 2.8 5.4 2.8 5.5 2.6 5.55 2.55 5.6 Q2.4 5.65 2.3 5.75 L2.25 5.75 2.1 5.85 1.95 5.85 1.65 5.95 1.55 6.0 1.45 6.0 1.2 6.05 1.1 6.05 1.0 6.1 0.15 6.2 -0.05 6.2 -0.25 6.2 -0.3 6.25 M1.55 4.6 L1.85 4.5 1.9 4.5 1.95 4.5 2.0 4.5 2.1 4.45 2.25 4.4 2.3 4.4 2.35 4.35 2.4 4.35 2.5 4.3 2.5 4.4 2.55 4.5 2.7 4.75 2.25 4.85 2.2 4.9 2.1 4.9 2.0 4.95 1.9 5.0 1.65 5.0 1.6 5.0 1.5 5.0 1.5 5.05 1.25 5.1 1.2 5.1 1.05 5.15 0.95 5.15 0.9 5.15 0.8 5.15 0.75 5.2 0.55 5.2 0.45 5.2 0.35 5.25 0.0 5.25 -2.8 4.9 -2.75 4.55 -2.75 4.5 -2.7 4.45 -1.95 4.6 -1.85 4.65 -1.75 4.65 -1.7 4.65 -1.45 4.7 -1.2 4.7 -1.1 4.75 -0.95 4.75 -0.9 4.75 -0.7 4.8 -0.6 4.8 -0.5 4.8 -0.35 4.8 -0.3 4.8 -0.15 4.8 -0.05 4.85 0.0 4.8 0.5 4.8 0.65 4.8 0.8 4.8 0.85 4.75 0.95 4.75 1.55 4.6 M-4.0 1.0 L-4.25 0.95 -4.3 0.95 -7.3 0.4 -7.5 -0.25 -7.5 -0.3 -7.55 -0.3 -7.55 -0.35 -7.55 -0.4 -7.6 -0.45 -7.6 -0.5 -7.6 -0.55 -7.6 -0.6 -7.65 -0.6 -7.65 -0.7 -7.65 -0.75 -7.7 -0.8 -7.7 -1.05 -7.7 -1.1 -7.7 -1.35 -7.3 -2.95 -7.05 -3.35 -6.75 -3.65 -6.55 -3.55 -6.4 -3.4 -6.35 -3.4 -6.2 -3.25 -6.15 -3.25 -5.9 -3.05 -5.85 -3.0 -5.7 -2.9 -5.65 -2.85 -5.4 -2.65 -5.35 -2.65 -5.15 -2.5 -5.15 -2.45 -4.85 -2.25 -4.65 -2.1 -4.6 -2.1 -4.55 -2.0 -4.35 -1.85 -4.3 -1.85 -4.3 -1.8 -4.25 -1.8 -4.0 -1.55 -3.95 -1.55 -3.5 -1.25 -3.45 -1.2 -3.4 -1.15 -3.05 -0.9 -2.35 -0.55 -1.95 -0.45 -1.25 -0.3 -1.15 -0.3 -1.1 -0.3 -0.9 -0.3 -1.0 -0.2 -1.0 -0.15 -1.0 -0.05 -1.15 0.35 -1.15 0.4 -1.25 0.6 -1.35 0.75 -1.95 1.3 -3.55 1.05 -3.6 1.0 -3.15 0.85 -2.85 0.55 -2.75 0.15 -2.75 0.1 -2.75 0.05 -2.8 -0.25 -2.9 -0.55 -3.1 -0.8 -3.3 -0.9 -3.6 -1.0 Q-4.7 -0.95 -4.65 -0.2 -4.8 0.4 -4.05 0.9 L-3.95 0.95 -4.0 1.0" fill="#e6e6e6" fill-rule="evenodd" stroke="none"/>
    <path d="M2.85 -0.65 L3.0 -0.85 3.35 -1.0 3.45 -1.05 3.6 -1.05 3.55 -1.0 3.6 -1.0 4.1 -0.95 4.45 -0.6 4.6 -0.1 4.35 0.65 4.1 0.85 3.8 1.0 3.55 1.0 Q2.65 0.7 2.7 0.0 L2.75 -0.25 2.9 -0.6 2.95 -0.7 2.85 -0.65 M-2.85 5.5 L-3.5 5.0 -3.55 4.95 -3.65 4.85 -3.7 4.75 -3.75 4.7 -4.45 3.75 -4.55 3.6 -5.4 2.35 -5.4 2.3 -5.2 2.4 -5.2 2.45 -5.05 2.55 Q-4.65 2.75 -4.3 3.0 L-4.1 3.2 -3.9 3.25 -3.4 3.55 -3.3 3.6 -3.1 3.75 -2.9 3.85 -2.85 3.85 -2.15 4.2 -2.0 4.25 -1.9 4.3 -1.8 4.35 -1.5 4.4 -1.45 4.4 -1.45 4.45 -1.4 4.45 -1.35 4.45 -1.3 4.45 -1.2 4.5 -1.15 4.5 -0.9 4.55 -0.8 4.55 -0.75 4.6 -0.6 4.6 -0.55 4.6 -0.3 4.6 -0.25 4.65 0.55 4.6 1.1 4.5 1.15 4.5 1.2 4.5 1.5 4.4 2.3 4.15 4.1 3.2 4.4 2.95 5.05 2.55 5.3 2.35 5.35 2.3 5.4 2.25 5.4 2.35 3.7 4.7 3.55 4.85 3.5 4.95 3.2 5.25 3.1 5.3 2.7 5.6 2.65 5.6 2.6 5.65 2.55 5.65 1.65 6.05 0.85 6.15 0.8 6.15 0.7 6.15 0.65 6.2 0.0 6.25 -0.3 6.25 -0.25 6.2 -0.05 6.2 0.15 6.2 1.0 6.1 1.1 6.05 1.2 6.05 1.45 6.0 1.55 6.0 1.65 5.95 1.95 5.85 2.1 5.85 2.25 5.75 2.3 5.75 Q2.4 5.65 2.55 5.6 L2.6 5.55 2.8 5.5 2.8 5.4 2.75 5.25 2.1 5.55 1.95 5.55 1.8 5.65 1.75 5.65 1.35 5.75 1.2 5.85 1.1 5.8 0.9 5.85 0.8 5.85 0.65 5.9 0.55 5.85 0.5 5.9 0.25 5.9 0.1 5.95 -0.05 5.9 -0.15 5.9 -0.5 5.9 -0.6 5.9 -0.65 5.9 -0.7 5.85 -0.8 5.85 -0.85 5.85 -1.0 5.85 -1.05 5.8 -1.1 5.8 -1.2 5.8 -1.25 5.75 -1.3 5.75 -1.35 5.75 -1.5 5.7 -1.55 5.7 -1.75 5.65 -1.8 5.65 -1.85 5.6 -2.5 5.5 -2.55 5.45 -2.85 5.4 -2.85 5.45 -2.85 5.5 M1.55 4.6 L0.95 4.75 0.85 4.75 0.8 4.8 0.65 4.8 0.5 4.8 0.0 4.8 -0.05 4.85 -0.15 4.8 -0.3 4.8 -0.35 4.8 -0.5 4.8 -0.6 4.8 -0.7 4.8 -0.9 4.75 -0.95 4.75 -1.1 4.75 -1.2 4.7 -1.45 4.7 -1.7 4.65 -1.75 4.65 -1.85 4.65 -1.95 4.6 -2.7 4.45 -2.75 4.5 -2.75 4.55 -2.8 4.9 0.0 5.25 0.35 5.25 0.45 5.2 0.55 5.2 0.75 5.2 0.8 5.15 0.9 5.15 0.95 5.15 1.05 5.15 1.2 5.1 1.25 5.1 1.5 5.05 1.5 5.0 1.6 5.0 1.65 5.0 1.9 5.0 2.0 4.95 2.1 4.9 2.2 4.9 2.25 4.85 2.7 4.75 2.55 4.5 2.5 4.4 2.5 4.3 2.4 4.35 2.35 4.35 2.3 4.4 2.25 4.4 2.1 4.45 2.0 4.5 1.95 4.5 1.9 4.5 1.85 4.5 1.55 4.6 M-3.55 1.05 L-3.8 1.05 -4.0 1.0 -3.95 0.95 -4.05 0.9 Q-4.8 0.4 -4.65 -0.2 -4.7 -0.95 -3.6 -1.0 L-3.3 -0.9 -3.1 -0.8 -2.9 -0.55 -2.8 -0.25 -2.75 0.05 -2.75 0.1 -2.75 0.15 -2.85 0.55 -3.15 0.85 -3.6 1.0 -3.55 1.05" fill="#000000" fill-rule="evenodd" stroke="none"/>
    <path d="M-0.5 -5.15 L-0.6 -3.95 -1.2 -3.1 -2.25 -2.15 -2.6 -2.05 -4.05 -2.0 -4.35 -1.9 -4.45 -1.95 -6.65 -3.65 -6.7 -4.55 -6.45 -5.8 Q-5.1 -8.15 -1.95 -7.4 L-1.55 -7.1 -0.6 -6.05 -0.5 -5.15" fill="#939393" fill-opacity="0.36862746" fill-rule="evenodd" stroke="none"/>
  </g>
</svg>
