<?xml version="1.0" encoding="UTF-8" standalone="no"?>
<svg xmlns:ffdec="https://www.free-decompiler.com/flash" xmlns:xlink="http://www.w3.org/1999/xlink" ffdec:objectType="shape" height="244.25px" width="216.55px" xmlns="http://www.w3.org/2000/svg">
  <g transform="matrix(1.0, 0.0, 0.0, 1.0, 108.75, 121.5)">
    <path d="M-5.25 -121.5 Q32.25 -121.5 57.5 -104.75 96.75 -78.25 105.75 -35.0 114.0 9.25 89.25 47.25 59.75 86.5 19.25 92.5 L19.25 118.25 Q17.5 122.0 5.5 122.75 L-10.25 122.5 Q-17.5 121.5 -20.0 120.0 L-21.0 118.5 -21.0 92.5 Q-103.75 69.25 -108.75 -13.5 -108.5 -58.25 -76.5 -90.25 L-57.5 -105.5 -36.5 -115.5 -20.5 -119.25 -5.25 -121.5 M30.75 -6.0 L29.0 -5.0 21.0 -3.0 20.25 -3.0 19.75 -2.75 19.0 -2.75 18.25 -2.5 17.75 -2.5 17.25 -2.25 16.25 -2.25 15.5 -2.0 13.5 -2.0 15.0 2.5 15.25 3.75 17.25 7.75 17.25 8.0 18.0 8.75 18.5 9.5 23.75 14.5 24.5 15.5 67.5 8.25 68.25 8.0 82.5 5.25 83.0 2.5 85.25 -3.0 86.5 -12.5 86.5 -15.25 86.0 -18.25 85.25 -20.0 85.25 -21.25 84.5 -24.5 83.0 -29.25 80.75 -33.25 80.25 -33.75 79.75 -34.5 75.75 -38.75 43.25 -13.5 38.75 -10.5 37.0 -10.25 36.0 -10.0 32.25 -8.0 30.75 -6.0 M-39.0 12.75 L-21.75 15.5 -15.5 9.5 -15.25 9.0 -14.25 7.75 -13.0 5.25 -13.0 5.0 -11.5 0.75 -11.25 -0.75 -11.25 -1.0 -10.5 -2.0 -12.25 -2.0 -13.0 -2.25 -14.0 -2.25 -18.0 -3.0 -19.75 -3.5 -21.75 -3.75 -26.0 -5.0 -33.5 -8.75 -37.5 -11.5 -38.0 -12.0 -38.5 -12.25 -43.25 -15.5 -43.25 -15.75 -43.75 -15.75 -46.5 -18.25 -47.0 -18.5 -47.5 -19.0 -48.0 -19.25 -49.75 -20.5 -50.75 -21.5 -51.25 -21.75 -53.0 -23.25 -53.5 -23.5 -56.25 -25.75 -56.75 -26.0 -58.5 -27.5 -59.0 -27.75 -61.75 -30.0 -62.25 -30.25 -64.0 -31.75 -64.5 -32.0 -67.25 -34.25 -67.75 -34.5 -69.75 -35.75 -70.25 -36.0 -71.75 -37.75 -73.75 -38.75 -77.0 -35.25 -78.5 -33.25 -80.0 -30.75 -82.0 -25.0 -84.5 -13.75 -84.5 -10.75 -84.25 -10.25 -84.25 -8.75 -84.0 -7.75 -84.0 -7.5 -83.75 -7.25 -83.75 -6.5 -83.5 -6.25 -83.5 -5.5 -83.25 -5.25 -83.25 -4.75 -83.0 -4.25 -83.0 -3.75 -82.75 -3.5 -82.75 -3.25 -82.5 -2.75 -82.5 -2.25 -82.25 -2.0 -82.25 -1.5 -80.0 5.5 -47.25 11.25 -46.5 11.5 -44.0 11.75 -41.75 12.75 -39.0 12.75 M-4.0 69.0 L-0.5 69.25 6.5 68.5 7.25 68.25 8.5 68.25 9.0 68.0 17.5 66.75 27.5 62.75 27.75 62.5 28.25 62.25 28.5 62.0 28.75 62.0 33.25 59.0 33.5 58.75 34.25 58.25 37.75 55.0 38.25 54.0 39.25 53.0 39.5 53.0 40.0 52.5 58.25 26.75 58.5 25.75 57.75 26.25 57.25 26.5 54.25 29.0 47.5 33.0 44.0 35.75 24.5 46.0 16.0 49.25 12.5 50.0 12.0 50.25 11.75 50.25 5.25 51.25 -3.25 51.5 -3.75 51.25 -6.5 51.25 -7.0 51.0 -8.5 51.0 -9.0 50.75 -10.0 50.75 -12.75 50.25 -13.0 50.25 -13.5 50.0 -14.75 49.75 -15.0 49.75 -15.5 49.5 -16.0 49.5 -16.5 49.25 -17.0 49.25 -20.25 48.25 -21.25 47.75 -22.25 47.5 -23.75 46.75 -24.0 46.75 -31.75 43.0 -32.0 43.0 -34.0 42.0 -34.0 41.75 -36.25 40.5 -36.5 40.5 -37.5 39.75 -43.0 36.5 -45.25 35.75 -47.25 33.75 -55.25 28.75 -55.5 28.75 -57.0 27.5 -57.25 27.25 -59.25 26.0 -59.5 26.5 -50.0 40.25 -48.75 41.75 -41.5 52.0 -40.75 52.75 -40.75 53.0 -40.0 54.0 -39.25 54.75 -38.5 55.25 -31.75 61.0 -31.75 62.5 -27.25 64.0 -27.0 64.25 -26.25 64.25 -21.75 66.0 -19.0 66.75 -18.5 67.0 -13.5 68.0 -8.25 68.75 -4.5 68.75 -4.0 69.0" fill="#070707" fill-rule="evenodd" stroke="none"/>
    <path d="M38.75 -10.5 L43.25 -13.5 75.75 -38.75 79.75 -34.5 80.25 -33.75 80.75 -33.25 83.0 -29.25 84.5 -24.5 85.25 -21.25 85.25 -20.0 86.0 -18.25 86.5 -15.25 86.5 -12.5 85.25 -3.0 83.0 2.5 82.5 5.25 68.25 8.0 67.5 8.25 24.5 15.5 23.75 14.5 18.5 9.5 18.0 8.75 17.25 8.0 17.25 7.75 15.25 3.75 15.0 2.5 13.5 -2.0 15.5 -2.0 16.25 -2.25 17.25 -2.25 17.75 -2.5 18.25 -2.5 19.0 -2.75 19.75 -2.75 20.25 -3.0 21.0 -3.0 29.0 -5.0 30.75 -6.0 31.75 -6.25 31.0 -5.25 29.25 -1.5 29.0 1.0 Q28.5 8.75 38.0 12.25 L41.0 12.0 44.0 10.5 46.75 8.0 Q49.75 4.0 49.75 -0.25 L48.0 -5.25 44.0 -9.0 Q39.5 -10.75 38.5 -9.75 L38.0 -10.0 38.75 -10.5 M-44.0 11.75 L-46.5 11.5 -47.25 11.25 -80.0 5.5 -82.25 -1.5 -82.25 -2.0 -82.5 -2.25 -82.5 -2.75 -82.75 -3.25 -82.75 -3.5 -83.0 -3.75 -83.0 -4.25 -83.25 -4.75 -83.25 -5.25 -83.5 -5.5 -83.5 -6.25 -83.75 -6.5 -83.75 -7.25 -84.0 -7.5 -84.0 -7.75 -84.25 -8.75 -84.25 -10.25 -84.5 -10.75 -84.5 -13.75 -82.0 -25.0 -80.0 -30.75 -78.5 -33.25 -77.0 -35.25 -73.75 -38.75 -71.75 -37.75 -70.25 -36.0 -69.75 -35.75 -67.75 -34.5 -67.25 -34.25 -64.5 -32.0 -64.0 -31.75 -62.25 -30.25 -61.75 -30.0 -59.0 -27.75 -58.5 -27.5 -56.75 -26.0 -56.25 -25.75 -53.5 -23.5 -53.0 -23.25 -51.25 -21.75 -50.75 -21.5 -49.75 -20.5 -48.0 -19.25 -47.5 -19.0 -47.0 -18.5 -46.5 -18.25 -43.75 -15.75 -43.25 -15.75 -43.25 -15.5 -38.5 -12.25 -38.0 -12.0 -37.5 -11.5 -33.5 -8.75 -26.0 -5.0 -21.75 -3.75 -19.75 -3.5 -18.0 -3.0 -14.0 -2.25 -13.0 -2.25 -12.25 -2.0 -10.5 -2.0 -11.25 -1.0 -11.25 -0.75 -11.5 0.75 -13.0 5.0 -13.0 5.25 -14.25 7.75 -15.25 9.0 -15.5 9.5 -21.75 15.5 -39.0 12.75 -39.75 12.25 Q-36.5 12.25 -34.5 10.25 L-31.75 7.0 -30.5 3.0 -30.5 2.25 -30.25 1.5 -30.75 -1.75 -32.0 -4.75 -34.25 -7.5 -36.25 -8.75 -39.5 -10.0 Q-51.25 -9.0 -51.25 -1.0 -52.5 5.75 -44.75 11.0 L-43.5 11.5 -44.0 11.75 M-4.0 69.0 L-4.5 68.75 -8.25 68.75 -13.5 68.0 -18.5 67.0 -19.0 66.75 -21.75 66.0 -26.25 64.25 -27.0 64.25 -27.25 64.0 -31.75 62.5 -31.75 61.0 -31.5 60.25 -31.25 59.75 -28.0 60.5 -27.5 60.75 -20.75 62.25 -20.25 62.5 -19.5 62.75 -19.25 62.75 -17.5 63.0 -17.0 63.25 -15.25 63.5 -14.75 63.75 -14.0 63.75 -13.5 64.0 -12.5 64.25 -11.75 64.25 -11.25 64.5 -9.5 64.75 -9.25 65.0 -8.0 65.0 -7.5 65.25 -7.0 65.25 -6.0 65.5 -2.0 65.5 -1.0 65.25 0.5 65.75 2.0 65.25 5.0 65.25 5.75 65.0 6.5 65.25 8.0 64.75 9.5 65.0 11.25 64.25 12.75 64.5 14.25 63.75 18.5 62.5 19.25 62.75 20.75 61.75 22.25 61.25 25.5 59.75 26.25 59.5 29.5 58.0 30.0 60.0 30.25 60.5 30.25 60.75 28.0 61.75 27.25 62.25 26.0 62.75 24.75 63.5 23.75 63.75 22.25 64.5 21.0 64.75 20.5 65.0 17.75 65.75 17.5 65.75 16.5 66.25 15.5 66.25 12.75 67.0 11.25 67.0 10.5 67.25 1.25 68.5 -0.75 68.5 -3.0 68.75 -4.0 69.0 M25.5 48.5 L26.75 48.0 26.75 49.0 27.5 50.0 28.75 52.75 24.25 54.0 23.5 54.5 22.5 54.5 21.25 54.75 20.0 55.25 18.5 55.5 17.75 55.5 16.75 55.75 16.0 55.75 15.75 56.0 13.0 56.5 12.5 56.5 10.75 57.0 10.0 57.0 9.5 57.25 8.5 57.25 7.75 57.5 5.25 57.75 4.25 57.75 3.5 58.0 -0.5 58.0 -31.0 54.25 -30.5 50.75 -30.5 50.0 -30.0 49.75 -21.5 51.25 -20.75 51.5 -19.75 51.5 -18.75 51.75 -16.5 52.0 -16.0 52.25 -13.5 52.5 -12.5 52.75 -10.75 53.0 -10.0 53.0 -8.25 53.25 -8.0 53.25 -7.0 53.5 -6.0 53.25 -4.5 53.25 -3.5 53.5 -2.0 53.5 -1.25 54.0 -0.5 53.5 5.0 53.5 6.75 53.25 8.5 53.25 9.0 52.75 9.75 52.75 16.5 51.25 18.25 50.75 19.5 50.25 20.25 50.25 20.5 50.0 21.5 50.25 22.25 49.5 23.75 49.0 24.0 49.0 24.75 48.75 25.25 48.5 25.5 48.5" fill="#e6e6e6" fill-rule="evenodd" stroke="none"/>
    <path d="M30.75 -6.0 L32.25 -8.0 36.0 -10.0 37.0 -10.25 38.75 -10.5 38.0 -10.0 38.5 -9.75 Q39.5 -10.75 44.0 -9.0 L48.0 -5.25 49.75 -0.25 Q49.75 4.0 46.75 8.0 L44.0 10.5 41.0 12.0 38.0 12.25 Q28.5 8.75 29.0 1.0 L29.25 -1.5 31.0 -5.25 31.75 -6.25 30.75 -6.0 M-39.0 12.75 L-41.75 12.75 -44.0 11.75 -43.5 11.5 -44.75 11.0 Q-52.5 5.75 -51.25 -1.0 -51.25 -9.0 -39.5 -10.0 L-36.25 -8.75 -34.25 -7.5 -32.0 -4.75 -30.75 -1.75 -30.25 1.5 -30.5 2.25 -30.5 3.0 -31.75 7.0 -34.5 10.25 Q-36.5 12.25 -39.75 12.25 L-39.0 12.75 M-31.75 61.0 L-38.5 55.25 -39.25 54.75 -40.0 54.0 -40.75 53.0 -40.75 52.75 -41.5 52.0 -48.75 41.75 -50.0 40.25 -59.5 26.5 -59.25 26.0 -57.25 27.25 -57.0 27.5 -55.5 28.75 -55.25 28.75 -47.25 33.75 -45.25 35.75 -43.0 36.5 -37.5 39.75 -36.5 40.5 -36.25 40.5 -34.0 41.75 -34.0 42.0 -32.0 43.0 -31.75 43.0 -24.0 46.75 -23.75 46.75 -22.25 47.5 -21.25 47.75 -20.25 48.25 -17.0 49.25 -16.5 49.25 -16.0 49.5 -15.5 49.5 -15.0 49.75 -14.75 49.75 -13.5 50.0 -13.0 50.25 -12.75 50.25 -10.0 50.75 -9.0 50.75 -8.5 51.0 -7.0 51.0 -6.5 51.25 -3.75 51.25 -3.25 51.5 5.25 51.25 11.75 50.25 12.0 50.25 12.5 50.0 16.0 49.25 24.5 46.0 44.0 35.75 47.5 33.0 54.25 29.0 57.25 26.5 57.75 26.25 58.5 25.75 58.25 26.75 40.0 52.5 39.5 53.0 39.25 53.0 38.25 54.0 37.75 55.0 34.25 58.25 33.5 58.75 33.25 59.0 28.75 62.0 28.5 62.0 28.25 62.25 27.75 62.5 27.5 62.75 17.5 66.75 9.0 68.0 8.5 68.25 7.25 68.25 6.5 68.5 -0.5 69.25 -4.0 69.0 -3.0 68.75 -0.75 68.5 1.25 68.5 10.5 67.25 11.25 67.0 12.75 67.0 15.5 66.25 16.5 66.25 17.5 65.75 17.75 65.75 20.5 65.0 21.0 64.75 22.25 64.5 23.75 63.75 24.75 63.5 26.0 62.75 27.25 62.25 28.0 61.75 30.25 60.75 30.25 60.5 30.0 60.0 29.5 58.0 26.25 59.5 25.5 59.75 22.25 61.25 20.75 61.75 19.25 62.75 18.5 62.5 14.25 63.75 12.75 64.5 11.25 64.25 9.5 65.0 8.0 64.75 6.5 65.25 5.75 65.0 5.0 65.25 2.0 65.25 0.5 65.75 -1.0 65.25 -2.0 65.5 -6.0 65.5 -7.0 65.25 -7.5 65.25 -8.0 65.0 -9.25 65.0 -9.5 64.75 -11.25 64.5 -11.75 64.25 -12.5 64.25 -13.5 64.0 -14.0 63.75 -14.75 63.75 -15.25 63.5 -17.0 63.25 -17.5 63.0 -19.25 62.75 -19.5 62.75 -20.25 62.5 -20.75 62.25 -27.5 60.75 -28.0 60.5 -31.25 59.75 -31.5 60.25 -31.75 61.0 M25.5 48.5 L25.25 48.5 24.75 48.75 24.0 49.0 23.75 49.0 22.25 49.5 21.5 50.25 20.5 50.0 20.25 50.25 19.5 50.25 18.25 50.75 16.5 51.25 9.75 52.75 9.0 52.75 8.5 53.25 6.75 53.25 5.0 53.5 -0.5 53.5 -1.25 54.0 -2.0 53.5 -3.5 53.5 -4.5 53.25 -6.0 53.25 -7.0 53.5 -8.0 53.25 -8.25 53.25 -10.0 53.0 -10.75 53.0 -12.5 52.75 -13.5 52.5 -16.0 52.25 -16.5 52.0 -18.75 51.75 -19.75 51.5 -20.75 51.5 -21.5 51.25 -30.0 49.75 -30.5 50.0 -30.5 50.75 -31.0 54.25 -0.5 58.0 3.5 58.0 4.25 57.75 5.25 57.75 7.75 57.5 8.5 57.25 9.5 57.25 10.0 57.0 10.75 57.0 12.5 56.5 13.0 56.5 15.75 56.0 16.0 55.75 16.75 55.75 17.75 55.5 18.5 55.5 20.0 55.25 21.25 54.75 22.5 54.5 23.5 54.5 24.25 54.0 28.75 52.75 27.5 50.0 26.75 49.0 26.75 48.0 25.5 48.5" fill="#000000" fill-rule="evenodd" stroke="none"/>
    <path d="M-5.75 -54.75 L-6.75 -41.75 -13.25 -32.5 -24.75 -22.25 -28.75 -21.0 -44.5 -20.25 -47.5 -19.5 -49.0 -20.0 -72.75 -38.5 -73.0 -48.25 -70.75 -61.75 Q-56.0 -87.5 -21.5 -79.5 L-17.25 -76.0 -7.0 -64.75 -5.75 -54.75" fill="#939393" fill-opacity="0.36862746" fill-rule="evenodd" stroke="none"/>
  </g>
</svg>
