<?xml version="1.0" encoding="UTF-8" standalone="no"?>
<svg xmlns:ffdec="https://www.free-decompiler.com/flash" xmlns:xlink="http://www.w3.org/1999/xlink" ffdec:objectType="shape" height="244.5px" width="216.55px" xmlns="http://www.w3.org/2000/svg">
  <g transform="matrix(1.0, 0.0, 0.0, 1.0, 108.75, 121.5)">
    <path d="M-5.25 -121.5 Q32.25 -121.5 57.5 -104.75 96.75 -78.25 105.75 -35.0 114.0 9.25 89.25 47.25 60.0 86.5 18.75 92.75 L18.75 119.25 Q17.0 122.0 -1.0 123.0 -17.25 122.5 -20.75 119.5 L-21.0 92.5 Q-103.75 69.25 -108.75 -13.5 -108.5 -58.25 -76.5 -90.25 L-57.5 -105.5 -36.5 -115.5 -20.5 -119.25 -5.25 -121.5 M14.0 -10.25 L12.25 -10.25 11.25 -10.0 7.5 -8.25 5.5 -6.0 3.75 -5.0 -5.0 -3.0 -5.75 -2.75 -6.25 -2.75 -7.0 -2.5 -7.25 -2.5 -8.25 -2.25 -8.5 -2.0 -9.0 -2.25 -10.0 -2.0 -12.0 -2.0 -11.75 -1.5 -11.75 -1.25 -9.0 6.0 -8.25 7.5 -7.75 8.25 -7.5 8.5 -6.0 10.25 -1.25 14.25 -0.25 15.5 4.5 14.75 5.5 14.75 6.25 14.5 6.5 14.5 46.5 8.25 47.75 8.25 65.25 5.25 65.5 4.0 65.75 3.25 65.75 2.75 66.0 2.5 66.0 2.25 69.75 -8.0 70.0 -10.75 69.75 -12.75 69.75 -15.5 69.25 -18.5 67.0 -26.75 65.75 -30.0 64.25 -32.75 60.75 -36.5 57.0 -39.75 14.0 -10.25 M-60.5 12.5 L-45.0 15.25 -43.75 14.25 -42.25 12.25 -39.75 10.0 -40.0 10.0 -39.75 9.5 -39.25 9.0 -38.25 7.75 -37.5 6.5 -36.0 2.25 -35.75 1.0 -35.25 -0.5 -35.25 -2.0 -37.5 -2.0 -39.5 -2.5 -40.0 -2.75 -40.75 -2.75 -41.25 -3.0 -42.25 -3.0 -44.0 -3.5 -44.5 -3.5 -45.0 -3.75 -46.0 -3.75 -47.0 -4.25 -47.75 -4.25 -49.75 -5.0 -50.5 -5.5 -51.5 -5.75 -52.0 -6.25 -54.0 -7.25 -54.25 -7.5 -54.75 -7.5 -56.5 -8.75 -57.25 -9.5 -57.75 -9.75 -58.0 -9.75 -59.0 -10.75 -59.75 -11.0 -60.0 -11.5 -61.0 -12.25 -61.25 -12.5 -62.5 -13.25 -65.0 -15.5 -66.0 -16.25 -66.5 -16.75 -68.0 -18.0 -68.5 -18.5 -70.0 -19.75 -70.75 -20.25 -85.5 -34.5 -86.0 -34.75 -88.5 -37.75 -92.0 -33.25 -93.75 -29.5 -94.0 -28.75 -97.25 -15.0 -97.25 -9.75 -96.75 -6.5 -96.5 -6.25 -96.5 -5.5 -93.5 5.25 -64.25 11.75 -60.5 12.5 M-21.0 68.5 L-18.0 69.0 -11.75 68.5 -10.75 68.25 -9.5 68.25 -8.75 68.0 -7.0 68.0 4.5 65.5 9.25 63.25 9.75 62.75 13.5 61.0 15.5 58.75 16.0 58.5 18.75 55.25 19.5 54.5 27.75 42.5 28.5 40.75 38.0 26.75 37.75 26.25 33.5 29.25 28.5 32.0 22.5 36.0 Q12.9 41.15 3.25 46.25 L-2.5 48.5 -4.0 48.75 -9.5 50.25 -21.5 51.25 -24.0 51.25 -24.5 51.0 -26.75 51.0 -27.25 50.75 -30.0 50.5 -30.75 50.25 -32.5 50.0 -33.0 49.75 -33.75 49.75 -36.0 49.0 -37.25 48.75 -40.0 47.75 -40.25 47.75 -41.25 47.25 -42.25 47.0 -43.5 46.25 -44.0 46.25 -51.0 42.5 -51.25 42.5 -52.25 41.75 -53.25 41.25 -53.5 41.0 -55.75 39.75 -56.0 39.5 -60.0 37.25 -60.5 36.75 -61.25 36.25 -64.0 35.0 -64.75 34.0 -65.25 33.75 -66.25 32.75 -67.25 32.25 -67.25 32.0 -67.75 31.75 -68.75 31.0 -69.0 31.0 -70.5 29.5 -71.0 29.25 -71.5 28.75 -72.0 28.5 -72.5 28.0 -73.0 28.0 -73.5 27.25 -74.0 27.0 -74.5 26.5 -75.0 26.25 -75.5 25.75 -76.5 25.5 -67.0 39.5 -57.0 53.0 -51.5 57.75 -51.0 58.25 -50.75 58.25 -48.5 60.0 -48.25 61.5 -42.75 63.5 -42.0 64.0 -41.5 64.0 -41.0 64.25 -40.25 64.5 -38.75 65.25 -36.0 66.0 -35.5 66.25 -32.25 67.0 -31.5 67.25 -29.0 67.75 -25.5 68.25 -24.75 68.25 -23.75 68.5 -21.0 68.5" fill="#070707" fill-rule="evenodd" stroke="none"/>
    <path d="M5.5 -6.0 L6.5 -5.75 5.5 -4.5 4.0 -1.0 4.0 1.0 Q3.0 8.75 14.0 12.25 L16.5 12.25 20.5 10.5 23.0 8.25 Q31.5 -6.75 14.0 -10.0 L13.0 -9.75 14.0 -10.25 57.0 -39.75 60.75 -36.5 64.25 -32.75 65.75 -30.0 67.0 -26.75 69.25 -18.5 69.75 -15.5 69.75 -12.75 70.0 -10.75 69.75 -8.0 66.0 2.25 66.0 2.5 65.75 2.75 65.75 3.25 65.5 4.0 65.25 5.25 47.75 8.25 46.5 8.25 6.5 14.5 6.25 14.5 5.5 14.75 4.5 14.75 -0.25 15.5 -1.25 14.25 -6.0 10.25 -7.5 8.5 -7.75 8.25 -8.25 7.5 -9.0 6.0 -11.75 -1.25 -11.75 -1.5 -12.0 -2.0 -10.0 -2.0 -9.0 -2.25 -8.5 -2.0 -8.25 -2.25 -7.25 -2.5 -7.0 -2.5 -6.25 -2.75 -5.75 -2.75 -5.0 -3.0 3.75 -5.0 5.5 -6.0 M-64.25 11.75 L-93.5 5.25 -96.5 -5.5 -96.5 -6.25 -96.75 -6.5 -97.25 -9.75 -97.25 -15.0 -94.0 -28.75 -93.75 -29.5 -92.0 -33.25 -88.5 -37.75 -86.0 -34.75 -85.5 -34.5 -70.75 -20.25 -70.0 -19.75 -68.5 -18.5 -68.0 -18.0 -66.5 -16.75 -66.0 -16.25 -65.0 -15.5 -62.5 -13.25 -61.25 -12.5 -61.0 -12.25 -60.0 -11.5 -59.75 -11.0 -59.0 -10.75 -58.0 -9.75 -57.75 -9.75 -57.25 -9.5 -56.5 -8.75 -54.75 -7.5 -54.25 -7.5 -54.0 -7.25 -52.0 -6.25 -51.5 -5.75 -50.5 -5.5 -49.75 -5.0 -47.75 -4.25 -47.0 -4.25 -46.0 -3.75 -45.0 -3.75 -44.5 -3.5 -44.0 -3.5 -42.25 -3.0 -41.25 -3.0 -40.75 -2.75 -40.0 -2.75 -39.5 -2.5 -37.5 -2.0 -35.25 -2.0 -35.25 -0.5 -35.75 1.0 -36.0 2.25 -37.5 6.5 -38.25 7.75 -39.25 9.0 -39.75 9.5 -40.0 10.0 -39.75 10.0 -42.25 12.25 -43.75 14.25 -45.0 15.25 -60.5 12.5 -61.0 12.25 -58.5 11.5 -56.75 10.0 -54.25 6.5 -53.5 3.0 -53.5 0.5 -53.75 -1.5 -55.25 -5.0 -57.25 -7.75 -59.0 -8.5 -60.5 -9.5 -61.75 -10.0 Q-71.25 -9.75 -71.75 -0.75 -72.75 1.25 -70.0 6.75 L-65.5 11.0 -64.25 11.75 M-21.0 68.5 L-23.75 68.5 -24.75 68.25 -25.5 68.25 -29.0 67.75 -31.5 67.25 -32.25 67.0 -35.5 66.25 -36.0 66.0 -38.75 65.25 -40.25 64.5 -41.0 64.25 -41.5 64.0 -42.0 64.0 -42.75 63.5 -48.25 61.5 -48.5 60.0 -48.5 59.25 -48.0 59.0 -45.5 59.75 -44.25 60.0 -43.75 60.25 -39.75 61.25 -39.25 61.5 -37.5 62.0 -37.25 62.25 -36.0 62.25 -35.5 62.5 -32.5 63.25 -31.75 63.25 -31.25 63.5 -27.25 64.5 -26.75 64.5 -26.0 64.75 -25.25 64.75 -24.75 65.0 -24.0 65.0 -22.5 65.25 -20.25 65.25 -19.25 65.0 -15.75 65.0 -13.75 65.25 -12.75 65.0 -10.75 64.75 -9.25 64.75 -7.5 65.0 -6.0 64.0 -4.5 63.75 -3.75 63.5 -3.0 63.5 -2.0 63.0 1.75 62.0 3.25 62.0 4.5 61.0 5.25 60.75 8.5 59.25 10.5 58.5 11.5 60.75 11.5 61.25 10.75 61.75 9.5 62.25 8.75 62.75 7.75 63.0 6.5 63.75 5.75 64.0 4.75 64.5 -4.75 67.0 -6.0 67.0 -7.0 67.25 -7.75 67.25 -18.25 68.5 -21.0 68.5 M-43.0 50.25 L-42.5 50.5 -41.25 50.75 -40.5 50.75 -39.5 51.0 -39.25 51.0 -38.75 51.25 -38.5 51.25 -36.5 51.5 -36.0 51.75 -33.5 52.25 -32.0 52.25 -31.25 52.5 -28.75 53.0 -27.25 53.0 -27.0 53.25 -25.75 53.0 -25.0 53.0 -24.5 53.25 -21.25 53.25 -20.5 53.5 -17.5 53.5 -17.5 53.25 -16.25 53.5 -14.25 53.25 -13.75 53.25 -12.5 53.0 -11.75 52.75 -11.0 52.75 -7.25 52.0 -4.5 51.25 -4.0 51.0 -0.75 50.25 0.5 50.5 1.25 49.75 2.75 49.25 3.0 49.25 3.75 49.0 4.25 48.75 4.5 48.75 5.75 48.25 5.75 49.0 6.0 50.0 7.0 50.25 8.5 53.0 6.75 53.5 5.75 54.0 5.0 54.0 4.0 54.5 3.25 54.75 2.0 54.75 -0.75 55.5 -2.25 55.75 -2.75 55.75 -5.5 56.25 -6.0 56.5 -7.0 56.5 -7.75 56.75 -8.75 56.75 -10.0 57.0 -10.75 57.25 -12.25 57.25 -12.25 57.5 -12.75 57.5 -15.25 57.75 -20.5 57.75 -25.0 57.25 -26.0 57.0 -27.0 57.0 -49.0 53.5 -49.25 49.25 -48.75 49.0 -47.75 49.25 -47.25 49.5 -46.5 49.5 -46.0 49.75 -43.0 50.25" fill="#e6e6e6" fill-rule="evenodd" stroke="none"/>
    <path d="M14.0 -10.25 L13.0 -9.75 14.0 -10.0 Q31.5 -6.75 23.0 8.25 L20.5 10.5 16.5 12.25 14.0 12.25 Q3.0 8.75 4.0 1.0 L4.0 -1.0 5.5 -4.5 6.5 -5.75 5.5 -6.0 7.5 -8.25 11.25 -10.0 12.25 -10.25 14.0 -10.25 M-60.5 12.5 L-64.25 11.75 -65.5 11.0 -70.0 6.75 Q-72.75 1.25 -71.75 -0.75 -71.25 -9.75 -61.75 -10.0 L-60.5 -9.5 -59.0 -8.5 -57.25 -7.75 -55.25 -5.0 -53.75 -1.5 -53.5 0.5 -53.5 3.0 -54.25 6.5 -56.75 10.0 -58.5 11.5 -61.0 12.25 -60.5 12.5 M-48.5 60.0 L-50.75 58.25 -51.0 58.25 -51.5 57.75 -57.0 53.0 -67.0 39.5 -76.5 25.5 -75.5 25.75 -75.0 26.25 -74.5 26.5 -74.0 27.0 -73.5 27.25 -73.0 28.0 -72.5 28.0 -72.0 28.5 -71.5 28.75 -71.0 29.25 -70.5 29.5 -69.0 31.0 -68.75 31.0 -67.75 31.75 -67.25 32.0 -67.25 32.25 -66.25 32.75 -65.25 33.75 -64.75 34.0 -64.0 35.0 -61.25 36.25 -60.5 36.75 -60.0 37.25 -56.0 39.5 -55.75 39.75 -53.5 41.0 -53.25 41.25 -52.25 41.75 -51.25 42.5 -51.0 42.5 -44.0 46.25 -43.5 46.25 -42.25 47.0 -41.25 47.25 -40.25 47.75 -40.0 47.75 -37.25 48.75 -36.0 49.0 -33.75 49.75 -33.0 49.75 -32.5 50.0 -30.75 50.25 -30.0 50.5 -27.25 50.75 -26.75 51.0 -24.5 51.0 -24.0 51.25 -21.5 51.25 -9.5 50.25 -4.0 48.75 -2.5 48.5 3.25 46.25 Q12.9 41.15 22.5 36.0 L28.5 32.0 33.5 29.25 37.75 26.25 38.0 26.75 28.5 40.75 27.75 42.5 19.5 54.5 18.75 55.25 16.0 58.5 15.5 58.75 13.5 61.0 9.75 62.75 9.25 63.25 4.5 65.5 -7.0 68.0 -8.75 68.0 -9.5 68.25 -10.75 68.25 -11.75 68.5 -18.0 69.0 -21.0 68.5 -18.25 68.5 -7.75 67.25 -7.0 67.25 -6.0 67.0 -4.75 67.0 4.75 64.5 5.75 64.0 6.5 63.75 7.75 63.0 8.75 62.75 9.5 62.25 10.75 61.75 11.5 61.25 11.5 60.75 10.5 58.5 8.5 59.25 5.25 60.75 4.5 61.0 3.25 62.0 1.75 62.0 -2.0 63.0 -3.0 63.5 -3.75 63.5 -4.5 63.75 -6.0 64.0 -7.5 65.0 -9.25 64.75 -10.75 64.75 -12.75 65.0 -13.75 65.25 -15.75 65.0 -19.25 65.0 -20.25 65.25 -22.5 65.25 -24.0 65.0 -24.75 65.0 -25.25 64.75 -26.0 64.75 -26.75 64.5 -27.25 64.5 -31.25 63.5 -31.75 63.25 -32.5 63.25 -35.5 62.5 -36.0 62.25 -37.25 62.25 -37.5 62.0 -39.25 61.5 -39.75 61.25 -43.75 60.25 -44.25 60.0 -45.5 59.75 -48.0 59.0 -48.5 59.25 -48.5 60.0 M-43.0 50.25 L-46.0 49.75 -46.5 49.5 -47.25 49.5 -47.75 49.25 -48.75 49.0 -49.25 49.25 -49.0 53.5 -27.0 57.0 -26.0 57.0 -25.0 57.25 -20.5 57.75 -15.25 57.75 -12.75 57.5 -12.25 57.5 -12.25 57.25 -10.75 57.25 -10.0 57.0 -8.75 56.75 -7.75 56.75 -7.0 56.5 -6.0 56.5 -5.5 56.25 -2.75 55.75 -2.25 55.75 -0.75 55.5 2.0 54.75 3.25 54.75 4.0 54.5 5.0 54.0 5.75 54.0 6.75 53.5 8.5 53.0 7.0 50.25 6.0 50.0 5.75 49.0 5.75 48.25 4.5 48.75 4.25 48.75 3.75 49.0 3.0 49.25 2.75 49.25 1.25 49.75 0.5 50.5 -0.75 50.25 -4.0 51.0 -4.5 51.25 -7.25 52.0 -11.0 52.75 -11.75 52.75 -12.5 53.0 -13.75 53.25 -14.25 53.25 -16.25 53.5 -17.5 53.25 -17.5 53.5 -20.5 53.5 -21.25 53.25 -24.5 53.25 -25.0 53.0 -25.75 53.0 -27.0 53.25 -27.25 53.0 -28.75 53.0 -31.25 52.5 -32.0 52.25 -33.5 52.25 -36.0 51.75 -36.5 51.5 -38.5 51.25 -38.75 51.25 -39.25 51.0 -39.5 51.0 -40.5 50.75 -41.25 50.75 -42.5 50.5 -43.0 50.25" fill="#000000" fill-rule="evenodd" stroke="none"/>
    <path d="M-21.5 -80.25 L-16.5 -76.25 -6.0 -65.25 -4.5 -57.25 -5.0 -41.75 -12.0 -32.25 -18.25 -26.0 -25.5 -20.25 -33.25 -19.0 -44.0 -19.0 -49.5 -18.0 -58.75 -22.75 -69.75 -31.25 -73.25 -39.25 -73.0 -46.75 -70.5 -61.75 -60.75 -73.75 -51.5 -78.75 -41.0 -82.5 -21.5 -80.25" fill="#939393" fill-opacity="0.36862746" fill-rule="evenodd" stroke="none"/>
  </g>
</svg>
