<?xml version="1.0" encoding="UTF-8" standalone="no"?>
<svg xmlns:ffdec="https://www.free-decompiler.com/flash" xmlns:xlink="http://www.w3.org/1999/xlink" ffdec:objectType="shape" height="244.4px" width="216.7px" xmlns="http://www.w3.org/2000/svg">
  <g transform="matrix(1.0, 0.0, 0.0, 1.0, 108.8, 121.6)">
    <path d="M75.4 -90.2 L89.0 -74.2 99.4 -55.2 105.4 -36.0 106.2 -30.0 Q113.6 7.2 89.0 47.6 63.2 83.8 18.8 92.6 L18.8 118.8 Q17.0 122.0 3.0 122.8 L-12.2 122.2 -17.2 121.2 -20.6 119.8 -21.2 118.4 -21.2 92.2 Q-61.6 84.0 -84.6 54.0 L-89.8 47.8 -100.4 28.4 -106.4 9.0 -108.8 -14.0 Q-107.8 -58.8 -77.2 -89.4 L-74.2 -92.4 -58.4 -104.8 -37.6 -115.0 -32.8 -116.6 -16.0 -120.2 -1.6 -121.6 11.4 -120.8 34.6 -115.8 55.8 -105.8 70.8 -94.4 75.4 -90.2 M-19.6 -6.0 L-19.8 -5.8 -21.8 -5.0 -29.2 -3.2 -29.8 -3.0 -30.0 -3.0 -30.8 -2.8 -31.2 -2.6 -32.2 -2.4 -32.6 -2.4 -32.8 -2.2 -33.6 -2.2 -33.8 -2.0 -34.4 -2.2 -35.8 -2.0 -36.6 -2.0 -36.4 -1.6 -36.4 -1.4 -33.8 5.6 -33.6 6.0 -33.2 6.6 -33.2 6.8 -33.0 7.2 -32.8 7.4 -32.8 7.6 -32.4 8.0 -32.2 8.4 -30.6 10.2 -24.8 15.4 -22.4 15.2 -22.0 15.0 -21.0 15.0 -20.6 14.8 -20.0 14.8 -19.4 14.6 -18.4 14.6 -18.0 14.4 -17.0 14.4 -16.6 14.2 -15.8 14.2 -15.4 14.0 -14.4 14.0 -14.0 13.8 -11.8 13.6 -11.4 13.4 -10.4 13.4 -10.0 13.2 -9.2 13.2 -8.8 13.0 -7.8 13.0 -7.4 12.8 -6.4 12.8 -6.0 12.6 -5.2 12.6 -4.8 12.4 -3.8 12.4 -3.4 12.2 -1.2 12.0 -0.8 11.8 44.0 5.6 45.0 3.4 45.0 3.2 45.4 1.8 45.8 1.4 46.0 1.0 46.8 -1.2 46.8 -1.4 47.0 -2.0 47.2 -2.4 48.2 -5.0 48.2 -5.2 48.8 -6.8 49.4 -9.2 49.4 -11.2 49.6 -12.2 49.2 -12.8 49.4 -13.2 48.8 -15.4 48.8 -16.8 48.6 -17.2 48.6 -17.4 47.0 -23.6 46.8 -24.0 45.8 -27.4 43.8 -32.0 42.2 -34.4 40.2 -36.4 39.8 -36.6 39.2 -37.2 38.8 -37.4 38.4 -37.8 38.0 -38.0 37.6 -38.4 37.2 -38.6 36.6 -39.2 35.0 -40.4 29.0 -36.4 24.2 -34.0 -0.8 -18.0 -11.2 -10.8 -14.2 -10.0 -18.8 -7.4 -19.6 -6.0 M-37.4 67.8 L-34.6 68.4 -31.2 68.2 -30.6 68.0 -29.0 68.0 -28.0 67.8 -26.8 67.8 -26.2 67.6 -24.6 67.6 -24.0 67.4 -17.8 66.4 -9.6 63.4 -9.4 63.0 -9.0 63.0 -6.6 61.4 -4.4 59.4 -3.4 58.0 -2.6 57.2 -0.6 54.0 0.0 53.2 3.2 48.2 10.6 33.6 11.0 33.4 12.0 31.6 15.4 27.0 15.0 26.6 10.8 29.0 10.6 29.2 -12.8 43.4 -21.8 47.4 -26.6 49.2 -35.8 50.6 -41.0 50.8 -43.2 50.6 -43.6 50.4 -44.8 50.4 -45.2 50.2 -46.0 50.2 -47.4 50.0 -47.8 49.8 -49.2 49.6 -49.4 49.6 -50.2 49.4 -50.6 49.2 -51.4 49.2 -51.8 49.0 -52.0 49.0 -54.2 48.2 -55.2 48.0 -56.0 47.6 -56.4 47.6 -57.0 47.2 -57.4 47.0 -58.0 46.8 -58.4 46.6 -59.6 46.2 -59.8 46.2 -61.2 45.4 -61.6 45.0 -62.8 44.6 -63.8 43.8 -64.4 43.6 -64.8 43.2 -67.6 41.6 -67.8 41.4 -68.0 41.4 -68.4 41.0 -68.8 40.8 -69.4 40.4 -69.6 40.4 -69.6 40.2 -70.0 40.0 -71.2 39.2 -71.4 39.0 -71.8 39.0 -72.0 38.6 -72.4 38.4 -74.0 37.2 -74.4 37.0 -77.2 35.0 -77.4 34.8 -77.8 34.6 -78.2 34.2 -78.6 34.0 -79.2 33.8 -79.4 33.4 -80.0 32.8 -80.4 32.6 -80.8 32.2 -81.6 31.6 -82.6 30.6 -83.4 30.0 -84.8 28.4 -86.4 27.2 -87.8 25.8 -88.6 24.6 -89.2 24.8 -85.6 30.8 -85.4 31.2 -72.0 50.2 -71.8 50.8 -70.6 52.0 -65.0 56.8 -64.6 57.2 -64.2 57.4 -62.2 59.0 -62.2 59.2 -61.8 60.4 -59.8 61.2 -59.6 61.2 -59.0 61.6 -57.8 62.0 -57.2 62.4 -57.0 62.6 -56.2 62.8 -55.6 63.2 -54.8 63.4 -53.2 64.2 -52.4 64.4 -51.2 65.0 -43.0 67.2 -41.4 67.4 -40.6 67.6 -39.8 67.6 -38.0 67.8 -37.4 67.8 M-78.4 12.2 L-65.6 15.0 -64.4 14.0 -64.0 13.0 -62.8 12.0 -62.6 11.0 -61.2 9.8 -59.4 6.4 -58.2 2.2 -58.4 0.8 -57.6 -0.6 -57.8 -2.0 -59.2 -2.0 -60.0 -2.2 -60.6 -2.2 -61.0 -2.4 -61.4 -2.4 -61.8 -2.6 -62.4 -2.8 -62.8 -2.8 -63.2 -3.0 -64.0 -3.0 -64.6 -3.2 -65.0 -3.4 -65.4 -3.4 -66.8 -3.8 -67.2 -3.8 -68.0 -4.2 -68.2 -4.2 -69.0 -4.4 -70.4 -5.0 -76.0 -8.6 -83.2 -15.0 -98.0 -33.8 -98.8 -36.6 -99.4 -36.6 -100.4 -34.8 -100.6 -34.0 -101.6 -32.2 -101.8 -31.4 -103.0 -27.8 -105.4 -14.8 -105.4 -11.6 -105.2 -10.2 -105.2 -9.4 -102.4 5.0 -97.8 6.8 -84.4 10.6 -84.0 10.8 -83.8 10.8 -81.6 11.4 -80.2 12.2 -78.4 12.2" fill="#070707" fill-rule="evenodd" stroke="none"/>
    <path d="M-11.2 -10.8 L-0.8 -18.0 24.2 -34.0 29.0 -36.4 35.0 -40.4 36.6 -39.2 37.2 -38.6 37.6 -38.4 38.0 -38.0 38.4 -37.8 38.8 -37.4 39.2 -37.2 39.8 -36.6 40.2 -36.4 42.2 -34.4 43.8 -32.0 45.8 -27.4 46.8 -24.0 47.0 -23.6 48.6 -17.4 48.6 -17.2 48.8 -16.8 48.8 -15.4 49.4 -13.2 49.2 -12.8 49.6 -12.2 49.4 -11.2 49.4 -9.2 48.8 -6.8 48.2 -5.2 48.2 -5.0 47.2 -2.4 47.0 -2.0 46.8 -1.4 46.8 -1.2 46.0 1.0 45.8 1.4 45.4 1.8 45.0 3.2 45.0 3.4 44.0 5.6 -0.8 11.8 -1.2 12.0 -3.4 12.2 -3.8 12.4 -4.8 12.4 -5.2 12.6 -6.0 12.6 -6.4 12.8 -7.4 12.8 -7.8 13.0 -8.8 13.0 -9.2 13.2 -10.0 13.2 -10.4 13.4 -11.4 13.4 -11.8 13.6 -14.0 13.8 -14.4 14.0 -15.4 14.0 -15.8 14.2 -16.6 14.2 -17.0 14.4 -18.0 14.4 -18.4 14.6 -19.4 14.6 -20.0 14.8 -20.6 14.8 -21.0 15.0 -22.0 15.0 -22.4 15.2 -24.8 15.4 -30.6 10.2 -32.2 8.4 -32.4 8.0 -32.8 7.6 -32.8 7.4 -33.0 7.2 -33.2 6.8 -33.2 6.6 -33.6 6.0 -33.8 5.6 -36.4 -1.4 -36.4 -1.6 -36.6 -2.0 -35.8 -2.0 -34.4 -2.2 -33.8 -2.0 -33.6 -2.2 -32.8 -2.2 -32.6 -2.4 -32.2 -2.4 -31.2 -2.6 -30.8 -2.8 -30.0 -3.0 -29.8 -3.0 -29.2 -3.2 -21.8 -5.0 -19.8 -5.8 -19.6 -6.0 -18.8 -6.0 -20.2 -4.2 -20.4 -4.0 -21.0 -2.4 -21.0 -2.2 -21.4 0.8 Q-19.0 11.8 -11.0 12.2 L-8.0 12.2 -4.8 10.6 -2.2 8.4 Q2.8 2.4 -0.2 -3.6 -6.0 -11.8 -11.8 -10.0 L-12.2 -10.2 -11.2 -10.8 M-37.4 67.8 L-38.0 67.8 -39.8 67.6 -40.6 67.6 -41.4 67.4 -43.0 67.2 -51.2 65.0 -52.4 64.4 -53.2 64.2 -54.8 63.4 -55.6 63.2 -56.2 62.8 -57.0 62.6 -57.2 62.4 -57.8 62.0 -59.0 61.6 -59.6 61.2 -59.8 61.2 -61.8 60.4 -62.2 59.2 -62.2 59.0 -62.6 58.4 -62.4 57.8 -53.0 61.0 -52.8 61.2 -52.0 61.2 -51.6 61.4 -43.8 63.6 -43.6 63.8 -42.6 63.8 -42.2 64.0 -40.6 64.4 -36.6 64.4 -35.4 64.8 -34.0 64.4 -32.8 64.4 -31.4 64.6 -30.6 64.4 -29.8 64.6 -28.6 64.4 -27.2 64.4 -25.8 64.0 -24.4 63.8 -23.0 63.4 -22.4 63.4 -19.6 62.6 -9.2 58.4 -7.4 61.2 -7.6 61.4 -8.2 61.4 -8.6 61.8 -9.0 62.0 -9.6 62.2 -9.6 62.4 -10.0 62.6 -10.2 62.6 -12.8 64.0 -13.2 64.0 -13.8 64.2 -13.8 64.4 -14.8 64.6 -16.0 65.0 -16.2 65.2 -16.4 65.2 -22.6 66.6 -23.4 66.6 -23.8 66.8 -25.2 66.8 -35.0 67.8 -37.4 67.8 M-81.6 11.4 L-83.8 10.8 -84.0 10.8 -84.4 10.6 -97.8 6.8 -102.4 5.0 -105.2 -9.4 -105.2 -10.2 -105.4 -11.6 -105.4 -14.8 -103.0 -27.8 -101.8 -31.4 -101.6 -32.2 -100.6 -34.0 -100.4 -34.8 -99.4 -36.6 -98.8 -36.6 -98.0 -33.8 -83.2 -15.0 -76.0 -8.6 -70.4 -5.0 -69.0 -4.4 -68.2 -4.2 -68.0 -4.2 -67.2 -3.8 -66.8 -3.8 -65.4 -3.4 -65.0 -3.4 -64.6 -3.2 -64.0 -3.0 -63.2 -3.0 -62.8 -2.8 -62.4 -2.8 -61.8 -2.6 -61.4 -2.4 -61.0 -2.4 -60.6 -2.2 -60.0 -2.2 -59.2 -2.0 -57.8 -2.0 -57.6 -0.6 -58.4 0.8 -58.2 2.2 -59.4 6.4 -61.2 9.8 -62.6 11.0 -62.8 12.0 -64.0 13.0 -64.4 14.0 -65.6 15.0 -78.4 12.2 -79.2 11.8 Q-77.8 12.4 -75.8 9.8 L-73.8 6.4 -73.2 3.0 -73.2 1.4 -73.6 -1.4 -75.0 -5.2 -76.6 -7.6 -79.2 -9.2 -80.2 -9.6 Q-88.4 -8.6 -88.0 -1.2 -88.6 2.2 -86.2 7.0 L-83.0 10.6 -81.6 11.4 M-43.0 52.4 L-41.8 52.6 -41.2 52.8 -37.4 52.8 -36.4 53.0 -35.8 53.0 -33.4 52.6 -32.8 52.6 -31.6 52.4 -31.2 52.2 -29.4 52.0 -25.0 51.0 -22.6 50.2 -21.8 50.2 -21.0 50.0 -20.8 49.8 -19.8 49.6 -16.0 48.4 -15.2 49.0 -14.8 49.2 -14.2 50.4 -12.6 52.2 -12.2 52.8 -12.6 53.0 -13.4 53.2 -14.2 53.6 -15.4 53.8 -16.8 54.2 -17.6 54.6 -18.6 54.6 -21.0 55.2 -22.4 55.4 -23.2 55.6 -24.6 55.8 -25.4 56.0 -28.0 56.4 -28.4 56.4 -29.2 56.6 -29.6 56.6 -30.0 56.8 -31.0 56.8 -31.6 57.0 -39.0 57.2 -43.6 56.4 -44.4 56.4 -45.0 56.2 -56.6 54.2 -64.4 52.4 -65.2 48.2 -65.0 48.0 -64.8 48.2 -64.2 48.2 -62.0 48.8 -61.6 49.0 -61.4 49.0 -59.8 49.4 -59.4 49.6 -59.0 49.6 -58.6 49.8 -58.4 49.8 -57.8 50.0 -54.6 50.6 -54.2 50.8 -50.6 51.6 -50.2 51.6 -49.4 51.8 -49.0 51.8 -48.2 52.0 -47.8 52.0 -47.0 52.2 -45.0 52.2 -44.6 52.4 -43.0 52.4" fill="#e6e6e6" fill-rule="evenodd" stroke="none"/>
    <path d="M-19.6 -6.0 L-18.8 -7.4 -14.2 -10.0 -11.2 -10.8 -12.2 -10.2 -11.8 -10.0 Q-6.0 -11.8 -0.2 -3.6 2.8 2.4 -2.2 8.4 L-4.8 10.6 -8.0 12.2 -11.0 12.2 Q-19.0 11.8 -21.4 0.8 L-21.0 -2.2 -21.0 -2.4 -20.4 -4.0 -20.2 -4.2 -18.8 -6.0 -19.6 -6.0 M-62.2 59.0 L-64.2 57.4 -64.6 57.2 -65.0 56.8 -70.6 52.0 -71.8 50.8 -72.0 50.2 -85.4 31.2 -85.6 30.8 -89.2 24.8 -88.6 24.6 -87.8 25.8 -86.4 27.2 -84.8 28.4 -83.4 30.0 -82.6 30.6 -81.6 31.6 -80.8 32.2 -80.4 32.6 -80.0 32.8 -79.4 33.4 -79.2 33.8 -78.6 34.0 -78.2 34.2 -77.8 34.6 -77.4 34.8 -77.2 35.0 -74.4 37.0 -74.0 37.2 -72.4 38.4 -72.0 38.6 -71.8 39.0 -71.4 39.0 -71.2 39.2 -70.0 40.0 -69.6 40.2 -69.6 40.4 -69.4 40.4 -68.8 40.8 -68.4 41.0 -68.0 41.4 -67.8 41.4 -67.6 41.6 -64.8 43.2 -64.4 43.6 -63.8 43.8 -62.8 44.6 -61.6 45.0 -61.2 45.4 -59.8 46.2 -59.6 46.2 -58.4 46.6 -58.0 46.8 -57.4 47.0 -57.0 47.2 -56.4 47.6 -56.0 47.6 -55.2 48.0 -54.2 48.2 -52.0 49.0 -51.8 49.0 -51.4 49.2 -50.6 49.2 -50.2 49.4 -49.4 49.6 -49.2 49.6 -47.8 49.8 -47.4 50.0 -46.0 50.2 -45.2 50.2 -44.8 50.4 -43.6 50.4 -43.2 50.6 -41.0 50.8 -35.8 50.6 -26.6 49.2 -21.8 47.4 -12.8 43.4 10.6 29.2 10.8 29.0 15.0 26.6 15.4 27.0 12.0 31.6 11.0 33.4 10.6 33.6 3.2 48.2 0.0 53.2 -0.6 54.0 -2.6 57.2 -3.4 58.0 -4.4 59.4 -6.6 61.4 -9.0 63.0 -9.4 63.0 -9.6 63.4 -17.8 66.4 -24.0 67.4 -24.6 67.6 -26.2 67.6 -26.8 67.8 -28.0 67.8 -29.0 68.0 -30.6 68.0 -31.2 68.2 -34.6 68.4 -37.4 67.8 -35.0 67.8 -25.2 66.8 -23.8 66.8 -23.4 66.6 -22.6 66.6 -16.4 65.2 -16.2 65.2 -16.0 65.0 -14.8 64.6 -13.8 64.4 -13.8 64.2 -13.2 64.0 -12.8 64.0 -10.2 62.6 -10.0 62.6 -9.6 62.4 -9.6 62.2 -9.0 62.0 -8.6 61.8 -8.2 61.4 -7.6 61.4 -7.4 61.2 -9.2 58.4 -19.6 62.6 -22.4 63.4 -23.0 63.4 -24.4 63.8 -25.8 64.0 -27.2 64.4 -28.6 64.4 -29.8 64.6 -30.6 64.4 -31.4 64.6 -32.8 64.4 -34.0 64.4 -35.4 64.8 -36.6 64.4 -40.6 64.4 -42.2 64.0 -42.6 63.8 -43.6 63.8 -43.8 63.6 -51.6 61.4 -52.0 61.2 -52.8 61.2 -53.0 61.0 -62.4 57.8 -62.6 58.4 -62.2 59.0 M-81.6 11.4 L-83.0 10.6 -86.2 7.0 Q-88.6 2.2 -88.0 -1.2 -88.4 -8.6 -80.2 -9.6 L-79.2 -9.2 -76.6 -7.6 -75.0 -5.2 -73.6 -1.4 -73.2 1.4 -73.2 3.0 -73.8 6.4 -75.8 9.8 Q-77.8 12.4 -79.2 11.8 L-78.4 12.2 -80.2 12.2 -81.6 11.4 M-43.0 52.4 L-44.6 52.4 -45.0 52.2 -47.0 52.2 -47.8 52.0 -48.2 52.0 -49.0 51.8 -49.4 51.8 -50.2 51.6 -50.6 51.6 -54.2 50.8 -54.6 50.6 -57.8 50.0 -58.4 49.8 -58.6 49.8 -59.0 49.6 -59.4 49.6 -59.8 49.4 -61.4 49.0 -61.6 49.0 -62.0 48.8 -64.2 48.2 -64.8 48.2 -65.0 48.0 -65.2 48.2 -64.4 52.4 -56.6 54.2 -45.0 56.2 -44.4 56.4 -43.6 56.4 -39.0 57.2 -31.6 57.0 -31.0 56.8 -30.0 56.8 -29.6 56.6 -29.2 56.6 -28.4 56.4 -28.0 56.4 -25.4 56.0 -24.6 55.8 -23.2 55.6 -22.4 55.4 -21.0 55.2 -18.6 54.6 -17.6 54.6 -16.8 54.2 -15.4 53.8 -14.2 53.6 -13.4 53.2 -12.6 53.0 -12.2 52.8 -12.6 52.2 -14.2 50.4 -14.8 49.2 -15.2 49.0 -16.0 48.4 -19.8 49.6 -20.8 49.8 -21.0 50.0 -21.8 50.2 -22.6 50.2 -25.0 51.0 -29.4 52.0 -31.2 52.2 -31.6 52.4 -32.8 52.6 -33.4 52.6 -35.8 53.0 -36.4 53.0 -37.4 52.8 -41.2 52.8 -41.8 52.6 -43.0 52.4" fill="#000000" fill-rule="evenodd" stroke="none"/>
    <path d="M-3.4 -51.2 L-4.2 -41.4 -10.0 -33.2 -16.2 -26.8 -25.6 -19.2 -30.6 -18.4 -43.2 -18.4 -48.6 -17.4 Q-50.2 -16.8 -58.4 -22.0 L-69.8 -31.0 -73.4 -39.4 -73.0 -46.8 -70.2 -62.2 -66.2 -67.4 -60.2 -73.6 -60.4 -74.0 -47.0 -80.6 -40.6 -82.8 -21.8 -80.6 -15.4 -75.8 -5.0 -65.0 -3.6 -56.2 -3.4 -51.2" fill="#939393" fill-opacity="0.36862746" fill-rule="evenodd" stroke="none"/>
  </g>
</svg>
