<?xml version="1.0" encoding="UTF-8" standalone="no"?>
<svg xmlns:ffdec="https://www.free-decompiler.com/flash" xmlns:xlink="http://www.w3.org/1999/xlink" ffdec:objectType="shape" height="244.25px" width="215.95px" xmlns="http://www.w3.org/2000/svg">
  <g transform="matrix(1.0, 0.0, 0.0, 1.0, 108.8, 121.45)">
    <path d="M-107.4 -26.4 L-106.6 -35.0 -101.0 -53.4 -89.6 -74.8 Q-64.2 -106.6 -36.6 -115.4 -11.2 -124.2 15.0 -120.2 L29.4 -117.2 38.4 -114.2 56.2 -105.6 72.6 -93.0 88.4 -75.0 99.4 -55.2 Q110.6 -28.8 105.6 8.4 L99.4 28.4 Q90.2 49.4 76.0 63.0 L56.6 78.4 Q38.8 89.6 18.4 92.8 L18.4 119.0 Q13.8 122.6 1.0 122.8 -19.8 122.6 -21.4 118.8 L-21.4 92.2 Q-37.8 90.0 -56.8 78.8 L-75.6 64.4 Q-104.8 32.0 -107.0 3.4 L-107.2 2.0 -107.0 2.0 -107.0 3.4 -106.8 4.6 -104.8 6.6 -94.6 11.0 -92.8 11.6 -81.8 14.6 -81.2 13.6 -80.8 12.6 -79.6 10.6 -79.2 9.6 -79.0 8.6 -78.2 7.4 -77.4 5.0 -76.6 -0.6 -76.2 -2.0 -77.0 -2.0 -78.0 -1.8 -79.8 -2.4 -80.2 -2.6 -85.8 -4.2 -88.6 -6.4 -90.2 -7.4 -90.6 -8.4 -94.8 -12.6 -98.8 -19.0 -104.6 -32.6 -104.6 -35.2 -105.4 -35.4 -105.4 -34.8 -105.8 -33.2 -106.0 -32.8 -106.0 -32.2 -106.6 -29.6 -106.6 -29.2 -107.4 -26.4 M-107.2 1.2 L-107.4 0.6 -107.2 0.6 -107.2 1.2 M-43.2 -6.4 L-43.6 -6.0 -44.0 -5.8 -52.8 -3.0 -53.6 -3.0 -53.8 -2.8 -54.6 -2.6 -55.0 -2.6 -56.2 -2.2 -56.6 -2.2 -57.2 -2.0 -59.0 -2.0 -58.8 -1.6 -58.8 -1.4 -56.2 6.0 -55.6 7.2 -55.4 7.4 -55.2 7.8 -55.0 8.0 -53.4 10.0 -47.8 15.2 -46.8 15.2 -46.2 15.0 -45.6 15.0 -45.0 14.8 -44.2 14.8 -44.0 14.6 -43.4 14.6 -42.4 14.4 -41.8 14.4 -41.2 14.2 -40.4 14.2 -40.0 14.0 -39.2 14.0 -38.6 13.8 -37.8 13.8 -37.4 13.6 -36.6 13.6 -36.0 13.4 -35.4 13.4 -34.8 13.2 -34.0 13.2 -33.6 13.0 -32.8 13.0 -32.2 12.8 -31.6 12.8 -31.0 12.6 -30.2 12.6 -29.6 12.4 -29.0 12.4 -28.4 12.2 -27.6 12.2 -27.2 12.0 -26.4 12.0 -25.8 11.8 -25.0 11.8 -24.6 11.6 -23.6 11.6 -23.2 11.4 -22.2 11.4 -21.6 11.2 -20.8 11.2 -20.2 11.0 -19.4 11.0 -18.8 10.8 -18.0 10.8 -17.4 10.6 -16.6 10.6 -16.0 10.4 -15.2 10.4 -14.6 10.2 -13.8 10.2 -13.2 10.0 -12.2 10.0 -11.8 9.8 -10.8 9.8 -10.4 9.6 -9.4 9.6 -9.0 9.4 -8.0 9.4 -7.4 9.2 -6.6 9.2 -6.0 9.0 -5.2 9.0 -4.6 8.8 -3.6 8.8 -3.2 8.6 -2.2 8.6 -2.2 8.4 -0.6 8.4 5.8 7.6 6.2 7.4 7.4 7.4 7.8 7.2 9.0 7.2 9.4 7.0 10.6 7.0 11.0 6.8 12.2 6.8 12.6 6.6 13.8 6.6 14.2 6.4 15.4 6.4 15.8 6.2 17.0 6.2 17.4 6.0 18.6 6.0 19.0 5.8 20.2 5.8 20.6 5.6 21.2 3.4 25.4 -8.0 25.8 -10.2 25.6 -14.0 25.2 -15.6 25.0 -17.4 24.6 -19.0 23.4 -22.4 23.4 -24.0 21.8 -29.2 20.4 -32.2 16.2 -36.8 13.2 -38.8 12.2 -39.6 11.6 -40.2 11.0 -40.6 -1.0 -34.2 -26.4 -17.8 -31.4 -14.0 -31.8 -13.8 -35.8 -10.8 -36.4 -10.6 -38.0 -10.2 -42.4 -8.0 -43.2 -6.4 M-51.2 66.8 L-49.2 67.4 -45.0 67.2 -44.4 67.0 -42.8 67.0 -42.0 66.8 -40.2 66.8 -34.8 65.8 -31.4 64.8 -28.2 63.2 -27.6 63.0 -27.4 62.6 -27.0 62.4 -26.6 62.0 -26.0 61.6 -25.6 61.2 -25.0 60.8 -22.6 57.4 -22.2 56.2 -21.4 54.4 -21.4 54.2 -21.2 53.8 -21.0 53.6 -18.4 48.0 -18.0 47.6 -17.8 47.0 -17.6 46.6 -16.8 44.6 -16.6 44.2 -16.4 43.6 -16.2 43.2 -16.2 42.8 -15.2 41.2 -15.0 40.0 -14.8 39.6 -14.0 37.4 -14.0 37.2 -11.6 32.2 -11.4 31.6 -9.2 28.2 -9.0 27.8 -8.6 27.2 -8.4 26.8 -23.8 36.0 -30.4 40.8 -37.6 45.0 -44.8 48.2 -51.0 49.6 -58.4 49.8 -63.6 49.0 -64.0 48.8 -64.6 48.8 -65.0 48.6 -65.2 48.6 -65.6 48.4 -67.4 48.0 -67.8 47.8 -68.0 47.8 -69.2 47.2 -70.2 47.0 -70.6 46.6 -72.6 45.8 -73.6 45.2 -74.0 45.2 -74.6 44.6 -75.0 44.4 -75.2 44.4 -75.4 44.0 -75.8 43.8 -76.0 43.6 -76.4 43.6 -76.6 43.2 -77.0 43.0 -77.6 42.6 -77.8 42.6 -77.8 42.4 -78.2 42.2 -78.6 41.8 -79.0 41.6 -79.6 41.2 -80.0 40.8 -80.4 40.6 -80.8 40.6 -80.8 40.2 -81.2 40.0 -81.6 39.6 -82.2 39.4 -82.6 38.8 -83.2 38.4 -84.0 38.0 -84.2 37.6 -84.6 37.2 -86.0 36.2 -86.4 35.8 -87.2 35.2 -88.2 34.2 -88.6 34.0 -89.4 33.2 -90.2 33.0 -90.4 32.4 -90.8 32.2 -91.0 31.8 -91.6 31.0 -92.2 30.6 -92.8 29.6 -95.6 26.2 -97.4 23.4 -97.8 23.6 -97.4 24.2 -95.0 29.2 -86.2 42.8 -86.2 43.0 -82.8 48.0 -82.8 48.2 -82.6 48.4 -82.6 48.6 -81.8 49.4 -81.2 50.2 -81.0 50.4 -81.0 50.6 -80.6 51.0 -74.6 56.2 -74.0 56.8 -73.4 57.2 -72.0 59.2 -70.8 59.6 -70.4 60.0 -70.2 60.0 -69.6 60.4 -69.2 60.6 -69.0 60.8 -68.6 61.0 -67.4 61.8 -66.8 62.0 -66.0 62.4 -65.8 62.4 -63.2 63.8 -62.6 64.0 -61.8 64.4 -60.2 64.8 -59.8 65.0 -56.4 66.0 -54.4 66.4 -53.8 66.6 -52.0 66.6 -51.2 66.8" fill="#070707" fill-rule="evenodd" stroke="none"/>
    <path d="M-107.2 2.0 L-107.2 1.2 -107.2 0.6 -107.4 0.6 -107.4 -0.8 -107.6 -1.0 -108.0 -6.4 -108.0 -6.8 -108.2 -7.2 -108.8 -12.8 -108.0 -21.6 -108.0 -21.8 -107.8 -23.2 -107.8 -23.6 -107.6 -23.6 -107.6 -25.0 -107.4 -26.0 -107.4 -26.4 -106.6 -29.2 -106.6 -29.6 -106.0 -32.2 -106.0 -32.8 -105.8 -33.2 -105.4 -34.8 -105.4 -35.4 -104.6 -35.2 -104.6 -32.6 -98.8 -19.0 -94.8 -12.6 -90.6 -8.4 -90.2 -7.4 -88.6 -6.4 -85.8 -4.2 -80.2 -2.6 -79.8 -2.4 -78.0 -1.8 -77.0 -2.0 -76.2 -2.0 -76.6 -0.6 -77.4 5.0 -78.2 7.4 -79.0 8.6 -79.2 9.6 -79.6 10.6 -80.8 12.6 -81.2 13.6 -81.8 14.6 -92.8 11.6 -91.6 11.2 -90.4 9.6 -89.4 7.4 -88.8 3.2 -88.8 2.0 -89.2 -1.0 -90.6 -5.6 -91.8 -7.4 -91.8 -7.8 -92.6 -8.2 -93.4 -8.8 -93.6 -9.2 -94.2 -9.4 Q-98.2 -11.0 -100.0 -1.2 -100.2 6.2 -95.6 10.2 L-94.6 11.0 -104.8 6.6 -106.8 4.6 -107.0 3.4 -107.0 2.0 -107.2 2.0 M-36.4 -10.6 L-35.8 -10.8 -31.8 -13.8 -31.4 -14.0 -26.4 -17.8 -1.0 -34.2 11.0 -40.6 11.6 -40.2 12.2 -39.6 13.2 -38.8 16.2 -36.8 20.4 -32.2 21.8 -29.2 23.4 -24.0 23.4 -22.4 24.6 -19.0 25.0 -17.4 25.2 -15.6 25.6 -14.0 25.8 -10.2 25.4 -8.0 21.2 3.4 20.6 5.6 20.2 5.8 19.0 5.8 18.6 6.0 17.4 6.0 17.0 6.2 15.8 6.2 15.4 6.4 14.2 6.4 13.8 6.6 12.6 6.6 12.2 6.8 11.0 6.8 10.6 7.0 9.4 7.0 9.0 7.2 7.8 7.2 7.4 7.4 6.2 7.4 5.8 7.6 -0.6 8.4 -2.2 8.4 -2.2 8.6 -3.2 8.6 -3.6 8.8 -4.6 8.8 -5.2 9.0 -6.0 9.0 -6.6 9.2 -7.4 9.2 -8.0 9.4 -9.0 9.4 -9.4 9.6 -10.4 9.6 -10.8 9.8 -11.8 9.8 -12.2 10.0 -13.2 10.0 -13.8 10.2 -14.6 10.2 -15.2 10.4 -16.0 10.4 -16.6 10.6 -17.4 10.6 -18.0 10.8 -18.8 10.8 -19.4 11.0 -20.2 11.0 -20.8 11.2 -21.6 11.2 -22.2 11.4 -23.2 11.4 -23.6 11.6 -24.6 11.6 -25.0 11.8 -25.8 11.8 -26.4 12.0 -27.2 12.0 -27.6 12.2 -28.4 12.2 -29.0 12.4 -29.6 12.4 -30.2 12.6 -31.0 12.6 -31.6 12.8 -32.2 12.8 -32.8 13.0 -33.6 13.0 -34.0 13.2 -34.8 13.2 -35.4 13.4 -36.0 13.4 -36.6 13.6 -37.4 13.6 -37.8 13.8 -38.6 13.8 -39.2 14.0 -40.0 14.0 -40.4 14.2 -41.2 14.2 -41.8 14.4 -42.4 14.4 -43.4 14.6 -44.0 14.6 -44.2 14.8 -45.0 14.8 -45.6 15.0 -46.2 15.0 -46.8 15.2 -47.8 15.2 -53.4 10.0 -55.0 8.0 -55.2 7.8 -55.4 7.4 -55.6 7.2 -56.2 6.0 -58.8 -1.4 -58.8 -1.6 -59.0 -2.0 -57.2 -2.0 -56.6 -2.2 -56.2 -2.2 -55.0 -2.6 -54.6 -2.6 -53.8 -2.8 -53.6 -3.0 -52.8 -3.0 -44.0 -5.8 -43.6 -6.0 -43.2 -6.4 -45.0 -2.4 -45.4 0.8 Q-45.8 8.6 -35.2 12.2 L-32.0 12.0 -29.6 10.6 -27.2 8.2 -24.4 3.0 Q-24.0 -1.4 -25.2 -3.0 -29.8 -11.4 -36.8 -9.8 L-37.2 -10.0 -36.4 -10.6 M-51.2 66.8 L-52.0 66.6 -53.8 66.6 -54.4 66.4 -56.4 66.0 -59.8 65.0 -60.2 64.8 -61.8 64.4 -62.6 64.0 -63.2 63.8 -65.8 62.4 -66.0 62.4 -66.8 62.0 -67.4 61.8 -68.6 61.0 -69.0 60.8 -69.2 60.6 -69.6 60.4 -70.2 60.0 -70.4 60.0 -70.8 59.6 -72.0 59.2 -73.4 57.2 -73.8 56.6 -73.0 56.4 -65.8 59.8 -65.4 59.8 -58.0 62.4 -57.8 62.6 -57.6 62.6 -56.6 62.8 -56.4 62.8 -56.0 63.0 -55.6 63.0 -55.2 63.2 -54.6 63.4 -50.8 63.4 -49.6 63.6 -48.4 63.6 -47.2 63.8 -46.6 63.6 -45.8 63.8 -45.4 63.6 -44.8 63.4 -43.6 63.6 -42.4 63.2 -40.0 62.8 -39.4 62.6 -39.0 62.4 -37.6 62.0 -31.8 59.8 -31.2 59.4 -28.4 58.0 -26.2 60.4 -26.0 60.8 -26.4 60.8 -26.2 61.0 -27.0 61.4 -27.2 61.4 -27.8 61.8 -28.0 61.8 -28.0 62.0 -28.4 62.2 -28.6 62.2 -28.6 62.4 -29.0 62.6 -29.2 62.6 -29.2 62.8 -30.4 63.4 -31.8 63.8 -31.8 64.0 -32.4 64.2 -33.4 64.4 -34.2 64.8 -34.6 64.8 -37.6 65.6 -38.2 65.6 -40.2 66.0 -41.0 66.0 -41.4 66.2 -48.6 66.6 -49.8 66.8 -51.2 66.8 M-77.0 47.0 L-72.4 48.8 -71.8 48.8 -71.4 49.0 -71.2 49.0 -70.6 49.2 -70.4 49.2 -70.0 49.4 -67.4 50.0 -67.0 50.2 -66.6 50.2 -65.8 50.6 -65.4 50.6 -64.8 50.8 -64.4 50.8 -63.0 51.2 -62.8 51.2 -61.6 51.4 -60.8 51.4 -60.2 51.6 -59.4 51.6 -58.4 51.8 -57.6 51.8 -57.0 52.0 -54.8 52.0 -54.4 52.2 -53.2 52.2 -51.4 51.8 -50.8 51.8 -44.4 50.4 -44.0 50.2 -41.6 49.6 -40.6 49.6 -40.0 49.2 -39.6 49.0 -38.8 48.8 -38.4 48.6 -38.4 48.4 -37.8 48.4 -36.2 47.8 -35.0 48.8 -32.2 52.4 -32.6 52.6 -36.0 53.6 -36.4 53.8 -37.0 54.0 -37.8 54.0 -37.8 54.2 -38.4 54.2 -39.0 54.4 -41.4 54.8 -41.8 55.0 -42.4 55.0 -43.4 55.2 -44.0 55.4 -45.4 55.6 -46.2 55.6 -46.8 55.8 -47.2 55.8 -47.6 56.0 -48.4 56.0 -49.4 56.2 -53.0 56.4 -55.4 56.2 -60.6 55.2 -70.2 53.0 -70.4 53.0 -76.4 51.2 -77.6 47.0 -77.0 47.0" fill="#e6e6e6" fill-rule="evenodd" stroke="none"/>
    <path d="M-92.8 11.6 L-94.6 11.0 -95.6 10.2 Q-100.2 6.2 -100.0 -1.2 -98.2 -11.0 -94.2 -9.4 L-93.6 -9.2 -93.4 -8.8 -92.6 -8.2 -91.8 -7.8 -91.8 -7.4 -90.6 -5.6 -89.2 -1.0 -88.8 2.0 -88.8 3.2 -89.4 7.4 -90.4 9.6 -91.6 11.2 -92.8 11.6 M-43.2 -6.4 L-42.4 -8.0 -38.0 -10.2 -36.4 -10.6 -37.2 -10.0 -36.8 -9.8 Q-29.8 -11.4 -25.2 -3.0 -24.0 -1.4 -24.4 3.0 L-27.2 8.2 -29.6 10.6 -32.0 12.0 -35.2 12.2 Q-45.8 8.6 -45.4 0.8 L-45.0 -2.4 -43.2 -6.4 M-73.4 57.2 L-74.0 56.8 -74.6 56.2 -80.6 51.0 -81.0 50.6 -81.0 50.4 -81.2 50.2 -81.8 49.4 -82.6 48.6 -82.6 48.4 -82.8 48.2 -82.8 48.0 -86.2 43.0 -86.2 42.8 -95.0 29.2 -97.4 24.2 -97.8 23.6 -97.4 23.4 -95.6 26.2 -92.8 29.6 -92.2 30.6 -91.6 31.0 -91.0 31.8 -90.8 32.2 -90.4 32.4 -90.2 33.0 -89.4 33.2 -88.6 34.0 -88.2 34.2 -87.2 35.2 -86.4 35.8 -86.0 36.2 -84.6 37.2 -84.2 37.6 -84.0 38.0 -83.2 38.4 -82.6 38.8 -82.2 39.4 -81.6 39.6 -81.2 40.0 -80.8 40.2 -80.8 40.6 -80.4 40.6 -80.0 40.8 -79.6 41.2 -79.0 41.6 -78.6 41.8 -78.2 42.2 -77.8 42.4 -77.8 42.6 -77.6 42.6 -77.0 43.0 -76.6 43.2 -76.4 43.6 -76.0 43.6 -75.8 43.8 -75.4 44.0 -75.2 44.4 -75.0 44.4 -74.6 44.6 -74.0 45.2 -73.6 45.2 -72.6 45.8 -70.6 46.6 -70.2 47.0 -69.2 47.2 -68.0 47.8 -67.8 47.8 -67.4 48.0 -65.6 48.4 -65.2 48.6 -65.0 48.6 -64.6 48.8 -64.0 48.8 -63.6 49.0 -58.4 49.8 -51.0 49.6 -44.8 48.2 -37.6 45.0 -30.4 40.8 -23.8 36.0 -8.4 26.8 -8.6 27.2 -9.0 27.8 -9.2 28.2 -11.4 31.6 -11.6 32.2 -14.0 37.2 -14.0 37.4 -14.8 39.6 -15.0 40.0 -15.2 41.2 -16.2 42.8 -16.2 43.2 -16.4 43.6 -16.6 44.2 -16.8 44.6 -17.6 46.6 -17.8 47.0 -18.0 47.6 -18.4 48.0 -21.0 53.6 -21.2 53.8 -21.4 54.2 -21.4 54.4 -22.2 56.2 -22.6 57.4 -25.0 60.8 -25.6 61.2 -26.0 61.6 -26.6 62.0 -27.0 62.4 -27.4 62.6 -27.6 63.0 -28.2 63.2 -31.4 64.8 -34.8 65.8 -40.2 66.8 -42.0 66.8 -42.8 67.0 -44.4 67.0 -45.0 67.2 -49.2 67.4 -51.2 66.8 -49.8 66.8 -48.6 66.6 -41.4 66.2 -41.0 66.0 -40.2 66.0 -38.2 65.6 -37.6 65.6 -34.6 64.8 -34.2 64.8 -33.4 64.4 -32.4 64.2 -31.8 64.0 -31.8 63.8 -30.4 63.4 -29.2 62.8 -29.2 62.6 -29.0 62.6 -28.6 62.4 -28.6 62.2 -28.4 62.2 -28.0 62.0 -28.0 61.8 -27.8 61.8 -27.2 61.4 -27.0 61.4 -26.2 61.0 -26.4 60.8 -26.0 60.8 -26.2 60.4 -28.4 58.0 -31.2 59.4 -31.8 59.8 -37.6 62.0 -39.0 62.4 -39.4 62.6 -40.0 62.8 -42.4 63.2 -43.6 63.6 -44.8 63.4 -45.4 63.6 -45.8 63.8 -46.6 63.6 -47.2 63.8 -48.4 63.6 -49.6 63.6 -50.8 63.4 -54.6 63.4 -55.2 63.2 -55.6 63.0 -56.0 63.0 -56.4 62.8 -56.6 62.8 -57.6 62.6 -57.8 62.6 -58.0 62.4 -65.4 59.8 -65.8 59.8 -73.0 56.4 -73.8 56.6 -73.4 57.2 M-77.0 47.0 L-77.6 47.0 -76.4 51.2 -70.4 53.0 -70.2 53.0 -60.6 55.2 -55.4 56.2 -53.0 56.4 -49.4 56.2 -48.4 56.0 -47.6 56.0 -47.2 55.8 -46.8 55.8 -46.2 55.6 -45.4 55.6 -44.0 55.4 -43.4 55.2 -42.4 55.0 -41.8 55.0 -41.4 54.8 -39.0 54.4 -38.4 54.2 -37.8 54.2 -37.8 54.0 -37.0 54.0 -36.4 53.8 -36.0 53.6 -32.6 52.6 -32.2 52.4 -35.0 48.8 -36.2 47.8 -37.8 48.4 -38.4 48.4 -38.4 48.6 -38.8 48.8 -39.6 49.0 -40.0 49.2 -40.6 49.6 -41.6 49.6 -44.0 50.2 -44.4 50.4 -50.8 51.8 -51.4 51.8 -53.2 52.2 -54.4 52.2 -54.8 52.0 -57.0 52.0 -57.6 51.8 -58.4 51.8 -59.4 51.6 -60.2 51.6 -60.8 51.4 -61.6 51.4 -62.8 51.2 -63.0 51.2 -64.4 50.8 -64.8 50.8 -65.4 50.6 -65.8 50.6 -66.6 50.2 -67.0 50.2 -67.4 50.0 -70.0 49.4 -70.4 49.2 -70.6 49.2 -71.2 49.0 -71.4 49.0 -71.8 48.8 -72.4 48.8 -77.0 47.0" fill="#000000" fill-rule="evenodd" stroke="none"/>
    <path d="M-3.2 -57.4 L-3.0 -49.2 -3.6 -41.4 -10.4 -32.0 -16.2 -26.2 -25.4 -18.8 -32.0 -17.8 -43.0 -18.0 -48.2 -17.0 Q-53.2 -16.8 -69.6 -30.6 L-73.4 -39.4 -72.8 -48.2 -70.2 -62.2 Q-52.2 -88.2 -21.4 -80.8 L-14.8 -75.6 -4.6 -65.0 -3.2 -57.4" fill="#939393" fill-opacity="0.36862746" fill-rule="evenodd" stroke="none"/>
  </g>
</svg>
