<?xml version="1.0" encoding="UTF-8" standalone="no"?>
<svg xmlns:ffdec="https://www.free-decompiler.com/flash" xmlns:xlink="http://www.w3.org/1999/xlink" ffdec:objectType="shape" height="244.4px" width="216.35px" xmlns="http://www.w3.org/2000/svg">
  <g transform="matrix(1.0, 0.0, 0.0, 1.0, 109.2, 121.6)">
    <path d="M-107.4 -31.4 L-100.4 -55.2 -90.4 -73.6 -84.0 -81.4 -73.6 -93.0 -59.2 -104.2 -36.2 -115.6 -11.0 -121.0 -1.6 -121.6 5.6 -121.4 14.8 -120.2 26.6 -117.8 36.6 -115.0 56.2 -105.6 72.6 -93.0 88.4 -75.0 99.4 -55.2 Q110.6 -28.8 105.6 8.4 L99.4 28.4 Q90.2 49.4 76.0 63.0 L56.6 78.4 Q38.8 89.6 18.6 92.6 L18.6 118.8 Q17.4 121.6 1.0 122.8 -16.8 122.6 -21.0 119.6 L-21.4 92.2 Q-37.8 90.0 -56.8 78.8 L-75.6 64.4 -90.0 47.6 Q-102.6 29.0 -106.6 7.6 L-104.0 9.8 -103.6 10.2 -103.4 10.2 -101.8 11.0 -101.6 11.2 -101.4 11.2 -101.0 11.4 -100.8 11.6 -100.6 11.6 -96.2 13.6 -94.2 14.2 -93.4 12.2 -93.2 11.2 -92.8 10.4 -92.6 9.4 -92.2 8.2 -91.2 2.2 -91.2 -0.6 -91.0 -1.8 -92.2 -2.0 -93.4 -2.4 -94.4 -2.6 -96.6 -3.6 -98.4 -4.6 -100.4 -7.2 -100.8 -8.0 -101.6 -9.2 -103.0 -10.6 -103.4 -12.2 -104.4 -14.0 -106.0 -18.4 -107.0 -31.4 -107.4 -31.4 M-65.0 -6.0 L-65.6 -5.6 -67.2 -4.8 -73.4 -2.8 -73.8 -2.8 -74.2 -2.6 -74.6 -2.6 -74.8 -2.4 -75.2 -2.4 -75.6 -2.2 -76.0 -2.2 -76.4 -2.0 -77.4 -2.0 -77.6 -1.6 -77.6 -1.4 -76.0 3.8 -75.6 5.4 -74.6 7.6 -73.0 9.8 -68.0 14.8 -66.6 14.8 -66.0 14.6 -65.4 14.6 -64.8 14.4 -64.4 14.4 -63.8 14.2 -63.2 14.2 -62.6 14.0 -62.0 14.0 -61.4 13.8 -60.8 13.8 -60.2 13.6 -58.0 13.2 -57.4 13.2 -56.8 13.0 -56.2 13.0 -55.6 12.8 -53.4 12.4 -52.8 12.4 -52.2 12.2 -51.6 12.2 -51.0 12.0 -48.8 11.6 -48.0 11.6 -47.4 11.4 -46.8 11.4 -46.0 11.2 -45.4 11.2 -44.8 11.0 -44.0 11.0 -43.4 10.8 -42.6 10.8 -42.0 10.6 -41.2 10.6 -40.6 10.4 -40.0 10.4 -39.2 10.2 -38.6 10.2 -38.0 10.0 -37.2 10.0 -36.6 9.8 -35.8 9.8 -35.2 9.6 -34.6 9.6 -33.8 9.4 -33.2 9.4 -32.4 9.2 -31.8 9.2 -31.0 9.0 -30.4 9.0 -29.6 8.8 -29.0 8.8 -28.2 8.6 -27.6 8.6 -26.8 8.4 -26.2 8.4 -26.0 8.2 -24.2 8.2 -24.2 8.0 -22.6 8.0 -22.6 7.8 -21.2 7.8 -20.6 7.6 -19.6 7.6 -19.0 7.4 -18.0 7.4 -17.4 7.2 -16.4 7.2 -16.0 7.0 -14.8 7.0 -14.4 6.8 -12.8 6.8 -12.8 6.6 -11.4 6.6 -10.8 6.4 -9.8 6.4 -9.2 6.2 -8.2 6.2 -7.6 6.0 -6.6 6.0 -6.0 5.8 -5.0 5.8 -4.4 5.6 -0.4 -5.2 -0.6 -6.0 0.8 -10.2 0.8 -12.2 0.0 -14.0 0.0 -15.8 -0.8 -17.4 -0.8 -19.2 -3.4 -29.2 -4.8 -32.4 -6.8 -35.0 -9.0 -37.0 -14.2 -40.6 -26.2 -34.0 -50.4 -17.6 -58.0 -11.0 -59.2 -10.2 -59.4 -9.8 -60.2 -10.0 -61.0 -9.6 -64.6 -7.2 -65.0 -6.0 M-63.0 65.4 L-61.2 66.0 -58.0 66.0 -57.4 65.8 -55.6 65.8 -55.0 65.6 -50.0 64.8 -47.0 63.8 -46.6 63.6 -46.2 63.2 -45.8 63.0 -45.2 62.6 -44.6 62.4 -43.0 60.8 -42.4 60.0 -41.0 56.8 -41.0 56.0 -40.8 55.0 -41.0 54.6 -40.8 53.8 -40.0 52.6 -38.2 48.0 -37.8 45.2 -37.8 45.0 -37.6 44.4 -37.6 44.2 -36.8 41.2 -36.8 40.8 -36.0 37.8 -36.0 37.6 -34.2 31.6 -34.2 31.4 -31.2 26.4 -31.6 26.2 -42.2 33.2 -53.2 42.4 -62.4 47.6 -64.6 48.2 -68.8 48.8 -73.2 48.6 -73.6 48.4 -75.6 48.0 -76.0 47.8 -79.0 46.8 -79.2 46.8 -81.0 45.8 -81.4 45.8 -82.4 45.2 -82.8 44.8 -83.4 44.6 -83.4 44.4 -83.8 44.2 -84.0 44.0 -84.4 44.0 -84.6 43.6 -85.0 43.4 -85.6 42.8 -86.4 42.2 -89.4 39.4 -89.6 39.4 -94.8 33.8 -95.4 33.0 -97.2 31.4 -97.4 31.0 -97.4 30.8 -98.6 28.8 -98.8 28.4 -99.0 28.2 -100.0 25.2 -101.4 22.6 -100.8 24.8 -100.6 25.2 -100.4 25.4 -100.4 25.6 -99.2 29.0 -99.0 29.4 -96.0 34.4 -96.0 34.6 -95.6 35.0 -95.6 35.2 -95.4 35.6 -93.6 38.4 -93.6 38.6 -92.6 40.6 -92.2 41.0 -92.2 41.4 -90.8 43.4 -90.8 43.6 -90.6 44.0 -90.2 44.4 -90.2 44.6 -89.2 46.0 -89.2 46.2 -88.8 46.8 -88.6 47.0 -88.6 47.2 -88.2 47.6 -87.6 48.8 -87.4 49.0 -85.6 51.0 -81.4 54.8 -80.4 55.8 -80.4 56.0 -80.0 56.6 -78.8 57.8 -78.6 57.8 -78.0 58.4 -76.6 59.4 -76.2 59.6 -75.2 60.4 -74.8 60.8 -74.6 60.8 -72.8 62.0 -72.0 62.4 -71.4 62.8 -71.2 63.0 -70.2 63.2 -68.0 64.2 -65.4 65.0 -63.0 65.4" fill="#070707" fill-rule="evenodd" stroke="none"/>
    <path d="M-107.4 -31.4 L-107.0 -31.4 -106.0 -18.4 -104.4 -14.0 -103.4 -12.2 -103.0 -10.6 -101.6 -9.2 -100.8 -8.0 -100.4 -7.2 -98.4 -4.6 -96.6 -3.6 -94.4 -2.6 -93.4 -2.4 -92.2 -2.0 -91.0 -1.8 -91.2 -0.6 -91.2 2.2 -92.2 8.2 -92.6 9.4 -92.8 10.4 -93.2 11.2 -93.4 12.2 -94.2 14.2 -96.2 13.6 -100.6 11.6 -100.8 11.6 -101.0 11.4 -101.4 11.2 -101.6 11.2 -101.8 11.0 -100.8 10.8 -100.2 9.2 -99.6 3.4 -99.6 2.6 -99.8 2.4 -99.8 1.0 -100.0 -1.0 -100.2 -2.0 -102.0 -7.8 -102.4 -8.0 -102.6 -8.6 -103.2 -8.8 -103.6 -9.2 Q-104.6 -10.0 -106.2 -7.0 L-108.0 -1.6 -109.2 -11.8 -107.4 -31.4 M-103.4 10.2 L-103.6 10.2 -104.0 9.8 -106.6 7.6 -107.4 6.2 -107.6 3.2 -104.6 8.8 -104.6 9.0 -104.0 9.8 -103.4 10.2 M-59.4 -9.8 L-59.2 -10.2 -58.0 -11.0 -50.4 -17.6 -26.2 -34.0 -14.2 -40.6 -9.0 -37.0 -6.8 -35.0 -4.8 -32.4 -3.4 -29.2 -0.8 -19.2 -0.8 -17.4 0.0 -15.8 0.0 -14.0 0.8 -12.2 0.8 -10.2 -0.6 -6.0 -0.4 -5.2 -4.4 5.6 -5.0 5.8 -6.0 5.8 -6.6 6.0 -7.6 6.0 -8.2 6.2 -9.2 6.2 -9.8 6.4 -10.8 6.4 -11.4 6.6 -12.8 6.6 -12.8 6.8 -14.4 6.8 -14.8 7.0 -16.0 7.0 -16.4 7.2 -17.4 7.2 -18.0 7.4 -19.0 7.4 -19.6 7.6 -20.6 7.6 -21.2 7.8 -22.6 7.8 -22.6 8.0 -24.2 8.0 -24.2 8.2 -26.0 8.2 -26.2 8.4 -26.8 8.4 -27.6 8.6 -28.2 8.6 -29.0 8.8 -29.6 8.8 -30.4 9.0 -31.0 9.0 -31.8 9.2 -32.4 9.2 -33.2 9.4 -33.8 9.4 -34.6 9.6 -35.2 9.6 -35.8 9.8 -36.6 9.8 -37.2 10.0 -38.0 10.0 -38.6 10.2 -39.2 10.2 -40.0 10.4 -40.6 10.4 -41.2 10.6 -42.0 10.6 -42.6 10.8 -43.4 10.8 -44.0 11.0 -44.8 11.0 -45.4 11.2 -46.0 11.2 -46.8 11.4 -47.4 11.4 -48.0 11.6 -48.8 11.6 -51.0 12.0 -51.6 12.2 -52.2 12.2 -52.8 12.4 -53.4 12.4 -55.6 12.8 -56.2 13.0 -56.8 13.0 -57.4 13.2 -58.0 13.2 -60.2 13.6 -60.8 13.8 -61.4 13.8 -62.0 14.0 -62.6 14.0 -63.2 14.2 -63.8 14.2 -64.4 14.4 -64.8 14.4 -65.4 14.6 -66.0 14.6 -66.6 14.8 -68.0 14.8 -73.0 9.8 -74.6 7.6 -75.6 5.4 -76.0 3.8 -77.6 -1.4 -77.6 -1.6 -77.4 -2.0 -76.4 -2.0 -76.0 -2.2 -75.6 -2.2 -75.2 -2.4 -74.8 -2.4 -74.6 -2.6 -74.2 -2.6 -73.8 -2.8 -73.4 -2.8 -67.2 -4.8 -65.6 -5.6 -65.0 -6.0 -64.8 -6.0 -66.0 -3.6 -66.2 -3.0 -66.2 -2.6 -66.6 1.0 Q-67.2 7.0 -57.6 12.0 L-55.0 11.8 -52.4 10.4 -50.6 8.2 Q-46.2 2.4 -49.2 -3.4 -54.6 -11.6 -59.4 -9.8 M-63.0 65.4 L-65.4 65.0 -68.0 64.2 -70.2 63.2 -71.2 63.0 -71.4 62.8 -72.0 62.4 -72.8 62.0 -74.6 60.8 -74.8 60.8 -75.2 60.4 -76.2 59.6 -76.6 59.4 -78.0 58.4 -78.6 57.8 -78.8 57.8 -80.0 56.6 -80.4 56.0 -80.4 55.8 -81.4 54.8 -75.2 58.4 -67.2 61.8 -66.8 61.8 -66.2 62.0 -65.2 62.2 -63.0 62.2 -62.0 62.4 -58.6 62.4 -57.8 62.2 -56.8 62.2 -54.6 61.6 -54.2 61.4 -53.6 61.2 -49.4 59.4 -47.0 57.8 -46.2 57.4 -43.4 60.0 -43.4 60.2 -43.8 60.2 -44.2 60.4 -44.2 60.8 -44.6 60.8 -44.6 61.0 -45.0 61.4 -45.8 61.8 -45.8 62.0 -46.2 62.2 -46.4 62.4 -47.8 63.0 -48.0 63.2 -48.4 63.4 -48.8 63.4 -49.0 63.6 -49.4 63.6 -50.2 63.8 -50.2 64.0 -50.8 64.0 -50.8 64.2 -51.2 64.2 -51.8 64.4 -52.2 64.6 -53.0 64.6 -53.6 64.8 -54.2 64.8 -55.4 65.0 -56.4 65.0 -59.4 65.4 -63.0 65.4 M-86.4 45.6 L-85.6 45.6 -85.2 46.0 -84.6 46.4 -83.0 47.2 -82.8 47.4 -81.4 47.8 -80.6 48.2 -78.6 49.0 -77.0 49.4 -76.8 49.4 -76.4 49.6 -76.0 50.0 -74.4 50.0 -74.0 50.2 -73.8 50.2 -73.4 50.4 -72.6 50.6 -71.4 50.6 -70.2 50.8 -69.0 50.8 -68.4 51.0 -67.2 50.8 -66.4 51.0 -65.4 50.6 -62.8 50.0 -61.2 49.4 -60.8 49.2 -59.6 48.8 -59.0 48.8 -57.8 48.4 -57.4 48.2 -56.2 47.8 -56.2 47.6 -55.2 47.4 -55.2 47.2 -54.2 47.0 -53.2 48.2 -52.8 49.0 -52.4 49.2 -51.8 50.2 -51.6 50.4 -50.8 51.4 -51.4 52.0 -51.4 52.2 -51.8 52.2 -53.2 52.6 -53.2 52.8 -53.6 52.8 -53.8 53.0 -54.4 53.0 -54.4 53.2 -55.6 53.2 -55.6 53.4 -57.0 53.6 -59.2 54.2 -59.6 54.2 -60.0 54.4 -62.4 54.8 -62.8 54.8 -63.0 55.0 -64.2 55.0 -64.6 55.2 -67.0 55.2 -68.8 55.0 -72.4 54.0 -72.8 53.8 -80.6 51.6 -84.6 49.6 -86.0 46.6 -86.2 46.0 -86.4 46.0 -86.4 45.6" fill="#e6e6e6" fill-rule="evenodd" stroke="none"/>
    <path d="M-101.8 11.0 L-103.4 10.2 -104.0 9.8 -104.6 9.0 -104.6 8.8 -107.6 3.2 -108.0 -1.6 -106.2 -7.0 Q-104.6 -10.0 -103.6 -9.2 L-103.2 -8.8 -102.6 -8.6 -102.4 -8.0 -102.0 -7.8 -100.2 -2.0 -100.0 -1.0 -99.8 1.0 -99.8 2.4 -99.6 2.6 -99.6 3.4 -100.2 9.2 -100.8 10.8 -101.8 11.0 M-65.0 -6.0 L-64.6 -7.2 -61.0 -9.6 -60.2 -10.0 -59.4 -9.8 Q-54.6 -11.6 -49.2 -3.4 -46.2 2.4 -50.6 8.2 L-52.4 10.4 -55.0 11.8 -57.6 12.0 Q-67.2 7.0 -66.6 1.0 L-66.2 -2.6 -66.2 -3.0 -66.0 -3.6 -64.8 -6.0 -65.0 -6.0 M-81.4 54.8 L-85.6 51.0 -87.4 49.0 -87.6 48.8 -88.2 47.6 -88.6 47.2 -88.6 47.0 -88.8 46.8 -89.2 46.2 -89.2 46.0 -90.2 44.6 -90.2 44.4 -90.6 44.0 -90.8 43.6 -90.8 43.4 -92.2 41.4 -92.2 41.0 -92.6 40.6 -93.6 38.6 -93.6 38.4 -95.4 35.6 -95.6 35.2 -95.6 35.0 -96.0 34.6 -96.0 34.4 -99.0 29.4 -99.2 29.0 -100.4 25.6 -100.4 25.4 -100.6 25.2 -100.8 24.8 -101.4 22.6 -100.0 25.2 -99.0 28.2 -98.8 28.4 -98.6 28.8 -97.4 30.8 -97.4 31.0 -97.2 31.4 -95.4 33.0 -94.8 33.8 -89.6 39.4 -89.4 39.4 -86.4 42.2 -85.6 42.8 -85.0 43.4 -84.6 43.6 -84.4 44.0 -84.0 44.0 -83.8 44.2 -83.4 44.4 -83.4 44.6 -82.8 44.8 -82.4 45.2 -81.4 45.8 -81.0 45.8 -79.2 46.8 -79.0 46.8 -76.0 47.8 -75.6 48.0 -73.6 48.4 -73.2 48.6 -68.8 48.8 -64.6 48.2 -62.4 47.6 -53.2 42.4 -42.2 33.2 -31.6 26.2 -31.2 26.4 -34.2 31.4 -34.2 31.6 -36.0 37.6 -36.0 37.8 -36.8 40.8 -36.8 41.2 -37.6 44.2 -37.6 44.4 -37.8 45.0 -37.8 45.2 -38.2 48.0 -40.0 52.6 -40.8 53.8 -41.0 54.6 -40.8 55.0 -41.0 56.0 -41.0 56.8 -42.4 60.0 -43.0 60.8 -44.6 62.4 -45.2 62.6 -45.8 63.0 -46.2 63.2 -46.6 63.6 -47.0 63.8 -50.0 64.8 -55.0 65.6 -55.6 65.8 -57.4 65.8 -58.0 66.0 -61.2 66.0 -63.0 65.4 -59.4 65.4 -56.4 65.0 -55.4 65.0 -54.2 64.8 -53.6 64.8 -53.0 64.6 -52.2 64.6 -51.8 64.4 -51.2 64.2 -50.8 64.2 -50.8 64.0 -50.2 64.0 -50.2 63.8 -49.4 63.6 -49.0 63.6 -48.8 63.4 -48.4 63.4 -48.0 63.2 -47.8 63.0 -46.4 62.4 -46.2 62.2 -45.8 62.0 -45.8 61.8 -45.0 61.4 -44.6 61.0 -44.6 60.8 -44.2 60.8 -44.2 60.4 -43.8 60.2 -43.4 60.2 -43.4 60.0 -46.2 57.4 -47.0 57.8 -49.4 59.4 -53.6 61.2 -54.2 61.4 -54.6 61.6 -56.8 62.2 -57.8 62.2 -58.6 62.4 -62.0 62.4 -63.0 62.2 -65.2 62.2 -66.2 62.0 -66.8 61.8 -67.2 61.8 -75.2 58.4 -81.4 54.8 M-86.4 45.6 L-86.4 46.0 -86.2 46.0 -86.0 46.6 -84.6 49.6 -80.6 51.6 -72.8 53.8 -72.4 54.0 -68.8 55.0 -67.0 55.2 -64.6 55.2 -64.2 55.0 -63.0 55.0 -62.8 54.8 -62.4 54.8 -60.0 54.4 -59.6 54.2 -59.2 54.2 -57.0 53.6 -55.6 53.4 -55.6 53.2 -54.4 53.2 -54.4 53.0 -53.8 53.0 -53.6 52.8 -53.2 52.8 -53.2 52.6 -51.8 52.2 -51.4 52.2 -51.4 52.0 -50.8 51.4 -51.6 50.4 -51.8 50.2 -52.4 49.2 -52.8 49.0 -53.2 48.2 -54.2 47.0 -55.2 47.2 -55.2 47.4 -56.2 47.6 -56.2 47.8 -57.4 48.2 -57.8 48.4 -59.0 48.8 -59.6 48.8 -60.8 49.2 -61.2 49.4 -62.8 50.0 -65.4 50.6 -66.4 51.0 -67.2 50.8 -68.4 51.0 -69.0 50.8 -70.2 50.8 -71.4 50.6 -72.6 50.6 -73.4 50.4 -73.8 50.2 -74.0 50.2 -74.4 50.0 -76.0 50.0 -76.4 49.6 -76.8 49.4 -77.0 49.4 -78.6 49.0 -80.6 48.2 -81.4 47.8 -82.8 47.4 -83.0 47.2 -84.6 46.4 -85.2 46.0 -85.6 45.6 -86.4 45.6" fill="#000000" fill-rule="evenodd" stroke="none"/>
    <path d="M-2.8 -54.6 L-3.4 -41.4 -7.4 -35.8 Q-13.6 -41.8 -15.4 -40.2 L-26.2 -34.2 -50.6 -17.4 -57.2 -20.8 -69.8 -30.6 -73.4 -39.4 -72.8 -48.2 -70.2 -61.8 -60.2 -74.0 -50.4 -79.2 -40.8 -82.8 -21.6 -80.8 -14.0 -75.0 -4.2 -64.6 -2.8 -54.6" fill="#939393" fill-opacity="0.36862746" fill-rule="evenodd" stroke="none"/>
  </g>
</svg>
