<?xml version="1.0" encoding="UTF-8" standalone="no"?>
<svg xmlns:ffdec="https://www.free-decompiler.com/flash" xmlns:xlink="http://www.w3.org/1999/xlink" ffdec:objectType="shape" height="244.3px" width="219.05px" xmlns="http://www.w3.org/2000/svg">
  <g transform="matrix(1.0, 0.0, 0.0, 1.0, 111.4, 121.6)">
    <path d="M-108.85 -17.7 L-108.35 -19.5 -108.35 -20.0 -108.0 -20.7 -106.7 -35.0 -99.85 -56.35 -90.35 -73.7 -74.0 -92.7 -57.5 -105.5 -37.2 -115.2 Q-10.2 -124.2 13.3 -120.5 L35.0 -115.7 55.8 -105.85 73.0 -92.7 88.65 -74.7 99.15 -55.7 105.65 -35.0 107.65 -15.0 105.65 8.0 99.3 28.5 89.15 47.15 75.65 63.3 57.15 78.0 Q37.15 90.3 18.3 92.65 L18.0 119.15 Q13.3 123.0 -4.7 122.65 -20.0 121.8 -21.35 118.8 L-21.5 92.15 -37.5 88.15 -57.0 78.65 -75.2 64.65 -81.2 57.8 -80.85 58.0 -79.35 59.5 -77.35 61.15 -77.0 61.5 -76.85 61.5 -76.7 61.65 -76.5 61.8 -76.0 61.8 -75.7 62.15 -75.2 62.5 -73.5 63.3 -71.5 63.8 -70.5 64.3 -68.0 64.5 -67.0 64.3 -65.7 64.3 -65.7 64.15 -62.5 63.5 -62.2 63.3 -61.85 63.15 -61.35 63.0 -60.35 62.5 -59.5 61.8 -59.0 61.5 -58.85 61.3 -58.85 61.15 -58.2 60.3 -58.0 60.15 -57.85 59.8 -57.2 56.0 -57.7 54.0 -57.5 53.15 -57.5 52.65 -57.7 52.65 -57.5 52.15 -57.35 52.0 -57.2 51.65 -57.2 51.5 -57.35 51.3 -56.35 46.8 -56.7 46.65 -55.85 40.15 -56.0 40.0 -55.5 36.3 -55.7 36.15 -55.35 32.8 -55.2 32.5 -55.35 32.3 -54.85 31.15 -54.85 30.8 -53.0 25.8 -61.5 32.5 -61.85 32.65 -64.0 34.8 -65.5 37.0 -68.5 40.5 -71.35 43.15 -74.2 45.15 -74.7 45.65 -75.7 46.3 -77.35 47.0 -78.5 47.3 -80.0 47.5 -82.7 47.3 -84.35 47.0 -84.7 46.65 -85.2 46.5 -87.5 45.15 -89.2 44.0 -89.35 44.0 -89.7 43.5 -91.2 42.5 -92.5 40.3 -92.85 40.0 -95.35 36.3 -95.5 36.15 -96.0 35.3 -97.0 34.15 -97.35 33.65 -97.35 33.5 -97.85 32.8 -98.5 31.65 -98.7 31.5 -100.35 28.5 -105.7 10.8 -105.0 11.3 -103.35 13.0 -102.5 13.5 -101.35 13.5 -101.7 12.65 -101.35 10.8 -101.35 7.0 -101.0 5.8 -101.0 4.5 -100.85 3.3 -100.85 0.65 -101.2 -1.85 -101.7 -2.0 -102.0 -2.2 -102.35 -2.35 -102.85 -2.7 -103.2 -2.85 -104.2 -3.5 -105.5 -4.5 -105.85 -6.0 -106.2 -6.85 -108.0 -13.5 -108.35 -17.7 -108.85 -17.7 M-82.7 -5.85 L-89.35 -2.85 -89.7 -2.5 -90.0 -2.5 -90.2 -2.35 -90.5 -2.35 -90.85 -2.2 -91.0 -2.0 -92.0 -2.0 -92.2 -1.7 -92.2 -1.35 -91.85 0.0 -91.7 0.3 -91.2 2.65 -90.7 4.0 -90.35 5.65 -89.85 7.0 -88.5 9.3 -84.35 14.5 -83.85 14.5 -83.2 14.3 -79.2 13.5 -79.0 13.5 -68.85 11.3 -68.5 11.3 -67.85 11.15 -67.5 11.15 -56.7 9.3 -56.35 9.3 -55.7 9.15 -51.5 8.5 -51.2 8.5 -50.35 8.3 -50.0 8.3 -49.5 8.15 -49.0 8.15 -48.35 8.0 -47.5 8.0 -46.85 7.8 -46.2 7.8 -45.5 7.65 -44.85 7.65 -44.5 7.5 -43.5 7.5 -43.2 7.3 -42.35 7.3 -41.7 7.15 -41.0 7.15 -40.35 7.0 -39.7 7.0 -39.0 6.8 -38.35 6.8 -37.7 6.65 -37.2 6.65 -36.5 6.5 -35.85 6.5 -35.2 6.3 -34.5 6.3 -33.85 6.15 -33.2 6.15 -32.5 6.0 -32.0 6.0 -31.2 5.8 -30.7 5.8 -29.85 5.65 -29.0 5.65 -26.0 -3.7 -25.7 -5.35 -25.5 -5.85 -24.85 -8.2 -24.7 -12.2 -25.0 -14.0 -26.0 -17.5 -26.2 -19.0 -29.0 -30.7 -29.7 -32.2 -31.35 -34.7 -33.35 -36.7 -35.85 -38.5 -37.85 -40.35 -38.5 -40.35 -49.85 -33.5 -71.35 -17.0 -78.0 -10.0 -78.35 -9.85 -79.0 -9.7 -80.0 -9.2 -81.85 -7.7 -82.7 -5.85" fill="#070707" fill-rule="evenodd" stroke="none"/>
    <path d="M-81.2 57.8 L-81.2 57.65 -81.85 57.0 -82.35 56.3 -82.7 56.0 -82.85 55.8 -83.0 55.65 -83.2 55.5 -85.0 53.15 -83.5 53.8 -83.35 54.8 -81.35 56.65 -81.2 56.65 -75.2 60.3 -73.85 60.65 -73.35 60.65 -72.85 60.8 -68.35 60.8 -67.35 60.5 -66.2 59.8 -65.85 59.5 -65.0 59.15 -63.35 58.15 -61.5 56.3 -61.0 56.15 -60.5 56.8 -60.35 57.15 -58.5 58.8 -58.2 58.8 -58.35 59.15 -58.7 59.5 -59.0 59.5 -58.7 59.65 -59.0 60.0 -59.2 60.3 -59.5 60.65 -60.2 61.0 -60.0 61.15 -60.7 61.65 -61.2 61.8 -61.5 62.0 -62.2 62.15 -62.2 62.3 -62.35 62.5 -63.0 62.65 -63.35 62.8 -63.7 62.8 -63.7 63.0 -65.0 63.3 -65.2 63.5 -66.35 63.5 -67.35 63.65 -68.2 63.65 -69.35 63.8 -71.5 63.8 -73.5 63.3 -75.2 62.5 -75.7 62.15 -76.0 61.8 -76.5 61.8 -76.7 61.65 -76.85 61.5 -77.0 61.5 -77.35 61.15 -79.35 59.5 -80.85 58.0 -81.2 57.8 M-105.7 10.8 L-105.7 10.65 -105.35 6.8 -105.35 6.3 -105.5 5.8 -105.5 4.8 -105.7 4.65 -105.7 4.15 -105.85 3.8 -105.7 3.5 -105.7 3.0 -105.85 2.65 -105.85 2.0 -106.0 1.8 -106.0 0.0 -106.2 -0.5 -106.2 -0.85 -106.35 -1.0 -106.2 -1.2 -106.2 -1.7 -106.35 -1.85 -106.35 -2.85 -106.5 -3.0 -106.5 -3.7 -106.7 -4.0 -106.7 -5.0 -107.0 -5.7 -107.0 -6.35 -107.2 -6.5 -107.2 -7.0 -107.35 -7.7 -107.5 -7.7 -107.7 -8.2 -107.85 -8.2 -108.0 -8.85 -108.85 -8.2 -109.35 -13.5 -109.0 -15.35 -108.85 -17.7 -108.35 -17.7 -108.0 -13.5 -106.2 -6.85 -105.85 -6.0 -105.5 -4.5 -104.2 -3.5 -103.2 -2.85 -102.85 -2.7 -102.35 -2.35 -102.0 -2.2 -101.7 -2.0 -101.2 -1.85 -100.85 0.65 -100.85 3.3 -101.0 4.5 -101.0 5.8 -101.35 7.0 -101.35 10.8 -101.7 12.65 -101.35 13.5 -102.5 13.5 -103.35 13.0 -105.0 11.3 -105.7 10.8 M-78.35 -9.85 L-78.0 -10.0 -71.35 -17.0 -49.85 -33.5 -38.5 -40.35 -37.85 -40.35 -35.85 -38.5 -33.35 -36.7 -31.35 -34.7 -29.7 -32.2 -29.0 -30.7 -26.2 -19.0 -26.0 -17.5 -25.0 -14.0 -24.7 -12.2 -24.85 -8.2 -25.5 -5.85 -25.7 -5.35 -26.0 -3.7 -29.0 5.65 -29.85 5.65 -30.7 5.8 -31.2 5.8 -32.0 6.0 -32.5 6.0 -33.2 6.15 -33.85 6.15 -34.5 6.3 -35.2 6.3 -35.85 6.5 -36.5 6.5 -37.2 6.65 -37.7 6.65 -38.35 6.8 -39.0 6.8 -39.7 7.0 -40.35 7.0 -41.0 7.15 -41.7 7.15 -42.35 7.3 -43.2 7.3 -43.5 7.5 -44.5 7.5 -44.85 7.65 -45.5 7.65 -46.2 7.8 -46.85 7.8 -47.5 8.0 -48.35 8.0 -49.0 8.15 -49.5 8.15 -50.0 8.3 -50.35 8.3 -51.2 8.5 -51.5 8.5 -55.7 9.15 -56.35 9.3 -56.7 9.3 -67.5 11.15 -67.85 11.15 -68.5 11.3 -68.85 11.3 -79.0 13.5 -79.2 13.5 -83.2 14.3 -83.85 14.5 -84.35 14.5 -88.5 9.3 -89.85 7.0 -90.35 5.65 -90.7 4.0 -91.2 2.65 -91.7 0.3 -91.85 0.0 -92.2 -1.35 -92.2 -1.7 -92.0 -2.0 -91.0 -2.0 -90.85 -2.2 -90.5 -2.35 -90.2 -2.35 -90.0 -2.5 -89.7 -2.5 -89.35 -2.85 -82.7 -5.85 -82.5 -5.5 -83.2 -5.2 -84.0 -0.2 -84.0 1.5 Q-83.0 9.0 -76.0 11.65 L-73.85 11.5 -72.0 10.0 -70.7 8.0 -68.85 2.65 Q-68.7 -1.2 -69.85 -3.2 -74.7 -11.5 -78.35 -9.5 L-78.35 -9.85 M-91.0 44.0 L-90.7 44.65 -90.35 45.0 -89.7 45.3 -89.35 46.0 -88.85 46.0 -88.85 46.15 -88.5 46.3 -85.85 47.8 -85.35 48.0 -84.85 48.3 -84.7 48.3 -84.5 48.5 -83.85 48.65 -83.5 48.65 -83.5 48.8 -83.2 48.8 -83.2 49.0 -82.35 49.15 -82.0 49.3 -81.35 49.3 -81.35 49.5 -80.2 49.5 -79.7 49.65 -78.7 49.5 -78.35 49.5 -76.35 49.0 -75.7 48.65 -74.7 48.3 -74.5 48.0 -72.35 47.3 -72.0 47.3 -71.35 46.8 -71.0 46.65 -71.0 46.5 -70.5 46.5 -70.2 46.15 -70.0 46.15 -69.5 46.3 -68.0 48.0 -67.7 48.5 -65.85 50.5 -66.5 51.0 -66.85 51.15 -67.35 51.3 -67.7 51.5 -68.35 51.65 -68.7 52.0 -69.35 52.0 -71.0 52.5 -71.35 52.65 -71.5 52.65 -71.85 52.8 -72.0 52.8 -72.35 53.0 -72.5 53.0 -72.85 53.15 -73.2 53.15 -73.5 53.3 -73.85 53.3 -74.2 53.5 -74.5 53.5 -75.35 53.65 -75.5 53.65 -75.85 53.8 -77.5 53.8 -78.7 53.65 -81.0 52.65 -81.5 52.3 -85.85 50.5 -86.2 50.3 -88.7 48.3 -89.5 48.0 -89.85 46.5 -90.5 46.0 -90.7 45.5 -90.85 45.3 -90.85 45.15 -91.2 44.3 -91.2 44.15 -91.0 44.0" fill="#e6e6e6" fill-rule="evenodd" stroke="none"/>
    <path d="M-85.0 53.15 L-85.7 52.5 -89.5 48.0 -90.35 46.8 -90.5 46.5 -91.7 44.5 -91.85 44.15 -91.85 44.0 -92.0 43.8 -92.0 43.65 -92.2 43.5 -92.2 43.3 -92.35 43.15 -92.5 42.8 -92.7 42.65 -92.7 42.5 -92.85 42.3 -92.85 42.15 -93.0 42.0 -93.0 41.8 -93.5 40.8 -93.7 40.65 -93.85 40.3 -97.85 33.0 -97.85 32.8 -97.35 33.5 -97.35 33.65 -97.0 34.15 -96.0 35.3 -95.5 36.15 -95.35 36.3 -92.85 40.0 -92.5 40.3 -91.2 42.5 -89.7 43.5 -89.35 44.0 -89.2 44.0 -87.5 45.15 -85.2 46.5 -84.7 46.65 -84.35 47.0 -82.7 47.3 -80.0 47.5 -78.5 47.3 -77.35 47.0 -75.7 46.3 -74.7 45.65 -74.2 45.15 -71.35 43.15 -68.5 40.5 -65.5 37.0 -64.0 34.8 -61.85 32.65 -61.5 32.5 -53.0 25.8 -54.85 30.8 -54.85 31.15 -55.35 32.3 -55.2 32.5 -55.35 32.8 -55.7 36.15 -55.5 36.3 -56.0 40.0 -55.85 40.15 -56.7 46.65 -56.35 46.8 -57.35 51.3 -57.2 51.5 -57.2 51.65 -57.35 52.0 -57.5 52.15 -57.7 52.65 -57.5 52.65 -57.5 53.15 -57.7 54.0 -57.2 56.0 -57.85 59.8 -58.0 60.15 -58.2 60.3 -58.85 61.15 -58.85 61.3 -59.0 61.5 -59.5 61.8 -60.35 62.5 -61.35 63.0 -61.85 63.15 -62.2 63.3 -62.5 63.5 -65.7 64.15 -65.7 64.3 -67.0 64.3 -68.0 64.5 -70.5 64.3 -71.5 63.8 -69.35 63.8 -68.2 63.65 -67.35 63.65 -66.35 63.5 -65.2 63.5 -65.0 63.3 -63.7 63.0 -63.7 62.8 -63.35 62.8 -63.0 62.65 -62.35 62.5 -62.2 62.3 -62.2 62.15 -61.5 62.0 -61.2 61.8 -60.7 61.65 -60.0 61.15 -60.2 61.0 -59.5 60.65 -59.2 60.3 -59.0 60.0 -58.7 59.65 -59.0 59.5 -58.7 59.5 -58.35 59.15 -58.2 58.8 -58.5 58.8 -60.35 57.15 -60.5 56.8 -61.0 56.15 -61.5 56.3 -63.35 58.15 -65.0 59.15 -65.85 59.5 -66.2 59.8 -67.35 60.5 -68.35 60.8 -72.85 60.8 -73.35 60.65 -73.85 60.65 -75.2 60.3 -81.2 56.65 -81.35 56.65 -83.35 54.8 -83.5 53.8 -85.0 53.15 M-105.7 10.65 Q-115.2 2.65 -108.85 -8.2 L-108.0 -8.85 -107.85 -8.2 -107.7 -8.2 -107.5 -7.7 -107.35 -7.7 -107.2 -7.0 -107.2 -6.5 -107.0 -6.35 -107.0 -5.7 -106.7 -5.0 -106.7 -4.0 -106.5 -3.7 -106.5 -3.0 -106.35 -2.85 -106.35 -1.85 -106.2 -1.7 -106.2 -1.2 -106.35 -1.0 -106.2 -0.85 -106.2 -0.5 -106.0 0.0 -106.0 1.8 -105.85 2.0 -105.85 2.65 -105.7 3.0 -105.7 3.5 -105.85 3.8 -105.7 4.15 -105.7 4.65 -105.5 4.8 -105.5 5.8 -105.35 6.3 -105.35 6.8 -105.7 10.65 M-82.7 -5.85 L-81.85 -7.7 -80.0 -9.2 -79.0 -9.7 -78.35 -9.85 -78.35 -9.5 Q-74.7 -11.5 -69.85 -3.2 -68.7 -1.2 -68.85 2.65 L-70.7 8.0 -72.0 10.0 -73.85 11.5 -76.0 11.65 Q-83.0 9.0 -84.0 1.5 L-84.0 -0.2 -83.2 -5.2 -82.5 -5.5 -82.7 -5.85 M-91.0 44.0 L-91.2 44.15 -91.2 44.3 -90.85 45.15 -90.85 45.3 -90.7 45.5 -90.5 46.0 -89.85 46.5 -89.5 48.0 -88.7 48.3 -86.2 50.3 -85.85 50.5 -81.5 52.3 -81.0 52.65 -78.7 53.65 -77.5 53.8 -75.85 53.8 -75.5 53.65 -75.35 53.65 -74.5 53.5 -74.2 53.5 -73.85 53.3 -73.5 53.3 -73.2 53.15 -72.85 53.15 -72.5 53.0 -72.35 53.0 -72.0 52.8 -71.85 52.8 -71.5 52.65 -71.35 52.65 -71.0 52.5 -69.35 52.0 -68.7 52.0 -68.35 51.65 -67.7 51.5 -67.35 51.3 -66.85 51.15 -66.5 51.0 -65.85 50.5 -67.7 48.5 -68.0 48.0 -69.5 46.3 -70.0 46.15 -70.2 46.15 -70.5 46.5 -71.0 46.5 -71.0 46.65 -71.35 46.8 -72.0 47.3 -72.35 47.3 -74.5 48.0 -74.7 48.3 -75.7 48.65 -76.35 49.0 -78.35 49.5 -78.7 49.5 -79.7 49.65 -80.2 49.5 -81.35 49.5 -81.35 49.3 -82.0 49.3 -82.35 49.15 -83.2 49.0 -83.2 48.8 -83.5 48.8 -83.5 48.65 -83.85 48.65 -84.5 48.5 -84.7 48.3 -84.85 48.3 -85.35 48.0 -85.85 47.8 -88.5 46.3 -88.85 46.15 -88.85 46.0 -89.35 46.0 -89.7 45.3 -90.35 45.0 -90.7 44.65 -91.0 44.0" fill="#000000" fill-rule="evenodd" stroke="none"/>
    <path d="M-33.0 -82.2 L-21.5 -80.85 -12.5 -73.5 -4.35 -64.7 -3.0 -54.2 -3.0 -47.5 -3.7 -41.2 -11.85 -30.5 -16.2 -26.2 -25.7 -18.7 -26.2 -18.85 -26.85 -23.7 -28.35 -29.2 -30.0 -33.2 -32.0 -35.7 -37.5 -40.0 Q-39.5 -41.0 -49.35 -34.0 L-61.7 -24.7 Q-70.5 -28.2 -73.5 -39.35 L-72.85 -48.0 -71.85 -54.5 -69.85 -62.5 -60.35 -74.0 -55.0 -77.0 -42.35 -82.35 -33.0 -82.2" fill="#939393" fill-opacity="0.36862746" fill-rule="evenodd" stroke="none"/>
  </g>
</svg>
