<?xml version="1.0" encoding="UTF-8" standalone="no"?>
<svg xmlns:ffdec="https://www.free-decompiler.com/flash" xmlns:xlink="http://www.w3.org/1999/xlink" ffdec:objectType="shape" height="244.1px" width="218.4px" xmlns="http://www.w3.org/2000/svg">
  <g transform="matrix(1.0, 0.0, 0.0, 1.0, 110.65, 121.5)">
    <path d="M-108.25 -7.65 L-108.75 -13.15 -106.65 -34.75 -100.0 -56.0 -90.15 -74.0 -74.0 -92.65 -57.15 -105.65 -40.5 -113.65 -34.0 -116.25 -13.65 -120.65 -5.25 -121.5 5.85 -121.4 11.85 -120.75 34.35 -115.9 56.6 -105.4 71.1 -94.15 74.75 -90.9 88.6 -74.65 99.1 -55.75 105.6 -35.0 107.75 -13.9 105.6 7.85 99.1 28.85 89.0 47.35 75.25 63.75 56.85 78.1 38.5 87.35 35.75 88.35 18.25 92.75 18.25 118.85 Q15.1 122.25 0.5 122.6 -18.0 122.5 -21.15 119.25 L-21.25 92.25 -35.5 88.75 -39.25 87.5 -57.0 78.6 -75.65 64.25 -77.9 61.6 -77.25 62.0 -76.65 62.25 -76.5 62.35 -75.9 62.85 -74.9 62.85 -74.4 62.75 -73.5 62.75 -71.25 61.6 -70.4 60.85 -70.25 60.5 -69.9 60.0 -69.75 59.85 -69.9 59.75 -69.5 58.85 -69.5 58.0 -70.0 56.1 -70.0 55.1 -70.4 54.0 -70.5 53.6 -70.9 53.1 -71.0 52.35 -71.0 52.25 -71.15 52.0 -71.15 51.75 -71.25 51.75 -71.25 51.5 -71.4 51.5 -71.4 51.0 -71.25 50.85 -71.15 50.5 -71.15 50.35 -71.4 50.25 -71.25 45.75 -71.5 45.6 -71.75 39.1 -72.65 32.0 -72.4 31.75 -72.65 31.6 -72.15 30.1 -71.25 25.35 -77.65 31.75 -79.15 33.85 -81.4 39.35 -81.9 40.35 -83.0 42.0 -83.65 42.75 -84.0 43.25 -84.5 43.75 -84.9 44.35 -85.15 44.85 -85.4 45.1 -86.15 45.6 -86.65 45.85 -87.5 46.0 -89.4 45.75 -91.75 43.35 -91.9 43.1 -93.0 41.75 -93.15 41.75 -93.25 41.35 -93.65 40.75 -100.0 29.1 -105.0 13.1 -104.65 13.0 -104.9 12.1 -104.9 11.25 -105.15 10.35 -105.75 3.1 -105.65 1.85 -106.0 -0.65 -106.0 -1.9 -106.4 -1.9 -106.5 -2.25 -106.65 -2.5 -106.9 -2.75 -107.15 -3.15 -107.5 -3.9 -107.9 -4.4 -107.9 -5.15 -108.0 -5.75 -108.4 -5.9 -108.15 -6.65 -108.25 -6.65 -108.25 -7.65 M-96.25 -5.4 L-100.65 -2.5 -101.25 -2.0 -101.5 -1.9 -101.65 -2.0 -101.75 -1.75 -101.9 -1.65 -101.9 -1.4 -101.65 0.1 -101.25 0.85 -101.25 1.0 -101.4 1.25 -101.25 1.5 -101.25 1.6 -101.15 2.5 -100.75 4.0 -100.65 4.25 -99.9 7.75 -99.25 9.0 -97.0 12.5 -96.5 13.5 -95.75 14.0 -85.15 11.0 -70.65 8.1 -69.65 8.0 -69.4 8.0 -69.0 7.85 -68.5 7.85 -68.15 7.75 -67.65 7.75 -67.25 7.6 -66.75 7.6 -66.4 7.5 -65.9 7.5 -65.5 7.35 -65.0 7.35 -64.65 7.25 -64.15 7.25 -63.75 7.1 -63.25 7.1 -62.75 7.0 -62.4 7.0 -61.9 6.85 -61.65 6.85 -53.15 5.6 -53.0 5.6 -52.25 5.5 -51.5 3.25 -49.4 -5.25 -49.15 -5.9 -48.65 -8.0 -48.5 -12.0 -49.5 -15.5 -49.9 -18.9 -52.15 -30.25 -53.4 -33.0 -54.9 -35.25 -59.75 -39.65 -60.4 -39.65 -70.4 -32.75 -88.0 -16.65 -92.65 -9.75 -92.75 -9.65 -93.0 -9.5 -93.25 -9.4 -94.5 -8.25 -94.65 -8.0 -94.65 -7.9 -95.15 -7.65 -95.65 -5.9 -95.75 -5.9 -96.25 -5.4" fill="#070707" fill-rule="evenodd" stroke="none"/>
    <path d="M-77.9 61.6 L-78.25 61.25 -78.25 61.1 -78.5 60.85 -79.0 60.5 -80.75 58.75 -80.75 58.6 -83.9 55.0 -84.0 54.75 -83.75 55.0 -83.65 55.0 -80.75 58.0 -79.9 58.35 -79.65 58.6 -79.4 59.0 -79.25 59.0 -78.0 59.25 -76.4 59.25 -75.9 58.85 -75.75 58.75 -75.75 58.35 -75.5 58.1 -74.9 57.6 -74.65 57.35 -74.4 57.0 -74.15 56.75 -73.75 56.1 -73.65 55.6 -73.25 55.0 -72.75 54.85 -70.5 57.0 -70.15 57.5 -70.15 58.1 -70.25 58.5 -70.15 58.6 -70.4 58.85 -70.5 59.5 -70.75 59.75 -70.9 60.0 -71.0 60.25 -71.25 60.5 -71.75 60.85 -72.25 61.1 -72.75 61.25 -72.75 61.5 -73.15 61.75 -74.25 62.0 -74.65 62.0 -75.25 62.1 -75.9 62.1 -76.4 62.25 -76.65 62.25 -77.25 62.0 -77.9 61.6 M-87.9 49.85 L-88.4 49.35 -88.4 49.25 -90.15 47.35 -90.25 47.1 -91.4 45.1 -91.4 45.0 -91.65 44.75 -91.75 44.5 -91.5 44.6 -90.75 45.5 -90.65 45.6 -90.4 46.1 -89.5 46.75 -89.25 47.0 -89.0 47.1 -89.25 47.25 -88.9 47.25 -88.4 47.75 -88.15 47.85 -87.9 47.85 -87.9 48.0 -87.5 48.0 -87.15 48.1 -86.65 48.0 -86.0 48.0 -85.25 47.6 -84.15 46.85 -84.15 46.6 -83.9 46.5 -83.65 46.35 -83.65 46.25 -83.4 46.1 -83.15 46.25 -83.0 46.0 -82.75 46.0 -82.5 45.6 -82.25 45.6 -82.15 45.35 -82.0 45.25 -81.65 44.85 -81.5 44.85 -81.15 45.0 -80.15 46.0 -79.4 47.25 -78.5 48.25 -78.0 49.0 -77.65 49.35 -78.4 49.85 -78.75 50.0 -79.0 50.25 -79.75 50.5 -79.75 50.6 -80.0 50.6 -80.0 50.75 -80.25 50.75 -80.65 51.0 -81.0 51.0 -81.0 51.1 -82.75 52.1 -83.0 52.1 -83.15 52.25 -84.25 52.25 -84.9 52.1 -86.5 50.75 -86.75 50.6 -87.25 50.1 -87.9 49.85 M-105.0 13.1 L-105.5 12.75 -105.75 12.35 -106.5 10.1 -107.15 8.5 -107.25 8.25 -107.4 7.6 -107.4 6.5 -107.5 6.25 -107.4 5.85 -107.5 4.75 -107.5 4.35 -107.65 3.25 -107.65 2.75 -107.75 2.1 -107.75 1.5 -107.9 0.5 -107.9 0.25 -108.0 -0.5 -108.0 -1.0 -108.15 -1.15 -108.15 -2.25 -108.25 -2.25 -108.25 -3.25 -108.4 -3.5 -108.4 -3.9 -108.5 -4.15 -108.4 -4.4 -108.4 -5.9 -108.25 -6.65 -108.15 -6.65 -108.4 -5.9 -108.0 -5.75 -107.9 -5.15 -107.9 -4.4 -107.5 -3.9 -107.15 -3.15 -106.9 -2.75 -106.65 -2.5 -106.5 -2.25 -106.4 -1.9 -106.0 -1.9 -106.0 -0.65 -105.65 1.85 -105.75 3.1 -105.15 10.35 -104.9 11.25 -104.9 12.1 -104.65 13.0 -105.0 13.1 M-93.25 -9.4 L-93.0 -9.5 -92.75 -9.65 -92.65 -9.75 -88.0 -16.65 -70.4 -32.75 -60.4 -39.65 -59.75 -39.65 -54.9 -35.25 -53.4 -33.0 -52.15 -30.25 -49.9 -18.9 -49.5 -15.5 -48.5 -12.0 -48.65 -8.0 -49.15 -5.9 -49.4 -5.25 -51.5 3.25 -52.25 5.5 -53.0 5.6 -53.15 5.6 -61.65 6.85 -61.9 6.85 -62.4 7.0 -62.75 7.0 -63.25 7.1 -63.75 7.1 -64.15 7.25 -64.65 7.25 -65.0 7.35 -65.5 7.35 -65.9 7.5 -66.4 7.5 -66.75 7.6 -67.25 7.6 -67.65 7.75 -68.15 7.75 -68.5 7.85 -69.0 7.85 -69.4 8.0 -69.65 8.0 -70.65 8.1 -85.15 11.0 -95.75 14.0 -96.5 13.5 -97.0 12.5 -99.25 9.0 -99.9 7.75 -100.65 4.25 -100.75 4.0 -101.15 2.5 -101.25 1.6 -101.25 1.5 -101.4 1.25 -101.25 1.0 -101.25 0.85 -101.65 0.1 -101.9 -1.4 -101.9 -1.65 -101.75 -1.75 -101.65 -2.0 -101.5 -1.9 -101.25 -2.0 -100.65 -2.5 -96.25 -5.4 -96.25 -5.15 -97.15 -1.75 -97.15 -0.65 -96.9 -0.4 -96.9 -0.25 -97.0 0.1 -97.0 3.0 -96.75 3.1 Q-93.25 11.5 -90.4 11.25 L-88.75 11.1 -87.9 9.85 -86.9 7.85 -85.5 2.25 -86.4 -2.75 Q-90.15 -11.0 -93.15 -9.15 L-93.4 -9.0 -93.25 -9.4" fill="#e6e6e6" fill-rule="evenodd" stroke="none"/>
    <path d="M-84.0 54.75 L-84.4 54.1 -87.9 49.85 -87.25 50.1 -86.75 50.6 -86.5 50.75 -84.9 52.1 -84.25 52.25 -83.15 52.25 -83.0 52.1 -82.75 52.1 -81.0 51.1 -81.0 51.0 -80.65 51.0 -80.25 50.75 -80.0 50.75 -80.0 50.6 -79.75 50.6 -79.75 50.5 -79.0 50.25 -78.75 50.0 -78.4 49.85 -77.65 49.35 -78.0 49.0 -78.5 48.25 -79.4 47.25 -80.15 46.0 -81.15 45.0 -81.5 44.85 -81.65 44.85 -82.0 45.25 -82.15 45.35 -82.25 45.6 -82.5 45.6 -82.75 46.0 -83.0 46.0 -83.15 46.25 -83.4 46.1 -83.65 46.25 -83.65 46.35 -83.9 46.5 -84.15 46.6 -84.15 46.85 -85.25 47.6 -86.0 48.0 -86.65 48.0 -87.15 48.1 -87.5 48.0 -87.9 48.0 -87.9 47.85 -88.15 47.85 -88.4 47.75 -88.9 47.25 -89.25 47.25 -89.0 47.1 -89.25 47.0 -89.5 46.75 -90.4 46.1 -90.65 45.6 -90.75 45.5 -91.5 44.6 -91.75 44.5 -91.75 44.1 -91.9 44.0 -92.0 43.75 -92.0 43.6 -93.15 41.75 -93.0 41.75 -91.9 43.1 -91.75 43.35 -89.4 45.75 -87.5 46.0 -86.65 45.85 -86.15 45.6 -85.4 45.1 -85.15 44.85 -84.9 44.35 -84.5 43.75 -84.0 43.25 -83.65 42.75 -83.0 42.0 -81.9 40.35 -81.4 39.35 -79.15 33.85 -77.65 31.75 -71.25 25.35 -72.15 30.1 -72.65 31.6 -72.4 31.75 -72.65 32.0 -71.75 39.1 -71.5 45.6 -71.25 45.75 -71.4 50.25 -71.15 50.35 -71.15 50.5 -71.25 50.85 -71.4 51.0 -71.4 51.5 -71.25 51.5 -71.25 51.75 -71.15 51.75 -71.15 52.0 -71.0 52.25 -71.0 52.35 -70.9 53.1 -70.5 53.6 -70.4 54.0 -70.0 55.1 -70.0 56.1 -69.5 58.0 -69.5 58.85 -69.9 59.75 -69.75 59.85 -69.9 60.0 -70.25 60.5 -70.4 60.85 -71.25 61.6 -73.5 62.75 -74.4 62.75 -74.9 62.85 -75.9 62.85 -76.5 62.35 -76.65 62.25 -76.4 62.25 -75.9 62.1 -75.25 62.1 -74.65 62.0 -74.25 62.0 -73.15 61.75 -72.75 61.5 -72.75 61.25 -72.25 61.1 -71.75 60.85 -71.25 60.5 -71.0 60.25 -70.9 60.0 -70.75 59.75 -70.5 59.5 -70.4 58.85 -70.15 58.6 -70.25 58.5 -70.15 58.1 -70.15 57.5 -70.5 57.0 -72.75 54.85 -73.25 55.0 -73.65 55.6 -73.75 56.1 -74.15 56.75 -74.4 57.0 -74.65 57.35 -74.9 57.6 -75.5 58.1 -75.75 58.35 -75.75 58.75 -75.9 58.85 -76.4 59.25 -78.0 59.25 -79.25 59.0 -79.4 59.0 -79.65 58.6 -79.9 58.35 -80.75 58.0 -83.65 55.0 -83.75 55.0 -84.0 54.75 M-107.15 8.5 Q-108.5 7.5 -109.9 4.35 L-110.65 -0.15 -110.65 -0.4 -110.4 -2.5 -110.4 -2.75 -110.25 -2.9 -110.25 -3.25 -109.65 -5.15 -109.65 -5.25 -109.5 -5.5 -109.4 -5.75 -109.25 -6.0 -109.15 -6.25 -109.0 -6.5 -108.75 -6.65 -108.75 -6.75 -108.65 -6.9 -108.65 -7.0 -108.5 -7.15 -108.5 -7.4 -108.25 -7.65 -108.25 -6.65 -108.4 -5.9 -108.4 -4.4 -108.5 -4.15 -108.4 -3.9 -108.4 -3.5 -108.25 -3.25 -108.25 -2.25 -108.15 -2.25 -108.15 -1.15 -108.0 -1.0 -108.0 -0.5 -107.9 0.25 -107.9 0.5 -107.75 1.5 -107.75 2.1 -107.65 2.75 -107.65 3.25 -107.5 4.35 -107.5 4.75 -107.4 5.85 -107.5 6.25 -107.4 6.5 -107.4 7.6 -107.25 8.25 -107.15 8.5 M-96.25 -5.4 L-95.75 -5.9 -95.65 -5.9 -95.15 -7.65 -94.65 -7.9 -94.65 -8.0 -94.5 -8.25 -93.25 -9.4 -93.4 -9.0 -93.15 -9.15 Q-90.15 -11.0 -86.4 -2.75 L-85.5 2.25 -86.9 7.85 -87.9 9.85 -88.75 11.1 -90.4 11.25 Q-93.25 11.5 -96.75 3.1 L-97.0 3.0 -97.0 0.1 -96.9 -0.25 -96.9 -0.4 -97.15 -0.65 -97.15 -1.75 -96.25 -5.15 -96.25 -5.4" fill="#000000" fill-rule="evenodd" stroke="none"/>
    <path d="M-31.9 -82.0 L-21.5 -80.65 -13.9 -74.4 -5.15 -65.15 -3.75 -56.4 -3.65 -48.5 -4.25 -41.4 Q-12.65 -28.25 -25.65 -19.25 L-33.25 -18.25 -44.9 -18.15 -49.4 -17.4 -49.75 -17.4 -51.0 -26.4 -52.5 -31.75 -55.15 -35.65 -59.25 -39.25 -60.75 -39.5 -70.4 -32.75 -70.9 -33.4 -73.5 -39.9 -72.9 -48.0 -70.25 -61.9 -68.15 -65.0 -60.4 -74.0 -53.9 -77.65 -41.5 -82.5 -31.9 -82.0" fill="#939393" fill-opacity="0.36862746" fill-rule="evenodd" stroke="none"/>
  </g>
</svg>
