<?xml version="1.0" encoding="UTF-8" standalone="no"?>
<svg xmlns:ffdec="https://www.free-decompiler.com/flash" xmlns:xlink="http://www.w3.org/1999/xlink" ffdec:objectType="shape" height="244.0px" width="216.5px" xmlns="http://www.w3.org/2000/svg">
  <g transform="matrix(1.0, 0.0, 0.0, 1.0, 108.75, 121.5)">
    <path d="M-91.65 44.35 L-100.0 29.1 -106.65 8.0 -108.75 -13.15 -106.65 -35.0 -100.25 -55.5 -89.9 -74.4 -76.5 -90.15 -74.15 -92.5 -57.65 -105.4 -36.4 -115.5 -31.75 -116.9 -13.65 -120.65 -5.25 -121.5 3.1 -121.5 11.0 -120.9 34.75 -115.75 56.6 -105.4 73.0 -92.65 88.6 -74.65 99.1 -55.75 105.6 -35.0 107.75 -13.9 105.6 8.0 99.5 27.85 89.0 47.35 Q60.0 86.25 18.35 92.6 L18.35 118.1 17.75 119.25 Q13.5 122.6 -3.75 122.5 -20.15 121.75 -21.25 118.75 L-21.5 92.25 -39.25 87.5 -57.0 78.6 -75.15 64.6 Q-75.9 64.5 -78.25 61.1 L-78.15 61.1 -77.9 61.0 -77.75 60.85 -78.0 60.5 -77.4 58.85 -77.4 58.25 -78.25 55.85 -79.15 54.1 -79.65 53.5 -79.75 52.85 -80.9 51.1 -81.0 50.85 -81.15 50.75 -81.25 50.35 -81.4 50.35 -81.5 50.1 -81.5 49.6 -81.65 49.1 -81.65 48.75 -82.4 44.5 -82.65 44.25 -83.5 39.75 -83.75 39.5 -84.0 38.1 -84.15 38.0 -84.9 34.5 -85.0 34.25 -85.0 33.85 -85.65 31.1 -85.9 30.5 -85.65 29.5 -85.5 29.25 -85.5 24.85 -89.5 30.85 -89.9 31.85 -90.15 32.85 -90.15 38.25 -90.25 38.85 -90.25 39.25 -90.5 40.85 -90.75 41.35 -91.0 42.5 -90.9 43.25 -91.0 43.25 -90.75 44.0 -91.0 44.5 -91.4 44.5 -91.65 44.35 M-105.65 -3.75 L-106.5 -2.65 -106.75 -1.9 -106.9 -1.75 -106.9 -1.5 -106.4 1.85 -106.4 2.25 -106.25 2.35 -106.25 2.85 -106.15 3.35 -106.15 3.75 -105.9 4.75 -105.9 5.1 -105.75 5.1 -105.75 5.6 -105.65 5.85 -105.65 6.0 -105.25 8.6 -104.4 10.35 -104.4 10.5 -104.15 11.35 -104.0 11.5 -103.25 13.35 -102.9 13.5 -101.4 13.0 -96.9 10.6 -96.15 10.5 -85.75 7.75 -85.65 7.75 -85.25 7.6 -84.9 7.6 -84.5 7.5 -84.4 7.5 -83.15 7.25 -82.75 7.25 -82.4 7.1 -82.0 7.1 -80.9 6.85 -80.75 6.85 -78.65 6.5 -78.5 6.5 -72.0 5.35 -70.0 -5.15 -69.75 -5.75 -69.25 -9.9 -69.75 -13.5 -70.4 -15.25 -71.75 -28.15 -73.0 -32.4 -74.9 -35.4 -77.25 -37.9 -77.75 -38.65 -78.65 -38.65 -83.5 -34.65 -83.65 -34.5 -86.9 -31.75 -99.15 -17.4 -101.25 -13.0 -101.5 -12.0 -102.0 -10.9 -102.0 -10.65 -102.15 -10.5 -102.15 -10.4 -102.4 -9.75 -102.5 -9.65 -102.9 -8.9 -102.9 -8.75 -103.9 -7.75 -105.65 -3.75" fill="#070707" fill-rule="evenodd" stroke="none"/>
    <path d="M-79.15 60.5 L-79.25 60.5 -79.5 60.25 -79.65 60.0 -80.15 59.5 -80.15 59.35 -80.9 58.6 -80.9 58.5 -81.5 57.85 -81.5 57.75 -81.75 57.5 -81.15 57.5 -81.15 57.35 -81.5 56.85 -81.5 56.75 -81.65 56.25 -81.4 56.1 -81.15 55.5 -81.25 55.25 -81.15 55.1 -81.25 54.75 -81.4 54.6 -81.4 54.25 -81.25 54.1 -81.5 53.5 -81.0 53.35 -78.9 55.5 -78.25 57.0 -78.15 57.35 -78.0 57.35 -78.0 57.6 -77.9 57.85 -78.0 58.25 -78.0 58.85 -78.25 59.5 -78.5 59.75 -78.5 59.85 -78.4 60.25 -78.9 60.35 -79.15 60.5 M-87.15 50.75 L-87.4 50.5 -87.5 50.5 -87.75 50.25 -90.65 46.5 -90.75 46.25 -90.5 46.35 -90.65 46.5 -90.0 46.5 -89.9 46.25 -89.9 45.75 -90.0 45.0 -90.0 44.85 -90.15 44.75 -89.9 44.75 -89.75 44.6 -89.5 44.25 -89.4 44.0 -89.25 43.75 -89.0 43.75 -89.0 43.65 -87.9 44.75 -87.4 45.5 -86.75 46.1 -85.9 48.1 -86.75 49.25 -87.0 49.35 -87.25 49.5 -87.25 49.6 -86.9 49.85 -87.15 50.75 M-102.9 -8.75 L-102.9 -8.9 -102.5 -9.65 -102.4 -9.75 -102.15 -10.4 -102.15 -10.5 -102.0 -10.65 -102.0 -10.9 -101.5 -12.0 -101.25 -13.0 -99.15 -17.4 -86.9 -31.75 -83.65 -34.5 -83.5 -34.65 -78.65 -38.65 -77.75 -38.65 -77.25 -37.9 -74.9 -35.4 -73.0 -32.4 -71.75 -28.15 -70.4 -15.25 -69.75 -13.5 -69.25 -9.9 -69.75 -5.75 -70.0 -5.15 -72.0 5.35 -78.5 6.5 -78.65 6.5 -80.75 6.85 -80.9 6.85 -82.0 7.1 -82.4 7.1 -82.75 7.25 -83.15 7.25 -84.4 7.5 -84.5 7.5 -84.9 7.6 -85.25 7.6 -85.65 7.75 -85.75 7.75 -96.15 10.5 -96.9 10.6 -101.4 13.0 -102.9 13.5 -103.25 13.35 -104.0 11.5 -104.15 11.35 -104.4 10.5 -104.4 10.35 -105.25 8.6 -105.65 6.0 -105.65 5.85 -105.75 5.6 -105.75 5.1 -105.9 5.1 -105.9 4.75 -106.15 3.75 -106.15 3.35 -106.25 2.85 -106.25 2.35 -106.4 2.25 -106.4 1.85 -106.9 -1.5 -106.9 -1.75 -106.75 -1.9 -106.5 -2.65 -105.65 -3.75 -106.0 0.0 -105.15 5.0 -105.0 5.0 -105.0 5.25 -104.9 5.5 -104.75 5.75 -102.15 9.35 -100.15 10.85 -99.0 10.6 -98.4 7.85 -97.65 1.75 -98.5 -3.0 Q-100.25 -10.0 -102.9 -8.75" fill="#e6e6e6" fill-rule="evenodd" stroke="none"/>
    <path d="M-78.25 61.1 L-79.15 60.5 -78.9 60.35 -78.4 60.25 -78.5 59.85 -78.5 59.75 -78.25 59.5 -78.0 58.85 -78.0 58.25 -77.9 57.85 -78.0 57.6 -78.0 57.35 -78.15 57.35 -78.25 57.0 -78.9 55.5 -81.0 53.35 -81.5 53.5 -81.25 54.1 -81.4 54.25 -81.4 54.6 -81.25 54.75 -81.15 55.1 -81.25 55.25 -81.15 55.5 -81.4 56.1 -81.65 56.25 -81.5 56.75 -81.5 56.85 -81.15 57.35 -81.15 57.5 -81.75 57.5 -87.15 50.75 -86.9 49.85 -87.25 49.6 -87.25 49.5 -87.0 49.35 -86.75 49.25 -85.9 48.1 -86.75 46.1 -87.4 45.5 -87.9 44.75 -89.0 43.65 -89.0 43.75 -89.25 43.75 -89.4 44.0 -89.5 44.25 -89.75 44.6 -89.9 44.75 -90.15 44.75 -90.0 44.85 -90.0 45.0 -89.9 45.75 -89.9 46.25 -90.0 46.5 -90.65 46.5 -90.5 46.35 -90.75 46.25 -91.65 44.35 -91.4 44.5 -91.0 44.5 -90.75 44.0 -91.0 43.25 -90.9 43.25 -91.0 42.5 -90.75 41.35 -90.5 40.85 -90.25 39.25 -90.25 38.85 -90.15 38.25 -90.15 32.85 -89.9 31.85 -89.5 30.85 -85.5 24.85 -85.5 29.25 -85.65 29.5 -85.9 30.5 -85.65 31.1 -85.0 33.85 -85.0 34.25 -84.9 34.5 -84.15 38.0 -84.0 38.1 -83.75 39.5 -83.5 39.75 -82.65 44.25 -82.4 44.5 -81.65 48.75 -81.65 49.1 -81.5 49.6 -81.5 50.1 -81.4 50.35 -81.25 50.35 -81.15 50.75 -81.0 50.85 -80.9 51.1 -79.75 52.85 -79.65 53.5 -79.15 54.1 -78.25 55.85 -77.4 58.25 -77.4 58.85 -78.0 60.5 -77.75 60.85 -77.9 61.0 -78.15 61.1 -78.25 61.1 M-105.65 -3.75 L-103.9 -7.75 -102.9 -8.75 Q-100.25 -10.0 -98.5 -3.0 L-97.65 1.75 -98.4 7.85 -99.0 10.6 -100.15 10.85 -102.15 9.35 -104.75 5.75 -104.9 5.5 -105.0 5.25 -105.0 5.0 -105.15 5.0 -106.0 0.0 -105.65 -3.75" fill="#000000" fill-rule="evenodd" stroke="none"/>
    <path d="M-11.75 -71.65 L-6.0 -65.15 -5.25 -61.75 -4.5 -50.4 -5.4 -41.15 -10.0 -34.75 -13.15 -31.5 -13.0 -31.25 -17.5 -26.75 -25.75 -20.15 -33.25 -19.15 -44.5 -19.0 -49.65 -18.15 -57.75 -22.25 -63.4 -26.0 -69.75 -31.4 -73.4 -39.4 -72.9 -48.4 -72.15 -53.9 -70.4 -61.9 -68.25 -65.0 -60.5 -74.0 -58.65 -75.25 -48.5 -80.0 -41.0 -82.5 -30.9 -81.75 -21.4 -80.15 -11.75 -71.65" fill="#939393" fill-opacity="0.36862746" fill-rule="evenodd" stroke="none"/>
  </g>
</svg>
