<?xml version="1.0" encoding="UTF-8" standalone="no"?>
<svg xmlns:ffdec="https://www.free-decompiler.com/flash" xmlns:xlink="http://www.w3.org/1999/xlink" ffdec:objectType="shape" height="243.9px" width="218.3px" xmlns="http://www.w3.org/2000/svg">
  <g transform="matrix(1.0, 0.0, 0.0, 1.0, 110.55, 121.4)">
    <path d="M-108.15 -8.15 L-108.75 -13.15 -106.65 -34.75 -100.15 -55.75 -90.25 -73.75 -78.0 -88.4 -74.0 -92.65 -56.9 -105.75 -36.15 -115.65 -31.75 -116.9 -12.75 -120.75 -7.15 -121.4 5.85 -121.4 11.85 -120.75 34.35 -115.9 56.6 -105.4 69.5 -95.4 75.25 -90.4 88.75 -74.5 99.1 -55.75 105.6 -35.0 107.75 -13.9 105.6 7.85 99.1 28.85 89.0 47.35 75.25 63.75 56.85 78.1 38.5 87.35 35.75 88.35 18.25 92.75 18.25 118.85 Q14.85 122.0 0.85 122.5 -19.25 122.1 -21.0 119.1 L-21.25 92.25 -35.5 88.75 -39.25 87.5 -57.0 78.6 -76.25 63.75 -80.4 58.75 -80.4 58.6 -80.75 58.0 -81.15 57.6 -81.25 57.5 -81.25 57.25 -81.65 56.85 -81.65 56.6 -81.75 56.6 -82.0 56.35 -82.15 56.1 -82.25 56.0 -82.4 55.75 -82.5 55.5 -82.75 55.35 -82.75 55.1 -83.15 54.6 -83.5 54.35 -83.5 54.1 -83.9 53.5 -85.4 51.6 -85.65 51.35 -86.5 50.25 -86.75 50.0 -87.65 48.85 -87.9 48.6 -87.9 48.0 -88.15 47.75 -88.25 47.0 -89.65 43.1 -89.65 42.85 -90.0 42.6 -91.4 38.25 -91.65 38.1 -92.0 36.85 -92.15 36.5 -93.25 33.35 -93.4 33.35 -93.4 33.1 -93.5 33.1 -94.5 30.1 -94.9 29.25 -94.65 28.75 -94.75 28.5 -94.75 28.1 -95.25 24.25 -96.0 26.35 -96.9 30.0 -96.9 31.25 -96.65 32.1 -96.5 32.35 -96.4 32.6 -96.4 32.75 -96.25 33.0 -94.65 37.5 -94.4 37.85 -94.4 38.25 -94.25 38.5 -94.15 39.25 -94.15 39.35 -94.0 39.6 -93.9 40.0 -100.0 29.1 -105.0 13.0 -103.65 10.25 -103.25 10.1 -96.75 7.25 -96.4 7.25 -96.0 7.1 -95.9 7.1 -94.65 6.75 -94.25 6.75 -87.75 5.25 -86.65 -3.5 -86.65 -5.0 -86.4 -5.65 -86.15 -9.65 -87.25 -16.4 -87.75 -27.4 -88.75 -32.5 -90.75 -35.9 -91.4 -36.75 -91.75 -37.5 -92.5 -37.5 -98.5 -31.15 -98.65 -30.5 -106.4 -16.9 -107.15 -13.9 -107.25 -13.65 -107.25 -13.0 -107.4 -12.65 -107.4 -12.25 -107.75 -8.65 -107.65 -8.5 -108.15 -8.15 M-80.9 58.25 L-81.0 58.25 -81.15 58.1 -80.9 58.1 -80.9 58.25" fill="#070707" fill-rule="evenodd" stroke="none"/>
    <path d="M-107.75 -8.65 L-107.4 -12.25 -107.4 -12.65 -107.25 -13.0 -107.25 -13.65 -107.15 -13.9 -106.4 -16.9 -98.65 -30.5 -98.5 -31.15 -92.5 -37.5 -91.75 -37.5 -91.4 -36.75 -90.75 -35.9 -88.75 -32.5 -87.75 -27.4 -87.25 -16.4 -86.15 -9.65 -86.4 -5.65 -86.65 -5.0 -86.65 -3.5 -87.75 5.25 -94.25 6.75 -94.65 6.75 -95.9 7.1 -96.0 7.1 -96.4 7.25 -96.75 7.25 -103.25 10.1 -103.65 10.25 -105.0 13.0 -105.65 12.75 -106.5 10.1 -106.65 9.75 -106.75 9.25 -106.5 9.35 -105.15 10.6 -105.0 10.6 -104.75 10.25 -105.0 8.35 -105.15 -0.65 -106.25 -4.4 -106.5 -7.5 -107.25 -8.75 -107.75 -8.65 M-83.9 53.5 L-83.5 54.1 -83.5 54.35 -83.5 54.5 -83.15 54.6 -83.15 54.85 -82.75 55.1 -82.75 55.35 -82.5 55.5 -82.4 55.75 -82.25 56.0 -82.15 56.1 -82.0 56.35 -81.75 56.6 -81.65 56.6 -81.65 56.85 -81.25 57.25 -81.25 57.5 -81.15 57.6 -81.15 57.75 -81.0 58.0 -81.15 58.1 -81.4 58.0 -81.5 57.75 -82.15 57.1 -82.5 56.6 -82.65 56.5 -82.9 56.1 -83.5 55.5 -83.9 55.0 -84.0 54.85 -84.15 54.75 -84.25 54.5 -84.4 54.25 -84.5 54.0 -84.65 53.85 -85.25 53.0 -85.65 52.6 -85.65 52.5 -85.9 52.1 -85.4 51.85 -85.25 52.1 -85.0 52.35 -84.9 52.5 -83.9 53.5 M-89.75 47.75 L-90.0 47.5 -90.0 47.35 -90.15 47.25 -90.15 47.1 -90.4 46.85 -90.4 46.75 -90.5 46.6 -90.5 46.5 -90.65 46.35 -90.65 46.25 -90.75 46.25 -90.9 46.1 -90.9 46.0 -91.0 45.85 -91.0 45.75 -91.15 45.6 -91.15 45.5 -91.25 45.35 -91.25 45.25 -91.4 45.1 -91.4 45.0 -91.5 44.85 -91.65 44.75 -91.65 44.6 -91.75 44.5 -91.75 44.35 -91.9 44.25 -91.9 44.1 -92.0 44.0 -92.0 43.85 -92.15 43.75 -92.15 43.6 -92.4 43.35 -92.4 43.0 -92.65 42.6 -92.65 42.35 -92.75 42.1 -92.75 42.0 -92.15 42.6 -90.65 45.0 -90.65 45.1 -90.25 45.35 -90.25 45.6 -90.0 45.85 -89.75 46.25 -89.75 46.6 -89.5 47.1 -89.75 47.75" fill="#e6e6e6" fill-rule="evenodd" stroke="none"/>
    <path d="M-108.15 -8.15 L-107.65 -8.5 -107.75 -8.65 -107.25 -8.75 -106.5 -7.5 -106.25 -4.4 -105.15 -0.65 -105.0 8.35 -104.75 10.25 -105.0 10.6 -105.15 10.6 -106.5 9.35 -106.75 9.25 Q-110.9 5.25 -110.5 -1.9 L-109.75 -5.0 -108.15 -8.15 M-93.9 40.0 L-94.0 39.6 -94.15 39.35 -94.15 39.25 -94.25 38.5 -94.4 38.25 -94.4 37.85 -94.65 37.5 -96.25 33.0 -96.4 32.75 -96.4 32.6 -96.5 32.35 -96.65 32.1 -96.9 31.25 -96.9 30.0 -96.0 26.35 -95.25 24.25 -94.75 28.1 -94.75 28.5 -94.65 28.75 -94.9 29.25 -94.5 30.1 -93.5 33.1 -93.4 33.1 -93.4 33.35 -93.25 33.35 -92.15 36.5 -92.0 36.85 -91.65 38.1 -91.4 38.25 -90.0 42.6 -89.65 42.85 -89.65 43.1 -88.25 47.0 -88.15 47.75 -87.9 48.0 -87.9 48.6 -87.65 48.85 -86.75 50.0 -86.5 50.25 -85.65 51.35 -85.4 51.6 -83.9 53.5 -84.9 52.5 -85.0 52.35 -85.25 52.1 -85.4 51.85 -85.9 52.1 -85.65 52.5 -89.65 48.0 -89.75 47.85 -89.75 47.75 -89.5 47.1 -89.75 46.6 -89.75 46.25 -90.0 45.85 -90.25 45.6 -90.25 45.35 -90.65 45.1 -90.65 45.0 -92.15 42.6 -92.75 42.0 -92.75 42.1 -92.65 42.35 -92.65 42.6 -92.9 42.1 -92.9 42.0 -93.15 41.75 -93.25 41.25 -93.5 40.6 -93.75 40.35 -93.9 40.1 -93.9 40.0 M-83.5 54.35 L-83.15 54.6 -82.75 55.1 -83.15 54.85 -83.15 54.6 -83.5 54.5 -83.5 54.35 M-81.15 57.6 L-80.75 58.0 -80.4 58.6 -80.9 58.25 -80.9 58.1 -81.15 58.1 -81.0 58.0 -81.15 57.75 -81.15 57.6" fill="#000000" fill-rule="evenodd" stroke="none"/>
    <path d="M-21.5 -79.5 L-15.4 -74.15 -7.4 -65.15 Q-4.9 -56.75 -7.0 -41.15 L-10.9 -35.75 -13.5 -33.0 -13.4 -32.75 -17.75 -28.25 -25.65 -21.75 -36.0 -20.25 -44.4 -20.25 -49.25 -19.4 -56.75 -22.65 -62.15 -25.9 -69.5 -31.5 -73.4 -39.9 -73.0 -48.0 -70.65 -62.15 -60.15 -74.65 -50.4 -79.25 -41.75 -82.0 -32.9 -81.65 -21.5 -79.5" fill="#939393" fill-opacity="0.36862746" fill-rule="evenodd" stroke="none"/>
  </g>
</svg>
