<?xml version="1.0" encoding="UTF-8" standalone="no"?>
<svg xmlns:ffdec="https://www.free-decompiler.com/flash" xmlns:xlink="http://www.w3.org/1999/xlink" ffdec:objectType="shape" height="243.95px" width="218.65px" xmlns="http://www.w3.org/2000/svg">
  <g transform="matrix(1.0, 0.0, 0.0, 1.0, 110.95, 121.55)">
    <path d="M-108.0 -20.45 L-106.6 -35.0 -100.75 -54.15 -89.9 -74.45 -74.45 -92.15 -57.6 -105.45 -36.9 -115.3 Q-10.0 -124.9 17.25 -119.75 L34.25 -115.9 56.55 -105.45 73.1 -92.3 75.4 -90.15 84.0 -80.0 84.0 -79.9 84.85 -79.0 85.0 -78.75 87.25 -76.15 87.7 -75.45 88.85 -74.3 98.25 -57.15 98.25 -57.0 98.55 -56.6 99.1 -55.6 105.1 -36.3 105.1 -36.15 105.25 -35.75 105.4 -35.6 105.55 -35.0 107.55 -14.75 107.55 -14.45 107.7 -14.0 107.7 -13.45 105.55 7.25 105.55 8.0 99.4 27.7 99.4 27.85 99.25 28.1 99.1 28.7 88.7 47.55 76.25 62.25 76.1 62.55 75.25 63.55 63.0 73.25 62.55 73.55 62.25 73.85 61.85 74.1 61.55 74.4 61.1 74.7 60.7 75.1 60.4 75.25 60.0 75.7 59.7 75.85 56.4 78.4 37.55 87.7 18.55 92.7 18.55 118.1 17.4 119.55 14.4 120.85 9.25 121.85 2.85 122.4 -10.9 122.0 Q-19.3 120.85 -20.45 119.55 L-21.45 118.0 -21.45 92.25 -38.3 87.85 -57.45 78.4 -76.15 63.85 -90.15 47.1 -90.15 47.0 -90.45 46.7 -90.6 46.25 -90.9 45.7 -91.0 45.4 -95.0 37.1 -95.45 36.55 -96.0 35.7 -98.3 30.85 -98.45 30.4 -99.3 29.0 -99.15 28.55 -99.3 28.25 -99.45 28.1 -99.45 27.55 -100.3 23.55 -100.6 23.4 -100.6 24.0 -100.15 25.55 -100.3 26.1 -100.15 26.55 -100.15 28.55 -105.9 10.4 -106.0 10.4 -106.0 9.85 -105.15 8.25 -104.45 7.25 -98.75 5.0 -98.45 3.0 -98.3 -1.3 -98.45 -4.9 -98.3 -5.45 -98.15 -9.3 -99.3 -15.9 -99.15 -17.45 -99.15 -20.45 -98.9 -21.9 -99.0 -27.9 -99.6 -32.45 -100.75 -35.45 -101.0 -36.3 -101.75 -36.0 -105.45 -30.0 -105.75 -28.0 -105.9 -27.6 -105.9 -27.45 -106.6 -25.9 -107.15 -22.3 -108.0 -20.45" fill="#070707" fill-rule="evenodd" stroke="none"/>
    <path d="M-91.0 45.4 L-92.15 43.55 -92.9 42.1 -93.0 41.85 -93.6 40.7 -93.6 40.55 -93.75 40.55 -93.75 40.25 -94.75 38.85 -96.6 35.1 -96.75 35.0 -97.15 34.1 -97.3 34.0 -97.3 33.7 -97.6 33.55 -97.6 33.4 -97.75 33.25 -98.15 32.55 -99.3 30.0 -99.45 29.85 -99.75 29.4 -99.9 29.25 -100.0 29.0 -100.0 28.85 -100.15 28.55 -100.15 26.55 -100.3 26.1 -100.15 25.55 -100.6 24.0 -100.6 23.4 -100.3 23.55 -99.45 27.55 -99.45 28.1 -99.3 28.25 -99.15 28.55 -99.3 29.0 -98.45 30.4 -98.3 30.85 -96.0 35.7 -95.45 36.55 -95.0 37.1 -91.0 45.4 M-107.0 9.0 Q-113.9 3.25 -108.75 -7.0 L-108.6 -6.3 -108.6 -5.6 -107.6 0.1 -107.3 8.0 -107.0 9.0" fill="#000000" fill-rule="evenodd" stroke="none"/>
    <path d="M-106.0 10.4 L-106.6 9.85 -106.6 9.7 -106.9 9.1 -107.0 9.0 -107.3 8.0 -107.6 0.1 -108.6 -5.6 -108.6 -6.3 -108.75 -7.0 -109.0 -11.0 -109.0 -11.3 -109.15 -11.75 -109.3 -13.75 -108.15 -19.9 -108.0 -20.45 -107.15 -22.3 -106.6 -25.9 -105.9 -27.45 -105.9 -27.6 -105.75 -28.0 -105.45 -30.0 -101.75 -36.0 -101.0 -36.3 -100.75 -35.45 -99.6 -32.45 -99.0 -27.9 -98.9 -21.9 -99.15 -20.45 -99.15 -17.45 -99.3 -15.9 -98.15 -9.3 -98.3 -5.45 -98.45 -4.9 -98.3 -1.3 -98.45 3.0 -98.75 5.0 -104.45 7.25 -105.15 8.25 -106.0 9.85 -106.0 10.4" fill="#e6e6e6" fill-rule="evenodd" stroke="none"/>
    <path d="M-4.6 -55.45 L-4.6 -48.3 -5.3 -41.45 -12.15 -32.15 -16.15 -28.0 -24.9 -20.75 -25.9 -20.15 -34.75 -19.0 -44.3 -19.0 -49.3 -18.15 -56.9 -21.75 -62.0 -25.0 -69.75 -31.15 -73.45 -39.75 -72.6 -51.0 -70.45 -62.0 Q-53.3 -88.15 -21.45 -80.15 L-14.15 -74.0 -5.9 -64.9 -4.6 -55.45" fill="#939393" fill-opacity="0.36862746" fill-rule="evenodd" stroke="none"/>
  </g>
</svg>
