<?xml version="1.0" encoding="UTF-8" standalone="no"?>
<svg xmlns:ffdec="https://www.free-decompiler.com/flash" xmlns:xlink="http://www.w3.org/1999/xlink" ffdec:objectType="shape" height="244.0px" width="216.85px" xmlns="http://www.w3.org/2000/svg">
  <g transform="matrix(1.0, 0.0, 0.0, 1.0, 109.2, 121.6)">
    <path d="M-106.7 -33.7 Q-98.7 -77.85 -57.5 -105.5 -11.35 -131.7 36.0 -115.2 L36.3 -115.0 39.0 -113.7 39.3 -113.5 53.3 -106.85 53.5 -106.85 54.15 -106.5 55.65 -105.85 71.0 -94.0 71.3 -93.85 71.65 -93.5 72.0 -93.35 72.5 -92.85 72.8 -92.7 Q108.0 -59.2 107.65 -12.0 L105.65 7.8 99.3 28.5 89.0 47.5 75.65 63.3 57.5 77.5 57.15 77.65 56.5 78.3 55.8 78.65 55.65 78.65 39.15 87.0 35.0 88.65 18.3 92.65 18.3 119.0 15.8 120.3 Q0.65 124.8 -20.0 119.65 L-21.2 118.65 -21.2 92.3 Q-38.7 89.65 -57.0 78.65 L-76.0 64.0 -90.0 47.5 Q-102.35 29.3 -106.7 7.5 L-106.85 7.3 -107.0 7.0 -106.7 7.0 -105.0 4.8 -104.85 2.8 -105.5 -4.7 -105.35 -5.2 -105.85 -12.35 -106.2 -13.85 -106.35 -15.35 -105.7 -22.7 -105.5 -24.0 -105.2 -29.35 -105.0 -30.35 -105.35 -31.35 -105.2 -32.0 -105.35 -33.5 -105.35 -35.0 -106.2 -35.0 -106.2 -33.85 -106.7 -33.7" fill="#070707" fill-rule="evenodd" stroke="none"/>
    <path d="M-107.0 7.0 L-107.2 6.8 -107.2 6.65 -109.2 -14.2 -107.2 -30.35 -107.2 -30.85 -106.85 -33.0 -106.7 -33.35 -106.7 -33.7 -106.2 -33.85 -106.2 -35.0 -105.35 -35.0 -105.35 -33.5 -105.2 -32.0 -105.35 -31.35 -105.0 -30.35 -105.2 -29.35 -105.5 -24.0 -105.7 -22.7 -106.35 -15.35 -106.2 -13.85 -105.85 -12.35 -105.35 -5.2 -105.5 -4.7 -104.85 2.8 -105.0 4.8 -106.7 7.0 -107.0 7.0" fill="#e6e6e6" fill-rule="evenodd" stroke="none"/>
    <path d="M-3.5 -53.7 L-3.5 -48.5 -4.35 -41.0 -10.7 -32.5 -16.85 -26.2 -24.85 -19.7 -28.7 -18.7 -33.85 -18.2 -44.5 -18.2 -49.35 -17.35 -57.85 -21.7 -61.85 -24.35 -69.7 -30.85 -73.5 -39.85 -72.7 -47.0 -73.0 -47.35 -70.35 -61.85 Q-53.35 -87.85 -21.7 -80.7 L-15.85 -76.2 -8.85 -69.35 -4.85 -64.7 -3.5 -53.7" fill="#939393" fill-opacity="0.36862746" fill-rule="evenodd" stroke="none"/>
  </g>
</svg>
