<?xml version="1.0" encoding="UTF-8" standalone="no"?>
<svg xmlns:ffdec="https://www.free-decompiler.com/flash" xmlns:xlink="http://www.w3.org/1999/xlink" ffdec:objectType="shape" height="243.9px" width="216.85px" xmlns="http://www.w3.org/2000/svg">
  <g transform="matrix(1.0, 0.0, 0.0, 1.0, 109.2, 121.6)">
    <path d="M-108.85 -14.5 L-108.85 -14.7 -109.0 -14.85 -108.35 -19.85 -108.35 -20.35 -108.2 -21.2 -108.2 -21.85 -108.0 -22.5 -108.0 -23.35 -107.85 -23.7 -107.5 -26.2 -107.5 -26.7 -107.35 -27.2 -106.7 -34.85 -100.85 -53.85 -90.5 -73.35 -76.5 -90.2 -74.2 -92.5 -57.5 -105.5 Q-13.0 -130.2 30.0 -117.0 L36.0 -115.2 36.3 -115.0 39.0 -113.7 39.3 -113.5 43.15 -111.7 43.3 -111.7 55.8 -105.85 71.5 -93.85 75.3 -90.35 88.65 -74.7 99.65 -54.35 105.65 -35.0 107.65 -12.85 105.65 8.0 99.65 27.5 89.0 47.5 75.65 63.3 56.65 78.3 39.3 87.0 34.8 88.65 33.5 89.0 33.0 89.0 19.5 92.3 18.8 92.65 18.8 118.3 Q17.65 120.3 13.65 121.0 -8.0 124.3 -20.5 119.3 L-21.0 118.0 -21.0 92.3 Q-56.2 83.65 -76.0 64.0 L-90.0 47.5 -99.7 29.8 -106.2 9.65 -107.0 4.65 -107.0 4.3 -107.35 1.8 -107.5 1.5 -107.5 0.65 -107.7 -0.2 -107.7 -0.5 -108.35 -4.5 -107.85 -4.5 -107.7 -5.0 -108.5 -11.85 -108.5 -13.35 -108.85 -14.5" fill="#070707" fill-rule="evenodd" stroke="none"/>
    <path d="M-108.35 -4.5 L-108.35 -5.0 -109.2 -13.35 -108.85 -14.5 -108.5 -13.35 -108.5 -11.85 -107.7 -5.0 -107.85 -4.5 -108.35 -4.5" fill="#e6e6e6" fill-rule="evenodd" stroke="none"/>
    <path d="M-3.0 -54.2 L-3.0 -47.5 -3.7 -41.2 -11.85 -30.5 -16.2 -26.2 -25.5 -18.7 -31.7 -17.85 -43.0 -18.0 -48.5 -17.0 Q-56.5 -18.7 -70.0 -31.35 L-73.5 -39.35 -73.0 -46.7 -70.35 -61.5 Q-52.85 -88.2 -21.5 -80.85 L-12.5 -73.5 -4.35 -64.7 -3.0 -54.2" fill="#939393" fill-opacity="0.36862746" fill-rule="evenodd" stroke="none"/>
  </g>
</svg>
