<?xml version="1.0" encoding="UTF-8" standalone="no"?>
<svg xmlns:ffdec="https://www.free-decompiler.com/flash" xmlns:xlink="http://www.w3.org/1999/xlink" ffdec:objectType="shape" height="244.0px" width="216.4px" xmlns="http://www.w3.org/2000/svg">
  <g transform="matrix(1.0, 0.0, 0.0, 1.0, 108.6, 121.6)">
    <path d="M99.4 -55.2 L105.4 -36.0 107.8 -14.0 105.6 8.2 99.8 27.2 89.0 47.6 Q57.6 85.2 29.8 89.8 L29.2 90.0 29.0 90.0 28.4 90.2 28.2 90.2 19.2 92.4 18.8 92.6 18.6 119.2 Q16.8 120.8 10.8 121.6 L-4.4 122.4 -10.4 122.0 -19.6 119.8 -21.0 118.4 -21.0 92.4 Q-59.8 86.6 -90.0 47.6 -114.4 10.8 -106.8 -33.6 -97.8 -78.4 -59.4 -104.0 L-57.6 -105.4 -37.6 -115.0 -32.0 -116.8 -11.0 -121.0 -1.6 -121.6 12.6 -120.6 15.8 -119.8 16.4 -119.8 16.8 -119.6 17.6 -119.6 23.4 -118.4 24.4 -118.0 25.0 -118.0 26.4 -117.6 27.2 -117.6 30.0 -117.0 30.4 -116.8 35.2 -115.6 56.6 -105.4 72.6 -93.0 88.2 -75.2 99.4 -55.2" fill="#070707" fill-rule="evenodd" stroke="none"/>
    <path d="M-2.8 -54.6 L-3.4 -41.4 -10.2 -32.0 -16.0 -26.2 -25.2 -18.8 -29.8 -17.8 -44.2 -17.6 -48.8 -16.8 -49.8 -16.8 -59.6 -22.4 -69.8 -30.6 -73.4 -39.4 -72.8 -48.2 -70.2 -61.8 -60.2 -74.0 -50.4 -79.2 -40.8 -82.8 -21.2 -80.8 -11.8 -73.0 -4.2 -64.6 -2.8 -54.6" fill="#939393" fill-opacity="0.36862746" fill-rule="evenodd" stroke="none"/>
  </g>
</svg>
