<?xml version="1.0" encoding="UTF-8" standalone="no"?>
<svg xmlns:ffdec="https://www.free-decompiler.com/flash" xmlns:xlink="http://www.w3.org/1999/xlink" ffdec:objectType="shape" height="243.85px" width="216.4px" xmlns="http://www.w3.org/2000/svg">
  <g transform="matrix(1.0, 0.0, 0.0, 1.0, 108.6, 121.4)">
    <path d="M99.4 -55.2 L105.4 -36.0 107.8 -14.0 105.6 8.2 99.8 27.2 89.0 47.6 Q63.0 83.8 19.2 92.6 L19.2 118.6 Q17.8 120.8 7.6 122.0 -8.6 123.6 -20.2 119.2 L-20.6 92.4 Q-59.2 87.0 -90.0 47.6 -114.4 10.8 -106.8 -33.6 -95.2 -80.0 -65.4 -99.4 L-57.8 -105.2 -36.2 -115.6 -13.8 -120.6 -6.8 -121.4 8.0 -121.2 8.4 -121.0 9.2 -121.0 10.0 -120.8 10.2 -120.8 12.6 -120.6 15.8 -119.8 16.4 -119.6 16.6 -119.6 17.2 -119.4 17.6 -119.4 18.2 -119.2 18.6 -119.2 19.2 -119.0 19.6 -119.0 20.0 -118.8 20.6 -118.8 21.0 -118.6 21.6 -118.6 21.8 -118.4 22.2 -118.4 22.8 -118.2 Q57.4 -114.4 88.6 -74.8 L99.4 -55.2" fill="#070707" fill-rule="evenodd" stroke="none"/>
    <path d="M-3.2 -57.4 L-3.0 -49.2 -3.6 -41.4 -10.4 -32.0 -16.2 -26.2 -25.4 -18.8 -32.0 -17.8 -43.0 -18.0 -48.2 -17.0 Q-53.2 -16.8 -69.6 -30.6 L-73.4 -39.4 -72.8 -48.2 -70.2 -62.2 Q-52.2 -88.2 -21.4 -80.8 L-14.8 -75.6 -4.6 -65.0 -3.2 -57.4" fill="#939393" fill-opacity="0.36862746" fill-rule="evenodd" stroke="none"/>
  </g>
</svg>
