<?xml version="1.0" encoding="UTF-8" standalone="no"?>
<svg xmlns:ffdec="https://www.free-decompiler.com/flash" xmlns:xlink="http://www.w3.org/1999/xlink" ffdec:objectType="shape" height="243.75px" width="216.65px" xmlns="http://www.w3.org/2000/svg">
  <g transform="matrix(1.0, 0.0, 0.0, 1.0, 108.85, 121.55)">
    <path d="M74.6 -91.0 Q106.8 -59.6 107.8 -14.0 L105.6 8.2 99.8 27.2 89.0 47.6 Q63.0 84.0 19.4 92.4 L19.2 118.4 Q18.2 121.4 4.0 122.2 L-9.6 122.0 Q-16.8 121.4 -20.0 119.0 L-20.6 118.2 -20.6 92.4 Q-59.2 87.0 -90.0 47.6 -114.8 8.8 -107.0 -31.8 L-106.6 -35.2 -100.4 -55.2 -90.4 -73.6 -74.0 -92.6 Q-38.4 -123.8 4.4 -121.4 L8.0 -121.2 8.4 -121.0 8.8 -121.0 26.6 -117.8 36.6 -115.0 56.2 -105.6 74.6 -91.0" fill="#070707" fill-rule="evenodd" stroke="none"/>
    <path d="M-3.4 -51.2 L-4.2 -41.4 -10.0 -33.2 -16.2 -26.8 -25.6 -19.2 -30.6 -18.4 -43.2 -18.4 -48.6 -17.4 Q-50.2 -16.8 -58.4 -22.0 L-69.8 -31.0 -73.4 -39.4 -73.0 -46.8 -70.2 -62.2 -66.2 -67.4 -60.2 -73.6 -60.4 -74.0 -47.0 -80.6 -40.6 -82.8 -21.8 -80.6 -15.4 -75.8 -5.0 -65.0 -3.6 -56.2 -3.4 -51.2" fill="#939393" fill-opacity="0.36862746" fill-rule="evenodd" stroke="none"/>
  </g>
</svg>
