<?xml version="1.0" encoding="UTF-8" standalone="no"?>
<svg xmlns:ffdec="https://www.free-decompiler.com/flash" xmlns:xlink="http://www.w3.org/1999/xlink" ffdec:objectType="shape" height="244.0px" width="216.6px" xmlns="http://www.w3.org/2000/svg">
  <g transform="matrix(1.0, 0.0, 0.0, 1.0, 108.8, 121.6)">
    <path d="M72.6 -93.0 Q108.6 -57.0 107.8 -14.0 L105.6 8.2 99.8 27.2 89.0 47.6 Q63.0 84.0 19.4 92.4 L19.4 118.8 18.8 119.2 Q18.4 120.2 12.8 121.4 L0.0 122.4 Q-16.8 122.0 -20.0 119.0 L-20.0 92.6 Q-59.4 87.0 -90.0 47.6 L-100.0 29.2 -106.0 10.4 -106.8 7.0 -108.8 -14.0 Q-107.8 -58.8 -77.2 -89.4 L-74.2 -92.4 -58.4 -104.8 -37.6 -115.0 -32.8 -116.6 -11.0 -121.0 -0.4 -121.6 11.6 -120.8 34.0 -116.0 55.8 -105.8 72.6 -93.0" fill="#070707" fill-rule="evenodd" stroke="none"/>
    <path d="M-4.8 -65.2 Q-1.0 -53.6 -2.2 -41.4 -9.8 -28.8 -24.0 -21.0 L-28.6 -19.6 -33.8 -19.0 -43.4 -19.2 -48.4 -18.2 Q-53.2 -18.0 -69.4 -30.8 L-73.4 -39.4 -73.0 -47.2 -70.4 -62.2 -60.4 -74.2 -53.2 -78.0 -45.8 -81.0 -41.2 -82.4 -32.0 -81.8 -21.4 -80.2 -15.2 -75.4 -4.8 -65.2" fill="#939393" fill-opacity="0.36862746" fill-rule="evenodd" stroke="none"/>
  </g>
</svg>
