<?xml version="1.0" encoding="UTF-8" standalone="no"?>
<svg xmlns:ffdec="https://www.free-decompiler.com/flash" xmlns:xlink="http://www.w3.org/1999/xlink" ffdec:objectType="shape" height="244.0px" width="216.55px" xmlns="http://www.w3.org/2000/svg">
  <g transform="matrix(1.0, 0.0, 0.0, 1.0, 108.75, 121.75)">
    <path d="M75.0 -90.75 L89.25 -74.0 99.0 -56.25 105.75 -35.0 Q114.0 9.25 89.25 47.25 59.5 86.5 19.75 92.5 L19.75 118.5 18.75 119.5 11.0 121.75 -3.75 122.25 Q-19.25 121.5 -20.0 118.5 L-20.0 92.5 Q-59.75 86.25 -88.5 49.5 L-100.25 29.0 Q-109.0 8.25 -108.75 -13.75 -108.5 -58.0 -76.5 -90.25 -39.0 -122.25 -4.75 -121.5 L-0.5 -121.5 Q32.75 -124.25 70.75 -94.5 L75.0 -90.75" fill="#070707" fill-rule="evenodd" stroke="none"/>
    <path d="M-4.8 -65.2 Q-1.0 -53.6 -2.2 -41.4 -9.8 -28.8 -24.0 -21.0 L-28.6 -19.6 -33.8 -19.0 -43.4 -19.2 -48.4 -18.2 Q-53.2 -18.0 -69.4 -30.8 L-73.4 -39.4 -73.0 -47.2 -70.4 -62.2 -60.4 -74.2 -53.2 -78.0 -45.8 -81.0 -41.2 -82.4 -32.0 -81.8 -21.4 -80.2 -15.2 -75.4 -4.8 -65.2" fill="#939393" fill-opacity="0.36862746" fill-rule="evenodd" stroke="none"/>
  </g>
</svg>
