<?xml version="1.0" encoding="UTF-8" standalone="no"?>
<svg xmlns:ffdec="https://www.free-decompiler.com/flash" xmlns:xlink="http://www.w3.org/1999/xlink" ffdec:objectType="shape" height="243.65px" width="216.45px" xmlns="http://www.w3.org/2000/svg">
  <g transform="matrix(1.0, 0.0, 0.0, 1.0, 108.8, 121.4)">
    <path d="M-5.0 -121.4 Q31.0 -121.6 56.6 -105.4 95.6 -79.8 105.6 -35.2 113.8 10.6 89.0 47.6 62.8 84.0 19.8 92.4 L19.8 119.0 Q17.4 122.6 -7.4 122.2 -13.6 122.2 -19.8 118.8 L-19.8 92.6 -36.8 88.4 -58.2 78.0 -76.6 63.4 Q-107.4 33.0 -108.8 -12.8 -107.4 -60.0 -78.2 -88.2 -53.8 -115.0 -8.8 -121.2 L-5.0 -121.4" fill="#070707" fill-rule="evenodd" stroke="none"/>
    <path d="M-4.8 -65.2 Q-1.0 -53.6 -2.2 -41.4 -9.8 -28.8 -24.0 -21.0 L-28.6 -19.6 -33.8 -19.0 -43.4 -19.2 -48.4 -18.2 Q-53.2 -18.0 -69.4 -30.8 L-73.4 -39.4 -73.0 -47.2 -70.4 -62.2 -60.4 -74.2 -53.2 -78.0 -45.8 -81.0 -41.2 -82.4 -32.0 -81.8 -21.4 -80.2 -15.2 -75.4 -4.8 -65.2" fill="#939393" fill-opacity="0.36862746" fill-rule="evenodd" stroke="none"/>
  </g>
</svg>
