<?xml version="1.0" encoding="UTF-8" standalone="no"?>
<svg xmlns:ffdec="https://www.free-decompiler.com/flash" xmlns:xlink="http://www.w3.org/1999/xlink" ffdec:objectType="shape" height="243.4px" width="216.55px" xmlns="http://www.w3.org/2000/svg">
  <g transform="matrix(1.0, 0.0, 0.0, 1.0, 108.8, 121.0)">
    <path d="M-9.8 -121.0 L-9.4 -121.0 Q33.0 -121.6 56.6 -105.4 95.6 -80.4 105.8 -34.0 113.8 10.0 89.0 47.6 62.6 84.0 20.2 92.2 L20.2 118.4 19.0 119.8 13.6 121.4 4.4 122.4 -10.8 121.8 Q-16.6 121.0 -19.2 119.2 L-19.6 92.6 Q-50.4 87.0 -76.6 63.4 -107.4 33.0 -108.8 -12.8 L-106.6 -35.2 Q-102.8 -55.4 -89.6 -74.8 L-74.0 -92.6 -57.6 -105.4 -37.6 -115.0 -24.8 -118.2 -13.2 -120.6 -9.8 -121.0" fill="#070707" fill-rule="evenodd" stroke="none"/>
    <path d="M-4.8 -65.2 Q-1.0 -53.6 -2.2 -41.4 -9.8 -28.8 -24.0 -21.0 L-28.6 -19.6 -33.8 -19.0 -43.4 -19.2 -48.4 -18.2 Q-53.2 -18.0 -69.4 -30.8 L-73.4 -39.4 -73.0 -47.2 -70.4 -62.2 -60.4 -74.2 -53.2 -78.0 -45.8 -81.0 -41.2 -82.4 -32.0 -81.8 -21.4 -80.2 -15.2 -75.4 -4.8 -65.2" fill="#939393" fill-opacity="0.36862746" fill-rule="evenodd" stroke="none"/>
  </g>
</svg>
