<?xml version="1.0" encoding="UTF-8" standalone="no"?>
<svg xmlns:ffdec="https://www.free-decompiler.com/flash" xmlns:xlink="http://www.w3.org/1999/xlink" ffdec:objectType="shape" height="244.1px" width="216.4px" xmlns="http://www.w3.org/2000/svg">
  <g transform="matrix(1.0, 0.0, 0.0, 1.0, 108.8, 121.6)">
    <path d="M33.8 -116.0 L56.6 -105.4 Q95.8 -79.4 105.4 -36.0 114.0 11.0 89.0 47.6 62.6 84.0 20.2 92.2 L20.0 119.2 Q9.2 124.6 -13.8 121.2 -18.6 120.4 -19.6 118.6 L-19.6 92.8 -28.4 90.4 -28.6 90.4 -29.2 90.2 -29.4 90.2 -38.0 88.0 -57.6 78.4 -75.6 64.4 -90.0 47.6 -100.4 28.4 -106.4 9.0 -108.8 -12.8 -106.6 -35.0 Q-102.4 -56.2 -90.4 -73.6 L-77.2 -89.4 -74.2 -92.4 -57.6 -105.4 -39.4 -114.2 -31.4 -116.8 -27.6 -117.6 -27.0 -117.8 -26.0 -118.0 -25.0 -118.0 -24.6 -118.2 -24.0 -118.4 -23.0 -118.6 -22.6 -118.6 -22.4 -118.8 -21.8 -118.8 -21.2 -119.0 -20.8 -119.0 -20.6 -119.2 -19.8 -119.2 -19.6 -119.4 -18.8 -119.4 -18.2 -119.6 -17.8 -119.6 -16.8 -119.8 -16.4 -120.0 -15.4 -120.2 -1.6 -121.6 5.6 -121.4 15.0 -120.2 33.8 -116.0" fill="#070707" fill-rule="evenodd" stroke="none"/>
    <path d="M-4.8 -65.2 Q-1.0 -53.6 -2.2 -41.4 -9.8 -28.8 -24.0 -21.0 L-28.6 -19.6 -33.8 -19.0 -43.4 -19.2 -48.4 -18.2 Q-53.2 -18.0 -69.4 -30.8 L-73.4 -39.4 -73.0 -47.2 -70.4 -62.2 -60.4 -74.2 -53.2 -78.0 -45.8 -81.0 -41.2 -82.4 -32.0 -81.8 -21.4 -80.2 -15.2 -75.4 -4.8 -65.2" fill="#939393" fill-opacity="0.36862746" fill-rule="evenodd" stroke="none"/>
  </g>
</svg>
