<?xml version="1.0" encoding="UTF-8" standalone="no"?>
<svg xmlns:ffdec="https://www.free-decompiler.com/flash" xmlns:xlink="http://www.w3.org/1999/xlink" ffdec:objectType="shape" height="244.15px" width="216.4px" xmlns="http://www.w3.org/2000/svg">
  <g transform="matrix(1.0, 0.0, 0.0, 1.0, 108.8, 121.6)">
    <path d="M33.2 -116.2 L55.8 -105.8 Q96.2 -79.2 105.4 -36.0 114.0 11.0 89.0 47.6 62.4 84.0 20.4 92.2 L20.4 118.6 19.0 120.0 Q3.8 124.8 -16.2 120.6 -19.8 119.4 -19.4 118.0 L-19.4 92.8 -20.2 92.4 -22.6 91.8 -23.2 91.8 -30.8 89.8 -31.0 89.8 -31.6 89.6 -31.8 89.6 -32.8 89.4 -33.2 89.2 -39.2 87.6 -56.8 78.8 -75.6 64.4 -90.0 47.6 -100.0 29.2 -106.6 8.4 -108.8 -14.0 -106.8 -33.8 -100.4 -55.2 Q-77.8 -97.4 -52.8 -107.6 L-36.6 -115.2 -31.4 -116.8 -9.4 -121.2 -1.6 -121.6 8.0 -121.2 33.2 -116.2 M-87.6 48.6 L-87.4 48.6 -86.8 48.0 -87.4 48.4 -87.6 48.6 M-100.2 25.8 L-100.0 26.0 -100.0 25.8 -100.2 25.8 M-97.0 32.2 L-96.8 31.8 -97.4 31.8 -97.0 32.2" fill="#070707" fill-rule="evenodd" stroke="none"/>
    <path d="M-97.0 32.2 L-97.4 31.8 -96.8 31.8 -97.0 32.2 M-100.2 25.8 L-100.0 25.8 -100.0 26.0 -100.2 25.8 M-87.6 48.6 L-87.4 48.4 -86.8 48.0 -87.4 48.6 -87.6 48.6" fill="#000000" fill-rule="evenodd" stroke="none"/>
    <path d="M-4.8 -65.2 Q-1.0 -53.6 -2.2 -41.4 -9.8 -28.8 -24.0 -21.0 L-28.6 -19.6 -33.8 -19.0 -43.4 -19.2 -48.4 -18.2 Q-53.2 -18.0 -69.4 -30.8 L-73.4 -39.4 -73.0 -47.2 -70.4 -62.2 -60.4 -74.2 -53.2 -78.0 -45.8 -81.0 -41.2 -82.4 -32.0 -81.8 -21.4 -80.2 -15.2 -75.4 -4.8 -65.2" fill="#939393" fill-opacity="0.36862746" fill-rule="evenodd" stroke="none"/>
  </g>
</svg>
