<?xml version="1.0" encoding="UTF-8" standalone="no"?>
<svg xmlns:ffdec="https://www.free-decompiler.com/flash" xmlns:xlink="http://www.w3.org/1999/xlink" ffdec:objectType="shape" height="244.35px" width="216.35px" xmlns="http://www.w3.org/2000/svg">
  <g transform="matrix(1.0, 0.0, 0.0, 1.0, 108.7, 121.85)">
    <path d="M-93.0 41.8 L-93.0 41.65 -93.2 41.5 -93.5 40.8 -93.7 40.65 -94.0 40.0 -94.85 38.5 -95.0 38.15 -98.5 31.65 -98.85 31.15 -100.35 28.5 -106.7 8.0 -108.7 -11.85 -106.7 -34.85 -100.35 -55.35 -89.7 -74.7 -76.5 -90.2 -74.0 -92.5 -57.5 -105.5 -54.0 -107.0 -53.7 -107.2 -52.35 -107.85 -52.2 -107.85 -49.2 -109.35 -48.7 -109.7 -48.35 -109.7 -46.35 -110.7 -42.5 -112.5 -42.2 -112.7 -41.5 -113.0 -41.2 -113.2 -38.35 -114.5 Q-9.2 -123.7 6.5 -121.35 L11.3 -120.85 33.3 -116.2 56.5 -105.5 73.0 -92.7 89.15 -74.0 99.3 -55.35 105.65 -35.0 107.5 -11.7 107.5 -11.2 107.5 -10.2 107.3 -9.7 107.3 -8.5 107.15 -7.85 107.15 -6.85 107.0 -6.35 106.8 -5.0 Q106.65 28.8 76.3 62.5 L71.65 66.65 56.3 78.5 38.3 87.5 20.5 92.15 20.5 118.0 19.8 119.5 16.8 120.8 12.3 121.8 5.5 122.5 -8.7 122.15 Q-14.35 121.65 -18.2 119.65 L-19.35 118.65 -19.35 92.8 -36.5 88.3 -36.85 88.15 -37.0 88.15 -38.5 87.8 -51.35 81.3 -58.2 78.0 -72.85 66.15 -73.2 66.0 -73.5 65.8 -73.7 65.5 -76.0 64.0 -88.85 48.65 -89.2 48.3 -90.0 47.3 -90.0 47.15 -90.2 47.0 -90.2 46.8 -90.2 46.65 -90.5 46.3 -90.7 46.0 -90.5 45.85 -90.7 45.5 -91.0 45.5 -90.85 45.3 -91.35 44.8 -91.5 44.5 -91.5 44.3 -91.5 44.15 -91.7 44.15 -91.7 43.8 -91.85 43.8 -91.85 43.65 -92.0 43.5 -92.2 43.3 -92.0 43.15 -92.2 43.15 -92.2 42.65 -92.35 43.0 -92.85 42.0 -92.85 41.8 -93.0 41.8 M-92.35 42.5 L-92.35 42.3 -92.5 42.5 -92.35 42.5 M-92.7 42.15 L-92.5 42.15 -92.5 42.0 -92.7 42.15" fill="#070707" fill-rule="evenodd" stroke="none"/>
    <path d="M107.5 -11.7 L107.65 -11.7 107.5 -11.2 107.5 -11.7" fill="#e6e6e6" fill-rule="evenodd" stroke="none"/>
    <path d="M-90.2 46.8 L-90.5 46.3 -90.2 46.65 -90.2 46.8 M-90.7 46.0 L-90.85 45.8 -90.85 45.65 -91.0 45.5 -91.0 45.3 -91.35 44.8 -90.85 45.3 -91.0 45.5 -90.7 45.5 -90.5 45.85 -90.7 46.0 M-91.5 44.3 L-91.7 44.15 -91.85 43.8 -92.0 43.5 -91.85 43.65 -91.85 43.8 -91.7 43.8 -91.7 44.15 -91.5 44.15 -91.5 44.3 M-92.2 43.3 L-92.2 43.15 -92.35 43.0 -92.2 42.65 -92.2 43.15 -92.0 43.15 -92.2 43.3 M-92.85 42.0 L-93.0 41.8 -92.85 41.8 -92.85 42.0 M-92.35 42.5 L-92.5 42.5 -92.35 42.3 -92.35 42.5 M-92.7 42.15 L-92.5 42.0 -92.5 42.15 -92.7 42.15" fill="#000000" fill-rule="evenodd" stroke="none"/>
    <path d="M-3.0 -54.2 L-3.0 -47.5 -3.7 -41.2 -11.85 -30.5 -16.2 -26.2 -25.5 -18.7 -31.7 -17.85 -43.0 -18.0 -48.5 -17.0 Q-56.5 -18.7 -70.0 -31.35 L-73.5 -39.35 -73.0 -46.7 -70.35 -61.5 Q-52.85 -88.2 -21.5 -80.85 L-12.5 -73.5 -4.35 -64.7 -3.0 -54.2" fill="#939393" fill-opacity="0.36862746" fill-rule="evenodd" stroke="none"/>
  </g>
</svg>
