<?xml version="1.0" encoding="UTF-8" standalone="no"?>
<svg xmlns:ffdec="https://www.free-decompiler.com/flash" xmlns:xlink="http://www.w3.org/1999/xlink" ffdec:objectType="shape" height="244.0px" width="217.0px" xmlns="http://www.w3.org/2000/svg">
  <g transform="matrix(1.0, 0.0, 0.0, 1.0, 108.75, 121.6)">
    <path d="M-90.9 45.7 L-91.9 43.85 -92.0 43.55 -92.15 43.25 -92.3 43.1 -100.15 28.7 -105.75 10.7 -105.75 10.55 -106.0 10.0 -106.6 8.0 -108.45 -11.0 -108.45 -11.15 -108.6 -11.75 -108.75 -13.6 -106.6 -35.0 -100.9 -53.15 -100.9 -53.45 -100.0 -55.9 -91.45 -71.3 -91.45 -71.45 -91.3 -71.75 -89.0 -75.3 -81.9 -83.6 -81.9 -83.75 -81.3 -84.3 -81.0 -84.75 -80.6 -85.15 -80.15 -85.75 -73.9 -92.75 -57.75 -105.3 -39.15 -114.3 -31.3 -117.0 Q1.0 -126.75 34.4 -115.9 L56.25 -105.6 70.55 -94.6 76.0 -89.6 Q100.25 -62.6 105.55 -34.45 L105.0 -34.75 105.0 -32.6 104.85 -31.9 104.85 -30.15 104.7 -29.15 104.85 -28.0 105.0 -27.6 105.85 -13.75 104.55 2.85 104.7 4.85 105.55 6.25 105.55 6.4 105.7 6.85 99.1 28.85 89.0 47.4 75.1 63.85 56.4 78.4 Q37.85 89.85 20.4 92.1 L20.4 118.85 18.55 120.25 13.85 121.55 8.55 122.25 -5.15 122.4 Q-18.9 121.55 -19.15 118.0 L-19.15 92.85 -38.75 87.7 -54.6 79.85 -59.3 77.0 -59.6 76.85 -59.9 76.55 -60.0 76.4 -60.3 76.25 -60.45 76.1 -60.6 76.0 -60.9 75.85 -61.3 75.4 -61.6 75.25 -62.0 74.85 -62.3 74.7 -62.75 74.25 -63.0 74.1 -63.45 73.7 -63.75 73.55 -64.15 73.1 -64.3 73.1 -65.75 72.0 -66.15 71.55 -66.45 71.4 -66.9 71.0 -67.15 70.85 -67.45 70.55 -67.75 70.4 -68.15 70.0 -68.45 69.85 -68.9 69.4 -69.15 69.25 -69.45 69.0 -69.9 68.7 -70.3 68.25 -70.75 68.0 -71.0 67.7 -73.45 65.85 -73.75 65.55 -74.0 65.4 -76.15 63.85 -79.75 59.4 -79.9 59.25 -80.0 59.1 -80.3 58.85 -86.45 51.55 -86.75 51.1 -87.15 50.7 -89.3 48.0 -89.9 47.4 -89.75 46.4 -90.0 47.0 -90.15 46.85 -90.3 46.7 -90.3 46.55 -90.45 46.4 -90.45 46.25 -90.6 46.25 -90.6 46.0 -90.75 46.0 -90.75 45.7 -90.9 45.7 M-77.9 60.85 L-77.6 61.1 -77.75 60.85 -77.9 60.85 M-84.6 52.25 L-85.0 51.85 -84.9 52.0 -84.6 52.25" fill="#070707" fill-rule="evenodd" stroke="none"/>
    <path d="M105.55 -34.45 L106.1 -31.9 106.4 -31.6 106.25 -31.45 106.25 -31.15 106.4 -31.15 108.1 -14.3 108.1 -13.75 108.25 -13.45 106.25 6.25 105.7 6.85 105.55 6.4 105.55 6.25 104.7 4.85 104.55 2.85 105.85 -13.75 105.0 -27.6 104.85 -28.0 104.7 -29.15 104.85 -30.15 104.85 -31.9 105.0 -32.6 105.0 -34.75 105.55 -34.45" fill="#e6e6e6" fill-rule="evenodd" stroke="none"/>
    <path d="M-89.9 47.4 L-90.0 47.1 -90.15 46.85 -90.0 47.0 -89.75 46.4 -89.9 47.4 M-90.45 46.4 L-90.6 46.25 -90.75 46.0 -90.9 45.7 -90.75 45.7 -90.75 46.0 -90.6 46.0 -90.6 46.25 -90.45 46.25 -90.45 46.4 M-77.9 60.85 L-77.75 60.85 -77.6 61.1 -77.9 60.85 M-84.6 52.25 L-84.9 52.0 -85.0 51.85 -84.6 52.25" fill="#000000" fill-rule="evenodd" stroke="none"/>
    <path d="M-3.6 -54.15 L-3.6 -48.9 -4.3 -41.3 -11.45 -31.75 -16.3 -26.75 -25.3 -19.45 -34.9 -18.15 -43.15 -18.45 -48.75 -17.45 Q-56.45 -19.0 -70.0 -31.6 L-73.45 -39.3 -73.0 -46.9 -71.9 -54.9 -70.3 -62.0 -60.3 -74.15 -47.45 -80.45 -40.9 -82.75 -38.15 -82.15 -29.9 -81.9 -21.75 -80.6 -16.0 -76.3 -11.15 -71.75 -5.0 -65.0 -3.6 -54.15" fill="#939393" fill-opacity="0.36862746" fill-rule="evenodd" stroke="none"/>
  </g>
</svg>
