<?xml version="1.0" encoding="UTF-8" standalone="no"?>
<svg xmlns:ffdec="https://www.free-decompiler.com/flash" xmlns:xlink="http://www.w3.org/1999/xlink" ffdec:objectType="shape" height="244.0px" width="219.1px" xmlns="http://www.w3.org/2000/svg">
  <g transform="matrix(1.0, 0.0, 0.0, 1.0, 108.75, 121.45)">
    <path d="M-79.6 59.7 L-80.3 58.85 -80.3 58.7 -81.0 58.0 -81.15 57.7 -81.75 57.1 -81.9 57.0 -82.0 56.7 -84.15 54.25 -84.3 54.0 -84.6 53.7 -85.15 53.0 -85.45 52.7 -86.0 52.0 -86.3 51.7 -90.15 46.85 -90.3 46.7 -90.6 46.25 -99.9 29.4 -106.6 8.25 -108.75 -14.3 -106.75 -34.0 -100.3 -55.45 -90.3 -73.75 -77.0 -89.6 -73.75 -92.9 -57.6 -105.45 -36.6 -115.45 -31.3 -117.0 -13.15 -120.75 -6.3 -121.45 7.1 -121.3 11.25 -120.9 34.4 -115.9 56.25 -105.6 72.55 -93.0 75.7 -89.9 88.85 -74.45 99.25 -55.45 105.4 -35.75 106.85 -22.0 104.55 -30.3 104.55 -30.45 104.0 -32.45 103.7 -32.75 103.55 -34.0 102.1 -35.9 101.4 -35.9 101.0 -34.45 100.7 -33.75 100.55 -33.0 100.25 -32.15 99.7 -29.0 99.7 -27.75 99.55 -26.3 99.55 -21.75 99.7 -20.15 99.7 -15.75 99.85 -14.3 99.1 -9.3 99.1 3.0 99.25 5.0 99.7 5.1 103.25 6.4 103.4 6.7 104.4 7.7 104.55 8.1 105.25 9.4 105.25 9.55 105.0 10.1 98.85 29.25 98.7 29.4 98.55 29.4 98.85 29.25 98.7 29.1 98.85 28.1 99.25 27.7 99.0 25.85 99.1 25.4 99.25 24.25 99.0 25.85 98.85 26.0 98.7 26.4 98.7 26.7 98.55 26.85 98.55 27.1 98.4 27.25 98.4 27.7 98.25 28.25 98.1 28.4 98.0 29.0 97.85 29.25 90.4 44.1 90.55 44.4 89.7 45.7 89.7 45.85 89.4 46.25 89.25 46.7 89.1 46.85 89.1 47.1 88.7 47.7 88.4 48.0 75.1 63.85 56.1 78.55 38.0 87.55 20.55 92.1 20.55 118.1 19.7 119.7 16.0 121.1 5.55 122.55 -9.15 122.1 -14.75 121.1 Q-16.6 120.35 -18.45 119.55 L-19.45 118.4 -19.45 92.7 -38.3 87.85 -57.75 78.25 -75.45 64.4 -78.75 60.7 -79.45 59.85 -79.3 59.7 -79.6 59.7 M-89.75 33.25 L-89.6 33.25 -89.9 33.0 -89.75 33.25" fill="#070707" fill-rule="evenodd" stroke="none"/>
    <path d="M105.25 9.55 L105.25 9.4 104.55 8.1 104.4 7.7 103.4 6.7 103.25 6.4 99.7 5.1 99.25 5.0 99.1 3.0 99.1 -9.3 99.85 -14.3 99.7 -15.75 99.7 -20.15 99.55 -21.75 99.55 -26.3 99.7 -27.75 99.7 -29.0 100.25 -32.15 100.55 -33.0 100.7 -33.75 101.0 -34.45 101.4 -35.9 102.1 -35.9 103.55 -34.0 103.7 -32.75 104.0 -32.45 104.55 -30.45 104.55 -30.3 106.85 -22.0 108.25 -14.15 107.7 -7.75 106.0 8.0 106.25 8.1 105.25 9.55" fill="#e6e6e6" fill-rule="evenodd" stroke="none"/>
    <path d="M-79.6 59.7 L-79.3 59.7 -79.45 59.85 -79.6 59.7 M89.7 45.7 L90.55 44.4 90.4 44.1 97.85 29.25 98.0 29.0 98.1 28.4 98.25 28.25 98.4 27.7 98.4 27.25 98.55 27.1 98.55 26.85 98.7 26.7 98.7 26.4 98.85 26.0 99.0 25.85 99.25 24.25 99.1 25.4 99.0 25.85 99.25 27.7 98.85 28.1 98.7 29.1 98.85 29.25 98.55 29.4 98.7 29.4 97.85 31.1 97.85 31.25 97.55 31.4 97.55 31.55 97.25 31.85 97.25 32.0 97.1 32.1 97.0 32.25 96.85 32.55 96.85 33.0 96.7 33.25 96.7 33.4 96.25 34.1 96.1 34.25 96.1 34.4 95.55 35.0 95.55 35.4 94.85 36.55 94.7 36.7 94.1 37.85 94.0 38.0 94.0 38.1 93.85 38.25 90.7 44.25 90.55 44.4 90.1 45.25 90.0 45.55 89.7 45.7 M105.0 10.1 L105.25 9.55 106.25 8.1 106.0 8.0 107.7 -7.75 Q114.1 0.4 105.0 10.1 M-89.75 33.25 L-89.9 33.0 -89.6 33.25 -89.75 33.25" fill="#000000" fill-rule="evenodd" stroke="none"/>
    <path d="M-4.6 -55.45 L-4.6 -48.3 -5.3 -41.45 -12.15 -32.15 -16.15 -28.0 -24.9 -20.75 -25.9 -20.15 -32.75 -19.15 -44.3 -19.0 -49.3 -18.15 -56.9 -21.75 -62.0 -25.0 -69.75 -31.15 -73.45 -39.75 -72.6 -51.0 -70.45 -62.0 Q-53.3 -88.15 -21.45 -80.15 L-14.15 -74.0 -5.9 -64.9 -4.6 -55.45" fill="#939393" fill-opacity="0.36862746" fill-rule="evenodd" stroke="none"/>
  </g>
</svg>
