<?xml version="1.0" encoding="UTF-8" standalone="no"?>
<svg xmlns:ffdec="https://www.free-decompiler.com/flash" xmlns:xlink="http://www.w3.org/1999/xlink" ffdec:objectType="shape" height="244.25px" width="218.35px" xmlns="http://www.w3.org/2000/svg">
  <g transform="matrix(1.0, 0.0, 0.0, 1.0, 108.75, 121.5)">
    <path d="M79.25 59.1 L78.85 59.35 78.75 59.5 75.25 63.75 56.5 78.35 37.75 87.6 34.5 88.75 20.35 92.25 20.35 119.0 Q16.1 122.6 0.85 122.75 -16.4 122.25 -19.25 119.1 L-19.25 92.75 -36.75 88.35 -39.25 87.5 -57.0 78.6 -76.25 63.75 -80.4 58.6 -80.9 58.1 -88.4 49.25 -88.5 49.0 -89.65 47.75 -93.15 41.35 -93.4 41.1 -93.5 40.75 -93.65 40.6 -100.0 29.1 -106.65 8.0 -108.75 -13.4 -106.65 -35.0 -100.4 -55.15 -90.25 -73.75 -74.5 -92.15 -57.75 -105.25 -36.4 -115.5 -32.65 -116.65 -12.75 -120.75 -5.25 -121.5 7.75 -121.25 12.6 -120.65 33.85 -116.0 38.5 -114.15 56.6 -105.4 70.0 -95.0 75.5 -90.15 88.85 -74.4 99.25 -55.5 105.5 -35.4 107.75 -13.9 107.1 -8.15 106.75 -8.5 106.6 -13.9 105.35 -18.9 98.35 -31.5 98.1 -32.5 97.35 -33.25 97.1 -33.75 94.0 -37.25 93.1 -37.0 93.0 -36.5 91.35 -34.15 90.85 -33.25 90.1 -31.25 89.1 -24.0 88.85 -14.75 88.1 -10.65 88.0 -7.65 89.1 5.1 96.0 6.6 96.35 6.85 98.25 7.6 98.35 7.6 98.6 7.75 99.5 8.1 102.75 9.75 102.85 10.25 102.85 10.85 103.35 11.1 104.0 12.1 104.1 12.85 99.1 28.85 92.75 40.25 93.25 38.1 93.25 38.0 93.5 37.35 93.5 37.25 95.5 32.1 95.35 32.1 95.85 31.35 95.75 30.0 94.85 26.5 94.85 26.35 94.1 23.85 93.5 30.1 92.25 33.25 92.25 33.35 87.0 47.5 86.85 47.75 86.5 48.75 86.35 48.85 86.25 49.1 86.0 49.5 85.6 49.85 85.5 50.1 82.85 53.5 82.75 53.75 82.5 53.85 82.5 54.0 82.5 54.1 82.1 54.5 82.1 54.6 80.85 56.1 80.85 56.25 80.5 56.6 80.25 57.1 80.1 57.25 80.0 57.5 79.75 57.75 79.35 58.35 79.25 59.0 79.25 59.1 M-89.15 45.6 L-89.25 45.6 -89.4 45.75 -89.15 45.6" fill="#070707" fill-rule="evenodd" stroke="none"/>
    <path d="M79.25 59.1 L79.25 59.0 79.35 58.35 79.75 57.75 80.0 57.5 80.1 57.25 80.25 57.1 80.5 56.6 80.85 56.25 80.85 56.1 82.1 54.6 82.1 54.5 82.5 54.1 82.5 54.0 82.75 53.75 83.25 53.6 83.1 54.0 83.1 54.35 82.5 55.5 82.35 55.6 82.25 55.75 81.35 56.75 81.0 57.25 80.5 57.75 80.5 57.85 80.1 58.1 79.6 58.75 79.6 58.85 79.5 59.0 79.25 59.1 M104.1 12.85 L104.0 12.1 103.35 11.1 103.85 10.85 105.75 9.25 104.75 12.5 104.1 12.85 M102.85 10.25 L102.75 9.75 99.5 8.1 98.6 7.75 98.35 7.6 98.25 7.6 96.35 6.85 96.0 6.6 89.1 5.1 88.0 -7.65 88.1 -10.65 88.85 -14.75 89.1 -24.0 90.1 -31.25 90.85 -33.25 91.35 -34.15 93.0 -36.5 93.1 -37.0 94.0 -37.25 97.1 -33.75 97.35 -33.25 98.1 -32.5 98.35 -31.5 105.35 -18.9 106.6 -13.9 106.75 -8.5 106.35 -8.9 106.0 -8.75 105.25 -6.5 105.1 -4.5 Q104.5 -4.25 103.85 -0.25 L103.85 8.35 103.75 9.0 103.75 9.25 103.5 9.85 103.6 9.85 103.5 10.35 102.85 10.25 M90.5 44.35 L89.5 46.75 89.35 47.0 89.25 47.25 89.1 47.35 88.0 48.5 87.6 48.25 88.85 46.6 88.85 46.1 89.0 45.85 89.1 45.75 89.1 45.6 89.25 45.5 89.35 45.25 89.35 45.1 89.5 44.85 89.75 44.6 89.75 44.35 90.1 44.0 90.5 44.35" fill="#e6e6e6" fill-rule="evenodd" stroke="none"/>
    <path d="M82.5 54.0 L82.5 53.85 82.75 53.75 82.85 53.5 85.5 50.1 85.6 49.85 86.0 49.5 86.25 49.1 86.35 48.85 86.5 48.75 86.85 47.75 87.0 47.5 92.25 33.35 92.25 33.25 93.5 30.1 94.1 23.85 94.85 26.35 94.85 26.5 95.75 30.0 95.85 31.35 95.35 32.1 95.5 32.1 93.5 37.25 93.5 37.35 93.25 38.0 93.25 38.1 92.75 40.25 92.6 40.5 92.6 40.6 92.25 41.35 92.25 41.5 90.5 44.35 90.1 44.0 89.75 44.35 89.75 44.6 89.5 44.85 89.35 45.1 89.35 45.25 89.25 45.5 89.1 45.6 89.1 45.75 89.0 45.85 88.85 46.1 88.85 46.6 87.6 48.25 88.0 48.5 88.0 48.6 83.1 54.35 83.1 54.0 83.25 53.6 82.75 53.75 82.5 54.0 M103.35 11.1 L102.85 10.85 102.85 10.25 103.5 10.35 103.6 9.85 103.5 9.85 103.75 9.25 103.75 9.0 103.85 8.35 103.85 -0.25 Q104.5 -4.25 105.1 -4.5 L105.25 -6.5 106.0 -8.75 106.35 -8.9 106.75 -8.5 107.1 -8.15 Q112.75 2.1 105.75 9.25 L103.85 10.85 103.35 11.1 M-89.15 45.6 L-89.4 45.75 -89.25 45.6 -89.15 45.6" fill="#000000" fill-rule="evenodd" stroke="none"/>
    <path d="M-21.5 -79.5 L-15.4 -74.15 -7.4 -65.15 Q-4.9 -56.75 -7.0 -41.15 L-10.9 -35.75 -13.5 -33.0 -13.4 -32.75 -17.75 -28.25 -25.65 -21.75 -36.0 -20.25 -44.4 -20.25 -49.25 -19.4 -56.75 -22.65 -62.15 -25.9 -69.5 -31.5 -73.4 -39.9 -73.0 -48.0 -70.65 -62.15 -60.15 -74.65 -50.4 -79.25 -41.75 -82.0 -32.9 -81.65 -21.5 -79.5" fill="#939393" fill-opacity="0.36862746" fill-rule="evenodd" stroke="none"/>
  </g>
</svg>
