<?xml version="1.0" encoding="UTF-8" standalone="no"?>
<svg xmlns:ffdec="https://www.free-decompiler.com/flash" xmlns:xlink="http://www.w3.org/1999/xlink" ffdec:objectType="shape" height="244.15px" width="216.5px" xmlns="http://www.w3.org/2000/svg">
  <g transform="matrix(1.0, 0.0, 0.0, 1.0, 108.75, 121.4)">
    <path d="M-97.9 32.85 L-97.9 32.75 -98.0 32.6 -98.0 32.5 -98.15 32.35 -98.15 32.25 -98.4 31.85 -98.5 31.75 -98.65 31.5 -98.75 31.25 -98.9 31.0 -99.9 29.0 -99.9 28.85 -100.25 28.6 -106.5 8.35 -108.75 -13.9 -106.65 -35.0 -100.5 -54.75 -90.25 -73.75 -74.75 -91.9 -57.65 -105.4 -36.65 -115.4 -32.65 -116.65 -12.75 -120.75 -7.15 -121.4 5.85 -121.4 11.85 -120.75 33.85 -116.0 38.5 -114.15 56.6 -105.4 70.0 -95.0 75.5 -90.15 88.85 -74.4 99.25 -55.5 105.6 -35.0 107.75 -13.9 105.6 8.0 99.5 27.85 90.6 44.35 89.85 44.6 89.75 44.5 89.6 44.25 89.6 43.75 89.75 43.0 89.75 42.75 89.85 42.5 89.75 42.0 89.75 41.35 89.5 40.75 89.1 39.25 89.0 35.0 89.25 34.1 89.0 32.85 88.25 30.85 87.6 29.6 84.25 24.6 84.6 31.1 80.6 49.1 80.6 49.25 80.5 49.5 80.5 49.75 80.1 50.35 79.6 51.75 78.5 53.1 77.75 55.0 76.85 56.5 76.1 57.5 75.75 58.25 76.0 58.75 76.0 58.85 76.1 59.35 76.0 59.6 76.25 59.85 76.25 60.0 76.35 60.25 76.35 60.35 76.6 60.6 76.6 60.75 76.5 60.85 76.6 61.1 76.6 61.35 76.75 61.5 77.0 61.35 74.6 64.25 56.0 78.6 37.75 87.6 34.5 88.75 20.35 92.25 20.35 118.6 Q19.35 121.75 3.75 122.75 -12.5 122.85 -18.75 119.75 L-19.5 118.35 -19.5 92.6 -36.75 88.35 -39.25 87.5 Q-48.35 82.95 -57.5 78.35 L-76.25 63.75 -88.25 49.5 -90.5 46.35 -90.65 46.1 -90.75 45.85 -90.9 45.6 -91.0 45.35 -91.15 45.1 -91.15 45.0 -91.25 45.0 -91.25 44.75 -91.4 44.75 -91.4 44.5 -91.5 44.5 -91.65 44.25 -91.75 44.0 -91.9 43.85 -91.9 43.75 -92.0 43.6 -92.0 43.5 -92.15 43.35 -92.15 43.25 -92.65 42.5 -92.75 42.25 -93.4 41.1 -93.5 40.85 -94.15 39.75 -94.25 39.5 -94.9 38.35 -94.9 38.25 -95.0 38.1 -95.4 37.35 -95.5 37.1 -95.65 37.0 -95.65 36.85 -95.75 36.75 -95.9 36.5 -96.0 36.25 -96.4 35.6 -96.4 35.5 -96.4 35.35 -96.5 35.35 -96.65 35.1 -96.65 35.0 -96.9 34.6 -96.9 34.5 -97.0 34.35 -97.15 34.25 -97.15 34.1 -97.15 34.0 -97.4 33.75 -97.5 33.5 -97.5 33.35 -97.65 33.25 -97.65 33.1 -97.75 32.85 -97.9 32.85 M98.6 11.5 L101.6 12.85 102.35 13.35 102.75 13.25 102.75 12.75 104.75 8.5 104.85 6.75 105.1 5.1 105.1 4.35 105.25 4.25 105.25 4.1 105.6 1.5 105.6 1.0 105.75 0.6 105.85 0.5 105.85 -0.4 106.0 -1.25 105.85 -2.0 105.75 -2.25 105.6 -2.5 105.5 -2.75 105.35 -3.0 105.25 -3.4 105.1 -3.75 105.1 -4.65 104.6 -5.15 103.85 -6.4 103.35 -7.5 101.25 -13.25 101.0 -14.4 97.75 -20.25 85.25 -34.9 85.0 -35.0 81.0 -38.5 80.25 -38.25 79.85 -37.65 77.5 -35.15 75.6 -32.15 75.25 -30.9 75.0 -30.4 74.0 -24.75 72.25 -9.75 72.85 -3.5 74.5 5.35 74.85 5.35 75.35 5.5 75.6 5.5 83.5 6.85 83.6 6.85 84.0 7.0 84.35 7.0 84.85 7.1 85.0 7.1 87.25 7.75 87.35 7.75 88.25 8.0 88.5 8.0 89.25 8.25 89.75 8.35 89.85 8.35 92.5 9.1 92.6 9.1 92.85 9.25 93.1 9.25 93.35 9.35 93.5 9.35 93.75 9.5 94.0 9.5 94.25 9.6 94.5 9.6 94.6 9.75 94.85 9.75 95.0 9.85 95.25 9.85 95.5 10.0 95.85 10.0 96.85 10.6 97.75 11.6 98.6 11.5 M-98.0 31.6 L-97.9 31.6 -98.15 31.35 -98.4 31.5 -98.0 31.6" fill="#070707" fill-rule="evenodd" stroke="none"/>
    <path d="M77.0 61.35 L76.75 61.5 76.6 61.35 76.6 61.1 76.5 60.85 76.6 60.75 76.6 60.6 76.35 60.35 76.35 60.25 76.25 60.0 76.25 59.85 76.0 59.6 76.1 59.35 76.0 58.85 76.0 58.75 75.75 58.25 76.1 57.5 76.85 56.5 77.5 56.1 77.6 55.75 78.35 55.25 80.1 56.35 80.35 56.6 80.1 57.0 80.1 57.6 80.35 57.6 80.35 58.0 80.0 58.25 79.75 58.75 79.35 59.0 78.85 59.5 78.85 59.6 77.75 60.75 77.75 60.85 77.1 61.25 77.0 61.35 M89.5 46.35 L89.6 46.35 89.5 46.6 89.35 46.85 89.25 47.1 88.85 47.75 88.1 48.35 87.85 48.6 86.35 50.5 85.75 50.1 83.25 49.75 85.5 46.0 86.1 45.25 88.1 45.85 88.25 45.85 88.25 46.0 88.6 46.35 88.5 46.6 88.75 46.5 89.1 46.5 89.35 46.35 89.5 46.35 M80.75 57.25 L80.85 57.25 80.6 57.35 80.75 57.25 M96.85 10.6 L95.85 10.0 95.5 10.0 95.25 9.85 95.0 9.85 94.85 9.75 94.6 9.75 94.5 9.6 94.25 9.6 94.0 9.5 93.75 9.5 93.5 9.35 93.35 9.35 93.1 9.25 92.85 9.25 92.6 9.1 92.5 9.1 89.85 8.35 89.75 8.35 89.25 8.25 88.5 8.0 88.25 8.0 87.35 7.75 87.25 7.75 85.0 7.1 84.85 7.1 84.35 7.0 84.0 7.0 83.6 6.85 83.5 6.85 75.6 5.5 75.35 5.5 74.85 5.35 74.5 5.35 72.85 -3.5 72.25 -9.75 74.0 -24.75 75.0 -30.4 75.25 -30.9 75.6 -32.15 77.5 -35.15 79.85 -37.65 80.25 -38.25 81.0 -38.5 85.0 -35.0 85.25 -34.9 97.75 -20.25 101.0 -14.4 101.25 -13.25 103.35 -7.5 103.85 -6.4 104.6 -5.15 105.1 -4.65 105.1 -3.75 105.25 -3.4 105.35 -3.0 105.5 -2.75 105.6 -2.5 105.75 -2.25 105.85 -2.0 106.0 -1.25 105.85 -0.4 105.85 0.5 105.75 0.6 105.6 1.0 105.6 1.5 105.25 4.1 105.25 4.25 105.1 4.35 105.1 5.1 104.85 6.75 104.75 8.5 102.75 12.75 102.75 13.25 102.35 13.35 101.6 12.85 98.6 11.5 98.5 11.25 101.25 9.0 103.35 5.85 103.5 5.75 103.6 5.75 103.85 4.85 104.25 3.75 104.85 -0.5 104.75 -1.4 104.75 -1.75 104.0 -5.0 102.75 -7.65 102.35 -8.25 101.6 -9.15 100.1 -9.0 98.25 -6.15 98.25 -5.25 Q96.6 -2.5 96.5 -0.75 L96.35 4.6 97.6 10.1 97.85 10.75 97.35 10.6 96.85 10.6" fill="#e6e6e6" fill-rule="evenodd" stroke="none"/>
    <path d="M-97.9 32.85 L-97.75 32.85 -97.65 33.1 -97.9 32.85 M-97.4 33.75 L-97.15 34.0 -97.15 34.1 -97.4 33.75 M-96.5 35.35 L-96.4 35.35 -96.4 35.5 -96.5 35.35 M-91.5 44.5 L-91.4 44.5 -91.4 44.75 -91.25 44.75 -91.25 45.0 -91.15 45.0 -91.15 45.1 -91.25 45.0 -91.4 44.75 -91.5 44.5 M76.85 56.5 L77.75 55.0 78.5 53.1 79.6 51.75 80.1 50.35 80.5 49.75 80.5 49.5 80.6 49.25 80.6 49.1 84.6 31.1 84.25 24.6 87.6 29.6 88.25 30.85 89.0 32.85 89.25 34.1 89.0 35.0 89.1 39.25 89.5 40.75 89.75 41.35 89.75 42.0 89.85 42.5 89.75 42.75 89.75 43.0 89.6 43.75 89.6 44.25 89.75 44.5 89.85 44.6 90.6 44.35 89.5 46.35 89.35 46.35 89.1 46.5 88.75 46.5 88.5 46.6 88.6 46.35 88.25 46.0 88.25 45.85 88.1 45.85 86.1 45.25 85.5 46.0 83.25 49.75 85.75 50.1 86.35 50.5 80.75 57.25 80.6 57.35 80.35 57.6 80.1 57.6 80.1 57.0 80.35 56.6 80.1 56.35 78.35 55.25 77.6 55.75 77.5 56.1 76.85 56.5 M98.6 11.5 L97.75 11.6 96.85 10.6 97.35 10.6 97.85 10.75 97.6 10.1 96.35 4.6 96.5 -0.75 Q96.6 -2.5 98.25 -5.25 L98.25 -6.15 100.1 -9.0 101.6 -9.15 102.35 -8.25 102.75 -7.65 104.0 -5.0 104.75 -1.75 104.75 -1.4 104.85 -0.5 104.25 3.75 103.85 4.85 103.6 5.75 103.5 5.75 103.35 5.85 101.25 9.0 98.5 11.25 98.6 11.5 M-98.0 31.6 L-98.4 31.5 -98.15 31.35 -97.9 31.6 -98.0 31.6" fill="#000000" fill-rule="evenodd" stroke="none"/>
    <path d="M-11.75 -71.65 L-6.0 -65.15 -5.25 -61.75 -4.5 -50.4 -5.4 -41.15 -10.0 -34.75 -13.15 -31.5 -13.0 -31.25 -17.5 -26.75 -25.75 -20.15 -33.25 -19.15 -44.5 -19.0 -49.65 -18.15 -57.75 -22.25 -63.4 -26.0 -69.75 -31.4 -73.4 -39.4 -72.9 -48.4 -72.15 -53.9 -70.4 -61.9 -68.25 -65.0 -60.5 -74.0 -58.65 -75.25 -48.5 -80.0 -41.0 -82.5 -30.9 -81.75 -21.4 -80.15 -11.75 -71.65" fill="#939393" fill-opacity="0.36862746" fill-rule="evenodd" stroke="none"/>
  </g>
</svg>
