<?xml version="1.0" encoding="UTF-8" standalone="no"?>
<svg xmlns:ffdec="https://www.free-decompiler.com/flash" xmlns:xlink="http://www.w3.org/1999/xlink" ffdec:objectType="shape" height="244.4px" width="218.35px" xmlns="http://www.w3.org/2000/svg">
  <g transform="matrix(1.0, 0.0, 0.0, 1.0, 108.75, 121.65)">
    <path d="M77.85 60.25 L74.6 64.25 58.5 77.0 56.1 78.5 37.85 87.6 20.0 92.25 20.0 119.1 Q15.6 122.5 2.6 122.75 -17.4 122.5 -19.5 119.0 L-19.65 92.6 -36.75 88.35 -39.25 87.5 Q-48.35 82.95 -57.5 78.35 L-76.25 63.75 -89.9 47.5 -100.0 29.1 -106.65 8.0 -108.75 -13.15 -106.65 -35.0 -100.5 -54.75 -90.25 -73.75 -78.0 -88.4 -74.0 -92.65 -57.75 -105.25 -36.4 -115.5 -25.4 -118.25 Q1.5 -126.4 36.25 -115.15 L56.6 -105.4 73.0 -92.65 88.75 -74.5 98.85 -56.25 105.5 -35.4 107.75 -13.9 107.1 -7.4 107.1 -7.25 107.25 -6.9 106.85 -4.4 106.75 -3.9 106.75 -3.4 106.35 -2.75 106.1 -2.5 106.0 -2.15 105.75 -1.9 105.5 -1.75 105.5 -0.65 105.25 1.85 105.0 7.6 104.75 9.5 104.35 11.25 104.25 12.35 104.0 13.0 99.25 28.6 92.5 40.85 92.5 41.0 91.5 42.25 91.25 42.35 91.1 42.75 91.1 42.85 90.85 43.0 90.85 43.1 89.5 44.75 88.75 45.5 88.1 45.85 86.5 46.0 84.75 45.6 84.25 45.1 83.75 44.35 83.35 43.85 83.0 43.25 82.5 42.6 81.85 42.0 80.75 40.35 80.35 39.35 79.75 38.35 77.75 33.85 77.85 33.35 69.85 25.25 71.35 32.0 70.5 40.75 70.35 45.6 70.1 45.85 70.25 51.0 68.35 57.35 68.5 58.1 67.35 59.25 67.6 59.75 67.85 59.85 68.25 60.25 68.35 60.5 68.75 60.75 69.35 61.35 69.5 61.6 69.85 61.75 70.85 62.35 71.0 62.5 71.35 62.75 72.1 63.1 72.75 63.1 73.35 63.0 73.85 62.85 74.25 62.85 75.1 62.6 75.0 62.5 75.75 62.1 76.25 61.6 76.6 61.35 77.35 60.6 77.85 60.25 M89.0 11.85 L94.1 13.25 94.35 13.25 95.5 13.75 95.85 13.85 96.35 13.85 97.0 12.6 97.0 12.5 99.75 8.1 101.6 0.25 102.0 -1.9 101.6 -1.75 101.35 -2.0 100.1 -2.75 99.1 -3.5 98.0 -4.65 97.1 -5.4 94.75 -8.0 90.35 -14.9 85.85 -20.65 68.85 -35.9 63.6 -39.5 63.0 -39.4 62.25 -38.5 57.6 -34.15 56.0 -31.15 54.5 -25.25 52.35 -11.25 52.75 -5.9 55.5 5.5 56.0 5.5 56.35 5.6 56.85 5.6 57.35 5.75 57.75 5.75 58.25 5.85 58.6 5.85 59.1 6.0 59.5 6.0 60.0 6.1 60.35 6.1 60.85 6.25 61.25 6.25 61.75 6.35 62.1 6.35 62.6 6.5 63.0 6.5 63.5 6.6 63.85 6.6 64.35 6.75 64.75 6.75 65.25 6.85 65.6 6.85 66.1 7.0 66.5 7.0 67.0 7.1 67.35 7.1 67.5 7.25 68.25 7.25 68.75 7.35 68.85 7.35 69.35 7.5 73.25 8.25 73.6 8.25 73.85 8.35 74.25 8.35 74.5 8.5 74.85 8.5 75.1 8.6 75.5 8.6 76.0 8.75 77.25 9.0 77.35 9.0 77.85 9.1 78.0 9.1 78.5 9.25 79.75 9.5 79.85 9.5 80.1 9.6 80.25 9.6 80.75 9.75 81.1 9.75 81.35 9.85 81.5 9.85 82.0 10.0 82.35 10.0 82.5 10.1 82.75 10.1 83.1 10.25 83.6 10.25 83.75 10.35 84.0 10.35 84.25 10.5 84.6 10.5 86.1 11.0 86.6 11.75 87.5 12.0 89.0 11.85" fill="#070707" fill-rule="evenodd" stroke="none"/>
    <path d="M77.85 60.25 L77.35 60.6 76.6 61.35 76.25 61.6 75.75 62.1 75.0 62.5 74.5 62.6 74.25 62.85 73.85 62.85 73.35 63.0 72.75 63.1 72.1 63.1 71.35 62.75 71.0 62.5 70.85 62.35 69.85 61.75 69.5 61.6 69.35 61.35 68.75 60.75 68.35 60.5 68.25 60.25 67.85 59.85 67.6 59.75 67.35 59.25 68.5 58.1 69.0 57.75 69.35 57.0 70.0 56.75 74.35 58.35 75.75 59.6 76.35 59.6 77.75 59.25 78.1 59.1 78.1 59.0 78.35 58.75 78.75 58.5 78.75 58.35 79.1 58.35 79.35 58.25 79.75 57.85 80.35 57.1 80.75 56.75 81.0 56.75 81.85 55.85 82.1 55.75 82.35 55.1 83.0 54.5 83.0 54.85 82.6 55.1 82.5 55.5 81.75 56.1 81.85 56.25 81.6 56.5 81.35 56.6 81.25 56.85 80.85 57.1 80.85 57.35 80.6 57.5 80.6 57.6 80.35 57.75 80.5 57.85 80.1 58.1 79.85 58.35 79.75 58.6 79.1 59.0 78.6 59.5 78.5 59.75 77.85 60.25 M104.0 13.0 L104.25 12.35 104.35 11.25 104.75 9.5 105.0 7.6 105.25 1.85 105.5 -0.65 105.5 -1.75 105.75 -1.9 106.0 -2.15 106.1 -2.5 106.35 -2.75 106.75 -3.4 106.75 -3.9 106.85 -4.4 107.1 -3.9 107.1 -3.15 107.35 -2.75 106.6 5.0 106.1 6.75 105.85 8.35 106.0 8.5 105.35 10.35 105.25 10.75 104.75 11.85 104.75 12.35 104.6 13.0 104.0 13.0 M86.1 11.0 L84.6 10.5 84.25 10.5 84.0 10.35 83.75 10.35 83.6 10.25 83.1 10.25 82.75 10.1 82.5 10.1 82.35 10.0 82.0 10.0 81.5 9.85 81.35 9.85 81.1 9.75 80.75 9.75 80.25 9.6 80.1 9.6 79.85 9.5 79.75 9.5 78.5 9.25 78.0 9.1 77.85 9.1 77.35 9.0 77.25 9.0 76.0 8.75 75.5 8.6 75.1 8.6 74.85 8.5 74.5 8.5 74.25 8.35 73.85 8.35 73.6 8.25 73.25 8.25 69.35 7.5 68.85 7.35 68.75 7.35 68.25 7.25 67.5 7.25 67.35 7.1 67.0 7.1 66.5 7.0 66.1 7.0 65.6 6.85 65.25 6.85 64.75 6.75 64.35 6.75 63.85 6.6 63.5 6.6 63.0 6.5 62.6 6.5 62.1 6.35 61.75 6.35 61.25 6.25 60.85 6.25 60.35 6.1 60.0 6.1 59.5 6.0 59.1 6.0 58.6 5.85 58.25 5.85 57.75 5.75 57.35 5.75 56.85 5.6 56.35 5.6 56.0 5.5 55.5 5.5 52.75 -5.9 52.35 -11.25 54.5 -25.25 56.0 -31.15 57.6 -34.15 62.25 -38.5 63.0 -39.4 63.6 -39.5 68.85 -35.9 85.85 -20.65 90.35 -14.9 94.75 -8.0 97.1 -5.4 98.0 -4.65 99.1 -3.5 100.1 -2.75 101.35 -2.0 101.6 -1.75 102.0 -1.9 101.6 0.25 99.75 8.1 97.0 12.5 97.0 12.6 96.35 13.85 95.85 13.85 95.5 13.75 94.35 13.25 94.1 13.25 89.0 11.85 88.75 11.6 90.0 11.1 92.0 9.5 93.75 7.25 95.35 3.1 95.6 1.85 95.6 0.75 95.75 0.1 95.75 -1.15 95.0 -5.0 94.25 -6.65 93.6 -7.65 93.35 -8.25 93.1 -8.4 92.6 -8.9 91.85 -9.25 Q87.75 -11.25 84.1 -0.4 83.75 3.75 84.35 5.1 L86.75 10.5 87.35 11.0 86.1 11.0 M87.85 48.6 L84.35 51.75 83.75 52.0 83.0 52.0 82.5 51.85 82.0 51.85 75.0 51.1 77.6 47.0 78.0 46.6 81.75 47.25 81.85 47.25 81.85 47.35 82.25 47.35 83.75 47.85 84.1 47.85 84.35 48.0 85.5 48.0 85.75 47.85 86.85 47.85 87.25 47.75 87.25 47.6 87.5 47.5 87.5 47.35 87.6 47.35 88.0 47.1 88.35 46.75 88.6 46.6 90.0 45.1 90.0 45.0 90.5 44.0 90.85 43.6 91.0 43.35 91.35 43.35 91.25 43.5 89.75 46.25 89.6 46.35 89.5 46.6 89.25 46.75 89.25 47.0 89.1 47.1 89.25 47.25 89.0 47.35 88.85 47.5 88.75 47.85 88.25 48.35 88.1 48.35 87.85 48.6" fill="#e6e6e6" fill-rule="evenodd" stroke="none"/>
    <path d="M75.0 62.5 L75.1 62.6 74.25 62.85 74.5 62.6 75.0 62.5 M68.5 58.1 L68.35 57.35 70.25 51.0 70.1 45.85 70.35 45.6 70.5 40.75 71.35 32.0 69.85 25.25 77.85 33.35 77.75 33.85 79.75 38.35 80.35 39.35 80.75 40.35 81.85 42.0 82.5 42.6 83.0 43.25 83.35 43.85 83.75 44.35 84.25 45.1 84.75 45.6 86.5 46.0 88.1 45.85 88.75 45.5 89.5 44.75 90.85 43.1 90.85 43.0 91.1 42.85 91.1 42.75 91.25 42.35 91.5 42.25 92.5 41.0 91.35 43.35 91.0 43.35 90.85 43.6 90.5 44.0 90.0 45.0 90.0 45.1 88.6 46.6 88.35 46.75 88.0 47.1 87.6 47.35 87.5 47.35 87.5 47.5 87.25 47.6 87.25 47.75 86.85 47.85 85.75 47.85 85.5 48.0 84.35 48.0 84.1 47.85 83.75 47.85 82.25 47.35 81.85 47.35 81.85 47.25 81.75 47.25 78.0 46.6 77.6 47.0 75.0 51.1 82.0 51.85 82.5 51.85 83.0 52.0 83.75 52.0 84.35 51.75 87.85 48.6 83.5 54.0 83.0 54.5 82.35 55.1 82.1 55.75 81.85 55.85 81.0 56.75 80.75 56.75 80.35 57.1 79.75 57.85 79.35 58.25 79.1 58.35 78.75 58.35 78.75 58.5 78.35 58.75 78.1 59.0 78.1 59.1 77.75 59.25 76.35 59.6 75.75 59.6 74.35 58.35 70.0 56.75 69.35 57.0 69.0 57.75 68.5 58.1 M106.85 -4.4 L107.25 -6.9 107.1 -7.25 107.1 -7.4 107.35 -7.4 108.25 -5.75 108.25 -5.25 108.85 -4.65 109.35 -2.0 109.25 -1.25 109.25 -0.9 109.5 -0.75 109.6 -0.25 109.5 0.25 109.25 0.75 109.35 1.5 108.6 4.6 Q107.35 7.35 106.0 8.5 L105.85 8.35 106.1 6.75 106.6 5.0 107.35 -2.75 107.1 -3.15 107.1 -3.9 106.85 -4.4 M89.0 11.85 L87.5 12.0 86.6 11.75 86.1 11.0 87.35 11.0 86.75 10.5 84.35 5.1 Q83.75 3.75 84.1 -0.4 87.75 -11.25 91.85 -9.25 L92.6 -8.9 93.1 -8.4 93.35 -8.25 93.6 -7.65 94.25 -6.65 95.0 -5.0 95.75 -1.15 95.75 0.1 95.6 0.75 95.6 1.85 95.35 3.1 93.75 7.25 92.0 9.5 90.0 11.1 88.75 11.6 89.0 11.85" fill="#000000" fill-rule="evenodd" stroke="none"/>
    <path d="M-3.75 -56.4 L-3.65 -48.5 -4.25 -41.4 Q-12.65 -28.25 -25.65 -19.25 L-33.25 -18.25 -44.9 -18.15 -49.4 -17.4 -56.9 -21.15 -64.0 -26.0 -69.65 -30.75 -73.5 -39.9 -72.9 -48.0 -70.25 -61.9 -68.15 -65.0 -60.4 -74.0 -53.9 -77.65 -41.5 -82.5 -31.9 -82.0 -21.5 -80.65 -13.9 -74.4 -5.15 -65.15 -3.75 -56.4" fill="#939393" fill-opacity="0.36862746" fill-rule="evenodd" stroke="none"/>
  </g>
</svg>
