<?xml version="1.0" encoding="UTF-8" standalone="no"?>
<svg xmlns:ffdec="https://www.free-decompiler.com/flash" xmlns:xlink="http://www.w3.org/1999/xlink" ffdec:objectType="shape" height="244.4px" width="218.75px" xmlns="http://www.w3.org/2000/svg">
  <g transform="matrix(1.0, 0.0, 0.0, 1.0, 108.7, 121.6)">
    <path d="M82.5 54.65 Q60.8 83.5 20.15 92.3 L20.15 118.8 Q18.15 122.15 3.5 122.8 L-11.0 122.15 Q-17.85 121.0 -19.35 119.65 L-19.85 118.15 -19.85 92.65 Q-50.2 86.8 -76.0 64.0 L-90.0 47.5 -100.35 28.5 -106.35 9.15 -108.7 -13.7 -106.7 -34.7 -100.5 -54.85 -90.35 -73.7 -74.5 -92.2 -57.5 -105.5 -38.7 -114.5 -29.85 -117.35 Q1.8 -126.5 34.5 -115.85 L56.5 -105.5 73.0 -92.7 88.5 -74.85 99.15 -55.7 Q108.15 -33.0 107.15 -18.5 L107.3 -17.85 107.65 -13.85 107.65 -13.35 107.5 -12.85 107.5 -12.7 107.15 -11.7 107.15 -11.5 106.3 -9.0 106.15 -8.85 106.0 -8.5 105.5 -7.85 105.3 -5.35 105.0 -4.5 104.5 -4.0 104.5 -3.35 104.0 -3.2 103.65 -2.7 102.8 -2.5 102.8 -2.35 102.3 -2.2 102.0 -2.0 101.0 -1.7 101.15 -1.2 101.15 3.3 101.5 4.3 101.5 5.8 101.65 6.8 101.65 7.3 101.5 8.0 101.8 8.5 101.8 9.8 101.65 10.8 102.0 11.5 102.0 13.5 103.0 12.5 103.0 12.3 104.15 11.15 104.65 11.0 99.5 28.0 98.3 30.15 98.15 30.5 98.15 30.65 95.65 34.65 94.15 36.5 93.8 36.8 93.5 37.5 93.5 37.65 92.65 39.15 91.0 40.8 90.3 42.0 90.15 42.65 89.65 42.65 89.65 43.0 89.0 43.3 87.5 44.3 85.8 45.65 85.3 45.8 85.15 46.0 84.65 46.3 83.5 46.8 81.65 47.3 79.0 47.5 76.0 47.0 73.5 45.65 72.8 45.15 72.15 44.5 68.3 41.5 66.3 39.3 60.5 32.5 51.8 26.0 54.15 32.65 54.15 32.8 56.0 51.65 56.3 52.0 56.3 52.15 56.15 53.0 56.15 56.5 56.5 59.3 56.5 59.5 55.5 60.8 57.5 61.8 58.0 62.15 58.3 62.3 58.8 62.65 59.15 62.8 59.65 63.15 61.5 63.8 61.8 64.0 63.0 64.3 63.15 64.5 63.65 64.5 63.8 64.65 66.5 64.65 67.0 64.5 68.0 64.5 69.3 64.3 74.65 61.8 76.15 60.65 76.8 60.15 77.15 60.0 77.3 60.0 77.5 59.65 77.8 59.5 78.3 59.0 78.3 58.8 78.65 58.65 79.15 58.15 79.15 58.0 79.65 57.65 80.3 57.0 80.5 56.65 81.15 56.15 81.65 55.65 81.65 55.5 81.8 55.3 82.5 54.65 M74.65 12.15 L75.0 12.15 75.5 12.3 78.15 12.8 78.65 13.0 80.5 13.3 81.0 13.5 81.65 13.65 82.15 13.65 83.8 14.0 84.5 14.3 84.8 14.3 86.0 13.5 86.15 13.15 89.5 9.5 91.15 5.3 92.8 -0.85 93.0 -2.0 91.8 -2.0 Q91.5 -2.15 91.15 -2.35 L90.65 -2.5 88.15 -3.5 87.15 -4.2 84.8 -5.5 82.5 -7.35 75.5 -14.5 75.0 -15.35 70.0 -20.0 55.8 -31.35 48.65 -36.35 48.3 -36.7 48.0 -36.7 47.8 -36.85 42.3 -40.2 41.5 -39.7 41.15 -39.35 40.65 -39.0 40.5 -38.7 39.8 -38.35 39.8 -38.2 39.15 -37.85 39.0 -37.5 38.5 -37.35 38.3 -37.0 37.65 -36.7 37.15 -36.0 36.5 -35.7 35.8 -34.7 34.65 -33.5 32.65 -29.0 30.15 -16.2 30.15 -15.7 29.5 -14.0 29.0 -11.5 29.3 -11.35 29.3 -9.85 29.5 -8.5 29.5 -8.0 30.3 -3.7 32.65 3.3 33.15 5.5 33.65 5.65 34.15 5.65 34.5 5.8 35.5 5.8 36.0 6.0 36.8 6.0 37.3 6.15 42.0 6.65 42.5 6.8 43.3 6.8 43.8 7.0 45.8 7.15 46.15 7.3 47.15 7.3 47.5 7.5 48.3 7.5 48.8 7.65 50.65 7.8 54.65 8.5 55.0 8.65 55.65 8.65 56.0 8.8 56.8 8.8 58.8 9.15 59.15 9.3 59.8 9.3 60.15 9.5 60.8 9.5 61.15 9.65 61.8 9.65 62.0 9.8 62.8 9.8 63.0 10.0 63.8 10.0 64.0 10.15 65.0 10.15 67.8 10.65 68.0 10.8 68.8 10.8 70.65 11.3 71.65 12.15 73.3 12.5 74.65 12.15 M85.3 51.5 L84.8 52.15 85.0 51.65 85.3 51.5 M84.3 52.5 L84.0 53.0 84.0 52.8 84.3 52.5" fill="#070707" fill-rule="evenodd" stroke="none"/>
    <path d="M82.5 54.65 L81.8 55.3 81.65 55.5 81.65 55.65 81.15 56.15 80.5 56.65 80.3 57.0 79.65 57.65 79.15 58.0 79.15 58.15 78.65 58.65 78.3 58.8 78.3 59.0 77.8 59.5 77.5 59.65 77.3 60.0 77.15 60.0 76.8 60.15 76.15 60.65 75.65 61.0 75.15 61.15 74.65 61.5 73.8 61.8 73.0 62.3 71.8 62.8 70.65 63.5 70.0 63.8 69.3 64.3 68.8 64.15 68.0 64.3 68.0 64.5 67.0 64.5 66.5 64.65 63.8 64.65 63.65 64.5 63.15 64.5 63.0 64.3 61.8 64.0 61.5 63.8 59.65 63.15 59.15 62.8 58.8 62.65 58.3 62.3 58.0 62.15 57.5 61.8 55.5 60.8 56.5 59.5 56.5 59.3 57.0 59.0 57.15 58.65 57.5 58.5 58.15 58.3 64.65 59.8 68.3 61.15 70.0 61.15 71.15 61.0 71.5 60.8 72.15 60.65 72.3 60.5 72.8 60.65 73.15 60.3 73.65 60.15 74.15 60.15 74.5 59.8 75.5 59.65 76.0 59.15 76.65 59.3 77.5 58.3 78.15 58.0 78.8 57.3 79.3 57.0 80.3 56.65 80.65 56.15 82.5 54.15 82.65 54.15 83.0 53.65 83.5 53.3 83.5 53.0 83.8 52.65 84.0 52.8 84.5 52.15 85.0 51.65 84.8 52.15 84.3 52.5 84.0 52.8 84.0 53.0 83.8 53.15 83.65 53.3 83.3 53.8 83.3 54.0 83.0 54.15 82.5 54.65 M104.65 11.0 L104.15 11.15 103.0 12.3 103.0 12.5 102.0 13.5 102.0 11.5 101.65 10.8 101.8 9.8 101.8 8.5 101.5 8.0 101.65 7.3 101.65 6.8 101.5 5.8 101.5 4.3 101.15 3.3 101.15 -1.2 101.0 -1.7 102.0 -2.0 102.3 -2.2 102.8 -2.35 102.8 -2.5 103.65 -2.7 104.0 -3.2 104.5 -3.35 104.5 -4.0 105.0 -4.5 105.3 -5.35 105.5 -5.35 105.5 -4.5 105.3 -3.85 105.0 -1.7 105.0 -1.5 104.8 -1.35 104.8 1.15 104.65 1.8 104.5 10.3 105.65 9.65 104.65 11.0 M106.15 -8.85 L106.3 -9.0 107.15 -11.5 107.15 -11.7 107.5 -12.7 107.5 -12.85 107.65 -13.35 107.65 -13.85 107.3 -17.85 108.3 -13.35 108.15 -13.0 108.15 -12.85 107.65 -7.85 106.65 -8.7 106.5 -8.85 106.15 -8.85 M70.65 11.3 L68.8 10.8 68.0 10.8 67.8 10.65 65.0 10.15 64.0 10.15 63.8 10.0 63.0 10.0 62.8 9.8 62.0 9.8 61.8 9.65 61.15 9.65 60.8 9.5 60.15 9.5 59.8 9.3 59.15 9.3 58.8 9.15 56.8 8.8 56.0 8.8 55.65 8.65 55.0 8.65 54.65 8.5 50.65 7.8 48.8 7.65 48.3 7.5 47.5 7.5 47.15 7.3 46.15 7.3 45.8 7.15 43.8 7.0 43.3 6.8 42.5 6.8 42.0 6.65 37.3 6.15 36.8 6.0 36.0 6.0 35.5 5.8 34.5 5.8 34.15 5.65 33.65 5.65 33.15 5.5 32.65 3.3 30.3 -3.7 29.5 -8.0 29.5 -8.5 29.3 -9.85 29.3 -11.35 29.0 -11.5 29.5 -14.0 30.15 -15.7 30.15 -16.2 32.65 -29.0 34.65 -33.5 35.8 -34.7 36.5 -35.7 37.15 -36.0 37.65 -36.7 38.3 -37.0 38.5 -37.35 39.0 -37.5 39.15 -37.85 39.8 -38.2 39.8 -38.35 40.5 -38.7 40.65 -39.0 41.15 -39.35 41.5 -39.7 42.3 -40.2 47.8 -36.85 48.0 -36.7 48.3 -36.7 48.65 -36.35 55.8 -31.35 70.0 -20.0 75.0 -15.35 75.5 -14.5 82.5 -7.35 84.8 -5.5 87.15 -4.2 88.15 -3.5 90.65 -2.5 91.15 -2.35 Q91.5 -2.15 91.8 -2.0 L93.0 -2.0 92.8 -0.85 91.15 5.3 89.5 9.5 86.15 13.15 86.0 13.5 84.8 14.3 84.5 14.3 83.8 14.0 82.15 13.65 81.65 13.65 81.0 13.5 80.5 13.3 78.65 13.0 78.15 12.8 75.5 12.3 75.0 12.15 74.65 12.15 74.3 12.0 76.0 11.5 78.3 9.8 81.15 6.0 82.3 1.8 82.5 1.5 82.5 0.15 82.15 -3.2 80.65 -6.85 80.65 -7.0 79.5 -8.5 77.3 -9.5 Q70.3 -10.5 67.15 -0.2 65.8 4.15 71.15 10.8 L72.15 11.5 70.65 11.3 M84.5 47.8 L85.15 47.3 87.0 46.15 87.15 45.65 88.5 44.8 88.8 44.5 88.8 44.15 89.15 44.3 89.5 43.8 89.65 43.5 89.65 43.3 89.8 43.15 90.15 42.65 90.3 42.65 90.15 43.0 90.15 43.3 90.0 43.5 90.0 43.65 89.65 43.65 89.65 44.3 89.3 44.3 89.3 44.65 89.15 44.8 89.3 45.15 89.0 45.0 89.0 45.3 88.8 45.5 88.8 45.65 88.65 46.0 88.5 46.15 88.5 46.3 88.3 46.5 88.3 46.65 88.15 46.8 88.15 47.0 88.0 47.15 87.65 47.3 87.8 47.5 87.5 47.65 87.5 47.8 87.15 48.15 87.15 48.3 87.0 48.5 86.5 48.8 86.5 49.0 85.5 49.8 85.15 49.8 85.15 50.0 84.8 50.0 84.8 50.15 84.5 50.3 84.3 50.5 84.0 50.5 84.0 50.65 83.65 50.65 83.65 50.8 83.3 51.0 83.15 51.15 82.8 51.15 82.8 51.3 82.5 51.3 82.5 51.5 82.15 51.5 82.15 51.65 81.8 51.65 81.8 51.8 81.65 52.0 81.5 52.0 81.3 52.15 81.15 52.15 81.0 52.3 80.8 52.3 80.65 52.5 80.5 52.5 80.3 52.65 80.15 52.65 79.65 53.0 79.15 53.0 79.15 53.15 77.65 53.65 75.15 53.5 74.15 53.3 62.8 52.5 65.5 48.15 66.15 47.8 67.0 48.0 71.5 48.65 72.15 48.8 72.8 48.8 74.8 49.3 76.3 49.3 76.8 49.5 77.5 49.5 78.3 49.3 80.8 49.3 81.5 49.15 81.65 49.0 82.0 49.0 82.65 48.8 83.0 48.65 84.5 47.8" fill="#e6e6e6" fill-rule="evenodd" stroke="none"/>
    <path d="M76.15 60.65 L74.65 61.8 69.3 64.3 68.0 64.5 68.0 64.3 68.8 64.15 69.3 64.3 70.0 63.8 70.65 63.5 71.8 62.8 73.0 62.3 73.8 61.8 74.65 61.5 75.15 61.15 75.65 61.0 76.15 60.65 M56.5 59.3 L56.15 56.5 56.15 53.0 56.3 52.15 56.3 52.0 56.0 51.65 54.15 32.8 54.15 32.65 51.8 26.0 60.5 32.5 66.3 39.3 68.3 41.5 72.15 44.5 72.8 45.15 73.5 45.65 76.0 47.0 79.0 47.5 81.65 47.3 83.5 46.8 84.65 46.3 85.15 46.0 85.3 45.8 85.8 45.65 87.5 44.3 89.0 43.3 89.65 43.0 89.65 42.65 90.15 42.65 90.3 42.0 91.0 40.8 92.65 39.15 93.5 37.65 93.5 37.5 93.8 36.8 94.15 36.5 95.65 34.65 98.15 30.65 93.3 39.3 93.15 39.65 93.15 39.8 91.8 42.15 91.5 42.8 91.15 43.3 90.65 44.3 90.3 44.5 90.5 44.65 90.15 44.8 90.0 45.0 90.0 45.15 89.8 45.3 89.8 45.5 89.65 45.65 89.8 46.0 89.65 46.15 89.0 47.0 89.0 47.3 88.65 47.65 87.3 49.3 86.8 49.8 86.5 50.3 85.3 51.5 85.0 51.65 84.5 52.15 84.0 52.8 83.8 52.65 83.5 53.0 83.5 53.3 83.0 53.65 82.65 54.15 82.5 54.15 80.65 56.15 80.3 56.65 79.3 57.0 78.8 57.3 78.15 58.0 77.5 58.3 76.65 59.3 76.0 59.15 75.5 59.65 74.5 59.8 74.15 60.15 73.65 60.15 73.15 60.3 72.8 60.65 72.3 60.5 72.15 60.65 71.5 60.8 71.15 61.0 70.0 61.15 68.3 61.15 64.65 59.8 58.15 58.3 57.5 58.5 57.15 58.65 57.0 59.0 56.5 59.3 M105.3 -5.35 L105.5 -7.85 106.0 -8.5 106.15 -8.85 106.5 -8.85 106.65 -8.7 107.65 -7.85 Q113.3 1.65 105.65 9.65 L104.5 10.3 104.65 1.8 104.8 1.15 104.8 -1.35 105.0 -1.5 105.0 -1.7 105.3 -3.85 105.5 -4.5 105.5 -5.35 105.3 -5.35 M74.65 12.15 L73.3 12.5 71.65 12.15 70.65 11.3 72.15 11.5 71.15 10.8 Q65.8 4.15 67.15 -0.2 70.3 -10.5 77.3 -9.5 L79.5 -8.5 80.65 -7.0 80.65 -6.85 82.15 -3.2 82.5 0.15 82.5 1.5 82.3 1.8 81.15 6.0 78.3 9.8 76.0 11.5 74.3 12.0 74.65 12.15 M84.5 47.8 L83.0 48.65 82.65 48.8 82.0 49.0 81.65 49.0 81.5 49.15 80.8 49.3 78.3 49.3 77.5 49.5 76.8 49.5 76.3 49.3 74.8 49.3 72.8 48.8 72.15 48.8 71.5 48.65 67.0 48.0 66.15 47.8 65.5 48.15 62.8 52.5 74.15 53.3 75.15 53.5 77.65 53.65 79.15 53.15 79.15 53.0 79.65 53.0 80.15 52.65 80.3 52.65 80.5 52.5 80.65 52.5 80.8 52.3 81.0 52.3 81.15 52.15 81.3 52.15 81.5 52.0 81.65 52.0 81.8 51.8 81.8 51.65 82.15 51.65 82.15 51.5 82.5 51.5 82.5 51.3 82.8 51.3 82.8 51.15 83.15 51.15 83.3 51.0 83.65 50.8 83.65 50.65 84.0 50.65 84.0 50.5 84.3 50.5 84.5 50.3 84.8 50.15 84.8 50.0 85.15 50.0 85.15 49.8 85.5 49.8 86.5 49.0 86.5 48.8 87.0 48.5 87.15 48.3 87.15 48.15 87.5 47.8 87.5 47.65 87.8 47.5 87.65 47.3 88.0 47.15 88.15 47.0 88.15 46.8 88.3 46.65 88.3 46.5 88.5 46.3 88.5 46.15 88.65 46.0 88.8 45.65 88.8 45.5 89.0 45.3 89.0 45.0 89.3 45.15 89.15 44.8 89.3 44.65 89.3 44.3 89.65 44.3 89.65 43.65 90.0 43.65 90.0 43.5 90.15 43.3 90.15 43.0 90.3 42.65 90.15 42.65 89.8 43.15 89.65 43.3 89.65 43.5 89.5 43.8 89.15 44.3 88.8 44.15 88.8 44.5 88.5 44.8 87.15 45.65 87.0 46.15 85.15 47.3 84.5 47.8" fill="#000000" fill-rule="evenodd" stroke="none"/>
    <path d="M-3.0 -54.2 L-3.0 -47.5 -3.7 -41.2 -11.85 -30.5 -16.2 -26.2 -25.5 -18.7 -31.7 -17.85 -43.0 -18.0 -48.5 -17.0 Q-56.5 -18.7 -70.0 -31.35 L-73.5 -39.35 -73.0 -46.7 -70.35 -61.5 Q-52.85 -88.2 -21.5 -80.85 L-12.5 -73.5 -4.35 -64.7 -3.0 -54.2" fill="#939393" fill-opacity="0.36862746" fill-rule="evenodd" stroke="none"/>
  </g>
</svg>
