<?xml version="1.0" encoding="UTF-8" standalone="no"?>
<svg xmlns:ffdec="https://www.free-decompiler.com/flash" xmlns:xlink="http://www.w3.org/1999/xlink" ffdec:objectType="shape" height="244.4px" width="216.45px" xmlns="http://www.w3.org/2000/svg">
  <g transform="matrix(1.0, 0.0, 0.0, 1.0, 108.25, 121.6)">
    <path d="M105.6 7.8 L99.4 28.4 88.8 47.8 74.6 64.4 56.2 78.6 37.4 87.8 19.8 92.4 19.6 119.4 Q18.6 121.4 5.6 122.8 L-8.0 122.6 Q-16.0 122.0 -19.4 119.6 L-20.0 119.0 -20.0 92.6 Q-71.8 83.4 -100.4 28.4 -111.8 1.6 -106.6 -35.2 L-100.4 -55.2 Q-91.6 -75.8 -77.2 -89.4 L-74.2 -92.4 -58.4 -104.8 -35.6 -115.8 Q-1.4 -127.0 31.8 -116.6 58.6 -108.0 75.6 -90.0 103.2 -59.2 106.0 -30.8 L106.2 -28.8 106.0 -24.6 105.8 -23.2 105.8 -22.0 105.6 -20.0 105.6 -19.2 105.2 -15.6 104.8 -14.0 102.8 -10.4 102.0 -9.6 101.6 -9.2 101.2 -9.0 99.4 -5.4 98.8 -4.6 98.2 -4.0 97.6 -3.6 97.2 -3.4 96.6 -3.2 96.2 -3.0 96.0 -2.8 95.4 -2.8 95.0 -2.6 94.4 -2.2 93.8 -2.2 93.4 -2.0 92.6 -2.0 92.2 -1.8 92.2 -0.6 92.4 0.8 92.4 2.2 92.6 3.4 92.6 4.8 92.8 6.0 93.2 7.2 93.6 9.2 94.0 10.2 94.2 11.2 94.8 12.8 94.8 13.4 95.0 13.8 95.8 14.0 97.0 13.2 103.4 10.0 105.6 7.8 M56.2 12.6 L57.4 12.6 57.8 12.8 62.0 13.4 62.4 13.6 67.6 14.4 68.0 14.6 68.6 14.6 69.0 14.8 70.0 14.8 70.8 13.8 75.4 9.0 75.6 8.4 76.4 7.2 77.0 6.0 79.0 -0.8 79.6 -2.0 78.0 -2.0 75.8 -2.6 73.6 -3.4 72.2 -3.4 68.0 -5.6 63.6 -8.6 55.6 -15.2 55.2 -15.6 49.2 -20.6 25.2 -37.0 24.8 -37.0 19.0 -40.6 17.6 -40.0 17.2 -39.6 16.8 -39.4 16.4 -38.8 16.0 -38.8 15.0 -37.8 14.6 -37.8 14.2 -37.4 13.8 -37.2 13.4 -36.8 12.8 -36.4 11.4 -35.0 11.2 -35.0 10.6 -34.0 10.4 -33.8 9.4 -32.4 9.2 -31.8 8.8 -31.0 8.8 -30.8 8.0 -29.2 8.0 -29.0 5.4 -19.2 5.4 -19.0 4.8 -16.0 4.8 -15.8 4.0 -11.4 4.0 -10.2 4.2 -9.2 4.2 -9.0 4.4 -8.0 4.4 -7.8 4.8 -6.2 4.8 -6.0 8.2 3.4 8.2 3.6 9.0 5.6 15.4 6.4 15.8 6.6 17.0 6.6 17.4 6.8 25.0 7.6 25.4 7.8 26.4 7.8 26.8 8.0 27.8 8.0 28.2 8.2 29.2 8.2 34.6 9.0 35.2 9.2 38.8 9.6 39.0 9.8 40.2 9.8 49.4 11.2 49.8 11.4 51.2 11.6 54.4 12.8 56.2 12.6 M79.6 55.4 L80.2 54.6 82.4 52.8 83.0 52.2 83.6 51.8 86.4 48.8 87.0 47.8 86.8 47.6 87.2 47.4 87.2 47.2 87.4 47.0 88.4 45.2 89.4 43.8 90.0 42.6 90.2 42.4 90.4 42.0 91.4 40.4 93.8 35.6 94.6 35.4 97.8 29.4 98.8 26.0 97.2 29.4 97.0 30.0 88.4 39.4 83.4 44.0 82.4 44.4 81.2 45.2 78.0 46.8 74.4 48.0 71.4 48.6 67.6 48.8 65.6 48.6 61.4 47.6 59.6 46.6 57.4 45.6 56.2 44.8 55.0 44.2 52.2 42.4 39.0 31.8 30.4 26.2 33.8 33.4 39.2 53.2 39.6 54.0 39.6 54.2 39.8 56.8 41.6 60.4 40.8 62.0 44.4 63.4 44.8 63.6 45.4 63.8 46.0 64.2 46.8 64.4 47.8 64.8 51.8 65.8 52.2 66.0 53.4 66.0 54.4 66.2 56.2 66.2 57.0 66.0 58.2 66.0 60.2 66.0 69.8 62.8 71.3 61.65 71.4 61.6 71.6 61.4 72.0 61.4 72.8 60.6 73.4 60.4 74.6 59.4 74.8 59.4 74.8 59.2 75.4 58.8 75.6 58.8 76.4 58.2 77.6 57.0 77.8 57.0 79.6 55.4" fill="#070707" fill-rule="evenodd" stroke="none"/>
    <path d="M105.6 7.8 L103.4 10.0 97.0 13.2 95.8 14.0 95.0 13.8 94.8 13.4 94.8 12.8 94.2 11.2 94.0 10.2 93.6 9.2 93.2 7.2 92.8 6.0 92.6 4.8 92.6 3.4 92.4 2.2 92.4 0.8 92.2 -0.6 92.2 -1.8 92.6 -2.0 93.4 -2.0 93.8 -2.2 94.4 -2.2 95.0 -2.6 95.4 -2.8 96.0 -2.8 96.2 -3.0 96.6 -3.2 97.2 -3.4 97.6 -3.6 98.2 -4.0 98.8 -4.6 99.4 -5.4 100.0 -5.8 98.4 1.6 99.0 7.6 99.6 10.4 100.2 10.8 101.4 10.6 103.8 8.0 105.8 4.0 106.4 1.8 105.8 -4.4 103.6 -8.6 102.2 -9.2 102.0 -9.6 102.8 -10.4 104.8 -14.0 105.2 -15.6 105.6 -19.2 105.6 -20.0 105.8 -22.0 105.8 -23.2 106.0 -24.6 106.2 -28.8 106.0 -30.8 106.2 -30.8 106.8 -28.8 108.0 -15.4 108.0 -15.0 108.2 -14.2 107.8 -9.8 107.8 -8.2 107.6 -7.8 107.6 -6.2 107.4 -5.8 107.4 -4.4 107.2 -3.8 107.2 -2.4 107.0 -1.8 107.0 -0.6 106.8 0.2 106.8 1.4 106.6 2.2 106.6 3.2 106.4 4.2 106.4 5.2 106.0 6.2 106.0 7.0 105.6 7.8 M51.2 11.6 L49.8 11.4 49.4 11.2 40.2 9.8 39.0 9.8 38.8 9.6 35.2 9.2 34.6 9.0 29.2 8.2 28.2 8.2 27.8 8.0 26.8 8.0 26.4 7.8 25.4 7.8 25.0 7.6 17.4 6.8 17.0 6.6 15.8 6.6 15.4 6.4 9.0 5.6 8.2 3.6 8.2 3.4 4.8 -6.0 4.8 -6.2 4.4 -7.8 4.4 -8.0 4.2 -9.0 4.2 -9.2 4.0 -10.2 4.0 -11.4 4.8 -15.8 4.8 -16.0 5.4 -19.0 5.4 -19.2 8.0 -29.0 8.0 -29.2 8.8 -30.8 8.8 -31.0 9.2 -31.8 9.4 -32.4 10.4 -33.8 10.6 -34.0 11.2 -35.0 11.4 -35.0 12.8 -36.4 13.4 -36.8 13.8 -37.2 14.2 -37.4 14.6 -37.8 15.0 -37.8 16.0 -38.8 16.4 -38.8 16.8 -39.4 17.2 -39.6 17.6 -40.0 19.0 -40.6 24.8 -37.0 25.2 -37.0 49.2 -20.6 55.2 -15.6 55.6 -15.2 63.6 -8.6 68.0 -5.6 72.2 -3.4 73.6 -3.4 75.8 -2.6 78.0 -2.0 79.6 -2.0 79.0 -0.8 77.0 6.0 76.4 7.2 75.6 8.4 75.4 9.0 70.8 13.8 70.0 14.8 69.0 14.8 68.6 14.6 68.0 14.6 67.6 14.4 62.4 13.6 62.0 13.4 57.8 12.8 57.4 12.6 56.2 12.6 55.4 12.2 Q57.2 12.4 60.6 10.0 L64.2 5.4 65.2 1.2 65.2 0.0 65.0 -0.4 64.6 -3.8 62.8 -7.0 61.2 -8.6 61.0 -8.6 59.8 -9.2 59.8 -9.4 58.4 -9.8 Q55.4 -11.0 51.4 -8.2 L47.0 -2.8 Q45.4 -0.8 46.8 5.0 L51.2 11.0 52.8 11.6 51.2 11.6 M79.6 55.4 L77.8 57.0 77.6 57.0 76.4 58.2 75.6 58.8 75.4 58.8 74.8 59.2 74.8 59.4 74.6 59.4 73.4 60.4 72.8 60.6 72.0 61.4 71.6 61.4 71.4 61.6 71.3 61.65 70.8 61.8 70.0 62.2 67.8 63.0 67.4 63.2 60.4 65.6 59.2 65.8 58.2 65.8 58.2 66.0 57.0 66.0 56.2 66.2 54.4 66.2 53.4 66.0 52.2 66.0 51.8 65.8 47.8 64.8 46.8 64.4 46.0 64.2 45.4 63.8 44.8 63.6 44.4 63.4 40.8 62.0 41.6 60.4 42.2 60.2 42.4 59.6 43.2 59.2 57.4 62.6 61.0 62.6 63.4 62.0 64.0 62.2 64.8 61.8 65.8 61.6 67.6 61.0 68.6 60.8 70.6 60.0 72.0 59.2 72.2 59.0 73.4 59.0 73.8 58.4 74.2 58.2 74.6 57.8 79.0 54.8 79.6 54.2 81.0 53.2 80.2 54.4 79.8 54.8 79.6 55.2 79.6 55.4 M80.2 47.4 L81.0 46.8 81.8 46.4 82.4 46.0 82.8 46.2 83.2 45.6 83.8 45.4 84.0 45.0 84.6 44.6 84.8 44.2 85.2 44.0 84.6 45.8 84.2 46.4 84.0 46.6 83.2 48.8 82.6 49.0 82.0 49.6 81.6 49.8 81.4 50.2 80.8 50.4 79.8 51.0 79.2 51.2 79.0 51.2 78.8 51.4 78.4 51.4 78.4 51.6 77.8 51.6 77.8 51.8 77.4 51.8 77.4 52.0 75.8 52.6 75.4 52.6 75.4 52.8 75.0 52.8 75.0 53.0 74.4 53.0 74.4 53.2 74.2 53.2 73.4 53.6 70.8 54.4 70.4 54.6 69.6 54.8 67.8 55.0 47.6 53.6 49.6 49.8 50.0 49.2 50.4 49.0 51.8 49.0 58.6 50.0 59.2 50.0 62.2 50.6 64.2 50.6 64.8 50.8 66.2 50.8 67.0 51.0 67.8 51.0 68.4 50.8 69.6 50.8 70.2 50.6 71.6 50.6 72.4 50.4 73.2 50.4 74.8 49.8 80.2 47.4" fill="#e6e6e6" fill-rule="evenodd" stroke="none"/>
    <path d="M99.4 -5.4 L101.2 -9.0 101.6 -9.2 102.0 -9.6 102.2 -9.2 103.6 -8.6 105.8 -4.4 106.4 1.8 105.8 4.0 103.8 8.0 101.4 10.6 100.2 10.8 99.6 10.4 99.0 7.6 98.4 1.6 100.0 -5.8 99.4 -5.4 M56.2 12.6 L54.4 12.8 51.2 11.6 52.8 11.6 51.2 11.0 46.8 5.0 Q45.4 -0.8 47.0 -2.8 L51.4 -8.2 Q55.4 -11.0 58.4 -9.8 L59.8 -9.4 59.8 -9.2 61.0 -8.6 61.2 -8.6 62.8 -7.0 64.6 -3.8 65.0 -0.4 65.2 0.0 65.2 1.2 64.2 5.4 60.6 10.0 Q57.2 12.4 55.4 12.2 L56.2 12.6 M41.6 60.4 L39.8 56.8 39.6 54.2 39.6 54.0 39.2 53.2 33.8 33.4 30.4 26.2 39.0 31.8 52.2 42.4 55.0 44.2 56.2 44.8 57.4 45.6 59.6 46.6 61.4 47.6 65.6 48.6 67.6 48.8 71.4 48.6 74.4 48.0 78.0 46.8 81.2 45.2 82.4 44.4 83.4 44.0 88.4 39.4 97.0 30.0 97.2 29.4 98.8 26.0 97.8 29.4 94.6 35.4 93.8 35.6 91.4 40.4 90.4 42.0 90.2 42.4 90.0 42.6 89.4 43.8 88.4 45.2 87.4 47.0 87.2 47.2 87.2 47.4 86.8 47.6 87.0 47.8 86.4 48.8 83.6 51.8 83.0 52.2 82.4 52.8 80.2 54.6 79.6 55.4 79.6 55.2 79.8 54.8 80.2 54.4 81.0 53.2 79.6 54.2 79.0 54.8 74.6 57.8 74.2 58.2 73.8 58.4 73.4 59.0 72.2 59.0 72.0 59.2 70.6 60.0 68.6 60.8 67.6 61.0 65.8 61.6 64.8 61.8 64.0 62.2 63.4 62.0 61.0 62.6 57.4 62.6 43.2 59.2 42.4 59.6 42.2 60.2 41.6 60.4 M71.3 61.65 L69.8 62.8 60.2 66.0 58.2 66.0 58.2 65.8 59.2 65.8 60.4 65.6 67.4 63.2 67.8 63.0 70.0 62.2 70.8 61.8 71.3 61.65 M80.2 47.4 L74.8 49.8 73.2 50.4 72.4 50.4 71.6 50.6 70.2 50.6 69.6 50.8 68.4 50.8 67.8 51.0 67.0 51.0 66.2 50.8 64.8 50.8 64.2 50.6 62.2 50.6 59.2 50.0 58.6 50.0 51.8 49.0 50.4 49.0 50.0 49.2 49.6 49.8 47.6 53.6 67.8 55.0 69.6 54.8 70.4 54.6 70.8 54.4 73.4 53.6 74.2 53.2 74.4 53.2 74.4 53.0 75.0 53.0 75.0 52.8 75.4 52.8 75.4 52.6 75.8 52.6 77.4 52.0 77.4 51.8 77.8 51.8 77.8 51.6 78.4 51.6 78.4 51.4 78.8 51.4 79.0 51.2 79.2 51.2 79.8 51.0 80.8 50.4 81.4 50.2 81.6 49.8 82.0 49.6 82.6 49.0 83.2 48.8 84.0 46.6 84.2 46.4 84.6 45.8 85.2 44.0 84.8 44.2 84.6 44.6 84.0 45.0 83.8 45.4 83.2 45.6 82.8 46.2 82.4 46.0 81.8 46.4 81.0 46.8 80.2 47.4" fill="#000000" fill-rule="evenodd" stroke="none"/>
    <path d="M-2.8 -54.6 L-3.4 -41.4 -10.2 -32.0 -16.0 -26.2 -25.2 -18.8 -29.8 -17.8 -44.2 -17.6 -48.8 -16.8 -49.8 -16.8 -59.6 -22.4 -69.8 -30.6 -73.4 -39.4 -72.8 -48.2 -70.2 -61.8 -60.2 -74.0 -50.4 -79.2 -40.8 -82.8 -21.2 -80.8 -11.8 -73.0 -4.2 -64.6 -2.8 -54.6" fill="#939393" fill-opacity="0.36862746" fill-rule="evenodd" stroke="none"/>
  </g>
</svg>
