<?xml version="1.0" encoding="UTF-8" standalone="no"?>
<svg xmlns:ffdec="https://www.free-decompiler.com/flash" xmlns:xlink="http://www.w3.org/1999/xlink" ffdec:objectType="shape" height="244.4px" width="216.45px" xmlns="http://www.w3.org/2000/svg">
  <g transform="matrix(1.0, 0.0, 0.0, 1.0, 108.25, 121.6)">
    <path d="M105.8 5.2 L104.8 10.8 99.0 29.2 89.0 47.6 75.8 63.2 56.2 78.6 37.4 87.8 19.8 92.4 19.8 119.0 Q16.2 122.2 4.6 122.8 -15.6 123.0 -19.8 119.6 L-20.0 92.6 Q-71.8 83.4 -100.4 28.4 -111.8 1.6 -106.6 -35.2 L-100.4 -55.2 Q-91.6 -75.8 -77.2 -89.4 L-74.2 -92.4 -58.4 -104.8 -35.0 -116.0 Q-2.8 -127.2 34.0 -116.0 L56.6 -105.4 71.6 -93.8 79.6 -85.4 Q103.6 -57.4 105.8 -30.4 L105.0 -34.8 104.4 -35.0 104.4 -34.2 104.2 -33.4 104.2 -32.8 104.0 -32.0 104.0 -31.4 103.8 -30.0 103.8 -29.8 103.6 -29.2 102.8 -27.4 102.6 -26.8 102.4 -26.4 102.2 -25.8 102.0 -25.4 101.8 -24.8 101.4 -24.2 101.4 -24.0 101.2 -23.4 101.0 -23.0 100.8 -22.4 100.6 -22.0 100.4 -21.4 100.0 -20.6 99.8 -20.0 99.6 -19.6 99.4 -19.0 98.2 -16.2 98.2 -16.0 96.2 -13.2 95.4 -12.4 94.6 -11.0 94.2 -10.8 93.0 -9.8 92.2 -9.6 91.8 -9.4 89.2 -7.0 88.6 -5.6 88.6 -5.4 88.2 -4.8 87.8 -4.8 87.2 -4.2 86.8 -4.2 86.4 -4.0 84.4 -3.2 84.2 -3.2 83.6 -3.0 83.4 -3.0 82.2 -2.8 81.4 -2.4 81.0 -2.4 80.6 -2.2 80.2 -2.2 79.8 -2.0 79.0 -2.0 78.2 -1.8 78.4 -1.2 78.4 -0.6 78.6 0.2 78.6 0.8 78.8 1.4 78.8 2.2 79.0 2.8 79.0 3.6 79.2 4.4 79.2 4.8 79.4 5.2 79.4 5.4 79.6 6.0 79.6 6.2 81.0 9.6 81.8 11.0 82.0 11.6 82.4 12.0 83.2 13.6 83.2 13.8 83.6 14.4 86.2 13.8 96.8 10.4 103.4 7.2 105.8 5.2 M106.0 -30.0 L106.2 -29.2 106.0 -29.4 106.0 -30.0 M34.2 12.8 L34.4 12.8 50.0 15.2 56.4 9.4 57.0 8.6 59.0 4.8 59.8 2.0 60.4 0.6 60.8 -0.8 61.4 -2.0 59.6 -2.0 59.2 -2.2 58.6 -2.2 56.6 -2.8 52.2 -3.6 50.6 -4.4 48.8 -5.0 43.4 -7.8 32.6 -15.4 32.2 -15.8 25.4 -20.8 -6.6 -40.8 -9.0 -38.8 -10.2 -38.0 -10.6 -37.8 -11.4 -37.0 -12.8 -36.0 -14.8 -33.8 -16.0 -31.6 -16.4 -31.0 -16.8 -30.2 -16.8 -30.0 -17.2 -29.2 -17.2 -29.0 -17.4 -28.8 -17.4 -28.4 -17.6 -28.2 -17.8 -27.6 -17.8 -27.4 -18.0 -27.0 -18.0 -26.4 -18.2 -26.2 -18.2 -25.8 -18.4 -25.6 -18.6 -25.0 -18.6 -24.4 -18.8 -24.2 -18.8 -23.8 -19.0 -23.6 -19.0 -23.0 -19.2 -22.4 -19.4 -22.0 -19.4 -21.4 -19.6 -21.2 -19.6 -20.8 -19.8 -20.4 -19.8 -20.0 -20.0 -19.8 -20.0 -19.2 -20.2 -18.4 -20.4 -18.2 -20.8 -15.6 -21.0 -15.2 -21.2 -14.2 -21.2 -13.8 -21.4 -13.0 -21.4 -10.6 -20.8 -7.2 -20.8 -7.0 -20.6 -6.6 -20.0 -4.6 -20.0 -4.2 -19.2 -2.4 -19.2 -2.2 -18.4 -0.4 -18.4 -0.2 -18.2 0.2 -17.6 1.8 -17.4 2.2 -17.0 3.4 -16.8 3.8 -16.2 5.6 -15.6 5.8 2.6 8.0 3.0 8.2 28.6 11.8 Q29.0 12.6 32.4 13.0 L34.2 12.8 M72.2 57.2 L73.4 56.0 74.0 55.6 74.4 55.2 79.8 50.6 93.4 30.2 94.2 27.6 96.2 24.0 89.0 32.8 79.8 40.4 71.6 45.8 69.0 47.0 61.4 49.2 57.2 49.8 52.6 49.8 47.6 49.2 42.2 47.6 32.8 43.0 22.4 35.8 7.0 26.4 10.2 31.6 12.8 37.2 17.0 48.2 19.6 53.2 20.0 53.8 20.2 54.6 21.4 57.4 23.4 60.6 24.4 61.2 23.4 62.6 26.6 63.6 27.0 63.8 28.8 64.4 29.6 64.8 34.2 66.2 39.4 67.2 40.6 67.2 42.2 67.4 43.0 67.4 44.0 67.2 46.2 67.2 48.2 67.4 61.8 63.8 68.6 59.8 68.8 59.6 68.8 59.4 69.2 59.4 69.4 59.2 69.6 58.8 70.0 58.8 70.4 58.4 70.6 58.4 71.0 58.0 71.4 57.8 71.6 57.6 72.2 57.2" fill="#070707" fill-rule="evenodd" stroke="none"/>
    <path d="M105.8 5.2 L103.4 7.2 96.8 10.4 86.2 13.8 83.6 14.4 83.2 13.8 83.2 13.6 82.4 12.0 82.0 11.6 81.8 11.0 81.0 9.6 79.6 6.2 79.6 6.0 79.4 5.4 79.4 5.2 79.2 4.8 79.2 4.4 79.0 3.6 79.0 2.8 78.8 2.2 78.8 1.4 78.6 0.8 78.6 0.2 78.4 -0.6 78.4 -1.2 78.2 -1.8 79.0 -2.0 79.8 -2.0 80.2 -2.2 80.6 -2.2 81.0 -2.4 81.4 -2.4 82.2 -2.8 83.4 -3.0 83.6 -3.0 84.2 -3.2 84.4 -3.2 86.4 -4.0 86.8 -4.2 87.2 -4.2 87.8 -4.8 88.2 -4.8 88.6 -5.4 88.6 -5.6 89.2 -5.2 87.8 -0.4 87.6 1.6 88.6 7.8 Q90.0 11.6 91.4 11.2 L92.4 11.2 94.6 9.6 96.0 7.8 96.2 7.8 Q98.2 5.0 98.6 1.0 L98.0 -4.6 94.8 -9.2 93.4 -9.2 93.0 -9.4 93.0 -9.8 94.2 -10.8 94.6 -11.0 95.4 -12.4 96.2 -13.2 98.2 -16.0 98.2 -16.2 99.4 -19.0 99.6 -19.6 99.8 -20.0 100.0 -20.6 100.4 -21.4 100.6 -22.0 100.8 -22.4 101.0 -23.0 101.2 -23.4 101.4 -24.0 101.4 -24.2 101.8 -24.8 102.0 -25.4 102.2 -25.8 102.4 -26.4 102.6 -26.8 102.8 -27.4 103.6 -29.2 103.8 -29.8 103.8 -30.0 104.0 -31.4 104.0 -32.0 104.2 -32.8 104.2 -33.4 104.4 -34.2 104.4 -35.0 105.0 -34.8 105.8 -30.4 106.0 -30.2 106.0 -30.0 106.0 -29.4 106.2 -29.2 106.2 -29.0 106.4 -27.8 106.4 -26.8 106.6 -26.4 106.6 -25.4 106.8 -25.0 106.8 -24.0 107.0 -23.6 106.6 -23.0 106.8 -22.4 106.8 -21.4 107.2 -20.8 107.0 -20.0 107.0 -19.4 107.2 -19.0 107.2 -18.6 107.4 -18.0 107.4 -17.6 107.6 -17.0 107.6 -16.6 107.8 -16.0 107.8 -15.6 108.0 -15.0 108.0 -14.4 108.2 -14.0 108.0 -12.6 108.0 -11.0 107.8 -10.6 107.6 -9.2 107.8 -9.2 107.6 -8.6 107.4 -7.6 107.6 -7.6 107.2 -5.8 107.4 -5.8 107.2 -4.4 107.0 -4.2 107.0 -3.0 106.8 -2.4 107.0 -2.4 106.6 -0.8 106.8 -0.8 106.6 -0.2 106.6 1.0 106.4 1.2 106.0 4.0 106.0 4.2 105.8 5.0 105.8 5.2 M28.6 11.8 L3.0 8.2 2.6 8.0 -15.6 5.8 -16.2 5.6 -16.8 3.8 -17.0 3.4 -17.4 2.2 -17.6 1.8 -18.2 0.2 -18.4 -0.2 -18.4 -0.4 -19.2 -2.2 -19.2 -2.4 -20.0 -4.2 -20.0 -4.6 -20.6 -6.6 -20.8 -7.0 -20.8 -7.2 -21.4 -10.6 -21.4 -13.0 -21.2 -13.8 -21.2 -14.2 -21.0 -15.2 -20.8 -15.6 -20.4 -18.2 -20.2 -18.4 -20.0 -19.2 -20.0 -19.8 -19.8 -20.0 -19.8 -20.4 -19.6 -20.8 -19.6 -21.2 -19.4 -21.4 -19.4 -22.0 -19.2 -22.4 -19.0 -23.0 -19.0 -23.6 -18.8 -23.8 -18.8 -24.2 -18.6 -24.4 -18.6 -25.0 -18.4 -25.6 -18.2 -25.8 -18.2 -26.2 -18.0 -26.4 -18.0 -27.0 -17.8 -27.4 -17.8 -27.6 -17.6 -28.2 -17.4 -28.4 -17.4 -28.8 -17.2 -29.0 -17.2 -29.2 -16.8 -30.0 -16.8 -30.2 -16.4 -31.0 -16.0 -31.6 -14.8 -33.8 -12.8 -36.0 -11.4 -37.0 -10.6 -37.8 -10.2 -38.0 -9.0 -38.8 -6.6 -40.8 25.4 -20.8 32.2 -15.8 32.6 -15.4 43.4 -7.8 48.8 -5.0 50.6 -4.4 52.2 -3.6 56.6 -2.8 58.6 -2.2 59.2 -2.2 59.6 -2.0 61.4 -2.0 60.8 -0.8 60.4 0.6 59.8 2.0 59.0 4.8 57.0 8.6 56.4 9.4 50.0 15.2 34.4 12.8 34.2 12.8 33.0 12.4 Q36.4 12.2 39.0 10.2 L42.0 7.0 43.8 2.6 43.8 1.0 44.0 0.0 43.4 -3.2 41.0 -7.2 38.8 -8.8 35.8 -10.0 Q27.6 -11.2 23.2 -3.0 21.4 4.2 23.4 5.6 L28.4 11.2 30.2 11.8 28.6 11.8 M72.2 57.2 L71.6 57.6 71.4 57.8 71.0 58.0 70.6 58.4 70.4 58.4 70.0 58.8 69.6 58.8 69.4 59.2 69.2 59.4 68.8 59.4 68.8 59.6 68.6 59.8 67.8 60.0 66.6 60.8 64.6 61.8 64.0 62.2 63.4 62.4 62.6 62.8 62.4 62.8 61.8 63.2 61.0 63.4 58.6 64.2 58.2 64.4 57.0 64.6 48.8 66.6 48.4 66.8 46.8 67.0 46.2 67.2 44.0 67.2 43.0 67.4 42.2 67.4 40.6 67.2 39.4 67.2 34.2 66.2 29.6 64.8 28.8 64.4 27.0 63.8 26.6 63.6 23.4 62.6 24.4 61.2 24.8 60.8 25.0 60.8 25.8 60.0 43.6 63.6 45.2 63.8 48.4 63.8 49.2 63.6 49.8 63.6 50.2 63.4 51.6 63.4 52.2 63.2 53.2 63.0 54.2 63.2 55.4 62.6 56.6 62.4 57.6 62.6 59.0 61.8 61.4 61.0 62.2 60.6 63.4 60.2 64.2 59.8 64.8 59.6 65.4 59.2 66.4 58.8 73.2 54.8 72.4 56.6 72.0 56.4 72.2 57.2 M71.0 47.8 L71.8 47.6 72.6 47.2 73.0 47.2 73.4 46.8 74.0 46.4 74.4 46.2 75.0 45.8 75.8 45.4 75.4 46.8 75.4 47.2 75.2 47.4 75.4 47.6 75.4 49.4 74.8 50.0 74.2 50.2 73.8 50.4 73.2 50.8 72.6 50.8 72.4 51.2 71.8 51.6 71.6 51.6 68.4 52.8 67.8 52.8 67.8 53.0 67.2 53.2 66.6 53.2 66.6 53.4 66.4 53.4 64.6 54.0 64.2 54.0 64.0 54.2 63.6 54.2 63.4 54.4 63.0 54.4 62.6 54.6 62.2 54.6 61.8 54.8 61.4 54.8 61.4 55.0 61.2 55.0 60.6 55.2 58.8 55.6 58.6 55.6 57.8 55.8 57.6 55.8 57.2 56.0 56.6 56.0 54.4 56.2 29.4 54.2 31.2 50.6 31.4 50.0 32.2 49.6 40.2 50.8 41.4 50.8 42.2 51.0 46.2 51.6 47.6 51.6 48.4 51.8 49.4 51.8 50.4 52.0 51.2 51.8 52.2 52.0 52.8 52.0 53.6 51.8 58.0 51.8 59.0 51.6 59.8 51.8 62.0 51.0 63.0 50.8 65.6 50.0 66.8 49.4 69.0 48.6 69.4 48.4 70.2 48.2 71.0 47.8" fill="#e6e6e6" fill-rule="evenodd" stroke="none"/>
    <path d="M88.6 -5.6 L89.2 -7.0 91.8 -9.4 92.2 -9.6 93.0 -9.8 93.0 -9.4 93.4 -9.2 94.8 -9.2 98.0 -4.6 98.6 1.0 Q98.2 5.0 96.2 7.8 L96.0 7.8 94.6 9.6 92.4 11.2 91.4 11.2 Q90.0 11.6 88.6 7.8 L87.6 1.6 87.8 -0.4 89.2 -5.2 88.6 -5.6 M28.6 11.8 L30.2 11.8 28.4 11.2 23.4 5.6 Q21.4 4.2 23.2 -3.0 27.6 -11.2 35.8 -10.0 L38.8 -8.8 41.0 -7.2 43.4 -3.2 44.0 0.0 43.8 1.0 43.8 2.6 42.0 7.0 39.0 10.2 Q36.4 12.2 33.0 12.4 L34.2 12.8 32.4 13.0 Q29.0 12.6 28.6 11.8 M24.4 61.2 L23.4 60.6 21.4 57.4 20.2 54.6 20.0 53.8 19.6 53.2 17.0 48.2 12.8 37.2 10.2 31.6 7.0 26.4 22.4 35.8 32.8 43.0 42.2 47.6 47.6 49.2 52.6 49.8 57.2 49.8 61.4 49.2 69.0 47.0 71.6 45.8 79.8 40.4 89.0 32.8 96.2 24.0 94.2 27.6 93.4 30.2 79.8 50.6 74.4 55.2 74.0 55.6 73.4 56.0 72.2 57.2 72.0 56.4 72.4 56.6 73.2 54.8 66.4 58.8 65.4 59.2 64.8 59.6 64.2 59.8 63.4 60.2 62.2 60.6 61.4 61.0 59.0 61.8 57.6 62.6 56.6 62.4 55.4 62.6 54.2 63.2 53.2 63.0 52.2 63.2 51.6 63.4 50.2 63.4 49.8 63.6 49.2 63.6 48.4 63.8 45.2 63.8 43.6 63.6 25.8 60.0 25.0 60.8 24.8 60.8 24.4 61.2 M68.6 59.8 L61.8 63.8 48.2 67.4 46.2 67.2 46.8 67.0 48.4 66.8 48.8 66.6 57.0 64.6 58.2 64.4 58.6 64.2 61.0 63.4 61.8 63.2 62.4 62.8 62.6 62.8 63.4 62.4 64.0 62.2 64.6 61.8 66.6 60.8 67.8 60.0 68.6 59.8 M71.0 47.8 L70.2 48.2 69.4 48.4 69.0 48.6 66.8 49.4 65.6 50.0 63.0 50.8 62.0 51.0 59.8 51.8 59.0 51.6 58.0 51.8 53.6 51.8 52.8 52.0 52.2 52.0 51.2 51.8 50.4 52.0 49.4 51.8 48.4 51.8 47.6 51.6 46.2 51.6 42.2 51.0 41.4 50.8 40.2 50.8 32.2 49.6 31.4 50.0 31.2 50.6 29.4 54.2 54.4 56.2 56.6 56.0 57.2 56.0 57.6 55.8 57.8 55.8 58.6 55.6 58.8 55.6 60.6 55.2 61.2 55.0 61.4 55.0 61.4 54.8 61.8 54.8 62.2 54.6 62.6 54.6 63.0 54.4 63.4 54.4 63.6 54.2 64.0 54.2 64.2 54.0 64.6 54.0 66.4 53.4 66.6 53.4 66.6 53.2 67.2 53.2 67.8 53.0 67.8 52.8 68.4 52.8 71.6 51.6 71.8 51.6 72.4 51.2 72.6 50.8 73.2 50.8 73.8 50.4 74.2 50.2 74.8 50.0 75.4 49.4 75.4 47.6 75.2 47.4 75.4 47.2 75.4 46.8 75.8 45.4 75.0 45.8 74.4 46.2 74.0 46.4 73.4 46.8 73.0 47.2 72.6 47.2 71.8 47.6 71.0 47.8" fill="#000000" fill-rule="evenodd" stroke="none"/>
    <path d="M-3.2 -57.4 L-3.0 -49.2 -3.6 -41.4 Q-4.2 -39.0 -6.6 -40.8 L-13.8 -35.2 Q-18.2 -29.2 -18.6 -24.0 L-25.4 -18.8 -32.0 -17.8 -43.0 -18.0 -48.2 -17.0 Q-53.2 -16.8 -69.6 -30.6 L-73.4 -39.4 -72.8 -48.2 -70.2 -62.2 Q-52.2 -88.2 -21.4 -80.8 L-14.8 -75.6 -4.6 -65.0 -3.2 -57.4" fill="#939393" fill-opacity="0.36862746" fill-rule="evenodd" stroke="none"/>
  </g>
</svg>
