<?xml version="1.0" encoding="UTF-8" standalone="no"?>
<svg xmlns:ffdec="https://www.free-decompiler.com/flash" xmlns:xlink="http://www.w3.org/1999/xlink" ffdec:objectType="shape" height="244.6px" width="216.45px" xmlns="http://www.w3.org/2000/svg">
  <g transform="matrix(1.0, 0.0, 0.0, 1.0, 108.8, 121.7)">
    <path d="M75.8 -89.8 L89.0 -74.2 99.0 -56.0 105.6 -35.2 Q113.8 10.6 89.0 47.6 62.8 84.0 19.6 92.4 L19.6 115.4 Q19.8 119.2 19.0 119.8 L16.4 121.0 5.2 122.8 Q-13.8 123.6 -20.2 119.2 L-20.4 92.4 Q-59.8 86.4 -88.8 49.0 L-100.4 28.4 -106.4 9.0 -108.8 -14.0 Q-107.8 -58.8 -77.2 -89.4 L-74.2 -92.4 -58.4 -104.8 -37.6 -115.0 -32.8 -116.6 -16.0 -120.2 -1.6 -121.6 Q35.0 -123.4 69.8 -95.2 L75.8 -89.8 M10.2 12.8 L27.8 15.4 28.6 14.4 34.2 9.4 34.6 8.8 35.6 7.6 36.2 6.2 37.0 5.0 37.8 2.0 38.4 0.8 38.8 -0.8 39.4 -2.0 37.2 -2.0 36.4 -2.2 35.4 -2.6 28.8 -3.6 27.0 -4.4 25.0 -5.0 21.0 -6.8 15.4 -10.0 7.4 -15.4 6.8 -16.0 -0.2 -21.0 -30.8 -40.4 -34.8 -37.6 -38.0 -34.6 -39.0 -33.4 -41.2 -29.4 -41.2 -29.0 -41.4 -28.8 -41.4 -28.6 -41.6 -28.4 -41.6 -28.0 -41.8 -27.8 -41.8 -27.4 -42.0 -27.2 -42.0 -26.8 -42.2 -26.6 -42.2 -26.2 -42.6 -25.4 -42.6 -24.8 -42.8 -24.6 -42.8 -24.2 -43.0 -24.0 -43.0 -23.6 -43.2 -23.2 -43.2 -22.6 -43.8 -20.6 -44.0 -20.4 -45.4 -14.0 -45.4 -9.6 -45.2 -9.2 -45.2 -8.8 -44.6 -6.2 -42.6 -0.6 -42.4 -0.4 -42.4 -0.2 -42.2 0.2 -42.2 0.4 -42.0 0.6 -42.0 0.8 -39.8 5.8 4.0 11.8 8.0 13.0 10.2 12.8 M30.4 68.2 L33.4 68.4 40.2 67.2 40.6 67.0 41.2 67.0 41.6 66.8 49.6 65.0 58.8 60.4 58.8 60.2 63.4 57.2 63.6 57.0 64.2 56.6 68.4 53.0 70.2 51.0 70.2 50.8 70.4 50.6 71.0 50.2 84.4 31.2 84.6 30.6 85.6 29.2 88.0 24.6 80.6 31.6 70.6 39.0 58.4 46.2 50.6 49.0 40.0 50.8 31.2 50.2 25.2 49.0 22.4 48.0 20.8 47.6 11.6 43.4 -4.2 33.6 -14.0 27.8 -16.6 26.4 -16.2 27.4 -13.2 31.4 -1.4 53.0 -0.6 54.0 -0.2 54.8 4.6 61.0 5.6 61.4 5.0 63.0 11.8 65.2 12.6 65.4 13.6 65.8 20.4 67.4 21.8 67.8 22.6 67.8 23.4 68.0 25.0 68.2 30.4 68.2 M73.2 -5.6 L72.4 -5.0 70.6 -4.2 67.6 -3.4 67.2 -3.2 66.8 -3.2 65.8 -2.8 65.2 -2.8 64.4 -2.6 63.8 -2.6 63.4 -2.4 62.8 -2.2 62.2 -2.2 61.6 -1.8 61.0 -2.0 60.0 -1.4 60.2 -1.2 60.2 -0.6 60.6 0.8 62.0 6.4 63.4 9.2 67.6 15.0 85.2 10.8 96.2 7.6 102.6 5.2 103.6 0.0 103.8 -0.4 103.8 -0.8 104.6 -2.8 105.0 -8.2 105.0 -8.8 105.2 -9.6 105.2 -10.2 105.4 -10.6 105.2 -10.6 105.6 -14.4 104.6 -20.4 104.6 -21.6 104.0 -23.4 104.0 -24.6 102.8 -29.8 100.0 -36.4 96.8 -31.0 86.4 -16.8 81.0 -11.4 80.6 -11.2 79.4 -10.2 77.4 -9.6 74.0 -7.2 73.2 -5.6" fill="#070707" fill-rule="evenodd" stroke="none"/>
    <path d="M4.0 11.8 L-39.8 5.8 -42.0 0.8 -42.0 0.6 -42.2 0.4 -42.2 0.2 -42.4 -0.2 -42.4 -0.4 -42.6 -0.6 -44.6 -6.2 -45.2 -8.8 -45.2 -9.2 -45.4 -9.6 -45.4 -14.0 -44.0 -20.4 -43.8 -20.6 -43.2 -22.6 -43.2 -23.2 -43.0 -23.6 -43.0 -24.0 -42.8 -24.2 -42.8 -24.6 -42.6 -24.8 -42.6 -25.4 -42.2 -26.2 -42.2 -26.6 -42.0 -26.8 -42.0 -27.2 -41.8 -27.4 -41.8 -27.8 -41.6 -28.0 -41.6 -28.4 -41.4 -28.6 -41.4 -28.8 -41.2 -29.0 -41.2 -29.4 -39.0 -33.4 -38.0 -34.6 -34.8 -37.6 -30.8 -40.4 -0.2 -21.0 6.8 -16.0 7.4 -15.4 15.4 -10.0 21.0 -6.8 25.0 -5.0 27.0 -4.4 28.8 -3.6 35.4 -2.6 36.4 -2.2 37.2 -2.0 39.4 -2.0 38.8 -0.8 38.4 0.8 37.8 2.0 37.0 5.0 36.2 6.2 35.6 7.6 34.6 8.8 34.2 9.4 28.6 14.4 27.8 15.4 10.2 12.8 8.95 12.45 Q10.8 12.9 14.8 10.4 L18.2 6.8 19.8 2.6 19.8 1.8 20.0 1.2 19.4 -3.0 16.6 -7.2 14.4 -8.8 12.6 -9.6 11.2 -10.0 Q0.6 -10.4 -2.2 -3.0 -4.8 6.2 3.6 11.2 L5.4 11.8 4.0 11.8 M30.4 68.2 L25.0 68.2 23.4 68.0 22.6 67.8 21.8 67.8 20.4 67.4 13.6 65.8 12.6 65.4 11.8 65.2 5.0 63.0 5.6 61.4 6.0 61.2 6.2 61.2 7.0 60.4 27.4 64.6 27.6 64.6 29.4 64.8 32.4 64.8 33.8 64.6 34.4 64.6 35.0 64.4 36.0 64.4 37.2 64.2 39.8 64.2 40.6 63.8 45.2 63.0 46.6 63.0 49.0 61.8 50.4 61.4 54.0 60.0 55.0 59.4 56.2 59.0 59.8 57.0 61.6 56.2 61.2 58.2 61.2 58.4 60.4 59.0 59.0 59.8 58.8 60.2 58.4 60.2 54.6 62.2 54.0 62.6 52.8 63.0 50.8 64.0 50.2 64.0 50.0 64.2 49.4 64.4 49.0 64.6 45.4 65.4 45.0 65.6 44.2 65.8 43.6 65.8 34.0 67.6 33.6 67.8 31.8 68.0 30.4 68.0 30.4 68.2 M79.4 -10.2 L80.6 -11.2 81.0 -11.4 86.4 -16.8 96.8 -31.0 100.0 -36.4 102.8 -29.8 104.0 -24.6 104.0 -23.4 104.6 -21.6 104.6 -20.4 105.6 -14.4 105.2 -10.6 105.4 -10.6 105.2 -10.2 105.2 -9.6 105.0 -8.8 105.0 -8.2 104.6 -2.8 103.8 -0.8 103.8 -0.4 103.6 0.0 102.6 5.2 96.2 7.6 85.2 10.8 67.6 15.0 63.4 9.2 62.0 6.4 60.6 0.8 60.2 -0.6 60.2 -1.2 60.0 -1.4 61.0 -2.0 61.6 -1.8 62.2 -2.2 62.8 -2.2 63.4 -2.4 63.8 -2.6 64.4 -2.6 65.2 -2.8 65.8 -2.8 66.8 -3.2 67.2 -3.2 67.6 -3.4 70.6 -4.2 72.4 -5.0 73.2 -5.6 73.8 -5.8 74.4 -6.2 73.6 -5.0 72.2 -1.0 72.0 1.2 Q72.0 9.0 77.6 11.6 L79.0 11.6 81.8 10.0 84.0 7.8 Q86.4 3.8 86.4 1.4 L86.2 -3.2 Q84.4 -8.4 82.4 -9.0 L79.2 -9.4 79.2 -9.8 79.4 -10.2 M60.6 47.2 L61.4 47.0 62.6 46.4 62.6 47.4 62.8 48.4 63.0 51.0 61.6 51.4 60.8 51.8 60.2 52.0 59.4 52.4 58.8 52.8 58.4 52.8 52.2 54.6 52.0 54.6 51.6 54.8 50.6 55.0 50.4 55.0 50.0 55.2 49.6 55.2 49.0 55.4 48.6 55.4 48.2 55.6 47.6 55.6 47.2 55.8 46.8 55.8 44.8 56.4 42.6 56.8 41.8 56.8 41.4 57.0 37.8 57.2 33.6 57.0 32.8 56.8 31.8 56.8 9.4 54.6 10.8 51.0 11.2 50.2 11.8 50.0 20.4 51.2 21.2 51.4 22.0 51.4 28.8 52.4 30.4 52.4 31.0 52.6 32.4 52.8 34.6 52.8 35.2 52.6 36.0 52.6 36.2 52.8 41.0 52.8 41.6 52.6 43.8 52.6 46.0 52.0 46.6 52.0 54.4 49.8 55.6 49.2 57.6 48.8 58.4 48.4 59.0 48.2 60.6 47.4 60.6 47.2" fill="#e6e6e6" fill-rule="evenodd" stroke="none"/>
    <path d="M4.0 11.8 L5.4 11.8 3.6 11.2 Q-4.8 6.2 -2.2 -3.0 0.6 -10.4 11.2 -10.0 L12.6 -9.6 14.4 -8.8 16.6 -7.2 19.4 -3.0 20.0 1.2 19.8 1.8 19.8 2.6 18.2 6.8 14.8 10.4 Q10.8 12.9 8.95 12.45 L10.2 12.8 8.0 13.0 4.0 11.8 M5.6 61.4 L4.6 61.0 -0.2 54.8 -0.6 54.0 -1.4 53.0 -13.2 31.4 -16.2 27.4 -16.6 26.4 -14.0 27.8 -4.2 33.6 11.6 43.4 20.8 47.6 22.4 48.0 25.2 49.0 31.2 50.2 40.0 50.8 50.6 49.0 58.4 46.2 70.6 39.0 80.6 31.6 88.0 24.6 85.6 29.2 84.6 30.6 84.4 31.2 71.0 50.2 70.4 50.6 70.2 50.8 70.2 51.0 68.4 53.0 64.2 56.6 63.6 57.0 63.4 57.2 58.8 60.2 58.8 60.4 49.6 65.0 41.6 66.8 41.2 67.0 40.6 67.0 40.2 67.2 33.4 68.4 30.4 68.2 30.4 68.0 31.8 68.0 33.6 67.8 34.0 67.6 43.6 65.8 44.2 65.8 45.0 65.6 45.4 65.4 49.0 64.6 49.4 64.4 50.0 64.2 50.2 64.0 50.8 64.0 52.8 63.0 54.0 62.6 54.6 62.2 58.4 60.2 58.8 60.2 59.0 59.8 60.4 59.0 61.2 58.4 61.2 58.2 61.6 56.2 59.8 57.0 56.2 59.0 55.0 59.4 54.0 60.0 50.4 61.4 49.0 61.8 46.6 63.0 45.2 63.0 40.6 63.8 39.8 64.2 37.2 64.2 36.0 64.4 35.0 64.4 34.4 64.6 33.8 64.6 32.4 64.8 29.4 64.8 27.6 64.6 27.4 64.6 7.0 60.4 6.2 61.2 6.0 61.2 5.6 61.4 M73.2 -5.6 L74.0 -7.2 77.4 -9.6 79.4 -10.2 79.2 -9.8 79.2 -9.4 82.4 -9.0 Q84.4 -8.4 86.2 -3.2 L86.4 1.4 Q86.4 3.8 84.0 7.8 L81.8 10.0 79.0 11.6 77.6 11.6 Q72.0 9.0 72.0 1.2 L72.2 -1.0 73.6 -5.0 74.4 -6.2 73.8 -5.8 73.2 -5.6 M60.6 47.2 L60.6 47.4 59.0 48.2 58.4 48.4 57.6 48.8 55.6 49.2 54.4 49.8 46.6 52.0 46.0 52.0 43.8 52.6 41.6 52.6 41.0 52.8 36.2 52.8 36.0 52.6 35.2 52.6 34.6 52.8 32.4 52.8 31.0 52.6 30.4 52.4 28.8 52.4 22.0 51.4 21.2 51.4 20.4 51.2 11.8 50.0 11.2 50.2 10.8 51.0 9.4 54.6 31.8 56.8 32.8 56.8 33.6 57.0 37.8 57.2 41.4 57.0 41.8 56.8 42.6 56.8 44.8 56.4 46.8 55.8 47.2 55.8 47.6 55.6 48.2 55.6 48.6 55.4 49.0 55.4 49.6 55.2 50.0 55.2 50.4 55.0 50.6 55.0 51.6 54.8 52.0 54.6 52.2 54.6 58.4 52.8 58.8 52.8 59.4 52.4 60.2 52.0 60.8 51.8 61.6 51.4 63.0 51.0 62.8 48.4 62.6 47.4 62.6 46.4 61.4 47.0 60.6 47.2" fill="#000000" fill-rule="evenodd" stroke="none"/>
    <path d="M-3.4 -51.2 L-4.2 -41.4 -6.0 -38.4 -13.4 -29.6 -31.0 -40.4 Q-40.4 -38.0 -44.2 -18.0 L-48.6 -17.4 Q-50.2 -16.8 -58.4 -22.0 L-69.8 -31.0 -73.4 -39.4 -73.0 -46.8 -70.2 -62.2 -66.2 -67.4 -60.2 -73.6 -60.4 -74.0 -47.0 -80.6 -40.6 -82.8 -21.8 -80.6 -15.4 -75.8 -5.0 -65.0 -3.6 -56.2 -3.4 -51.2" fill="#939393" fill-opacity="0.36862746" fill-rule="evenodd" stroke="none"/>
  </g>
</svg>
