<?xml version="1.0" encoding="UTF-8" standalone="no"?>
<svg xmlns:ffdec="https://www.free-decompiler.com/flash" xmlns:xlink="http://www.w3.org/1999/xlink" ffdec:objectType="shape" height="244.5px" width="216.55px" xmlns="http://www.w3.org/2000/svg">
  <g transform="matrix(1.0, 0.0, 0.0, 1.0, 108.75, 121.5)">
    <path d="M-5.25 -121.5 Q32.25 -121.5 57.5 -104.75 96.75 -78.25 105.75 -35.0 114.0 9.25 89.25 47.25 59.75 86.5 19.25 92.5 L19.25 119.25 Q16.75 122.25 1.0 123.0 -17.25 122.5 -20.5 119.5 L-20.5 92.5 Q-61.0 84.75 -85.75 52.75 L-89.75 48.0 -100.25 29.0 -106.75 8.0 -108.75 -13.75 Q-108.5 -58.0 -76.5 -90.25 L-57.5 -105.5 -36.5 -115.5 -20.5 -119.25 -5.25 -121.5 M-14.25 13.0 L3.25 15.5 10.25 9.0 11.25 7.75 12.0 6.5 15.0 -2.0 12.75 -2.0 5.75 -3.5 3.75 -3.5 1.75 -4.5 -0.25 -5.0 -6.25 -7.75 -15.5 -13.5 -53.5 -39.75 -58.25 -36.0 -59.0 -35.25 -61.75 -31.5 -62.0 -30.75 -63.25 -28.25 -63.75 -26.75 -63.75 -26.25 -64.0 -26.0 -64.0 -25.75 -64.5 -24.25 -64.5 -24.0 -64.75 -23.25 -66.75 -15.25 -67.0 -10.75 -66.75 -9.0 -66.75 -8.75 -66.5 -8.5 -66.5 -7.5 -66.25 -7.25 -66.25 -7.0 -66.0 -6.5 -66.0 -6.0 -65.75 -5.5 -65.75 -5.0 -65.5 -4.75 -65.5 -4.5 -65.25 -4.0 -65.25 -3.75 -65.0 -3.25 -65.0 -2.75 -64.75 -2.5 -64.75 -2.0 -64.5 -1.75 -64.5 -1.5 -64.25 -1.25 -64.25 -0.75 -64.0 -0.5 -64.0 0.0 -62.0 5.5 -23.5 11.5 -22.75 11.5 -20.25 12.0 -17.5 13.0 -14.25 13.0 M53.5 -5.75 L52.25 -5.0 50.25 -4.25 45.75 -3.25 45.25 -3.0 44.5 -3.0 44.0 -2.75 43.25 -2.75 42.5 -2.5 42.0 -2.5 41.25 -2.25 40.5 -2.25 39.75 -2.0 38.0 -2.0 38.5 -0.5 38.75 1.0 39.25 2.25 39.5 3.75 40.75 6.75 41.5 8.0 41.5 8.25 42.0 8.75 42.0 9.0 42.75 10.0 46.75 14.25 47.5 15.25 51.25 14.5 52.0 14.5 52.5 14.25 53.0 14.25 84.0 8.0 84.75 7.75 94.25 5.5 95.0 4.75 95.75 1.25 96.0 0.75 96.0 0.5 97.75 -4.25 98.0 -8.25 98.25 -8.75 98.5 -15.0 98.0 -16.75 98.0 -18.0 97.5 -19.5 97.5 -20.75 96.5 -24.0 96.5 -25.25 95.25 -29.5 93.0 -33.5 90.0 -37.5 87.25 -34.25 69.75 -17.25 61.0 -10.25 59.25 -10.0 58.5 -9.75 55.25 -8.0 53.5 -5.75 M14.25 68.75 L17.0 69.0 21.25 68.5 37.75 65.0 44.0 62.0 44.75 61.5 45.25 61.25 45.25 61.0 49.75 58.25 50.0 58.0 50.75 57.5 56.5 52.25 56.25 52.0 56.5 51.75 66.0 39.5 71.25 32.0 72.25 30.0 75.5 25.0 62.75 35.0 44.25 45.5 39.0 47.75 29.0 50.5 20.5 51.25 11.25 50.75 8.0 50.25 4.5 49.25 3.0 49.0 1.25 48.25 -2.75 47.0 -10.5 43.5 -23.75 36.0 -29.5 32.0 -34.75 29.5 -36.5 27.75 -37.0 27.5 -37.75 27.0 -38.25 26.75 -39.25 26.75 -35.75 31.25 -21.25 53.75 -20.5 54.5 -19.75 55.5 -16.75 58.75 -13.5 61.5 -13.75 63.0 -10.0 64.0 -8.0 64.75 -7.0 65.25 -6.5 65.25 -5.25 65.75 -0.25 67.25 3.0 67.75 3.5 68.0 4.25 68.0 5.25 68.25 6.0 68.25 9.75 68.75 14.25 68.75" fill="#070707" fill-rule="evenodd" stroke="none"/>
    <path d="M-20.25 12.0 L-22.75 11.5 -23.5 11.5 -62.0 5.5 -64.0 0.0 -64.0 -0.5 -64.25 -0.75 -64.25 -1.25 -64.5 -1.5 -64.5 -1.75 -64.75 -2.0 -64.75 -2.5 -65.0 -2.75 -65.0 -3.25 -65.25 -3.75 -65.25 -4.0 -65.5 -4.5 -65.5 -4.75 -65.75 -5.0 -65.75 -5.5 -66.0 -6.0 -66.0 -6.5 -66.25 -7.0 -66.25 -7.25 -66.5 -7.5 -66.5 -8.5 -66.75 -8.75 -66.75 -9.0 -67.0 -10.75 -66.75 -15.25 -64.75 -23.25 -64.5 -24.0 -64.5 -24.25 -64.0 -25.75 -64.0 -26.0 -63.75 -26.25 -63.75 -26.75 -63.25 -28.25 -62.0 -30.75 -61.75 -31.5 -59.0 -35.25 -58.25 -36.0 -53.5 -39.75 -15.5 -13.5 -6.25 -7.75 -0.25 -5.0 1.75 -4.5 3.75 -3.5 5.75 -3.5 12.75 -2.0 15.0 -2.0 12.0 6.5 11.25 7.75 10.25 9.0 3.25 15.5 -14.25 13.0 -15.75 12.5 -10.25 10.5 -7.0 7.0 -5.5 3.0 -5.5 2.25 -5.25 1.5 -5.75 -2.0 -6.75 -4.5 -9.25 -7.5 -13.25 -9.75 -14.75 -10.0 Q-23.5 -11.0 -27.5 -3.0 -29.0 3.0 -26.75 5.75 L-21.5 11.25 -20.0 11.5 -19.5 11.75 -20.25 12.0 M61.0 -10.25 L69.75 -17.25 87.25 -34.25 90.0 -37.5 93.0 -33.5 95.25 -29.5 96.5 -25.25 96.5 -24.0 97.5 -20.75 97.5 -19.5 98.0 -18.0 98.0 -16.75 98.5 -15.0 98.25 -8.75 98.0 -8.25 97.75 -4.25 96.0 0.5 96.0 0.75 95.75 1.25 95.0 4.75 94.25 5.5 84.75 7.75 84.0 8.0 53.0 14.25 52.5 14.25 52.0 14.5 51.25 14.5 47.5 15.25 46.75 14.25 42.75 10.0 42.0 9.0 42.0 8.75 41.5 8.25 41.5 8.0 40.75 6.75 39.5 3.75 39.25 2.25 38.75 1.0 38.5 -0.5 38.0 -2.0 39.75 -2.0 40.5 -2.25 41.25 -2.25 42.0 -2.5 42.5 -2.5 43.25 -2.75 44.0 -2.75 44.5 -3.0 45.25 -3.0 45.75 -3.25 50.25 -4.25 52.25 -5.0 53.5 -5.75 55.0 -6.25 54.0 -5.25 52.25 -1.0 52.0 1.25 Q52.25 9.25 59.5 12.0 L61.25 12.0 64.75 10.25 67.0 8.0 70.0 1.75 68.75 -5.5 Q65.5 -9.75 64.0 -9.5 L61.0 -9.75 61.0 -10.25 M14.25 68.75 L9.75 68.75 6.0 68.25 5.25 68.25 4.25 68.0 3.5 68.0 3.0 67.75 -0.25 67.25 -5.25 65.75 -6.5 65.25 -7.0 65.25 -8.0 64.75 -10.0 64.0 -13.75 63.0 -13.5 61.5 -13.25 61.25 -13.0 60.75 -12.5 60.25 -11.75 60.5 -10.0 60.75 -9.5 61.0 -7.75 61.25 -7.25 61.5 -4.25 62.0 -3.75 62.25 -2.0 62.5 -1.5 62.75 -0.75 63.5 9.0 65.0 9.5 65.0 11.75 65.25 17.25 65.25 17.75 65.0 18.75 65.0 19.5 65.25 20.25 65.0 21.5 64.75 23.0 64.75 24.5 65.0 25.75 64.5 27.5 64.5 28.75 64.0 30.5 63.75 33.75 62.5 34.75 62.25 41.75 59.75 44.75 58.25 46.0 58.25 47.0 57.25 47.0 59.75 45.5 60.75 44.75 61.0 44.75 61.25 43.0 61.75 40.75 63.0 40.0 63.25 39.25 63.75 38.25 64.0 37.75 63.75 37.5 64.25 36.5 64.75 35.75 64.75 34.75 65.25 30.75 66.25 30.0 66.25 28.5 66.75 27.75 66.75 17.0 68.5 15.0 68.5 14.25 68.75 M45.0 47.75 L46.0 47.5 46.0 48.5 46.5 49.25 47.25 52.0 44.0 53.0 43.5 53.25 42.75 53.75 41.75 53.75 32.5 56.0 32.0 56.0 31.25 56.25 30.75 56.25 30.0 56.5 29.5 56.5 28.75 56.75 28.0 56.75 27.75 57.0 25.75 57.25 25.5 57.25 24.75 57.5 23.5 57.5 23.0 57.75 14.75 57.5 13.5 57.25 12.75 57.25 -11.0 54.75 -10.0 51.0 -10.0 50.25 -9.5 50.0 -0.75 51.5 0.5 51.5 1.5 51.75 2.25 51.75 10.25 53.0 11.0 53.25 13.25 53.25 14.0 53.5 15.75 53.25 23.25 53.25 25.0 53.5 33.5 51.5 38.0 50.25 39.25 49.75 40.25 49.5 41.25 49.5 42.0 49.0 43.75 48.25 44.5 48.0 45.0 47.75" fill="#e6e6e6" fill-rule="evenodd" stroke="none"/>
    <path d="M-14.25 13.0 L-17.5 13.0 -20.25 12.0 -19.5 11.75 -20.0 11.5 -21.5 11.25 -26.75 5.75 Q-29.0 3.0 -27.5 -3.0 -23.5 -11.0 -14.75 -10.0 L-13.25 -9.75 -9.25 -7.5 -6.75 -4.5 -5.75 -2.0 -5.25 1.5 -5.5 2.25 -5.5 3.0 -7.0 7.0 -10.25 10.5 -15.75 12.5 -14.25 13.0 M53.5 -5.75 L55.25 -8.0 58.5 -9.75 59.25 -10.0 61.0 -10.25 61.0 -9.75 64.0 -9.5 Q65.5 -9.75 68.75 -5.5 L70.0 1.75 67.0 8.0 64.75 10.25 61.25 12.0 59.5 12.0 Q52.25 9.25 52.0 1.25 L52.25 -1.0 54.0 -5.25 55.0 -6.25 53.5 -5.75 M-13.5 61.5 L-16.75 58.75 -19.75 55.5 -20.5 54.5 -21.25 53.75 -35.75 31.25 -39.25 26.75 -38.25 26.75 -37.75 27.0 -37.0 27.5 -36.5 27.75 -34.75 29.5 -29.5 32.0 -23.75 36.0 -10.5 43.5 -2.75 47.0 1.25 48.25 3.0 49.0 4.5 49.25 8.0 50.25 11.25 50.75 20.5 51.25 29.0 50.5 39.0 47.75 44.25 45.5 62.75 35.0 75.5 25.0 72.25 30.0 71.25 32.0 66.0 39.5 56.5 51.75 56.25 52.0 56.5 52.25 50.75 57.5 50.0 58.0 49.75 58.25 45.25 61.0 45.25 61.25 44.75 61.5 44.0 62.0 37.75 65.0 21.25 68.5 17.0 69.0 14.25 68.75 15.0 68.5 17.0 68.5 27.75 66.75 28.5 66.75 30.0 66.25 30.75 66.25 34.75 65.25 35.75 64.75 36.5 64.75 37.5 64.25 37.75 63.75 38.25 64.0 39.25 63.75 40.0 63.25 40.75 63.0 43.0 61.75 44.75 61.25 44.75 61.0 45.5 60.75 47.0 59.75 47.0 57.25 46.0 58.25 44.75 58.25 41.75 59.75 34.75 62.25 33.75 62.5 30.5 63.75 28.75 64.0 27.5 64.5 25.75 64.5 24.5 65.0 23.0 64.75 21.5 64.75 20.25 65.0 19.5 65.25 18.75 65.0 17.75 65.0 17.25 65.25 11.75 65.25 9.5 65.0 9.0 65.0 -0.75 63.5 -1.5 62.75 -2.0 62.5 -3.75 62.25 -4.25 62.0 -7.25 61.5 -7.75 61.25 -9.5 61.0 -10.0 60.75 -11.75 60.5 -12.5 60.25 -13.0 60.75 -13.25 61.25 -13.5 61.5 M45.0 47.75 L44.5 48.0 43.75 48.25 42.0 49.0 41.25 49.5 40.25 49.5 39.25 49.75 38.0 50.25 33.5 51.5 25.0 53.5 23.25 53.25 15.75 53.25 14.0 53.5 13.25 53.25 11.0 53.25 10.25 53.0 2.25 51.75 1.5 51.75 0.5 51.5 -0.75 51.5 -9.5 50.0 -10.0 50.25 -10.0 51.0 -11.0 54.75 12.75 57.25 13.5 57.25 14.75 57.5 23.0 57.75 23.5 57.5 24.75 57.5 25.5 57.25 25.75 57.25 27.75 57.0 28.0 56.75 28.75 56.75 29.5 56.5 30.0 56.5 30.75 56.25 31.25 56.25 32.0 56.0 32.5 56.0 41.75 53.75 42.75 53.75 43.5 53.25 44.0 53.0 47.25 52.0 46.5 49.25 46.0 48.5 46.0 47.5 45.0 47.75" fill="#000000" fill-rule="evenodd" stroke="none"/>
    <path d="M-4.5 -57.25 L-5.0 -41.75 -12.0 -32.25 -19.0 -25.25 -24.75 -20.75 -25.75 -20.75 -53.0 -39.5 Q-60.75 -37.0 -63.75 -26.5 L-69.75 -31.25 -73.25 -39.25 -72.0 -54.75 -70.5 -61.75 -60.25 -74.25 Q-25.0 -93.5 -6.0 -65.25 L-4.5 -57.25" fill="#939393" fill-opacity="0.36862746" fill-rule="evenodd" stroke="none"/>
  </g>
</svg>
