<?xml version="1.0" encoding="UTF-8" standalone="no"?>
<svg xmlns:ffdec="https://www.free-decompiler.com/flash" xmlns:xlink="http://www.w3.org/1999/xlink" ffdec:objectType="shape" height="17.45px" width="17.45px" xmlns="http://www.w3.org/2000/svg">
  <g transform="matrix(1.0, 0.0, 0.0, 1.0, 20.95, 9.15)">
    <path d="M-4.2 -1.9 L-4.1 -0.45 Q-4.1 2.45 -6.0 4.8 L-6.05 4.8 -6.9 5.75 -8.15 6.6 -9.45 7.2 -10.8 7.6 -12.1 7.7 Q-15.05 7.75 -17.6 5.7 L-18.45 4.8 -19.25 3.7 -19.45 3.3 -19.85 2.45 -20.0 2.0 -20.25 1.0 -20.35 -0.4 Q-20.4 -3.35 -18.35 -5.75 L-17.45 -6.65 -16.5 -7.35 -16.05 -7.6 Q-13.95 -8.6 -12.35 -8.55 -9.3 -8.6 -6.9 -6.55 -5.9 -5.9 -4.65 -3.4 L-4.6 -3.2 -4.55 -3.0 -4.5 -2.95 -4.2 -1.9 M-8.75 -4.25 L-9.2 -4.75 -9.6 -5.05 -9.05 -7.25 -11.7 -7.25 -12.1 -5.6 -12.2 -5.55 Q-15.7 -4.45 -16.65 -0.8 -17.05 0.95 -16.7 2.05 L-16.55 2.55 Q-15.9 4.2 -14.5 4.7 L-14.95 6.6 -12.3 6.6 -11.85 4.6 Q-10.9 4.2 -10.9 4.0 L-10.15 1.0 Q-11.8 2.55 -12.95 2.5 -13.4 2.5 -13.7 1.8 L-13.85 1.3 -13.9 0.7 -13.85 0.35 -13.85 0.25 -13.85 0.2 -13.85 0.15 -13.85 0.1 -13.8 0.05 -13.8 0.0 -13.8 -0.15 -13.8 -0.2 -13.75 -0.3 -13.65 -0.75 -13.6 -0.8 -13.6 -0.85 -13.55 -0.9 -13.55 -0.95 -13.5 -1.05 -13.5 -1.1 -13.25 -1.65 -13.2 -1.7 Q-12.25 -3.25 -11.1 -3.2 -10.35 -3.2 -9.45 -1.65 L-8.75 -4.25" fill="#c9aa1c" fill-rule="evenodd" stroke="none"/>
    <path d="M-8.75 -4.25 L-9.45 -1.65 Q-10.35 -3.2 -11.1 -3.2 -12.25 -3.25 -13.2 -1.7 L-13.25 -1.65 -13.5 -1.1 -13.5 -1.05 -13.55 -0.95 -13.55 -0.9 -13.6 -0.85 -13.6 -0.8 -13.65 -0.75 -13.75 -0.3 -13.8 -0.2 -13.8 -0.15 -13.8 0.0 -13.8 0.05 -13.85 0.1 -13.85 0.15 -13.85 0.2 -13.85 0.25 -13.85 0.35 -13.9 0.7 -13.85 1.3 -13.7 1.8 Q-13.4 2.5 -12.95 2.5 -11.8 2.55 -10.15 1.0 L-10.9 4.0 Q-10.9 4.2 -11.85 4.6 L-12.3 6.6 -14.95 6.6 -14.5 4.7 Q-15.9 4.2 -16.55 2.55 L-16.7 2.05 Q-17.05 0.95 -16.65 -0.8 -15.7 -4.45 -12.2 -5.55 L-12.1 -5.6 -11.7 -7.25 -9.05 -7.25 -9.6 -5.05 -9.2 -4.75 -8.75 -4.25" fill="#563502" fill-rule="evenodd" stroke="none"/>
    <path d="M-3.5 -0.6 Q-3.5 2.8 -5.55 5.2 L-6.6 6.25 -7.8 7.1 -9.3 7.8 -10.65 8.15 -12.15 8.3 Q-15.45 8.25 -17.85 6.25 L-18.9 5.2 -19.8 3.95 -20.45 2.6 -20.85 1.15 -20.95 -0.25 Q-20.95 -3.65 -18.95 -6.05 L-17.85 -7.1 -16.65 -7.95 -15.2 -8.65 -13.85 -9.0 -12.3 -9.15 Q-9.0 -9.1 -6.6 -7.1 L-5.55 -6.05 -4.65 -4.8 -4.05 -3.45 -3.65 -2.0 -3.5 -0.6 M-4.2 -1.9 L-4.5 -2.95 -4.55 -3.0 -4.6 -3.2 -4.65 -3.4 Q-5.9 -5.9 -6.9 -6.55 -9.3 -8.6 -12.35 -8.55 -13.95 -8.6 -16.05 -7.6 L-16.5 -7.35 -17.45 -6.65 -18.35 -5.75 Q-20.4 -3.35 -20.35 -0.4 L-20.25 1.0 -20.0 2.0 -19.85 2.45 -19.45 3.3 -19.25 3.7 -18.45 4.8 -17.6 5.7 Q-15.05 7.75 -12.1 7.7 L-10.8 7.6 -9.45 7.2 -8.15 6.6 -6.9 5.75 -6.05 4.8 -6.0 4.8 Q-4.1 2.45 -4.1 -0.45 L-4.2 -1.9" fill="#8f6802" fill-rule="evenodd" stroke="none"/>
    <path d="M-4.75 -3.55 L-4.7 -3.55 -5.15 -4.55 -5.65 -5.15 -6.0 -5.65 -6.25 -5.9 -6.2 -5.9 -7.0 -6.7 -7.95 -7.3 -8.25 -7.5 -8.3 -7.6 -8.1 -7.55 -6.95 -6.75 -5.95 -5.75 -5.1 -4.55 Q-4.2 -3.3 -3.95 -0.4 -4.0 2.45 -5.85 4.8 -8.1 7.2 -10.35 7.5 L-9.5 7.3 -8.35 6.7 -8.05 6.55 Q-6.95 5.95 -6.4 5.2 L-5.95 4.8 -5.75 4.5 -5.75 4.45 -5.7 4.45 -5.6 4.35 -5.6 4.25 -5.2 3.75 -4.8 2.85 -4.8 2.75 -4.55 2.35 -4.45 1.95 -4.4 1.95 -4.15 1.0 -4.15 0.3 -4.1 -0.4 -4.15 -0.95 Q-4.05 -0.95 -4.1 -1.15 L-4.2 -1.9 -4.45 -2.65 -4.6 -3.2 -4.75 -3.55 M-10.9 -8.45 L-10.7 -8.45 -9.85 -8.2 -10.45 -8.35 -10.9 -8.45 M-16.45 6.5 L-16.25 6.65 -16.3 6.65 -16.45 6.5 M-11.05 7.6 L-10.65 7.55 -10.6 7.6 -10.8 7.65 -11.75 7.7 -11.05 7.6" fill="#fff993" fill-opacity="0.36862746" fill-rule="evenodd" stroke="none"/>
    <path d="M-5.65 -5.15 L-4.75 -3.55 -4.6 -3.2 -4.45 -2.65 -4.15 -0.95 -4.1 -0.4 -4.15 0.3 -4.2 0.35 -4.45 1.95 -4.55 2.35 -4.8 2.75 -4.8 2.85 -5.75 4.45 -5.75 4.5 -5.95 4.8 -6.4 5.2 -8.05 6.55 -8.35 6.7 -10.65 7.55 -11.05 7.6 -12.3 7.6 -15.0 7.1 -16.2 6.65 -16.25 6.65 -16.45 6.5 -16.85 6.15 -18.45 4.05 Q-18.85 1.7 -19.85 0.25 L-19.95 -2.6 -19.9 -3.2 -19.55 -3.7 -19.55 -3.8 -18.3 -5.15 -18.3 -5.2 -17.1 -6.5 -17.1 -6.55 -16.5 -7.2 -16.55 -7.25 -16.3 -7.45 -15.95 -7.6 -13.35 -8.15 -12.45 -8.4 -10.9 -8.45 -10.45 -8.35 -8.25 -7.5 -7.95 -7.3 -6.25 -5.9 -6.0 -5.65 -5.65 -5.15 M-9.05 -7.2 L-9.1 -7.25 -11.7 -7.25 -12.1 -5.6 Q-15.75 -4.6 -16.75 -0.45 L-16.85 0.8 -16.8 1.5 -16.75 1.9 -16.55 2.6 Q-15.95 4.15 -14.5 4.75 L-14.95 6.6 -12.3 6.6 -11.85 4.6 Q-10.9 4.15 -10.9 4.0 L-10.15 1.0 -10.2 1.0 Q-11.85 2.65 -13.2 2.4 -14.1 1.9 -13.75 -0.3 -13.25 -2.4 -11.65 -3.15 L-11.1 -3.2 -10.5 -2.95 -10.1 -2.6 -9.65 -2.05 -9.5 -1.65 -9.4 -1.65 -8.75 -4.25 -9.2 -4.75 -9.6 -5.1 -9.05 -7.2" fill="#ffffba" fill-opacity="0.36862746" fill-rule="evenodd" stroke="none"/>
  </g>
</svg>
