<?xml version="1.0" encoding="UTF-8" standalone="no"?>
<svg xmlns:ffdec="https://www.free-decompiler.com/flash" xmlns:xlink="http://www.w3.org/1999/xlink" ffdec:objectType="shape" height="290.75px" width="291.0px" xmlns="http://www.w3.org/2000/svg">
  <g transform="matrix(1.0, 0.0, 0.0, 1.0, 146.0, 145.75)">
    <path d="M52.25 -114.5 L8.25 -114.5 1.75 -86.25 0.25 -85.75 Q-58.5 -67.5 -74.5 -6.25 -80.75 22.75 -75.25 40.75 L-72.75 49.25 Q-62.0 76.75 -38.25 85.0 L-45.75 116.75 -1.75 116.75 6.25 83.0 Q21.75 77.0 21.75 73.5 L34.25 23.25 Q6.5 49.0 -12.25 48.0 -20.0 48.25 -24.75 36.5 L-27.25 28.0 -28.0 18.75 -27.75 12.25 -27.5 10.75 -27.5 10.0 -27.25 9.0 -27.25 8.0 -27.0 7.25 -27.0 6.5 -26.5 4.5 -26.5 3.75 -26.25 3.25 -26.0 1.75 -23.75 -6.0 -23.5 -6.5 -23.25 -7.25 -23.25 -7.5 -22.75 -8.5 -22.75 -8.75 -22.5 -9.25 -22.5 -9.5 -21.75 -11.0 -21.5 -11.75 -17.25 -20.5 -17.25 -20.75 -17.0 -21.25 Q-0.75 -47.75 18.5 -46.25 30.75 -47.0 46.0 -21.0 L57.25 -64.25 50.0 -72.5 43.75 -77.75 52.25 -114.5 M135.25 -0.5 Q135.0 47.75 103.5 86.75 L102.75 86.75 88.0 102.25 67.5 117.0 46.0 127.0 23.5 133.0 1.5 135.0 Q-47.5 136.0 -89.75 101.5 L-104.25 86.75 -117.5 68.0 -120.75 61.75 -127.25 47.25 -129.75 39.75 -134.0 23.0 -136.0 0.0 Q-136.25 -49.25 -102.5 -89.5 L-87.75 -104.0 -71.5 -115.5 -63.75 -120.0 Q-29.0 -136.25 -2.25 -135.75 48.25 -136.75 88.75 -102.25 104.75 -92.0 125.5 -50.25 L127.0 -47.0 127.5 -43.0 128.25 -42.25 133.0 -24.75 135.25 -0.5" fill="#d6b000" fill-rule="evenodd" stroke="none"/>
    <path d="M52.25 -114.5 L43.75 -77.75 50.0 -72.5 57.25 -64.25 46.0 -21.0 Q30.75 -47.0 18.5 -46.25 -0.75 -47.75 -17.0 -21.25 L-17.25 -20.75 -17.25 -20.5 -21.5 -11.75 -21.75 -11.0 -22.5 -9.5 -22.5 -9.25 -22.75 -8.75 -22.75 -8.5 -23.25 -7.5 -23.25 -7.25 -23.5 -6.5 -23.75 -6.0 -26.0 1.75 -26.25 3.25 -26.5 3.75 -26.5 4.5 -27.0 6.5 -27.0 7.25 -27.25 8.0 -27.25 9.0 -27.5 10.0 -27.5 10.75 -27.75 12.25 -28.0 18.75 -27.25 28.0 -24.75 36.5 Q-20.0 48.25 -12.25 48.0 6.5 49.0 34.25 23.25 L21.75 73.5 Q21.75 77.0 6.25 83.0 L-1.75 116.75 -45.75 116.75 -38.25 85.0 Q-62.0 76.75 -72.75 49.25 L-75.25 40.75 Q-80.75 22.75 -74.5 -6.25 -58.5 -67.5 0.25 -85.75 L1.75 -86.25 8.25 -114.5 52.25 -114.5" fill="#563502" fill-rule="evenodd" stroke="none"/>
    <path d="M136.25 -50.5 L142.75 -26.5 145.0 -3.0 Q144.75 53.5 111.25 93.0 L93.25 111.0 73.0 125.25 48.75 136.5 26.25 142.5 0.75 145.0 Q-54.5 144.25 -94.0 111.25 L-112.0 93.25 -126.75 72.25 -137.25 49.75 -143.75 25.75 -146.0 2.25 Q-146.0 -54.25 -112.25 -93.75 L-94.25 -111.75 -74.0 -126.0 -49.75 -137.25 -27.25 -143.25 -1.75 -145.75 Q53.25 -145.25 93.0 -112.0 L111.0 -94.0 125.75 -73.0 136.25 -50.5 M135.25 -0.5 L133.0 -24.75 128.25 -42.25 127.5 -43.0 127.0 -47.0 125.5 -50.25 Q104.75 -92.0 88.75 -102.25 48.25 -136.75 -2.25 -135.75 -29.0 -136.25 -63.75 -120.0 L-71.5 -115.5 -87.75 -104.0 -102.5 -89.5 Q-136.25 -49.25 -136.0 0.0 L-134.0 23.0 -129.75 39.75 -127.25 47.25 -120.75 61.75 -117.5 68.0 -104.25 86.75 -89.75 101.5 Q-47.5 136.0 1.5 135.0 L23.5 133.0 46.0 127.0 67.5 117.0 88.0 102.25 102.75 86.75 103.5 86.75 Q135.0 47.75 135.25 -0.5" fill="#e6b904" fill-rule="evenodd" stroke="none"/>
    <path d="M8.25 -113.75 L2.0 -88.25 Q-13.25 -97.5 -36.5 -99.25 L-24.0 -110.25 -13.25 -121.0 -13.5 -121.5 -7.25 -128.5 12.5 -133.75 21.75 -134.0 26.75 -132.75 51.75 -123.5 75.75 -110.75 99.75 -91.0 101.5 -90.5 96.25 -96.0 103.75 -88.75 118.25 -69.0 128.5 -47.75 134.5 -26.25 137.25 -0.25 135.25 23.0 129.25 44.0 129.25 46.0 118.5 69.0 107.5 83.75 105.5 87.5 87.75 105.0 Q55.65 133.9 3.05 135.45 L16.75 133.5 -10.5 132.75 -47.0 124.75 -67.75 117.25 -69.75 116.0 -74.5 111.75 -83.25 98.75 -84.25 98.25 -83.75 83.25 -84.75 71.0 -75.0 75.5 -66.75 78.25 -53.25 81.0 -45.75 81.5 -38.0 85.25 -45.75 116.0 -45.75 116.75 -1.5 116.5 6.25 83.0 17.25 78.0 21.5 75.0 31.25 35.75 Q40.0 25.25 44.75 5.75 L46.75 -10.25 46.0 -21.0 57.5 -63.25 54.5 -67.75 50.0 -72.5 43.75 -78.0 52.25 -114.5 8.25 -114.5 8.25 -113.75 M123.0 -57.25 L117.5 -68.75 108.75 -79.75 124.25 -52.5 Q125.5 -53.5 123.0 -57.25 M135.0 -11.75 L133.75 -24.25 129.75 -36.25 134.5 -10.25 135.0 -11.75 M134.0 14.0 L133.25 15.25 130.0 35.25 131.0 34.0 133.75 23.5 134.0 14.0 M119.75 61.0 L118.25 62.5 118.0 64.0 117.25 64.25 109.0 78.75 Q110.75 78.5 117.5 68.0 L121.5 58.0 120.0 59.5 119.75 61.0 M73.5 112.75 L74.5 112.75 87.0 104.0 95.5 94.5 73.5 112.75 M46.0 127.5 L60.75 120.0 28.75 131.5 28.25 132.0 29.0 132.25 46.0 127.5 M-117.25 -52.5 Q-121.25 -45.75 -120.5 -44.5 L-124.25 -38.25 Q-134.75 -48.25 -117.25 -52.5" fill="#ffffff" fill-opacity="0.7490196" fill-rule="evenodd" stroke="none"/>
  </g>
</svg>
