<?xml version="1.0" encoding="UTF-8" standalone="no"?>
<svg xmlns:ffdec="https://www.free-decompiler.com/flash" xmlns:xlink="http://www.w3.org/1999/xlink" ffdec:objectType="shape" height="290.75px" width="286.0px" xmlns="http://www.w3.org/2000/svg">
  <g transform="matrix(1.0, 0.0, 0.0, 1.0, 138.25, 145.75)">
    <path d="M107.5 -101.25 Q148.25 -55.75 147.75 -0.25 146.75 56.0 111.75 96.25 L93.75 113.5 69.25 129.5 47.0 138.75 23.0 144.0 -1.25 145.0 Q-54.75 141.5 -91.5 107.5 L-107.75 89.75 -120.75 69.75 -130.5 47.5 -136.25 24.5 -138.25 2.0 Q-139.0 -49.0 -108.0 -90.25 L-92.25 -107.5 -71.75 -123.5 -50.5 -134.75 -28.25 -142.0 -3.0 -145.75 23.0 -144.75 47.0 -139.5 70.75 -129.5 91.25 -116.25 107.5 -101.25 M65.5 -120.75 L44.0 -129.75 19.0 -135.0 -3.0 -135.75 -24.75 -132.75 -46.5 -125.75 -66.5 -115.25 -85.0 -101.0 -99.75 -85.0 Q-129.25 -45.25 -128.75 0.5 L-126.75 23.0 -122.5 40.75 -113.75 62.25 -100.5 83.25 -85.0 100.25 Q-49.75 132.75 1.25 135.0 L21.75 134.0 44.25 129.0 66.0 119.75 86.0 106.75 101.75 91.75 Q138.0 49.25 137.25 -0.5 137.25 -52.25 101.0 -93.25 L86.0 -107.5 65.5 -120.75" fill="#e6b904" fill-rule="evenodd" stroke="none"/>
    <path d="M65.5 -120.75 L86.0 -107.5 101.0 -93.25 Q137.25 -52.25 137.25 -0.5 138.0 49.25 101.75 91.75 L86.0 106.75 66.0 119.75 44.25 129.0 21.75 134.0 1.25 135.0 Q-49.75 132.75 -85.0 100.25 L-100.5 83.25 -113.75 62.25 -122.5 40.75 -126.75 23.0 -128.75 0.5 Q-129.25 -45.25 -99.75 -85.0 L-85.0 -101.0 -66.5 -115.25 -46.5 -125.75 -24.75 -132.75 -3.0 -135.75 19.0 -135.0 44.0 -129.75 65.5 -120.75 M49.5 -115.75 L48.75 -116.25 5.0 -114.75 -1.5 -86.0 Q-57.75 -70.5 -75.25 -2.0 -79.5 25.25 -74.75 41.0 -66.5 73.0 -40.25 83.75 L-47.25 115.0 -5.25 116.75 -3.25 115.0 4.25 82.75 12.25 79.25 17.5 76.0 19.25 74.25 32.25 23.25 30.5 24.0 16.0 36.5 5.25 43.0 -2.25 45.75 -7.25 47.0 -14.0 47.25 Q-21.25 47.25 -25.75 36.0 -33.0 22.0 -23.25 -9.0 -9.0 -44.5 15.0 -47.0 L15.5 -46.75 16.0 -46.75 20.5 -45.5 Q30.0 -44.5 42.25 -21.75 L43.75 -21.0 44.0 -21.75 46.25 -32.25 48.5 -38.75 55.0 -64.25 54.0 -65.0 53.0 -66.5 45.25 -75.0 41.25 -78.0 49.75 -113.75 49.5 -115.75" fill="#d6b000" fill-rule="evenodd" stroke="none"/>
    <path d="M49.5 -115.75 L49.75 -113.75 41.25 -78.0 45.25 -75.0 53.0 -66.5 54.0 -65.0 55.0 -64.25 48.5 -38.75 46.25 -32.25 44.0 -21.75 43.75 -21.0 42.25 -21.75 Q30.0 -44.5 20.5 -45.5 L16.0 -46.75 15.5 -46.75 15.0 -47.0 Q-9.0 -44.5 -23.25 -9.0 -33.0 22.0 -25.75 36.0 -21.25 47.25 -14.0 47.25 L-7.25 47.0 -2.25 45.75 5.25 43.0 16.0 36.5 30.5 24.0 32.25 23.25 19.25 74.25 17.5 76.0 12.25 79.25 4.25 82.75 -3.25 115.0 -5.25 116.75 -47.25 115.0 -40.25 83.75 Q-66.5 73.0 -74.75 41.0 -79.5 25.25 -75.25 -2.0 -57.75 -70.5 -1.5 -86.0 L5.0 -114.75 48.75 -116.25 49.5 -115.75" fill="#563502" fill-rule="evenodd" stroke="none"/>
    <path d="M26.25 -133.75 L52.5 -125.0 78.25 -111.0 100.25 -93.75 101.0 -93.25 101.5 -92.75 103.5 -91.5 114.5 -76.75 114.0 -76.5 108.5 -83.75 126.25 -53.75 118.0 -70.75 118.5 -71.0 128.25 -51.75 136.25 -25.25 138.5 -2.25 136.75 22.0 130.0 48.25 119.25 71.0 106.5 87.75 105.5 90.0 Q70.75 128.75 22.0 135.5 -32.0 139.25 -61.25 118.5 L-47.75 125.5 -27.5 131.0 -62.5 116.5 -66.75 115.75 -80.75 105.0 -81.5 104.25 -81.0 104.0 -71.75 110.25 -88.75 94.25 -107.75 66.25 -114.0 58.25 -121.0 45.0 -122.0 43.75 -122.25 41.25 -122.25 41.0 -123.0 36.25 -123.0 -6.0 -124.0 -30.0 -121.75 -43.75 -122.0 -44.5 Q-121.25 -48.25 -120.0 -48.0 L-115.5 -56.25 -88.5 -88.0 -88.75 -88.5 -67.0 -115.0 -0.75 -133.75 22.5 -135.0 29.75 -133.5 26.25 -133.75 M25.25 -144.25 L22.0 -140.5 Q21.0 -141.0 22.0 -144.25 L25.25 -144.25 M50.0 -114.0 L49.0 -116.5 5.0 -114.75 -1.5 -87.25 -1.25 -86.0 Q-60.5 -67.0 -75.0 -3.25 L-77.0 12.0 -77.25 22.25 -75.25 38.5 -71.5 50.75 Q-60.25 76.75 -40.0 84.25 L-47.25 113.75 -47.0 115.0 -5.0 116.75 -3.0 114.75 -1.75 110.0 -2.0 108.75 4.25 82.75 13.25 78.75 19.25 75.0 32.25 23.75 30.5 23.75 Q1.0 52.25 -17.5 46.5 -32.5 37.0 -26.75 2.25 -15.0 -38.0 8.5 -46.25 L15.25 -47.0 Q22.5 -45.75 25.75 -43.0 L33.0 -36.75 38.75 -28.75 42.5 -21.25 44.0 -21.0 55.0 -64.25 47.5 -72.75 41.25 -78.5 50.0 -114.0 M130.75 -40.5 L136.25 -11.5 135.25 -26.25 130.75 -40.5 M136.25 12.5 L134.75 17.5 135.0 19.0 131.0 39.25 135.5 24.5 136.25 12.5 M-22.75 132.25 L-22.5 133.0 -1.75 135.75 14.25 134.25 -22.75 132.25 M43.25 129.75 L60.5 122.0 28.0 132.5 26.25 133.25 27.75 133.25 43.25 129.75 M69.75 117.25 L70.75 117.25 85.0 107.75 95.5 97.5 69.75 117.25 M110.0 81.25 L118.0 71.0 124.25 56.75 110.0 81.25" fill="#ffffff" fill-opacity="0.7490196" fill-rule="evenodd" stroke="none"/>
  </g>
</svg>
