<?xml version="1.0" encoding="UTF-8" standalone="no"?>
<svg xmlns:ffdec="https://www.free-decompiler.com/flash" xmlns:xlink="http://www.w3.org/1999/xlink" ffdec:objectType="shape" height="291.15px" width="273.8px" xmlns="http://www.w3.org/2000/svg">
  <g transform="matrix(1.0, 0.0, 0.0, 1.0, 126.3, 145.75)">
    <path d="M97.5 -110.5 Q127.0 -83.25 137.5 -54.25 L144.75 -28.75 147.5 -1.0 Q146.0 57.25 112.25 95.5 66.75 143.25 20.25 145.0 -28.5 148.5 -68.5 119.5 L-84.5 105.25 -99.75 86.75 -111.5 66.5 -119.25 46.5 -124.75 22.75 Q-132.75 -35.25 -99.75 -87.5 L-86.25 -104.25 -68.75 -120.0 -49.25 -132.25 -28.25 -140.75 -5.5 -145.5 19.5 -145.75 42.75 -141.75 65.5 -133.0 85.25 -120.75 97.5 -110.5 M61.0 -123.75 Q17.5 -144.25 -26.25 -131.0 -73.75 -116.25 -102.25 -65.5 -114.25 -44.75 -117.5 -5.0 L-116.5 18.5 -112.0 40.0 Q-97.0 87.0 -63.0 111.75 -25.5 138.5 19.0 135.0 66.5 129.25 95.75 96.25 L96.75 95.5 97.75 94.5 99.75 92.0 100.25 91.5 113.0 74.25 121.25 56.75 122.0 55.5 122.0 55.25 124.25 51.0 126.0 44.0 126.25 43.5 126.5 42.25 126.75 41.5 Q141.75 3.5 123.75 -52.75 103.5 -102.5 61.0 -123.75" fill="#e6b904" fill-rule="evenodd" stroke="none"/>
    <path d="M46.25 -116.75 L43.25 -118.5 1.25 -114.75 -4.5 -87.0 -5.5 -85.75 Q-61.25 -62.75 -72.25 -1.75 L-74.0 16.75 -73.75 26.5 -71.0 43.0 Q-63.25 71.5 -40.5 82.75 L-47.0 113.0 -8.5 116.25 Q-7.75 117.0 -4.5 114.5 L2.25 82.25 2.75 82.0 8.25 80.0 15.75 75.75 16.75 74.25 29.0 23.5 26.0 23.75 25.5 24.5 Q4.0 45.75 -9.75 46.75 L-15.0 47.0 -20.5 44.75 Q-23.5 41.5 -25.5 35.75 -31.75 13.0 -23.25 -9.0 -14.75 -38.0 10.75 -47.25 23.5 -48.5 37.0 -22.0 L40.25 -21.25 51.0 -64.25 50.75 -65.5 46.5 -71.25 37.75 -78.75 46.25 -116.75 M61.0 -123.75 Q103.5 -102.5 123.75 -52.75 141.75 3.5 126.75 41.5 L126.5 42.25 126.25 43.5 126.0 44.0 124.25 51.0 122.0 55.25 122.0 55.5 121.25 56.75 113.0 74.25 100.25 91.5 99.75 92.0 97.75 94.5 96.75 95.5 95.75 96.25 Q66.5 129.25 19.0 135.0 -25.5 138.5 -63.0 111.75 -97.0 87.0 -112.0 40.0 L-116.5 18.5 -117.5 -5.0 Q-114.25 -44.75 -102.25 -65.5 -73.75 -116.25 -26.25 -131.0 17.5 -144.25 61.0 -123.75" fill="#d6b000" fill-rule="evenodd" stroke="none"/>
    <path d="M46.25 -116.75 L37.75 -78.75 46.5 -71.25 50.75 -65.5 51.0 -64.25 40.25 -21.25 37.0 -22.0 Q23.5 -48.5 10.75 -47.25 -14.75 -38.0 -23.25 -9.0 -31.75 13.0 -25.5 35.75 -23.5 41.5 -20.5 44.75 L-15.0 47.0 -9.75 46.75 Q4.0 45.75 25.5 24.5 L26.0 23.75 29.0 23.5 16.75 74.25 15.75 75.75 8.25 80.0 2.75 82.0 2.25 82.25 -4.5 114.5 Q-7.75 117.0 -8.5 116.25 L-47.0 113.0 -40.5 82.75 Q-63.25 71.5 -71.0 43.0 L-73.75 26.5 -74.0 16.75 -72.25 -1.75 Q-61.25 -62.75 -5.5 -85.75 L-4.5 -87.0 1.25 -114.75 43.25 -118.5 46.25 -116.75" fill="#563502" fill-rule="evenodd" stroke="none"/>
    <path d="M18.75 -145.5 L23.5 -145.0 18.5 -140.5 Q17.25 -141.25 18.75 -145.5 M25.25 -135.0 L24.0 -134.75 42.25 -128.75 87.0 -104.0 98.0 -95.25 104.0 -87.25 110.0 -76.75 109.5 -76.25 128.5 -28.25 129.5 -27.75 129.0 -27.25 130.25 -24.75 132.25 -14.25 Q139.0 2.75 119.5 60.5 L118.5 60.75 117.75 63.5 106.0 83.0 105.75 84.5 98.25 94.25 91.5 100.25 67.75 118.35 69.5 118.25 61.5 123.5 39.75 132.25 37.0 132.25 17.5 136.5 -5.25 136.25 -25.0 132.5 -46.5 124.25 -64.75 113.0 -79.5 100.0 -94.5 82.0 -105.75 62.25 -113.25 42.75 -118.0 21.75 -117.5 21.0 -112.75 35.5 -113.5 26.25 -117.0 5.75 -116.5 5.0 -117.0 -6.0 -112.25 -35.75 -112.25 -39.5 -112.75 -43.25 -111.5 -45.0 -108.25 -54.5 -107.5 -55.0 -108.75 -49.0 -104.5 -56.5 -100.75 -65.5 -86.25 -84.0 -75.5 -99.75 -64.25 -111.25 -64.0 -112.5 -58.5 -116.0 Q-58.0 -115.25 -60.25 -114.0 L-50.25 -119.0 -6.75 -133.0 19.0 -136.0 25.25 -135.0 M43.5 -118.5 L1.25 -114.75 -4.5 -86.0 Q-56.75 -69.25 -72.25 -1.75 L-74.0 16.5 -73.75 26.25 -71.0 42.5 Q-64.75 69.75 -40.5 82.75 L-46.75 113.0 -7.75 116.5 -4.25 114.5 2.0 84.25 Q2.0 81.5 3.25 82.0 L14.5 76.75 16.75 75.0 29.25 23.75 25.75 24.0 Q0.75 50.5 -18.25 46.0 -32.5 34.75 -25.75 -0.75 -15.25 -38.0 7.0 -46.5 L13.5 -46.75 21.0 -43.5 Q28.25 -40.25 37.25 -21.5 L40.5 -21.5 51.25 -65.5 43.5 -74.25 37.75 -79.0 46.25 -115.75 Q46.75 -117.25 43.5 -118.5 M72.5 116.0 L71.0 117.25 70.5 117.0 72.5 116.0 M23.25 134.25 L23.0 134.25 22.25 134.5 23.25 134.75 39.5 131.75 58.5 123.75 23.25 134.25 M83.75 108.0 L82.25 109.75 81.75 109.5 83.75 108.0 M-119.0 -9.5 L-118.25 -5.75 -118.75 0.0 -119.5 -0.25 -119.0 -9.5 M-69.25 106.0 L-90.75 83.0 Q-92.0 86.0 -79.75 98.5 L-69.25 106.0 M-57.75 115.0 L-60.0 114.75 -45.0 123.75 -29.25 129.0 -57.75 115.0 M-21.5 131.25 Q-20.5 133.5 -4.5 135.5 L11.0 135.0 -21.5 131.25 M-111.25 45.0 L-111.5 46.0 -104.75 62.75 -95.0 77.0 -95.0 75.75 -109.5 46.75 -111.25 45.0" fill="#ffffff" fill-opacity="0.7490196" fill-rule="evenodd" stroke="none"/>
  </g>
</svg>
