<?xml version="1.0" encoding="UTF-8" standalone="no"?>
<svg xmlns:ffdec="https://www.free-decompiler.com/flash" xmlns:xlink="http://www.w3.org/1999/xlink" ffdec:objectType="shape" height="292.75px" width="253.5px" xmlns="http://www.w3.org/2000/svg">
  <g transform="matrix(1.0, 0.0, 0.0, 1.0, 111.25, 146.75)">
    <path d="M40.25 -118.75 L35.75 -120.0 -2.25 -114.75 -8.0 -85.5 Q-53.75 -66.75 -66.5 -3.25 L-68.0 10.25 -68.25 20.5 -66.75 36.75 -64.5 46.5 Q-55.75 73.75 -39.25 81.75 L-45.0 111.25 -10.75 116.0 -6.0 114.75 0.5 82.25 8.5 78.75 12.75 76.0 24.5 24.75 24.5 23.75 19.75 24.0 19.5 24.75 Q1.5 44.75 -13.0 46.75 L-15.25 46.75 Q-18.5 46.25 -20.75 43.25 L-24.5 35.5 Q-30.0 16.75 -22.5 -9.0 -15.75 -36.0 6.75 -47.25 17.5 -49.0 30.25 -22.25 34.25 -21.0 35.0 -22.0 L44.75 -66.5 42.25 -70.5 37.0 -76.25 32.5 -79.75 40.25 -118.75 M71.75 -114.75 Q109.25 -85.0 120.5 -28.5 127.0 34.25 108.25 65.25 L108.0 65.75 108.0 66.0 103.25 76.75 97.25 85.0 96.5 86.25 96.25 86.5 88.0 98.0 71.75 114.0 59.25 121.75 58.75 122.25 58.0 122.75 Q18.75 144.75 -23.75 129.75 -60.75 114.75 -82.0 79.25 -105.0 39.0 -103.25 -3.5 L-102.0 -21.25 -97.75 -43.0 -91.25 -61.75 -83.25 -77.75 -70.75 -96.0 Q-45.0 -127.75 -5.25 -135.5 37.5 -142.0 71.75 -114.75" fill="#d6b000" fill-rule="evenodd" stroke="none"/>
    <path d="M71.75 -114.75 Q37.5 -142.0 -5.25 -135.5 -45.0 -127.75 -70.75 -96.0 L-83.25 -77.75 -91.25 -61.75 -97.75 -43.0 -102.0 -21.25 -103.25 -3.5 Q-105.0 39.0 -82.0 79.25 -60.75 114.75 -23.75 129.75 18.75 144.75 58.0 122.75 L58.75 122.25 59.25 121.75 71.75 114.0 88.0 98.0 96.25 86.5 96.5 86.25 97.25 85.0 103.25 76.75 108.0 66.0 108.0 65.75 108.25 65.25 Q127.0 34.25 120.5 -28.5 109.25 -85.0 71.75 -114.75 M142.25 -2.0 Q141.5 59.5 106.5 100.75 79.25 135.5 15.75 146.0 L-6.5 144.5 -26.5 139.0 -46.0 129.25 -62.5 116.75 -74.5 104.0 -87.75 85.75 -98.75 64.25 -105.5 44.0 -109.5 23.75 -111.25 0.0 -109.75 -22.5 -105.75 -43.75 -98.75 -65.0 -90.0 -82.75 -77.25 -101.75 Q-38.5 -146.75 13.0 -146.75 71.75 -141.0 106.25 -101.75 141.25 -60.25 142.25 -2.0" fill="#e6b904" fill-rule="evenodd" stroke="none"/>
    <path d="M40.25 -118.75 L32.5 -79.75 37.0 -76.25 42.25 -70.5 44.75 -66.5 35.0 -22.0 Q34.25 -21.0 30.25 -22.25 17.5 -49.0 6.75 -47.25 -15.75 -36.0 -22.5 -9.0 -30.0 16.75 -24.5 35.5 L-20.75 43.25 Q-18.5 46.25 -15.25 46.75 L-13.0 46.75 Q1.5 44.75 19.5 24.75 L19.75 24.0 24.5 23.75 24.5 24.75 12.75 76.0 8.5 78.75 0.5 82.25 -6.0 114.75 -10.75 116.0 -45.0 111.25 -39.25 81.75 Q-55.75 73.75 -64.5 46.5 L-66.75 36.75 -68.25 20.5 -68.0 10.25 -66.5 -3.25 Q-53.75 -66.75 -8.0 -85.5 L-2.25 -114.75 35.75 -120.0 40.25 -118.75" fill="#563502" fill-rule="evenodd" stroke="none"/>
    <path d="M27.0 -133.25 L59.75 -113.5 Q58.75 -111.75 59.75 -104.25 L61.25 -95.75 67.25 -77.25 74.25 -63.75 Q75.75 -61.75 74.75 -61.25 70.5 -42.5 79.25 -29.0 L85.25 -22.0 89.0 -19.5 95.0 -17.75 98.75 -17.75 Q103.0 -18.25 107.0 -21.75 L108.5 -21.0 121.25 -10.25 Q123.25 -7.0 123.25 0.0 L122.5 8.0 102.5 68.0 102.75 69.0 98.25 82.0 98.75 82.5 98.0 83.0 98.25 84.0 89.5 97.0 82.0 104.0 73.0 111.0 72.0 111.0 72.25 111.5 70.0 112.0 55.75 119.25 35.5 130.5 16.5 135.75 16.25 135.75 Q8.25 136.0 0.75 135.4 L9.5 135.5 -21.5 130.25 -22.75 131.0 Q-61.55 119.3 -85.0 79.25 L-94.25 60.25 -100.5 41.75 -104.5 21.75 -105.75 3.75 -104.5 -21.25 -100.5 -42.0 -98.25 -47.0 -94.25 -60.25 -89.0 -71.0 -88.25 -71.25 -93.5 -60.75 -95.75 -48.0 -93.25 -52.5 -93.5 -53.25 -92.0 -55.5 -83.5 -77.0 Q-82.25 -77.0 -79.5 -83.0 L-58.5 -108.75 -58.5 -110.5 -51.5 -115.5 Q-51.25 -114.5 -54.75 -111.75 L-46.5 -116.75 -25.5 -124.25 -2.25 -133.75 9.25 -136.0 16.5 -136.5 17.75 -136.25 27.0 -133.25 M18.75 -146.25 L14.5 -142.75 Q13.25 -143.25 14.5 -146.5 L18.75 -146.25 M40.5 -118.25 L36.5 -120.0 -2.25 -114.75 -7.5 -86.0 Q-54.25 -65.0 -66.0 -6.0 L-68.0 9.75 -68.25 20.25 -66.5 37.5 -64.25 47.25 Q-55.25 73.5 -39.25 82.25 L-45.0 111.25 -10.0 116.0 -6.0 114.75 -5.5 113.25 0.5 82.25 9.0 78.5 13.5 75.25 24.75 24.25 19.5 24.5 Q2.0 46.75 -17.5 46.0 -29.75 38.5 -25.25 1.75 -19.5 -32.0 5.25 -46.75 L10.5 -46.5 16.75 -42.75 24.5 -33.75 30.25 -21.75 34.75 -21.5 35.25 -22.25 45.25 -66.25 39.0 -74.25 32.75 -80.0 40.5 -118.25 M-84.75 -78.25 L-84.75 -79.5 -80.0 -85.5 -76.5 -91.5 -75.5 -92.0 -82.25 -79.5 -84.75 -78.25 M-51.75 113.25 L-53.75 113.0 -53.25 113.75 -43.25 121.25 -27.5 127.75 -51.75 113.25 M-103.0 5.25 Q-105.5 6.75 -103.25 20.75 L-100.0 31.0 -101.0 18.0 -103.0 5.25 M-95.25 48.75 L-96.75 48.75 -92.25 61.25 -86.25 70.5 -95.25 48.75 M-78.5 84.0 Q-80.25 86.25 -72.0 95.5 L-63.5 102.5 -78.5 84.0 M-100.0 -37.0 L-100.75 -36.5 -103.5 -21.75 -102.75 -7.75 -102.0 -9.5 -99.25 -35.5 -100.0 -37.0" fill="#ffffff" fill-opacity="0.7490196" fill-rule="evenodd" stroke="none"/>
  </g>
</svg>
