<?xml version="1.0" encoding="UTF-8" standalone="no"?>
<svg xmlns:ffdec="https://www.free-decompiler.com/flash" xmlns:xlink="http://www.w3.org/1999/xlink" ffdec:objectType="shape" height="294.25px" width="224.05px" xmlns="http://www.w3.org/2000/svg">
  <g transform="matrix(1.0, 0.0, 0.0, 1.0, 94.05, 147.5)">
    <path d="M32.75 -120.25 L26.75 -121.5 -6.0 -114.75 -10.25 -86.5 -11.0 -85.25 Q-48.5 -65.75 -59.0 -2.5 L-60.25 13.0 -60.25 23.75 -59.0 36.25 Q-54.75 67.0 -36.75 80.25 L-41.5 109.5 -13.25 115.5 -7.0 114.5 -1.5 82.25 1.75 81.0 9.0 76.25 19.0 24.0 Q12.75 23.5 12.5 25.0 -6.0 47.25 -14.75 46.5 -16.5 46.5 -19.25 43.25 L-22.5 35.0 Q-27.0 9.0 -20.75 -9.0 -14.25 -37.0 3.0 -47.0 11.0 -48.5 21.75 -22.5 L28.0 -21.75 36.5 -67.5 31.0 -75.75 26.0 -80.5 32.75 -120.25 M9.5 -137.25 Q42.25 -139.5 74.75 -101.0 L88.5 -78.0 97.25 -56.5 103.5 -29.5 Q111.5 29.0 88.25 77.5 L88.0 78.0 88.0 78.25 87.5 79.25 87.0 80.0 86.5 81.0 79.75 92.0 79.25 92.5 75.0 100.0 73.0 101.75 60.0 116.25 53.0 121.0 52.5 121.25 52.0 121.75 Q22.75 145.0 -18.5 130.0 -51.25 115.0 -71.0 74.5 L-77.75 57.25 -83.25 36.75 -83.0 34.75 -86.0 17.5 -86.75 -1.25 -85.5 -22.5 -82.75 -39.0 -77.0 -60.25 -69.75 -77.75 -60.75 -93.5 -51.0 -106.25 Q-24.75 -136.25 9.5 -137.25" fill="#d6b000" fill-rule="evenodd" stroke="none"/>
    <path d="M9.5 -137.25 Q-24.75 -136.25 -51.0 -106.25 L-60.75 -93.5 -69.75 -77.75 -77.0 -60.25 -82.75 -39.0 -85.5 -22.5 -86.75 -1.25 -86.0 17.5 -83.0 34.75 -83.25 36.75 -77.75 57.25 -71.0 74.5 Q-51.25 115.0 -18.5 130.0 22.75 145.0 52.0 121.75 L52.5 121.25 53.0 121.0 60.0 116.25 73.0 101.75 75.0 100.0 79.25 92.5 79.75 92.0 86.5 81.0 87.0 80.0 87.5 79.25 88.0 78.25 88.0 78.0 88.25 77.5 Q111.5 29.0 103.5 -29.5 L97.25 -56.5 88.5 -78.0 74.75 -101.0 Q42.25 -139.5 9.5 -137.25 M130.0 -1.25 Q129.0 62.25 96.75 104.5 L80.75 121.0 Q71.9 127.15 63.0 133.25 L46.0 139.75 30.5 144.25 10.25 146.75 -8.0 144.25 -25.0 137.75 -40.75 127.5 -54.75 114.0 -64.25 101.5 -76.25 80.75 -83.5 62.5 -89.0 42.5 -92.0 23.75 -93.5 0.75 Q-98.0 -37.5 -66.75 -98.75 -31.0 -148.0 9.5 -147.5 69.5 -143.0 96.25 -105.75 128.25 -65.25 130.0 -1.25" fill="#e6b904" fill-rule="evenodd" stroke="none"/>
    <path d="M32.75 -120.25 L26.0 -80.5 31.0 -75.75 36.5 -67.5 28.0 -21.75 21.75 -22.5 Q11.0 -48.5 3.0 -47.0 -14.25 -37.0 -20.75 -9.0 -27.0 9.0 -22.5 35.0 L-19.25 43.25 Q-16.5 46.5 -14.75 46.5 -6.0 47.25 12.5 25.0 12.75 23.5 19.0 24.0 L9.0 76.25 1.75 81.0 -1.5 82.25 -7.0 114.5 -13.25 115.5 -41.5 109.5 -36.75 80.25 Q-54.75 67.0 -59.0 36.25 L-60.25 23.75 -60.25 13.0 -59.0 -2.5 Q-48.5 -65.75 -11.0 -85.25 L-10.25 -86.5 -6.0 -114.75 26.75 -121.5 32.75 -120.25" fill="#563502" fill-rule="evenodd" stroke="none"/>
    <path d="M-84.5 23.0 L-85.75 12.5 Q-87.25 13.0 -86.25 20.25 L-85.0 24.0 -84.5 23.0 M-65.0 85.0 L-66.0 85.0 -65.75 85.75 -62.0 92.75 -55.0 100.0 -65.0 85.0 M-79.0 52.25 Q-80.25 53.0 -78.0 58.25 L-75.5 62.5 -79.0 52.25 M-86.0 -12.0 L-85.25 -14.0 -83.5 -33.25 Q-86.25 -32.5 -86.75 -19.75 L-86.0 -12.0 M-50.0 -107.25 L-50.5 -108.25 -48.25 -110.0 -48.25 -109.25 -32.25 -116.0 -40.75 -102.75 -46.5 -89.0 -48.0 -82.25 -48.25 -74.5 -49.0 -74.0 -53.5 -60.0 -58.0 -37.75 -59.5 -19.75 -59.5 -6.0 -58.75 -1.25 -60.0 7.5 -60.25 23.5 -59.25 34.75 -57.25 45.75 Q-49.5 73.25 -36.75 80.25 L-41.25 109.25 -14.0 115.5 -6.25 114.0 Q-1.75 127.25 10.5 136.0 L-4.0 132.0 -11.0 131.25 -22.0 128.75 Q-29.4 125.55 -36.05 121.15 L-24.0 127.25 -46.5 110.0 -47.75 110.75 -39.9 118.4 Q-71.3 94.9 -84.75 41.75 L-88.75 17.75 -88.5 9.5 -89.5 -2.25 -88.75 -5.0 -88.25 -22.25 -87.5 -23.5 -85.25 -40.25 -81.75 -51.0 -80.0 -59.25 -76.3 -67.4 Q-77.65 -63.95 -79.0 -59.0 L-80.5 -46.75 -70.75 -75.25 Q-72.45 -75.25 -74.25 -72.0 L-74.0 -74.0 -73.0 -75.0 -72.5 -77.75 -70.25 -80.5 -63.75 -93.0 -63.25 -92.75 -68.0 -80.5 -50.0 -107.25" fill="#ffffff" fill-opacity="0.7490196" fill-rule="evenodd" stroke="none"/>
  </g>
</svg>
