<?xml version="1.0" encoding="UTF-8" standalone="no"?>
<svg xmlns:ffdec="https://www.free-decompiler.com/flash" xmlns:xlink="http://www.w3.org/1999/xlink" ffdec:objectType="shape" height="294.75px" width="184.7px" xmlns="http://www.w3.org/2000/svg">
  <g transform="matrix(1.0, 0.0, 0.0, 1.0, 74.45, 147.75)">
    <path d="M23.5 -121.5 L16.0 -122.25 -9.25 -114.25 -12.75 -85.0 Q-41.25 -66.75 -49.75 -1.75 L-50.5 25.25 -50.0 32.75 Q-45.5 69.25 -33.0 79.25 L-36.5 108.0 -14.75 115.0 -7.75 114.0 -3.5 82.25 0.25 80.25 4.75 76.5 12.75 24.0 Q5.25 23.25 5.0 25.25 -7.75 45.25 -14.5 46.0 L-17.5 42.5 -19.75 34.75 -21.0 25.5 -21.25 15.75 -20.75 6.75 -18.5 -8.75 Q-14.25 -34.0 -1.0 -46.5 6.75 -43.0 12.25 -22.75 L19.75 -22.0 26.5 -68.25 23.25 -75.0 18.25 -81.25 23.5 -121.5 M67.0 -82.25 L74.5 -59.25 80.0 -30.75 81.75 1.5 Q78.25 65.75 62.5 90.0 L56.5 102.5 54.0 105.5 53.5 106.0 44.75 117.75 43.0 119.5 31.0 129.75 28.0 131.0 Q9.75 144.75 -20.5 127.0 L-30.0 118.5 -40.75 105.25 -48.25 92.0 -55.5 75.75 -61.75 55.5 Q-83.75 -47.25 -31.75 -117.25 -7.0 -143.25 17.75 -136.5 45.0 -129.75 67.0 -82.25" fill="#d6b000" fill-rule="evenodd" stroke="none"/>
    <path d="M18.5 -146.75 L36.0 -143.75 53.0 -137.25 67.25 -126.25 81.0 -109.75 Q108.25 -69.75 110.25 -1.0 109.5 63.0 82.5 106.75 L69.25 123.5 53.75 136.0 Q46.4 139.15 39.0 142.25 L23.5 145.25 7.0 147.0 Q-23.5 147.25 -49.0 105.25 L-53.75 96.75 -59.0 84.25 -66.25 62.0 -70.5 42.0 -73.0 22.0 -74.0 -0.25 Q-77.5 -34.5 -54.0 -97.0 L-45.0 -113.0 -36.0 -124.75 -24.75 -135.5 -10.75 -144.0 3.75 -147.75 18.5 -146.75 M67.0 -82.25 Q45.0 -129.75 17.75 -136.5 -7.0 -143.25 -31.75 -117.25 -83.75 -47.25 -61.75 55.5 L-55.5 75.75 -48.25 92.0 -40.75 105.25 -30.0 118.5 -20.5 127.0 Q9.75 144.75 28.0 131.0 L31.0 129.75 43.0 119.5 44.75 117.75 53.5 106.0 54.0 105.5 56.5 102.5 62.5 90.0 Q78.25 65.75 81.75 1.5 L80.0 -30.75 74.5 -59.25 67.0 -82.25" fill="#e6b904" fill-rule="evenodd" stroke="none"/>
    <path d="M23.5 -121.5 L18.25 -81.25 23.25 -75.0 26.5 -68.25 19.75 -22.0 12.25 -22.75 Q6.75 -43.0 -1.0 -46.5 -14.25 -34.0 -18.5 -8.75 L-20.75 6.75 -21.25 15.75 -21.0 25.5 -19.75 34.75 -17.5 42.5 -14.5 46.0 Q-7.75 45.25 5.0 25.25 5.25 23.25 12.75 24.0 L4.75 76.5 0.25 80.25 -3.5 82.25 -7.75 114.0 -14.75 115.0 -36.5 108.0 -33.0 79.25 Q-45.5 69.25 -50.0 32.75 L-50.5 25.25 -49.75 -1.75 Q-41.25 -66.75 -12.75 -85.0 L-9.25 -114.25 16.0 -122.25 23.5 -121.5" fill="#563502" fill-rule="evenodd" stroke="none"/>
    <path d="M81.5 -65.5 L83.25 -62.0 88.75 -34.25 89.75 -13.0 88.75 -20.25 88.5 -31.25 83.0 -61.5 81.5 -65.5 M-55.0 -77.0 L-56.0 -74.25 -55.5 -73.75 -56.0 -72.75 -56.5 -73.75 Q-63.75 -67.75 -67.0 -21.75 -65.5 -25.0 -66.0 -30.5 L-65.25 -30.75 -65.25 -11.75 -58.0 38.75 -49.25 81.5 -43.75 98.0 -44.25 98.25 -51.0 85.75 -52.0 85.5 -50.25 90.25 -44.25 99.75 -41.0 107.75 -41.5 108.0 -43.0 106.25 -51.75 91.0 -58.0 76.25 -64.0 57.25 -68.0 37.75 -70.0 20.75 -70.75 5.25 -70.25 -17.0 -67.5 -38.0 -67.75 -40.75 -67.0 -41.0 -63.75 -59.25 -63.0 -59.5 -61.0 -67.75 -58.25 -75.0 -58.5 -76.0 -57.25 -77.5 -54.0 -86.5 -53.5 -84.75 -54.75 -77.75 -55.0 -77.25 -55.0 -77.0" fill="#ffffff" fill-opacity="0.7490196" fill-rule="evenodd" stroke="none"/>
  </g>
</svg>
