<?xml version="1.0" encoding="UTF-8" standalone="no"?>
<svg xmlns:ffdec="https://www.free-decompiler.com/flash" xmlns:xlink="http://www.w3.org/1999/xlink" ffdec:objectType="shape" height="295.25px" width="136.25px" xmlns="http://www.w3.org/2000/svg">
  <g transform="matrix(1.0, 0.0, 0.0, 1.0, 53.0, 148.0)">
    <path d="M-30.25 104.0 L-36.25 88.5 -41.0 71.5 -46.5 38.5 -48.25 16.25 -48.75 -3.25 -46.25 -42.0 Q-36.25 -121.25 -2.5 -136.75 5.25 -144.5 25.75 -121.25 L34.75 -104.75 41.25 -86.25 47.75 -58.75 50.75 -35.25 52.5 0.25 51.0 31.75 47.75 57.75 42.25 81.5 37.25 96.25 37.0 96.75 Q27.0 125.5 12.75 133.25 -7.0 147.5 -27.75 108.25 L-16.0 114.25 -8.25 113.75 -5.25 82.25 0.25 76.5 5.75 24.25 Q-2.25 23.0 -2.75 25.25 L-8.0 36.75 Q-12.0 43.5 -14.0 44.25 L-15.5 40.0 -16.25 34.5 -17.25 16.25 -15.5 -8.75 -12.25 -26.5 -9.5 -35.5 -5.0 -44.5 -2.0 -39.25 2.0 -23.25 Q2.75 -21.5 10.75 -22.75 L15.25 -68.75 12.5 -76.5 9.5 -81.5 13.25 -122.25 4.75 -122.75 -12.25 -114.0 -14.75 -84.5 Q-29.25 -71.75 -36.75 -22.0 L-39.0 -1.25 -39.5 22.25 -38.25 42.5 Q-37.0 64.0 -28.0 78.25 L-30.25 104.0" fill="#d6b000" fill-rule="evenodd" stroke="none"/>
    <path d="M-1.25 -148.0 L29.5 -145.25 Q35.4 -142.35 41.25 -139.5 L51.25 -129.25 60.5 -114.5 Q82.0 -71.75 83.25 -3.5 83.25 64.75 62.25 110.75 L52.25 127.5 41.5 138.5 30.75 144.25 0.25 147.25 Q-17.75 145.75 -34.0 111.0 L-39.75 95.75 -44.75 77.75 -48.0 61.25 -50.75 42.0 -53.0 5.5 -52.75 -15.0 -51.0 -40.5 -48.5 -59.5 -45.0 -77.25 -40.0 -95.75 -32.5 -114.75 -27.25 -125.25 -20.0 -135.5 -10.75 -144.0 -1.25 -148.0 M-27.75 108.25 Q-7.0 147.5 12.75 133.25 27.0 125.5 37.0 96.75 L37.25 96.25 42.25 81.5 47.75 57.75 51.0 31.75 52.5 0.25 50.75 -35.25 47.75 -58.75 41.25 -86.25 34.75 -104.75 25.75 -121.25 Q5.25 -144.5 -2.5 -136.75 -36.25 -121.25 -46.25 -42.0 L-48.75 -3.25 -48.25 16.25 -46.5 38.5 -41.0 71.5 -36.25 88.5 -30.25 104.0 -30.0 104.5 -30.0 107.0 -27.75 108.25" fill="#e6b904" fill-rule="evenodd" stroke="none"/>
    <path d="M-30.25 104.0 L-28.0 78.25 Q-37.0 64.0 -38.25 42.5 L-39.5 22.25 -39.0 -1.25 -36.75 -22.0 Q-29.25 -71.75 -14.75 -84.5 L-12.25 -114.0 4.75 -122.75 13.25 -122.25 9.5 -81.5 12.5 -76.5 15.25 -68.75 10.75 -22.75 Q2.75 -21.5 2.0 -23.25 L-2.0 -39.25 -5.0 -44.5 -9.5 -35.5 -12.25 -26.5 -15.5 -8.75 -17.25 16.25 -16.25 34.5 -15.5 40.0 -14.0 44.25 Q-12.0 43.5 -8.0 36.75 L-2.75 25.25 Q-2.25 23.0 5.75 24.25 L0.25 76.5 -5.25 82.25 -8.25 113.75 -16.0 114.25 -27.75 108.25 -30.0 107.0 -30.0 104.5 -30.25 104.0" fill="#563502" fill-rule="evenodd" stroke="none"/>
    <path d="M47.5 -89.25 L44.5 -97.5 Q68.75 -37.0 56.75 40.25 L56.25 40.0 57.5 33.0 57.0 31.25 57.75 29.0 57.5 20.75 58.5 4.5 57.25 -30.75 53.0 -64.0 47.5 -89.25 M-46.75 -56.75 L-44.5 -65.5 -44.75 -59.75 Q-45.0 -55.25 -46.5 -53.75 L-47.75 -41.25 -48.25 -38.5 -47.25 -28.75 -47.75 -15.5 -47.0 -6.75 -47.0 16.25 -46.25 27.25 -46.75 31.5 -46.5 38.25 -45.25 44.5 -45.0 45.25 -45.0 46.0 -44.75 46.5 -38.75 73.75 -37.75 81.5 -36.75 85.25 Q-38.75 83.0 -39.25 87.0 L-43.25 73.25 -46.5 57.25 -49.0 39.75 -50.75 18.75 -51.25 0.75 -50.75 -20.25 -50.0 -23.0 -49.25 -38.75 -48.5 -40.5 -46.75 -56.75" fill="#ffffff" fill-opacity="0.7490196" fill-rule="evenodd" stroke="none"/>
  </g>
</svg>
