<?xml version="1.0" encoding="UTF-8" standalone="no"?>
<svg xmlns:ffdec="https://www.free-decompiler.com/flash" xmlns:xlink="http://www.w3.org/1999/xlink" ffdec:objectType="shape" height="294.75px" width="81.5px" xmlns="http://www.w3.org/2000/svg">
  <g transform="matrix(1.0, 0.0, 0.0, 1.0, 31.0, 147.75)">
    <path d="M-23.25 103.75 L-27.0 80.5 -30.0 46.25 -31.0 24.75 -31.0 -24.75 -29.5 -54.5 -26.25 -87.0 -22.75 -109.0 -19.75 -121.75 -15.5 -135.25 -11.25 -143.5 -6.75 -147.75 21.0 -146.5 26.5 -142.0 Q40.75 -123.25 47.0 -67.0 L49.75 -33.5 50.5 -4.25 49.75 32.25 47.5 61.25 43.75 89.75 39.0 112.0 33.5 129.0 Q28.0 141.5 21.25 145.75 L-6.5 147.0 Q-15.75 143.0 -23.0 106.5 L-16.5 113.75 -12.0 127.0 Q-8.0 135.75 -4.25 137.0 -2.5 137.25 2.0 131.25 L7.0 118.25 10.5 105.5 13.25 88.5 13.5 87.75 17.0 59.25 18.75 29.75 19.25 -11.75 18.75 -32.5 16.5 -64.5 14.25 -84.75 11.25 -102.25 6.75 -120.5 2.0 -132.0 -3.0 -137.5 Q-4.5 -138.5 -8.25 -134.5 L-12.75 -126.25 -19.5 -102.75 -24.0 -75.0 -27.0 -41.25 -28.25 -3.5 -27.5 13.5 -27.25 23.0 -27.5 33.25 -26.5 51.25 -24.25 69.5 -22.5 82.0 -22.25 83.25 -22.25 85.75 -22.5 86.25 -22.75 99.0 -23.0 99.5 -23.25 103.75" fill="#e6b904" fill-rule="evenodd" stroke="none"/>
    <path d="M-22.5 82.0 L-24.25 69.5 -22.25 77.0 -22.5 82.0 M-27.5 13.5 L-28.25 -3.5 -27.0 -41.25 -24.0 -75.0 -19.5 -102.75 -12.75 -126.25 -8.25 -134.5 Q-4.5 -138.5 -3.0 -137.5 L2.0 -132.0 6.75 -120.5 11.25 -102.25 14.25 -84.75 16.5 -64.5 18.75 -32.5 19.25 -11.75 18.75 29.75 17.0 59.25 13.5 87.75 13.25 88.5 10.5 105.5 7.0 118.25 2.0 131.25 Q-2.5 137.25 -4.25 137.0 -8.0 135.75 -12.0 127.0 L-16.5 113.75 -8.25 113.5 -7.0 82.0 -4.25 76.5 -1.5 24.25 -10.25 24.25 -10.5 26.5 -12.25 33.0 -12.75 15.75 -11.75 -8.75 -9.25 -32.75 Q-9.25 -28.7 -8.25 -24.75 -8.5 -20.0 1.0 -22.5 L3.25 -69.0 0.25 -81.75 2.25 -122.5 Q-6.25 -123.5 -7.0 -122.5 L-15.0 -113.25 -15.75 -86.0 -16.0 -85.25 -16.0 -84.25 -16.5 -83.25 -20.5 -69.5 -22.75 -55.75 -23.0 -55.0 -23.0 -53.75 -23.25 -52.75 -26.25 -22.25 -27.0 -8.0 -27.5 13.5" fill="#d6b000" fill-rule="evenodd" stroke="none"/>
    <path d="M-23.0 106.5 L-23.0 105.25 -23.25 103.75 -23.0 99.5 -22.75 99.0 -22.5 86.25 -22.25 85.75 -22.25 83.25 -22.5 82.0 -22.25 77.0 -24.25 69.5 -26.5 51.25 -27.5 33.25 -27.25 23.0 -27.5 13.5 -27.0 -8.0 -26.25 -22.25 -23.25 -52.75 -23.0 -53.75 -23.0 -55.0 -22.75 -55.75 -20.5 -69.5 -16.5 -83.25 -16.0 -84.25 -16.0 -85.25 -15.75 -86.0 -15.0 -113.25 -7.0 -122.5 Q-6.25 -123.5 2.25 -122.5 L0.25 -81.75 3.25 -69.0 1.0 -22.5 Q-8.5 -20.0 -8.25 -24.75 -9.25 -28.7 -9.25 -32.75 L-11.75 -8.75 -12.75 15.75 -12.25 33.0 -10.5 26.5 -10.25 24.25 -1.5 24.25 -4.25 76.5 -7.0 82.0 -8.25 113.5 -16.5 113.75 -23.0 106.5" fill="#563502" fill-rule="evenodd" stroke="none"/>
    <path d="M16.0 -97.0 Q32.5 -41.5 21.75 44.5 L21.25 44.25 22.5 26.75 23.0 0.5 22.25 -2.75 22.75 -3.0 21.75 -33.25 22.25 -33.75 21.5 -35.75 22.0 -36.75 19.25 -74.25 16.0 -97.0 M-27.25 -25.25 L-27.75 -0.5 -27.5 0.0 -27.75 4.0 -27.0 26.0 -27.5 27.0 -29.5 23.0 -29.25 35.0 -26.25 45.75 -25.5 59.5 -24.5 64.25 Q-24.0 66.5 -25.0 66.75 L-28.0 55.75 -29.75 37.75 -30.5 -19.25 -29.5 -35.0 -28.5 -33.25 -27.25 -25.25" fill="#ffffff" fill-opacity="0.7490196" fill-rule="evenodd" stroke="none"/>
  </g>
</svg>
