<?xml version="1.0" encoding="UTF-8" standalone="no"?>
<svg xmlns:ffdec="https://www.free-decompiler.com/flash" xmlns:xlink="http://www.w3.org/1999/xlink" ffdec:objectType="shape" height="293.75px" width="36.25px" xmlns="http://www.w3.org/2000/svg">
  <g transform="matrix(1.0, 0.0, 0.0, 1.0, 18.25, 147.25)">
    <path d="M-13.75 -122.5 L-12.5 -147.0 11.25 -147.25 13.0 -109.25 13.75 -32.5 13.25 88.25 12.5 123.0 11.25 146.5 -12.25 146.5 -14.0 113.25 -15.75 24.25 -13.75 -122.5" fill="#e6b904" fill-rule="evenodd" stroke="none"/>
    <path d="M13.0 -109.25 L15.25 -109.25 15.5 -83.0 16.75 -67.5 17.5 -32.5 18.0 33.75 17.75 63.25 16.5 88.25 16.75 123.0 12.5 123.0 13.25 88.25 13.75 -32.5 13.0 -109.25 M-14.0 113.25 L-16.5 113.25 -17.5 24.25 -15.75 24.25 -16.0 -22.25 -18.0 -22.25 -18.25 -69.0 -17.75 -81.75 -18.0 -122.0 -13.75 -122.5 -15.75 24.25 -14.0 113.25" fill="#d19e03" fill-rule="evenodd" stroke="none"/>
    <path d="M-13.0 -69.25 L-11.5 -35.75 -12.25 0.5 -14.5 25.0 -15.0 -26.75 -14.25 -77.5 -13.0 -69.25" fill="#ffffff" fill-opacity="0.7490196" fill-rule="evenodd" stroke="none"/>
  </g>
</svg>
