<?xml version="1.0" encoding="UTF-8" standalone="no"?>
<svg xmlns:ffdec="https://www.free-decompiler.com/flash" xmlns:xlink="http://www.w3.org/1999/xlink" ffdec:objectType="shape" height="294.75px" width="81.75px" xmlns="http://www.w3.org/2000/svg">
  <g transform="matrix(1.0, 0.0, 0.0, 1.0, 51.75, 147.75)">
    <path d="M22.5 -103.5 L16.25 -110.0 Q11.75 -133.0 3.0 -137.5 L1.75 -137.5 Q-21.75 -115.5 -20.25 28.25 L-18.5 57.25 -15.5 84.5 -11.75 105.5 -7.5 121.25 Q5.0 155.0 15.0 114.5 L15.0 114.0 15.25 113.5 15.25 113.0 18.25 103.0 20.75 89.25 23.25 70.5 26.75 18.5 26.75 -19.25 25.75 -38.25 23.0 -74.0 22.25 -75.75 23.25 -99.0 26.25 -78.5 29.25 -41.5 30.0 -22.75 30.0 22.0 26.5 75.5 22.25 104.75 19.75 116.5 15.25 132.0 Q10.0 145.5 5.5 147.0 L-22.5 145.75 Q-34.5 141.5 -44.5 91.75 L-48.25 65.5 -50.5 38.0 -51.75 0.0 -51.0 -29.5 -47.5 -71.75 -44.75 -91.25 -38.25 -118.75 Q-28.75 -146.0 -22.75 -146.25 L5.25 -147.75 Q14.0 -146.25 22.5 -103.5" fill="#e6b904" fill-rule="evenodd" stroke="none"/>
    <path d="M16.25 -110.0 L8.75 -109.5 7.75 -83.25 Q-1.5 -77.25 -5.75 -32.5 L-7.5 -14.75 -8.25 6.0 -7.75 48.75 Q-5.25 85.25 0.25 88.5 L-1.25 123.25 7.25 123.5 15.0 114.5 Q5.0 155.0 -7.5 121.25 L-11.75 105.5 -15.5 84.5 -18.5 57.25 -20.25 28.25 Q-21.75 -115.5 1.75 -137.5 L3.0 -137.5 Q11.75 -133.0 16.25 -110.0 M15.25 113.0 L16.25 81.5 18.75 70.75 20.5 22.0 13.0 21.25 11.0 32.25 10.5 30.5 11.0 -5.75 13.5 -30.0 14.75 -21.75 Q13.75 -17.0 22.25 -19.0 L24.0 -56.25 22.0 -68.5 22.25 -75.75 23.0 -74.0 25.75 -38.25 26.75 -19.25 26.75 18.5 23.25 70.5 20.75 89.25 18.25 103.0 15.25 113.0" fill="#d6b000" fill-rule="evenodd" stroke="none"/>
    <path d="M22.5 -103.5 L23.25 -102.25 23.25 -99.0 22.25 -75.75 22.0 -68.5 24.0 -56.25 22.25 -19.0 Q13.75 -17.0 14.75 -21.75 L13.5 -30.0 11.0 -5.75 10.5 30.5 11.0 32.25 13.0 21.25 20.5 22.0 18.75 70.75 16.25 81.5 15.25 113.0 15.25 113.5 15.0 114.0 15.0 114.5 7.25 123.5 -1.25 123.25 0.25 88.5 Q-5.25 85.25 -7.75 48.75 L-8.25 6.0 -7.5 -14.75 -5.75 -32.5 Q-1.5 -77.25 7.75 -83.25 L8.75 -109.5 16.25 -110.0 22.5 -103.5" fill="#563502" fill-rule="evenodd" stroke="none"/>
  </g>
</svg>
