<?xml version="1.0" encoding="UTF-8" standalone="no"?>
<svg xmlns:ffdec="https://www.free-decompiler.com/flash" xmlns:xlink="http://www.w3.org/1999/xlink" ffdec:objectType="shape" height="295.25px" width="136.5px" xmlns="http://www.w3.org/2000/svg">
  <g transform="matrix(1.0, 0.0, 0.0, 1.0, 84.5, 148.0)">
    <path d="M31.25 -98.75 L31.75 -103.0 29.25 -104.75 Q8.25 -144.75 -8.75 -137.25 -28.75 -131.0 -43.0 -85.0 -65.5 -2.5 -41.25 88.75 L-35.25 105.25 -26.5 121.0 -16.25 132.0 Q-5.75 138.75 -2.25 137.25 18.0 133.5 32.25 96.5 L39.75 72.0 43.0 55.75 45.75 34.75 47.0 18.25 47.5 -4.0 45.5 -38.75 43.0 -56.75 36.75 -83.75 31.25 -98.75 M47.25 -60.25 L50.0 -40.0 52.0 -2.5 51.5 18.5 50.0 39.25 47.5 58.0 44.5 73.5 38.25 96.75 33.75 109.0 27.25 122.25 18.5 135.25 10.5 142.5 0.0 147.25 -30.0 144.5 -41.5 139.25 -53.0 127.75 -63.25 111.0 Q-83.75 68.0 -84.5 0.5 -84.0 -66.75 -63.5 -111.25 L-53.5 -128.0 -42.0 -139.75 -31.75 -145.0 -1.25 -148.0 Q19.0 -147.25 36.25 -103.0 L42.0 -84.5 47.25 -60.25" fill="#e6b904" fill-rule="evenodd" stroke="none"/>
    <path d="M29.25 -104.75 L17.5 -110.5 Q10.25 -111.0 10.0 -109.25 L7.75 -83.5 Q-8.75 -80.0 -19.25 -32.5 L-22.75 -13.75 -24.5 6.5 -24.5 36.5 -23.5 48.0 Q-17.0 87.5 -7.5 88.5 L-10.5 123.0 -2.75 123.75 14.0 115.0 14.25 114.25 Q15.0 79.75 19.5 76.75 L22.0 71.5 26.0 21.75 19.0 21.5 18.5 22.25 16.25 29.25 12.0 38.5 7.25 44.75 5.0 33.5 4.5 7.0 7.0 -14.5 12.0 -34.25 16.0 -42.0 Q20.25 -36.25 22.5 -19.0 L29.5 -19.5 33.0 -57.0 31.75 -63.5 29.0 -71.5 31.25 -98.75 36.75 -83.75 43.0 -56.75 45.5 -38.75 47.5 -4.0 47.0 18.25 45.75 34.75 43.0 55.75 39.75 72.0 32.25 96.5 Q18.0 133.5 -2.25 137.25 -5.75 138.75 -16.25 132.0 L-26.5 121.0 -35.25 105.25 -41.25 88.75 Q-65.5 -2.5 -43.0 -85.0 -28.75 -131.0 -8.75 -137.25 8.25 -144.75 29.25 -104.75" fill="#d6b000" fill-rule="evenodd" stroke="none"/>
    <path d="M31.25 -98.75 L29.0 -71.5 31.75 -63.5 33.0 -57.0 29.5 -19.5 22.5 -19.0 Q20.25 -36.25 16.0 -42.0 L12.0 -34.25 7.0 -14.5 4.5 7.0 5.0 33.5 7.25 44.75 12.0 38.5 16.25 29.25 18.5 22.25 19.0 21.5 26.0 21.75 22.0 71.5 19.5 76.75 Q15.0 79.75 14.25 114.25 L14.0 115.0 -2.75 123.75 -10.5 123.0 -7.5 88.5 Q-17.0 87.5 -23.5 48.0 L-24.5 36.5 -24.5 6.5 -22.75 -13.75 -19.25 -32.5 Q-8.75 -80.0 7.75 -83.5 L10.0 -109.25 Q10.25 -111.0 17.5 -110.5 L29.25 -104.75 31.75 -103.0 31.25 -98.75" fill="#563502" fill-rule="evenodd" stroke="none"/>
    <path d="M48.0 5.0 L47.25 4.75 47.5 -1.0 48.25 0.25 48.0 5.0" fill="#ffff95" fill-opacity="0.36862746" fill-rule="evenodd" stroke="none"/>
  </g>
</svg>
