<?xml version="1.0" encoding="UTF-8" standalone="no"?>
<svg xmlns:ffdec="https://www.free-decompiler.com/flash" xmlns:xlink="http://www.w3.org/1999/xlink" ffdec:objectType="shape" height="294.75px" width="184.4px" xmlns="http://www.w3.org/2000/svg">
  <g transform="matrix(1.0, 0.0, 0.0, 1.0, 111.25, 147.75)">
    <path d="M18.5 -128.5 L6.0 -135.0 -7.75 -137.75 Q-30.75 -141.25 -57.75 -103.0 -81.75 -66.5 -83.0 0.75 -82.75 60.75 -57.75 102.25 -30.75 140.25 -6.75 137.0 27.25 132.0 48.0 91.0 70.75 32.5 67.25 -3.25 63.75 -67.25 46.25 -94.75 L39.0 -107.0 30.0 -118.25 18.5 -128.5 M72.75 -4.5 Q76.0 37.25 53.0 96.0 L44.0 112.0 33.75 125.5 22.5 135.75 8.75 143.75 -5.0 147.0 Q-42.5 144.25 -52.25 137.25 L-54.5 136.25 -69.0 125.0 -81.5 109.75 Q-110.75 65.0 -111.25 2.0 -110.75 -65.5 -83.25 -108.0 L-69.5 -125.25 -54.5 -137.0 -40.0 -143.0 -24.5 -146.0 -8.0 -147.75 Q24.5 -144.75 43.75 -113.25 70.75 -71.25 72.75 -4.5" fill="#e6b904" fill-rule="evenodd" stroke="none"/>
    <path d="M18.5 -128.5 L30.0 -118.25 39.0 -107.0 46.25 -94.75 Q63.75 -67.25 67.25 -3.25 70.75 32.5 48.0 91.0 27.25 132.0 -6.75 137.0 -30.75 140.25 -57.75 102.25 -82.75 60.75 -83.0 0.75 -81.75 -66.5 -57.75 -103.0 -30.75 -141.25 -7.75 -137.75 L6.0 -135.0 18.5 -128.5 M17.75 -111.25 L11.0 -110.25 7.5 -83.75 Q-15.75 -81.25 -32.25 -32.0 -44.0 7.75 -37.75 48.5 -28.25 87.0 -14.75 88.0 L-19.5 122.5 -12.5 123.5 12.5 115.5 12.75 114.75 16.75 81.25 24.25 72.0 30.5 22.0 23.75 22.0 Q12.75 44.0 3.75 47.0 -3.25 43.25 -1.0 3.0 1.5 -25.5 17.0 -44.0 25.75 -39.0 29.5 -19.25 L36.0 -19.75 41.5 -58.25 35.25 -72.25 39.25 -104.75 17.75 -111.25" fill="#d6b000" fill-rule="evenodd" stroke="none"/>
    <path d="M17.75 -111.25 L39.25 -104.75 35.25 -72.25 41.5 -58.25 36.0 -19.75 29.5 -19.25 Q25.75 -39.0 17.0 -44.0 1.5 -25.5 -1.0 3.0 -3.25 43.25 3.75 47.0 12.75 44.0 23.75 22.0 L30.5 22.0 24.25 72.0 16.75 81.25 12.75 114.75 12.5 115.5 -12.5 123.5 -19.5 122.5 -14.75 88.0 Q-28.25 87.0 -37.75 48.5 -44.0 7.75 -32.25 -32.0 -15.75 -81.25 7.5 -83.75 L11.0 -110.25 17.75 -111.25" fill="#563502" fill-rule="evenodd" stroke="none"/>
    <path d="M67.0 -4.5 L68.75 -0.75 68.25 10.75 66.75 10.25 67.0 -4.5 M64.5 -35.75 L63.75 -40.5 64.75 -39.75 65.25 -35.0 64.5 -35.75 M63.5 41.25 L65.0 32.5 65.5 39.0 64.0 45.0 63.5 41.25" fill="#ffffff" fill-opacity="0.7490196" fill-rule="evenodd" stroke="none"/>
  </g>
</svg>
