<?xml version="1.0" encoding="UTF-8" standalone="no"?>
<svg xmlns:ffdec="https://www.free-decompiler.com/flash" xmlns:xlink="http://www.w3.org/1999/xlink" ffdec:objectType="shape" height="294.25px" width="223.25px" xmlns="http://www.w3.org/2000/svg">
  <g transform="matrix(1.0, 0.0, 0.0, 1.0, 131.0, 147.5)">
    <path d="M20.25 -129.75 L5.25 -135.25 -12.75 -137.25 Q-43.0 -140.0 -77.25 -98.75 -105.0 -62.25 -107.0 -1.0 -105.75 60.5 -75.5 100.5 -43.5 138.25 -10.75 136.5 25.25 138.0 60.0 92.5 L70.0 74.25 75.0 62.0 81.75 38.75 84.75 19.0 85.75 -2.25 Q81.5 -69.0 56.25 -98.25 L48.75 -108.0 35.5 -120.25 20.25 -129.75 M24.75 -138.0 L40.0 -128.0 52.25 -116.25 62.75 -102.75 Q88.0 -71.0 92.25 -4.75 L91.5 17.5 88.25 40.75 82.75 61.5 75.75 79.25 65.75 97.75 Q40.5 140.25 -10.75 146.75 L-29.25 144.75 -45.0 140.5 -63.0 133.75 -81.5 121.5 -97.25 105.0 Q-129.5 64.0 -131.0 1.5 -130.0 -65.0 -98.25 -104.5 L-82.25 -121.5 -64.75 -133.5 -45.0 -141.25 -29.25 -145.5 -11.25 -147.5 7.25 -145.0 24.75 -138.0" fill="#e6b904" fill-rule="evenodd" stroke="none"/>
    <path d="M17.25 -112.0 L11.5 -111.0 7.0 -84.0 Q-29.0 -73.75 -43.25 -31.75 -58.75 17.5 -50.25 47.5 L-46.25 60.5 -43.75 66.0 -36.75 77.25 -29.0 84.0 -21.5 87.5 -27.5 121.5 -21.5 122.75 10.5 115.75 16.0 81.5 20.5 78.25 25.75 73.0 34.25 23.75 34.0 22.0 28.0 22.25 Q15.0 43.5 -0.25 47.5 -11.25 41.0 -6.5 0.0 -1.25 -32.5 18.0 -45.25 L18.75 -44.75 Q28.75 -42.0 35.5 -19.5 L41.25 -19.75 48.25 -59.5 42.75 -69.5 40.0 -73.0 45.25 -106.25 17.25 -112.0 M20.25 -129.75 L35.5 -120.25 48.75 -108.0 56.25 -98.25 Q81.5 -69.0 85.75 -2.25 L84.75 19.0 81.75 38.75 75.0 62.0 70.0 74.25 60.0 92.5 Q25.25 138.0 -10.75 136.5 -43.5 138.25 -75.5 100.5 -105.75 60.5 -107.0 -1.0 -105.0 -62.25 -77.25 -98.75 -43.0 -140.0 -12.75 -137.25 L5.25 -135.25 20.25 -129.75" fill="#d6b000" fill-rule="evenodd" stroke="none"/>
    <path d="M17.25 -112.0 L45.25 -106.25 40.0 -73.0 42.75 -69.5 48.25 -59.5 41.25 -19.75 35.5 -19.5 Q28.75 -42.0 18.75 -44.75 L18.0 -45.25 Q-1.25 -32.5 -6.5 0.0 -11.25 41.0 -0.25 47.5 15.0 43.5 28.0 22.25 L34.0 22.0 34.25 23.75 25.75 73.0 20.5 78.25 16.0 81.5 10.5 115.75 -21.5 122.75 -27.5 121.5 -21.5 87.5 -29.0 84.0 -36.75 77.25 -43.75 66.0 -46.25 60.5 -50.25 47.5 Q-58.75 17.5 -43.25 -31.75 -29.0 -73.75 7.0 -84.0 L11.5 -111.0 17.25 -112.0" fill="#563502" fill-rule="evenodd" stroke="none"/>
    <path d="M80.0 -46.75 L83.0 -40.25 84.75 -29.0 Q81.5 -35.25 81.25 -40.0 L81.25 -40.75 81.0 -41.0 80.75 -42.0 80.0 -46.75 M88.0 -0.75 L87.25 16.75 84.0 31.75 Q84.75 39.0 82.5 45.0 80.75 52.75 79.25 53.25 L81.25 39.75 81.5 39.0 81.5 37.75 81.75 37.25 81.75 36.25 82.0 35.75 82.25 35.0 82.25 34.0 82.5 33.5 84.75 20.75 85.75 -8.0 88.0 -0.75 M68.0 77.75 L69.0 76.0 69.75 76.0 68.25 78.75 68.0 77.75 M-102.0 -72.0 L-102.75 -71.5 -102.75 -70.0 -103.5 -69.5 -107.5 -58.5 -107.75 -55.0 -113.5 -31.5 -115.25 -3.5 -116.0 -0.5 -113.75 32.0 Q-124.5 -38.25 -101.25 -75.5 L-102.0 -72.0" fill="#ffffff" fill-opacity="0.7490196" fill-rule="evenodd" stroke="none"/>
  </g>
</svg>
