<?xml version="1.0" encoding="UTF-8" standalone="no"?>
<svg xmlns:ffdec="https://www.free-decompiler.com/flash" xmlns:xlink="http://www.w3.org/1999/xlink" ffdec:objectType="shape" height="292.75px" width="253.25px" xmlns="http://www.w3.org/2000/svg">
  <g transform="matrix(1.0, 0.0, 0.0, 1.0, 143.25, 146.75)">
    <path d="M22.75 -130.5 L4.0 -135.5 -17.5 -136.5 Q-54.75 -136.25 -90.0 -98.25 -123.0 -58.5 -124.25 -1.0 -123.25 57.25 -90.25 97.0 -54.5 136.5 -12.0 135.75 32.75 136.25 70.25 94.75 L81.75 78.25 88.75 64.0 97.25 40.75 101.5 16.0 102.5 -1.25 100.75 -23.0 97.25 -41.5 90.75 -60.75 81.25 -79.75 72.75 -92.0 70.25 -94.5 70.0 -95.75 55.5 -110.75 41.25 -121.25 22.75 -130.5 M5.5 -145.25 L25.25 -139.75 44.5 -130.25 59.75 -118.75 75.75 -102.25 88.0 -84.5 97.75 -64.75 104.75 -43.5 108.5 -24.0 110.0 -3.5 108.75 21.0 104.5 43.75 97.75 64.0 88.25 83.25 76.0 101.25 61.25 116.75 42.0 130.75 Q14.25 146.0 -14.5 146.0 -73.0 139.5 -106.5 101.75 -142.75 58.5 -143.25 1.75 -143.0 -59.25 -107.75 -101.25 -79.0 -137.5 -16.5 -146.75 L5.5 -145.25" fill="#e6b904" fill-rule="evenodd" stroke="none"/>
    <path d="M22.75 -130.5 L41.25 -121.25 55.5 -110.75 70.0 -95.75 70.25 -94.5 72.75 -92.0 81.25 -79.75 90.75 -60.75 97.25 -41.5 100.75 -23.0 102.5 -1.25 101.5 16.0 97.25 40.75 88.75 64.0 81.75 78.25 70.25 94.75 Q32.75 136.25 -12.0 135.75 -54.5 136.5 -90.25 97.0 -123.25 57.25 -124.25 -1.0 -123.0 -58.5 -90.0 -98.25 -54.75 -136.25 -17.5 -136.5 L4.0 -135.5 22.75 -130.5 M15.75 -112.5 L11.5 -111.0 6.25 -84.5 3.25 -83.75 2.5 -83.75 1.0 -83.25 0.5 -83.0 0.25 -83.0 Q-34.5 -72.0 -52.25 -31.25 -68.75 3.75 -60.25 46.5 -52.75 77.25 -27.25 86.75 L-34.0 120.25 -29.75 121.5 8.0 116.25 14.5 82.0 20.0 78.75 26.25 73.75 36.5 22.5 31.75 22.0 31.25 22.75 Q16.5 43.75 -4.25 47.75 -17.25 42.5 -12.5 1.75 -4.75 -35.0 17.75 -45.75 L20.5 -45.0 Q35.0 -38.75 40.25 -19.75 L45.25 -20.0 53.75 -60.25 48.5 -68.5 43.5 -74.25 50.0 -108.25 15.75 -112.5" fill="#d6b000" fill-rule="evenodd" stroke="none"/>
    <path d="M15.75 -112.5 L50.0 -108.25 43.5 -74.25 48.5 -68.5 53.75 -60.25 45.25 -20.0 40.25 -19.75 Q35.0 -38.75 20.5 -45.0 L17.75 -45.75 Q-4.75 -35.0 -12.5 1.75 -17.25 42.5 -4.25 47.75 16.5 43.75 31.25 22.75 L31.75 22.0 36.5 22.5 26.25 73.75 20.0 78.75 14.5 82.0 8.0 116.25 -29.75 121.5 -34.0 120.25 -27.25 86.75 Q-52.75 77.25 -60.25 46.5 -68.75 3.75 -52.25 -31.25 -34.5 -72.0 0.25 -83.0 L0.5 -83.0 1.0 -83.25 2.5 -83.75 3.25 -83.75 6.25 -84.5 11.5 -111.0 15.75 -112.5" fill="#563502" fill-rule="evenodd" stroke="none"/>
    <path d="M96.25 -50.5 L99.5 -41.75 103.5 -21.75 105.0 0.25 Q105.0 41.75 85.0 75.25 L92.5 60.5 95.5 45.25 95.75 44.5 98.5 30.5 101.5 -10.25 101.5 -13.5 102.75 -13.0 102.5 -21.0 93.5 -51.75 93.25 -52.0 90.75 -59.75 91.25 -60.0 95.25 -51.25 96.25 -50.5 M85.0 76.0 L83.25 80.0 82.25 80.5 75.5 90.5 75.0 90.25 77.25 84.25 Q78.5 84.0 82.0 77.0 L85.0 76.0 M-110.5 -86.5 Q-142.0 -37.75 -128.75 41.0 -146.5 -36.25 -110.5 -86.5" fill="#ffffff" fill-opacity="0.7490196" fill-rule="evenodd" stroke="none"/>
  </g>
</svg>
