<?xml version="1.0" encoding="UTF-8" standalone="no"?>
<svg xmlns:ffdec="https://www.free-decompiler.com/flash" xmlns:xlink="http://www.w3.org/1999/xlink" ffdec:objectType="shape" height="290.75px" width="273.5px" xmlns="http://www.w3.org/2000/svg">
  <g transform="matrix(1.0, 0.0, 0.0, 1.0, 148.25, 145.75)">
    <path d="M14.25 -113.25 L11.0 -111.75 5.25 -85.0 -1.75 -83.5 -8.75 -80.75 -9.25 -80.5 -9.5 -80.5 -10.25 -80.25 -12.75 -79.0 -13.0 -78.75 -13.25 -78.75 Q-44.0 -63.0 -59.0 -30.5 -75.5 6.75 -69.0 39.0 -61.5 71.25 -40.0 82.25 L-32.0 86.0 -39.25 117.75 Q-40.0 119.0 -36.5 120.25 L5.25 116.5 12.25 82.5 21.0 77.75 25.75 74.25 37.5 23.75 37.0 22.75 33.75 22.5 32.75 23.75 Q8.25 49.25 -7.25 47.75 L-8.25 47.75 Q-23.75 40.0 -17.25 0.0 -10.0 -33.0 16.0 -46.0 L16.5 -46.25 17.25 -46.25 20.5 -45.5 28.5 -42.0 32.5 -38.5 Q40.75 -29.5 43.75 -20.0 L47.5 -20.25 57.25 -61.5 50.75 -70.25 Q45.25 -74.25 45.75 -75.5 L53.0 -110.0 14.25 -113.25 M116.75 -1.75 L115.25 21.0 110.5 42.0 103.25 60.5 92.0 80.75 Q59.25 126.5 2.25 135.0 -43.25 139.0 -81.75 110.75 -122.5 78.25 -132.5 25.25 -141.25 -28.25 -114.25 -75.0 L-99.5 -95.0 -81.75 -111.5 -63.25 -123.25 -42.25 -131.5 -20.25 -135.75 Q25.25 -139.5 61.75 -112.75 101.0 -86.25 115.25 -22.0 L116.75 -1.75" fill="#d6b000" fill-rule="evenodd" stroke="none"/>
    <path d="M26.25 -141.0 L48.5 -132.0 67.0 -120.5 84.25 -105.25 98.5 -87.75 110.0 -68.0 118.75 -45.75 123.5 -24.5 125.25 -2.75 123.75 22.0 118.75 45.0 110.5 66.25 99.75 85.0 85.75 102.75 68.0 119.0 49.0 131.0 Q38.4 135.4 27.75 139.75 L4.25 144.75 -7.0 145.0 Q-73.5 142.5 -109.25 99.75 -149.25 53.25 -148.25 3.25 -147.5 -59.25 -112.75 -97.0 -68.0 -143.75 -21.25 -145.75 L3.0 -145.5 26.25 -141.0 M116.75 -1.75 L115.25 -22.0 Q101.0 -86.25 61.75 -112.75 25.25 -139.5 -20.25 -135.75 L-42.25 -131.5 -63.25 -123.25 -81.75 -111.5 -99.5 -95.0 -114.25 -75.0 Q-141.25 -28.25 -132.5 25.25 -122.5 78.25 -81.75 110.75 -43.25 139.0 2.25 135.0 59.25 126.5 92.0 80.75 L103.25 60.5 110.5 42.0 115.25 21.0 116.75 -1.75" fill="#e6b904" fill-rule="evenodd" stroke="none"/>
    <path d="M14.25 -113.25 L53.0 -110.0 45.75 -75.5 Q45.25 -74.25 50.75 -70.25 L57.25 -61.5 47.5 -20.25 43.75 -20.0 Q40.75 -29.5 32.5 -38.5 L28.5 -42.0 20.5 -45.5 17.25 -46.25 16.5 -46.25 16.0 -46.0 Q-10.0 -33.0 -17.25 0.0 -23.75 40.0 -8.25 47.75 L-7.25 47.75 Q8.25 49.25 32.75 23.75 L33.75 22.5 37.0 22.75 37.5 23.75 25.75 74.25 21.0 77.75 12.25 82.5 5.25 116.5 -36.5 120.25 Q-40.0 119.0 -39.25 117.75 L-32.0 86.0 -40.0 82.25 Q-61.5 71.25 -69.0 39.0 -75.5 6.75 -59.0 -30.5 -44.0 -63.0 -13.25 -78.75 L-13.0 -78.75 -12.75 -79.0 -10.25 -80.25 -9.5 -80.5 -9.25 -80.5 -8.75 -80.75 -1.75 -83.5 5.25 -85.0 11.0 -111.75 14.25 -113.25" fill="#563502" fill-rule="evenodd" stroke="none"/>
    <path d="M98.25 -65.25 L95.0 -72.75 95.25 -74.0 99.5 -68.75 Q101.25 -66.75 101.25 -69.0 L103.0 -66.25 112.5 -43.75 117.25 -23.75 119.25 -1.75 117.75 21.25 113.0 42.5 105.0 63.0 93.5 82.5 87.25 89.25 81.5 97.0 64.0 112.25 62.75 112.5 66.0 110.0 65.75 109.5 72.75 103.0 72.5 102.25 73.25 101.75 66.75 105.5 80.5 92.0 Q80.0 90.75 85.25 87.0 L85.0 86.5 86.75 84.75 88.5 84.75 90.75 83.0 94.5 77.5 100.5 66.75 101.25 66.5 102.5 63.25 103.25 63.0 107.25 50.0 107.0 47.25 111.75 4.25 111.5 -4.0 107.25 -38.5 98.25 -65.25 M-122.75 -80.75 Q-150.5 -29.0 -142.5 25.5 -153.0 -29.0 -122.75 -80.75" fill="#ffffff" fill-opacity="0.7490196" fill-rule="evenodd" stroke="none"/>
  </g>
</svg>
