<?xml version="1.0" encoding="UTF-8" standalone="no"?>
<svg xmlns:ffdec="https://www.free-decompiler.com/flash" xmlns:xlink="http://www.w3.org/1999/xlink" ffdec:objectType="shape" height="290.95px" width="286.0px" xmlns="http://www.w3.org/2000/svg">
  <g transform="matrix(1.0, 0.0, 0.0, 1.0, 148.75, 145.75)">
    <path d="M11.5 -113.5 L10.25 -112.5 4.0 -85.5 Q-33.75 -75.25 -50.75 -49.25 L-51.25 -48.5 -52.0 -47.75 -55.0 -43.25 -55.75 -42.5 -62.75 -30.25 -62.75 -30.0 -67.0 -20.25 -67.0 -20.0 -67.25 -19.25 -67.5 -18.75 -69.5 -13.0 -69.5 -12.5 -70.75 -8.25 -71.0 -8.0 -71.0 -7.25 -71.25 -6.75 -71.5 -5.75 -71.5 -5.25 -72.5 -1.25 -72.5 -0.5 -72.75 0.0 -72.75 1.0 -73.0 1.5 -73.0 2.25 -73.75 6.25 -73.75 8.0 -74.0 8.5 -74.0 9.75 -74.5 15.0 -74.5 25.5 -74.25 26.5 -73.25 36.25 -71.75 43.0 -71.75 43.25 -71.25 44.25 -70.25 48.0 -69.5 49.5 -68.0 53.75 -67.5 54.5 Q-53.75 81.25 -35.25 85.75 L-42.75 116.5 -42.0 118.25 2.0 116.75 9.25 84.75 10.25 82.75 24.25 75.0 36.75 23.0 34.75 22.75 34.0 23.5 Q9.0 48.5 -10.0 47.5 L-13.0 47.25 -13.5 47.0 Q-28.0 39.0 -21.75 0.5 -14.75 -31.75 13.0 -46.0 L15.75 -46.5 20.5 -45.75 24.75 -44.5 32.0 -40.25 Q38.75 -35.75 45.5 -20.5 L48.25 -20.75 58.75 -62.75 54.25 -68.5 45.75 -76.25 46.0 -76.75 54.0 -112.25 11.75 -114.0 11.5 -113.5 M109.75 -68.5 L109.75 -67.5 111.5 -65.75 120.25 -45.75 126.0 -23.25 128.0 -0.75 126.0 22.25 120.75 43.75 113.0 61.75 99.5 83.5 84.25 100.0 65.0 114.75 Q50.0 127.5 2.0 135.0 -48.25 136.75 -86.5 107.0 -126.75 75.0 -136.25 24.75 -145.0 -27.75 -119.0 -71.25 -83.75 -125.0 -22.75 -134.75 25.0 -140.75 65.5 -115.25 L82.25 -102.5 99.25 -84.5 109.75 -68.5" fill="#d6b000" fill-rule="evenodd" stroke="none"/>
    <path d="M109.75 -68.5 L99.25 -84.5 82.25 -102.5 65.5 -115.25 Q25.0 -140.75 -22.75 -134.75 -83.75 -125.0 -119.0 -71.25 -145.0 -27.75 -136.25 24.75 -126.75 75.0 -86.5 107.0 -48.25 136.75 2.0 135.0 50.0 127.5 65.0 114.75 L84.25 100.0 99.5 83.5 113.0 61.75 120.75 43.75 126.0 22.25 128.0 -0.75 126.0 -23.25 120.25 -45.75 111.5 -65.75 109.75 -67.5 109.75 -68.5 M106.5 -90.75 L120.0 -70.0 129.0 -49.25 135.25 -25.25 137.25 -2.25 135.25 24.5 Q122.25 73.75 107.25 89.0 L90.5 107.25 71.5 122.25 50.0 133.75 27.25 141.25 1.75 145.0 Q-48.25 147.5 -92.25 115.5 -136.0 83.75 -147.0 19.75 L-148.75 0.25 -146.25 -27.25 -139.25 -52.75 -128.0 -76.0 -117.5 -90.5 Q-75.25 -140.0 -24.0 -144.75 29.0 -150.5 71.5 -123.0 L89.5 -109.0 106.5 -90.75" fill="#e6b904" fill-rule="evenodd" stroke="none"/>
    <path d="M11.5 -113.5 L11.75 -114.0 54.0 -112.25 46.0 -76.75 45.75 -76.25 54.25 -68.5 58.75 -62.75 48.25 -20.75 45.5 -20.5 Q38.75 -35.75 32.0 -40.25 L24.75 -44.5 20.5 -45.75 15.75 -46.5 13.0 -46.0 Q-14.75 -31.75 -21.75 0.5 -28.0 39.0 -13.5 47.0 L-13.0 47.25 -10.0 47.5 Q9.0 48.5 34.0 23.5 L34.75 22.75 36.75 23.0 24.25 75.0 10.25 82.75 9.25 84.75 2.0 116.75 -42.0 118.25 -42.75 116.5 -35.25 85.75 Q-53.75 81.25 -67.5 54.5 L-68.0 53.75 -69.5 49.5 -70.25 48.0 -71.25 44.25 -71.75 43.25 -71.75 43.0 -73.25 36.25 -74.25 26.5 -74.5 25.5 -74.5 15.0 -74.0 9.75 -74.0 8.5 -73.75 8.0 -73.75 6.25 -73.0 2.25 -73.0 1.5 -72.75 1.0 -72.75 0.0 -72.5 -0.5 -72.5 -1.25 -71.5 -5.25 -71.5 -5.75 -71.25 -6.75 -71.0 -7.25 -71.0 -8.0 -70.75 -8.25 -69.5 -12.5 -69.5 -13.0 -67.5 -18.75 -67.25 -19.25 -67.0 -20.0 -67.0 -20.25 -62.75 -30.0 -62.75 -30.25 -55.75 -42.5 -55.0 -43.25 -52.0 -47.75 -51.25 -48.5 -50.75 -49.25 Q-33.75 -75.25 4.0 -85.5 L10.25 -112.5 11.5 -113.5" fill="#563502" fill-rule="evenodd" stroke="none"/>
    <path d="M79.0 -100.25 L79.25 -102.5 Q82.0 -103.25 83.75 -101.25 90.7 -95.05 96.6 -88.45 L86.0 -98.5 108.0 -71.0 109.0 -71.25 102.5 -81.45 Q136.8 -37.9 128.5 22.25 L122.25 46.5 121.25 47.5 113.0 67.0 100.75 85.5 94.0 92.0 Q87.5 98.0 87.75 99.5 L69.5 113.75 46.75 126.0 28.0 131.75 27.25 131.5 42.5 125.75 34.5 127.5 19.0 125.75 37.0 115.75 52.25 105.5 70.5 90.25 81.5 79.0 88.25 68.0 94.25 55.0 99.75 40.0 104.5 20.0 104.0 3.0 103.0 -10.5 99.5 -36.75 93.0 -66.25 87.5 -84.75 84.0 -92.25 79.0 -100.25 M117.0 -53.0 L122.75 -36.0 Q123.75 -37.25 121.25 -44.75 L117.0 -53.0 M120.75 42.75 L119.0 47.25 120.75 45.0 120.75 42.75 M92.75 90.75 Q94.0 90.75 99.5 84.5 L105.5 73.75 92.75 90.75 M76.5 106.0 L49.75 123.0 51.75 122.75 65.75 115.25 76.5 106.0" fill="#ffffff" fill-opacity="0.7490196" fill-rule="evenodd" stroke="none"/>
  </g>
</svg>
