<?xml version="1.0" encoding="UTF-8" standalone="no"?>
<svg xmlns:ffdec="https://www.free-decompiler.com/flash" xmlns:xlink="http://www.w3.org/1999/xlink" ffdec:objectType="shape" height="225.85px" width="248.25px" xmlns="http://www.w3.org/2000/svg">
  <g transform="matrix(1.0, 0.0, 0.0, 1.0, 125.25, 129.35)">
    <path d="M5.5 -23.0 L35.25 -53.75 27.0 -83.25 Q25.5 -86.5 26.75 -88.0 L58.25 -119.5 88.75 -121.5 87.5 -119.5 64.0 -96.25 70.0 -68.0 96.0 -61.5 121.25 -86.75 123.0 -87.75 120.75 -56.0 90.75 -25.75 88.75 -25.25 56.75 -33.0 52.0 -29.5 23.25 -1.75 15.5 5.75 7.25 11.75 2.5 18.0 -6.25 26.25 -22.5 41.5 -15.25 68.5 -41.0 94.75 -66.0 96.5 -65.25 95.0 -46.0 76.0 -50.75 53.0 -72.75 47.75 -94.25 69.0 -92.5 43.25 -68.5 19.0 -66.25 18.0 -39.75 24.5 -22.75 6.5 -22.75 6.25 -14.75 -1.75 -7.5 -7.25 -2.25 -15.0 5.5 -23.0 M-48.5 -24.5 L-60.75 -14.5 -61.5 -13.75 -62.25 -13.25 -76.5 -1.5 Q-79.25 0.25 -84.25 0.0 -96.75 -1.0 -110.5 -14.5 -125.25 -30.75 -125.25 -45.5 -124.5 -52.5 -123.0 -53.5 L-84.0 -86.75 -83.0 -87.75 -82.25 -88.25 -46.25 -118.25 -35.5 -126.75 Q-20.0 -137.0 4.5 -106.5 23.0 -78.5 0.25 -65.75 L-1.25 -64.25 -17.5 -50.5 -20.75 -50.75 -29.5 -49.25 -39.0 -44.5 -45.5 -35.5 -47.75 -29.75 -48.5 -25.75 -48.5 -24.5" fill="#b9b9b9" fill-rule="evenodd" stroke="none"/>
    <path d="M23.25 -1.75 L69.0 52.5 69.0 52.75 70.25 54.0 70.5 54.5 71.75 55.75 72.25 56.5 73.0 57.25 73.75 58.25 74.25 58.75 76.5 61.5 79.25 65.75 Q84.25 86.0 72.25 92.0 56.75 98.75 46.0 88.0 L45.5 87.5 -6.25 26.25 2.5 18.0 7.25 11.75 15.5 5.75 23.25 -1.75 M-22.75 6.25 L-48.5 -24.5 -48.5 -25.75 -47.75 -29.75 -45.5 -35.5 -39.0 -44.5 -29.5 -49.25 -20.75 -50.75 -17.5 -50.5 5.5 -23.0 -2.25 -15.0 -7.5 -7.25 -14.75 -1.75 -22.75 6.25" fill="#a36c15" fill-rule="evenodd" stroke="none"/>
    <path d="M71.75 -59.5 Q59.75 -57.25 64.0 -79.0 L65.0 -77.75 67.5 -65.75 81.75 -62.0 71.75 -59.5 M44.0 -52.75 L20.0 -30.5 2.75 -13.25 2.25 -13.5 41.25 -54.0 31.75 -88.0 40.25 -95.5 34.75 -88.5 36.75 -85.25 40.25 -70.75 45.0 -55.75 44.0 -52.75 M-3.75 -103.25 L-0.25 -96.25 -0.25 -95.5 Q-3.75 -96.75 -8.5 -93.0 -9.5 -94.25 -6.5 -99.25 L-14.75 -98.75 -11.0 -105.5 -11.0 -109.0 -3.75 -103.25 M-31.75 -104.5 L-27.5 -99.25 Q-27.0 -97.75 -33.5 -90.0 L-92.75 -40.25 -93.5 -40.0 -96.0 -42.0 -99.75 -40.0 -111.5 -36.0 -111.75 -39.5 -108.0 -50.5 -105.25 -53.5 -103.75 -54.0 -69.5 -83.25 -56.5 -92.25 -34.25 -106.0 -31.75 -104.5 M-3.5 -7.5 L1.5 -12.0 -3.0 -7.25 -3.5 -7.5 M-19.75 10.25 L-20.25 10.0 -19.25 9.5 -19.75 10.25 M-25.0 15.75 L-25.5 15.5 -23.0 13.25 -25.0 15.75 M-26.25 17.25 L-39.75 31.75 Q-66.0 31.5 -67.5 25.5 L-74.0 30.25 Q-67.5 24.25 -67.5 23.0 L-39.25 30.0 -26.75 17.0 -26.25 17.25" fill="#ffffff" fill-opacity="0.36862746" fill-rule="evenodd" stroke="none"/>
    <path d="M-26.5 -49.5 L1.0 -18.25 -2.25 -15.0 -5.5 -9.5 -6.5 -9.5 -21.5 -26.5 -36.0 -46.0 Q-29.25 -49.75 -26.5 -49.5 M19.0 3.0 L71.0 66.25 Q74.75 68.25 69.25 72.0 L42.0 43.75 15.25 14.75 Q10.0 10.0 11.0 8.75 16.0 6.0 17.75 3.25 L19.0 3.0" fill="#ffec95" fill-opacity="0.36862746" fill-rule="evenodd" stroke="none"/>
  </g>
</svg>
