<?xml version="1.0" encoding="UTF-8" standalone="no"?>
<svg xmlns:ffdec="https://www.free-decompiler.com/flash" xmlns:xlink="http://www.w3.org/1999/xlink" ffdec:objectType="shape" height="224.9px" width="242.5px" xmlns="http://www.w3.org/2000/svg">
  <g transform="matrix(1.0, 0.0, 0.0, 1.0, 120.25, 128.15)">
    <path d="M3.75 -25.25 L31.75 -55.0 22.75 -88.5 54.75 -122.0 86.0 -125.25 86.25 -123.0 61.0 -97.25 67.0 -69.75 94.25 -63.5 122.25 -91.75 119.75 -57.5 88.75 -26.25 87.25 -26.25 54.5 -33.75 54.0 -34.0 22.0 -3.0 20.5 -1.5 3.0 11.75 -7.25 25.0 -24.0 41.0 -16.75 67.5 -42.75 93.25 -67.0 94.5 -48.0 75.25 -52.5 52.25 -71.25 46.75 -88.0 64.0 Q-89.5 66.5 -93.25 67.0 L-91.5 41.75 -68.75 18.0 -65.25 17.75 -42.0 23.75 -23.75 4.25 -18.5 -1.5 -11.75 -7.0 -6.5 -14.0 3.75 -25.25 M-46.75 -23.5 L-71.5 -2.0 Q-78.0 1.0 -80.75 0.0 -92.5 -0.25 -108.5 -16.0 -132.5 -43.75 -107.5 -60.5 L-89.75 -77.25 -89.0 -77.75 -40.25 -121.75 Q-26.5 -138.5 0.25 -111.5 L5.75 -104.0 12.25 -90.0 Q15.75 -77.5 7.0 -71.0 L-16.75 -49.75 -21.75 -50.25 Q-23.25 -51.5 -32.75 -48.5 L-41.75 -44.0 -47.5 -35.0 -48.5 -29.25 -48.5 -26.75 -46.75 -23.5" fill="#b9b9b9" fill-rule="evenodd" stroke="none"/>
    <path d="M22.0 -3.0 L73.0 58.25 73.0 58.5 74.25 59.75 74.75 60.5 75.25 61.0 80.0 67.75 Q86.0 80.25 74.75 92.5 56.5 101.75 47.25 90.75 L47.0 90.75 45.25 89.0 -7.25 25.0 3.0 11.75 20.5 -1.5 22.0 -3.0 M-23.75 4.25 L-46.75 -23.5 -48.5 -26.75 -48.5 -29.25 -47.5 -35.0 -41.75 -44.0 -32.75 -48.5 Q-23.25 -51.5 -21.75 -50.25 L-16.75 -49.75 3.75 -25.25 -6.5 -14.0 -11.75 -7.0 -18.5 -1.5 -23.75 4.25" fill="#a36c15" fill-rule="evenodd" stroke="none"/>
    <path d="M64.25 -63.5 L60.75 -65.25 59.75 -75.5 Q61.0 -75.25 62.25 -67.25 L66.5 -66.25 64.25 -63.5 M-8.5 -104.0 L-2.75 -97.25 Q-0.75 -94.0 -3.0 -92.0 -14.75 -98.75 -14.5 -105.0 L-11.75 -105.5 -8.5 -104.0 M-24.25 -102.75 L-95.5 -38.75 -98.25 -39.75 -103.25 -43.25 -102.0 -46.0 Q-100.0 -45.0 -94.0 -52.0 L-91.5 -59.75 Q-93.85 -58.6 -96.25 -57.5 L-73.25 -75.25 -39.5 -105.0 -42.25 -108.75 -25.5 -113.0 -28.0 -106.25 -24.25 -102.75 M39.75 -56.5 L-5.0 -10.25 -27.0 14.75 -30.75 20.0 -44.75 33.75 -59.25 29.0 Q-69.75 25.5 -70.0 23.75 L-71.75 24.5 Q-68.25 21.0 -43.25 29.5 L35.5 -54.75 35.75 -55.75 26.5 -87.75 26.25 -89.0 29.25 -91.5 27.75 -89.5 29.25 -87.25 33.5 -72.75 39.75 -56.5" fill="#ffffff" fill-opacity="0.36862746" fill-rule="evenodd" stroke="none"/>
    <path d="M-7.0 -13.0 L-34.25 -47.75 -28.25 -49.5 -1.75 -21.25 -1.0 -19.5 Q-4.5 -17.25 -7.0 -13.0 M-12.0 -6.75 L-43.25 -40.75 -41.75 -44.0 -38.75 -45.0 -17.0 -18.75 -10.25 -9.0 -12.0 -6.75 M19.75 2.75 L50.25 38.0 65.5 56.25 73.0 66.5 75.25 67.25 77.5 71.0 Q68.75 70.0 69.25 73.75 L68.25 72.5 66.0 73.25 29.25 31.75 9.25 7.25 16.75 1.25 Q17.75 -0.25 19.75 2.75" fill="#ffec95" fill-opacity="0.36862746" fill-rule="evenodd" stroke="none"/>
  </g>
</svg>
