<?xml version="1.0" encoding="UTF-8" standalone="no"?>
<svg xmlns:ffdec="https://www.free-decompiler.com/flash" xmlns:xlink="http://www.w3.org/1999/xlink" ffdec:objectType="shape" height="228.5px" width="230.65px" xmlns="http://www.w3.org/2000/svg">
  <g transform="matrix(1.0, 0.0, 0.0, 1.0, 112.65, 129.25)">
    <path d="M1.5 -27.5 L26.25 -55.5 17.75 -89.75 48.0 -124.0 77.5 -129.0 Q78.5 -130.0 81.5 -127.25 L56.5 -99.5 62.5 -71.0 87.5 -65.75 114.25 -94.25 Q115.25 -97.25 118.0 -94.25 L115.25 -59.5 85.75 -29.0 Q81.25 -25.0 49.5 -34.5 L20.0 -4.25 17.75 -2.0 -1.25 11.25 Q-8.25 20.5 -8.25 24.5 L-24.5 40.75 -18.5 64.25 -18.0 67.5 -40.25 91.0 -44.25 92.25 -65.0 92.0 -48.75 74.5 -52.75 51.0 -67.25 46.25 -68.5 46.25 -84.25 64.0 -88.75 64.75 -88.0 42.5 -87.25 40.25 -67.0 17.5 Q-64.0 15.5 -42.5 23.0 L-24.75 2.75 -14.5 -8.0 1.5 -27.5 M-43.25 -21.5 L-64.0 -2.25 -71.0 0.0 Q-78.5 2.75 -98.0 -11.0 -125.25 -37.0 -101.75 -57.5 L-36.75 -124.0 -30.5 -126.75 Q-22.0 -129.0 -6.75 -118.75 L2.0 -110.5 5.5 -106.25 12.0 -95.5 14.75 -84.0 Q15.25 -78.25 10.5 -73.5 L-15.0 -48.5 -16.75 -50.0 -25.5 -50.0 -34.25 -48.0 -43.25 -43.25 -47.75 -34.5 -47.0 -26.25 -44.0 -22.25 -43.25 -21.5" fill="#b9b9b9" fill-rule="evenodd" stroke="none"/>
    <path d="M20.0 -4.25 L20.25 -3.75 21.0 -3.0 21.25 -2.5 21.75 -2.0 22.0 -1.5 22.75 -0.75 23.0 -0.25 23.75 0.5 24.0 1.0 24.75 1.75 25.0 2.25 25.5 2.75 25.75 3.25 26.5 4.0 26.75 4.5 27.5 5.25 27.75 5.75 28.5 6.75 29.25 7.5 29.5 8.0 30.25 8.75 30.5 9.25 31.25 10.0 31.5 10.5 32.25 11.5 33.0 12.25 33.25 12.75 34.0 13.5 34.25 14.0 35.0 14.75 35.25 15.25 36.0 16.25 36.75 17.0 37.0 17.5 37.75 18.25 38.0 18.75 38.75 19.5 39.0 20.0 39.75 21.0 40.5 21.75 40.75 22.25 41.5 23.0 41.75 23.5 42.5 24.25 42.75 24.75 43.5 25.75 44.25 26.5 44.5 27.0 45.25 27.75 45.5 28.25 46.25 29.0 46.5 29.5 47.25 30.5 48.0 31.25 48.25 31.75 49.0 32.5 49.25 33.0 50.0 33.75 50.25 34.25 51.0 35.25 51.75 36.0 52.0 36.5 52.75 37.25 53.0 37.75 53.75 38.5 54.0 39.0 54.75 40.0 55.5 40.75 55.75 41.25 56.5 42.0 56.75 42.5 57.5 43.25 57.75 43.75 58.5 44.75 59.25 45.5 59.5 46.0 60.25 46.75 60.5 47.25 61.25 48.0 61.5 48.5 62.25 49.5 63.0 50.25 63.25 50.75 64.0 51.5 64.25 52.0 65.0 52.75 65.25 53.25 66.0 54.25 66.75 55.0 67.0 55.5 67.75 56.25 68.0 56.75 68.75 57.5 69.0 58.0 69.75 58.75 69.75 59.25 70.25 59.75 70.5 60.25 71.75 61.5 72.25 62.25 72.75 62.75 73.25 63.5 74.25 64.5 74.5 65.25 75.25 66.25 75.5 66.5 75.75 67.0 76.0 67.25 76.0 67.5 76.5 68.0 76.5 68.25 77.25 69.25 77.25 69.5 Q83.25 88.75 71.0 95.75 55.25 104.75 42.0 90.5 L41.75 90.0 -8.25 24.5 Q-8.25 20.5 -1.25 11.25 L17.75 -2.0 20.0 -4.25 M-24.75 2.75 L-43.25 -21.5 -44.0 -22.25 -47.0 -26.25 -47.75 -34.5 -43.25 -43.25 -34.25 -48.0 -25.5 -50.0 -16.75 -50.0 -15.0 -48.5 1.5 -27.5 -14.5 -8.0 -24.75 2.75" fill="#a36c15" fill-rule="evenodd" stroke="none"/>
    <path d="M-12.75 -103.5 L-6.75 -99.75 -1.5 -92.75 Q-1.0 -88.25 -3.75 -89.0 -16.0 -94.5 -16.25 -103.25 L-12.75 -103.5 M-22.25 -102.25 L-28.5 -97.25 -20.0 -98.75 -30.75 -88.25 Q-32.25 -87.75 -34.5 -91.5 L-42.75 -86.5 -47.0 -79.0 -54.75 -68.0 -54.75 -67.0 Q-56.0 -66.0 -64.0 -68.0 L-75.0 -56.75 Q-75.75 -58.25 -71.0 -64.5 L-51.5 -91.25 -33.25 -110.25 Q-30.75 -113.25 -31.5 -109.75 L-29.0 -111.0 Q-23.5 -106.5 -22.25 -102.25 M-37.75 23.5 Q-44.5 31.75 -46.25 31.5 L-54.75 27.0 -45.5 29.0 -32.25 14.0 -37.75 23.5 M-78.5 -62.25 L-79.0 -64.25 -72.25 -70.5 -77.75 -62.0 -78.5 -62.25" fill="#ffffff" fill-opacity="0.36862746" fill-rule="evenodd" stroke="none"/>
    <path d="M-8.25 -16.0 L-13.75 -22.25 -24.75 -39.0 -19.25 -36.25 -2.0 -23.25 -8.25 -16.0 M-9.75 -13.75 L-15.75 -6.5 -42.25 -38.5 Q-45.25 -40.75 -43.25 -43.25 L-36.0 -46.5 -9.75 -13.75 M29.25 37.75 Q6.0 25.75 -1.25 11.25 4.75 6.25 6.25 7.0 L29.25 37.75 M17.0 -0.5 L71.25 66.75 Q67.75 68.0 72.5 72.25 72.25 73.5 68.25 73.25 L64.75 78.0 51.75 62.25 7.5 5.0 Q15.25 -1.0 17.0 -0.5" fill="#ffec95" fill-opacity="0.36862746" fill-rule="evenodd" stroke="none"/>
  </g>
</svg>
