<?xml version="1.0" encoding="UTF-8" standalone="no"?>
<svg xmlns:ffdec="https://www.free-decompiler.com/flash" xmlns:xlink="http://www.w3.org/1999/xlink" ffdec:objectType="shape" height="233.75px" width="210.9px" xmlns="http://www.w3.org/2000/svg">
  <g transform="matrix(1.0, 0.0, 0.0, 1.0, 102.9, 132.75)">
    <path d="M-38.75 -18.0 L-44.25 -12.25 Q-58.25 11.25 -89.25 -10.25 -113.75 -34.25 -94.25 -52.75 L-94.25 -53.0 -93.75 -53.5 -93.25 -54.25 -92.75 -54.75 -79.0 -71.75 -77.75 -73.0 -77.75 -73.25 -77.25 -73.75 -76.75 -74.5 -75.5 -75.75 -75.5 -76.0 -74.25 -77.25 -74.25 -77.5 -73.25 -78.5 -73.25 -78.75 -72.0 -80.0 -37.0 -122.0 -34.0 -124.25 -28.25 -125.75 -24.0 -125.75 -16.25 -124.25 Q2.75 -118.5 14.75 -95.25 L37.0 -124.0 39.25 -126.0 68.5 -132.75 73.0 -130.5 49.5 -101.0 55.0 -72.0 76.75 -67.75 103.25 -98.75 103.75 -99.75 108.0 -98.25 105.5 -62.0 75.25 -27.75 70.75 -28.0 42.5 -34.5 18.25 -7.0 12.5 -0.5 2.75 4.75 0.0 7.5 -5.75 11.25 Q-8.75 18.75 -10.0 19.25 L-10.0 24.5 -22.75 39.0 Q-15.75 63.75 -18.5 67.25 L-38.75 90.0 -43.5 91.0 -61.5 90.25 -48.75 75.25 -52.5 49.5 -62.75 45.75 -75.75 62.25 -81.5 63.0 -83.25 54.25 -82.75 42.25 -78.25 35.75 -62.75 17.0 Q-60.0 14.75 -41.25 22.0 L-25.5 1.5 -25.5 1.25 0.25 -32.0 19.0 -55.75 14.5 -76.0 -11.0 -47.75 -14.5 -49.5 -22.5 -49.75 -34.5 -47.5 -42.75 -42.5 -46.25 -34.0 -44.0 -25.75 -38.75 -18.0" fill="#b9b9b9" fill-rule="evenodd" stroke="none"/>
    <path d="M18.25 -7.0 L71.5 67.5 73.75 71.75 Q79.0 91.25 63.25 99.5 45.5 104.75 35.75 91.75 L35.5 91.25 -10.0 24.5 -10.0 19.25 Q-8.75 18.75 -5.75 11.25 L0.0 7.5 2.75 4.75 12.5 -0.5 18.25 -7.0 M-25.5 1.25 L-38.75 -18.0 -44.0 -25.75 -46.25 -34.0 -42.75 -42.5 -34.5 -47.5 -22.5 -49.75 -14.5 -49.5 -11.0 -47.75 0.25 -32.0 -25.5 1.25" fill="#a36c15" fill-rule="evenodd" stroke="none"/>
    <path d="M-11.25 -101.0 L-4.25 -96.75 Q3.5 -89.0 -1.75 -86.5 L-6.0 -87.5 -10.75 -90.25 -15.5 -95.25 Q-17.0 -95.75 -15.75 -100.75 L-11.25 -101.0 M-35.25 -87.0 L-40.75 -93.25 Q-39.75 -96.25 -37.0 -97.5 L-32.75 -108.0 Q-27.0 -109.5 -23.25 -97.25 -28.5 -87.0 -25.75 -98.0 L-35.25 -87.0 M39.75 -68.25 Q38.5 -72.75 41.25 -73.5 42.75 -73.75 42.75 -69.75 L49.5 -68.5 42.0 -67.0 39.75 -68.25" fill="#ffffff" fill-opacity="0.36862746" fill-rule="evenodd" stroke="none"/>
    <path d="M-5.0 -24.5 L-5.75 -24.5 -6.5 -26.0 -5.0 -24.5 M-18.5 -7.5 L-43.0 -41.75 Q-43.0 -43.25 -34.75 -47.25 L-32.25 -48.0 -10.5 -18.25 -11.5 -16.0 -18.5 -7.5 M-4.75 10.5 L5.0 4.0 53.0 73.5 Q53.75 75.25 57.25 72.5 L9.0 4.75 7.75 2.0 Q13.75 -0.5 13.5 -2.0 L27.25 14.25 67.0 66.25 67.5 67.25 61.75 69.5 65.5 74.25 65.75 76.5 54.5 78.5 52.0 75.5 49.0 77.0 -4.5 11.0 -4.75 10.5" fill="#ffec95" fill-opacity="0.36862746" fill-rule="evenodd" stroke="none"/>
  </g>
</svg>
