<?xml version="1.0" encoding="UTF-8" standalone="no"?>
<svg xmlns:ffdec="https://www.free-decompiler.com/flash" xmlns:xlink="http://www.w3.org/1999/xlink" ffdec:objectType="shape" height="239.05px" width="183.9px" xmlns="http://www.w3.org/2000/svg">
  <g transform="matrix(1.0, 0.0, 0.0, 1.0, 90.9, 135.75)">
    <path d="M-32.75 -13.25 L-33.5 -12.5 -40.0 -4.25 -46.0 -1.0 Q-62.75 1.75 -73.75 -6.0 -101.75 -25.75 -84.0 -49.75 L-69.0 -72.5 -39.25 -116.25 Q-36.25 -126.25 -16.25 -124.25 0.0 -121.0 12.0 -106.0 L24.25 -125.25 28.5 -127.75 55.0 -135.75 60.25 -134.25 60.5 -133.0 57.5 -125.5 42.25 -103.0 47.0 -72.75 60.25 -70.25 72.25 -87.25 85.75 -103.25 92.25 -101.75 93.0 -83.25 91.75 -65.5 66.5 -32.25 Q62.75 -24.25 35.25 -34.25 L33.25 -32.5 16.0 -9.25 13.5 -6.0 8.0 -0.5 -2.75 5.0 -4.25 7.0 -10.25 11.25 -13.0 19.5 -10.5 25.75 -20.0 38.5 -15.25 64.5 -29.25 83.25 -35.0 88.75 -44.0 89.5 -55.75 88.25 Q-56.5 85.75 -47.0 73.5 L-51.0 47.25 -53.75 46.25 -56.25 50.5 -65.0 60.5 -71.5 61.25 -75.0 52.5 -74.5 40.5 -62.5 21.5 -57.5 17.25 -50.25 16.5 -40.5 20.5 -26.0 -2.0 -26.25 -2.25 -24.5 -4.5 -4.5 -35.5 -4.5 -35.75 -2.25 -39.0 9.0 -56.0 7.5 -64.75 -6.75 -46.5 -8.0 -48.25 -12.75 -49.5 -21.5 -49.5 -33.5 -47.0 -41.0 -42.0 -43.0 -33.25 -39.25 -25.0 -32.75 -13.25" fill="#b9b9b9" fill-rule="evenodd" stroke="none"/>
    <path d="M16.0 -9.25 L64.25 69.0 66.75 74.0 Q72.75 90.5 54.75 101.75 38.5 107.25 28.0 93.25 L-10.5 25.75 -13.0 19.5 -10.25 11.25 -4.25 7.0 -2.75 5.0 8.0 -0.5 13.5 -6.0 16.0 -9.25 M-26.25 -2.25 L-32.75 -13.25 -39.25 -25.0 -43.0 -33.25 -41.0 -42.0 -33.5 -47.0 -21.5 -49.5 -12.75 -49.5 -8.0 -48.25 -6.75 -46.5 -2.25 -39.0 -4.5 -35.75 -4.5 -35.5 -24.5 -4.5 -26.25 -2.25" fill="#a36c15" fill-rule="evenodd" stroke="none"/>
    <path d="M-25.75 -101.5 L-23.0 -95.75 -22.75 -94.25 Q-26.25 -96.0 -29.75 -91.75 L-30.5 -91.75 -30.0 -96.5 -29.5 -96.75 -30.25 -97.25 -34.5 -95.75 -33.0 -102.5 Q-34.0 -103.0 -33.0 -106.5 -31.75 -107.0 -25.75 -101.5 M1.75 -92.25 L3.25 -86.25 Q3.25 -84.25 -1.75 -84.75 -17.75 -88.0 -14.0 -98.5 -8.5 -101.75 1.75 -92.25 M27.25 -85.75 L30.0 -71.25 39.0 -68.75 33.25 -64.0 28.0 -65.25 26.25 -68.75 26.75 -69.0 26.0 -71.75 26.25 -87.0 27.25 -85.75" fill="#ffffff" fill-opacity="0.36862746" fill-rule="evenodd" stroke="none"/>
    <path d="M-37.5 -43.75 L-33.5 -47.0 -29.25 -48.0 -13.25 -23.75 -13.0 -21.5 -19.5 -12.0 -20.5 -12.75 -37.5 -43.75 M-1.75 4.5 L3.25 2.5 12.5 16.75 45.5 73.5 48.25 72.25 48.25 71.5 33.75 48.25 10.25 5.25 10.5 2.75 11.25 1.75 13.25 1.5 17.5 7.75 22.5 8.25 59.75 68.75 61.75 73.25 55.5 72.5 Q59.0 74.5 55.25 80.5 39.75 73.75 37.5 78.5 L-6.25 10.25 -6.5 8.25 -1.75 4.5" fill="#ffec95" fill-opacity="0.36862746" fill-rule="evenodd" stroke="none"/>
  </g>
</svg>
