<?xml version="1.0" encoding="UTF-8" standalone="no"?>
<svg xmlns:ffdec="https://www.free-decompiler.com/flash" xmlns:xlink="http://www.w3.org/1999/xlink" ffdec:objectType="shape" height="243.55px" width="151.75px" xmlns="http://www.w3.org/2000/svg">
  <g transform="matrix(1.0, 0.0, 0.0, 1.0, 77.25, 138.25)">
    <path d="M-11.25 29.5 L-16.5 38.0 -12.75 63.75 -23.0 81.75 -29.75 87.75 Q-49.0 89.0 -50.25 84.5 L-44.0 73.25 -46.0 52.5 Q-47.75 52.0 -53.0 59.5 L-59.75 60.0 -64.25 51.75 -64.5 39.5 -55.5 21.0 -49.25 16.5 Q-41.0 15.0 -38.0 18.25 L-27.25 -4.25 Q-39.0 6.25 -66.0 -8.75 -84.0 -21.75 -73.25 -44.25 L-73.25 -44.5 -44.25 -103.25 -36.75 -117.0 -29.25 -122.25 Q-14.5 -128.5 5.25 -116.25 L10.25 -126.0 Q39.25 -142.5 45.0 -136.75 49.5 -131.5 32.75 -104.5 L36.75 -73.25 39.5 -73.0 49.75 -91.75 62.25 -106.0 70.75 -105.0 74.5 -89.75 73.5 -67.75 53.75 -34.75 46.5 -29.0 Q40.75 -27.5 25.75 -33.25 L13.75 -12.5 10.0 -6.25 6.0 -2.75 -7.25 4.75 -14.5 11.5 -15.5 20.0 -11.25 29.5 M-5.5 -48.25 L-10.5 -49.25 -19.75 -49.0 -31.0 -46.75 -37.75 -41.5 -38.5 -32.75 -26.5 -5.75 -5.5 -48.25" fill="#b9b9b9" fill-rule="evenodd" stroke="none"/>
    <path d="M13.75 -12.5 L55.5 72.25 55.5 72.5 56.0 73.5 57.75 78.0 57.75 78.25 Q62.75 91.0 44.5 103.5 27.5 110.5 15.25 90.0 L-11.25 29.5 -15.5 20.0 -14.5 11.5 -7.25 4.75 6.0 -2.75 10.0 -6.25 13.75 -12.5 M-5.5 -48.25 L-26.5 -5.75 -38.5 -32.75 -37.75 -41.5 -31.0 -46.75 -19.75 -49.0 -10.5 -49.25 -5.5 -48.25" fill="#a36c15" fill-rule="evenodd" stroke="none"/>
    <path d="M-27.5 -101.75 L-22.25 -95.75 Q-20.0 -93.0 -22.75 -90.5 -33.0 -94.0 -33.5 -101.75 L-31.5 -103.0 -27.5 -101.75 M-5.75 -85.5 L-8.0 -86.25 -11.5 -89.75 -12.25 -94.25 -10.0 -96.5 -3.5 -96.75 Q-9.0 -90.5 -5.75 -85.5 M15.5 -68.75 L13.75 -69.75 13.25 -77.5 Q14.5 -76.75 14.5 -72.25 L16.5 -70.75 15.5 -68.75" fill="#ffffff" fill-opacity="0.36862746" fill-rule="evenodd" stroke="none"/>
    <path d="M-20.0 -18.5 L-31.0 -42.75 Q-33.0 -45.75 -31.0 -46.75 L-26.0 -47.5 -15.25 -29.75 -15.0 -29.0 -20.0 -18.5 M0.5 0.5 Q2.5 0.0 6.25 8.5 L37.75 72.0 39.25 71.75 39.75 70.75 37.0 65.25 21.25 24.5 12.5 8.75 12.5 7.75 16.75 7.0 49.75 75.75 Q50.5 78.25 42.75 80.5 40.75 82.0 36.5 78.0 L30.5 78.0 28.5 83.0 26.0 78.25 Q24.5 78.75 23.0 74.75 L7.75 43.75 -8.5 8.25 Q-9.5 6.75 -7.75 5.25 L0.5 0.5" fill="#ffec95" fill-opacity="0.36862746" fill-rule="evenodd" stroke="none"/>
  </g>
</svg>
