<?xml version="1.0" encoding="UTF-8" standalone="no"?>
<svg xmlns:ffdec="https://www.free-decompiler.com/flash" xmlns:xlink="http://www.w3.org/1999/xlink" ffdec:objectType="shape" height="245.55px" width="114.4px" xmlns="http://www.w3.org/2000/svg">
  <g transform="matrix(1.0, 0.0, 0.0, 1.0, 63.15, 139.5)">
    <path d="M-12.0 40.25 L-9.75 63.5 -17.25 82.25 Q-32.25 92.25 -43.5 83.0 L-39.5 72.0 -40.5 58.75 -47.0 58.75 -52.25 50.75 -52.5 38.5 -47.0 20.75 Q-40.5 15.0 -35.25 16.25 L-30.25 0.0 Q-41.25 0.5 -55.25 -10.5 -67.5 -23.5 -60.75 -38.0 L-53.5 -62.0 -53.5 -62.5 -40.0 -104.75 -39.25 -106.25 -39.25 -106.75 Q-31.25 -127.25 -5.5 -122.5 L-4.25 -126.5 2.5 -131.5 17.0 -139.5 26.75 -138.5 30.0 -128.75 21.5 -104.5 24.0 -101.25 25.0 -97.25 34.75 -108.0 44.75 -107.25 51.25 -91.75 50.5 -69.25 36.0 -34.5 28.0 -29.5 Q16.75 -28.75 16.0 -30.75 L12.0 -21.25 6.0 -6.75 5.25 -5.25 -12.5 5.0 -18.0 11.25 -17.75 19.75 -14.75 30.25 -14.5 30.75 -12.25 38.5 -12.5 38.75 -12.0 39.75 -12.0 40.25 M-16.0 -45.0 L-14.5 -49.0 -17.5 -48.75 -28.0 -46.25 -33.25 -40.75 -32.75 -32.0 -26.75 -11.75 -26.25 -12.0 -15.75 -44.75 -16.0 -45.0" fill="#b9b9b9" fill-rule="evenodd" stroke="none"/>
    <path d="M-12.0 40.25 L-12.0 39.75 -12.5 38.75 -12.25 38.5 -14.5 30.75 -14.75 30.25 -17.75 19.75 -18.0 11.25 -12.5 5.0 5.25 -5.25 6.0 -6.75 12.0 -21.25 45.75 75.75 46.75 80.75 Q47.0 100.5 31.0 105.25 12.5 109.5 3.0 90.5 L-12.0 40.25 M-16.0 -45.0 L-15.75 -44.75 -26.25 -12.0 -26.75 -11.75 -32.75 -32.0 -33.25 -40.75 -28.0 -46.25 -17.5 -48.75 -14.5 -49.0 -16.0 -45.0" fill="#a36c15" fill-rule="evenodd" stroke="none"/>
    <path d="M-21.25 -87.5 L-28.25 -90.75 Q-31.5 -92.5 -32.0 -99.5 -29.75 -103.75 -21.75 -96.5 L-18.0 -91.25 Q-17.5 -86.75 -21.25 -87.5" fill="#ffffff" fill-opacity="0.36862746" fill-rule="evenodd" stroke="none"/>
    <path d="M-0.5 -0.75 L17.25 45.75 26.25 71.5 26.5 72.0 30.25 71.0 26.5 57.25 21.0 44.0 20.75 43.25 22.5 42.0 31.75 69.5 Q32.0 72.0 41.0 72.0 L41.75 72.25 42.5 75.75 42.0 77.25 33.5 72.0 36.5 76.75 35.5 81.25 35.0 82.25 33.5 82.75 26.75 78.5 21.5 76.5 22.5 79.0 12.5 83.0 Q7.25 78.75 13.0 76.5 L3.5 49.75 -10.75 5.25 -10.75 4.0 -1.75 -1.0 -0.5 -0.75" fill="#ffec95" fill-opacity="0.36862746" fill-rule="evenodd" stroke="none"/>
  </g>
</svg>
