<?xml version="1.0" encoding="UTF-8" standalone="no"?>
<svg xmlns:ffdec="https://www.free-decompiler.com/flash" xmlns:xlink="http://www.w3.org/1999/xlink" ffdec:objectType="shape" height="247.0px" width="81.4px" xmlns="http://www.w3.org/2000/svg">
  <g transform="matrix(1.0, 0.0, 0.0, 1.0, 47.9, 140.0)">
    <path d="M-11.5 82.75 Q-26.75 90.25 -35.25 82.25 L-34.0 72.25 -34.25 55.75 -34.75 55.0 -39.25 49.5 -39.5 38.5 -37.0 20.5 -32.25 17.75 -29.5 -2.75 Q-52.5 -15.5 -46.75 -31.75 L-43.0 -65.75 -42.75 -66.5 -42.75 -68.0 -42.5 -69.75 -42.25 -70.25 -42.25 -71.75 -41.75 -75.5 -41.5 -76.0 -41.5 -77.5 -41.0 -81.25 -40.75 -81.75 -40.75 -83.25 -40.5 -85.0 -40.25 -85.25 -40.25 -87.0 -40.0 -88.25 -40.0 -89.0 -39.75 -90.75 -39.5 -91.25 -39.5 -92.5 -39.25 -93.0 -39.25 -94.25 -39.0 -95.0 Q-39.75 -115.0 -19.5 -121.25 L-19.0 -125.25 -16.0 -131.25 -3.75 -140.0 6.75 -139.5 13.5 -130.5 11.5 -118.25 Q28.75 -111.0 28.75 -91.0 L28.5 -90.0 28.5 -89.25 28.25 -88.75 28.25 -88.5 26.5 -80.25 26.5 -79.75 26.25 -79.25 26.25 -79.0 24.0 -70.0 16.75 -35.0 15.25 -34.25 13.0 -26.0 11.75 -32.25 Q7.0 -29.0 6.0 -29.75 L1.5 -7.25 0.75 -5.25 -3.5 -2.75 Q-23.75 4.0 -20.0 19.75 L-19.75 20.25 -16.5 45.0 -16.5 45.75 -14.0 65.5 -13.75 66.5 -11.5 82.75 M-26.0 -29.25 L-23.5 -46.0 -27.75 -40.25 -26.25 -29.25 -26.0 -29.25" fill="#b9b9b9" fill-rule="evenodd" stroke="none"/>
    <path d="M13.0 -26.0 L32.5 77.0 32.75 81.5 33.25 83.25 33.25 84.25 33.5 86.25 Q31.25 103.75 13.0 107.0 -10.5 105.0 -11.25 84.5 L-11.5 82.75 -13.75 66.5 -14.0 65.5 -16.5 45.75 -16.5 45.0 -19.75 20.25 -20.0 19.75 Q-23.75 4.0 -3.5 -2.75 L0.75 -5.25 1.5 -7.25 6.0 -29.75 Q7.0 -29.0 11.75 -32.25 L13.0 -26.0 M-26.0 -29.25 L-26.25 -29.25 -27.75 -40.25 -23.5 -46.0 -26.0 -29.25" fill="#a36c15" fill-rule="evenodd" stroke="none"/>
    <path d="M-23.25 -87.0 Q-33.25 -93.25 -28.25 -98.0 L-26.75 -98.5 -22.75 -98.0 Q-22.0 -97.25 -23.75 -90.0 L-23.25 -87.0" fill="#ffffff" fill-opacity="0.36862746" fill-rule="evenodd" stroke="none"/>
    <path d="M-10.25 1.0 L-5.25 -2.0 Q-3.5 -3.25 -2.75 0.25 L7.75 42.0 7.75 42.75 10.75 45.0 5.5 16.25 Q4.5 14.25 6.0 14.5 L10.5 24.75 18.25 45.75 26.25 72.75 26.5 78.5 23.0 76.5 Q24.5 80.25 17.0 82.75 15.25 83.0 12.25 77.5 L6.25 74.5 Q5.25 75.25 7.75 78.75 L5.25 83.25 Q0.75 80.5 -6.0 80.25 L-6.75 78.75 0.25 74.5 -8.75 21.25 -10.25 1.0" fill="#ffec95" fill-opacity="0.36862746" fill-rule="evenodd" stroke="none"/>
  </g>
</svg>
