<?xml version="1.0" encoding="UTF-8" standalone="no"?>
<svg xmlns:ffdec="https://www.free-decompiler.com/flash" xmlns:xlink="http://www.w3.org/1999/xlink" ffdec:objectType="shape" height="246.75px" width="68.45px" xmlns="http://www.w3.org/2000/svg">
  <g transform="matrix(1.0, 0.0, 0.0, 1.0, 36.5, 139.5)">
    <path d="M-25.5 83.0 L-27.25 81.75 -28.25 64.25 -27.75 36.5 -31.75 -28.75 -32.25 -32.25 -32.25 -33.75 -34.5 -35.0 -36.5 -68.75 -36.0 -99.25 Q-34.25 -107.5 -32.75 -107.75 L-33.5 -130.5 -24.5 -139.5 -14.0 -139.5 -3.75 -130.5 -3.75 -122.75 Q36.0 -120.25 31.5 -88.25 L31.5 -86.75 31.25 -85.25 31.25 -85.0 28.5 -41.5 28.75 -40.25 28.25 -37.5 28.5 -34.0 28.25 -33.5 28.25 -31.0 28.0 -30.5 27.5 -28.0 27.5 -27.5 26.5 -17.25 Q24.25 -10.75 17.75 -6.25 L16.75 -40.25 14.5 -45.5 7.5 -48.25 -2.5 -49.0 -3.75 -49.0 -3.5 -5.5 Q-5.85 -4.1 -8.25 -2.75 L-13.25 -0.5 -20.75 4.75 -23.25 11.25 -25.5 83.0" fill="#b9b9b9" fill-rule="evenodd" stroke="none"/>
    <path d="M17.75 -6.25 L20.25 83.75 19.5 88.75 Q15.5 106.5 -3.75 107.25 L-9.0 106.5 -17.0 102.5 -22.5 95.0 Q-26.0 89.25 -25.75 84.0 L-25.75 83.5 -25.5 83.0 -23.25 11.25 -20.75 4.75 -13.25 -0.5 -8.25 -2.75 Q-5.85 -4.1 -3.5 -5.5 L-3.75 -49.0 -2.5 -49.0 7.5 -48.25 14.5 -45.5 16.75 -40.25 17.75 -6.25" fill="#a36c15" fill-rule="evenodd" stroke="none"/>
    <path d="M12.0 -83.5 L5.0 -84.75 Q3.25 -88.25 4.5 -90.25 L9.75 -95.0 Q12.75 -97.75 20.5 -95.75 26.75 -88.5 12.0 -83.5" fill="#ffffff" fill-opacity="0.36862746" fill-rule="evenodd" stroke="none"/>
    <path d="M-2.25 5.25 Q-1.25 3.0 2.75 1.5 L3.75 2.25 8.5 12.25 11.5 74.0 Q6.25 73.0 10.0 79.5 L8.0 82.75 3.5 81.5 Q-4.25 75.75 -5.75 76.5 -5.75 78.5 -7.75 80.25 L-13.25 83.25 -15.5 80.5 -18.5 78.75 -14.0 79.0 -14.75 73.25 -13.75 29.75 -11.75 19.5 -7.75 7.5 -7.75 4.0 -2.75 4.75 -2.25 5.25" fill="#ffec95" fill-opacity="0.36862746" fill-rule="evenodd" stroke="none"/>
  </g>
</svg>
