<?xml version="1.0" encoding="UTF-8" standalone="no"?>
<svg xmlns:ffdec="https://www.free-decompiler.com/flash" xmlns:xlink="http://www.w3.org/1999/xlink" ffdec:objectType="shape" height="245.5px" width="106.55px" xmlns="http://www.w3.org/2000/svg">
  <g transform="matrix(1.0, 0.0, 0.0, 1.0, 63.5, 138.5)">
    <path d="M-27.0 20.0 L-40.0 -29.25 Q-42.75 -26.75 -53.75 -34.75 L-62.75 -67.75 -63.5 -91.75 -55.5 -106.75 -45.0 -107.5 -49.5 -128.25 -49.5 -129.25 -44.0 -137.75 -33.75 -138.5 -23.5 -131.75 Q-21.75 -131.75 -17.25 -125.25 L-15.75 -118.25 Q23.75 -131.25 33.0 -104.75 L33.25 -103.25 33.5 -102.75 33.5 -101.75 34.0 -99.25 34.0 -99.0 34.75 -92.5 34.75 -91.5 35.0 -91.0 39.5 -59.5 39.75 -59.0 39.75 -57.5 40.0 -57.0 40.0 -55.5 40.25 -54.75 40.25 -53.5 40.5 -52.75 40.5 -51.5 40.75 -50.5 40.75 -49.5 41.0 -48.5 41.0 -47.75 42.25 -38.0 42.25 -37.25 42.5 -37.25 42.5 -35.75 42.25 -34.75 42.5 -34.0 42.5 -33.75 42.75 -33.25 42.75 -32.5 Q45.75 -6.0 17.5 -0.5 L23.0 -40.5 19.25 -45.75 10.75 -48.5 0.25 -49.0 -8.0 -48.25 -10.75 -47.0 -5.5 -18.75 -8.0 -5.5 -13.0 -2.5 Q-17.0 -2.5 -24.0 5.25 L-27.0 20.0" fill="#b9b9b9" fill-rule="evenodd" stroke="none"/>
    <path d="M17.5 -0.5 L6.0 84.5 5.5 85.75 5.0 87.5 5.25 87.5 5.0 88.25 4.75 88.5 4.75 89.5 4.25 91.5 4.0 91.75 3.25 94.5 Q-6.5 110.0 -22.5 106.25 -39.0 100.75 -38.75 82.75 L-38.0 77.25 -27.0 20.5 -27.0 20.0 -24.0 5.25 Q-17.0 -2.5 -13.0 -2.5 L-8.0 -5.5 -5.5 -18.75 -10.75 -47.0 -8.0 -48.25 0.25 -49.0 10.75 -48.5 19.25 -45.75 23.0 -40.5 17.5 -0.5" fill="#a36c15" fill-rule="evenodd" stroke="none"/>
    <path d="M-10.75 -83.25 Q-9.0 -87.75 -11.5 -95.5 L-7.5 -94.75 Q-5.0 -94.5 -2.5 -90.75 -0.75 -83.25 -9.0 -83.0 L-10.75 -83.25 M13.5 -85.25 Q6.25 -85.25 12.0 -93.5 18.75 -100.5 24.5 -97.75 29.5 -91.0 13.5 -85.25" fill="#ffffff" fill-opacity="0.36862746" fill-rule="evenodd" stroke="none"/>
    <path d="M6.5 -11.5 L4.25 20.5 1.75 45.5 -2.25 74.5 -2.25 76.75 1.25 78.75 0.0 83.5 -5.5 77.0 Q-7.25 77.0 -6.25 80.5 L-10.75 83.0 -13.75 78.75 -20.0 73.0 -21.0 73.0 -19.0 78.0 -21.75 83.0 -32.0 78.75 -31.5 72.75 -24.25 72.0 -23.5 66.0 -17.5 37.5 -16.75 36.5 -14.75 15.0 -11.25 14.0 -10.5 14.75 -16.25 45.25 -15.75 46.5 -12.25 36.0 -12.5 35.0 6.25 -20.0 6.5 -11.5" fill="#ffec95" fill-opacity="0.36862746" fill-rule="evenodd" stroke="none"/>
  </g>
</svg>
