<?xml version="1.0" encoding="UTF-8" standalone="no"?>
<svg xmlns:ffdec="https://www.free-decompiler.com/flash" xmlns:xlink="http://www.w3.org/1999/xlink" ffdec:objectType="shape" height="242.4px" width="145.6px" xmlns="http://www.w3.org/2000/svg">
  <g transform="matrix(1.0, 0.0, 0.0, 1.0, 86.5, 136.5)">
    <path d="M-28.5 11.0 L-47.75 -30.75 Q-50.75 -28.25 -61.75 -28.75 L-70.0 -34.0 -85.5 -67.0 -86.5 -89.25 -81.0 -104.25 -71.75 -105.5 -60.0 -92.75 -55.75 -84.25 -54.0 -103.0 -63.25 -125.75 -60.75 -135.5 -52.0 -136.5 -29.5 -124.0 -23.75 -108.25 Q-10.0 -124.25 12.75 -123.25 29.75 -123.5 35.5 -104.25 L35.5 -104.0 35.75 -103.5 35.75 -103.25 36.0 -103.0 36.0 -102.5 36.25 -102.25 36.25 -102.0 36.5 -101.75 37.0 -99.75 Q37.0 -99.5 37.25 -99.5 L37.25 -99.0 37.5 -98.75 37.75 -98.25 37.75 -98.0 38.0 -97.5 38.0 -97.0 38.25 -96.75 38.25 -96.25 38.5 -96.25 38.5 -95.75 48.5 -65.0 48.75 -64.0 48.75 -63.5 49.0 -63.5 49.0 -63.0 49.25 -62.25 49.5 -62.0 49.5 -61.5 51.5 -55.0 51.75 -55.0 51.75 -54.25 52.75 -51.0 53.0 -51.0 53.0 -50.25 54.0 -47.0 54.25 -47.0 54.25 -46.25 56.5 -38.75 Q63.5 -23.25 51.5 -10.75 43.75 0.25 18.75 -0.75 L28.25 -33.5 Q29.0 -41.0 27.75 -41.5 L22.0 -46.5 Q15.75 -49.75 3.25 -49.25 L-4.25 -48.25 -8.5 -45.0 -10.25 -40.5 -19.75 -61.75 -20.75 -55.0 -12.5 -33.5 -7.5 -20.0 -7.75 -18.0 -12.0 -5.75 -17.0 -2.5 -21.5 -0.5 -26.25 5.25 -28.5 11.0 M13.5 17.0 L18.75 20.5 Q28.0 40.75 25.25 48.75 L20.0 57.75 Q11.75 58.25 11.5 56.25 L10.5 70.75 14.75 81.75 Q6.75 88.0 -6.5 84.25 L13.5 17.0" fill="#b9b9b9" fill-rule="evenodd" stroke="none"/>
    <path d="M18.75 -0.75 L13.5 17.0 -6.5 84.25 -8.25 90.25 -10.25 94.75 Q-18.75 109.0 -37.25 105.0 -54.25 99.75 -51.25 76.25 L-28.5 11.5 -28.5 11.0 -26.25 5.25 -21.5 -0.5 -17.0 -2.5 -12.0 -5.75 -7.75 -18.0 -7.5 -20.0 -12.5 -33.5 -10.25 -40.0 -10.25 -40.5 -8.5 -45.0 -4.25 -48.25 3.25 -49.25 Q15.75 -49.75 22.0 -46.5 L27.75 -41.5 Q29.0 -41.0 28.25 -33.5 L18.75 -0.75" fill="#a36c15" fill-rule="evenodd" stroke="none"/>
    <path d="M-37.0 -128.0 L-39.0 -129.5 -37.5 -129.0 -37.0 -128.0 M-28.75 -103.5 L-34.0 -118.5 Q-31.25 -115.75 -28.75 -103.5 M-1.75 -95.75 Q11.25 -89.0 -7.0 -82.5 L-15.0 -84.0 Q-16.5 -84.75 -17.0 -89.75 -15.25 -97.25 -1.75 -95.75 M14.5 -88.25 Q13.25 -92.75 15.0 -93.25 22.0 -102.75 27.75 -100.25 28.75 -91.0 17.5 -87.75 L14.5 -88.25 M-58.5 -85.75 L-60.25 -92.5 -58.25 -90.0 -58.5 -85.75" fill="#ffffff" fill-opacity="0.36862746" fill-rule="evenodd" stroke="none"/>
    <path d="M4.0 -20.75 L5.75 -24.0 7.5 -30.5 12.0 -39.75 Q13.5 -38.5 11.5 -27.5 L3.75 17.0 -5.0 46.5 -4.75 47.5 -6.25 50.75 -6.5 53.5 -8.0 56.75 -8.25 59.5 -12.75 73.0 -12.5 74.0 -14.25 79.0 Q-16.5 78.0 -17.25 83.25 L-20.0 80.0 -27.25 80.25 -29.75 76.75 -33.25 74.0 Q-32.5 81.0 -39.75 82.75 L-42.75 76.75 -46.75 72.25 -37.0 70.5 -27.5 41.0 -27.0 42.75 -33.0 71.25 -29.5 72.5 -27.75 71.5 -26.25 66.0 -24.25 62.0 -20.75 51.0 -19.75 50.0 -20.0 49.0 -6.0 7.5 -4.75 5.5 4.0 -20.75" fill="#ffec95" fill-opacity="0.36862746" fill-rule="evenodd" stroke="none"/>
  </g>
</svg>
