<?xml version="1.0" encoding="UTF-8" standalone="no"?>
<svg xmlns:ffdec="https://www.free-decompiler.com/flash" xmlns:xlink="http://www.w3.org/1999/xlink" ffdec:objectType="shape" height="238.65px" width="178.15px" xmlns="http://www.w3.org/2000/svg">
  <g transform="matrix(1.0, 0.0, 0.0, 1.0, 104.25, 133.75)">
    <path d="M-28.75 7.5 L-54.25 -32.5 -68.75 -28.25 -76.25 -28.0 -82.25 -32.75 -102.75 -64.25 -104.25 -83.25 -104.25 -86.5 -101.25 -101.5 -93.75 -102.5 Q-82.5 -93.75 -70.5 -70.25 L-65.25 -71.25 -61.25 -101.0 -73.0 -121.75 -74.0 -124.75 -74.75 -132.5 -67.0 -133.75 -40.5 -122.5 -26.5 -95.5 Q-18.75 -117.0 7.75 -123.5 29.0 -130.25 40.25 -102.5 L40.5 -101.75 68.0 -47.0 68.0 -46.75 68.5 -45.75 68.75 -45.0 Q81.0 -30.75 64.0 -10.5 L56.5 -5.0 45.75 -0.75 Q31.25 2.0 21.75 -5.75 L33.75 -33.25 32.75 -41.5 Q22.25 -50.75 5.75 -49.25 L-0.25 -48.25 -3.25 -44.0 -24.0 -78.25 -28.0 -54.75 -12.25 -25.5 -9.25 -19.25 -9.75 -18.0 -16.25 -5.25 -20.5 -2.5 -24.5 -0.5 -28.75 7.5 M11.25 18.0 Q14.0 15.0 22.5 16.0 L28.5 20.25 38.0 38.0 38.5 49.5 34.25 58.5 27.5 58.0 19.0 48.75 16.75 71.25 Q25.25 81.75 22.0 84.75 L12.0 86.0 3.5 85.5 -2.0 81.0 -10.75 67.75 11.25 18.0" fill="#b9b9b9" fill-rule="evenodd" stroke="none"/>
    <path d="M21.75 -5.75 L11.25 18.0 -10.75 67.75 -20.5 89.75 -23.5 94.5 Q-32.75 109.0 -50.25 103.25 -68.5 92.5 -62.0 75.25 L-60.25 71.5 -60.25 71.25 -28.75 7.5 -24.5 -0.5 -20.5 -2.5 -16.25 -5.25 -9.75 -18.0 -9.25 -19.25 -12.25 -25.5 -3.25 -44.0 -0.25 -48.25 5.75 -49.25 Q22.25 -50.75 32.75 -41.5 L33.75 -33.25 21.75 -5.75" fill="#a36c15" fill-rule="evenodd" stroke="none"/>
    <path d="M29.0 -102.0 L28.5 -97.5 Q23.25 -92.0 19.75 -90.75 L18.5 -90.75 17.25 -92.75 19.0 -97.0 23.25 -101.75 Q25.25 -104.25 29.0 -102.0 M-11.25 -91.0 Q-8.75 -98.0 6.5 -96.0 12.75 -89.5 -2.75 -83.25 L-10.25 -83.75 Q-13.75 -87.25 -11.25 -91.0 M-38.25 -103.25 L-41.5 -86.25 -42.0 -86.5 -40.0 -103.5 -51.0 -124.75 -53.5 -127.5 Q-49.0 -127.25 -38.25 -103.25 M-81.25 -83.0 L-82.75 -90.0 Q-81.75 -90.25 -79.25 -85.25 L-81.25 -83.0" fill="#ffffff" fill-opacity="0.36862746" fill-rule="evenodd" stroke="none"/>
    <path d="M26.5 -45.25 L22.25 -36.0 22.0 -34.0 21.0 -33.0 20.75 -31.0 19.75 -30.0 19.5 -28.0 18.5 -27.0 18.0 -24.5 9.5 -5.75 8.25 -1.5 7.0 0.0 6.5 2.5 5.5 3.5 5.0 6.0 4.0 7.0 3.5 9.5 2.25 11.0 1.75 13.5 -0.25 16.75 0.0 17.5 -15.0 50.25 -14.75 51.0 -16.0 52.5 -16.75 55.5 -20.25 62.0 -21.0 65.0 -28.0 80.0 Q-32.0 74.75 -33.0 82.5 L-42.25 75.0 -43.25 75.25 Q-43.25 78.25 -44.5 79.0 L-48.25 80.0 -53.5 79.0 -55.0 78.25 -55.5 74.75 -54.75 75.0 -54.0 75.0 -52.25 69.25 -42.25 50.0 -42.0 48.25 -31.25 27.5 -31.25 26.25 -21.5 6.5 Q-14.5 15.5 -40.25 72.5 L-37.75 74.25 -36.5 74.0 -25.0 45.5 -24.0 44.5 -24.25 43.75 -15.75 25.5 -15.0 22.5 -13.75 21.0 -14.0 20.25 12.0 -36.5 20.5 -46.5 20.25 -47.0 22.5 -47.5 26.25 -46.5 26.5 -45.25" fill="#ffec95" fill-opacity="0.36862746" fill-rule="evenodd" stroke="none"/>
  </g>
</svg>
