<?xml version="1.0" encoding="UTF-8" standalone="no"?>
<svg xmlns:ffdec="https://www.free-decompiler.com/flash" xmlns:xlink="http://www.w3.org/1999/xlink" ffdec:objectType="shape" height="233.25px" width="203.55px" xmlns="http://www.w3.org/2000/svg">
  <g transform="matrix(1.0, 0.0, 0.0, 1.0, 116.5, 130.25)">
    <path d="M2.25 -46.75 L-23.25 -80.25 -24.0 -84.5 Q-26.0 -93.5 -15.25 -107.75 14.25 -135.5 33.5 -118.25 L34.0 -117.75 34.0 -117.5 41.25 -107.5 63.0 -75.25 63.25 -74.75 63.75 -74.0 64.25 -73.5 64.25 -73.25 79.0 -51.25 79.25 -50.75 85.25 -41.5 Q87.25 -37.25 87.0 -33.25 87.75 -23.25 75.5 -10.5 44.5 11.25 29.25 -12.5 L28.25 -13.75 36.25 -28.25 Q45.75 -48.0 8.0 -49.25 L3.25 -48.25 2.5 -47.0 2.25 -46.75 M12.0 14.5 L16.0 20.25 Q28.75 13.75 32.5 16.25 L37.75 20.5 50.0 38.5 Q52.5 51.25 48.0 59.0 41.25 63.25 30.25 44.25 L26.25 46.0 22.25 71.5 30.5 82.25 31.75 85.25 19.75 86.5 10.75 85.75 -8.0 62.75 -8.25 61.0 -5.25 44.75 12.0 14.5 M-29.25 4.0 L-58.5 -33.25 Q-87.0 -22.75 -90.5 -31.5 L-115.25 -62.75 -116.5 -81.25 -116.0 -97.75 -110.25 -99.0 -100.75 -88.0 -85.25 -67.25 -70.75 -70.0 -65.75 -99.0 -80.75 -120.0 -84.25 -127.25 -84.75 -128.75 -78.0 -130.25 -58.0 -124.5 -51.75 -122.0 -49.5 -120.5 -27.25 -87.25 -34.25 -54.25 -12.75 -22.5 -12.0 -21.5 -10.75 -19.25 -19.25 -5.25 -23.25 -2.25 -26.5 -0.5 -29.25 4.0" fill="#b9b9b9" fill-rule="evenodd" stroke="none"/>
    <path d="M28.25 -13.75 L12.0 14.5 -5.25 44.75 -32.75 92.5 -35.75 96.5 -36.0 97.0 -40.25 100.5 -45.25 102.5 -54.5 103.0 Q-59.0 102.5 -63.75 99.75 -77.75 92.25 -69.75 69.5 L-69.5 69.0 -29.25 4.0 -26.5 -0.5 -23.25 -2.25 -19.25 -5.25 -10.75 -19.25 -12.0 -21.5 -12.75 -22.5 1.0 -44.25 1.0 -44.5 1.25 -44.75 1.75 -45.5 1.75 -45.75 2.25 -46.5 2.25 -46.75 2.5 -47.0 3.25 -48.25 8.0 -49.25 Q45.75 -48.0 36.25 -28.25 L28.25 -13.75" fill="#a36c15" fill-rule="evenodd" stroke="none"/>
    <path d="M29.5 -104.75 Q28.25 -103.5 30.75 -95.75 L25.25 -97.0 25.75 -91.75 23.75 -93.25 Q23.25 -95.25 18.75 -94.75 L21.25 -101.0 Q26.75 -107.0 28.5 -106.0 L29.5 -104.75 M-0.25 -84.75 L-6.75 -85.0 Q-8.75 -87.5 -6.75 -91.0 4.0 -102.25 9.75 -98.5 L11.25 -96.0 8.75 -90.25 2.0 -85.5 -0.25 -84.75 M-47.75 -101.75 L-50.0 -89.0 -51.0 -73.0 Q-50.75 -69.5 -52.5 -66.25 L-52.5 -62.75 -55.75 -63.75 -58.5 -66.75 -54.25 -68.5 -48.5 -102.0 -49.0 -102.75 -48.5 -103.0 -47.75 -101.75" fill="#ffffff" fill-opacity="0.36862746" fill-rule="evenodd" stroke="none"/>
    <path d="M22.75 -47.75 L28.0 -47.0 31.0 -45.25 13.75 -12.0 12.5 -10.75 -8.0 28.0 -10.25 31.0 -11.0 33.5 -11.75 33.75 -12.5 36.0 -39.25 79.5 -40.5 80.25 -45.25 77.0 -48.0 81.5 -54.5 72.0 Q-55.75 72.25 -55.5 77.5 L-60.0 80.25 -65.5 72.25 Q-66.5 71.0 -64.75 68.5 L-44.75 37.0 -43.5 34.0 -42.25 33.0 -38.25 25.5 -37.0 24.5 -31.0 13.75 -30.25 13.5 -29.0 10.5 -19.75 1.5 Q-17.25 -1.5 -14.75 -0.5 L-12.75 1.25 -29.75 34.5 -51.0 73.0 -50.25 74.0 -47.25 75.0 -46.75 73.0 -44.25 69.5 -43.75 67.5 -26.5 35.75 -25.5 35.0 -24.75 32.5 -22.75 30.0 -20.75 25.25 -20.0 25.0 -19.75 23.5 -17.5 20.5 -10.75 7.25 -10.0 7.0 -7.0 0.5 -5.25 -1.5 -5.0 -3.0 22.75 -47.75" fill="#ffec95" fill-opacity="0.36862746" fill-rule="evenodd" stroke="none"/>
  </g>
</svg>
