<?xml version="1.0" encoding="UTF-8" standalone="no"?>
<svg xmlns:ffdec="https://www.free-decompiler.com/flash" xmlns:xlink="http://www.w3.org/1999/xlink" ffdec:objectType="shape" height="227.7px" width="223.75px" xmlns="http://www.w3.org/2000/svg">
  <g transform="matrix(1.0, 0.0, 0.0, 1.0, 125.0, 126.75)">
    <path d="M6.75 -48.0 L-12.5 -69.0 Q-33.25 -83.0 -6.25 -113.25 21.5 -137.75 39.0 -114.5 L41.0 -112.25 41.5 -111.5 81.75 -63.25 82.25 -62.25 83.0 -61.75 83.5 -61.0 84.25 -60.25 88.25 -55.25 88.75 -54.25 Q110.25 -38.0 85.5 -10.75 L75.75 -4.0 Q69.0 -0.5 62.25 0.0 L52.25 -1.25 Q49.0 -2.0 40.5 -12.0 L34.25 -18.25 39.25 -25.75 40.25 -28.5 41.25 -34.5 Q38.25 -42.75 37.0 -43.0 19.5 -52.5 9.75 -49.25 L6.75 -48.0 M13.5 12.25 L20.5 21.5 Q38.75 14.5 42.0 16.5 L61.0 39.75 61.5 50.5 60.25 60.5 54.75 59.75 42.0 44.25 41.25 43.75 32.0 47.25 31.25 47.75 27.5 71.25 40.5 86.5 27.5 87.25 Q21.75 87.5 18.0 86.25 L-1.75 64.25 -2.5 62.0 3.0 38.75 3.0 37.5 -0.75 33.25 13.5 12.25 M-29.25 2.0 L-61.25 -33.25 -82.25 -28.25 -93.0 -26.5 -122.5 -59.25 -125.0 -93.75 -120.75 -94.75 -94.75 -64.5 -73.75 -68.75 -68.0 -97.0 -90.75 -124.5 -91.0 -125.0 -87.25 -126.75 -59.25 -121.0 -56.75 -118.75 -31.25 -86.75 -39.0 -53.5 -12.5 -20.5 -11.75 -19.5 -22.5 -4.5 -26.0 -1.25 -28.0 0.0 -29.25 2.0" fill="#b9b9b9" fill-rule="evenodd" stroke="none"/>
    <path d="M34.25 -18.25 L13.5 12.25 -0.75 33.25 -40.5 91.5 -44.25 95.75 Q-55.0 105.5 -72.0 97.0 -86.25 83.0 -76.5 67.75 L-76.25 67.25 -29.25 2.0 -28.0 0.0 -26.0 -1.25 -22.5 -4.5 -11.75 -19.5 -12.5 -20.5 -5.25 -31.0 -5.25 -31.25 -1.75 -36.0 -1.5 -36.5 -1.0 -37.0 -0.75 -37.5 6.75 -48.0 9.75 -49.25 Q19.5 -52.5 37.0 -43.0 38.25 -42.75 41.25 -34.5 L40.25 -28.5 39.25 -25.75 34.25 -18.25" fill="#a36c15" fill-rule="evenodd" stroke="none"/>
    <path d="M28.75 -108.0 Q33.25 -94.75 36.5 -93.75 L31.0 -87.0 21.25 -97.75 Q23.0 -88.5 19.0 -97.25 18.75 -102.5 26.5 -108.0 L28.75 -108.0 M11.5 -100.75 Q15.25 -94.75 -1.75 -86.25 -7.5 -87.5 -1.25 -95.25 L6.0 -100.75 11.5 -100.75 M-59.75 -62.5 L-68.75 -65.0 -61.75 -66.75 -60.75 -73.0 -57.0 -69.75 -59.75 -62.5" fill="#ffffff" fill-opacity="0.36862746" fill-rule="evenodd" stroke="none"/>
    <path d="M35.0 -43.0 L19.25 -19.25 18.75 -17.5 16.0 -14.25 15.5 -12.5 -39.25 68.5 Q-52.5 79.25 -56.0 74.0 L-60.25 80.0 -64.0 74.75 Q-64.75 77.75 -70.5 76.75 L-71.75 71.25 Q-69.5 77.75 -66.5 69.75 L-71.5 67.75 -71.5 67.0 -70.5 66.5 -66.5 60.25 -49.75 38.25 -48.5 37.5 -48.0 36.0 -43.0 30.5 -42.5 29.0 -29.75 14.0 -16.75 -3.5 -0.25 -23.0 1.25 -25.75 1.25 -24.0 -7.0 -7.75 -7.25 -6.0 -19.0 14.5 -21.25 17.25 -22.25 20.0 -25.25 24.0 -25.25 25.0 -26.0 25.25 -26.75 27.5 -42.75 52.75 -42.25 53.25 -24.25 26.5 -22.25 22.5 -20.25 20.5 -15.5 12.5 -6.5 0.0 -2.25 -7.25 -0.75 -8.5 2.5 -14.25 4.0 -15.5 7.25 -21.25 11.5 -26.5 13.25 -30.0 15.25 -32.0 16.5 -34.75 23.5 -44.0 24.25 -46.0 Q26.0 -50.75 34.75 -44.25 L35.0 -43.0" fill="#ffec95" fill-opacity="0.36862746" fill-rule="evenodd" stroke="none"/>
  </g>
</svg>
