<?xml version="1.0" encoding="UTF-8" standalone="no"?>
<svg xmlns:ffdec="https://www.free-decompiler.com/flash" xmlns:xlink="http://www.w3.org/1999/xlink" ffdec:objectType="shape" height="226.1px" width="236.5px" xmlns="http://www.w3.org/2000/svg">
  <g transform="matrix(1.0, 0.0, 0.0, 1.0, 128.0, 127.1)">
    <path d="M-28.75 1.0 L-62.25 -32.75 -95.5 -25.75 -125.25 -56.5 -128.0 -89.75 -126.25 -91.0 -99.25 -62.5 -74.75 -67.5 -69.25 -94.5 -93.0 -120.75 Q-91.75 -123.75 -89.75 -122.75 L-61.75 -118.5 -32.25 -85.75 -32.0 -84.5 -40.25 -53.25 -11.75 -20.75 -28.75 1.0 M10.5 -48.75 L-15.25 -73.75 Q-26.5 -94.5 2.0 -118.5 24.0 -137.5 41.75 -114.5 L105.5 -49.0 Q107.0 -48.5 108.5 -41.25 L107.25 -31.25 Q105.75 -24.75 97.25 -14.5 68.25 12.75 50.25 -11.0 L38.75 -21.5 42.5 -26.5 43.0 -29.0 42.5 -35.25 37.5 -43.5 Q14.25 -54.25 10.5 -48.75 M15.0 9.75 L25.75 22.0 45.25 16.5 49.75 16.75 69.5 38.75 70.75 52.0 70.75 62.0 Q65.75 63.25 51.0 44.0 L35.75 48.75 31.75 70.5 48.0 87.75 48.25 88.25 27.0 88.0 24.25 87.0 2.5 64.5 8.75 39.0 -0.25 29.75 15.0 9.75" fill="#b9b9b9" fill-rule="evenodd" stroke="none"/>
    <path d="M-28.75 1.0 L-11.75 -20.75 10.5 -48.75 Q14.25 -54.25 37.5 -43.5 L42.5 -35.25 43.0 -29.0 42.5 -26.5 38.75 -21.5 15.0 9.75 -0.25 29.75 -46.75 90.25 -50.5 94.25 -54.75 97.0 -60.25 98.75 -67.0 99.0 Q-72.25 98.25 -76.75 95.0 -91.0 82.25 -79.5 65.25 L-28.75 1.0" fill="#a36c15" fill-rule="evenodd" stroke="none"/>
    <path d="M67.75 -70.5 L75.5 -63.25 74.75 -60.5 67.75 -70.5 M60.5 -63.5 L29.25 -90.5 26.75 -87.75 16.5 -97.75 15.5 -99.0 25.0 -96.75 18.25 -102.75 Q18.5 -105.75 24.5 -110.75 L25.5 -111.0 27.25 -110.0 26.25 -111.75 26.75 -112.0 45.75 -93.25 60.0 -75.75 64.75 -69.25 74.0 -53.5 70.5 -57.0 60.5 -63.5 M11.75 -103.5 Q11.75 -93.75 -0.25 -89.0 -2.5 -88.5 -2.5 -93.0 L1.75 -99.0 8.0 -103.5 11.75 -103.5 M50.75 22.25 L49.75 22.0 52.5 21.5 50.75 22.25 M-118.5 -75.5 L-120.0 -81.0 -117.0 -78.0 -118.5 -75.5 M-59.25 -98.75 L-59.5 -97.25 -60.25 -99.25 -64.25 -103.5 -59.25 -98.75" fill="#ffffff" fill-opacity="0.36862746" fill-rule="evenodd" stroke="none"/>
    <path d="M38.75 -42.0 L16.25 -13.5 15.75 -12.0 11.75 -7.75 9.5 -4.0 3.75 2.5 4.0 3.0 -1.75 9.5 -1.5 10.0 -2.75 10.75 -4.25 13.5 -26.25 40.5 -26.0 41.0 -38.25 53.25 -38.75 53.0 Q-37.0 51.75 -34.5 45.5 L-25.5 30.25 -24.75 30.0 -24.0 27.75 -22.0 25.5 -22.0 24.5 -18.0 19.0 -12.25 8.75 -10.5 7.0 -10.5 6.0 -9.25 5.0 -8.75 3.25 -7.0 1.5 -7.0 0.5 -4.75 -2.0 -4.75 -3.0 -2.5 -5.5 5.25 -18.25 6.5 -19.0 25.75 -45.5 Q27.5 -48.5 28.5 -48.0 L38.25 -43.0 38.75 -42.0 M10.75 -34.25 L2.5 -17.5 Q-1.5 -9.25 -2.75 -8.75 L-3.0 -7.0 -4.0 -6.5 -6.0 -2.5 -7.0 -2.0 -9.25 2.0 -10.25 2.5 -12.5 6.5 -13.5 7.0 -16.5 12.0 -17.5 12.5 -20.5 17.5 -22.25 19.0 -26.0 25.0 -27.75 26.5 -57.25 67.0 -63.75 75.25 Q-66.75 71.25 -69.5 78.25 L-71.25 74.75 Q-77.0 72.5 -76.75 71.25 L-74.75 68.25 -73.25 68.5 -72.25 67.5 -59.25 48.5 -8.25 -15.5 -5.75 -19.5 13.0 -40.75 10.75 -34.25" fill="#ffec95" fill-opacity="0.36862746" fill-rule="evenodd" stroke="none"/>
  </g>
</svg>
