<?xml version="1.0" encoding="UTF-8" standalone="no"?>
<svg xmlns:ffdec="https://www.free-decompiler.com/flash" xmlns:xlink="http://www.w3.org/1999/xlink" ffdec:objectType="shape" height="224.1px" width="242.25px" xmlns="http://www.w3.org/2000/svg">
  <g transform="matrix(1.0, 0.0, 0.0, 1.0, 126.25, 127.4)">
    <path d="M12.25 -49.75 L-11.25 -71.0 -12.0 -71.5 Q-26.0 -79.5 -6.25 -109.75 13.5 -133.5 32.0 -125.25 L33.5 -123.75 33.75 -123.75 42.25 -115.75 79.0 -83.0 80.25 -82.0 113.25 -51.25 Q114.75 -50.5 116.0 -43.0 116.25 -30.5 103.5 -15.25 74.75 13.0 56.75 -11.0 L42.25 -23.5 43.75 -26.75 44.0 -29.25 Q43.25 -35.5 41.5 -37.0 L36.75 -43.75 27.0 -48.75 Q16.75 -51.75 12.25 -49.75 M16.5 8.0 L30.25 22.75 53.0 16.75 56.0 17.0 77.5 39.25 79.5 63.75 Q75.25 63.75 58.75 44.5 L40.5 49.5 36.0 71.25 53.75 89.25 54.25 90.0 32.25 89.25 30.25 88.25 6.75 64.75 13.25 39.25 0.75 27.25 16.5 8.0 M-28.5 -1.0 L-61.0 -32.25 -94.0 -24.75 -123.75 -54.5 -126.25 -87.0 -99.5 -60.25 -73.5 -66.25 -68.0 -92.25 -91.75 -117.0 -91.75 -119.0 -61.75 -116.0 -31.75 -84.75 -31.5 -83.5 -40.0 -52.75 -11.25 -21.5 -28.5 -1.0" fill="#b9b9b9" fill-rule="evenodd" stroke="none"/>
    <path d="M42.25 -23.5 L16.5 8.0 0.75 27.25 -50.0 89.0 -53.5 92.5 Q-61.5 100.75 -78.75 92.75 -92.75 80.0 -82.0 63.75 L-81.75 63.25 -28.5 -1.0 -11.25 -21.5 12.25 -49.75 Q16.75 -51.75 27.0 -48.75 L36.75 -43.75 41.5 -37.0 Q43.25 -35.5 44.0 -29.25 L43.75 -26.75 42.25 -23.5" fill="#a36c15" fill-rule="evenodd" stroke="none"/>
    <path d="M59.5 -64.5 L27.75 -92.5 Q24.25 -94.5 27.5 -96.0 L20.0 -102.25 Q19.5 -103.5 23.75 -105.75 L20.75 -113.5 37.5 -108.75 35.0 -105.25 67.0 -76.75 Q79.65 -67.1 92.25 -57.5 L93.0 -56.75 92.5 -56.5 88.5 -59.0 91.5 -50.75 Q95.0 -44.5 97.5 -46.5 L99.25 -43.25 91.75 -38.75 90.0 -39.5 73.25 -55.0 59.5 -64.5 M10.0 -105.0 Q10.5 -103.25 7.75 -98.75 L-0.75 -92.0 -2.0 -93.25 -1.5 -97.25 4.25 -104.0 Q6.25 -106.5 10.0 -105.0 M-34.75 -83.75 L-43.5 -53.0 -44.0 -55.75 -42.75 -67.25 -39.5 -80.25 Q-40.0 -82.25 -35.75 -84.5 L-36.0 -85.5 -34.75 -83.75 M23.25 22.75 L14.0 10.75 15.25 10.5 31.5 28.0 52.0 22.75 57.5 22.0 60.0 25.0 57.5 23.5 55.0 25.0 33.75 31.0 Q31.0 32.0 23.25 22.75 M-78.75 -115.25 L-59.5 -95.75 -63.75 -83.5 -66.0 -74.0 -66.5 -75.0 -61.75 -96.25 -80.75 -115.5 -78.75 -115.25 M-118.0 -73.0 L-120.5 -73.0 -121.75 -78.0 -117.75 -74.0 -118.0 -73.0" fill="#ffffff" fill-opacity="0.36862746" fill-rule="evenodd" stroke="none"/>
    <path d="M35.75 -39.0 L25.75 -27.5 26.0 -27.0 1.75 -0.25 1.25 -0.5 31.25 -44.0 32.5 -45.5 37.25 -43.25 38.0 -42.25 37.0 -40.5 35.5 -39.5 35.75 -39.0 M28.25 -48.0 L5.5 -16.5 -11.5 4.5 -14.75 9.5 -41.75 42.25 -42.5 44.0 -44.0 45.0 -43.75 45.5 -66.0 71.5 -65.75 72.0 -68.75 75.0 -72.5 72.25 -75.5 76.25 -79.25 66.5 Q-77.75 66.25 -75.5 69.5 L-74.5 69.25 -57.5 46.5 -42.5 28.0 -41.0 25.25 -39.75 24.5 -38.25 21.75 -37.0 21.0 -35.5 18.25 -32.25 15.0 -30.75 12.25 -23.5 4.0 -23.75 3.5 -5.75 -18.0 -6.0 -18.5 -4.5 -19.5 -2.75 -22.5 -1.25 -23.5 2.25 -28.75 22.75 -49.25 28.25 -48.0" fill="#ffec95" fill-opacity="0.36862746" fill-rule="evenodd" stroke="none"/>
  </g>
</svg>
