<?xml version="1.0" encoding="UTF-8" standalone="no"?>
<svg xmlns:ffdec="https://www.free-decompiler.com/flash" xmlns:xlink="http://www.w3.org/1999/xlink" ffdec:objectType="shape" height="223.2px" width="242.4px" xmlns="http://www.w3.org/2000/svg">
  <g transform="matrix(1.0, 0.0, 0.0, 1.0, 121.25, 128.8)">
    <path d="M13.0 -50.5 L-12.75 -72.5 Q-15.0 -74.0 -16.5 -78.0 L-16.75 -87.75 -15.25 -94.0 -11.5 -102.5 Q8.75 -134.0 30.0 -127.75 L74.75 -91.0 118.5 -53.5 120.5 -48.75 Q123.75 -41.25 110.75 -20.0 L99.75 -8.75 Q95.75 -4.5 82.75 -0.25 75.25 0.25 73.5 -0.75 L56.25 -14.5 56.0 -14.75 44.25 -24.25 44.0 -25.75 44.0 -27.0 43.25 -29.75 40.75 -35.75 34.25 -44.25 24.0 -49.25 Q16.5 -51.75 13.0 -50.5 M18.0 7.0 L33.25 23.25 60.0 17.25 83.25 40.5 85.25 65.75 64.5 45.25 43.75 50.5 39.25 72.0 58.25 91.0 58.5 91.75 34.75 90.25 10.5 66.0 10.25 64.0 17.0 39.5 2.25 25.5 18.0 7.0 M-27.25 -2.5 L-57.75 -31.5 -85.75 -24.75 Q-89.25 -23.5 -90.75 -24.5 L-119.0 -52.75 -121.25 -83.25 -119.5 -82.5 -95.75 -58.5 -70.75 -64.75 -65.25 -91.25 -88.25 -114.75 -88.5 -115.25 -60.0 -113.5 -30.0 -83.75 -29.25 -81.75 -32.5 -72.0 -37.75 -51.0 -10.5 -22.5 -27.25 -2.5" fill="#b9b9b9" fill-rule="evenodd" stroke="none"/>
    <path d="M44.25 -24.25 L18.0 7.0 2.25 25.5 -50.0 87.5 -53.5 90.75 Q-67.75 98.75 -80.0 89.25 -90.5 78.5 -81.25 62.25 L-81.0 61.75 -27.25 -2.5 -10.5 -22.5 13.0 -50.5 Q16.5 -51.75 24.0 -49.25 L34.25 -44.25 40.75 -35.75 43.25 -29.75 44.0 -27.0 44.0 -25.75 44.25 -24.25" fill="#a36c15" fill-rule="evenodd" stroke="none"/>
    <path d="M64.75 -83.5 L103.75 -50.5 Q109.5 -38.25 107.0 -36.0 L101.75 -37.5 91.75 -42.0 90.5 -42.0 88.5 -39.75 74.75 -51.25 58.0 -70.75 47.0 -80.75 25.75 -102.75 29.25 -106.0 43.5 -97.75 64.75 -83.5 M7.0 -106.0 L10.75 -98.75 2.0 -99.5 4.5 -93.0 -0.25 -95.5 -4.0 -95.75 -1.25 -102.5 6.5 -109.0 Q7.75 -109.0 7.0 -106.0 M-13.25 -19.0 L-47.0 -52.75 Q-41.0 -82.0 -36.5 -84.0 L-38.75 -87.0 -34.25 -83.25 -43.25 -51.75 -16.75 -23.75 Q-12.75 -20.25 -13.25 -19.0 M33.0 28.25 L59.5 22.5 64.5 26.75 Q63.25 27.0 60.5 23.5 L59.5 23.5 58.25 24.5 35.25 31.75 34.0 31.75 25.75 23.75 14.75 11.5 14.75 10.5 16.0 10.5 33.0 28.25 M-65.75 -57.25 L-71.0 -58.0 -75.5 -60.25 -68.0 -62.75 -63.5 -84.0 -63.75 -64.5 Q-65.75 -61.75 -65.75 -57.25" fill="#ffffff" fill-opacity="0.36862746" fill-rule="evenodd" stroke="none"/>
    <path d="M28.25 -47.25 L28.5 -46.5 24.25 -41.75 17.5 -32.0 2.25 -13.0 1.75 -11.5 0.5 -10.75 -1.75 -7.0 -34.25 33.0 -34.0 33.5 -35.5 34.5 -35.25 35.0 -45.5 47.25 -71.5 73.25 -73.0 72.75 -76.0 69.5 -61.0 51.0 -59.5 48.25 -58.25 47.5 -53.25 40.25 -52.0 39.5 -50.5 36.75 -47.25 33.5 -44.0 28.5 -39.75 24.0 -36.0 18.25 -31.0 13.0 -31.25 12.5 -12.0 -10.0 -12.25 -10.5 13.75 -41.25 15.5 -42.5 15.25 -43.0 20.25 -48.0 20.0 -48.5 21.0 -49.5 23.0 -49.5 28.25 -47.25" fill="#ffec95" fill-opacity="0.36862746" fill-rule="evenodd" stroke="none"/>
  </g>
</svg>
