<?xml version="1.0" encoding="UTF-8" standalone="no"?>
<svg xmlns:ffdec="https://www.free-decompiler.com/flash" xmlns:xlink="http://www.w3.org/1999/xlink" ffdec:objectType="shape" height="224.35px" width="235.45px" xmlns="http://www.w3.org/2000/svg">
  <g transform="matrix(1.0, 0.0, 0.0, 1.0, 112.5, 130.6)">
    <path d="M12.75 -50.75 L-3.5 -64.5 -15.0 -75.25 -15.5 -76.0 Q-23.75 -86.25 -7.0 -112.5 13.25 -135.0 27.5 -129.5 L35.25 -123.75 35.75 -123.75 36.5 -123.0 36.75 -123.0 37.25 -122.5 37.75 -122.25 38.25 -121.75 38.75 -121.5 39.75 -120.75 40.5 -119.75 41.0 -119.75 41.25 -119.5 93.5 -77.5 94.0 -77.5 95.0 -76.5 95.25 -76.5 96.25 -75.5 98.5 -73.75 99.0 -73.5 99.75 -72.75 100.25 -72.5 101.0 -71.75 101.75 -71.25 102.25 -70.75 106.75 -67.25 107.5 -66.5 120.0 -56.25 122.25 -51.25 Q125.75 -42.25 112.0 -20.5 85.0 14.25 60.75 -11.0 L54.0 -16.75 53.5 -17.0 52.5 -18.0 51.75 -18.5 51.0 -19.25 50.0 -20.0 49.75 -20.25 44.0 -24.75 42.75 -27.0 41.5 -27.75 41.0 -30.0 37.25 -36.0 29.75 -44.75 20.25 -49.75 Q13.5 -52.25 12.75 -50.75 M19.25 5.25 L36.5 23.5 63.0 17.5 86.75 41.25 88.5 67.5 88.0 67.75 67.0 46.25 46.5 51.0 42.0 72.75 56.25 87.0 Q61.25 91.5 61.0 93.0 L60.75 93.75 58.5 93.75 36.75 91.5 12.25 66.25 19.0 40.5 3.25 24.5 19.25 5.25 M-25.75 -3.5 L-53.25 -30.5 -80.5 -23.5 -84.5 -23.75 -110.25 -50.5 -112.5 -80.0 -109.0 -79.0 -88.0 -57.0 -66.0 -63.25 -60.75 -89.5 -82.0 -111.25 -82.5 -112.0 -55.75 -111.25 -53.25 -109.75 -25.25 -81.75 -33.25 -50.25 -8.75 -24.25 -25.75 -3.5" fill="#b9b9b9" fill-rule="evenodd" stroke="none"/>
    <path d="M44.0 -24.75 L19.25 5.25 3.25 24.5 -48.25 86.0 -51.75 89.25 Q-66.0 96.25 -76.25 88.0 -86.25 78.5 -80.25 64.75 L-80.0 64.5 -79.5 63.75 -79.5 63.5 -79.25 63.0 -78.75 62.75 -78.75 62.25 -77.0 59.25 -25.75 -3.5 -8.75 -24.25 12.75 -50.75 Q13.5 -52.25 20.25 -49.75 L29.75 -44.75 37.25 -36.0 41.0 -30.0 41.5 -27.75 42.75 -27.0 44.0 -24.75" fill="#a36c15" fill-rule="evenodd" stroke="none"/>
    <path d="M63.0 -81.5 L90.75 -59.75 Q91.25 -61.0 88.0 -63.5 L98.0 -63.0 100.25 -61.0 Q97.0 -59.0 98.0 -57.75 L103.5 -54.0 111.0 -47.25 109.25 -43.5 101.75 -37.0 Q88.75 -46.25 88.75 -48.75 L54.5 -76.5 70.0 -68.75 Q62.0 -79.5 63.0 -81.5 M-6.0 -97.75 Q-6.75 -104.75 3.25 -111.0 5.25 -111.0 9.5 -100.25 L15.0 -96.25 11.75 -96.0 7.25 -89.75 -4.5 -99.5 Q-5.5 -98.75 -3.0 -94.5 L-6.0 -97.75 M-33.0 -82.25 L-41.25 -50.75 -28.75 -36.5 -43.5 -51.25 -40.0 -65.0 -34.5 -82.0 -34.0 -82.5 -34.75 -83.5 -33.0 -82.25 M82.0 45.25 L71.5 34.5 79.75 42.0 82.0 45.25 M-63.5 -58.0 L-72.0 -58.75 -65.5 -60.75 Q-64.5 -61.0 -64.25 -65.5 L-59.75 -64.25 Q-61.5 -59.0 -63.5 -58.0" fill="#ffffff" fill-opacity="0.36862746" fill-rule="evenodd" stroke="none"/>
    <path d="M9.0 -20.0 L-4.5 -3.75 -4.75 -2.5 -5.75 -2.25 -5.75 -1.25 -6.75 -1.0 -6.5 -0.5 -12.0 5.5 -13.75 8.5 -14.5 8.5 -19.5 15.5 Q-21.25 16.0 -22.0 18.5 L-22.75 18.5 -24.25 21.25 -26.5 23.0 -27.75 25.5 -28.75 25.75 -33.0 31.5 -54.0 55.25 Q-55.25 54.75 -53.75 51.25 L-46.5 32.75 -1.5 -24.25 17.0 -46.5 18.75 -49.5 20.75 -49.5 27.25 -46.0 28.0 -45.75 27.75 -44.5 9.5 -21.5 9.0 -20.0" fill="#ffec95" fill-opacity="0.36862746" fill-rule="evenodd" stroke="none"/>
  </g>
</svg>
