<?xml version="1.0" encoding="UTF-8" standalone="no"?>
<svg xmlns:ffdec="https://www.free-decompiler.com/flash" xmlns:xlink="http://www.w3.org/1999/xlink" ffdec:objectType="shape" height="227.55px" width="222.2px" xmlns="http://www.w3.org/2000/svg">
  <g transform="matrix(1.0, 0.0, 0.0, 1.0, 100.75, 131.55)">
    <path d="M11.0 -51.25 L-15.5 -75.0 Q-29.25 -90.5 -2.0 -122.0 18.0 -141.25 38.75 -121.75 L39.25 -121.25 39.5 -121.25 39.75 -121.0 101.75 -71.75 102.0 -71.75 102.75 -71.0 103.25 -70.75 103.75 -70.25 104.5 -69.75 105.25 -69.0 117.5 -59.0 121.0 -52.0 Q123.75 -39.0 109.25 -19.0 L97.75 -8.0 Q89.25 -1.5 79.75 0.0 73.5 0.25 71.0 -1.0 L41.75 -24.75 38.5 -27.5 37.25 -29.75 23.25 -45.75 Q13.25 -52.25 11.0 -51.25 M20.0 3.25 L38.25 23.75 64.25 18.0 88.0 42.75 89.75 69.0 87.5 70.0 66.5 47.5 48.0 51.5 43.75 73.75 62.25 94.0 62.5 94.75 61.25 95.5 59.25 96.0 36.75 92.75 13.25 66.5 19.75 40.75 3.5 23.75 20.0 3.25 M-24.0 -5.25 L-47.5 -29.75 -71.25 -22.75 -75.75 -23.0 -99.0 -49.5 -99.75 -51.25 -100.75 -64.75 -100.5 -77.25 Q-95.0 -78.75 -77.75 -55.75 L-59.5 -61.75 -54.75 -88.5 -73.5 -108.25 -74.0 -109.0 -51.25 -109.25 -46.75 -108.25 -20.5 -81.5 -20.25 -80.25 -27.75 -50.0 -7.25 -27.25 -23.5 -5.75 -24.0 -5.25" fill="#b9b9b9" fill-rule="evenodd" stroke="none"/>
    <path d="M41.75 -24.75 L20.0 3.25 3.5 23.75 -44.5 84.5 -48.0 87.75 Q-55.25 94.5 -71.5 85.75 -81.0 76.5 -74.5 61.75 L-24.0 -5.25 -23.5 -5.75 -7.25 -27.25 11.0 -51.25 Q13.25 -52.25 23.25 -45.75 L37.25 -29.75 38.5 -27.5 41.75 -24.75" fill="#a36c15" fill-rule="evenodd" stroke="none"/>
    <path d="M74.75 -53.25 L71.5 -42.5 59.5 -52.5 34.75 -67.5 2.75 -92.0 1.0 -92.5 Q0.5 -89.75 -1.25 -90.25 L-11.5 -99.25 -2.5 -98.75 -9.0 -103.5 -7.25 -108.0 -2.75 -112.75 -1.75 -113.0 0.25 -111.75 -0.5 -114.25 0.25 -114.5 24.0 -95.25 43.75 -75.75 59.25 -57.75 60.0 -57.75 44.75 -77.5 74.75 -53.25 M107.25 -52.75 Q109.0 -48.25 97.75 -43.0 L96.0 -43.0 94.25 -45.0 87.5 -55.75 Q91.5 -59.25 97.5 -59.0 L107.25 -52.75 M31.0 30.5 Q25.75 25.0 25.5 23.0 L31.5 29.25 58.25 23.5 59.0 24.25 33.0 30.5 31.0 30.5 M79.75 47.75 L78.5 45.25 74.5 41.0 Q75.5 40.5 80.5 45.5 L79.75 47.75" fill="#ffffff" fill-opacity="0.36862746" fill-rule="evenodd" stroke="none"/>
    <path d="M13.25 -28.0 L-28.0 22.75 -29.25 22.25 Q-30.5 20.25 -29.75 18.0 L-23.75 9.5 -23.75 8.5 -22.5 7.5 -22.5 6.5 -19.0 2.0 -19.0 1.0 -15.5 -3.5 -12.75 -8.75 2.5 -31.0 4.0 -34.25 12.25 -45.25 13.5 -46.0 15.25 -49.25 16.5 -49.5 23.25 -45.75 25.0 -44.25 13.25 -28.0" fill="#ffec95" fill-opacity="0.36862746" fill-rule="evenodd" stroke="none"/>
  </g>
</svg>
