<?xml version="1.0" encoding="UTF-8" standalone="no"?>
<svg xmlns:ffdec="https://www.free-decompiler.com/flash" xmlns:xlink="http://www.w3.org/1999/xlink" ffdec:objectType="shape" height="230.05px" width="204.95px" xmlns="http://www.w3.org/2000/svg">
  <g transform="matrix(1.0, 0.0, 0.0, 1.0, 87.75, 132.05)">
    <path d="M-22.0 -7.75 L-40.0 -29.0 Q-61.75 -20.25 -65.0 -22.5 L-86.75 -49.5 -87.75 -66.25 -86.0 -74.75 -80.75 -74.0 -65.5 -55.0 -52.75 -60.0 -48.25 -88.0 -48.0 -88.75 -63.5 -106.5 -46.75 -107.5 Q-41.5 -108.25 -37.75 -106.5 L-22.25 -89.25 Q-24.75 -103.75 -5.5 -123.25 7.0 -135.75 26.25 -130.5 L26.75 -130.0 27.25 -129.75 27.75 -129.25 29.5 -128.0 29.75 -127.75 31.25 -126.75 31.75 -126.25 32.5 -125.75 32.75 -125.5 38.0 -121.5 38.25 -121.25 38.75 -121.0 39.25 -120.5 39.75 -120.25 72.25 -93.75 72.75 -93.25 73.75 -92.5 74.25 -92.0 75.25 -91.25 76.0 -90.5 76.75 -90.0 77.75 -89.0 78.25 -88.75 79.25 -87.75 79.75 -87.5 81.0 -86.25 81.25 -86.25 100.0 -70.5 100.25 -70.5 100.75 -70.0 113.5 -59.0 116.5 -51.0 Q120.25 -41.5 104.0 -18.0 71.25 15.75 48.5 -13.75 L38.5 -22.75 16.25 -46.25 7.75 -51.5 -14.75 -73.25 -15.0 -73.25 -20.5 -48.25 -6.25 -31.0 -22.0 -7.75 M20.75 2.25 L38.25 23.75 56.75 19.0 63.0 18.5 85.25 43.75 87.5 71.25 83.25 72.25 63.5 49.0 47.75 52.25 43.75 74.75 61.0 96.0 Q61.25 98.0 56.0 98.0 L35.75 94.25 33.0 91.75 13.5 67.25 13.25 66.0 19.5 40.25 5.25 24.0 4.25 21.75 12.0 11.0 17.75 6.0 20.75 2.25" fill="#b9b9b9" fill-rule="evenodd" stroke="none"/>
    <path d="M38.5 -22.75 L20.75 2.25 17.75 6.0 12.0 11.0 4.25 21.75 5.25 24.0 -36.0 81.0 -38.5 83.5 -42.75 86.5 Q-46.0 91.25 -61.5 86.5 -72.75 76.75 -70.0 68.75 L-69.75 68.0 -69.25 63.25 -68.0 61.25 -67.75 60.75 -22.0 -7.75 -6.25 -31.0 7.75 -51.5 16.25 -46.25 38.5 -22.75" fill="#a36c15" fill-rule="evenodd" stroke="none"/>
    <path d="M67.0 -54.5 L71.25 -45.25 68.75 -43.5 61.25 -40.5 56.75 -42.25 57.5 -43.25 39.75 -59.0 25.5 -69.0 -4.75 -96.25 -4.0 -98.25 -9.75 -103.25 -6.25 -107.5 -8.25 -115.0 2.75 -113.75 7.5 -112.25 Q8.25 -111.25 5.25 -108.75 L35.25 -83.25 70.5 -60.0 Q72.25 -58.25 67.0 -54.5 M88.5 -57.0 L100.75 -56.75 Q102.25 -54.75 96.0 -49.75 L88.25 -46.75 Q86.75 -47.75 89.25 -51.5 L88.5 -57.0 M-35.75 -52.25 Q-34.0 -79.25 -28.75 -81.0 L-29.75 -83.0 Q-24.75 -79.0 -34.5 -50.0 L-31.75 -45.75 -35.75 -49.75 -35.75 -52.25 M29.25 29.25 L49.5 24.5 Q54.25 23.25 54.75 24.75 L57.25 28.5 53.5 25.5 51.25 27.25 30.5 33.5 Q17.75 22.5 12.75 10.25 L13.5 10.0 29.25 29.25 M73.75 47.5 L73.25 47.0 74.0 47.0 73.75 47.5" fill="#ffffff" fill-opacity="0.36862746" fill-rule="evenodd" stroke="none"/>
    <path d="M18.5 -43.75 L12.5 -35.75 11.25 -33.0 10.25 -32.5 9.5 -30.5 8.5 -30.0 7.75 -28.0 6.75 -27.5 6.0 -25.5 5.25 -25.5 -5.75 -11.75 -6.25 -12.0 -5.0 -13.0 -4.75 -14.5 10.75 -40.75 14.25 -45.5 14.25 -46.5 15.75 -46.5 18.5 -43.75" fill="#ffec95" fill-opacity="0.36862746" fill-rule="evenodd" stroke="none"/>
  </g>
</svg>
