<?xml version="1.0" encoding="UTF-8" standalone="no"?>
<svg xmlns:ffdec="https://www.free-decompiler.com/flash" xmlns:xlink="http://www.w3.org/1999/xlink" ffdec:objectType="shape" height="232.7px" width="181.35px" xmlns="http://www.w3.org/2000/svg">
  <g transform="matrix(1.0, 0.0, 0.0, 1.0, 72.75, 132.55)">
    <path d="M-20.0 -10.0 L-32.75 -27.5 Q-49.0 -19.25 -52.25 -22.0 L-57.25 -26.25 -72.0 -48.5 -72.75 -63.75 -69.75 -72.75 Q-63.0 -76.5 -50.25 -55.0 L-44.25 -58.0 -40.25 -88.0 -50.25 -101.25 -51.25 -104.5 -33.75 -106.25 -28.0 -105.25 -24.5 -101.5 Q-11.25 -136.75 22.0 -132.0 L27.0 -129.75 63.5 -97.5 91.0 -72.25 105.0 -58.5 Q107.0 -57.0 108.0 -50.0 111.25 -38.5 96.5 -18.0 56.25 17.75 35.5 -16.5 L33.0 -19.0 15.5 -37.75 9.75 -45.25 3.5 -50.75 -8.5 -64.0 -11.75 -47.25 -4.75 -37.25 -4.5 -37.0 -20.0 -10.0 M21.5 0.0 L38.0 23.25 52.75 19.0 58.5 18.75 63.0 22.75 81.25 46.5 82.0 56.0 81.0 73.5 75.0 74.5 65.5 63.5 56.5 51.0 47.75 52.75 44.0 76.0 53.75 90.25 57.0 97.25 Q57.75 100.75 51.25 100.0 L32.75 95.5 27.75 92.0 11.25 67.25 16.75 40.75 5.75 25.5 3.5 22.25 10.75 10.5 Q20.25 4.75 21.5 0.0" fill="#b9b9b9" fill-rule="evenodd" stroke="none"/>
    <path d="M33.0 -19.0 L21.5 0.0 Q20.25 4.75 10.75 10.5 L3.5 22.25 5.75 25.5 -28.0 79.75 -30.5 82.5 Q-38.25 91.5 -54.0 84.5 L-58.0 80.75 -59.75 78.0 -62.0 71.5 Q-62.75 66.0 -60.75 64.5 L-58.75 58.5 -20.0 -9.75 -20.0 -10.0 -4.5 -37.0 -4.75 -37.25 3.5 -50.75 9.75 -45.25 15.5 -37.75 33.0 -19.0" fill="#a36c15" fill-rule="evenodd" stroke="none"/>
    <path d="M80.0 -58.0 L83.75 -60.0 91.75 -60.5 91.5 -57.5 86.75 -53.75 78.5 -51.0 77.25 -51.0 74.5 -53.0 80.0 -58.0 M61.5 -52.75 L63.75 -48.25 61.75 -45.0 54.75 -38.0 42.0 -47.0 39.25 -44.25 31.0 -52.75 15.75 -75.75 -7.25 -102.75 -8.25 -104.25 Q-6.25 -105.75 -8.25 -107.5 L-4.25 -109.0 9.0 -100.0 25.75 -87.5 52.5 -61.0 54.75 -60.5 61.5 -52.75 M-22.5 -80.25 L-28.25 -48.75 -14.75 -28.75 Q-11.5 -24.75 -12.0 -23.5 L-30.75 -49.25 -28.0 -69.5 Q-26.75 -79.0 -24.5 -80.5 L-27.0 -84.5 -22.5 -80.25 M-17.5 -45.5 L-21.25 -49.75 -16.5 -73.0 Q-14.25 -70.5 -19.5 -50.25 L-17.5 -45.5 M26.0 32.75 L25.25 32.75 Q25.5 31.5 20.75 26.25 L11.0 11.25 11.0 10.0 12.0 10.5 25.25 29.75 40.75 26.0 26.0 32.75" fill="#ffffff" fill-opacity="0.36862746" fill-rule="evenodd" stroke="none"/>
  </g>
</svg>
