<?xml version="1.0" encoding="UTF-8" standalone="no"?>
<svg xmlns:ffdec="https://www.free-decompiler.com/flash" xmlns:xlink="http://www.w3.org/1999/xlink" ffdec:objectType="shape" height="235.55px" width="152.3px" xmlns="http://www.w3.org/2000/svg">
  <g transform="matrix(1.0, 0.0, 0.0, 1.0, 56.0, 133.55)">
    <path d="M-18.25 -14.25 L-24.75 -25.5 Q-31.75 -20.0 -38.0 -21.75 L-44.0 -25.5 -55.0 -46.25 -56.0 -63.0 -52.0 -71.0 -45.25 -70.75 -37.5 -62.25 -34.75 -57.5 -31.5 -87.25 -39.5 -100.5 -37.75 -103.0 -27.5 -104.75 Q-15.75 -136.5 16.75 -133.25 L23.5 -131.0 28.0 -127.75 35.5 -120.25 79.5 -73.0 91.25 -59.75 Q96.0 -53.25 95.75 -48.0 98.75 -37.0 85.75 -18.25 75.25 -5.5 57.5 -0.75 37.5 4.0 25.25 -11.75 L-2.5 -49.5 -4.5 -45.25 -4.75 -44.5 -18.25 -14.25 M21.5 -4.0 L36.5 22.25 43.5 19.75 52.5 19.25 58.75 24.25 73.5 48.0 74.0 62.5 70.25 75.75 63.0 76.25 Q49.0 62.5 45.5 53.25 L42.25 77.75 50.75 92.75 51.25 101.0 43.75 102.0 28.0 96.5 22.0 93.25 8.75 67.25 13.0 40.5 5.75 28.25 5.5 28.25 3.0 23.5 3.5 20.5 8.25 10.75 17.0 5.0 21.5 -4.0" fill="#b9b9b9" fill-rule="evenodd" stroke="none"/>
    <path d="M25.25 -11.75 L21.5 -4.0 17.0 5.0 8.25 10.75 3.5 20.5 3.0 23.5 5.5 28.25 -19.5 79.0 -21.75 82.0 -30.5 86.25 -39.0 86.0 -45.75 82.75 Q-53.0 74.75 -51.5 72.25 L-52.5 66.25 -51.75 63.75 -18.25 -14.0 -18.25 -14.25 -4.75 -44.5 -4.5 -45.25 -2.5 -49.5 25.25 -11.75" fill="#a36c15" fill-rule="evenodd" stroke="none"/>
    <path d="M73.25 -55.5 L70.0 -55.0 63.25 -55.0 Q60.75 -54.5 61.0 -59.5 L69.5 -63.25 Q78.75 -64.25 79.75 -60.75 L80.25 -59.5 73.25 -55.5 M-10.0 -60.25 Q-13.0 -49.0 -11.25 -45.0 -12.5 -45.0 -14.5 -49.25 L-12.5 -63.0 -10.0 -60.25 M31.5 -61.75 Q35.5 -66.5 46.75 -54.5 L44.0 -49.5 33.5 -40.75 28.25 -47.75 Q24.75 -52.25 25.5 -53.25 L24.5 -53.25 10.0 -71.75 Q8.5 -72.5 10.75 -75.25 L20.0 -69.5 17.25 -79.0 31.5 -61.75 M-18.5 -40.5 L-23.25 -48.25 -20.0 -73.0 Q-17.0 -70.5 -22.0 -48.75 L-18.5 -40.5 M63.75 47.25 L62.0 48.5 60.25 48.0 60.0 44.5 63.5 46.75 63.75 47.25 M51.75 52.0 L51.25 49.75 46.25 41.0 52.5 48.75 Q53.25 49.5 51.75 52.0 M31.75 79.25 L30.75 78.75 31.0 77.5 32.0 77.75 31.75 79.25" fill="#ffffff" fill-opacity="0.36862746" fill-rule="evenodd" stroke="none"/>
  </g>
</svg>
