<?xml version="1.0" encoding="UTF-8" standalone="no"?>
<svg xmlns:ffdec="https://www.free-decompiler.com/flash" xmlns:xlink="http://www.w3.org/1999/xlink" ffdec:objectType="shape" height="237.9px" width="121.25px" xmlns="http://www.w3.org/2000/svg">
  <g transform="matrix(1.0, 0.0, 0.0, 1.0, 41.5, 134.4)">
    <path d="M-17.0 -21.5 Q-24.5 -19.75 -30.0 -25.25 L-38.0 -46.75 -38.25 -61.75 -33.25 -70.0 -26.0 -70.0 -23.25 -66.75 -22.75 -70.25 -30.5 -88.0 -31.5 -92.75 -31.5 -93.0 -32.0 -94.5 -32.0 -95.0 -32.25 -96.75 -31.5 -104.5 -28.75 -112.5 -28.5 -113.0 Q-10.75 -141.5 19.0 -132.0 L26.25 -127.5 27.25 -126.5 27.25 -126.25 35.75 -116.0 53.75 -90.0 54.0 -89.5 54.5 -89.0 54.5 -88.75 69.25 -67.25 69.5 -66.75 70.0 -66.25 76.5 -56.0 79.75 -47.5 79.75 -37.0 Q78.0 -27.0 73.25 -21.0 52.75 4.25 25.0 -0.75 L33.5 20.0 Q43.75 16.25 51.0 25.25 L61.75 49.0 62.25 64.0 57.0 76.5 Q56.25 78.0 47.5 78.0 L39.5 69.0 38.75 79.25 45.0 94.75 42.25 102.75 33.5 103.5 15.0 94.0 5.75 67.5 Q10.75 39.5 6.75 36.25 L3.5 27.75 3.25 27.25 1.5 22.75 5.5 10.25 14.75 5.0 Q20.5 -1.0 20.0 -2.25 15.75 -2.75 8.5 -9.5 L4.25 -16.25 -3.5 -30.75 -3.75 -31.75 -10.25 -44.5 -16.5 -23.75 -17.0 -21.5" fill="#b9b9b9" fill-rule="evenodd" stroke="none"/>
    <path d="M6.75 36.25 L-7.0 74.25 -11.5 80.5 -12.75 81.5 Q-13.0 83.5 -21.25 85.5 L-29.5 85.0 -36.25 81.0 Q-41.75 75.5 -41.5 68.5 L-41.25 61.75 -17.0 -21.5 -16.5 -23.75 -10.25 -44.5 -3.75 -31.75 -3.5 -30.75 4.25 -16.25 8.5 -9.5 Q15.75 -2.75 20.0 -2.25 20.5 -1.0 14.75 5.0 L5.5 10.25 1.5 22.75 3.25 27.25 3.5 27.75 6.75 36.25" fill="#a36c15" fill-rule="evenodd" stroke="none"/>
    <path d="M57.5 -56.5 Q43.5 -56.5 45.25 -62.75 52.5 -67.0 61.5 -63.5 70.0 -57.75 57.5 -56.5 M23.5 -52.75 L15.0 -46.0 12.5 -47.25 11.0 -57.25 14.75 -59.75 Q20.25 -62.5 21.75 -61.5 L25.25 -59.0 26.75 -56.25 23.5 -52.75 M51.25 47.75 L46.75 49.0 45.75 46.5 51.25 47.75 M36.0 52.25 L33.75 46.0 37.5 49.25 Q38.25 51.25 36.0 52.25" fill="#ffffff" fill-opacity="0.36862746" fill-rule="evenodd" stroke="none"/>
  </g>
</svg>
