<?xml version="1.0" encoding="UTF-8" standalone="no"?>
<svg xmlns:ffdec="https://www.free-decompiler.com/flash" xmlns:xlink="http://www.w3.org/1999/xlink" ffdec:objectType="shape" height="239.15px" width="95.5px" xmlns="http://www.w3.org/2000/svg">
  <g transform="matrix(1.0, 0.0, 0.0, 1.0, 35.25, 134.65)">
    <path d="M-19.25 -21.0 L-23.5 -37.5 -28.0 -59.0 -34.75 -95.75 -35.25 -103.25 -33.0 -111.75 -29.0 -119.0 -22.75 -125.75 Q-8.5 -138.5 13.25 -133.0 L21.5 -129.0 27.5 -123.75 28.25 -122.5 28.5 -122.5 28.5 -122.25 28.75 -121.75 28.75 -121.5 32.0 -117.25 34.0 -112.0 34.0 -111.75 34.5 -111.25 34.5 -111.0 34.75 -110.75 35.0 -110.25 35.25 -110.0 35.25 -109.75 53.5 -64.5 53.5 -64.25 54.25 -62.5 54.5 -62.25 54.25 -61.75 54.75 -61.25 54.75 -61.0 55.0 -60.75 Q73.75 -16.25 25.5 -0.75 L30.25 20.0 Q40.75 23.75 40.75 26.5 L46.75 50.0 47.0 65.25 39.25 78.75 33.25 79.0 37.0 96.5 Q31.75 104.0 30.25 104.25 L21.25 104.5 9.0 96.5 7.0 93.75 3.5 74.75 3.5 74.25 2.5 68.75 3.25 53.25 Q6.25 44.25 0.25 23.0 L2.25 10.5 12.5 4.75 17.5 0.0 Q-7.25 0.75 -18.5 -19.25 L-19.0 -21.0 -19.25 -21.0" fill="#b9b9b9" fill-rule="evenodd" stroke="none"/>
    <path d="M3.5 74.75 L2.25 76.75 -4.25 83.25 -12.0 85.25 -19.25 84.25 Q-28.75 79.25 -27.75 76.75 L-30.75 71.0 -31.0 68.5 -19.25 -21.0 -19.0 -21.0 -18.5 -19.25 Q-7.25 0.75 17.5 0.0 L12.5 4.75 2.25 10.5 0.25 23.0 Q6.25 44.25 3.25 53.25 L2.5 68.75 3.5 74.25 3.5 74.75" fill="#a36c15" fill-rule="evenodd" stroke="none"/>
    <path d="M46.0 -56.0 L36.75 -56.5 Q30.0 -58.75 27.0 -62.5 L29.25 -65.0 37.75 -65.0 46.5 -60.5 Q48.25 -56.25 46.0 -56.0 M-3.5 -59.5 L3.75 -61.5 7.0 -61.25 Q2.0 -52.5 -9.0 -49.75 L-10.25 -49.75 Q-5.0 -57.5 -5.5 -58.75 L-3.5 -59.5 M34.75 48.75 L37.5 46.0 Q40.25 48.5 38.75 49.5 L34.75 48.75" fill="#ffffff" fill-opacity="0.36862746" fill-rule="evenodd" stroke="none"/>
  </g>
</svg>
