<?xml version="1.0" encoding="UTF-8" standalone="no"?>
<svg xmlns:ffdec="https://www.free-decompiler.com/flash" xmlns:xlink="http://www.w3.org/1999/xlink" ffdec:objectType="shape" height="240.25px" width="83.85px" xmlns="http://www.w3.org/2000/svg">
  <g transform="matrix(1.0, 0.0, 0.0, 1.0, 44.95, 135.0)">
    <path d="M-22.5 -4.0 Q-52.0 -19.25 -42.75 -53.75 L-40.5 -76.75 -36.5 -110.5 -33.75 -117.0 -33.5 -118.25 -28.75 -123.75 -28.25 -124.5 -27.75 -125.0 Q-4.75 -145.0 23.0 -125.0 L23.25 -124.75 23.25 -124.5 28.75 -118.0 32.0 -110.5 33.0 -103.5 33.0 -103.0 35.75 -78.0 35.75 -75.5 36.0 -75.25 36.0 -72.75 36.25 -72.25 36.25 -70.0 36.5 -69.25 36.5 -67.25 36.75 -66.5 36.75 -64.5 37.0 -63.5 37.0 -61.75 37.25 -60.75 37.25 -59.0 37.5 -57.75 37.5 -56.25 37.75 -54.75 37.75 -54.25 38.0 -53.5 38.0 -51.0 38.25 -51.0 38.25 -49.75 38.0 -48.25 38.5 -48.25 38.5 -45.5 Q41.25 -19.75 24.5 -8.25 L26.0 24.25 Q28.5 24.5 28.0 27.5 L29.0 48.5 29.0 66.0 26.5 69.5 27.25 97.5 18.25 105.25 8.25 105.25 -1.0 97.5 -1.0 85.0 -1.25 80.5 -1.0 10.25 Q17.75 0.5 17.0 -4.0 -3.5 4.5 -22.25 -4.0 L-22.5 -4.0" fill="#b9b9b9" fill-rule="evenodd" stroke="none"/>
    <path d="M-1.0 85.0 L-9.5 83.5 Q-16.25 79.75 -18.25 73.5 L-19.5 69.75 -20.25 65.25 -22.5 -4.0 -22.25 -4.0 Q-3.5 4.5 17.0 -4.0 17.75 0.5 -1.0 10.25 L-1.25 80.5 -1.0 85.0" fill="#a36c15" fill-rule="evenodd" stroke="none"/>
    <path d="M-32.5 -55.5 L-25.0 -61.75 -24.25 -62.5 -16.75 -64.0 -14.0 -64.0 -13.75 -61.5 -21.0 -56.0 -30.25 -52.75 Q-31.75 -52.25 -32.5 -55.5 M26.25 -52.75 L16.75 -55.5 Q7.0 -60.75 9.25 -64.0 L19.25 -62.5 27.75 -55.25 26.25 -52.75 M20.5 47.75 L21.0 49.75 19.75 50.25 17.5 49.25 18.75 46.5 19.75 46.5 20.5 47.75 M8.5 50.5 L7.0 49.75 9.0 47.0 10.5 49.25 8.5 50.5 M17.75 80.75 L16.75 80.0 18.0 80.0 17.75 80.75 M8.25 81.0 L8.0 79.5 8.75 79.75 8.25 81.0" fill="#ffffff" fill-opacity="0.36862746" fill-rule="evenodd" stroke="none"/>
  </g>
</svg>
