<?xml version="1.0" encoding="UTF-8" standalone="no"?>
<svg xmlns:ffdec="https://www.free-decompiler.com/flash" xmlns:xlink="http://www.w3.org/1999/xlink" ffdec:objectType="shape" height="240.5px" width="105.05px" xmlns="http://www.w3.org/2000/svg">
  <g transform="matrix(1.0, 0.0, 0.0, 1.0, 66.05, 134.75)">
    <path d="M-22.0 0.0 Q-38.25 3.25 -60.5 -20.75 -72.0 -36.0 -59.75 -61.5 L-58.0 -66.0 -57.75 -66.5 -39.25 -111.25 -35.25 -118.75 -35.25 -119.0 -34.5 -120.25 -34.0 -120.75 -34.0 -121.0 -32.25 -123.75 -26.5 -128.75 -19.0 -132.5 -18.25 -132.75 -10.0 -134.75 1.0 -134.25 Q15.75 -131.0 24.25 -119.25 L28.5 -111.5 30.5 -102.5 34.75 -99.75 32.5 -87.25 33.0 -70.0 39.0 -62.0 39.0 -48.5 36.0 -25.75 30.25 -22.5 22.25 30.0 20.25 42.0 21.5 64.5 19.75 81.5 17.75 95.75 Q17.5 98.25 4.5 105.75 L-5.25 105.25 -11.75 97.75 -9.0 80.25 -12.0 79.75 -20.5 65.75 -20.25 50.75 -16.0 30.25 -14.5 25.0 -6.5 20.75 -4.5 10.25 13.25 -0.5 17.25 -7.0 14.75 -23.25 Q14.25 -17.5 5.5 -9.0 L-1.5 -4.25 -11.5 -0.75 -22.0 0.0" fill="#b9b9b9" fill-rule="evenodd" stroke="none"/>
    <path d="M22.25 30.0 L27.25 67.75 27.25 68.0 27.0 71.0 22.5 79.75 19.75 81.5 21.5 64.5 20.25 42.0 22.25 30.0 M-16.0 30.25 L-22.0 0.0 -11.5 -0.75 -1.5 -4.25 5.5 -9.0 Q14.25 -17.5 14.75 -23.25 L17.25 -7.0 13.25 -0.5 -4.5 10.25 -6.5 20.75 -14.5 25.0 -16.0 30.25" fill="#a36c15" fill-rule="evenodd" stroke="none"/>
    <path d="M-35.5 -59.25 L-41.0 -56.75 -44.75 -56.0 -51.25 -56.25 Q-52.75 -56.5 -51.75 -60.25 L-43.0 -65.0 Q-33.5 -66.0 -32.5 -63.75 L-31.75 -62.0 -35.5 -59.25 M0.25 -59.5 L5.5 -49.5 -3.25 -52.25 Q-11.0 -58.25 -11.75 -61.5 L0.25 -59.5 M22.5 -51.25 L21.75 -48.75 21.25 -49.0 22.0 -52.0 22.5 -51.25 M-10.75 50.5 L-12.25 49.75 Q-11.5 46.0 -10.25 46.5 L-7.75 49.25 -10.75 50.5 M-0.75 81.0 L-1.0 79.5 0.75 80.0 -0.75 81.0" fill="#ffffff" fill-opacity="0.36862746" fill-rule="evenodd" stroke="none"/>
  </g>
</svg>
