<?xml version="1.0" encoding="UTF-8" standalone="no"?>
<svg xmlns:ffdec="https://www.free-decompiler.com/flash" xmlns:xlink="http://www.w3.org/1999/xlink" ffdec:objectType="shape" height="240.45px" width="142.05px" xmlns="http://www.w3.org/2000/svg">
  <g transform="matrix(1.0, 0.0, 0.0, 1.0, 85.05, 134.7)">
    <path d="M-24.25 -2.75 Q-26.25 -0.75 -37.5 0.25 L-47.5 -0.75 Q-65.5 -5.0 -76.5 -18.75 -94.75 -47.0 -74.0 -67.5 L-59.75 -88.25 -38.75 -117.75 -33.75 -124.0 -33.75 -124.25 -33.0 -125.0 -30.5 -128.0 -24.5 -131.25 -24.0 -131.75 -23.5 -132.0 -14.5 -134.5 Q-5.25 -135.5 3.75 -131.75 21.25 -124.5 26.75 -105.75 L34.25 -106.5 42.5 -103.75 46.75 -101.5 41.75 -87.75 43.0 -70.5 43.0 -69.75 Q43.25 -72.0 51.0 -71.5 L57.0 -63.0 56.75 -49.0 50.25 -26.75 Q43.75 -19.75 36.25 -21.75 L23.5 14.5 13.75 42.0 16.75 69.0 12.5 81.75 12.0 83.75 8.25 95.75 -9.75 105.75 -19.0 105.0 -22.5 97.0 -16.5 80.5 -17.0 73.25 -23.0 79.75 -32.5 79.0 -38.5 65.5 -38.25 50.5 -27.75 25.0 Q-19.0 18.5 -16.25 20.0 L-11.5 20.25 -8.25 11.25 -8.0 10.25 9.5 -0.25 15.25 -7.0 15.0 -15.25 9.0 -35.75 13.75 -48.25 12.5 -59.5 5.75 -45.75 -2.75 -29.25 Q-13.0 -4.0 -24.25 -2.75" fill="#b9b9b9" fill-rule="evenodd" stroke="none"/>
    <path d="M23.5 14.5 L36.0 56.0 37.5 63.0 37.5 67.25 38.0 71.25 37.75 71.75 Q28.0 91.75 12.0 83.75 L12.5 81.75 16.75 69.0 13.75 42.0 23.5 14.5 M-16.25 20.0 L-24.25 -2.75 Q-13.0 -4.0 -2.75 -29.25 L5.75 -45.75 9.0 -35.75 15.0 -15.25 15.25 -7.0 9.5 -0.25 -8.0 10.25 -8.25 11.25 -11.5 20.25 -16.25 20.0" fill="#a36c15" fill-rule="evenodd" stroke="none"/>
    <path d="M-16.25 -58.0 Q-15.75 -46.5 -19.25 -46.0 L-21.75 -47.0 -31.0 -55.5 -30.5 -58.75 -27.25 -61.25 -24.25 -61.5 -16.25 -58.0 M-59.75 -56.5 L-64.0 -56.75 -69.0 -58.5 -70.0 -59.25 -67.75 -63.0 -61.25 -65.0 Q-51.0 -64.75 -50.0 -62.75 -48.5 -60.5 -51.25 -58.5 L-59.75 -56.5 M-21.5 49.5 L-29.75 49.0 -21.75 48.5 -21.5 49.5" fill="#ffffff" fill-opacity="0.36862746" fill-rule="evenodd" stroke="none"/>
  </g>
</svg>
