<?xml version="1.0" encoding="UTF-8" standalone="no"?>
<svg xmlns:ffdec="https://www.free-decompiler.com/flash" xmlns:xlink="http://www.w3.org/1999/xlink" ffdec:objectType="shape" height="239.25px" width="174.85px" xmlns="http://www.w3.org/2000/svg">
  <g transform="matrix(1.0, 0.0, 0.0, 1.0, 101.1, 134.0)">
    <path d="M-30.0 -12.5 Q-48.25 12.75 -84.75 -12.25 -116.5 -42.25 -86.5 -70.75 L-39.75 -120.5 -31.0 -128.75 -28.0 -131.0 -21.5 -133.25 -11.5 -134.0 Q-2.0 -133.25 5.5 -128.0 20.5 -119.75 24.25 -97.75 L24.0 -97.0 24.0 -93.5 24.75 -93.75 29.5 -102.25 35.25 -107.0 41.75 -108.0 55.5 -105.5 Q59.75 -102.25 50.0 -89.75 L52.5 -61.75 53.0 -61.25 53.5 -62.75 62.25 -72.5 69.0 -73.0 73.75 -64.5 73.25 -49.0 62.75 -26.75 56.5 -22.25 Q48.25 -20.75 43.0 -25.5 L24.5 9.25 6.75 42.0 10.75 69.75 -2.0 96.0 -7.75 99.0 -23.75 105.25 -31.75 104.25 -32.0 96.0 -23.5 80.25 -26.25 57.25 -30.75 65.25 -42.25 78.5 -51.0 78.0 -54.75 64.5 -54.0 49.25 -39.5 24.75 -32.75 19.75 Q-24.5 18.75 -17.75 22.5 L-15.0 17.25 -11.25 10.25 -4.75 5.25 5.5 -0.25 12.25 -7.0 13.5 -15.75 8.5 -26.75 20.5 -48.25 16.75 -75.75 16.0 -75.25 -2.0 -50.0 -30.0 -12.5" fill="#b9b9b9" fill-rule="evenodd" stroke="none"/>
    <path d="M24.5 9.25 L47.75 62.75 48.75 66.0 Q49.5 80.0 36.25 85.75 25.25 88.75 16.25 79.5 L10.75 69.75 6.75 42.0 24.5 9.25 M-15.0 17.25 L-30.0 -12.5 -2.0 -50.0 8.5 -26.75 13.5 -15.75 12.25 -7.0 5.5 -0.25 -4.75 5.25 -11.25 10.25 -15.0 17.25" fill="#a36c15" fill-rule="evenodd" stroke="none"/>
    <path d="M-21.25 -79.0 L-24.0 -70.25 -15.75 -75.75 -14.5 -76.0 -13.5 -73.75 -28.75 -54.75 -33.25 -47.0 -38.0 -40.75 -39.5 -41.25 -47.25 -47.75 -51.25 -54.25 -40.5 -63.25 Q-39.75 -64.25 -36.5 -61.5 L-36.75 -62.0 -35.25 -63.0 -35.5 -63.5 -21.75 -80.0 -21.25 -79.0 M40.25 -62.5 L42.25 -50.25 41.5 -48.75 36.75 -80.25 Q35.5 -81.5 38.25 -84.0 39.25 -83.75 38.0 -81.0 L40.25 -62.5 M-24.25 40.25 L-24.75 40.0 -24.0 39.0 -24.25 40.25 M-25.75 42.0 L-25.0 41.0 -25.25 42.25 -25.75 42.0 M-26.75 44.75 L-27.25 44.5 -26.25 43.0 -26.75 44.75 M31.0 -47.75 Q24.75 -80.25 28.25 -84.0 35.5 -51.75 31.0 -47.75 M-82.75 -62.75 L-73.75 -63.0 -65.5 -59.25 -65.75 -56.5 -68.25 -55.0 -76.75 -55.25 Q-82.5 -57.25 -84.5 -59.75 L-82.75 -62.75 M-41.25 50.0 L-43.75 48.75 Q-41.0 45.5 -39.25 46.0 L-39.5 48.75 -41.25 50.0 M-11.5 81.5 L-12.25 80.0 -10.75 80.0 -11.5 81.5" fill="#ffffff" fill-opacity="0.36862746" fill-rule="evenodd" stroke="none"/>
  </g>
</svg>
