<?xml version="1.0" encoding="UTF-8" standalone="no"?>
<svg xmlns:ffdec="https://www.free-decompiler.com/flash" xmlns:xlink="http://www.w3.org/1999/xlink" ffdec:objectType="shape" height="236.95px" width="201.85px" xmlns="http://www.w3.org/2000/svg">
  <g transform="matrix(1.0, 0.0, 0.0, 1.0, 113.35, 132.95)">
    <path d="M8.5 -22.75 L26.75 -49.0 21.0 -80.75 35.0 -99.25 43.0 -108.5 48.5 -109.75 66.75 -108.0 Q67.25 -105.25 56.25 -91.0 L60.5 -59.5 65.5 -57.25 69.75 -64.0 79.0 -74.5 85.25 -75.0 88.5 -67.25 88.0 -50.25 73.75 -27.5 68.75 -23.25 61.75 -22.5 48.5 -28.0 24.75 6.0 0.0 41.0 -0.75 43.0 4.5 69.75 -11.25 94.5 Q-11.25 95.5 -15.75 98.25 L-35.75 104.0 -42.75 103.0 -40.25 95.25 -29.25 79.25 -33.25 54.75 -39.75 53.0 -41.0 53.0 -50.0 65.75 -57.5 74.5 -61.0 77.5 -66.75 76.5 -68.0 64.75 -67.25 48.5 -51.5 27.25 -44.25 19.5 -38.25 19.75 -23.25 24.0 -16.75 13.75 -8.75 5.0 Q1.5 0.75 8.5 -6.75 L11.5 -15.25 8.5 -22.75 M-37.75 -19.25 L-40.5 -16.25 Q-62.75 14.5 -95.0 -11.75 -114.5 -31.25 -113.25 -46.25 L-111.0 -57.0 -96.0 -72.25 -40.75 -122.0 -32.25 -129.0 -26.75 -132.0 Q-5.75 -136.0 6.0 -123.5 26.75 -101.0 19.5 -84.0 L19.0 -83.25 16.25 -77.75 -7.75 -51.25 -13.5 -46.5 -21.5 -36.25 -37.75 -19.25" fill="#b9b9b9" fill-rule="evenodd" stroke="none"/>
    <path d="M24.75 6.0 L54.75 58.0 58.0 67.5 Q59.0 81.25 45.75 86.75 L36.25 87.5 Q24.75 82.75 24.75 80.5 L24.5 80.0 0.0 41.0 24.75 6.0 M-16.75 13.75 L-37.5 -19.25 -37.75 -19.25 -21.5 -36.25 -13.5 -46.5 -7.75 -51.25 8.5 -22.75 11.5 -15.25 8.5 -6.75 Q1.5 0.75 -8.75 5.0 L-16.75 13.75" fill="#a36c15" fill-rule="evenodd" stroke="none"/>
    <path d="M-1.75 -110.5 L4.0 -108.0 Q0.25 -106.25 6.25 -100.25 L-0.75 -88.5 -43.5 -45.0 -44.75 -44.25 -46.0 -46.25 -47.25 -46.5 -59.5 -38.0 -62.0 -40.0 -68.25 -47.75 -66.25 -52.5 Q-62.5 -56.0 -62.75 -57.0 -59.75 -61.25 -57.0 -61.5 L-31.75 -86.5 -0.75 -108.5 -0.5 -109.25 -1.75 -110.5 M29.5 -83.75 L31.0 -84.5 30.75 -85.0 32.0 -84.75 31.25 -83.25 37.25 -52.75 37.25 -51.5 33.75 -47.75 Q32.75 -48.75 35.25 -52.25 L29.5 -83.75 M27.5 -24.0 L44.5 -50.5 38.75 -82.5 44.5 -89.75 41.25 -83.75 47.5 -51.75 46.75 -49.0 28.0 -23.75 27.5 -24.0 M-31.25 25.0 L-14.25 29.75 -26.75 31.25 -31.0 27.25 -37.25 35.25 Q-37.75 33.5 -31.25 25.0 M-79.75 -53.75 Q-78.25 -52.5 -81.5 -51.0 L-90.75 -53.25 Q-97.0 -56.25 -96.5 -60.5 L-87.0 -59.75 -79.75 -53.75 M-56.5 46.75 L-56.75 48.5 -59.0 48.25 -57.75 46.25 -56.5 46.75" fill="#ffffff" fill-opacity="0.36862746" fill-rule="evenodd" stroke="none"/>
  </g>
</svg>
