<?xml version="1.0" encoding="UTF-8" standalone="no"?>
<svg xmlns:ffdec="https://www.free-decompiler.com/flash" xmlns:xlink="http://www.w3.org/1999/xlink" ffdec:objectType="shape" height="234.45px" width="223.2px" xmlns="http://www.w3.org/2000/svg">
  <g transform="matrix(1.0, 0.0, 0.0, 1.0, 121.65, 131.95)">
    <path d="M8.75 -21.25 L31.75 -49.75 26.75 -72.0 Q24.25 -81.25 25.25 -82.25 L49.75 -110.75 54.5 -112.0 76.25 -110.75 61.0 -92.75 65.75 -62.0 78.0 -57.25 93.75 -76.75 99.5 -77.5 Q103.0 -73.5 100.5 -52.0 L82.5 -28.25 78.0 -23.5 71.75 -23.25 52.75 -29.75 25.0 2.75 -1.75 34.25 -8.5 42.0 -2.0 69.75 -21.75 95.25 -25.5 98.5 -46.75 102.5 -52.0 101.25 -34.0 78.0 -38.5 54.5 -54.0 51.25 -72.5 73.5 -74.75 75.75 -79.0 74.75 -77.25 46.5 -54.75 20.25 Q-51.75 17.25 -28.5 24.75 L-18.0 11.75 -13.0 5.5 -3.0 -0.5 4.5 -6.75 8.5 -15.0 8.75 -21.25 M-43.0 -23.0 L-53.5 -13.5 Q-75.5 15.5 -108.5 -17.75 -136.75 -52.75 -104.25 -71.0 L-96.0 -77.75 -95.75 -78.0 -93.25 -80.0 -92.5 -80.75 -91.75 -81.25 -91.0 -82.0 -90.25 -82.5 -89.25 -83.5 -88.75 -83.75 -41.0 -122.75 -40.5 -123.0 -33.5 -128.5 Q-11.75 -139.0 6.5 -117.75 24.0 -98.25 13.5 -77.0 L10.5 -73.5 -12.0 -51.75 -21.75 -45.75 -36.5 -29.25 -43.0 -23.0" fill="#b9b9b9" fill-rule="evenodd" stroke="none"/>
    <path d="M25.0 2.75 L63.5 60.0 65.25 63.75 Q69.75 78.0 58.25 86.25 41.0 92.0 37.5 85.75 L36.75 85.0 33.0 82.0 32.0 81.0 -1.75 34.25 25.0 2.75 M-18.0 11.75 L-43.0 -23.0 -36.5 -29.25 -21.75 -45.75 -12.0 -51.75 8.75 -21.25 8.5 -15.0 4.5 -6.75 -3.0 -0.5 -13.0 5.5 -18.0 11.75" fill="#a36c15" fill-rule="evenodd" stroke="none"/>
    <path d="M43.25 -87.25 L42.75 -87.5 43.75 -88.0 43.25 -87.25 M50.5 -53.25 L48.75 -49.75 32.75 -31.5 33.0 -31.0 31.5 -30.0 31.75 -29.5 16.25 -11.0 16.5 -10.5 14.25 -8.5 14.5 -8.0 -6.0 18.25 -7.75 21.5 -19.25 35.25 -38.25 30.5 Q-39.5 31.0 -43.0 27.0 L-44.25 27.0 -47.0 29.25 -43.75 25.0 -18.25 30.75 6.5 0.5 6.25 0.0 8.5 -2.0 8.25 -2.5 44.5 -48.0 47.0 -52.25 40.25 -83.25 40.25 -84.5 43.0 -87.0 41.25 -84.25 42.75 -81.75 45.75 -68.75 50.5 -53.25 M-6.0 -113.75 L3.75 -115.0 2.0 -108.0 5.75 -103.5 -62.0 -43.5 -61.5 -42.0 -65.0 -40.5 -69.0 -41.5 -75.5 -45.25 -75.25 -47.0 -71.5 -54.0 -75.25 -57.75 -75.5 -59.75 -40.0 -83.0 -10.0 -108.5 Q-9.5 -109.5 -12.25 -111.5 L-6.0 -113.75 M-93.0 -57.5 Q-94.25 -50.75 -92.5 -46.5 L-99.75 -49.0 Q-106.5 -55.0 -106.0 -56.5 L-93.0 -57.5" fill="#ffffff" fill-opacity="0.36862746" fill-rule="evenodd" stroke="none"/>
    <path d="M-6.5 -27.25 L3.5 -9.5 -23.75 -42.75 -21.5 -46.0 -19.75 -46.5 -6.5 -27.25" fill="#ffec95" fill-opacity="0.36862746" fill-rule="evenodd" stroke="none"/>
  </g>
</svg>
