<?xml version="1.0" encoding="UTF-8" standalone="no"?>
<svg xmlns:ffdec="https://www.free-decompiler.com/flash" xmlns:xlink="http://www.w3.org/1999/xlink" ffdec:objectType="shape" height="232.35px" width="237.5px" xmlns="http://www.w3.org/2000/svg">
  <g transform="matrix(1.0, 0.0, 0.0, 1.0, 126.0, 131.5)">
    <path d="M7.5 -21.25 L35.25 -52.25 27.25 -84.75 54.0 -112.5 57.75 -114.25 83.5 -114.0 63.5 -92.75 69.0 -64.25 87.0 -58.25 Q104.75 -82.25 111.0 -80.5 L111.5 -71.5 110.25 -53.5 109.0 -51.0 87.0 -26.0 Q82.75 -20.25 56.0 -31.0 L24.75 1.75 13.0 13.25 -2.5 30.25 -14.25 42.25 -7.25 69.75 -31.75 97.25 -54.75 100.75 Q-56.75 101.25 -59.0 99.5 L-39.25 77.5 -44.0 54.0 -63.25 50.0 -85.0 73.75 -87.25 72.75 -85.5 45.0 -61.0 19.0 -58.5 19.0 -33.75 25.0 -19.5 9.0 -16.25 5.25 -10.5 1.75 1.0 -7.25 6.0 -15.75 7.5 -21.25 M-46.25 -25.0 L-73.75 -2.0 Q-78.75 1.0 -84.0 0.0 L-96.0 -4.0 -101.75 -7.5 -112.0 -16.75 Q-125.0 -31.0 -126.0 -48.5 -125.5 -54.75 -123.0 -58.0 L-106.0 -72.25 -105.5 -72.5 -105.0 -73.0 -104.25 -73.5 -104.0 -73.75 -33.25 -129.5 -26.75 -131.5 -16.5 -130.25 -12.0 -128.25 -3.5 -122.75 4.5 -114.5 9.5 -107.25 13.0 -99.5 Q18.0 -80.25 11.0 -75.0 L-15.5 -51.5 Q-19.75 -51.75 -29.0 -45.0 L-41.5 -30.0 -42.5 -28.0 -46.25 -25.0" fill="#b9b9b9" fill-rule="evenodd" stroke="none"/>
    <path d="M24.75 1.75 L70.0 61.0 72.25 65.0 Q76.5 78.5 64.75 88.0 51.0 94.75 41.0 85.0 L-2.5 30.25 13.0 13.25 24.75 1.75 M-19.5 9.0 L-46.25 -25.0 -42.5 -28.0 -41.5 -30.0 -29.0 -45.0 Q-19.75 -51.75 -15.5 -51.5 L7.5 -21.25 6.0 -15.75 1.0 -7.25 -10.5 1.75 -16.25 5.25 -19.5 9.0" fill="#a36c15" fill-rule="evenodd" stroke="none"/>
    <path d="M4.75 -103.75 L-1.75 -99.0 7.0 -99.5 -3.75 -90.0 Q-6.25 -94.25 -7.5 -93.5 L-16.5 -88.75 -37.0 -62.0 -38.0 -61.25 -53.0 -61.5 -73.25 -44.75 -73.75 -45.0 -71.75 -47.75 -60.0 -61.0 -60.25 -61.5 -56.0 -65.5 -56.25 -66.0 -42.0 -80.5 -42.25 -81.0 -23.0 -99.75 -4.75 -114.5 -4.25 -114.25 -5.0 -111.75 -2.25 -113.0 2.5 -108.5 4.75 -103.75 M-27.25 34.25 L-43.75 27.0 -26.75 30.5 -22.75 27.0 -23.0 26.5 -3.5 5.25 -14.0 21.0 Q-19.25 25.25 -18.75 26.5 L-27.25 34.25 M-94.0 -51.5 L-100.25 -43.0 -105.0 -43.25 -111.75 -50.25 -111.5 -53.25 -102.25 -59.0 -98.75 -59.0 -91.75 -56.25 -94.0 -51.5 M-49.5 -77.5 L-74.25 -45.0 Q-76.0 -45.75 -77.5 -55.0 L-49.5 -77.5" fill="#ffffff" fill-opacity="0.36862746" fill-rule="evenodd" stroke="none"/>
    <path d="M-23.5 -48.0 L4.0 -12.25 Q1.25 -6.25 -0.25 -6.25 L-30.0 -41.75 Q-31.25 -42.75 -28.75 -45.25 L-23.5 -48.0 M14.75 11.75 L18.25 8.0 Q28.25 15.75 22.0 19.25 20.25 19.25 14.75 11.75" fill="#ffec95" fill-opacity="0.36862746" fill-rule="evenodd" stroke="none"/>
  </g>
</svg>
