<?xml version="1.0" encoding="UTF-8" standalone="no"?>
<svg xmlns:ffdec="https://www.free-decompiler.com/flash" xmlns:xlink="http://www.w3.org/1999/xlink" ffdec:objectType="shape" height="228.7px" width="246.25px" xmlns="http://www.w3.org/2000/svg">
  <g transform="matrix(1.0, 0.0, 0.0, 1.0, 127.25, 129.85)">
    <path d="M6.5 -21.75 L36.0 -53.0 27.5 -85.5 58.5 -116.25 61.5 -117.0 87.5 -117.5 64.75 -94.5 70.25 -67.0 71.0 -66.0 93.0 -59.75 115.0 -82.5 119.0 -84.0 117.0 -53.75 90.25 -25.5 Q90.0 -24.5 86.0 -24.5 L57.5 -32.0 50.25 -25.75 24.0 0.5 17.5 6.75 11.5 11.25 6.0 18.0 -4.5 28.25 -19.0 42.25 -11.5 69.25 -37.25 96.25 -58.25 98.5 Q-63.25 99.5 -63.25 97.75 L-63.25 97.0 -43.0 76.25 -47.75 53.75 -69.5 48.75 -91.75 71.5 -90.25 44.25 -65.75 19.0 -64.5 18.5 -37.5 24.75 -21.5 7.5 -12.75 0.5 -11.0 -1.75 -3.75 -7.0 6.0 -21.25 6.5 -21.75 M-48.5 -24.75 L-54.25 -20.25 -54.5 -20.0 -55.75 -19.0 -56.25 -18.5 -57.0 -18.0 -58.0 -17.0 -58.5 -16.75 -77.5 -1.25 Q-80.75 0.5 -86.25 0.0 -101.0 -2.75 -113.75 -17.0 -125.5 -30.25 -127.25 -47.0 -127.5 -51.5 -124.75 -56.0 L-97.25 -78.5 -96.75 -78.75 -96.0 -79.5 -95.5 -79.75 -94.75 -80.5 -94.25 -80.75 -93.5 -81.5 -93.0 -81.75 -92.5 -82.25 -89.0 -85.0 -88.75 -85.25 -45.5 -119.75 -45.0 -120.0 -39.5 -124.25 -39.0 -124.5 -38.5 -125.0 -38.0 -125.25 -33.5 -128.75 -33.25 -128.75 -32.5 -129.25 Q-10.75 -133.75 7.0 -105.5 L10.25 -99.5 12.5 -92.75 13.0 -80.25 10.5 -74.75 -17.25 -50.75 -18.5 -51.0 Q-38.0 -48.5 -45.5 -30.0 L-47.0 -27.0 -48.5 -24.75" fill="#b9b9b9" fill-rule="evenodd" stroke="none"/>
    <path d="M24.0 0.5 L53.0 35.25 53.0 35.5 56.25 39.25 56.5 39.75 57.5 40.75 57.75 41.25 58.5 42.0 58.75 42.5 59.75 43.5 60.0 44.0 60.75 44.75 61.25 45.5 62.0 46.25 62.25 46.75 63.0 47.5 63.5 48.25 64.0 48.75 64.75 49.75 65.25 50.25 67.0 52.5 67.5 53.0 73.25 60.25 73.75 61.25 75.5 63.75 76.75 66.25 77.0 67.0 Q81.25 82.0 69.25 90.0 54.25 96.75 44.0 86.25 L-4.5 28.25 6.0 18.0 11.5 11.25 17.5 6.75 24.0 0.5 M-21.5 7.5 L-48.5 -24.75 -47.0 -27.0 -45.5 -30.0 Q-38.0 -48.5 -18.5 -51.0 L-17.25 -50.75 6.5 -21.75 6.0 -21.25 -3.75 -7.0 -11.0 -1.75 -12.75 0.5 -21.5 7.5" fill="#a36c15" fill-rule="evenodd" stroke="none"/>
    <path d="M73.5 -62.75 L68.5 -63.0 67.75 -65.25 69.0 -65.5 Q68.75 -63.5 73.5 -62.75 M46.25 -52.5 L39.25 -46.25 Q44.75 -52.0 45.0 -54.0 L36.0 -86.5 40.75 -91.0 37.75 -87.0 46.5 -54.25 46.25 -52.5 M1.75 -101.25 Q2.75 -98.0 0.5 -96.0 L-1.75 -94.25 Q1.0 -98.75 -0.25 -99.5 L-10.5 -90.75 -12.0 -89.75 -15.5 -94.5 -21.0 -93.5 -24.25 -89.0 -26.25 -90.75 -13.5 -100.5 -8.5 -111.0 -3.0 -108.5 1.75 -101.25 M-95.25 -59.75 L-67.0 -82.25 -66.0 -82.5 -66.25 -81.25 -68.25 -77.0 -73.25 -69.75 -59.5 -76.5 -93.5 -49.0 -93.0 -47.75 -105.75 -37.0 -112.25 -42.25 -115.5 -47.25 -103.25 -57.25 Q-101.25 -58.75 -105.0 -61.0 L-102.75 -63.0 -93.0 -63.5 -95.5 -60.5 -96.0 -60.0 -95.25 -59.75 M-62.5 24.25 L-61.0 24.0 -55.25 25.5 Q-60.5 28.0 -62.0 25.0 L-71.5 34.25 -71.5 33.25 -62.5 24.25" fill="#ffffff" fill-opacity="0.36862746" fill-rule="evenodd" stroke="none"/>
    <path d="M-23.25 -48.25 L3.0 -16.5 -3.5 -7.0 -16.0 -20.75 -33.0 -40.75 Q-35.5 -43.25 -35.0 -44.25 L-26.5 -49.25 -24.5 -49.5 -23.25 -48.25 M20.0 4.5 L68.25 65.0 44.5 43.75 12.0 11.0 20.0 4.5" fill="#ffec95" fill-opacity="0.36862746" fill-rule="evenodd" stroke="none"/>
  </g>
</svg>
