<?xml version="1.0" encoding="UTF-8" standalone="no"?>
<svg xmlns:ffdec="https://www.free-decompiler.com/flash" xmlns:xlink="http://www.w3.org/1999/xlink" ffdec:objectType="shape" height="104.85px" width="119.45px" xmlns="http://www.w3.org/2000/svg">
  <g transform="matrix(1.0, 0.0, 0.0, 1.0, 62.45, 65.85)">
    <path d="M38.85 -38.2 Q23.0 -51.8 0.5 -51.75 -22.0 -51.8 -37.9 -38.2 -53.8 -24.6 -53.8 -5.35 -53.8 13.9 -37.9 27.5 -28.2 35.8 -15.95 39.0 -32.35 35.9 -44.95 24.7 -62.45 9.15 -62.45 -12.8 -62.45 -34.8 -44.95 -50.3 -27.45 -65.85 -2.7 -65.85 22.05 -65.85 39.5 -50.3 57.0 -34.8 57.0 -12.8 57.0 -2.35 53.05 6.65 54.75 0.9 54.75 -5.35 54.75 -24.6 38.85 -38.2" fill="#ead977" fill-opacity="0.5019608" fill-rule="evenodd" stroke="none"/>
  </g>
</svg>
