<?xml version="1.0" encoding="UTF-8" standalone="no"?>
<svg xmlns:ffdec="https://www.free-decompiler.com/flash" xmlns:xlink="http://www.w3.org/1999/xlink" ffdec:objectType="shape" height="24.6px" width="53.25px" xmlns="http://www.w3.org/2000/svg">
  <g transform="matrix(1.0, 0.0, 0.0, 1.0, 0.85, -0.5)">
    <path d="M39.4 11.95 L39.4 25.1 13.0 25.1 13.0 11.95 39.4 11.95" fill="url(#gradient0)" fill-rule="evenodd" stroke="none"/>
    <path d="M47.95 3.05 L48.95 3.95 Q52.4 7.4 52.4 12.3 52.4 17.15 48.95 20.6 45.5 24.05 40.65 24.05 35.75 24.05 32.3 20.6 28.85 17.15 28.85 12.3 L28.9 10.95 Q29.3 6.9 32.3 3.95 L33.25 3.05 Q34.55 2.0 36.05 1.4 38.15 0.5 40.65 0.5 44.85 0.5 47.95 3.05" fill="url(#gradient1)" fill-rule="evenodd" stroke="none"/>
    <path d="M22.7 12.3 Q22.7 17.15 19.25 20.6 15.8 24.05 10.9 24.05 6.0 24.05 2.55 20.6 0.75 18.8 -0.1 16.6 -0.9 14.6 -0.85 12.3 L-0.8 10.95 Q-0.4 6.9 2.55 3.95 L2.65 3.9 3.55 3.05 Q4.85 2.0 6.3 1.4 8.4 0.5 10.9 0.5 13.4 0.5 15.5 1.4 L18.25 3.05 19.25 3.95 Q22.2 6.9 22.65 10.95 L22.7 12.3" fill="url(#gradient2)" fill-rule="evenodd" stroke="none"/>
  </g>
  <defs>
    <linearGradient gradientTransform="matrix(1.0E-4, 0.0085, -0.0144, 1.0E-4, 26.8, 17.4)" gradientUnits="userSpaceOnUse" id="gradient0" spreadMethod="pad" x1="-819.2" x2="819.2">
      <stop offset="0.0" stop-color="#000000"/>
      <stop offset="0.0" stop-color="#000000"/>
      <stop offset="0.0" stop-color="#000000" stop-opacity="0.6509804"/>
      <stop offset="0.0" stop-color="#000000" stop-opacity="0.0"/>
      <stop offset="0.24705882352941178" stop-color="#000000"/>
      <stop offset="0.49411764705882355" stop-color="#000000"/>
      <stop offset="0.6666666666666666" stop-color="#000000"/>
      <stop offset="1.0" stop-color="#000000" stop-opacity="0.0"/>
    </linearGradient>
    <radialGradient cx="0" cy="0" gradientTransform="matrix(0.0144, 0.0, 0.0, 0.0144, 40.45, 12.3)" gradientUnits="userSpaceOnUse" id="gradient1" r="819.2" spreadMethod="pad">
      <stop offset="0.0" stop-color="#000000"/>
      <stop offset="0.0" stop-color="#000000" stop-opacity="0.6509804"/>
      <stop offset="0.0" stop-color="#000000"/>
      <stop offset="0.5725490196078431" stop-color="#000000"/>
      <stop offset="1.0" stop-color="#000000" stop-opacity="0.0"/>
    </radialGradient>
    <radialGradient cx="0" cy="0" gradientTransform="matrix(0.0143, 0.0, 0.0, 0.0143, 11.05, 12.3)" gradientUnits="userSpaceOnUse" id="gradient2" r="819.2" spreadMethod="pad">
      <stop offset="0.0" stop-color="#000000"/>
      <stop offset="0.0" stop-color="#000000" stop-opacity="0.6509804"/>
      <stop offset="0.0" stop-color="#000000"/>
      <stop offset="0.5725490196078431" stop-color="#000000"/>
      <stop offset="1.0" stop-color="#000000" stop-opacity="0.0"/>
    </radialGradient>
  </defs>
</svg>
