<?xml version="1.0" encoding="UTF-8" standalone="no"?>
<svg xmlns:ffdec="https://www.free-decompiler.com/flash" xmlns:xlink="http://www.w3.org/1999/xlink" ffdec:objectType="shape" height="6.4px" width="15.1px" xmlns="http://www.w3.org/2000/svg">
  <g transform="matrix(1.0, 0.0, 0.0, 1.0, 7.55, 3.2)">
    <path d="M2.85 -2.85 L7.55 -2.85 7.55 -2.2 3.55 -2.2 2.85 -2.85 M-7.55 -2.2 L-7.55 -2.85 -2.8 -2.85 -3.5 -2.2 -7.55 -2.2" fill="#cccccc" fill-rule="evenodd" stroke="none"/>
    <path d="M7.55 -2.2 L7.55 2.2 3.55 2.2 2.85 2.85 2.55 3.2 -2.5 3.2 -2.8 2.85 -3.5 2.2 -7.55 2.2 -7.55 -2.2 -3.5 -2.2 -2.8 -2.85 -2.5 -3.2 2.55 -3.2 2.85 -2.85 3.55 -2.2 7.55 -2.2" fill="#888888" fill-rule="evenodd" stroke="none"/>
    <path d="M7.55 2.2 L7.55 2.85 2.85 2.85 3.55 2.2 7.55 2.2 M-2.8 2.85 L-7.55 2.85 -7.55 2.2 -3.5 2.2 -2.8 2.85" fill="#4b4b4b" fill-rule="evenodd" stroke="none"/>
    <path d="M-2.5 3.2 L-2.8 2.85" fill="none" stroke="#000000" stroke-linecap="round" stroke-linejoin="round" stroke-opacity="0.4509804" stroke-width="0.05"/>
    <path d="M2.85 -2.85 L7.55 -2.85 M-7.55 -2.85 L-2.8 -2.85 -2.5 -3.2 2.55 -3.2" fill="none" stroke="#ffffff" stroke-linecap="round" stroke-linejoin="round" stroke-opacity="0.4" stroke-width="0.05"/>
    <path d="M7.55 -2.85 L7.55 -2.2 7.55 2.2 7.55 2.85 2.85 2.85 2.55 3.2 -2.5 3.2 M-2.8 2.85 L-7.55 2.85" fill="none" stroke="#000000" stroke-linecap="round" stroke-linejoin="round" stroke-opacity="0.7529412" stroke-width="0.05"/>
    <path d="M2.55 -3.2 L2.85 -2.85" fill="none" stroke="#8b8b8b" stroke-linecap="round" stroke-linejoin="round" stroke-opacity="0.6627451" stroke-width="0.05"/>
    <path d="M-7.55 2.85 L-7.55 2.2 -7.55 -2.2 -7.55 -2.85" fill="none" stroke="#c1c1c1" stroke-linecap="round" stroke-linejoin="round" stroke-opacity="0.6627451" stroke-width="0.05"/>
  </g>
</svg>
