<?xml version="1.0" encoding="UTF-8" standalone="no"?>
<svg xmlns:ffdec="https://www.free-decompiler.com/flash" xmlns:xlink="http://www.w3.org/1999/xlink" ffdec:objectType="shape" height="5.7px" width="5.7px" xmlns="http://www.w3.org/2000/svg">
  <g transform="matrix(1.0, 0.0, 0.0, 1.0, 2.85, 2.85)">
    <path d="M2.85 -2.2 L2.2 -2.85 2.85 -2.85 2.85 -2.2 M-2.2 -2.85 L-2.85 -2.2 -2.85 -2.85 -2.2 -2.85" fill="#cccccc" fill-rule="evenodd" stroke="none"/>
    <path d="M2.2 -2.85 L2.85 -2.2 2.85 2.2 2.2 2.85 -2.2 2.85 -2.85 2.2 -2.85 -2.2 -2.2 -2.85 2.2 -2.85" fill="#888888" fill-rule="evenodd" stroke="none"/>
    <path d="M-2.85 2.2 L-2.2 2.85 -2.85 2.85 -2.85 2.2 M2.2 2.85 L2.85 2.2 2.85 2.85 2.2 2.85" fill="#4b4b4b" fill-rule="evenodd" stroke="none"/>
    <path d="M2.85 -2.2 L2.85 -2.85 M-2.2 2.85 L2.2 2.85 2.85 2.85 2.85 2.2 2.85 -2.2 M-2.85 2.85 L-2.2 2.85" fill="none" stroke="#000000" stroke-linecap="round" stroke-linejoin="round" stroke-opacity="0.7529412" stroke-width="0.05"/>
    <path d="M2.85 -2.85 L2.2 -2.85 -2.2 -2.85 -2.85 -2.85 -2.85 -2.2 -2.85 2.2 -2.85 2.85" fill="none" stroke="#ffffff" stroke-linecap="round" stroke-linejoin="round" stroke-opacity="0.33333334" stroke-width="0.05"/>
  </g>
</svg>
