<?xml version="1.0" encoding="UTF-8" standalone="no"?>
<svg xmlns:ffdec="https://www.free-decompiler.com/flash" xmlns:xlink="http://www.w3.org/1999/xlink" ffdec:objectType="shape" height="47.9px" width="2.95px" xmlns="http://www.w3.org/2000/svg">
  <g transform="matrix(1.0, 0.0, 0.0, 1.0, 1.5, 23.95)">
    <path d="M1.0 -3.65 L0.5 -3.65 Q0.4 -11.7 0.8 -23.95 L1.45 -23.95 Q0.85 -15.4 1.25 -3.9 L1.0 -3.65" fill="#161618" fill-rule="evenodd" stroke="none"/>
    <path d="M0.5 -3.65 L1.0 -3.65 1.15 0.2 1.45 23.7 0.55 23.9 Q0.85 9.8 0.5 -3.65" fill="#5e4426" fill-rule="evenodd" stroke="none"/>
    <path d="M0.8 -23.95 Q0.4 -11.7 0.5 -3.65 L-0.45 -3.65 Q-0.4 -11.7 -0.75 -23.95 L0.8 -23.95" fill="#303036" fill-rule="evenodd" stroke="none"/>
    <path d="M0.5 -3.65 Q0.85 9.8 0.55 23.9 L-0.45 23.95 -0.45 -3.65 0.5 -3.65" fill="#936726" fill-rule="evenodd" stroke="none"/>
    <path d="M-1.5 -23.95 L-0.75 -23.95 Q-0.4 -11.7 -0.45 -3.65 L-1.1 -3.65 -1.35 -3.9 Q-0.95 -15.4 -1.5 -23.95" fill="#474750" fill-rule="evenodd" stroke="none"/>
    <path d="M-1.1 -3.65 L-0.45 -3.65 -0.45 23.95 -1.5 23.7 -1.25 0.2 -1.1 -3.65" fill="#b08248" fill-rule="evenodd" stroke="none"/>
    <path d="M1.45 -23.95 L0.8 -23.95 -0.75 -23.95 -1.5 -23.95" fill="none" stroke="#000000" stroke-linecap="round" stroke-linejoin="round" stroke-opacity="0.4509804" stroke-width="0.05"/>
    <path d="M0.5 -3.65 L1.0 -3.65 1.25 -3.9 Q0.85 -15.4 1.45 -23.95 M0.55 23.9 L1.45 23.7 1.15 0.2 1.0 -3.65 M-1.1 -3.65 L-1.35 -3.9 Q-0.95 -15.4 -1.5 -23.95 M-0.45 -3.65 L-1.1 -3.65 -1.25 0.2 -1.5 23.7 -0.45 23.95 0.55 23.9 M0.5 -3.65 L-0.45 -3.65" fill="none" stroke="#000000" stroke-linecap="round" stroke-linejoin="round" stroke-opacity="0.6627451" stroke-width="0.05"/>
  </g>
</svg>
