<?xml version="1.0" encoding="UTF-8" standalone="no"?>
<svg xmlns:ffdec="https://www.free-decompiler.com/flash" xmlns:xlink="http://www.w3.org/1999/xlink" ffdec:objectType="shape" height="7.2px" width="1.5px" xmlns="http://www.w3.org/2000/svg">
  <g transform="matrix(1.0, 0.0, 0.0, 1.0, 0.7, 4.25)">
    <path d="M0.3 -0.4 L0.05 -0.95 -0.25 -0.4 -0.35 0.9 -0.25 2.25 0.05 2.8 0.3 2.25 0.4 0.9 0.3 -0.4 M0.55 -3.2 L0.8 -0.65 0.55 1.85 Q0.35 2.95 0.05 2.95 -0.3 2.95 -0.5 1.85 L-0.7 -0.65 -0.5 -3.2 Q-0.3 -4.25 0.05 -4.25 0.35 -4.25 0.55 -3.2" fill="#0092ff" fill-opacity="0.5019608" fill-rule="evenodd" stroke="none"/>
    <path d="M0.3 -0.4 L0.4 0.9 0.3 2.25 0.05 2.8 -0.25 2.25 -0.35 0.9 -0.25 -0.4 0.05 -0.95 0.3 -0.4 M0.05 2.65 L0.15 2.4 0.2 1.75 0.15 1.15 0.05 0.9 -0.1 1.15 -0.15 1.75 -0.1 2.4 0.05 2.65" fill="#0099ff" fill-rule="evenodd" stroke="none"/>
    <path d="M0.05 2.65 L-0.1 2.4 -0.15 1.75 -0.1 1.15 0.05 0.9 0.15 1.15 0.2 1.75 0.15 2.4 0.05 2.65" fill="#ffffff" fill-rule="evenodd" stroke="none"/>
  </g>
</svg>
