<?xml version="1.0" encoding="UTF-8" standalone="no"?>
<svg xmlns:ffdec="https://www.free-decompiler.com/flash" xmlns:xlink="http://www.w3.org/1999/xlink" ffdec:objectType="shape" height="11.55px" width="6.5px" xmlns="http://www.w3.org/2000/svg">
  <g transform="matrix(1.0, 0.0, 0.0, 1.0, -3.1, 123.35)">
    <path d="M5.35 -117.2 Q5.4 -115.45 6.45 -114.3 7.25 -116.05 7.1 -117.95 6.9 -119.6 6.3 -120.95 5.25 -119.25 5.35 -117.2 M9.6 -117.05 Q9.45 -113.65 6.75 -111.95 6.2 -111.6 5.65 -112.15 1.9 -115.75 3.65 -120.9 4.3 -122.95 6.35 -123.35 9.85 -121.5 9.6 -117.05" fill="#fefd9a" fill-rule="evenodd" stroke="none"/>
    <path d="M6.75 -112.0 Q4.8 -112.0 4.75 -115.25 5.4 -122.25 6.75 -122.25 8.05 -122.25 8.25 -114.2 8.25 -112.0 6.75 -112.0" fill="#ffffff" fill-rule="evenodd" stroke="none"/>
  </g>
</svg>
