<?xml version="1.0" encoding="UTF-8" standalone="no"?>
<svg xmlns:ffdec="https://www.free-decompiler.com/flash" xmlns:xlink="http://www.w3.org/1999/xlink" ffdec:objectType="shape" height="38.05px" width="15.65px" xmlns="http://www.w3.org/2000/svg">
  <g transform="matrix(1.0, 0.0, 0.0, 1.0, 1.6, 131.5)">
    <path d="M8.05 -128.25 Q6.0 -126.7 5.0 -123.9 L3.85 -120.35 3.95 -120.0 3.85 -119.85 3.65 -119.7 3.45 -119.6 Q3.5 -117.85 2.45 -116.5 1.55 -115.35 1.45 -113.7 L1.25 -113.65 0.85 -113.65 0.75 -113.65 0.65 -113.35 0.45 -113.0 0.35 -112.8 0.4 -112.0 Q0.25 -111.6 -0.1 -111.55 L-0.15 -111.2 0.0 -110.35 Q2.15 -105.75 0.85 -101.3 0.05 -102.85 0.1 -105.1 0.15 -106.95 -0.7 -108.65 -1.7 -110.5 -1.05 -112.3 L-0.2 -114.4 0.0 -114.85 0.35 -116.05 Q0.6 -117.35 0.25 -118.65 L-0.2 -119.85 -0.65 -120.7 Q-2.5 -123.6 -0.8 -126.7 -0.15 -128.0 0.95 -128.4 L1.6 -124.75 Q1.85 -122.8 2.95 -121.15 3.65 -124.35 5.9 -127.2 L9.6 -131.5 Q10.4 -130.3 9.45 -128.2 7.3 -123.6 10.15 -119.2 L10.9 -117.45 11.3 -115.55 12.8 -116.85 Q13.35 -117.45 14.05 -117.4 13.3 -113.6 13.9 -109.35 14.5 -105.35 12.6 -102.15 11.8 -103.55 12.5 -105.7 13.1 -107.4 12.8 -109.2 12.3 -112.3 12.85 -115.4 L11.55 -114.5 10.5 -114.45 Q10.1 -118.4 8.3 -121.9 7.2 -124.1 7.7 -126.6 L8.05 -128.25 M0.8 -123.35 Q0.3 -121.85 1.05 -120.4 L1.5 -120.5 1.95 -120.25 2.4 -120.65 Q1.15 -121.4 0.85 -123.4 L0.8 -123.35" fill="#fdc43e" fill-rule="evenodd" stroke="none"/>
    <path d="M8.65 -129.0 Q9.05 -128.05 8.45 -126.45 7.65 -124.5 8.7 -122.65 10.85 -118.8 11.1 -114.5 L12.15 -115.6 Q12.6 -116.1 13.2 -116.0 13.05 -113.2 13.2 -110.2 13.3 -109.25 13.55 -108.25 15.5 -100.25 9.55 -94.85 7.65 -93.15 5.2 -93.55 3.3 -93.9 3.35 -95.65 3.95 -96.05 4.3 -95.35 L4.6 -94.75 Q3.2 -98.1 0.5 -101.05 0.25 -101.25 0.3 -101.7 0.7 -106.75 -0.75 -111.45 -0.9 -112.05 -0.35 -112.55 2.7 -115.2 0.5 -118.95 -1.45 -122.2 0.25 -125.05 L1.6 -122.3 3.25 -120.1 5.45 -125.35 Q5.9 -126.5 6.7 -127.45 L8.65 -129.0" fill="#fefd9a" fill-rule="evenodd" stroke="none"/>
    <path d="M5.75 -118.0 Q7.75 -118.0 11.25 -103.8 11.25 -101.1 10.45 -98.35 9.2 -94.0 6.6 -94.0 4.45 -94.0 5.5 -96.05 5.5 -97.05 4.15 -99.25 2.75 -101.5 2.75 -103.95 2.75 -105.15 3.5 -107.35 4.25 -109.6 4.25 -111.15 4.25 -118.0 5.75 -118.0" fill="#ffffff" fill-rule="evenodd" stroke="none"/>
  </g>
</svg>
