<?xml version="1.0" encoding="UTF-8" standalone="no"?>
<svg xmlns:ffdec="https://www.free-decompiler.com/flash" xmlns:xlink="http://www.w3.org/1999/xlink" ffdec:objectType="shape" height="91.7px" width="30.9px" xmlns="http://www.w3.org/2000/svg">
  <g transform="matrix(1.0, 0.0, 0.0, 1.0, 11.0, 129.7)">
    <path d="M14.0 -120.9 Q12.7 -114.45 14.5 -108.5 L14.7 -108.15 Q17.05 -108.0 19.1 -109.55 L19.6 -109.45 17.05 -102.85 16.7 -102.05 Q17.15 -101.2 16.65 -100.75 L14.2 -100.1 Q13.45 -99.35 11.9 -99.65 2.95 -101.25 -5.9 -103.5 L-6.2 -103.3 -6.7 -103.2 Q-7.15 -109.3 -9.25 -115.2 -11.15 -120.45 -11.0 -125.65 -6.05 -119.95 0.85 -116.2 2.6 -115.25 3.5 -116.6 8.65 -124.65 16.8 -129.7 17.8 -126.95 15.25 -123.7 14.3 -122.5 14.0 -120.9 M15.6 -95.1 Q18.9 -90.55 18.2 -84.85 L16.8 -76.1 18.4 -76.15 Q18.85 -76.2 18.9 -75.75 17.5 -74.15 15.4 -72.95 14.25 -72.3 13.15 -72.95 13.9 -78.7 14.05 -84.5 14.15 -89.9 15.45 -94.95 L15.6 -95.1 M-5.4 -68.1 Q-2.05 -65.9 -0.35 -61.95 1.1 -58.6 0.5 -55.4 -5.2 -54.15 -9.0 -58.4 L-9.1 -58.8 Q-8.85 -59.6 -7.95 -59.2 -6.15 -58.4 -6.3 -59.5 -6.1 -61.2 -6.3 -63.1 -6.6 -65.45 -6.05 -67.5 L-5.4 -68.1" fill="#aa0909" fill-rule="evenodd" stroke="none"/>
    <path d="M15.9 -128.0 L15.95 -127.9 Q12.45 -121.75 12.25 -114.6 12.2 -111.95 12.6 -109.3 13.05 -106.0 12.95 -102.6 14.45 -104.85 16.45 -107.1 18.0 -108.85 19.9 -109.75 17.95 -99.1 17.95 -87.9 17.95 -84.25 16.8 -80.8 L14.25 -73.9 Q15.2 -74.65 16.4 -75.2 17.55 -75.8 18.75 -76.05 18.8 -74.7 17.9 -72.75 16.05 -68.85 16.35 -64.4 17.0 -55.05 8.5 -49.65 7.5 -49.05 6.55 -49.1 L8.15 -50.4 Q0.8 -50.1 -5.35 -54.8 -6.85 -55.95 -7.35 -57.25 L-7.8 -57.4 Q-8.9 -57.8 -9.05 -58.8 -7.2 -58.65 -5.1 -57.7 L-3.35 -57.0 Q-4.3 -65.55 -9.05 -73.15 L-9.35 -74.05 Q-10.45 -81.75 -8.7 -89.45 -7.85 -93.15 -7.95 -97.05 -8.05 -101.0 -8.5 -104.75 L-8.4 -104.85 -8.3 -104.9 -8.25 -104.95 -8.1 -105.0 -6.1 -103.6 Q-5.9 -107.5 -7.1 -111.3 -8.85 -116.55 -8.95 -122.0 -4.0 -118.15 0.45 -113.2 1.8 -111.65 3.5 -113.6 6.5 -117.1 8.8 -121.2 11.2 -125.6 15.4 -128.15 L15.65 -128.15 15.9 -128.0" fill="#fdc43e" fill-rule="evenodd" stroke="none"/>
    <path d="M12.65 -124.45 Q13.3 -122.8 12.05 -120.7 9.5 -116.25 10.8 -111.0 12.55 -103.75 11.1 -96.4 14.5 -99.05 16.2 -102.85 17.2 -105.2 18.7 -106.55 18.55 -104.05 17.5 -101.3 15.6 -96.25 16.25 -90.85 16.75 -86.6 15.95 -82.35 15.35 -78.75 14.15 -75.35 13.0 -72.05 13.5 -68.5 L15.25 -71.3 Q16.05 -72.5 17.25 -72.45 15.15 -67.45 15.05 -61.7 14.95 -56.6 13.1 -51.95 L12.95 -51.75 Q12.6 -51.4 12.2 -51.75 L12.0 -51.9 12.05 -52.05 11.05 -51.55 Q9.7 -51.0 8.7 -49.85 5.4 -46.0 6.3 -40.95 6.4 -40.45 6.0 -40.3 L5.75 -40.05 Q3.15 -47.25 -2.95 -52.3 L-9.0 -57.85 -9.2 -58.5 Q-7.6 -58.45 -5.8 -57.35 L-1.9 -55.15 Q-0.65 -62.65 -6.0 -68.6 -7.0 -69.75 -7.5 -71.25 -10.1 -79.4 -7.2 -87.65 -5.15 -93.55 -6.15 -100.0 L-5.9 -100.45 -5.5 -100.3 -5.1 -99.1 -5.05 -98.65 -4.4 -105.1 Q-4.0 -108.85 -4.95 -112.35 L-4.95 -112.4 -4.9 -112.4 -5.8 -114.3 Q-6.6 -116.15 -6.45 -118.05 -4.45 -117.5 -3.1 -115.35 -0.85 -111.8 2.35 -109.2 4.05 -113.35 7.6 -116.55 9.9 -118.65 10.95 -121.6 11.55 -123.35 12.65 -124.45" fill="#fefd9a" fill-rule="evenodd" stroke="none"/>
    <path d="M4.4 -99.75 Q4.8 -100.9 5.25 -105.25 6.0 -109.0 8.0 -109.0 9.5 -109.0 9.25 -107.35 9.25 -105.5 8.35 -101.0 L7.75 -94.75 7.75 -85.4 9.05 -88.15 Q10.25 -90.25 11.6 -90.25 13.4 -90.25 13.0 -88.15 13.0 -85.1 10.65 -79.25 8.25 -73.4 8.25 -71.3 9.5 -66.0 9.5 -59.55 9.5 -57.15 8.2 -47.95 6.75 -38.0 6.0 -38.0 5.5 -38.0 4.7 -45.75 3.8 -54.65 2.75 -57.4 L-2.1 -67.65 Q-4.25 -72.2 -4.25 -76.65 -4.25 -81.95 -1.6 -88.9 L1.0 -95.9 -0.6 -99.75 Q-2.25 -103.45 -2.25 -105.4 -2.75 -109.0 -0.75 -109.0 0.0 -109.0 1.75 -105.2 3.95 -100.4 4.4 -99.75" fill="#ffffff" fill-rule="evenodd" stroke="none"/>
  </g>
</svg>
