<?xml version="1.0" encoding="UTF-8" standalone="no"?>
<svg xmlns:ffdec="https://www.free-decompiler.com/flash" xmlns:xlink="http://www.w3.org/1999/xlink" ffdec:objectType="shape" height="89.05px" width="40.15px" xmlns="http://www.w3.org/2000/svg">
  <g transform="matrix(1.0, 0.0, 0.0, 1.0, 15.65, 133.05)">
    <path d="M11.05 -131.55 L11.05 -131.3 11.05 -130.95 Q7.3 -129.1 5.65 -125.4 4.2 -122.3 5.1 -119.35 L7.4 -119.2 8.4 -119.9 Q9.65 -121.9 11.6 -122.0 12.05 -122.05 12.05 -121.5 L11.9 -109.6 Q11.85 -108.4 12.9 -107.8 L12.95 -107.75 Q15.7 -108.15 18.15 -110.15 18.85 -110.75 19.85 -110.95 L22.5 -111.55 24.1 -111.5 24.35 -111.4 24.4 -111.35 24.5 -110.95 24.4 -110.45 Q18.65 -104.8 17.55 -96.7 L17.45 -93.75 Q17.9 -87.2 19.0 -81.25 L18.65 -81.8 17.95 -80.65 Q14.75 -76.65 13.0 -71.75 12.0 -68.85 10.4 -66.15 7.35 -60.9 2.35 -57.9 0.0 -56.45 -2.5 -56.4 L-1.95 -55.8 -3.9 -56.45 -6.4 -57.15 -7.15 -57.5 Q-8.45 -57.95 -9.5 -58.8 L-14.0 -63.3 Q-16.35 -65.9 -15.4 -69.35 -15.15 -70.45 -14.5 -71.3 -12.45 -67.25 -8.65 -64.1 -7.2 -62.95 -5.35 -63.1 -3.6 -63.3 -3.85 -65.25 -4.4 -69.95 -6.55 -74.4 -7.6 -76.55 -8.3 -78.85 -10.95 -87.5 -10.25 -96.7 -10.05 -99.5 -10.1 -102.35 -10.1 -104.65 -10.9 -106.85 -11.95 -109.65 -12.45 -112.45 -10.7 -110.85 -8.05 -110.85 -7.45 -110.9 -7.2 -111.45 L-6.7 -112.7 Q-6.75 -113.75 -7.25 -114.75 -8.5 -117.2 -10.55 -119.2 -12.15 -120.8 -11.85 -123.2 -11.2 -128.35 -13.0 -132.95 L-12.9 -133.05 Q-10.8 -128.25 -6.7 -124.8 -3.25 -121.9 -2.4 -117.55 -1.15 -119.6 -0.75 -122.3 -0.55 -123.5 0.05 -124.55 0.35 -126.2 1.65 -127.8 4.75 -131.5 9.6 -131.75 L10.8 -131.7 11.0 -131.6 11.05 -131.55" fill="#aa0909" fill-rule="evenodd" stroke="none"/>
    <path d="M3.2 -118.6 Q3.9 -116.0 6.7 -115.0 9.15 -114.1 10.95 -112.75 9.65 -109.7 10.25 -106.4 11.05 -102.1 15.3 -102.05 14.8 -106.15 18.4 -108.45 20.95 -110.05 23.7 -110.8 L23.8 -110.7 Q18.05 -106.15 17.5 -99.1 17.4 -97.75 16.9 -96.45 15.65 -93.55 16.7 -90.45 17.45 -88.3 17.3 -86.05 17.1 -82.15 15.8 -78.55 L17.4 -81.05 Q18.25 -82.35 19.4 -83.0 19.3 -78.0 18.5 -72.95 L18.2 -70.7 18.5 -67.7 Q18.7 -66.6 17.95 -65.7 L17.2 -64.9 Q17.6 -60.3 14.6 -55.95 11.85 -52.05 4.65 -48.3 5.45 -46.55 5.85 -44.65 5.5 -44.4 5.3 -44.8 L5.05 -45.25 4.95 -45.45 4.0 -47.95 Q2.95 -50.1 1.15 -51.95 L-3.7 -56.55 Q-4.0 -56.6 -4.3 -56.9 L-4.95 -57.1 Q-9.2 -59.3 -12.6 -62.85 -15.0 -65.35 -13.5 -68.15 -11.75 -64.25 -8.15 -61.55 L-4.9 -58.95 Q-2.25 -60.1 -2.45 -63.9 -2.7 -69.35 -5.45 -74.15 -7.3 -77.3 -8.1 -80.85 -9.75 -87.95 -9.05 -95.5 -8.45 -102.05 -10.2 -108.05 L-10.8 -109.5 -10.9 -109.65 -11.05 -110.05 Q-9.8 -110.25 -8.45 -108.85 -7.6 -108.0 -6.4 -108.05 -4.75 -112.55 -7.05 -116.6 -7.35 -117.15 -8.0 -117.4 -10.85 -118.4 -10.35 -121.85 -9.9 -124.8 -10.95 -127.4 -11.4 -128.55 -10.75 -129.2 -8.3 -125.6 -5.45 -122.15 -4.2 -120.6 -3.45 -118.75 -2.75 -116.9 -4.5 -115.8 -4.3 -114.7 -3.25 -114.15 -2.35 -113.7 -1.4 -114.15 -0.6 -117.25 -0.25 -120.55 0.1 -123.3 1.85 -125.55 2.65 -126.55 3.55 -126.9 2.1 -122.9 3.2 -118.6" fill="#fdc43e" fill-rule="evenodd" stroke="none"/>
    <path d="M2.05 -119.55 Q1.9 -118.35 2.45 -117.2 3.95 -113.85 7.05 -113.0 L8.3 -112.55 Q9.55 -112.05 9.4 -110.5 8.85 -104.7 12.95 -100.4 L16.35 -101.0 Q16.9 -98.7 15.4 -96.5 15.1 -96.1 15.2 -95.5 L16.4 -87.0 Q16.7 -85.35 16.05 -83.8 13.65 -78.15 12.8 -72.05 15.7 -68.75 14.55 -64.25 14.2 -62.75 14.15 -61.25 L13.95 -59.7 13.4 -57.55 Q11.5 -52.2 8.4 -47.45 7.25 -45.65 5.8 -46.15 6.05 -45.25 5.9 -44.4 2.3 -49.85 -1.25 -55.8 -1.55 -56.35 -1.45 -57.1 -0.8 -61.35 -1.4 -65.5 -1.75 -67.6 -2.8 -69.6 -8.2 -79.6 -7.8 -91.2 -7.6 -97.2 -7.9 -103.2 -8.0 -105.35 -8.65 -107.25 L-8.55 -107.35 -8.4 -107.45 -8.25 -107.45 -8.1 -107.2 Q-7.4 -107.25 -6.85 -106.45 -6.6 -106.05 -6.2 -106.05 -4.2 -108.25 -4.3 -111.4 -4.4 -114.0 -1.6 -112.75 L-1.0 -112.65 Q0.65 -115.05 0.4 -118.1 0.15 -120.75 1.75 -122.55 2.25 -121.4 2.05 -119.55 M17.3 -105.6 L19.6 -108.25 Q20.4 -107.2 19.2 -105.3 L18.25 -103.7 Q17.5 -102.2 16.15 -102.2 16.15 -103.95 17.3 -105.6 M13.65 -71.45 Q13.9 -71.85 14.4 -71.65 L14.95 -71.7 Q15.15 -73.2 15.65 -74.65 16.35 -76.5 17.85 -77.45 18.25 -76.35 17.3 -74.55 15.85 -71.7 16.55 -68.5 16.8 -67.45 15.85 -67.05 15.1 -67.55 14.85 -68.55 L14.4 -70.45 Q13.95 -70.55 13.75 -70.85 13.55 -71.15 13.65 -71.45 M-9.2 -123.8 L-9.2 -124.35 -9.1 -124.45 -8.9 -124.6 -8.75 -124.65 Q-7.9 -122.65 -6.2 -121.0 -4.7 -119.6 -4.75 -117.65 -5.3 -117.2 -5.85 -117.65 L-6.25 -118.2 Q-7.15 -118.4 -7.65 -117.65 -7.85 -117.35 -8.25 -117.5 L-8.75 -120.85 -9.2 -123.8 M-5.05 -57.55 L-11.7 -62.2 Q-13.05 -63.1 -13.0 -64.7 L-12.9 -65.65 -12.8 -65.75 -12.65 -65.85 -12.5 -65.9 Q-12.05 -64.15 -10.75 -62.55 -9.9 -61.5 -8.55 -61.05 -5.65 -60.0 -5.05 -57.55" fill="#fefd9a" fill-rule="evenodd" stroke="none"/>
    <path d="M1.8 -113.4 L2.0 -113.45 Q4.2 -111.65 4.65 -108.4 L5.4 -102.0 Q6.05 -102.75 6.75 -102.75 7.8 -102.75 8.0 -101.5 8.0 -100.95 5.4 -94.5 L5.35 -94.3 7.4 -96.8 9.7 -99.35 10.15 -99.6 Q12.15 -98.1 9.95 -95.75 1.05 -86.5 6.15 -74.55 7.25 -72.0 7.95 -69.3 8.5 -67.15 7.6 -65.75 8.5 -61.6 8.5 -57.8 L8.15 -50.85 Q7.5 -44.0 6.25 -44.0 4.25 -44.0 4.5 -45.6 L5.25 -50.2 Q6.0 -54.5 6.0 -57.9 6.0 -63.55 3.15 -71.7 0.25 -79.85 0.25 -84.5 1.65 -93.1 3.2 -97.65 3.1 -105.5 1.35 -112.95 1.3 -113.3 1.8 -113.4" fill="#ffffff" fill-rule="evenodd" stroke="none"/>
  </g>
</svg>
