<?xml version="1.0" encoding="UTF-8" standalone="no"?>
<svg xmlns:ffdec="https://www.free-decompiler.com/flash" xmlns:xlink="http://www.w3.org/1999/xlink" ffdec:objectType="shape" height="97.45px" width="50.1px" xmlns="http://www.w3.org/2000/svg">
  <g transform="matrix(1.0, 0.0, 0.0, 1.0, 17.15, 141.95)">
    <path d="M8.5 -141.95 L9.8 -137.85 Q11.0 -134.6 12.5 -131.35 13.4 -129.35 12.85 -127.25 12.4 -125.35 12.55 -123.55 12.6 -123.05 13.0 -122.75 13.7 -122.15 13.35 -121.15 12.05 -117.6 14.15 -114.85 15.45 -113.2 17.25 -112.15 18.25 -111.55 19.15 -112.3 20.45 -113.35 22.0 -114.1 24.45 -115.25 25.1 -113.35 25.4 -112.45 24.85 -111.65 23.4 -109.3 22.7 -106.6 L25.2 -108.85 28.55 -112.2 28.6 -112.45 28.7 -112.5 28.75 -112.35 29.1 -112.75 28.8 -111.6 Q29.0 -108.1 27.15 -104.6 26.1 -102.65 24.85 -101.3 L29.8 -102.45 31.7 -102.45 Q32.6 -102.45 32.95 -101.75 L32.1 -100.6 29.3 -97.9 28.2 -96.8 28.3 -96.75 28.5 -96.6 28.8 -96.25 28.85 -96.0 28.8 -95.95 Q27.9 -95.1 26.55 -94.95 L25.6 -94.7 25.7 -94.65 25.8 -94.6 25.9 -94.5 26.25 -94.1 26.25 -93.95 Q21.5 -93.1 18.6 -89.6 17.9 -88.65 17.9 -87.45 L17.7 -82.15 Q17.6 -80.95 18.95 -81.5 21.7 -82.65 24.35 -82.65 22.5 -80.3 21.0 -77.6 L18.35 -72.6 Q17.4 -70.75 15.6 -70.6 L14.85 -69.0 Q10.2 -63.05 6.25 -56.7 4.45 -53.8 1.7 -51.7 0.7 -51.0 -0.3 -50.8 L0.15 -50.4 Q-2.8 -51.45 -3.65 -54.85 L-4.65 -56.4 Q-7.0 -60.8 -11.05 -63.8 -16.15 -67.55 -15.4 -74.05 -15.3 -74.9 -14.8 -75.35 -11.65 -70.15 -7.35 -65.5 -6.45 -64.55 -6.15 -63.3 -5.55 -60.55 -4.3 -58.05 -4.9 -61.6 -4.85 -65.3 -4.75 -68.95 -5.65 -72.25 -4.1 -71.35 -3.05 -69.6 L-2.15 -68.15 Q-3.2 -74.55 -6.55 -79.95 -7.9 -82.1 -10.1 -83.55 -14.6 -86.5 -13.5 -91.8 L-11.95 -97.7 -11.95 -98.15 Q-12.2 -99.7 -11.05 -101.3 -10.6 -101.9 -10.65 -102.8 -10.75 -105.95 -12.65 -108.45 L-12.75 -109.05 -11.5 -112.7 Q-11.3 -113.25 -11.45 -113.85 -14.55 -114.4 -17.0 -111.8 L-17.15 -111.8 Q-16.65 -114.15 -14.4 -115.75 L-12.05 -117.1 Q-12.0 -118.5 -12.75 -119.8 -13.25 -120.7 -13.4 -121.7 -12.1 -120.75 -10.9 -119.0 L-9.5 -117.55 Q-8.9 -117.9 -8.45 -118.5 L-8.25 -119.0 Q-10.2 -120.45 -11.8 -122.3 L-12.1 -123.05 -12.15 -123.8 Q-12.85 -125.0 -12.55 -126.75 -11.7 -132.3 -6.25 -134.2 -5.75 -134.35 -5.3 -134.65 L-5.3 -131.45 Q-5.35 -128.3 -4.45 -125.3 L-3.45 -122.6 -3.15 -122.5 -2.95 -122.5 Q-1.0 -126.15 2.2 -128.95 3.85 -130.45 5.95 -130.65 5.35 -133.8 6.7 -136.75 7.95 -139.4 8.5 -141.95 M6.5 -124.35 L6.1 -128.55 Q4.2 -126.65 3.8 -123.95 3.45 -121.75 4.15 -119.9 L4.3 -119.75 Q6.55 -121.3 6.5 -124.35 M29.5 -119.75 L29.5 -119.65 29.55 -119.35 29.5 -118.95 Q29.05 -118.55 28.3 -118.5 27.8 -118.45 27.7 -118.95 27.65 -119.4 28.15 -119.55 L28.9 -119.95 29.2 -119.9 29.5 -119.75" fill="#aa0909" fill-rule="evenodd" stroke="none"/>
    <path d="M9.6 -135.75 Q12.5 -131.7 11.1 -127.15 L10.55 -124.3 10.45 -121.7 11.55 -122.1 Q11.95 -119.4 10.95 -116.55 10.45 -115.2 10.7 -113.8 11.0 -112.25 12.7 -111.75 15.25 -111.05 15.3 -108.2 15.3 -107.5 16.05 -107.45 L17.7 -107.05 18.7 -109.2 Q19.8 -111.9 22.6 -112.85 24.65 -112.15 22.7 -110.45 20.6 -108.6 19.5 -106.15 21.25 -105.75 21.75 -103.8 22.15 -102.25 21.75 -100.65 22.6 -100.35 23.3 -99.9 L25.5 -100.9 27.4 -101.35 29.05 -101.45 Q30.05 -101.3 30.75 -100.75 29.0 -98.3 25.75 -97.65 L25.65 -97.6 26.35 -95.95 Q26.5 -95.55 25.95 -95.6 23.5 -95.9 21.65 -94.6 21.9 -94.4 22.4 -94.25 23.05 -94.05 23.45 -93.5 20.0 -92.85 17.6 -90.4 16.75 -89.6 15.5 -89.3 17.4 -86.25 16.35 -82.8 15.55 -80.25 15.3 -77.55 L14.95 -75.45 Q16.35 -77.6 18.25 -79.45 19.95 -81.2 22.15 -80.85 19.85 -78.25 19.05 -74.8 18.6 -72.8 17.5 -71.15 16.75 -70.0 15.6 -70.6 L15.4 -70.05 15.3 -69.7 Q16.65 -61.4 12.35 -53.95 10.45 -50.7 7.35 -48.9 L6.4 -48.65 2.0 -48.95 2.05 -48.9 Q0.3 -48.8 -1.1 -50.7 L-1.75 -51.95 Q-1.55 -52.3 -1.2 -52.05 L-0.7 -51.85 Q-2.65 -54.9 -2.5 -58.55 L-2.2 -64.2 -0.85 -61.75 0.4 -59.8 Q-0.2 -69.05 -2.3 -77.9 L-2.8 -80.4 Q-3.85 -82.4 -5.65 -84.0 -6.85 -85.1 -8.4 -85.75 -11.9 -87.1 -11.05 -90.85 -9.75 -96.5 -9.05 -102.15 L-9.15 -103.3 Q-10.9 -109.25 -11.1 -115.4 -11.1 -116.0 -10.7 -116.25 -6.55 -114.4 -4.35 -110.7 L-3.7 -109.4 -3.7 -111.05 -3.55 -111.8 -3.6 -113.15 Q-3.55 -114.6 -4.1 -115.9 -5.3 -118.8 -7.75 -120.55 L-7.8 -120.55 Q-8.2 -120.55 -8.5 -120.9 L-8.65 -121.15 -10.1 -121.9 Q-10.45 -122.05 -10.6 -122.5 -12.05 -127.65 -7.1 -130.35 -6.9 -130.0 -7.2 -129.55 L-7.1 -129.5 -7.05 -129.45 Q-7.9 -125.95 -6.05 -122.5 -5.75 -121.95 -5.8 -121.35 -5.85 -120.05 -4.8 -119.0 -3.2 -117.45 -1.35 -116.75 -0.95 -118.4 -0.95 -120.2 -0.95 -122.9 0.8 -124.75 1.05 -121.65 2.25 -118.55 L2.95 -116.0 3.4 -113.35 7.85 -119.55 8.75 -120.55 Q9.6 -124.05 8.0 -127.65 7.6 -128.5 7.6 -129.5 7.5 -132.8 9.7 -135.05 L9.6 -135.75 M-11.95 -115.9 L-11.95 -115.8 -14.15 -114.2 Q-15.2 -113.2 -16.2 -113.15 -16.1 -114.1 -15.2 -114.7 L-12.85 -116.05 -12.65 -116.15 -12.25 -116.1 -11.95 -115.9 M-10.7 -107.7 L-10.75 -107.55 -10.9 -107.35 -10.95 -107.15 -10.8 -106.85 -10.65 -106.5 -10.65 -106.3 Q-11.45 -106.1 -11.85 -107.1 -12.1 -107.7 -11.95 -108.4 L-11.65 -108.6 -11.55 -108.7 -11.4 -108.7 -10.9 -108.25 -10.7 -107.7 M-10.65 -97.9 Q-11.4 -98.0 -11.25 -98.9 -11.1 -99.6 -10.55 -99.75 -9.95 -99.5 -10.2 -98.85 L-10.65 -97.9 M-3.1 -104.0 L-3.35 -100.4 Q-3.75 -96.35 -5.95 -92.75 -8.35 -88.95 -5.3 -86.15 L-3.85 -86.05 -2.95 -86.6 -2.9 -86.9 Q-1.8 -91.3 -2.65 -95.85 -3.45 -100.25 -3.0 -104.55 L-3.1 -103.95 -3.1 -104.0 M-14.0 -72.35 Q-12.55 -69.5 -10.3 -67.2 L-11.05 -67.85 -8.9 -65.9 Q-7.25 -64.5 -6.8 -62.35 L-6.5 -61.3 Q-6.0 -60.45 -5.8 -59.4 -6.55 -60.0 -7.3 -61.1 -8.9 -63.45 -11.55 -64.55 -12.35 -64.85 -12.75 -65.6 -14.35 -68.95 -14.2 -72.25 L-14.1 -71.9 -14.0 -72.35" fill="#fdc43e" fill-rule="evenodd" stroke="none"/>
    <path d="M10.05 -130.75 L10.2 -130.05 Q11.2 -127.5 9.25 -125.5 8.15 -127.75 8.15 -130.35 L8.3 -131.4 Q8.8 -133.2 9.75 -134.3 10.25 -132.8 10.05 -130.75 M10.6 -120.7 Q11.25 -119.65 10.3 -118.05 9.6 -116.9 9.45 -115.55 8.95 -111.45 12.9 -111.05 13.85 -110.95 13.8 -109.95 13.8 -105.1 18.65 -106.5 L20.3 -107.0 20.6 -106.95 Q22.1 -104.0 20.8 -101.1 20.15 -99.65 21.6 -99.25 L23.1 -98.75 Q24.2 -99.5 25.65 -100.05 L27.05 -100.45 27.85 -100.7 28.8 -100.65 29.1 -100.5 29.15 -100.4 29.05 -99.8 28.9 -99.25 Q26.35 -99.35 24.0 -98.3 25.4 -97.55 26.4 -96.4 L26.4 -96.2 20.6 -95.15 19.95 -94.65 19.45 -94.5 18.2 -93.3 18.75 -93.5 19.6 -93.85 19.75 -93.9 20.4 -93.85 20.75 -93.7 20.8 -93.6 20.85 -93.45 20.8 -93.05 20.75 -92.95 Q19.2 -92.85 17.9 -91.95 17.15 -91.4 16.85 -90.7 L16.4 -90.45 Q16.05 -90.5 16.0 -90.8 15.85 -91.35 16.3 -91.7 L16.45 -91.8 16.7 -92.0 Q15.8 -91.35 14.75 -91.1 L14.65 -91.2 14.55 -91.3 Q14.2 -90.35 14.5 -89.35 16.4 -83.25 14.35 -77.1 13.85 -75.55 14.25 -73.95 15.2 -69.6 15.1 -65.1 L15.1 -64.85 Q15.1 -63.1 14.4 -61.2 L12.15 -54.4 Q10.4 -48.55 5.45 -45.65 L5.8 -45.5 5.85 -45.3 5.85 -45.0 5.65 -44.75 Q3.1 -45.35 1.45 -47.65 0.85 -48.55 0.7 -49.55 L0.9 -49.7 1.5 -49.85 Q-0.7 -52.0 -1.05 -55.0 -1.4 -57.6 -1.25 -59.8 L0.95 -57.65 1.2 -59.1 Q1.8 -61.4 1.5 -63.8 0.7 -71.35 -2.15 -78.35 -2.5 -79.3 -2.35 -80.3 L-1.15 -90.0 Q-1.0 -91.4 -1.1 -92.9 -1.7 -100.75 -2.95 -108.5 -3.1 -109.55 -2.6 -110.55 L-1.5 -112.8 Q-1.55 -114.4 -0.8 -116.25 -0.2 -117.7 -0.15 -119.3 -0.15 -120.1 0.5 -120.4 L1.6 -115.5 Q2.0 -113.25 3.1 -111.25 L3.35 -111.15 5.65 -114.5 Q6.15 -115.7 6.95 -116.75 L6.95 -116.8 7.1 -116.75 7.3 -117.1 8.45 -118.75 10.6 -120.7 M21.05 -108.6 Q20.2 -107.25 18.95 -107.7 19.4 -109.3 20.55 -110.7 21.6 -111.9 22.9 -112.7 23.55 -111.6 22.15 -110.05 L21.05 -108.6 M19.1 -78.95 L19.35 -78.95 19.65 -78.8 19.75 -78.7 17.6 -75.35 Q16.4 -73.6 16.9 -71.7 16.05 -71.1 15.9 -72.1 L15.8 -73.3 15.8 -73.4 15.6 -73.4 15.1 -73.8 16.7 -76.55 Q17.55 -78.15 19.1 -78.95 M-8.2 -128.7 L-8.0 -128.55 -8.3 -126.85 -8.3 -126.5 -8.3 -126.35 -7.55 -124.3 Q-6.1 -122.05 -8.15 -120.8 -9.3 -121.95 -9.9 -123.55 -10.35 -124.7 -10.45 -125.9 -9.85 -126.35 -9.5 -127.1 -9.15 -127.75 -9.1 -128.5 L-8.9 -128.65 -8.5 -128.8 -8.2 -128.7 M-9.2 -115.3 Q-8.9 -115.2 -8.7 -114.9 L-8.65 -114.8 -8.65 -114.6 -8.7 -114.3 -8.75 -114.2 Q-2.75 -108.05 -4.0 -99.85 -4.6 -96.25 -6.5 -93.15 -8.3 -90.2 -7.5 -86.95 -9.65 -87.45 -9.35 -90.2 -9.0 -94.2 -7.7 -98.1 -7.05 -100.0 -7.5 -101.9 L-9.2 -110.15 Q-9.6 -112.35 -10.15 -114.4 L-10.3 -115.05 -10.25 -115.25 -10.0 -115.4 -9.85 -115.45 -9.2 -115.3 M-13.75 -71.1 L-13.6 -71.15 Q-12.1 -69.5 -11.85 -67.25 -11.65 -65.45 -10.15 -64.4 -11.6 -63.9 -12.45 -65.8 L-13.5 -68.65 -14.05 -70.85 -13.95 -70.95 -13.75 -71.1" fill="#fefd9a" fill-rule="evenodd" stroke="none"/>
    <path d="M9.55 -108.45 Q9.8 -108.85 10.25 -108.85 12.3 -107.4 11.8 -104.4 L11.65 -102.9 13.0 -103.25 Q14.05 -103.25 14.25 -101.9 L13.95 -101.4 16.9 -103.7 Q19.1 -102.15 16.3 -100.15 13.2 -97.9 10.75 -95.05 L9.95 -94.35 Q8.0 -90.35 8.0 -86.7 8.0 -81.85 10.15 -77.35 12.25 -72.9 12.25 -67.1 11.6 -61.25 10.45 -55.65 8.1 -44.5 5.5 -44.5 4.15 -44.5 4.25 -45.9 L5.0 -48.4 Q4.1 -48.85 3.3 -49.8 2.4 -50.95 2.25 -52.3 2.1 -53.25 3.1 -53.35 4.8 -52.2 5.9 -50.7 L7.0 -53.55 Q9.75 -61.35 9.75 -67.1 9.75 -72.05 7.65 -76.5 5.5 -81.0 5.5 -86.65 7.05 -96.35 9.35 -100.4 L9.0 -106.5 Q8.95 -107.6 9.55 -108.45" fill="#ffffff" fill-rule="evenodd" stroke="none"/>
  </g>
</svg>
