<?xml version="1.0" encoding="UTF-8" standalone="no"?>
<svg xmlns:ffdec="https://www.free-decompiler.com/flash" xmlns:xlink="http://www.w3.org/1999/xlink" ffdec:objectType="shape" height="102.2px" width="54.8px" xmlns="http://www.w3.org/2000/svg">
  <g transform="matrix(1.0, 0.0, 0.0, 1.0, 19.65, 146.15)">
    <path d="M9.15 -146.15 Q11.15 -140.95 12.75 -135.5 L13.35 -132.8 Q13.6 -131.55 13.05 -130.4 11.7 -127.9 12.2 -125.3 12.3 -124.85 12.75 -125.05 16.2 -126.8 19.8 -128.25 L19.95 -128.25 17.2 -125.1 Q15.75 -123.45 14.95 -121.4 L13.8 -118.3 Q14.15 -117.9 14.75 -117.85 L14.95 -117.7 15.45 -113.85 15.65 -113.65 Q17.2 -112.45 19.1 -113.25 L20.15 -113.6 Q21.85 -113.95 23.45 -114.6 25.95 -115.6 28.0 -114.2 28.9 -113.6 29.0 -112.45 29.2 -110.25 27.2 -109.55 L26.35 -107.0 25.05 -104.75 Q27.15 -105.15 29.05 -104.35 L29.6 -104.35 29.75 -104.25 29.8 -104.3 Q33.0 -104.95 34.75 -102.55 L35.05 -101.9 Q35.6 -99.6 33.05 -98.85 L31.15 -98.25 Q29.0 -97.65 26.8 -97.5 L25.95 -97.05 26.15 -96.75 Q26.85 -96.1 27.85 -95.6 28.85 -95.1 29.1 -94.05 27.1 -92.45 24.45 -92.15 L23.95 -92.0 Q22.55 -91.5 21.45 -90.8 L21.15 -90.3 20.75 -87.3 Q20.6 -86.45 19.95 -85.8 L21.95 -85.6 Q24.15 -86.0 26.05 -86.9 L26.1 -86.85 Q25.05 -85.15 25.1 -83.1 25.2 -80.95 24.4 -79.0 23.85 -77.7 22.9 -76.7 L21.75 -75.3 Q19.1 -73.2 19.7 -70.1 20.0 -68.4 19.15 -66.95 16.8 -63.25 14.85 -59.35 L13.8 -56.9 Q11.75 -51.5 7.5 -47.65 L5.05 -45.55 5.1 -45.4 4.95 -45.5 4.8 -45.4 4.7 -45.55 4.7 -45.65 4.7 -45.7 4.75 -45.7 4.3 -46.5 Q3.15 -49.65 1.15 -52.25 L-0.9 -54.85 0.45 -55.4 0.85 -55.55 Q-1.25 -59.4 -2.3 -63.7 L-2.85 -67.0 Q-3.45 -71.5 -6.4 -74.95 L-6.85 -75.15 -6.85 -75.2 -6.85 -75.3 -6.75 -75.35 -6.7 -75.35 Q-4.3 -74.45 -2.0 -73.15 L-2.0 -73.7 Q-1.9 -75.85 -2.8 -77.8 -3.75 -79.9 -5.15 -81.75 L-8.15 -85.35 Q-10.3 -87.7 -11.2 -90.7 -12.25 -94.3 -10.55 -97.75 L-10.4 -98.0 Q-10.8 -97.8 -11.3 -98.0 -11.95 -98.2 -11.8 -98.95 -11.6 -99.85 -10.6 -99.85 L-9.85 -99.4 Q-9.0 -102.3 -9.6 -105.3 L-10.1 -106.5 -10.6 -107.3 Q-10.9 -106.8 -11.55 -107.05 -12.15 -107.25 -12.1 -107.95 -12.05 -108.7 -11.35 -109.0 L-11.2 -108.95 Q-11.55 -110.35 -11.2 -111.75 L-11.65 -113.15 -11.95 -114.1 -12.35 -115.3 -14.0 -113.85 Q-14.45 -113.4 -15.05 -113.05 -16.7 -112.2 -17.6 -110.6 -17.85 -111.95 -17.1 -113.25 -15.9 -115.4 -13.35 -116.1 L-12.7 -116.25 -14.8 -121.45 Q-15.1 -122.15 -14.6 -122.55 -10.8 -120.0 -7.25 -117.05 -6.05 -116.05 -5.4 -114.8 -6.9 -120.4 -10.75 -125.2 -11.3 -125.8 -11.5 -126.6 -12.2 -129.0 -12.4 -131.55 -12.75 -135.5 -9.35 -137.6 L-9.35 -137.3 -9.35 -135.5 -9.5 -134.5 -9.1 -134.75 Q-6.95 -135.95 -4.5 -136.3 L-4.25 -136.3 -4.1 -136.2 Q-7.6 -131.3 -5.1 -125.65 -4.6 -124.55 -3.75 -123.6 -2.8 -122.6 -1.8 -123.8 0.45 -126.5 3.15 -128.8 L4.1 -128.85 Q5.05 -127.3 5.65 -125.4 L6.65 -122.3 Q8.2 -124.45 7.75 -127.5 L7.3 -130.45 6.7 -133.65 Q6.4 -135.2 6.65 -136.85 7.25 -140.75 8.65 -144.25 L8.85 -145.25 Q8.85 -145.85 9.15 -146.15 M28.4 -119.2 Q28.3 -119.5 28.45 -119.7 L29.1 -120.1 Q29.85 -119.9 29.25 -119.3 L28.4 -119.2 M-10.65 -70.5 Q-10.5 -67.2 -8.4 -64.7 -7.25 -63.3 -6.7 -61.75 -6.2 -60.3 -5.2 -59.0 L-3.4 -56.25 Q-5.05 -57.2 -6.15 -59.25 -8.5 -63.55 -12.05 -66.7 -13.8 -68.25 -15.0 -70.25 -16.55 -72.75 -19.5 -73.45 -19.75 -73.5 -19.5 -73.75 -17.5 -75.2 -14.8 -75.45 -10.9 -74.7 -10.65 -70.5" fill="#aa0909" fill-rule="evenodd" stroke="none"/>
    <path d="M10.5 -130.9 Q10.25 -129.25 10.3 -127.55 10.45 -124.0 10.1 -120.65 L12.8 -123.25 Q13.75 -124.2 15.0 -124.75 L15.2 -124.7 15.4 -124.6 15.45 -124.55 Q13.45 -123.05 13.0 -120.35 L12.35 -118.75 Q11.0 -116.7 10.75 -114.15 L11.5 -114.75 12.3 -115.25 Q13.05 -114.15 13.05 -112.65 L12.75 -109.5 12.85 -109.2 Q15.4 -109.8 17.8 -111.25 L18.45 -111.4 19.4 -111.45 20.0 -111.4 Q19.5 -110.6 19.45 -109.7 20.55 -110.85 21.3 -112.25 21.85 -113.35 22.95 -113.95 L24.8 -114.6 Q27.85 -114.0 27.4 -111.15 27.35 -110.65 26.8 -110.55 L24.85 -110.7 Q23.45 -111.1 22.3 -110.4 20.8 -109.5 19.6 -108.25 L19.75 -107.75 20.75 -103.85 20.75 -103.6 29.9 -103.05 30.6 -102.75 30.65 -102.6 30.65 -102.35 30.65 -102.15 Q29.15 -101.7 27.75 -101.05 L32.2 -102.6 Q35.45 -101.1 31.9 -99.45 29.75 -98.45 27.3 -98.6 L24.05 -98.8 23.7 -98.5 22.25 -97.25 23.8 -96.7 23.9 -96.65 Q24.05 -96.3 23.85 -95.95 L23.45 -95.3 23.35 -95.0 Q24.35 -95.0 25.3 -94.3 L25.55 -94.0 Q23.25 -92.0 19.75 -92.4 18.25 -92.55 18.1 -91.25 18.0 -90.25 18.35 -89.25 18.85 -87.7 18.25 -86.25 17.2 -83.55 15.3 -81.2 14.4 -80.1 13.85 -78.85 13.85 -77.65 14.2 -76.45 17.65 -77.1 19.4 -80.45 L19.35 -81.05 Q18.1 -82.95 19.8 -84.15 23.5 -84.1 22.35 -80.7 21.15 -76.95 17.35 -75.6 16.2 -75.15 16.8 -74.05 18.05 -71.7 17.75 -69.2 L17.75 -69.1 Q18.05 -66.7 16.35 -64.15 13.9 -60.4 12.45 -56.15 11.75 -54.2 10.6 -52.45 L9.05 -50.2 8.85 -48.75 8.55 -46.4 8.6 -46.45 Q8.95 -45.25 6.95 -45.0 5.75 -44.9 5.1 -45.4 L4.9 -44.45 Q4.45 -46.45 3.5 -48.4 2.75 -50.0 2.35 -51.7 L2.8 -52.2 3.6 -52.65 Q1.55 -55.8 -0.2 -59.1 -1.25 -61.0 -1.3 -63.3 L-1.3 -69.6 Q0.15 -69.85 1.05 -68.45 L1.45 -67.75 Q0.75 -76.25 -3.45 -83.75 -4.9 -86.3 -2.9 -88.6 -1.15 -90.65 -1.3 -93.35 L-1.7 -101.05 Q-1.75 -103.9 -2.35 -106.65 -3.5 -111.7 -3.9 -116.95 -4.0 -118.25 -4.85 -119.35 -7.55 -122.85 -9.8 -126.5 L-10.15 -127.2 -10.3 -127.75 Q-11.35 -128.95 -11.85 -130.8 -12.4 -133.05 -10.9 -134.45 -10.3 -134.05 -10.15 -133.3 L-9.85 -131.65 -8.7 -133.3 Q-7.9 -134.2 -6.9 -134.0 -7.5 -131.7 -8.25 -129.35 L-8.4 -127.55 Q-7.8 -124.15 -5.2 -121.65 -3.2 -119.75 -1.0 -118.2 L0.05 -118.3 Q2.05 -121.0 3.4 -124.05 4.2 -122.45 4.2 -120.3 4.2 -118.25 4.8 -116.35 7.5 -116.95 8.95 -119.8 9.5 -120.85 9.55 -122.15 9.7 -126.15 8.95 -130.0 L8.05 -136.05 Q7.65 -139.2 9.0 -141.6 L9.3 -141.85 Q11.05 -140.5 11.05 -137.8 11.15 -134.35 10.5 -130.9 M-13.1 -121.1 L-13.1 -121.25 -13.05 -121.05 Q-7.95 -117.95 -6.45 -113.1 -5.45 -109.75 -5.1 -106.35 -4.75 -102.9 -5.8 -99.7 -7.0 -96.05 -7.65 -92.3 -8.2 -89.2 -6.35 -86.8 L-6.0 -86.45 -3.85 -84.3 Q-4.8 -84.6 -5.55 -85.15 L-6.85 -86.2 Q-7.65 -87.0 -8.25 -88.1 -11.35 -93.4 -9.15 -99.25 -8.15 -101.8 -8.65 -104.7 -9.75 -111.45 -12.7 -117.8 -13.5 -119.55 -13.15 -121.05 L-13.25 -121.2 -13.1 -121.1 M-14.0 -115.0 L-13.75 -114.85 -13.7 -114.8 -14.85 -113.4 Q-15.6 -112.75 -16.3 -112.9 -16.25 -113.65 -15.6 -114.15 L-14.25 -115.05 -14.0 -115.0 M-11.4 -108.7 Q-10.8 -108.45 -10.8 -107.8 -10.85 -107.25 -11.4 -107.1 -11.85 -107.3 -11.85 -107.9 -11.85 -108.5 -11.4 -108.7 M-11.05 -98.3 L-11.3 -98.9 Q-11.3 -99.4 -10.8 -99.45 -10.15 -99.4 -10.3 -98.8 -10.5 -98.15 -11.05 -98.3 M-16.8 -74.85 Q-11.55 -75.45 -11.45 -70.65 -11.35 -67.0 -8.5 -64.45 -7.6 -63.65 -7.65 -62.6 L-12.1 -67.55 Q-13.1 -68.55 -13.7 -69.85 -14.9 -72.65 -17.95 -73.4 L-18.15 -73.35 -18.35 -73.2 -18.45 -73.05 -18.6 -72.95 -18.75 -73.0 -18.85 -73.25 -18.85 -73.45 -18.85 -73.85 -18.85 -73.9 -18.75 -73.95 -17.95 -74.2 -16.9 -74.8 -16.8 -74.85" fill="#fdc43e" fill-rule="evenodd" stroke="none"/>
    <path d="M10.25 -133.9 L9.55 -133.25 Q9.3 -132.9 8.85 -133.05 8.65 -135.1 8.6 -137.5 8.55 -139.45 9.1 -141.3 L9.2 -141.4 9.35 -141.5 9.5 -141.55 Q10.25 -139.8 10.35 -137.45 L10.25 -133.9 M3.55 -122.55 L3.6 -122.1 Q4.1 -120.9 4.2 -119.35 L4.4 -115.6 4.6 -114.95 10.5 -120.55 13.5 -123.65 Q14.1 -122.25 12.4 -120.8 9.1 -117.95 10.25 -114.1 L10.45 -113.4 Q10.95 -114.35 11.85 -114.95 12.65 -113.6 12.3 -111.6 12.0 -110.05 12.6 -108.65 16.05 -109.6 19.35 -111.05 L19.5 -111.0 Q18.65 -108.8 19.55 -106.75 20.25 -105.2 20.5 -103.45 L20.7 -103.1 29.15 -102.45 29.3 -102.2 Q22.0 -99.15 17.0 -93.2 16.45 -92.55 16.65 -91.65 L17.0 -87.5 Q16.95 -85.1 15.6 -83.05 13.2 -79.35 15.65 -75.4 18.95 -70.0 15.0 -65.0 13.25 -62.75 13.0 -59.9 12.35 -53.3 9.4 -47.5 L7.8 -45.15 Q6.25 -43.4 4.6 -44.25 L4.8 -44.55 5.55 -44.9 Q4.05 -47.2 3.05 -49.75 2.25 -51.8 4.05 -52.45 L4.3 -52.65 Q2.6 -56.25 0.25 -59.75 -0.25 -60.45 -0.35 -61.35 -0.9 -65.55 -0.9 -69.4 0.3 -68.7 1.3 -67.35 L1.85 -68.75 2.2 -69.2 Q1.95 -73.45 0.5 -77.45 -0.95 -81.5 -3.35 -84.85 -3.5 -85.1 -3.1 -85.15 L-2.65 -84.65 -2.45 -85.9 -1.3 -87.4 Q1.6 -96.1 0.5 -105.3 L-0.3 -112.95 Q-0.45 -114.55 0.15 -116.05 L2.5 -122.4 2.55 -122.55 2.55 -122.6 2.6 -122.7 2.65 -122.8 2.75 -122.85 2.95 -123.0 3.1 -123.05 3.15 -122.95 3.2 -122.9 3.55 -122.55 M25.0 -114.15 Q25.9 -113.75 26.3 -112.85 L26.95 -111.45 26.8 -111.05 25.8 -110.95 25.75 -111.1 25.6 -111.2 25.45 -111.4 25.4 -111.65 25.35 -111.75 24.75 -111.9 23.4 -111.95 Q22.95 -111.3 22.25 -111.35 L22.1 -111.55 22.0 -111.8 22.05 -112.1 23.55 -113.4 Q24.2 -114.0 25.0 -114.15 M21.8 -94.75 Q21.6 -94.6 21.9 -94.6 22.3 -94.6 22.35 -94.2 23.4 -94.15 24.05 -93.5 L24.1 -93.35 Q21.9 -92.6 19.4 -92.95 18.9 -94.15 20.05 -94.95 L21.4 -96.0 21.9 -96.2 22.2 -96.15 22.45 -95.9 22.3 -95.4 21.85 -94.85 21.8 -94.75 M27.0 -100.05 L31.2 -101.05 33.2 -101.5 Q34.2 -99.95 30.7 -99.3 L27.35 -99.55 Q26.95 -99.65 27.0 -100.05 M19.65 -82.05 L19.7 -82.25 Q19.85 -82.45 20.1 -82.45 22.0 -81.4 20.5 -79.35 L18.45 -77.0 18.25 -77.0 Q17.9 -77.0 17.65 -77.3 L17.65 -77.4 17.6 -77.45 17.65 -77.65 17.65 -77.85 Q19.15 -78.7 19.95 -80.2 20.5 -81.25 19.6 -81.95 L19.65 -82.05 M-8.15 -133.05 Q-7.8 -132.05 -8.6 -130.25 L-9.5 -128.3 -9.9 -128.05 Q-10.75 -128.9 -11.1 -130.2 -11.45 -131.55 -11.2 -132.65 L-11.0 -132.7 -10.5 -132.5 -10.25 -131.6 -10.0 -130.8 -9.9 -130.4 -9.45 -131.75 Q-9.15 -132.85 -8.15 -133.05 M-12.0 -119.95 L-11.85 -120.0 Q-7.6 -114.6 -6.25 -107.7 -5.2 -102.2 -7.5 -97.45 -7.6 -97.2 -7.85 -97.45 -7.35 -103.2 -8.9 -108.95 L-10.6 -114.2 Q-11.65 -117.0 -12.25 -119.75 L-12.15 -119.85 -12.0 -119.95 M-17.05 -73.45 L-16.9 -73.85 -16.8 -73.9 -16.75 -73.95 -16.6 -73.95 Q-15.3 -74.0 -14.1 -73.45 -12.8 -72.9 -12.75 -71.7 -13.45 -71.4 -14.15 -71.95 -15.5 -73.05 -17.05 -73.4 L-17.05 -73.45" fill="#fefd9a" fill-rule="evenodd" stroke="none"/>
    <path d="M12.1 -100.8 Q11.1 -100.3 10.4 -99.4 9.85 -98.75 9.5 -98.65 8.5 -96.05 8.5 -93.55 8.5 -91.15 10.9 -85.6 13.25 -80.1 13.25 -76.0 13.25 -71.5 12.55 -68.8 11.2 -64.7 10.0 -60.0 7.8 -44.5 6.75 -44.5 5.7 -44.5 5.5 -46.9 L5.5 -49.4 Q5.5 -51.45 5.95 -54.1 L5.0 -55.1 Q2.75 -58.25 1.75 -61.7 1.65 -62.05 2.05 -62.2 L2.5 -62.35 Q4.8 -60.35 6.65 -57.65 L8.15 -63.3 Q10.75 -72.15 10.75 -76.0 10.75 -79.45 8.4 -85.1 6.0 -90.75 6.0 -93.65 6.7 -104.25 9.85 -104.25 11.0 -104.25 11.2 -103.2 L12.9 -103.95 Q15.15 -102.4 12.1 -100.8" fill="#ffffff" fill-rule="evenodd" stroke="none"/>
  </g>
</svg>
