<?xml version="1.0" encoding="UTF-8" standalone="no"?>
<svg xmlns:ffdec="https://www.free-decompiler.com/flash" xmlns:xlink="http://www.w3.org/1999/xlink" ffdec:objectType="shape" height="103.35px" width="58.65px" xmlns="http://www.w3.org/2000/svg">
  <g transform="matrix(1.0, 0.0, 0.0, 1.0, 20.45, 148.6)">
    <path d="M8.6 -148.6 Q13.45 -146.65 12.1 -141.5 10.3 -134.6 10.8 -127.15 L10.9 -122.75 Q12.4 -121.6 14.3 -121.1 L15.95 -120.55 16.05 -120.45 16.1 -120.15 16.1 -119.75 16.1 -119.65 Q16.25 -119.35 16.85 -119.45 19.3 -119.9 21.25 -118.9 L21.4 -118.75 21.4 -118.65 Q21.2 -117.5 20.35 -116.55 19.8 -116.0 19.6 -115.15 L19.55 -114.85 19.55 -114.75 20.15 -114.3 20.7 -114.0 Q25.85 -117.9 32.1 -114.7 32.75 -114.35 32.85 -113.55 33.2 -110.8 30.9 -109.2 L31.0 -109.0 32.35 -106.65 Q32.75 -106.0 32.1 -105.5 L31.75 -105.2 Q35.5 -106.75 38.0 -104.55 L38.2 -103.8 Q37.55 -98.15 31.25 -96.8 30.3 -96.55 29.8 -95.8 L29.8 -95.7 Q30.3 -95.3 31.15 -95.0 L31.4 -94.85 Q31.2 -92.35 28.2 -91.75 23.95 -90.95 22.1 -87.4 25.7 -86.6 24.9 -83.35 24.5 -81.7 23.6 -80.2 L20.4 -75.0 Q18.75 -72.25 19.1 -68.85 19.25 -67.5 18.6 -66.2 L14.0 -56.25 Q11.45 -50.65 7.3 -46.1 L7.35 -46.0 7.4 -45.8 7.4 -45.6 7.4 -45.5 Q0.4 -46.6 -0.75 -53.65 -1.35 -57.45 -1.3 -61.2 -1.3 -62.65 -2.25 -63.95 -7.35 -70.5 -5.9 -79.3 -4.65 -86.7 -7.85 -92.8 L-8.95 -90.5 -9.25 -90.6 -9.4 -90.85 Q-9.4 -91.1 -9.7 -91.15 L-9.8 -91.2 Q-6.85 -98.35 -9.1 -105.85 -10.6 -110.85 -12.4 -115.65 L-14.3 -113.45 Q-15.05 -112.35 -16.2 -111.7 L-16.65 -111.05 -16.6 -110.95 -16.55 -110.9 -16.65 -110.8 -16.85 -110.7 -16.9 -110.7 Q-17.4 -112.95 -15.55 -114.15 L-12.5 -116.0 -14.4 -120.9 Q-14.75 -121.8 -13.9 -122.2 -3.55 -117.4 -4.95 -106.15 L-5.8 -100.3 Q-6.35 -96.45 -7.8 -92.9 -6.8 -92.85 -5.9 -92.1 L-5.45 -91.85 Q-5.8 -98.05 -3.25 -103.95 -2.3 -106.2 -2.15 -108.4 -2.95 -109.95 -6.4 -120.3 -9.3 -122.0 -10.15 -125.3 -10.8 -127.65 -12.45 -129.35 -14.5 -131.45 -14.2 -134.1 -12.25 -133.9 -10.6 -134.05 L-9.85 -134.35 Q-8.4 -135.35 -6.8 -135.8 L-4.25 -135.7 -4.0 -135.6 Q-3.75 -133.35 -6.1 -131.6 -7.05 -130.9 -7.05 -129.6 -7.05 -126.0 -4.4 -123.4 -3.35 -122.4 -2.85 -121.1 L-2.7 -120.35 Q-0.05 -118.35 1.05 -122.0 2.5 -126.85 6.3 -130.45 L7.4 -131.2 Q8.55 -129.1 8.8 -126.6 L8.95 -125.55 Q8.85 -130.45 8.35 -135.4 L7.3 -143.7 Q6.8 -146.85 8.6 -148.6 M-11.15 -107.55 Q-11.55 -107.1 -11.8 -107.55 -12.4 -108.5 -11.5 -109.0 -10.3 -108.55 -11.15 -107.55 M-11.1 -98.4 L-11.15 -98.85 Q-11.1 -99.3 -10.7 -99.55 L-10.65 -99.55 -10.35 -99.5 -10.1 -99.4 -10.2 -98.75 Q-10.45 -98.2 -11.1 -98.4 M-11.2 -70.55 L-10.2 -68.6 Q-8.45 -66.1 -7.95 -63.2 L-7.6 -62.8 -7.1 -62.05 -6.2 -60.7 -5.95 -59.9 Q-6.9 -60.3 -7.65 -61.75 -11.55 -69.2 -19.5 -72.25 -20.35 -72.6 -20.45 -73.6 -20.65 -75.6 -18.8 -76.05 -13.0 -75.85 -11.2 -70.55" fill="#aa0909" fill-rule="evenodd" stroke="none"/>
    <path d="M9.45 -147.65 L9.45 -147.6 Q12.6 -145.3 10.65 -141.3 10.25 -140.55 10.2 -139.65 10.0 -134.35 10.4 -128.95 10.65 -125.9 9.8 -123.25 L9.85 -126.55 9.7 -125.95 Q9.85 -131.75 8.75 -137.65 8.15 -141.0 8.4 -144.45 L8.4 -146.25 Q8.35 -147.3 8.9 -147.95 L9.2 -147.95 9.45 -147.75 9.45 -147.65 M7.0 -127.25 L7.2 -127.35 Q7.35 -125.7 7.1 -123.7 L6.85 -120.55 Q9.6 -120.0 11.95 -118.8 12.2 -118.65 12.05 -118.3 L11.3 -116.1 16.0 -116.1 Q16.3 -116.1 16.2 -115.65 L14.85 -110.7 Q16.6 -108.95 19.45 -109.95 L20.7 -110.25 21.65 -111.5 Q22.55 -112.8 23.85 -113.5 L24.6 -113.5 25.0 -113.45 Q25.5 -114.0 26.55 -113.8 27.4 -111.95 27.3 -109.8 27.3 -108.75 25.9 -109.05 25.25 -109.2 24.75 -109.55 L24.6 -108.75 24.45 -107.7 29.2 -106.55 Q28.4 -104.5 26.05 -103.2 25.1 -102.65 25.15 -101.5 L25.0 -100.2 25.25 -100.15 Q29.8 -100.7 33.9 -103.0 L34.45 -103.25 Q37.0 -101.75 33.7 -100.1 32.15 -99.35 30.5 -99.1 L26.8 -98.6 Q26.15 -97.45 25.0 -96.6 L24.35 -95.85 24.25 -95.4 27.35 -94.45 Q25.85 -93.55 23.6 -93.4 21.05 -93.2 19.6 -91.5 19.05 -90.85 18.85 -90.0 18.6 -88.65 17.9 -87.45 17.15 -86.0 18.5 -84.85 20.6 -85.0 21.2 -83.0 L21.6 -82.25 Q22.0 -81.6 21.9 -80.85 19.45 -80.1 18.85 -82.5 L18.5 -83.4 17.45 -84.4 Q17.3 -81.8 17.95 -79.1 18.7 -76.0 17.3 -73.25 15.25 -69.35 14.9 -64.8 14.7 -62.45 15.3 -60.2 16.85 -54.1 12.55 -49.3 10.7 -47.25 8.15 -46.05 6.65 -45.35 5.45 -45.7 L5.8 -45.85 Q4.3 -46.1 2.85 -47.35 -1.45 -51.35 -0.05 -57.4 0.3 -58.7 -0.05 -60.0 -1.35 -64.7 -3.95 -68.95 L-4.45 -70.55 Q-5.0 -75.15 -4.3 -79.8 -3.7 -83.6 -3.95 -87.5 -4.05 -89.15 -2.45 -89.85 -5.7 -96.05 -1.85 -102.05 0.15 -105.2 0.0 -109.0 L0.0 -109.3 Q-0.75 -112.65 -2.25 -115.8 L-3.65 -119.3 -3.6 -119.35 -3.55 -119.25 -3.55 -119.35 Q-2.55 -119.05 -1.95 -117.85 -1.7 -117.25 -1.25 -116.8 0.8 -117.4 1.65 -119.85 2.35 -121.95 3.95 -123.6 L7.0 -127.25 M-7.7 -135.25 L-6.05 -135.15 Q-5.25 -135.05 -4.75 -134.45 L-4.85 -133.85 Q-5.65 -132.2 -7.75 -132.3 L-7.75 -132.25 Q-8.65 -130.9 -9.0 -129.35 -9.25 -128.45 -8.85 -127.55 -7.5 -124.1 -5.25 -121.3 -6.45 -121.7 -7.4 -123.1 -9.5 -126.3 -10.65 -129.8 -11.2 -131.3 -12.7 -131.95 -14.0 -132.5 -14.05 -133.8 -13.35 -134.5 -12.35 -134.05 L-10.65 -132.9 -10.6 -132.85 -10.1 -133.3 Q-9.35 -134.6 -8.05 -135.0 L-7.85 -135.15 -7.7 -135.25 M-13.15 -121.35 L-13.1 -121.35 -12.9 -121.2 -12.9 -121.35 -12.85 -121.15 Q-5.85 -116.0 -5.8 -107.4 -5.8 -104.1 -6.55 -100.9 L-7.05 -98.75 Q-7.4 -96.25 -8.4 -93.75 -8.95 -95.35 -8.2 -97.45 -6.9 -101.1 -7.7 -104.95 -8.85 -110.15 -11.45 -114.9 -13.1 -117.85 -12.95 -120.75 L-13.15 -121.35 M-16.15 -113.2 L-15.5 -113.75 -15.4 -113.8 Q-14.6 -113.65 -15.1 -113.0 -15.5 -112.45 -16.1 -112.5 -16.4 -112.8 -16.15 -113.2 M-11.1 -108.3 L-11.2 -107.65 Q-11.75 -107.55 -11.85 -108.1 -11.95 -108.6 -11.5 -108.7 L-11.1 -108.3 M-19.6 -74.35 Q-19.15 -75.25 -18.1 -75.35 -14.45 -74.9 -12.7 -71.75 L-10.95 -68.25 -10.05 -66.95 -10.1 -66.9 -10.3 -66.65 -10.35 -66.5 -10.45 -66.3 -15.05 -71.6 Q-15.45 -72.0 -16.0 -72.05 -17.95 -72.25 -19.35 -73.35 -19.9 -73.75 -19.6 -74.35" fill="#fdc43e" fill-rule="evenodd" stroke="none"/>
    <path d="M9.05 -147.4 L9.1 -147.4 9.25 -147.45 Q12.1 -145.5 10.3 -142.15 9.75 -141.1 9.9 -139.9 10.0 -138.45 9.25 -137.6 8.35 -139.65 9.0 -142.25 9.6 -144.75 8.85 -147.25 L8.95 -147.3 9.05 -147.4 M6.35 -125.8 Q6.7 -124.2 6.3 -121.85 5.95 -120.15 5.95 -118.35 L10.45 -118.9 Q11.0 -117.95 10.7 -116.8 10.4 -115.65 10.8 -114.6 12.75 -114.5 14.4 -115.65 L14.55 -115.65 13.7 -111.55 Q13.15 -109.7 13.9 -108.1 L23.6 -108.65 23.65 -108.45 23.7 -108.1 23.65 -107.9 21.85 -106.55 21.05 -105.85 21.1 -105.6 21.3 -105.1 21.35 -105.05 23.95 -106.0 24.0 -106.15 24.1 -106.25 24.75 -106.45 24.9 -106.45 25.9 -106.45 27.2 -106.3 27.35 -106.2 Q26.85 -104.65 24.7 -103.7 24.25 -103.45 24.25 -102.75 24.3 -98.75 20.25 -96.95 16.9 -95.5 17.8 -91.9 18.35 -89.7 16.9 -88.05 14.45 -85.15 16.3 -81.45 17.35 -79.35 17.4 -77.05 L17.1 -75.9 Q14.1 -70.55 14.4 -64.25 15.2 -61.65 14.6 -58.6 13.35 -52.4 9.35 -47.5 7.95 -45.8 6.55 -46.0 L6.7 -45.8 Q5.25 -45.4 4.0 -47.2 2.85 -48.85 2.3 -50.75 1.35 -53.9 1.8 -57.25 2.5 -62.25 0.0 -66.6 -0.95 -68.3 -2.2 -69.8 L-1.75 -76.65 Q-1.45 -79.9 -1.7 -83.2 L-1.65 -84.4 -1.55 -84.5 -1.4 -84.6 -1.25 -84.65 1.1 -80.95 Q-1.35 -87.8 -2.65 -95.15 -2.9 -96.65 -1.55 -97.9 -0.6 -98.8 -0.05 -100.0 2.2 -104.85 1.9 -110.3 1.7 -114.75 2.9 -118.7 4.15 -122.65 6.35 -125.8 M25.5 -112.9 Q26.25 -112.8 26.3 -112.0 L26.7 -111.6 27.1 -110.6 26.8 -110.4 27.1 -110.05 27.1 -109.65 Q24.6 -109.35 24.9 -111.45 25.05 -112.2 25.35 -112.75 L25.5 -112.9 M23.6 -93.9 L23.7 -93.7 Q21.95 -92.6 20.45 -94.2 L20.45 -94.25 22.25 -96.35 23.75 -97.6 23.75 -97.65 Q25.05 -96.9 23.75 -95.9 L22.05 -94.65 Q22.9 -94.5 23.6 -93.9 M32.15 -99.85 Q31.75 -101.15 33.15 -101.85 L35.1 -102.9 Q35.75 -101.85 34.2 -100.75 33.15 -100.1 32.15 -99.85 M19.35 -84.4 Q19.8 -83.5 20.6 -82.65 21.4 -81.7 20.8 -80.75 19.7 -81.25 18.95 -82.7 18.35 -83.8 19.35 -84.4 M-5.05 -134.0 Q-5.9 -132.8 -7.65 -132.85 -8.1 -132.85 -8.1 -132.3 -8.15 -131.35 -8.95 -131.35 -9.4 -131.75 -9.25 -132.4 L-8.5 -133.85 Q-8.15 -134.3 -7.5 -134.3 L-6.2 -134.35 Q-5.45 -134.5 -5.05 -134.0 M-13.15 -133.5 Q-12.3 -133.05 -11.25 -132.9 -10.1 -132.75 -10.45 -131.75 L-10.95 -131.7 -11.25 -132.0 -11.4 -132.15 -11.55 -132.3 -13.3 -132.4 Q-13.75 -132.65 -13.5 -133.2 -13.4 -133.45 -13.15 -133.5 M-12.75 -121.25 Q-10.2 -118.25 -8.7 -114.45 -7.45 -111.25 -7.5 -108.05 -9.15 -108.8 -9.6 -111.25 L-10.25 -113.3 Q-12.05 -117.2 -12.9 -121.1 L-12.75 -121.25 M-15.5 -73.3 Q-15.65 -73.05 -15.9 -73.1 L-18.7 -73.9 -18.7 -73.95 -18.7 -74.05 -18.7 -74.15 -18.65 -74.25 -18.45 -74.4 -18.25 -74.45 -16.65 -74.35 Q-15.5 -74.25 -15.5 -73.3" fill="#fefd9a" fill-rule="evenodd" stroke="none"/>
    <path d="M11.4 -97.0 L11.75 -91.15 Q11.75 -88.25 9.25 -75.1 6.75 -61.9 6.75 -57.55 L6.8 -56.0 7.55 -57.55 7.85 -57.75 Q9.65 -56.25 8.6 -53.45 8.15 -52.25 8.45 -50.95 8.85 -49.25 7.8 -49.1 L8.25 -46.5 Q8.25 -45.25 7.0 -45.25 5.2 -45.25 4.55 -51.4 4.2 -54.5 4.25 -57.65 4.25 -59.4 4.7 -62.75 3.8 -63.45 3.35 -64.6 1.8 -68.35 1.65 -72.2 1.65 -73.05 2.5 -73.1 4.0 -71.8 4.4 -69.4 L4.95 -67.8 5.3 -67.0 6.75 -75.55 Q9.25 -89.15 9.25 -91.1 L8.0 -101.15 Q8.0 -103.0 9.25 -103.0 10.9 -103.0 11.4 -97.0" fill="#ffffff" fill-rule="evenodd" stroke="none"/>
  </g>
</svg>
