<?xml version="1.0" encoding="UTF-8" standalone="no"?>
<svg xmlns:ffdec="https://www.free-decompiler.com/flash" xmlns:xlink="http://www.w3.org/1999/xlink" ffdec:objectType="shape" height="105.6px" width="58.4px" xmlns="http://www.w3.org/2000/svg">
  <g transform="matrix(1.0, 0.0, 0.0, 1.0, 21.45, 150.1)">
    <path d="M7.4 -150.1 Q12.7 -149.0 11.55 -143.3 10.5 -138.05 10.85 -132.65 13.4 -133.55 16.2 -133.15 14.7 -130.75 12.7 -128.65 10.55 -126.3 9.6 -123.45 L14.2 -122.0 Q15.25 -121.6 15.0 -120.35 17.95 -121.9 21.15 -122.9 L23.85 -122.85 Q23.35 -120.8 22.0 -119.0 20.85 -117.55 20.3 -115.8 20.05 -115.15 20.2 -114.35 20.3 -114.15 20.6 -114.1 21.65 -113.95 21.8 -112.95 L21.95 -112.35 Q24.65 -113.55 27.95 -114.55 L30.4 -114.5 Q34.65 -113.05 31.9 -109.25 L30.65 -107.25 30.6 -107.2 31.55 -106.8 32.15 -106.35 32.15 -106.25 32.2 -105.75 32.0 -105.1 31.95 -104.95 Q34.6 -106.15 36.7 -104.3 L36.95 -103.65 Q37.05 -98.4 31.45 -97.25 29.6 -96.9 29.7 -95.0 29.85 -91.85 26.5 -91.05 23.05 -90.2 21.8 -87.2 L21.85 -87.1 23.45 -86.65 23.85 -86.35 Q23.55 -80.9 21.75 -75.8 L21.25 -73.75 Q20.65 -69.25 18.1 -65.3 17.3 -64.1 17.4 -62.55 L20.7 -62.3 21.65 -62.05 Q21.3 -56.4 15.7 -53.8 10.3 -51.25 7.55 -46.4 L7.35 -45.95 7.6 -45.75 7.7 -45.55 7.7 -45.45 7.65 -45.35 7.45 -44.95 7.05 -44.6 6.95 -44.5 6.8 -44.5 Q6.55 -44.5 6.5 -44.75 L6.5 -45.05 6.5 -45.1 Q-1.1 -51.3 -3.7 -60.5 -5.0 -65.15 -4.35 -70.05 -4.0 -72.4 -5.35 -78.6 -7.75 -84.9 -7.0 -91.85 -6.7 -94.55 -6.0 -97.0 L-5.35 -98.4 Q-4.75 -99.2 -4.7 -100.4 -4.3 -105.85 -3.35 -111.25 -2.8 -114.4 -4.15 -117.15 -8.05 -125.0 -13.65 -131.4 L-14.55 -132.35 Q-16.2 -133.9 -13.7 -134.1 L-9.9 -133.65 -9.4 -133.75 Q-7.75 -134.9 -5.85 -135.55 -1.9 -134.55 -4.85 -131.7 -5.5 -131.1 -6.45 -130.75 -7.55 -130.35 -7.65 -128.95 -7.8 -127.1 -7.25 -125.45 L-7.15 -125.4 -6.3 -124.65 Q-5.95 -124.3 -5.45 -124.35 L-5.4 -125.0 -5.5 -126.9 Q-5.55 -127.6 -5.2 -128.05 -4.0 -124.9 -1.35 -122.2 -0.25 -121.1 0.75 -122.3 2.9 -124.75 4.55 -127.6 5.75 -129.65 7.8 -131.05 L9.1 -131.85 Q8.1 -135.05 8.25 -139.1 8.45 -144.6 6.65 -149.5 L6.75 -149.6 7.05 -149.9 7.4 -150.05 7.4 -150.1 M-14.55 -122.8 Q-8.7 -121.65 -7.3 -115.65 -5.1 -106.5 -6.75 -97.25 -7.15 -94.95 -8.6 -93.8 L-8.65 -93.95 -8.55 -94.5 -8.1 -95.25 Q-7.95 -95.7 -8.3 -96.0 -6.7 -102.05 -8.75 -108.15 -11.0 -114.9 -14.75 -121.2 -15.35 -122.2 -14.55 -122.8 M-14.05 -113.9 L-16.3 -111.8 -16.6 -111.45 Q-17.05 -112.85 -15.6 -113.7 -14.3 -114.45 -13.25 -115.45 -13.05 -115.15 -13.45 -114.55 L-14.05 -113.9 M-11.9 -108.3 L-11.65 -108.55 -11.15 -108.55 -10.95 -108.5 -10.9 -108.45 -10.85 -108.35 -10.8 -108.15 -10.8 -108.1 Q-11.2 -107.7 -11.7 -107.85 -12.0 -107.95 -11.9 -108.3 M-10.4 -99.3 L-10.1 -99.1 -10.1 -99.05 -10.05 -99.05 -10.05 -98.95 -10.1 -98.85 -10.9 -98.8 Q-11.15 -99.05 -10.9 -99.25 L-10.8 -99.3 -10.4 -99.3 M-8.55 -65.7 Q-8.1 -64.7 -8.25 -63.7 -10.25 -66.65 -12.75 -69.65 -15.8 -73.4 -20.6 -72.3 L-21.05 -72.6 Q-22.15 -74.8 -20.1 -76.05 -13.85 -76.75 -11.4 -71.6 L-8.55 -65.7" fill="#aa0909" fill-rule="evenodd" stroke="none"/>
    <path d="M7.4 -149.45 Q11.75 -149.15 10.75 -145.0 L10.5 -142.85 Q10.5 -140.25 9.85 -137.7 9.65 -136.8 9.75 -135.9 L10.15 -130.75 12.0 -131.45 13.4 -131.4 13.8 -131.2 Q13.1 -129.35 11.15 -127.9 7.65 -125.35 6.65 -121.25 6.35 -119.95 6.45 -118.6 8.3 -122.4 12.65 -120.3 13.0 -120.15 12.85 -119.7 L12.2 -117.1 Q14.4 -117.6 16.45 -119.25 18.4 -120.75 20.6 -120.9 18.25 -118.4 17.0 -115.1 L15.95 -112.55 Q15.0 -110.4 17.5 -110.0 18.5 -109.85 18.95 -108.95 L19.7 -107.35 Q23.2 -107.8 25.8 -110.55 26.85 -111.65 28.35 -111.0 30.1 -110.25 29.05 -108.4 L26.55 -108.35 25.85 -109.0 Q24.85 -108.7 24.0 -108.1 L23.9 -107.95 23.55 -107.2 Q26.0 -107.15 27.1 -105.45 27.35 -105.05 26.85 -104.75 24.3 -103.35 24.2 -100.75 24.15 -99.85 23.4 -99.35 L26.3 -99.75 32.45 -102.1 Q33.7 -102.7 34.55 -103.9 34.9 -104.4 35.4 -104.5 L35.5 -104.5 35.7 -104.4 35.9 -104.3 Q36.2 -100.25 31.2 -99.5 L28.55 -99.05 27.1 -98.9 Q26.5 -97.4 24.75 -96.6 L24.35 -96.25 Q26.15 -95.65 26.55 -93.85 26.85 -92.6 25.35 -93.0 L21.9 -93.4 19.3 -87.3 Q18.9 -86.45 19.45 -85.8 L21.8 -82.5 Q23.2 -80.25 20.35 -79.4 19.9 -79.25 19.8 -78.65 19.35 -74.65 19.4 -70.55 L19.1 -69.8 Q17.0 -67.05 15.45 -63.95 14.1 -61.35 16.15 -59.7 17.0 -59.0 18.1 -58.85 L18.35 -58.8 18.5 -59.05 18.6 -59.0 18.8 -58.85 18.85 -58.75 18.7 -58.45 18.75 -58.35 18.65 -58.3 Q16.45 -54.45 13.15 -51.15 11.65 -49.65 10.6 -47.8 9.3 -45.35 7.2 -45.55 L7.55 -45.35 Q6.6 -45.35 5.8 -45.95 5.2 -46.45 4.7 -47.3 L3.9 -48.75 0.45 -54.55 Q-0.95 -56.7 -1.95 -59.05 -2.6 -60.55 -2.6 -62.2 -2.55 -67.2 -2.0 -72.0 -1.4 -76.95 -3.9 -81.25 -5.85 -84.65 -4.15 -88.35 -2.2 -92.65 -3.2 -97.15 -3.65 -99.4 -3.3 -101.65 -2.65 -105.75 -0.7 -109.4 0.6 -111.8 -0.6 -114.4 L-4.3 -122.8 -4.2 -122.85 -1.9 -120.7 -1.3 -120.0 Q-0.5 -119.55 0.6 -119.55 L1.1 -119.85 5.05 -126.55 Q6.05 -128.2 7.65 -129.35 L9.8 -130.6 Q9.6 -130.75 9.65 -131.1 L9.5 -132.8 Q9.35 -133.45 9.35 -134.1 L9.35 -134.15 9.3 -134.15 9.15 -134.2 9.1 -134.25 9.2 -141.15 Q9.1 -145.25 7.25 -148.6 6.95 -149.2 7.4 -149.45 M2.0 -114.55 Q0.75 -112.8 1.25 -110.8 2.6 -111.8 3.5 -113.5 L5.65 -117.45 Q3.4 -116.45 2.0 -114.55 M-6.5 -134.65 Q-3.6 -134.5 -4.75 -132.2 L-4.85 -132.0 Q-5.3 -131.35 -5.95 -131.85 -6.95 -132.45 -7.15 -133.6 -8.7 -133.25 -9.05 -131.35 L-9.1 -128.5 -9.0 -127.55 -8.6 -126.65 -8.4 -125.75 Q-9.45 -126.65 -10.15 -128.5 -10.8 -130.4 -12.2 -131.65 L-13.1 -132.0 Q-14.65 -132.15 -14.65 -133.6 L-14.55 -133.65 -14.2 -133.85 -13.8 -134.0 -13.7 -134.05 -12.3 -133.95 -11.1 -133.3 -10.3 -130.75 -10.05 -130.05 -10.05 -130.1 Q-9.95 -132.25 -8.4 -133.65 -7.55 -134.4 -6.5 -134.65 M-14.55 -122.25 L-14.4 -122.5 -14.3 -122.55 Q-9.4 -119.7 -7.95 -114.1 -6.85 -109.65 -7.1 -105.35 L-8.35 -109.25 Q-9.1 -111.9 -10.55 -114.2 L-12.55 -117.85 Q-13.45 -119.8 -14.65 -121.6 L-14.6 -121.9 -14.55 -122.25 M-16.35 -112.7 Q-16.4 -113.1 -16.0 -113.1 L-16.0 -113.15 Q-15.55 -112.95 -15.8 -112.45 -16.0 -111.95 -16.3 -112.4 L-16.35 -112.7 M-12.95 -71.4 L-13.0 -71.4 -13.2 -71.3 -13.25 -71.1 -13.25 -71.0 -13.4 -70.75 Q-14.75 -73.1 -17.5 -72.95 L-18.65 -72.8 Q-21.3 -72.15 -20.6 -74.15 -20.25 -75.15 -19.1 -75.35 -16.85 -75.45 -14.95 -74.25 -13.15 -73.15 -12.95 -71.4" fill="#fdc43e" fill-rule="evenodd" stroke="none"/>
    <path d="M7.8 -148.9 L8.1 -149.05 Q10.95 -148.55 10.4 -145.2 10.0 -143.0 10.2 -140.9 L10.05 -140.85 9.85 -140.8 9.55 -140.85 9.4 -140.9 Q8.85 -142.5 9.0 -144.2 9.2 -146.85 7.55 -148.55 L7.55 -148.65 7.65 -148.75 7.8 -148.9 M11.6 -129.7 L11.65 -129.65 Q9.9 -128.05 8.15 -125.9 7.0 -124.5 6.15 -122.9 5.85 -122.3 5.35 -122.05 4.9 -122.1 4.85 -122.45 4.8 -122.85 5.05 -123.15 L5.2 -123.3 Q4.9 -125.1 6.1 -126.5 8.1 -128.85 11.0 -129.9 L11.25 -129.85 11.6 -129.7 M4.75 -121.9 Q5.55 -121.2 5.15 -119.95 4.9 -119.1 5.45 -118.35 3.45 -117.1 1.0 -117.45 L0.9 -117.65 0.9 -117.9 0.9 -118.1 Q2.7 -118.9 3.6 -120.7 4.0 -121.55 4.75 -121.9 M9.35 -119.3 Q11.55 -117.55 10.25 -114.3 L10.1 -113.85 12.0 -113.75 Q12.55 -113.7 12.95 -114.2 L16.5 -117.9 16.75 -117.85 Q16.9 -117.8 17.1 -117.7 L17.15 -117.65 Q15.85 -114.95 13.5 -112.75 12.5 -111.8 12.2 -110.45 L11.9 -109.4 14.0 -109.2 Q15.5 -109.2 16.75 -108.2 18.3 -106.95 18.1 -105.0 22.4 -102.35 20.3 -97.8 19.95 -97.05 20.2 -96.25 21.2 -93.3 19.15 -90.7 16.85 -87.7 18.55 -84.25 L18.6 -83.05 Q16.6 -78.0 18.25 -72.45 18.8 -70.6 17.5 -69.3 14.85 -66.55 13.5 -63.05 12.3 -60.05 13.05 -57.0 L15.2 -57.05 Q15.85 -57.55 16.6 -57.9 17.2 -57.35 16.75 -56.65 L16.8 -56.65 16.65 -56.55 15.5 -55.65 13.6 -54.0 Q10.6 -50.45 8.7 -46.3 L8.15 -45.3 8.1 -45.3 7.75 -44.95 7.55 -45.45 Q6.25 -45.85 5.1 -47.25 2.45 -50.5 1.0 -54.4 0.4 -55.95 0.25 -57.75 0.05 -60.0 -1.05 -62.0 -3.2 -65.9 -1.4 -70.15 1.8 -77.85 -2.8 -85.0 -3.15 -85.55 -2.95 -86.2 -1.2 -91.5 -2.2 -96.75 -2.95 -97.65 -2.7 -98.65 L-2.75 -98.85 -2.6 -98.95 -2.55 -99.05 Q-1.85 -98.95 -1.6 -98.15 L-0.75 -96.75 Q2.25 -101.5 4.8 -106.95 5.8 -109.0 6.05 -111.25 6.6 -115.75 9.25 -119.25 L9.35 -119.3 M35.8 -102.5 Q35.4 -101.5 34.6 -101.2 33.9 -102.0 34.45 -103.2 34.8 -103.95 35.4 -104.35 36.25 -103.65 35.8 -102.5 M27.35 -110.35 L28.5 -110.05 28.85 -109.95 28.95 -109.5 28.95 -109.3 28.4 -107.95 Q28.2 -107.7 27.9 -107.7 L27.25 -108.25 26.35 -110.2 Q26.15 -110.55 26.65 -110.65 L27.35 -110.35 M25.85 -98.65 L25.85 -98.55 24.35 -96.8 Q23.3 -95.35 22.0 -96.05 L23.15 -97.5 24.9 -98.95 25.4 -98.95 25.85 -98.65 M23.25 -94.2 L23.3 -94.4 23.45 -94.6 23.6 -94.65 23.75 -94.7 25.0 -94.45 Q25.75 -94.25 25.65 -93.55 25.3 -93.1 24.7 -93.3 23.75 -93.6 23.25 -94.2 M-4.85 -132.3 L-4.85 -132.15 Q-5.95 -131.55 -6.5 -132.7 -6.9 -133.45 -6.35 -133.95 L-6.15 -134.05 -5.9 -134.05 -5.7 -134.0 -5.25 -133.3 -4.85 -132.3 M-12.05 -132.65 L-12.35 -132.4 -14.2 -132.65 -14.2 -132.75 -14.2 -133.0 -13.8 -133.45 -13.65 -133.5 -12.55 -133.4 Q-12.05 -133.15 -12.05 -132.65 M-14.35 -121.85 L-14.15 -122.0 -14.0 -122.05 Q-11.65 -120.55 -10.4 -117.9 -9.25 -115.5 -9.6 -113.4 -11.3 -115.0 -12.25 -117.5 -13.1 -119.8 -14.5 -121.7 L-14.45 -121.8 -14.35 -121.85 M-17.5 -74.0 Q-17.6 -73.7 -17.9 -73.75 L-18.65 -73.7 -18.7 -73.6 -18.85 -73.35 Q-18.95 -73.05 -19.25 -73.05 L-19.65 -73.4 Q-19.8 -74.1 -19.2 -74.55 L-18.75 -74.7 -18.0 -74.7 Q-17.55 -74.65 -17.45 -74.2 L-17.45 -74.1 -17.5 -74.0" fill="#fefd9a" fill-rule="evenodd" stroke="none"/>
    <path d="M11.6 -103.5 Q13.8 -103.5 13.25 -98.9 13.25 -93.5 8.4 -81.0 3.5 -68.5 3.5 -63.8 3.5 -62.3 3.8 -60.55 4.45 -63.0 6.35 -64.25 8.2 -62.95 6.7 -60.4 6.25 -59.6 6.2 -58.65 6.15 -56.8 5.15 -55.65 L5.75 -54.0 Q8.0 -48.2 8.0 -46.55 8.0 -45.0 6.75 -45.0 5.85 -45.0 2.75 -54.5 1.0 -59.3 1.0 -63.8 1.0 -67.95 3.3 -74.65 2.2 -75.75 2.15 -77.7 L1.6 -83.75 Q1.1 -86.95 2.5 -89.4 L2.75 -89.6 Q4.4 -88.15 4.25 -85.35 4.1 -83.15 4.45 -80.9 L4.75 -78.6 5.9 -81.5 Q10.75 -93.05 10.75 -98.9 L10.25 -102.2 Q10.25 -103.5 11.6 -103.5" fill="#ffffff" fill-rule="evenodd" stroke="none"/>
  </g>
</svg>
