<?xml version="1.0" encoding="UTF-8" standalone="no"?>
<svg xmlns:ffdec="https://www.free-decompiler.com/flash" xmlns:xlink="http://www.w3.org/1999/xlink" ffdec:objectType="shape" height="107.25px" width="57.75px" xmlns="http://www.w3.org/2000/svg">
  <g transform="matrix(1.0, 0.0, 0.0, 1.0, 20.75, 152.4)">
    <path d="M7.1 -152.4 Q12.95 -151.1 11.65 -144.7 L10.75 -139.7 Q10.2 -136.1 10.1 -132.6 L10.45 -132.8 Q13.9 -134.6 15.45 -137.8 17.25 -134.15 14.85 -130.75 L11.0 -125.8 Q12.65 -124.35 12.55 -122.0 12.45 -120.5 13.05 -119.1 15.9 -119.7 18.45 -121.9 20.85 -124.05 23.75 -124.65 22.55 -121.7 20.9 -118.8 19.7 -116.7 18.95 -114.35 22.2 -115.4 25.25 -117.85 L26.05 -117.95 Q26.15 -116.2 25.4 -114.5 24.75 -113.15 25.15 -111.65 L29.55 -111.45 Q31.75 -109.0 29.7 -106.75 28.3 -105.1 26.35 -105.35 L26.35 -104.85 26.35 -104.25 26.45 -104.05 31.1 -106.05 36.85 -106.2 37.0 -105.75 Q36.8 -99.55 30.8 -97.15 29.7 -96.7 29.0 -95.9 31.25 -92.05 27.15 -91.65 23.25 -91.25 22.55 -87.1 25.6 -85.4 23.0 -82.2 21.75 -80.6 21.2 -78.6 20.3 -75.0 18.2 -71.95 18.95 -70.95 18.55 -69.55 18.2 -68.5 18.2 -67.35 21.65 -64.0 18.15 -59.65 15.65 -56.6 13.55 -53.25 10.55 -48.45 6.1 -45.45 5.95 -45.35 5.7 -45.55 -3.05 -52.6 -4.5 -64.0 L-6.25 -77.05 -6.4 -78.1 -7.2 -82.3 -7.4 -84.5 -7.4 -91.7 -7.3 -92.8 Q-6.2 -97.3 -5.9 -102.1 L-5.6 -102.8 Q-3.5 -105.05 -3.95 -107.8 L-0.65 -109.05 Q-0.5 -109.65 -0.8 -110.2 -1.15 -110.75 -1.15 -111.45 -2.15 -112.55 -1.85 -114.3 L-2.8 -115.95 Q-7.45 -125.45 -14.55 -132.95 -16.1 -134.55 -13.75 -134.35 -12.85 -134.25 -12.15 -133.8 -10.4 -132.65 -8.75 -134.3 L-6.95 -135.3 Q-4.7 -135.55 -3.85 -133.7 -3.2 -132.2 -3.95 -130.7 -5.0 -130.25 -5.5 -131.1 -6.1 -132.2 -7.15 -132.4 -9.05 -128.4 -6.6 -124.4 -4.35 -120.75 -1.5 -117.6 -1.65 -118.55 -2.15 -119.45 L-5.6 -126.1 Q-6.4 -127.75 -5.55 -129.3 -3.0 -125.95 0.95 -124.0 2.4 -123.3 3.6 -124.6 6.55 -127.9 9.05 -131.55 L9.2 -131.75 Q8.95 -133.2 8.85 -134.85 L8.5 -141.3 8.05 -145.75 Q7.75 -148.15 5.45 -149.6 4.65 -150.15 5.15 -151.1 5.75 -152.2 7.1 -152.4 M-14.95 -125.0 Q-11.4 -123.0 -9.7 -119.0 -6.85 -112.3 -6.45 -104.85 -6.35 -102.65 -7.1 -100.95 -6.6 -107.5 -9.95 -113.05 L-13.85 -119.0 Q-15.35 -121.1 -15.6 -123.65 -15.7 -124.55 -14.95 -125.0 M-14.5 -113.65 L-16.0 -112.35 Q-16.2 -112.15 -16.45 -112.2 -16.55 -113.05 -15.75 -113.5 L-14.1 -114.45 Q-13.85 -114.1 -14.5 -113.65 M-11.25 -107.95 L-11.6 -108.05 -11.6 -108.25 -11.35 -108.6 -11.2 -108.6 -11.1 -108.55 -11.05 -108.45 -11.1 -108.2 -11.05 -108.05 -11.25 -107.95 M-20.3 -74.45 Q-19.5 -75.1 -18.5 -75.25 -15.4 -75.2 -13.05 -73.05 -11.05 -71.2 -10.55 -68.8 L-10.5 -68.75 -10.3 -68.4 -10.0 -67.9 Q-9.8 -67.7 -9.9 -67.45 -11.15 -68.35 -12.05 -70.1 -13.6 -73.25 -17.45 -71.95 -20.7 -70.85 -20.75 -73.5 -20.75 -74.1 -20.3 -74.45" fill="#aa0909" fill-rule="evenodd" stroke="none"/>
    <path d="M7.7 -150.95 Q10.55 -151.1 10.7 -148.4 L11.0 -144.9 11.05 -144.75 Q10.2 -143.5 10.0 -141.95 9.75 -139.75 9.95 -137.5 9.95 -137.0 9.6 -136.75 L9.4 -136.95 9.35 -137.85 9.35 -139.1 9.3 -139.15 Q8.75 -139.3 8.95 -139.95 L9.2 -142.05 9.35 -143.4 Q8.5 -144.45 8.75 -145.9 9.25 -148.85 5.9 -148.95 L5.85 -149.3 Q5.9 -149.95 6.55 -150.45 7.1 -150.8 7.7 -150.95 M14.6 -135.85 L14.75 -135.8 Q15.45 -131.9 12.05 -129.45 8.4 -126.85 6.5 -122.9 6.15 -122.2 6.55 -121.55 7.8 -119.55 5.35 -118.3 L4.3 -117.4 Q3.4 -116.15 1.8 -115.35 0.45 -114.7 0.7 -113.2 L0.5 -112.35 0.3 -112.45 Q0.1 -112.6 0.15 -112.85 L0.05 -113.0 0.05 -112.9 -0.1 -112.8 Q-0.35 -112.7 -0.45 -112.95 0.55 -116.15 -0.95 -119.45 L-3.8 -124.95 -4.2 -125.9 Q-2.8 -125.2 -1.6 -123.35 0.15 -120.65 3.5 -122.45 7.15 -124.4 7.65 -128.15 7.8 -128.95 8.5 -129.45 12.2 -132.1 14.2 -135.85 L14.6 -135.85 M9.4 -123.75 Q10.95 -121.85 11.65 -119.15 12.2 -116.95 11.35 -114.85 15.15 -116.35 17.65 -119.9 L19.05 -121.25 Q20.0 -121.85 20.85 -121.65 L21.2 -121.85 Q21.45 -121.0 20.05 -120.45 L19.55 -119.9 18.55 -117.35 17.65 -116.05 Q16.15 -114.55 15.6 -112.55 L16.25 -111.9 16.8 -111.55 17.1 -111.4 Q20.25 -112.4 22.8 -114.5 23.65 -115.15 24.5 -114.85 L24.05 -112.75 23.2 -109.9 23.15 -109.35 Q24.95 -109.35 26.8 -110.35 L28.0 -110.2 28.05 -110.0 28.05 -109.7 28.0 -109.55 Q29.9 -109.2 29.2 -107.35 28.95 -106.75 28.4 -106.4 27.5 -105.85 26.7 -106.25 L26.65 -107.3 26.7 -108.3 26.55 -109.05 Q24.7 -108.45 22.85 -107.0 22.1 -106.4 22.45 -105.7 22.85 -104.8 24.0 -104.75 L24.55 -104.45 Q24.1 -101.85 22.5 -100.2 21.85 -99.55 20.95 -99.35 18.2 -98.7 20.15 -97.0 L21.1 -96.85 Q23.05 -97.25 24.35 -98.95 25.15 -99.95 26.55 -100.2 L28.35 -99.95 Q30.25 -100.5 32.2 -101.4 34.45 -102.45 34.3 -104.65 34.3 -105.05 34.65 -105.15 36.95 -104.75 35.3 -103.0 32.65 -100.3 28.95 -99.4 29.1 -98.95 28.1 -98.6 25.2 -97.4 22.4 -95.85 23.6 -94.15 26.35 -94.35 27.55 -94.45 28.4 -93.55 L28.85 -93.15 28.85 -93.0 28.85 -92.75 28.85 -92.6 28.85 -92.55 Q25.95 -91.65 23.4 -93.75 21.7 -95.15 20.0 -93.8 L19.1 -92.9 18.65 -92.2 20.1 -92.1 20.2 -92.0 Q20.05 -89.75 21.45 -87.95 21.7 -87.6 21.45 -87.2 20.4 -85.65 19.0 -84.35 19.0 -80.75 17.65 -77.55 L15.05 -71.5 14.2 -69.2 15.45 -70.1 Q16.15 -70.75 16.9 -70.6 L16.6 -68.25 Q16.3 -66.6 16.95 -65.1 L17.25 -64.45 19.2 -64.5 19.25 -64.45 Q15.75 -59.55 13.2 -54.0 11.35 -50.05 8.7 -47.2 L7.55 -45.95 Q6.8 -45.55 6.75 -45.95 L7.3 -46.2 6.0 -46.1 6.55 -45.5 Q5.15 -45.65 4.25 -47.15 0.75 -52.85 -1.75 -59.0 L-2.2 -60.95 Q-3.0 -68.0 -4.7 -74.8 -4.85 -75.35 -4.05 -76.0 L-4.05 -77.2 Q-3.9 -79.1 -4.6 -80.65 L-5.65 -81.45 Q-6.7 -82.45 -6.3 -83.25 L-6.1 -83.0 -6.0 -83.65 Q-4.15 -87.0 -5.8 -90.2 -6.15 -90.8 -5.7 -91.3 -3.55 -94.0 -4.35 -97.05 -4.75 -98.45 -4.65 -99.9 L-4.4 -101.6 Q-4.0 -103.5 -2.0 -104.25 L-2.05 -105.0 -2.05 -105.95 -2.05 -106.2 1.3 -107.8 1.75 -108.35 Q-0.75 -110.2 2.15 -111.95 L4.9 -113.45 Q5.65 -113.85 6.5 -113.95 8.05 -116.2 8.05 -119.1 8.05 -121.8 9.4 -123.75 M-6.15 -134.3 L-6.0 -134.35 -5.8 -134.2 Q-4.8 -133.95 -4.35 -132.8 -3.75 -130.95 -5.55 -130.9 L-6.65 -132.85 Q-6.85 -133.55 -7.6 -133.15 -9.05 -132.4 -9.6 -130.85 -10.05 -131.2 -9.75 -131.8 -9.05 -133.3 -7.6 -134.1 L-7.2 -134.25 -6.15 -134.3 M-5.45 -131.6 L-5.45 -131.65 -5.5 -131.65 -5.45 -131.6 M-14.5 -134.15 Q-12.95 -133.85 -11.85 -132.55 L-10.35 -130.45 Q-11.1 -130.15 -11.55 -131.05 L-11.8 -131.45 Q-12.05 -131.45 -12.4 -131.7 L-12.95 -132.15 Q-13.75 -131.65 -14.5 -132.35 -15.0 -132.85 -14.9 -133.6 L-14.85 -133.9 -14.75 -133.95 -14.65 -134.1 -14.6 -134.1 -14.5 -134.15 M-14.6 -124.95 Q-12.95 -123.2 -11.7 -121.15 -10.7 -119.45 -10.35 -117.65 L-9.9 -116.7 Q-8.75 -114.45 -8.1 -112.15 -9.05 -112.8 -9.85 -114.35 -11.1 -116.85 -12.8 -119.15 L-14.4 -120.85 Q-15.7 -122.25 -15.55 -124.2 L-15.3 -124.35 -14.85 -124.45 -14.85 -124.7 -14.75 -124.9 -14.6 -124.95 M-15.25 -73.6 L-15.15 -73.4 Q-16.7 -73.6 -18.0 -72.55 -20.15 -70.8 -20.5 -73.1 -20.55 -73.6 -20.05 -73.95 L-18.9 -74.45 -17.25 -74.45 Q-16.1 -74.25 -15.25 -73.6" fill="#fdc43e" fill-rule="evenodd" stroke="none"/>
    <path d="M7.15 -150.2 L7.35 -150.3 Q9.95 -150.7 10.4 -148.4 10.7 -146.65 10.1 -145.0 L10.1 -144.9 10.2 -144.8 10.25 -144.7 10.3 -144.5 10.3 -144.3 10.2 -144.2 10.0 -144.05 9.25 -144.15 Q9.05 -144.45 9.2 -144.8 9.7 -146.05 9.2 -147.25 L8.65 -148.75 8.55 -148.8 6.4 -149.05 6.3 -149.1 6.3 -149.2 6.35 -149.55 7.15 -150.2 M14.1 -135.2 Q15.05 -132.4 12.35 -130.15 L10.15 -128.6 Q9.1 -128.0 8.45 -127.1 8.15 -126.95 7.8 -127.1 7.4 -127.25 7.35 -127.65 9.2 -129.65 11.7 -131.4 12.6 -132.05 12.95 -133.15 13.3 -134.45 14.1 -135.2 M1.1 -120.65 Q3.4 -120.5 5.5 -121.4 L5.85 -121.45 6.45 -121.1 6.7 -120.55 5.25 -118.9 Q4.6 -118.2 4.35 -117.3 3.3 -117.5 2.65 -118.7 2.2 -119.65 1.25 -120.25 1.1 -120.4 1.1 -120.65 M9.6 -123.15 Q10.3 -121.1 10.3 -118.45 L10.25 -114.45 Q8.7 -113.65 7.15 -114.2 8.4 -116.5 8.55 -119.25 8.7 -121.5 9.6 -123.15 M22.65 -112.5 Q21.4 -110.8 21.2 -108.7 20.8 -104.55 17.85 -101.35 L16.25 -99.45 Q19.85 -95.5 15.45 -91.6 12.0 -88.5 10.1 -84.55 L17.45 -89.15 18.9 -89.05 Q15.95 -84.65 15.35 -79.35 L15.15 -77.65 Q14.35 -70.95 10.25 -65.5 9.2 -64.15 9.6 -62.35 L9.7 -61.25 Q11.9 -62.25 13.15 -64.45 13.95 -65.85 15.15 -65.55 14.7 -59.45 11.4 -54.1 10.1 -51.9 10.35 -49.7 L10.25 -49.1 Q9.15 -46.55 7.1 -45.7 L7.25 -45.3 Q6.95 -45.4 6.7 -45.6 L6.55 -45.55 6.45 -45.75 Q5.4 -46.55 4.6 -48.15 L0.55 -56.65 Q-0.25 -58.4 -0.15 -60.3 0.0 -62.7 -1.2 -64.85 L-1.65 -65.9 Q-2.65 -68.7 -2.5 -71.25 L-2.95 -72.85 Q-3.55 -77.1 -1.85 -81.2 -1.05 -83.15 -2.3 -84.85 -3.85 -87.0 -4.25 -89.4 L-3.85 -90.2 Q-0.1 -93.3 -2.0 -97.9 -2.9 -100.0 -1.95 -101.55 L-1.6 -101.65 Q0.6 -101.2 2.1 -102.25 1.95 -102.95 1.4 -103.5 0.85 -104.05 0.6 -104.65 L4.4 -105.85 Q5.15 -106.15 5.4 -106.95 6.15 -109.95 8.2 -112.3 8.45 -112.55 8.75 -112.55 9.7 -111.25 10.0 -109.35 10.25 -107.85 11.0 -106.5 L12.2 -106.4 Q12.95 -107.25 14.45 -107.9 15.95 -108.55 17.25 -109.55 L22.15 -112.75 22.45 -112.65 22.65 -112.5 M27.8 -109.05 L27.9 -109.1 28.15 -109.2 28.45 -109.1 28.65 -108.95 28.7 -108.7 Q28.65 -108.4 28.85 -108.2 L28.95 -108.05 Q28.95 -107.25 28.4 -106.75 L27.05 -106.8 Q26.85 -107.4 27.35 -107.85 27.85 -108.3 27.7 -108.95 L27.8 -109.05 M25.1 -94.45 L25.25 -94.45 25.45 -94.4 25.65 -94.45 26.7 -94.2 27.05 -93.85 27.35 -93.75 Q28.6 -93.25 28.25 -92.2 27.4 -92.15 26.45 -92.7 25.45 -93.25 24.75 -93.95 L24.8 -94.15 24.95 -94.35 25.1 -94.45 M24.9 -99.1 L26.0 -99.6 26.0 -99.65 26.25 -99.6 26.55 -99.45 27.5 -99.7 Q27.85 -99.75 28.05 -99.45 28.2 -99.15 27.95 -98.9 L26.05 -98.25 25.75 -98.05 25.25 -97.8 25.05 -97.7 Q24.4 -97.3 24.0 -97.9 L24.3 -98.35 24.9 -99.1 M35.4 -103.1 Q34.75 -103.2 34.5 -103.9 34.25 -104.7 34.95 -104.95 35.55 -104.7 35.65 -104.05 35.75 -103.5 35.4 -103.1 M12.25 -113.3 L12.35 -113.4 11.8 -113.65 Q11.5 -113.7 11.55 -113.95 14.15 -115.0 16.05 -117.6 16.95 -118.85 18.1 -119.7 18.65 -118.45 17.0 -116.8 L13.1 -112.5 Q12.65 -111.9 12.05 -112.0 11.65 -112.25 11.8 -112.65 L12.25 -113.3 M-5.05 -131.35 Q-5.55 -131.2 -5.8 -131.7 L-6.15 -132.55 -6.05 -132.75 -5.8 -132.95 -5.65 -133.0 Q-5.1 -132.8 -4.85 -132.3 -4.55 -131.75 -5.05 -131.35 M-13.3 -132.3 Q-14.25 -132.0 -14.4 -132.95 -14.5 -133.4 -14.0 -133.5 L-13.3 -133.0 Q-13.1 -132.65 -13.3 -132.3 M-14.95 -124.3 L-14.85 -124.4 -14.5 -124.55 -12.15 -120.7 Q-10.9 -118.9 -11.15 -117.1 -12.7 -118.7 -14.3 -121.0 -15.35 -122.55 -14.95 -124.3 M-18.5 -73.9 L-18.4 -73.2 Q-18.45 -72.7 -18.85 -72.5 L-19.0 -72.45 Q-19.55 -72.55 -19.55 -73.05 L-19.4 -73.9 -19.3 -74.0 -19.2 -74.05 -19.0 -74.1 -19.0 -74.15 -18.7 -74.05 -18.5 -73.9" fill="#fefd9a" fill-rule="evenodd" stroke="none"/>
    <path d="M4.65 -96.1 Q4.6 -94.15 5.15 -92.25 L5.5 -90.95 Q6.75 -94.9 6.8 -99.1 6.85 -101.1 7.75 -102.45 L8.1 -102.7 Q10.05 -101.45 9.6 -98.7 9.1 -95.9 8.2 -93.2 L4.55 -81.95 Q2.65 -75.55 3.55 -69.05 L3.6 -69.3 Q4.3 -73.0 6.3 -75.85 L6.5 -76.0 Q8.3 -74.65 7.1 -71.95 5.25 -67.95 6.1 -63.75 6.25 -63.0 5.85 -62.25 L5.35 -61.5 6.75 -55.1 Q7.5 -56.7 9.1 -57.85 11.05 -56.55 9.15 -54.25 8.6 -53.55 8.65 -52.6 8.85 -50.25 7.65 -50.0 L7.8 -48.85 Q8.2 -46.15 6.2 -45.2 5.65 -44.95 5.6 -45.55 5.45 -51.3 3.8 -56.75 1.3 -65.05 1.2 -73.8 1.05 -80.85 4.05 -87.35 3.4 -88.25 3.15 -89.5 L1.85 -97.3 Q1.6 -99.2 3.1 -99.75 4.7 -98.55 4.65 -96.1" fill="#ffffff" fill-rule="evenodd" stroke="none"/>
  </g>
</svg>
