<?xml version="1.0" encoding="UTF-8" standalone="no"?>
<svg xmlns:ffdec="https://www.free-decompiler.com/flash" xmlns:xlink="http://www.w3.org/1999/xlink" ffdec:objectType="shape" height="105.75px" width="57.0px" xmlns="http://www.w3.org/2000/svg">
  <g transform="matrix(1.0, 0.0, 0.0, 1.0, 20.55, 151.4)">
    <path d="M3.85 -149.55 Q4.9 -151.05 6.7 -151.4 13.0 -151.5 11.8 -145.8 L9.5 -134.85 Q8.95 -136.1 8.75 -137.8 8.3 -140.8 8.4 -144.0 L8.3 -146.2 Q5.45 -146.6 3.9 -148.45 3.45 -148.95 3.85 -149.55 M12.8 -138.85 Q12.85 -139.85 13.8 -140.1 16.2 -138.15 15.8 -134.55 15.35 -130.75 12.9 -127.7 12.15 -126.8 12.2 -125.5 12.25 -121.9 13.2 -118.55 15.7 -121.1 18.9 -123.15 20.5 -124.2 22.2 -124.05 22.35 -123.4 21.75 -123.0 21.05 -122.5 20.75 -121.65 22.75 -121.3 22.95 -119.15 L23.05 -116.65 23.25 -116.45 23.45 -115.95 23.65 -115.65 23.8 -115.55 24.85 -115.25 Q25.0 -114.5 24.75 -113.7 24.45 -112.85 24.5 -111.85 L24.5 -111.45 Q27.05 -111.35 28.95 -110.05 29.75 -109.5 29.7 -108.25 29.55 -103.95 24.9 -103.9 L24.0 -103.35 Q23.75 -102.9 23.9 -102.4 26.1 -102.65 28.25 -104.15 32.25 -106.9 36.35 -105.25 L36.45 -104.85 Q35.75 -99.7 30.45 -97.95 28.65 -97.4 27.45 -95.9 31.25 -94.8 29.6 -91.55 L26.6 -91.5 Q24.5 -90.8 23.35 -88.55 22.75 -87.25 21.95 -86.55 L21.25 -85.85 Q22.05 -86.1 22.85 -86.8 L23.6 -86.85 Q22.25 -83.95 21.95 -80.65 21.55 -76.7 20.8 -72.95 L20.75 -72.55 23.05 -73.4 Q23.55 -73.55 23.8 -73.15 22.6 -70.4 20.8 -67.85 18.95 -65.25 18.45 -62.15 20.45 -62.8 22.1 -64.85 22.75 -65.65 23.5 -65.85 22.05 -58.35 17.25 -51.85 12.95 -46.05 6.1 -45.95 5.75 -45.9 5.8 -46.25 L6.9 -46.4 Q4.9 -47.15 3.2 -49.45 0.35 -53.35 -2.15 -57.35 -2.7 -58.25 -2.85 -59.15 L-5.55 -63.4 Q-6.3 -64.65 -5.85 -65.4 L-5.55 -64.9 -2.95 -63.4 -3.0 -64.8 Q-3.1 -66.35 -3.9 -67.7 -5.2 -69.8 -4.2 -72.1 -6.0 -77.1 -6.3 -82.3 L-6.75 -90.75 Q-6.85 -93.3 -6.3 -95.8 -5.6 -99.2 -5.25 -102.6 L-4.9 -103.65 Q-3.55 -105.8 -2.55 -107.95 L-2.0 -108.4 Q-1.25 -108.7 -0.6 -109.15 -1.65 -114.3 -4.1 -118.85 -5.05 -120.65 -5.05 -121.7 L-4.65 -121.25 -4.65 -121.5 Q-3.05 -119.5 -1.75 -117.3 L-1.95 -119.2 Q-2.05 -121.55 -3.25 -123.6 L-4.4 -125.9 Q-4.95 -127.2 -4.85 -128.4 -3.65 -127.15 -2.3 -125.1 -0.15 -121.95 3.3 -124.45 6.2 -126.6 8.5 -129.65 10.25 -132.0 11.6 -134.55 12.65 -136.55 12.8 -138.85 M-6.2 -132.5 Q-8.7 -134.0 -8.7 -131.15 -8.7 -129.45 -7.9 -128.0 -6.9 -126.25 -6.85 -124.4 -8.4 -125.95 -9.7 -128.25 -11.45 -131.4 -14.85 -132.5 -15.95 -132.85 -15.7 -134.05 L-15.7 -134.1 Q-15.45 -134.35 -15.2 -134.4 L-14.55 -134.6 Q-12.4 -133.8 -10.25 -133.25 -9.85 -133.2 -9.5 -133.45 -5.75 -136.2 -4.05 -132.15 -3.8 -131.6 -3.85 -130.95 -4.45 -130.25 -5.25 -130.5 -6.0 -130.8 -6.15 -131.6 L-6.2 -132.4 -6.2 -132.5 M-10.45 -118.7 Q-8.4 -115.05 -8.0 -111.15 L-14.35 -121.2 Q-17.0 -125.2 -13.2 -127.8 -11.85 -126.05 -11.7 -123.25 -11.6 -120.85 -10.45 -118.7 M-15.9 -113.35 L-15.25 -113.75 Q-15.0 -113.4 -15.45 -113.0 -15.75 -112.75 -16.1 -112.65 -16.2 -113.0 -15.9 -113.35 M-17.7 -75.55 Q-15.9 -75.5 -14.4 -74.4 L-12.15 -72.3 -12.15 -72.15 -12.2 -72.1 -12.3 -71.85 -12.5 -71.65 Q-15.0 -74.85 -18.6 -72.65 -20.55 -71.45 -20.55 -73.3 -20.55 -75.0 -18.7 -75.25 L-17.7 -75.55" fill="#aa0909" fill-rule="evenodd" stroke="none"/>
    <path d="M4.9 -149.4 L7.8 -150.55 Q11.3 -150.3 10.65 -146.8 L10.05 -142.6 9.7 -139.95 9.6 -140.0 Q9.25 -140.15 9.3 -140.6 L9.45 -141.45 9.4 -141.65 Q9.05 -142.2 9.2 -143.15 L9.5 -146.3 9.65 -147.4 5.1 -147.85 4.3 -148.15 Q4.0 -148.45 4.05 -148.85 L4.9 -149.4 M14.4 -138.8 L14.55 -138.45 14.65 -137.85 14.75 -137.45 14.8 -137.45 14.9 -137.45 15.0 -137.4 15.1 -137.3 15.15 -136.65 15.1 -135.6 15.05 -135.2 15.2 -135.1 15.35 -134.95 15.35 -134.85 14.95 -134.0 14.55 -132.8 14.5 -132.6 14.4 -132.6 14.3 -132.55 14.05 -132.5 Q12.65 -130.3 10.25 -128.75 11.75 -126.15 11.6 -122.95 11.55 -121.25 10.55 -120.25 10.15 -119.35 10.2 -118.3 10.3 -115.75 11.85 -114.0 L14.2 -116.15 Q14.9 -116.85 15.25 -117.7 L15.4 -118.1 18.2 -122.0 Q18.7 -122.6 19.0 -121.85 19.6 -120.5 18.45 -119.25 19.35 -119.8 20.15 -120.45 20.6 -120.85 21.15 -120.9 L21.25 -120.65 21.15 -120.35 21.15 -120.3 22.55 -113.55 22.5 -113.15 Q21.9 -111.7 21.6 -110.25 L21.95 -109.95 22.75 -109.35 26.0 -109.95 27.8 -109.85 28.5 -109.55 Q28.75 -107.8 28.6 -106.1 28.55 -105.55 27.9 -105.55 25.65 -105.5 26.8 -107.5 L27.45 -109.0 Q24.1 -109.5 21.85 -107.0 L20.8 -105.5 Q20.75 -103.15 19.65 -101.05 L18.95 -99.7 Q20.45 -100.05 22.05 -99.15 22.65 -98.8 22.7 -98.1 L23.4 -98.25 Q25.05 -98.65 26.5 -99.7 L27.35 -100.2 28.9 -100.75 Q31.55 -100.6 29.95 -98.9 29.55 -98.4 28.85 -98.5 25.75 -98.8 23.55 -97.15 L22.6 -96.1 22.5 -95.55 22.65 -95.45 23.2 -95.45 23.45 -95.15 23.45 -95.1 Q26.15 -94.0 28.9 -93.25 29.5 -93.1 29.65 -92.45 30.05 -90.05 27.45 -91.4 L26.2 -92.4 Q24.35 -94.4 22.15 -94.2 L21.75 -93.15 Q21.6 -92.8 22.0 -92.5 L22.75 -91.85 Q21.25 -89.05 20.5 -86.0 20.25 -85.0 19.55 -84.2 L17.5 -81.4 Q18.1 -81.6 18.9 -82.1 19.4 -82.45 19.95 -82.4 L19.3 -75.6 Q19.15 -74.05 18.55 -72.55 17.9 -70.95 17.55 -69.2 L19.35 -69.25 19.65 -69.05 Q18.0 -65.75 16.5 -62.2 L14.45 -58.1 Q14.05 -57.4 14.05 -56.6 16.5 -57.05 18.85 -59.0 19.35 -59.45 19.95 -59.4 17.9 -53.1 12.4 -48.8 L9.15 -46.7 Q7.6 -45.9 6.2 -46.3 L6.65 -46.0 Q3.25 -47.0 1.7 -50.45 L1.5 -51.2 1.5 -51.6 0.6 -53.9 Q-0.3 -56.05 -1.55 -57.95 -2.6 -59.5 -3.1 -61.2 -3.2 -61.5 -2.9 -61.55 -0.9 -61.3 1.0 -60.55 1.2 -60.5 1.35 -60.4 L-1.45 -65.7 -2.5 -67.45 Q-3.8 -69.15 -1.9 -70.8 -1.35 -71.3 -1.85 -71.95 -4.1 -75.3 -4.9 -78.95 L-4.75 -79.7 Q-3.35 -82.5 -4.95 -85.3 -5.2 -85.8 -4.95 -86.35 -3.3 -89.4 -4.8 -92.8 -6.35 -96.25 -3.3 -98.95 -2.35 -99.75 -2.55 -101.0 -2.9 -103.2 -3.55 -105.05 L-3.4 -105.65 Q-2.1 -106.75 -0.45 -107.15 -1.1 -109.3 1.15 -109.85 L2.95 -110.35 3.1 -111.7 3.15 -113.0 Q6.45 -112.65 6.5 -115.45 L6.7 -119.0 5.2 -118.45 Q3.4 -117.95 2.1 -116.7 L0.8 -115.8 Q0.7 -115.75 0.75 -115.5 L0.7 -115.45 0.6 -115.4 0.35 -115.4 0.2 -115.7 0.0 -115.95 -0.15 -116.0 -0.25 -116.25 -0.1 -116.4 0.05 -116.45 -0.2 -118.65 Q-0.45 -119.95 -1.3 -120.95 -2.4 -122.2 -2.2 -123.15 -0.45 -120.75 2.05 -122.0 L2.75 -122.25 4.6 -123.2 Q6.3 -124.2 7.3 -125.85 L7.35 -125.9 7.2 -126.1 7.15 -126.2 Q9.45 -130.1 12.25 -133.55 12.75 -134.1 12.75 -134.9 12.75 -137.35 13.5 -139.25 L14.05 -139.1 14.4 -138.8 M8.6 -127.0 Q7.15 -123.5 3.95 -122.2 L4.95 -121.75 6.8 -120.7 7.1 -120.5 Q8.35 -122.5 8.4 -124.85 8.45 -126.2 8.8 -127.35 L8.6 -127.0 M32.2 -100.95 Q32.05 -100.9 32.0 -101.05 L33.4 -102.1 Q34.25 -102.7 34.55 -103.7 L34.55 -103.8 Q34.0 -104.05 34.0 -104.55 34.0 -104.95 34.35 -105.1 36.5 -105.0 35.25 -103.25 34.05 -101.6 32.2 -100.95 M-7.2 -134.35 Q-5.35 -134.15 -4.75 -133.35 L-4.75 -133.4 Q-4.05 -133.1 -4.1 -132.05 -4.15 -131.2 -4.7 -130.6 -6.3 -130.6 -6.1 -132.5 L-6.05 -132.65 -6.15 -132.9 Q-6.4 -133.95 -7.4 -133.6 -7.75 -133.5 -7.75 -133.8 L-7.75 -133.95 -7.75 -134.05 -7.5 -134.25 -7.2 -134.35 M-13.55 -132.8 L-13.55 -132.65 -13.55 -132.55 -13.6 -132.3 -13.6 -132.2 Q-14.1 -132.05 -14.55 -132.4 L-15.15 -133.4 Q-15.25 -133.9 -14.9 -134.05 -13.95 -133.95 -13.15 -133.4 L-12.05 -132.4 Q-12.2 -132.2 -12.4 -132.3 L-13.2 -132.7 -13.55 -132.9 -13.55 -132.8 M-13.1 -127.2 L-13.0 -127.1 Q-13.5 -124.2 -12.3 -121.45 -11.25 -118.95 -10.95 -116.4 -13.25 -119.4 -14.95 -123.0 -15.6 -124.45 -14.95 -126.0 -14.6 -126.85 -13.7 -127.25 L-13.45 -127.25 -13.1 -127.2 M-17.55 -74.45 L-17.55 -74.3 Q-17.5 -74.15 -17.6 -74.05 L-17.65 -74.05 -17.3 -73.75 -17.25 -73.6 -18.55 -72.85 Q-19.2 -72.4 -19.95 -72.5 -20.4 -73.1 -19.95 -73.65 L-18.4 -74.6 -18.2 -74.65 -17.8 -74.6 -17.6 -74.5 -17.55 -74.45" fill="#fdc43e" fill-rule="evenodd" stroke="none"/>
    <path d="M8.7 -149.5 Q9.75 -149.05 9.4 -148.15 9.0 -147.85 8.65 -148.25 L8.6 -148.35 8.2 -148.25 6.0 -147.95 5.8 -147.8 5.5 -147.6 Q5.2 -147.55 5.0 -147.75 L4.65 -148.15 Q4.5 -148.4 4.6 -148.7 L4.65 -148.8 4.8 -148.85 5.2 -148.85 5.35 -148.85 5.5 -148.9 5.8 -149.2 5.95 -149.4 Q6.2 -149.75 6.6 -149.9 L6.75 -149.95 8.7 -149.5 M13.4 -138.65 L13.6 -138.7 Q15.8 -136.35 14.25 -133.25 13.15 -131.0 11.0 -130.4 10.85 -130.35 10.8 -130.55 L10.85 -130.8 11.3 -131.3 11.45 -131.35 11.5 -131.4 11.4 -131.6 11.35 -131.9 Q13.2 -133.1 13.15 -135.3 13.1 -136.9 13.2 -138.5 L13.3 -138.6 13.4 -138.65 M10.0 -128.45 Q10.75 -126.15 10.9 -123.25 10.95 -121.85 10.3 -120.75 9.75 -119.8 8.9 -120.55 L8.9 -120.7 8.85 -121.1 8.85 -121.4 8.3 -121.05 Q7.9 -120.85 7.65 -121.2 9.45 -123.0 9.2 -125.5 9.0 -127.35 10.0 -128.45 M2.75 -121.9 Q3.75 -121.1 5.0 -120.75 6.4 -120.4 7.05 -119.4 4.95 -118.55 2.65 -118.95 2.4 -119.3 2.55 -119.8 L2.65 -120.55 2.35 -121.2 Q2.25 -121.3 2.3 -121.45 L2.35 -121.65 2.55 -121.8 2.75 -121.85 2.75 -121.9 M7.8 -118.85 L7.9 -118.9 8.1 -118.95 Q9.15 -117.0 9.15 -114.2 9.15 -112.0 10.75 -110.7 14.55 -110.8 17.1 -114.2 L17.55 -114.65 19.0 -117.0 20.35 -119.8 20.5 -119.9 Q21.5 -117.7 20.7 -115.1 19.8 -109.35 17.15 -104.0 16.8 -103.3 16.85 -102.45 17.35 -97.45 12.9 -94.8 11.85 -94.2 10.95 -93.45 9.5 -92.25 8.85 -90.6 14.1 -92.4 18.05 -96.35 19.2 -97.55 20.45 -97.7 L16.3 -86.1 16.0 -84.4 Q15.6 -77.55 10.95 -72.5 9.65 -71.15 9.45 -69.3 12.05 -71.2 14.35 -73.65 L17.05 -75.9 Q16.75 -73.0 15.4 -69.95 13.4 -65.5 12.35 -60.8 L11.0 -55.3 Q10.7 -54.1 10.75 -52.85 13.1 -53.2 15.05 -55.05 16.1 -56.0 17.15 -55.7 14.3 -52.15 10.85 -48.7 8.75 -46.65 6.15 -46.2 L6.3 -46.5 Q5.95 -46.55 5.55 -46.75 L5.5 -46.7 5.45 -46.8 Q4.65 -47.2 5.05 -47.9 L4.4 -50.3 Q3.65 -53.45 2.2 -56.2 1.8 -57.05 1.85 -57.9 L1.95 -58.0 2.0 -58.05 2.1 -58.1 2.25 -58.1 2.25 -58.15 3.85 -57.9 3.65 -58.8 Q3.3 -60.95 2.15 -62.85 0.65 -65.55 -1.2 -67.7 L-1.05 -68.25 Q1.0 -70.6 -1.25 -73.2 L-2.3 -75.0 Q-4.6 -81.45 -2.2 -87.95 -1.8 -88.95 -2.3 -89.9 -3.95 -93.05 -3.75 -96.15 L-3.4 -96.6 Q1.1 -98.85 -0.9 -103.0 -1.35 -103.95 -1.95 -104.7 L-1.95 -104.8 -1.95 -104.9 -1.9 -105.05 -1.8 -105.25 Q0.25 -105.35 1.8 -105.95 L1.2 -107.2 Q0.7 -107.8 0.8 -108.6 6.95 -109.35 7.5 -115.1 L7.6 -117.8 7.7 -118.75 7.8 -118.85 M18.75 -122.15 Q19.2 -120.9 18.05 -119.0 17.05 -117.25 15.7 -115.75 14.6 -114.55 13.4 -114.8 13.45 -115.6 14.2 -116.1 L15.3 -116.85 15.3 -116.95 15.3 -117.15 15.35 -117.4 Q16.6 -118.5 17.05 -120.0 17.5 -121.45 18.75 -122.15 M27.2 -107.15 L27.25 -107.15 27.65 -107.35 27.65 -107.4 Q28.35 -107.15 28.1 -106.5 L28.0 -106.3 Q27.95 -105.8 27.55 -105.6 L27.4 -105.55 Q26.85 -105.65 26.85 -106.15 L27.0 -107.0 27.1 -107.1 27.2 -107.15 M26.0 -98.9 Q27.05 -100.15 29.35 -100.1 L29.65 -100.15 Q30.7 -98.9 28.45 -98.45 26.95 -98.15 26.0 -98.9 M34.4 -104.15 L34.2 -104.4 Q33.6 -104.35 34.3 -104.8 L34.5 -104.75 34.6 -104.8 35.1 -104.75 35.45 -104.5 35.5 -104.35 Q35.15 -103.75 34.4 -104.15 M29.1 -91.6 Q28.35 -91.25 27.9 -91.9 L26.5 -93.2 26.55 -93.3 26.6 -93.5 26.8 -93.65 27.0 -93.7 Q27.9 -93.65 28.6 -92.95 29.25 -92.35 29.1 -91.6 M-5.4 -131.1 L-5.5 -131.2 -5.65 -131.5 -5.65 -131.65 -5.55 -131.85 -5.3 -132.05 -5.15 -132.05 Q-4.65 -131.95 -4.75 -131.45 -4.85 -130.9 -5.4 -131.1 M-12.45 -121.2 L-12.5 -120.85 Q-12.6 -120.65 -12.85 -120.6 L-13.5 -120.4 Q-14.95 -121.8 -14.95 -124.0 -14.95 -125.8 -13.75 -126.75 L-13.25 -123.5 Q-13.15 -122.25 -12.45 -121.2" fill="#fefd9a" fill-rule="evenodd" stroke="none"/>
    <path d="M5.75 -107.75 Q7.45 -106.5 6.4 -103.85 L6.0 -102.05 6.3 -102.3 6.6 -102.45 Q8.55 -100.95 6.9 -98.25 5.35 -95.7 4.8 -92.75 3.5 -85.75 4.1 -78.75 5.65 -82.85 9.5 -85.1 11.75 -83.75 9.15 -82.15 8.15 -81.5 7.55 -80.5 5.65 -77.05 5.1 -73.45 L4.9 -73.25 5.7 -69.85 Q6.7 -66.2 7.15 -62.45 8.0 -64.1 9.6 -65.25 11.55 -63.9 9.55 -61.55 8.65 -60.5 8.7 -59.15 8.7 -57.65 7.6 -57.0 7.7 -52.05 6.95 -47.0 6.6 -44.5 5.35 -46.65 5.0 -47.2 5.1 -47.95 6.5 -59.6 3.45 -70.8 0.4 -82.15 2.65 -93.65 3.1 -95.9 3.85 -98.05 3.3 -99.25 3.4 -100.85 3.6 -103.55 4.25 -106.15 4.55 -107.45 5.75 -107.75" fill="#ffffff" fill-rule="evenodd" stroke="none"/>
  </g>
</svg>
