<?xml version="1.0" encoding="UTF-8" standalone="no"?>
<svg xmlns:ffdec="https://www.free-decompiler.com/flash" xmlns:xlink="http://www.w3.org/1999/xlink" ffdec:objectType="shape" height="105.3px" width="56.05px" xmlns="http://www.w3.org/2000/svg">
  <g transform="matrix(1.0, 0.0, 0.0, 1.0, 20.05, 151.15)">
    <path d="M10.8 -145.95 Q10.6 -143.5 10.05 -141.1 L9.5 -138.35 Q8.85 -138.45 8.8 -139.3 L8.55 -143.45 Q8.4 -144.95 7.85 -146.2 4.85 -145.7 2.7 -147.4 2.35 -147.65 2.4 -148.3 2.75 -150.65 5.0 -151.1 11.25 -151.75 10.8 -145.95 M14.55 -132.3 Q13.0 -129.4 15.95 -126.95 16.95 -126.1 17.55 -124.9 L18.6 -126.1 20.05 -127.7 20.25 -127.8 22.6 -122.55 Q23.5 -120.25 25.3 -118.45 26.05 -117.7 25.25 -116.65 L23.8 -114.25 25.7 -113.35 Q26.75 -112.95 26.5 -111.75 29.5 -111.5 29.5 -108.3 29.45 -105.9 28.45 -103.8 L26.75 -103.7 Q26.4 -104.1 26.3 -104.6 L26.2 -105.9 Q26.2 -106.45 25.8 -106.8 24.35 -104.95 23.9 -102.35 L23.1 -99.15 29.1 -101.65 32.45 -102.75 Q33.5 -103.0 34.5 -103.55 L34.35 -103.75 Q34.15 -104.0 34.2 -104.35 L34.25 -105.05 34.25 -105.15 34.35 -105.2 34.65 -105.4 Q37.35 -104.25 34.65 -102.5 33.65 -101.85 32.45 -101.5 31.85 -101.3 31.35 -100.9 30.3 -98.0 26.7 -97.65 25.1 -97.5 23.7 -96.7 26.75 -95.45 29.5 -93.4 30.8 -92.4 30.15 -90.85 26.15 -90.55 22.95 -93.35 L22.05 -93.25 19.3 -90.15 Q21.3 -88.65 20.9 -86.5 20.3 -83.4 21.0 -80.2 21.8 -76.35 19.55 -72.5 19.05 -71.7 18.9 -70.75 21.25 -70.4 23.0 -72.75 23.8 -73.9 24.95 -74.25 24.85 -72.4 23.8 -70.5 L22.5 -67.55 21.95 -65.4 Q18.5 -57.5 13.55 -50.35 10.45 -45.9 5.35 -46.45 L4.6 -46.55 5.05 -46.6 Q2.15 -48.4 -0.6 -51.0 -2.3 -52.6 -4.55 -53.15 -6.1 -53.55 -7.1 -54.2 -7.85 -54.4 -8.2 -55.15 L-8.1 -55.1 -8.0 -55.15 -7.3 -55.0 Q-3.65 -54.65 -2.55 -57.85 -1.9 -59.8 -3.05 -61.5 -4.5 -63.75 -5.1 -66.4 L-6.3 -71.55 Q-5.8 -71.7 -5.25 -71.2 L-4.5 -70.85 -4.5 -72.25 -4.55 -72.85 -4.7 -73.65 Q-4.75 -74.0 -5.15 -74.0 -5.95 -77.0 -8.25 -79.55 L-8.95 -80.6 Q-12.7 -88.3 -9.75 -96.05 -8.9 -98.15 -9.05 -100.5 -9.25 -104.4 -8.4 -108.15 -8.3 -108.55 -7.8 -108.8 -5.1 -110.15 -5.25 -113.15 -3.2 -113.65 -2.8 -115.75 -2.55 -117.0 -2.9 -118.25 -3.3 -119.55 -3.0 -120.85 L-2.0 -120.35 -1.45 -120.05 Q-0.7 -121.0 -1.1 -122.05 -1.45 -123.0 -2.3 -123.75 L-3.4 -125.15 0.85 -124.0 1.65 -124.1 Q3.6 -125.2 5.7 -125.8 L4.95 -126.0 Q4.0 -126.4 3.45 -127.1 6.95 -128.3 7.45 -131.7 7.8 -134.25 9.45 -136.2 9.95 -135.95 9.9 -135.35 9.85 -134.65 10.15 -134.1 L10.5 -133.2 Q12.5 -134.85 11.25 -137.0 9.4 -140.05 12.25 -141.4 17.75 -138.25 14.55 -132.3 M-7.45 -133.1 Q-9.95 -132.9 -9.15 -130.65 -9.0 -130.3 -9.25 -130.05 L-8.1 -127.65 Q-9.5 -128.15 -10.75 -129.9 -12.3 -132.1 -14.95 -132.9 L-15.0 -133.0 -15.0 -133.2 -15.0 -133.5 -15.0 -133.8 -15.0 -133.9 -14.9 -134.0 -14.65 -134.2 -14.55 -134.3 -14.4 -134.35 Q-11.7 -133.95 -10.25 -131.8 -10.05 -133.3 -8.5 -133.95 L-7.35 -134.35 Q-5.95 -134.65 -5.1 -133.85 -4.6 -133.5 -4.35 -132.85 -4.05 -132.15 -4.3 -131.45 L-4.35 -131.35 -4.45 -131.25 -4.6 -131.2 Q-5.95 -130.8 -6.7 -132.15 -7.0 -132.65 -6.95 -133.1 L-7.45 -133.1 M-10.9 -119.05 Q-10.0 -117.85 -9.55 -116.45 L-9.55 -116.35 -9.8 -116.0 -9.85 -115.85 -10.15 -115.65 Q-12.0 -118.0 -13.55 -120.7 -15.1 -123.45 -15.8 -126.4 L-15.45 -126.95 Q-14.6 -127.65 -13.55 -127.85 L-13.35 -127.9 Q-10.05 -127.6 -11.55 -125.1 -13.35 -122.2 -10.9 -119.05 M-15.55 -112.95 Q-15.7 -112.7 -15.95 -112.75 L-15.95 -113.15 Q-15.8 -113.35 -15.6 -113.35 -15.3 -113.25 -15.55 -112.95 M-19.8 -72.9 Q-20.35 -73.45 -19.65 -74.05 -18.85 -74.7 -17.8 -74.75 L-15.35 -74.55 Q-14.3 -74.25 -13.7 -73.45 L-16.55 -73.6 -18.85 -72.75 -19.8 -72.9" fill="#aa0909" fill-rule="evenodd" stroke="none"/>
    <path d="M8.2 -148.5 Q7.2 -147.95 6.1 -147.5 3.3 -146.3 3.1 -148.65 3.05 -149.55 4.0 -149.95 L5.0 -150.15 Q7.3 -150.8 9.0 -149.55 10.3 -148.55 10.35 -146.75 10.4 -144.55 9.6 -142.65 9.75 -145.2 9.2 -148.0 9.0 -148.95 8.2 -148.5 M11.7 -140.75 Q15.85 -139.75 14.45 -135.3 13.55 -132.45 11.65 -130.3 13.1 -127.95 14.85 -125.55 16.35 -123.4 16.95 -120.9 L18.6 -123.4 Q19.4 -124.5 20.45 -124.9 20.9 -122.4 21.7 -120.1 22.05 -119.0 22.75 -118.05 23.2 -117.5 23.0 -116.8 22.45 -114.4 21.05 -112.4 22.25 -110.7 24.55 -110.8 23.95 -109.0 22.3 -107.35 21.8 -106.85 21.9 -106.15 22.15 -104.4 21.9 -102.65 21.5 -99.85 20.55 -97.2 L24.55 -98.75 Q26.6 -99.45 28.5 -100.7 L29.7 -101.15 Q31.8 -100.75 29.8 -99.55 29.0 -99.1 28.1 -98.9 24.8 -98.1 21.7 -96.8 21.5 -96.25 20.2 -95.95 L20.05 -95.9 19.9 -95.5 Q24.05 -95.25 27.8 -93.35 28.8 -92.85 29.4 -92.1 30.3 -90.95 28.9 -90.8 27.35 -90.65 27.55 -91.8 L26.9 -92.35 25.65 -93.5 25.6 -93.5 Q22.75 -94.75 19.8 -95.3 18.2 -91.65 15.45 -88.45 14.1 -86.85 13.65 -84.95 L17.45 -86.0 Q18.05 -84.55 18.25 -82.85 L18.4 -80.95 Q18.65 -80.0 18.4 -78.85 18.15 -77.6 17.35 -77.1 17.0 -73.35 15.95 -69.65 L14.3 -63.5 14.35 -63.3 Q16.75 -63.45 18.35 -65.8 19.1 -66.95 20.25 -67.5 17.4 -59.85 13.95 -52.1 11.8 -47.4 7.05 -46.3 L6.85 -46.25 6.0 -46.35 Q3.9 -46.75 2.45 -48.8 L0.9 -50.8 Q-0.9 -53.1 -3.95 -53.75 -4.8 -54.0 -5.45 -54.5 -3.75 -55.2 -1.25 -55.25 0.5 -55.3 0.2 -57.1 -0.15 -59.3 -1.65 -61.15 -3.4 -63.4 -3.65 -66.35 L-4.1 -68.8 -2.0 -67.2 -1.0 -66.65 Q-1.15 -69.55 -2.6 -72.2 L-2.85 -73.1 Q-2.85 -75.45 -4.45 -77.15 -6.1 -78.85 -7.3 -80.9 -9.75 -84.85 -8.1 -89.35 L-7.8 -90.8 Q-7.65 -94.5 -6.9 -98.1 -6.5 -100.3 -6.4 -102.6 -6.35 -104.2 -4.8 -105.15 -1.65 -107.25 -3.25 -110.15 -2.45 -110.85 -1.25 -110.45 -1.7 -111.45 -1.75 -112.45 -1.85 -113.45 -1.3 -114.15 L-1.05 -113.9 0.9 -114.0 1.7 -114.5 Q4.15 -117.5 8.15 -118.4 8.8 -121.95 7.95 -125.35 L7.85 -126.15 7.85 -127.25 7.5 -127.05 Q6.6 -126.55 5.85 -126.75 L7.9 -128.0 Q8.05 -129.6 8.5 -131.1 8.65 -131.6 9.1 -131.75 L9.3 -131.75 9.45 -131.7 10.15 -129.85 Q11.55 -131.15 12.75 -132.75 13.15 -133.3 13.2 -134.05 13.4 -136.85 11.6 -139.2 10.85 -140.15 11.7 -140.75 M0.35 -121.3 L0.25 -121.75 1.4 -121.55 2.75 -121.35 3.0 -121.8 3.7 -122.5 4.0 -122.65 Q5.3 -122.25 5.95 -120.85 6.5 -119.7 5.75 -118.7 L1.65 -118.5 1.5 -118.8 Q1.2 -120.25 0.35 -121.3 M9.4 -119.85 L9.35 -119.55 9.4 -118.9 9.7 -119.2 Q11.65 -121.2 11.1 -124.2 10.9 -125.2 11.0 -126.2 L11.45 -130.05 10.35 -129.0 Q10.75 -126.65 10.0 -124.2 L9.45 -121.6 9.4 -119.85 M24.9 -109.5 L25.1 -109.6 25.55 -109.7 26.0 -109.85 Q28.65 -110.0 28.85 -107.7 28.95 -106.3 28.55 -105.0 L28.3 -104.5 28.1 -104.45 27.4 -104.4 27.25 -104.4 Q26.7 -104.75 26.85 -105.25 L27.3 -107.65 27.35 -108.45 26.7 -108.9 24.85 -109.2 24.85 -109.25 24.9 -109.5 M34.8 -104.85 Q36.3 -104.3 35.2 -102.95 34.45 -102.0 33.5 -102.1 L34.65 -103.05 35.25 -103.85 34.6 -103.95 34.4 -104.0 34.4 -104.05 34.4 -104.2 34.4 -104.35 34.4 -104.55 34.45 -104.6 34.65 -104.75 34.8 -104.85 M-4.7 -131.15 Q-6.0 -131.0 -5.8 -132.4 -5.7 -132.95 -5.75 -133.6 L-5.6 -133.75 Q-4.95 -133.3 -4.65 -132.55 -4.35 -131.8 -4.7 -131.15 M-13.4 -133.05 L-13.45 -133.0 -13.7 -132.85 -13.9 -132.55 -14.0 -132.5 Q-14.65 -132.3 -14.8 -132.95 L-14.8 -133.3 -14.75 -133.4 -14.65 -133.45 -14.6 -133.5 -14.5 -133.55 -13.8 -133.5 Q-13.3 -133.45 -13.4 -133.05 M-11.95 -125.75 Q-12.3 -124.75 -13.25 -124.25 L-13.45 -124.05 -12.95 -122.25 -12.1 -120.15 -12.05 -119.6 -12.1 -119.55 -12.3 -119.5 -12.7 -119.65 Q-13.05 -121.85 -14.35 -123.55 -16.25 -126.1 -12.9 -127.05 L-12.2 -127.0 -11.95 -126.9 Q-11.75 -126.35 -11.95 -125.75 M-18.45 -73.85 L-18.45 -73.75 Q-18.45 -73.5 -18.7 -73.4 L-19.15 -72.95 -19.2 -72.85 -19.4 -72.85 -19.85 -73.15 -19.55 -73.65 -18.9 -74.05 -18.7 -74.05 -18.45 -73.85" fill="#fdc43e" fill-rule="evenodd" stroke="none"/>
    <path d="M3.45 -149.2 L3.6 -149.25 3.75 -149.3 4.05 -149.2 4.5 -149.55 5.35 -149.25 5.75 -148.8 6.3 -149.1 Q7.0 -149.4 7.2 -148.75 6.35 -147.8 5.1 -147.6 3.75 -147.35 3.3 -148.75 L3.3 -149.0 3.4 -149.1 3.45 -149.2 M11.5 -140.05 Q11.35 -140.35 11.75 -140.4 13.5 -139.55 14.2 -137.75 14.9 -135.95 13.6 -135.25 L12.8 -137.4 11.5 -140.05 M10.1 -125.8 Q10.4 -124.35 9.35 -123.55 L9.05 -123.6 Q8.75 -123.7 8.75 -123.95 L8.75 -124.05 8.6 -124.05 Q8.3 -124.05 8.15 -124.3 8.55 -126.15 8.25 -128.05 7.9 -130.0 9.35 -131.15 9.95 -129.85 9.9 -127.95 9.85 -126.9 10.1 -125.8 M3.85 -122.15 L4.0 -122.2 5.1 -120.6 Q5.5 -119.8 5.35 -118.95 4.15 -118.6 3.2 -119.7 2.95 -120.05 2.85 -120.45 L3.0 -120.75 3.5 -121.0 3.55 -121.3 3.55 -121.75 3.55 -121.95 3.65 -122.0 3.85 -122.15 M11.95 -124.15 L12.05 -124.25 12.2 -124.35 12.35 -124.4 Q14.25 -121.6 15.45 -118.2 L15.95 -116.3 16.15 -116.55 18.3 -119.5 18.4 -119.55 18.6 -119.6 18.9 -119.65 19.2 -119.95 Q19.45 -120.15 19.75 -120.2 20.45 -119.0 19.1 -117.3 17.1 -114.9 16.35 -111.8 L16.15 -111.1 Q16.15 -107.95 14.35 -104.7 12.15 -100.75 11.35 -96.4 15.4 -99.5 17.45 -104.4 L19.2 -108.2 Q19.45 -108.7 19.95 -108.5 21.1 -98.95 15.0 -91.5 10.3 -85.8 9.75 -78.6 L9.7 -77.75 10.3 -77.85 11.5 -78.95 Q14.25 -80.9 16.4 -83.25 17.55 -80.1 16.3 -76.5 14.05 -70.0 12.15 -63.3 11.55 -61.1 11.85 -58.9 14.15 -59.9 15.8 -62.2 16.3 -62.9 17.1 -62.75 16.85 -60.7 15.25 -58.45 12.6 -54.65 10.4 -50.5 9.3 -48.35 7.4 -46.8 L7.0 -46.55 7.1 -46.2 6.45 -46.35 5.55 -46.55 5.75 -46.7 Q5.0 -47.2 4.35 -48.05 2.4 -50.6 -0.35 -52.25 -1.25 -52.75 -1.2 -53.7 -0.1 -54.4 1.5 -54.15 1.2 -57.1 0.2 -59.85 -0.5 -61.9 -1.7 -63.75 -2.25 -64.65 -2.0 -65.8 -0.6 -65.7 0.9 -64.7 L3.2 -64.65 Q3.45 -66.3 2.4 -67.95 L0.1 -71.3 -0.1 -71.35 0.05 -71.65 0.1 -71.75 Q0.95 -73.65 0.15 -75.55 -0.7 -77.6 -2.65 -79.1 -7.25 -82.55 -5.5 -88.05 -4.95 -89.6 -5.65 -91.1 -6.15 -92.2 -5.6 -93.15 -4.65 -94.75 -4.3 -96.15 L-4.2 -97.3 -4.45 -100.8 Q-1.7 -102.15 -0.85 -105.05 -0.5 -106.4 -1.1 -107.7 L2.2 -108.05 Q1.35 -108.65 0.75 -109.5 L0.1 -110.55 Q2.95 -110.9 4.65 -113.3 6.35 -115.65 8.9 -115.1 L9.75 -115.05 Q11.6 -115.2 12.15 -117.0 12.6 -118.75 12.35 -120.55 L11.95 -124.15 M27.1 -105.15 L27.25 -105.9 27.35 -106.0 27.5 -106.1 27.65 -106.15 Q28.25 -105.95 28.25 -105.3 28.25 -104.7 27.65 -104.55 27.1 -104.65 27.1 -105.15 M29.4 -100.65 L29.5 -100.95 29.6 -101.0 29.75 -101.1 29.9 -101.15 Q30.9 -100.35 29.65 -99.45 28.7 -98.75 28.2 -99.65 L28.5 -100.0 29.3 -100.4 29.35 -100.45 29.4 -100.65 M29.3 -90.8 Q28.25 -90.3 27.95 -91.55 27.75 -92.4 28.5 -92.65 29.15 -92.45 29.25 -91.85 L29.3 -90.8 M-13.15 -125.3 L-13.2 -125.05 -13.25 -124.95 -13.75 -124.7 -13.9 -124.3 Q-13.9 -123.85 -14.35 -123.8 -15.3 -124.5 -14.5 -125.65 -13.85 -126.6 -12.85 -126.95 L-12.85 -127.0 Q-12.25 -126.85 -12.45 -126.25 -12.6 -125.85 -13.05 -125.7 L-13.1 -125.6 -13.15 -125.3" fill="#fefd9a" fill-rule="evenodd" stroke="none"/>
    <path d="M5.1 -101.9 Q4.05 -101.1 3.65 -99.75 3.6 -99.05 2.95 -98.1 2.4 -97.25 2.25 -96.2 1.15 -88.95 3.8 -82.4 3.2 -84.3 4.0 -86.3 5.0 -89.0 7.5 -90.0 10.1 -88.85 7.45 -87.1 6.9 -86.75 6.75 -86.05 6.15 -83.35 4.4 -82.05 L3.95 -82.1 Q5.05 -79.5 6.75 -77.0 L7.65 -75.0 8.2 -72.45 Q9.15 -73.85 10.6 -74.75 12.6 -73.25 10.25 -70.9 9.45 -70.1 9.0 -69.1 L8.7 -68.45 Q9.05 -63.1 7.75 -57.7 L7.5 -55.7 Q7.45 -50.65 6.4 -46.0 L6.0 -45.95 Q4.5 -47.05 4.7 -49.35 L5.1 -53.3 Q4.55 -54.0 4.4 -55.0 3.95 -57.45 2.8 -59.7 2.4 -60.55 3.4 -60.8 L3.6 -60.85 5.6 -58.6 6.25 -66.5 Q6.9 -74.7 2.35 -81.55 0.85 -83.8 0.2 -86.4 -1.9 -94.3 1.9 -101.05 L1.95 -101.25 Q2.8 -104.1 5.5 -105.25 7.65 -103.85 5.1 -101.9" fill="#ffffff" fill-rule="evenodd" stroke="none"/>
  </g>
</svg>
