<?xml version="1.0" encoding="UTF-8" standalone="no"?>
<svg xmlns:ffdec="https://www.free-decompiler.com/flash" xmlns:xlink="http://www.w3.org/1999/xlink" ffdec:objectType="shape" height="105.1px" width="55.45px" xmlns="http://www.w3.org/2000/svg">
  <g transform="matrix(1.0, 0.0, 0.0, 1.0, 19.75, 151.4)">
    <path d="M3.45 -150.1 Q4.3 -151.1 5.5 -151.4 10.35 -151.65 10.2 -147.05 L9.75 -140.9 Q9.05 -142.8 8.9 -145.4 8.8 -146.8 7.5 -146.95 5.6 -147.15 3.85 -147.75 2.05 -148.45 3.45 -150.1 M11.5 -142.55 L11.7 -143.05 11.9 -143.1 12.4 -143.25 12.4 -143.3 Q14.75 -143.7 14.75 -141.65 14.7 -140.2 14.0 -138.95 16.3 -135.65 14.65 -131.65 14.3 -130.8 14.4 -129.75 14.85 -126.2 17.65 -124.0 L20.25 -126.45 Q21.8 -127.95 23.65 -128.15 22.35 -124.65 23.1 -120.95 24.0 -116.55 27.85 -114.55 L28.0 -114.55 Q28.3 -114.5 28.45 -114.25 L28.9 -114.1 28.4 -114.1 Q24.95 -112.9 24.6 -108.65 L23.95 -101.0 Q26.5 -100.6 28.5 -102.4 29.1 -102.95 29.95 -102.7 33.2 -101.7 35.2 -104.65 L35.35 -104.65 Q35.2 -102.25 32.2 -100.95 L30.85 -100.35 27.05 -98.65 Q25.55 -97.95 24.6 -96.8 28.35 -95.15 29.95 -91.45 30.55 -90.05 29.3 -89.75 27.35 -89.3 26.4 -91.05 24.6 -94.3 21.65 -92.6 20.05 -91.7 19.5 -89.9 L19.15 -88.9 Q19.15 -88.5 19.6 -88.35 L20.9 -87.8 21.3 -87.45 19.65 -82.75 Q18.4 -79.5 17.5 -76.15 L17.4 -75.85 19.95 -75.85 20.65 -75.55 Q20.45 -69.4 16.65 -63.95 L8.85 -49.05 Q8.5 -48.35 7.75 -47.6 L6.85 -46.9 7.15 -46.75 6.7 -46.8 Q5.95 -46.55 5.15 -47.0 L5.6 -47.15 Q2.6 -48.2 0.6 -51.35 -3.3 -57.25 -8.35 -62.15 -10.2 -63.9 -12.0 -64.85 L-11.75 -64.9 -11.3 -64.7 Q-7.25 -64.0 -2.75 -62.2 L-1.75 -61.6 Q-2.7 -64.55 -4.6 -67.15 -5.2 -67.95 -5.4 -68.95 -6.7 -76.9 -9.65 -84.4 -11.2 -88.25 -13.5 -91.55 -11.75 -90.95 -10.1 -89.1 L-8.8 -88.05 Q-8.0 -91.1 -9.15 -94.6 L-11.65 -102.35 Q-12.75 -105.9 -11.45 -108.9 -10.8 -107.35 -9.6 -105.9 L-8.5 -104.7 Q-8.05 -104.15 -7.45 -104.55 -6.3 -106.6 -5.75 -108.9 L-5.15 -111.05 Q-4.8 -112.15 -4.75 -113.35 L-4.75 -114.35 Q-3.1 -116.05 -2.2 -118.15 L-1.3 -119.0 Q-0.05 -119.55 0.75 -120.55 -0.15 -122.35 -0.45 -124.3 L-0.75 -125.95 -1.0 -127.45 Q-1.05 -128.1 -0.55 -128.35 -0.1 -126.05 2.0 -124.9 2.85 -124.45 3.65 -124.35 5.35 -127.15 5.85 -130.5 6.5 -134.85 9.5 -138.1 10.0 -137.85 9.95 -137.3 9.85 -136.2 10.1 -135.15 10.2 -134.65 10.6 -134.35 12.15 -135.65 11.4 -137.95 10.55 -140.5 11.5 -142.55 M-5.2 -131.25 Q-5.95 -133.1 -7.6 -132.7 -8.65 -132.45 -9.05 -131.35 L-9.45 -129.95 Q-10.4 -130.45 -9.85 -131.7 -9.15 -133.4 -7.3 -134.0 L-7.2 -134.0 Q-5.8 -134.25 -5.05 -133.1 -4.4 -132.05 -5.2 -131.25 M-15.4 -133.0 Q-15.45 -133.65 -14.85 -134.0 L-14.0 -134.3 Q-12.45 -134.3 -11.45 -133.1 -10.7 -132.25 -10.35 -131.1 L-10.4 -131.0 Q-10.55 -130.85 -10.8 -130.85 L-11.2 -130.9 -11.4 -130.9 Q-12.25 -132.35 -14.0 -132.05 -14.9 -131.85 -15.4 -132.5 L-15.4 -133.0 M-13.5 -127.5 L-11.5 -127.5 -10.5 -127.2 -10.5 -127.0 Q-10.45 -125.95 -11.35 -125.4 L-13.25 -124.4 -13.15 -123.8 -12.35 -121.55 -11.3 -119.3 -11.25 -119.1 -11.35 -119.0 Q-11.35 -118.95 -11.45 -118.95 L-11.6 -118.9 -12.1 -118.9 Q-13.15 -120.1 -13.75 -121.6 -14.55 -123.7 -14.8 -125.85 -14.95 -126.7 -14.1 -127.25 L-13.5 -127.5 M-15.8 -74.45 L-15.75 -74.4 -15.75 -74.35 -15.7 -74.35 -15.7 -74.2 -15.7 -74.15 Q-16.85 -74.0 -17.9 -73.35 -18.65 -72.85 -19.4 -73.15 -20.0 -73.4 -19.55 -73.9 -18.95 -74.55 -18.1 -74.6 L-17.75 -74.6 -16.15 -74.5 -15.8 -74.45" fill="#aa0909" fill-rule="evenodd" stroke="none"/>
    <path d="M5.8 -150.85 Q8.25 -151.15 9.35 -149.15 10.25 -147.55 9.8 -145.75 L9.6 -145.85 9.4 -146.4 9.4 -147.3 9.35 -148.0 Q7.6 -149.95 5.45 -148.05 5.15 -147.8 4.65 -147.8 2.2 -147.75 3.45 -149.7 4.05 -150.55 5.1 -150.75 L5.8 -150.85 M12.9 -142.85 Q14.35 -141.9 13.55 -139.7 13.2 -138.8 13.65 -137.85 14.9 -135.35 13.6 -132.75 12.6 -130.75 10.9 -129.75 11.1 -128.75 10.95 -127.5 L11.6 -128.4 12.85 -129.45 13.8 -123.35 Q13.9 -122.5 14.55 -121.75 L16.85 -119.4 Q18.6 -121.2 19.45 -124.0 20.1 -126.0 21.9 -125.6 22.1 -123.05 21.25 -120.6 L22.4 -117.35 Q23.2 -115.1 25.65 -114.25 24.8 -112.85 23.45 -111.85 22.75 -111.35 22.45 -110.55 22.0 -104.9 20.65 -99.05 20.25 -97.25 20.2 -95.35 20.1 -91.65 17.8 -88.7 L16.4 -86.75 Q17.95 -87.25 19.3 -86.75 L15.75 -76.4 Q15.3 -75.15 15.35 -73.9 L15.25 -72.0 Q16.8 -72.6 18.1 -73.75 19.0 -72.1 17.9 -69.65 L13.9 -60.9 Q13.1 -59.15 12.85 -57.15 12.05 -51.15 7.65 -47.95 L6.6 -47.35 7.1 -47.15 7.1 -47.1 6.05 -47.2 Q4.95 -47.0 3.9 -47.65 L4.6 -47.75 Q3.0 -48.55 1.65 -50.45 L-1.95 -55.55 Q-4.8 -59.35 -6.3 -63.4 -4.35 -63.0 -2.6 -61.55 L-0.8 -59.9 Q-0.9 -64.8 -2.45 -69.25 -2.9 -70.6 -2.95 -72.05 -3.2 -78.65 -7.25 -83.9 L-7.35 -84.2 Q-4.85 -83.5 -2.25 -81.2 L-0.55 -79.75 -4.7 -85.3 -5.15 -86.25 -8.05 -95.9 Q-9.0 -98.75 -8.9 -101.6 -3.0 -100.1 -2.05 -105.9 -2.0 -106.45 -2.3 -107.1 -3.4 -109.75 -2.1 -112.55 L-1.85 -113.2 Q-1.05 -115.6 1.05 -115.75 5.6 -117.95 8.8 -122.3 9.45 -123.15 9.55 -124.3 L9.6 -125.65 9.5 -125.75 9.55 -125.8 Q7.75 -127.25 7.55 -129.55 7.3 -131.9 8.65 -133.3 10.3 -132.05 10.8 -130.15 14.05 -132.85 13.15 -137.15 L12.85 -138.0 Q11.8 -138.3 11.45 -139.8 10.65 -141.4 12.3 -142.5 L12.4 -142.65 12.6 -142.75 12.75 -142.75 12.9 -142.85 M5.0 -122.0 L5.35 -121.25 5.55 -119.6 Q5.55 -119.2 5.2 -118.95 L3.85 -118.7 Q2.8 -118.8 2.0 -119.3 L2.0 -119.45 2.15 -119.6 2.35 -119.7 2.1 -120.05 2.05 -120.15 Q1.75 -120.3 1.7 -120.65 L1.75 -120.8 2.1 -121.0 2.95 -121.0 2.95 -121.1 3.05 -121.45 Q3.05 -121.95 3.5 -122.15 L3.65 -122.2 4.45 -122.15 5.0 -122.0 M28.15 -100.65 L28.15 -101.0 28.15 -101.25 28.2 -101.35 28.45 -101.6 29.05 -101.85 29.85 -101.85 30.5 -101.55 30.5 -101.45 30.65 -101.0 Q30.8 -100.55 30.6 -100.15 L30.5 -100.0 26.35 -98.85 Q23.8 -98.05 21.65 -98.35 23.0 -99.4 25.15 -99.65 L28.15 -100.3 28.15 -100.4 28.15 -100.65 M22.55 -94.4 Q24.8 -94.45 26.8 -93.55 28.2 -92.85 28.85 -91.85 29.4 -92.0 29.85 -91.55 L30.1 -90.6 29.4 -89.95 Q28.75 -89.45 28.05 -89.95 L27.9 -90.2 27.85 -90.7 27.85 -91.3 27.95 -91.35 26.85 -92.0 Q24.5 -93.55 22.25 -94.35 L22.55 -94.4 M35.6 -104.3 L35.65 -103.65 Q35.4 -102.95 34.75 -102.85 L34.65 -102.85 Q34.5 -103.0 34.65 -103.1 L35.2 -103.75 35.25 -103.9 35.15 -103.9 Q34.85 -103.8 34.65 -104.0 L34.6 -104.05 34.6 -104.3 34.7 -104.5 34.8 -104.55 35.2 -104.5 35.55 -104.35 35.6 -104.3 M-4.85 -131.3 L-5.0 -131.25 -5.35 -131.3 -5.6 -132.05 -5.2 -132.75 Q-4.8 -132.55 -4.75 -132.1 L-4.85 -131.3 M-14.1 -132.5 L-14.5 -132.45 -14.7 -132.55 -14.7 -133.0 -14.2 -133.45 Q-13.65 -133.35 -14.0 -133.0 L-14.1 -132.5 M-13.8 -126.9 Q-13.05 -127.4 -12.2 -127.45 -10.15 -127.05 -11.45 -125.7 -11.6 -125.5 -11.9 -125.5 -13.05 -125.6 -13.9 -125.0 L-13.65 -124.35 -13.05 -123.15 -13.15 -122.8 Q-14.0 -123.55 -14.45 -124.95 -14.85 -126.1 -13.8 -126.9 M-19.3 -73.65 Q-18.8 -73.6 -19.05 -73.15 -19.3 -72.75 -19.55 -73.15 L-19.55 -73.35 -19.3 -73.65" fill="#fdc43e" fill-rule="evenodd" stroke="none"/>
    <path d="M4.9 -149.85 Q5.05 -149.45 4.8 -149.2 4.8 -148.95 5.1 -148.95 L5.55 -148.7 Q5.6 -148.25 5.15 -148.1 L4.25 -147.6 3.25 -148.15 3.05 -148.7 Q3.1 -149.2 3.45 -149.6 3.85 -150.05 4.35 -150.2 4.8 -150.25 4.9 -149.85 M13.3 -138.75 Q11.45 -138.2 11.35 -140.45 11.3 -141.85 12.6 -142.4 L12.85 -142.35 13.15 -142.2 13.25 -142.15 12.95 -140.6 Q12.65 -139.65 13.3 -138.8 L13.3 -138.75 M9.75 -132.45 Q9.65 -131.5 9.9 -130.5 10.2 -129.5 10.0 -128.45 9.85 -128.2 9.6 -128.25 L9.2 -128.2 9.05 -127.55 Q8.7 -126.95 8.15 -127.35 L8.2 -130.25 Q8.05 -131.9 9.25 -132.7 L9.55 -132.6 9.75 -132.45 M3.25 -120.25 Q3.05 -120.45 3.1 -120.8 L3.5 -121.3 4.1 -121.65 Q4.6 -121.4 4.7 -120.8 L4.6 -119.9 Q3.85 -119.45 3.25 -120.25 M9.95 -118.9 Q8.1 -114.6 8.8 -109.85 9.2 -107.35 8.7 -105.1 L10.95 -108.05 Q12.35 -109.95 14.25 -111.3 14.8 -111.7 15.55 -111.75 L15.8 -111.75 15.8 -111.65 14.55 -106.25 Q13.5 -102.85 11.0 -100.1 L10.8 -99.9 Q12.9 -98.8 12.6 -96.45 12.25 -93.95 10.8 -91.75 12.4 -92.95 14.0 -94.85 L16.6 -98.5 16.75 -98.45 Q17.1 -98.45 17.2 -98.15 17.4 -90.7 13.65 -84.25 12.55 -82.35 12.0 -80.25 11.5 -78.25 11.95 -76.15 12.35 -73.9 12.0 -71.65 L11.4 -69.4 Q11.0 -68.2 11.25 -67.1 13.05 -67.2 14.35 -68.85 15.5 -70.3 16.8 -71.0 16.75 -67.95 14.65 -65.15 11.8 -61.4 10.75 -56.95 10.45 -55.75 10.4 -54.4 10.15 -50.5 7.7 -48.15 L7.55 -47.8 Q7.35 -47.4 7.05 -47.6 L6.45 -47.2 6.85 -46.45 Q4.85 -47.15 3.3 -49.35 0.3 -53.65 -2.4 -58.0 -3.25 -59.35 -3.75 -60.8 L-3.7 -60.95 Q-2.05 -60.5 -0.7 -58.65 L0.65 -57.4 Q0.1 -59.6 0.25 -61.9 L0.25 -64.9 Q-1.25 -68.4 -0.5 -72.2 L-0.55 -73.25 Q-1.65 -77.45 -4.0 -81.0 L-3.95 -81.15 0.4 -77.5 Q1.55 -76.55 2.65 -77.0 1.75 -81.75 -2.45 -84.4 -3.75 -85.2 -3.05 -86.65 -2.1 -88.8 -3.95 -90.9 -6.65 -93.85 -6.55 -97.5 L-3.95 -98.75 Q-3.4 -98.95 -2.9 -99.25 -3.55 -101.6 -0.6 -102.95 L0.85 -104.05 Q2.55 -105.95 0.8 -108.2 5.9 -111.0 7.2 -116.6 7.95 -119.8 10.25 -122.0 10.8 -120.75 9.95 -118.9 M20.75 -122.4 Q20.2 -121.75 20.0 -120.85 19.5 -118.7 17.75 -117.55 17.5 -117.55 17.3 -117.75 17.05 -117.95 17.05 -118.25 18.5 -119.75 19.1 -121.9 19.65 -123.95 21.35 -125.15 22.2 -124.2 20.75 -122.4 M30.15 -101.3 Q30.7 -100.8 30.3 -100.15 29.8 -99.85 29.4 -100.3 L28.5 -101.2 28.55 -101.3 28.6 -101.5 28.8 -101.65 29.0 -101.7 Q29.65 -101.7 30.15 -101.3 M19.45 -107.8 Q18.35 -106.1 18.5 -104.0 18.75 -100.8 16.05 -98.65 L15.2 -97.5 Q15.15 -97.35 15.0 -97.35 14.4 -97.5 14.5 -98.05 14.6 -98.55 14.25 -98.9 L14.3 -99.15 14.45 -99.65 14.5 -99.85 Q13.4 -99.65 12.45 -100.2 14.95 -102.2 15.55 -105.3 15.85 -107.05 17.25 -108.4 L20.0 -110.95 Q20.65 -109.65 19.45 -107.8 M3.4 -112.6 L3.3 -112.4 -1.4 -112.15 Q0.15 -112.85 1.2 -114.5 L2.35 -115.45 Q3.0 -115.45 3.05 -114.75 L3.05 -113.8 3.1 -113.75 3.25 -113.6 3.4 -113.45 3.45 -113.15 3.4 -112.6 M29.75 -89.7 Q28.75 -89.5 28.5 -90.7 28.35 -91.45 29.0 -91.65 29.55 -91.4 29.75 -90.8 29.95 -90.2 29.75 -89.7 M-13.8 -125.4 Q-13.95 -126.1 -13.2 -126.45 L-12.0 -127.0 Q-10.75 -126.45 -12.2 -125.55 L-13.8 -125.4" fill="#fefd9a" fill-rule="evenodd" stroke="none"/>
    <path d="M7.85 -97.75 Q9.65 -96.4 9.05 -93.65 8.65 -92.0 7.6 -90.8 6.95 -90.0 6.55 -91.0 6.0 -92.2 6.1 -93.55 6.3 -95.95 7.6 -97.6 L7.85 -97.75 M1.75 -100.95 Q3.5 -99.55 3.8 -96.95 3.95 -95.5 4.5 -94.1 6.45 -89.15 7.05 -84.05 8.0 -85.75 9.35 -87.0 11.25 -85.45 9.35 -82.8 8.15 -81.15 7.7 -79.3 L7.3 -78.45 Q7.25 -75.0 6.55 -71.45 4.3 -59.9 7.5 -48.65 7.8 -47.6 7.15 -46.85 6.15 -45.6 5.6 -47.2 3.7 -52.7 3.75 -58.55 L3.85 -63.25 Q3.3 -64.2 3.0 -65.35 2.2 -68.55 2.25 -71.55 2.25 -72.0 2.75 -72.0 L4.25 -70.25 4.75 -75.8 Q5.95 -86.9 1.25 -96.8 -0.05 -99.55 1.75 -100.95" fill="#ffffff" fill-rule="evenodd" stroke="none"/>
  </g>
</svg>
