<?xml version="1.0" encoding="UTF-8" standalone="no"?>
<svg xmlns:ffdec="https://www.free-decompiler.com/flash" xmlns:xlink="http://www.w3.org/1999/xlink" ffdec:objectType="shape" height="105.4px" width="55.1px" xmlns="http://www.w3.org/2000/svg">
  <g transform="matrix(1.0, 0.0, 0.0, 1.0, 19.3, 151.55)">
    <path d="M7.0 -147.35 Q5.5 -147.35 4.2 -147.95 1.5 -149.25 4.05 -150.75 L5.9 -151.4 Q9.25 -152.1 9.75 -149.15 10.15 -147.0 9.75 -145.0 L9.6 -145.0 Q9.2 -145.05 9.25 -145.4 L9.3 -146.0 9.3 -146.1 Q8.6 -147.3 7.0 -147.35 M14.5 -144.7 L15.1 -144.7 15.25 -144.65 Q16.3 -142.05 14.9 -139.2 14.55 -138.5 14.75 -137.75 15.95 -133.6 13.0 -129.85 L12.9 -129.7 14.1 -127.05 Q15.25 -124.35 17.8 -123.35 19.25 -126.0 19.8 -128.9 L20.3 -129.25 Q22.55 -129.5 23.55 -127.15 22.55 -123.7 22.65 -120.25 22.65 -118.8 23.9 -117.95 25.4 -116.95 27.3 -117.05 L27.6 -116.95 Q25.3 -109.45 22.15 -102.0 L21.35 -99.85 21.1 -99.05 Q23.95 -99.7 26.5 -101.55 27.6 -102.4 28.95 -102.75 L29.85 -102.7 30.7 -102.4 33.2 -103.45 Q34.45 -103.95 35.45 -104.6 35.65 -103.25 33.2 -102.4 L30.65 -101.65 Q29.7 -98.8 25.75 -98.35 23.25 -98.05 20.85 -98.25 L20.6 -97.6 Q25.4 -96.25 29.1 -92.75 30.3 -91.7 30.85 -90.35 31.3 -89.35 30.25 -89.35 L28.8 -89.55 Q26.85 -89.9 25.6 -91.9 24.7 -93.4 23.2 -94.45 L20.2 -96.45 Q19.1 -93.6 17.65 -90.85 17.0 -89.5 17.25 -88.05 19.2 -88.4 20.8 -89.9 21.25 -90.3 21.75 -89.9 21.05 -87.6 20.5 -85.2 20.05 -83.05 18.9 -81.1 22.8 -80.0 21.05 -75.8 19.65 -72.35 19.05 -68.6 18.45 -64.75 16.05 -62.45 14.35 -58.65 12.2 -55.0 9.65 -50.7 6.25 -47.0 L6.55 -46.2 5.8 -46.6 5.75 -46.55 5.6 -46.6 5.7 -46.7 Q5.1 -47.25 4.75 -48.3 3.75 -51.25 1.9 -53.75 -3.6 -61.35 -7.95 -69.5 -9.8 -72.9 -10.9 -76.55 L-13.3 -83.65 -13.2 -83.7 -12.75 -82.75 -9.2 -80.4 Q-8.05 -79.6 -6.9 -79.1 -8.5 -83.45 -10.85 -87.5 -12.9 -90.95 -14.15 -94.6 -13.35 -94.85 -12.85 -94.05 -12.25 -93.15 -11.45 -92.6 -13.45 -95.35 -13.35 -98.45 L-12.9 -99.85 Q-9.9 -104.3 -7.4 -109.05 -6.35 -111.0 -5.8 -113.05 -5.2 -113.05 -4.85 -112.4 L-3.9 -110.75 Q-3.5 -114.3 -2.05 -117.5 -1.5 -118.65 -0.4 -119.4 2.3 -121.2 0.8 -124.5 0.5 -125.2 0.5 -126.0 0.55 -126.75 0.95 -127.4 L2.2 -125.3 2.65 -125.1 3.4 -124.9 Q4.9 -127.35 5.4 -130.2 5.7 -131.9 6.6 -133.2 7.05 -135.95 9.25 -137.95 11.4 -139.95 12.1 -142.75 12.35 -143.85 13.4 -144.4 L14.5 -144.7 M30.45 -90.15 L29.8 -90.85 30.3 -90.15 30.4 -90.0 30.45 -90.15 M-5.05 -131.4 Q-5.7 -131.65 -6.1 -132.35 -6.55 -133.1 -7.35 -132.65 L-8.85 -132.5 -8.8 -132.75 -8.3 -133.25 Q-7.9 -133.65 -7.35 -133.6 -6.2 -133.75 -5.4 -132.95 -4.6 -132.25 -5.05 -131.4 M-15.15 -133.4 L-14.95 -133.6 -13.5 -133.5 -12.2 -133.15 -12.1 -133.05 -11.9 -132.75 -11.85 -132.55 -11.85 -132.35 Q-12.7 -131.85 -13.8 -131.95 -15.3 -132.1 -15.15 -133.4 M-13.15 -125.6 L-13.25 -125.1 -13.15 -123.3 -13.1 -122.1 Q-14.25 -122.3 -14.3 -124.1 -14.35 -125.5 -13.75 -126.6 -13.3 -127.4 -12.4 -127.5 L-11.2 -127.45 Q-10.5 -127.35 -10.05 -126.85 -9.95 -126.35 -10.2 -125.95 -11.0 -124.55 -12.45 -125.6 -12.8 -125.85 -13.15 -125.6 M-17.75 -73.8 L-19.2 -73.55 -19.3 -73.8 -18.8 -74.25 -18.1 -74.4 -17.55 -74.4 Q-17.4 -74.25 -17.15 -74.2 L-17.0 -74.1 -17.75 -73.8" fill="#aa0909" fill-rule="evenodd" stroke="none"/>
    <path d="M6.35 -149.5 L6.35 -149.45 6.05 -149.2 5.55 -148.75 Q4.8 -148.1 3.9 -148.45 L3.6 -148.9 3.55 -149.45 Q3.65 -150.1 4.2 -150.5 L4.7 -150.85 7.05 -150.55 Q8.3 -150.3 8.95 -149.35 8.7 -149.0 8.25 -149.2 L7.3 -149.6 6.45 -149.7 6.35 -149.5 M12.8 -141.9 L12.8 -141.95 12.8 -141.9 M14.2 -140.65 L14.1 -140.55 Q13.25 -138.95 13.8 -137.1 L14.1 -134.95 13.9 -134.75 13.75 -133.65 13.2 -132.95 13.2 -135.35 Q13.3 -137.6 12.35 -139.7 11.25 -142.25 13.7 -143.45 16.1 -143.25 15.05 -141.8 L14.8 -141.35 14.2 -140.65 M12.95 -139.55 L13.05 -139.35 13.05 -139.45 12.95 -139.55 M10.8 -131.35 L10.45 -129.95 10.55 -129.15 Q10.85 -126.3 12.35 -123.95 L13.8 -122.2 15.05 -120.9 14.35 -121.15 14.35 -121.1 Q15.05 -119.4 16.55 -118.35 L17.2 -118.4 18.55 -121.45 Q19.4 -123.75 19.75 -126.1 L19.9 -127.85 Q19.95 -129.0 21.1 -129.2 24.15 -125.5 21.0 -121.5 L20.8 -121.25 21.8 -117.75 Q22.45 -115.4 24.9 -114.8 24.65 -111.05 23.0 -107.85 22.45 -106.7 21.4 -105.75 19.65 -104.2 19.05 -101.95 L17.6 -95.9 Q16.8 -91.55 14.75 -87.6 L13.7 -84.9 19.5 -86.25 Q19.1 -83.75 16.95 -81.9 15.7 -80.85 14.9 -79.5 16.45 -79.5 18.55 -78.45 19.45 -78.0 19.1 -76.95 17.6 -72.45 16.85 -67.75 16.3 -64.5 15.3 -61.35 14.25 -58.05 11.75 -56.1 L7.9 -48.3 Q7.2 -46.85 6.15 -46.55 L5.85 -46.15 5.75 -46.45 5.4 -46.45 5.65 -46.8 Q4.55 -49.95 2.9 -53.35 0.1 -59.1 -3.85 -64.25 -8.75 -70.65 -7.45 -78.0 -5.2 -73.9 -2.2 -70.05 L-0.35 -67.9 Q-1.05 -72.9 -2.85 -77.95 -5.35 -84.9 -10.3 -89.4 L-10.15 -89.45 -10.05 -89.4 -10.55 -89.85 -7.7 -89.15 Q-8.8 -93.15 -11.45 -96.5 -11.85 -96.95 -11.6 -97.65 -10.3 -101.2 -7.7 -104.4 -6.35 -106.1 -5.7 -107.85 L-3.05 -104.05 -2.5 -106.0 Q-2.0 -108.15 -0.85 -110.0 L-0.25 -111.5 Q-2.15 -114.5 0.45 -117.3 2.55 -119.5 3.7 -116.95 4.25 -115.7 3.65 -114.4 6.6 -116.6 9.3 -119.9 L10.2 -121.05 Q10.1 -123.25 9.45 -125.4 L8.7 -128.75 8.65 -128.75 Q7.65 -130.2 7.75 -132.0 7.85 -133.95 9.55 -134.9 L10.0 -134.85 10.4 -134.7 Q10.95 -133.1 10.8 -131.35 M4.3 -121.5 L4.65 -121.35 4.85 -121.0 4.9 -120.15 4.6 -119.7 2.6 -119.8 2.5 -119.95 2.55 -120.05 2.65 -120.3 3.1 -120.5 3.1 -120.75 Q3.1 -121.15 3.45 -121.4 L3.85 -121.55 4.3 -121.5 M29.9 -101.95 L30.0 -101.85 30.15 -101.6 30.25 -101.25 30.25 -101.1 29.3 -100.4 Q29.0 -99.8 27.75 -99.3 L25.3 -99.15 Q26.0 -100.0 27.3 -100.45 L28.15 -100.75 Q27.85 -101.1 28.25 -101.75 28.4 -102.0 28.75 -102.05 L29.7 -102.0 29.9 -101.95 M35.8 -103.95 L35.8 -103.9 35.7 -103.8 35.55 -103.65 35.45 -103.65 35.35 -103.7 35.3 -103.8 35.25 -104.0 35.25 -104.05 34.9 -104.25 Q34.6 -104.3 34.8 -104.55 L34.9 -104.6 35.5 -104.45 35.8 -103.95 M29.2 -91.1 L29.85 -91.0 30.15 -90.9 30.2 -90.75 30.25 -90.3 30.1 -89.55 29.7 -89.35 Q28.95 -89.25 28.35 -89.7 L28.35 -89.8 28.4 -90.15 28.5 -90.45 27.65 -91.1 25.45 -93.15 25.65 -93.25 Q27.15 -93.1 28.3 -92.25 L29.2 -91.1 M-5.1 -131.25 Q-5.55 -131.25 -5.55 -131.75 L-5.2 -132.15 Q-4.9 -132.05 -4.9 -131.7 L-5.1 -131.25 M-13.65 -125.7 L-13.85 -125.7 Q-14.05 -126.25 -13.5 -126.7 L-11.9 -127.25 Q-11.3 -127.2 -10.85 -126.85 L-10.25 -126.05 -10.55 -125.6 -11.75 -125.5 -11.9 -125.65 -12.1 -125.95 -12.25 -126.3 -12.55 -126.4 -12.8 -126.4 -13.05 -126.1 -13.65 -125.7" fill="#fdc43e" fill-rule="evenodd" stroke="none"/>
    <path d="M5.65 -149.5 L5.25 -149.25 4.7 -149.3 4.45 -149.1 3.85 -149.05 3.65 -149.35 3.65 -149.8 3.65 -150.0 4.35 -150.45 5.0 -150.7 5.65 -150.2 5.65 -149.5 M12.95 -140.9 Q12.85 -140.8 12.75 -140.8 12.05 -141.2 12.3 -142.0 12.7 -143.05 14.1 -142.95 L14.7 -142.85 Q15.05 -142.7 15.05 -142.35 L13.55 -141.35 12.95 -140.9 M10.0 -131.9 Q9.9 -131.3 9.95 -130.55 L9.9 -130.3 9.7 -130.15 9.3 -130.1 9.2 -129.95 8.95 -129.6 8.75 -129.55 Q8.0 -130.4 8.25 -131.95 8.5 -133.2 9.6 -133.7 10.3 -133.1 10.0 -131.9 M4.3 -120.4 Q3.7 -120.1 3.35 -120.65 L3.4 -120.8 3.65 -121.15 3.85 -121.2 4.3 -121.1 4.55 -120.8 4.3 -120.4 M18.85 -119.85 Q18.35 -120.55 18.8 -121.45 19.3 -122.45 19.4 -123.4 20.65 -124.3 20.6 -125.75 L20.55 -128.2 20.65 -128.3 20.7 -128.35 20.85 -128.45 21.0 -128.45 Q23.45 -126.45 21.2 -123.6 19.85 -121.85 19.1 -119.9 L18.85 -119.85 M20.85 -107.95 Q20.65 -107.5 20.15 -107.35 L19.75 -107.65 19.7 -108.05 Q17.6 -106.4 15.25 -106.3 14.8 -106.3 14.75 -106.7 L20.15 -111.8 22.5 -113.8 Q23.2 -112.15 21.95 -110.05 L20.85 -107.95 M28.75 -101.65 L29.25 -101.6 Q29.6 -101.6 29.7 -101.3 L29.7 -101.2 29.5 -100.85 Q28.75 -100.4 28.25 -101.05 L28.3 -101.15 28.3 -101.3 28.6 -101.6 28.75 -101.65 M14.4 -114.75 Q13.25 -111.1 13.4 -107.15 13.55 -104.0 12.15 -101.4 12.55 -101.2 12.35 -100.35 L11.9 -99.05 15.6 -103.9 18.0 -106.85 18.3 -106.75 18.5 -106.6 Q15.85 -101.6 15.5 -95.75 15.35 -93.2 14.45 -90.7 13.05 -86.7 10.35 -83.6 L11.1 -83.55 Q10.95 -81.1 10.45 -78.6 10.15 -77.3 10.95 -76.2 11.6 -75.3 11.55 -74.1 13.85 -74.7 15.45 -76.9 16.2 -77.9 17.2 -77.7 15.55 -73.25 13.35 -68.85 12.65 -67.5 12.7 -65.9 12.9 -60.6 10.1 -56.15 9.1 -54.55 8.85 -52.65 8.4 -49.3 6.5 -46.95 L6.3 -47.5 Q4.85 -48.4 4.55 -50.6 L3.85 -53.25 Q1.5 -59.05 -1.95 -64.1 -3.8 -66.8 -4.5 -69.85 L-4.45 -69.95 -4.4 -70.05 -4.0 -70.2 -0.5 -66.85 0.2 -66.2 Q0.0 -69.5 -0.7 -72.85 L-1.7 -79.65 -1.55 -80.65 Q-2.95 -82.8 -4.85 -84.6 -6.05 -85.75 -6.8 -87.0 -5.4 -87.3 -3.85 -86.1 L-2.95 -85.5 -4.55 -87.05 Q-5.0 -87.55 -4.65 -88.1 -2.3 -87.55 -1.1 -89.0 -0.55 -89.6 -1.15 -90.35 -3.5 -93.35 -5.2 -96.55 L-5.2 -96.6 Q-5.75 -94.3 -5.4 -91.95 -8.1 -93.05 -9.7 -96.05 -10.65 -97.9 -8.8 -99.3 -7.45 -100.3 -6.8 -101.85 L-5.35 -104.4 Q-3.65 -101.35 -4.9 -97.7 L-5.05 -97.2 -4.95 -97.3 Q-2.3 -98.9 -1.0 -101.8 -0.15 -103.65 0.2 -105.75 L0.65 -106.4 Q3.95 -108.9 6.35 -112.15 L6.8 -112.1 Q7.85 -110.85 8.35 -109.25 10.2 -110.45 11.15 -113.2 12.2 -116.35 14.65 -118.5 15.05 -116.95 14.4 -114.75 M2.25 -113.3 L-0.7 -113.45 0.8 -115.9 1.25 -117.0 Q1.25 -117.35 1.6 -117.4 2.65 -116.7 2.45 -115.3 L2.25 -113.3 M30.05 -89.8 L29.85 -89.6 Q29.55 -89.45 29.25 -89.6 L28.8 -90.15 Q28.45 -90.6 28.95 -90.9 L29.15 -90.95 29.9 -90.5 30.05 -89.8 M-10.9 -126.1 L-11.35 -125.8 Q-12.05 -125.8 -12.25 -126.3 L-12.2 -126.5 -12.05 -126.65 -11.75 -126.8 -11.15 -126.65 Q-10.8 -126.45 -10.9 -126.1" fill="#fefd9a" fill-rule="evenodd" stroke="none"/>
    <path d="M3.85 -100.1 Q6.3 -98.25 6.5 -94.65 L6.6 -91.7 Q7.65 -93.85 9.35 -95.5 11.35 -93.85 9.2 -91.2 8.25 -90.05 8.0 -88.7 7.7 -87.0 6.55 -86.9 6.3 -82.1 5.6 -77.35 L5.2 -73.85 6.1 -74.75 Q7.95 -73.35 6.35 -70.65 5.6 -69.35 5.2 -68.0 L5.05 -67.65 Q5.25 -61.85 6.85 -56.1 8.25 -51.05 6.65 -46.5 6.55 -46.15 6.2 -46.5 5.05 -47.5 5.15 -49.25 5.3 -52.15 4.6 -55.0 2.0 -65.05 2.95 -75.35 2.4 -76.0 2.1 -76.9 0.95 -79.9 1.25 -82.7 1.3 -83.1 1.75 -83.1 2.85 -82.1 3.55 -80.75 4.1 -86.25 4.15 -91.75 4.2 -95.8 3.1 -99.6 L3.35 -99.95 3.85 -100.1 M6.5 -104.25 Q8.55 -102.6 8.55 -99.75 8.6 -98.2 7.3 -99.2 6.65 -99.7 6.15 -100.45 4.5 -102.95 6.5 -104.25" fill="#ffffff" fill-rule="evenodd" stroke="none"/>
  </g>
</svg>
