<?xml version="1.0" encoding="UTF-8" standalone="no"?>
<svg xmlns:ffdec="https://www.free-decompiler.com/flash" xmlns:xlink="http://www.w3.org/1999/xlink" ffdec:objectType="shape" height="104.8px" width="49.35px" xmlns="http://www.w3.org/2000/svg">
  <g transform="matrix(1.0, 0.0, 0.0, 1.0, 19.25, 151.9)">
    <path d="M9.6 -147.2 L7.4 -147.9 Q5.35 -148.5 3.5 -149.4 L3.45 -149.5 Q3.3 -150.25 3.8 -150.75 4.55 -151.5 5.5 -151.8 7.9 -152.3 8.95 -150.35 9.75 -148.8 9.6 -147.2 M15.65 -144.5 L16.95 -143.75 16.95 -142.55 Q16.65 -140.85 14.55 -140.5 L14.05 -140.4 Q15.25 -136.1 13.45 -132.35 11.55 -128.35 14.65 -124.75 L17.0 -122.45 17.8 -124.95 Q18.05 -126.45 17.9 -128.05 17.8 -129.2 18.45 -130.05 23.55 -132.15 23.7 -127.15 23.8 -124.15 22.25 -121.55 L20.6 -118.45 25.85 -120.2 Q28.05 -120.8 29.95 -120.25 28.3 -113.7 23.1 -109.45 21.55 -108.15 21.05 -106.3 19.95 -102.05 18.5 -98.0 19.25 -98.1 19.85 -98.5 21.05 -99.35 22.35 -99.65 22.75 -98.5 22.0 -97.4 L20.2 -94.45 19.55 -93.05 Q22.15 -88.15 20.7 -82.35 L19.5 -77.05 Q17.35 -66.55 13.45 -56.5 12.45 -53.9 10.9 -51.45 8.8 -48.1 5.0 -47.2 -0.4 -51.1 -1.9 -57.7 -3.15 -63.05 -5.0 -68.1 L-5.6 -69.55 -7.5 -74.05 Q-8.1 -75.35 -8.2 -76.85 -8.45 -80.0 -10.1 -82.55 -11.05 -83.95 -12.4 -85.05 -16.25 -88.15 -18.6 -92.3 -15.1 -91.65 -13.05 -93.85 -12.3 -94.65 -12.7 -95.75 -14.3 -100.55 -12.55 -105.5 L-12.25 -106.4 Q-8.7 -104.5 -7.1 -108.05 -6.05 -110.4 -4.25 -111.35 -4.05 -111.45 -3.75 -111.15 -3.5 -110.9 -3.15 -110.95 L-1.95 -115.3 Q-1.25 -118.65 0.55 -121.6 L0.9 -122.45 1.2 -122.55 1.45 -122.55 2.25 -122.25 2.25 -122.35 2.35 -122.4 2.6 -122.55 2.85 -122.85 Q2.6 -123.4 2.65 -124.15 L2.8 -126.95 Q2.85 -127.8 3.45 -128.2 L3.9 -127.75 Q3.95 -127.2 4.15 -126.7 4.45 -126.05 5.0 -125.7 5.85 -130.25 7.25 -134.65 8.1 -137.25 10.05 -139.35 11.45 -140.8 12.1 -142.75 12.6 -144.15 14.0 -144.75 L15.65 -144.5 M-5.1 -131.8 L-6.2 -131.9 -7.25 -133.05 -7.1 -133.2 Q-6.35 -133.35 -5.75 -132.9 -5.15 -132.4 -5.1 -131.8 M-12.35 -132.45 Q-12.8 -131.7 -14.0 -132.15 L-14.3 -132.3 -14.3 -132.5 -14.35 -132.8 -14.1 -133.2 -14.0 -133.2 -13.05 -133.05 -12.35 -132.45 M-12.25 -126.6 L-12.45 -126.45 -12.85 -125.65 Q-13.0 -125.05 -13.6 -124.95 -14.1 -125.1 -13.95 -125.55 -13.6 -126.55 -12.7 -127.25 L-11.9 -127.6 -10.5 -127.45 Q-9.85 -127.3 -9.8 -126.55 L-9.9 -126.25 -11.95 -126.2 -12.25 -126.6 M-17.9 -74.2 L-17.85 -74.15 -17.8 -74.05 -17.85 -73.85 -18.3 -73.6 Q-18.75 -73.45 -19.2 -73.6 L-19.2 -73.65 -19.25 -73.7 -19.25 -73.8 -19.2 -73.9 -18.45 -74.25 -18.0 -74.25 -17.9 -74.2" fill="#aa0909" fill-rule="evenodd" stroke="none"/>
    <path d="M5.95 -150.65 Q7.15 -150.75 7.9 -149.95 L7.9 -149.7 7.9 -149.6 7.7 -149.6 Q7.5 -149.55 7.4 -149.75 L7.35 -149.9 6.05 -149.75 Q5.8 -148.8 4.45 -149.3 4.05 -149.65 4.2 -150.1 L4.3 -150.35 Q4.6 -151.0 5.3 -151.15 L5.8 -151.0 5.95 -150.65 M15.8 -141.75 Q15.6 -141.6 15.4 -141.6 L13.9 -141.5 13.75 -141.0 13.65 -139.7 13.6 -139.35 13.5 -139.2 13.45 -139.1 13.5 -138.75 13.6 -137.85 13.55 -137.1 Q12.9 -137.2 13.0 -138.0 L13.0 -139.15 12.85 -139.85 12.85 -140.4 12.85 -140.45 12.8 -140.45 12.65 -140.5 12.6 -140.55 Q12.45 -141.2 12.55 -141.8 12.65 -142.4 13.1 -142.8 13.65 -143.35 14.4 -143.45 15.15 -143.55 15.65 -142.9 16.0 -142.4 15.8 -141.75 M10.45 -133.3 Q10.25 -132.15 9.7 -131.2 L9.7 -131.05 Q10.45 -129.05 10.8 -126.9 11.6 -124.9 12.85 -123.05 14.75 -120.2 15.7 -116.9 L18.5 -121.75 Q19.65 -123.8 20.2 -126.0 18.5 -124.75 18.25 -127.15 18.15 -128.1 18.85 -128.95 L19.45 -129.5 19.55 -129.65 19.85 -129.8 20.65 -130.15 Q24.3 -128.95 22.5 -125.45 L21.6 -123.55 Q21.15 -122.45 20.45 -122.1 L19.05 -118.75 17.5 -115.5 17.2 -113.4 16.65 -112.05 16.6 -111.95 Q20.0 -114.75 23.7 -117.15 25.4 -118.2 27.2 -118.8 26.7 -113.95 23.0 -111.3 L20.5 -109.6 Q19.0 -108.6 18.6 -106.6 17.35 -100.3 15.25 -94.25 16.75 -94.75 18.25 -96.2 L19.1 -96.45 Q18.95 -94.7 17.75 -92.95 L16.4 -90.7 Q16.85 -90.6 17.2 -91.45 17.4 -91.95 17.95 -92.05 19.75 -84.5 16.8 -76.95 15.9 -74.65 15.5 -72.1 14.25 -64.4 12.05 -57.0 L11.1 -53.8 10.75 -52.8 Q9.35 -48.7 5.6 -48.35 L6.45 -47.35 5.25 -48.35 4.65 -48.35 5.05 -48.5 Q0.2 -53.0 0.0 -60.3 -0.15 -65.65 -2.95 -70.3 -6.95 -76.85 -4.15 -83.25 L-2.35 -80.6 Q-3.15 -82.7 -4.4 -84.4 -5.7 -83.85 -7.2 -84.6 -9.15 -85.65 -10.25 -87.4 L-11.6 -87.3 -12.8 -87.35 -13.2 -88.3 Q-13.55 -89.65 -12.25 -90.0 L-9.85 -90.5 -8.05 -90.3 Q-8.85 -91.25 -8.15 -93.05 -7.7 -94.1 -6.65 -94.75 -6.35 -94.95 -6.3 -95.25 L-6.4 -95.7 -6.95 -96.3 Q-8.7 -94.7 -11.05 -94.85 -11.9 -96.6 -11.45 -98.7 -11.1 -100.25 -11.45 -101.75 -8.2 -100.85 -6.35 -103.95 -6.05 -104.5 -5.4 -104.6 -4.8 -104.2 -4.85 -103.35 -4.9 -102.65 -4.45 -102.15 -2.45 -102.85 -0.7 -104.05 L-0.4 -106.6 -0.1 -108.7 0.5 -113.3 -0.5 -114.45 -0.45 -116.35 Q-0.25 -117.85 0.8 -118.7 3.65 -115.9 1.95 -111.65 L2.2 -109.4 2.3 -109.35 2.3 -108.45 2.7 -106.9 3.0 -107.2 Q5.8 -110.1 5.7 -114.5 5.5 -120.95 8.7 -125.85 L9.7 -119.35 10.3 -118.4 10.3 -119.05 Q10.45 -122.95 9.75 -126.65 9.0 -128.5 8.75 -130.55 L8.5 -130.7 8.2 -130.95 Q7.4 -132.8 8.5 -134.5 L10.15 -136.7 Q10.85 -135.25 10.45 -133.3 M4.5 -120.1 Q4.1 -119.5 3.45 -119.7 3.1 -120.2 3.55 -120.75 L4.3 -121.25 Q5.0 -120.85 4.5 -120.1 M18.6 -126.5 L18.65 -126.25 18.75 -126.3 18.6 -126.5 M27.55 -100.4 L27.95 -100.9 28.35 -101.1 28.35 -101.25 28.35 -101.35 28.35 -101.5 28.35 -101.7 28.45 -101.85 28.55 -101.95 28.9 -102.15 29.5 -102.05 29.9 -101.6 Q29.65 -100.9 29.0 -100.4 28.25 -99.85 27.6 -100.15 L27.55 -100.4 M28.4 -91.05 Q27.3 -91.8 27.95 -92.45 L29.35 -91.95 Q30.05 -91.6 30.05 -90.95 L30.0 -90.9 30.05 -90.7 30.05 -90.65 30.05 -90.05 30.0 -89.95 29.65 -89.65 29.2 -89.5 28.65 -89.85 Q28.3 -90.4 28.6 -90.9 L28.4 -91.05 M-13.05 -126.8 L-13.0 -126.95 -12.85 -127.1 -12.7 -127.15 -11.05 -127.0 Q-10.2 -126.7 -10.25 -125.9 L-10.35 -125.85 -11.25 -125.8 Q-11.65 -126.05 -11.65 -126.45 L-11.6 -126.5 -13.0 -126.65 -13.05 -126.7 -13.05 -126.8" fill="#fdc43e" fill-rule="evenodd" stroke="none"/>
    <path d="M5.65 -149.35 Q4.85 -148.85 4.6 -149.85 4.45 -150.35 5.0 -150.45 L5.6 -150.1 5.65 -149.35 M15.3 -142.05 Q14.45 -141.75 13.9 -142.4 L13.85 -142.45 13.9 -142.55 13.9 -142.65 14.05 -142.8 14.35 -142.95 15.05 -142.9 Q15.55 -142.8 15.55 -142.35 L15.3 -142.05 M9.35 -135.1 L9.5 -135.15 Q10.2 -134.7 10.05 -133.75 L10.05 -132.45 9.55 -131.8 8.8 -131.75 Q8.25 -132.45 8.75 -133.35 9.15 -134.05 9.05 -134.85 L9.15 -134.95 9.35 -135.1 M18.6 -125.85 Q18.1 -126.55 18.5 -127.45 19.15 -128.8 20.5 -129.4 22.75 -128.8 21.85 -126.55 L20.7 -123.5 20.5 -123.5 Q20.3 -123.5 20.2 -123.65 L20.05 -123.8 Q19.95 -124.5 20.25 -125.1 L21.2 -127.15 21.3 -127.55 Q20.4 -128.3 19.95 -127.1 19.5 -126.0 18.6 -125.85 M23.8 -113.6 L22.2 -111.55 Q21.0 -111.3 19.95 -111.85 20.5 -113.45 21.65 -114.55 L24.25 -116.3 Q24.95 -115.15 23.8 -113.6 M20.15 -115.1 Q20.75 -113.9 19.45 -112.15 16.9 -108.75 16.5 -104.55 L16.45 -102.7 Q16.65 -95.55 11.15 -90.7 10.3 -89.9 9.7 -88.9 L12.8 -91.5 Q13.55 -92.25 14.45 -92.4 14.3 -89.8 12.25 -87.35 10.95 -85.75 11.35 -83.7 11.55 -82.6 11.1 -81.45 10.3 -79.5 10.35 -77.4 12.75 -79.45 14.1 -82.7 L16.25 -87.45 Q17.0 -85.05 16.35 -82.1 15.75 -79.4 14.65 -76.8 13.25 -73.5 13.2 -69.8 13.15 -66.85 12.25 -64.05 10.95 -59.95 10.85 -55.45 10.75 -50.9 7.2 -47.9 L5.25 -47.95 5.6 -48.2 Q4.1 -48.5 3.4 -50.7 2.05 -54.85 2.7 -59.35 2.9 -60.4 2.55 -61.5 1.15 -66.0 -1.25 -70.3 -2.4 -72.25 -3.0 -74.4 -3.65 -76.5 -3.45 -78.7 L-3.35 -78.8 -3.25 -78.85 -3.15 -78.95 -3.0 -79.0 -2.9 -78.95 -2.7 -78.9 -2.55 -78.8 Q-1.55 -76.5 0.15 -74.6 L-0.15 -79.6 Q-0.65 -85.35 -5.5 -88.8 -6.9 -89.8 -7.5 -91.3 -4.25 -91.5 -1.95 -93.65 -1.35 -94.2 -1.9 -94.95 -4.05 -97.75 -4.6 -100.9 L-4.4 -101.0 Q-1.3 -101.55 1.0 -103.6 1.05 -105.4 2.8 -106.0 5.0 -106.8 6.95 -107.8 7.2 -111.05 7.1 -114.6 7.0 -118.4 8.0 -121.45 9.25 -117.2 9.95 -112.4 10.5 -108.85 11.85 -105.65 L16.55 -111.25 20.15 -115.1 M1.65 -114.2 L0.0 -114.1 Q-0.15 -115.25 0.1 -116.5 0.3 -117.75 1.1 -118.4 1.8 -117.6 1.8 -116.25 L1.65 -114.2 M-11.4 -101.3 Q-9.6 -100.55 -7.95 -101.3 -7.4 -101.55 -7.1 -102.15 L-6.25 -103.15 Q-4.95 -101.6 -6.1 -99.2 -7.25 -96.85 -9.3 -95.2 L-10.35 -95.1 -10.9 -98.15 -11.4 -101.3 M-9.15 -87.8 L-8.95 -87.95 -9.0 -87.95 Q-10.45 -88.0 -11.7 -88.6 L-12.0 -89.0 -11.95 -89.1 -11.95 -89.2 -11.85 -89.25 -11.65 -89.4 -11.5 -89.45 -7.35 -88.6 Q-5.6 -88.1 -4.3 -87.0 L-4.35 -86.8 -4.45 -86.5 -4.6 -86.05 -4.6 -85.95 -4.65 -85.9 -4.75 -85.8 -4.85 -85.75 -5.15 -85.65 -5.15 -85.55 -5.15 -85.45 -5.15 -85.35 -5.15 -85.25 -5.3 -85.05 Q-6.4 -84.9 -7.35 -85.85 L-9.4 -87.3 -9.45 -87.55 -9.3 -87.75 -9.15 -87.8" fill="#fefd9a" fill-rule="evenodd" stroke="none"/>
    <path d="M7.35 -101.6 Q8.45 -100.8 8.5 -99.65 L11.5 -101.6 Q13.75 -100.2 11.0 -98.55 9.15 -97.45 7.75 -95.75 L6.55 -94.75 Q3.6 -87.85 4.55 -80.6 5.4 -82.3 6.85 -83.35 8.75 -81.8 6.85 -79.1 5.95 -77.85 5.4 -76.4 L5.4 -76.35 5.7 -75.35 Q7.45 -69.7 8.5 -63.95 10.15 -54.85 5.85 -47.2 5.7 -46.95 5.45 -47.2 4.15 -48.6 5.1 -50.65 6.9 -54.6 6.55 -59.1 5.8 -68.5 2.85 -77.45 1.95 -80.15 2.05 -83.0 L2.15 -84.5 Q1.45 -85.1 1.3 -86.05 0.75 -89.15 1.95 -91.65 L2.25 -91.85 3.05 -90.95 Q4.05 -95.55 5.95 -99.9 L6.45 -100.95 Q6.7 -101.55 7.35 -101.6" fill="#ffffff" fill-rule="evenodd" stroke="none"/>
  </g>
</svg>
