<?xml version="1.0" encoding="UTF-8" standalone="no"?>
<svg xmlns:ffdec="https://www.free-decompiler.com/flash" xmlns:xlink="http://www.w3.org/1999/xlink" ffdec:objectType="shape" height="104.45px" width="48.95px" xmlns="http://www.w3.org/2000/svg">
  <g transform="matrix(1.0, 0.0, 0.0, 1.0, 19.05, 151.3)">
    <path d="M8.65 -149.65 L8.0 -148.7 5.85 -148.6 4.3 -149.8 4.25 -149.9 4.25 -150.4 Q4.25 -150.75 4.6 -151.0 L5.0 -151.2 Q6.15 -151.45 7.15 -150.9 L8.65 -149.65 M15.9 -143.8 Q16.2 -143.7 16.45 -143.55 16.75 -142.25 15.9 -141.35 15.15 -140.6 14.2 -140.1 L13.6 -139.6 Q13.05 -135.15 12.15 -130.85 11.5 -127.65 12.15 -124.55 L12.65 -120.7 Q16.3 -120.1 18.5 -123.35 19.2 -124.35 19.45 -125.45 18.45 -126.5 16.5 -125.9 15.0 -129.65 19.6 -130.1 23.9 -130.55 22.6 -126.45 21.25 -122.05 19.3 -117.95 L28.5 -119.6 28.65 -119.55 Q25.95 -114.75 22.45 -110.45 21.1 -108.8 20.15 -106.9 18.95 -104.55 20.25 -102.1 20.5 -101.55 20.15 -101.0 L19.6 -99.95 Q22.6 -97.8 21.55 -94.05 21.0 -92.1 20.8 -90.15 19.85 -80.0 17.65 -70.2 16.1 -63.0 12.35 -56.5 9.55 -51.55 6.3 -47.15 -2.15 -54.5 -4.25 -65.55 -4.85 -68.75 -5.85 -71.8 -6.9 -75.15 -7.35 -78.6 L-7.55 -80.45 -8.05 -84.25 Q-8.15 -84.65 -8.65 -84.85 -14.4 -86.85 -16.6 -92.5 -11.65 -93.55 -13.2 -97.95 -14.9 -102.85 -12.55 -107.7 L-12.1 -108.1 Q-11.2 -107.25 -10.0 -106.85 -9.05 -106.5 -8.45 -107.05 -7.6 -108.25 -8.0 -109.65 L-8.3 -111.65 -8.2 -112.95 Q-5.2 -110.75 -1.45 -111.9 -2.1 -114.65 -2.4 -117.45 -2.6 -119.2 -2.2 -120.9 -1.75 -122.85 -1.8 -124.8 -1.45 -125.05 -1.2 -124.65 L-0.3 -123.9 Q0.2 -126.4 2.45 -127.85 3.7 -128.7 5.2 -129.0 5.85 -129.1 6.45 -129.45 6.9 -132.35 6.85 -135.25 6.85 -135.7 7.45 -136.0 10.35 -137.35 11.55 -140.0 12.75 -142.75 15.4 -143.95 L15.9 -143.8 M-5.2 -131.95 Q-5.6 -131.55 -6.0 -132.1 -6.3 -132.55 -5.75 -132.7 L-5.3 -132.45 Q-5.1 -132.2 -5.2 -131.95 M-10.2 -126.7 L-10.2 -126.6 -10.25 -126.45 -10.35 -126.2 -10.45 -126.0 -10.55 -125.95 Q-11.6 -125.65 -12.3 -126.3 L-12.3 -126.4 -12.3 -126.8 Q-12.3 -127.25 -11.9 -127.35 L-11.9 -127.4 -11.0 -127.3 Q-10.5 -127.15 -10.2 -126.7 M-18.3 -74.1 L-18.15 -74.0 Q-18.15 -73.75 -18.4 -73.65 -18.8 -73.5 -19.05 -73.65 L-19.0 -73.9 -18.5 -74.1 -18.3 -74.1" fill="#aa0909" fill-rule="evenodd" stroke="none"/>
    <path d="M5.6 -150.7 L5.8 -150.55 5.85 -150.45 5.8 -150.15 5.6 -149.65 5.55 -149.6 Q5.2 -149.45 4.9 -149.6 4.65 -149.7 4.55 -149.95 4.55 -150.4 5.05 -150.6 L5.5 -150.75 5.6 -150.7 M15.8 -143.4 L16.3 -143.05 Q16.5 -141.05 14.05 -141.25 13.75 -141.3 13.6 -140.95 L13.3 -140.45 Q13.1 -140.4 13.0 -140.6 L12.9 -140.95 12.85 -141.25 13.85 -142.5 15.3 -143.45 15.8 -143.4 M14.7 -142.05 L14.75 -142.05 14.7 -142.1 14.7 -142.05 M10.8 -135.1 L10.35 -133.75 Q10.7 -131.8 10.65 -129.6 L10.7 -124.35 11.05 -120.55 Q9.25 -123.65 9.25 -128.2 9.25 -130.0 8.75 -131.75 8.5 -132.5 8.5 -133.15 7.85 -133.85 8.5 -135.45 9.0 -136.65 10.15 -136.95 10.95 -136.4 10.8 -135.1 M8.9 -118.65 L10.0 -116.95 10.4 -116.1 Q11.0 -116.25 11.45 -116.85 12.25 -117.8 12.7 -118.9 L13.35 -119.5 Q18.95 -118.35 17.95 -112.15 L19.4 -113.1 21.5 -115.05 21.75 -115.25 21.8 -115.3 Q23.45 -117.0 25.55 -118.05 L25.95 -118.0 26.3 -117.85 Q25.95 -116.4 25.25 -115.2 L25.25 -115.15 Q24.7 -114.1 23.8 -113.25 L23.2 -112.85 Q21.85 -111.8 20.0 -111.0 L18.85 -109.95 17.55 -107.85 17.55 -107.8 Q17.6 -105.6 17.25 -103.5 L17.25 -103.45 19.2 -103.0 Q19.45 -102.3 19.1 -101.65 L17.25 -98.8 16.75 -97.85 16.8 -97.85 18.4 -97.95 18.75 -97.85 17.15 -75.0 Q16.15 -60.45 7.55 -49.1 L7.45 -49.05 Q6.45 -48.65 6.0 -49.35 3.55 -49.65 2.35 -52.2 0.0 -57.45 -1.45 -63.25 L-2.85 -68.3 Q-3.8 -71.45 -3.45 -74.8 -3.35 -75.85 -3.8 -76.75 -4.25 -77.75 -4.3 -78.7 L-4.15 -78.75 Q-3.3 -78.75 -2.8 -78.05 L-2.5 -77.8 Q-4.2 -80.2 -4.75 -82.9 L-5.7 -88.05 -5.85 -88.1 -7.9 -88.0 Q-9.8 -85.65 -12.6 -88.2 -15.1 -90.5 -13.15 -92.5 -12.6 -93.05 -11.95 -92.4 -9.85 -90.3 -7.3 -89.85 -6.4 -91.4 -6.35 -93.2 -6.3 -95.3 -7.4 -97.25 -9.95 -97.1 -12.0 -98.45 -13.4 -99.4 -13.1 -101.15 -12.75 -103.05 -11.1 -104.0 -9.0 -105.3 -6.65 -105.65 L-6.0 -104.65 -5.25 -102.7 -5.15 -102.3 -5.05 -102.25 Q-4.25 -101.8 -3.75 -102.25 -2.7 -104.15 -4.25 -106.05 -5.85 -107.95 -5.95 -110.1 -2.95 -107.6 0.55 -108.7 L0.35 -112.7 -0.5 -119.35 Q-0.55 -119.85 0.0 -119.95 1.25 -119.5 1.85 -118.45 L1.55 -119.9 Q0.65 -124.5 4.15 -126.7 L5.1 -126.65 5.3 -126.6 Q6.4 -122.8 6.75 -118.65 L6.8 -118.5 7.8 -119.4 8.9 -118.65 M17.1 -118.9 L19.6 -122.6 Q20.95 -124.4 20.6 -126.5 18.65 -125.75 16.75 -126.9 16.25 -127.2 16.35 -128.0 L17.7 -129.0 20.15 -129.65 Q23.35 -128.55 21.95 -124.9 20.5 -121.2 17.35 -118.85 L17.1 -118.9 M29.7 -101.35 L29.65 -101.25 Q29.05 -100.8 28.75 -101.45 28.55 -101.85 28.9 -102.1 L29.05 -102.15 29.55 -101.9 29.7 -101.35 M2.35 -109.5 L2.8 -109.75 Q3.9 -110.45 4.35 -111.55 3.15 -113.9 2.4 -116.45 L2.35 -115.15 Q2.05 -112.3 2.35 -109.5 M29.75 -90.25 L29.3 -90.1 Q28.95 -90.1 28.75 -90.45 L28.55 -91.05 Q28.55 -91.55 28.9 -91.8 L29.05 -91.85 Q29.65 -91.7 29.85 -91.15 30.0 -90.65 29.75 -90.25 M-10.75 -126.0 Q-11.25 -125.9 -11.6 -126.25 -12.0 -126.6 -11.85 -127.05 L-11.7 -127.15 Q-11.25 -127.0 -10.9 -126.7 -10.6 -126.35 -10.75 -126.0" fill="#fdc43e" fill-rule="evenodd" stroke="none"/>
    <path d="M15.85 -141.9 Q15.65 -141.6 15.25 -141.7 14.85 -141.85 14.8 -142.2 L14.85 -142.4 14.95 -142.55 15.25 -142.7 15.8 -142.45 15.85 -141.9 M9.25 -133.45 Q8.5 -133.75 8.7 -134.65 L8.9 -135.85 8.95 -135.95 9.2 -136.1 9.35 -136.15 Q10.05 -135.65 9.9 -134.65 9.8 -133.85 9.25 -133.45 M0.35 -119.35 L0.5 -119.4 Q1.25 -118.55 1.3 -117.15 1.35 -115.95 0.6 -115.3 -0.1 -116.0 -0.25 -117.3 -0.35 -118.25 0.05 -119.1 L0.15 -119.2 0.35 -119.35 M3.35 -123.65 L4.05 -125.9 Q4.15 -126.35 4.6 -126.4 5.3 -124.8 4.9 -122.6 4.4 -119.65 6.0 -117.15 7.3 -115.15 6.7 -113.0 6.3 -112.85 6.1 -113.2 L6.05 -113.65 5.6 -113.85 5.35 -114.1 5.0 -113.35 Q4.9 -112.7 4.3 -112.85 3.0 -116.45 2.8 -120.45 2.75 -122.1 3.35 -123.65 M18.55 -128.65 L18.55 -128.55 Q18.55 -128.3 18.35 -128.2 L18.0 -127.7 18.0 -127.65 Q19.35 -129.5 21.55 -128.05 22.0 -127.75 21.55 -127.35 L19.4 -127.4 18.95 -127.05 19.05 -126.85 19.2 -126.55 19.2 -126.4 Q16.85 -124.9 16.75 -127.35 16.7 -128.6 18.0 -128.95 L18.3 -128.9 18.55 -128.65 M25.25 -117.2 Q26.0 -116.65 25.35 -115.6 L24.55 -114.15 Q23.65 -113.65 22.95 -114.35 L22.85 -114.45 22.25 -114.35 Q21.9 -114.4 21.75 -114.7 22.5 -115.85 24.0 -116.55 L25.25 -117.2 M16.1 -117.95 Q16.65 -116.6 15.95 -114.55 14.9 -111.35 15.15 -108.05 15.6 -103.0 12.2 -99.05 11.15 -97.75 10.6 -96.1 L10.25 -94.95 Q11.85 -96.6 13.3 -98.75 14.25 -100.15 15.45 -100.65 14.75 -96.25 12.3 -91.85 11.7 -90.75 11.7 -89.4 L11.7 -85.1 Q13.2 -87.75 14.0 -90.95 14.7 -93.65 16.3 -95.05 16.2 -89.8 14.9 -84.35 14.35 -81.95 14.3 -79.4 14.25 -73.85 13.2 -68.4 12.75 -65.85 12.6 -63.2 12.3 -57.3 9.0 -52.25 8.1 -50.9 7.65 -49.3 7.25 -47.95 6.1 -47.85 L6.0 -47.95 5.9 -48.15 5.85 -48.3 6.05 -48.65 5.75 -48.75 5.75 -48.7 Q4.25 -49.35 2.95 -51.3 0.95 -54.35 1.25 -58.05 1.85 -64.55 -2.25 -69.95 L-2.15 -70.15 -1.95 -70.3 -1.75 -70.35 -1.75 -70.4 Q-0.15 -68.75 2.05 -67.8 3.4 -67.25 4.75 -67.05 4.2 -68.05 3.95 -69.45 3.1 -74.25 0.0 -77.85 -3.25 -81.6 -4.05 -86.1 -2.6 -86.05 -1.85 -84.5 -1.4 -83.6 -0.55 -83.8 0.0 -86.7 -0.25 -89.8 -0.6 -93.45 -3.65 -95.55 -5.0 -96.45 -5.45 -97.85 -1.25 -98.8 -1.3 -102.7 -1.3 -103.6 -1.75 -104.45 L-3.1 -107.6 3.7 -106.8 Q4.45 -110.85 7.8 -113.0 L9.65 -113.8 Q12.05 -114.45 13.8 -116.4 L15.85 -118.9 16.1 -117.9 16.1 -117.95 M-11.55 -103.65 Q-10.05 -102.55 -9.1 -104.0 L-8.1 -104.9 Q-7.4 -103.1 -8.6 -100.85 -9.5 -99.1 -11.35 -98.45 L-11.95 -98.65 -12.3 -99.15 Q-11.9 -100.2 -11.85 -101.4 L-11.55 -103.65 M-9.3 -88.15 L-8.85 -87.45 Q-8.7 -87.05 -8.9 -86.65 L-9.0 -86.55 Q-11.05 -87.35 -12.2 -89.3 L-13.65 -91.6 Q-14.05 -92.2 -13.35 -92.4 -12.1 -91.15 -10.5 -89.9 -9.3 -89.05 -7.85 -88.65 L-7.8 -88.55 Q-7.8 -88.1 -8.25 -88.05 L-9.3 -88.15" fill="#fefd9a" fill-rule="evenodd" stroke="none"/>
    <path d="M9.0 -109.85 Q10.9 -108.55 9.2 -106.1 L7.9 -104.0 6.6 -104.05 Q6.05 -105.05 6.4 -106.25 7.1 -108.7 9.0 -109.85 M5.0 -100.2 Q6.85 -98.75 5.65 -96.0 3.9 -92.1 4.9 -87.95 5.5 -89.65 7.0 -90.75 8.75 -89.3 7.25 -86.55 L6.4 -84.55 6.0 -83.55 8.5 -73.6 Q9.25 -70.8 9.05 -67.85 8.55 -58.9 7.4 -50.1 L6.75 -47.45 Q6.35 -46.4 5.6 -47.25 4.65 -48.35 4.9 -49.95 L5.6 -55.2 Q5.25 -55.85 5.05 -56.6 4.3 -59.8 4.25 -62.8 4.25 -63.25 4.75 -63.25 L6.25 -61.55 6.65 -67.2 Q7.1 -74.5 4.2 -81.25 1.35 -87.9 2.65 -94.2 1.6 -95.6 1.6 -97.5 1.6 -99.25 2.55 -100.5 L3.0 -100.75 Q3.9 -100.1 4.25 -99.0 L4.75 -100.0 5.0 -100.2" fill="#ffffff" fill-rule="evenodd" stroke="none"/>
  </g>
</svg>
