<?xml version="1.0" encoding="UTF-8" standalone="no"?>
<svg xmlns:ffdec="https://www.free-decompiler.com/flash" xmlns:xlink="http://www.w3.org/1999/xlink" ffdec:objectType="shape" height="104.0px" width="45.6px" xmlns="http://www.w3.org/2000/svg">
  <g transform="matrix(1.0, 0.0, 0.0, 1.0, 15.4, 150.8)">
    <path d="M5.5 -150.8 L6.75 -150.55 Q7.5 -150.25 7.45 -149.5 L7.0 -149.2 5.0 -149.3 4.85 -149.55 4.7 -149.85 Q4.6 -150.0 4.65 -150.2 L4.65 -150.5 4.75 -150.6 5.0 -150.7 5.4 -150.8 5.5 -150.8 M16.4 -143.65 L16.7 -143.55 Q17.0 -141.25 14.35 -139.5 13.3 -138.85 12.7 -137.7 L11.3 -135.25 Q11.4 -134.3 11.1 -133.05 10.4 -130.2 10.75 -127.3 11.05 -124.6 10.2 -122.1 11.9 -123.6 14.55 -123.15 16.35 -122.8 17.7 -121.55 L18.9 -122.95 Q19.45 -124.0 19.55 -125.3 L19.55 -125.4 19.45 -125.5 19.4 -125.6 19.2 -125.8 19.1 -125.9 Q15.15 -125.25 16.05 -129.3 16.35 -130.55 17.65 -130.75 22.55 -131.55 22.55 -126.9 22.5 -121.85 18.25 -118.65 17.85 -118.35 17.95 -117.7 22.1 -116.25 26.5 -118.0 27.55 -118.4 27.3 -117.3 26.6 -113.7 23.0 -112.15 21.6 -111.55 20.8 -110.3 17.65 -105.35 20.8 -100.55 22.55 -97.9 20.45 -95.1 19.7 -94.1 19.6 -92.8 L18.75 -77.3 Q18.7 -75.25 18.15 -73.2 15.45 -62.45 10.15 -52.6 8.5 -49.5 6.5 -47.0 L5.9 -46.8 5.8 -46.95 5.8 -47.0 5.8 -47.1 5.8 -47.3 5.75 -47.4 Q-4.1 -54.7 -4.35 -67.2 L-4.65 -69.6 Q-6.35 -77.75 -10.0 -85.05 -11.65 -88.35 -14.3 -91.0 -16.15 -92.85 -14.95 -95.15 -13.1 -98.75 -9.9 -96.25 L-9.35 -95.4 -8.9 -94.6 Q-9.6 -98.15 -12.85 -100.15 -13.5 -100.55 -13.7 -101.3 -15.05 -105.75 -11.9 -109.5 L-8.2 -106.45 -6.3 -105.1 Q-5.95 -108.5 -6.8 -111.95 -7.7 -115.6 -6.3 -118.85 L-4.8 -117.75 Q-4.0 -116.75 -3.0 -116.4 -4.1 -119.25 -4.35 -122.5 -4.55 -124.8 -2.45 -126.3 0.45 -128.35 3.8 -129.4 5.7 -130.0 5.8 -127.95 5.95 -125.45 4.7 -123.2 4.45 -122.75 4.75 -122.25 L6.4 -118.9 Q8.25 -123.95 7.65 -129.25 L7.05 -134.9 Q6.75 -137.5 9.1 -138.2 10.3 -137.65 10.85 -136.65 L11.7 -138.15 14.1 -142.75 Q14.35 -143.35 14.9 -143.7 L16.4 -143.65 M-10.6 -126.2 L-10.85 -126.0 Q-11.35 -125.85 -11.8 -126.2 L-11.85 -126.5 -11.7 -127.0 -11.5 -127.1 Q-11.1 -127.05 -10.8 -126.8 -10.55 -126.55 -10.6 -126.2" fill="#aa0909" fill-rule="evenodd" stroke="none"/>
    <path d="M4.75 -150.0 Q4.55 -150.2 4.8 -150.3 L4.9 -150.35 5.2 -150.25 5.35 -150.0 Q5.05 -149.7 4.75 -150.0 M16.2 -142.9 L16.5 -142.75 Q16.65 -142.3 16.3 -141.95 15.55 -141.05 14.65 -141.7 L14.25 -142.1 14.25 -142.15 14.8 -142.75 15.2 -142.95 16.2 -142.9 M10.35 -131.95 Q10.55 -129.1 10.3 -126.5 8.85 -128.65 8.65 -132.0 8.45 -135.0 9.35 -137.3 L9.95 -137.2 10.3 -137.1 Q10.15 -134.55 10.35 -131.95 M0.55 -121.75 L3.4 -117.35 Q4.65 -115.2 3.55 -112.8 L3.5 -112.7 3.55 -112.6 3.6 -112.5 3.75 -112.35 3.85 -112.25 3.85 -112.1 Q7.65 -113.75 9.35 -117.8 10.3 -119.95 12.0 -121.15 13.5 -122.2 14.65 -120.8 15.85 -119.4 15.85 -117.35 15.9 -114.15 16.55 -111.05 L16.95 -110.8 19.1 -112.5 22.55 -115.1 Q22.65 -116.45 24.2 -117.0 L26.5 -117.7 Q27.1 -117.8 27.1 -117.25 27.1 -116.85 26.75 -116.55 L26.8 -116.45 26.85 -116.3 26.85 -116.2 26.85 -116.1 24.95 -114.15 Q24.2 -113.5 23.6 -114.0 21.75 -112.25 19.55 -110.8 L18.0 -109.85 Q18.7 -108.95 18.75 -107.65 18.75 -105.5 18.35 -103.4 L18.45 -102.9 Q21.55 -101.7 19.85 -98.3 18.9 -96.4 18.25 -94.2 16.1 -86.6 17.55 -78.95 18.35 -74.7 16.3 -70.85 14.05 -66.55 14.2 -61.75 14.2 -60.8 13.7 -59.95 9.9 -53.75 6.75 -47.35 -1.2 -51.25 -1.35 -60.55 -1.4 -64.1 -2.15 -67.55 L-3.05 -73.0 Q-3.7 -77.95 -6.2 -82.3 -6.95 -83.65 -6.7 -85.3 -6.45 -85.6 -6.05 -85.6 L-4.4 -85.6 -5.6 -89.15 -5.75 -89.1 Q-7.55 -89.2 -6.35 -88.5 -9.9 -87.1 -12.95 -89.8 -13.75 -90.5 -14.05 -91.55 -14.7 -93.7 -13.5 -95.4 -13.2 -95.85 -12.7 -95.95 L-11.95 -95.9 -11.55 -95.75 -11.4 -95.4 Q-11.35 -94.85 -11.55 -94.4 L-11.75 -93.75 Q-10.9 -93.0 -10.35 -91.85 L-9.25 -89.8 -9.05 -89.55 -5.7 -89.4 Q-6.4 -92.05 -6.6 -94.8 L-6.75 -97.0 -6.8 -97.35 -7.0 -97.45 Q-10.25 -98.85 -12.4 -101.8 -14.55 -104.75 -12.0 -105.8 L-11.65 -105.7 Q-9.55 -107.2 -7.9 -104.5 L-6.2 -102.1 Q-2.4 -103.9 -4.0 -108.75 -4.7 -110.8 -4.65 -112.95 L-4.55 -115.45 Q-3.6 -115.1 -2.8 -114.1 L-1.25 -112.25 Q-0.05 -116.95 -3.0 -120.6 -4.7 -122.75 -2.55 -124.8 -0.9 -126.4 1.1 -127.4 3.85 -126.7 2.1 -124.6 1.1 -123.35 0.55 -121.75 M20.0 -124.2 Q20.6 -125.85 20.7 -127.7 L20.7 -128.05 Q20.65 -127.3 19.7 -126.65 18.3 -125.65 16.7 -126.4 16.15 -127.35 16.5 -128.4 17.15 -130.3 19.2 -130.45 22.4 -129.5 21.75 -125.85 21.25 -123.15 19.75 -121.65 19.55 -122.85 20.0 -124.2 M29.85 -90.45 Q29.2 -90.4 29.2 -90.95 29.0 -91.0 29.2 -91.15 29.2 -91.65 29.7 -91.7 30.3 -91.7 30.2 -91.15 L29.85 -90.45 M-10.6 -125.95 Q-11.0 -125.8 -11.3 -126.2 -11.65 -126.6 -11.2 -126.75 L-10.7 -126.45 Q-10.5 -126.2 -10.6 -125.95" fill="#fdc43e" fill-rule="evenodd" stroke="none"/>
    <path d="M8.85 -135.1 Q8.55 -135.35 8.65 -135.75 L8.8 -136.7 8.9 -136.75 9.1 -136.9 9.25 -136.95 Q9.9 -136.65 9.8 -135.75 9.65 -135.0 8.85 -135.1 M0.35 -124.45 L-1.3 -122.65 Q-0.55 -121.25 0.6 -119.95 L0.75 -119.95 0.95 -119.9 1.1 -119.8 1.3 -119.15 2.4 -118.1 Q4.4 -116.35 3.6 -114.55 3.15 -114.6 3.15 -114.95 L3.0 -115.55 2.8 -115.05 1.9 -114.95 Q0.4 -118.1 -2.7 -120.5 -3.95 -121.5 -3.15 -122.75 L-1.95 -124.1 Q-0.2 -125.5 1.0 -127.15 L1.3 -127.05 1.5 -126.9 Q1.35 -125.5 0.35 -124.45 M19.0 -129.45 Q19.2 -129.0 18.9 -128.6 L18.1 -127.6 18.0 -127.5 Q18.45 -127.5 18.65 -128.0 18.95 -128.65 19.55 -128.55 19.75 -126.2 17.45 -127.1 16.9 -127.3 17.1 -127.95 L18.1 -130.15 18.65 -129.9 19.0 -129.45 M26.25 -116.0 Q25.8 -115.1 25.0 -115.05 L24.8 -115.35 Q24.7 -115.7 24.9 -115.95 L24.95 -116.0 23.75 -115.65 Q23.3 -115.65 23.25 -116.05 23.9 -116.85 25.15 -117.25 L25.75 -117.45 Q26.75 -117.15 26.25 -116.0 M12.95 -113.5 Q12.7 -109.0 10.75 -104.95 10.2 -103.7 10.45 -102.3 L15.55 -107.45 Q16.6 -108.5 17.75 -108.3 16.1 -104.1 13.7 -99.9 12.8 -98.3 12.4 -96.45 L11.85 -94.15 Q13.25 -95.6 14.3 -97.65 15.0 -99.05 16.2 -99.5 L14.45 -89.25 Q13.85 -85.8 14.05 -82.25 14.35 -77.4 13.4 -72.6 11.5 -63.35 8.15 -54.55 7.15 -51.8 7.15 -48.9 L6.95 -48.75 6.45 -48.55 6.45 -48.4 6.4 -48.0 6.15 -47.8 Q4.85 -49.5 4.25 -52.1 3.05 -57.5 1.15 -62.65 0.3 -65.0 0.95 -67.45 1.2 -68.25 1.05 -69.1 0.1 -75.25 -1.85 -81.0 L-1.8 -81.15 2.3 -77.75 Q3.3 -76.95 4.0 -77.3 L-1.75 -86.9 Q-3.8 -90.05 -3.75 -93.4 -2.65 -93.25 -1.9 -92.25 -1.65 -91.95 -1.25 -92.0 -1.3 -94.8 -1.85 -97.55 -2.35 -100.0 -3.55 -102.2 0.45 -103.2 -0.45 -107.6 L-1.05 -111.0 -1.0 -111.15 Q2.8 -109.2 6.75 -109.5 L7.1 -109.8 12.75 -117.8 Q13.1 -116.0 12.95 -113.5 M-10.55 -105.3 L-9.75 -106.15 Q-8.9 -104.8 -10.25 -103.05 -11.4 -101.65 -12.8 -101.95 L-12.7 -103.65 -12.75 -105.3 -12.55 -105.8 Q-11.85 -106.0 -11.6 -105.25 L-11.55 -104.45 Q-10.95 -104.65 -10.55 -105.3 M-12.1 -95.45 L-11.7 -95.2 Q-11.55 -94.85 -11.75 -94.55 L-12.55 -93.5 -12.65 -93.25 Q-11.75 -93.45 -11.15 -92.55 L-10.15 -90.9 -10.3 -90.75 -11.25 -90.8 -11.1 -90.6 Q-10.85 -90.35 -10.9 -89.95 L-11.15 -89.6 Q-13.55 -89.8 -13.9 -92.25 -14.25 -94.2 -12.65 -95.4 L-12.5 -95.45 -12.1 -95.45" fill="#fefd9a" fill-rule="evenodd" stroke="none"/>
    <path d="M7.35 -96.6 Q9.3 -95.15 7.0 -92.7 L5.6 -90.95 5.25 -90.4 Q5.95 -86.35 7.9 -82.5 8.55 -81.2 8.75 -79.75 10.4 -68.2 8.05 -56.75 7.1 -51.95 6.75 -47.25 6.75 -46.9 6.35 -47.1 4.5 -47.9 4.85 -50.3 5.85 -56.9 6.45 -63.55 5.9 -64.05 5.6 -64.9 4.35 -68.45 4.0 -71.8 3.95 -72.15 4.4 -72.2 L4.6 -72.25 Q6.0 -71.05 6.85 -69.4 L7.05 -73.2 Q7.35 -79.0 4.85 -84.2 2.0 -90.15 2.25 -96.9 2.35 -99.7 4.75 -100.85 6.7 -99.8 5.15 -97.75 4.75 -97.25 4.75 -96.55 4.7 -95.35 4.8 -94.15 5.75 -95.7 7.35 -96.6" fill="#ffffff" fill-rule="evenodd" stroke="none"/>
  </g>
</svg>
