<?xml version="1.0" encoding="UTF-8" standalone="no"?>
<svg xmlns:ffdec="https://www.free-decompiler.com/flash" xmlns:xlink="http://www.w3.org/1999/xlink" ffdec:objectType="shape" height="104.05px" width="42.0px" xmlns="http://www.w3.org/2000/svg">
  <g transform="matrix(1.0, 0.0, 0.0, 1.0, 14.2, 150.6)">
    <path d="M5.2 -149.75 L5.05 -149.9 5.05 -150.0 5.2 -150.35 5.6 -150.6 6.4 -150.5 Q6.75 -150.45 6.9 -150.1 L6.75 -149.75 Q6.0 -149.05 5.2 -149.75 M11.6 -137.3 L13.3 -140.6 Q14.4 -142.5 16.4 -143.3 17.85 -141.35 14.85 -140.25 L14.25 -139.7 Q13.1 -137.9 11.6 -137.3 M8.95 -139.1 L9.7 -138.95 Q9.95 -138.7 10.35 -138.65 12.05 -133.95 11.05 -129.0 10.65 -127.05 12.1 -125.2 12.8 -124.35 13.0 -123.15 13.2 -121.95 13.95 -120.95 18.05 -121.05 19.3 -124.65 19.75 -125.9 19.55 -127.15 16.55 -125.7 16.5 -129.0 16.45 -132.2 19.55 -131.15 20.65 -130.75 21.35 -129.8 L22.6 -128.3 Q22.5 -126.3 21.8 -124.55 21.0 -122.45 19.4 -120.7 L19.75 -120.7 20.8 -121.05 20.95 -121.05 Q22.1 -119.55 20.95 -118.0 19.8 -116.5 19.4 -114.65 22.85 -117.2 26.6 -119.3 27.15 -119.65 27.45 -118.95 28.65 -116.0 25.6 -113.85 L21.35 -111.4 Q22.7 -111.7 23.95 -110.65 20.35 -105.35 18.95 -99.15 18.7 -98.0 18.9 -96.8 19.7 -92.25 16.55 -88.55 L20.25 -88.0 Q21.0 -80.05 18.65 -72.6 17.35 -68.45 15.15 -64.55 12.7 -60.25 10.65 -55.65 L6.4 -46.55 Q2.75 -49.05 0.2 -52.7 -2.15 -56.0 -2.15 -60.1 -2.25 -70.15 -6.0 -79.05 -7.15 -81.8 -7.5 -84.7 L-8.8 -86.15 -12.4 -89.45 Q-14.0 -90.65 -14.15 -92.6 -14.5 -96.35 -11.2 -97.5 L-9.85 -97.5 -9.35 -97.25 Q-9.35 -94.75 -9.5 -92.15 -9.6 -90.85 -8.65 -89.9 L-7.6 -88.95 -7.25 -91.7 Q-6.75 -94.3 -7.3 -96.8 -7.85 -99.2 -10.0 -100.45 -11.35 -101.25 -12.5 -102.25 -15.75 -105.0 -12.45 -107.75 -9.1 -110.6 -7.35 -106.95 L-6.05 -104.8 Q-4.0 -106.4 -4.9 -109.3 -5.4 -111.0 -6.6 -112.4 -7.05 -112.9 -6.85 -113.5 L-4.0 -113.7 Q-3.6 -115.9 -6.65 -116.45 -9.75 -117.0 -12.05 -118.9 -13.0 -119.7 -13.3 -120.9 -11.3 -121.85 -10.95 -123.8 -10.8 -124.7 -11.3 -125.45 L-11.85 -126.5 -11.9 -126.85 Q-11.95 -127.8 -10.0 -127.3 L-6.75 -126.5 Q-5.75 -126.25 -4.85 -126.95 -1.45 -129.65 1.45 -132.7 3.1 -130.8 3.25 -128.15 3.35 -125.8 1.85 -123.65 4.65 -123.55 4.75 -120.8 L4.6 -118.6 Q7.8 -123.05 8.95 -128.55 9.05 -129.15 8.75 -129.75 6.45 -134.5 8.7 -138.9 L8.95 -139.1" fill="#aa0909" fill-rule="evenodd" stroke="none"/>
    <path d="M16.1 -142.55 L16.4 -142.5 16.7 -142.3 16.75 -142.25 16.5 -141.7 Q16.1 -141.4 15.6 -141.25 L15.2 -141.65 14.95 -142.15 14.95 -142.2 15.6 -142.45 16.1 -142.55 M9.2 -137.9 Q10.8 -136.55 10.4 -134.0 10.15 -132.1 10.45 -130.35 L9.75 -130.3 9.25 -130.8 8.9 -134.45 Q8.55 -136.5 9.2 -137.9 M2.55 -120.55 Q2.55 -119.9 2.15 -119.45 L2.25 -117.15 1.95 -115.3 3.6 -113.55 4.2 -113.05 Q6.6 -116.05 7.95 -119.85 9.1 -123.15 10.65 -126.0 L10.9 -126.0 11.1 -125.9 11.2 -125.85 12.1 -121.4 12.7 -117.2 Q15.3 -120.65 18.75 -119.35 L18.9 -118.9 Q18.45 -114.8 16.1 -111.3 L15.65 -110.6 Q18.35 -111.75 20.5 -113.6 L19.9 -113.4 19.8 -113.45 Q20.8 -114.65 22.3 -115.45 L22.95 -116.25 Q23.8 -117.35 24.9 -118.05 L25.55 -118.65 Q28.65 -118.25 27.05 -116.25 26.65 -115.65 25.9 -115.75 L24.5 -115.1 23.4 -114.65 22.4 -113.85 Q19.2 -111.3 15.25 -109.85 L14.9 -109.2 20.25 -110.2 Q19.3 -107.05 17.6 -103.9 15.3 -99.7 16.35 -94.95 16.7 -93.55 16.05 -92.2 14.1 -88.25 13.35 -83.95 14.9 -84.4 16.05 -86.05 16.5 -86.6 17.15 -86.7 19.45 -81.6 17.55 -75.9 L14.75 -66.8 14.65 -66.5 14.3 -65.95 12.85 -63.75 Q12.1 -62.7 11.75 -61.45 L8.85 -51.9 Q8.3 -50.25 7.25 -49.4 L7.8 -49.9 7.0 -48.75 Q6.05 -47.55 4.5 -48.4 2.05 -49.7 1.6 -52.7 L0.9 -57.35 Q0.15 -62.6 0.0 -68.1 -0.05 -70.55 -1.0 -72.9 L-3.15 -78.4 Q-4.6 -82.2 -2.85 -85.85 -2.45 -86.75 -2.65 -87.75 -3.85 -93.25 -5.8 -98.45 -6.15 -99.35 -6.9 -100.05 L-7.7 -101.1 Q-9.5 -102.4 -11.55 -102.9 -12.3 -102.25 -13.5 -103.6 L-13.75 -104.35 Q-14.0 -107.15 -11.7 -107.55 L-11.2 -107.6 Q-10.45 -107.6 -9.75 -108.05 -7.55 -107.45 -8.6 -104.9 -8.7 -104.55 -8.45 -104.25 L-6.7 -102.15 Q-2.95 -102.5 -2.7 -106.65 -2.6 -108.2 -3.25 -109.55 L-3.8 -111.3 Q-1.4 -112.05 -0.75 -114.2 L-0.7 -114.3 -2.05 -115.35 Q-6.65 -119.1 -12.2 -121.1 -9.55 -121.4 -9.95 -123.5 L-10.55 -124.7 Q-11.25 -125.55 -11.3 -126.65 -9.75 -125.95 -8.1 -124.7 L-5.5 -124.65 Q-1.9 -126.85 0.35 -130.15 2.4 -126.5 -0.25 -123.55 -3.85 -119.45 0.3 -116.2 L0.3 -116.25 0.35 -116.3 0.35 -116.35 0.2 -118.45 -0.25 -118.5 Q-0.6 -118.8 -0.55 -119.2 L-0.55 -120.15 -0.55 -120.55 0.0 -121.0 Q0.25 -121.35 0.65 -121.4 L1.25 -121.7 1.9 -121.65 2.25 -121.5 2.55 -120.55 M17.1 -128.45 Q16.35 -130.65 18.5 -131.25 20.35 -131.3 21.05 -129.75 L21.95 -127.25 21.9 -127.1 21.85 -127.0 21.75 -126.9 21.7 -126.9 21.5 -126.85 21.5 -126.45 21.45 -125.4 Q21.35 -124.7 20.7 -124.8 20.4 -125.05 20.5 -125.45 L20.75 -126.95 20.55 -128.0 20.55 -128.1 20.05 -128.15 Q18.1 -125.4 17.1 -128.45 M-10.2 -96.35 L-9.7 -96.1 Q-10.5 -94.35 -10.75 -92.6 -11.05 -90.0 -9.05 -89.3 -11.45 -88.05 -13.1 -91.35 -14.75 -94.6 -10.8 -96.45 L-10.2 -96.35" fill="#fdc43e" fill-rule="evenodd" stroke="none"/>
    <path d="M9.35 -136.05 Q9.0 -136.05 8.9 -136.4 L8.9 -136.95 8.95 -137.0 9.2 -137.15 9.35 -137.2 Q9.85 -137.1 9.85 -136.6 9.8 -136.1 9.35 -136.05 M0.5 -118.8 Q-0.3 -119.2 0.15 -120.1 0.55 -120.9 1.25 -121.2 2.15 -120.65 1.6 -119.75 1.2 -119.1 0.5 -118.8 M18.65 -128.4 L18.8 -128.1 Q18.35 -127.3 17.4 -127.85 L17.15 -128.05 Q17.0 -128.85 17.6 -129.45 18.0 -129.8 17.9 -130.5 L17.95 -130.65 18.05 -130.75 18.2 -130.85 18.35 -130.9 Q19.0 -130.6 18.95 -129.8 18.95 -129.15 18.45 -128.75 18.25 -128.6 18.65 -128.4 M10.55 -122.95 L10.75 -123.1 10.9 -123.15 Q12.4 -120.15 10.9 -116.6 9.7 -113.75 11.05 -111.25 L14.5 -116.35 Q15.5 -118.0 16.85 -118.8 16.7 -114.1 14.35 -109.6 L12.15 -106.05 Q11.0 -104.45 10.6 -102.5 13.45 -104.1 15.7 -107.2 16.7 -108.65 18.1 -108.8 17.35 -106.5 15.7 -104.2 11.4 -98.25 12.35 -90.85 12.65 -88.65 12.05 -86.55 10.35 -80.3 10.35 -73.65 12.6 -76.4 14.0 -79.9 14.95 -82.25 16.0 -84.2 16.65 -82.15 16.05 -79.5 14.95 -74.85 13.4 -70.35 11.35 -64.45 8.85 -58.65 6.8 -53.8 7.8 -48.65 7.9 -48.35 7.5 -48.2 5.15 -52.95 2.9 -58.2 2.4 -59.35 2.45 -60.65 2.7 -65.9 1.75 -71.0 1.6 -71.75 1.95 -72.45 3.45 -75.65 2.5 -78.95 L0.95 -82.1 -1.15 -85.3 Q1.4 -84.45 1.9 -86.65 2.35 -88.65 1.3 -90.6 -1.25 -95.6 -4.15 -100.25 L-4.15 -100.5 -0.85 -100.65 Q-0.4 -100.8 -0.45 -101.45 -0.65 -104.4 -1.75 -107.25 1.7 -108.35 0.25 -111.4 -0.45 -112.9 -0.65 -114.25 L3.2 -111.55 Q4.95 -110.15 6.7 -111.4 8.2 -114.4 9.05 -117.7 L10.45 -122.85 10.55 -122.95 M27.3 -117.7 L27.15 -116.95 26.65 -116.1 26.55 -116.05 25.8 -116.15 25.7 -116.45 25.7 -116.55 25.7 -116.65 25.95 -116.95 26.0 -117.0 26.05 -117.05 25.1 -117.2 24.95 -117.35 24.9 -117.45 24.95 -117.75 25.4 -118.0 25.4 -118.05 26.9 -118.05 27.3 -117.8 27.3 -117.7 M-0.25 -127.15 Q0.25 -126.0 -1.35 -124.5 -3.15 -122.75 -5.55 -122.8 L-5.9 -123.05 -5.85 -123.15 -5.8 -123.35 -5.65 -123.65 -5.7 -123.75 -5.7 -123.9 -5.7 -124.1 Q-3.35 -124.5 -1.75 -126.15 -1.1 -126.85 -0.25 -127.15 M-8.0 -122.05 L-5.65 -122.2 Q-5.0 -122.0 -5.05 -121.4 L-5.35 -120.55 -8.35 -121.4 -8.45 -121.65 Q-8.45 -122.05 -8.0 -122.05 M-6.0 -119.25 L-5.75 -119.4 -5.7 -119.5 -5.7 -119.85 -5.6 -120.05 -5.25 -120.2 Q-3.6 -119.75 -2.2 -118.6 -1.05 -117.6 -0.6 -116.3 -0.7 -116.05 -1.0 -116.05 L-1.5 -116.15 -1.6 -116.2 -1.8 -116.05 -2.0 -115.95 -4.2 -117.4 -6.2 -118.85 -6.2 -119.0 -6.0 -119.25 M-10.7 -106.45 Q-10.4 -106.95 -9.9 -106.8 -9.4 -105.75 -10.55 -104.8 -11.25 -104.25 -12.0 -104.25 L-12.25 -103.85 Q-12.5 -103.4 -13.0 -103.6 -13.5 -104.15 -12.9 -104.65 L-12.8 -104.7 -12.9 -105.55 -12.6 -106.65 -12.25 -106.9 Q-11.8 -106.8 -11.8 -106.35 L-11.75 -106.2 -11.45 -106.2 -11.25 -106.2 -10.85 -106.15 -10.7 -106.45 M-11.4 -94.8 Q-11.75 -94.45 -11.7 -93.95 L-11.4 -93.05 Q-10.95 -92.4 -10.95 -91.7 L-11.0 -91.6 -11.55 -91.5 -11.75 -91.6 -11.8 -91.6 -11.9 -91.5 -12.05 -91.35 -12.25 -91.3 Q-13.05 -91.7 -13.25 -92.6 -13.6 -94.4 -12.05 -95.55 L-11.35 -95.9 -10.5 -95.85 Q-10.1 -95.85 -10.05 -95.45 L-10.05 -95.35 Q-10.4 -94.65 -11.35 -94.8 L-11.4 -94.8" fill="#fefd9a" fill-rule="evenodd" stroke="none"/>
    <path d="M7.25 -101.0 Q9.1 -99.75 7.4 -97.3 L6.6 -96.4 5.75 -95.8 Q5.75 -94.1 6.35 -92.5 8.25 -87.0 8.1 -81.15 7.9 -72.8 6.65 -64.65 7.75 -67.3 9.3 -69.75 L9.6 -69.95 Q11.4 -68.4 9.7 -65.55 8.85 -64.1 8.25 -62.45 7.2 -59.4 6.55 -56.35 L7.35 -47.5 Q7.4 -47.1 6.95 -47.2 5.25 -47.55 4.95 -49.6 4.0 -55.3 4.2 -61.15 4.45 -67.1 5.2 -72.95 L5.15 -73.0 4.75 -73.6 Q3.15 -77.35 3.9 -80.9 3.95 -81.25 4.35 -81.25 5.3 -80.3 5.85 -79.0 6.4 -87.4 3.85 -95.5 L3.35 -97.8 Q2.95 -100.45 4.85 -101.6 5.9 -101.1 6.15 -100.05 L7.25 -101.0" fill="#ffffff" fill-rule="evenodd" stroke="none"/>
  </g>
</svg>
