<?xml version="1.0" encoding="UTF-8" standalone="no"?>
<svg xmlns:ffdec="https://www.free-decompiler.com/flash" xmlns:xlink="http://www.w3.org/1999/xlink" ffdec:objectType="shape" height="94.7px" width="44.9px" xmlns="http://www.w3.org/2000/svg">
  <g transform="matrix(1.0, 0.0, 0.0, 1.0, 15.85, 143.0)">
    <path d="M16.5 -143.0 L16.7 -142.9 16.85 -142.85 Q17.2 -141.5 15.7 -140.6 14.45 -139.85 13.3 -139.85 L14.7 -141.8 Q15.3 -142.6 16.3 -143.0 L16.5 -143.0 M16.3 -133.8 L16.9 -133.2 Q17.05 -133.0 17.35 -132.85 L18.95 -133.75 Q19.8 -134.25 20.55 -133.75 23.6 -129.5 20.85 -125.25 L20.5 -124.25 20.3 -123.15 23.2 -124.7 24.25 -125.1 Q24.4 -123.25 23.45 -121.05 22.4 -118.45 21.65 -115.8 23.15 -116.7 24.4 -118.15 25.55 -119.45 27.05 -120.1 30.35 -119.25 28.2 -116.35 26.8 -114.55 24.5 -113.85 L20.85 -112.7 20.55 -111.25 Q20.05 -108.35 19.2 -105.65 17.8 -100.9 15.4 -96.65 17.4 -97.3 19.1 -98.55 L19.95 -98.65 Q18.65 -89.55 17.8 -80.2 L17.2 -77.4 Q14.45 -68.9 11.35 -60.6 L10.75 -58.35 Q10.1 -54.5 8.5 -51.2 8.05 -50.3 7.2 -49.7 L5.95 -49.0 6.7 -48.45 5.6 -48.9 5.15 -48.8 5.0 -49.25 Q3.15 -50.4 1.75 -52.65 -2.4 -59.2 -1.7 -67.55 -1.6 -69.15 -2.0 -70.75 L-5.1 -83.3 -7.6 -86.1 Q-8.85 -87.5 -10.55 -88.4 -15.8 -91.1 -13.45 -96.3 -12.55 -98.35 -10.25 -98.5 -5.95 -97.7 -8.05 -94.6 L-9.05 -92.85 Q-9.95 -91.0 -8.2 -89.6 L-5.5 -87.55 -5.4 -87.95 Q-3.05 -97.4 -11.5 -102.4 -14.0 -103.85 -14.25 -106.45 -14.55 -109.55 -11.1 -108.9 -9.25 -108.55 -7.8 -107.4 -8.0 -108.5 -7.15 -108.95 -5.8 -109.75 -4.35 -109.7 -4.1 -110.2 -4.1 -110.9 -4.1 -112.0 -5.05 -112.65 L-5.35 -113.0 -5.4 -113.1 -5.4 -113.4 -5.4 -113.9 -5.35 -114.2 Q-8.5 -113.25 -11.15 -114.55 L-11.25 -114.6 -11.4 -115.7 Q-11.65 -116.65 -11.5 -117.6 L-11.35 -118.2 Q-15.1 -117.45 -15.8 -120.7 L-15.75 -121.9 -14.1 -122.75 -12.9 -123.6 Q-16.15 -127.95 -11.7 -130.85 L-10.45 -130.9 Q-5.5 -127.45 -0.9 -131.7 0.6 -133.05 2.25 -133.1 L1.75 -129.3 Q1.6 -126.95 0.65 -124.8 L3.35 -124.4 4.1 -124.2 Q8.35 -127.7 8.75 -132.75 8.8 -133.55 8.35 -134.3 6.95 -136.9 8.95 -138.7 11.85 -137.65 11.4 -133.9 L10.8 -128.85 Q13.2 -129.3 14.4 -131.65 15.05 -132.9 16.05 -133.9 L16.3 -133.8 M18.1 -127.95 L18.35 -127.25 18.7 -125.1 18.8 -124.8 19.55 -126.7 Q20.0 -127.85 20.0 -128.95 L19.5 -128.55 Q18.8 -128.05 18.1 -127.95" fill="#aa0909" fill-rule="evenodd" stroke="none"/>
    <path d="M15.6 -141.45 L15.6 -141.6 15.7 -142.15 15.9 -142.35 16.3 -142.35 16.55 -142.15 16.5 -141.8 Q16.25 -141.4 15.8 -141.4 L15.6 -141.45 M18.5 -132.5 L20.0 -132.45 20.2 -132.45 20.7 -131.85 Q21.25 -130.9 21.3 -129.8 21.3 -129.15 20.95 -128.75 20.65 -128.6 20.55 -128.9 L20.2 -130.55 19.75 -131.65 19.5 -130.45 Q18.6 -128.1 16.55 -129.25 L17.0 -125.65 Q17.15 -122.9 17.7 -120.3 19.0 -120.65 20.3 -121.6 L21.25 -121.65 Q19.25 -114.0 17.5 -106.15 16.95 -103.75 16.0 -101.65 L14.8 -99.55 Q13.0 -96.85 13.25 -93.35 L13.2 -92.4 16.15 -94.25 16.9 -94.35 Q17.15 -89.9 16.15 -85.7 17.65 -81.65 15.8 -77.1 11.45 -66.5 9.5 -55.35 L9.25 -53.55 Q8.95 -49.85 5.65 -49.05 5.35 -48.75 4.9 -49.2 1.8 -52.4 1.55 -57.1 1.45 -59.8 1.5 -62.55 1.55 -68.4 -0.9 -73.45 -2.0 -75.75 -2.65 -78.35 -3.7 -82.7 -1.75 -86.6 -0.8 -88.4 -1.3 -90.4 -2.05 -93.55 -3.85 -96.3 -5.45 -98.8 -4.85 -101.2 -8.45 -100.55 -11.95 -103.1 L-13.4 -104.65 Q-15.5 -107.45 -12.15 -108.3 -8.85 -108.0 -7.65 -104.5 -6.75 -101.95 -4.6 -102.25 -5.0 -103.25 -5.75 -104.2 -6.65 -105.25 -6.6 -106.55 -2.75 -105.85 -2.45 -109.3 -2.15 -112.5 -3.55 -115.5 -2.55 -115.7 -1.65 -116.05 L-3.8 -117.55 Q-4.9 -118.4 -5.6 -117.35 -7.2 -114.95 -10.1 -116.6 -11.0 -117.1 -10.8 -118.2 L-10.75 -118.3 -9.9 -119.15 Q-9.4 -119.55 -8.75 -119.5 L-8.75 -119.55 Q-6.5 -119.75 -4.5 -118.9 -5.8 -119.95 -7.45 -120.45 -9.65 -121.15 -10.25 -122.85 L-10.3 -123.25 -10.2 -123.3 -10.1 -123.45 -9.9 -123.5 -9.9 -123.55 Q-7.05 -122.45 -4.5 -120.55 -4.95 -122.9 -7.85 -123.5 -8.9 -123.75 -9.35 -124.9 -9.75 -125.8 -9.45 -126.8 -4.55 -124.45 -1.45 -128.2 L-0.75 -128.8 Q-0.35 -125.25 -3.0 -122.1 -4.4 -120.5 -2.8 -119.15 -1.9 -118.4 -1.5 -117.45 L-1.0 -116.4 0.7 -117.55 0.7 -120.3 0.7 -120.55 0.6 -120.65 Q0.4 -120.75 0.25 -120.9 L0.1 -121.0 0.15 -121.6 Q0.15 -122.3 0.75 -122.75 L0.95 -122.85 1.45 -122.85 1.65 -122.8 2.0 -122.05 1.7 -120.8 1.5 -120.55 1.75 -118.5 1.85 -118.45 Q2.2 -118.05 2.7 -118.0 4.75 -120.5 6.0 -123.6 6.8 -125.5 8.15 -126.9 8.9 -125.95 9.15 -124.65 9.35 -123.65 9.7 -122.75 11.25 -125.9 13.7 -128.75 15.05 -130.35 16.0 -131.9 L16.55 -129.3 16.55 -129.95 Q16.65 -131.35 17.8 -132.15 L18.5 -132.5 M8.8 -137.3 L8.9 -137.4 9.15 -137.6 9.35 -137.7 Q10.45 -136.9 10.5 -135.05 10.55 -133.55 9.65 -132.65 8.85 -133.55 8.9 -135.0 L8.8 -137.3 M27.55 -119.45 Q29.75 -117.25 26.2 -115.6 L22.2 -113.7 Q20.95 -113.15 20.55 -114.05 23.5 -114.9 25.4 -117.55 L26.7 -118.95 27.55 -119.45 M-12.3 -126.75 Q-12.5 -128.05 -11.75 -128.8 -11.0 -128.0 -10.65 -126.75 L-9.95 -124.9 Q-10.55 -124.35 -11.5 -124.4 -11.9 -124.4 -12.2 -124.7 L-12.3 -126.75 M-10.9 -121.8 L-10.65 -121.9 -10.5 -121.95 -10.25 -122.05 Q-9.65 -121.9 -10.0 -121.4 -10.2 -121.1 -9.95 -120.75 -12.35 -119.8 -13.95 -121.3 L-10.9 -121.8 M-8.45 -97.35 Q-6.9 -95.15 -9.6 -94.35 -12.5 -93.45 -10.65 -90.95 L-10.65 -90.75 -10.85 -90.55 Q-10.9 -90.1 -10.1 -89.65 L-10.0 -89.3 Q-12.6 -89.65 -13.25 -93.0 -13.95 -96.75 -9.6 -97.45 L-8.65 -97.4 -8.45 -97.35" fill="#fdc43e" fill-rule="evenodd" stroke="none"/>
    <path d="M18.1 -131.15 L18.25 -131.2 Q18.9 -130.95 19.0 -130.25 19.1 -129.5 18.5 -129.3 17.9 -129.4 17.85 -129.95 17.75 -130.45 17.8 -130.95 L17.9 -131.0 18.1 -131.15 M1.8 -121.8 Q1.75 -121.3 1.3 -120.95 0.8 -120.55 0.3 -121.05 0.2 -121.4 0.5 -121.65 0.85 -122.0 1.25 -122.15 L1.55 -122.05 1.8 -121.8 M8.3 -118.85 Q8.45 -117.1 9.3 -115.55 10.9 -119.4 11.95 -123.55 12.8 -126.85 14.75 -129.35 15.85 -125.15 15.4 -120.2 L15.05 -116.35 Q14.9 -114.4 14.25 -112.55 L16.45 -116.3 Q17.4 -117.85 18.65 -117.65 16.8 -108.6 12.95 -100.05 12.25 -98.5 12.2 -96.7 12.05 -89.0 9.35 -81.7 11.55 -83.85 12.4 -87.15 12.9 -89.25 13.9 -90.9 14.7 -88.4 14.2 -85.35 13.25 -79.6 10.5 -74.45 7.3 -68.45 8.2 -61.65 9.0 -55.6 7.6 -49.85 L7.35 -49.25 6.9 -48.7 Q5.05 -50.75 4.85 -54.1 4.65 -56.9 3.95 -59.6 1.85 -67.35 2.35 -75.5 2.7 -81.35 0.35 -86.4 -0.65 -88.55 -0.95 -90.8 -1.1 -91.65 -0.85 -92.45 0.05 -95.1 -0.55 -97.9 -1.3 -101.05 -3.5 -103.3 -2.0 -103.75 -0.5 -104.5 0.5 -105.05 0.2 -106.25 -0.45 -108.5 -0.65 -110.7 0.5 -111.35 1.95 -111.05 L1.0 -113.45 Q0.45 -114.55 0.45 -115.7 2.15 -115.8 3.95 -114.7 L4.4 -114.75 Q4.7 -117.15 5.35 -119.55 6.0 -121.75 7.35 -122.8 8.1 -120.95 8.3 -118.85 M26.9 -119.3 L27.6 -118.7 27.65 -118.6 Q28.15 -118.15 27.6 -117.35 27.1 -116.6 26.3 -116.9 26.0 -117.5 26.4 -118.05 L26.65 -118.3 26.5 -118.6 Q26.3 -119.2 26.9 -119.3 M-2.5 -125.45 Q-1.85 -124.0 -4.3 -123.45 -7.0 -122.85 -8.55 -124.7 L-8.6 -124.95 -3.5 -125.25 -2.5 -125.45 M-9.5 -123.2 L-8.25 -122.8 Q-7.55 -122.5 -7.55 -121.85 -8.1 -121.25 -9.0 -121.65 -10.3 -122.2 -9.65 -123.1 L-9.5 -123.2 M-9.1 -116.5 L-10.4 -117.3 -10.35 -117.4 -10.35 -117.55 -10.3 -117.65 -10.2 -117.75 -10.05 -117.85 -9.9 -117.9 -7.0 -117.85 Q-6.0 -117.8 -5.55 -117.2 L-5.55 -117.1 -5.75 -116.9 Q-6.9 -117.05 -7.1 -116.55 L-7.15 -116.5 Q-8.1 -116.2 -9.1 -116.5 M-10.4 -106.4 Q-10.85 -105.45 -11.5 -105.35 L-12.0 -105.2 Q-13.2 -104.9 -13.55 -105.7 L-13.05 -106.2 Q-13.35 -106.5 -13.2 -106.9 -13.05 -107.4 -12.5 -107.45 L-12.05 -107.1 -11.75 -106.7 -10.85 -106.7 Q-10.5 -106.7 -10.4 -106.4 M-12.7 -94.95 L-12.7 -95.2 Q-11.4 -95.4 -10.5 -96.2 L-9.8 -96.8 -9.6 -96.9 Q-9.2 -96.85 -8.95 -96.6 L-8.65 -96.05 -8.75 -95.6 -9.1 -95.05 -9.15 -94.85 -12.5 -94.1 -12.7 -94.45 -12.7 -94.95" fill="#fefd9a" fill-rule="evenodd" stroke="none"/>
    <path d="M6.85 -100.2 Q8.85 -99.1 8.85 -96.25 8.85 -90.45 7.7 -84.9 L5.9 -76.25 5.4 -73.0 Q6.4 -75.25 8.1 -77.1 10.0 -75.85 8.3 -73.45 L7.5 -71.75 Q6.4 -68.1 6.25 -64.55 6.25 -64.2 5.8 -64.35 L5.6 -64.4 6.1 -61.95 Q7.4 -56.6 8.05 -51.1 8.45 -48.05 6.0 -48.3 5.4 -48.4 5.4 -49.1 5.65 -54.8 4.3 -60.45 2.95 -66.05 3.15 -71.85 3.35 -77.65 5.0 -83.25 L4.6 -84.05 Q3.35 -87.95 3.65 -91.5 3.7 -91.85 4.1 -91.85 5.55 -90.5 6.25 -88.45 L6.25 -88.65 Q6.8 -94.3 6.25 -99.75 6.2 -100.1 6.65 -100.15 L6.85 -100.2 M7.75 -106.6 Q9.95 -104.9 7.35 -103.2 6.8 -102.85 6.6 -103.55 5.95 -105.65 7.75 -106.6" fill="#ffffff" fill-rule="evenodd" stroke="none"/>
  </g>
</svg>
