<?xml version="1.0" encoding="UTF-8" standalone="no"?>
<svg xmlns:ffdec="https://www.free-decompiler.com/flash" xmlns:xlink="http://www.w3.org/1999/xlink" ffdec:objectType="shape" height="94.25px" width="45.5px" xmlns="http://www.w3.org/2000/svg">
  <g transform="matrix(1.0, 0.0, 0.0, 1.0, 15.3, 142.6)">
    <path d="M16.95 -142.4 L17.0 -142.35 Q16.8 -141.65 16.05 -141.3 L14.9 -141.4 Q14.85 -141.95 15.4 -142.25 L16.4 -142.6 16.65 -142.55 16.95 -142.4 M13.4 -132.15 L14.95 -130.3 Q15.8 -132.8 17.8 -133.85 19.25 -134.65 20.15 -133.4 L20.9 -131.65 Q22.35 -131.75 23.65 -133.0 24.55 -133.85 25.55 -134.25 24.5 -131.05 23.6 -127.4 23.25 -125.9 23.25 -124.35 23.3 -119.8 22.05 -115.55 23.65 -116.4 25.0 -117.75 26.5 -119.35 28.3 -120.35 L29.9 -120.3 30.05 -120.25 Q30.9 -117.4 27.4 -116.45 L21.75 -114.55 Q20.3 -110.0 18.35 -105.9 L21.65 -110.1 23.45 -113.5 Q24.25 -112.25 24.05 -110.2 L23.65 -104.95 23.0 -98.95 25.35 -100.1 26.85 -100.3 Q24.45 -92.05 18.45 -85.8 13.95 -81.1 15.9 -74.45 16.25 -73.35 15.7 -72.25 13.0 -66.75 11.9 -60.65 11.45 -59.85 11.35 -58.55 11.2 -57.85 11.3 -56.15 L11.2 -54.85 10.8 -53.55 Q8.95 -50.25 5.35 -49.0 L5.2 -49.1 4.95 -49.35 4.85 -49.8 4.9 -49.9 4.95 -50.0 5.05 -50.05 5.25 -50.1 Q-0.45 -53.2 -1.45 -60.95 -2.5 -68.75 -6.15 -73.85 -9.85 -79.0 -7.65 -79.05 -5.45 -79.15 -4.8 -78.0 L-3.4 -76.3 Q-2.55 -79.2 -2.8 -82.35 L-5.85 -85.6 Q-8.1 -88.15 -10.85 -90.2 -14.95 -93.25 -12.2 -97.95 -11.85 -98.55 -11.95 -99.3 L-11.85 -99.4 -11.45 -99.7 -10.65 -99.9 Q-6.1 -98.8 -8.65 -95.55 -10.5 -93.2 -8.4 -90.7 -6.2 -88.1 -3.55 -86.2 -4.2 -88.6 -4.25 -91.1 -4.25 -96.2 -7.2 -99.8 -8.15 -100.95 -9.35 -101.7 -11.55 -102.35 -13.35 -104.25 -15.9 -106.9 -12.95 -108.6 -11.45 -108.7 -10.25 -107.85 L-9.35 -107.0 -7.45 -104.75 Q-6.85 -103.8 -5.95 -104.1 -6.6 -107.4 -9.35 -109.85 -11.4 -111.65 -11.55 -114.0 L-12.85 -114.2 Q-16.3 -115.85 -13.65 -118.15 -11.85 -119.75 -9.35 -119.9 L-7.2 -120.15 -7.2 -120.5 Q-7.15 -121.55 -7.8 -122.4 -10.1 -120.8 -13.0 -119.9 -14.25 -119.5 -15.3 -120.2 -14.65 -122.25 -12.35 -123.0 L-11.95 -123.5 -11.3 -124.35 Q-11.7 -125.35 -12.85 -125.5 -13.45 -125.55 -13.8 -126.0 -14.05 -128.05 -12.6 -129.35 -11.0 -130.75 -9.95 -128.75 -3.7 -126.8 1.35 -131.5 L0.3 -127.2 Q0.05 -126.1 0.15 -125.0 L1.65 -124.85 2.95 -124.55 4.0 -126.45 5.15 -129.15 5.15 -129.25 6.15 -129.55 Q7.0 -129.65 7.45 -129.95 8.35 -132.4 7.6 -134.85 7.05 -136.8 8.25 -138.4 L9.6 -139.4 Q12.45 -138.15 12.5 -134.5 12.55 -133.3 13.4 -132.15 M-4.65 -116.15 L-4.5 -117.0 Q-7.85 -116.55 -10.9 -114.35 L-10.95 -114.3 Q-7.9 -113.0 -5.45 -114.8 -4.8 -115.3 -4.65 -116.15" fill="#aa0909" fill-rule="evenodd" stroke="none"/>
    <path d="M10.2 -134.9 L9.85 -134.5 Q9.55 -134.3 9.25 -134.5 8.95 -135.2 8.95 -136.05 8.9 -137.0 9.35 -137.65 L9.45 -137.7 Q10.25 -137.25 10.25 -136.3 L10.2 -134.9 M18.25 -132.5 L18.3 -132.5 18.5 -132.65 Q18.9 -132.45 18.95 -132.05 19.35 -131.6 19.15 -130.8 18.85 -129.7 17.9 -129.35 16.9 -129.95 17.1 -131.15 17.2 -132.15 18.25 -132.5 M5.7 -126.6 Q6.45 -126.6 6.5 -125.75 6.5 -125.15 6.8 -124.75 8.15 -126.95 9.1 -129.4 9.7 -130.8 9.75 -132.3 9.75 -133.0 10.25 -133.3 11.7 -129.7 14.45 -126.8 14.7 -126.5 15.15 -126.65 18.55 -127.4 21.1 -129.4 19.55 -122.75 19.05 -115.7 18.9 -113.45 18.15 -111.3 L15.45 -104.0 14.4 -102.2 Q12.6 -100.05 12.4 -97.25 16.05 -99.55 19.25 -103.4 20.7 -105.2 21.75 -107.05 22.2 -104.35 21.3 -101.4 L20.55 -98.3 Q20.35 -97.1 19.8 -96.0 L21.85 -97.1 Q22.45 -97.35 22.8 -96.9 L18.5 -88.8 Q17.9 -87.65 16.9 -86.8 14.0 -84.4 12.05 -81.45 L11.6 -63.65 Q11.4 -55.85 6.4 -50.15 6.25 -49.95 5.9 -50.0 L6.7 -49.25 Q4.65 -49.65 3.2 -51.9 0.45 -56.1 0.1 -61.25 0.0 -62.9 -0.6 -64.4 -3.2 -70.65 -6.95 -76.35 -7.5 -77.2 -7.55 -78.15 -6.2 -77.75 -5.15 -76.2 L-3.0 -73.6 -1.35 -72.25 Q-0.25 -78.5 -0.7 -84.75 -0.8 -85.85 -1.3 -86.85 -3.9 -91.75 -3.1 -97.2 -2.6 -100.65 -3.8 -103.75 -5.4 -107.9 -8.6 -111.15 -9.05 -111.55 -8.9 -112.15 -4.3 -110.05 -1.9 -114.05 -0.5 -116.4 -1.85 -118.8 -2.45 -119.8 -1.85 -120.4 -0.5 -120.05 0.65 -119.2 L1.0 -118.95 0.95 -120.75 0.8 -121.7 0.75 -121.75 0.15 -122.1 -0.1 -122.3 -0.1 -122.8 -0.1 -123.25 Q-0.2 -123.85 0.3 -124.0 L1.6 -123.65 Q2.3 -123.35 2.3 -122.65 L2.25 -122.5 1.95 -122.15 1.8 -122.05 1.65 -121.9 1.75 -120.75 1.95 -119.4 3.5 -121.5 Q4.55 -123.15 5.15 -125.0 L5.7 -126.6 M29.8 -119.95 Q30.15 -117.85 27.95 -117.1 L26.55 -116.35 24.35 -116.4 Q25.75 -117.35 27.0 -118.65 L28.3 -120.0 28.5 -120.15 29.45 -120.05 29.8 -119.95 M-11.8 -125.55 Q-12.1 -125.4 -12.35 -125.55 L-12.95 -125.9 Q-13.0 -126.75 -12.65 -127.55 L-11.75 -128.9 -11.5 -128.85 -11.25 -128.75 -11.25 -127.25 -11.8 -125.55 M-11.4 -121.6 Q-11.1 -121.55 -11.1 -121.3 -11.4 -120.9 -11.9 -120.7 L-12.95 -120.1 -13.05 -120.05 -13.15 -120.05 -13.45 -120.15 -13.65 -120.15 -13.7 -120.05 -14.15 -120.0 -14.3 -120.15 Q-14.3 -120.8 -13.55 -121.05 L-12.4 -121.5 -12.0 -121.65 -11.4 -121.6 M-3.35 -126.9 Q-2.2 -126.9 -2.1 -125.75 -2.0 -124.35 -2.9 -123.3 -4.4 -121.5 -3.6 -119.55 L-3.3 -119.3 -3.25 -119.25 Q-4.25 -119.15 -4.5 -120.3 -4.85 -121.8 -5.8 -123.05 -6.1 -123.45 -6.65 -123.55 -8.5 -123.95 -9.6 -125.3 -10.45 -126.4 -9.4 -127.15 L-4.35 -126.85 -3.35 -126.9 M-6.05 -119.2 L-3.65 -118.65 -3.35 -118.4 -6.8 -117.4 Q-8.6 -116.9 -10.2 -115.85 -13.1 -114.0 -13.65 -116.45 -13.75 -116.85 -13.3 -117.2 -11.3 -118.85 -8.65 -119.05 L-6.05 -119.2 M-7.0 -118.35 L-7.1 -118.35 -7.1 -118.3 -7.0 -118.35 M-10.95 -99.05 L-10.65 -99.15 Q-7.8 -99.1 -8.6 -96.4 -9.1 -94.5 -11.35 -94.8 L-11.45 -94.05 Q-11.65 -93.15 -11.3 -92.25 -11.1 -91.8 -11.3 -91.25 -12.9 -91.75 -12.75 -94.15 -12.65 -95.7 -11.75 -97.0 -11.25 -97.75 -11.35 -98.8 L-11.25 -98.9 -10.95 -99.05 M-5.95 -101.95 Q-9.2 -102.0 -12.25 -104.3 -14.7 -106.2 -12.4 -107.7 -9.35 -107.95 -8.85 -104.7 L-8.55 -104.05 Q-7.4 -102.7 -5.95 -101.95" fill="#fdc43e" fill-rule="evenodd" stroke="none"/>
    <path d="M17.9 -131.25 L18.1 -131.4 18.25 -131.45 Q18.65 -131.4 18.75 -131.05 L18.7 -130.45 Q18.2 -130.05 17.85 -130.65 17.7 -130.9 17.8 -131.2 L17.9 -131.25 M0.35 -122.7 L0.4 -122.9 0.55 -123.1 0.85 -123.2 1.45 -123.05 1.7 -122.5 1.25 -122.2 Q0.55 -122.15 0.35 -122.7 M6.7 -118.9 L7.05 -119.0 7.3 -119.15 Q8.35 -121.6 8.75 -124.2 9.1 -126.7 10.4 -128.45 12.15 -126.1 12.25 -122.9 12.35 -121.05 13.2 -119.35 L13.8 -118.25 16.5 -121.75 Q17.3 -122.95 18.45 -123.3 18.5 -121.4 17.6 -119.25 14.85 -112.55 13.85 -105.35 13.6 -103.6 12.85 -101.9 10.5 -96.85 9.85 -91.45 13.5 -93.35 16.4 -96.7 17.35 -97.8 18.4 -97.45 16.0 -94.3 14.05 -90.9 L15.75 -92.3 16.4 -92.65 Q17.05 -92.45 16.7 -91.95 L16.1 -91.25 17.2 -91.15 17.35 -91.05 Q16.25 -89.8 14.5 -88.6 12.9 -87.45 11.75 -85.85 L11.25 -85.25 10.05 -82.2 Q8.15 -76.95 9.4 -71.4 11.6 -61.6 8.65 -52.25 7.85 -49.7 5.75 -48.85 L5.65 -48.95 5.55 -49.15 5.5 -49.3 5.65 -49.6 6.05 -49.95 6.15 -50.05 2.25 -59.95 Q1.65 -61.35 1.2 -62.85 -0.05 -66.85 -1.85 -70.2 L-1.35 -70.35 -1.0 -70.2 Q0.7 -67.2 3.35 -65.0 3.8 -64.65 4.1 -65.15 5.05 -66.8 3.35 -68.4 -1.05 -72.5 1.5 -78.35 3.0 -81.75 2.2 -85.2 1.5 -88.15 -0.2 -90.65 -1.3 -92.25 -1.25 -94.1 L-0.7 -97.35 Q0.6 -101.5 -1.3 -105.6 L-2.45 -108.45 Q-0.15 -108.9 1.65 -110.55 L1.75 -110.65 Q1.85 -111.6 1.15 -112.35 0.35 -113.25 0.55 -114.2 1.95 -113.45 3.75 -113.45 L4.0 -113.5 Q4.55 -115.1 4.55 -116.9 4.55 -118.7 5.0 -120.3 5.75 -120.4 6.0 -119.7 6.2 -119.15 6.7 -118.9 M28.95 -119.1 Q28.9 -118.4 28.1 -118.15 27.55 -117.95 27.25 -118.45 27.25 -118.9 27.7 -119.15 L28.4 -119.45 28.7 -119.35 28.95 -119.1 M-10.65 -123.75 L-10.55 -123.85 -10.45 -123.9 -10.4 -123.95 -10.25 -123.95 Q-9.35 -124.0 -9.55 -123.15 -9.65 -122.6 -10.0 -122.2 -10.6 -122.15 -10.7 -122.7 L-10.7 -123.65 -10.65 -123.75 M-9.0 -126.65 Q-8.1 -126.0 -7.05 -125.85 -5.85 -125.65 -5.2 -124.95 -5.2 -124.5 -5.65 -124.5 L-6.4 -124.3 -6.9 -124.2 -8.35 -125.0 -9.05 -125.5 Q-9.4 -125.75 -9.45 -126.15 L-9.4 -126.3 -9.3 -126.5 -9.0 -126.6 -9.0 -126.65 M-13.65 -116.2 L-13.35 -116.6 -11.8 -117.15 -11.15 -117.4 -10.15 -117.35 Q-9.75 -117.35 -9.7 -116.95 -10.4 -116.2 -11.65 -115.85 -12.8 -115.5 -13.6 -116.15 L-13.65 -116.2 M-11.75 -107.1 L-11.75 -107.15 -11.7 -107.2 -11.25 -107.45 Q-10.55 -107.45 -10.7 -106.75 -10.75 -106.3 -10.95 -105.9 -12.4 -105.35 -13.0 -106.6 L-13.05 -106.95 Q-12.55 -107.45 -11.9 -107.15 L-11.75 -107.1 M-10.35 -97.75 Q-10.95 -98.6 -10.1 -98.95 -8.9 -98.4 -9.1 -97.15 L-9.2 -96.65 Q-8.4 -96.3 -9.1 -95.6 -9.6 -95.1 -10.15 -95.25 L-10.6 -95.4 -11.05 -95.8 -11.05 -95.9 -11.1 -96.05 -11.05 -96.35 -11.0 -96.45 -10.75 -96.55 Q-10.5 -96.6 -10.3 -96.75 L-10.25 -96.85 Q-10.1 -97.3 -10.35 -97.75" fill="#fefd9a" fill-rule="evenodd" stroke="none"/>
    <path d="M5.85 -99.2 Q6.15 -100.45 6.7 -101.5 L7.25 -101.85 Q9.1 -100.6 8.15 -97.9 5.65 -91.0 4.8 -83.8 L4.7 -81.35 Q5.7 -84.4 8.1 -86.45 9.95 -84.95 7.9 -82.3 7.05 -81.25 6.95 -79.85 6.7 -77.25 5.55 -75.35 L7.85 -63.9 Q8.55 -60.55 8.45 -57.1 8.3 -52.3 6.2 -48.45 6.05 -48.2 5.8 -48.45 4.45 -49.8 5.1 -51.9 L5.9 -55.35 5.1 -56.9 Q4.05 -59.9 4.65 -62.6 L5.1 -62.95 6.3 -61.5 Q6.1 -65.3 4.75 -68.9 0.55 -80.1 4.0 -91.4 L4.6 -93.5 Q4.1 -94.15 3.9 -95.05 3.15 -98.45 3.55 -101.5 3.6 -101.85 4.0 -101.85 5.25 -100.75 5.85 -99.2" fill="#ffffff" fill-rule="evenodd" stroke="none"/>
  </g>
</svg>
