<?xml version="1.0" encoding="UTF-8" standalone="no"?>
<svg xmlns:ffdec="https://www.free-decompiler.com/flash" xmlns:xlink="http://www.w3.org/1999/xlink" ffdec:objectType="shape" height="90.4px" width="46.3px" xmlns="http://www.w3.org/2000/svg">
  <g transform="matrix(1.0, 0.0, 0.0, 1.0, 16.45, 139.1)">
    <path d="M13.4 -131.5 Q14.25 -128.9 16.65 -129.65 L16.9 -131.05 Q16.8 -131.95 17.15 -132.85 L17.75 -133.3 18.05 -133.6 Q19.2 -133.75 19.65 -132.55 L19.8 -131.7 Q21.05 -132.75 21.65 -134.4 22.1 -135.65 22.95 -136.5 23.4 -135.75 23.25 -134.6 L22.95 -132.7 Q21.4 -126.95 21.45 -124.65 21.55 -121.6 21.15 -118.65 L20.95 -117.25 Q22.15 -118.85 22.95 -120.65 23.7 -122.25 24.95 -122.55 22.45 -117.9 23.3 -112.5 24.0 -107.75 22.75 -103.3 L21.75 -101.25 Q25.15 -102.25 27.3 -104.95 28.15 -106.0 28.95 -106.4 27.5 -101.1 24.75 -96.1 22.1 -91.3 17.25 -88.5 13.25 -86.25 13.75 -81.45 L14.2 -74.3 14.0 -71.3 Q13.65 -69.15 13.55 -66.85 13.25 -60.3 9.95 -54.85 8.05 -51.7 5.2 -50.85 4.9 -50.8 4.55 -51.1 -2.4 -57.4 -3.05 -67.0 -3.4 -72.15 -5.15 -77.05 -6.9 -81.85 -8.1 -86.8 L-8.55 -89.25 -10.75 -91.05 Q-11.8 -91.95 -12.4 -93.15 -13.5 -95.45 -12.55 -98.05 L-11.9 -99.3 Q-11.4 -100.1 -10.4 -100.2 -6.35 -99.1 -9.15 -95.85 -10.8 -94.0 -8.95 -92.3 L-8.7 -92.05 -8.25 -96.2 Q-6.25 -95.3 -4.8 -93.25 L-3.45 -91.15 Q-4.75 -94.35 -5.45 -97.7 L-6.3 -98.95 Q-8.0 -102.35 -11.45 -103.95 -13.9 -105.1 -13.8 -107.6 L-13.7 -107.7 -12.95 -108.15 -12.15 -108.5 Q-9.1 -107.8 -7.75 -104.65 -7.2 -103.25 -6.1 -102.15 L-6.15 -102.85 Q-6.55 -109.15 -8.35 -115.2 L-8.75 -116.4 -13.4 -113.7 Q-15.1 -112.35 -16.2 -114.15 -16.95 -115.45 -15.55 -116.35 -11.75 -118.75 -7.45 -120.1 L-5.5 -120.1 -6.05 -122.35 Q-6.3 -123.3 -7.25 -123.3 -10.05 -123.35 -11.65 -120.75 -13.2 -118.25 -15.7 -119.2 -15.8 -120.15 -15.2 -120.8 -14.2 -121.9 -12.8 -122.2 -12.4 -122.25 -12.1 -122.5 L-12.15 -123.0 Q-12.25 -123.9 -11.8 -124.6 L-11.15 -125.5 -14.45 -125.85 Q-14.9 -125.9 -15.25 -126.2 -15.45 -126.9 -15.1 -127.4 L-13.5 -129.15 -12.65 -129.5 -11.45 -129.5 -11.3 -129.45 -11.2 -129.35 Q-11.0 -129.05 -10.95 -128.75 L-10.8 -128.0 Q-8.8 -129.95 -5.9 -128.4 L-3.9 -128.25 -1.25 -128.35 -2.05 -125.05 -2.3 -122.85 Q-2.4 -120.9 -1.95 -118.95 L-1.15 -118.6 Q-1.55 -122.75 0.0 -126.2 0.5 -127.3 1.8 -126.65 L2.95 -125.5 Q6.85 -128.3 7.8 -133.0 L8.15 -134.15 Q8.75 -135.6 8.5 -137.4 8.3 -138.75 9.6 -139.1 10.55 -138.75 10.7 -137.65 L10.75 -136.05 Q12.6 -134.15 13.4 -131.5 M29.5 -120.3 L29.65 -120.25 29.8 -120.15 Q30.25 -118.05 27.85 -117.15 26.1 -116.5 24.3 -116.4 L24.2 -116.5 Q25.9 -117.5 27.4 -119.05 28.25 -119.9 29.2 -120.35 L29.5 -120.3" fill="#aa0909" fill-rule="evenodd" stroke="none"/>
    <path d="M18.7 -132.2 Q19.3 -131.7 19.1 -130.8 18.85 -129.9 18.1 -130.3 17.65 -130.75 17.95 -131.4 18.15 -132.0 18.7 -132.2 M9.6 -137.1 L9.65 -137.1 Q10.15 -136.9 10.15 -136.3 10.15 -135.75 9.8 -135.4 9.05 -135.45 9.05 -136.3 9.05 -136.95 9.6 -137.1 M4.85 -125.05 Q5.35 -125.4 5.65 -124.85 L6.0 -124.35 Q7.5 -127.0 8.25 -130.1 8.9 -132.6 10.65 -134.45 12.2 -132.65 12.3 -129.9 12.35 -127.75 13.35 -125.9 15.85 -126.45 17.85 -128.6 19.2 -130.05 20.75 -130.4 19.15 -125.6 19.55 -120.15 19.65 -118.8 19.1 -117.55 L15.2 -107.8 Q17.85 -110.0 20.0 -112.8 L21.9 -115.05 Q22.4 -110.55 21.1 -105.9 19.85 -101.6 16.75 -98.2 L16.4 -97.55 Q14.6 -95.9 13.7 -93.65 L14.35 -94.35 Q18.3 -98.1 23.75 -98.95 L25.4 -98.9 25.7 -98.65 Q22.3 -97.0 21.0 -93.5 20.55 -92.3 19.35 -91.8 16.05 -90.3 12.95 -88.55 L12.35 -84.15 Q11.55 -79.85 12.35 -75.65 12.9 -72.9 12.85 -70.05 12.65 -60.55 8.8 -52.1 7.8 -49.95 5.85 -50.8 L6.6 -49.5 4.7 -51.4 4.55 -51.6 Q3.05 -53.55 2.25 -56.1 1.1 -59.7 0.7 -63.55 0.4 -66.0 -0.65 -68.3 -2.5 -72.2 -1.3 -76.3 L-5.3 -83.45 Q-7.1 -86.75 -7.35 -90.45 L-7.25 -91.3 Q-5.5 -89.95 -4.05 -87.55 -2.75 -85.45 -0.75 -85.3 -0.45 -88.9 -1.8 -92.6 -2.95 -95.65 -2.7 -99.0 -2.2 -105.95 -5.5 -111.6 L-7.4 -115.4 Q-4.55 -115.7 -2.0 -113.75 L-0.5 -113.8 Q0.3 -115.55 0.3 -117.7 L0.15 -121.35 0.25 -122.3 0.3 -122.3 0.3 -122.35 0.0 -124.45 0.1 -124.55 0.3 -124.65 0.5 -124.75 0.95 -124.7 1.3 -124.6 1.4 -124.35 1.7 -123.75 1.85 -123.4 Q1.45 -123.0 1.45 -122.45 L1.5 -122.1 1.65 -121.95 2.2 -121.6 Q3.4 -122.5 4.2 -123.9 L4.85 -124.75 4.85 -125.05 M29.05 -119.95 Q30.3 -119.1 28.85 -118.0 27.85 -117.25 26.8 -117.65 27.0 -118.55 27.9 -119.4 28.35 -119.85 29.05 -119.95 M-13.65 -127.05 L-13.7 -127.15 -13.7 -127.25 -13.7 -127.45 -13.65 -127.55 Q-13.05 -127.85 -12.7 -128.3 L-12.15 -128.8 Q-11.05 -128.0 -12.4 -126.95 -13.25 -126.25 -14.2 -126.4 L-14.15 -126.65 Q-14.0 -126.95 -13.65 -127.05 M-13.15 -120.7 L-13.1 -120.65 Q-13.05 -120.25 -13.25 -120.0 L-13.5 -119.65 Q-14.0 -119.1 -14.7 -119.05 -15.0 -119.5 -14.65 -119.9 L-14.4 -120.2 -14.25 -120.4 -13.75 -120.85 -13.65 -120.9 -13.4 -120.85 -13.15 -120.7 M-4.95 -126.0 Q-4.0 -125.5 -4.2 -124.35 -4.45 -122.8 -4.1 -121.35 -4.6 -121.55 -4.8 -122.35 -5.2 -124.05 -7.0 -124.4 -9.7 -124.9 -9.45 -127.45 -9.4 -127.95 -8.9 -128.05 L-6.1 -126.6 -4.95 -126.0 M-12.9 -114.9 L-12.85 -114.8 -12.85 -114.7 -12.85 -114.6 -12.85 -114.5 Q-13.95 -113.25 -15.45 -113.9 L-15.65 -114.0 Q-15.1 -116.15 -12.3 -117.2 L-8.15 -118.65 Q-7.4 -117.75 -9.25 -117.05 L-12.4 -115.2 -12.9 -114.9 M-12.5 -108.05 Q-10.85 -108.2 -10.25 -106.65 -9.75 -105.45 -8.95 -104.55 L-9.05 -104.45 -9.2 -104.3 -9.25 -103.8 -9.25 -103.7 Q-10.5 -104.0 -11.8 -104.85 -13.7 -106.1 -12.65 -107.95 L-12.5 -108.05 M-10.8 -99.75 Q-8.25 -99.25 -9.45 -96.95 L-10.4 -95.45 Q-10.9 -94.75 -11.55 -94.35 L-11.55 -94.25 -11.5 -93.9 Q-11.5 -93.65 -11.65 -93.45 L-11.75 -93.3 Q-12.85 -94.4 -11.9 -96.2 -11.1 -97.65 -11.15 -99.4 L-10.8 -99.75" fill="#fdc43e" fill-rule="evenodd" stroke="none"/>
    <path d="M10.45 -131.8 L11.3 -126.4 Q11.6 -123.8 12.15 -121.3 12.2 -120.85 12.5 -120.55 L16.0 -124.55 Q17.45 -126.15 18.95 -127.15 18.65 -120.35 16.15 -113.65 14.35 -108.75 11.95 -104.1 11.15 -102.65 11.1 -101.0 12.9 -102.7 14.3 -104.95 15.5 -106.9 17.1 -107.65 16.55 -102.75 14.1 -97.95 10.5 -90.75 10.5 -82.9 10.5 -79.45 11.5 -76.15 12.2 -73.75 12.25 -71.2 12.4 -60.7 7.6 -51.5 L7.15 -51.2 7.0 -51.2 Q6.55 -51.25 6.55 -51.65 L6.5 -51.7 6.85 -52.35 6.4 -52.85 Q6.25 -52.85 6.0 -53.0 L5.75 -53.15 5.7 -53.25 Q4.8 -58.25 2.7 -62.95 1.05 -66.6 0.55 -70.25 0.5 -70.6 0.95 -70.8 L1.35 -70.95 Q2.35 -74.0 0.95 -76.95 -0.25 -79.5 -2.05 -81.65 -0.8 -82.55 0.8 -81.3 L1.9 -80.6 Q2.4 -80.3 2.8 -80.25 3.3 -86.4 0.25 -92.05 -0.8 -93.95 -0.1 -96.15 1.1 -99.9 0.8 -104.15 0.7 -105.4 1.8 -106.1 4.05 -107.6 3.8 -110.3 3.7 -111.05 3.85 -111.8 L5.6 -112.15 Q5.85 -114.15 5.3 -116.25 L4.4 -119.65 Q3.9 -119.95 3.75 -120.5 L7.8 -120.65 Q8.85 -123.1 8.65 -125.95 8.55 -127.4 8.7 -128.85 8.9 -130.35 9.5 -131.8 L9.5 -131.85 9.55 -132.0 10.45 -131.9 10.45 -131.8 M0.35 -123.9 L0.35 -123.95 0.45 -124.15 0.7 -124.35 0.85 -124.4 1.4 -123.95 Q1.45 -123.5 1.0 -123.45 L0.65 -123.55 Q0.35 -123.6 0.35 -123.9 M29.35 -119.0 L29.1 -118.6 Q28.5 -118.35 28.2 -118.85 L28.2 -119.05 Q28.2 -119.3 28.45 -119.35 L28.65 -119.45 29.1 -119.35 29.35 -119.0 M20.6 -95.2 Q20.45 -94.75 19.95 -94.65 L19.45 -94.5 18.2 -93.3 18.75 -93.5 19.6 -93.85 19.75 -93.9 20.4 -93.85 20.75 -93.7 20.8 -93.6 20.85 -93.45 20.8 -93.05 20.75 -92.95 Q19.2 -92.85 17.9 -91.95 17.15 -91.4 16.85 -90.7 L16.4 -90.45 Q16.05 -90.5 16.0 -90.8 15.85 -91.35 16.3 -91.7 L16.45 -91.8 16.7 -92.0 Q15.8 -91.35 14.75 -91.1 L14.65 -91.2 14.4 -91.4 Q14.05 -91.6 14.0 -91.95 15.05 -93.5 16.85 -94.35 L19.65 -95.7 20.15 -95.7 20.6 -95.4 20.6 -95.2 M-10.95 -124.15 L-10.9 -124.2 Q-10.25 -124.0 -10.4 -123.3 -10.55 -122.6 -11.2 -122.75 L-11.5 -123.2 -11.4 -123.6 -11.45 -123.7 -11.4 -124.0 -11.3 -124.1 -11.15 -124.2 -11.0 -124.2 -10.95 -124.15 M-8.05 -127.3 L-7.35 -126.4 Q-6.8 -125.95 -6.7 -125.35 L-6.7 -125.25 Q-7.5 -124.75 -8.15 -125.4 -8.6 -125.45 -8.95 -126.05 L-9.35 -127.4 -9.3 -127.5 -9.2 -127.6 -9.05 -127.7 -8.9 -127.7 -8.4 -127.45 -8.2 -127.4 -8.05 -127.3 M-14.85 -115.15 L-13.65 -115.85 -13.65 -115.9 Q-12.75 -115.3 -13.65 -114.4 -14.25 -113.8 -15.0 -114.1 -15.3 -114.6 -14.85 -115.15 M-12.3 -107.0 Q-12.3 -107.6 -11.75 -107.7 L-11.1 -107.25 -11.05 -107.0 -10.95 -106.8 -10.9 -106.6 -11.15 -106.3 Q-11.9 -105.95 -12.3 -106.55 L-12.3 -106.7 -12.25 -106.85 -12.3 -107.0 M-11.15 -99.25 L-11.05 -99.35 -10.9 -99.45 -10.75 -99.45 Q-10.0 -99.2 -9.55 -98.45 -9.1 -97.65 -9.7 -97.05 -10.35 -97.2 -10.8 -97.85 -11.2 -98.45 -11.2 -99.15 L-11.15 -99.25" fill="#fefd9a" fill-rule="evenodd" stroke="none"/>
    <path d="M6.6 -107.75 Q8.35 -106.35 7.2 -103.6 L6.0 -100.65 Q5.65 -99.9 5.05 -100.55 3.75 -101.85 4.35 -103.8 4.95 -105.65 5.9 -107.3 L6.6 -107.75 M4.85 -93.9 Q5.6 -95.15 6.85 -96.1 8.75 -94.85 6.95 -92.55 6.5 -92.0 6.45 -91.2 L5.9 -86.4 Q5.8 -85.9 5.25 -86.2 L4.9 -86.45 Q5.1 -85.6 5.45 -84.7 9.75 -73.7 8.25 -62.0 7.45 -55.85 7.05 -49.65 6.95 -48.1 5.75 -49.05 4.95 -49.75 5.1 -50.95 6.0 -57.55 6.15 -64.15 L6.0 -64.25 Q5.35 -64.85 5.1 -65.8 4.05 -69.4 4.4 -72.65 4.45 -72.95 4.85 -72.95 L5.95 -71.75 Q5.45 -78.7 3.1 -85.25 1.8 -88.85 2.2 -92.75 2.6 -96.6 4.35 -99.65 L4.75 -99.95 Q6.5 -98.55 5.45 -95.8 L4.85 -93.9" fill="#ffffff" fill-rule="evenodd" stroke="none"/>
  </g>
</svg>
