<?xml version="1.0" encoding="UTF-8" standalone="no"?>
<svg xmlns:ffdec="https://www.free-decompiler.com/flash" xmlns:xlink="http://www.w3.org/1999/xlink" ffdec:objectType="shape" height="89.4px" width="46.95px" xmlns="http://www.w3.org/2000/svg">
  <g transform="matrix(1.0, 0.0, 0.0, 1.0, 16.95, 138.3)">
    <path d="M21.35 -134.0 L21.2 -127.3 20.7 -121.6 Q20.6 -120.9 21.35 -120.5 L22.8 -123.2 Q23.65 -124.65 24.85 -124.85 21.75 -119.75 21.75 -113.55 L21.4 -108.05 20.75 -101.75 Q25.1 -103.55 27.6 -107.45 L29.45 -110.3 Q29.25 -107.75 27.8 -104.8 26.6 -102.35 26.6 -99.45 26.55 -96.3 23.75 -94.45 20.15 -92.15 17.35 -88.85 16.65 -88.05 16.8 -86.9 17.9 -78.25 17.6 -69.7 17.35 -61.3 11.75 -54.9 8.95 -51.65 5.4 -49.95 L3.7 -49.85 Q-4.15 -52.1 -6.85 -59.5 -7.8 -62.05 -7.7 -64.8 -7.65 -65.9 -6.9 -66.8 -5.1 -68.95 -5.35 -72.2 L-5.55 -74.85 Q-6.0 -80.35 -8.1 -85.45 -9.7 -89.3 -10.0 -93.45 L-10.0 -93.65 Q-11.9 -94.3 -12.2 -96.9 L-12.05 -99.55 Q-11.8 -100.45 -11.05 -100.9 -9.8 -100.75 -9.15 -100.0 L-8.35 -103.55 Q-9.85 -104.65 -11.65 -105.45 -12.85 -105.95 -13.1 -107.2 -13.4 -108.5 -12.15 -109.0 -9.5 -109.1 -8.7 -106.65 L-8.0 -105.35 -7.8 -106.4 Q-6.8 -105.95 -6.25 -104.7 -5.75 -103.6 -4.8 -102.65 -5.2 -106.7 -4.25 -110.85 -4.05 -111.85 -4.8 -112.65 -7.1 -115.15 -6.5 -117.8 -9.15 -116.95 -11.2 -114.85 -13.75 -112.25 -16.95 -113.5 -16.05 -115.85 -13.15 -117.1 L-11.3 -117.85 -6.0 -119.2 -5.8 -119.6 -5.35 -119.95 Q-4.7 -120.15 -4.15 -120.45 L-4.7 -122.15 Q-4.8 -122.8 -5.55 -123.15 -8.95 -124.5 -10.35 -127.3 -10.75 -128.0 -10.5 -128.8 L-10.4 -128.9 -10.1 -129.05 -9.85 -129.1 Q-7.4 -129.15 -5.8 -127.2 -4.85 -126.05 -3.2 -126.7 L-2.3 -126.55 -2.75 -124.85 -2.85 -123.55 -2.4 -121.7 Q-0.65 -123.4 -0.15 -126.2 0.0 -126.75 0.7 -126.55 L4.6 -126.75 Q6.6 -127.7 6.6 -130.15 6.55 -132.8 8.2 -134.95 L8.15 -135.5 7.95 -136.45 7.95 -136.85 8.55 -137.55 Q9.05 -138.2 9.75 -138.3 10.95 -138.3 11.05 -137.15 11.15 -136.2 10.75 -135.45 L13.1 -128.75 Q13.55 -127.5 14.9 -127.9 18.6 -129.1 18.2 -132.55 19.2 -132.5 19.35 -131.35 L19.4 -129.35 19.4 -129.3 19.8 -131.6 Q20.1 -133.2 21.25 -134.0 L21.35 -134.0 M29.6 -120.1 L29.8 -120.05 Q30.55 -118.45 28.7 -117.9 L26.35 -117.8 26.65 -118.3 27.7 -118.75 Q27.75 -119.2 28.1 -119.45 L29.2 -120.1 29.6 -120.1 M-14.85 -127.7 Q-14.6 -128.55 -13.75 -128.85 L-13.2 -129.0 Q-10.95 -128.9 -10.45 -126.6 -10.3 -125.9 -9.75 -125.3 L-8.75 -123.9 Q-9.3 -123.3 -10.15 -122.95 -11.7 -122.35 -12.5 -123.5 L-12.5 -123.6 -12.4 -124.25 -12.0 -124.9 -11.9 -125.0 -12.8 -125.9 -14.9 -127.2 -14.85 -127.7 M-12.8 -122.1 L-12.2 -122.0 Q-11.85 -121.95 -11.6 -121.75 L-11.55 -121.65 Q-11.8 -120.45 -12.7 -119.6 -14.0 -118.3 -15.3 -119.4 -15.35 -120.3 -14.7 -120.85 -13.8 -121.65 -12.8 -122.1" fill="#aa0909" fill-rule="evenodd" stroke="none"/>
    <path d="M29.6 -119.3 L29.4 -118.8 Q28.85 -118.3 28.15 -118.3 L28.05 -118.45 28.0 -118.8 28.05 -119.25 28.15 -119.35 28.55 -119.55 28.7 -119.6 29.2 -119.6 29.6 -119.3 M18.4 -131.3 L18.7 -131.5 18.9 -131.55 Q19.6 -131.25 19.0 -130.75 18.55 -130.4 18.3 -130.9 18.2 -131.15 18.4 -131.3 M16.85 -126.65 L17.25 -126.65 17.4 -126.6 Q18.15 -125.5 17.45 -124.3 L16.05 -122.0 Q22.7 -119.45 20.2 -112.75 L19.35 -110.25 Q17.8 -104.7 15.7 -99.35 14.5 -96.3 14.15 -93.2 16.45 -94.35 18.35 -96.4 21.25 -99.6 25.5 -100.1 L25.8 -100.1 26.05 -99.95 26.3 -99.95 26.7 -99.65 26.8 -99.55 Q25.8 -97.1 23.2 -95.65 L21.05 -94.3 19.25 -92.6 15.2 -90.7 14.0 -89.95 Q14.05 -86.35 15.25 -82.7 16.85 -77.9 17.3 -72.85 17.75 -67.2 16.1 -62.0 15.35 -59.55 14.1 -57.4 11.1 -52.15 5.45 -50.05 L4.65 -50.1 Q-1.85 -52.3 -3.65 -58.55 -4.15 -60.25 -3.2 -61.6 L-2.4 -61.6 -2.05 -61.65 Q-1.35 -65.35 -2.45 -69.1 -2.85 -70.45 -2.45 -71.75 -0.7 -77.35 -3.05 -82.5 -4.0 -84.6 -5.2 -86.5 -8.35 -91.6 -6.65 -97.15 -6.35 -98.1 -5.65 -97.15 -3.85 -94.7 -1.45 -93.0 -0.6 -96.6 -1.35 -100.45 -1.75 -102.65 -0.7 -104.6 0.6 -107.0 0.2 -109.8 -0.2 -112.75 -1.25 -115.4 -1.75 -116.65 -0.55 -117.5 2.3 -119.55 3.1 -123.0 3.3 -123.9 4.35 -124.05 8.05 -124.45 11.45 -125.65 13.3 -126.3 15.4 -126.3 16.15 -126.3 16.85 -126.65 M9.8 -135.7 Q9.05 -135.5 9.0 -136.2 8.95 -136.8 9.45 -136.9 L10.05 -136.45 Q10.2 -136.0 9.8 -135.7 M0.25 -124.25 L0.3 -124.3 0.5 -124.4 0.95 -124.35 1.25 -124.2 1.35 -123.85 1.2 -123.5 Q1.3 -123.0 1.05 -122.6 0.3 -122.55 0.1 -123.4 0.0 -124.0 0.25 -124.25 M25.1 -99.45 L25.15 -99.5 25.1 -99.45 M-9.25 -128.35 Q-7.65 -128.0 -6.6 -126.65 L-5.6 -125.7 Q-4.85 -125.25 -4.75 -124.4 L-4.5 -123.0 -5.75 -124.25 Q-6.75 -125.15 -8.05 -125.65 -9.6 -126.25 -9.7 -127.75 -9.75 -128.25 -9.25 -128.35 M-14.4 -128.05 L-13.95 -128.0 -13.1 -127.75 -12.95 -127.55 Q-13.0 -127.05 -13.4 -127.0 -14.6 -126.85 -14.6 -127.8 L-14.4 -128.05 M-14.15 -120.15 Q-13.55 -120.1 -13.75 -119.6 L-14.25 -119.0 Q-14.65 -119.1 -14.6 -119.55 -14.55 -120.0 -14.15 -120.1 L-14.15 -120.15 M-11.85 -115.7 L-14.35 -114.4 Q-14.35 -113.7 -15.05 -113.35 -15.7 -113.0 -15.95 -113.65 L-16.05 -114.15 -13.1 -116.1 Q-11.75 -117.05 -10.25 -117.65 -9.8 -116.6 -11.85 -115.7 M-12.3 -108.2 L-12.2 -108.25 -12.0 -108.3 Q-10.55 -108.4 -10.35 -107.05 L-9.9 -105.05 Q-10.85 -104.95 -11.6 -105.75 -12.55 -106.7 -12.45 -108.0 L-12.4 -108.1 -12.3 -108.2 M-10.2 -100.25 Q-9.25 -100.15 -9.45 -99.25 -9.6 -98.6 -10.1 -98.15 -9.75 -97.8 -9.8 -97.3 -9.85 -96.7 -10.25 -96.2 L-10.35 -96.0 Q-10.55 -95.7 -10.9 -95.7 -11.25 -95.7 -11.55 -96.0 -11.7 -96.9 -11.3 -97.7 -10.85 -98.55 -10.95 -99.55 L-10.9 -99.95 -10.45 -100.15 -10.2 -100.25" fill="#fdc43e" fill-rule="evenodd" stroke="none"/>
    <path d="M9.75 -134.3 Q10.25 -132.8 10.05 -130.75 L10.2 -130.05 Q11.2 -127.5 9.25 -125.5 8.15 -127.75 8.15 -130.35 L8.3 -131.4 Q8.8 -133.2 9.75 -134.3 M8.85 -123.25 L8.95 -123.35 9.1 -123.45 9.25 -123.45 Q10.0 -121.8 10.05 -119.55 10.1 -116.5 11.35 -113.6 11.8 -112.6 11.65 -111.5 L11.05 -109.25 14.6 -115.15 Q15.7 -117.25 17.1 -119.0 18.65 -116.8 17.5 -113.75 15.3 -108.1 12.55 -102.75 11.95 -101.6 11.7 -100.25 9.6 -89.5 14.45 -79.75 18.45 -71.7 15.5 -63.15 14.35 -59.9 12.4 -57.05 9.95 -53.5 6.5 -51.15 2.9 -52.25 -0.7 -54.35 -2.0 -55.15 -2.15 -56.4 -2.35 -58.0 -0.55 -58.6 0.7 -59.0 1.55 -59.95 -2.05 -63.6 -1.7 -68.55 -1.55 -70.65 -0.6 -72.6 0.7 -75.1 -0.2 -78.1 -0.4 -78.85 -0.25 -79.65 0.6 -84.75 -2.95 -88.9 -3.55 -89.6 -3.4 -90.4 L-3.6 -90.7 -3.7 -91.25 -3.65 -91.35 Q-1.85 -90.9 0.0 -89.2 L1.3 -88.4 Q-2.5 -97.4 3.35 -105.15 4.15 -106.15 4.0 -107.55 3.55 -113.2 3.95 -118.75 4.95 -118.75 5.55 -117.75 L6.1 -116.9 Q7.55 -118.25 8.15 -120.45 L8.85 -123.25 M17.25 -93.9 Q17.15 -94.05 17.2 -94.3 18.95 -95.2 20.4 -96.65 L21.75 -98.2 Q21.9 -98.45 22.2 -98.5 L22.55 -98.4 22.75 -98.05 24.3 -97.95 24.45 -97.75 Q22.55 -97.3 20.85 -95.75 L18.55 -93.35 Q18.35 -93.1 17.95 -93.05 17.35 -93.0 17.4 -93.6 L17.35 -93.7 17.25 -93.9 M-9.5 -128.0 L-9.3 -128.15 -9.15 -128.2 Q-8.55 -128.0 -8.3 -127.45 L-8.1 -126.45 Q-9.0 -125.8 -9.45 -127.0 L-9.6 -127.95 -9.5 -128.0 M-11.95 -123.3 L-11.95 -123.85 -11.85 -123.95 -11.65 -124.1 -11.5 -124.15 Q-11.0 -124.0 -11.0 -123.5 -11.05 -123.0 -11.5 -122.95 L-11.95 -123.3 M-15.9 -114.15 L-15.15 -114.6 -15.15 -114.65 Q-14.15 -114.4 -14.85 -113.75 L-14.9 -113.65 -15.1 -113.55 Q-15.6 -113.3 -15.95 -113.8 L-15.9 -114.15 M-11.35 -107.9 Q-10.7 -107.7 -10.95 -107.15 -11.2 -106.6 -11.75 -106.75 L-11.85 -106.85 -12.0 -107.15 -12.0 -107.3 -11.85 -107.6 -11.35 -107.9 M-10.65 -99.85 L-10.5 -99.9 Q-10.05 -99.7 -9.9 -99.15 -9.75 -98.6 -10.2 -98.3 -10.8 -98.3 -10.95 -98.9 L-10.9 -99.65 -10.8 -99.75 -10.65 -99.85" fill="#fefd9a" fill-rule="evenodd" stroke="none"/>
    <path d="M7.5 -112.95 Q9.1 -111.6 7.85 -109.0 7.0 -107.15 6.25 -109.05 5.85 -110.05 6.0 -111.1 6.25 -112.55 7.5 -112.95 M5.75 -95.95 Q5.45 -95.15 5.0 -95.25 L7.05 -82.6 Q7.5 -79.75 7.2 -76.85 6.4 -68.3 6.55 -59.55 6.7 -54.35 7.1 -49.3 7.15 -48.8 6.55 -48.95 4.85 -49.5 4.75 -51.45 4.55 -54.4 4.5 -57.3 4.4 -66.25 4.7 -75.1 4.15 -75.6 3.9 -76.35 2.85 -79.6 2.85 -82.65 2.85 -83.1 3.35 -83.1 L4.95 -81.3 Q4.95 -84.55 4.0 -87.6 2.15 -93.5 2.9 -99.55 3.05 -100.85 4.35 -101.1 L5.1 -100.55 Q6.05 -102.55 7.5 -104.1 9.35 -102.55 7.65 -99.8 6.45 -97.9 5.75 -95.95" fill="#ffffff" fill-rule="evenodd" stroke="none"/>
  </g>
</svg>
