<?xml version="1.0" encoding="UTF-8" standalone="no"?>
<svg xmlns:ffdec="https://www.free-decompiler.com/flash" xmlns:xlink="http://www.w3.org/1999/xlink" ffdec:objectType="shape" height="57.4px" width="55.15px" xmlns="http://www.w3.org/2000/svg">
  <g transform="matrix(1.0, 0.0, 0.0, 1.0, 33.55, 10.9)">
    <path d="M19.4 15.65 L-0.3 2.5 8.6 -9.4" fill="none" stroke="#000000" stroke-linecap="round" stroke-linejoin="round" stroke-width="3.0"/>
    <path d="M17.15 6.55 L-30.0 32.3 -30.45 32.75 -30.5 33.35 Q-28.6 43.45 -15.5 43.5 L-15.1 43.45 -14.75 43.2 18.35 8.1 18.6 7.45 18.4 6.8 17.8 6.45 17.15 6.55 Z" fill="none" stroke="#ff0000" stroke-linecap="round" stroke-linejoin="round" stroke-opacity="0.33333334" stroke-width="6.0"/>
    <path d="M17.15 6.55 L17.8 6.45 18.4 6.8 18.6 7.45 18.35 8.1 -14.75 43.2 -15.1 43.45 -15.5 43.5 Q-28.6 43.45 -30.5 33.35 L-30.45 32.75 -30.0 32.3 17.15 6.55" fill="#ffffff" fill-rule="evenodd" stroke="none"/>
    <path d="M17.15 6.55 L-30.0 32.3 -30.45 32.75 -30.5 33.35 Q-28.6 43.45 -15.5 43.5 L-15.1 43.45 -14.75 43.2 18.35 8.1 18.6 7.45 18.4 6.8 17.8 6.45 17.15 6.55 Z" fill="none" stroke="#ff0000" stroke-linecap="round" stroke-linejoin="round" stroke-opacity="0.33333334" stroke-width="4.0"/>
    <path d="M17.15 6.55 L-30.0 32.3 -30.45 32.75 -30.5 33.35 Q-28.6 43.45 -15.5 43.5 L-15.1 43.45 -14.75 43.2 18.35 8.1 18.6 7.45 18.4 6.8 17.8 6.45 17.15 6.55 Z" fill="none" stroke="#ff0000" stroke-linecap="round" stroke-linejoin="round" stroke-opacity="0.7529412" stroke-width="2.0"/>
  </g>
</svg>
