<?xml version="1.0" encoding="UTF-8" standalone="no"?>
<svg xmlns:ffdec="https://www.free-decompiler.com/flash" xmlns:xlink="http://www.w3.org/1999/xlink" ffdec:objectType="shape" height="65.35px" width="74.5px" xmlns="http://www.w3.org/2000/svg">
  <g transform="matrix(1.0, 0.0, 0.0, 1.0, 8.0, 16.5)">
    <path d="M20.4 0.4 L-0.05 0.25 11.85 -12.15" fill="none" stroke="#000000" stroke-linecap="round" stroke-linejoin="round" stroke-width="3.0"/>
    <path d="M31.5 -13.5 L31.2 -13.5 30.65 -13.2 30.35 -12.6 30.35 -12.5 Q30.15 -1.55 17.35 6.45 L16.9 6.85 16.85 7.0 16.8 7.05 Q9.4 25.3 -4.75 42.9 L-5.0 43.55 -4.75 44.2 -4.1 44.5 Q41.95 50.15 63.15 31.75 L63.5 31.15 63.35 30.5 Q49.8 7.65 32.2 -13.0 L32.1 -13.2 31.5 -13.5 Z" fill="none" stroke="#ff0000" stroke-linecap="round" stroke-linejoin="round" stroke-opacity="0.33333334" stroke-width="6.0"/>
    <path d="M31.5 -13.5 L32.1 -13.2 32.2 -13.0 Q49.8 7.65 63.35 30.5 L63.5 31.15 63.15 31.75 Q41.95 50.15 -4.1 44.5 L-4.75 44.2 -5.0 43.55 -4.75 42.9 Q9.4 25.3 16.8 7.05 L16.85 7.0 16.9 6.85 17.35 6.45 Q30.15 -1.55 30.35 -12.5 L30.35 -12.6 30.65 -13.2 31.2 -13.5 31.5 -13.5" fill="#ffffff" fill-rule="evenodd" stroke="none"/>
    <path d="M31.5 -13.5 L31.2 -13.5 30.65 -13.2 30.35 -12.6 30.35 -12.5 Q30.15 -1.55 17.35 6.45 L16.9 6.85 16.85 7.0 16.8 7.05 Q9.4 25.3 -4.75 42.9 L-5.0 43.55 -4.75 44.2 -4.1 44.5 Q41.95 50.15 63.15 31.75 L63.5 31.15 63.35 30.5 Q49.8 7.65 32.2 -13.0 L32.1 -13.2 31.5 -13.5 Z" fill="none" stroke="#ff0000" stroke-linecap="round" stroke-linejoin="round" stroke-opacity="0.33333334" stroke-width="4.0"/>
    <path d="M31.5 -13.5 L31.2 -13.5 30.65 -13.2 30.35 -12.6 30.35 -12.5 Q30.15 -1.55 17.35 6.45 L16.9 6.85 16.85 7.0 16.8 7.05 Q9.4 25.3 -4.75 42.9 L-5.0 43.55 -4.75 44.2 -4.1 44.5 Q41.95 50.15 63.15 31.75 L63.5 31.15 63.35 30.5 Q49.8 7.65 32.2 -13.0 L32.1 -13.2 31.5 -13.5 Z" fill="none" stroke="#ff0000" stroke-linecap="round" stroke-linejoin="round" stroke-opacity="0.7529412" stroke-width="2.0"/>
  </g>
</svg>
