<?xml version="1.0" encoding="UTF-8" standalone="no"?>
<svg xmlns:ffdec="https://www.free-decompiler.com/flash" xmlns:xlink="http://www.w3.org/1999/xlink" ffdec:objectType="shape" height="146.5px" width="157.25px" xmlns="http://www.w3.org/2000/svg">
  <g transform="matrix(1.0, 0.0, 0.0, 1.0, 58.4, 117.6)">
    <path d="M6.4 -19.6 L-0.05 -2.75 -9.65 -16.15 -1.5 -21.75" fill="none" stroke="#000000" stroke-linecap="round" stroke-linejoin="round" stroke-width="3.0"/>
    <path d="M27.55 -114.5 Q-3.2 -114.5 -30.25 -93.2 L-30.2 -93.25 Q-44.95 -82.55 -55.05 -68.7 L-55.15 -68.6 -55.4 -67.85 -55.05 -67.15 -11.4 -30.45 -10.65 -30.25 -10.1 -30.45 Q5.6 -39.1 15.65 -34.85 25.65 -30.45 30.0 -13.1 L30.05 -13.05 30.05 -13.0 30.3 -12.55 67.75 25.6 68.1 25.85 68.45 25.9 68.55 25.9 68.8 25.85 69.15 25.65 69.25 25.55 72.15 21.95 72.15 21.9 Q96.0 -10.6 95.85 -46.3 L95.85 -46.35 Q94.3 -78.35 75.1 -97.25 55.85 -115.85 27.6 -114.5 L27.55 -114.5 Z" fill="none" stroke="#ff0000" stroke-linecap="round" stroke-linejoin="round" stroke-opacity="0.33333334" stroke-width="6.0"/>
    <path d="M27.55 -114.5 L27.6 -114.5 Q55.85 -115.85 75.1 -97.25 94.3 -78.35 95.85 -46.35 L95.85 -46.3 Q96.0 -10.6 72.15 21.9 L72.15 21.95 69.25 25.55 69.15 25.65 68.8 25.85 68.55 25.9 68.45 25.9 68.1 25.85 67.75 25.6 30.3 -12.55 30.05 -13.0 30.05 -13.05 30.0 -13.1 Q25.65 -30.45 15.65 -34.85 5.6 -39.1 -10.1 -30.45 L-10.65 -30.25 -11.4 -30.45 -55.05 -67.15 -55.4 -67.85 -55.15 -68.6 -55.05 -68.7 Q-44.95 -82.55 -30.2 -93.25 L-30.25 -93.2 Q-3.2 -114.5 27.55 -114.5" fill="#ffffff" fill-rule="evenodd" stroke="none"/>
    <path d="M27.55 -114.5 Q-3.2 -114.5 -30.25 -93.2 L-30.2 -93.25 Q-44.95 -82.55 -55.05 -68.7 L-55.15 -68.6 -55.4 -67.85 -55.05 -67.15 -11.4 -30.45 -10.65 -30.25 -10.1 -30.45 Q5.6 -39.1 15.65 -34.85 25.65 -30.45 30.0 -13.1 L30.05 -13.05 30.05 -13.0 30.3 -12.55 67.75 25.6 68.1 25.85 68.45 25.9 68.55 25.9 68.8 25.85 69.15 25.65 69.25 25.55 72.15 21.95 72.15 21.9 Q96.0 -10.6 95.85 -46.3 L95.85 -46.35 Q94.3 -78.35 75.1 -97.25 55.85 -115.85 27.6 -114.5 L27.55 -114.5 Z" fill="none" stroke="#ff0000" stroke-linecap="round" stroke-linejoin="round" stroke-opacity="0.33333334" stroke-width="4.0"/>
    <path d="M27.55 -114.5 Q-3.2 -114.5 -30.25 -93.2 L-30.2 -93.25 Q-44.95 -82.55 -55.05 -68.7 L-55.15 -68.6 -55.4 -67.85 -55.05 -67.15 -11.4 -30.45 -10.65 -30.25 -10.1 -30.45 Q5.6 -39.1 15.65 -34.85 25.65 -30.45 30.0 -13.1 L30.05 -13.05 30.05 -13.0 30.3 -12.55 67.75 25.6 68.1 25.85 68.45 25.9 68.55 25.9 68.8 25.85 69.15 25.65 69.25 25.55 72.15 21.95 72.15 21.9 Q96.0 -10.6 95.85 -46.3 L95.85 -46.35 Q94.3 -78.35 75.1 -97.25 55.85 -115.85 27.6 -114.5 L27.55 -114.5 Z" fill="none" stroke="#ff0000" stroke-linecap="round" stroke-linejoin="round" stroke-opacity="0.7529412" stroke-width="2.0"/>
  </g>
</svg>
