<?xml version="1.0" encoding="UTF-8" standalone="no"?>
<svg xmlns:ffdec="https://www.free-decompiler.com/flash" xmlns:xlink="http://www.w3.org/1999/xlink" ffdec:objectType="shape" height="94.65px" width="83.3px" xmlns="http://www.w3.org/2000/svg">
  <g transform="matrix(1.0, 0.0, 0.0, 1.0, 81.6, 69.5)">
    <path d="M-13.35 -16.35 L0.2 -5.25 -15.65 -2.9 -15.75 -11.75" fill="none" stroke="#000000" stroke-linecap="round" stroke-linejoin="round" stroke-width="3.0"/>
    <path d="M-56.3 -66.1 Q-82.1 -32.95 -78.05 21.25 L-77.8 21.85 -77.2 22.15 -76.55 22.05 -28.0 -4.1 -27.95 -4.15 Q-27.65 -4.35 -27.55 -4.7 L-27.5 -4.8 -27.5 -4.85 Q-24.2 -20.8 -9.5 -30.1 L-9.45 -30.15 -9.2 -30.4 -9.1 -30.55 -9.0 -30.75 -9.0 -31.1 -9.0 -31.25 -9.15 -31.5 -9.2 -31.6 -9.4 -31.8 -9.45 -31.85 -54.9 -66.3 -55.6 -66.5 Q-56.05 -66.45 -56.3 -66.1 Z" fill="none" stroke="#ff0000" stroke-linecap="round" stroke-linejoin="round" stroke-opacity="0.33333334" stroke-width="6.0"/>
    <path d="M-56.3 -66.1 Q-56.05 -66.45 -55.6 -66.5 L-54.9 -66.3 -9.45 -31.85 -9.4 -31.8 -9.2 -31.6 -9.15 -31.5 -9.0 -31.25 -9.0 -31.1 -9.0 -30.75 -9.1 -30.55 -9.2 -30.4 -9.45 -30.15 -9.5 -30.1 Q-24.2 -20.8 -27.5 -4.85 L-27.5 -4.8 -27.55 -4.7 Q-27.65 -4.35 -27.95 -4.15 L-28.0 -4.1 -76.55 22.05 -77.2 22.15 -77.8 21.85 -78.05 21.25 Q-82.1 -32.95 -56.3 -66.1" fill="#ffffff" fill-rule="evenodd" stroke="none"/>
    <path d="M-56.3 -66.1 Q-82.1 -32.95 -78.05 21.25 L-77.8 21.85 -77.2 22.15 -76.55 22.05 -28.0 -4.1 -27.95 -4.15 Q-27.65 -4.35 -27.55 -4.7 L-27.5 -4.8 -27.5 -4.85 Q-24.2 -20.8 -9.5 -30.1 L-9.45 -30.15 -9.2 -30.4 -9.1 -30.55 -9.0 -30.75 -9.0 -31.1 -9.0 -31.25 -9.15 -31.5 -9.2 -31.6 -9.4 -31.8 -9.45 -31.85 -54.9 -66.3 -55.6 -66.5 Q-56.05 -66.45 -56.3 -66.1 Z" fill="none" stroke="#ff0000" stroke-linecap="round" stroke-linejoin="round" stroke-opacity="0.33333334" stroke-width="4.0"/>
    <path d="M-56.3 -66.1 Q-82.1 -32.95 -78.05 21.25 L-77.8 21.85 -77.2 22.15 -76.55 22.05 -28.0 -4.1 -27.95 -4.15 Q-27.65 -4.35 -27.55 -4.7 L-27.5 -4.8 -27.5 -4.85 Q-24.2 -20.8 -9.5 -30.1 L-9.45 -30.15 -9.2 -30.4 -9.1 -30.55 -9.0 -30.75 -9.0 -31.1 -9.0 -31.25 -9.15 -31.5 -9.2 -31.6 -9.4 -31.8 -9.45 -31.85 -54.9 -66.3 -55.6 -66.5 Q-56.05 -66.45 -56.3 -66.1 Z" fill="none" stroke="#ff0000" stroke-linecap="round" stroke-linejoin="round" stroke-opacity="0.7529412" stroke-width="2.0"/>
  </g>
</svg>
