<?xml version="1.0" encoding="UTF-8" standalone="no"?>
<svg xmlns:ffdec="https://www.free-decompiler.com/flash" xmlns:xlink="http://www.w3.org/1999/xlink" ffdec:objectType="shape" height="57.5px" width="81.7px" xmlns="http://www.w3.org/2000/svg">
  <g transform="matrix(1.0, 0.0, 0.0, 1.0, 80.5, 9.0)">
    <path d="M-18.35 -6.1 L-0.3 -6.0 -11.15 5.35 -16.75 -2.0" fill="none" stroke="#000000" stroke-linecap="round" stroke-linejoin="round" stroke-width="3.0"/>
    <path d="M-26.9 -5.55 Q-27.15 -5.9 -27.5 -5.95 L-28.25 -5.85 -77.0 21.9 -77.4 22.35 -77.45 22.95 Q-75.1 35.05 -66.75 45.15 L-66.3 45.45 -65.8 45.5 -65.3 45.25 -26.05 8.0 -25.75 7.5 Q-25.7 7.2 -25.8 6.95 -27.6 1.05 -26.75 -4.85 -26.7 -5.25 -26.9 -5.55 Z" fill="none" stroke="#ff0000" stroke-linecap="round" stroke-linejoin="round" stroke-opacity="0.33333334" stroke-width="6.0"/>
    <path d="M-28.25 -5.85 L-27.5 -5.95 Q-27.15 -5.9 -26.9 -5.55 -26.7 -5.25 -26.75 -4.85 -27.6 1.05 -25.8 6.95 -25.7 7.2 -25.75 7.5 L-26.05 8.0 -65.3 45.25 -65.8 45.5 -66.3 45.45 -66.75 45.15 Q-75.1 35.05 -77.45 22.95 L-77.4 22.35 -77.0 21.9 -28.25 -5.85" fill="#ffffff" fill-rule="evenodd" stroke="none"/>
    <path d="M-26.9 -5.55 Q-27.15 -5.9 -27.5 -5.95 L-28.25 -5.85 -77.0 21.9 -77.4 22.35 -77.45 22.95 Q-75.1 35.05 -66.75 45.15 L-66.3 45.45 -65.8 45.5 -65.3 45.25 -26.05 8.0 -25.75 7.5 Q-25.7 7.2 -25.8 6.95 -27.6 1.05 -26.75 -4.85 -26.7 -5.25 -26.9 -5.55 Z" fill="none" stroke="#ff0000" stroke-linecap="round" stroke-linejoin="round" stroke-opacity="0.33333334" stroke-width="4.0"/>
    <path d="M-28.25 -5.85 L-77.0 21.9 -77.4 22.35 -77.45 22.95 Q-75.1 35.05 -66.75 45.15 L-66.3 45.45 -65.8 45.5 -65.3 45.25 -26.05 8.0 -25.75 7.5 Q-25.7 7.2 -25.8 6.95 -27.6 1.05 -26.75 -4.85 -26.7 -5.25 -26.9 -5.55 -27.15 -5.9 -27.5 -5.95 L-28.25 -5.85 Z" fill="none" stroke="#ff0000" stroke-linecap="round" stroke-linejoin="round" stroke-opacity="0.7529412" stroke-width="2.0"/>
  </g>
</svg>
