<?xml version="1.0" encoding="UTF-8" standalone="no"?>
<svg xmlns:ffdec="https://www.free-decompiler.com/flash" xmlns:xlink="http://www.w3.org/1999/xlink" ffdec:objectType="shape" height="67.0px" width="71.7px" xmlns="http://www.w3.org/2000/svg">
  <g transform="matrix(1.0, 0.0, 0.0, 1.0, 70.5, 7.0)">
    <path d="M-18.6 -4.1 L-0.3 -5.5 -10.15 5.85 -17.5 1.0" fill="none" stroke="#000000" stroke-linecap="round" stroke-linejoin="round" stroke-width="3.0"/>
    <path d="M-26.9 7.75 L-67.15 43.75 -67.5 44.45 -67.25 45.15 Q-61.35 52.35 -54.55 56.85 L-53.8 57.0 -53.15 56.55 -23.7 12.35 Q-23.4 11.9 -23.65 11.25 L-25.3 8.2 -25.5 7.85 Q-25.8 7.5 -26.2 7.5 L-26.9 7.75 Z" fill="none" stroke="#ff0000" stroke-linecap="round" stroke-linejoin="round" stroke-opacity="0.33333334" stroke-width="6.0"/>
    <path d="M-26.9 7.75 L-26.2 7.5 Q-25.8 7.5 -25.5 7.85 L-25.3 8.2 -23.65 11.25 Q-23.4 11.9 -23.7 12.35 L-53.15 56.55 -53.8 57.0 -54.55 56.85 Q-61.35 52.35 -67.25 45.15 L-67.5 44.45 -67.15 43.75 -26.9 7.75" fill="#ffffff" fill-rule="evenodd" stroke="none"/>
    <path d="M-26.9 7.75 L-67.15 43.75 -67.5 44.45 -67.25 45.15 Q-61.35 52.35 -54.55 56.85 L-53.8 57.0 -53.15 56.55 -23.7 12.35 Q-23.4 11.9 -23.65 11.25 L-25.3 8.2 -25.5 7.85 Q-25.8 7.5 -26.2 7.5 L-26.9 7.75 Z" fill="none" stroke="#ff0000" stroke-linecap="round" stroke-linejoin="round" stroke-opacity="0.33333334" stroke-width="4.0"/>
    <path d="M-26.9 7.75 L-67.15 43.75 -67.5 44.45 -67.25 45.15 Q-61.35 52.35 -54.55 56.85 L-53.8 57.0 -53.15 56.55 -23.7 12.35 Q-23.4 11.9 -23.65 11.25 L-25.3 8.2 -25.5 7.85 Q-25.8 7.5 -26.2 7.5 L-26.9 7.75 Z" fill="none" stroke="#ff0000" stroke-linecap="round" stroke-linejoin="round" stroke-opacity="0.7529412" stroke-width="2.0"/>
  </g>
</svg>
