<?xml version="1.0" encoding="UTF-8" standalone="no"?>
<svg xmlns:ffdec="https://www.free-decompiler.com/flash" xmlns:xlink="http://www.w3.org/1999/xlink" ffdec:objectType="shape" height="70.25px" width="57.45px" xmlns="http://www.w3.org/2000/svg">
  <g transform="matrix(1.0, 0.0, 0.0, 1.0, 56.25, 6.75)">
    <path d="M-0.3 -5.25 L-10.15 6.1 -17.25 1.0" fill="none" stroke="#000000" stroke-linecap="round" stroke-linejoin="round" stroke-width="3.0"/>
    <path d="M-22.25 12.05 L-22.3 11.95 -22.4 11.7 -22.7 11.4 -23.45 11.3 -23.55 11.3 -23.75 11.4 -24.1 11.7 -53.1 56.45 -53.25 57.0 -53.2 57.2 -53.2 57.25 -53.15 57.4 -52.8 57.85 -52.65 57.95 -48.75 60.35 -48.25 60.5 -47.75 60.35 -47.35 60.0 -22.4 12.8 -22.25 12.05 Z" fill="none" stroke="#ff0000" stroke-linecap="round" stroke-linejoin="round" stroke-opacity="0.33333334" stroke-width="6.0"/>
    <path d="M-22.25 12.05 L-22.4 12.8 -47.35 60.0 -47.75 60.35 -48.25 60.5 -48.75 60.35 -52.65 57.95 -52.8 57.85 -53.15 57.4 -53.2 57.25 -53.2 57.2 -53.25 57.0 -53.1 56.45 -24.1 11.7 -23.75 11.4 -23.55 11.3 -23.45 11.3 -22.7 11.4 -22.4 11.7 -22.3 11.95 -22.25 12.05" fill="#ffffff" fill-rule="evenodd" stroke="none"/>
    <path d="M-22.25 12.05 L-22.3 11.95 -22.4 11.7 -22.7 11.4 -23.45 11.3 -23.55 11.3 -23.75 11.4 -24.1 11.7 -53.1 56.45 -53.25 57.0 -53.2 57.2 -53.2 57.25 -53.15 57.4 -52.8 57.85 -52.65 57.95 -48.75 60.35 -48.25 60.5 -47.75 60.35 -47.35 60.0 -22.4 12.8 -22.25 12.05 Z" fill="none" stroke="#ff0000" stroke-linecap="round" stroke-linejoin="round" stroke-opacity="0.33333334" stroke-width="4.0"/>
    <path d="M-22.25 12.05 L-22.3 11.95 -22.4 11.7 -22.7 11.4 -23.45 11.3 -23.55 11.3 -23.75 11.4 -24.1 11.7 -53.1 56.45 -53.25 57.0 -53.2 57.2 -53.2 57.25 -53.15 57.4 -52.8 57.85 -52.65 57.95 -48.75 60.35 -48.25 60.5 -47.75 60.35 -47.35 60.0 -22.4 12.8 -22.25 12.05 Z" fill="none" stroke="#ff0000" stroke-linecap="round" stroke-linejoin="round" stroke-opacity="0.7529412" stroke-width="2.0"/>
  </g>
</svg>
