<?xml version="1.0" encoding="UTF-8" standalone="no"?>
<svg xmlns:ffdec="https://www.free-decompiler.com/flash" xmlns:xlink="http://www.w3.org/1999/xlink" ffdec:objectType="shape" height="71.1px" width="51.65px" xmlns="http://www.w3.org/2000/svg">
  <g transform="matrix(1.0, 0.0, 0.0, 1.0, 50.45, 5.75)">
    <path d="M-0.3 -4.25 L-9.9 6.6 -15.75 1.5" fill="none" stroke="#000000" stroke-linecap="round" stroke-linejoin="round" stroke-width="3.0"/>
    <path d="M-21.6 12.0 L-22.05 12.0 -22.45 12.3 -22.6 12.5 -47.35 59.85 -47.4 60.5 -46.85 61.05 -44.3 62.25 -43.55 62.3 Q-43.15 62.15 -43.0 61.8 L-20.85 13.45 -20.85 13.4 -20.75 13.05 -20.8 12.65 -20.9 12.45 -21.3 12.05 -21.6 12.0 Z" fill="none" stroke="#ff0000" stroke-linecap="round" stroke-linejoin="round" stroke-opacity="0.33333334" stroke-width="6.0"/>
    <path d="M-22.05 12.0 L-21.6 12.0 -21.3 12.05 -20.9 12.45 -20.8 12.65 -20.75 13.05 -20.85 13.4 -20.85 13.45 -43.0 61.8 Q-43.15 62.15 -43.55 62.3 L-44.3 62.25 -46.85 61.05 -47.4 60.5 -47.35 59.85 -47.4 60.45 -46.9 61.05 -46.15 61.1 -45.55 60.65 -45.55 60.55 -46.45 60.15 -30.4 29.45 -22.6 12.5 -22.55 12.4 -22.45 12.3 -22.05 12.0" fill="#ffffff" fill-rule="evenodd" stroke="none"/>
    <path d="M-21.6 12.0 L-22.05 12.0 -22.45 12.3 -22.6 12.5 -47.35 59.85 -47.4 60.5 -46.85 61.05 -44.3 62.25 -43.55 62.3 Q-43.15 62.15 -43.0 61.8 L-20.85 13.45 -20.85 13.4 -20.75 13.05 -20.8 12.65 -20.9 12.45 -21.3 12.05 -21.6 12.0 Z" fill="none" stroke="#ff0000" stroke-linecap="round" stroke-linejoin="round" stroke-opacity="0.33333334" stroke-width="4.0"/>
    <path d="M-21.6 12.0 L-22.05 12.0 -22.45 12.3 -22.6 12.5 -47.35 59.85 -47.4 60.5 -46.85 61.05 -44.3 62.25 -43.55 62.3 Q-43.15 62.15 -43.0 61.8 L-20.85 13.45 -20.85 13.4 -20.75 13.05 -20.8 12.65 -20.9 12.45 -21.3 12.05 -21.6 12.0 Z" fill="none" stroke="#ff0000" stroke-linecap="round" stroke-linejoin="round" stroke-opacity="0.7529412" stroke-width="2.0"/>
  </g>
</svg>
