<?xml version="1.0" encoding="UTF-8" standalone="no"?>
<svg xmlns:ffdec="https://www.free-decompiler.com/flash" xmlns:xlink="http://www.w3.org/1999/xlink" ffdec:objectType="shape" height="44.35px" width="57.2px" xmlns="http://www.w3.org/2000/svg">
  <g transform="matrix(1.0, 0.0, 0.0, 1.0, 56.0, 7.25)">
    <path d="M-0.3 4.0 L-16.4 2.85 -18.75 -5.75" fill="none" stroke="#000000" stroke-linecap="round" stroke-linejoin="round" stroke-width="3.0"/>
    <path d="M-24.3 1.05 L-52.7 29.3 -52.95 29.8 -52.95 30.35 -52.6 30.8 Q-48.6 34.0 -41.75 34.1 L-41.25 34.0 -40.85 33.6 -22.7 2.25 -22.6 1.55 -23.0 0.95 Q-23.3 0.7 -23.65 0.75 -24.05 0.8 -24.3 1.05 Z" fill="none" stroke="#ff0000" stroke-linecap="round" stroke-linejoin="round" stroke-opacity="0.33333334" stroke-width="6.0"/>
    <path d="M-24.3 1.05 Q-24.05 0.8 -23.65 0.75 -23.3 0.7 -23.0 0.95 L-22.6 1.55 -22.7 2.25 -40.85 33.6 -41.25 34.0 -41.75 34.1 Q-48.6 34.0 -52.6 30.8 L-52.95 30.35 -52.95 29.8 -52.7 29.3 -24.3 1.05" fill="#ffffff" fill-rule="evenodd" stroke="none"/>
    <path d="M-24.3 1.05 L-52.7 29.3 -52.95 29.8 -52.95 30.35 -52.6 30.8 Q-48.6 34.0 -41.75 34.1 L-41.25 34.0 -40.85 33.6 -22.7 2.25 -22.6 1.55 -23.0 0.95 Q-23.3 0.7 -23.65 0.75 -24.05 0.8 -24.3 1.05 Z" fill="none" stroke="#ff0000" stroke-linecap="round" stroke-linejoin="round" stroke-opacity="0.33333334" stroke-width="4.0"/>
    <path d="M-24.3 1.05 L-52.7 29.3 -52.95 29.8 -52.95 30.35 -52.6 30.8 Q-48.6 34.0 -41.75 34.1 L-41.25 34.0 -40.85 33.6 -22.7 2.25 -22.6 1.55 -23.0 0.95 Q-23.3 0.7 -23.65 0.75 -24.05 0.8 -24.3 1.05 Z" fill="none" stroke="#ff0000" stroke-linecap="round" stroke-linejoin="round" stroke-opacity="0.7529412" stroke-width="2.0"/>
  </g>
</svg>
