<?xml version="1.0" encoding="UTF-8" standalone="no"?>
<svg xmlns:ffdec="https://www.free-decompiler.com/flash" xmlns:xlink="http://www.w3.org/1999/xlink" ffdec:objectType="shape" height="51.75px" width="72.45px" xmlns="http://www.w3.org/2000/svg">
  <g transform="matrix(1.0, 0.0, 0.0, 1.0, 71.5, 16.0)">
    <path d="M-0.55 0.0 L-20.65 4.6 -21.25 -2.25" fill="none" stroke="#000000" stroke-linecap="round" stroke-linejoin="round" stroke-width="3.0"/>
    <path d="M-20.2 -12.85 L-67.95 12.65 -68.4 13.15 -68.45 13.85 Q-63.55 27.55 -48.9 32.7 L-48.3 32.75 -47.8 32.4 -22.95 2.4 -22.75 1.85 Q-21.95 -5.8 -18.85 -11.5 L-18.75 -12.15 -19.05 -12.7 -19.6 -13.0 -20.2 -12.85 Z" fill="none" stroke="#ff0000" stroke-linecap="round" stroke-linejoin="round" stroke-opacity="0.33333334" stroke-width="6.0"/>
    <path d="M-20.2 -12.85 L-19.6 -13.0 -19.05 -12.7 -18.75 -12.15 -18.85 -11.5 Q-21.95 -5.8 -22.75 1.85 L-22.95 2.4 -47.8 32.4 -48.3 32.75 -48.9 32.7 Q-63.55 27.55 -68.45 13.85 L-68.4 13.15 -67.95 12.65 -20.2 -12.85" fill="#ffffff" fill-rule="evenodd" stroke="none"/>
    <path d="M-20.2 -12.85 L-67.95 12.65 -68.4 13.15 -68.45 13.85 Q-63.55 27.55 -48.9 32.7 L-48.3 32.75 -47.8 32.4 -22.95 2.4 -22.75 1.85 Q-21.95 -5.8 -18.85 -11.5 L-18.75 -12.15 -19.05 -12.7 -19.6 -13.0 -20.2 -12.85 Z" fill="none" stroke="#ff0000" stroke-linecap="round" stroke-linejoin="round" stroke-opacity="0.33333334" stroke-width="4.0"/>
    <path d="M-20.2 -12.85 L-67.95 12.65 -68.4 13.15 -68.45 13.85 Q-63.55 27.55 -48.9 32.7 L-48.3 32.75 -47.8 32.4 -22.95 2.4 -22.75 1.85 Q-21.95 -5.8 -18.85 -11.5 L-18.75 -12.15 -19.05 -12.7 -19.6 -13.0 -20.2 -12.85 Z" fill="none" stroke="#ff0000" stroke-linecap="round" stroke-linejoin="round" stroke-opacity="0.7529412" stroke-width="2.0"/>
  </g>
</svg>
