<?xml version="1.0" encoding="UTF-8" standalone="no"?>
<svg xmlns:ffdec="https://www.free-decompiler.com/flash" xmlns:xlink="http://www.w3.org/1999/xlink" ffdec:objectType="shape" height="131.95px" width="157.55px" xmlns="http://www.w3.org/2000/svg">
  <g transform="matrix(1.0, 0.0, 0.0, 1.0, 76.3, 113.45)">
    <path d="M77.95 -76.2 Q52.7 -100.4 30.85 -107.2 3.75 -115.7 -27.4 -101.9 -39.45 -96.6 -49.6 -84.85 -59.75 -73.15 -65.85 -57.45 -79.75 -21.95 -67.7 14.8 L-67.35 15.3 -66.8 15.5 -66.25 15.4 -19.25 -11.35 -18.9 -11.65 -18.75 -12.05 Q-14.55 -36.25 4.55 -43.15 23.65 -50.0 41.6 -34.0 41.8 -33.8 42.05 -33.75 L42.6 -33.8 43.0 -34.1 78.0 -74.85 78.25 -75.55 77.95 -76.2 Z" fill="none" stroke="#ff0000" stroke-linecap="round" stroke-linejoin="round" stroke-opacity="0.33333334" stroke-width="6.0"/>
    <path d="M77.95 -76.2 L78.25 -75.55 78.0 -74.85 43.0 -34.1 42.6 -33.8 42.05 -33.75 Q41.8 -33.8 41.6 -34.0 23.65 -50.0 4.55 -43.15 -14.55 -36.25 -18.75 -12.05 L-18.9 -11.65 -19.25 -11.35 -66.25 15.4 -66.8 15.5 -67.35 15.3 -67.7 14.8 Q-79.75 -21.95 -65.85 -57.45 -59.75 -73.15 -49.6 -84.85 -39.45 -96.6 -27.4 -101.9 3.75 -115.7 30.85 -107.2 52.7 -100.4 77.95 -76.2" fill="#ffffff" fill-rule="evenodd" stroke="none"/>
    <path d="M77.95 -76.2 Q52.7 -100.4 30.85 -107.2 3.75 -115.7 -27.4 -101.9 -39.45 -96.6 -49.6 -84.85 -59.75 -73.15 -65.85 -57.45 -79.75 -21.95 -67.7 14.8 L-67.35 15.3 -66.8 15.5 -66.25 15.4 -19.25 -11.35 -18.9 -11.65 -18.75 -12.05 Q-14.55 -36.25 4.55 -43.15 23.65 -50.0 41.6 -34.0 41.8 -33.8 42.05 -33.75 L42.6 -33.8 43.0 -34.1 78.0 -74.85 78.25 -75.55 77.95 -76.2 Z" fill="none" stroke="#ff0000" stroke-linecap="round" stroke-linejoin="round" stroke-opacity="0.33333334" stroke-width="4.0"/>
    <path d="M77.95 -76.2 Q52.7 -100.4 30.85 -107.2 3.75 -115.7 -27.4 -101.9 -39.45 -96.6 -49.6 -84.85 -59.75 -73.15 -65.85 -57.45 -79.75 -21.95 -67.7 14.8 L-67.35 15.3 -66.8 15.5 -66.25 15.4 -19.25 -11.35 -18.9 -11.65 -18.75 -12.05 Q-14.55 -36.25 4.55 -43.15 23.65 -50.0 41.6 -34.0 41.8 -33.8 42.05 -33.75 L42.6 -33.8 43.0 -34.1 78.0 -74.85 78.25 -75.55 77.95 -76.2 Z" fill="none" stroke="#ff0000" stroke-linecap="round" stroke-linejoin="round" stroke-opacity="0.7529412" stroke-width="2.0"/>
  </g>
</svg>
