<?xml version="1.0" encoding="UTF-8" standalone="no"?>
<svg xmlns:ffdec="https://www.free-decompiler.com/flash" xmlns:xlink="http://www.w3.org/1999/xlink" ffdec:objectType="shape" height="52.6px" width="53.9px" xmlns="http://www.w3.org/2000/svg">
  <g transform="matrix(1.0, 0.0, 0.0, 1.0, -38.95, 79.75)">
    <path d="M76.6 -76.4 L42.2 -35.4 Q41.9 -35.05 41.95 -34.65 42.0 -34.25 42.35 -33.95 L46.75 -30.35 Q47.0 -30.15 47.35 -30.15 L48.0 -30.35 89.5 -63.45 89.85 -64.1 89.65 -64.85 Q84.7 -71.35 77.95 -76.55 L77.25 -76.75 76.6 -76.4 Z" fill="none" stroke="#ff0000" stroke-linecap="round" stroke-linejoin="round" stroke-opacity="0.33333334" stroke-width="6.0"/>
    <path d="M76.6 -76.4 L77.25 -76.75 77.95 -76.55 Q84.7 -71.35 89.65 -64.85 L89.85 -64.1 89.5 -63.45 48.0 -30.35 47.35 -30.15 Q47.0 -30.15 46.75 -30.35 L42.35 -33.95 Q42.0 -34.25 41.95 -34.65 41.9 -35.05 42.2 -35.4 L76.6 -76.4" fill="#ffffff" fill-rule="evenodd" stroke="none"/>
    <path d="M76.6 -76.4 L42.2 -35.4 Q41.9 -35.05 41.95 -34.65 42.0 -34.25 42.35 -33.95 L46.75 -30.35 Q47.0 -30.15 47.35 -30.15 L48.0 -30.35 89.5 -63.45 89.85 -64.1 89.65 -64.85 Q84.7 -71.35 77.95 -76.55 L77.25 -76.75 76.6 -76.4 Z" fill="none" stroke="#ff0000" stroke-linecap="round" stroke-linejoin="round" stroke-opacity="0.33333334" stroke-width="4.0"/>
    <path d="M76.6 -76.4 L42.2 -35.4 Q41.9 -35.05 41.95 -34.65 42.0 -34.25 42.35 -33.95 L46.75 -30.35 Q47.0 -30.15 47.35 -30.15 L48.0 -30.35 89.5 -63.45 89.85 -64.1 89.65 -64.85 Q84.7 -71.35 77.95 -76.55 L77.25 -76.75 76.6 -76.4 Z" fill="none" stroke="#ff0000" stroke-linecap="round" stroke-linejoin="round" stroke-opacity="0.7529412" stroke-width="2.0"/>
  </g>
</svg>
