<?xml version="1.0" encoding="UTF-8" standalone="no"?>
<svg xmlns:ffdec="https://www.free-decompiler.com/flash" xmlns:xlink="http://www.w3.org/1999/xlink" ffdec:objectType="shape" height="42.75px" width="53.1px" xmlns="http://www.w3.org/2000/svg">
  <g transform="matrix(1.0, 0.0, 0.0, 1.0, -43.5, 68.5)">
    <path d="M46.55 -31.1 L46.55 -30.5 46.95 -30.0 48.55 -28.9 Q48.8 -28.75 49.1 -28.75 L49.7 -28.9 93.2 -59.65 93.55 -60.1 93.6 -60.65 93.35 -61.15 89.6 -65.15 88.95 -65.5 Q88.55 -65.55 88.25 -65.25 L46.9 -31.6 46.55 -31.1 Z" fill="none" stroke="#ff0000" stroke-linecap="round" stroke-linejoin="round" stroke-opacity="0.33333334" stroke-width="6.0"/>
    <path d="M46.55 -31.1 L46.9 -31.6 88.25 -65.25 Q88.55 -65.55 88.95 -65.5 L89.6 -65.15 93.35 -61.15 93.6 -60.65 93.55 -60.1 93.2 -59.65 49.7 -28.9 49.1 -28.75 Q48.8 -28.75 48.55 -28.9 L46.95 -30.0 46.55 -30.5 46.55 -31.1" fill="#ffffff" fill-rule="evenodd" stroke="none"/>
    <path d="M46.55 -31.1 L46.55 -30.5 46.95 -30.0 48.55 -28.9 Q48.8 -28.75 49.1 -28.75 L49.7 -28.9 93.2 -59.65 93.55 -60.1 93.6 -60.65 93.35 -61.15 89.6 -65.15 88.95 -65.5 Q88.55 -65.55 88.25 -65.25 L46.9 -31.6 46.55 -31.1 Z" fill="none" stroke="#ff0000" stroke-linecap="round" stroke-linejoin="round" stroke-opacity="0.33333334" stroke-width="4.0"/>
    <path d="M46.55 -31.1 L46.55 -30.5 46.95 -30.0 48.55 -28.9 Q48.8 -28.75 49.1 -28.75 L49.7 -28.9 93.2 -59.65 93.55 -60.1 93.6 -60.65 93.35 -61.15 89.6 -65.15 88.95 -65.5 Q88.55 -65.55 88.25 -65.25 L46.9 -31.6 46.55 -31.1 Z" fill="none" stroke="#ff0000" stroke-linecap="round" stroke-linejoin="round" stroke-opacity="0.7529412" stroke-width="2.0"/>
  </g>
</svg>
