<?xml version="1.0" encoding="UTF-8" standalone="no"?>
<svg xmlns:ffdec="https://www.free-decompiler.com/flash" xmlns:xlink="http://www.w3.org/1999/xlink" ffdec:objectType="shape" height="80.75px" width="32.35px" xmlns="http://www.w3.org/2000/svg">
  <g transform="matrix(1.0, 0.0, 0.0, 1.0, 1.5, 16.15)">
    <path d="M29.35 6.75 L0.0 0.0 13.85 -14.65 21.5 -4.5" fill="none" stroke="#000000" stroke-linecap="round" stroke-linejoin="round" stroke-width="3.0"/>
    <path d="M19.75 6.15 L13.75 59.65 13.85 60.15 14.15 60.55 Q16.45 62.45 19.9 60.95 L20.35 60.55 20.5 60.05 21.75 6.3 21.5 5.6 20.85 5.25 Q20.4 5.2 20.1 5.5 19.8 5.75 19.75 6.15 Z" fill="none" stroke="#ff0000" stroke-linecap="round" stroke-linejoin="round" stroke-opacity="0.33333334" stroke-width="6.0"/>
    <path d="M19.75 6.15 Q19.8 5.75 20.1 5.5 20.4 5.2 20.85 5.25 L21.5 5.6 21.75 6.3 20.5 60.05 20.35 60.55 19.9 60.95 Q16.45 62.45 14.15 60.55 L13.85 60.15 13.75 59.65 19.75 6.15" fill="#ffffff" fill-rule="evenodd" stroke="none"/>
    <path d="M19.75 6.15 L13.75 59.65 13.85 60.15 14.15 60.55 Q16.45 62.45 19.9 60.95 L20.35 60.55 20.5 60.05 21.75 6.3 21.5 5.6 20.85 5.25 Q20.4 5.2 20.1 5.5 19.8 5.75 19.75 6.15 Z" fill="none" stroke="#ff0000" stroke-linecap="round" stroke-linejoin="round" stroke-opacity="0.33333334" stroke-width="4.0"/>
    <path d="M19.75 6.15 L13.75 59.65 13.85 60.15 14.15 60.55 Q16.45 62.45 19.9 60.95 L20.35 60.55 20.5 60.05 21.75 6.3 21.5 5.6 20.85 5.25 Q20.4 5.2 20.1 5.5 19.8 5.75 19.75 6.15 Z" fill="none" stroke="#ff0000" stroke-linecap="round" stroke-linejoin="round" stroke-opacity="0.7529412" stroke-width="2.0"/>
  </g>
</svg>
