<?xml version="1.0" encoding="UTF-8" standalone="no"?>
<svg xmlns:ffdec="https://www.free-decompiler.com/flash" xmlns:xlink="http://www.w3.org/1999/xlink" ffdec:objectType="shape" height="95.25px" width="32.1px" xmlns="http://www.w3.org/2000/svg">
  <g transform="matrix(1.0, 0.0, 0.0, 1.0, 1.65, 31.25)">
    <path d="M28.95 -10.55 L-0.15 -3.15 9.5 -18.65 22.25 -29.75" fill="none" stroke="#000000" stroke-linecap="round" stroke-linejoin="round" stroke-width="3.0"/>
    <path d="M22.45 -25.5 Q22.05 -25.5 21.8 -25.2 21.5 -24.95 21.5 -24.55 L18.25 59.95 18.5 60.65 19.15 61.0 19.85 60.8 20.25 60.2 20.25 60.05 Q26.45 29.95 26.75 -1.0 L26.75 -1.1 23.5 -24.6 23.15 -25.25 22.45 -25.5 Z" fill="none" stroke="#ff0000" stroke-linecap="round" stroke-linejoin="round" stroke-opacity="0.33333334" stroke-width="6.0"/>
    <path d="M22.45 -25.5 L23.15 -25.25 23.5 -24.6 26.75 -1.1 26.75 -1.0 Q26.45 29.95 20.25 60.05 L20.25 60.2 19.85 60.8 19.15 61.0 18.5 60.65 18.25 59.95 21.5 -24.55 Q21.5 -24.95 21.8 -25.2 22.05 -25.5 22.45 -25.5" fill="#ffffff" fill-rule="evenodd" stroke="none"/>
    <path d="M22.45 -25.5 Q22.05 -25.5 21.8 -25.2 21.5 -24.95 21.5 -24.55 L18.25 59.95 18.5 60.65 19.15 61.0 19.85 60.8 20.25 60.2 20.25 60.05 Q26.45 29.95 26.75 -1.0 L26.75 -1.1 23.5 -24.6 23.15 -25.25 22.45 -25.5 Z" fill="none" stroke="#ff0000" stroke-linecap="round" stroke-linejoin="round" stroke-opacity="0.33333334" stroke-width="4.0"/>
    <path d="M22.45 -25.5 Q22.05 -25.5 21.8 -25.2 21.5 -24.95 21.5 -24.55 L18.25 59.95 18.5 60.65 19.15 61.0 19.85 60.8 20.25 60.2 20.25 60.05 Q26.45 29.95 26.75 -1.0 L26.75 -1.1 23.5 -24.6 23.15 -25.25 22.45 -25.5 Z" fill="none" stroke="#ff0000" stroke-linecap="round" stroke-linejoin="round" stroke-opacity="0.7529412" stroke-width="2.0"/>
  </g>
</svg>
