<?xml version="1.0" encoding="UTF-8" standalone="no"?>
<svg xmlns:ffdec="https://www.free-decompiler.com/flash" xmlns:xlink="http://www.w3.org/1999/xlink" ffdec:objectType="shape" height="85.85px" width="48.8px" xmlns="http://www.w3.org/2000/svg">
  <g transform="matrix(1.0, 0.0, 0.0, 1.0, 1.4, 83.35)">
    <path d="M0.1 -6.25 L6.4 -22.3 16.0 -30.0" fill="none" stroke="#000000" stroke-linecap="round" stroke-linejoin="round" stroke-width="3.0"/>
    <path d="M43.35 -75.9 Q41.35 -81.15 35.85 -80.2 35.6 -80.2 35.4 -80.0 L35.1 -79.6 18.35 -39.35 18.25 -38.85 18.5 -38.35 Q18.65 -38.15 18.9 -38.05 20.95 -37.05 21.5 -24.45 L21.5 -24.35 24.75 -1.35 25.05 -0.75 Q25.3 -0.55 25.65 -0.5 L26.3 -0.65 26.7 -1.15 Q41.3 -41.7 43.85 -61.2 45.15 -71.3 43.35 -75.9 Z" fill="none" stroke="#ff0000" stroke-linecap="round" stroke-linejoin="round" stroke-opacity="0.33333334" stroke-width="6.0"/>
    <path d="M43.35 -75.9 Q45.15 -71.3 43.85 -61.2 41.3 -41.7 26.7 -1.15 L26.3 -0.65 25.65 -0.5 Q25.3 -0.55 25.05 -0.75 L24.75 -1.35 21.5 -24.35 21.5 -24.45 Q20.95 -37.05 18.9 -38.05 18.65 -38.15 18.5 -38.35 L18.25 -38.85 18.35 -39.35 35.1 -79.6 35.4 -80.0 Q35.6 -80.2 35.85 -80.2 41.35 -81.15 43.35 -75.9" fill="#ffffff" fill-rule="evenodd" stroke="none"/>
    <path d="M43.35 -75.9 Q41.35 -81.15 35.85 -80.2 35.6 -80.2 35.4 -80.0 L35.1 -79.6 18.35 -39.35 18.25 -38.85 18.5 -38.35 Q18.65 -38.15 18.9 -38.05 20.95 -37.05 21.5 -24.45 L21.5 -24.35 24.75 -1.35 25.05 -0.75 Q25.3 -0.55 25.65 -0.5 L26.3 -0.65 26.7 -1.15 Q41.3 -41.7 43.85 -61.2 45.15 -71.3 43.35 -75.9 Z" fill="none" stroke="#ff0000" stroke-linecap="round" stroke-linejoin="round" stroke-opacity="0.33333334" stroke-width="4.0"/>
    <path d="M43.35 -75.9 Q41.35 -81.15 35.85 -80.2 35.6 -80.2 35.4 -80.0 L35.1 -79.6 18.35 -39.35 18.25 -38.85 18.5 -38.35 Q18.65 -38.15 18.9 -38.05 20.95 -37.05 21.5 -24.45 L21.5 -24.35 24.75 -1.35 25.05 -0.75 Q25.3 -0.55 25.65 -0.5 L26.3 -0.65 26.7 -1.15 Q41.3 -41.7 43.85 -61.2 45.15 -71.3 43.35 -75.9 Z" fill="none" stroke="#ff0000" stroke-linecap="round" stroke-linejoin="round" stroke-opacity="0.7529412" stroke-width="2.0"/>
  </g>
</svg>
