<?xml version="1.0" encoding="UTF-8" standalone="no"?>
<svg xmlns:ffdec="https://www.free-decompiler.com/flash" xmlns:xlink="http://www.w3.org/1999/xlink" ffdec:objectType="shape" height="114.25px" width="114.75px" xmlns="http://www.w3.org/2000/svg">
  <g transform="matrix(1.0, 0.0, 0.0, 1.0, 75.0, 83.25)">
    <path d="M0.25 -7.1 L-17.1 3.45 -15.85 -9.0" fill="none" stroke="#000000" stroke-linecap="round" stroke-linejoin="round" stroke-width="3.0"/>
    <path d="M35.8 -80.25 Q23.55 -80.8 5.05 -68.9 -11.65 -58.2 -29.2 -40.25 -46.35 -22.8 -58.0 -4.9 -70.35 14.15 -72.0 26.9 L-71.8 27.6 -71.15 28.0 -70.45 27.85 -25.7 -1.65 -25.45 -1.85 Q5.9 -39.2 19.4 -38.0 L20.05 -38.15 20.45 -38.6 36.7 -78.85 36.75 -79.5 36.4 -80.0 35.8 -80.25 Z" fill="none" stroke="#ff0000" stroke-linecap="round" stroke-linejoin="round" stroke-opacity="0.33333334" stroke-width="6.0"/>
    <path d="M35.8 -80.25 L36.4 -80.0 36.75 -79.5 36.7 -78.85 20.45 -38.6 20.05 -38.15 19.4 -38.0 Q5.9 -39.2 -25.45 -1.85 L-25.7 -1.65 -70.45 27.85 -71.15 28.0 -71.8 27.6 -72.0 26.9 Q-70.35 14.15 -58.0 -4.9 -46.35 -22.8 -29.2 -40.25 -11.65 -58.2 5.05 -68.9 23.55 -80.8 35.8 -80.25" fill="#ffffff" fill-rule="evenodd" stroke="none"/>
    <path d="M35.8 -80.25 Q23.55 -80.8 5.05 -68.9 -11.65 -58.2 -29.2 -40.25 -46.35 -22.8 -58.0 -4.9 -70.35 14.15 -72.0 26.9 L-71.8 27.6 -71.15 28.0 -70.45 27.85 -25.7 -1.65 -25.45 -1.85 Q5.9 -39.2 19.4 -38.0 L20.05 -38.15 20.45 -38.6 36.7 -78.85 36.75 -79.5 36.4 -80.0 35.8 -80.25 Z" fill="none" stroke="#ff0000" stroke-linecap="round" stroke-linejoin="round" stroke-opacity="0.33333334" stroke-width="4.0"/>
    <path d="M35.8 -80.25 Q23.55 -80.8 5.05 -68.9 -11.65 -58.2 -29.2 -40.25 -46.35 -22.8 -58.0 -4.9 -70.35 14.15 -72.0 26.9 L-71.8 27.6 -71.15 28.0 -70.45 27.85 -25.7 -1.65 -25.45 -1.85 Q5.9 -39.2 19.4 -38.0 L20.05 -38.15 20.45 -38.6 36.7 -78.85 36.75 -79.5 36.4 -80.0 35.8 -80.25 Z" fill="none" stroke="#ff0000" stroke-linecap="round" stroke-linejoin="round" stroke-opacity="0.7529412" stroke-width="2.0"/>
  </g>
</svg>
