<?xml version="1.0" encoding="UTF-8" standalone="no"?>
<svg xmlns:ffdec="https://www.free-decompiler.com/flash" xmlns:xlink="http://www.w3.org/1999/xlink" ffdec:objectType="shape" height="59.95px" width="52.95px" xmlns="http://www.w3.org/2000/svg">
  <g transform="matrix(1.0, 0.0, 0.0, 1.0, 75.1, 6.35)">
    <path d="M-26.7 -3.2 L-71.65 26.05 -72.0 26.45 -72.1 26.95 Q-71.45 40.9 -65.2 50.15 L-64.75 50.55 -64.15 50.6 -63.65 50.3 -25.4 8.1 -25.15 7.6 -25.2 7.1 Q-27.1 1.15 -25.3 -1.8 -25.1 -2.1 -25.15 -2.45 L-25.45 -3.05 -26.05 -3.35 -26.7 -3.2 Z" fill="none" stroke="#ff0000" stroke-linecap="round" stroke-linejoin="round" stroke-opacity="0.33333334" stroke-width="6.0"/>
    <path d="M-26.7 -3.2 L-26.05 -3.35 -25.45 -3.05 -25.15 -2.45 Q-25.1 -2.1 -25.3 -1.8 -27.1 1.15 -25.2 7.1 L-25.15 7.6 -25.4 8.1 -63.65 50.3 -64.15 50.6 -64.75 50.55 -65.2 50.15 Q-71.45 40.9 -72.1 26.95 L-72.0 26.45 -71.65 26.05 -26.7 -3.2" fill="#ffffff" fill-rule="evenodd" stroke="none"/>
    <path d="M-26.7 -3.2 L-71.65 26.05 -72.0 26.45 -72.1 26.95 Q-71.45 40.9 -65.2 50.15 L-64.75 50.55 -64.15 50.6 -63.65 50.3 -25.4 8.1 -25.15 7.6 -25.2 7.1 Q-27.1 1.15 -25.3 -1.8 -25.1 -2.1 -25.15 -2.45 L-25.45 -3.05 -26.05 -3.35 -26.7 -3.2 Z" fill="none" stroke="#ff0000" stroke-linecap="round" stroke-linejoin="round" stroke-opacity="0.33333334" stroke-width="4.0"/>
    <path d="M-26.7 -3.2 L-71.65 26.05 -72.0 26.45 -72.1 26.95 Q-71.45 40.9 -65.2 50.15 L-64.75 50.55 -64.15 50.6 -63.65 50.3 -25.4 8.1 -25.15 7.6 -25.2 7.1 Q-27.1 1.15 -25.3 -1.8 -25.1 -2.1 -25.15 -2.45 L-25.45 -3.05 -26.05 -3.35 -26.7 -3.2 Z" fill="none" stroke="#ff0000" stroke-linecap="round" stroke-linejoin="round" stroke-opacity="0.7529412" stroke-width="2.0"/>
  </g>
</svg>
