<?xml version="1.0" encoding="UTF-8" standalone="no"?>
<svg xmlns:ffdec="https://www.free-decompiler.com/flash" xmlns:xlink="http://www.w3.org/1999/xlink" ffdec:objectType="shape" height="57.1px" width="47.95px" xmlns="http://www.w3.org/2000/svg">
  <g transform="matrix(1.0, 0.0, 0.0, 1.0, 68.25, -3.2)">
    <path d="M-26.45 6.55 L-65.0 48.95 -65.25 49.5 -65.1 50.1 Q-62.8 54.15 -57.9 57.15 L-57.2 57.3 -56.6 56.9 -23.5 12.9 -23.3 12.5 -23.3 12.05 -24.7 6.95 Q-24.85 6.6 -25.15 6.4 -25.45 6.15 -25.8 6.2 -26.2 6.25 -26.45 6.55 Z" fill="none" stroke="#ff0000" stroke-linecap="round" stroke-linejoin="round" stroke-opacity="0.33333334" stroke-width="6.0"/>
    <path d="M-26.45 6.55 Q-26.2 6.25 -25.8 6.2 -25.45 6.15 -25.15 6.4 -24.85 6.6 -24.7 6.95 L-23.3 12.05 -23.3 12.5 -23.5 12.9 -56.6 56.9 -57.2 57.3 -57.9 57.15 Q-62.8 54.15 -65.1 50.1 L-65.25 49.5 -65.0 48.95 -26.45 6.55" fill="#ffffff" fill-rule="evenodd" stroke="none"/>
    <path d="M-26.45 6.55 L-65.0 48.95 -65.25 49.5 -65.1 50.1 Q-62.8 54.15 -57.9 57.15 L-57.2 57.3 -56.6 56.9 -23.5 12.9 -23.3 12.5 -23.3 12.05 -24.7 6.95 Q-24.85 6.6 -25.15 6.4 -25.45 6.15 -25.8 6.2 -26.2 6.25 -26.45 6.55 Z" fill="none" stroke="#ff0000" stroke-linecap="round" stroke-linejoin="round" stroke-opacity="0.33333334" stroke-width="4.0"/>
    <path d="M-26.45 6.55 L-65.0 48.95 -65.25 49.5 -65.1 50.1 Q-62.8 54.15 -57.9 57.15 L-57.2 57.3 -56.6 56.9 -23.5 12.9 -23.3 12.5 -23.3 12.05 -24.7 6.95 Q-24.85 6.6 -25.15 6.4 -25.45 6.15 -25.8 6.2 -26.2 6.25 -26.45 6.55 Z" fill="none" stroke="#ff0000" stroke-linecap="round" stroke-linejoin="round" stroke-opacity="0.7529412" stroke-width="2.0"/>
  </g>
</svg>
