<?xml version="1.0" encoding="UTF-8" standalone="no"?>
<svg xmlns:ffdec="https://www.free-decompiler.com/flash" xmlns:xlink="http://www.w3.org/1999/xlink" ffdec:objectType="shape" height="55.45px" width="43.6px" xmlns="http://www.w3.org/2000/svg">
  <g transform="matrix(1.0, 0.0, 0.0, 1.0, 62.4, -8.0)">
    <path d="M-25.15 11.4 L-59.15 54.45 -59.4 55.0 -59.25 55.6 Q-57.0 59.05 -52.7 60.4 L-52.05 60.4 -51.55 60.0 -21.95 14.15 -21.8 13.5 -22.1 12.9 -23.7 11.3 -24.15 11.05 -24.7 11.05 Q-25.0 11.15 -25.15 11.4 Z" fill="none" stroke="#ff0000" stroke-linecap="round" stroke-linejoin="round" stroke-opacity="0.33333334" stroke-width="6.0"/>
    <path d="M-25.15 11.4 Q-25.0 11.15 -24.7 11.05 L-24.15 11.05 -23.7 11.3 -22.1 12.9 -21.8 13.5 -21.95 14.15 -51.55 60.0 -52.05 60.4 -52.7 60.4 Q-57.0 59.05 -59.25 55.6 L-59.4 55.0 -59.15 54.45 -25.15 11.4" fill="#ffffff" fill-rule="evenodd" stroke="none"/>
    <path d="M-25.15 11.4 L-59.15 54.45 -59.4 55.0 -59.25 55.6 Q-57.0 59.05 -52.7 60.4 L-52.05 60.4 -51.55 60.0 -21.95 14.15 -21.8 13.5 -22.1 12.9 -23.7 11.3 -24.15 11.05 -24.7 11.05 Q-25.0 11.15 -25.15 11.4 Z" fill="none" stroke="#ff0000" stroke-linecap="round" stroke-linejoin="round" stroke-opacity="0.33333334" stroke-width="4.0"/>
    <path d="M-25.15 11.4 L-59.15 54.45 -59.4 55.0 -59.25 55.6 Q-57.0 59.05 -52.7 60.4 L-52.05 60.4 -51.55 60.0 -21.95 14.15 -21.8 13.5 -22.1 12.9 -23.7 11.3 -24.15 11.05 -24.7 11.05 Q-25.0 11.15 -25.15 11.4 Z" fill="none" stroke="#ff0000" stroke-linecap="round" stroke-linejoin="round" stroke-opacity="0.7529412" stroke-width="2.0"/>
  </g>
</svg>
