<?xml version="1.0" encoding="UTF-8" standalone="no"?>
<svg xmlns:ffdec="https://www.free-decompiler.com/flash" xmlns:xlink="http://www.w3.org/1999/xlink" ffdec:objectType="shape" height="9.3px" width="12.1px" xmlns="http://www.w3.org/2000/svg">
  <g transform="matrix(1.0, 0.0, 0.0, 1.0, 4.65, 4.65)">
    <path d="M0.0 -4.65 Q1.9 -4.65 3.3 -3.25 4.65 -1.9 4.65 0.0 4.65 1.9 3.3 3.3 1.9 4.65 0.0 4.65 -1.95 4.65 -3.3 3.3 -4.65 1.9 -4.65 0.0 -4.65 -1.9 -3.3 -3.25 -1.95 -4.65 0.0 -4.65" fill="url(#gradient0)" fill-rule="evenodd" stroke="none"/>
    <path d="M7.45 -1.55 Q7.45 -0.55 5.8 -0.55 3.05 1.0 1.4 1.0 0.1 1.0 0.15 -0.1 0.15 -1.2 5.9 -2.85 7.25 -2.85 7.45 -1.55" fill="#ffffff" fill-rule="evenodd" stroke="none"/>
    <path d="M7.45 -1.55 Q7.45 -0.55 5.8 -0.55 3.05 1.0 1.4 1.0 0.1 1.0 0.15 -0.1 0.15 -1.2 5.9 -2.85 7.25 -2.85 7.45 -1.55 Z" fill="none" stroke="#69cdff" stroke-linecap="round" stroke-linejoin="round" stroke-opacity="0.33333334" stroke-width="0.05"/>
  </g>
  <defs>
    <radialGradient cx="0" cy="0" gradientTransform="matrix(0.0058, 0.0, 0.0, 0.0058, -0.05, 0.0)" gradientUnits="userSpaceOnUse" id="gradient0" r="819.2" spreadMethod="pad">
      <stop offset="0.4627450980392157" stop-color="#0a50ff" stop-opacity="0.0"/>
      <stop offset="0.8980392156862745" stop-color="#ffffff"/>
      <stop offset="0.9882352941176471" stop-color="#ffffff" stop-opacity="0.0"/>
    </radialGradient>
  </defs>
</svg>
