<?xml version="1.0" encoding="UTF-8" standalone="no"?>
<svg xmlns:ffdec="https://www.free-decompiler.com/flash" xmlns:xlink="http://www.w3.org/1999/xlink" ffdec:objectType="shape" height="12.6px" width="17.5px" xmlns="http://www.w3.org/2000/svg">
  <g transform="matrix(1.0, 0.0, 0.0, 1.0, 6.3, 6.3)">
    <path d="M0.0 -6.3 Q2.6 -6.3 4.45 -4.4 6.25 -2.6 6.3 0.0 6.25 2.6 4.45 4.45 2.6 6.3 0.0 6.3 -2.65 6.3 -4.45 4.45 -6.3 2.6 -6.3 0.0 -6.3 -2.6 -4.45 -4.4 -2.65 -6.3 0.0 -6.3" fill="url(#gradient0)" fill-rule="evenodd" stroke="none"/>
    <path d="M4.25 -1.25 Q4.25 -2.6 6.45 -2.6 7.65 -2.6 8.1 -2.05 L8.8 -1.55 10.1 -1.95 Q11.15 -1.95 11.2 -0.8 11.2 0.75 8.8 0.75 L6.7 -0.4 6.55 -0.35 Q7.6 0.55 8.1 2.45 8.1 3.6 7.0 3.6 6.05 3.6 5.65 2.3 5.2 1.0 3.45 1.0 L2.45 1.25 Q1.1 1.25 1.25 0.15 1.25 -1.2 4.2 -1.2 L4.25 -1.2 4.25 -1.25" fill="#ffffff" fill-rule="evenodd" stroke="none"/>
    <path d="M4.25 -1.25 Q4.25 -2.6 6.45 -2.6 7.65 -2.6 8.1 -2.05 L8.8 -1.55 10.1 -1.95 Q11.15 -1.95 11.2 -0.8 11.2 0.75 8.8 0.75 L6.7 -0.4 6.55 -0.35 Q7.6 0.55 8.1 2.45 8.1 3.6 7.0 3.6 6.05 3.6 5.65 2.3 5.2 1.0 3.45 1.0 L2.45 1.25 Q1.1 1.25 1.25 0.15 1.25 -1.2 4.2 -1.2 L4.25 -1.2 4.25 -1.25 Z" fill="none" stroke="#69cdff" stroke-linecap="round" stroke-linejoin="round" stroke-opacity="0.33333334" stroke-width="0.05"/>
  </g>
  <defs>
    <radialGradient cx="0" cy="0" gradientTransform="matrix(0.0079, 0.0, 0.0, 0.0079, -0.05, 0.0)" gradientUnits="userSpaceOnUse" id="gradient0" r="819.2" spreadMethod="pad">
      <stop offset="0.6352941176470588" stop-color="#0a50ff" stop-opacity="0.0"/>
      <stop offset="0.8549019607843137" stop-color="#ffffff"/>
      <stop offset="0.9764705882352941" stop-color="#ffffff" stop-opacity="0.0"/>
    </radialGradient>
  </defs>
</svg>
