<?xml version="1.0" encoding="UTF-8" standalone="no"?>
<svg xmlns:ffdec="https://www.free-decompiler.com/flash" xmlns:xlink="http://www.w3.org/1999/xlink" ffdec:objectType="shape" height="12.6px" width="21.0px" xmlns="http://www.w3.org/2000/svg">
  <g transform="matrix(1.0, 0.0, 0.0, 1.0, 6.3, 6.3)">
    <path d="M0.0 -6.3 Q2.6 -6.3 4.45 -4.4 6.25 -2.6 6.3 0.0 6.25 2.6 4.45 4.45 2.6 6.3 0.0 6.3 -2.65 6.3 -4.45 4.45 -6.3 2.6 -6.3 0.0 -6.3 -2.6 -4.45 -4.4 -2.65 -6.3 0.0 -6.3" fill="url(#gradient0)" fill-rule="evenodd" stroke="none"/>
    <path d="M14.7 -2.9 Q14.7 -2.55 12.7 -1.15 10.2 0.6 9.65 0.6 8.85 0.6 8.6 0.05 L8.5 -0.5 Q8.5 -1.1 9.1 -1.4 L10.7 -2.4 11.65 -3.45 Q12.4 -4.2 13.2 -4.2 14.5 -4.2 14.7 -2.9 M9.75 2.0 Q10.95 2.0 12.3 1.15 13.4 1.15 13.45 2.25 13.45 2.7 12.5 3.4 11.3 4.25 9.65 4.25 6.95 4.25 6.15 2.15 6.15 1.05 7.25 1.05 7.55 1.05 9.75 2.0" fill="#ffffff" fill-rule="evenodd" stroke="none"/>
    <path d="M14.7 -2.9 Q14.7 -2.55 12.7 -1.15 10.2 0.6 9.65 0.6 8.85 0.6 8.6 0.05 L8.5 -0.5 Q8.5 -1.1 9.1 -1.4 L10.7 -2.4 11.65 -3.45 Q12.4 -4.2 13.2 -4.2 14.5 -4.2 14.7 -2.9 M9.75 2.0 Q10.95 2.0 12.3 1.15 13.4 1.15 13.45 2.25 13.45 2.7 12.5 3.4 11.3 4.25 9.65 4.25 6.95 4.25 6.15 2.15 6.15 1.05 7.25 1.05 7.55 1.05 9.75 2.0 Z" fill="none" stroke="#69cdff" stroke-linecap="round" stroke-linejoin="round" stroke-opacity="0.33333334" stroke-width="0.05"/>
  </g>
  <defs>
    <radialGradient cx="0" cy="0" gradientTransform="matrix(0.0079, 0.0, 0.0, 0.0079, -0.05, 0.0)" gradientUnits="userSpaceOnUse" id="gradient0" r="819.2" spreadMethod="pad">
      <stop offset="0.807843137254902" stop-color="#0a50ff" stop-opacity="0.0"/>
      <stop offset="0.8980392156862745" stop-color="#ffffff"/>
      <stop offset="0.9764705882352941" stop-color="#ffffff" stop-opacity="0.0"/>
    </radialGradient>
  </defs>
</svg>
