<?xml version="1.0" encoding="UTF-8" standalone="no"?>
<svg xmlns:ffdec="https://www.free-decompiler.com/flash" xmlns:xlink="http://www.w3.org/1999/xlink" ffdec:objectType="shape" height="7.7px" width="10.3px" xmlns="http://www.w3.org/2000/svg">
  <g transform="matrix(1.0, 0.0, 0.0, 1.0, -11.65, 4.45)">
    <path d="M15.1 -4.45 Q16.4 -4.45 17.6 -3.45 L18.95 -2.5 Q20.35 -2.5 20.85 -2.95 21.9 -2.95 21.95 -1.8 21.95 -0.45 19.7 -0.25 19.7 0.85 18.6 0.85 L17.0 0.65 Q16.3 0.65 14.65 1.95 L12.75 3.25 Q12.05 3.25 11.8 2.7 L11.65 2.15 Q11.65 1.55 13.6 0.05 15.3 -1.3 16.55 -1.55 15.85 -2.2 15.0 -2.2 L13.75 -1.75 Q13.1 -1.75 12.8 -2.3 L12.65 -2.9 Q12.65 -4.45 15.1 -4.45" fill="#ffffff" fill-rule="evenodd" stroke="none"/>
    <path d="M15.1 -4.45 Q16.4 -4.45 17.6 -3.45 L18.95 -2.5 Q20.35 -2.5 20.85 -2.95 21.9 -2.95 21.95 -1.8 21.95 -0.45 19.7 -0.25 19.7 0.85 18.6 0.85 L17.0 0.65 Q16.3 0.65 14.65 1.95 L12.75 3.25 Q12.05 3.25 11.8 2.7 L11.65 2.15 Q11.65 1.55 13.6 0.05 15.3 -1.3 16.55 -1.55 15.85 -2.2 15.0 -2.2 L13.75 -1.75 Q13.1 -1.75 12.8 -2.3 L12.65 -2.9 Q12.65 -4.45 15.1 -4.45 Z" fill="none" stroke="#69cdff" stroke-linecap="round" stroke-linejoin="round" stroke-opacity="0.33333334" stroke-width="0.05"/>
  </g>
</svg>
