<?xml version="1.0" encoding="UTF-8" standalone="no"?>
<svg xmlns:ffdec="https://www.free-decompiler.com/flash" xmlns:xlink="http://www.w3.org/1999/xlink" ffdec:objectType="shape" height="5.95px" width="7.55px" xmlns="http://www.w3.org/2000/svg">
  <g transform="matrix(1.0, 0.0, 0.0, 1.0, -19.15, 4.1)">
    <path d="M19.5 -1.75 Q19.5 -2.25 20.65 -3.1 21.95 -4.1 23.35 -4.1 24.3 -4.1 26.05 -1.05 L26.6 -0.05 26.7 0.1 Q26.7 1.25 25.6 1.25 L25.05 1.15 Q23.65 1.85 22.85 1.85 21.2 1.85 20.05 1.05 19.15 0.4 19.15 0.0 19.15 -0.75 19.75 -1.0 L19.6 -1.2 19.5 -1.75 M22.85 -0.4 L23.6 -0.55 23.2 -1.75 21.4 -0.9 22.85 -0.4" fill="#ffffff" fill-rule="evenodd" stroke="none"/>
    <path d="M19.5 -1.75 Q19.5 -2.25 20.65 -3.1 21.95 -4.1 23.35 -4.1 24.3 -4.1 26.05 -1.05 L26.6 -0.05 26.7 0.1 Q26.7 1.25 25.6 1.25 L25.05 1.15 Q23.65 1.85 22.85 1.85 21.2 1.85 20.05 1.05 19.15 0.4 19.15 0.0 19.15 -0.75 19.75 -1.0 L19.6 -1.2 19.5 -1.75 M22.85 -0.4 L23.6 -0.55 23.2 -1.75 21.4 -0.9 22.85 -0.4 Z" fill="none" stroke="#69cdff" stroke-linecap="round" stroke-linejoin="round" stroke-opacity="0.33333334" stroke-width="0.05"/>
  </g>
</svg>
