<?xml version="1.0" encoding="UTF-8" standalone="no"?>
<svg xmlns:ffdec="https://www.free-decompiler.com/flash" xmlns:xlink="http://www.w3.org/1999/xlink" ffdec:objectType="shape" height="5.05px" width="4.05px" xmlns="http://www.w3.org/2000/svg">
  <g transform="matrix(1.0, 0.0, 0.0, 1.0, -22.9, 2.7)">
    <path d="M23.4 -1.6 Q23.4 -2.7 24.5 -2.7 26.0 -2.7 26.95 0.55 26.95 1.75 25.85 1.75 L25.6 1.65 Q24.85 2.35 24.0 2.35 23.3 2.35 23.05 1.8 L22.9 1.25 Q22.9 0.95 23.6 0.2 L24.15 -0.25 23.4 -1.6" fill="#ffffff" fill-rule="evenodd" stroke="none"/>
    <path d="M23.4 -1.6 Q23.4 -2.7 24.5 -2.7 26.0 -2.7 26.95 0.55 26.95 1.75 25.85 1.75 L25.6 1.65 Q24.85 2.35 24.0 2.35 23.3 2.35 23.05 1.8 L22.9 1.25 Q22.9 0.95 23.6 0.2 L24.15 -0.25 23.4 -1.6 Z" fill="none" stroke="#69cdff" stroke-linecap="round" stroke-linejoin="round" stroke-opacity="0.33333334" stroke-width="0.05"/>
  </g>
</svg>
