<?xml version="1.0" encoding="UTF-8" standalone="no"?>
<svg xmlns:ffdec="https://www.free-decompiler.com/flash" xmlns:xlink="http://www.w3.org/1999/xlink" ffdec:objectType="shape" height="9.3px" width="10.3px" xmlns="http://www.w3.org/2000/svg">
  <g transform="matrix(1.0, 0.0, 0.0, 1.0, -19.75, 4.65)">
    <path d="M28.7 -3.25 Q30.05 -1.9 30.05 0.0 30.05 1.9 28.7 3.3 27.3 4.65 25.4 4.65 23.45 4.65 22.1 3.3 20.75 1.9 20.75 0.0 20.75 -1.9 22.1 -3.25 23.45 -4.65 25.4 -4.65 27.3 -4.65 28.7 -3.25" fill="url(#gradient0)" fill-rule="evenodd" stroke="none"/>
    <path d="M19.75 -1.55 Q19.95 -2.85 21.3 -2.85 27.05 -1.2 27.05 -0.1 27.1 1.0 25.8 1.0 24.15 1.0 21.4 -0.55 19.75 -0.55 19.75 -1.55" fill="#ffffff" fill-rule="evenodd" stroke="none"/>
    <path d="M19.75 -1.55 Q19.75 -0.55 21.4 -0.55 24.15 1.0 25.8 1.0 27.1 1.0 27.05 -0.1 27.05 -1.2 21.3 -2.85 19.95 -2.85 19.75 -1.55 Z" fill="none" stroke="#69cdff" stroke-linecap="round" stroke-linejoin="round" stroke-opacity="0.33333334" stroke-width="0.05"/>
  </g>
  <defs>
    <radialGradient cx="0" cy="0" gradientTransform="matrix(0.0058, 0.0, 0.0, 0.0058, 25.35, 0.0)" gradientUnits="userSpaceOnUse" id="gradient0" r="819.2" spreadMethod="pad">
      <stop offset="0.4627450980392157" stop-color="#0a50ff" stop-opacity="0.0"/>
      <stop offset="0.8980392156862745" stop-color="#ffffff"/>
      <stop offset="0.9882352941176471" stop-color="#ffffff" stop-opacity="0.0"/>
    </radialGradient>
  </defs>
</svg>
