<?xml version="1.0" encoding="UTF-8" standalone="no"?>
<svg xmlns:ffdec="https://www.free-decompiler.com/flash" xmlns:xlink="http://www.w3.org/1999/xlink" ffdec:objectType="shape" height="12.6px" width="15.7px" xmlns="http://www.w3.org/2000/svg">
  <g transform="matrix(1.0, 0.0, 0.0, 1.0, -16.0, 6.3)">
    <path d="M29.85 -4.4 Q31.65 -2.6 31.7 0.0 31.65 2.6 29.85 4.45 28.0 6.3 25.4 6.3 22.75 6.3 20.95 4.45 19.1 2.6 19.1 0.0 19.1 -2.6 20.95 -4.4 22.75 -6.3 25.4 -6.3 28.0 -6.3 29.85 -4.4" fill="url(#gradient0)" fill-rule="evenodd" stroke="none"/>
    <path d="M19.1 -2.05 Q19.55 -2.6 20.75 -2.6 22.95 -2.6 22.95 -1.25 L22.95 -1.2 23.0 -1.2 Q25.95 -1.2 25.95 0.15 26.1 1.25 24.75 1.25 L23.75 1.0 Q22.0 1.0 21.55 2.3 21.15 3.6 20.2 3.6 19.1 3.6 19.1 2.45 19.6 0.55 20.65 -0.35 L20.5 -0.4 18.4 0.75 Q16.0 0.75 16.0 -0.8 16.05 -1.95 17.1 -1.95 L18.4 -1.55 Q18.65 -1.55 19.1 -2.05" fill="#ffffff" fill-rule="evenodd" stroke="none"/>
    <path d="M19.1 -2.05 Q18.65 -1.55 18.4 -1.55 L17.1 -1.95 Q16.05 -1.95 16.0 -0.8 16.0 0.75 18.4 0.75 L20.5 -0.4 20.65 -0.35 Q19.6 0.55 19.1 2.45 19.1 3.6 20.2 3.6 21.15 3.6 21.55 2.3 22.0 1.0 23.75 1.0 L24.75 1.25 Q26.1 1.25 25.95 0.15 25.95 -1.2 23.0 -1.2 L22.95 -1.2 22.95 -1.25 Q22.95 -2.6 20.75 -2.6 19.55 -2.6 19.1 -2.05 Z" fill="none" stroke="#69cdff" stroke-linecap="round" stroke-linejoin="round" stroke-opacity="0.33333334" stroke-width="0.05"/>
  </g>
  <defs>
    <radialGradient cx="0" cy="0" gradientTransform="matrix(0.0079, 0.0, 0.0, 0.0079, 25.35, 0.0)" gradientUnits="userSpaceOnUse" id="gradient0" r="819.2" spreadMethod="pad">
      <stop offset="0.6352941176470588" stop-color="#0a50ff" stop-opacity="0.0"/>
      <stop offset="0.8549019607843137" stop-color="#ffffff"/>
      <stop offset="0.9764705882352941" stop-color="#ffffff" stop-opacity="0.0"/>
    </radialGradient>
  </defs>
</svg>
