<?xml version="1.0" encoding="UTF-8" standalone="no"?>
<svg xmlns:ffdec="https://www.free-decompiler.com/flash" xmlns:xlink="http://www.w3.org/1999/xlink" ffdec:objectType="shape" height="12.6px" width="19.2px" xmlns="http://www.w3.org/2000/svg">
  <g transform="matrix(1.0, 0.0, 0.0, 1.0, -12.5, 6.3)">
    <path d="M29.85 -4.4 Q31.65 -2.6 31.7 0.0 31.65 2.6 29.85 4.45 28.0 6.3 25.4 6.3 22.75 6.3 20.95 4.45 19.1 2.6 19.1 0.0 19.1 -2.6 20.95 -4.4 22.75 -6.3 25.4 -6.3 28.0 -6.3 29.85 -4.4" fill="url(#gradient0)" fill-rule="evenodd" stroke="none"/>
    <path d="M19.95 1.05 Q21.05 1.05 21.05 2.15 20.25 4.25 17.55 4.25 15.9 4.25 14.7 3.4 13.75 2.7 13.75 2.25 13.8 1.15 14.9 1.15 16.25 2.0 17.45 2.0 19.65 1.05 19.95 1.05 M12.5 -2.9 Q12.7 -4.2 14.0 -4.2 14.8 -4.2 15.55 -3.45 L16.5 -2.4 18.1 -1.4 Q18.7 -1.1 18.7 -0.5 L18.6 0.05 Q18.35 0.6 17.55 0.6 17.0 0.6 14.5 -1.15 12.5 -2.55 12.5 -2.9" fill="#ffffff" fill-rule="evenodd" stroke="none"/>
    <path d="M12.5 -2.9 Q12.5 -2.55 14.5 -1.15 17.0 0.6 17.55 0.6 18.35 0.6 18.6 0.05 L18.7 -0.5 Q18.7 -1.1 18.1 -1.4 L16.5 -2.4 15.55 -3.45 Q14.8 -4.2 14.0 -4.2 12.7 -4.2 12.5 -2.9 M19.95 1.05 Q19.65 1.05 17.45 2.0 16.25 2.0 14.9 1.15 13.8 1.15 13.75 2.25 13.75 2.7 14.7 3.4 15.9 4.25 17.55 4.25 20.25 4.25 21.05 2.15 21.05 1.05 19.95 1.05 Z" fill="none" stroke="#69cdff" stroke-linecap="round" stroke-linejoin="round" stroke-opacity="0.33333334" stroke-width="0.05"/>
  </g>
  <defs>
    <radialGradient cx="0" cy="0" gradientTransform="matrix(0.0079, 0.0, 0.0, 0.0079, 25.35, 0.0)" gradientUnits="userSpaceOnUse" id="gradient0" r="819.2" spreadMethod="pad">
      <stop offset="0.807843137254902" stop-color="#0a50ff" stop-opacity="0.0"/>
      <stop offset="0.8980392156862745" stop-color="#ffffff"/>
      <stop offset="0.9764705882352941" stop-color="#ffffff" stop-opacity="0.0"/>
    </radialGradient>
  </defs>
</svg>
