<?xml version="1.0" encoding="UTF-8" standalone="no"?>
<svg xmlns:ffdec="https://www.free-decompiler.com/flash" xmlns:xlink="http://www.w3.org/1999/xlink" ffdec:objectType="shape" height="7.7px" width="10.3px" xmlns="http://www.w3.org/2000/svg">
  <g transform="matrix(1.0, 0.0, 0.0, 1.0, -5.25, 4.45)">
    <path d="M8.25 -2.5 Q8.45 -2.5 9.6 -3.45 10.8 -4.45 12.1 -4.45 14.55 -4.45 14.55 -2.9 L14.4 -2.3 Q14.1 -1.75 13.45 -1.75 13.05 -1.75 12.2 -2.2 11.35 -2.2 10.65 -1.55 11.9 -1.3 13.6 0.05 15.55 1.55 15.55 2.15 L15.4 2.7 Q15.15 3.25 14.45 3.25 14.15 3.25 12.55 1.95 10.9 0.65 10.2 0.65 L8.6 0.85 Q7.5 0.85 7.5 -0.25 5.25 -0.45 5.25 -1.8 5.3 -2.95 6.35 -2.95 6.85 -2.5 8.25 -2.5" fill="#ffffff" fill-rule="evenodd" stroke="none"/>
    <path d="M8.25 -2.5 Q6.85 -2.5 6.35 -2.95 5.3 -2.95 5.25 -1.8 5.25 -0.45 7.5 -0.25 7.5 0.85 8.6 0.85 L10.2 0.65 Q10.9 0.65 12.55 1.95 14.15 3.25 14.45 3.25 15.15 3.25 15.4 2.7 L15.55 2.15 Q15.55 1.55 13.6 0.05 11.9 -1.3 10.65 -1.55 11.35 -2.2 12.2 -2.2 13.05 -1.75 13.45 -1.75 14.1 -1.75 14.4 -2.3 L14.55 -2.9 Q14.55 -4.45 12.1 -4.45 10.8 -4.45 9.6 -3.45 8.45 -2.5 8.25 -2.5 Z" fill="none" stroke="#69cdff" stroke-linecap="round" stroke-linejoin="round" stroke-opacity="0.33333334" stroke-width="0.05"/>
  </g>
</svg>
