<?xml version="1.0" encoding="UTF-8" standalone="no"?>
<svg xmlns:ffdec="https://www.free-decompiler.com/flash" xmlns:xlink="http://www.w3.org/1999/xlink" ffdec:objectType="shape" height="5.95px" width="7.55px" xmlns="http://www.w3.org/2000/svg">
  <g transform="matrix(1.0, 0.0, 0.0, 1.0, -0.5, 4.1)">
    <path d="M0.6 -0.05 L1.15 -1.05 Q2.9 -4.1 3.85 -4.1 5.25 -4.1 6.55 -3.1 7.7 -2.25 7.7 -1.75 L7.6 -1.2 7.5 -1.0 Q8.05 -0.75 8.05 0.0 L7.15 1.05 Q6.0 1.85 4.35 1.85 3.55 1.85 2.2 1.15 L1.6 1.25 Q0.5 1.25 0.5 0.1 L0.6 -0.05 M3.65 -0.55 L4.35 -0.4 5.8 -0.9 4.0 -1.75 3.65 -0.55" fill="#ffffff" fill-rule="evenodd" stroke="none"/>
    <path d="M3.65 -0.55 L4.0 -1.75 5.8 -0.9 4.35 -0.4 3.65 -0.55 M0.6 -0.05 L0.5 0.1 Q0.5 1.25 1.6 1.25 L2.2 1.15 Q3.55 1.85 4.35 1.85 6.0 1.85 7.15 1.05 L8.05 0.0 Q8.05 -0.75 7.5 -1.0 L7.6 -1.2 7.7 -1.75 Q7.7 -2.25 6.55 -3.1 5.25 -4.1 3.85 -4.1 2.9 -4.1 1.15 -1.05 L0.6 -0.05 Z" fill="none" stroke="#69cdff" stroke-linecap="round" stroke-linejoin="round" stroke-opacity="0.33333334" stroke-width="0.05"/>
  </g>
</svg>
