<?xml version="1.0" encoding="UTF-8" standalone="no"?>
<svg xmlns:ffdec="https://www.free-decompiler.com/flash" xmlns:xlink="http://www.w3.org/1999/xlink" ffdec:objectType="shape" height="5.05px" width="4.05px" xmlns="http://www.w3.org/2000/svg">
  <g transform="matrix(1.0, 0.0, 0.0, 1.0, -0.25, 2.7)">
    <path d="M3.8 -1.6 L3.1 -0.25 3.6 0.2 4.3 1.25 4.15 1.8 Q3.9 2.35 3.2 2.35 2.35 2.35 1.65 1.65 L1.35 1.75 Q0.25 1.75 0.25 0.55 1.2 -2.7 2.7 -2.7 3.8 -2.7 3.8 -1.6" fill="#ffffff" fill-rule="evenodd" stroke="none"/>
    <path d="M3.8 -1.6 Q3.8 -2.7 2.7 -2.7 1.2 -2.7 0.25 0.55 0.25 1.75 1.35 1.75 L1.65 1.65 Q2.35 2.35 3.2 2.35 3.9 2.35 4.15 1.8 L4.3 1.25 3.6 0.2 3.1 -0.25 3.8 -1.6 Z" fill="none" stroke="#69cdff" stroke-linecap="round" stroke-linejoin="round" stroke-opacity="0.33333334" stroke-width="0.05"/>
  </g>
</svg>
