<?xml version="1.0" encoding="UTF-8" standalone="no"?>
<svg xmlns:ffdec="https://www.free-decompiler.com/flash" xmlns:xlink="http://www.w3.org/1999/xlink" ffdec:objectType="shape" height="43.5px" width="46.7px" xmlns="http://www.w3.org/2000/svg">
  <g transform="matrix(1.0, 0.0, 0.0, 1.0, 23.35, 21.75)">
    <path d="M22.6 -14.6 L22.6 -20.6 M22.6 -2.6 L22.6 -8.6 M10.6 -21.0 L4.6 -21.0 M22.6 -21.0 L16.6 -21.0 M22.6 9.4 L22.6 3.4 M22.2 21.0 L22.6 21.0 22.6 15.4 M10.2 21.0 L16.2 21.0 M-22.6 -6.2 L-22.6 -0.2 M-22.6 -18.2 L-22.6 -12.2 M-13.4 -21.0 L-19.4 -21.0 M-1.4 -21.0 L-7.4 -21.0 M-13.8 21.0 L-7.8 21.0 M-22.6 17.8 L-22.6 21.0 -19.8 21.0 M-22.6 5.8 L-22.6 11.8 M-1.8 21.0 L4.2 21.0" fill="none" stroke="#cae3f9" stroke-linecap="round" stroke-linejoin="round" stroke-width="1.5"/>
  </g>
</svg>
