<?xml version="1.0" encoding="UTF-8" standalone="no"?>
<svg xmlns:ffdec="https://www.free-decompiler.com/flash" xmlns:xlink="http://www.w3.org/1999/xlink" ffdec:objectType="shape" height="24.6px" width="89.25px" xmlns="http://www.w3.org/2000/svg">
  <g transform="matrix(1.0, 0.0, 0.0, 1.0, 0.85, -0.5)">
    <path d="M76.25 11.9 L76.25 25.1 12.45 25.1 12.45 11.9 76.25 11.9" fill="url(#gradient0)" fill-rule="evenodd" stroke="none"/>
    <path d="M88.4 12.3 Q88.4 17.15 84.95 20.6 82.45 23.1 79.25 23.8 L76.65 24.05 Q71.75 24.05 68.3 20.6 64.85 17.15 64.85 12.3 L64.9 10.95 Q65.3 6.9 68.3 3.95 L69.25 3.05 Q70.55 2.0 72.05 1.4 74.15 0.5 76.65 0.5 L79.25 0.8 Q81.85 1.35 83.95 3.05 L84.95 3.95 Q88.4 7.4 88.4 12.3" fill="url(#gradient1)" fill-rule="evenodd" stroke="none"/>
    <path d="M22.7 12.3 Q22.7 17.15 19.25 20.6 15.8 24.05 10.9 24.05 6.0 24.05 2.55 20.6 0.75 18.8 -0.1 16.6 -0.9 14.6 -0.85 12.3 L-0.8 10.95 Q-0.4 6.9 2.55 3.95 L2.65 3.9 3.55 3.05 Q4.85 2.0 6.3 1.4 8.4 0.5 10.9 0.5 13.4 0.5 15.5 1.4 L18.25 3.05 19.25 3.95 Q22.2 6.9 22.65 10.95 L22.7 12.3" fill="url(#gradient2)" fill-rule="evenodd" stroke="none"/>
  </g>
  <defs>
    <linearGradient gradientTransform="matrix(3.0E-4, 0.0085, -0.0572, 1.0E-4, 67.4, 17.35)" gradientUnits="userSpaceOnUse" id="gradient0" spreadMethod="pad" x1="-819.2" x2="819.2">
      <stop offset="0.0" stop-color="#000000"/>
      <stop offset="0.0" stop-color="#000000"/>
      <stop offset="0.0" stop-color="#000000" stop-opacity="0.6509804"/>
      <stop offset="0.0" stop-color="#000000" stop-opacity="0.0"/>
      <stop offset="0.24705882352941178" stop-color="#000000"/>
      <stop offset="0.49411764705882355" stop-color="#000000"/>
      <stop offset="0.6666666666666666" stop-color="#000000"/>
      <stop offset="1.0" stop-color="#000000" stop-opacity="0.0"/>
    </linearGradient>
    <radialGradient cx="0" cy="0" gradientTransform="matrix(0.0144, 0.0, 0.0, 0.0144, 76.45, 12.3)" gradientUnits="userSpaceOnUse" id="gradient1" r="819.2" spreadMethod="pad">
      <stop offset="0.0" stop-color="#000000"/>
      <stop offset="0.0" stop-color="#000000" stop-opacity="0.6509804"/>
      <stop offset="0.0" stop-color="#000000"/>
      <stop offset="0.5725490196078431" stop-color="#000000"/>
      <stop offset="1.0" stop-color="#000000" stop-opacity="0.0"/>
    </radialGradient>
    <radialGradient cx="0" cy="0" gradientTransform="matrix(0.0143, 0.0, 0.0, 0.0143, 11.05, 12.3)" gradientUnits="userSpaceOnUse" id="gradient2" r="819.2" spreadMethod="pad">
      <stop offset="0.0" stop-color="#000000"/>
      <stop offset="0.0" stop-color="#000000" stop-opacity="0.6509804"/>
      <stop offset="0.0" stop-color="#000000"/>
      <stop offset="0.5725490196078431" stop-color="#000000"/>
      <stop offset="1.0" stop-color="#000000" stop-opacity="0.0"/>
    </radialGradient>
  </defs>
</svg>
