<?xml version="1.0" encoding="UTF-8" standalone="no"?>
<svg xmlns:ffdec="https://www.free-decompiler.com/flash" xmlns:xlink="http://www.w3.org/1999/xlink" ffdec:objectType="shape" height="24.6px" width="166.25px" xmlns="http://www.w3.org/2000/svg">
  <g transform="matrix(1.0, 0.0, 0.0, 1.0, 0.85, -1.5)">
    <path d="M151.0 26.1 L14.9 26.1 14.9 12.9 151.0 12.9 151.0 26.1" fill="url(#gradient0)" fill-rule="evenodd" stroke="none"/>
    <path d="M161.95 4.95 Q165.4 8.4 165.4 13.3 165.4 18.15 161.95 21.6 158.5 25.05 153.65 25.05 148.75 25.05 145.3 21.6 141.85 18.15 141.85 13.3 L141.9 11.95 Q142.3 7.9 145.3 4.95 L146.25 4.05 Q147.55 3.0 149.05 2.4 151.15 1.5 153.65 1.5 157.85 1.5 160.95 4.05 L161.95 4.95" fill="url(#gradient1)" fill-rule="evenodd" stroke="none"/>
    <path d="M22.7 13.3 Q22.7 18.15 19.25 21.6 15.8 25.05 10.9 25.05 6.0 25.05 2.55 21.6 0.75 19.8 -0.1 17.6 -0.9 15.6 -0.85 13.3 L-0.8 11.95 Q-0.4 7.9 2.55 4.95 L2.65 4.9 3.55 4.05 Q4.85 3.0 6.3 2.4 8.4 1.5 10.9 1.5 13.4 1.5 15.5 2.4 L18.25 4.05 19.25 4.95 Q22.2 7.9 22.65 11.95 L22.7 13.3" fill="url(#gradient2)" fill-rule="evenodd" stroke="none"/>
  </g>
  <defs>
    <linearGradient gradientTransform="matrix(4.0E-4, 0.0085, -0.0741, 1.0E-4, 86.15, 18.35)" gradientUnits="userSpaceOnUse" id="gradient0" spreadMethod="pad" x1="-819.2" x2="819.2">
      <stop offset="0.0" stop-color="#000000"/>
      <stop offset="0.0" stop-color="#000000"/>
      <stop offset="0.0" stop-color="#000000" stop-opacity="0.6509804"/>
      <stop offset="0.0" stop-color="#000000" stop-opacity="0.0"/>
      <stop offset="0.24705882352941178" stop-color="#000000"/>
      <stop offset="0.49411764705882355" stop-color="#000000"/>
      <stop offset="0.6666666666666666" stop-color="#000000"/>
      <stop offset="1.0" stop-color="#000000" stop-opacity="0.0"/>
    </linearGradient>
    <radialGradient cx="0" cy="0" gradientTransform="matrix(0.0144, 0.0, 0.0, 0.0144, 153.45, 13.3)" gradientUnits="userSpaceOnUse" id="gradient1" r="819.2" spreadMethod="pad">
      <stop offset="0.0" stop-color="#000000"/>
      <stop offset="0.0" stop-color="#000000" stop-opacity="0.6509804"/>
      <stop offset="0.0" stop-color="#000000"/>
      <stop offset="0.5725490196078431" stop-color="#000000"/>
      <stop offset="1.0" stop-color="#000000" stop-opacity="0.0"/>
    </radialGradient>
    <radialGradient cx="0" cy="0" gradientTransform="matrix(0.0143, 0.0, 0.0, 0.0143, 11.05, 13.3)" gradientUnits="userSpaceOnUse" id="gradient2" r="819.2" spreadMethod="pad">
      <stop offset="0.0" stop-color="#000000"/>
      <stop offset="0.0" stop-color="#000000" stop-opacity="0.6509804"/>
      <stop offset="0.0" stop-color="#000000"/>
      <stop offset="0.5725490196078431" stop-color="#000000"/>
      <stop offset="1.0" stop-color="#000000" stop-opacity="0.0"/>
    </radialGradient>
  </defs>
</svg>
