<?xml version="1.0" encoding="UTF-8" standalone="no"?>
<svg xmlns:ffdec="https://www.free-decompiler.com/flash" xmlns:xlink="http://www.w3.org/1999/xlink" ffdec:objectType="shape" height="19.75px" width="19.45px" xmlns="http://www.w3.org/2000/svg">
  <g transform="matrix(1.0, 0.0, 0.0, 1.0, 8.7, 8.75)">
    <path d="M8.1 -4.35 Q10.75 -1.7 10.75 2.0 10.75 5.7 8.1 8.35 5.45 11.0 1.75 11.0 -1.95 11.0 -4.6 8.35 -7.25 5.7 -7.25 2.0 -7.25 -1.7 -4.6 -4.35 -1.95 -7.0 1.75 -7.0 5.45 -7.0 8.1 -4.35" fill="#000000" fill-opacity="0.32941177" fill-rule="evenodd" stroke="none"/>
    <path d="M3.2 -6.85 L0.55 -6.85 0.15 -5.15 0.1 -5.15 Q-3.45 -4.05 -4.4 -0.35 -4.8 1.35 -4.45 2.45 L-4.3 2.95 Q-3.7 4.6 -2.25 5.1 L-2.7 7.0 -0.05 7.0 0.45 5.0 1.35 4.4 2.1 1.4 Q0.45 2.95 -0.65 2.9 -1.15 2.9 -1.4 2.2 L-1.55 1.7 -1.6 0.75 -1.6 0.65 -1.6 0.6 -1.55 0.55 -1.55 0.4 -1.55 0.3 -1.55 0.25 -1.5 0.2 -1.35 -0.35 -1.35 -0.4 -1.35 -0.45 -1.3 -0.5 -1.3 -0.55 -1.25 -0.65 -1.25 -0.7 -0.95 -1.2 -0.95 -1.25 Q0.0 -2.85 1.15 -2.75 1.9 -2.8 2.8 -1.25 L3.5 -3.85 3.05 -4.35 2.7 -4.65 3.2 -6.85 M8.05 -1.45 L8.2 0.0 Q8.15 2.85 6.25 5.2 L5.35 6.15 4.1 7.05 2.8 7.65 1.45 8.0 0.15 8.1 Q-2.8 8.15 -5.3 6.1 L-6.2 5.2 -7.0 4.1 -7.2 3.7 -7.7 2.4 -8.0 1.4 -8.1 0.0 Q-8.1 -2.95 -6.1 -5.35 L-5.2 -6.25 -3.75 -7.2 Q-1.7 -8.2 -0.05 -8.15 2.95 -8.2 5.4 -6.1 6.35 -5.5 7.6 -3.0 L7.7 -2.8 7.7 -2.55 7.75 -2.5 8.05 -1.45" fill="#c9aa1c" fill-rule="evenodd" stroke="none"/>
    <path d="M3.2 -6.85 L2.7 -4.65 3.05 -4.35 3.5 -3.85 2.8 -1.25 Q1.9 -2.8 1.15 -2.75 0.0 -2.85 -0.95 -1.25 L-0.95 -1.2 -1.25 -0.7 -1.25 -0.65 -1.3 -0.55 -1.3 -0.5 -1.35 -0.45 -1.35 -0.4 -1.35 -0.35 -1.5 0.2 -1.55 0.25 -1.55 0.3 -1.55 0.4 -1.55 0.55 -1.6 0.6 -1.6 0.65 -1.6 0.75 -1.55 1.7 -1.4 2.2 Q-1.15 2.9 -0.65 2.9 0.45 2.95 2.1 1.4 L1.35 4.4 0.45 5.0 -0.05 7.0 -2.7 7.0 -2.25 5.1 Q-3.7 4.6 -4.3 2.95 L-4.45 2.45 Q-4.8 1.35 -4.4 -0.35 -3.45 -4.05 0.1 -5.15 L0.15 -5.15 0.55 -6.85 3.2 -6.85" fill="#563502" fill-rule="evenodd" stroke="none"/>
    <path d="M8.65 -1.6 L8.75 -0.15 Q8.75 3.2 6.75 5.6 L5.65 6.65 4.45 7.55 3.0 8.2 1.65 8.55 0.1 8.7 Q-3.2 8.65 -5.6 6.7 L-6.65 5.6 -7.55 4.35 -8.15 3.0 -8.55 1.55 -8.7 0.15 Q-8.7 -3.25 -6.65 -5.6 L-5.6 -6.7 -4.4 -7.55 -2.9 -8.2 -1.55 -8.6 -0.05 -8.75 Q3.25 -8.7 5.65 -6.7 L6.7 -5.65 7.6 -4.35 8.25 -3.0 8.65 -1.6 M8.05 -1.45 L7.75 -2.5 7.7 -2.55 7.7 -2.8 7.6 -3.0 Q6.35 -5.5 5.4 -6.1 2.95 -8.2 -0.05 -8.15 -1.7 -8.2 -3.75 -7.2 L-5.2 -6.25 -6.1 -5.35 Q-8.1 -2.95 -8.1 0.0 L-8.0 1.4 -7.7 2.4 -7.2 3.7 -7.0 4.1 -6.2 5.2 -5.3 6.1 Q-2.8 8.15 0.15 8.1 L1.45 8.0 2.8 7.65 4.1 7.05 5.35 6.15 6.25 5.2 Q8.15 2.85 8.2 0.0 L8.05 -1.45" fill="#8f6802" fill-rule="evenodd" stroke="none"/>
    <path d="M1.8 -7.9 L1.35 -8.05 1.55 -8.05 2.45 -7.8 1.8 -7.9 M-4.2 6.9 L-3.95 7.05 -4.05 7.05 -4.2 6.9 M1.2 8.0 L1.65 7.95 Q1.45 8.0 1.65 8.0 L1.45 8.05 0.5 8.1 1.2 8.0 M3.9 7.1 L4.2 6.95 5.85 5.6 6.3 5.2 6.5 4.9 6.55 4.85 6.65 4.75 6.7 4.7 7.1 4.15 7.45 3.25 7.5 3.2 7.7 2.75 7.8 2.35 7.85 2.35 8.1 1.4 8.1 0.7 8.2 0.0 8.15 -0.55 8.15 -0.75 8.1 -1.45 7.85 -2.2 7.7 -2.8 7.55 -3.1 7.55 -3.15 7.1 -4.1 6.65 -4.7 6.25 -5.25 6.0 -5.5 6.1 -5.5 5.25 -6.3 4.3 -6.9 4.0 -7.1 3.95 -7.2 4.15 -7.1 5.3 -6.3 6.3 -5.3 7.2 -4.1 Q8.0 -2.9 8.3 0.0 8.25 2.85 6.4 5.2 4.15 7.65 1.95 7.9 L2.75 7.7 3.9 7.1" fill="#fff993" fill-opacity="0.36862746" fill-rule="evenodd" stroke="none"/>
    <path d="M1.35 -8.05 L1.8 -7.9 4.0 -7.1 4.3 -6.9 6.0 -5.5 6.25 -5.25 6.65 -4.7 7.55 -3.1 7.7 -2.8 7.85 -2.2 8.15 -0.55 8.2 0.0 8.1 0.7 8.05 0.8 7.8 2.35 7.7 2.75 7.5 3.2 7.45 3.25 6.55 4.85 6.5 4.9 6.3 5.2 5.85 5.6 4.2 6.95 3.9 7.1 1.65 7.95 1.2 8.0 -0.05 8.0 -2.75 7.5 -3.95 7.1 -3.95 7.05 -4.2 6.9 -4.6 6.55 -6.2 4.45 Q-6.6 2.1 -7.6 0.65 L-7.7 -2.2 -7.6 -2.8 -7.3 -3.3 -7.3 -3.4 -6.0 -4.75 -6.05 -4.8 -4.85 -6.1 -4.85 -6.15 -4.25 -6.8 -4.25 -6.85 -4.05 -7.05 -0.2 -8.0 1.35 -8.05 M3.2 -6.8 L3.15 -6.85 0.55 -6.85 0.2 -5.2 Q-3.45 -4.2 -4.5 -0.05 L-4.6 1.2 -4.55 1.9 -4.5 2.3 -4.25 3.05 Q-3.7 4.55 -2.25 5.15 L-2.7 7.0 -0.05 7.0 0.45 5.0 1.4 4.4 2.15 1.4 2.05 1.4 Q0.4 3.1 -0.95 2.8 -1.85 2.35 -1.5 0.1 -1.0 -2.0 0.65 -2.75 L1.15 -2.8 1.75 -2.55 2.2 -2.2 2.6 -1.6 2.8 -1.25 2.85 -1.25 3.5 -3.8 3.05 -4.35 2.7 -4.65 3.2 -6.8" fill="#ffffba" fill-opacity="0.36862746" fill-rule="evenodd" stroke="none"/>
  </g>
</svg>
