<?xml version="1.0" encoding="UTF-8" standalone="no"?>
<svg xmlns:ffdec="https://www.free-decompiler.com/flash" xmlns:xlink="http://www.w3.org/1999/xlink" ffdec:objectType="shape" height="38.4px" width="59.4px" xmlns="http://www.w3.org/2000/svg">
  <g transform="matrix(1.0, 0.0, 0.0, 1.0, 29.65, 5.1)">
    <path d="M-22.25 -3.0 L-10.75 -3.75 -24.45 -3.75 -20.75 0.45 -22.25 -3.0 M13.8 -4.0 L6.4 -4.0 3.0 0.55 6.8 -3.15 13.8 -4.0 M5.8 -5.1 L28.4 -5.1 12.2 13.45 29.75 33.3 6.55 33.3 0.05 24.45 -6.4 33.3 -29.65 33.3 -12.0 13.45 -28.3 -5.1 -5.7 -5.1 0.05 3.05 5.8 -5.1 M18.45 -0.6 L8.15 -0.6 0.05 10.9 -8.05 -0.6 -18.35 -0.6 -6.0 13.5 -19.6 28.8 -8.7 28.8 0.05 16.75 8.85 28.8 19.7 28.8 6.15 13.5 18.45 -0.6" fill="#2182b8" fill-rule="evenodd" stroke="none"/>
  </g>
</svg>
