<?xml version="1.0" encoding="UTF-8" standalone="no"?>
<svg xmlns:ffdec="https://www.free-decompiler.com/flash" xmlns:xlink="http://www.w3.org/1999/xlink" ffdec:objectType="shape" height="20.35px" width="59.25px" xmlns="http://www.w3.org/2000/svg">
  <g transform="matrix(1.0, 0.0, 0.0, 1.0, 29.6, 10.2)">
    <path d="M21.35 -8.7 Q21.25 -8.5 21.45 -8.5 26.3 -7.05 27.15 -4.7 27.65 -3.4 26.9 -2.35 L26.95 -2.15 27.2 -2.15 27.2 -2.2 Q28.25 -3.4 28.25 -4.45 L28.1 -5.2 Q27.55 -6.85 24.55 -7.95 L21.5 -8.8 21.35 -8.7 M17.55 -6.45 L17.55 -6.25 Q17.35 -6.25 17.45 -6.35 L17.55 -6.45 M22.05 -2.4 L22.25 -2.3 22.25 -2.25 22.05 -2.25 22.05 -2.4 M16.25 -7.05 Q8.95 -7.55 -0.8 -5.9 -10.55 -4.25 -17.05 -1.4 -23.55 1.45 -22.95 3.85 -22.4 6.2 -15.05 6.75 -7.75 7.25 2.0 5.6 11.7 3.9 18.2 1.1 24.7 -1.8 24.15 -4.15 23.5 -6.55 16.25 -7.05 M-20.15 8.95 L-19.8 9.0 -19.6 8.85 Q-19.6 8.7 -19.75 8.7 -25.45 7.7 -26.7 4.85 -27.4 3.3 -26.15 1.35 L-26.15 1.15 -26.4 1.15 -27.45 2.15 Q-28.45 3.4 -28.45 4.5 L-28.35 5.05 Q-27.7 7.8 -20.15 8.95 M19.9 -9.8 Q28.95 -8.65 29.6 -4.95 30.2 -1.25 21.95 2.8 13.75 6.8 1.5 8.85 -10.75 10.9 -19.85 9.7 -28.95 8.5 -29.55 4.8 -30.2 1.15 -21.95 -2.9 -13.7 -6.9 -1.45 -8.95 10.8 -10.95 19.9 -9.8 M-14.9 6.2 L-15.05 6.3 -15.35 6.25 -15.3 6.05 -15.0 6.1 -14.9 6.2 M-20.3 1.35 L-20.3 1.5 -20.5 1.35 -20.3 1.35" fill="#2182b8" fill-rule="evenodd" stroke="none"/>
  </g>
</svg>
