<?xml version="1.0" encoding="UTF-8" standalone="no"?>
<svg xmlns:ffdec="https://www.free-decompiler.com/flash" xmlns:xlink="http://www.w3.org/1999/xlink" ffdec:objectType="shape" height="39.5px" width="47.75px" xmlns="http://www.w3.org/2000/svg">
  <g transform="matrix(1.0, 0.0, 0.0, 1.0, 27.0, 20.5)">
    <path d="M5.9 -8.0 L14.4 -1.95 19.35 1.4 20.0 3.65 Q20.75 5.6 20.75 7.25 L20.55 11.05 20.55 11.1 19.8 12.25 Q15.3 19.0 10.0 19.0 6.8 19.0 2.9 16.1 L-1.35 12.75 -8.7 9.65 Q-13.65 7.65 -14.75 6.8 L-25.1 -1.45 Q-27.0 -3.5 -27.0 -8.1 -27.0 -12.85 -24.5 -16.0 -20.9 -20.5 -12.75 -20.5 L-5.25 -18.2 Q-4.2 -16.85 -0.45 -13.45 L5.9 -8.0" fill="#ffffff" fill-rule="evenodd" stroke="none"/>
  </g>
</svg>
