<?xml version="1.0" encoding="UTF-8" standalone="no"?>
<svg xmlns:ffdec="https://www.free-decompiler.com/flash" xmlns:xlink="http://www.w3.org/1999/xlink" ffdec:objectType="shape" height="3.15px" width="57.85px" xmlns="http://www.w3.org/2000/svg">
  <g transform="matrix(1.0, 0.0, 0.0, 1.0, 30.2, 1.25)">
    <path d="M-18.35 -0.35 L-10.5 -0.6 2.95 -1.0 Q13.5 -1.4 27.15 -1.15 28.15 0.35 27.15 1.8 13.5 2.05 2.95 1.65 L-10.5 1.3 -18.2 1.0 -18.35 -0.35 M-25.55 1.0 L-29.35 1.25 -29.35 1.8 -30.0 1.8 Q-30.4 0.35 -30.0 -1.15 L-29.35 -1.15 -29.35 -0.6 -25.4 -0.3 -25.55 1.0" fill="#ead977" fill-rule="evenodd" stroke="none"/>
    <path d="M-18.2 1.0 L-18.85 1.0 -19.55 1.0 -20.35 0.95 -21.55 0.95 -22.7 0.95 -23.7 0.95 -24.7 0.95 -25.55 1.0 -25.4 -0.3 -24.55 -0.3 -23.55 -0.3 -22.6 -0.3 -21.5 -0.3 -20.6 -0.3 -19.45 -0.3 -18.95 -0.3 -18.35 -0.35 -18.2 1.0 M-24.7 0.95 L-24.55 -0.3 -24.7 0.95 M-21.5 -0.3 L-21.55 0.95 -21.5 -0.3 M-20.35 0.95 L-20.6 -0.3 -20.35 0.95 M-19.45 -0.3 L-19.55 1.0 -19.45 -0.3 M-18.85 1.0 L-18.95 -0.3 -18.85 1.0 M-23.55 -0.3 L-23.7 0.95 -23.55 -0.3 M-22.7 0.95 L-22.6 -0.3 -22.7 0.95" fill="#e6e6e6" fill-rule="evenodd" stroke="none"/>
    <path d="M-18.35 -0.35 L-18.2 1.0 M-24.55 -0.3 L-24.7 0.95 M-25.55 1.0 L-25.4 -0.3 M-22.6 -0.3 L-22.7 0.95 M-23.7 0.95 L-23.55 -0.3 M-18.95 -0.3 L-18.85 1.0 M-19.55 1.0 L-19.45 -0.3 M-20.6 -0.3 L-20.35 0.95 M-21.55 0.95 L-21.5 -0.3" fill="none" stroke="#000000" stroke-linecap="round" stroke-linejoin="round" stroke-width="0.05"/>
    <path d="M23.6 -0.65 L16.35 -0.75 M19.25 1.1 Q12.0 1.15 6.1 0.8 M22.75 0.0 L11.0 0.05" fill="none" stroke="#f5eec2" stroke-linecap="round" stroke-linejoin="round" stroke-width="0.05"/>
    <path d="M27.15 -1.15 Q28.15 0.35 27.15 1.8 13.5 2.05 2.95 1.65 L-10.5 1.3 Q-25.55 0.65 -29.35 1.25 L-29.35 1.8 -30.0 1.8 Q-30.4 0.35 -30.0 -1.15 L-29.35 -1.15 -29.35 -0.6 Q-25.55 0.0 -10.5 -0.6 L2.95 -1.0 Q13.5 -1.4 27.15 -1.15 Z" fill="none" stroke="#000000" stroke-linecap="round" stroke-linejoin="round" stroke-opacity="0.6" stroke-width="0.05"/>
  </g>
</svg>
