<?xml version="1.0" encoding="UTF-8" standalone="no"?>
<svg xmlns:ffdec="https://www.free-decompiler.com/flash" xmlns:xlink="http://www.w3.org/1999/xlink" ffdec:objectType="shape" height="24.65px" width="48.0px" xmlns="http://www.w3.org/2000/svg">
  <g transform="matrix(1.0, 0.0, 0.0, 1.0, 24.75, 11.9)">
    <path d="M22.35 -8.25 Q23.25 -6.55 23.0 1.0 23.55 4.45 23.0 7.25 22.0 12.75 16.75 12.75 13.55 12.75 3.95 8.4 -3.3 5.15 -8.4 2.25 -12.25 0.15 -19.45 -3.2 -24.75 -6.1 -24.75 -9.2 -24.75 -10.65 -23.55 -11.9 L-18.4 -11.65 -5.15 -11.45 Q-3.6 -11.3 -0.4 -11.4 L11.5 -11.25 15.15 -11.6 20.0 -10.5 Q21.4 -9.95 22.35 -8.25" fill="#000000" fill-rule="evenodd" stroke="none"/>
  </g>
</svg>
