<?xml version="1.0" encoding="UTF-8" standalone="no"?>
<svg xmlns:ffdec="https://www.free-decompiler.com/flash" xmlns:xlink="http://www.w3.org/1999/xlink" ffdec:objectType="shape" height="37.75px" width="56.25px" xmlns="http://www.w3.org/2000/svg">
  <g transform="matrix(1.0, 0.0, 0.0, 1.0, 28.25, 16.25)">
    <path d="M-2.5 -9.05 L15.75 -1.05 19.35 2.0 22.45 4.4 24.5 6.65 Q25.15 7.5 26.55 11.3 L28.0 15.8 Q28.0 17.5 27.4 18.55 26.9 21.5 23.75 21.5 22.65 21.5 10.95 14.8 L-4.65 5.75 -21.4 -3.55 Q-28.25 -8.0 -28.25 -12.1 -28.25 -16.0 -24.5 -16.0 L-23.1 -15.75 -19.1 -16.25 -18.6 -16.25 Q-18.2 -15.75 -17.45 -15.35 L-11.9 -13.05 Q-5.5 -10.3 -2.5 -9.05" fill="#000000" fill-rule="evenodd" stroke="none"/>
  </g>
</svg>
