<?xml version="1.0" encoding="UTF-8" standalone="no"?>
<svg xmlns:ffdec="https://www.free-decompiler.com/flash" xmlns:xlink="http://www.w3.org/1999/xlink" ffdec:objectType="shape" height="42.0px" width="57.75px" xmlns="http://www.w3.org/2000/svg">
  <g transform="matrix(1.0, 0.0, 0.0, 1.0, 29.75, 19.75)">
    <path d="M-23.6 -19.75 Q-17.8 -19.75 -16.7 -16.9 -11.75 -14.1 -9.5 -13.15 -3.45 -10.6 7.4 -3.9 L26.0 7.1 Q27.6 8.4 27.9 10.3 L28.0 16.1 27.85 19.5 Q27.2 22.25 24.25 22.25 19.05 19.3 13.75 16.8 10.8 14.1 2.8 9.3 -0.55 7.6 -4.75 5.15 -7.85 3.35 -12.65 1.0 -17.05 0.65 -23.45 -5.1 -29.75 -10.75 -29.75 -13.15 L-29.45 -15.15 Q-29.15 -19.75 -23.6 -19.75" fill="#000000" fill-rule="evenodd" stroke="none"/>
  </g>
</svg>
