<?xml version="1.0" encoding="UTF-8" standalone="no"?>
<svg xmlns:ffdec="https://www.free-decompiler.com/flash" xmlns:xlink="http://www.w3.org/1999/xlink" ffdec:objectType="shape" height="34.95px" width="50.7px" xmlns="http://www.w3.org/2000/svg">
  <g transform="matrix(1.0, 0.0, 0.0, 1.0, 41.35, 23.45)">
    <path d="M-23.3 -10.75 L-23.7 -10.9 -23.9 -10.45 Q-23.75 -7.55 -19.65 -6.1 -19.15 -5.85 -19.15 -5.5 L-19.4 -5.15 Q-19.8 -4.85 -19.65 -4.5 -19.1 -3.1 -15.8 -3.65 L-15.75 -3.25 -16.0 -2.8 -16.8 -2.3 -17.05 -2.1 -17.15 -1.65 -13.0 -1.5 Q-12.45 -1.15 -13.2 -0.1 L-13.25 0.15 Q-12.8 0.95 -8.05 2.75 -2.75 4.7 0.95 4.85 4.9 4.95 6.15 2.45 6.7 1.25 5.75 0.05 4.25 -1.95 0.3 -4.1 -7.55 -8.35 -20.05 -9.3 -22.0 -9.35 -23.3 -10.75 M-40.65 -9.35 Q-41.55 -10.7 -41.25 -11.6 -40.95 -12.55 -40.0 -11.95 -37.55 -10.5 -34.85 -11.6 -41.45 -15.3 -40.35 -19.75 -40.0 -21.1 -38.9 -22.45 L-37.9 -23.45 -37.85 -22.0 Q-37.45 -20.2 -35.9 -18.55 -30.95 -13.2 -16.15 -10.9 -1.35 -8.65 5.45 -2.8 8.9 0.1 9.35 2.55 9.6 8.6 0.3 10.75 L-9.8 11.05 Q-13.2 10.25 -12.7 9.55 -12.3 7.6 -12.95 8.5 -13.65 9.35 -15.65 9.25 -15.1 8.7 -16.0 7.2 -16.35 7.85 -17.85 8.45 -19.4 9.05 -18.9 8.05 -18.2 6.65 -18.85 4.1 -22.4 8.7 -23.6 7.0 -21.95 5.05 -22.3 2.2 -27.5 7.35 -31.4 3.5 -29.5 3.65 -25.95 -0.6 -34.2 1.05 -38.35 -2.05 -39.75 -3.1 -39.8 -3.95 -39.85 -4.8 -38.65 -4.1 -35.55 -2.3 -29.8 -5.0 -38.0 -5.55 -40.65 -9.35" fill="#5a5859" fill-rule="evenodd" stroke="none"/>
  </g>
</svg>
