<?xml version="1.0" encoding="UTF-8" standalone="no"?>
<svg xmlns:ffdec="https://www.free-decompiler.com/flash" xmlns:xlink="http://www.w3.org/1999/xlink" ffdec:objectType="shape" height="40.5px" width="54.75px" xmlns="http://www.w3.org/2000/svg">
  <g transform="matrix(1.0, 0.0, 0.0, 1.0, 31.75, 15.75)">
    <path d="M-28.15 -14.2 Q-26.75 -15.75 -22.75 -15.75 -15.6 -15.75 -5.0 -10.75 0.5 -8.15 6.25 -4.75 16.35 0.15 18.05 1.2 22.75 4.25 22.75 7.9 L22.75 8.45 22.9 9.95 22.75 14.5 Q24.0 24.75 19.0 24.75 16.85 24.75 0.5 15.4 -5.75 11.9 -10.4 9.85 -11.5 9.25 -11.75 8.4 L-11.9 5.5 Q-11.9 5.05 -16.4 1.85 -21.0 -1.4 -24.25 -3.15 -24.75 -3.45 -27.3 -4.35 -29.75 -5.35 -30.4 -6.3 -31.75 -8.2 -31.75 -10.45 -31.75 -13.95 -28.15 -14.2" fill="#000000" fill-rule="evenodd" stroke="none"/>
  </g>
</svg>
