<?xml version="1.0" encoding="UTF-8" standalone="no"?>
<svg xmlns:ffdec="https://www.free-decompiler.com/flash" xmlns:xlink="http://www.w3.org/1999/xlink" ffdec:objectType="shape" height="35.0px" width="50.75px" xmlns="http://www.w3.org/2000/svg">
  <g transform="matrix(1.0, 0.0, 0.0, 1.0, 6.35, 24.5)">
    <path d="M32.9 -6.05 L36.15 -4.9 41.75 -5.15 Q42.15 0.95 29.05 -1.65 L31.05 0.45 Q33.3 2.55 34.5 2.45 30.6 6.3 25.4 1.15 L25.45 2.8 Q25.65 4.75 26.7 5.95 25.5 7.65 21.95 3.05 L21.7 4.5 Q21.55 6.15 22.0 7.0 22.7 8.45 19.1 6.15 L18.7 6.95 Q18.4 7.85 18.75 8.2 19.2 8.7 17.85 8.35 16.55 8.05 16.05 7.45 15.6 6.85 15.6 7.5 L15.8 8.5 Q12.15 11.8 2.8 9.7 -3.1 8.35 -5.25 5.0 -6.65 2.9 -6.25 1.5 L-5.6 -0.1 Q-4.5 -2.05 -2.35 -3.85 4.45 -9.7 19.25 -11.95 34.05 -14.25 39.0 -19.6 41.5 -22.25 41.0 -24.5 L42.0 -23.5 Q43.1 -22.2 43.45 -20.8 44.6 -16.35 37.95 -12.65 L39.6 -12.3 Q41.55 -12.1 43.1 -13.0 44.1 -13.6 44.35 -12.65 44.65 -11.75 43.75 -10.4 41.1 -6.6 32.9 -6.05 M16.35 -0.9 L16.3 -1.15 Q15.55 -2.2 16.1 -2.55 L20.25 -2.7 Q20.4 -2.95 20.15 -3.15 L19.9 -3.35 Q19.4 -3.55 19.1 -3.85 L18.85 -4.3 18.9 -4.7 Q22.2 -4.15 22.75 -5.55 22.95 -5.9 22.5 -6.2 L22.25 -6.55 Q22.25 -6.9 22.75 -7.15 26.85 -8.6 27.0 -11.5 L26.8 -11.95 Q26.6 -12.05 26.4 -11.8 25.6 -10.9 24.3 -10.55 L23.15 -10.35 Q10.65 -9.4 2.8 -5.15 0.3 -3.8 -1.4 -2.3 L-2.65 -1.0 Q-3.6 0.2 -3.05 1.4 -1.8 3.9 2.15 3.8 5.85 3.65 11.15 1.7 15.9 -0.1 16.35 -0.9" fill="#5a5859" fill-rule="evenodd" stroke="none"/>
  </g>
</svg>
