<?xml version="1.0" encoding="UTF-8" standalone="no"?>
<svg xmlns:ffdec="https://www.free-decompiler.com/flash" xmlns:xlink="http://www.w3.org/1999/xlink" ffdec:objectType="shape" height="35.25px" width="50.75px" xmlns="http://www.w3.org/2000/svg">
  <g transform="matrix(1.0, 0.0, 0.0, 1.0, 24.5, 17.25)">
    <path d="M-8.6 -11.05 Q-6.85 -10.25 -6.25 -9.75 -5.2 -8.9 -4.6 -7.75 L-3.75 -6.0 Q-2.45 -4.0 2.75 -2.5 6.4 -1.45 15.9 4.3 26.25 10.6 26.25 12.9 26.25 15.8 23.75 16.7 20.15 18.0 7.75 18.0 3.65 18.0 2.65 15.55 0.9 11.2 -0.9 9.6 -3.15 7.6 -9.25 4.75 -15.05 2.0 -16.35 2.0 -22.55 2.0 -24.1 -1.35 -24.5 -2.2 -24.5 -5.65 -21.9 -17.25 -16.35 -17.25 -12.55 -17.25 -10.8 -13.3 -10.2 -11.95 -8.6 -11.05" fill="#000000" fill-rule="evenodd" stroke="none"/>
  </g>
</svg>
