<?xml version="1.0" encoding="UTF-8" standalone="no"?>
<svg xmlns:ffdec="https://www.free-decompiler.com/flash" xmlns:xlink="http://www.w3.org/1999/xlink" ffdec:objectType="shape" height="28.05px" width="27.75px" xmlns="http://www.w3.org/2000/svg">
  <g transform="matrix(1.0, 0.0, 0.0, 1.0, 14.0, 12.0)">
    <path d="M10.0 -2.5 Q13.75 5.45 13.75 8.55 13.75 14.2 9.8 16.05 9.2 15.65 8.25 15.4 L1.75 13.25 -0.6 12.8 -1.5 12.0 Q-3.95 10.0 -7.35 10.0 L-7.55 10.0 Q-9.2 9.0 -10.35 9.0 L-11.0 9.05 -11.15 8.85 Q-13.25 7.1 -13.75 4.4 L-14.0 -0.1 Q-14.0 -5.7 -13.5 -7.75 -12.5 -12.0 -9.1 -12.0 -5.9 -12.0 -1.55 -10.0 L3.4 -7.4 Q8.8 -4.95 10.0 -2.5" fill="#000000" fill-rule="evenodd" stroke="none"/>
  </g>
</svg>
