<?xml version="1.0" encoding="UTF-8" standalone="no"?>
<svg xmlns:ffdec="https://www.free-decompiler.com/flash" xmlns:xlink="http://www.w3.org/1999/xlink" ffdec:objectType="shape" height="28.9px" width="29.8px" xmlns="http://www.w3.org/2000/svg">
  <g transform="matrix(1.0, 0.0, 0.0, 1.0, 16.25, 13.0)">
    <path d="M7.25 -13.0 Q13.4 -13.0 13.5 -4.25 13.8 1.75 12.75 7.2 11.75 12.55 9.6 15.25 L4.65 15.9 Q1.95 15.9 -4.35 12.45 -8.3 10.3 -10.55 9.5 -13.1 7.05 -15.25 5.5 -16.25 4.6 -16.25 2.15 -16.25 -1.2 -14.55 -5.25 -11.9 -11.5 -6.85 -11.5 L-5.0 -11.0 -1.0 -10.75 Q2.6 -10.75 3.65 -11.85 4.75 -13.0 7.25 -13.0" fill="#000000" fill-rule="evenodd" stroke="none"/>
  </g>
</svg>
