<?xml version="1.0" encoding="UTF-8" standalone="no"?>
<svg xmlns:ffdec="https://www.free-decompiler.com/flash" xmlns:xlink="http://www.w3.org/1999/xlink" ffdec:objectType="shape" height="66.6px" width="74.4px" xmlns="http://www.w3.org/2000/svg">
  <g transform="matrix(1.0, 0.0, 0.0, 1.0, 37.3, 27.3)">
    <path d="M15.05 -3.6 Q32.3 5.9 35.5 10.9 36.95 13.2 37.1 16.45 L36.95 23.65 36.95 31.95 Q36.05 39.3 31.6 39.3 22.6 39.3 16.7 24.65 14.45 19.1 6.75 14.85 2.75 12.6 -2.45 10.65 -21.35 1.15 -28.05 -3.9 -37.3 -10.9 -37.3 -18.25 -37.3 -20.85 -36.25 -23.35 -34.65 -27.3 -31.15 -27.3 -23.2 -27.3 -7.2 -16.25 -5.05 -13.85 2.75 -9.85 7.0 -7.65 15.05 -3.6" fill="#000000" fill-rule="evenodd" stroke="none"/>
  </g>
</svg>
