<?xml version="1.0" encoding="UTF-8" standalone="no"?>
<svg xmlns:ffdec="https://www.free-decompiler.com/flash" xmlns:xlink="http://www.w3.org/1999/xlink" ffdec:objectType="shape" height="33.75px" width="44.7px" xmlns="http://www.w3.org/2000/svg">
  <g transform="matrix(1.0, 0.0, 0.0, 1.0, 21.5, 16.75)">
    <path d="M1.3 -5.25 Q9.55 -0.65 14.6 -0.25 16.25 1.45 18.55 3.1 L19.35 4.6 20.1 5.75 Q21.7 10.45 23.2 13.4 L22.5 14.25 Q21.25 14.25 20.6 14.9 L16.55 14.6 Q13.25 14.6 11.65 15.8 10.05 17.0 8.5 17.0 L-3.4 11.35 Q-5.4 10.4 -8.95 7.95 -12.55 5.45 -14.25 4.65 -21.1 1.45 -21.0 -2.25 -20.9 -4.9 -21.5 -8.9 -21.5 -16.75 -17.1 -16.75 L-10.25 -13.65 Q-10.05 -11.95 -8.85 -11.45 -7.7 -9.75 -5.75 -9.75 L-5.7 -9.75 Q-3.65 -8.0 1.3 -5.25" fill="#000000" fill-rule="evenodd" stroke="none"/>
  </g>
</svg>
