<?xml version="1.0" encoding="UTF-8" standalone="no"?>
<svg xmlns:ffdec="https://www.free-decompiler.com/flash" xmlns:xlink="http://www.w3.org/1999/xlink" ffdec:objectType="shape" height="43.25px" width="57.25px" xmlns="http://www.w3.org/2000/svg">
  <g transform="matrix(1.0, 0.0, 0.0, 1.0, 30.25, 20.5)">
    <path d="M8.75 -11.4 L10.6 -8.9 Q11.85 -7.8 14.25 -7.35 L19.1 -6.65 Q24.3 -5.75 25.65 -3.6 26.05 -3.05 26.2 -1.6 27.45 0.15 26.75 4.25 26.75 8.75 24.25 14.0 20.1 22.75 11.25 22.75 -1.55 22.75 -5.5 14.75 -7.0 11.7 -7.0 5.65 L-6.95 4.45 Q-11.6 1.25 -16.4 -0.85 L-24.2 -3.8 Q-27.55 -5.1 -28.75 -6.6 -30.25 -8.55 -30.25 -12.6 -30.25 -14.2 -29.0 -16.9 -27.35 -20.5 -25.1 -20.5 -24.0 -20.5 -15.4 -15.75 -6.8 -11.05 -1.55 -11.05 1.85 -13.0 4.25 -13.0 7.2 -13.0 8.75 -11.4" fill="#000000" fill-rule="evenodd" stroke="none"/>
  </g>
</svg>
