<?xml version="1.0" encoding="UTF-8" standalone="no"?>
<svg xmlns:ffdec="https://www.free-decompiler.com/flash" xmlns:xlink="http://www.w3.org/1999/xlink" ffdec:objectType="shape" height="50.05px" width="28.3px" xmlns="http://www.w3.org/2000/svg">
  <g transform="matrix(1.0, 0.0, 0.0, 1.0, 14.25, 24.25)">
    <path d="M8.0 -9.5 Q8.05 -8.2 9.15 -6.7 L11.0 -4.25 Q13.65 0.3 13.75 16.75 L14.05 19.3 Q14.15 21.1 13.1 22.25 10.15 25.75 -3.35 25.75 L-9.1 25.8 Q-11.55 25.7 -12.55 24.9 -14.7 23.25 -14.0 14.0 -13.65 10.05 -14.0 1.9 L-14.0 -11.65 -14.25 -18.55 Q-13.45 -24.25 -8.35 -24.25 -2.15 -24.25 3.2 -20.65 8.0 -17.5 8.0 -15.0 L8.0 -9.5" fill="#000000" fill-rule="evenodd" stroke="none"/>
  </g>
</svg>
