<?xml version="1.0" encoding="UTF-8" standalone="no"?>
<svg xmlns:ffdec="https://www.free-decompiler.com/flash" xmlns:xlink="http://www.w3.org/1999/xlink" ffdec:objectType="shape" height="17.65px" width="22.75px" xmlns="http://www.w3.org/2000/svg">
  <g transform="matrix(1.0, 0.0, 0.0, 1.0, 11.4, 8.8)">
    <path d="M10.4 -7.0 Q11.3 -6.0 11.35 -2.65 L6.15 -2.65 Q6.05 -3.8 5.7 -4.05 L0.0 -4.5 -5.4 -3.95 Q-6.2 -3.35 -6.15 -0.05 -6.15 3.55 -5.45 4.2 L-3.05 4.7 0.0 4.75 5.9 4.2 Q6.25 3.9 6.25 2.3 L-0.6 2.3 -0.6 -1.15 11.35 -1.15 11.2 4.8 Q10.95 7.75 7.8 8.4 L-0.4 8.85 Q-7.9 8.8 -9.6 7.65 -10.95 6.65 -11.2 4.2 L-11.4 -0.3 Q-11.4 -6.35 -9.45 -7.6 -7.75 -8.8 0.5 -8.8 8.9 -8.8 10.4 -7.0" fill="#2182b8" fill-rule="evenodd" stroke="none"/>
  </g>
</svg>
