<?xml version="1.0" encoding="UTF-8" standalone="no"?>
<svg xmlns:ffdec="https://www.free-decompiler.com/flash" xmlns:xlink="http://www.w3.org/1999/xlink" ffdec:objectType="shape" height="37.5px" width="50.3px" xmlns="http://www.w3.org/2000/svg">
  <g transform="matrix(1.0, 0.0, 0.0, 1.0, 26.05, 21.5)">
    <path d="M24.15 -17.9 L24.25 -13.4 24.25 6.75 Q24.25 16.0 -1.5 16.0 L-15.5 15.65 -16.75 15.25 -19.5 14.0 Q-22.25 12.6 -23.15 11.6 L-25.45 9.1 Q-26.0 8.25 -26.0 6.7 -26.25 5.35 -25.65 4.0 -24.4 1.3 -20.0 1.0 L-7.9 -0.35 Q-7.4 -0.5 -7.0 -0.8 -4.65 -1.45 -3.75 -3.3 -3.25 -4.3 -3.25 -7.05 -2.7 -10.3 -3.95 -11.4 L-3.9 -15.25 -4.75 -17.7 Q-4.75 -21.5 -0.25 -21.5 L21.15 -21.05 Q22.2 -20.9 23.1 -20.15 24.15 -19.15 24.15 -17.9" fill="#000000" fill-rule="evenodd" stroke="none"/>
  </g>
</svg>
