<?xml version="1.0" encoding="UTF-8" standalone="no"?>
<svg xmlns:ffdec="https://www.free-decompiler.com/flash" xmlns:xlink="http://www.w3.org/1999/xlink" ffdec:objectType="shape" height="10.2px" width="10.2px" xmlns="http://www.w3.org/2000/svg">
  <g transform="matrix(1.0, 0.0, 0.0, 1.0, 5.1, 5.1)">
    <path d="M3.6 -3.6 L3.65 -3.55 Q5.05 -2.1 5.1 0.0 5.05 2.1 3.65 3.6 L3.6 3.65 Q2.1 5.05 0.0 5.1 -2.1 5.05 -3.55 3.65 L-3.6 3.6 Q-5.1 2.1 -5.05 0.05 L-5.05 -0.05 Q-5.1 -2.1 -3.6 -3.6 -2.1 -5.1 -0.05 -5.05 L0.05 -5.05 Q2.1 -5.1 3.6 -3.6 M2.15 -2.2 Q1.25 -3.1 0.05 -3.1 L0.0 -3.1 Q-1.25 -3.1 -2.15 -2.2 -3.05 -1.35 -3.0 -0.1 L-3.0 -0.05 Q-3.05 1.2 -2.15 2.1 L-2.1 2.15 Q-1.25 3.0 0.0 3.0 1.25 3.0 2.15 2.15 L2.2 2.1 Q3.05 1.2 3.05 -0.05 3.05 -1.3 2.2 -2.2 L2.15 -2.2" fill="#4d87df" fill-rule="evenodd" stroke="none"/>
  </g>
</svg>
