<?xml version="1.0" encoding="UTF-8" standalone="no"?>
<svg xmlns:ffdec="https://www.free-decompiler.com/flash" xmlns:xlink="http://www.w3.org/1999/xlink" ffdec:objectType="shape" height="19.5px" width="19.5px" xmlns="http://www.w3.org/2000/svg">
  <g transform="matrix(1.0, 0.0, 0.0, 1.0, 9.75, 9.75)">
    <path d="M6.95 -6.9 Q9.7 -4.1 9.75 0.0 L9.75 0.05 Q9.7 4.1 6.95 6.9 L6.9 6.95 Q4.0 9.75 0.0 9.75 -4.05 9.75 -6.9 6.9 -9.75 4.05 -9.75 0.0 -9.75 -4.05 -6.9 -6.9 -4.05 -9.75 0.0 -9.75 4.0 -9.75 6.9 -6.9 L6.95 -6.9 M6.75 0.0 Q6.7 -2.8 4.8 -4.75 L4.8 -4.8 Q2.75 -6.75 0.0 -6.75 -2.85 -6.75 -4.8 -4.8 -6.75 -2.85 -6.75 0.0 -6.75 2.85 -4.8 4.8 -2.85 6.75 0.0 6.75 2.75 6.75 4.8 4.8 6.7 2.8 6.75 0.05 L6.75 0.0" fill="#ffffff" fill-rule="evenodd" stroke="none"/>
  </g>
</svg>
