<?xml version="1.0" encoding="UTF-8" standalone="no"?>
<svg xmlns:ffdec="https://www.free-decompiler.com/flash" xmlns:xlink="http://www.w3.org/1999/xlink" ffdec:objectType="shape" height="17.3px" width="19.05px" xmlns="http://www.w3.org/2000/svg">
  <g transform="matrix(1.0, 0.0, 0.0, 1.0, 9.5, 8.65)">
    <path d="M7.75 -7.3 Q9.0 -6.3 9.0 -3.45 L6.7 -3.45 6.7 -3.7 Q6.7 -5.75 5.3 -6.25 L0.65 -6.65 -5.65 -6.1 Q-7.1 -5.6 -7.1 -3.75 -7.1 -1.7 -5.65 -1.3 L-1.5 -0.95 4.3 -0.9 Q7.8 -0.9 8.8 0.65 9.5 1.75 9.55 3.6 9.55 6.8 7.55 7.75 5.75 8.65 -1.4 8.65 -6.5 8.65 -7.85 7.8 -9.45 6.85 -9.4 4.2 L-9.4 3.25 -7.2 3.25 -7.2 3.6 Q-7.15 5.9 -6.1 6.3 L0.35 6.75 5.6 6.3 Q7.2 6.05 7.2 3.8 7.2 1.75 6.0 1.35 L-3.25 1.05 Q-9.5 1.05 -9.5 -3.75 -9.5 -6.0 -8.15 -7.15 -7.1 -8.0 -4.45 -8.35 L0.85 -8.65 Q6.15 -8.65 7.75 -7.3" fill="#5a5859" fill-rule="evenodd" stroke="none"/>
  </g>
</svg>
