<?xml version="1.0" encoding="UTF-8" standalone="no"?>
<svg xmlns:ffdec="https://www.free-decompiler.com/flash" xmlns:xlink="http://www.w3.org/1999/xlink" ffdec:objectType="shape" height="7.45px" width="2.85px" xmlns="http://www.w3.org/2000/svg">
  <g transform="matrix(1.0, 0.0, 0.0, 1.0, -11.4, 17.8)">
    <path d="M13.1 -17.8 Q13.85 -17.4 13.5 -16.5 L13.5 -16.45 Q14.15 -16.0 14.25 -15.0 14.3 -14.45 13.9 -14.1 13.7 -13.95 13.5 -14.1 13.1 -14.45 13.1 -15.05 L12.95 -15.45 12.6 -16.1 12.65 -16.55 12.5 -17.0 Q12.5 -17.45 12.85 -17.75 L13.1 -17.8 M13.8 -10.7 L13.7 -10.45 Q13.15 -10.2 12.6 -10.65 L11.9 -11.1 Q11.05 -11.4 11.65 -12.05 L11.9 -12.1 Q13.4 -12.0 13.8 -10.7" fill="#ff0000" fill-rule="evenodd" stroke="none"/>
  </g>
</svg>
