<?xml version="1.0" encoding="UTF-8" standalone="no"?>
<svg xmlns:ffdec="https://www.free-decompiler.com/flash" xmlns:xlink="http://www.w3.org/1999/xlink" ffdec:objectType="shape" height="8.45px" width="2.65px" xmlns="http://www.w3.org/2000/svg">
  <g transform="matrix(1.0, 0.0, 0.0, 1.0, -12.15, 18.3)">
    <path d="M14.2 -16.6 Q14.95 -16.2 14.75 -15.2 14.65 -14.4 13.95 -13.95 13.65 -13.7 13.4 -14.05 13.2 -14.4 13.5 -14.75 L13.5 -15.0 13.65 -15.2 13.75 -16.3 13.95 -16.55 14.2 -16.6 M14.05 -16.9 Q13.8 -17.0 13.8 -17.3 13.15 -17.4 13.35 -18.05 L13.55 -18.25 13.8 -18.3 Q15.0 -18.15 14.65 -17.1 14.5 -16.7 14.05 -16.9 M13.3 -10.2 L12.75 -10.55 Q11.7 -11.1 12.45 -11.75 L12.6 -11.8 Q13.85 -11.35 14.65 -10.35 L14.65 -10.2 Q14.1 -9.5 13.3 -10.2" fill="#ff0000" fill-rule="evenodd" stroke="none"/>
  </g>
</svg>
