<?xml version="1.0" encoding="UTF-8" standalone="no"?>
<svg xmlns:ffdec="https://www.free-decompiler.com/flash" xmlns:xlink="http://www.w3.org/1999/xlink" ffdec:objectType="shape" height="9.45px" width="3.9px" xmlns="http://www.w3.org/2000/svg">
  <g transform="matrix(1.0, 0.0, 0.0, 1.0, -12.75, 18.7)">
    <path d="M15.8 -18.7 Q17.0 -18.5 16.55 -17.4 L16.35 -17.25 Q15.8 -17.1 15.7 -17.65 15.2 -17.9 15.35 -18.45 L15.55 -18.65 15.6 -18.65 15.8 -18.7 M14.75 -16.45 L15.0 -16.5 Q15.8 -16.15 15.35 -15.2 L14.8 -14.15 13.9 -14.1 Q13.75 -14.35 13.85 -14.65 L14.75 -16.45 M14.2 -10.8 Q15.25 -10.5 15.2 -9.55 L14.8 -9.25 Q14.3 -9.35 13.95 -9.75 L13.65 -9.95 Q13.0 -10.2 12.8 -10.8 12.65 -11.1 12.95 -11.25 L13.0 -11.25 13.2 -11.3 Q13.8 -11.25 14.2 -10.85 L14.2 -10.8" fill="#ff0000" fill-rule="evenodd" stroke="none"/>
  </g>
</svg>
