<?xml version="1.0" encoding="UTF-8" standalone="no"?>
<svg xmlns:ffdec="https://www.free-decompiler.com/flash" xmlns:xlink="http://www.w3.org/1999/xlink" ffdec:objectType="shape" height="9.7px" width="4.95px" xmlns="http://www.w3.org/2000/svg">
  <g transform="matrix(1.0, 0.0, 0.0, 1.0, -13.35, 18.4)">
    <path d="M15.15 -15.45 L15.2 -15.45 15.4 -15.5 Q16.2 -15.2 15.65 -14.55 L15.6 -14.5 Q15.3 -13.3 14.25 -13.6 L14.15 -13.8 14.55 -14.85 15.15 -15.45 M17.7 -18.4 Q18.75 -17.9 17.95 -17.05 17.5 -16.6 17.15 -17.05 16.95 -17.25 17.05 -17.55 L17.2 -17.75 17.25 -18.15 17.45 -18.35 17.7 -18.4 M16.8 -9.0 L15.4 -8.9 Q15.05 -9.05 14.9 -9.45 L14.5 -9.75 Q13.8 -9.7 13.4 -10.35 13.2 -10.7 13.55 -10.95 L13.8 -11.0 Q14.5 -10.95 14.75 -10.55 L14.9 -10.6 15.65 -10.05 Q16.4 -9.85 16.85 -9.25 L16.8 -9.0" fill="#ff0000" fill-rule="evenodd" stroke="none"/>
  </g>
</svg>
