<?xml version="1.0" encoding="UTF-8" standalone="no"?>
<svg xmlns:ffdec="https://www.free-decompiler.com/flash" xmlns:xlink="http://www.w3.org/1999/xlink" ffdec:objectType="shape" height="9.75px" width="5.2px" xmlns="http://www.w3.org/2000/svg">
  <g transform="matrix(1.0, 0.0, 0.0, 1.0, -14.4, 17.5)">
    <path d="M14.75 -13.7 L15.15 -14.35 15.2 -14.35 15.4 -14.4 Q16.15 -14.15 15.75 -13.45 L15.7 -13.4 Q15.35 -12.5 14.8 -13.3 14.7 -13.45 14.75 -13.7 M18.45 -16.9 L18.85 -17.45 18.9 -17.45 19.1 -17.5 Q20.0 -17.05 19.25 -16.2 L18.55 -16.25 Q18.3 -16.55 18.45 -16.9 M15.75 -9.05 L16.0 -9.1 Q17.05 -9.1 17.55 -8.35 L17.55 -8.1 Q17.1 -7.45 16.25 -7.95 L15.95 -8.1 Q15.15 -8.4 15.75 -9.05 M15.7 -9.4 Q15.25 -9.2 15.0 -9.6 14.3 -9.65 14.4 -10.25 L14.65 -10.55 14.9 -10.6 Q16.0 -10.6 15.9 -9.6 L15.7 -9.4" fill="#ff0000" fill-rule="evenodd" stroke="none"/>
  </g>
</svg>
