<?xml version="1.0" encoding="UTF-8" standalone="no"?>
<svg xmlns:ffdec="https://www.free-decompiler.com/flash" xmlns:xlink="http://www.w3.org/1999/xlink" ffdec:objectType="shape" height="9.85px" width="6.1px" xmlns="http://www.w3.org/2000/svg">
  <g transform="matrix(1.0, 0.0, 0.0, 1.0, -15.1, 15.8)">
    <path d="M20.0 -15.3 Q20.3 -15.7 20.7 -15.8 21.55 -15.45 20.9 -14.75 20.25 -14.05 19.95 -14.85 L20.0 -15.3 M16.0 -13.2 Q17.0 -12.65 15.9 -12.05 15.45 -11.8 15.3 -12.2 15.1 -12.8 15.75 -13.15 L16.0 -13.2 M15.5 -9.7 Q16.65 -9.4 16.3 -8.5 16.2 -8.3 16.0 -8.35 14.7 -8.65 15.3 -9.55 L15.5 -9.7 M17.8 -7.3 Q19.0 -7.05 18.6 -6.1 18.5 -5.9 18.3 -5.95 17.25 -6.15 17.45 -7.05 L17.8 -7.3" fill="#ff0000" fill-rule="evenodd" stroke="none"/>
  </g>
</svg>
