<?xml version="1.0" encoding="UTF-8" standalone="no"?>
<svg xmlns:ffdec="https://www.free-decompiler.com/flash" xmlns:xlink="http://www.w3.org/1999/xlink" ffdec:objectType="shape" height="9.95px" width="6.45px" xmlns="http://www.w3.org/2000/svg">
  <g transform="matrix(1.0, 0.0, 0.0, 1.0, -15.6, 14.1)">
    <path d="M16.25 -11.5 Q16.0 -11.6 16.0 -11.9 L16.25 -12.35 16.5 -12.4 Q17.35 -12.1 16.65 -11.55 L16.25 -11.5 M16.4 -7.15 L16.0 -7.1 Q15.25 -7.6 15.95 -8.05 L16.1 -8.1 Q17.0 -7.8 16.4 -7.15 M18.3 -5.2 Q19.2 -4.9 18.6 -4.25 L18.2 -4.2 Q17.45 -4.7 18.15 -5.15 L18.3 -5.2 M21.75 -13.25 L21.35 -13.2 21.1 -13.6 Q21.1 -13.9 21.35 -14.05 L21.6 -14.1 Q22.45 -13.8 21.75 -13.25" fill="#ff0000" fill-rule="evenodd" stroke="none"/>
  </g>
</svg>
