<?xml version="1.0" encoding="UTF-8" standalone="no"?>
<svg xmlns:ffdec="https://www.free-decompiler.com/flash" xmlns:xlink="http://www.w3.org/1999/xlink" ffdec:objectType="shape" height="3.05px" width="31.95px" xmlns="http://www.w3.org/2000/svg">
  <g transform="matrix(1.0, 0.0, 0.0, 1.0, 18.0, -11.5)">
    <path d="M7.25 12.1 L13.95 12.6 13.85 12.7 13.75 12.9 12.8 13.05 11.05 13.3 12.25 13.45 Q12.8 13.5 12.95 13.75 L9.25 14.1 9.1 14.25 Q8.95 14.2 9.0 14.3 -0.05 14.8 -9.2 14.3 L-16.85 13.8 -18.0 13.45 -17.9 13.35 -17.55 13.1 -8.05 12.8 -8.15 12.65 -8.05 12.3 2.7 11.5 4.5 11.6 5.5 11.9 7.25 12.1" fill="#cc0000" fill-rule="evenodd" stroke="none"/>
  </g>
</svg>
