<?xml version="1.0" encoding="UTF-8" standalone="no"?>
<svg xmlns:ffdec="https://www.free-decompiler.com/flash" xmlns:xlink="http://www.w3.org/1999/xlink" ffdec:objectType="shape" height="4.15px" width="8.55px" xmlns="http://www.w3.org/2000/svg">
  <g transform="matrix(1.0, 0.0, 0.0, 1.0, 11.95, -8.8)">
    <path d="M-3.9 11.5 Q-3.1 11.9 -3.55 12.8 L-3.9 12.95 Q-4.55 12.8 -4.45 12.05 L-4.15 11.55 -4.1 11.55 -3.9 11.5 M-10.75 8.85 L-10.6 8.8 Q-9.6 8.9 -10.15 9.6 -10.3 9.8 -10.6 9.85 L-10.85 9.85 -11.35 10.5 -11.8 10.45 Q-12.2 9.85 -11.55 9.45 L-11.5 9.45 -11.3 9.4 -11.25 9.45 -11.1 9.05 Q-11.0 8.9 -10.75 8.85" fill="#ff0000" fill-rule="evenodd" stroke="none"/>
  </g>
</svg>
