<?xml version="1.0" encoding="UTF-8" standalone="no"?>
<svg xmlns:ffdec="https://www.free-decompiler.com/flash" xmlns:xlink="http://www.w3.org/1999/xlink" ffdec:objectType="shape" height="26.45px" width="11.55px" xmlns="http://www.w3.org/2000/svg">
  <g transform="matrix(1.0, 0.0, 0.0, 1.0, 15.1, 7.2)">
    <path d="M-12.1 -6.6 L-11.15 -6.6 -11.2 -6.8 -10.95 -7.15 -10.7 -7.2 Q-9.95 -7.1 -9.35 -6.65 L-9.3 -6.65 Q-8.4 -6.35 -8.95 -5.8 L-8.65 -5.6 -8.65 -5.45 Q-9.1 -4.65 -10.05 -5.2 L-10.35 -5.4 -12.1 -5.65 Q-12.6 -5.65 -12.6 -6.1 L-12.35 -6.55 -12.1 -6.6 M-14.95 15.65 Q-14.8 15.5 -14.6 15.5 -13.75 15.8 -14.4 16.45 L-14.8 16.5 Q-15.3 16.15 -14.95 15.65 M-13.6 12.75 Q-13.35 12.5 -13.0 12.5 -12.05 12.95 -13.0 13.55 -13.8 14.1 -13.85 13.2 L-13.6 12.75 M-4.25 18.15 L-4.2 18.15 -4.0 18.1 Q-3.05 18.6 -4.0 19.2 L-4.4 19.15 Q-4.8 18.6 -4.25 18.15" fill="#ff0000" fill-rule="evenodd" stroke="none"/>
  </g>
</svg>
