<?xml version="1.0" encoding="UTF-8" standalone="no"?>
<svg xmlns:ffdec="https://www.free-decompiler.com/flash" xmlns:xlink="http://www.w3.org/1999/xlink" ffdec:objectType="shape" height="29.4px" width="12.6px" xmlns="http://www.w3.org/2000/svg">
  <g transform="matrix(1.0, 0.0, 0.0, 1.0, 16.25, 7.9)">
    <path d="M-12.6 -6.2 Q-12.25 -5.95 -12.55 -5.65 -13.1 -5.15 -14.0 -5.25 L-14.65 -5.2 Q-15.5 -4.9 -16.15 -5.4 L-16.25 -5.65 Q-16.05 -6.25 -15.3 -6.3 L-14.1 -6.4 -12.6 -6.2 M-12.35 -7.0 Q-12.8 -6.3 -13.8 -6.6 L-15.15 -6.95 -15.4 -7.3 -15.15 -7.75 -14.9 -7.8 Q-13.35 -8.1 -12.4 -7.2 L-12.35 -7.0 M-13.8 15.6 Q-14.35 15.15 -13.8 14.65 L-13.65 14.55 -13.6 14.55 -13.4 14.5 Q-12.45 14.95 -13.4 15.6 L-13.8 15.6 M-15.3 18.15 Q-15.1 18.0 -14.9 18.0 -14.0 18.35 -14.8 18.95 -15.15 19.2 -15.35 18.85 -15.65 18.45 -15.3 18.15 M-4.6 21.1 L-4.35 20.65 -4.1 20.6 Q-3.25 20.9 -3.95 21.45 L-4.35 21.5 -4.6 21.1" fill="#ff0000" fill-rule="evenodd" stroke="none"/>
  </g>
</svg>
