<?xml version="1.0" encoding="UTF-8" standalone="no"?>
<svg xmlns:ffdec="https://www.free-decompiler.com/flash" xmlns:xlink="http://www.w3.org/1999/xlink" ffdec:objectType="shape" height="32.5px" width="16.2px" xmlns="http://www.w3.org/2000/svg">
  <g transform="matrix(1.0, 0.0, 0.0, 1.0, 19.95, 8.0)">
    <path d="M-17.05 -7.1 L-17.5 -6.8 -18.85 -6.95 -19.0 -7.25 Q-18.9 -7.75 -18.4 -7.8 L-17.3 -8.0 Q-16.3 -7.75 -17.05 -7.1 M-17.1 -5.75 L-16.8 -5.45 Q-16.8 -5.15 -17.1 -5.05 L-18.45 -4.8 -19.5 -4.7 Q-20.05 -4.65 -19.9 -5.15 -19.75 -5.8 -19.0 -5.85 L-18.5 -5.9 -17.1 -5.75 M-14.05 17.7 L-14.3 17.3 -14.05 16.85 -13.8 16.8 Q-12.95 17.1 -13.65 17.65 L-14.05 17.7 M-15.3 20.7 Q-14.45 21.0 -15.15 21.55 L-15.55 21.6 -15.8 21.2 -15.55 20.75 -15.3 20.7 M-4.7 24.1 L-4.45 23.65 -4.2 23.6 Q-3.35 23.9 -4.05 24.45 L-4.45 24.5 -4.7 24.1" fill="#ff0000" fill-rule="evenodd" stroke="none"/>
  </g>
</svg>
