<?xml version="1.0" encoding="UTF-8" standalone="no"?>
<svg xmlns:ffdec="https://www.free-decompiler.com/flash" xmlns:xlink="http://www.w3.org/1999/xlink" ffdec:objectType="shape" height="35.0px" width="20.4px" xmlns="http://www.w3.org/2000/svg">
  <g transform="matrix(1.0, 0.0, 0.0, 1.0, 24.15, 7.7)">
    <path d="M-21.45 -6.8 L-21.95 -6.5 Q-22.95 -6.15 -22.75 -7.1 L-22.35 -7.55 -21.7 -7.7 Q-20.7 -7.45 -21.45 -6.8 M-21.7 -5.3 L-21.4 -5.4 Q-20.45 -5.15 -21.15 -4.5 -21.55 -4.15 -21.8 -4.5 L-21.95 -4.3 -22.2 -4.1 Q-23.25 -3.7 -24.1 -4.1 L-24.15 -4.2 Q-24.05 -5.0 -23.1 -5.05 L-22.5 -5.1 -21.95 -5.0 -21.7 -5.3 M-16.0 23.6 L-15.75 23.15 -15.5 23.1 Q-14.65 23.4 -15.35 23.95 L-15.75 24.0 -16.0 23.6 M-14.5 20.0 L-14.25 19.55 -14.0 19.5 Q-13.15 19.8 -13.85 20.35 L-14.25 20.4 -14.5 20.0 M-4.7 26.9 L-4.45 26.45 -4.2 26.4 Q-3.35 26.7 -4.05 27.25 L-4.45 27.3 -4.7 26.9" fill="#ff0000" fill-rule="evenodd" stroke="none"/>
  </g>
</svg>
