<?xml version="1.0" encoding="UTF-8" standalone="no"?>
<svg xmlns:ffdec="https://www.free-decompiler.com/flash" xmlns:xlink="http://www.w3.org/1999/xlink" ffdec:objectType="shape" height="33.7px" width="13.35px" xmlns="http://www.w3.org/2000/svg">
  <g transform="matrix(1.0, 0.0, 0.0, 1.0, 27.0, 7.0)">
    <path d="M-24.65 -6.2 L-24.9 -6.0 Q-25.85 -5.5 -25.8 -6.45 L-25.6 -6.85 -25.45 -6.95 -25.4 -6.95 -25.2 -7.0 Q-24.1 -7.0 -24.65 -6.2 M-25.5 -4.6 Q-24.5 -4.35 -25.25 -3.75 -25.55 -3.45 -25.95 -3.2 -27.0 -2.6 -27.0 -3.65 L-26.75 -4.1 -25.5 -4.6 M-23.0 -5.0 Q-22.05 -4.55 -22.95 -4.0 -23.2 -3.85 -23.4 -4.0 -23.95 -4.4 -23.45 -4.8 L-23.0 -5.0 M-14.35 22.7 L-14.6 22.3 -14.35 21.85 -14.1 21.8 Q-13.25 22.1 -13.95 22.65 L-14.35 22.7 M-16.2 26.3 L-15.95 25.85 -15.7 25.8 Q-14.85 26.1 -15.55 26.65 L-15.95 26.7 -16.2 26.3" fill="#ff0000" fill-rule="evenodd" stroke="none"/>
  </g>
</svg>
