<?xml version="1.0" encoding="UTF-8" standalone="no"?>
<svg xmlns:ffdec="https://www.free-decompiler.com/flash" xmlns:xlink="http://www.w3.org/1999/xlink" ffdec:objectType="shape" height="35.3px" width="16.75px" xmlns="http://www.w3.org/2000/svg">
  <g transform="matrix(1.0, 0.0, 0.0, 1.0, 30.5, 6.1)">
    <path d="M-28.9 -5.05 Q-29.3 -5.65 -28.65 -6.05 L-28.6 -6.05 -28.4 -6.1 Q-27.45 -5.6 -28.45 -5.0 L-28.9 -5.05 M-29.55 -2.1 L-29.85 -1.95 Q-30.55 -1.65 -30.5 -2.35 L-30.15 -3.25 -29.6 -3.5 Q-28.65 -2.95 -29.55 -2.1 M-24.9 -4.3 Q-24.05 -4.0 -24.75 -3.45 L-25.15 -3.4 -25.4 -3.8 -25.15 -4.25 -24.9 -4.3 M-14.2 24.5 Q-13.35 24.8 -14.05 25.35 L-14.45 25.4 -14.7 25.0 -14.45 24.55 -14.2 24.5 M-16.25 29.2 L-16.5 28.8 -16.25 28.35 -16.0 28.3 Q-15.15 28.6 -15.85 29.15 L-16.25 29.2" fill="#ff0000" fill-rule="evenodd" stroke="none"/>
  </g>
</svg>
