<?xml version="1.0" encoding="UTF-8" standalone="no"?>
<svg xmlns:ffdec="https://www.free-decompiler.com/flash" xmlns:xlink="http://www.w3.org/1999/xlink" ffdec:objectType="shape" height="33.4px" width="19.85px" xmlns="http://www.w3.org/2000/svg">
  <g transform="matrix(1.0, 0.0, 0.0, 1.0, 33.7, 5.3)">
    <path d="M-30.85 -4.4 Q-31.2 -4.05 -31.6 -4.4 -31.9 -4.65 -31.65 -4.95 -31.45 -5.3 -31.1 -5.3 -30.1 -5.05 -30.85 -4.4 M-33.65 -1.6 L-33.25 -2.15 -33.2 -2.15 -33.0 -2.2 Q-32.15 -1.75 -32.85 -0.95 -33.2 -0.5 -33.55 -0.95 -33.8 -1.25 -33.65 -1.6 M-25.6 -2.85 Q-25.95 -2.6 -26.15 -2.95 -26.45 -3.35 -26.1 -3.65 L-25.7 -3.8 Q-24.8 -3.45 -25.6 -2.85 M-14.8 27.7 L-14.55 27.25 -14.3 27.2 Q-13.45 27.5 -14.15 28.05 L-14.55 28.1 -14.8 27.7" fill="#ff0000" fill-rule="evenodd" stroke="none"/>
  </g>
</svg>
