<?xml version="1.0" encoding="UTF-8" standalone="no"?>
<svg xmlns:ffdec="https://www.free-decompiler.com/flash" xmlns:xlink="http://www.w3.org/1999/xlink" ffdec:objectType="shape" height="13.55px" width="40.6px" xmlns="http://www.w3.org/2000/svg">
  <g transform="matrix(1.0, 0.0, 0.0, 1.0, 36.2, 13.3)">
    <path d="M3.55 -13.25 L3.8 -13.3 Q4.6 -12.85 4.3 -11.85 L4.2 -11.45 3.75 -10.55 Q3.75 -9.7 3.05 -9.5 2.75 -9.4 2.7 -9.7 L2.6 -11.05 2.7 -13.0 2.85 -13.25 2.9 -13.25 3.1 -13.3 3.45 -13.05 3.55 -13.25 M-35.7 -0.8 Q-34.8 -0.5 -35.4 0.15 L-35.8 0.2 Q-36.55 -0.3 -35.85 -0.75 L-35.7 -0.8 M-33.7 -3.35 L-34.25 -3.45 Q-34.55 -3.85 -34.2 -4.15 L-33.8 -4.3 Q-32.9 -3.95 -33.7 -3.35 M-25.95 -2.65 L-26.35 -2.6 -26.6 -3.0 -26.35 -3.45 -26.1 -3.5 Q-25.25 -3.2 -25.95 -2.65" fill="#ff0000" fill-rule="evenodd" stroke="none"/>
  </g>
</svg>
