<?xml version="1.0" encoding="UTF-8" standalone="no"?>
<svg xmlns:ffdec="https://www.free-decompiler.com/flash" xmlns:xlink="http://www.w3.org/1999/xlink" ffdec:objectType="shape" height="19.9px" width="43.35px" xmlns="http://www.w3.org/2000/svg">
  <g transform="matrix(1.0, 0.0, 0.0, 1.0, 38.3, 18.3)">
    <path d="M3.2 -16.25 L3.5 -17.15 Q3.65 -17.8 4.25 -18.2 L4.35 -18.25 4.4 -18.25 4.6 -18.3 Q5.55 -17.8 4.6 -17.05 L4.5 -17.0 4.05 -14.65 Q4.05 -14.5 3.85 -14.5 L3.45 -14.55 3.25 -13.9 2.9 -13.75 Q2.25 -13.9 2.3 -14.65 2.4 -15.45 2.1 -16.2 1.95 -16.5 2.25 -16.65 L2.3 -16.65 2.5 -16.7 3.2 -16.1 3.2 -16.25 M-35.35 -2.65 L-35.75 -2.6 -36.0 -3.0 -35.75 -3.45 -35.5 -3.5 Q-34.65 -3.2 -35.35 -2.65 M-37.65 1.55 L-38.05 1.6 -38.3 1.2 -38.05 0.75 -37.8 0.7 Q-36.95 1.0 -37.65 1.55" fill="#ff0000" fill-rule="evenodd" stroke="none"/>
  </g>
</svg>
