<?xml version="1.0" encoding="UTF-8" standalone="no"?>
<svg xmlns:ffdec="https://www.free-decompiler.com/flash" xmlns:xlink="http://www.w3.org/1999/xlink" ffdec:objectType="shape" height="24.2px" width="46.3px" xmlns="http://www.w3.org/2000/svg">
  <g transform="matrix(1.0, 0.0, 0.0, 1.0, 40.0, 21.3)">
    <path d="M5.9 -20.2 L4.4 -18.65 4.1 -18.65 Q3.7 -18.8 3.9 -19.2 L4.9 -20.75 5.55 -21.25 5.8 -21.3 Q6.7 -20.9 5.9 -20.2 M1.25 -19.45 Q1.15 -19.8 1.45 -19.95 L1.5 -19.95 1.7 -20.0 Q2.6 -19.5 2.65 -18.35 L2.35 -18.0 Q1.7 -17.9 1.5 -18.6 L1.25 -19.45 M-36.55 -1.85 L-36.95 -1.8 -37.2 -2.2 -36.95 -2.65 -36.7 -2.7 Q-35.85 -2.4 -36.55 -1.85 M-39.35 2.85 L-39.75 2.9 -40.0 2.5 -39.75 2.05 -39.5 2.0 Q-38.65 2.3 -39.35 2.85" fill="#ff0000" fill-rule="evenodd" stroke="none"/>
  </g>
</svg>
