<?xml version="1.0" encoding="UTF-8" standalone="no"?>
<svg xmlns:ffdec="https://www.free-decompiler.com/flash" xmlns:xlink="http://www.w3.org/1999/xlink" ffdec:objectType="shape" height="27.9px" width="48.25px" xmlns="http://www.w3.org/2000/svg">
  <g transform="matrix(1.0, 0.0, 0.0, 1.0, 41.1, 23.8)">
    <path d="M6.85 -22.9 L6.4 -22.6 5.15 -21.65 4.9 -21.6 Q4.55 -21.75 4.65 -22.15 4.85 -23.05 5.75 -23.45 L6.6 -23.8 Q7.55 -23.55 6.85 -22.9 M2.15 -21.5 L2.1 -21.25 1.15 -21.2 Q0.0 -21.45 0.4 -22.4 0.5 -22.6 0.7 -22.6 1.65 -22.3 2.15 -21.5 M-37.05 -1.45 L-37.45 -1.4 -37.7 -1.8 -37.45 -2.25 -37.2 -2.3 Q-36.35 -2.0 -37.05 -1.45 M-41.1 3.7 L-40.85 3.25 -40.6 3.2 Q-39.75 3.5 -40.45 4.05 L-40.85 4.1 -41.1 3.7" fill="#ff0000" fill-rule="evenodd" stroke="none"/>
  </g>
</svg>
