<?xml version="1.0" encoding="UTF-8" standalone="no"?>
<svg xmlns:ffdec="https://www.free-decompiler.com/flash" xmlns:xlink="http://www.w3.org/1999/xlink" ffdec:objectType="shape" height="24.8px" width="45.75px" xmlns="http://www.w3.org/2000/svg">
  <g transform="matrix(1.0, 0.0, 0.0, 1.0, 38.3, 25.8)">
    <path d="M7.15 -24.9 L6.85 -24.65 5.6 -24.5 Q5.35 -24.6 5.45 -24.85 5.65 -25.45 6.3 -25.7 L6.8 -25.8 Q7.9 -25.65 7.15 -24.9 M1.85 -23.6 Q1.7 -23.4 1.45 -23.35 0.95 -23.3 0.9 -23.55 L0.75 -23.3 0.65 -23.25 Q0.3 -23.15 0.05 -23.4 -0.6 -23.55 -0.3 -24.2 L-0.15 -24.35 0.1 -24.4 0.9 -23.95 0.9 -24.0 Q1.05 -24.4 1.4 -24.4 2.4 -24.3 1.85 -23.6 M-37.65 -1.05 L-38.05 -1.0 -38.3 -1.4 -38.05 -1.85 -37.8 -1.9 Q-36.95 -1.6 -37.65 -1.05" fill="#ff0000" fill-rule="evenodd" stroke="none"/>
  </g>
</svg>
