<?xml version="1.0" encoding="UTF-8" standalone="no"?>
<svg xmlns:ffdec="https://www.free-decompiler.com/flash" xmlns:xlink="http://www.w3.org/1999/xlink" ffdec:objectType="shape" height="3.2px" width="9.2px" xmlns="http://www.w3.org/2000/svg">
  <g transform="matrix(1.0, 0.0, 0.0, 1.0, 1.1, 27.3)">
    <path d="M1.35 -25.05 L1.6 -25.1 Q2.6 -25.15 2.25 -24.3 L1.9 -24.1 Q0.9 -24.05 1.2 -24.9 L1.35 -25.05 M6.6 -27.2 Q7.4 -27.45 7.95 -26.95 L8.0 -26.4 7.6 -26.2 6.35 -26.3 Q6.15 -26.35 6.1 -26.55 6.0 -26.95 6.35 -27.15 L6.6 -27.2 M-1.1 -25.3 L-0.75 -25.75 -0.6 -25.8 Q0.6 -25.85 0.05 -25.0 L-0.2 -24.8 Q-1.1 -24.45 -1.1 -25.3" fill="#ff0000" fill-rule="evenodd" stroke="none"/>
  </g>
</svg>
