<?xml version="1.0" encoding="UTF-8" standalone="no"?>
<svg xmlns:ffdec="https://www.free-decompiler.com/flash" xmlns:xlink="http://www.w3.org/1999/xlink" ffdec:objectType="shape" height="4.2px" width="10.0px" xmlns="http://www.w3.org/2000/svg">
  <g transform="matrix(1.0, 0.0, 0.0, 1.0, 1.9, 28.4)">
    <path d="M2.1 -25.3 Q3.1 -24.85 2.3 -24.25 L2.0 -24.2 Q1.65 -24.4 1.6 -24.75 1.55 -25.1 1.85 -25.25 L1.9 -25.25 2.1 -25.3 M6.9 -28.15 L7.1 -28.3 Q8.25 -28.25 8.05 -27.25 L7.7 -27.0 7.25 -27.2 Q6.85 -27.3 6.75 -27.45 L6.7 -27.45 6.3 -27.4 Q5.55 -27.9 6.25 -28.35 L6.4 -28.4 6.9 -28.15 M-1.15 -25.5 Q-1.4 -25.35 -1.6 -25.5 -2.15 -25.9 -1.65 -26.3 L-1.2 -26.5 Q-0.25 -26.05 -1.15 -25.5" fill="#ff0000" fill-rule="evenodd" stroke="none"/>
  </g>
</svg>
