<?xml version="1.0" encoding="UTF-8" standalone="no"?>
<svg xmlns:ffdec="https://www.free-decompiler.com/flash" xmlns:xlink="http://www.w3.org/1999/xlink" ffdec:objectType="shape" height="5.6px" width="11.15px" xmlns="http://www.w3.org/2000/svg">
  <g transform="matrix(1.0, 0.0, 0.0, 1.0, 2.7, 29.0)">
    <path d="M6.75 -28.15 L6.35 -28.1 6.1 -28.5 6.35 -28.95 6.6 -29.0 Q7.45 -28.7 6.75 -28.15 M8.0 -27.25 Q7.45 -27.4 7.35 -28.0 7.25 -28.55 7.8 -28.6 8.85 -28.2 8.2 -27.35 L8.0 -27.25 M2.6 -23.45 L2.3 -23.45 Q1.9 -23.55 1.8 -23.95 1.7 -24.35 2.05 -24.55 L2.3 -24.6 Q3.35 -24.2 2.6 -23.45 M-2.1 -25.5 L-2.5 -25.55 Q-2.95 -26.1 -2.35 -26.55 L-2.3 -26.55 -2.1 -26.6 Q-1.15 -26.15 -2.1 -25.5" fill="#ff0000" fill-rule="evenodd" stroke="none"/>
  </g>
</svg>
