<?xml version="1.0" encoding="UTF-8" standalone="no"?>
<svg xmlns:ffdec="https://www.free-decompiler.com/flash" xmlns:xlink="http://www.w3.org/1999/xlink" ffdec:objectType="shape" height="6.5px" width="11.75px" xmlns="http://www.w3.org/2000/svg">
  <g transform="matrix(1.0, 0.0, 0.0, 1.0, 3.0, 28.8)">
    <path d="M8.2 -28.2 Q9.2 -27.75 8.4 -27.05 L8.1 -27.05 Q7.75 -27.2 7.7 -27.55 7.65 -27.95 7.95 -28.15 L8.2 -28.2 M6.75 -27.95 L6.35 -27.9 6.1 -28.3 6.35 -28.75 6.6 -28.8 Q7.45 -28.5 6.75 -27.95 M2.7 -22.35 L2.4 -22.35 2.0 -22.85 Q1.9 -23.25 2.25 -23.45 L2.5 -23.5 Q3.5 -23.1 2.7 -22.35 M-2.3 -24.95 L-2.7 -24.9 Q-3.2 -25.25 -2.85 -25.75 L-2.5 -25.9 Q-1.65 -25.6 -2.3 -24.95" fill="#ff0000" fill-rule="evenodd" stroke="none"/>
  </g>
</svg>
