<?xml version="1.0" encoding="UTF-8" standalone="no"?>
<svg xmlns:ffdec="https://www.free-decompiler.com/flash" xmlns:xlink="http://www.w3.org/1999/xlink" ffdec:objectType="shape" height="7.65px" width="12.35px" xmlns="http://www.w3.org/2000/svg">
  <g transform="matrix(1.0, 0.0, 0.0, 1.0, 3.3, 28.2)">
    <path d="M6.6 -28.2 Q7.45 -27.9 6.75 -27.35 L6.35 -27.3 6.1 -27.7 6.35 -28.15 6.6 -28.2 M8.55 -26.3 L8.1 -26.35 Q7.7 -26.95 8.35 -27.35 L8.4 -27.35 8.6 -27.4 Q9.55 -26.9 8.55 -26.3 M2.9 -20.65 L2.5 -20.6 Q2.0 -20.95 2.35 -21.45 L2.7 -21.6 Q3.55 -21.3 2.9 -20.65 M-2.65 -24.15 L-3.05 -24.1 -3.3 -24.5 -3.05 -24.95 -2.8 -25.0 Q-1.95 -24.7 -2.65 -24.15" fill="#ff0000" fill-rule="evenodd" stroke="none"/>
  </g>
</svg>
