<?xml version="1.0" encoding="UTF-8" standalone="no"?>
<svg xmlns:ffdec="https://www.free-decompiler.com/flash" xmlns:xlink="http://www.w3.org/1999/xlink" ffdec:objectType="shape" height="17.3px" width="21.4px" xmlns="http://www.w3.org/2000/svg">
  <g transform="matrix(1.0, 0.0, 0.0, 1.0, 10.7, 8.65)">
    <path d="M10.55 -3.85 L10.7 0.05 Q10.7 5.85 9.4 7.25 8.05 8.65 1.85 8.65 L-6.3 8.4 Q-8.5 8.15 -9.45 7.15 -10.7 5.7 -10.7 0.0 -10.7 -6.2 -9.0 -7.45 -7.95 -8.3 -4.95 -8.45 L0.65 -8.65 Q7.95 -8.65 9.35 -7.2 10.3 -6.3 10.55 -3.85 M6.2 -6.3 L-1.0 -6.55 Q-6.5 -6.55 -7.5 -5.7 -8.35 -4.85 -8.35 -0.15 -8.35 4.85 -7.65 5.65 -7.1 6.25 -4.6 6.5 L0.3 6.6 6.35 6.25 Q7.75 6.0 8.15 4.5 L8.4 0.0 8.15 -4.6 Q7.9 -6.05 6.2 -6.3" fill="#5a5859" fill-rule="evenodd" stroke="none"/>
  </g>
</svg>
