<?xml version="1.0" encoding="UTF-8" standalone="no"?>
<svg xmlns:ffdec="https://www.free-decompiler.com/flash" xmlns:xlink="http://www.w3.org/1999/xlink" ffdec:objectType="shape" height="9.0px" width="12.7px" xmlns="http://www.w3.org/2000/svg">
  <g transform="matrix(1.0, 0.0, 0.0, 1.0, 3.6, 27.7)">
    <path d="M6.85 -26.85 L6.45 -26.8 6.2 -27.2 6.45 -27.65 6.7 -27.7 Q7.55 -27.4 6.85 -26.85 M8.7 -25.45 L8.4 -25.4 Q8.05 -25.55 8.05 -25.95 8.05 -26.3 8.35 -26.45 L8.4 -26.45 8.6 -26.5 Q9.55 -26.05 8.7 -25.45 M3.05 -18.75 L2.65 -18.7 Q2.4 -18.8 2.4 -19.1 L2.65 -19.55 2.9 -19.6 Q3.75 -19.3 3.05 -18.75 M-2.9 -23.05 L-3.3 -23.0 Q-3.8 -23.35 -3.45 -23.85 L-3.1 -24.0 Q-2.25 -23.7 -2.9 -23.05" fill="#ff0000" fill-rule="evenodd" stroke="none"/>
  </g>
</svg>
