<?xml version="1.0" encoding="UTF-8" standalone="no"?>
<svg xmlns:ffdec="https://www.free-decompiler.com/flash" xmlns:xlink="http://www.w3.org/1999/xlink" ffdec:objectType="shape" height="10.7px" width="13.05px" xmlns="http://www.w3.org/2000/svg">
  <g transform="matrix(1.0, 0.0, 0.0, 1.0, 3.9, 27.0)">
    <path d="M8.7 -25.5 Q9.6 -25.05 8.75 -24.35 8.5 -24.1 8.3 -24.35 7.85 -24.95 8.45 -25.45 L8.7 -25.5 M6.85 -26.15 L6.45 -26.1 6.2 -26.5 6.45 -26.95 6.7 -27.0 Q7.55 -26.7 6.85 -26.15 M3.15 -16.35 L2.75 -16.3 Q2.5 -16.4 2.5 -16.7 L2.75 -17.15 3.0 -17.2 Q3.85 -16.9 3.15 -16.35 M-3.2 -21.55 L-3.6 -21.5 Q-4.1 -21.85 -3.75 -22.35 L-3.4 -22.5 Q-2.55 -22.2 -3.2 -21.55" fill="#ff0000" fill-rule="evenodd" stroke="none"/>
  </g>
</svg>
