<?xml version="1.0" encoding="UTF-8" standalone="no"?>
<svg xmlns:ffdec="https://www.free-decompiler.com/flash" xmlns:xlink="http://www.w3.org/1999/xlink" ffdec:objectType="shape" height="5.05px" width="8.2px" xmlns="http://www.w3.org/2000/svg">
  <g transform="matrix(1.0, 0.0, 0.0, 1.0, 1.1, 11.1)">
    <path d="M6.75 -7.8 L6.3 -7.45 6.25 -7.4 6.3 -7.4 Q7.5 -7.45 6.95 -6.6 L6.7 -6.4 4.65 -6.05 4.45 -6.2 4.45 -6.3 4.0 -6.1 Q3.65 -6.0 3.6 -6.3 3.45 -7.15 4.25 -7.7 L4.55 -7.9 5.0 -8.25 6.1 -8.7 6.25 -8.6 6.5 -8.7 Q7.45 -8.45 6.75 -7.8 M2.0 -9.75 L2.35 -10.25 2.6 -10.3 Q3.45 -9.9 2.85 -9.0 L2.65 -8.4 Q2.6 -7.5 2.2 -6.8 L2.0 -6.7 1.5 -7.0 Q0.9 -7.15 0.9 -7.95 L0.9 -10.65 1.15 -11.05 1.2 -11.05 1.4 -11.1 Q2.15 -10.75 2.0 -9.75 M0.8 -6.65 Q0.2 -6.45 -0.1 -7.05 L-0.8 -8.05 -1.1 -8.65 -0.85 -9.15 -0.8 -9.15 -0.6 -9.2 Q0.65 -8.45 1.0 -6.95 L0.8 -6.65" fill="#ff0000" fill-rule="evenodd" stroke="none"/>
  </g>
</svg>
