<?xml version="1.0" encoding="UTF-8" standalone="no"?>
<svg xmlns:ffdec="https://www.free-decompiler.com/flash" xmlns:xlink="http://www.w3.org/1999/xlink" ffdec:objectType="shape" height="9.8px" width="13.7px" xmlns="http://www.w3.org/2000/svg">
  <g transform="matrix(1.0, 0.0, 0.0, 1.0, 3.15, 16.4)">
    <path d="M0.9 -16.35 L1.1 -16.4 Q1.85 -16.05 1.85 -15.1 L1.65 -13.15 1.55 -13.05 Q0.7 -12.8 0.7 -13.7 L0.75 -16.2 0.9 -16.35 M1.1 -12.65 L1.3 -12.7 Q2.05 -12.3 1.75 -11.3 L1.65 -10.65 Q1.35 -9.9 0.8 -10.55 L0.65 -11.0 0.8 -11.45 0.75 -11.55 Q0.65 -12.2 1.05 -12.65 L1.1 -12.65 M3.35 -13.25 L3.3 -12.45 Q3.3 -11.75 2.8 -11.45 L2.5 -11.45 Q2.1 -11.65 2.15 -12.2 L2.45 -14.4 2.55 -14.55 2.6 -14.55 2.8 -14.6 Q3.55 -14.25 3.35 -13.25 M9.0 -9.5 Q9.95 -9.25 9.25 -8.6 L8.95 -8.4 7.25 -8.3 7.15 -8.5 Q7.3 -9.4 8.35 -9.4 L9.0 -9.5 M7.95 -6.65 L7.7 -6.85 Q7.6 -7.25 7.95 -7.45 L8.2 -7.5 10.3 -7.35 10.55 -7.15 Q10.65 -6.6 10.1 -6.6 L7.95 -6.65 M-0.8 -9.0 Q-0.75 -8.8 -0.95 -8.7 -1.55 -8.5 -1.85 -9.0 L-2.1 -9.15 -2.45 -9.4 Q-3.1 -9.45 -3.15 -10.0 L-2.95 -10.45 -2.7 -10.5 Q-1.1 -10.35 -0.8 -9.0" fill="#ff0000" fill-rule="evenodd" stroke="none"/>
  </g>
</svg>
