<?xml version="1.0" encoding="UTF-8" standalone="no"?>
<svg xmlns:ffdec="https://www.free-decompiler.com/flash" xmlns:xlink="http://www.w3.org/1999/xlink" ffdec:objectType="shape" height="15.75px" width="19.0px" xmlns="http://www.w3.org/2000/svg">
  <g transform="matrix(1.0, 0.0, 0.0, 1.0, 4.85, 21.6)">
    <path d="M1.55 -20.3 L1.35 -18.65 Q1.25 -18.4 1.0 -18.45 0.3 -18.6 0.4 -19.45 L0.3 -20.6 Q0.15 -21.05 0.45 -21.45 L0.8 -21.6 Q1.5 -21.2 1.55 -20.3 M1.2 -13.5 Q2.1 -13.05 1.8 -11.95 1.65 -11.2 1.0 -11.75 L0.85 -12.05 Q0.7 -12.7 0.85 -13.25 L1.2 -13.5 M3.0 -18.4 Q3.75 -18.05 3.5 -17.15 3.4 -16.85 3.45 -16.55 3.55 -15.6 2.65 -15.75 2.45 -15.8 2.4 -16.05 2.2 -17.3 2.75 -18.35 L3.0 -18.4 M12.5 -9.4 Q12.7 -9.1 12.4 -8.9 L11.2 -8.6 Q10.1 -8.6 10.65 -9.4 L10.9 -9.6 11.3 -9.7 Q12.1 -9.95 12.5 -9.4 M11.3 -7.0 L11.45 -7.15 11.7 -7.2 Q13.15 -7.45 14.1 -6.5 L14.15 -6.3 Q13.7 -5.6 12.75 -5.95 L11.7 -6.25 Q11.0 -6.35 11.3 -7.0 M-3.25 -10.05 Q-3.95 -9.6 -4.65 -9.65 L-4.85 -9.85 Q-4.8 -10.7 -3.95 -11.05 L-3.3 -11.2 Q-2.35 -10.75 -3.25 -10.05" fill="#ff0000" fill-rule="evenodd" stroke="none"/>
  </g>
</svg>
