<?xml version="1.0" encoding="UTF-8" standalone="no"?>
<svg xmlns:ffdec="https://www.free-decompiler.com/flash" xmlns:xlink="http://www.w3.org/1999/xlink" ffdec:objectType="shape" height="22.5px" width="23.9px" xmlns="http://www.w3.org/2000/svg">
  <g transform="matrix(1.0, 0.0, 0.0, 1.0, 6.35, 26.8)">
    <path d="M1.25 -25.55 L1.3 -24.45 Q1.3 -23.5 0.55 -24.1 L0.35 -24.35 Q0.0 -25.4 0.05 -26.45 L0.25 -26.75 0.3 -26.75 0.5 -26.8 Q1.15 -26.45 1.25 -25.55 M3.0 -22.05 L3.2 -22.1 Q4.0 -22.0 3.7 -21.3 L3.6 -21.25 Q3.8 -20.3 3.05 -20.1 2.75 -20.0 2.65 -20.3 2.35 -21.3 2.95 -22.05 L3.0 -22.05 M2.1 -12.8 L1.95 -12.6 Q1.2 -12.45 0.7 -13.15 0.4 -13.6 0.85 -13.95 L0.9 -13.95 1.1 -14.0 Q2.05 -13.7 2.1 -12.8 M17.45 -5.0 Q17.65 -4.8 17.45 -4.6 L16.45 -4.5 15.75 -4.85 Q14.8 -5.0 14.75 -5.8 L14.95 -6.15 15.0 -6.15 15.2 -6.2 Q16.55 -5.85 17.45 -5.0 M-5.25 -10.55 L-5.3 -10.5 Q-5.2 -9.45 -6.15 -9.8 L-6.3 -10.05 Q-6.5 -10.9 -5.85 -11.45 L-5.6 -11.5 Q-4.65 -11.3 -5.25 -10.55" fill="#ff0000" fill-rule="evenodd" stroke="none"/>
  </g>
</svg>
