<?xml version="1.0" encoding="UTF-8" standalone="no"?>
<svg xmlns:ffdec="https://www.free-decompiler.com/flash" xmlns:xlink="http://www.w3.org/1999/xlink" ffdec:objectType="shape" height="29.7px" width="28.85px" xmlns="http://www.w3.org/2000/svg">
  <g transform="matrix(1.0, 0.0, 0.0, 1.0, 8.15, 31.5)">
    <path d="M0.5 -29.1 Q-0.1 -29.1 -0.1 -29.75 -0.65 -30.35 -0.8 -31.1 L-0.65 -31.45 -0.4 -31.5 Q0.8 -30.9 0.9 -29.5 0.95 -29.05 0.5 -29.1 M3.4 -25.15 L3.6 -25.2 Q4.55 -24.95 3.9 -24.25 L3.8 -24.2 Q3.45 -23.1 2.7 -23.75 L2.6 -24.05 Q2.75 -24.75 3.35 -25.15 L3.4 -25.15 M2.05 -13.55 L1.7 -13.3 Q0.7 -13.25 1.0 -14.1 L1.15 -14.25 1.4 -14.3 Q2.4 -14.35 2.05 -13.55 M19.3 -3.45 L19.5 -3.5 Q20.5 -3.1 20.7 -2.1 L20.45 -1.8 Q19.75 -1.7 19.35 -2.3 L19.05 -2.8 Q18.9 -3.2 19.25 -3.45 L19.3 -3.45 M19.05 -3.3 Q19.0 -3.2 18.8 -3.2 17.7 -3.3 18.05 -4.2 L18.15 -4.35 18.2 -4.35 18.4 -4.4 Q19.6 -4.2 19.05 -3.3 M-7.1 -10.3 L-7.1 -10.25 -7.05 -10.15 Q-6.0 -10.0 -6.55 -9.3 L-6.8 -9.15 Q-7.9 -9.05 -8.1 -10.1 -8.25 -10.95 -7.6 -11.1 -7.0 -10.95 -7.1 -10.3" fill="#ff0000" fill-rule="evenodd" stroke="none"/>
  </g>
</svg>
