<?xml version="1.0" encoding="UTF-8" standalone="no"?>
<svg xmlns:ffdec="https://www.free-decompiler.com/flash" xmlns:xlink="http://www.w3.org/1999/xlink" ffdec:objectType="shape" height="35.9px" width="32.7px" xmlns="http://www.w3.org/2000/svg">
  <g transform="matrix(1.0, 0.0, 0.0, 1.0, 9.85, 34.5)">
    <path d="M0.3 -33.55 L0.25 -33.2 Q0.2 -32.85 -0.2 -32.85 -0.95 -32.85 -1.15 -33.45 -1.25 -33.75 -0.95 -33.95 L-0.7 -34.0 -0.2 -34.0 -0.1 -34.3 0.05 -34.45 0.3 -34.5 Q1.25 -34.25 0.55 -33.6 L0.3 -33.55 M4.05 -26.5 L3.8 -26.3 Q2.8 -25.9 2.65 -26.8 L2.75 -27.05 3.7 -27.4 Q4.8 -27.25 4.05 -26.5 M1.65 -13.4 Q1.4 -13.25 1.2 -13.4 0.7 -13.75 1.05 -14.25 L1.4 -14.4 Q2.4 -14.15 1.65 -13.4 M21.6 -2.0 Q22.65 -1.8 22.0 -1.05 L21.55 -0.95 Q20.7 -1.4 21.45 -1.95 L21.6 -2.0 M21.9 -0.7 Q22.75 -0.2 22.85 0.95 22.9 1.45 22.4 1.4 21.8 1.4 21.7 0.85 L21.45 0.1 Q21.25 -0.35 21.65 -0.65 L21.9 -0.7 M-8.15 -9.1 L-8.7 -8.75 Q-9.5 -8.45 -9.8 -9.1 -10.0 -9.55 -9.55 -9.75 L-9.15 -9.85 -8.55 -9.95 -8.4 -10.0 Q-7.45 -9.75 -8.15 -9.1" fill="#ff0000" fill-rule="evenodd" stroke="none"/>
  </g>
</svg>
