<?xml version="1.0" encoding="UTF-8" standalone="no"?>
<svg xmlns:ffdec="https://www.free-decompiler.com/flash" xmlns:xlink="http://www.w3.org/1999/xlink" ffdec:objectType="shape" height="40.5px" width="35.0px" xmlns="http://www.w3.org/2000/svg">
  <g transform="matrix(1.0, 0.0, 0.0, 1.0, 10.8, 36.7)">
    <path d="M0.15 -35.85 L-0.25 -35.8 -0.5 -36.2 -0.25 -36.65 0.0 -36.7 Q0.85 -36.4 0.15 -35.85 M3.1 -29.5 Q3.75 -29.25 3.5 -28.9 4.6 -29.0 4.25 -28.15 L3.9 -27.85 Q3.2 -27.75 3.05 -28.35 L3.05 -28.55 2.85 -28.6 2.6 -29.0 2.85 -29.45 3.1 -29.5 M1.65 -13.35 L1.25 -13.3 1.0 -13.7 1.25 -14.15 1.5 -14.2 Q2.35 -13.9 1.65 -13.35 M-1.1 -35.6 Q-0.15 -35.35 -0.85 -34.7 -1.3 -34.3 -1.6 -34.8 -1.8 -35.25 -1.4 -35.5 L-1.1 -35.6 M-9.65 -7.65 Q-9.95 -7.15 -10.5 -7.4 -10.9 -7.6 -10.75 -8.05 L-10.55 -8.25 -10.35 -8.85 -10.15 -9.05 -10.1 -9.05 -9.9 -9.1 Q-9.1 -8.65 -9.65 -7.65 M23.5 0.9 Q23.0 0.55 23.35 0.05 L23.7 -0.1 Q24.55 0.2 23.9 0.85 L23.5 0.9 M23.5 3.75 L23.35 3.8 Q22.6 3.85 22.6 2.95 22.1 2.35 22.75 1.95 L22.9 1.9 Q24.05 2.55 23.5 3.75" fill="#ff0000" fill-rule="evenodd" stroke="none"/>
  </g>
</svg>
