<?xml version="1.0" encoding="UTF-8" standalone="no"?>
<svg xmlns:ffdec="https://www.free-decompiler.com/flash" xmlns:xlink="http://www.w3.org/1999/xlink" ffdec:objectType="shape" height="44.15px" width="37.15px" xmlns="http://www.w3.org/2000/svg">
  <g transform="matrix(1.0, 0.0, 0.0, 1.0, 11.5, 38.1)">
    <path d="M3.1 -31.1 Q3.95 -30.8 3.25 -30.25 L2.85 -30.2 2.6 -30.6 2.85 -31.05 3.1 -31.1 M3.8 -30.1 Q4.95 -30.1 4.6 -29.1 L4.3 -28.9 Q3.35 -29.0 3.35 -29.75 L3.55 -30.05 3.8 -30.1 M1.65 -13.15 L1.25 -13.1 1.0 -13.5 1.25 -13.95 1.5 -14.0 Q2.35 -13.7 1.65 -13.15 M24.7 2.2 Q24.7 1.9 24.95 1.75 L25.2 1.7 Q26.05 2.0 25.35 2.55 L24.95 2.6 24.7 2.2 M23.5 6.0 L23.25 5.7 23.05 5.25 Q23.05 4.85 23.35 4.65 L23.6 4.6 Q24.1 4.85 24.1 5.2 24.35 5.5 23.9 5.95 L23.5 6.0 M-0.65 -37.2 L-0.9 -37.6 -0.65 -38.05 -0.4 -38.1 Q0.45 -37.8 -0.25 -37.25 L-0.65 -37.2 M-1.75 -35.75 L-2.15 -35.7 -2.4 -36.1 -2.15 -36.55 -1.9 -36.6 Q-1.05 -36.3 -1.75 -35.75 M-10.35 -6.1 Q-10.5 -5.85 -10.8 -5.9 -11.45 -6.0 -11.25 -6.65 -11.55 -6.95 -11.45 -7.35 L-11.25 -7.65 -11.2 -7.65 -11.0 -7.7 Q-9.65 -7.35 -10.35 -6.1" fill="#ff0000" fill-rule="evenodd" stroke="none"/>
  </g>
</svg>
