<?xml version="1.0" encoding="UTF-8" standalone="no"?>
<svg xmlns:ffdec="https://www.free-decompiler.com/flash" xmlns:xlink="http://www.w3.org/1999/xlink" ffdec:objectType="shape" height="46.7px" width="38.85px" xmlns="http://www.w3.org/2000/svg">
  <g transform="matrix(1.0, 0.0, 0.0, 1.0, 12.2, 38.7)">
    <path d="M3.05 -31.25 L2.65 -31.2 Q2.4 -31.3 2.4 -31.6 L2.65 -32.05 2.9 -32.1 Q3.75 -31.8 3.05 -31.25 M4.0 -30.4 Q5.3 -30.25 5.0 -29.25 L4.7 -29.05 Q3.75 -29.15 3.6 -29.95 3.5 -30.25 3.85 -30.35 L4.0 -30.4 M1.65 -12.55 L1.25 -12.5 1.0 -12.9 1.25 -13.35 1.5 -13.4 Q2.35 -13.1 1.65 -12.55 M26.35 4.55 L25.95 4.6 25.7 4.2 Q25.7 3.9 25.95 3.75 L26.2 3.7 Q27.05 4.0 26.35 4.55 M23.9 6.9 Q24.8 7.35 24.0 7.95 L23.7 8.0 Q23.35 7.85 23.35 7.45 23.35 7.1 23.65 6.95 L23.7 6.95 23.9 6.9 M-0.55 -37.85 L-0.95 -37.8 -1.2 -38.2 -0.95 -38.65 -0.7 -38.7 Q0.15 -38.4 -0.55 -37.85 M-2.55 -35.95 L-2.95 -35.9 -3.2 -36.3 -2.95 -36.75 -2.7 -36.8 Q-1.85 -36.5 -2.55 -35.95 M-10.95 -4.8 L-11.15 -4.65 Q-11.7 -4.5 -11.8 -5.05 -12.3 -5.25 -12.15 -5.75 L-11.95 -6.05 -11.9 -6.05 -11.7 -6.1 Q-10.45 -6.0 -10.95 -4.8" fill="#ff0000" fill-rule="evenodd" stroke="none"/>
  </g>
</svg>
