<?xml version="1.0" encoding="UTF-8" standalone="no"?>
<svg xmlns:ffdec="https://www.free-decompiler.com/flash" xmlns:xlink="http://www.w3.org/1999/xlink" ffdec:objectType="shape" height="48.7px" width="40.25px" xmlns="http://www.w3.org/2000/svg">
  <g transform="matrix(1.0, 0.0, 0.0, 1.0, 12.8, 38.7)">
    <path d="M2.6 -32.4 Q3.45 -32.1 2.75 -31.55 L2.35 -31.5 2.1 -31.9 Q2.1 -32.2 2.35 -32.35 L2.6 -32.4 M4.4 -30.1 Q5.5 -29.8 5.1 -28.85 L4.8 -28.75 Q3.8 -29.0 4.05 -29.85 4.15 -30.1 4.4 -30.1 M1.65 -11.75 L1.25 -11.7 1.0 -12.1 1.25 -12.55 1.5 -12.6 Q2.35 -12.3 1.65 -11.75 M27.0 5.7 Q27.85 6.0 27.15 6.55 L26.75 6.6 Q26.5 6.5 26.5 6.2 26.5 5.9 26.75 5.75 L27.0 5.7 M24.0 9.1 Q24.85 9.4 24.15 9.95 L23.75 10.0 23.5 9.6 Q23.5 9.3 23.75 9.15 L24.0 9.1 M-0.75 -37.85 L-1.15 -37.8 -1.4 -38.2 -1.15 -38.65 -0.9 -38.7 Q-0.05 -38.4 -0.75 -37.85 M-3.05 -35.75 L-3.45 -35.7 -3.7 -36.1 -3.45 -36.55 -3.2 -36.6 Q-2.35 -36.3 -3.05 -35.75 M-11.4 -3.95 Q-11.45 -3.6 -11.8 -3.55 -12.6 -3.4 -12.75 -4.05 -12.85 -4.35 -12.55 -4.55 L-12.3 -4.6 Q-11.3 -4.8 -11.4 -3.95" fill="#ff0000" fill-rule="evenodd" stroke="none"/>
  </g>
</svg>
