<?xml version="1.0" encoding="UTF-8" standalone="no"?>
<svg xmlns:ffdec="https://www.free-decompiler.com/flash" xmlns:xlink="http://www.w3.org/1999/xlink" ffdec:objectType="shape" height="50.5px" width="37.6px" xmlns="http://www.w3.org/2000/svg">
  <g transform="matrix(1.0, 0.0, 0.0, 1.0, 13.15, 38.3)">
    <path d="M2.55 -31.55 L2.15 -31.5 1.9 -31.9 2.15 -32.35 2.4 -32.4 Q3.25 -32.1 2.55 -31.55 M4.9 -28.9 Q5.65 -28.5 5.25 -27.6 5.0 -27.0 4.5 -27.4 4.2 -27.65 4.3 -28.0 L4.5 -28.6 4.9 -28.9 M1.65 -10.85 L1.25 -10.8 1.0 -11.2 1.25 -11.65 1.5 -11.7 Q2.35 -11.4 1.65 -10.85 M24.15 12.15 L23.75 12.2 23.5 11.8 Q23.5 11.5 23.75 11.35 L24.0 11.3 Q24.85 11.6 24.15 12.15 M-0.85 -37.45 L-1.25 -37.4 -1.5 -37.8 -1.25 -38.25 -1.0 -38.3 Q-0.15 -38.0 -0.85 -37.45 M-3.45 -35.05 L-3.85 -35.0 -4.1 -35.4 -3.85 -35.85 -3.6 -35.9 Q-2.75 -35.6 -3.45 -35.05 M-12.2 -2.2 Q-13.0 -1.55 -13.15 -2.5 -13.2 -2.9 -12.85 -3.1 L-12.3 -3.3 Q-11.35 -2.9 -12.2 -2.2" fill="#ff0000" fill-rule="evenodd" stroke="none"/>
  </g>
</svg>
