<?xml version="1.0" encoding="UTF-8" standalone="no"?>
<svg xmlns:ffdec="https://www.free-decompiler.com/flash" xmlns:xlink="http://www.w3.org/1999/xlink" ffdec:objectType="shape" height="51.9px" width="38.35px" xmlns="http://www.w3.org/2000/svg">
  <g transform="matrix(1.0, 0.0, 0.0, 1.0, 13.8, 37.4)">
    <path d="M2.1 -32.1 Q2.95 -31.8 2.25 -31.25 L1.85 -31.2 Q1.6 -31.3 1.6 -31.6 L1.85 -32.05 2.1 -32.1 M4.9 -27.05 L5.1 -27.1 Q6.0 -26.7 5.25 -25.95 4.5 -25.25 4.25 -26.1 L4.35 -26.5 4.85 -27.05 4.9 -27.05 M1.65 -9.75 L1.25 -9.7 1.0 -10.1 1.25 -10.55 1.5 -10.6 Q2.35 -10.3 1.65 -9.75 M24.25 14.45 L23.85 14.5 Q23.6 14.4 23.6 14.1 23.6 13.8 23.85 13.65 L24.1 13.6 Q24.95 13.9 24.25 14.45 M-1.2 -37.4 Q-0.35 -37.1 -1.05 -36.55 L-1.45 -36.5 -1.7 -36.9 -1.45 -37.35 -1.2 -37.4 M-3.85 -33.95 L-4.25 -33.9 -4.5 -34.3 -4.25 -34.75 -4.0 -34.8 Q-3.15 -34.5 -3.85 -33.95 M-13.1 -0.3 L-13.6 -0.35 Q-14.0 -0.85 -13.5 -1.3 L-13.35 -1.45 -13.1 -1.5 Q-12.15 -1.0 -13.1 -0.3" fill="#ff0000" fill-rule="evenodd" stroke="none"/>
  </g>
</svg>
