<?xml version="1.0" encoding="UTF-8" standalone="no"?>
<svg xmlns:ffdec="https://www.free-decompiler.com/flash" xmlns:xlink="http://www.w3.org/1999/xlink" ffdec:objectType="shape" height="37.4px" width="19.7px" xmlns="http://www.w3.org/2000/svg">
  <g transform="matrix(1.0, 0.0, 0.0, 1.0, 14.1, 36.2)">
    <path d="M1.9 -31.2 Q2.75 -30.9 2.05 -30.35 L1.65 -30.3 Q1.4 -30.4 1.4 -30.7 L1.65 -31.15 1.9 -31.2 M4.8 -25.0 Q6.0 -25.05 5.45 -24.2 L5.2 -24.0 Q4.25 -23.6 4.05 -24.4 4.0 -24.7 4.25 -24.8 L4.8 -25.0 M1.65 -8.45 L1.25 -8.4 1.0 -8.8 1.25 -9.25 1.5 -9.3 Q2.35 -9.0 1.65 -8.45 M-1.25 -35.35 L-1.65 -35.3 -1.9 -35.7 -1.65 -36.15 -1.4 -36.2 Q-0.55 -35.9 -1.25 -35.35 M-4.25 -31.95 L-4.65 -31.9 -4.9 -32.3 -4.65 -32.75 -4.4 -32.8 Q-3.55 -32.5 -4.25 -31.95 M-13.45 1.15 L-13.85 1.2 -14.1 0.8 -13.85 0.35 -13.6 0.3 Q-12.75 0.6 -13.45 1.15" fill="#ff0000" fill-rule="evenodd" stroke="none"/>
  </g>
</svg>
