<?xml version="1.0" encoding="UTF-8" standalone="no"?>
<svg xmlns:ffdec="https://www.free-decompiler.com/flash" xmlns:xlink="http://www.w3.org/1999/xlink" ffdec:objectType="shape" height="8.75px" width="10.1px" xmlns="http://www.w3.org/2000/svg">
  <g transform="matrix(1.0, 0.0, 0.0, 1.0, 5.0, 4.35)">
    <path d="M0.4 -3.35 L-3.35 -2.9 Q-3.85 -2.55 -3.8 -0.35 L-3.7 2.25 Q-3.55 3.05 -2.55 3.25 L0.15 3.3 3.6 3.0 Q3.95 2.75 4.0 1.75 L4.05 1.4 5.1 1.4 Q5.05 3.3 4.6 3.75 3.9 4.4 0.6 4.4 -3.55 4.4 -4.3 3.7 -5.0 2.95 -5.0 0.15 -5.05 -3.1 -4.2 -3.75 -3.65 -4.25 -1.95 -4.3 L0.45 -4.35 Q3.8 -4.35 4.6 -3.65 5.0 -3.15 5.05 -1.5 L4.0 -1.5 4.0 -1.8 Q3.9 -2.8 3.3 -3.1 L0.4 -3.35" fill="#5a5859" fill-rule="evenodd" stroke="none"/>
  </g>
</svg>
