<?xml version="1.0" encoding="UTF-8" standalone="no"?>
<svg xmlns:ffdec="https://www.free-decompiler.com/flash" xmlns:xlink="http://www.w3.org/1999/xlink" ffdec:objectType="shape" height="37.7px" width="20.0px" xmlns="http://www.w3.org/2000/svg">
  <g transform="matrix(1.0, 0.0, 0.0, 1.0, 14.4, 34.7)">
    <path d="M1.8 -30.0 Q2.65 -29.7 1.95 -29.15 L1.55 -29.1 Q1.3 -29.2 1.3 -29.5 L1.55 -29.95 1.8 -30.0 M5.6 -21.6 L5.5 -21.45 Q4.9 -21.2 4.4 -21.75 L4.1 -22.1 Q3.85 -22.55 4.25 -22.85 L4.5 -22.9 Q5.65 -22.6 5.6 -21.6 M-1.5 -34.7 Q-0.65 -34.4 -1.35 -33.85 L-1.75 -33.8 -2.0 -34.2 -1.75 -34.65 -1.5 -34.7 M-4.45 -29.95 L-4.85 -29.9 -5.1 -30.3 -4.85 -30.75 -4.6 -30.8 Q-3.75 -30.5 -4.45 -29.95 M-13.75 2.95 L-14.15 3.0 -14.4 2.6 -14.15 2.15 -13.9 2.1 Q-13.05 2.4 -13.75 2.95" fill="#ff0000" fill-rule="evenodd" stroke="none"/>
  </g>
</svg>
