<?xml version="1.0" encoding="UTF-8" standalone="no"?>
<svg xmlns:ffdec="https://www.free-decompiler.com/flash" xmlns:xlink="http://www.w3.org/1999/xlink" ffdec:objectType="shape" height="37.8px" width="20.15px" xmlns="http://www.w3.org/2000/svg">
  <g transform="matrix(1.0, 0.0, 0.0, 1.0, 14.7, 32.8)">
    <path d="M1.7 -28.6 Q2.55 -28.3 1.85 -27.75 L1.45 -27.7 Q1.2 -27.8 1.2 -28.1 L1.45 -28.55 1.7 -28.6 M5.35 -18.1 L5.0 -17.95 Q4.3 -18.15 4.4 -19.0 L4.65 -19.35 4.7 -19.35 4.9 -19.4 Q5.7 -19.0 5.35 -18.1 M-1.5 -32.8 Q-0.65 -32.5 -1.35 -31.95 L-1.75 -31.9 -2.0 -32.3 -1.75 -32.75 -1.5 -32.8 M-4.55 -27.45 L-4.95 -27.4 -5.2 -27.8 -4.95 -28.25 -4.7 -28.3 Q-3.85 -28.0 -4.55 -27.45 M-14.05 4.95 L-14.45 5.0 -14.7 4.6 -14.45 4.15 -14.2 4.1 Q-13.35 4.4 -14.05 4.95" fill="#ff0000" fill-rule="evenodd" stroke="none"/>
  </g>
</svg>
