<?xml version="1.0" encoding="UTF-8" standalone="no"?>
<svg xmlns:ffdec="https://www.free-decompiler.com/flash" xmlns:xlink="http://www.w3.org/1999/xlink" ffdec:objectType="shape" height="15.45px" width="10.75px" xmlns="http://www.w3.org/2000/svg">
  <g transform="matrix(1.0, 0.0, 0.0, 1.0, 5.2, 30.1)">
    <path d="M1.7 -27.0 Q2.55 -26.7 1.85 -26.15 L1.45 -26.1 Q1.2 -26.2 1.2 -26.5 L1.45 -26.95 1.7 -27.0 M5.4 -14.95 Q5.05 -14.3 4.65 -14.95 4.45 -15.15 4.5 -15.5 4.5 -15.85 4.85 -16.05 L4.9 -16.05 5.1 -16.1 Q5.85 -15.8 5.4 -14.95 M-4.55 -25.05 L-4.95 -25.0 -5.2 -25.4 -4.95 -25.85 -4.7 -25.9 Q-3.85 -25.6 -4.55 -25.05 M-1.6 -30.1 Q-0.75 -29.8 -1.45 -29.25 L-1.85 -29.2 -2.1 -29.6 -1.85 -30.05 -1.6 -30.1" fill="#ff0000" fill-rule="evenodd" stroke="none"/>
  </g>
</svg>
