<?xml version="1.0" encoding="UTF-8" standalone="no"?>
<svg xmlns:ffdec="https://www.free-decompiler.com/flash" xmlns:xlink="http://www.w3.org/1999/xlink" ffdec:objectType="shape" height="14.9px" width="10.85px" xmlns="http://www.w3.org/2000/svg">
  <g transform="matrix(1.0, 0.0, 0.0, 1.0, 5.2, 26.7)">
    <path d="M1.5 -25.0 Q2.35 -24.7 1.65 -24.15 L1.25 -24.1 1.0 -24.5 1.25 -24.95 1.5 -25.0 M5.35 -11.85 L4.95 -11.8 4.7 -12.2 4.95 -12.65 5.2 -12.7 Q6.05 -12.4 5.35 -11.85 M-1.6 -26.7 Q-0.75 -26.4 -1.45 -25.85 L-1.85 -25.8 -2.1 -26.2 -1.85 -26.65 -1.6 -26.7 M-4.55 -22.05 L-4.95 -22.0 -5.2 -22.4 -4.95 -22.85 -4.7 -22.9 Q-3.85 -22.6 -4.55 -22.05" fill="#ff0000" fill-rule="evenodd" stroke="none"/>
  </g>
</svg>
