<?xml version="1.0" encoding="UTF-8" standalone="no"?>
<svg xmlns:ffdec="https://www.free-decompiler.com/flash" xmlns:xlink="http://www.w3.org/1999/xlink" ffdec:objectType="shape" height="8.75px" width="10.85px" xmlns="http://www.w3.org/2000/svg">
  <g transform="matrix(1.0, 0.0, 0.0, 1.0, 5.4, 4.35)">
    <path d="M5.4 -1.95 L5.45 0.0 Q5.45 2.95 4.8 3.7 4.1 4.4 0.95 4.4 L-3.2 4.3 Q-4.35 4.1 -4.75 3.6 -5.45 2.9 -5.4 0.0 -5.45 -3.1 -4.6 -3.75 -4.0 -4.25 -2.5 -4.3 L0.35 -4.35 Q4.0 -4.35 4.7 -3.65 5.2 -3.25 5.4 -1.95 M3.15 -3.15 L-0.5 -3.35 -3.8 -2.9 Q-4.2 -2.5 -4.2 -0.1 -4.25 2.45 -3.85 2.85 L-2.3 3.25 0.15 3.3 3.2 3.15 Q3.9 3.05 4.1 2.3 L4.1 -2.3 Q4.05 -3.1 3.15 -3.15" fill="#5a5859" fill-rule="evenodd" stroke="none"/>
  </g>
</svg>
