<?xml version="1.0" encoding="UTF-8" standalone="no"?>
<svg xmlns:ffdec="https://www.free-decompiler.com/flash" xmlns:xlink="http://www.w3.org/1999/xlink" ffdec:objectType="shape" height="15.55px" width="7.7px" xmlns="http://www.w3.org/2000/svg">
  <g transform="matrix(1.0, 0.0, 0.0, 1.0, 3.15, -31.6)">
    <path d="M0.95 33.1 L1.95 33.55 1.05 36.2 1.85 36.4 0.8 37.5 0.7 40.4 1.7 40.0 1.2 40.45 1.55 41.3 3.05 41.2 1.6 42.7 1.8 44.15 0.2 45.65 -0.2 44.05 -1.3 43.95 -1.15 41.55 -0.7 41.05 -1.65 36.95 0.95 33.1" fill="#ff9900" fill-rule="evenodd" stroke="none"/>
    <path d="M0.95 33.1 L-1.65 36.95 -0.7 41.05 -1.15 41.55 -1.3 43.95 -0.2 44.05 0.2 45.65 1.8 44.15 1.6 42.7 3.05 41.2 1.55 41.3 1.2 40.45 1.7 40.0 0.7 40.4 0.8 37.5 1.85 36.4 1.05 36.2 1.95 33.55 0.95 33.1 Z" fill="none" stroke="#ff5900" stroke-linecap="round" stroke-linejoin="round" stroke-opacity="0.5019608" stroke-width="3.0"/>
  </g>
</svg>
