<?xml version="1.0" encoding="UTF-8" standalone="no"?>
<svg xmlns:ffdec="https://www.free-decompiler.com/flash" xmlns:xlink="http://www.w3.org/1999/xlink" ffdec:objectType="shape" height="25.35px" width="9.85px" xmlns="http://www.w3.org/2000/svg">
  <g transform="matrix(1.0, 0.0, 0.0, 1.0, 5.2, -24.45)">
    <path d="M-1.95 44.5 L-3.55 45.4 -3.7 42.35 -1.3 38.45 -3.0 37.3 -1.35 32.1 -1.8 31.45 -0.9 30.45 -1.05 29.4 0.35 27.95 0.85 28.6 1.05 27.45 2.45 25.95 2.65 30.9 2.15 31.65 Q2.35 33.15 2.7 34.65 4.05 40.7 1.35 45.45 L1.35 46.85 -0.2 47.9 -0.3 47.3 -1.55 48.3 -1.95 44.5 -2.0 43.95 -2.25 41.7 -2.35 43.35 -2.0 43.95 -1.95 44.5 -1.75 44.4 -2.0 43.95 -1.75 44.4 -1.95 44.5" fill="#ff9900" fill-rule="evenodd" stroke="none"/>
    <path d="M-1.95 44.5 L-1.55 48.3 -0.3 47.3 -0.2 47.9 1.35 46.85 1.35 45.45 Q4.05 40.7 2.7 34.65 2.35 33.15 2.15 31.65 L2.65 30.9 2.45 25.95 1.05 27.45 0.85 28.6 0.35 27.95 -1.05 29.4 -0.9 30.45 -1.8 31.45 -1.35 32.1 -3.0 37.3 -1.3 38.45 -3.7 42.35 -3.55 45.4 -1.95 44.5 -2.0 43.95 -2.35 43.35 -2.25 41.7 -2.0 43.95 -1.75 44.4 -1.95 44.5 Z" fill="none" stroke="#ff5900" stroke-linecap="round" stroke-linejoin="round" stroke-opacity="0.5019608" stroke-width="3.0"/>
  </g>
</svg>
