<?xml version="1.0" encoding="UTF-8" standalone="no"?>
<svg xmlns:ffdec="https://www.free-decompiler.com/flash" xmlns:xlink="http://www.w3.org/1999/xlink" ffdec:objectType="shape" height="31.15px" width="16.4px" xmlns="http://www.w3.org/2000/svg">
  <g transform="matrix(1.0, 0.0, 0.0, 1.0, 8.3, -21.45)">
    <path d="M0.9 49.7 L-0.35 51.1 -2.05 48.35 -0.55 46.4 -0.7 45.45 -2.0 47.2 -1.35 43.9 -1.95 44.35 Q-2.1 45.95 -3.25 47.2 L-4.2 48.1 -4.8 48.35 -6.8 49.15 -3.85 47.05 -3.45 44.45 Q-2.75 43.7 -2.0 43.2 L-1.95 43.5 -1.8 43.9 -2.2 38.95 -0.15 36.75 -0.05 35.35 -3.7 30.95 -3.05 29.85 -3.55 27.5 -1.75 25.55 -2.2 24.45 -0.8 22.95 1.05 26.55 4.1 23.7 3.1 25.0 3.1 30.15 6.6 26.6 1.6 33.2 1.8 34.95 1.35 35.7 2.8 39.4 1.8 41.9 3.1 40.85 5.85 44.55 4.5 46.1 2.9 44.05 1.95 45.05 2.65 48.8 1.05 50.3 0.9 49.7 1.0 49.55 0.15 46.6 0.9 49.7 0.15 46.6 1.0 49.55 0.9 49.7" fill="#ff9900" fill-rule="evenodd" stroke="none"/>
    <path d="M0.9 49.7 L1.05 50.3 2.65 48.8 1.95 45.05 2.9 44.05 4.5 46.1 5.85 44.55 3.1 40.85 1.8 41.9 2.8 39.4 1.35 35.7 1.8 34.95 1.6 33.2 6.6 26.6 3.1 30.15 3.1 25.0 4.1 23.7 1.05 26.55 -0.8 22.95 -2.2 24.45 -1.75 25.55 -3.55 27.5 -3.05 29.85 -3.7 30.95 -0.05 35.35 -0.15 36.75 -2.2 38.95 -1.8 43.9 -1.95 43.5 -2.0 43.2 Q-2.75 43.7 -3.45 44.45 L-3.85 47.05 -6.8 49.15 -4.8 48.35 -4.2 48.1 -3.25 47.2 Q-2.1 45.95 -1.95 44.35 L-1.35 43.9 -2.0 47.2 -0.7 45.45 -0.55 46.4 -2.05 48.35 -0.35 51.1 0.9 49.7 0.15 46.6 1.0 49.55 0.9 49.7 Z" fill="none" stroke="#ff5900" stroke-linecap="round" stroke-linejoin="round" stroke-opacity="0.5019608" stroke-width="3.0"/>
  </g>
</svg>
