<?xml version="1.0" encoding="UTF-8" standalone="no"?>
<svg xmlns:ffdec="https://www.free-decompiler.com/flash" xmlns:xlink="http://www.w3.org/1999/xlink" ffdec:objectType="shape" height="38.25px" width="24.95px" xmlns="http://www.w3.org/2000/svg">
  <g transform="matrix(1.0, 0.0, 0.0, 1.0, 12.6, -16.75)">
    <path d="M0.5 24.6 L1.5 22.0 0.95 21.2 2.5 19.5 3.2 19.4 4.1 18.6 7.35 19.7 Q6.2 23.05 3.9 26.15 L1.65 29.1 1.6 27.15 0.8 27.65 1.2 25.9 -1.5 28.4 -2.0 27.4 -1.65 28.45 -2.4 29.6 -1.65 29.75 -2.95 31.2 -3.85 31.2 -5.3 28.2 -3.95 26.75 -5.05 23.0 -3.6 21.6 -3.45 20.3 -1.55 18.25 Q-1.9 21.8 0.5 24.6 L0.6 24.7 0.35 24.95 -0.45 25.85 -0.25 26.55 0.35 24.95 0.6 24.7 0.5 24.6 0.35 24.95 0.5 24.6 M-11.1 52.35 L-10.95 51.7 Q-8.95 47.75 -4.4 46.7 L-9.65 50.0 -9.7 50.75 -11.1 52.35 M2.1 37.35 L1.8 39.45 1.75 40.75 3.55 39.0 1.15 42.0 1.7 47.0 4.45 45.55 3.75 45.0 5.1 43.45 6.95 44.9 10.35 44.15 10.85 44.6 9.5 46.15 8.8 45.7 4.65 45.9 2.1 48.6 Q5.0 49.25 6.35 51.95 L5.0 53.5 Q3.25 51.0 0.55 50.2 L-0.25 48.85 -2.55 50.7 Q-3.75 51.55 -5.3 51.55 L-7.3 53.05 Q-5.05 49.7 -1.2 49.2 L-1.3 48.45 -2.3 49.2 -2.8 44.05 -1.35 42.7 -1.2 41.05 0.2 39.5 0.15 40.65 2.1 37.35 M0.6 35.6 L0.6 36.35 Q-0.4 41.3 -5.45 41.4 L-7.2 43.55 Q-6.05 39.15 -1.2 39.25 L-0.8 37.2 0.6 35.6 M7.55 26.3 L6.85 26.5 4.4 29.2 4.7 28.7 Q6.0 25.85 8.85 24.9 L7.55 26.3" fill="#ff9900" fill-rule="evenodd" stroke="none"/>
    <path d="M0.5 24.6 Q-1.9 21.8 -1.55 18.25 L-3.45 20.3 -3.6 21.6 -5.05 23.0 -3.95 26.75 -5.3 28.2 -3.85 31.2 -2.95 31.2 -1.65 29.75 -2.4 29.6 -1.65 28.45 -2.0 27.4 -1.5 28.4 1.2 25.9 0.8 27.65 1.6 27.15 1.65 29.1 3.9 26.15 Q6.2 23.05 7.35 19.7 L4.1 18.6 3.2 19.4 2.5 19.5 0.95 21.2 1.5 22.0 0.5 24.6 0.6 24.7 0.35 24.95 -0.25 26.55 -0.45 25.85 0.35 24.95 0.5 24.6 M7.55 26.3 L8.85 24.9 Q6.0 25.85 4.7 28.7 L4.4 29.2 6.85 26.5 7.55 26.3 M0.6 35.6 L-0.8 37.2 -1.2 39.25 Q-6.05 39.15 -7.2 43.55 L-5.45 41.4 Q-0.4 41.3 0.6 36.35 L0.6 35.6 M2.1 37.35 L0.15 40.65 0.2 39.5 -1.2 41.05 -1.35 42.7 -2.8 44.05 -2.3 49.2 -1.3 48.45 -1.2 49.2 Q-5.05 49.7 -7.3 53.05 L-5.3 51.55 Q-3.75 51.55 -2.55 50.7 L-0.25 48.85 0.55 50.2 Q3.25 51.0 5.0 53.5 L6.35 51.95 Q5.0 49.25 2.1 48.6 L4.65 45.9 8.8 45.7 9.5 46.15 10.85 44.6 10.35 44.15 6.95 44.9 5.1 43.45 3.75 45.0 4.45 45.55 1.7 47.0 1.15 42.0 3.55 39.0 1.75 40.75 1.8 39.45 2.1 37.35 M-11.1 52.35 L-9.7 50.75 -9.65 50.0 -4.4 46.7 Q-8.95 47.75 -10.95 51.7 L-11.1 52.35 Z" fill="none" stroke="#ff5900" stroke-linecap="round" stroke-linejoin="round" stroke-opacity="0.5019608" stroke-width="3.0"/>
  </g>
</svg>
