<?xml version="1.0" encoding="UTF-8" standalone="no"?>
<svg xmlns:ffdec="https://www.free-decompiler.com/flash" xmlns:xlink="http://www.w3.org/1999/xlink" ffdec:objectType="shape" height="49.2px" width="33.75px" xmlns="http://www.w3.org/2000/svg">
  <g transform="matrix(1.0, 0.0, 0.0, 1.0, 16.45, -10.5)">
    <path d="M-4.6 52.9 L-9.6 57.65 -3.7 50.95 -3.8 50.95 Q-8.05 52.7 -10.95 56.1 L-8.85 53.3 -10.3 53.8 -11.9 51.85 -13.4 51.8 -14.95 52.7 -12.3 50.35 -10.25 50.2 -7.65 51.15 -3.55 49.55 -6.2 44.1 -5.1 42.95 -5.4 42.25 -5.75 42.85 Q-7.05 44.65 -9.3 44.7 L-7.95 43.3 -2.05 38.85 -3.75 40.9 -1.7 46.3 -1.05 45.6 -0.95 46.65 0.05 45.05 -0.45 43.75 0.95 42.25 2.2 44.35 5.1 41.45 3.9 43.15 5.2 44.2 5.35 45.1 5.9 45.35 4.65 46.4 5.05 47.0 3.65 48.55 3.0 48.55 Q8.75 52.6 15.8 52.05 L14.45 53.45 10.15 53.5 11.05 55.45 9.45 57.05 7.25 53.25 5.95 53.6 5.75 55.55 3.7 57.55 Q4.8 56.25 3.8 54.65 2.7 53.0 1.3 51.75 L0.15 55.0 1.6 56.8 0.0 58.2 -1.4 56.6 -1.45 55.7 Q-0.65 54.9 -0.4 53.85 0.05 51.75 -1.15 51.05 L-4.0 55.5 -1.8 50.3 -3.45 51.9 -4.6 52.9 -3.45 51.9 -5.7 53.95 -4.6 52.9 M9.4 25.6 L7.2 26.3 11.1 22.85 Q11.05 24.3 9.4 25.6 M5.2 17.0 L6.15 16.0 6.05 14.2 7.6 12.65 6.95 19.6 3.6 23.75 3.4 25.65 1.85 26.85 2.05 24.95 2.8 24.05 1.65 25.25 Q3.15 22.1 2.75 18.55 2.5 16.4 1.45 14.7 L2.85 13.2 4.15 15.7 6.1 12.0 5.2 17.0 M-4.65 16.0 L-2.8 17.65 1.1 12.85 -1.8 19.2 0.3 23.25 -1.1 24.75 -1.95 23.85 -0.2 28.0 -1.6 29.5 -3.85 24.05 -4.75 24.85 -9.7 15.2 -8.15 13.5 -7.95 16.05 -6.9 17.3 -6.15 16.5 -5.8 17.3 -4.65 16.0 M10.2 44.2 L11.05 44.3 12.05 46.45 10.0 48.65 10.3 47.75 9.35 45.8 10.2 44.2" fill="#ff9900" fill-rule="evenodd" stroke="none"/>
    <path d="M5.2 17.0 L6.1 12.0 4.15 15.7 2.85 13.2 1.45 14.7 Q2.5 16.4 2.75 18.55 3.15 22.1 1.65 25.25 L2.8 24.05 2.05 24.95 1.85 26.85 3.4 25.65 3.6 23.75 6.95 19.6 7.6 12.65 6.05 14.2 6.15 16.0 5.2 17.0 M9.4 25.6 Q11.05 24.3 11.1 22.85 L7.2 26.3 9.4 25.6 M-3.45 51.9 L-1.8 50.3 -4.0 55.5 -1.15 51.05 Q0.05 51.75 -0.4 53.85 -0.65 54.9 -1.45 55.7 L-1.4 56.6 0.0 58.2 1.6 56.8 0.15 55.0 1.3 51.75 Q2.7 53.0 3.8 54.65 4.8 56.25 3.7 57.55 L5.75 55.55 5.95 53.6 7.25 53.25 9.45 57.05 11.05 55.45 10.15 53.5 14.45 53.45 15.8 52.05 Q8.75 52.6 3.0 48.55 L3.65 48.55 5.05 47.0 4.65 46.4 5.9 45.35 5.35 45.1 5.2 44.2 3.9 43.15 5.1 41.45 2.2 44.35 0.95 42.25 -0.45 43.75 0.05 45.05 -0.95 46.65 -1.05 45.6 -1.7 46.3 -3.75 40.9 -2.05 38.85 -7.95 43.3 -9.3 44.7 Q-7.05 44.65 -5.75 42.85 L-5.4 42.25 -5.1 42.95 -6.2 44.1 -3.55 49.55 -7.65 51.15 -10.25 50.2 -12.3 50.35 -14.95 52.7 -13.4 51.8 -11.9 51.85 -10.3 53.8 -8.85 53.3 -10.95 56.1 Q-8.05 52.7 -3.8 50.95 L-3.7 50.95 -9.6 57.65 -4.6 52.9 -3.45 51.9 -5.7 53.95 -4.6 52.9 M10.2 44.2 L9.35 45.8 10.3 47.75 10.0 48.65 12.05 46.45 11.05 44.3 10.2 44.2 M-4.65 16.0 L-5.8 17.3 -6.15 16.5 -6.9 17.3 -7.95 16.05 -8.15 13.5 -9.7 15.2 -4.75 24.85 -3.85 24.05 -1.6 29.5 -0.2 28.0 -1.95 23.85 -1.1 24.75 0.3 23.25 -1.8 19.2 1.1 12.85 -2.8 17.65 -4.65 16.0 Z" fill="none" stroke="#ff5900" stroke-linecap="round" stroke-linejoin="round" stroke-opacity="0.5019608" stroke-width="3.0"/>
  </g>
</svg>
