<?xml version="1.0" encoding="UTF-8" standalone="no"?>
<svg xmlns:ffdec="https://www.free-decompiler.com/flash" xmlns:xlink="http://www.w3.org/1999/xlink" ffdec:objectType="shape" height="70.9px" width="26.75px" xmlns="http://www.w3.org/2000/svg">
  <g transform="matrix(1.0, 0.0, 0.0, 1.0, 13.35, -5.15)">
    <path d="M5.95 41.65 L8.7 36.4 11.9 23.6 M-11.85 22.6 L-10.05 36.1 -6.15 42.25" fill="none" stroke="#ff0000" stroke-linecap="round" stroke-linejoin="round" stroke-opacity="0.2" stroke-width="3.0"/>
    <path d="M6.15 13.9 L7.3 6.65 M-7.95 6.65 L-6.35 16.45" fill="none" stroke="#ff0000" stroke-linecap="round" stroke-linejoin="round" stroke-opacity="0.2" stroke-width="3.0"/>
    <path d="M9.4 53.35 Q13.3 57.25 13.3 62.75 13.3 68.25 9.4 72.15 5.5 76.05 0.0 76.05 -5.5 76.05 -9.4 72.15 -13.3 68.25 -13.25 62.75 -13.3 57.25 -9.4 53.35 -7.25 51.2 -4.55 50.25 L-2.8 50.6 7.65 51.85 9.4 53.35" fill="#ff0000" fill-opacity="0.16078432" fill-rule="evenodd" stroke="none"/>
  </g>
</svg>
