<?xml version="1.0" encoding="UTF-8" standalone="no"?>
<svg xmlns:ffdec="https://www.free-decompiler.com/flash" xmlns:xlink="http://www.w3.org/1999/xlink" ffdec:objectType="shape" height="62.95px" width="41.85px" xmlns="http://www.w3.org/2000/svg">
  <g transform="matrix(1.0, 0.0, 0.0, 1.0, 20.7, -3.5)">
    <path d="M19.65 50.0 L18.75 51.15 Q14.75 54.55 9.55 52.9 L11.95 55.15 14.55 60.55 13.55 61.6 Q13.75 63.9 11.7 64.95 12.25 56.35 4.85 52.25 L7.3 56.8 6.05 58.85 6.05 59.85 6.95 61.2 5.65 62.6 Q4.55 62.05 4.7 60.6 4.9 59.05 5.8 57.65 L1.4 52.35 Q0.6 53.3 0.55 54.5 0.5 56.85 2.55 58.35 L2.55 59.75 Q2.25 62.8 -0.7 63.8 0.65 63.15 0.25 61.8 -1.1 57.4 -1.55 52.45 -3.5 56.0 -3.05 60.2 L-4.35 61.6 Q-5.55 57.15 -2.9 52.8 L-6.3 57.25 -5.15 52.75 -6.1 53.55 -9.7 61.3 -8.95 58.25 -9.75 58.35 -10.55 56.6 -12.05 60.7 -12.1 61.3 -13.7 62.8 -13.2 58.3 -9.8 53.8 -9.9 54.0 -8.7 52.7 -16.65 51.25 Q-17.05 54.05 -19.2 55.45 -18.4 51.85 -15.65 49.6 L-8.0 51.1 -1.5 48.65 -1.2 49.9 -0.2 50.4 Q0.5 49.6 0.95 50.8 L1.6 50.1 2.65 50.6 3.1 50.1 8.95 51.6 Q8.4 53.05 10.1 51.1 15.85 52.95 19.65 50.0 M8.2 48.2 L9.25 46.95 11.6 46.7 9.65 48.55 8.2 48.2 M8.4 41.2 L9.05 41.3 7.25 44.8 8.1 46.8 6.5 48.1 5.35 46.25 4.0 48.2 2.45 46.2 2.55 42.85 7.65 36.2 7.0 39.95 10.2 35.35 7.35 40.8 7.95 40.7 8.4 41.2 M9.8 23.45 L9.55 22.9 Q10.85 20.35 11.45 21.95 L9.8 23.45 M6.35 19.65 L3.65 23.55 2.05 25.05 Q3.1 21.5 6.35 19.65 M1.85 9.0 L1.35 11.75 3.55 14.95 2.2 16.35 0.1 14.2 -1.2 15.3 -0.55 9.15 0.85 7.6 1.85 9.0 M10.35 6.9 L11.1 6.5 Q7.5 10.1 7.9 15.45 L4.2 18.45 4.95 17.3 4.85 15.1 4.1 15.65 Q2.75 10.55 6.45 8.0 L5.85 10.55 10.8 5.2 10.3 6.5 11.95 5.0 10.45 6.75 10.35 6.9 M-6.6 9.95 L-5.55 8.75 -3.45 16.2 -4.0 16.8 -1.45 21.1 -2.9 22.55 -0.2 25.25 -1.6 26.75 -5.75 23.5 -4.4 22.0 -3.15 22.4 -5.0 19.2 -5.95 19.95 -7.9 16.55 -8.55 16.95 -8.95 15.65 -9.7 15.85 -9.85 15.6 -12.95 12.95 -11.55 11.5 -9.5 12.2 -8.35 10.95 -9.45 7.5 -8.05 6.0 -6.6 9.95 M-9.2 36.8 L-7.8 35.25 -7.45 38.0 -6.15 38.8 -5.7 35.2 -4.3 33.75 -2.2 44.3 -3.8 45.8 -4.0 45.15 -5.0 46.25 -7.1 43.35 -8.6 44.15 -12.85 43.2 -11.4 41.7 -12.5 41.35 -12.95 37.6 -11.55 36.1 -11.15 39.7 -6.3 41.55 -9.0 39.55 -9.2 36.8" fill="#ff9900" fill-rule="evenodd" stroke="none"/>
    <path d="M-6.6 9.95 L-8.05 6.0 -9.45 7.5 -8.35 10.95 -9.5 12.2 -11.55 11.5 -12.95 12.95 -9.85 15.6 -9.7 15.85 -8.95 15.65 -8.55 16.95 -7.9 16.55 -5.95 19.95 -5.0 19.2 -3.15 22.4 -4.4 22.0 -5.75 23.5 -1.6 26.75 -0.2 25.25 -2.9 22.55 -1.45 21.1 -4.0 16.8 -3.45 16.2 -5.55 8.75 -6.6 9.95" fill="none" stroke="#ff5900" stroke-linecap="round" stroke-linejoin="round" stroke-opacity="0.5019608" stroke-width="3.0"/>
    <path d="M10.35 6.9 L10.45 6.75 11.95 5.0 10.3 6.5 10.8 5.2 5.85 10.55 6.45 8.0 Q2.75 10.55 4.1 15.65 L4.85 15.1 4.95 17.3 4.2 18.45 7.9 15.45 Q7.5 10.1 11.1 6.5 L10.35 6.9 M1.85 9.0 L0.85 7.6 -0.55 9.15 -1.2 15.3 0.1 14.2 2.2 16.35 3.55 14.95 1.35 11.75 1.85 9.0 M6.35 19.65 Q3.1 21.5 2.05 25.05 L3.65 23.55 6.35 19.65 M9.8 23.45 L11.45 21.95 Q10.85 20.35 9.55 22.9 L9.8 23.45 M8.4 41.2 L7.95 40.7 7.35 40.8 10.2 35.35 7.0 39.95 7.65 36.2 2.55 42.85 2.45 46.2 4.0 48.2 5.35 46.25 6.5 48.1 8.1 46.8 7.25 44.8 9.05 41.3 8.4 41.2 M8.2 48.2 L9.65 48.55 11.6 46.7 9.25 46.95 8.2 48.2 M19.65 50.0 Q15.85 52.95 10.1 51.1 8.4 53.05 8.95 51.6 L3.1 50.1 2.65 50.6 1.6 50.1 0.95 50.8 Q0.5 49.6 -0.2 50.4 L-1.2 49.9 -1.5 48.65 -8.0 51.1 -15.65 49.6 Q-18.4 51.85 -19.2 55.45 -17.05 54.05 -16.65 51.25 L-8.7 52.7 -9.9 54.0 -9.8 53.8 -13.2 58.3 -13.7 62.8 -12.1 61.3 -12.05 60.7 -10.55 56.6 -9.75 58.35 -8.95 58.25 -9.7 61.3 -6.1 53.55 -5.15 52.75 -6.3 57.25 -2.9 52.8 Q-5.55 57.15 -4.35 61.6 L-3.05 60.2 Q-3.5 56.0 -1.55 52.45 -1.1 57.4 0.25 61.8 0.65 63.15 -0.7 63.8 2.25 62.8 2.55 59.75 L2.55 58.35 Q0.5 56.85 0.55 54.5 0.6 53.3 1.4 52.35 L5.8 57.65 Q4.9 59.05 4.7 60.6 4.55 62.05 5.65 62.6 L6.95 61.2 6.05 59.85 6.05 58.85 7.3 56.8 4.85 52.25 Q12.25 56.35 11.7 64.95 13.75 63.9 13.55 61.6 L14.55 60.55 11.95 55.15 9.55 52.9 Q14.75 54.55 18.75 51.15 L19.65 50.0 M-9.2 36.8 L-9.0 39.55 -6.3 41.55 -11.15 39.7 -11.55 36.1 -12.95 37.6 -12.5 41.35 -11.4 41.7 -12.85 43.2 -8.6 44.15 -7.1 43.35 -5.0 46.25 -4.0 45.15 -3.8 45.8 -2.2 44.3 -4.3 33.75 -5.7 35.2 -6.15 38.8 -7.45 38.0 -7.8 35.25 -9.2 36.8 Z" fill="none" stroke="#ff5900" stroke-linecap="round" stroke-linejoin="round" stroke-opacity="0.5019608" stroke-width="3.0"/>
  </g>
</svg>
