<?xml version="1.0" encoding="UTF-8" standalone="no"?>
<svg xmlns:ffdec="https://www.free-decompiler.com/flash" xmlns:xlink="http://www.w3.org/1999/xlink" ffdec:objectType="shape" height="54.95px" width="26.75px" xmlns="http://www.w3.org/2000/svg">
  <g transform="matrix(1.0, 0.0, 0.0, 1.0, 13.35, -21.1)">
    <path d="M7.75 38.25 L8.7 36.4 11.9 23.6 M-11.85 22.6 L-10.05 36.1 -8.05 39.25" fill="none" stroke="#ff0000" stroke-linecap="round" stroke-linejoin="round" stroke-opacity="0.2" stroke-width="3.0"/>
    <path d="M1.8 54.25 L10.0 54.75 10.55 54.65 Q13.3 58.15 13.3 62.75 13.3 68.25 9.4 72.15 5.5 76.05 0.0 76.05 -5.5 76.05 -9.4 72.15 -13.3 68.25 -13.25 62.75 -13.3 59.75 -12.15 57.25 L-11.85 57.05 -10.15 55.6 -9.9 55.8 Q-9.2 56.45 -8.3 56.1 L-7.05 55.45 -6.25 54.95 Q-6.0 54.75 -6.0 54.95 L-6.0 55.45 -5.4 56.5 Q-4.1 57.9 -2.65 56.3 L-1.35 54.8 -0.7 53.9 1.8 54.25" fill="#ff0000" fill-opacity="0.16078432" fill-rule="evenodd" stroke="none"/>
  </g>
</svg>
