<?xml version="1.0" encoding="UTF-8" standalone="no"?>
<svg xmlns:ffdec="https://www.free-decompiler.com/flash" xmlns:xlink="http://www.w3.org/1999/xlink" ffdec:objectType="shape" height="78.2px" width="46.05px" xmlns="http://www.w3.org/2000/svg">
  <g transform="matrix(1.0, 0.0, 0.0, 1.0, 21.95, 4.25)">
    <path d="M11.3 -1.25 L12.7 -2.75 12.5 0.15 14.8 1.5 5.8 11.85 Q6.3 6.8 4.2 2.3 L5.6 0.75 6.85 3.5 8.1 2.15 8.5 2.85 9.45 1.75 8.45 5.3 9.75 3.3 Q11.45 1.25 11.3 -1.25 M13.05 2.75 L11.4 1.8 8.85 7.55 13.05 2.75 M-15.3 50.1 L-17.0 51.6 -16.95 52.9 Q-16.5 57.5 -20.45 59.2 L-18.55 57.45 Q-18.95 51.05 -15.3 50.1 M-9.8 29.35 L-7.4 30.75 -7.15 36.7 -6.45 37.1 -5.4 39.4 -6.05 35.65 Q-4.5 34.05 -5.35 32.05 -5.8 31.1 -6.65 30.4 L-5.3 29.0 Q-2.65 30.35 -3.75 32.9 L-4.45 34.1 -3.7 38.5 -6.15 40.6 -4.8 41.75 -6.45 43.45 -6.85 42.5 -9.05 41.2 -10.85 43.05 -12.1 43.25 -13.6 45.0 -11.45 41.8 Q-12.25 40.9 -12.35 39.85 L-12.3 38.05 -16.2 35.3 -14.3 33.55 -11.05 35.9 -9.4 33.75 -8.9 37.75 -8.9 32.6 -11.15 30.85 -9.8 29.35 M-2.3 22.85 L-3.55 24.2 -6.05 24.65 -7.7 26.7 -7.45 25.95 Q-5.85 22.3 -2.3 22.85 M-9.2 1.75 L-7.8 0.25 -6.85 5.05 -2.8 -2.25 -5.65 8.05 -4.65 11.9 -5.0 12.55 -1.9 15.6 -3.45 17.1 -6.05 14.7 -6.1 15.65 -4.55 17.35 -6.5 18.6 -6.8 18.4 -7.25 17.7 -7.5 16.85 -7.5 13.4 -8.75 14.7 -11.65 11.95 -12.85 13.2 -16.55 12.65 -17.7 13.6 -15.15 11.0 -12.45 11.35 -11.15 9.9 -7.65 12.8 -12.15 8.0 -10.8 6.5 -9.25 7.5 -11.2 4.65 -9.8 3.15 -8.8 4.45 -9.2 1.75 M0.9 55.7 L0.85 57.55 1.85 58.8 0.9 55.7 M15.05 57.8 L13.55 59.45 13.95 62.05 18.35 66.1 17.05 67.55 13.65 65.65 Q12.7 69.95 9.3 72.45 11.7 70.6 9.75 70.6 L9.75 70.45 Q14.75 64.45 10.3 58.3 L10.45 57.8 9.35 56.7 9.55 59.55 11.25 61.15 9.9 62.55 7.95 61.05 7.3 57.35 6.8 57.95 Q6.45 62.7 10.35 65.55 L8.8 67.15 8.2 66.1 Q3.85 62.85 5.25 57.15 L3.25 55.3 3.4 57.3 4.1 58.1 2.45 59.55 Q1.75 58.9 2.15 60.95 -2.05 64.65 2.2 67.7 L0.9 69.05 Q-3.5 66.4 0.5 62.3 L0.6 61.7 -2.45 56.15 -2.85 58.15 -3.3 58.75 Q-0.3 64.2 -3.8 66.45 -3.3 62.7 -5.1 59.3 L-4.7 64.1 -6.1 65.6 -6.8 57.8 -7.9 59.75 -9.45 64.75 -11.0 66.35 -10.2 57.75 -11.05 57.1 -11.45 62.3 -12.05 63.0 -11.15 66.7 -9.2 68.5 -10.6 70.05 -12.7 68.2 -13.65 64.3 -16.35 66.55 -9.85 54.6 -9.45 54.7 -9.45 54.75 -9.05 54.5 -8.6 56.3 -5.85 52.85 -5.15 56.0 -3.9 54.5 -4.8 57.6 -2.75 54.8 -2.15 54.75 0.85 51.6 1.55 52.05 2.55 51.8 5.8 54.65 7.1 53.1 15.05 57.8 M20.55 44.35 L22.55 42.6 Q23.1 49.4 16.8 51.8 L18.35 50.7 Q22.0 48.55 20.55 44.35 M11.55 49.25 L12.2 48.75 Q9.5 52.4 4.95 52.2 L6.3 50.8 Q9.1 50.85 11.55 49.25 M8.7 47.6 L9.6 48.55 8.3 49.95 5.55 47.25 6.95 45.6 8.45 46.95 8.95 46.45 9.8 46.45 8.7 47.6 M5.2 33.25 L6.6 31.85 7.05 34.45 9.2 30.95 8.35 36.1 8.85 35.8 8.9 36.0 11.7 31.45 Q11.6 36.75 8.4 40.6 L8.1 40.9 9.5 40.1 Q11.5 38.85 13.1 36.6 L18.05 37.45 16.65 38.95 11.8 38.4 9.85 40.75 Q8.2 42.25 6.05 42.3 L3.3 45.05 6.75 38.25 5.3 39.55 5.2 33.25 M5.45 20.15 L7.35 19.95 8.9 22.4 7.3 23.35 5.8 21.5 3.7 21.65 5.45 20.15 M1.35 7.65 L0.0 9.15 -2.7 5.75 -1.3 4.25 1.35 7.65 M1.35 9.05 L1.3 10.55 -0.1 12.15 Q-0.3 7.6 4.95 5.65 L1.35 9.05" fill="#ff9900" fill-rule="evenodd" stroke="none"/>
    <path d="M11.3 -1.25 Q11.45 1.25 9.75 3.3 L8.45 5.3 9.45 1.75 8.5 2.85 8.1 2.15 6.85 3.5 5.6 0.75 4.2 2.3 Q6.3 6.8 5.8 11.85 L14.8 1.5 12.5 0.15 12.7 -2.75 11.3 -1.25 M1.35 9.05 L4.95 5.65 Q-0.3 7.6 -0.1 12.15 L1.3 10.55 1.35 9.05 M1.35 7.65 L-1.3 4.25 -2.7 5.75 0.0 9.15 1.35 7.65 M5.45 20.15 L3.7 21.65 5.8 21.5 7.3 23.35 8.9 22.4 7.35 19.95 5.45 20.15 M5.2 33.25 L5.3 39.55 6.75 38.25 3.3 45.05 6.05 42.3 Q8.2 42.25 9.85 40.75 L11.8 38.4 16.65 38.95 18.05 37.45 13.1 36.6 Q11.5 38.85 9.5 40.1 L8.1 40.9 8.4 40.6 Q11.6 36.75 11.7 31.45 L8.9 36.0 8.85 35.8 8.35 36.1 9.2 30.95 7.05 34.45 6.6 31.85 5.2 33.25 M8.7 47.6 L9.8 46.45 8.95 46.45 8.45 46.95 6.95 45.6 5.55 47.25 8.3 49.95 9.6 48.55 8.7 47.6 M11.55 49.25 Q9.1 50.85 6.3 50.8 L4.95 52.2 Q9.5 52.4 12.2 48.75 L11.55 49.25 M20.55 44.35 Q22.0 48.55 18.35 50.7 L16.8 51.8 Q23.1 49.4 22.55 42.6 L20.55 44.35 M15.05 57.8 L7.1 53.1 5.8 54.65 2.55 51.8 1.55 52.05 0.85 51.6 -2.15 54.75 -2.75 54.8 -4.8 57.6 -3.9 54.5 -5.15 56.0 -5.85 52.85 -8.6 56.3 -9.05 54.5 -9.45 54.75 -9.45 54.7 -9.85 54.6 -16.35 66.55 -13.65 64.3 -12.7 68.2 -10.6 70.05 -9.2 68.5 -11.15 66.7 -12.05 63.0 -11.45 62.3 -11.05 57.1 -10.2 57.75 -11.0 66.35 -9.45 64.75 -7.9 59.75 -6.8 57.8 -6.1 65.6 -4.7 64.1 -5.1 59.3 Q-3.3 62.7 -3.8 66.45 -0.3 64.2 -3.3 58.75 L-2.85 58.15 -2.45 56.15 0.6 61.7 0.5 62.3 Q-3.5 66.4 0.9 69.05 L2.2 67.7 Q-2.05 64.65 2.15 60.95 1.75 58.9 2.45 59.55 L4.1 58.1 3.4 57.3 3.25 55.3 5.25 57.15 Q3.85 62.85 8.2 66.1 L8.8 67.15 10.35 65.55 Q6.45 62.7 6.8 57.95 L7.3 57.35 7.95 61.05 9.9 62.55 11.25 61.15 9.55 59.55 9.35 56.7 10.45 57.8 10.3 58.3 Q14.75 64.45 9.75 70.45 L9.75 70.6 Q11.7 70.6 9.3 72.45 12.7 69.95 13.65 65.65 L17.05 67.55 18.35 66.1 13.95 62.05 13.55 59.45 15.05 57.8 M0.9 55.7 L1.85 58.8 0.85 57.55 0.9 55.7 M-9.2 1.75 L-8.8 4.45 -9.8 3.15 -11.2 4.65 -9.25 7.5 -10.8 6.5 -12.15 8.0 -7.65 12.8 -11.15 9.9 -12.45 11.35 -15.15 11.0 -17.7 13.6 -16.55 12.65 -12.85 13.2 -11.65 11.95 -8.75 14.7 -7.5 13.4 -7.5 16.85 -7.25 17.7 -6.8 18.4 -6.5 18.6 -4.55 17.35 -6.1 15.65 -6.05 14.7 -3.45 17.1 -1.9 15.6 -5.0 12.55 -4.65 11.9 -5.65 8.05 -2.8 -2.25 -6.85 5.05 -7.8 0.25 -9.2 1.75 M-2.3 22.85 Q-5.85 22.3 -7.45 25.95 L-7.7 26.7 -6.05 24.65 -3.55 24.2 -2.3 22.85 M-9.8 29.35 L-11.15 30.85 -8.9 32.6 -8.9 37.75 -9.4 33.75 -11.05 35.9 -14.3 33.55 -16.2 35.3 -12.3 38.05 -12.35 39.85 Q-12.25 40.9 -11.45 41.8 L-13.6 45.0 -12.1 43.25 -10.85 43.05 -9.05 41.2 -6.85 42.5 -6.45 43.45 -4.8 41.75 -6.15 40.6 -3.7 38.5 -4.45 34.1 -3.75 32.9 Q-2.65 30.35 -5.3 29.0 L-6.65 30.4 Q-5.8 31.1 -5.35 32.05 -4.5 34.05 -6.05 35.65 L-5.4 39.4 -6.45 37.1 -7.15 36.7 -7.4 30.75 -9.8 29.35 M-15.3 50.1 Q-18.95 51.05 -18.55 57.45 L-20.45 59.2 Q-16.5 57.5 -16.95 52.9 L-17.0 51.6 -15.3 50.1 Z" fill="none" stroke="#ff5900" stroke-linecap="round" stroke-linejoin="round" stroke-opacity="0.5019608" stroke-width="3.0"/>
  </g>
</svg>
