<?xml version="1.0" encoding="UTF-8" standalone="no"?>
<svg xmlns:ffdec="https://www.free-decompiler.com/flash" xmlns:xlink="http://www.w3.org/1999/xlink" ffdec:objectType="shape" height="54.95px" width="26.75px" xmlns="http://www.w3.org/2000/svg">
  <g transform="matrix(1.0, 0.0, 0.0, 1.0, 13.35, -21.1)">
    <path d="M9.65 32.6 L11.9 23.6 M-11.85 22.6 L-10.5 32.8" fill="none" stroke="#ff0000" stroke-linecap="round" stroke-linejoin="round" stroke-opacity="0.2" stroke-width="3.0"/>
    <path d="M12.85 60.8 L13.2 60.95 13.3 62.75 Q13.3 68.25 9.4 72.15 5.5 76.05 0.0 76.05 -5.5 76.05 -9.4 72.15 -13.3 68.25 -13.25 62.75 L-13.1 60.5 Q-11.55 60.9 -10.15 59.45 L-10.0 59.75 Q-7.95 61.65 -6.35 59.2 L-6.25 59.25 Q-5.25 60.1 -3.9 60.1 L-3.0 60.75 -2.1 60.65 3.0 57.55 Q3.85 58.1 4.55 58.85 6.9 61.4 8.9 58.85 10.85 59.9 12.85 60.8" fill="#ff0000" fill-opacity="0.16078432" fill-rule="evenodd" stroke="none"/>
  </g>
</svg>
