<?xml version="1.0" encoding="UTF-8" standalone="no"?>
<svg xmlns:ffdec="https://www.free-decompiler.com/flash" xmlns:xlink="http://www.w3.org/1999/xlink" ffdec:objectType="shape" height="94.0px" width="55.4px" xmlns="http://www.w3.org/2000/svg">
  <g transform="matrix(1.0, 0.0, 0.0, 1.0, 26.95, 11.15)">
    <path d="M6.85 33.6 L5.65 34.85 3.55 31.25 Q4.55 29.0 7.05 28.55 L8.7 27.0 8.9 29.95 9.25 29.2 Q10.55 26.3 11.05 27.5 L9.6 30.75 11.7 28.95 11.55 29.95 13.2 28.35 13.8 28.4 Q10.65 30.9 10.9 35.05 L7.9 39.15 7.7 36.05 6.7 37.05 6.85 33.6 6.9 33.0 7.05 28.75 5.45 30.25 6.9 33.0 6.85 33.6 7.05 33.35 6.9 33.0 7.05 33.35 6.85 33.6 M7.25 23.35 L7.05 22.8 8.7 21.4 Q9.2 23.05 7.4 24.55 L7.85 25.15 5.95 26.35 7.25 23.35 M3.6 7.85 L2.95 7.7 5.35 6.3 5.85 7.2 Q6.85 11.0 2.45 11.7 L4.8 9.95 3.6 7.85 M7.1 3.45 L5.75 5.0 3.05 0.6 1.55 1.45 3.85 -1.0 Q6.8 0.05 7.1 3.45 M11.4 -0.7 L11.5 -2.3 Q11.45 -5.25 9.8 -7.65 L11.5 -9.65 Q14.2 -4.6 12.15 0.3 L14.6 0.85 14.5 1.95 12.3 3.95 13.05 3.0 11.05 1.7 10.35 2.15 9.7 1.2 11.4 -0.7 M8.95 -1.8 L10.35 -3.5 8.8 2.9 7.4 4.5 8.95 -1.8 M2.45 55.6 L5.3 59.0 7.0 59.4 7.2 58.9 7.05 58.45 8.45 57.0 14.35 61.1 13.15 62.45 Q13.5 68.65 9.65 74.1 L11.6 77.55 11.2 78.05 12.8 80.0 11.1 81.35 8.9 78.3 6.8 76.7 7.7 73.3 6.3 72.1 Q11.35 65.75 3.6 60.5 L6.05 64.55 4.45 65.95 1.8 62.4 1.75 61.1 0.7 62.7 2.3 70.45 -1.2 72.95 0.7 71.2 -0.9 64.15 -0.35 63.4 Q0.3 62.25 -0.5 63.25 L-1.2 62.2 -1.7 62.75 -2.95 67.3 -1.15 70.75 -2.5 72.2 Q-4.6 71.05 -4.55 68.75 L-4.35 68.45 Q-1.55 64.5 -5.35 61.65 L-4.35 66.45 -4.95 68.25 -6.45 69.45 -5.95 67.95 -7.3 62.85 -7.65 63.2 -7.75 63.3 -8.0 63.2 -8.5 62.95 -8.6 62.8 Q-10.3 65.9 -7.4 68.7 L-8.95 70.2 -10.0 68.65 -10.1 69.6 -7.45 71.3 -8.85 72.75 -11.65 71.1 -13.15 62.6 -13.75 63.1 Q-18.15 66.1 -16.2 70.45 L-17.8 71.8 Q-17.85 65.1 -12.4 59.35 L-12.45 60.6 -9.9 57.5 -8.4 60.25 -5.65 57.6 -5.25 58.45 Q-4.4 60.55 -2.05 60.3 L2.45 55.6 M7.35 60.1 L6.5 60.95 9.8 64.95 10.2 63.25 7.35 60.1 M22.7 67.1 L23.05 69.55 21.45 71.05 Q21.65 69.5 20.3 68.7 L14.1 64.65 15.45 63.25 22.7 67.1 M26.95 40.9 L25.7 42.2 22.6 42.6 22.55 43.8 20.95 45.3 23.2 41.1 26.95 40.9 M13.7 37.8 L15.05 36.4 20.55 37.4 22.0 36.25 21.9 36.5 Q18.7 40.95 13.7 37.8 M7.85 49.1 L9.2 47.6 11.45 47.8 10.35 46.95 11.7 45.5 12.85 46.05 Q13.2 46.85 12.8 47.85 11.8 50.25 9.2 50.8 L10.5 49.45 7.85 49.1 M7.9 70.8 L9.0 71.65 11.05 66.65 10.25 65.8 7.9 70.8 M-5.8 14.0 L-4.15 12.55 0.35 12.45 -1.0 13.9 -5.8 14.0 M-17.7 16.7 L-18.0 15.95 Q-18.9 12.8 -15.8 11.25 L-16.9 12.75 -16.15 15.2 -17.7 16.7 M-2.4 4.5 L-0.9 4.55 -2.3 6.05 -3.5 6.25 -3.5 7.45 -5.05 8.85 -4.9 7.6 Q-4.35 5.65 -2.4 4.5 M-6.3 -5.25 L-7.2 -3.35 -7.45 2.0 -8.85 3.65 Q-10.55 -1.6 -6.3 -5.25 M-13.2 -1.05 L-11.8 -2.6 -9.2 3.35 -10.55 5.05 -12.55 2.0 Q-12.95 5.65 -9.45 7.5 L-10.6 8.75 -10.4 10.5 -11.95 11.95 -12.15 9.15 -11.6 8.55 -12.2 8.05 Q-15.3 5.0 -12.7 1.55 L-13.2 -1.05 M-7.8 27.0 L-7.8 25.95 -6.4 24.4 -6.2 25.95 -9.55 28.6 -7.8 27.0 M-20.15 57.3 L-18.65 56.85 -18.55 56.1 -17.15 54.6 Q-17.6 58.0 -20.85 58.75 L-21.7 58.8 -25.45 56.1 -23.75 54.05 -20.15 57.3 M-12.25 43.8 Q-12.25 45.1 -13.6 45.8 L-13.7 44.5 -12.3 43.0 -12.25 43.8 M-12.7 34.95 L-14.1 36.5 -16.6 35.05 -18.5 37.2 -15.8 33.5 -12.7 34.95 M-5.9 28.25 L-3.75 31.25 -5.1 32.8 -7.55 29.25 -4.3 26.75 -5.9 28.25 M-9.9 26.9 Q-10.1 29.6 -7.65 30.55 L-8.8 31.8 -8.0 35.55 -8.3 36.05 -7.45 37.3 -9.3 38.7 -10.65 35.65 -11.9 35.6 -13.7 29.6 -13.0 28.85 -13.55 27.65 -12.15 26.1 -11.15 27.95 -7.4 23.5 -9.9 26.9 M-10.7 64.8 L-10.25 64.1 -11.35 62.9 -10.7 64.8" fill="#ff9900" fill-rule="evenodd" stroke="none"/>
    <path d="M8.95 -1.8 L7.4 4.5 8.8 2.9 10.35 -3.5 8.95 -1.8 M11.4 -0.7 L9.7 1.2 10.35 2.15 11.05 1.7 13.05 3.0 12.3 3.95 14.5 1.95 14.6 0.85 12.15 0.3 Q14.2 -4.6 11.5 -9.65 L9.8 -7.65 Q11.45 -5.25 11.5 -2.3 L11.4 -0.7 M7.1 3.45 Q6.8 0.05 3.85 -1.0 L1.55 1.45 3.05 0.6 5.75 5.0 7.1 3.45 M3.6 7.85 L4.8 9.95 2.45 11.7 Q6.85 11.0 5.85 7.2 L5.35 6.3 2.95 7.7 3.6 7.85 M7.25 23.35 L5.95 26.35 7.85 25.15 7.4 24.55 Q9.2 23.05 8.7 21.4 L7.05 22.8 7.25 23.35 M6.85 33.6 L6.7 37.05 7.7 36.05 7.9 39.15 10.9 35.05 Q10.65 30.9 13.8 28.4 L13.2 28.35 11.55 29.95 11.7 28.95 9.6 30.75 11.05 27.5 Q10.55 26.3 9.25 29.2 L8.9 29.95 8.7 27.0 7.05 28.55 Q4.55 29.0 3.55 31.25 L5.65 34.85 6.85 33.6 6.9 33.0 5.45 30.25 7.05 28.75 6.9 33.0 7.05 33.35 6.85 33.6 M7.85 49.1 L10.5 49.45 9.2 50.8 Q11.8 50.25 12.8 47.85 13.2 46.85 12.85 46.05 L11.7 45.5 10.35 46.95 11.45 47.8 9.2 47.6 7.85 49.1 M13.7 37.8 Q18.7 40.95 21.9 36.5 L22.0 36.25 20.55 37.4 15.05 36.4 13.7 37.8 M26.95 40.9 L23.2 41.1 20.95 45.3 22.55 43.8 22.6 42.6 25.7 42.2 26.95 40.9 M22.7 67.1 L15.45 63.25 14.1 64.65 20.3 68.7 Q21.65 69.5 21.45 71.05 L23.05 69.55 22.7 67.1 M7.35 60.1 L10.2 63.25 9.8 64.95 6.5 60.95 7.35 60.1 M2.45 55.6 L-2.05 60.3 Q-4.4 60.55 -5.25 58.45 L-5.65 57.6 -8.4 60.25 -9.9 57.5 -12.45 60.6 -12.4 59.35 Q-17.85 65.1 -17.8 71.8 L-16.2 70.45 Q-18.15 66.1 -13.75 63.1 L-13.15 62.6 -11.65 71.1 -8.85 72.75 -7.45 71.3 -10.1 69.6 -10.0 68.65 -8.95 70.2 -7.4 68.7 Q-10.3 65.9 -8.6 62.8 L-8.5 62.95 -8.0 63.2 -7.75 63.3 -7.65 63.2 -7.3 62.85 -5.95 67.95 -6.45 69.45 -4.95 68.25 -4.35 66.45 -5.35 61.65 Q-1.55 64.5 -4.35 68.45 L-4.55 68.75 Q-4.6 71.05 -2.5 72.2 L-1.15 70.75 -2.95 67.3 -1.7 62.75 -1.2 62.2 -0.5 63.25 Q0.3 62.25 -0.35 63.4 L-0.9 64.15 0.7 71.2 -1.2 72.95 2.3 70.45 0.7 62.7 1.75 61.1 1.8 62.4 4.45 65.95 6.05 64.55 3.6 60.5 Q11.35 65.75 6.3 72.1 L7.7 73.3 6.8 76.7 8.9 78.3 11.1 81.35 12.8 80.0 11.2 78.05 11.6 77.55 9.65 74.1 Q13.5 68.65 13.15 62.45 L14.35 61.1 8.45 57.0 7.05 58.45 7.2 58.9 7.0 59.4 5.3 59.0 2.45 55.6 M-13.2 -1.05 L-12.7 1.55 Q-15.3 5.0 -12.2 8.05 L-11.6 8.55 -12.15 9.15 -11.95 11.95 -10.4 10.5 -10.6 8.75 -9.45 7.5 Q-12.95 5.65 -12.55 2.0 L-10.55 5.05 -9.2 3.35 -11.8 -2.6 -13.2 -1.05 M-6.3 -5.25 Q-10.55 -1.6 -8.85 3.65 L-7.45 2.0 -7.2 -3.35 -6.3 -5.25 M-2.4 4.5 Q-4.35 5.65 -4.9 7.6 L-5.05 8.85 -3.5 7.45 -3.5 6.25 -2.3 6.05 -0.9 4.55 -2.4 4.5 M-17.7 16.7 L-16.15 15.2 -16.9 12.75 -15.8 11.25 Q-18.9 12.8 -18.0 15.95 L-17.7 16.7 M-5.8 14.0 L-1.0 13.9 0.35 12.45 -4.15 12.55 -5.8 14.0 M-9.9 26.9 L-7.4 23.5 -11.15 27.95 -12.15 26.1 -13.55 27.65 -13.0 28.85 -13.7 29.6 -11.9 35.6 -10.65 35.65 -9.3 38.7 -7.45 37.3 -8.3 36.05 -8.0 35.55 -8.8 31.8 -7.65 30.55 Q-10.1 29.6 -9.9 26.9 M-5.9 28.25 L-4.3 26.75 -7.55 29.25 -5.1 32.8 -3.75 31.25 -5.9 28.25 M-12.7 34.95 L-15.8 33.5 -18.5 37.2 -16.6 35.05 -14.1 36.5 -12.7 34.95 M-12.25 43.8 L-12.3 43.0 -13.7 44.5 -13.6 45.8 Q-12.25 45.1 -12.25 43.8 M-20.15 57.3 L-23.75 54.05 -25.45 56.1 -21.7 58.8 -20.85 58.75 Q-17.6 58.0 -17.15 54.6 L-18.55 56.1 -18.65 56.85 -20.15 57.3 M-5.8 2.8 L-0.3 -9.25" fill="none" stroke="#ff5900" stroke-linecap="round" stroke-linejoin="round" stroke-opacity="0.5019608" stroke-width="3.0"/>
  </g>
</svg>
