<?xml version="1.0" encoding="UTF-8" standalone="no"?>
<svg xmlns:ffdec="https://www.free-decompiler.com/flash" xmlns:xlink="http://www.w3.org/1999/xlink" ffdec:objectType="shape" height="54.95px" width="26.75px" xmlns="http://www.w3.org/2000/svg">
  <g transform="matrix(1.0, 0.0, 0.0, 1.0, 13.35, -21.1)">
    <path d="M10.8 28.0 L11.9 23.6 M-11.85 22.6 L-11.15 27.85" fill="none" stroke="#ff0000" stroke-linecap="round" stroke-linejoin="round" stroke-opacity="0.2" stroke-width="3.0"/>
    <path d="M3.7 63.2 Q4.6 64.15 5.9 64.25 8.6 64.45 11.05 63.25 L12.35 63.3 13.25 63.75 Q12.95 68.6 9.4 72.15 5.5 76.05 0.0 76.05 -5.5 76.05 -9.4 72.15 -11.75 69.8 -12.65 66.9 -10.9 66.6 -10.0 64.5 L-9.1 64.85 Q-6.6 64.75 -6.7 61.95 L-4.0 64.5 -3.15 64.95 Q1.0 65.75 2.6 61.75 L3.7 63.2" fill="#ff0000" fill-opacity="0.16078432" fill-rule="evenodd" stroke="none"/>
  </g>
</svg>
