<?xml version="1.0" encoding="UTF-8" standalone="no"?>
<svg xmlns:ffdec="https://www.free-decompiler.com/flash" xmlns:xlink="http://www.w3.org/1999/xlink" ffdec:objectType="shape" height="101.75px" width="57.0px" xmlns="http://www.w3.org/2000/svg">
  <g transform="matrix(1.0, 0.0, 0.0, 1.0, 26.95, 18.75)">
    <path d="M9.3 78.85 L8.7 78.05 10.1 76.6 Q14.25 82.5 19.85 78.5 14.3 84.3 9.3 78.85 M10.05 65.2 L7.35 74.0 8.3 74.3 10.85 65.85 10.05 65.2 M1.7 60.85 L1.7 59.8 3.1 58.25 3.3 61.25 3.7 61.85 Q4.6 63.9 7.05 64.2 L10.05 61.9 Q13.05 61.5 14.4 64.15 L13.5 65.3 14.65 66.25 16.3 66.05 18.45 63.6 17.8 65.0 Q16.25 67.7 13.0 67.7 L12.2 67.05 9.9 72.75 11.1 74.55 9.5 75.95 9.1 75.5 8.4 76.2 5.7 75.45 Q9.7 70.55 7.6 64.7 L6.35 65.6 Q7.85 70.55 3.95 73.7 6.75 67.6 1.95 63.1 L0.7 64.3 Q4.05 69.65 -0.9 73.7 L1.1 76.55 -0.25 78.05 -2.3 76.35 -5.4 78.95 -2.65 76.1 -2.55 75.1 -4.3 76.75 Q-2.8 74.85 -2.75 72.3 L-4.45 69.8 -3.05 68.25 Q-0.6 70.0 -0.9 73.1 L-0.1 71.8 -0.8 72.3 0.35 69.0 -1.15 65.4 -4.75 65.95 Q-3.75 69.05 -5.55 71.95 L-5.45 72.55 -6.85 74.1 -8.0 74.4 -7.2 73.2 -7.5 72.4 -7.95 73.7 Q-8.85 76.0 -11.15 77.45 L-10.7 77.0 Q-9.0 74.95 -9.1 72.45 -12.75 70.25 -13.0 66.0 L-13.5 66.5 -10.25 62.3 -9.05 64.15 -6.05 59.35 -3.7 63.5 -4.1 63.95 Q-3.1 64.7 -1.85 64.65 -0.3 64.55 0.7 63.3 L0.2 63.7 1.7 60.85 M20.75 67.7 L22.1 66.1 23.3 68.95 Q21.7 72.2 18.55 73.2 L19.95 71.75 20.7 71.55 21.7 70.5 20.75 67.7 M23.55 42.05 L24.95 40.6 27.05 41.1 Q28.6 41.7 28.55 43.45 L27.0 44.45 Q26.85 43.7 26.5 43.25 25.35 42.0 23.55 42.05 M12.35 45.85 L10.35 47.6 10.3 48.45 9.1 49.85 8.95 48.0 11.45 45.85 12.35 45.85 M10.9 49.1 L12.35 47.35 14.35 46.85 15.3 47.9 13.65 49.4 12.8 48.4 10.9 49.1 M19.15 38.3 L17.95 38.65 20.8 36.7 20.0 35.35 21.1 33.85 22.3 34.75 Q21.55 37.4 19.15 38.3 M7.2 23.8 L6.65 24.3 7.45 25.2 9.2 25.55 8.65 26.95 Q10.3 25.55 10.6 23.2 L10.8 21.4 12.2 19.85 Q12.5 23.35 10.4 26.2 L13.1 23.7 Q13.9 26.55 12.25 28.9 L11.75 29.6 19.8 22.35 9.7 32.65 9.5 29.85 7.3 31.65 6.45 30.05 4.55 30.4 6.95 28.2 5.05 25.6 7.2 23.8 M0.3 7.8 L1.7 6.25 Q2.4 11.2 -2.2 12.95 L-0.25 11.2 0.3 7.8 M1.2 3.85 L1.1 3.55 Q1.2 0.1 4.6 -0.75 L2.7 0.9 3.6 3.15 2.7 4.7 1.2 3.85 M4.6 9.4 L3.65 11.4 Q4.5 13.35 2.2 13.0 L1.8 11.7 4.6 9.4 M11.7 -11.8 L12.4 -6.55 10.8 -5.05 Q8.75 -11.6 14.7 -14.75 L11.7 -11.8 M14.4 -2.7 L11.7 -0.5 12.85 0.0 11.55 1.45 10.8 1.5 10.05 0.8 Q11.8 -2.15 14.4 -2.7 M9.1 -6.5 L10.05 -2.15 8.45 -0.65 7.7 -4.95 9.1 -6.5 M-1.55 -15.75 L-0.15 -17.25 Q1.7 -10.75 -2.35 -5.7 -2.55 -5.5 -2.95 -5.45 -1.2 -8.3 -1.05 -11.8 -1.0 -13.75 -1.55 -15.75 M-17.55 15.55 L-16.15 14.0 -13.9 16.1 -15.25 17.6 -17.55 15.55 M-12.05 23.35 Q-10.35 22.1 -10.4 20.05 L-10.45 19.4 -9.05 17.85 -8.95 20.75 -8.25 20.2 -6.35 21.1 -8.75 26.3 -8.3 27.5 -10.7 29.9 -10.7 30.8 -12.3 32.3 -16.4 24.45 -15.05 23.0 -12.25 27.45 -12.05 23.35 M-8.15 7.6 L-8.9 8.6 -11.3 8.15 -12.35 8.65 -10.15 6.65 -9.0 6.8 -8.15 7.6 M-4.7 8.75 L-3.4 7.15 -1.5 9.3 -3.1 10.7 -4.7 8.75 M-3.9 -8.25 L-4.85 -6.75 -5.8 -6.5 -8.75 -2.25 -8.5 -2.85 Q-7.05 -6.3 -3.9 -8.25 M-9.9 -1.15 L-5.15 -0.35 -6.35 1.2 -11.55 0.5 -12.6 3.3 -14.2 4.8 Q-13.6 0.75 -9.9 -1.15 M-11.7 -4.1 L-13.5 -5.0 -12.15 -6.5 -10.2 -5.75 -10.35 -4.0 Q-10.7 -1.05 -12.7 0.2 L-11.7 -4.1 M-7.95 22.4 L-9.4 22.2 -9.75 25.6 -7.95 22.4 M-25.2 51.2 L-23.8 49.75 -22.1 50.5 -23.75 53.25 -22.95 55.1 -24.6 56.5 -25.45 54.4 -23.7 51.95 -25.2 51.2 M-6.65 66.1 L-7.25 66.7 -9.0 65.8 -6.0 70.2 -6.65 66.1 M-15.45 71.75 Q-17.3 71.9 -18.55 70.35 L-17.15 68.5 Q-15.45 70.8 -12.55 70.3 L-10.2 73.2 -11.8 74.7 -14.6 71.55 -15.45 71.75 M-12.5 45.4 L-13.55 46.15 -12.05 44.2 -12.5 45.4 M-2.7 26.2 L-2.35 30.45 -3.95 31.95 -4.3 27.75 -5.85 28.0 -3.8 26.1 -2.7 26.2 M-22.2 35.6 L-20.7 34.05 -18.7 35.7 -15.3 33.5 -19.35 37.25 -20.3 37.2 -22.2 35.6" fill="#ff9900" fill-rule="evenodd" stroke="none"/>
    <path d="M-1.55 -15.75 Q-1.0 -13.75 -1.05 -11.8 -1.2 -8.3 -2.95 -5.45 -2.55 -5.5 -2.35 -5.7 1.7 -10.75 -0.15 -17.25 L-1.55 -15.75" fill="none" stroke="#ff5900" stroke-linecap="round" stroke-linejoin="round" stroke-opacity="0.5019608" stroke-width="3.0"/>
    <path d="M9.1 -6.5 L7.7 -4.95 8.45 -0.65 10.05 -2.15 9.1 -6.5 M14.4 -2.7 Q11.8 -2.15 10.05 0.8 L10.8 1.5 11.55 1.45 12.85 0.0 11.7 -0.5 14.4 -2.7 M11.7 -11.8 L14.7 -14.75 Q8.75 -11.6 10.8 -5.05 L12.4 -6.55 11.7 -11.8 M4.6 9.4 L1.8 11.7 2.2 13.0 Q4.5 13.35 3.65 11.4 L4.6 9.4 M1.2 3.85 L2.7 4.7 3.6 3.15 2.7 0.9 4.6 -0.75 Q1.2 0.1 1.1 3.55 L1.2 3.85 M0.3 7.8 L-0.25 11.2 -2.2 12.95 Q2.4 11.2 1.7 6.25 L0.3 7.8 M7.2 23.8 L5.05 25.6 6.95 28.2 4.55 30.4 6.45 30.05 7.3 31.65 9.5 29.85 9.7 32.65 19.8 22.35 11.75 29.6 12.25 28.9 Q13.9 26.55 13.1 23.7 L10.4 26.2 Q12.5 23.35 12.2 19.85 L10.8 21.4 10.6 23.2 Q10.3 25.55 8.65 26.95 L9.2 25.55 7.45 25.2 6.65 24.3 7.2 23.8 M19.15 38.3 Q21.55 37.4 22.3 34.75 L21.1 33.85 20.0 35.35 20.8 36.7 17.95 38.65 19.15 38.3 M10.9 49.1 L12.8 48.4 13.65 49.4 15.3 47.9 14.35 46.85 12.35 47.35 10.9 49.1 M12.35 45.85 L11.45 45.85 8.95 48.0 9.1 49.85 10.3 48.45 10.35 47.6 12.35 45.85 M23.55 42.05 Q25.35 42.0 26.5 43.25 26.85 43.7 27.0 44.45 L28.55 43.45 Q28.6 41.7 27.05 41.1 L24.95 40.6 23.55 42.05 M20.75 67.7 L21.7 70.5 20.7 71.55 19.95 71.75 18.55 73.2 Q21.7 72.2 23.3 68.95 L22.1 66.1 20.75 67.7 M1.7 60.85 L0.2 63.7 0.7 63.3 Q-0.3 64.55 -1.85 64.65 -3.1 64.7 -4.1 63.95 L-3.7 63.5 -6.05 59.35 -9.05 64.15 -10.25 62.3 -13.5 66.5 -13.0 66.0 Q-12.75 70.25 -9.1 72.45 -9.0 74.95 -10.7 77.0 L-11.15 77.45 Q-8.85 76.0 -7.95 73.7 L-7.5 72.4 -7.2 73.2 -8.0 74.4 -6.85 74.1 -5.45 72.55 -5.55 71.95 Q-3.75 69.05 -4.75 65.95 L-1.15 65.4 0.35 69.0 -0.8 72.3 -0.1 71.8 -0.9 73.1 Q-0.6 70.0 -3.05 68.25 L-4.45 69.8 -2.75 72.3 Q-2.8 74.85 -4.3 76.75 L-2.55 75.1 -2.65 76.1 -5.4 78.95 -2.3 76.35 -0.25 78.05 1.1 76.55 -0.9 73.7 Q4.05 69.65 0.7 64.3 L1.95 63.1 Q6.75 67.6 3.95 73.7 7.85 70.55 6.35 65.6 L7.6 64.7 Q9.7 70.55 5.7 75.45 L8.4 76.2 9.1 75.5 9.5 75.95 11.1 74.55 9.9 72.75 12.2 67.05 13.0 67.7 Q16.25 67.7 17.8 65.0 L18.45 63.6 16.3 66.05 14.65 66.25 13.5 65.3 14.4 64.15 Q13.05 61.5 10.05 61.9 L7.05 64.2 Q4.6 63.9 3.7 61.85 L3.3 61.25 3.1 58.25 1.7 59.8 1.7 60.85 M10.05 65.2 L10.85 65.85 8.3 74.3 7.35 74.0 10.05 65.2 M9.3 78.85 Q14.3 84.3 19.85 78.5 14.25 82.5 10.1 76.6 L8.7 78.05 9.3 78.85 M-11.7 -4.1 L-12.7 0.2 Q-10.7 -1.05 -10.35 -4.0 L-10.2 -5.75 -12.15 -6.5 -13.5 -5.0 -11.7 -4.1 M-9.9 -1.15 Q-13.6 0.75 -14.2 4.8 L-12.6 3.3 -11.55 0.5 -6.35 1.2 -5.15 -0.35 -9.9 -1.15 M-3.9 -8.25 Q-7.05 -6.3 -8.5 -2.85 L-8.75 -2.25 -5.8 -6.5 -4.85 -6.75 -3.9 -8.25 M-4.7 8.75 L-3.1 10.7 -1.5 9.3 -3.4 7.15 -4.7 8.75 M-8.15 7.6 L-9.0 6.8 -10.15 6.65 -12.35 8.65 -11.3 8.15 -8.9 8.6 -8.15 7.6 M-12.05 23.35 L-12.25 27.45 -15.05 23.0 -16.4 24.45 -12.3 32.3 -10.7 30.8 -10.7 29.9 -8.3 27.5 -8.75 26.3 -6.35 21.1 -8.25 20.2 -8.95 20.75 -9.05 17.85 -10.45 19.4 -10.4 20.05 Q-10.35 22.1 -12.05 23.35 M-17.55 15.55 L-15.25 17.6 -13.9 16.1 -16.15 14.0 -17.55 15.55 M-22.2 35.6 L-20.3 37.2 -19.35 37.25 -15.3 33.5 -18.7 35.7 -20.7 34.05 -22.2 35.6 M-2.7 26.2 L-3.8 26.1 -5.85 28.0 -4.3 27.75 -3.95 31.95 -2.35 30.45 -2.7 26.2 M-12.5 45.4 L-12.05 44.2 -13.55 46.15 -12.5 45.4 M-15.45 71.75 L-14.6 71.55 -11.8 74.7 -10.2 73.2 -12.55 70.3 Q-15.45 70.8 -17.15 68.5 L-18.55 70.35 Q-17.3 71.9 -15.45 71.75 M-6.65 66.1 L-6.0 70.2 -9.0 65.8 -7.25 66.7 -6.65 66.1 M-25.2 51.2 L-23.7 51.95 -25.45 54.4 -24.6 56.5 -22.95 55.1 -23.75 53.25 -22.1 50.5 -23.8 49.75 -25.2 51.2 M-4.3 76.75 L-5.95 78.3" fill="none" stroke="#ff5900" stroke-linecap="round" stroke-linejoin="round" stroke-opacity="0.5019608" stroke-width="3.0"/>
  </g>
</svg>
