<?xml version="1.0" encoding="UTF-8" standalone="no"?>
<svg xmlns:ffdec="https://www.free-decompiler.com/flash" xmlns:xlink="http://www.w3.org/1999/xlink" ffdec:objectType="shape" height="109.4px" width="59.85px" xmlns="http://www.w3.org/2000/svg">
  <g transform="matrix(1.0, 0.0, 0.0, 1.0, 27.8, 24.2)">
    <path d="M19.6 73.2 L17.65 72.7 17.6 73.9 15.3 75.35 18.6 71.05 21.35 71.6 19.6 73.2 M4.6 70.8 L2.1 69.6 1.5 69.7 0.15 75.45 2.35 76.85 4.6 70.8 M8.75 72.3 L9.85 70.85 10.05 71.8 Q10.95 75.5 14.9 75.6 L11.7 77.25 Q8.5 75.85 8.75 72.3 M3.7 61.75 L5.1 60.25 3.95 66.3 7.25 68.45 11.2 67.3 12.8 69.55 11.4 71.1 10.85 70.5 10.3 70.8 8.95 69.6 8.3 75.05 9.8 76.35 8.2 77.95 7.15 77.05 Q6.3 73.3 7.85 69.9 4.2 71.0 3.6 75.55 L5.85 79.05 4.5 80.45 3.75 80.0 2.05 83.7 Q2.35 80.05 -0.4 77.65 L-2.4 76.1 -2.25 75.05 -7.1 80.75 -4.65 81.85 -5.95 83.3 -8.4 82.75 -8.55 81.7 -9.9 82.75 Q-13.05 78.0 -8.9 74.1 L-7.65 73.0 Q-10.5 75.55 -9.4 78.95 L-8.4 81.15 Q-3.6 77.2 -1.15 71.85 L-1.55 73.4 -0.25 71.85 -0.1 70.0 -4.1 71.3 -3.25 72.8 -4.6 74.35 -5.7 73.1 -5.95 75.5 -7.35 77.0 -7.7 76.5 -7.7 75.0 -6.55 72.55 -7.2 70.9 -10.0 69.6 -11.6 70.6 -11.3 69.65 -12.1 70.5 Q-11.35 67.9 -8.7 66.65 L-7.55 67.6 Q-7.85 63.7 -5.05 60.6 L-5.1 67.8 -4.3 66.85 -4.3 68.6 Q-0.15 70.15 2.05 66.2 3.2 64.15 3.7 61.75 M17.7 60.3 L18.85 61.75 Q18.5 64.6 16.1 66.3 L17.3 63.3 16.05 61.9 17.7 60.3 M21.65 33.6 L22.15 34.3 20.2 37.15 20.55 35.85 19.7 34.35 23.05 32.15 21.65 33.6 M29.2 45.95 L26.6 43.45 28.65 43.25 30.55 44.55 29.2 45.95 M14.6 47.35 L14.95 47.35 Q15.45 47.8 15.4 48.5 L15.4 48.8 Q14.7 49.75 13.8 50.3 13.9 49.55 13.45 49.0 L13.2 48.8 14.6 47.35 M10.2 48.0 L11.55 49.2 11.6 49.25 10.4 50.55 10.25 50.7 Q9.35 50.5 8.85 49.6 L8.8 49.5 10.05 48.2 10.2 48.0 M9.0 25.85 L7.45 28.05 7.45 27.45 7.0 27.9 5.05 26.45 4.95 25.5 6.55 24.2 8.2 26.3 9.0 25.85 M6.7 30.85 L8.1 29.35 Q8.3 30.55 7.65 31.45 6.8 32.55 5.45 32.8 L6.7 31.5 6.7 30.85 M18.3 20.55 L19.7 19.1 20.6 19.3 16.15 25.95 19.05 20.85 18.3 20.55 M13.1 16.1 L12.1 18.4 12.2 22.05 15.1 17.85 13.95 22.65 15.6 21.7 13.65 23.6 13.15 24.85 13.15 26.15 11.55 27.65 11.6 26.25 10.45 27.15 11.25 23.8 10.45 24.4 10.3 18.7 13.1 16.1 M4.35 11.0 L4.4 11.8 Q4.3 13.15 3.0 13.9 L2.95 12.45 4.35 11.0 M3.7 5.4 L1.8 3.7 3.2 2.25 5.3 3.75 3.7 5.4 M1.1 3.4 L1.85 3.45 0.8 4.55 1.35 7.0 0.0 8.5 -0.95 5.35 1.1 3.4 M13.6 -3.75 Q14.65 -5.2 14.8 -3.65 L12.75 -1.4 13.2 -2.05 12.8 -2.8 13.6 -3.75 M8.15 -4.4 L7.6 -6.2 10.35 -9.1 9.1 -7.5 9.75 -5.8 8.15 -4.4 M12.1 -18.4 L15.3 -17.1 11.5 -11.4 13.7 -15.55 10.7 -16.9 12.1 -18.4 M22.75 80.2 Q22.35 78.35 20.4 77.95 L14.7 81.55 21.35 76.35 Q24.3 77.0 24.8 80.05 L23.0 81.15 22.75 80.2 M-3.6 -22.7 L-2.9 -22.7 0.15 -15.05 -1.2 -13.55 -4.5 -21.2 -6.7 -19.3 -3.6 -22.7 M-13.0 72.35 L-11.35 71.15 -10.95 73.2 -14.55 76.2 -12.45 74.15 -13.0 72.35 M-11.9 29.35 L-10.15 30.0 -11.75 31.45 -12.35 30.9 -13.9 32.2 -13.7 31.3 -11.9 29.35 M-3.95 29.95 Q-2.65 27.4 -2.1 29.25 L-3.2 31.25 -2.25 32.2 -3.6 33.75 -4.8 32.8 -3.95 29.95 M-9.15 25.15 L-8.45 26.05 -10.2 27.35 -10.55 26.75 -9.15 25.15 M-20.85 36.75 L-22.25 34.3 -19.05 31.75 -18.2 31.95 -19.35 33.45 -20.6 33.4 -19.5 35.2 -20.85 36.75 M-24.3 47.85 L-24.0 48.55 Q-23.9 49.85 -22.5 50.05 L-22.35 51.2 -23.9 52.45 -24.35 51.3 -26.3 50.05 -24.3 47.85 M-18.1 22.5 L-15.45 22.35 -13.45 26.1 -15.1 27.55 -17.0 23.9 -19.5 23.7 Q-21.0 23.6 -21.2 22.1 L-19.8 20.6 -18.1 22.5 M-13.05 18.55 L-10.4 15.25 -8.8 20.0 -7.25 20.2 -9.15 22.15 -7.2 23.35 -8.55 24.8 -9.95 24.45 -10.95 25.2 -10.8 23.35 -11.6 24.15 -11.35 26.3 -12.95 27.8 -13.7 21.6 -12.75 20.05 -13.05 18.55 M-15.05 17.45 L-13.65 15.9 -13.1 17.45 -14.7 19.1 -15.05 17.45 M-8.55 8.15 L-9.35 10.75 -10.45 11.45 -8.55 8.15 M-3.15 10.3 L-1.8 8.75 Q-1.15 9.15 -1.4 9.95 -1.8 11.05 -2.95 11.6 L-3.15 10.3 M-0.55 -10.55 Q-1.6 -7.75 -4.4 -6.9 L-5.2 -6.8 -0.55 -10.55 M-6.4 -1.25 Q-5.2 -1.0 -4.15 -0.35 -2.4 0.7 -2.3 2.85 L-5.2 5.25 -3.7 3.55 -7.75 0.3 -6.4 -1.25 M-17.2 -2.05 L-17.0 -2.9 Q-15.25 -7.75 -11.1 -6.25 L-12.55 -4.65 -13.35 -5.25 -15.3 -4.95 -17.2 -2.05" fill="#ff9900" fill-rule="evenodd" stroke="none"/>
    <path d="M-3.6 -22.7 L-6.7 -19.3 -4.5 -21.2 -1.2 -13.55 0.15 -15.05 -2.9 -22.7 -3.6 -22.7" fill="none" stroke="#ff5900" stroke-linecap="round" stroke-linejoin="round" stroke-opacity="0.5019608" stroke-width="3.0"/>
    <path d="M12.1 -18.4 L10.7 -16.9 13.7 -15.55 11.5 -11.4 15.3 -17.1 12.1 -18.4 M8.15 -4.4 L9.75 -5.8 9.1 -7.5 10.35 -9.1 7.6 -6.2 8.15 -4.4 M13.6 -3.75 L12.8 -2.8 13.2 -2.05 12.75 -1.4 14.8 -3.65 Q14.65 -5.2 13.6 -3.75 M1.1 3.4 L-0.95 5.35 0.0 8.5 1.35 7.0 0.8 4.55 1.85 3.45 1.1 3.4 M3.7 5.4 L5.3 3.75 3.2 2.25 1.8 3.7 3.7 5.4 M4.35 11.0 L2.95 12.45 3.0 13.9 Q4.3 13.15 4.4 11.8 L4.35 11.0 M13.1 16.1 L10.3 18.7 10.45 24.4 11.25 23.8 10.45 27.15 11.6 26.25 11.55 27.65 13.15 26.15 13.15 24.85 13.65 23.6 15.6 21.7 13.95 22.65 15.1 17.85 12.2 22.05 12.1 18.4 13.1 16.1 M18.3 20.55 L19.05 20.85 16.15 25.95 20.6 19.3 19.7 19.1 18.3 20.55 M6.7 30.85 L6.7 31.5 5.45 32.8 Q6.8 32.55 7.65 31.45 8.3 30.55 8.1 29.35 L6.7 30.85 M9.0 25.85 L8.2 26.3 6.55 24.2 4.95 25.5 5.05 26.45 7.0 27.9 7.45 27.45 7.45 28.05 9.0 25.85 M10.2 48.0 L10.05 48.2 8.8 49.5 8.85 49.6 Q9.35 50.5 10.25 50.7 L10.4 50.55 11.6 49.25 11.55 49.2 10.2 48.0 M14.6 47.35 L13.2 48.8 13.45 49.0 Q13.9 49.55 13.8 50.3 14.7 49.75 15.4 48.8 L15.4 48.5 Q15.45 47.8 14.95 47.35 L14.6 47.35 M29.2 45.95 L30.55 44.55 28.65 43.25 26.6 43.45 29.2 45.95 M21.65 33.6 L23.05 32.15 19.7 34.35 20.55 35.85 20.2 37.15 22.15 34.3 21.65 33.6 M17.7 60.3 L16.05 61.9 17.3 63.3 16.1 66.3 Q18.5 64.6 18.85 61.75 L17.7 60.3 M3.7 61.75 Q3.2 64.15 2.05 66.2 -0.15 70.15 -4.3 68.6 L-4.3 66.85 -5.1 67.8 -5.05 60.6 Q-7.85 63.7 -7.55 67.6 L-8.7 66.65 Q-11.35 67.9 -12.1 70.5 L-11.3 69.65 -11.6 70.6 -10.0 69.6 -7.2 70.9 -6.55 72.55 -7.7 75.0 -7.7 76.5 -7.35 77.0 -5.95 75.5 -5.7 73.1 -4.6 74.35 -3.25 72.8 -4.1 71.3 -0.1 70.0 -0.25 71.85 -1.55 73.4 -1.15 71.85 Q-3.6 77.2 -8.4 81.15 L-9.4 78.95 Q-10.5 75.55 -7.65 73.0 L-8.9 74.1 Q-13.05 78.0 -9.9 82.75 L-8.55 81.7 -8.4 82.75 -5.95 83.3 -4.65 81.85 -7.1 80.75 -2.25 75.05 -2.4 76.1 -0.4 77.65 Q2.35 80.05 2.05 83.7 L3.75 80.0 4.5 80.45 5.85 79.05 3.6 75.55 Q4.2 71.0 7.85 69.9 6.3 73.3 7.15 77.05 L8.2 77.95 9.8 76.35 8.3 75.05 8.95 69.6 10.3 70.8 10.85 70.5 11.4 71.1 12.8 69.55 11.2 67.3 7.25 68.45 3.95 66.3 5.1 60.25 3.7 61.75 M8.75 72.3 Q8.5 75.85 11.7 77.25 L14.9 75.6 Q10.95 75.5 10.05 71.8 L9.85 70.85 8.75 72.3 M4.6 70.8 L2.35 76.85 0.15 75.45 1.5 69.7 2.1 69.6 4.6 70.8 M19.6 73.2 L21.35 71.6 18.6 71.05 15.3 75.35 17.6 73.9 17.65 72.7 19.6 73.2 M14.9 75.6 L15.3 75.35 M22.75 80.2 L23.0 81.15 24.8 80.05 Q24.3 77.0 21.35 76.35 L14.7 81.55 20.4 77.95 Q22.35 78.35 22.75 80.2 M-17.2 -2.05 L-15.3 -4.95 -13.35 -5.25 -12.55 -4.65 -11.1 -6.25 Q-15.25 -7.75 -17.0 -2.9 L-17.2 -2.05 M-6.4 -1.25 L-7.75 0.3 -3.7 3.55 -5.2 5.25 -2.3 2.85 Q-2.4 0.7 -4.15 -0.35 -5.2 -1.0 -6.4 -1.25 M-0.55 -10.55 L-5.2 -6.8 -4.4 -6.9 Q-1.6 -7.75 -0.55 -10.55 M-3.15 10.3 L-2.95 11.6 Q-1.8 11.05 -1.4 9.95 -1.15 9.15 -1.8 8.75 L-3.15 10.3 M-8.55 8.15 L-10.45 11.45 -9.35 10.75 -8.55 8.15 M-15.05 17.45 L-14.7 19.1 -13.1 17.45 -13.65 15.9 -15.05 17.45 M-13.05 18.55 L-12.75 20.05 -13.7 21.6 -12.95 27.8 -11.35 26.3 -11.6 24.15 -10.8 23.35 -10.95 25.2 -9.95 24.45 -8.55 24.8 -7.2 23.35 -9.15 22.15 -7.25 20.2 -8.8 20.0 -10.4 15.25 -13.05 18.55 M-18.1 22.5 L-19.8 20.6 -21.2 22.1 Q-21.0 23.6 -19.5 23.7 L-17.0 23.9 -15.1 27.55 -13.45 26.1 -15.45 22.35 -18.1 22.5 M-24.3 47.85 L-26.3 50.05 -24.35 51.3 -23.9 52.45 -22.35 51.2 -22.5 50.05 Q-23.9 49.85 -24.0 48.55 L-24.3 47.85 M-20.85 36.75 L-19.5 35.2 -20.6 33.4 -19.35 33.45 -18.2 31.95 -19.05 31.75 -22.25 34.3 -20.85 36.75 M-9.15 25.15 L-10.55 26.75 -10.2 27.35 -8.45 26.05 -9.15 25.15 M-3.95 29.95 L-4.8 32.8 -3.6 33.75 -2.25 32.2 -3.2 31.25 -2.1 29.25 Q-2.65 27.4 -3.95 29.95 M-11.9 29.35 L-13.7 31.3 -13.9 32.2 -12.35 30.9 -11.75 31.45 -10.15 30.0 -11.9 29.35 M-13.0 72.35 L-12.45 74.15 -14.55 76.2 -10.95 73.2 -11.35 71.15 -13.0 72.35 Z" fill="none" stroke="#ff5900" stroke-linecap="round" stroke-linejoin="round" stroke-opacity="0.5019608" stroke-width="3.0"/>
  </g>
</svg>
