<?xml version="1.0" encoding="UTF-8" standalone="no"?>
<svg xmlns:ffdec="https://www.free-decompiler.com/flash" xmlns:xlink="http://www.w3.org/1999/xlink" ffdec:objectType="shape" height="114.3px" width="61.4px" xmlns="http://www.w3.org/2000/svg">
  <g transform="matrix(1.0, 0.0, 0.0, 1.0, 27.3, 24.25)">
    <path d="M13.35 -2.95 L14.7 -4.6 15.35 -4.55 13.35 -2.95 M10.6 -19.5 L13.95 -17.55 12.65 -16.05 9.95 -17.6 9.8 -16.45 8.2 -14.95 10.6 -19.5 M0.4 5.15 L0.15 5.1 Q1.55 2.9 4.2 2.8 L3.0 4.35 0.4 5.15 M5.3 3.6 L5.4 4.3 2.7 6.85 3.8 5.35 3.45 4.7 4.85 3.15 5.3 3.6 M20.3 18.95 L20.3 20.75 18.75 22.45 18.7 20.45 16.7 20.55 16.7 19.45 18.35 18.25 18.3 19.05 20.3 18.95 M9.75 21.35 L7.3 23.9 6.55 23.9 9.75 21.35 M9.85 21.2 L9.9 20.6 9.45 20.15 12.7 15.45 13.5 15.85 15.7 15.2 16.75 16.85 15.15 18.25 Q14.9 21.45 12.7 23.65 L13.8 18.5 12.15 17.9 12.15 18.75 9.85 21.2 M24.2 77.8 L24.35 77.85 Q26.3 84.1 19.3 86.2 L23.55 82.45 22.6 79.2 24.2 77.8 M3.3 77.9 L4.85 76.55 9.05 80.65 Q9.4 81.8 8.9 82.95 7.75 85.45 6.65 85.55 L7.6 82.6 3.3 77.9 M1.55 79.1 L2.95 77.6 Q4.65 83.3 -0.95 85.95 L-0.7 85.65 Q3.25 83.1 1.55 79.1 M13.15 80.7 L11.45 82.25 Q11.35 77.65 6.95 76.2 L8.35 74.75 9.45 75.2 Q13.0 76.75 13.15 80.7 M17.0 73.1 L18.0 72.4 17.85 74.6 16.45 75.75 16.2 74.85 14.25 76.75 14.95 75.0 Q15.85 72.5 14.45 69.85 L16.85 68.05 16.05 68.95 17.0 73.1 M2.65 73.15 L1.15 73.95 -0.25 73.4 -1.25 74.5 -1.95 74.6 -3.2 75.7 -3.7 74.7 -4.9 75.35 -3.45 76.55 -4.8 77.95 -7.45 76.0 -7.45 74.0 -8.8 73.55 -7.45 72.15 -5.9 72.1 -5.1 72.6 -3.55 71.05 -2.55 72.2 -2.5 71.35 -1.05 69.75 -1.35 72.1 2.35 70.25 6.55 72.45 7.6 71.6 10.3 71.45 8.9 74.2 7.3 73.45 4.35 74.75 2.65 73.15 M4.6 63.9 L4.4 67.35 4.8 67.8 3.05 69.2 2.85 68.8 Q2.25 65.8 4.6 63.9 M10.5 51.2 L10.4 51.0 Q10.35 48.9 12.05 49.65 L10.5 51.2 M22.0 58.2 L20.4 59.7 18.3 59.75 18.3 60.7 16.75 61.65 19.6 58.0 22.0 58.2 M28.7 45.35 Q28.7 44.85 29.3 44.5 29.85 44.15 30.65 44.15 31.45 44.15 32.05 44.5 32.6 44.85 32.6 45.35 32.6 45.85 32.05 46.2 L30.65 46.55 Q29.85 46.55 29.3 46.2 28.7 45.85 28.7 45.35 M22.9 34.05 L22.55 33.5 20.9 33.95 23.45 31.85 24.05 31.9 Q24.9 32.75 24.2 33.3 L22.9 34.05 M7.45 28.05 L9.35 26.65 8.45 28.15 7.45 28.05 M7.35 30.95 L7.15 31.8 5.55 33.15 7.35 30.95 M2.55 14.15 L3.9 12.35 Q4.65 13.6 2.55 14.15 M14.15 22.75 L13.2 23.85 15.35 21.2 16.05 21.2 16.75 22.65 15.2 24.05 14.15 22.75 M-4.3 -22.75 L-2.1 -21.6 -3.8 -20.3 -5.1 -21.2 -6.85 -19.25 -7.45 -19.3 -9.9 -21.05 -8.55 -22.45 -6.15 -20.95 -4.3 -22.75 M-15.2 77.3 L-13.55 75.2 -12.45 77.7 -13.85 79.2 -15.2 77.3 M-9.35 86.0 L-7.55 83.6 -11.05 81.45 -9.65 80.0 -6.55 80.85 -2.8 83.15 -2.85 83.5 Q-3.55 87.15 -7.55 88.55 L-4.05 85.6 -6.0 83.4 -9.35 86.0 M-7.05 65.8 L-5.65 64.25 Q-4.4 68.7 -8.05 71.8 L-8.2 71.8 Q-6.4 69.1 -7.05 65.8 M-19.05 31.8 L-17.15 31.5 -17.65 32.25 Q-18.75 33.4 -20.55 33.3 L-19.05 31.8 M-12.05 32.05 L-11.65 32.55 -13.3 33.95 -13.45 31.8 -10.7 29.55 -12.05 32.05 M-4.3 32.55 L-2.45 31.15 -1.95 32.15 -3.7 34.0 -4.3 32.55 M-21.7 46.6 L-23.05 48.05 -25.65 50.05 -25.8 49.05 -21.7 46.6 M-7.65 22.85 L-5.45 22.6 -5.2 23.45 -6.8 25.05 -7.05 24.1 -9.05 24.3 -7.65 22.85 M-18.45 21.8 L-19.8 23.2 -20.5 23.2 -21.55 21.6 -17.3 18.85 -18.6 20.45 -19.8 20.9 -18.45 21.8 M-12.15 16.25 L-14.7 16.55 -15.3 15.8 -13.9 14.35 -13.15 15.05 -10.65 14.6 -9.6 15.95 -8.65 15.0 -10.2 17.9 -11.55 18.8 -11.7 23.75 -13.1 25.35 Q-14.45 20.7 -11.2 17.6 L-12.15 16.25 M-10.7 12.1 L-10.5 11.25 -8.9 10.2 -10.7 12.1 M-6.0 8.75 L-6.1 8.2 Q-6.35 4.5 -2.9 3.05 -4.9 4.6 -4.65 7.25 L-6.0 8.75 M-0.35 -10.95 L-1.95 -9.7 -2.3 -11.05 -0.85 -12.7 -0.35 -10.95 M-16.95 -3.15 L-15.55 -4.75 -12.65 -2.5 -14.0 -1.05 -16.95 -3.15" fill="#ff9900" fill-rule="evenodd" stroke="none"/>
    <path d="M-4.3 -22.75 L-6.15 -20.95 -8.55 -22.45 -9.9 -21.05 -7.45 -19.3 -6.85 -19.25 -5.1 -21.2 -3.8 -20.3 -2.1 -21.6 -4.3 -22.75" fill="none" stroke="#ff5900" stroke-linecap="round" stroke-linejoin="round" stroke-opacity="0.5019608" stroke-width="3.0"/>
    <path d="M10.6 -19.5 L8.2 -14.95 9.8 -16.45 9.95 -17.6 12.65 -16.05 13.95 -17.55 10.6 -19.5 M13.35 -2.95 L15.35 -4.55 14.7 -4.6 13.35 -2.95 M11.45 -10.1 L8.25 -6.75 M20.3 18.95 L18.3 19.05 18.35 18.25 16.7 19.45 16.7 20.55 18.7 20.45 18.75 22.45 20.3 20.75 20.3 18.95 M5.3 3.6 L4.85 3.15 3.45 4.7 3.8 5.35 2.7 6.85 5.4 4.3 5.3 3.6 M0.4 5.15 L3.0 4.35 4.2 2.8 Q1.55 2.9 0.15 5.1 L0.4 5.15 M9.75 21.35 L7.3 23.9 6.55 23.9 9.75 21.35 9.85 21.2 9.9 20.6 9.45 20.15 12.7 15.45 13.5 15.85 15.7 15.2 16.75 16.85 15.15 18.25 Q14.9 21.45 12.7 23.65 L13.8 18.5 12.15 17.9 12.15 18.75 9.85 21.2 M14.15 22.75 L15.2 24.05 16.75 22.65 16.05 21.2 15.35 21.2 13.2 23.85 14.15 22.75 M2.55 14.15 Q4.65 13.6 3.9 12.35 L2.55 14.15 M7.35 30.95 L5.55 33.15 7.15 31.8 7.35 30.95 M7.45 28.05 L8.45 28.15 9.35 26.65 7.45 28.05 M22.9 34.05 L24.2 33.3 Q24.9 32.75 24.05 31.9 L23.45 31.85 20.9 33.95 22.55 33.5 22.9 34.05 M28.7 45.35 Q28.7 45.85 29.3 46.2 29.85 46.55 30.65 46.55 L32.05 46.2 Q32.6 45.85 32.6 45.35 32.6 44.85 32.05 44.5 31.45 44.15 30.65 44.15 29.85 44.15 29.3 44.5 28.7 44.85 28.7 45.35 M22.0 58.2 L19.6 58.0 16.75 61.65 18.3 60.7 18.3 59.75 20.4 59.7 22.0 58.2 M10.5 51.2 L12.05 49.65 Q10.35 48.9 10.4 51.0 L10.5 51.2 M4.6 63.9 Q2.25 65.8 2.85 68.8 L3.05 69.2 4.8 67.8 4.4 67.35 4.6 63.9 M2.65 73.15 L4.35 74.75 7.3 73.45 8.9 74.2 10.3 71.45 7.6 71.6 6.55 72.45 2.35 70.25 -1.35 72.1 -1.05 69.75 -2.5 71.35 -2.55 72.2 -3.55 71.05 -5.1 72.6 -5.9 72.1 -7.45 72.15 -8.8 73.55 -7.45 74.0 -7.45 76.0 -4.8 77.95 -3.45 76.55 -4.9 75.35 -3.7 74.7 -3.2 75.7 -1.95 74.6 -1.25 74.5 -0.25 73.4 1.15 73.95 2.65 73.15 M17.0 73.1 L16.05 68.95 16.85 68.05 14.45 69.85 Q15.85 72.5 14.95 75.0 L14.25 76.75 16.2 74.85 16.45 75.75 17.85 74.6 18.0 72.4 17.0 73.1 M13.15 80.7 Q13.0 76.75 9.45 75.2 L8.35 74.75 6.95 76.2 Q11.35 77.65 11.45 82.25 L13.15 80.7 M1.55 79.1 Q3.25 83.1 -0.7 85.65 L-0.95 85.95 Q4.65 83.3 2.95 77.6 L1.55 79.1 M3.3 77.9 L7.6 82.6 6.65 85.55 Q7.75 85.45 8.9 82.95 9.4 81.8 9.05 80.65 L4.85 76.55 3.3 77.9 M24.2 77.8 L22.6 79.2 23.55 82.45 19.3 86.2 Q26.3 84.1 24.35 77.85 L24.2 77.8 M-16.95 -3.15 L-14.0 -1.05 -12.65 -2.5 -15.55 -4.75 -16.95 -3.15 M-0.35 -10.95 L-0.85 -12.7 -2.3 -11.05 -1.95 -9.7 -0.35 -10.95 M-6.0 8.75 L-4.65 7.25 Q-4.9 4.6 -2.9 3.05 -6.35 4.5 -6.1 8.2 L-6.0 8.75 M-10.7 12.1 L-8.9 10.2 -10.5 11.25 -10.7 12.1 M-12.15 16.25 L-11.2 17.6 Q-14.45 20.7 -13.1 25.35 L-11.7 23.75 -11.55 18.8 -10.2 17.9 -8.65 15.0 -9.6 15.95 -10.65 14.6 -13.15 15.05 -13.9 14.35 -15.3 15.8 -14.7 16.55 -12.15 16.25 M-18.45 21.8 L-19.8 20.9 -18.6 20.45 -17.3 18.85 -21.55 21.6 -20.5 23.2 -19.8 23.2 -18.45 21.8 M-7.65 22.85 L-9.05 24.3 -7.05 24.1 -6.8 25.05 -5.2 23.45 -5.45 22.6 -7.65 22.85 M-21.7 46.6 L-25.8 49.05 -25.65 50.05 -23.05 48.05 -21.7 46.6 M-4.3 32.55 L-3.7 34.0 -1.95 32.15 -2.45 31.15 -4.3 32.55 M-12.05 32.05 L-10.7 29.55 -13.45 31.8 -13.3 33.95 -11.65 32.55 -12.05 32.05 M-19.05 31.8 L-20.55 33.3 Q-18.75 33.4 -17.65 32.25 L-17.15 31.5 -19.05 31.8 M-7.05 65.8 Q-6.4 69.1 -8.2 71.8 L-8.05 71.8 Q-4.4 68.7 -5.65 64.25 L-7.05 65.8 M-9.35 86.0 L-6.0 83.4 -4.05 85.6 -7.55 88.55 Q-3.55 87.15 -2.85 83.5 L-2.8 83.15 -6.55 80.85 -9.65 80.0 -11.05 81.45 -7.55 83.6 -9.35 86.0 M-15.2 77.3 L-13.85 79.2 -12.45 77.7 -13.55 75.2 -15.2 77.3 Z" fill="none" stroke="#ff5900" stroke-linecap="round" stroke-linejoin="round" stroke-opacity="0.5019608" stroke-width="3.0"/>
  </g>
</svg>
