<?xml version="1.0" encoding="UTF-8" standalone="no"?>
<svg xmlns:ffdec="https://www.free-decompiler.com/flash" xmlns:xlink="http://www.w3.org/1999/xlink" ffdec:objectType="shape" height="116.7px" width="59.65px" xmlns="http://www.w3.org/2000/svg">
  <g transform="matrix(1.0, 0.0, 0.0, 1.0, 25.4, 26.9)">
    <path d="M8.7 -16.45 L8.7 -17.2 10.25 -18.2 8.3 -15.05 7.05 -14.95 6.45 -16.35 7.85 -17.9 8.7 -16.45 M-13.15 76.75 L-11.15 77.3 -12.45 78.7 -14.5 78.35 -13.15 76.75 M-8.85 83.8 L-8.35 84.3 -7.05 83.5 -8.0 84.7 -6.5 86.3 -5.4 86.1 -6.7 87.7 -8.05 87.8 -9.95 85.9 -13.05 88.2 -9.55 83.75 -8.85 83.8 M-9.4 70.2 L-8.15 69.9 -6.05 67.35 -6.75 68.65 Q-8.8 72.3 -11.55 70.85 -10.3 68.65 -9.4 70.2 M-11.25 32.35 Q-10.9 32.7 -10.9 33.2 -10.9 33.7 -11.25 34.1 -11.6 34.45 -12.1 34.45 L-12.95 34.1 -13.3 33.2 Q-13.3 32.7 -12.95 32.35 -12.6 31.95 -12.1 31.95 -11.6 31.95 -11.25 32.35 M-23.9 47.85 L-22.9 46.75 -20.7 47.1 -22.1 48.55 -23.9 47.85 M-8.2 18.55 L-9.9 16.7 -8.8 15.1 -6.45 17.3 -8.2 18.55 M-7.05 24.0 L-5.3 22.85 -6.5 25.15 -7.05 24.0 M-16.8 20.65 L-15.4 21.35 -16.7 22.8 -18.4 22.15 -18.6 20.45 -19.7 20.55 -18.25 19.05 -17.15 18.9 -16.8 20.65 M-14.45 16.3 L-15.15 15.65 -16.55 17.2 -14.3 13.5 -12.95 14.75 -12.2 14.8 -13.7 16.3 -14.45 16.3 M-3.4 9.1 L-4.45 9.2 -5.95 7.7 -4.55 6.1 -2.9 7.7 -2.1 7.6 -3.4 9.1 M-13.55 -3.25 L-12.95 -3.25 -11.7 -1.15 -13.45 0.45 -14.95 -1.8 -13.55 -3.25 M-1.55 -12.6 L-0.7 -12.55 -2.55 -11.0 -3.2 -11.05 -1.55 -12.6 M-7.65 -25.4 L-6.7 -25.4 -8.35 -23.75 -7.65 -22.7 -9.25 -21.25 -10.05 -23.25 -7.65 -25.4 M18.05 85.6 L16.3 87.3 18.2 83.75 22.05 84.1 20.65 85.6 18.05 85.6 M2.2 82.25 L1.05 85.45 3.35 86.8 2.05 88.2 0.95 88.3 -0.45 87.2 Q-0.35 84.05 2.2 82.25 M8.45 80.9 L7.05 85.1 9.05 86.7 7.65 88.2 6.9 87.25 Q5.75 84.65 6.8 82.05 L8.45 80.9 M11.8 83.45 L10.4 84.95 8.95 84.1 13.3 79.35 10.55 82.55 11.8 83.45 M17.85 73.75 L18.15 74.0 Q18.9 75.45 16.9 75.7 L16.7 75.4 Q16.9 73.9 17.85 73.75 M2.7 72.5 L7.85 73.1 Q6.6 75.45 4.05 74.9 L2.35 74.6 -3.15 76.1 -1.6 76.25 -3.1 77.95 -5.55 77.05 -3.7 75.7 -5.55 75.8 -2.9 73.5 -2.8 72.65 -1.4 71.1 -1.7 74.05 -0.55 74.4 2.7 72.5 M7.15 68.2 L7.85 67.6 5.95 69.7 2.7 68.15 4.35 66.7 7.15 68.2 M10.6 51.35 L11.95 49.85 Q12.35 50.35 11.9 50.9 11.05 52.0 10.6 51.35 M22.15 61.5 L20.35 59.55 19.7 59.45 21.1 58.0 22.05 58.1 23.55 60.0 22.15 61.5 M22.3 68.45 L20.7 69.8 Q19.0 68.05 16.65 68.25 L16.8 69.35 15.3 71.0 Q14.75 68.15 17.95 66.6 20.7 66.35 22.3 68.45 M30.6 45.9 L31.95 44.5 Q32.6 44.7 32.7 45.45 L32.75 45.55 31.4 47.25 31.05 46.95 31.0 46.85 30.7 46.05 30.6 45.9 M23.7 32.35 L24.4 32.5 22.7 33.9 23.7 32.35 M18.75 18.75 Q19.3 19.3 19.85 18.9 L18.55 20.3 17.05 20.2 19.45 16.7 20.75 16.85 18.75 18.75 M17.95 22.45 L15.3 24.15 14.45 23.8 16.35 22.4 17.95 22.45 M15.7 15.45 L16.45 15.45 16.9 16.35 15.5 18.3 16.1 18.95 14.4 20.3 13.7 19.45 15.2 17.3 13.8 18.15 13.05 18.15 11.55 14.9 14.6 11.7 13.2 13.4 14.6 16.65 15.7 15.45 M9.8 20.05 L7.75 21.1 Q9.1 19.75 10.65 18.75 10.8 18.6 11.15 18.75 L9.95 20.75 9.8 20.05 M3.45 5.0 L2.8 4.35 4.2 2.9 5.55 3.95 4.15 5.45 4.55 6.1 2.95 7.6 2.55 6.95 3.45 5.0 M14.0 -3.15 L15.05 -4.6 15.3 -4.55 Q15.45 -3.3 14.0 -3.15 M9.8 -8.3 L10.05 -9.3 10.95 -11.0 11.65 -10.9 11.65 -10.05 9.8 -8.3" fill="#ff9900" fill-rule="evenodd" stroke="none"/>
    <path d="M8.7 -16.45 L7.85 -17.9 6.45 -16.35 7.05 -14.95 8.3 -15.05 10.25 -18.2 8.7 -17.2 8.7 -16.45" fill="none" stroke="#ff5900" stroke-linecap="round" stroke-linejoin="round" stroke-opacity="0.5019608" stroke-width="3.0"/>
    <path d="M9.8 -8.3 L11.65 -10.05 11.65 -10.9 10.95 -11.0 10.05 -9.3 9.8 -8.3 M14.0 -3.15 Q15.45 -3.3 15.3 -4.55 L15.05 -4.6 14.0 -3.15 M3.45 5.0 L2.55 6.95 2.95 7.6 4.55 6.1 4.15 5.45 5.55 3.95 4.2 2.9 2.8 4.35 3.45 5.0 M9.8 20.05 L9.95 20.75 11.15 18.75 Q10.8 18.6 10.65 18.75 9.1 19.75 7.75 21.1 L9.8 20.05 M15.7 15.45 L14.6 16.65 13.2 13.4 14.6 11.7 11.55 14.9 13.05 18.15 13.8 18.15 15.2 17.3 13.7 19.45 14.4 20.3 16.1 18.95 15.5 18.3 16.9 16.35 16.45 15.45 15.7 15.45 M17.95 22.45 L16.35 22.4 14.45 23.8 15.3 24.15 17.95 22.45 M18.75 18.75 L20.75 16.85 19.45 16.7 17.05 20.2 18.55 20.3 19.85 18.9 Q19.3 19.3 18.75 18.75 M23.7 32.35 L22.7 33.9 24.4 32.5 23.7 32.35 M30.6 45.9 L30.7 46.05 31.0 46.85 31.05 46.95 31.4 47.25 32.75 45.55 32.7 45.45 Q32.6 44.7 31.95 44.5 L30.6 45.9 M22.3 68.45 Q20.7 66.35 17.95 66.6 14.75 68.15 15.3 71.0 L16.8 69.35 16.65 68.25 Q19.0 68.05 20.7 69.8 L22.3 68.45 M22.15 61.5 L23.55 60.0 22.05 58.1 21.1 58.0 19.7 59.45 20.35 59.55 22.15 61.5 M10.6 51.35 Q11.05 52.0 11.9 50.9 12.35 50.35 11.95 49.85 L10.6 51.35 M7.15 68.2 L4.35 66.7 2.7 68.15 5.95 69.7 7.85 67.6 7.15 68.2 M2.7 72.5 L-0.55 74.4 -1.7 74.05 -1.4 71.1 -2.8 72.65 -2.9 73.5 -5.55 75.8 -3.7 75.7 -5.55 77.05 -3.1 77.95 -1.6 76.25 -3.15 76.1 2.35 74.6 4.05 74.9 Q6.6 75.45 7.85 73.1 L2.7 72.5 M17.85 73.75 Q16.9 73.9 16.7 75.4 L16.9 75.7 Q18.9 75.45 18.15 74.0 L17.85 73.75 M11.8 83.45 L10.55 82.55 13.3 79.35 8.95 84.1 10.4 84.95 11.8 83.45 M8.45 80.9 L6.8 82.05 Q5.75 84.65 6.9 87.25 L7.65 88.2 9.05 86.7 7.05 85.1 8.45 80.9 M2.2 82.25 Q-0.35 84.05 -0.45 87.2 L0.95 88.3 2.05 88.2 3.35 86.8 1.05 85.45 2.2 82.25 M18.05 85.6 L20.65 85.6 22.05 84.1 18.2 83.75 16.3 87.3 18.05 85.6 M-7.65 -25.4 L-10.05 -23.25 -9.25 -21.25 -7.65 -22.7 -8.35 -23.75 -6.7 -25.4 -7.65 -25.4 M-1.55 -12.6 L-3.2 -11.05 -2.55 -11.0 -0.7 -12.55 -1.55 -12.6 M-13.55 -3.25 L-14.95 -1.8 -13.45 0.45 -11.7 -1.15 -12.95 -3.25 -13.55 -3.25 M-3.4 9.1 L-2.1 7.6 -2.9 7.7 -4.55 6.1 -5.95 7.7 -4.45 9.2 -3.4 9.1 M-14.45 16.3 L-13.7 16.3 -12.2 14.8 -12.95 14.75 -14.3 13.5 -16.55 17.2 -15.15 15.65 -14.45 16.3 M-16.8 20.65 L-17.15 18.9 -18.25 19.05 -19.7 20.55 -18.6 20.45 -18.4 22.15 -16.7 22.8 -15.4 21.35 -16.8 20.65 M-7.05 24.0 L-6.5 25.15 -5.3 22.85 -7.05 24.0 M-8.2 18.55 L-6.45 17.3 -8.8 15.1 -9.9 16.7 -8.2 18.55 M-23.9 47.85 L-22.1 48.55 -20.7 47.1 -22.9 46.75 -23.9 47.85 M-11.25 32.35 Q-11.6 31.95 -12.1 31.95 -12.6 31.95 -12.95 32.35 -13.3 32.7 -13.3 33.2 L-12.95 34.1 -12.1 34.45 Q-11.6 34.45 -11.25 34.1 -10.9 33.7 -10.9 33.2 -10.9 32.7 -11.25 32.35 M-9.4 70.2 Q-10.3 68.65 -11.55 70.85 -8.8 72.3 -6.75 68.65 L-6.05 67.35 -8.15 69.9 -9.4 70.2 M-8.85 83.8 L-9.55 83.75 -13.05 88.2 -9.95 85.9 -8.05 87.8 -6.7 87.7 -5.4 86.1 -6.5 86.3 -8.0 84.7 -7.05 83.5 -8.35 84.3 -8.85 83.8 M-13.15 76.75 L-14.5 78.35 -12.45 78.7 -11.15 77.3 -13.15 76.75 Z" fill="none" stroke="#ff5900" stroke-linecap="round" stroke-linejoin="round" stroke-opacity="0.5019608" stroke-width="3.0"/>
  </g>
</svg>
