<?xml version="1.0" encoding="UTF-8" standalone="no"?>
<svg xmlns:ffdec="https://www.free-decompiler.com/flash" xmlns:xlink="http://www.w3.org/1999/xlink" ffdec:objectType="shape" height="118.75px" width="54.1px" xmlns="http://www.w3.org/2000/svg">
  <g transform="matrix(1.0, 0.0, 0.0, 1.0, 19.3, 27.15)">
    <path d="M18.55 86.85 L18.95 87.05 19.1 87.9 16.85 88.6 Q16.05 85.95 18.35 84.0 17.2 85.95 18.55 86.85 M4.1 74.7 L4.55 75.35 2.9 76.8 -0.7 76.75 -0.35 77.4 -1.95 78.85 -2.7 77.85 -3.45 77.7 -2.05 76.25 -1.3 76.3 -0.2 75.15 4.1 74.7 M10.9 82.9 L14.9 82.05 9.1 87.85 6.7 87.7 8.05 86.3 9.8 86.35 10.95 84.7 9.55 84.3 10.9 82.9 M8.6 64.1 Q9.1 65.25 8.1 66.6 6.95 68.2 5.45 69.2 7.2 67.75 7.25 65.65 L8.6 64.1 M21.8 60.6 Q23.0 58.05 23.65 59.6 L22.15 61.45 21.8 60.6 M21.75 68.05 L22.05 69.6 21.35 71.3 20.05 72.75 20.4 69.9 19.05 68.95 20.45 67.5 21.75 68.05 M33.0 45.45 L33.3 46.25 33.0 47.1 32.2 47.4 Q31.75 47.4 31.45 47.1 31.1 46.75 31.1 46.25 31.1 45.75 31.45 45.45 31.75 45.1 32.2 45.1 32.65 45.1 33.0 45.45 M17.8 17.65 L17.55 18.4 13.8 19.9 17.2 16.45 17.8 17.65 M8.8 19.9 Q10.6 18.3 9.45 19.55 L9.9 20.95 8.05 23.55 8.3 22.45 7.8 21.05 8.8 19.9 M4.3 5.95 L3.95 5.1 5.5 4.1 4.3 5.95 M15.95 7.65 L16.3 8.75 11.75 15.0 15.95 7.65 M21.05 16.5 L20.6 18.45 19.25 19.65 19.4 18.05 21.05 16.5 M8.05 -17.3 L6.5 -15.8 8.1 -19.65 8.05 -17.3 M10.05 -9.65 L9.45 -9.55 10.7 -11.1 11.35 -11.05 10.05 -9.65 M-7.6 -25.45 L-5.55 -25.65 -4.95 -25.2 -4.55 -23.9 -5.9 -22.75 -7.15 -24.15 -8.95 -24.05 -7.6 -25.45 M-11.95 88.6 L-13.8 89.35 -15.8 88.1 -14.15 86.3 -12.55 87.75 -10.7 85.8 -10.4 87.6 -7.2 88.55 -9.1 90.1 -11.95 88.6 M-10.95 70.7 L-11.7 70.7 Q-13.0 67.35 -9.9 65.25 L-10.65 66.2 -10.15 69.2 -10.95 70.7 M-12.55 34.05 Q-10.9 31.05 -11.2 32.9 L-13.05 34.8 -12.55 34.05 M-9.45 17.45 L-7.65 16.05 -6.3 17.3 -3.9 16.55 Q-5.2 18.8 -7.85 18.8 L-9.45 17.45 M-16.4 21.0 L-15.3 21.05 -16.8 22.6 -17.8 22.45 -16.4 21.0 M-12.8 16.1 L-11.7 17.3 -12.8 18.55 -16.55 17.45 -16.55 16.55 -15.15 15.0 -14.95 15.95 -12.8 16.1 M-12.8 0.5 L-14.25 1.65 -12.15 -1.75 Q-11.9 -0.5 -12.8 0.5 M-0.8 6.75 L-2.05 8.3 -4.05 8.95 -0.8 6.75" fill="#ff9900" fill-rule="evenodd" stroke="none"/>
    <path d="M-7.6 -25.45 L-8.95 -24.05 -7.15 -24.15 -5.9 -22.75 -4.55 -23.9 -4.95 -25.2 -5.55 -25.65 -7.6 -25.45" fill="none" stroke="#ff5900" stroke-linecap="round" stroke-linejoin="round" stroke-opacity="0.5019608" stroke-width="3.0"/>
    <path d="M10.05 -9.65 L11.35 -11.05 10.7 -11.1 9.45 -9.55 10.05 -9.65 M8.05 -17.3 L8.1 -19.65 6.5 -15.8 8.05 -17.3 M21.05 16.5 L19.4 18.05 19.25 19.65 20.6 18.45 21.05 16.5 M15.95 7.65 L11.75 15.0 16.3 8.75 15.95 7.65 M4.3 5.95 L5.5 4.1 3.95 5.1 4.3 5.95 M8.8 19.9 L7.8 21.05 8.3 22.45 8.05 23.55 9.9 20.95 9.45 19.55 Q10.6 18.3 8.8 19.9 M17.8 17.65 L17.2 16.45 13.8 19.9 17.55 18.4 17.8 17.65 M33.0 45.45 Q32.65 45.1 32.2 45.1 31.75 45.1 31.45 45.45 31.1 45.75 31.1 46.25 31.1 46.75 31.45 47.1 31.75 47.4 32.2 47.4 L33.0 47.1 33.3 46.25 33.0 45.45 M21.75 68.05 L20.45 67.5 19.05 68.95 20.4 69.9 20.05 72.75 21.35 71.3 22.05 69.6 21.75 68.05 M21.8 60.6 L22.15 61.45 23.65 59.6 Q23.0 58.05 21.8 60.6 M8.6 64.1 L7.25 65.65 Q7.2 67.75 5.45 69.2 6.95 68.2 8.1 66.6 9.1 65.25 8.6 64.1 M10.9 82.9 L9.55 84.3 10.95 84.7 9.8 86.35 8.05 86.3 6.7 87.7 9.1 87.85 14.9 82.05 10.9 82.9 M4.1 74.7 L-0.2 75.15 -1.3 76.3 -2.05 76.25 -3.45 77.7 -2.7 77.85 -1.95 78.85 -0.35 77.4 -0.7 76.75 2.9 76.8 4.55 75.35 4.1 74.7 M18.55 86.85 Q17.2 85.95 18.35 84.0 16.05 85.95 16.85 88.6 L19.1 87.9 18.95 87.05 18.55 86.85 M5.45 83.75 L1.15 88.05 M-0.8 6.75 L-4.05 8.95 -2.05 8.3 -0.8 6.75 M-12.8 0.5 Q-11.9 -0.5 -12.15 -1.75 L-14.25 1.65 -12.8 0.5 M-12.8 16.1 L-14.95 15.95 -15.15 15.0 -16.55 16.55 -16.55 17.45 -12.8 18.55 -11.7 17.3 -12.8 16.1 M-16.4 21.0 L-17.8 22.45 -16.8 22.6 -15.3 21.05 -16.4 21.0 M-9.45 17.45 L-7.85 18.8 Q-5.2 18.8 -3.9 16.55 L-6.3 17.3 -7.65 16.05 -9.45 17.45 M-12.55 34.05 L-13.05 34.8 -11.2 32.9 Q-10.9 31.05 -12.55 34.05 M-10.95 70.7 L-10.15 69.2 -10.65 66.2 -9.9 65.25 Q-13.0 67.35 -11.7 70.7 L-10.95 70.7 M-11.95 88.6 L-9.1 90.1 -7.2 88.55 -10.4 87.6 -10.7 85.8 -12.55 87.75 -14.15 86.3 -15.8 88.1 -13.8 89.35 -11.95 88.6 M-1.3 71.85 L-4.75 76.75" fill="none" stroke="#ff5900" stroke-linecap="round" stroke-linejoin="round" stroke-opacity="0.5019608" stroke-width="3.0"/>
  </g>
</svg>
