<?xml version="1.0" encoding="UTF-8" standalone="no"?>
<svg xmlns:ffdec="https://www.free-decompiler.com/flash" xmlns:xlink="http://www.w3.org/1999/xlink" ffdec:objectType="shape" height="119.5px" width="41.0px" xmlns="http://www.w3.org/2000/svg">
  <g transform="matrix(1.0, 0.0, 0.0, 1.0, 16.9, 26.45)">
    <path d="M-5.6 -21.75 L-6.25 -23.6 -4.5 -24.95 -4.2 -23.35 -5.6 -21.75 M-3.05 72.25 L-2.85 72.8 -1.6 72.35 -4.4 74.35 -4.8 73.35 -3.05 72.25 M-11.95 16.45 L-12.0 16.85 Q-12.95 19.65 -13.95 17.8 L-11.95 16.45 M-3.65 13.6 L-3.7 15.85 -6.55 18.3 -5.2 16.9 -5.2 15.3 -3.65 13.6 M14.95 81.4 Q14.45 82.95 13.05 83.8 L13.15 83.0 9.95 85.95 9.95 84.65 11.95 82.5 13.3 82.55 13.2 80.6 14.6 79.1 Q15.3 80.15 14.95 81.4 M7.85 63.0 L8.3 64.35 Q7.9 65.8 6.8 65.5 L6.55 65.45 7.85 63.0 M20.65 70.65 L20.95 70.35 Q21.55 70.9 22.4 71.3 L22.6 71.35 21.55 72.5 21.3 72.8 Q20.3 72.8 19.55 71.95 L20.65 70.65 M16.8 23.4 L16.95 22.65 18.45 21.25 16.8 23.4 M14.5 10.25 L14.7 9.45 13.55 7.5 14.95 5.9 16.3 8.35 14.5 10.25 M20.4 17.65 Q20.9 17.65 21.3 18.05 21.65 18.4 21.65 18.95 21.65 19.5 21.3 19.9 L20.4 20.25 Q19.9 20.25 19.55 19.9 19.15 19.5 19.15 18.95 19.15 18.4 19.55 18.05 19.9 17.65 20.4 17.65 M-7.05 88.1 L-6.45 89.25 Q-7.05 91.1 -9.1 91.55 L-9.7 91.55 -8.2 90.25 -9.8 89.45 -8.4 88.0 -7.05 88.1 M-14.05 85.35 L-14.1 84.7 -12.3 83.7 -13.85 85.8 -13.4 86.95 Q-14.4 89.25 -15.4 87.85 L-14.05 85.35 M-5.2 76.55 L-6.05 76.45 -3.9 75.1 -5.2 76.55 M-2.3 79.35 L-2.05 78.35 -0.3 77.3 -2.3 79.35 M18.7 88.2 L17.05 88.05 18.55 86.45 19.3 86.9 20.05 86.8 18.7 88.2" fill="#ff9900" fill-rule="evenodd" stroke="none"/>
    <path d="M-5.6 -21.75 L-4.2 -23.35 -4.5 -24.95 -6.25 -23.6 -5.6 -21.75" fill="none" stroke="#ff5900" stroke-linecap="round" stroke-linejoin="round" stroke-opacity="0.5019608" stroke-width="3.0"/>
    <path d="M-3.65 13.6 L-5.2 15.3 -5.2 16.9 -6.55 18.3 -3.7 15.85 -3.65 13.6 M-11.95 16.45 L-13.95 17.8 Q-12.95 19.65 -12.0 16.85 L-11.95 16.45 M-3.05 72.25 L-4.8 73.35 -4.4 74.35 -1.6 72.35 -2.85 72.8 -3.05 72.25 M-8.55 62.55 L-12.2 67.95 M-2.3 79.35 L-0.3 77.3 -2.05 78.35 -2.3 79.35 M-5.2 76.55 L-3.9 75.1 -6.05 76.45 -5.2 76.55 M-14.05 85.35 L-15.4 87.85 Q-14.4 89.25 -13.4 86.95 L-13.85 85.8 -12.3 83.7 -14.1 84.7 -14.05 85.35 M-7.05 88.1 L-8.4 88.0 -9.8 89.45 -8.2 90.25 -9.7 91.55 -9.1 91.55 Q-7.05 91.1 -6.45 89.25 L-7.05 88.1 M20.4 17.65 Q19.9 17.65 19.55 18.05 19.15 18.4 19.15 18.95 19.15 19.5 19.55 19.9 19.9 20.25 20.4 20.25 L21.3 19.9 Q21.65 19.5 21.65 18.95 21.65 18.4 21.3 18.05 20.9 17.65 20.4 17.65 M14.5 10.25 L16.3 8.35 14.95 5.9 13.55 7.5 14.7 9.45 14.5 10.25 M16.8 23.4 L18.45 21.25 16.95 22.65 16.8 23.4 M20.65 70.65 L19.55 71.95 Q20.3 72.8 21.3 72.8 L21.55 72.5 22.6 71.35 22.4 71.3 Q21.55 70.9 20.95 70.35 L20.65 70.65 M7.85 63.0 L6.55 65.45 6.8 65.5 Q7.9 65.8 8.3 64.35 L7.85 63.0 M14.95 81.4 Q15.3 80.15 14.6 79.1 L13.2 80.6 13.3 82.55 11.95 82.5 9.95 84.65 9.95 85.95 13.15 83.0 13.05 83.8 Q14.45 82.95 14.95 81.4 M6.85 82.6 L2.8 86.45 M18.7 88.2 L20.05 86.8 19.3 86.9 18.55 86.45 17.05 88.05 18.7 88.2 Z" fill="none" stroke="#ff5900" stroke-linecap="round" stroke-linejoin="round" stroke-opacity="0.5019608" stroke-width="3.0"/>
  </g>
</svg>
