<?xml version="1.0" encoding="UTF-8" standalone="no"?>
<svg xmlns:ffdec="https://www.free-decompiler.com/flash" xmlns:xlink="http://www.w3.org/1999/xlink" ffdec:objectType="shape" height="118.4px" width="38.1px" xmlns="http://www.w3.org/2000/svg">
  <g transform="matrix(1.0, 0.0, 0.0, 1.0, 15.8, 25.15)">
    <path d="M17.95 88.05 L19.3 86.65 20.8 86.3 19.4 87.75 17.95 88.05 M6.6 82.5 Q7.5 82.5 8.0 83.2 L8.1 83.3 7.25 84.35 6.75 84.85 5.6 84.15 5.2 83.95 6.2 82.95 6.6 82.5 M13.4 81.0 L14.9 78.75 14.8 79.4 13.4 81.0 M14.5 82.9 Q15.05 85.05 12.95 86.1 L12.95 84.75 12.2 83.8 13.6 82.35 Q14.3 82.25 14.5 82.9 M6.7 64.15 L8.45 62.05 8.35 63.1 6.7 64.15 M13.9 8.0 L15.45 4.9 15.55 6.5 13.9 8.0 M18.85 15.65 L17.6 17.15 Q16.15 17.05 18.85 15.65 M8.7 -20.15 L9.35 -20.15 8.0 -18.7 7.3 -18.7 8.7 -20.15 M-4.3 -23.65 Q-4.3 -22.7 -5.6 -21.7 -5.6 -22.65 -4.3 -23.65 M-12.65 83.4 L-12.45 84.1 -14.05 85.45 -14.3 84.45 -12.65 83.4 M-9.8 91.0 Q-8.8 89.45 -6.95 89.6 L-10.15 91.75 -9.8 91.0 M-3.05 71.25 L-3.0 72.5 -4.5 73.95 -4.7 72.85 -3.05 71.25 M-10.7 63.5 L-11.45 62.55 -10.15 61.0 -9.2 61.85 -9.1 63.2 -10.7 64.7 -10.7 63.5" fill="#ff9900" fill-rule="evenodd" stroke="none"/>
    <path d="M-4.3 -23.65 Q-5.6 -22.65 -5.6 -21.7 -4.3 -22.7 -4.3 -23.65" fill="none" stroke="#ff5900" stroke-linecap="round" stroke-linejoin="round" stroke-opacity="0.5019608" stroke-width="3.0"/>
    <path d="M8.7 -20.15 L7.3 -18.7 8.0 -18.7 9.35 -20.15 8.7 -20.15 M18.85 15.65 Q16.15 17.05 17.6 17.15 L18.85 15.65 M13.9 8.0 L15.55 6.5 15.45 4.9 13.9 8.0 M6.7 64.15 L8.35 63.1 8.45 62.05 6.7 64.15 M14.5 82.9 Q14.3 82.25 13.6 82.35 L12.2 83.8 12.95 84.75 12.95 86.1 Q15.05 85.05 14.5 82.9 M13.4 81.0 L14.8 79.4 14.9 78.75 13.4 81.0 M6.6 82.5 L6.2 82.95 5.2 83.95 5.6 84.15 6.75 84.85 7.25 84.35 8.1 83.3 8.0 83.2 Q7.5 82.5 6.6 82.5 M17.95 88.05 L19.4 87.75 20.8 86.3 19.3 86.65 17.95 88.05 M-10.7 63.5 L-10.7 64.7 -9.1 63.2 -9.2 61.85 -10.15 61.0 -11.45 62.55 -10.7 63.5 M-3.05 71.25 L-4.7 72.85 -4.5 73.95 -3.0 72.5 -3.05 71.25 M-9.8 91.0 L-10.15 91.75 -6.95 89.6 Q-8.8 89.45 -9.8 91.0 M-12.65 83.4 L-14.3 84.45 -14.05 85.45 -12.45 84.1 -12.65 83.4 Z" fill="none" stroke="#ff5900" stroke-linecap="round" stroke-linejoin="round" stroke-opacity="0.5019608" stroke-width="3.0"/>
  </g>
</svg>
