<?xml version="1.0" encoding="UTF-8" standalone="no"?>
<svg xmlns:ffdec="https://www.free-decompiler.com/flash" xmlns:xlink="http://www.w3.org/1999/xlink" ffdec:objectType="shape" height="84.0px" width="23.65px" xmlns="http://www.w3.org/2000/svg">
  <g transform="matrix(1.0, 0.0, 0.0, 1.0, 5.55, -3.45)">
    <path d="M11.8 85.95 L13.2 84.5 14.3 84.55 12.9 85.95 11.8 85.95 M6.9 85.2 L6.65 84.85 Q6.3 83.25 8.1 83.3 L8.25 83.6 Q8.4 85.0 6.9 85.2 M14.05 6.7 L16.6 4.95 15.25 6.4 14.05 6.7 M-4.05 14.8 L-1.95 13.3 -3.35 14.75 -4.05 14.8" fill="#ff9900" fill-rule="evenodd" stroke="none"/>
    <path d="M-4.05 14.8 L-3.35 14.75 -1.95 13.3 -4.05 14.8" fill="none" stroke="#ff5900" stroke-linecap="round" stroke-linejoin="round" stroke-opacity="0.5019608" stroke-width="3.0"/>
    <path d="M14.05 6.7 L15.25 6.4 16.6 4.95 14.05 6.7 M6.9 85.2 Q8.4 85.0 8.25 83.6 L8.1 83.3 Q6.3 83.25 6.65 84.85 L6.9 85.2 M11.8 85.95 L12.9 85.95 14.3 84.55 13.2 84.5 11.8 85.95 Z" fill="none" stroke="#ff5900" stroke-linecap="round" stroke-linejoin="round" stroke-opacity="0.5019608" stroke-width="3.0"/>
  </g>
</svg>
