<?xml version="1.0" encoding="UTF-8" standalone="no"?>
<svg xmlns:ffdec="https://www.free-decompiler.com/flash" xmlns:xlink="http://www.w3.org/1999/xlink" ffdec:objectType="shape" height="84.15px" width="22.55px" xmlns="http://www.w3.org/2000/svg">
  <g transform="matrix(1.0, 0.0, 0.0, 1.0, 4.1, -3.4)">
    <path d="M16.2 4.9 L16.95 4.95 15.4 6.45 14.8 6.35 16.2 4.9 M-0.4 70.25 L-2.6 72.0 -1.55 70.6 -0.4 70.25 M13.1 84.6 L13.8 84.6 12.4 86.05 11.7 86.05 13.1 84.6" fill="#ff9900" fill-rule="evenodd" stroke="none"/>
    <path d="M16.2 4.9 L14.8 6.35 15.4 6.45 16.95 4.95 16.2 4.9" fill="none" stroke="#ff5900" stroke-linecap="round" stroke-linejoin="round" stroke-opacity="0.5019608" stroke-width="3.0"/>
    <path d="M13.1 84.6 L11.7 86.05 12.4 86.05 13.8 84.6 13.1 84.6 M-0.4 70.25 L-1.55 70.6 -2.6 72.0 -0.4 70.25 Z" fill="none" stroke="#ff5900" stroke-linecap="round" stroke-linejoin="round" stroke-opacity="0.5019608" stroke-width="3.0"/>
  </g>
</svg>
