<?xml version="1.0" encoding="UTF-8" standalone="no"?>
<svg xmlns:ffdec="https://www.free-decompiler.com/flash" xmlns:xlink="http://www.w3.org/1999/xlink" ffdec:objectType="shape" height="15.95px" width="24.8px" xmlns="http://www.w3.org/2000/svg">
  <g transform="matrix(1.0, 0.0, 0.0, 1.0, 13.0, 13.9)">
    <path d="M0.4 -12.4 Q1.1 -9.85 1.3 -7.0 L1.35 -7.05 1.55 -7.1 1.65 -7.15 Q2.1 -7.15 2.0 -6.75 L1.95 -6.65 1.45 -5.85 Q1.9 -3.15 2.0 -0.25 L1.95 -0.15 1.85 -0.05 1.85 0.1 1.35 0.05 1.1 -1.4 1.05 0.05 Q2.5 0.75 3.8 1.65 3.55 2.15 3.0 2.05 L2.0 1.25 -0.65 0.25 -3.05 0.3 -3.15 0.3 -3.25 0.3 Q-8.25 -6.15 -4.35 -13.4 L-3.75 -13.9 Q-3.35 -13.2 -3.95 -12.05 L-4.1 -11.75 -4.25 -10.95 Q-4.7 -9.0 -4.65 -7.0 -4.55 -3.45 -3.15 -0.3 L-2.95 0.0 -1.95 -0.3 -2.45 -0.5 -2.75 -0.9 -2.8 -1.0 Q-2.05 -4.2 -1.75 -7.45 L-1.6 -7.55 -1.25 -6.25 Q-1.05 -8.3 -1.15 -10.35 -1.15 -10.8 -0.75 -10.9 -0.25 -9.7 -0.35 -8.15 L-0.8 -3.0 0.45 -5.6 0.45 -7.7 0.45 -8.35 -0.15 -11.75 0.0 -11.9 0.35 -10.75 0.35 -12.4 0.4 -12.4 M4.05 -10.1 L2.7 -8.6 Q2.35 -8.25 1.95 -8.35 L1.85 -8.65 1.85 -8.75 4.75 -12.3 Q5.15 -11.3 4.05 -10.1 M3.1 -0.65 L3.1 -0.75 6.25 -4.55 Q6.65 -3.8 5.8 -2.8 L4.95 -1.75 11.5 -5.4 Q11.95 -5.25 11.7 -4.9 L11.6 -4.8 3.85 -0.35 Q3.35 -0.05 3.1 -0.45 L3.1 -0.55 3.1 -0.65 M0.5 -2.65 Q0.0 -1.6 -0.7 -0.7 L0.6 -0.15 0.5 -2.65 M-12.95 -1.85 L-12.8 -2.5 -12.65 -2.55 -11.55 -1.4 -11.6 -1.9 -11.4 -2.05 Q-11.0 -1.95 -10.9 -1.55 L-10.9 -1.45 Q-9.95 -0.25 -8.8 0.3 L-7.65 0.7 -6.9 0.8 -6.75 0.75 Q-6.5 0.4 -6.1 0.5 L-5.95 0.75 -5.3 0.6 -5.2 0.7 -6.45 1.35 -6.55 1.4 -6.75 1.4 -8.85 1.0 Q-11.05 0.25 -12.75 -1.65 L-12.95 -1.85 M-8.55 -7.1 L-8.5 -7.0 -6.55 -4.5 Q-7.7 -4.55 -8.7 -5.85 -9.6 -7.05 -9.0 -7.9 -8.55 -7.65 -8.55 -7.1 M-1.65 -1.05 L-1.5 -3.85 -2.2 -1.25 -1.65 -1.05" fill="#cc0000" fill-rule="evenodd" stroke="none"/>
  </g>
</svg>
