<?xml version="1.0" encoding="UTF-8" standalone="no"?>
<svg xmlns:ffdec="https://www.free-decompiler.com/flash" xmlns:xlink="http://www.w3.org/1999/xlink" ffdec:objectType="shape" height="21.95px" width="33.45px" xmlns="http://www.w3.org/2000/svg">
  <g transform="matrix(1.0, 0.0, 0.0, 1.0, 13.65, 21.4)">
    <path d="M2.6 -19.8 Q3.1 -18.95 1.75 -18.2 L0.45 -17.3 0.6 -16.25 1.6 -7.2 Q2.45 -8.3 3.75 -9.0 L3.9 -9.05 Q4.35 -9.05 4.25 -8.65 L4.2 -8.55 Q2.7 -7.6 1.7 -6.3 0.8 -5.15 0.35 -3.65 L0.25 -3.55 Q-0.35 -4.05 0.2 -4.95 L0.6 -5.4 1.15 -6.55 0.65 -9.55 0.45 -9.7 -0.05 -11.75 -0.65 -8.8 -1.15 -8.85 Q-1.05 -11.5 -0.5 -13.95 L-0.85 -16.15 Q-3.4 -13.65 -4.3 -9.95 L-5.1 -7.1 Q-5.45 -6.95 -5.55 -7.3 L-5.1 -9.7 -5.3 -9.95 Q-4.85 -14.2 -2.6 -17.75 L-2.5 -17.8 Q-2.15 -16.95 -2.9 -15.65 L-4.05 -12.7 -4.05 -12.65 Q-2.9 -15.1 -0.95 -17.05 L-1.3 -21.4 -1.25 -21.4 -0.95 -20.55 -1.05 -21.35 -1.0 -21.4 -0.15 -18.5 -0.15 -19.55 -0.1 -19.55 0.3 -18.2 1.85 -19.4 2.6 -19.8 M3.45 -16.2 L3.45 -16.3 3.6 -16.55 5.45 -17.15 5.9 -17.3 7.5 -17.15 7.55 -17.05 7.55 -17.0 7.35 -16.75 Q5.65 -16.75 4.1 -16.0 3.65 -15.8 3.45 -16.2 M6.7 -5.4 Q8.3 -7.9 10.8 -9.25 L11.0 -9.3 Q11.55 -8.65 10.2 -8.1 9.6 -7.85 9.2 -7.3 8.05 -5.85 6.8 -5.0 6.65 -5.1 6.65 -5.3 L6.7 -5.4 M19.25 -7.4 Q19.7 -7.5 19.8 -7.05 L19.75 -7.0 Q15.4 -6.35 11.2 -4.65 L10.95 -4.7 10.95 -4.8 11.0 -5.05 Q14.8 -6.95 19.0 -7.35 L19.25 -7.4 M-11.75 -13.15 L-11.8 -13.05 Q-12.2 -11.75 -13.2 -11.35 L-13.35 -11.65 -13.3 -11.75 -12.4 -13.3 Q-12.5 -14.0 -12.0 -14.3 -11.5 -13.9 -11.75 -13.15 M-12.45 -2.4 L-12.0 -1.75 -9.7 0.3 Q-9.85 0.65 -10.2 0.5 -13.75 -1.05 -13.65 -4.65 L-13.5 -4.8 -12.45 -2.4 M-2.95 -9.75 Q-1.35 -7.05 -1.5 -3.75 -1.5 -3.6 -1.65 -3.55 L-1.9 -3.65 -2.05 -3.8 Q-2.2 -6.35 -3.0 -8.75 L-3.25 -9.15 -3.6 -9.4 -3.65 -9.55 -3.55 -9.7 -3.35 -9.8 -3.1 -9.8 -2.95 -9.75 M-1.05 -4.05 Q-1.25 -5.7 -0.6 -6.9 -0.1 -5.6 -0.55 -3.95 L-0.6 -3.85 Q-0.95 -3.7 -1.05 -4.05" fill="#cc0000" fill-rule="evenodd" stroke="none"/>
  </g>
</svg>
