<?xml version="1.0" encoding="UTF-8" standalone="no"?>
<svg xmlns:ffdec="https://www.free-decompiler.com/flash" xmlns:xlink="http://www.w3.org/1999/xlink" ffdec:objectType="shape" height="28.6px" width="42.25px" xmlns="http://www.w3.org/2000/svg">
  <g transform="matrix(1.0, 0.0, 0.0, 1.0, 16.8, 30.3)">
    <path d="M5.2 -24.95 L5.4 -25.1 5.5 -25.15 Q7.6 -25.3 8.95 -24.0 L8.95 -23.9 Q7.1 -24.1 5.2 -24.9 L5.2 -24.95 M1.0 -26.9 Q1.55 -25.6 0.9 -23.85 L0.4 -21.95 0.15 -20.3 0.05 -19.45 0.05 -18.65 0.05 -18.45 0.25 -18.65 0.55 -19.6 0.65 -19.65 0.75 -19.1 Q1.6 -19.75 2.75 -20.15 4.65 -20.8 6.6 -21.05 8.15 -21.55 9.05 -20.5 L9.05 -20.45 3.75 -19.8 Q2.05 -19.3 0.8 -18.3 L0.55 -16.75 0.3 -15.3 0.3 -15.05 0.2 -14.9 0.15 -14.55 -0.25 -13.8 Q-0.55 -13.7 -0.65 -14.05 L-0.4 -15.95 -0.5 -17.05 -0.65 -17.15 -0.8 -17.3 -0.8 -17.4 -0.55 -17.75 -0.55 -19.2 -1.15 -23.05 -1.45 -22.1 -2.05 -19.35 Q-2.2 -17.95 -2.7 -16.65 L-3.2 -16.7 Q-2.75 -20.8 -1.55 -24.6 L-1.9 -25.9 -1.85 -25.9 -1.35 -25.15 -1.35 -25.25 -1.25 -25.3 -1.1 -24.65 -0.55 -23.4 Q-0.8 -26.85 -0.55 -30.25 L-0.5 -30.3 Q0.0 -29.25 0.0 -27.8 L0.15 -24.3 0.9 -26.85 1.0 -26.9 M6.15 -9.75 L2.45 -8.7 Q3.45 -9.9 5.4 -10.3 L7.25 -10.65 Q9.25 -10.85 10.5 -9.5 L10.5 -9.4 8.3 -9.8 6.15 -9.75 M16.75 -10.55 Q14.55 -10.25 12.6 -9.15 L12.2 -9.1 12.15 -9.2 12.1 -9.5 Q13.65 -10.45 15.4 -11.0 L16.0 -11.15 16.9 -11.0 16.95 -10.9 16.95 -10.8 16.75 -10.55 M24.4 -7.9 L25.4 -7.75 25.45 -7.65 25.45 -7.55 25.25 -7.3 18.7 -6.95 Q20.5 -7.95 23.15 -7.85 L24.4 -7.9 M-6.35 -13.9 L-5.85 -13.8 -5.7 -13.75 Q-3.8 -11.85 -2.8 -9.25 L-2.7 -9.05 -2.75 -8.7 -2.85 -8.5 Q-3.2 -8.35 -3.3 -8.7 -4.25 -11.75 -6.65 -13.55 L-6.65 -13.65 -6.5 -13.9 -6.35 -13.9 M-16.1 -18.8 Q-15.2 -19.15 -14.8 -18.55 L-14.75 -18.5 -14.7 -18.4 Q-14.7 -18.2 -14.85 -18.1 -16.0 -17.85 -16.8 -18.3 L-16.8 -18.4 -16.65 -18.65 -16.5 -18.65 -16.1 -18.8 M-13.25 -7.15 Q-12.75 -7.25 -12.7 -6.8 L-12.7 -6.75 Q-15.75 -5.15 -13.7 -2.55 L-13.6 -2.35 -13.1 -2.05 -13.1 -2.0 -13.2 -1.8 -13.4 -1.7 -13.95 -1.75 Q-16.65 -4.7 -13.55 -7.05 L-13.25 -7.15 M-0.6 -5.85 L-0.7 -5.75 Q-1.05 -5.6 -1.15 -5.95 -1.25 -6.9 -0.75 -7.4 -0.15 -6.8 -0.6 -5.85" fill="#cc0000" fill-rule="evenodd" stroke="none"/>
  </g>
</svg>
