<?xml version="1.0" encoding="UTF-8" standalone="no"?>
<svg xmlns:ffdec="https://www.free-decompiler.com/flash" xmlns:xlink="http://www.w3.org/1999/xlink" ffdec:objectType="shape" height="32.1px" width="49.2px" xmlns="http://www.w3.org/2000/svg">
  <g transform="matrix(1.0, 0.0, 0.0, 1.0, 19.65, 35.4)">
    <path d="M2.25 -32.65 Q2.75 -31.7 2.2 -30.4 0.75 -27.15 -0.15 -23.75 -0.45 -23.65 -0.55 -23.95 L-0.1 -25.95 -0.3 -26.1 Q-0.85 -30.65 0.4 -34.85 L0.5 -34.9 Q0.95 -34.0 0.65 -32.65 0.1 -30.25 0.25 -27.75 L0.3 -27.3 Q1.05 -30.05 2.15 -32.6 L2.25 -32.65 M9.85 -29.75 L10.15 -29.15 10.1 -28.9 Q8.8 -29.5 7.55 -30.85 7.05 -31.4 7.65 -31.65 L9.7 -29.85 9.85 -29.75 M16.0 -19.45 L16.15 -19.25 16.1 -19.15 16.05 -19.05 15.95 -19.0 15.85 -18.95 Q13.75 -19.1 11.85 -19.9 L11.1 -20.5 6.4 -20.6 6.3 -20.7 Q6.25 -21.1 6.7 -21.2 L8.35 -21.55 Q11.35 -21.2 14.2 -20.05 15.05 -19.65 16.0 -19.45 M7.25 -12.55 Q10.25 -12.75 12.25 -10.75 L12.25 -10.65 Q10.8 -10.8 9.05 -11.7 L7.0 -11.75 Q6.55 -11.55 6.35 -11.95 L6.35 -12.05 6.9 -12.5 7.25 -12.55 M0.4 -19.35 L-0.25 -18.7 Q-0.6 -18.75 -0.55 -19.05 0.1 -20.7 1.4 -21.8 1.85 -21.1 0.95 -20.15 L0.4 -19.35 M17.85 -11.45 L18.05 -11.6 18.15 -11.65 21.25 -11.45 21.45 -11.05 Q19.8 -10.45 17.85 -11.35 L17.85 -11.45 M29.55 -7.5 L29.5 -7.4 29.45 -7.3 29.35 -7.25 29.25 -7.2 24.45 -7.75 24.45 -7.85 24.65 -8.0 24.75 -8.05 29.55 -7.55 29.55 -7.5 M-18.7 -24.85 L-17.85 -24.25 Q-17.65 -24.15 -17.75 -23.9 L-17.75 -23.85 Q-17.85 -23.7 -18.0 -23.7 L-18.2 -23.75 Q-18.8 -24.25 -19.55 -24.4 -19.7 -24.45 -19.65 -24.65 L-19.65 -24.7 -19.35 -24.9 -18.85 -24.9 -18.7 -24.85 M-2.85 -35.35 L-2.75 -35.25 Q-1.6 -31.75 -1.35 -28.05 -0.65 -26.2 -1.0 -23.95 L-1.25 -23.5 -1.4 -23.5 -1.7 -23.7 Q-1.65 -25.9 -1.9 -28.1 -1.95 -28.55 -2.3 -28.85 L-3.0 -29.15 -3.05 -29.3 -3.05 -29.35 -2.75 -29.55 -2.25 -29.55 -2.1 -29.5 -2.05 -29.45 -3.15 -35.3 -3.0 -35.4 -2.85 -35.35 M-4.8 -12.45 L-4.85 -12.35 Q-5.05 -12.1 -5.3 -12.25 -7.3 -15.7 -11.3 -16.05 L-11.3 -16.2 -11.1 -16.35 -11.0 -16.4 Q-6.75 -16.25 -4.8 -12.55 L-4.8 -12.45 M-14.3 -7.65 Q-15.35 -6.95 -16.2 -7.2 -15.8 -7.85 -14.85 -8.1 L-14.65 -8.15 Q-14.15 -8.2 -14.25 -7.75 L-14.3 -7.65 M-15.95 -5.7 L-15.95 -5.65 -16.45 -5.25 -16.35 -3.85 -16.45 -3.4 -16.85 -3.35 -16.95 -3.45 -17.1 -5.05 -17.05 -5.5 -16.4 -6.05 Q-16.0 -6.1 -15.95 -5.7 M-0.7 -6.6 L-0.75 -6.55 Q-1.05 -6.45 -1.15 -6.8 -1.25 -7.25 -0.9 -7.55 L-0.75 -7.65 Q-0.2 -7.25 -0.7 -6.6" fill="#cc0000" fill-rule="evenodd" stroke="none"/>
  </g>
</svg>
