<?xml version="1.0" encoding="UTF-8" standalone="no"?>
<svg xmlns:ffdec="https://www.free-decompiler.com/flash" xmlns:xlink="http://www.w3.org/1999/xlink" ffdec:objectType="shape" height="36.0px" width="50.6px" xmlns="http://www.w3.org/2000/svg">
  <g transform="matrix(1.0, 0.0, 0.0, 1.0, 19.55, 40.05)">
    <path d="M1.25 -39.9 Q1.8 -38.35 1.5 -36.45 L0.65 -33.0 Q0.3 -32.85 0.2 -33.2 L1.1 -39.75 1.25 -39.9 M9.7 -32.55 Q9.6 -33.0 9.8 -33.4 L9.85 -33.55 Q9.45 -34.95 9.65 -36.25 L9.75 -36.3 Q10.85 -34.5 10.15 -32.35 L10.1 -32.3 Q9.8 -32.2 9.7 -32.55 M2.15 -30.85 Q1.8 -30.7 1.7 -31.05 2.35 -35.15 4.75 -38.4 5.1 -37.65 4.45 -36.45 2.9 -33.75 2.15 -30.85 M13.0 -20.65 Q18.35 -20.4 22.1 -16.95 L22.1 -16.9 21.95 -16.75 21.85 -16.7 21.65 -16.75 Q17.9 -19.7 13.0 -20.05 12.65 -20.1 12.7 -20.4 L12.8 -20.55 12.9 -20.6 13.0 -20.65 M1.15 -24.05 Q1.75 -23.75 1.15 -23.35 L1.0 -23.25 0.25 -21.6 0.0 -21.45 Q-0.35 -21.5 -0.3 -21.8 L0.3 -23.3 0.4 -23.55 Q0.7 -23.95 1.15 -24.05 M8.85 -14.4 L8.85 -14.45 9.05 -14.6 9.15 -14.65 Q11.8 -14.25 13.25 -11.95 L13.25 -11.9 13.2 -11.8 13.0 -11.75 12.8 -11.75 Q11.25 -13.65 8.95 -14.15 8.8 -14.2 8.85 -14.4 M28.75 -7.65 Q30.0 -7.75 31.0 -7.15 L31.05 -7.05 31.05 -7.0 30.95 -6.8 30.85 -6.75 28.45 -7.35 28.45 -7.45 28.6 -7.6 28.75 -7.65 M24.45 -11.35 L24.45 -11.3 24.4 -11.2 24.0 -11.05 22.6 -11.1 Q22.35 -11.0 22.2 -11.2 L22.2 -11.3 Q22.2 -11.7 22.65 -11.8 23.85 -12.2 24.45 -11.35 M-2.85 -40.05 Q-2.25 -38.3 -2.2 -36.15 L-1.95 -32.8 Q-1.9 -32.5 -2.15 -32.3 -2.45 -32.2 -2.55 -32.55 -3.3 -36.25 -2.9 -40.0 L-2.85 -40.05 M-19.25 -29.3 L-19.1 -29.3 -18.95 -29.25 -18.1 -28.2 -18.05 -28.05 Q-18.2 -27.7 -18.55 -27.85 L-19.55 -29.0 -19.55 -29.05 -19.4 -29.25 -19.25 -29.3 M-6.2 -30.15 L-6.65 -29.85 -6.85 -29.85 -6.95 -29.95 -6.95 -30.05 -6.95 -30.15 -6.95 -30.25 -6.9 -30.3 -6.4 -30.8 -6.15 -30.9 Q-3.15 -30.8 -1.6 -28.1 L-1.6 -28.05 -1.65 -27.95 Q-1.8 -27.85 -1.9 -27.85 L-2.1 -27.85 -3.3 -29.2 -4.7 -30.25 -6.1 -30.25 -6.2 -30.15 M-8.8 -15.7 Q-9.95 -15.65 -11.4 -16.15 L-12.9 -16.3 Q-14.25 -16.15 -15.05 -16.7 L-15.05 -16.8 -14.95 -16.95 -14.9 -17.05 -14.7 -17.1 -14.5 -17.15 Q-11.25 -17.6 -8.8 -15.75 L-8.8 -15.7 M-17.55 -8.95 L-17.25 -9.45 -16.5 -9.65 -15.4 -9.5 -15.35 -9.4 -15.35 -9.3 -15.55 -9.05 -17.45 -8.85 -17.55 -8.95 M-17.9 -5.65 Q-17.25 -5.15 -18.3 -4.75 L-18.4 -4.65 -18.55 -4.2 -18.6 -4.1 Q-18.95 -3.95 -19.05 -4.3 -19.1 -5.4 -17.9 -5.65 M-0.45 -7.15 L-0.6 -7.05 Q-1.25 -7.45 -0.6 -7.8 -0.05 -7.55 -0.45 -7.15" fill="#cc0000" fill-rule="evenodd" stroke="none"/>
  </g>
</svg>
