<?xml version="1.0" encoding="UTF-8" standalone="no"?>
<svg xmlns:ffdec="https://www.free-decompiler.com/flash" xmlns:xlink="http://www.w3.org/1999/xlink" ffdec:objectType="shape" height="41.05px" width="53.25px" xmlns="http://www.w3.org/2000/svg">
  <g transform="matrix(1.0, 0.0, 0.0, 1.0, 20.95, 45.4)">
    <path d="M11.5 -38.15 Q12.1 -36.6 10.1 -35.5 L9.95 -35.5 9.85 -35.8 9.85 -35.9 11.15 -37.4 Q11.1 -37.85 11.4 -38.1 L11.5 -38.15 M0.75 -43.65 Q1.7 -40.6 1.55 -37.25 L1.5 -37.25 Q1.2 -37.15 1.1 -37.45 0.55 -40.65 0.7 -43.65 L0.75 -43.65 M4.1 -37.9 Q4.9 -40.15 6.9 -41.4 7.25 -40.75 6.25 -39.75 5.1 -38.65 4.35 -37.25 L4.25 -36.85 4.15 -36.75 Q3.8 -36.6 3.7 -36.95 L3.85 -37.6 4.1 -37.9 M1.45 -25.55 L-0.35 -24.3 Q-0.7 -24.35 -0.65 -24.75 0.0 -25.7 1.15 -26.05 1.6 -26.05 1.5 -25.65 L1.45 -25.55 M13.0 -15.5 L12.85 -15.35 12.75 -15.3 Q11.4 -15.15 10.6 -15.8 L10.6 -15.85 10.8 -16.0 10.9 -16.05 13.05 -15.65 13.05 -15.55 13.0 -15.5 M13.8 -14.25 L13.95 -14.15 14.25 -13.7 14.45 -13.4 14.45 -13.3 14.45 -13.25 14.45 -13.15 14.65 -12.95 14.7 -12.65 14.55 -12.55 14.2 -12.5 13.95 -12.7 13.9 -12.8 13.85 -13.0 13.85 -13.05 13.85 -13.15 13.6 -13.45 Q13.45 -13.55 13.45 -13.75 13.15 -13.75 13.0 -13.95 L12.95 -14.15 13.05 -14.3 13.25 -14.4 13.8 -14.25 M22.85 -17.2 L20.95 -18.55 21.15 -18.75 21.25 -18.8 Q24.8 -17.5 26.0 -13.95 L25.95 -13.9 Q24.8 -14.55 23.95 -16.0 L22.85 -17.2 M26.8 -10.85 L26.8 -10.8 26.75 -10.7 26.3 -10.6 25.15 -11.2 25.1 -11.3 25.1 -11.35 Q25.2 -11.55 25.4 -11.55 26.35 -11.65 26.8 -10.85 M32.25 -6.45 L32.3 -6.4 32.2 -6.2 32.0 -6.05 Q31.25 -6.35 30.7 -6.8 L30.7 -6.9 30.8 -7.05 31.0 -7.15 Q31.8 -7.05 32.25 -6.45 M-2.65 -45.1 L-2.6 -45.15 Q-2.15 -43.45 -2.2 -41.4 -2.05 -39.9 -2.35 -38.3 -2.55 -37.35 -2.3 -36.45 -2.2 -36.1 -2.4 -35.8 L-2.9 -35.85 Q-3.2 -39.25 -3.15 -42.7 L-3.2 -43.15 Q-4.25 -44.25 -4.1 -45.35 L-4.0 -45.4 -3.85 -45.35 -3.75 -45.25 -2.9 -43.75 -2.65 -45.1 M-20.1 -34.4 L-19.3 -33.5 -19.3 -33.4 -19.5 -33.25 -19.8 -33.25 Q-20.6 -33.75 -20.2 -34.35 L-20.1 -34.4 M-5.4 -30.4 L-5.35 -30.3 -5.35 -30.25 -5.55 -30.0 -7.05 -29.75 -8.0 -28.35 -8.5 -27.1 -8.65 -27.05 -8.95 -27.3 Q-9.0 -28.75 -7.9 -29.85 -7.2 -30.5 -6.25 -30.55 -5.75 -30.75 -5.4 -30.4 M-20.85 -4.35 L-20.95 -4.55 -20.95 -4.75 -20.5 -5.25 -20.4 -5.3 Q-20.0 -5.35 -19.95 -4.95 L-19.95 -4.9 Q-20.25 -4.5 -20.7 -4.35 L-20.85 -4.35 M-13.9 -16.9 Q-16.4 -16.5 -18.55 -15.5 L-18.65 -15.7 -18.65 -15.9 Q-16.7 -17.35 -14.25 -17.4 -13.75 -17.45 -13.85 -17.0 L-13.9 -16.9 M-16.35 -10.4 L-16.35 -10.3 -16.5 -10.1 -16.65 -10.05 Q-17.45 -10.2 -18.05 -10.55 L-18.05 -10.65 -18.05 -10.7 -17.85 -10.85 -17.75 -10.9 Q-16.85 -11.15 -16.4 -10.45 L-16.35 -10.4 M-0.45 -7.65 L-0.6 -7.55 Q-1.25 -7.95 -0.6 -8.3 -0.05 -8.05 -0.45 -7.65" fill="#cc0000" fill-rule="evenodd" stroke="none"/>
  </g>
</svg>
