<?xml version="1.0" encoding="UTF-8" standalone="no"?>
<svg xmlns:ffdec="https://www.free-decompiler.com/flash" xmlns:xlink="http://www.w3.org/1999/xlink" ffdec:objectType="shape" height="45.95px" width="55.3px" xmlns="http://www.w3.org/2000/svg">
  <g transform="matrix(1.0, 0.0, 0.0, 1.0, 22.5, 50.3)">
    <path d="M12.2 -38.15 Q10.65 -36.9 9.35 -37.4 L11.65 -38.55 Q12.1 -38.65 12.2 -38.2 L12.2 -38.15 M10.2 -43.65 Q7.65 -43.0 6.45 -40.6 L6.25 -40.45 6.0 -40.65 5.95 -40.8 Q6.85 -43.0 9.05 -43.85 L9.65 -44.05 Q10.1 -44.15 10.2 -43.7 L10.2 -43.65 M0.8 -42.0 Q0.45 -41.85 0.35 -42.2 0.1 -43.9 0.65 -45.15 1.25 -43.8 0.85 -42.1 L0.8 -42.0 M1.0 -26.8 L-0.8 -26.6 -0.85 -26.7 -0.9 -27.0 -0.25 -27.3 0.25 -27.4 1.15 -27.25 1.2 -27.15 1.2 -27.05 1.0 -26.8 M13.4 -17.4 L13.35 -17.3 Q12.45 -16.8 11.6 -16.95 L11.65 -17.3 11.7 -17.4 13.15 -17.9 Q13.55 -17.8 13.4 -17.4 M15.35 -14.55 L15.35 -14.65 15.5 -14.9 15.65 -14.9 16.35 -14.45 16.45 -14.4 16.7 -13.25 16.6 -12.9 16.2 -12.85 16.1 -12.95 15.9 -13.8 15.8 -14.05 15.35 -14.55 M27.1 -16.5 Q28.35 -13.95 28.45 -11.15 L28.35 -11.05 Q28.05 -10.95 27.95 -11.3 L26.8 -16.65 26.85 -16.65 27.0 -16.6 27.1 -16.5 M28.35 -10.45 L28.45 -10.4 28.5 -9.9 28.35 -9.65 27.95 -9.6 27.85 -9.7 Q27.5 -10.3 27.8 -10.75 L27.9 -10.8 28.35 -10.45 M32.4 -6.35 L32.55 -6.25 32.75 -5.9 32.8 -5.7 Q32.65 -5.35 32.3 -5.5 31.65 -6.05 32.25 -6.4 L32.4 -6.35 M-5.0 -49.9 Q-4.2 -46.6 -2.6 -43.4 L-2.5 -43.3 -2.3 -42.55 -2.3 -42.45 Q-2.45 -42.1 -2.8 -42.25 L-3.1 -42.9 -3.1 -43.0 Q-5.05 -46.15 -5.15 -49.75 L-5.0 -49.9 M-2.75 -50.3 Q-2.15 -48.65 -2.5 -46.55 L-2.65 -45.3 -3.15 -45.35 Q-3.45 -47.85 -2.85 -50.25 L-2.75 -50.3 M-7.5 -25.65 Q-7.25 -25.4 -7.45 -25.15 L-7.95 -25.2 Q-9.55 -27.15 -8.25 -29.25 L-8.15 -29.3 Q-7.8 -28.5 -8.0 -27.25 -8.15 -26.35 -7.5 -25.65 M-20.4 -36.25 Q-20.75 -36.1 -20.9 -36.45 L-20.6 -38.0 -20.5 -38.05 Q-19.9 -37.3 -20.35 -36.25 L-20.4 -36.25 M-20.9 -13.2 Q-20.85 -15.85 -18.0 -16.65 L-17.85 -16.65 Q-17.4 -15.8 -19.05 -15.15 -20.05 -14.8 -20.2 -13.7 L-20.4 -13.15 -20.9 -13.2 M-22.2 -4.35 L-22.35 -4.35 -22.5 -4.65 -22.45 -4.75 -22.0 -5.05 Q-21.35 -4.65 -22.2 -4.35 M-17.5 -11.9 L-17.35 -11.85 -17.1 -11.65 -16.95 -11.3 Q-17.6 -10.9 -18.2 -11.55 L-18.2 -11.65 -18.2 -11.7 -17.9 -11.9 -17.5 -11.9 M-0.8 -7.9 L-0.9 -7.95 Q-1.0 -8.25 -0.7 -8.35 L-0.6 -8.4 Q0.05 -7.9 -0.8 -7.9" fill="#cc0000" fill-rule="evenodd" stroke="none"/>
  </g>
</svg>
