<?xml version="1.0" encoding="UTF-8" standalone="no"?>
<svg xmlns:ffdec="https://www.free-decompiler.com/flash" xmlns:xlink="http://www.w3.org/1999/xlink" ffdec:objectType="shape" height="49.0px" width="56.25px" xmlns="http://www.w3.org/2000/svg">
  <g transform="matrix(1.0, 0.0, 0.0, 1.0, 23.2, 53.05)">
    <path d="M13.25 -44.5 L13.3 -44.4 13.3 -44.3 13.1 -44.05 10.0 -43.55 Q9.8 -43.5 9.6 -43.7 L9.6 -43.8 9.7 -44.15 Q10.7 -44.65 11.85 -44.6 L12.15 -44.65 13.25 -44.5 M12.25 -38.75 L12.1 -38.6 12.0 -38.55 Q10.95 -38.45 10.45 -39.05 L10.45 -39.1 10.65 -39.25 10.75 -39.3 Q11.65 -39.4 12.3 -38.9 L12.3 -38.8 12.25 -38.75 M0.3 -44.85 Q-0.05 -44.7 -0.15 -45.05 L-0.1 -46.45 -0.05 -46.65 0.4 -47.05 Q0.75 -46.2 0.35 -44.95 L0.3 -44.85 M7.9 -42.9 Q8.35 -42.9 8.25 -42.5 L8.2 -42.4 Q7.55 -41.7 6.8 -41.5 6.65 -41.6 6.65 -41.8 L6.7 -41.9 7.9 -42.9 M1.2 -27.8 Q0.15 -27.45 -0.9 -28.3 L-0.9 -28.4 -0.75 -28.65 -0.6 -28.65 Q0.5 -28.6 1.2 -27.85 L1.2 -27.8 M13.15 -19.55 Q13.65 -18.55 12.0 -18.25 L11.8 -18.25 Q11.65 -18.35 11.65 -18.55 L11.7 -18.65 13.15 -19.55 M18.35 -14.8 L18.45 -14.75 18.4 -13.5 18.25 -13.3 17.9 -13.45 17.85 -13.55 Q17.75 -14.35 17.9 -15.0 L18.0 -15.05 18.35 -14.8 M29.35 -9.3 L28.95 -9.2 28.9 -9.2 28.55 -9.45 28.7 -9.55 Q28.6 -10.0 29.0 -10.15 L29.2 -10.0 Q29.7 -10.65 29.85 -11.6 30.05 -12.75 30.5 -13.4 31.3 -11.2 29.4 -9.35 L29.35 -9.3 M32.55 -5.05 L32.45 -5.1 Q32.35 -5.4 32.6 -5.55 L32.75 -5.55 Q33.4 -5.05 32.55 -5.05 M-2.6 -49.75 L-2.65 -49.65 -3.15 -49.7 -2.6 -53.0 -2.5 -53.05 Q-1.9 -51.55 -2.6 -49.75 M-5.5 -52.3 Q-4.7 -50.05 -4.25 -47.45 L-4.3 -47.4 -4.8 -47.45 Q-5.8 -49.9 -5.55 -52.3 L-5.5 -52.3 M-9.75 -28.05 L-8.7 -26.5 -8.7 -26.4 -9.0 -26.2 -9.2 -26.25 Q-10.35 -27.0 -9.85 -28.0 L-9.75 -28.05 M-8.4 -26.3 L-6.4 -24.8 -6.4 -24.75 Q-6.4 -24.6 -6.55 -24.6 L-6.75 -24.55 -8.65 -25.75 -8.7 -25.9 -8.6 -26.25 -8.4 -26.3 M-20.95 -39.35 L-21.1 -39.65 -21.05 -39.75 -20.4 -40.3 -20.25 -40.3 Q-19.65 -39.7 -20.8 -39.35 L-20.95 -39.35 M-21.1 -14.8 L-20.5 -12.15 -20.55 -12.05 Q-21.75 -12.4 -21.6 -14.1 -21.55 -14.65 -21.1 -14.8 M-22.55 -4.15 L-22.65 -4.05 Q-23.6 -4.15 -22.9 -4.65 -22.3 -4.65 -22.55 -4.15 M-17.1 -12.15 L-17.1 -12.05 -17.3 -11.85 -17.4 -11.8 Q-18.1 -11.75 -18.2 -12.3 L-17.9 -12.55 Q-17.4 -12.55 -17.1 -12.15" fill="#cc0000" fill-rule="evenodd" stroke="none"/>
  </g>
</svg>
