<?xml version="1.0" encoding="UTF-8" standalone="no"?>
<svg xmlns:ffdec="https://www.free-decompiler.com/flash" xmlns:xlink="http://www.w3.org/1999/xlink" ffdec:objectType="shape" height="50.9px" width="56.75px" xmlns="http://www.w3.org/2000/svg">
  <g transform="matrix(1.0, 0.0, 0.0, 1.0, 23.6, 54.8)">
    <path d="M15.5 -43.95 Q15.2 -44.0 14.95 -44.2 L14.85 -44.3 Q13.65 -44.2 12.75 -44.65 L12.7 -44.8 12.7 -44.85 12.85 -45.0 13.0 -45.05 Q14.75 -45.4 15.95 -44.3 L15.95 -44.25 15.9 -44.15 15.75 -44.0 15.65 -43.95 15.5 -43.95 M11.65 -39.6 L11.8 -39.5 12.15 -38.45 12.1 -38.3 Q11.75 -38.1 11.45 -38.45 11.25 -39.05 11.4 -39.55 L11.5 -39.65 11.65 -39.6 M0.7 -47.7 L0.7 -47.65 Q0.15 -47.15 -0.45 -47.1 L-0.5 -47.2 -0.55 -47.5 0.05 -48.0 0.15 -48.05 Q0.6 -48.15 0.7 -47.7 M9.0 -42.9 L8.95 -42.8 Q8.5 -42.35 7.95 -42.35 L7.85 -42.65 7.85 -42.75 8.65 -43.3 Q9.1 -43.3 9.0 -42.9 M0.7 -28.5 L0.4 -28.3 0.2 -28.35 Q-0.75 -28.95 -0.45 -29.6 L-0.35 -29.65 0.7 -28.55 0.7 -28.5 M11.6 -19.35 L11.5 -19.3 Q11.15 -19.35 11.2 -19.65 11.4 -20.4 12.15 -20.65 12.65 -20.05 11.6 -19.35 M19.4 -13.5 L19.35 -13.5 Q19.05 -13.4 18.95 -13.7 18.8 -14.2 19.15 -14.5 L19.25 -14.55 Q19.8 -14.15 19.4 -13.5 M29.8 -8.75 Q29.3 -8.6 29.35 -9.15 29.4 -9.5 29.75 -9.55 30.25 -9.35 29.9 -8.85 L29.8 -8.75 M33.0 -10.15 Q33.6 -8.65 31.7 -7.5 L31.6 -7.45 Q31.25 -7.5 31.3 -7.8 31.75 -8.7 32.65 -9.4 32.6 -9.85 32.9 -10.1 L33.0 -10.15 M32.75 -5.15 Q33.4 -4.65 32.55 -4.65 L32.45 -4.7 Q32.35 -5.0 32.6 -5.1 L32.75 -5.15 M-5.65 -51.1 Q-5.95 -52.55 -5.6 -53.75 L-5.5 -53.8 Q-4.85 -52.7 -5.1 -51.15 L-5.15 -51.05 -5.65 -51.1 M-1.75 -54.8 Q-1.35 -54.85 -1.3 -54.45 L-1.3 -54.4 -2.5 -52.4 -2.6 -52.3 -2.9 -52.55 -2.9 -52.65 Q-2.6 -53.8 -1.9 -54.7 L-1.75 -54.8 M-10.9 -26.3 L-9.5 -26.15 -9.45 -26.05 -9.55 -25.8 -9.65 -25.7 -9.75 -25.6 Q-10.75 -25.3 -11.2 -26.05 L-11.05 -26.25 -10.9 -26.3 M-6.2 -25.05 L-6.2 -24.95 -7.0 -24.55 Q-7.7 -24.35 -7.8 -24.9 -7.2 -25.35 -6.4 -25.55 -5.95 -25.4 -6.2 -25.05 M-21.0 -41.6 L-21.2 -41.6 -21.35 -41.9 -21.3 -42.0 -20.5 -42.4 Q-19.85 -41.8 -21.0 -41.6 M-21.2 -12.55 L-21.2 -12.5 -21.4 -12.25 -21.5 -12.2 -22.55 -12.35 -23.4 -13.2 -23.4 -13.3 -23.2 -13.55 -23.1 -13.55 Q-22.2 -12.9 -21.2 -12.55 M-23.45 -3.9 L-23.55 -3.95 Q-23.65 -4.25 -23.35 -4.35 L-23.25 -4.4 Q-22.6 -3.9 -23.45 -3.9 M-17.2 -12.65 L-17.2 -12.55 Q-17.35 -12.2 -17.7 -12.35 L-18.05 -12.75 -18.05 -12.8 -17.75 -13.05 Q-17.35 -13.05 -17.2 -12.65" fill="#cc0000" fill-rule="evenodd" stroke="none"/>
  </g>
</svg>
