<?xml version="1.0" encoding="UTF-8" standalone="no"?>
<svg xmlns:ffdec="https://www.free-decompiler.com/flash" xmlns:xlink="http://www.w3.org/1999/xlink" ffdec:objectType="shape" height="51.8px" width="59.6px" xmlns="http://www.w3.org/2000/svg">
  <g transform="matrix(1.0, 0.0, 0.0, 1.0, 24.3, 55.45)">
    <path d="M17.25 -43.55 L17.25 -43.5 Q16.15 -43.3 15.45 -44.4 L15.55 -44.55 15.75 -44.65 Q16.75 -44.35 17.25 -43.55 M12.1 -38.9 L12.0 -38.8 11.7 -38.15 11.5 -38.05 Q11.15 -38.1 11.2 -38.4 L11.35 -38.95 11.45 -39.15 11.9 -39.4 Q12.35 -39.25 12.1 -38.9 M9.75 -43.0 L9.7 -42.9 Q9.1 -42.55 8.95 -43.15 L9.05 -43.3 9.25 -43.4 Q9.85 -43.5 9.75 -43.0 M0.25 -48.5 Q-0.15 -48.05 -0.6 -48.35 L-0.65 -48.45 -0.5 -48.8 -0.25 -48.9 Q0.2 -49.0 0.3 -48.55 L0.25 -48.5 M1.15 -29.2 L1.1 -29.15 Q0.3 -29.15 -0.05 -30.05 L0.05 -30.2 0.25 -30.3 Q1.1 -30.05 1.15 -29.2 M11.0 -19.75 L10.9 -19.7 Q10.55 -19.75 10.6 -20.05 10.6 -20.55 10.9 -20.85 L11.0 -20.9 Q11.65 -20.4 11.0 -19.75 M20.5 -13.5 L20.4 -13.45 Q19.75 -13.85 20.4 -14.15 20.95 -13.9 20.5 -13.5 M30.15 -9.15 Q30.7 -8.9 30.25 -8.5 L30.15 -8.45 Q29.5 -8.85 30.15 -9.15 M34.3 -6.1 L33.2 -5.95 33.2 -6.2 33.3 -6.3 Q33.6 -6.6 34.05 -6.75 L35.25 -7.8 Q35.6 -6.95 34.3 -6.1 M-5.8 -53.05 Q-5.85 -54.25 -5.25 -55.05 -4.7 -54.15 -5.3 -52.95 L-5.35 -52.85 Q-5.7 -52.7 -5.8 -53.05 M-1.3 -55.15 L-1.3 -55.05 -1.5 -54.8 -1.6 -54.8 -1.9 -54.75 -2.0 -54.55 Q-2.1 -54.35 -2.35 -54.3 L-2.55 -54.35 -2.65 -54.65 -2.35 -55.2 -2.0 -55.4 -1.35 -55.25 -1.3 -55.15 M-11.45 -24.9 L-11.55 -24.95 -11.55 -25.2 -11.45 -25.3 -11.0 -25.55 Q-10.35 -24.9 -11.45 -24.9 M-20.5 -43.15 L-20.55 -43.05 -21.2 -42.85 -21.35 -43.15 -21.3 -43.25 -20.85 -43.55 Q-20.4 -43.55 -20.5 -43.15 M-21.55 -12.4 L-22.4 -11.8 Q-23.6 -11.7 -24.3 -12.4 L-24.15 -12.65 -24.0 -12.65 -22.55 -12.5 -22.0 -12.8 Q-21.6 -12.85 -21.55 -12.45 L-21.55 -12.4 M-23.7 -3.65 L-23.8 -3.7 Q-23.9 -4.0 -23.6 -4.1 L-23.5 -4.15 Q-22.85 -3.65 -23.7 -3.65 M-7.0 -23.55 Q-7.35 -23.6 -7.3 -23.9 -7.1 -24.55 -6.5 -24.8 -5.95 -24.2 -6.9 -23.6 L-7.0 -23.55 M-17.6 -12.65 L-17.7 -12.7 Q-17.8 -13.0 -17.55 -13.1 L-17.4 -13.15 Q-16.75 -12.65 -17.6 -12.65" fill="#cc0000" fill-rule="evenodd" stroke="none"/>
  </g>
</svg>
