<?xml version="1.0" encoding="UTF-8" standalone="no"?>
<svg xmlns:ffdec="https://www.free-decompiler.com/flash" xmlns:xlink="http://www.w3.org/1999/xlink" ffdec:objectType="shape" height="52.95px" width="61.0px" xmlns="http://www.w3.org/2000/svg">
  <g transform="matrix(1.0, 0.0, 0.0, 1.0, 24.4, 56.55)">
    <path d="M16.95 -43.9 L17.05 -44.05 17.25 -44.15 Q17.95 -44.2 18.05 -43.55 L18.05 -43.45 17.75 -43.25 17.55 -43.25 17.45 -43.35 17.45 -43.45 17.45 -43.5 Q17.15 -43.5 17.0 -43.7 L16.95 -43.9 M11.4 -39.15 Q12.0 -39.25 11.9 -38.75 L11.85 -38.65 Q11.25 -38.3 11.1 -38.9 L11.2 -39.05 11.4 -39.15 M9.55 -43.05 L9.45 -43.1 Q9.35 -43.4 9.6 -43.55 L9.75 -43.55 Q10.4 -43.05 9.55 -43.05 M0.0 -49.0 Q-0.95 -49.05 -0.25 -49.55 0.35 -49.55 0.1 -49.05 L0.0 -49.0 M1.05 -30.5 L1.15 -30.4 1.15 -29.95 1.05 -29.75 Q0.25 -29.85 0.6 -30.55 L0.75 -30.65 1.05 -30.5 M10.55 -20.75 L10.65 -20.65 10.7 -20.0 10.5 -19.8 Q10.3 -19.75 10.15 -19.95 L10.1 -20.05 Q9.85 -20.5 10.1 -20.8 L10.25 -20.9 10.55 -20.75 M20.8 -13.55 L20.7 -13.6 Q20.6 -13.9 20.85 -14.05 L21.0 -14.05 Q21.65 -13.55 20.8 -13.55 M30.3 -8.85 L30.4 -8.9 Q31.05 -8.4 30.2 -8.4 L30.1 -8.45 Q30.0 -8.75 30.3 -8.85 M35.3 -3.7 Q34.7 -3.5 34.2 -3.7 L34.25 -4.05 34.3 -4.15 Q35.5 -4.6 36.5 -5.3 36.9 -4.3 35.3 -3.7 M-2.05 -55.85 L-2.25 -55.8 Q-2.65 -55.85 -2.55 -56.25 L-1.85 -56.55 Q-1.2 -56.15 -2.05 -55.85 M-5.1 -54.2 L-5.2 -54.1 Q-5.55 -53.95 -5.65 -54.3 -5.65 -55.15 -5.1 -55.55 -4.55 -55.0 -5.1 -54.2 M-20.9 -44.15 L-21.0 -44.05 Q-21.95 -44.15 -21.25 -44.65 -20.65 -44.65 -20.9 -44.15 M-22.85 -13.05 Q-22.05 -11.3 -24.3 -11.35 L-24.4 -11.55 Q-24.2 -12.0 -23.55 -11.9 L-23.15 -12.45 Q-23.3 -12.95 -22.85 -13.05 M-6.25 -23.55 L-6.45 -23.6 -6.65 -23.8 -6.7 -23.9 Q-6.9 -24.3 -6.65 -24.55 L-6.5 -24.65 -6.35 -24.6 -6.2 -24.5 -6.0 -23.85 -6.0 -23.65 -6.25 -23.55 M-12.05 -24.7 L-11.5 -25.3 Q-11.0 -25.1 -11.25 -24.6 L-11.35 -24.5 Q-11.85 -24.3 -12.05 -24.7" fill="#cc0000" fill-rule="evenodd" stroke="none"/>
  </g>
</svg>
