<?xml version="1.0" encoding="UTF-8" standalone="no"?>
<svg xmlns:ffdec="https://www.free-decompiler.com/flash" xmlns:xlink="http://www.w3.org/1999/xlink" ffdec:objectType="shape" height="55.65px" width="61.1px" xmlns="http://www.w3.org/2000/svg">
  <g transform="matrix(1.0, 0.0, 0.0, 1.0, 24.65, 57.4)">
    <path d="M18.25 -43.8 L18.8 -43.35 18.8 -43.3 18.65 -43.15 18.4 -43.05 Q17.75 -43.25 18.1 -43.7 L18.25 -43.8 M11.5 -39.15 Q12.15 -38.65 11.3 -38.65 L11.2 -38.7 Q11.1 -39.0 11.35 -39.1 L11.5 -39.15 M1.4 -30.65 Q1.9 -30.45 1.7 -29.95 L1.65 -29.85 Q1.1 -29.75 1.1 -30.3 1.05 -30.65 1.4 -30.65 M10.05 -20.1 L9.9 -20.05 Q9.25 -20.45 9.9 -20.8 10.45 -20.55 10.05 -20.1 M21.2 -13.3 L21.1 -13.35 Q21.0 -13.65 21.3 -13.8 L21.4 -13.8 Q22.05 -13.3 21.2 -13.3 M30.35 -8.6 L30.5 -8.65 Q31.15 -8.15 30.3 -8.15 L30.2 -8.2 Q30.1 -8.5 30.35 -8.6 M35.35 -1.75 L35.05 -1.95 Q35.4 -2.65 36.35 -2.65 36.85 -1.85 35.35 -1.75 M-1.65 -56.9 L-1.75 -56.8 Q-2.7 -56.9 -2.0 -57.4 -1.4 -57.4 -1.65 -56.9 M-5.25 -55.05 Q-6.0 -55.3 -5.35 -55.65 -4.7 -55.5 -5.15 -55.1 L-5.25 -55.05 M-0.4 -49.7 Q-0.5 -50.0 -0.2 -50.1 L-0.1 -50.15 Q0.55 -49.65 -0.3 -49.65 L-0.4 -49.7 M-11.9 -24.8 Q-11.25 -24.3 -12.1 -24.3 L-12.2 -24.35 Q-12.3 -24.65 -12.05 -24.8 L-11.9 -24.8 M-21.65 -44.6 Q-21.75 -44.9 -21.45 -45.05 L-21.35 -45.05 Q-20.7 -44.55 -21.55 -44.55 L-21.65 -44.6 M-23.6 -12.55 Q-22.9 -11.5 -24.25 -10.6 L-24.35 -10.55 Q-24.7 -10.6 -24.65 -11.0 L-24.1 -11.55 Q-24.1 -12.15 -23.7 -12.5 L-23.6 -12.55 M-5.7 -23.9 L-5.7 -23.8 Q-5.85 -23.45 -6.2 -23.6 -6.75 -24.05 -6.15 -24.3 L-5.7 -23.9" fill="#cc0000" fill-rule="evenodd" stroke="none"/>
  </g>
</svg>
