<?xml version="1.0" encoding="UTF-8" standalone="no"?>
<svg xmlns:ffdec="https://www.free-decompiler.com/flash" xmlns:xlink="http://www.w3.org/1999/xlink" ffdec:objectType="shape" height="57.5px" width="61.3px" xmlns="http://www.w3.org/2000/svg">
  <g transform="matrix(1.0, 0.0, 0.0, 1.0, 24.75, 57.8)">
    <path d="M18.45 -42.95 Q18.35 -43.25 18.6 -43.35 L18.75 -43.4 Q19.4 -42.9 18.55 -42.9 L18.45 -42.95 M1.8 -29.8 L1.7 -29.85 Q1.6 -30.15 1.85 -30.3 L2.0 -30.3 Q2.65 -29.8 1.8 -29.8 M9.65 -20.65 Q10.3 -20.15 9.45 -20.15 L9.35 -20.2 Q9.25 -20.5 9.55 -20.6 L9.65 -20.65 M36.55 -0.75 L36.55 -0.65 Q35.75 0.1 35.3 -0.65 35.5 -1.05 36.1 -1.05 36.5 -1.1 36.55 -0.75 M-2.05 -57.3 L-2.15 -57.35 Q-2.25 -57.65 -1.95 -57.8 L-1.85 -57.8 Q-1.2 -57.3 -2.05 -57.3 M-5.4 -56.1 L-5.25 -56.15 Q-4.6 -55.65 -5.45 -55.65 L-5.55 -55.7 Q-5.65 -56.0 -5.4 -56.1 M-0.15 -50.55 L0.0 -50.55 Q0.65 -50.05 -0.2 -50.05 L-0.3 -50.1 -0.15 -50.55 M-21.9 -45.1 Q-22.0 -45.4 -21.7 -45.55 L-21.6 -45.55 Q-20.95 -45.05 -21.8 -45.05 L-21.9 -45.1 M-24.5 -11.8 L-24.25 -11.65 -24.15 -11.55 -24.0 -10.75 -24.05 -10.55 -24.45 -10.5 -24.55 -10.6 Q-24.9 -11.3 -24.6 -11.75 L-24.5 -11.8 M-12.35 -24.05 L-12.45 -24.1 -12.3 -24.55 -12.15 -24.55 Q-11.5 -24.05 -12.35 -24.05 M-5.85 -23.4 L-5.95 -23.45 Q-6.05 -23.75 -5.8 -23.85 L-5.65 -23.9 Q-5.0 -23.4 -5.85 -23.4" fill="#cc0000" fill-rule="evenodd" stroke="none"/>
  </g>
</svg>
