<?xml version="1.0" encoding="UTF-8" standalone="no"?>
<svg xmlns:ffdec="https://www.free-decompiler.com/flash" xmlns:xlink="http://www.w3.org/1999/xlink" ffdec:objectType="shape" height="59.1px" width="61.15px" xmlns="http://www.w3.org/2000/svg">
  <g transform="matrix(1.0, 0.0, 0.0, 1.0, 24.8, 58.3)">
    <path d="M0.15 -50.65 Q0.8 -50.15 -0.05 -50.15 L-0.15 -50.2 Q-0.25 -50.5 0.05 -50.6 L0.15 -50.65 M9.2 -20.15 L9.1 -20.2 Q9.0 -20.5 9.3 -20.6 L9.4 -20.65 Q10.05 -20.15 9.2 -20.15 M18.8 -42.55 L18.7 -42.6 Q18.6 -42.9 18.85 -43.05 L19.0 -43.05 Q19.65 -42.55 18.8 -42.55 M-1.95 -57.8 L-2.05 -57.85 -1.9 -58.3 -1.75 -58.3 Q-1.1 -57.8 -1.95 -57.8 M-5.4 -56.2 Q-5.5 -56.5 -5.2 -56.6 L-5.1 -56.65 Q-4.45 -56.15 -5.3 -56.15 L-5.4 -56.2 M-24.05 -10.4 L-24.05 -10.3 Q-24.2 -9.95 -24.55 -10.1 -25.1 -10.55 -24.5 -10.8 -24.15 -10.7 -24.05 -10.4 M36.1 0.75 L36.0 0.8 Q35.6 0.75 35.7 0.35 35.85 0.15 36.1 0.1 36.65 0.4 36.1 0.75" fill="#cc0000" fill-rule="evenodd" stroke="none"/>
  </g>
</svg>
