<?xml version="1.0" encoding="UTF-8" standalone="no"?>
<svg xmlns:ffdec="https://www.free-decompiler.com/flash" xmlns:xlink="http://www.w3.org/1999/xlink" ffdec:objectType="shape" height="82.6px" width="85.9px" xmlns="http://www.w3.org/2000/svg">
  <g transform="matrix(1.0, 0.0, 0.0, 1.0, 47.1, 56.9)">
    <path d="M-0.3 -53.4 L-11.85 8.75" fill="none" stroke="#000000" stroke-linecap="round" stroke-linejoin="round" stroke-width="7.0"/>
    <path d="M-2.3 -54.4 L-13.85 7.75" fill="none" stroke="#2c2c2c" stroke-linecap="round" stroke-linejoin="round" stroke-width="3.0"/>
    <path d="M6.3 -25.75 L-11.85 8.75 -43.6 20.2" fill="none" stroke="#000000" stroke-linecap="round" stroke-linejoin="round" stroke-width="7.0"/>
    <path d="M4.3 -26.75 L-13.85 7.75 -45.15 19.2" fill="none" stroke="#2c2c2c" stroke-linecap="round" stroke-linejoin="round" stroke-width="3.0"/>
    <path d="M6.3 -25.75 L19.45 22.2 M-43.6 20.2 L-4.25 17.8" fill="none" stroke="#000000" stroke-linecap="round" stroke-linejoin="round" stroke-width="7.0"/>
    <path d="M4.3 -26.75 L17.45 21.2 M-45.15 19.2 L-6.25 16.8" fill="none" stroke="#2c2c2c" stroke-linecap="round" stroke-linejoin="round" stroke-width="3.0"/>
    <path d="M-0.3 -53.4 L23.4 -14.55 35.3 -25.45" fill="none" stroke="#000000" stroke-linecap="round" stroke-linejoin="round" stroke-width="7.0"/>
    <path d="M-2.35 -54.35 L21.35 -15.5 33.25 -26.4" fill="none" stroke="#2c2c2c" stroke-linecap="round" stroke-linejoin="round" stroke-width="3.0"/>
    <path d="M-0.3 -53.4 L-36.35 -31.5" fill="none" stroke="#000000" stroke-linecap="round" stroke-linejoin="round" stroke-width="7.0"/>
    <path d="M-2.35 -54.35 L-38.05 -32.6" fill="none" stroke="#2c2c2c" stroke-linecap="round" stroke-linejoin="round" stroke-width="3.0"/>
  </g>
</svg>
