<?xml version="1.0" encoding="UTF-8" standalone="no"?>
<svg xmlns:ffdec="https://www.free-decompiler.com/flash" xmlns:xlink="http://www.w3.org/1999/xlink" ffdec:objectType="shape" height="72.7px" width="8.5px" xmlns="http://www.w3.org/2000/svg">
  <g transform="matrix(1.0, 0.0, 0.0, 1.0, 4.25, 36.35)">
    <path d="M3.7 4.35 L3.65 4.65 3.25 7.1 2.95 7.1 -1.55 7.1 -1.9 7.1 -1.8 7.4 Q-2.8 6.7 -3.5 7.15 -4.25 7.55 -3.7 9.0 -3.2 10.45 -2.25 10.4 -1.35 10.3 -1.25 9.8 L-1.15 10.2 Q-1.65 11.2 -2.85 10.65 -4.05 10.1 -4.2 8.5 -4.4 6.9 -3.4 6.65 -2.4 6.4 -1.9 7.1 L-1.7 0.0 -1.65 -2.2 -0.5 -2.2 0.7 -2.2 0.7 0.0 0.7 4.35 1.05 4.35 1.05 -2.2 1.05 -18.15 1.05 -18.65 1.05 -36.0 1.35 -36.0 1.35 4.35 1.95 4.35 3.0 4.35 1.95 4.35 1.95 -36.0 3.0 -36.0 3.0 4.35 3.7 4.35 M3.65 4.65 Q3.4 5.85 2.35 5.8 1.0 5.75 1.05 4.35 L1.35 4.35 1.05 4.35 Q1.0 5.75 2.35 5.8 3.4 5.85 3.65 4.65 M-1.7 0.0 Q-0.5 -1.45 0.7 0.0 -0.5 -1.45 -1.7 0.0" fill="#2d2e39" fill-rule="evenodd" stroke="none"/>
    <path d="M3.25 7.1 L2.15 16.2 2.95 17.25 4.25 36.35 -1.5 36.1 0.65 12.25 0.75 12.35 Q2.45 11.3 2.95 7.1 L3.25 7.1 M1.05 -2.2 L0.7 -2.2 -0.5 -2.2 -0.2 -15.4 Q-0.05 -17.25 1.05 -18.15 L1.05 -2.2" fill="#5c3f23" fill-rule="evenodd" stroke="none"/>
    <path d="M1.35 -36.0 L1.95 -36.0 1.95 4.35 1.35 4.35 1.35 -36.0 M-1.6 8.2 L-1.55 8.5 -1.45 8.95 Q-1.75 9.9 -2.9 9.6 -1.75 9.55 -1.55 8.5 -2.85 8.9 -3.15 8.0 -2.7 8.55 -1.6 8.2" fill="#76788f" fill-rule="evenodd" stroke="none"/>
    <path d="M3.0 -36.0 L3.0 -36.35 4.0 -36.35 3.7 -35.1 3.7 -36.0 3.0 -36.0" fill="#000000" fill-rule="evenodd" stroke="none"/>
    <path d="M3.7 -35.1 L3.7 4.35 3.0 4.35 3.0 -36.0 3.7 -36.0 3.7 -35.1 M0.7 -2.2 L1.05 -2.2 1.05 4.35 0.7 4.35 0.7 0.0 0.7 -2.2" fill="#17171e" fill-rule="evenodd" stroke="none"/>
    <path d="M2.95 7.1 Q2.45 11.3 0.75 12.35 L0.65 12.25 Q-0.85 10.6 -1.55 7.1 L2.95 7.1" fill="#805831" fill-rule="evenodd" stroke="none"/>
    <path d="M-1.5 36.1 L-3.7 36.0 -1.15 10.2 -1.25 9.8 -1.45 8.95 -1.55 8.5 -1.6 8.2 -1.8 7.4 -1.9 7.1 -1.55 7.1 Q-0.85 10.6 0.65 12.25 L-1.5 36.1 M-1.65 -2.2 L-1.3 -14.3 Q-1.2 -17.85 1.05 -18.65 L1.05 -18.15 Q-0.05 -17.25 -0.2 -15.4 L-0.5 -2.2 -1.65 -2.2" fill="#48321c" fill-rule="evenodd" stroke="none"/>
    <path d="M3.0 -36.0 L3.0 -36.35 4.0 -36.35 3.7 -35.1 3.7 4.35 3.65 4.65 3.25 7.1 2.15 16.2 2.95 17.25 4.25 36.35 -1.5 36.1 -3.7 36.0 -1.15 10.2 Q-1.65 11.2 -2.85 10.65 -4.05 10.1 -4.2 8.5 -4.4 6.9 -3.4 6.65 -2.4 6.4 -1.9 7.1 L-1.7 0.0 -1.65 -2.2 -1.3 -14.3 Q-1.2 -17.85 1.05 -18.65 L1.05 -36.0 1.35 -36.0 1.95 -36.0 3.0 -36.0 M0.7 -2.2 L1.05 -2.2 1.05 -18.15 1.05 -18.65 M-0.5 -2.2 L0.7 -2.2 0.7 0.0 0.7 4.35 1.05 4.35 1.05 -2.2 M1.95 4.35 L1.35 4.35 1.05 4.35 Q1.0 5.75 2.35 5.8 3.4 5.85 3.65 4.65 M3.0 4.35 L3.7 4.35 M3.0 4.35 L1.95 4.35 M3.25 7.1 L2.95 7.1 -1.55 7.1 -1.9 7.1 -1.8 7.4 -1.6 8.2 -1.55 8.5 -1.45 8.95 -1.25 9.8 -1.15 10.2 M-0.5 -2.2 L-1.65 -2.2 M-1.8 7.4 Q-2.8 6.7 -3.5 7.15 -4.25 7.55 -3.7 9.0 -3.2 10.45 -2.25 10.4 -1.35 10.3 -1.25 9.8 M-1.45 8.95 Q-1.75 9.9 -2.9 9.6 -1.75 9.55 -1.55 8.5 -2.85 8.9 -3.15 8.0 -2.7 8.55 -1.6 8.2 M0.7 0.0 Q-0.5 -1.45 -1.7 0.0" fill="none" stroke="#000000" stroke-linecap="round" stroke-linejoin="round" stroke-opacity="0.6" stroke-width="0.05"/>
  </g>
</svg>
