<?xml version="1.0" encoding="UTF-8" standalone="no"?>
<svg xmlns:ffdec="https://www.free-decompiler.com/flash" xmlns:xlink="http://www.w3.org/1999/xlink" ffdec:objectType="shape" height="43.5px" width="14.5px" xmlns="http://www.w3.org/2000/svg">
  <g transform="matrix(1.0, 0.0, 0.0, 1.0, 7.25, 21.75)">
    <path d="M1.0 -21.75 L1.0 21.75 -1.0 21.75 -1.0 -21.75 1.0 -21.75" fill="#545667" fill-rule="evenodd" stroke="none"/>
    <path d="M5.0 -21.75 L5.0 21.75 3.0 21.75 3.0 -21.75 5.0 -21.75 M-3.0 -21.75 L-3.0 21.75 -5.0 21.75 -5.0 -21.75 -3.0 -21.75" fill="#484a59" fill-rule="evenodd" stroke="none"/>
    <path d="M5.0 -21.75 L5.0 21.75 3.0 21.75 3.0 -21.75 5.0 -21.75 M1.0 -21.75 L-1.0 -21.75 -1.0 21.75 1.0 21.75 1.0 -21.75 M-3.0 -21.75 L-3.0 21.75 -5.0 21.75 -5.0 -21.75 -3.0 -21.75 Z" fill="none" stroke="#000000" stroke-linecap="round" stroke-linejoin="round" stroke-width="0.05"/>
    <path d="M4.0 -12.35 L4.0 -14.2 7.25 -14.2 7.25 -12.35 4.0 -12.35 M4.0 -19.7 L7.25 -19.7 7.25 -17.85 4.0 -17.85 4.0 -19.7 M4.0 7.65 L4.0 3.9 7.25 3.9 7.25 7.65 4.0 7.65" fill="#1b1c21" fill-rule="evenodd" stroke="none"/>
    <path d="M4.0 -14.2 L4.0 -12.35 -3.0 -12.35 -3.0 -14.2 4.0 -14.2 M4.0 -19.7 L4.0 -17.85 -3.0 -17.85 -3.0 -19.7 4.0 -19.7 M-5.0 -17.85 L-7.25 -17.85 -7.25 -19.7 -5.0 -19.7 -5.0 -17.85 M4.0 3.9 L4.0 7.65 -3.0 7.65 -3.0 3.9 4.0 3.9 M-5.0 -12.35 L-7.25 -12.35 -7.25 -14.2 -5.0 -14.2 -5.0 -12.35 M-5.0 3.9 L-5.0 7.65 -7.25 7.65 -7.25 3.9 -5.0 3.9" fill="#454454" fill-rule="evenodd" stroke="none"/>
    <path d="M-3.0 -14.2 L-3.0 -12.35 -5.0 -12.35 -5.0 -14.2 -3.0 -14.2 M-3.0 -17.85 L-5.0 -17.85 -5.0 -19.7 -3.0 -19.7 -3.0 -17.85 M-3.0 3.9 L-3.0 7.65 -5.0 7.65 -5.0 3.9 -3.0 3.9" fill="#a2a2b3" fill-rule="evenodd" stroke="none"/>
    <path d="M4.0 -12.35 L7.25 -12.35 7.25 -14.2 4.0 -14.2 -3.0 -14.2 -5.0 -14.2 -7.25 -14.2 -7.25 -12.35 -5.0 -12.35 -3.0 -12.35 4.0 -12.35 M4.0 -17.85 L7.25 -17.85 7.25 -19.7 4.0 -19.7 -3.0 -19.7 -5.0 -19.7 -7.25 -19.7 -7.25 -17.85 -5.0 -17.85 -3.0 -17.85 4.0 -17.85 M4.0 7.65 L7.25 7.65 7.25 3.9 4.0 3.9 -3.0 3.9 -5.0 3.9 -7.25 3.9 -7.25 7.65 -5.0 7.65 -3.0 7.65 4.0 7.65 Z" fill="none" stroke="#000000" stroke-linecap="round" stroke-linejoin="round" stroke-width="0.05"/>
  </g>
</svg>
