<?xml version="1.0" encoding="UTF-8" standalone="no"?>
<svg xmlns:ffdec="https://www.free-decompiler.com/flash" xmlns:xlink="http://www.w3.org/1999/xlink" ffdec:objectType="shape" height="78.1px" width="47.5px" xmlns="http://www.w3.org/2000/svg">
  <g transform="matrix(1.0, 0.0, 0.0, 1.0, 40.95, 29.7)">
    <path d="M-6.95 -0.35 L4.05 -14.2 -4.25 4.5 -22.65 9.15 -39.45 8.55" fill="none" stroke="#000000" stroke-linecap="round" stroke-linejoin="round" stroke-width="3.0"/>
    <path d="M-8.25 -29.7 L-8.1 -29.65 -8.0 -29.55 Q-8.15 -26.85 -7.8 -24.15 L-7.6 -23.2 -7.4 -22.45 -7.35 -22.4 -7.3 -22.05 -6.15 -17.75 -6.15 -18.3 -6.2 -18.85 -6.35 -19.05 -6.4 -19.15 -6.5 -20.6 -6.55 -20.8 -6.6 -21.65 -6.6 -21.85 -6.75 -22.05 -6.8 -22.15 -6.9 -23.25 -6.9 -23.45 -7.1 -23.75 -7.15 -23.8 -7.25 -24.35 -7.3 -24.55 -7.35 -24.65 -7.35 -24.85 -7.5 -25.05 -7.55 -25.15 -7.65 -26.7 -7.65 -26.9 -7.35 -27.05 -7.2 -27.0 -7.1 -26.9 -6.95 -25.6 -6.95 -25.4 Q-6.7 -25.1 -6.6 -24.65 L-6.55 -24.55 -6.55 -24.4 -6.55 -24.2 -6.35 -23.9 -6.3 -23.8 -6.3 -23.7 -6.1 -23.8 -5.9 -23.75 Q-5.5 -23.1 -5.4 -22.3 L-5.4 -22.9 Q-5.8 -24.05 -5.8 -25.3 L-5.8 -25.5 -6.0 -25.8 -6.05 -25.9 -6.05 -26.7 -6.05 -26.9 -5.75 -27.05 -5.6 -27.0 -5.5 -26.9 Q-4.7 -23.45 -4.75 -19.8 L-4.85 -12.3 -4.7 -11.35 -4.8 -11.15 -4.9 -10.05 -5.3 -10.0 -5.4 -11.4 -5.75 -11.5 -6.05 -13.75 -7.1 -17.1 -7.5 -18.85 -7.8 -20.95 Q-8.65 -23.75 -8.65 -26.7 L-8.55 -29.5 -8.5 -29.6 -8.5 -29.65 -8.4 -29.7 -8.25 -29.7 M-0.4 -19.55 Q-0.15 -18.1 -0.8 -16.75 L-0.85 -16.65 Q-1.15 -15.6 -1.85 -14.7 L-2.7 -11.2 -2.7 -11.05 -2.8 -10.95 -2.9 -10.85 Q-3.05 -10.25 -3.65 -10.4 L-3.7 -10.6 -3.7 -10.8 -3.65 -10.85 -3.55 -10.95 -3.55 -11.05 -3.55 -11.15 -3.45 -11.25 -3.35 -11.35 Q-2.95 -13.8 -1.85 -16.05 L-1.75 -16.2 Q-1.45 -16.4 -1.45 -16.8 L-1.45 -16.9 -1.15 -17.45 -1.05 -17.55 -1.0 -19.3 -0.95 -19.5 -0.9 -19.6 -0.9 -19.65 -0.8 -19.7 -0.65 -19.7 -0.5 -19.65 -0.4 -19.55 M-6.15 -22.3 L-6.2 -23.0 -6.25 -23.05 -6.2 -22.6 -6.2 -22.4 -6.15 -22.3 M-5.75 -19.35 L-5.8 -19.5 -5.8 -19.4 -5.75 -19.35 M-5.45 -13.95 L-5.45 -13.85 -5.4 -13.75 -5.4 -13.95 -5.45 -13.95 M-10.45 -11.8 L-10.45 -11.9 -10.4 -12.1 -10.4 -12.15 -10.3 -12.2 -10.15 -12.2 -7.95 -11.0 -7.8 -10.9 -7.6 -10.45 -7.7 -9.9 -7.9 -9.9 -8.15 -9.9 -8.2 -10.1 -8.25 -10.3 -10.3 -11.65 -10.45 -11.8 M-14.05 22.7 L-14.05 22.5 Q-11.5 21.7 -9.1 20.35 -7.9 19.65 -7.9 18.25 L-7.6 18.1 -7.45 18.15 -7.35 18.25 Q-7.3 20.55 -9.65 21.6 -11.75 22.55 -14.0 22.9 L-14.05 22.7 M-2.4 15.35 L-2.3 16.8 -2.25 16.75 -2.15 16.75 -2.05 16.75 -2.05 16.6 -2.0 16.45 -1.9 16.4 -1.75 16.35 Q0.1 16.95 1.8 18.05 L4.45 19.9 5.2 20.4 6.55 21.85 6.55 21.95 6.5 22.0 6.45 22.1 6.25 22.15 6.0 22.15 Q4.8 20.8 3.2 19.8 L2.65 19.45 Q0.5 17.9 -1.95 16.95 -1.75 19.25 -2.1 21.55 L-2.2 22.65 Q-2.3 25.25 -1.9 27.85 L-1.6 30.8 -1.35 33.5 Q-1.1 35.0 -1.0 36.45 -0.75 39.5 -1.85 42.3 -2.4 43.65 -2.3 45.15 L-2.35 46.9 -2.7 46.9 Q-3.2 43.85 -2.05 41.1 -1.5 39.7 -1.45 38.15 -1.4 36.65 -1.65 35.2 L-2.0 32.25 Q-2.05 30.4 -2.25 28.6 L-2.4 29.7 -2.55 30.25 -3.55 33.05 -3.5 34.7 Q-3.15 36.05 -3.4 37.4 L-3.75 37.45 Q-3.7 35.95 -4.0 34.55 -4.3 32.7 -3.4 31.05 -2.85 30.0 -2.8 28.85 -2.65 26.8 -3.1 24.9 L-3.3 25.85 -3.45 26.35 -4.35 29.7 -4.4 29.75 -4.6 29.9 -4.65 30.0 -4.65 30.15 -4.7 30.2 -4.75 30.3 -4.95 30.5 -5.0 30.55 -5.35 30.9 Q-5.5 31.3 -5.85 31.15 L-5.9 31.1 -5.95 30.95 -5.95 30.85 -5.75 30.55 -5.3 29.95 -5.2 29.9 -5.15 29.8 -5.15 29.75 -5.1 29.7 -4.95 29.55 -4.85 29.45 -3.75 25.3 -3.4 23.95 -3.5 23.4 -3.6 23.1 Q-4.45 20.7 -4.05 18.15 L-4.0 18.0 -4.05 17.95 Q-4.7 16.55 -6.15 16.25 L-6.2 16.2 -6.2 16.05 -6.2 15.9 -6.1 15.85 -6.0 15.85 -6.0 15.8 Q-4.85 15.85 -4.15 16.8 L-3.95 17.05 -3.95 16.95 -3.95 16.8 -4.15 16.6 -4.2 16.5 -4.2 16.05 -4.2 15.85 -3.9 15.7 -3.7 15.75 -3.45 16.15 -3.4 16.2 -3.15 16.95 -3.15 17.05 -3.05 17.15 -2.95 17.15 -2.95 15.45 -2.9 15.3 -2.8 15.25 -2.65 15.2 -2.5 15.25 -2.4 15.35 M-3.55 19.5 L-3.55 20.6 -3.35 22.3 -3.3 22.2 -3.2 22.1 -3.2 21.65 -3.2 21.45 -3.15 21.4 -3.3 20.35 -3.4 20.35 -3.45 19.8 -3.55 19.5 M-3.7 38.55 L-3.3 42.85 Q-2.8 45.55 -2.75 48.25 L-2.8 48.3 -2.95 48.4 -3.15 48.35 -3.85 42.55 -4.1 40.55 -4.1 38.55 -3.9 38.45 -3.75 38.5 -3.7 38.55" fill="#cc0000" fill-rule="evenodd" stroke="none"/>
  </g>
</svg>
