<?xml version="1.0" encoding="UTF-8" standalone="no"?>
<svg xmlns:ffdec="https://www.free-decompiler.com/flash" xmlns:xlink="http://www.w3.org/1999/xlink" ffdec:objectType="shape" height="127.05px" width="36.6px" xmlns="http://www.w3.org/2000/svg">
  <g transform="matrix(1.0, 0.0, 0.0, 1.0, 22.15, 40.15)">
    <path d="M-7.25 9.6 L-16.9 -0.95 -0.45 9.8 -3.95 24.9 -13.65 37.25" fill="none" stroke="#000000" stroke-linecap="round" stroke-linejoin="round" stroke-width="3.0"/>
    <path d="M0.5 -25.2 L0.65 -25.15 0.75 -25.05 Q1.0 -23.6 0.45 -22.25 L0.4 -22.15 Q0.5 -20.5 -0.1 -19.05 L-0.15 -18.9 -0.45 -18.6 -0.45 -17.95 -0.5 -17.75 -1.2 -17.65 -1.3 -17.85 -1.3 -18.05 -1.25 -18.1 -1.1 -18.2 -0.85 -19.15 -0.7 -19.25 -0.7 -19.35 -0.7 -19.55 -0.4 -20.1 -0.3 -20.2 0.1 -24.25 0.2 -25.05 0.5 -25.2 M8.7 23.5 L8.75 23.6 8.8 23.75 10.65 25.15 10.75 25.25 10.75 25.45 10.7 25.6 Q10.15 25.85 9.75 25.3 L9.4 25.2 9.2 25.15 8.3 24.2 8.2 24.05 7.9 23.95 7.7 23.9 7.6 23.6 7.65 23.45 7.75 23.4 7.9 23.35 8.5 23.45 8.7 23.5 M12.95 27.6 Q14.0 28.2 14.4 29.45 L14.4 29.9 14.3 29.95 14.15 30.05 13.95 30.0 13.85 29.8 13.85 29.5 13.05 28.45 12.95 28.3 Q12.25 28.0 11.7 27.4 L11.65 27.3 11.6 27.1 11.4 26.9 11.25 26.75 11.0 26.65 10.95 26.45 Q10.9 26.3 11.0 26.2 L11.1 26.15 11.25 26.1 11.5 26.1 11.7 26.15 12.1 26.75 12.25 27.0 12.85 27.55 12.95 27.6 M0.3 36.5 L0.55 36.95 0.55 37.05 Q1.05 37.4 1.05 38.0 1.75 38.45 2.05 39.2 L1.9 39.35 1.75 39.45 0.45 38.25 0.4 38.1 0.4 37.9 -0.05 37.35 -0.1 37.25 -0.1 37.05 -0.25 36.85 -0.3 36.75 -0.35 36.6 -0.35 36.4 -0.6 36.1 -0.65 36.0 Q-1.1 34.5 -1.9 33.0 L-1.9 32.85 -1.95 32.75 -2.05 32.65 -2.15 31.5 -2.15 31.35 -1.85 31.2 -1.7 31.25 -1.6 31.35 Q-1.5 31.6 -1.55 31.9 L-1.55 32.1 -1.4 32.3 -1.3 32.35 -0.1 35.55 -0.05 35.75 Q0.3 36.0 0.3 36.4 L0.3 36.5 M-9.5 -40.15 Q-8.3 -38.7 -7.85 -36.7 -7.5 -34.95 -7.6 -33.05 -7.7 -31.25 -7.95 -29.4 L-8.1 -24.75 -8.1 -24.0 Q-7.75 -23.7 -7.85 -23.25 L-7.95 -23.05 -8.4 -23.0 -8.45 -23.2 -8.45 -23.4 -8.65 -23.6 -8.7 -23.65 -8.45 -30.6 -8.4 -31.25 Q-8.2 -33.05 -8.3 -34.9 -8.35 -36.25 -8.85 -37.5 L-9.75 -39.9 -9.75 -40.05 -9.65 -40.1 -9.5 -40.15 M-3.85 -33.55 Q-3.6 -32.7 -4.45 -32.25 L-4.55 -32.15 -4.55 -31.95 -4.55 -31.8 -4.85 -31.5 -4.9 -31.4 -5.1 -30.7 -4.95 -30.15 -4.95 -30.05 -4.9 -29.95 -4.75 -29.85 -4.7 -29.4 -4.7 -29.2 Q-4.45 -28.2 -4.5 -27.1 L-4.55 -26.65 -4.6 -26.6 -4.75 -26.45 -4.8 -24.95 -4.95 -24.6 -4.95 -23.65 -5.05 -23.4 -5.5 -23.4 -5.6 -24.7 -5.4 -25.1 -5.4 -26.3 -5.4 -26.8 -5.35 -26.85 -5.2 -26.95 -5.15 -28.3 -5.15 -28.65 Q-5.35 -28.85 -5.35 -29.15 L-5.3 -29.3 -5.35 -29.4 -5.5 -29.5 -5.55 -29.8 -5.75 -29.4 -5.95 -29.15 Q-5.9 -28.55 -6.25 -28.15 L-6.35 -28.05 -6.6 -27.5 -6.65 -27.4 -6.8 -26.55 -6.8 -26.35 -7.0 -25.2 -7.05 -25.05 -7.5 -25.0 -7.55 -26.3 -7.4 -26.6 -7.35 -27.45 -7.3 -27.65 -5.9 -30.65 -6.0 -30.75 -6.05 -30.9 -6.25 -31.0 -6.35 -31.55 -6.3 -31.75 -6.25 -31.85 -6.25 -31.9 -6.15 -31.95 -6.0 -31.95 -5.85 -31.9 -5.75 -31.8 -5.7 -31.7 -5.7 -31.55 -5.65 -31.45 -5.6 -31.45 -5.6 -31.55 -5.4 -31.85 -5.4 -31.95 -5.4 -32.05 -5.35 -32.1 -5.2 -32.2 -4.45 -33.15 -4.4 -33.45 -4.35 -33.65 -4.25 -33.7 -4.1 -33.7 -3.95 -33.65 -3.85 -33.55 M-4.8 -20.2 Q-4.65 -19.05 -5.05 -18.05 L-5.15 -17.85 -5.3 -17.4 -5.3 -17.2 -5.45 -17.0 -5.55 -16.9 -5.6 -16.8 -5.65 -16.75 Q-5.95 -16.6 -6.25 -16.75 L-6.3 -16.95 -6.3 -17.15 -6.15 -17.4 -6.05 -17.5 -5.9 -17.6 -5.85 -18.0 -5.8 -18.15 -5.5 -18.45 -5.45 -18.55 -5.25 -20.6 -5.15 -20.8 -5.05 -21.25 -5.0 -21.4 -4.9 -21.45 -4.75 -21.45 -4.6 -21.4 -4.5 -21.3 Q-4.35 -20.8 -4.75 -20.3 L-4.8 -20.2 M-8.5 -21.2 L-8.4 -21.25 -8.25 -21.3 Q-7.4 -21.0 -6.75 -20.1 -6.25 -19.35 -6.55 -18.55 L-6.75 -18.5 -7.0 -18.5 Q-7.05 -19.55 -7.95 -20.25 L-8.2 -20.65 -8.5 -20.75 -8.55 -20.95 -8.5 -21.2 M-10.05 -12.7 L-10.15 -12.75 -11.15 -12.75 -11.35 -12.75 -11.45 -12.7 -11.5 -12.65 -11.55 -12.55 Q-12.0 -12.1 -12.55 -12.15 L-12.65 -12.35 -12.65 -12.55 -12.0 -13.25 -11.5 -13.4 -11.35 -13.45 -11.3 -13.45 -9.95 -13.3 Q-9.6 -13.2 -9.55 -12.85 L-9.6 -12.75 -9.85 -12.6 -10.05 -12.7 M-19.65 24.25 L-19.6 24.2 -19.55 24.0 -19.25 23.85 -19.1 23.9 -19.0 24.0 Q-19.05 24.9 -19.85 25.55 L-20.6 26.45 -21.85 27.8 -22.05 27.75 -22.15 27.55 -22.15 27.35 -20.5 25.15 -20.4 25.0 -20.3 24.85 -20.25 24.75 -20.0 24.65 -19.65 24.25 M-17.0 22.7 L-14.3 22.6 -14.25 22.55 -14.15 22.45 -13.35 22.25 -12.6 21.95 -12.45 22.0 -12.35 22.1 -12.3 22.2 -12.3 22.35 Q-12.95 22.95 -13.8 23.1 L-13.85 23.2 -13.9 23.25 -14.1 23.25 -17.25 23.25 -17.3 22.95 -17.25 22.75 -17.0 22.7 M-6.5 31.7 L-6.35 31.75 -6.25 31.85 -6.3 32.5 -6.4 32.65 -6.45 32.65 -6.65 32.75 Q-8.3 35.9 -8.85 39.4 L-9.0 40.6 -9.1 41.95 -9.3 42.75 -9.75 42.75 Q-9.8 39.35 -8.8 36.1 -8.1 33.95 -6.9 32.05 L-6.8 31.85 -6.75 31.75 -6.65 31.7 -6.5 31.7 M-3.75 32.8 L-3.6 32.8 -3.45 32.85 -3.35 32.95 Q-2.9 36.6 -3.65 40.15 -4.0 41.8 -4.7 43.35 -4.7 45.4 -5.05 47.4 L-5.3 48.1 -5.75 48.1 -5.5 46.2 Q-5.4 45.8 -5.45 45.4 L-5.3 43.05 -5.15 42.85 -5.05 42.75 Q-3.75 39.3 -3.85 35.55 L-3.9 33.0 -3.85 32.9 -3.75 32.8 M-1.65 36.65 L-1.6 36.55 -1.55 36.5 -1.5 36.45 -1.35 36.45 -1.2 36.5 -1.1 36.6 -0.95 37.25 -0.95 37.45 -0.8 37.8 -0.8 38.0 Q0.0 40.2 -0.85 42.5 L-0.95 42.6 -0.95 42.65 -1.05 42.85 -1.5 42.9 -1.6 42.35 -1.55 42.15 -1.5 42.05 -1.5 42.0 -1.4 41.95 -1.25 41.9 Q-0.95 40.4 -1.15 38.9 L-1.15 38.6 -1.35 38.35 -1.4 38.25 -1.4 38.15 -1.4 37.95 -1.5 37.85 -1.55 37.75 -1.65 36.85 -1.65 36.65 M-2.35 52.55 L-2.25 51.9 -2.15 51.85 -2.0 51.8 -1.85 51.85 -1.75 51.95 Q-1.55 53.8 -2.15 55.55 -2.55 56.8 -2.55 58.2 -2.55 60.1 -2.15 61.9 -1.7 63.75 -1.6 65.65 L-1.65 65.7 -1.7 65.8 -2.15 65.85 Q-2.9 62.35 -3.05 58.7 -3.15 55.85 -2.4 53.15 -2.3 52.85 -2.35 52.55 M-2.6 69.75 L-2.5 69.85 -2.25 72.55 -2.2 72.75 -2.0 72.95 -1.95 73.05 -1.85 74.25 -1.85 74.45 Q-1.5 75.25 -1.4 76.2 L-1.45 77.45 Q-1.05 78.25 -1.1 79.2 L-1.05 86.35 -1.2 86.8 -1.65 86.85 -1.9 83.3 -1.8 78.05 -1.95 77.85 -2.05 77.75 -2.2 75.2 -2.2 75.05 -2.35 74.85 -2.45 74.75 -2.55 73.6 -2.55 73.45 -2.6 73.35 -2.7 73.25 Q-3.2 71.7 -3.05 69.95 L-3.0 69.8 -2.9 69.75 -2.75 69.7 -2.6 69.75" fill="#cc0000" fill-rule="evenodd" stroke="none"/>
  </g>
</svg>
