<?xml version="1.0" encoding="UTF-8" standalone="no"?>
<svg xmlns:ffdec="https://www.free-decompiler.com/flash" xmlns:xlink="http://www.w3.org/1999/xlink" ffdec:objectType="shape" height="157.4px" width="67.85px" xmlns="http://www.w3.org/2000/svg">
  <g transform="matrix(1.0, 0.0, 0.0, 1.0, 25.2, 49.05)">
    <path d="M8.6 11.95 L-8.9 14.05 9.1 7.25 25.6 7.9 41.15 13.95" fill="none" stroke="#000000" stroke-linecap="round" stroke-linejoin="round" stroke-width="3.0"/>
    <path d="M2.9 -40.0 L3.0 -39.9 Q3.05 -38.15 1.9 -36.75 L1.85 -36.65 1.8 -36.55 1.75 -36.35 0.25 -36.25 Q0.15 -36.35 0.2 -36.55 L0.25 -36.7 1.2 -36.9 Q2.15 -37.7 2.3 -38.9 L2.5 -39.95 2.6 -40.0 2.75 -40.05 2.9 -40.0 M0.55 -32.55 L0.8 -30.6 0.7 -30.25 0.3 -30.25 Q0.1 -30.6 0.15 -31.0 L0.2 -31.3 Q0.0 -31.7 -0.05 -32.15 L-0.05 -32.3 -0.2 -32.5 -0.3 -32.6 -0.4 -33.05 -0.45 -33.25 -0.55 -33.35 -0.65 -33.45 -0.75 -33.8 -0.7 -34.0 -0.65 -34.1 -0.65 -34.15 -0.55 -34.2 -0.4 -34.2 -0.2 -34.15 0.5 -32.65 0.55 -32.55 M0.5 -27.8 L0.65 -27.75 0.75 -27.65 Q0.95 -26.1 0.65 -24.55 L0.55 -24.4 0.1 -24.4 0.05 -24.6 0.05 -24.8 Q0.3 -26.05 0.2 -27.4 L0.2 -27.6 0.25 -27.7 0.35 -27.8 0.5 -27.8 M15.75 30.2 L15.9 30.25 16.0 30.35 16.05 30.6 16.35 30.8 16.45 30.85 16.45 30.95 16.45 31.05 16.8 31.4 16.95 31.5 17.05 31.8 17.1 32.15 17.3 32.25 17.4 32.35 17.45 32.8 17.35 33.15 17.15 33.2 16.95 33.15 16.85 33.05 16.85 32.95 16.85 32.85 16.45 32.3 16.45 32.0 16.25 31.85 16.2 32.0 15.75 32.0 15.65 31.6 15.7 31.45 15.5 31.25 15.45 31.15 15.45 31.0 15.35 30.7 15.4 30.5 15.45 30.5 15.45 30.4 15.5 30.3 15.5 30.25 15.6 30.2 15.75 30.2 M18.8 33.9 L18.9 34.0 19.25 34.85 19.3 34.95 19.7 36.6 19.6 37.45 19.2 37.5 19.05 36.65 19.1 36.35 18.75 35.7 18.7 35.6 18.7 35.35 18.7 35.15 Q18.3 34.7 18.35 34.1 L18.4 33.95 18.5 33.9 18.65 33.85 18.8 33.9 M5.5 43.0 L5.45 43.2 3.95 43.15 3.85 43.05 3.85 42.95 3.85 42.85 1.6 39.95 1.5 39.85 1.45 39.75 1.45 39.6 1.45 39.5 1.55 39.4 1.75 39.35 Q2.95 40.2 3.7 41.6 L4.45 42.55 5.5 42.85 5.5 43.0 M4.95 45.05 L4.85 44.6 4.85 44.4 4.9 44.3 4.95 44.25 5.0 44.2 5.15 44.2 5.35 44.25 5.9 45.1 5.95 45.2 5.95 45.25 5.95 45.45 6.15 45.75 6.2 45.85 6.2 46.4 6.1 46.65 5.7 46.65 5.55 46.25 5.6 46.1 5.45 45.9 5.35 45.8 5.35 45.7 5.35 45.5 5.05 45.15 4.95 45.05 M0.05 100.3 Q0.5 101.55 0.4 103.0 L0.4 106.75 0.05 108.05 -0.25 108.2 -0.35 108.3 -1.7 108.25 -1.8 107.95 -1.75 107.8 -0.45 107.5 -0.2 104.05 Q-0.2 102.3 -0.5 100.65 L-0.55 100.45 -0.55 93.55 -0.55 93.35 -0.25 93.2 -0.1 93.25 0.0 93.35 0.05 100.1 0.05 100.3 M-8.65 -37.55 L-8.9 -37.6 Q-9.65 -39.6 -10.9 -41.4 L-11.1 -41.8 -13.85 -48.35 -13.95 -48.75 -13.95 -48.85 -13.9 -48.95 -13.9 -49.0 -13.8 -49.05 -13.65 -49.05 Q-12.9 -48.45 -12.55 -47.45 L-11.4 -44.4 -10.35 -41.4 Q-9.2 -40.0 -8.35 -38.3 L-8.35 -37.85 -8.45 -37.6 -8.65 -37.55 M-0.6 -41.65 L-0.5 -41.55 -0.45 -39.2 -0.5 -39.05 -0.55 -38.95 -0.65 -38.85 -0.8 -37.9 -0.9 -37.75 -1.35 -37.6 -1.55 -37.65 -1.65 -37.95 -1.65 -38.15 -1.5 -38.25 -1.35 -38.35 -1.3 -38.9 -1.3 -39.1 -1.2 -39.25 -1.05 -39.4 -1.05 -41.45 -1.0 -41.65 -0.9 -41.7 -0.75 -41.7 -0.6 -41.65 M-10.55 -33.35 L-10.55 -33.55 -10.55 -33.6 -10.5 -33.7 -10.4 -33.75 -10.25 -33.8 -7.2 -33.55 -7.15 -33.5 -6.85 -33.45 -6.55 -33.2 -6.5 -33.15 -6.35 -33.05 -6.15 -33.0 -6.1 -32.9 -5.75 -32.35 Q-5.6 -32.05 -5.8 -31.8 L-5.85 -31.75 -6.25 -31.75 -6.3 -31.85 -6.3 -32.05 -6.35 -32.1 -6.55 -32.15 -6.6 -32.25 -6.65 -32.4 -6.75 -32.45 -7.0 -32.5 -7.05 -32.6 -7.05 -32.8 -7.25 -32.85 -7.55 -33.0 -8.25 -33.1 -10.5 -33.25 -10.55 -33.35 M-1.6 -36.2 L-1.5 -36.15 Q-1.4 -35.95 -1.55 -35.7 L-1.6 -35.6 Q-2.0 -35.3 -2.5 -35.3 L-2.6 -35.1 -2.65 -35.0 Q-3.05 -34.65 -3.5 -34.75 L-3.55 -34.95 -3.55 -35.15 Q-3.1 -35.9 -2.25 -36.05 L-2.15 -36.15 -2.1 -36.2 -1.85 -36.3 -1.6 -36.2 M-2.6 -24.15 L-2.65 -23.95 -2.7 -23.9 -2.95 -23.8 -3.05 -23.7 -3.15 -23.55 -3.9 -22.8 -4.4 -22.55 -4.45 -22.45 -4.55 -22.3 -5.1 -21.95 -5.3 -22.0 -5.4 -22.2 -5.4 -22.4 Q-5.05 -22.95 -4.5 -23.2 L-4.35 -23.3 -3.6 -24.05 Q-3.4 -24.4 -3.0 -24.45 L-2.7 -24.4 -2.6 -24.3 -2.6 -24.15 M-7.65 -22.1 L-7.6 -22.05 -7.55 -21.95 -7.6 -21.8 -7.65 -21.7 -8.8 -21.3 -8.85 -21.2 -8.9 -21.15 -8.95 -21.15 -9.3 -21.15 -9.35 -21.25 -9.4 -21.7 -9.4 -21.8 -8.55 -22.15 -8.35 -22.2 -7.65 -22.1 M-12.75 -15.2 L-12.65 -15.25 -12.5 -15.3 -12.2 -15.2 -12.1 -15.15 Q-12.0 -14.65 -12.45 -14.3 L-12.55 -14.2 -12.5 -12.9 -12.65 -12.55 -13.05 -12.5 Q-13.3 -13.5 -13.05 -14.55 L-12.85 -14.85 -12.8 -15.05 -12.75 -15.2 M-22.9 22.75 L-22.75 22.7 -21.1 22.8 -21.0 22.85 -20.95 22.95 -21.0 23.1 -21.05 23.2 -23.0 23.25 -23.05 23.15 -23.05 22.85 -23.0 22.75 -22.9 22.75 M-23.0 26.6 L-22.85 26.65 -22.75 26.75 Q-22.7 27.4 -23.15 28.0 L-23.25 28.15 -23.35 28.25 -23.5 28.35 -24.25 29.65 -24.3 29.75 -24.5 29.8 -24.75 29.75 -24.85 29.45 -24.8 29.25 -24.15 28.25 -24.1 28.15 -24.1 28.05 -24.05 27.85 -23.9 27.75 -23.75 27.65 -23.25 26.7 -23.25 26.65 -23.15 26.6 -23.0 26.6 M-24.85 30.6 L-24.7 30.65 -24.6 30.75 -24.55 31.65 -24.65 31.85 -25.05 31.9 -25.15 30.85 -25.1 30.7 -25.0 30.65 -24.85 30.6 M-10.3 46.05 Q-10.05 45.3 -10.15 44.45 L-10.15 44.3 -9.85 44.15 -9.7 44.2 -9.6 44.3 Q-9.4 46.4 -10.25 48.35 L-10.3 48.5 -10.45 49.05 -10.45 49.25 -10.6 49.45 -10.7 49.55 -10.7 49.9 -10.75 50.1 -10.85 50.15 -11.0 50.25 -11.25 50.2 -11.35 49.45 -11.3 49.25 -11.2 49.1 -11.05 48.95 -11.05 48.7 -11.05 48.5 -10.7 47.65 -10.65 47.55 -10.35 46.15 -10.3 46.05 M-6.1 49.9 L-6.0 49.85 -5.85 49.8 -5.7 49.85 -5.6 49.95 Q-5.4 52.0 -5.75 54.0 L-5.8 54.15 Q-6.15 55.4 -5.85 56.7 L-5.8 56.8 -5.8 56.85 -5.9 57.05 Q-6.3 57.3 -6.55 56.8 L-6.55 54.3 -6.55 54.1 Q-6.35 53.7 -6.4 53.15 L-6.4 52.95 Q-6.0 51.55 -6.15 49.95 L-6.1 49.9 M-10.9 52.2 L-10.6 52.05 -10.45 52.1 -10.35 52.2 -10.2 55.55 -10.2 55.75 -10.35 55.9 -10.5 56.0 -10.9 55.75 -10.9 52.4 -10.9 52.2 M-3.05 64.7 L-2.75 64.55 -2.6 64.6 -2.5 64.7 Q-2.4 66.9 -2.45 69.2 L-2.5 69.4 -2.6 69.45 -2.75 69.55 -2.95 69.45 -3.05 64.9 -3.05 64.7 M-1.45 70.45 L-1.4 70.45 -1.25 70.4 -1.1 70.5 -1.0 70.55 -0.9 77.9 -1.05 78.6 -1.45 78.6 -1.55 71.3 -1.55 70.65 -1.5 70.55 -1.45 70.45 M-1.15 80.55 L-1.0 80.55 -0.85 80.6 -0.75 80.7 Q-0.6 81.05 -0.85 81.35 L-0.95 81.45 -0.95 85.1 -1.05 85.35 -1.45 85.35 -1.55 81.5 -1.55 81.2 -1.25 80.65 -1.15 80.55" fill="#cc0000" fill-rule="evenodd" stroke="none"/>
  </g>
</svg>
