<?xml version="1.0" encoding="UTF-8" standalone="no"?>
<svg xmlns:ffdec="https://www.free-decompiler.com/flash" xmlns:xlink="http://www.w3.org/1999/xlink" ffdec:objectType="shape" height="184.2px" width="59.25px" xmlns="http://www.w3.org/2000/svg">
  <g transform="matrix(1.0, 0.0, 0.0, 1.0, 29.1, 57.55)">
    <path d="M12.9 4.5 L16.15 20.4 7.15 3.45 16.4 -11.0 28.65 -22.1" fill="none" stroke="#000000" stroke-linecap="round" stroke-linejoin="round" stroke-width="3.0"/>
    <path d="M2.3 -44.6 L2.4 -44.55 2.45 -44.45 2.45 -44.4 2.45 -44.3 Q3.15 -43.9 3.3 -43.15 L3.3 -42.9 Q3.65 -42.35 3.6 -41.65 L3.5 -41.1 3.4 -41.0 3.25 -40.95 3.0 -41.0 2.75 -42.5 Q2.6 -42.8 2.7 -43.15 L1.95 -43.95 1.85 -44.05 1.85 -44.1 1.7 -44.15 1.6 -44.35 1.65 -44.65 1.75 -44.65 1.9 -44.7 2.3 -44.6 M2.2 -35.95 L0.7 -35.9 0.6 -36.0 0.6 -36.3 0.65 -36.4 0.75 -36.4 0.9 -36.45 2.15 -36.35 2.25 -36.3 2.3 -36.2 2.25 -36.05 2.2 -35.95 M1.1 -29.55 L1.05 -27.8 1.05 -27.6 0.9 -27.4 0.8 -27.3 0.75 -26.65 0.7 -26.5 0.3 -26.5 Q0.1 -27.05 0.2 -27.65 L0.2 -27.8 0.3 -27.9 0.45 -28.0 0.5 -29.3 0.55 -29.5 0.6 -29.6 0.6 -29.65 0.7 -29.7 0.85 -29.7 1.0 -29.65 1.1 -29.55 M19.55 33.9 L19.65 34.0 Q19.85 35.05 19.45 36.0 L19.25 36.25 19.25 36.35 19.1 36.5 18.7 36.5 Q18.5 36.2 18.65 35.85 L18.7 35.75 19.05 35.55 19.1 34.25 19.1 34.05 19.15 33.95 19.25 33.85 19.4 33.85 19.55 33.9 M17.25 34.6 L17.3 34.85 17.3 35.05 17.0 35.35 16.95 35.45 16.85 35.6 16.45 35.65 Q16.15 35.15 16.6 34.7 L16.75 34.5 16.85 34.45 17.0 34.45 17.15 34.5 17.25 34.6 M6.85 43.15 L7.05 43.6 7.05 43.7 Q6.85 44.1 6.45 43.9 L6.35 43.8 6.35 43.75 5.45 43.5 5.35 43.4 5.35 43.3 4.7 43.15 4.6 42.7 4.6 42.5 4.9 42.35 5.1 42.4 5.15 42.5 5.2 42.55 5.85 42.75 5.9 42.85 5.95 42.9 6.85 43.15 M8.4 44.35 Q9.15 44.25 9.6 44.85 L9.6 44.9 9.65 44.9 9.9 45.1 9.95 45.2 10.0 45.55 10.05 45.65 10.0 45.75 10.0 45.85 9.95 45.9 9.9 45.9 9.5 45.9 9.4 45.7 9.05 45.25 8.75 45.15 8.7 45.05 8.7 45.0 8.4 44.95 8.2 44.9 8.1 44.8 Q8.0 44.6 8.15 44.45 L8.25 44.4 8.4 44.35 M6.8 47.9 L6.9 48.0 6.9 49.75 6.85 49.95 6.45 50.0 Q6.25 49.1 6.35 48.1 L6.4 47.95 6.5 47.9 6.65 47.85 6.8 47.9 M22.15 37.95 L22.3 38.0 22.4 38.1 Q22.55 39.8 22.2 41.45 L22.15 41.65 22.05 41.7 21.9 41.8 21.7 41.75 Q21.7 40.05 21.85 38.25 L21.85 38.1 22.15 37.95 M0.05 82.7 L-0.4 82.7 -0.6 82.35 -0.7 82.25 Q-0.75 81.05 -1.25 79.95 -1.8 78.75 -1.55 77.4 L-1.5 77.3 -1.45 77.2 -1.4 77.2 -1.25 77.15 -1.1 77.25 -1.0 77.3 Q-1.0 79.05 -0.3 80.55 0.0 81.2 -0.1 81.9 L0.1 82.2 0.15 82.3 0.1 82.55 0.05 82.7 M0.1 111.4 L0.1 111.35 0.2 111.3 0.35 111.3 0.5 111.35 0.6 111.45 0.55 118.75 0.55 125.6 0.15 126.25 0.1 126.35 Q-0.15 126.75 -0.65 126.6 L-0.7 126.4 -0.7 126.2 -0.65 126.15 -0.5 126.05 -0.5 125.95 -0.45 125.75 -0.3 125.45 -0.25 125.35 -0.1 125.3 -0.1 117.95 0.05 111.5 0.1 111.4 M-18.65 -57.5 L-18.4 -57.1 -18.35 -57.05 -18.2 -56.3 -18.15 -56.0 -17.25 -54.9 -16.1 -52.8 Q-16.05 -52.65 -16.15 -52.55 L-16.6 -52.5 -17.75 -54.4 -18.75 -55.8 -18.85 -56.35 -18.9 -56.65 -19.1 -56.8 -19.15 -56.9 -19.15 -57.3 -19.1 -57.45 -19.0 -57.5 -18.85 -57.55 -18.65 -57.5 M-16.4 -51.4 L-16.65 -51.45 -16.9 -51.5 -16.95 -51.6 -16.95 -51.9 -16.9 -52.0 -16.8 -52.0 -16.65 -52.05 Q-15.85 -52.05 -15.35 -51.45 L-15.3 -51.35 Q-14.4 -50.55 -13.8 -49.45 L-13.45 -48.9 -13.45 -48.8 -13.5 -48.65 -13.55 -48.55 -13.6 -48.5 -13.95 -48.5 -14.05 -48.6 -14.25 -48.9 -14.3 -49.0 -14.75 -49.75 -15.2 -50.2 -15.2 -50.3 -15.3 -50.55 -15.4 -50.65 -15.5 -50.7 -15.7 -50.75 -15.8 -50.85 -15.8 -50.95 -15.85 -51.05 -16.15 -51.25 -16.4 -51.4 M-8.75 -37.25 L-8.6 -37.3 -7.65 -37.2 -7.6 -37.15 -7.55 -37.05 -7.6 -36.9 -7.65 -36.8 -7.7 -36.75 -8.3 -36.65 -8.4 -36.55 -8.45 -36.45 -8.55 -36.45 -8.75 -36.4 -9.45 -35.55 -9.95 -34.95 -9.95 -34.9 -10.0 -34.8 -10.55 -33.95 -10.75 -33.1 -10.85 -33.0 -11.0 -32.95 -11.25 -33.0 -11.35 -33.55 -11.15 -34.3 -11.05 -34.4 -10.65 -35.05 -10.6 -35.15 -10.5 -35.35 -9.75 -36.15 -9.25 -36.9 -9.15 -36.95 -8.9 -37.05 -8.9 -37.1 -8.85 -37.2 -8.75 -37.25 M-1.05 -37.95 L-0.9 -37.95 -0.75 -37.9 -0.65 -37.8 -0.6 -35.65 -0.6 -35.45 Q-0.35 -35.05 -0.5 -34.55 L-0.55 -34.45 -0.95 -34.4 -1.15 -34.95 -1.2 -35.05 -1.2 -37.7 -1.15 -37.9 -1.05 -37.95 M-12.45 -47.15 L-12.5 -46.95 -12.55 -46.85 -13.45 -47.0 -13.55 -47.4 -13.5 -47.55 -13.25 -47.65 -12.5 -47.2 -12.45 -47.15 M-5.1 -26.2 L-4.7 -26.1 -4.6 -26.05 -4.55 -25.95 -4.55 -25.9 -4.55 -25.8 -4.75 -25.6 -4.9 -25.4 -5.35 -25.15 -5.4 -25.05 -5.6 -25.0 -5.8 -25.0 Q-6.05 -25.4 -5.7 -25.75 L-5.45 -25.95 -5.4 -26.05 -5.35 -26.15 -5.25 -26.15 -5.1 -26.2 M-3.5 -25.05 L-2.4 -24.95 -2.35 -24.9 -2.3 -24.8 -2.35 -24.65 -2.4 -24.55 -3.75 -24.5 -3.8 -24.6 -3.8 -24.85 -3.75 -24.95 -3.65 -25.0 -3.5 -25.05 M-9.5 -23.7 L-9.35 -23.65 -9.25 -23.55 -9.1 -22.9 -9.05 -22.8 -9.05 -22.75 -9.15 -22.55 Q-9.55 -22.3 -9.8 -22.8 L-9.8 -23.45 -9.75 -23.65 -9.65 -23.7 -9.5 -23.7 M-14.85 -15.2 L-14.6 -15.2 -14.4 -15.15 -13.15 -14.1 -13.05 -13.85 -13.1 -13.75 -13.35 -13.6 -13.55 -13.65 -13.65 -13.75 -13.65 -13.8 -14.3 -14.0 -14.6 -14.35 -14.8 -14.4 -14.9 -14.5 -15.1 -14.7 -15.15 -14.8 -15.15 -14.95 -15.15 -15.05 -15.05 -15.15 -14.85 -15.2 M-26.0 22.6 L-25.6 22.7 -25.5 22.75 -25.45 22.85 -25.5 23.0 -25.55 23.1 -25.6 23.15 -25.8 23.25 Q-26.1 23.85 -26.75 23.75 L-26.8 23.65 -26.8 23.45 -26.8 23.35 -26.35 22.8 -26.25 22.65 -26.15 22.65 -26.0 22.6 M-28.25 29.35 L-28.1 29.4 -28.0 29.5 Q-27.85 30.1 -28.25 30.6 L-28.3 30.7 -28.5 31.85 -28.55 32.0 -29.0 32.0 -29.0 31.05 -28.9 30.85 -28.6 29.75 -28.55 29.55 -28.5 29.45 -28.5 29.4 -28.4 29.35 -28.25 29.35 M-26.6 32.95 L-26.5 32.9 -26.35 32.85 -25.95 32.95 -25.85 33.0 -25.8 33.1 -25.85 33.25 -25.9 33.35 -26.15 33.5 -26.35 33.55 -26.55 33.5 -26.7 33.2 -26.6 32.95 M-7.15 58.7 L-7.0 58.95 -6.95 59.25 -6.85 59.35 -6.7 59.55 -6.7 59.65 -6.75 59.7 -6.8 59.8 -7.5 59.85 -7.55 59.65 -7.6 59.4 -7.7 59.3 -7.8 59.2 -7.9 59.0 -7.85 58.7 -7.75 58.7 -7.6 58.65 -7.35 58.65 -7.15 58.7 M-9.55 60.9 L-9.7 61.05 -9.85 61.15 Q-11.55 60.4 -11.65 58.6 L-11.65 58.5 -11.6 58.4 -11.5 58.3 -11.35 58.3 -11.2 58.35 -11.1 58.45 Q-10.85 59.9 -9.6 60.8 L-9.55 60.9 M-6.85 60.55 L-6.95 62.15 -6.95 62.2 -6.85 62.25 -6.75 62.3 -6.7 62.45 Q-5.9 62.85 -5.45 63.55 L-5.6 63.7 -5.75 63.8 -6.6 63.35 -6.6 63.45 -6.55 63.55 -6.6 65.15 -6.65 65.3 -7.05 65.35 -7.25 63.75 -7.3 63.55 -7.3 63.05 -7.5 62.95 -7.5 61.2 -7.4 61.0 -7.4 60.8 -7.4 60.65 -7.35 60.55 -7.3 60.45 -7.25 60.45 -7.1 60.4 -6.95 60.5 -6.85 60.55 M-12.45 52.25 L-12.4 52.05 -12.35 51.95 -12.25 51.95 -12.1 51.9 -11.7 52.0 -11.6 52.05 -11.55 52.15 -11.6 52.3 -11.65 52.4 -11.7 52.45 -11.85 52.55 -12.0 52.7 -12.15 52.9 -12.35 53.65 -12.55 53.95 Q-12.55 54.35 -12.85 54.7 L-13.05 54.9 -13.4 55.45 -13.6 55.5 -13.8 55.45 -13.85 55.35 -13.9 55.15 -13.9 55.05 -13.5 54.45 -13.3 54.2 -12.85 53.0 -12.8 52.55 -12.7 52.45 -12.5 52.35 -12.45 52.25 M-15.8 56.7 L-15.45 56.45 -15.3 56.35 -15.25 56.35 -15.1 56.3 -14.7 56.4 -14.6 56.45 -14.55 56.55 -14.6 56.7 -14.65 56.8 -16.3 58.45 -16.4 58.6 -16.75 58.65 -17.0 58.6 -17.05 58.5 -17.05 58.3 -17.05 58.2 -15.9 56.9 -15.8 56.7 M-2.9 69.65 L-2.75 69.75 -2.65 69.8 Q-2.45 70.65 -2.75 71.5 L-2.8 71.6 -2.95 72.15 -2.95 72.35 -3.05 72.45 -3.15 72.55 -3.2 72.65 -3.3 72.8 -3.7 72.85 -3.8 72.4 -3.8 72.2 -3.7 72.1 -3.6 72.0 -3.5 71.55 -3.45 71.35 -3.3 71.15 -3.25 71.05 -3.2 69.95 -3.15 69.75 -3.05 69.7 -2.9 69.65 M-1.4 85.35 L-1.3 85.3 -1.15 85.3 -1.0 85.35 -0.9 85.45 Q-0.8 86.0 -1.1 86.55 L-1.2 86.7 -1.65 86.7 Q-1.75 86.1 -1.45 85.5 L-1.4 85.35 M-1.1 87.75 L-1.0 87.8 Q-0.85 88.75 -1.0 89.7 L-1.05 89.85 -1.45 89.85 -1.55 88.05 -1.55 87.9 -1.5 87.8 -1.45 87.7 -1.4 87.7 -1.25 87.65 -1.1 87.75 M-0.9 125.25 L-0.95 125.35 -1.65 125.35 Q-2.25 124.9 -2.25 124.1 L-2.2 123.85 -1.9 123.7 -1.75 123.75 -1.65 123.85 -1.6 124.2 -1.6 124.4 -1.2 124.6 -0.9 125.0 -0.85 125.05 -0.9 125.25" fill="#cc0000" fill-rule="evenodd" stroke="none"/>
  </g>
</svg>
