<?xml version="1.0" encoding="UTF-8" standalone="no"?>
<svg xmlns:ffdec="https://www.free-decompiler.com/flash" xmlns:xlink="http://www.w3.org/1999/xlink" ffdec:objectType="shape" height="203.6px" width="59.9px" xmlns="http://www.w3.org/2000/svg">
  <g transform="matrix(1.0, 0.0, 0.0, 1.0, 33.1, 62.3)">
    <path d="M0.35 -5.6 L15.0 -12.45 -0.25 -1.15 -13.7 -11.6 -16.2 -24.9" fill="none" stroke="#000000" stroke-linecap="round" stroke-linejoin="round" stroke-width="3.0"/>
    <path d="M3.55 -46.6 L3.65 -46.55 4.15 -46.3 4.2 -46.2 4.1 -45.95 4.05 -45.9 3.2 -46.0 3.1 -46.1 3.1 -46.15 1.55 -46.15 1.2 -45.9 1.15 -45.9 0.75 -45.9 0.7 -46.0 0.7 -46.2 0.7 -46.3 0.75 -46.4 0.95 -46.65 1.15 -46.7 1.5 -46.8 3.4 -46.7 3.55 -46.6 M5.25 -34.95 L5.0 -35.0 4.9 -35.15 4.75 -35.3 Q4.55 -35.55 4.6 -35.95 L4.65 -36.15 4.75 -36.2 4.9 -36.2 5.1 -36.15 5.2 -35.95 5.2 -35.9 5.4 -35.75 5.5 -35.65 5.55 -35.3 5.5 -35.1 5.4 -35.0 5.25 -34.95 M1.0 -30.8 L1.15 -30.75 1.25 -30.65 1.3 -29.45 1.25 -29.25 1.15 -29.2 1.0 -29.1 0.8 -29.15 Q0.6 -29.8 0.7 -30.45 L0.7 -30.65 1.0 -30.8 M16.4 36.35 L16.55 36.4 16.65 36.5 16.7 36.85 16.65 37.05 16.55 37.15 16.4 37.2 16.2 37.15 16.1 36.7 16.1 36.5 16.4 36.35 M8.7 44.15 L8.7 43.85 8.75 43.75 8.85 43.75 9.0 43.7 10.35 43.8 10.4 43.85 10.45 43.95 10.4 44.1 10.35 44.2 8.75 44.25 8.7 44.15 M10.95 46.4 Q11.2 47.1 11.75 47.65 L11.8 47.7 11.75 47.9 11.7 48.0 11.0 48.0 10.95 47.8 10.9 47.6 10.45 47.15 10.45 46.7 10.45 46.5 10.75 46.35 10.95 46.4 M26.75 41.75 L26.2 42.35 26.2 42.4 26.1 42.6 25.0 42.75 24.95 42.55 24.95 42.35 25.85 41.75 25.95 41.6 26.0 41.5 26.5 41.35 26.65 41.4 26.75 41.5 26.8 41.6 26.75 41.75 M22.55 37.8 L22.65 37.85 22.7 37.95 22.65 38.1 22.6 38.2 20.95 38.4 20.85 38.3 20.85 38.05 20.9 37.95 22.0 37.7 22.55 37.8 M24.95 43.2 L24.9 43.4 24.35 43.85 23.5 44.0 Q23.4 43.85 23.45 43.6 L23.5 43.45 24.45 42.75 24.5 42.7 24.65 42.7 24.8 42.75 24.9 42.85 24.95 43.2 M7.3 52.15 L7.4 52.25 7.45 52.6 7.4 52.8 7.3 52.9 7.15 52.95 6.95 52.9 6.85 52.45 6.85 52.25 7.15 52.1 7.3 52.15 M0.15 128.6 L0.25 128.7 0.4 131.4 0.4 131.6 0.55 131.8 0.6 131.85 0.65 133.35 0.65 133.55 Q0.9 133.85 0.75 134.2 L0.7 134.3 0.3 134.35 0.25 134.25 0.2 134.05 0.1 133.95 0.05 133.85 0.05 132.45 0.05 132.3 -0.1 132.1 -0.2 132.0 -0.3 128.8 -0.25 128.6 -0.15 128.55 0.0 128.55 0.15 128.6 M0.5 135.0 L0.6 135.1 0.8 137.6 0.8 137.8 1.0 138.1 1.05 138.2 1.05 141.0 0.95 141.25 0.55 141.25 Q0.35 139.95 0.45 138.6 L0.45 138.45 0.3 138.25 0.2 138.15 Q0.0 136.75 0.05 135.35 L0.05 135.15 0.1 135.05 0.1 135.0 0.2 134.95 0.35 134.95 0.5 135.0 M-20.6 -62.25 L-20.5 -62.15 -20.4 -61.4 -20.35 -61.35 -20.25 -61.25 -20.1 -60.7 -20.1 -60.5 -19.7 -59.4 -19.7 -59.2 -19.5 -59.0 -19.45 -58.9 -19.45 -58.85 -19.55 -58.65 Q-19.9 -58.45 -20.25 -58.8 L-20.45 -59.75 -20.45 -59.9 -20.6 -60.1 -20.7 -60.2 -20.75 -60.8 -20.95 -60.85 -21.05 -62.0 -21.05 -62.15 -20.75 -62.3 -20.6 -62.25 M-20.9 -52.4 L-18.45 -52.3 -18.4 -52.25 -18.35 -52.15 -18.4 -52.0 -18.45 -51.9 -18.65 -51.85 -21.15 -51.85 -21.2 -51.95 -21.2 -52.2 -21.15 -52.3 -21.05 -52.35 -20.9 -52.4 M-0.75 -41.65 L-0.65 -41.55 -0.65 -38.65 -0.7 -38.5 -1.15 -38.5 -1.25 -41.3 -1.2 -41.5 -1.15 -41.6 -1.15 -41.65 -1.05 -41.7 -0.9 -41.7 -0.75 -41.65 M-14.5 -48.3 L-14.1 -48.2 -14.0 -48.15 -13.95 -48.05 -14.0 -47.9 -14.05 -47.8 -14.7 -47.75 -14.8 -47.95 -14.75 -48.25 -14.65 -48.25 -14.5 -48.3 M-12.35 -40.3 L-12.2 -40.25 -12.1 -40.15 Q-12.0 -39.75 -12.35 -39.4 L-12.5 -39.3 -12.7 -38.95 -12.8 -38.85 Q-13.15 -37.85 -12.75 -36.85 L-12.75 -36.5 -12.85 -36.45 -13.0 -36.35 -13.25 -36.4 Q-13.7 -37.35 -13.6 -38.45 L-13.4 -38.85 -13.4 -38.95 -13.4 -39.15 -13.15 -39.4 -13.1 -39.5 -13.1 -39.6 -13.05 -39.8 -12.9 -39.9 -12.75 -40.0 -12.7 -40.1 -12.55 -40.25 -12.5 -40.3 -12.35 -40.3 M-5.7 -28.15 L-5.6 -28.05 -5.55 -27.95 -5.55 -27.9 -5.55 -27.8 Q-5.9 -27.25 -6.5 -27.5 L-6.55 -27.7 -6.55 -27.9 -6.25 -28.1 -6.15 -28.2 -6.0 -28.2 -5.7 -28.15 M-3.25 -26.2 Q-2.2 -26.25 -1.6 -25.3 L-1.55 -25.2 -1.55 -25.15 -1.6 -25.05 -1.65 -24.95 -1.7 -24.9 -2.3 -24.9 -2.4 -25.0 -2.4 -25.1 -2.4 -25.2 -2.5 -25.3 -2.75 -25.55 -3.5 -25.65 -3.55 -25.75 -3.55 -26.05 -3.5 -26.15 -3.4 -26.15 -3.25 -26.2 M-11.15 -23.95 L-11.0 -23.95 -10.35 -23.75 -10.25 -23.65 -10.25 -23.45 -10.3 -23.3 -11.25 -23.4 -11.3 -23.7 -11.25 -23.9 -11.15 -23.95 M-15.75 -15.7 L-15.6 -15.65 -15.5 -15.55 -15.45 -14.8 -15.5 -14.65 Q-16.0 -14.15 -16.75 -14.4 L-16.8 -14.7 -16.75 -14.9 -16.05 -15.05 -16.05 -15.3 -16.05 -15.5 -16.0 -15.6 -16.0 -15.65 -15.9 -15.7 -15.75 -15.7 M-30.5 23.2 L-30.3 23.0 -30.1 22.95 -29.7 23.05 -29.6 23.1 -29.55 23.2 -29.6 23.35 -29.65 23.45 -29.7 23.5 -29.95 23.6 -30.1 23.75 -30.25 23.95 -30.3 24.15 -30.4 24.4 -30.6 24.45 -30.8 24.4 -30.95 23.95 -30.9 23.65 -30.85 23.55 -30.6 23.35 -30.5 23.2 M-27.35 34.0 L-27.25 34.1 Q-27.1 34.4 -27.3 34.75 L-27.4 34.9 -27.8 34.9 Q-28.05 34.5 -27.8 34.15 L-27.75 34.0 -27.65 33.95 -27.5 33.95 -27.35 34.0 M-32.6 31.4 L-32.5 31.5 -32.35 31.95 -32.3 32.15 -31.6 33.1 Q-31.5 33.25 -31.55 33.45 L-31.6 33.65 -31.7 33.7 -31.85 33.8 -32.05 33.75 -32.55 32.9 -32.6 32.8 -32.85 32.6 -32.9 32.5 -32.9 32.35 -33.05 31.7 -33.05 31.5 -32.75 31.35 -32.6 31.4 M-7.7 60.75 L-7.6 60.8 -7.55 61.1 -7.55 61.3 -7.7 61.45 -7.8 61.55 -7.8 61.65 -7.85 61.75 -8.55 61.85 -8.65 61.65 -8.65 61.45 -8.15 60.8 -7.85 60.7 -7.85 60.65 -7.7 60.75 M-15.85 58.45 L-15.75 58.55 Q-15.6 58.85 -15.95 59.1 L-16.05 59.2 -16.05 59.3 -16.05 59.45 Q-16.45 59.75 -16.45 60.2 L-16.5 60.3 -16.65 60.5 -16.75 60.6 -16.8 60.8 -16.8 60.95 -17.15 61.25 -17.25 61.45 -17.3 61.6 -17.75 61.6 Q-17.95 61.2 -17.65 60.85 L-17.5 60.65 -17.35 60.3 -17.3 60.1 -16.95 59.45 -16.9 59.35 -16.3 58.5 -16.25 58.45 -16.15 58.4 -16.0 58.4 -15.85 58.45 M-18.0 59.55 L-17.95 59.65 -18.0 59.8 -18.05 59.9 -18.1 59.95 -18.35 60.05 -18.45 60.15 -20.25 60.1 -20.3 60.0 -20.3 59.75 -20.25 59.65 -18.6 59.4 -18.1 59.5 -18.0 59.55 M-11.55 63.6 L-11.45 63.8 -11.45 63.9 Q-11.15 64.05 -11.0 64.35 L-11.0 64.4 -10.75 64.55 -10.7 64.65 Q-10.2 64.85 -9.85 65.2 L-9.85 65.35 -9.9 65.55 Q-10.35 65.8 -10.75 65.35 L-11.25 65.2 -11.35 65.05 -11.5 64.95 -11.55 64.85 -11.6 64.65 -12.0 64.2 -12.05 64.1 -12.05 63.8 -12.0 63.65 -11.9 63.6 -11.75 63.55 -11.55 63.6 M-4.0 64.05 L-3.95 64.25 -3.95 64.45 -3.7 64.8 -3.55 65.0 -3.6 65.2 -3.65 65.35 Q-4.5 65.45 -4.55 64.6 L-4.75 64.4 -4.8 64.3 -4.8 64.15 -4.8 63.95 -4.5 63.8 -4.1 64.0 -4.0 64.05 M-7.65 67.75 L-7.55 66.8 -7.5 66.65 -7.4 66.6 -7.25 66.55 -7.1 66.6 -7.0 66.7 Q-6.85 67.45 -7.1 68.2 L-7.15 68.35 -7.75 68.7 Q-7.8 69.25 -8.35 69.4 L-8.55 69.35 -8.65 69.15 -8.65 68.95 -8.35 68.3 -8.3 68.2 Q-8.2 68.0 -7.95 68.0 L-7.8 67.85 -7.65 67.75 M-4.0 73.55 Q-3.85 73.95 -4.2 74.3 L-4.3 74.4 -4.45 74.85 -4.55 75.05 -5.2 75.2 -5.3 74.95 -5.3 74.75 -5.0 74.2 -4.95 74.1 -4.65 73.8 -4.55 73.65 -4.45 73.45 -4.4 73.45 -4.25 73.4 -4.1 73.5 -4.0 73.55 M-0.3 83.7 Q0.05 85.2 -0.1 86.8 L-0.15 87.0 -0.25 87.1 -0.4 87.15 -0.65 87.1 -0.8 84.0 -0.8 83.8 -0.5 83.7 -0.5 83.65 -0.3 83.7 M-0.65 87.8 L-0.6 87.9 -0.6 88.0 -0.65 88.1 -0.8 88.3 -0.95 88.45 -2.2 88.6 -2.3 88.4 -2.25 88.15 -1.45 87.9 -1.4 87.8 -1.4 87.7 -1.3 87.7 -1.15 87.7 -1.15 87.65 -0.75 87.75 -0.65 87.8 M-1.5 91.9 L-1.35 92.0 -1.25 92.05 -1.2 92.45 -1.25 92.65 -1.35 92.7 -1.5 92.8 -1.7 92.7 -1.8 92.25 -1.8 92.05 -1.5 91.95 -1.5 91.9 M-3.3 134.45 L-3.0 134.3 -2.85 134.35 -2.75 134.45 Q-2.65 135.75 -1.45 136.4 -1.25 136.5 -1.2 136.75 L-1.2 136.85 -1.3 137.0 -2.4 136.6 -3.3 135.35 -3.3 134.6 -3.3 134.45" fill="#cc0000" fill-rule="evenodd" stroke="none"/>
  </g>
</svg>
