<?xml version="1.0" encoding="UTF-8" standalone="no"?>
<svg xmlns:ffdec="https://www.free-decompiler.com/flash" xmlns:xlink="http://www.w3.org/1999/xlink" ffdec:objectType="shape" height="218.7px" width="72.9px" xmlns="http://www.w3.org/2000/svg">
  <g transform="matrix(1.0, 0.0, 0.0, 1.0, 43.1, 65.15)">
    <path d="M-5.5 0.0 L4.45 -10.55 -4.75 4.4 -26.3 2.7 -41.6 -3.25" fill="none" stroke="#000000" stroke-linecap="round" stroke-linejoin="round" stroke-width="3.0"/>
    <path d="M3.55 -50.15 L3.65 -50.05 3.7 -49.95 3.7 -49.9 3.7 -49.8 2.15 -47.95 1.95 -48.0 1.85 -48.2 1.85 -48.4 2.3 -49.15 2.35 -49.3 2.9 -50.0 2.95 -50.05 3.25 -50.2 3.55 -50.15 M7.7 -34.5 L7.25 -34.5 7.15 -35.05 7.2 -35.25 7.25 -35.35 7.25 -35.4 7.35 -35.45 7.5 -35.45 7.65 -35.4 7.75 -35.3 7.75 -34.65 7.7 -34.5 M1.1 -31.7 L1.25 -31.65 1.35 -31.55 1.35 -31.4 1.35 -31.3 1.35 -31.15 1.4 -30.7 1.35 -30.5 1.25 -30.45 1.1 -30.35 0.85 -30.4 0.8 -30.95 0.8 -31.0 0.8 -31.2 0.8 -31.25 0.8 -31.45 0.85 -31.65 0.95 -31.7 1.1 -31.7 M17.0 38.0 L16.95 38.2 16.5 38.25 Q16.4 38.1 16.45 37.95 L16.5 37.75 16.6 37.7 16.75 37.7 16.9 37.75 17.0 37.85 17.0 38.0 M13.65 44.2 L13.75 44.25 13.8 44.35 13.75 44.5 13.7 44.6 12.5 44.65 12.45 44.55 12.45 44.3 12.5 44.2 12.6 44.15 12.75 44.1 13.65 44.2 M12.4 48.95 L12.55 49.0 12.65 49.1 12.7 49.35 12.65 49.55 12.55 49.65 12.4 49.7 12.2 49.65 12.1 49.25 12.1 49.1 12.4 48.95 M29.75 43.3 L29.45 43.5 29.4 43.6 29.35 43.65 Q28.8 43.85 28.25 43.65 L28.2 43.35 28.25 43.2 28.95 43.0 29.25 42.65 29.5 42.6 29.65 42.65 29.75 42.75 29.8 43.1 29.75 43.3 M23.75 39.95 L23.95 40.0 24.0 40.1 24.05 40.15 24.3 40.25 24.4 40.35 24.4 40.6 24.35 40.7 23.5 40.75 23.45 40.65 23.45 40.6 23.15 40.5 22.75 40.4 22.65 40.1 22.7 40.05 22.75 39.95 22.85 39.9 23.0 39.85 23.75 39.95 M26.8 46.0 L26.9 46.1 26.95 46.25 26.95 46.45 26.8 46.65 26.7 46.75 26.65 46.85 26.6 46.9 25.95 47.1 25.9 47.2 25.85 47.25 25.45 47.25 Q25.25 47.0 25.4 46.7 L25.45 46.6 Q25.75 46.4 26.2 46.3 L26.3 46.1 26.4 46.0 26.5 45.95 26.65 45.95 26.8 46.0 M7.55 53.95 L7.65 54.0 7.7 54.1 7.7 54.2 7.7 54.25 Q7.45 54.65 7.0 54.5 L6.95 54.1 7.0 53.95 7.1 53.9 7.25 53.85 7.55 53.95 M0.05 92.45 L-0.4 92.45 -0.5 90.3 -0.45 90.15 -0.4 90.05 -0.4 89.95 -0.3 89.95 -0.15 89.9 0.0 90.0 0.1 90.05 0.1 92.3 0.05 92.45 M0.9 143.25 L1.0 143.35 1.15 145.5 1.15 145.7 1.55 146.9 1.55 147.0 1.75 147.2 1.8 147.3 1.8 147.35 1.7 147.55 1.05 147.6 0.8 146.35 0.8 146.3 0.65 146.1 0.55 146.0 0.45 143.45 0.5 143.3 0.6 143.25 0.75 143.2 0.9 143.25 M0.9 149.0 L1.0 149.1 0.9 153.2 0.85 153.4 0.75 153.5 0.6 153.55 0.35 153.5 Q0.2 151.4 0.45 149.3 L0.45 149.1 0.75 148.95 0.9 149.0 M-22.0 -65.15 L-21.8 -65.1 -21.35 -64.35 -21.2 -64.15 -21.2 -64.05 -21.25 -64.0 -21.3 -63.9 Q-21.45 -63.75 -21.65 -63.8 L-21.9 -63.85 -22.25 -64.4 -22.45 -64.6 -22.55 -64.8 -22.5 -65.05 -22.4 -65.1 -22.25 -65.15 -22.0 -65.15 M-25.85 -51.8 L-24.9 -52.15 -23.75 -52.05 -23.65 -52.0 -23.6 -51.9 -23.65 -51.75 -23.7 -51.65 -25.45 -51.25 -25.5 -51.15 -25.55 -51.1 -25.6 -51.1 -25.95 -51.1 -26.0 -51.2 -26.0 -51.65 -25.95 -51.75 -25.85 -51.8 M-0.4 -44.05 L-0.25 -44.0 -0.15 -43.9 -0.1 -43.05 -0.15 -42.9 Q-0.5 -42.55 -0.5 -42.05 L-0.55 -41.95 -0.95 -41.9 Q-1.15 -42.35 -1.0 -42.85 L-0.95 -43.05 -0.9 -43.1 -0.75 -43.2 -0.7 -43.8 -0.65 -43.95 -0.55 -44.0 -0.4 -44.05 M-15.25 -48.9 L-15.2 -48.8 -15.2 -48.55 -15.25 -48.45 -15.35 -48.35 -15.5 -48.3 -15.75 -48.4 -16.2 -48.5 -16.3 -48.6 -16.3 -48.9 -16.25 -49.0 -16.15 -49.0 -16.0 -49.05 -15.3 -48.95 -15.25 -48.9 M-16.85 -40.0 L-16.75 -39.9 -16.6 -39.05 -16.55 -38.95 -16.55 -38.9 -16.55 -38.8 Q-16.15 -38.25 -15.55 -38.0 L-15.3 -37.45 -15.3 -37.35 -15.45 -37.2 -15.6 -37.1 Q-17.0 -37.8 -17.3 -39.25 L-17.25 -39.95 -17.15 -40.0 -17.0 -40.05 -16.85 -40.0 M-11.1 -24.95 L-11.0 -25.0 -10.85 -25.05 -10.15 -24.95 -10.1 -24.9 -10.05 -24.8 -10.1 -24.65 -10.15 -24.55 -11.05 -24.5 -11.15 -24.6 -11.15 -24.85 -11.1 -24.95 M-6.5 -28.95 L-6.35 -28.9 -6.25 -28.8 -6.25 -28.65 -6.3 -28.45 -6.75 -28.4 -6.8 -28.7 -6.75 -28.9 -6.65 -28.95 -6.5 -28.95 M-2.4 -27.25 L-2.25 -27.3 -1.85 -27.05 -1.8 -26.95 -1.8 -26.3 -1.9 -26.05 -2.1 -26.0 -2.3 -26.0 -2.45 -26.4 -2.4 -26.65 -2.55 -27.05 -2.5 -27.2 -2.4 -27.25 M-16.85 -16.8 Q-16.7 -16.45 -16.85 -16.05 L-16.95 -15.95 -16.95 -15.2 -17.0 -15.05 -17.05 -14.95 -17.15 -14.85 -17.3 -14.55 -17.4 -14.4 Q-17.7 -14.25 -18.05 -14.4 L-18.15 -14.6 -18.15 -14.8 -18.0 -14.9 -17.85 -15.0 -17.85 -15.1 -17.8 -15.3 -17.75 -15.35 -17.6 -15.45 -17.5 -16.3 -17.4 -16.5 -17.4 -16.7 -17.35 -16.9 -17.25 -16.95 -17.1 -16.95 -16.95 -16.9 -16.85 -16.8 M-33.35 23.5 Q-33.2 23.9 -33.35 24.35 L-33.4 24.5 -33.8 24.5 -33.95 23.75 -33.9 23.55 -33.85 23.45 -33.75 23.35 -33.6 23.35 -33.45 23.4 -33.35 23.5 M-28.05 35.5 Q-28.35 35.9 -28.8 35.75 L-28.9 35.55 -28.9 35.35 Q-28.65 35.1 -28.35 35.1 L-28.2 35.15 -28.1 35.25 -28.05 35.35 -28.05 35.5 M-37.0 34.6 Q-36.5 34.55 -36.1 34.95 L-36.0 35.0 Q-35.6 35.05 -35.35 35.35 L-35.3 35.45 -35.3 35.5 -35.35 35.6 -35.4 35.7 Q-36.1 35.9 -36.7 35.35 L-37.25 35.15 -37.3 34.95 -37.3 34.8 -37.25 34.7 -37.15 34.65 -37.0 34.6 M-10.2 67.9 L-10.25 68.1 -10.3 68.2 -10.5 68.25 -12.5 68.2 -12.55 68.1 -12.55 67.85 -12.5 67.75 -12.4 67.7 -12.25 67.7 -12.25 67.65 -10.35 67.75 -10.25 67.8 -10.2 67.9 M-19.25 63.65 L-19.1 63.75 -19.0 63.8 -19.0 64.5 -19.05 64.65 -19.2 64.85 -19.3 64.95 Q-19.25 65.5 -19.75 65.65 L-20.0 65.6 -20.05 65.4 -20.05 65.2 Q-19.85 65.0 -19.9 64.65 L-19.9 64.45 -19.85 64.4 -19.7 64.3 -19.6 64.0 -19.55 63.8 -19.25 63.7 -19.25 63.65 M-10.15 70.55 L-10.1 70.4 -10.0 70.35 -9.85 70.3 -8.3 70.3 -8.1 70.3 -7.95 70.35 -7.85 70.45 -7.8 70.65 -7.8 70.7 -7.9 70.95 -10.05 70.85 -10.15 70.65 -10.15 70.55 M-2.65 65.9 L-2.65 65.7 -2.35 65.55 -2.2 65.6 -2.1 65.7 Q-1.8 66.65 -2.5 67.15 L-2.75 67.1 -2.8 66.9 -2.8 66.7 Q-2.6 66.35 -2.65 65.9 M-8.35 62.65 L-8.25 62.7 -8.2 62.8 -8.25 62.95 -8.3 63.05 -9.0 63.1 -9.05 62.9 -9.0 62.65 -8.9 62.6 -8.75 62.55 -8.35 62.65 M-23.5 60.4 L-22.5 61.1 -22.45 61.15 -21.85 61.35 -21.75 61.45 -21.75 61.65 -21.8 61.8 -22.8 61.7 -22.9 61.65 -22.9 61.55 -23.0 61.55 -23.25 61.45 -23.5 61.2 -23.75 61.1 -23.8 60.9 -23.8 60.65 -23.75 60.55 -23.75 60.45 -23.65 60.45 -23.5 60.45 -23.5 60.4 M-5.35 76.5 L-5.25 76.55 Q-5.15 77.15 -5.6 77.6 L-5.7 77.7 Q-6.15 77.95 -6.7 77.7 L-6.8 77.45 -6.75 77.25 -6.2 77.1 -5.7 76.45 -5.65 76.45 -5.5 76.4 -5.35 76.5 M-1.9 89.55 Q-1.45 89.6 -1.1 89.9 L-0.95 90.0 -0.85 90.2 -0.9 90.45 -0.95 90.55 -1.15 90.6 -1.4 90.6 Q-1.7 90.25 -2.15 90.0 L-2.2 89.85 -2.2 89.75 -2.15 89.65 -2.15 89.6 -2.05 89.6 -1.9 89.55 M-1.2 94.3 L-1.25 94.5 -1.35 94.6 -1.5 94.65 -1.7 94.6 -1.8 94.15 -1.8 93.95 -1.5 93.8 -1.35 93.85 -1.25 93.95 Q-1.15 94.1 -1.2 94.3 M-3.25 143.3 L-3.1 143.35 -3.0 143.45 Q-2.75 144.5 -3.45 145.4 L-3.5 145.5 -3.6 145.55 -3.75 145.65 -3.95 145.6 -4.05 145.1 -4.05 144.95 -3.95 144.85 -3.8 144.75 Q-3.5 144.2 -3.55 143.55 L-3.55 143.45 -3.25 143.3" fill="#cc0000" fill-rule="evenodd" stroke="none"/>
  </g>
</svg>
