<?xml version="1.0" encoding="UTF-8" standalone="no"?>
<svg xmlns:ffdec="https://www.free-decompiler.com/flash" xmlns:xlink="http://www.w3.org/1999/xlink" ffdec:objectType="shape" height="230.05px" width="76.2px" xmlns="http://www.w3.org/2000/svg">
  <g transform="matrix(1.0, 0.0, 0.0, 1.0, 43.4, 66.65)">
    <path d="M-6.1 6.5 L2.2 -3.05 -5.35 12.2 -26.3 9.4 -41.9 12.0" fill="none" stroke="#000000" stroke-linecap="round" stroke-linejoin="round" stroke-width="3.0"/>
    <path d="M-5.35 12.2 L-1.95 -1.3" fill="none" stroke="#000000" stroke-linecap="round" stroke-linejoin="round" stroke-width="3.0"/>
    <path d="M2.75 -53.15 L2.8 -52.95 2.75 -52.8 2.7 -52.7 2.6 -52.6 Q2.4 -51.7 2.45 -50.7 L2.35 -50.45 1.95 -50.4 Q1.7 -51.6 1.9 -52.75 L1.95 -53.05 Q2.15 -53.3 2.5 -53.3 L2.65 -53.25 2.75 -53.15 M0.25 -45.4 L0.35 -45.3 0.3 -44.45 0.2 -44.3 -0.25 -44.1 -0.45 -44.15 -0.55 -44.45 -0.55 -44.65 -0.5 -44.7 -0.35 -44.8 -0.25 -45.2 -0.15 -45.4 -0.05 -45.45 0.1 -45.45 0.25 -45.4 M8.2 -34.45 L8.25 -34.65 8.35 -34.65 8.5 -34.7 8.8 -34.65 8.9 -34.55 8.9 -34.4 8.85 -34.2 8.25 -34.15 8.2 -34.45 M1.0 -32.05 L1.25 -31.95 1.35 -31.9 1.4 -31.7 1.35 -31.65 1.2 -31.45 1.15 -31.4 0.8 -31.4 0.7 -31.8 0.75 -31.95 1.0 -32.05 M16.6 38.2 L16.75 38.2 16.9 38.25 17.0 38.35 17.0 38.5 16.95 38.7 16.5 38.75 Q16.4 38.6 16.45 38.45 L16.5 38.25 16.6 38.2 M14.9 43.95 L15.0 43.9 15.15 43.85 15.9 43.95 16.0 44.0 16.05 44.1 16.0 44.25 15.95 44.35 14.95 44.4 14.85 44.3 14.85 44.05 14.9 43.95 M26.0 42.35 L26.05 42.45 26.05 42.5 26.0 42.6 25.95 42.7 25.2 42.65 25.1 42.45 Q25.05 42.3 25.15 42.2 L25.25 42.15 25.4 42.1 Q25.8 42.0 26.0 42.35 M27.8 49.15 L27.9 49.25 27.95 49.35 27.9 49.5 27.85 49.6 26.7 49.5 26.6 49.3 26.6 49.1 26.65 49.0 26.75 48.95 26.9 48.95 27.8 49.15 M32.65 44.0 L32.75 44.1 32.8 44.25 32.8 44.45 32.65 44.65 32.5 44.75 32.5 44.85 32.45 44.9 32.0 44.9 31.95 44.45 31.95 44.25 32.25 44.0 32.35 43.95 32.5 43.95 32.65 44.0 M13.4 50.25 L13.4 50.4 13.35 50.6 12.95 50.65 12.85 50.35 12.9 50.2 13.0 50.15 13.15 50.1 13.3 50.15 13.4 50.25 M6.95 55.1 L7.25 54.95 7.4 55.0 7.5 55.1 7.55 55.35 7.5 55.55 7.4 55.65 7.25 55.7 7.0 55.65 6.95 55.25 6.95 55.1 M1.25 153.45 L1.4 153.5 1.5 153.6 1.5 157.55 1.45 157.7 1.05 157.75 Q0.85 155.75 0.95 153.7 L1.0 153.55 1.1 153.5 1.25 153.45 M0.15 159.75 L0.25 159.85 Q0.4 160.4 0.2 160.95 L0.15 161.05 0.0 162.55 -0.1 162.75 -0.15 163.1 -0.2 163.3 -0.65 163.35 -0.75 162.7 -0.7 162.5 -0.6 162.3 -0.5 162.2 -0.45 160.9 -0.45 160.7 -0.4 160.65 -0.3 160.55 -0.3 159.95 -0.25 159.8 -0.15 159.75 0.0 159.7 0.15 159.75 M-23.5 -66.65 L-23.0 -66.55 -22.9 -66.5 -22.85 -66.4 -22.9 -66.25 -22.95 -66.15 -23.7 -66.1 -23.8 -66.2 -23.8 -66.45 -23.75 -66.55 -23.65 -66.6 -23.5 -66.65 M-28.15 -50.85 L-27.9 -50.9 -27.5 -50.8 -27.4 -50.75 -27.35 -50.65 -27.4 -50.5 -27.45 -50.4 -28.05 -50.05 -28.1 -50.0 -28.9 -49.85 -28.95 -49.95 -28.95 -50.15 -28.95 -50.25 -28.6 -50.6 -28.45 -50.75 -28.15 -50.85 M-16.75 -48.9 L-16.75 -48.75 -16.8 -48.55 -17.4 -48.5 -17.45 -48.8 -17.4 -49.0 -17.3 -49.0 -17.15 -49.05 -16.85 -49.0 -16.75 -48.9 M-19.55 -38.95 L-19.05 -38.3 -19.05 -38.2 Q-19.25 -37.8 -19.75 -38.0 L-19.85 -38.15 -20.0 -38.3 -20.1 -38.45 -20.15 -38.65 -20.3 -38.75 -20.55 -39.2 -20.75 -39.4 -20.85 -39.8 -20.8 -40.05 -20.5 -40.2 -20.3 -40.15 -20.05 -39.85 -20.0 -39.8 -19.95 -39.7 -19.9 -39.5 -19.65 -39.2 -19.55 -39.15 -19.55 -39.05 -19.55 -38.95 M-10.35 -25.9 L-10.25 -25.8 -10.25 -25.55 -10.3 -25.45 -10.8 -25.4 -10.9 -25.7 -10.85 -25.9 -10.6 -25.95 -10.35 -25.9 M-6.6 -29.25 L-6.5 -29.15 -6.5 -28.95 -6.55 -28.8 -7.0 -28.75 -7.05 -29.05 -7.0 -29.2 -6.9 -29.25 -6.75 -29.3 -6.6 -29.25 M-1.1 -26.9 L-1.3 -26.75 -1.35 -26.7 -1.6 -26.7 -1.8 -26.75 -1.85 -26.85 -1.9 -27.05 -1.9 -27.15 -1.85 -27.2 -1.8 -27.3 -1.7 -27.4 -1.5 -27.45 -1.1 -27.35 -1.0 -27.3 -0.95 -27.2 -1.0 -27.05 -1.05 -26.95 -1.1 -26.9 M-18.6 -16.55 L-18.4 -16.5 -18.1 -16.1 -18.05 -16.05 -18.0 -16.0 -17.8 -15.9 -17.55 -15.25 -17.65 -15.0 Q-18.4 -15.0 -18.75 -15.85 L-18.85 -15.95 -18.9 -16.2 -18.9 -16.4 -18.6 -16.55 M-36.4 24.3 L-36.35 24.2 -36.25 24.15 -36.1 24.1 Q-35.65 24.0 -35.35 24.35 L-35.3 24.45 -35.3 24.5 -35.35 24.6 -35.4 24.7 -36.0 24.75 -36.3 24.65 -36.35 24.55 -36.4 24.3 M-29.2 35.9 L-29.1 36.0 Q-29.0 36.1 -29.05 36.25 L-29.15 36.45 -29.55 36.5 -29.65 36.1 -29.6 35.95 -29.5 35.9 -29.35 35.85 -29.2 35.9 M-39.5 37.5 L-39.45 37.6 -39.5 37.75 -39.55 37.85 -40.3 37.9 Q-40.65 38.1 -41.05 37.9 L-41.1 37.8 -41.15 37.55 -41.1 37.45 -41.0 37.4 -40.85 37.35 -40.35 37.45 -40.25 37.4 -40.1 37.35 -39.6 37.45 -39.5 37.5 M-11.4 69.95 L-11.25 69.9 -11.1 70.0 -11.0 70.05 Q-10.85 70.65 -11.3 71.1 L-11.4 71.2 Q-11.9 71.45 -12.5 71.2 L-12.55 70.95 -12.5 70.75 -11.8 70.6 -11.65 70.4 -11.55 70.3 -11.55 70.2 -11.55 70.15 -11.5 70.05 -11.5 69.95 -11.4 69.95 M-10.9 72.6 L-10.75 72.75 -10.55 72.85 -10.5 72.95 -10.45 73.0 Q-9.9 72.85 -9.6 73.2 -9.5 73.3 -9.55 73.45 L-9.65 73.55 Q-10.5 73.85 -11.25 73.35 L-11.4 72.9 -11.4 72.7 -11.1 72.55 -10.9 72.6 M-0.35 67.65 L-0.2 67.75 -0.1 67.8 Q0.0 68.15 -0.3 68.5 L-0.4 68.55 -1.25 68.7 -1.3 68.55 -1.3 68.35 -0.8 68.0 -0.35 67.65 M-8.95 63.35 L-8.85 63.45 -8.85 63.65 -8.9 63.8 -9.3 63.85 -9.4 63.55 -9.35 63.4 -9.25 63.35 -9.1 63.3 -8.95 63.35 M-26.65 61.5 L-26.6 61.4 -26.5 61.3 -26.35 61.3 -26.2 61.35 -26.1 61.45 -26.05 61.65 -26.05 61.8 -25.8 62.3 -25.8 62.4 -25.5 62.7 -25.5 62.75 -25.5 62.95 -25.55 63.1 Q-26.1 63.25 -26.4 62.7 L-26.4 62.65 -26.4 62.45 -26.6 62.15 -26.65 62.05 -26.65 61.7 -26.65 61.5 M-21.25 67.4 L-21.1 67.5 -21.0 67.55 -21.0 68.5 -21.05 68.7 -21.1 69.3 -21.15 69.35 -21.35 69.4 -21.55 69.35 -21.8 68.7 -21.8 68.5 -21.75 68.4 -21.75 68.35 -21.65 68.35 -21.55 68.3 -21.55 67.7 -21.5 67.5 -21.4 67.45 -21.25 67.4 M-8.3 78.75 L-8.3 78.5 -8.25 78.4 -8.15 78.35 -8.0 78.3 -7.05 78.4 -7.0 78.45 -6.95 78.55 -7.0 78.7 -7.05 78.8 -8.2 78.85 -8.3 78.75 M-1.95 90.95 L-1.65 90.8 Q-1.0 91.25 -1.2 92.15 L-1.25 92.25 -1.35 92.35 -1.5 92.4 -1.7 92.35 -1.9 91.4 -1.95 91.2 -1.95 91.15 -1.95 90.95 M-1.65 94.8 L-1.5 94.8 -1.35 94.85 -1.25 94.95 Q-1.15 95.1 -1.2 95.3 L-1.3 95.45 -1.7 95.45 -1.8 95.2 -1.8 95.0 -1.75 94.9 -1.65 94.8 M-0.5 94.9 L-0.35 95.0 -0.25 95.05 -0.2 95.45 -0.25 95.65 -0.35 95.7 -0.5 95.8 -0.7 95.7 -0.8 95.25 -0.8 95.05 -0.5 94.95 -0.5 94.9 M-5.0 151.55 L-5.05 151.7 Q-5.75 152.35 -6.7 152.0 L-6.8 151.7 -6.75 151.55 -5.75 151.35 -5.65 151.3 -5.55 151.25 -5.4 151.2 -5.1 151.3 -5.0 151.35 -5.0 151.55" fill="#cc0000" fill-rule="evenodd" stroke="none"/>
  </g>
</svg>
