<?xml version="1.0" encoding="UTF-8" standalone="no"?>
<svg xmlns:ffdec="https://www.free-decompiler.com/flash" xmlns:xlink="http://www.w3.org/1999/xlink" ffdec:objectType="shape" height="236.45px" width="77.45px" xmlns="http://www.w3.org/2000/svg">
  <g transform="matrix(1.0, 0.0, 0.0, 1.0, 43.05, 67.9)">
    <path d="M-0.7 12.7 L8.05 6.1 0.15 20.2 -20.35 13.45 -34.2 14.7" fill="none" stroke="#000000" stroke-linecap="round" stroke-linejoin="round" stroke-width="3.0"/>
    <path d="M0.15 20.2 L-7.9 2.15" fill="none" stroke="#000000" stroke-linecap="round" stroke-linejoin="round" stroke-width="3.0"/>
    <path d="M2.7 -53.2 Q2.45 -52.8 2.0 -53.0 L1.9 -53.15 1.75 -53.3 1.7 -53.4 1.6 -53.55 1.25 -53.75 1.2 -53.85 1.2 -54.05 1.0 -54.25 0.95 -54.3 0.9 -54.8 0.9 -54.95 1.0 -55.0 1.15 -55.05 1.9 -54.3 2.1 -54.15 2.15 -54.05 2.2 -53.9 2.3 -53.8 2.45 -53.75 2.65 -53.35 2.7 -53.2 M0.5 -46.15 L0.6 -46.05 0.65 -45.7 0.6 -45.5 0.5 -45.45 0.35 -45.35 0.1 -45.4 Q0.0 -45.6 0.05 -45.9 L0.05 -46.05 0.35 -46.2 0.5 -46.15 M9.1 -34.0 L9.25 -34.05 9.55 -33.95 9.65 -33.9 9.65 -33.7 9.6 -33.55 9.0 -33.5 Q8.9 -33.6 8.95 -33.8 L9.0 -33.95 9.1 -34.0 M1.15 -32.4 L1.25 -32.3 1.25 -32.15 1.2 -31.95 0.8 -31.9 0.7 -32.2 0.75 -32.4 0.85 -32.45 1.0 -32.45 1.15 -32.4 M16.75 38.45 L16.9 38.45 17.05 38.5 17.15 38.6 17.15 38.75 17.1 38.95 16.7 39.0 16.6 38.7 16.65 38.5 16.75 38.45 M16.5 44.15 L16.45 44.05 16.45 43.8 16.5 43.7 16.6 43.65 16.75 43.6 17.35 43.7 17.4 43.75 17.45 43.85 17.4 44.0 17.35 44.1 16.5 44.15 M26.6 43.9 L26.65 43.8 26.7 43.75 26.75 43.7 26.9 43.7 27.5 44.3 27.55 44.4 27.5 44.5 27.5 44.6 27.45 44.65 27.15 44.7 26.95 44.65 26.65 44.15 26.6 44.0 26.6 43.9 M34.4 44.85 L34.4 45.0 34.35 45.2 33.75 45.25 33.7 44.95 33.75 44.75 33.85 44.75 34.0 44.7 34.3 44.75 34.4 44.85 M28.1 51.5 L27.75 51.4 27.7 51.0 27.7 50.85 Q27.8 50.65 28.0 50.7 28.55 50.85 28.7 51.35 L28.7 51.45 28.4 51.7 28.2 51.65 28.1 51.55 28.1 51.5 M13.55 50.65 L13.65 50.75 13.65 50.9 13.6 51.1 13.2 51.15 13.1 50.85 13.15 50.7 13.25 50.65 13.4 50.6 13.55 50.65 M7.4 55.9 L7.5 56.0 7.5 56.15 7.45 56.35 7.0 56.4 6.95 56.1 7.0 55.95 7.1 55.9 7.25 55.85 7.4 55.9 M0.8 69.4 L0.9 69.45 0.95 69.55 0.9 69.7 0.85 69.8 0.0 69.85 -0.05 69.75 -0.05 69.5 0.0 69.4 0.1 69.35 0.25 69.3 0.8 69.4 M1.5 160.95 L1.65 161.0 1.75 161.1 1.8 161.35 1.8 161.55 1.6 161.95 1.6 162.05 1.45 162.1 Q1.25 162.45 1.3 162.85 L1.3 163.05 1.15 163.25 1.05 163.35 Q0.9 163.9 0.35 163.75 L0.3 163.55 0.3 163.35 0.4 163.1 0.45 162.9 0.6 162.7 0.7 162.6 Q0.65 162.25 0.75 161.85 L0.8 161.7 0.9 161.6 1.05 161.5 1.2 161.1 1.25 161.05 1.35 161.0 1.5 160.95 M-24.35 -67.8 L-24.25 -67.75 -24.25 -67.55 -24.3 -67.4 -25.15 -67.25 -25.2 -67.45 -25.2 -67.65 -24.65 -67.9 -24.35 -67.8 M-17.3 -48.55 L-17.95 -48.5 -18.05 -48.7 -18.0 -49.0 -17.9 -49.0 -17.75 -49.05 -17.35 -48.95 -17.25 -48.9 -17.2 -48.8 -17.25 -48.65 -17.3 -48.55 M-10.6 -26.25 L-10.5 -26.15 -10.5 -25.9 -10.55 -25.8 -11.05 -25.75 -11.15 -26.05 -11.1 -26.2 -10.85 -26.3 -10.6 -26.25 M-6.85 -29.55 L-6.7 -29.5 -6.6 -29.4 -6.6 -29.2 -6.65 -29.05 -7.05 -29.0 -7.15 -29.3 -7.1 -29.45 -7.0 -29.5 -6.85 -29.55 M-1.25 -27.15 L-1.15 -27.2 -1.0 -27.2 -0.85 -27.15 -0.75 -27.05 -0.75 -26.4 -0.8 -26.25 -1.25 -26.25 -1.35 -26.8 -1.3 -27.0 -1.25 -27.1 -1.25 -27.15 M-30.35 -49.0 L-30.4 -48.9 -30.55 -48.7 -30.7 -48.5 -30.9 -48.45 -31.15 -48.5 -31.25 -48.9 -31.2 -49.15 -31.1 -49.25 -30.9 -49.3 -30.5 -49.2 -30.4 -49.15 -30.35 -49.05 -30.35 -49.0 M-22.05 -39.05 L-22.0 -39.0 -21.5 -38.8 -21.5 -38.65 -21.55 -38.45 -22.75 -38.65 -22.8 -38.85 -22.75 -39.15 -22.65 -39.15 -22.5 -39.2 -22.05 -39.05 M-19.75 -16.05 Q-19.15 -16.05 -18.85 -15.55 L-18.8 -15.45 -18.8 -15.35 -18.85 -15.25 -18.9 -15.15 Q-19.25 -15.0 -19.55 -15.15 L-19.65 -15.25 -19.65 -15.35 -19.75 -15.4 -19.75 -15.45 -20.0 -15.5 -20.05 -15.7 -20.0 -15.95 -19.9 -16.0 -19.75 -16.05 M-29.7 36.7 L-29.6 36.75 -29.55 36.85 -29.6 37.0 -29.65 37.1 -30.3 37.15 -30.4 36.95 -30.35 36.7 -30.25 36.65 -30.1 36.6 -29.7 36.7 M-37.9 24.75 L-37.75 24.7 -37.35 24.8 -37.25 24.85 -37.2 24.95 -37.25 25.1 -37.3 25.2 -38.0 25.25 -38.05 25.05 -38.0 24.75 -37.9 24.75 M-42.2 38.75 L-42.1 38.85 Q-42.0 38.95 -42.05 39.1 L-42.1 39.3 -43.0 39.4 -43.05 39.1 -43.0 38.95 -42.35 38.7 -42.2 38.75 M-11.75 73.15 L-11.6 73.25 -11.5 73.3 -11.5 73.7 -11.55 73.85 -12.3 73.85 -12.4 73.55 -12.35 73.4 -11.75 73.15 M-8.95 64.35 L-8.85 64.45 -8.85 64.65 -8.9 64.8 -9.3 64.85 -9.4 64.55 -9.35 64.4 -9.25 64.35 -9.1 64.3 -8.95 64.35 M-28.75 62.05 L-28.6 62.1 -28.5 62.2 -28.5 63.85 -28.55 64.05 -29.0 64.1 -29.05 62.3 -29.0 62.15 -28.9 62.1 -28.75 62.05 M-22.85 70.8 L-22.65 70.85 -21.95 71.45 -21.9 71.5 -21.6 71.7 Q-21.5 71.8 -21.55 71.95 L-21.65 72.05 -22.4 72.0 Q-22.6 71.65 -23.05 71.6 L-23.15 71.15 -23.15 70.95 -22.85 70.8 M-9.25 79.15 L-8.75 79.25 -8.65 79.3 -8.6 79.4 -8.65 79.6 -8.7 79.7 Q-9.05 79.9 -9.45 79.7 L-9.55 79.6 -9.55 79.35 -9.5 79.25 -9.4 79.2 -9.25 79.2 -9.25 79.15 M-12.1 75.2 L-12.1 75.15 -11.7 75.25 -11.6 75.3 -11.5 75.6 -11.55 75.9 -11.4 76.05 -11.25 76.25 -11.2 76.35 -11.25 76.55 -11.3 76.6 -12.0 76.6 -12.15 76.15 -12.15 75.85 -12.35 75.65 -12.4 75.45 -12.4 75.4 -12.35 75.3 -12.3 75.2 -12.25 75.2 -12.1 75.2 M-1.9 92.4 L-1.8 92.35 -1.65 92.3 -1.5 92.35 -1.4 92.45 Q-1.3 92.55 -1.35 92.7 L-1.35 92.9 -1.45 93.1 -1.55 93.2 -1.95 93.2 -2.0 92.55 -1.9 92.4 M-1.35 95.6 L-1.25 95.7 -1.25 95.9 -1.3 96.05 -1.7 96.1 -1.8 95.8 -1.75 95.65 -1.65 95.6 -1.5 95.55 -1.35 95.6 M-1.4 97.8 L-1.25 97.85 -1.15 97.95 -1.1 98.05 -1.15 98.2 -1.2 98.3 -1.3 98.4 -1.35 98.5 -1.45 98.7 -1.9 98.7 -1.95 98.25 -1.95 98.05 -1.4 97.8 M-7.4 155.6 L-7.35 155.7 -7.35 155.85 -6.9 156.2 -6.9 156.35 -6.95 156.55 -7.9 156.5 -8.0 155.95 -7.95 155.65 -7.9 155.55 -7.9 155.5 -7.8 155.45 -7.65 155.45 -7.5 155.5 -7.4 155.6 M-1.25 166.45 L-1.1 166.5 -1.0 166.6 -0.95 166.7 -0.95 166.85 -1.85 168.1 -1.95 168.2 -1.95 168.25 -2.05 168.45 -2.65 168.5 -2.7 168.3 -2.7 168.1 -2.25 167.55 -2.25 167.45 -2.2 167.35 -1.8 166.7 -1.75 166.6 -1.25 166.45" fill="#cc0000" fill-rule="evenodd" stroke="none"/>
  </g>
</svg>
