<?xml version="1.0" encoding="UTF-8" standalone="no"?>
<svg xmlns:ffdec="https://www.free-decompiler.com/flash" xmlns:xlink="http://www.w3.org/1999/xlink" ffdec:objectType="shape" height="240.35px" width="79.55px" xmlns="http://www.w3.org/2000/svg">
  <g transform="matrix(1.0, 0.0, 0.0, 1.0, 44.4, 68.8)">
    <path d="M10.0 23.05 L18.65 23.7 7.25 34.4 -2.7 23.65 -16.05 17.15" fill="none" stroke="#000000" stroke-linecap="round" stroke-linejoin="round" stroke-width="3.0"/>
    <path d="M7.25 34.4 L-8.25 8.75" fill="none" stroke="#000000" stroke-linecap="round" stroke-linejoin="round" stroke-width="3.0"/>
    <path d="M2.05 -56.0 L2.15 -55.9 2.15 -55.7 2.1 -55.55 Q1.6 -55.25 1.25 -55.7 L1.2 -55.9 1.2 -56.05 1.5 -56.2 2.05 -56.0 M0.65 -46.5 L0.75 -46.4 0.75 -46.2 0.7 -46.05 0.3 -46.0 0.2 -46.3 0.25 -46.45 0.35 -46.5 0.5 -46.55 0.65 -46.5 M9.65 -33.45 L9.75 -33.5 9.9 -33.55 10.05 -33.5 10.15 -33.4 10.15 -33.2 10.1 -33.05 9.7 -33.0 9.6 -33.3 9.65 -33.45 M1.0 -32.75 L1.1 -32.65 1.1 -32.45 1.05 -32.3 0.6 -32.25 Q0.5 -32.35 0.55 -32.55 L0.6 -32.7 0.7 -32.75 0.85 -32.8 1.0 -32.75 M17.3 38.65 L17.4 38.75 17.4 38.95 17.35 39.1 16.95 39.15 16.85 38.85 16.9 38.7 17.0 38.65 17.15 38.6 17.3 38.65 M17.65 43.2 L17.8 43.25 17.9 43.35 17.9 43.5 17.85 43.7 17.45 43.75 17.35 43.45 17.4 43.25 17.5 43.2 17.65 43.2 M28.9 45.25 L29.0 45.35 29.05 45.45 29.0 45.6 28.95 45.7 28.25 45.75 28.2 45.55 28.25 45.25 28.35 45.25 28.5 45.2 28.9 45.25 M35.05 45.25 L35.15 45.35 35.15 45.5 35.1 45.7 34.7 45.75 34.6 45.45 34.65 45.25 34.75 45.2 34.9 45.2 35.05 45.25 M28.95 52.85 L28.45 52.9 28.35 52.6 28.4 52.45 28.65 52.35 28.9 52.4 29.0 52.5 29.0 52.75 28.95 52.85 M13.65 50.9 L13.75 51.0 13.75 51.15 13.7 51.35 13.25 51.4 13.2 51.1 13.25 50.95 13.35 50.9 13.5 50.85 13.65 50.9 M7.15 56.25 L7.25 56.35 7.25 56.5 7.2 56.7 6.75 56.75 6.7 56.45 6.75 56.25 6.85 56.2 7.0 56.2 7.15 56.25 M1.3 70.75 L1.4 70.8 1.4 71.0 1.35 71.2 0.95 71.2 0.85 70.95 0.9 70.75 1.0 70.7 1.15 70.65 1.3 70.75 M1.5 166.95 L1.65 167.0 1.75 167.1 Q1.8 167.85 0.9 167.95 L0.85 168.05 0.8 168.1 0.35 168.1 Q0.25 167.9 0.3 167.6 L0.3 167.45 1.35 166.95 1.5 166.95 M-25.75 -68.8 L-25.6 -68.75 -25.5 -68.65 -25.45 -68.3 -25.5 -68.1 -25.6 -68.05 -25.75 -67.95 -25.95 -68.0 -26.05 -68.5 -26.05 -68.65 -25.75 -68.8 M-17.7 -48.65 L-18.15 -48.6 -18.2 -48.9 -18.15 -49.05 -18.05 -49.1 -17.9 -49.15 -17.75 -49.1 -17.65 -49.0 -17.65 -48.8 -17.7 -48.65 M-10.35 -26.9 L-10.25 -26.8 -10.25 -26.55 -10.3 -26.45 -10.8 -26.4 -10.9 -26.7 -10.85 -26.9 -10.6 -26.95 -10.35 -26.9 M-0.45 -26.15 L-0.35 -26.05 -0.35 -25.9 -0.4 -25.7 -0.8 -25.65 -0.9 -25.95 -0.85 -26.15 -0.75 -26.2 -0.6 -26.2 -0.45 -26.15 M-24.35 -38.8 L-23.85 -38.7 -23.75 -38.65 -23.7 -38.55 -23.75 -38.4 -23.8 -38.3 -24.55 -38.25 -24.6 -38.35 -24.65 -38.6 -24.6 -38.7 -24.5 -38.75 -24.35 -38.8 M-32.0 -47.85 L-31.9 -47.75 Q-31.75 -47.15 -32.4 -46.95 L-32.65 -47.0 -32.7 -47.2 -32.7 -47.4 -32.5 -47.65 -32.45 -47.75 -32.15 -47.9 -32.0 -47.85 M-20.8 -14.9 L-20.9 -15.25 -20.8 -15.55 -20.7 -15.65 -20.5 -15.7 -20.1 -15.6 -20.0 -15.55 -19.95 -15.45 -19.95 -15.4 -20.0 -15.3 -20.15 -15.1 -20.3 -14.9 -20.6 -14.9 -20.8 -14.9 M-38.5 25.25 L-38.5 25.45 -38.55 25.6 -39.0 25.65 -39.05 25.35 -39.0 25.2 -38.9 25.15 -38.75 25.1 -38.6 25.15 -38.5 25.25 M-43.85 39.9 L-43.75 40.0 Q-43.6 40.2 -43.8 40.35 L-43.85 40.45 -44.3 40.5 -44.4 40.3 -44.4 40.1 -44.35 40.05 -44.25 39.95 -44.15 39.9 -44.0 39.85 -43.85 39.9 M-9.25 64.9 L-9.1 65.0 -9.0 65.05 -9.0 65.25 -9.05 65.45 -9.5 65.45 -9.55 65.2 -9.5 65.0 -9.4 64.95 -9.25 64.9 M-31.25 63.2 L-31.25 63.15 -30.95 63.25 -30.85 63.3 Q-30.7 63.55 -30.95 63.8 L-31.05 63.95 -31.25 64.05 -31.5 63.95 -31.55 63.5 -31.55 63.3 -31.25 63.2 M-24.6 73.3 L-23.15 73.4 -23.1 73.45 -23.05 73.55 -23.1 73.7 -23.15 73.8 -24.8 73.85 -24.85 73.75 -24.9 73.5 -24.85 73.4 -24.75 73.35 -24.6 73.3 M-10.0 79.7 L-10.0 79.9 -10.05 80.05 -10.65 80.1 -10.7 79.8 -10.65 79.65 -10.55 79.6 -10.4 79.55 -10.1 79.65 -10.0 79.7 M-12.0 75.4 L-11.6 75.5 -11.5 75.55 -11.45 75.65 -11.5 75.85 -11.55 75.95 -12.1 76.15 -12.3 76.1 -12.35 76.0 -12.4 75.8 -12.4 75.7 -12.35 75.65 -12.25 75.45 -12.15 75.45 -12.0 75.45 -12.0 75.4 M-13.1 77.1 L-13.0 77.2 -12.95 77.75 -13.05 77.95 -13.5 77.95 -13.55 77.3 -13.5 77.15 -13.4 77.1 -13.25 77.05 -13.1 77.1 M-1.5 93.0 L-1.4 93.05 -1.4 93.45 -1.45 93.6 -1.95 93.6 -2.05 93.4 -2.05 93.2 -1.9 93.05 -1.9 92.95 -1.8 92.95 -1.65 92.9 -1.5 93.0 M-2.25 99.1 L-2.15 99.2 Q-2.05 99.3 -2.1 99.45 L-2.1 99.65 -2.2 99.85 -2.3 99.95 -2.7 99.95 -2.75 99.3 -2.65 99.15 -2.55 99.1 -2.4 99.05 -2.25 99.1 M-8.95 158.5 L-8.75 158.9 -8.7 159.05 Q-8.9 159.45 -9.4 159.25 L-9.45 158.8 -9.45 158.6 -9.15 158.45 -8.95 158.5 M-1.85 170.05 L-1.75 170.1 -1.7 170.2 -1.7 170.3 -1.7 170.35 -2.75 171.4 -2.8 171.5 -3.65 171.5 -3.7 171.4 -3.7 171.2 -3.7 171.1 -3.35 170.85 -3.2 170.75 -3.15 170.7 -2.95 170.65 -2.65 170.3 -2.55 170.1 -2.45 170.0 -2.25 169.95 -1.85 170.05" fill="#cc0000" fill-rule="evenodd" stroke="none"/>
  </g>
</svg>
