<?xml version="1.0" encoding="UTF-8" standalone="no"?>
<svg xmlns:ffdec="https://www.free-decompiler.com/flash" xmlns:xlink="http://www.w3.org/1999/xlink" ffdec:objectType="shape" height="243.25px" width="80.65px" xmlns="http://www.w3.org/2000/svg">
  <g transform="matrix(1.0, 0.0, 0.0, 1.0, 45.15, 69.4)">
    <path d="M14.15 31.0 L16.95 39.45 5.3 48.95 -0.95 34.45 -8.5 24.7" fill="none" stroke="#000000" stroke-linecap="round" stroke-linejoin="round" stroke-width="3.0"/>
    <path d="M5.3 48.95 L-2.5 20.05" fill="none" stroke="#000000" stroke-linecap="round" stroke-linejoin="round" stroke-width="3.0"/>
    <path d="M1.5 -57.3 L2.15 -57.2 2.25 -57.15 2.3 -57.05 2.25 -56.9 2.2 -56.8 1.25 -56.75 1.2 -56.85 1.2 -57.1 1.25 -57.2 1.35 -57.25 1.5 -57.3 M0.9 -46.9 L1.0 -46.8 1.0 -46.65 0.95 -46.45 0.55 -46.4 0.45 -46.7 0.5 -46.9 0.6 -46.95 0.75 -46.95 0.9 -46.9 M9.95 -33.3 L10.0 -33.45 10.1 -33.5 10.25 -33.55 10.4 -33.5 10.5 -33.4 10.5 -33.2 10.45 -33.05 10.0 -33.0 Q9.9 -33.1 9.95 -33.3 M0.9 -33.0 L1.0 -32.9 1.0 -32.7 0.95 -32.55 0.55 -32.5 0.45 -32.8 0.5 -32.95 0.6 -33.0 0.75 -33.05 0.9 -33.0 M17.9 43.2 L18.05 43.25 18.15 43.35 18.15 43.5 18.1 43.7 17.7 43.75 17.6 43.45 17.65 43.25 17.75 43.2 17.9 43.2 M28.9 46.2 L29.0 46.15 29.15 46.1 29.3 46.15 29.4 46.25 29.4 46.4 29.35 46.6 28.95 46.65 28.85 46.35 28.9 46.2 M35.25 45.35 L35.4 45.4 35.5 45.5 35.5 45.7 35.45 45.85 35.0 45.9 34.95 45.6 35.0 45.45 35.1 45.4 35.25 45.35 M29.3 53.9 L29.4 54.0 29.4 54.15 29.35 54.35 28.95 54.4 28.85 54.1 28.9 53.95 29.0 53.9 29.15 53.85 29.3 53.9 M13.9 51.0 L14.0 51.1 14.0 51.25 13.95 51.45 13.5 51.5 Q13.4 51.35 13.45 51.2 L13.5 51.0 13.6 50.95 13.75 50.95 13.9 51.0 M6.9 56.95 L7.05 57.0 7.15 57.1 7.15 57.25 7.1 57.45 6.7 57.5 6.6 57.2 6.65 57.0 6.75 56.95 6.9 56.95 M2.15 71.5 L2.25 71.55 2.25 71.75 2.2 71.95 1.75 71.95 1.7 71.7 1.75 71.5 1.85 71.45 2.0 71.4 2.15 71.5 M1.7 170.05 L1.75 170.1 1.8 170.2 1.75 170.35 1.7 170.45 0.55 170.5 0.45 170.4 0.45 170.15 0.5 170.05 0.6 170.0 0.75 169.95 1.7 170.05 M-26.75 -69.4 L-26.6 -69.35 -26.5 -69.25 -26.5 -69.05 -26.55 -68.9 -26.95 -68.85 -27.05 -69.15 -27.0 -69.3 -26.9 -69.35 -26.75 -69.4 M-11.0 -26.95 L-10.85 -26.9 -10.75 -26.8 -10.75 -26.65 -10.8 -26.45 -11.25 -26.4 -11.3 -26.7 -11.25 -26.9 -11.15 -26.95 -11.0 -26.95 M-0.2 -26.0 L-0.1 -25.9 -0.1 -25.7 -0.15 -25.55 -0.55 -25.5 -0.65 -25.8 -0.6 -25.95 -0.5 -26.0 -0.35 -26.05 -0.2 -26.0 M-25.35 -39.45 L-25.2 -39.4 -25.1 -39.3 -25.05 -39.05 -25.1 -38.85 -25.8 -38.75 -25.9 -38.95 -25.9 -39.15 -25.55 -39.4 -25.5 -39.45 -25.35 -39.45 M-32.75 -46.75 L-32.65 -46.65 -32.65 -46.5 -32.7 -46.3 -33.15 -46.25 -33.2 -46.55 -33.15 -46.75 -33.05 -46.8 -32.9 -46.8 -32.75 -46.75 M-20.85 -15.7 L-20.45 -15.6 -20.35 -15.55 -20.3 -15.45 -20.35 -15.3 -20.4 -15.2 -20.45 -15.15 -20.65 -15.0 -20.7 -14.95 -21.3 -15.0 -21.35 -15.1 -21.4 -15.3 -21.4 -15.4 -21.25 -15.5 -21.0 -15.7 -20.85 -15.7 M-38.9 25.85 L-39.3 25.9 -39.4 25.6 -39.35 25.45 -39.25 25.4 -39.1 25.35 -38.95 25.4 -38.85 25.5 -38.85 25.7 -38.9 25.85 M-44.7 40.5 L-44.6 40.6 -44.6 40.75 -44.65 40.95 -45.05 41.0 -45.15 40.7 -45.1 40.5 -45.0 40.45 -44.85 40.45 -44.7 40.5 M-32.9 64.3 L-33.1 64.4 -33.5 64.55 -33.75 64.45 -33.8 64.35 -33.85 64.1 -33.8 64.0 -33.75 63.9 -33.75 63.85 -33.65 63.85 -33.5 63.8 -32.9 63.9 -32.85 63.95 -32.8 64.05 -32.85 64.2 -32.9 64.3 M-26.65 76.05 L-26.55 75.95 -26.5 75.95 -26.35 75.95 -26.35 75.9 -26.1 76.0 -26.0 76.05 Q-25.85 76.25 -26.05 76.45 L-26.15 76.6 -26.75 76.6 -26.8 76.4 -26.8 76.2 -26.65 76.05 M-12.3 76.95 L-12.25 76.75 -12.15 76.7 -12.0 76.65 -11.85 76.75 -11.75 76.8 -11.75 77.0 -11.8 77.2 -12.25 77.2 -12.3 76.95 M-14.1 79.1 L-14.0 79.2 -14.0 79.45 -14.05 79.55 -14.55 79.6 -14.65 79.3 -14.6 79.15 -14.35 79.05 -14.1 79.1 M-10.85 79.6 L-10.75 79.7 -10.75 79.9 -10.8 80.05 -11.2 80.1 -11.3 79.8 -11.25 79.65 -11.15 79.6 -11.0 79.55 -10.85 79.6 M-1.75 93.55 L-1.75 93.75 -1.8 93.95 -2.2 93.95 -2.3 93.7 -2.25 93.5 -2.15 93.45 -2.0 93.4 -1.85 93.5 -1.75 93.55 M-3.4 100.15 L-3.3 100.1 -3.15 100.05 -3.0 100.1 -2.9 100.2 -2.9 100.35 -2.95 100.55 -3.4 100.6 -3.45 100.3 -3.4 100.15 M-9.9 160.45 L-9.95 160.55 -10.45 160.6 -10.55 160.3 -10.5 160.1 -10.25 160.05 -10.0 160.1 -9.9 160.2 -9.9 160.45 M-3.2 173.7 L-4.45 173.75 -4.5 173.65 -4.55 173.4 -4.5 173.3 -4.4 173.25 -4.25 173.2 -3.25 173.3 -3.15 173.35 -3.1 173.45 -3.15 173.6 -3.2 173.7" fill="#cc0000" fill-rule="evenodd" stroke="none"/>
  </g>
</svg>
