<?xml version="1.0" encoding="UTF-8" standalone="no"?>
<svg xmlns:ffdec="https://www.free-decompiler.com/flash" xmlns:xlink="http://www.w3.org/1999/xlink" ffdec:objectType="shape" height="245.1px" width="81.45px" xmlns="http://www.w3.org/2000/svg">
  <g transform="matrix(1.0, 0.0, 0.0, 1.0, 45.55, 69.65)">
    <path d="M17.15 37.8 L13.65 49.7 1.45 57.4 -2.75 44.0 -5.65 31.25" fill="none" stroke="#000000" stroke-linecap="round" stroke-linejoin="round" stroke-width="3.0"/>
    <path d="M1.45 57.4 L1.45 29.25" fill="none" stroke="#000000" stroke-linecap="round" stroke-linejoin="round" stroke-width="3.0"/>
    <path d="M1.9 -58.15 L1.85 -57.95 1.45 -57.9 1.35 -58.2 1.4 -58.4 1.5 -58.45 1.65 -58.45 1.8 -58.4 1.9 -58.3 1.9 -58.15 M1.25 -47.05 L1.4 -47.0 1.5 -46.9 1.5 -46.7 1.45 -46.55 1.15 -46.45 0.85 -46.5 Q0.75 -46.6 0.8 -46.8 L0.85 -46.95 0.95 -47.0 1.1 -47.05 1.2 -47.05 1.25 -47.05 M10.55 -33.4 L10.65 -33.3 10.65 -33.15 10.6 -32.95 10.2 -32.9 10.1 -33.2 10.15 -33.4 10.25 -33.45 10.4 -33.45 10.55 -33.4 M29.9 46.85 L29.9 47.0 29.85 47.2 29.45 47.25 29.35 46.95 29.4 46.75 29.5 46.7 29.65 46.7 29.8 46.75 29.9 46.85 M35.4 45.75 L35.5 45.7 35.65 45.7 35.8 45.75 35.9 45.85 35.9 46.0 35.85 46.2 35.45 46.25 35.35 45.95 35.4 45.75 M29.1 54.95 L29.25 54.95 29.4 55.0 29.5 55.1 29.5 55.25 29.45 55.45 29.0 55.5 28.95 55.2 29.0 55.0 29.1 54.95 M2.5 71.8 L2.65 71.85 2.75 71.95 2.75 72.1 2.7 72.3 2.25 72.35 2.2 72.05 2.25 71.9 2.35 71.85 2.5 71.8 M0.85 172.2 L0.95 172.35 1.05 172.45 1.65 172.6 1.75 172.7 1.8 172.8 1.75 172.95 1.7 173.05 Q0.95 173.4 0.35 172.8 L0.15 172.55 0.05 172.25 0.05 172.15 0.1 172.05 0.1 172.0 0.2 172.0 0.35 171.95 0.55 172.0 0.8 172.1 0.85 172.2 M-27.45 -69.1 L-27.55 -69.4 -27.5 -69.55 -27.4 -69.6 -27.25 -69.65 -27.1 -69.6 -27.0 -69.5 -27.0 -69.3 -27.05 -69.15 -27.45 -69.1 M-25.95 -40.4 L-25.85 -40.3 Q-25.7 -40.0 -25.85 -39.65 L-25.9 -39.5 Q-26.2 -39.35 -26.5 -39.5 L-26.55 -39.7 -26.55 -39.9 -26.5 -39.95 -26.4 -40.05 -26.4 -40.15 -26.4 -40.25 -26.35 -40.35 -26.3 -40.4 -26.25 -40.45 -26.1 -40.45 -25.95 -40.4 M-33.1 -46.35 L-33.0 -46.25 -33.0 -46.05 -33.05 -45.9 -33.45 -45.85 -33.55 -46.15 -33.5 -46.3 -33.4 -46.35 -33.25 -46.4 -33.1 -46.35 M-21.35 -15.5 L-21.25 -15.4 -21.25 -15.2 -21.3 -15.05 -21.75 -15.0 -21.8 -15.3 -21.75 -15.45 -21.65 -15.5 -21.5 -15.55 -21.35 -15.5 M-39.35 25.5 L-39.25 25.6 -39.25 25.75 -39.3 25.95 -39.75 26.0 -39.8 25.7 -39.75 25.5 -39.65 25.45 -39.5 25.45 -39.35 25.5 M-45.05 41.35 L-45.5 41.4 -45.55 41.1 -45.5 40.95 -45.4 40.9 -45.25 40.85 -45.1 40.9 -45.0 41.0 -45.0 41.2 -45.05 41.35 M-35.15 64.45 Q-35.4 64.65 -35.75 64.45 L-35.8 64.2 -35.75 64.0 -35.65 63.95 -35.5 63.95 -35.5 63.9 -35.2 64.0 -35.1 64.05 -35.1 64.25 -35.15 64.45 M-27.85 77.45 L-27.85 77.4 -27.6 77.5 -27.5 77.55 -27.5 77.85 -27.55 77.95 -28.05 77.95 -28.15 77.7 -28.1 77.5 -27.85 77.45 M-12.1 77.15 L-11.95 77.25 -11.85 77.3 -11.85 77.5 -11.9 77.7 -12.3 77.7 -12.4 77.45 -12.35 77.25 -12.25 77.2 -12.1 77.15 M-15.05 79.95 L-15.0 79.75 -14.9 79.7 -14.75 79.65 -14.6 79.75 -14.5 79.8 -14.5 80.0 -14.55 80.2 -15.0 80.2 -15.05 79.95 M-11.8 79.8 L-11.75 79.65 -11.65 79.6 -11.5 79.55 -11.35 79.6 -11.25 79.7 -11.25 79.9 -11.3 80.05 -11.7 80.1 -11.8 79.8 M-2.3 93.95 L-2.25 93.75 -2.15 93.7 -2.0 93.65 -1.85 93.75 -1.75 93.8 -1.75 94.0 -1.8 94.2 -2.2 94.2 -2.3 93.95 M-3.9 100.8 L-3.75 100.85 -3.65 100.95 -3.65 101.1 -3.7 101.3 -4.15 101.35 -4.2 101.05 -4.15 100.9 -4.05 100.85 -3.9 100.8 M-10.75 160.6 L-10.65 160.7 -10.65 160.85 -10.7 161.05 -11.15 161.1 -11.2 160.8 -11.15 160.6 -11.05 160.55 -10.9 160.55 -10.75 160.6 M-4.3 175.3 L-5.45 175.35 -5.55 175.25 -5.55 174.95 -5.5 174.85 -5.4 174.85 -5.25 174.8 -4.3 174.9 -4.25 174.95 -4.2 175.05 -4.25 175.2 -4.3 175.3" fill="#cc0000" fill-rule="evenodd" stroke="none"/>
  </g>
</svg>
