<?xml version="1.0" encoding="UTF-8" standalone="no"?>
<svg xmlns:ffdec="https://www.free-decompiler.com/flash" xmlns:xlink="http://www.w3.org/1999/xlink" ffdec:objectType="shape" height="246.6px" width="82.15px" xmlns="http://www.w3.org/2000/svg">
  <g transform="matrix(1.0, 0.0, 0.0, 1.0, 45.9, 69.65)">
    <path d="M32.9 47.15 L17.05 53.6 -2.15 53.3 -17.7 46.1 -18.4 35.3" fill="none" stroke="#000000" stroke-linecap="round" stroke-linejoin="round" stroke-width="3.0"/>
    <path d="M-2.15 53.3 L3.55 34.1" fill="none" stroke="#000000" stroke-linecap="round" stroke-linejoin="round" stroke-width="3.0"/>
    <path d="M1.45 -59.3 L1.5 -59.45 1.6 -59.5 1.75 -59.55 1.9 -59.5 2.0 -59.4 2.0 -59.2 1.95 -59.05 1.5 -59.0 Q1.4 -59.1 1.45 -59.3 M1.25 -46.95 L1.35 -47.0 1.5 -47.05 1.65 -47.0 1.75 -46.9 1.75 -46.7 1.7 -46.55 1.3 -46.5 1.2 -46.8 1.25 -46.95 M30.05 47.15 L30.15 47.25 30.15 47.4 30.1 47.6 29.7 47.65 29.6 47.35 29.65 47.2 29.75 47.15 29.9 47.1 30.05 47.15 M36.15 46.0 L36.25 46.1 36.25 46.25 36.2 46.45 35.75 46.5 35.7 46.2 35.75 46.0 35.85 45.95 36.0 45.95 36.15 46.0 M29.5 55.4 L29.45 55.6 29.0 55.65 28.95 55.35 29.0 55.2 29.1 55.15 29.25 55.1 29.4 55.15 29.5 55.25 29.5 55.4 M2.5 71.9 L2.6 71.85 2.75 71.8 2.9 71.85 3.0 71.95 3.0 72.1 2.95 72.3 2.5 72.35 2.45 72.05 2.5 71.9 M1.25 174.1 L1.35 174.2 1.35 174.45 1.3 174.55 0.55 174.6 0.45 174.2 0.5 174.05 0.75 173.95 1.25 174.1 M-27.95 -69.4 L-27.9 -69.55 -27.8 -69.6 -27.65 -69.65 -27.5 -69.6 -27.4 -69.5 -27.4 -69.3 -27.45 -69.15 -27.9 -69.1 -27.95 -69.4 M-26.85 -40.75 L-26.75 -40.65 -26.75 -40.45 -26.8 -40.3 -27.25 -40.25 -27.3 -40.55 -27.25 -40.7 -27.15 -40.75 -27.0 -40.8 -26.85 -40.75 M-33.35 -46.0 L-33.25 -45.9 -33.25 -45.75 -33.3 -45.55 -33.7 -45.5 -33.8 -45.8 -33.75 -46.0 -33.65 -46.05 -33.5 -46.05 -33.35 -46.0 M-21.6 -14.95 L-21.65 -14.8 -22.05 -14.75 -22.15 -15.05 -22.1 -15.2 -22.0 -15.25 -21.85 -15.3 -21.7 -15.25 -21.6 -15.15 -21.6 -14.95 M-45.35 41.25 L-45.35 41.45 -45.4 41.6 -45.8 41.65 -45.9 41.35 -45.85 41.2 -45.75 41.15 -45.6 41.1 -45.45 41.15 -45.35 41.25 M-36.9 64.2 L-36.85 64.0 -36.75 63.95 -36.6 63.9 -36.45 64.0 -36.35 64.05 -36.35 64.25 -36.4 64.45 -36.8 64.45 -36.9 64.2 M-28.75 78.85 L-28.8 79.05 -29.25 79.1 -29.3 78.8 -29.25 78.65 -29.15 78.6 -29.0 78.55 -28.85 78.6 -28.75 78.7 -28.75 78.85 M-15.0 80.3 L-15.0 80.5 -15.05 80.7 -15.5 80.7 -15.55 80.45 -15.5 80.25 -15.4 80.2 -15.25 80.15 -15.1 80.25 -15.0 80.3 M-11.9 77.95 L-12.3 77.95 -12.4 77.7 -12.35 77.5 -12.25 77.45 -12.1 77.4 -11.95 77.5 -11.85 77.55 -11.85 77.75 -11.9 77.95 M-11.5 160.85 L-11.4 160.95 -11.4 161.1 -11.45 161.3 -11.9 161.35 -11.95 161.05 -11.9 160.85 -11.8 160.8 -11.65 160.8 -11.5 160.85 M-4.7 176.8 L-5.9 176.85 -5.95 176.75 -5.95 176.45 -5.9 176.35 -5.8 176.35 -5.65 176.3 -4.75 176.4 -4.65 176.45 -4.6 176.55 -4.65 176.7 -4.7 176.8" fill="#cc0000" fill-rule="evenodd" stroke="none"/>
  </g>
</svg>
