<?xml version="1.0" encoding="UTF-8" standalone="no"?>
<svg xmlns:ffdec="https://www.free-decompiler.com/flash" xmlns:xlink="http://www.w3.org/1999/xlink" ffdec:objectType="shape" height="247.3px" width="74.05px" xmlns="http://www.w3.org/2000/svg">
  <g transform="matrix(1.0, 0.0, 0.0, 1.0, 37.55, 69.65)">
    <path d="M31.65 65.15 L14.1 66.4 -3.15 52.5 -20.2 57.1 -32.25 66.0" fill="none" stroke="#000000" stroke-linecap="round" stroke-linejoin="round" stroke-width="3.0"/>
    <path d="M-3.15 52.5 L1.95 38.85" fill="none" stroke="#000000" stroke-linecap="round" stroke-linejoin="round" stroke-width="3.0"/>
    <path d="M2.0 -59.8 L2.0 -59.65 1.95 -59.45 1.5 -59.4 Q1.4 -59.55 1.45 -59.7 L1.5 -59.9 1.6 -59.95 1.75 -59.95 1.9 -59.9 2.0 -59.8 M36.4 46.4 L36.5 46.5 36.5 46.65 36.45 46.85 36.0 46.9 Q35.9 46.8 35.95 46.6 L36.0 46.45 36.1 46.4 36.25 46.35 36.4 46.4 M29.25 55.45 L29.4 55.5 29.5 55.6 29.5 55.75 29.45 55.95 29.0 56.0 28.95 55.7 29.0 55.5 29.1 55.45 29.25 55.45 M0.75 175.2 L1.15 175.3 1.25 175.35 1.3 175.45 1.25 175.6 1.2 175.7 0.55 175.75 0.45 175.55 Q0.4 175.4 0.5 175.3 L0.6 175.25 0.75 175.2 M-27.85 -69.6 L-27.75 -69.5 -27.75 -69.3 -27.8 -69.15 -28.2 -69.1 -28.3 -69.4 -28.25 -69.55 -28.15 -69.6 -28.0 -69.65 -27.85 -69.6 M-27.65 -40.7 L-27.6 -40.9 -27.5 -40.95 -27.35 -40.95 -27.2 -40.9 -27.1 -40.8 -27.1 -40.65 -27.15 -40.45 -27.55 -40.4 -27.65 -40.7 M-33.35 -45.85 L-33.25 -45.75 -33.25 -45.55 -33.3 -45.4 -33.7 -45.35 -33.8 -45.65 -33.75 -45.8 -33.65 -45.85 -33.5 -45.9 -33.35 -45.85 M-21.85 -14.9 L-21.9 -14.7 -22.3 -14.65 -22.4 -14.95 -22.35 -15.15 -22.25 -15.2 -22.1 -15.2 -21.95 -15.15 -21.85 -15.05 -21.85 -14.9 M-37.1 64.1 L-37.0 64.2 -37.0 64.4 -37.05 64.55 -37.5 64.6 -37.55 64.3 -37.5 64.15 -37.4 64.1 -37.25 64.05 -37.1 64.1 M-29.65 79.55 L-30.05 79.6 -30.15 79.3 -30.1 79.15 -30.0 79.1 -29.85 79.05 -29.7 79.1 -29.6 79.2 -29.6 79.35 -29.65 79.55 M-11.85 77.95 L-11.85 78.1 -11.9 78.3 -12.3 78.35 -12.4 78.05 -12.35 77.9 -12.25 77.85 -12.1 77.8 -11.95 77.85 -11.85 77.95 M-15.65 80.45 L-15.5 80.4 -15.35 80.5 -15.25 80.55 -15.25 80.75 -15.3 80.95 -15.75 80.95 -15.8 80.7 -15.75 80.5 -15.65 80.45 M-12.0 160.85 L-11.9 160.95 -11.9 161.1 -11.95 161.3 -12.4 161.35 -12.45 161.05 -12.4 160.85 -12.3 160.8 -12.15 160.8 -12.0 160.85 M-5.95 177.55 L-6.65 177.6 -6.7 177.4 -6.65 177.1 -6.55 177.1 -6.4 177.05 -6.0 177.1 -5.9 177.2 -5.85 177.3 -5.9 177.45 -5.95 177.55" fill="#cc0000" fill-rule="evenodd" stroke="none"/>
  </g>
</svg>
