<?xml version="1.0" encoding="UTF-8" standalone="no"?>
<svg xmlns:ffdec="https://www.free-decompiler.com/flash" xmlns:xlink="http://www.w3.org/1999/xlink" ffdec:objectType="shape" height="238.45px" width="68.75px" xmlns="http://www.w3.org/2000/svg">
  <g transform="matrix(1.0, 0.0, 0.0, 1.0, 38.35, 60.3)">
    <path d="M28.9 64.4 L11.6 65.65 -6.25 53.1 -23.85 55.5 -36.85 64.3" fill="none" stroke="#000000" stroke-linecap="round" stroke-linejoin="round" stroke-width="3.0"/>
    <path d="M-6.25 53.1 L-3.25 37.85" fill="none" stroke="#000000" stroke-linecap="round" stroke-linejoin="round" stroke-width="3.0"/>
    <path d="M2.0 -60.15 L2.0 -59.95 1.95 -59.8 1.5 -59.75 Q1.4 -59.85 1.45 -60.05 L1.5 -60.2 1.6 -60.25 1.75 -60.3 1.9 -60.25 2.0 -60.15 M29.45 56.7 L29.0 56.75 28.95 56.45 29.0 56.25 29.1 56.2 29.25 56.2 29.4 56.25 29.5 56.35 29.5 56.5 29.45 56.7 M0.75 176.0 L0.85 176.1 0.85 176.25 0.8 176.45 0.35 176.5 0.3 176.2 0.35 176.05 0.45 176.0 0.6 175.95 0.75 176.0 M-27.35 -41.15 L-27.25 -41.05 -27.25 -40.9 -27.3 -40.7 -27.75 -40.65 -27.8 -40.95 -27.75 -41.15 -27.65 -41.2 -27.5 -41.2 -27.35 -41.15 M-37.6 64.1 L-37.5 64.2 -37.5 64.4 -37.55 64.55 -38.0 64.6 -38.05 64.3 -38.0 64.15 -37.9 64.1 -37.75 64.05 -37.6 64.1 M-29.85 79.75 L-29.9 79.95 -30.3 79.95 -30.4 79.7 -30.35 79.5 -30.25 79.45 -30.1 79.4 -29.95 79.5 -29.85 79.55 -29.85 79.75 M-15.35 80.85 L-15.4 81.05 -15.8 81.1 -15.9 80.8 -15.85 80.65 -15.75 80.6 -15.6 80.55 -15.45 80.6 -15.35 80.7 -15.35 80.85 M-12.35 161.0 L-12.25 161.1 -12.25 161.25 -12.3 161.45 -12.7 161.5 -12.8 161.2 -12.75 161.05 -12.65 161.0 -12.5 160.95 -12.35 161.0 M-7.0 177.6 L-6.9 177.7 -6.9 177.95 -6.95 178.05 -7.45 178.1 -7.55 177.8 -7.5 177.6 -7.25 177.55 -7.0 177.6" fill="#cc0000" fill-rule="evenodd" stroke="none"/>
  </g>
</svg>
