<?xml version="1.0" encoding="UTF-8" standalone="no"?>
<svg xmlns:ffdec="https://www.free-decompiler.com/flash" xmlns:xlink="http://www.w3.org/1999/xlink" ffdec:objectType="shape" height="238.6px" width="69.35px" xmlns="http://www.w3.org/2000/svg">
  <g transform="matrix(1.0, 0.0, 0.0, 1.0, 39.8, 60.45)">
    <path d="M28.05 63.25 L12.05 64.7 -6.95 56.2 -25.1 54.65 -38.3 62.8" fill="none" stroke="#000000" stroke-linecap="round" stroke-linejoin="round" stroke-width="3.0"/>
    <path d="M-6.95 56.2 L-6.95 33.1" fill="none" stroke="#000000" stroke-linecap="round" stroke-linejoin="round" stroke-width="3.0"/>
    <path d="M1.9 -60.4 L2.0 -60.3 2.0 -60.15 1.95 -59.95 1.5 -59.9 Q1.4 -60.05 1.45 -60.2 L1.5 -60.4 1.6 -60.45 1.75 -60.45 1.9 -60.4 M0.6 176.3 L0.75 176.35 0.85 176.45 0.85 176.6 0.8 176.8 0.35 176.85 0.3 176.55 0.35 176.35 0.45 176.3 0.6 176.3 M-30.25 79.55 L-30.25 79.75 -30.3 79.95 -30.75 79.95 -30.8 79.7 -30.75 79.5 -30.65 79.45 -30.5 79.4 -30.35 79.5 -30.25 79.55 M-7.95 177.8 L-7.9 177.6 -7.8 177.55 -7.65 177.55 -7.5 177.6 -7.4 177.7 -7.4 177.85 -7.45 178.05 -7.9 178.1 -7.95 177.8" fill="#cc0000" fill-rule="evenodd" stroke="none"/>
  </g>
</svg>
