<?xml version="1.0" encoding="UTF-8" standalone="no"?>
<svg xmlns:ffdec="https://www.free-decompiler.com/flash" xmlns:xlink="http://www.w3.org/1999/xlink" ffdec:objectType="shape" height="34.95px" width="75.1px" xmlns="http://www.w3.org/2000/svg">
  <g transform="matrix(1.0, 0.0, 0.0, 1.0, 60.7, 15.7)">
    <path d="M-1.55 -2.35 L-10.55 8.75 -24.3 10.75 -30.3 -8.25 -28.85 -14.2" fill="none" stroke="#000000" stroke-linecap="round" stroke-linejoin="round" stroke-width="3.0"/>
    <path d="M-24.3 10.75 L-7.95 4.2" fill="none" stroke="#000000" stroke-linecap="round" stroke-linejoin="round" stroke-width="3.0"/>
    <path d="M12.9 -0.45 L1.5 -1.05 -7.95 4.2 -18.8 3.65 -16.2 6.9" fill="none" stroke="#000000" stroke-linecap="round" stroke-linejoin="round" stroke-width="3.0"/>
    <path d="M-55.2 -0.3 L-55.15 -0.5 -55.05 -0.55 -54.9 -0.55 -54.8 -0.5 -54.65 -0.55 -54.35 -0.5 -54.25 -0.4 -54.2 -0.3 -54.2 -0.25 -54.2 -0.15 -54.1 -0.1 -53.95 0.0 -53.35 0.55 -52.3 0.75 -52.25 0.85 -52.2 0.9 Q-51.35 0.9 -50.65 1.3 -49.9 1.3 -49.35 1.65 L-48.55 1.9 Q-48.1 2.15 -47.8 2.5 L-47.7 2.6 -47.55 2.65 -47.5 2.75 -47.45 2.85 -47.45 2.9 -47.05 3.0 Q-46.8 3.35 -46.3 3.4 L-46.25 3.5 -46.2 3.55 -45.3 3.75 -45.25 3.85 -45.2 3.9 -44.85 3.95 -44.35 3.75 -44.2 3.6 -44.15 3.5 -43.85 3.4 Q-43.7 1.5 -44.0 -0.35 L-44.05 -0.9 -44.7 -1.65 -44.75 -1.75 -44.75 -1.9 -44.8 -1.95 -44.95 -2.0 -45.0 -2.1 -45.05 -2.3 -45.6 -3.05 -45.75 -3.15 -45.85 -5.5 -45.8 -5.75 -45.5 -5.9 -45.35 -5.85 -45.25 -5.75 -45.2 -3.9 -45.2 -3.7 -44.95 -3.3 -44.95 -3.25 -44.85 -3.15 -44.7 -3.1 -44.4 -2.75 -43.85 -2.3 -43.8 -2.2 -43.55 -2.1 -43.0 -1.0 -42.95 -0.6 -42.85 -0.5 -42.7 -0.3 -42.65 1.75 -42.6 2.4 -42.4 2.6 -42.35 2.7 -42.25 3.25 Q-42.15 3.35 -42.2 3.5 L-41.95 3.8 -41.9 4.0 -41.3 4.15 -41.0 3.85 -40.9 3.75 -40.75 3.7 -40.55 3.6 -40.55 3.5 -40.45 3.4 -40.25 3.35 -39.85 3.45 -39.75 3.5 -39.7 3.6 -39.7 3.7 -39.7 3.75 -39.9 3.95 -40.05 4.15 -40.25 4.2 -40.45 4.25 -40.6 4.45 -40.6 4.6 -40.65 4.8 -40.9 4.9 -41.15 4.9 -41.55 5.1 -42.3 6.1 -42.45 6.4 -42.7 6.5 -42.7 6.6 -42.75 6.7 -42.8 6.75 -42.85 6.75 -43.0 6.85 -43.15 7.1 -43.35 7.4 -43.5 7.85 -43.7 8.15 -43.9 8.9 -44.2 9.2 -44.35 9.55 -44.55 9.75 -44.6 9.85 -44.6 9.95 -44.65 10.0 -44.95 10.7 -45.05 10.95 -45.25 11.0 -45.45 11.0 -45.55 10.25 -45.45 9.75 -45.4 9.7 -45.25 9.6 -45.2 9.5 -45.15 9.3 -45.15 9.25 -45.05 9.2 -44.95 9.2 -45.0 8.95 -44.95 8.65 Q-44.5 8.25 -44.55 7.6 L-44.55 6.85 -44.75 6.6 -44.95 6.4 -45.05 6.3 -45.05 6.2 -45.05 6.1 -45.45 5.75 -45.55 5.6 -45.55 5.55 -45.7 5.5 -45.8 5.4 -45.8 5.3 -46.0 5.2 -46.15 5.1 -46.45 4.7 -46.55 4.6 -46.85 4.45 -47.05 4.3 -47.05 4.2 -47.05 4.1 -47.15 4.05 -47.4 4.0 Q-47.5 3.75 -47.75 3.7 L-47.95 3.65 -48.05 3.55 -48.05 3.5 -50.4 2.5 -50.45 2.4 -50.45 2.3 -50.5 2.25 -52.45 2.15 -52.55 2.05 -52.55 2.0 -53.65 1.75 -53.7 1.65 -53.75 1.55 -53.75 1.5 Q-54.7 1.1 -55.05 0.1 L-55.2 -0.1 -55.2 -0.3 M-39.6 -8.55 L-39.45 -8.5 -39.35 -8.4 Q-38.95 -6.9 -38.05 -5.6 L-37.95 -5.4 Q-37.4 -5.1 -37.25 -4.55 L-37.0 -4.25 -36.95 -4.2 -37.0 -4.0 -37.05 -3.9 Q-37.4 -3.75 -37.75 -3.9 -37.9 -4.65 -38.55 -5.15 L-38.6 -5.2 -38.65 -5.4 Q-39.6 -6.65 -39.9 -8.25 L-39.9 -8.4 -39.6 -8.55 M-23.8 -7.75 L-23.95 -7.6 -24.8 -7.25 -25.0 -7.05 -25.15 -7.05 -25.4 -7.1 -25.5 -7.4 -25.45 -7.65 -25.35 -7.75 -25.1 -7.85 -25.05 -7.95 -24.95 -8.0 Q-24.5 -8.1 -24.15 -8.4 L-24.0 -8.4 -23.6 -8.3 -23.5 -8.25 -23.45 -8.15 -23.5 -8.0 -23.55 -7.9 -23.8 -7.75 M-25.85 -5.75 L-25.75 -5.65 Q-25.55 -3.9 -25.85 -2.2 L-25.95 -2.0 -26.25 -0.7 -26.35 -0.6 -26.5 0.25 -26.55 0.4 -28.55 1.7 -29.0 1.9 -29.65 1.9 -29.7 1.6 -29.65 1.45 -28.65 1.1 -27.05 -0.2 -26.95 -0.65 -26.95 -0.85 -26.85 -1.05 -26.75 -1.15 -26.35 -2.55 -26.3 -2.65 -26.3 -5.55 -26.25 -5.75 -26.15 -5.8 -26.0 -5.8 -25.85 -5.75 M-10.5 -8.3 L-10.35 -8.25 -10.25 -8.15 -10.2 -8.05 -10.2 -7.9 -11.8 -6.3 -13.6 -4.5 -14.0 -4.2 -14.2 -4.25 -14.3 -4.45 -14.3 -4.65 -12.85 -6.45 -12.65 -6.65 -12.45 -6.7 -12.25 -6.8 Q-11.55 -7.8 -10.5 -8.3 M-4.8 4.4 L-4.65 4.35 -4.35 4.45 -4.25 4.5 -4.25 4.7 -4.3 4.85 Q-5.2 5.6 -6.4 5.4 L-6.45 5.1 -6.4 4.95 Q-5.6 4.8 -4.9 4.45 L-4.8 4.4 M-5.15 6.35 L-5.1 6.45 -5.15 6.6 -5.2 6.7 -5.25 6.75 -7.9 6.85 -8.0 6.95 -9.65 7.25 -9.7 7.35 -9.75 7.45 -9.9 7.45 -10.9 7.6 -11.0 7.7 -12.65 7.9 -12.7 7.8 -12.7 7.55 -12.65 7.45 -12.55 7.4 -11.35 7.1 -11.25 7.05 -10.05 6.75 -10.0 6.7 -9.9 6.6 -9.75 6.6 -8.35 6.35 -8.25 6.25 -8.15 6.25 -8.0 6.2 -5.25 6.3 -5.15 6.35 M-19.95 11.65 Q-19.1 10.4 -17.75 9.6 L-16.9 9.2 -16.45 9.1 Q-15.6 8.05 -14.25 7.7 L-14.1 7.75 -14.0 7.85 -13.95 7.95 -13.95 8.1 Q-15.1 8.65 -15.95 9.55 L-16.0 9.6 Q-17.95 10.3 -19.3 11.85 L-19.35 11.95 -19.25 14.2 -19.2 15.8 -19.35 16.1 -19.4 16.25 -19.45 16.35 -19.55 16.45 -19.75 17.3 -19.95 17.75 -20.4 17.75 -20.35 16.8 -20.2 16.15 Q-19.5 14.9 -19.85 13.4 L-20.0 12.1 -19.95 11.65 M-23.35 7.65 L-23.45 7.85 Q-23.3 8.1 -23.3 8.4 L-23.35 8.5 -24.0 8.6 Q-24.3 7.7 -24.1 6.7 L-24.05 6.45 -23.75 6.3 -23.6 6.35 -23.5 6.45 Q-23.4 6.7 -23.45 7.0 L-23.45 7.2 -23.35 7.4 -23.3 7.45 -23.35 7.65 M-54.4 17.2 L-50.35 17.0 -48.85 16.6 -46.6 16.25 Q-46.4 16.05 -46.1 16.0 L-46.25 15.85 -46.3 15.75 -46.3 15.2 -46.25 15.0 -46.15 14.95 -46.0 14.95 -45.85 15.0 -45.75 15.1 -45.7 15.25 -45.7 15.45 -45.5 15.75 -45.45 15.85 -45.45 16.15 -45.45 16.2 -45.35 16.7 -45.3 16.85 -45.15 16.95 -45.0 17.6 -44.95 17.7 -44.75 17.85 -44.7 17.95 -44.7 18.05 -44.55 18.35 -44.0 18.85 -44.0 19.0 -44.05 19.2 -44.9 19.15 -45.0 18.95 -45.15 18.85 -45.2 18.75 -45.2 18.6 -45.45 18.4 -45.5 18.15 -46.4 17.9 -46.45 17.8 -46.45 17.75 -49.4 17.85 -49.45 17.95 -49.5 18.0 -53.4 18.0 -55.25 17.7 -56.15 17.5 -56.2 17.4 -56.2 17.35 -56.65 17.2 -56.9 17.15 -56.95 17.05 -56.95 17.0 -57.8 16.35 -57.9 16.25 -58.15 16.15 -58.2 16.05 -58.2 15.95 -58.7 15.65 Q-59.5 15.0 -60.4 14.55 L-60.65 14.5 -60.7 14.3 -60.65 14.0 -60.55 14.0 -60.4 13.95 Q-59.15 14.45 -58.0 15.2 L-57.75 15.25 -57.65 15.35 -57.6 15.45 -57.6 15.55 -56.8 16.2 -56.7 16.25 Q-55.6 16.6 -54.6 17.1 L-54.4 17.2" fill="#cc0000" fill-rule="evenodd" stroke="none"/>
  </g>
</svg>
