<?xml version="1.0" encoding="UTF-8" standalone="no"?>
<svg xmlns:ffdec="https://www.free-decompiler.com/flash" xmlns:xlink="http://www.w3.org/1999/xlink" ffdec:objectType="shape" height="61.6px" width="83.05px" xmlns="http://www.w3.org/2000/svg">
  <g transform="matrix(1.0, 0.0, 0.0, 1.0, 77.65, 18.3)">
    <path d="M-26.0 0.55 L-33.3 14.1 -48.35 23.65 -68.45 12.8 -70.85 4.9" fill="none" stroke="#000000" stroke-linecap="round" stroke-linejoin="round" stroke-width="3.0"/>
    <path d="M-49.55 24.6 L-27.6 5.65" fill="none" stroke="#000000" stroke-linecap="round" stroke-linejoin="round" stroke-width="3.0"/>
    <path d="M0.4 4.15 L-15.35 2.35 -27.6 5.65 -30.4 0.05 -23.55 1.8" fill="none" stroke="#000000" stroke-linecap="round" stroke-linejoin="round" stroke-width="3.0"/>
    <path d="M1.1 -16.65 L1.05 -16.2 1.0 -16.0 Q0.8 -15.75 0.45 -15.8 -0.25 -14.8 -1.4 -14.75 L-1.45 -14.95 -1.45 -15.15 0.5 -16.55 0.55 -16.6 0.6 -16.7 0.7 -16.75 0.85 -16.8 1.0 -16.75 1.1 -16.65 M0.2 1.2 L0.35 1.2 0.5 1.25 0.6 1.35 0.6 1.9 0.5 2.1 -0.15 2.65 -0.25 3.1 -0.35 3.3 -0.4 3.6 -0.45 3.75 -0.9 3.75 -0.9 3.0 -0.8 2.8 Q-0.8 2.15 -0.25 1.8 L-0.1 1.7 0.0 1.4 0.1 1.25 0.2 1.2 M4.35 7.2 Q4.95 7.25 5.35 7.6 L5.4 7.7 5.35 7.9 5.25 7.95 5.1 8.05 1.55 7.4 -0.75 7.2 -0.95 7.15 -1.0 7.05 -1.05 6.85 -1.05 6.8 -1.0 6.7 -0.9 6.65 -0.75 6.6 3.4 6.95 4.35 7.2 M-62.75 -6.5 L-62.65 -6.5 -62.5 -6.55 -60.6 -6.45 -60.5 -6.4 -60.45 -6.4 Q-59.55 -6.4 -58.9 -5.9 L-58.85 -5.85 -58.3 -5.65 -56.55 -4.15 -56.55 -4.05 -56.55 -3.95 -56.45 -3.85 -55.9 -3.35 -55.55 -2.85 -55.5 -2.85 -55.3 -2.75 -55.25 -2.65 -55.15 -2.4 -55.1 -2.2 -55.05 -1.9 -54.95 -1.8 -54.8 -1.55 -54.75 -1.25 -54.65 -1.05 -54.55 -0.95 -54.5 -0.9 -54.45 -0.8 -54.45 -0.6 -54.4 -0.5 Q-53.7 0.15 -52.75 0.5 L-52.05 0.85 -50.6 1.5 -50.55 1.6 -50.65 1.85 Q-52.05 2.0 -53.15 0.95 -53.45 0.7 -53.85 0.6 L-54.8 0.25 -54.9 0.15 -54.9 0.05 -54.9 -0.05 -55.0 -0.15 -55.05 -0.25 -55.05 -0.3 -55.05 -0.4 -55.25 -0.5 -55.25 -0.6 -55.35 -1.05 -55.65 -1.65 -55.65 -1.75 -55.65 -1.8 -55.65 -1.9 -55.7 -2.0 -56.0 -2.3 -56.1 -2.4 -56.15 -2.5 -56.15 -2.55 -56.2 -2.65 -56.3 -2.75 -56.6 -3.05 -56.75 -3.15 -56.8 -3.25 -57.05 -3.55 -57.15 -3.6 -57.15 -3.7 -57.15 -3.8 -57.25 -3.9 -57.5 -4.15 -57.75 -4.45 -57.8 -4.5 -58.0 -4.55 -58.25 -4.6 -58.3 -4.7 -58.35 -4.8 -58.4 -4.9 -58.95 -5.15 Q-59.8 -5.75 -60.8 -5.75 L-60.9 -5.85 -60.9 -5.9 -62.5 -5.95 -62.75 -6.0 -62.8 -6.1 -62.8 -6.4 -62.75 -6.5 M-46.75 -17.75 L-46.8 -18.05 -46.75 -18.15 -46.65 -18.15 -46.5 -18.2 -44.45 -18.1 -44.3 -18.05 -44.3 -18.1 -44.25 -18.2 -44.25 -18.25 -44.15 -18.3 -44.0 -18.3 -43.85 -18.25 -43.75 -18.15 -43.65 -17.8 Q-43.05 -17.65 -42.95 -17.1 L-43.0 -17.0 -43.25 -16.85 -43.45 -16.95 -43.5 -17.0 -42.25 -15.0 -42.1 -14.9 -42.0 -14.8 -42.1 -15.25 -42.25 -15.45 -42.45 -16.0 -42.4 -16.1 -42.4 -16.15 -42.3 -16.2 -42.15 -16.2 Q-41.0 -15.3 -41.25 -13.6 L-41.75 -12.0 -42.25 -11.1 -43.1 -10.25 -43.2 -9.95 -43.3 -9.8 -43.45 -9.7 -43.6 -9.65 Q-44.0 -9.05 -44.55 -8.6 -45.15 -7.9 -45.15 -7.0 L-45.2 -6.75 -45.65 -6.75 -45.75 -7.8 -45.7 -8.15 -45.35 -8.55 -45.25 -8.65 -45.25 -8.7 -45.2 -8.9 -44.25 -9.85 -44.2 -9.95 -44.15 -10.15 -43.95 -10.2 -43.75 -10.3 -43.75 -10.4 -43.7 -10.55 Q-41.85 -12.1 -41.95 -14.35 L-42.0 -14.25 -42.1 -14.2 -42.25 -14.1 -42.5 -14.15 -42.6 -14.35 -42.75 -14.45 -44.25 -16.8 -44.3 -17.25 -44.75 -17.4 -46.7 -17.65 -46.75 -17.75 M-28.1 -13.5 L-28.0 -13.4 Q-27.9 -12.7 -28.75 -12.4 -29.0 -11.8 -29.55 -11.45 L-29.55 -11.15 -29.55 -11.0 -29.3 -10.7 -29.25 -10.6 -27.1 -7.75 -26.25 -6.4 Q-25.55 -5.95 -25.55 -5.15 L-25.65 -4.9 -26.05 -4.85 -26.15 -5.15 -26.15 -5.3 -26.8 -6.0 -26.85 -6.05 -26.9 -6.25 -29.0 -9.25 -29.15 -9.65 -29.8 -10.1 -29.85 -10.2 -29.9 -10.4 -30.1 -10.6 -30.15 -10.65 -30.15 -11.6 -30.05 -11.9 -28.5 -13.5 -28.4 -13.55 -28.25 -13.55 -28.1 -13.5 M-17.65 9.2 L-12.95 9.3 -12.9 9.35 -12.85 9.45 -12.9 9.6 -12.95 9.7 -13.15 9.75 -17.9 9.75 -17.95 9.65 -17.95 9.35 -17.9 9.25 -17.8 9.25 -17.65 9.2 M-24.1 14.7 Q-23.4 15.25 -23.0 16.15 L-23.0 16.25 -22.85 16.35 -22.75 16.45 -22.6 16.8 -22.55 17.0 -22.55 17.1 -22.65 17.25 Q-23.25 17.3 -23.55 16.7 -23.65 16.05 -24.15 15.65 L-24.25 15.55 -24.35 15.2 -24.4 15.0 -24.4 14.9 -24.3 14.75 -24.25 14.7 -24.1 14.7 M-70.9 21.15 L-70.85 20.95 -70.75 20.75 Q-70.2 20.45 -70.05 19.85 L-69.95 19.75 -69.8 19.65 -69.7 19.35 -69.6 19.25 -69.5 19.2 -69.35 19.2 -69.2 19.25 -69.1 19.35 Q-68.95 19.55 -69.15 19.7 L-69.2 19.8 -69.2 19.9 -69.25 20.1 -70.05 21.2 -70.1 21.25 -70.25 21.35 -70.7 22.2 -70.75 22.25 -71.05 22.95 -71.05 23.0 -71.05 23.05 -71.45 24.8 -71.45 27.25 -71.45 28.1 -71.05 29.1 -71.05 29.3 -70.85 29.5 -70.8 29.6 -70.7 30.15 -70.7 30.35 Q-70.35 30.6 -70.3 31.0 L-70.3 31.1 -70.0 31.55 -69.95 31.65 -69.4 32.15 -69.35 32.25 -69.3 32.4 -68.9 32.5 -68.4 32.85 -68.35 32.85 -67.65 33.35 -67.65 33.2 -67.75 33.1 -67.9 32.65 -67.9 32.45 -68.1 32.15 -68.15 32.1 -68.15 30.2 -68.1 30.0 -68.0 29.95 -67.85 29.95 -67.7 30.0 -67.6 30.1 -67.5 30.95 -67.3 31.45 -67.3 31.65 -67.1 31.85 -67.05 31.95 -67.05 32.65 -66.8 33.2 -66.8 33.3 -66.6 33.5 -66.55 33.6 -66.5 33.9 -66.45 34.05 -66.25 34.25 -66.2 34.35 -65.7 35.65 -65.7 35.75 -65.55 35.95 -65.5 36.0 -65.45 36.1 -65.45 36.2 Q-65.2 36.55 -65.3 36.95 L-65.35 37.05 -65.45 37.15 -65.6 37.2 -65.8 37.15 -65.85 37.05 -66.3 37.0 -66.9 36.05 -66.95 35.95 -67.1 35.85 -67.15 35.75 -67.15 35.7 -67.25 35.7 -67.5 35.65 -67.55 35.45 -67.55 35.35 -68.0 34.8 -68.05 34.6 -68.3 34.4 -68.5 34.2 -69.3 33.65 -69.4 33.45 -69.45 33.25 -69.8 32.9 -70.5 32.25 -70.5 32.15 Q-71.15 31.55 -71.4 30.6 L-71.85 29.95 -72.0 29.85 -72.3 28.3 -72.4 28.1 Q-72.55 26.3 -72.1 24.65 L-72.15 24.25 -71.9 23.3 -71.9 22.95 -71.9 22.75 -71.8 22.65 -71.65 22.55 -71.6 22.15 -71.55 22.0 -71.45 21.9 -71.3 21.8 -71.3 21.7 -71.3 21.6 -71.15 21.35 -71.05 21.25 -70.9 21.15 M-67.25 13.2 Q-66.5 13.85 -66.7 15.05 L-66.9 16.5 -67.0 17.0 -67.2 17.3 -67.3 17.45 -67.75 17.5 -67.8 17.0 -67.8 16.85 -67.7 16.75 -67.55 16.65 -67.55 16.55 -67.55 16.35 -67.5 16.3 -67.4 16.2 -67.4 14.1 -67.4 13.85 -67.55 13.45 -67.5 13.25 -67.4 13.2 -67.25 13.2 M-77.3 30.55 L-77.3 30.5 -77.35 30.45 -77.55 30.4 -77.65 30.2 -77.6 29.95 -77.5 29.9 -77.35 29.85 -77.1 29.85 -76.9 29.9 -76.85 30.0 -76.8 30.05 Q-76.3 30.2 -76.1 30.6 L-76.0 30.8 -75.8 31.0 -75.7 31.15 -75.6 31.2 -75.35 31.35 -74.6 31.75 -74.55 31.85 -74.65 32.1 -75.75 32.15 -75.8 32.05 -75.85 31.85 -75.9 31.8 -76.05 31.75 -76.15 31.65 -76.2 31.55 -76.25 31.5 -76.25 31.45 -76.5 31.4 -76.55 31.3 -76.55 31.1 -76.55 31.0 -76.65 30.95 -76.8 30.75 -77.0 30.7 -77.25 30.65 -77.3 30.55 M-71.8 36.75 L-71.8 36.65 -71.75 36.5 -71.65 36.45 -71.5 36.45 -70.6 37.1 -70.4 37.15 -70.35 37.25 -70.3 37.4 -69.5 38.1 -69.35 38.2 -69.15 38.25 -68.55 38.65 -68.2 39.0 -68.1 39.1 -68.05 39.2 -68.05 39.35 -67.4 39.75 -67.3 39.95 -67.25 40.0 -66.9 40.15 Q-66.7 40.45 -66.3 40.5 L-66.25 40.6 -66.2 40.65 -65.55 40.9 -65.5 41.0 -65.45 41.05 -64.65 41.25 -63.75 41.8 -62.9 42.0 -62.85 42.1 -62.8 42.15 -60.85 42.2 -61.0 42.15 Q-61.4 41.55 -62.1 41.55 L-62.3 41.5 -62.35 41.4 -62.4 41.1 -62.35 41.0 -62.25 40.95 -62.1 40.95 -61.6 41.0 -61.35 41.25 -60.9 41.55 -59.55 42.05 -59.5 42.1 -56.85 42.5 -56.8 42.6 -56.9 42.85 -58.6 43.0 -59.05 43.0 -59.15 43.1 -59.2 43.2 -63.9 43.05 -64.65 42.8 Q-65.3 42.55 -65.8 42.05 -66.1 41.75 -66.55 41.6 L-66.8 41.5 Q-67.2 41.0 -67.8 40.75 L-67.9 40.65 -67.9 40.55 -68.3 40.25 -68.35 40.2 -69.1 39.5 -69.15 39.4 -69.25 39.3 -69.5 39.25 -70.7 38.0 -70.9 37.8 -71.05 37.65 -71.25 37.5 -71.55 37.4 -71.75 36.95 -71.8 36.75 M-64.35 42.25 L-64.15 42.35 -64.25 42.25 -64.35 42.25" fill="#cc0000" fill-rule="evenodd" stroke="none"/>
  </g>
</svg>
