<?xml version="1.0" encoding="UTF-8" standalone="no"?>
<svg xmlns:ffdec="https://www.free-decompiler.com/flash" xmlns:xlink="http://www.w3.org/1999/xlink" ffdec:objectType="shape" height="87.5px" width="116.1px" xmlns="http://www.w3.org/2000/svg">
  <g transform="matrix(1.0, 0.0, 0.0, 1.0, 102.7, 25.8)">
    <path d="M-69.7 5.8 L-72.4 20.9 -72.6 38.25 -94.9 34.45 -101.2 31.55" fill="none" stroke="#000000" stroke-linecap="round" stroke-linejoin="round" stroke-width="3.0"/>
    <path d="M-70.65 36.25 L-61.7 10.25" fill="none" stroke="#000000" stroke-linecap="round" stroke-linejoin="round" stroke-width="3.0"/>
    <path d="M-36.65 6.15 L-47.45 1.85 -61.7 10.25 -64.0 -2.05 -53.95 -8.1" fill="none" stroke="#000000" stroke-linecap="round" stroke-linejoin="round" stroke-width="3.0"/>
    <path d="M11.4 -21.75 L11.5 -21.65 11.55 -21.55 11.55 -21.4 Q10.8 -20.7 9.85 -20.75 L9.8 -20.95 9.8 -21.15 Q10.45 -21.65 11.25 -21.8 L11.4 -21.75 M5.3 -0.85 Q5.5 -0.55 5.95 -0.45 L6.0 -0.4 6.0 -0.25 5.95 -0.05 4.85 -0.1 4.75 -0.5 4.8 -0.75 5.1 -0.9 5.3 -0.85 M11.95 9.65 L13.2 9.9 13.35 10.25 13.4 10.45 13.1 10.7 12.85 10.65 12.8 10.55 12.8 10.5 11.55 10.15 11.45 10.1 9.65 9.55 9.5 9.45 9.45 9.25 9.45 9.1 9.75 8.95 11.9 9.6 11.95 9.65 M-49.45 -25.5 L-49.3 -25.45 -49.15 -25.4 -49.05 -25.2 -49.0 -25.15 -48.3 -24.4 -48.25 -23.9 -48.3 -23.75 -48.75 -23.75 -49.25 -24.35 -49.3 -24.4 -49.3 -24.5 -49.3 -24.55 -49.4 -24.6 -49.55 -24.65 -49.6 -24.75 -49.65 -24.9 -50.0 -25.0 -50.05 -25.45 -50.05 -25.65 -49.75 -25.8 -49.55 -25.75 -49.5 -25.65 -49.45 -25.5 M-71.5 -0.75 L-71.55 -0.95 -71.55 -1.15 -71.4 -1.4 -71.3 -1.5 -71.15 -1.6 Q-70.95 -2.25 -70.25 -2.55 L-70.1 -2.55 -69.85 -2.5 -69.75 -2.4 -69.75 -2.15 -69.8 -2.05 Q-70.4 -1.85 -70.55 -1.25 L-70.6 -1.15 -70.85 -0.9 -70.9 -0.8 -71.5 -0.75 M-63.35 -6.4 L-61.6 -6.3 -61.5 -6.25 -61.45 -6.15 -61.5 -6.0 -61.55 -5.9 -61.6 -5.85 -63.25 -5.75 -63.35 -5.65 -64.4 -5.4 Q-65.0 -5.05 -65.55 -4.85 -66.1 -4.7 -66.45 -4.25 L-66.55 -4.1 -66.6 -4.1 Q-67.35 -4.1 -67.75 -3.55 L-67.9 -3.35 -68.1 -3.3 -68.75 -3.25 -68.8 -3.35 -68.8 -3.55 -68.8 -3.65 -68.75 -3.7 -68.4 -3.9 -68.4 -4.0 -68.3 -4.1 -67.5 -4.5 Q-67.05 -4.6 -66.75 -4.9 L-66.5 -5.25 -66.4 -5.3 -65.85 -5.4 -65.8 -5.45 -65.75 -5.55 -64.8 -5.9 -63.7 -6.25 -63.6 -6.3 -63.5 -6.35 -63.35 -6.4 M-62.0 -7.1 L-62.05 -7.2 -62.05 -7.4 -62.0 -7.55 -61.9 -7.6 -61.75 -7.65 Q-59.5 -7.75 -57.7 -6.3 L-57.4 -6.05 -56.3 -5.15 -56.05 -5.05 -55.9 -5.0 -55.85 -4.9 -55.75 -4.65 -55.7 -4.45 -55.75 -4.35 -56.0 -4.2 -56.25 -4.25 -56.3 -4.35 -56.35 -4.45 -56.4 -4.5 -58.8 -6.2 -60.35 -6.95 -61.75 -7.05 -62.0 -7.1 M-45.55 -21.15 L-45.6 -21.05 -45.75 -20.9 -46.1 -20.7 -46.75 -20.05 -46.8 -20.0 -46.85 -20.0 -47.45 -20.0 -47.5 -20.1 -47.55 -20.3 -47.55 -20.4 -47.5 -20.45 -47.0 -20.8 -46.95 -20.85 -46.7 -21.25 -46.15 -21.55 -45.3 -21.95 -45.15 -21.95 -43.8 -21.85 -43.75 -21.8 -43.7 -21.7 -43.75 -21.55 -43.8 -21.45 -45.55 -21.15 M-40.9 -16.7 L-40.7 -16.65 -40.55 -16.4 -40.55 -16.3 -40.4 -16.2 Q-40.1 -15.5 -40.15 -14.7 L-40.2 -14.4 -40.25 -14.35 -40.4 -14.2 -40.45 -14.05 -40.45 -13.95 -40.6 -13.65 -40.7 -13.5 -40.75 -13.45 -40.95 -13.4 -40.95 -13.3 -40.95 -13.2 -40.95 -13.15 -41.65 -12.55 -41.65 -12.45 -41.7 -12.4 -42.0 -12.3 -42.15 -12.15 -42.2 -12.05 -43.4 -11.9 -43.45 -12.2 -43.4 -12.4 -42.7 -12.6 Q-42.55 -12.9 -42.2 -13.0 L-42.15 -13.1 -42.15 -13.15 -42.05 -13.2 -41.9 -13.25 -41.65 -13.55 -41.55 -13.65 -41.55 -13.7 -41.55 -13.8 Q-41.15 -14.05 -41.05 -14.45 L-41.05 -14.55 -40.8 -14.75 -40.8 -15.4 -40.9 -15.65 -40.9 -15.7 -41.15 -15.75 -41.25 -16.2 -41.3 -16.4 -41.3 -16.5 -41.25 -16.6 -41.2 -16.65 -41.15 -16.7 -41.0 -16.7 -40.9 -16.7 M-58.65 -0.4 L-58.6 -0.5 -58.5 -0.55 -58.35 -0.55 -55.95 -0.4 Q-55.35 -0.35 -55.3 0.2 L-55.35 0.3 -55.6 0.45 -55.8 0.4 -55.9 0.3 -55.9 0.25 -56.25 0.2 -58.55 0.0 -58.65 -0.1 -58.65 -0.4 M-45.25 -10.95 L-44.85 -10.85 -44.75 -10.8 -44.7 -10.7 -44.75 -10.55 -44.8 -10.45 -45.25 -10.15 -45.4 -10.05 Q-45.45 -9.5 -45.75 -9.1 L-45.95 -8.65 -46.0 -8.65 -46.15 -8.55 -46.15 -8.35 -46.2 -8.1 -46.05 -7.9 -45.95 -7.7 -45.9 -7.25 Q-45.85 -7.05 -45.95 -6.9 L-46.45 -7.0 -46.55 -7.1 -46.55 -7.2 -46.55 -7.3 -46.55 -7.4 -46.65 -7.45 -46.8 -7.65 -46.8 -8.5 -46.7 -9.05 -46.35 -9.45 -46.3 -9.65 -46.25 -9.7 -46.15 -9.8 Q-46.1 -10.35 -45.7 -10.7 L-45.45 -10.9 -45.4 -10.95 -45.25 -10.95 M-29.7 -15.5 L-29.6 -15.4 -29.55 -15.3 -29.55 -15.15 Q-29.85 -14.85 -30.3 -14.75 L-30.35 -14.65 -30.4 -14.6 -31.0 -14.3 -31.05 -13.55 -31.05 -13.05 Q-30.25 -11.45 -29.1 -10.05 L-28.85 -9.75 -28.85 -9.55 -28.9 -9.4 Q-29.85 -9.3 -30.35 -10.35 L-30.65 -11.15 -31.2 -11.8 -31.3 -12.0 -31.5 -12.55 -31.65 -12.75 -31.65 -13.95 -31.65 -14.6 -30.8 -15.2 -30.75 -15.3 -30.75 -15.35 -29.85 -15.55 -29.7 -15.5 M-15.75 7.85 L-15.55 7.9 -14.95 8.45 -14.9 8.55 -14.55 8.65 -14.3 9.1 -14.15 9.3 -13.8 9.4 -12.95 10.35 -12.95 10.4 -13.05 10.6 Q-13.65 10.65 -14.2 10.15 L-14.95 9.3 -14.95 9.25 -15.95 8.65 -16.1 8.25 -16.05 8.0 -15.75 7.85 M-22.35 26.1 Q-22.25 26.25 -22.3 26.45 L-22.3 26.65 -22.1 26.85 -22.0 26.95 -21.9 27.2 -21.8 27.4 -21.6 27.6 -21.55 27.7 -21.55 27.75 -21.65 27.95 -22.3 28.0 Q-22.4 27.6 -22.75 27.35 L-22.95 26.3 -22.85 26.05 -22.75 26.0 -22.6 25.95 -22.45 26.0 -22.35 26.1 M-76.2 11.25 L-76.2 11.15 -76.15 11.05 -76.15 11.0 -76.05 10.95 -75.9 10.95 -74.8 11.75 -74.75 11.85 Q-74.5 12.8 -74.55 13.8 L-74.7 14.45 -75.0 14.55 -75.2 14.5 -75.25 12.9 -75.3 12.35 -75.45 12.25 -75.55 12.15 -75.55 12.05 -75.55 12.0 -75.65 11.95 -75.9 11.9 -76.1 11.55 -76.2 11.25 M-79.25 16.3 L-79.1 16.35 -79.0 16.45 -78.95 16.55 -78.95 16.7 -80.05 18.1 -80.4 18.9 -80.45 19.05 -80.6 19.25 -80.7 19.35 -80.8 20.2 -80.85 20.55 -81.05 20.85 -81.1 20.95 -81.15 21.7 -81.2 22.05 -81.4 22.35 -81.45 22.45 -81.45 23.0 -81.55 23.25 -81.95 23.25 -82.1 22.5 -82.05 22.1 -81.9 21.95 -81.85 21.85 -81.75 21.0 -81.7 20.6 -81.55 20.45 -81.5 20.35 -81.45 20.05 -81.45 19.85 Q-81.25 19.55 -81.3 19.1 L-81.3 18.85 -81.05 18.65 -81.0 18.55 -80.95 18.35 -80.35 17.55 -80.25 17.45 Q-80.05 16.7 -79.4 16.35 L-79.25 16.3 M-76.95 33.05 L-79.95 33.0 -80.05 32.9 -80.05 32.85 -80.4 32.75 Q-80.8 32.1 -81.45 31.85 L-81.55 31.75 -81.55 31.65 -81.9 31.45 Q-82.0 31.15 -82.4 31.1 L-82.5 30.6 -82.45 30.35 -82.15 30.2 -81.95 30.25 -81.5 30.85 -81.4 30.95 -81.25 31.05 -81.05 31.1 -80.45 31.5 -80.25 31.75 -80.05 31.85 -79.95 32.05 -79.95 32.1 -79.65 32.35 -79.6 32.4 -76.9 32.7 -76.9 32.85 -76.95 33.05 M-66.05 58.3 Q-65.8 57.95 -65.3 57.9 L-65.25 57.8 -65.25 57.75 -64.6 57.6 -64.35 57.65 -64.25 57.75 -64.25 58.0 -64.3 58.1 -64.8 58.35 -64.85 58.45 -64.9 58.5 -65.45 58.6 -65.6 58.8 -65.65 58.9 -66.65 59.25 -66.7 59.25 -66.95 59.35 -67.05 59.45 -67.15 59.6 Q-67.8 59.85 -68.3 60.35 L-69.2 60.85 -69.3 60.95 -69.4 61.1 -69.8 61.5 -70.15 61.65 -70.2 61.7 -70.55 61.65 -70.65 61.45 -70.65 61.25 -70.25 60.8 -70.25 60.75 -70.0 60.65 -69.85 60.6 -69.8 60.55 -69.85 60.55 -71.0 60.5 -71.05 60.2 -71.0 60.0 -69.6 59.75 -67.15 58.7 -66.05 58.3 M-80.1 57.15 L-79.8 57.25 -79.75 57.35 -79.7 57.45 -79.7 57.5 -79.6 57.6 -79.4 57.65 -78.05 58.7 -77.95 58.85 -77.65 59.05 -77.0 59.2 -76.8 59.25 -76.75 59.35 -76.7 59.4 -76.1 59.7 -75.95 59.8 -73.25 60.1 -73.2 60.2 -73.25 60.35 -73.3 60.45 -76.3 60.4 -76.35 60.35 -78.05 60.25 -78.15 60.15 -78.15 60.1 -79.05 59.9 -79.15 59.8 -79.15 59.75 -79.8 59.5 -79.9 59.4 -79.9 59.35 -81.0 59.15 -81.05 59.05 -81.05 59.0 -81.9 58.65 Q-82.7 58.6 -83.25 58.1 L-84.35 57.6 -84.4 57.5 -84.45 57.45 -84.8 57.15 -84.9 56.75 -84.95 56.6 -85.05 56.5 -85.15 56.4 -85.15 56.2 -85.15 56.0 -85.5 55.35 -85.55 55.25 -85.55 54.7 -85.5 54.5 -85.4 54.45 -85.25 54.45 -85.1 54.5 -85.0 54.6 Q-84.9 54.7 -84.95 54.85 L-84.95 55.05 -84.55 55.9 -84.55 56.0 -84.4 56.2 -84.3 56.25 -84.25 56.65 -84.2 56.8 -84.1 56.85 -83.9 56.9 -83.85 57.0 -83.8 57.15 Q-83.6 57.2 -83.45 57.35 L-83.4 57.4 Q-82.9 57.4 -82.65 57.75 L-81.5 58.15 -80.65 58.4 -80.6 58.5 -80.55 58.55 -79.5 58.85 -79.55 58.8 -79.55 58.75 -79.6 58.7 -79.8 58.65 -79.85 58.55 -79.9 58.3 -80.35 57.85 -80.55 57.65 -80.6 57.55 -80.65 57.35 -80.6 57.2 -80.5 57.15 -80.35 57.1 -80.1 57.15 M-81.65 24.35 L-81.35 27.45 -81.35 27.6 Q-80.9 28.2 -81.15 28.95 L-81.2 29.0 -81.65 29.0 -81.75 28.45 -81.7 28.25 -81.8 28.15 -81.9 28.05 -82.2 26.55 -82.2 26.45 -82.2 24.6 -82.2 24.4 -82.15 24.3 -82.15 24.25 -82.05 24.2 -81.9 24.2 -81.75 24.25 -81.65 24.35 M-89.2 43.75 L-89.1 43.85 Q-89.05 46.0 -88.0 47.9 L-87.35 49.35 -87.1 49.55 -86.3 50.75 -85.85 51.1 -85.8 51.25 -85.8 51.45 -85.25 51.85 -85.25 52.0 -85.3 52.2 Q-86.0 52.5 -86.4 51.75 L-86.4 51.7 -86.4 51.5 -86.55 51.45 -86.75 51.4 -87.55 50.25 -87.6 50.2 -87.6 50.1 -87.65 50.0 -87.8 49.9 -89.55 45.2 -89.65 44.55 -89.65 43.9 -89.6 43.8 -89.55 43.75 -89.5 43.7 -89.35 43.7 -89.2 43.75 M-84.6 54.0 L-84.45 54.2 -84.45 54.25 -84.5 54.35 -84.55 54.45 -85.0 54.5 -85.25 54.4 -85.3 54.3 -85.35 54.2 -85.4 54.1 -85.95 53.75 -86.05 53.65 -86.1 53.55 -86.1 53.45 -86.15 53.35 Q-87.85 52.05 -89.25 50.35 L-89.3 50.25 -89.5 50.2 -89.75 50.15 -89.8 49.95 -89.75 49.7 -89.65 49.65 -89.5 49.6 Q-88.6 49.9 -87.85 50.8 L-86.65 52.0 -85.65 53.0 -85.5 53.25 -84.8 53.8 -84.75 53.9 -84.6 54.0" fill="#cc0000" fill-rule="evenodd" stroke="none"/>
  </g>
</svg>
