<?xml version="1.0" encoding="UTF-8" standalone="no"?>
<svg xmlns:ffdec="https://www.free-decompiler.com/flash" xmlns:xlink="http://www.w3.org/1999/xlink" ffdec:objectType="shape" height="107.25px" width="140.1px" xmlns="http://www.w3.org/2000/svg">
  <g transform="matrix(1.0, 0.0, 0.0, 1.0, 120.45, 32.25)">
    <path d="M-101.5 24.8 L-96.45 37.7 -88.0 52.5 -112.0 60.2 -118.95 57.15" fill="none" stroke="#000000" stroke-linecap="round" stroke-linejoin="round" stroke-width="3.0"/>
    <path d="M-88.0 51.15 L-88.5 19.75" fill="none" stroke="#000000" stroke-linecap="round" stroke-linejoin="round" stroke-width="3.0"/>
    <path d="M-68.6 6.6 L-80.7 9.1 -88.5 19.75 -103.65 14.4 -100.9 -0.6" fill="none" stroke="#000000" stroke-linecap="round" stroke-linejoin="round" stroke-width="3.0"/>
    <path d="M19.25 -24.25 L19.35 -24.15 19.4 -23.8 19.35 -23.6 18.3 -23.4 18.2 -23.6 18.2 -23.8 Q18.4 -24.05 18.8 -24.1 L18.85 -24.2 18.85 -24.25 18.95 -24.3 19.1 -24.3 19.25 -24.25 M10.0 -3.3 L10.15 -3.25 10.25 -3.3 10.5 -3.25 10.6 -3.15 10.6 -2.9 10.55 -2.8 10.5 -2.75 10.4 -2.65 10.5 -2.6 10.6 -2.5 10.6 -2.3 10.55 -2.15 9.8 -2.1 9.65 -2.55 9.7 -2.7 9.7 -2.85 9.7 -3.0 9.7 -3.15 10.0 -3.3 M16.6 11.75 L16.55 11.55 16.6 11.25 16.7 11.25 16.85 11.2 18.25 11.7 18.45 11.75 18.5 11.85 18.55 11.9 19.6 12.25 19.65 12.35 19.6 12.5 19.55 12.6 18.35 12.55 18.1 12.5 18.05 12.4 18.05 12.35 Q17.35 12.25 16.8 11.85 L16.6 11.75 M-58.5 -31.65 L-58.55 -31.85 -58.5 -32.15 -58.4 -32.15 -58.25 -32.2 Q-57.85 -32.3 -57.65 -32.0 L-57.55 -31.9 Q-56.95 -31.9 -56.55 -31.45 L-56.5 -31.4 -56.45 -31.3 -56.45 -31.2 -56.5 -31.1 Q-56.8 -30.75 -57.15 -31.1 L-57.25 -31.15 Q-57.85 -31.15 -58.3 -31.55 L-58.5 -31.65 M-46.5 -25.45 L-45.65 -25.95 -45.5 -25.95 -44.8 -25.85 -44.75 -25.8 -44.7 -25.7 -44.75 -25.55 -44.8 -25.45 Q-45.6 -25.4 -46.15 -24.8 L-46.35 -24.6 -46.35 -24.5 -46.4 -24.4 -46.4 -24.3 -46.55 -24.2 -46.6 -23.95 -46.7 -23.4 -46.75 -23.4 -47.15 -23.4 -47.25 -24.05 -47.2 -24.65 -46.7 -25.2 -46.5 -25.45 M-72.6 -0.85 Q-72.0 -1.25 -71.8 -1.9 L-70.8 -2.55 -70.65 -2.85 -70.55 -3.0 -68.9 -3.9 -68.85 -4.0 -68.8 -4.15 -68.1 -4.55 -67.95 -4.5 -67.85 -4.4 -67.8 -4.3 -67.8 -4.15 -68.35 -3.5 -68.4 -3.4 Q-68.55 -3.25 -68.8 -3.25 -69.4 -2.8 -70.05 -2.5 -70.35 -1.85 -71.05 -1.75 L-71.8 -0.7 -71.95 -0.6 -72.1 -0.3 -72.25 -0.25 -72.3 -0.05 -72.35 0.05 -72.45 0.15 -72.6 0.2 -72.8 0.15 -72.95 -0.4 -72.9 -0.6 -72.85 -0.7 -72.8 -0.75 -72.75 -0.8 -72.6 -0.85 M-65.35 -7.55 Q-65.65 -7.3 -66.05 -7.25 L-66.15 -7.15 -66.2 -7.05 -66.4 -7.0 -66.45 -6.9 -66.5 -6.8 -66.6 -6.7 -66.8 -6.6 -66.85 -6.55 -67.0 -6.55 -67.25 -6.6 -67.3 -6.7 -67.3 -7.05 -67.3 -7.15 -67.2 -7.25 -66.55 -7.7 -66.5 -7.8 -66.5 -7.85 -64.5 -8.4 -64.35 -8.4 -63.1 -8.3 -63.0 -8.25 -62.95 -8.15 -63.0 -8.0 -63.05 -7.9 -65.25 -7.65 -65.35 -7.55 M-61.75 -8.0 L-61.8 -8.1 -61.8 -8.3 -61.75 -8.5 -61.65 -8.5 -61.5 -8.55 Q-60.0 -8.6 -58.85 -7.7 L-58.8 -7.65 -58.2 -7.45 -58.1 -7.4 -58.05 -7.3 -58.1 -7.15 -58.15 -7.05 -59.3 -7.1 -59.4 -7.2 -59.4 -7.3 -59.4 -7.4 -59.5 -7.45 -59.8 -7.6 -61.15 -7.9 -61.75 -8.0 M-41.3 -12.9 L-41.25 -13.05 -40.7 -13.25 -40.65 -13.3 -40.55 -13.4 Q-39.45 -13.7 -38.65 -14.5 L-38.4 -14.6 -38.2 -14.9 -38.05 -15.0 -38.05 -15.05 -38.05 -15.15 -37.75 -15.3 -37.6 -15.25 -37.5 -15.15 -37.45 -14.9 -37.45 -14.7 -38.3 -13.75 -39.45 -13.0 -39.75 -12.9 -39.85 -12.8 -40.1 -12.75 -40.15 -12.65 -40.2 -12.6 Q-40.7 -12.4 -41.2 -12.6 L-41.3 -12.9 M-59.85 -0.15 L-59.6 -0.1 -59.5 0.0 -59.45 0.2 -59.5 0.25 Q-59.9 0.75 -60.55 0.85 L-60.6 0.95 -60.65 1.0 -61.55 1.0 -61.65 0.7 -61.6 0.5 Q-61.25 0.45 -61.0 0.2 L-60.2 0.0 -60.1 -0.05 -59.85 -0.15 M-47.35 -10.3 L-47.25 -10.25 Q-47.15 -9.85 -47.5 -9.5 L-47.6 -9.4 -47.7 -8.85 -47.7 -8.55 Q-46.7 -7.9 -46.8 -6.9 L-47.2 -6.85 -47.3 -7.05 -47.35 -7.25 -48.3 -8.15 -48.2 -9.65 -48.0 -9.95 -47.95 -10.15 -47.9 -10.3 -47.8 -10.35 -47.65 -10.4 -47.35 -10.3 M-30.3 -17.55 L-30.35 -17.4 -30.4 -17.3 -32.05 -17.25 -32.1 -17.35 -32.15 -17.65 -32.1 -17.75 -32.0 -17.75 -31.85 -17.8 -30.4 -17.7 -30.35 -17.65 -30.3 -17.55 M-32.75 -16.9 L-32.55 -14.95 -32.55 -14.75 -32.4 -14.55 -32.3 -14.5 -32.25 -13.75 -32.2 -13.55 -32.35 -13.4 -32.5 -13.3 -32.75 -13.35 -32.85 -13.55 -32.9 -13.65 -32.9 -13.9 -32.9 -14.1 -33.0 -14.2 -33.1 -14.3 -33.3 -16.75 -33.3 -16.9 -33.0 -17.05 -32.85 -17.0 -32.75 -16.9 M-13.85 8.0 L-13.75 8.1 -13.75 10.45 -13.8 10.6 -14.2 10.65 -14.3 8.2 -14.25 8.0 -14.15 7.95 -14.0 7.95 -13.85 8.0 M-20.9 34.75 L-20.75 35.15 -20.7 35.3 -20.7 35.4 -20.55 35.6 -20.4 35.75 -20.1 35.95 -20.05 36.15 -20.1 36.5 -20.2 36.55 -20.35 36.65 -20.55 36.6 -20.85 36.3 -21.05 36.1 -21.15 35.95 -21.3 35.85 -21.45 35.7 -21.75 35.45 -21.8 35.3 -21.8 35.1 -21.5 34.95 -21.4 34.95 -21.4 34.85 -21.1 34.7 -20.9 34.75 M-73.6 2.5 L-73.5 2.6 Q-73.45 3.05 -73.55 3.5 L-73.55 3.7 -73.75 4.0 -73.8 4.1 -73.8 4.25 -73.9 4.45 -74.5 4.5 -74.55 4.3 -74.55 4.1 -74.5 4.05 -74.4 3.95 -74.4 3.85 -74.4 3.75 -74.25 3.55 -74.15 3.45 -74.1 2.7 -74.0 2.5 -73.9 2.45 -73.75 2.45 -73.6 2.5 M-72.55 69.85 L-72.55 69.95 -72.55 70.0 -74.05 71.55 -74.3 72.0 -74.45 72.1 -74.45 72.2 -74.5 72.25 Q-74.95 73.1 -75.75 73.15 L-75.8 72.95 -75.8 72.75 -75.75 72.7 -75.8 72.55 -75.8 72.35 -75.75 72.3 -75.6 72.2 -75.55 72.1 -75.55 72.0 -73.3 69.75 -73.0 69.6 -72.7 69.7 -72.6 69.75 -72.55 69.85 M-69.15 66.15 L-69.0 66.25 -68.9 66.3 Q-68.85 66.8 -69.1 67.25 L-69.15 67.35 -69.25 68.2 -69.3 68.35 -69.7 68.35 -69.8 67.3 -69.8 67.15 -69.7 66.95 -69.6 66.85 -69.55 66.65 -69.55 66.45 -69.45 66.3 -69.4 66.2 -69.3 66.2 -69.15 66.15 M-80.5 75.0 L-85.45 74.9 -85.65 74.75 -85.75 74.7 -86.0 74.65 -86.05 74.55 -86.0 74.2 -85.9 74.15 -85.75 74.1 -85.15 74.2 -85.05 74.3 -80.3 74.55 -80.25 74.6 -80.2 74.7 -80.25 74.85 -80.3 74.95 -80.5 75.0 M-86.9 10.45 L-85.0 10.7 -84.8 10.75 -84.55 11.05 -84.0 11.5 -83.95 11.6 -84.0 11.75 -84.05 11.85 -84.4 11.9 -85.2 11.5 -85.3 11.4 -85.3 11.35 -86.25 11.15 -87.15 11.0 -87.2 10.9 -87.2 10.7 -87.2 10.6 -87.15 10.5 -87.05 10.5 -86.9 10.45 M-91.25 15.55 L-91.1 15.6 -91.0 15.7 -90.85 19.25 -90.85 19.45 Q-90.65 19.65 -90.7 19.9 L-90.7 20.1 -90.55 20.3 -90.45 20.35 -90.45 20.45 -90.45 20.55 -90.1 21.05 -90.1 21.1 -89.75 21.4 -88.95 22.7 -88.75 22.85 -88.65 22.95 -88.65 23.1 -88.7 23.3 Q-89.2 23.6 -89.55 23.15 L-89.55 23.05 -89.55 22.95 -90.2 22.1 -90.25 22.05 -90.25 21.95 -91.05 20.9 -91.05 20.8 -91.05 20.7 -91.25 20.5 -91.3 20.45 -91.4 19.9 -91.45 19.7 -91.55 15.95 -91.55 15.75 -91.5 15.65 -91.45 15.6 -91.4 15.55 -91.25 15.55 M-86.25 36.85 Q-85.95 36.5 -85.5 36.45 L-82.7 34.75 -82.65 34.7 -82.5 34.7 -82.35 34.75 -82.25 34.85 -82.2 34.95 -82.2 35.1 Q-83.45 36.25 -84.95 36.85 -85.25 37.2 -85.65 37.2 -86.25 37.9 -87.2 37.5 L-87.3 37.2 -87.25 37.05 -86.25 36.85 M-100.8 62.45 L-104.75 62.6 -104.8 62.5 -104.8 62.25 -104.75 62.15 -104.65 62.1 -103.25 61.9 -100.8 62.0 -100.75 62.05 -100.7 62.15 -100.75 62.35 -100.8 62.45 M-85.35 65.65 L-85.55 65.7 Q-85.75 66.2 -86.3 66.4 L-86.85 66.75 -89.0 66.7 -89.05 66.65 -89.05 66.55 -89.1 66.55 -89.3 66.45 -89.35 66.35 -89.4 66.2 Q-90.1 66.1 -90.4 65.45 L-90.4 64.7 -90.35 64.5 -90.25 64.45 -90.1 64.4 -89.95 64.5 -89.85 64.55 -89.8 64.85 -89.8 65.05 -89.55 65.4 -89.55 65.45 Q-89.05 65.45 -88.9 65.9 L-88.6 66.05 -86.9 66.1 -86.0 65.1 -85.25 65.05 -85.25 65.45 -85.3 65.6 -85.35 65.65 M-102.95 55.6 L-102.7 55.7 -102.6 55.8 -102.6 55.95 -102.65 56.15 -103.5 56.2 Q-106.25 54.1 -108.3 51.3 L-108.3 51.05 -108.3 50.85 -108.25 50.75 -108.25 50.7 -108.15 50.65 -108.0 50.65 -107.85 50.7 -107.75 50.8 -105.9 53.2 -105.25 53.85 -103.05 55.45 -103.0 55.55 -102.95 55.6" fill="#cc0000" fill-rule="evenodd" stroke="none"/>
  </g>
</svg>
