<?xml version="1.0" encoding="UTF-8" standalone="no"?>
<svg xmlns:ffdec="https://www.free-decompiler.com/flash" xmlns:xlink="http://www.w3.org/1999/xlink" ffdec:objectType="shape" height="125.1px" width="169.95px" xmlns="http://www.w3.org/2000/svg">
  <g transform="matrix(1.0, 0.0, 0.0, 1.0, 143.8, 34.8)">
    <path d="M-128.5 54.9 L-115.3 61.6 -97.35 66.2 -116.95 83.05 -125.6 88.8" fill="none" stroke="#000000" stroke-linecap="round" stroke-linejoin="round" stroke-width="3.0"/>
    <path d="M-98.3 66.05 L-115.9 39.55" fill="none" stroke="#000000" stroke-linecap="round" stroke-linejoin="round" stroke-width="3.0"/>
    <path d="M-116.7 13.95 L-122.2 25.45 -115.9 39.55 -131.35 45.75 -142.3 34.5" fill="none" stroke="#000000" stroke-linecap="round" stroke-linejoin="round" stroke-width="3.0"/>
    <path d="M13.5 -4.55 L13.7 -4.5 Q13.85 -4.25 14.1 -4.15 L14.3 -4.1 14.5 -3.7 14.55 -3.55 Q14.3 -3.15 13.85 -3.35 L13.3 -3.75 Q13.15 -3.9 13.15 -4.15 L13.2 -4.4 13.5 -4.55 M26.05 -24.2 L25.05 -24.15 24.95 -24.25 24.95 -24.55 25.0 -24.65 25.1 -24.65 25.25 -24.7 26.0 -24.6 26.1 -24.55 26.15 -24.45 26.1 -24.3 26.05 -24.2 M23.1 13.8 L24.25 14.45 24.35 14.85 24.2 15.1 23.8 15.15 23.7 15.05 23.7 14.95 23.65 14.85 22.6 14.4 22.55 14.3 22.55 14.2 22.5 14.1 22.45 14.05 22.3 14.0 22.15 13.8 22.05 13.6 22.05 13.5 22.05 13.45 22.05 13.35 22.35 13.2 22.5 13.2 22.7 13.25 23.0 13.65 23.1 13.8 M-47.15 -28.75 L-46.9 -28.85 -46.8 -28.95 -46.65 -28.95 -46.5 -28.9 -46.4 -28.8 -46.35 -28.6 -46.35 -28.45 -46.5 -28.25 -46.65 -28.15 -46.7 -27.2 -46.8 -26.95 -47.2 -26.9 -47.25 -28.5 -47.15 -28.75 M-64.8 -33.95 L-66.3 -34.0 -66.45 -34.2 -66.55 -34.4 -66.55 -34.45 -66.55 -34.55 -66.55 -34.65 -66.25 -34.8 -66.1 -34.8 -65.9 -34.75 -65.85 -34.65 -65.8 -34.6 Q-65.15 -34.8 -64.75 -34.4 L-64.7 -34.15 -64.75 -34.05 -64.8 -33.95 M-73.45 -1.0 L-73.3 -2.1 -73.25 -2.25 -73.15 -2.3 -73.0 -2.3 -72.85 -2.25 -72.75 -2.15 Q-72.65 -1.35 -72.95 -0.6 L-73.0 -0.5 -73.05 -0.4 -73.05 -0.2 -73.25 0.1 -73.3 0.15 -73.75 0.15 Q-73.95 -0.4 -73.55 -0.9 L-73.45 -1.0 M-61.2 -9.4 L-61.25 -9.25 -61.3 -9.15 -61.5 -9.1 -63.6 -8.95 -63.85 -8.9 -63.95 -8.8 -64.1 -8.8 -64.75 -8.85 -64.8 -8.95 -64.8 -9.2 -64.75 -9.3 -64.65 -9.35 -63.6 -9.65 -61.3 -9.55 -61.25 -9.5 -61.2 -9.4 M-68.4 -7.1 L-68.3 -7.3 -68.2 -7.4 -67.7 -8.4 -67.65 -8.5 -67.35 -8.65 -67.2 -8.6 -67.1 -8.5 Q-67.1 -8.1 -67.25 -7.65 L-67.3 -7.5 -67.35 -7.5 -67.5 -7.4 -67.7 -6.95 -67.8 -6.85 Q-67.75 -6.65 -67.85 -6.5 L-67.95 -6.3 Q-67.95 -5.9 -68.2 -5.6 L-68.3 -5.55 -68.75 -5.5 -68.85 -5.8 -68.8 -6.0 -68.65 -6.15 -68.6 -6.25 -68.6 -6.45 -68.55 -6.65 -68.5 -6.7 -68.4 -6.8 -68.4 -6.9 -68.4 -7.1 M-49.1 -7.85 L-48.25 -7.5 -48.25 -7.3 -48.3 -7.15 -49.45 -7.25 Q-49.9 -7.85 -49.8 -8.55 L-49.8 -8.75 -49.5 -8.9 -49.35 -8.85 -49.25 -8.75 -49.1 -8.0 -49.1 -7.85 M-30.3 -19.9 L-30.35 -19.7 -30.4 -19.6 -30.6 -19.55 Q-31.05 -19.65 -31.4 -19.9 L-31.8 -20.0 -31.9 -20.4 -31.85 -20.55 -31.6 -20.65 -30.35 -19.95 -30.3 -19.9 M-33.5 -20.3 L-33.35 -20.25 -33.25 -20.15 Q-33.2 -19.2 -33.6 -18.25 L-33.7 -17.8 Q-33.65 -17.6 -33.75 -17.45 L-33.85 -17.35 -34.0 -17.3 -34.25 -17.35 -34.2 -18.85 -34.15 -19.15 -34.0 -19.3 -33.95 -19.4 -33.85 -20.0 -33.8 -20.15 -33.5 -20.3 M-39.15 -13.8 L-35.2 -13.7 -35.15 -13.65 -35.1 -13.55 -35.15 -13.4 -35.2 -13.3 -35.4 -13.25 -39.4 -13.25 -39.45 -13.35 -39.45 -13.65 -39.4 -13.75 -39.3 -13.75 -39.15 -13.8 M-12.5 8.25 L-12.7 9.15 -12.8 9.35 -13.65 9.5 -13.7 9.3 -13.7 9.1 -13.35 8.85 -13.25 8.55 -13.2 8.35 Q-13.05 8.1 -12.75 8.1 L-12.6 8.15 -12.5 8.25 M-13.7 10.75 Q-14.05 11.2 -14.65 11.0 L-14.7 10.7 -14.65 10.5 -14.0 10.35 -13.85 10.4 -13.75 10.5 -13.7 10.6 -13.7 10.75 M-20.8 43.95 L-20.8 43.85 -20.8 43.7 -20.5 43.55 Q-19.65 43.95 -19.7 44.9 L-19.75 45.0 -19.85 45.05 -20.0 45.15 -20.25 45.1 -20.35 44.8 -20.3 44.6 -20.7 44.15 -20.8 43.95 M-62.6 1.25 L-62.5 1.35 Q-62.4 1.45 -62.45 1.6 L-62.5 1.8 -62.8 2.0 -62.85 2.1 -62.9 2.15 -63.75 2.25 -63.8 2.05 -63.8 1.85 -63.4 1.6 -63.4 1.5 -63.3 1.4 -62.9 1.2 -62.75 1.2 -62.6 1.25 M-73.6 1.0 L-73.5 1.1 -73.35 3.35 -73.3 3.45 -73.3 3.5 -73.4 3.7 -74.0 3.75 Q-74.35 2.5 -74.1 1.2 L-74.0 1.0 -73.9 0.95 -73.75 0.95 -73.6 1.0 M-76.45 6.85 L-76.4 7.0 -76.2 7.15 -76.1 7.25 -76.1 7.45 -76.15 7.6 -76.8 7.65 -77.05 7.0 -77.05 6.8 -77.0 6.7 -77.0 6.65 -76.9 6.6 -76.75 6.6 -76.55 6.65 -76.45 6.85 M-68.4 71.8 L-68.25 71.85 -68.15 71.95 -68.15 72.3 -68.15 72.4 -67.65 72.7 -67.65 72.95 -67.7 73.05 -68.45 73.1 -68.95 72.5 -69.05 72.35 -69.05 72.25 -69.0 72.15 -68.95 72.1 -68.9 72.1 -68.75 72.05 -68.7 72.05 -68.7 72.0 -68.65 71.9 -68.65 71.85 -68.55 71.8 -68.4 71.8 M-75.7 76.5 L-75.6 76.55 Q-75.4 77.05 -75.75 77.5 L-75.8 77.6 -76.35 77.8 -76.55 77.7 -76.65 77.45 -76.65 77.25 -76.6 77.15 -76.5 77.05 -76.3 77.0 -76.15 76.65 -76.05 76.45 -76.0 76.45 -75.85 76.4 -75.7 76.5 M-80.7 81.25 L-80.6 81.3 -80.55 81.4 -80.55 81.6 -81.2 81.95 -81.25 82.05 -81.3 82.1 -81.75 82.1 -81.8 81.65 -81.8 81.45 -80.85 81.15 -80.7 81.25 M-96.25 12.05 L-96.15 12.1 -96.1 12.2 -96.15 12.35 -96.2 12.45 -96.25 12.5 -96.5 12.6 -96.9 12.85 -97.2 13.0 -97.2 13.1 -97.2 13.2 -97.25 13.3 -98.1 13.95 -98.9 13.9 -98.95 13.8 -98.95 13.55 -98.9 13.45 -97.95 12.9 -97.8 12.8 -97.75 12.7 -97.7 12.6 -97.35 12.3 -97.2 12.15 -97.0 12.05 -96.9 11.95 -96.75 11.95 -96.25 12.05 M-101.2 22.75 L-100.3 23.25 -100.25 23.35 -100.2 23.4 -99.15 23.7 -99.1 23.8 -99.15 23.95 -99.2 24.05 -100.65 24.0 -100.7 23.9 -100.7 23.85 Q-101.25 23.45 -101.9 23.25 L-101.95 23.15 -102.15 22.95 -102.2 22.85 -102.2 22.7 -102.3 22.6 -102.45 22.5 -103.4 21.85 Q-104.4 20.95 -104.7 19.75 L-104.7 19.5 -104.65 19.4 -104.65 19.35 -104.55 19.3 -104.4 19.3 -104.25 19.35 -104.15 19.45 -104.1 19.65 -104.1 19.8 -103.9 20.2 -103.9 20.3 -102.05 22.0 -101.8 22.1 -101.75 22.2 -101.75 22.25 -101.7 22.25 Q-101.4 22.25 -101.25 22.45 -101.15 22.55 -101.2 22.7 L-101.2 22.75 M-91.65 38.95 L-91.45 39.0 Q-90.7 40.35 -89.55 41.25 -89.25 41.95 -89.3 42.75 L-89.45 43.2 -89.9 43.25 -90.0 42.2 -90.05 41.85 -91.95 39.6 -91.95 39.2 -91.9 39.05 -91.8 39.0 -91.65 38.95 M-86.75 67.8 Q-86.65 68.0 -86.7 68.2 L-86.75 68.4 -88.85 69.25 -90.55 69.45 -90.65 69.2 -90.6 69.0 -88.85 68.85 -87.25 67.7 -87.0 67.7 -87.0 67.65 -86.85 67.75 -86.75 67.8 M-120.5 56.35 L-120.05 56.4 -116.45 56.4 -115.55 56.1 -115.0 55.9 -114.4 56.0 -114.35 56.05 -114.3 56.15 -114.35 56.3 -114.4 56.4 Q-117.55 57.9 -121.0 56.8 L-121.1 56.75 -121.3 56.7 -121.35 56.6 -121.4 56.25 -121.35 56.15 Q-120.95 55.95 -120.55 56.3 L-120.5 56.35 M-111.9 67.3 L-111.9 67.1 -111.45 66.8 -111.4 66.5 -111.4 66.3 -111.3 66.25 -111.15 66.15 -111.1 66.05 -111.05 65.85 Q-110.65 65.45 -110.65 64.9 L-110.65 64.8 -110.55 64.75 -110.4 64.65 -110.35 64.45 -110.25 64.25 -110.15 64.2 -110.0 64.15 -109.85 64.25 -109.75 64.3 Q-109.6 64.7 -109.9 65.05 L-110.0 65.15 -110.65 66.55 -110.75 66.65 Q-110.9 67.65 -111.8 67.45 L-111.9 67.3" fill="#cc0000" fill-rule="evenodd" stroke="none"/>
  </g>
</svg>
