<?xml version="1.0" encoding="UTF-8" standalone="no"?>
<svg xmlns:ffdec="https://www.free-decompiler.com/flash" xmlns:xlink="http://www.w3.org/1999/xlink" ffdec:objectType="shape" height="148.55px" width="187.5px" xmlns="http://www.w3.org/2000/svg">
  <g transform="matrix(1.0, 0.0, 0.0, 1.0, 155.7, 35.7)">
    <path d="M-129.85 93.55 L-113.95 88.5 -97.85 81.45 -99.8 96.95 -96.95 111.35" fill="none" stroke="#000000" stroke-linecap="round" stroke-linejoin="round" stroke-width="3.0"/>
    <path d="M-98.0 82.05 L-129.7 74.2" fill="none" stroke="#000000" stroke-linecap="round" stroke-linejoin="round" stroke-width="3.0"/>
    <path d="M-143.85 51.3 L-142.55 64.6 -129.7 74.2 -137.35 87.7 -154.2 90.6" fill="none" stroke="#000000" stroke-linecap="round" stroke-linejoin="round" stroke-width="3.0"/>
    <path d="M16.9 -4.95 L17.0 -4.9 17.05 -4.8 17.0 -4.65 16.95 -4.55 16.3 -4.5 16.2 -4.7 16.25 -5.0 16.35 -5.0 16.5 -5.05 16.9 -4.95 M31.7 -23.8 L30.6 -23.75 30.5 -24.05 30.55 -24.3 30.55 -24.4 30.85 -24.55 31.05 -24.5 31.1 -24.4 31.15 -24.35 31.75 -24.15 31.75 -23.9 31.7 -23.8 M25.5 16.1 Q26.0 16.1 26.3 16.5 L26.35 16.6 26.4 16.8 26.3 17.15 25.75 17.15 25.55 16.8 25.5 16.75 25.3 16.65 25.2 16.45 Q25.15 16.3 25.25 16.2 L25.35 16.15 25.5 16.1 M-47.4 -32.05 L-47.25 -32.0 -47.15 -31.9 Q-47.05 -31.35 -47.1 -30.8 L-47.15 -30.6 -47.25 -30.5 -47.4 -30.45 -47.65 -30.5 -47.7 -31.7 -47.7 -31.9 -47.4 -32.05 M-72.65 -35.2 L-74.3 -35.15 -74.35 -35.25 -74.4 -35.55 -74.35 -35.65 -74.25 -35.65 -74.1 -35.7 -72.65 -35.6 -72.6 -35.55 -72.55 -35.45 -72.6 -35.3 -72.65 -35.2 M-76.6 -0.55 L-76.45 -0.5 -76.35 -0.4 -76.3 0.25 -76.3 0.45 Q-76.05 0.75 -75.95 1.2 L-75.95 1.25 -76.0 1.35 -76.05 1.45 -76.5 1.5 -76.85 0.85 -76.9 0.75 -76.9 -0.3 -76.85 -0.5 -76.75 -0.55 -76.6 -0.55 M-65.7 -9.55 Q-66.2 -9.5 -66.4 -9.0 L-66.8 -8.8 -66.85 -8.75 -66.9 -8.65 -67.6 -8.05 -68.0 -8.1 -68.05 -8.5 -68.05 -8.65 -67.35 -9.15 -67.3 -9.2 -67.25 -9.3 -66.9 -9.5 -66.6 -9.9 -66.55 -9.95 -66.5 -10.05 Q-66.05 -10.15 -65.8 -10.5 L-65.6 -10.55 -65.35 -10.5 -65.25 -10.4 Q-65.15 -10.2 -65.3 -9.95 L-65.35 -9.85 -65.65 -9.6 -65.7 -9.55 M-69.35 -7.9 L-69.3 -6.6 -69.3 -6.4 -68.8 -5.85 -68.85 -5.65 -68.9 -5.5 Q-70.2 -5.7 -69.95 -7.2 L-69.9 -7.85 -69.85 -7.95 -69.8 -8.0 -69.75 -8.05 -69.6 -8.05 -69.45 -8.0 -69.35 -7.9 M-50.65 -8.05 L-50.5 -8.05 -50.35 -8.0 -50.25 -7.9 Q-50.05 -7.6 -49.55 -7.55 L-49.5 -7.5 -49.5 -7.3 -49.55 -7.15 -50.65 -7.1 -50.8 -7.45 -50.8 -7.75 -50.8 -7.85 -50.75 -7.95 -50.7 -8.0 -50.65 -8.05 M-30.25 -21.85 L-30.25 -21.65 -30.3 -21.5 -31.05 -21.6 -31.2 -21.8 -31.3 -22.0 -31.3 -22.15 -31.3 -22.35 -31.25 -22.45 -31.25 -22.5 -31.15 -22.55 -31.0 -22.55 -30.25 -21.95 -30.25 -21.85 M-33.85 -21.9 L-33.7 -21.85 -33.6 -21.75 Q-33.45 -21.35 -33.85 -21.0 L-34.0 -20.9 -34.05 -20.75 -34.15 -20.55 -34.75 -20.5 -34.8 -20.7 -34.8 -20.9 -34.75 -20.95 -34.65 -21.05 -34.6 -21.15 -34.55 -21.35 -34.0 -21.9 -33.85 -21.9 M-38.05 -13.4 L-38.05 -13.5 -38.05 -13.65 -37.75 -13.8 -37.05 -13.4 -37.0 -13.35 -35.85 -12.75 -35.75 -12.65 -34.85 -12.35 Q-34.3 -12.35 -34.1 -11.9 L-34.15 -11.7 -34.2 -11.6 -34.4 -11.55 -35.2 -11.75 -35.3 -11.85 -35.3 -11.9 Q-36.7 -12.3 -37.9 -13.1 L-38.0 -13.3 -38.05 -13.4 M-15.2 10.2 L-15.15 10.0 -15.05 9.95 -14.9 9.95 -14.75 10.0 -14.65 10.1 -14.6 10.2 -14.6 10.35 Q-14.4 10.6 -14.45 10.9 L-14.55 11.1 -14.95 11.15 -15.15 10.85 -15.2 10.75 -15.2 10.2 M-11.6 8.5 L-11.5 8.6 -11.5 8.75 -11.55 8.95 -11.6 9.0 -11.85 9.1 -11.95 9.2 -12.05 9.35 -12.45 9.4 Q-12.75 8.8 -12.1 8.5 L-11.9 8.45 -11.6 8.5 M-64.45 2.5 L-64.35 2.6 Q-64.25 2.9 -64.45 3.25 L-64.55 3.4 -65.0 3.4 Q-65.2 3.0 -64.95 2.65 L-64.8 2.5 -64.75 2.45 -64.6 2.45 -64.45 2.5 M-75.3 3.75 L-74.5 4.6 -74.5 5.1 -74.55 5.25 Q-74.95 5.45 -75.05 5.05 L-75.1 5.0 -75.3 4.9 -75.4 4.7 -75.55 4.55 -75.75 4.5 -75.9 3.85 -75.9 3.55 -75.85 3.45 -75.75 3.35 -75.6 3.35 -75.45 3.4 -75.35 3.5 -75.3 3.6 -75.3 3.75 M-78.35 9.4 L-78.25 9.5 -78.25 9.75 -78.3 9.85 -78.8 9.9 -78.9 9.6 -78.85 9.45 -78.6 9.35 -78.35 9.4 M-66.45 75.5 L-66.45 75.6 -66.5 75.8 -66.55 75.85 -67.65 75.8 -67.9 75.7 -67.95 75.6 -67.95 75.35 -67.9 75.25 -67.8 75.2 -67.65 75.2 -67.65 75.15 Q-66.95 74.95 -66.5 75.4 L-66.45 75.5 M-76.35 83.4 L-75.95 83.5 -75.85 83.55 -75.8 83.65 -75.85 83.85 -75.9 83.95 Q-76.2 84.15 -76.55 83.95 L-76.65 83.8 -76.6 83.5 -76.5 83.45 -76.35 83.45 -76.35 83.4 M-18.85 52.35 Q-18.7 52.6 -18.95 52.8 L-19.05 53.0 -19.65 53.25 -19.7 53.3 -20.25 53.25 -20.3 53.05 -20.3 52.85 -19.5 52.3 -19.4 52.25 -19.25 52.2 -18.95 52.3 -18.85 52.35 M-115.45 24.45 L-115.4 24.3 -115.3 24.25 -115.15 24.2 Q-114.75 24.35 -114.4 24.65 L-114.2 24.75 -114.15 24.85 -114.1 24.95 -114.05 25.0 -113.9 25.05 -113.7 25.1 -113.05 25.5 -113.0 25.6 -112.95 25.65 -111.9 25.75 -110.75 25.9 -110.65 25.95 -110.6 26.05 -110.65 26.2 -110.7 26.3 -112.35 26.4 -113.4 26.25 -113.45 26.15 -113.45 26.1 -113.95 25.95 -114.15 25.85 -114.2 25.75 -114.2 25.7 -115.35 24.75 -115.45 24.65 -115.45 24.45 M-107.0 14.75 L-106.9 14.85 -106.95 15.6 -106.95 15.75 -107.05 15.85 -107.15 15.95 -107.25 16.5 -107.35 16.7 -107.4 17.25 -107.45 17.45 -107.9 17.5 -108.0 16.55 -107.95 16.35 -107.9 16.3 -107.8 16.2 -107.8 15.8 -107.8 15.6 -107.75 15.55 -107.6 15.45 -107.5 14.95 -107.4 14.75 -107.3 14.7 -107.15 14.7 -107.0 14.75 M-96.45 47.1 L-96.45 47.2 -96.55 47.35 -97.45 47.35 -97.55 47.05 -97.5 46.85 Q-96.85 46.55 -96.3 46.1 L-96.0 45.95 Q-95.55 45.25 -94.65 45.2 L-94.5 45.25 -94.4 45.35 -94.35 45.45 -94.4 45.6 Q-94.75 46.05 -95.3 46.1 L-95.4 46.3 -95.5 46.5 Q-95.75 46.75 -96.15 46.7 L-96.35 47.0 -96.45 47.1 M-127.45 58.2 L-127.35 58.3 Q-127.25 59.75 -128.35 60.9 L-129.4 61.95 Q-129.65 62.15 -130.0 61.95 L-130.05 61.8 -130.05 61.6 Q-128.2 60.35 -127.85 58.2 L-127.75 58.15 -127.6 58.15 -127.45 58.2 M-86.6 68.45 Q-86.35 69.55 -87.05 70.5 L-87.15 70.7 -87.75 70.9 -88.0 70.85 -88.1 70.55 -88.05 70.4 -88.0 70.3 -88.0 70.2 Q-87.15 69.85 -87.15 68.9 L-87.25 68.8 -87.3 68.7 -87.3 68.65 -87.3 68.55 -87.3 68.45 -87.0 68.3 -86.7 68.4 -86.6 68.45 M-90.0 70.1 L-89.75 70.05 -89.15 70.15 -89.1 70.2 -89.05 70.3 -89.1 70.45 -89.15 70.55 -89.2 70.6 -89.65 70.7 -89.85 70.8 -90.25 70.85 -90.3 70.75 -90.3 70.55 -90.3 70.45 -90.25 70.4 -90.0 70.1 M-118.2 70.0 L-118.1 70.05 -117.3 72.6 -117.3 72.8 -117.1 73.1 -117.05 73.15 -117.05 73.6 -117.15 73.8 -117.55 73.85 -117.65 73.65 -117.65 73.45 -117.85 73.3 -117.9 73.2 -118.6 70.2 -118.6 70.0 -118.5 69.95 -118.35 69.9 -118.2 70.0" fill="#cc0000" fill-rule="evenodd" stroke="none"/>
  </g>
</svg>
