<?xml version="1.0" encoding="UTF-8" standalone="no"?>
<svg xmlns:ffdec="https://www.free-decompiler.com/flash" xmlns:xlink="http://www.w3.org/1999/xlink" ffdec:objectType="shape" height="161.4px" width="188.8px" xmlns="http://www.w3.org/2000/svg">
  <g transform="matrix(1.0, 0.0, 0.0, 1.0, 152.75, 35.8)">
    <path d="M-115.55 110.7 L-105.45 99.1 -97.65 87.3 -90.45 101.75 -80.3 110.1" fill="none" stroke="#000000" stroke-linecap="round" stroke-linejoin="round" stroke-width="3.0"/>
    <path d="M-98.85 87.7 L-131.05 99.1" fill="none" stroke="#000000" stroke-linecap="round" stroke-linejoin="round" stroke-width="3.0"/>
    <path d="M-151.25 79.85 L-146.05 93.8 -131.05 99.1 -129.1 114.9 -141.95 124.1" fill="none" stroke="#000000" stroke-linecap="round" stroke-linejoin="round" stroke-width="3.0"/>
    <path d="M18.2 -5.55 L18.35 -5.55 18.5 -5.5 18.6 -5.4 18.6 -5.25 18.55 -5.05 18.1 -5.0 18.05 -5.3 18.1 -5.5 18.2 -5.55 M35.95 -21.4 L35.1 -21.5 35.0 -21.9 35.05 -22.15 35.35 -22.3 35.55 -22.25 36.0 -21.75 36.05 -21.7 36.0 -21.5 35.95 -21.4 M27.75 18.0 L27.85 18.1 27.85 18.75 27.8 18.9 27.35 18.9 27.25 18.35 27.3 18.25 27.3 18.2 27.3 18.1 27.35 18.0 27.45 17.95 27.6 17.95 27.75 18.0 M-48.3 -33.55 L-48.25 -33.7 -48.0 -33.8 -47.5 -33.65 -47.4 -33.55 -47.35 -33.2 -47.4 -33.0 -47.65 -32.85 -47.9 -32.9 -47.95 -33.0 -47.95 -33.05 -48.2 -33.15 -48.3 -33.55 M-80.1 -35.8 L-79.95 -35.75 -79.85 -35.65 -79.8 -35.3 -79.85 -35.1 -80.55 -35.0 -80.65 -35.2 -80.65 -35.4 -80.3 -35.75 -80.1 -35.8 M-72.15 -6.7 L-72.1 -6.8 -72.05 -6.85 -72.0 -6.85 -71.85 -6.9 -71.55 -6.85 -71.3 -6.75 -71.0 -6.4 -70.8 -6.35 -70.75 -6.25 -70.7 -6.2 -70.45 -6.1 -70.35 -6.0 -70.35 -5.8 -70.4 -5.65 -71.25 -5.6 -71.3 -5.7 -71.3 -5.75 -72.1 -6.45 -72.15 -6.6 -72.15 -6.7 M-68.0 -10.0 L-68.6 -9.35 -68.7 -9.25 -68.7 -8.55 -68.8 -8.3 -69.25 -8.25 -69.35 -9.2 -69.3 -9.65 -68.85 -10.25 -68.25 -10.4 -68.1 -10.35 -68.0 -10.25 -67.95 -10.15 -68.0 -10.0 M-52.35 -7.05 L-52.45 -7.25 -52.45 -7.3 -52.45 -7.4 -52.45 -7.5 -52.15 -7.65 -52.0 -7.65 -51.8 -7.6 -51.75 -7.5 -51.7 -7.45 Q-51.4 -7.45 -51.25 -7.25 L-51.25 -7.05 -51.3 -6.9 -52.2 -6.85 -52.35 -7.05 M-30.25 -23.9 L-30.25 -23.25 -30.3 -23.1 -30.75 -23.1 -30.85 -23.65 -30.8 -23.85 -30.75 -23.95 -30.75 -24.0 -30.65 -24.05 -30.5 -24.05 -30.35 -24.0 -30.25 -23.9 M-34.9 -22.75 L-34.8 -22.85 Q-34.7 -22.95 -34.55 -23.0 L-34.5 -23.05 -34.35 -23.05 -34.1 -23.0 -34.0 -22.9 Q-33.85 -22.65 -34.1 -22.45 L-34.15 -22.35 -34.55 -22.1 -35.0 -22.1 -35.05 -22.3 -35.05 -22.5 -34.9 -22.75 M-34.6 -14.0 L-34.5 -13.9 -34.45 -13.7 -34.4 -13.55 -32.7 -12.1 -32.5 -11.85 -32.3 -11.75 -32.1 -11.3 -32.1 -11.2 Q-32.3 -10.8 -32.7 -11.0 L-33.55 -11.85 -33.65 -11.9 -33.65 -11.95 -33.9 -12.0 -34.3 -12.5 Q-34.4 -12.8 -34.9 -12.85 L-35.1 -13.7 -35.0 -14.0 -34.9 -14.05 -34.75 -14.05 -34.6 -14.0 M-15.5 10.7 L-15.35 10.75 -15.25 10.85 Q-15.1 11.15 -15.25 11.5 L-15.3 11.65 -15.7 11.65 -15.85 11.1 -15.8 10.9 -15.75 10.8 -15.7 10.75 -15.65 10.7 -15.5 10.7 M-11.25 9.0 L-11.15 9.1 -11.15 9.35 -11.2 9.45 -11.7 9.5 -11.8 9.2 -11.75 9.0 -11.5 8.95 -11.25 9.0 M-65.25 3.85 L-65.1 3.9 -65.0 4.0 -64.95 4.35 -65.0 4.55 -65.1 4.65 -65.25 4.7 -65.5 4.65 -65.55 4.2 -65.55 4.0 -65.25 3.85 M-78.3 2.0 L-78.4 2.2 Q-79.55 2.2 -79.35 1.0 L-79.25 0.95 -79.1 0.95 -78.95 1.0 -78.85 1.1 -78.8 1.2 -78.8 1.35 -78.3 1.95 -78.3 2.0 M-77.8 5.9 L-77.8 5.7 -77.75 5.5 -77.65 5.45 -77.5 5.45 Q-76.5 5.35 -76.05 6.15 L-76.05 6.2 -76.1 6.3 -76.35 6.45 -76.55 6.4 -76.65 6.3 -77.5 6.05 -77.75 6.0 -77.8 5.9 M-79.85 10.45 L-79.65 10.5 -79.35 10.9 -79.3 10.95 -79.35 11.15 -79.4 11.25 -80.05 11.25 -80.2 10.85 -80.15 10.6 -79.85 10.45 M-65.25 77.25 L-65.15 77.3 -65.1 77.4 -65.15 77.6 -65.2 77.7 -65.7 77.8 -65.95 77.7 -66.15 77.6 -66.2 77.4 -66.15 77.15 -66.05 77.1 -65.9 77.05 -65.85 77.05 -65.75 77.05 -65.6 77.1 -65.25 77.25 M-19.6 59.2 L-19.2 59.35 -19.1 59.45 Q-18.95 59.85 -18.95 60.3 L-19.05 60.55 -19.25 60.6 -19.5 60.6 -19.65 60.25 -19.65 59.95 -19.8 59.85 -19.95 59.55 -19.85 59.3 -19.75 59.25 -19.6 59.2 M-115.4 17.7 L-115.25 17.75 -115.15 17.85 -115.1 18.05 -115.1 18.2 Q-114.65 18.6 -114.35 19.15 L-114.4 19.25 -114.45 19.4 -115.2 19.25 -115.3 19.15 -115.4 19.0 -115.4 18.95 -115.65 18.9 -115.75 18.05 -115.65 17.75 -115.55 17.7 -115.4 17.7 M-121.1 27.2 L-120.7 27.3 -120.6 27.35 -120.55 27.45 -120.55 27.55 -120.55 27.6 Q-121.3 28.65 -122.5 28.5 L-122.55 28.3 -122.5 28.05 -121.85 27.8 -121.7 27.6 -121.5 27.5 -121.4 27.4 -121.35 27.3 -121.3 27.25 -121.25 27.25 -121.1 27.2 M-137.5 60.6 L-137.4 60.55 -137.25 60.55 Q-136.85 60.7 -136.8 61.15 L-136.8 61.25 -136.6 61.45 -136.55 61.55 -136.2 64.25 -136.3 64.6 -136.75 64.6 -137.15 62.15 -137.15 61.9 -137.25 61.8 -137.35 61.7 -137.45 61.4 -137.4 61.2 -137.55 60.95 -137.55 60.75 -137.5 60.65 -137.5 60.6 M-123.1 76.65 L-123.15 76.45 -123.15 76.4 -123.1 76.3 -123.05 76.2 -123.0 76.2 -122.85 76.2 -122.85 76.15 -122.0 76.4 -121.8 76.45 -121.7 76.6 -120.95 76.75 -120.85 76.8 -120.8 77.0 -120.85 77.1 -120.9 77.2 -121.8 77.3 -122.25 77.2 -122.3 77.15 -122.3 77.05 -122.75 76.9 -123.0 76.85 -123.1 76.65 M-101.05 51.7 L-101.7 51.5 Q-102.1 51.15 -102.1 50.65 L-102.0 50.35 -101.9 50.3 -101.75 50.3 -101.6 50.35 -101.5 50.45 -101.45 50.55 -101.45 50.7 Q-101.15 51.1 -100.55 51.1 L-99.9 51.6 -99.9 51.8 -99.95 51.95 -100.95 51.85 -101.05 51.75 -101.05 51.7 M-88.1 70.15 L-87.2 70.35 -87.1 70.45 -87.05 70.65 -87.05 70.8 -87.1 71.0 -87.2 71.1 -87.35 71.15 -87.55 71.1 -87.65 71.0 -87.65 70.95 -88.05 70.85 -88.3 70.7 -88.4 70.55 -88.4 70.45 -88.35 70.25 -88.25 70.2 -88.1 70.2 -88.1 70.15 M-90.25 72.7 L-90.3 72.8 -91.05 72.85 -91.1 72.75 -91.15 72.5 -91.1 72.4 -91.0 72.35 -90.85 72.3 -90.35 72.4 -90.25 72.45 -90.2 72.55 -90.25 72.7" fill="#cc0000" fill-rule="evenodd" stroke="none"/>
  </g>
</svg>
