<?xml version="1.0" encoding="UTF-8" standalone="no"?>
<svg xmlns:ffdec="https://www.free-decompiler.com/flash" xmlns:xlink="http://www.w3.org/1999/xlink" ffdec:objectType="shape" height="172.3px" width="191.2px" xmlns="http://www.w3.org/2000/svg">
  <g transform="matrix(1.0, 0.0, 0.0, 1.0, 152.95, 34.7)">
    <path d="M-103.4 117.2 L-101.4 102.75 -100.15 89.9 -88.45 101.15 -73.95 99.8" fill="none" stroke="#000000" stroke-linecap="round" stroke-linejoin="round" stroke-width="3.0"/>
    <path d="M-101.8 90.15 L-127.5 110.2" fill="none" stroke="#000000" stroke-linecap="round" stroke-linejoin="round" stroke-width="3.0"/>
    <path d="M-151.45 97.3 L-144.15 110.7 -127.5 110.2 -118.65 123.0 -127.1 136.1" fill="none" stroke="#000000" stroke-linecap="round" stroke-linejoin="round" stroke-width="3.0"/>
    <path d="M19.5 -5.75 L19.6 -5.65 19.6 -5.5 19.55 -5.3 19.1 -5.25 19.05 -5.55 19.1 -5.75 19.2 -5.8 19.35 -5.8 19.5 -5.75 M37.85 -19.45 L38.0 -19.45 38.15 -19.4 38.25 -19.3 38.25 -19.15 38.2 -18.95 37.8 -18.9 37.7 -19.2 37.75 -19.4 37.85 -19.45 M29.25 19.5 L29.35 19.6 29.35 19.85 29.3 19.95 28.8 20.0 28.7 19.7 28.75 19.5 29.0 19.45 29.25 19.5 M-83.1 -34.55 L-83.05 -34.45 -83.1 -34.3 -83.15 -34.2 -83.2 -34.15 -83.45 -34.05 -83.5 -33.95 -83.55 -33.9 -83.6 -33.9 -84.05 -33.9 -84.15 -34.1 -84.05 -34.55 -83.95 -34.65 -83.75 -34.7 -83.15 -34.6 -83.1 -34.55 M-47.65 -34.4 L-47.6 -34.3 -47.65 -34.15 -47.7 -34.05 -48.45 -34.0 -48.5 -34.1 -48.55 -34.35 -48.5 -34.45 -48.4 -34.5 -48.25 -34.55 -47.75 -34.45 -47.65 -34.4 M-71.05 -9.35 L-70.8 -9.7 -70.75 -9.8 -70.65 -9.85 -70.5 -9.9 -70.35 -9.85 -70.25 -9.75 -70.2 -9.4 -70.2 -9.2 -70.35 -9.0 -70.45 -8.9 -70.45 -8.85 -70.55 -8.65 -71.0 -8.6 -71.1 -9.15 -71.05 -9.35 M-72.85 -5.2 L-73.55 -5.35 -73.65 -5.45 -73.65 -5.55 -73.65 -5.7 -73.6 -5.8 -73.5 -5.85 -73.35 -5.9 -72.35 -5.75 -72.25 -5.65 -72.2 -5.55 -72.2 -5.5 -72.3 -5.3 -72.85 -5.2 M-53.3 -7.1 L-53.15 -7.15 -52.5 -7.05 -52.4 -7.0 -52.35 -6.9 -52.4 -6.75 -52.45 -6.65 -53.4 -6.6 -53.45 -6.7 -53.45 -6.95 -53.4 -7.05 -53.3 -7.1 M-30.4 -25.1 L-30.35 -25.2 -30.3 -25.25 -30.25 -25.3 -30.1 -25.3 -29.95 -25.25 -29.85 -25.15 Q-29.7 -24.75 -29.95 -24.4 L-30.05 -24.25 -30.5 -24.25 -30.55 -24.45 -30.55 -24.65 -30.45 -24.9 -30.4 -25.1 M-34.8 -23.9 L-34.5 -24.05 -34.35 -24.0 -34.25 -23.9 -34.2 -23.55 -34.25 -23.35 -34.35 -23.3 -34.5 -23.2 -34.75 -23.25 -34.8 -23.75 -34.8 -23.9 M-32.15 -13.4 L-32.0 -13.35 -31.9 -13.25 -31.85 -10.9 -31.85 -10.75 -31.35 -10.15 -31.35 -10.1 -31.45 -9.9 Q-32.1 -9.7 -32.45 -10.4 L-32.45 -13.15 -32.4 -13.3 -32.3 -13.35 -32.15 -13.4 M-15.65 11.0 L-15.65 11.2 -15.7 11.35 -16.15 11.4 -16.2 11.1 -16.15 10.95 -16.05 10.9 -15.9 10.85 -15.75 10.9 -15.65 11.0 M-10.55 9.95 L-11.2 10.0 -11.3 9.8 -11.25 9.5 -11.15 9.5 -11.0 9.45 -10.6 9.55 -10.5 9.6 -10.45 9.7 -10.5 9.85 -10.55 9.95 M-65.2 5.15 L-65.1 5.25 -65.1 5.45 -65.15 5.6 -65.55 5.65 -65.65 5.35 -65.6 5.2 -65.5 5.15 -65.35 5.1 -65.2 5.15 M-80.5 2.85 L-80.55 3.0 -81.05 3.0 -81.25 2.7 -81.3 2.6 -81.3 2.25 -81.3 2.05 -81.25 1.95 -81.25 1.9 -81.15 1.85 -81.0 1.85 -80.8 1.9 -80.5 2.55 -80.45 2.75 -80.5 2.85 M-78.7 6.5 L-78.6 6.6 -78.6 6.75 -78.65 6.95 -78.85 7.1 -78.95 7.2 -79.3 7.15 -79.4 6.95 -79.4 6.75 -79.35 6.7 -79.3 6.6 -79.0 6.45 -78.7 6.5 M-80.45 11.5 L-80.35 11.6 -80.35 11.75 -80.4 11.95 -80.8 12.0 -80.9 11.7 -80.85 11.5 -80.75 11.45 -80.6 11.45 -80.45 11.5 M-65.0 78.55 L-64.75 78.6 -64.65 78.7 -64.6 78.85 -64.5 78.95 -64.5 79.1 -64.55 79.3 -64.95 79.35 -65.05 79.15 -65.2 79.1 -65.3 78.8 -65.25 78.65 -65.0 78.55 M-19.25 63.95 L-18.6 64.05 -18.5 64.1 -18.45 64.2 -18.5 64.35 -18.55 64.45 -19.5 64.5 -19.55 64.4 -19.55 64.15 -19.5 64.05 -19.4 64.0 -19.25 63.95 M-120.65 19.8 L-119.8 20.0 -119.6 20.55 -119.7 20.9 -119.9 20.95 -120.15 20.9 -120.2 20.8 -120.25 20.7 -120.3 20.6 -121.15 20.25 -121.4 20.15 -121.45 19.95 -121.4 19.7 -121.3 19.65 -121.15 19.6 Q-120.9 19.55 -120.7 19.75 L-120.65 19.8 M-128.1 29.05 L-127.85 29.1 -127.75 29.2 Q-127.65 29.35 -127.7 29.55 L-127.75 29.65 -127.7 29.95 -127.7 30.2 -127.7 30.4 -127.75 30.5 -127.8 30.6 -127.85 30.65 -128.0 30.8 -128.05 30.85 -128.55 30.85 -128.65 30.65 -128.65 30.45 -128.5 30.3 -128.4 30.2 -128.35 29.85 -128.3 29.75 -128.4 29.3 -128.4 29.2 -128.1 29.05 M-141.75 65.6 L-142.0 65.6 -142.05 65.5 -142.05 65.4 -142.05 65.3 Q-142.5 64.6 -143.25 64.4 L-143.5 64.35 -143.55 64.25 -143.55 64.15 -143.6 64.05 -143.7 63.95 -143.8 63.9 -143.8 63.8 -143.8 63.6 -143.75 63.5 -143.65 63.45 -143.5 63.45 -143.5 63.4 Q-143.2 63.45 -143.0 63.65 L-142.95 63.75 Q-142.4 63.85 -142.05 64.25 L-141.85 64.45 -141.8 64.55 -141.8 64.65 -141.6 64.75 -141.5 64.8 -141.4 65.2 -141.5 65.45 -141.55 65.55 -141.75 65.6 M-124.55 81.05 L-126.25 80.95 -126.3 80.85 -126.3 80.8 -126.3 80.7 -126.25 80.5 -126.15 80.45 -126.0 80.45 -126.0 80.4 -124.6 80.65 -124.5 80.7 -124.45 80.8 -124.45 80.9 -124.5 80.95 -124.55 81.05 M-91.35 74.1 L-91.25 74.2 -91.25 74.45 -91.3 74.55 -91.8 74.6 -91.9 74.3 -91.85 74.15 -91.6 74.05 -91.35 74.1 M-87.3 71.95 L-87.35 72.0 -87.55 72.05 -87.55 72.15 -87.6 72.35 -87.65 72.45 -87.7 72.45 -88.05 72.45 -88.2 72.0 -88.15 71.65 -88.1 71.55 -88.05 71.45 -88.0 71.45 -87.85 71.45 -87.85 71.4 -87.35 71.5 -87.25 71.55 -87.2 71.65 -87.25 71.85 -87.3 71.95 M-105.4 54.95 L-105.35 55.05 -105.4 55.2 -105.45 55.3 -106.9 55.35 -106.95 55.25 -106.95 54.95 -106.9 54.85 -106.8 54.85 -106.65 54.8 -105.5 54.9 -105.4 54.95" fill="#cc0000" fill-rule="evenodd" stroke="none"/>
  </g>
</svg>
