<?xml version="1.0" encoding="UTF-8" standalone="no"?>
<svg xmlns:ffdec="https://www.free-decompiler.com/flash" xmlns:xlink="http://www.w3.org/1999/xlink" ffdec:objectType="shape" height="180.3px" width="190.75px" xmlns="http://www.w3.org/2000/svg">
  <g transform="matrix(1.0, 0.0, 0.0, 1.0, 151.4, 35.05)">
    <path d="M-92.7 116.6 L-99.55 106.0 -102.6 92.1 -87.4 100.1 -74.6 94.0" fill="none" stroke="#000000" stroke-linecap="round" stroke-linejoin="round" stroke-width="3.0"/>
    <path d="M-103.45 92.6 L-126.45 116.95" fill="none" stroke="#000000" stroke-linecap="round" stroke-linejoin="round" stroke-width="3.0"/>
    <path d="M-149.9 110.25 L-141.5 121.35 -126.45 116.95 -113.8 128.55 -119.15 143.75" fill="none" stroke="#000000" stroke-linecap="round" stroke-linejoin="round" stroke-width="3.0"/>
    <path d="M20.1 -6.05 L20.25 -6.0 20.35 -5.9 20.35 -5.75 20.3 -5.55 19.85 -5.5 19.8 -5.8 19.85 -6.0 19.95 -6.05 20.1 -6.05 M39.35 -18.05 L39.35 -17.9 39.3 -17.7 38.85 -17.65 38.8 -17.95 38.85 -18.15 38.95 -18.2 39.1 -18.2 39.25 -18.15 39.35 -18.05 M29.85 20.35 L29.85 20.5 29.8 20.7 29.35 20.75 Q29.25 20.6 29.3 20.45 L29.35 20.25 29.45 20.2 29.6 20.2 29.75 20.25 29.85 20.35 M-85.55 -33.2 L-86.0 -33.15 -86.05 -33.45 -86.0 -33.65 -85.9 -33.7 -85.75 -33.7 -85.6 -33.65 -85.5 -33.55 -85.5 -33.4 -85.55 -33.2 M-48.0 -34.7 L-48.05 -34.55 -48.65 -34.5 -48.7 -34.8 -48.65 -34.95 -48.55 -35.0 -48.4 -35.05 -48.1 -34.95 -48.0 -34.9 -48.0 -34.7 M-72.25 -9.65 L-72.1 -9.6 -72.0 -9.5 -71.95 -9.15 -72.0 -8.95 -72.1 -8.85 -72.25 -8.8 -72.5 -8.85 -72.55 -9.3 -72.55 -9.5 -72.25 -9.65 M-74.1 -5.4 L-73.6 -5.3 -73.5 -5.25 -73.45 -5.15 -73.5 -5.0 -73.55 -4.9 -74.3 -4.85 -74.35 -4.95 -74.4 -5.2 -74.35 -5.3 -74.25 -5.35 -74.1 -5.4 M-53.5 -7.4 L-53.35 -7.35 -53.25 -7.25 -53.2 -6.9 -53.25 -6.7 Q-53.6 -6.25 -54.15 -6.35 L-54.2 -6.55 -54.2 -6.75 -53.7 -7.35 -53.65 -7.4 -53.5 -7.4 M-29.6 -25.55 L-29.65 -25.4 -30.05 -25.35 -30.15 -25.65 -30.1 -25.8 -30.0 -25.85 -29.85 -25.9 -29.7 -25.85 -29.6 -25.75 -29.6 -25.55 M-34.1 -24.05 L-34.15 -23.9 -34.55 -23.85 -34.65 -24.15 -34.6 -24.3 -34.5 -24.35 -34.35 -24.4 -34.2 -24.35 -34.1 -24.25 -34.1 -24.05 M-31.0 -11.8 L-30.85 -11.75 -30.75 -11.65 -30.7 -11.4 -30.7 -11.2 -30.85 -10.65 -30.85 -10.45 -31.0 -10.25 -31.1 -10.15 -31.1 -9.05 -31.15 -8.85 -31.25 -8.8 -31.4 -8.7 -31.65 -8.75 -31.75 -10.35 -31.7 -10.65 -31.65 -10.7 -31.5 -10.8 -31.5 -11.0 -31.45 -11.2 -31.3 -11.5 -31.3 -11.65 -31.0 -11.8 M-16.7 11.45 L-16.65 11.25 -16.55 11.2 -16.4 11.2 -16.25 11.25 -16.15 11.35 -16.15 11.5 -16.2 11.7 -16.65 11.75 -16.7 11.45 M-10.65 9.65 L-10.5 9.6 -10.35 9.65 -10.25 9.75 -10.25 9.95 -10.3 10.1 -10.7 10.15 -10.8 9.85 -10.75 9.7 -10.65 9.65 M-65.5 5.95 L-65.35 6.0 -65.25 6.1 -65.25 6.25 -65.3 6.45 -65.75 6.5 -65.8 6.2 -65.75 6.0 -65.65 5.95 -65.5 5.95 M-80.5 7.35 L-80.35 7.4 -80.25 7.5 Q-80.15 7.65 -80.2 7.85 L-80.25 8.05 -80.35 8.15 -80.5 8.2 -80.75 8.15 -80.8 7.7 -80.8 7.5 -80.5 7.35 M-80.85 11.9 L-80.75 12.0 -80.75 12.2 -80.8 12.35 -81.25 12.4 -81.3 12.1 -81.25 11.95 -81.15 11.9 -81.0 11.85 -80.85 11.9 M-64.4 80.2 L-64.45 79.95 -64.4 79.75 -64.3 79.7 -64.15 79.65 -64.0 79.75 -63.9 79.8 -63.9 80.0 -63.95 80.2 -64.4 80.2 M-18.6 68.35 L-18.55 68.45 -18.6 68.7 -18.65 68.8 -19.1 68.9 -19.55 68.75 -19.65 68.65 -19.65 68.4 -19.6 68.3 -19.5 68.25 -19.35 68.2 -18.65 68.3 -18.6 68.35 M-82.85 2.7 Q-82.4 2.7 -82.3 3.1 L-82.3 3.2 -82.45 3.35 -82.6 3.45 -83.1 3.2 -83.15 3.0 -83.15 2.85 -82.85 2.7 M-127.4 21.7 L-126.05 21.95 -126.0 22.0 -125.95 22.1 -126.0 22.25 -126.05 22.35 -127.65 22.25 -127.7 22.05 -127.7 21.95 -127.7 21.85 -127.65 21.75 -127.55 21.75 -127.4 21.7 M-131.6 31.4 L-131.7 31.5 -131.85 31.55 -132.1 31.45 -132.75 31.35 -132.8 31.25 -132.8 30.95 -132.75 30.85 -132.65 30.85 -132.5 30.8 -131.65 30.9 -131.6 30.95 -131.55 31.05 -131.55 31.3 -131.6 31.4 M-146.25 66.05 L-146.2 66.15 -146.25 66.35 -146.3 66.45 Q-146.9 66.75 -147.55 66.45 L-147.6 66.45 -147.8 66.35 -147.85 66.25 -147.9 66.0 -147.85 65.9 -147.75 65.85 -147.6 65.8 -147.1 65.9 -147.0 65.95 -146.35 66.0 -146.25 66.05 M-126.75 82.4 L-126.45 82.5 -126.35 82.55 Q-126.2 82.8 -126.45 83.05 L-126.55 83.2 -127.1 83.4 -127.3 83.35 -127.4 83.05 -127.4 82.9 -127.35 82.8 -127.3 82.7 -127.25 82.7 -127.05 82.65 -127.0 82.55 -127.0 82.45 -126.9 82.45 -126.75 82.45 -126.75 82.4 M-87.6 72.7 L-87.6 72.65 -87.2 72.75 -87.1 72.8 -87.05 72.9 -87.1 73.1 -87.15 73.2 Q-87.45 73.4 -87.8 73.2 L-87.9 73.05 -87.85 72.75 -87.75 72.7 -87.6 72.7 M-109.9 56.7 L-109.9 58.2 -109.95 58.35 -110.4 58.35 -110.5 56.95 -110.45 56.75 -110.4 56.65 -110.4 56.6 -110.3 56.55 -110.15 56.55 -110.0 56.6 -109.9 56.7 M-92.05 75.3 L-92.5 75.35 -92.55 75.05 -92.5 74.9 -92.4 74.85 -92.25 74.8 -92.1 74.85 -92.0 74.95 -92.0 75.1 -92.05 75.3" fill="#cc0000" fill-rule="evenodd" stroke="none"/>
  </g>
</svg>
