<?xml version="1.0" encoding="UTF-8" standalone="no"?>
<svg xmlns:ffdec="https://www.free-decompiler.com/flash" xmlns:xlink="http://www.w3.org/1999/xlink" ffdec:objectType="shape" height="184.45px" width="191.1px" xmlns="http://www.w3.org/2000/svg">
  <g transform="matrix(1.0, 0.0, 0.0, 1.0, 151.1, 35.05)">
    <path d="M-86.55 113.05 L-96.3 105.25 -103.65 94.2 -85.4 98.05 -77.25 89.8" fill="none" stroke="#000000" stroke-linecap="round" stroke-linejoin="round" stroke-width="3.0"/>
    <path d="M-103.95 94.2 L-125.6 122.1" fill="none" stroke="#000000" stroke-linecap="round" stroke-linejoin="round" stroke-width="3.0"/>
    <path d="M-148.15 124.65 L-134.4 131.7 -125.6 122.1 -108.5 129.0 -109.25 147.9" fill="none" stroke="#000000" stroke-linecap="round" stroke-linejoin="round" stroke-width="3.0"/>
    <path d="M39.5 -17.4 L39.6 -17.45 39.75 -17.45 39.9 -17.4 40.0 -17.3 40.0 -17.15 39.95 -16.95 39.55 -16.9 39.45 -17.2 39.5 -17.4 M29.95 20.95 L30.0 20.75 30.1 20.7 30.25 20.7 30.4 20.75 30.5 20.85 30.5 21.0 30.45 21.2 30.05 21.25 29.95 20.95 M-87.1 -32.95 L-86.65 -32.85 -86.6 -32.8 -86.55 -32.7 -86.6 -32.55 -86.65 -32.45 -87.3 -32.4 -87.4 -32.6 -87.35 -32.9 -87.25 -32.9 -87.1 -32.95 M-47.75 -34.9 L-47.7 -34.8 -47.75 -34.65 -47.8 -34.55 -48.45 -34.5 -48.55 -34.7 -48.5 -34.95 -48.4 -35.0 -48.25 -35.05 -47.85 -34.95 -47.75 -34.9 M-73.65 -9.1 L-73.5 -9.15 -73.2 -9.05 -73.1 -9.0 -73.1 -8.8 -73.15 -8.65 -73.75 -8.6 -73.8 -8.9 -73.75 -9.05 -73.65 -9.1 M-74.5 -4.9 Q-74.35 -4.45 -74.85 -4.3 L-75.05 -4.35 -75.15 -4.55 -75.15 -4.75 -75.1 -4.8 -75.05 -4.9 -74.75 -5.05 -74.6 -5.0 -74.5 -4.9 M-54.7 -7.0 L-54.65 -7.05 -54.5 -7.05 -54.35 -7.0 -54.25 -6.9 Q-54.1 -6.6 -54.25 -6.25 L-54.3 -6.1 -54.7 -6.1 -54.85 -6.65 -54.8 -6.85 -54.75 -6.95 -54.7 -7.0 M-34.35 -24.8 L-34.2 -24.75 -34.1 -24.65 -34.1 -24.5 -34.15 -24.3 -34.55 -24.25 -34.65 -24.55 -34.6 -24.75 -34.5 -24.8 -34.35 -24.8 M-29.25 -26.15 L-29.3 -26.05 -29.8 -26.0 -29.9 -26.3 -29.85 -26.5 -29.6 -26.55 -29.35 -26.5 -29.25 -26.4 -29.25 -26.15 M-30.5 -9.6 L-30.4 -9.5 Q-30.25 -9.3 -30.4 -9.1 L-30.45 -8.95 -30.6 -8.75 -30.7 -8.65 -30.7 -8.3 -30.75 -8.1 -30.85 -8.05 -31.0 -7.95 -31.2 -8.0 -31.35 -8.75 -31.3 -8.95 -31.2 -9.1 -31.05 -9.25 -31.05 -9.3 -31.05 -9.4 -30.95 -9.5 -30.9 -9.6 -30.65 -9.65 -30.5 -9.6 M-16.65 11.2 L-16.5 11.25 -16.4 11.35 -16.4 11.5 -16.45 11.7 -16.9 11.75 -16.95 11.45 -16.9 11.25 -16.8 11.2 -16.65 11.2 M-10.55 9.9 L-10.4 9.85 -10.25 9.9 -10.15 10.0 -10.15 10.2 -10.2 10.35 -10.65 10.4 -10.7 10.1 -10.65 9.95 -10.55 9.9 M-65.3 6.85 L-65.75 6.9 -65.8 6.6 -65.75 6.45 -65.65 6.4 -65.5 6.35 -65.35 6.4 -65.25 6.5 -65.25 6.7 -65.3 6.85 M-63.9 80.15 L-63.75 80.25 -63.65 80.3 -63.65 80.5 -63.7 80.7 -64.15 80.7 -64.2 80.45 -64.15 80.25 -64.05 80.2 -63.9 80.15 M-18.85 71.1 L-18.75 71.2 Q-18.65 71.35 -18.7 71.55 L-18.75 71.75 -18.85 71.8 -19.0 71.9 -19.25 71.85 -19.3 71.35 -19.3 71.2 -19.0 71.05 -18.85 71.1 M-84.0 3.35 L-84.0 3.5 -84.05 3.7 -84.5 3.75 -84.55 3.45 -84.5 3.25 -84.4 3.2 -84.25 3.2 -84.1 3.25 -84.0 3.35 M-81.5 8.2 L-81.35 8.2 -81.2 8.25 -81.1 8.35 -81.1 8.5 -81.15 8.7 -81.55 8.75 -81.65 8.45 -81.6 8.25 -81.5 8.2 M-131.75 23.75 L-131.65 23.85 Q-131.6 24.7 -132.45 24.65 L-132.55 24.45 -132.55 24.25 -132.2 23.8 -132.15 23.75 -132.05 23.7 -131.9 23.7 -131.75 23.75 M-133.85 31.35 L-133.75 31.45 -133.75 31.7 -133.8 31.8 Q-134.15 32.1 -134.55 32.0 L-134.65 31.8 -134.65 31.6 -134.1 31.3 -133.85 31.35 M-150.75 67.15 L-150.1 67.25 -150.0 67.3 -149.95 67.4 -150.0 67.6 -150.05 67.7 Q-150.45 67.95 -151.0 67.7 L-151.05 67.6 -151.05 67.35 -151.0 67.25 -150.9 67.2 -150.75 67.2 -150.75 67.15 M-128.25 84.55 L-128.1 84.6 -128.0 84.7 -128.0 84.85 -128.05 85.05 -128.5 85.1 -128.55 84.8 -128.5 84.65 -128.4 84.6 -128.25 84.55 M-86.35 73.35 L-86.4 73.55 -86.8 73.6 -86.9 73.3 -86.85 73.15 -86.75 73.1 -86.6 73.05 -86.45 73.1 -86.35 73.2 -86.35 73.35 M-113.95 60.05 L-113.95 59.95 -113.9 59.85 -113.8 59.8 -113.65 59.8 -112.65 59.95 -112.45 60.0 -112.35 60.2 -112.2 60.45 -112.2 60.55 -112.5 60.8 -112.9 60.75 -112.95 60.65 -112.95 60.6 -113.55 60.5 -113.9 60.35 -113.95 60.25 -113.95 60.05 M-92.35 75.6 L-92.4 75.8 -92.8 75.85 -92.9 75.55 -92.85 75.4 -92.75 75.35 -92.6 75.3 -92.45 75.35 -92.35 75.45 -92.35 75.6" fill="#cc0000" fill-rule="evenodd" stroke="none"/>
  </g>
</svg>
