<?xml version="1.0" encoding="UTF-8" standalone="no"?>
<svg xmlns:ffdec="https://www.free-decompiler.com/flash" xmlns:xlink="http://www.w3.org/1999/xlink" ffdec:objectType="shape" height="183.05px" width="182.4px" xmlns="http://www.w3.org/2000/svg">
  <g transform="matrix(1.0, 0.0, 0.0, 1.0, 151.8, 35.2)">
    <path d="M-83.75 109.15 L-94.25 104.5 -105.25 95.4 -84.65 96.6 -79.35 88.15" fill="none" stroke="#000000" stroke-linecap="round" stroke-linejoin="round" stroke-width="3.0"/>
    <path d="M-106.7 96.65 L-124.25 125.05" fill="none" stroke="#000000" stroke-linecap="round" stroke-linejoin="round" stroke-width="3.0"/>
    <path d="M-142.2 132.45 L-128.35 137.2 -124.25 125.05 -104.9 127.0 -101.05 146.35" fill="none" stroke="#000000" stroke-linecap="round" stroke-linejoin="round" stroke-width="3.0"/>
    <path d="M-48.25 -35.15 L-48.15 -35.05 -48.15 -34.9 -48.2 -34.7 -48.65 -34.65 -48.7 -34.95 -48.65 -35.15 -48.55 -35.2 -48.4 -35.2 -48.25 -35.15 M-73.9 -8.65 L-74.3 -8.6 -74.4 -8.9 -74.35 -9.05 -74.25 -9.1 -74.1 -9.15 -73.95 -9.1 -73.85 -9.0 -73.85 -8.8 -73.9 -8.65 M-75.4 -4.6 L-75.25 -4.65 -75.1 -4.6 -75.0 -4.5 -75.0 -4.3 -75.05 -4.15 -75.5 -4.1 -75.55 -4.4 -75.5 -4.55 -75.4 -4.6 M-55.15 -6.65 L-54.85 -6.55 -54.75 -6.5 -54.75 -6.3 -54.8 -6.15 -55.4 -6.1 -55.45 -6.4 -55.4 -6.55 -55.3 -6.6 -55.15 -6.65 M-34.1 -24.85 L-34.0 -24.75 -34.0 -24.55 -34.05 -24.4 -34.5 -24.35 -34.55 -24.65 -34.5 -24.8 -34.4 -24.85 -34.25 -24.9 -34.1 -24.85 M-29.75 -26.75 L-29.65 -26.8 -29.5 -26.8 -29.35 -26.75 -29.25 -26.65 -29.25 -26.5 -29.3 -26.3 -29.75 -26.25 -29.8 -26.55 -29.75 -26.75 M-30.65 -8.55 L-30.25 -8.45 -30.15 -8.4 -30.1 -8.3 -30.15 -8.15 -30.2 -8.05 -30.25 -8.0 -30.4 -7.9 -30.45 -7.8 -30.5 -7.75 -30.55 -7.65 -30.8 -7.5 -31.0 -7.45 -31.2 -7.5 -31.3 -7.7 -31.3 -8.0 -31.0 -8.35 -30.9 -8.5 -30.8 -8.55 -30.65 -8.55 M-65.3 7.2 L-65.75 7.25 -65.8 6.95 -65.75 6.75 -65.65 6.7 -65.5 6.7 -65.35 6.75 -65.25 6.85 -65.25 7.0 -65.3 7.2 M-63.95 80.95 L-64.05 80.7 -64.0 80.5 -63.9 80.45 -63.75 80.4 -63.6 80.5 -63.5 80.55 -63.5 80.75 -63.55 80.95 -63.95 80.95 M-19.15 73.55 L-19.1 73.35 -19.0 73.3 -18.85 73.3 -18.7 73.35 -18.6 73.45 -18.6 73.6 -18.65 73.8 -19.05 73.85 -19.15 73.55 M-84.75 3.7 L-84.8 3.85 -85.25 3.9 -85.3 3.6 -85.25 3.45 -85.15 3.4 -85.0 3.35 -84.85 3.4 -84.75 3.5 -84.75 3.7 M-81.9 8.45 L-81.75 8.45 -81.6 8.5 -81.5 8.6 -81.5 8.75 -81.55 8.95 -82.0 9.0 -82.05 8.7 -82.0 8.5 -81.9 8.45 M-136.5 25.95 L-136.35 26.0 -136.25 26.1 Q-136.1 26.4 -136.25 26.75 L-136.3 26.9 -136.7 26.9 -136.85 26.35 -136.8 26.15 -136.75 26.05 -136.7 26.0 -136.65 25.95 -136.5 25.95 M-135.25 31.95 L-135.25 32.6 -135.3 32.75 -135.75 32.75 -135.85 32.2 -135.8 32.0 -135.75 31.9 -135.75 31.85 -135.65 31.8 -135.5 31.8 -135.35 31.85 -135.25 31.95 M-151.75 67.75 L-151.65 67.7 -151.5 67.65 -151.35 67.75 -151.25 67.8 -151.25 68.0 -151.3 68.2 -151.75 68.2 -151.8 67.95 -151.75 67.75 M-129.1 85.5 L-129.0 85.45 -128.85 85.4 -128.7 85.5 -128.6 85.55 -128.6 85.75 -128.65 85.95 -129.05 85.95 -129.15 85.7 -129.1 85.5 M-86.25 73.1 L-86.1 73.05 -85.95 73.1 -85.85 73.2 -85.85 73.4 -85.9 73.55 -86.3 73.6 -86.4 73.3 -86.35 73.15 -86.25 73.1 M-116.25 62.35 L-116.15 62.45 -115.9 63.45 -115.85 63.65 Q-116.05 64.05 -116.45 63.85 L-116.65 63.55 -116.7 63.45 -116.7 62.6 -116.7 62.45 -116.4 62.3 -116.25 62.35 M-93.0 75.55 L-92.85 75.6 -92.75 75.7 -92.75 75.85 -92.8 76.05 -93.25 76.1 -93.3 75.8 -93.25 75.65 -93.15 75.6 -93.0 75.55 M30.05 21.2 L30.1 21.0 30.2 20.95 30.35 20.95 30.5 21.0 30.6 21.1 30.6 21.25 30.55 21.45 30.1 21.5 30.05 21.2" fill="#cc0000" fill-rule="evenodd" stroke="none"/>
  </g>
</svg>
