<?xml version="1.0" encoding="UTF-8" standalone="no"?>
<svg xmlns:ffdec="https://www.free-decompiler.com/flash" xmlns:xlink="http://www.w3.org/1999/xlink" ffdec:objectType="shape" height="170.25px" width="183.0px" xmlns="http://www.w3.org/2000/svg">
  <g transform="matrix(1.0, 0.0, 0.0, 1.0, 152.15, 26.8)">
    <path d="M-136.9 138.25 L-122.75 140.45 -123.75 125.9 -103.25 124.6 -96.0 141.95" fill="none" stroke="#000000" stroke-linecap="round" stroke-linejoin="round" stroke-width="3.0"/>
    <path d="M-74.3 -8.55 L-74.75 -8.5 -74.8 -8.8 -74.75 -9.0 -74.65 -9.05 -74.5 -9.05 -74.35 -9.0 -74.25 -8.9 -74.25 -8.75 -74.3 -8.55 M-75.35 -4.0 L-75.4 -3.8 -75.8 -3.75 -75.9 -4.05 -75.85 -4.25 -75.75 -4.3 -75.6 -4.3 -75.45 -4.25 -75.35 -4.15 -75.35 -4.0 M-55.35 -6.6 L-55.25 -6.5 -55.25 -6.3 -55.3 -6.15 -55.7 -6.1 -55.8 -6.4 -55.75 -6.55 -55.65 -6.6 -55.5 -6.65 -55.35 -6.6 M-29.25 -26.5 L-29.3 -26.3 -29.75 -26.25 -29.8 -26.55 -29.75 -26.75 -29.65 -26.8 -29.5 -26.8 -29.35 -26.75 -29.25 -26.65 -29.25 -26.5 M-30.5 -7.3 L-30.4 -7.25 -30.35 -7.05 -30.4 -7.0 -30.55 -6.8 -30.6 -6.75 -30.95 -6.75 -31.05 -7.15 -31.0 -7.3 -30.75 -7.4 -30.5 -7.3 M-18.6 75.6 L-18.6 75.8 -18.65 75.95 -19.05 76.0 -19.15 75.7 -19.1 75.55 -19.0 75.5 -18.85 75.45 -18.7 75.5 -18.6 75.6 M-85.25 3.85 L-85.25 4.0 -85.3 4.2 -85.75 4.25 -85.8 3.95 -85.75 3.75 -85.65 3.7 -85.5 3.7 -85.35 3.75 -85.25 3.85 M-81.85 9.2 L-81.9 9.35 -82.3 9.4 -82.4 9.1 -82.35 8.95 -82.25 8.9 -82.1 8.85 -81.95 8.9 -81.85 9.0 -81.85 9.2 M-139.6 27.65 L-139.5 27.75 -139.5 27.95 -139.55 28.1 -139.95 28.15 -140.05 27.85 -140.0 27.7 -139.9 27.65 -139.75 27.6 -139.6 27.65 M-136.85 32.55 L-136.75 32.5 -136.6 32.45 -136.1 32.55 -136.0 32.6 -135.95 32.7 -136.0 32.85 -136.05 32.95 -136.8 33.0 -136.85 32.9 -136.9 32.65 -136.85 32.55 M-152.15 68.05 L-152.1 67.9 -152.0 67.85 -151.85 67.8 -151.7 67.85 -151.6 67.95 -151.6 68.15 -151.65 68.3 -152.05 68.35 -152.15 68.05 M-128.75 86.5 L-128.8 86.7 -129.25 86.7 -129.3 86.45 -129.25 86.25 -129.15 86.2 -129.0 86.15 -128.85 86.25 -128.75 86.3 -128.75 86.5 M-119.05 65.95 L-119.25 66.0 -119.45 66.0 -119.55 65.45 -119.4 65.1 -119.3 65.05 -119.15 65.05 -118.75 65.1 -118.65 65.2 -118.6 65.3 -118.65 65.45 -118.7 65.55 -118.75 65.6 -118.9 65.7 -118.95 65.8 -119.0 65.85 -119.05 65.95 M30.3 21.35 L30.35 21.2 30.45 21.15 30.6 21.1 30.75 21.15 30.85 21.25 30.85 21.45 30.8 21.6 30.35 21.65 30.3 21.35" fill="#cc0000" fill-rule="evenodd" stroke="none"/>
  </g>
</svg>
