<?xml version="1.0" encoding="UTF-8" standalone="no"?>
<svg xmlns:ffdec="https://www.free-decompiler.com/flash" xmlns:xlink="http://www.w3.org/1999/xlink" ffdec:objectType="shape" height="152.15px" width="122.35px" xmlns="http://www.w3.org/2000/svg">
  <g transform="matrix(1.0, 0.0, 0.0, 1.0, 152.55, 9.05)">
    <path d="M-133.2 140.9 L-119.2 141.6 -123.75 125.9 -102.9 122.65 -92.95 138.85" fill="none" stroke="#000000" stroke-linecap="round" stroke-linejoin="round" stroke-width="3.0"/>
    <path d="M-74.35 -8.75 L-74.4 -8.55 -74.8 -8.5 -74.9 -8.8 -74.85 -9.0 -74.75 -9.05 -74.6 -9.05 -74.45 -9.0 -74.35 -8.9 -74.35 -8.75 M-76.0 -4.15 L-75.85 -4.1 -75.75 -4.0 -75.75 -3.8 -75.8 -3.65 -76.25 -3.6 -76.3 -3.9 -76.25 -4.05 -76.15 -4.1 -76.0 -4.15 M-55.5 -6.5 L-55.5 -6.3 -55.55 -6.15 -55.95 -6.1 -56.05 -6.4 -56.0 -6.55 -55.9 -6.6 -55.75 -6.65 -55.6 -6.6 -55.5 -6.5 M-31.05 -5.95 L-31.0 -6.25 -30.9 -6.25 -30.75 -6.3 -30.35 -6.2 -30.25 -6.15 -30.2 -6.05 -30.25 -5.9 -30.3 -5.8 -30.95 -5.75 -31.05 -5.95 M-85.65 4.2 L-86.05 4.25 -86.15 3.95 -86.1 3.75 -86.0 3.7 -85.85 3.7 -85.7 3.75 -85.6 3.85 -85.6 4.0 -85.65 4.2 M-82.35 9.2 L-82.2 9.25 -82.1 9.35 -82.1 9.5 -82.15 9.7 -82.55 9.75 -82.65 9.45 -82.6 9.25 -82.5 9.2 -82.35 9.2 M-142.25 28.7 L-142.15 28.65 -142.0 28.6 -141.85 28.65 -141.75 28.75 -141.75 28.95 -141.8 29.1 -142.2 29.15 -142.3 28.85 -142.25 28.7 M-136.85 32.85 L-136.9 33.05 -137.3 33.1 -137.4 32.8 -137.35 32.6 -137.25 32.55 -137.1 32.55 -136.95 32.6 -136.85 32.7 -136.85 32.85 M-152.1 68.25 L-152.0 68.3 -152.0 68.5 -152.05 68.7 -152.5 68.7 -152.55 68.45 -152.5 68.25 -152.4 68.2 -152.25 68.15 -152.1 68.25 M-120.75 66.2 Q-120.35 66.1 -120.15 66.45 L-120.1 66.55 -120.1 66.6 -120.15 66.7 -120.2 66.8 -120.95 66.75 -121.05 66.55 -121.0 66.3 -120.9 66.25 -120.75 66.2" fill="#cc0000" fill-rule="evenodd" stroke="none"/>
  </g>
</svg>
