<?xml version="1.0" encoding="UTF-8" standalone="no"?>
<svg xmlns:ffdec="https://www.free-decompiler.com/flash" xmlns:xlink="http://www.w3.org/1999/xlink" ffdec:objectType="shape" height="149.85px" width="112.6px" xmlns="http://www.w3.org/2000/svg">
  <g transform="matrix(1.0, 0.0, 0.0, 1.0, 143.05, 5.9)">
    <path d="M-131.2 142.45 L-117.45 141.95 -123.75 125.9 -103.05 121.4 -92.15 136.25" fill="none" stroke="#000000" stroke-linecap="round" stroke-linejoin="round" stroke-width="3.0"/>
    <path d="M-30.6 -5.85 L-30.5 -5.75 -30.45 -5.5 -30.55 -5.3 -30.95 -5.25 -31.05 -5.65 -31.0 -5.8 -30.9 -5.85 -30.75 -5.9 -30.6 -5.85 M-142.75 29.1 L-142.6 29.15 -142.5 29.25 -142.5 29.45 -142.55 29.6 -142.95 29.65 -143.05 29.35 -143.0 29.2 -142.9 29.15 -142.75 29.1 M-137.1 32.95 L-137.1 33.1 -137.15 33.3 -137.55 33.35 -137.65 33.05 -137.6 32.85 -137.5 32.8 -137.35 32.8 -137.2 32.85 -137.1 32.95 M-121.95 67.05 L-121.9 66.85 -121.8 66.85 -121.65 66.8 -121.35 66.85 -121.25 66.95 -121.25 67.1 -121.3 67.3 -121.9 67.35 -121.95 67.05" fill="#cc0000" fill-rule="evenodd" stroke="none"/>
  </g>
</svg>
