<?xml version="1.0" encoding="UTF-8" standalone="no"?>
<svg xmlns:ffdec="https://www.free-decompiler.com/flash" xmlns:xlink="http://www.w3.org/1999/xlink" ffdec:objectType="shape" height="150.4px" width="113.05px" xmlns="http://www.w3.org/2000/svg">
  <g transform="matrix(1.0, 0.0, 0.0, 1.0, 143.55, 5.4)">
    <path d="M-129.75 143.5 L-116.7 141.7 -123.75 125.9 -103.05 120.8 -92.05 134.5" fill="none" stroke="#000000" stroke-linecap="round" stroke-linejoin="round" stroke-width="3.0"/>
    <path d="M-30.6 -5.35 L-30.5 -5.25 -30.5 -5.05 -30.55 -4.9 -30.95 -4.85 -31.05 -5.15 -31.0 -5.3 -30.9 -5.35 -30.75 -5.4 -30.6 -5.35 M-143.4 29.4 L-143.25 29.35 -143.1 29.4 -143.0 29.5 -143.0 29.7 -143.05 29.85 -143.45 29.9 -143.55 29.6 -143.5 29.45 -143.4 29.4 M-138.0 32.85 L-137.9 32.8 -137.75 32.8 -137.6 32.85 -137.5 32.95 -137.5 33.1 -137.55 33.3 -138.0 33.35 -138.05 33.05 -138.0 32.85 M-121.85 67.1 L-121.75 67.2 -121.75 67.35 -121.8 67.55 -122.2 67.6 -122.3 67.3 -122.25 67.1 -122.15 67.05 -122.0 67.05 -121.85 67.1" fill="#cc0000" fill-rule="evenodd" stroke="none"/>
  </g>
</svg>
