<?xml version="1.0" encoding="UTF-8" standalone="no"?>
<svg xmlns:ffdec="https://www.free-decompiler.com/flash" xmlns:xlink="http://www.w3.org/1999/xlink" ffdec:objectType="shape" height="59.5px" width="59.5px" xmlns="http://www.w3.org/2000/svg">
  <g transform="matrix(1.0, 0.0, 0.0, 1.0, 29.75, 29.75)">
    <path d="M-7.05 -28.95 L0.0 -29.75 Q5.3 -29.75 9.95 -28.1 12.35 -26.55 14.5 -24.4 22.35 -16.55 22.35 -5.5 22.35 5.55 14.5 13.4 6.65 21.25 -4.4 21.25 -15.45 21.25 -23.3 13.4 -27.6 9.15 -29.5 3.95 L-29.75 0.0 Q-29.75 -8.35 -25.75 -15.0 -25.2 -10.7 -21.95 -7.45 -18.1 -3.6 -12.6 -3.55 -7.1 -3.6 -3.2 -7.45 0.7 -11.35 0.7 -16.85 0.7 -22.35 -3.2 -26.2 -4.95 -28.0 -7.05 -28.95" fill="#cccccc" fill-rule="evenodd" stroke="none"/>
    <path d="M9.95 -28.1 Q16.05 -26.0 21.0 -21.05 29.75 -12.3 29.75 0.0 29.75 12.3 21.0 21.0 12.3 29.75 0.0 29.75 -12.3 29.75 -21.05 21.0 -28.35 13.7 -29.5 3.95 -27.6 9.15 -23.3 13.4 -15.45 21.25 -4.4 21.25 6.65 21.25 14.5 13.4 22.35 5.55 22.35 -5.5 22.35 -16.55 14.5 -24.4 12.35 -26.55 9.95 -28.1" fill="#999999" fill-rule="evenodd" stroke="none"/>
    <path d="M-25.75 -15.0 Q-23.85 -18.2 -21.05 -21.05 -14.95 -27.15 -7.05 -28.95 -4.95 -28.0 -3.2 -26.2 0.7 -22.35 0.7 -16.85 0.7 -11.35 -3.2 -7.45 -7.1 -3.6 -12.6 -3.55 -18.1 -3.6 -21.95 -7.45 -25.2 -10.7 -25.75 -15.0" fill="#dbdbdb" fill-rule="evenodd" stroke="none"/>
  </g>
</svg>
