<?xml version="1.0" encoding="UTF-8" standalone="no"?>
<svg xmlns:ffdec="https://www.free-decompiler.com/flash" xmlns:xlink="http://www.w3.org/1999/xlink" ffdec:objectType="shape" height="21.15px" width="16.2px" xmlns="http://www.w3.org/2000/svg">
  <g transform="matrix(1.0, 0.0, 0.0, 1.0, 8.1, 10.6)">
    <path d="M-1.0 -10.6 L-0.75 -9.55 -0.4 -8.6 0.0 -7.65 0.55 -6.8 1.5 -5.1 2.35 -3.45 3.1 -1.8 3.7 -0.1 Q4.05 0.9 3.45 1.6 2.8 2.35 1.85 2.35 L0.4 2.45 -1.55 2.4 -3.35 2.05 -4.9 1.8 -6.4 1.7 -6.35 1.1 -6.3 -0.15 -6.25 -1.45 -6.35 -2.85 -6.45 -4.15 -6.6 -5.55 -6.65 -6.95 -6.6 -9.1 Q-4.6 -10.6 -1.0 -10.6" fill="#ffffff" fill-rule="evenodd" stroke="none"/>
    <path d="M-6.4 1.7 L-4.9 1.8 -3.35 2.05 -1.55 2.4 0.4 2.45 1.85 2.35 Q2.8 2.35 3.45 1.6 4.05 0.9 3.7 -0.1 L3.1 -1.8 2.35 -3.45 1.5 -5.1 0.55 -6.8 0.0 -7.65 -0.4 -8.6 -0.75 -9.55 -1.0 -10.6 0.05 -10.3 2.15 -8.85 3.8 -6.8 5.45 -4.5 6.5 -2.95 7.3 -1.4 7.85 0.35 8.1 2.1 8.1 3.85 8.0 5.55 7.85 6.9 7.8 8.15 7.65 10.55 6.35 10.1 4.45 9.6 3.05 9.5 1.75 9.4 0.5 9.5 -0.8 9.6 -2.05 9.75 -3.35 10.1 -4.75 10.35 -6.05 10.5 -8.1 10.4 -6.4 1.7" fill="#cccccc" fill-rule="evenodd" stroke="none"/>
    <path d="M-1.0 -10.6 Q-4.6 -10.6 -6.6 -9.1 L-6.65 -6.95 -6.6 -5.55 -6.45 -4.15 -6.35 -2.85 -6.25 -1.45 -6.3 -0.15 -6.35 1.1 -6.4 1.7 -8.1 10.4 -6.05 10.5 -4.75 10.35 -3.35 10.1 -2.05 9.75 -0.8 9.6 0.5 9.5 1.75 9.4 3.05 9.5 4.45 9.6 6.35 10.1 7.65 10.55 7.8 8.15 7.85 6.9 8.0 5.55 8.1 3.85 8.1 2.1 7.85 0.35 7.3 -1.4 6.5 -2.95 5.45 -4.5 3.8 -6.8 2.15 -8.85 0.05 -10.3 -1.0 -10.6 Z" fill="none" stroke="#000000" stroke-linecap="round" stroke-linejoin="round" stroke-opacity="0.5019608" stroke-width="0.05"/>
  </g>
</svg>
