<?xml version="1.0" encoding="UTF-8" standalone="no"?>
<svg xmlns:ffdec="https://www.free-decompiler.com/flash" xmlns:xlink="http://www.w3.org/1999/xlink" ffdec:objectType="shape" height="5.85px" width="28.65px" xmlns="http://www.w3.org/2000/svg">
  <g transform="matrix(1.0, 0.0, 0.0, 1.0, 14.3, 3.2)">
    <path d="M5.0 -0.75 Q9.05 -1.05 12.75 -2.25 14.0 -0.35 13.35 1.75 8.7 2.65 4.9 1.8 4.45 0.6 5.0 -0.75 M-13.15 -2.45 Q-8.7 -0.9 -2.7 -0.6 -2.25 0.25 -2.75 1.45 L-3.0 1.85 -12.7 2.2 -12.9 1.9 Q-14.1 -0.55 -13.15 -2.45" fill="#ffffff" fill-rule="evenodd" stroke="none"/>
    <path d="M12.75 -2.25 L13.85 -2.65 M5.0 -0.75 Q9.05 -1.05 12.75 -2.25 M5.0 -0.75 L4.05 -0.7 M-13.15 -2.45 L-13.8 -2.7 M-13.15 -2.45 Q-8.7 -0.9 -2.7 -0.6 L-1.85 -0.55" fill="none" stroke="#000000" stroke-linecap="round" stroke-linejoin="round" stroke-width="1.0"/>
  </g>
</svg>
