<?xml version="1.0" encoding="UTF-8" standalone="no"?>
<svg xmlns:ffdec="https://www.free-decompiler.com/flash" xmlns:xlink="http://www.w3.org/1999/xlink" ffdec:objectType="shape" height="7.55px" width="31.2px" xmlns="http://www.w3.org/2000/svg">
  <g transform="matrix(1.0, 0.0, 0.0, 1.0, 14.9, 4.05)">
    <path d="M5.3 2.4 L2.05 1.45 2.05 -2.9 11.35 -2.9 Q9.55 -0.55 6.35 2.2 L5.3 2.4 M-13.4 3.0 L-14.3 1.65 -14.9 -4.05 -0.35 -1.45 -2.7 2.6 -13.4 3.0 M-14.3 1.65 Q-8.0 1.4 -2.7 2.6 -8.0 1.4 -14.3 1.65" fill="#1d1d1d" fill-rule="evenodd" stroke="none"/>
    <path d="M11.35 -2.9 L15.25 -2.9 14.5 0.2 14.5 1.65 8.4 1.9 6.35 2.2 8.4 1.9 14.5 1.65 14.9 3.0 6.0 2.55 6.35 2.2 Q9.55 -0.55 11.35 -2.9" fill="#000000" fill-rule="evenodd" stroke="none"/>
    <path d="M14.5 1.65 L15.8 1.65 M6.35 2.2 L8.4 1.9 14.5 1.65 M14.9 3.0 L6.0 2.55 4.2 2.6 5.3 2.4 6.35 2.2 M-2.7 2.6 L-13.4 3.0 M-2.7 2.6 Q-8.0 1.4 -14.3 1.65" fill="none" stroke="#000000" stroke-linecap="round" stroke-linejoin="round" stroke-width="1.0"/>
  </g>
</svg>
