<?xml version="1.0" encoding="UTF-8" standalone="no"?>
<svg xmlns:ffdec="https://www.free-decompiler.com/flash" xmlns:xlink="http://www.w3.org/1999/xlink" ffdec:objectType="shape" height="31.7px" width="55.7px" xmlns="http://www.w3.org/2000/svg">
  <g transform="matrix(1.0, 0.0, 0.0, 1.0, 27.85, 15.8)">
    <path d="M-27.3 -6.25 Q-27.05 -10.4 -23.05 -13.0 -17.6 -15.45 -10.7 -15.3 -4.75 -15.4 1.95 -13.5 9.65 -11.6 17.9 -12.15 L15.9 -6.5 5.15 -7.3 -27.3 -6.25 M12.7 4.6 L15.25 3.6 15.7 7.55 Q4.05 13.75 -4.05 15.15 -11.0 16.1 -15.55 13.7 L-18.3 11.7 Q-1.3 9.5 12.7 4.6" fill="#ffffff" fill-rule="evenodd" stroke="none"/>
    <path d="M-18.3 11.7 Q-26.2 5.2 -27.15 -3.8 -27.5 -5.1 -27.3 -6.25 L5.15 -7.3 Q4.05 1.3 12.7 4.6 -1.3 9.5 -18.3 11.7" fill="#660000" fill-rule="evenodd" stroke="none"/>
    <path d="M-27.3 -6.25 Q-27.05 -10.4 -23.05 -13.0 -17.6 -15.45 -10.7 -15.3 -4.75 -15.4 1.95 -13.5 9.65 -11.6 17.9 -12.15 22.45 -12.7 27.35 -14.0 M-18.3 11.7 Q-26.2 5.2 -27.15 -3.8 -27.5 -5.1 -27.3 -6.25 L5.15 -7.3 15.9 -6.5 17.9 -12.15 M12.7 4.6 L15.25 3.6 15.7 7.55 Q17.8 6.25 20.25 5.0 M-18.3 11.7 L-15.55 13.7 Q-11.0 16.1 -4.05 15.15 4.05 13.75 15.7 7.55 M12.7 4.6 Q-1.3 9.5 -18.3 11.7 M5.15 -7.3 Q4.05 1.3 12.7 4.6" fill="none" stroke="#000000" stroke-linecap="round" stroke-linejoin="round" stroke-width="1.0"/>
  </g>
</svg>
