<?xml version="1.0" encoding="UTF-8" standalone="no"?>
<svg xmlns:ffdec="https://www.free-decompiler.com/flash" xmlns:xlink="http://www.w3.org/1999/xlink" ffdec:objectType="shape" height="16.3px" width="41.2px" xmlns="http://www.w3.org/2000/svg">
  <g transform="matrix(1.0, 0.0, 0.0, 1.0, 20.35, 9.1)">
    <path d="M7.7 -6.6 Q15.15 -10.75 19.15 -6.2 22.55 2.6 16.9 6.15 11.85 6.8 6.9 5.0 4.05 -1.0 7.7 -6.6 M9.5 -4.9 Q8.8 -4.15 8.8 -3.15 8.8 -2.15 9.5 -1.45 10.25 -0.7 11.25 -0.7 12.25 -0.7 12.95 -1.45 13.7 -2.15 13.7 -3.15 13.7 -4.15 12.95 -4.9 12.25 -5.6 11.25 -5.6 10.25 -5.6 9.5 -4.9 M11.25 -4.3 L11.25 -4.2 11.1 -3.7 10.85 -3.45 Q9.1 -3.5 10.1 -4.85 L10.3 -4.9 10.5 -4.95 Q11.15 -4.85 11.25 -4.3 M-10.4 -2.65 Q-12.15 -2.7 -11.15 -4.05 L-10.95 -4.1 -10.75 -4.15 Q-10.1 -4.05 -10.0 -3.5 L-10.0 -3.4 -10.15 -2.9 -10.4 -2.65 M-12.45 -2.35 Q-12.45 -1.35 -11.75 -0.65 -11.0 0.1 -10.0 0.1 -9.0 0.1 -8.3 -0.65 -7.55 -1.35 -7.55 -2.35 -7.55 -3.35 -8.3 -4.1 -9.0 -4.8 -10.0 -4.8 -11.0 -4.8 -11.75 -4.1 -12.45 -3.35 -12.45 -2.35 M-6.25 -6.5 Q-2.5 -0.55 -6.4 5.55 -10.9 7.15 -15.75 6.5 -20.0 2.85 -19.15 -3.85 -16.05 -9.8 -6.25 -6.5" fill="#ffffff" fill-rule="evenodd" stroke="none"/>
    <path d="M9.5 -4.9 Q10.25 -5.6 11.25 -5.6 12.25 -5.6 12.95 -4.9 13.7 -4.15 13.7 -3.15 13.7 -2.15 12.95 -1.45 12.25 -0.7 11.25 -0.7 10.25 -0.7 9.5 -1.45 8.8 -2.15 8.8 -3.15 8.8 -4.15 9.5 -4.9 M11.25 -4.3 Q11.15 -4.85 10.5 -4.95 L10.3 -4.9 10.1 -4.85 Q9.1 -3.5 10.85 -3.45 L11.1 -3.7 11.25 -4.2 11.25 -4.3 M-10.4 -2.65 L-10.15 -2.9 -10.0 -3.4 -10.0 -3.5 Q-10.1 -4.05 -10.75 -4.15 L-10.95 -4.1 -11.15 -4.05 Q-12.15 -2.7 -10.4 -2.65 M-12.45 -2.35 Q-12.45 -3.35 -11.75 -4.1 -11.0 -4.8 -10.0 -4.8 -9.0 -4.8 -8.3 -4.1 -7.55 -3.35 -7.55 -2.35 -7.55 -1.35 -8.3 -0.65 -9.0 0.1 -10.0 0.1 -11.0 0.1 -11.75 -0.65 -12.45 -1.35 -12.45 -2.35" fill="#000000" fill-rule="evenodd" stroke="none"/>
    <path d="M7.0 -6.2 L7.7 -6.6 Q15.15 -10.75 19.15 -6.2 L20.35 -4.55 M6.9 5.0 L6.4 4.8 M16.9 6.15 L18.75 5.8 M7.7 -6.6 Q4.05 -1.0 6.9 5.0 11.85 6.8 16.9 6.15 M-19.15 -3.85 L-19.85 -2.2 M-5.65 -6.3 L-6.25 -6.5 Q-2.5 -0.55 -6.4 5.55 L-5.8 5.3 M-6.25 -6.5 Q-16.05 -9.8 -19.15 -3.85 M-15.75 6.5 Q-10.9 7.15 -6.4 5.55 M-15.75 6.5 L-17.3 6.25" fill="none" stroke="#000000" stroke-linecap="round" stroke-linejoin="round" stroke-width="1.0"/>
  </g>
</svg>
