<?xml version="1.0" encoding="UTF-8" standalone="no"?>
<svg xmlns:ffdec="https://www.free-decompiler.com/flash" xmlns:xlink="http://www.w3.org/1999/xlink" ffdec:objectType="shape" height="21.1px" width="38.1px" xmlns="http://www.w3.org/2000/svg">
  <g transform="matrix(1.0, 0.0, 0.0, 1.0, 19.05, 10.55)">
    <path d="M-2.8 -4.5 L-12.3 -4.95 -12.6 -8.45 -4.0 -7.85 Q6.05 -7.75 15.05 -4.1 L17.05 -0.25 Q8.4 -3.5 -2.8 -4.5 M18.55 7.05 L18.3 10.05 Q4.95 3.3 -11.0 3.4 L-10.9 0.6 -6.95 0.75 Q6.7 1.5 18.55 7.05" fill="#ffffff" fill-rule="evenodd" stroke="none"/>
    <path d="M-2.8 -4.5 Q8.4 -3.5 17.05 -0.25 18.5 3.35 18.55 7.05 6.7 1.5 -6.95 0.75 -2.8 -1.4 -2.8 -4.5" fill="#660000" fill-rule="evenodd" stroke="none"/>
    <path d="M17.05 -0.25 L15.05 -4.1 Q6.05 -7.75 -4.0 -7.85 L-12.6 -8.45 -12.3 -4.95 -2.8 -4.5 Q8.4 -3.5 17.05 -0.25 18.5 3.35 18.55 7.05 L18.3 10.05 Q4.95 3.3 -11.0 3.4 L-15.25 3.5 M-12.6 -8.45 L-15.2 -8.95 Q-17.15 -9.4 -18.55 -10.05" fill="none" stroke="#000000" stroke-linecap="round" stroke-linejoin="round" stroke-width="1.0"/>
    <path d="M-6.95 0.75 L-10.9 0.6 -11.0 3.4 M-2.8 -4.5 Q-2.8 -1.4 -6.95 0.75 6.7 1.5 18.55 7.05" fill="none" stroke="#000000" stroke-linecap="round" stroke-linejoin="round" stroke-width="1.0"/>
  </g>
</svg>
