<?xml version="1.0" encoding="UTF-8" standalone="no"?>
<svg xmlns:ffdec="https://www.free-decompiler.com/flash" xmlns:xlink="http://www.w3.org/1999/xlink" ffdec:objectType="shape" height="17.4px" width="31.3px" xmlns="http://www.w3.org/2000/svg">
  <g transform="matrix(1.0, 0.0, 0.0, 1.0, 15.65, 8.7)">
    <path d="M-11.35 -5.8 Q-6.1 -5.7 -0.25 -7.15 7.65 -9.15 13.55 -7.35 14.5 -5.4 14.9 -3.55 3.35 -4.4 -10.2 -3.7 L-11.8 -3.65 -11.35 -5.8 M13.95 4.0 Q12.75 6.25 10.4 8.2 1.75 5.25 -10.65 4.65 L-11.05 2.5 -9.75 2.55 13.95 4.0" fill="#ffffff" fill-rule="evenodd" stroke="none"/>
    <path d="M14.9 -3.55 Q15.75 0.55 13.95 4.0 L-9.75 2.55 Q-7.8 -0.85 -10.2 -3.7 3.35 -4.4 14.9 -3.55" fill="#660000" fill-rule="evenodd" stroke="none"/>
    <path d="M-11.35 -5.8 Q-6.1 -5.7 -0.25 -7.15 7.65 -9.15 13.55 -7.35 14.5 -5.4 14.9 -3.55 15.75 0.55 13.95 4.0 12.75 6.25 10.4 8.2 1.75 5.25 -10.65 4.65 L-13.45 4.55 M-11.35 -5.8 L-15.15 -6.15 M-10.2 -3.7 L-11.8 -3.65 -11.35 -5.8 M-9.75 2.55 L-11.05 2.5 -10.65 4.65 M-9.75 2.55 L13.95 4.0 M-10.2 -3.7 Q-7.8 -0.85 -9.75 2.55 M14.9 -3.55 Q3.35 -4.4 -10.2 -3.7" fill="none" stroke="#000000" stroke-linecap="round" stroke-linejoin="round" stroke-width="1.0"/>
  </g>
</svg>
