<?xml version="1.0" encoding="UTF-8" standalone="no"?>
<svg xmlns:ffdec="https://www.free-decompiler.com/flash" xmlns:xlink="http://www.w3.org/1999/xlink" ffdec:objectType="shape" height="6.2px" width="43.85px" xmlns="http://www.w3.org/2000/svg">
  <g transform="matrix(1.0, 0.0, 0.0, 1.0, 22.0, 3.1)">
    <path d="M6.2 -2.25 L21.35 -2.25 Q21.8 0.25 20.9 2.45 L15.95 2.6 16.1 1.8 Q16.1 1.05 15.55 0.5 15.05 0.0 14.3 0.0 13.55 0.0 13.0 0.5 12.5 1.05 12.5 1.8 L12.6 2.45 7.0 1.65 Q6.3 -0.15 6.2 -2.25 M14.5 1.25 L14.3 1.55 Q13.7 1.95 13.35 1.35 L13.3 0.9 13.5 0.6 13.9 0.5 13.9 0.45 14.15 0.55 14.3 0.6 14.45 0.8 14.5 1.1 14.5 1.25 M-21.5 -2.6 L-6.1 -2.6 Q-5.9 -0.5 -6.65 1.6 L-12.65 2.35 -12.55 1.75 Q-12.55 1.0 -13.1 0.45 -13.6 -0.05 -14.35 -0.05 -15.1 -0.05 -15.65 0.45 -16.15 1.0 -16.15 1.75 L-16.0 2.45 -20.65 2.25 Q-21.6 0.2 -21.5 -2.6 M-14.35 1.45 Q-14.95 1.85 -15.3 1.3 L-15.35 0.8 -15.15 0.55 -14.75 0.4 -14.75 0.35 -14.5 0.45 -14.35 0.55 -14.2 0.7 -14.15 1.0 -14.2 1.2 -14.35 1.45" fill="#ffffff" fill-rule="evenodd" stroke="none"/>
    <path d="M15.95 2.6 L12.6 2.45 12.5 1.8 Q12.5 1.05 13.0 0.5 13.55 0.0 14.3 0.0 15.05 0.0 15.55 0.5 16.1 1.05 16.1 1.8 L15.95 2.6 M14.5 1.25 L14.5 1.1 14.45 0.8 14.3 0.6 14.15 0.55 13.9 0.45 13.9 0.5 13.5 0.6 13.3 0.9 13.35 1.35 Q13.7 1.95 14.3 1.55 L14.5 1.25 M-16.0 2.45 L-16.15 1.75 Q-16.15 1.0 -15.65 0.45 -15.1 -0.05 -14.35 -0.05 -13.6 -0.05 -13.1 0.45 -12.55 1.0 -12.55 1.75 L-12.65 2.35 -16.0 2.45 M-14.35 1.45 L-14.2 1.2 -14.15 1.0 -14.2 0.7 -14.35 0.55 -14.5 0.45 -14.75 0.35 -14.75 0.4 -15.15 0.55 -15.35 0.8 -15.3 1.3 Q-14.95 1.85 -14.35 1.45" fill="#000000" fill-rule="evenodd" stroke="none"/>
    <path d="M6.2 -2.25 L21.35 -2.25 M20.9 2.45 L15.95 2.6 12.6 2.45 7.0 1.65 M-6.1 -2.6 L-21.5 -2.6 M-20.65 2.25 L-16.0 2.45 -12.65 2.35 -6.65 1.6" fill="none" stroke="#000000" stroke-linecap="round" stroke-linejoin="round" stroke-width="1.0"/>
  </g>
</svg>
