<?xml version="1.0" encoding="UTF-8" standalone="no"?>
<svg xmlns:ffdec="https://www.free-decompiler.com/flash" xmlns:xlink="http://www.w3.org/1999/xlink" ffdec:objectType="shape" height="357.95px" width="132.4px" xmlns="http://www.w3.org/2000/svg">
  <g transform="matrix(1.0, 0.0, 0.0, 1.0, 39.45, 567.95)">
    <path d="M-33.95 -292.0 L-30.95 -367.0 15.05 -339.0 7.05 -286.0 18.0 -215.0" fill="none" stroke="#000000" stroke-linecap="round" stroke-linejoin="round" stroke-width="10.0"/>
    <path d="M54.0 -457.0 Q28.95 -411.7 15.05 -339.0" fill="none" stroke="#000000" stroke-linecap="round" stroke-linejoin="round" stroke-width="10.0"/>
    <path d="M-36.95 -294.0 L-33.95 -369.0 12.05 -341.0 4.05 -288.0 15.0 -217.0" fill="none" stroke="#2c2c2c" stroke-linecap="round" stroke-linejoin="round" stroke-width="5.0"/>
    <path d="M51.0 -459.2 Q25.95 -413.9 12.05 -341.2" fill="none" stroke="#2c2c2c" stroke-linecap="round" stroke-linejoin="round" stroke-width="5.0"/>
    <path d="M76.0 -556.3 L87.95 -493.95 54.0 -457.0 13.95 -515.95 32.9 -562.95" fill="none" stroke="#000000" stroke-linecap="round" stroke-linejoin="round" stroke-width="10.0"/>
    <path d="M73.0 -558.5 L84.95 -496.15 51.0 -459.2 10.95 -518.15 29.9 -565.15" fill="none" stroke="#2c2c2c" stroke-linecap="round" stroke-linejoin="round" stroke-width="5.0"/>
  </g>
</svg>
