<?xml version="1.0" encoding="UTF-8" standalone="no"?>
<svg xmlns:ffdec="https://www.free-decompiler.com/flash" xmlns:xlink="http://www.w3.org/1999/xlink" ffdec:objectType="shape" height="357.95px" width="132.4px" xmlns="http://www.w3.org/2000/svg">
  <g transform="matrix(1.0, 0.0, 0.0, 1.0, 45.45, 515.95)">
    <path d="M12.0 -163.0 L1.05 -234.0 9.05 -287.0 -36.95 -315.0 -39.95 -240.0" fill="none" stroke="#000000" stroke-linecap="round" stroke-linejoin="round" stroke-width="10.0"/>
    <path d="M48.0 -405.0 Q26.35 -363.55 9.05 -287.0" fill="none" stroke="#000000" stroke-linecap="round" stroke-linejoin="round" stroke-width="10.0"/>
    <path d="M9.0 -165.0 L-1.95 -236.0 6.05 -289.0 -39.95 -317.0 -42.95 -242.0" fill="none" stroke="#2c2c2c" stroke-linecap="round" stroke-linejoin="round" stroke-width="5.0"/>
    <path d="M45.0 -407.2 Q23.35 -365.75 6.05 -289.2" fill="none" stroke="#2c2c2c" stroke-linecap="round" stroke-linejoin="round" stroke-width="5.0"/>
    <path d="M70.0 -504.3 L81.95 -441.95 48.0 -405.0 7.95 -463.95 26.9 -510.95" fill="none" stroke="#000000" stroke-linecap="round" stroke-linejoin="round" stroke-width="10.0"/>
    <path d="M67.0 -506.5 L78.95 -444.15 45.0 -407.2 4.95 -466.15 23.9 -513.15" fill="none" stroke="#2c2c2c" stroke-linecap="round" stroke-linejoin="round" stroke-width="5.0"/>
  </g>
</svg>
