<?xml version="1.0" encoding="UTF-8" standalone="no"?>
<svg xmlns:ffdec="https://www.free-decompiler.com/flash" xmlns:xlink="http://www.w3.org/1999/xlink" ffdec:objectType="shape" height="357.95px" width="132.4px" xmlns="http://www.w3.org/2000/svg">
  <g transform="matrix(1.0, 0.0, 0.0, 1.0, 47.45, 445.95)">
    <path d="M10.0 -93.0 L-0.95 -164.0 7.05 -217.0 -38.95 -245.0 -41.95 -170.0" fill="none" stroke="#000000" stroke-linecap="round" stroke-linejoin="round" stroke-width="10.0"/>
    <path d="M46.0 -335.0 Q23.8 -290.45 7.05 -217.0" fill="none" stroke="#000000" stroke-linecap="round" stroke-linejoin="round" stroke-width="10.0"/>
    <path d="M7.0 -95.0 L-3.95 -166.0 4.05 -219.0 -41.95 -247.0 -44.95 -172.0" fill="none" stroke="#2c2c2c" stroke-linecap="round" stroke-linejoin="round" stroke-width="5.0"/>
    <path d="M43.0 -337.2 Q20.8 -292.65 4.05 -219.2" fill="none" stroke="#2c2c2c" stroke-linecap="round" stroke-linejoin="round" stroke-width="5.0"/>
    <path d="M68.0 -434.3 L79.95 -371.95 46.0 -335.0 5.95 -393.95 24.9 -440.95" fill="none" stroke="#000000" stroke-linecap="round" stroke-linejoin="round" stroke-width="10.0"/>
    <path d="M65.0 -436.5 L76.95 -374.15 43.0 -337.2 2.95 -396.15 21.9 -443.15" fill="none" stroke="#2c2c2c" stroke-linecap="round" stroke-linejoin="round" stroke-width="5.0"/>
  </g>
</svg>
