<?xml version="1.0" encoding="UTF-8" standalone="no"?>
<svg xmlns:ffdec="https://www.free-decompiler.com/flash" xmlns:xlink="http://www.w3.org/1999/xlink" ffdec:objectType="shape" height="358.95px" width="129.6px" xmlns="http://www.w3.org/2000/svg">
  <g transform="matrix(1.0, 0.0, 0.0, 1.0, 49.9, 360.3)">
    <path d="M10.2 -6.35 L-3.2 -76.85 2.9 -130.1 -44.0 -156.45 -44.4 -81.45" fill="none" stroke="#000000" stroke-linecap="round" stroke-linejoin="round" stroke-width="10.0"/>
    <path d="M37.7 -249.35 Q16.6 -203.85 2.9 -130.1" fill="none" stroke="#000000" stroke-linecap="round" stroke-linejoin="round" stroke-width="10.0"/>
    <path d="M7.2 -8.35 L-6.2 -78.85 -0.1 -132.1 -47.0 -158.45 -47.4 -83.45" fill="none" stroke="#2c2c2c" stroke-linecap="round" stroke-linejoin="round" stroke-width="5.0"/>
    <path d="M34.7 -251.55 Q13.6 -206.05 -0.1 -132.3" fill="none" stroke="#2c2c2c" stroke-linecap="round" stroke-linejoin="round" stroke-width="5.0"/>
    <path d="M62.75 -348.65 L74.7 -286.3 40.75 -249.35 0.7 -308.3 19.65 -355.3" fill="none" stroke="#000000" stroke-linecap="round" stroke-linejoin="round" stroke-width="10.0"/>
    <path d="M59.75 -350.85 L71.7 -288.5 37.75 -251.55 -2.3 -310.5 16.65 -357.5" fill="none" stroke="#2c2c2c" stroke-linecap="round" stroke-linejoin="round" stroke-width="5.0"/>
  </g>
</svg>
