<?xml version="1.0" encoding="UTF-8" standalone="no"?>
<svg xmlns:ffdec="https://www.free-decompiler.com/flash" xmlns:xlink="http://www.w3.org/1999/xlink" ffdec:objectType="shape" height="360.1px" width="122.65px" xmlns="http://www.w3.org/2000/svg">
  <g transform="matrix(1.0, 0.0, 0.0, 1.0, 53.45, 271.3)">
    <path d="M15.55 83.8 L-1.6 14.05 1.75 -39.45 -46.5 -63.3 -47.95 11.65" fill="none" stroke="#000000" stroke-linecap="round" stroke-linejoin="round" stroke-width="10.0"/>
    <path d="M30.25 -160.35 Q11.25 -110.05 1.75 -39.45" fill="none" stroke="#000000" stroke-linecap="round" stroke-linejoin="round" stroke-width="10.0"/>
    <path d="M12.55 81.8 L-4.6 12.05 -1.25 -41.45 -49.5 -65.3 -50.95 9.65" fill="none" stroke="#2c2c2c" stroke-linecap="round" stroke-linejoin="round" stroke-width="5.0"/>
    <path d="M27.25 -162.55 Q8.25 -112.25 -1.25 -41.65" fill="none" stroke="#2c2c2c" stroke-linecap="round" stroke-linejoin="round" stroke-width="5.0"/>
    <path d="M52.25 -259.65 L64.2 -197.3 30.25 -160.35 -9.8 -219.3 9.15 -266.3" fill="none" stroke="#000000" stroke-linecap="round" stroke-linejoin="round" stroke-width="10.0"/>
    <path d="M49.25 -261.85 L61.2 -199.5 27.25 -162.55 -12.8 -221.5 6.15 -268.5" fill="none" stroke="#2c2c2c" stroke-linecap="round" stroke-linejoin="round" stroke-width="5.0"/>
  </g>
</svg>
