<?xml version="1.0" encoding="UTF-8" standalone="no"?>
<svg xmlns:ffdec="https://www.free-decompiler.com/flash" xmlns:xlink="http://www.w3.org/1999/xlink" ffdec:objectType="shape" height="349.45px" width="128.3px" xmlns="http://www.w3.org/2000/svg">
  <g transform="matrix(1.0, 0.0, 0.0, 1.0, 52.95, 187.25)">
    <path d="M33.95 157.2 L11.95 88.85 11.55 35.25 -38.3 14.85 -47.45 89.35" fill="none" stroke="#000000" stroke-linecap="round" stroke-linejoin="round" stroke-width="10.0"/>
    <path d="M31.4 -87.3 Q17.5 -27.7 11.55 35.25" fill="none" stroke="#000000" stroke-linecap="round" stroke-linejoin="round" stroke-width="10.0"/>
    <path d="M30.95 155.2 L8.95 86.85 8.55 33.25 -41.3 12.85 -50.45 87.35" fill="none" stroke="#2c2c2c" stroke-linecap="round" stroke-linejoin="round" stroke-width="5.0"/>
    <path d="M28.4 -89.5 Q14.5 -29.9 8.55 33.05" fill="none" stroke="#2c2c2c" stroke-linecap="round" stroke-linejoin="round" stroke-width="5.0"/>
    <path d="M66.4 -176.6 L70.35 -111.25 31.4 -87.3 -17.65 -134.25 -8.7 -182.25" fill="none" stroke="#000000" stroke-linecap="round" stroke-linejoin="round" stroke-width="10.0"/>
    <path d="M63.9 -176.2 L67.35 -113.45 28.4 -89.5 -20.65 -136.45 -11.7 -184.45" fill="none" stroke="#2c2c2c" stroke-linecap="round" stroke-linejoin="round" stroke-width="5.0"/>
  </g>
</svg>
