<?xml version="1.0" encoding="UTF-8" standalone="no"?>
<svg xmlns:ffdec="https://www.free-decompiler.com/flash" xmlns:xlink="http://www.w3.org/1999/xlink" ffdec:objectType="shape" height="239.3px" width="155.1px" xmlns="http://www.w3.org/2000/svg">
  <g transform="matrix(1.0, 0.0, 0.0, 1.0, 84.9, 77.1)">
    <path d="M33.95 157.2 L-1.95 94.2 12.65 74.8 -54.4 54.5 -65.9 120.5" fill="none" stroke="#000000" stroke-linecap="round" stroke-linejoin="round" stroke-width="10.0"/>
    <path d="M5.2 -39.15 Q-2.3 20.8 12.65 74.8" fill="none" stroke="#000000" stroke-linecap="round" stroke-linejoin="round" stroke-width="10.0"/>
    <path d="M30.95 155.2 L-4.95 92.2 9.65 72.8 -57.4 52.5 -68.9 118.5" fill="none" stroke="#2c2c2c" stroke-linecap="round" stroke-linejoin="round" stroke-width="5.0"/>
    <path d="M2.2 -41.35 Q-5.3 18.6 9.65 72.6" fill="none" stroke="#2c2c2c" stroke-linecap="round" stroke-linejoin="round" stroke-width="5.0"/>
    <path d="M65.2 -62.45 L45.15 -36.1 5.2 -39.15 -58.85 -47.1 -79.9 -72.1" fill="none" stroke="#000000" stroke-linecap="round" stroke-linejoin="round" stroke-width="10.0"/>
    <path d="M63.35 -64.25 L42.15 -38.3 2.2 -41.35 -61.85 -49.3 -82.05 -72.95" fill="none" stroke="#2c2c2c" stroke-linecap="round" stroke-linejoin="round" stroke-width="5.0"/>
  </g>
</svg>
