<?xml version="1.0" encoding="UTF-8" standalone="no"?>
<svg xmlns:ffdec="https://www.free-decompiler.com/flash" xmlns:xlink="http://www.w3.org/1999/xlink" ffdec:objectType="shape" height="12.4px" width="63.45px" xmlns="http://www.w3.org/2000/svg">
  <g transform="matrix(1.0, 0.0, 0.0, 1.0, 165.05, 74.0)">
    <path d="M-154.2 -68.75 L-104.1 -65.15" fill="none" stroke="#2c2c2c" stroke-linecap="round" stroke-linejoin="round" stroke-width="5.0"/>
    <path d="M-164.9 -64.55 L-164.7 -64.8 Q-163.55 -65.2 -162.45 -65.75 L-162.0 -65.95 Q-160.7 -66.3 -159.95 -65.35 L-159.85 -65.15 -159.8 -64.95 Q-159.75 -64.6 -160.0 -64.3 L-160.15 -64.1 Q-162.85 -62.35 -165.05 -63.75 L-165.05 -63.95 -164.9 -64.55 M-147.85 -63.45 Q-148.35 -60.95 -151.05 -61.85 -151.4 -62.1 -151.35 -62.5 L-151.3 -62.95 Q-150.3 -64.05 -148.85 -64.25 -148.2 -64.2 -147.95 -63.65 L-147.85 -63.45 M-157.55 -73.15 L-157.5 -72.95 Q-157.45 -72.6 -157.7 -72.3 L-157.85 -72.1 Q-159.1 -71.75 -160.25 -71.05 L-160.55 -70.95 Q-161.2 -71.05 -161.5 -71.55 L-161.65 -72.15 Q-161.15 -73.35 -159.9 -73.75 L-159.4 -73.95 Q-158.3 -74.2 -157.65 -73.35 L-157.55 -73.15" fill="#bbbbff" fill-rule="evenodd" stroke="none"/>
  </g>
</svg>
