<?xml version="1.0" encoding="UTF-8" standalone="no"?>
<svg xmlns:ffdec="https://www.free-decompiler.com/flash" xmlns:xlink="http://www.w3.org/1999/xlink" ffdec:objectType="shape" height="20.1px" width="72.4px" xmlns="http://www.w3.org/2000/svg">
  <g transform="matrix(1.0, 0.0, 0.0, 1.0, 176.5, 77.35)">
    <path d="M-156.55 -72.9 L-106.6 -61.5" fill="none" stroke="#2c2c2c" stroke-linecap="round" stroke-linejoin="round" stroke-width="5.0"/>
    <path d="M-172.5 -75.75 Q-171.7 -77.25 -170.0 -77.35 -169.2 -77.45 -168.8 -76.8 L-168.7 -76.6 -168.7 -76.15 -168.85 -75.75 Q-169.5 -75.1 -170.4 -74.85 -170.85 -73.8 -171.9 -74.25 L-172.4 -74.7 -172.5 -74.85 -172.5 -75.3 -172.5 -75.75 M-174.55 -62.5 Q-173.75 -62.6 -173.35 -61.95 L-173.3 -61.75 -173.3 -61.3 -173.4 -60.85 Q-174.4 -59.35 -175.9 -59.35 L-176.35 -59.85 -176.5 -60.25 Q-176.2 -61.55 -175.0 -62.3 L-174.55 -62.5 M-157.3 -58.95 L-157.2 -58.75 -157.15 -58.55 -157.3 -57.95 -157.45 -57.8 Q-158.05 -57.4 -158.65 -57.35 L-158.9 -57.25 -159.35 -57.4 -159.85 -57.6 -160.0 -57.8 -160.1 -58.35 -160.05 -58.55 -159.6 -59.15 -158.9 -59.45 Q-157.85 -59.7 -157.3 -58.95" fill="#bbbbff" fill-rule="evenodd" stroke="none"/>
  </g>
</svg>
