<?xml version="1.0" encoding="UTF-8" standalone="no"?>
<svg xmlns:ffdec="https://www.free-decompiler.com/flash" xmlns:xlink="http://www.w3.org/1999/xlink" ffdec:objectType="shape" height="27.15px" width="81.8px" xmlns="http://www.w3.org/2000/svg">
  <g transform="matrix(1.0, 0.0, 0.0, 1.0, 187.65, 78.85)">
    <path d="M-156.3 -75.35 L-108.35 -58.9" fill="none" stroke="#2c2c2c" stroke-linecap="round" stroke-linejoin="round" stroke-width="5.0"/>
    <path d="M-186.2 -75.3 Q-187.25 -75.1 -187.65 -76.0 -187.6 -77.7 -186.15 -78.65 L-185.7 -78.85 Q-184.9 -78.95 -184.5 -78.3 L-184.4 -78.1 Q-184.7 -76.7 -185.9 -75.55 L-186.2 -75.3 M-185.4 -58.85 Q-184.65 -58.95 -184.25 -58.3 L-184.15 -58.1 Q-184.3 -55.75 -186.5 -55.65 L-186.9 -56.15 -187.05 -56.5 -186.5 -58.0 -186.3 -58.45 -185.75 -58.75 -185.4 -58.85 M-166.35 -54.1 L-166.25 -53.9 Q-166.45 -51.8 -168.4 -51.7 L-168.8 -52.1 -168.9 -52.3 Q-169.0 -54.15 -167.15 -54.6 L-166.35 -54.1" fill="#bbbbff" fill-rule="evenodd" stroke="none"/>
  </g>
</svg>
