<?xml version="1.0" encoding="UTF-8" standalone="no"?>
<svg xmlns:ffdec="https://www.free-decompiler.com/flash" xmlns:xlink="http://www.w3.org/1999/xlink" ffdec:objectType="shape" height="35.45px" width="95.9px" xmlns="http://www.w3.org/2000/svg">
  <g transform="matrix(1.0, 0.0, 0.0, 1.0, 202.8, 79.05)">
    <path d="M-154.15 -76.55 L-109.4 -57.35" fill="none" stroke="#2c2c2c" stroke-linecap="round" stroke-linejoin="round" stroke-width="5.0"/>
    <path d="M-200.85 -75.35 Q-201.45 -74.75 -202.2 -75.1 L-202.7 -75.55 -202.8 -75.75 -202.8 -76.8 -202.8 -77.45 -202.45 -77.85 -202.05 -78.3 -201.75 -78.4 -201.4 -78.5 Q-200.8 -78.45 -200.5 -77.95 L-200.4 -77.75 -200.7 -76.0 -200.85 -75.35 M-194.05 -53.3 Q-193.35 -52.3 -193.6 -51.15 L-193.8 -50.75 Q-194.55 -50.05 -195.35 -50.75 -195.95 -51.6 -195.9 -52.65 L-195.85 -53.1 Q-195.5 -53.6 -194.85 -53.6 L-194.85 -53.65 -194.35 -53.5 -194.05 -53.3 M-175.0 -46.9 L-174.75 -46.7 Q-174.05 -45.6 -173.8 -44.35 L-173.9 -44.0 Q-174.15 -43.55 -174.65 -43.6 L-175.1 -43.7 Q-177.15 -45.3 -175.7 -46.9 L-175.45 -47.05 -175.0 -46.9" fill="#bbbbff" fill-rule="evenodd" stroke="none"/>
  </g>
</svg>
