<?xml version="1.0" encoding="UTF-8" standalone="no"?>
<svg xmlns:ffdec="https://www.free-decompiler.com/flash" xmlns:xlink="http://www.w3.org/1999/xlink" ffdec:objectType="shape" height="44.25px" width="106.45px" xmlns="http://www.w3.org/2000/svg">
  <g transform="matrix(1.0, 0.0, 0.0, 1.0, 213.7, 79.5)">
    <path d="M-153.35 -77.0 L-109.75 -56.85" fill="none" stroke="#2c2c2c" stroke-linecap="round" stroke-linejoin="round" stroke-width="5.0"/>
    <path d="M-211.8 -74.1 L-211.65 -73.95 Q-211.35 -73.1 -211.65 -72.25 L-211.85 -71.8 -213.35 -71.85 Q-214.2 -73.4 -212.9 -74.4 L-212.55 -74.5 -211.8 -74.1 M-179.4 -37.4 Q-178.65 -37.1 -178.4 -36.45 L-178.35 -36.25 Q-178.45 -35.6 -179.0 -35.35 L-179.3 -35.25 Q-181.4 -35.5 -181.3 -37.55 L-181.25 -37.75 -180.7 -38.25 -180.35 -38.3 -179.9 -38.15 -179.65 -38.0 -179.55 -37.8 -179.4 -37.4 M-201.7 -45.65 Q-200.4 -45.25 -199.85 -44.0 L-199.8 -43.8 Q-199.85 -43.25 -200.3 -43.0 L-200.85 -42.75 Q-202.55 -43.2 -202.8 -44.8 L-202.05 -45.55 -201.7 -45.65" fill="#bbbbff" fill-rule="evenodd" stroke="none"/>
  </g>
</svg>
