<?xml version="1.0" encoding="UTF-8" standalone="no"?>
<svg xmlns:ffdec="https://www.free-decompiler.com/flash" xmlns:xlink="http://www.w3.org/1999/xlink" ffdec:objectType="shape" height="41.05px" width="39.6px" xmlns="http://www.w3.org/2000/svg">
  <g transform="matrix(1.0, 0.0, 0.0, 1.0, 221.1, 69.35)">
    <path d="M-220.0 -69.35 L-219.5 -69.2 -219.2 -69.0 Q-218.8 -68.2 -218.75 -67.3 L-218.85 -66.85 -219.25 -66.55 -219.7 -66.35 Q-220.6 -66.55 -221.0 -67.35 -221.35 -68.5 -220.45 -69.15 -220.15 -69.3 -220.0 -69.35 M-203.85 -38.3 L-203.8 -38.1 -203.9 -37.65 Q-204.0 -37.3 -204.35 -37.1 L-205.4 -36.95 -205.9 -37.1 -206.6 -37.75 -206.8 -38.35 Q-206.85 -38.8 -206.5 -39.05 L-205.7 -39.35 Q-204.4 -39.25 -203.85 -38.3 M-181.5 -29.2 L-181.5 -29.0 Q-181.6 -28.6 -182.0 -28.45 L-182.45 -28.3 Q-183.55 -28.5 -183.65 -29.6 L-183.15 -30.35 -182.7 -30.5 Q-181.6 -30.25 -181.5 -29.2" fill="#bbbbff" fill-rule="evenodd" stroke="none"/>
  </g>
</svg>
