<?xml version="1.0" encoding="UTF-8" standalone="no"?>
<svg xmlns:ffdec="https://www.free-decompiler.com/flash" xmlns:xlink="http://www.w3.org/1999/xlink" ffdec:objectType="shape" height="326.55px" width="133.0px" xmlns="http://www.w3.org/2000/svg">
  <g transform="matrix(1.0, 0.0, 0.0, 1.0, 68.9, 163.25)">
    <path d="M34.75 158.3 L12.3 89.5 -3.65 29.75 -40.4 89.5 -53.1 157.2" fill="none" stroke="#000000" stroke-linecap="round" stroke-linejoin="round" stroke-width="10.0"/>
    <path d="M7.1 -73.95 Q13.2 -22.2 -3.65 29.75" fill="none" stroke="#000000" stroke-linecap="round" stroke-linejoin="round" stroke-width="10.0"/>
    <path d="M31.75 156.3 L9.3 87.5 -6.65 27.75 -43.4 87.5 -56.1 155.2" fill="none" stroke="#2c2c2c" stroke-linecap="round" stroke-linejoin="round" stroke-width="5.0"/>
    <path d="M4.1 -76.15 Q10.2 -24.4 -6.65 27.55" fill="none" stroke="#2c2c2c" stroke-linecap="round" stroke-linejoin="round" stroke-width="5.0"/>
    <path d="M38.8 13.75 L59.1 -39.4 7.1 -73.95 -56.8 -103.8 -63.9 -158.25" fill="none" stroke="#000000" stroke-linecap="round" stroke-linejoin="round" stroke-width="10.0"/>
    <path d="M35.8 11.55 L56.1 -41.6 4.1 -76.15 -59.8 -106.0" fill="none" stroke="#2c2c2c" stroke-linecap="round" stroke-linejoin="round" stroke-width="5.0"/>
    <path d="M-59.8 -106.0 L-66.35 -158.65" fill="none" stroke="#2c2c2c" stroke-linecap="round" stroke-linejoin="round" stroke-width="5.0"/>
  </g>
</svg>
