<?xml version="1.0" encoding="UTF-8" standalone="no"?>
<svg xmlns:ffdec="https://www.free-decompiler.com/flash" xmlns:xlink="http://www.w3.org/1999/xlink" ffdec:objectType="shape" height="221.35px" width="121.15px" xmlns="http://www.w3.org/2000/svg">
  <g transform="matrix(1.0, 0.0, 0.0, 1.0, 71.35, 58.05)">
    <path d="M34.75 158.3 L11.3 94.5 -2.65 42.75 -42.3 100.5 -53.1 157.2" fill="none" stroke="#000000" stroke-linecap="round" stroke-linejoin="round" stroke-width="10.0"/>
    <path d="M2.4 -53.05 Q8.45 0.6 -2.65 42.75" fill="none" stroke="#000000" stroke-linecap="round" stroke-linejoin="round" stroke-width="10.0"/>
    <path d="M31.75 156.3 L8.3 92.5 -5.65 40.75 -45.3 98.5 -56.1 155.2" fill="none" stroke="#2c2c2c" stroke-linecap="round" stroke-linejoin="round" stroke-width="5.0"/>
    <path d="M-0.6 -55.25 Q5.45 -1.6 -5.65 40.55" fill="none" stroke="#2c2c2c" stroke-linecap="round" stroke-linejoin="round" stroke-width="5.0"/>
    <path d="M4.35 35.75 L44.8 -15.1 2.4 -53.05" fill="none" stroke="#000000" stroke-linecap="round" stroke-linejoin="round" stroke-width="10.0"/>
    <path d="M1.35 33.55 L41.8 -17.3 -0.6 -55.25" fill="none" stroke="#2c2c2c" stroke-linecap="round" stroke-linejoin="round" stroke-width="5.0"/>
    <path d="M-66.35 -47.55 L-47.55 2.1 2.4 -53.05" fill="none" stroke="#000000" stroke-linecap="round" stroke-linejoin="round" stroke-width="10.0"/>
    <path d="M-68.7 -47.85 L-50.55 -0.1 -0.6 -55.25" fill="none" stroke="#2c2c2c" stroke-linecap="round" stroke-linejoin="round" stroke-width="5.0"/>
  </g>
</svg>
