<?xml version="1.0" encoding="UTF-8" standalone="no"?>
<svg xmlns:ffdec="https://www.free-decompiler.com/flash" xmlns:xlink="http://www.w3.org/1999/xlink" ffdec:objectType="shape" height="241.15px" width="109.15px" xmlns="http://www.w3.org/2000/svg">
  <g transform="matrix(1.0, 0.0, 0.0, 1.0, 64.0, 121.0)">
    <path d="M-11.5 -76.35 L-10.0 -78.2 -7.5 -78.35 -3.85 -79.5 -1.35 -72.7 0.3 -70.2 2.0 -71.7 2.5 -73.2 4.15 -77.2 7.5 -77.85 Q8.65 -78.35 11.15 -75.7 L10.15 -71.35 7.15 -65.85 Q-3.2 -54.0 -11.5 -76.35" fill="#b09e48" fill-rule="evenodd" stroke="none"/>
    <path d="M-10.0 -78.2 L-1.35 -87.85 -0.2 -82.5 -1.2 -81.2 -3.85 -79.5 -7.5 -78.35 -10.0 -78.2" fill="#bba646" fill-rule="evenodd" stroke="none"/>
    <path d="M-1.35 -87.85 L6.3 -96.7 8.65 -98.7 27.5 -61.0 27.5 -60.2 36.0 -44.0 36.15 41.65 36.0 42.8 8.65 98.0 -2.2 86.5 -3.35 84.65 12.8 54.8 13.0 54.8 13.5 57.0 Q15.15 62.5 24.5 59.65 28.5 57.15 28.15 56.0 L27.0 50.3 26.8 49.5 26.8 48.65 25.8 47.65 22.5 46.8 22.3 37.15 22.3 36.0 23.5 27.8 23.5 27.5 24.5 25.15 27.0 25.3 28.15 25.15 28.65 25.0 Q36.65 22.5 34.65 16.0 33.0 12.15 30.65 11.5 L26.3 11.15 23.3 11.65 22.3 6.5 Q21.65 3.65 19.5 2.5 L19.5 -5.5 Q22.0 -9.7 22.3 -15.2 L22.65 -30.7 21.3 -39.2 Q20.0 -43.7 18.3 -45.35 L18.3 -45.5 18.0 -45.85 7.15 -65.85 10.15 -71.35 13.0 -72.0 14.65 -73.85 14.8 -74.85 16.0 -81.5 Q14.3 -84.7 11.15 -85.5 4.5 -87.2 1.8 -84.85 L-0.2 -79.85 -1.2 -81.2 -0.2 -82.5 -1.35 -87.85" fill="#987b17" fill-rule="evenodd" stroke="none"/>
    <path d="M-0.2 -97.2 L8.65 -99.0 13.15 -120.7 Q22.15 -76.2 45.15 -51.85 L41.65 -17.0 41.65 16.15 45.15 49.8 45.15 51.0 32.65 65.65 23.0 86.0 14.3 116.3 Q13.5 120.0 12.8 120.15 L-0.2 96.15 -13.7 81.65 -32.5 72.65 -29.2 24.5 -29.2 -25.2 -32.7 -73.35 -13.7 -82.35 -0.2 -97.2 M-3.35 84.65 L-2.2 86.5 8.65 98.0 36.0 42.8 36.15 41.65 36.0 -44.0 27.5 -60.2 27.5 -61.0 8.65 -98.7 6.3 -96.7 -1.35 -87.85 -10.0 -78.2 -11.5 -76.35 -28.0 -58.2 -28.0 18.3 -28.0 29.65 -28.0 39.0 -27.85 40.15 -27.85 40.8 -28.2 55.15 -27.85 55.3 -27.85 57.5 -27.0 58.15 -17.2 69.15 -3.35 84.65" fill="#fdf25b" fill-rule="evenodd" stroke="none"/>
    <path d="M12.65 -120.7 L-0.2 -97.2 -13.7 -82.35 -32.7 -73.35 -29.2 -25.2 -29.2 24.5 -32.5 72.65 -13.7 81.65 -0.2 96.15 12.8 120.15 -13.7 117.8 -25.7 94.8 -40.5 80.0 -64.0 70.8 -57.35 21.0 -57.35 -22.2 -64.0 -71.35 -63.7 -71.85 -40.85 -80.5 -25.7 -95.7 12.65 -120.7" fill="#564108" fill-rule="evenodd" stroke="none"/>
    <path d="M-17.0 56.3 L-19.0 56.3 Q-18.0 31.8 -22.35 27.8 L-22.35 -56.85 -21.35 -57.35 -17.0 -57.35 -17.0 56.3" fill="#555555" fill-rule="evenodd" stroke="none"/>
    <path d="M1.8 -27.7 L1.3 -27.85 -3.5 -28.35 -3.5 -29.0 4.5 -28.0 5.5 -28.0 9.65 -26.85 4.65 -27.0 4.3 -27.2 1.8 -27.7 M5.5 9.15 L10.15 9.5 5.65 9.5 5.3 9.3 4.8 9.3 5.5 9.15 M16.15 46.15 L15.3 46.8 10.3 49.8 -16.35 56.15 -10.35 51.8 7.8 48.5 16.15 46.15 M-26.2 21.15 L-26.0 -51.5 Q-26.5 -52.7 -22.35 -56.85 L-22.35 27.8 -23.85 25.15 -26.0 22.8 -26.2 21.15" fill="#353535" fill-rule="evenodd" stroke="none"/>
    <path d="M-16.35 -57.35 L-10.35 -52.85 -10.35 51.8 -16.35 56.15 -17.0 56.3 -17.0 -57.35 -16.35 -57.35" fill="#9f9f9f" fill-rule="evenodd" stroke="none"/>
    <path d="M-16.35 -57.35 L8.8 -51.35 11.5 -50.2 11.65 -50.0 11.8 -49.85 12.0 -49.85 14.5 -48.2 15.15 -47.5 8.0 -49.35 -10.35 -52.85 -16.35 -57.35 M-3.5 -11.85 L1.8 -11.7 3.5 -11.5 8.65 -11.7 9.65 -12.35 15.0 -8.85 14.8 -8.2 13.5 -7.7 9.8 -7.5 -3.0 -7.85 -3.7 -8.2 -3.5 -11.85 M17.3 0.8 L15.5 -0.35 15.8 -0.7 17.3 0.8 M10.15 30.65 L-3.5 32.5 -3.5 27.5 4.65 26.5 5.5 26.5 10.15 30.65" fill="#ffffff" fill-rule="evenodd" stroke="none"/>
    <path d="M5.5 -28.0 L4.5 -28.0 -3.5 -29.0 -3.5 -34.0 10.3 -32.0 5.5 -28.0" fill="#505050" fill-rule="evenodd" stroke="none"/>
    <path d="M12.65 -121.0 L12.65 -120.7 -25.7 -95.7 -14.2 -118.35 12.65 -121.0" fill="#7f620e" fill-rule="evenodd" stroke="none"/>
    <path d="M12.65 -120.7 L12.65 -121.0 13.15 -120.7 8.65 -99.0 -0.2 -97.2 12.65 -120.7" fill="#ffffbe" fill-rule="evenodd" stroke="none"/>
    <path d="M14.8 -74.85 L14.65 -73.85 13.0 -72.0 10.15 -71.35 11.15 -75.7 Q8.65 -78.35 7.5 -77.85 L4.15 -77.2 2.5 -73.2 0.3 -74.85 Q-0.85 -75.7 0.0 -78.85 L2.15 -80.35 7.15 -80.7 11.8 -79.0 Q14.65 -77.5 14.8 -74.85" fill="#3d2b02" fill-rule="evenodd" stroke="none"/>
    <path d="M-0.2 -79.85 L1.8 -84.85 Q4.5 -87.2 11.15 -85.5 14.3 -84.7 16.0 -81.5 L14.8 -74.85 Q14.65 -77.5 11.8 -79.0 L7.15 -80.7 2.15 -80.35 0.0 -78.85 -0.2 -79.85" fill="#b39e3e" fill-rule="evenodd" stroke="none"/>
    <path d="M9.65 -26.85 L5.5 -28.0 10.3 -32.0 13.65 -31.5 14.8 -30.7 9.65 -26.85" fill="#535353" fill-rule="evenodd" stroke="none"/>
    <path d="M5.0 -12.35 Q7.0 -24.85 4.65 -27.0 L9.65 -26.85 10.65 -22.85 Q11.0 -14.85 9.65 -12.35 L5.0 -12.35" fill="#707070" fill-rule="evenodd" stroke="none"/>
    <path d="M1.8 -11.7 L2.3 -15.7 2.3 -25.2 1.8 -27.7 4.3 -27.2 4.65 -27.0 Q7.0 -24.85 5.0 -12.35 L4.0 -11.7 3.5 -11.5 1.8 -11.7" fill="#383838" fill-rule="evenodd" stroke="none"/>
    <path d="M9.65 -26.85 L14.8 -30.7 Q15.65 -30.7 16.3 -27.0 L16.65 -16.7 15.65 -9.5 15.0 -8.85 9.65 -12.35 Q11.0 -14.85 10.65 -22.85 L9.65 -26.85" fill="#cbcbcb" fill-rule="evenodd" stroke="none"/>
    <path d="M3.5 -11.5 L4.0 -11.7 5.0 -12.35 9.65 -12.35 8.65 -11.7 3.5 -11.5" fill="#d1d1d1" fill-rule="evenodd" stroke="none"/>
    <path d="M23.3 11.65 L26.3 11.15 Q37.8 15.8 28.65 25.0 L28.15 25.15 27.0 25.3 24.5 25.15 Q24.8 22.15 29.0 19.8 L29.3 17.5 Q27.3 13.15 23.8 15.15 L23.3 11.65" fill="#967613" fill-rule="evenodd" stroke="none"/>
    <path d="M24.5 25.15 L23.5 27.5 24.0 22.5 23.8 15.15 Q27.3 13.15 29.3 17.5 L29.0 19.8 Q24.8 22.15 24.5 25.15 M22.3 37.15 L22.5 46.8 22.8 51.65 20.15 53.15 16.5 52.8 15.5 48.3 15.3 46.8 16.15 46.15 16.5 46.0 Q17.8 46.15 20.3 42.5 L22.3 37.15" fill="#c3ac3d" fill-rule="evenodd" stroke="none"/>
    <path d="M26.3 11.15 L30.65 11.5 Q33.0 12.15 34.65 16.0 36.65 22.5 28.65 25.0 37.8 15.8 26.3 11.15" fill="#c2b134" fill-rule="evenodd" stroke="none"/>
    <path d="M10.15 5.15 L14.8 5.3 15.3 5.8 10.15 9.5 5.5 9.15 10.15 5.15" fill="#424242" fill-rule="evenodd" stroke="none"/>
    <path d="M15.3 5.8 Q18.5 7.5 17.0 26.0 16.5 29.15 15.15 29.65 L10.15 30.65 5.5 26.5 Q15.0 27.3 10.15 9.5 L15.3 5.8" fill="#d3d3d3" fill-rule="evenodd" stroke="none"/>
    <path d="M-3.5 9.65 L-3.5 5.5 10.15 5.15 5.5 9.15 4.8 9.3 5.3 9.3 5.65 9.5 Q8.5 19.5 5.3 25.3 L5.0 25.65 4.3 25.8 2.65 26.0 3.3 20.65 2.65 9.3 -3.5 9.65" fill="#3a3a3a" fill-rule="evenodd" stroke="none"/>
    <path d="M5.65 9.5 L10.15 9.5 Q15.0 27.3 5.5 26.5 L4.65 26.5 1.0 26.3 2.65 26.0 4.3 25.8 5.0 25.65 5.3 25.3 Q8.5 19.5 5.65 9.5" fill="#949494" fill-rule="evenodd" stroke="none"/>
    <path d="M-3.5 27.5 L-3.5 26.8 1.0 26.3 4.65 26.5 -3.5 27.5" fill="#f3f3f3" fill-rule="evenodd" stroke="none"/>
    <path d="M22.5 46.8 L25.8 47.65 26.8 48.65 26.8 49.5 27.0 50.3 Q21.0 57.8 12.8 53.3 L12.65 51.0 Q12.8 49.65 15.5 48.3 L16.5 52.8 20.15 53.15 22.8 51.65 22.5 46.8" fill="#fed436" fill-rule="evenodd" stroke="none"/>
    <path d="M27.0 50.3 L28.15 56.0 Q28.5 57.15 24.5 59.65 15.15 62.5 13.5 57.0 L13.0 54.8 12.8 54.8 12.8 53.3 Q21.0 57.8 27.0 50.3" fill="#80650f" fill-rule="evenodd" stroke="none"/>
    <path d="M-28.0 29.65 L-28.0 18.3 Q-27.65 18.5 -27.35 18.65 L-26.2 21.15 -26.0 22.8 -25.85 26.0 Q-27.0 29.65 -28.0 29.65" fill="#e0d17d" fill-rule="evenodd" stroke="none"/>
    <path d="M-27.0 58.15 L-27.85 57.5 -27.85 55.3 -27.0 49.8 -27.7 40.8 -27.85 40.8 -27.85 40.15 -28.0 39.0 -28.0 29.65 Q-27.0 29.65 -25.85 26.0 L-26.0 22.8 -23.85 25.15 -22.35 27.8 Q-18.0 31.8 -19.0 56.3 L-19.5 60.0 -24.85 58.3 -27.0 58.15" fill="#947c20" fill-rule="evenodd" stroke="none"/>
    <path d="M-17.2 69.15 L-27.0 58.15 -24.85 58.3 -19.5 60.0 Q-17.35 60.5 -15.85 62.65 L-17.2 69.15" fill="#e2c750" fill-rule="evenodd" stroke="none"/>
    <path d="M18.0 -45.85 L18.3 -45.5 18.3 -45.35 Q20.0 -43.7 21.3 -39.2 L22.65 -30.7 22.3 -15.2 Q22.0 -9.7 19.5 -5.5 L15.8 -0.7 15.5 -0.35 17.3 0.8 17.8 1.15 18.15 1.5 19.5 2.5 Q21.65 3.65 22.3 6.5 L23.3 11.65 23.8 15.15 24.0 22.5 23.5 27.5 23.5 27.8 22.3 36.0 22.3 37.15 20.3 42.5 Q17.8 46.15 16.5 46.0 L16.15 46.15 7.8 48.5 -10.35 51.8 -10.35 -52.85 8.0 -49.35 15.15 -47.5 15.3 -47.5 15.5 -47.35 15.65 -47.35 18.0 -45.85 M-3.5 -28.35 L-3.5 -11.85 -3.7 -8.2 -3.0 -7.85 9.8 -7.5 13.5 -7.7 14.8 -8.2 15.0 -8.85 15.65 -9.5 16.65 -16.7 16.3 -27.0 Q15.65 -30.7 14.8 -30.7 L13.65 -31.5 10.3 -32.0 -3.5 -34.0 -3.5 -29.0 -3.5 -28.35 M15.3 5.8 L14.8 5.3 10.15 5.15 -3.5 5.5 -3.5 9.65 -3.5 26.8 -3.5 27.5 -3.5 32.5 10.15 30.65 15.15 29.65 Q16.5 29.15 17.0 26.0 18.5 7.5 15.3 5.8" fill="#cccccc" fill-rule="evenodd" stroke="none"/>
  </g>
</svg>
