<?xml version="1.0" encoding="UTF-8" standalone="no"?>
<svg xmlns:ffdec="https://www.free-decompiler.com/flash" xmlns:xlink="http://www.w3.org/1999/xlink" ffdec:objectType="shape" height="243.65px" width="189.5px" xmlns="http://www.w3.org/2000/svg">
  <g transform="matrix(1.0, 0.0, 0.0, 1.0, 103.0, 122.35)">
    <path d="M23.5 -74.35 L23.3 -74.0 23.15 -73.35 22.8 -73.0 22.15 -72.5 18.8 -72.7 20.3 -75.5 17.65 -78.0 Q13.8 -79.5 13.3 -78.5 L11.65 -76.2 9.5 -78.2 9.0 -79.5 9.5 -81.0 Q17.8 -82.85 23.5 -74.35 M7.15 -122.2 L6.3 -121.2 -33.2 -93.35 -8.7 -117.2 7.15 -122.2" fill="#3d2b02" fill-rule="evenodd" stroke="none"/>
    <path d="M7.8 -122.35 L5.0 -99.85 -20.35 -96.0 6.3 -121.2 7.15 -122.2 7.8 -122.35" fill="#f3c735" fill-rule="evenodd" stroke="none"/>
    <path d="M-3.5 94.0 L5.15 99.0 70.5 45.3 70.65 -45.5 70.3 -46.5 50.0 -62.7 5.5 -99.5 4.3 -99.5 -3.5 -94.85 -12.7 -89.5 -27.2 -81.2 -72.85 -55.0 -72.85 13.8 -72.85 31.3 -72.85 54.15 -61.2 60.65 -46.35 69.3 -3.5 94.0 M-20.35 -96.0 L5.0 -99.85 7.8 -122.35 33.3 -89.35 56.5 -70.0 86.5 -55.7 79.3 -17.5 79.3 16.5 86.5 54.15 86.5 54.8 57.0 69.0 32.3 89.5 8.15 121.15 7.15 121.3 -20.35 95.15 -49.7 78.5 -89.85 67.8 -81.5 24.3 -81.2 20.65 -80.7 19.8 -81.0 -19.7 -80.7 -21.2 -89.85 -68.5 -49.2 -79.5 -20.35 -96.0" fill="#f5dd4f" fill-rule="evenodd" stroke="none"/>
    <path d="M-3.5 -94.85 L4.3 -99.5 5.5 -99.5 50.0 -62.7 70.3 -46.5 70.65 -45.5 70.5 45.3 5.15 99.0 -3.5 94.0 39.65 59.3 Q41.0 65.8 51.5 60.15 55.5 56.65 54.65 55.5 L52.0 50.3 51.8 49.5 58.5 44.15 58.5 26.3 60.0 26.65 Q71.5 27.0 69.65 17.8 68.65 13.0 66.3 12.0 L60.25 11.85 59.5 11.8 58.5 12.0 58.5 -44.7 23.15 -73.35 23.3 -74.0 23.5 -74.35 26.3 -80.2 Q26.5 -81.35 22.5 -84.7 11.15 -90.5 10.65 -83.5 L-3.5 -94.85" fill="#745b0f" fill-rule="evenodd" stroke="none"/>
    <path d="M10.65 -83.5 Q11.15 -90.5 22.5 -84.7 26.5 -81.35 26.3 -80.2 L23.5 -74.35 Q17.8 -82.85 9.5 -81.0 L10.65 -83.5" fill="#bba643" fill-rule="evenodd" stroke="none"/>
    <path d="M11.65 -76.2 L13.3 -78.5 Q13.8 -79.5 17.65 -78.0 L20.3 -75.5 18.8 -72.7 Q-0.2 -48.85 -20.5 -77.35 L-13.5 -80.7 Q-0.85 -61.35 11.65 -76.2" fill="#b39d39" fill-rule="evenodd" stroke="none"/>
    <path d="M-34.5 -51.7 L6.3 -49.7 1.8 -53.0 18.8 -51.7 25.0 -50.2 Q27.65 -49.7 31.65 -45.35 44.8 -37.5 36.65 -10.0 L36.0 -8.75 Q35.1 -7.55 33.3 -6.35 L23.3 -0.5 34.8 3.5 Q37.5 4.15 39.3 7.3 L39.3 7.5 39.5 7.8 41.5 12.65 42.15 16.0 42.15 25.8 41.0 32.15 38.5 38.3 35.8 42.0 33.0 44.3 28.65 46.3 25.15 47.15 6.5 48.65 -34.35 50.65 -34.5 -51.7 M21.65 -9.0 Q25.3 -9.7 25.15 -22.7 L24.15 -28.35 Q22.3 -31.7 21.5 -31.35 L17.15 -32.2 -19.85 -33.7 -19.85 -28.85 -19.85 -12.0 7.65 -11.5 10.5 -7.5 18.5 -7.85 20.8 -8.35 21.65 -9.0 M7.8 26.65 L11.0 31.0 23.0 30.0 25.8 27.15 Q29.3 9.0 22.8 5.8 L18.8 5.3 10.5 5.3 -19.85 5.5 -19.85 9.65 -19.85 27.65 -1.15 26.9 6.65 26.65 7.8 26.65" fill="#ffffff" fill-rule="evenodd" stroke="none"/>
    <path d="M1.8 -53.0 L6.3 -49.7 -34.5 -51.7 -39.85 -55.5 1.8 -53.0" fill="#f8f8f8" fill-rule="evenodd" stroke="none"/>
    <path d="M15.65 -25.7 L15.5 -26.0 15.5 -26.2 16.0 -25.2 15.65 -25.7 M17.15 10.5 L17.8 11.5 17.3 11.0 17.15 10.5" fill="#d2d2d2" fill-rule="evenodd" stroke="none"/>
    <path d="M-34.35 50.65 L6.5 48.65 25.15 47.15 28.65 46.3 33.0 44.3 Q30.65 47.0 26.8 48.8 L20.65 50.3 1.5 52.0 -39.85 54.65 -34.35 50.65 M15.15 9.3 L18.8 9.65 16.5 9.65 15.15 9.3" fill="#353535" fill-rule="evenodd" stroke="none"/>
    <path d="M15.0 -12.5 L17.5 -12.5 15.5 -11.85 12.15 -11.7 15.0 -12.5 M10.8 -11.7 L10.8 -11.5 10.15 -11.5 10.8 -11.7" fill="#c3c3c3" fill-rule="evenodd" stroke="none"/>
    <path d="M17.5 -12.5 L21.65 -9.0 20.8 -8.35 18.5 -7.85 10.5 -7.5 7.65 -11.5 10.15 -11.5 10.8 -11.5 10.8 -11.7 12.15 -11.7 15.5 -11.85 17.5 -12.5" fill="#f6f6f6" fill-rule="evenodd" stroke="none"/>
    <path d="M23.3 -0.5 L33.3 -6.35 Q35.1 -7.55 36.0 -8.75 L34.0 -5.2 Q31.8 -2.7 29.0 -1.5 L23.3 -0.5" fill="#6e6e6e" fill-rule="evenodd" stroke="none"/>
    <path d="M39.3 7.3 Q37.5 4.15 34.8 3.5 L23.3 -0.5 29.0 -1.5 Q38.5 1.3 39.3 7.3" fill="#fbfbfb" fill-rule="evenodd" stroke="none"/>
    <path d="M6.3 -121.2 L-20.35 -96.0 -49.2 -79.5 -89.85 -68.5 -80.7 -21.2 -81.0 -19.7 -80.7 19.8 -81.2 20.65 -81.5 24.3 -89.85 67.8 -49.7 78.5 -20.35 95.15 7.15 121.3 -8.7 116.3 -34.2 91.3 -62.2 75.65 -103.0 64.5 -93.2 18.5 -93.35 -21.0 -103.0 -65.35 -63.5 -76.0 Q-49.15 -83.9 -34.85 -91.85 L-33.2 -93.35 6.3 -121.2" fill="#4b3905" fill-rule="evenodd" stroke="none"/>
    <path d="M-27.2 -81.2 L-12.7 -89.5 -10.0 -83.35 -13.5 -80.7 -20.5 -77.35 -24.7 -76.35 -27.2 -81.2" fill="#a49645" fill-rule="evenodd" stroke="none"/>
    <path d="M-72.85 31.3 L-72.85 13.8 -69.0 14.15 Q-68.2 14.15 -66.7 18.3 L-66.0 24.65 -66.7 27.0 Q-67.7 30.3 -68.7 30.8 L-72.85 31.3" fill="#bba83e" fill-rule="evenodd" stroke="none"/>
    <path d="M-66.7 27.0 L-66.0 24.65 -66.7 18.3 Q-36.0 25.0 -46.2 60.15 L-53.5 56.5 Q-47.0 29.8 -66.7 27.0" fill="#a18d30" fill-rule="evenodd" stroke="none"/>
    <path d="M-46.35 69.3 L-61.2 60.65 -58.5 55.3 -53.5 56.5 -46.2 60.15 -43.0 62.65 -46.35 69.3" fill="#997919" fill-rule="evenodd" stroke="none"/>
    <path d="M60.25 11.85 L66.3 12.0 Q68.65 13.0 69.65 17.8 71.5 27.0 60.0 26.65 63.65 25.3 63.8 23.3 L64.3 17.5 Q62.85 12.25 60.25 11.85" fill="#bba742" fill-rule="evenodd" stroke="none"/>
    <path d="M58.5 12.0 L59.5 11.8 60.25 11.85 Q62.85 12.25 64.3 17.5 L63.8 23.3 Q63.65 25.3 60.0 26.65 L58.5 26.3 56.65 25.0 56.0 23.65 61.15 22.0 62.0 20.0 62.0 18.3 Q62.3 13.65 55.3 16.0 L56.3 13.5 58.5 12.0" fill="#483404" fill-rule="evenodd" stroke="none"/>
    <path d="M38.5 38.3 L41.0 32.15 42.15 25.8 47.8 19.8 Q48.65 18.3 55.3 16.0 62.3 13.65 62.0 18.3 L62.0 20.0 61.15 22.0 56.0 23.65 Q42.5 30.65 47.0 48.8 L47.8 52.15 45.15 54.5 42.65 55.15 41.15 55.0 40.0 52.3 40.15 51.3 38.65 44.8 38.5 38.3" fill="#b3962b" fill-rule="evenodd" stroke="none"/>
    <path d="M51.8 49.5 L52.0 50.3 Q47.15 57.5 38.3 56.5 L37.8 55.65 38.0 54.65 40.0 52.3 41.15 55.0 42.65 55.15 45.15 54.5 47.8 52.15 47.0 48.8 50.3 48.65 51.8 49.5" fill="#dab22c" fill-rule="evenodd" stroke="none"/>
    <path d="M18.8 9.65 L19.3 9.65 Q23.65 13.15 20.65 24.5 L18.3 26.0 7.8 26.65 6.65 26.65 6.15 26.5 14.65 26.0 16.3 25.5 17.5 24.3 17.65 23.8 19.0 18.8 Q18.8 12.3 17.8 11.5 L17.15 10.5 16.5 9.65 18.8 9.65" fill="#757575" fill-rule="evenodd" stroke="none"/>
    <path d="M6.15 26.5 L6.65 26.65 -1.15 26.9 6.15 26.5" fill="#f1f1f1" fill-rule="evenodd" stroke="none"/>
    <path d="M52.0 50.3 L54.65 55.5 Q55.5 56.65 51.5 60.15 41.0 65.8 39.65 59.3 L38.3 56.5 Q47.15 57.5 52.0 50.3" fill="#937b17" fill-rule="evenodd" stroke="none"/>
    <path d="M-34.5 -51.7 L-34.35 50.65 -39.85 54.65 -39.85 -55.5 -34.5 -51.7 M-19.85 -28.85 L-19.85 -33.7 17.15 -32.2 21.5 -31.35 Q22.3 -31.7 24.15 -28.35 L25.15 -22.7 Q25.3 -9.7 21.65 -9.0 L17.5 -12.5 19.5 -15.35 19.8 -22.2 19.15 -25.5 17.5 -27.35 17.0 -27.35 7.8 -28.2 -7.15 -28.45 -19.85 -28.85 M7.8 26.65 L18.3 26.0 20.65 24.5 Q23.65 13.15 19.3 9.65 L18.8 9.65 15.15 9.3 7.65 9.3 10.5 5.3 18.8 5.3 22.8 5.8 Q29.3 9.0 25.8 27.15 L23.0 30.0 11.0 31.0 7.8 26.65" fill="#cccccc" fill-rule="evenodd" stroke="none"/>
    <path d="M-7.15 -28.45 L7.8 -28.2 17.0 -27.35 17.5 -27.35 19.15 -25.5 19.8 -22.2 19.5 -15.35 17.5 -12.5 15.0 -12.5 15.3 -13.0 15.5 -13.5 16.15 -17.7 15.65 -25.7 16.0 -25.2 15.5 -26.2 14.5 -27.2 5.5 -28.0 -7.15 -28.45 M10.5 5.3 L7.65 9.3 -19.85 9.65 -19.85 5.5 10.5 5.3 M17.8 11.5 Q18.8 12.3 19.0 18.8 L17.65 23.8 18.15 16.0 17.3 11.0 17.8 11.5 M-39.85 54.65 L-42.7 54.15 -42.7 -53.5 Q-44.2 -56.2 -39.85 -55.5 L-39.85 54.65" fill="#999999" fill-rule="evenodd" stroke="none"/>
  </g>
</svg>
