<?xml version="1.0" encoding="UTF-8" standalone="no"?>
<svg xmlns:ffdec="https://www.free-decompiler.com/flash" xmlns:xlink="http://www.w3.org/1999/xlink" ffdec:objectType="shape" height="244.0px" width="202.65px" xmlns="http://www.w3.org/2000/svg">
  <g transform="matrix(1.0, 0.0, 0.0, 1.0, 96.85, 122.35)">
    <path d="M-4.2 -100.0 L2.3 -96.2 -16.35 -87.85 Q-18.85 -88.35 -23.5 -85.7 L-27.35 -82.85 -29.85 -82.0 -4.5 -99.85 -4.2 -100.0" fill="#684f0a" fill-rule="evenodd" stroke="none"/>
    <path d="M-6.35 -122.35 L-4.2 -100.0 -4.5 -99.85 -34.35 -91.2 -6.35 -122.35" fill="#876910" fill-rule="evenodd" stroke="none"/>
    <path d="M-6.35 -122.35 L23.5 -96.5 24.65 -95.0 56.15 -78.0 58.8 -77.35 99.0 -66.35 89.8 -21.2 89.3 -20.7 89.65 18.5 89.3 20.0 99.0 65.5 58.8 76.5 56.0 77.15 29.65 91.8 24.3 94.3 -4.5 120.65 -6.2 121.65 -35.0 89.65 -62.2 70.5 -96.85 56.65 -88.85 17.65 -88.85 -18.2 -96.85 -57.5 -62.2 -71.35 -34.35 -91.2 -4.5 -99.85 -29.85 -82.0 -79.35 -47.5 -79.0 14.65 -79.35 46.65 -4.35 98.8 -4.5 99.15 2.5 95.3 51.0 68.5 65.65 60.5 80.3 52.5 80.3 30.5 80.3 13.5 80.15 -53.5 29.0 -81.5 14.65 -89.5 2.3 -96.2 -4.2 -100.0 -6.35 -122.35" fill="#795d0d" fill-rule="evenodd" stroke="none"/>
    <path d="M2.5 95.3 L-4.5 99.15 -4.35 98.8 -79.35 46.65 -79.0 14.65 -79.35 -47.5 -29.85 -82.0 -27.35 -82.85 Q-29.5 -80.7 -29.0 -79.35 L-27.5 -76.7 -27.0 -75.5 -69.85 -45.7 -69.7 12.0 Q-79.7 10.3 -78.35 21.3 -77.2 26.65 -75.85 26.8 L-69.7 27.15 -69.7 45.15 -59.35 52.15 -61.2 55.65 Q-62.85 57.0 -58.7 60.3 L-52.7 63.5 -48.35 64.0 -47.35 63.15 -46.5 61.3 2.5 95.3 M-13.85 -84.85 L-15.5 -87.7 -16.35 -87.85 2.3 -96.2 -13.85 -84.85" fill="#d6ce5a" fill-rule="evenodd" stroke="none"/>
    <path d="M-26.0 -74.2 L-26.85 -75.5 -27.0 -75.5 -27.5 -76.7 -29.0 -79.35 Q-29.5 -80.7 -27.35 -82.85 L-23.5 -85.7 Q-18.85 -88.35 -16.35 -87.85 L-15.5 -87.7 -13.85 -84.85 -12.35 -81.85 Q-24.2 -79.7 -26.0 -74.2" fill="#9f8b2f" fill-rule="evenodd" stroke="none"/>
    <path d="M-21.2 -73.5 L-24.5 -73.0 -25.35 -73.2 -26.0 -74.2 Q-24.2 -79.7 -12.35 -81.85 L-12.2 -81.7 -11.7 -80.35 -12.2 -79.35 -14.35 -77.35 -15.85 -79.5 -16.7 -79.5 -20.5 -77.85 -22.35 -75.85 -21.2 -73.5" fill="#634b09" fill-rule="evenodd" stroke="none"/>
    <path d="M15.5 -80.7 L22.5 -77.0 Q1.65 -48.85 -21.2 -73.5 L-22.35 -75.85 -20.5 -77.85 -16.7 -79.5 -15.85 -79.5 -14.35 -77.35 Q-1.7 -60.35 15.5 -80.7" fill="#806614" fill-rule="evenodd" stroke="none"/>
    <path d="M-1.2 -53.2 L-1.0 -50.0 -43.7 -48.0 -43.85 -48.7 -43.85 -51.5 -1.2 -53.2" fill="#838383" fill-rule="evenodd" stroke="none"/>
    <path d="M18.5 -53.5 L18.65 -50.35 -1.0 -50.0 -1.2 -53.2 18.5 -53.5" fill="#8d8d8d" fill-rule="evenodd" stroke="none"/>
    <path d="M-28.85 -32.2 L12.0 -33.0 Q16.0 -33.2 16.3 -32.35 L16.8 -28.35 -22.2 -27.7 -24.2 -27.85 -28.85 -32.2 M21.0 49.3 L20.5 52.5 -43.0 50.5 -43.85 50.3 -43.7 47.0 -1.2 49.0 21.0 49.3 M19.0 10.0 L5.5 9.5 3.5 5.3 15.8 5.65 18.0 6.3 19.0 10.0 M-43.75 -39.85 L-43.85 -48.7 -43.7 -48.0 -43.75 -39.85" fill="#353535" fill-rule="evenodd" stroke="none"/>
    <path d="M18.65 -50.35 Q35.3 -51.7 39.15 -30.0 L38.8 -21.5 38.15 -17.85 35.8 -11.85 32.5 -8.0 18.65 -0.5 31.8 3.5 36.5 5.8 Q41.15 9.3 42.5 20.5 41.15 49.65 21.0 49.3 L-1.2 49.0 -43.7 47.0 -43.75 -39.85 -43.7 -48.0 -1.0 -50.0 18.65 -50.35 M16.65 -9.5 Q21.5 -12.7 20.8 -24.0 L19.3 -29.85 Q17.15 -33.0 16.3 -32.35 16.0 -33.2 12.0 -33.0 L-28.85 -32.2 Q-30.0 -31.85 -29.35 -26.5 L-29.2 -7.7 3.5 -7.7 12.3 -8.0 Q16.5 -8.7 16.65 -9.5 M4.0 31.5 Q21.65 33.15 22.3 27.15 25.5 9.8 18.0 6.3 L15.8 5.65 3.5 5.3 -29.35 5.15 -29.2 30.5 4.0 31.5" fill="#6b6b6b" fill-rule="evenodd" stroke="none"/>
    <path d="M-22.0 -11.5 L-24.2 -11.5 -24.2 -27.85 -22.2 -27.7 -22.0 -11.5" fill="#ffffff" fill-rule="evenodd" stroke="none"/>
    <path d="M3.5 -7.7 L-29.2 -7.7 -24.2 -11.5 -22.0 -11.5 5.3 -11.7 3.5 -7.7" fill="#929292" fill-rule="evenodd" stroke="none"/>
    <path d="M-29.2 -7.7 L-29.35 -26.5 Q-30.0 -31.85 -28.85 -32.2 L-24.2 -27.85 -24.2 -11.5 -29.2 -7.7" fill="#f4f4f4" fill-rule="evenodd" stroke="none"/>
    <path d="M58.8 -77.35 L56.15 -78.0 24.65 -95.0 23.5 -96.5 -6.35 -122.35 5.3 -116.85 33.5 -91.2 58.8 -77.35" fill="#cec747" fill-rule="evenodd" stroke="none"/>
    <path d="M14.65 -89.5 L29.0 -81.5 26.0 -75.7 22.5 -77.0 15.5 -80.7 11.5 -83.35 14.65 -89.5" fill="#94771c" fill-rule="evenodd" stroke="none"/>
    <path d="M18.65 -50.35 L18.5 -53.5 22.65 -53.35 29.15 -51.85 Q43.65 -45.2 44.65 -29.5 44.3 -5.5 31.15 -1.5 L18.65 -0.5 32.5 -8.0 35.8 -11.85 38.15 -17.85 38.8 -21.5 39.15 -30.0 Q35.3 -51.7 18.65 -50.35" fill="#b5b5b5" fill-rule="evenodd" stroke="none"/>
    <path d="M16.3 -32.35 Q17.15 -33.0 19.3 -29.85 L20.8 -24.0 Q21.5 -12.7 16.65 -9.5 L17.3 -12.85 Q19.15 -13.85 19.65 -16.35 L20.15 -21.7 19.3 -26.35 17.8 -28.0 17.0 -28.2 16.8 -28.35 16.3 -32.35" fill="#363636" fill-rule="evenodd" stroke="none"/>
    <path d="M16.65 -9.5 Q16.5 -8.7 12.3 -8.0 L3.5 -7.7 5.3 -11.7 11.3 -11.85 17.3 -12.85 16.65 -9.5" fill="#898989" fill-rule="evenodd" stroke="none"/>
    <path d="M31.15 -1.5 L33.0 -1.5 Q46.65 -1.35 49.5 19.8 50.65 40.8 31.65 50.5 49.5 39.15 47.8 19.65 46.0 0.15 31.15 -1.5" fill="#a3a3a3" fill-rule="evenodd" stroke="none"/>
    <path d="M31.15 -1.5 Q44.3 -5.5 44.65 -29.5 43.65 -45.2 29.15 -51.85 44.0 -45.85 46.0 -32.7 48.5 -9.0 33.0 -1.5 L31.15 -1.5" fill="#c7c7c7" fill-rule="evenodd" stroke="none"/>
    <path d="M18.65 -0.5 L31.15 -1.5 Q46.0 0.15 47.8 19.65 49.5 39.15 31.65 50.5 L31.3 50.65 31.0 50.65 30.65 50.8 26.3 52.0 20.5 52.5 21.0 49.3 Q41.15 49.65 42.5 20.5 41.15 9.3 36.5 5.8 L31.8 3.5 18.65 -0.5" fill="#8a8a8a" fill-rule="evenodd" stroke="none"/>
    <path d="M99.0 65.5 L89.3 20.0 89.65 18.5 89.3 -20.7 89.8 -21.2 99.0 -66.35 105.8 -63.0 96.0 -19.5 96.0 18.5 105.8 62.0 99.0 65.5" fill="#d3b54c" fill-rule="evenodd" stroke="none"/>
    <path d="M80.3 13.5 L80.3 30.5 75.15 30.3 Q73.8 29.3 73.65 26.0 L73.15 23.65 73.5 17.65 Q74.3 13.3 75.5 13.3 L80.3 13.5" fill="#877120" fill-rule="evenodd" stroke="none"/>
    <path d="M73.5 17.65 L73.15 23.65 73.65 26.0 Q49.3 30.0 57.65 56.0 L50.5 59.8 Q38.0 25.5 73.5 17.65" fill="#7e6414" fill-rule="evenodd" stroke="none"/>
    <path d="M7.3 27.0 L18.3 26.8 Q22.8 27.0 22.65 17.15 L21.5 12.0 19.0 10.0 18.0 6.3 Q25.5 9.8 22.3 27.15 21.65 33.15 4.0 31.5 L5.8 27.0 7.3 27.0" fill="#545454" fill-rule="evenodd" stroke="none"/>
    <path d="M5.5 9.5 L-22.2 9.15 -24.35 9.15 -24.2 26.5 -29.2 30.5 -29.35 5.15 3.5 5.3 5.5 9.5" fill="#828282" fill-rule="evenodd" stroke="none"/>
    <path d="M-22.0 26.15 L7.3 27.0 5.8 27.0 -24.2 26.5 -22.0 26.15" fill="#f0f0f0" fill-rule="evenodd" stroke="none"/>
    <path d="M5.8 27.0 L4.0 31.5 -29.2 30.5 -24.2 26.5 5.8 27.0" fill="#9b9b9b" fill-rule="evenodd" stroke="none"/>
    <path d="M-6.2 121.65 L-4.5 120.65 24.3 94.3 29.65 91.8 56.0 77.15 58.8 76.5 33.3 90.5 5.3 116.0 -6.2 121.65" fill="#997c18" fill-rule="evenodd" stroke="none"/>
    <path d="M65.65 60.5 L51.0 68.5 47.5 62.15 50.5 60.0 50.5 59.8 57.65 56.0 62.15 54.15 65.65 60.5" fill="#a89a38" fill-rule="evenodd" stroke="none"/>
    <path d="M-22.2 9.15 L-22.0 26.15 -24.2 26.5 -24.35 9.15 -22.2 9.15" fill="#cacaca" fill-rule="evenodd" stroke="none"/>
    <path d="M-69.7 12.0 L-68.5 12.0 Q-71.5 13.5 -71.85 16.3 L-72.2 21.65 -70.85 25.8 -69.85 27.0 -68.7 27.3 -69.7 27.15 -75.85 26.8 Q-77.2 26.65 -78.35 21.3 -79.7 10.3 -69.7 12.0" fill="#775c0d" fill-rule="evenodd" stroke="none"/>
    <path d="M-68.5 12.0 L-66.85 12.3 Q-65.85 12.65 -65.0 16.0 L-69.2 16.15 -70.2 19.15 Q-70.2 22.3 -68.85 23.15 L-66.7 23.3 -65.2 23.65 -67.0 26.8 -68.7 27.3 -69.85 27.0 -70.85 25.8 -72.2 21.65 -71.85 16.3 Q-71.5 13.5 -68.5 12.0" fill="#ffff68" fill-rule="evenodd" stroke="none"/>
    <path d="M-65.0 16.0 Q-37.85 24.3 -46.7 53.8 L-47.7 56.0 -50.85 55.3 -54.0 53.0 -54.2 52.15 -53.35 50.0 Q-48.5 27.3 -65.2 23.65 L-66.7 23.3 -68.85 23.15 Q-70.2 22.3 -70.2 19.15 L-69.2 16.15 -65.0 16.0" fill="#998223" fill-rule="evenodd" stroke="none"/>
    <path d="M-46.7 53.8 L-44.7 55.5 -44.5 57.5 Q-51.7 58.3 -58.35 50.8 L-58.35 50.65 -57.35 49.5 -53.35 50.0 -54.2 52.15 -54.0 53.0 -50.85 55.3 -47.7 56.0 -46.7 53.8" fill="#ffff60" fill-rule="evenodd" stroke="none"/>
    <path d="M-44.5 57.5 L-46.5 61.3 -47.35 63.15 -48.35 64.0 -52.7 63.5 -58.7 60.3 Q-62.85 57.0 -61.2 55.65 L-59.35 52.15 -58.35 50.8 Q-51.7 58.3 -44.5 57.5" fill="#71560b" fill-rule="evenodd" stroke="none"/>
  </g>
</svg>
