<?xml version="1.0" encoding="UTF-8" standalone="no"?>
<svg xmlns:ffdec="https://www.free-decompiler.com/flash" xmlns:xlink="http://www.w3.org/1999/xlink" ffdec:objectType="shape" height="239.85px" width="71.5px" xmlns="http://www.w3.org/2000/svg">
  <g transform="matrix(1.0, 0.0, 0.0, 1.0, 29.5, 120.35)">
    <path d="M6.8 -61.7 L7.15 -74.0 -1.35 -83.0 -7.35 -96.2 -13.35 -115.85 -14.2 -118.5 -14.35 -118.85 -14.5 -119.5 -14.5 -120.35 14.15 -119.2 20.15 -96.0 28.15 -81.85 42.0 -73.0 37.65 -23.5 37.65 22.3 42.0 72.0 28.3 80.65 20.15 95.0 14.3 118.15 -14.5 119.5 -14.5 118.65 -7.7 96.15 -1.5 82.3 7.3 73.0 6.8 60.8 7.0 59.8 6.65 53.65 6.5 42.65 6.3 3.8 6.5 -1.5 6.3 -12.5 6.5 -40.85 6.8 -54.5 6.8 -61.7" fill="#90751d" fill-rule="evenodd" stroke="none"/>
    <path d="M-13.35 -115.85 L-9.85 -98.5 -10.0 -98.0 -18.35 -87.0 -14.5 -119.5 -14.35 -118.85 -14.2 -118.5 -13.35 -115.85" fill="#3d2b02" fill-rule="evenodd" stroke="none"/>
    <path d="M-9.85 -98.5 L-4.35 -86.5 -5.0 -86.0 Q-13.35 -84.5 -12.5 -79.85 L-14.7 -78.5 -10.0 -98.0 -9.85 -98.5" fill="#614908" fill-rule="evenodd" stroke="none"/>
    <path d="M-4.35 -86.5 L-4.2 -86.2 -5.0 -86.0 -4.35 -86.5 M-7.7 -71.35 Q-4.7 -60.35 -0.5 -61.85 L-3.0 -53.2 -3.0 -53.0 -4.2 -52.35 -4.35 -52.35 -11.7 -48.85 -15.85 -45.35 -15.85 11.5 -17.5 12.4 Q-25.65 17.1 -18.35 23.65 L-16.7 24.65 -15.85 24.8 -15.85 44.5 -15.2 44.8 -13.85 46.15 -14.0 46.8 Q-16.7 47.3 -17.35 48.5 L-17.85 51.0 Q-21.2 58.5 -12.0 60.5 -5.85 60.8 -4.35 58.5 L-3.5 52.65 -3.35 51.8 -3.2 52.15 2.15 70.5 0.8 74.65 0.0 75.65 -5.2 88.15 -9.85 97.8 -22.35 44.65 -23.2 42.65 -22.85 42.15 -23.2 -43.35 -14.7 -78.5 -12.5 -79.85 -12.0 -75.85 -11.2 -73.2 Q-10.0 -71.85 -7.7 -71.35" fill="#cbbd49" fill-rule="evenodd" stroke="none"/>
    <path d="M-4.2 -86.2 L-4.2 -85.5 -4.5 -81.85 -3.5 -80.5 Q-10.0 -80.5 -12.0 -75.85 L-12.5 -79.85 Q-13.35 -84.5 -5.0 -86.0 L-4.2 -86.2" fill="#735a0d" fill-rule="evenodd" stroke="none"/>
    <path d="M4.5 -66.2 L1.8 -72.85 1.0 -73.85 0.8 -75.35 0.3 -75.5 -0.7 -77.85 -0.5 -78.35 -1.35 -79.5 -4.2 -85.5 -4.2 -86.2 -4.35 -86.5 -9.85 -98.5 -13.35 -115.85 -7.35 -96.2 -1.35 -83.0 7.15 -74.0 6.8 -61.7 4.5 -66.2" fill="#52420c" fill-rule="evenodd" stroke="none"/>
    <path d="M-4.2 -85.5 L-1.35 -79.5 -3.5 -80.5 -4.5 -81.85 -4.2 -85.5" fill="#483706" fill-rule="evenodd" stroke="none"/>
    <path d="M-1.35 -79.5 L-0.5 -78.35 -0.7 -77.85 -0.85 -77.5 -1.0 -77.0 Q-9.35 -80.2 -7.7 -71.35 -10.0 -71.85 -11.2 -73.2 L-12.0 -75.85 Q-10.0 -80.5 -3.5 -80.5 L-1.35 -79.5" fill="#5c4508" fill-rule="evenodd" stroke="none"/>
    <path d="M-0.7 -77.85 L0.3 -75.5 0.8 -75.35 1.0 -73.85 1.8 -72.85 4.5 -66.2 1.8 -62.5 -0.5 -61.85 Q-4.7 -60.35 -7.7 -71.35 -9.35 -80.2 -1.0 -77.0 L-0.85 -77.5 -0.7 -77.85" fill="#614b0e" fill-rule="evenodd" stroke="none"/>
    <path d="M-14.5 118.65 L-18.7 83.65 -23.0 65.15 -29.5 50.3 -27.2 15.3 -27.2 -16.0 -29.5 -50.35 -22.85 -66.5 -18.35 -87.0 -10.0 -98.0 -14.7 -78.5 -23.2 -43.35 -22.85 42.15 -23.2 42.65 -22.35 44.65 -9.85 97.8 -5.2 88.15 0.0 75.65 0.8 74.65 2.15 70.5 3.8 66.65 6.8 60.8 7.3 73.0 -1.5 82.3 -7.7 96.15 -14.5 118.65" fill="#422f03" fill-rule="evenodd" stroke="none"/>
    <path d="M-4.35 -52.35 L-4.2 -52.35 -3.0 -53.0 -3.0 -53.2 0.3 -54.35 -3.85 -51.2 -7.2 -50.0 -4.35 -52.35" fill="#363636" fill-rule="evenodd" stroke="none"/>
    <path d="M-13.35 -7.35 L-7.85 -11.2 -4.0 -11.5 -4.5 -9.5 -6.7 -7.7 -13.35 -7.35" fill="#3f3f3f" fill-rule="evenodd" stroke="none"/>
    <path d="M-4.5 -9.5 L-4.5 -9.2 -4.85 -8.7 -5.35 -8.2 -6.7 -7.7 -4.5 -9.5" fill="#3c3c3c" fill-rule="evenodd" stroke="none"/>
    <path d="M1.8 -54.7 L6.8 -54.5 6.5 -40.85 4.65 -50.0 Q4.0 -53.2 1.8 -54.7 M6.5 -1.5 L3.8 -1.5 5.0 -5.0 5.65 -10.7 6.3 -12.5 6.5 -1.5" fill="#9b9b9b" fill-rule="evenodd" stroke="none"/>
    <path d="M3.8 -1.5 L6.5 -1.5 6.3 3.8 5.15 0.3 3.8 -1.5 M2.15 53.65 L3.15 53.15 4.3 51.3 6.5 42.65 6.65 53.65 2.15 53.65" fill="#727272" fill-rule="evenodd" stroke="none"/>
    <path d="M6.8 60.8 L3.8 66.65 3.15 62.8 Q4.8 60.0 7.0 59.8 L6.8 60.8" fill="#4d3a05" fill-rule="evenodd" stroke="none"/>
    <path d="M-14.0 46.8 L-13.85 46.15 -13.35 46.5 -13.2 46.5 -11.85 47.65 -6.85 50.15 -7.0 51.65 -8.2 52.8 -12.2 52.65 -13.85 51.3 -13.85 46.8 -14.0 46.8 M-16.0 15.65 L-15.85 20.65 -17.0 19.0 -17.0 17.15 -16.0 15.65" fill="#5e4708" fill-rule="evenodd" stroke="none"/>
    <path d="M-15.85 24.8 L-16.7 24.65 -18.35 23.65 Q-23.7 16.2 -17.5 12.4 L-15.85 11.5 -15.85 15.3 -16.0 15.65 -17.0 17.15 -17.0 19.0 -15.85 20.65 -15.85 24.8" fill="#fad24d" fill-rule="evenodd" stroke="none"/>
    <path d="M-3.5 28.65 L-3.35 28.65 -3.7 30.5 -3.85 30.8 -4.5 31.8 -6.85 31.3 -3.5 28.65" fill="#525252" fill-rule="evenodd" stroke="none"/>
    <path d="M-3.35 51.8 L-3.5 52.65 Q-13.85 57.5 -17.85 51.0 L-17.35 48.5 Q-16.7 47.3 -14.0 46.8 L-13.85 46.8 -13.85 51.3 -12.2 52.65 -8.2 52.8 -7.0 51.65 -6.85 50.15 -4.5 51.15 -3.35 51.8" fill="#ffff5f" fill-rule="evenodd" stroke="none"/>
    <path d="M-18.35 23.65 Q-25.65 17.1 -17.5 12.4 -23.7 16.2 -18.35 23.65" fill="#4d3805" fill-rule="evenodd" stroke="none"/>
    <path d="M-3.5 52.65 L-4.35 58.5 Q-5.85 60.8 -12.0 60.5 -21.2 58.5 -17.85 51.0 -13.85 57.5 -3.5 52.65" fill="#755a0c" fill-rule="evenodd" stroke="none"/>
    <path d="M-13.85 46.15 L-15.2 44.8 -15.85 44.5 -15.85 24.8 -15.85 20.65 -16.0 15.65 -15.85 15.3 -15.85 11.5 -15.85 -45.35 -11.7 -48.85 -4.35 -52.35 -7.2 -50.0 -3.85 -51.2 Q0.65 -49.0 0.3 -22.85 L-0.7 -9.85 -1.7 -6.2 -4.2 -0.5 Q-1.7 2.0 0.0 6.8 L1.0 17.3 Q1.15 47.3 -3.2 50.15 L0.65 53.3 -3.35 51.8 -4.5 51.15 -6.85 50.15 -11.85 47.65 -13.2 46.5 -13.35 46.5 -13.85 46.15 M-4.0 -11.5 L-3.35 -16.85 -3.7 -27.0 -7.85 -27.2 -13.2 -30.7 -13.35 -7.35 -6.7 -7.7 -5.35 -8.2 -4.85 -8.7 -4.5 -9.2 -4.5 -9.5 -4.0 -11.5 M-3.5 28.65 L-3.2 26.8 -3.0 12.0 -3.5 11.5 -3.5 9.3 -3.85 7.65 -7.0 5.3 -13.2 5.0 -13.35 29.3 -6.85 31.3 -4.5 31.8 -3.85 30.8 -3.7 30.5 -3.35 28.65 -3.5 28.65" fill="#ffffff" fill-rule="evenodd" stroke="none"/>
    <path d="M0.3 -54.35 L1.8 -54.7 Q4.0 -53.2 4.65 -50.0 L6.5 -40.85 6.3 -12.5 5.65 -10.7 5.0 -5.0 3.8 -1.5 5.15 0.3 6.3 3.8 6.5 42.65 4.3 51.3 3.15 53.15 2.15 53.65 0.65 53.3 -3.2 50.15 Q1.15 47.3 1.0 17.3 L0.0 6.8 Q-1.7 2.0 -4.2 -0.5 L-1.7 -6.2 -0.7 -9.85 0.3 -22.85 Q0.65 -49.0 -3.85 -51.2 L0.3 -54.35 M-13.35 -7.35 L-13.2 -30.7 -7.85 -27.2 -3.7 -27.0 -3.35 -16.85 -4.0 -11.5 -7.85 -11.2 -13.35 -7.35 M-6.85 31.3 L-13.35 29.3 -13.2 5.0 -7.0 5.3 -3.85 7.65 -3.5 9.3 -3.5 11.5 -3.0 12.0 -3.2 26.8 -3.5 28.65 -6.85 31.3" fill="#cccccc" fill-rule="evenodd" stroke="none"/>
  </g>
</svg>
