<?xml version="1.0" encoding="UTF-8" standalone="no"?>
<svg xmlns:ffdec="https://www.free-decompiler.com/flash" xmlns:xlink="http://www.w3.org/1999/xlink" ffdec:objectType="shape" height="34.15px" width="181.1px" xmlns="http://www.w3.org/2000/svg">
  <g transform="matrix(1.0, 0.0, 0.0, 1.0, -0.75, -1.7)">
    <path d="M165.2 35.85 L19.25 35.85 19.25 17.55 165.2 17.55 165.2 35.85" fill="url(#gradient0)" fill-rule="evenodd" stroke="none"/>
    <path d="M175.65 5.25 L177.0 6.45 Q181.8 11.25 181.85 18.05 181.8 24.85 177.0 29.65 172.2 34.45 165.45 34.45 158.65 34.45 153.85 29.65 149.1 24.85 149.1 18.05 149.05 17.1 149.15 16.25 149.75 10.6 153.85 6.45 L155.2 5.25 Q157.0 3.8 159.05 2.95 162.0 1.7 165.45 1.7 171.3 1.7 175.65 5.25" fill="url(#gradient1)" fill-rule="evenodd" stroke="none"/>
    <path d="M27.3 5.25 L28.7 6.45 Q32.85 10.6 33.4 16.25 L33.5 18.05 Q33.5 24.85 28.7 29.65 23.9 34.45 17.1 34.45 10.3 34.45 5.5 29.65 3.0 27.1 1.8 24.05 0.7 21.25 0.75 18.05 L0.85 16.25 Q1.4 10.6 5.5 6.45 L5.6 6.4 6.9 5.25 Q8.65 3.8 10.7 2.95 13.65 1.7 17.1 1.7 20.55 1.7 23.5 2.95 25.5 3.8 27.3 5.25" fill="url(#gradient2)" fill-rule="evenodd" stroke="none"/>
  </g>
  <defs>
    <linearGradient gradientTransform="matrix(4.0E-4, 0.0118, -0.0795, 2.0E-4, 95.65, 25.1)" gradientUnits="userSpaceOnUse" id="gradient0" spreadMethod="pad" x1="-819.2" x2="819.2">
      <stop offset="0.0" stop-color="#000000"/>
      <stop offset="0.0" stop-color="#000000"/>
      <stop offset="0.0" stop-color="#000000" stop-opacity="0.6509804"/>
      <stop offset="0.0" stop-color="#000000" stop-opacity="0.0"/>
      <stop offset="0.24705882352941178" stop-color="#000000"/>
      <stop offset="0.49411764705882355" stop-color="#000000"/>
      <stop offset="0.6666666666666666" stop-color="#000000"/>
      <stop offset="1.0" stop-color="#000000" stop-opacity="0.0"/>
    </linearGradient>
    <radialGradient cx="0" cy="0" gradientTransform="matrix(0.02, 0.0, 0.0, 0.02, 165.2, 18.1)" gradientUnits="userSpaceOnUse" id="gradient1" r="819.2" spreadMethod="pad">
      <stop offset="0.0" stop-color="#000000"/>
      <stop offset="0.0" stop-color="#000000" stop-opacity="0.6509804"/>
      <stop offset="0.0" stop-color="#000000"/>
      <stop offset="0.5725490196078431" stop-color="#000000"/>
      <stop offset="1.0" stop-color="#000000" stop-opacity="0.0"/>
    </radialGradient>
    <radialGradient cx="0" cy="0" gradientTransform="matrix(0.0199, 0.0, 0.0, 0.0199, 17.3, 18.1)" gradientUnits="userSpaceOnUse" id="gradient2" r="819.2" spreadMethod="pad">
      <stop offset="0.0" stop-color="#000000"/>
      <stop offset="0.0" stop-color="#000000" stop-opacity="0.6509804"/>
      <stop offset="0.0" stop-color="#000000"/>
      <stop offset="0.5725490196078431" stop-color="#000000"/>
      <stop offset="1.0" stop-color="#000000" stop-opacity="0.0"/>
    </radialGradient>
  </defs>
</svg>
