<?xml version="1.0" encoding="UTF-8" standalone="no"?>
<svg xmlns:ffdec="https://www.free-decompiler.com/flash" xmlns:xlink="http://www.w3.org/1999/xlink" ffdec:objectType="shape" height="28.25px" width="149.8px" xmlns="http://www.w3.org/2000/svg">
  <g transform="matrix(1.0, 0.0, 0.0, 1.0, -0.35, -1.7)">
    <path d="M136.4 29.95 L15.65 29.95 15.65 14.8 136.4 14.8 136.4 29.95" fill="url(#gradient0)" fill-rule="evenodd" stroke="none"/>
    <path d="M146.2 5.65 Q150.15 9.6 150.15 15.25 150.15 20.85 146.2 24.8 142.25 28.75 136.65 28.75 131.0 28.75 127.05 24.8 123.1 20.85 123.1 15.25 123.05 14.45 123.15 13.7 123.6 9.05 127.05 5.65 127.55 5.05 128.15 4.6 129.6 3.4 131.35 2.7 133.75 1.65 136.65 1.7 141.45 1.7 145.05 4.6 L146.2 5.65" fill="url(#gradient1)" fill-rule="evenodd" stroke="none"/>
    <path d="M27.45 15.25 Q27.45 20.85 23.45 24.8 19.5 28.75 13.9 28.75 8.25 28.75 4.3 24.8 2.2 22.7 1.2 20.15 0.35 17.85 0.35 15.25 L0.45 13.7 Q0.9 9.05 4.3 5.65 L4.4 5.55 5.45 4.6 Q6.9 3.4 8.6 2.7 11.0 1.65 13.9 1.7 16.75 1.65 19.2 2.7 20.85 3.4 22.3 4.6 L23.45 5.65 Q26.9 9.05 27.4 13.7 L27.45 15.25" fill="url(#gradient2)" fill-rule="evenodd" stroke="none"/>
  </g>
  <defs>
    <linearGradient gradientTransform="matrix(4.0E-4, 0.0098, -0.0658, 1.0E-4, 78.85, 21.05)" gradientUnits="userSpaceOnUse" id="gradient0" spreadMethod="pad" x1="-819.2" x2="819.2">
      <stop offset="0.0" stop-color="#000000"/>
      <stop offset="0.0" stop-color="#000000"/>
      <stop offset="0.0" stop-color="#000000" stop-opacity="0.6509804"/>
      <stop offset="0.0" stop-color="#000000" stop-opacity="0.0"/>
      <stop offset="0.24705882352941178" stop-color="#000000"/>
      <stop offset="0.49411764705882355" stop-color="#000000"/>
      <stop offset="0.6666666666666666" stop-color="#000000"/>
      <stop offset="1.0" stop-color="#000000" stop-opacity="0.0"/>
    </linearGradient>
    <radialGradient cx="0" cy="0" gradientTransform="matrix(0.0165, 0.0, 0.0, 0.0165, 136.4, 15.25)" gradientUnits="userSpaceOnUse" id="gradient1" r="819.2" spreadMethod="pad">
      <stop offset="0.0" stop-color="#000000"/>
      <stop offset="0.0" stop-color="#000000" stop-opacity="0.6509804"/>
      <stop offset="0.0" stop-color="#000000"/>
      <stop offset="0.5725490196078431" stop-color="#000000"/>
      <stop offset="1.0" stop-color="#000000" stop-opacity="0.0"/>
    </radialGradient>
    <radialGradient cx="0" cy="0" gradientTransform="matrix(0.0164, 0.0, 0.0, 0.0164, 14.05, 15.25)" gradientUnits="userSpaceOnUse" id="gradient2" r="819.2" spreadMethod="pad">
      <stop offset="0.0" stop-color="#000000"/>
      <stop offset="0.0" stop-color="#000000" stop-opacity="0.6509804"/>
      <stop offset="0.0" stop-color="#000000"/>
      <stop offset="0.5725490196078431" stop-color="#000000"/>
      <stop offset="1.0" stop-color="#000000" stop-opacity="0.0"/>
    </radialGradient>
  </defs>
</svg>
