<?xml version="1.0" encoding="UTF-8" standalone="no"?>
<svg xmlns:ffdec="https://www.free-decompiler.com/flash" xmlns:xlink="http://www.w3.org/1999/xlink" ffdec:objectType="shape" height="28.2px" width="67.0px" xmlns="http://www.w3.org/2000/svg">
  <g transform="matrix(1.0, 0.0, 0.0, 1.0, 31.8, 15.55)">
    <path d="M19.7 -15.5 L19.75 -15.55 Q20.2 -15.4 19.95 -15.05 L19.85 -14.95 19.75 -14.9 18.5 -14.1 Q13.35 -12.35 8.85 -9.4 12.65 -10.9 16.8 -11.35 L17.5 -11.45 18.4 -11.3 18.45 -11.2 18.45 -11.15 Q18.45 -10.95 18.25 -10.9 12.45 -10.35 7.1 -8.15 L7.05 -8.15 5.5 -7.0 Q4.9 -6.5 4.2 -6.5 L4.1 -6.8 4.1 -6.9 Q9.45 -11.2 15.85 -13.8 10.6 -12.05 5.9 -9.2 5.15 -8.75 4.7 -9.2 10.85 -13.3 18.3 -15.1 L19.3 -15.35 19.65 -15.55 19.7 -15.5 M9.85 -3.1 L9.85 -3.3 10.0 -3.55 10.5 -3.6 7.2 -4.35 Q7.15 -4.65 7.45 -4.7 L7.75 -4.8 10.7 -4.2 10.35 -4.35 Q11.95 -5.35 14.25 -5.45 L15.55 -5.5 15.65 -5.5 16.15 -5.55 16.5 -5.5 21.15 -6.3 Q26.55 -7.3 31.75 -8.8 L32.2 -8.65 33.9 -9.05 Q34.4 -8.1 32.5 -7.95 L28.95 -7.3 18.8 -4.6 18.7 -4.7 19.65 -5.15 17.65 -4.8 16.15 -4.75 15.8 -4.65 13.5 -3.7 13.9 -3.65 15.0 -4.2 Q15.2 -3.85 15.0 -3.5 L15.25 -3.45 16.45 -3.75 16.65 -3.8 Q17.15 -3.0 15.45 -2.7 L12.85 -2.2 12.0 -1.55 Q11.3 -0.85 10.45 -0.75 L10.35 -1.1 10.4 -1.2 11.05 -1.75 10.95 -1.75 10.85 -2.05 10.85 -2.15 12.1 -2.55 13.1 -3.2 12.1 -3.35 9.95 -3.0 9.85 -3.1 M12.55 -4.3 L12.35 -4.25 11.2 -4.1 11.95 -4.0 12.55 -4.3 M35.1 0.95 L35.0 1.05 32.5 1.75 32.45 2.35 32.4 2.45 Q30.85 3.4 29.25 4.3 L33.65 2.7 Q34.1 2.6 34.2 3.05 L34.2 3.1 28.55 5.2 29.55 4.9 32.25 3.95 Q32.65 4.85 30.95 5.3 L23.35 7.5 20.2 8.55 17.4 9.5 Q12.25 11.2 7.05 11.65 L5.55 12.1 Q5.2 12.2 4.85 11.9 L4.85 11.8 4.85 11.65 4.15 11.55 4.1 11.45 4.25 11.2 4.4 11.2 4.95 11.2 5.1 10.95 5.25 10.95 6.65 11.0 6.9 10.95 6.8 10.9 6.7 10.7 6.85 10.45 7.0 10.45 8.55 10.35 10.5 9.1 Q14.85 5.6 18.0 1.2 18.4 2.05 17.5 3.15 14.6 6.85 10.95 9.7 L12.9 9.1 12.3 9.2 12.2 9.05 25.35 3.85 29.15 1.4 Q30.35 0.6 31.5 0.05 31.95 0.85 30.55 1.55 L28.95 2.4 Q31.85 1.25 34.9 0.45 35.35 0.6 35.1 0.95 M26.6 5.2 Q29.35 3.85 31.7 2.0 L26.2 4.0 24.75 4.85 21.55 6.75 26.6 5.2 M16.25 9.15 L16.75 9.0 19.85 7.85 18.5 8.2 16.25 9.15 M2.7 10.3 L2.7 10.35 2.6 10.55 2.5 10.6 -10.85 9.8 -9.6 10.05 -1.3 11.2 -1.3 11.3 -1.35 11.35 -1.4 11.45 -1.5 11.55 Q-10.1 11.35 -18.35 8.55 L-18.95 8.35 Q-14.25 11.05 -8.6 11.55 L-1.7 12.2 -1.75 12.35 -1.9 12.55 Q-12.05 13.25 -20.6 8.15 L-21.75 7.25 -24.15 6.05 -24.1 5.95 -24.05 5.85 -23.85 5.8 -22.2 6.45 -22.3 6.05 -22.25 6.05 -21.3 6.8 -15.2 8.75 -15.1 8.7 -13.1 8.9 -14.9 8.25 -16.3 7.7 -22.0 5.95 -31.8 2.7 -31.8 2.65 -31.6 2.5 -31.5 2.45 -22.0 5.05 -24.4 3.2 -24.25 3.0 -24.1 2.95 -18.3 6.2 -17.25 6.5 Q-12.6 8.05 -7.85 9.15 L-7.8 9.3 -7.85 9.35 -7.35 9.4 -4.1 9.35 Q-4.0 9.35 -3.95 9.45 L-4.0 9.6 -4.0 9.65 -0.4 9.9 2.55 10.15 2.7 10.3 M-22.05 -0.95 L-21.9 -1.2 -21.75 -1.2 -20.45 -0.95 -19.85 -1.05 -18.15 -1.0 -19.15 -1.2 -19.2 -1.3 -19.2 -1.35 -19.0 -1.5 -18.9 -1.55 -16.35 -1.35 -16.3 -1.35 -15.6 -1.8 Q-16.5 -2.7 -16.55 -4.2 L-15.0 -5.45 Q-14.5 -4.8 -15.8 -4.15 L-15.9 -4.1 Q-15.9 -2.8 -14.9 -2.0 L-14.85 -2.05 -14.25 -2.05 -12.25 -3.25 -12.15 -3.3 Q-11.75 -3.35 -11.7 -2.95 L-11.7 -2.9 -13.05 -1.95 -12.55 -1.9 -12.4 -2.0 -12.25 -2.25 -12.15 -2.45 -11.8 -2.4 -11.25 -2.95 Q-10.85 -3.0 -10.8 -2.6 L-10.8 -2.55 -12.1 -1.3 -12.85 -0.85 -12.25 -1.05 Q-12.05 -0.75 -12.15 -0.5 L-11.1 -0.35 -11.05 -0.3 -11.05 -0.2 -11.1 -0.15 -11.15 -0.05 -11.25 0.05 -12.7 -0.1 -13.25 0.05 -14.75 0.25 Q-14.2 0.65 -13.45 0.9 -11.6 1.45 -10.3 2.55 L-10.35 2.65 Q-10.55 2.9 -10.8 2.75 -12.4 1.95 -14.1 1.3 -15.1 0.9 -15.8 0.2 L-16.85 0.0 -18.65 0.65 -18.7 0.55 -17.6 -0.05 -19.15 -0.15 -22.35 0.2 Q-25.1 0.6 -27.55 1.85 L-29.55 2.6 -29.6 2.5 -29.65 2.4 -29.65 2.3 -29.65 2.2 Q-27.15 0.75 -24.3 -0.05 L-21.85 -0.7 -22.0 -0.8 -22.05 -0.95 M-17.05 -5.7 Q-14.1 -8.35 -9.95 -9.6 -5.45 -11.0 -1.35 -13.05 -0.85 -12.25 -2.4 -11.65 -9.15 -9.1 -15.75 -6.25 L-7.4 -8.55 -4.8 -9.25 -4.7 -9.6 -4.65 -9.7 Q-4.2 -9.7 -4.05 -9.3 -4.0 -9.0 -4.25 -8.8 L-4.3 -8.75 -14.25 -5.9 -16.95 -5.6 -17.05 -5.7 M-13.65 -1.6 L-13.8 -1.5 -13.6 -1.5 -13.35 -1.55 -13.65 -1.6" fill="#cc0000" fill-rule="evenodd" stroke="none"/>
  </g>
</svg>
