<?xml version="1.0" encoding="UTF-8" standalone="no"?>
<svg xmlns:ffdec="https://www.free-decompiler.com/flash" xmlns:xlink="http://www.w3.org/1999/xlink" ffdec:objectType="shape" height="31.05px" width="84.35px" xmlns="http://www.w3.org/2000/svg">
  <g transform="matrix(1.0, 0.0, 0.0, 1.0, 37.8, 16.8)">
    <path d="M9.9 -11.8 L9.95 -11.9 Q15.35 -15.8 22.0 -16.8 22.45 -16.65 22.2 -16.3 L22.1 -16.2 Q15.6 -15.2 10.35 -11.55 L10.05 -11.5 Q9.9 -11.6 9.9 -11.8 M9.1 -5.15 L9.2 -5.3 9.4 -5.4 13.05 -3.9 14.0 -4.05 14.15 -4.05 14.35 -4.1 14.35 -4.15 16.05 -4.55 17.35 -5.0 18.2 -5.5 17.75 -5.7 16.3 -5.7 14.75 -5.0 14.7 -5.1 Q15.55 -5.8 16.55 -6.3 L15.7 -6.75 15.7 -6.8 15.75 -6.9 16.0 -7.05 17.1 -6.55 19.5 -7.35 19.65 -7.35 21.4 -8.45 Q21.6 -8.0 21.3 -7.6 L21.9 -7.4 21.95 -7.3 21.95 -7.2 21.75 -6.95 21.1 -6.85 21.15 -6.8 21.2 -6.7 21.2 -6.65 Q21.2 -6.45 21.0 -6.4 L20.0 -6.05 20.05 -5.95 20.0 -5.9 19.55 -5.55 19.7 -5.5 29.85 -8.2 Q35.9 -10.5 42.5 -11.5 L46.25 -12.05 Q46.7 -11.9 46.45 -11.55 L46.35 -11.45 45.25 -11.25 45.4 -11.15 45.45 -11.05 45.45 -10.95 45.25 -10.7 Q39.0 -10.3 33.2 -8.15 L33.75 -8.3 34.4 -8.4 Q34.85 -8.25 34.6 -7.9 L34.5 -7.8 21.65 -4.9 Q23.3 -4.4 25.0 -4.05 L25.05 -3.95 25.05 -3.9 24.95 -3.7 24.85 -3.65 Q22.55 -3.95 20.4 -4.65 L19.45 -4.45 17.2 -4.15 17.15 -4.15 16.95 -4.05 17.5 -4.15 Q17.95 -4.0 17.7 -3.65 L17.6 -3.55 16.65 -3.3 16.25 -3.3 15.95 -2.55 15.8 -2.2 20.15 -3.3 Q20.6 -2.45 18.9 -2.0 L15.55 -1.8 14.8 -0.65 Q14.45 -0.5 14.35 -0.85 L15.4 -3.25 15.05 -3.25 12.45 -2.6 12.35 -2.7 13.25 -3.25 12.15 -3.0 11.95 -3.0 11.9 -3.1 11.85 -3.4 11.95 -3.45 11.95 -3.55 12.05 -3.7 Q10.5 -4.35 9.1 -5.1 L9.1 -5.15 M31.45 -7.85 L31.45 -7.95 31.45 -8.05 26.9 -6.7 31.6 -7.75 31.45 -7.85 M40.2 -1.3 L40.1 -1.2 Q34.45 0.2 29.2 2.6 28.65 2.8 28.45 2.4 28.4 2.2 28.5 2.1 L28.6 2.05 Q34.15 -0.3 40.0 -1.8 40.45 -1.65 40.2 -1.3 M39.25 2.85 L36.65 3.15 37.55 3.85 37.55 3.9 37.5 4.0 37.25 4.1 37.05 4.1 36.95 4.0 36.8 3.9 Q32.9 3.8 29.25 5.25 L27.65 5.8 27.5 5.7 27.35 5.55 27.35 5.35 Q29.0 4.4 30.85 3.95 L30.85 3.9 30.85 3.8 31.0 3.55 36.65 2.6 38.0 2.3 Q38.85 1.95 39.4 2.45 L39.45 2.55 39.45 2.6 39.25 2.85 M31.7 2.6 Q30.1 3.15 28.55 3.9 24.35 5.9 20.0 7.55 19.1 7.85 18.95 7.2 25.95 4.6 32.9 1.2 33.4 2.05 31.7 2.6 M21.5 8.45 Q23.5 8.7 25.45 9.4 26.25 9.7 26.5 10.35 L23.1 9.65 15.4 9.2 12.45 9.4 12.45 9.3 12.45 9.15 12.7 8.85 12.9 8.8 15.75 8.45 19.55 8.25 Q23.05 7.4 26.6 6.05 27.1 6.9 25.45 7.3 L23.8 7.8 21.5 8.45 M12.55 10.15 L13.5 9.95 Q16.3 9.4 18.45 10.5 L18.45 10.55 12.2 10.85 12.1 10.95 10.9 12.3 10.7 12.55 10.6 12.65 Q10.4 13.0 10.05 12.85 L9.95 12.75 9.95 12.65 9.95 12.55 9.95 12.45 10.0 12.35 10.2 12.2 10.25 12.1 10.6 11.7 10.6 11.6 10.65 11.55 10.65 11.45 10.7 11.35 11.15 11.0 11.8 10.35 11.85 10.3 12.55 10.15 M2.4 12.35 L2.3 12.55 2.1 12.65 Q-5.3 12.4 -12.25 10.3 L-12.3 10.2 -12.2 10.05 -12.0 9.95 Q-5.0 11.65 2.25 12.2 L2.4 12.35 M-34.55 -1.25 Q-34.8 -1.9 -34.4 -2.45 -33.65 -0.3 -31.6 1.05 L-27.55 0.5 -26.25 0.3 Q-25.8 0.2 -25.7 0.65 L-25.75 0.7 -26.25 0.9 Q-26.4 1.4 -27.6 1.75 L-29.25 2.35 -23.0 4.9 -22.85 5.1 -23.05 5.35 -23.15 5.4 Q-26.9 4.6 -30.0 2.75 -31.45 3.55 -32.55 4.9 L-32.8 5.0 -32.9 4.7 -32.9 4.6 -30.55 2.4 -31.55 1.7 Q-32.85 1.65 -33.9 0.4 L-35.85 -1.6 Q-37.9 -3.3 -37.8 -5.55 L-37.75 -5.55 Q-36.4 -3.25 -34.55 -1.25 M-23.05 -5.4 Q-19.25 -6.25 -15.5 -7.45 L-15.2 -7.6 -14.6 -7.8 -14.4 -7.8 -10.05 -9.4 -8.75 -10.1 -8.6 -10.2 Q-8.15 -9.45 -9.5 -8.9 -12.85 -7.5 -16.35 -6.45 -17.2 -5.65 -17.0 -4.15 L-16.95 -3.75 Q-13.35 -5.5 -10.35 -8.2 -9.95 -7.3 -11.3 -6.35 -13.05 -5.1 -14.95 -4.05 -15.85 -3.55 -16.75 -3.15 L-16.55 -2.65 -16.05 -2.2 -16.05 -2.15 -16.15 -1.95 -16.35 -1.85 -17.05 -2.1 -17.45 -2.85 -19.55 -2.25 -19.65 -2.35 -19.55 -2.65 -19.5 -2.7 -17.7 -3.4 Q-18.25 -5.05 -17.25 -6.2 L-22.95 -5.0 -23.1 -5.3 -23.05 -5.4 M-19.25 -1.2 L-17.9 -1.65 -15.9 -1.45 -13.25 -2.3 -12.65 -2.15 -12.6 -2.05 -12.6 -2.0 -12.8 -1.75 -14.5 -1.2 -11.95 -0.55 -11.95 -0.5 -12.0 -0.4 -12.15 -0.25 -12.25 -0.2 -15.95 -0.8 -17.35 -0.4 -17.4 -0.4 -17.55 -0.2 Q-15.95 2.6 -13.0 4.2 -12.4 4.45 -12.4 3.95 -12.3 3.6 -11.95 3.75 L-11.85 3.85 Q-11.7 4.25 -11.95 4.6 L-12.15 4.85 Q-12.7 5.05 -13.2 4.85 -16.6 3.0 -17.95 -0.25 L-19.85 0.15 -19.95 0.05 -19.95 -0.05 -24.05 0.4 Q-22.25 -0.65 -19.85 -0.75 L-19.25 -1.2 M-19.05 -0.5 L-18.2 -0.75 -19.1 -0.65 -19.05 -0.5 M-16.8 9.3 Q-21.25 8.9 -25.25 10.75 L-26.75 11.55 -26.9 11.45 -27.05 11.3 -27.05 11.2 -27.05 11.1 Q-25.5 9.85 -23.5 9.45 L-19.65 8.55 -16.65 8.9 -16.6 8.95 -16.6 9.0 -16.7 9.2 -16.8 9.3 M-14.65 10.35 L-14.6 10.45 -14.75 10.75 Q-18.5 9.6 -22.4 10.75 L-22.45 10.65 Q-21.9 9.95 -20.8 9.85 L-19.15 9.55 Q-16.75 9.3 -14.7 10.3 L-14.65 10.35 M-14.15 11.05 Q-12.3 10.55 -10.95 11.45 L-10.95 11.55 -11.0 11.6 -11.15 11.75 -11.25 11.8 Q-14.0 10.95 -16.05 12.65 -16.85 13.3 -17.0 14.25 L-17.15 14.25 -17.4 14.15 -17.45 14.05 Q-17.55 13.25 -17.0 12.65 -16.1 11.75 -14.95 11.3 L-14.15 11.05 M-28.85 1.4 L-31.4 1.2 -30.9 1.5 -29.95 2.0 -28.85 1.4" fill="#cc0000" fill-rule="evenodd" stroke="none"/>
  </g>
</svg>
