<?xml version="1.0" encoding="UTF-8" standalone="no"?>
<svg xmlns:ffdec="https://www.free-decompiler.com/flash" xmlns:xlink="http://www.w3.org/1999/xlink" ffdec:objectType="shape" height="36.5px" width="96.6px" xmlns="http://www.w3.org/2000/svg">
  <g transform="matrix(1.0, 0.0, 0.0, 1.0, 39.95, 17.85)">
    <path d="M14.2 -15.05 L17.6 -16.7 16.6 -16.55 16.6 -16.6 Q16.85 -17.05 17.5 -17.4 L17.6 -17.45 19.9 -17.8 20.5 -17.65 20.55 -17.55 20.55 -17.45 20.35 -17.2 18.35 -16.85 Q18.55 -16.25 17.35 -15.75 L14.35 -14.55 14.1 -14.6 14.15 -14.95 14.2 -15.05 M18.55 -4.4 L18.7 -4.3 Q19.25 -2.65 18.9 -0.85 L18.8 -0.65 Q18.45 -0.5 18.35 -0.85 18.5 -2.6 18.25 -4.35 L18.4 -4.45 18.55 -4.4 M26.9 -17.45 Q27.6 -16.95 26.5 -16.85 23.8 -16.75 21.25 -15.95 20.1 -15.65 19.35 -15.95 22.55 -17.8 26.75 -17.45 L26.9 -17.45 M27.6 -8.15 L28.2 -7.5 Q33.1 -9.2 38.15 -10.5 L39.85 -11.0 42.0 -11.45 42.25 -11.5 43.0 -11.7 Q46.35 -12.45 49.5 -13.55 L49.65 -13.2 56.5 -15.2 Q57.1 -14.3 55.2 -14.0 L51.15 -13.0 50.0 -12.6 50.15 -12.65 Q50.6 -12.5 50.35 -12.15 L50.25 -12.05 50.2 -12.05 51.65 -10.9 51.65 -10.85 51.6 -10.75 Q51.4 -10.5 51.15 -10.65 48.25 -12.5 44.8 -10.95 44.6 -10.85 44.55 -11.1 L44.85 -11.3 Q40.05 -10.45 35.4 -8.8 L33.9 -8.05 Q33.55 -8.1 33.6 -8.4 L34.15 -8.7 34.05 -8.7 28.55 -7.15 30.1 -5.4 30.3 -4.95 30.0 -4.75 29.8 -4.75 28.85 -5.9 28.5 -6.35 27.85 -6.95 27.45 -6.85 27.35 -6.95 27.45 -7.2 27.5 -7.25 25.85 -9.1 Q25.75 -9.2 26.0 -9.2 L27.45 -8.25 27.6 -8.15 M25.65 -8.8 Q26.25 -7.9 25.25 -6.9 L25.15 -6.85 Q24.8 -6.9 24.85 -7.2 L25.55 -8.75 25.65 -8.8 M24.1 -9.35 L24.65 -9.7 Q25.05 -9.0 24.05 -8.05 L23.3 -7.35 23.15 -7.25 23.05 -7.2 21.7 -6.45 21.45 -6.5 21.45 -6.75 21.5 -6.9 22.75 -7.85 Q22.85 -9.05 24.0 -9.55 L24.1 -9.35 M24.65 -2.65 L24.7 -2.55 24.7 -2.45 24.5 -2.2 Q22.3 -1.6 20.6 -2.2 L20.65 -2.35 20.95 -2.65 24.0 -2.8 24.65 -2.65 M36.1 -0.45 L37.35 -0.8 38.5 -1.55 38.6 -1.1 42.1 -1.7 46.0 -2.05 48.3 -1.9 48.45 -1.8 48.45 -1.7 48.25 -1.45 Q43.0 -1.4 37.95 -0.25 L37.4 0.1 Q36.85 0.35 36.3 0.75 L28.3 6.0 28.15 5.7 28.2 5.6 Q32.2 2.65 36.3 -0.1 L36.1 -0.45 M43.8 3.85 L43.9 3.95 44.1 4.15 44.15 4.2 44.2 4.4 44.15 4.5 43.9 4.6 43.7 4.6 Q39.15 2.85 34.2 3.85 L34.1 3.7 Q34.85 3.05 36.15 3.05 L38.25 2.95 Q41.1 2.7 43.65 3.8 L43.8 3.85 M20.5 8.3 L20.9 8.2 22.8 8.8 26.0 8.2 Q26.45 8.1 26.55 8.55 L26.55 8.6 23.85 9.2 Q26.8 10.55 28.95 13.25 29.75 14.2 29.45 15.25 L29.3 15.35 Q28.95 15.5 28.85 15.15 L28.85 15.05 28.95 14.8 Q26.3 10.05 21.1 9.15 L22.7 10.3 22.7 10.35 Q21.7 10.45 20.5 9.75 19.0 8.95 17.7 8.45 L17.7 8.4 17.9 8.25 18.0 8.2 20.25 8.75 20.2 8.65 20.2 8.55 20.35 8.3 20.5 8.3 M21.2 12.2 L19.45 12.0 15.7 11.25 15.6 11.05 15.6 11.0 15.8 10.85 15.9 10.8 Q19.0 10.35 21.2 12.15 L21.2 12.2 M29.6 7.35 L29.55 7.45 27.25 8.9 Q26.9 8.85 26.95 8.55 27.8 7.6 29.05 7.0 L29.25 6.95 Q29.7 6.95 29.6 7.35 M10.2 16.9 Q9.7 14.05 10.75 11.7 11.2 12.8 10.9 14.3 10.65 15.65 10.75 16.9 10.5 17.2 10.2 16.9 M-38.65 -12.2 Q-38.3 -11.5 -38.95 -10.35 -39.45 -9.55 -39.35 -8.6 -38.75 -4.2 -34.85 -1.6 -34.25 -1.2 -34.15 -0.65 -34.3 -0.35 -34.6 -0.5 -38.65 -3.35 -39.75 -7.85 -40.4 -10.5 -38.65 -12.2 M-31.7 -1.05 L-31.6 -1.2 -31.55 -1.3 -30.15 -1.7 -28.5 -2.4 -25.35 -2.05 -24.75 -2.3 -24.7 -2.3 -23.8 -2.5 -23.5 -2.55 -23.3 -2.55 -23.3 -2.65 -23.1 -2.85 -23.0 -2.9 -18.45 -2.6 -18.25 -3.8 -17.7 -2.55 -12.95 -1.3 -12.9 -1.25 -12.9 -1.05 -13.0 -0.85 -16.1 -1.5 Q-15.85 -1.1 -16.2 -0.8 L-15.35 -0.35 -15.35 -0.3 -17.05 -0.35 -17.1 -0.35 -21.6 0.65 -21.75 0.35 -21.7 0.25 -18.35 -0.85 -18.45 -0.9 Q-19.75 -1.6 -21.15 -1.9 L-21.2 -1.9 -22.2 -1.9 -22.4 -1.75 Q-25.75 -1.5 -29.0 -0.45 -29.85 -0.15 -30.05 -0.8 L-28.25 -1.35 -26.6 -1.7 -28.65 -1.75 -29.7 -1.15 Q-30.8 -0.5 -31.7 -0.95 L-31.7 -1.05 M-29.3 -4.55 L-23.9 -5.35 -20.65 -5.9 -20.05 -6.65 Q-19.65 -7.15 -19.1 -7.2 L-18.1 -7.2 -17.9 -7.15 -17.6 -7.0 -16.95 -6.4 -17.0 -6.3 -17.15 -6.15 -17.25 -6.1 -17.4 -6.1 Q-17.7 -5.75 -18.55 -5.55 L-20.45 -5.1 -20.6 -4.8 -20.75 -4.7 Q-20.85 -4.6 -21.0 -4.6 L-21.2 -4.65 -21.25 -4.75 -21.3 -4.9 -27.15 -4.05 -29.2 -4.3 Q-29.35 -4.35 -29.3 -4.55 M-22.05 -0.05 L-22.05 0.05 -22.25 0.3 -24.05 0.35 -24.15 0.45 -25.15 0.55 -25.15 0.45 -25.15 0.3 -25.15 0.2 -25.05 0.1 -24.0 -0.3 -22.1 -0.15 -22.05 -0.05 M-19.25 -6.45 L-19.65 -6.15 -18.4 -6.45 -19.15 -6.5 -19.25 -6.45 M-16.55 -4.15 Q-15.45 -6.1 -13.75 -7.45 -13.35 -6.8 -14.35 -5.85 L-15.2 -4.75 Q-15.65 -3.9 -16.45 -3.75 L-16.6 -4.05 -16.55 -4.15 M-18.45 -1.75 L-18.25 -1.65 -18.3 -1.7 -18.45 -1.75 M-16.3 -1.55 L-16.75 -1.65 -16.8 -1.65 -16.9 -1.6 -17.0 -1.55 -17.45 -1.6 -17.35 -1.3 -17.1 -1.2 -16.15 -1.55 -16.3 -1.55 M-15.2 2.85 L-15.65 4.0 -16.0 4.3 -19.55 2.9 -19.6 2.25 -19.35 2.05 Q-19.05 2.1 -19.05 2.35 L-19.05 2.45 Q-17.6 3.25 -16.05 3.5 L-15.85 2.85 -15.65 2.55 Q-15.25 2.5 -15.2 2.85 M-14.7 11.25 L-14.5 11.1 -14.4 11.05 Q-10.1 12.5 -5.55 12.9 L-5.45 13.05 Q-10.4 13.5 -14.7 11.3 L-14.7 11.25 M-16.45 18.4 Q-16.6 18.75 -16.95 18.6 -20.15 15.6 -17.05 12.6 L-16.9 12.55 Q-16.45 12.7 -16.7 13.05 L-16.7 13.15 -17.75 14.2 -17.8 14.3 Q-18.45 16.7 -16.5 18.25 L-16.45 18.4 M-0.45 13.7 L-0.55 13.8 -6.4 14.05 -6.45 13.95 -6.3 13.7 -6.15 13.7 -0.65 13.2 Q-0.2 13.35 -0.45 13.7 M-28.05 12.05 Q-30.85 13.2 -33.1 15.25 L-33.2 16.1 -33.4 16.35 Q-33.7 16.45 -33.8 16.15 L-33.75 15.3 -33.7 15.05 Q-31.4 12.7 -28.3 11.45 L-28.15 11.45 Q-27.7 11.6 -27.95 11.95 L-28.05 12.05 M-28.7 10.1 L-26.5 9.7 -24.75 9.85 -24.7 9.95 -24.7 10.05 -24.9 10.3 -25.1 10.3 Q-25.05 10.75 -26.0 11.2 L-27.45 11.4 Q-27.1 10.7 -26.4 10.35 L-28.25 10.9 -29.45 11.0 Q-29.45 10.35 -28.7 10.1 M-23.95 10.2 L-21.5 9.55 Q-20.95 9.75 -21.4 10.15 L-21.5 10.25 -24.05 10.65 -24.0 10.3 -23.95 10.2 M-34.0 1.1 L-33.95 1.2 -33.95 1.3 -34.15 1.55 -35.1 1.45 -35.15 1.4 -35.1 1.25 -34.75 0.95 Q-34.3 0.8 -34.0 1.1 M-37.0 1.0 Q-36.2 0.75 -35.7 1.2 -36.15 2.05 -37.3 1.6 L-37.4 1.5 -37.5 1.4 Q-38.55 1.2 -39.15 0.45 L-38.95 0.2 -38.85 0.2 -37.1 0.95 -37.0 1.0" fill="#cc0000" fill-rule="evenodd" stroke="none"/>
  </g>
</svg>
