<?xml version="1.0" encoding="UTF-8" standalone="no"?>
<svg xmlns:ffdec="https://www.free-decompiler.com/flash" xmlns:xlink="http://www.w3.org/1999/xlink" ffdec:objectType="shape" height="39.25px" width="104.05px" xmlns="http://www.w3.org/2000/svg">
  <g transform="matrix(1.0, 0.0, 0.0, 1.0, 41.3, 19.45)">
    <path d="M19.7 -17.75 L19.7 -17.7 19.65 -17.6 19.2 -17.5 17.5 -18.1 17.45 -18.2 17.45 -18.25 Q17.55 -18.45 17.75 -18.45 19.0 -18.65 19.7 -17.75 M19.5 -18.35 Q19.4 -18.5 19.45 -18.65 L20.9 -19.1 22.0 -19.3 23.4 -19.15 23.45 -19.05 23.45 -18.95 23.25 -18.7 19.75 -18.25 19.55 -18.25 19.5 -18.35 M19.65 -3.05 L20.3 -2.65 20.4 -2.55 21.5 -0.5 21.5 -0.3 21.25 -0.2 21.05 -0.25 Q20.05 -1.65 19.55 -3.0 L19.65 -3.05 M30.95 -15.4 Q28.4 -17.35 24.8 -17.25 L24.7 -17.45 24.7 -17.5 24.9 -17.65 25.0 -17.7 Q28.65 -18.15 30.95 -15.8 L30.95 -15.4 M28.9 -11.8 Q29.3 -10.95 28.3 -9.85 27.3 -8.7 25.95 -8.5 L25.85 -8.8 25.85 -8.9 Q27.6 -9.85 28.5 -11.65 L28.9 -11.8 M28.8 -8.5 Q28.65 -8.6 28.65 -8.8 L28.7 -8.9 Q29.1 -9.25 29.65 -9.3 30.3 -8.65 29.0 -8.5 L28.8 -8.5 M25.2 -2.85 L25.4 -2.95 Q26.65 -2.75 27.7 -2.05 L27.7 -1.95 27.6 -1.8 27.4 -1.7 Q26.25 -2.0 25.15 -2.55 L25.1 -2.7 25.2 -2.85 M37.85 -10.2 Q40.3 -11.65 43.45 -12.35 L49.25 -13.4 49.9 -13.25 49.95 -13.15 49.95 -13.05 49.75 -12.8 Q43.7 -11.8 37.95 -10.1 L37.85 -10.2 M34.25 -9.95 L34.4 -9.9 34.5 -9.8 35.25 -8.4 35.3 -8.3 36.4 -5.4 36.45 -5.15 Q36.25 -4.85 35.95 -5.0 L34.7 -7.9 34.7 -8.1 34.5 -8.3 34.45 -8.4 Q34.05 -9.15 34.15 -9.85 L34.25 -9.95 M54.6 -12.8 L54.8 -12.75 54.95 -12.65 Q55.35 -12.5 55.55 -12.2 L55.55 -12.1 55.5 -12.0 Q55.05 -11.7 54.55 -12.15 L52.05 -12.4 52.05 -12.5 Q52.45 -12.85 53.0 -12.8 L54.6 -12.8 M50.35 -13.55 Q56.65 -15.1 62.65 -17.7 63.1 -16.75 61.3 -16.25 L59.5 -15.65 Q54.95 -13.95 50.35 -13.45 L50.35 -13.55 M50.55 -2.0 L50.65 -2.05 Q53.25 -2.65 55.3 -1.7 L55.3 -1.65 55.25 -1.55 55.1 -1.4 55.0 -1.35 50.35 -1.75 50.35 -1.85 50.55 -2.0 M48.4 -1.55 L44.65 -1.25 Q44.3 -1.25 44.35 -1.55 44.65 -2.0 45.4 -1.9 L48.65 -2.05 Q49.3 -1.6 48.4 -1.55 M56.65 -7.4 Q55.9 -7.95 55.25 -9.1 L54.65 -9.95 Q54.35 -10.35 54.85 -10.45 L55.3 -10.25 55.45 -10.15 Q56.5 -9.1 56.8 -7.7 L56.65 -7.4 M48.2 6.1 L48.2 6.15 48.05 6.3 47.7 6.35 Q45.3 4.75 42.45 4.25 42.15 4.05 42.2 3.8 L42.5 3.55 Q45.7 4.1 48.2 6.1 M35.9 2.55 L35.95 2.45 Q38.5 0.8 39.5 -1.8 40.1 -0.65 39.1 0.7 37.85 2.3 36.05 2.85 L35.9 2.55 M34.4 4.75 L33.2 6.35 32.9 7.0 32.75 7.05 32.45 6.7 32.6 6.25 32.6 6.05 Q33.6 4.5 34.75 3.2 35.2 3.85 34.4 4.75 M30.55 8.9 Q29.35 10.15 28.3 9.45 29.4 9.0 30.35 8.2 30.85 8.35 30.55 8.8 L30.55 8.9 M23.7 10.45 Q24.95 9.9 26.5 9.7 27.05 10.6 25.35 10.8 L23.8 10.7 23.7 10.45 M21.85 9.45 L22.0 9.45 Q24.55 10.85 24.4 13.6 L24.35 13.6 23.95 13.5 23.95 13.4 Q23.65 11.15 21.75 9.85 L21.7 9.7 21.85 9.45 M27.35 11.95 L27.5 11.75 27.65 11.7 Q28.6 12.25 29.25 13.05 L29.4 13.15 32.2 17.75 32.45 18.4 Q32.3 18.75 31.95 18.6 L31.8 18.5 30.7 16.2 30.4 15.7 29.95 15.4 Q29.05 13.5 27.4 12.05 L27.35 11.95 M23.5 15.7 L23.25 15.8 23.05 15.75 Q21.55 13.45 19.05 12.7 L18.95 12.45 19.1 12.25 19.25 12.2 Q22.2 12.9 23.5 15.6 L23.5 15.7 M10.65 16.95 Q11.65 18.6 13.65 18.3 L13.8 18.35 Q14.05 18.5 13.9 18.7 L13.85 18.8 Q11.75 19.4 10.35 17.6 10.25 17.25 10.5 17.05 L10.65 16.95 M-41.0 -14.45 L-40.0 -10.5 -39.2 -6.45 -39.7 -6.5 Q-41.3 -10.45 -41.05 -14.45 L-41.0 -14.45 M-37.15 -17.3 L-37.2 -17.2 -39.35 -15.5 -39.5 -15.8 -39.45 -15.9 Q-38.75 -17.1 -37.5 -17.7 -37.05 -17.7 -37.15 -17.3 M-36.55 -4.8 L-36.45 -4.95 -36.4 -5.0 -36.25 -5.05 -29.75 -4.6 -29.7 -4.55 -29.75 -4.4 -29.8 -4.3 -29.9 -4.2 -36.5 -4.7 -36.55 -4.8 M-36.2 -0.15 L-37.65 0.55 -37.95 0.65 -38.0 0.55 -38.05 0.25 -37.9 0.15 -39.85 0.5 -39.75 0.65 -39.75 0.7 Q-39.9 1.0 -40.25 0.9 -41.7 -0.2 -41.1 -1.45 L-40.15 0.05 -40.05 -0.05 -36.7 -0.7 -34.9 -1.3 -30.0 -2.05 -27.35 -1.9 -27.25 -1.85 -25.85 -2.25 -24.0 -2.55 -20.8 -2.5 Q-21.2 -4.05 -20.85 -5.5 L-20.75 -5.55 Q-20.1 -4.15 -20.3 -2.45 L-14.2 -1.55 -14.2 -1.5 -14.25 -1.4 -14.5 -1.2 -17.2 -1.65 -15.7 -1.1 -15.7 -1.05 -18.05 -1.0 -19.15 -1.15 Q-18.7 -0.45 -19.9 0.4 L-21.05 1.55 Q-21.5 2.2 -22.2 2.25 L-22.3 1.95 -22.3 1.85 -20.65 0.0 Q-21.35 -0.6 -21.25 -1.3 L-27.9 -0.8 -31.25 -0.7 -31.3 -0.8 -31.0 -0.9 -36.1 -0.15 -36.2 -0.15 M-23.0 -6.6 L-23.05 -6.8 -23.05 -6.9 Q-22.55 -7.55 -21.75 -7.8 L-21.25 -7.95 -20.75 -7.95 -20.6 -7.9 Q-19.4 -7.45 -18.55 -6.35 L-18.3 -5.95 -18.3 -5.9 -18.35 -5.6 -18.45 -5.4 -18.6 -5.35 -18.9 -5.6 Q-19.1 -6.15 -19.65 -6.5 L-20.15 -7.0 -20.35 -7.05 -20.85 -7.3 Q-21.95 -7.3 -22.7 -6.55 L-22.95 -6.5 -23.0 -6.6 M-28.35 -4.65 Q-26.2 -4.45 -24.35 -5.3 L-23.6 -5.15 -23.55 -5.05 -23.55 -4.95 -23.75 -4.7 -28.6 -4.35 -28.65 -4.45 Q-28.65 -4.7 -28.35 -4.65 M-25.5 -0.2 Q-25.05 -0.3 -24.95 0.15 L-25.0 0.2 -25.25 0.4 -25.55 0.45 -26.25 1.25 -26.35 1.3 -26.6 1.1 -26.65 0.95 -25.85 -0.05 -25.5 -0.2 M-20.8 -1.2 L-20.15 -0.45 -19.25 -1.1 -19.2 -1.15 -20.8 -1.25 -20.8 -1.2 M-18.05 4.95 L-18.1 5.35 -18.3 5.6 -18.4 5.75 Q-20.2 5.8 -21.6 4.8 L-21.65 4.7 -21.35 4.45 -21.05 4.6 -21.0 4.65 -18.7 4.9 -18.65 4.85 -18.2 4.75 -18.05 4.95 M-17.05 18.55 L-16.95 18.6 -15.3 18.7 -14.75 18.6 -14.65 18.7 -14.65 18.85 -14.7 19.05 -15.1 19.35 Q-17.1 19.95 -17.65 18.35 L-17.5 18.2 Q-17.2 18.3 -17.05 18.55 M-15.25 12.85 L-15.15 12.8 Q-12.15 13.05 -9.6 14.45 L-9.6 14.55 -9.65 14.6 -9.7 14.7 -9.9 14.8 Q-12.6 13.75 -15.4 13.15 L-15.45 13.05 -15.45 13.0 -15.25 12.85 M-19.25 16.2 Q-18.9 17.3 -19.1 18.85 L-19.1 18.95 Q-18.6 19.15 -18.35 19.55 L-18.55 19.75 -18.65 19.8 Q-19.3 19.8 -19.65 19.3 -19.95 17.6 -19.35 16.25 L-19.25 16.2 M-1.25 15.35 Q-1.15 15.35 -1.1 15.45 L-1.1 15.55 -1.3 15.8 -5.85 15.9 -5.95 15.7 -5.95 15.65 Q-5.0 15.1 -3.9 15.2 L-3.75 15.2 -1.25 15.35 M-25.4 9.8 Q-25.0 9.65 -24.75 9.95 L-24.7 10.05 -24.7 10.1 -24.9 10.35 -27.2 10.95 -27.3 10.9 -27.3 10.8 -27.2 10.55 Q-26.3 10.1 -25.4 9.8 M-27.9 11.95 L-27.95 12.05 Q-28.65 12.7 -29.5 13.05 -29.85 13.0 -29.8 12.6 L-28.25 11.55 Q-27.8 11.55 -27.9 11.95 M-35.5 1.2 L-35.45 1.3 -35.45 1.35 -35.65 1.6 Q-36.65 2.05 -36.9 1.3 L-36.9 1.25 -36.6 1.05 Q-35.95 0.8 -35.5 1.2 M-34.95 11.35 Q-33.9 10.45 -32.45 10.0 L-32.25 9.95 Q-31.9 9.85 -31.65 10.1 L-31.6 10.2 -31.6 10.3 -31.8 10.55 -34.1 11.35 Q-34.3 11.65 -34.65 11.75 L-34.85 11.75 -34.9 11.65 -34.95 11.35 M-32.4 15.2 L-32.45 15.3 Q-34.6 16.6 -34.5 19.05 L-34.6 19.25 Q-34.95 19.4 -35.05 19.05 -35.25 16.35 -32.95 14.85 L-32.75 14.8 Q-32.3 14.8 -32.4 15.2" fill="#cc0000" fill-rule="evenodd" stroke="none"/>
  </g>
</svg>
