<?xml version="1.0" encoding="UTF-8" standalone="no"?>
<svg xmlns:ffdec="https://www.free-decompiler.com/flash" xmlns:xlink="http://www.w3.org/1999/xlink" ffdec:objectType="shape" height="46.25px" width="123.25px" xmlns="http://www.w3.org/2000/svg">
  <g transform="matrix(1.0, 0.0, 0.0, 1.0, 53.2, 23.2)">
    <path d="M19.65 -20.3 L20.5 -19.8 20.65 -19.7 21.0 -18.95 20.95 -18.5 20.75 -18.5 20.45 -18.6 Q19.65 -19.45 19.6 -20.25 L19.65 -20.3 M30.6 -17.55 L30.75 -17.55 Q32.95 -16.7 34.55 -14.9 L34.7 -15.0 34.9 -15.05 34.95 -14.4 34.95 -14.3 34.7 -14.1 33.95 -13.7 33.25 -13.35 Q32.9 -13.4 32.95 -13.7 L33.9 -14.6 30.45 -17.3 30.6 -17.55 M27.2 -19.3 L27.15 -19.25 26.9 -19.1 26.7 -19.15 Q25.65 -20.05 24.35 -20.25 L24.35 -20.35 Q24.45 -20.55 24.65 -20.55 26.35 -20.75 27.2 -19.4 L27.2 -19.3 M30.2 -10.7 L30.35 -11.0 30.6 -11.3 Q29.9 -11.5 30.4 -11.9 L30.5 -11.95 30.75 -11.95 30.9 -11.9 31.0 -11.8 31.2 -11.65 Q31.25 -10.9 30.85 -10.3 L30.5 -10.1 Q30.15 -10.15 30.15 -10.45 L30.2 -10.7 M23.45 -0.8 Q22.9 -0.85 22.6 -1.2 L22.6 -1.3 22.75 -1.55 22.9 -1.55 Q24.3 -1.3 24.65 0.1 L24.65 0.2 24.4 0.3 24.2 0.25 23.6 -0.5 23.45 -0.8 M28.75 -2.45 Q29.45 -2.1 29.75 -1.35 L29.75 -1.3 29.5 -1.1 29.3 -1.15 Q28.35 -1.75 28.65 -2.4 L28.75 -2.45 M38.5 -10.3 Q39.05 -9.4 39.2 -8.2 L39.2 -8.1 Q39.05 -7.75 38.7 -7.9 L38.5 -8.2 38.45 -8.3 Q38.2 -9.3 38.4 -10.25 L38.5 -10.3 M39.0 -7.8 Q39.75 -6.65 39.4 -5.15 L39.35 -5.15 Q39.05 -5.05 38.95 -5.35 38.65 -6.6 38.9 -7.7 L39.0 -7.8 M31.45 -9.8 L31.85 -10.25 32.0 -10.3 32.2 -9.75 Q32.75 -9.3 31.95 -9.3 L31.9 -9.3 31.85 -9.25 31.75 -9.2 Q31.35 -9.3 31.4 -9.7 L31.45 -9.8 M59.35 -16.2 L65.5 -19.2 Q66.0 -19.25 65.9 -18.8 L65.85 -18.7 60.1 -16.0 Q59.45 -15.65 59.35 -16.2 M55.4 -14.4 L55.45 -14.3 55.45 -14.25 Q55.45 -14.05 55.25 -14.0 50.8 -13.8 46.6 -12.35 L46.0 -12.15 45.7 -12.1 45.65 -12.2 45.6 -12.5 Q48.0 -14.1 51.0 -14.3 L54.0 -14.55 55.4 -14.4 M42.15 -1.45 Q43.0 0.4 41.1 1.95 L40.95 2.05 Q40.3 2.4 40.1 1.8 40.2 1.45 40.7 1.45 41.9 0.25 42.1 -1.45 L42.15 -1.45 M49.9 -2.05 Q52.35 -2.0 54.3 -0.65 L54.3 -0.6 52.0 -0.9 49.6 -1.8 49.6 -1.85 49.8 -2.0 49.9 -2.05 M58.25 -12.05 L58.2 -12.2 58.3 -12.35 58.5 -12.45 Q59.7 -12.35 60.0 -11.3 L60.0 -11.2 59.85 -11.15 59.55 -11.15 58.25 -12.05 M59.35 -7.8 L59.8 -7.4 59.85 -7.3 60.0 -5.3 59.85 -5.15 Q59.55 -5.05 59.45 -5.35 L59.3 -6.75 59.3 -6.95 Q58.8 -7.4 59.25 -7.75 L59.35 -7.8 M59.15 -2.2 Q59.7 -1.35 58.15 -1.0 57.15 -0.75 56.5 -1.3 L56.45 -1.45 59.15 -2.2 M69.35 -21.4 L66.55 -19.05 66.35 -19.1 66.35 -19.35 66.45 -19.45 69.9 -23.2 Q70.4 -22.4 69.35 -21.4 M51.2 5.95 L51.2 6.05 51.1 6.2 51.0 6.3 48.75 5.95 Q50.35 7.0 51.45 8.6 L51.45 8.65 Q51.3 9.0 50.95 8.85 49.6 7.2 47.9 6.05 L47.85 5.95 47.95 5.6 48.1 5.55 48.1 5.5 48.3 5.35 48.4 5.3 51.15 5.9 51.2 5.95 M37.25 3.45 Q37.7 4.35 37.4 5.6 L36.95 7.7 36.45 7.65 Q36.45 5.45 37.15 3.5 L37.25 3.45 M31.4 11.2 L31.4 11.3 Q31.2 11.85 30.65 11.75 L30.5 11.45 30.55 11.35 30.7 11.2 30.8 11.1 Q30.5 10.45 31.0 10.2 31.6 10.4 31.4 11.2 M25.05 11.55 L25.05 11.45 25.2 11.2 25.75 11.1 26.35 10.95 27.35 11.1 27.4 11.2 27.4 11.3 27.2 11.55 25.15 11.65 25.05 11.55 M25.5 15.15 L24.2 15.0 23.85 14.6 Q23.75 13.45 24.1 12.4 L24.25 12.3 Q24.7 13.05 24.45 14.2 L24.45 14.3 Q25.35 14.2 25.8 14.85 L25.6 15.1 25.5 15.15 M22.1 14.8 L22.4 14.55 Q24.2 15.5 24.1 17.4 L24.05 17.5 Q23.65 17.85 23.45 17.4 L23.55 17.0 23.6 16.85 Q23.0 15.7 22.1 14.85 L22.1 14.8 M32.75 15.45 L34.25 19.4 34.2 19.55 33.7 19.5 Q32.45 17.4 32.45 15.3 L32.5 15.3 32.65 15.35 32.75 15.45 M33.45 23.0 L33.4 23.05 33.1 22.7 Q33.2 20.75 32.85 18.95 L32.9 18.95 Q34.35 20.8 33.45 23.0 M12.9 18.3 L13.25 18.2 Q14.0 18.15 14.55 18.7 L14.65 18.8 14.95 19.3 15.5 19.65 15.6 19.85 15.65 20.2 15.6 20.3 Q14.7 20.2 14.0 19.3 L13.7 18.85 13.25 18.85 13.0 19.0 12.6 18.9 12.6 18.8 12.6 18.6 12.6 18.45 12.9 18.3 M-41.1 -18.2 L-41.2 -18.15 -41.45 -15.8 Q-41.45 -15.6 -41.6 -15.5 -41.95 -15.35 -42.05 -15.7 -42.3 -17.8 -41.15 -19.2 -40.55 -18.8 -41.1 -18.2 M-42.6 -0.2 L-32.4 -2.05 -32.15 -2.05 -31.9 -1.7 -29.4 -1.9 Q-28.1 -2.2 -27.1 -1.55 L-27.1 -1.5 -27.15 -1.4 -27.3 -1.25 -27.4 -1.2 Q-33.25 -1.25 -38.9 0.1 L-35.15 -0.55 Q-34.55 0.25 -36.25 0.45 -43.65 1.2 -50.75 3.5 L-53.1 4.25 -53.2 3.95 -53.2 3.85 -50.5 2.9 -51.45 3.05 Q-50.45 1.95 -48.55 1.4 L-43.3 -0.05 Q-43.3 -0.95 -42.7 -1.5 L-42.6 -1.55 Q-42.3 -0.95 -42.6 -0.2 M-36.15 -21.15 L-36.1 -21.05 -36.1 -20.95 -36.3 -20.7 -38.2 -20.85 -38.2 -20.95 Q-38.05 -21.3 -37.65 -21.3 L-36.15 -21.15 M-37.6 -6.55 Q-36.1 -5.95 -34.75 -4.8 L-34.65 -4.7 -33.7 -4.6 -33.55 -4.45 -33.65 -4.2 -34.1 -3.95 Q-36.25 -4.85 -37.9 -6.3 L-37.8 -6.45 -37.6 -6.55 M-22.95 -8.35 L-22.9 -8.45 -22.5 -8.5 -22.25 -8.55 -21.85 -8.55 -21.7 -8.5 Q-20.65 -7.35 -20.3 -5.85 L-20.3 -5.4 Q-20.65 -4.9 -21.25 -4.75 L-21.45 -4.75 -21.5 -4.85 -21.55 -5.05 -21.55 -5.15 -21.25 -5.35 -20.95 -5.7 -21.0 -5.85 -21.1 -6.35 -21.6 -7.4 -21.9 -7.85 -23.0 -8.05 -23.05 -8.1 -23.05 -8.2 -22.95 -8.35 M-27.15 -4.55 Q-29.35 -3.45 -31.4 -4.3 L-27.5 -5.05 Q-27.0 -5.1 -27.1 -4.65 L-27.15 -4.55 M-25.75 -3.45 L-23.5 -1.6 -23.5 -1.55 Q-25.15 -1.55 -25.9 -3.35 L-25.75 -3.45 M-19.85 5.45 Q-19.3 5.8 -19.85 6.45 L-19.9 6.5 Q-21.0 7.0 -21.55 6.2 L-21.4 5.95 -21.25 5.95 Q-20.6 6.25 -20.25 5.8 -20.15 5.5 -19.85 5.45 M-14.9 20.05 L-16.4 20.3 -16.55 20.05 -14.0 18.2 Q-13.55 19.15 -14.9 20.05 M-19.35 22.05 Q-19.5 22.4 -19.85 22.25 -21.05 21.05 -20.65 20.05 -19.8 20.85 -19.35 21.95 L-19.35 22.05 M-3.95 16.85 L-3.85 16.9 -3.6 17.2 -3.6 17.3 Q-4.85 18.0 -6.3 17.1 L-6.3 17.0 -6.1 16.85 -6.0 16.8 -4.15 16.8 -3.95 16.85 M-0.9 17.6 L-0.85 17.7 -0.85 17.8 -1.05 18.05 Q-2.15 18.5 -2.45 17.7 L-2.45 17.65 -2.15 17.45 Q-1.4 17.15 -0.9 17.6 M-23.7 0.2 Q-23.6 -0.35 -23.0 -0.4 -22.65 0.05 -22.9 0.8 L-22.8 0.9 -22.7 1.15 -23.0 1.35 -23.15 1.35 -23.2 1.4 -23.2 1.6 -23.2 1.7 -22.85 2.3 -22.9 2.35 Q-23.05 2.65 -23.35 2.5 -24.05 1.75 -23.9 0.95 L-24.65 0.45 -24.55 0.3 -24.35 0.2 -23.65 0.3 -23.7 0.25 -23.7 0.2 M-26.75 1.6 L-26.8 1.7 Q-27.15 1.95 -27.35 1.55 -27.6 0.95 -27.2 0.5 L-27.1 0.45 Q-26.65 0.9 -26.75 1.6 M-28.95 11.25 L-29.1 11.25 -29.25 10.95 -29.2 10.85 Q-28.75 10.1 -28.0 9.7 -27.6 10.55 -28.95 11.25 M-38.3 1.2 L-38.3 1.15 -38.0 0.95 Q-37.55 0.8 -37.25 1.1 L-37.2 1.2 -37.2 1.3 -37.4 1.55 Q-38.15 1.8 -38.3 1.2 M-37.45 10.95 L-37.55 11.05 Q-38.45 11.45 -38.9 12.3 L-39.0 12.4 Q-39.35 12.35 -39.3 11.95 L-39.0 11.3 -38.95 11.2 Q-38.35 10.7 -37.65 10.45 -37.2 10.6 -37.45 10.95 M-36.65 19.95 Q-36.95 20.9 -36.35 21.8 -36.5 22.15 -36.85 22.0 -38.15 20.0 -36.75 18.2 -36.35 18.9 -36.65 19.95 M-31.3 14.1 L-31.3 14.05 Q-30.95 13.4 -30.25 13.2 -29.8 13.2 -29.9 13.6 L-29.95 13.7 -31.2 14.5 -31.3 14.1 M-42.75 0.6 L-45.9 1.5 -43.35 0.9 -42.75 0.6" fill="#cc0000" fill-rule="evenodd" stroke="none"/>
  </g>
</svg>
