<?xml version="1.0" encoding="UTF-8" standalone="no"?>
<svg xmlns:ffdec="https://www.free-decompiler.com/flash" xmlns:xlink="http://www.w3.org/1999/xlink" ffdec:objectType="shape" height="51.1px" width="129.55px" xmlns="http://www.w3.org/2000/svg">
  <g transform="matrix(1.0, 0.0, 0.0, 1.0, 57.95, 25.45)">
    <path d="M30.8 -19.5 L30.15 -20.15 29.95 -20.4 Q29.6 -20.35 29.4 -20.6 L29.35 -20.8 29.45 -20.95 29.65 -21.05 Q30.8 -20.85 31.3 -19.75 L31.3 -19.7 31.1 -19.55 30.8 -19.5 M37.15 -17.45 Q38.25 -16.35 38.7 -14.85 L38.7 -14.8 Q38.5 -14.5 38.2 -14.65 L37.9 -15.2 37.9 -15.3 Q36.9 -16.35 37.1 -17.45 L37.15 -17.45 M37.95 -13.6 L37.25 -12.9 Q36.55 -12.65 36.45 -13.2 36.65 -13.55 37.2 -13.65 L37.55 -14.15 37.65 -14.2 Q38.05 -14.1 37.95 -13.7 L37.95 -13.6 M22.1 -21.1 L22.2 -21.05 22.3 -19.8 22.2 -19.55 21.8 -19.5 21.7 -19.6 Q21.45 -20.65 21.6 -21.45 L21.65 -21.45 22.1 -21.1 M25.15 -0.2 Q25.75 -0.3 26.05 0.25 L26.05 0.3 26.0 0.4 25.75 0.55 25.65 0.55 25.45 0.5 25.4 0.45 24.3 0.75 24.25 0.65 24.2 0.45 24.2 0.35 Q24.5 0.0 24.95 -0.15 L25.15 -0.2 M30.05 -2.05 L30.25 -2.2 Q30.8 -2.0 31.0 -1.4 L31.0 -1.3 Q30.9 -1.0 30.5 -1.15 L30.3 -1.25 Q29.9 -1.65 30.05 -2.05 M33.55 -11.25 L33.55 -11.15 33.45 -11.0 33.35 -10.9 Q32.45 -11.25 31.7 -11.8 L31.7 -11.85 31.85 -12.0 32.0 -12.05 Q33.0 -12.15 33.5 -11.35 L33.55 -11.25 M34.5 -10.7 L34.95 -10.35 34.95 -10.3 Q34.65 -9.9 34.2 -10.0 33.9 -10.35 34.3 -10.65 L34.5 -10.7 M51.5 -13.35 L51.45 -13.55 51.45 -13.65 51.95 -14.0 Q53.25 -14.7 54.65 -14.9 L59.15 -14.55 63.9 -17.15 Q64.45 -16.35 63.0 -15.75 L60.25 -14.35 60.1 -14.25 60.45 -14.1 60.45 -14.05 Q58.95 -13.8 57.1 -14.05 54.15 -14.35 51.55 -13.25 L51.5 -13.35 M42.75 -10.05 Q43.45 -8.85 42.55 -7.4 L42.5 -7.4 Q42.2 -7.3 42.1 -7.6 L42.65 -10.0 42.75 -10.05 M44.4 -1.55 L44.55 -1.5 Q45.3 -0.7 45.25 0.45 L45.05 0.85 44.75 0.8 44.6 0.65 44.55 -0.3 44.35 -0.85 Q44.0 -0.9 43.75 -1.15 L43.7 -1.3 43.7 -1.35 Q43.8 -1.55 44.0 -1.55 L44.4 -1.55 M57.1 -0.45 L57.25 -0.35 Q57.85 0.65 58.8 1.4 L58.95 1.8 Q58.8 2.15 58.45 2.0 L56.95 0.35 56.75 0.1 55.4 -0.85 55.35 -0.95 55.65 -1.2 57.1 -0.45 M70.55 -22.4 Q70.4 -22.5 70.4 -22.7 L70.45 -22.8 71.4 -25.45 Q72.05 -23.8 70.7 -22.4 L70.55 -22.4 M69.25 -20.65 L69.2 -20.55 68.75 -20.3 Q67.0 -18.1 64.45 -17.75 L64.45 -18.0 64.5 -18.15 Q66.95 -19.3 68.9 -21.05 69.35 -21.05 69.25 -20.65 M64.3 -11.65 L64.2 -11.45 64.0 -11.35 63.15 -11.45 63.0 -11.15 62.95 -11.15 Q62.65 -11.05 62.55 -11.35 62.4 -11.85 62.75 -12.15 L62.85 -12.2 62.95 -12.15 63.1 -12.2 64.3 -11.7 64.3 -11.65 M62.55 -4.0 L62.4 -4.0 Q62.25 -4.1 62.25 -4.3 L62.3 -4.4 63.15 -5.75 63.25 -5.8 Q63.85 -4.8 62.55 -4.0 M60.8 -1.3 L60.7 -1.35 62.4 -3.45 Q62.95 -1.75 60.8 -1.3 M52.0 5.95 Q53.15 6.0 54.05 6.8 L54.05 6.85 53.85 7.1 53.75 7.15 51.75 6.35 51.7 6.2 51.85 5.95 52.0 5.95 M52.4 7.3 L52.55 7.35 Q53.5 8.15 53.7 9.4 L53.7 9.6 53.5 9.75 53.2 9.75 53.1 9.55 52.95 9.35 Q52.75 8.25 52.1 7.35 L52.25 7.3 52.4 7.3 M51.65 8.2 L51.85 8.25 52.05 8.35 Q53.1 9.8 52.7 11.55 L52.5 11.8 52.25 11.7 52.1 11.55 Q52.4 9.8 51.5 8.25 L51.65 8.2 M41.0 6.65 Q40.75 6.95 40.45 6.65 39.9 5.0 40.4 3.8 41.05 5.0 41.0 6.55 L41.0 6.65 M40.75 7.05 L41.45 8.05 41.45 8.1 40.95 8.25 40.5 7.8 Q40.3 7.45 40.55 7.15 L40.75 7.05 M32.55 11.75 Q32.15 11.9 32.05 11.55 L32.05 11.35 32.35 11.0 32.5 10.95 Q33.0 10.95 33.2 11.35 L33.3 11.45 33.3 11.85 33.1 12.1 Q32.7 12.2 32.6 11.85 L32.55 11.75 M27.6 11.95 L27.65 12.05 27.65 12.1 27.45 12.35 26.05 12.3 26.05 12.2 Q26.2 11.85 26.6 11.8 27.2 11.55 27.6 11.95 M26.5 13.95 L26.65 14.0 Q27.35 14.55 27.35 15.4 L27.1 15.85 27.0 15.9 26.7 15.65 26.65 15.3 26.45 14.7 26.35 14.65 26.05 14.6 23.85 14.55 23.85 14.5 Q23.95 14.3 24.15 14.3 L24.4 14.3 24.65 14.4 26.0 13.95 26.5 13.95 M24.6 16.8 L24.7 16.85 Q24.95 18.15 24.3 19.1 L24.2 19.2 23.2 19.15 Q23.35 18.65 24.0 18.55 L24.15 16.55 24.25 16.55 24.6 16.8 M34.8 17.25 L34.9 17.2 Q35.5 18.75 35.3 20.6 L35.25 20.6 Q34.95 20.7 34.85 20.4 34.5 19.3 34.6 18.3 L34.2 18.15 Q33.55 16.95 34.15 16.05 34.6 16.75 34.7 17.6 L34.8 17.25 M34.65 22.45 Q35.1 22.7 34.95 23.25 L34.95 23.35 Q34.15 24.3 33.95 25.5 L33.9 25.6 Q33.55 25.75 33.45 25.4 33.35 24.55 33.8 23.9 L33.85 23.7 34.35 22.95 Q34.25 22.55 34.65 22.45 M15.25 22.1 L15.15 22.15 14.85 21.8 15.05 21.35 15.15 21.25 15.55 20.0 15.65 19.95 Q16.35 21.05 15.25 22.1 M-41.9 -23.3 Q-41.45 -23.4 -41.35 -22.95 L-41.4 -22.9 -41.4 -22.85 Q-41.3 -22.5 -41.85 -22.0 L-41.9 -21.95 -42.0 -21.2 -42.1 -21.0 Q-42.45 -20.85 -42.55 -21.2 L-42.5 -21.9 -42.65 -21.85 Q-43.05 -21.95 -42.95 -22.4 L-42.95 -22.55 -42.45 -23.0 -42.4 -23.15 -42.05 -23.25 -41.9 -23.3 M-45.5 -0.5 L-45.7 -0.5 -45.8 -0.8 -45.8 -0.9 -44.85 -1.55 Q-44.25 -0.85 -45.5 -0.5 M-34.7 -23.5 L-34.7 -23.4 Q-34.85 -23.1 -35.15 -23.3 L-35.7 -23.5 -36.15 -23.55 -36.3 -23.7 -36.25 -24.0 -35.9 -24.2 Q-35.1 -24.15 -34.7 -23.5 M-36.95 -4.9 L-37.0 -4.8 -37.25 -4.6 -37.45 -4.65 Q-38.95 -6.65 -38.9 -8.8 L-38.85 -8.8 -36.95 -4.9 M-32.4 -4.5 L-32.25 -4.55 -29.75 -4.35 -29.7 -4.3 -29.8 -4.05 -29.9 -3.95 Q-31.55 -3.45 -32.55 -4.3 L-32.4 -4.5 M-23.85 -6.35 Q-21.65 -5.95 -21.7 -7.8 L-21.35 -8.2 Q-20.85 -7.75 -21.05 -6.95 L-21.05 -6.85 -21.35 -6.4 -21.4 -6.3 Q-22.65 -5.4 -24.2 -5.75 L-24.55 -6.3 Q-24.45 -6.65 -24.05 -6.5 L-23.95 -6.4 -23.85 -6.35 M-30.1 -1.8 L-27.55 -0.7 -27.55 -0.65 Q-27.55 -0.45 -27.75 -0.4 L-27.85 -0.35 Q-29.45 -0.5 -30.4 -1.55 L-30.2 -1.8 -30.1 -1.8 M-14.3 21.55 L-14.4 21.6 Q-14.8 21.7 -14.8 21.3 L-14.25 18.8 -14.15 18.8 Q-13.4 20.1 -14.3 21.55 M-20.2 23.8 L-20.35 24.0 -20.5 24.05 -20.65 24.05 Q-21.45 24.0 -21.95 23.55 L-21.95 23.45 -21.85 23.3 -21.8 23.25 -21.65 23.2 Q-20.7 23.05 -20.2 23.75 L-20.2 23.8 M-6.7 18.65 L-6.5 18.55 -4.4 18.9 -4.35 18.95 -4.35 19.0 -4.45 19.2 -4.55 19.3 Q-6.0 19.75 -6.8 18.8 L-6.7 18.65 M-1.65 19.2 Q-1.2 19.2 -0.95 19.55 L-0.95 19.6 -1.15 19.85 -1.25 19.9 Q-1.85 20.0 -1.95 19.45 L-1.8 19.2 -1.65 19.2 M-25.1 2.15 Q-25.9 2.15 -26.05 1.55 L-25.9 1.35 -25.75 1.3 -24.8 1.8 -24.8 1.85 -24.9 2.05 -25.1 2.15 M-24.15 3.6 L-24.4 3.8 -24.6 3.75 -26.45 2.2 -26.45 2.15 -26.35 1.9 -26.15 1.85 Q-24.95 2.5 -24.15 3.5 L-24.15 3.6 M-27.8 1.65 Q-27.95 2.0 -28.3 1.85 L-28.65 1.35 -28.65 1.3 Q-28.7 0.95 -28.35 0.95 L-27.8 1.55 -27.8 1.65 M-30.2 10.45 L-30.45 10.65 -30.5 10.75 -30.65 11.1 -30.8 11.3 -31.2 11.15 -31.2 11.05 -30.85 10.15 -30.65 10.05 Q-30.25 10.0 -30.2 10.4 L-30.2 10.45 M-20.35 6.95 L-20.4 7.05 Q-21.2 7.8 -21.65 7.05 -21.5 6.65 -21.0 6.7 L-20.6 6.45 Q-20.2 6.55 -20.35 6.95 M-38.25 0.95 Q-37.65 0.95 -37.9 1.45 L-38.0 1.55 Q-38.95 1.45 -38.25 0.95 M-31.75 14.55 Q-31.15 14.45 -31.25 14.95 L-31.3 15.05 Q-31.9 15.4 -32.05 14.8 L-31.95 14.65 -31.75 14.55 M-37.35 22.8 L-37.35 22.85 -37.55 23.1 -37.65 23.15 Q-39.5 22.9 -39.6 21.35 L-39.5 21.3 -37.35 22.8 M-41.75 12.25 L-41.85 12.35 Q-42.2 12.5 -42.3 12.15 -42.35 11.25 -41.75 10.8 -41.2 11.4 -41.75 12.25 M-50.05 3.05 L-41.4 0.45 Q-40.95 0.35 -40.85 0.8 L-40.9 0.85 -52.9 4.7 Q-53.8 4.95 -54.4 5.65 L-54.4 5.85 -54.55 6.1 -54.95 6.15 -55.05 6.05 -54.4 4.85 Q-56.25 6.25 -57.65 8.1 L-57.85 8.15 -57.95 7.85 -57.95 7.75 Q-55.35 3.6 -50.65 2.5 L-50.0 2.35 Q-49.8 2.8 -50.05 3.05" fill="#cc0000" fill-rule="evenodd" stroke="none"/>
  </g>
</svg>
