<?xml version="1.0" encoding="UTF-8" standalone="no"?>
<svg xmlns:ffdec="https://www.free-decompiler.com/flash" xmlns:xlink="http://www.w3.org/1999/xlink" ffdec:objectType="shape" height="53.35px" width="140.3px" xmlns="http://www.w3.org/2000/svg">
  <g transform="matrix(1.0, 0.0, 0.0, 1.0, 65.8, 26.2)">
    <path d="M33.55 -21.2 L33.55 -21.1 Q33.4 -20.75 33.05 -20.9 32.25 -21.45 32.9 -21.8 L33.55 -21.2 M33.8 -19.4 L33.75 -19.4 Q32.85 -19.7 33.3 -20.5 L33.4 -20.55 Q34.2 -20.15 33.8 -19.4 M23.75 -20.8 L23.7 -20.7 23.2 -20.75 Q23.05 -21.45 23.4 -21.9 L23.5 -21.95 Q24.0 -21.55 23.75 -20.8 M39.6 -11.9 L38.7 -11.85 Q38.95 -12.6 39.65 -13.05 40.2 -12.65 39.65 -11.95 L39.6 -11.9 M35.8 -11.8 L35.8 -11.7 35.6 -11.45 34.45 -11.4 34.45 -11.45 34.45 -11.55 34.45 -11.7 34.45 -11.8 34.55 -11.9 34.9 -12.05 Q35.4 -12.25 35.75 -11.9 L35.8 -11.8 M36.25 -10.15 L36.15 -10.1 Q35.75 -10.15 35.85 -10.55 L36.25 -10.8 Q36.8 -10.5 36.25 -10.15 M31.75 -1.8 Q32.25 -1.6 31.95 -1.1 L31.9 -1.0 Q31.55 -0.85 31.45 -1.2 31.3 -1.7 31.75 -1.8 M74.5 -24.85 L74.4 -24.65 Q74.05 -24.5 73.95 -24.85 L73.95 -25.2 73.95 -25.5 Q73.4 -25.95 74.0 -26.2 L74.45 -25.85 74.5 -25.8 74.5 -24.85 M59.0 -14.55 Q61.3 -14.55 63.3 -13.55 L63.3 -13.5 63.25 -13.4 63.1 -13.25 63.0 -13.2 58.7 -14.25 58.7 -14.35 58.9 -14.5 59.0 -14.55 M41.5 -15.05 L41.45 -14.95 40.95 -15.0 Q40.75 -16.1 41.15 -17.0 L41.25 -17.05 Q41.8 -16.25 41.5 -15.05 M46.0 -9.2 Q46.65 -8.2 45.35 -7.5 L45.2 -7.5 45.1 -7.8 45.1 -7.9 45.9 -9.15 46.0 -9.2 M47.3 -1.75 L47.95 -1.1 48.2 -0.7 48.2 -0.55 48.05 -0.15 Q47.5 -0.15 47.3 -0.8 L47.1 -1.1 Q46.75 -1.15 46.5 -1.4 L46.45 -1.55 46.45 -1.6 46.75 -1.8 47.15 -1.8 47.3 -1.75 M72.75 -21.35 L72.7 -21.35 72.45 -21.15 70.45 -19.95 70.2 -20.1 73.25 -22.95 73.35 -22.65 74.25 -23.45 Q74.7 -22.7 73.6 -21.85 L72.75 -21.35 M65.45 -14.75 L69.15 -18.3 Q69.7 -17.6 68.5 -17.05 L68.35 -16.95 Q67.55 -14.9 65.55 -14.35 65.4 -14.45 65.4 -14.65 L65.45 -14.75 M66.75 -11.0 L66.65 -10.9 Q66.3 -10.75 66.2 -11.1 66.05 -11.65 66.5 -11.8 67.0 -11.55 66.75 -11.0 M65.55 -3.85 L65.6 -3.95 66.6 -4.55 Q67.15 -3.75 65.85 -3.5 L65.65 -3.5 65.6 -3.55 Q65.8 -2.95 65.6 -2.35 L65.5 -2.2 Q65.2 -2.1 65.1 -2.45 65.0 -3.25 65.15 -3.9 L65.25 -3.95 65.4 -3.9 65.5 -3.8 65.55 -3.7 65.55 -3.85 M61.05 3.0 Q60.65 3.35 60.45 2.9 60.55 1.5 60.1 0.05 L60.25 -0.05 60.4 0.0 60.55 0.1 Q61.2 1.35 61.15 2.8 L61.05 3.0 M55.1 9.8 Q54.7 8.9 55.15 8.45 55.95 8.95 55.6 9.9 L55.55 10.0 Q55.2 10.15 55.1 9.8 M53.5 10.2 Q54.25 11.65 52.85 13.0 L52.75 13.05 Q52.35 13.0 52.45 12.6 L53.05 11.7 Q53.1 10.85 53.4 10.25 L53.5 10.2 M54.9 6.7 L55.95 7.5 55.95 7.6 55.8 7.7 55.5 7.8 Q54.45 7.4 54.8 6.75 L54.9 6.7 M43.25 4.3 Q43.65 4.25 43.7 4.65 L43.7 4.7 43.6 4.8 43.45 4.9 43.45 5.1 43.45 5.3 44.2 5.95 44.2 6.05 44.15 6.2 44.0 6.35 Q43.2 6.35 42.85 5.6 42.7 4.9 43.05 4.4 L43.25 4.3 M43.15 7.3 L44.45 8.25 44.45 8.35 Q43.4 8.7 42.85 7.55 L43.15 7.3 M27.05 1.35 L27.0 1.35 Q26.7 1.45 26.6 1.15 26.45 0.6 26.9 0.35 L27.0 0.3 Q27.5 0.7 27.05 1.35 M28.3 15.4 Q28.15 15.75 27.8 15.55 L27.7 15.5 27.15 14.45 27.1 14.3 27.25 14.1 27.4 14.05 Q28.25 14.4 28.3 15.3 L28.3 15.4 M27.15 15.3 Q27.7 16.35 26.1 17.1 L25.95 17.1 25.85 16.8 25.85 16.7 27.05 15.35 27.15 15.3 M27.55 12.9 Q27.0 13.35 26.7 12.9 26.8 12.4 27.35 12.3 27.8 12.45 27.55 12.8 L27.55 12.9 M23.1 19.7 Q23.55 19.25 24.45 19.2 L25.05 18.6 25.15 18.55 Q25.7 19.6 24.15 20.1 23.35 20.35 23.1 19.7 M34.15 12.95 L34.15 13.05 33.95 13.3 Q33.7 13.3 33.6 13.45 L33.45 13.6 33.35 13.6 33.05 13.5 33.05 13.3 33.05 12.95 33.3 12.75 33.5 12.7 34.1 12.85 34.15 12.95 M36.1 18.8 Q35.75 19.0 35.45 18.65 35.1 18.0 35.4 17.6 L35.5 17.55 Q36.15 17.95 36.15 18.7 L36.1 18.8 M36.65 21.2 L36.6 21.3 36.1 21.25 Q35.9 20.15 36.4 19.35 L36.5 19.3 Q36.9 20.05 36.65 21.2 M14.7 23.1 L14.6 22.8 14.6 22.7 15.4 22.0 15.5 21.95 Q16.05 22.65 14.85 23.1 L14.7 23.1 M16.65 22.5 L16.55 22.6 Q16.2 22.75 16.1 22.4 16.0 21.85 16.5 21.7 17.0 21.95 16.65 22.5 M34.2 26.25 L34.1 26.3 33.95 26.85 33.75 27.1 33.4 27.0 33.35 26.9 Q33.3 26.15 33.85 25.65 L34.15 25.55 Q34.6 25.45 34.7 25.9 L34.7 25.95 34.2 26.25 M35.3 25.75 Q34.95 25.9 34.85 25.55 34.65 24.7 35.15 24.3 35.7 24.8 35.35 25.65 L35.3 25.75 M-43.55 -25.2 L-43.55 -25.35 -43.15 -25.7 Q-42.35 -25.85 -41.95 -25.2 L-41.95 -25.1 -42.0 -25.0 -41.95 -24.9 -41.95 -24.8 -42.15 -24.65 -42.45 -24.65 -43.0 -25.0 -43.25 -25.0 -43.55 -25.2 M-47.0 -1.55 L-46.25 -1.4 -46.2 -1.3 -46.2 -1.2 -46.4 -0.95 Q-47.15 -0.7 -47.3 -1.3 L-47.3 -1.35 -47.0 -1.55 M-34.8 -25.85 L-34.5 -26.05 Q-34.05 -26.15 -33.75 -25.8 L-33.7 -25.7 -33.7 -25.65 -33.8 -25.45 -33.9 -25.4 Q-34.45 -25.3 -34.8 -25.7 L-34.8 -25.8 -34.8 -25.85 M-39.85 -9.05 Q-38.9 -7.2 -39.1 -5.0 L-39.15 -4.95 Q-39.45 -4.85 -39.55 -5.2 -40.1 -7.2 -39.9 -9.05 L-39.85 -9.05 M-31.8 -4.45 L-31.75 -4.4 -31.7 -4.3 -31.7 -4.2 -31.9 -3.95 -32.5 -4.0 Q-33.0 -4.0 -33.15 -4.45 L-33.15 -4.5 -32.85 -4.7 Q-32.25 -4.95 -31.85 -4.55 L-31.8 -4.45 M-23.7 -7.05 L-23.8 -6.95 -23.8 -6.4 -24.0 -6.2 Q-24.3 -6.1 -24.4 -6.45 -24.55 -7.45 -23.6 -8.0 L-23.5 -8.05 Q-22.9 -7.6 -23.7 -7.05 M-13.3 20.55 L-13.2 20.6 Q-13.0 21.45 -13.25 22.3 L-13.35 22.5 Q-13.7 22.65 -13.8 22.3 -13.65 21.8 -13.8 21.3 L-13.8 21.0 Q-14.35 20.55 -13.75 20.3 -13.45 20.3 -13.3 20.55 M-6.05 20.25 L-5.75 20.05 -5.25 20.05 -4.75 20.35 -4.6 20.7 -4.6 20.8 -4.9 21.05 -6.05 20.3 -6.05 20.25 M-6.15 20.95 L-6.2 21.05 -6.7 21.0 Q-7.0 20.3 -6.6 19.75 L-6.5 19.7 Q-6.0 20.15 -6.15 20.95 M-0.75 20.95 L-0.8 21.05 Q-1.4 21.4 -1.55 20.8 L-1.45 20.65 -1.25 20.55 Q-0.65 20.45 -0.75 20.95 M-27.25 2.55 Q-28.0 2.3 -27.35 1.95 -26.7 2.1 -27.15 2.5 L-27.25 2.55 M-28.75 2.15 Q-29.5 1.9 -28.85 1.55 -28.2 1.7 -28.65 2.1 L-28.75 2.15 M-25.7 4.45 Q-26.85 4.95 -27.55 4.1 L-27.5 3.85 -27.45 3.75 -27.25 3.7 -25.5 4.05 -25.45 4.1 -25.5 4.25 -25.55 4.35 -25.7 4.45 M-21.1 7.6 L-21.15 7.6 Q-21.45 7.7 -21.55 7.4 -21.8 6.9 -21.45 6.6 L-21.35 6.55 Q-20.7 6.9 -21.1 7.6 M-33.8 0.3 L-31.85 -0.2 Q-31.4 0.9 -33.5 0.65 L-33.8 0.3 M-38.5 1.05 Q-37.85 1.55 -38.7 1.55 L-38.8 1.5 Q-38.9 1.2 -38.65 1.05 L-38.5 1.05 M-31.35 11.25 L-31.4 11.3 Q-31.7 11.4 -31.8 11.05 -31.9 10.55 -31.6 10.25 L-31.5 10.2 Q-30.95 10.6 -31.35 11.25 M-39.7 23.1 L-39.8 23.3 -40.0 23.4 -41.15 22.85 -41.2 22.7 -41.05 22.5 -40.9 22.45 Q-40.25 22.65 -39.7 23.05 L-39.7 23.1 M-32.05 15.6 L-32.15 15.65 Q-32.9 15.4 -32.25 15.05 -31.6 15.2 -32.05 15.6 M-21.4 25.35 L-21.45 25.45 Q-22.05 25.8 -22.2 25.2 L-22.1 25.05 -21.9 24.95 Q-21.3 24.85 -21.4 25.35 M-44.9 11.45 Q-44.45 11.8 -44.5 12.45 L-44.5 12.55 -45.1 12.5 Q-45.4 12.0 -45.05 11.55 L-44.9 11.45 M-51.5 3.85 Q-51.0 3.75 -50.95 4.2 L-50.95 4.25 Q-56.95 6.0 -60.6 11.1 L-60.75 11.2 Q-61.1 11.25 -61.2 10.95 L-61.2 10.85 -59.8 9.15 -62.15 9.5 -65.5 10.7 -65.8 10.35 -58.75 7.35 -58.45 7.15 -58.3 6.95 -58.15 6.95 -58.1 7.0 -57.85 6.85 -57.25 6.15 -57.15 6.1 -57.0 6.6 Q-54.75 4.9 -51.9 3.95 L-51.5 3.85" fill="#cc0000" fill-rule="evenodd" stroke="none"/>
  </g>
</svg>
