<?xml version="1.0" encoding="UTF-8" standalone="no"?>
<svg xmlns:ffdec="https://www.free-decompiler.com/flash" xmlns:xlink="http://www.w3.org/1999/xlink" ffdec:objectType="shape" height="54.5px" width="147.45px" xmlns="http://www.w3.org/2000/svg">
  <g transform="matrix(1.0, 0.0, 0.0, 1.0, 70.25, 27.2)">
    <path d="M36.3 -19.7 L36.3 -19.65 Q36.3 -19.1 35.8 -19.25 35.3 -19.8 35.9 -20.05 L36.3 -19.7 M35.45 -21.5 L35.25 -21.2 Q34.4 -21.45 34.8 -22.15 L34.9 -22.2 35.35 -21.95 35.45 -21.9 35.45 -21.5 M25.3 -21.8 L25.3 -21.7 24.75 -21.2 24.65 -21.2 Q24.15 -21.35 24.45 -21.7 L25.0 -22.3 Q25.4 -22.2 25.3 -21.8 M40.45 -11.4 L41.05 -12.0 41.15 -12.05 Q41.55 -11.95 41.4 -11.55 L41.35 -11.45 Q41.05 -10.95 40.55 -11.0 40.4 -11.1 40.4 -11.3 L40.45 -11.4 M36.45 -10.3 L36.35 -10.35 Q36.25 -10.65 36.55 -10.75 L36.65 -10.8 Q37.3 -10.3 36.45 -10.3 M36.65 -12.05 Q37.15 -11.8 36.9 -11.25 L36.8 -11.15 Q36.3 -11.0 36.2 -11.55 36.15 -12.0 36.65 -12.05 M32.4 -1.55 Q33.05 -1.05 32.2 -1.05 L32.1 -1.1 Q32.0 -1.4 32.3 -1.5 L32.4 -1.55 M76.2 -27.1 L76.4 -27.2 76.65 -27.2 76.8 -27.15 Q77.2 -26.8 77.2 -26.3 L77.1 -26.05 Q76.95 -25.85 76.75 -26.05 L76.6 -26.2 76.15 -26.8 76.1 -26.95 76.2 -27.1 M44.45 -15.5 L44.45 -15.4 Q43.95 -15.0 43.9 -14.4 L43.85 -14.3 43.35 -14.35 43.4 -15.1 43.45 -15.3 43.8 -15.65 Q43.8 -16.0 44.1 -16.15 L44.25 -16.2 Q44.7 -16.0 44.45 -15.5 M47.85 -7.9 L47.7 -7.9 47.6 -8.2 47.6 -8.3 48.05 -8.9 48.15 -8.95 Q48.8 -8.35 47.85 -7.9 M49.9 -2.05 L49.95 -1.95 49.95 -1.9 49.75 -1.65 48.6 -1.5 Q48.5 -1.8 48.75 -2.0 L49.15 -2.2 49.9 -2.05 M75.45 -23.2 Q75.3 -24.5 76.0 -25.3 76.45 -24.35 75.95 -23.1 L75.9 -23.0 Q75.55 -22.85 75.45 -23.2 M74.75 -20.75 L74.65 -20.7 Q74.3 -20.75 74.35 -21.05 74.65 -22.0 75.4 -22.65 L75.5 -22.7 Q75.85 -21.8 74.75 -20.75 M71.0 -17.2 L71.25 -17.4 71.4 -17.4 Q71.95 -16.0 70.6 -14.85 L70.45 -14.85 70.35 -15.15 70.35 -15.25 Q70.9 -16.05 70.95 -17.1 L71.0 -17.2 M64.1 -13.4 L64.1 -13.45 Q64.2 -13.65 64.4 -13.65 65.85 -13.7 66.65 -12.55 L66.7 -12.5 66.6 -12.4 66.25 -12.3 Q65.35 -13.05 64.2 -13.2 L64.1 -13.4 M68.55 -11.2 L68.4 -10.9 68.25 -10.85 Q67.35 -11.25 68.0 -11.7 L68.55 -11.3 68.55 -11.2 M69.25 -3.4 L69.3 -3.3 69.3 -3.2 69.1 -2.95 Q68.4 -2.65 67.95 -3.1 L67.95 -3.2 68.1 -3.45 68.2 -3.45 68.2 -3.65 Q67.9 -3.65 67.75 -3.85 L67.7 -4.05 67.8 -4.2 68.0 -4.3 Q68.5 -4.35 68.7 -3.95 L68.75 -3.9 68.8 -3.6 69.25 -3.4 M62.75 3.1 L62.55 3.1 62.4 2.8 62.45 2.7 63.75 1.45 Q64.4 2.7 62.75 3.1 M56.95 10.35 L56.8 10.35 56.65 10.05 56.7 9.95 57.25 9.45 Q57.95 10.0 56.95 10.35 M56.75 7.2 Q57.3 7.45 56.85 7.85 L56.75 7.9 Q56.1 7.5 56.75 7.2 M46.5 4.65 L46.65 4.55 Q47.05 4.65 47.0 5.05 L47.0 5.15 Q47.45 5.3 47.45 5.7 L47.0 5.9 46.35 5.35 Q46.25 4.95 46.5 4.65 M45.75 7.95 Q46.2 8.1 46.45 8.5 L46.45 8.55 46.15 8.8 46.0 8.8 Q45.25 8.55 45.6 8.05 L45.75 7.95 M53.95 13.75 L52.7 13.8 Q52.8 13.25 53.5 13.2 L54.25 12.05 Q54.9 12.8 54.0 13.7 L53.95 13.75 M27.95 1.4 L27.9 1.5 Q27.35 1.6 27.35 1.05 27.3 0.7 27.65 0.7 28.15 0.9 27.95 1.4 M28.8 14.35 L28.9 14.45 Q29.1 15.05 28.6 15.55 L28.4 15.65 28.1 15.4 28.1 15.3 28.25 14.75 28.2 14.55 28.3 14.3 28.5 14.2 28.8 14.35 M27.4 13.5 L27.35 13.55 Q27.05 13.65 26.95 13.3 26.85 12.85 27.15 12.6 L27.25 12.55 Q27.8 12.9 27.4 13.5 M26.6 17.6 L26.5 17.65 26.2 17.3 27.25 16.3 Q27.9 17.05 26.6 17.6 M25.2 20.05 L25.2 20.1 25.0 20.35 24.9 20.4 24.2 20.35 Q23.65 20.05 23.55 19.5 23.5 19.3 23.75 19.3 L25.2 20.05 M33.7 14.2 L33.85 13.95 34.0 13.95 Q34.35 13.95 34.55 14.3 L34.55 14.35 34.35 14.6 34.25 14.65 Q33.75 14.6 33.7 14.2 M37.45 19.85 L37.45 19.95 37.15 20.15 36.95 20.1 Q36.1 19.45 36.75 18.95 L37.45 19.85 M37.55 20.6 L37.65 20.55 Q38.2 21.0 37.7 21.7 L37.6 21.8 Q37.25 22.05 37.1 21.65 37.15 21.0 37.55 20.6 M15.15 23.35 L15.2 23.45 15.2 23.55 15.0 23.8 Q14.35 24.0 14.2 23.45 L14.2 23.4 Q14.3 23.2 14.5 23.2 14.9 23.05 15.15 23.35 M17.75 23.7 L17.7 23.8 Q17.35 24.4 16.8 24.35 L16.65 24.05 16.7 23.95 17.3 23.35 17.4 23.3 Q17.85 23.3 17.75 23.7 M36.0 27.1 L35.95 27.2 35.45 27.15 Q35.15 26.55 35.55 26.1 L35.65 26.05 Q36.15 26.4 36.0 27.1 M-41.85 -26.25 L-41.9 -26.15 -42.15 -25.95 -42.35 -26.0 Q-43.5 -26.65 -42.9 -27.2 -42.15 -26.95 -41.85 -26.25 M-41.05 -5.35 Q-41.05 -7.05 -40.35 -8.3 -39.9 -6.95 -40.55 -5.25 L-40.6 -5.15 Q-40.95 -5.0 -41.05 -5.35 M-47.85 -1.7 Q-47.25 -1.8 -47.35 -1.3 L-47.4 -1.2 Q-48.0 -0.85 -48.15 -1.45 L-48.05 -1.6 -47.85 -1.7 M-33.0 -26.65 L-33.05 -26.55 Q-33.65 -26.2 -33.8 -26.8 L-33.7 -26.95 -33.5 -27.05 Q-32.9 -27.15 -33.0 -26.65 M-32.6 -4.4 L-32.65 -4.3 Q-33.25 -3.95 -33.4 -4.55 L-33.3 -4.7 -33.1 -4.8 Q-32.5 -4.9 -32.6 -4.4 M-23.45 -8.0 L-23.3 -7.95 -22.8 -7.35 -22.85 -7.25 Q-23.05 -7.0 -23.3 -7.15 L-23.45 -7.25 -23.7 -7.4 -24.95 -7.5 -25.05 -7.6 -25.05 -7.7 -24.75 -8.05 -24.6 -8.05 -23.6 -8.05 -23.45 -8.0 M-12.75 21.3 L-12.6 21.35 -12.35 21.7 -12.45 22.35 -12.55 22.35 Q-12.85 22.45 -13.05 22.15 L-14.45 21.55 -14.15 21.3 -13.5 21.2 -12.75 21.3 M-6.75 21.2 Q-6.35 21.3 -6.5 21.7 L-6.55 21.8 -6.4 22.35 -6.45 22.45 Q-6.9 22.65 -7.2 22.1 -7.3 21.55 -6.85 21.25 L-6.75 21.2 M-5.4 21.7 L-4.95 22.05 -4.95 22.1 Q-5.15 22.6 -5.6 22.25 -5.9 21.95 -5.55 21.75 L-5.4 21.7 M-1.35 21.7 L-1.45 21.65 Q-1.55 21.35 -1.3 21.25 L-1.15 21.2 Q-0.5 21.7 -1.35 21.7 M-28.25 2.85 Q-29.2 2.8 -28.5 2.3 -27.9 2.3 -28.15 2.8 L-28.25 2.85 M-29.25 1.8 Q-28.6 2.3 -29.45 2.3 L-29.55 2.25 Q-29.65 1.95 -29.4 1.8 L-29.25 1.8 M-27.9 4.6 Q-27.5 4.45 -27.25 4.75 L-27.2 4.85 -27.2 4.95 -27.4 5.2 Q-28.05 5.45 -28.2 4.85 L-28.2 4.8 -27.9 4.6 M-22.05 7.45 L-22.15 7.4 Q-22.25 7.1 -21.95 7.0 L-21.85 6.95 Q-21.2 7.45 -22.05 7.45 M-31.95 11.25 L-32.1 11.25 -32.25 10.95 -32.2 10.85 -31.75 10.55 Q-31.1 10.95 -31.95 11.25 M-35.8 1.7 L-35.8 1.65 Q-35.6 1.1 -35.0 0.95 -34.4 1.85 -35.8 1.7 M-32.7 15.95 L-32.8 15.9 Q-32.9 15.6 -32.6 15.5 L-32.5 15.45 Q-31.85 15.95 -32.7 15.95 M-21.9 26.1 L-21.95 26.2 -22.7 26.15 Q-22.7 25.75 -22.25 25.7 -21.8 25.7 -21.9 26.1 M-58.45 7.55 L-58.45 7.6 Q-61.95 10.5 -63.45 14.9 -63.5 15.05 -63.65 15.05 -64.25 14.2 -63.45 13.0 L-62.15 10.85 Q-60.85 8.6 -58.9 7.2 -58.5 7.15 -58.45 7.55 M-46.45 12.55 Q-46.6 12.9 -46.95 12.75 -47.5 12.3 -46.9 12.05 -46.55 12.15 -46.45 12.45 L-46.45 12.55 M-42.05 23.25 L-41.75 23.05 Q-41.4 22.95 -41.15 23.2 L-41.1 23.3 -41.1 23.35 -41.3 23.6 Q-41.95 23.85 -42.05 23.3 L-42.05 23.25 M-65.5 10.45 L-70.1 11.75 -70.25 11.45 -70.2 11.35 -64.4 9.2 Q-63.9 10.0 -65.5 10.45" fill="#cc0000" fill-rule="evenodd" stroke="none"/>
  </g>
</svg>
