<?xml version="1.0" encoding="UTF-8" standalone="no"?>
<svg xmlns:ffdec="https://www.free-decompiler.com/flash" xmlns:xlink="http://www.w3.org/1999/xlink" ffdec:objectType="shape" height="55.4px" width="153.1px" xmlns="http://www.w3.org/2000/svg">
  <g transform="matrix(1.0, 0.0, 0.0, 1.0, 73.7, 27.7)">
    <path d="M36.85 -22.35 L37.0 -22.45 Q37.75 -22.25 37.3 -21.5 L37.25 -21.45 Q37.05 -21.4 36.9 -21.6 L36.85 -21.7 Q36.6 -22.1 36.85 -22.35 M37.75 -19.2 Q37.1 -19.6 37.75 -19.95 38.3 -19.7 37.85 -19.25 L37.75 -19.2 M25.7 -21.95 L25.6 -22.0 25.6 -22.25 25.7 -22.4 26.15 -22.65 26.25 -22.7 Q26.9 -21.95 25.7 -21.95 M37.2 -11.3 L37.1 -11.35 Q37.0 -11.65 37.3 -11.75 L37.4 -11.8 Q38.05 -11.3 37.2 -11.3 M36.9 -10.8 Q37.55 -10.3 36.7 -10.3 L36.6 -10.35 Q36.5 -10.65 36.8 -10.75 L36.9 -10.8 M32.75 -1.45 Q33.4 -0.95 32.55 -0.95 L32.45 -1.0 Q32.35 -1.3 32.6 -1.45 L32.75 -1.45 M79.4 -27.3 L79.35 -27.2 Q78.75 -26.85 78.6 -27.45 L78.7 -27.6 78.9 -27.7 Q79.5 -27.8 79.4 -27.3 M78.75 -26.15 Q79.1 -25.4 78.85 -24.6 L78.75 -24.45 Q78.45 -24.35 78.35 -24.7 78.25 -25.55 78.4 -26.2 L78.5 -26.3 78.65 -26.25 78.75 -26.15 M46.0 -13.35 L45.9 -13.25 Q45.55 -13.1 45.45 -13.45 45.3 -14.35 46.15 -14.7 46.55 -14.2 46.0 -13.35 M49.4 -8.7 Q50.0 -8.4 49.4 -7.95 L49.25 -7.85 Q48.85 -7.9 48.95 -8.3 L49.4 -8.7 M42.0 -11.45 Q42.65 -10.95 41.7 -10.65 L41.55 -10.65 Q41.4 -10.75 41.4 -10.95 L41.45 -11.05 42.0 -11.45 M51.15 -2.0 L51.05 -1.9 Q50.65 -1.7 50.45 -2.1 50.45 -2.65 51.0 -2.8 51.5 -2.55 51.15 -2.0 M78.35 -21.3 L78.25 -21.2 Q77.9 -21.25 77.95 -21.55 77.95 -22.7 78.4 -23.45 79.15 -22.45 78.35 -21.3 M74.75 -14.85 L74.65 -14.8 Q74.3 -14.85 74.35 -15.15 74.35 -15.95 74.8 -16.5 L74.9 -16.55 Q75.5 -15.8 74.75 -14.85 M67.9 -12.65 L68.05 -12.6 Q68.3 -12.35 68.6 -12.2 L68.75 -11.75 68.75 -11.65 68.5 -11.55 68.4 -11.55 68.15 -11.7 67.85 -12.0 Q67.3 -11.9 67.1 -12.3 L67.1 -12.4 67.1 -12.45 Q67.2 -12.65 67.4 -12.65 L67.9 -12.65 M69.05 -10.95 L68.95 -11.0 Q68.85 -11.3 69.15 -11.45 L69.25 -11.45 Q69.9 -10.95 69.05 -10.95 M70.6 -2.7 Q71.2 -2.7 70.95 -2.2 L70.85 -2.15 Q69.9 -2.2 70.6 -2.7 M70.5 -4.65 L70.55 -4.55 70.55 -4.45 70.35 -4.2 Q69.7 -4.0 69.6 -4.55 L69.6 -4.6 Q69.7 -4.8 69.9 -4.8 L70.5 -4.65 M64.2 2.95 L64.2 2.9 64.25 2.6 64.35 2.55 65.4 2.05 Q65.85 3.2 64.2 2.95 M58.55 10.5 L58.45 10.6 Q58.05 10.75 57.95 10.4 57.95 9.95 58.4 9.8 58.95 10.05 58.55 10.5 M57.75 7.3 Q58.3 7.55 57.85 7.95 L57.75 8.05 Q57.1 7.65 57.75 7.3 M49.45 5.05 L49.45 5.1 49.35 5.3 49.15 5.4 48.4 5.1 48.35 4.95 48.45 4.8 48.65 4.7 Q49.15 4.65 49.45 5.05 M47.15 8.3 Q47.8 8.8 46.95 8.8 L46.85 8.75 Q46.75 8.45 47.0 8.3 L47.15 8.3 M53.6 14.7 L53.6 14.65 53.7 14.35 53.75 14.3 54.4 14.1 Q54.45 13.8 54.75 13.8 55.35 15.05 53.6 14.7 M28.05 1.3 L27.95 1.25 Q27.85 0.95 28.1 0.8 L28.25 0.8 Q28.9 1.3 28.05 1.3 M28.95 15.35 L28.8 15.35 28.65 15.05 28.7 14.95 29.4 14.45 Q30.05 15.0 28.95 15.35 M27.3 13.8 L27.2 13.75 Q27.1 13.45 27.4 13.3 L27.5 13.3 Q28.15 13.8 27.3 13.8 M27.4 18.0 L27.3 18.1 Q26.9 18.3 26.7 17.9 26.75 17.45 27.25 17.3 27.75 17.5 27.4 18.0 M24.75 20.35 L24.7 20.45 24.2 20.4 Q24.05 19.75 24.4 19.35 L24.5 19.3 Q25.0 19.65 24.75 20.35 M34.85 14.45 Q35.5 14.95 34.65 14.95 L34.55 14.9 Q34.45 14.6 34.7 14.5 L34.85 14.45 M37.75 20.3 Q36.8 20.2 37.5 19.7 38.1 19.7 37.85 20.2 L37.75 20.3 M38.4 21.45 Q38.9 21.65 38.65 22.15 L38.55 22.25 Q38.2 22.4 38.1 22.05 37.95 21.55 38.4 21.45 M14.2 24.2 L14.1 24.15 Q14.0 23.85 14.3 23.75 L14.4 23.7 Q15.05 24.2 14.2 24.2 M17.35 25.15 Q17.25 24.85 17.55 24.75 L17.65 24.7 Q18.3 25.2 17.45 25.2 L17.35 25.15 M35.8 27.7 L35.7 27.65 Q35.6 27.35 35.85 27.25 L36.0 27.2 Q36.65 27.7 35.8 27.7 M-42.25 -27.7 Q-41.7 -27.45 -42.1 -27.0 L-42.25 -26.95 Q-42.9 -27.35 -42.25 -27.7 M-41.1 -7.95 Q-40.3 -7.1 -41.4 -6.4 L-41.55 -6.4 -41.65 -6.7 -41.65 -6.8 -41.1 -7.95 M-48.25 -1.8 Q-47.6 -1.3 -48.45 -1.3 L-48.55 -1.35 Q-48.65 -1.65 -48.4 -1.75 L-48.25 -1.8 M-33.1 -26.95 L-33.2 -27.0 Q-33.3 -27.3 -33.05 -27.45 L-32.9 -27.45 Q-32.25 -26.95 -33.1 -26.95 M-33.45 -4.45 L-33.55 -4.5 -33.4 -4.95 -33.25 -4.95 Q-32.6 -4.45 -33.45 -4.45 M-23.8 -6.95 L-23.8 -6.9 -24.1 -6.7 -24.3 -6.75 -24.55 -7.15 -24.6 -7.3 Q-25.15 -7.55 -24.7 -7.9 L-24.6 -7.95 Q-23.85 -7.75 -23.8 -6.95 M-12.4 21.8 L-12.25 21.85 -12.05 22.05 -11.95 22.3 Q-12.5 22.8 -13.05 22.15 L-13.05 22.05 -13.05 22.0 -12.75 21.8 -12.4 21.8 M-5.65 22.8 Q-5.05 22.8 -5.3 23.3 L-5.4 23.35 Q-6.35 23.3 -5.65 22.8 M-6.95 22.95 L-7.05 22.9 Q-7.15 22.6 -6.85 22.5 L-6.75 22.45 Q-6.1 22.95 -6.95 22.95 M-1.2 22.2 L-1.3 22.15 Q-1.4 21.85 -1.1 21.75 L-1.0 21.7 Q-0.35 22.2 -1.2 22.2 M-29.05 2.95 L-29.15 2.9 Q-29.25 2.6 -28.95 2.5 L-28.85 2.45 Q-28.2 2.95 -29.05 2.95 M-28.35 5.35 L-28.45 5.3 Q-28.55 5.0 -28.3 4.9 L-28.15 4.85 Q-27.5 5.35 -28.35 5.35 M-22.55 7.8 L-22.65 7.75 Q-22.75 7.45 -22.45 7.3 L-22.35 7.3 Q-21.7 7.8 -22.55 7.8 M-32.2 11.2 L-32.3 11.15 Q-32.4 10.85 -32.1 10.75 L-32.0 10.7 Q-31.35 11.2 -32.2 11.2 M-36.35 2.4 L-36.45 2.5 Q-36.8 2.65 -36.9 2.3 -37.05 1.8 -36.6 1.7 -36.1 1.9 -36.35 2.4 M-33.1 15.95 L-33.2 15.9 Q-33.3 15.6 -33.05 15.5 L-32.9 15.45 Q-32.25 15.95 -33.1 15.95 M-22.85 27.05 L-22.95 27.0 Q-23.05 26.7 -22.8 26.55 L-22.65 26.55 Q-22.0 27.05 -22.85 27.05 M-47.9 12.2 Q-47.25 12.7 -48.1 12.7 L-48.2 12.65 -48.05 12.25 -47.9 12.2 M-42.25 23.95 L-42.3 24.05 Q-42.9 24.4 -43.05 23.8 L-42.95 23.65 -42.75 23.55 Q-42.15 23.45 -42.25 23.95 M-62.5 9.85 Q-62.1 10.45 -63.0 11.45 -64.15 12.7 -64.15 14.5 -64.1 15.1 -64.4 15.5 -64.7 15.6 -64.8 15.3 -64.9 13.55 -64.2 11.95 L-63.95 11.25 Q-63.4 10.3 -62.5 9.85 M-68.9 11.0 L-68.95 11.2 Q-71.8 12.4 -73.7 10.6 L-73.55 10.4 -73.4 10.35 -72.25 10.85 -72.2 10.9 -68.9 10.85 -68.9 11.0" fill="#cc0000" fill-rule="evenodd" stroke="none"/>
  </g>
</svg>
