<?xml version="1.0" encoding="UTF-8" standalone="no"?>
<svg xmlns:ffdec="https://www.free-decompiler.com/flash" xmlns:xlink="http://www.w3.org/1999/xlink" ffdec:objectType="shape" height="56.4px" width="156.7px" xmlns="http://www.w3.org/2000/svg">
  <g transform="matrix(1.0, 0.0, 0.0, 1.0, 75.25, 28.2)">
    <path d="M39.05 -19.45 L38.95 -19.5 Q38.85 -19.8 39.1 -19.95 L39.25 -19.95 Q39.9 -19.45 39.05 -19.45 M38.85 -22.0 L38.75 -21.95 Q38.1 -22.35 38.75 -22.7 39.3 -22.45 38.85 -22.0 M26.55 -22.2 L26.45 -22.25 Q26.35 -22.55 26.6 -22.7 L26.75 -22.7 Q27.4 -22.2 26.55 -22.2 M37.55 -11.45 L37.45 -11.5 Q37.35 -11.8 37.6 -11.95 L37.75 -11.95 Q38.4 -11.45 37.55 -11.45 M80.2 -27.7 L80.1 -27.75 Q80.0 -28.05 80.3 -28.2 L80.4 -28.2 Q81.05 -27.7 80.2 -27.7 M80.65 -26.8 Q81.7 -26.15 81.4 -25.0 L81.35 -24.95 80.95 -25.1 80.95 -25.2 Q80.5 -26.0 80.6 -26.75 L80.65 -26.8 M47.25 -12.95 Q46.6 -13.35 47.25 -13.7 47.8 -13.45 47.35 -13.0 L47.25 -12.95 M49.8 -8.05 L49.7 -8.1 Q49.6 -8.4 49.85 -8.5 L50.0 -8.55 Q50.65 -8.05 49.8 -8.05 M42.5 -10.35 Q41.75 -10.6 42.4 -10.95 43.05 -10.8 42.6 -10.4 L42.5 -10.35 M51.95 -2.45 L51.85 -2.5 Q51.75 -2.8 52.0 -2.95 L52.15 -2.95 Q52.8 -2.45 51.95 -2.45 M80.65 -23.05 Q81.2 -22.6 81.0 -21.8 L80.95 -21.7 80.45 -21.75 Q80.2 -22.5 80.55 -23.0 L80.65 -23.05 M77.95 -15.1 L77.85 -15.0 77.65 -14.45 77.55 -14.35 Q77.2 -14.2 77.1 -14.55 L77.15 -15.0 77.2 -15.2 Q77.5 -15.65 77.9 -15.8 78.45 -15.55 77.95 -15.1 M69.75 -11.55 Q70.4 -11.05 69.55 -11.05 L69.45 -11.1 Q69.35 -11.4 69.65 -11.5 L69.75 -11.55 M69.6 -11.5 L69.5 -11.45 Q68.75 -11.7 69.4 -12.05 70.05 -11.9 69.6 -11.5 M70.8 -5.25 L70.9 -5.3 Q71.55 -4.8 70.7 -4.8 L70.6 -4.85 Q70.5 -5.15 70.8 -5.25 M71.15 -2.05 L71.05 -2.1 Q70.95 -2.4 71.2 -2.5 L71.35 -2.55 Q72.0 -2.05 71.15 -2.05 M66.05 3.25 L65.9 3.3 Q65.45 3.2 65.65 2.8 L66.0 2.55 Q66.55 2.8 66.05 3.25 M58.95 10.55 L58.85 10.5 Q58.75 10.2 59.05 10.05 L59.15 10.05 Q59.8 10.55 58.95 10.55 M58.2 8.05 L58.1 8.0 Q58.0 7.7 58.25 7.55 L58.4 7.55 Q59.05 8.05 58.2 8.05 M50.45 4.9 Q50.35 4.6 50.6 4.5 L50.75 4.45 Q51.4 4.95 50.55 4.95 L50.45 4.9 M47.45 8.8 L47.35 8.75 Q47.25 8.45 47.5 8.3 L47.65 8.3 Q48.3 8.8 47.45 8.8 M54.35 15.35 L54.2 15.35 54.1 15.05 54.1 14.95 54.65 14.55 Q55.3 15.0 54.35 15.35 M28.45 1.3 L28.35 1.25 Q28.25 0.95 28.55 0.8 L28.65 0.8 Q29.3 1.3 28.45 1.3 M27.5 17.95 Q28.15 18.45 27.3 18.45 L27.2 18.4 Q27.1 18.1 27.35 18.0 L27.5 17.95 M30.0 14.7 Q30.6 14.7 30.35 15.2 L30.25 15.3 Q29.3 15.2 30.0 14.7 M25.2 20.4 L25.2 20.45 Q24.8 20.9 24.3 20.75 L24.2 20.55 24.2 20.35 24.75 20.05 Q25.15 20.0 25.2 20.4 M34.85 14.8 Q35.5 15.3 34.65 15.3 L34.55 15.25 Q34.45 14.95 34.7 14.8 L34.85 14.8 M37.7 20.45 L37.6 20.4 Q37.5 20.1 37.8 20.0 L37.9 19.95 Q38.55 20.45 37.7 20.45 M38.75 21.8 Q39.4 22.3 38.55 22.3 L38.45 22.25 Q38.35 21.95 38.6 21.8 L38.75 21.8 M14.05 24.55 L13.95 24.5 Q13.85 24.2 14.1 24.05 L14.25 24.05 Q14.9 24.55 14.05 24.55 M17.7 25.7 L17.6 25.65 Q17.5 25.35 17.8 25.25 L17.9 25.2 Q18.55 25.7 17.7 25.7 M35.95 28.2 L35.85 28.15 Q35.75 27.85 36.05 27.75 L36.15 27.7 Q36.8 28.2 35.95 28.2 M-42.35 -27.2 L-42.45 -27.25 -42.3 -27.7 -42.15 -27.7 Q-41.5 -27.2 -42.35 -27.2 M-41.6 -7.8 Q-41.0 -7.5 -41.65 -7.15 L-41.75 -7.1 Q-42.15 -7.15 -42.05 -7.55 L-41.6 -7.8 M-48.6 -1.95 Q-47.95 -1.45 -48.8 -1.45 L-48.9 -1.5 Q-49.0 -1.8 -48.7 -1.95 L-48.6 -1.95 M-24.7 -7.45 L-24.7 -7.4 -25.4 -7.35 Q-25.5 -7.65 -25.2 -7.75 L-25.1 -7.8 -24.7 -7.45 M-12.25 22.9 L-12.35 23.0 Q-12.7 23.15 -12.8 22.8 -12.95 22.3 -12.5 22.2 -12.0 22.4 -12.25 22.9 M-7.05 22.8 L-6.9 22.8 Q-6.25 23.3 -7.1 23.3 L-7.2 23.25 Q-7.3 22.95 -7.05 22.8 M-5.65 22.95 Q-5.0 23.45 -5.85 23.45 L-5.95 23.4 Q-6.05 23.1 -5.8 23.0 L-5.65 22.95 M-28.75 4.85 Q-28.1 5.35 -28.95 5.35 L-29.05 5.3 Q-29.15 5.0 -28.85 4.9 L-28.75 4.85 M-29.25 2.55 Q-28.6 3.05 -29.45 3.05 L-29.55 3.0 Q-29.65 2.7 -29.4 2.55 L-29.25 2.55 M-37.4 2.75 L-37.5 2.8 Q-38.25 2.55 -37.6 2.2 -36.95 2.35 -37.4 2.75 M-22.95 27.3 L-23.05 27.25 Q-23.15 26.95 -22.85 26.8 L-22.75 26.8 Q-22.1 27.3 -22.95 27.3 M-48.45 12.3 L-48.55 12.25 Q-48.65 11.95 -48.35 11.8 L-48.25 11.8 Q-47.6 12.3 -48.45 12.3 M-43.2 24.2 L-43.3 24.15 Q-43.4 23.85 -43.1 23.75 L-43.0 23.7 Q-42.35 24.2 -43.2 24.2 M-74.9 9.1 Q-74.2 9.95 -73.15 10.55 L-73.1 10.6 Q-72.6 10.6 -72.4 11.0 L-72.4 11.3 -72.5 11.4 Q-74.0 11.05 -75.15 9.85 -75.35 9.5 -75.1 9.2 L-74.9 9.1 M-66.45 15.2 Q-66.35 13.15 -65.4 11.6 -64.8 12.1 -65.4 12.9 L-65.45 12.95 -65.9 15.2 -66.0 15.4 Q-66.35 15.55 -66.45 15.2" fill="#cc0000" fill-rule="evenodd" stroke="none"/>
  </g>
</svg>
