<?xml version="1.0" encoding="UTF-8" standalone="no"?>
<svg xmlns:ffdec="https://www.free-decompiler.com/flash" xmlns:xlink="http://www.w3.org/1999/xlink" ffdec:objectType="shape" height="54.5px" width="159.5px" xmlns="http://www.w3.org/2000/svg">
  <g transform="matrix(1.0, 0.0, 0.0, 1.0, 75.55, 28.45)">
    <path d="M39.8 -19.3 L39.7 -19.35 Q39.6 -19.65 39.85 -19.75 L40.0 -19.8 Q40.65 -19.3 39.8 -19.3 M39.45 -22.2 L39.35 -22.25 Q39.25 -22.55 39.55 -22.7 L39.65 -22.7 Q40.3 -22.2 39.45 -22.2 M26.95 -22.2 L26.85 -22.25 Q26.75 -22.55 27.05 -22.7 L27.15 -22.7 Q27.8 -22.2 26.95 -22.2 M37.7 -11.45 L37.6 -11.5 Q37.5 -11.8 37.8 -11.95 L37.9 -11.95 Q38.55 -11.45 37.7 -11.45 M80.7 -28.0 Q80.6 -28.3 80.85 -28.45 L81.0 -28.45 Q81.65 -27.95 80.8 -27.95 L80.7 -28.0 M48.05 -12.8 L47.95 -12.85 Q47.85 -13.15 48.1 -13.25 L48.25 -13.3 Q48.9 -12.8 48.05 -12.8 M50.5 -8.55 Q51.15 -8.05 50.3 -8.05 L50.2 -8.1 Q50.1 -8.4 50.35 -8.5 L50.5 -8.55 M42.8 -10.2 L42.7 -10.25 Q42.6 -10.55 42.85 -10.7 L43.0 -10.7 Q43.65 -10.2 42.8 -10.2 M52.55 -2.7 L52.45 -2.75 Q52.35 -3.05 52.6 -3.2 L52.75 -3.2 Q53.4 -2.7 52.55 -2.7 M79.45 -15.65 Q80.1 -15.35 79.75 -14.5 L79.7 -14.4 79.2 -14.45 Q79.0 -15.15 79.4 -15.6 L79.45 -15.65 M70.0 -12.05 Q70.65 -11.55 69.8 -11.55 L69.7 -11.6 Q69.6 -11.9 69.85 -12.05 L70.0 -12.05 M70.95 -5.1 Q70.85 -5.4 71.1 -5.5 L71.25 -5.55 Q71.9 -5.05 71.05 -5.05 L70.95 -5.1 M71.45 -2.0 Q71.35 -2.3 71.6 -2.45 L71.75 -2.45 Q72.4 -1.95 71.55 -1.95 L71.45 -2.0 M83.9 -25.65 L83.85 -25.55 83.35 -25.6 Q83.0 -26.25 83.3 -26.75 L83.4 -26.8 Q84.1 -26.45 83.9 -25.65 M81.75 -22.8 Q82.35 -22.5 82.2 -21.8 L82.2 -21.75 81.7 -21.85 Q81.2 -22.35 81.65 -22.75 L81.75 -22.8 M67.0 2.8 Q67.6 2.8 67.35 3.3 L67.25 3.35 Q66.3 3.3 67.0 2.8 M51.25 4.45 Q51.9 4.95 51.05 4.95 L50.95 4.9 Q50.85 4.6 51.1 4.5 L51.25 4.45 M59.45 10.7 L59.35 10.65 Q59.25 10.35 59.5 10.25 L59.65 10.2 Q60.3 10.7 59.45 10.7 M58.75 7.55 Q59.4 8.05 58.55 8.05 L58.45 8.0 Q58.35 7.7 58.6 7.55 L58.75 7.55 M47.8 8.8 L47.7 8.75 Q47.6 8.45 47.85 8.3 L48.0 8.3 Q48.65 8.8 47.8 8.8 M54.55 15.55 L54.45 15.5 Q54.35 15.2 54.6 15.05 L54.75 15.05 Q55.4 15.55 54.55 15.55 M27.55 18.55 L27.45 18.5 Q27.35 18.2 27.6 18.05 L27.75 18.05 Q28.4 18.55 27.55 18.55 M30.35 14.75 L30.5 14.7 Q31.15 15.2 30.3 15.2 L30.2 15.15 Q30.1 14.85 30.35 14.75 M24.75 20.85 Q23.8 20.8 24.5 20.3 25.1 20.3 24.85 20.8 L24.75 20.85 M35.1 14.8 Q35.75 15.3 34.9 15.3 L34.8 15.25 Q34.7 14.95 34.95 14.8 L35.1 14.8 M37.95 20.55 L37.85 20.5 Q37.75 20.2 38.05 20.05 L38.15 20.05 Q38.8 20.55 37.95 20.55 M39.0 21.8 Q39.65 22.3 38.8 22.3 L38.7 22.25 Q38.6 21.95 38.85 21.8 L39.0 21.8 M18.0 25.55 Q18.65 26.05 17.8 26.05 L17.7 26.0 Q17.6 25.7 17.85 25.55 L18.0 25.55 M-42.2 -27.05 L-42.3 -27.1 Q-42.4 -27.4 -42.1 -27.5 L-42.0 -27.55 Q-41.35 -27.05 -42.2 -27.05 M-42.3 -7.45 L-42.4 -7.5 Q-42.5 -7.8 -42.2 -7.95 L-42.1 -7.95 Q-41.45 -7.45 -42.3 -7.45 M-25.7 -7.3 L-25.8 -7.35 -25.65 -7.75 -25.5 -7.8 Q-24.85 -7.3 -25.7 -7.3 M-12.35 22.95 L-12.45 22.9 Q-12.55 22.6 -12.3 22.5 L-12.15 22.45 Q-11.5 22.95 -12.35 22.95 M-5.75 23.3 Q-5.1 23.8 -5.95 23.8 L-6.05 23.75 Q-6.15 23.45 -5.85 23.3 L-5.75 23.3 M-38.1 2.2 Q-37.45 2.7 -38.3 2.7 L-38.4 2.65 Q-38.5 2.35 -38.2 2.25 L-38.1 2.2 M-43.45 24.3 L-43.55 24.25 Q-43.65 23.95 -43.35 23.8 L-43.25 23.8 Q-42.6 24.3 -43.45 24.3 M-74.65 10.0 L-74.7 10.1 -75.2 10.05 Q-75.8 9.05 -75.35 8.15 L-75.25 8.1 Q-74.65 8.9 -74.65 10.0 M-66.75 15.1 L-66.8 15.2 -67.35 15.15 Q-67.9 14.1 -67.25 13.25 L-67.15 13.2 -66.75 15.1" fill="#cc0000" fill-rule="evenodd" stroke="none"/>
  </g>
</svg>
