<?xml version="1.0" encoding="UTF-8" standalone="no"?>
<svg xmlns:ffdec="https://www.free-decompiler.com/flash" xmlns:xlink="http://www.w3.org/1999/xlink" ffdec:objectType="shape" height="50.65px" width="161.6px" xmlns="http://www.w3.org/2000/svg">
  <g transform="matrix(1.0, 0.0, 0.0, 1.0, 76.05, 26.7)">
    <path d="M40.35 -19.35 Q40.25 -19.65 40.55 -19.75 L40.65 -19.8 Q41.3 -19.3 40.45 -19.3 L40.35 -19.35 M39.8 -22.3 L39.7 -22.35 Q39.6 -22.65 39.85 -22.75 L40.0 -22.8 Q40.65 -22.3 39.8 -22.3 M28.0 -22.95 Q28.65 -22.45 27.8 -22.45 L27.7 -22.5 27.3 -22.45 27.2 -22.5 Q27.1 -22.8 27.35 -22.95 L27.5 -22.95 27.7 -22.75 27.85 -22.95 28.0 -22.95 M48.55 -12.7 L48.45 -12.75 Q48.35 -13.05 48.6 -13.2 L48.75 -13.2 Q49.4 -12.7 48.55 -12.7 M52.95 -2.7 L52.85 -2.75 Q52.75 -3.05 53.0 -3.2 L53.15 -3.2 Q53.8 -2.7 52.95 -2.7 M80.4 -14.65 L80.3 -14.7 Q80.2 -15.0 80.5 -15.1 L80.6 -15.15 Q81.25 -14.65 80.4 -14.65 M85.55 -26.2 L85.55 -26.1 Q85.4 -25.75 85.05 -25.9 84.35 -26.4 85.0 -26.7 L85.55 -26.2 M82.55 -21.8 L82.4 -21.7 Q81.75 -22.1 82.4 -22.45 82.95 -22.2 82.55 -21.8 M67.9 2.8 Q68.55 3.3 67.7 3.3 L67.6 3.25 Q67.5 2.95 67.8 2.8 L67.9 2.8 M54.55 15.55 L54.45 15.5 Q54.35 15.2 54.6 15.05 L54.75 15.05 Q55.4 15.55 54.55 15.55 M51.65 4.3 Q52.3 4.8 51.45 4.8 L51.35 4.75 Q51.25 4.45 51.5 4.3 L51.65 4.3 M30.55 15.2 L30.45 15.15 Q30.35 14.85 30.6 14.75 L30.75 14.7 Q31.4 15.2 30.55 15.2 M-42.7 -7.55 L-42.8 -7.6 Q-42.9 -7.9 -42.65 -8.0 L-42.5 -8.05 Q-41.85 -7.55 -42.7 -7.55 M-12.1 23.05 L-12.2 23.0 Q-12.3 22.7 -12.05 22.55 L-11.9 22.55 Q-11.25 23.05 -12.1 23.05 M-5.65 23.45 Q-5.0 23.95 -5.85 23.95 L-5.95 23.9 Q-6.05 23.6 -5.8 23.5 L-5.65 23.45 M-38.35 2.45 Q-37.7 2.95 -38.55 2.95 L-38.65 2.9 Q-38.75 2.6 -38.45 2.5 L-38.35 2.45 M-75.2 8.25 L-75.2 8.35 -75.5 9.1 -75.65 9.25 -76.0 9.15 -76.05 9.05 -75.8 8.05 -75.65 7.95 Q-75.25 7.9 -75.2 8.25 M-67.45 14.65 L-67.45 14.75 -67.75 14.95 -67.95 14.9 Q-68.35 14.65 -68.3 14.25 L-68.3 14.15 -68.1 13.95 -68.0 13.95 -67.45 14.65" fill="#cc0000" fill-rule="evenodd" stroke="none"/>
  </g>
</svg>
