<?xml version="1.0" encoding="UTF-8" standalone="no"?>
<svg xmlns:ffdec="https://www.free-decompiler.com/flash" xmlns:xlink="http://www.w3.org/1999/xlink" ffdec:objectType="shape" height="18.95px" width="29.1px" xmlns="http://www.w3.org/2000/svg">
  <g transform="matrix(1.0, 0.0, 0.0, 1.0, 16.2, 28.55)">
    <path d="M9.85 -26.25 Q6.05 -19.85 3.2 -13.05 L2.75 -12.7 2.55 -13.4 2.15 -12.7 Q2.0 -12.35 1.65 -12.5 1.5 -12.6 1.5 -12.8 L1.55 -12.9 Q3.65 -16.05 5.05 -19.75 L6.55 -24.35 7.85 -28.55 Q8.45 -27.0 7.75 -25.05 L6.6 -21.85 Q8.15 -25.1 10.0 -27.95 10.45 -27.25 9.85 -26.25 M11.7 -16.35 L10.05 -14.4 9.85 -14.35 9.65 -14.3 Q8.5 -12.05 6.8 -10.65 L6.7 -10.95 6.7 -11.0 6.45 -10.7 Q6.15 -10.6 6.05 -10.95 7.25 -13.05 8.95 -14.85 L9.7 -15.9 Q11.15 -18.65 12.75 -21.05 13.15 -20.2 12.45 -19.05 L9.85 -15.15 9.9 -15.15 12.15 -18.4 12.25 -18.45 Q12.7 -17.55 11.7 -16.35 M7.1 -19.05 L7.2 -18.95 Q8.5 -15.75 5.3 -14.55 7.2 -13.55 6.55 -11.85 5.9 -11.35 5.3 -11.6 5.2 -11.9 5.45 -12.05 L5.55 -12.15 Q6.05 -12.15 6.2 -12.55 L5.65 -13.15 Q5.6 -12.6 5.1 -12.0 L5.0 -11.95 Q4.45 -12.55 5.05 -13.5 L5.1 -13.6 5.25 -13.7 Q4.85 -14.35 4.75 -15.0 6.7 -15.4 6.7 -17.15 L6.75 -19.1 6.85 -19.2 7.1 -19.05 M2.3 -18.85 L2.25 -18.75 Q1.9 -18.6 1.8 -18.95 1.85 -20.5 2.35 -21.7 3.0 -20.4 2.3 -18.85 M-4.9 -26.05 Q-3.9 -23.75 -3.5 -21.1 L-3.55 -21.05 -4.05 -21.1 Q-5.0 -23.6 -4.95 -26.05 L-4.9 -26.05 M-8.3 -13.5 Q-6.9 -13.5 -5.95 -12.45 L-5.45 -12.15 Q-5.65 -11.65 -6.15 -11.7 -6.9 -12.8 -8.15 -12.7 -9.35 -13.65 -10.1 -15.05 L-10.35 -15.75 Q-14.4 -16.15 -16.15 -19.55 L-16.0 -19.7 Q-13.9 -16.8 -10.25 -16.45 L-10.1 -16.4 -8.7 -14.15 -8.3 -13.5 M-6.15 -17.7 L-6.0 -17.65 -5.9 -17.55 -4.2 -14.55 -4.05 -14.4 -3.5 -14.25 -2.1 -13.05 -1.75 -13.0 -1.6 -13.0 Q-1.3 -12.7 -1.5 -12.35 L-1.6 -12.25 Q-1.85 -12.1 -2.1 -12.25 L-2.9 -12.8 Q-3.05 -12.5 -3.4 -12.6 -5.35 -14.65 -6.35 -17.4 L-6.15 -17.7 M-0.35 -13.15 L-0.55 -12.9 -0.65 -12.85 -1.2 -12.9 Q-1.95 -15.45 -1.3 -18.2 L-0.9 -19.45 0.1 -21.45 Q0.6 -20.4 -0.15 -18.95 L-0.65 -17.7 Q-1.05 -15.7 -0.9 -13.65 L-0.35 -13.15 M-11.55 -12.9 L-11.95 -12.35 Q-10.2 -11.9 -8.5 -12.3 L-8.65 -10.8 -8.5 -10.35 -7.95 -9.95 -7.95 -9.9 -8.15 -9.65 -8.25 -9.6 -8.85 -9.65 -9.2 -10.15 -9.3 -11.05 -9.3 -11.45 -12.55 -11.75 Q-12.6 -13.25 -11.35 -14.35 L-10.9 -14.55 Q-10.4 -13.8 -11.55 -12.9" fill="#cc0000" fill-rule="evenodd" stroke="none"/>
  </g>
</svg>
