<?xml version="1.0" encoding="UTF-8" standalone="no"?>
<svg xmlns:ffdec="https://www.free-decompiler.com/flash" xmlns:xlink="http://www.w3.org/1999/xlink" ffdec:objectType="shape" height="23.6px" width="34.75px" xmlns="http://www.w3.org/2000/svg">
  <g transform="matrix(1.0, 0.0, 0.0, 1.0, 17.05, 35.55)">
    <path d="M9.05 -33.35 L8.2 -26.8 7.7 -26.85 Q7.85 -31.3 8.75 -35.5 L8.85 -35.55 Q9.3 -34.65 9.05 -33.35 M2.85 -31.05 Q3.2 -29.9 2.85 -28.4 L2.8 -28.3 2.3 -28.35 Q2.1 -29.85 2.75 -31.0 L2.85 -31.05 M0.75 -25.95 Q1.1 -25.35 1.05 -24.3 0.9 -22.0 0.0 -19.95 L-0.65 -19.35 Q-1.0 -19.4 -0.95 -19.7 0.45 -22.45 0.6 -25.8 L0.75 -25.95 M9.2 -26.3 Q12.3 -31.35 17.4 -34.45 L17.6 -34.55 Q18.0 -33.75 16.5 -33.0 15.05 -32.3 13.95 -31.15 11.55 -28.65 9.5 -25.95 9.15 -26.0 9.2 -26.3 M15.4 -24.95 L12.8 -19.7 Q12.65 -19.35 12.3 -19.5 L12.2 -19.8 12.2 -19.9 15.6 -26.95 Q16.05 -26.15 15.4 -24.95 M15.55 -21.1 Q14.1 -20.05 13.3 -18.55 L13.25 -18.45 12.85 -18.2 11.9 -16.75 Q11.8 -16.6 11.6 -16.6 11.25 -16.65 11.3 -16.95 L12.15 -18.3 12.3 -18.55 12.65 -18.8 13.45 -19.95 13.55 -20.15 Q14.35 -21.1 15.35 -21.7 15.8 -21.55 15.55 -21.2 L15.55 -21.1 M9.35 -23.3 Q9.8 -22.15 8.15 -21.45 L7.05 -20.8 6.9 -20.65 Q7.0 -19.45 7.35 -18.35 7.5 -17.95 7.3 -17.55 L6.8 -17.6 6.4 -19.85 6.3 -20.9 6.55 -21.25 6.6 -21.35 7.95 -21.9 9.35 -23.3 M3.3 -15.15 Q4.55 -17.1 5.0 -19.45 L5.1 -19.45 Q5.55 -19.2 5.4 -18.55 L5.4 -18.45 Q4.85 -17.15 4.65 -15.75 L4.6 -15.55 Q4.1 -14.8 3.4 -14.75 3.25 -14.85 3.25 -15.05 L3.3 -15.15 M6.35 -15.95 L7.0 -15.8 7.05 -15.7 7.05 -15.65 6.85 -15.4 Q6.0 -14.8 5.15 -14.55 L5.05 -14.6 Q5.2 -15.3 5.95 -15.8 L6.35 -15.95 M-6.25 -34.05 Q-5.7 -32.7 -5.75 -30.9 L-5.8 -29.7 Q-6.15 -29.45 -6.35 -29.85 -6.85 -32.0 -6.3 -34.0 L-6.25 -34.05 M-7.4 -21.95 L-5.45 -17.1 -5.45 -17.05 Q-5.65 -16.75 -5.95 -16.9 -7.6 -19.3 -7.45 -21.95 L-7.4 -21.95 M-8.9 -14.45 L-8.75 -14.45 -5.7 -12.1 -5.7 -12.05 Q-7.85 -12.1 -9.05 -14.2 L-8.9 -14.45 M-3.4 -13.1 Q-4.7 -14.8 -5.15 -16.95 L-5.0 -17.05 -4.25 -16.15 -4.2 -16.05 -3.4 -14.0 -3.3 -13.75 Q-3.0 -13.7 -2.85 -13.45 L-2.85 -13.4 Q-3.0 -13.0 -3.4 -13.1 M-16.5 -24.4 L-16.4 -24.3 Q-15.55 -23.35 -15.45 -22.15 L-15.45 -21.95 -16.35 -21.15 Q-15.55 -18.65 -13.2 -17.2 -13.3 -16.85 -13.75 -16.95 -15.7 -18.25 -16.95 -20.3 -17.25 -21.5 -16.2 -22.1 L-16.1 -22.15 -16.8 -24.35 -16.65 -24.45 -16.5 -24.4 M-17.0 -13.8 L-17.05 -13.95 -16.85 -14.2 -16.75 -14.2 Q-14.85 -12.55 -12.4 -12.5 L-12.35 -12.45 -15.65 -12.55 -17.0 -13.8 M-12.75 -15.2 Q-12.3 -15.2 -12.4 -14.8 L-12.45 -14.7 Q-13.25 -14.45 -13.5 -13.75 L-13.6 -13.65 Q-13.95 -13.5 -14.05 -13.85 -13.95 -14.8 -13.0 -15.15 L-12.75 -15.2" fill="#cc0000" fill-rule="evenodd" stroke="none"/>
  </g>
</svg>
