<?xml version="1.0" encoding="UTF-8" standalone="no"?>
<svg xmlns:ffdec="https://www.free-decompiler.com/flash" xmlns:xlink="http://www.w3.org/1999/xlink" ffdec:objectType="shape" height="28.25px" width="42.75px" xmlns="http://www.w3.org/2000/svg">
  <g transform="matrix(1.0, 0.0, 0.0, 1.0, 20.85, 41.2)">
    <path d="M21.7 -34.9 Q17.95 -34.55 15.05 -32.15 L14.9 -32.15 14.85 -32.25 14.8 -32.55 16.45 -33.85 16.45 -34.05 16.45 -34.15 19.6 -35.7 19.65 -35.15 20.2 -35.25 21.1 -35.45 21.85 -35.3 21.9 -35.2 21.9 -35.15 21.7 -34.9 M4.3 -39.7 L4.3 -39.65 3.8 -39.15 3.8 -39.05 3.8 -38.95 3.8 -38.9 3.55 -38.7 3.45 -38.6 3.05 -37.8 2.85 -37.6 Q2.45 -37.7 2.5 -38.15 L2.55 -38.2 3.0 -39.05 3.2 -39.25 Q3.3 -39.65 3.7 -39.95 L3.85 -40.05 Q4.25 -40.1 4.3 -39.7 M10.0 -41.2 Q10.35 -40.1 9.85 -38.6 9.05 -36.4 8.6 -34.15 8.3 -34.05 8.2 -34.35 8.65 -37.85 9.9 -41.1 L10.0 -41.2 M1.0 -25.45 L0.4 -25.5 Q-0.4 -28.25 -0.45 -30.9 L-0.4 -30.95 Q0.6 -28.4 1.0 -25.55 L1.0 -25.45 M18.25 -31.05 Q18.6 -30.05 17.75 -28.7 L17.6 -28.45 18.5 -28.95 Q18.9 -28.15 17.4 -27.4 16.35 -26.9 15.85 -25.8 L15.4 -25.15 15.05 -24.35 Q14.95 -24.2 14.75 -24.2 14.4 -24.25 14.45 -24.55 L14.5 -24.8 14.55 -25.0 15.25 -26.15 15.2 -26.2 18.15 -31.0 18.25 -31.05 M10.25 -26.55 Q10.75 -25.5 10.35 -24.05 9.9 -22.3 8.55 -21.75 L8.45 -22.05 8.45 -22.15 Q9.9 -24.1 10.2 -26.55 L10.25 -26.55 M19.0 -24.05 Q19.45 -24.05 19.35 -23.65 L19.3 -23.55 15.15 -21.0 Q15.0 -21.1 15.0 -21.3 L15.05 -21.4 Q16.6 -23.2 18.8 -24.0 L19.0 -24.05 M13.15 -19.75 L12.5 -19.2 Q12.15 -19.25 12.2 -19.55 12.7 -20.75 13.75 -21.45 14.15 -20.7 13.15 -19.75 M5.85 -19.2 L5.8 -19.15 Q5.4 -18.5 5.3 -17.7 L5.3 -17.65 Q5.1 -17.0 4.6 -16.7 4.25 -16.75 4.3 -17.05 L5.5 -20.25 5.6 -20.3 Q6.1 -19.95 5.85 -19.2 M7.1 -17.7 L7.25 -17.65 7.35 -17.55 7.55 -17.2 6.1 -17.05 5.95 -17.2 5.95 -17.3 Q6.0 -17.65 6.35 -17.7 L7.1 -17.7 M-7.5 -38.35 L-8.0 -37.75 Q-8.35 -37.6 -8.45 -37.95 -8.0 -39.25 -6.9 -40.05 -6.45 -39.25 -7.5 -38.35 M-18.15 -27.95 Q-16.85 -26.7 -16.3 -25.25 L-15.75 -26.25 -15.65 -26.3 Q-15.4 -25.65 -15.7 -24.55 L-16.05 -22.8 -16.05 -22.7 Q-16.15 -21.95 -16.4 -21.15 L-16.4 -21.05 -16.8 -20.75 -16.9 -20.7 -17.2 -20.95 -17.2 -21.05 -17.1 -21.2 -17.05 -21.3 Q-15.9 -24.8 -18.3 -27.8 L-18.15 -27.95 M-20.4 -16.55 Q-19.95 -16.2 -20.25 -15.65 -18.95 -14.4 -17.3 -13.7 L-17.2 -13.65 -16.6 -13.2 -16.8 -13.0 -16.9 -12.95 Q-19.25 -13.6 -20.7 -15.45 L-20.7 -15.5 -20.8 -15.7 Q-20.95 -16.25 -20.5 -16.5 L-20.4 -16.55 M-9.1 -24.5 L-9.0 -24.55 Q-7.6 -23.25 -7.0 -21.4 L-6.95 -21.3 -7.0 -20.95 -7.1 -20.75 Q-7.45 -20.6 -7.55 -20.95 L-9.1 -24.5 M-9.4 -14.85 L-9.25 -14.95 Q-8.3 -14.5 -7.6 -13.7 L-7.55 -13.65 -7.05 -13.4 -6.95 -13.2 -7.05 -13.05 -7.25 -12.95 -7.85 -13.0 Q-8.85 -13.85 -9.4 -14.85 M-5.05 -16.2 L-5.55 -16.25 Q-5.75 -18.1 -5.1 -19.65 L-5.0 -19.7 Q-4.65 -18.2 -5.0 -16.3 L-5.05 -16.2 M-15.45 -15.9 Q-15.05 -15.95 -14.75 -16.15 L-14.4 -16.3 -13.5 -16.15 -13.45 -16.05 -13.45 -15.95 -13.65 -15.7 -15.45 -15.3 -15.7 -15.35 -15.7 -15.45 -15.45 -15.9" fill="#cc0000" fill-rule="evenodd" stroke="none"/>
  </g>
</svg>
