<?xml version="1.0" encoding="UTF-8" standalone="no"?>
<svg xmlns:ffdec="https://www.free-decompiler.com/flash" xmlns:xlink="http://www.w3.org/1999/xlink" ffdec:objectType="shape" height="33.15px" width="48.15px" xmlns="http://www.w3.org/2000/svg">
  <g transform="matrix(1.0, 0.0, 0.0, 1.0, 22.75, 47.0)">
    <path d="M25.35 -35.0 L25.1 -34.9 24.85 -34.9 20.55 -35.35 20.55 -35.45 Q21.55 -36.0 23.0 -35.95 L24.75 -35.8 24.9 -35.75 25.0 -35.65 25.35 -35.25 25.4 -35.1 25.35 -35.0 M22.3 -36.3 L18.9 -35.0 18.8 -35.2 18.85 -35.45 21.75 -36.7 Q22.2 -36.8 22.3 -36.35 L22.3 -36.3 M21.25 -29.9 L21.3 -29.8 21.3 -29.7 21.1 -29.45 Q18.95 -28.9 17.25 -27.45 L17.05 -27.5 Q17.75 -28.85 19.35 -29.55 L20.6 -30.05 21.25 -29.9 M11.35 -43.75 L9.45 -40.2 Q9.15 -40.1 9.05 -40.45 9.9 -42.9 11.15 -45.2 L11.25 -45.4 Q11.2 -45.75 11.5 -45.9 L11.6 -45.95 Q12.1 -45.05 11.35 -43.75 M4.25 -46.8 L4.3 -46.7 4.3 -46.65 Q4.3 -46.45 4.1 -46.4 3.45 -46.05 2.8 -46.0 L2.75 -46.1 Q2.6 -46.3 2.75 -46.45 L3.45 -46.95 3.6 -46.95 4.25 -46.8 M9.95 -29.8 L10.1 -29.95 Q11.0 -28.3 10.3 -26.25 L10.25 -26.15 Q9.9 -26.0 9.8 -26.35 10.05 -28.1 9.95 -29.8 M19.0 -32.45 L18.35 -30.4 Q18.05 -30.3 17.95 -30.6 18.2 -32.65 18.9 -34.45 L19.0 -34.55 Q19.4 -33.7 19.0 -32.45 M13.45 -20.65 L13.3 -20.65 13.2 -20.95 13.2 -21.05 Q13.5 -21.8 14.1 -22.2 14.65 -21.35 13.45 -20.65 M20.0 -24.5 L20.75 -24.7 22.75 -24.55 22.8 -24.45 22.8 -24.4 22.6 -24.15 Q20.7 -24.25 18.95 -23.45 18.45 -23.15 18.2 -23.6 18.35 -24.15 18.95 -24.3 L20.0 -24.5 M7.1 -19.7 L7.35 -19.7 7.5 -19.65 8.0 -19.1 8.05 -18.9 7.85 -18.75 7.55 -18.75 6.8 -19.35 6.8 -19.45 6.9 -19.6 7.1 -19.7 M4.8 -18.9 L4.95 -19.05 5.0 -19.15 Q5.05 -20.2 5.6 -20.8 6.3 -19.55 5.05 -18.5 L4.9 -18.5 Q4.75 -18.6 4.75 -18.8 L4.8 -18.9 M-9.0 -43.55 L-8.65 -43.55 -8.45 -43.5 -8.15 -43.25 -8.1 -42.95 -8.85 -42.85 Q-9.35 -42.6 -9.75 -42.85 L-9.8 -42.95 -9.8 -43.1 -9.4 -43.45 -9.1 -43.5 -9.0 -43.55 M-20.05 -29.55 L-19.95 -29.7 -19.75 -29.8 Q-17.85 -28.85 -16.85 -26.95 L-16.85 -26.85 -17.15 -26.65 -17.35 -26.65 Q-18.4 -28.35 -20.0 -29.4 L-20.05 -29.55 M-16.15 -25.85 Q-16.5 -25.9 -16.45 -26.2 -16.0 -27.35 -15.0 -28.05 -14.6 -27.35 -15.5 -26.35 L-16.15 -25.85 M-10.75 -27.2 L-8.65 -24.15 -8.65 -24.05 Q-8.75 -23.95 -8.9 -23.95 L-9.1 -24.0 -10.95 -26.35 Q-11.15 -26.8 -10.9 -27.1 L-10.75 -27.2 M-0.55 -29.6 L-0.4 -35.3 -0.25 -35.45 Q0.3 -34.2 0.25 -32.5 L-0.1 -29.4 Q-0.45 -29.25 -0.55 -29.6 M-22.4 -16.95 Q-22.0 -17.0 -21.95 -16.65 L-21.95 -16.55 -22.05 -16.45 -22.2 -16.35 Q-22.15 -15.2 -21.4 -14.25 L-21.35 -14.1 Q-21.5 -13.75 -21.85 -13.9 -23.2 -15.3 -22.55 -16.9 L-22.4 -16.95 M-4.45 -20.95 L-4.45 -20.9 Q-5.45 -20.05 -5.7 -18.8 -5.75 -18.65 -5.9 -18.65 -6.1 -18.55 -6.25 -18.75 L-6.3 -18.85 Q-6.2 -20.2 -5.15 -21.2 L-4.9 -21.3 Q-4.5 -21.35 -4.45 -20.95 M-9.5 -15.55 L-9.1 -15.4 -8.95 -15.3 -8.2 -14.35 -8.1 -14.1 -8.4 -13.9 -8.6 -13.9 -9.75 -15.15 -9.8 -15.3 -9.65 -15.5 -9.5 -15.55 M-15.75 -17.45 Q-15.0 -17.45 -14.7 -16.75 L-14.7 -16.65 Q-14.75 -16.5 -14.9 -16.5 L-15.2 -16.5 -15.9 -16.95 -16.05 -17.2 -15.95 -17.35 -15.75 -17.45 M-15.25 -15.9 L-15.3 -15.8 -16.3 -15.85 -16.25 -16.0 -16.15 -16.2 -15.8 -16.3 -15.65 -16.3 Q-15.15 -16.35 -15.25 -15.9" fill="#cc0000" fill-rule="evenodd" stroke="none"/>
  </g>
</svg>
