<?xml version="1.0" encoding="UTF-8" standalone="no"?>
<svg xmlns:ffdec="https://www.free-decompiler.com/flash" xmlns:xlink="http://www.w3.org/1999/xlink" ffdec:objectType="shape" height="37.4px" width="51.7px" xmlns="http://www.w3.org/2000/svg">
  <g transform="matrix(1.0, 0.0, 0.0, 1.0, 24.55, 51.85)">
    <path d="M4.6 -51.55 L4.65 -51.45 4.65 -51.4 4.55 -51.2 4.45 -51.15 Q3.9 -51.05 3.55 -51.45 L3.55 -51.55 3.55 -51.6 3.85 -51.8 Q4.35 -51.95 4.6 -51.55 M23.55 -37.35 L23.55 -37.3 Q22.55 -36.7 21.4 -36.65 L21.35 -36.75 21.3 -37.05 23.0 -37.7 Q23.45 -37.8 23.55 -37.35 M26.75 -35.1 L27.0 -34.75 27.15 -34.35 26.85 -34.15 26.65 -34.15 Q25.95 -35.05 24.75 -35.2 24.4 -35.25 24.45 -35.55 L24.55 -35.7 24.75 -35.8 26.6 -35.2 26.75 -35.1 M23.85 -29.55 L23.6 -29.35 20.2 -29.7 20.2 -29.8 Q20.7 -30.35 21.6 -30.3 L21.75 -30.3 Q22.95 -30.4 23.9 -29.7 L23.9 -29.65 23.85 -29.55 M22.5 -25.05 L24.65 -24.9 24.8 -24.8 24.8 -24.7 24.6 -24.45 21.7 -24.6 21.7 -24.7 21.85 -24.95 22.0 -24.95 22.5 -25.05 M12.1 -48.7 Q12.4 -47.8 11.6 -46.5 L10.15 -44.8 9.9 -44.75 Q9.75 -44.85 9.75 -45.05 L9.8 -45.15 12.0 -48.65 12.1 -48.7 M0.0 -34.25 Q-0.35 -34.1 -0.45 -34.45 L-0.25 -36.7 -0.2 -36.9 0.25 -37.2 Q0.6 -36.35 0.35 -35.05 L0.0 -34.25 M18.95 -36.25 L19.0 -36.3 19.25 -36.15 19.35 -36.05 Q19.5 -34.9 19.2 -33.75 L19.1 -33.65 Q18.8 -33.55 18.7 -33.85 L18.95 -36.25 M10.6 -32.45 Q11.05 -31.65 10.5 -30.5 L10.2 -29.8 9.7 -29.85 Q9.7 -31.3 10.5 -32.4 L10.6 -32.45 M14.2 -21.75 L14.05 -21.75 13.95 -22.1 14.0 -22.2 14.5 -22.55 Q15.15 -22.1 14.2 -21.75 M5.4 -20.75 L5.5 -20.8 Q6.3 -20.3 5.35 -19.7 L5.25 -19.7 Q4.9 -19.75 4.95 -20.05 L5.05 -20.2 5.15 -20.3 5.4 -20.75 M8.75 -20.35 L8.7 -20.3 Q7.5 -20.5 7.75 -21.5 L7.85 -21.55 Q8.7 -21.2 8.75 -20.35 M-8.7 -45.3 L-8.7 -45.2 Q-8.85 -44.85 -9.2 -45.0 -10.1 -45.85 -9.65 -46.45 -8.9 -46.1 -8.7 -45.3 M-18.4 -29.9 L-18.65 -29.7 -18.9 -29.7 Q-20.15 -30.8 -21.7 -30.8 L-22.2 -31.1 -22.2 -31.2 -22.05 -31.6 -21.75 -31.7 Q-19.85 -31.4 -18.35 -30.05 L-18.35 -29.95 -18.4 -29.9 M-15.95 -28.7 L-15.8 -28.95 -14.85 -29.25 -14.75 -29.3 -14.15 -29.15 -14.1 -29.05 -14.1 -28.95 -14.3 -28.7 -15.95 -28.6 -15.95 -28.7 M-13.4 -28.65 L-13.45 -28.8 -13.3 -29.05 -13.15 -29.05 Q-11.8 -28.8 -10.85 -27.65 L-10.85 -27.6 Q-11.85 -27.45 -12.95 -28.25 L-13.4 -28.65 M-24.0 -16.95 Q-23.45 -16.75 -23.85 -16.35 L-23.95 -16.25 -23.9 -14.65 Q-23.9 -14.5 -24.05 -14.45 -24.35 -14.35 -24.45 -14.7 L-24.55 -16.2 -24.55 -16.45 -24.1 -16.9 -24.0 -16.95 M-5.45 -21.8 L-5.45 -21.7 -5.65 -21.45 -5.75 -21.45 -6.2 -21.4 -6.35 -21.1 -6.85 -21.0 -6.9 -21.1 -6.95 -21.4 -6.65 -21.8 -6.25 -22.05 -5.5 -21.9 -5.45 -21.8 M-8.95 -15.25 L-8.95 -15.15 -9.1 -14.95 -9.25 -14.85 Q-9.8 -15.15 -9.95 -15.75 L-9.85 -16.0 -9.65 -16.05 -8.95 -15.25 M-16.0 -17.65 L-16.2 -17.65 -16.9 -18.15 -16.95 -18.3 -16.85 -18.45 -16.65 -18.55 Q-16.0 -18.55 -15.7 -17.95 L-15.7 -17.85 -16.0 -17.65 M-16.05 -16.15 L-16.15 -16.1 Q-16.9 -16.35 -16.25 -16.7 -15.6 -16.55 -16.05 -16.15" fill="#cc0000" fill-rule="evenodd" stroke="none"/>
  </g>
</svg>
