<?xml version="1.0" encoding="UTF-8" standalone="no"?>
<svg xmlns:ffdec="https://www.free-decompiler.com/flash" xmlns:xlink="http://www.w3.org/1999/xlink" ffdec:objectType="shape" height="39.85px" width="54.1px" xmlns="http://www.w3.org/2000/svg">
  <g transform="matrix(1.0, 0.0, 0.0, 1.0, 26.0, 55.2)">
    <path d="M4.5 -55.2 L4.85 -55.2 5.0 -55.15 5.2 -54.95 5.3 -54.7 5.0 -54.5 4.75 -54.55 4.35 -54.5 4.05 -54.6 4.1 -55.0 4.5 -55.2 M12.3 -50.2 L12.3 -50.15 Q11.65 -49.75 11.3 -49.15 L11.25 -49.05 10.45 -49.0 Q10.8 -50.0 11.85 -50.55 12.25 -50.6 12.3 -50.2 M24.35 -38.05 L24.4 -37.95 24.4 -37.9 24.2 -37.65 22.75 -37.55 22.7 -37.6 Q22.75 -38.1 23.35 -38.2 L23.6 -38.2 24.35 -38.05 M26.7 -34.95 L26.85 -35.2 27.0 -35.2 Q28.2 -34.7 28.1 -33.4 L28.05 -33.3 27.55 -33.35 Q27.45 -34.3 26.7 -34.85 L26.7 -34.95 M23.35 -30.1 L23.3 -30.2 23.3 -30.25 Q23.4 -30.45 23.6 -30.45 24.85 -30.4 25.55 -29.4 L25.55 -29.3 25.4 -29.2 25.05 -29.15 23.35 -30.1 M26.25 -24.9 L26.3 -24.8 26.3 -24.7 26.1 -24.45 Q24.8 -24.05 24.05 -24.7 24.5 -25.25 25.5 -25.05 L26.25 -24.9 M18.2 -37.9 L18.3 -38.15 18.5 -38.2 Q19.15 -37.95 19.1 -37.3 L19.1 -37.25 Q19.35 -36.65 19.25 -35.9 L19.2 -35.8 18.7 -35.85 Q18.45 -36.65 18.55 -37.3 L18.2 -37.85 18.2 -37.9 M0.25 -38.2 Q0.7 -37.5 0.25 -36.5 L0.2 -36.45 Q-0.1 -36.35 -0.2 -36.7 -0.4 -37.6 0.15 -38.15 L0.25 -38.2 M11.0 -33.65 L11.1 -33.7 11.4 -33.05 Q11.75 -32.6 10.85 -32.2 L10.75 -32.2 Q10.4 -32.25 10.45 -32.65 L10.55 -32.75 Q10.6 -33.25 11.0 -33.65 M15.0 -22.3 L14.95 -22.2 Q14.35 -21.85 14.2 -22.45 L14.3 -22.6 14.5 -22.7 Q15.1 -22.8 15.0 -22.3 M8.35 -22.95 L8.5 -22.95 8.65 -22.9 9.05 -22.45 9.05 -22.25 8.9 -22.0 8.75 -21.95 Q7.75 -22.45 8.35 -22.95 M5.5 -20.35 Q5.0 -20.3 5.05 -20.8 L5.6 -21.05 Q6.15 -20.75 5.6 -20.4 L5.5 -20.35 M-9.25 -47.9 L-9.15 -47.8 -9.0 -46.85 -9.05 -46.7 Q-9.4 -46.5 -9.7 -46.85 -9.9 -47.55 -9.6 -48.0 L-9.5 -48.05 -9.25 -47.9 M-15.25 -29.95 L-13.9 -29.95 -13.7 -29.9 -13.6 -29.85 -13.35 -29.55 -13.35 -29.45 Q-13.5 -29.1 -13.85 -29.25 L-15.15 -29.2 -15.15 -29.1 -15.2 -28.8 -15.4 -28.65 -15.5 -28.6 -15.8 -28.85 -15.8 -28.95 -15.6 -29.8 -15.25 -29.95 M-13.95 -30.35 Q-14.4 -29.95 -14.95 -30.0 L-15.05 -30.35 -15.0 -30.45 -14.15 -30.95 Q-13.7 -30.8 -13.95 -30.45 L-13.95 -30.35 M-20.45 -32.95 L-20.45 -32.9 -20.5 -32.8 -20.75 -32.6 -20.95 -32.65 -21.4 -32.8 Q-22.85 -32.25 -23.8 -32.8 -22.95 -33.35 -21.75 -33.45 -20.95 -33.55 -20.45 -32.95 M-25.45 -15.5 L-25.5 -15.4 Q-25.85 -15.25 -25.95 -15.6 -26.15 -16.5 -25.65 -16.95 -25.1 -16.4 -25.45 -15.5 M-6.75 -22.95 L-6.15 -22.8 -6.1 -22.7 -6.1 -22.65 -6.3 -22.4 -7.45 -22.45 -7.45 -22.55 -7.3 -22.8 -7.0 -22.9 -6.75 -22.95 M-9.45 -15.75 L-9.5 -15.65 Q-9.85 -15.5 -9.95 -15.85 -10.1 -16.35 -9.65 -16.45 -9.15 -16.25 -9.45 -15.75 M-17.0 -19.3 L-16.6 -18.95 -16.6 -18.9 -17.3 -18.85 Q-17.4 -19.15 -17.1 -19.25 L-17.0 -19.3 M-16.4 -16.95 Q-15.75 -16.45 -16.6 -16.45 L-16.7 -16.5 Q-16.8 -16.8 -16.55 -16.95 L-16.4 -16.95" fill="#cc0000" fill-rule="evenodd" stroke="none"/>
  </g>
</svg>
