<?xml version="1.0" encoding="UTF-8" standalone="no"?>
<svg xmlns:ffdec="https://www.free-decompiler.com/flash" xmlns:xlink="http://www.w3.org/1999/xlink" ffdec:objectType="shape" height="41.9px" width="55.9px" xmlns="http://www.w3.org/2000/svg">
  <g transform="matrix(1.0, 0.0, 0.0, 1.0, 26.8, 57.75)">
    <path d="M5.55 -57.45 L5.6 -57.4 5.65 -57.3 5.5 -57.0 Q4.9 -56.9 4.55 -57.35 L4.55 -57.45 4.55 -57.5 Q4.65 -57.7 4.85 -57.7 5.35 -57.85 5.55 -57.45 M12.55 -51.25 L12.55 -51.2 12.25 -51.0 11.95 -51.05 Q11.3 -50.6 10.7 -50.85 L10.7 -51.05 10.8 -51.3 11.75 -51.7 Q12.3 -51.75 12.55 -51.25 M24.75 -38.65 L24.8 -38.55 24.8 -38.45 24.6 -38.2 Q23.75 -37.9 23.55 -38.55 L23.55 -38.6 Q23.65 -38.8 23.85 -38.8 L24.75 -38.65 M28.6 -34.55 Q29.55 -33.6 28.7 -32.5 L28.6 -32.45 Q28.25 -32.5 28.3 -32.8 L28.5 -34.5 28.6 -34.55 M27.05 -24.8 L26.95 -24.7 25.55 -24.8 Q26.05 -25.3 26.85 -25.3 27.3 -25.15 27.05 -24.8 M26.65 -28.95 L26.6 -28.9 26.45 -28.75 26.15 -28.75 25.35 -29.65 25.3 -29.8 25.4 -29.95 25.6 -30.05 Q26.4 -29.8 26.65 -28.95 M17.65 -38.85 L17.85 -38.95 18.1 -38.95 18.25 -38.9 18.85 -38.25 18.85 -38.05 18.7 -37.9 18.4 -37.9 17.55 -38.6 17.55 -38.7 17.65 -38.85 M0.55 -38.45 L0.4 -38.35 0.25 -37.9 0.1 -37.7 Q-0.2 -37.6 -0.3 -37.95 L-0.25 -38.5 -0.15 -38.7 Q0.1 -39.0 0.5 -39.05 1.05 -38.8 0.55 -38.45 M11.8 -33.85 L11.8 -33.8 Q11.3 -33.25 10.7 -33.6 L10.7 -33.7 10.8 -33.95 11.25 -34.2 Q11.7 -34.3 11.8 -33.85 M14.65 -22.3 L14.55 -22.35 Q14.45 -22.65 14.7 -22.75 L14.85 -22.8 Q15.5 -22.3 14.65 -22.3 M9.05 -23.25 L8.65 -23.25 8.55 -23.35 Q8.15 -23.75 8.45 -24.1 L8.6 -24.2 Q9.25 -23.95 9.05 -23.3 L9.05 -23.25 M5.6 -20.7 Q4.65 -20.8 5.35 -21.3 5.95 -21.3 5.7 -20.8 L5.6 -20.7 M-9.5 -48.2 L-9.65 -48.1 Q-10.0 -48.15 -9.95 -48.45 L-9.75 -48.8 -9.7 -48.9 -9.4 -49.05 Q-8.8 -48.65 -9.5 -48.2 M-14.55 -31.5 L-14.25 -31.7 -13.65 -31.55 -13.6 -31.45 -13.6 -31.4 -13.8 -31.15 Q-14.45 -30.9 -14.55 -31.45 L-14.55 -31.5 M-17.3 -29.65 L-17.15 -29.7 -15.9 -31.05 Q-15.5 -30.3 -16.5 -29.4 L-16.35 -29.2 -16.35 -29.1 -16.85 -28.9 -16.9 -28.9 Q-17.2 -28.8 -17.3 -29.1 L-17.3 -29.15 -17.45 -29.45 -17.3 -29.65 M-22.15 -34.2 L-23.7 -33.8 -23.8 -33.85 -23.8 -33.95 -23.8 -34.1 -23.75 -34.2 -22.65 -34.8 -22.0 -34.65 -21.95 -34.55 -21.95 -34.45 -22.15 -34.2 M-26.4 -15.9 L-26.5 -15.85 Q-26.85 -15.9 -26.8 -16.3 L-26.4 -16.55 Q-25.85 -16.25 -26.4 -15.9 M-6.7 -23.45 L-6.7 -23.4 Q-6.7 -23.2 -6.9 -23.15 L-7.0 -23.1 Q-7.5 -23.1 -7.55 -23.55 L-7.4 -23.8 -7.25 -23.8 -6.7 -23.45 M-9.85 -16.2 L-9.95 -16.25 Q-10.05 -16.55 -9.8 -16.7 L-9.65 -16.7 Q-9.0 -16.2 -9.85 -16.2 M-16.7 -16.7 L-16.8 -16.75 Q-16.9 -17.05 -16.6 -17.2 L-16.5 -17.2 Q-15.85 -16.7 -16.7 -16.7 M-17.45 -19.2 L-17.55 -19.25 Q-17.65 -19.55 -17.35 -19.7 L-17.25 -19.7 Q-16.6 -19.2 -17.45 -19.2" fill="#cc0000" fill-rule="evenodd" stroke="none"/>
  </g>
</svg>
