<?xml version="1.0" encoding="UTF-8" standalone="no"?>
<svg xmlns:ffdec="https://www.free-decompiler.com/flash" xmlns:xlink="http://www.w3.org/1999/xlink" ffdec:objectType="shape" height="43.5px" width="57.65px" xmlns="http://www.w3.org/2000/svg">
  <g transform="matrix(1.0, 0.0, 0.0, 1.0, 27.3, 59.45)">
    <path d="M5.4 -59.4 L5.55 -59.3 5.75 -58.75 5.75 -58.55 5.5 -58.45 5.3 -58.5 Q4.7 -58.95 5.15 -59.4 L5.25 -59.45 5.4 -59.4 M11.25 -52.75 L11.35 -52.8 Q11.95 -52.9 12.3 -52.45 L12.3 -52.4 12.25 -52.3 12.1 -52.15 12.0 -52.1 Q11.35 -52.05 11.05 -52.45 L11.05 -52.55 11.05 -52.6 11.25 -52.75 M24.85 -39.3 Q25.35 -39.45 25.6 -39.05 L25.65 -38.95 25.65 -38.9 25.55 -38.7 25.45 -38.65 Q24.9 -38.55 24.55 -38.95 L24.55 -39.05 24.55 -39.1 24.85 -39.3 M29.85 -32.1 Q29.2 -32.9 30.1 -33.7 30.7 -33.0 29.95 -32.2 L29.85 -32.1 M27.3 -28.75 L27.2 -28.55 26.8 -28.5 26.7 -28.6 Q26.5 -29.3 26.75 -29.75 L26.85 -29.8 27.15 -29.65 27.25 -29.55 27.3 -28.75 M27.4 -25.1 L27.35 -25.05 Q27.05 -24.65 26.55 -24.8 L26.45 -24.85 Q26.35 -25.2 26.65 -25.4 L26.85 -25.45 Q27.3 -25.55 27.4 -25.1 M17.2 -39.05 L17.35 -39.3 17.5 -39.3 Q18.15 -39.25 18.4 -38.7 L18.4 -38.6 Q18.25 -38.25 17.9 -38.4 17.45 -38.6 17.2 -38.95 L17.2 -39.05 M0.65 -39.2 L0.6 -39.15 Q0.05 -38.6 -0.55 -38.85 L-0.55 -39.05 -0.45 -39.3 0.1 -39.55 Q0.55 -39.65 0.65 -39.2 M11.55 -34.6 L11.55 -34.55 Q11.25 -34.15 10.8 -34.25 10.5 -34.6 10.9 -34.9 L11.1 -34.95 11.55 -34.6 M15.05 -22.45 L14.95 -22.5 Q14.85 -22.8 15.15 -22.95 L15.25 -22.95 Q15.9 -22.45 15.05 -22.45 M9.15 -24.4 L8.45 -24.35 Q8.35 -24.65 8.65 -24.75 L8.75 -24.8 9.15 -24.45 9.15 -24.4 M5.25 -21.7 Q5.9 -21.2 5.05 -21.2 L4.95 -21.25 Q4.85 -21.55 5.15 -21.7 L5.25 -21.7 M-9.85 -49.0 L-10.0 -49.3 -9.95 -49.4 -9.5 -49.7 Q-8.85 -49.3 -9.7 -49.0 L-9.85 -49.0 M-14.2 -31.7 L-14.3 -31.75 Q-14.4 -32.05 -14.1 -32.2 L-14.0 -32.2 Q-13.35 -31.7 -14.2 -31.7 M-18.5 -31.05 Q-17.95 -30.6 -18.65 -30.0 L-18.75 -29.95 Q-19.1 -30.0 -19.05 -30.3 L-19.0 -30.65 -18.9 -30.85 -18.65 -31.05 -18.5 -31.05 M-18.2 -29.2 L-18.3 -29.25 Q-18.4 -29.55 -18.1 -29.7 L-18.0 -29.7 Q-17.35 -29.2 -18.2 -29.2 M-22.3 -35.15 L-23.25 -35.1 -23.3 -35.2 -23.3 -35.35 -22.9 -35.7 -22.15 -35.55 -22.1 -35.45 -22.1 -35.4 -22.3 -35.15 M-24.15 -35.4 L-24.0 -35.45 Q-23.5 -35.55 -23.45 -35.1 L-23.45 -35.05 -23.65 -34.9 -23.8 -34.8 -23.9 -34.65 -24.15 -34.45 Q-24.55 -34.5 -24.5 -34.9 L-24.45 -35.05 -24.15 -35.4 M-26.85 -16.0 L-27.0 -15.95 Q-27.45 -16.05 -27.25 -16.45 L-26.9 -16.7 Q-26.35 -16.45 -26.85 -16.0 M-7.0 -24.4 L-6.95 -24.3 -6.95 -24.2 -7.15 -23.95 Q-7.8 -23.7 -7.95 -24.3 L-7.95 -24.35 -7.65 -24.55 -7.0 -24.4 M-9.85 -16.45 L-9.95 -16.5 Q-10.05 -16.8 -9.8 -16.95 L-9.65 -16.95 Q-9.0 -16.45 -9.85 -16.45 M-16.95 -16.7 L-17.05 -16.75 Q-17.15 -17.05 -16.85 -17.2 L-16.75 -17.2 Q-16.1 -16.7 -16.95 -16.7 M-17.6 -19.45 L-17.7 -19.5 -17.55 -19.95 -17.4 -19.95 Q-16.75 -19.45 -17.6 -19.45" fill="#cc0000" fill-rule="evenodd" stroke="none"/>
  </g>
</svg>
