<?xml version="1.0" encoding="UTF-8" standalone="no"?>
<svg xmlns:ffdec="https://www.free-decompiler.com/flash" xmlns:xlink="http://www.w3.org/1999/xlink" ffdec:objectType="shape" height="43.85px" width="59.0px" xmlns="http://www.w3.org/2000/svg">
  <g transform="matrix(1.0, 0.0, 0.0, 1.0, 27.75, 60.3)">
    <path d="M5.3 -59.5 L5.15 -59.5 Q5.0 -59.65 5.0 -59.9 L5.05 -59.95 5.5 -60.3 Q6.1 -59.85 5.3 -59.5 M12.25 -53.05 L12.2 -52.95 Q11.6 -52.6 11.45 -53.2 L11.55 -53.35 11.75 -53.45 Q12.35 -53.55 12.25 -53.05 M25.95 -39.05 L25.85 -38.95 Q24.9 -39.05 25.6 -39.55 26.2 -39.55 25.95 -39.05 M27.8 -28.5 L27.8 -28.4 Q27.55 -28.0 27.15 -28.15 27.0 -28.25 27.0 -28.45 L27.05 -28.55 27.4 -29.25 27.5 -29.3 Q27.95 -29.05 27.8 -28.5 M27.05 -25.0 L26.9 -25.0 Q26.75 -25.1 26.75 -25.3 L26.8 -25.4 27.25 -25.7 Q27.9 -25.3 27.05 -25.0 M30.55 -32.95 L31.0 -33.2 Q31.45 -32.75 31.05 -32.6 L31.05 -32.55 Q30.75 -32.1 30.3 -32.15 30.0 -32.55 30.4 -32.9 L30.55 -32.95 M17.6 -38.9 Q16.65 -38.95 17.35 -39.45 17.95 -39.45 17.7 -38.95 L17.6 -38.9 M0.35 -39.55 L0.3 -39.45 -0.55 -39.35 -0.55 -39.6 -0.45 -39.7 0.0 -39.95 Q0.45 -39.95 0.35 -39.55 M8.85 -25.05 Q9.5 -24.55 8.65 -24.55 L8.55 -24.6 Q8.45 -24.9 8.7 -25.0 L8.85 -25.05 M11.25 -35.3 Q11.85 -35.0 11.2 -34.65 L11.1 -34.6 Q10.7 -34.65 10.8 -35.05 L11.25 -35.3 M4.8 -21.45 L4.7 -21.5 Q4.6 -21.8 4.9 -21.95 L5.0 -21.95 Q5.65 -21.45 4.8 -21.45 M-9.85 -49.7 L-9.95 -49.75 Q-10.05 -50.05 -9.8 -50.2 L-9.65 -50.2 Q-9.0 -49.7 -9.85 -49.7 M-14.1 -32.05 L-14.2 -32.1 Q-14.3 -32.4 -14.05 -32.5 L-13.9 -32.55 Q-13.25 -32.05 -14.1 -32.05 M-18.85 -29.3 L-18.95 -29.35 Q-19.05 -29.65 -18.8 -29.75 L-18.65 -29.8 Q-18.0 -29.3 -18.85 -29.3 M-20.15 -30.45 Q-20.8 -30.85 -20.15 -31.2 -19.6 -30.95 -20.05 -30.55 L-20.15 -30.45 M-7.5 -25.05 Q-6.85 -24.55 -7.7 -24.55 L-7.8 -24.6 Q-7.9 -24.9 -7.6 -25.0 L-7.5 -25.05 M-22.95 -36.6 L-22.95 -36.55 Q-23.35 -36.1 -23.85 -36.25 L-23.95 -36.45 -23.95 -36.65 -23.4 -36.95 Q-23.0 -37.0 -22.95 -36.6 M-24.8 -35.4 L-24.8 -35.55 -24.4 -35.8 Q-24.0 -35.85 -23.95 -35.45 L-23.95 -35.4 Q-24.2 -34.85 -24.7 -34.9 L-24.8 -35.4 M-27.6 -16.45 L-27.7 -16.5 -27.55 -16.95 -27.4 -16.95 Q-26.75 -16.45 -27.6 -16.45 M-17.85 -19.7 L-17.95 -19.75 -17.8 -20.2 -17.65 -20.2 Q-17.0 -19.7 -17.85 -19.7" fill="#cc0000" fill-rule="evenodd" stroke="none"/>
  </g>
</svg>
