<?xml version="1.0" encoding="UTF-8" standalone="no"?>
<svg xmlns:ffdec="https://www.free-decompiler.com/flash" xmlns:xlink="http://www.w3.org/1999/xlink" ffdec:objectType="shape" height="44.35px" width="59.25px" xmlns="http://www.w3.org/2000/svg">
  <g transform="matrix(1.0, 0.0, 0.0, 1.0, 27.85, 60.8)">
    <path d="M12.2 -53.55 L12.1 -53.45 Q11.15 -53.55 11.85 -54.05 12.45 -54.05 12.2 -53.55 M5.15 -60.3 L5.05 -60.35 Q4.95 -60.65 5.2 -60.75 L5.35 -60.8 Q6.0 -60.3 5.15 -60.3 M25.8 -39.2 L25.7 -39.25 Q25.6 -39.55 25.9 -39.7 L26.0 -39.7 Q26.65 -39.2 25.8 -39.2 M27.85 -28.0 L27.75 -27.95 Q27.35 -28.0 27.45 -28.4 27.5 -28.75 27.9 -28.95 L28.0 -28.95 Q28.55 -28.55 27.85 -28.0 M27.3 -25.35 Q27.2 -25.65 27.45 -25.75 L27.6 -25.8 Q28.25 -25.3 27.4 -25.3 L27.3 -25.35 M30.9 -31.95 L30.8 -32.0 Q30.7 -32.3 30.95 -32.45 L31.1 -32.45 Q31.75 -31.95 30.9 -31.95 M11.05 -35.05 L10.95 -35.1 Q10.85 -35.4 11.15 -35.5 L11.25 -35.55 Q11.9 -35.05 11.05 -35.05 M17.05 -39.05 L16.95 -39.1 Q16.85 -39.4 17.15 -39.5 L17.25 -39.55 Q17.9 -39.05 17.05 -39.05 M-9.85 -49.95 L-9.95 -50.0 Q-10.05 -50.3 -9.8 -50.45 L-9.65 -50.45 Q-9.0 -49.95 -9.85 -49.95 M-0.15 -39.7 Q-0.9 -39.95 -0.25 -40.3 0.4 -40.15 -0.05 -39.75 L-0.15 -39.7 M-14.1 -32.3 L-14.2 -32.35 Q-14.3 -32.65 -14.05 -32.75 L-13.9 -32.8 Q-13.25 -32.3 -14.1 -32.3 M-19.2 -29.3 L-19.3 -29.35 Q-19.4 -29.65 -19.1 -29.75 L-19.0 -29.8 Q-18.35 -29.3 -19.2 -29.3 M-7.85 -24.95 L-7.95 -25.0 -7.8 -25.45 -7.65 -25.45 Q-7.0 -24.95 -7.85 -24.95 M-23.9 -37.15 L-24.7 -37.1 -24.6 -37.45 -24.4 -37.55 Q-23.95 -37.65 -23.85 -37.2 L-23.9 -37.15 M-24.95 -35.3 L-25.05 -35.35 Q-25.15 -35.65 -24.85 -35.75 L-24.75 -35.8 Q-24.1 -35.3 -24.95 -35.3 M-21.45 -30.85 Q-21.55 -31.15 -21.3 -31.25 L-21.15 -31.3 Q-20.5 -30.8 -21.35 -30.8 L-21.45 -30.85 M-27.7 -16.45 L-27.8 -16.5 Q-27.9 -16.8 -27.6 -16.95 L-27.5 -16.95 Q-26.85 -16.45 -27.7 -16.45" fill="#cc0000" fill-rule="evenodd" stroke="none"/>
  </g>
</svg>
