<?xml version="1.0" encoding="UTF-8" standalone="no"?>
<svg xmlns:ffdec="https://www.free-decompiler.com/flash" xmlns:xlink="http://www.w3.org/1999/xlink" ffdec:objectType="shape" height="35.75px" width="57.3px" xmlns="http://www.w3.org/2000/svg">
  <g transform="matrix(1.0, 0.0, 0.0, 1.0, 25.5, 61.2)">
    <path d="M11.8 -53.95 L11.7 -54.0 Q11.6 -54.3 11.9 -54.45 L12.0 -54.45 Q12.65 -53.95 11.8 -53.95 M5.15 -60.7 L5.05 -60.75 Q4.95 -61.05 5.2 -61.2 L5.35 -61.2 Q6.0 -60.7 5.15 -60.7 M26.05 -39.2 L25.95 -39.25 Q25.85 -39.55 26.15 -39.7 L26.25 -39.7 Q26.9 -39.2 26.05 -39.2 M27.65 -25.45 L27.55 -25.5 Q27.45 -25.8 27.7 -25.95 L27.85 -25.95 Q28.5 -25.45 27.65 -25.45 M27.9 -28.05 L27.8 -28.1 Q27.7 -28.4 27.95 -28.5 L28.1 -28.55 Q28.75 -28.05 27.9 -28.05 M31.3 -32.2 L31.2 -32.25 Q31.1 -32.55 31.4 -32.7 L31.5 -32.7 Q32.15 -32.2 31.3 -32.2 M16.8 -39.05 L16.7 -39.1 Q16.6 -39.4 16.9 -39.5 L17.0 -39.55 Q17.65 -39.05 16.8 -39.05 M-19.35 -29.3 L-19.45 -29.35 Q-19.55 -29.65 -19.3 -29.75 L-19.15 -29.8 Q-18.5 -29.3 -19.35 -29.3 M-0.55 -40.3 L-0.15 -40.55 Q0.4 -40.25 -0.15 -39.9 L-0.25 -39.85 Q-0.6 -39.9 -0.55 -40.3 M-24.5 -37.8 Q-23.85 -37.3 -24.7 -37.3 L-24.8 -37.35 Q-24.9 -37.65 -24.6 -37.75 L-24.5 -37.8 M-25.35 -35.45 L-25.45 -35.5 -25.3 -35.95 -25.15 -35.95 Q-24.5 -35.45 -25.35 -35.45 M-21.7 -30.7 L-21.8 -30.75 Q-21.9 -31.05 -21.6 -31.2 L-21.5 -31.2 Q-20.85 -30.7 -21.7 -30.7" fill="#cc0000" fill-rule="evenodd" stroke="none"/>
  </g>
</svg>
