<?xml version="1.0" encoding="UTF-8" standalone="no"?>
<svg xmlns:ffdec="https://www.free-decompiler.com/flash" xmlns:xlink="http://www.w3.org/1999/xlink" ffdec:objectType="shape" height="26.65px" width="53.65px" xmlns="http://www.w3.org/2000/svg">
  <g transform="matrix(1.0, 0.0, 0.0, 1.0, 25.1, 54.7)">
    <path d="M11.9 -54.2 L11.8 -54.25 Q11.7 -54.55 11.95 -54.7 L12.1 -54.7 Q12.75 -54.2 11.9 -54.2 M28.05 -28.05 L27.95 -28.1 Q27.85 -28.4 28.15 -28.5 L28.25 -28.55 Q28.9 -28.05 28.05 -28.05 M16.65 -38.95 L16.55 -39.0 Q16.45 -39.3 16.7 -39.45 L16.85 -39.45 Q17.5 -38.95 16.65 -38.95 M-0.1 -40.7 L0.0 -40.7 Q0.65 -40.2 -0.2 -40.2 L-0.3 -40.25 Q-0.4 -40.55 -0.1 -40.7 M-24.95 -37.45 L-25.05 -37.5 Q-25.15 -37.8 -24.85 -37.95 L-24.75 -37.95 Q-24.1 -37.45 -24.95 -37.45 M-21.65 -31.05 Q-21.0 -30.55 -21.85 -30.55 L-21.95 -30.6 -21.8 -31.0 -21.65 -31.05" fill="#cc0000" fill-rule="evenodd" stroke="none"/>
  </g>
</svg>
