<?xml version="1.0" encoding="UTF-8" standalone="no"?>
<svg xmlns:ffdec="https://www.free-decompiler.com/flash" xmlns:xlink="http://www.w3.org/1999/xlink" ffdec:objectType="shape" height="17.1px" width="34.35px" xmlns="http://www.w3.org/2000/svg">
  <g transform="matrix(1.0, 0.0, 0.0, 1.0, 15.15, 24.2)">
    <path d="M12.1 -19.75 Q9.8 -19.35 7.9 -17.95 5.25 -16.0 3.25 -13.45 L3.85 -13.75 4.0 -13.8 4.8 -13.7 Q6.3 -14.75 8.15 -15.2 8.6 -14.35 6.7 -13.85 5.3 -13.5 4.3 -12.45 3.95 -12.15 3.55 -12.25 3.4 -12.35 3.4 -12.55 L3.45 -12.65 3.9 -13.05 3.0 -12.8 2.95 -11.8 2.95 -11.7 4.3 -11.45 4.2 -11.2 4.1 -11.15 2.45 -11.1 2.4 -12.15 2.35 -11.9 Q1.85 -11.7 1.6 -12.1 L1.7 -12.4 1.8 -12.45 1.7 -13.8 Q0.9 -13.05 -0.05 -12.55 L-0.3 -12.6 -0.3 -12.65 Q-0.85 -12.8 -1.2 -13.3 -1.7 -13.4 -2.0 -13.75 L-1.5 -12.9 Q-2.05 -12.9 -2.45 -13.25 L-2.65 -12.4 Q-2.9 -12.3 -3.0 -12.5 L-3.3 -12.5 -4.45 -13.4 -3.6 -12.55 -3.6 -12.45 -3.75 -12.4 -4.05 -12.4 Q-7.9 -15.6 -12.25 -17.9 L-12.15 -18.05 -12.0 -18.05 Q-9.35 -17.05 -7.1 -15.55 -4.75 -14.65 -3.0 -12.95 L-3.0 -13.95 -3.2 -14.5 Q-4.55 -18.2 -2.75 -21.3 -2.45 -20.45 -2.85 -19.15 L-3.0 -17.6 -2.85 -16.2 -2.35 -20.9 -2.25 -20.95 Q-1.75 -19.0 -1.95 -16.65 L-2.25 -14.25 -2.15 -14.0 -2.0 -14.2 -1.85 -14.2 Q-1.05 -14.1 -0.5 -13.45 -0.95 -18.55 0.3 -23.4 L0.4 -23.45 Q0.7 -22.4 0.5 -20.85 0.0 -17.15 0.2 -13.35 L1.65 -15.0 Q1.55 -19.7 2.9 -24.1 L3.0 -24.2 3.2 -22.55 Q3.6 -21.1 3.25 -19.45 L2.8 -16.6 Q3.05 -15.9 2.7 -15.15 L2.9 -14.1 Q6.95 -19.3 13.4 -20.95 13.8 -20.1 12.1 -19.75 M10.1 -7.7 L10.25 -7.75 10.35 -7.8 10.4 -7.95 10.45 -8.15 12.4 -10.75 12.5 -10.8 Q12.9 -10.2 12.2 -9.25 L11.0 -7.85 11.0 -7.75 18.9 -8.7 Q19.35 -8.55 19.1 -8.2 L19.0 -8.15 11.0 -7.6 11.0 -7.55 10.95 -7.4 9.95 -7.35 10.0 -7.65 10.1 -7.7 M-15.0 -11.05 Q-12.9 -10.1 -10.95 -8.85 L-13.4 -11.9 -13.25 -11.95 Q-10.9 -10.45 -9.85 -8.05 L-9.7 -7.95 -9.7 -7.9 -9.75 -7.8 -9.8 -7.7 -9.9 -7.65 -10.0 -7.6 Q-12.85 -9.15 -15.15 -11.05 L-15.0 -11.05" fill="#cc0000" fill-rule="evenodd" stroke="none"/>
  </g>
</svg>
