<?xml version="1.0" encoding="UTF-8" standalone="no"?>
<svg xmlns:ffdec="https://www.free-decompiler.com/flash" xmlns:xlink="http://www.w3.org/1999/xlink" ffdec:objectType="shape" height="25.7px" width="43.85px" xmlns="http://www.w3.org/2000/svg">
  <g transform="matrix(1.0, 0.0, 0.0, 1.0, 19.15, 33.8)">
    <path d="M3.7 -30.6 L3.95 -32.15 4.15 -32.3 Q4.5 -31.3 4.3 -29.9 L3.05 -22.5 Q2.65 -22.15 2.45 -22.6 L2.8 -24.7 2.6 -24.95 Q3.05 -29.25 3.1 -33.65 L3.25 -33.8 Q3.65 -32.3 3.7 -30.6 M12.9 -16.05 L12.95 -15.95 12.95 -15.9 12.75 -15.65 9.3 -15.0 9.2 -15.1 Q9.95 -16.05 11.4 -16.1 L11.9 -16.2 12.9 -16.05 M17.75 -21.95 Q20.8 -22.5 23.0 -20.85 L23.0 -20.8 20.5 -21.15 17.05 -21.4 Q14.8 -21.15 12.65 -20.4 L9.35 -19.5 9.35 -19.6 9.45 -19.9 Q12.05 -21.45 15.15 -21.7 L17.75 -21.95 M0.9 -22.25 Q0.55 -22.1 0.45 -22.45 L-0.45 -30.4 -0.35 -30.45 -0.2 -30.4 -0.05 -30.3 Q0.7 -26.45 0.95 -22.45 L0.9 -22.25 M0.5 -19.55 Q1.0 -18.4 0.4 -16.9 L0.1 -16.25 0.0 -16.15 Q-0.3 -16.05 -0.4 -16.35 -0.35 -18.05 0.4 -19.5 L0.5 -19.55 M2.75 -17.2 L3.0 -17.2 3.15 -17.15 Q4.5 -15.55 2.45 -14.25 L2.3 -14.25 2.25 -14.35 2.2 -14.55 2.2 -14.65 3.15 -16.05 3.15 -16.2 2.5 -16.8 2.45 -16.95 2.55 -17.1 2.75 -17.2 M14.15 -11.45 Q13.7 -11.4 13.7 -11.8 L15.4 -14.2 Q15.85 -12.8 14.25 -11.5 L14.15 -11.45 M24.65 -9.05 L24.7 -8.95 24.7 -8.9 Q24.7 -8.7 24.5 -8.65 L20.85 -8.1 Q20.55 -8.05 20.45 -8.35 20.9 -9.1 22.0 -9.05 L23.4 -9.2 24.65 -9.05 M-3.35 -25.55 L-2.45 -22.8 -2.4 -22.7 -2.1 -22.3 -2.05 -22.2 -2.0 -22.15 -0.85 -24.4 -0.75 -24.45 Q-0.3 -23.55 -1.1 -22.4 L-1.75 -21.15 -1.75 -19.7 -1.85 -19.5 Q-2.2 -19.35 -2.3 -19.7 L-2.25 -20.1 Q-2.6 -19.75 -3.05 -19.75 L-3.15 -20.05 -3.15 -20.15 -2.65 -20.7 -2.4 -21.3 -2.4 -21.4 Q-3.6 -23.2 -3.5 -25.4 L-3.35 -25.55 M-2.6 -19.05 Q-2.05 -18.25 -2.5 -17.15 L-2.55 -17.05 -3.05 -17.1 Q-3.1 -18.15 -2.7 -19.0 L-2.6 -19.05 M-8.8 -16.9 Q-8.8 -16.7 -9.0 -16.65 L-9.1 -16.6 Q-11.4 -17.2 -13.4 -18.7 -13.9 -19.05 -13.35 -19.2 -11.1 -17.9 -8.8 -16.95 L-8.8 -16.9 M-18.55 -14.55 L-18.55 -14.45 -18.35 -14.15 -18.3 -14.05 -18.3 -13.9 -18.3 -13.7 -15.8 -11.7 -16.0 -11.5 -16.1 -11.45 Q-18.2 -12.0 -18.9 -13.85 -19.4 -14.4 -18.95 -14.9 L-18.85 -14.95 Q-18.5 -14.9 -18.55 -14.55 M-17.5 -13.95 L-17.55 -14.05 -17.55 -14.1 -17.35 -14.25 -17.25 -14.3 Q-15.1 -14.05 -13.55 -12.45 L-13.55 -12.4 Q-14.75 -12.35 -16.1 -13.25 L-17.5 -13.95" fill="#cc0000" fill-rule="evenodd" stroke="none"/>
  </g>
</svg>
