<?xml version="1.0" encoding="UTF-8" standalone="no"?>
<svg xmlns:ffdec="https://www.free-decompiler.com/flash" xmlns:xlink="http://www.w3.org/1999/xlink" ffdec:objectType="shape" height="31.2px" width="50.1px" xmlns="http://www.w3.org/2000/svg">
  <g transform="matrix(1.0, 0.0, 0.0, 1.0, 21.65, 38.95)">
    <path d="M2.65 -38.8 Q4.35 -35.1 3.55 -30.9 L3.5 -30.9 Q3.2 -30.8 3.1 -31.1 3.25 -35.05 2.6 -38.75 L2.65 -38.8 M1.5 -29.7 L1.35 -29.65 1.05 -29.65 -1.65 -34.35 -1.8 -34.65 Q-2.2 -34.65 -2.3 -34.95 L-2.3 -35.05 -2.2 -35.2 -2.0 -35.3 -1.75 -35.3 -1.6 -35.25 Q0.15 -32.75 1.5 -29.95 L1.5 -29.7 M4.25 -30.45 Q3.8 -31.35 4.15 -32.65 5.0 -36.05 6.15 -38.95 6.55 -38.1 6.15 -36.8 L4.25 -30.45 M17.25 -21.55 L17.3 -21.45 17.3 -21.4 17.1 -21.15 11.85 -20.6 11.85 -20.7 Q13.3 -21.35 15.15 -21.45 L16.5 -21.7 17.25 -21.55 M14.85 -16.4 L15.0 -16.45 16.1 -16.45 16.15 -16.7 16.25 -16.8 16.7 -16.45 16.85 -16.4 16.95 -16.35 17.2 -16.05 17.2 -15.95 17.05 -15.85 17.05 -14.9 17.0 -14.9 Q16.8 -14.8 16.65 -15.0 L16.6 -15.1 16.6 -15.2 16.6 -15.3 16.6 -15.4 16.4 -15.65 Q15.6 -15.55 14.7 -16.15 L14.7 -16.25 14.85 -16.4 M0.75 -19.8 Q1.3 -19.1 0.1 -18.65 L-0.05 -18.65 -0.15 -18.95 -0.15 -19.05 0.65 -19.75 0.75 -19.8 M3.4 -18.95 L3.65 -18.95 3.8 -18.9 Q4.5 -18.35 4.3 -17.4 L4.1 -17.2 3.85 -17.3 3.7 -17.45 3.7 -17.7 3.7 -18.1 3.15 -18.55 3.1 -18.7 3.2 -18.85 3.4 -18.95 M25.45 -19.9 Q24.6 -19.75 23.55 -20.55 L22.7 -20.9 Q21.2 -21.05 20.2 -21.8 L20.3 -21.95 20.35 -22.0 20.5 -22.05 Q23.5 -22.05 25.45 -19.95 L25.45 -19.9 M28.45 -8.0 L28.45 -7.95 28.3 -7.8 27.95 -7.75 Q27.15 -8.65 25.9 -8.85 25.55 -8.9 25.6 -9.2 L25.6 -9.25 Q25.7 -9.45 25.9 -9.45 27.55 -9.35 28.45 -8.0 M-1.3 -24.9 L-1.35 -24.8 -1.7 -24.65 -2.1 -24.05 -2.25 -23.95 Q-2.6 -24.0 -2.55 -24.3 -1.95 -25.5 -0.85 -26.4 L-0.75 -26.45 Q-0.35 -25.8 -1.3 -24.9 M-3.3 -25.7 L-3.6 -24.65 Q-3.95 -24.5 -4.05 -24.85 -4.35 -26.9 -3.5 -28.45 -3.15 -27.3 -3.3 -25.7 M-21.0 -18.2 Q-20.35 -16.85 -20.35 -15.15 L-20.35 -15.1 -20.1 -15.2 -18.5 -15.2 -18.35 -15.15 -18.25 -15.05 -18.05 -14.7 -20.75 -14.3 -20.8 -14.2 -21.15 -13.45 -21.25 -13.4 -21.35 -13.35 Q-21.7 -13.4 -21.65 -13.7 L-21.65 -13.75 -21.4 -14.45 -21.4 -14.55 -21.3 -14.6 -20.7 -14.95 -20.8 -15.0 -21.0 -15.2 -21.05 -15.3 Q-21.3 -16.8 -21.05 -18.15 L-21.0 -18.2 M-2.45 -18.15 Q-2.8 -18.0 -2.9 -18.35 -3.1 -19.25 -2.5 -19.7 -2.0 -19.15 -2.4 -18.25 L-2.45 -18.15 M-11.95 -18.7 L-11.95 -18.65 -12.0 -18.55 -12.25 -18.35 -14.3 -19.05 -14.75 -19.3 -15.25 -19.3 -15.55 -19.35 -15.5 -19.75 -15.1 -19.95 Q-13.4 -19.7 -11.95 -18.7" fill="#cc0000" fill-rule="evenodd" stroke="none"/>
  </g>
</svg>
