<?xml version="1.0" encoding="UTF-8" standalone="no"?>
<svg xmlns:ffdec="https://www.free-decompiler.com/flash" xmlns:xlink="http://www.w3.org/1999/xlink" ffdec:objectType="shape" height="33.0px" width="54.85px" xmlns="http://www.w3.org/2000/svg">
  <g transform="matrix(1.0, 0.0, 0.0, 1.0, 23.65, 41.2)">
    <path d="M2.25 -41.2 L2.4 -41.15 2.5 -41.05 Q3.45 -38.9 3.35 -36.55 L3.25 -36.45 Q2.95 -36.35 2.85 -36.7 L2.2 -41.2 2.25 -41.2 M7.5 -40.55 Q7.8 -39.7 7.0 -38.45 L6.45 -37.8 5.9 -36.55 5.75 -36.45 Q5.4 -36.5 5.45 -36.8 L5.8 -37.85 5.85 -38.0 6.0 -38.2 6.1 -38.3 Q6.45 -39.55 7.4 -40.5 L7.5 -40.55 M1.45 -35.4 Q0.3 -35.4 -0.65 -36.65 -1.2 -37.35 -2.05 -37.3 L-2.4 -36.9 -3.1 -36.2 -3.25 -36.3 -3.4 -36.45 -3.4 -36.55 -2.95 -37.3 -2.1 -37.95 -0.8 -37.75 -0.65 -37.65 -0.35 -37.25 0.4 -36.7 0.95 -36.1 1.45 -35.4 M0.3 -28.95 L0.3 -28.9 0.2 -28.7 0.1 -28.65 Q-1.15 -28.3 -2.4 -27.55 L-2.65 -27.6 -2.65 -27.7 -2.65 -27.85 -2.55 -27.95 Q-1.6 -28.8 -0.45 -29.25 L-0.35 -29.3 Q0.05 -29.4 0.25 -29.05 L0.3 -28.95 M17.7 -21.45 L17.7 -21.4 Q17.7 -21.2 17.5 -21.15 15.9 -20.65 14.65 -21.15 L14.6 -21.2 14.6 -21.3 Q14.65 -21.65 15.0 -21.7 L17.55 -21.55 17.7 -21.45 M18.45 -17.1 Q17.8 -16.65 17.2 -17.35 L17.2 -17.45 17.3 -17.6 17.5 -17.7 Q18.15 -17.7 18.45 -17.2 L18.45 -17.1 M19.3 -16.1 L19.5 -16.2 Q20.2 -16.2 20.7 -15.7 L20.7 -15.65 20.6 -15.45 20.4 -15.35 Q19.75 -15.4 19.25 -15.8 L19.2 -15.95 19.3 -16.1 M1.4 -20.15 L1.35 -20.05 Q0.85 -19.6 0.2 -19.75 L0.1 -19.95 0.1 -20.15 1.0 -20.55 Q1.5 -20.6 1.4 -20.15 M4.4 -19.9 L4.45 -19.8 4.45 -19.7 4.25 -19.45 3.4 -19.55 3.35 -19.6 3.4 -19.9 3.75 -20.05 4.4 -19.9 M27.2 -19.8 L27.0 -19.7 26.7 -19.65 23.75 -22.25 23.9 -22.3 Q26.0 -21.6 27.2 -19.85 L27.2 -19.8 M30.25 -9.8 L30.4 -9.75 30.55 -9.65 31.15 -8.6 31.2 -8.45 Q31.05 -8.1 30.7 -8.25 L30.6 -8.35 Q29.75 -8.4 30.05 -9.4 L30.1 -9.4 30.25 -9.8 M-4.65 -28.35 Q-4.8 -30.45 -4.1 -32.05 -3.65 -30.35 -4.15 -28.25 L-4.2 -28.15 Q-4.55 -28.0 -4.65 -28.35 M-23.4 -19.55 L-22.5 -20.2 Q-21.95 -19.65 -22.85 -19.25 -22.55 -18.8 -22.85 -18.1 L-22.95 -18.0 Q-23.3 -17.85 -23.4 -18.2 -23.5 -18.8 -23.25 -19.15 L-23.3 -19.15 -23.4 -19.45 -23.4 -19.55 M-23.55 -15.05 L-23.55 -15.55 Q-23.1 -16.25 -22.35 -16.55 -21.9 -15.95 -22.8 -15.05 L-23.0 -14.45 -23.15 -13.8 -23.65 -13.85 -23.55 -15.05 M-2.5 -20.05 Q-2.0 -19.85 -2.3 -19.35 L-2.35 -19.25 Q-2.7 -19.1 -2.8 -19.45 -2.95 -19.95 -2.5 -20.05 M-14.0 -19.35 Q-15.95 -19.4 -17.4 -20.05 L-17.4 -20.1 -17.2 -20.25 -17.1 -20.3 Q-15.3 -20.3 -13.7 -19.7 L-13.7 -19.65 -13.75 -19.55 -13.9 -19.4 -14.0 -19.35" fill="#cc0000" fill-rule="evenodd" stroke="none"/>
  </g>
</svg>
