<?xml version="1.0" encoding="UTF-8" standalone="no"?>
<svg xmlns:ffdec="https://www.free-decompiler.com/flash" xmlns:xlink="http://www.w3.org/1999/xlink" ffdec:objectType="shape" height="35.6px" width="59.85px" xmlns="http://www.w3.org/2000/svg">
  <g transform="matrix(1.0, 0.0, 0.0, 1.0, 26.35, 43.3)">
    <path d="M0.85 -43.05 L1.0 -43.3 1.15 -43.3 Q3.0 -42.15 2.8 -40.0 L2.75 -39.95 Q2.55 -39.9 2.4 -40.1 L2.35 -40.2 1.75 -41.8 1.65 -42.15 0.9 -42.9 0.85 -43.05 M0.45 -39.95 L-0.75 -40.0 -1.4 -40.55 -2.7 -40.65 -3.05 -40.05 Q-3.25 -39.45 -3.8 -39.5 L-3.85 -39.6 -3.9 -39.8 -3.9 -39.9 -3.5 -40.65 Q-3.15 -41.2 -2.6 -41.3 -0.8 -41.3 0.45 -40.0 L0.45 -39.95 M9.25 -43.05 Q9.65 -42.35 8.6 -41.4 L7.7 -40.1 7.25 -39.7 Q6.9 -39.75 6.95 -40.05 7.5 -41.9 9.15 -43.0 L9.25 -43.05 M1.05 -29.95 L1.0 -29.85 Q0.8 -29.6 0.55 -29.75 L0.3 -29.95 -0.45 -30.65 Q-1.15 -30.45 -1.6 -30.9 L-1.65 -31.05 -1.65 -31.1 -1.35 -31.3 -0.35 -31.3 -0.2 -31.25 0.6 -30.7 1.05 -29.95 M16.6 -21.6 Q16.7 -21.8 16.9 -21.8 17.65 -22.05 18.15 -21.55 L18.2 -21.45 18.2 -21.4 18.1 -21.2 18.0 -21.15 Q17.15 -20.95 16.6 -21.45 L16.6 -21.55 16.6 -21.6 M19.2 -18.45 Q18.6 -17.9 18.2 -18.35 18.3 -18.85 18.9 -18.95 19.35 -18.95 19.25 -18.55 L19.2 -18.45 M0.85 -20.65 L0.75 -20.6 Q0.0 -20.85 0.65 -21.2 1.3 -21.05 0.85 -20.65 M4.0 -21.45 Q4.4 -21.5 4.45 -21.1 L4.45 -21.05 4.2 -20.85 4.1 -20.75 3.9 -20.45 3.75 -20.35 Q3.35 -20.45 3.4 -20.9 L3.45 -20.95 3.85 -21.4 4.0 -21.45 M28.65 -20.05 L28.6 -19.95 28.1 -20.0 27.95 -20.85 27.95 -21.15 Q27.35 -21.6 27.8 -22.0 L27.9 -22.05 Q28.85 -21.3 28.65 -20.05 M21.2 -15.7 L21.4 -15.8 21.65 -15.8 21.8 -15.75 22.15 -15.35 22.2 -15.2 21.9 -15.0 21.7 -15.0 21.15 -15.4 21.1 -15.55 21.2 -15.7 M33.35 -7.85 L33.3 -7.75 Q32.95 -7.6 32.85 -7.95 32.65 -8.85 33.15 -9.3 33.7 -8.75 33.35 -7.85 M-4.1 -35.2 Q-3.75 -34.55 -4.35 -33.5 L-4.8 -32.35 Q-5.0 -31.85 -5.45 -32.0 L-5.6 -32.3 -5.55 -32.4 Q-5.25 -33.95 -4.2 -35.15 L-4.1 -35.2 M-24.75 -20.0 L-24.85 -19.95 Q-25.3 -19.9 -25.3 -20.3 -24.95 -20.85 -24.35 -21.05 -23.75 -20.55 -24.75 -20.0 M-25.8 -16.1 L-25.85 -16.0 Q-26.2 -15.85 -26.3 -16.2 -26.5 -17.1 -25.85 -17.55 -25.35 -17.0 -25.8 -16.1 M-25.85 -15.65 L-25.75 -15.7 -25.1 -13.8 -25.15 -13.7 -25.7 -13.75 Q-26.35 -14.75 -25.85 -15.65 M-2.1 -20.55 Q-1.5 -20.1 -2.3 -19.75 L-2.45 -19.75 -2.6 -20.15 -2.55 -20.2 -2.1 -20.55 M-16.1 -20.3 L-16.05 -20.2 -16.05 -20.15 -16.25 -19.9 Q-17.55 -19.35 -17.9 -20.2 L-17.9 -20.25 -17.6 -20.45 -16.1 -20.3" fill="#cc0000" fill-rule="evenodd" stroke="none"/>
  </g>
</svg>
