<?xml version="1.0" encoding="UTF-8" standalone="no"?>
<svg xmlns:ffdec="https://www.free-decompiler.com/flash" xmlns:xlink="http://www.w3.org/1999/xlink" ffdec:objectType="shape" height="36.85px" width="63.5px" xmlns="http://www.w3.org/2000/svg">
  <g transform="matrix(1.0, 0.0, 0.0, 1.0, 27.95, 44.3)">
    <path d="M0.4 -43.7 Q1.35 -43.85 1.95 -43.2 L2.0 -43.15 2.05 -43.05 1.9 -42.75 Q0.8 -42.8 0.1 -43.45 L0.1 -43.5 Q0.2 -43.7 0.4 -43.7 M0.05 -41.9 L0.0 -41.8 -0.15 -41.65 -0.25 -41.6 Q-1.35 -41.45 -1.9 -42.05 L-1.9 -42.1 -1.7 -42.25 -1.6 -42.3 Q-0.65 -42.45 0.05 -41.95 L0.05 -41.9 M9.9 -43.3 Q10.45 -42.6 9.1 -42.1 8.6 -41.9 8.35 -42.35 8.75 -43.15 9.75 -43.3 L9.9 -43.3 M1.2 -32.2 L0.9 -31.95 0.7 -32.0 0.45 -32.45 0.4 -32.65 Q-0.5 -33.15 -0.2 -33.75 L-0.1 -33.8 Q1.0 -33.4 1.2 -32.3 L1.2 -32.2 M18.8 -21.7 L18.8 -21.65 18.6 -21.4 17.6 -21.45 Q17.6 -21.8 17.95 -21.9 L18.15 -21.95 18.75 -21.8 18.8 -21.7 M19.4 -19.35 L19.3 -19.25 Q18.95 -19.1 18.85 -19.45 18.7 -19.95 19.15 -20.05 19.65 -19.85 19.4 -19.35 M4.1 -21.8 L4.0 -21.7 Q3.35 -22.1 4.0 -22.45 4.55 -22.2 4.1 -21.8 M1.0 -20.9 L0.9 -20.85 Q0.55 -20.9 0.6 -21.3 L1.0 -21.55 Q1.55 -21.25 1.0 -20.9 M30.3 -20.4 L30.25 -20.3 Q30.05 -19.8 29.55 -19.9 29.4 -20.0 29.4 -20.2 L29.45 -20.3 29.5 -20.35 29.65 -20.45 Q29.55 -21.15 30.0 -21.45 30.45 -21.1 30.3 -20.4 M23.15 -14.85 Q22.05 -14.75 22.75 -15.45 23.3 -15.45 23.2 -14.95 L23.15 -14.85 M35.1 -7.5 L35.0 -7.45 Q34.65 -7.5 34.7 -7.8 34.8 -8.4 35.25 -8.7 35.9 -8.15 35.1 -7.5 M-3.8 -44.2 L-3.6 -44.3 Q-3.2 -44.4 -3.0 -44.05 L-2.95 -43.95 -2.95 -43.9 -3.05 -43.7 -3.15 -43.65 Q-3.65 -43.55 -3.9 -43.95 L-3.9 -44.05 -3.8 -44.2 M-3.3 -43.05 L-3.55 -42.85 -3.65 -42.75 Q-3.85 -42.2 -4.35 -42.0 L-4.55 -42.0 -4.65 -42.2 -4.65 -42.4 -4.4 -42.85 -4.3 -43.05 -3.75 -43.45 Q-3.35 -43.5 -3.3 -43.1 L-3.3 -43.05 M-4.8 -35.15 L-4.85 -35.05 Q-5.3 -34.65 -5.8 -34.75 L-5.9 -35.05 -5.9 -35.15 -4.75 -36.05 Q-4.2 -35.7 -4.8 -35.15 M-25.35 -21.4 L-25.4 -21.3 -26.3 -21.35 -26.3 -21.5 -26.15 -21.7 -25.75 -21.8 Q-25.25 -21.85 -25.35 -21.4 M-27.3 -16.3 Q-27.65 -16.05 -27.85 -16.45 -28.1 -17.05 -27.7 -17.5 L-27.6 -17.55 Q-27.15 -17.1 -27.25 -16.4 L-27.3 -16.3 M-27.6 -15.3 L-26.7 -14.05 -26.7 -13.95 Q-26.85 -13.6 -27.2 -13.75 -28.2 -14.6 -27.6 -15.3 M-2.0 -20.95 Q-1.45 -20.7 -1.95 -20.25 L-2.1 -20.2 Q-2.55 -20.3 -2.35 -20.7 L-2.0 -20.95 M-17.9 -19.8 L-17.95 -19.7 -18.25 -19.45 -18.55 -19.7 -18.55 -20.05 -18.1 -20.45 -17.75 -20.55 -17.1 -20.4 -17.05 -20.3 -17.05 -20.2 -17.25 -19.95 -17.75 -19.85 -17.9 -19.8" fill="#cc0000" fill-rule="evenodd" stroke="none"/>
  </g>
</svg>
