<?xml version="1.0" encoding="UTF-8" standalone="no"?>
<svg xmlns:ffdec="https://www.free-decompiler.com/flash" xmlns:xlink="http://www.w3.org/1999/xlink" ffdec:objectType="shape" height="37.4px" width="65.85px" xmlns="http://www.w3.org/2000/svg">
  <g transform="matrix(1.0, 0.0, 0.0, 1.0, 28.7, 45.05)">
    <path d="M10.95 -43.6 L10.95 -43.55 Q10.25 -42.95 9.45 -43.3 L9.45 -43.35 9.45 -43.5 9.6 -43.7 10.4 -43.95 Q10.85 -44.05 10.95 -43.6 M0.15 -43.95 L-0.05 -43.9 Q0.0 -43.65 -0.2 -43.5 L-0.3 -43.4 Q-0.7 -43.25 -0.8 -43.6 L-0.65 -44.15 -0.6 -44.25 Q-0.15 -44.7 0.5 -44.8 1.15 -44.3 0.15 -43.95 M0.45 -33.75 L0.4 -33.65 Q0.05 -33.5 -0.05 -33.85 -0.3 -35.2 0.25 -36.05 0.8 -35.1 0.45 -33.75 M18.4 -21.95 L19.0 -21.8 19.05 -21.7 19.05 -21.65 18.85 -21.4 Q18.2 -21.15 18.1 -21.7 L18.1 -21.75 Q18.2 -21.95 18.4 -21.95 M19.3 -20.3 L19.2 -20.35 Q19.1 -20.65 19.35 -20.75 L19.5 -20.8 Q20.15 -20.3 19.3 -20.3 M4.05 -22.3 L3.9 -22.2 Q3.25 -22.6 3.9 -22.95 4.45 -22.7 4.05 -22.3 M0.95 -21.2 L0.85 -21.25 Q0.75 -21.55 1.05 -21.7 L1.15 -21.7 Q1.8 -21.2 0.95 -21.2 M30.8 -20.0 Q30.65 -20.1 30.65 -20.3 L30.7 -20.4 31.15 -20.9 31.25 -20.95 Q31.95 -20.4 30.95 -20.0 L30.8 -20.0 M23.45 -14.8 L23.35 -14.85 Q23.25 -15.15 23.55 -15.25 L23.65 -15.3 Q24.3 -14.8 23.45 -14.8 M36.6 -7.65 L36.45 -7.65 36.35 -7.95 36.35 -8.05 Q36.6 -8.35 36.9 -8.45 37.55 -8.0 36.6 -7.65 M-4.0 -44.95 Q-3.35 -44.45 -4.2 -44.45 L-4.3 -44.5 -4.15 -44.95 -4.0 -44.95 M-5.1 -44.65 L-5.15 -44.55 Q-5.55 -44.2 -6.05 -44.25 L-6.15 -44.55 -6.1 -44.7 -5.5 -45.05 Q-5.0 -45.1 -5.1 -44.65 M-5.85 -37.2 L-5.5 -37.3 -4.85 -37.15 -4.8 -37.05 -4.8 -36.95 -5.0 -36.7 Q-5.7 -36.4 -6.15 -36.85 L-6.15 -36.95 -6.0 -37.2 -5.85 -37.2 M-0.45 -42.95 L-0.45 -42.9 -0.65 -42.65 -0.75 -42.6 -0.9 -42.45 -1.4 -42.4 Q-1.95 -42.4 -2.3 -42.8 L-2.2 -42.9 -1.5 -43.2 -0.5 -43.05 -0.45 -42.95 M-26.15 -21.8 L-26.25 -21.7 Q-27.2 -21.8 -26.5 -22.3 -25.9 -22.3 -26.15 -21.8 M-28.35 -17.45 Q-27.8 -17.1 -28.0 -16.4 L-28.05 -16.3 -28.55 -16.35 Q-28.85 -16.95 -28.45 -17.4 L-28.35 -17.45 M-28.2 -13.9 L-28.65 -14.6 -28.65 -14.65 -28.55 -14.9 -28.35 -14.95 Q-27.7 -14.7 -27.75 -14.05 L-27.75 -13.95 Q-27.85 -13.85 -28.0 -13.85 L-28.2 -13.9 M-1.85 -21.05 Q-1.2 -20.55 -2.05 -20.55 L-2.15 -20.6 Q-2.25 -20.9 -1.95 -21.0 L-1.85 -21.05 M-18.1 -20.7 Q-17.7 -20.6 -17.8 -20.2 L-17.85 -20.1 -17.95 -20.0 -18.05 -19.9 -18.15 -19.55 -18.25 -19.45 Q-18.55 -19.35 -18.65 -19.7 -18.75 -20.35 -18.2 -20.65 L-18.1 -20.7" fill="#cc0000" fill-rule="evenodd" stroke="none"/>
  </g>
</svg>
