<?xml version="1.0" encoding="UTF-8" standalone="no"?>
<svg xmlns:ffdec="https://www.free-decompiler.com/flash" xmlns:xlink="http://www.w3.org/1999/xlink" ffdec:objectType="shape" height="38.35px" width="67.85px" xmlns="http://www.w3.org/2000/svg">
  <g transform="matrix(1.0, 0.0, 0.0, 1.0, 29.4, 46.3)">
    <path d="M10.75 -44.45 Q11.35 -44.55 11.25 -44.05 L11.2 -43.95 Q10.6 -43.6 10.45 -44.2 L10.55 -44.35 10.75 -44.45 M0.15 -36.35 Q-0.2 -36.4 -0.15 -36.7 0.05 -37.4 0.65 -37.7 1.2 -37.1 0.25 -36.4 L0.15 -36.35 M18.8 -21.95 L18.9 -21.95 Q19.55 -21.45 18.7 -21.45 L18.6 -21.5 Q18.5 -21.8 18.8 -21.95 M19.9 -21.3 Q20.55 -20.8 19.7 -20.8 L19.6 -20.85 Q19.5 -21.15 19.8 -21.25 L19.9 -21.3 M4.1 -22.75 L4.0 -22.7 Q3.25 -22.95 3.9 -23.3 4.55 -23.15 4.1 -22.75 M31.9 -20.8 Q32.5 -20.5 31.85 -20.15 L31.75 -20.1 Q31.35 -20.15 31.45 -20.55 L31.9 -20.8 M23.95 -14.7 L23.85 -14.75 Q23.75 -15.05 24.05 -15.2 L24.15 -15.2 Q24.8 -14.7 23.95 -14.7 M38.15 -8.45 Q38.8 -7.95 37.95 -7.95 L37.85 -8.0 Q37.75 -8.3 38.05 -8.45 L38.15 -8.45 M-4.5 -45.45 Q-3.85 -44.95 -4.7 -44.95 L-4.8 -45.0 -4.65 -45.45 -4.5 -45.45 M-2.0 -43.95 L-1.35 -43.8 -1.3 -43.7 -1.3 -43.65 Q-1.3 -43.45 -1.5 -43.4 L-2.65 -43.45 -2.3 -43.9 -2.0 -43.95 M-1.15 -43.95 Q-1.15 -44.85 -0.35 -45.3 0.1 -44.7 -0.6 -43.85 L-0.7 -43.75 Q-1.05 -43.6 -1.15 -43.95 M-6.7 -45.95 L-6.75 -45.9 Q-7.15 -45.45 -7.6 -45.75 L-7.65 -45.85 -7.5 -46.2 -7.25 -46.3 Q-6.8 -46.4 -6.7 -45.95 M-5.5 -38.55 L-5.45 -38.45 -5.45 -38.4 -5.65 -38.15 Q-6.3 -37.9 -6.4 -38.45 L-6.4 -38.5 -6.1 -38.7 -5.5 -38.55 M-26.4 -22.05 L-26.5 -21.95 Q-27.45 -22.05 -26.75 -22.55 -26.15 -22.55 -26.4 -22.05 M-28.85 -17.45 Q-28.35 -17.15 -28.55 -16.55 L-28.55 -16.5 Q-28.9 -16.35 -29.1 -16.7 -29.3 -17.15 -28.95 -17.4 L-28.85 -17.45 M-28.55 -14.2 L-28.55 -14.1 Q-28.7 -13.75 -29.05 -13.9 L-29.4 -14.4 -29.4 -14.45 -29.1 -14.7 -28.55 -14.2 M-18.25 -19.8 L-18.2 -19.7 -18.2 -19.3 -18.4 -19.15 Q-18.7 -19.05 -18.8 -19.35 -19.15 -19.8 -18.9 -20.2 L-18.75 -20.3 -18.25 -19.8" fill="#cc0000" fill-rule="evenodd" stroke="none"/>
  </g>
</svg>
