<?xml version="1.0" encoding="UTF-8" standalone="no"?>
<svg xmlns:ffdec="https://www.free-decompiler.com/flash" xmlns:xlink="http://www.w3.org/1999/xlink" ffdec:objectType="shape" height="38.6px" width="68.7px" xmlns="http://www.w3.org/2000/svg">
  <g transform="matrix(1.0, 0.0, 0.0, 1.0, 29.65, 46.55)">
    <path d="M11.15 -44.8 Q11.75 -44.9 11.65 -44.4 L11.6 -44.3 Q11.0 -43.95 10.85 -44.55 L10.95 -44.7 11.15 -44.8 M0.05 -37.5 L-0.1 -37.8 -0.05 -37.9 0.55 -38.5 0.65 -38.55 Q1.3 -37.9 0.2 -37.5 L0.05 -37.5 M19.15 -21.95 Q19.8 -21.45 18.95 -21.45 L18.85 -21.5 Q18.75 -21.8 19.05 -21.95 L19.15 -21.95 M20.1 -21.45 L20.25 -21.45 Q20.9 -20.95 20.05 -20.95 L19.95 -21.0 Q19.85 -21.3 20.1 -21.45 M3.95 -23.2 L3.85 -23.25 Q3.75 -23.55 4.05 -23.7 L4.15 -23.7 Q4.8 -23.2 3.95 -23.2 M32.4 -20.8 Q33.05 -20.3 32.2 -20.3 L32.1 -20.35 Q32.0 -20.65 32.3 -20.75 L32.4 -20.8 M24.3 -14.45 L24.2 -14.5 Q24.1 -14.8 24.35 -14.95 L24.5 -14.95 Q25.15 -14.45 24.3 -14.45 M38.75 -8.45 Q39.4 -7.95 38.55 -7.95 L38.45 -8.0 Q38.35 -8.3 38.6 -8.45 L38.75 -8.45 M-2.8 -43.95 L-2.8 -44.05 -2.65 -44.3 -2.35 -44.4 -2.1 -44.45 -1.5 -44.3 -1.45 -44.2 -1.45 -44.15 -1.65 -43.9 Q-1.85 -43.75 -2.05 -43.7 L-2.15 -43.65 -2.25 -43.6 -2.6 -43.8 -2.8 -43.95 M-4.85 -45.8 Q-4.2 -45.3 -5.05 -45.3 L-5.15 -45.35 Q-5.25 -45.65 -4.95 -45.75 L-4.85 -45.8 M-1.15 -44.2 Q-1.45 -44.1 -1.55 -44.45 -1.7 -44.9 -1.35 -45.15 L-1.25 -45.2 Q-0.7 -44.85 -1.1 -44.25 L-1.15 -44.2 M-7.85 -46.55 Q-7.2 -46.4 -7.65 -46.0 L-7.75 -45.95 Q-8.5 -46.2 -7.85 -46.55 M-5.75 -39.3 L-5.8 -39.2 Q-6.4 -38.85 -6.55 -39.45 L-6.45 -39.6 -6.25 -39.7 Q-5.65 -39.8 -5.75 -39.3 M-26.8 -22.2 L-26.9 -22.25 Q-27.0 -22.55 -26.7 -22.7 L-26.6 -22.7 Q-25.95 -22.2 -26.8 -22.2 M-29.15 -14.15 L-29.25 -14.1 Q-30.0 -14.35 -29.35 -14.7 -28.7 -14.55 -29.15 -14.15 M-29.45 -16.7 L-29.55 -16.75 -29.4 -17.2 -29.25 -17.2 Q-28.6 -16.7 -29.45 -16.7 M-18.2 -19.45 L-18.2 -19.4 -18.3 -19.2 -18.5 -19.1 Q-19.7 -19.35 -19.0 -19.95 L-18.2 -19.45" fill="#cc0000" fill-rule="evenodd" stroke="none"/>
  </g>
</svg>
