<?xml version="1.0" encoding="UTF-8" standalone="no"?>
<svg xmlns:ffdec="https://www.free-decompiler.com/flash" xmlns:xlink="http://www.w3.org/1999/xlink" ffdec:objectType="shape" height="38.75px" width="69.65px" xmlns="http://www.w3.org/2000/svg">
  <g transform="matrix(1.0, 0.0, 0.0, 1.0, 29.95, 46.7)">
    <path d="M11.75 -45.2 Q12.4 -44.7 11.55 -44.7 L11.45 -44.75 Q11.35 -45.05 11.6 -45.2 L11.75 -45.2 M0.5 -39.05 Q1.05 -38.75 0.5 -38.4 L0.4 -38.35 Q0.05 -38.4 0.1 -38.8 L0.5 -39.05 M3.8 -23.45 L3.7 -23.5 Q3.6 -23.8 3.85 -23.95 L4.0 -23.95 Q4.65 -23.45 3.8 -23.45 M39.2 -7.95 L39.1 -8.0 Q39.0 -8.3 39.3 -8.45 L39.4 -8.45 Q40.05 -7.95 39.2 -7.95 M32.55 -20.3 L32.45 -20.35 Q32.35 -20.65 32.6 -20.75 L32.75 -20.8 Q33.4 -20.3 32.55 -20.3 M-1.75 -45.05 Q-1.45 -45.1 -1.25 -44.8 L-1.2 -44.7 -1.25 -44.55 -1.4 -44.4 Q-1.95 -44.3 -2.05 -44.8 L-1.9 -45.05 -1.75 -45.05 M-2.25 -44.15 Q-3.2 -44.2 -2.5 -44.7 -1.9 -44.7 -2.15 -44.2 L-2.25 -44.15 M-8.55 -46.2 L-8.65 -46.25 Q-8.75 -46.55 -8.45 -46.7 L-8.35 -46.7 Q-7.7 -46.2 -8.55 -46.2 M-6.15 -40.0 L-6.25 -39.95 Q-7.0 -40.2 -6.35 -40.55 -5.7 -40.4 -6.15 -40.0 M-29.8 -14.2 L-29.9 -14.25 Q-30.0 -14.55 -29.7 -14.7 L-29.6 -14.7 Q-28.95 -14.2 -29.8 -14.2 M-18.5 -19.3 L-18.55 -19.2 Q-19.15 -18.85 -19.3 -19.45 L-19.2 -19.6 -19.0 -19.7 Q-18.4 -19.8 -18.5 -19.3" fill="#cc0000" fill-rule="evenodd" stroke="none"/>
  </g>
</svg>
