<?xml version="1.0" encoding="UTF-8" standalone="no"?>
<svg xmlns:ffdec="https://www.free-decompiler.com/flash" xmlns:xlink="http://www.w3.org/1999/xlink" ffdec:objectType="shape" height="26.2px" width="31.75px" xmlns="http://www.w3.org/2000/svg">
  <g transform="matrix(1.0, 0.0, 0.0, 1.0, 19.2, 45.2)">
    <path d="M0.2 -38.95 L0.1 -39.0 Q0.0 -39.3 0.3 -39.45 L0.4 -39.45 Q1.05 -38.95 0.2 -38.95 M12.05 -44.7 L11.95 -44.75 Q11.85 -45.05 12.1 -45.2 L12.25 -45.2 Q12.9 -44.7 12.05 -44.7 M-2.9 -44.5 Q-3.0 -44.8 -2.7 -44.95 L-2.6 -44.95 -2.4 -44.75 -2.2 -44.95 -2.1 -44.95 Q-1.45 -44.45 -2.3 -44.45 L-2.4 -44.5 -2.8 -44.45 -2.9 -44.5 M-6.45 -40.3 L-6.55 -40.35 Q-6.65 -40.65 -6.4 -40.75 L-6.25 -40.8 Q-5.6 -40.3 -6.45 -40.3 M-18.3 -19.35 L-18.3 -19.3 Q-18.6 -18.9 -19.05 -19.0 -19.35 -19.35 -18.95 -19.65 L-18.75 -19.7 Q-18.35 -19.75 -18.3 -19.35" fill="#cc0000" fill-rule="evenodd" stroke="none"/>
  </g>
</svg>
