<?xml version="1.0" encoding="UTF-8" standalone="no"?>
<svg xmlns:ffdec="https://www.free-decompiler.com/flash" xmlns:xlink="http://www.w3.org/1999/xlink" ffdec:objectType="shape" height="9.0px" width="9.45px" xmlns="http://www.w3.org/2000/svg">
  <g transform="matrix(1.0, 0.0, 0.0, 1.0, 3.65, 21.55)">
    <path d="M5.7 -19.3 L5.7 -19.2 Q2.95 -16.75 1.9 -13.4 L1.9 -13.35 1.95 -13.2 1.75 -12.95 1.7 -12.85 1.6 -12.65 1.1 -12.7 1.2 -13.05 1.1 -12.95 1.0 -12.9 -0.5 -13.0 -0.65 -12.9 -0.75 -12.85 Q-1.25 -12.95 -1.55 -13.35 -2.0 -12.6 -3.1 -12.7 -3.85 -13.15 -3.55 -13.95 -3.15 -14.2 -3.0 -13.7 L-2.15 -13.65 -1.45 -17.0 Q-1.75 -19.25 -2.4 -21.45 L-2.25 -21.55 Q-0.35 -18.0 -0.75 -13.65 L-0.35 -13.6 0.0 -14.45 0.35 -13.6 0.7 -13.6 Q0.4 -14.05 0.75 -14.45 L0.9 -14.4 0.95 -14.35 1.2 -16.55 1.25 -16.55 Q1.75 -15.7 1.75 -14.8 2.9 -17.6 5.4 -19.75 L5.5 -19.8 Q5.95 -19.65 5.7 -19.3" fill="#cc0000" fill-rule="evenodd" stroke="none"/>
  </g>
</svg>
