<?xml version="1.0" encoding="UTF-8" standalone="no"?>
<svg xmlns:ffdec="https://www.free-decompiler.com/flash" xmlns:xlink="http://www.w3.org/1999/xlink" ffdec:objectType="shape" height="12.35px" width="13.05px" xmlns="http://www.w3.org/2000/svg">
  <g transform="matrix(1.0, 0.0, 0.0, 1.0, 4.0, 25.45)">
    <path d="M8.2 -21.75 L6.1 -19.9 Q5.05 -18.65 3.7 -18.0 L3.6 -18.3 3.6 -18.4 Q6.1 -21.05 8.9 -23.3 9.35 -22.6 8.2 -21.75 M1.75 -17.45 Q2.1 -16.55 1.7 -15.25 L1.65 -15.15 Q1.3 -15.0 1.2 -15.35 0.95 -16.65 1.75 -17.45 M0.2 -13.8 L-0.3 -13.85 -0.35 -14.6 -0.3 -14.8 0.15 -15.05 Q0.6 -14.65 0.25 -13.9 L0.2 -13.8 M-2.25 -25.45 Q-1.35 -23.25 -1.1 -20.8 -0.65 -19.65 -0.55 -18.4 L-0.55 -18.2 -0.9 -17.75 -1.0 -17.7 Q-1.35 -17.75 -1.3 -18.05 -1.5 -20.6 -2.85 -23.1 -3.4 -24.15 -2.75 -24.8 L-2.5 -24.05 -2.35 -25.35 -2.25 -25.45 M-0.5 -16.45 Q0.05 -15.85 -1.0 -15.15 L-1.05 -15.1 Q-0.8 -14.25 -1.0 -13.4 L-1.35 -13.1 Q-1.7 -13.15 -1.65 -13.45 -1.45 -14.2 -1.65 -14.95 L-1.65 -15.4 -0.6 -16.4 -0.5 -16.45 M-3.05 -14.2 L-3.05 -14.1 Q-3.2 -13.75 -3.55 -13.9 -4.35 -14.8 -3.75 -15.45 -3.15 -15.0 -3.05 -14.2" fill="#cc0000" fill-rule="evenodd" stroke="none"/>
  </g>
</svg>
