<?xml version="1.0" encoding="UTF-8" standalone="no"?>
<svg xmlns:ffdec="https://www.free-decompiler.com/flash" xmlns:xlink="http://www.w3.org/1999/xlink" ffdec:objectType="shape" height="13.5px" width="17.45px" xmlns="http://www.w3.org/2000/svg">
  <g transform="matrix(1.0, 0.0, 0.0, 1.0, 4.65, 28.2)">
    <path d="M12.75 -24.5 L12.8 -24.4 12.8 -24.3 12.6 -24.05 Q9.6 -23.25 6.95 -21.85 L6.85 -22.05 6.9 -22.3 Q9.25 -23.85 12.0 -24.65 L12.15 -24.65 12.75 -24.5 M2.0 -18.55 Q2.55 -17.8 1.65 -16.95 L1.5 -16.85 Q1.15 -16.9 1.2 -17.2 1.4 -18.05 2.0 -18.55 M0.45 -15.1 Q0.25 -14.6 -0.2 -14.75 L-0.35 -15.05 -0.3 -15.15 0.05 -15.65 0.15 -15.7 Q0.55 -15.6 0.45 -15.2 L0.45 -15.1 M-2.75 -28.2 Q-2.5 -27.45 -2.55 -26.3 -2.55 -24.95 -2.15 -23.7 -1.95 -25.05 -2.05 -26.5 L-2.05 -26.8 -1.35 -27.5 -1.25 -27.55 Q-0.65 -27.2 -1.3 -26.75 L-1.4 -26.65 -1.55 -23.45 -1.55 -23.1 -1.8 -22.8 -1.75 -22.65 Q-1.6 -22.35 -1.75 -22.05 L-2.3 -22.1 Q-3.55 -24.6 -3.35 -27.45 L-3.3 -27.65 -2.85 -28.15 -2.75 -28.2 M-0.5 -17.55 Q0.1 -17.15 -0.65 -16.65 L-0.75 -16.55 -0.9 -15.45 -1.1 -15.15 Q-1.45 -15.0 -1.55 -15.35 L-1.5 -16.4 -1.4 -16.75 -0.5 -17.55 M-4.35 -16.3 L-4.0 -16.3 -3.8 -16.25 -3.4 -15.85 -3.3 -15.6 -3.45 -15.45 -3.8 -15.4 -3.95 -15.5 -4.05 -15.65 Q-4.4 -15.65 -4.6 -15.85 L-4.65 -16.05 -4.65 -16.1 -4.45 -16.25 -4.35 -16.3" fill="#cc0000" fill-rule="evenodd" stroke="none"/>
  </g>
</svg>
