<?xml version="1.0" encoding="UTF-8" standalone="no"?>
<svg xmlns:ffdec="https://www.free-decompiler.com/flash" xmlns:xlink="http://www.w3.org/1999/xlink" ffdec:objectType="shape" height="14.1px" width="19.85px" xmlns="http://www.w3.org/2000/svg">
  <g transform="matrix(1.0, 0.0, 0.0, 1.0, 4.65, 29.45)">
    <path d="M15.0 -25.05 Q12.9 -25.45 11.15 -24.4 L10.55 -24.35 10.5 -24.45 Q10.4 -24.6 10.45 -24.75 L10.5 -24.8 Q11.05 -25.25 11.7 -25.5 L11.9 -25.55 12.4 -25.65 15.05 -25.5 15.2 -25.4 15.2 -25.3 15.0 -25.05 M0.15 -28.95 Q0.55 -28.2 -0.65 -27.4 L-0.8 -27.15 -0.9 -27.05 -1.0 -26.95 Q-1.35 -26.3 -1.25 -25.55 -1.2 -25.15 -1.5 -24.95 -1.8 -24.85 -1.9 -25.2 -2.15 -27.65 0.0 -28.85 L0.15 -28.95 M2.0 -19.3 L2.45 -18.95 2.45 -18.9 2.25 -18.75 2.1 -18.65 1.75 -18.25 1.65 -18.2 Q1.3 -18.25 1.35 -18.55 L1.35 -18.65 1.85 -19.25 2.0 -19.3 M0.5 -15.6 L0.45 -15.5 Q0.05 -15.15 -0.15 -15.6 -0.2 -16.15 0.25 -16.3 0.75 -16.1 0.5 -15.6 M-2.35 -29.4 L-2.25 -29.3 -2.05 -29.15 -2.35 -26.15 Q-2.4 -25.75 -2.75 -25.6 L-2.95 -25.65 -3.05 -25.95 -2.7 -27.9 -2.65 -28.65 Q-2.75 -28.95 -3.3 -29.0 L-3.4 -29.2 -3.4 -29.25 -3.1 -29.45 -2.5 -29.45 -2.35 -29.4 M-0.05 -18.6 L-0.05 -18.55 -1.15 -17.2 -1.25 -17.1 -1.55 -17.35 -1.55 -17.45 -0.75 -18.85 -0.5 -18.95 Q-0.1 -19.0 -0.05 -18.6 M-3.75 -16.9 L-3.7 -16.8 -3.7 -16.7 -3.9 -16.45 Q-4.55 -16.25 -4.65 -16.8 L-4.65 -16.85 -4.35 -17.05 -3.75 -16.9" fill="#cc0000" fill-rule="evenodd" stroke="none"/>
  </g>
</svg>
