<?xml version="1.0" encoding="UTF-8" standalone="no"?>
<svg xmlns:ffdec="https://www.free-decompiler.com/flash" xmlns:xlink="http://www.w3.org/1999/xlink" ffdec:objectType="shape" height="15.1px" width="22.35px" xmlns="http://www.w3.org/2000/svg">
  <g transform="matrix(1.0, 0.0, 0.0, 1.0, 4.8, 31.05)">
    <path d="M0.65 -29.2 L1.4 -29.2 1.55 -29.15 1.7 -29.05 1.95 -28.6 1.9 -28.5 Q1.7 -28.25 1.45 -28.4 L1.3 -28.5 1.25 -28.55 Q0.2 -28.6 -0.3 -27.8 L-0.65 -27.65 -1.15 -27.75 -1.15 -27.85 -1.15 -28.0 -1.05 -28.15 -0.95 -28.2 -0.75 -28.3 0.05 -28.95 0.65 -29.2 M14.25 -28.15 L14.9 -28.0 14.95 -27.9 14.95 -27.8 14.75 -27.55 12.8 -27.1 12.75 -27.2 12.7 -27.5 14.05 -28.1 14.25 -28.15 M14.5 -27.05 Q16.15 -27.1 17.55 -26.4 L17.55 -26.3 17.5 -26.25 17.35 -26.1 17.25 -26.05 13.85 -26.55 13.9 -26.7 14.3 -27.0 14.5 -27.05 M0.35 -16.05 L0.25 -15.95 Q-0.4 -16.35 0.25 -16.7 0.8 -16.45 0.35 -16.05 M2.5 -19.65 L2.45 -19.55 1.45 -19.6 1.5 -19.85 1.6 -19.95 2.15 -20.05 Q2.6 -20.05 2.5 -19.65 M-2.35 -30.1 L-3.15 -29.0 -3.25 -28.95 Q-3.65 -28.9 -3.65 -29.3 L-2.7 -30.65 -2.6 -30.7 -2.25 -30.35 -2.1 -31.05 Q-1.35 -29.75 -1.9 -28.1 L-1.95 -28.0 Q-2.4 -27.65 -2.65 -28.1 L-2.55 -28.4 -2.45 -28.45 -2.3 -30.1 -2.35 -30.1 M-1.15 -18.75 L-1.3 -18.75 -1.4 -19.05 -1.4 -19.15 -0.95 -19.65 -0.85 -19.7 Q-0.05 -19.25 -1.15 -18.75 M-4.0 -17.15 L-4.05 -17.05 -4.8 -17.1 -4.35 -17.55 Q-3.9 -17.55 -4.0 -17.15" fill="#cc0000" fill-rule="evenodd" stroke="none"/>
  </g>
</svg>
