<?xml version="1.0" encoding="UTF-8" standalone="no"?>
<svg xmlns:ffdec="https://www.free-decompiler.com/flash" xmlns:xlink="http://www.w3.org/1999/xlink" ffdec:objectType="shape" height="15.6px" width="23.9px" xmlns="http://www.w3.org/2000/svg">
  <g transform="matrix(1.0, 0.0, 0.0, 1.0, 4.95, 32.05)">
    <path d="M1.65 -29.7 L1.8 -29.65 2.35 -29.15 Q2.55 -28.85 2.35 -28.55 L1.95 -28.5 1.6 -28.95 -0.3 -28.85 Q-0.05 -29.45 0.75 -29.65 L1.0 -29.7 1.65 -29.7 M14.5 -29.1 L15.15 -29.4 Q15.75 -29.6 16.15 -29.15 L16.2 -29.05 16.2 -29.0 16.1 -28.8 16.0 -28.75 15.7 -28.7 15.1 -28.75 14.95 -28.65 14.45 -28.7 14.5 -29.1 M17.95 -27.85 L18.75 -27.35 18.95 -27.0 Q18.8 -26.7 18.45 -26.85 18.0 -27.0 17.7 -27.25 17.2 -27.15 16.9 -27.5 L16.85 -27.65 16.85 -27.7 17.05 -27.85 17.15 -27.9 17.75 -27.9 17.95 -27.85 M2.5 -20.4 L2.55 -20.3 2.55 -20.2 2.35 -19.95 Q1.7 -19.75 1.6 -20.3 L1.6 -20.35 Q1.7 -20.55 1.9 -20.55 L2.5 -20.4 M0.05 -16.45 L-0.05 -16.5 Q-0.15 -16.8 0.1 -16.95 L0.25 -16.95 Q0.9 -16.45 0.05 -16.45 M-3.5 -31.2 Q-3.0 -30.5 -3.35 -29.4 L-3.4 -29.3 -3.9 -29.35 Q-4.05 -30.35 -3.6 -31.15 L-3.5 -31.2 M-1.85 -29.65 Q-2.2 -29.5 -2.3 -29.85 L-2.25 -30.6 -2.15 -30.8 Q-2.6 -31.6 -2.0 -32.05 -1.2 -31.05 -1.8 -29.75 L-1.85 -29.65 M-0.55 -19.85 L-0.55 -19.8 Q-0.95 -19.35 -1.45 -19.5 L-1.55 -19.7 -1.55 -19.9 -1.0 -20.2 Q-0.6 -20.25 -0.55 -19.85 M-4.8 -17.55 L-4.9 -17.6 Q-5.0 -17.9 -4.7 -18.0 L-4.6 -18.05 Q-3.95 -17.55 -4.8 -17.55" fill="#cc0000" fill-rule="evenodd" stroke="none"/>
  </g>
</svg>
