<?xml version="1.0" encoding="UTF-8" standalone="no"?>
<svg xmlns:ffdec="https://www.free-decompiler.com/flash" xmlns:xlink="http://www.w3.org/1999/xlink" ffdec:objectType="shape" height="16.0px" width="25.95px" xmlns="http://www.w3.org/2000/svg">
  <g transform="matrix(1.0, 0.0, 0.0, 1.0, 5.2, 32.7)">
    <path d="M20.3 -27.6 L19.6 -28.3 19.6 -28.4 19.75 -28.65 19.9 -28.65 Q20.55 -28.5 20.75 -27.85 L20.75 -27.75 20.6 -27.6 20.3 -27.6 M2.95 -29.05 L2.85 -28.95 2.65 -28.9 2.45 -28.9 Q2.15 -29.5 1.55 -29.55 1.0 -29.6 0.95 -30.05 L0.95 -30.1 1.15 -30.25 1.25 -30.3 Q2.55 -30.3 2.95 -29.1 L2.95 -29.05 M17.3 -29.85 L17.3 -29.8 Q17.2 -29.6 17.0 -29.55 L16.9 -29.55 Q16.55 -29.7 16.25 -30.0 L16.2 -30.15 16.35 -30.4 16.5 -30.4 17.3 -29.85 M0.2 -16.7 L0.1 -16.75 Q0.0 -17.05 0.3 -17.2 L0.4 -17.2 Q1.05 -16.7 0.2 -16.7 M2.6 -20.45 L2.5 -20.4 Q1.55 -20.45 2.25 -20.95 2.85 -20.95 2.6 -20.45 M-1.8 -31.35 L-1.85 -31.25 Q-2.2 -31.1 -2.3 -31.45 -2.55 -32.3 -2.1 -32.7 L-1.95 -32.65 -1.8 -32.55 Q-1.55 -31.95 -1.8 -31.35 M-4.15 -29.6 Q-4.7 -30.5 -4.25 -30.95 -3.75 -30.7 -3.6 -30.15 L-3.55 -30.05 -3.6 -29.6 -3.7 -29.4 Q-4.05 -29.25 -4.15 -29.6 M-5.05 -17.8 L-5.15 -17.85 Q-5.25 -18.15 -4.95 -18.25 L-4.85 -18.3 Q-4.2 -17.8 -5.05 -17.8 M-0.65 -19.95 L-0.75 -19.9 Q-1.7 -19.95 -1.0 -20.45 -0.4 -20.45 -0.65 -19.95" fill="#cc0000" fill-rule="evenodd" stroke="none"/>
  </g>
</svg>
