<?xml version="1.0" encoding="UTF-8" standalone="no"?>
<svg xmlns:ffdec="https://www.free-decompiler.com/flash" xmlns:xlink="http://www.w3.org/1999/xlink" ffdec:objectType="shape" height="16.15px" width="28.15px" xmlns="http://www.w3.org/2000/svg">
  <g transform="matrix(1.0, 0.0, 0.0, 1.0, 5.35, 32.95)">
    <path d="M22.55 -28.85 L22.7 -28.75 22.75 -28.2 22.65 -28.0 Q21.6 -28.25 22.25 -28.9 L22.55 -28.85 M18.2 -30.4 L18.2 -30.3 Q18.05 -29.95 17.7 -30.1 17.0 -30.6 17.65 -30.9 L18.2 -30.4 M2.15 -30.8 Q3.15 -30.3 2.95 -29.25 L2.9 -29.15 Q2.55 -29.0 2.45 -29.35 1.75 -30.25 2.15 -30.8 M0.3 -16.8 L0.2 -16.85 Q0.1 -17.15 0.35 -17.25 L0.5 -17.3 Q1.15 -16.8 0.3 -16.8 M2.5 -21.3 Q3.1 -21.3 2.85 -20.8 L2.75 -20.7 Q1.8 -20.8 2.5 -21.3 M-1.55 -31.95 L-1.55 -31.9 Q-2.35 -31.9 -2.3 -32.75 L-2.15 -32.95 -2.0 -32.95 Q-1.4 -32.65 -1.55 -31.95 M-4.5 -30.45 L-4.35 -30.45 -4.2 -30.4 -3.8 -29.95 -3.8 -29.75 Q-3.8 -29.6 -3.95 -29.5 L-4.1 -29.45 Q-5.1 -29.95 -4.5 -30.45 M-5.2 -18.05 L-5.3 -18.1 -5.15 -18.5 -5.0 -18.55 Q-4.35 -18.05 -5.2 -18.05 M-1.3 -20.3 L-1.4 -20.35 Q-1.5 -20.65 -1.2 -20.75 L-1.1 -20.8 Q-0.45 -20.3 -1.3 -20.3" fill="#cc0000" fill-rule="evenodd" stroke="none"/>
  </g>
</svg>
