<?xml version="1.0" encoding="UTF-8" standalone="no"?>
<svg xmlns:ffdec="https://www.free-decompiler.com/flash" xmlns:xlink="http://www.w3.org/1999/xlink" ffdec:objectType="shape" height="12.5px" width="28.75px" xmlns="http://www.w3.org/2000/svg">
  <g transform="matrix(1.0, 0.0, 0.0, 1.0, 4.7, 33.3)">
    <path d="M23.55 -28.3 L23.45 -28.35 Q23.35 -28.65 23.6 -28.8 L23.75 -28.8 Q24.4 -28.3 23.55 -28.3 M3.45 -29.95 L3.45 -29.9 Q3.25 -29.4 2.8 -29.75 2.5 -30.05 2.85 -30.25 L3.0 -30.3 3.45 -29.95 M18.95 -30.8 L18.95 -30.75 Q18.75 -30.25 18.3 -30.6 18.0 -30.9 18.35 -31.1 L18.5 -31.15 18.95 -30.8 M2.75 -21.3 Q3.4 -20.8 2.55 -20.8 L2.45 -20.85 Q2.35 -21.15 2.6 -21.25 L2.75 -21.3 M-2.25 -33.3 L-1.8 -32.95 -1.8 -32.9 Q-2.0 -32.4 -2.45 -32.75 -2.75 -33.05 -2.4 -33.25 L-2.25 -33.3 M-4.35 -30.05 Q-3.7 -29.55 -4.55 -29.55 L-4.65 -29.6 Q-4.75 -29.9 -4.45 -30.0 L-4.35 -30.05" fill="#cc0000" fill-rule="evenodd" stroke="none"/>
  </g>
</svg>
