<?xml version="1.0" encoding="UTF-8" standalone="no"?>
<svg xmlns:ffdec="https://www.free-decompiler.com/flash" xmlns:xlink="http://www.w3.org/1999/xlink" ffdec:objectType="shape" height="5.15px" width="29.75px" xmlns="http://www.w3.org/2000/svg">
  <g transform="matrix(1.0, 0.0, 0.0, 1.0, 4.95, 33.45)">
    <path d="M24.3 -28.3 L24.2 -28.35 Q24.1 -28.65 24.35 -28.8 L24.5 -28.8 Q25.15 -28.3 24.3 -28.3 M3.25 -30.05 Q3.9 -29.55 3.05 -29.55 L2.95 -29.6 Q2.85 -29.9 3.1 -30.0 L3.25 -30.05 M18.9 -31.15 Q19.55 -30.65 18.7 -30.65 L18.6 -30.7 Q18.5 -31.0 18.8 -31.1 L18.9 -31.15 M-2.4 -32.9 L-2.5 -32.85 Q-3.25 -33.1 -2.6 -33.45 -1.95 -33.3 -2.4 -32.9 M-4.8 -29.45 L-4.9 -29.5 Q-5.0 -29.8 -4.7 -29.95 L-4.6 -29.95 Q-3.95 -29.45 -4.8 -29.45" fill="#cc0000" fill-rule="evenodd" stroke="none"/>
  </g>
</svg>
