<?xml version="1.0" encoding="UTF-8" standalone="no"?>
<svg xmlns:ffdec="https://www.free-decompiler.com/flash" xmlns:xlink="http://www.w3.org/1999/xlink" ffdec:objectType="shape" height="5.15px" width="28.55px" xmlns="http://www.w3.org/2000/svg">
  <g transform="matrix(1.0, 0.0, 0.0, 1.0, 3.35, 33.45)">
    <path d="M24.7 -28.3 L24.6 -28.35 Q24.5 -28.65 24.8 -28.8 L24.9 -28.8 Q25.55 -28.3 24.7 -28.3 M3.4 -30.2 Q4.05 -29.7 3.2 -29.7 L3.1 -29.75 Q3.0 -30.05 3.3 -30.2 L3.4 -30.2 M19.25 -31.3 Q19.9 -30.8 19.05 -30.8 L18.95 -30.85 Q18.85 -31.15 19.1 -31.3 L19.25 -31.3 M-3.2 -32.95 L-3.3 -33.0 -3.15 -33.45 -3.0 -33.45 Q-2.35 -32.95 -3.2 -32.95" fill="#cc0000" fill-rule="evenodd" stroke="none"/>
  </g>
</svg>
