<?xml version="1.0" encoding="UTF-8" standalone="no"?>
<svg xmlns:ffdec="https://www.free-decompiler.com/flash" xmlns:xlink="http://www.w3.org/1999/xlink" ffdec:objectType="shape" height="51.85px" width="8.4px" xmlns="http://www.w3.org/2000/svg">
  <g transform="matrix(1.0, 0.0, 0.0, 1.0, 5.8, 29.0)">
    <path d="M2.6 -18.75 Q2.7 -15.95 1.55 -13.1 L1.55 -12.95 Q-0.8 -12.2 -2.8 -12.45 L-2.0 -13.1 Q-2.45 -13.85 -2.2 -15.85 L-2.1 -17.1 Q-4.45 -21.7 -5.8 -26.65 L-5.8 -26.8 -4.95 -27.95 -4.9 -28.0 Q-4.35 -27.3 -5.1 -26.65 L-5.2 -26.5 Q-3.9 -22.5 -2.1 -18.65 -2.2 -20.2 -2.6 -21.75 -3.15 -23.85 -1.75 -25.7 -0.2 -27.6 1.6 -29.0 -0.65 -26.0 -2.05 -22.1 -2.35 -21.25 -1.95 -20.35 -1.1 -18.45 -1.1 -16.55 L0.25 -13.9 0.3 -13.75 0.25 -13.7 0.55 -13.65 Q-0.65 -18.75 -0.35 -24.7 L-0.15 -24.75 0.7 -13.7 0.7 -13.65 0.95 -13.65 Q1.7 -16.4 2.55 -18.75 L2.6 -18.75 M0.35 12.25 L0.75 19.75 0.75 19.95 0.0 18.6 0.0 22.7 0.0 22.85 Q-1.35 21.1 -0.9 17.8 L-0.7 16.4 Q-1.6 14.5 -1.55 12.0 L-1.4 12.0 Q-0.6 13.55 -0.5 15.4 L0.1 12.75 0.1 12.85 0.35 12.25 M-0.3 -13.9 L-1.2 -15.5 Q-1.4 -14.35 -1.95 -13.15 -1.2 -13.6 -0.25 -13.65 L-0.3 -13.9" fill="#cc0000" fill-rule="evenodd" stroke="none"/>
  </g>
</svg>
