<?xml version="1.0" encoding="UTF-8" standalone="no"?>
<svg xmlns:ffdec="https://www.free-decompiler.com/flash" xmlns:xlink="http://www.w3.org/1999/xlink" ffdec:objectType="shape" height="73.85px" width="15.8px" xmlns="http://www.w3.org/2000/svg">
  <g transform="matrix(1.0, 0.0, 0.0, 1.0, 8.9, 43.0)">
    <path d="M4.1 -37.25 Q5.1 -35.05 4.55 -32.75 L4.5 -32.55 Q2.15 -28.65 -0.6 -25.6 L-0.65 -23.65 -0.75 -23.5 -1.05 -25.15 -2.8 -23.4 -1.1 -25.6 Q-1.6 -28.75 -1.6 -32.2 L-1.4 -32.25 Q-0.75 -29.3 -0.65 -26.25 2.1 -30.1 4.05 -34.3 L4.2 -35.0 Q3.35 -36.05 3.95 -37.2 L4.1 -37.25 M6.35 -25.55 L6.3 -25.4 Q5.15 -23.4 3.55 -22.0 4.05 -23.85 5.55 -25.4 L5.7 -25.95 5.7 -26.15 6.65 -27.2 6.85 -27.25 Q7.0 -26.45 6.35 -25.55 M0.3 25.25 L0.25 25.45 -0.05 24.75 Q0.2 27.75 0.75 30.7 L0.75 30.85 Q-0.7 28.55 -0.9 24.7 -1.15 21.15 -0.4 18.5 L-0.35 20.3 Q-0.2 18.8 0.35 17.75 0.85 21.45 0.3 25.25 M-7.65 -43.0 Q-8.75 -37.85 -7.75 -32.5 L-7.75 -32.3 Q-8.45 -32.1 -8.55 -32.8 -9.6 -38.3 -7.7 -43.0 L-7.65 -43.0" fill="#cc0000" fill-rule="evenodd" stroke="none"/>
  </g>
</svg>
