<?xml version="1.0" encoding="UTF-8" standalone="no"?>
<svg xmlns:ffdec="https://www.free-decompiler.com/flash" xmlns:xlink="http://www.w3.org/1999/xlink" ffdec:objectType="shape" height="93.3px" width="24.25px" xmlns="http://www.w3.org/2000/svg">
  <g transform="matrix(1.0, 0.0, 0.0, 1.0, 12.4, 51.8)">
    <path d="M11.85 -38.25 Q11.75 -34.85 10.1 -31.5 L10.0 -31.3 Q9.3 -32.55 10.35 -34.95 10.95 -36.25 11.2 -37.65 11.35 -38.25 11.85 -38.25 M6.85 -40.05 L7.0 -39.9 Q6.6 -36.5 4.75 -33.7 4.4 -32.55 3.45 -32.15 3.45 -32.7 3.85 -33.1 L3.95 -33.25 Q4.35 -36.35 3.35 -39.0 L3.9 -38.2 Q4.9 -36.85 4.9 -35.2 L6.3 -39.15 6.45 -39.5 Q5.15 -40.0 5.75 -40.45 L5.85 -40.5 6.85 -40.05 M1.35 -42.35 L0.25 -43.55 -0.3 -44.5 Q-0.5 -45.25 0.1 -45.25 0.6 -43.8 1.35 -42.35 M-11.6 -50.95 L-11.7 -50.8 -11.45 -45.55 Q-11.4 -45.2 -11.5 -44.8 -12.65 -47.1 -12.35 -50.75 L-12.3 -51.3 -11.5 -51.8 Q-10.45 -51.5 -11.6 -50.95 M-2.05 -35.45 L-2.15 -35.25 Q-3.1 -37.85 -2.85 -41.2 L-2.65 -41.25 Q-2.0 -38.45 -2.05 -35.45 M-0.45 31.05 L-0.35 26.55 -0.15 26.5 Q0.5 32.35 -0.35 38.0 L0.5 38.6 Q0.2 39.2 -0.5 38.9 L-1.05 41.45 -1.2 41.5 -0.9 38.65 -1.05 38.55 Q-1.25 34.75 -0.6 31.1 L-0.45 31.05" fill="#cc0000" fill-rule="evenodd" stroke="none"/>
  </g>
</svg>
