<?xml version="1.0" encoding="UTF-8" standalone="no"?>
<svg xmlns:ffdec="https://www.free-decompiler.com/flash" xmlns:xlink="http://www.w3.org/1999/xlink" ffdec:objectType="shape" height="111.75px" width="29.75px" xmlns="http://www.w3.org/2000/svg">
  <g transform="matrix(1.0, 0.0, 0.0, 1.0, 16.45, 62.5)">
    <path d="M13.25 -40.45 L13.1 -40.25 Q12.35 -40.95 12.85 -42.4 12.9 -42.55 13.1 -42.5 13.45 -41.55 13.25 -40.45 M9.2 -46.2 L9.35 -46.25 Q9.6 -44.9 9.1 -43.45 L9.05 -43.25 Q8.5 -41.8 7.45 -41.95 L8.45 -43.45 Q8.55 -44.9 9.2 -46.2 M6.0 -44.55 L7.0 -44.25 7.0 -44.15 Q6.05 -43.45 5.9 -44.4 L6.0 -44.55 M1.8 49.05 Q-0.5 48.0 -0.8 44.6 L-1.2 48.3 -1.2 48.5 Q-1.45 49.2 -2.2 49.25 -2.5 48.8 -1.95 48.5 L-0.8 40.25 -0.65 40.25 -0.65 41.2 -0.15 39.5 Q-0.35 44.5 1.75 48.9 L1.8 49.05 M-15.75 -56.3 Q-16.95 -57.35 -16.05 -59.55 -15.3 -61.35 -13.9 -62.5 -15.2 -59.8 -15.7 -56.5 L-15.75 -56.3 M-2.25 -53.25 L-2.25 -53.15 -2.5 -52.95 -3.2 -52.65 -3.1 -51.35 Q-3.0 -50.6 -3.5 -50.25 -4.05 -51.2 -3.9 -52.65 -3.8 -53.35 -3.25 -53.55 L-2.25 -53.25 M-4.0 -44.95 L-4.15 -44.75 Q-5.0 -46.4 -3.6 -48.45 L-3.4 -48.5 -4.0 -44.95" fill="#cc0000" fill-rule="evenodd" stroke="none"/>
  </g>
</svg>
