<?xml version="1.0" encoding="UTF-8" standalone="no"?>
<svg xmlns:ffdec="https://www.free-decompiler.com/flash" xmlns:xlink="http://www.w3.org/1999/xlink" ffdec:objectType="shape" height="122.55px" width="34.05px" xmlns="http://www.w3.org/2000/svg">
  <g transform="matrix(1.0, 0.0, 0.0, 1.0, 19.7, 69.05)">
    <path d="M10.25 -50.3 L10.05 -50.25 10.4 -53.9 Q10.4 -54.05 10.6 -54.0 11.2 -52.05 10.25 -50.3 M14.3 -46.0 L14.25 -45.8 Q13.2 -46.7 13.8 -48.25 L13.85 -48.25 Q14.55 -47.3 14.3 -46.0 M6.25 -46.0 L6.25 -45.9 Q5.45 -45.3 5.4 -46.15 L5.5 -46.3 6.25 -46.0 M0.35 48.8 L1.8 50.85 Q3.65 50.65 4.25 51.35 3.45 52.5 1.8 51.75 0.55 50.5 -0.3 48.95 -0.4 48.15 -0.1 47.55 L0.1 47.5 Q0.45 47.95 0.35 48.65 L0.35 48.8 M-17.65 -68.95 L-17.45 -68.8 -17.6 -68.6 -18.2 -68.3 Q-18.45 -66.8 -19.3 -65.6 L-19.7 -65.25 Q-19.4 -66.9 -18.7 -68.6 L-18.25 -69.05 -17.65 -68.95 M-3.75 -57.4 Q-4.45 -57.1 -5.3 -56.85 L-5.55 -56.9 -5.3 -57.5 -4.75 -57.8 -3.75 -57.5 -3.75 -57.4 M-4.75 -50.5 L-5.2 -50.5 Q-5.3 -51.35 -4.0 -51.5 L-3.9 -51.5 Q-3.6 -50.75 -4.75 -50.5 M-1.65 48.75 Q-1.6 50.6 -3.15 52.3 L-3.3 52.5 -3.4 52.9 -3.45 53.05 Q-4.0 53.75 -4.55 53.3 -4.5 52.95 -4.05 52.75 L-1.7 48.75 -1.65 48.75" fill="#cc0000" fill-rule="evenodd" stroke="none"/>
  </g>
</svg>
