<?xml version="1.0" encoding="UTF-8" standalone="no"?>
<svg xmlns:ffdec="https://www.free-decompiler.com/flash" xmlns:xlink="http://www.w3.org/1999/xlink" ffdec:objectType="shape" height="129.95px" width="37.35px" xmlns="http://www.w3.org/2000/svg">
  <g transform="matrix(1.0, 0.0, 0.0, 1.0, 22.05, 72.8)">
    <path d="M11.35 -59.75 Q11.8 -58.75 11.3 -57.7 L11.1 -57.5 Q10.6 -58.15 11.1 -59.65 L11.35 -59.75 M14.1 -53.0 L15.1 -52.05 15.3 -51.7 Q14.75 -51.35 14.35 -51.85 14.25 -51.3 14.3 -51.9 L14.2 -52.05 13.95 -52.4 Q13.15 -52.25 13.3 -52.85 L13.5 -53.05 14.1 -53.0 M5.25 -47.0 L5.25 -46.9 Q3.85 -46.05 4.25 -47.05 L4.5 -47.3 5.25 -47.0 M2.35 52.5 L2.6 52.75 Q4.3 52.5 4.5 53.35 3.85 54.1 2.55 53.5 L1.5 52.55 Q1.3 52.25 1.6 52.05 L1.85 52.0 2.35 52.5 M-19.25 -72.5 L-19.25 -72.4 -19.35 -72.3 -20.0 -72.05 Q-21.1 -70.8 -22.05 -71.3 L-20.15 -72.75 -20.0 -72.8 -19.25 -72.5 M-4.8 -60.35 L-5.2 -60.0 -5.85 -61.0 -5.75 -61.05 -4.9 -60.75 -4.75 -60.65 -4.8 -60.35 M-5.25 -53.95 L-5.0 -54.05 -4.25 -53.75 -4.25 -53.65 Q-4.85 -53.15 -5.7 -53.25 -6.0 -53.75 -5.25 -53.95 M-4.95 57.15 L-5.05 57.05 Q-3.6 56.3 -2.7 55.0 L-2.65 55.0 Q-2.4 57.15 -4.95 57.15" fill="#cc0000" fill-rule="evenodd" stroke="none"/>
  </g>
</svg>
