<?xml version="1.0" encoding="UTF-8" standalone="no"?>
<svg xmlns:ffdec="https://www.free-decompiler.com/flash" xmlns:xlink="http://www.w3.org/1999/xlink" ffdec:objectType="shape" height="136.2px" width="38.45px" xmlns="http://www.w3.org/2000/svg">
  <g transform="matrix(1.0, 0.0, 0.0, 1.0, 23.2, 76.05)">
    <path d="M15.25 -55.95 L15.25 -55.9 Q13.95 -55.0 13.65 -56.2 L13.75 -56.3 15.25 -55.95 M11.5 -61.95 L11.55 -61.8 Q9.9 -61.7 10.9 -63.45 L11.1 -63.5 Q11.0 -62.7 11.5 -61.95 M3.05 -46.35 L2.95 -46.45 Q3.1 -47.05 3.75 -47.25 L3.85 -47.25 Q4.15 -46.45 3.05 -46.35 M2.95 55.05 L2.6 55.25 1.95 55.05 Q2.05 54.65 2.55 54.5 L2.75 54.45 Q3.65 54.55 2.95 55.05 M-23.0 -76.05 Q-21.9 -76.0 -21.25 -75.2 L-21.25 -75.05 Q-22.35 -75.0 -23.15 -75.85 -23.3 -76.05 -23.0 -76.05 M-5.15 -55.25 L-5.0 -55.15 Q-5.55 -54.3 -6.1 -55.5 L-6.0 -55.55 -5.15 -55.25 M-5.75 -62.55 Q-5.15 -62.5 -4.8 -61.95 L-4.7 -61.75 Q-6.1 -61.45 -5.75 -62.5 L-5.75 -62.55 M-3.45 59.65 L-3.65 59.8 Q-4.75 60.6 -5.05 59.6 L-4.0 59.3 Q-3.6 58.75 -3.0 58.5 L-2.9 58.5 Q-2.6 59.1 -3.45 59.65" fill="#cc0000" fill-rule="evenodd" stroke="none"/>
  </g>
</svg>
