<?xml version="1.0" encoding="UTF-8" standalone="no"?>
<svg xmlns:ffdec="https://www.free-decompiler.com/flash" xmlns:xlink="http://www.w3.org/1999/xlink" ffdec:objectType="shape" height="139.9px" width="38.55px" xmlns="http://www.w3.org/2000/svg">
  <g transform="matrix(1.0, 0.0, 0.0, 1.0, 23.3, 78.05)">
    <path d="M15.25 -59.0 L15.25 -58.9 Q13.85 -58.05 14.2 -59.05 L14.5 -59.3 15.25 -59.0 M10.45 -64.8 L10.45 -64.9 10.75 -65.15 11.0 -65.3 Q12.0 -64.55 10.45 -64.8 M3.7 56.8 L3.35 57.0 2.7 56.8 Q2.8 56.4 3.3 56.25 L3.5 56.2 Q4.4 56.3 3.7 56.8 M-23.25 -78.05 Q-22.65 -78.0 -22.3 -77.45 L-22.2 -77.25 Q-23.6 -76.95 -23.25 -78.0 L-23.25 -78.05 M-5.5 -56.5 L-5.5 -56.4 Q-6.3 -55.8 -6.35 -56.65 L-6.25 -56.8 -5.5 -56.5 M-5.75 -63.55 Q-4.95 -63.5 -4.95 -62.75 L-5.0 -62.55 Q-6.3 -62.75 -5.75 -63.5 L-5.75 -63.55 M-3.5 61.5 L-3.5 61.6 Q-4.65 62.3 -4.9 61.15 -4.95 60.9 -4.65 61.0 -3.95 61.1 -3.5 61.5" fill="#cc0000" fill-rule="evenodd" stroke="none"/>
  </g>
</svg>
