<?xml version="1.0" encoding="UTF-8" standalone="no"?>
<svg xmlns:ffdec="https://www.free-decompiler.com/flash" xmlns:xlink="http://www.w3.org/1999/xlink" ffdec:objectType="shape" height="142.85px" width="38.35px" xmlns="http://www.w3.org/2000/svg">
  <g transform="matrix(1.0, 0.0, 0.0, 1.0, 23.5, 79.75)">
    <path d="M11.05 -65.65 L10.8 -65.5 Q9.95 -66.1 10.5 -66.5 L10.5 -66.55 Q11.35 -66.45 11.05 -65.65 M14.75 -60.65 Q13.8 -59.95 13.65 -60.9 L13.75 -61.05 14.75 -60.75 14.75 -60.65 14.8 -60.75 14.85 -60.75 Q14.5 -60.05 14.75 -60.65 M3.35 57.6 L3.75 57.75 3.75 57.85 Q2.8 58.55 2.65 57.6 L2.75 57.45 3.35 57.6 3.55 57.25 3.6 57.25 3.35 57.6 M-5.75 -57.55 L-5.5 -57.4 Q-6.05 -56.5 -6.65 -57.65 L-6.5 -57.8 -5.75 -57.55 M-22.75 -78.8 L-22.75 -78.65 Q-23.9 -78.55 -23.3 -79.7 L-23.15 -79.75 -22.75 -78.8 M-4.0 62.75 L-4.0 62.85 Q-4.8 63.45 -4.85 62.6 L-4.75 62.45 -4.0 62.75" fill="#cc0000" fill-rule="evenodd" stroke="none"/>
  </g>
</svg>
