<?xml version="1.0" encoding="UTF-8" standalone="no"?>
<svg xmlns:ffdec="https://www.free-decompiler.com/flash" xmlns:xlink="http://www.w3.org/1999/xlink" ffdec:objectType="shape" height="49.65px" width="8.9px" xmlns="http://www.w3.org/2000/svg">
  <g transform="matrix(1.0, 0.0, 0.0, 1.0, 3.9, 23.55)">
    <path d="M2.15 11.95 L2.45 11.85 4.35 16.0 Q5.3 18.55 4.9 20.6 L4.9 20.55 Q4.65 20.5 4.5 20.0 L4.45 19.65 4.4 19.25 3.3 15.8 3.2 16.35 3.2 16.3 Q2.45 15.05 1.95 13.15 L1.8 13.0 Q1.55 12.85 1.6 12.5 1.6 11.75 2.05 11.85 L2.15 11.95 M-1.1 26.1 L-1.15 26.05 Q-0.95 21.05 -0.15 15.95 L0.15 12.95 -1.35 15.85 -1.5 16.0 -2.9 17.85 Q-3.35 17.7 -3.1 17.1 L-1.7 14.05 Q-0.65 11.8 0.5 11.7 L0.55 11.9 0.85 12.15 1.0 12.25 Q1.25 13.2 1.0 14.1 0.75 14.95 0.65 15.9 0.2 21.5 -1.1 26.1 M-0.15 -14.95 L-0.25 -14.75 -0.1 -14.75 -0.15 -14.95 M0.8 -23.55 Q1.2 -23.5 1.3 -23.15 1.75 -20.95 1.5 -18.6 L1.6 -18.4 1.55 -18.0 1.4 -17.7 Q1.15 -15.8 1.5 -13.85 L1.7 -14.15 Q1.9 -15.15 2.55 -15.85 2.7 -16.95 3.75 -17.3 L3.95 -17.25 4.4 -16.7 4.35 -16.45 3.05 -13.55 Q2.9 -12.65 1.95 -12.25 L1.95 -12.3 Q1.55 -12.3 1.35 -12.55 L1.1 -12.45 Q0.7 -12.5 0.45 -12.85 L0.45 -12.9 Q-1.35 -13.3 -3.3 -12.95 L-3.6 -13.25 -3.7 -13.7 -3.65 -13.75 Q-4.25 -15.05 -3.5 -16.65 L-2.45 -16.7 -2.35 -16.4 -2.35 -14.45 -1.95 -14.6 -0.45 -17.35 Q-0.55 -19.7 0.2 -22.15 L-0.05 -22.45 -0.15 -23.05 Q0.1 -23.6 0.8 -23.55" fill="#cc0000" fill-rule="evenodd" stroke="none"/>
  </g>
</svg>
