<?xml version="1.0" encoding="UTF-8" standalone="no"?>
<svg xmlns:ffdec="https://www.free-decompiler.com/flash" xmlns:xlink="http://www.w3.org/1999/xlink" ffdec:objectType="shape" height="74.6px" width="16.4px" xmlns="http://www.w3.org/2000/svg">
  <g transform="matrix(1.0, 0.0, 0.0, 1.0, 8.3, 33.0)">
    <path d="M-2.05 29.9 L-1.95 29.75 Q-1.7 29.4 -1.5 29.85 L-1.5 30.2 Q-2.05 35.85 -3.15 41.25 L-3.3 41.45 -3.45 41.6 -3.5 41.5 -2.05 29.9 M-8.15 23.85 Q-7.35 20.75 -6.05 20.75 L-6.1 21.05 -7.6 25.25 -7.75 25.45 -7.9 25.6 Q-8.5 25.1 -8.15 23.85 M-3.6 -18.9 L-3.8 -19.0 -4.3 -19.6 -4.25 -19.9 -3.9 -20.35 Q-1.8 -20.35 -2.15 -18.25 L-2.25 -18.1 -2.75 -17.85 -3.0 -17.9 -3.35 -18.15 -3.45 -18.45 -3.6 -18.9 M4.55 18.9 L4.5 18.7 4.5 18.15 Q4.85 17.55 5.3 18.25 L5.95 20.3 Q6.85 23.45 6.35 26.1 L6.25 25.95 Q5.8 24.7 5.75 23.0 L5.65 22.85 5.5 22.45 Q5.4 20.3 4.55 18.9 M5.45 -19.2 Q6.2 -21.1 6.6 -23.05 6.9 -23.5 7.4 -23.6 L7.75 -23.5 8.1 -23.05 8.1 -22.8 Q7.65 -20.55 6.65 -18.5 L6.45 -18.35 6.1 -18.25 Q5.55 -18.3 5.35 -18.8 L5.45 -19.2 M1.0 -32.45 L1.15 -32.95 1.5 -33.0 Q1.9 -33.05 2.1 -32.7 L2.25 -32.25 Q1.5 -27.05 1.95 -21.8 L1.85 -21.65 1.3 -21.4 1.2 -21.45 0.95 -22.35 0.65 -20.95 0.5 -20.85 0.0 -20.55 Q-0.35 -20.55 -0.35 -20.9 L0.05 -32.4 1.0 -32.45" fill="#cc0000" fill-rule="evenodd" stroke="none"/>
  </g>
</svg>
