<?xml version="1.0" encoding="UTF-8" standalone="no"?>
<svg xmlns:ffdec="https://www.free-decompiler.com/flash" xmlns:xlink="http://www.w3.org/1999/xlink" ffdec:objectType="shape" height="96.3px" width="22.45px" xmlns="http://www.w3.org/2000/svg">
  <g transform="matrix(1.0, 0.0, 0.0, 1.0, 11.45, 42.95)">
    <path d="M6.75 24.1 Q7.25 27.5 8.7 29.75 L8.7 29.95 Q8.8 30.8 8.3 30.85 L8.2 30.7 Q6.55 28.05 6.15 24.1 6.25 23.4 6.65 23.7 L6.75 24.1 M-3.45 46.85 L-3.5 47.05 -5.0 53.0 -5.1 53.2 -5.25 53.35 -5.4 53.1 -3.85 44.9 Q-3.55 44.25 -3.3 44.95 L-3.3 45.5 -3.45 46.85 M-10.85 29.45 L-10.75 29.85 Q-10.6 31.4 -10.85 32.85 L-10.8 33.0 Q-10.55 33.8 -11.0 34.1 L-11.0 34.05 Q-11.3 34.0 -11.4 33.6 L-11.45 33.2 -11.35 29.85 Q-11.2 29.15 -10.85 29.45 M-2.75 -22.35 L-3.35 -21.95 Q-4.1 -22.05 -4.3 -22.75 L-4.25 -23.05 -3.9 -23.5 Q-2.65 -23.65 -2.65 -22.45 L-2.75 -22.35 M9.3 -27.6 L9.35 -27.7 9.7 -28.05 Q10.2 -28.25 10.6 -27.85 L10.7 -27.55 Q11.2 -25.95 10.85 -24.3 L10.75 -24.2 10.25 -23.9 10.0 -23.95 9.55 -24.35 9.45 -24.8 Q9.55 -26.2 9.3 -27.6 M0.35 -42.65 L0.9 -42.05 Q1.8 -39.75 2.05 -37.35 L3.1 -41.75 3.95 -42.3 Q5.15 -42.35 5.4 -41.3 L5.25 -41.05 Q4.95 -40.65 4.45 -40.55 4.5 -39.4 4.2 -38.3 3.35 -35.7 2.05 -33.5 L1.75 -31.4 1.65 -31.25 1.1 -31.0 0.9 -31.05 0.45 -31.45 0.4 -31.85 Q0.95 -36.5 0.2 -41.05 L-1.5 -41.6 -1.65 -41.95 -1.75 -42.35 Q-0.9 -43.4 0.35 -42.65" fill="#cc0000" fill-rule="evenodd" stroke="none"/>
  </g>
</svg>
