<?xml version="1.0" encoding="UTF-8" standalone="no"?>
<svg xmlns:ffdec="https://www.free-decompiler.com/flash" xmlns:xlink="http://www.w3.org/1999/xlink" ffdec:objectType="shape" height="105.6px" width="28.4px" xmlns="http://www.w3.org/2000/svg">
  <g transform="matrix(1.0, 0.0, 0.0, 1.0, 14.5, 46.25)">
    <path d="M-5.5 56.0 Q-6.15 57.95 -7.1 59.35 L-7.2 59.2 Q-7.2 57.55 -6.3 55.85 L-6.0 55.45 Q-5.65 55.15 -5.5 55.85 L-5.5 56.0 M-14.15 37.1 L-13.6 37.7 Q-12.75 39.55 -13.1 40.85 L-13.25 40.75 Q-13.95 40.0 -14.35 38.7 L-14.4 38.35 -14.5 37.75 Q-14.5 37.15 -14.15 37.1 M-3.2 -25.1 L-2.95 -24.85 Q-2.75 -24.55 -2.85 -24.25 L-2.95 -24.1 Q-3.2 -23.65 -3.75 -23.7 L-4.1 -23.85 Q-4.55 -24.1 -4.5 -24.65 -4.05 -25.4 -3.2 -25.1 M11.2 32.65 L11.4 33.15 11.4 33.35 11.3 33.5 Q10.95 34.2 10.4 33.85 L9.3 32.85 Q8.25 31.7 7.7 29.75 7.65 29.4 7.85 29.25 L8.05 29.1 Q8.3 29.2 8.4 29.6 9.4 32.35 11.2 32.65 M13.7 -28.5 L13.2 -28.25 12.95 -28.3 Q12.55 -28.4 12.45 -28.8 11.6 -28.95 11.25 -29.75 12.0 -31.25 13.65 -30.7 L13.8 -30.4 Q14.0 -29.5 13.8 -28.6 L13.7 -28.5 M0.65 -42.2 L0.5 -42.1 0.35 -42.0 Q1.3 -40.95 1.55 -39.05 L1.45 -38.95 0.9 -38.65 0.7 -38.75 Q0.0 -39.1 0.2 -39.9 L-0.7 -41.0 -1.5 -41.25 Q-4.7 -40.8 -6.25 -43.15 L-6.3 -43.45 Q-6.4 -44.05 -6.05 -44.45 L-5.05 -44.5 -4.9 -44.2 -4.6 -43.35 Q-2.25 -43.6 -0.75 -42.85 L-0.95 -43.8 Q-0.9 -44.4 -0.2 -44.45 L0.1 -44.3 Q1.1 -43.5 0.65 -42.2 M5.65 -46.0 L5.75 -45.7 Q6.35 -42.15 4.1 -39.5 L3.85 -39.4 3.55 -39.25 3.55 -39.3 Q3.1 -39.3 2.85 -39.65 2.75 -39.85 2.8 -40.1 L3.1 -41.4 4.1 -42.3 4.3 -43.2 Q4.25 -44.7 4.55 -46.0 5.1 -46.5 5.65 -46.0" fill="#cc0000" fill-rule="evenodd" stroke="none"/>
  </g>
</svg>
