<?xml version="1.0" encoding="UTF-8" standalone="no"?>
<svg xmlns:ffdec="https://www.free-decompiler.com/flash" xmlns:xlink="http://www.w3.org/1999/xlink" ffdec:objectType="shape" height="114.55px" width="32.25px" xmlns="http://www.w3.org/2000/svg">
  <g transform="matrix(1.0, 0.0, 0.0, 1.0, 16.2, 50.7)">
    <path d="M-7.05 62.25 Q-7.5 63.55 -8.3 63.85 L-8.4 63.75 -8.6 63.25 -8.55 63.0 -7.55 61.7 Q-7.2 61.4 -7.05 62.1 L-7.05 62.25 M-14.75 43.4 Q-14.85 44.25 -15.35 44.1 -15.95 44.1 -16.2 43.25 -15.65 41.85 -14.8 43.2 L-14.75 43.4 M-4.25 -25.2 Q-4.45 -26.0 -3.55 -26.15 L-3.25 -26.05 Q-2.8 -25.8 -2.8 -25.35 L-2.85 -25.25 Q-3.0 -24.75 -3.55 -24.7 L-3.8 -24.75 -4.25 -25.2 M-4.15 -47.1 L-4.0 -46.65 Q-4.5 -45.8 -5.55 -45.55 L-5.55 -45.1 -5.35 -43.8 -5.05 -43.5 Q-3.75 -42.3 -3.25 -40.85 L-3.3 -40.7 Q-3.5 -40.3 -3.95 -40.3 -5.65 -41.45 -6.8 -43.3 L-6.9 -44.05 -7.0 -46.4 Q-5.95 -47.65 -4.4 -47.35 L-4.15 -47.1 M12.15 35.1 L12.1 35.25 Q11.75 35.95 11.2 35.6 L10.55 35.15 9.3 33.95 Q9.25 33.65 9.35 33.4 L9.4 33.2 12.0 34.4 12.15 34.9 12.15 35.1 M16.0 -32.0 L15.35 -31.6 Q14.55 -31.65 14.2 -32.4 14.15 -33.15 14.95 -33.25 16.1 -33.15 16.05 -32.1 L16.0 -32.0 M1.05 -46.95 L1.05 -46.7 -0.05 -45.0 -0.25 -44.9 -0.6 -44.75 -1.05 -45.0 Q-1.5 -45.4 -1.3 -46.0 L0.4 -47.45 0.7 -47.3 1.05 -46.95 M3.55 -50.25 Q4.1 -51.1 4.85 -50.4 7.0 -48.4 6.15 -45.15 L6.0 -45.05 5.5 -44.75 5.25 -44.85 Q4.95 -44.95 4.8 -45.2 L4.75 -45.65 4.65 -49.05 4.5 -49.15 3.8 -49.5 3.6 -49.8 Q3.5 -50.0 3.55 -50.25" fill="#cc0000" fill-rule="evenodd" stroke="none"/>
  </g>
</svg>
