<?xml version="1.0" encoding="UTF-8" standalone="no"?>
<svg xmlns:ffdec="https://www.free-decompiler.com/flash" xmlns:xlink="http://www.w3.org/1999/xlink" ffdec:objectType="shape" height="121.7px" width="34.95px" xmlns="http://www.w3.org/2000/svg">
  <g transform="matrix(1.0, 0.0, 0.0, 1.0, 17.9, 53.55)">
    <path d="M-9.85 68.05 L-10.15 67.7 -10.2 67.5 Q-10.0 66.35 -9.2 66.9 L-9.0 67.4 -9.0 67.6 -9.05 67.75 Q-9.4 68.35 -9.85 68.1 L-9.85 68.05 M-16.75 48.15 Q-17.0 49.0 -17.55 49.1 L-17.7 49.0 -17.9 48.5 Q-17.65 47.6 -17.05 47.35 L-16.85 47.5 Q-16.7 47.65 -16.7 47.95 L-16.75 48.15 M-3.8 -25.35 L-4.25 -25.75 Q-4.45 -26.6 -3.55 -26.75 L-3.25 -26.6 Q-2.8 -26.4 -2.8 -25.95 L-2.85 -25.8 Q-3.0 -25.3 -3.55 -25.3 L-3.8 -25.35 M-2.05 -47.2 Q-2.15 -47.1 -2.25 -47.1 -5.6 -46.9 -8.15 -44.4 L-8.55 -44.55 Q-8.9 -44.75 -8.85 -45.1 L-8.85 -45.25 Q-6.1 -49.15 -2.0 -48.05 L-1.85 -47.65 -2.05 -47.2 M10.75 36.35 Q11.2 35.45 12.0 35.6 L12.25 35.95 12.3 36.15 12.25 36.3 Q11.8 37.4 11.05 37.1 L11.05 37.05 10.75 36.7 10.7 36.5 10.75 36.35 M16.95 -33.55 Q16.7 -33.1 16.15 -33.15 L15.8 -33.3 Q15.3 -33.55 15.4 -34.1 15.8 -34.85 16.7 -34.55 L16.9 -34.3 Q17.15 -34.0 17.0 -33.7 L16.95 -33.55 M0.5 -49.4 L0.7 -48.95 0.7 -48.65 0.6 -48.5 Q0.25 -48.0 -0.4 -48.1 -0.65 -48.15 -0.9 -48.35 -1.2 -48.6 -1.15 -49.05 -0.55 -49.95 0.5 -49.4 M4.45 -53.55 L4.8 -53.4 Q6.45 -51.9 5.75 -49.5 L5.65 -49.4 5.1 -49.1 4.85 -49.3 Q4.15 -50.2 4.35 -51.5 L4.3 -51.55 Q3.7 -51.7 3.55 -52.25 3.5 -53.25 4.45 -53.55" fill="#cc0000" fill-rule="evenodd" stroke="none"/>
  </g>
</svg>
