<?xml version="1.0" encoding="UTF-8" standalone="no"?>
<svg xmlns:ffdec="https://www.free-decompiler.com/flash" xmlns:xlink="http://www.w3.org/1999/xlink" ffdec:objectType="shape" height="126.1px" width="37.0px" xmlns="http://www.w3.org/2000/svg">
  <g transform="matrix(1.0, 0.0, 0.0, 1.0, 19.2, 56.5)">
    <path d="M-10.75 69.55 Q-11.5 68.8 -10.65 68.35 L-10.5 68.45 Q-10.05 69.35 -10.75 69.6 L-10.75 69.55 M-18.85 53.85 L-19.0 53.75 Q-19.4 53.25 -19.0 52.65 L-18.9 52.5 Q-18.5 52.1 -18.4 52.95 L-18.45 53.15 Q-18.55 53.7 -18.85 53.85 M-8.7 -48.15 L-8.5 -47.9 -8.35 -47.5 -8.4 -47.35 Q-9.45 -46.5 -10.85 -45.95 L-11.2 -46.05 -11.6 -46.5 Q-11.05 -48.55 -8.7 -48.15 M-5.2 -49.9 L-5.3 -50.35 -5.3 -50.5 Q-4.8 -51.3 -3.8 -50.9 L-3.65 -50.85 Q-2.5 -50.15 -2.3 -49.05 L-2.35 -48.9 -2.95 -48.5 -5.2 -49.9 M12.8 37.9 Q12.6 38.6 12.25 38.6 L12.1 38.5 11.9 38.0 Q12.0 37.25 12.5 37.1 L12.7 37.25 12.8 37.7 12.8 37.9 M17.75 -34.55 Q17.6 -34.05 17.05 -34.0 L16.85 -34.05 Q16.5 -34.15 16.4 -34.5 16.15 -35.3 17.05 -35.45 L17.4 -35.35 17.8 -34.7 17.75 -34.55 M4.15 -51.55 L4.15 -53.2 4.25 -53.3 4.55 -53.65 Q5.1 -53.85 5.5 -53.45 L5.6 -53.0 5.55 -51.05 5.45 -50.95 4.9 -50.7 4.65 -50.75 4.2 -51.1 4.15 -51.55 M0.35 -50.45 L0.3 -50.3 Q0.15 -49.8 -0.4 -49.75 L-0.65 -49.8 -1.1 -50.25 Q-1.3 -51.05 -0.4 -51.2 L-0.1 -51.1 0.35 -50.45 M4.45 -56.5 L4.7 -56.4 Q5.55 -56.0 5.35 -55.15 L5.3 -55.0 4.65 -54.6 Q3.6 -54.65 3.2 -55.5 3.35 -56.5 4.45 -56.5" fill="#cc0000" fill-rule="evenodd" stroke="none"/>
  </g>
</svg>
