<?xml version="1.0" encoding="UTF-8" standalone="no"?>
<svg xmlns:ffdec="https://www.free-decompiler.com/flash" xmlns:xlink="http://www.w3.org/1999/xlink" ffdec:objectType="shape" height="128.9px" width="37.85px" xmlns="http://www.w3.org/2000/svg">
  <g transform="matrix(1.0, 0.0, 0.0, 1.0, 19.85, 59.05)">
    <path d="M-19.7 55.05 Q-18.85 55.0 -19.5 56.1 L-19.65 56.0 Q-19.95 55.75 -19.8 55.15 L-19.7 55.05 M-11.55 68.7 Q-11.1 69.6 -11.8 69.85 L-11.8 69.8 Q-12.5 69.05 -11.65 68.6 L-11.55 68.7 M-12.4 -48.15 Q-13.05 -48.2 -13.3 -48.8 L-13.35 -49.1 -13.15 -49.55 Q-12.3 -50.05 -11.65 -49.25 L-11.55 -48.95 -11.55 -48.65 -11.6 -48.5 Q-11.85 -48.05 -12.4 -48.1 L-12.4 -48.15 M-4.3 -53.65 Q-3.95 -54.35 -3.2 -54.05 L-2.9 -53.75 Q-2.45 -53.15 -2.7 -52.45 L-2.85 -52.35 -3.35 -52.05 -3.35 -52.1 Q-3.8 -52.1 -4.05 -52.45 L-4.2 -52.85 -4.3 -53.65 M13.15 37.7 Q13.6 38.5 13.0 39.1 L13.0 39.05 Q12.3 38.4 13.0 37.6 L13.15 37.7 M17.95 -34.85 Q17.8 -34.4 17.25 -34.35 L17.05 -34.4 Q16.7 -34.5 16.6 -34.85 16.35 -35.65 17.25 -35.8 L17.6 -35.7 Q18.0 -35.45 18.0 -35.0 L17.95 -34.85 M4.4 -53.5 L4.35 -53.8 Q4.25 -54.6 4.55 -55.25 5.1 -55.75 5.65 -55.25 L5.85 -54.8 5.75 -53.5 5.65 -53.35 5.1 -53.1 4.4 -53.5 M0.1 -51.85 Q0.5 -51.6 0.55 -51.15 L0.5 -51.0 Q0.35 -50.55 -0.2 -50.5 L-0.45 -50.55 -0.9 -50.95 Q-1.1 -51.8 -0.2 -51.95 L0.1 -51.85 M5.15 -58.1 L5.1 -57.95 Q4.8 -57.5 4.25 -57.55 L3.95 -57.7 Q3.45 -57.95 3.55 -58.5 3.95 -59.3 4.8 -58.95 L5.05 -58.7 Q5.3 -58.45 5.15 -58.1" fill="#cc0000" fill-rule="evenodd" stroke="none"/>
  </g>
</svg>
