<?xml version="1.0" encoding="UTF-8" standalone="no"?>
<svg xmlns:ffdec="https://www.free-decompiler.com/flash" xmlns:xlink="http://www.w3.org/1999/xlink" ffdec:objectType="shape" height="129.85px" width="34.0px" xmlns="http://www.w3.org/2000/svg">
  <g transform="matrix(1.0, 0.0, 0.0, 1.0, 20.4, 60.25)">
    <path d="M-12.4 68.55 Q-11.55 68.5 -12.2 69.6 L-12.35 69.5 Q-12.65 69.25 -12.5 68.65 L-12.4 68.55 M-20.35 56.4 L-20.25 56.3 Q-19.35 56.25 -20.05 57.35 L-20.15 57.25 Q-20.45 57.0 -20.35 56.4 M-2.6 -56.4 L-2.35 -56.05 -2.25 -55.5 -2.25 -55.35 Q-2.4 -54.85 -2.95 -54.8 L-2.95 -54.85 Q-3.4 -54.85 -3.65 -55.2 L-3.75 -55.65 -3.65 -56.1 Q-3.25 -56.65 -2.6 -56.4 M-13.2 -50.4 L-12.9 -50.25 Q-12.45 -50.05 -12.45 -49.6 L-12.5 -49.45 Q-12.65 -48.95 -13.2 -48.9 L-13.45 -48.95 -13.9 -49.4 Q-14.1 -50.2 -13.2 -50.4 M13.1 37.8 Q13.95 37.75 13.3 38.85 L13.15 38.75 Q12.85 38.5 13.0 37.9 L13.1 37.8 M0.55 -51.95 L0.5 -51.8 Q0.35 -51.3 -0.2 -51.25 L-0.45 -51.35 -0.9 -51.75 Q-1.1 -52.6 -0.2 -52.75 L0.1 -52.6 0.55 -51.95 M4.8 -59.45 L4.75 -59.3 Q4.6 -58.8 4.1 -58.75 L3.85 -58.8 Q3.5 -58.9 3.4 -59.25 3.15 -60.05 4.1 -60.25 L4.4 -60.1 Q4.8 -59.9 4.8 -59.45 M5.3 -56.3 L5.65 -56.15 Q6.05 -55.95 6.05 -55.5 L6.0 -55.35 Q5.85 -54.85 5.3 -54.8 L5.05 -54.9 4.6 -55.3 Q4.4 -56.15 5.3 -56.3" fill="#cc0000" fill-rule="evenodd" stroke="none"/>
  </g>
</svg>
