<?xml version="1.0" encoding="UTF-8" standalone="no"?>
<svg xmlns:ffdec="https://www.free-decompiler.com/flash" xmlns:xlink="http://www.w3.org/1999/xlink" ffdec:objectType="shape" height="15.85px" width="26.5px" xmlns="http://www.w3.org/2000/svg">
  <g transform="matrix(1.0, 0.0, 0.0, 1.0, 24.95, 18.8)">
    <path d="M0.9 -13.65 Q0.2 -14.05 -0.2 -15.15 L-0.85 -16.85 Q-1.0 -17.15 -0.65 -17.15 0.75 -15.75 1.25 -13.65 L1.5 -13.5 1.55 -13.4 1.55 -13.3 1.35 -13.05 -0.65 -12.7 -0.75 -12.6 -0.9 -12.55 -1.15 -12.65 -9.1 -12.35 Q-11.65 -12.5 -13.7 -13.3 L-13.7 -13.35 -13.4 -13.55 Q-7.5 -12.5 -1.6 -13.25 -5.7 -16.15 -10.4 -17.95 -11.25 -18.25 -12.15 -17.95 L-15.7 -17.7 Q-13.85 -18.55 -11.4 -18.8 -5.55 -17.25 -0.75 -13.35 L0.85 -13.65 0.9 -13.65 M-21.8 -9.05 L-21.8 -9.15 Q-21.0 -9.85 -19.95 -10.0 L-17.9 -10.15 Q-14.0 -10.35 -10.7 -8.65 L-10.65 -8.75 -10.2 -9.4 -9.85 -9.65 -9.75 -9.7 -9.55 -9.9 Q-12.75 -11.35 -16.75 -11.3 L-24.75 -11.95 -24.8 -12.05 -24.6 -12.25 -24.5 -12.3 Q-17.0 -12.7 -9.9 -10.8 -9.2 -10.65 -8.65 -10.15 L-8.65 -9.9 -8.65 -9.8 -8.7 -9.6 -8.7 -9.5 -8.95 -9.2 -9.05 -9.15 -9.65 -8.45 -9.85 -8.15 -9.6 -8.0 -9.6 -7.95 -9.65 -7.85 Q-9.8 -7.75 -9.9 -7.75 L-10.1 -7.75 -10.2 -7.8 -10.35 -7.7 -11.2 -7.6 -11.2 -7.85 -11.15 -8.0 -11.0 -8.2 Q-16.15 -10.55 -21.7 -8.75 L-21.75 -8.85 -21.8 -8.95 -21.8 -9.05 M-24.65 -5.05 L-11.95 -4.5 Q-10.1 -6.5 -7.9 -8.1 L-7.5 -8.3 -6.9 -8.15 -6.85 -8.05 -6.85 -8.0 -7.05 -7.75 Q-9.05 -6.6 -10.8 -4.95 L-9.5 -5.8 Q-9.15 -4.9 -10.65 -4.2 L-11.7 -3.6 -12.1 -3.65 Q-13.35 -2.45 -15.2 -3.35 L-17.0 -3.85 -18.65 -4.2 -24.15 -4.3 Q-24.8 -4.3 -24.95 -4.8 L-24.8 -5.05 -24.65 -5.05 M-13.3 -3.75 L-13.0 -3.7 -12.75 -3.7 -13.3 -3.75" fill="#cc0000" fill-rule="evenodd" stroke="none"/>
  </g>
</svg>
