<?xml version="1.0" encoding="UTF-8" standalone="no"?>
<svg xmlns:ffdec="https://www.free-decompiler.com/flash" xmlns:xlink="http://www.w3.org/1999/xlink" ffdec:objectType="shape" height="20.4px" width="33.55px" xmlns="http://www.w3.org/2000/svg">
  <g transform="matrix(1.0, 0.0, 0.0, 1.0, 34.05, 23.05)">
    <path d="M-23.8 -22.3 L-23.65 -22.55 -23.5 -22.55 Q-18.15 -21.5 -13.2 -19.55 L-13.15 -19.5 -13.15 -19.2 -13.25 -19.1 -14.1 -19.25 -14.2 -19.35 -14.3 -19.45 -23.75 -22.2 -23.8 -22.3 M-23.75 -21.05 Q-23.3 -21.05 -23.4 -20.65 L-23.45 -20.55 -25.6 -19.6 Q-26.55 -19.2 -26.8 -19.9 L-23.75 -21.05 M-34.05 -12.35 L-33.75 -12.55 -29.1 -12.5 -17.95 -12.35 Q-16.7 -12.35 -15.95 -11.75 L-16.0 -11.65 -16.25 -11.45 -29.1 -11.95 -33.95 -12.1 -34.05 -12.3 -34.05 -12.35 M-23.05 -4.1 L-23.15 -4.05 Q-25.4 -3.85 -27.05 -4.55 L-20.0 -5.15 Q-19.55 -5.0 -19.8 -4.65 L-19.95 -4.55 -22.9 -4.25 -23.05 -4.1 M-26.7 -7.8 Q-25.5 -9.55 -22.9 -9.65 L-17.5 -10.15 -16.75 -10.0 -16.7 -9.9 -16.7 -9.8 -16.9 -9.55 Q-21.5 -9.3 -25.9 -8.15 L-26.05 -7.8 Q-26.15 -7.5 -26.4 -7.45 L-26.6 -7.5 -26.7 -7.8 M-2.65 -23.05 L-2.4 -22.9 -2.3 -22.8 -0.5 -18.5 -0.5 -18.3 -0.75 -18.2 -0.95 -18.25 -1.75 -19.95 -1.8 -20.05 Q-2.7 -21.45 -2.7 -23.0 L-2.65 -23.05 M-9.95 -18.0 L-10.05 -17.8 -10.25 -17.7 -11.35 -18.15 -11.45 -18.25 Q-12.05 -18.25 -12.5 -18.65 L-12.55 -18.8 -12.45 -18.95 -12.25 -19.05 Q-10.95 -18.85 -9.95 -18.05 L-9.95 -18.0 M-10.85 -6.75 Q-11.3 -6.0 -11.05 -5.05 -10.8 -4.1 -10.95 -3.25 L-11.45 -3.35 Q-12.55 -6.4 -10.55 -8.8 L-10.4 -8.9 Q-10.05 -8.0 -10.85 -6.75 M-15.25 -3.55 L-11.65 -3.1 -11.6 -3.05 -11.6 -3.0 -11.7 -2.8 -11.8 -2.75 Q-13.95 -2.45 -15.55 -3.3 L-15.55 -3.35 -15.35 -3.5 -15.25 -3.55" fill="#cc0000" fill-rule="evenodd" stroke="none"/>
  </g>
</svg>
