<?xml version="1.0" encoding="UTF-8" standalone="no"?>
<svg xmlns:ffdec="https://www.free-decompiler.com/flash" xmlns:xlink="http://www.w3.org/1999/xlink" ffdec:objectType="shape" height="28.2px" width="37.1px" xmlns="http://www.w3.org/2000/svg">
  <g transform="matrix(1.0, 0.0, 0.0, 1.0, 38.55, 29.65)">
    <path d="M-3.65 -29.65 Q-2.75 -27.35 -3.0 -24.65 L-3.05 -24.55 -3.55 -24.6 -3.7 -29.65 -3.65 -29.65 M-25.2 -22.65 L-27.5 -22.95 -29.5 -23.25 Q-31.55 -23.3 -33.05 -23.9 L-33.05 -23.95 -32.95 -24.05 -32.85 -24.1 -32.75 -24.15 Q-28.6 -24.6 -25.2 -22.7 L-25.2 -22.65 M-35.25 -19.95 L-35.55 -20.3 -35.5 -20.55 -35.45 -20.75 -33.25 -22.05 Q-32.75 -21.3 -34.2 -20.65 L-35.25 -19.95 M-32.65 -2.55 Q-33.35 -2.7 -33.7 -3.25 L-33.7 -3.3 -28.0 -4.4 Q-27.55 -3.45 -29.5 -3.4 -31.2 -3.35 -32.25 -2.7 -32.4 -2.5 -32.65 -2.55 M-30.55 -8.05 L-30.55 -8.15 -30.4 -8.4 -29.85 -8.45 -28.9 -8.65 -27.9 -8.7 -25.15 -9.3 Q-24.7 -9.4 -24.6 -8.95 L-24.65 -8.9 -27.25 -7.95 -28.25 -8.0 -30.45 -7.95 -30.55 -8.05 M-38.55 -11.55 Q-36.5 -12.25 -34.0 -12.3 L-31.65 -12.55 -29.65 -12.4 -29.6 -12.3 -29.6 -12.25 -29.8 -12.0 -38.45 -11.35 -38.55 -11.55 M-28.65 -7.4 L-28.2 -6.8 -28.2 -6.7 Q-28.45 -6.3 -28.85 -6.6 -29.2 -7.15 -28.65 -7.4 M-2.8 -22.15 Q-2.9 -22.5 -2.65 -22.7 L-2.5 -22.8 Q-1.6 -21.75 -1.45 -20.3 L-1.45 -20.25 -1.95 -20.35 -2.75 -22.05 -2.8 -22.15 M-13.9 -19.9 Q-12.7 -19.7 -11.65 -19.15 L-11.6 -19.05 -11.7 -18.8 -11.8 -18.75 Q-13.25 -18.75 -14.2 -19.65 L-14.05 -19.85 -13.9 -19.9 M-15.75 -7.65 L-13.95 -4.05 -13.95 -3.95 Q-14.1 -3.6 -14.45 -3.75 -15.85 -5.4 -15.9 -7.5 L-15.75 -7.65 M-17.9 -3.65 L-14.7 -1.8 -14.7 -1.75 -14.8 -1.55 -15.0 -1.45 Q-16.9 -2.05 -18.2 -3.4 L-18.1 -3.55 -17.9 -3.65" fill="#cc0000" fill-rule="evenodd" stroke="none"/>
  </g>
</svg>
