<?xml version="1.0" encoding="UTF-8" standalone="no"?>
<svg xmlns:ffdec="https://www.free-decompiler.com/flash" xmlns:xlink="http://www.w3.org/1999/xlink" ffdec:objectType="shape" height="32.2px" width="41.05px" xmlns="http://www.w3.org/2000/svg">
  <g transform="matrix(1.0, 0.0, 0.0, 1.0, 43.2, 33.15)">
    <path d="M-40.8 -24.4 L-37.75 -24.9 Q-36.35 -25.15 -35.35 -24.4 L-35.35 -24.3 -35.4 -24.25 -35.55 -24.1 -35.65 -24.05 -40.8 -24.3 -40.8 -24.4 M-41.95 -20.5 L-42.1 -20.5 -42.25 -20.8 -42.2 -20.9 -42.15 -21.0 -42.05 -21.05 Q-41.8 -21.85 -41.0 -22.15 -40.65 -21.25 -41.95 -20.5 M-43.2 -10.4 L-40.85 -11.4 -38.5 -12.05 Q-36.9 -12.4 -35.7 -11.65 L-35.7 -11.55 -35.75 -11.5 -35.9 -11.35 -36.0 -11.3 Q-39.25 -11.95 -41.9 -10.25 -42.8 -9.75 -43.2 -10.4 M-4.15 -33.15 Q-3.65 -31.4 -4.8 -29.6 L-4.9 -29.55 Q-5.25 -29.6 -5.2 -29.9 -4.85 -30.8 -4.75 -31.85 L-4.7 -32.05 -4.6 -32.2 -4.55 -32.3 -4.25 -33.1 -4.15 -33.15 M-35.05 -7.3 Q-34.6 -8.05 -33.65 -8.1 L-32.4 -8.3 -31.0 -8.15 -30.95 -8.05 -30.95 -8.0 -31.15 -7.75 -33.65 -7.35 -34.3 -7.25 -34.45 -7.1 Q-34.55 -6.95 -34.75 -6.95 L-34.95 -7.0 -35.05 -7.3 M-37.8 -1.4 L-37.65 -1.65 -37.3 -1.75 Q-36.4 -2.55 -35.25 -2.9 -34.75 -3.0 -34.7 -2.55 L-34.7 -2.5 Q-35.75 -2.25 -35.85 -1.65 -36.7 -0.55 -37.8 -1.4 M-30.75 -6.15 L-30.2 -5.65 -30.2 -5.55 Q-30.6 -5.05 -31.0 -5.55 -31.2 -5.85 -30.9 -6.05 L-30.75 -6.15 M-2.2 -22.1 L-2.25 -22.0 Q-2.6 -21.85 -2.7 -22.2 -3.15 -23.45 -2.65 -24.3 -1.95 -23.4 -2.2 -22.1 M-15.05 -19.9 L-15.05 -19.95 -14.85 -20.1 -14.75 -20.15 Q-13.8 -20.25 -13.35 -19.55 L-13.35 -19.45 Q-14.2 -19.1 -15.05 -19.8 L-15.05 -19.9 M-18.75 -6.4 Q-17.85 -5.35 -16.6 -4.65 L-16.6 -4.55 Q-16.75 -4.2 -17.15 -4.3 -18.4 -4.85 -19.05 -5.95 L-19.05 -6.15 -18.9 -6.4 -18.75 -6.4 M-19.5 -3.9 Q-19.05 -2.65 -18.9 -1.15 L-18.95 -1.05 -19.45 -1.1 Q-20.15 -2.5 -19.6 -3.85 L-19.5 -3.9" fill="#cc0000" fill-rule="evenodd" stroke="none"/>
  </g>
</svg>
