<?xml version="1.0" encoding="UTF-8" standalone="no"?>
<svg xmlns:ffdec="https://www.free-decompiler.com/flash" xmlns:xlink="http://www.w3.org/1999/xlink" ffdec:objectType="shape" height="36.15px" width="45.4px" xmlns="http://www.w3.org/2000/svg">
  <g transform="matrix(1.0, 0.0, 0.0, 1.0, 47.55, 35.8)">
    <path d="M-42.0 -24.9 L-41.85 -24.8 -41.85 -24.75 -42.05 -24.5 -45.55 -24.65 -45.55 -24.7 -44.5 -25.05 -42.0 -24.9 M-47.15 -21.0 L-47.25 -20.95 Q-47.6 -21.0 -47.55 -21.4 L-47.0 -22.25 -46.9 -22.3 Q-46.25 -21.7 -47.15 -21.0 M-40.65 -11.15 L-40.7 -11.05 Q-43.1 -10.5 -44.2 -8.65 L-44.3 -8.55 Q-44.6 -8.45 -44.7 -8.8 L-44.55 -9.45 -44.45 -9.75 Q-43.05 -10.9 -41.25 -11.5 L-41.0 -11.55 Q-40.55 -11.55 -40.65 -11.15 M-4.45 -35.3 L-4.5 -35.2 -4.95 -34.55 -5.0 -34.45 -5.9 -33.8 Q-6.25 -33.85 -6.2 -34.15 L-4.85 -35.75 -4.75 -35.8 Q-4.35 -35.7 -4.45 -35.3 M-35.1 -7.15 L-35.1 -7.05 -35.3 -6.8 -37.45 -6.65 -37.45 -6.7 Q-37.05 -7.35 -36.1 -7.4 L-35.9 -7.4 -35.15 -7.25 -35.1 -7.15 M-39.2 -0.35 L-39.25 -0.25 Q-39.0 -0.05 -39.2 0.2 L-39.3 0.25 Q-39.9 0.5 -40.2 0.05 -40.0 -0.75 -39.15 -1.15 -38.55 -0.8 -39.2 -0.35 M-31.65 -4.9 L-31.6 -4.8 -31.65 -4.65 -31.8 -4.5 Q-32.35 -4.4 -32.45 -4.9 L-32.3 -5.15 -32.15 -5.15 Q-31.85 -5.2 -31.65 -4.9 M-20.55 -5.8 L-20.4 -5.8 Q-19.6 -4.95 -18.45 -4.6 L-18.45 -4.55 -18.65 -4.35 -18.75 -4.3 Q-20.3 -4.2 -20.7 -5.55 L-20.55 -5.8 M-20.95 -2.65 L-20.4 -3.15 Q-19.85 -2.25 -21.05 -1.5 L-21.2 -1.5 -21.3 -1.8 -21.3 -1.9 -21.2 -2.0 -21.15 -2.05 -21.0 -2.55 -20.95 -2.65 M-2.35 -24.5 L-2.25 -24.4 -2.15 -23.3 -2.25 -23.1 Q-2.5 -22.95 -2.7 -23.2 L-2.7 -23.3 Q-3.1 -24.2 -2.65 -24.65 L-2.35 -24.5 M-14.45 -20.05 L-14.45 -20.0 -14.65 -19.75 -14.75 -19.7 Q-15.4 -19.6 -15.55 -20.15 L-15.4 -20.4 -15.25 -20.4 Q-14.75 -20.4 -14.45 -20.05" fill="#cc0000" fill-rule="evenodd" stroke="none"/>
  </g>
</svg>
