<?xml version="1.0" encoding="UTF-8" standalone="no"?>
<svg xmlns:ffdec="https://www.free-decompiler.com/flash" xmlns:xlink="http://www.w3.org/1999/xlink" ffdec:objectType="shape" height="39.8px" width="49.55px" xmlns="http://www.w3.org/2000/svg">
  <g transform="matrix(1.0, 0.0, 0.0, 1.0, 51.7, 38.05)">
    <path d="M-46.4 -25.0 L-46.35 -24.9 -46.35 -24.8 -46.55 -24.55 -49.05 -24.6 -49.05 -24.65 Q-48.5 -25.15 -47.55 -25.15 L-47.4 -25.15 -46.4 -25.0 M-50.9 -21.15 L-50.95 -21.05 -51.45 -21.1 Q-51.95 -21.75 -51.5 -22.25 L-51.4 -22.3 Q-50.85 -21.9 -50.9 -21.15 M-44.55 -8.1 L-44.8 -7.4 -45.3 -7.45 Q-45.55 -9.0 -44.6 -10.1 L-44.5 -10.15 Q-44.25 -9.35 -44.55 -8.1 M-5.25 -38.05 Q-4.8 -38.15 -4.7 -37.7 L-4.7 -37.65 Q-5.8 -36.85 -6.95 -36.95 -6.55 -37.85 -5.25 -38.05 M-2.4 -24.9 Q-1.9 -24.45 -2.35 -23.75 L-2.4 -23.75 Q-2.7 -23.65 -2.8 -23.95 -2.95 -24.5 -2.5 -24.85 L-2.4 -24.9 M-38.7 -6.65 L-38.1 -6.9 -37.9 -6.9 -37.15 -6.75 -37.1 -6.65 -37.1 -6.55 -37.3 -6.3 -38.75 -6.25 -38.8 -6.3 -38.8 -6.4 -38.75 -6.55 -38.7 -6.65 M-32.2 -4.4 L-32.2 -4.3 Q-32.35 -3.95 -32.7 -4.1 -33.25 -4.55 -32.65 -4.8 L-32.2 -4.4 M-21.85 -5.35 L-21.65 -5.4 Q-20.85 -5.2 -20.2 -4.8 L-20.15 -4.75 -20.15 -4.55 -20.25 -4.35 Q-21.4 -4.35 -21.95 -5.15 L-21.85 -5.35 M-22.15 -2.1 L-22.35 -2.1 -22.5 -2.4 -22.45 -2.5 -21.65 -2.9 Q-21.0 -2.3 -22.15 -2.1 M-15.65 -20.55 Q-15.05 -20.55 -15.3 -20.05 L-15.4 -20.0 Q-16.35 -20.05 -15.65 -20.55 M-40.7 1.1 L-40.75 1.2 -40.7 1.4 -40.75 1.6 Q-41.35 1.95 -41.7 1.45 -41.55 0.85 -41.0 0.6 -40.45 0.65 -40.7 1.1" fill="#cc0000" fill-rule="evenodd" stroke="none"/>
  </g>
</svg>
