<?xml version="1.0" encoding="UTF-8" standalone="no"?>
<svg xmlns:ffdec="https://www.free-decompiler.com/flash" xmlns:xlink="http://www.w3.org/1999/xlink" ffdec:objectType="shape" height="42.9px" width="52.3px" xmlns="http://www.w3.org/2000/svg">
  <g transform="matrix(1.0, 0.0, 0.0, 1.0, 54.4, 40.65)">
    <path d="M-49.5 -25.0 L-49.45 -24.9 -49.45 -24.8 -49.65 -24.55 Q-50.35 -24.15 -50.8 -24.55 L-50.8 -24.65 -50.6 -25.0 -50.45 -25.1 -50.25 -25.15 -49.5 -25.0 M-53.4 -21.45 L-53.35 -21.4 Q-53.35 -21.1 -53.65 -21.05 -54.8 -21.5 -54.15 -22.05 -53.65 -21.85 -53.4 -21.45 M-45.3 -8.1 L-45.3 -8.0 -44.2 -7.0 -44.5 -6.8 -44.65 -6.8 Q-45.5 -7.1 -45.95 -7.9 -46.1 -8.5 -45.75 -8.85 L-45.65 -8.9 Q-45.2 -8.65 -45.3 -8.1 M-5.1 -39.75 L-5.3 -39.5 -5.4 -39.45 Q-6.6 -39.6 -7.2 -40.4 L-6.9 -40.65 Q-5.9 -40.4 -5.1 -39.8 L-5.1 -39.75 M-38.35 -6.45 L-38.4 -6.4 Q-38.7 -6.0 -39.2 -6.15 L-39.3 -6.2 Q-39.4 -6.55 -39.1 -6.75 L-38.9 -6.8 Q-38.45 -6.9 -38.35 -6.45 M-33.1 -4.15 L-33.2 -4.2 Q-33.3 -4.5 -33.05 -4.6 L-32.9 -4.65 Q-32.25 -4.15 -33.1 -4.15 M-21.75 -5.15 L-21.7 -5.05 -21.7 -5.0 Q-21.7 -4.8 -21.9 -4.75 -22.6 -4.5 -22.7 -5.05 L-22.7 -5.1 -22.4 -5.3 -21.75 -5.15 M-22.65 -2.5 Q-23.6 -2.55 -22.9 -3.05 -22.3 -3.05 -22.55 -2.55 L-22.65 -2.5 M-2.35 -24.25 Q-2.85 -24.1 -2.8 -24.65 L-2.4 -25.05 Q-1.9 -24.85 -2.25 -24.35 L-2.35 -24.25 M-15.9 -20.8 Q-15.3 -20.8 -15.55 -20.3 L-15.65 -20.25 Q-16.6 -20.3 -15.9 -20.8 M-41.4 1.95 L-41.4 2.05 -42.3 1.95 -42.2 1.6 -42.1 1.5 -41.75 1.35 Q-41.35 1.5 -41.4 1.95" fill="#cc0000" fill-rule="evenodd" stroke="none"/>
  </g>
</svg>
