<?xml version="1.0" encoding="UTF-8" standalone="no"?>
<svg xmlns:ffdec="https://www.free-decompiler.com/flash" xmlns:xlink="http://www.w3.org/1999/xlink" ffdec:objectType="shape" height="44.85px" width="54.0px" xmlns="http://www.w3.org/2000/svg">
  <g transform="matrix(1.0, 0.0, 0.0, 1.0, 55.95, 42.4)">
    <path d="M-51.5 -25.05 Q-51.0 -25.15 -50.95 -24.7 L-50.95 -24.65 Q-51.4 -24.15 -51.95 -24.45 L-51.7 -25.0 -51.5 -25.05 M-55.4 -21.05 L-55.95 -21.5 -55.95 -21.55 -55.8 -21.75 -55.65 -21.8 Q-55.15 -21.8 -54.95 -21.35 L-54.95 -21.3 -55.25 -21.05 -55.4 -21.05 M-45.3 -6.95 L-45.0 -7.15 -44.0 -7.0 -43.95 -6.9 -43.95 -6.8 -44.15 -6.55 Q-45.1 -6.2 -45.3 -6.9 L-45.3 -6.95 M-46.65 -8.55 L-46.5 -8.5 -46.4 -8.4 -45.65 -7.45 -45.6 -7.3 Q-45.75 -6.95 -46.1 -7.1 -47.25 -7.85 -46.65 -8.55 M-2.45 -24.8 L-2.55 -24.85 Q-2.65 -25.15 -2.35 -25.3 L-2.25 -25.3 Q-1.6 -24.8 -2.45 -24.8 M-7.15 -42.4 L-5.85 -41.1 -5.85 -41.05 Q-6.0 -40.7 -6.35 -40.85 -7.7 -41.6 -7.15 -42.4 M-33.0 -4.55 Q-32.35 -4.05 -33.2 -4.05 L-33.3 -4.1 Q-33.4 -4.4 -33.1 -4.55 L-33.0 -4.55 M-39.4 -6.8 Q-38.75 -6.3 -39.6 -6.3 L-39.7 -6.35 -39.55 -6.8 -39.4 -6.8 M-22.95 -4.65 L-23.05 -4.7 Q-23.15 -5.0 -22.85 -5.1 L-22.75 -5.15 Q-22.1 -4.65 -22.95 -4.65 M-23.6 -2.65 L-23.7 -2.7 Q-23.8 -3.0 -23.55 -3.1 L-23.4 -3.15 Q-22.75 -2.65 -23.6 -2.65 M-16.25 -20.8 Q-15.6 -20.3 -16.45 -20.3 L-16.55 -20.35 Q-16.65 -20.65 -16.35 -20.8 L-16.25 -20.8 M-41.8 2.35 L-41.9 2.45 Q-42.85 2.35 -42.15 1.85 -41.55 1.85 -41.8 2.35" fill="#cc0000" fill-rule="evenodd" stroke="none"/>
  </g>
</svg>
