<?xml version="1.0" encoding="UTF-8" standalone="no"?>
<svg xmlns:ffdec="https://www.free-decompiler.com/flash" xmlns:xlink="http://www.w3.org/1999/xlink" ffdec:objectType="shape" height="45.85px" width="54.6px" xmlns="http://www.w3.org/2000/svg">
  <g transform="matrix(1.0, 0.0, 0.0, 1.0, 56.45, 43.4)">
    <path d="M-52.4 -24.8 Q-51.75 -24.3 -52.6 -24.3 L-52.7 -24.35 Q-52.8 -24.65 -52.55 -24.8 L-52.4 -24.8 M-55.8 -21.15 L-55.9 -21.05 Q-56.85 -21.15 -56.15 -21.65 -55.55 -21.65 -55.8 -21.15 M-44.3 -6.3 L-44.4 -6.25 Q-45.35 -6.3 -44.65 -6.8 -44.05 -6.8 -44.3 -6.3 M-46.9 -7.05 L-47.7 -7.55 -47.7 -7.65 -47.6 -7.8 -47.4 -7.9 Q-46.85 -7.95 -46.65 -7.45 L-46.6 -7.4 -46.7 -7.2 -46.9 -7.05 M-6.9 -43.4 Q-6.4 -43.1 -6.2 -42.6 L-6.15 -42.25 -6.15 -42.2 -6.15 -42.15 -6.2 -42.1 -6.25 -42.0 Q-6.75 -41.9 -6.8 -42.35 -7.1 -42.6 -7.2 -43.15 L-7.05 -43.4 -6.9 -43.4 M-2.35 -25.05 L-2.45 -25.1 Q-2.55 -25.4 -2.3 -25.55 L-2.15 -25.55 Q-1.5 -25.05 -2.35 -25.05 M-23.45 -4.55 L-23.55 -4.6 Q-23.65 -4.9 -23.35 -5.05 L-23.25 -5.05 Q-22.6 -4.55 -23.45 -4.55 M-39.95 -6.3 L-40.05 -6.35 Q-40.15 -6.65 -39.85 -6.8 L-39.75 -6.8 Q-39.1 -6.3 -39.95 -6.3 M-42.45 2.45 L-42.55 2.4 Q-42.65 2.1 -42.35 1.95 L-42.25 1.95 Q-41.6 2.45 -42.45 2.45" fill="#cc0000" fill-rule="evenodd" stroke="none"/>
  </g>
</svg>
