<?xml version="1.0" encoding="UTF-8" standalone="no"?>
<svg xmlns:ffdec="https://www.free-decompiler.com/flash" xmlns:xlink="http://www.w3.org/1999/xlink" ffdec:objectType="shape" height="46.5px" width="50.6px" xmlns="http://www.w3.org/2000/svg">
  <g transform="matrix(1.0, 0.0, 0.0, 1.0, 57.0, 44.05)">
    <path d="M-53.1 -24.15 L-53.2 -24.2 Q-53.3 -24.5 -53.05 -24.6 L-52.9 -24.65 Q-52.25 -24.15 -53.1 -24.15 M-56.85 -21.15 L-56.95 -21.2 Q-57.05 -21.5 -56.8 -21.6 L-56.65 -21.65 Q-56.0 -21.15 -56.85 -21.15 M-44.5 -6.4 Q-43.85 -5.9 -44.7 -5.9 L-44.8 -5.95 Q-44.9 -6.25 -44.6 -6.35 L-44.5 -6.4 M-47.9 -7.8 Q-47.3 -7.9 -47.4 -7.4 L-47.45 -7.3 Q-48.05 -6.95 -48.2 -7.55 L-48.1 -7.7 -47.9 -7.8 M-6.95 -43.1 L-7.1 -43.1 -7.25 -43.5 -7.2 -43.55 -6.8 -44.0 -6.65 -44.05 Q-6.05 -43.5 -6.95 -43.1 M-42.6 2.45 L-42.7 2.4 Q-42.8 2.1 -42.55 1.95 L-42.4 1.95 Q-41.75 2.45 -42.6 2.45" fill="#cc0000" fill-rule="evenodd" stroke="none"/>
  </g>
</svg>
