<?xml version="1.0" encoding="UTF-8" standalone="no"?>
<svg xmlns:ffdec="https://www.free-decompiler.com/flash" xmlns:xlink="http://www.w3.org/1999/xlink" ffdec:objectType="shape" height="38.65px" width="47.05px" xmlns="http://www.w3.org/2000/svg">
  <g transform="matrix(1.0, 0.0, 0.0, 1.0, 53.5, 44.3)">
    <path d="M-53.35 -24.05 L-53.45 -24.1 Q-53.55 -24.4 -53.3 -24.55 L-53.15 -24.55 Q-52.5 -24.05 -53.35 -24.05 M-44.6 -5.65 L-44.7 -5.7 Q-44.8 -6.0 -44.55 -6.1 L-44.4 -6.15 Q-43.75 -5.65 -44.6 -5.65 M-48.35 -7.15 L-48.45 -7.2 Q-48.55 -7.5 -48.3 -7.6 L-48.15 -7.65 Q-47.5 -7.15 -48.35 -7.15 M-6.95 -43.6 L-7.1 -43.6 -7.25 -43.9 -7.2 -44.0 -6.75 -44.3 Q-6.1 -43.9 -6.95 -43.6" fill="#cc0000" fill-rule="evenodd" stroke="none"/>
  </g>
</svg>
