<?xml version="1.0" encoding="UTF-8" standalone="no"?>
<svg xmlns:ffdec="https://www.free-decompiler.com/flash" xmlns:xlink="http://www.w3.org/1999/xlink" ffdec:objectType="shape" height="15.5px" width="24.1px" xmlns="http://www.w3.org/2000/svg">
  <g transform="matrix(1.0, 0.0, 0.0, 1.0, 21.2, 16.55)">
    <path d="M2.9 -14.3 L2.9 -14.25 2.7 -14.0 2.6 -13.95 Q0.4 -14.55 -0.1 -16.5 L0.0 -16.55 Q1.25 -15.2 2.9 -14.3 M2.65 -13.4 L2.6 -13.25 2.45 -13.05 -4.1 -13.35 -5.2 -14.5 -5.2 -15.0 -5.0 -15.15 Q-3.1 -12.95 0.0 -13.6 L2.65 -13.4 M-20.95 -5.4 L-20.95 -5.45 Q-20.6 -5.8 -20.05 -5.8 L-19.65 -5.8 -13.1 -5.55 -12.95 -5.3 -13.0 -5.25 -13.05 -5.15 -13.15 -5.1 -13.25 -5.05 -20.85 -5.2 -20.95 -5.4 M-18.45 -12.65 L-18.3 -12.9 -18.15 -12.9 Q-10.95 -11.95 -3.9 -13.05 -3.35 -12.45 -4.25 -12.2 L-4.3 -12.15 -7.15 -11.2 -7.15 -11.1 -7.25 -10.9 -7.6 -10.75 -8.4 -9.9 -8.35 -9.7 -8.4 -9.65 Q-11.3 -8.25 -14.65 -7.95 -15.25 -7.9 -15.3 -8.4 L-13.35 -8.85 Q-14.75 -9.1 -15.45 -10.15 -15.35 -10.5 -14.95 -10.35 -11.95 -8.9 -8.7 -10.25 L-7.15 -11.85 -18.4 -12.55 -18.45 -12.65 M-18.45 -3.0 L-17.9 -3.3 Q-17.35 -3.05 -17.8 -2.6 L-17.85 -2.5 -16.6 -1.3 -16.8 -1.1 -16.9 -1.05 -21.2 -1.8 Q-20.25 -3.15 -18.7 -2.65 L-18.8 -2.4 -18.9 -2.3 -19.5 -2.15 -18.45 -2.15 -18.45 -2.8 -18.45 -3.0" fill="#cc0000" fill-rule="evenodd" stroke="none"/>
  </g>
</svg>
