<?xml version="1.0" encoding="UTF-8" standalone="no"?>
<svg xmlns:ffdec="https://www.free-decompiler.com/flash" xmlns:xlink="http://www.w3.org/1999/xlink" ffdec:objectType="shape" height="19.25px" width="28.45px" xmlns="http://www.w3.org/2000/svg">
  <g transform="matrix(1.0, 0.0, 0.0, 1.0, 25.45, 19.55)">
    <path d="M3.0 -17.7 L2.95 -17.65 Q2.55 -17.45 2.3 -17.9 L2.25 -18.05 2.25 -18.15 1.8 -18.8 1.75 -18.9 Q1.1 -19.3 1.75 -19.55 2.8 -18.95 3.0 -17.7 M-23.8 -12.45 Q-24.1 -12.4 -24.2 -12.7 L-24.1 -12.95 -23.5 -13.25 -23.0 -13.4 -13.4 -12.35 -13.35 -12.3 Q-14.5 -11.5 -16.3 -12.0 L-17.7 -12.3 -23.05 -12.75 -23.4 -12.55 -23.8 -12.45 M-23.25 -6.4 L-18.4 -5.95 -18.35 -5.9 -18.35 -5.8 -18.4 -5.75 -18.45 -5.65 -18.55 -5.55 -25.2 -5.8 -25.2 -5.9 -25.1 -6.0 -23.55 -6.35 -23.25 -6.4 M-25.45 -1.4 Q-25.0 -2.1 -23.75 -2.05 L-23.0 -1.9 -22.95 -1.8 -22.95 -1.75 -23.15 -1.5 -24.2 -1.25 Q-23.8 -1.15 -23.55 -0.85 L-23.45 -0.55 -23.5 -0.45 -23.95 -0.35 Q-24.55 -0.85 -25.35 -1.15 L-25.45 -1.4 M-21.4 -2.95 Q-21.35 -3.15 -21.15 -3.15 -20.75 -3.0 -20.85 -2.55 L-20.85 -2.45 -19.95 -2.0 Q-19.7 -1.75 -19.75 -1.4 L-19.75 -1.3 Q-19.85 -1.2 -20.0 -1.2 L-20.2 -1.25 Q-20.75 -1.75 -21.45 -2.1 L-21.4 -2.95 M-5.65 -14.2 Q-8.5 -15.65 -11.25 -17.4 -11.9 -17.8 -12.7 -17.9 -12.85 -17.95 -12.8 -18.15 L-12.8 -18.2 -12.6 -18.35 -12.5 -18.4 Q-9.45 -17.8 -6.95 -15.65 L-5.35 -14.5 -5.4 -14.4 -5.55 -14.25 -5.65 -14.2 M-0.65 -13.2 L-0.6 -13.15 -0.6 -13.05 -0.9 -12.75 Q-2.95 -12.75 -4.55 -13.65 L-4.55 -13.7 -4.25 -13.9 -0.65 -13.2 M-12.1 -9.7 L-12.15 -9.65 -13.2 -9.6 -13.25 -9.9 -13.2 -10.05 Q-11.65 -11.7 -9.25 -12.0 L-8.9 -12.05 Q-8.4 -12.1 -8.5 -11.65 L-8.55 -11.55 -12.4 -10.15 -12.1 -9.7 M-14.75 -7.65 L-16.7 -7.1 Q-17.8 -6.75 -18.3 -7.65 L-18.15 -7.9 -18.0 -7.9 -17.4 -7.7 Q-15.45 -8.15 -13.65 -8.9 -13.15 -8.1 -14.75 -7.65 M-14.1 -9.0 Q-16.6 -10.85 -19.15 -9.65 L-19.2 -9.5 -19.25 -9.4 Q-19.35 -9.3 -19.5 -9.3 L-19.7 -9.35 Q-20.0 -9.9 -19.45 -10.25 L-18.15 -11.05 Q-15.5 -10.65 -13.2 -9.3 L-13.2 -9.25 -13.25 -9.15 -13.4 -9.0 -13.5 -8.95 -13.9 -8.95 -14.1 -9.0" fill="#cc0000" fill-rule="evenodd" stroke="none"/>
  </g>
</svg>
