<?xml version="1.0" encoding="UTF-8" standalone="no"?>
<svg xmlns:ffdec="https://www.free-decompiler.com/flash" xmlns:xlink="http://www.w3.org/1999/xlink" ffdec:objectType="shape" height="21.6px" width="36.35px" xmlns="http://www.w3.org/2000/svg">
  <g transform="matrix(1.0, 0.0, 0.0, 1.0, 31.8, 21.3)">
    <path d="M4.55 -20.5 L4.55 -20.4 4.45 -20.15 4.25 -20.05 Q3.2 -20.5 3.5 -21.25 L3.6 -21.3 4.55 -20.5 M-20.75 -19.1 Q-20.35 -19.35 -19.9 -19.4 -16.6 -19.9 -13.85 -18.55 L-13.85 -18.5 -13.9 -18.4 -14.05 -18.25 -14.15 -18.2 -20.95 -18.6 -20.95 -18.7 -20.95 -18.8 -20.95 -18.85 -20.9 -19.0 -20.75 -19.1 M-22.4 -13.15 L-22.35 -13.05 -22.35 -13.0 -22.55 -12.75 -31.8 -12.15 -31.8 -12.2 Q-29.8 -13.3 -27.0 -13.25 L-23.3 -13.3 -23.15 -13.3 -22.4 -13.15 M-22.45 -10.15 Q-20.65 -9.85 -19.0 -10.8 -18.5 -10.9 -18.45 -10.45 L-18.45 -10.4 Q-20.65 -8.9 -22.95 -9.75 L-23.1 -10.2 -22.95 -10.5 Q-22.65 -10.7 -22.45 -10.3 L-22.45 -10.15 M-29.55 -6.55 L-29.4 -6.55 -29.15 -6.6 -29.0 -6.65 Q-26.8 -6.75 -24.95 -6.05 L-24.95 -6.0 -25.0 -5.9 -25.15 -5.75 -25.25 -5.7 -29.7 -6.2 -29.7 -6.3 -29.6 -6.45 -29.55 -6.55 M-26.7 -1.05 L-26.7 -1.0 Q-27.3 -0.6 -28.05 -0.5 L-27.35 0.0 -27.45 0.2 -27.65 0.3 Q-28.3 0.35 -28.7 -0.15 L-28.75 -0.5 -28.65 -0.8 -27.25 -1.4 Q-26.75 -1.5 -26.7 -1.05 M-23.4 -1.95 L-23.35 -1.9 Q-23.35 -1.7 -23.5 -1.6 L-23.65 -1.55 -24.7 -2.25 -24.8 -2.3 -24.7 -2.95 -24.5 -3.05 -23.4 -1.95 M-9.7 -17.1 Q-8.8 -16.5 -7.75 -16.0 L-7.6 -15.75 -7.65 -15.65 -7.8 -15.5 -7.9 -15.45 Q-9.45 -16.0 -10.55 -16.9 L-10.55 -16.95 -10.35 -17.1 -10.25 -17.15 -9.9 -17.15 -9.7 -17.1 M-5.4 -14.65 L-3.35 -13.4 -3.35 -13.3 -3.45 -13.15 -3.65 -13.05 Q-5.3 -13.35 -5.5 -14.6 L-5.4 -14.65 M-13.7 -11.4 L-11.65 -12.3 Q-11.2 -11.45 -12.85 -10.9 L-13.8 -10.95 -13.75 -11.3 -13.7 -11.4 M-14.9 -10.55 L-14.6 -10.35 -14.55 -10.25 Q-14.0 -10.45 -13.7 -10.05 L-13.8 -9.8 -13.9 -9.75 -14.65 -9.55 Q-15.2 -9.7 -15.2 -10.25 L-15.2 -10.35 -15.05 -10.55 -14.9 -10.55 M-16.65 -7.65 L-16.7 -7.55 Q-18.9 -6.65 -20.8 -6.7 -19.3 -7.9 -17.0 -8.05 -16.55 -8.05 -16.65 -7.65" fill="#cc0000" fill-rule="evenodd" stroke="none"/>
  </g>
</svg>
