<?xml version="1.0" encoding="UTF-8" standalone="no"?>
<svg xmlns:ffdec="https://www.free-decompiler.com/flash" xmlns:xlink="http://www.w3.org/1999/xlink" ffdec:objectType="shape" height="23.9px" width="40.85px" xmlns="http://www.w3.org/2000/svg">
  <g transform="matrix(1.0, 0.0, 0.0, 1.0, 34.8, 23.15)">
    <path d="M6.05 -22.55 L6.05 -22.45 5.75 -22.25 5.55 -22.25 Q4.7 -22.75 5.35 -23.15 L6.05 -22.55 M-28.2 -12.8 L-28.2 -12.75 -28.4 -12.5 -33.4 -12.05 -33.7 -12.0 -33.8 -11.9 Q-34.05 -11.5 -34.5 -11.55 L-34.7 -11.6 -34.8 -11.9 -33.85 -12.55 Q-32.7 -13.05 -31.35 -12.95 L-30.65 -13.05 -28.35 -12.9 -28.2 -12.8 M-24.3 -18.75 L-26.7 -18.1 -26.8 -18.4 -26.8 -18.5 Q-25.1 -19.55 -23.15 -20.15 -22.7 -19.35 -24.3 -18.75 M-33.55 -6.6 Q-33.45 -6.8 -33.25 -6.8 L-30.0 -6.65 -29.85 -6.55 -29.85 -6.5 -30.05 -6.25 Q-31.8 -5.7 -33.4 -6.3 L-33.55 -6.55 -33.55 -6.6 M-31.2 -0.3 L-31.15 -0.3 -30.5 -0.8 Q-30.05 -0.8 -30.15 -0.4 L-30.2 -0.3 -30.45 -0.05 -30.5 0.0 -30.55 0.1 Q-31.15 0.45 -31.3 -0.15 L-31.2 -0.3 M-20.4 -7.65 Q-19.9 -7.7 -20.0 -7.25 L-20.05 -7.15 -22.2 -6.15 -22.5 -5.65 -22.65 -5.55 Q-22.9 -5.55 -22.95 -5.8 L-22.95 -5.9 Q-22.35 -7.35 -20.55 -7.65 L-20.4 -7.65 M-22.2 -10.35 L-22.2 -10.25 -26.95 -10.1 -27.3 -10.4 -27.3 -10.45 -27.1 -10.6 -27.0 -10.65 -26.7 -10.7 Q-25.75 -10.7 -24.9 -11.05 -23.15 -11.5 -22.2 -10.35 M-26.1 -2.1 L-26.1 -2.05 -26.4 -1.8 -26.5 -1.8 Q-27.25 -2.05 -26.9 -2.55 L-26.75 -2.65 -26.1 -2.1 M-9.35 -16.7 Q-10.4 -16.5 -11.45 -17.3 L-11.45 -17.4 -11.45 -17.45 -11.3 -17.6 -11.15 -17.65 Q-10.05 -17.65 -9.35 -16.75 L-9.35 -16.7 M-4.95 -13.4 L-4.95 -13.35 -5.35 -13.35 -5.45 -13.45 Q-6.1 -14.2 -6.0 -15.0 L-5.9 -15.05 Q-4.9 -14.5 -4.95 -13.4 M-14.15 -12.5 L-14.2 -12.4 Q-15.4 -11.6 -16.55 -11.7 L-16.55 -11.95 -16.45 -12.05 -14.5 -12.9 Q-14.05 -12.9 -14.15 -12.5 M-17.0 -10.65 L-15.95 -10.15 -15.95 -10.05 -16.15 -9.85 -16.25 -9.8 -16.95 -9.85 Q-17.3 -10.05 -17.25 -10.4 L-17.0 -10.65 M-29.9 0.5 L-29.95 0.6 Q-30.55 0.95 -30.7 0.35 L-30.6 0.2 -30.4 0.1 Q-29.8 0.0 -29.9 0.5" fill="#cc0000" fill-rule="evenodd" stroke="none"/>
  </g>
</svg>
