<?xml version="1.0" encoding="UTF-8" standalone="no"?>
<svg xmlns:ffdec="https://www.free-decompiler.com/flash" xmlns:xlink="http://www.w3.org/1999/xlink" ffdec:objectType="shape" height="25.85px" width="44.75px" xmlns="http://www.w3.org/2000/svg">
  <g transform="matrix(1.0, 0.0, 0.0, 1.0, 37.45, 24.55)">
    <path d="M7.3 -24.05 L7.3 -23.95 Q7.15 -23.6 6.8 -23.75 L6.45 -24.25 6.45 -24.3 6.75 -24.55 7.3 -24.05 M-28.7 -19.8 L-28.7 -19.75 -28.9 -19.6 -29.05 -19.5 Q-29.3 -19.0 -29.8 -18.75 -30.0 -18.35 -29.85 -17.85 -29.75 -17.65 -29.9 -17.45 -30.25 -17.1 -30.5 -17.55 -30.8 -19.1 -29.35 -20.05 L-29.15 -20.15 Q-28.75 -20.2 -28.7 -19.8 M-33.45 -12.15 L-33.45 -12.05 -33.65 -11.8 Q-35.45 -11.5 -37.05 -10.65 L-37.35 -10.6 -37.4 -10.7 -37.45 -11.0 Q-36.2 -11.85 -34.65 -12.3 L-34.25 -12.4 -33.5 -12.25 -33.45 -12.15 M-34.25 -6.8 L-32.65 -6.65 -32.6 -6.55 -32.6 -6.5 -32.8 -6.25 -34.5 -6.4 -34.55 -6.55 -34.55 -6.6 -34.25 -6.8 M-32.75 -0.55 Q-32.2 -0.35 -32.6 0.05 L-32.7 0.15 -32.7 0.5 -32.8 0.7 -33.3 0.65 -33.3 0.1 -33.3 -0.1 -32.75 -0.55 M-24.25 -7.15 Q-23.75 -6.75 -24.2 -6.05 L-24.2 -6.0 -24.65 -5.4 -25.45 -5.35 -25.45 -5.6 -25.4 -5.75 -25.1 -5.9 -24.35 -7.1 -24.25 -7.15 M-27.15 -10.65 Q-28.9 -9.45 -30.55 -10.05 L-27.65 -11.05 Q-27.2 -11.15 -27.1 -10.7 L-27.15 -10.65 M-28.25 -1.85 L-28.35 -1.75 Q-28.7 -1.6 -28.8 -1.95 -28.95 -2.45 -28.5 -2.55 -28.0 -2.35 -28.25 -1.85 M-6.15 -15.15 Q-5.65 -14.75 -5.9 -14.0 L-5.95 -13.9 -6.45 -13.95 Q-6.6 -14.65 -6.25 -15.1 L-6.15 -15.15 M-17.8 -13.1 L-17.65 -13.15 Q-17.2 -13.25 -17.1 -12.8 L-17.15 -12.75 Q-17.75 -12.25 -18.45 -12.1 L-18.5 -12.2 -18.55 -12.5 -17.8 -13.1 M-11.75 -17.55 L-11.8 -17.65 -11.7 -18.0 -11.5 -18.05 Q-10.85 -17.85 -10.45 -17.35 L-10.45 -17.3 -10.75 -17.05 -10.9 -17.05 -11.75 -17.55 M-18.75 -10.0 L-18.95 -10.0 -19.05 -10.35 -18.95 -10.5 -18.5 -10.65 Q-17.85 -10.15 -18.75 -10.0 M-31.2 0.95 L-31.2 1.0 Q-31.4 1.5 -31.85 1.15 -32.15 0.85 -31.75 0.65 L-31.65 0.6 -31.2 0.95" fill="#cc0000" fill-rule="evenodd" stroke="none"/>
  </g>
</svg>
