<?xml version="1.0" encoding="UTF-8" standalone="no"?>
<svg xmlns:ffdec="https://www.free-decompiler.com/flash" xmlns:xlink="http://www.w3.org/1999/xlink" ffdec:objectType="shape" height="26.8px" width="46.85px" xmlns="http://www.w3.org/2000/svg">
  <g transform="matrix(1.0, 0.0, 0.0, 1.0, 38.55, 25.35)">
    <path d="M8.25 -25.15 L8.3 -25.05 8.3 -25.0 Q8.3 -24.8 8.1 -24.75 7.4 -24.5 7.3 -25.05 L7.3 -25.1 Q7.4 -25.3 7.6 -25.3 L8.25 -25.15 M-32.5 -19.8 Q-32.05 -19.2 -33.0 -18.45 L-33.05 -18.35 Q-32.5 -18.15 -32.2 -17.75 L-32.4 -17.5 -32.5 -17.45 Q-33.15 -17.55 -33.7 -17.95 L-33.75 -18.4 -33.7 -18.6 -32.5 -19.8 M-31.5 -11.05 Q-30.95 -10.3 -32.2 -9.8 L-32.4 -9.7 -32.6 -9.4 -32.75 -9.3 Q-33.1 -9.35 -33.05 -9.75 L-31.6 -11.0 -31.5 -11.05 M-34.15 -6.65 Q-35.05 -5.85 -35.7 -6.65 -35.35 -7.1 -34.65 -7.05 -34.2 -7.15 -34.1 -6.7 L-34.15 -6.65 M-36.65 -11.65 Q-36.2 -11.5 -36.45 -11.15 L-36.55 -11.05 Q-37.6 -10.75 -38.15 -9.85 L-38.25 -9.8 Q-38.6 -9.85 -38.55 -10.25 -38.0 -11.3 -36.8 -11.65 L-36.65 -11.65 M-27.15 -6.65 Q-26.7 -6.25 -27.0 -5.5 L-27.05 -5.4 -27.55 -5.45 Q-27.75 -6.15 -27.25 -6.6 L-27.15 -6.65 M-29.75 -2.55 Q-29.1 -2.05 -29.95 -2.05 L-30.05 -2.1 Q-30.15 -2.4 -29.85 -2.55 L-29.75 -2.55 M-6.4 -15.15 Q-5.7 -14.6 -6.7 -14.25 L-6.85 -14.25 -7.0 -14.55 -6.95 -14.65 -6.4 -15.15 M-19.0 -12.7 L-19.1 -12.6 Q-19.5 -12.25 -19.7 -12.7 -19.7 -13.2 -19.25 -13.4 -18.75 -13.2 -19.0 -12.7 M-11.65 -18.3 L-11.1 -17.8 -11.1 -17.7 Q-11.25 -17.35 -11.6 -17.5 -12.3 -18.0 -11.65 -18.3 M-19.8 -10.15 L-19.9 -10.05 Q-20.85 -10.15 -20.15 -10.65 -19.55 -10.65 -19.8 -10.15 M-34.75 0.65 Q-35.1 0.8 -35.2 0.45 -35.35 -0.05 -34.9 -0.15 -34.4 0.05 -34.7 0.55 L-34.75 0.65 M-32.85 1.45 L-32.95 1.4 Q-33.05 1.1 -32.8 0.95 L-32.65 0.95 Q-32.0 1.45 -32.85 1.45" fill="#cc0000" fill-rule="evenodd" stroke="none"/>
  </g>
</svg>
