<?xml version="1.0" encoding="UTF-8" standalone="no"?>
<svg xmlns:ffdec="https://www.free-decompiler.com/flash" xmlns:xlink="http://www.w3.org/1999/xlink" ffdec:objectType="shape" height="27.5px" width="48.3px" xmlns="http://www.w3.org/2000/svg">
  <g transform="matrix(1.0, 0.0, 0.0, 1.0, 39.5, 26.05)">
    <path d="M8.3 -25.55 L8.2 -25.6 Q8.1 -25.9 8.4 -26.05 L8.5 -26.05 Q9.15 -25.55 8.3 -25.55 M-20.65 -12.75 L-20.75 -12.7 Q-21.4 -13.1 -20.75 -13.4 -20.2 -13.15 -20.65 -12.75 M-34.95 -19.25 L-34.85 -19.35 -34.85 -19.45 -34.8 -19.65 -34.4 -19.9 Q-33.9 -19.4 -34.45 -18.65 L-34.55 -18.55 Q-35.0 -18.4 -35.2 -18.8 L-34.95 -19.25 M-33.6 -17.9 L-33.6 -17.8 -33.8 -17.6 -33.9 -17.55 Q-34.6 -17.5 -34.7 -18.05 L-34.4 -18.3 Q-33.9 -18.3 -33.6 -17.9 M-34.5 -10.65 Q-33.85 -10.5 -34.3 -10.05 L-34.35 -9.95 -34.4 -9.5 -34.45 -9.3 -34.95 -9.35 Q-35.15 -10.1 -34.6 -10.6 L-34.5 -10.65 M-35.1 -6.8 L-35.1 -6.75 -35.3 -6.5 Q-35.95 -6.25 -36.05 -6.8 L-36.05 -6.85 -35.75 -7.05 -35.15 -6.9 -35.1 -6.8 M-38.65 -9.75 L-38.7 -9.7 Q-38.85 -9.35 -39.15 -9.35 L-39.35 -9.35 -39.5 -9.65 -39.45 -9.75 Q-39.3 -10.55 -38.6 -11.0 L-38.5 -11.05 Q-38.1 -10.6 -38.65 -9.75 M-30.95 -2.1 Q-31.05 -2.4 -30.8 -2.55 L-30.65 -2.55 Q-30.0 -2.05 -30.85 -2.05 L-30.95 -2.1 M-29.1 -5.8 L-29.1 -5.7 Q-29.35 -5.3 -29.7 -5.6 -30.05 -6.2 -29.5 -6.4 -29.1 -6.25 -29.1 -5.8 M-21.55 -10.35 L-21.65 -10.3 Q-22.4 -10.55 -21.75 -10.9 -21.1 -10.75 -21.55 -10.35 M-11.55 -18.05 L-11.65 -18.0 Q-12.6 -18.05 -11.9 -18.55 -11.3 -18.55 -11.55 -18.05 M-6.55 -14.75 L-6.65 -14.7 Q-7.4 -14.95 -6.75 -15.3 -6.1 -15.15 -6.55 -14.75 M-35.85 0.75 Q-36.2 0.9 -36.3 0.55 -36.45 0.05 -36.0 -0.05 -35.5 0.15 -35.75 0.65 L-35.85 0.75 M-33.45 1.45 L-33.55 1.4 Q-33.65 1.1 -33.35 0.95 L-33.25 0.95 Q-32.6 1.45 -33.45 1.45" fill="#cc0000" fill-rule="evenodd" stroke="none"/>
  </g>
</svg>
