<?xml version="1.0" encoding="UTF-8" standalone="no"?>
<svg xmlns:ffdec="https://www.free-decompiler.com/flash" xmlns:xlink="http://www.w3.org/1999/xlink" ffdec:objectType="shape" height="26.6px" width="49.55px" xmlns="http://www.w3.org/2000/svg">
  <g transform="matrix(1.0, 0.0, 0.0, 1.0, 40.25, 26.15)">
    <path d="M8.8 -25.65 L8.7 -25.7 Q8.6 -26.0 8.9 -26.1 L9.0 -26.15 Q9.65 -25.65 8.8 -25.65 M-21.95 -12.9 L-22.05 -12.95 Q-22.15 -13.25 -21.85 -13.35 L-21.75 -13.4 Q-21.1 -12.9 -21.95 -12.9 M-35.5 -19.65 Q-34.85 -19.2 -35.75 -18.85 L-35.95 -18.85 -36.05 -19.2 -36.0 -19.3 -35.5 -19.65 M-35.5 -18.15 L-34.75 -18.0 -34.7 -17.9 -34.7 -17.8 -34.9 -17.55 Q-35.65 -17.3 -35.8 -17.9 L-35.8 -17.95 -35.5 -18.15 M-35.4 -9.4 L-35.65 -9.2 -35.85 -9.25 -36.3 -9.75 Q-36.4 -10.1 -36.15 -10.3 L-36.0 -10.4 -35.4 -9.5 -35.4 -9.4 M-39.65 -9.75 L-39.7 -9.65 -40.2 -9.7 Q-40.35 -10.35 -40.0 -10.75 L-39.9 -10.8 Q-39.4 -10.45 -39.65 -9.75 M-36.05 -6.4 L-36.15 -6.3 Q-36.8 -6.7 -36.15 -7.05 -35.6 -6.8 -36.05 -6.4 M-36.5 -0.05 Q-35.85 0.45 -36.7 0.45 L-36.8 0.4 Q-36.9 0.1 -36.6 -0.05 L-36.5 -0.05 M-31.6 -2.3 L-31.7 -2.35 Q-31.8 -2.65 -31.55 -2.8 L-31.4 -2.8 Q-30.75 -2.3 -31.6 -2.3 M-31.0 -6.15 L-30.35 -5.55 -30.35 -5.45 Q-30.5 -5.1 -30.85 -5.25 -31.65 -5.8 -31.0 -6.15 M-22.7 -10.8 L-22.7 -10.75 Q-22.65 -10.55 -22.75 -10.45 L-23.0 -10.3 Q-23.8 -10.75 -23.15 -11.15 L-22.7 -10.8 M-12.35 -18.15 L-12.45 -18.2 Q-12.55 -18.5 -12.3 -18.6 L-12.15 -18.65 Q-11.5 -18.15 -12.35 -18.15 M-7.1 -15.15 L-7.2 -15.2 Q-7.3 -15.5 -7.05 -15.6 L-6.9 -15.65 Q-6.25 -15.15 -7.1 -15.15" fill="#cc0000" fill-rule="evenodd" stroke="none"/>
  </g>
</svg>
