<?xml version="1.0" encoding="UTF-8" standalone="no"?>
<svg xmlns:ffdec="https://www.free-decompiler.com/flash" xmlns:xlink="http://www.w3.org/1999/xlink" ffdec:objectType="shape" height="27.0px" width="50.9px" xmlns="http://www.w3.org/2000/svg">
  <g transform="matrix(1.0, 0.0, 0.0, 1.0, 41.1, 26.55)">
    <path d="M9.3 -26.05 L9.2 -26.1 Q9.1 -26.4 9.4 -26.55 L9.5 -26.55 Q10.15 -26.05 9.3 -26.05 M-40.75 -10.65 Q-40.35 -10.45 -40.35 -9.95 L-40.4 -9.85 Q-40.75 -9.55 -41.05 -9.95 -41.25 -10.5 -40.75 -10.65 M-22.35 -12.9 L-22.45 -12.95 Q-22.55 -13.25 -22.3 -13.35 L-22.15 -13.4 Q-21.5 -12.9 -22.35 -12.9 M-35.85 -17.35 L-36.0 -17.3 Q-36.45 -17.4 -36.25 -17.8 L-35.9 -18.05 Q-35.35 -17.8 -35.85 -17.35 M-36.05 -19.15 L-36.15 -19.05 Q-37.1 -19.15 -36.4 -19.65 -35.8 -19.65 -36.05 -19.15 M-36.35 -9.55 L-36.35 -9.5 Q-36.35 -8.95 -36.85 -9.1 -37.3 -9.65 -36.75 -9.9 L-36.35 -9.55 M-36.5 -7.05 Q-35.85 -6.55 -36.7 -6.55 L-36.8 -6.6 Q-36.9 -6.9 -36.6 -7.05 L-36.5 -7.05 M-36.9 -0.05 Q-36.25 0.45 -37.1 0.45 L-37.2 0.4 Q-37.3 0.1 -37.05 -0.05 L-36.9 -0.05 M-31.95 -2.4 L-32.05 -2.45 Q-32.15 -2.75 -31.85 -2.85 L-31.75 -2.9 Q-31.1 -2.4 -31.95 -2.4 M-31.9 -5.9 Q-31.3 -5.9 -31.55 -5.4 L-31.65 -5.3 Q-32.6 -5.4 -31.9 -5.9 M-24.05 -10.65 L-24.15 -10.55 Q-25.1 -10.65 -24.4 -11.15 -23.8 -11.15 -24.05 -10.65 M-12.6 -18.4 L-12.7 -18.45 Q-12.8 -18.75 -12.55 -18.85 L-12.4 -18.9 Q-11.75 -18.4 -12.6 -18.4 M-7.2 -15.3 L-7.3 -15.35 Q-7.4 -15.65 -7.1 -15.8 L-7.0 -15.8 Q-6.35 -15.3 -7.2 -15.3" fill="#cc0000" fill-rule="evenodd" stroke="none"/>
  </g>
</svg>
