<?xml version="1.0" encoding="UTF-8" standalone="no"?>
<svg xmlns:ffdec="https://www.free-decompiler.com/flash" xmlns:xlink="http://www.w3.org/1999/xlink" ffdec:objectType="shape" height="20.0px" width="17.0px" xmlns="http://www.w3.org/2000/svg">
  <g transform="matrix(1.0, 0.0, 0.0, 1.0, 41.7, 19.65)">
    <path d="M-40.95 -10.15 L-40.95 -10.05 Q-40.95 -9.85 -41.1 -9.75 L-41.25 -9.7 Q-42.05 -10.15 -41.4 -10.55 L-40.95 -10.15 M-36.6 -17.3 L-36.7 -17.35 -36.55 -17.8 -36.4 -17.8 Q-35.75 -17.3 -36.6 -17.3 M-36.85 -19.15 L-36.95 -19.2 Q-37.05 -19.5 -36.8 -19.6 L-36.65 -19.65 Q-36.0 -19.15 -36.85 -19.15 M-37.4 -9.9 Q-36.75 -9.4 -37.6 -9.4 L-37.7 -9.45 -37.55 -9.85 -37.4 -9.9 M-37.15 -0.15 Q-36.5 0.35 -37.35 0.35 L-37.45 0.3 Q-37.55 0.0 -37.3 -0.1 L-37.15 -0.15 M-32.25 -5.9 Q-31.6 -5.4 -32.45 -5.4 L-32.55 -5.45 Q-32.65 -5.75 -32.35 -5.85 L-32.25 -5.9 M-25.2 -10.55 L-25.3 -10.6 Q-25.4 -10.9 -25.1 -11.05 L-25.0 -11.05 Q-24.35 -10.55 -25.2 -10.55" fill="#cc0000" fill-rule="evenodd" stroke="none"/>
  </g>
</svg>
