<?xml version="1.0" encoding="UTF-8" standalone="no"?>
<svg xmlns:ffdec="https://www.free-decompiler.com/flash" xmlns:xlink="http://www.w3.org/1999/xlink" ffdec:objectType="shape" height="12.6px" width="17.15px" xmlns="http://www.w3.org/2000/svg">
  <g transform="matrix(1.0, 0.0, 0.0, 1.0, 42.1, 17.9)">
    <path d="M-41.95 -10.05 L-42.05 -10.1 Q-42.15 -10.4 -41.85 -10.55 L-41.75 -10.55 Q-41.1 -10.05 -41.95 -10.05 M-36.85 -17.4 L-36.95 -17.45 Q-37.05 -17.75 -36.8 -17.85 L-36.65 -17.9 Q-36.0 -17.4 -36.85 -17.4 M-32.85 -5.3 L-32.95 -5.35 -32.8 -5.8 -32.65 -5.8 Q-32.0 -5.3 -32.85 -5.3 M-37.95 -9.3 L-38.05 -9.35 Q-38.15 -9.65 -37.85 -9.8 L-37.75 -9.8 Q-37.1 -9.3 -37.95 -9.3 M-25.45 -10.3 L-25.55 -10.35 Q-25.65 -10.65 -25.35 -10.8 L-25.25 -10.8 Q-24.6 -10.3 -25.45 -10.3" fill="#cc0000" fill-rule="evenodd" stroke="none"/>
  </g>
</svg>
