<?xml version="1.0" encoding="UTF-8" standalone="no"?>
<svg xmlns:ffdec="https://www.free-decompiler.com/flash" xmlns:xlink="http://www.w3.org/1999/xlink" ffdec:objectType="shape" height="24.6px" width="130.25px" xmlns="http://www.w3.org/2000/svg">
  <g transform="matrix(1.0, 0.0, 0.0, 1.0, 63.85, 11.5)">
    <path d="M54.45 -0.1 L54.45 13.1 -50.55 13.1 -50.55 -0.1 54.45 -0.1" fill="url(#gradient0)" fill-rule="evenodd" stroke="none"/>
    <path d="M62.95 -8.05 Q66.4 -4.6 66.4 0.3 66.4 5.15 62.95 8.6 59.5 12.05 54.65 12.05 49.75 12.05 46.3 8.6 42.85 5.15 42.85 0.3 L42.9 -1.05 Q43.3 -5.1 46.3 -8.05 L47.25 -8.95 Q48.55 -10.0 50.05 -10.6 52.15 -11.5 54.65 -11.5 58.85 -11.5 61.95 -8.95 L62.95 -8.05" fill="url(#gradient1)" fill-rule="evenodd" stroke="none"/>
    <path d="M-60.35 -8.1 L-59.45 -8.95 Q-58.15 -10.0 -56.7 -10.6 -54.6 -11.5 -52.1 -11.5 -49.6 -11.5 -47.5 -10.6 -46.05 -10.0 -44.75 -8.95 L-43.75 -8.05 Q-40.8 -5.1 -40.35 -1.05 L-40.3 0.3 Q-40.3 5.15 -43.75 8.6 -47.2 12.05 -52.1 12.05 -57.0 12.05 -60.45 8.6 -62.25 6.8 -63.1 4.6 -63.9 2.6 -63.85 0.3 L-63.8 -1.05 Q-63.4 -5.1 -60.45 -8.05 L-60.35 -8.1" fill="url(#gradient2)" fill-rule="evenodd" stroke="none"/>
  </g>
  <defs>
    <linearGradient gradientTransform="matrix(3.0E-4, 0.0085, -0.0572, 1.0E-4, 4.4, 5.35)" gradientUnits="userSpaceOnUse" id="gradient0" spreadMethod="pad" x1="-819.2" x2="819.2">
      <stop offset="0.0" stop-color="#000000"/>
      <stop offset="0.0" stop-color="#000000"/>
      <stop offset="0.0" stop-color="#000000" stop-opacity="0.6509804"/>
      <stop offset="0.0" stop-color="#000000" stop-opacity="0.0"/>
      <stop offset="0.24705882352941178" stop-color="#000000"/>
      <stop offset="0.49411764705882355" stop-color="#000000"/>
      <stop offset="0.6666666666666666" stop-color="#000000"/>
      <stop offset="1.0" stop-color="#000000" stop-opacity="0.0"/>
    </linearGradient>
    <radialGradient cx="0" cy="0" gradientTransform="matrix(0.0144, 0.0, 0.0, 0.0144, 54.45, 0.3)" gradientUnits="userSpaceOnUse" id="gradient1" r="819.2" spreadMethod="pad">
      <stop offset="0.0" stop-color="#000000"/>
      <stop offset="0.0" stop-color="#000000" stop-opacity="0.6509804"/>
      <stop offset="0.0" stop-color="#000000"/>
      <stop offset="0.5725490196078431" stop-color="#000000"/>
      <stop offset="1.0" stop-color="#000000" stop-opacity="0.0"/>
    </radialGradient>
    <radialGradient cx="0" cy="0" gradientTransform="matrix(0.0143, 0.0, 0.0, 0.0143, -51.95, 0.3)" gradientUnits="userSpaceOnUse" id="gradient2" r="819.2" spreadMethod="pad">
      <stop offset="0.0" stop-color="#000000"/>
      <stop offset="0.0" stop-color="#000000" stop-opacity="0.6509804"/>
      <stop offset="0.0" stop-color="#000000"/>
      <stop offset="0.5725490196078431" stop-color="#000000"/>
      <stop offset="1.0" stop-color="#000000" stop-opacity="0.0"/>
    </radialGradient>
  </defs>
</svg>
