<?xml version="1.0" encoding="UTF-8" standalone="no"?>
<svg xmlns:ffdec="https://www.free-decompiler.com/flash" xmlns:xlink="http://www.w3.org/1999/xlink" ffdec:objectType="shape" height="125.1px" width="531.6px" xmlns="http://www.w3.org/2000/svg">
  <g transform="matrix(1.0, 0.0, 0.0, 1.0, -1.1, -1.25)">
    <path d="M500.15 23.0 Q501.85 23.5 502.9 24.85 504.0 26.3 503.65 28.0 502.75 32.45 497.85 40.2 L504.35 56.3 Q506.85 63.5 514.25 76.6 L521.0 87.8 Q525.05 94.35 528.5 98.5 L531.4 102.7 Q532.9 105.25 532.65 107.5 530.55 109.8 524.05 109.6 510.8 108.75 505.05 106.7 L493.65 104.0 Q492.0 103.65 488.9 101.0 486.2 98.6 484.0 98.7 L470.65 97.6 471.85 107.05 Q472.65 112.85 472.5 116.6 470.35 122.65 462.65 124.5 L458.0 125.8 453.25 126.3 Q438.75 122.3 428.0 114.0 425.9 110.6 425.4 103.05 424.9 95.2 423.05 91.9 420.25 89.95 414.1 88.75 407.6 87.5 405.0 86.0 402.75 84.55 400.65 78.0 L392.1 76.7 Q386.95 75.95 383.85 74.0 L382.5 78.65 Q381.35 81.25 378.85 81.0 L360.5 78.7 Q361.25 83.3 364.15 90.6 L368.5 102.3 Q369.4 104.9 367.2 107.15 365.0 109.4 362.5 108.3 359.5 107.55 354.85 105.1 349.45 102.25 347.35 101.5 L340.8 100.35 Q336.65 99.75 334.35 98.5 331.85 97.5 328.5 92.5 328.0 93.85 327.35 97.0 326.55 99.65 324.65 100.4 L317.6 98.05 Q313.3 96.5 310.25 96.6 L308.45 101.05 Q307.0 103.45 304.65 103.5 301.75 103.5 297.75 102.5 L291.0 100.7 284.15 98.8 Q280.1 97.65 277.55 96.4 276.35 94.45 276.25 91.0 L276.0 85.4 Q274.65 87.7 272.35 92.5 L265.35 92.8 Q266.6 96.0 273.0 108.8 L276.9 116.05 Q279.35 120.4 280.05 123.6 271.5 123.9 264.35 122.4 L253.45 121.6 242.55 121.3 Q238.65 118.75 236.45 113.25 235.55 111.0 233.65 103.2 232.6 104.05 231.05 107.8 229.75 110.9 227.5 111.3 219.15 112.65 211.05 109.7 208.75 108.95 206.95 106.25 L204.15 101.4 200.85 107.85 Q198.6 111.35 195.5 112.3 191.45 113.2 186.1 111.7 L177.0 108.7 Q170.35 106.6 167.2 105.2 161.75 102.75 159.5 98.6 L156.4 102.4 Q154.5 104.6 152.85 105.7 150.4 105.0 146.1 103.1 141.65 101.05 139.5 100.4 L135.55 99.05 Q133.25 98.15 132.0 97.0 130.7 95.2 129.15 89.0 L122.0 60.2 Q121.0 56.1 119.15 51.2 117.1 54.95 115.85 61.0 L113.85 71.2 Q111.5 84.4 111.5 107.1 108.6 107.35 104.6 108.75 L98.0 111.1 Q95.25 110.35 88.85 109.7 82.9 109.1 79.75 108.1 77.95 115.4 77.0 117.0 75.45 119.35 71.85 120.35 L65.75 121.7 Q55.0 124.8 47.55 123.2 45.75 121.95 43.35 119.55 L39.35 115.6 35.65 111.8 Q33.5 109.5 32.55 107.5 32.2 106.2 33.65 101.6 37.75 90.0 40.65 84.5 43.0 79.6 43.25 78.1 L41.05 73.3 Q36.55 74.85 30.0 78.95 22.0 84.0 19.35 85.3 17.05 86.4 14.6 84.65 L10.85 81.1 Q8.1 78.55 5.95 74.3 L2.55 66.5 Q-0.35 59.6 2.65 54.6 4.95 50.65 9.6 44.6 L16.85 34.8 Q18.65 31.7 22.0 30.3 25.55 28.8 28.65 30.3 40.3 35.3 45.85 49.3 L56.05 43.0 56.55 38.5 Q57.05 35.9 58.5 34.5 69.0 23.25 78.5 16.5 80.5 14.85 83.6 15.5 85.1 15.75 88.75 17.3 96.75 21.3 113.35 27.8 119.4 30.35 121.0 30.5 123.05 30.05 125.35 28.25 L129.25 24.9 128.5 20.35 Q128.15 17.65 128.65 15.7 L137.5 7.5 141.65 3.3 Q144.25 1.15 147.0 1.3 151.9 0.75 154.9 5.65 157.25 9.55 157.55 14.9 157.4 17.5 155.4 20.15 L151.5 24.3 156.25 26.5 Q159.1 27.8 160.65 29.2 L162.15 35.5 Q167.55 32.9 169.85 30.9 L173.9 27.35 Q176.35 25.4 178.65 24.9 183.6 23.65 192.05 25.2 L197.4 19.45 Q200.6 16.05 203.5 14.7 209.95 13.3 222.35 18.4 L224.35 25.7 230.05 19.2 Q233.0 16.7 239.25 12.4 L244.2 7.85 Q247.15 5.35 250.15 5.2 L251.8 16.6 Q252.7 23.65 254.0 27.9 255.4 33.05 255.75 37.5 251.9 39.85 250.1 41.15 246.95 43.45 245.55 46.0 249.05 57.8 252.85 63.7 254.35 59.2 255.2 51.7 256.25 42.05 256.75 39.5 257.4 36.6 259.9 33.5 L264.35 28.4 268.0 23.5 Q270.25 20.05 271.55 18.6 273.05 17.15 280.0 14.1 L287.85 10.9 Q292.55 9.2 296.15 9.3 297.2 14.85 298.0 22.7 301.1 21.15 306.25 15.65 311.15 10.45 314.75 9.0 324.25 4.85 334.05 5.25 344.8 5.7 352.35 11.7 358.05 16.8 361.15 29.3 365.5 26.85 373.7 20.75 381.25 15.65 387.5 14.7 399.65 12.95 407.85 19.2 409.65 20.55 411.65 23.65 414.05 27.45 415.0 28.5 416.95 28.1 420.5 26.5 424.15 24.85 426.05 24.4 L431.05 25.8 Q438.6 21.5 441.95 20.05 448.35 17.35 453.85 17.4 455.7 17.35 458.65 19.85 461.45 22.15 463.55 21.8 470.25 21.25 478.0 21.4 L489.15 21.4 Q495.65 21.6 500.15 23.0 M78.85 45.6 L74.55 46.6 76.0 51.25 Q77.05 53.85 79.0 54.8 L79.6 50.1 Q79.95 47.25 78.85 45.6 M184.65 69.6 L191.0 67.2 Q194.55 71.0 199.0 73.8 198.35 68.85 193.0 54.9 L183.65 57.9 Q183.05 65.7 184.65 69.6 M297.35 39.7 L298.7 48.55 Q299.8 53.6 302.0 56.8 302.5 52.65 302.25 39.6 L297.35 39.7" fill="#95b5c5" fill-rule="evenodd" stroke="none"/>
  </g>
</svg>
