<?xml version="1.0" encoding="UTF-8" standalone="no"?>
<svg xmlns:ffdec="https://www.free-decompiler.com/flash" xmlns:xlink="http://www.w3.org/1999/xlink" ffdec:objectType="shape" height="69.35px" width="363.3px" xmlns="http://www.w3.org/2000/svg">
  <g transform="matrix(1.0, 0.0, 0.0, 1.0, 178.15, -26.7)">
    <path d="M175.05 70.25 L177.5 74.4 Q178.65 76.9 178.15 78.95 176.6 79.55 175.15 78.1 L172.9 75.45 Q169.05 78.15 167.0 79.2 163.4 81.1 160.4 80.05 L159.65 87.15 Q164.4 84.75 173.4 79.15 L176.9 83.05 Q178.65 83.05 181.1 82.15 L185.15 80.45 Q182.0 87.3 171.55 89.95 L168.95 85.75 Q159.9 91.7 157.25 92.75 150.5 90.65 140.45 88.55 140.45 80.0 141.95 69.65 L135.95 68.35 Q135.85 75.55 134.45 78.15 134.1 73.65 134.45 66.85 L124.65 67.85 122.95 75.75 124.95 70.65 Q126.45 67.85 129.15 68.15 132.4 69.6 130.65 75.25 130.25 77.9 127.15 79.2 L121.65 80.85 Q116.7 82.35 107.4 78.45 106.3 78.05 103.05 74.65 L103.8 78.15 Q104.3 80.15 105.75 80.85 111.9 84.15 118.45 84.75 123.9 84.55 134.15 81.15 L132.4 85.0 Q131.2 87.1 129.4 87.55 118.9 90.7 115.4 91.15 106.85 89.45 100.15 85.05 L98.45 88.7 Q97.25 90.8 95.4 90.65 L86.95 90.5 75.95 89.85 76.25 85.15 74.05 90.15 71.95 90.6 67.9 90.85 61.55 91.05 Q50.95 92.35 39.25 91.55 38.65 86.8 38.55 84.4 38.35 80.2 39.9 77.45 L41.55 85.45 53.45 85.05 64.3 84.7 71.95 84.35 75.25 84.05 74.45 75.45 65.55 75.15 Q64.95 67.95 64.95 60.75 L71.95 60.65 78.55 59.85 Q78.6 57.5 79.5 53.85 L80.9 47.95 Q82.3 42.35 85.25 42.75 L86.95 42.75 92.5 42.55 Q96.7 42.65 99.4 44.35 91.8 44.4 86.95 44.6 L83.75 44.75 Q82.95 48.1 83.15 58.45 L85.45 59.15 85.9 62.25 85.95 58.05 91.55 57.15 92.05 56.05 86.95 56.05 83.75 55.95 83.95 50.85 86.95 51.05 96.4 52.25 96.65 61.15 92.05 61.95 Q91.75 66.05 91.55 74.25 94.05 71.4 96.45 70.45 96.95 76.5 95.55 81.35 L86.95 81.2 80.4 81.05 Q79.4 73.2 80.45 70.45 L82.9 69.65 82.65 73.15 84.75 73.85 84.95 64.15 84.45 69.35 79.75 68.65 Q78.5 78.85 79.25 83.45 82.3 84.65 86.95 84.8 L88.9 84.8 98.75 84.65 100.15 69.95 94.25 69.75 94.15 63.15 99.05 62.85 Q99.3 59.2 99.0 53.7 98.55 47.65 98.45 44.65 101.35 49.45 100.95 59.15 108.55 51.0 110.25 47.45 L110.75 52.05 118.7 51.85 Q123.25 52.05 126.4 53.65 L126.05 50.55 118.75 50.6 Q114.5 50.5 111.55 49.35 L113.2 47.25 Q114.2 46.05 115.4 46.05 120.25 45.8 131.4 47.45 L131.4 52.95 128.05 49.05 Q128.45 51.3 128.65 54.85 L130.9 52.55 Q131.4 57.3 130.55 62.95 L124.05 64.05 Q128.1 64.65 133.95 63.95 L134.75 47.65 Q136.4 51.25 136.95 54.6 137.45 57.7 136.95 60.6 L136.9 60.85 136.95 60.9 Q140.7 62.65 148.55 65.45 148.9 66.8 147.6 67.4 L145.25 68.25 Q144.35 77.1 144.55 83.25 L158.4 84.75 Q157.6 73.15 160.65 65.05 156.15 67.9 155.55 69.35 154.95 71.15 154.7 74.6 154.4 78.35 153.95 79.95 151.5 81.65 146.65 79.95 L146.25 75.55 150.05 74.65 Q148.75 60.65 148.75 53.65 L146.95 53.55 146.4 60.65 141.05 60.55 Q141.3 57.8 143.45 46.45 150.2 48.7 152.75 50.85 153.75 52.55 155.05 56.15 L156.7 53.25 Q157.45 51.45 156.55 50.05 151.35 44.2 150.65 42.25 156.15 38.0 159.75 40.05 L160.25 46.45 166.65 51.15 164.75 54.95 170.4 55.35 Q171.35 60.1 169.25 70.55 L172.15 70.05 175.05 70.25 M117.0 57.0 Q114.95 57.35 114.4 58.95 113.45 62.0 113.5 66.4 L113.75 73.95 121.4 75.35 116.25 72.15 Q116.0 63.1 116.25 61.25 117.3 59.1 119.75 59.8 120.8 60.05 123.65 61.75 L120.65 56.65 117.0 57.0 M61.15 40.45 L62.25 46.45 71.55 46.95 72.15 51.35 Q76.7 52.0 77.4 56.55 74.35 57.4 71.95 57.65 68.05 58.05 65.9 56.85 L64.4 51.15 Q62.0 52.0 61.7 54.8 L62.05 59.75 Q62.75 65.05 62.9 75.55 L71.55 77.05 71.15 81.05 42.15 82.25 41.95 77.95 Q47.0 76.55 51.9 75.65 52.25 71.55 52.0 64.1 51.75 56.0 51.95 52.55 L45.05 52.95 44.25 59.15 Q41.7 59.7 39.05 60.65 L45.9 60.85 47.25 55.65 51.75 55.55 51.45 75.25 45.55 75.65 Q47.75 74.05 48.9 73.35 L48.95 62.15 Q48.1 66.25 46.75 69.95 L42.4 69.7 Q39.8 69.5 38.25 68.45 37.2 67.65 36.95 64.35 L37.25 51.85 Q36.25 55.25 36.6 61.4 37.0 68.2 36.45 71.05 35.25 68.1 35.05 63.2 L34.65 55.15 30.65 53.25 Q37.1 46.2 40.45 43.35 L39.55 51.35 40.4 47.05 50.75 46.55 Q51.55 45.85 52.55 43.85 L41.75 43.75 41.75 39.95 61.15 40.45 M5.45 48.9 L5.9 55.25 5.95 70.35 0.65 70.55 Q1.1 74.65 0.65 81.25 -8.5 81.4 -15.85 81.15 -16.65 74.4 -14.75 68.85 -12.05 71.7 -11.05 74.25 L-10.75 68.45 -15.35 68.65 -17.1 76.05 Q-19.0 73.35 -19.8 69.05 L-20.95 61.65 Q-26.6 61.8 -33.75 61.45 -33.5 55.3 -34.55 49.55 -35.8 54.2 -36.35 61.2 L-37.25 72.95 -29.55 73.05 -31.45 62.25 -22.6 62.75 Q-21.75 64.15 -22.05 66.8 -22.4 69.85 -22.1 70.95 L-18.55 81.05 Q-31.05 81.55 -47.75 81.05 L-45.85 66.25 -45.0 57.05 Q-44.65 51.6 -45.25 47.75 -46.15 49.55 -46.25 53.25 -46.35 57.15 -47.05 58.85 L-48.3 64.1 Q-49.05 67.35 -49.85 69.25 -50.9 63.1 -48.85 53.55 L-47.95 48.4 Q-47.4 45.4 -46.35 43.55 -38.55 41.35 -33.05 43.55 -31.35 48.75 -31.1 59.75 -21.25 59.75 -19.75 59.95 -18.55 61.45 -18.15 64.05 L-17.75 68.55 -10.85 65.85 -14.05 64.25 Q-14.2 60.55 -13.1 53.6 -12.0 46.4 -12.05 42.95 0.8 42.7 3.4 43.05 5.0 45.2 5.45 48.9 M18.05 36.85 Q19.4 35.8 21.95 33.0 L23.75 30.9 25.45 28.85 Q27.1 29.55 28.55 30.9 30.2 32.45 31.65 34.75 L35.9 42.45 23.95 54.75 19.95 50.75 21.95 48.95 23.5 47.55 Q25.2 45.4 23.9 43.25 L21.95 44.65 Q18.7 47.0 18.15 47.85 17.75 50.15 17.75 54.85 L21.95 55.15 31.4 55.65 Q33.75 62.55 32.15 69.95 30.2 72.4 21.95 78.0 L20.4 79.05 12.65 71.65 9.25 73.75 Q20.1 77.95 17.65 84.85 11.45 82.45 5.4 72.35 L11.55 65.55 6.95 68.75 Q6.75 57.05 6.9 51.15 7.0 45.8 8.95 43.95 11.65 41.15 18.05 36.85 M1.65 52.15 Q2.1 56.85 1.9 61.35 L-3.1 61.65 -3.35 74.35 Q-1.0 69.95 -0.6 63.95 L3.9 63.65 Q4.55 52.1 2.65 44.75 L-10.35 44.65 -10.35 45.85 Q-4.55 45.55 0.55 45.95 L0.75 49.55 -10.95 49.05 -10.25 50.65 1.65 52.15 M23.75 60.75 L21.95 60.6 Q16.95 60.15 9.4 60.45 L9.75 63.25 Q13.2 63.4 16.65 61.25 19.2 64.8 16.9 69.35 L21.95 70.0 23.15 70.15 Q23.55 67.0 23.75 60.75 M10.15 89.25 L4.75 82.55 3.65 90.65 Q-13.55 90.2 -19.6 90.75 L-36.1 90.3 Q-45.7 90.15 -52.6 90.75 L-78.75 90.75 Q-80.35 90.85 -82.45 89.65 L-85.95 87.75 -96.45 89.0 -105.05 90.3 -106.95 90.45 Q-108.15 90.6 -109.4 89.65 L-111.55 87.95 -114.55 89.85 -119.45 86.95 Q-122.7 89.9 -125.05 90.35 L-125.25 90.35 -156.85 95.45 -163.45 96.05 -167.55 92.2 -171.35 87.95 Q-176.25 82.3 -176.85 80.75 -177.25 78.0 -177.2 74.0 L-177.1 67.25 Q-177.3 63.85 -176.5 57.25 -175.7 50.6 -175.85 47.35 -175.95 45.7 -177.25 41.6 -178.35 38.05 -178.1 35.85 -176.55 34.15 -173.45 32.9 L-168.25 30.85 -160.4 27.7 Q-155.7 26.1 -152.1 27.05 -146.85 28.45 -136.6 32.55 L-131.7 34.3 Q-128.9 35.35 -127.25 36.75 -126.0 38.45 -125.05 40.1 -121.85 45.5 -122.1 50.25 -122.25 54.6 -119.45 64.65 -115.95 61.95 -112.45 55.4 -108.55 48.0 -106.35 45.65 L-105.05 44.4 Q-103.15 43.1 -100.25 43.6 -96.3 44.25 -94.95 47.45 -93.2 50.85 -91.55 59.35 L-85.6 60.05 Q-83.25 55.8 -81.75 43.95 -79.05 42.45 -74.9 42.5 L-67.75 43.05 -66.55 44.35 Q-65.85 49.35 -65.75 59.55 L-53.75 60.05 Q-51.15 62.85 -50.9 67.85 -50.8 69.7 -51.45 76.35 L-53.3 73.7 Q-54.25 72.05 -53.75 70.65 -52.05 65.1 -54.45 61.95 L-67.75 61.45 Q-68.15 49.55 -69.05 44.65 L-79.1 44.65 -80.15 50.9 Q-80.55 54.55 -79.6 57.15 -78.4 52.9 -78.85 45.85 L-69.35 45.85 Q-69.4 50.4 -70.45 59.4 -71.5 68.4 -71.55 72.95 L-63.85 72.95 Q-65.15 68.65 -66.25 62.75 L-56.55 62.15 -55.6 65.05 Q-57.0 68.0 -57.1 69.15 -56.35 73.05 -53.25 80.45 L-61.35 81.35 -69.6 81.35 -82.1 80.45 Q-82.2 76.85 -80.95 70.35 -79.65 63.4 -79.55 60.25 -79.35 59.0 -80.6 58.3 L-82.75 57.35 Q-82.4 62.5 -82.95 66.75 -83.75 72.45 -84.1 83.95 -79.35 83.75 -69.85 84.3 -60.35 84.85 -55.6 84.65 L-49.15 84.15 Q-45.2 83.8 -42.6 84.05 -25.9 85.4 -12.6 84.05 L-4.85 84.4 Q-0.05 84.65 2.95 84.35 L3.75 74.65 Q5.55 76.3 9.8 81.6 13.45 86.1 16.25 88.15 17.2 88.95 18.55 88.15 L20.55 86.55 21.95 85.15 Q31.05 76.2 36.9 71.95 L36.55 75.6 Q36.2 77.75 35.05 78.85 L29.4 83.65 Q25.6 86.5 23.9 88.55 L21.95 90.75 20.45 92.35 Q18.3 94.5 16.25 95.25 13.35 93.05 10.15 89.25 M-155.55 28.65 Q-157.65 29.05 -160.7 30.3 L-165.75 32.35 -177.55 36.85 Q-174.95 41.5 -173.05 46.85 L-164.1 45.45 -163.75 50.35 -174.6 50.75 Q-175.25 77.2 -175.45 80.05 L-170.6 79.75 -168.35 87.55 -159.05 86.8 -149.85 85.25 -137.3 83.7 Q-130.0 82.7 -125.05 81.4 L-124.85 81.35 Q-125.1 77.75 -124.45 69.5 -123.85 61.85 -124.35 57.65 -124.45 56.5 -125.05 55.4 -125.65 54.4 -126.7 53.45 L-130.75 50.45 -126.1 49.45 Q-126.1 43.9 -126.4 42.35 -127.2 38.25 -130.45 37.15 L-149.55 30.25 Q-153.9 28.65 -155.55 28.65 M-156.6 34.15 L-158.95 35.15 -147.8 37.75 Q-141.6 39.7 -137.95 43.25 L-139.75 48.05 -134.35 43.85 Q-137.15 40.45 -138.95 39.75 -145.85 36.5 -154.1 33.95 L-156.6 34.15 M-105.05 47.85 Q-106.1 48.65 -106.45 49.35 L-109.7 56.0 Q-111.65 60.0 -113.45 62.35 L-118.7 68.7 Q-122.0 72.5 -123.25 75.55 -124.45 79.6 -117.1 83.25 L-110.75 76.05 -110.55 83.95 -105.05 83.35 -97.8 82.6 Q-90.1 81.85 -85.25 80.35 -85.55 71.1 -88.05 61.35 L-90.25 62.05 Q-87.5 72.6 -87.6 76.05 -87.85 77.5 -91.75 78.55 L-105.05 80.15 -109.75 80.35 -109.55 76.35 -105.05 74.5 -104.25 74.15 -104.25 71.85 -105.05 71.9 -111.95 72.05 Q-115.55 77.05 -117.25 78.85 L-121.1 78.95 Q-123.5 77.35 -121.85 75.45 -119.6 71.95 -115.05 66.65 L-107.95 58.05 -105.05 52.4 Q-103.05 48.7 -101.45 46.55 -98.7 49.1 -97.55 54.15 -96.9 57.0 -95.95 62.75 L-93.25 63.25 Q-94.1 60.95 -94.8 56.9 L-96.1 50.45 Q-96.4 48.95 -97.9 47.55 L-100.6 45.35 Q-103.55 46.7 -105.05 47.85 M68.05 67.95 L68.05 72.35 76.4 73.55 77.75 67.95 Q74.85 67.85 71.95 67.9 L68.05 67.95 M-152.25 31.55 Q-145.55 33.95 -132.45 39.35 L-132.25 45.15 Q-133.05 46.3 -137.35 49.65 L-129.55 55.25 -129.25 66.2 Q-128.95 72.95 -129.6 77.05 L-142.45 79.45 -155.35 81.55 Q-162.5 82.8 -167.75 82.65 L-167.75 78.15 -143.25 73.65 Q-138.25 72.65 -136.05 71.45 -136.15 68.35 -139.75 69.15 L-155.95 72.25 Q-165.95 74.25 -172.35 74.55 -172.2 70.65 -172.6 63.25 L-172.95 51.85 -166.75 52.15 Q-165.85 58.8 -167.25 67.65 L-162.6 68.15 Q-161.8 58.9 -161.65 54.2 -161.4 46.15 -162.85 40.35 -168.45 42.1 -172.85 42.85 L-173.05 38.05 Q-171.15 37.35 -157.35 31.25 -155.8 30.45 -152.25 31.55 M-153.45 41.45 L-153.25 46.85 -144.45 46.75 Q-145.15 44.3 -148.2 43.15 L-153.45 41.45 M-150.75 61.85 L-150.6 56.05 -145.85 56.15 Q-144.75 57.0 -142.55 59.55 -145.8 61.5 -150.75 61.85 M-143.1 54.85 Q-144.95 52.75 -148.35 52.5 L-154.25 52.75 Q-154.6 57.25 -154.25 63.95 -149.75 62.85 -141.85 61.55 L-141.7 57.95 Q-141.8 55.85 -143.1 54.85" fill="#95b5c5" fill-rule="evenodd" stroke="none"/>
  </g>
</svg>
