<?xml version="1.0" encoding="UTF-8" standalone="no"?>
<svg xmlns:ffdec="https://www.free-decompiler.com/flash" xmlns:xlink="http://www.w3.org/1999/xlink" ffdec:objectType="shape" height="67.0px" width="67.0px" xmlns="http://www.w3.org/2000/svg">
  <g transform="matrix(1.0, 0.0, 0.0, 1.0, 33.5, 33.5)">
    <path d="M23.65 -23.7 Q33.5 -13.9 33.5 0.0 33.5 13.9 23.65 23.7 13.85 33.5 0.0 33.5 -13.9 33.5 -23.75 23.7 -33.5 13.9 -33.5 0.0 -33.5 -13.9 -23.75 -23.7 -13.9 -33.5 0.0 -33.5 13.85 -33.5 23.65 -23.7" fill="#000000" fill-rule="evenodd" stroke="none"/>
    <path d="M19.95 -23.3 Q28.25 -15.0 28.25 -3.3 28.25 8.45 19.95 16.7 11.7 25.0 0.0 25.0 -11.75 25.0 -20.05 16.7 -28.3 8.45 -28.3 -3.3 -28.3 -15.0 -20.05 -23.3 -11.75 -31.55 0.0 -31.55 11.7 -31.55 19.95 -23.3" fill="#333333" fill-rule="evenodd" stroke="none"/>
    <path d="M7.0 -25.75 Q9.9 -22.85 9.9 -18.75 9.9 -14.65 7.0 -11.75 4.1 -8.85 0.0 -8.85 -4.15 -8.85 -7.05 -11.75 -9.9 -14.65 -9.9 -18.75 -9.9 -22.85 -7.05 -25.75 -4.15 -28.65 0.0 -28.65 4.1 -28.65 7.0 -25.75" fill="#666666" fill-rule="evenodd" stroke="none"/>
  </g>
</svg>
