<?xml version="1.0" encoding="UTF-8" standalone="no"?>
<svg xmlns:ffdec="https://www.free-decompiler.com/flash" xmlns:xlink="http://www.w3.org/1999/xlink" ffdec:objectType="shape" height="27.85px" width="81.7px" xmlns="http://www.w3.org/2000/svg">
  <g transform="matrix(1.0, 0.0, 0.0, 1.0, 2.35, -4.0)">
    <path d="M76.8 7.15 Q77.65 10.15 77.65 13.6 77.65 18.05 76.25 21.85 63.25 27.15 49.4 29.5 L48.1 28.1 Q46.25 25.9 45.1 23.4 L47.85 23.25 Q48.15 24.8 49.35 26.0 51.0 27.65 53.35 27.65 55.65 27.65 57.3 26.0 58.95 24.35 58.95 22.05 L58.8 20.7 Q68.95 16.7 76.8 7.15 M24.05 20.2 L24.05 20.25 Q22.4 21.9 22.4 24.25 22.4 26.55 24.05 28.2 25.7 29.85 28.05 29.85 30.35 29.85 32.0 28.2 33.65 26.55 33.65 24.25 L33.4 22.5 37.5 23.1 Q36.0 26.4 33.2 29.2 L30.85 31.3 Q18.05 31.6 4.55 29.55 L4.2 29.2 Q-1.8 23.2 -1.8 14.7 -1.8 11.55 -0.95 8.75 12.4 16.55 24.05 20.2" fill="#ffffff" fill-rule="evenodd" stroke="none"/>
    <path d="M58.8 20.7 L58.95 22.05 Q58.95 24.35 57.3 26.0 55.65 27.65 53.35 27.65 51.0 27.65 49.35 26.0 48.15 24.8 47.85 23.25 53.6 22.65 58.8 20.7 M24.05 20.2 Q28.9 21.7 33.4 22.5 L33.65 24.25 Q33.65 26.55 32.0 28.2 30.35 29.85 28.05 29.85 25.7 29.85 24.05 28.2 22.4 26.55 22.4 24.25 22.4 21.9 24.05 20.25 L24.05 20.2" fill="#000000" fill-rule="evenodd" stroke="none"/>
    <path d="M76.8 7.15 L78.85 4.5 M76.8 7.15 Q77.65 10.15 77.65 13.6 77.65 18.05 76.25 21.85 63.25 27.15 49.4 29.5 L48.1 28.1 Q46.25 25.9 45.1 23.4 L42.85 23.45 M47.85 23.25 L45.1 23.4 M47.85 23.25 Q53.6 22.65 58.8 20.7 68.95 16.7 76.8 7.15 M33.4 22.5 Q28.9 21.7 24.05 20.2 L24.05 20.25 M33.4 22.5 L37.5 23.1 39.8 23.3 M37.5 23.1 Q36.0 26.4 33.2 29.2 L30.85 31.3 Q18.05 31.6 4.55 29.55 L4.2 29.2 Q-1.8 23.2 -1.8 14.7 -1.8 11.55 -0.95 8.75 L-1.85 8.25 M-0.95 8.75 Q12.4 16.55 24.05 20.2" fill="none" stroke="#000000" stroke-linecap="round" stroke-linejoin="round" stroke-width="1.0"/>
  </g>
</svg>
