<?xml version="1.0" encoding="UTF-8" standalone="no"?>
<svg xmlns:ffdec="https://www.free-decompiler.com/flash" xmlns:xlink="http://www.w3.org/1999/xlink" ffdec:objectType="shape" height="3.65px" width="17.05px" xmlns="http://www.w3.org/2000/svg">
  <g transform="matrix(1.0, 0.0, 0.0, 1.0, 8.5, 1.8)">
    <path d="M1.6 -0.6 L1.6 -0.85 1.6 -1.25 7.3 -1.25 7.3 -0.85 7.3 -0.6 1.6 -0.6 M-0.15 -0.85 L-0.15 -0.6 -2.55 -0.6 -2.55 -0.85 -2.55 -1.25 -0.15 -1.25 -0.15 -0.85 M-7.8 -0.25 L-8.15 -0.85 -6.2 -0.85 -6.2 -1.25 -5.35 -1.25 -5.35 -0.85 -5.35 -0.6 -6.2 -0.6 -6.2 -0.25 -7.8 -0.25" fill="#999999" fill-rule="evenodd" stroke="none"/>
    <path d="M1.6 -0.85 L-0.15 -0.85 -0.15 -1.25 1.6 -1.25 1.6 -0.85 M-0.15 -0.25 L1.6 -0.25 1.6 1.25 -0.15 1.25 -0.15 -0.25 M7.3 1.25 L7.3 -0.25 8.55 -0.25 8.55 1.25 7.3 1.25 M7.3 -1.25 L8.55 -1.25 8.55 -0.85 7.3 -0.85 7.3 -1.25 M-5.35 -1.25 L-2.55 -1.25 -2.55 -0.85 -5.35 -0.85 -5.35 -1.25 M-5.35 1.25 L-5.35 -0.25 -2.55 -0.25 -2.55 1.25 -5.35 1.25" fill="#cccccc" fill-rule="evenodd" stroke="none"/>
    <path d="M1.6 -0.6 L1.6 -0.25 -0.15 -0.25 -0.15 -0.6 -0.15 -0.85 1.6 -0.85 1.6 -0.6 M7.3 -0.25 L7.3 -0.6 7.3 -0.85 8.55 -0.85 8.55 -0.25 7.3 -0.25 M-5.35 -0.85 L-2.55 -0.85 -2.55 -0.6 -2.55 -0.25 -5.35 -0.25 -5.35 -0.6 -5.35 -0.85" fill="#ffffff" fill-rule="evenodd" stroke="none"/>
    <path d="M1.6 -0.25 L1.6 -0.6 7.3 -0.6 7.3 -0.25 7.3 1.25 7.3 1.85 1.6 1.85 1.6 1.25 1.6 -0.25 M-0.15 -0.6 L-0.15 -0.25 -0.15 1.25 -0.15 1.85 -2.55 1.85 -2.55 1.25 -2.55 -0.25 -2.55 -0.6 -0.15 -0.6 M1.6 -1.25 L1.6 -1.8 7.3 -1.8 7.3 -1.25 1.6 -1.25 M-8.15 -0.85 L-8.5 -1.5 -6.2 -1.5 -6.2 -1.8 -5.35 -1.8 -5.35 -1.25 -6.2 -1.25 -6.2 -0.85 -8.15 -0.85 M-2.55 -1.25 L-2.55 -1.8 -0.15 -1.8 -0.15 -1.25 -2.55 -1.25 M-5.35 -0.6 L-5.35 -0.25 -5.35 1.25 -5.35 1.85 -6.2 1.85 -6.2 1.45 -6.8 1.45 -7.8 -0.25 -6.2 -0.25 -6.2 -0.6 -5.35 -0.6" fill="#333333" fill-rule="evenodd" stroke="none"/>
    <path d="M1.6 1.25 L1.6 1.85 M7.3 1.85 L7.3 1.25 M7.3 -1.25 L7.3 -1.8 1.6 -1.8 1.6 -1.25 -0.15 -1.25 -0.15 -1.8 -2.55 -1.8 -2.55 -1.25 -5.35 -1.25 -5.35 -1.8 -6.2 -1.8 -6.2 -1.5 -8.5 -1.5 -8.15 -0.85 -7.8 -0.25 -6.8 1.45 M7.3 -1.25 L8.55 -1.25 8.55 -0.85 8.55 -0.25 8.55 1.25 M-6.2 1.45 L-6.2 1.85 M-5.35 1.85 L-5.35 1.25 M-0.15 1.25 L-0.15 1.85 M-2.55 1.85 L-2.55 1.25" fill="none" stroke="#000000" stroke-linecap="round" stroke-linejoin="round" stroke-opacity="0.5019608" stroke-width="0.05"/>
    <path d="M1.6 1.85 L7.3 1.85 M8.55 1.25 L7.3 1.25 M-6.8 1.45 L-6.2 1.45 M-6.2 1.85 L-5.35 1.85 M-0.15 1.85 L-2.55 1.85 M-2.55 1.25 L-5.35 1.25 M1.6 1.25 L-0.15 1.25" fill="none" stroke="#000000" stroke-linecap="round" stroke-linejoin="round" stroke-opacity="0.77254903" stroke-width="0.05"/>
  </g>
</svg>
