<?xml version="1.0" encoding="UTF-8" standalone="no"?>
<svg xmlns:ffdec="https://www.free-decompiler.com/flash" xmlns:xlink="http://www.w3.org/1999/xlink" ffdec:objectType="shape" height="26.3px" width="71.55px" xmlns="http://www.w3.org/2000/svg">
  <g transform="matrix(1.0, 0.0, 0.0, 1.0, 73.6, -10.2)">
    <path d="M-4.1 16.55 L-3.8 18.6 Q-3.2 24.85 -6.85 30.25 -21.4 31.55 -33.55 35.2 -36.4 32.7 -37.6 29.15 L-36.65 28.35 Q-36.35 29.95 -35.05 31.15 -33.4 32.7 -31.15 32.65 -28.85 32.6 -27.3 30.95 -25.75 29.35 -25.8 27.1 -25.85 24.85 -27.45 23.3 L-27.95 22.85 Q-18.45 18.35 -4.1 16.55 M-66.5 13.7 L-67.7 14.6 Q-69.3 16.2 -69.3 18.45 -69.3 20.65 -67.7 22.25 -66.1 23.85 -63.8 23.85 -61.5 23.85 -59.9 22.25 -58.4 20.75 -58.3 18.7 -52.2 22.95 -47.25 28.25 -48.05 31.6 -50.1 33.75 -59.1 28.45 -69.75 25.25 -72.5 19.35 -72.15 13.15 L-71.95 11.1 -66.5 13.7" fill="#ffffff" fill-rule="evenodd" stroke="none"/>
    <path d="M-27.95 22.85 L-27.45 23.3 Q-25.85 24.85 -25.8 27.1 -25.75 29.35 -27.3 30.95 -28.85 32.6 -31.15 32.65 -33.4 32.7 -35.05 31.15 -36.35 29.95 -36.65 28.35 -33.0 25.25 -27.95 22.85 M-58.3 18.7 Q-58.4 20.75 -59.9 22.25 -61.5 23.85 -63.8 23.85 -66.1 23.85 -67.7 22.25 -69.3 20.65 -69.3 18.45 -69.3 16.2 -67.7 14.6 L-66.5 13.7 Q-62.2 15.95 -58.3 18.7" fill="#000000" fill-rule="evenodd" stroke="none"/>
    <path d="M-4.1 16.55 L-2.55 16.35 M-4.1 16.55 L-3.8 18.6 Q-3.2 24.85 -6.85 30.25 -21.4 31.55 -33.55 35.2 L-35.95 36.0 M-36.65 28.35 L-37.6 29.15 Q-36.4 32.7 -33.55 35.2 M-37.6 29.15 L-39.7 31.25 M-27.95 22.85 Q-18.45 18.35 -4.1 16.55 M-36.65 28.35 Q-33.0 25.25 -27.95 22.85 M-66.5 13.7 L-71.95 11.1 -72.15 13.15 Q-72.5 19.35 -69.75 25.25 -59.1 28.45 -50.1 33.75 -48.05 31.6 -47.25 28.25 -52.2 22.95 -58.3 18.7 -62.2 15.95 -66.5 13.7 M-71.95 11.1 L-73.1 10.7 M-47.25 28.25 L-45.7 30.6 M-50.1 33.75 L-48.35 34.85" fill="none" stroke="#000000" stroke-linecap="round" stroke-linejoin="round" stroke-width="1.0"/>
  </g>
</svg>
