<?xml version="1.0" encoding="UTF-8" standalone="no"?>
<svg xmlns:ffdec="https://www.free-decompiler.com/flash" xmlns:xlink="http://www.w3.org/1999/xlink" ffdec:objectType="shape" height="3.15px" width="57.85px" xmlns="http://www.w3.org/2000/svg">
  <g transform="matrix(1.0, 0.0, 0.0, 1.0, 8.25, 1.6)">
    <path d="M3.6 -0.7 L11.45 -0.95 24.9 -1.35 Q35.45 -1.75 49.1 -1.5 50.1 0.0 49.1 1.45 35.45 1.7 24.9 1.3 L11.45 0.95 3.75 0.65 3.6 -0.7 M-3.6 0.65 L-7.4 0.9 -7.4 1.45 -8.05 1.45 Q-8.45 0.0 -8.05 -1.5 L-7.4 -1.5 -7.4 -0.95 -3.45 -0.65 -3.6 0.65" fill="url(#gradient0)" fill-rule="evenodd" stroke="none"/>
    <path d="M-3.45 -0.65 L-2.6 -0.65 -1.6 -0.65 -0.65 -0.65 0.45 -0.65 1.35 -0.65 2.5 -0.65 3.0 -0.65 3.6 -0.7 3.75 0.65 3.1 0.65 2.4 0.65 1.6 0.6 0.4 0.6 -0.75 0.6 -1.75 0.6 -2.75 0.6 -3.6 0.65 -3.45 -0.65 M3.1 0.65 L3.0 -0.65 3.1 0.65 M2.5 -0.65 L2.4 0.65 2.5 -0.65 M1.6 0.6 L1.35 -0.65 1.6 0.6 M0.45 -0.65 L0.4 0.6 0.45 -0.65 M-0.75 0.6 L-0.65 -0.65 -0.75 0.6 M-1.6 -0.65 L-1.75 0.6 -1.6 -0.65 M-2.75 0.6 L-2.6 -0.65 -2.75 0.6" fill="url(#gradient1)" fill-rule="evenodd" stroke="none"/>
    <path d="M-3.45 -0.65 L-3.6 0.65 M0.4 0.6 L0.45 -0.65 M1.35 -0.65 L1.6 0.6 M2.4 0.65 L2.5 -0.65 M3.0 -0.65 L3.1 0.65 M3.75 0.65 L3.6 -0.7 M-2.6 -0.65 L-2.75 0.6 M-1.75 0.6 L-1.6 -0.65 M-0.65 -0.65 L-0.75 0.6" fill="none" stroke="#000000" stroke-linecap="round" stroke-linejoin="round" stroke-width="0.05"/>
    <path d="M44.7 -0.35 L32.95 -0.3 M45.55 -1.0 L38.3 -1.1 M41.2 0.75 Q33.95 0.8 28.05 0.45" fill="none" stroke="#f5eec1" stroke-linecap="round" stroke-linejoin="round" stroke-opacity="0.33333334" stroke-width="0.05"/>
    <path d="M24.9 -1.35 Q35.45 -1.75 49.1 -1.5 50.1 0.0 49.1 1.45 35.45 1.7 24.9 1.3 L11.45 0.95 Q-3.6 0.3 -7.4 0.9 L-7.4 1.45 -8.05 1.45 Q-8.45 0.0 -8.05 -1.5 L-7.4 -1.5 -7.4 -0.95 Q-3.6 -0.35 11.45 -0.95 L24.9 -1.35 Z" fill="none" stroke="#000000" stroke-linecap="round" stroke-linejoin="round" stroke-opacity="0.6" stroke-width="0.05"/>
  </g>
  <defs>
    <linearGradient gradientTransform="matrix(0.0, 0.0019, -0.0019, 0.0, 26.6, -0.05)" gradientUnits="userSpaceOnUse" id="gradient0" spreadMethod="pad" x1="-819.2" x2="819.2">
      <stop offset="0.0" stop-color="#bda757"/>
      <stop offset="0.23921568627450981" stop-color="#ead27b"/>
      <stop offset="0.4392156862745098" stop-color="#e2cd67"/>
      <stop offset="0.8" stop-color="#c4a532"/>
      <stop offset="1.0" stop-color="#73621e"/>
    </linearGradient>
    <linearGradient gradientTransform="matrix(0.0, 7.0E-4, -8.0E-4, 0.0, -3.1, 0.0)" gradientUnits="userSpaceOnUse" id="gradient1" spreadMethod="pad" x1="-819.2" x2="819.2">
      <stop offset="0.0" stop-color="#d9d9bf"/>
      <stop offset="0.27450980392156865" stop-color="#edeedd"/>
      <stop offset="1.0" stop-color="#b0b082"/>
    </linearGradient>
  </defs>
</svg>
