<?xml version="1.0" encoding="UTF-8" standalone="no"?>
<svg xmlns:ffdec="https://www.free-decompiler.com/flash" xmlns:xlink="http://www.w3.org/1999/xlink" ffdec:objectType="shape" height="10.45px" width="10.5px" xmlns="http://www.w3.org/2000/svg">
  <g transform="matrix(1.0, 0.0, 0.0, 1.0, 5.25, 5.2)">
    <path d="M4.25 -4.2 L4.5 -4.2 4.5 -3.5 5.25 -3.5 5.25 -2.1 4.5 -2.1 4.5 -1.4 4.25 -1.4 4.25 -1.1 3.8 -1.1 3.8 -0.7 3.5 -0.7 3.5 -0.4 3.1 -0.4 3.1 0.0 3.8 0.0 3.8 0.7 4.5 0.7 4.5 1.4 5.25 1.4 5.25 3.55 4.5 3.55 4.5 4.25 4.25 4.25 4.25 4.55 3.5 4.55 3.5 5.25 2.1 5.25 2.1 4.55 1.4 4.55 1.4 4.25 1.1 4.25 1.1 3.85 0.7 3.85 0.7 3.55 0.4 3.55 0.4 3.15 0.3 3.15 0.3 3.55 0.0 3.55 0.0 3.85 -0.4 3.85 -0.4 4.25 -0.7 4.25 -0.7 4.55 -1.4 4.55 -1.4 5.25 -3.55 5.25 -3.55 4.55 -4.25 4.55 -4.25 4.25 -4.55 4.25 -4.55 3.55 -5.25 3.55 -5.25 2.15 -4.55 2.15 -4.55 1.4 -3.85 1.4 -3.85 0.7 -3.15 0.7 -3.15 0.3 -3.55 0.3 -3.55 0.0 -3.85 0.0 -3.85 -0.4 -4.25 -0.4 -4.25 -0.7 -4.55 -0.7 -4.55 -1.4 -5.25 -1.4 -5.25 -3.5 -4.55 -3.5 -4.55 -4.2 -4.25 -4.2 -4.25 -4.5 -3.55 -4.5 -3.55 -5.2 -2.15 -5.2 -2.15 -4.5 -1.4 -4.5 -1.4 -4.2 -1.15 -4.2 -1.15 -3.8 -0.7 -3.8 -0.7 -3.5 -0.4 -3.5 -0.4 -3.1 -0.3 -3.1 -0.3 -3.5 0.0 -3.5 0.0 -3.8 0.4 -3.8 0.4 -4.2 0.7 -4.2 0.7 -4.5 1.4 -4.5 1.4 -5.2 3.5 -5.2 3.5 -4.5 4.25 -4.5 4.25 -4.2" fill="#530000" fill-rule="evenodd" stroke="none"/>
    <path d="M3.5 -3.5 L4.25 -3.5 4.25 -2.1 3.5 -2.1 3.5 -1.4 2.8 -1.4 2.8 -0.7 2.1 -0.7 2.1 0.0 2.8 0.0 2.8 0.7 3.5 0.7 3.5 1.4 4.25 1.4 4.25 3.55 3.5 3.55 3.5 4.25 2.1 4.25 2.1 3.55 1.4 3.55 1.4 2.85 0.7 2.85 0.7 2.15 0.0 2.15 0.0 2.85 -0.7 2.85 -0.7 3.55 -1.4 3.55 -1.4 4.25 -3.55 4.25 -3.55 3.55 -4.25 3.55 -4.25 2.15 -3.55 2.15 -3.55 1.4 -2.85 1.4 -2.85 0.7 -2.15 0.7 -2.15 0.0 -2.85 0.0 -2.85 -0.7 -3.55 -0.7 -3.55 -1.4 -4.25 -1.4 -4.25 -3.5 -3.55 -3.5 -3.55 -4.2 -2.15 -4.2 -2.15 -3.5 -1.4 -3.5 -1.4 -2.8 -0.7 -2.8 -0.7 -2.1 0.0 -2.1 0.0 -2.8 0.7 -2.8 0.7 -3.5 1.4 -3.5 1.4 -4.2 3.5 -4.2 3.5 -3.5" fill="#ff0000" fill-rule="evenodd" stroke="none"/>
  </g>
</svg>
