<?xml version="1.0" encoding="UTF-8" standalone="no"?>
<svg xmlns:ffdec="https://www.free-decompiler.com/flash" xmlns:xlink="http://www.w3.org/1999/xlink" ffdec:objectType="shape" height="10.6px" width="9.7px" xmlns="http://www.w3.org/2000/svg">
  <g transform="matrix(1.0, 0.0, 0.0, 1.0, 0.0, 0.0)">
    <path d="M6.3 3.4 L6.3 0.95 8.75 3.4 6.3 3.4 M4.0 2.0 L2.0 2.0 2.0 6.0 4.0 6.0 4.0 2.0 M0.8 0.75 L5.55 0.75 5.55 4.15 8.95 4.15 8.95 9.85 0.8 9.85 0.8 0.75 M2.0 7.0 L2.0 8.0 4.0 8.0 4.0 7.0 2.0 7.0" fill="#e4dac0" fill-rule="evenodd" stroke="none"/>
    <path d="M6.3 3.4 L8.75 3.4 6.3 0.95 6.3 3.4 M0.8 0.75 L0.8 9.85 8.95 9.85 8.95 4.15 5.55 4.15 5.55 0.75 0.8 0.75 M6.2 0.0 L9.7 3.5 9.7 10.6 0.0 10.6 0.0 0.0 6.2 0.0" fill="#6b582c" fill-rule="evenodd" stroke="none"/>
    <path d="M4.0 2.0 L4.0 6.0 2.0 6.0 2.0 2.0 4.0 2.0 M2.0 7.0 L4.0 7.0 4.0 8.0 2.0 8.0 2.0 7.0" fill="#5a4a25" fill-rule="evenodd" stroke="none"/>
  </g>
</svg>
