<?xml version="1.0" encoding="UTF-8" standalone="no"?>
<svg xmlns:ffdec="https://www.free-decompiler.com/flash" xmlns:xlink="http://www.w3.org/1999/xlink" ffdec:objectType="shape" height="19.3px" width="79.05px" xmlns="http://www.w3.org/2000/svg">
  <g transform="matrix(1.0, 0.0, 0.0, 1.0, 1.65, -12.15)">
    <path d="M76.9 15.0 Q62.85 19.05 55.75 24.7 63.35 21.3 74.65 21.45 58.2 22.4 47.1 30.95 56.4 19.4 76.9 15.0 M1.45 21.15 Q16.45 20.35 26.3 24.3 13.35 17.2 -1.15 12.65 24.1 18.55 37.05 30.7 19.45 21.4 1.45 21.15" fill="#000000" fill-rule="evenodd" stroke="none"/>
    <path d="M76.9 15.0 Q56.4 19.4 47.1 30.95 58.2 22.4 74.65 21.45 63.35 21.3 55.75 24.7 62.85 19.05 76.9 15.0 M52.35 22.45 Q47.95 24.75 45.5 27.65 44.8 25.5 45.5 22.75 M1.45 21.15 Q19.45 21.4 37.05 30.7 24.1 18.55 -1.15 12.65 13.35 17.2 26.3 24.3 16.45 20.35 1.45 21.15 M28.25 21.15 Q35.75 23.7 39.35 27.85 40.75 25.55 38.7 21.5" fill="none" stroke="#000000" stroke-linecap="round" stroke-linejoin="round" stroke-width="1.0"/>
  </g>
</svg>
