<?xml version="1.0" encoding="UTF-8" standalone="no"?>
<svg xmlns:ffdec="https://www.free-decompiler.com/flash" xmlns:xlink="http://www.w3.org/1999/xlink" ffdec:objectType="shape" height="9.45px" width="18.3px" xmlns="http://www.w3.org/2000/svg">
  <g transform="matrix(1.0, 0.0, 0.0, 1.0, -0.75, -0.9)">
    <path d="M13.0 5.95 L12.9 6.0 10.8 8.05 10.8 8.1 13.1 10.3 12.95 10.3 11.35 10.35 9.95 8.95 9.9 8.9 8.45 10.3 6.85 10.3 6.7 10.3 9.0 8.1 9.0 8.05 6.9 6.0 6.8 5.95 8.6 5.95 9.9 7.2 9.95 7.15 10.0 7.25 9.95 7.35 8.6 6.0 6.9 6.0 7.25 6.2 9.3 8.2 9.1 8.15 6.85 10.3 7.25 10.2 8.45 10.2 9.95 8.75 11.4 10.25 11.45 10.2 12.6 10.2 12.95 10.3 10.7 8.15 10.5 8.15 12.6 6.15 12.9 6.0 11.25 6.0 11.1 6.0 11.2 5.95 13.0 5.95" fill="#646464" fill-rule="evenodd" stroke="none"/>
    <path d="M10.5 2.45 L12.4 2.6 12.5 2.75 10.55 2.55 10.5 2.45 9.9 1.0 9.35 2.35 9.3 2.45 9.25 2.55 7.3 2.75 7.35 2.6 9.3 2.45 9.3 2.35 9.35 2.35 9.9 0.9 10.5 2.45 M11.15 4.25 L11.2 4.25 11.3 4.75 11.15 4.25 M15.15 3.95 L15.25 3.9 15.45 3.9 15.15 3.95 M16.95 4.1 L17.7 4.2 18.55 4.6 19.05 5.05 18.85 5.1 18.8 5.05 18.95 5.05 18.55 4.7 18.55 4.65 17.75 4.25 16.95 4.1 M17.9 5.3 L17.45 6.05 17.3 6.1 17.3 6.05 17.4 6.05 17.85 5.25 17.9 5.3 M16.65 6.05 L16.15 6.75 16.6 6.05 16.65 6.05 M14.35 7.25 L13.9 7.9 13.85 7.85 14.35 7.25 M13.25 7.65 L12.5 8.15 12.15 7.9 11.7 8.15 11.65 8.1 12.15 7.9 12.15 7.85 12.5 8.1 13.25 7.6 13.25 7.65 M11.2 7.9 L11.15 7.9 13.0 5.95 11.2 5.95 11.25 5.9 13.0 5.9 13.0 5.95 13.15 5.8 13.35 5.8 13.15 5.85 11.2 7.9 M10.8 8.05 L13.1 10.25 13.1 10.3 10.8 8.1 10.8 8.05 M11.35 10.35 L11.3 10.35 9.95 8.95 11.35 10.35 M6.7 10.3 L6.7 10.25 9.0 8.05 9.0 8.1 6.7 10.3 M6.8 5.95 L8.65 7.9 8.6 7.9 6.6 5.8 6.65 5.8 6.8 5.95 6.8 5.9 8.65 5.9 9.95 7.15 11.1 6.0 11.25 6.0 10.0 7.25 9.95 7.15 9.9 7.2 8.6 5.95 6.8 5.95 M8.5 7.95 L8.25 8.1 8.15 8.05 8.5 7.95 M8.15 8.1 L8.1 8.15 7.65 7.9 7.3 8.15 6.5 7.65 6.55 7.6 7.3 8.1 7.65 7.85 8.15 8.1 M5.9 7.85 L5.45 7.25 5.45 7.2 5.9 7.85 M3.65 6.75 L3.15 6.05 3.2 6.05 3.65 6.75 M2.45 6.05 L2.5 6.1 2.4 6.05 2.35 6.05 1.9 5.3 1.9 5.25 2.4 6.05 2.45 6.05 M0.95 5.1 L0.8 5.1 0.75 5.05 1.25 4.6 2.1 4.2 4.25 3.9 2.05 4.25 1.25 4.65 1.25 4.7 0.8 5.1 1.0 5.05 0.95 5.1 M4.35 3.9 L4.55 3.9 4.6 3.95 4.35 3.9 M5.0 4.05 L6.85 4.3 6.95 4.4 5.0 4.05 M8.5 4.7 L8.6 4.25 8.65 4.25 8.5 4.7 M11.15 5.8 L10.05 6.85 10.05 6.5 10.05 6.4 10.4 5.55 10.45 5.5 10.55 5.15 10.65 5.1 10.7 5.05 10.45 5.5 10.4 5.6 10.05 6.5 10.1 6.75 10.1 6.7 11.1 5.8 11.15 5.8 M9.1 5.05 L9.15 5.05 9.1 5.1 9.1 5.05 M9.4 5.6 L9.75 6.4 9.7 6.65 9.75 6.85 8.65 5.8 8.7 5.8 9.7 6.75 9.7 6.65 9.7 6.45 9.4 5.6" fill="#000000" fill-rule="evenodd" stroke="none"/>
    <path d="M12.9 6.0 L12.6 6.15 10.5 8.15 10.7 8.15 12.95 10.3 12.6 10.2 11.45 10.2 11.4 10.25 9.95 8.75 8.45 10.2 7.25 10.2 6.85 10.3 9.1 8.15 9.3 8.2 7.25 6.2 6.9 6.0 8.6 6.0 9.95 7.35 10.0 7.25 11.25 6.0 12.9 6.0" fill="#c8c8c8" fill-rule="evenodd" stroke="none"/>
    <path d="M12.5 2.75 L11.0 3.85 9.9 3.75 11.6 5.55 10.8 5.1 10.7 5.15 10.75 5.15 10.45 5.65 10.5 5.65 10.15 6.5 10.2 6.5 10.2 6.6 10.25 6.5 11.1 5.75 13.6 5.75 13.35 5.8 11.3 7.9 11.7 8.0 12.15 7.75 12.25 7.8 12.55 8.0 13.25 7.5 13.85 7.75 14.3 7.1 15.05 7.2 15.4 6.55 16.1 6.65 16.6 5.95 17.4 5.95 17.8 5.15 18.7 5.0 18.75 5.0 18.5 4.8 18.55 4.75 17.75 4.35 17.75 4.3 15.55 4.0 11.35 4.8 11.3 4.75 12.65 4.35 14.05 4.15 14.95 4.0 15.15 3.95 15.45 3.9 15.5 3.9 16.1 4.0 16.7 4.05 16.95 4.1 16.1 4.0 16.95 4.1 17.75 4.25 18.55 4.65 18.55 4.7 18.95 5.05 18.8 5.05 18.85 5.1 17.9 5.3 17.85 5.25 17.4 6.05 17.3 6.05 16.65 6.05 16.6 6.05 16.15 6.75 15.45 6.65 15.05 7.35 14.35 7.25 13.85 7.85 13.25 7.65 13.25 7.6 12.5 8.1 12.15 7.85 12.15 7.9 11.65 8.1 11.3 7.9 11.2 7.9 13.15 5.85 13.35 5.8 13.15 5.8 11.15 5.8 11.1 5.8 10.1 6.7 10.1 6.75 10.05 6.5 10.4 5.6 10.45 5.5 10.7 5.05 9.9 4.65 9.1 5.05 9.1 5.1 9.15 5.05 9.4 5.6 9.7 6.45 9.7 6.65 9.7 6.75 8.7 5.8 8.65 5.8 6.65 5.8 6.6 5.8 8.6 7.9 8.5 7.95 6.45 5.8 6.2 5.75 8.7 5.75 9.55 6.5 9.65 6.65 9.65 6.45 9.05 5.2 9.1 5.15 9.0 5.1 8.25 5.5 9.9 3.75 8.75 3.85 7.3 2.75 9.9 3.75 12.5 2.75 M8.25 8.1 L8.15 8.1 7.65 7.85 7.3 8.1 6.55 7.6 6.5 7.65 5.9 7.85 5.45 7.2 5.45 7.25 4.75 7.35 4.35 6.65 3.65 6.75 3.2 6.05 3.15 6.05 2.45 6.05 2.4 6.05 1.9 5.25 1.9 5.3 0.95 5.1 1.0 5.05 0.8 5.1 1.25 4.7 1.25 4.65 2.05 4.25 4.25 3.9 4.35 3.9 4.6 3.95 5.0 4.05 6.95 4.4 6.85 4.3 7.2 4.35 8.5 4.7 8.45 4.8 4.25 4.0 2.0 4.35 1.25 4.75 1.3 4.8 1.05 5.0 1.95 5.15 2.4 5.95 3.2 5.95 3.7 6.65 4.4 6.55 4.75 7.2 5.5 7.1 5.95 7.75 6.5 7.5 7.3 8.0 7.65 7.75 8.1 8.0 8.25 7.95 8.5 7.95 8.15 8.05 8.25 8.1" fill="#7f6600" fill-rule="evenodd" stroke="none"/>
    <path d="M10.5 2.45 L10.55 2.55 12.5 2.75 9.9 3.75 7.3 2.75 9.25 2.55 9.3 2.45 9.35 2.35 9.9 1.0 10.5 2.45 M11.0 3.85 L11.15 4.25 11.3 4.75 11.35 4.8 15.55 4.0 17.75 4.3 17.75 4.35 18.55 4.75 18.5 4.8 18.75 5.0 18.7 5.0 17.8 5.15 17.4 5.95 16.6 5.95 16.1 6.65 15.4 6.55 15.05 7.2 14.3 7.1 13.85 7.75 13.25 7.5 12.55 8.0 12.25 7.8 12.15 7.75 11.7 8.0 11.3 7.9 13.35 5.8 13.6 5.75 11.1 5.75 10.25 6.5 10.2 6.6 10.2 6.5 10.15 6.5 10.5 5.65 10.45 5.65 10.75 5.15 10.7 5.15 10.8 5.1 11.6 5.55 9.9 3.75 11.0 3.85 M8.65 4.25 L8.75 3.85 9.9 3.75 8.25 5.5 9.0 5.1 9.1 5.15 9.05 5.2 9.65 6.45 9.65 6.65 9.55 6.5 8.7 5.75 6.2 5.75 6.45 5.8 8.5 7.95 8.25 7.95 8.1 8.0 7.65 7.75 7.3 8.0 6.5 7.5 5.95 7.75 5.5 7.1 4.75 7.2 4.4 6.55 3.7 6.65 3.2 5.95 2.4 5.95 1.95 5.15 1.05 5.0 1.3 4.8 1.25 4.75 2.0 4.35 4.25 4.0 8.45 4.8 8.5 4.7 8.65 4.25" fill="#ffcc00" fill-rule="evenodd" stroke="none"/>
  </g>
</svg>
