<?xml version="1.0" encoding="UTF-8" standalone="no"?>
<svg xmlns:ffdec="https://www.free-decompiler.com/flash" xmlns:xlink="http://www.w3.org/1999/xlink" ffdec:objectType="shape" height="9.7px" width="18.0px" xmlns="http://www.w3.org/2000/svg">
  <g transform="matrix(1.0, 0.0, 0.0, 1.0, -1.55, -0.9)">
    <path d="M12.4 2.8 L11.05 3.8 10.95 3.9 9.7 3.75 11.45 5.55 10.75 5.2 10.7 5.2 10.7 5.25 10.1 6.6 11.05 5.8 13.6 5.95 13.4 6.0 11.3 8.05 11.45 8.05 11.65 8.15 12.1 7.9 12.5 8.2 13.25 7.75 13.9 8.05 14.35 7.45 14.3 7.4 15.1 7.6 15.5 6.9 16.25 7.05 16.25 7.1 16.75 6.4 17.65 6.45 18.15 5.65 19.2 5.5 19.35 5.55 18.2 5.7 17.7 6.5 16.85 6.45 16.8 6.45 16.3 7.2 15.6 7.05 15.55 7.05 15.2 7.7 14.35 7.5 14.4 7.55 13.9 8.15 13.25 7.85 12.5 8.3 12.15 8.0 12.1 8.05 11.65 8.25 11.3 8.05 11.25 8.05 11.15 8.0 12.05 7.15 13.2 6.05 13.4 6.0 13.2 6.0 11.15 5.85 11.1 5.85 10.05 6.8 10.1 6.6 10.05 6.45 10.3 5.75 10.65 5.1 9.85 4.65 9.1 5.0 9.15 5.05 9.55 5.9 9.75 6.45 9.7 6.45 9.7 6.8 9.65 6.7 9.65 6.65 9.65 6.45 9.35 5.65 9.05 5.1 9.1 5.1 9.0 5.0 8.2 5.45 8.45 4.75 7.3 4.4 7.25 4.35 4.55 3.75 4.55 3.8 3.5 3.85 3.5 3.9 2.6 4.05 2.6 4.1 1.95 4.4 1.95 4.5 1.85 4.6 2.55 4.8 2.95 5.5 3.65 5.55 4.05 6.25 4.7 6.2 5.05 6.9 5.65 6.85 5.65 6.8 6.1 7.45 6.6 7.3 6.6 7.25 7.3 7.75 7.3 7.85 7.65 7.6 7.65 7.55 8.1 7.85 8.1 7.9 8.25 7.8 8.45 7.85 8.15 8.0 7.75 7.7 7.7 7.7 7.35 7.95 7.3 7.85 7.25 7.85 6.65 7.4 6.1 7.55 5.65 6.9 5.65 6.95 5.1 6.95 5.0 7.0 4.7 6.3 4.05 6.35 3.6 5.65 2.9 5.6 2.5 4.95 2.5 4.9 1.6 4.65 1.9 4.35 1.9 4.3 2.65 3.9 3.3 3.8 3.65 3.75 3.3 3.8 3.5 3.75 3.65 3.75 4.6 3.7 6.7 4.15 7.1 4.2 8.45 4.65 8.45 4.6 8.75 3.8 7.3 2.65 9.7 3.75 9.2 2.55 9.25 2.45 9.85 1.0 9.7 3.75 12.4 2.8 M15.65 4.15 L17.3 4.45 18.1 4.6 18.55 4.8 19.0 5.0 19.0 5.05 19.5 5.55 19.35 5.55 18.95 5.1 18.05 4.7 16.95 4.45 16.95 4.4 15.65 4.25 12.6 4.6 12.6 4.65 12.55 4.65 11.3 4.9 11.3 4.8 12.5 4.55 15.65 4.15 M8.65 5.75 L6.8 5.65 6.75 5.65 8.65 7.8 8.55 7.85 6.65 5.65 6.2 5.5 8.7 5.65 9.5 6.45 9.5 6.55 8.7 5.7 8.65 5.75" fill="#7f6600" fill-rule="evenodd" stroke="none"/>
    <path d="M9.85 1.0 L10.45 2.6 12.4 2.8 9.7 3.75 9.85 1.0 M10.95 3.9 L11.3 5.05 11.3 4.9 12.55 4.65 12.6 4.65 12.6 4.6 15.65 4.25 16.95 4.4 16.95 4.45 18.05 4.7 18.95 5.1 19.35 5.55 19.2 5.5 18.15 5.65 17.65 6.45 16.75 6.4 16.25 7.1 16.25 7.05 15.5 6.9 15.1 7.6 14.3 7.4 14.35 7.45 13.9 8.05 13.25 7.75 12.5 8.2 12.1 7.9 11.65 8.15 11.45 8.05 11.3 8.05 13.4 6.0 13.6 5.95 11.05 5.8 10.1 6.6 10.7 5.25 10.7 5.2 10.75 5.2 11.45 5.55 9.7 3.75 10.95 3.9 M7.3 7.85 L7.3 7.75 6.6 7.25 6.6 7.3 6.1 7.45 5.65 6.8 5.65 6.85 5.05 6.9 4.7 6.2 4.05 6.25 3.65 5.55 2.95 5.5 2.55 4.8 1.85 4.6 1.95 4.5 1.95 4.4 2.6 4.1 2.6 4.05 3.5 3.9 3.5 3.85 4.55 3.8 4.55 3.75 7.25 4.35 7.3 4.4 8.45 4.75 8.2 5.45 9.0 5.0 9.1 5.1 9.05 5.1 9.35 5.65 9.65 6.45 9.65 6.65 9.5 6.55 9.5 6.45 8.7 5.65 6.2 5.5 6.65 5.65 8.55 7.85 8.45 7.85 8.25 7.8 8.1 7.9 8.1 7.85 7.65 7.55 7.65 7.6 7.3 7.85 M9.2 2.55 L9.7 3.75 7.3 2.65 9.2 2.55" fill="#ffcc00" fill-rule="evenodd" stroke="none"/>
    <path d="M9.85 1.0 L10.0 0.9 10.6 2.45 12.5 2.7 12.4 2.8 10.45 2.6 9.85 1.0 M11.05 3.8 L11.35 4.75 12.5 4.55 12.7 4.45 15.65 4.15 12.5 4.55 11.3 4.8 11.3 4.9 11.3 5.05 10.95 3.9 11.05 3.8 M17.3 4.45 L18.05 4.55 18.55 4.8 18.1 4.6 17.3 4.45 M19.0 5.05 L19.55 5.55 19.5 5.55 18.2 5.75 17.7 6.55 17.7 6.5 18.2 5.7 19.35 5.55 19.5 5.55 19.0 5.05 M16.85 6.45 L16.35 7.2 16.3 7.2 16.8 6.45 16.85 6.45 M15.6 7.05 L15.2 7.7 15.15 7.7 14.4 7.55 14.45 7.65 13.9 8.2 13.25 7.9 12.5 8.35 12.1 8.05 12.15 8.0 12.5 8.3 13.25 7.85 13.9 8.15 14.4 7.55 14.35 7.5 15.2 7.7 15.55 7.05 15.6 7.05 M11.65 8.25 L11.6 8.25 11.25 8.05 11.3 8.05 11.65 8.25 M12.05 7.15 L13.2 6.0 13.4 6.0 13.2 6.05 12.05 7.15 M11.15 5.85 L10.05 6.85 10.05 6.8 10.05 6.45 10.1 6.6 10.05 6.8 11.1 5.85 11.15 5.85 M10.3 5.75 L10.35 5.6 10.65 5.1 10.3 5.75 M9.1 5.0 L9.15 5.0 9.15 5.05 9.55 5.75 9.55 5.9 9.75 6.4 9.75 6.45 9.75 6.8 9.7 6.8 9.7 6.45 9.75 6.45 9.55 5.9 9.15 5.05 9.1 5.0 M9.65 6.7 L9.5 6.55 8.65 5.75 8.7 5.7 9.5 6.55 9.65 6.65 9.65 6.7 M6.8 5.65 L6.9 5.75 7.0 5.85 7.05 5.85 7.1 5.95 8.45 7.35 8.7 7.8 8.65 7.8 6.75 5.65 6.8 5.65 M6.95 5.75 L6.9 5.7 8.65 5.85 6.95 5.75 M9.9 7.2 L11.2 6.0 11.2 6.05 9.9 7.3 9.9 7.2 M12.9 6.2 L11.9 7.15 12.85 6.2 12.9 6.2 M10.85 8.15 L13.1 10.5 13.15 10.6 13.1 10.6 10.8 8.15 10.85 8.15 M11.35 10.45 L11.3 10.45 9.9 8.95 9.9 8.9 11.35 10.45 M8.45 10.2 L7.0 10.05 7.0 10.0 7.05 10.0 8.4 10.15 8.45 10.2 M6.85 10.05 L6.85 10.0 8.1 8.95 6.85 10.05 M9.0 8.05 L9.05 8.0 9.1 8.1 9.0 8.05 M8.55 7.85 L8.15 8.0 8.45 7.85 8.55 7.85 M7.75 7.7 L7.35 7.95 7.25 7.85 7.3 7.85 7.35 7.95 7.7 7.7 7.75 7.7 M6.65 7.4 L6.1 7.6 5.65 6.95 5.65 6.9 6.1 7.55 6.65 7.4 M5.1 6.95 L5.1 7.0 5.0 7.0 4.95 7.0 4.65 6.35 4.05 6.4 3.6 5.7 2.9 5.65 2.9 5.6 3.6 5.65 4.05 6.35 4.7 6.3 5.0 7.0 5.1 6.95 M2.5 4.95 L1.55 4.7 1.6 4.65 1.9 4.3 1.95 4.2 2.65 3.9 2.65 3.85 3.3 3.8 2.65 3.9 1.9 4.3 1.9 4.35 1.6 4.65 2.5 4.9 2.5 4.95 M3.65 3.75 L4.65 3.65 7.1 4.2 7.8 4.35 8.45 4.6 8.45 4.65 7.1 4.2 6.7 4.15 4.6 3.7 3.65 3.75 M7.3 2.65 L7.55 2.55 9.25 2.45 9.2 2.55 7.3 2.65" fill="#000000" fill-rule="evenodd" stroke="none"/>
    <path d="M6.9 5.75 L6.95 5.75 8.65 5.85 9.9 7.2 9.9 7.3 11.2 6.05 11.2 6.0 11.25 6.0 13.0 6.1 12.9 6.2 12.85 6.2 11.9 7.15 10.8 8.1 10.85 8.15 10.8 8.15 13.1 10.6 13.0 10.6 10.7 8.2 10.5 8.2 12.55 6.35 12.85 6.2 11.2 6.1 11.2 6.15 10.0 7.25 9.9 7.4 9.9 7.3 8.6 5.9 8.6 5.95 7.05 5.85 7.0 5.85 6.9 5.75 M12.9 10.6 L11.35 10.45 9.9 8.9 8.45 10.2 8.4 10.15 7.05 10.0 7.3 9.95 8.35 10.05 8.4 10.1 9.9 8.75 11.35 10.35 12.5 10.45 12.9 10.6 M7.0 10.05 L6.85 10.05 8.1 8.95 9.0 8.05 9.1 8.1 9.05 8.0 8.45 7.35 7.1 5.95 7.3 6.05 9.25 8.15 9.15 8.1 9.1 8.1 8.1 9.05 8.65 8.6 7.05 10.0 7.0 10.0 7.0 10.05" fill="#646464" fill-rule="evenodd" stroke="none"/>
    <path d="M13.0 10.6 L12.9 10.6 12.5 10.45 11.35 10.35 9.9 8.75 8.4 10.1 8.35 10.05 7.3 9.95 7.05 10.0 8.65 8.6 8.1 9.05 9.1 8.1 9.15 8.1 9.25 8.15 7.3 6.05 7.1 5.95 7.05 5.85 8.6 5.95 8.6 5.9 9.9 7.3 9.9 7.4 10.0 7.25 11.2 6.15 11.2 6.1 12.85 6.2 12.55 6.35 10.5 8.2 10.7 8.2 13.0 10.6" fill="#c8c8c8" fill-rule="evenodd" stroke="none"/>
  </g>
</svg>
