<?xml version="1.0" encoding="UTF-8" standalone="no"?>
<svg xmlns:ffdec="https://www.free-decompiler.com/flash" xmlns:xlink="http://www.w3.org/1999/xlink" ffdec:objectType="shape" height="10.0px" width="17.2px" xmlns="http://www.w3.org/2000/svg">
  <g transform="matrix(1.0, 0.0, 0.0, 1.0, -2.5, -0.9)">
    <path d="M12.25 2.9 L10.35 2.6 9.75 1.0 10.0 0.9 10.6 2.5 12.45 2.8 11.05 3.75 11.35 4.85 12.55 4.6 12.8 4.6 15.55 4.4 15.5 4.45 13.05 4.65 12.5 4.65 11.2 4.9 11.15 5.0 11.35 5.7 10.8 3.9 12.25 2.9 M18.1 5.0 L18.2 5.0 18.05 4.95 18.3 5.0 19.05 5.4 19.7 6.15 19.65 6.15 19.05 5.45 18.1 5.0 M19.5 6.15 L18.25 6.25 17.7 7.05 17.65 7.05 17.55 7.05 17.6 6.95 17.65 7.05 18.2 6.2 19.45 6.1 19.5 6.15 M16.8 6.95 L16.25 7.65 16.2 7.65 15.45 7.45 15.1 8.1 15.05 8.1 14.3 7.9 13.8 8.5 13.75 8.5 13.7 8.45 13.7 8.4 13.75 8.5 14.25 7.9 14.2 7.8 14.95 8.05 15.05 8.1 15.45 7.45 15.35 7.35 16.15 7.6 16.2 7.65 16.75 6.95 16.8 6.95 M13.15 8.15 L12.4 8.55 12.35 8.5 12.0 8.25 11.55 8.4 11.5 8.4 11.2 8.2 11.25 8.15 11.5 8.35 11.5 8.4 11.95 8.2 11.95 8.15 12.35 8.45 12.35 8.5 13.1 8.1 13.15 8.15 M12.0 7.3 L13.1 6.2 13.15 6.2 12.0 7.3 M11.05 5.95 L10.05 6.8 10.0 6.85 10.0 6.45 10.3 5.75 10.6 5.2 10.6 5.25 10.3 5.75 10.05 6.55 10.05 6.65 10.05 6.8 11.0 5.95 11.05 5.95 M9.2 4.95 L9.55 5.65 9.2 5.0 9.1 4.95 9.2 4.95 M9.75 6.25 L9.8 6.35 9.8 6.75 9.75 6.8 9.75 6.25 M9.65 6.75 L9.45 6.5 9.95 7.15 11.15 6.1 11.15 6.05 12.9 6.25 12.9 6.3 12.0 7.05 12.75 6.4 12.9 6.3 11.15 6.1 11.1 6.2 9.95 7.2 8.75 5.75 8.8 5.75 8.75 5.7 7.1 5.5 6.95 5.45 6.65 5.4 8.75 5.65 9.5 6.5 9.65 6.75 M10.75 8.15 L13.0 10.8 13.05 10.9 10.75 8.2 10.7 8.25 10.65 8.25 10.75 8.15 M12.75 10.9 L11.25 10.6 11.2 10.55 11.1 10.55 9.9 9.0 9.9 8.95 9.85 8.95 8.6 10.05 8.55 10.05 7.3 9.8 7.05 9.75 9.05 7.95 9.1 8.0 7.15 9.75 7.3 9.8 8.45 10.0 8.55 10.05 9.85 8.9 9.9 8.95 11.2 10.55 12.6 10.8 12.75 10.9 M8.7 7.7 L8.25 7.9 8.25 7.85 8.55 7.75 8.7 7.7 M8.15 7.75 L7.85 7.6 7.55 7.8 7.5 7.75 7.8 7.55 7.75 7.5 8.15 7.75 M7.45 7.7 L7.4 7.65 7.45 7.6 7.45 7.7 M6.9 7.2 L6.4 7.35 6.35 7.3 6.0 6.7 5.4 6.7 5.15 6.05 4.6 6.05 4.55 6.0 4.5 5.85 4.55 5.85 4.55 6.0 5.15 6.0 5.45 6.65 5.95 6.65 6.0 6.6 6.35 7.25 6.35 7.3 6.85 7.15 6.9 7.2 M4.2 5.35 L3.6 5.3 3.6 5.25 3.45 5.0 3.5 5.0 3.6 5.25 4.2 5.3 4.2 5.35 M3.3 4.6 L2.5 4.3 2.8 3.95 2.8 3.9 3.2 3.75 3.35 3.7 3.3 3.75 3.2 3.75 2.8 3.95 2.55 4.3 3.3 4.55 3.3 4.6 M3.4 3.65 L3.45 3.6 4.1 3.55 3.4 3.65 M4.15 3.55 L5.2 3.45 7.3 4.1 6.85 4.0 5.1 3.5 5.05 3.55 4.15 3.55 M7.4 4.1 L8.5 4.5 8.5 4.55 7.4 4.1 M8.75 3.75 L7.45 2.55 7.8 2.45 9.2 2.4 9.15 2.5 7.45 2.55 9.45 3.75 8.75 3.75 M9.9 7.25 L9.85 7.25 9.95 7.2 9.9 7.25 M9.2 8.1 L9.1 8.05 9.1 8.0 9.2 8.1 M8.75 5.75 L8.7 5.8 7.2 5.6 7.1 5.6 7.15 5.55 8.75 5.75" fill="#000000" fill-rule="evenodd" stroke="none"/>
    <path d="M12.0 7.05 L10.75 8.15 10.65 8.25 10.4 8.25 12.4 6.5 12.75 6.4 11.1 6.2 11.15 6.1 12.9 6.3 12.75 6.4 12.0 7.05 M13.05 10.9 L12.95 10.9 10.7 8.25 10.75 8.2 13.05 10.9 M9.05 7.95 L8.25 7.0 7.4 5.9 7.55 6.0 9.25 8.05 9.2 8.1 7.3 9.8 7.5 9.7 8.4 9.85 8.45 9.95 9.8 8.75 9.8 8.65 11.25 10.45 11.25 10.5 12.35 10.7 12.6 10.8 11.2 10.55 9.9 8.95 9.85 8.9 8.55 10.05 8.45 10.0 7.3 9.8 7.15 9.75 9.1 8.0 9.05 7.95 M11.1 6.2 L11.1 6.35 9.8 7.5 9.85 7.3 9.9 7.25 9.95 7.2 9.85 7.25 8.7 5.8 8.65 5.9 7.25 5.7 7.15 5.65 7.2 5.6 8.7 5.8 8.75 5.75 9.95 7.2 11.1 6.2 M9.2 8.1 L9.1 8.0 9.1 8.05 9.2 8.1" fill="#646464" fill-rule="evenodd" stroke="none"/>
    <path d="M12.95 10.9 L12.75 10.9 12.6 10.8 12.35 10.7 11.25 10.5 11.25 10.45 9.8 8.65 9.8 8.75 8.45 9.95 8.4 9.85 7.5 9.7 7.3 9.8 9.2 8.1 9.25 8.05 7.55 6.0 7.4 5.9 7.35 5.85 7.25 5.7 8.65 5.9 8.7 5.8 9.85 7.25 9.9 7.25 9.85 7.3 9.8 7.5 11.1 6.35 11.1 6.2 12.75 6.4 12.4 6.5 10.4 8.25 10.65 8.25 10.7 8.25 12.95 10.9" fill="#c8c8c8" fill-rule="evenodd" stroke="none"/>
    <path d="M12.25 2.9 L10.8 3.9 9.45 3.75 12.25 2.9 M11.15 5.0 L11.2 4.9 12.5 4.65 13.05 4.65 15.5 4.45 15.55 4.4 15.6 4.4 18.05 4.95 18.1 5.0 19.05 5.45 19.65 6.15 19.5 6.15 19.45 6.1 18.2 6.2 17.65 7.05 17.6 6.95 17.55 7.05 16.8 6.95 16.75 6.95 16.2 7.65 16.15 7.6 15.35 7.35 15.3 7.3 16.1 7.5 16.15 7.6 16.7 6.85 16.6 6.75 17.55 6.9 17.6 6.95 18.15 6.15 18.1 6.1 19.25 6.05 19.45 6.1 19.0 5.6 19.0 5.55 18.05 5.05 15.5 4.5 15.5 4.55 12.45 4.75 11.15 5.0 M9.75 1.0 L9.45 3.75 9.15 2.5 9.2 2.4 9.75 1.0 M11.35 5.7 L10.7 5.25 10.6 5.3 10.6 5.35 10.4 5.75 10.2 6.45 10.05 6.65 10.9 5.9 10.9 5.8 13.5 6.15 13.35 6.2 11.25 8.15 11.4 8.15 11.5 8.25 11.95 8.1 11.95 8.05 12.35 8.35 12.35 8.4 13.05 8.05 13.05 7.95 13.65 8.3 13.7 8.4 14.2 7.8 14.15 7.75 14.9 7.95 14.95 8.05 15.35 7.35 15.45 7.45 15.05 8.1 14.95 8.05 14.2 7.8 14.25 7.9 13.75 8.5 13.7 8.4 13.7 8.45 13.15 8.15 13.1 8.1 12.35 8.5 12.35 8.45 11.95 8.15 11.95 8.2 11.5 8.4 11.5 8.35 11.25 8.15 11.2 8.2 11.1 8.1 12.0 7.3 13.15 6.2 13.1 6.2 11.05 5.95 11.0 5.95 10.05 6.8 10.05 6.65 10.05 6.55 10.3 5.75 10.6 5.25 10.6 5.2 9.8 4.65 9.2 4.95 9.1 4.95 9.2 5.0 9.55 5.65 9.75 6.25 9.75 6.8 9.7 6.8 9.65 6.75 9.65 6.45 9.7 6.45 9.45 5.65 9.15 5.05 9.1 5.05 9.0 5.0 8.25 5.35 8.45 4.65 7.4 4.2 7.4 4.25 5.05 3.6 5.0 3.65 4.1 3.7 4.1 3.75 3.35 3.85 3.35 3.9 4.3 3.75 3.35 3.95 4.25 5.15 4.6 5.85 5.15 5.85 5.45 6.5 6.0 6.5 6.4 7.15 6.85 7.0 7.45 7.55 7.45 7.6 7.75 7.45 7.75 7.35 8.15 7.65 8.2 7.75 8.3 7.7 8.55 7.75 8.25 7.85 8.15 7.75 7.75 7.5 7.8 7.55 7.5 7.75 7.45 7.7 7.45 7.6 7.4 7.65 6.9 7.2 6.85 7.15 6.35 7.3 6.35 7.25 6.0 6.6 5.95 6.65 5.45 6.65 5.15 6.0 4.55 6.0 4.55 5.85 4.5 5.85 4.2 5.35 4.2 5.3 3.6 5.25 3.5 5.0 3.3 4.6 3.3 4.55 2.55 4.3 2.8 3.95 3.2 3.75 3.3 3.75 3.35 3.7 3.35 3.65 3.4 3.65 4.1 3.55 4.15 3.55 5.05 3.55 5.1 3.5 6.85 4.0 7.3 4.1 7.4 4.1 8.5 4.55 8.5 4.5 8.75 3.75 9.45 3.75 11.35 5.7 M8.25 7.0 L8.75 7.65 8.75 7.7 8.7 7.7 6.95 5.45 7.1 5.5 7.15 5.55 7.1 5.6 7.2 5.6 7.15 5.65 7.25 5.7 7.35 5.85 7.4 5.9 8.25 7.0 M9.5 6.5 L8.75 5.65 6.65 5.4 6.4 5.25 8.75 5.5 9.35 6.25 9.5 6.5" fill="#7f6600" fill-rule="evenodd" stroke="none"/>
    <path d="M9.75 1.0 L10.35 2.6 12.25 2.9 9.45 3.75 9.75 1.0 M10.8 3.9 L11.35 5.7 11.15 5.0 12.45 4.75 15.5 4.55 15.5 4.5 18.05 5.05 19.0 5.55 19.0 5.6 19.45 6.1 19.25 6.05 18.1 6.1 18.15 6.15 17.6 6.95 17.55 6.9 16.6 6.75 16.7 6.85 16.15 7.6 16.1 7.5 15.3 7.3 15.35 7.35 14.95 8.05 14.9 7.95 14.15 7.75 14.2 7.8 13.7 8.4 13.65 8.3 13.05 7.95 13.05 8.05 12.35 8.4 12.35 8.35 11.95 8.05 11.95 8.1 11.5 8.25 11.4 8.15 11.25 8.15 13.35 6.2 13.5 6.15 10.9 5.8 10.9 5.9 10.05 6.65 10.2 6.45 10.4 5.75 10.6 5.35 10.6 5.3 10.7 5.25 11.35 5.7 9.45 3.75 7.45 2.55 9.15 2.5 9.45 3.75 10.8 3.9 M7.45 7.6 L7.45 7.55 6.85 7.0 6.4 7.15 6.0 6.5 5.45 6.5 5.15 5.85 4.6 5.85 4.25 5.15 3.35 3.95 4.3 3.75 3.35 3.9 3.35 3.85 4.1 3.75 4.1 3.7 5.0 3.65 5.05 3.6 7.4 4.25 7.4 4.2 8.45 4.65 8.25 5.35 9.0 5.0 9.1 5.05 9.15 5.05 9.45 5.65 9.7 6.45 9.65 6.45 9.65 6.75 9.5 6.5 9.35 6.25 8.75 5.5 6.4 5.25 6.65 5.4 6.95 5.45 8.7 7.7 8.55 7.75 8.3 7.7 8.2 7.75 8.15 7.65 7.75 7.35 7.75 7.45 7.45 7.6" fill="#ffcc00" fill-rule="evenodd" stroke="none"/>
  </g>
</svg>
