<?xml version="1.0" encoding="UTF-8" standalone="no"?>
<svg xmlns:ffdec="https://www.free-decompiler.com/flash" xmlns:xlink="http://www.w3.org/1999/xlink" ffdec:objectType="shape" height="10.3px" width="15.85px" xmlns="http://www.w3.org/2000/svg">
  <g transform="matrix(1.0, 0.0, 0.0, 1.0, -3.55, -0.9)">
    <path d="M9.7 0.95 L10.2 2.6 11.95 3.0 9.25 3.7 9.7 0.95 M11.15 5.8 L11.15 5.75 11.0 5.1 12.2 4.95 12.2 4.9 15.1 4.85 15.1 4.75 17.65 5.45 17.7 5.4 18.7 6.05 19.25 6.75 19.1 6.7 18.75 6.55 17.65 6.6 17.75 6.7 17.25 7.5 17.15 7.4 16.2 7.2 16.25 7.3 15.7 8.05 15.65 7.9 14.85 7.6 15.0 7.75 14.95 7.8 14.6 8.4 14.55 8.4 14.5 8.25 13.75 8.0 13.85 8.1 13.35 8.7 13.3 8.5 12.75 8.15 12.75 8.25 12.05 8.6 12.05 8.45 11.7 8.15 11.7 8.2 11.25 8.35 11.25 8.3 11.15 8.25 13.25 6.3 10.7 5.85 10.75 5.9 10.0 6.6 10.25 6.15 10.3 5.9 10.55 5.5 10.5 5.4 10.65 5.4 11.15 5.8 9.25 3.7 10.65 3.95 11.15 5.8 M8.85 7.65 L8.75 7.65 8.6 7.65 8.35 7.55 6.7 5.0 7.0 5.2 7.15 5.3 7.35 5.3 7.45 5.55 7.5 5.6 7.55 5.65 8.85 7.65 M5.0 3.35 L6.25 3.8 5.6 3.55 5.6 3.45 6.75 3.9 6.8 3.9 7.6 4.15 7.65 4.1 8.55 4.55 8.5 4.85 7.55 4.35 5.0 3.35 M9.45 6.4 L9.0 5.65 9.15 5.8 9.1 5.65 9.1 5.6 8.9 5.2 8.8 5.05 9.1 4.95 9.2 5.0 9.45 5.5 9.75 6.45 9.7 6.4 9.7 6.75 9.65 6.75 9.45 6.4" fill="#ffcc00" fill-rule="evenodd" stroke="none"/>
    <path d="M10.2 2.6 L10.65 2.5 12.35 2.85 11.05 3.8 10.65 3.95 11.95 3.0 10.2 2.6 M11.05 4.95 L11.1 4.9 11.3 4.9 11.05 4.95 M11.15 5.8 L10.65 5.4 10.5 5.25 10.5 5.35 10.25 5.8 10.0 6.6 10.0 6.45 10.25 5.75 10.5 5.25 9.75 4.65 9.25 4.9 9.4 5.0 9.85 6.35 9.85 6.45 9.55 5.5 9.25 4.9 9.2 4.95 9.15 4.9 9.7 4.65 9.25 3.7 11.15 5.8 M14.55 8.4 L14.6 8.4 14.6 8.45 14.0 8.2 13.5 8.8 13.45 8.8 13.95 8.2 13.85 8.2 13.85 8.1 14.55 8.4 M14.95 7.8 L15.0 7.75 15.7 8.05 15.15 7.85 14.75 8.5 14.7 8.5 15.1 7.85 14.95 7.8 M19.1 6.7 L19.25 6.75 17.95 6.75 17.35 7.6 17.3 7.6 17.85 6.75 17.75 6.7 19.1 6.7 M19.4 6.75 L18.75 5.95 17.75 5.35 17.15 5.2 17.8 5.35 18.8 5.95 19.4 6.7 19.4 6.75 M15.9 4.85 L15.2 4.65 15.15 4.7 13.1 4.75 15.2 4.65 15.25 4.65 15.9 4.85 M12.25 4.8 L11.3 4.9 12.25 4.8 M15.85 8.1 L16.4 7.4 16.35 7.4 16.25 7.3 17.25 7.5 17.3 7.6 16.45 7.4 15.9 8.15 15.85 8.1 M10.0 6.85 L10.9 6.05 10.75 5.95 12.9 6.4 12.85 6.4 11.0 8.2 10.95 8.2 12.8 6.4 10.95 6.05 10.0 6.9 10.0 6.85 M11.1 8.3 L11.3 8.4 11.3 8.5 11.75 8.35 11.7 8.25 12.05 8.6 12.05 8.65 11.8 8.4 11.35 8.55 11.3 8.5 11.1 8.3 M12.1 8.7 L12.8 8.35 13.35 8.7 12.85 8.4 12.15 8.75 12.1 8.7 M11.0 6.15 L11.0 6.1 12.7 6.45 12.65 6.5 11.0 6.15 10.95 6.3 9.8 7.4 9.85 7.25 9.95 7.15 9.7 6.8 9.9 7.0 9.95 7.15 11.0 6.15 M12.65 6.5 L10.7 8.2 12.75 11.05 12.8 11.1 12.8 11.15 10.7 8.25 10.6 8.3 10.5 8.3 12.5 6.55 12.65 6.5 M12.35 11.1 L12.15 11.05 12.05 10.9 12.35 11.1 M11.05 10.7 L11.0 10.7 11.05 10.65 11.05 10.7 M9.85 8.95 L8.75 9.95 8.65 9.95 9.85 8.9 9.85 8.95 M8.6 9.9 L7.4 9.55 9.15 7.9 9.2 7.95 7.5 9.5 8.55 9.85 8.6 9.9 M8.75 7.65 L8.4 7.8 8.35 7.75 8.05 7.45 7.85 7.6 7.75 7.6 8.0 7.4 8.05 7.45 8.2 7.5 8.35 7.75 8.6 7.65 8.75 7.65 M7.25 7.0 L6.8 7.15 6.75 7.1 6.45 6.45 5.95 6.45 5.95 6.35 6.4 6.4 6.4 6.35 6.45 6.45 6.75 7.0 6.75 7.1 7.2 6.95 7.25 7.0 M5.7 5.8 L5.25 5.75 5.7 5.75 5.7 5.8 M4.95 5.1 L4.45 5.0 4.45 4.95 4.5 4.95 4.9 5.0 4.95 5.1 M4.2 4.3 L3.55 4.0 3.7 3.75 3.75 3.75 3.8 3.65 4.35 3.35 5.1 3.25 5.75 3.3 5.85 3.3 7.9 4.05 7.85 4.05 8.6 4.4 8.8 3.7 7.65 2.5 8.05 2.4 9.2 2.4 9.7 0.95 9.25 3.7 9.15 2.5 7.65 2.5 9.25 3.7 8.35 5.25 8.5 4.85 8.55 4.55 8.6 4.45 7.85 4.05 7.1 3.85 5.75 3.3 5.65 3.35 5.0 3.35 4.9 3.35 4.25 3.45 4.25 3.5 3.75 3.75 3.75 3.8 3.6 4.0 4.2 4.25 4.25 4.3 4.2 4.3 M9.45 6.4 L9.65 6.75 9.7 6.75 9.7 6.8 9.65 6.75 9.6 6.7 8.9 5.75 8.9 5.7 8.8 5.7 7.5 5.45 7.5 5.4 8.9 5.7 8.8 5.6 7.45 5.35 7.35 5.3 7.15 5.3 7.0 5.2 8.8 5.55 8.8 5.5 8.95 5.7 8.9 5.75 9.0 5.75 9.45 6.4 M7.5 5.6 L7.55 5.6 7.6 5.65 7.55 5.65 7.5 5.6" fill="#000000" fill-rule="evenodd" stroke="none"/>
    <path d="M10.65 2.5 L10.2 2.6 9.7 0.95 10.05 0.9 10.65 2.5 M11.95 3.0 L10.65 3.95 11.05 3.8 11.3 4.9 11.1 4.9 11.05 4.95 11.3 4.9 12.25 4.8 12.25 4.75 13.1 4.75 15.15 4.7 15.2 4.65 15.9 4.85 16.95 5.15 17.15 5.2 17.75 5.35 18.75 5.95 19.4 6.75 19.25 6.75 18.7 6.05 17.7 5.4 17.65 5.45 15.1 4.75 15.1 4.85 12.2 4.9 12.2 4.95 11.0 5.1 11.15 5.75 11.15 5.8 10.65 3.95 9.25 3.7 11.95 3.0 M10.65 5.4 L10.5 5.4 10.55 5.5 10.3 5.9 10.25 6.15 10.0 6.6 10.75 5.9 10.7 5.85 13.25 6.3 11.15 8.25 11.25 8.3 11.25 8.35 11.7 8.2 11.7 8.15 12.05 8.45 12.05 8.6 12.75 8.25 12.75 8.15 13.3 8.5 13.35 8.7 13.85 8.1 13.75 8.0 14.5 8.25 14.55 8.4 13.85 8.1 13.85 8.2 13.95 8.2 13.45 8.8 13.35 8.7 12.8 8.35 12.1 8.7 12.05 8.65 12.05 8.6 11.7 8.25 11.75 8.35 11.3 8.5 11.3 8.4 11.1 8.3 11.0 8.2 12.85 6.4 12.9 6.4 10.75 5.95 10.9 6.05 10.0 6.85 10.0 6.6 10.25 5.8 10.5 5.35 10.5 5.25 10.65 5.4 M14.6 8.4 L14.95 7.8 15.1 7.85 14.7 8.5 14.6 8.45 14.6 8.4 M15.0 7.75 L14.85 7.6 15.65 7.9 15.7 8.05 16.25 7.3 16.2 7.2 17.15 7.4 17.25 7.5 17.75 6.7 17.65 6.6 18.75 6.55 19.1 6.7 17.75 6.7 17.85 6.75 17.3 7.6 17.25 7.5 16.25 7.3 16.35 7.4 16.4 7.4 15.85 8.1 15.7 8.05 15.0 7.75 M8.95 7.6 L8.85 7.65 7.55 5.65 7.6 5.65 8.95 7.6 M7.75 7.6 L7.25 7.0 7.2 6.95 6.75 7.1 6.75 7.0 6.45 6.45 6.4 6.35 6.4 6.4 5.95 6.35 5.7 5.8 5.7 5.75 5.25 5.75 4.95 5.1 4.9 5.0 4.5 4.95 4.45 4.95 4.2 4.3 4.25 4.3 4.2 4.25 3.6 4.0 3.75 3.8 3.75 3.75 4.25 3.5 4.25 3.45 4.9 3.35 5.0 3.35 5.65 3.35 5.75 3.3 7.1 3.85 7.85 4.05 8.6 4.45 8.55 4.55 7.65 4.1 7.6 4.15 6.8 3.9 6.75 3.9 5.6 3.45 5.6 3.55 6.25 3.8 5.0 3.35 7.55 4.35 8.5 4.85 8.35 5.25 9.25 3.7 7.65 2.5 9.15 2.5 9.25 3.7 9.7 4.65 9.15 4.9 9.2 4.95 9.25 4.9 9.55 5.5 9.85 6.45 9.85 6.7 9.8 6.8 9.7 6.8 9.7 6.75 9.7 6.4 9.75 6.45 9.45 5.5 9.2 5.0 9.1 4.95 8.8 5.05 8.9 5.2 9.1 5.6 9.1 5.65 9.15 5.8 9.0 5.65 9.45 6.4 9.0 5.75 8.9 5.75 8.95 5.7 8.8 5.5 8.8 5.55 7.0 5.2 6.7 5.0 8.35 7.55 8.6 7.65 8.35 7.75 8.2 7.5 8.05 7.45 8.0 7.4 7.75 7.6 M7.5 5.45 L7.45 5.45 7.45 5.55 7.35 5.3 7.45 5.35 7.5 5.4 7.5 5.45" fill="#7f6600" fill-rule="evenodd" stroke="none"/>
    <path d="M11.0 6.15 L12.65 6.5 12.5 6.55 10.5 8.3 10.3 8.3 12.15 6.65 12.4 6.55 10.95 6.3 10.95 6.5 9.75 7.65 9.75 7.45 9.8 7.4 10.95 6.3 11.0 6.15 M12.8 11.15 L12.75 11.2 12.7 11.2 10.6 8.3 10.7 8.25 12.8 11.15 M12.15 11.05 L11.05 10.7 11.05 10.65 10.05 9.3 9.85 8.95 9.85 8.9 8.65 9.95 8.6 9.9 8.55 9.85 7.5 9.5 9.2 7.95 9.15 7.9 8.95 7.6 7.6 5.65 7.8 5.85 8.6 6.05 9.75 7.65 9.75 7.7 12.0 10.85 12.35 11.1 12.05 10.9 12.15 11.05 M9.85 7.25 L8.8 5.7 8.7 5.85 8.1 5.75 8.9 5.95 7.6 5.65 7.55 5.6 7.5 5.6 7.45 5.55 7.45 5.45 7.5 5.45 8.8 5.7 8.9 5.7 8.9 5.75 9.6 6.7 9.65 6.75 9.7 6.8 9.95 7.15 9.85 7.25" fill="#646464" fill-rule="evenodd" stroke="none"/>
    <path d="M12.7 11.2 L12.35 11.1 12.0 10.85 9.75 7.7 9.75 7.65 8.6 6.05 7.8 5.85 7.6 5.65 8.9 5.95 8.1 5.75 8.7 5.85 8.8 5.7 9.85 7.25 9.8 7.4 9.75 7.45 9.75 7.65 10.95 6.5 10.95 6.3 12.4 6.55 12.15 6.65 10.3 8.3 10.5 8.3 10.6 8.3 12.7 11.2" fill="#c8c8c8" fill-rule="evenodd" stroke="none"/>
  </g>
</svg>
