<?xml version="1.0" encoding="UTF-8" standalone="no"?>
<svg xmlns:ffdec="https://www.free-decompiler.com/flash" xmlns:xlink="http://www.w3.org/1999/xlink" ffdec:objectType="shape" height="10.55px" width="13.9px" xmlns="http://www.w3.org/2000/svg">
  <g transform="matrix(1.0, 0.0, 0.0, 1.0, -4.7, -0.95)">
    <path d="M10.6 2.55 L10.1 2.65 9.65 1.0 10.15 0.95 10.6 2.55 M10.1 2.65 L11.55 3.05 10.45 4.0 10.95 3.85 11.2 4.95 11.05 5.0 11.85 4.9 11.9 4.9 14.5 4.95 14.55 4.9 15.8 5.25 15.85 5.25 16.95 5.75 17.0 5.75 18.0 6.45 18.6 7.3 18.55 7.35 18.45 7.35 17.85 6.55 16.9 5.85 16.85 5.85 15.7 5.35 14.45 5.0 14.4 5.15 12.75 5.1 12.8 5.25 14.35 5.35 14.15 7.8 14.9 8.25 14.95 8.4 14.35 8.1 14.15 7.9 13.85 8.55 13.9 8.7 13.25 8.35 13.3 8.45 13.45 8.5 13.0 9.1 12.9 9.0 12.8 8.9 12.3 8.45 12.4 8.6 11.75 8.9 11.7 8.8 11.7 8.75 11.4 8.35 11.45 8.5 11.05 8.6 11.0 8.5 10.9 8.35 10.8 8.35 12.5 6.55 10.55 6.0 10.75 6.1 10.0 6.85 9.95 6.7 10.2 5.7 10.35 5.4 10.35 5.3 10.85 5.85 10.45 4.0 9.05 3.7 8.9 3.45 7.95 2.45 8.05 2.4 9.2 2.5 9.05 3.7 10.1 2.65 M16.55 8.1 L16.45 8.1 16.4 8.05 15.55 7.75 15.6 7.8 15.7 7.85 15.15 8.55 15.0 8.5 15.05 8.45 15.55 7.75 15.5 7.75 15.4 7.55 16.25 7.8 16.4 8.05 16.9 7.2 16.8 7.0 17.75 7.05 18.15 7.3 16.9 7.2 17.0 7.25 17.1 7.25 16.55 8.1 M14.15 8.9 L13.95 8.8 14.3 8.15 14.5 8.2 14.15 8.9 M9.7 5.7 L9.75 5.9 9.85 6.35 9.85 6.7 9.85 6.75 9.75 6.75 9.75 6.4 9.8 6.4 9.35 5.0 9.3 5.0 9.25 4.9 9.3 4.9 9.35 4.85 9.4 4.95 9.45 4.95 9.65 5.45 9.7 5.7 M8.6 7.6 L8.55 7.65 8.5 7.5 8.2 7.15 8.25 7.3 8.05 7.45 8.0 7.35 8.0 7.25 7.55 6.65 7.6 6.8 7.25 6.85 7.0 6.25 6.95 6.15 6.6 6.1 6.4 5.55 6.4 5.5 6.0 5.45 5.8 4.9 5.75 4.75 5.35 4.65 5.4 4.55 5.35 4.55 5.2 4.05 5.15 3.95 4.8 3.75 4.85 3.6 4.85 3.55 5.2 3.35 5.25 3.3 5.7 3.25 5.75 3.2 6.35 3.25 6.45 3.15 8.1 3.95 8.7 4.35 8.5 5.15 8.55 5.2 9.05 3.85 9.05 3.7 9.65 4.65 8.95 5.0 8.9 5.0 9.05 5.1 9.4 6.25 9.0 5.6 9.0 5.55 8.9 5.45 8.9 5.5 7.35 5.05 8.6 7.5 8.8 7.55 8.6 7.6 M13.25 8.35 L13.2 8.35 12.8 8.9 13.25 8.35 M7.8 5.2 L7.9 5.25 7.9 5.3 7.85 5.3 7.8 5.3 7.75 5.25 7.8 5.2" fill="#7f6600" fill-rule="evenodd" stroke="none"/>
    <path d="M10.1 2.65 L10.6 2.55 12.1 2.95 10.95 3.85 10.45 4.0 11.55 3.05 10.1 2.65 M11.2 4.95 L12.0 4.85 14.55 4.9 14.65 4.9 15.7 5.15 17.1 5.75 18.05 6.45 18.6 7.25 18.6 7.3 18.0 6.45 17.0 5.75 16.95 5.75 15.85 5.25 15.8 5.25 14.55 4.9 14.5 4.95 11.9 4.9 11.85 4.9 11.05 5.0 11.2 4.95 M18.45 7.35 L17.15 7.25 16.65 8.1 16.55 8.1 17.1 7.25 17.0 7.25 16.9 7.2 18.15 7.3 18.45 7.35 M16.45 8.1 L15.75 7.85 15.25 8.55 15.15 8.55 15.7 7.85 15.6 7.8 15.55 7.75 16.4 8.05 16.45 8.1 M15.0 8.5 L14.55 8.25 14.25 8.85 14.15 8.9 14.5 8.2 14.3 8.15 14.35 8.1 14.95 8.4 15.05 8.45 15.0 8.5 M13.95 8.8 L13.5 8.55 13.1 9.05 13.0 9.1 13.45 8.5 13.3 8.45 13.25 8.35 13.9 8.7 13.95 8.8 M12.9 9.0 L12.45 8.65 11.85 8.9 11.75 8.9 12.4 8.6 12.3 8.45 12.8 8.9 12.9 9.0 M11.7 8.8 L11.5 8.55 11.1 8.65 11.05 8.6 10.8 8.35 10.75 8.3 12.4 6.6 10.8 6.1 10.05 6.85 10.0 6.85 10.75 6.1 10.55 6.0 12.5 6.55 10.8 8.35 10.9 8.35 11.0 8.5 11.05 8.6 11.45 8.5 11.4 8.35 11.7 8.75 11.7 8.8 M9.95 6.7 L10.1 5.85 10.35 5.3 9.75 4.7 9.4 4.9 9.55 5.0 9.65 5.45 9.75 5.75 9.7 5.7 9.65 5.45 9.45 4.95 9.4 4.95 9.35 4.85 9.3 4.9 9.25 4.9 8.95 5.0 9.65 4.65 9.05 3.7 10.85 5.85 10.35 5.3 10.35 5.4 10.2 5.7 9.95 6.7 M9.75 5.9 L9.85 5.9 9.9 6.35 9.9 6.65 9.85 6.7 9.85 6.35 9.75 5.9 M9.75 6.75 L9.8 6.8 9.8 6.85 9.75 6.75 M10.0 7.1 L10.75 6.3 10.75 6.4 10.7 6.45 9.75 7.45 9.75 7.35 9.9 7.15 10.0 7.1 M10.85 6.2 L12.35 6.6 10.6 8.25 10.55 8.35 10.45 8.35 12.2 6.65 10.85 6.2 M11.95 10.5 L12.45 11.35 12.45 11.4 11.95 10.5 M12.0 11.35 L10.8 10.8 10.8 10.75 11.85 11.25 12.0 11.35 M9.85 9.0 L9.0 9.8 8.9 9.85 8.85 9.85 9.8 8.95 9.7 8.7 9.85 9.0 M8.75 9.8 L7.8 9.35 9.2 7.9 9.0 7.55 8.0 5.65 9.25 7.9 7.9 9.3 8.7 9.7 8.75 9.8 M8.9 7.6 L8.65 7.7 8.6 7.6 8.8 7.55 8.9 7.6 M8.5 7.5 L8.35 7.35 8.2 7.45 8.05 7.45 8.25 7.3 8.2 7.15 8.5 7.5 M8.0 7.35 L7.65 6.85 7.3 6.95 7.25 6.85 7.6 6.8 7.55 6.65 8.0 7.25 8.0 7.35 M7.0 6.25 L6.6 6.2 6.6 6.1 6.95 6.15 7.0 6.25 M6.4 5.55 L6.05 5.55 6.0 5.45 6.4 5.5 6.4 5.55 M5.8 4.9 L5.4 4.75 5.35 4.65 5.35 4.55 5.4 4.55 5.35 4.65 5.75 4.75 5.8 4.9 M5.2 4.05 L4.7 3.75 4.9 3.45 5.35 3.15 5.9 3.1 6.55 3.15 8.25 3.95 8.75 4.3 8.9 3.65 7.95 2.45 8.9 3.45 9.05 3.7 9.2 2.5 8.05 2.4 8.5 2.35 9.2 2.35 9.65 1.0 9.05 3.7 9.05 3.85 8.55 5.2 8.5 5.15 8.7 4.35 8.1 3.95 6.45 3.15 6.35 3.25 5.75 3.2 5.7 3.25 5.25 3.3 5.2 3.35 4.85 3.55 4.85 3.6 4.8 3.75 5.15 3.95 5.2 4.05 M9.4 6.25 L9.55 6.55 9.0 5.65 8.9 5.7 8.9 5.65 7.85 5.35 7.85 5.3 7.9 5.3 7.9 5.25 7.8 5.2 7.55 5.15 7.35 5.05 8.9 5.5 8.9 5.45 9.0 5.55 7.95 5.25 7.95 5.3 9.0 5.6 9.4 6.25" fill="#000000" fill-rule="evenodd" stroke="none"/>
    <path d="M9.65 1.0 L10.1 2.65 9.05 3.7 9.65 1.0 M9.0 7.55 L8.9 7.6 8.8 7.55 8.6 7.5 7.35 5.05 7.55 5.15 7.8 5.2 7.75 5.25 7.8 5.3 7.85 5.3 7.85 5.35 7.8 5.35 7.9 5.55 8.0 5.65 9.0 7.55 M14.95 8.4 L14.9 8.25 14.15 7.8 14.35 5.35 12.8 5.25 12.75 5.1 14.4 5.15 14.45 5.0 15.7 5.35 16.85 5.85 16.9 5.85 17.85 6.55 18.45 7.35 18.15 7.3 17.75 7.05 16.8 7.0 16.9 7.2 16.4 8.05 16.25 7.8 15.4 7.55 15.5 7.75 15.55 7.75 15.05 8.45 14.95 8.4 M10.85 5.85 L9.05 3.7 10.45 4.0 10.85 5.85 M8.95 5.0 L9.25 4.9 9.3 5.0 9.35 5.0 9.8 6.4 9.75 6.4 9.75 6.75 9.75 6.8 9.6 6.7 9.6 6.65 9.55 6.55 9.4 6.25 9.05 5.1 8.9 5.0 8.95 5.0 M14.3 8.15 L13.95 8.8 13.9 8.7 13.85 8.55 14.15 7.9 14.35 8.1 14.3 8.15 M13.25 8.35 L12.8 8.9 13.2 8.35 13.25 8.35" fill="#ffcc00" fill-rule="evenodd" stroke="none"/>
    <path d="M9.8 6.85 L10.0 7.1 9.9 7.15 9.8 7.05 9.6 6.7 9.75 6.8 9.75 6.75 9.8 6.85 M10.75 6.3 L10.85 6.2 12.2 6.65 10.45 8.35 10.25 8.35 10.05 8.3 11.7 11.1 11.85 11.25 10.8 10.75 9.85 9.0 9.7 8.7 9.8 8.95 8.85 9.85 8.75 9.8 8.7 9.7 7.9 9.3 9.25 7.9 8.0 5.65 7.9 5.55 7.8 5.35 7.85 5.35 8.9 5.65 8.9 5.7 8.85 5.75 8.75 5.9 9.7 7.6 9.75 7.45 10.7 6.45 10.75 6.4 10.75 6.3 M10.6 8.25 L11.95 10.5 12.45 11.4 12.4 11.5 10.55 8.35 10.6 8.25 M11.75 6.8 L11.85 6.75 10.75 6.4 11.6 6.7 10.7 6.45 11.65 6.8 11.75 6.8" fill="#646464" fill-rule="evenodd" stroke="none"/>
    <path d="M12.4 11.5 L12.2 11.45 12.0 11.35 11.85 11.25 11.7 11.1 10.05 8.3 10.25 8.35 10.45 8.35 10.55 8.35 12.4 11.5 M11.75 6.8 L11.65 6.8 10.7 6.45 11.6 6.7 10.75 6.4 11.85 6.75 11.75 6.8 M9.55 6.55 L9.6 6.65 9.6 6.7 9.8 7.05 9.9 7.15 9.75 7.35 9.75 7.45 9.7 7.6 8.75 5.9 8.85 5.75 8.9 5.7 9.0 5.65 9.55 6.55" fill="#c8c8c8" fill-rule="evenodd" stroke="none"/>
  </g>
</svg>
