<?xml version="1.0" encoding="UTF-8" standalone="no"?>
<svg xmlns:ffdec="https://www.free-decompiler.com/flash" xmlns:xlink="http://www.w3.org/1999/xlink" ffdec:objectType="shape" height="10.95px" width="8.15px" xmlns="http://www.w3.org/2000/svg">
  <g transform="matrix(1.0, 0.0, 0.0, 1.0, -7.15, -0.95)">
    <path d="M10.0 5.5 L10.2 5.95 10.25 5.9 10.2 5.4 10.2 5.35 10.25 5.15 10.3 5.05 10.8 5.0 10.65 3.95 10.0 4.0 10.55 3.15 9.85 2.65 10.5 2.6 10.2 0.95 10.7 2.7 11.35 3.1 10.9 3.65 10.9 5.0 11.1 5.0 12.45 5.2 12.5 5.25 12.35 5.35 12.3 5.45 10.9 5.2 12.0 5.45 10.9 5.25 10.9 5.3 11.3 5.45 11.3 5.5 12.25 5.7 12.1 8.35 12.15 8.4 12.0 8.9 11.9 9.0 11.95 9.05 11.95 9.2 11.85 9.35 11.8 9.45 11.7 9.5 11.9 9.1 11.6 8.8 11.55 8.6 11.3 9.1 11.35 9.25 11.2 9.05 11.0 9.15 10.9 9.15 10.8 9.1 10.75 9.05 10.65 8.8 10.55 8.8 10.45 8.8 10.35 8.7 10.25 8.45 10.3 8.4 10.15 8.4 11.15 6.9 10.55 6.45 10.55 6.55 10.3 6.35 10.2 6.5 10.15 6.6 10.65 7.0 9.85 8.35 10.7 11.3 10.9 11.65 10.25 10.9 9.8 9.25 9.55 9.6 9.4 9.7 9.25 9.65 9.75 8.95 9.65 8.75 9.15 9.55 8.7 9.05 9.4 7.85 9.35 7.5 9.15 7.55 9.05 7.4 9.0 7.25 8.9 7.25 8.8 7.2 8.6 6.65 8.45 6.65 8.4 6.6 8.25 5.95 8.05 5.85 7.95 5.25 7.8 5.2 7.65 4.55 7.5 4.4 7.35 3.7 7.15 3.45 7.25 3.2 7.5 2.95 7.9 2.9 8.25 3.0 8.85 3.6 8.7 2.35 9.2 2.3 8.85 3.6 9.6 4.85 9.5 4.85 9.4 4.85 9.35 4.9 9.25 4.9 9.25 4.95 9.3 5.05 9.25 5.05 9.4 5.65 9.4 5.95 9.3 5.6 9.2 5.7 9.15 5.8 9.6 7.5 9.65 7.6 9.65 7.45 9.7 7.4 9.9 7.0 10.0 6.9 9.95 6.9 10.3 6.2 10.1 6.05 10.05 5.95 9.85 6.35 9.8 6.6 9.9 6.0 9.95 5.75 10.0 5.5 M15.3 8.3 L14.95 7.35 14.85 7.35 14.2 6.45 14.1 6.4 13.4 5.8 13.3 5.8 13.05 5.6 13.0 5.55 12.5 5.25 12.65 5.2 12.7 5.2 14.35 6.5 15.0 7.4 15.3 8.1 15.3 8.3 M14.5 8.05 L14.75 8.3 14.35 8.2 14.05 8.9 13.95 8.95 14.25 8.15 13.95 8.05 13.75 7.85 14.5 8.05 M12.45 9.4 L12.55 9.0 12.15 8.5 12.15 8.4 12.6 8.9 12.6 9.05 12.55 9.25 12.5 9.3 12.5 9.35 12.45 9.4 M13.0 9.25 L13.3 8.65 12.95 8.4 12.85 8.15 13.4 8.55 13.45 8.8 13.35 8.7 13.2 9.1 13.1 9.2 13.0 9.25 M8.5 4.95 L8.35 4.75 9.05 7.3 9.15 7.35 9.2 7.4 9.3 7.45 8.7 5.35 8.75 5.25 8.75 5.2 8.85 5.15 8.5 4.95 M8.05 3.0 L7.95 3.05 7.95 3.1 8.1 3.3 8.15 3.4 8.75 4.0 8.7 4.1 8.9 4.35 8.85 3.85 8.75 3.7 8.05 3.0 M9.95 5.75 L9.9 5.3 9.95 5.6 9.95 5.75" fill="#000000" fill-rule="evenodd" stroke="none"/>
    <path d="M9.95 6.9 L10.0 6.9 9.9 7.0 9.85 6.8 9.95 6.9 M9.7 7.4 L9.65 7.45 9.65 7.6 9.6 7.5 9.15 5.8 9.2 5.7 9.7 7.3 9.7 7.4 M9.15 9.55 L9.65 8.75 9.75 8.95 9.25 9.65 9.15 9.6 9.15 9.55 M10.9 11.65 L10.7 11.3 9.85 8.35 10.65 7.0 10.15 6.6 10.2 6.5 10.3 6.35 10.55 6.55 10.55 6.45 11.15 6.9 10.15 8.4 10.0 8.4 10.9 11.65 M10.45 8.8 L10.55 8.8 11.4 11.7 11.35 11.8 10.45 8.8" fill="#646464" fill-rule="evenodd" stroke="none"/>
    <path d="M9.9 7.0 L9.7 7.4 9.7 7.3 9.2 5.7 9.3 5.6 9.4 5.95 9.6 6.5 9.65 6.65 9.8 6.75 9.85 6.8 9.9 7.0 M10.15 8.4 L10.3 8.4 10.25 8.45 10.35 8.7 10.45 8.8 11.35 11.8 11.35 11.85 11.25 11.9 11.15 11.85 11.0 11.75 10.9 11.65 10.0 8.4 10.15 8.4" fill="#c8c8c8" fill-rule="evenodd" stroke="none"/>
    <path d="M10.0 4.0 L10.65 3.95 10.8 5.0 10.3 5.05 10.25 5.15 10.2 5.35 10.2 5.4 10.25 5.9 10.2 5.95 10.0 5.5 9.9 5.3 9.75 5.1 9.9 6.0 9.8 6.6 9.8 6.75 9.65 6.65 9.6 6.5 9.35 5.0 9.4 5.0 9.35 4.9 9.4 4.85 9.5 4.85 9.55 4.95 9.65 4.95 9.6 4.85 8.85 3.6 10.0 4.0 M10.2 0.95 L10.5 2.6 9.85 2.65 8.85 3.6 9.2 2.3 9.55 0.95 10.2 0.95 M14.5 8.05 L14.3 7.55 14.35 7.55 13.75 6.65 13.95 6.5 14.6 7.4 14.75 7.35 15.2 8.4 15.05 8.4 14.75 8.3 14.5 8.05 M8.5 4.95 L8.85 5.15 8.75 5.2 8.75 5.25 8.7 5.35 9.3 7.45 9.2 7.4 8.5 4.95" fill="#ffcc00" fill-rule="evenodd" stroke="none"/>
    <path d="M9.95 5.75 L9.9 6.0 9.75 5.1 9.9 5.3 9.95 5.75 M9.8 6.6 L9.85 6.35 10.05 5.95 10.1 6.05 10.3 6.2 9.95 6.9 9.85 6.8 9.8 6.75 9.8 6.6 M9.4 5.95 L9.4 5.65 9.25 5.05 9.3 5.05 9.25 4.95 9.25 4.9 9.35 4.9 9.4 5.0 9.35 5.0 9.6 6.5 9.4 5.95 M9.5 4.85 L9.6 4.85 9.65 4.95 9.55 4.95 9.5 4.85 M11.35 9.25 L11.3 9.1 11.55 8.6 11.6 8.8 11.9 9.1 11.7 9.5 11.5 9.5 11.4 9.4 11.35 9.25 M11.95 9.2 L11.95 9.05 11.9 9.0 12.0 8.9 12.15 8.4 12.1 8.35 12.25 5.7 11.3 5.5 11.3 5.45 10.9 5.3 10.9 5.25 12.0 5.45 10.9 5.2 12.3 5.45 12.35 5.35 12.5 5.25 13.0 5.55 13.05 5.6 13.3 5.8 13.4 5.8 14.1 6.4 14.2 6.45 14.85 7.35 14.95 7.35 15.3 8.3 15.2 8.4 14.75 7.35 14.6 7.4 13.95 6.5 13.75 6.65 14.35 7.55 14.3 7.55 14.5 8.05 13.75 7.85 13.95 8.05 14.25 8.15 13.95 8.95 13.8 9.0 13.65 8.95 13.45 8.8 13.4 8.55 12.85 8.15 12.95 8.4 13.3 8.65 13.0 9.25 12.85 9.25 12.75 9.2 12.6 9.05 12.6 8.9 12.15 8.4 12.15 8.5 12.55 9.0 12.45 9.4 12.3 9.45 12.2 9.45 12.05 9.35 11.95 9.2 M9.85 2.65 L10.55 3.15 10.0 4.0 8.85 3.6 9.85 2.65 M8.05 3.0 L8.75 3.7 8.85 3.85 8.9 4.35 8.7 4.1 8.75 4.0 8.15 3.4 8.1 3.3 7.95 3.1 7.95 3.05 8.05 3.0 M9.2 7.4 L9.15 7.35 9.05 7.3 8.35 4.75 8.5 4.95 9.2 7.4" fill="#7f6600" fill-rule="evenodd" stroke="none"/>
  </g>
</svg>
