<?xml version="1.0" encoding="UTF-8" standalone="no"?>
<svg xmlns:ffdec="https://www.free-decompiler.com/flash" xmlns:xlink="http://www.w3.org/1999/xlink" ffdec:objectType="shape" height="11.05px" width="4.55px" xmlns="http://www.w3.org/2000/svg">
  <g transform="matrix(1.0, 0.0, 0.0, 1.0, -8.4, -0.95)">
    <path d="M9.7 7.2 L9.65 7.45 9.4 5.75 9.45 5.65 9.55 6.3 9.7 6.95 9.7 7.2 M10.2 11.55 L9.75 8.35 9.9 8.4 10.05 7.7 10.15 7.55 10.3 7.0 10.4 6.95 10.0 8.4 9.9 8.4 10.3 11.8 10.2 11.55 M10.3 9.2 L10.4 9.2 10.8 11.7 10.8 11.8 10.7 11.95 10.3 9.2" fill="#646464" fill-rule="evenodd" stroke="none"/>
    <path d="M9.75 6.7 L9.75 6.75 9.85 6.8 9.85 6.85 9.8 6.85 9.7 7.2 9.7 6.95 9.55 6.3 9.7 6.6 9.7 6.65 9.75 6.7 M10.0 8.4 L9.95 8.5 10.05 8.85 10.1 8.85 10.15 9.0 10.2 9.1 10.3 9.2 10.7 11.95 10.65 12.0 10.55 12.0 10.4 11.9 10.3 11.8 9.9 8.4 10.0 8.4" fill="#c8c8c8" fill-rule="evenodd" stroke="none"/>
    <path d="M10.25 0.95 L10.95 3.5 10.7 5.1 11.55 5.4 12.45 6.8 12.75 7.65 12.65 7.65 12.3 6.65 12.2 6.65 11.75 5.95 11.7 5.9 11.55 6.0 11.15 5.4 11.5 6.0 11.1 5.4 11.05 5.45 11.4 6.05 11.3 6.15 11.7 6.9 11.65 6.9 11.95 7.85 11.95 7.9 12.0 8.2 12.2 8.5 11.8 8.2 11.7 8.05 11.55 8.95 11.3 8.55 11.15 9.2 10.9 8.7 10.8 9.35 10.65 8.95 10.5 9.45 10.45 9.25 10.8 11.45 10.8 11.7 10.4 9.2 10.3 9.2 10.2 9.1 10.15 9.0 10.1 8.85 10.05 8.85 9.95 8.5 10.0 8.4 10.4 6.95 10.3 7.0 10.15 7.55 10.05 7.7 9.9 8.4 9.75 8.35 10.2 11.55 9.95 10.85 9.8 9.6 9.65 9.65 9.6 9.65 9.45 9.6 9.4 9.5 9.2 9.0 9.55 7.85 9.5 7.45 9.4 7.45 9.35 7.3 9.3 7.25 9.3 7.2 9.25 7.15 9.2 7.05 9.1 6.6 9.05 6.55 9.0 6.4 8.95 5.8 8.85 5.75 8.8 5.15 8.7 5.05 8.65 4.4 8.6 4.3 8.55 3.65 8.4 3.3 8.55 2.95 8.6 2.95 8.6 2.9 8.85 2.85 9.0 2.85 8.8 3.55 9.5 5.05 9.55 6.3 9.45 5.65 9.4 5.75 9.65 7.45 9.7 7.2 9.8 6.85 9.85 6.85 9.95 6.5 10.0 6.4 10.05 6.35 9.95 6.1 9.75 6.75 9.75 6.7 9.7 6.55 9.8 5.7 9.9 5.95 9.95 5.95 9.9 5.5 9.95 5.3 9.95 5.2 10.05 5.05 10.25 5.05 10.35 5.0 10.55 5.0 10.55 4.4 10.5 4.0 9.75 4.0 8.8 3.55 9.7 2.65 9.7 2.6 10.4 2.6 10.25 0.95 M9.1 4.9 L9.05 4.75 9.35 7.3 9.45 7.4 9.2 5.35 9.2 5.25 9.3 5.1 9.1 4.9 M12.8 7.85 L12.95 8.3 12.95 8.55 12.8 7.85 M12.4 8.65 L12.3 8.9 12.3 9.0 12.2 9.15 12.3 8.6 12.4 8.65 M11.8 9.2 L11.75 9.3 11.65 9.4 11.7 9.15 11.8 9.2 M11.4 9.45 L11.35 9.5 11.35 9.45 11.4 9.45 M11.0 9.55 L10.9 9.6 10.95 9.55 11.0 9.55" fill="#000000" fill-rule="evenodd" stroke="none"/>
    <path d="M9.7 2.6 L9.7 2.65 8.8 3.55 9.75 4.0 9.9 5.95 9.8 5.7 9.55 5.2 9.65 6.4 9.7 6.6 9.55 6.3 9.5 5.05 8.8 3.55 9.0 2.85 9.1 2.55 9.15 2.3 9.55 0.95 9.7 2.6 M9.75 6.75 L9.95 6.1 10.05 6.35 10.0 6.4 9.95 6.5 9.85 6.85 9.85 6.8 9.75 6.75 M9.35 7.3 L9.05 4.75 9.1 4.9 9.15 5.15 9.2 5.25 9.2 5.35 9.45 7.4 9.35 7.3 M10.5 9.45 L10.65 8.95 10.8 9.35 10.9 8.7 11.15 9.2 11.3 8.55 11.55 8.95 11.7 8.05 11.8 8.2 12.2 8.5 12.0 8.2 11.95 7.9 11.95 7.85 11.65 6.9 11.7 6.9 11.3 6.15 11.4 6.05 11.05 5.45 11.1 5.4 11.5 6.0 11.15 5.4 11.55 6.0 11.7 5.9 11.75 5.95 12.2 6.65 12.3 6.65 12.65 7.65 12.75 7.65 12.8 7.85 12.75 7.65 12.8 7.85 12.95 8.55 12.8 8.7 12.6 7.6 12.05 7.75 12.25 8.55 12.3 8.6 12.2 9.15 12.05 9.2 12.0 9.25 11.9 9.25 11.8 9.2 11.7 9.15 11.65 9.4 11.55 9.45 11.4 9.45 11.35 9.45 11.35 9.5 11.3 9.55 11.15 9.6 11.0 9.55 10.95 9.55 10.9 9.6 10.75 9.65 10.6 9.55 10.5 9.45" fill="#7f6600" fill-rule="evenodd" stroke="none"/>
    <path d="M10.25 0.95 L10.4 2.6 9.7 2.6 9.55 0.95 10.25 0.95 M9.75 4.0 L10.5 4.0 10.55 4.4 10.55 5.0 10.35 5.0 10.25 5.05 10.05 5.05 9.95 5.2 9.95 5.3 9.9 5.5 9.95 5.95 9.9 5.95 9.75 4.0 M9.8 5.7 L9.7 6.55 9.75 6.7 9.7 6.65 9.7 6.6 9.65 6.4 9.55 5.2 9.8 5.7 M9.1 4.9 L9.3 5.1 9.2 5.25 9.15 5.15 9.1 4.9 M12.8 8.7 L12.6 8.7 12.4 8.65 12.3 8.6 12.25 8.55 12.05 7.75 12.6 7.6 12.8 8.7" fill="#ffcc00" fill-rule="evenodd" stroke="none"/>
  </g>
</svg>
