<?xml version="1.0" encoding="UTF-8" standalone="no"?>
<svg xmlns:ffdec="https://www.free-decompiler.com/flash" xmlns:xlink="http://www.w3.org/1999/xlink" ffdec:objectType="shape" height="11.1px" width="2.2px" xmlns="http://www.w3.org/2000/svg">
  <g transform="matrix(1.0, 0.0, 0.0, 1.0, -8.8, -0.95)">
    <path d="M10.25 2.6 L10.25 0.95 11.0 3.5 10.25 2.6 M9.55 0.95 L9.55 2.6 8.8 3.5 9.55 4.0 9.5 3.15 10.3 3.15 9.55 4.0 9.55 5.95 8.8 3.5 9.55 0.95 M10.25 4.0 L11.0 3.5 10.3 5.8 10.25 5.65 10.25 5.3 10.25 4.0 M9.65 8.65 L9.6 8.6 9.6 6.85 9.65 6.8 9.75 6.75 9.75 6.05 9.85 6.0 10.05 6.0 10.1 6.55 10.15 6.35 10.15 6.8 10.2 6.85 10.25 6.85 10.3 8.6 10.25 8.7 10.2 9.2 10.2 9.4 10.15 9.4 10.15 9.55 10.05 9.6 10.0 9.65 9.85 9.65 9.75 9.6 9.65 9.5 9.65 8.7 9.7 8.75 9.75 8.75 9.85 8.8 10.0 8.85 10.05 8.85 10.2 8.7 10.2 8.2 10.15 8.1 10.15 7.75 9.75 7.75 9.65 7.8 9.65 8.65" fill="#7f6600" fill-rule="evenodd" stroke="none"/>
    <path d="M10.25 0.95 L10.25 2.6 9.55 2.6 9.55 0.95 10.25 0.95 M10.25 4.0 L10.25 5.3 10.2 5.2 10.05 5.05 9.8 5.05 9.75 5.1 9.65 5.15 9.6 5.25 9.6 5.4 9.55 5.95 9.55 4.0 10.25 4.0 M9.65 8.65 L9.65 7.8 9.75 7.75 10.15 7.75 10.15 8.1 10.2 8.2 10.2 8.7 10.05 8.85 10.0 8.85 9.85 8.8 9.75 8.75 9.7 8.75 9.65 8.7 9.65 8.65" fill="#ffcc00" fill-rule="evenodd" stroke="none"/>
    <path d="M10.25 2.6 L11.0 3.5 10.25 4.0 9.55 4.0 10.3 3.15 9.5 3.15 9.55 4.0 8.8 3.5 9.55 2.6 10.25 2.6 M10.25 5.3 L10.25 5.65 10.3 5.8 10.4 8.3 10.35 8.45 10.35 8.95 10.3 9.05 10.3 9.2 10.25 9.25 10.25 9.4 10.2 9.45 10.2 9.55 10.15 9.85 10.15 9.55 10.15 9.4 10.2 9.4 10.2 9.2 10.25 8.7 10.3 8.6 10.25 6.85 10.2 6.85 10.15 6.8 10.15 6.35 10.1 6.55 10.05 6.0 9.85 6.0 9.75 6.05 9.75 6.75 9.65 6.8 9.6 6.85 9.6 8.6 9.65 8.65 9.65 8.7 9.65 9.5 9.65 9.55 9.65 11.7 9.6 11.55 9.65 9.55 9.6 9.4 9.6 9.3 9.55 9.1 9.55 9.0 9.5 8.3 9.55 5.95 9.6 5.4 9.6 5.25 9.65 5.15 9.75 5.1 9.8 5.05 10.05 5.05 10.2 5.2 10.25 5.3" fill="#000000" fill-rule="evenodd" stroke="none"/>
    <path d="M9.65 9.5 L9.75 9.6 9.75 11.9 9.7 11.75 9.65 11.7 9.65 9.55 9.65 9.5 M10.05 9.6 L10.15 9.55 10.15 9.85 10.2 11.65 10.15 11.85 10.1 11.9 10.05 9.6" fill="#646464" fill-rule="evenodd" stroke="none"/>
    <path d="M9.75 9.6 L9.85 9.65 10.0 9.65 10.05 9.6 10.1 11.9 10.0 12.0 9.9 12.05 9.8 12.0 9.75 11.9 9.75 9.6" fill="#c8c8c8" fill-rule="evenodd" stroke="none"/>
  </g>
</svg>
