<?xml version="1.0" encoding="UTF-8" standalone="no"?>
<svg xmlns:ffdec="https://www.free-decompiler.com/flash" xmlns:xlink="http://www.w3.org/1999/xlink" ffdec:objectType="shape" height="11.05px" width="4.45px" xmlns="http://www.w3.org/2000/svg">
  <g transform="matrix(1.0, 0.0, 0.0, 1.0, -6.9, -0.95)">
    <path d="M9.65 11.55 L9.6 11.7 9.55 11.8 10.0 8.5 9.95 8.4 10.0 8.35 10.05 8.35 9.65 11.55 M9.1 11.95 L9.05 11.85 9.05 11.7 9.4 9.25 9.5 9.2 9.3 10.9 9.25 10.9 9.1 11.95 M10.25 6.15 L10.35 5.65 10.4 5.75 10.15 7.45 10.1 7.3 10.25 6.15 M9.85 8.4 L9.45 6.95 9.5 7.0 9.9 8.4 9.85 8.4" fill="#646464" fill-rule="evenodd" stroke="none"/>
    <path d="M9.55 11.8 L9.35 12.0 9.2 12.0 9.1 11.95 9.25 10.9 9.3 10.9 9.5 9.2 9.6 9.15 9.65 9.05 9.7 8.85 9.8 8.75 9.85 8.65 9.9 8.5 9.85 8.4 9.9 8.4 9.95 8.4 10.0 8.5 9.55 11.8 M10.1 7.3 L10.0 6.85 10.05 6.75 10.05 6.7 10.1 6.6 10.2 6.45 10.25 6.15 10.1 7.3" fill="#c8c8c8" fill-rule="evenodd" stroke="none"/>
    <path d="M10.75 2.75 L10.65 2.3 10.75 2.65 10.75 2.75 M10.1 2.6 L11.0 3.55 10.8 2.9 10.8 2.85 11.15 2.9 11.35 3.3 11.25 3.6 11.2 4.25 11.1 4.4 11.05 5.05 10.95 5.1 10.95 5.7 10.85 5.8 10.75 6.5 10.7 6.6 10.65 6.6 10.65 6.8 10.6 7.05 10.5 7.2 10.45 7.25 10.45 7.35 10.4 7.4 10.4 7.45 10.3 7.45 10.25 7.85 10.6 9.0 10.4 9.55 10.3 9.6 10.15 9.65 10.05 9.6 9.95 10.85 9.65 11.55 10.05 8.35 10.0 8.35 9.95 8.4 9.9 8.4 9.5 7.0 9.45 6.95 9.85 8.4 9.9 8.5 9.85 8.65 9.8 8.75 9.7 8.85 9.65 9.05 9.6 9.15 9.5 9.2 9.4 9.25 9.05 11.7 9.0 11.6 9.35 9.4 9.3 9.45 9.2 8.95 9.05 9.35 8.95 8.7 8.7 9.2 8.55 8.55 8.35 8.95 8.15 8.05 8.1 8.2 7.7 8.5 7.85 8.25 7.9 7.85 8.2 6.9 8.15 6.9 8.5 6.2 8.45 6.05 8.85 5.4 8.4 6.05 9.0 5.15 8.25 6.15 8.9 5.2 8.3 6.0 8.1 5.95 8.05 5.95 7.7 6.65 7.55 6.7 7.15 7.65 7.1 7.7 6.95 8.55 6.9 8.25 7.1 7.7 7.4 6.85 7.85 6.0 8.2 5.5 8.3 5.4 8.9 5.2 9.0 5.15 9.05 5.1 8.8 3.45 9.55 0.95 9.4 2.6 10.1 2.6 M8.95 9.6 L8.85 9.55 8.9 9.55 8.95 9.6 M8.45 9.5 L8.45 9.45 8.5 9.45 8.45 9.5 M8.2 9.4 L8.2 9.45 8.1 9.35 8.0 9.2 8.15 9.15 8.2 9.4 M7.7 9.15 L7.6 9.1 7.55 9.0 7.5 8.65 7.55 8.6 7.7 9.15 M10.25 6.15 L10.3 5.05 11.0 3.55 10.0 4.0 9.35 4.0 9.25 5.0 9.75 5.05 9.85 5.1 9.95 5.3 9.95 5.4 9.9 5.95 9.95 5.95 10.0 5.7 10.1 6.55 10.05 6.7 10.05 6.75 9.9 6.15 9.75 6.35 9.9 6.45 10.0 6.85 10.1 7.3 10.15 7.45 10.4 5.75 10.35 5.65 10.25 6.15 M10.6 5.35 L10.6 5.45 10.35 7.4 10.4 7.3 10.7 4.8 10.65 4.95 10.5 5.1 10.55 5.15 10.6 5.3 10.6 5.35" fill="#000000" fill-rule="evenodd" stroke="none"/>
    <path d="M10.65 2.3 L10.75 2.75 10.8 2.9 11.0 3.55 10.1 2.6 10.25 0.95 10.65 2.3 M9.3 9.45 L9.3 9.5 9.1 9.65 8.95 9.6 8.9 9.55 8.85 9.55 8.7 9.6 8.55 9.6 8.45 9.5 8.5 9.45 8.45 9.45 8.25 9.45 8.2 9.4 8.15 9.15 8.0 9.2 7.85 9.25 7.7 9.15 7.55 8.6 7.65 8.55 7.8 7.75 7.6 7.65 7.3 7.65 7.05 8.7 6.95 8.55 7.1 7.7 7.15 7.65 7.55 6.7 7.7 6.65 8.05 5.95 8.1 5.95 8.3 6.0 8.9 5.2 8.25 6.15 9.0 5.15 8.4 6.05 8.85 5.4 8.45 6.05 8.5 6.2 8.15 6.9 8.2 6.9 7.9 7.85 7.85 8.25 7.7 8.5 8.1 8.2 8.15 8.05 8.35 8.95 8.55 8.55 8.7 9.2 8.95 8.7 9.05 9.35 9.2 8.95 9.3 9.45 M10.0 4.0 L11.0 3.55 10.3 5.05 10.25 6.15 10.2 6.45 10.1 6.6 10.1 6.55 10.1 6.35 10.15 6.35 10.25 5.2 10.0 5.7 9.95 5.95 10.0 4.0 M10.0 6.85 L9.9 6.45 9.75 6.35 9.9 6.15 10.05 6.75 10.0 6.85 M10.65 4.95 L10.7 4.8 10.4 7.3 10.35 7.4 10.6 5.45 10.6 5.35 10.65 4.95" fill="#7f6600" fill-rule="evenodd" stroke="none"/>
    <path d="M10.25 0.95 L10.1 2.6 9.4 2.6 9.55 0.95 10.25 0.95 M7.5 8.65 L7.3 8.75 7.15 8.75 7.05 8.7 7.3 7.65 7.6 7.65 7.8 7.75 7.65 8.55 7.55 8.6 7.5 8.65 M10.05 6.7 L10.1 6.55 10.0 5.7 10.25 5.2 10.15 6.35 10.1 6.35 10.1 6.55 10.1 6.6 10.05 6.7 M9.95 5.95 L9.9 5.95 9.95 5.4 9.95 5.3 9.85 5.1 9.75 5.05 9.25 5.0 9.35 4.0 10.0 4.0 9.95 5.95 M10.65 4.95 L10.6 5.35 10.6 5.3 10.55 5.15 10.5 5.1 10.65 4.95" fill="#ffcc00" fill-rule="evenodd" stroke="none"/>
  </g>
</svg>
