<?xml version="1.0" encoding="UTF-8" standalone="no"?>
<svg xmlns:ffdec="https://www.free-decompiler.com/flash" xmlns:xlink="http://www.w3.org/1999/xlink" ffdec:objectType="shape" height="10.95px" width="8.05px" xmlns="http://www.w3.org/2000/svg">
  <g transform="matrix(1.0, 0.0, 0.0, 1.0, -4.55, -0.95)">
    <path d="M10.4 5.95 L10.5 5.6 10.6 5.7 10.1 7.4 9.95 7.0 10.0 6.8 10.0 6.75 10.1 6.7 10.1 6.65 10.2 6.5 10.4 5.95 M9.35 8.75 L9.4 8.75 9.45 8.7 9.55 8.45 9.55 8.4 9.65 8.4 9.9 8.35 8.95 11.65 8.85 11.75 8.7 11.85 8.55 11.9 8.45 11.85 9.35 8.75" fill="#c8c8c8" fill-rule="evenodd" stroke="none"/>
    <path d="M10.6 5.7 L10.65 5.8 10.15 7.45 10.1 7.4 10.6 5.7 M9.95 7.0 L9.85 6.85 9.9 6.9 10.0 6.8 9.95 7.0 M9.25 8.85 L9.35 8.75 8.45 11.85 8.4 11.7 8.45 11.55 8.55 11.2 9.25 8.85 M9.65 8.4 L9.45 8.1 9.45 8.15 8.65 6.9 8.7 6.95 9.5 6.35 9.65 6.5 9.65 6.65 9.15 7.0 9.95 8.35 10.0 8.3 9.15 11.35 9.1 11.45 8.95 11.65 9.9 8.35 9.65 8.4 M10.55 9.65 L10.05 8.95 10.15 8.75 10.65 9.6 10.55 9.65" fill="#646464" fill-rule="evenodd" stroke="none"/>
    <path d="M10.95 3.6 L11.45 3.0 11.9 2.9 12.25 2.95 12.5 3.2 12.6 3.45 12.4 3.7 12.3 4.4 12.1 4.55 12.0 5.2 11.8 5.25 11.75 5.85 11.5 5.95 11.4 6.55 11.3 6.65 11.2 6.65 11.0 7.1 11.0 7.2 10.95 7.25 10.8 7.25 10.75 7.4 10.7 7.45 10.6 7.5 10.45 7.55 10.4 7.85 11.1 9.05 10.65 9.6 10.15 8.75 10.05 8.95 10.55 9.65 10.5 9.7 10.4 9.7 10.3 9.65 10.25 9.6 10.0 9.25 9.6 10.9 9.1 11.45 9.15 11.35 10.0 8.3 9.95 8.35 9.15 7.0 9.65 6.65 9.65 6.5 9.5 6.35 8.7 6.95 8.65 6.9 9.45 8.15 9.45 8.1 9.65 8.4 9.55 8.4 9.55 8.45 9.45 8.7 9.4 8.75 9.35 8.75 9.25 8.85 9.2 8.8 9.15 8.8 9.1 9.05 9.05 9.1 8.9 9.2 8.75 9.15 8.6 9.05 8.5 9.25 8.5 9.15 8.3 8.65 7.95 9.15 8.15 9.55 7.95 9.35 7.85 9.2 7.9 9.05 7.7 8.35 7.3 8.8 7.7 8.3 7.6 5.7 7.95 5.65 7.9 5.6 8.5 5.5 8.5 5.35 7.55 5.45 7.45 5.3 7.3 5.25 6.5 5.8 6.45 5.8 5.75 6.45 5.6 6.45 7.05 5.25 8.7 5.0 8.9 5.0 8.9 3.65 8.45 3.1 9.1 2.7 9.55 0.95 9.3 2.6 10.0 2.65 9.2 3.15 9.85 4.0 9.1 3.95 9.0 5.0 9.35 5.0 9.5 5.1 9.55 5.15 9.6 5.25 9.6 5.4 9.55 5.9 9.6 5.95 9.85 5.5 9.9 5.7 9.95 6.0 10.0 6.3 9.75 5.95 9.7 6.05 9.5 6.2 9.9 6.9 9.85 6.85 9.95 7.0 10.1 7.4 10.15 7.45 10.65 5.8 10.6 5.7 10.5 5.6 10.4 5.95 10.5 5.05 10.5 5.0 10.55 4.9 10.5 4.9 10.4 4.85 10.3 4.85 10.2 4.85 10.95 3.6 10.6 2.3 11.05 2.35 11.05 2.75 10.95 3.6 M11.75 3.0 L11.15 3.65 10.9 3.85 10.85 4.35 11.05 4.1 11.05 4.0 11.25 3.85 11.85 3.1 11.85 3.05 11.75 3.0 M10.65 7.4 L10.75 7.35 11.4 4.75 11.25 4.95 10.9 5.15 11.0 5.15 11.05 5.2 11.05 5.4 10.5 7.45 10.65 7.4 M9.9 5.7 L9.9 5.55 9.95 5.3 9.9 5.7 M5.4 8.0 L6.1 7.8 6.1 7.85 5.95 8.05 5.6 8.2 5.9 9.0 5.8 8.9 5.5 8.2 5.1 8.35 5.35 8.15 5.35 8.1 6.1 7.85 5.4 8.0 M6.35 8.8 L6.5 8.55 7.0 8.2 6.9 8.4 6.55 8.7 6.8 9.25 6.75 9.25 6.7 9.2 6.45 8.75 6.35 8.8 M7.2 9.1 L7.3 8.85 7.7 8.35 7.65 8.6 7.25 9.0 7.4 9.4 7.35 9.4 7.3 9.35 7.25 9.25 7.2 9.1 M5.6 6.45 L5.0 7.35 4.9 7.4 4.55 8.35 4.55 8.15 4.85 7.45 5.5 6.55 5.6 6.45 M8.55 11.2 L8.45 11.55 8.55 11.1 8.55 11.2" fill="#000000" fill-rule="evenodd" stroke="none"/>
    <path d="M10.95 3.6 L10.2 4.85 10.15 4.95 10.25 4.95 10.3 4.85 10.4 4.85 10.35 4.95 10.45 5.0 10.2 6.5 10.1 6.65 10.1 6.7 10.0 6.75 10.0 6.3 9.95 6.0 10.0 5.1 9.95 5.3 9.85 5.5 9.6 5.95 9.55 5.9 9.6 5.4 9.6 5.25 9.55 5.15 9.5 5.1 9.35 5.0 9.0 5.0 9.1 3.95 9.85 4.0 10.95 3.6 10.0 2.65 9.3 2.6 9.55 0.95 10.2 0.95 10.6 2.3 10.95 3.6 M11.25 4.95 L10.65 7.4 10.5 7.45 11.05 5.4 11.05 5.2 11.0 5.15 10.9 5.15 11.25 4.95 M4.65 8.45 L5.1 7.4 5.25 7.45 5.9 6.5 6.0 6.6 6.1 6.65 5.5 7.55 5.55 7.6 5.4 8.0 5.35 8.1 5.35 8.15 5.1 8.35 4.8 8.4 4.65 8.45" fill="#ffcc00" fill-rule="evenodd" stroke="none"/>
    <path d="M10.2 4.85 L10.3 4.85 10.25 4.95 10.15 4.95 10.2 4.85 M10.4 4.85 L10.5 4.9 10.55 4.9 10.5 5.0 10.5 5.05 10.4 5.95 10.2 6.5 10.45 5.0 10.35 4.95 10.4 4.85 M9.9 6.9 L9.5 6.2 9.7 6.05 9.75 5.95 10.0 6.3 10.0 6.75 10.0 6.8 9.9 6.9 M9.95 6.0 L9.9 5.7 9.95 5.3 10.0 5.1 9.95 6.0 M9.85 4.0 L9.2 3.15 10.0 2.65 10.95 3.6 9.85 4.0 M5.6 6.45 L5.75 6.45 6.45 5.8 6.5 5.8 7.3 5.25 7.45 5.3 7.55 5.45 8.5 5.35 8.5 5.5 7.9 5.6 7.95 5.65 7.6 5.7 7.7 8.3 7.3 8.8 7.7 8.35 7.9 9.05 7.85 9.2 7.75 9.35 7.7 9.4 7.6 9.45 7.5 9.45 7.4 9.4 7.25 9.0 7.65 8.6 7.7 8.35 7.3 8.85 7.2 9.1 7.1 9.2 7.0 9.25 6.85 9.3 6.8 9.25 6.55 8.7 6.9 8.4 7.0 8.2 6.5 8.55 6.35 8.8 6.2 8.95 6.05 9.0 5.9 9.0 5.6 8.2 5.95 8.05 6.1 7.85 6.1 7.8 5.4 8.0 6.1 7.85 5.35 8.1 5.4 8.0 5.55 7.6 5.5 7.55 6.1 6.65 6.0 6.6 5.9 6.5 5.25 7.45 5.1 7.4 4.65 8.45 4.55 8.35 4.9 7.4 5.0 7.35 5.6 6.45 M8.15 9.55 L7.95 9.15 8.3 8.65 8.5 9.15 8.5 9.25 8.4 9.4 8.3 9.5 8.2 9.55 8.15 9.55 M11.75 3.0 L11.85 3.05 11.85 3.1 11.25 3.85 11.05 4.0 11.05 4.1 10.85 4.35 10.9 3.85 11.15 3.65 11.75 3.0 M11.25 4.95 L11.4 4.75 10.75 7.35 10.65 7.4 11.25 4.95" fill="#7f6600" fill-rule="evenodd" stroke="none"/>
  </g>
</svg>
