<?xml version="1.0" encoding="UTF-8" standalone="no"?>
<svg xmlns:ffdec="https://www.free-decompiler.com/flash" xmlns:xlink="http://www.w3.org/1999/xlink" ffdec:objectType="shape" height="10.75px" width="11.25px" xmlns="http://www.w3.org/2000/svg">
  <g transform="matrix(1.0, 0.0, 0.0, 1.0, -2.6, -0.95)">
    <path d="M10.55 2.45 L10.5 2.35 10.95 2.3 11.5 2.4 10.55 2.45 M9.25 2.45 L9.25 2.55 9.85 2.65 8.7 3.1 9.6 4.0 8.95 3.9 8.8 4.95 8.9 3.9 8.05 3.05 9.2 2.55 9.25 2.45 M10.9 4.1 L10.95 4.0 11.2 3.9 10.9 4.15 10.9 4.1 M11.25 3.85 L12.35 3.05 12.9 3.0 13.4 3.05 13.7 3.3 13.85 3.55 13.5 3.85 13.35 4.55 13.05 4.7 12.9 5.35 12.6 5.4 12.45 6.0 12.15 6.1 12.2 5.9 12.45 5.85 12.6 5.15 12.7 3.3 13.15 3.25 13.1 3.15 12.7 3.2 12.55 3.05 11.35 3.9 11.25 3.85 M12.0 6.6 L12.05 6.6 12.0 6.7 11.95 6.75 11.7 6.75 11.45 7.2 11.45 7.1 11.75 6.5 11.75 6.55 12.0 6.6 M11.35 7.3 L11.3 7.35 11.2 7.35 11.15 7.3 11.0 7.5 10.9 7.6 10.85 7.6 10.65 7.5 10.5 7.85 11.55 9.15 10.9 9.65 10.95 9.5 11.4 9.2 10.45 7.95 11.4 5.6 11.45 5.5 10.65 7.5 10.9 7.45 11.0 7.5 11.05 7.35 11.3 6.95 11.3 7.05 11.2 7.2 11.35 7.3 M10.75 9.75 L10.6 9.75 10.0 9.05 9.9 9.3 10.0 9.0 10.75 9.75 M9.3 10.75 L9.25 10.85 8.45 11.45 8.5 11.35 9.3 10.75 M7.85 11.6 L7.85 11.55 7.9 11.4 9.1 8.7 9.05 8.65 9.0 8.75 8.95 8.75 8.7 8.7 8.55 8.9 8.75 8.55 9.05 8.65 9.15 8.45 9.2 8.45 7.8 6.7 9.5 5.95 9.45 6.1 9.3 6.15 9.9 6.85 9.85 6.9 9.8 6.85 9.7 6.8 9.2 6.2 9.05 6.25 9.25 6.3 8.1 6.8 9.5 8.35 9.4 8.35 9.35 8.3 9.25 8.3 9.3 8.35 9.3 8.4 7.85 11.6 M8.5 9.0 L8.4 9.1 7.95 8.85 7.65 9.2 7.7 9.05 8.1 8.55 8.1 8.7 8.0 8.75 8.5 9.0 M7.45 9.35 L7.35 9.35 7.25 9.25 7.0 8.9 6.75 9.1 6.8 8.95 7.35 8.55 7.25 8.7 7.1 8.8 7.45 9.35 M6.45 9.2 L6.4 9.2 6.3 9.1 6.15 8.65 5.8 8.9 5.9 8.75 6.5 8.3 6.45 8.45 6.2 8.65 6.45 9.2 M5.6 8.95 L5.55 8.95 5.5 8.9 5.1 8.35 4.65 8.55 4.8 8.4 5.45 8.1 5.4 8.2 5.2 8.3 5.6 8.95 M4.4 8.6 L4.35 8.6 4.25 8.5 3.85 7.75 2.95 7.9 3.15 7.8 3.2 7.8 3.85 7.7 3.8 7.7 4.25 7.6 4.2 7.65 4.15 7.65 4.15 7.7 4.1 7.75 3.95 7.75 4.4 8.6 M2.6 7.9 L2.6 7.8 3.05 7.0 3.95 6.15 4.0 6.15 4.15 6.0 5.05 5.55 6.0 5.1 7.9 5.0 8.2 4.95 8.75 5.0 9.2 5.0 9.3 5.1 8.45 5.05 8.4 5.0 7.6 5.05 7.6 5.1 6.25 5.15 6.15 5.1 5.1 5.6 5.05 5.55 4.1 6.15 4.0 6.15 3.15 7.0 2.6 7.9 M10.5 4.15 L10.2 4.65 10.65 4.9 10.45 4.85 10.3 4.8 10.2 4.9 10.25 4.95 10.2 4.95 10.2 4.9 10.05 4.8 10.5 4.15 M10.3 6.35 L10.75 5.3 10.75 5.35 12.0 4.85 11.9 4.95 11.75 5.0 11.6 5.1 11.45 5.15 11.3 5.2 11.45 5.2 11.5 5.25 10.65 5.65 10.65 5.6 10.3 6.35 M10.2 4.95 L10.05 5.4 10.15 4.95 10.2 4.95 M10.0 5.55 L10.0 5.7 9.95 5.75 10.0 5.55 M9.95 5.95 L9.95 6.2 9.9 6.0 9.95 5.95 M9.9 6.3 L10.0 6.65 9.9 6.4 9.8 5.9 9.6 5.5 9.65 5.45 9.6 5.45 9.65 5.35 9.8 5.8 9.9 6.3 M10.1 7.45 L10.15 7.6 10.1 7.5 9.35 6.55 9.35 6.4 9.85 7.0 9.9 6.85 9.95 6.8 9.95 6.75 10.0 6.75 9.85 7.05 9.95 7.15 10.1 7.45 M9.25 8.3 L9.25 8.2 8.3 7.2 9.25 8.35 9.25 8.3" fill="#000000" fill-rule="evenodd" stroke="none"/>
    <path d="M9.85 2.65 L10.85 3.65 10.55 2.45 11.5 2.4 10.85 3.65 9.6 4.0 8.7 3.1 9.85 2.65 M10.9 4.1 L10.9 4.15 11.2 3.9 11.25 3.85 11.35 3.9 12.55 3.05 12.7 3.2 13.1 3.15 13.15 3.25 12.7 3.3 12.6 5.15 12.45 5.85 12.2 5.9 12.15 6.1 12.0 6.6 11.75 6.55 11.75 6.5 11.45 7.1 11.45 7.2 11.35 7.35 11.35 7.3 11.2 7.2 11.3 7.05 11.3 6.95 11.05 7.35 11.0 7.5 10.9 7.45 11.9 4.95 12.0 4.85 10.75 5.35 10.75 5.3 10.3 6.35 10.6 5.05 10.55 5.0 10.65 4.9 10.2 4.65 10.5 4.15 10.85 3.65 10.9 4.1 M8.55 8.9 L8.5 9.0 8.0 8.75 8.1 8.7 8.1 8.55 7.7 9.05 7.65 9.2 7.55 9.3 7.45 9.35 7.1 8.8 7.25 8.7 7.35 8.55 6.8 8.95 6.75 9.1 6.6 9.2 6.45 9.2 6.2 8.65 6.45 8.45 6.5 8.3 5.9 8.75 5.8 8.9 5.7 8.95 5.65 9.0 5.6 8.95 5.2 8.3 5.4 8.2 5.45 8.1 4.8 8.4 4.35 7.55 4.25 7.6 3.8 7.7 3.85 7.7 3.2 7.8 3.25 7.75 3.6 7.5 3.7 7.35 3.7 7.3 4.45 6.5 4.4 6.45 5.35 5.85 5.25 5.7 4.3 6.3 4.2 6.2 3.35 7.05 3.25 7.0 2.7 7.95 2.6 7.95 2.6 7.9 3.15 7.0 4.0 6.15 4.1 6.15 5.05 5.55 5.1 5.6 6.15 5.1 6.25 5.15 7.6 5.1 7.6 5.05 8.4 5.0 8.45 5.05 9.3 5.1 9.3 5.25 9.2 5.9 9.25 5.9 9.6 5.45 9.65 5.45 9.6 5.5 9.8 5.9 9.9 6.4 10.0 6.65 9.9 6.3 9.95 6.2 9.95 5.95 10.0 5.7 10.0 5.55 10.0 5.4 10.05 5.4 10.2 4.95 10.25 4.95 10.2 4.9 10.3 4.8 10.45 4.85 10.4 4.95 10.25 4.95 10.05 5.7 10.0 6.65 10.0 6.75 9.95 6.75 9.95 6.8 9.9 6.85 9.3 6.15 9.45 6.1 9.5 5.95 7.8 6.7 9.2 8.45 9.15 8.45 9.05 8.65 8.75 8.55 8.55 8.9 M4.65 8.55 L4.5 8.6 4.4 8.6 3.95 7.75 4.1 7.75 4.15 7.7 4.45 8.2 4.5 8.15 4.65 8.55 M11.45 5.15 L11.45 5.2 11.3 5.2 11.45 5.15" fill="#7f6600" fill-rule="evenodd" stroke="none"/>
    <path d="M10.9 9.65 L10.75 9.75 10.0 9.0 9.9 9.3 9.3 10.75 8.5 11.35 9.8 8.35 9.6 8.4 9.5 8.35 8.1 6.8 9.25 6.3 9.35 6.4 9.35 6.55 10.1 7.5 10.15 7.6 10.1 7.45 10.8 5.8 10.75 5.7 10.65 5.65 11.5 5.25 11.55 5.3 11.45 5.5 11.4 5.6 10.45 7.95 11.4 9.2 10.95 9.5 10.9 9.65 M7.9 11.7 L7.85 11.65 7.85 11.6 9.3 8.4 9.3 8.35 9.25 8.3 9.35 8.3 9.4 8.35 7.9 11.7 M10.0 6.75 L10.0 6.8 10.05 6.75 9.95 7.15 9.85 7.05 10.0 6.75" fill="#646464" fill-rule="evenodd" stroke="none"/>
    <path d="M8.45 11.45 L8.2 11.65 8.05 11.7 7.9 11.7 9.4 8.35 9.5 8.35 9.6 8.4 9.8 8.35 8.5 11.35 8.45 11.45 M10.65 5.65 L10.75 5.7 10.8 5.8 10.1 7.45 9.95 7.15 10.05 6.75 10.15 6.65 10.3 6.35 10.65 5.6 10.65 5.65" fill="#c8c8c8" fill-rule="evenodd" stroke="none"/>
    <path d="M10.5 2.35 L10.55 2.45 10.85 3.65 9.85 2.65 9.25 2.55 9.25 2.45 9.6 0.95 10.2 0.95 10.5 2.35 M2.95 7.9 L2.7 7.95 3.25 7.0 3.35 7.05 4.2 6.2 4.3 6.3 5.25 5.7 5.35 5.85 4.4 6.45 4.45 6.5 3.7 7.3 3.7 7.35 3.6 7.5 3.25 7.75 3.2 7.8 3.15 7.8 2.95 7.9 M8.75 5.0 L8.8 4.95 8.95 3.9 9.6 4.0 10.85 3.65 10.5 4.15 10.05 4.8 9.65 5.35 9.6 5.45 9.25 5.9 9.2 5.9 9.3 5.25 9.3 5.1 9.2 5.0 8.75 5.0 M10.65 4.9 L10.55 5.0 10.6 5.05 10.3 6.35 10.15 6.65 10.05 6.75 10.0 6.8 10.0 6.75 10.0 6.65 10.05 5.7 10.25 4.95 10.4 4.95 10.45 4.85 10.65 4.9 M11.9 4.95 L10.9 7.45 10.65 7.5 11.45 5.5 11.55 5.3 11.5 5.25 11.45 5.2 11.45 5.15 11.6 5.1 11.75 5.0 11.9 4.95 M4.8 8.4 L4.65 8.55 4.5 8.15 4.45 8.2 4.15 7.7 4.15 7.65 4.2 7.65 4.25 7.6 4.35 7.55 4.8 8.4" fill="#ffcc00" fill-rule="evenodd" stroke="none"/>
  </g>
</svg>
