<?xml version="1.0" encoding="UTF-8" standalone="no"?>
<svg xmlns:ffdec="https://www.free-decompiler.com/flash" xmlns:xlink="http://www.w3.org/1999/xlink" ffdec:objectType="shape" height="10.55px" width="13.85px" xmlns="http://www.w3.org/2000/svg">
  <g transform="matrix(1.0, 0.0, 0.0, 1.0, -1.2, -0.95)">
    <path d="M11.8 2.5 L10.9 3.65 11.05 4.3 11.65 3.9 13.15 3.15 13.85 3.1 14.4 3.15 14.85 3.45 15.05 3.75 14.55 4.05 14.6 3.95 14.95 3.7 14.8 3.5 14.55 3.35 14.5 3.3 14.05 3.25 14.0 3.2 13.5 3.25 13.3 3.15 11.7 3.95 11.65 3.95 11.65 4.0 11.05 4.35 11.25 5.15 10.7 3.7 11.8 2.5 M14.35 4.65 L14.4 4.75 13.95 4.9 14.0 4.75 14.35 4.65 M13.75 5.45 L13.75 5.5 13.35 5.55 13.4 5.45 13.75 5.45 M13.2 6.1 L13.2 6.2 12.8 6.25 12.8 6.15 13.2 6.1 M12.55 6.85 L12.45 6.9 12.15 6.85 11.8 7.35 11.8 7.25 12.25 6.65 12.2 6.8 12.55 6.85 M11.75 7.45 L11.6 7.45 11.45 7.35 11.25 7.65 11.3 7.5 11.6 7.15 11.55 7.3 11.75 7.45 M11.2 7.6 L11.15 7.65 10.85 7.6 11.0 7.55 11.2 7.6 M10.8 7.55 L10.6 7.9 12.0 9.35 11.95 9.35 11.05 9.8 11.1 9.7 11.9 9.3 10.55 7.95 10.5 8.0 11.75 5.7 11.9 5.55 10.8 7.55 M10.95 9.8 L10.85 9.85 10.0 9.0 10.1 8.75 10.05 8.95 10.95 9.8 M9.0 10.75 L9.0 10.8 7.85 11.35 7.95 11.25 9.0 10.75 M8.65 9.3 L9.2 8.25 7.45 6.6 8.9 6.2 9.0 6.25 7.6 6.65 9.3 8.3 9.2 8.3 8.65 9.3 M9.05 6.3 L9.9 7.1 9.95 7.2 10.05 7.35 10.05 7.45 9.15 6.5 9.1 6.45 9.05 6.3 M10.0 6.7 L9.95 6.6 9.95 6.2 10.0 6.2 10.0 6.4 10.0 6.7 M10.1 5.7 L10.05 5.75 10.15 5.45 10.25 5.0 10.3 4.95 10.35 4.95 10.35 4.9 10.05 4.7 9.45 5.3 9.7 5.85 9.9 6.7 9.65 5.85 9.45 5.45 9.45 5.3 8.95 5.85 10.7 3.7 10.15 1.0 10.6 2.4 11.3 2.35 11.75 2.45 10.6 2.45 10.7 3.7 10.15 4.6 10.75 4.95 10.55 4.9 10.45 4.85 10.35 4.95 10.35 5.0 10.15 5.45 10.1 5.7 M9.85 6.85 L9.8 6.9 9.0 6.1 7.4 6.6 9.05 8.3 9.0 8.35 8.75 8.6 8.7 8.65 8.3 8.55 8.1 8.85 8.1 8.75 8.4 8.35 8.35 8.5 8.75 8.6 8.8 8.5 8.9 8.35 9.0 8.35 7.3 6.55 9.25 6.0 9.05 6.1 9.85 6.85 M8.05 8.9 L7.95 8.95 7.35 8.65 6.95 9.0 7.3 8.6 7.35 8.65 7.45 8.6 8.05 8.9 M6.8 9.1 L6.7 9.05 6.35 8.55 5.85 8.8 5.9 8.7 6.55 8.4 6.4 8.55 6.8 9.1 M5.7 8.9 L5.6 8.85 5.3 8.3 4.8 8.5 4.75 8.5 4.85 8.45 5.5 8.15 5.35 8.25 5.7 8.9 M4.65 8.6 L4.55 8.55 4.05 7.9 3.4 8.1 3.35 8.1 3.4 8.05 3.45 8.05 4.3 7.8 4.2 7.85 4.15 7.9 4.65 8.6 M3.25 8.15 L3.15 8.15 2.65 7.3 1.55 7.35 2.8 7.25 2.7 7.3 3.25 8.15 M1.2 7.35 L1.2 7.3 1.75 6.5 2.7 5.8 3.9 5.25 5.15 4.9 7.75 4.85 8.6 4.95 8.9 5.0 7.6 4.9 5.25 4.95 4.0 5.25 2.85 5.8 2.8 5.8 1.85 6.5 1.2 7.35 M8.85 3.85 L7.7 2.95 9.2 2.55 9.7 2.65 8.2 3.05 9.35 4.0 8.85 3.85 M11.95 5.35 L10.8 5.7 10.8 5.65 10.7 5.65 10.8 5.6 11.8 5.3 11.85 5.25 10.85 5.55 10.9 5.5 12.45 5.0 12.25 5.15 12.0 5.2 11.9 5.25 11.85 5.3 11.95 5.35 M10.3 6.5 L10.45 6.25 10.2 6.65 10.2 6.7 10.15 6.7 10.2 6.65 10.3 6.5 M9.35 8.35 L9.3 8.35 9.3 8.3 9.35 8.35" fill="#000000" fill-rule="evenodd" stroke="none"/>
    <path d="M11.05 9.8 L10.95 9.8 10.05 8.95 10.1 8.75 10.0 9.0 9.0 10.75 7.95 11.25 8.1 11.15 9.7 8.3 9.5 8.35 9.35 8.35 9.3 8.3 7.6 6.65 9.0 6.25 9.05 6.3 9.1 6.45 7.95 6.75 8.15 6.8 9.15 6.5 10.05 7.45 10.1 7.6 11.05 5.9 11.0 5.8 10.8 5.7 11.95 5.35 11.95 5.45 11.9 5.55 11.75 5.7 10.5 8.0 10.55 7.95 11.9 9.3 11.1 9.7 11.05 9.8 M7.45 11.5 L7.4 11.45 7.4 11.3 7.45 11.3 8.05 10.3 8.65 9.3 9.2 8.3 9.3 8.3 7.45 11.5 M9.9 7.1 L10.0 6.8 10.05 6.75 10.1 6.8 10.15 6.7 10.2 6.7 9.95 7.2 9.9 7.1 M9.1 6.45 L9.15 6.5 8.2 6.75 9.1 6.45" fill="#646464" fill-rule="evenodd" stroke="none"/>
    <path d="M7.85 11.35 L7.65 11.45 7.45 11.5 9.3 8.3 9.3 8.35 9.35 8.35 9.5 8.35 9.7 8.3 8.1 11.15 7.95 11.25 7.85 11.35 M10.8 5.7 L11.0 5.8 11.05 5.9 10.1 7.6 10.05 7.45 10.05 7.35 9.95 7.2 10.2 6.7 10.2 6.65 10.45 6.25 10.8 5.65 10.8 5.7 M9.15 6.5 L8.15 6.8 7.95 6.75 9.1 6.45 8.2 6.75 9.15 6.5 M10.3 6.5 L10.2 6.65 10.25 6.5 10.3 6.5" fill="#c8c8c8" fill-rule="evenodd" stroke="none"/>
    <path d="M10.85 7.6 L10.8 7.55 11.9 5.55 11.95 5.45 11.95 5.35 12.0 5.2 12.25 5.15 12.45 5.0 11.2 7.5 11.0 7.55 10.85 7.6 M1.55 7.35 L1.35 7.35 1.95 6.55 1.95 6.6 2.9 5.85 2.95 5.9 4.1 5.35 4.1 5.4 5.35 5.0 5.4 5.15 7.05 5.15 7.05 5.25 6.1 5.3 7.05 5.3 5.45 5.35 5.65 7.85 4.95 8.2 4.85 8.45 4.75 8.5 4.3 7.8 4.35 7.8 4.45 7.55 3.55 7.8 3.45 8.05 3.4 8.05 2.9 7.25 3.35 8.1 2.85 7.25 3.05 7.05 2.1 7.1 1.55 7.35 M10.55 4.9 L10.75 4.95 10.85 5.0 10.75 5.1 10.6 5.55 10.45 6.25 10.3 6.5 10.25 6.5 10.2 6.65 10.15 6.7 10.1 6.8 10.05 6.75 10.05 6.4 10.0 6.4 10.45 4.95 10.5 5.0 10.55 4.9 M10.7 3.7 L8.95 5.85 9.35 4.0 10.7 3.7 9.7 2.65 10.15 1.0 10.7 3.7 M5.9 8.7 L5.85 8.8 5.5 8.15 5.55 8.1 5.65 7.9 6.0 8.55 5.9 8.7" fill="#ffcc00" fill-rule="evenodd" stroke="none"/>
    <path d="M11.75 2.45 L11.85 2.45 11.8 2.5 10.7 3.7 10.6 2.45 11.75 2.45 M14.55 4.05 L14.35 4.65 14.0 4.75 13.95 4.9 13.75 5.45 13.4 5.45 13.35 5.55 13.2 6.1 12.8 6.15 12.8 6.25 12.55 6.85 12.2 6.8 12.25 6.65 11.8 7.25 11.8 7.35 11.75 7.45 11.55 7.3 11.6 7.15 11.3 7.5 11.25 7.65 11.2 7.6 11.0 7.55 11.2 7.5 12.45 5.0 10.9 5.5 10.85 5.55 10.8 5.6 10.7 5.65 10.8 5.65 10.45 6.25 10.6 5.55 10.75 5.1 10.85 5.0 10.75 4.95 10.15 4.6 10.7 3.7 11.25 5.15 11.05 4.35 11.65 4.0 11.65 3.95 11.7 3.95 13.3 3.15 13.5 3.25 14.0 3.2 14.05 3.25 14.5 3.3 14.55 3.35 14.8 3.5 14.95 3.7 14.6 3.95 14.55 4.05 M10.0 6.8 L10.0 6.7 10.0 6.4 10.0 6.2 10.1 5.7 10.15 5.45 10.35 5.0 10.35 4.95 10.45 4.85 10.55 4.9 10.5 5.0 10.45 4.95 10.0 6.4 10.05 6.4 10.05 6.75 10.0 6.8 M9.9 6.7 L9.9 6.8 9.85 6.85 9.05 6.1 9.25 6.0 7.3 6.55 9.0 8.35 8.9 8.35 8.8 8.5 8.75 8.6 8.35 8.5 8.4 8.35 8.1 8.75 8.1 8.85 8.05 8.9 7.45 8.6 7.35 8.65 7.3 8.6 6.95 9.0 6.8 9.1 6.4 8.55 6.55 8.4 5.9 8.7 6.0 8.55 5.65 7.9 5.55 8.1 5.5 8.15 4.85 8.45 4.95 8.2 5.65 7.85 5.45 5.35 7.05 5.3 6.1 5.3 7.05 5.25 7.05 5.15 5.4 5.15 5.35 5.0 4.1 5.4 4.1 5.35 2.95 5.9 2.9 5.85 1.95 6.6 1.95 6.55 1.35 7.35 1.2 7.4 1.2 7.35 1.85 6.5 2.8 5.8 2.85 5.8 4.0 5.25 5.25 4.95 7.6 4.9 8.9 5.0 8.6 4.95 8.85 3.85 9.35 4.0 8.2 3.05 9.7 2.65 9.2 2.55 9.65 0.95 10.15 1.0 9.7 2.65 10.7 3.7 9.35 4.0 8.95 5.85 9.45 5.3 9.45 5.45 9.65 5.85 9.9 6.7 M5.85 8.8 L5.7 8.9 5.35 8.25 5.5 8.15 5.85 8.8 M4.8 8.5 L4.65 8.6 4.15 7.9 4.2 7.85 4.3 7.8 3.45 8.05 3.55 7.8 4.45 7.55 4.35 7.8 4.3 7.8 4.75 8.5 4.8 8.5 M3.4 8.1 L3.25 8.15 2.7 7.3 2.8 7.25 1.55 7.35 2.1 7.1 3.05 7.05 2.85 7.25 3.35 8.1 2.9 7.25 3.4 8.05 3.35 8.1 3.4 8.1 M11.95 5.35 L11.85 5.3 11.9 5.25 12.0 5.2 11.95 5.35" fill="#7f6600" fill-rule="evenodd" stroke="none"/>
  </g>
</svg>
