<?xml version="1.0" encoding="UTF-8" standalone="no"?>
<svg xmlns:ffdec="https://www.free-decompiler.com/flash" xmlns:xlink="http://www.w3.org/1999/xlink" ffdec:objectType="shape" height="9.75px" width="18.0px" xmlns="http://www.w3.org/2000/svg">
  <g transform="matrix(1.0, 0.0, 0.0, 1.0, -0.2, -0.9)">
    <path d="M10.55 2.45 L12.25 2.55 12.45 2.65 10.6 2.55 10.55 2.45 M11.35 4.6 L12.35 4.25 12.7 4.2 15.1 3.65 15.15 3.65 15.6 3.65 17.1 3.85 17.1 3.9 17.65 4.1 17.8 4.15 18.2 4.65 17.25 4.9 17.3 4.85 18.15 4.65 17.85 4.3 17.85 4.25 17.65 4.15 17.65 4.1 17.45 4.05 17.1 3.9 15.2 3.7 15.15 3.65 13.1 4.15 12.7 4.2 11.35 4.65 11.35 4.6 M16.9 5.6 L16.85 5.65 16.15 5.65 16.2 5.6 16.9 5.6 M15.8 6.25 L15.75 6.35 15.75 6.4 15.1 6.3 14.8 6.95 14.75 6.95 15.1 6.25 15.15 6.3 15.75 6.35 15.75 6.25 15.8 6.25 M14.15 6.9 L13.75 7.55 13.7 7.6 13.15 7.4 12.45 7.9 12.45 7.95 12.05 7.7 12.1 7.7 12.45 7.9 12.5 7.85 13.15 7.3 13.15 7.35 13.75 7.55 13.7 7.5 14.15 6.85 14.15 6.9 M11.65 7.95 L11.65 8.0 11.25 7.85 11.35 7.85 11.65 7.95 M11.15 7.8 L11.1 7.75 11.35 7.4 12.7 5.9 12.75 5.85 12.8 5.85 12.9 5.75 13.0 5.6 13.2 5.6 13.0 5.65 11.15 7.8 M10.75 8.0 L10.8 8.05 10.7 8.1 10.75 8.0 M12.8 10.05 L11.4 10.15 12.75 10.0 12.8 10.05 M6.7 10.6 L6.65 10.6 9.0 8.1 9.1 8.2 9.0 8.15 6.7 10.6 M8.1 7.3 L6.9 6.2 6.95 6.2 8.1 7.3 M6.8 6.15 L6.75 6.1 8.55 6.0 6.8 6.15 M8.6 6.0 L9.9 7.15 11.1 5.8 11.15 5.8 11.15 5.7 10.15 6.7 10.15 6.65 11.1 5.7 11.15 5.7 11.2 5.7 11.15 5.8 12.85 5.7 12.85 5.75 11.1 5.85 9.95 7.2 9.95 7.3 8.6 6.05 8.6 6.0 M10.1 6.8 L10.05 6.8 10.05 6.4 10.3 5.65 10.5 5.25 10.55 5.1 10.7 5.0 10.65 5.05 10.35 5.65 10.1 6.35 10.1 6.8 M9.55 5.95 L9.75 6.45 9.75 6.5 9.55 5.95 M9.75 6.7 L9.75 6.8 9.75 6.85 8.65 5.85 8.7 5.85 9.75 6.8 9.7 6.65 9.75 6.7 M6.55 6.0 L6.6 6.05 6.4 6.0 6.55 6.0 M8.55 8.05 L8.2 8.25 8.15 8.25 8.5 8.05 8.55 8.05 M7.7 8.1 L7.3 8.35 6.55 7.9 5.9 8.2 5.9 8.15 6.55 7.9 7.3 8.3 7.65 8.05 7.7 8.1 M5.4 7.6 L4.65 7.75 4.6 7.75 4.2 7.1 4.25 7.1 4.65 7.75 4.65 7.7 5.45 7.55 5.4 7.6 M3.6 7.2 L3.5 7.25 3.45 7.25 2.95 6.5 3.0 6.5 3.5 7.25 3.55 7.15 3.6 7.2 M2.1 6.6 L2.05 6.6 1.55 5.75 2.1 6.6 M1.25 5.75 L0.25 5.6 0.2 5.6 0.8 5.0 1.7 4.6 2.85 4.3 4.15 4.15 6.8 4.55 4.15 4.2 2.85 4.35 1.7 4.65 0.8 5.05 0.25 5.6 0.4 5.6 1.25 5.75 M7.45 4.65 L8.4 4.75 8.75 3.8 8.85 3.9 8.5 4.95 8.5 4.85 7.45 4.65 M7.35 2.85 L7.3 2.7 9.2 2.45 9.85 0.9 10.0 1.0 9.35 2.6 7.35 2.85" fill="#000000" fill-rule="evenodd" stroke="none"/>
    <path d="M11.35 7.4 L10.75 8.0 10.7 8.1 10.55 8.15 12.5 6.05 12.7 5.9 11.35 7.4 M10.8 8.05 L12.95 10.0 12.8 10.05 12.75 10.0 10.7 8.1 10.8 8.05 M11.4 10.15 L11.35 10.15 9.95 8.9 8.5 10.45 6.85 10.65 7.3 10.45 8.45 10.35 9.95 8.75 11.45 10.1 11.45 10.05 12.5 9.95 12.75 10.0 11.4 10.15 M6.8 10.65 L6.7 10.65 6.7 10.6 9.0 8.15 9.1 8.2 9.0 8.1 8.1 7.3 6.95 6.2 6.9 6.2 6.8 6.15 8.55 6.0 8.6 6.0 8.6 6.05 9.95 7.3 9.95 7.2 11.1 5.85 12.85 5.75 12.9 5.75 12.8 5.85 12.75 5.85 11.2 5.95 11.2 5.9 9.95 7.3 9.95 7.4 8.6 6.2 8.6 6.1 6.95 6.2 7.2 6.35 9.3 8.2 9.1 8.2 6.8 10.65" fill="#646464" fill-rule="evenodd" stroke="none"/>
    <path d="M6.85 10.65 L6.8 10.65 9.1 8.2 9.3 8.2 7.2 6.35 6.95 6.2 8.6 6.1 8.6 6.2 9.95 7.4 9.95 7.3 11.2 5.9 11.2 5.95 12.75 5.85 12.7 5.9 12.5 6.05 10.55 8.15 10.7 8.1 12.75 10.0 12.5 9.95 11.45 10.05 11.45 10.1 9.95 8.75 8.45 10.35 7.3 10.45 6.85 10.65" fill="#c8c8c8" fill-rule="evenodd" stroke="none"/>
    <path d="M12.45 2.65 L11.05 3.8 11.35 4.6 11.35 4.65 12.7 4.2 13.1 4.15 15.15 3.65 15.2 3.7 17.1 3.9 17.45 4.05 17.65 4.1 17.65 4.15 17.85 4.25 17.85 4.3 18.15 4.65 17.3 4.85 17.25 4.9 16.9 5.6 16.2 5.6 16.15 5.65 15.8 6.25 15.75 6.25 15.75 6.35 15.15 6.3 15.1 6.25 14.75 6.95 14.15 6.9 14.15 6.85 13.7 7.5 13.75 7.55 13.15 7.35 13.15 7.3 12.5 7.85 12.45 7.9 12.1 7.7 12.05 7.7 11.65 7.95 11.35 7.85 11.55 7.8 11.7 7.85 12.15 7.55 12.15 7.6 12.5 7.85 12.5 7.75 13.15 7.25 13.7 7.45 14.1 6.75 14.1 6.8 14.75 6.85 15.05 6.2 15.75 6.25 15.7 6.2 16.15 5.5 16.85 5.45 17.2 4.8 17.9 4.6 17.8 4.45 17.8 4.35 17.15 4.05 16.3 3.9 16.3 3.85 15.2 3.8 15.2 3.75 12.55 4.35 12.5 4.4 11.35 4.75 11.6 5.4 10.8 5.0 10.7 5.1 10.45 5.6 10.15 6.45 10.15 6.65 10.35 6.35 11.1 5.6 13.55 5.45 13.3 5.6 13.2 5.6 11.25 7.85 11.15 7.8 13.0 5.65 13.2 5.6 13.0 5.6 11.2 5.7 11.15 5.7 11.1 5.7 10.15 6.65 10.15 6.7 10.1 6.8 10.1 6.35 10.35 5.65 10.65 5.05 10.7 5.0 10.0 4.65 9.15 5.15 9.5 5.7 9.55 5.95 9.75 6.5 9.75 6.7 9.7 6.65 9.75 6.8 8.7 5.85 8.65 5.85 6.55 6.0 6.4 6.0 6.2 5.95 8.8 5.8 8.75 5.85 8.95 5.95 9.0 6.0 9.7 6.6 9.35 5.75 9.1 5.3 9.1 5.25 9.05 5.2 8.3 5.6 10.1 3.75 12.45 2.65 M6.6 6.05 L8.65 8.0 8.55 8.05 8.5 8.05 8.15 8.25 7.7 8.05 7.7 8.1 7.65 8.05 7.3 8.3 6.55 7.9 5.9 8.15 5.9 8.2 5.4 7.6 5.45 7.55 4.65 7.7 4.65 7.75 4.25 7.1 4.2 7.1 3.6 7.2 3.55 7.15 3.55 7.1 4.3 6.95 4.7 7.6 5.45 7.45 5.45 7.5 5.9 8.05 6.55 7.75 7.3 8.2 7.7 7.95 8.2 8.15 8.35 8.05 8.5 8.05 6.4 6.0 6.6 6.05 M2.95 6.5 L2.1 6.6 1.55 5.75 1.25 5.75 0.4 5.6 0.25 5.6 0.8 5.05 1.7 4.65 2.85 4.35 4.15 4.2 6.8 4.55 7.15 4.55 7.45 4.65 8.5 4.85 8.5 4.95 7.2 4.65 7.2 4.6 4.15 4.25 1.7 4.75 0.8 5.15 0.85 5.15 0.4 5.6 0.55 5.55 1.65 5.7 2.15 6.5 3.0 6.4 3.55 7.15 3.5 7.25 3.0 6.5 2.95 6.5 M8.75 3.8 L7.35 2.85 10.1 3.75 8.85 3.9 8.75 3.8 M10.0 1.0 L10.55 2.45 10.6 2.55 10.1 3.75 10.0 1.0 M6.8 4.55 L7.45 4.65 6.8 4.55" fill="#7f6600" fill-rule="evenodd" stroke="none"/>
    <path d="M10.6 2.55 L12.45 2.65 10.1 3.75 8.3 5.6 9.05 5.2 9.1 5.25 9.1 5.3 9.35 5.75 9.7 6.6 9.0 6.0 8.95 5.95 8.75 5.85 8.8 5.8 6.2 5.95 6.4 6.0 8.5 8.05 8.35 8.05 8.2 8.15 7.7 7.95 7.3 8.2 6.55 7.75 5.9 8.05 5.45 7.5 5.45 7.45 4.7 7.6 4.3 6.95 3.55 7.1 3.55 7.15 3.0 6.4 2.15 6.5 1.65 5.7 0.55 5.55 0.4 5.6 0.85 5.15 0.8 5.15 1.7 4.75 4.15 4.25 7.2 4.6 7.2 4.65 8.5 4.95 8.85 3.9 10.1 3.75 7.35 2.85 9.35 2.6 10.0 1.0 10.1 3.75 10.6 2.55 M11.25 7.85 L13.2 5.6 13.3 5.6 13.55 5.45 11.1 5.6 10.35 6.35 10.15 6.65 10.15 6.45 10.45 5.6 10.7 5.1 10.8 5.0 11.6 5.4 11.35 4.75 12.5 4.4 12.55 4.35 15.2 3.75 15.2 3.8 16.3 3.85 16.3 3.9 17.15 4.05 17.8 4.35 17.8 4.45 17.9 4.6 17.2 4.8 16.85 5.45 16.15 5.5 15.7 6.2 15.75 6.25 15.05 6.2 14.75 6.85 14.1 6.8 14.1 6.75 13.7 7.45 13.15 7.25 12.5 7.75 12.5 7.85 12.15 7.6 12.15 7.55 11.7 7.85 11.55 7.8 11.35 7.85 11.25 7.85" fill="#ffcc00" fill-rule="evenodd" stroke="none"/>
  </g>
</svg>
