<?xml version="1.0" encoding="UTF-8" standalone="no"?>
<svg xmlns:ffdec="https://www.free-decompiler.com/flash" xmlns:xlink="http://www.w3.org/1999/xlink" ffdec:objectType="shape" height="9.4px" width="17.65px" xmlns="http://www.w3.org/2000/svg">
  <g transform="matrix(1.0, 0.0, 0.0, 1.0, -1.0, -1.4)">
    <path d="M4.2 1.65 L4.4 1.55 6.15 3.7 6.25 3.75 7.0 3.65 4.95 1.55 4.85 1.45 4.85 1.4 7.8 1.4 10.0 3.6 12.05 1.4 15.05 1.4 15.05 1.45 14.95 1.55 13.1 3.5 13.6 3.55 15.35 1.45 15.5 1.55 13.7 3.7 13.0 3.55 11.85 4.75 11.45 5.1 12.0 5.7 12.25 5.3 12.35 5.45 12.1 5.8 12.45 6.1 12.85 6.55 13.25 6.85 13.5 7.15 14.25 7.9 14.3 7.9 14.25 7.95 14.35 8.05 14.55 8.4 11.35 5.25 11.15 5.3 14.6 1.8 14.95 1.55 12.15 1.55 10.0 3.85 7.7 1.55 4.95 1.55 5.3 1.8 7.25 3.7 6.1 3.9 4.25 1.7 4.2 1.65 M15.75 4.15 L15.85 4.2 16.75 1.65 16.8 1.75 16.35 3.2 15.9 4.2 15.75 4.95 15.7 5.0 15.7 4.8 15.85 4.3 15.75 4.25 15.75 4.15 M16.85 1.8 L17.9 3.3 18.05 3.75 18.25 4.75 18.55 4.55 18.65 4.55 18.2 4.85 17.95 3.65 17.6 2.9 17.5 2.75 16.95 2.1 16.9 2.0 16.85 1.95 16.85 1.8 M18.6 4.7 L18.55 5.25 18.55 5.3 18.5 5.9 18.45 6.0 18.4 6.15 18.4 6.3 18.2 6.9 17.45 8.15 17.4 8.2 17.2 8.45 16.8 8.85 16.65 9.05 16.2 9.4 15.55 9.75 14.9 10.1 13.8 10.5 13.55 10.55 12.95 10.75 12.55 10.8 11.2 10.8 10.45 10.7 10.05 10.55 9.85 10.4 9.8 10.35 9.7 10.3 9.2 10.4 7.65 10.5 6.95 10.35 6.4 10.45 6.25 10.45 5.85 10.35 3.95 9.5 4.0 9.45 5.45 10.15 6.05 10.35 6.6 10.35 6.8 10.3 6.85 10.35 7.3 10.15 7.35 10.15 7.05 10.3 7.5 10.4 8.6 10.4 9.65 10.25 9.55 10.15 9.5 10.05 9.35 9.85 9.25 9.55 9.35 9.3 9.35 9.2 9.45 9.1 9.6 8.9 9.85 8.65 10.0 8.6 10.15 8.55 9.9 8.7 9.9 8.75 9.7 8.85 9.55 9.0 9.45 9.15 9.45 9.2 9.35 9.4 9.35 9.65 9.4 9.7 9.45 9.9 9.5 10.0 9.55 10.0 9.6 10.1 9.75 10.25 10.0 10.45 10.1 10.5 10.15 10.5 10.7 10.65 12.55 10.75 13.15 10.65 13.85 10.35 14.1 10.25 14.25 10.2 14.4 10.25 14.45 10.2 15.55 9.75 16.2 9.35 16.45 9.15 16.5 9.05 16.35 9.1 16.25 9.15 16.2 9.15 16.0 9.2 15.55 9.2 15.5 9.15 15.45 9.15 15.3 9.0 15.35 9.0 15.45 9.1 15.5 9.1 15.65 9.15 16.0 9.15 16.45 9.0 16.9 8.7 17.1 8.5 17.4 8.1 18.0 7.1 18.4 6.15 18.45 5.75 18.4 5.9 18.5 5.0 18.55 4.75 18.6 4.7 M3.9 9.45 L3.65 9.25 2.65 8.2 2.9 8.4 3.9 9.4 3.9 9.45 M2.8 8.0 L2.05 6.6 1.9 6.4 1.85 6.35 1.9 6.35 1.8 6.2 1.7 5.85 1.75 5.85 1.85 6.2 2.0 6.45 2.3 6.85 2.55 7.0 2.5 7.0 2.6 7.05 3.05 7.05 3.25 7.0 3.4 6.9 3.45 6.9 3.3 7.05 2.8 7.15 2.65 7.1 2.55 7.1 2.4 7.0 2.25 6.85 2.9 8.0 2.8 8.0 M1.0 5.55 L1.7 5.2 1.65 4.55 1.75 4.8 1.75 4.65 1.8 4.5 1.65 4.4 1.8 4.45 1.95 3.7 2.1 3.4 2.4 2.8 3.15 1.8 3.1 1.95 3.1 2.0 3.05 2.1 2.4 2.85 2.1 3.4 2.0 3.85 2.0 3.9 1.75 5.2 2.05 5.15 3.9 4.45 3.95 4.4 3.95 4.5 1.0 5.55 M3.2 1.7 L3.25 1.65 3.7 3.15 4.0 3.85 4.0 4.05 3.65 3.2 3.2 1.7 M7.9 6.15 L7.9 6.25 7.5 5.75 7.65 5.6 7.8 5.8 8.5 5.1 8.2 4.85 8.25 4.75 8.75 5.25 8.6 5.2 7.8 6.0 7.9 6.15 M8.8 7.5 L8.85 7.5 10.0 6.4 12.4 8.8 14.6 8.8 14.8 8.85 12.75 8.85 12.6 8.85 12.7 8.9 12.75 8.95 12.85 9.1 12.45 8.85 12.3 8.85 12.1 8.65 11.6 8.55 10.4 8.5 10.15 8.55 10.2 8.5 10.15 8.5 10.05 8.45 10.05 8.4 10.0 8.35 9.95 8.35 9.85 8.3 9.3 8.2 8.5 8.2 8.2 8.3 8.1 8.4 8.0 8.55 7.65 8.9 7.55 8.85 8.4 8.0 8.5 8.0 8.3 8.2 9.1 8.15 9.3 8.2 8.8 7.5 M15.8 5.95 L15.85 5.8 15.9 5.85 15.9 6.0 15.95 6.15 16.1 6.05 15.6 6.55 15.65 6.4 15.9 6.15 15.8 5.95 M15.05 7.35 L15.5 6.6 15.6 6.55 15.1 7.35 15.15 7.4 14.95 7.8 14.9 8.2 14.85 8.0 14.9 7.9 15.05 7.35 M14.9 8.3 L14.95 8.3 15.0 8.55 14.9 8.3 M14.55 7.9 L14.9 7.85 14.9 7.9 14.55 7.9 M10.7 7.8 L10.65 7.55 10.8 7.35 10.0 6.5 9.0 7.5 9.3 7.9 9.3 8.15 9.95 8.25 10.2 8.5 10.25 8.5 10.7 8.4 12.05 8.6 11.15 7.7 11.05 7.6 10.9 7.45 10.7 7.8 M9.25 3.35 L9.35 3.3 9.35 3.35 9.25 3.35 M5.35 8.8 L7.55 8.8 7.55 8.85 7.5 8.9 7.45 8.9 7.5 9.0 7.4 8.9 7.25 8.9 5.1 8.85 5.35 8.8 M7.55 9.9 L7.45 10.05 7.4 10.15 7.35 10.15 7.45 10.0 7.5 9.9 7.55 9.9 M6.1 7.5 L6.1 7.45 6.3 7.5 5.1 8.7 5.6 8.05 5.65 7.9 5.7 7.85 5.7 7.9 6.1 7.5" fill="#000000" fill-rule="evenodd" stroke="none"/>
    <path d="M15.5 1.55 L15.75 4.15 15.75 4.25 15.85 4.3 15.7 4.8 15.7 5.0 15.75 4.95 15.75 5.15 15.8 5.4 15.85 5.55 14.35 5.75 12.9 6.55 12.85 6.55 12.45 6.1 12.1 5.8 12.35 5.45 12.25 5.3 11.85 4.75 13.0 3.55 13.7 3.7 15.5 1.55 M18.55 5.25 L18.6 5.3 18.55 5.3 18.55 5.25 M4.25 1.7 L6.1 3.9 7.25 3.7 7.35 3.7 9.25 3.35 9.35 3.35 9.3 3.4 8.35 4.7 8.25 4.75 8.2 4.85 7.65 5.6 7.5 5.75 7.9 6.25 8.8 7.5 9.3 8.2 5.4 6.0 1.0 5.55 3.95 4.5 5.4 6.0 4.25 1.7 M14.55 8.4 L14.35 8.05 14.7 8.0 14.85 8.0 14.9 8.2 14.9 8.3 15.0 8.55 15.1 8.8 15.2 8.85 15.15 8.85 15.3 9.0 15.45 9.15 15.5 9.15 15.55 9.2 16.0 9.2 14.3 10.05 13.95 9.9 12.95 9.25 13.1 9.3 12.9 9.15 12.85 9.1 12.75 8.95 12.7 8.9 12.75 8.85 14.8 8.85 14.9 8.85 14.85 8.8 14.55 8.4 M16.85 1.95 L16.9 2.0 16.95 2.15 17.0 2.4 17.4 2.95 17.35 3.0 17.55 3.35 17.8 3.95 17.95 4.7 17.9 4.75 17.95 5.1 17.8 5.25 18.55 4.75 18.5 5.0 18.2 5.6 18.15 6.05 17.95 6.85 17.7 7.1 16.95 8.25 16.65 8.6 16.5 8.65 16.15 8.85 15.85 8.9 15.85 8.95 15.75 8.95 15.75 8.9 15.65 8.95 15.6 8.9 15.5 8.95 15.35 8.7 15.25 8.7 15.15 8.35 15.1 8.35 15.1 8.2 15.05 8.15 15.05 7.9 15.25 7.5 15.2 7.45 15.95 6.35 16.3 6.1 16.5 6.0 16.4 6.0 16.1 6.05 15.95 5.55 15.9 5.55 15.85 5.1 15.9 5.05 16.0 4.3 16.85 1.95 M14.45 10.2 L14.4 10.25 14.25 10.2 14.1 10.25 13.55 10.25 12.95 10.45 12.65 10.5 11.95 10.55 10.55 10.4 10.3 10.3 10.25 10.35 10.0 10.2 9.9 10.1 9.8 9.9 9.7 9.95 9.6 9.75 9.55 9.75 9.55 9.65 9.5 9.6 9.55 9.5 9.45 9.45 9.7 9.15 9.65 9.1 9.95 8.9 9.95 8.8 10.05 8.75 10.5 8.6 11.25 8.6 12.1 8.75 12.15 8.8 12.15 8.85 12.45 9.0 13.95 9.9 14.45 10.2 M10.0 8.6 L9.85 8.65 9.6 8.9 9.45 9.1 9.35 9.2 9.35 9.3 9.25 9.55 9.35 9.85 9.5 10.05 8.35 10.2 7.4 10.15 7.45 10.05 7.55 9.9 7.6 9.85 7.55 9.8 7.6 9.65 7.5 9.0 7.45 8.9 7.5 8.9 7.55 8.85 7.65 8.9 8.0 8.55 8.1 8.5 8.1 8.4 8.85 8.3 9.35 8.3 9.85 8.4 10.05 8.5 10.0 8.6 M15.05 7.35 L14.9 7.9 14.9 7.85 14.55 7.9 13.7 7.1 14.35 5.75 15.05 7.35 M10.7 7.8 L10.9 7.45 11.05 7.6 10.7 7.8 M3.1 1.95 L3.95 4.3 3.95 4.4 3.9 4.45 2.05 5.15 2.1 4.7 2.05 4.7 2.25 3.6 2.6 3.05 2.6 2.95 3.0 2.4 3.05 2.15 3.1 2.0 3.1 1.95 M1.65 4.55 L1.75 4.65 1.75 4.8 1.65 4.55 M5.6 8.05 L5.1 8.7 4.95 8.85 5.1 8.85 7.25 8.9 7.4 9.1 7.45 9.2 7.4 9.25 7.5 9.6 7.4 9.65 7.4 9.8 7.35 9.8 7.35 9.9 7.25 9.9 7.15 10.0 7.1 10.0 6.8 10.15 6.7 10.15 6.7 10.1 6.4 10.15 6.2 10.15 4.85 9.65 4.2 9.3 5.5 8.05 5.6 8.05 M3.45 6.9 L3.6 6.8 3.8 6.6 3.9 6.65 3.9 8.1 3.35 8.1 3.25 8.0 2.95 7.55 2.85 7.6 2.6 7.15 2.55 7.1 2.65 7.1 2.8 7.15 3.3 7.05 3.45 6.9 M3.6 6.55 L3.55 6.6 3.5 6.6 3.4 6.7 3.25 6.8 3.2 6.75 3.0 6.85 2.75 6.9 2.75 6.85 2.6 6.85 2.45 6.75 2.35 6.65 2.15 6.35 2.05 6.1 2.05 5.95 3.6 6.55 M2.9 8.4 L2.65 8.2 3.9 8.15 3.9 9.05 3.45 8.65 2.9 8.4" fill="#ffcc00" fill-rule="evenodd" stroke="none"/>
    <path d="M16.8 1.75 L16.85 1.8 16.85 1.95 16.0 4.3 15.9 5.05 15.85 5.1 15.9 5.55 15.95 5.55 16.1 6.05 16.4 6.0 16.5 6.0 16.3 6.1 15.95 6.35 15.2 7.45 15.25 7.5 15.05 7.9 15.05 8.15 15.1 8.2 15.1 8.35 15.15 8.35 15.25 8.7 15.35 8.7 15.5 8.95 15.6 8.9 15.65 8.95 15.75 8.9 15.75 8.95 15.85 8.95 15.85 8.9 16.15 8.85 16.5 8.65 16.65 8.6 16.95 8.25 17.7 7.1 17.95 6.85 18.15 6.05 18.2 5.6 18.5 5.0 18.4 5.9 18.45 5.75 18.4 6.15 18.0 7.1 17.4 8.1 17.1 8.5 16.9 8.7 16.45 9.0 16.0 9.15 15.65 9.15 15.5 9.1 15.45 9.1 15.35 9.0 15.3 9.0 15.15 8.85 15.2 8.85 15.1 8.8 15.0 8.55 14.95 8.3 14.9 8.3 14.9 8.2 14.95 7.8 15.15 7.4 15.1 7.35 15.6 6.55 15.5 6.6 15.05 7.35 14.35 5.75 13.7 7.1 13.5 7.15 13.25 6.85 12.85 6.55 12.9 6.55 14.35 5.75 15.85 5.55 15.8 5.4 15.75 5.15 15.75 4.95 15.9 4.2 16.35 3.2 16.8 1.75 M18.65 4.55 L18.6 4.7 18.55 4.75 17.8 5.25 17.95 5.1 17.9 4.75 17.95 4.7 17.8 3.95 17.55 3.35 17.35 3.0 17.4 2.95 17.0 2.4 16.95 2.15 16.9 2.0 16.95 2.1 17.5 2.75 17.6 2.9 17.95 3.65 18.2 4.85 18.65 4.55 M3.95 9.5 L3.9 9.55 3.9 9.45 3.9 9.4 2.9 8.4 3.45 8.65 3.9 9.05 3.9 8.15 2.65 8.2 2.55 8.05 2.5 8.0 2.8 8.0 2.9 8.0 2.25 6.85 2.4 7.0 2.55 7.1 2.6 7.15 2.85 7.6 2.95 7.55 3.25 8.0 3.35 8.1 3.9 8.1 3.9 6.65 3.8 6.6 3.6 6.8 3.45 6.9 3.4 6.9 3.25 7.0 3.05 7.05 2.6 7.05 2.5 7.0 2.55 7.0 2.3 6.85 2.0 6.45 1.85 6.2 1.75 5.85 1.7 5.85 1.0 5.55 5.4 6.0 9.3 8.2 9.85 8.3 9.95 8.35 10.0 8.35 10.05 8.4 10.05 8.45 10.15 8.5 10.2 8.5 10.15 8.55 10.0 8.6 10.05 8.5 9.85 8.4 9.35 8.3 8.85 8.3 8.1 8.4 8.2 8.3 8.5 8.2 9.3 8.2 9.1 8.15 8.5 8.0 8.4 8.0 8.3 7.95 6.55 7.55 6.3 7.5 6.1 7.45 6.1 7.5 5.7 7.85 5.65 7.9 5.6 8.05 5.5 8.05 4.2 9.3 4.85 9.65 6.2 10.15 6.4 10.15 6.7 10.1 6.7 10.15 6.8 10.15 7.1 10.0 7.15 10.0 7.25 9.9 7.35 9.9 7.35 9.8 7.4 9.8 7.4 9.65 7.5 9.6 7.4 9.25 7.45 9.2 7.4 9.1 7.25 8.9 7.4 8.9 7.5 9.0 7.6 9.65 7.55 9.8 7.6 9.85 7.55 9.9 7.5 9.9 7.45 10.0 7.35 10.15 7.4 10.15 8.35 10.2 9.5 10.05 9.55 10.15 9.65 10.25 8.6 10.4 7.5 10.4 7.05 10.3 7.35 10.15 7.3 10.15 6.85 10.35 6.8 10.3 6.6 10.35 6.05 10.35 5.45 10.15 4.0 9.45 3.95 9.5 M1.65 4.55 L1.6 4.4 1.65 4.4 1.8 4.5 1.75 4.65 1.65 4.55 M3.15 1.8 L3.2 1.7 3.65 3.2 4.0 4.05 4.0 3.85 4.2 1.65 4.25 1.7 5.4 6.0 3.95 4.5 3.95 4.4 3.95 4.3 3.1 1.95 3.15 1.8 M14.35 8.05 L14.25 7.95 14.3 7.9 14.55 7.9 14.9 7.9 14.85 8.0 14.7 8.0 14.35 8.05 M15.8 5.95 L15.9 6.15 15.65 6.4 15.6 6.55 16.1 6.05 15.95 6.15 15.9 6.0 15.9 5.85 15.85 5.8 15.8 5.95 M16.0 9.2 L16.2 9.15 16.25 9.15 16.35 9.1 16.5 9.05 16.45 9.15 16.2 9.35 15.55 9.75 14.45 10.2 13.95 9.9 12.45 9.0 12.15 8.85 12.15 8.8 12.1 8.75 11.25 8.6 10.5 8.6 10.05 8.75 9.95 8.8 9.95 8.9 9.65 9.1 9.7 9.15 9.45 9.45 9.55 9.5 9.5 9.6 9.55 9.65 9.55 9.75 9.6 9.75 9.7 9.95 9.8 9.9 9.9 10.1 10.0 10.2 10.25 10.35 10.3 10.3 10.55 10.4 11.95 10.55 12.65 10.5 12.95 10.45 13.55 10.25 14.1 10.25 13.85 10.35 13.15 10.65 12.55 10.75 10.7 10.65 10.15 10.5 10.1 10.5 10.0 10.45 9.75 10.25 9.6 10.1 9.55 10.0 9.5 10.0 9.45 9.9 9.4 9.7 9.35 9.65 9.35 9.4 9.45 9.2 9.45 9.15 9.55 9.0 9.7 8.85 9.9 8.75 9.9 8.7 10.15 8.55 10.4 8.5 11.6 8.55 12.1 8.65 12.3 8.85 12.45 8.85 12.85 9.1 12.9 9.15 13.1 9.3 12.95 9.25 13.95 9.9 14.3 10.05 16.0 9.2 M12.7 8.9 L12.6 8.85 12.75 8.85 12.7 8.9 M11.15 7.7 L10.7 7.8 11.05 7.6 11.15 7.7 M3.1 2.0 L3.05 2.15 3.0 2.4 2.6 2.95 2.6 3.05 2.25 3.6 2.05 4.7 2.1 4.7 2.05 5.15 1.75 5.2 2.0 3.9 2.0 3.85 2.1 3.4 2.4 2.85 3.05 2.1 3.1 2.0 M8.0 8.55 L8.1 8.4 8.1 8.5 8.0 8.55 M3.6 6.55 L2.05 5.95 2.05 6.1 2.15 6.35 2.35 6.65 2.45 6.75 2.6 6.85 2.75 6.85 2.75 6.9 3.0 6.85 3.2 6.75 3.25 6.8 3.4 6.7 3.5 6.6 3.55 6.6 3.6 6.55" fill="#7f6600" fill-rule="evenodd" stroke="none"/>
    <path d="M9.3 3.4 L10.0 4.05 12.25 1.7 12.25 1.8 14.6 1.8 14.4 1.85 11.0 5.3 11.1 5.3 14.6 8.8 14.3 8.7 12.5 8.7 12.45 8.75 10.0 6.25 8.8 7.5 7.9 6.25 7.9 6.15 8.85 5.25 8.35 4.7 9.3 3.4 M5.3 1.8 L7.6 1.8 7.6 1.7 9.25 3.35 7.35 3.7 5.55 1.85 5.3 1.8 M8.3 7.95 L7.5 8.75 7.45 8.7 5.6 8.7 5.35 8.8 6.55 7.55 8.3 7.95" fill="#c8c8c8" fill-rule="evenodd" stroke="none"/>
    <path d="M7.25 3.7 L5.3 1.8 4.95 1.55 7.7 1.55 10.0 3.85 12.15 1.55 14.95 1.55 14.6 1.8 11.15 5.3 11.35 5.25 14.55 8.4 14.85 8.8 14.9 8.85 14.8 8.85 14.6 8.8 12.4 8.8 10.0 6.4 8.85 7.5 8.8 7.5 10.0 6.25 12.45 8.75 12.5 8.7 14.3 8.7 14.6 8.8 11.1 5.3 11.0 5.3 14.4 1.85 14.6 1.8 12.25 1.8 12.25 1.7 10.0 4.05 9.3 3.4 9.35 3.35 9.35 3.3 9.25 3.35 7.6 1.7 7.6 1.8 5.3 1.8 5.55 1.85 7.35 3.7 7.25 3.7 M8.35 4.7 L8.85 5.25 7.9 6.15 7.8 6.0 8.6 5.2 8.75 5.25 8.25 4.75 8.35 4.7 M8.4 8.0 L7.55 8.85 7.55 8.8 5.35 8.8 5.6 8.7 7.45 8.7 7.5 8.75 8.3 7.95 8.4 8.0 M5.1 8.7 L6.3 7.5 6.55 7.55 5.35 8.8 5.1 8.85 4.95 8.85 5.1 8.7" fill="#646464" fill-rule="evenodd" stroke="none"/>
  </g>
</svg>
