<?xml version="1.0" encoding="UTF-8" standalone="no"?>
<svg xmlns:ffdec="https://www.free-decompiler.com/flash" xmlns:xlink="http://www.w3.org/1999/xlink" ffdec:objectType="shape" height="9.7px" width="17.5px" xmlns="http://www.w3.org/2000/svg">
  <g transform="matrix(1.0, 0.0, 0.0, 1.0, -1.55, -1.35)">
    <path d="M14.35 8.45 L14.35 8.35 14.9 8.35 14.9 8.5 14.9 8.6 14.95 8.85 15.0 8.9 15.05 9.1 15.15 9.2 15.3 9.45 15.45 9.55 15.65 9.65 15.75 9.65 15.85 9.7 16.05 9.65 16.25 9.65 16.1 9.7 16.1 9.75 15.75 9.9 15.5 10.05 14.65 10.35 14.15 10.4 14.45 10.55 14.05 10.6 13.55 10.55 13.45 10.6 13.45 10.55 13.35 10.55 12.8 10.7 11.1 10.6 10.5 10.45 10.0 10.25 10.0 10.2 9.75 9.95 9.65 9.8 9.6 9.8 9.6 9.7 9.5 9.65 9.5 9.55 9.45 9.5 9.5 9.35 9.45 9.3 9.7 9.05 9.7 9.0 9.85 8.9 9.8 8.85 10.1 8.75 10.15 8.75 10.15 8.7 10.5 8.65 10.8 8.65 11.65 8.8 12.25 9.05 13.05 9.65 12.8 9.35 12.7 9.2 12.65 9.15 12.8 9.05 14.7 9.2 14.85 9.2 14.45 8.65 14.35 8.45 M12.8 6.7 L12.3 6.0 12.15 5.9 12.4 5.55 14.3 5.9 14.3 5.95 12.8 6.7 M12.25 4.35 L12.95 3.65 13.8 3.8 15.7 1.6 15.95 4.3 15.95 4.45 16.0 4.5 15.95 4.6 15.9 4.85 15.9 5.1 15.85 5.15 15.85 5.3 15.9 5.5 15.95 5.7 16.0 5.85 14.35 5.95 14.3 5.9 12.25 4.35 M15.15 7.7 L14.3 5.95 14.35 5.95 15.95 6.6 15.75 6.75 15.65 6.9 15.6 6.85 15.25 7.45 15.15 7.7 M16.25 6.4 L16.1 5.3 16.0 5.2 17.05 2.25 17.1 2.4 17.75 3.25 18.05 3.75 18.2 4.25 18.15 4.25 18.35 5.3 18.15 5.55 16.85 6.2 16.4 6.35 16.3 6.35 16.25 6.4 M17.65 8.7 L17.6 8.75 17.55 8.75 17.6 8.7 17.65 8.7 M4.25 8.95 L4.1 9.05 5.3 5.8 6.1 7.2 5.75 7.55 5.7 7.6 5.6 7.7 5.55 7.75 5.6 7.75 5.6 7.7 5.8 7.75 5.75 7.8 5.3 8.35 5.15 8.5 5.25 8.5 7.4 8.65 7.5 8.8 7.45 8.85 7.55 9.0 7.6 9.2 7.6 9.55 7.55 9.55 7.5 9.7 7.35 9.7 7.3 9.75 7.25 9.75 7.2 9.8 7.15 9.75 6.95 9.85 6.9 9.85 6.9 9.75 6.65 9.85 6.45 9.8 6.45 9.75 5.9 9.6 4.75 8.95 4.5 8.75 4.3 8.95 4.25 8.95 M3.3 7.9 L3.25 7.85 3.15 7.7 4.1 7.75 4.1 8.4 3.45 7.95 3.3 7.9 M2.35 4.45 L2.35 4.25 2.4 4.3 2.4 4.45 2.35 4.45 M3.55 1.8 L3.65 1.7 4.2 3.6 4.15 4.25 5.3 5.8 1.55 5.15 2.4 4.85 2.65 4.8 2.65 4.7 2.9 3.55 3.05 3.1 3.0 3.05 3.05 3.0 3.35 2.6 3.35 2.55 3.5 1.95 3.55 1.8 M18.85 5.7 L18.85 5.6 19.05 5.7 18.85 5.7 M18.85 5.2 L18.6 5.6 18.55 6.3 18.45 6.3 18.4 6.75 18.2 7.25 17.85 7.9 17.55 8.3 16.9 9.0 16.65 9.2 16.4 9.3 15.95 9.4 15.7 9.35 15.6 9.3 15.5 9.35 15.35 9.05 15.3 9.1 15.2 8.75 15.1 8.75 15.1 8.6 15.15 8.35 15.1 8.35 15.1 8.25 15.25 7.9 15.6 7.35 15.55 7.3 15.75 7.0 15.95 6.8 16.15 6.65 17.6 5.95 18.85 5.2 M9.25 9.65 L9.25 9.75 9.3 9.85 9.4 10.0 8.9 10.05 7.45 9.95 7.6 9.8 7.6 9.75 7.65 9.45 7.6 9.2 7.65 9.2 7.6 9.1 7.6 8.75 7.55 8.7 7.7 8.7 7.85 8.55 7.95 8.5 8.0 8.4 8.7 8.3 8.7 8.25 9.3 8.25 9.55 8.3 9.75 8.4 9.9 8.4 10.1 8.5 9.7 8.7 9.4 9.0 9.35 9.1 9.25 9.3 9.25 9.65 M8.65 7.4 L9.1 8.15 5.3 5.8 4.35 1.55 6.1 3.8 7.25 3.6 7.35 3.6 9.15 3.3 8.25 4.55 8.2 4.6 7.4 5.6 7.8 6.15 7.85 6.2 8.65 7.4 M10.7 7.85 L10.9 7.6 11.0 7.7 10.7 7.85 M2.8 5.9 L2.75 5.75 4.0 6.25 4.0 6.3 3.95 6.25 3.85 6.4 3.75 6.35 3.65 6.45 3.6 6.4 3.45 6.45 3.4 6.4 3.2 6.45 3.15 6.35 3.05 6.3 3.1 6.25 2.95 6.15 2.8 5.9 M3.7 6.65 L4.0 6.5 4.1 6.35 4.1 7.7 3.9 7.7 3.8 7.6 3.4 6.95 3.3 6.75 3.7 6.65" fill="#ffcc00" fill-rule="evenodd" stroke="none"/>
    <path d="M14.35 8.35 L14.3 8.25 14.4 8.2 14.9 8.25 14.9 8.35 14.35 8.35 M13.6 7.35 L12.8 6.7 14.3 5.95 14.3 5.9 12.4 5.55 12.35 5.5 11.8 4.75 12.25 4.35 14.3 5.9 14.35 5.95 16.0 5.85 15.95 5.7 15.95 5.5 15.9 5.5 15.9 5.1 15.95 4.75 16.15 4.25 16.2 4.15 17.0 1.95 17.05 2.05 17.05 2.0 17.2 2.25 17.8 3.0 17.85 3.05 17.95 3.2 18.25 3.8 18.4 4.3 18.55 5.1 18.35 5.3 18.15 4.25 18.2 4.25 18.05 3.75 17.75 3.25 17.1 2.4 17.05 2.25 16.0 5.2 16.1 5.3 16.25 6.4 16.1 6.4 16.0 5.95 15.95 6.0 15.95 6.1 16.05 6.45 15.95 6.6 14.35 5.95 14.3 5.95 15.15 7.7 15.05 7.85 14.9 8.2 14.85 8.15 14.65 8.2 13.8 7.3 13.6 7.35 M19.05 5.7 L18.85 5.75 18.85 5.7 19.05 5.7 M17.8 8.6 L17.65 8.7 17.6 8.7 17.7 8.6 17.8 8.6 M11.3 10.85 L11.1 10.85 10.85 10.8 11.3 10.85 10.85 10.8 10.3 10.65 10.0 10.5 9.75 10.3 9.65 10.2 9.5 10.0 9.45 9.95 9.4 9.95 9.3 9.65 9.25 9.65 9.3 9.45 9.3 9.3 9.4 9.15 9.35 9.1 9.45 9.05 9.65 8.85 9.65 8.8 9.9 8.65 10.15 8.55 10.85 8.55 11.75 8.7 12.0 8.8 12.2 9.0 12.45 9.05 12.6 9.15 12.7 9.25 12.7 9.2 12.8 9.35 13.05 9.65 12.25 9.05 11.65 8.8 10.8 8.65 10.5 8.65 10.15 8.7 10.15 8.75 10.1 8.75 9.8 8.85 9.85 8.9 9.7 9.0 9.7 9.05 9.45 9.3 9.5 9.35 9.45 9.5 9.5 9.55 9.5 9.65 9.6 9.7 9.6 9.8 9.65 9.8 9.75 9.95 10.0 10.2 10.0 10.25 10.5 10.45 11.1 10.6 12.8 10.7 13.35 10.55 13.45 10.55 13.45 10.6 13.55 10.55 14.05 10.6 13.7 10.7 13.5 10.8 12.9 10.95 11.3 10.85 M4.1 9.05 L4.1 8.9 4.1 8.75 3.9 8.55 3.45 7.95 4.1 8.4 4.1 7.75 3.15 7.7 3.05 7.6 3.5 7.6 2.9 6.55 3.05 6.65 3.15 6.65 3.15 6.7 3.25 6.7 3.3 6.75 3.4 6.95 3.8 7.6 3.9 7.7 4.1 7.7 4.1 6.35 4.0 6.5 3.7 6.65 3.6 6.6 3.6 6.65 3.15 6.65 3.1 6.6 3.0 6.55 2.7 6.25 2.55 6.0 2.45 5.6 2.4 5.55 1.55 5.15 5.3 5.8 4.15 4.25 4.2 3.6 3.65 1.7 3.7 1.6 4.25 3.35 4.25 3.25 4.35 1.55 5.3 5.8 9.1 8.15 8.95 8.1 8.5 7.95 8.35 7.9 8.2 7.85 6.6 7.35 6.45 7.3 6.3 7.25 6.1 7.2 5.3 5.8 4.1 9.05 M2.35 4.25 L2.3 4.15 2.35 4.1 2.45 4.15 2.4 4.3 2.35 4.25 M18.85 5.2 L18.85 5.35 18.75 6.3 18.55 7.0 18.45 7.25 18.45 7.3 18.15 7.8 18.1 7.8 17.25 9.0 16.9 9.3 16.65 9.45 16.25 9.6 15.65 9.6 15.4 9.45 15.35 9.4 15.3 9.4 15.15 9.2 15.05 8.9 15.0 8.9 14.95 8.7 14.95 8.5 14.9 8.5 14.95 8.25 15.15 7.75 15.55 7.05 16.0 6.6 16.15 6.5 16.25 6.4 16.3 6.35 16.4 6.35 16.85 6.2 18.15 5.55 18.35 5.3 18.95 4.95 18.85 5.2 17.6 5.95 16.15 6.65 15.95 6.8 15.75 7.0 15.55 7.3 15.6 7.35 15.25 7.9 15.1 8.25 15.1 8.35 15.15 8.35 15.1 8.6 15.1 8.75 15.2 8.75 15.3 9.1 15.35 9.05 15.5 9.35 15.6 9.3 15.7 9.35 15.95 9.4 16.4 9.3 16.65 9.2 16.9 9.0 17.55 8.3 17.85 7.9 18.2 7.25 18.4 6.75 18.45 6.3 18.55 6.3 18.6 5.6 18.85 5.2 M16.25 9.65 L16.8 9.45 16.4 9.8 15.9 10.1 15.45 10.3 15.4 10.25 15.0 10.45 14.6 10.55 14.45 10.55 14.5 10.6 14.0 10.7 14.45 10.55 14.15 10.4 14.65 10.35 15.5 10.05 15.75 9.9 16.1 9.75 16.1 9.7 16.25 9.65 M9.4 10.0 L9.45 10.05 9.6 10.25 8.95 10.3 7.9 10.25 7.55 10.15 7.4 10.15 7.15 10.05 7.2 10.05 7.35 10.0 7.45 9.95 8.9 10.05 9.4 10.0 M7.6 9.8 L7.45 9.85 7.4 9.95 7.35 9.95 7.05 10.05 6.9 10.1 6.9 10.05 6.65 10.1 6.2 10.0 6.2 9.95 6.05 9.95 6.05 9.9 5.4 9.65 4.7 9.25 4.3 8.95 4.5 8.75 4.75 8.95 5.9 9.6 6.45 9.75 6.45 9.8 6.65 9.85 6.9 9.75 6.9 9.85 6.95 9.85 7.15 9.75 7.2 9.8 7.25 9.75 7.3 9.75 7.35 9.7 7.5 9.7 7.55 9.55 7.6 9.55 7.6 9.2 7.55 9.0 7.45 8.85 7.5 8.8 7.4 8.65 7.55 8.7 7.6 8.75 7.6 9.1 7.65 9.2 7.6 9.2 7.65 9.45 7.6 9.75 7.6 9.8 M12.65 9.15 L12.6 9.1 12.65 9.05 12.8 9.05 12.65 9.15 M9.1 8.15 L9.65 8.2 10.05 8.35 10.05 8.4 10.2 8.45 10.25 8.5 10.1 8.5 9.9 8.4 9.75 8.4 9.55 8.3 9.3 8.25 8.7 8.25 8.7 8.3 8.0 8.4 8.2 8.2 8.45 8.2 8.45 8.15 8.5 8.15 9.1 8.15 M11.0 7.7 L11.05 7.8 10.7 7.85 11.0 7.7 M3.5 1.95 L3.35 2.55 3.35 2.6 3.05 3.0 3.0 3.05 3.05 3.1 2.9 3.55 2.65 4.7 2.65 4.8 2.4 4.85 2.4 4.8 2.5 3.95 2.75 3.1 2.9 2.8 3.5 1.95 M2.8 5.9 L2.95 6.15 3.1 6.25 3.05 6.3 3.15 6.35 3.2 6.45 3.4 6.4 3.45 6.45 3.6 6.4 3.65 6.45 3.75 6.35 3.85 6.4 3.95 6.25 4.0 6.3 4.0 6.25 2.75 5.75 2.8 5.9 M7.85 8.55 L8.0 8.4 7.95 8.5 7.85 8.55 M5.8 7.75 L5.6 7.7 5.6 7.75 5.55 7.75 5.6 7.7 5.7 7.6 5.9 7.65 5.8 7.75" fill="#7f6600" fill-rule="evenodd" stroke="none"/>
    <path d="M11.05 5.3 L14.7 1.75 14.95 1.65 12.05 1.6 12.05 1.65 9.85 3.9 9.9 3.7 7.75 1.45 7.65 1.55 5.15 1.5 5.1 1.4 5.15 1.35 7.95 1.4 10.0 3.6 12.05 1.45 15.15 1.5 13.1 3.55 13.8 3.7 15.65 1.55 15.7 1.6 13.8 3.8 12.95 3.65 12.25 4.35 11.8 4.75 11.45 5.15 12.15 5.85 12.35 5.5 12.4 5.55 12.15 5.9 12.3 6.0 12.8 6.7 13.6 7.35 14.4 8.2 14.3 8.25 14.35 8.35 14.35 8.45 11.3 5.25 11.05 5.3 M5.25 1.6 L5.45 1.7 7.25 3.6 6.1 3.8 4.35 1.55 4.7 1.5 6.4 3.65 7.05 3.55 5.25 1.6 M15.15 7.7 L15.25 7.45 15.6 6.85 15.65 6.9 15.75 6.75 15.95 6.6 16.05 6.45 15.95 6.1 15.95 6.0 16.0 5.95 16.1 6.4 16.25 6.4 16.15 6.5 16.0 6.6 15.55 7.05 15.15 7.75 14.95 8.25 14.9 8.5 14.95 8.5 14.95 8.7 15.0 8.9 15.05 8.9 15.15 9.2 15.3 9.4 15.35 9.4 15.4 9.45 15.65 9.6 16.25 9.6 16.65 9.45 16.9 9.3 17.25 9.0 18.1 7.8 18.15 7.8 18.45 7.3 18.45 7.25 18.55 7.0 18.75 6.3 18.85 5.35 18.85 5.2 18.95 4.95 18.35 5.3 18.55 5.1 18.4 4.3 18.25 3.8 17.95 3.2 17.85 3.05 17.8 3.0 17.2 2.25 17.05 2.0 17.05 2.05 17.0 1.95 16.2 4.15 16.15 4.25 15.95 4.75 15.9 5.1 15.9 5.5 15.95 5.5 15.95 5.7 15.9 5.5 15.85 5.3 15.85 5.15 15.9 5.1 15.9 4.85 15.95 4.6 16.0 4.5 15.95 4.45 15.95 4.3 16.05 4.35 17.0 1.8 18.1 3.3 18.35 3.85 18.6 5.1 18.95 4.9 18.95 4.95 18.85 5.5 18.95 5.5 19.05 5.7 18.85 5.6 18.85 5.7 18.85 5.75 18.8 6.35 18.65 6.9 18.35 7.6 17.9 8.3 17.7 8.55 17.8 8.6 17.7 8.6 17.6 8.7 17.55 8.75 17.6 8.75 17.4 8.95 17.25 9.15 17.1 9.2 16.65 9.7 16.2 10.0 14.95 10.55 14.1 10.75 13.7 10.8 13.05 11.0 12.3 11.05 11.3 10.85 12.9 10.95 13.5 10.8 13.7 10.7 14.05 10.6 14.45 10.55 14.0 10.7 14.5 10.6 14.45 10.55 14.6 10.55 15.0 10.45 15.4 10.25 15.45 10.3 15.9 10.1 16.4 9.8 16.8 9.45 16.25 9.65 16.05 9.65 15.85 9.7 15.75 9.65 15.65 9.65 15.45 9.55 15.3 9.45 15.15 9.2 15.05 9.1 15.0 8.9 14.95 8.85 14.9 8.6 14.9 8.5 14.9 8.35 14.9 8.25 14.4 8.2 14.65 8.2 14.85 8.15 14.9 8.2 15.05 7.85 15.15 7.7 M10.85 10.8 L10.1 10.65 9.75 10.35 9.65 10.3 9.05 10.35 7.55 10.25 7.25 10.2 7.05 10.05 7.0 10.15 6.45 10.1 6.2 10.05 6.05 10.0 5.4 9.65 4.55 9.2 4.25 8.95 4.3 8.95 4.7 9.25 5.4 9.65 6.05 9.9 6.05 9.95 6.2 9.95 6.2 10.0 6.65 10.1 6.9 10.05 6.9 10.1 7.05 10.05 7.35 9.95 7.4 9.95 7.45 9.85 7.6 9.8 7.45 9.95 7.35 10.0 7.2 10.05 7.15 10.05 7.4 10.15 7.55 10.15 7.9 10.25 8.95 10.3 9.6 10.25 9.45 10.05 9.4 10.0 9.3 9.85 9.25 9.75 9.25 9.65 9.3 9.65 9.4 9.95 9.45 9.95 9.5 10.0 9.65 10.2 9.75 10.3 10.0 10.5 10.3 10.65 10.85 10.8 M4.1 8.9 L3.3 7.9 3.45 7.95 3.9 8.55 4.1 8.75 4.1 8.9 M3.05 7.6 L3.05 7.55 3.15 7.5 3.4 7.55 3.1 7.1 2.75 6.35 2.6 6.25 2.45 5.95 2.4 5.55 2.45 5.6 2.55 6.0 2.7 6.25 3.0 6.55 3.1 6.6 3.15 6.65 3.6 6.65 3.6 6.6 3.7 6.65 3.3 6.75 3.25 6.7 3.15 6.7 3.15 6.65 3.05 6.65 2.9 6.55 3.5 7.6 3.05 7.6 M1.55 5.15 L2.35 4.85 2.35 4.45 2.4 4.45 2.4 4.3 2.45 4.15 2.35 4.1 2.45 4.1 2.45 4.05 2.6 3.4 2.8 2.9 3.55 1.8 3.5 1.95 2.9 2.8 2.75 3.1 2.5 3.95 2.4 4.8 2.4 4.85 1.55 5.15 M3.7 1.6 L3.75 1.6 3.75 1.65 4.25 3.25 4.25 3.35 3.7 1.6 M12.8 9.05 L12.65 9.05 12.6 9.1 12.65 9.15 12.7 9.2 12.7 9.25 12.6 9.15 12.45 9.05 12.2 9.0 12.0 8.8 11.75 8.7 10.85 8.55 10.15 8.55 9.9 8.65 9.65 8.8 9.65 8.85 9.45 9.05 9.35 9.1 9.4 9.0 9.7 8.7 10.1 8.5 10.25 8.5 10.2 8.45 10.05 8.4 10.05 8.35 9.65 8.2 9.1 8.15 8.65 7.4 8.8 7.5 9.85 6.4 9.85 6.3 12.25 8.9 14.5 9.1 14.6 9.1 14.7 9.2 12.8 9.05 M12.45 9.05 L12.55 9.1 12.6 9.05 12.45 9.05 M10.7 7.85 L10.85 7.55 9.95 6.55 9.0 7.45 9.3 7.9 9.15 8.1 9.45 8.1 10.1 8.3 10.3 8.5 10.85 8.5 11.3 8.55 11.9 8.7 11.05 7.8 11.0 7.7 10.9 7.6 10.7 7.85 M7.8 6.15 L7.4 5.6 8.2 4.6 8.25 4.65 8.75 5.25 8.6 5.2 7.8 6.0 7.8 6.15 M8.95 8.1 L9.1 8.15 8.5 8.15 8.5 8.1 8.95 8.1 M8.15 4.75 L7.65 5.45 7.85 5.75 8.5 5.1 8.15 4.75 M8.35 7.9 L8.5 7.95 8.3 8.15 8.45 8.15 8.45 8.2 8.2 8.2 8.0 8.4 7.85 8.55 7.7 8.7 7.55 8.7 8.35 7.9 M7.55 8.7 L7.4 8.65 5.25 8.5 5.15 8.5 5.3 8.35 5.75 7.8 5.8 7.75 5.9 7.65 5.7 7.6 5.75 7.55 5.95 7.6 6.3 7.25 6.45 7.3 5.25 8.5 5.5 8.45 7.45 8.6 7.55 8.7 M9.25 9.65 L9.25 9.3 9.35 9.1 9.4 9.15 9.3 9.3 9.3 9.45 9.25 9.65" fill="#000000" fill-rule="evenodd" stroke="none"/>
    <path d="M5.15 1.5 L7.65 1.55 7.75 1.45 9.9 3.7 9.85 3.9 12.05 1.65 12.05 1.6 14.95 1.65 14.7 1.75 11.05 5.3 10.8 5.35 14.45 1.85 12.1 1.8 9.85 4.15 9.85 4.0 9.15 3.3 7.6 1.6 7.5 1.75 5.45 1.7 5.25 1.6 5.15 1.5 M11.05 5.3 L11.3 5.25 14.35 8.45 14.45 8.65 14.85 9.2 14.7 9.2 14.6 9.1 12.8 7.2 12.95 7.25 11.05 5.3 M14.5 9.1 L12.25 8.9 9.85 6.3 9.85 6.4 8.8 7.5 8.65 7.4 9.85 6.25 9.8 6.15 12.3 8.85 14.2 9.0 14.5 9.1 M8.2 4.6 L8.25 4.55 8.85 5.25 8.75 5.25 8.25 4.65 8.2 4.6 M7.35 3.6 L7.25 3.6 5.45 1.7 5.7 1.85 7.35 3.6 M7.8 6.15 L7.8 6.0 8.6 5.2 8.75 5.25 7.8 6.15 M8.2 7.85 L8.35 7.9 7.55 8.7 7.45 8.6 5.5 8.45 5.25 8.5 6.45 7.3 6.6 7.35 5.6 8.4 7.4 8.5 7.45 8.6 8.2 7.85" fill="#646464" fill-rule="evenodd" stroke="none"/>
    <path d="M5.45 1.7 L7.5 1.75 7.6 1.6 9.15 3.3 9.85 4.0 9.85 4.15 12.1 1.8 14.45 1.85 10.8 5.35 11.05 5.3 12.95 7.25 12.8 7.2 14.6 9.1 14.5 9.1 14.2 9.0 12.3 8.85 9.8 6.15 9.85 6.25 8.65 7.4 7.85 6.2 7.8 6.15 8.75 5.25 8.85 5.25 8.25 4.55 9.15 3.3 7.35 3.6 5.7 1.85 5.45 1.7 M6.6 7.35 L8.2 7.85 7.45 8.6 7.4 8.5 5.6 8.4 6.6 7.35" fill="#c8c8c8" fill-rule="evenodd" stroke="none"/>
  </g>
</svg>
