<?xml version="1.0" encoding="UTF-8" standalone="no"?>
<svg xmlns:ffdec="https://www.free-decompiler.com/flash" xmlns:xlink="http://www.w3.org/1999/xlink" ffdec:objectType="shape" height="9.95px" width="16.9px" xmlns="http://www.w3.org/2000/svg">
  <g transform="matrix(1.0, 0.0, 0.0, 1.0, -2.35, -1.3)">
    <path d="M14.2 8.7 L14.2 8.6 14.2 8.55 14.65 8.55 14.6 8.5 13.7 7.55 13.55 7.55 13.5 7.55 13.0 7.15 12.65 6.85 14.05 6.1 14.95 7.95 14.75 8.5 14.75 8.55 15.0 8.0 15.45 7.3 15.85 6.9 16.25 6.7 16.1 6.75 16.0 6.75 15.95 6.65 15.8 5.55 15.85 5.2 15.8 5.25 16.05 4.5 16.45 3.6 16.95 2.05 17.9 3.35 18.05 3.6 18.5 4.85 18.6 5.5 18.45 5.55 18.15 4.3 17.85 3.6 16.95 2.4 16.95 2.55 16.6 3.6 16.25 4.4 16.35 4.45 16.1 5.05 16.0 5.65 16.05 6.1 16.1 6.1 16.25 6.7 16.55 6.6 18.15 5.85 18.3 5.7 18.45 5.6 18.6 5.55 18.9 5.35 18.75 6.25 18.8 6.2 18.85 6.1 19.25 6.1 18.85 6.2 18.8 6.2 18.75 6.75 18.7 6.75 18.65 7.2 18.1 8.35 17.85 8.7 17.8 8.7 17.2 9.5 16.85 9.8 16.8 9.8 16.4 10.0 16.25 10.05 15.75 10.15 15.7 10.1 15.7 10.05 15.4 10.05 15.3 10.0 15.15 9.8 15.1 9.85 14.95 9.6 14.8 9.25 14.8 9.1 14.75 9.05 14.75 8.95 14.8 8.65 14.75 8.6 14.75 8.55 14.7 8.7 14.2 8.7 M11.75 4.8 L12.1 4.45 14.05 6.1 12.35 5.65 11.75 4.8 M4.5 8.65 L4.5 8.3 4.5 8.2 4.05 7.6 4.5 7.95 4.5 7.5 3.95 7.45 3.8 7.25 3.75 7.15 4.15 7.2 3.75 6.3 3.95 6.35 4.1 6.35 4.1 6.3 3.9 6.3 3.8 6.25 3.75 6.2 3.65 6.15 3.65 6.1 3.5 5.95 3.35 5.7 3.25 5.35 3.15 5.3 2.35 4.85 3.15 4.55 3.25 4.5 3.3 4.15 3.25 4.1 3.55 2.9 3.7 2.6 3.7 2.55 4.05 2.0 3.8 3.2 3.65 3.6 3.55 4.35 3.55 4.4 4.55 4.05 4.65 2.8 4.3 1.5 4.4 1.5 4.65 2.45 4.65 2.3 4.7 1.45 5.15 1.4 6.65 3.55 6.25 3.65 4.7 1.45 5.35 5.6 8.95 8.05 7.4 5.5 7.45 5.45 7.8 5.3 7.95 5.65 7.85 5.75 7.85 5.8 7.8 5.95 7.85 6.1 8.55 7.3 8.8 7.4 8.9 7.45 9.05 7.35 9.05 7.4 9.3 7.85 Q9.2 7.95 9.05 8.0 L8.95 8.05 9.15 8.1 9.15 8.05 9.45 8.1 10.05 8.3 10.35 8.55 10.25 8.5 10.15 8.55 10.0 8.4 9.35 8.2 9.3 8.25 8.8 8.2 8.8 8.25 8.7 8.25 8.35 8.3 8.35 8.35 8.15 8.4 8.15 8.5 7.95 8.55 7.95 8.65 7.75 8.75 7.7 8.6 7.65 8.5 7.75 8.55 7.9 8.5 8.25 8.15 8.35 8.15 8.4 8.1 8.95 8.05 8.8 8.0 8.55 7.9 8.35 7.8 8.15 7.75 6.8 7.2 6.6 7.1 6.5 7.1 6.4 7.05 6.25 7.0 4.5 8.65 M3.2 3.95 L3.2 3.9 3.25 3.9 3.2 3.95 M17.0 2.7 L17.0 2.75 16.7 3.6 16.6 3.6 17.0 2.7 M15.85 6.1 L15.85 6.35 15.95 6.8 15.8 6.9 14.05 6.1 15.85 6.1 M18.6 5.9 L18.7 5.75 16.25 6.85 15.7 7.25 15.75 7.3 15.35 7.75 15.2 8.0 15.25 8.05 15.1 8.25 14.95 8.75 15.0 8.8 15.0 9.15 15.1 9.15 15.15 9.4 15.2 9.55 15.3 9.7 15.4 9.7 15.4 9.8 15.45 9.75 15.65 9.8 15.65 9.85 15.9 9.85 16.35 9.75 16.35 9.65 16.45 9.75 16.7 9.6 17.3 8.95 17.4 8.95 18.15 7.75 18.3 7.35 18.4 7.35 18.5 6.9 18.6 5.9 M16.05 10.15 L16.4 10.1 16.7 9.95 17.0 9.75 16.55 10.2 16.55 10.15 16.45 10.25 16.4 10.25 16.15 10.4 15.55 10.65 14.3 11.0 14.15 11.0 13.8 11.05 14.3 10.95 14.15 10.85 13.95 10.75 14.7 10.6 14.75 10.7 15.75 10.3 16.05 10.15 M13.75 10.95 L13.05 11.15 12.65 11.2 11.6 11.1 10.9 10.95 10.85 10.85 10.35 10.7 10.0 10.55 9.9 10.45 9.65 10.25 9.5 10.1 9.4 9.95 9.35 9.85 9.3 9.65 9.25 9.6 9.25 9.5 9.2 9.45 9.25 9.35 9.2 9.3 9.4 9.05 9.4 9.0 9.55 8.85 9.55 8.8 9.6 8.85 9.85 8.7 9.9 8.65 9.9 8.6 10.3 8.6 10.3 8.55 10.35 8.55 10.4 8.55 10.85 8.6 11.75 8.85 11.9 9.05 11.6 8.95 11.6 9.0 11.05 8.8 10.5 8.7 10.5 8.75 10.0 8.75 10.0 8.8 9.9 8.85 9.85 8.9 9.7 8.95 9.7 9.0 9.6 9.1 9.6 9.2 9.5 9.3 9.55 9.35 9.5 9.45 9.55 9.55 9.5 9.65 9.6 9.7 9.6 9.75 9.65 9.9 9.7 10.0 10.1 10.3 10.5 10.5 11.7 10.75 12.15 10.8 12.15 10.9 12.3 10.95 12.5 10.9 13.0 10.85 13.5 10.9 13.7 10.95 13.75 10.95 M9.25 9.85 L9.45 10.15 9.5 10.2 9.35 10.2 8.25 10.1 8.2 10.05 7.9 10.0 7.4 9.85 7.55 9.8 7.55 9.75 7.6 9.7 7.55 9.7 7.5 9.75 7.45 9.75 7.3 9.8 7.2 9.85 7.1 9.8 6.9 9.8 6.7 9.75 6.45 9.65 5.8 9.3 5.05 8.75 4.8 8.5 5.15 8.15 5.2 8.2 5.2 8.4 5.4 8.65 6.25 9.2 6.75 9.4 6.8 9.35 7.0 9.45 7.1 9.4 7.15 9.5 7.2 9.45 7.25 9.5 7.3 9.45 7.55 9.6 7.55 9.5 7.7 9.5 7.75 9.35 7.8 9.35 7.8 9.45 7.75 9.55 7.9 9.6 7.9 9.7 8.9 9.85 9.25 9.85 M5.85 7.55 L5.9 7.5 6.05 7.35 6.25 7.4 6.1 7.55 5.9 7.5 5.9 7.55 5.85 7.55 M17.5 9.3 L17.5 9.25 17.6 9.15 17.75 9.15 17.5 9.3 M17.4 9.35 L17.4 9.4 17.25 9.55 17.4 9.35 M10.85 7.8 L10.9 7.85 10.7 7.9 10.85 7.8 M12.05 9.2 L12.25 9.2 12.5 9.4 12.5 9.25 12.8 9.3 12.55 9.5 12.65 9.65 12.05 9.2 M4.3 6.3 L4.1 6.35 4.5 7.05 4.5 6.2 4.3 6.3 M4.0 5.9 L4.15 6.05 4.25 6.0 4.4 6.1 4.45 6.0 4.0 5.75 3.85 5.85 3.9 5.95 4.0 5.9" fill="#7f6600" fill-rule="evenodd" stroke="none"/>
    <path d="M12.45 6.5 L11.35 5.25 11.0 5.35 14.7 1.7 11.8 1.65 11.8 1.8 9.7 4.05 9.75 3.9 9.8 3.8 9.95 3.65 7.95 1.4 7.75 1.45 7.7 1.55 7.65 1.55 5.5 1.45 5.5 1.35 5.55 1.3 8.2 1.35 10.0 3.5 11.8 1.65 11.95 1.5 15.05 1.55 13.0 3.6 13.85 3.8 13.7 3.95 12.85 3.75 12.1 4.45 11.75 4.8 11.45 5.15 12.15 5.95 12.1 6.0 12.2 6.1 12.45 6.5 M14.2 8.6 L14.15 8.55 14.2 8.55 13.0 7.15 13.5 7.55 13.55 7.55 14.35 8.5 14.6 8.5 14.65 8.55 14.2 8.55 14.2 8.6 M15.65 1.7 L15.8 1.65 16.05 4.4 16.95 1.95 18.0 3.35 18.25 3.8 18.55 4.8 18.65 5.45 18.95 5.3 18.9 5.8 19.25 5.95 19.25 6.1 18.85 6.0 18.85 6.1 18.8 6.2 18.75 6.25 18.9 5.35 18.6 5.55 18.45 5.6 18.3 5.7 18.45 5.55 18.6 5.5 18.5 4.85 18.05 3.6 17.9 3.35 16.95 2.05 16.45 3.6 16.05 4.5 15.8 5.25 15.85 5.2 15.8 5.55 15.95 6.65 16.0 6.75 16.1 6.75 16.25 6.7 15.85 6.9 15.45 7.3 15.0 8.0 14.75 8.55 14.75 8.5 14.95 7.95 15.4 7.25 15.5 7.15 15.8 6.9 15.95 6.8 15.85 6.35 15.85 6.1 15.8 5.85 15.75 5.7 15.75 5.25 15.9 4.7 15.65 1.7 M18.85 6.2 L18.75 7.1 18.6 7.6 17.8 8.85 17.6 9.1 17.75 9.1 17.75 9.15 16.7 10.15 16.4 10.35 15.2 10.85 14.2 11.1 13.5 11.1 12.85 11.25 12.05 11.25 10.8 10.95 10.2 10.75 9.75 10.45 9.6 10.25 8.45 10.2 7.75 10.05 7.3 9.85 7.15 9.9 6.95 9.9 6.35 9.7 6.05 9.55 5.0 8.8 4.75 8.55 4.5 8.65 6.25 7.0 6.4 7.05 6.1 7.3 6.25 7.35 6.5 7.1 6.6 7.1 5.65 8.15 7.5 8.45 7.65 8.5 5.5 8.15 5.5 8.1 6.1 7.55 6.25 7.4 6.05 7.35 5.9 7.5 5.85 7.55 5.8 7.55 5.15 8.15 4.8 8.5 5.05 8.75 5.8 9.3 6.45 9.65 6.7 9.75 6.9 9.8 7.1 9.8 7.2 9.85 7.3 9.8 7.45 9.75 7.5 9.75 7.55 9.7 7.6 9.7 7.55 9.75 7.55 9.8 7.4 9.85 7.9 10.0 8.2 10.05 8.25 10.1 9.35 10.2 9.5 10.2 9.45 10.15 9.25 9.85 9.15 9.6 9.2 9.45 9.25 9.5 9.25 9.6 9.3 9.65 9.35 9.85 9.4 9.95 9.5 10.1 9.65 10.25 9.9 10.45 10.0 10.55 10.35 10.7 10.85 10.85 10.9 10.95 11.6 11.1 12.65 11.2 13.05 11.15 13.75 10.95 14.3 10.95 13.8 11.05 14.15 11.0 14.3 11.0 15.55 10.65 16.15 10.4 16.4 10.25 16.45 10.25 16.55 10.15 16.55 10.2 17.0 9.75 16.7 9.95 16.4 10.1 16.05 10.15 15.75 10.15 16.25 10.05 16.4 10.0 16.8 9.8 16.85 9.8 17.2 9.5 17.8 8.7 17.85 8.7 18.1 8.35 18.65 7.2 18.7 6.75 18.75 6.75 18.8 6.2 18.85 6.2 M4.5 8.3 L4.05 7.6 4.5 8.2 4.5 8.3 M3.75 7.15 L3.85 7.1 3.9 7.1 4.05 7.15 3.65 6.25 3.4 6.0 3.25 5.65 3.15 5.3 3.25 5.35 3.35 5.7 3.5 5.95 3.65 6.1 3.65 6.15 3.75 6.2 3.8 6.25 3.9 6.3 4.1 6.3 4.1 6.35 4.3 6.3 4.25 6.35 4.1 6.35 3.95 6.35 3.75 6.3 4.15 7.2 3.75 7.15 M3.15 4.55 L3.2 4.1 3.2 3.95 3.25 3.9 3.45 2.9 3.5 2.8 3.55 2.6 4.15 1.8 4.05 2.0 3.7 2.55 3.7 2.6 3.55 2.9 3.25 4.1 3.3 4.15 3.25 4.5 3.15 4.55 M4.4 1.5 L4.45 1.55 4.65 2.3 4.65 2.45 4.4 1.5 M6.65 3.55 L7.2 3.45 5.5 1.45 5.8 1.7 7.2 3.4 7.3 3.5 6.25 3.65 6.65 3.55 M17.4 9.4 L17.5 9.3 17.75 9.15 17.6 9.15 17.5 9.25 17.4 9.35 17.25 9.55 17.4 9.4 M15.1 9.85 L15.15 9.8 15.3 10.0 15.4 10.05 15.25 10.0 15.1 9.85 15.0 9.75 14.9 9.6 14.7 9.1 14.65 8.85 14.7 8.7 14.75 8.55 14.75 8.6 14.8 8.65 14.75 8.95 14.75 9.05 14.8 9.1 14.8 9.25 14.95 9.6 15.1 9.85 M15.4 10.05 L15.7 10.05 15.7 10.1 15.75 10.15 15.6 10.15 15.55 10.1 15.4 10.05 M10.85 7.8 L10.8 7.75 9.85 6.6 9.05 7.4 9.05 7.35 8.9 7.45 8.8 7.4 9.75 6.45 9.65 6.25 12.0 9.1 14.2 9.45 14.6 9.55 12.8 9.3 12.5 9.25 12.5 9.4 12.25 9.2 12.05 9.2 11.9 9.05 11.75 8.85 10.85 8.6 10.4 8.55 10.35 8.55 10.3 8.55 10.3 8.6 9.9 8.6 9.9 8.65 9.85 8.7 9.6 8.85 9.55 8.8 9.55 8.85 9.4 9.0 9.4 9.05 9.2 9.3 9.25 9.35 9.2 9.45 9.15 9.4 9.2 9.3 9.3 9.1 9.35 8.95 9.55 8.8 9.8 8.6 9.95 8.55 10.15 8.55 10.25 8.5 10.35 8.55 10.05 8.3 9.45 8.1 9.15 8.05 9.15 8.1 8.95 8.05 8.4 8.1 8.35 8.15 8.25 8.15 7.9 8.5 7.75 8.55 7.65 8.5 8.35 7.8 8.55 7.9 8.4 8.05 8.35 8.1 8.4 8.1 8.45 8.05 8.4 8.05 8.8 8.0 8.95 8.05 9.05 8.0 9.95 8.2 10.2 8.3 10.4 8.55 10.55 8.5 11.7 8.8 10.9 7.85 10.85 7.8 M9.0 3.3 L9.15 3.25 8.85 3.55 9.0 3.3 M7.45 5.45 L8.15 4.5 8.2 4.4 8.15 4.55 8.6 5.15 7.8 5.95 7.85 5.8 7.85 5.75 7.95 5.65 8.5 5.05 8.25 4.7 7.8 5.3 7.45 5.45" fill="#000000" fill-rule="evenodd" stroke="none"/>
    <path d="M14.55 9.5 L14.35 9.2 14.15 8.75 14.2 8.7 14.7 8.7 14.65 8.85 14.7 9.1 14.9 9.6 15.0 9.75 15.1 9.85 15.25 10.0 15.4 10.05 15.55 10.1 15.6 10.15 15.75 10.15 16.05 10.15 15.75 10.3 14.75 10.7 14.7 10.6 13.95 10.75 14.15 10.85 14.3 10.95 13.75 10.95 13.7 10.95 13.5 10.9 13.0 10.85 12.5 10.9 12.3 10.95 12.15 10.9 12.15 10.8 11.7 10.75 10.5 10.5 10.1 10.3 9.7 10.0 9.65 9.9 9.6 9.75 9.6 9.7 9.5 9.65 9.55 9.55 9.5 9.45 9.55 9.35 9.5 9.3 9.6 9.2 9.6 9.1 9.7 9.0 9.7 8.95 9.85 8.9 9.9 8.85 10.0 8.8 10.0 8.75 10.5 8.75 10.5 8.7 11.05 8.8 11.6 9.0 11.6 8.95 11.9 9.05 12.05 9.2 12.65 9.65 12.55 9.5 12.8 9.3 14.6 9.55 14.55 9.5 M12.65 6.85 L12.45 6.5 12.2 6.1 12.1 6.0 12.15 5.95 12.35 5.65 14.05 6.1 12.1 4.45 12.85 3.75 13.7 3.95 13.85 3.8 15.65 1.7 15.9 4.7 15.75 5.25 15.75 5.7 15.8 5.85 15.85 6.1 14.05 6.1 15.8 6.9 15.5 7.15 15.4 7.25 14.95 7.95 14.05 6.1 12.65 6.85 M4.05 7.6 L3.95 7.45 4.5 7.5 4.5 7.95 4.05 7.6 M4.15 1.8 L4.2 1.7 4.15 1.75 4.3 1.5 4.65 2.8 4.55 4.05 3.55 4.4 3.55 4.35 3.65 3.6 3.8 3.2 4.05 2.0 4.15 1.8 M16.25 6.7 L16.1 6.1 16.05 6.1 16.0 5.65 16.1 5.05 16.35 4.45 16.25 4.4 16.6 3.6 16.95 2.55 16.95 2.4 17.85 3.6 18.15 4.3 18.45 5.55 18.3 5.7 18.15 5.85 16.55 6.6 16.25 6.7 M17.0 2.7 L16.6 3.6 16.7 3.6 17.0 2.75 17.0 2.7 M18.6 5.9 L18.5 6.9 18.4 7.35 18.3 7.35 18.15 7.75 17.4 8.95 17.3 8.95 16.7 9.6 16.45 9.75 16.35 9.65 16.35 9.75 15.9 9.85 15.65 9.85 15.65 9.8 15.45 9.75 15.4 9.8 15.4 9.7 15.3 9.7 15.2 9.55 15.15 9.4 15.1 9.15 15.0 9.15 15.0 8.8 14.95 8.75 15.1 8.25 15.25 8.05 15.2 8.0 15.35 7.75 15.75 7.3 15.7 7.25 16.25 6.85 18.7 5.75 18.6 5.9 M18.85 6.1 L18.85 6.0 19.25 6.1 18.85 6.1 M9.2 9.45 L9.15 9.6 9.25 9.85 8.9 9.85 7.9 9.7 7.9 9.6 7.75 9.55 7.8 9.45 7.8 9.35 7.75 9.35 7.7 9.5 7.55 9.5 7.55 9.6 7.3 9.45 7.25 9.5 7.2 9.45 7.15 9.5 7.1 9.4 7.0 9.45 6.8 9.35 6.75 9.4 6.25 9.2 5.4 8.65 5.2 8.4 5.2 8.2 5.15 8.15 5.8 7.55 5.85 7.55 5.9 7.55 5.9 7.5 6.1 7.55 5.5 8.1 5.5 8.15 7.65 8.5 7.7 8.6 7.75 8.75 7.95 8.65 7.95 8.55 8.15 8.5 8.15 8.4 8.35 8.35 8.35 8.3 8.7 8.25 8.8 8.25 8.8 8.2 9.3 8.25 9.35 8.2 10.0 8.4 10.15 8.55 9.95 8.55 9.8 8.6 9.55 8.8 9.35 8.95 9.3 9.1 9.2 9.3 9.15 9.4 9.2 9.45 M17.5 9.3 L17.4 9.4 17.4 9.35 17.5 9.25 17.5 9.3 M10.8 7.75 L10.85 7.8 10.7 7.9 10.8 7.75 M4.3 6.3 L4.5 6.2 4.5 7.05 4.1 6.35 4.25 6.35 4.3 6.3 M4.0 5.9 L3.9 5.95 3.85 5.85 4.0 5.75 4.45 6.0 4.4 6.1 4.25 6.0 4.15 6.05 4.0 5.9 M7.3 3.5 L7.45 3.5 9.0 3.3 8.85 3.55 8.2 4.4 8.15 4.5 7.45 5.45 7.4 5.5 8.95 8.05 5.35 5.6 4.7 1.45 6.25 3.65 7.3 3.5" fill="#ffcc00" fill-rule="evenodd" stroke="none"/>
    <path d="M9.7 4.05 L11.8 1.8 11.8 1.65 14.7 1.7 11.0 5.35 11.35 5.25 12.45 6.5 12.65 6.85 13.0 7.15 14.2 8.55 14.15 8.55 14.2 8.6 14.2 8.7 14.15 8.75 14.35 9.2 14.55 9.5 10.95 5.35 10.7 5.4 14.15 1.95 11.95 1.85 11.8 1.85 11.8 1.95 10.35 3.55 11.95 1.85 9.65 4.35 9.7 4.05 M5.5 1.45 L7.65 1.55 7.5 1.75 5.8 1.7 5.5 1.45 M7.7 1.55 L7.75 1.45 7.95 1.4 9.95 3.65 9.8 3.8 9.75 3.9 9.15 3.25 7.7 1.55 M7.65 8.5 L7.5 8.45 5.65 8.15 6.6 7.1 6.8 7.2 6.0 8.05 7.4 8.3 7.45 8.4 8.15 7.75 8.35 7.8 7.65 8.5 M14.2 9.45 L12.0 9.1 9.65 6.25 9.75 6.45 8.8 7.4 8.55 7.3 9.65 6.25 9.65 6.05 12.05 8.95 12.05 9.05 13.9 9.3 14.2 9.45 M5.8 1.7 L6.05 1.85 7.45 3.5 7.3 3.5 7.2 3.4 5.8 1.7 M7.8 5.95 L8.6 5.15 8.15 4.55 8.2 4.4 8.8 5.1 8.9 5.2 8.75 5.2 7.85 6.1 7.8 5.95" fill="#646464" fill-rule="evenodd" stroke="none"/>
    <path d="M9.7 4.05 L9.65 4.35 11.95 1.85 10.35 3.55 11.8 1.95 11.8 1.85 11.95 1.85 14.15 1.95 10.7 5.4 10.95 5.35 14.55 9.5 14.6 9.55 14.2 9.45 13.9 9.3 12.05 9.05 12.05 8.95 9.65 6.05 9.65 6.25 8.55 7.3 7.85 6.1 8.75 5.2 8.9 5.2 8.8 5.1 8.2 4.4 8.85 3.55 9.15 3.25 9.75 3.9 9.7 4.05 M7.65 1.55 L7.7 1.55 9.15 3.25 9.0 3.3 7.45 3.5 6.05 1.85 5.8 1.7 7.5 1.75 7.65 1.55 M8.15 7.75 L7.45 8.4 7.4 8.3 6.0 8.05 6.8 7.2 8.15 7.75" fill="#c8c8c8" fill-rule="evenodd" stroke="none"/>
  </g>
</svg>
