<?xml version="1.0" encoding="UTF-8" standalone="no"?>
<svg xmlns:ffdec="https://www.free-decompiler.com/flash" xmlns:xlink="http://www.w3.org/1999/xlink" ffdec:objectType="shape" height="10.25px" width="15.9px" xmlns="http://www.w3.org/2000/svg">
  <g transform="matrix(1.0, 0.0, 0.0, 1.0, -3.3, -1.25)">
    <path d="M11.45 1.9 L11.5 1.7 14.1 1.85 14.5 1.7 10.9 5.35 11.3 5.25 12.05 6.2 12.4 7.0 13.25 7.8 14.0 8.8 13.9 8.8 13.85 8.85 13.8 8.95 13.8 9.05 13.85 9.35 10.8 5.4 10.4 5.4 11.95 3.8 12.1 3.75 13.8 1.95 13.65 2.0 11.45 1.9 13.45 2.1 11.45 1.95 11.5 2.1 9.45 4.45 9.5 4.15 11.45 1.9 M8.35 1.35 L10.0 3.5 9.7 3.85 7.95 1.55 9.05 3.15 7.8 1.5 7.85 1.45 7.95 1.4 8.25 1.35 8.35 1.35 M6.8 2.55 L6.15 1.6 6.05 1.55 6.0 1.45 7.75 1.55 7.6 1.7 7.5 1.9 8.1 3.35 7.55 3.4 7.45 3.45 6.8 2.55 M13.75 9.75 L11.65 9.2 9.5 6.2 9.65 6.5 8.85 7.35 8.8 7.3 8.65 7.25 8.55 7.15 8.65 7.05 9.5 6.2 9.45 6.15 9.5 6.05 11.65 9.1 13.25 9.5 13.75 9.75 M7.7 8.35 L7.6 8.2 7.5 8.2 6.1 7.85 6.9 6.95 8.1 7.6 8.45 7.75 7.85 8.35 7.7 8.35 M8.2 4.3 L8.8 5.15 8.85 5.15 9.5 5.95 9.5 6.05 8.6 6.95 8.5 7.1 8.85 6.8 8.65 7.05 8.5 7.15 8.5 7.1 8.05 6.2 7.9 6.0 7.9 5.9 8.6 5.1 8.55 5.0 8.35 4.7 8.2 4.45 8.2 4.3" fill="#646464" fill-rule="evenodd" stroke="none"/>
    <path d="M11.45 1.9 L13.65 2.0 13.8 1.95 12.1 3.75 11.95 3.8 10.4 5.4 10.8 5.4 13.85 9.35 14.15 9.95 13.95 9.85 13.75 9.75 13.25 9.5 11.65 9.1 9.5 6.05 9.45 6.15 9.5 6.2 8.65 7.05 8.55 7.15 8.5 7.15 8.65 7.05 8.85 6.8 8.5 7.1 8.6 6.95 9.5 6.05 9.5 5.95 8.85 5.15 8.8 5.15 8.2 4.3 8.75 3.55 9.05 3.25 8.9 3.25 8.1 3.35 7.5 1.9 7.6 1.7 7.75 1.55 7.8 1.5 9.05 3.15 7.95 1.55 9.7 3.85 9.65 3.9 9.5 4.15 9.45 4.45 11.5 2.1 11.45 1.95 13.45 2.1 11.45 1.9" fill="#c8c8c8" fill-rule="evenodd" stroke="none"/>
    <path d="M13.8 9.05 L13.8 8.95 13.85 8.85 14.15 8.9 14.15 8.85 14.25 8.9 14.25 9.05 14.1 9.0 14.05 9.05 13.8 9.05 M13.25 7.8 L12.4 7.0 12.05 6.2 11.95 6.05 12.05 6.0 12.2 5.8 11.65 4.9 11.9 4.55 13.65 6.3 13.5 4.1 13.65 3.9 15.4 1.8 13.65 6.3 15.4 6.4 15.55 7.1 15.4 7.2 13.65 6.3 14.55 8.25 14.4 8.5 14.3 8.8 13.5 7.75 13.4 7.8 13.25 7.8 M16.5 2.55 L16.5 3.15 16.25 4.05 15.95 4.7 15.95 4.8 16.0 4.8 15.75 5.45 15.7 6.4 15.75 6.75 15.85 6.75 15.95 7.0 17.2 6.5 17.65 6.15 18.1 5.95 18.1 5.85 17.95 5.25 18.0 5.25 17.75 4.15 17.5 3.65 16.5 2.25 16.55 2.05 17.4 3.25 17.6 3.6 17.75 3.8 18.0 4.55 18.25 5.85 18.1 5.95 18.45 5.8 18.35 6.75 18.35 6.9 18.3 7.4 18.2 7.8 18.2 7.85 18.1 7.9 17.9 8.55 17.4 9.25 17.35 9.25 16.65 10.15 16.4 10.35 16.35 10.35 16.1 10.45 16.05 10.45 15.55 10.6 14.9 10.45 14.7 10.25 14.55 10.05 14.5 9.85 14.45 9.85 14.4 9.8 14.35 9.55 14.35 9.25 14.3 9.25 14.3 9.15 14.35 9.05 14.35 8.85 14.5 8.5 14.95 7.7 15.15 7.55 15.15 7.45 15.6 7.15 15.6 7.1 15.5 6.4 15.45 6.4 15.4 5.9 15.55 5.25 16.5 2.55 M18.9 6.6 L18.45 6.7 18.45 6.55 18.9 6.6 M4.75 7.15 L4.65 6.95 4.65 6.85 4.9 6.9 5.05 7.0 5.0 6.9 4.95 6.7 4.65 6.05 4.75 6.1 4.9 6.05 4.8 6.0 4.65 6.0 4.6 5.95 4.6 5.9 4.5 5.9 4.5 5.8 4.45 5.8 4.35 5.65 4.25 5.4 4.2 5.2 5.05 5.8 5.05 6.0 5.05 7.0 5.05 7.6 4.75 7.15 M3.3 4.55 L4.1 4.25 4.15 4.2 4.4 2.9 4.4 2.85 4.55 2.5 4.6 2.45 4.7 2.2 4.6 2.75 4.95 3.9 5.1 3.9 5.6 5.35 6.55 6.75 5.1 8.3 5.6 5.35 3.3 4.55 M5.1 1.4 L5.2 1.45 5.2 1.8 5.1 1.4 M5.2 1.4 L5.75 1.35 7.0 3.45 6.5 3.55 7.45 3.45 7.55 3.4 8.1 3.35 8.9 3.25 5.6 5.35 6.5 3.55 5.2 1.4 M18.2 6.8 L18.2 6.55 18.25 6.0 18.05 6.25 15.85 7.25 15.65 7.4 15.7 7.45 15.25 7.75 15.3 7.85 15.15 7.95 14.95 8.25 15.0 8.3 14.65 9.0 14.7 9.05 14.6 9.35 14.6 9.55 14.75 9.55 14.75 9.75 14.9 10.0 14.95 10.05 15.05 10.1 15.1 10.25 15.45 10.2 15.55 10.2 15.6 10.3 16.0 10.1 16.05 10.2 16.25 10.0 16.35 10.05 16.7 9.7 17.05 9.2 17.15 9.2 17.2 9.1 17.75 8.25 17.75 8.2 17.8 8.2 17.9 8.0 18.0 7.55 18.15 7.25 18.2 6.8 M15.6 7.1 L15.8 7.05 15.8 7.0 15.65 7.05 15.6 7.1 M17.05 9.85 L17.15 9.7 17.4 9.75 17.3 9.8 17.15 9.85 17.05 9.85 M17.15 9.9 L16.6 10.3 16.4 10.55 16.3 10.65 16.25 10.6 16.1 10.75 15.55 11.05 15.5 11.05 14.45 11.35 14.1 11.35 14.1 11.3 13.6 11.4 13.3 11.35 13.8 11.3 13.95 11.3 13.65 11.15 13.6 11.1 13.4 11.0 13.5 11.0 14.2 10.85 14.25 11.0 15.15 10.7 15.25 10.8 15.6 10.65 15.9 10.6 16.4 10.45 16.95 9.95 17.15 9.9 M13.35 11.25 L12.35 11.4 11.05 11.15 11.0 11.1 10.3 10.8 10.3 10.75 10.1 10.7 9.45 10.1 9.3 9.85 9.2 9.55 9.25 9.35 9.2 9.35 9.3 9.1 9.35 9.05 9.4 8.95 9.6 8.75 9.75 8.7 9.8 8.65 9.95 8.65 10.0 8.6 10.2 8.6 10.65 8.65 11.2 8.85 11.35 8.95 11.4 8.9 11.6 9.2 11.35 9.05 11.3 9.1 10.5 8.75 10.75 8.9 10.3 8.75 10.25 8.85 10.05 8.8 10.0 8.9 9.85 8.85 9.85 8.95 9.7 8.95 9.7 9.2 9.8 9.5 9.95 9.5 10.55 9.65 10.75 9.85 10.9 9.9 10.9 10.55 11.2 10.6 11.2 10.75 11.45 10.8 11.75 10.9 12.1 10.9 12.6 11.1 13.2 11.2 13.35 11.25 M11.7 9.3 L11.85 9.35 12.05 9.4 12.15 9.5 12.2 9.45 12.2 9.55 12.3 9.45 12.55 9.55 12.6 9.65 12.4 9.75 12.45 9.8 12.35 9.9 12.25 9.75 11.85 9.35 11.8 9.4 11.7 9.3 M8.85 7.35 L9.0 7.35 9.1 7.3 9.15 7.4 9.35 7.8 9.0 7.95 8.9 8.0 9.3 8.05 9.3 8.0 9.95 8.2 10.0 8.2 10.15 8.3 10.25 8.4 10.3 8.4 10.45 8.55 10.25 8.55 10.2 8.45 10.15 8.5 9.85 8.3 9.65 8.25 9.6 8.3 9.4 8.2 9.4 8.3 9.15 8.25 9.1 8.3 8.9 8.25 8.9 8.35 8.7 8.35 8.65 8.5 8.5 8.5 8.65 8.6 8.65 8.7 8.85 8.7 9.05 8.75 9.05 8.85 9.3 8.95 9.2 9.05 9.1 9.45 9.2 9.8 9.35 10.1 8.15 9.85 8.15 9.75 7.75 9.6 7.85 9.55 7.8 9.5 7.7 9.6 7.65 9.55 7.55 9.6 7.45 9.55 7.35 9.55 7.3 9.5 7.05 9.5 7.0 9.45 6.6 9.2 6.5 9.15 6.5 9.1 6.1 8.8 5.6 8.3 5.45 8.1 6.3 7.25 6.35 7.3 6.55 7.1 6.65 7.1 6.55 7.05 6.65 6.95 6.65 7.1 6.45 7.35 6.35 7.3 6.25 7.55 6.0 7.9 6.7 8.05 7.05 8.35 7.3 8.65 7.3 8.75 7.4 9.1 7.4 9.15 7.45 9.2 7.5 9.3 7.75 9.4 7.8 9.3 7.95 9.35 8.0 9.35 8.0 8.35 8.2 8.35 8.45 8.1 8.8 8.0 8.9 8.0 7.5 5.35 8.0 5.25 8.15 5.5 7.95 5.75 7.9 5.9 7.9 6.0 8.05 6.2 8.5 7.1 8.5 7.15 8.55 7.15 8.65 7.25 8.8 7.3 8.85 7.35 M4.95 6.0 L4.9 6.05 5.05 6.0 4.95 6.0" fill="#7f6600" fill-rule="evenodd" stroke="none"/>
    <path d="M12.05 6.2 L11.3 5.25 10.9 5.35 14.5 1.7 14.1 1.85 11.5 1.7 11.45 1.9 9.5 4.15 9.65 3.9 9.7 3.85 10.0 3.5 8.35 1.35 8.45 1.35 8.55 1.4 10.05 3.35 11.5 1.7 11.6 1.55 11.8 1.5 14.8 1.65 12.85 3.65 13.65 3.9 13.5 4.1 12.7 3.85 11.9 4.55 11.65 4.9 11.4 5.15 12.05 6.0 11.95 6.05 12.05 6.2 M13.85 8.85 L13.9 8.8 14.0 8.8 13.25 7.8 13.4 7.8 14.2 8.8 14.35 8.85 14.3 8.8 14.4 8.5 14.55 8.25 14.7 7.95 15.05 7.5 15.4 7.2 15.55 7.1 15.4 6.4 15.45 6.4 15.4 6.35 15.35 6.0 15.45 5.3 15.6 4.75 15.4 1.8 15.7 1.75 15.9 4.05 16.5 2.25 16.5 2.55 15.55 5.25 15.4 5.9 15.45 6.4 15.5 6.4 15.6 7.1 15.6 7.15 15.15 7.45 15.15 7.55 14.95 7.7 14.5 8.5 14.35 8.85 14.35 9.05 14.3 9.15 14.3 9.25 14.35 9.25 14.35 9.55 14.4 9.8 14.45 9.85 14.5 9.85 14.55 10.05 14.7 10.25 14.9 10.45 15.55 10.6 16.05 10.45 16.1 10.45 16.35 10.35 16.4 10.35 16.65 10.15 17.35 9.25 17.4 9.25 17.9 8.55 18.1 7.9 18.2 7.85 18.2 7.8 18.3 7.4 18.35 6.9 18.35 6.75 18.45 5.8 18.1 5.95 18.25 5.85 18.0 4.55 17.75 3.8 17.6 3.6 17.4 3.25 16.55 2.05 16.6 2.05 16.6 2.1 17.75 3.7 18.0 4.25 18.35 5.8 18.55 5.7 18.5 6.0 19.2 6.4 19.0 6.6 18.45 6.35 18.45 6.55 18.45 6.7 18.4 6.75 18.45 6.75 18.4 7.3 18.0 8.45 17.25 9.55 17.2 9.65 17.4 9.7 17.4 9.75 16.75 10.25 16.4 10.65 15.75 11.05 14.45 11.35 14.05 11.45 13.2 11.45 13.2 11.4 12.3 11.5 11.8 11.4 11.05 11.15 10.3 10.9 9.85 10.6 9.45 10.2 8.8 10.1 8.1 9.9 7.6 9.65 7.3 9.65 6.8 9.45 6.1 8.9 5.4 8.2 5.1 8.3 5.1 7.75 4.75 7.15 5.05 7.6 5.05 7.0 5.05 6.0 5.05 5.8 4.2 5.2 4.25 5.4 4.35 5.65 4.45 5.8 4.5 5.8 4.5 5.9 4.6 5.9 4.6 5.95 4.65 6.0 4.8 6.0 4.9 6.05 4.75 6.1 4.65 6.05 4.95 6.7 5.0 6.9 5.05 7.0 4.9 6.9 4.65 6.85 4.7 6.8 4.9 6.8 4.55 6.0 4.4 5.85 4.1 5.1 3.3 4.55 5.6 5.35 5.1 8.3 6.55 6.75 5.6 5.35 8.9 8.0 9.0 7.95 9.45 8.0 9.85 8.1 10.15 8.25 10.35 8.4 10.55 8.6 10.75 8.6 11.3 8.85 9.85 6.7 9.15 7.4 9.1 7.3 9.0 7.35 8.85 7.35 9.65 6.5 9.5 6.2 11.65 9.2 13.75 9.75 13.95 9.85 12.55 9.55 12.3 9.45 12.2 9.55 12.2 9.45 12.15 9.5 12.05 9.4 11.85 9.35 11.7 9.3 11.65 9.3 11.6 9.2 11.4 8.9 11.35 8.95 11.2 8.85 10.65 8.65 10.2 8.6 10.0 8.6 9.95 8.65 9.8 8.65 9.75 8.7 9.6 8.75 9.4 8.95 9.35 9.05 9.3 9.1 9.2 9.35 9.25 9.35 9.2 9.55 9.3 9.85 9.45 10.1 10.1 10.7 10.3 10.75 10.3 10.8 11.0 11.1 11.05 11.15 12.35 11.4 13.35 11.25 13.7 11.3 13.8 11.3 13.3 11.35 13.6 11.4 14.1 11.3 14.1 11.35 14.45 11.35 15.5 11.05 15.55 11.05 16.1 10.75 16.25 10.6 16.3 10.65 16.4 10.55 16.6 10.3 17.15 9.9 17.15 9.85 17.3 9.8 17.4 9.75 17.15 9.7 17.05 9.85 16.95 9.95 16.4 10.45 15.9 10.6 15.6 10.65 15.4 10.65 15.15 10.6 14.8 10.45 14.6 10.25 14.35 9.8 14.25 9.25 14.25 9.05 14.25 8.9 14.15 8.85 14.15 8.9 13.85 8.85 M17.65 6.15 L17.85 6.0 18.1 5.95 17.65 6.15 M4.1 4.25 L4.15 3.6 4.3 2.85 4.55 2.3 4.75 2.0 4.85 1.75 4.7 2.2 4.6 2.45 4.55 2.5 4.4 2.85 4.4 2.9 4.15 4.2 4.1 4.25 M7.0 3.45 L7.4 3.4 7.35 3.35 6.8 2.55 7.45 3.45 6.5 3.55 7.0 3.45 M6.0 1.45 L5.95 1.35 6.0 1.3 6.1 1.25 8.25 1.35 7.95 1.4 7.85 1.45 7.8 1.5 7.75 1.55 6.0 1.45 M15.6 7.1 L15.65 7.05 15.8 7.0 15.8 7.05 15.6 7.1 M10.25 8.55 L10.45 8.55 10.3 8.4 10.25 8.4 10.15 8.3 10.0 8.2 9.95 8.2 9.3 8.0 9.3 8.05 8.9 8.0 8.8 8.0 8.45 8.1 8.2 8.35 8.0 8.35 7.85 8.35 8.45 7.75 8.1 7.6 6.9 6.95 6.1 7.85 7.5 8.2 7.6 8.2 7.7 8.35 6.7 8.05 6.0 7.9 6.25 7.55 6.45 7.35 6.65 7.1 6.65 6.95 6.55 7.05 6.65 7.1 6.55 7.1 6.35 7.3 6.3 7.25 5.45 8.1 5.6 8.3 6.1 8.8 6.5 9.1 6.5 9.15 6.6 9.2 7.0 9.45 7.05 9.5 7.3 9.5 7.35 9.55 7.45 9.55 7.55 9.6 7.65 9.55 7.7 9.6 7.8 9.5 7.85 9.55 7.75 9.6 8.15 9.75 8.15 9.85 9.35 10.1 9.2 9.8 9.1 9.45 9.2 9.05 9.3 8.95 9.6 8.65 9.9 8.55 10.25 8.55 M5.1 3.9 L5.2 1.8 5.2 1.45 5.6 5.35 5.1 3.9 M8.9 3.25 L9.05 3.25 8.75 3.55 8.9 3.25 M8.2 4.3 L8.2 4.45 8.35 4.7 8.0 5.25 7.5 5.35 8.2 4.3 M8.55 5.0 L8.6 5.1 7.9 5.9 7.95 5.75 8.15 5.5 8.55 5.0 M8.6 8.0 L8.75 7.95 8.65 7.9 8.6 8.0 M6.7 6.9 L6.7 7.05 6.85 6.95 6.75 6.9 6.7 6.9 M4.95 6.0 L5.05 6.0 4.9 6.05 4.95 6.0" fill="#000000" fill-rule="evenodd" stroke="none"/>
    <path d="M13.85 9.35 L13.8 9.05 14.05 9.05 14.1 9.0 14.25 9.05 14.25 9.25 14.35 9.8 14.6 10.25 14.8 10.45 15.15 10.6 15.4 10.65 15.6 10.65 15.25 10.8 15.15 10.7 14.25 11.0 14.2 10.85 13.5 11.0 13.4 11.0 13.6 11.1 13.65 11.15 13.95 11.3 13.8 11.3 13.7 11.3 13.35 11.25 13.2 11.2 12.6 11.1 12.1 10.9 11.75 10.9 11.45 10.8 11.2 10.75 11.2 10.6 10.9 10.55 10.9 9.9 10.75 9.85 10.55 9.65 9.95 9.5 9.8 9.5 9.7 9.2 9.7 8.95 9.85 8.95 9.85 8.85 10.0 8.9 10.05 8.8 10.25 8.85 10.3 8.75 10.75 8.9 10.5 8.75 11.3 9.1 11.35 9.05 11.6 9.2 11.65 9.3 11.7 9.3 11.8 9.4 11.85 9.35 12.25 9.75 12.35 9.9 12.45 9.8 12.4 9.75 12.6 9.65 12.55 9.55 13.95 9.85 14.15 9.95 13.85 9.35 M11.9 4.55 L12.7 3.85 13.5 4.1 13.65 6.3 11.9 4.55 M16.5 2.55 L16.5 2.25 17.5 3.65 17.75 4.15 18.0 5.25 17.95 5.25 18.1 5.85 18.1 5.95 17.85 6.0 17.65 6.15 17.2 6.5 15.95 7.0 15.85 6.75 15.75 6.75 15.7 6.4 15.75 5.45 16.0 4.8 15.95 4.8 15.95 4.7 16.25 4.05 16.5 3.15 16.5 2.55 M19.0 6.6 L18.9 6.6 18.45 6.55 18.45 6.35 19.0 6.6 M4.85 1.75 L5.0 1.45 5.1 1.4 5.2 1.8 5.1 3.9 4.95 3.9 4.6 2.75 4.7 2.2 4.85 1.75 M5.2 1.45 L5.2 1.4 6.5 3.55 5.6 5.35 5.2 1.45 M15.4 1.8 L15.6 4.75 15.45 5.3 15.35 6.0 15.4 6.35 15.45 6.4 15.4 6.4 13.65 6.3 15.4 1.8 M15.4 7.2 L15.05 7.5 14.7 7.95 14.55 8.25 13.65 6.3 15.4 7.2 M18.2 6.8 L18.15 7.25 18.0 7.55 17.9 8.0 17.8 8.2 17.75 8.2 17.75 8.25 17.2 9.1 17.15 9.2 17.05 9.2 16.7 9.7 16.35 10.05 16.25 10.0 16.05 10.2 16.0 10.1 15.6 10.3 15.55 10.2 15.45 10.2 15.1 10.25 15.05 10.1 14.95 10.05 14.9 10.0 14.75 9.75 14.75 9.55 14.6 9.55 14.6 9.35 14.7 9.05 14.65 9.0 15.0 8.3 14.95 8.25 15.15 7.95 15.3 7.85 15.25 7.75 15.7 7.45 15.65 7.4 15.85 7.25 18.05 6.25 18.25 6.0 18.2 6.55 18.2 6.8 M17.15 9.85 L17.15 9.9 16.95 9.95 17.05 9.85 17.15 9.85 M10.25 8.55 L9.9 8.55 9.6 8.65 9.3 8.95 9.05 8.85 9.05 8.75 8.85 8.7 8.65 8.7 8.65 8.6 8.5 8.5 8.65 8.5 8.7 8.35 8.9 8.35 8.9 8.25 9.1 8.3 9.15 8.25 9.4 8.3 9.4 8.2 9.6 8.3 9.65 8.25 9.85 8.3 10.15 8.5 10.2 8.45 10.25 8.55 M6.45 7.35 L6.25 7.55 6.35 7.3 6.45 7.35 M6.7 8.05 L7.7 8.35 7.85 8.35 8.0 8.35 8.0 9.35 7.95 9.35 7.8 9.3 7.75 9.4 7.5 9.3 7.45 9.2 7.4 9.15 7.4 9.1 7.3 8.75 7.3 8.65 7.05 8.35 6.7 8.05 M8.9 8.0 L5.6 5.35 8.9 3.25 8.75 3.55 8.2 4.3 7.5 5.35 8.9 8.0" fill="#ffcc00" fill-rule="evenodd" stroke="none"/>
  </g>
</svg>
