<?xml version="1.0" encoding="UTF-8" standalone="no"?>
<svg xmlns:ffdec="https://www.free-decompiler.com/flash" xmlns:xlink="http://www.w3.org/1999/xlink" ffdec:objectType="shape" height="10.6px" width="14.35px" xmlns="http://www.w3.org/2000/svg">
  <g transform="matrix(1.0, 0.0, 0.0, 1.0, -4.4, -1.2)">
    <path d="M13.35 10.05 L13.25 9.8 13.2 9.45 13.4 9.5 13.45 9.35 13.6 9.4 13.55 9.65 13.6 10.0 13.65 10.15 13.35 10.05 M15.65 2.6 L15.75 2.3 15.85 2.5 16.7 3.8 17.1 4.85 17.35 6.2 17.05 6.35 16.25 6.85 16.1 6.9 16.1 6.95 15.3 7.25 15.2 6.75 15.2 6.3 15.25 6.0 15.1 6.0 15.1 5.95 15.7 4.25 15.65 3.15 15.65 3.1 15.65 2.9 15.65 2.6 M5.65 1.9 L5.85 1.4 5.85 1.3 6.9 3.45 6.0 5.15 7.7 5.25 8.85 7.9 6.0 5.15 5.85 1.4 5.8 3.25 5.55 2.25 5.65 1.9 M13.0 6.5 L11.6 4.65 12.4 3.9 13.1 4.2 13.0 6.45 13.0 6.5 14.75 7.45 14.65 7.55 14.45 7.65 13.9 8.45 13.0 6.55 13.0 6.5 M15.0 4.7 L14.75 5.5 14.65 6.1 14.7 6.65 13.0 6.45 14.8 1.9 15.0 4.7 M17.35 6.25 L17.3 7.25 17.1 8.4 17.0 8.4 16.9 8.75 16.8 8.7 16.45 9.4 16.4 9.4 15.95 10.05 15.85 10.0 15.65 10.3 15.55 10.25 15.3 10.5 15.1 10.35 14.95 10.5 14.85 10.35 15.0 10.25 14.8 10.25 15.1 9.9 15.0 9.8 14.5 9.05 14.4 8.95 14.6 8.65 14.8 8.5 14.75 8.35 14.95 8.25 14.9 8.1 15.1 8.0 15.1 7.9 16.6 7.25 16.8 6.9 17.25 6.4 17.35 6.25 M17.65 7.0 L17.65 6.75 18.25 7.1 17.65 7.0 M16.2 10.35 L16.35 10.4 16.2 10.45 16.1 10.5 16.2 10.35 M10.3 8.55 L10.35 8.6 10.1 8.55 9.75 8.55 9.65 8.6 9.55 8.55 9.65 8.3 9.7 8.3 9.85 8.35 9.9 8.3 10.0 8.4 10.1 8.35 10.3 8.55 M7.5 8.0 L7.9 8.15 8.15 8.25 8.3 8.25 8.35 8.2 8.3 8.3 8.3 9.0 8.25 9.2 7.95 9.1 7.95 9.0 7.85 9.0 7.85 8.75 7.8 8.75 7.75 8.65 7.7 8.4 7.75 8.4 7.5 8.0 M11.1 9.25 L11.2 9.3 11.25 9.4 11.5 9.5 11.8 9.9 11.85 10.05 12.0 10.35 13.0 11.45 13.35 11.65 13.15 11.65 13.05 11.65 12.8 11.6 12.65 11.55 11.75 11.2 10.9 10.05 10.95 10.0 10.8 9.85 10.65 9.75 10.45 9.55 10.5 9.5 10.3 9.35 10.35 9.25 10.15 9.2 10.2 8.95 10.25 8.95 10.45 9.05 10.5 9.0 10.7 9.1 10.75 9.05 10.95 9.2 11.0 9.15 11.1 9.25" fill="#ffcc00" fill-rule="evenodd" stroke="none"/>
    <path d="M13.25 9.2 L13.3 9.2 13.35 9.15 13.6 9.2 13.6 9.4 13.45 9.35 13.4 9.5 13.2 9.45 13.25 9.2 M13.05 8.0 L12.9 8.0 12.0 7.1 11.85 6.35 11.75 6.15 11.8 6.1 11.85 6.0 11.95 5.9 13.0 6.5 13.0 6.55 13.1 8.0 13.05 8.0 M8.75 3.45 L8.25 4.35 8.5 4.75 8.3 5.1 8.35 5.35 8.1 5.7 8.05 5.9 8.2 6.15 8.55 7.0 8.65 7.15 8.8 7.25 9.05 7.25 9.2 7.25 9.3 7.45 9.4 7.75 9.05 7.85 8.9 7.85 8.85 7.9 7.7 5.25 6.0 5.15 6.9 6.6 5.75 8.0 6.0 5.15 4.4 4.3 5.1 4.0 5.25 3.95 5.4 2.9 5.35 2.85 5.55 2.3 5.55 2.25 5.8 3.25 5.75 3.7 6.0 5.15 6.9 3.45 5.85 1.3 6.45 1.3 6.5 1.4 7.5 3.35 7.65 3.35 7.7 3.35 8.65 3.25 9.1 3.2 8.75 3.45 M13.1 10.1 L13.5 10.25 13.4 10.15 13.35 10.05 13.65 10.15 13.8 10.5 13.95 10.75 14.15 10.95 14.75 11.1 14.95 11.1 15.3 11.05 15.7 10.9 16.05 10.6 16.1 10.5 16.2 10.45 16.35 10.4 16.2 10.35 16.35 10.25 16.65 10.35 16.45 10.4 16.35 10.45 Q16.2 10.6 16.0 10.7 L15.75 11.0 15.3 11.3 15.25 11.3 14.95 11.45 14.8 11.55 14.8 11.5 14.15 11.65 14.1 11.6 13.15 11.7 13.15 11.65 13.35 11.65 13.0 11.45 12.0 10.35 11.85 10.05 11.8 9.9 11.5 9.5 11.8 9.65 11.85 9.65 11.8 9.75 11.95 9.65 13.1 10.1 M13.3 3.95 L14.8 1.9 15.35 1.85 15.45 3.35 15.35 3.8 15.0 4.7 14.8 1.9 13.0 6.45 14.7 6.65 14.8 7.4 14.75 7.45 13.0 6.5 13.0 6.45 13.1 4.2 13.3 3.95 M15.75 2.3 L15.85 2.2 15.9 2.2 16.95 3.95 17.15 4.35 17.3 5.0 17.4 5.3 17.55 6.1 17.6 6.1 17.6 6.2 17.5 7.0 17.5 7.25 17.35 8.3 17.15 8.75 17.15 8.7 16.8 9.45 15.8 10.7 15.75 10.7 15.55 10.85 15.5 10.85 15.25 10.95 15.2 10.95 15.1 11.0 14.75 11.05 14.7 11.0 14.5 11.0 14.45 10.9 14.3 10.9 14.2 10.85 14.15 10.8 13.95 10.65 13.8 10.35 13.75 10.3 13.65 9.85 13.65 9.65 13.6 9.6 13.7 9.2 13.8 8.95 13.8 8.9 13.95 8.55 14.2 8.2 14.2 8.1 14.55 7.75 14.6 7.65 14.7 7.55 15.05 7.4 15.1 7.35 15.25 7.25 14.9 7.4 14.75 6.65 14.75 6.0 14.95 5.2 14.9 5.2 15.05 4.9 15.35 4.0 15.4 4.05 15.65 3.15 15.7 4.25 15.1 5.95 15.1 6.0 15.25 6.0 15.2 6.3 15.2 6.75 15.3 7.25 16.1 6.95 16.1 7.0 17.25 6.4 16.8 6.9 16.6 7.25 15.1 7.9 15.1 8.0 14.9 8.1 14.95 8.25 14.75 8.35 14.8 8.5 14.6 8.65 14.4 8.95 14.5 9.05 15.0 9.8 15.1 9.9 14.8 10.25 15.0 10.25 14.85 10.35 14.95 10.5 15.1 10.35 15.3 10.5 15.55 10.25 15.65 10.3 15.85 10.0 15.95 10.05 16.4 9.4 16.45 9.4 16.8 8.7 16.9 8.75 17.0 8.4 17.1 8.4 17.3 7.25 17.35 6.25 17.45 6.15 17.35 6.2 17.1 4.85 16.7 3.8 15.85 2.5 15.75 2.3 M18.25 7.1 L17.7 7.2 17.65 7.0 18.25 7.1 M5.65 6.95 L5.55 6.6 5.75 6.65 5.75 7.1 5.65 6.95 M15.65 3.1 L15.45 3.55 15.65 2.9 15.65 3.1 M17.6 7.2 L17.6 7.4 17.55 7.85 17.35 8.45 17.55 7.4 17.6 7.2 M8.3 8.3 L8.45 8.25 8.45 8.2 8.5 8.15 8.65 8.1 8.65 8.05 8.8 8.05 8.85 8.0 9.0 8.0 9.05 7.95 9.2 8.0 9.25 7.95 9.5 8.0 9.65 8.05 9.7 8.05 9.85 8.1 9.95 8.1 10.15 8.3 10.25 8.3 10.35 8.45 10.4 8.45 10.6 8.65 10.55 8.7 10.3 8.55 10.1 8.35 10.0 8.4 9.9 8.3 9.85 8.35 9.7 8.3 9.65 8.3 9.55 8.55 9.65 8.6 9.55 8.65 9.25 8.95 9.15 9.1 9.1 9.4 9.1 9.55 9.15 9.7 9.25 9.9 9.25 9.95 8.9 9.85 8.8 9.75 8.15 9.45 8.2 9.4 8.1 9.35 8.05 9.4 7.9 9.35 7.8 9.4 7.8 9.3 7.7 9.35 7.6 9.25 7.55 9.25 7.5 9.2 7.3 9.1 7.3 9.05 6.45 8.2 6.5 8.15 6.25 7.85 6.2 7.8 6.35 7.55 6.7 7.2 7.1 6.95 6.55 7.65 7.5 8.0 7.75 8.4 7.7 8.4 7.75 8.65 7.8 8.75 7.85 8.75 7.85 9.0 7.95 9.0 7.95 9.1 8.25 9.2 8.3 9.0 8.3 8.3 M12.65 11.55 L12.6 11.55 12.05 11.6 12.05 11.55 11.55 11.5 11.55 11.45 11.1 11.35 10.55 11.05 10.55 11.0 9.95 10.65 9.55 10.35 9.6 10.25 9.5 10.15 9.35 9.95 9.3 9.8 9.25 9.7 9.25 9.55 9.2 9.5 9.15 9.35 9.25 9.2 9.25 9.1 9.35 9.05 9.35 8.95 9.5 8.9 9.45 8.85 9.5 8.75 9.65 8.7 9.65 8.65 10.0 8.65 10.0 8.6 10.2 8.65 10.25 8.65 10.45 8.7 10.7 8.8 10.95 8.95 11.1 9.25 11.0 9.15 10.95 9.2 10.75 9.05 10.7 9.1 10.5 9.0 10.45 9.05 10.25 8.95 10.2 8.95 10.15 9.2 10.35 9.25 10.3 9.35 10.5 9.5 10.45 9.55 10.65 9.75 10.8 9.85 10.95 10.0 10.9 10.05 11.75 11.2 12.65 11.55 M5.65 5.85 L5.75 5.9 5.75 6.1 5.65 5.85 M5.55 5.75 L5.5 5.7 5.5 5.6 5.45 5.6 5.4 5.5 5.4 5.45 5.3 5.15 5.75 5.6 5.75 5.8 5.7 5.8 5.6 5.75 5.55 5.75" fill="#7f6600" fill-rule="evenodd" stroke="none"/>
    <path d="M13.35 9.15 L13.4 9.05 13.65 9.1 13.7 8.95 13.05 8.0 13.1 8.0 13.0 6.55 13.9 8.45 14.45 7.65 14.65 7.55 14.75 7.45 14.8 7.4 14.7 6.65 14.65 6.1 14.75 5.5 15.0 4.7 15.35 3.8 15.45 3.35 15.65 2.6 15.65 2.9 15.45 3.55 15.65 3.1 15.65 3.15 15.4 4.05 15.35 4.0 15.05 4.9 14.9 5.2 14.95 5.2 14.75 6.0 14.75 6.65 14.9 7.4 15.25 7.25 15.1 7.35 15.05 7.4 14.7 7.55 14.6 7.65 14.55 7.75 14.2 8.1 14.2 8.2 13.95 8.55 13.8 8.9 13.8 8.95 13.7 9.2 13.6 9.6 13.65 9.65 13.65 9.85 13.75 10.3 13.8 10.35 13.95 10.65 14.15 10.8 14.2 10.85 14.3 10.9 14.45 10.9 14.5 11.0 14.7 11.0 14.75 11.05 15.1 11.0 15.2 10.95 15.25 10.95 15.5 10.85 15.55 10.85 15.75 10.7 15.8 10.7 16.8 9.45 17.15 8.7 17.15 8.75 17.35 8.3 17.5 7.25 17.5 7.0 17.6 6.2 17.6 6.1 17.6 6.05 17.7 6.05 17.65 6.25 18.75 6.9 18.25 7.1 17.65 6.75 17.65 7.0 17.7 7.2 17.65 7.9 17.35 8.45 16.8 9.55 16.4 10.15 16.7 10.3 16.65 10.35 15.95 10.9 15.45 11.35 15.3 11.4 15.15 11.5 13.85 11.8 13.2 11.8 12.8 11.75 12.65 11.7 12.15 11.7 11.5 11.6 11.05 11.45 10.25 11.0 10.0 10.8 10.0 10.9 9.35 10.15 9.35 10.1 8.65 9.85 8.1 9.5 8.05 9.45 8.0 9.5 7.75 9.45 7.25 9.2 7.3 9.2 7.0 8.95 6.25 8.05 6.15 7.9 5.75 8.0 5.75 7.15 5.65 6.95 5.75 7.1 5.75 6.65 5.55 6.6 5.6 6.55 5.75 6.55 5.75 6.4 5.6 5.9 5.55 5.8 5.5 5.75 5.4 5.7 5.15 5.05 4.4 4.3 6.0 5.15 5.75 8.0 6.9 6.6 6.0 5.15 8.85 7.9 8.9 7.85 9.05 7.85 9.45 7.9 10.1 8.15 10.4 8.4 10.45 8.45 10.65 8.7 10.85 8.8 9.8 6.9 9.3 7.45 9.2 7.25 9.05 7.25 9.65 6.6 9.35 6.15 9.4 6.15 11.2 9.3 12.9 9.95 13.1 10.1 11.95 9.65 11.8 9.75 11.85 9.65 11.8 9.65 11.5 9.5 11.25 9.4 11.2 9.3 11.1 9.25 10.95 8.95 10.7 8.8 10.45 8.7 10.25 8.65 10.2 8.65 10.0 8.6 10.0 8.65 9.65 8.65 9.65 8.7 9.5 8.75 9.45 8.85 9.5 8.9 9.35 8.95 9.35 9.05 9.25 9.1 9.25 9.2 9.15 9.35 9.2 9.5 9.25 9.55 9.25 9.7 9.3 9.8 9.35 9.95 9.5 10.15 9.6 10.25 9.55 10.35 9.95 10.65 10.55 11.0 10.55 11.05 11.1 11.35 11.55 11.45 11.55 11.5 12.05 11.55 12.05 11.6 12.6 11.55 12.65 11.55 12.8 11.6 13.05 11.65 13.15 11.65 13.15 11.7 14.1 11.6 14.15 11.65 14.8 11.5 14.8 11.55 14.95 11.45 15.25 11.3 15.3 11.3 15.75 11.0 16.0 10.7 Q16.2 10.6 16.35 10.45 L16.45 10.4 16.65 10.35 16.35 10.25 16.2 10.35 16.1 10.5 16.05 10.6 15.7 10.9 15.3 11.05 14.95 11.1 14.75 11.1 14.15 10.95 13.95 10.75 13.8 10.5 13.65 10.15 13.6 10.0 13.55 9.65 13.6 9.4 13.6 9.2 13.35 9.15 M11.8 6.1 L11.25 5.3 10.8 5.4 14.05 1.75 14.0 1.75 13.4 1.9 11.1 1.75 11.25 1.6 11.4 1.55 11.6 1.55 14.35 1.75 12.65 3.7 13.3 3.95 13.1 4.2 12.4 3.9 11.6 4.65 13.0 6.5 11.95 5.9 11.5 5.0 11.35 5.2 11.85 6.0 11.8 6.1 M11.05 1.8 L11.0 2.0 9.35 4.2 9.4 4.05 9.65 3.75 10.0 3.25 8.75 1.3 8.95 1.4 10.05 3.15 11.05 1.8 M8.65 5.0 L8.7 5.1 8.05 5.9 8.1 5.7 8.35 5.35 8.65 5.0 M15.9 2.2 L16.05 2.35 16.95 3.8 17.25 4.5 17.45 5.2 17.6 6.1 17.55 6.1 17.4 5.3 17.3 5.0 17.15 4.35 16.95 3.95 15.9 2.2 M5.1 4.0 L5.4 2.35 5.5 2.15 5.55 2.1 5.65 1.9 5.55 2.25 5.55 2.3 5.35 2.85 5.4 2.9 5.25 3.95 5.1 4.0 M6.5 1.4 L6.6 1.25 6.7 1.2 8.55 1.3 8.3 1.35 8.15 1.4 8.0 1.45 7.9 1.55 6.55 1.45 6.7 1.65 7.7 3.35 7.65 3.35 6.55 1.45 6.5 1.4 M16.1 6.95 L16.1 6.9 16.25 6.85 17.05 6.35 17.35 6.2 17.45 6.15 17.35 6.25 17.25 6.4 16.1 7.0 16.1 6.95 M17.6 7.2 L17.55 7.4 17.35 8.45 17.55 7.85 17.6 7.4 17.6 7.2 M10.3 8.55 L10.55 8.7 10.6 8.65 10.4 8.45 10.35 8.45 10.25 8.3 10.15 8.3 9.95 8.1 9.85 8.1 9.7 8.05 9.65 8.05 9.5 8.0 9.25 7.95 9.2 8.0 9.05 7.95 9.0 8.0 8.85 8.0 8.8 8.05 8.65 8.05 8.65 8.1 8.5 8.15 8.45 8.2 8.45 8.25 8.3 8.3 8.35 8.2 8.3 8.25 8.15 8.25 8.6 7.75 7.3 6.85 6.7 7.6 7.75 8.0 7.9 8.15 7.5 8.0 6.55 7.65 7.1 6.95 6.7 7.2 6.35 7.55 6.2 7.8 6.25 7.85 6.5 8.15 6.45 8.2 7.3 9.05 7.3 9.1 7.5 9.2 7.55 9.25 7.6 9.25 7.7 9.35 7.8 9.3 7.8 9.4 7.9 9.35 8.05 9.4 8.1 9.35 8.2 9.4 8.15 9.45 8.8 9.75 8.9 9.85 9.25 9.95 9.25 9.9 9.15 9.7 9.1 9.55 9.1 9.4 9.15 9.1 9.25 8.95 9.55 8.65 9.65 8.6 9.75 8.55 10.1 8.55 10.35 8.6 10.3 8.55 M5.8 3.25 L5.85 1.4 6.0 5.15 5.75 3.7 5.8 3.25 M5.55 5.75 L5.6 5.75 5.7 5.8 5.75 5.8 5.75 5.6 5.3 5.15 5.4 5.45 5.4 5.5 5.45 5.6 5.5 5.6 5.5 5.7 5.55 5.75 M5.65 5.85 L5.75 6.1 5.75 5.9 5.65 5.85" fill="#000000" fill-rule="evenodd" stroke="none"/>
    <path d="M13.25 9.2 L12.35 7.75 12.25 7.75 10.75 5.4 10.55 5.45 10.1 5.45 11.45 3.85 11.6 3.8 13.1 2.0 13.0 2.05 12.95 2.1 12.85 2.1 12.7 2.2 12.45 2.3 11.1 3.95 11.15 3.9 9.95 5.45 12.55 9.7 12.9 9.95 11.2 9.3 9.4 6.15 9.35 6.15 9.65 6.6 9.05 7.25 8.8 7.25 8.65 7.15 8.55 7.0 8.2 6.15 8.05 5.9 8.7 5.1 8.65 5.0 8.5 4.75 8.25 4.35 8.75 3.45 9.35 4.4 9.35 4.2 11.0 2.0 11.05 1.8 11.1 1.75 13.4 1.9 14.0 1.75 14.05 1.75 10.8 5.4 11.25 5.3 11.8 6.1 11.75 6.15 11.85 6.35 12.0 7.1 12.9 8.0 13.05 8.0 13.7 8.95 13.65 9.1 13.4 9.05 13.35 9.15 13.3 9.2 13.25 9.2 M8.55 1.3 L8.75 1.3 10.0 3.25 9.65 3.75 8.15 1.4 8.3 1.35 8.55 1.3 M7.9 8.15 L7.75 8.0 6.7 7.6 7.3 6.85 8.6 7.75 8.15 8.25 7.9 8.15 M7.9 1.55 L7.75 1.7 8.65 3.25 7.7 3.35 6.7 1.65 6.55 1.45 7.9 1.55" fill="#646464" fill-rule="evenodd" stroke="none"/>
    <path d="M12.9 9.95 L12.55 9.7 9.95 5.45 11.15 3.9 11.1 3.95 12.45 2.3 12.7 2.2 12.85 2.1 12.95 2.1 13.0 2.05 13.1 2.0 11.6 3.8 11.45 3.85 10.1 5.45 10.55 5.45 10.75 5.4 12.25 7.75 12.35 7.75 13.25 9.2 13.2 9.45 13.25 9.8 13.35 10.05 13.4 10.15 13.5 10.25 13.1 10.1 12.9 9.95 M9.35 4.2 L9.35 4.4 8.75 3.45 9.1 3.2 8.65 3.25 7.75 1.7 7.9 1.55 8.0 1.45 8.15 1.4 9.65 3.75 9.4 4.05 9.35 4.2" fill="#c8c8c8" fill-rule="evenodd" stroke="none"/>
  </g>
</svg>
