<?xml version="1.0" encoding="UTF-8" standalone="no"?>
<svg xmlns:ffdec="https://www.free-decompiler.com/flash" xmlns:xlink="http://www.w3.org/1999/xlink" ffdec:objectType="shape" height="10.95px" width="12.15px" xmlns="http://www.w3.org/2000/svg">
  <g transform="matrix(1.0, 0.0, 0.0, 1.0, -5.55, -1.15)">
    <path d="M13.45 1.8 L12.9 1.85 12.35 2.0 10.75 1.8 12.25 2.05 10.6 1.85 10.6 1.8 10.75 1.7 10.85 1.65 11.15 1.55 11.4 1.55 13.45 1.8 13.6 1.8 13.7 1.85 13.7 1.9 12.35 3.75 12.75 3.95 13.95 2.0 14.0 2.0 12.2 6.65 12.55 4.3 11.95 4.0 11.3 4.6 11.95 3.75 12.0 3.75 13.45 1.8 M10.55 1.95 L10.5 2.1 9.3 4.2 9.5 3.9 9.25 4.3 9.25 4.15 9.6 3.55 10.0 2.85 9.25 1.3 9.4 1.45 10.05 2.75 10.55 1.95 M8.4 4.2 L8.8 5.05 8.25 5.9 8.3 5.7 8.65 5.1 8.7 5.0 8.7 4.9 8.4 4.25 8.4 4.2 M9.25 7.2 L9.55 6.8 9.25 6.05 9.25 6.0 10.7 9.3 10.65 9.35 11.9 10.05 12.25 10.35 11.5 9.9 11.4 9.95 11.4 10.05 11.3 10.1 11.3 9.95 11.35 9.8 11.2 9.75 10.7 9.45 10.65 9.35 10.6 9.2 10.45 8.9 10.05 8.65 10.0 8.7 9.9 8.6 9.8 8.7 9.65 8.65 9.6 8.75 9.45 8.75 9.4 9.0 9.3 9.0 9.35 9.2 9.25 9.25 9.3 9.35 9.2 9.5 9.2 9.55 9.45 10.05 9.55 10.2 9.5 10.25 9.65 10.35 9.75 10.55 10.55 11.15 10.55 11.25 10.75 11.35 10.9 11.4 10.95 11.5 11.25 11.55 11.3 11.65 11.6 11.6 12.05 11.85 12.55 11.95 12.45 11.85 12.55 11.85 12.6 11.95 13.1 11.9 13.2 11.95 13.65 11.85 13.7 11.9 13.85 11.9 13.9 11.8 14.0 11.85 14.2 11.75 14.25 11.75 14.45 11.65 14.5 11.65 15.25 10.9 15.5 10.85 15.15 10.65 15.05 10.8 14.9 10.95 14.85 11.05 14.6 11.3 14.35 11.45 14.1 11.5 13.65 11.5 13.3 11.4 13.1 11.25 13.0 11.15 12.8 10.75 12.6 10.0 12.65 9.5 12.7 9.4 12.65 9.35 12.7 9.35 12.7 9.3 12.9 8.85 12.55 8.2 12.2 6.65 13.0 8.55 13.4 7.95 13.8 7.65 13.7 7.15 13.75 6.95 13.7 6.9 13.7 6.1 13.8 5.35 13.85 5.3 14.05 4.6 14.1 4.65 14.15 4.4 14.45 3.0 14.45 3.75 13.8 6.0 13.75 6.5 13.85 7.65 13.9 7.65 15.05 7.15 15.1 7.05 16.05 6.5 15.85 6.65 15.5 7.05 14.7 7.45 14.75 7.4 14.55 7.5 13.9 7.75 13.8 7.85 13.6 7.95 13.6 8.05 13.5 8.1 13.25 8.35 13.3 8.45 13.05 8.7 13.0 8.8 13.05 8.9 12.8 9.5 12.8 9.8 12.75 10.15 12.85 10.55 12.85 10.7 12.95 10.8 13.0 10.9 13.0 11.0 13.1 11.05 13.15 11.15 13.3 11.2 13.6 11.35 13.7 11.35 13.8 11.4 13.95 11.35 14.05 11.4 14.15 11.3 14.35 11.35 14.55 11.15 14.65 11.15 14.75 11.1 15.05 10.6 15.1 10.6 15.15 10.55 15.85 9.25 15.95 8.85 16.0 8.8 16.25 6.45 16.3 6.45 16.25 6.25 16.0 4.8 15.7 3.95 15.0 2.6 14.9 2.35 14.95 2.4 15.1 2.6 15.8 4.0 16.05 4.65 16.3 5.75 16.35 6.35 16.45 7.15 16.45 7.45 16.45 7.65 16.45 8.1 16.4 8.4 16.25 8.85 16.05 9.15 15.9 9.3 15.25 10.6 15.55 10.8 15.5 10.85 14.95 11.35 14.9 11.45 14.55 11.75 14.25 11.9 13.4 12.1 12.5 12.1 12.2 12.0 12.0 11.9 11.65 11.9 11.05 11.75 10.4 11.35 9.5 10.45 9.2 9.9 8.95 9.75 8.5 9.35 8.35 9.35 8.1 9.25 7.85 9.05 7.0 7.75 6.95 7.65 6.55 7.75 7.4 6.4 6.5 5.05 8.85 7.85 7.7 6.75 7.3 7.4 8.0 7.75 8.1 7.95 7.45 7.6 7.45 8.2 7.75 8.65 7.85 8.75 7.9 8.75 8.05 8.9 8.1 9.05 8.15 9.0 8.25 9.15 8.35 9.2 8.4 9.25 8.45 9.2 8.55 9.25 8.6 9.15 8.7 9.2 8.85 9.4 9.1 9.55 9.1 9.15 9.45 8.6 9.5 8.65 9.5 8.6 10.0 8.5 10.35 8.7 10.3 8.5 10.15 8.2 10.1 8.2 10.0 8.1 9.85 8.0 9.8 8.05 9.65 7.95 9.6 8.0 9.45 7.95 9.4 8.0 9.25 7.95 9.25 8.0 9.1 7.95 9.0 8.15 8.9 8.15 8.85 8.35 8.75 8.35 8.8 8.45 8.65 8.55 8.65 8.45 8.7 8.1 8.6 8.1 8.85 7.85 9.4 7.7 9.3 7.8 9.75 7.9 10.1 8.05 9.75 7.2 9.45 7.65 9.3 7.2 9.25 7.2 M11.5 6.85 L11.45 6.5 11.45 6.25 11.55 6.0 11.2 5.3 11.1 5.35 10.75 5.4 11.25 4.7 12.2 6.65 11.5 7.25 11.5 7.05 11.5 6.85 M6.5 5.55 L6.45 5.55 6.3 5.2 6.3 5.1 5.55 4.1 6.2 3.75 6.4 2.3 6.5 2.15 6.55 1.95 6.45 2.45 6.45 2.75 6.55 3.45 6.5 5.05 6.5 5.55 M7.15 1.25 L7.2 1.25 7.3 1.2 7.45 1.15 7.6 1.15 8.8 1.3 8.55 1.35 8.15 1.5 8.05 1.65 7.2 1.5 7.3 1.65 8.0 3.3 8.8 3.2 6.5 5.05 7.35 3.35 7.95 3.3 7.2 1.5 7.15 1.45 7.15 1.25 M16.25 7.0 L16.2 8.25 16.05 8.85 16.15 8.85 16.25 8.55 16.3 8.5 16.4 8.1 16.35 6.75 16.3 6.6 16.25 7.0 M7.25 7.35 L7.5 6.9 7.25 7.1 7.1 7.3 7.25 7.35" fill="#000000" fill-rule="evenodd" stroke="none"/>
    <path d="M8.85 3.35 L8.8 3.4 8.4 4.2 8.4 4.25 8.7 4.9 8.6 5.05 7.95 5.15 6.5 5.05 7.4 6.4 6.55 7.75 6.5 5.55 6.5 5.05 6.55 3.45 6.45 2.75 6.45 2.45 6.55 1.95 6.55 2.15 6.6 1.85 6.6 1.25 7.15 1.25 7.15 1.45 7.2 1.5 7.95 3.3 7.35 3.35 6.5 5.05 8.8 3.2 9.15 3.15 8.85 3.35 M11.25 4.7 L11.2 4.65 11.3 4.6 11.95 4.0 12.55 4.3 12.2 6.65 12.55 8.2 12.4 8.15 11.85 7.6 11.8 7.5 11.65 7.35 11.5 7.25 12.2 6.65 11.25 4.7 M14.0 2.0 L14.7 1.95 14.75 2.35 14.8 2.3 14.9 2.35 15.0 2.6 15.7 3.95 16.0 4.8 16.25 6.25 16.3 6.45 16.25 6.45 16.0 8.8 15.95 8.85 15.85 9.25 15.15 10.55 15.1 10.6 15.05 10.6 14.75 11.1 14.65 11.15 14.55 11.15 14.35 11.35 14.15 11.3 14.05 11.4 13.95 11.35 13.8 11.4 13.7 11.35 13.6 11.35 13.3 11.2 13.15 11.15 13.1 11.05 13.0 11.0 13.0 10.9 12.95 10.8 12.85 10.7 12.85 10.55 12.75 10.15 12.8 9.8 12.8 9.5 13.05 8.9 13.0 8.8 13.05 8.7 13.3 8.45 13.25 8.35 13.5 8.1 13.6 8.05 13.6 7.95 13.8 7.85 13.9 7.75 14.55 7.5 14.75 7.4 14.7 7.45 15.5 7.05 15.35 7.2 14.8 8.1 14.95 8.05 14.8 8.95 14.9 9.0 14.7 9.45 14.65 9.65 14.85 9.8 14.65 10.15 14.95 9.85 15.05 9.9 15.2 9.5 15.3 9.55 15.45 9.2 15.55 9.2 15.65 8.9 15.75 8.9 15.8 8.55 15.9 8.5 15.95 8.2 16.05 6.5 16.15 6.4 16.0 5.3 15.8 4.5 15.7 4.5 14.7 2.35 14.55 2.5 14.45 3.0 14.15 4.4 14.0 2.0 M16.35 6.35 L17.7 7.35 17.0 7.55 16.45 7.65 16.45 7.45 17.0 7.55 16.45 7.15 16.35 6.35 M14.45 3.75 L14.45 4.35 14.9 5.95 15.05 7.05 15.05 7.15 13.9 7.65 13.85 7.65 13.75 6.5 13.8 6.0 14.45 3.75 M13.7 6.9 L13.75 6.95 13.7 7.15 13.8 7.65 12.2 6.65 13.7 6.9 M12.65 9.35 L12.7 9.4 12.65 9.5 12.6 10.0 12.8 10.75 13.0 11.15 13.1 11.25 13.3 11.4 13.65 11.5 14.1 11.5 14.35 11.45 14.6 11.3 14.85 11.05 14.9 10.95 15.05 10.8 15.15 10.65 15.5 10.85 15.25 10.9 14.5 11.65 14.45 11.65 14.25 11.75 14.2 11.75 14.0 11.85 13.9 11.8 13.85 11.9 13.7 11.9 13.65 11.85 13.2 11.95 13.1 11.9 12.6 11.95 12.55 11.85 12.45 11.85 12.35 11.8 12.4 11.85 12.2 11.7 12.0 11.45 11.35 10.45 11.3 10.1 11.4 10.05 11.4 9.95 11.5 9.9 12.25 10.35 12.6 10.55 12.45 10.1 12.4 9.85 12.45 9.6 12.5 9.5 12.65 9.35 M11.6 11.6 L11.3 11.65 11.25 11.55 10.95 11.5 10.9 11.4 10.75 11.35 10.55 11.25 10.55 11.15 9.75 10.55 9.65 10.35 9.5 10.25 9.55 10.2 9.45 10.05 9.2 9.55 9.2 9.5 9.3 9.35 9.25 9.25 9.35 9.2 9.3 9.0 9.4 9.0 9.45 8.75 9.6 8.75 9.65 8.65 9.8 8.7 9.9 8.6 10.0 8.7 10.05 8.65 10.45 8.9 10.6 9.2 10.5 9.25 10.35 9.45 10.5 9.65 10.45 9.7 10.6 10.0 10.85 10.35 10.95 10.7 11.2 11.15 11.25 11.05 11.45 11.55 11.6 11.6 M11.2 9.75 L11.35 9.8 11.3 9.95 11.2 9.75 M16.25 7.0 L16.3 6.6 16.35 6.75 16.4 8.1 16.3 8.5 16.25 8.55 16.15 8.85 16.05 8.85 16.2 8.25 16.25 7.0 M8.65 8.55 L8.8 8.45 8.75 8.35 8.85 8.35 8.9 8.15 9.0 8.15 9.1 7.95 9.25 8.0 9.25 7.95 9.4 8.0 9.45 7.95 9.6 8.0 9.65 7.95 9.8 8.05 9.85 8.0 10.0 8.1 10.1 8.2 10.15 8.2 10.3 8.5 10.25 8.5 10.15 8.35 9.95 8.5 10.0 8.5 9.5 8.6 9.5 8.65 9.45 8.6 9.1 9.15 9.1 9.55 8.85 9.4 8.7 9.2 8.6 9.15 8.55 9.25 8.45 9.2 8.4 9.25 8.35 9.2 8.25 9.15 8.15 9.0 8.1 9.05 8.05 8.9 7.9 8.75 7.85 8.75 7.75 8.65 7.45 8.2 7.45 7.6 8.1 7.95 8.2 8.0 8.15 8.05 8.25 8.3 8.3 8.7 8.3 8.75 8.4 8.75 8.4 8.85 8.35 8.95 8.35 9.0 8.5 9.05 8.6 9.05 8.65 8.9 8.65 8.55 M7.25 7.35 L7.1 7.3 7.25 7.1 7.5 6.9 7.25 7.35" fill="#7f6600" fill-rule="evenodd" stroke="none"/>
    <path d="M8.25 5.9 L8.65 6.95 8.8 7.15 9.1 7.2 9.25 7.2 9.3 7.2 9.45 7.65 9.5 7.7 9.4 7.7 8.85 7.85 6.5 5.05 7.95 5.15 8.6 5.05 8.65 5.1 8.3 5.7 8.25 5.9 M6.55 1.95 L6.6 1.85 6.55 2.15 6.55 1.95 M14.45 3.0 L14.55 2.5 14.7 2.35 15.7 4.5 15.8 4.5 16.0 5.3 16.15 6.4 16.05 6.5 15.95 8.2 15.9 8.5 15.8 8.55 15.75 8.9 15.65 8.9 15.55 9.2 15.45 9.2 15.3 9.55 15.2 9.5 15.05 9.9 14.95 9.85 14.65 10.15 14.85 9.8 14.65 9.65 14.7 9.45 14.9 9.0 14.8 8.95 14.95 8.05 14.8 8.1 15.35 7.2 15.5 7.05 15.85 6.65 16.05 6.5 15.1 7.05 15.05 7.15 15.05 7.05 14.9 5.95 14.45 4.35 14.45 3.75 14.45 3.0 M12.2 6.65 L14.0 2.0 14.15 4.4 14.1 4.65 14.05 4.6 13.85 5.3 13.8 5.35 13.7 6.1 13.7 6.9 12.2 6.65 13.8 7.65 13.4 7.95 13.0 8.55 12.2 6.65 M12.45 11.85 L12.55 11.95 12.05 11.85 11.6 11.6 11.45 11.55 11.25 11.05 11.2 11.15 10.95 10.7 10.85 10.35 10.6 10.0 10.45 9.7 10.5 9.65 10.35 9.45 10.5 9.25 10.6 9.2 10.65 9.35 10.7 9.45 11.2 9.75 11.3 9.95 11.3 10.1 11.35 10.45 12.0 11.45 12.2 11.7 12.4 11.85 12.35 11.8 12.45 11.85 M16.45 7.45 L16.45 7.15 17.0 7.55 16.45 7.45 M10.3 8.5 L10.35 8.7 10.0 8.5 9.95 8.5 10.15 8.35 10.25 8.5 10.3 8.5 M8.6 8.1 L8.7 8.1 8.65 8.45 8.65 8.55 8.65 8.9 8.6 9.05 8.5 9.05 8.35 9.0 8.35 8.95 8.4 8.85 8.4 8.75 8.3 8.75 8.3 8.7 8.25 8.3 8.15 8.05 8.2 8.0 8.3 8.1 8.45 8.15 8.6 8.1" fill="#ffcc00" fill-rule="evenodd" stroke="none"/>
    <path d="M10.6 1.85 L12.25 2.05 10.75 1.8 12.35 2.0 12.9 1.85 13.45 1.8 12.0 3.75 11.95 3.75 11.3 4.6 11.2 4.65 11.25 4.7 10.75 5.4 11.1 5.35 11.2 5.3 11.55 6.0 11.45 6.25 11.45 6.5 11.5 6.85 10.95 5.85 11.5 7.05 10.7 5.4 10.1 5.45 9.75 5.4 11.9 10.05 10.65 9.35 10.7 9.3 9.25 6.0 9.25 6.05 9.55 6.8 9.25 7.2 9.1 7.2 8.8 7.15 8.65 6.95 8.25 5.9 8.8 5.05 8.4 4.2 8.8 3.4 8.85 3.35 9.25 4.15 9.25 4.3 9.5 3.9 9.3 4.2 10.5 2.1 10.55 1.95 10.6 1.85 M8.8 1.3 L9.25 1.3 10.0 2.85 9.6 3.55 8.55 1.35 8.8 1.3 M12.55 8.2 L12.9 8.85 12.7 9.3 11.85 7.6 12.4 8.15 12.55 8.2 M8.1 7.95 L8.0 7.75 7.3 7.4 7.7 6.75 8.85 7.85 8.6 8.1 8.45 8.15 8.3 8.1 8.2 8.0 8.1 7.95 M8.05 1.65 L8.8 3.2 8.0 3.3 7.3 1.65 7.2 1.5 8.05 1.65" fill="#646464" fill-rule="evenodd" stroke="none"/>
    <path d="M9.25 4.15 L8.85 3.35 9.15 3.15 8.8 3.2 8.05 1.65 8.15 1.5 8.55 1.35 9.6 3.55 9.25 4.15 M11.9 10.05 L9.75 5.4 10.1 5.45 10.7 5.4 11.5 7.05 10.95 5.85 11.5 6.85 11.5 7.05 11.5 7.25 11.65 7.35 11.8 7.5 11.85 7.6 12.7 9.3 12.7 9.35 12.65 9.35 12.5 9.5 12.45 9.6 12.4 9.85 12.45 10.1 12.6 10.55 12.25 10.35 11.9 10.05" fill="#c8c8c8" fill-rule="evenodd" stroke="none"/>
  </g>
</svg>
