<?xml version="1.0" encoding="UTF-8" standalone="no"?>
<svg xmlns:ffdec="https://www.free-decompiler.com/flash" xmlns:xlink="http://www.w3.org/1999/xlink" ffdec:objectType="shape" height="11.3px" width="9.4px" xmlns="http://www.w3.org/2000/svg">
  <g transform="matrix(1.0, 0.0, 0.0, 1.0, -6.75, -1.1)">
    <path d="M11.5 4.1 L11.9 4.4 11.3 6.75 11.15 6.15 10.95 5.35 10.9 5.2 10.8 4.75 11.45 4.05 11.5 4.1 M13.7 2.6 L13.8 3.0 13.75 3.0 14.0 3.6 14.05 3.65 14.45 4.8 14.75 7.45 14.75 7.5 14.8 7.35 14.75 6.3 16.15 7.8 15.15 7.95 14.75 7.85 14.75 8.5 14.7 8.55 14.65 8.85 14.55 9.15 14.5 9.2 14.4 9.45 14.35 9.45 14.25 9.65 14.2 9.65 14.25 9.5 14.35 8.95 14.4 8.95 14.45 8.6 14.55 8.6 14.5 7.2 14.5 6.9 14.5 6.5 14.25 4.85 14.1 4.3 14.0 4.3 13.35 2.4 13.4 2.4 13.6 2.45 13.7 2.6 M8.85 3.4 L8.6 4.15 8.85 4.95 8.8 5.05 8.3 5.1 8.85 7.75 8.6 7.3 8.6 7.35 7.95 6.3 7.4 7.55 7.05 4.9 8.85 3.15 8.95 3.15 9.15 3.15 9.0 3.25 8.85 3.3 8.85 3.4 M9.0 9.0 L9.0 9.15 8.85 9.1 8.7 8.95 8.7 8.85 8.6 8.75 8.65 8.75 8.55 8.65 8.55 8.35 8.45 7.85 8.55 7.95 8.75 8.0 8.75 8.1 8.8 8.5 8.85 8.65 8.85 8.8 8.9 8.85 8.9 8.95 9.0 9.0 M14.35 8.75 L14.3 8.8 14.25 9.15 13.95 10.1 13.5 11.0 13.45 11.0 13.15 11.5 13.0 11.5 12.85 11.7 12.6 11.6 12.5 11.65 12.35 11.55 12.25 11.45 12.1 11.2 12.0 10.95 12.1 10.8 12.35 10.3 12.05 9.25 12.1 9.15 12.1 9.0 12.3 8.8 12.3 8.65 12.7 8.5 12.95 8.35 13.15 7.85 13.3 7.65 13.25 8.75 13.35 8.8 13.3 9.1 13.4 9.15 13.35 9.5 13.75 9.6 13.95 9.25 14.05 9.25 14.1 8.5 14.2 8.5 14.25 6.9 14.3 6.7 14.45 6.75 14.45 6.85 14.35 8.1 14.4 8.1 14.4 8.45 14.35 8.65 14.35 8.75 M13.6 7.15 L13.5 7.2 12.95 7.6 12.6 7.75 12.55 6.7 12.6 6.05 12.85 4.9 12.85 3.9 12.9 3.55 12.9 3.6 13.25 4.75 13.35 5.25 13.35 5.7 13.45 6.7 13.55 6.7 13.6 7.15 M12.45 6.0 L12.4 6.3 12.4 7.1 11.3 6.75 12.45 6.0 M11.5 9.85 L11.5 10.35 11.45 9.95 11.5 9.85 M11.05 11.95 L10.85 11.85 10.4 11.4 10.0 10.15 9.8 9.75 9.75 9.7 9.75 9.6 9.7 9.5 9.55 9.35 9.55 9.25 9.5 9.15 9.55 9.05 9.45 9.0 9.45 8.9 9.55 8.75 9.65 8.65 9.75 8.75 9.85 8.65 10.0 8.8 10.15 9.45 10.2 9.5 10.15 9.55 10.25 9.75 10.2 9.8 10.95 11.75 11.05 11.95 M12.35 11.9 L12.3 11.75 12.45 11.8 12.7 11.85 12.9 11.8 12.95 11.75 13.1 11.7 13.25 11.5 13.3 11.35 13.35 11.35 13.6 11.15 13.65 11.05 13.95 11.25 13.65 11.35 13.45 11.55 13.55 11.55 13.4 11.7 13.45 11.7 13.35 11.85 13.2 11.85 13.1 12.0 13.0 12.0 12.9 12.15 12.75 12.05 12.6 12.15 12.35 11.9 M7.4 1.25 L7.9 3.25 7.9 3.3 7.05 4.9 7.2 3.65 7.4 1.25 M9.55 8.3 L9.55 8.25 9.45 8.15 9.55 8.0 9.6 8.0 9.7 8.05 9.75 8.0 9.9 8.55 9.7 8.5 9.55 8.55 9.6 8.45 9.5 8.4 9.55 8.3" fill="#7f6600" fill-rule="evenodd" stroke="none"/>
    <path d="M12.95 2.05 L12.9 2.05 12.9 2.15 11.95 3.8 12.1 3.9 12.8 2.3 12.8 2.4 11.3 6.75 11.9 4.4 11.5 4.1 11.65 3.8 11.7 3.8 12.7 1.85 12.8 1.9 12.95 2.0 12.95 2.05 M13.7 2.6 L13.75 2.7 13.85 2.85 14.6 5.2 14.75 6.3 14.8 7.35 14.75 7.5 14.75 7.45 14.45 4.8 14.05 3.65 14.0 3.6 13.75 3.0 13.8 3.0 13.7 2.6 M9.8 1.4 L9.9 1.45 10.0 2.0 10.2 1.75 10.35 1.65 10.75 1.6 11.1 1.6 12.5 1.85 12.15 1.85 11.7 1.95 10.75 2.3 9.45 5.35 9.55 5.6 10.85 10.0 11.1 10.3 11.2 10.45 11.5 10.65 11.55 10.65 11.5 10.5 11.5 10.35 11.5 9.85 11.75 8.75 11.9 8.55 11.9 8.5 12.0 8.35 12.45 7.85 12.45 7.7 11.3 6.75 12.4 7.1 12.4 6.3 12.45 6.0 12.45 5.8 12.85 3.9 12.85 4.9 12.6 6.05 12.55 6.7 12.6 7.75 12.95 7.6 13.5 7.2 13.6 7.15 13.7 7.1 13.3 7.65 13.15 7.85 12.95 8.35 12.7 8.5 12.3 8.65 12.3 8.8 12.1 9.0 12.1 9.15 12.05 9.25 12.35 10.3 12.1 10.8 12.0 10.95 12.1 11.2 12.25 11.45 12.35 11.55 12.5 11.65 12.6 11.6 12.85 11.7 13.0 11.5 13.15 11.5 13.45 11.0 13.5 11.0 13.95 10.1 14.25 9.15 14.3 8.8 14.35 8.75 14.35 8.95 14.25 9.5 14.2 9.65 14.25 9.65 14.35 9.45 14.4 9.45 14.5 9.2 14.55 9.15 14.65 8.85 14.7 8.55 14.75 8.5 14.75 7.85 15.15 7.95 14.85 8.0 14.75 8.8 14.55 9.35 14.5 9.35 14.5 9.45 14.4 9.6 14.15 9.8 13.95 10.45 13.7 10.9 13.95 11.1 14.1 11.2 13.95 11.35 13.7 11.7 13.55 11.9 13.35 12.1 13.2 12.2 12.65 12.4 12.2 12.4 11.85 12.35 11.55 12.25 11.2 12.05 11.05 12.0 11.05 12.05 10.9 12.05 10.75 11.95 10.45 11.8 10.15 11.55 9.45 10.6 9.2 10.05 9.1 9.45 8.95 9.2 8.95 9.25 8.85 9.2 8.65 9.15 8.3 8.7 8.15 8.4 7.8 7.5 7.4 7.55 7.95 6.3 8.6 7.35 8.4 7.8 8.45 7.85 8.55 8.35 8.55 8.65 8.65 8.75 8.6 8.75 8.7 8.85 8.7 8.95 8.85 9.1 9.0 9.15 9.0 9.0 9.0 8.7 9.05 8.25 9.15 8.05 9.05 8.05 9.25 7.7 9.6 7.65 9.5 7.25 9.55 7.2 9.15 6.0 8.8 6.9 8.55 5.85 8.55 5.65 8.8 5.05 8.85 4.95 8.6 4.15 8.85 3.4 9.15 4.3 9.25 4.05 9.6 3.15 9.6 3.1 9.65 3.0 10.0 2.05 9.8 1.4 M10.9 5.2 L10.95 5.35 10.75 5.4 10.9 5.2 M11.15 6.15 L11.3 6.75 11.35 6.95 11.85 8.35 11.8 8.3 11.6 8.15 10.95 7.3 11.05 6.45 11.05 6.4 11.15 6.15 M14.5 6.9 L14.5 7.2 14.4 8.1 14.35 8.1 14.45 6.85 14.5 6.9 M14.4 8.45 L14.35 8.75 14.35 8.65 14.4 8.45 M10.2 9.5 L10.15 9.45 10.0 8.8 9.85 8.65 9.75 8.75 9.65 8.65 9.55 8.75 9.45 8.9 9.45 9.0 9.55 9.05 9.5 9.15 9.55 9.25 9.55 9.35 9.7 9.5 9.75 9.6 9.75 9.7 9.8 9.75 10.0 10.15 10.4 11.4 10.85 11.85 11.05 11.95 11.05 11.9 11.3 12.1 11.4 12.1 11.4 12.15 11.6 12.15 11.45 12.05 11.1 11.55 11.05 11.35 10.75 10.7 10.7 10.55 10.7 10.25 10.75 10.0 10.2 9.5 M12.35 11.9 L12.6 12.15 12.75 12.05 12.9 12.15 13.0 12.0 13.1 12.0 13.2 11.85 13.35 11.85 13.45 11.7 13.4 11.7 13.55 11.55 13.45 11.55 13.65 11.35 13.95 11.25 13.65 11.05 13.6 11.15 13.35 11.35 13.3 11.35 13.25 11.5 13.1 11.7 12.95 11.75 12.9 11.8 12.7 11.85 12.45 11.8 12.3 11.75 12.35 11.9 M9.4 1.25 L8.95 1.3 8.8 1.35 8.5 1.5 8.3 1.7 8.8 3.15 8.85 3.15 7.05 4.9 7.9 3.3 8.35 3.2 7.8 1.45 7.85 1.25 7.95 1.2 8.0 1.2 8.35 1.1 9.4 1.25 M7.2 3.65 L7.05 4.9 6.75 4.0 7.2 3.65 M9.55 8.3 L9.5 8.4 9.6 8.45 9.55 8.55 9.7 8.5 9.9 8.55 9.75 8.0 9.7 8.05 9.6 8.0 9.55 8.0 9.45 8.15 9.55 8.25 9.55 8.3" fill="#000000" fill-rule="evenodd" stroke="none"/>
    <path d="M12.9 2.15 L12.9 2.05 12.95 2.05 13.85 2.0 13.85 2.85 13.75 2.7 13.7 2.6 13.6 2.45 13.4 2.4 13.35 2.4 14.0 4.3 14.1 4.3 14.25 4.85 14.5 6.5 14.5 6.9 14.45 6.85 14.45 6.75 14.3 6.7 14.25 6.9 14.2 8.5 14.1 8.5 14.05 9.25 13.95 9.25 13.75 9.6 13.35 9.5 13.4 9.15 13.3 9.1 13.35 8.8 13.25 8.75 13.3 7.65 13.7 7.1 13.6 7.15 13.55 6.7 13.45 6.7 13.35 5.7 13.35 5.25 13.25 4.75 12.9 3.6 12.9 3.55 12.85 3.9 12.45 5.8 12.45 6.0 11.3 6.75 12.8 2.4 12.9 2.15 M8.8 5.05 L8.55 5.65 8.55 5.85 8.8 6.9 8.85 7.0 9.0 7.05 9.15 7.15 9.5 7.15 9.5 7.25 9.6 7.65 9.25 7.7 8.85 7.75 8.3 5.1 8.8 5.05 M9.05 8.05 L9.15 8.05 9.05 8.25 9.0 8.7 9.0 9.0 8.9 8.95 8.9 8.85 8.85 8.8 8.85 8.65 8.8 8.5 8.75 8.1 8.75 8.0 8.95 8.05 9.05 8.05 M13.7 11.7 L13.95 11.35 13.95 11.65 13.7 11.7 M13.95 11.1 L13.7 10.9 13.95 10.45 13.95 11.1 M14.35 8.95 L14.35 8.75 14.4 8.45 14.4 8.1 14.5 7.2 14.55 8.6 14.45 8.6 14.4 8.95 14.35 8.95 M11.3 6.75 L12.45 7.7 12.45 7.85 12.0 8.35 11.9 8.5 11.85 8.35 11.35 6.95 11.3 6.75 M11.05 11.95 L10.95 11.75 10.2 9.8 10.25 9.75 10.15 9.55 10.2 9.5 10.75 10.0 10.7 10.25 10.7 10.55 10.75 10.7 11.05 11.35 11.1 11.55 11.45 12.05 11.6 12.15 11.4 12.15 11.4 12.1 11.3 12.1 11.05 11.9 11.05 11.95 M7.95 1.2 L7.85 1.25 7.8 1.45 8.35 3.2 7.9 3.3 7.9 3.25 7.4 1.25 7.95 1.2" fill="#ffcc00" fill-rule="evenodd" stroke="none"/>
    <path d="M12.7 1.85 L11.7 3.8 11.65 3.8 11.5 4.1 11.45 4.05 10.8 4.75 10.9 5.2 10.75 5.4 10.95 5.35 11.15 6.15 11.05 6.4 10.7 5.4 9.6 5.45 11.1 10.3 10.85 10.0 9.55 5.6 9.45 5.35 10.75 2.3 11.7 1.95 12.15 1.85 12.5 1.85 12.7 1.85 M9.8 1.4 L10.0 2.05 9.65 3.0 9.25 1.8 9.6 3.1 9.6 3.15 8.95 1.3 9.4 1.25 9.8 1.4 M9.25 4.05 L9.15 4.3 8.85 3.4 8.85 3.3 9.0 3.25 9.25 4.05 M8.8 6.9 L9.15 6.0 9.55 7.2 9.5 7.25 9.5 7.15 9.15 7.15 9.0 7.05 8.85 7.0 8.8 6.9 M9.25 7.7 L9.05 8.05 8.95 8.05 8.75 8.0 8.55 7.95 8.45 7.85 8.4 7.8 8.6 7.35 8.6 7.3 8.85 7.75 9.25 7.7 M11.9 8.5 L11.9 8.55 11.8 8.3 11.85 8.35 11.9 8.5 M8.5 1.5 L8.95 3.15 8.85 3.15 8.8 3.15 8.3 1.7 8.5 1.5" fill="#646464" fill-rule="evenodd" stroke="none"/>
    <path d="M9.65 3.0 L9.6 3.1 9.25 1.8 9.65 3.0 M9.6 3.15 L9.25 4.05 9.0 3.25 9.15 3.15 8.95 3.15 8.5 1.5 8.8 1.35 8.95 1.3 9.6 3.15 M11.9 8.55 L11.75 8.75 11.5 9.85 11.45 9.95 11.5 10.35 11.5 10.5 11.55 10.65 11.5 10.65 11.2 10.45 11.1 10.3 9.6 5.45 10.7 5.4 11.05 6.4 11.05 6.45 10.95 7.3 11.6 8.15 11.8 8.3 11.9 8.55" fill="#c8c8c8" fill-rule="evenodd" stroke="none"/>
  </g>
</svg>
