<?xml version="1.0" encoding="UTF-8" standalone="no"?>
<svg xmlns:ffdec="https://www.free-decompiler.com/flash" xmlns:xlink="http://www.w3.org/1999/xlink" ffdec:objectType="shape" height="11.5px" width="6.3px" xmlns="http://www.w3.org/2000/svg">
  <g transform="matrix(1.0, 0.0, 0.0, 1.0, -7.75, -1.1)">
    <path d="M10.25 1.45 L10.35 1.55 10.35 1.6 10.75 1.6 11.7 1.95 11.25 1.85 10.35 2.0 10.0 2.2 9.35 5.4 9.3 5.35 10.0 10.2 9.85 9.85 9.6 9.45 9.55 9.05 9.55 8.9 9.5 8.9 9.55 9.05 9.5 9.1 9.55 9.25 9.5 9.35 9.55 9.45 9.5 9.55 9.6 9.9 9.55 9.95 9.85 11.65 10.0 11.9 10.2 12.15 9.8 11.75 9.65 11.5 9.15 10.05 9.1 9.5 9.1 9.1 9.15 9.0 8.95 8.55 8.65 7.4 8.55 7.2 8.6 6.9 8.95 7.7 8.9 7.85 8.95 7.85 9.05 7.9 9.1 8.2 9.1 8.65 9.2 8.7 9.2 8.8 9.3 8.7 9.3 8.65 9.35 8.65 9.4 8.6 9.45 8.3 9.4 8.0 9.35 7.65 9.3 7.05 9.2 6.45 9.2 6.3 9.05 6.95 8.95 6.8 8.85 5.75 8.95 5.0 8.85 4.1 8.95 3.35 9.0 3.3 9.1 4.2 9.3 3.2 9.55 2.0 9.55 1.95 9.6 1.85 9.9 1.65 10.05 1.6 10.25 1.6 10.25 1.45 M11.9 2.0 L12.0 2.1 11.85 2.1 11.9 2.0 M12.7 2.1 L13.05 6.2 12.75 5.65 12.8 6.0 12.85 7.55 12.75 7.7 12.6 4.85 12.45 4.15 12.4 4.1 12.15 2.8 12.25 3.0 12.35 3.15 12.7 4.8 12.75 5.3 12.7 2.1 M14.05 8.15 L12.95 8.3 12.8 10.35 12.8 10.5 12.7 11.95 12.75 9.45 12.45 9.95 12.25 10.1 12.2 10.1 12.05 10.9 12.05 10.95 12.35 11.45 12.1 12.0 12.0 12.25 11.55 12.55 11.1 12.6 10.8 12.5 10.45 12.25 10.55 12.25 10.35 12.0 10.15 11.5 10.0 10.5 10.0 10.35 10.05 10.35 10.05 10.4 10.1 10.5 10.2 10.55 10.25 9.5 10.45 8.55 10.65 8.15 10.9 7.9 10.85 7.45 10.3 6.8 10.85 7.1 10.85 6.3 11.05 4.4 11.05 4.3 11.15 4.8 11.35 7.35 11.3 7.35 11.25 7.45 11.0 7.9 10.9 8.25 10.9 8.75 10.95 8.8 10.95 9.25 10.85 10.1 10.9 10.2 10.8 10.85 10.9 10.95 10.8 11.25 10.9 11.3 10.85 11.5 10.95 11.6 11.1 11.7 11.35 11.75 11.45 11.7 11.35 11.95 11.3 11.9 11.3 11.95 11.45 12.1 11.55 12.1 11.7 11.95 11.6 11.95 11.65 11.8 11.45 11.7 11.5 11.6 11.9 11.6 11.95 11.55 12.1 11.55 11.95 11.2 11.9 11.3 11.85 11.35 11.7 11.45 11.6 11.5 11.7 11.2 11.8 11.1 11.9 10.5 12.0 10.45 12.1 9.7 12.2 9.7 12.2 9.95 12.3 9.9 12.35 9.7 12.5 9.65 12.55 9.4 12.65 9.35 12.65 9.15 12.7 8.75 12.8 8.7 12.8 8.25 12.7 8.25 12.6 8.05 12.8 8.15 12.9 8.25 14.05 8.15 M12.35 7.25 L12.4 7.3 12.35 7.65 12.35 7.25 M9.85 1.25 L9.65 1.25 9.45 1.3 9.3 1.3 9.1 1.35 8.9 1.45 8.75 1.6 8.95 3.1 8.9 3.15 7.75 4.8 8.5 3.2 8.75 3.15 8.5 1.55 8.5 1.4 8.6 1.3 8.75 1.2 8.75 1.15 9.05 1.1 9.25 1.1 9.55 1.15 9.85 1.25 M11.1 4.05 L11.1 4.1 10.3 6.8 10.3 5.45 10.3 4.7 10.85 4.1 11.05 4.05 11.1 4.05 M10.55 7.7 L10.25 7.3 10.3 6.8 10.55 7.7 M11.5 11.6 L11.5 11.5 11.6 11.5 11.5 11.6 M7.75 4.8 L8.45 6.5 8.3 7.4 7.75 4.8 M9.1 6.95 L9.05 6.95 9.2 6.45 9.1 6.95" fill="#000000" fill-rule="evenodd" stroke="none"/>
    <path d="M9.0 3.3 L8.95 3.35 8.85 4.1 8.95 5.0 8.7 5.0 8.95 7.7 8.6 6.9 8.55 7.2 8.65 7.4 8.3 7.4 8.45 6.5 7.75 4.8 8.9 3.15 8.95 3.1 9.3 3.1 9.1 3.2 9.0 3.3 M9.3 8.65 L9.3 8.7 9.2 8.8 9.2 8.7 9.1 8.65 9.1 8.2 9.05 7.9 9.15 7.95 9.3 7.95 9.3 8.65 M10.2 12.15 L10.0 11.9 9.85 11.65 9.55 9.95 9.6 9.9 9.5 9.55 9.55 9.45 9.5 9.35 9.55 9.25 9.5 9.1 9.55 9.05 9.5 8.9 9.55 8.9 9.55 9.05 9.6 9.45 9.85 9.85 10.25 12.1 10.2 12.15 M13.05 6.2 L14.05 8.15 12.9 8.25 12.8 8.15 12.6 8.05 12.7 8.25 12.8 8.25 12.8 8.7 12.7 8.75 12.65 9.15 12.65 9.35 12.55 9.4 12.5 9.65 12.35 9.7 12.3 9.9 12.2 9.95 12.2 9.7 12.1 9.7 12.0 10.45 11.9 10.5 11.8 11.1 11.7 11.2 11.6 11.5 11.7 11.45 11.85 11.35 11.9 11.3 11.95 11.2 12.1 11.55 11.95 11.55 11.9 11.6 11.5 11.6 11.45 11.7 11.65 11.8 11.6 11.95 11.7 11.95 11.55 12.1 11.45 12.1 11.3 11.95 11.3 11.9 11.35 11.95 11.45 11.7 11.35 11.75 11.1 11.7 10.95 11.6 10.85 11.5 10.9 11.3 10.8 11.25 10.9 10.95 10.8 10.85 10.9 10.2 10.85 10.1 10.95 9.25 10.95 8.8 10.9 8.75 10.9 8.25 11.0 7.9 11.25 7.45 11.25 8.25 11.35 8.3 11.3 9.4 11.5 9.45 11.45 9.8 11.75 9.85 11.8 9.45 11.9 9.45 11.9 9.1 12.0 9.05 12.0 8.7 12.05 8.3 12.1 8.3 12.15 7.8 12.15 7.55 12.05 7.55 12.15 6.95 12.25 7.0 12.35 7.25 12.35 7.65 12.3 7.9 12.2 8.85 12.2 9.2 12.15 9.4 12.25 9.5 12.25 9.2 12.4 9.2 12.45 9.15 12.5 8.4 12.55 8.4 12.4 4.8 12.3 4.8 12.15 3.7 12.0 3.7 11.9 3.05 11.95 3.05 11.9 2.5 12.0 2.6 12.15 2.8 12.4 4.1 12.45 4.15 12.6 4.85 12.75 7.7 12.85 7.55 12.8 6.0 12.75 5.65 13.05 6.2 M11.65 2.1 L11.7 2.5 11.55 2.55 11.65 2.1 M11.3 2.95 L11.55 4.5 11.45 4.55 11.55 5.1 11.65 7.0 11.4 7.25 11.35 7.35 11.15 4.8 11.05 4.3 11.05 4.4 10.85 6.3 10.85 7.1 10.3 6.8 11.1 4.1 11.1 4.05 11.1 3.8 11.25 3.05 11.3 2.95 M10.3 6.8 L10.85 7.45 10.9 7.9 10.65 8.15 10.55 7.7 10.3 6.8 M11.5 11.6 L11.6 11.5 11.5 11.5 11.5 11.6 M8.5 3.2 L7.75 4.8 8.25 1.2 8.5 3.2" fill="#7f6600" fill-rule="evenodd" stroke="none"/>
    <path d="M8.95 5.0 L8.85 5.75 8.95 6.8 9.05 6.95 9.1 6.95 9.3 7.05 9.35 7.65 8.95 7.7 8.7 5.0 8.95 5.0 M9.4 8.0 L9.45 8.3 9.4 8.6 9.35 8.65 9.3 8.65 9.3 7.95 9.4 8.0 M9.85 9.85 L10.0 10.2 10.05 10.35 10.0 10.35 10.0 10.5 10.15 11.5 10.35 12.0 10.55 12.25 10.45 12.25 10.35 12.2 10.25 12.1 9.85 9.85 M12.0 2.1 L12.7 2.1 12.75 5.3 12.7 4.8 12.35 3.15 12.25 3.0 12.15 2.8 12.0 2.6 11.9 2.5 11.95 3.05 11.9 3.05 12.0 3.7 12.15 3.7 12.3 4.8 12.4 4.8 12.55 8.4 12.5 8.4 12.45 9.15 12.4 9.2 12.25 9.2 12.25 9.5 12.15 9.4 12.2 9.2 12.2 8.85 12.3 7.9 12.35 7.65 12.4 7.3 12.35 7.25 12.25 7.0 12.15 6.95 12.05 7.55 12.15 7.55 12.15 7.8 12.1 8.3 12.05 8.3 12.0 8.7 12.0 9.05 11.9 9.1 11.9 9.45 11.8 9.45 11.75 9.85 11.45 9.8 11.5 9.45 11.3 9.4 11.35 8.3 11.25 8.25 11.25 7.45 11.3 7.35 11.35 7.35 11.4 7.25 11.65 7.0 11.55 5.1 11.45 4.55 11.55 4.5 11.3 2.95 11.4 2.65 11.55 2.55 11.7 2.5 11.65 2.1 11.85 2.1 12.0 2.1 M12.7 11.95 L12.1 12.0 12.35 11.45 12.05 10.95 12.05 10.9 12.2 10.1 12.25 10.1 12.45 9.95 12.75 9.45 12.7 11.95 M8.75 1.2 L8.6 1.3 8.5 1.4 8.5 1.55 8.75 3.15 8.5 3.2 8.25 1.2 8.75 1.2" fill="#ffcc00" fill-rule="evenodd" stroke="none"/>
    <path d="M10.25 1.45 L10.25 1.6 10.05 1.6 9.9 1.65 9.6 1.85 9.55 1.95 9.45 1.3 9.65 1.25 9.85 1.25 10.1 1.35 10.25 1.45 M9.3 3.2 L9.1 4.2 9.0 3.3 9.1 3.2 9.3 3.1 9.3 3.2 M9.05 6.95 L9.2 6.3 9.2 6.45 9.3 7.05 9.1 6.95 9.2 6.45 9.05 6.95 M9.35 7.65 L9.4 8.0 9.3 7.95 9.15 7.95 9.05 7.9 8.95 7.85 8.9 7.85 8.95 7.7 9.35 7.65 M10.0 10.2 L9.3 5.35 9.35 5.4 10.0 2.2 10.35 2.0 11.25 1.85 11.7 1.95 11.9 2.0 11.85 2.1 11.65 2.1 11.55 2.55 11.4 2.65 11.3 2.95 11.25 3.05 11.1 3.8 11.1 4.05 11.05 4.05 10.85 4.1 10.3 4.7 10.3 5.45 9.45 5.4 9.85 7.8 9.8 7.8 10.1 10.5 10.05 10.4 10.05 10.35 10.0 10.2 M8.95 3.1 L8.75 1.6 8.9 1.45 9.1 1.35 9.3 3.1 8.95 3.1" fill="#646464" fill-rule="evenodd" stroke="none"/>
    <path d="M9.55 1.95 L9.55 2.0 9.3 3.2 9.3 3.1 9.1 1.35 9.3 1.3 9.45 1.3 9.55 1.95 M10.3 5.45 L10.3 6.8 10.25 7.3 10.55 7.7 10.65 8.15 10.45 8.55 10.25 9.5 10.2 10.55 10.1 10.5 9.8 7.8 9.85 7.8 9.45 5.4 10.3 5.45" fill="#c8c8c8" fill-rule="evenodd" stroke="none"/>
  </g>
</svg>
