<?xml version="1.0" encoding="UTF-8" standalone="no"?>
<svg xmlns:ffdec="https://www.free-decompiler.com/flash" xmlns:xlink="http://www.w3.org/1999/xlink" ffdec:objectType="shape" height="11.55px" width="3.75px" xmlns="http://www.w3.org/2000/svg">
  <g transform="matrix(1.0, 0.0, 0.0, 1.0, -8.45, -1.1)">
    <path d="M9.55 1.2 L9.3 1.35 9.2 1.45 9.15 1.65 9.15 1.15 9.55 1.2 M9.2 7.1 L9.25 7.0 9.35 6.95 9.45 6.9 9.6 6.95 9.6 4.9 9.65 4.5 9.65 3.8 9.75 3.75 9.75 3.1 9.65 3.1 9.75 2.6 9.85 2.5 10.0 2.5 10.2 2.6 10.2 4.1 10.3 4.1 10.3 4.9 10.4 4.9 10.4 7.85 10.35 7.85 10.3 8.1 10.25 8.2 10.3 8.25 10.35 8.4 10.4 8.35 10.4 8.45 10.3 8.5 10.3 9.25 10.0 9.3 10.0 9.6 9.95 9.6 9.95 9.3 9.9 9.3 9.9 9.15 9.85 8.95 9.85 9.2 9.75 9.5 9.65 9.5 9.65 9.85 9.4 9.9 9.35 9.85 9.35 9.5 9.25 9.5 9.25 9.1 9.15 9.1 9.15 7.05 9.2 7.1 M10.95 2.1 L11.0 2.1 11.35 2.1 11.35 5.7 10.8 5.7 10.6 3.45 10.6 3.4 10.45 2.95 10.3 2.7 10.3 2.1 10.95 2.1 M10.0 7.4 L10.0 7.35 9.95 7.2 9.95 8.15 10.0 7.4 M10.55 12.15 L10.7 11.45 10.6 11.05 10.45 10.8 10.3 10.7 10.3 10.2 10.45 10.05 10.6 9.8 10.7 9.5 10.75 9.2 10.75 8.7 10.8 8.45 11.3 8.45 11.3 12.1 10.55 12.15 M9.95 8.35 L9.85 8.35 9.85 8.95 9.95 8.35" fill="#ffcc00" fill-rule="evenodd" stroke="none"/>
    <path d="M10.75 1.55 L10.45 1.35 10.3 1.3 10.2 1.3 10.15 1.3 10.1 1.3 9.95 1.25 9.85 1.25 9.85 1.3 9.55 1.3 9.3 1.4 9.25 1.5 9.2 1.8 9.5 1.65 9.75 1.6 10.2 1.6 10.3 1.6 10.55 1.65 10.75 1.75 10.75 1.55 10.8 1.65 10.8 1.8 10.9 1.85 11.0 2.0 11.0 2.1 10.95 2.1 10.55 1.95 10.25 1.9 9.7 1.9 9.15 2.05 9.1 2.1 9.2 4.7 9.35 3.35 9.35 6.95 9.25 7.0 9.2 7.1 9.2 5.35 9.1 5.35 9.1 7.15 9.0 7.25 8.45 4.65 9.15 1.15 9.15 1.65 9.2 1.45 9.3 1.35 9.55 1.2 9.6 1.15 9.75 1.1 10.1 1.1 10.15 1.15 10.2 1.15 10.4 1.2 10.6 1.3 10.65 1.4 10.75 1.55 M10.35 7.85 L10.4 8.35 10.35 8.4 10.3 8.25 10.25 8.2 10.3 8.1 10.35 7.85 M10.6 3.45 L10.8 5.7 10.8 7.3 10.65 7.65 10.6 7.7 10.6 3.45 M11.35 5.7 L11.35 2.1 12.2 6.8 11.3 12.1 11.3 8.45 10.8 8.45 10.75 8.7 10.75 9.2 10.7 9.5 10.6 9.8 10.45 10.05 10.3 10.2 10.3 10.7 10.45 10.8 10.6 11.05 10.7 11.45 10.55 12.15 10.4 12.4 10.2 12.6 10.2 12.55 10.0 12.65 9.8 12.6 9.65 12.5 9.5 12.45 9.4 12.2 9.35 12.05 9.35 12.0 9.3 12.0 9.1 11.85 8.95 11.7 8.85 11.35 8.8 11.0 8.7 8.35 8.85 7.55 8.85 9.25 8.95 9.35 8.95 10.0 9.05 10.05 9.05 10.75 9.15 10.85 9.15 11.15 9.2 11.2 9.25 11.5 9.3 11.5 9.3 11.75 9.5 11.8 9.55 11.8 9.6 11.6 9.7 11.55 9.7 11.65 10.2 11.65 10.15 11.25 9.95 11.45 9.95 11.15 10.0 10.75 10.0 10.05 10.35 9.9 10.35 9.7 10.45 9.65 10.45 9.45 10.55 9.35 10.55 9.1 10.6 9.05 10.6 8.35 11.6 8.35 11.35 5.7 M10.3 10.7 L10.25 10.65 10.25 10.7 10.3 10.7" fill="#000000" fill-rule="evenodd" stroke="none"/>
    <path d="M9.0 7.25 L9.1 7.15 9.15 7.05 9.15 9.1 9.25 9.1 9.25 9.5 9.35 9.5 9.35 9.85 9.4 9.9 9.65 9.85 9.65 9.5 9.75 9.5 9.85 9.2 9.85 8.95 9.9 9.15 9.9 9.3 9.95 9.3 9.95 9.6 10.0 9.6 10.0 9.3 10.3 9.25 10.3 8.5 10.4 8.45 10.4 8.35 10.35 7.85 10.4 7.85 10.4 4.9 10.3 4.9 10.3 4.1 10.2 4.1 10.2 2.6 10.2 2.55 10.3 2.1 10.3 2.7 10.45 2.95 10.6 3.4 10.6 3.45 10.6 7.7 10.65 7.65 10.8 7.3 10.8 5.7 11.35 5.7 11.6 8.35 10.6 8.35 10.6 9.05 10.55 9.1 10.55 9.35 10.45 9.45 10.45 9.65 10.35 9.7 10.35 9.9 10.0 10.05 10.0 10.75 9.95 11.15 9.95 11.45 10.15 11.25 10.2 11.65 9.7 11.65 9.7 11.55 9.6 11.6 9.55 11.8 9.5 11.8 9.3 11.75 9.3 11.5 9.25 11.5 9.2 11.2 9.15 11.15 9.15 10.85 9.05 10.75 9.05 10.05 8.95 10.0 8.95 9.35 8.85 9.25 8.85 7.55 8.95 7.4 9.0 7.25 M9.35 6.95 L9.35 3.35 9.65 2.7 9.75 2.6 9.65 3.1 9.75 3.1 9.75 3.75 9.65 3.8 9.65 4.5 9.6 4.9 9.6 6.95 9.45 6.9 9.35 6.95 M10.0 7.4 L9.95 8.15 9.95 7.2 10.0 7.35 10.0 7.4 M9.1 11.85 L9.3 12.0 9.35 12.0 9.35 12.05 9.4 12.2 9.4 12.25 9.2 12.05 9.1 11.85 M10.3 10.7 L10.25 10.7 10.25 10.65 10.3 10.7 M9.95 8.35 L9.85 8.95 9.85 8.35 9.95 8.35" fill="#7f6600" fill-rule="evenodd" stroke="none"/>
    <path d="M10.2 1.3 L10.3 1.3 10.45 1.35 10.75 1.55 10.75 1.75 10.55 1.65 10.3 1.6 10.2 1.6 9.75 1.6 9.5 1.65 9.2 1.8 9.25 1.5 9.3 1.4 9.55 1.3 9.85 1.3 9.85 1.25 9.95 1.25 10.1 1.3 10.15 1.3 10.2 1.6 10.2 1.3 M9.1 7.15 L9.1 5.35 9.2 5.35 9.2 7.1 9.15 7.05 9.1 7.15 M9.35 3.35 L9.2 4.7 9.1 2.1 9.15 2.05 9.7 1.9 10.25 1.9 10.55 1.95 10.95 2.1 10.3 2.1 10.2 2.55 10.2 2.6 10.0 2.5 9.85 2.5 9.75 2.6 9.65 2.7 9.35 3.35" fill="#646464" fill-rule="evenodd" stroke="none"/>
    <path d="M10.15 1.3 L10.2 1.3 10.2 1.6 10.15 1.3" fill="#c8c8c8" fill-rule="evenodd" stroke="none"/>
  </g>
</svg>
