<?xml version="1.0" encoding="UTF-8" standalone="no"?>
<svg xmlns:ffdec="https://www.free-decompiler.com/flash" xmlns:xlink="http://www.w3.org/1999/xlink" ffdec:objectType="shape" height="11.5px" width="5.3px" xmlns="http://www.w3.org/2000/svg">
  <g transform="matrix(1.0, 0.0, 0.0, 1.0, -6.55, -1.1)">
    <path d="M11.4 1.7 L11.4 1.8 11.45 1.95 11.35 4.65 11.45 4.45 11.55 3.9 11.55 3.25 11.6 3.25 11.75 3.5 11.75 3.7 11.55 5.4 11.6 5.45 11.5 6.65 11.5 6.85 11.45 6.95 11.45 7.0 11.4 7.05 11.45 7.1 11.35 7.15 11.3 6.7 11.4 6.7 11.35 6.5 11.45 5.35 11.4 5.35 11.4 5.1 11.35 4.95 11.3 4.9 11.35 4.75 11.3 4.75 11.25 4.8 11.2 4.9 11.15 4.9 11.2 4.75 11.0 5.15 11.0 4.8 11.05 4.5 11.15 4.6 11.05 4.45 11.1 4.1 11.15 4.5 11.15 4.35 11.2 4.35 11.25 2.95 11.4 1.7 M10.25 10.3 L9.8 12.2 9.85 8.5 11.2 6.85 9.9 5.75 9.05 8.4 8.6 8.35 8.65 8.8 8.55 8.9 8.6 9.3 8.55 9.4 8.55 9.55 8.4 9.7 8.45 9.8 8.3 9.95 8.1 10.05 7.95 10.05 8.0 10.1 8.1 10.15 8.25 10.15 8.25 10.35 8.2 10.45 8.35 11.05 8.25 11.15 8.3 11.25 8.4 11.15 8.5 11.1 8.65 10.95 8.8 10.6 9.0 10.8 9.05 10.9 8.75 11.55 8.45 11.6 8.1 11.6 8.0 11.55 7.85 11.55 7.95 11.35 7.65 11.45 7.65 11.5 7.7 11.65 7.65 11.65 7.55 11.4 7.45 11.4 7.4 11.1 7.3 11.05 7.25 10.9 7.15 10.4 7.05 10.35 6.9 9.65 6.85 9.6 6.75 8.9 6.7 8.85 6.65 7.15 6.75 6.95 6.9 6.85 6.95 7.25 7.0 9.0 7.1 9.0 7.1 9.35 7.2 9.4 7.25 9.75 7.65 9.7 7.65 9.5 7.55 9.2 7.7 9.2 7.75 9.5 8.05 9.45 8.0 9.15 8.05 9.15 8.2 9.1 8.2 8.8 8.3 8.75 8.3 8.3 7.85 8.3 7.95 7.95 8.0 7.85 8.25 7.75 8.3 7.7 8.5 4.55 8.4 4.5 8.65 2.95 8.75 3.25 8.85 3.8 8.85 4.05 8.9 4.25 8.85 4.45 8.6 7.4 8.75 7.2 9.05 6.25 9.05 5.7 9.85 5.75 9.9 5.75 10.0 2.15 10.3 3.5 11.2 6.85 11.0 7.55 10.9 7.9 10.95 7.9 11.0 7.95 10.9 7.9 10.75 8.45 10.85 8.55 10.8 8.65 10.85 8.7 10.8 8.95 10.85 9.0 10.8 9.55 10.75 9.6 10.75 9.65 10.7 9.75 10.7 9.85 10.65 10.0 10.6 10.05 10.4 10.15 10.3 10.1 10.25 10.3 M7.7 3.0 L7.75 2.85 8.0 2.55 8.1 2.5 8.0 3.05 8.05 3.05 7.95 3.7 7.85 3.7 7.75 4.4 7.65 4.4 7.45 7.05 7.35 6.95 7.25 6.9 7.5 4.2 7.75 3.1 7.65 3.15 7.7 3.0 M10.4 9.8 L10.35 9.9 10.4 9.85 10.4 9.8 M10.6 9.2 L10.65 8.85 10.4 9.75 10.55 9.7 10.6 9.7 10.6 9.2 M7.8 9.9 L7.85 10.0 7.85 9.95 7.8 9.9 M8.25 11.95 L8.35 11.95 8.35 12.1 8.25 11.95 M8.3 11.8 L8.4 11.8 8.55 11.65 8.55 11.85 8.65 11.8 8.7 11.95 8.6 12.05 8.4 12.1 8.35 11.95 8.3 11.8" fill="#7f6600" fill-rule="evenodd" stroke="none"/>
    <path d="M10.0 1.3 L10.0 1.2 10.3 1.2 10.05 1.25 10.0 1.3 M9.8 12.2 L9.5 12.15 9.1 12.15 9.2 11.75 9.2 11.45 9.15 11.1 9.05 10.9 9.0 10.8 8.8 10.6 8.85 10.5 8.8 10.5 8.8 9.5 8.95 8.9 9.0 8.45 9.85 8.5 9.8 12.2 M6.9 6.85 L7.0 6.8 7.1 6.85 7.25 6.9 7.35 6.95 7.45 7.05 7.65 4.4 7.75 4.4 7.85 3.7 7.95 3.7 8.05 3.05 8.0 3.05 8.1 2.5 8.25 2.45 8.35 2.5 8.4 2.5 8.5 2.65 8.65 2.95 8.4 4.5 8.5 4.55 8.3 7.7 8.25 7.75 8.0 7.85 7.95 7.95 7.85 8.3 8.3 8.3 8.3 8.75 8.2 8.8 8.2 9.1 8.05 9.15 8.0 9.15 8.05 9.45 7.75 9.5 7.7 9.2 7.55 9.2 7.65 9.5 7.65 9.7 7.25 9.75 7.2 9.4 7.1 9.35 7.1 9.0 7.0 9.0 6.95 7.25 6.9 6.85 M11.1 4.1 L11.25 2.95 11.2 4.35 11.15 4.35 11.15 4.5 11.1 4.1 M11.3 6.7 L11.05 5.4 11.15 4.9 11.2 4.9 11.25 4.8 11.3 4.75 11.35 4.75 11.3 4.9 11.35 4.95 11.4 5.1 11.4 5.35 11.45 5.35 11.35 6.5 11.4 6.7 11.3 6.7 M10.6 9.2 L10.6 9.7 10.55 9.7 10.4 9.75 10.65 8.85 10.6 9.2 M10.4 9.8 L10.4 9.85 10.35 9.9 10.4 9.8 M8.95 2.1 L9.9 2.15 10.0 2.15 9.9 5.75 9.85 5.75 9.05 5.7 8.95 4.95 8.95 4.7 8.9 4.25 8.95 2.1" fill="#ffcc00" fill-rule="evenodd" stroke="none"/>
    <path d="M10.3 1.2 L10.55 1.1 11.0 1.1 11.0 1.15 11.2 1.2 11.4 1.35 11.45 1.45 11.4 1.7 11.25 2.95 11.1 4.1 11.05 4.45 11.15 4.6 11.05 4.5 11.0 4.8 11.0 5.15 11.2 4.75 11.15 4.9 11.05 5.4 11.3 6.7 11.35 7.15 11.45 7.1 11.4 7.05 11.45 7.0 11.45 6.95 11.5 6.85 11.5 6.65 11.6 5.45 11.55 5.4 11.75 3.7 11.85 4.45 11.7 6.4 11.6 6.85 11.55 7.0 11.45 7.2 11.4 7.25 11.3 7.3 11.35 7.35 11.15 8.25 11.35 8.6 11.25 9.15 11.0 9.75 10.75 10.2 10.7 10.2 10.55 10.3 10.25 10.3 10.3 10.1 10.4 10.15 10.6 10.05 10.65 10.0 10.7 9.85 10.7 9.75 10.75 9.65 10.75 9.6 10.8 9.55 10.85 9.0 10.8 8.95 10.85 8.7 10.8 8.65 10.85 8.55 10.75 8.45 10.9 7.9 11.0 7.95 10.95 7.9 11.05 7.8 11.0 7.55 11.2 6.85 10.3 3.5 10.05 2.2 10.0 2.15 9.9 2.15 9.45 1.95 9.1 1.9 8.35 1.9 9.15 1.65 9.4 1.6 9.6 1.6 9.65 1.5 9.7 1.45 9.7 1.6 9.9 1.6 9.95 1.65 10.1 1.7 10.3 1.8 10.35 1.85 10.45 2.0 10.65 2.9 10.65 3.0 10.7 3.1 10.7 3.3 10.9 3.3 10.9 3.7 11.2 1.65 11.2 1.55 11.0 1.45 10.95 1.4 10.85 1.35 10.75 1.3 10.5 1.25 10.05 1.25 10.3 1.2 M11.45 1.95 L11.55 2.55 11.55 3.25 11.55 3.9 11.45 4.45 11.35 4.65 11.45 1.95 M9.5 12.15 L9.3 12.4 9.15 12.45 9.1 12.5 8.8 12.6 8.7 12.55 8.6 12.6 8.5 12.6 8.25 12.45 8.0 12.25 7.8 11.9 7.5 11.75 7.3 11.55 6.9 10.4 6.65 9.1 6.55 7.6 6.65 7.15 6.7 8.85 6.75 8.9 6.85 9.6 6.9 9.65 7.05 10.35 7.15 10.4 7.25 10.9 7.3 11.05 7.4 11.1 7.45 11.4 7.55 11.4 7.65 11.65 7.7 11.65 7.65 11.5 7.65 11.45 7.95 11.35 7.85 11.55 8.0 11.55 8.1 11.6 8.45 11.6 8.75 11.55 9.05 10.9 9.15 11.1 9.2 11.45 9.2 11.75 9.1 12.15 9.5 12.15 M7.1 6.85 L7.25 4.8 7.6 3.25 7.7 3.0 7.65 3.15 7.75 3.1 7.5 4.2 7.25 6.9 7.1 6.85 M8.1 2.5 L8.0 2.2 8.0 2.1 8.05 2.05 8.15 2.0 8.25 2.45 8.1 2.5 M8.75 3.25 L8.95 2.1 8.9 4.25 8.85 4.05 8.85 3.8 8.75 3.25 M9.05 5.7 L9.05 6.25 8.75 7.2 8.6 7.4 8.85 4.45 8.9 4.25 8.95 4.7 8.95 4.95 9.05 5.7 M8.8 10.6 L8.65 10.95 8.5 11.1 8.4 11.15 8.3 11.25 8.25 11.15 8.35 11.05 8.2 10.45 8.25 10.35 8.25 10.15 8.1 10.15 8.0 10.1 7.95 10.05 8.1 10.05 8.3 9.95 8.45 9.8 8.4 9.7 8.55 9.55 8.55 9.4 8.6 9.3 8.55 8.9 8.65 8.8 8.6 8.35 9.05 8.4 9.9 5.75 11.2 6.85 9.85 8.5 9.0 8.45 8.95 8.9 8.8 9.5 8.8 10.5 8.85 10.5 8.8 10.6 M7.8 9.9 L7.85 9.95 7.85 10.0 7.8 9.9 M8.3 11.8 L8.35 11.95 8.4 12.1 8.6 12.05 8.7 11.95 8.65 11.8 8.55 11.85 8.55 11.65 8.4 11.8 8.3 11.8 M8.25 11.95 L8.35 12.1 8.35 11.95 8.25 11.95" fill="#000000" fill-rule="evenodd" stroke="none"/>
    <path d="M8.15 2.0 L8.35 1.9 9.1 1.9 9.45 1.95 9.9 2.15 8.95 2.1 8.75 3.25 8.65 2.95 8.5 2.65 8.4 2.5 8.35 2.5 8.25 2.45 8.15 2.0 M9.7 1.45 L10.0 1.3 10.05 1.25 10.5 1.25 10.35 1.85 10.3 1.8 10.1 1.7 9.95 1.65 9.9 1.6 9.7 1.6 9.7 1.45 M10.85 1.35 L10.95 1.4 11.0 1.45 11.2 1.55 11.2 1.65 10.9 3.7 10.9 3.3 10.7 3.3 10.7 3.1 10.95 1.4 10.65 3.0 10.65 2.9 10.85 1.35 M10.0 2.15 L10.05 2.2 10.3 3.5 10.0 2.15 M11.0 7.55 L11.05 7.8 10.95 7.9 10.9 7.9 11.0 7.55" fill="#646464" fill-rule="evenodd" stroke="none"/>
    <path d="M10.5 1.25 L10.75 1.3 10.85 1.35 10.65 2.9 10.45 2.0 10.35 1.85 10.5 1.25 M10.7 3.1 L10.65 3.0 10.95 1.4 10.7 3.1" fill="#c8c8c8" fill-rule="evenodd" stroke="none"/>
  </g>
</svg>
