<?xml version="1.0" encoding="UTF-8" standalone="no"?>
<svg xmlns:ffdec="https://www.free-decompiler.com/flash" xmlns:xlink="http://www.w3.org/1999/xlink" ffdec:objectType="shape" height="11.25px" width="8.4px" xmlns="http://www.w3.org/2000/svg">
  <g transform="matrix(1.0, 0.0, 0.0, 1.0, -4.6, -1.1)">
    <path d="M12.55 2.3 L12.35 3.75 12.35 4.35 12.4 4.65 12.45 4.6 12.7 3.9 12.65 3.3 12.8 3.35 12.9 3.5 12.95 3.7 12.95 4.1 12.6 5.05 12.65 5.15 12.55 5.4 12.4 6.6 12.4 6.95 12.35 6.95 12.4 7.0 12.35 7.1 12.35 7.15 12.2 7.3 12.25 7.3 12.15 7.35 12.15 7.4 12.1 7.4 12.05 7.25 12.05 7.15 12.05 7.0 12.15 6.95 12.15 6.8 12.2 6.8 12.2 6.5 12.4 5.25 12.4 5.05 12.35 5.05 12.4 4.85 12.3 4.8 12.2 4.8 12.2 4.85 12.15 4.85 12.1 5.0 12.1 4.95 12.0 5.15 11.95 5.15 11.95 5.4 11.9 5.35 11.7 6.4 11.4 5.65 11.85 4.8 11.4 5.6 11.1 4.95 11.3 4.25 11.85 4.8 11.4 3.9 11.8 2.5 11.75 3.2 11.8 3.9 11.85 4.8 11.85 5.05 11.85 5.2 11.9 5.0 12.05 4.9 12.1 4.9 12.15 4.85 12.1 4.6 12.2 4.6 12.15 4.2 12.4 1.65 12.55 2.3 M4.7 6.7 L4.7 6.65 4.85 6.6 4.95 8.0 5.0 8.0 5.1 9.1 5.2 9.1 5.3 9.45 5.3 9.1 5.4 9.45 5.5 9.4 5.6 9.8 5.8 9.7 5.75 9.55 5.6 9.45 5.55 9.25 5.5 9.15 5.45 9.0 5.45 8.95 5.35 8.3 5.4 8.15 5.45 8.6 5.5 8.6 5.55 8.95 5.75 8.95 5.8 9.25 6.25 9.1 6.15 8.85 6.3 8.8 6.25 8.55 6.35 8.5 6.35 8.2 6.15 8.2 5.45 8.05 5.85 7.6 6.0 7.6 6.25 7.45 6.35 7.35 6.4 6.4 6.9 4.0 6.95 3.9 6.85 3.85 6.9 3.8 7.05 3.35 7.1 3.6 7.1 3.9 7.1 4.9 7.4 6.2 7.45 6.1 7.5 5.95 7.45 5.65 7.45 5.6 8.4 5.7 8.55 2.1 10.05 6.9 9.45 4.5 10.7 3.35 10.65 3.75 10.4 5.1 10.15 6.5 10.05 6.9 9.55 8.5 9.15 9.7 8.9 10.35 8.3 12.1 8.35 8.45 10.05 6.9 6.5 8.2 7.25 8.3 7.15 8.7 7.0 8.95 6.9 9.3 6.8 9.5 6.7 9.65 6.65 9.6 6.4 9.85 6.3 9.85 6.2 9.8 6.0 9.8 5.9 9.65 5.8 9.65 5.85 9.7 6.0 9.8 6.05 9.9 6.3 9.95 6.55 9.85 6.6 9.8 6.7 9.75 6.8 9.65 6.85 9.65 7.2 9.0 7.25 9.05 7.4 9.5 7.4 10.1 7.25 10.6 7.4 10.4 7.4 10.45 7.7 10.9 7.8 11.35 7.7 11.45 7.75 11.55 7.75 11.65 7.55 11.95 7.35 12.15 7.2 12.0 7.2 12.05 7.05 12.1 6.95 12.0 6.85 12.0 6.75 11.85 6.65 11.85 6.45 11.55 6.5 11.55 6.35 11.35 6.25 11.3 6.05 11.3 6.25 11.1 6.2 11.1 6.0 11.15 5.95 11.15 5.95 11.2 5.7 10.8 5.65 10.8 5.35 10.15 5.3 10.1 5.05 9.4 5.0 9.35 4.9 9.05 4.85 8.65 4.8 8.65 4.75 8.1 4.75 8.3 4.7 6.7 M6.3 2.55 L6.45 2.4 6.6 2.4 6.05 3.95 5.95 3.95 5.75 4.85 5.5 7.05 5.45 7.0 5.45 6.95 5.4 6.9 5.3 6.85 5.6 4.5 5.95 3.5 5.9 3.7 6.3 2.55 M11.3 8.0 L11.55 7.75 11.65 7.65 11.5 8.15 11.4 8.1 11.3 8.0 M10.0 9.15 L10.0 8.95 10.05 8.65 10.1 8.6 10.15 8.45 10.2 8.5 10.3 8.3 10.45 8.3 10.4 8.25 10.65 8.2 10.6 8.15 10.65 8.1 10.8 8.15 10.85 8.05 10.95 8.15 11.0 8.1 11.1 8.3 11.05 8.4 11.1 8.55 10.95 8.75 11.0 8.85 10.85 9.05 10.95 9.1 10.9 9.15 10.8 9.55 10.75 9.6 10.8 9.65 10.75 9.75 10.75 9.85 10.7 9.9 10.75 10.0 10.65 10.1 10.35 10.25 10.35 10.15 10.1 10.1 10.1 10.0 10.0 10.0 10.0 9.85 9.95 9.85 9.95 9.15 10.0 9.15 10.0 9.75 10.15 9.75 10.2 9.9 10.4 9.85 10.4 9.75 10.5 9.7 10.5 9.6 10.6 9.6 10.6 9.4 10.65 9.15 10.6 9.1 10.6 9.0 10.7 8.8 10.6 8.7 10.65 8.55 10.45 8.45 10.4 8.65 10.25 8.6 10.2 8.8 10.15 8.8 10.05 9.2 10.0 9.15 M5.45 8.05 L5.4 8.1 5.4 7.8 5.45 8.05 M9.35 9.95 L9.25 10.2 9.2 10.05 9.35 9.95" fill="#7f6600" fill-rule="evenodd" stroke="none"/>
    <path d="M12.55 2.3 L12.6 2.5 12.65 3.15 12.65 3.3 12.7 3.9 12.45 4.6 12.4 4.65 12.35 4.35 12.35 3.75 12.55 2.3 M12.95 4.1 L13.0 4.45 12.65 6.65 12.45 7.2 12.25 7.4 11.85 8.4 11.85 8.45 11.95 8.55 11.95 8.65 11.7 9.3 11.4 9.7 10.9 10.15 10.8 10.25 10.6 10.35 10.35 10.35 10.1 10.2 10.0 10.1 9.9 10.35 9.55 10.9 9.25 11.25 8.9 11.85 8.7 12.05 8.35 12.25 7.75 12.35 7.35 12.35 6.85 12.25 6.5 11.95 6.25 11.6 5.95 11.4 5.6 11.0 5.3 10.45 4.8 9.15 4.6 7.0 4.6 6.75 4.7 6.7 4.75 8.3 4.75 8.1 4.8 8.65 4.85 8.65 4.9 9.05 5.0 9.35 5.05 9.4 5.3 10.1 5.35 10.15 5.65 10.8 5.7 10.8 5.95 11.2 5.95 11.15 6.0 11.15 6.2 11.1 6.25 11.1 6.05 11.3 6.25 11.3 6.35 11.35 6.5 11.55 6.45 11.55 6.65 11.85 6.75 11.85 6.85 12.0 6.95 12.0 7.05 12.1 7.2 12.05 7.2 12.0 7.35 12.15 7.55 11.95 7.75 11.65 7.65 11.95 8.3 12.1 8.9 10.35 8.95 10.3 9.15 10.0 9.6 8.5 9.55 8.5 10.05 6.9 10.15 6.5 10.5 5.4 10.4 5.1 10.65 3.75 10.7 3.9 10.8 4.2 10.8 4.35 11.6 1.7 11.5 1.55 11.45 1.5 11.35 1.4 11.05 1.3 10.95 1.3 10.6 1.25 10.9 1.2 11.1 1.2 11.6 1.1 11.8 1.15 12.05 1.25 12.1 1.35 12.1 1.5 11.8 2.5 11.4 3.9 11.85 4.8 11.8 3.9 11.9 4.25 12.05 4.45 11.85 4.8 11.3 4.25 11.1 4.95 11.4 5.6 11.85 4.8 11.4 5.65 11.7 6.4 11.9 6.85 12.0 7.0 12.05 7.15 12.05 7.25 12.1 7.4 12.15 7.4 12.15 7.35 12.25 7.3 12.2 7.3 12.35 7.15 12.35 7.1 12.4 7.0 12.35 6.95 12.4 6.95 12.4 6.6 12.55 5.4 12.65 5.15 12.6 5.05 12.95 4.1 M5.2 6.75 L5.3 5.6 5.5 4.55 6.3 2.55 5.9 3.7 5.95 3.5 5.6 4.5 5.3 6.85 5.4 6.9 5.45 6.95 5.45 7.0 5.3 6.85 5.2 6.75 M7.1 3.9 L7.45 5.6 7.45 5.65 7.5 5.95 7.45 6.1 7.4 6.2 7.1 4.9 7.1 3.9 M7.6 2.95 L7.1 2.0 7.15 1.9 7.3 1.9 7.6 2.45 7.6 2.95 M7.65 1.85 L8.7 1.6 8.95 1.6 9.25 1.55 9.85 1.75 9.95 1.9 10.05 1.45 10.15 1.4 10.0 2.0 10.35 3.0 10.45 3.3 10.7 3.35 9.45 4.5 10.05 6.9 8.55 2.1 9.3 4.05 9.35 4.05 9.8 4.0 9.95 3.9 9.3 2.35 8.85 2.1 8.0 1.85 7.65 1.85 M11.85 5.05 L11.9 5.0 11.85 5.2 11.85 5.05 M10.45 7.3 L10.75 7.9 10.45 7.25 10.45 7.3 M11.55 7.75 L10.8 6.05 10.5 7.2 10.8 7.9 10.9 7.85 11.15 7.9 11.3 8.0 11.4 8.1 11.5 8.15 11.65 7.65 11.55 7.75 M10.0 9.15 L9.95 9.15 9.95 9.85 10.0 9.85 10.0 10.0 10.1 10.0 10.1 10.1 10.35 10.15 10.35 10.25 10.65 10.1 10.75 10.0 10.7 9.9 10.75 9.85 10.75 9.75 10.8 9.65 10.75 9.6 10.8 9.55 10.9 9.15 10.95 9.1 10.85 9.05 11.0 8.85 10.95 8.75 11.1 8.55 11.05 8.4 11.1 8.3 11.0 8.1 10.95 8.15 10.85 8.05 10.8 8.15 10.65 8.1 10.6 8.15 10.65 8.2 10.4 8.25 10.45 8.3 10.3 8.3 10.2 8.5 10.15 8.45 10.1 8.6 10.05 8.65 10.0 8.95 10.0 9.15 M10.1 8.45 L10.2 8.3 10.15 8.35 10.1 8.45 M7.4 9.5 L7.25 9.05 7.2 9.0 6.85 9.65 6.8 9.65 6.7 9.75 6.6 9.8 6.55 9.85 6.3 9.95 6.05 9.9 6.0 9.8 5.85 9.7 5.8 9.65 5.9 9.65 6.0 9.8 6.2 9.8 6.3 9.85 6.4 9.85 6.65 9.6 6.7 9.65 6.8 9.5 6.9 9.3 7.0 8.95 7.15 8.7 7.25 8.3 6.5 8.2 10.05 6.9 8.35 8.45 7.4 8.3 7.35 8.55 7.4 8.7 7.4 9.5 M7.4 10.1 L7.4 10.4 7.25 10.6 7.4 10.1 M7.8 11.35 L7.8 11.5 7.75 11.55 7.7 11.45 7.8 11.35 M9.35 9.95 L9.2 10.05 9.25 10.2 9.35 9.95" fill="#000000" fill-rule="evenodd" stroke="none"/>
    <path d="M4.85 6.6 L5.0 6.65 5.2 6.75 5.3 6.85 5.45 7.0 5.5 7.05 5.75 4.85 5.95 3.95 6.05 3.95 6.6 2.4 6.7 2.45 6.85 2.65 7.0 3.1 7.05 3.35 6.9 3.8 6.85 3.85 6.95 3.9 6.9 4.0 6.4 6.4 6.35 7.35 6.25 7.45 6.0 7.6 5.85 7.6 5.45 8.05 6.15 8.2 6.35 8.2 6.35 8.5 6.25 8.55 6.3 8.8 6.15 8.85 6.25 9.1 5.8 9.25 5.75 8.95 5.55 8.95 5.5 8.6 5.45 8.6 5.4 8.15 5.35 8.3 5.45 8.95 5.45 9.0 5.5 9.15 5.55 9.25 5.6 9.45 5.75 9.55 5.8 9.7 5.6 9.8 5.5 9.4 5.4 9.45 5.3 9.1 5.3 9.45 5.2 9.1 5.1 9.1 5.0 8.0 4.95 8.0 4.85 6.6 M7.45 5.6 L7.6 2.95 7.6 2.45 7.6 2.1 8.55 2.1 8.4 5.7 7.45 5.6 M12.05 1.25 L12.15 1.3 12.25 1.4 12.35 1.65 12.4 1.65 12.15 4.2 12.2 4.6 12.1 4.6 12.15 4.85 12.1 4.9 12.05 4.9 11.9 5.0 11.85 5.05 11.85 4.8 12.05 4.45 11.9 4.25 11.8 3.9 11.75 3.2 11.8 2.5 12.1 1.5 12.1 1.35 12.05 1.25 M8.3 12.1 L7.65 11.95 7.75 11.65 7.75 11.55 7.8 11.5 7.8 11.35 7.7 10.9 7.4 10.45 7.4 10.4 7.4 10.1 7.4 9.5 7.4 8.7 7.4 8.3 8.35 8.45 8.3 12.1 M11.7 6.4 L11.9 5.35 11.95 5.4 11.95 5.15 12.0 5.15 12.1 4.95 12.1 5.0 12.15 4.85 12.2 4.85 12.2 4.8 12.3 4.8 12.4 4.85 12.35 5.05 12.4 5.05 12.4 5.25 12.2 6.5 12.2 6.8 12.15 6.8 12.15 6.95 12.05 7.0 12.05 7.15 12.0 7.0 11.9 6.85 11.7 6.4 M10.0 9.15 L10.05 9.2 10.15 8.8 10.2 8.8 10.25 8.6 10.4 8.65 10.45 8.45 10.65 8.55 10.6 8.7 10.7 8.8 10.6 9.0 10.6 9.1 10.65 9.15 10.6 9.4 10.6 9.6 10.5 9.6 10.5 9.7 10.4 9.75 10.4 9.85 10.2 9.9 10.15 9.75 10.0 9.75 10.0 9.15 M5.45 8.05 L5.4 7.8 5.4 8.1 5.45 8.05" fill="#ffcc00" fill-rule="evenodd" stroke="none"/>
    <path d="M7.3 1.9 L7.4 1.85 7.65 1.85 8.0 1.85 8.85 2.1 9.3 2.35 9.95 3.9 9.8 4.0 9.35 4.05 9.3 4.05 8.55 2.1 7.6 2.1 7.6 2.45 7.3 1.9 M10.15 1.4 L10.35 1.3 10.6 1.25 10.95 1.3 10.35 3.0 10.0 2.0 10.15 1.4 M11.45 1.5 L11.5 1.55 11.6 1.7 10.8 4.35 10.8 4.2 10.7 3.9 11.45 1.5 M10.4 5.1 L10.5 5.4 10.15 6.5 10.4 5.1 M9.55 8.5 L9.6 8.5 9.15 10.0 8.95 10.3 9.15 9.7 9.55 8.5 M11.3 8.0 L11.15 7.9 10.9 7.85 10.8 7.9 10.5 7.2 10.8 6.05 11.55 7.75 11.3 8.0 M10.45 7.3 L10.45 7.25 10.75 7.9 10.45 7.3" fill="#646464" fill-rule="evenodd" stroke="none"/>
    <path d="M10.95 1.3 L11.05 1.3 11.35 1.4 11.45 1.5 10.7 3.9 10.65 3.75 10.7 3.35 10.45 3.3 10.35 3.0 10.95 1.3 M8.95 10.3 L8.9 10.35 9.15 9.7 8.95 10.3" fill="#c8c8c8" fill-rule="evenodd" stroke="none"/>
  </g>
</svg>
