<?xml version="1.0" encoding="UTF-8" standalone="no"?>
<svg xmlns:ffdec="https://www.free-decompiler.com/flash" xmlns:xlink="http://www.w3.org/1999/xlink" ffdec:objectType="shape" height="10.95px" width="11.1px" xmlns="http://www.w3.org/2000/svg">
  <g transform="matrix(1.0, 0.0, 0.0, 1.0, -3.0, -1.15)">
    <path d="M12.95 1.3 L13.05 1.25 13.2 1.35 13.4 1.75 13.45 2.0 13.4 2.65 13.15 3.8 13.15 4.25 13.1 4.25 13.1 4.35 13.15 4.9 13.2 4.95 13.35 4.75 13.35 4.8 13.45 4.85 13.35 5.0 13.4 5.05 13.3 5.25 13.4 5.25 13.25 5.55 13.2 5.85 13.25 5.85 13.2 6.0 13.05 6.8 13.0 6.8 13.0 6.95 12.95 6.95 12.95 7.1 12.9 7.1 12.9 7.25 12.8 7.25 12.8 7.3 12.75 7.15 12.5 6.8 12.5 6.4 12.75 5.5 12.8 5.5 12.8 5.4 12.95 5.1 13.0 5.1 13.05 5.0 13.05 4.95 13.0 4.95 13.0 5.0 12.95 5.0 12.85 5.05 12.75 5.1 12.75 4.95 12.65 4.95 12.8 4.7 12.85 4.65 12.9 4.55 12.7 4.15 12.6 3.8 13.0 1.5 12.95 1.5 12.95 1.3 M3.25 6.35 L3.3 6.35 3.5 6.5 3.75 6.75 3.8 6.35 4.2 4.5 4.3 4.5 4.5 3.9 5.3 2.35 5.45 2.7 5.5 3.0 5.55 3.3 5.55 3.8 5.55 4.3 5.3 5.0 5.0 6.45 4.95 6.85 4.6 7.05 4.0 7.3 3.8 7.5 3.8 7.4 3.75 7.35 3.75 6.85 3.8 6.8 3.75 6.75 3.75 6.85 3.6 7.6 3.5 7.7 3.6 7.75 3.65 8.05 3.65 8.5 3.85 8.85 3.9 8.95 4.1 9.2 4.1 9.25 4.15 9.3 4.35 9.45 4.55 9.55 4.6 9.55 4.75 9.85 4.55 10.0 4.4 9.6 4.3 9.65 4.1 9.3 4.2 9.7 3.95 9.2 3.9 8.95 3.8 9.0 3.7 8.7 3.6 8.7 3.55 8.35 3.45 8.35 3.35 7.8 3.35 7.2 3.25 6.35 M11.25 5.0 L12.5 4.85 11.75 5.8 11.25 5.0 M11.85 7.95 L11.9 7.9 11.85 8.05 11.9 8.1 11.85 8.2 11.65 8.05 11.85 7.95 M10.3 7.1 L10.5 7.25 10.2 7.65 10.1 7.6 10.1 7.55 10.2 7.35 10.25 7.1 10.3 7.1 M8.65 9.9 L8.6 9.85 8.7 9.8 8.65 9.9 M13.8 3.9 L14.05 3.55 13.75 4.05 13.8 3.9 M13.75 4.1 L14.05 3.6 13.75 4.25 13.7 4.2 13.75 4.1 M10.35 8.65 L10.45 8.5 10.8 8.75 10.7 8.9 10.75 8.95 10.65 9.15 10.5 9.7 10.35 9.75 10.4 9.85 10.15 9.9 10.1 9.9 10.05 9.8 9.95 9.75 10.0 9.4 9.9 9.4 10.0 9.2 10.1 8.8 10.2 8.8 10.3 8.65 10.35 8.65 M7.25 2.1 L9.0 6.9 6.9 11.85 6.95 8.3 9.0 6.9 4.3 7.95 7.05 5.6 7.25 2.1 M6.25 10.3 L6.35 10.45 6.35 10.5 6.15 10.6 6.05 10.45 6.25 10.3 6.2 10.25 6.2 10.2 6.25 10.3 M4.95 8.0 L4.95 8.05 4.8 8.1 4.85 8.55 4.8 8.6 4.85 8.8 4.65 8.95 4.35 9.05 4.25 8.85 4.15 8.85 4.05 8.55 3.95 8.55 3.9 8.25 3.8 8.25 3.8 7.75 4.3 7.95 4.95 8.0 M6.15 10.6 L5.5 11.0 5.35 11.0 5.15 10.95 6.0 10.6 5.35 11.0 6.15 10.6" fill="#ffcc00" fill-rule="evenodd" stroke="none"/>
    <path d="M13.5 2.0 L13.55 2.05 13.65 2.45 13.75 3.45 13.8 3.9 13.75 4.05 13.75 4.1 13.7 4.2 13.4 4.7 13.4 4.05 13.6 2.75 13.5 2.0 M14.1 4.3 L14.1 4.4 14.0 5.3 13.65 6.8 13.35 7.3 13.15 7.5 12.55 8.6 12.5 8.65 12.6 8.7 12.55 8.75 12.2 9.35 11.95 9.65 11.35 10.1 10.85 10.35 10.55 10.4 10.35 10.35 10.3 10.35 10.1 10.25 10.15 10.25 10.0 10.2 10.0 10.1 9.6 10.6 9.2 10.95 8.4 11.5 8.35 11.6 7.95 11.9 7.8 11.95 7.7 12.0 7.15 12.1 6.75 12.1 5.95 12.0 5.75 11.95 5.2 11.55 4.5 10.85 4.45 10.85 4.4 10.8 4.45 10.8 4.35 10.6 4.2 10.45 3.65 9.6 3.55 9.3 3.35 8.9 3.35 8.75 3.3 8.8 3.15 8.2 3.0 6.45 3.05 6.35 3.05 6.3 3.1 6.25 3.25 7.75 3.2 7.75 3.3 8.6 3.45 8.7 3.4 8.75 3.6 9.35 3.65 9.35 4.25 10.4 4.3 10.4 4.55 10.7 4.65 10.65 4.75 10.7 4.5 10.85 4.75 10.95 5.05 11.2 5.45 11.65 5.55 11.6 5.7 11.75 5.8 11.75 5.95 11.85 6.05 11.8 6.25 11.9 6.3 11.85 6.8 11.95 6.85 11.85 6.9 11.85 7.35 11.9 7.55 11.8 7.85 11.75 7.75 11.7 7.95 11.7 8.05 11.65 8.1 11.55 8.25 11.45 8.3 11.4 8.3 11.35 8.35 11.3 8.6 11.0 8.65 10.85 8.6 10.55 8.65 10.45 8.6 10.25 8.6 10.2 8.5 10.1 8.55 10.05 8.45 9.95 7.85 10.3 8.15 10.05 9.3 9.35 9.75 8.35 8.85 8.4 8.55 8.45 7.6 10.45 6.9 11.85 9.0 6.9 7.25 2.1 8.4 4.05 9.15 4.05 9.15 4.0 9.35 3.95 10.2 3.45 9.5 2.15 9.5 2.0 9.95 2.75 10.55 1.4 10.7 1.3 10.0 2.85 10.25 3.35 10.45 3.35 8.6 4.45 9.05 6.85 10.35 3.7 10.4 3.6 10.7 4.15 10.75 4.3 10.35 3.7 9.75 5.45 9.5 6.1 9.7 6.6 10.1 7.5 10.2 7.35 10.1 7.55 10.1 7.6 10.4 8.25 9.8 8.35 9.75 8.4 10.0 8.6 10.05 8.65 10.05 8.6 10.1 8.55 10.15 8.4 10.4 8.25 10.55 8.2 10.9 8.0 10.7 7.9 10.4 7.45 10.2 7.65 10.5 7.25 10.3 7.1 10.4 6.8 11.25 7.95 11.3 7.95 11.45 8.0 11.55 8.0 11.65 8.05 11.85 8.2 12.05 8.35 12.15 8.1 12.5 7.55 11.9 7.9 11.85 7.95 11.95 7.8 12.3 7.55 12.5 7.35 12.65 7.35 11.2 5.05 11.25 4.95 11.25 5.0 11.75 5.8 12.5 4.85 12.5 3.5 12.5 3.35 12.75 1.75 12.85 1.5 12.5 3.5 12.55 3.55 12.55 3.6 12.6 3.8 12.7 4.15 12.9 4.55 12.85 4.65 12.8 4.7 12.65 4.95 12.6 5.05 12.65 5.25 12.7 5.2 12.7 5.15 12.75 5.1 12.85 5.05 12.75 5.3 12.7 5.3 12.7 5.4 12.65 5.45 12.65 5.4 12.5 5.95 12.5 5.65 12.65 5.4 12.6 5.35 12.55 5.2 12.5 5.25 12.5 4.85 11.85 6.0 12.3 6.65 12.35 6.65 12.45 6.35 12.4 6.7 12.4 6.75 12.35 6.8 12.75 7.4 12.8 7.35 12.9 7.55 12.95 7.55 13.1 7.45 13.25 7.3 13.3 7.15 13.3 7.1 13.35 7.05 13.3 6.95 13.3 6.75 13.35 6.3 13.55 5.5 14.0 4.75 14.1 4.3 M3.3 6.35 L3.6 6.5 3.65 6.1 3.65 6.0 3.85 4.85 4.25 3.75 4.8 2.75 4.85 2.55 5.0 2.35 5.1 2.3 4.3 3.8 4.2 4.2 3.9 4.95 3.65 6.55 3.75 6.75 3.5 6.5 3.3 6.35 M5.5 3.0 L5.8 4.3 6.15 5.45 6.15 5.55 6.2 5.65 6.1 5.85 5.55 3.8 5.55 3.3 5.5 3.0 M6.45 2.1 L6.3 1.9 6.4 1.8 6.6 1.8 6.8 2.05 6.45 2.0 6.45 2.1 M6.7 1.8 L8.75 1.55 9.1 1.6 9.35 1.75 9.4 1.85 7.8 2.05 7.25 1.9 7.2 1.9 6.7 1.8 M11.05 1.3 L12.35 1.15 12.5 1.15 12.7 1.2 12.75 1.3 12.75 1.5 12.7 1.5 11.9 1.65 11.8 1.5 11.7 1.5 11.65 1.45 11.4 1.35 11.25 1.3 11.05 1.3 M12.65 1.65 L12.5 2.15 12.5 2.0 12.45 2.15 12.25 2.65 12.5 2.0 12.65 1.65 M8.65 9.9 L8.75 10.15 8.8 10.6 8.8 10.7 8.7 11.05 9.2 10.75 9.2 10.65 9.45 10.5 9.9 10.05 9.85 9.85 9.95 9.9 10.0 10.05 10.1 10.15 10.2 10.15 10.3 10.25 10.4 10.25 10.5 10.3 10.7 10.15 10.8 10.2 10.9 10.0 11.0 10.0 11.05 9.9 11.15 9.85 11.15 9.75 11.5 9.6 11.8 9.4 11.9 9.35 11.95 9.0 12.0 8.9 11.8 8.8 11.8 8.7 11.75 8.65 11.75 8.5 11.7 8.4 11.65 8.35 11.55 8.15 11.45 8.15 11.35 8.05 11.2 8.1 11.15 8.05 11.0 8.15 10.95 8.1 10.8 8.2 10.75 8.15 10.65 8.25 10.55 8.25 10.25 8.5 10.2 8.55 10.1 8.6 10.05 8.65 9.95 9.0 10.0 8.8 10.0 8.75 9.95 8.75 9.9 8.55 9.75 8.55 9.7 8.5 9.3 9.45 8.7 9.8 8.6 9.85 8.65 9.9 M4.15 9.3 L4.3 9.3 4.45 9.45 4.55 9.4 4.7 9.5 4.8 9.4 4.95 9.45 5.1 9.3 5.15 9.3 5.2 9.2 5.3 9.15 5.7 8.75 5.8 8.6 5.75 8.55 5.9 8.15 6.2 8.2 6.2 8.45 6.05 8.2 5.95 8.5 5.45 9.2 5.15 9.4 5.05 9.5 4.7 9.55 4.6 9.55 4.55 9.55 4.35 9.45 4.15 9.3 4.1 9.25 4.1 9.2 3.9 8.95 3.85 8.85 3.65 8.5 3.75 8.55 3.85 8.85 3.9 8.85 4.0 9.05 4.1 9.2 4.15 9.3 M9.8 9.7 L9.85 9.7 9.85 9.8 9.8 9.7" fill="#000000" fill-rule="evenodd" stroke="none"/>
    <path d="M6.6 1.8 L6.7 1.8 7.2 1.9 7.25 1.9 7.8 2.05 9.4 1.85 9.5 2.0 9.5 2.15 10.2 3.45 9.35 3.95 9.15 4.0 9.15 4.05 8.4 4.05 7.25 2.1 6.8 2.05 6.6 1.8 M10.7 1.3 L11.05 1.3 11.25 1.3 11.4 1.35 10.45 3.35 10.25 3.35 10.0 2.85 10.7 1.3 M12.7 1.5 L12.65 1.65 12.5 2.0 12.25 2.65 11.25 4.95 11.2 5.05 12.65 7.35 12.5 7.35 12.3 7.55 11.95 7.8 11.85 7.95 11.65 8.05 11.55 8.0 11.45 8.0 11.3 7.95 11.25 7.95 10.4 6.8 10.3 7.1 10.25 7.1 10.2 7.35 10.1 7.5 9.7 6.6 10.2 5.4 10.0 5.45 9.75 5.45 10.35 3.7 10.75 4.3 10.7 4.15 11.9 1.65 12.7 1.5 M8.85 8.4 L9.75 8.35 9.3 9.35 8.15 10.05 8.85 8.4" fill="#646464" fill-rule="evenodd" stroke="none"/>
    <path d="M13.45 2.0 L13.5 2.0 13.6 2.75 13.4 4.05 13.4 4.7 13.7 4.2 13.75 4.25 14.05 3.6 13.75 4.1 13.75 4.05 14.05 3.55 13.8 3.9 13.75 3.45 13.8 3.45 13.85 3.4 14.0 3.45 14.05 3.55 14.05 3.6 14.1 3.65 14.1 4.3 14.0 4.75 13.55 5.5 13.35 6.3 13.3 6.75 13.3 6.95 13.35 7.05 13.3 7.1 13.3 7.15 13.25 7.3 13.1 7.45 12.95 7.55 12.9 7.55 12.8 7.35 12.75 7.4 12.35 6.8 12.4 6.75 12.4 6.7 12.45 6.35 12.35 6.65 12.3 6.65 11.85 6.0 12.5 4.85 12.5 5.25 12.5 5.65 12.5 5.95 12.65 5.4 12.65 5.45 12.7 5.4 12.7 5.3 12.75 5.3 12.85 5.05 12.95 5.0 13.0 5.0 13.0 4.95 13.05 4.95 13.05 5.0 13.0 5.1 12.95 5.1 12.8 5.4 12.8 5.5 12.75 5.5 12.5 6.4 12.5 6.8 12.75 7.15 12.8 7.3 12.8 7.25 12.9 7.25 12.9 7.1 12.95 7.1 12.95 6.95 13.0 6.95 13.0 6.8 13.05 6.8 13.2 6.0 13.25 5.85 13.2 5.85 13.25 5.55 13.4 5.25 13.3 5.25 13.4 5.05 13.35 5.0 13.45 4.85 13.35 4.8 13.35 4.75 13.2 4.95 13.15 4.9 13.1 4.35 13.1 4.25 13.15 4.25 13.15 3.8 13.4 2.65 13.45 2.0 M3.1 6.25 L3.15 6.25 3.25 6.35 3.35 7.2 3.35 7.8 3.45 8.35 3.55 8.35 3.6 8.7 3.7 8.7 3.8 9.0 3.9 8.95 3.95 9.2 4.2 9.7 4.1 9.3 4.3 9.65 4.4 9.6 4.55 10.0 4.75 9.85 4.6 9.55 4.7 9.55 5.05 9.5 5.15 9.4 5.45 9.2 5.95 8.5 6.05 8.2 6.2 8.45 6.2 8.2 5.9 8.15 5.75 8.55 5.8 8.6 5.7 8.75 5.3 9.15 5.2 9.2 5.15 9.3 5.1 9.3 4.95 9.45 4.8 9.4 4.7 9.5 4.55 9.4 4.45 9.45 4.3 9.3 4.15 9.3 4.1 9.2 4.0 9.05 3.9 8.85 3.85 8.85 3.75 8.55 3.65 8.5 3.65 8.05 3.6 7.75 3.5 7.7 3.6 7.6 3.75 6.85 3.75 6.75 3.65 6.55 3.9 4.95 4.2 4.2 4.3 3.8 5.1 2.3 5.2 2.3 5.3 2.35 4.5 3.9 4.3 4.5 4.2 4.5 3.8 6.35 3.75 6.75 3.8 6.8 3.75 6.85 3.75 7.35 3.8 7.4 3.8 7.5 4.0 7.3 4.6 7.05 4.95 6.85 5.0 6.45 5.3 5.0 5.55 4.3 5.55 3.8 6.1 5.85 6.2 5.65 6.15 5.55 6.25 5.45 6.45 2.1 6.45 2.0 6.8 2.05 7.25 2.1 7.05 5.6 4.3 7.95 9.0 6.9 6.95 8.3 6.9 11.85 7.6 10.45 7.85 10.3 8.45 9.95 8.55 10.05 8.5 10.1 8.6 10.2 8.6 10.25 8.65 10.45 8.6 10.55 8.65 10.85 8.6 11.0 8.35 11.3 8.3 11.35 8.3 11.4 8.25 11.45 8.1 11.55 8.05 11.65 7.95 11.7 7.75 11.7 7.85 11.75 7.55 11.8 7.35 11.9 6.9 11.85 6.85 11.85 6.8 11.95 6.3 11.85 6.25 11.9 6.05 11.8 5.95 11.85 5.8 11.75 5.7 11.75 5.55 11.6 5.45 11.65 5.05 11.2 4.75 10.95 4.5 10.85 4.75 10.7 4.65 10.65 4.55 10.7 4.3 10.4 4.25 10.4 3.65 9.35 3.6 9.35 3.4 8.75 3.45 8.7 3.3 8.6 3.2 7.75 3.25 7.75 3.1 6.25 M12.45 2.15 L12.5 3.35 12.5 3.5 12.5 4.85 11.25 5.0 11.25 4.95 12.25 2.65 12.45 2.15 M12.85 1.5 L12.85 1.4 12.95 1.3 12.95 1.5 13.0 1.5 12.6 3.8 12.55 3.6 12.55 3.55 12.5 3.5 12.85 1.5 M12.65 4.95 L12.75 4.95 12.75 5.1 12.7 5.15 12.7 5.2 12.65 5.25 12.6 5.05 12.65 4.95 M10.45 3.35 L10.5 3.35 10.4 3.6 10.35 3.7 9.05 6.85 8.6 4.45 10.45 3.35 M11.9 7.9 L12.5 7.55 12.15 8.1 12.05 8.35 11.85 8.2 11.9 8.1 11.85 8.05 11.9 7.9 M10.05 8.65 L10.1 8.6 10.2 8.55 10.25 8.5 10.55 8.25 10.65 8.25 10.75 8.15 10.8 8.2 10.95 8.1 11.0 8.15 11.15 8.05 11.2 8.1 11.35 8.05 11.45 8.15 11.55 8.15 11.65 8.35 11.7 8.4 11.75 8.5 11.75 8.65 11.8 8.7 11.8 8.8 12.0 8.9 11.95 9.0 11.9 9.35 11.8 9.4 11.5 9.6 11.15 9.75 11.15 9.85 11.05 9.9 11.0 10.0 10.9 10.0 10.8 10.2 10.7 10.15 10.5 10.3 10.4 10.25 10.3 10.25 10.2 10.15 10.1 10.15 10.0 10.05 9.95 9.9 9.85 9.85 9.9 10.05 9.45 10.5 9.2 10.65 9.2 10.75 8.7 11.05 8.8 10.7 8.8 10.6 8.75 10.15 8.65 9.9 8.7 9.8 9.3 9.45 9.7 8.5 9.75 8.55 9.9 8.55 9.95 8.75 10.0 8.75 10.0 8.8 9.95 9.0 10.05 8.65 M10.35 8.65 L10.3 8.65 10.2 8.8 10.1 8.8 10.0 9.2 9.9 9.4 10.0 9.4 9.95 9.75 10.05 9.8 10.1 9.9 10.15 9.9 10.4 9.85 10.35 9.75 10.5 9.7 10.65 9.15 10.75 8.95 10.7 8.9 10.8 8.75 10.45 8.5 10.35 8.65 M4.95 8.0 L4.3 7.95 3.8 7.75 3.8 8.25 3.9 8.25 3.95 8.55 4.05 8.55 4.15 8.85 4.25 8.85 4.35 9.05 4.65 8.95 4.85 8.8 4.8 8.6 4.85 8.55 4.8 8.1 4.95 8.05 4.95 8.0 M6.25 10.3 L6.05 10.45 6.15 10.6 6.35 10.5 6.35 10.45 6.25 10.3 6.2 10.2 6.2 10.25 6.25 10.3 M6.15 10.6 L5.35 11.0 6.0 10.6 5.15 10.95 5.35 11.0 5.5 11.0 6.15 10.6 M9.8 9.7 L9.85 9.8 9.85 9.7 9.8 9.7" fill="#7f6600" fill-rule="evenodd" stroke="none"/>
    <path d="M11.4 1.35 L11.65 1.45 11.7 1.5 11.8 1.5 11.9 1.65 10.7 4.15 10.4 3.6 10.5 3.35 10.45 3.35 11.4 1.35 M9.7 6.6 L9.5 6.1 9.75 5.45 10.0 5.45 10.2 5.4 9.7 6.6 M7.6 10.45 L8.55 8.45 8.85 8.4 8.15 10.05 7.85 10.3 7.6 10.45" fill="#c8c8c8" fill-rule="evenodd" stroke="none"/>
  </g>
</svg>
