<?xml version="1.0" encoding="UTF-8" standalone="no"?>
<svg xmlns:ffdec="https://www.free-decompiler.com/flash" xmlns:xlink="http://www.w3.org/1999/xlink" ffdec:objectType="shape" height="10.65px" width="13.3px" xmlns="http://www.w3.org/2000/svg">
  <g transform="matrix(1.0, 0.0, 0.0, 1.0, -1.9, -1.15)">
    <path d="M13.85 1.5 L13.85 1.4 13.9 1.35 14.0 1.3 13.45 4.05 13.45 4.15 13.7 4.7 13.1 5.0 13.35 3.6 13.4 3.6 13.85 1.5 M14.95 3.55 L15.1 3.55 15.15 3.6 14.9 4.0 14.85 3.7 14.95 3.55 M15.2 4.1 L15.2 4.3 15.1 4.65 15.0 5.35 14.7 6.35 14.35 7.15 14.2 7.3 14.15 7.3 14.15 7.35 14.05 7.45 14.0 7.6 13.95 7.6 13.8 7.75 13.75 7.7 13.65 7.8 13.75 7.8 13.85 7.75 13.8 7.8 13.2 8.55 13.2 8.6 13.0 8.8 12.6 8.65 12.45 8.55 12.3 8.4 12.6 7.95 12.55 7.95 13.4 7.6 12.85 6.95 12.9 6.9 12.95 6.95 13.1 6.85 13.15 6.55 13.1 6.65 13.05 6.8 12.8 6.85 12.3 6.2 12.35 6.2 13.1 5.0 11.85 4.15 12.25 3.4 13.1 5.0 13.2 6.25 13.25 6.05 13.45 5.7 13.55 5.4 13.6 5.4 13.7 5.2 13.75 5.15 13.9 5.1 14.0 5.05 14.05 5.05 14.05 5.1 14.0 5.05 13.85 5.25 13.8 5.25 13.7 5.45 13.65 5.4 13.45 5.95 13.4 6.05 13.2 6.95 13.25 7.0 13.25 7.1 13.5 7.5 13.75 7.45 13.7 7.25 13.8 7.25 13.75 7.1 13.85 7.1 13.85 6.95 13.95 6.35 14.2 5.75 14.2 5.55 14.45 5.15 14.3 5.25 14.7 4.7 14.6 4.75 14.75 4.6 14.75 4.65 14.8 4.6 15.2 4.1 M1.95 5.95 L2.1 6.0 2.15 6.1 2.3 7.1 2.1 7.25 2.3 7.35 2.4 8.1 2.45 8.2 2.5 8.2 2.55 8.35 2.6 8.5 2.65 8.5 2.8 8.7 3.25 9.5 3.35 9.5 3.6 9.8 3.7 9.75 3.9 10.05 4.0 10.0 4.15 10.15 4.45 10.1 3.65 10.4 3.95 10.5 5.4 10.75 5.45 10.55 5.2 9.8 4.75 10.0 4.7 9.75 5.2 9.2 5.1 9.0 5.2 8.95 5.2 8.85 4.95 8.5 4.85 8.4 4.9 8.25 4.85 8.2 5.0 7.9 4.9 7.9 4.75 8.1 4.65 8.3 4.7 8.3 4.65 8.4 4.3 8.7 4.05 8.85 4.05 8.9 3.9 8.95 3.85 9.0 3.75 9.0 3.6 9.05 3.6 9.0 3.5 9.0 3.4 9.05 3.25 8.95 3.2 8.95 3.05 8.85 2.85 8.6 2.8 8.6 2.75 8.55 2.65 8.35 2.6 8.35 2.4 7.75 2.4 7.5 2.35 7.4 2.6 7.5 8.0 6.8 8.95 6.1 9.3 6.7 9.8 7.55 9.85 7.6 10.2 8.25 9.45 8.3 9.4 8.3 8.3 8.3 7.8 8.35 7.95 6.85 8.0 6.8 5.75 8.05 5.75 11.5 6.55 10.25 6.9 10.1 8.0 9.7 8.1 9.8 8.1 9.85 8.2 10.0 8.25 10.1 8.25 10.25 8.3 10.45 8.25 10.5 8.25 10.75 8.15 10.95 8.0 11.1 7.85 11.2 7.85 11.25 7.65 11.4 7.35 11.5 7.35 11.55 7.25 11.6 6.85 11.6 6.8 11.65 6.35 11.65 5.85 11.55 5.8 11.6 5.7 11.6 5.25 11.45 5.15 11.5 5.0 11.45 4.7 11.3 4.65 11.3 3.65 10.4 3.35 10.35 3.8 10.15 3.65 10.15 3.5 10.2 3.25 9.9 3.2 9.85 3.0 9.6 2.4 8.5 2.35 8.5 2.2 8.1 2.1 7.55 2.1 7.25 2.0 6.15 1.95 5.95 M4.1 2.2 L4.2 2.25 4.2 2.3 3.3 3.8 2.9 4.8 2.55 6.95 2.4 7.05 2.4 6.85 2.45 6.45 2.45 6.4 2.4 6.35 2.3 6.2 2.45 6.3 2.5 5.75 3.0 3.95 3.85 2.65 4.1 2.2 M5.3 5.25 L5.5 1.95 5.85 1.95 6.1 2.0 7.3 3.7 7.65 4.1 7.8 4.4 7.95 6.7 6.1 2.0 5.9 5.45 5.3 5.25 M9.85 3.05 L10.0 3.05 9.95 3.15 9.85 3.05 M14.45 2.25 L14.5 2.45 14.6 2.65 14.6 2.7 14.55 2.75 14.65 2.95 14.8 4.25 14.35 4.8 14.1 4.95 14.05 5.05 14.05 4.85 14.1 4.8 14.1 3.75 14.45 2.25 M13.55 4.95 L13.6 5.1 13.6 5.15 13.65 5.2 13.6 5.25 13.55 5.35 13.5 5.25 13.45 5.25 13.55 4.95 M10.0 8.55 L10.0 8.7 9.95 8.75 9.85 8.9 9.85 9.0 9.8 9.25 9.95 8.9 10.1 8.65 10.6 8.3 10.65 8.3 10.85 8.2 10.85 8.25 11.25 8.1 11.3 8.2 11.5 8.15 11.7 8.15 11.75 8.25 11.8 8.25 11.85 8.2 11.9 8.25 11.9 8.35 12.25 8.5 12.2 8.55 12.65 8.85 13.05 9.05 12.8 9.15 12.45 9.5 12.15 9.7 12.15 9.75 11.25 10.1 11.25 10.15 11.0 10.25 10.9 10.25 10.8 10.35 10.65 10.3 10.6 10.35 10.5 10.3 10.4 10.35 10.3 10.25 10.15 10.3 10.05 10.2 10.0 10.05 9.9 10.05 9.9 10.15 9.55 10.4 9.15 10.6 9.15 10.65 8.55 11.0 8.1 11.15 8.1 11.2 7.95 11.25 8.0 11.2 8.3 10.8 8.35 10.4 8.35 10.15 8.7 9.65 8.65 9.6 9.0 9.35 8.95 9.25 9.35 9.05 9.2 8.7 9.15 8.75 9.35 8.45 9.45 8.4 9.5 8.45 9.65 8.4 9.7 8.45 10.0 8.55 M10.5 7.15 L10.35 7.65 9.9 7.5 10.2 6.9 10.35 7.1 10.5 7.15 M10.05 8.9 L9.9 9.3 9.85 9.6 9.9 9.6 9.9 9.75 10.0 9.8 10.0 9.95 10.1 9.9 10.2 9.9 10.45 9.8 10.45 9.75 10.5 9.7 10.6 9.4 10.7 9.25 10.75 9.15 10.7 9.1 10.9 8.9 10.85 8.75 11.0 8.65 10.9 8.5 10.75 8.6 10.65 8.5 10.5 8.6 10.4 8.55 10.25 8.7 10.2 8.65 10.05 8.9 M4.85 5.75 L4.75 5.6 4.25 4.25 4.3 3.3 4.35 3.1 4.6 4.05 5.05 5.2 5.1 5.5 5.0 5.65 4.85 5.75 M9.9 10.05 L9.9 9.95 9.8 9.9 9.8 9.75 9.7 9.7 9.75 9.55 9.8 9.25 9.65 9.5 9.7 9.7 9.75 9.9 9.9 10.05 M2.8 8.1 L2.9 8.35 3.0 8.35 3.1 8.55 3.2 8.55 3.35 8.7 3.45 8.65 3.55 8.8 3.75 8.6 3.85 8.65 3.9 8.55 3.95 8.6 4.0 8.45 4.1 8.45 4.05 8.35 4.4 8.05 4.5 7.8 2.6 7.5 2.65 7.7 2.7 8.1 2.8 8.1" fill="#7f6600" fill-rule="evenodd" stroke="none"/>
    <path d="M13.85 1.5 L13.4 3.6 13.35 3.6 13.1 5.0 13.7 4.7 13.55 4.95 13.45 5.25 13.5 5.25 13.55 5.35 13.6 5.25 13.65 5.2 13.7 5.2 13.6 5.4 13.55 5.4 13.45 5.7 13.25 6.05 13.2 6.25 13.1 5.0 13.2 1.8 12.5 3.0 13.2 1.75 13.2 1.65 13.4 1.45 13.25 1.7 13.35 3.6 13.8 1.6 13.85 1.5 M14.35 1.85 L14.45 2.1 14.5 2.15 14.65 2.5 14.75 2.85 14.85 3.6 14.95 3.55 14.85 3.7 14.9 4.0 14.85 4.05 14.85 4.1 14.8 4.25 14.65 2.95 14.55 2.75 14.6 2.7 14.6 2.65 14.5 2.45 14.45 2.25 14.35 1.85 M15.2 4.3 L15.1 5.25 14.7 6.6 14.45 7.2 14.15 7.55 14.0 7.65 13.9 7.9 13.15 8.85 13.2 8.9 13.05 9.05 12.55 9.6 12.05 9.95 11.45 10.25 10.6 10.45 10.2 10.4 10.05 10.3 10.0 10.2 9.95 10.15 9.75 10.4 9.65 10.45 8.8 11.0 8.0 11.3 7.8 11.4 7.65 11.5 7.2 11.7 6.65 11.8 5.4 11.65 4.8 11.5 3.35 10.35 3.3 10.25 3.45 10.2 3.2 9.95 2.35 8.65 2.45 8.75 2.3 8.55 2.0 7.3 2.0 7.2 1.9 6.0 1.9 5.95 1.95 5.95 2.0 6.15 2.1 7.25 2.1 7.55 2.2 8.1 2.35 8.5 2.4 8.5 3.0 9.6 3.2 9.85 3.25 9.9 3.5 10.2 3.65 10.15 3.8 10.15 3.35 10.35 3.65 10.4 4.65 11.3 4.7 11.3 5.0 11.45 5.15 11.5 5.25 11.45 5.7 11.6 5.8 11.6 5.85 11.55 6.35 11.65 6.8 11.65 6.85 11.6 7.25 11.6 7.35 11.55 7.35 11.5 7.65 11.4 7.85 11.25 7.85 11.2 8.0 11.1 8.15 10.95 8.25 10.75 8.25 10.5 8.3 10.45 8.25 10.25 8.25 10.1 8.2 10.0 8.1 9.85 8.1 9.8 8.0 9.7 6.9 10.1 7.15 9.95 8.85 9.3 8.8 9.4 8.15 9.65 8.3 9.9 8.35 10.15 8.35 10.4 8.3 10.8 8.0 11.2 7.95 11.25 8.1 11.2 8.1 11.15 8.55 11.0 9.15 10.65 9.15 10.6 9.55 10.4 9.9 10.15 9.9 10.05 10.0 10.05 10.05 10.2 10.15 10.3 10.3 10.25 10.4 10.35 10.5 10.3 10.6 10.35 10.65 10.3 10.8 10.35 10.9 10.25 11.0 10.25 11.25 10.15 11.25 10.1 12.15 9.75 12.15 9.7 12.45 9.5 12.8 9.15 13.05 9.05 12.65 8.85 12.2 8.55 12.25 8.5 11.9 8.35 11.9 8.25 11.85 8.2 11.8 8.25 11.75 8.25 11.7 8.15 11.5 8.15 11.3 8.2 11.25 8.1 10.85 8.25 10.85 8.2 10.65 8.3 10.6 8.3 10.1 8.65 9.95 8.9 9.8 9.25 9.85 9.0 9.85 8.9 9.95 8.75 10.0 8.7 10.0 8.55 10.05 8.6 10.25 8.4 10.5 8.25 11.2 8.05 10.65 7.45 10.35 7.65 10.7 7.3 10.5 7.15 10.35 7.1 10.2 6.9 9.9 7.5 9.85 7.6 9.8 7.55 10.6 6.1 10.6 6.2 10.4 6.55 11.7 8.05 11.85 8.15 11.95 8.2 12.3 8.4 12.45 8.55 12.6 8.65 13.0 8.8 13.2 8.6 13.2 8.55 13.8 7.8 13.85 7.75 13.75 7.8 13.65 7.8 13.75 7.7 13.8 7.75 13.95 7.6 14.0 7.6 14.05 7.45 14.15 7.35 14.15 7.3 14.2 7.3 14.35 7.15 14.7 6.35 15.0 5.35 15.1 4.65 15.2 4.3 M2.1 6.0 L2.4 6.15 2.4 6.0 2.45 5.9 2.45 5.7 2.7 4.6 3.05 3.75 3.7 2.8 3.95 2.3 4.05 2.2 4.1 2.2 3.85 2.65 3.0 3.95 2.5 5.75 2.45 6.3 2.3 6.2 2.2 6.15 2.15 6.1 2.1 6.0 M4.35 2.7 L5.15 5.25 5.15 5.35 5.3 5.25 5.9 5.45 2.6 7.5 2.35 7.4 2.3 7.35 2.1 7.25 2.3 7.1 2.4 7.05 2.55 6.95 2.65 6.85 2.85 6.85 3.25 6.7 4.85 5.75 5.0 5.65 5.1 5.5 5.05 5.2 4.6 4.05 4.35 3.1 4.35 2.7 M5.85 1.95 L5.65 1.8 5.7 1.75 5.95 1.7 8.35 1.55 8.5 1.55 8.7 1.6 8.9 1.7 8.9 1.75 6.65 1.95 6.15 1.75 6.05 1.75 5.95 1.7 7.65 3.7 7.75 3.7 7.95 3.95 8.55 4.0 8.65 4.0 8.75 3.95 8.85 3.95 8.85 3.9 9.65 3.6 10.0 3.4 9.0 2.0 8.95 1.85 9.85 3.05 9.95 3.15 10.0 3.05 10.95 1.45 11.1 1.35 11.2 1.3 10.0 3.25 10.05 3.35 10.25 3.35 10.3 3.35 10.2 3.5 10.35 3.7 10.6 4.05 10.65 4.25 10.15 3.6 9.55 4.85 9.55 4.95 9.3 5.4 8.95 6.1 8.0 6.8 10.15 3.6 10.2 3.5 10.25 3.35 8.85 3.95 7.8 4.4 7.65 4.1 7.7 4.1 7.3 3.7 6.1 2.0 5.85 1.95 M11.5 1.3 L13.2 1.15 13.4 1.3 13.4 1.45 12.05 1.55 12.0 1.5 11.8 1.4 11.5 1.3 M11.85 4.15 L11.35 5.0 12.1 6.0 13.1 5.0 12.35 6.2 12.3 6.2 12.8 6.85 13.05 6.8 13.1 6.65 13.15 6.55 13.1 6.85 12.95 6.95 12.9 6.9 12.85 6.95 13.4 7.6 12.55 7.95 12.05 8.15 12.2 8.0 13.25 7.6 11.3 5.05 12.25 3.4 11.85 4.15 M13.35 5.4 L13.35 5.75 13.5 5.45 13.45 5.3 13.35 5.4 M10.4 6.55 L10.35 6.6 11.55 8.05 11.6 8.05 10.4 6.55 M9.45 8.3 L9.4 8.35 9.65 8.35 9.85 8.4 10.0 8.55 9.7 8.45 9.65 8.4 9.5 8.45 9.45 8.4 9.35 8.45 9.15 8.75 8.85 9.3 8.8 9.25 9.4 8.3 9.45 8.3 M7.95 6.85 L7.8 8.35 6.55 10.25 5.75 11.5 7.95 6.85 M2.8 8.7 L2.65 8.5 2.55 8.35 2.5 8.2 2.4 7.95 2.4 7.8 2.35 7.5 2.4 7.5 2.4 7.75 2.6 8.35 2.65 8.35 2.75 8.55 2.8 8.6 2.85 8.6 3.05 8.85 3.2 8.95 3.25 8.95 3.4 9.05 3.5 9.0 3.6 9.0 3.6 9.05 3.55 9.1 3.3 9.05 3.1 8.95 2.85 8.75 2.8 8.7 M9.9 10.05 L9.75 9.9 9.7 9.7 9.65 9.5 9.8 9.25 9.75 9.55 9.7 9.7 9.8 9.75 9.8 9.9 9.9 9.95 9.9 10.05 M3.6 9.05 L3.75 9.0 3.85 9.0 3.9 8.95 4.05 8.9 4.05 8.85 4.3 8.7 4.65 8.4 4.7 8.3 4.65 8.3 4.75 8.1 4.9 7.9 5.0 7.9 4.85 8.2 4.65 8.55 4.25 8.9 3.95 9.05 4.0 9.0 3.8 9.1 3.6 9.05" fill="#000000" fill-rule="evenodd" stroke="none"/>
    <path d="M13.7 4.7 L13.45 4.15 13.45 4.05 14.0 1.3 14.2 1.5 14.2 1.55 14.3 1.7 14.35 1.85 14.45 2.25 14.1 3.75 14.1 4.8 14.05 4.85 14.05 5.05 14.1 4.95 14.35 4.8 14.8 4.25 14.85 4.1 14.85 4.05 14.9 4.0 15.15 3.6 15.2 3.9 15.2 4.1 14.8 4.6 14.75 4.65 14.75 4.6 14.6 4.75 14.7 4.7 14.3 5.25 14.45 5.15 14.2 5.55 14.2 5.75 13.95 6.35 13.85 6.95 13.85 7.1 13.75 7.1 13.8 7.25 13.7 7.25 13.75 7.45 13.5 7.5 13.25 7.1 13.25 7.0 13.2 6.95 13.4 6.05 13.45 5.95 13.65 5.4 13.7 5.45 13.8 5.25 13.85 5.25 14.0 5.05 14.05 5.1 14.05 5.05 14.0 5.05 13.9 5.1 13.75 5.15 13.7 5.2 13.65 5.2 13.6 5.15 13.6 5.1 13.55 4.95 13.7 4.7 M4.2 2.3 L4.35 2.7 4.35 3.1 4.3 3.3 4.25 4.25 4.75 5.6 4.85 5.75 3.25 6.7 2.85 6.85 2.65 6.85 2.55 6.95 2.9 4.8 3.3 3.8 4.2 2.3 M12.5 3.0 L13.2 1.8 13.1 5.0 12.1 6.0 11.35 5.0 11.85 4.15 13.1 5.0 12.25 3.4 12.5 3.0 M11.95 8.2 L12.05 8.15 12.55 7.95 12.6 7.95 12.3 8.4 11.95 8.2 M7.8 4.4 L8.85 3.95 10.25 3.35 10.2 3.5 10.15 3.6 8.0 6.8 2.6 7.5 5.9 5.45 6.1 2.0 7.95 6.7 7.8 4.4 M8.35 10.15 L8.3 9.9 8.15 9.65 8.8 9.4 8.85 9.3 9.15 8.75 9.2 8.7 9.35 9.05 8.95 9.25 9.0 9.35 8.65 9.6 8.7 9.65 8.35 10.15 M10.5 7.15 L10.7 7.3 10.35 7.65 10.5 7.15 M10.05 8.9 L10.2 8.65 10.25 8.7 10.4 8.55 10.5 8.6 10.65 8.5 10.75 8.6 10.9 8.5 11.0 8.65 10.85 8.75 10.9 8.9 10.7 9.1 10.75 9.15 10.7 9.25 10.6 9.4 10.5 9.7 10.45 9.75 10.45 9.8 10.2 9.9 10.1 9.9 10.0 9.95 10.0 9.8 9.9 9.75 9.9 9.6 9.85 9.6 9.9 9.3 10.05 8.9 M2.3 6.2 L2.4 6.35 2.45 6.4 2.45 6.45 2.4 6.85 2.4 7.05 2.3 7.1 2.15 6.1 2.2 6.15 2.3 6.2 M8.0 6.8 L7.95 6.85 5.75 11.5 5.75 8.05 8.0 6.8 M4.85 8.2 L4.9 8.25 4.85 8.4 4.95 8.5 5.2 8.85 5.2 8.95 5.1 9.0 5.2 9.2 4.7 9.75 4.75 10.0 5.2 9.8 5.45 10.55 5.4 10.75 3.95 10.5 3.65 10.4 4.45 10.1 4.15 10.15 4.0 10.0 3.9 10.05 3.7 9.75 3.6 9.8 3.35 9.5 3.25 9.5 2.8 8.7 2.85 8.75 3.1 8.95 3.3 9.05 3.55 9.1 3.6 9.05 3.8 9.1 4.0 9.0 3.95 9.05 4.25 8.9 4.65 8.55 4.85 8.2 M2.65 8.5 L2.6 8.5 2.55 8.35 2.65 8.5 M2.5 8.2 L2.45 8.2 2.4 8.1 2.3 7.35 2.35 7.4 2.4 7.5 2.35 7.5 2.4 7.8 2.4 7.95 2.5 8.2 M2.8 8.1 L2.7 8.1 2.65 7.7 2.6 7.5 4.5 7.8 4.4 8.05 4.05 8.35 4.1 8.45 4.0 8.45 3.95 8.6 3.9 8.55 3.85 8.65 3.75 8.6 3.55 8.8 3.45 8.65 3.35 8.7 3.2 8.55 3.1 8.55 3.0 8.35 2.9 8.35 2.8 8.1" fill="#ffcc00" fill-rule="evenodd" stroke="none"/>
    <path d="M8.9 1.75 L8.95 1.85 9.0 2.0 10.0 3.4 9.65 3.6 8.85 3.9 7.6 2.3 6.9 2.0 8.45 3.85 8.6 3.9 8.65 4.0 8.55 4.0 7.95 3.95 7.75 3.7 7.65 3.7 5.95 1.7 6.05 1.75 6.15 1.75 6.65 1.95 8.9 1.75 M11.2 1.3 L11.5 1.3 11.8 1.4 10.35 3.7 10.2 3.5 10.3 3.35 10.25 3.35 10.05 3.35 10.0 3.25 11.2 1.3 M13.4 1.45 L13.2 1.65 13.2 1.75 12.5 3.0 12.25 3.4 11.3 5.05 13.25 7.6 12.2 8.0 12.05 8.15 11.95 8.2 11.85 8.15 11.7 8.05 10.4 6.55 10.6 6.2 10.6 6.1 9.8 7.55 9.3 6.7 10.05 5.4 10.0 5.4 9.55 4.85 10.15 3.6 10.65 4.25 12.2 1.7 12.05 1.55 13.4 1.45 M9.3 5.4 L9.55 4.95 9.95 5.4 9.9 5.45 9.85 5.4 9.3 5.4 M8.85 9.3 L7.15 9.95 7.45 9.75 8.3 8.3 9.4 8.3 8.8 9.25 8.85 9.3 M10.4 6.55 L11.6 8.05 11.55 8.05 10.35 6.6 10.4 6.55" fill="#646464" fill-rule="evenodd" stroke="none"/>
    <path d="M12.05 1.55 L12.2 1.7 10.65 4.25 10.6 4.05 10.35 3.7 11.8 1.4 12.0 1.5 12.05 1.55 M9.55 4.85 L10.0 5.4 10.05 5.4 9.3 6.7 8.95 6.1 9.3 5.4 9.85 5.4 9.9 5.45 9.95 5.4 9.55 4.95 9.55 4.85 M7.15 9.95 L6.9 10.1 6.55 10.25 7.8 8.35 8.3 8.3 7.45 9.75 7.15 9.95 M8.85 3.9 L8.85 3.95 8.75 3.95 8.65 4.0 8.6 3.9 8.45 3.85 6.9 2.0 7.6 2.3 8.85 3.9" fill="#c8c8c8" fill-rule="evenodd" stroke="none"/>
  </g>
</svg>
