<?xml version="1.0" encoding="UTF-8" standalone="no"?>
<svg xmlns:ffdec="https://www.free-decompiler.com/flash" xmlns:xlink="http://www.w3.org/1999/xlink" ffdec:objectType="shape" height="10.25px" width="15.05px" xmlns="http://www.w3.org/2000/svg">
  <g transform="matrix(1.0, 0.0, 0.0, 1.0, -1.2, -1.2)">
    <path d="M12.1 1.45 L12.25 1.55 12.4 1.7 12.45 1.85 10.7 4.2 12.45 1.95 11.15 5.1 10.5 5.95 10.5 6.0 12.45 8.2 10.5 6.1 10.5 6.05 9.5 7.55 8.55 6.15 9.2 5.4 9.55 5.4 9.15 4.95 9.9 3.65 10.5 4.4 10.5 4.15 10.4 3.95 10.3 3.8 12.1 1.45 M10.5 6.2 L10.5 6.15 12.4 8.2 12.35 8.2 10.5 6.25 10.5 6.2 M5.7 10.0 L7.15 8.15 8.95 8.25 8.35 9.1 6.8 9.5 6.4 9.7 6.1 9.9 5.7 10.0 M8.15 3.9 L8.1 3.85 7.95 3.8 6.2 1.95 6.55 2.1 8.55 1.95 8.55 2.1 9.7 3.45 8.95 3.7 8.45 3.85 8.15 3.9" fill="#c8c8c8" fill-rule="evenodd" stroke="none"/>
    <path d="M14.1 3.7 L14.15 3.75 14.2 3.75 14.2 3.7 14.8 1.45 14.85 1.4 14.9 1.4 14.75 2.25 14.25 3.95 14.25 4.3 14.3 4.3 14.3 4.55 14.45 4.85 13.6 5.15 13.85 6.55 14.05 6.0 14.15 5.9 14.3 5.6 14.5 5.35 14.6 5.35 14.7 5.25 14.75 5.25 14.85 5.2 14.8 5.3 14.75 5.25 14.45 5.65 14.4 5.6 13.85 7.0 13.85 7.2 13.9 7.2 13.9 7.35 13.95 7.4 13.95 7.5 14.0 7.55 14.05 7.55 14.1 7.7 14.2 7.7 14.25 7.8 14.35 7.8 14.45 7.7 14.4 7.6 14.5 7.6 14.55 7.4 14.55 7.25 14.6 7.2 14.65 6.95 14.95 6.15 14.9 6.1 15.05 6.0 15.0 6.0 15.15 5.7 15.65 5.2 15.65 5.15 15.75 5.0 15.8 5.1 16.1 4.8 15.95 5.7 15.25 7.3 15.25 7.4 15.2 7.5 15.1 7.6 14.85 7.75 14.85 7.8 14.8 7.8 14.65 7.85 14.6 7.9 14.45 8.0 14.4 7.95 14.4 8.0 14.3 8.0 14.4 8.05 14.55 8.05 14.7 8.0 14.25 8.5 13.55 9.1 12.75 8.7 12.75 8.65 12.95 8.4 13.4 8.0 13.85 7.9 13.95 7.85 13.75 7.6 13.75 7.45 13.65 7.3 13.55 7.35 13.35 7.15 13.5 7.1 13.5 7.15 13.75 7.05 13.8 6.8 13.75 7.0 13.4 7.05 13.3 7.1 12.4 6.1 13.6 5.15 13.6 5.1 14.1 3.7 M16.05 3.75 L16.15 3.7 16.2 3.8 15.85 4.2 15.65 4.55 15.45 4.7 15.0 5.15 14.95 5.0 14.95 4.75 15.0 4.7 15.0 4.3 15.1 3.75 15.4 2.75 15.3 2.2 15.45 2.45 15.55 2.7 15.55 2.75 15.65 3.0 15.85 4.2 15.9 4.05 15.85 3.95 16.05 3.75 M13.65 9.2 L13.6 9.25 13.3 9.35 12.9 9.65 12.9 9.7 12.45 9.95 12.05 10.1 12.05 10.15 11.3 10.35 10.95 10.35 10.95 10.4 10.55 10.4 10.35 10.35 10.3 10.35 10.15 10.3 10.1 10.3 10.0 10.15 10.0 10.2 9.9 10.05 9.8 10.05 9.75 9.85 9.7 9.9 9.7 9.75 9.65 9.7 9.65 9.5 9.7 9.3 9.95 8.75 9.9 8.8 9.9 8.7 9.75 8.7 9.75 8.6 9.55 8.6 9.55 8.55 9.3 8.6 9.3 8.55 8.8 8.65 8.95 8.45 9.15 8.4 9.2 8.4 9.4 8.35 9.65 8.35 9.65 8.4 9.75 8.45 9.85 8.4 9.85 8.45 10.0 8.5 10.0 8.6 10.05 8.6 10.0 8.65 10.15 8.6 10.2 8.5 10.25 8.5 10.45 8.4 11.1 8.2 11.15 8.25 11.55 8.2 11.6 8.2 11.65 8.25 11.85 8.25 11.85 8.3 12.05 8.35 12.1 8.4 12.15 8.4 12.7 8.7 12.95 8.9 13.05 8.95 13.0 8.9 13.65 9.2 M3.45 2.05 L3.5 2.25 2.3 4.05 1.85 5.7 1.95 5.7 1.85 6.4 1.65 6.5 1.9 4.9 1.9 4.8 2.2 3.9 3.45 2.05 M5.25 1.95 L7.0 4.1 7.15 4.3 7.05 6.65 5.25 1.95 M14.35 5.1 L14.35 5.4 14.4 5.05 14.45 5.35 14.45 5.4 14.4 5.4 14.35 5.5 14.3 5.45 14.25 5.25 14.35 5.1 M13.4 2.2 L12.7 3.4 13.6 5.1 12.05 4.15 13.4 2.2 M11.75 5.15 L11.65 5.3 11.4 5.05 11.75 5.15 M9.5 7.55 L9.55 7.6 9.55 7.65 10.0 8.3 9.1 8.25 9.05 8.25 8.95 8.25 7.15 8.15 5.7 10.0 5.1 10.8 5.75 10.95 5.8 10.85 6.6 10.95 6.9 10.95 6.7 10.85 7.0 10.8 7.15 10.8 7.35 10.7 7.55 10.5 7.55 10.4 7.5 10.3 7.6 10.25 7.5 10.05 7.55 9.95 7.45 9.9 7.5 9.8 7.35 9.55 7.7 9.45 7.75 9.6 7.8 9.65 7.95 9.9 7.9 9.9 8.0 10.15 7.95 10.2 7.95 10.5 7.85 10.55 7.85 10.6 7.65 10.85 7.55 10.95 7.3 11.15 6.95 11.25 6.8 11.25 6.75 11.35 6.25 11.35 5.9 11.3 5.8 11.35 4.85 11.15 4.05 10.85 3.75 10.6 3.7 10.6 3.5 10.5 2.8 9.85 3.65 10.1 4.25 10.6 4.3 10.55 4.65 10.75 4.6 10.85 4.85 11.1 7.05 6.65 10.0 3.35 10.0 3.45 10.0 3.5 9.9 3.65 9.15 4.95 8.95 5.2 8.9 5.35 8.45 6.0 8.55 6.15 9.5 7.55 M14.15 3.95 L14.2 3.85 14.15 3.9 14.15 3.95 M13.85 6.55 L13.8 6.8 13.85 6.55 M10.9 7.45 L10.45 7.7 10.05 7.5 10.3 6.85 10.65 7.25 10.45 7.7 10.85 7.35 10.9 7.45 M10.6 8.55 L10.55 8.5 10.25 8.75 10.2 8.7 10.05 8.85 9.9 9.1 9.7 9.6 9.8 9.6 9.75 9.75 9.9 9.8 9.95 9.9 10.05 9.9 10.1 10.0 10.45 9.85 10.5 9.8 10.45 9.7 10.55 9.65 10.6 9.55 10.9 9.25 10.9 9.15 11.1 9.05 11.4 9.0 11.4 8.85 11.6 8.85 11.6 8.75 11.8 8.7 11.8 8.65 11.6 8.65 11.55 8.5 11.35 8.5 11.3 8.45 11.1 8.5 11.05 8.45 10.85 8.5 10.8 8.45 10.6 8.55 M4.2 5.4 L3.45 3.4 3.5 2.85 3.5 2.55 4.3 4.95 4.45 5.15 4.4 5.2 4.2 5.35 4.2 5.4 M1.6 6.55 L1.45 6.65 1.3 5.6 1.65 5.8 1.65 6.0 1.5 5.85 1.6 6.55 M9.65 9.25 L9.6 9.4 9.6 9.7 9.65 9.7 9.65 9.8 9.75 10.05 9.85 10.15 9.8 10.2 9.55 10.35 9.5 10.4 8.95 10.65 7.8 11.0 7.75 11.05 7.5 11.1 7.55 11.05 7.9 10.75 7.95 10.55 8.5 10.45 8.7 10.35 8.7 10.25 9.0 10.15 9.05 9.5 9.4 9.4 9.25 9.3 9.6 9.2 9.65 9.25 M3.2 8.2 L3.2 8.15 3.65 7.9 3.9 7.5 1.85 7.1 1.85 7.35 1.95 7.3 1.95 7.45 2.1 7.85 2.2 7.8 2.25 7.95 2.45 8.2 2.55 8.15 2.7 8.3 2.75 8.2 2.9 8.3 3.0 8.35 3.05 8.25 3.2 8.2 M2.2 8.35 L2.25 8.4 2.6 8.95 2.85 9.25 2.9 9.25 3.25 9.65 3.4 9.65 3.9 9.55 2.8 9.85 2.6 9.75 3.0 9.65 2.95 9.6 2.85 9.6 2.6 9.3 2.55 9.3 1.7 7.9 1.6 7.65 1.55 7.65 1.4 7.05 1.45 7.0 7.05 6.65 4.85 7.7 4.5 7.65 4.5 7.7 4.45 7.65 4.25 7.6 4.2 7.6 4.0 7.9 3.7 8.2 3.35 8.4 3.2 8.45 3.2 8.5 2.95 8.55 2.85 8.55 2.55 8.45 2.45 8.4 2.4 8.4 2.05 8.05 2.05 8.1 1.8 7.6 1.75 7.6 1.65 7.15 1.65 7.05 1.6 7.05 1.55 7.1 1.7 7.65 1.95 8.05 2.2 8.35" fill="#7f6600" fill-rule="evenodd" stroke="none"/>
    <path d="M14.9 1.4 L15.1 1.6 15.15 1.75 15.3 2.2 15.4 2.75 15.1 3.75 15.0 4.3 15.0 4.7 14.95 4.75 14.95 5.0 15.0 5.15 15.45 4.7 15.65 4.55 15.85 4.2 16.2 3.8 16.25 3.95 16.25 4.2 16.1 4.8 15.8 5.1 15.75 5.0 15.65 5.15 15.65 5.2 15.15 5.7 15.0 6.0 15.05 6.0 14.9 6.1 14.95 6.15 14.65 6.95 14.6 7.2 14.55 7.25 14.55 7.4 14.5 7.6 14.4 7.6 14.45 7.7 14.35 7.8 14.25 7.8 14.2 7.7 14.1 7.7 14.05 7.55 14.0 7.55 13.95 7.5 13.95 7.4 13.9 7.35 13.9 7.2 13.85 7.2 13.85 7.0 14.4 5.6 14.45 5.65 14.75 5.25 14.8 5.3 14.85 5.2 14.75 5.25 14.7 5.25 14.6 5.35 14.5 5.35 14.45 5.4 14.45 5.35 14.4 5.05 14.35 5.4 14.35 5.1 14.35 5.0 14.45 4.85 14.3 4.55 14.3 4.3 14.25 4.3 14.25 3.95 14.75 2.25 14.9 1.4 M13.95 1.45 L13.6 5.1 12.7 3.4 13.4 2.2 13.95 1.45 M12.05 4.15 L13.6 5.1 13.6 5.15 12.4 6.1 11.65 5.3 11.75 5.15 11.55 4.85 12.05 4.15 M10.0 3.35 L7.05 6.65 4.85 11.1 4.85 7.7 7.05 6.65 1.45 7.0 4.95 5.2 5.25 1.95 7.05 6.65 7.15 4.3 8.95 3.7 9.7 3.45 9.85 3.4 10.0 3.35 M4.65 10.75 L4.3 10.55 4.25 10.6 3.65 10.1 2.8 9.85 3.9 9.55 3.4 9.65 3.25 9.65 2.9 9.25 2.85 9.25 2.6 8.95 2.25 8.4 2.2 8.35 2.35 8.45 2.4 8.45 2.45 8.5 2.65 8.6 3.05 8.6 3.45 8.4 3.4 8.5 3.95 8.1 3.95 8.0 4.1 7.9 4.25 7.6 4.45 7.65 4.5 7.7 4.5 9.4 4.6 9.7 4.6 9.9 4.65 10.25 4.65 10.75 M7.35 9.55 L7.5 9.8 7.45 9.9 7.55 9.95 7.5 10.05 7.6 10.25 7.5 10.3 7.55 10.4 7.55 10.5 7.35 10.7 7.15 10.8 7.0 10.8 6.7 10.85 6.9 10.95 6.6 10.95 5.8 10.85 5.75 10.95 5.1 10.8 5.7 10.0 6.1 9.9 7.35 9.55 M12.75 8.7 L12.7 8.7 12.4 8.4 12.2 8.3 12.3 8.3 13.4 8.0 12.95 8.4 12.75 8.65 12.75 8.7 M13.55 7.35 L13.65 7.3 13.75 7.45 13.75 7.6 13.55 7.35 M10.65 7.25 L10.85 7.35 10.45 7.7 10.65 7.25 M8.8 8.65 L9.3 8.55 9.3 8.6 9.55 8.55 9.55 8.6 9.75 8.6 9.75 8.7 9.9 8.7 9.9 8.8 9.8 8.95 9.7 9.15 9.7 9.2 9.65 9.25 9.6 9.2 9.25 9.3 9.4 9.4 9.05 9.5 9.0 10.15 8.7 10.25 8.7 10.35 8.5 10.45 7.95 10.55 8.0 10.5 8.05 10.2 8.0 9.85 7.9 9.6 7.75 9.45 8.35 9.3 8.8 8.65 M10.6 8.55 L10.8 8.45 10.85 8.5 11.05 8.45 11.1 8.5 11.3 8.45 11.35 8.5 11.55 8.5 11.6 8.65 11.8 8.65 11.8 8.7 11.6 8.75 11.6 8.85 11.4 8.85 11.4 9.0 11.1 9.05 10.9 9.15 10.9 9.25 10.6 9.55 10.55 9.65 10.45 9.7 10.5 9.8 10.45 9.85 10.1 10.0 10.05 9.9 9.95 9.9 9.9 9.8 9.75 9.75 9.8 9.6 9.7 9.6 9.9 9.1 10.05 8.85 10.2 8.7 10.25 8.75 10.55 8.5 10.6 8.55 M3.5 2.55 L3.5 2.85 3.45 3.4 4.2 5.4 4.15 5.4 4.1 5.45 2.55 6.2 2.1 6.35 1.85 6.4 1.95 5.7 1.85 5.7 2.3 4.05 3.5 2.25 3.5 2.55 M1.6 6.55 L1.5 5.85 1.65 6.0 1.6 6.55 M3.2 8.2 L3.05 8.25 3.0 8.35 2.9 8.3 2.75 8.2 2.7 8.3 2.55 8.15 2.45 8.2 2.25 7.95 2.2 7.8 2.1 7.85 1.95 7.45 1.95 7.3 1.85 7.35 1.85 7.1 3.9 7.5 3.65 7.9 3.2 8.15 3.2 8.2" fill="#ffcc00" fill-rule="evenodd" stroke="none"/>
    <path d="M11.75 1.3 L13.75 1.2 13.95 1.25 13.95 1.3 14.0 1.35 13.95 1.45 14.1 3.7 13.6 5.1 13.95 1.45 13.95 1.4 13.9 1.45 12.25 1.55 12.1 1.45 11.75 1.3 M14.15 3.75 L14.7 1.6 14.75 1.5 14.8 1.45 14.2 3.7 14.2 3.75 14.15 3.75 M15.15 1.75 L15.7 2.8 15.85 3.85 16.05 3.75 15.85 3.95 15.9 4.05 15.85 4.2 15.65 3.0 15.55 2.75 15.55 2.7 15.45 2.45 15.3 2.2 15.15 1.75 M16.25 4.2 L16.2 5.05 15.6 6.85 15.1 7.7 14.85 7.9 13.95 8.9 13.7 9.1 13.65 9.2 13.0 8.9 13.05 8.95 12.95 8.9 12.7 8.7 12.75 8.7 13.55 9.1 14.25 8.5 14.7 8.0 14.55 8.05 14.4 8.05 14.3 8.0 14.4 8.0 14.4 7.95 14.45 8.0 14.6 7.9 14.65 7.85 14.8 7.8 14.85 7.8 14.85 7.75 15.1 7.6 15.2 7.5 15.25 7.4 15.25 7.3 15.95 5.7 16.1 4.8 16.25 4.2 M13.6 9.25 L12.9 9.8 12.2 10.15 10.95 10.5 10.55 10.5 10.25 10.45 10.2 10.4 9.95 10.2 9.9 10.2 9.75 10.35 8.6 10.9 7.6 11.15 7.4 11.15 7.25 11.25 6.85 11.4 6.45 11.45 6.2 11.45 4.85 11.2 4.1 10.95 3.75 10.75 2.75 9.85 2.6 9.75 2.55 9.7 2.75 9.65 2.25 9.05 1.55 7.75 1.55 7.65 1.5 7.65 1.35 7.05 1.4 7.05 1.4 6.95 1.2 6.75 1.35 6.7 1.2 5.55 1.3 5.6 1.65 5.75 1.9 4.6 2.15 3.95 3.35 2.1 3.4 2.05 3.45 2.05 2.2 3.9 1.9 4.8 1.9 4.9 1.65 6.5 1.85 6.4 2.1 6.35 2.55 6.2 4.1 5.45 4.15 5.4 4.2 5.4 4.2 5.35 4.4 5.2 4.45 5.15 4.3 4.95 3.5 2.55 3.5 2.25 4.45 5.0 4.5 5.1 4.6 5.05 4.85 1.85 5.25 1.95 4.95 5.2 1.45 7.0 1.4 7.05 1.55 7.65 1.6 7.65 1.7 7.9 2.55 9.3 2.6 9.3 2.85 9.6 2.95 9.6 3.0 9.65 2.6 9.75 2.8 9.85 3.5 10.5 3.7 10.6 3.75 10.6 4.05 10.85 4.85 11.15 5.8 11.35 5.9 11.3 6.25 11.35 6.75 11.35 6.8 11.25 6.95 11.25 7.3 11.15 7.55 10.95 7.65 10.85 7.85 10.6 7.85 10.55 7.95 10.5 7.95 10.2 8.0 10.15 7.9 9.9 7.95 9.9 7.8 9.65 7.75 9.6 7.7 9.45 7.35 9.55 6.1 9.9 6.4 9.7 8.35 9.2 9.05 8.25 9.1 8.25 9.05 8.35 9.4 8.3 9.75 8.35 9.8 8.35 10.1 8.5 10.1 8.55 10.25 8.45 10.55 8.3 11.15 8.15 11.55 8.15 10.9 7.45 10.85 7.35 10.65 7.25 10.3 6.85 10.15 6.7 10.3 6.5 10.5 6.2 10.5 6.25 10.3 6.5 12.05 8.3 12.15 8.35 12.2 8.3 12.4 8.4 12.7 8.7 12.15 8.4 12.1 8.4 12.05 8.35 11.85 8.3 11.85 8.25 11.65 8.25 11.6 8.2 11.55 8.2 11.15 8.25 11.1 8.2 10.45 8.4 10.25 8.5 10.2 8.5 10.15 8.6 10.0 8.65 10.05 8.6 10.0 8.6 10.0 8.5 9.85 8.45 9.85 8.4 9.75 8.45 9.65 8.4 9.65 8.35 9.4 8.35 9.2 8.4 9.15 8.4 8.95 8.45 8.8 8.65 8.35 9.3 7.75 9.45 7.9 9.6 8.0 9.85 8.05 10.2 8.0 10.5 7.95 10.55 7.9 10.75 7.55 11.05 7.5 11.1 7.75 11.05 7.8 11.0 8.95 10.65 9.5 10.4 9.55 10.35 9.8 10.2 9.85 10.15 9.75 10.05 9.65 9.8 9.65 9.7 9.6 9.7 9.6 9.4 9.65 9.25 9.7 9.2 9.7 9.15 9.8 8.95 9.9 8.8 9.95 8.75 9.7 9.3 9.65 9.5 9.65 9.7 9.7 9.75 9.7 9.9 9.75 9.85 9.8 10.05 9.9 10.05 10.0 10.2 10.0 10.15 10.1 10.3 10.15 10.3 10.3 10.35 10.35 10.35 10.55 10.4 10.95 10.4 10.95 10.35 11.3 10.35 12.05 10.15 12.05 10.1 12.45 9.95 12.9 9.7 12.9 9.65 13.3 9.35 13.6 9.25 M7.0 4.1 L7.4 3.95 5.2 1.65 8.15 1.5 8.35 1.55 8.5 1.7 9.95 3.35 10.05 3.2 10.0 3.0 10.15 3.05 11.4 1.4 11.5 1.35 11.65 1.35 10.0 3.45 10.3 3.8 10.4 3.95 10.5 4.15 10.0 3.5 10.0 3.45 10.0 3.35 9.85 3.4 8.55 1.9 8.5 1.7 5.95 1.85 5.55 1.7 7.4 3.65 7.5 3.7 7.75 3.95 8.1 3.9 8.15 3.9 8.45 3.85 8.95 3.7 7.15 4.3 7.0 4.1 M14.45 4.85 L14.35 5.0 14.35 5.1 14.25 5.25 14.3 5.45 14.35 5.5 14.4 5.4 14.45 5.4 14.5 5.35 14.3 5.6 14.15 5.9 14.05 6.0 13.85 6.55 13.6 5.15 14.45 4.85 M12.45 8.2 L13.8 7.8 11.35 5.05 13.8 1.6 13.95 1.45 13.4 2.2 12.05 4.15 11.55 4.85 11.75 5.15 11.4 5.05 11.65 5.3 12.4 6.1 13.3 7.1 13.4 7.05 13.75 7.0 13.8 6.8 13.75 7.05 13.5 7.15 13.5 7.1 13.35 7.15 13.55 7.35 13.75 7.6 13.95 7.85 13.85 7.9 13.4 8.0 12.3 8.3 12.35 8.2 12.4 8.2 12.45 8.2 M9.55 7.6 L10.0 7.0 9.55 7.65 9.55 7.6 M4.85 11.1 L4.6 10.85 4.65 10.75 4.65 10.25 4.6 9.9 4.6 9.7 4.5 9.4 4.5 7.7 4.5 7.65 4.85 7.7 4.85 11.1 M14.15 3.95 L14.15 3.9 14.2 3.85 14.15 3.95 M14.25 5.5 L14.15 5.55 14.15 5.8 14.2 5.65 14.3 5.55 14.25 5.5 M1.65 6.0 L1.65 5.8 1.3 5.6 1.45 6.65 1.6 6.55 1.65 6.0 M8.9 5.35 L8.95 5.2 9.1 5.35 8.9 5.35 M4.25 7.6 L4.1 7.9 3.95 8.0 3.95 8.1 3.4 8.5 3.45 8.4 3.05 8.6 2.65 8.6 2.45 8.5 2.4 8.45 2.35 8.45 2.2 8.35 1.95 8.05 1.7 7.65 1.55 7.1 1.6 7.05 1.65 7.05 1.65 7.15 1.75 7.6 1.8 7.6 2.05 8.1 2.05 8.05 2.4 8.4 2.45 8.4 2.55 8.45 2.85 8.55 2.95 8.55 3.2 8.5 3.2 8.45 3.35 8.4 3.7 8.2 4.0 7.9 4.2 7.6 4.25 7.6" fill="#000000" fill-rule="evenodd" stroke="none"/>
    <path d="M11.65 1.35 L11.75 1.3 12.1 1.45 10.3 3.8 10.0 3.45 11.65 1.35 M12.25 1.55 L13.9 1.45 13.95 1.4 13.95 1.45 13.8 1.6 11.35 5.05 13.8 7.8 12.45 8.2 10.5 6.0 10.5 5.95 11.15 5.1 12.45 1.95 10.7 4.2 12.45 1.85 12.4 1.7 12.25 1.55 M9.5 7.55 L10.5 6.05 10.5 6.1 12.45 8.2 12.4 8.2 10.5 6.15 10.5 6.2 10.3 6.5 10.15 6.7 10.0 7.0 9.55 7.6 9.5 7.55 M8.95 8.25 L9.05 8.25 8.35 9.2 6.4 9.7 6.8 9.5 8.35 9.1 8.95 8.25 M10.5 4.15 L10.5 4.4 9.9 3.65 10.0 3.5 10.5 4.15 M9.15 4.95 L9.55 5.4 9.2 5.4 8.55 6.15 8.45 6.0 8.9 5.35 9.1 5.35 8.95 5.2 9.15 4.95 M10.5 6.25 L12.35 8.2 12.3 8.3 12.2 8.3 12.15 8.35 12.05 8.3 10.3 6.5 10.5 6.25 M8.5 1.7 L8.55 1.9 9.85 3.4 9.7 3.45 8.55 2.1 8.55 1.95 6.55 2.1 6.2 1.95 7.95 3.8 8.1 3.85 8.15 3.9 8.1 3.9 7.75 3.95 7.5 3.7 7.4 3.65 5.55 1.7 5.95 1.85 8.5 1.7" fill="#646464" fill-rule="evenodd" stroke="none"/>
  </g>
</svg>
