<?xml version="1.0" encoding="UTF-8" standalone="no"?>
<svg xmlns:ffdec="https://www.free-decompiler.com/flash" xmlns:xlink="http://www.w3.org/1999/xlink" ffdec:objectType="shape" height="9.8px" width="16.4px" xmlns="http://www.w3.org/2000/svg">
  <g transform="matrix(1.0, 0.0, 0.0, 1.0, -0.8, -1.3)">
    <path d="M14.45 1.45 L14.45 1.35 14.6 1.35 13.15 3.45 12.85 3.4 14.35 1.6 14.45 1.45 M9.8 3.35 L9.75 3.45 9.7 3.55 8.8 4.85 8.7 5.05 8.05 5.95 8.25 6.2 9.2 7.5 9.25 7.6 9.3 7.65 9.75 8.25 9.6 8.25 8.85 8.15 8.8 8.15 8.65 8.15 6.8 7.95 6.6 7.95 5.7 8.95 4.45 10.35 5.25 10.65 5.3 10.55 6.15 10.75 6.7 10.75 6.75 10.7 6.9 10.7 7.05 10.65 7.0 10.55 7.15 10.55 7.15 10.5 7.3 10.35 7.35 10.4 7.4 10.35 7.4 10.2 7.5 10.15 7.45 9.85 7.5 9.8 7.45 9.7 7.5 9.6 7.4 9.5 7.45 9.45 7.25 9.3 7.5 9.25 7.6 9.4 7.6 9.45 7.65 9.6 7.75 9.8 7.75 10.15 7.7 10.2 7.65 10.4 7.65 10.45 7.6 10.5 7.55 10.5 7.5 10.6 7.45 10.65 7.25 10.75 7.1 10.85 6.85 10.95 6.45 11.05 6.3 11.0 5.85 10.95 5.8 11.0 4.25 10.6 6.3 6.45 9.8 3.35 M12.3 8.45 L12.35 8.5 12.4 8.5 12.4 8.55 12.95 8.85 13.0 8.9 13.45 9.15 13.7 9.25 13.75 9.25 14.15 9.0 14.1 8.9 14.35 8.75 14.4 8.25 14.6 8.2 14.45 8.15 14.6 8.1 14.5 7.85 14.35 7.5 14.1 7.55 14.1 7.5 13.9 7.55 13.75 7.4 13.85 7.35 14.25 7.3 14.3 7.4 14.4 6.85 14.75 6.1 14.55 6.4 14.4 6.75 14.0 5.35 14.6 1.35 14.75 3.85 14.85 3.9 14.85 4.2 14.9 3.85 15.2 3.0 15.25 2.9 15.3 2.5 15.45 2.0 15.6 1.5 15.65 1.45 15.7 1.5 14.95 4.4 14.9 4.5 14.95 4.5 14.95 4.85 15.1 5.05 15.05 5.1 15.0 5.2 15.05 5.25 15.1 5.25 15.15 5.55 15.1 5.65 15.0 5.7 14.95 5.45 14.95 5.75 14.85 5.8 14.85 5.95 14.9 5.95 14.9 5.85 15.1 5.65 15.15 5.65 15.15 5.6 15.35 5.5 15.55 5.45 15.25 5.7 15.2 5.7 14.95 6.0 14.45 7.1 14.4 7.45 14.45 7.45 14.45 7.65 14.5 7.65 14.5 7.85 14.6 7.85 14.65 8.0 14.7 8.0 14.75 8.1 14.9 8.05 14.95 8.15 15.35 7.85 15.2 7.65 15.35 6.95 15.7 6.35 16.05 6.0 16.75 5.5 17.1 4.7 17.0 5.55 16.25 7.3 15.85 7.85 15.6 8.05 15.55 8.1 15.3 8.25 15.2 8.25 15.2 8.3 15.05 8.3 14.95 8.35 14.85 8.3 14.8 8.35 14.9 8.4 15.1 8.4 15.45 8.25 14.9 8.8 14.05 9.4 13.7 9.25 14.1 9.45 13.7 9.6 13.3 9.85 13.3 9.9 12.9 10.1 12.6 10.2 12.1 10.3 11.8 10.4 11.75 10.45 11.0 10.5 10.65 10.45 10.6 10.5 10.55 10.5 10.25 10.4 10.15 10.4 10.0 10.3 9.95 10.2 9.8 10.05 9.75 10.05 9.65 9.9 9.6 9.85 9.6 9.8 9.55 9.7 9.55 9.5 9.6 9.3 9.7 9.05 10.1 8.6 10.05 8.6 10.0 8.65 9.9 8.65 9.9 8.55 9.7 8.55 9.7 8.5 9.25 8.5 9.2 8.45 8.8 8.5 8.5 8.6 8.65 8.4 9.15 8.3 9.4 8.3 9.4 8.35 9.85 8.35 9.85 8.4 10.1 8.6 10.3 8.5 10.4 8.45 10.45 8.45 11.35 8.3 11.9 8.3 11.95 8.35 12.3 8.45 M10.55 7.0 L10.8 7.25 10.55 7.7 10.25 7.5 10.55 7.0 M10.95 7.4 L11.05 7.5 10.55 7.7 10.95 7.4 M11.65 5.1 L12.0 5.25 11.9 5.5 11.6 5.2 11.65 5.1 M16.0 2.05 L16.2 2.35 16.2 2.4 16.5 3.0 16.7 3.75 16.65 3.85 16.75 4.25 16.75 4.4 16.7 4.5 16.4 4.85 15.85 5.25 15.95 5.05 15.9 4.85 16.4 4.6 15.9 4.5 16.35 4.3 16.3 4.0 16.4 3.95 16.25 3.35 16.15 3.15 16.15 2.9 16.0 2.05 M16.8 4.4 L16.8 4.2 17.1 3.95 17.15 3.95 17.2 4.05 16.8 4.4 M9.2 10.5 L8.7 10.65 7.65 10.85 7.25 10.85 Q7.45 10.75 7.6 10.6 L7.9 10.55 7.9 10.45 8.55 10.35 9.65 10.0 9.85 10.2 9.2 10.45 9.2 10.5 M2.4 9.25 L2.25 9.15 2.7 9.1 2.6 9.05 2.35 8.75 2.3 8.75 2.05 8.35 1.85 8.1 1.5 7.45 1.4 7.15 1.7 7.65 1.9 7.85 2.05 7.95 2.25 8.3 2.75 9.0 2.85 8.95 3.0 9.1 3.5 9.1 2.4 9.25 M1.15 6.6 L0.85 6.5 6.3 6.45 4.25 7.35 4.1 7.35 3.85 7.25 3.75 7.25 3.55 7.55 3.2 7.85 3.0 7.95 2.65 8.05 2.4 8.0 2.4 8.05 2.15 7.95 1.95 7.8 1.75 7.55 1.7 7.55 1.45 7.1 1.4 6.8 1.35 6.8 1.35 6.6 1.3 6.6 1.3 6.7 1.35 6.95 1.3 6.85 1.25 6.85 1.25 6.6 1.15 6.6 M2.75 2.4 L3.05 2.0 3.05 1.95 3.1 2.2 2.3 3.25 2.35 3.3 2.1 3.7 1.9 4.15 1.5 6.0 1.35 6.0 1.4 5.35 1.8 3.9 2.05 3.45 2.0 3.45 2.75 2.4 M13.15 6.65 L13.1 6.7 12.65 6.25 14.0 5.35 13.15 6.65 M12.55 9.0 L12.4 8.9 12.4 8.8 12.2 8.75 12.2 8.65 12.0 8.6 12.05 8.5 11.55 8.5 11.55 8.45 11.4 8.45 11.0 8.5 11.0 8.45 10.75 8.5 10.55 8.6 10.5 8.55 10.2 8.65 9.8 9.15 9.7 9.4 9.7 9.6 9.75 9.6 9.75 9.75 9.8 9.75 9.85 9.9 9.9 9.9 9.95 10.0 10.1 9.95 10.15 10.05 10.2 10.0 10.25 10.05 10.45 10.2 10.5 10.15 10.65 10.2 10.7 10.1 11.25 10.15 11.6 10.1 11.6 10.0 12.05 9.95 12.7 9.8 13.0 9.7 13.55 9.6 13.1 9.4 13.05 9.5 12.9 9.25 12.55 9.05 12.55 9.0 M3.85 5.0 L3.75 4.65 3.0 2.75 3.05 2.65 3.1 2.2 3.55 3.65 3.95 4.5 4.05 4.85 4.0 4.9 4.0 4.95 3.85 5.0 M1.3 5.65 L1.35 5.65 1.25 6.05 1.15 6.1 1.15 6.0 1.05 5.25 1.35 5.4 1.35 5.6 1.3 5.55 1.3 5.65 M4.25 10.6 L3.8 10.35 3.75 10.35 3.4 10.15 2.55 9.35 2.95 9.5 3.2 9.55 3.75 10.1 3.85 10.05 4.1 10.2 4.15 10.25 4.15 10.35 4.25 10.6 M3.4 7.45 L3.6 7.2 3.55 7.25 3.55 7.2 1.55 6.7 1.65 7.15 1.75 7.3 1.8 7.3 2.1 7.7 2.2 7.8 2.3 7.7 2.5 7.85 2.6 7.85 2.6 7.8 3.1 7.6 3.3 7.45 3.4 7.45" fill="#7f6600" fill-rule="evenodd" stroke="none"/>
    <path d="M13.15 3.45 L14.6 1.35 14.0 5.35 14.4 6.75 14.4 6.8 14.3 7.0 14.3 7.15 14.25 7.25 14.2 7.25 13.85 7.3 13.15 6.65 14.0 5.35 12.65 6.25 11.9 5.5 12.0 5.25 11.7 4.8 12.8 3.45 13.15 3.45 M10.8 7.25 L10.95 7.4 10.55 7.7 10.8 7.25 M13.9 7.55 L14.1 7.5 14.1 7.55 14.35 7.5 14.5 7.85 14.5 7.65 14.45 7.65 14.45 7.45 14.4 7.45 14.45 7.1 14.95 6.0 15.2 5.7 15.25 5.7 15.55 5.45 15.35 5.5 15.15 5.6 15.15 5.55 15.1 5.25 15.05 5.25 15.0 5.2 15.05 5.1 15.1 5.05 14.95 4.85 14.95 4.5 14.9 4.5 14.95 4.4 15.7 1.5 15.8 1.65 15.85 1.75 16.0 2.05 16.15 2.9 16.15 3.15 16.25 3.35 16.4 3.95 16.3 4.0 16.35 4.3 15.9 4.5 16.4 4.6 15.9 4.85 15.95 5.05 15.85 5.25 16.4 4.85 16.7 4.5 16.75 4.4 16.8 4.4 17.2 4.05 17.15 4.4 17.1 4.7 16.75 5.5 16.05 6.0 15.7 6.35 15.35 6.95 15.2 7.65 15.35 7.85 14.95 8.15 14.9 8.05 14.75 8.1 14.7 8.0 14.65 8.0 14.6 7.85 14.5 7.85 14.6 8.1 14.45 8.15 13.9 7.55 M4.6 1.85 L6.5 4.0 6.65 4.2 9.8 3.35 6.3 6.45 4.25 10.6 4.25 7.35 6.3 6.45 0.85 6.5 4.35 5.0 4.6 1.85 M7.25 9.3 L7.45 9.45 7.4 9.5 7.5 9.6 7.45 9.7 7.5 9.8 7.45 9.85 7.5 10.15 7.4 10.2 7.4 10.35 7.35 10.4 7.3 10.35 7.15 10.5 7.15 10.55 7.0 10.55 7.05 10.65 6.9 10.7 6.75 10.7 6.7 10.75 6.15 10.75 5.3 10.55 5.25 10.65 4.45 10.35 5.7 8.95 5.6 9.15 5.35 9.55 5.3 9.6 5.4 9.6 7.25 9.3 M9.6 9.85 L9.6 9.9 9.65 10.0 8.55 10.35 7.9 10.45 7.9 10.55 7.6 10.6 7.65 10.5 7.75 10.4 7.75 10.25 7.8 10.0 7.75 9.8 7.75 9.75 7.8 9.8 7.6 9.25 8.0 9.15 8.5 8.6 8.8 8.5 9.2 8.45 9.25 8.5 9.7 8.5 9.7 8.55 9.9 8.55 9.9 8.65 10.0 8.65 9.7 9.0 9.5 9.4 9.5 9.75 9.55 9.85 9.6 9.85 M14.45 8.15 L14.6 8.2 14.4 8.25 14.35 8.75 14.1 8.9 14.15 9.0 13.75 9.25 13.7 9.25 13.45 9.15 13.0 8.9 12.95 8.85 12.4 8.45 14.45 8.15 M12.55 9.0 L12.55 9.05 12.9 9.25 13.05 9.5 13.1 9.4 13.55 9.6 13.0 9.7 12.7 9.8 12.05 9.95 11.6 10.0 11.6 10.1 11.25 10.15 10.7 10.1 10.65 10.2 10.5 10.15 10.45 10.2 10.25 10.05 10.2 10.0 10.15 10.05 10.1 9.95 9.95 10.0 9.9 9.9 9.85 9.9 9.8 9.75 9.75 9.75 9.75 9.6 9.7 9.6 9.7 9.4 9.8 9.15 10.2 8.65 10.5 8.55 10.55 8.6 10.75 8.5 11.0 8.45 11.0 8.5 11.4 8.45 11.55 8.45 11.55 8.5 12.05 8.5 12.0 8.6 12.2 8.65 12.2 8.75 12.4 8.8 12.4 8.9 12.55 9.0 M1.5 6.0 L1.9 4.15 2.1 3.7 2.35 3.3 2.3 3.25 3.1 2.2 3.05 2.65 3.0 2.75 3.75 4.65 3.85 5.0 3.8 5.05 2.3 5.75 1.5 6.0 M1.35 5.6 L1.3 5.65 1.3 5.55 1.35 5.6 M2.55 9.35 L2.4 9.25 3.5 9.1 3.0 9.1 2.85 8.95 2.75 9.0 2.25 8.3 2.05 7.95 2.05 7.9 2.1 8.0 2.45 8.1 2.7 8.1 3.0 8.0 3.3 7.85 3.65 7.55 3.85 7.25 4.1 7.35 4.15 10.25 4.1 10.2 3.85 10.05 3.75 10.1 3.2 9.55 2.95 9.5 2.55 9.35 M3.4 7.45 L3.3 7.45 3.1 7.6 2.6 7.8 2.6 7.85 2.5 7.85 2.3 7.7 2.2 7.8 2.1 7.7 1.8 7.3 1.75 7.3 1.65 7.15 1.55 6.7 3.55 7.2 3.55 7.25 3.6 7.2 3.4 7.45" fill="#ffcc00" fill-rule="evenodd" stroke="none"/>
    <path d="M14.45 1.35 L14.45 1.45 12.35 1.55 12.3 1.55 12.15 1.4 12.05 1.4 10.05 3.6 10.2 3.8 10.25 3.9 10.3 4.05 9.75 3.45 9.8 3.35 9.95 3.5 10.25 3.15 10.15 3.0 10.3 3.05 11.8 1.35 14.45 1.3 14.45 1.35 M14.35 1.6 L12.85 3.4 13.15 3.45 12.8 3.45 11.7 4.8 12.0 5.25 11.65 5.1 11.55 4.95 11.45 5.05 11.6 5.2 11.9 5.5 12.65 6.25 13.1 6.7 13.15 6.65 13.85 7.3 14.2 7.25 14.25 7.25 14.3 7.15 14.3 7.0 14.4 6.8 14.4 6.75 14.55 6.4 14.75 6.1 14.4 6.85 14.3 7.4 14.25 7.3 13.85 7.35 13.75 7.4 13.9 7.55 14.45 8.15 12.4 8.45 12.95 8.85 12.4 8.55 12.4 8.5 12.35 8.5 12.4 8.45 12.5 8.4 14.3 8.1 11.4 5.15 11.3 5.15 14.15 1.7 14.35 1.6 M10.35 6.25 L10.25 6.4 10.25 6.45 12.3 8.45 11.95 8.35 11.9 8.3 11.35 8.3 10.45 8.45 10.4 8.45 10.3 8.5 10.5 8.35 11.25 8.25 11.85 8.25 11.05 7.5 10.95 7.4 10.8 7.25 10.55 7.0 10.1 6.6 9.3 7.65 9.25 7.6 10.35 6.25 M15.15 5.6 L15.15 5.65 15.1 5.65 14.9 5.85 14.9 5.95 14.9 5.8 14.9 5.85 14.95 5.75 14.95 5.45 15.0 5.7 15.1 5.65 15.15 5.55 15.15 5.6 M15.6 1.5 L15.45 2.0 15.55 1.55 15.6 1.5 M15.3 2.5 L15.25 2.9 15.2 3.0 14.9 3.85 14.85 4.2 14.85 3.9 15.3 2.5 M16.0 2.05 L15.85 1.75 16.05 2.05 16.05 2.0 16.5 2.75 16.7 3.3 16.8 4.15 16.95 4.0 17.05 3.95 17.1 3.95 16.8 4.2 16.8 4.4 16.75 4.4 16.75 4.25 16.65 3.85 16.7 3.75 16.5 3.0 16.2 2.4 16.2 2.35 16.0 2.05 M17.15 4.4 L17.05 5.5 17.0 5.75 16.3 7.35 15.95 7.85 15.7 8.1 15.65 8.1 15.2 8.65 14.45 9.25 14.1 9.45 13.15 10.05 12.6 10.3 11.0 10.6 10.5 10.55 10.05 10.4 9.9 10.25 9.6 10.35 9.55 10.4 9.2 10.5 9.2 10.45 9.85 10.2 9.65 10.0 9.6 9.9 9.6 9.85 9.65 9.9 9.75 10.05 9.8 10.05 9.95 10.2 10.0 10.3 10.15 10.4 10.25 10.4 10.55 10.5 10.6 10.5 10.65 10.45 11.0 10.5 11.75 10.45 11.8 10.4 12.1 10.3 12.6 10.2 12.9 10.1 13.3 9.9 13.3 9.85 13.7 9.6 14.1 9.45 13.7 9.25 14.05 9.4 14.9 8.8 15.45 8.25 15.1 8.4 14.9 8.4 14.8 8.35 14.85 8.3 14.95 8.35 15.05 8.3 15.2 8.3 15.2 8.25 15.3 8.25 15.55 8.1 15.6 8.05 15.85 7.85 16.25 7.3 17.0 5.55 17.1 4.7 17.15 4.4 M8.7 10.65 L7.65 10.9 7.15 10.9 7.05 10.95 6.7 11.05 6.25 11.1 4.8 10.85 3.8 10.45 3.75 10.4 3.7 10.4 3.6 10.3 3.5 10.3 2.55 9.45 2.4 9.25 2.55 9.35 3.4 10.15 3.75 10.35 3.8 10.35 4.25 10.6 5.8 11.0 5.85 10.95 6.3 11.0 6.45 11.05 6.85 10.95 7.1 10.85 7.25 10.75 7.45 10.65 7.5 10.6 7.55 10.5 7.6 10.5 7.65 10.45 7.65 10.4 7.7 10.2 7.75 10.15 7.75 9.8 7.65 9.6 7.6 9.45 7.6 9.4 7.5 9.25 7.25 9.3 5.4 9.6 5.8 9.45 8.0 9.1 8.8 8.15 8.85 8.15 8.7 8.35 9.1 8.25 9.35 8.25 9.4 8.3 9.6 8.25 9.75 8.25 9.8 8.25 10.15 8.5 10.15 8.55 10.2 8.5 10.3 8.5 10.1 8.6 9.85 8.4 9.85 8.35 9.4 8.35 9.4 8.3 9.15 8.3 8.65 8.4 8.5 8.6 8.0 9.15 7.6 9.25 7.8 9.8 7.75 9.75 7.75 9.8 7.8 10.0 7.75 10.25 7.75 10.4 7.65 10.5 7.6 10.6 Q7.45 10.75 7.25 10.85 L7.65 10.85 8.7 10.65 M2.25 9.15 L2.25 9.1 2.5 9.05 2.2 8.75 1.35 7.25 1.15 6.6 1.25 6.6 1.25 6.85 1.3 6.85 1.35 6.95 1.3 6.7 1.3 6.6 1.35 6.6 1.35 6.8 1.4 6.8 1.45 7.1 1.7 7.55 1.75 7.55 1.95 7.8 2.15 7.95 2.4 8.05 2.4 8.0 2.65 8.05 3.0 7.95 3.2 7.85 3.55 7.55 3.75 7.25 3.85 7.25 3.65 7.55 3.3 7.85 3.0 8.0 2.7 8.1 2.45 8.1 2.1 8.0 2.05 7.9 2.05 7.95 1.9 7.85 1.7 7.65 1.4 7.15 1.5 7.45 1.85 8.1 2.05 8.35 2.3 8.75 2.35 8.75 2.6 9.05 2.7 9.1 2.25 9.15 M0.85 6.5 L0.8 6.25 1.1 6.1 1.0 5.15 1.35 5.3 1.45 4.8 1.75 3.8 2.05 3.3 2.1 3.25 2.25 2.95 2.55 2.65 2.75 2.4 2.0 3.45 2.05 3.45 1.8 3.9 1.4 5.35 1.35 6.0 1.5 6.0 2.3 5.75 3.8 5.05 3.85 5.0 4.0 4.95 4.0 4.9 4.05 4.85 3.95 4.5 3.55 3.65 3.1 2.2 3.05 1.95 4.15 4.85 4.15 4.8 4.45 1.75 4.6 1.85 4.35 5.0 0.85 6.5 M6.5 4.0 L7.2 3.85 7.15 3.75 4.95 1.6 8.05 1.5 8.2 1.65 9.8 3.35 6.65 4.2 6.5 4.0 M10.0 8.65 L10.05 8.6 10.1 8.6 9.7 9.05 9.6 9.3 9.55 9.5 9.55 9.7 9.6 9.8 9.6 9.85 9.55 9.85 9.5 9.75 9.5 9.4 9.7 9.0 10.0 8.65 M1.35 5.6 L1.35 5.4 1.05 5.25 1.15 6.0 1.15 6.1 1.25 6.05 1.35 5.65 1.3 5.65 1.35 5.6 M4.25 7.35 L4.25 10.6 4.15 10.35 4.15 10.25 4.1 7.35 4.25 7.35 M9.55 3.4 L9.7 3.35 8.2 1.8 8.2 1.65 5.35 1.75 7.5 3.85 7.8 3.85 9.55 3.4 M8.7 5.05 L9.0 5.35 8.65 5.25 8.05 5.95 8.7 5.05" fill="#000000" fill-rule="evenodd" stroke="none"/>
    <path d="M14.45 1.45 L14.35 1.6 14.15 1.7 11.3 5.15 11.4 5.15 14.3 8.1 12.5 8.4 12.4 8.45 12.35 8.5 12.3 8.45 10.25 6.45 10.25 6.4 10.35 6.25 12.5 8.35 12.6 8.25 13.95 8.05 12.6 6.65 12.7 6.65 11.25 5.2 11.15 5.2 13.9 1.85 14.15 1.7 12.5 1.75 12.35 1.55 14.45 1.45 M9.75 3.45 L10.3 4.05 10.35 4.35 9.7 3.55 9.75 3.45 M10.25 3.9 L10.2 3.8 10.05 3.6 12.05 1.4 12.15 1.4 12.3 1.55 10.25 3.9 M8.8 4.85 L9.3 5.4 9.15 5.35 9.05 5.35 8.25 6.2 8.05 5.95 8.65 5.25 9.0 5.35 8.7 5.05 8.8 4.85 M9.2 7.5 L10.35 6.05 10.35 6.25 9.25 7.6 9.2 7.5 M5.7 8.95 L6.6 7.95 6.8 7.95 5.4 9.6 5.3 9.6 5.35 9.55 5.6 9.15 5.7 8.95 M8.65 8.15 L8.8 8.15 8.0 9.1 5.8 9.45 6.1 9.3 8.0 9.05 7.95 8.95 8.65 8.15 M9.55 3.4 L8.2 1.95 8.2 1.85 5.9 1.95 7.8 3.85 7.5 3.85 5.35 1.75 8.2 1.65 8.2 1.8 9.7 3.35 9.55 3.4" fill="#646464" fill-rule="evenodd" stroke="none"/>
    <path d="M10.3 4.05 L10.25 3.9 12.3 1.55 12.35 1.55 12.5 1.75 14.15 1.7 13.9 1.85 11.15 5.2 11.25 5.2 12.7 6.65 12.6 6.65 13.95 8.05 12.6 8.25 12.5 8.35 10.35 6.25 10.35 6.05 9.2 7.5 8.25 6.2 9.05 5.35 9.15 5.35 9.3 5.4 8.8 4.85 9.7 3.55 10.35 4.35 10.3 4.05 M6.8 7.95 L8.65 8.15 7.95 8.95 8.0 9.05 6.1 9.3 5.8 9.45 5.4 9.6 6.8 7.95 M7.8 3.85 L5.9 1.95 8.2 1.85 8.2 1.95 9.55 3.4 7.8 3.85" fill="#c8c8c8" fill-rule="evenodd" stroke="none"/>
  </g>
</svg>
