<?xml version="1.0" encoding="UTF-8" standalone="no"?>
<svg xmlns:ffdec="https://www.free-decompiler.com/flash" xmlns:xlink="http://www.w3.org/1999/xlink" ffdec:objectType="shape" height="9.4px" width="17.3px" xmlns="http://www.w3.org/2000/svg">
  <g transform="matrix(1.0, 0.0, 0.0, 1.0, -0.7, -1.35)">
    <path d="M3.85 4.65 L3.8 4.55 2.95 2.2 2.9 2.4 2.35 3.1 1.85 4.0 1.85 4.25 1.7 4.6 1.75 4.6 1.6 5.6 1.4 5.6 1.35 5.65 1.8 3.65 2.1 3.15 3.0 1.95 3.45 3.2 3.95 4.55 4.0 4.6 3.85 4.65 M15.1 1.45 L15.35 4.05 14.25 5.5 15.1 1.45 M16.3 1.6 L16.3 1.55 16.4 1.65 16.0 3.05 15.6 4.0 15.5 4.45 15.55 4.45 15.5 4.85 15.55 5.2 15.4 4.7 15.4 4.4 15.45 4.15 15.8 3.1 15.65 3.6 16.3 1.6 M17.95 4.2 L18.0 4.3 18.0 4.4 17.3 4.95 17.2 4.5 17.3 4.45 17.0 3.25 16.8 2.95 16.85 2.9 16.65 2.6 16.5 1.9 16.75 2.35 16.85 2.4 17.25 3.1 17.25 3.15 17.4 3.6 17.55 4.5 17.95 4.2 M2.35 8.7 L2.2 8.6 2.65 8.55 2.4 8.2 2.35 8.2 1.65 7.05 1.85 7.3 2.2 7.55 2.35 7.8 2.95 8.6 3.4 8.6 2.35 8.7 M1.35 6.2 L0.7 6.0 5.7 6.25 3.9 7.0 3.7 6.95 3.65 6.95 3.6 7.0 3.6 7.05 3.45 7.2 3.1 7.45 2.7 7.5 2.5 7.55 2.35 7.5 2.1 7.45 1.9 7.2 1.75 7.05 1.7 7.05 1.5 6.75 1.4 6.25 1.35 6.2 M14.2 7.75 L14.1 7.65 14.25 7.6 14.65 7.6 14.65 7.75 14.4 7.75 14.4 7.7 14.2 7.75 M14.7 7.8 L14.7 7.75 14.75 7.55 14.7 7.5 14.75 7.45 15.05 6.65 15.35 6.15 15.6 5.95 15.7 5.85 15.85 5.75 15.95 5.75 16.25 5.65 15.95 5.8 15.55 6.1 14.9 7.25 14.85 7.45 14.85 7.95 14.9 8.0 14.9 8.15 15.0 8.15 15.05 8.3 15.1 8.3 15.2 8.45 15.25 8.4 15.3 8.55 15.35 8.5 15.4 8.5 15.5 8.55 15.55 8.5 15.6 8.5 15.6 8.45 15.7 8.4 15.7 8.35 16.05 8.25 16.65 7.6 17.35 6.25 17.45 5.95 17.5 5.65 17.85 4.85 17.85 5.25 17.8 5.4 17.8 5.6 17.55 6.4 17.15 7.25 16.6 8.1 16.55 8.1 16.3 8.35 15.95 8.55 15.9 8.6 15.65 8.65 15.6 8.7 15.4 8.7 15.35 8.75 15.15 8.65 14.95 8.45 14.85 8.15 14.75 7.95 14.7 7.8 M13.35 6.9 L12.85 6.35 14.25 5.5 13.45 6.85 13.35 6.9 M1.4 5.1 L1.25 5.05 1.35 5.2 1.4 5.25 1.35 5.65 1.35 5.45 1.25 5.05 1.15 4.8 1.45 4.95 1.4 5.1 M2.6 8.85 L3.15 9.1 3.2 9.1 3.75 9.6 3.95 9.7 3.95 10.0 3.55 9.8 2.6 8.85 M4.0 10.05 L5.75 6.25 5.8 6.15 9.55 3.4 9.5 3.45 8.55 4.75 8.45 4.9 8.4 5.0 7.75 5.85 5.75 6.25 9.5 8.25 9.7 8.3 9.95 8.35 10.05 8.4 10.05 8.45 10.15 8.55 10.05 8.55 10.0 8.5 9.7 8.45 9.7 8.4 9.3 8.35 9.05 8.4 8.5 8.45 8.25 8.5 8.4 8.35 8.7 8.3 9.5 8.25 9.2 8.2 8.65 8.1 8.55 8.1 8.45 8.05 6.7 7.75 6.35 7.7 6.3 7.7 5.65 8.35 4.15 9.85 5.7 10.45 5.75 10.35 6.45 10.45 6.6 10.45 7.15 10.2 7.2 10.25 7.3 10.15 7.4 10.15 7.4 9.9 7.45 9.85 7.45 9.7 7.4 9.55 7.45 9.5 7.35 9.35 7.4 9.3 7.25 9.1 7.15 9.05 7.4 9.05 7.55 9.3 7.6 9.35 7.6 9.5 7.65 9.75 7.6 9.8 7.65 9.9 7.6 10.1 7.55 10.1 7.5 10.2 7.4 10.35 7.35 10.35 7.3 10.4 7.15 10.5 6.85 10.65 6.55 10.7 6.1 10.7 5.3 10.5 4.95 10.35 4.9 10.4 4.0 10.05 M12.6 8.65 L12.6 8.7 12.55 8.65 12.6 8.65 M13.0 9.0 L13.15 9.15 13.45 9.35 13.65 9.4 14.05 9.6 14.75 9.3 15.45 8.85 15.5 8.8 15.75 8.75 16.15 8.55 15.3 9.25 14.45 9.7 14.4 9.75 14.45 9.75 14.2 9.85 14.1 9.85 12.45 8.9 12.45 8.85 12.0 8.65 11.6 8.55 11.5 8.55 11.5 8.5 11.05 8.5 10.25 8.65 9.95 8.85 9.65 9.25 9.6 9.4 9.6 9.6 9.65 9.65 9.65 9.75 9.7 9.75 9.75 9.85 9.8 9.85 9.85 10.0 9.95 9.95 9.95 10.0 10.1 10.15 10.2 10.15 10.2 10.2 10.45 10.3 10.5 10.2 10.75 10.3 11.5 10.35 12.5 10.3 12.5 10.2 12.95 10.1 13.3 9.95 13.6 9.95 13.95 9.9 13.25 10.25 12.95 10.35 13.0 10.4 12.65 10.5 12.3 10.55 10.95 10.6 10.5 10.5 10.5 10.55 10.2 10.45 9.95 10.25 9.9 10.3 9.75 10.1 9.7 10.0 9.65 10.05 9.55 9.85 9.45 9.65 9.45 9.55 9.5 9.4 9.5 9.3 9.8 8.85 10.1 8.6 10.6 8.45 11.15 8.4 11.7 8.4 11.75 8.4 11.75 8.45 12.1 8.5 12.25 8.55 12.4 8.65 12.45 8.65 13.0 9.0 M14.8 7.05 L14.25 5.5 15.6 5.3 15.55 5.35 15.6 5.5 15.65 5.5 15.7 5.8 15.6 5.9 15.55 5.75 15.5 5.7 15.5 5.9 15.55 5.95 15.4 6.0 15.4 6.05 15.0 6.65 14.8 7.05 M9.6 10.05 L9.7 10.15 9.8 10.2 9.45 10.35 9.05 10.45 7.65 10.65 7.1 10.6 7.4 10.4 7.45 10.4 9.15 10.2 9.6 10.05 M11.05 7.5 L11.15 7.6 10.6 7.75 Q10.85 7.65 11.05 7.5 M2.7 7.35 Q3.0 7.25 3.25 7.1 L3.35 7.1 3.45 6.85 1.6 6.3 1.65 6.6 1.7 6.6 2.1 7.2 2.4 7.4 2.4 7.3 2.5 7.3 2.5 7.4 2.7 7.35" fill="#7f6600" fill-rule="evenodd" stroke="none"/>
    <path d="M1.6 5.6 L1.75 4.6 1.7 4.6 1.85 4.25 1.85 4.0 2.35 3.1 2.9 2.4 2.95 2.2 3.8 4.55 3.85 4.65 3.6 4.8 1.6 5.6 M15.35 4.05 L15.45 4.05 15.35 4.45 15.35 4.6 15.4 4.7 15.55 5.2 15.5 4.85 15.55 4.45 15.5 4.45 15.6 4.0 16.0 3.05 16.4 1.65 16.5 1.9 16.65 2.6 16.85 2.9 16.8 2.95 17.0 3.25 17.3 4.45 17.2 4.5 17.3 4.95 18.0 4.4 17.95 4.55 17.85 4.85 17.5 5.65 17.45 5.95 17.35 6.25 16.65 7.6 16.05 8.25 15.7 8.35 15.7 8.4 15.6 8.45 15.6 8.5 15.55 8.5 15.5 8.55 15.4 8.5 15.35 8.5 15.3 8.55 15.25 8.4 15.2 8.45 15.1 8.3 15.05 8.3 15.0 8.15 14.9 8.15 14.9 8.0 14.85 7.95 14.85 7.45 14.9 7.25 15.55 6.1 15.95 5.8 16.25 5.65 15.95 5.75 15.85 5.75 15.7 5.85 15.7 5.8 15.65 5.5 15.6 5.5 15.55 5.35 15.6 5.3 14.25 5.5 14.8 7.05 14.75 7.45 14.7 7.5 14.7 7.55 14.2 7.55 13.45 6.85 14.25 5.5 12.85 6.35 12.05 5.6 12.25 5.35 11.8 4.75 12.95 3.5 13.45 3.6 15.1 1.45 14.25 5.5 15.35 4.05 M4.0 4.55 L4.25 1.75 6.3 4.05 7.6 3.8 7.9 3.7 9.25 3.45 9.6 3.35 9.55 3.4 5.8 6.15 5.75 6.25 4.0 10.05 3.95 10.05 3.95 10.0 3.95 9.7 3.75 9.6 3.2 9.1 3.15 9.1 2.6 8.85 2.35 8.7 3.4 8.6 2.95 8.6 2.35 7.8 2.2 7.55 2.35 7.6 2.75 7.6 3.1 7.45 3.2 7.4 3.45 7.2 3.6 7.05 3.7 6.95 3.9 7.0 5.7 6.25 0.7 6.0 4.0 4.75 4.0 4.6 4.0 4.55 M14.7 8.45 L14.2 7.75 14.4 7.7 14.4 7.75 14.65 7.75 14.7 7.8 14.75 7.95 14.85 8.15 14.95 8.45 15.15 8.65 15.35 8.75 15.45 8.75 15.5 8.8 15.45 8.85 14.75 9.3 14.05 9.6 13.65 9.4 13.45 9.35 13.15 9.15 13.0 9.0 12.8 8.8 12.6 8.7 12.6 8.65 14.55 8.45 14.7 8.45 M1.4 5.25 L1.35 5.2 1.25 5.05 1.4 5.1 1.4 5.25 M8.95 7.5 L9.05 7.6 9.5 8.25 5.75 6.25 7.75 5.85 8.05 6.25 8.95 7.5 M14.1 9.85 L13.95 9.9 13.6 9.95 13.3 9.95 12.95 10.1 12.5 10.2 12.5 10.3 11.5 10.35 10.75 10.3 10.5 10.2 10.45 10.3 10.2 10.2 10.2 10.15 10.1 10.15 9.95 10.0 9.95 9.95 9.85 10.0 9.8 9.85 9.75 9.85 9.7 9.75 9.65 9.75 9.65 9.65 9.6 9.6 9.6 9.4 9.65 9.25 9.95 8.85 10.25 8.65 11.05 8.5 11.5 8.5 11.5 8.55 11.6 8.55 12.0 8.65 12.45 8.85 12.45 8.9 14.1 9.85 M9.55 9.85 L9.55 9.95 9.6 10.05 9.15 10.2 7.45 10.4 7.55 10.25 7.65 10.05 7.65 9.9 7.65 9.75 7.6 9.5 7.6 9.35 7.55 9.3 7.5 9.05 7.8 9.0 8.25 8.5 8.5 8.45 9.05 8.4 9.3 8.35 9.7 8.4 9.7 8.45 10.0 8.5 10.05 8.55 10.0 8.6 9.85 8.7 9.75 8.85 9.6 9.0 9.4 9.45 9.4 9.6 9.45 9.65 9.45 9.7 9.5 9.85 9.55 9.85 M10.6 7.75 L10.9 7.35 11.05 7.5 Q10.85 7.65 10.6 7.75 M5.65 8.35 L5.55 8.55 5.35 8.9 5.05 9.25 5.35 9.2 7.15 9.05 7.25 9.1 7.4 9.3 7.35 9.35 7.45 9.5 7.4 9.55 7.45 9.7 7.45 9.85 7.4 9.9 7.4 10.15 7.3 10.15 7.2 10.25 7.15 10.2 6.6 10.45 6.45 10.45 5.75 10.35 5.7 10.45 4.15 9.85 5.65 8.35 M2.7 7.35 L2.5 7.4 2.5 7.3 2.4 7.3 2.4 7.4 2.1 7.2 1.7 6.6 1.65 6.6 1.6 6.3 3.45 6.85 3.35 7.1 3.25 7.1 Q3.0 7.25 2.7 7.35" fill="#ffcc00" fill-rule="evenodd" stroke="none"/>
    <path d="M3.85 4.65 L4.0 4.6 3.95 4.55 3.45 3.2 3.0 1.95 2.1 3.15 1.8 3.65 1.35 5.65 1.4 5.6 1.6 5.6 3.6 4.8 3.85 4.65 M4.25 1.75 L4.3 1.65 6.25 3.9 7.1 3.7 4.85 1.5 7.95 1.45 10.0 3.55 12.05 1.4 12.65 1.35 14.85 1.35 14.9 1.4 15.1 1.45 13.45 3.6 12.95 3.5 11.8 4.75 12.25 5.35 12.05 5.6 12.85 6.35 13.35 6.9 14.05 7.6 14.2 7.55 14.7 7.55 14.7 7.5 14.75 7.55 14.7 7.75 14.7 7.8 14.65 7.75 14.65 7.6 14.25 7.6 14.1 7.65 14.2 7.75 14.7 8.45 11.4 5.2 11.3 5.2 14.5 1.7 14.8 1.5 12.35 1.5 12.25 1.45 10.1 3.7 10.15 3.9 7.95 1.65 7.95 1.6 5.15 1.65 7.3 3.75 7.5 3.75 7.6 3.8 6.3 4.05 4.25 1.75 M15.45 4.05 L15.5 3.85 15.8 3.1 16.25 1.65 16.25 1.6 16.3 1.6 15.65 3.6 15.8 3.1 15.45 4.15 15.4 4.4 15.4 4.7 15.35 4.6 15.35 4.45 15.45 4.05 M16.4 1.65 L17.2 2.85 17.45 3.5 17.6 4.4 17.8 4.25 17.95 4.2 17.55 4.5 17.4 3.6 17.25 3.15 17.25 3.1 16.85 2.4 16.75 2.35 16.5 1.9 16.4 1.65 M17.95 4.55 L17.9 5.65 17.8 6.0 17.0 7.6 16.65 8.15 16.55 8.25 16.2 8.5 16.0 8.75 15.35 9.3 14.5 9.8 14.4 9.8 14.05 10.0 13.0 10.45 12.6 10.55 11.9 10.65 10.85 10.65 10.6 10.6 10.35 10.6 9.95 10.35 9.9 10.3 9.85 10.25 9.6 10.35 8.4 10.6 7.2 10.7 6.95 10.65 6.8 10.7 6.3 10.75 6.15 10.75 5.75 10.7 4.85 10.45 3.95 10.05 3.85 10.0 3.8 10.0 3.4 9.75 2.35 8.7 2.6 8.85 3.55 9.8 3.95 10.0 3.95 10.05 4.0 10.05 4.9 10.4 4.95 10.35 5.3 10.5 6.1 10.7 6.55 10.7 6.85 10.65 7.15 10.5 7.3 10.4 7.35 10.35 7.4 10.35 7.5 10.2 7.55 10.1 7.6 10.1 7.65 9.9 7.65 10.05 7.55 10.25 7.45 10.4 7.4 10.4 7.1 10.6 7.65 10.65 9.05 10.45 9.45 10.35 9.8 10.2 9.7 10.15 9.6 10.05 9.55 9.95 9.55 9.85 9.65 10.05 9.7 10.0 9.75 10.1 9.9 10.3 9.95 10.25 10.2 10.45 10.5 10.55 10.5 10.5 10.95 10.6 12.3 10.55 12.65 10.5 13.0 10.4 12.95 10.35 13.25 10.25 13.95 9.9 14.1 9.85 14.2 9.85 14.45 9.75 14.4 9.75 14.45 9.7 15.3 9.25 16.15 8.55 15.75 8.75 15.5 8.8 15.45 8.75 15.35 8.75 15.4 8.7 15.6 8.7 15.65 8.65 15.9 8.6 15.95 8.55 16.3 8.35 16.55 8.1 16.6 8.1 17.15 7.25 17.55 6.4 17.8 5.6 17.8 5.4 17.85 5.25 17.85 4.85 17.95 4.55 M2.2 8.6 L2.25 8.55 2.5 8.5 1.75 7.35 1.45 6.7 1.35 6.2 1.4 6.25 1.5 6.75 1.7 7.05 1.75 7.05 1.9 7.2 2.1 7.45 2.35 7.5 2.5 7.55 2.7 7.5 3.1 7.45 3.45 7.2 3.2 7.4 3.1 7.45 2.75 7.6 2.35 7.6 2.2 7.55 1.85 7.3 1.65 7.05 2.35 8.2 2.4 8.2 2.65 8.55 2.2 8.6 M0.7 6.0 L0.85 5.85 1.3 5.65 1.15 4.8 1.15 4.75 1.45 4.85 1.6 4.1 1.85 3.45 2.0 3.15 3.0 1.85 3.0 1.8 3.45 3.2 4.0 4.55 4.0 4.6 4.0 4.75 0.7 6.0 M1.4 5.25 L1.4 5.1 1.45 4.95 1.15 4.8 1.25 5.05 1.35 5.45 1.35 5.65 1.4 5.25 M3.7 6.95 L3.6 7.05 3.6 7.0 3.65 6.95 3.7 6.95 M9.6 3.35 L9.25 3.45 9.4 3.35 9.55 3.3 9.6 3.35 M7.9 3.7 L7.6 3.8 7.5 3.7 7.9 3.7 M8.4 5.0 L8.45 4.9 8.75 5.2 8.8 5.15 8.95 5.3 8.85 5.3 8.7 5.25 7.95 6.0 8.05 6.25 7.75 5.85 7.8 5.9 8.55 5.15 8.4 5.0 M9.05 7.6 L10.15 6.3 10.15 6.45 12.45 8.65 12.55 8.6 14.5 8.4 14.7 8.45 14.55 8.45 12.6 8.65 12.55 8.65 12.6 8.7 12.8 8.8 13.0 9.0 12.45 8.65 12.4 8.65 12.25 8.55 12.1 8.5 11.75 8.45 11.75 8.4 11.85 8.4 12.05 8.45 11.15 7.6 11.05 7.5 10.9 7.35 10.6 7.75 10.45 7.5 10.7 7.15 10.05 6.55 9.1 7.6 9.35 7.95 9.5 8.25 8.7 8.3 8.4 8.35 8.25 8.5 7.8 9.0 7.5 9.05 7.55 9.3 7.4 9.05 7.15 9.05 5.35 9.2 5.4 9.15 5.5 9.15 7.75 8.95 8.55 8.1 8.65 8.1 8.45 8.3 9.2 8.2 9.5 8.25 9.05 7.6 M11.5 5.1 L11.85 5.4 12.0 5.15 11.75 4.8 11.5 5.1 M13.2 3.45 L14.35 1.95 13.0 3.45 13.2 3.45 M14.8 7.05 L15.0 6.65 15.4 6.05 15.55 5.95 15.5 5.9 15.5 5.7 15.55 5.75 15.6 5.9 15.7 5.8 15.7 5.85 15.6 5.95 15.35 6.15 15.05 6.65 14.75 7.45 14.8 7.05 M9.7 8.3 L9.8 8.25 10.05 8.4 10.2 8.5 10.5 8.4 10.6 8.45 10.75 8.35 11.7 8.35 11.7 8.4 11.15 8.4 10.6 8.45 10.1 8.6 9.8 8.85 9.5 9.3 9.5 9.4 9.45 9.55 9.45 9.65 9.4 9.6 9.4 9.45 9.6 9.0 9.75 8.85 9.85 8.7 10.0 8.6 10.05 8.55 10.15 8.55 10.05 8.45 10.05 8.4 9.95 8.35 9.7 8.3 M7.65 9.75 L7.65 9.9 7.6 9.8 7.65 9.75 M5.55 8.55 L5.65 8.35 6.3 7.7 6.35 7.7 5.55 8.55 M9.55 9.85 L9.5 9.85 9.45 9.7 9.45 9.65 9.55 9.85" fill="#000000" fill-rule="evenodd" stroke="none"/>
    <path d="M7.6 3.8 L7.5 3.75 7.3 3.75 5.15 1.65 7.95 1.6 7.95 1.65 10.15 3.9 10.1 3.7 12.25 1.45 12.35 1.5 14.8 1.5 14.5 1.7 11.3 5.2 11.4 5.2 14.7 8.45 14.5 8.4 12.55 8.6 12.45 8.65 10.15 6.45 10.15 6.3 9.05 7.6 8.95 7.5 10.2 6.15 10.15 6.25 12.55 8.55 12.6 8.5 14.4 8.35 11.2 5.2 14.25 1.85 14.5 1.7 12.5 1.75 12.4 1.6 10.15 3.95 10.2 4.2 10.2 4.25 9.5 3.45 9.55 3.4 9.6 3.35 9.55 3.3 9.4 3.35 7.95 1.8 5.55 1.85 7.4 3.65 7.5 3.7 7.6 3.8 M8.45 4.9 L8.55 4.75 9.2 5.35 8.95 5.3 8.05 6.25 7.95 6.0 8.7 5.25 8.85 5.3 8.95 5.3 8.8 5.15 8.75 5.2 8.45 4.9 M8.45 8.05 L8.55 8.1 7.75 8.95 5.5 9.15 5.8 9.0 7.7 8.85 8.45 8.05 M5.35 9.2 L5.05 9.25 5.35 8.9 5.55 8.55 6.35 7.7 6.7 7.75 5.4 9.15 5.35 9.2" fill="#646464" fill-rule="evenodd" stroke="none"/>
    <path d="M9.25 3.45 L7.9 3.7 7.5 3.7 7.4 3.65 5.55 1.85 7.95 1.8 9.4 3.35 9.25 3.45 M8.55 4.75 L9.5 3.45 10.2 4.25 10.2 4.2 10.15 3.95 12.4 1.6 12.5 1.75 14.5 1.7 14.25 1.85 11.2 5.2 14.4 8.35 12.6 8.5 12.55 8.55 10.15 6.25 10.2 6.15 8.95 7.5 8.05 6.25 8.95 5.3 9.2 5.35 8.55 4.75 M8.45 8.05 L7.7 8.85 5.8 9.0 5.5 9.15 5.4 9.15 6.7 7.75 8.45 8.05" fill="#c8c8c8" fill-rule="evenodd" stroke="none"/>
  </g>
</svg>
