<?xml version="1.0" encoding="UTF-8" standalone="no"?>
<svg xmlns:ffdec="https://www.free-decompiler.com/flash" xmlns:xlink="http://www.w3.org/1999/xlink" ffdec:objectType="shape" height="16.1px" width="17.5px" xmlns="http://www.w3.org/2000/svg">
  <g transform="matrix(1.0, 0.0, 0.0, 1.0, -1.25, 1.5)">
    <path d="M15.0 6.8 L14.8 6.9 11.0 9.95 11.15 9.9 15.05 13.15 12.5 13.15 10.0 10.7 7.55 13.15 5.2 13.15 4.95 13.2 8.95 9.95 9.05 9.95 5.3 6.9 5.1 6.8 7.75 6.8 10.0 9.05 12.4 6.8 15.0 6.8" fill="#c8c8c8" fill-rule="evenodd" stroke="none"/>
    <path d="M4.65 6.55 L7.85 6.55 10.0 8.65 12.3 6.55 15.35 6.55 15.2 6.7 15.0 6.8 12.4 6.8 10.0 9.05 7.75 6.8 5.1 6.8 5.3 6.9 9.05 9.95 8.95 9.95 4.95 13.2 5.2 13.15 7.55 13.15 10.0 10.7 12.5 13.15 15.05 13.15 11.15 9.9 11.0 9.95 14.8 6.9 15.0 6.8 11.15 9.9 11.3 9.85 11.4 9.8 15.5 13.15 15.35 13.2 14.3 13.2 12.45 13.2 10.0 10.8 7.55 13.2 5.7 13.2 4.95 13.2 4.75 13.2 4.6 13.15 8.65 9.8 8.8 9.9 8.95 9.95 5.1 6.8 4.85 6.7 4.65 6.55" fill="#646464" fill-rule="evenodd" stroke="none"/>
    <path d="M16.25 2.95 L11.55 2.5 11.55 2.45 15.85 2.85 16.25 2.95 M8.4 2.45 L8.35 2.5 3.7 2.95 4.1 2.85 8.4 2.45 M11.75 6.7 L11.9 6.55 12.15 6.15 12.8 6.05 12.7 5.65 14.8 5.65 15.1 5.7 15.5 5.85 15.6 6.0 15.65 6.15 15.55 6.45 15.4 6.55 15.35 6.55 12.3 6.55 10.0 8.65 7.85 6.55 4.65 6.55 4.5 6.4 4.45 6.25 4.45 6.1 4.5 5.95 4.55 5.9 Q4.7 5.85 4.8 5.75 L4.85 5.7 5.2 5.65 7.25 5.65 7.15 6.05 8.0 6.2 8.25 6.6 8.5 6.95 9.7 7.7 10.0 7.55 10.3 7.75 11.5 7.05 11.75 6.7 M15.0 6.8 L15.2 6.7 15.35 6.55 15.5 6.7 13.8 8.85 13.7 9.0 13.55 8.55 14.75 7.05 13.45 8.1 12.5 8.85 13.05 9.15 12.25 9.05 11.75 9.5 12.1 9.75 13.65 11.2 14.1 11.7 14.55 11.4 18.75 10.15 15.7 9.55 15.7 9.25 18.3 9.75 18.75 10.15 15.8 11.7 14.55 11.4 14.3 11.75 14.85 12.25 15.65 12.6 15.65 12.95 15.6 13.05 15.5 13.15 11.4 9.8 11.3 9.85 11.15 9.9 15.0 6.8 M12.45 13.2 L12.35 13.2 12.25 13.1 11.0 13.55 10.95 13.0 11.4 12.25 10.0 10.85 8.6 12.25 9.05 13.0 9.0 13.55 7.75 13.1 7.65 13.2 7.55 13.2 10.0 10.8 12.45 13.2 M4.2 11.7 L1.25 10.15 1.7 9.75 4.3 9.25 4.3 9.55 1.25 10.15 5.4 11.4 4.2 11.7 M4.5 6.7 L4.65 6.55 4.85 6.7 5.1 6.8 8.95 9.95 8.8 9.9 8.65 9.8 4.6 13.15 4.45 13.05 4.4 12.95 4.4 12.65 5.15 12.3 5.2 12.25 5.7 11.85 5.75 11.8 5.4 11.4 5.95 11.7 6.35 11.2 8.15 9.6 8.3 9.5 7.8 9.05 6.9 9.15 7.5 8.85 6.55 8.05 5.1 6.9 6.4 8.5 6.25 8.95 4.5 6.7 M11.0 13.55 L12.1 12.9 11.6 12.45 11.0 13.55 M9.0 13.55 L8.4 12.45 7.95 12.9 9.0 13.55" fill="#000000" fill-rule="evenodd" stroke="none"/>
    <path d="M3.7 2.95 L10.0 5.3 16.25 2.95 12.65 5.6 12.7 5.65 12.8 6.05 12.15 6.15 11.9 6.55 11.75 6.7 11.35 5.45 10.0 5.3 11.5 7.05 10.3 7.75 10.0 7.55 9.7 7.7 8.5 6.95 10.0 5.3 8.6 5.45 8.25 6.6 8.0 6.2 7.15 6.05 7.25 5.65 7.3 5.6 3.7 2.95 M15.5 6.7 L15.7 9.25 15.7 9.55 14.55 11.4 15.5 6.7 M15.8 11.7 L15.6 14.6 14.3 13.2 15.35 13.2 15.5 13.15 15.6 13.05 15.65 12.95 15.65 12.6 14.85 12.25 14.3 11.75 14.55 11.4 15.8 11.7 M5.7 13.2 L4.4 14.6 4.2 11.7 5.4 11.4 8.15 9.6 6.35 11.2 5.4 11.4 5.75 11.8 5.7 11.85 5.2 12.25 5.15 12.3 4.4 12.65 4.4 12.95 4.45 13.05 4.6 13.15 4.75 13.2 4.95 13.2 5.7 13.2 M4.3 9.25 L4.5 6.7 5.4 11.4 4.3 9.55 4.3 9.25 M13.65 11.2 L12.1 9.75 14.5 11.35 13.65 11.2 M13.05 9.15 L12.5 8.85 13.45 8.1 13.55 8.55 13.7 9.0 13.85 9.4 13.8 9.55 13.75 9.55 13.05 9.15 M6.9 9.15 L6.25 9.5 6.15 9.5 6.15 9.35 6.25 8.95 6.4 8.5 6.55 8.05 7.5 8.85 6.9 9.15" fill="#7f6600" fill-rule="evenodd" stroke="none"/>
    <path d="M11.55 2.45 L11.55 2.5 16.25 2.95 10.0 5.3 3.7 2.95 8.35 2.5 8.4 2.45 10.0 -1.5 11.55 2.45 M11.75 6.7 L11.5 7.05 10.0 5.3 11.35 5.45 11.75 6.7 M8.5 6.95 L8.25 6.6 8.6 5.45 10.0 5.3 8.5 6.95 M15.7 9.55 L18.75 10.15 14.55 11.4 14.1 11.7 13.65 11.2 14.5 11.35 12.1 9.75 11.75 9.5 12.25 9.05 13.05 9.15 13.75 9.55 13.8 9.55 13.85 9.4 13.7 9.0 13.8 8.85 15.5 6.7 14.55 11.4 15.7 9.55 M11.0 13.55 L11.6 12.45 12.1 12.9 11.0 13.55 M6.9 9.15 L7.8 9.05 8.3 9.5 8.15 9.6 5.4 11.4 4.5 6.7 6.25 8.95 6.15 9.35 6.15 9.5 6.25 9.5 6.9 9.15 M6.35 11.2 L5.95 11.7 5.4 11.4 6.35 11.2 M9.0 13.55 L7.95 12.9 8.4 12.45 9.0 13.55 M4.3 9.55 L5.4 11.4 1.25 10.15 4.3 9.55" fill="#ffcc00" fill-rule="evenodd" stroke="none"/>
  </g>
</svg>
