<?xml version="1.0" encoding="UTF-8" standalone="no"?>
<svg xmlns:ffdec="https://www.free-decompiler.com/flash" xmlns:xlink="http://www.w3.org/1999/xlink" ffdec:objectType="shape" height="16.65px" width="17.2px" xmlns="http://www.w3.org/2000/svg">
  <g transform="matrix(1.0, 0.0, 0.0, 1.0, -1.85, 1.5)">
    <path d="M7.85 6.35 L8.15 6.9 8.6 7.1 9.7 8.3 9.5 8.75 9.5 8.9 11.75 6.8 11.75 6.6 15.05 6.75 14.75 6.85 14.65 6.9 12.35 8.65 12.3 8.65 10.55 9.95 10.45 9.95 14.25 7.05 14.5 7.0 11.8 6.9 9.45 9.0 9.5 8.9 7.3 6.6 7.25 6.7 4.75 6.6 4.7 6.55 4.45 6.3 7.45 6.45 7.7 6.2 7.85 6.35 M14.25 13.6 L11.9 13.4 11.9 13.35 11.7 13.2 11.35 12.8 11.25 12.75 9.6 10.9 9.5 10.75 11.9 13.35 14.4 13.55 14.85 13.65 10.7 9.95 10.95 9.85 11.2 9.65 13.7 11.85 13.75 12.0 13.95 12.1 14.6 12.65 15.45 13.45 15.3 13.55 15.0 13.7 14.85 13.65 14.25 13.6 M4.75 6.6 L4.95 6.7 8.5 9.9 8.4 9.85 6.5 11.3 6.55 11.35 6.65 11.35 4.9 12.7 4.6 12.7 6.4 11.3 6.35 11.3 6.35 11.25 8.25 9.75 8.0 9.5 7.4 8.95 7.2 8.8 6.45 8.1 4.75 6.6 M7.1 12.9 L9.45 10.7 9.5 10.75 7.15 12.95 7.1 12.9" fill="#646464" fill-rule="evenodd" stroke="none"/>
    <path d="M16.25 3.0 L11.35 2.55 11.35 2.45 9.8 -1.5 10.1 -1.3 11.6 2.45 16.0 2.9 16.15 2.9 16.25 3.0 M6.05 2.7 L3.95 2.9 6.0 2.65 6.05 2.7 M7.2 5.55 L7.1 5.95 7.75 6.15 7.85 6.35 7.7 6.2 7.45 6.45 4.45 6.3 4.45 6.1 4.55 5.9 4.75 5.75 5.4 5.55 6.3 5.5 7.2 5.55 M8.6 7.1 L9.55 7.7 9.8 7.55 10.15 7.75 11.1 7.1 11.75 6.3 11.85 6.25 12.45 6.15 12.6 6.15 12.5 5.7 12.7 5.55 12.75 5.75 15.4 5.85 15.55 5.9 15.6 6.0 15.6 6.15 15.45 6.45 15.05 6.75 11.75 6.6 11.75 6.8 9.5 8.9 9.5 8.75 9.7 8.3 8.6 7.1 M10.55 9.95 L12.3 8.65 12.35 8.65 14.65 6.9 14.75 6.85 15.05 6.75 13.4 8.0 13.7 8.8 15.5 6.65 15.5 6.9 13.75 9.05 13.55 9.25 13.2 8.1 12.55 8.6 12.45 8.7 12.15 8.9 12.85 9.35 11.85 9.15 11.5 9.45 11.85 9.9 13.45 11.5 13.7 11.85 11.2 9.65 10.95 9.85 10.7 9.95 10.55 9.95 M15.7 9.55 L18.85 10.35 19.05 10.8 15.75 9.95 15.7 9.55 M11.9 13.35 L10.9 13.65 11.05 13.1 11.25 12.75 11.35 12.8 10.9 13.65 11.7 13.2 11.9 13.35 M9.6 10.9 L8.6 11.8 9.15 12.95 8.9 13.45 7.5 12.8 7.4 12.9 7.25 12.95 7.15 12.95 5.8 12.85 4.9 12.75 4.65 14.05 4.55 12.75 4.55 12.7 4.45 12.65 4.4 12.55 4.45 12.4 4.5 12.3 4.4 11.25 1.85 9.6 2.45 9.25 4.55 8.95 4.7 6.55 5.3 11.05 4.5 9.2 1.85 9.6 5.3 11.05 5.8 11.4 6.3 10.95 8.0 9.5 8.25 9.75 6.35 11.25 6.35 11.3 6.4 11.3 4.6 12.7 4.9 12.7 7.1 12.9 7.15 12.95 9.5 10.75 9.6 10.9 M14.25 11.75 L14.05 12.1 14.1 12.2 14.6 12.65 15.65 13.1 15.55 13.35 15.45 13.45 14.6 12.65 13.95 12.1 13.75 12.0 14.25 11.75 M4.75 6.6 L6.45 8.1 6.3 8.65 4.75 6.6 M7.2 8.8 L7.4 8.95 6.85 9.0 7.2 8.8 M5.25 11.8 L5.65 11.45 5.3 11.05 5.1 11.9 5.25 11.8 M8.9 13.45 L8.25 12.1 7.65 12.65 8.9 13.45" fill="#000000" fill-rule="evenodd" stroke="none"/>
    <path d="M9.8 -1.5 L11.35 2.45 11.35 2.55 16.25 3.0 9.4 5.25 9.8 -1.5 M8.25 2.5 L9.4 5.25 6.55 4.0 6.05 2.7 8.25 2.5 M11.1 7.1 L9.4 5.25 12.5 5.7 12.6 6.15 12.45 6.15 11.85 6.25 11.75 6.3 11.1 7.1 M13.7 11.85 L13.45 11.5 14.2 11.7 11.85 9.9 11.5 9.45 11.85 9.15 12.85 9.35 13.6 9.75 13.65 9.75 12.55 8.6 13.2 8.1 13.55 9.25 13.75 9.05 15.5 6.9 14.25 11.75 15.75 9.95 19.05 10.8 14.25 11.75 13.75 12.0 13.7 11.85 M11.7 13.2 L10.9 13.65 11.35 12.8 11.7 13.2 M4.7 6.55 L4.75 6.6 6.3 8.65 6.15 9.1 6.15 9.25 6.25 9.3 6.85 9.0 7.4 8.95 8.0 9.5 5.3 11.05 6.3 10.95 5.8 11.4 5.3 11.05 1.85 9.6 4.5 9.2 5.3 11.05 4.7 6.55 M8.9 13.45 L7.65 12.65 8.25 12.1 8.9 13.45" fill="#ffcc00" fill-rule="evenodd" stroke="none"/>
    <path d="M9.8 -1.5 L9.4 5.25 16.25 3.0 12.7 5.55 12.5 5.7 9.4 5.25 11.1 7.1 10.15 7.75 9.8 7.55 9.55 7.7 8.6 7.1 8.15 6.9 7.85 6.35 7.75 6.15 7.1 5.95 7.2 5.55 3.95 2.9 6.05 2.7 6.55 4.0 9.4 5.25 8.25 2.5 9.8 -1.5 M15.5 6.9 L15.7 9.55 15.75 9.95 14.25 11.75 15.5 6.9 M19.05 10.8 L15.85 12.2 15.6 15.15 14.25 13.6 14.85 13.65 15.0 13.7 15.3 13.55 15.45 13.45 15.55 13.35 15.65 13.1 14.6 12.65 14.1 12.2 14.05 12.1 14.25 11.75 19.05 10.8 M5.8 12.85 L4.65 14.05 4.9 12.75 5.8 12.85 M13.45 11.5 L11.85 9.9 14.2 11.7 13.45 11.5 M12.85 9.35 L12.15 8.9 12.45 8.7 12.55 8.6 13.65 9.75 13.6 9.75 12.85 9.35 M6.45 8.1 L7.2 8.8 6.85 9.0 6.25 9.3 6.15 9.25 6.15 9.1 6.3 8.65 6.45 8.1 M6.3 10.95 L5.3 11.05 8.0 9.5 6.3 10.95 M5.25 11.8 L5.1 11.9 5.3 11.05 5.65 11.45 5.25 11.8" fill="#7f6600" fill-rule="evenodd" stroke="none"/>
    <path d="M9.5 8.9 L9.45 9.0 11.8 6.9 14.5 7.0 14.25 7.05 10.45 9.95 10.55 9.95 10.7 9.95 14.85 13.65 14.4 13.55 11.9 13.35 9.5 10.75 9.45 10.7 7.1 12.9 4.9 12.7 6.65 11.35 6.55 11.35 6.5 11.3 8.4 9.85 8.5 9.9 4.95 6.7 4.75 6.6 7.25 6.7 7.3 6.6 9.5 8.9" fill="#c8c8c8" fill-rule="evenodd" stroke="none"/>
  </g>
</svg>
