<?xml version="1.0" encoding="UTF-8" standalone="no"?>
<svg xmlns:ffdec="https://www.free-decompiler.com/flash" xmlns:xlink="http://www.w3.org/1999/xlink" ffdec:objectType="shape" height="17.25px" width="16.35px" xmlns="http://www.w3.org/2000/svg">
  <g transform="matrix(1.0, 0.0, 0.0, 1.0, -2.7, 1.5)">
    <path d="M10.05 10.0 L13.95 7.1 14.3 6.95 14.35 6.95 14.05 6.9 11.15 6.65 11.05 6.95 8.9 8.95 9.0 8.75 9.25 8.4 9.95 7.8 9.8 7.65 10.0 7.75 10.6 7.15 10.8 6.9 11.4 6.3 12.3 6.25 12.2 5.75 15.95 3.1 11.1 2.55 9.6 -1.5 10.25 -1.3 11.7 2.5 16.3 3.0 12.7 5.5 12.8 5.85 15.45 6.0 15.55 6.0 15.65 6.1 15.45 6.35 15.2 6.5 15.2 6.55 13.4 7.9 13.7 9.0 13.35 9.45 13.4 9.85 12.9 8.2 12.15 8.75 11.85 9.0 12.55 9.5 11.5 9.25 11.2 9.45 11.15 9.5 11.05 9.55 10.75 9.75 10.25 9.95 10.05 10.0 M15.25 7.15 L15.5 6.85 15.75 9.9 19.05 10.95 19.0 11.45 15.75 10.4 15.5 10.3 15.25 7.15 M15.8 12.6 L15.6 15.15 15.35 15.75 14.05 14.1 14.35 14.15 14.6 14.1 15.35 15.75 15.65 12.7 15.8 12.6 M13.95 14.05 L11.4 13.6 11.25 13.55 11.0 13.25 9.2 11.05 8.7 11.5 8.25 11.95 7.6 12.4 8.85 13.35 7.45 12.5 7.15 12.65 6.95 12.7 6.9 12.7 9.0 10.75 8.95 10.65 11.25 13.5 13.7 13.95 13.95 14.05 M6.85 12.7 L6.8 12.7 6.15 12.55 5.05 13.55 4.95 12.3 4.6 12.25 4.55 12.2 4.6 12.1 4.9 11.75 4.85 10.85 2.7 9.15 3.35 8.85 4.95 8.65 5.05 6.7 4.7 6.35 4.9 6.5 8.05 9.75 7.95 9.75 7.9 9.7 6.2 11.05 6.3 11.05 4.75 12.2 6.8 12.6 6.85 12.7 M4.55 6.2 L4.55 6.05 4.6 5.95 4.75 5.8 5.45 5.5 6.25 5.4 7.25 5.45 4.35 2.8 8.85 5.25 7.25 5.45 7.15 5.85 7.6 6.05 7.0 6.4 4.55 6.2 M5.95 7.65 L5.1 6.8 5.35 10.7 5.85 11.05 6.35 10.65 7.75 9.55 7.7 9.5 7.05 8.8 6.95 8.8 7.0 8.75 6.7 8.45 6.3 9.05 6.3 8.9 6.45 8.45 6.5 8.2 5.95 7.65 M5.35 10.7 L4.9 8.9 2.7 9.15 5.35 10.7 5.25 11.55 5.75 11.1 5.35 10.7 M5.15 12.35 L5.05 13.55 6.0 12.5 5.15 12.35 M11.85 10.4 L11.55 10.0 12.0 10.45 11.85 10.4 M13.6 12.45 L13.7 12.05 14.15 13.05 13.6 12.45" fill="#000000" fill-rule="evenodd" stroke="none"/>
    <path d="M11.2 9.45 L11.5 9.25 12.55 9.5 13.25 9.95 13.7 12.05 15.25 7.15 15.5 10.3 15.75 10.4 19.0 11.45 13.7 12.05 14.7 12.4 14.65 13.25 14.15 13.05 13.7 12.05 12.0 10.45 11.55 10.0 11.2 9.45 M12.15 8.75 L12.9 8.2 13.4 9.85 13.35 10.0 12.15 8.75 M9.6 -1.5 L11.1 2.55 15.95 3.1 8.85 5.25 9.6 -1.5 M12.2 5.75 L12.3 6.25 11.4 6.3 10.8 6.9 10.6 7.15 8.85 5.25 12.2 5.75 M5.35 10.7 L5.1 6.8 5.95 7.65 6.45 8.45 6.3 8.9 6.3 9.05 6.4 9.05 6.95 8.8 7.05 8.8 7.7 9.5 5.35 10.7 6.35 10.65 5.85 11.05 5.35 10.7 M8.85 13.35 L7.6 12.4 8.25 11.95 8.85 13.35" fill="#ffcc00" fill-rule="evenodd" stroke="none"/>
    <path d="M12.55 9.5 L11.85 9.0 12.15 8.75 13.35 10.0 13.4 9.85 13.35 9.45 13.7 9.0 15.25 7.15 13.7 12.05 13.25 9.95 12.55 9.5 M15.95 3.1 L12.2 5.75 8.85 5.25 15.95 3.1 M10.6 7.15 L10.0 7.75 9.8 7.65 9.65 7.5 9.4 7.65 7.85 6.8 7.6 6.05 7.15 5.85 7.25 5.45 8.85 5.25 4.35 2.8 4.85 2.8 8.2 2.5 8.3 2.1 9.6 -1.5 8.85 5.25 10.6 7.15 M19.0 11.45 L15.9 12.6 15.8 12.6 15.65 12.7 15.35 15.75 14.6 14.1 14.9 14.0 15.4 13.65 14.65 13.25 14.7 12.4 13.7 12.05 19.0 11.45 M11.4 13.6 L10.7 13.75 11.0 13.25 11.25 13.55 11.4 13.6 M8.7 11.5 L9.3 12.85 8.85 13.35 8.25 11.95 8.7 11.5 M5.35 10.7 L7.7 9.5 7.75 9.55 6.35 10.65 5.35 10.7 5.75 11.1 5.25 11.55 5.35 10.7 2.7 9.15 4.9 8.9 5.35 10.7 M6.95 8.8 L6.4 9.05 6.3 9.05 6.7 8.45 7.0 8.75 6.95 8.8 M6.45 8.45 L5.95 7.65 6.5 8.2 6.45 8.45 M5.15 12.35 L6.0 12.5 5.05 13.55 5.15 12.35 M11.85 10.4 L12.0 10.45 13.7 12.05 13.6 12.45 13.6 12.4 13.3 12.3 13.05 11.8 11.85 10.4" fill="#7f6600" fill-rule="evenodd" stroke="none"/>
    <path d="M11.05 6.95 L11.15 6.65 14.05 6.9 14.35 6.95 14.3 6.95 13.95 7.1 10.05 10.0 9.8 10.0 12.95 7.7 12.65 7.9 13.7 7.15 13.65 7.15 11.05 6.95 11.05 7.05 8.9 9.1 8.9 8.95 11.05 6.95 M10.25 9.95 L10.75 9.75 11.05 9.55 11.15 9.5 11.2 9.45 11.55 10.0 11.85 10.4 13.05 11.8 13.3 12.3 13.6 12.4 13.6 12.45 14.15 13.05 14.65 13.25 15.4 13.65 14.9 14.0 14.6 14.1 14.35 14.15 10.25 9.95 M9.8 7.65 L9.95 7.8 9.25 8.4 9.0 8.75 7.0 6.4 6.9 6.55 4.7 6.35 4.55 6.2 7.0 6.4 7.6 6.05 7.85 6.8 9.4 7.65 9.65 7.5 9.8 7.65 M6.9 12.7 L6.85 12.7 6.8 12.6 4.75 12.2 6.3 11.05 6.2 11.05 7.9 9.7 7.95 9.75 8.05 9.75 6.35 11.05 6.5 11.05 6.8 12.6 8.95 10.65 9.0 10.75 6.9 12.7" fill="#646464" fill-rule="evenodd" stroke="none"/>
    <path d="M11.05 6.95 L13.65 7.15 13.7 7.15 12.65 7.9 12.95 7.7 9.8 10.0 10.05 10.0 10.25 9.95 14.35 14.15 14.05 14.1 13.95 14.05 13.7 13.95 11.25 13.5 8.95 10.65 6.8 12.6 6.5 11.05 6.35 11.05 8.05 9.75 4.9 6.5 4.7 6.35 6.9 6.55 7.0 6.4 9.0 8.75 8.9 8.95 8.9 9.1 11.05 7.05 11.05 6.95 M13.65 7.15 L12.95 7.7 13.65 7.15" fill="#c8c8c8" fill-rule="evenodd" stroke="none"/>
  </g>
</svg>
