<?xml version="1.0" encoding="UTF-8" standalone="no"?>
<svg xmlns:ffdec="https://www.free-decompiler.com/flash" xmlns:xlink="http://www.w3.org/1999/xlink" ffdec:objectType="shape" height="17.85px" width="15.25px" xmlns="http://www.w3.org/2000/svg">
  <g transform="matrix(1.0, 0.0, 0.0, 1.0, -3.65, 1.5)">
    <path d="M10.45 6.7 L13.45 7.1 13.2 7.2 11.3 8.6 11.1 8.65 9.5 9.95 9.25 9.95 11.75 8.05 12.7 7.3 10.3 6.95 10.3 7.05 8.4 9.0 8.4 9.1 9.75 8.55 9.1 9.95 9.25 9.95 9.35 10.1 12.75 14.3 12.55 14.15 11.5 13.85 12.75 14.3 10.5 13.6 9.05 11.4 8.4 10.5 8.5 10.7 6.75 12.4 6.65 12.35 4.95 11.8 7.6 9.6 7.55 9.5 6.75 8.5 6.65 8.4 5.6 7.1 5.55 7.05 4.85 6.1 4.8 6.0 6.85 6.3 6.8 6.3 6.7 6.45 6.65 6.5 8.4 9.0 8.45 8.9 10.3 6.95 10.3 6.9 10.4 6.8 10.45 6.7 M9.85 9.9 L10.9 9.55 11.0 9.7 11.2 10.15 12.45 12.0 12.6 12.55 12.95 12.7 13.4 13.35 13.5 13.45 13.8 13.55 14.9 14.15 14.35 14.4 14.0 14.5 13.75 14.5 11.75 12.1 11.65 12.15 9.85 9.9 M9.25 7.6 L9.55 7.5 9.65 7.6 8.7 8.55 7.0 6.2 7.55 5.95 7.6 5.95 7.6 6.4 7.65 6.65 7.65 6.7 8.2 7.0 8.45 7.1 9.25 7.6" fill="#646464" fill-rule="evenodd" stroke="none"/>
    <path d="M10.8 2.55 L11.75 2.5 16.15 3.05 12.65 5.6 11.8 5.85 13.5 4.55 15.4 3.15 12.95 2.85 10.8 2.55 M9.45 -1.5 L8.4 5.2 8.35 5.25 7.65 6.65 7.6 6.4 7.6 5.95 7.55 5.95 7.0 6.2 6.85 6.3 4.8 6.0 4.8 5.95 5.05 5.7 5.85 5.4 6.7 5.3 7.35 5.3 4.95 2.75 8.4 5.2 8.2 2.5 9.45 -1.5 M11.9 6.3 L12.75 6.0 12.75 5.9 15.6 6.2 15.6 6.25 13.3 8.0 13.2 8.0 12.45 8.35 11.65 8.85 12.9 10.2 12.9 10.25 12.8 10.15 12.1 9.6 11.2 9.35 10.9 9.55 9.85 9.9 9.5 9.95 11.1 8.65 11.3 8.6 13.2 7.2 13.45 7.1 10.45 6.7 10.8 6.45 11.0 6.35 11.9 6.3 M10.3 6.9 L10.3 6.95 8.45 8.9 8.45 8.8 8.7 8.55 9.65 7.6 9.55 7.5 9.25 7.6 9.5 7.5 8.45 5.3 10.05 7.15 10.3 6.9 M12.75 14.3 L12.85 14.35 10.9 13.75 10.5 13.8 10.7 13.7 10.55 13.65 10.5 13.6 12.75 14.3 M13.65 14.5 L13.75 14.5 14.0 14.5 14.9 16.35 15.15 13.15 15.65 13.0 15.6 13.15 15.6 13.2 15.4 15.75 14.9 16.35 13.85 14.85 13.75 14.65 13.65 14.5 M14.75 7.4 L15.3 7.1 15.5 10.25 18.9 11.65 18.5 12.2 15.0 10.7 14.75 7.4 M9.05 11.4 L9.0 11.45 8.95 11.4 8.3 11.8 7.8 12.15 7.65 12.2 8.45 12.95 7.55 12.25 7.25 12.35 6.75 12.4 6.6 12.35 6.3 12.7 5.6 13.1 5.5 12.0 4.85 11.8 5.45 11.25 5.4 10.5 3.65 8.75 4.4 8.5 5.5 8.4 5.55 7.05 5.6 7.1 5.6 10.35 6.05 10.75 6.45 10.4 7.55 9.5 7.6 9.6 4.95 11.8 6.65 12.35 6.75 12.4 8.5 10.7 8.4 10.5 9.05 11.4 M12.6 12.55 L12.95 12.35 13.4 13.35 12.95 12.7 12.6 12.55 M11.2 10.15 L12.9 12.3 12.45 12.0 11.2 10.15 M5.6 10.35 L5.5 8.6 3.65 8.75 5.6 10.35 5.6 11.15 6.0 10.8 5.6 10.35 M6.65 8.4 L6.75 8.5 6.6 8.85 6.65 8.4 M6.3 12.25 L5.6 12.05 5.6 13.1 6.3 12.25" fill="#000000" fill-rule="evenodd" stroke="none"/>
    <path d="M10.8 2.55 L10.75 2.35 9.45 -1.5 10.4 -1.3 11.75 2.5 10.8 2.55 12.95 2.85 11.7 4.25 10.05 5.55 13.5 4.55 11.8 5.85 12.65 5.6 12.75 5.9 12.75 6.0 11.9 6.3 11.8 5.85 10.05 5.55 8.4 5.2 10.8 2.55 M12.8 10.15 L12.9 10.25 12.9 10.2 12.95 10.1 12.45 8.35 13.2 8.0 13.3 8.0 13.55 8.9 14.75 7.4 12.95 12.35 18.5 12.2 15.65 13.0 15.15 13.15 12.95 12.35 12.6 12.55 12.45 12.0 12.9 12.3 12.95 12.3 12.8 10.15 M8.35 5.25 L8.45 5.3 9.5 7.5 9.25 7.6 8.45 7.1 8.2 7.0 7.65 6.7 7.65 6.65 8.35 5.25 M9.0 11.45 L9.5 12.8 8.85 13.25 8.3 11.8 8.95 11.4 9.0 11.45 M4.95 2.75 L8.2 2.5 8.4 5.2 4.95 2.75 M10.55 13.65 L10.7 13.7 10.5 13.8 10.55 13.65 M7.55 9.5 L6.45 10.4 5.6 10.35 6.0 10.8 5.6 11.15 5.6 10.35 3.65 8.75 5.5 8.6 5.6 10.35 6.85 8.8 6.7 8.85 6.6 8.85 6.75 8.5 7.55 9.5 M6.3 12.25 L5.6 13.1 5.6 12.05 6.3 12.25" fill="#7f6600" fill-rule="evenodd" stroke="none"/>
    <path d="M9.5 9.95 L9.85 9.9 11.65 12.15 11.75 12.1 13.75 14.5 13.65 14.5 13.3 14.5 13.2 14.45 12.85 14.35 12.75 14.3 9.35 10.1 9.25 9.95 9.1 9.95 9.75 8.55 8.4 9.1 8.4 9.0 10.3 7.05 10.3 6.95 12.7 7.3 11.75 8.05 9.25 9.95 9.5 9.95 M8.7 8.55 L8.45 8.8 8.45 8.9 8.4 9.0 6.65 6.5 6.7 6.45 6.8 6.3 6.85 6.3 7.0 6.2 8.7 8.55 M11.5 13.85 L12.55 14.15 12.75 14.3 11.5 13.85 M12.6 7.35 L11.75 8.05 12.6 7.35" fill="#c8c8c8" fill-rule="evenodd" stroke="none"/>
    <path d="M9.45 -1.5 L10.75 2.35 10.8 2.55 8.4 5.2 9.45 -1.5 M12.95 2.85 L15.4 3.15 13.5 4.55 10.05 5.55 11.7 4.25 12.95 2.85 M11.8 5.85 L11.9 6.3 11.0 6.35 10.8 6.45 10.45 6.7 10.4 6.8 10.3 6.9 10.05 7.15 8.45 5.3 8.35 5.25 8.4 5.2 10.05 5.55 11.8 5.85 M10.9 9.55 L11.2 9.35 12.1 9.6 12.8 10.15 12.95 12.3 12.9 12.3 11.2 10.15 11.0 9.7 10.9 9.55 M12.9 10.2 L11.65 8.85 12.45 8.35 12.95 10.1 12.9 10.2 M14.75 7.4 L15.0 10.7 18.5 12.2 12.95 12.35 14.75 7.4 M15.15 13.15 L14.9 16.35 14.0 14.5 14.35 14.4 14.9 14.15 13.8 13.55 13.5 13.45 13.4 13.35 12.95 12.35 15.15 13.15 M8.85 13.25 L8.45 12.95 7.65 12.2 7.8 12.15 8.3 11.8 8.85 13.25 M6.45 10.4 L6.05 10.75 5.6 10.35 5.6 7.1 6.65 8.4 6.6 8.85 6.7 8.85 6.85 8.8 5.6 10.35 6.45 10.4" fill="#ffcc00" fill-rule="evenodd" stroke="none"/>
  </g>
</svg>
