<?xml version="1.0" encoding="UTF-8" standalone="no"?>
<svg xmlns:ffdec="https://www.free-decompiler.com/flash" xmlns:xlink="http://www.w3.org/1999/xlink" ffdec:objectType="shape" height="18.35px" width="13.6px" xmlns="http://www.w3.org/2000/svg">
  <g transform="matrix(1.0, 0.0, 0.0, 1.0, -4.7, 1.45)">
    <path d="M14.5 3.2 L12.8 4.65 10.95 4.25 14.5 3.2 M7.95 5.15 L11.3 5.9 11.45 6.4 10.5 6.4 10.0 6.6 9.75 6.8 9.7 6.8 9.6 6.9 9.5 7.05 7.95 5.2 7.95 5.15 9.3 -1.45 10.45 2.55 7.95 5.15 M10.55 9.6 L10.9 9.4 11.55 9.7 12.2 10.3 11.05 8.9 11.9 8.45 12.3 10.2 12.25 10.4 12.2 10.3 12.15 11.25 12.05 12.55 14.35 13.6 14.15 16.9 13.15 14.85 13.6 14.75 14.1 14.6 13.0 13.95 12.75 13.8 12.6 13.75 12.05 12.55 13.0 10.1 14.0 7.6 14.25 11.05 17.55 12.9 12.05 12.55 10.7 10.2 10.55 9.6 M6.15 7.5 L7.0 8.85 6.0 10.05 6.1 8.4 6.1 8.2 6.15 7.5 M8.65 11.55 L9.4 12.9 8.9 13.15 7.8 12.0 7.95 11.95 8.4 11.65 8.65 11.55 M6.3 10.4 L6.0 10.05 6.55 10.15 6.3 10.4" fill="#ffcc00" fill-rule="evenodd" stroke="none"/>
    <path d="M14.5 3.2 L10.95 4.25 12.8 4.65 11.3 5.9 12.5 5.65 12.6 6.0 12.6 6.15 11.9 6.25 11.45 6.4 11.3 5.9 7.95 5.15 5.7 2.7 8.3 2.45 7.95 5.15 10.45 2.55 9.3 -1.45 10.55 -1.3 11.7 2.5 10.45 2.55 14.5 3.2 M11.9 8.45 L12.65 8.25 13.05 8.1 13.1 8.3 13.2 8.65 14.0 7.6 13.0 10.1 12.15 11.25 13.1 8.8 12.35 9.85 12.3 10.2 11.9 8.45 M14.0 7.6 L14.85 7.35 15.05 10.65 18.3 12.4 17.55 12.9 14.25 11.05 14.0 7.6 M14.15 16.9 L14.35 13.6 12.05 12.55 17.55 12.9 15.5 13.35 15.2 13.4 15.15 13.45 15.1 13.95 14.9 16.35 14.15 16.9 M7.0 8.85 L7.35 9.4 6.55 10.15 6.0 10.05 6.3 10.4 6.0 10.7 6.0 10.1 4.7 8.4 6.1 8.4 6.0 10.05 7.0 8.85 M7.6 6.5 L7.9 5.6 7.95 5.2 9.25 7.3 9.1 7.5 7.65 6.6 7.6 6.55 7.6 6.5 M6.25 12.75 L6.15 11.85 6.7 12.15 6.25 12.75" fill="#7f6600" fill-rule="evenodd" stroke="none"/>
    <path d="M12.8 4.65 L14.5 3.2 10.45 2.55 11.7 2.5 15.7 3.1 12.5 5.65 11.3 5.9 12.8 4.65 M7.95 5.15 L7.95 5.2 9.5 7.05 9.6 6.9 9.55 7.1 7.95 8.85 8.15 8.55 8.55 8.1 9.1 7.5 9.25 7.3 7.95 5.2 7.9 5.6 7.6 6.5 7.65 5.9 7.3 6.0 6.85 6.15 6.7 6.25 5.2 5.95 5.2 5.8 5.65 5.5 6.25 5.35 7.6 5.2 5.7 2.7 7.95 5.15 8.3 2.45 9.3 -1.45 7.95 5.15 M9.75 6.8 L10.0 6.6 10.5 6.4 11.45 6.4 11.9 6.25 12.6 6.15 12.6 6.0 12.8 6.0 15.5 6.4 14.0 7.6 13.1 8.3 13.05 8.1 12.65 8.25 11.9 8.45 11.05 8.9 12.2 10.3 11.55 9.7 10.9 9.4 10.55 9.6 10.4 9.6 9.95 9.75 9.05 9.9 10.45 8.65 10.55 8.65 12.3 7.25 12.05 7.3 9.75 6.8 M13.0 10.1 L12.05 12.55 12.6 13.75 12.15 12.95 11.8 12.75 11.75 12.25 11.7 12.1 10.7 10.2 12.05 12.55 12.15 11.25 12.2 10.3 12.25 10.4 12.3 10.2 12.35 9.85 13.1 8.8 12.15 11.25 13.0 10.1 M13.0 14.85 L13.15 14.85 14.15 16.9 13.0 14.85 M11.6 14.5 L11.8 14.6 11.3 14.4 11.3 14.35 11.6 14.5 M7.35 9.4 L7.4 9.45 5.35 11.45 6.6 12.05 6.7 12.15 6.7 12.1 6.85 12.2 8.15 10.65 8.65 11.55 8.4 11.65 7.95 11.95 7.8 12.0 7.5 12.1 7.25 12.1 7.0 12.4 6.25 12.75 6.7 12.15 6.15 11.85 5.3 11.45 5.25 11.4 6.0 10.7 6.3 10.4 6.55 10.15 7.35 9.4 M6.1 8.2 L6.1 8.4 4.7 8.4 5.5 8.2 6.1 8.2" fill="#000000" fill-rule="evenodd" stroke="none"/>
    <path d="M9.05 9.9 L9.95 9.75 11.55 12.15 11.7 12.1 11.75 12.25 11.8 12.75 12.15 12.95 12.6 13.75 12.75 13.8 13.0 13.95 13.6 14.75 13.15 14.85 13.0 14.85 12.3 14.85 11.8 14.6 11.6 14.5 8.65 9.9 9.05 9.9 M6.7 6.25 L6.85 6.15 7.3 6.0 7.6 6.5 7.6 6.55 7.65 6.6 8.55 8.1 8.15 8.55 7.95 8.85 6.55 6.4 6.7 6.25" fill="#c8c8c8" fill-rule="evenodd" stroke="none"/>
    <path d="M9.6 6.9 L9.7 6.8 9.75 6.8 12.05 7.3 12.3 7.25 10.55 8.65 10.45 8.65 9.05 9.9 8.65 9.9 11.6 14.5 11.3 14.35 9.75 13.6 9.4 12.9 8.65 11.55 8.15 10.65 6.85 12.2 6.7 12.1 6.7 12.15 6.6 12.05 5.35 11.45 7.4 9.45 7.35 9.4 7.0 8.85 6.15 7.5 5.2 5.95 6.7 6.25 6.55 6.4 7.95 8.85 9.55 7.1 9.6 6.9 M9.95 9.75 L10.4 9.6 10.55 9.6 10.7 10.2 11.7 12.1 11.55 12.15 9.95 9.75 M15.1 13.95 L15.15 13.45 15.2 13.4 15.5 13.35 15.4 13.6 15.25 13.8 15.1 13.95 M13.6 14.75 L13.0 13.95 14.1 14.6 13.6 14.75 M7.3 6.0 L7.65 5.9 7.6 6.5 7.3 6.0 M9.1 7.5 L8.55 8.1 7.65 6.6 9.1 7.5" fill="#646464" fill-rule="evenodd" stroke="none"/>
  </g>
</svg>
