<?xml version="1.0" encoding="UTF-8" standalone="no"?>
<svg xmlns:ffdec="https://www.free-decompiler.com/flash" xmlns:xlink="http://www.w3.org/1999/xlink" ffdec:objectType="shape" height="18.8px" width="11.45px" xmlns="http://www.w3.org/2000/svg">
  <g transform="matrix(1.0, 0.0, 0.0, 1.0, -5.7, 1.45)">
    <path d="M11.6 2.5 L10.1 2.55 9.2 -1.45 10.65 -1.35 11.6 2.5 M10.1 2.55 L13.35 3.25 10.75 5.95 7.65 5.1 10.1 2.55 M14.15 7.6 L14.3 11.0 17.15 13.05 16.0 13.5 15.2 13.65 14.55 13.75 13.35 13.1 16.0 13.5 13.2 11.3 13.05 7.75 14.15 7.55 14.15 7.6 M14.35 14.45 L14.35 14.55 14.2 16.85 13.15 17.35 13.3 14.0 14.4 13.8 14.35 14.45 M6.95 12.4 L6.85 11.85 6.95 11.9 7.3 11.9 6.95 12.4 M6.5 10.15 L6.45 9.85 6.6 10.05 6.5 10.15 M7.65 5.2 L7.65 5.15 7.75 5.25 8.85 6.85 8.9 6.9 8.8 6.95 8.65 7.15 8.65 7.2 7.6 6.45 7.6 5.85 7.65 5.2 M10.9 12.4 L10.3 10.45 10.25 9.6 10.5 9.45 10.9 9.7 11.5 10.5 11.0 12.7 10.9 12.4 M7.15 9.05 L7.2 9.25 6.75 9.9 6.45 9.85 7.15 9.05" fill="#7f6600" fill-rule="evenodd" stroke="none"/>
    <path d="M10.1 2.55 L11.6 2.5 14.95 3.2 12.25 5.75 10.75 5.95 13.35 3.25 10.1 2.55 M8.85 6.85 L8.9 6.85 8.95 6.75 10.0 6.4 10.8 6.45 12.0 6.25 12.35 6.25 12.3 6.1 12.95 6.1 15.25 6.65 14.15 7.6 14.15 7.55 13.05 7.75 11.0 12.7 11.15 13.05 10.85 12.85 10.9 12.7 10.9 12.4 11.0 12.7 11.5 10.5 11.55 10.55 11.7 9.95 12.7 8.25 11.25 8.55 10.35 8.95 10.9 9.7 10.5 9.45 10.25 9.6 9.6 9.75 8.75 9.8 11.35 7.25 10.5 7.4 8.9 6.85 8.9 6.9 8.85 6.85 M10.6 14.8 L10.4 14.7 10.4 14.6 10.6 14.8 M8.05 11.85 L7.85 12.2 6.95 12.4 7.3 11.9 6.95 11.9 7.9 10.75 8.3 11.75 8.15 11.8 8.0 11.8 8.05 11.85 M6.7 11.75 L5.8 11.1 6.5 10.15 6.6 10.05 6.75 9.9 7.2 9.25 7.15 9.05 6.7 8.05 6.45 9.85 5.85 8.15 6.65 8.0 5.7 5.85 5.7 5.75 5.8 5.6 6.1 5.45 6.75 5.3 7.65 5.2 7.6 5.85 7.2 5.95 6.65 6.2 5.95 5.95 6.6 6.25 6.6 6.3 6.65 6.35 7.3 9.3 7.4 9.45 7.7 10.15 7.7 10.25 6.7 11.75 M7.65 5.1 L6.5 2.7 8.25 2.45 7.65 5.1 M8.8 6.95 L8.8 7.0 8.65 7.2 8.65 7.15 8.8 6.95 M7.65 8.75 L7.65 8.8 7.45 8.3 7.65 8.75 M13.35 13.1 L14.55 13.75 14.4 13.8 13.3 14.0 11.0 12.7 13.35 13.1" fill="#000000" fill-rule="evenodd" stroke="none"/>
    <path d="M9.2 -1.45 L10.1 2.55 7.65 5.1 10.75 5.95 12.25 5.75 12.3 6.1 12.35 6.25 12.0 6.25 10.8 6.45 10.0 6.4 8.95 6.75 8.9 6.85 8.85 6.85 7.75 5.25 7.65 5.15 7.65 5.1 8.25 2.45 9.2 -1.45 M13.15 17.35 L12.1 15.1 13.1 14.95 11.6 13.95 11.15 13.05 11.0 12.7 13.05 7.75 13.2 11.3 16.0 13.5 13.35 13.1 11.0 12.7 13.3 14.0 13.15 17.35 M8.65 12.6 L8.05 11.85 8.0 11.8 8.15 11.8 8.3 11.75 8.65 12.6 M11.5 10.5 L10.9 9.7 10.35 8.95 11.25 8.55 12.7 8.25 11.7 9.95 11.55 10.55 11.5 10.5 M6.45 9.85 L6.7 8.05 7.15 9.05 6.45 9.85 6.75 9.9 6.6 10.05 6.45 9.85" fill="#ffcc00" fill-rule="evenodd" stroke="none"/>
    <path d="M12.1 15.1 L11.1 15.05 10.8 14.95 10.6 14.8 10.4 14.6 8.2 9.8 8.75 9.8 9.6 9.75 10.25 9.6 10.3 10.45 10.9 12.4 10.9 12.7 10.85 12.85 11.15 13.05 11.6 13.95 13.1 14.95 12.1 15.1 M8.65 7.2 L7.65 8.75 7.45 8.3 6.65 6.35 6.6 6.3 6.65 6.2 7.2 5.95 7.6 5.85 7.6 6.45 8.65 7.2" fill="#c8c8c8" fill-rule="evenodd" stroke="none"/>
    <path d="M15.2 13.65 L14.9 14.1 14.35 14.45 14.4 13.8 14.55 13.75 15.2 13.65 M10.4 14.6 L9.0 13.55 8.65 12.6 8.3 11.75 7.9 10.75 6.95 11.9 6.85 11.85 6.75 11.85 6.7 11.75 7.7 10.25 7.7 10.15 7.4 9.45 7.3 9.3 6.65 6.35 7.45 8.3 7.65 8.8 7.65 8.75 8.65 7.2 8.8 7.0 8.8 6.95 8.9 6.9 8.9 6.85 10.5 7.4 11.35 7.25 8.75 9.8 8.2 9.8 10.4 14.6 M6.65 6.2 L6.6 6.3 6.6 6.25 5.95 5.95 6.65 6.2" fill="#646464" fill-rule="evenodd" stroke="none"/>
  </g>
</svg>
