<?xml version="1.0" encoding="UTF-8" standalone="no"?>
<svg xmlns:ffdec="https://www.free-decompiler.com/flash" xmlns:xlink="http://www.w3.org/1999/xlink" ffdec:objectType="shape" height="19.1px" width="9.2px" xmlns="http://www.w3.org/2000/svg">
  <g transform="matrix(1.0, 0.0, 0.0, 1.0, -6.25, 1.45)">
    <path d="M12.3 5.3 L12.3 6.15 12.5 6.15 13.15 6.25 14.85 6.85 13.3 8.45 13.6 10.95 14.15 12.2 14.05 12.1 13.65 11.1 13.7 11.7 13.3 11.3 13.2 7.75 11.85 7.9 9.95 12.75 10.7 10.6 11.6 8.4 11.5 8.4 11.0 8.5 10.5 8.5 9.75 8.9 10.05 9.5 9.9 9.6 8.8 9.7 8.85 9.6 10.65 7.2 10.3 7.25 10.0 7.25 8.95 7.45 7.75 9.65 9.2 14.6 8.3 13.4 8.0 12.2 7.8 12.2 7.9 11.85 7.9 11.7 7.65 11.7 7.4 11.7 7.15 11.65 7.65 10.8 7.5 10.2 6.95 11.55 6.4 10.8 7.05 9.45 7.05 8.55 6.25 5.75 6.35 5.6 6.6 5.45 6.95 5.3 7.45 5.25 7.45 5.05 8.4 6.7 9.05 6.45 9.5 6.4 10.25 6.45 11.95 6.3 11.9 5.8 12.3 5.3 M13.45 14.85 L13.2 17.3 13.35 14.9 13.35 14.05 12.05 14.25 9.95 12.75 10.0 13.0 9.95 12.9 9.95 12.75 14.0 14.0 13.9 14.0 13.5 14.05 13.35 14.9 13.45 14.85 M11.9 5.8 L11.05 5.9 10.15 5.95 11.0 4.75 11.05 5.9 11.95 3.3 11.9 5.8 M7.45 5.0 L7.35 2.65 8.1 2.55 7.45 5.0 9.75 2.55 11.4 2.55 10.75 -1.35 11.75 2.6 13.9 3.25 11.95 3.3 7.45 5.0 M7.5 8.5 L8.15 6.85 8.2 6.8 8.15 6.75 7.65 6.35 7.55 5.8 7.45 5.85 7.2 5.9 6.85 6.05 6.8 6.15 7.45 8.65 7.5 8.5 M8.3 9.7 L10.0 7.25 8.55 9.7 10.3 7.25 8.85 9.6 8.75 9.7 8.55 9.7 8.3 9.7 M7.1 9.35 L7.2 9.1 7.15 9.0 7.1 9.35" fill="#000000" fill-rule="evenodd" stroke="none"/>
    <path d="M12.3 5.3 L11.9 5.8 11.95 3.3 11.05 5.9 11.0 4.75 10.15 5.95 7.45 5.05 7.45 5.0 11.95 3.3 13.9 3.25 12.3 5.3 M7.65 11.7 L7.9 11.7 7.9 11.85 7.8 12.2 7.65 11.7 M9.9 9.6 L10.05 9.5 10.7 10.6 9.95 12.75 9.9 12.7 9.8 10.5 9.9 9.6 M13.3 11.3 L13.7 11.7 13.8 11.8 14.05 12.1 14.15 12.2 15.45 13.65 14.8 13.8 14.75 13.8 14.0 14.0 9.95 12.75 11.95 11.5 13.3 11.3 M13.2 17.3 L11.95 17.65 10.95 15.25 12.0 16.0 12.05 14.25 13.35 14.05 13.35 14.9 13.2 17.3 M7.1 9.35 L7.15 9.0 7.2 9.1 7.1 9.35" fill="#7f6600" fill-rule="evenodd" stroke="none"/>
    <path d="M6.95 11.55 L7.5 10.2 7.65 10.8 7.15 11.65 6.95 11.55 M9.2 14.6 L7.75 9.65 8.95 7.45 10.0 7.25 10.3 7.25 10.65 7.2 8.85 9.6 8.8 9.7 8.75 9.7 8.85 9.6 10.3 7.25 8.55 9.7 10.0 7.25 8.3 9.7 7.85 9.7 9.3 14.75 9.25 14.7 9.2 14.6 M13.7 11.7 L13.65 11.1 14.05 12.1 13.8 11.8 13.7 11.7 M14.75 13.8 L14.7 13.9 14.7 13.95 14.55 14.15 14.3 14.4 14.2 14.45 14.0 14.0 14.75 13.8 M7.5 8.5 L7.45 8.65 6.8 6.15 6.85 6.05 7.5 8.5" fill="#646464" fill-rule="evenodd" stroke="none"/>
    <path d="M8.8 9.7 L9.9 9.6 9.8 10.5 9.9 12.7 9.95 12.75 9.95 12.9 10.0 13.0 10.45 14.05 11.85 15.2 10.95 15.25 10.65 15.25 10.2 15.2 9.5 14.9 9.3 14.75 7.85 9.7 8.3 9.7 8.55 9.7 8.75 9.7 8.8 9.7 M14.2 14.45 L13.45 14.85 13.35 14.9 13.5 14.05 13.9 14.0 14.0 14.0 14.2 14.45 M6.85 6.05 L7.2 5.9 7.45 5.85 7.55 5.8 7.65 6.35 8.15 6.75 8.2 6.8 8.15 6.85 7.5 8.5 6.85 6.05" fill="#c8c8c8" fill-rule="evenodd" stroke="none"/>
    <path d="M11.9 5.8 L11.95 6.3 10.25 6.45 9.5 6.4 9.05 6.45 8.4 6.7 7.45 5.05 10.15 5.95 11.05 5.9 11.9 5.8 M10.05 9.5 L9.75 8.9 10.5 8.5 11.0 8.5 11.5 8.4 11.6 8.4 10.7 10.6 10.05 9.5 M9.95 12.75 L11.85 7.9 13.2 7.75 13.3 11.3 11.95 11.5 9.95 12.75 12.05 14.25 12.0 16.0 10.95 15.25 11.85 15.2 10.45 14.05 10.0 13.0 9.95 12.75 M8.1 2.55 L9.1 -1.45 10.75 -1.35 11.4 2.55 9.75 2.55 7.45 5.0 8.1 2.55" fill="#ffcc00" fill-rule="evenodd" stroke="none"/>
  </g>
</svg>
