<?xml version="1.0" encoding="UTF-8" standalone="no"?>
<svg xmlns:ffdec="https://www.free-decompiler.com/flash" xmlns:xlink="http://www.w3.org/1999/xlink" ffdec:objectType="shape" height="19.25px" width="7.25px" xmlns="http://www.w3.org/2000/svg">
  <g transform="matrix(1.0, 0.0, 0.0, 1.0, -6.9, 1.4)">
    <path d="M9.75 8.5 L10.4 7.1 10.0 7.15 9.65 7.15 9.3 7.2 8.95 7.2 8.65 7.25 8.4 7.25 8.15 7.3 7.95 7.3 7.6 9.55 7.45 9.5 8.0 14.45 7.5 11.45 7.25 11.35 7.05 10.55 7.25 8.95 6.9 5.65 7.0 5.55 7.15 5.45 7.45 5.3 7.35 4.95 7.95 6.4 7.8 6.25 7.65 5.75 7.2 5.9 7.05 6.05 7.35 8.45 7.4 7.75 7.5 6.8 7.7 6.65 8.05 6.55 8.3 6.45 8.95 6.35 9.55 6.45 9.65 6.45 11.45 6.4 11.45 5.85 12.6 3.3 12.3 6.25 13.0 6.4 14.15 7.05 12.8 9.2 12.8 9.25 12.4 9.3 12.85 11.3 13.35 14.1 12.1 11.5 12.05 7.85 10.55 7.95 10.3 8.5 9.8 8.5 9.75 8.5 M7.6 9.55 L8.15 7.3 7.75 9.55 8.4 7.25 7.95 9.6 8.65 7.25 8.15 9.6 8.95 7.2 8.4 9.6 9.3 7.2 8.65 9.6 9.65 7.15 9.15 8.8 9.1 8.85 9.15 8.95 8.95 9.6 9.2 9.05 9.4 9.6 8.95 9.6 8.65 9.6 8.4 9.6 8.15 9.6 7.95 9.6 7.75 9.55 7.6 9.55 M9.3 8.75 L10.0 7.15 9.55 8.6 9.3 8.75 M10.8 -1.35 L11.95 2.95 12.6 3.3 10.4 3.3 7.35 4.95 9.4 2.55 11.15 2.55 10.8 -1.35 M9.5 9.75 L9.7 10.3 9.7 10.4 8.85 12.7 9.25 10.45 9.5 9.75 M10.65 14.4 L8.85 12.7 11.6 14.25 13.35 14.1 12.55 14.2 12.15 15.15 12.5 15.1 12.0 17.65 12.15 14.25 10.65 14.4" fill="#000000" fill-rule="evenodd" stroke="none"/>
    <path d="M9.75 8.5 L9.8 8.5 9.9 9.85 9.7 10.3 9.5 9.75 9.4 9.6 9.2 9.05 9.15 8.95 9.1 8.85 9.15 8.8 9.3 8.75 9.55 8.6 9.75 8.5 M12.1 11.5 L13.35 14.1 11.6 14.25 8.85 12.7 10.65 14.4 10.65 16.15 12.0 17.65 10.6 17.85 9.8 15.35 9.9 15.3 10.5 15.35 9.3 14.05 8.85 12.7 9.7 10.4 10.55 9.8 10.6 11.6 12.1 11.5 M12.6 3.3 L11.45 5.85 9.65 5.95 9.65 6.45 9.55 6.45 8.95 6.35 8.3 6.45 8.05 6.55 7.95 6.4 7.35 4.95 10.4 3.3 12.6 3.3 M7.35 4.95 L9.05 -1.4 9.4 2.55 7.35 4.95" fill="#7f6600" fill-rule="evenodd" stroke="none"/>
    <path d="M13.35 14.1 L12.85 11.3 12.95 11.8 13.15 11.7 13.8 14.5 13.6 14.6 13.45 14.7 12.9 15.0 12.5 15.1 12.15 15.15 12.55 14.2 13.35 14.1 M8.05 6.55 L7.7 6.65 7.5 6.8 7.4 7.75 7.2 5.9 7.65 5.75 7.8 6.25 7.95 6.4 8.05 6.55 M8.05 14.6 L7.75 11.9 7.9 11.95 7.6 9.65 7.6 9.55 7.75 9.55 7.95 9.6 8.15 9.6 8.4 9.6 8.65 9.6 8.95 9.6 9.4 9.6 9.5 9.75 9.25 10.45 8.85 12.7 9.3 14.05 10.5 15.35 9.9 15.3 9.8 15.35 8.8 15.15 8.4 14.9 8.2 14.8 8.05 14.6" fill="#c8c8c8" fill-rule="evenodd" stroke="none"/>
    <path d="M8.0 14.45 L7.45 9.5 7.6 9.55 7.95 7.3 8.15 7.3 8.4 7.25 8.65 7.25 8.95 7.2 9.3 7.2 9.65 7.15 10.0 7.15 10.4 7.1 9.75 8.5 9.55 8.6 10.0 7.15 9.3 8.75 9.15 8.8 9.65 7.15 8.65 9.6 9.3 7.2 8.4 9.6 8.95 7.2 8.15 9.6 8.65 7.25 7.95 9.6 8.4 7.25 7.75 9.55 8.15 7.3 7.6 9.55 7.6 9.65 7.9 11.95 7.75 11.9 8.05 14.6 8.0 14.55 8.0 14.45 M12.85 11.3 L12.4 9.3 12.8 9.25 12.8 9.2 14.05 14.05 14.0 14.25 13.8 14.5 13.15 11.7 12.95 11.8 12.85 11.3 M7.4 7.75 L7.35 8.45 7.05 6.05 7.2 5.9 7.4 7.75 M9.15 8.95 L9.2 9.05 8.95 9.6 9.15 8.95" fill="#646464" fill-rule="evenodd" stroke="none"/>
    <path d="M9.8 8.5 L10.3 8.5 10.55 7.95 12.05 7.85 12.1 11.5 10.6 11.6 10.55 9.8 9.7 10.4 9.7 10.3 9.9 9.85 9.8 8.5 M11.45 5.85 L11.45 6.4 9.65 6.45 9.65 5.95 11.45 5.85 M9.05 -1.4 L10.8 -1.35 11.15 2.55 9.4 2.55 9.05 -1.4 M12.0 17.65 L10.65 16.15 10.65 14.4 12.15 14.25 12.0 17.65" fill="#ffcc00" fill-rule="evenodd" stroke="none"/>
  </g>
</svg>
