<?xml version="1.0" encoding="UTF-8" standalone="no"?>
<svg xmlns:ffdec="https://www.free-decompiler.com/flash" xmlns:xlink="http://www.w3.org/1999/xlink" ffdec:objectType="shape" height="19.25px" width="6.6px" xmlns="http://www.w3.org/2000/svg">
  <g transform="matrix(1.0, 0.0, 0.0, 1.0, -6.75, 1.4)">
    <path d="M12.15 6.4 L11.6 6.3 11.4 6.3 10.9 6.45 10.9 5.9 12.55 4.9 12.35 5.7 12.3 5.8 12.25 6.0 12.15 6.4 M9.05 6.45 L9.0 6.4 8.6 6.3 7.75 6.4 7.7 6.15 7.6 5.8 7.6 5.7 7.35 4.85 9.05 -1.4 9.05 2.55 7.35 4.85 9.05 5.9 8.85 3.3 11.15 3.3 10.9 5.9 9.05 5.9 9.05 6.45 M8.7 9.55 L8.5 8.8 8.8 8.6 8.95 8.5 9.05 8.45 9.15 8.2 9.2 8.0 9.25 11.6 10.75 11.6 10.7 7.95 10.75 7.95 10.8 8.05 10.9 8.4 11.05 8.55 11.45 8.8 11.25 9.55 12.15 12.55 11.8 13.9 10.85 15.35 11.4 15.25 10.7 17.85 10.75 14.4 10.9 14.3 12.15 12.55 10.75 11.6 10.9 14.3 9.15 14.3 9.2 14.4 9.25 14.4 9.3 17.85 8.55 15.25 9.15 15.3 8.2 13.95 7.8 12.55 8.7 9.6 8.7 9.55 M12.55 4.9 L10.9 2.55 10.85 -1.4 12.55 4.9 M7.8 12.55 L9.15 14.3 9.25 11.65 7.8 12.55" fill="#7f6600" fill-rule="evenodd" stroke="none"/>
    <path d="M10.9 6.45 L10.85 6.45 10.7 6.4 9.5 6.4 9.2 6.45 9.05 6.45 9.05 5.9 10.9 5.9 10.9 6.45 M10.2 7.95 L10.45 7.95 10.6 7.95 10.7 7.95 10.75 11.6 9.25 11.6 9.2 8.0 9.25 7.95 9.4 7.95 9.5 7.95 9.75 7.95 9.85 7.95 10.1 7.95 10.2 7.95 M10.9 2.55 L9.05 2.55 9.05 -1.4 10.85 -1.4 10.9 2.55 M10.75 14.4 L10.7 17.85 9.3 17.85 9.25 14.4 10.75 14.4" fill="#ffcc00" fill-rule="evenodd" stroke="none"/>
    <path d="M10.9 6.45 L11.4 6.3 11.6 6.3 12.15 6.4 12.3 6.4 12.4 6.45 12.5 6.45 12.45 5.85 12.5 5.95 12.55 6.45 12.75 6.5 12.95 6.65 13.35 7.25 12.75 9.3 13.15 14.25 13.15 14.35 12.75 9.4 12.7 9.35 12.65 9.4 12.5 9.4 11.25 9.55 11.45 8.8 11.05 8.55 11.4 7.1 11.05 7.1 10.65 7.1 10.25 7.1 9.85 7.1 9.45 7.1 9.05 7.1 8.7 7.1 8.8 8.6 8.5 8.8 8.7 9.55 7.5 9.45 7.5 9.4 7.3 9.4 7.3 9.45 6.95 14.35 6.9 14.3 7.25 9.35 6.75 7.25 7.05 6.7 7.2 6.55 7.45 6.5 7.55 6.45 7.7 6.45 7.75 6.4 8.6 6.3 9.0 6.4 9.05 6.45 9.2 6.45 9.5 6.4 10.7 6.4 10.85 6.45 10.9 6.45 M12.3 5.8 L12.35 5.7 12.45 5.85 12.35 5.8 12.3 5.8 M12.55 4.9 L10.9 5.9 11.15 3.3 8.85 3.3 9.05 5.9 7.35 4.85 9.05 2.55 10.9 2.55 12.55 4.9 M10.2 7.95 L10.1 7.95 10.25 7.1 10.2 7.95 M9.85 7.95 L9.75 7.95 9.85 7.1 9.85 7.95 M9.5 7.95 L9.4 7.95 9.45 7.1 9.5 7.95 M10.6 7.95 L10.45 7.95 10.65 7.1 10.6 7.95 M10.8 8.05 L11.05 7.1 10.9 8.4 10.8 8.05 M10.75 11.6 L12.15 12.55 10.9 14.3 10.75 11.6 M10.9 14.3 L10.75 14.4 9.25 14.4 9.2 14.4 9.15 14.3 10.9 14.3 M7.5 5.85 L7.6 5.7 7.6 5.8 7.5 5.85 M9.15 8.2 L9.05 8.45 8.95 8.5 9.05 7.1 9.15 8.2 M7.8 12.55 L9.25 11.65 9.15 14.3 7.8 12.55" fill="#000000" fill-rule="evenodd" stroke="none"/>
    <path d="M7.7 6.45 L7.55 6.45 7.45 6.5 7.5 5.85 7.6 5.8 7.7 6.15 7.7 6.45 M6.95 14.35 L7.3 9.45 7.3 9.4 7.5 9.4 7.5 9.45 7.35 11.9 7.3 11.8 7.2 11.8 7.05 14.5 6.95 14.35 M8.8 8.6 L8.7 7.1 9.05 7.1 9.45 7.1 9.85 7.1 10.25 7.1 10.65 7.1 11.05 7.1 11.4 7.1 11.05 8.55 10.9 8.4 11.05 7.1 10.8 8.05 10.75 7.95 10.7 7.95 10.6 7.95 10.65 7.1 10.45 7.95 10.2 7.95 10.25 7.1 10.1 7.95 9.85 7.95 9.85 7.1 9.75 7.95 9.5 7.95 9.45 7.1 9.4 7.95 9.25 7.95 9.2 8.0 9.15 8.2 9.05 7.1 8.95 8.5 8.8 8.6 M12.5 9.4 L12.65 9.4 12.7 9.35 12.75 9.4 13.15 14.35 13.05 14.5 12.85 11.8 12.75 11.85 12.7 11.85 12.5 9.4 M12.45 5.85 L12.5 6.45 12.4 6.45 12.3 6.4 12.25 6.0 12.3 5.8 12.35 5.8 12.45 5.85" fill="#646464" fill-rule="evenodd" stroke="none"/>
    <path d="M7.75 6.4 L7.7 6.45 7.7 6.15 7.75 6.4 M7.5 9.45 L8.7 9.55 8.7 9.6 7.8 12.55 8.2 13.95 9.15 15.3 8.55 15.25 7.95 15.1 7.55 14.95 7.15 14.7 7.05 14.55 7.05 14.5 7.2 11.8 7.3 11.8 7.35 11.9 7.5 9.45 M11.25 9.55 L12.5 9.4 12.7 11.85 12.75 11.85 12.85 11.8 13.05 14.5 12.9 14.7 12.0 15.15 11.4 15.25 10.85 15.35 11.8 13.9 12.15 12.55 11.25 9.55 M12.3 6.4 L12.15 6.4 12.25 6.0 12.3 6.4" fill="#c8c8c8" fill-rule="evenodd" stroke="none"/>
  </g>
</svg>
