<?xml version="1.0" encoding="UTF-8" standalone="no"?>
<svg xmlns:ffdec="https://www.free-decompiler.com/flash" xmlns:xlink="http://www.w3.org/1999/xlink" ffdec:objectType="shape" height="19.25px" width="7.15px" xmlns="http://www.w3.org/2000/svg">
  <g transform="matrix(1.0, 0.0, 0.0, 1.0, -5.9, 1.4)">
    <path d="M12.75 5.9 L12.3 5.75 12.1 6.25 12.0 6.35 12.45 5.3 12.6 5.35 13.0 5.55 13.05 5.65 12.7 8.95 12.9 10.55 12.75 11.25 12.7 11.35 12.5 11.4 12.35 13.2 12.1 14.45 12.55 9.5 12.5 9.55 12.4 9.55 12.1 9.6 11.95 7.3 11.7 7.25 11.45 7.25 11.15 7.2 10.8 7.2 10.7 7.15 10.45 7.15 10.05 7.1 9.7 7.1 9.3 7.1 9.8 8.5 9.65 8.5 9.45 7.95 7.95 7.85 7.9 11.5 6.7 14.1 6.9 12.3 7.05 11.75 7.6 9.3 7.3 9.25 7.2 9.2 7.2 9.15 5.9 7.1 7.1 6.35 7.5 6.3 7.65 6.3 7.4 3.3 8.5 5.85 8.5 6.4 9.95 6.4 10.25 6.45 10.3 6.45 10.95 6.35 11.9 6.45 11.9 6.5 12.3 6.6 12.55 6.8 12.6 7.65 12.65 8.45 12.9 6.0 12.85 5.95 12.75 5.9 M10.55 2.55 L12.6 4.95 10.3 5.95 9.6 3.3 7.4 3.3 7.95 3.0 9.1 -1.35 8.75 2.55 8.8 2.5 9.3 2.55 10.55 2.55 M10.5 8.65 L10.3 8.55 10.05 7.1 10.5 8.65 M10.65 8.75 L10.45 7.15 10.9 8.85 11.1 9.6 10.8 7.2 11.35 9.6 11.15 7.2 11.65 9.6 11.45 7.25 11.9 9.6 11.7 7.25 12.1 9.6 11.9 9.6 11.65 9.6 11.35 9.6 11.1 9.6 10.75 9.6 10.55 9.6 10.7 9.3 10.75 9.6 10.7 9.2 10.9 8.85 10.65 8.75 M10.45 9.8 L10.7 10.45 11.1 12.7 10.25 10.25 10.45 9.8 M10.1 8.5 L10.0 8.5 9.7 7.1 10.1 8.5 M6.7 14.1 L8.4 14.25 11.1 12.7 9.35 14.4 7.85 14.25 7.9 14.6 7.9 16.0 7.95 17.65 7.45 15.05 7.8 15.15 7.4 14.2 6.7 14.1" fill="#000000" fill-rule="evenodd" stroke="none"/>
    <path d="M11.9 6.5 L11.9 6.45 10.95 6.35 10.3 6.45 10.3 5.95 8.9 5.9 8.5 5.85 7.4 3.3 9.6 3.3 10.3 5.95 12.6 4.95 10.55 2.55 10.85 -1.4 12.6 4.95 12.45 5.3 12.0 6.35 11.9 6.5 M6.7 14.1 L7.9 11.5 9.4 11.6 9.45 7.95 9.65 8.5 10.1 9.8 10.15 8.5 10.3 8.55 10.5 8.65 10.65 8.75 10.9 8.85 10.7 9.2 10.7 9.3 10.55 9.6 10.45 9.8 10.25 10.25 11.1 12.7 8.4 14.25 6.7 14.1 M11.1 12.7 L10.65 14.0 9.5 15.35 9.8 15.35 10.2 15.3 9.35 17.85 7.95 17.65 7.9 16.0 9.35 17.85 9.35 14.4 11.1 12.7" fill="#7f6600" fill-rule="evenodd" stroke="none"/>
    <path d="M12.0 6.35 L12.1 6.25 12.3 5.75 12.75 5.9 12.65 7.35 12.6 7.65 12.55 6.8 12.3 6.6 11.9 6.5 12.0 6.35 M7.05 11.75 L6.9 12.3 6.7 14.1 7.4 14.2 7.8 15.15 7.45 15.05 6.85 14.9 6.45 14.65 6.4 14.6 6.25 14.5 6.9 11.7 7.05 11.75 M12.1 9.6 L12.4 9.55 12.15 12.0 12.2 12.0 12.3 11.9 12.0 14.6 11.9 14.75 11.7 14.9 11.1 15.2 10.5 15.3 10.2 15.3 9.8 15.35 9.5 15.35 10.65 14.0 11.1 12.7 10.7 10.45 10.45 9.8 10.55 9.6 10.75 9.6 11.1 9.6 11.35 9.6 11.65 9.6 11.9 9.6 12.1 9.6" fill="#c8c8c8" fill-rule="evenodd" stroke="none"/>
    <path d="M12.75 5.9 L12.85 5.95 12.9 6.0 12.65 8.45 12.6 7.65 12.65 7.35 12.75 5.9 M7.2 9.15 L7.2 9.2 7.3 9.25 7.6 9.3 7.05 11.75 6.9 11.7 6.25 14.5 6.05 14.2 6.0 13.95 7.2 9.15 M9.8 8.5 L9.3 7.1 9.7 7.1 10.05 7.1 10.45 7.15 10.7 7.15 10.8 7.2 11.15 7.2 11.45 7.25 11.7 7.25 11.95 7.3 12.1 9.6 11.7 7.25 11.9 9.6 11.45 7.25 11.65 9.6 11.15 7.2 11.35 9.6 10.8 7.2 11.1 9.6 10.9 8.85 10.45 7.15 10.65 8.75 10.5 8.65 10.05 7.1 10.3 8.55 10.15 8.5 10.1 8.5 9.7 7.1 10.0 8.5 9.8 8.5 M12.4 9.55 L12.5 9.55 12.55 9.5 12.1 14.45 12.05 14.55 12.0 14.6 12.3 11.9 12.2 12.0 12.15 12.0 12.4 9.55 M10.7 9.3 L10.7 9.2 10.75 9.6 10.7 9.3" fill="#646464" fill-rule="evenodd" stroke="none"/>
    <path d="M10.3 6.45 L10.25 6.45 9.95 6.4 8.5 6.4 8.5 5.85 8.9 5.9 10.3 5.95 10.3 6.45 M7.9 11.5 L7.95 7.85 9.45 7.95 9.4 11.6 7.9 11.5 M9.65 8.5 L9.8 8.5 10.0 8.5 10.1 8.5 10.15 8.5 10.1 9.8 9.65 8.5 M10.55 2.55 L9.3 2.55 8.8 2.5 8.75 2.55 9.1 -1.35 10.85 -1.4 10.55 2.55 M7.9 16.0 L7.9 14.6 7.85 14.25 9.35 14.4 9.35 17.85 7.9 16.0" fill="#ffcc00" fill-rule="evenodd" stroke="none"/>
  </g>
</svg>
