<?xml version="1.0" encoding="UTF-8" standalone="no"?>
<svg xmlns:ffdec="https://www.free-decompiler.com/flash" xmlns:xlink="http://www.w3.org/1999/xlink" ffdec:objectType="shape" height="19.05px" width="9.15px" xmlns="http://www.w3.org/2000/svg">
  <g transform="matrix(1.0, 0.0, 0.0, 1.0, -4.55, 1.4)">
    <path d="M11.85 2.55 L12.5 2.65 12.5 5.0 11.85 2.55 M12.5 5.05 L12.45 5.2 13.3 5.4 13.6 5.6 13.7 5.75 12.8 9.1 13.55 10.8 13.05 11.55 12.5 10.2 12.4 10.65 12.8 11.65 12.65 11.65 12.65 11.7 12.25 11.7 12.15 11.7 12.05 12.1 12.1 12.2 12.05 12.15 11.75 13.4 10.9 14.6 12.25 9.6 11.2 7.5 10.35 7.3 11.7 9.7 11.5 9.7 11.25 9.7 11.0 9.7 10.2 9.6 10.0 9.6 9.95 9.5 10.2 8.9 9.45 8.5 9.15 8.45 8.85 8.45 8.35 8.4 8.15 7.9 6.75 7.75 6.65 11.3 6.25 11.75 6.3 11.35 6.0 12.0 5.9 12.15 6.3 11.15 6.7 8.45 5.2 6.85 6.8 6.25 7.6 6.15 7.65 5.25 7.15 4.65 9.0 4.75 9.8 5.95 8.05 5.8 8.0 6.3 9.65 6.4 9.65 6.45 10.45 6.35 11.35 6.55 11.55 6.65 12.5 5.05 M6.8 17.35 L6.5 14.8 6.65 14.85 6.8 17.35 M6.1 3.25 L8.2 2.65 9.15 -1.35 8.55 2.55 10.2 2.55 12.5 5.0 12.3 4.9 8.05 3.3 6.1 3.25 M13.15 6.05 L13.0 6.0 12.7 5.85 12.35 5.8 12.25 6.3 11.85 6.65 11.75 6.7 11.95 6.9 12.55 8.5 12.55 8.6 13.2 6.15 13.15 6.05 M10.2 7.3 L10.05 7.25 9.8 7.2 11.25 9.7 10.15 7.35 11.5 9.7 10.35 7.3 10.2 7.3 M10.05 12.65 L10.0 12.75 10.05 12.85 10.0 12.95 10.0 12.75 9.3 10.6 10.05 12.65 M12.35 10.9 L12.65 11.65 12.4 10.7 12.35 10.9 M9.45 7.2 L11.0 9.7 9.8 7.2 9.45 7.2 M6.05 14.0 L10.0 12.75 9.0 13.5 7.95 14.25 6.6 14.05 6.65 14.85 6.5 14.05 6.05 14.0" fill="#000000" fill-rule="evenodd" stroke="none"/>
    <path d="M13.05 11.55 L12.8 11.65 12.4 10.65 12.5 10.2 13.05 11.55 M10.9 14.6 L10.75 14.8 12.2 9.7 11.7 9.7 10.35 7.3 11.2 7.5 12.25 9.6 10.9 14.6 M5.85 14.5 L5.5 14.15 5.35 13.95 5.3 13.85 5.95 13.95 6.05 14.0 5.85 14.5 M13.15 6.05 L13.2 6.15 12.55 8.6 12.55 8.5 13.15 6.05 M10.2 7.3 L10.35 7.3 11.5 9.7 10.15 7.35 11.25 9.7 9.8 7.2 10.05 7.25 10.2 7.3 M12.35 10.9 L12.4 10.7 12.65 11.65 12.35 10.9 M9.45 7.2 L9.8 7.2 11.0 9.7 9.45 7.2 M6.0 12.0 L6.3 11.35 6.25 11.75 6.0 12.0" fill="#646464" fill-rule="evenodd" stroke="none"/>
    <path d="M12.5 5.0 L12.5 5.05 11.55 6.65 11.35 6.55 10.45 6.35 9.65 6.45 9.65 6.4 8.0 6.3 8.05 5.8 9.8 5.95 12.5 5.0 10.2 2.55 8.55 2.55 9.15 -1.35 10.8 -1.4 11.85 2.55 12.5 5.0 M10.0 12.95 L9.55 14.0 9.05 14.45 9.0 13.5 10.0 12.75 10.0 12.95 M8.4 15.0 L8.15 15.2 8.3 15.25 8.0 16.0 7.95 14.25 9.0 13.5 8.4 15.0 M6.65 11.3 L6.75 7.75 8.15 7.9 8.35 8.4 8.85 8.45 9.15 8.45 9.45 8.5 10.2 8.9 9.95 9.5 9.3 10.6 10.0 12.75 8.0 11.5 6.65 11.3" fill="#ffcc00" fill-rule="evenodd" stroke="none"/>
    <path d="M12.25 11.7 L12.1 12.2 12.05 12.1 12.15 11.7 12.25 11.7 M9.0 15.3 L8.05 17.65 6.8 17.35 6.65 14.85 6.6 14.05 7.95 14.25 8.0 16.0 8.3 15.25 9.0 15.3 M5.3 13.85 L4.55 13.65 5.9 12.15 6.0 12.0 6.25 11.75 6.65 11.3 8.0 11.5 10.0 12.75 6.05 14.0 5.95 13.95 5.3 13.85 M7.15 4.65 L6.1 3.25 8.05 3.3 12.3 4.9 12.5 5.0 9.8 5.95 9.0 4.75 7.15 4.65 M10.0 9.6 L10.15 10.55 10.05 12.65 9.3 10.6 9.95 9.5 10.0 9.6 M9.05 14.45 L8.4 15.0 9.0 13.5 9.05 14.45" fill="#7f6600" fill-rule="evenodd" stroke="none"/>
    <path d="M10.75 14.8 L10.55 14.95 10.45 15.0 10.3 15.1 9.95 15.2 9.0 15.3 8.3 15.25 8.15 15.2 8.4 15.0 9.05 14.45 9.55 14.0 10.0 12.95 10.05 12.85 10.0 12.75 10.05 12.65 10.15 10.55 10.0 9.6 10.2 9.6 11.0 9.7 11.25 9.7 11.5 9.7 11.7 9.7 12.2 9.7 10.75 14.8 M6.5 14.8 L6.2 14.7 5.85 14.5 6.05 14.0 6.5 14.05 6.65 14.85 6.5 14.8 M12.55 8.5 L11.95 6.9 11.75 6.7 11.85 6.65 12.25 6.3 12.35 5.8 12.7 5.85 13.0 6.0 13.15 6.05 12.55 8.5" fill="#c8c8c8" fill-rule="evenodd" stroke="none"/>
  </g>
</svg>
