<?xml version="1.0" encoding="UTF-8" standalone="no"?>
<svg xmlns:ffdec="https://www.free-decompiler.com/flash" xmlns:xlink="http://www.w3.org/1999/xlink" ffdec:objectType="shape" height="18.8px" width="11.4px" xmlns="http://www.w3.org/2000/svg">
  <g transform="matrix(1.0, 0.0, 0.0, 1.0, -2.9, 1.45)">
    <path d="M12.3 5.8 L12.3 5.2 12.7 5.2 13.7 5.4 14.15 5.6 14.25 5.7 14.3 5.8 13.3 8.0 14.0 8.15 13.45 9.8 13.25 8.25 12.85 9.15 12.8 9.25 13.25 9.85 13.3 9.95 13.35 10.0 14.2 11.05 13.3 11.75 12.3 10.25 12.35 8.75 13.4 6.25 13.2 6.1 12.3 5.8 M11.1 6.8 L11.15 6.85 9.6 7.4 9.05 7.3 8.75 7.25 11.05 9.8 9.7 9.6 9.45 9.4 9.05 9.65 9.6 8.9 8.7 8.45 7.55 8.3 7.25 8.2 8.25 9.9 8.45 10.55 8.5 10.5 9.0 12.65 6.95 7.75 5.8 7.55 5.8 7.6 4.75 6.65 7.0 6.1 7.65 6.1 7.6 6.25 8.0 6.25 9.15 6.4 10.0 6.4 10.9 6.65 11.1 6.8 M12.3 5.1 L11.65 2.45 13.4 2.7 12.3 5.1 M9.2 5.9 L7.7 5.75 5.05 3.2 5.1 3.2 8.35 2.5 9.85 2.55 6.65 3.25 9.2 5.9 M13.05 11.85 L13.0 11.9 12.9 11.9 12.2 10.6 13.05 11.85 M12.9 12.4 L12.05 12.15 11.85 11.85 11.9 11.8 11.75 11.75 12.1 10.75 12.9 11.9 12.6 11.9 12.9 12.4 M9.85 14.5 L9.8 14.6 9.7 14.65 9.75 14.55 9.85 14.5 M11.3 9.85 L11.05 9.8 9.05 7.3 11.3 9.85 M9.05 12.4 L9.1 12.8 9.1 12.85 9.05 12.85 8.8 13.05 8.95 12.7 9.0 12.65 9.05 12.4 M5.45 13.75 Q6.1 13.45 6.7 13.1 L8.95 12.7 6.7 14.0 6.65 14.0 5.6 13.8 5.45 13.75" fill="#000000" fill-rule="evenodd" stroke="none"/>
    <path d="M11.15 6.85 L11.2 6.9 11.35 7.15 12.35 8.7 12.35 8.75 12.3 10.25 13.3 11.75 13.2 11.85 13.05 11.85 12.2 10.6 12.9 11.9 12.1 10.75 11.75 11.75 11.55 12.25 11.05 13.55 9.85 14.5 9.75 14.55 9.7 14.65 9.75 14.5 11.85 9.8 11.3 9.85 9.05 7.3 11.05 9.8 8.75 7.25 9.05 7.3 9.6 7.4 11.15 6.85 M5.65 14.45 L5.15 14.1 4.95 13.85 4.85 13.65 5.45 13.75 5.6 13.8 5.65 14.45" fill="#646464" fill-rule="evenodd" stroke="none"/>
    <path d="M12.3 5.1 L11.1 6.8 10.9 6.65 10.0 6.4 9.15 6.4 8.0 6.25 7.6 6.25 7.65 6.1 7.7 5.75 9.2 5.9 12.3 5.1 9.85 2.55 10.75 -1.45 11.65 2.45 12.3 5.1 M6.95 7.75 L9.0 12.65 8.95 12.7 8.8 13.05 8.4 13.9 6.95 14.95 7.85 15.1 6.85 17.35 6.7 14.0 8.95 12.7 6.7 13.1 4.05 13.5 6.8 11.3 6.95 7.75 M8.5 10.5 L8.45 10.55 8.25 9.9 7.25 8.2 7.55 8.3 8.7 8.45 9.6 8.9 9.05 9.65 8.5 10.5 M12.85 9.15 L13.25 8.25 13.45 9.8 12.85 9.15 M11.85 11.85 L11.55 12.25 11.75 11.75 11.9 11.8 11.85 11.85 M13.25 9.85 L13.45 9.8 13.3 9.95 13.25 9.85" fill="#ffcc00" fill-rule="evenodd" stroke="none"/>
    <path d="M11.35 7.15 L11.4 7.1 12.35 6.4 12.3 5.8 13.2 6.1 13.4 6.25 12.35 8.75 12.35 8.7 11.35 7.15 M9.7 9.6 L11.05 9.8 11.3 9.85 11.85 9.8 9.75 14.5 9.7 14.65 9.45 14.85 9.0 15.05 7.85 15.1 6.95 14.95 8.4 13.9 8.8 13.05 9.05 12.85 9.1 12.85 9.1 12.8 9.05 12.4 9.65 10.45 9.7 9.6" fill="#c8c8c8" fill-rule="evenodd" stroke="none"/>
    <path d="M12.3 5.8 L12.35 6.4 11.4 7.1 11.35 7.15 11.2 6.9 11.15 6.85 11.1 6.8 12.3 5.1 12.3 5.2 12.3 5.8 M10.75 -1.45 L9.85 2.55 12.3 5.1 9.2 5.9 6.65 3.25 9.85 2.55 8.35 2.5 9.25 -1.3 10.75 -1.45 M5.8 7.6 L5.8 7.55 6.95 7.75 6.8 11.3 4.05 13.5 6.7 13.1 Q6.1 13.45 5.45 13.75 L4.85 13.65 4.05 13.5 2.9 13.1 5.65 11.0 5.8 7.6 M9.0 12.65 L8.5 10.5 9.05 9.65 9.45 9.4 9.7 9.6 9.65 10.45 9.05 12.4 9.0 12.65 M12.85 9.15 L13.45 9.8 13.35 10.0 13.3 9.95 13.45 9.8 13.25 9.85 12.8 9.25 12.85 9.15 M13.0 11.9 L12.9 12.4 12.6 11.9 12.9 11.9 13.0 11.9 M6.85 17.35 L5.8 16.85 5.65 14.45 5.6 13.8 6.65 14.0 6.7 14.0 6.85 17.35" fill="#7f6600" fill-rule="evenodd" stroke="none"/>
  </g>
</svg>
