<?xml version="1.0" encoding="UTF-8" standalone="no"?>
<svg xmlns:ffdec="https://www.free-decompiler.com/flash" xmlns:xlink="http://www.w3.org/1999/xlink" ffdec:objectType="shape" height="18.35px" width="13.4px" xmlns="http://www.w3.org/2000/svg">
  <g transform="matrix(1.0, 0.0, 0.0, 1.0, -1.75, 1.45)">
    <path d="M12.0 5.15 L12.0 5.2 10.5 7.0 10.35 6.8 10.15 6.7 9.85 6.5 9.5 6.35 8.55 6.35 8.65 5.9 12.0 5.15 9.5 2.55 10.65 -1.45 12.0 5.15 M5.5 3.2 L9.0 4.25 7.2 4.65 5.5 3.2 M13.75 7.65 L13.8 8.2 13.8 8.35 13.9 10.05 12.95 8.9 13.75 7.65 M12.15 11.95 L11.05 13.1 10.65 12.95 11.4 11.55 11.5 11.6 11.95 11.9 12.15 11.95 M13.65 10.35 L13.4 10.1 13.9 10.05 13.65 10.35 M7.4 13.7 L7.1 13.85 5.9 14.55 6.1 14.65 6.5 14.8 6.85 14.85 5.85 16.9 5.65 13.6 7.95 12.55 2.5 12.9 5.75 11.0 6.0 7.6 7.95 12.55 7.8 10.3 7.7 10.4 7.65 10.3 8.1 8.45 8.95 8.9 7.8 10.3 8.4 9.65 9.1 9.35 9.4 9.55 9.25 10.15 9.2 10.25 9.0 10.7 7.95 12.55 7.4 13.7" fill="#ffcc00" fill-rule="evenodd" stroke="none"/>
    <path d="M12.0 5.2 L12.0 5.15 14.2 2.7 12.3 5.25 13.1 5.25 13.5 5.3 14.4 5.55 14.65 5.7 14.8 5.85 14.8 5.9 13.3 6.25 13.2 6.15 12.7 5.95 12.4 5.9 12.3 5.85 12.35 6.5 12.05 5.55 12.0 5.2 10.7 7.25 10.9 7.45 11.3 7.95 12.0 8.75 12.05 8.85 10.45 7.05 10.5 7.0 12.0 5.2 M9.5 2.55 L5.5 3.2 7.2 4.65 8.65 5.9 7.45 5.65 4.3 3.1 8.25 2.5 9.5 2.55 M12.0 5.15 L10.65 -1.45 11.65 2.45 12.0 5.15 M8.55 6.35 L9.5 6.35 9.85 6.5 10.15 6.7 10.35 6.8 8.05 7.3 10.95 9.9 10.1 9.75 9.4 9.55 9.1 9.35 8.4 9.65 7.8 10.3 8.95 8.9 8.1 8.45 7.65 8.35 6.9 8.1 6.85 8.25 6.0 7.6 6.8 8.65 7.6 9.8 7.65 10.3 7.7 10.4 7.8 10.3 7.95 12.55 9.0 10.7 8.25 12.15 8.2 12.7 8.0 12.85 7.85 12.9 7.4 13.7 7.95 12.55 6.0 7.6 4.5 6.45 6.7 6.05 7.4 6.0 7.35 6.15 8.55 6.35 M13.8 8.2 L14.35 8.2 15.15 8.35 13.8 8.35 13.8 8.2 M13.9 10.6 L14.7 11.4 14.65 11.45 12.65 9.45 12.65 9.4 13.4 10.1 13.65 10.35 13.9 10.6 M13.65 12.7 L12.85 12.35 12.6 12.1 12.5 12.05 12.15 11.95 11.95 11.9 11.5 11.6 11.4 11.55 11.85 10.65 13.15 12.15 13.25 12.15 13.65 12.7 M6.95 14.85 L5.85 16.9 6.85 14.85 6.95 14.85 M7.75 7.25 L9.4 8.65 9.5 8.65 8.05 7.3 7.75 7.25" fill="#000000" fill-rule="evenodd" stroke="none"/>
    <path d="M12.0 5.2 L12.05 5.55 12.35 6.5 12.3 6.55 10.9 7.45 10.7 7.25 12.0 5.2 M14.2 2.7 L12.0 5.15 8.65 5.9 7.2 4.65 9.0 4.25 5.5 3.2 9.5 2.55 12.0 5.15 11.65 2.45 14.2 2.7 M10.65 -1.45 L9.5 2.55 8.25 2.5 9.4 -1.3 10.65 -1.45 M7.45 5.65 L8.65 5.9 8.55 6.35 7.35 6.15 7.4 6.0 7.45 5.65 M15.15 8.35 L13.9 10.1 13.9 10.6 13.65 10.35 13.9 10.05 13.4 10.1 12.65 9.4 12.95 8.9 13.9 10.05 13.8 8.35 15.15 8.35 M13.75 11.9 L13.65 12.7 13.25 12.15 13.75 11.9 M5.85 16.9 L5.1 16.35 4.9 13.9 4.85 13.45 4.5 13.35 2.5 12.9 1.75 12.4 4.95 10.65 5.1 7.35 6.0 7.6 5.75 11.0 2.5 12.9 7.95 12.55 5.65 13.6 5.85 16.9 M6.85 8.25 L6.9 8.1 7.65 8.35 8.1 8.45 7.65 10.3 7.6 9.8 6.8 8.65 6.85 8.25" fill="#7f6600" fill-rule="evenodd" stroke="none"/>
    <path d="M12.35 6.5 L12.3 5.85 12.4 5.9 12.7 5.95 12.35 6.5 M13.3 6.25 L14.8 5.9 14.8 5.95 13.75 7.65 12.95 8.9 12.65 9.4 12.65 9.45 14.65 11.45 13.75 11.9 13.25 12.15 13.15 12.15 11.85 10.65 11.4 11.55 10.65 12.95 10.25 13.65 8.45 14.55 11.35 9.9 10.95 9.9 8.05 7.3 10.35 6.8 10.5 7.0 10.45 7.05 12.05 8.85 12.05 8.8 13.45 6.4 13.3 6.25 M10.9 7.45 L12.3 6.55 11.3 7.95 10.9 7.45 M4.9 13.9 L4.75 13.75 4.55 13.45 4.5 13.35 4.85 13.45 4.9 13.9 M10.1 9.75 L8.55 12.2 8.25 12.15 9.0 10.7 9.2 10.25 9.25 10.15 9.4 9.55 10.1 9.75 M7.1 13.85 L6.5 14.8 6.1 14.65 5.9 14.55 7.1 13.85 M7.75 7.25 L8.05 7.3 9.5 8.65 9.4 8.65 7.75 7.25" fill="#646464" fill-rule="evenodd" stroke="none"/>
    <path d="M12.7 5.95 L13.2 6.15 13.3 6.25 13.45 6.4 12.05 8.8 12.05 8.85 12.0 8.75 11.3 7.95 12.3 6.55 12.35 6.5 12.7 5.95 M8.45 14.55 L8.05 14.75 7.7 14.85 6.95 14.85 6.85 14.85 6.5 14.8 7.1 13.85 7.4 13.7 7.85 12.9 8.0 12.85 8.2 12.7 8.25 12.15 8.55 12.2 10.1 9.75 10.95 9.9 11.35 9.9 8.45 14.55" fill="#c8c8c8" fill-rule="evenodd" stroke="none"/>
  </g>
</svg>
