<?xml version="1.0" encoding="UTF-8" standalone="no"?>
<svg xmlns:ffdec="https://www.free-decompiler.com/flash" xmlns:xlink="http://www.w3.org/1999/xlink" ffdec:objectType="shape" height="17.8px" width="15.15px" xmlns="http://www.w3.org/2000/svg">
  <g transform="matrix(1.0, 0.0, 0.0, 1.0, -1.1, 1.45)">
    <path d="M10.45 7.5 L10.35 7.55 11.35 8.55 11.5 8.7 11.65 8.95 9.75 6.95 9.6 6.7 9.95 7.1 11.6 5.2 10.45 7.5 M13.0 6.2 L12.4 5.95 12.3 6.6 12.3 6.7 11.6 5.2 10.5 -1.45 11.75 2.5 11.6 5.2 14.95 2.75 12.55 5.3 13.65 5.35 14.3 5.45 14.7 5.6 14.85 5.7 15.05 5.8 15.15 5.95 15.15 6.1 13.15 6.3 13.0 6.2 M9.2 2.55 L7.0 2.85 4.6 3.15 6.5 4.55 8.2 5.8 7.3 5.6 3.85 3.05 8.25 2.5 9.2 2.55 M14.3 7.2 L14.35 7.15 14.4 8.4 15.45 8.45 16.25 8.7 14.5 10.45 14.45 11.15 15.1 11.75 15.1 11.8 14.4 12.0 14.3 13.05 13.6 12.65 13.35 12.35 13.4 12.3 15.05 11.75 12.4 9.6 12.5 9.5 13.5 10.35 13.9 10.7 14.35 10.35 13.95 10.75 14.35 11.05 14.35 10.35 16.25 8.7 14.4 8.6 14.35 10.35 14.3 7.2 M14.3 13.05 L14.3 12.05 13.65 12.25 14.3 13.05 M13.2 8.55 L13.25 8.5 13.35 8.8 13.2 8.55 M10.2 9.9 L10.1 9.9 9.15 9.55 9.05 9.5 8.75 9.3 7.9 9.6 7.2 10.15 7.1 10.2 8.35 8.85 7.55 8.3 7.05 8.15 6.7 8.0 4.35 6.25 7.2 5.9 7.2 6.0 7.7 6.15 8.05 6.3 9.05 6.35 9.6 6.7 6.65 7.1 7.1 7.35 10.2 9.8 8.9 8.65 10.2 9.75 8.95 8.65 10.55 9.95 10.4 9.95 10.2 9.9 M8.75 10.15 L7.55 11.95 7.05 12.3 8.75 10.15 M7.4 12.55 L7.05 12.7 6.6 13.3 7.05 12.35 7.4 12.55 M6.0 14.5 L6.1 14.55 6.2 14.55 6.3 14.55 5.1 16.35 6.0 14.5 M7.35 14.3 L9.6 13.6 9.55 13.65 9.4 13.7 9.35 13.7 9.45 13.75 9.25 13.75 7.1 14.4 7.3 14.3 7.35 14.3 M11.0 11.4 L11.5 10.7 13.25 12.4 12.95 12.4 12.35 12.2 11.35 13.0 12.3 12.15 12.15 12.1 11.65 11.75 11.0 11.4 M1.5 12.2 L1.1 11.7 4.45 10.25 4.65 7.1 5.25 7.4 5.0 10.7 1.5 12.2 M4.4 13.0 L4.85 13.15 5.1 16.35 4.6 15.75 4.4 13.0" fill="#000000" fill-rule="evenodd" stroke="none"/>
    <path d="M11.35 8.55 L10.35 7.55 10.45 7.5 10.65 7.55 10.7 7.6 12.3 6.7 12.3 6.6 12.4 5.95 13.0 6.2 11.35 8.55 M9.6 6.7 L9.75 6.95 11.65 8.95 13.4 6.5 13.15 6.3 15.15 6.1 15.1 6.2 14.35 7.15 14.3 7.2 13.25 8.5 13.2 8.55 13.05 8.75 12.5 9.5 12.4 9.6 15.05 11.75 13.4 12.3 13.35 12.35 13.25 12.4 11.5 10.7 11.0 11.4 10.9 11.55 10.9 11.6 9.6 13.6 7.35 14.3 10.8 9.95 10.55 9.95 8.95 8.65 10.2 9.75 8.9 8.65 10.2 9.8 7.1 7.35 6.65 7.1 9.6 6.7 M9.05 9.5 L9.15 9.55 10.1 9.9 10.2 9.9 8.3 12.15 10.1 9.9 6.2 14.55 6.1 14.55 6.0 14.5 5.65 14.4 5.3 14.25 5.15 14.1 6.55 13.4 6.6 13.3 7.05 12.7 7.4 12.55 7.55 11.95 8.75 10.15 9.05 9.5 M9.75 6.95 L7.45 7.3 7.35 7.3 9.15 8.7 8.3 8.0 10.35 9.6 10.4 9.5 10.95 9.95 10.3 8.55 11.6 9.05 9.75 7.05 9.75 6.95" fill="#646464" fill-rule="evenodd" stroke="none"/>
    <path d="M10.45 7.5 L11.6 5.2 12.3 6.7 10.7 7.6 10.65 7.55 10.45 7.5 M9.2 2.55 L11.6 5.2 9.9 5.5 8.35 4.25 7.0 2.85 9.2 2.55 8.25 2.5 9.5 -1.3 10.5 -1.45 9.25 2.35 9.2 2.55 M7.3 5.6 L8.2 5.8 6.5 4.55 9.9 5.5 8.2 5.8 8.05 6.3 7.7 6.15 7.2 6.0 7.2 5.9 7.3 5.6 M14.95 2.75 L11.6 5.2 11.75 2.5 14.95 2.75 M16.25 8.7 L14.35 10.35 14.35 11.05 13.95 10.75 14.35 10.35 14.4 8.6 16.25 8.7 M13.5 10.35 L12.5 9.5 13.05 8.75 13.2 8.55 13.35 8.8 13.25 8.8 13.05 8.75 14.35 10.35 13.5 10.35 M14.3 13.05 L13.65 12.25 14.3 12.05 14.3 13.05 M6.7 8.0 L7.05 8.15 7.55 8.3 7.05 10.1 7.1 10.2 7.2 10.15 7.05 12.3 7.55 11.95 7.4 12.55 7.05 12.35 5.25 7.4 6.45 8.85 6.7 8.0 M10.9 11.6 L10.9 11.55 11.0 11.4 11.65 11.75 11.1 13.2 10.45 12.8 10.9 11.6 M9.45 13.75 L9.35 13.7 9.4 13.7 9.45 13.75 M4.85 13.15 L4.4 13.0 1.5 12.2 7.0 12.35 4.85 13.15" fill="#7f6600" fill-rule="evenodd" stroke="none"/>
    <path d="M11.6 5.2 L9.95 7.1 9.6 6.7 9.05 6.35 8.05 6.3 8.2 5.8 9.9 5.5 11.6 5.2 9.2 2.55 9.25 2.35 10.5 -1.45 11.6 5.2 M7.0 2.85 L8.35 4.25 9.9 5.5 6.5 4.55 4.6 3.15 7.0 2.85 M14.35 10.35 L13.9 10.7 13.5 10.35 14.35 10.35 13.05 8.75 13.25 8.8 13.35 8.8 13.25 8.5 14.3 7.2 14.35 10.35 M7.55 8.3 L8.35 8.85 7.1 10.2 7.05 10.1 7.55 8.3 M7.2 10.15 L7.9 9.6 8.75 9.3 9.05 9.5 8.75 10.15 7.05 12.3 7.2 10.15 M6.6 13.3 L6.55 13.4 5.15 14.1 5.3 14.25 5.65 14.4 6.0 14.5 5.1 16.35 4.85 13.15 7.0 12.35 1.5 12.2 5.0 10.7 5.25 7.4 7.05 12.35 6.6 13.3 M11.65 11.75 L12.15 12.1 12.3 12.15 11.35 13.0 11.1 13.2 11.65 11.75" fill="#ffcc00" fill-rule="evenodd" stroke="none"/>
    <path d="M11.65 8.95 L11.5 8.7 11.35 8.55 13.0 6.2 13.15 6.3 13.4 6.5 11.65 8.95 M10.2 9.9 L10.4 9.95 10.55 9.95 10.8 9.95 7.35 14.3 7.3 14.3 7.1 14.4 6.8 14.55 6.3 14.55 6.2 14.55 10.1 9.9 8.3 12.15 10.2 9.9 M9.75 6.95 L9.75 7.05 11.6 9.05 10.3 8.55 10.95 9.95 10.4 9.5 10.35 9.6 8.3 8.0 9.15 8.7 7.35 7.3 7.45 7.3 9.75 6.95" fill="#c8c8c8" fill-rule="evenodd" stroke="none"/>
  </g>
</svg>
