<?xml version="1.0" encoding="UTF-8" standalone="no"?>
<svg xmlns:ffdec="https://www.free-decompiler.com/flash" xmlns:xlink="http://www.w3.org/1999/xlink" ffdec:objectType="shape" height="16.65px" width="17.1px" xmlns="http://www.w3.org/2000/svg">
  <g transform="matrix(1.0, 0.0, 0.0, 1.0, -0.95, 1.5)">
    <path d="M8.95 7.1 L9.45 7.4 9.85 7.75 10.15 7.5 10.45 7.65 11.45 7.1 10.3 8.3 10.4 8.45 10.55 8.9 8.3 6.8 8.25 6.6 5.0 6.75 5.4 6.95 9.35 9.95 8.8 9.65 6.35 11.85 6.4 11.7 6.55 11.5 8.1 9.95 8.5 9.4 8.15 9.15 7.15 9.3 7.85 8.9 7.45 8.6 6.8 8.1 6.3 9.65 6.3 9.6 6.4 9.2 4.5 6.9 4.5 6.65 6.3 8.8 6.55 7.95 5.0 6.75 4.55 6.4 4.4 6.2 4.35 6.05 4.4 6.0 4.6 5.85 7.25 5.75 7.3 5.55 7.55 5.7 7.4 6.15 7.55 6.15 8.2 6.25 8.25 6.3 8.95 7.1 M12.05 6.45 L12.2 6.1 12.75 5.95 12.85 5.9 12.75 5.55 14.35 5.5 14.65 5.55 15.0 5.65 15.4 5.85 15.5 6.0 15.55 6.15 15.5 6.3 12.6 6.45 12.3 6.15 12.05 6.45 M16.0 2.85 L13.9 2.7 13.95 2.65 16.0 2.85 M10.2 -1.5 L8.65 2.45 8.65 2.55 3.75 3.0 3.85 2.9 8.35 2.45 9.85 -1.3 10.2 -1.5 M8.7 12.7 L10.4 10.85 10.45 10.9 10.55 10.8 12.9 12.95 12.75 12.95 12.45 12.75 11.1 13.4 10.8 12.9 11.35 11.75 10.45 10.9 8.75 12.8 9.1 13.6 8.2 13.35 8.35 13.2 9.1 13.6 8.7 12.85 8.75 12.8 8.7 12.7 M12.95 12.85 L15.1 12.65 15.4 12.65 11.75 9.8 11.7 9.8 12.0 9.5 13.7 10.9 14.15 11.3 14.65 10.95 18.05 9.55 15.4 9.15 14.65 10.95 14.3 11.4 14.85 11.85 14.65 10.95 15.25 6.55 15.4 8.9 15.55 8.9 17.45 9.2 18.05 9.55 15.5 11.2 15.45 12.2 15.55 12.45 15.55 12.6 15.5 12.65 15.4 12.65 15.3 13.95 15.05 12.7 14.2 12.8 12.9 12.95 12.95 12.85 M12.65 8.9 L12.8 8.8 13.1 8.95 12.65 8.9 M13.55 8.1 L13.8 7.9 13.55 8.15 13.55 8.1 M15.0 6.8 L15.05 6.7 15.1 6.7 15.0 6.8 M0.95 10.8 L1.15 10.35 4.3 9.5 4.25 9.95 0.95 10.8 M6.25 12.0 L4.55 13.5 4.45 13.4 4.35 13.1 5.45 12.6 5.9 12.15 6.0 12.1 5.8 11.75 6.25 12.0 M11.1 13.4 L12.3 12.6 11.75 12.1 11.1 13.4 M8.75 9.6 L6.4 11.7 8.8 9.65 8.75 9.6" fill="#000000" fill-rule="evenodd" stroke="none"/>
    <path d="M11.45 7.1 L11.85 6.85 12.05 6.45 12.3 6.15 12.6 6.45 15.5 6.3 15.5 6.35 15.25 6.55 12.8 6.7 12.7 6.6 10.55 8.9 10.6 9.05 8.25 6.9 5.6 7.0 5.8 7.1 9.65 10.0 9.35 9.95 5.25 13.7 5.75 13.6 8.1 13.35 8.7 12.7 8.75 12.8 8.7 12.85 8.35 13.2 8.2 13.35 8.15 13.4 5.7 13.65 5.25 13.7 4.85 13.65 4.55 13.5 6.25 12.0 6.3 11.95 6.35 11.85 8.8 9.65 9.35 9.95 5.4 6.95 5.0 6.75 8.25 6.6 8.3 6.8 10.55 8.9 10.4 8.45 10.3 8.3 11.45 7.1 M15.1 12.65 L13.4 11.3 13.5 11.3 11.65 9.85 11.55 9.85 15.0 6.7 15.25 6.55 15.1 6.7 15.05 6.7 15.0 6.8 13.8 7.9 13.55 8.1 12.8 8.8 12.65 8.9 12.0 9.5 11.7 9.8 11.75 9.8 15.4 12.65 15.1 12.65 M10.4 10.85 L10.55 10.7 12.95 12.85 12.9 12.95 10.55 10.8 10.45 10.9 10.4 10.85 M8.75 9.6 L8.8 9.65 6.4 11.7 8.75 9.6" fill="#646464" fill-rule="evenodd" stroke="none"/>
    <path d="M13.9 2.7 L13.45 4.0 10.6 5.25 8.95 7.1 8.25 6.3 8.2 6.25 7.55 6.15 7.4 6.15 7.55 5.7 10.6 5.25 11.75 2.5 13.9 2.7 M10.6 5.25 L3.75 3.0 8.65 2.55 8.65 2.45 10.2 -1.5 10.6 5.25 M12.0 9.5 L12.65 8.9 13.1 8.95 13.7 9.25 13.8 9.25 13.8 9.1 13.7 8.65 15.0 6.8 15.1 6.7 15.25 6.55 14.65 10.95 15.4 9.15 18.05 9.55 14.65 10.95 14.15 11.3 13.7 10.9 14.65 10.95 12.0 9.5 M1.05 10.8 L0.95 10.8 4.25 9.95 5.8 11.75 4.5 6.9 6.4 9.2 6.3 9.6 6.3 9.65 6.8 8.1 7.45 8.6 6.35 9.75 6.4 9.75 7.15 9.3 8.15 9.15 8.5 9.4 8.1 9.95 5.85 11.7 6.55 11.5 6.4 11.7 6.35 11.85 6.3 11.95 6.25 12.0 5.8 11.75 1.05 10.8 M11.1 13.4 L11.75 12.1 12.3 12.6 11.1 13.4 M8.35 13.2 L8.7 12.85 9.1 13.6 8.35 13.2" fill="#ffcc00" fill-rule="evenodd" stroke="none"/>
    <path d="M8.95 7.1 L10.6 5.25 13.45 4.0 13.9 2.7 16.0 2.85 12.75 5.5 12.75 5.55 12.85 5.9 12.75 5.95 12.2 6.1 12.05 6.45 11.85 6.85 11.45 7.1 10.45 7.65 10.15 7.5 9.85 7.75 9.45 7.4 8.95 7.1 M11.75 2.5 L10.6 5.25 7.55 5.7 7.3 5.55 3.75 3.0 10.6 5.25 10.2 -1.5 11.75 2.5 M12.8 8.8 L13.55 8.1 13.55 8.15 13.8 7.9 15.0 6.8 13.7 8.65 13.8 9.1 13.8 9.25 13.7 9.25 13.1 8.95 12.8 8.8 M15.3 13.95 L14.2 12.8 15.05 12.7 15.3 13.95 M5.7 13.65 L4.4 15.15 4.15 12.2 4.1 12.15 1.05 10.8 5.8 11.75 6.0 12.1 5.9 12.15 5.45 12.6 4.35 13.1 4.45 13.4 4.55 13.5 4.85 13.65 5.25 13.7 5.7 13.65 M4.3 9.5 L4.5 6.9 5.8 11.75 4.25 9.95 4.3 9.5 M14.65 10.95 L13.7 10.9 12.0 9.5 14.65 10.95 14.85 11.85 14.3 11.4 14.65 10.95 M7.15 9.3 L6.4 9.75 6.35 9.75 7.45 8.6 7.85 8.9 7.15 9.3 M6.55 11.5 L5.85 11.7 8.1 9.95 6.55 11.5" fill="#7f6600" fill-rule="evenodd" stroke="none"/>
    <path d="M8.7 12.7 L8.1 13.35 5.75 13.6 5.25 13.7 9.35 9.95 9.65 10.0 5.8 7.1 5.6 7.0 8.25 6.9 10.6 9.05 10.55 8.9 12.7 6.6 12.8 6.7 15.25 6.55 15.0 6.7 11.55 9.85 11.65 9.85 13.5 11.3 13.4 11.3 15.1 12.65 12.95 12.85 10.55 10.7 10.4 10.85 8.7 12.7" fill="#c8c8c8" fill-rule="evenodd" stroke="none"/>
  </g>
</svg>
