<?xml version="1.0" encoding="UTF-8" standalone="no"?>
<svg xmlns:ffdec="https://www.free-decompiler.com/flash" xmlns:xlink="http://www.w3.org/1999/xlink" ffdec:objectType="shape" height="14.6px" width="18.25px" xmlns="http://www.w3.org/2000/svg">
  <g transform="matrix(1.0, 0.0, 0.0, 1.0, -1.0, 0.95)">
    <path d="M12.55 6.45 L12.1 6.9 13.95 8.85 14.45 7.9 14.65 8.1 14.1 9.2 14.65 9.8 14.6 9.9 14.55 9.95 14.4 10.0 11.15 7.3 11.15 7.35 11.0 7.4 14.0 4.85 14.25 4.75 11.95 4.75 10.15 6.5 8.45 4.75 6.05 4.7 6.2 4.8 6.35 4.85 9.35 7.4 9.1 7.35 7.45 8.65 7.5 8.7 5.95 10.0 5.75 9.95 5.7 9.85 5.7 9.8 6.2 9.25 8.85 7.1 8.6 6.9 8.45 6.85 6.1 9.05 6.15 9.2 5.6 8.1 5.75 7.9 6.25 8.8 8.4 6.8 8.3 6.65 8.25 6.75 8.15 6.5 7.05 5.55 6.7 5.3 6.05 4.7 5.85 4.5 6.0 4.5 7.35 4.35 8.65 4.35 10.15 5.95 11.75 4.35 12.9 4.35 13.15 4.35 14.25 4.55 14.55 4.5 14.25 4.75 12.6 6.15 12.05 6.65 11.9 6.75 11.5 7.1 13.6 8.8 14.1 9.2 14.1 9.05 12.05 6.9 11.95 6.95 12.4 6.55 12.55 6.45 M15.3 9.7 L17.6 9.9 17.9 10.2 15.9 11.55 14.65 11.65 14.4 12.5 12.2 13.65 12.1 13.2 12.8 11.4 13.0 11.55 12.2 13.65 14.65 11.65 17.9 10.2 15.4 10.0 15.3 9.7 M11.2 10.2 L11.15 9.9 11.7 9.85 10.3 8.45 10.15 8.55 10.05 8.45 8.55 9.85 9.1 9.9 9.05 10.2 8.15 10.15 8.3 9.95 8.2 10.0 10.15 8.05 12.15 10.05 11.95 10.0 10.25 8.25 10.15 8.15 10.1 8.15 8.45 9.85 10.05 8.35 10.2 8.5 10.3 8.4 12.05 10.15 11.2 10.2 M7.4 11.4 L8.1 13.2 8.05 13.65 5.8 12.5 5.55 11.65 8.05 13.65 7.2 11.55 7.4 11.4 M4.3 11.55 L2.35 10.2 2.65 9.9 4.95 9.7 4.8 10.0 2.35 10.2 5.5 11.6 4.3 11.55 M5.1 -0.95 L5.35 -0.85 6.55 1.75 6.35 1.75 5.1 -0.95 M8.2 3.1 L10.15 5.05 10.3 4.95 10.4 5.1 12.35 3.35 12.4 3.4 10.4 5.2 10.3 5.05 10.15 5.15 8.15 3.15 8.2 3.1 M13.7 1.75 L14.9 -0.85 15.15 -0.95 13.9 1.75 13.7 1.75 M5.5 11.6 L5.6 11.65 5.55 11.65 5.5 11.6" fill="#000000" fill-rule="evenodd" stroke="none"/>
    <path d="M11.0 7.4 L10.95 7.35 13.85 4.9 14.0 4.85 11.0 7.4 11.15 7.35 11.15 7.3 14.4 10.0 14.3 10.0 14.15 9.95 14.1 9.95 11.1 7.45 11.0 7.4 M6.35 4.85 L6.2 4.8 6.05 4.7 8.45 4.75 10.15 6.5 11.95 4.75 14.25 4.75 14.0 4.85 12.0 4.85 10.15 6.65 8.4 4.85 6.35 4.85 6.5 4.9 9.4 7.4 9.35 7.4 6.35 4.85 M12.4 3.4 L12.5 3.5 10.4 5.35 10.4 5.45 10.35 5.4 10.3 5.2 10.15 5.35 8.05 3.25 8.15 3.15 10.15 5.15 10.3 5.05 10.4 5.2 12.4 3.4 M14.1 9.2 L13.6 8.8 11.85 6.95 11.65 7.0 11.9 6.75 12.05 6.65 12.0 6.75 12.4 6.55 11.95 6.95 12.05 6.9 14.1 9.05 14.1 9.2 M12.05 10.15 L10.3 8.4 10.2 8.5 10.05 8.35 8.45 9.85 10.1 8.15 10.2 8.25 10.25 8.25 11.95 10.0 12.15 10.05 10.15 8.05 8.2 10.0 8.3 9.95 8.15 10.15 8.05 10.15 7.85 10.2 8.15 9.95 6.35 9.95 6.2 9.95 6.4 9.9 8.25 9.9 10.15 8.0 12.1 9.95 13.85 9.95 12.15 10.0 12.35 10.2 12.25 10.2 12.1 10.15 12.05 10.15 M5.95 10.0 L7.5 8.7 7.45 8.65 9.1 7.35 9.35 7.4 6.3 9.9 6.2 9.95 6.05 10.0 5.95 10.0 M6.15 9.2 L6.1 9.05 8.45 6.85 8.6 6.9 7.05 8.3 7.15 8.3 6.15 9.25 6.15 9.2" fill="#646464" fill-rule="evenodd" stroke="none"/>
    <path d="M14.0 4.85 L13.85 4.9 10.95 7.35 11.0 7.4 11.1 7.45 14.1 9.95 13.85 9.95 13.8 10.15 12.65 10.25 12.55 10.25 12.35 10.2 12.15 10.0 13.85 9.95 12.1 9.95 10.15 8.0 8.25 9.9 6.4 9.9 6.2 9.95 6.3 9.9 9.35 7.4 9.4 7.4 6.5 4.9 6.35 4.85 8.4 4.85 10.15 6.65 12.0 4.85 14.0 4.85 M13.05 3.9 L12.9 4.35 11.75 4.35 10.15 5.95 8.65 4.35 7.35 4.35 7.2 3.9 7.45 3.7 7.4 3.65 8.05 3.25 10.15 5.35 10.3 5.2 10.35 5.4 10.4 5.45 10.4 5.35 12.5 3.5 13.05 3.9 M13.6 8.8 L11.5 7.1 11.9 6.75 11.65 7.0 11.85 6.95 13.6 8.8 M10.1 8.15 L10.15 8.15 10.25 8.25 10.2 8.25 10.1 8.15 M6.35 9.95 L8.15 9.95 7.85 10.2 7.65 10.25 6.45 10.15 6.35 9.95 M8.6 6.9 L8.85 7.1 6.2 9.25 6.15 9.25 7.15 8.3 7.05 8.3 8.6 6.9" fill="#c8c8c8" fill-rule="evenodd" stroke="none"/>
    <path d="M15.15 -0.95 L15.15 3.55 15.2 3.6 15.2 3.45 16.1 1.75 17.7 1.9 17.25 2.8 15.2 3.6 14.25 4.55 13.15 4.35 12.9 4.35 13.05 3.9 15.15 3.55 10.65 2.05 13.7 1.75 13.9 1.75 15.15 -0.95 M2.55 1.9 L4.15 1.75 5.1 3.6 7.2 3.9 7.35 4.35 6.0 4.5 5.1 3.6 3.0 2.8 2.55 1.9 M6.55 1.75 L9.6 2.05 5.1 3.6 5.1 -0.95 6.35 1.75 6.55 1.75 M7.05 5.55 L8.15 6.5 8.25 6.75 7.05 5.55 M14.4 10.0 L14.55 9.95 14.6 9.9 14.65 9.8 14.1 9.2 14.65 8.1 14.65 9.8 14.65 11.65 15.4 10.0 17.9 10.2 14.65 11.65 12.2 13.65 13.0 11.55 14.65 11.65 11.2 10.2 12.05 10.15 12.1 10.15 12.25 10.2 12.35 10.2 12.55 10.25 12.65 10.25 13.8 10.15 13.85 9.95 14.1 9.95 14.15 9.95 14.3 10.0 14.4 10.0 M12.05 6.65 L12.6 6.15 12.0 6.75 12.05 6.65 M8.15 10.15 L9.05 10.2 5.6 11.65 7.2 11.55 8.05 13.65 5.55 11.65 5.6 11.65 5.6 8.1 6.15 9.2 6.15 9.25 6.2 9.25 5.7 9.8 5.7 9.85 5.75 9.95 5.95 10.0 6.05 10.0 6.2 9.95 6.35 9.95 6.45 10.15 7.65 10.25 7.85 10.2 8.05 10.15 8.15 10.15 M5.6 11.65 L5.5 11.6 2.35 10.2 4.8 10.0 5.6 11.65" fill="#ffcc00" fill-rule="evenodd" stroke="none"/>
    <path d="M15.15 -0.95 L16.1 1.75 15.2 3.45 15.2 3.6 15.15 3.55 15.15 -0.95 M17.7 1.9 L19.25 2.05 16.75 3.9 17.45 6.75 14.8 5.25 12.55 6.45 12.4 6.55 12.0 6.75 12.6 6.15 14.25 4.75 14.55 4.5 14.25 4.55 15.2 3.6 17.25 2.8 17.7 1.9 M14.65 8.1 L15.3 9.7 15.4 10.0 14.65 11.65 13.0 11.55 12.8 11.4 11.2 10.2 14.65 11.65 14.65 9.8 14.65 8.1 M15.9 11.55 L16.5 13.65 14.4 12.5 14.65 11.65 15.9 11.55 M9.05 10.2 L7.4 11.4 7.2 11.55 5.6 11.65 9.05 10.2 M5.8 12.5 L3.7 13.65 4.3 11.55 5.5 11.6 5.55 11.65 5.8 12.5 M4.95 9.7 L5.6 8.1 5.6 11.65 4.8 10.0 4.95 9.7 M8.25 6.75 L5.45 5.25 2.75 6.75 3.5 3.9 1.0 2.05 2.55 1.9 3.0 2.8 5.1 3.6 6.0 4.5 5.85 4.5 6.05 4.7 6.7 5.3 7.05 5.55 8.25 6.75 M4.15 1.75 L4.25 1.55 5.1 -0.95 5.1 3.6 9.6 2.05 8.2 3.1 8.15 3.15 8.05 3.25 7.4 3.65 7.45 3.7 7.2 3.9 5.1 3.6 4.15 1.75 M12.35 3.35 L10.65 2.05 15.15 3.55 13.05 3.9 12.5 3.5 12.4 3.4 12.35 3.35" fill="#7f6600" fill-rule="evenodd" stroke="none"/>
  </g>
</svg>
