<?xml version="1.0" encoding="UTF-8" standalone="no"?>
<svg xmlns:ffdec="https://www.free-decompiler.com/flash" xmlns:xlink="http://www.w3.org/1999/xlink" ffdec:objectType="shape" height="15.35px" width="18.0px" xmlns="http://www.w3.org/2000/svg">
  <g transform="matrix(1.0, 0.0, 0.0, 1.0, -1.65, 1.05)">
    <path d="M10.55 2.05 L14.85 3.7 19.65 2.1 16.85 4.0 17.65 7.1 14.8 5.4 12.65 6.45 12.5 6.55 11.85 6.85 12.0 6.5 13.45 5.35 13.5 5.25 14.3 4.6 14.05 4.65 13.95 4.65 14.85 3.7 16.3 5.45 15.9 3.85 14.85 3.7 13.85 3.8 13.6 4.55 12.75 4.4 12.95 3.95 12.7 3.75 12.65 3.75 12.45 3.6 12.35 3.5 12.3 3.45 10.55 2.05 M18.15 10.75 L16.05 11.95 16.0 12.0 16.7 14.3 14.4 12.9 12.1 13.8 12.9 11.75 12.85 11.7 11.1 10.3 14.45 12.0 18.15 10.75 M9.0 10.15 L7.55 11.1 7.25 11.3 5.5 11.3 9.0 10.15 M5.95 12.15 L4.05 13.05 4.55 11.1 5.5 11.3 5.05 9.65 5.15 9.4 5.75 7.9 5.5 11.3 5.95 12.15 M8.0 6.6 L5.65 5.15 5.55 5.1 3.2 6.5 3.85 3.8 1.65 2.0 4.4 1.75 5.3 -0.85 5.05 3.5 5.95 4.45 5.85 4.45 5.8 4.4 5.8 4.55 5.9 4.65 6.05 4.75 8.0 6.6" fill="#7f6600" fill-rule="evenodd" stroke="none"/>
    <path d="M10.55 2.05 L13.8 1.75 13.85 1.7 15.1 -1.05 16.15 1.75 19.65 2.1 14.85 3.7 10.55 2.05 M13.6 4.55 L13.85 3.8 14.85 3.7 15.9 3.85 16.3 5.45 14.85 3.7 13.95 4.65 13.6 4.55 M7.35 4.3 L5.95 4.45 5.05 3.5 5.3 -0.85 6.3 1.45 6.4 1.75 9.45 2.05 9.3 2.15 8.05 3.15 7.4 3.65 7.2 3.85 7.35 4.3 M14.25 10.25 L14.55 10.1 14.05 9.45 14.05 9.4 14.65 8.3 15.45 10.35 18.15 10.75 14.45 12.0 11.1 10.3 11.95 10.25 12.05 10.25 12.4 10.45 13.7 10.4 13.8 10.25 13.85 10.25 14.25 10.25 M8.05 10.0 L9.0 10.15 5.5 11.3 7.25 11.3 8.0 13.45 5.5 11.3 2.85 9.7 5.05 9.65 5.5 11.3 5.75 7.9 6.3 9.05 6.2 9.1 5.75 9.5 5.7 9.65 5.8 9.7 5.9 9.7 5.95 9.7 6.45 9.75 6.5 9.9 7.65 10.1 7.85 10.05 8.05 10.0" fill="#ffcc00" fill-rule="evenodd" stroke="none"/>
    <path d="M12.65 6.45 L12.1 6.95 13.3 8.25 14.15 9.0 14.65 8.05 15.4 10.05 18.0 10.4 18.15 10.75 15.45 10.35 14.65 8.3 14.05 9.4 14.05 9.45 14.55 10.1 14.25 10.25 12.6 8.75 12.7 8.75 11.05 7.3 10.95 7.3 10.65 7.4 13.7 4.9 13.85 4.85 11.5 4.75 11.5 4.85 9.75 6.6 9.85 6.3 8.25 4.55 8.1 4.7 5.9 4.65 5.8 4.55 5.8 4.4 5.85 4.45 5.95 4.45 7.35 4.3 8.55 4.3 9.7 5.55 10.0 5.95 10.2 5.8 11.65 4.4 12.75 4.4 13.6 4.55 13.95 4.65 14.05 4.65 14.3 4.6 13.5 5.25 13.45 5.35 12.0 6.5 11.3 7.05 14.05 9.4 14.1 9.25 12.0 7.0 11.9 7.0 12.5 6.55 12.65 6.45 M16.05 11.95 L16.6 13.8 16.7 14.3 16.0 12.0 16.05 11.95 M12.1 13.8 L12.2 13.4 12.85 11.7 12.9 11.75 12.1 13.8 M11.1 10.3 L11.2 9.95 11.45 9.95 10.05 8.45 8.6 9.75 9.2 9.8 9.0 10.15 8.05 10.0 8.2 10.0 10.0 8.4 9.95 8.3 9.9 8.2 8.5 9.5 8.2 9.8 8.1 9.85 7.95 9.85 9.75 8.05 9.75 8.0 10.6 8.9 11.65 10.1 11.85 10.1 11.95 10.25 11.1 10.3 M7.55 11.1 L8.25 13.0 8.0 13.45 5.95 12.15 5.5 11.3 8.0 13.45 7.25 11.3 7.55 11.1 M4.55 11.1 L2.85 9.7 3.25 9.45 5.15 9.4 5.05 9.65 2.85 9.7 5.5 11.3 4.55 11.1 M5.75 7.9 L6.05 7.65 6.5 8.55 8.3 6.85 8.0 6.6 6.05 4.75 5.9 4.65 6.1 4.75 8.85 7.3 5.9 9.7 5.8 9.7 5.7 9.65 5.75 9.5 6.2 9.1 6.3 9.05 8.65 7.15 8.5 7.0 8.35 6.9 6.25 8.85 6.3 9.05 5.75 7.9 M5.65 5.15 L3.7 6.3 3.2 6.5 5.55 5.1 5.65 5.15 M5.3 -0.85 L5.75 -0.75 6.8 1.75 9.7 2.0 8.35 3.15 10.15 5.05 10.25 5.0 10.3 4.95 10.4 5.1 12.3 3.45 12.35 3.5 10.35 5.25 10.35 5.15 10.25 5.0 10.2 5.1 10.05 5.25 10.1 5.1 8.2 3.1 8.1 3.2 8.05 3.15 9.3 2.15 9.45 2.05 6.4 1.75 6.3 1.45 5.3 -0.85 M7.85 9.8 L7.95 9.85 7.8 9.85 7.85 9.8" fill="#000000" fill-rule="evenodd" stroke="none"/>
    <path d="M11.85 6.85 L12.5 6.55 11.9 7.0 12.0 7.0 14.1 9.25 14.05 9.4 11.9 7.0 11.65 7.05 11.85 6.85 M5.9 4.65 L8.1 4.7 8.25 4.55 9.85 6.3 9.75 6.6 11.5 4.85 11.5 4.75 13.85 4.85 13.7 4.9 10.65 7.4 10.95 7.3 11.05 7.3 12.7 8.75 12.6 8.75 14.25 10.25 13.85 10.25 13.8 10.2 10.65 7.4 10.45 7.4 13.55 4.95 11.55 4.9 9.75 6.65 9.75 6.6 8.05 4.85 6.1 4.75 6.3 4.85 9.0 7.35 8.9 7.35 6.55 9.25 8.25 7.95 6.1 9.65 7.85 9.8 9.75 8.0 9.75 8.05 7.95 9.85 7.85 9.8 7.8 9.85 6.45 9.75 5.95 9.7 5.9 9.7 8.85 7.3 6.1 4.75 5.9 4.65 M12.35 3.5 L12.45 3.6 10.3 5.45 10.35 5.3 10.3 5.2 10.2 5.1 10.25 5.0 10.35 5.15 10.35 5.25 12.35 3.5 M8.1 3.2 L8.2 3.1 10.1 5.1 10.05 5.25 10.2 5.1 10.2 5.4 10.05 5.5 10.05 5.25 8.1 3.2 M11.95 10.25 L11.85 10.1 11.65 10.1 10.6 8.9 11.65 10.05 13.6 10.2 13.8 10.2 13.8 10.25 12.1 10.1 12.4 10.45 12.05 10.25 11.95 10.25 M8.1 9.85 L8.2 9.8 8.5 9.5 9.95 8.3 10.0 8.4 8.2 10.0 8.05 10.0 7.85 10.05 8.0 9.9 8.1 9.85 M6.3 9.05 L6.25 8.85 8.35 6.9 8.5 7.0 6.3 9.05" fill="#646464" fill-rule="evenodd" stroke="none"/>
    <path d="M12.0 6.5 L11.85 6.85 11.65 7.05 11.9 7.0 14.05 9.4 11.3 7.05 12.0 6.5 M12.45 3.6 L12.65 3.75 12.7 3.75 12.95 3.95 12.75 4.4 11.65 4.4 10.2 5.8 10.0 5.95 9.7 5.55 8.55 4.3 7.35 4.3 7.2 3.85 7.4 3.65 8.05 3.15 8.1 3.2 10.05 5.25 10.05 5.5 10.2 5.4 10.2 5.1 10.3 5.2 10.35 5.3 10.3 5.45 12.45 3.6 M9.75 6.6 L9.75 6.65 11.55 4.9 13.55 4.95 10.45 7.4 10.65 7.4 13.8 10.2 13.85 10.25 13.8 10.25 13.7 10.4 12.4 10.45 12.1 10.1 13.8 10.25 13.8 10.2 13.6 10.2 11.65 10.05 10.6 8.9 9.75 8.0 7.85 9.8 6.1 9.65 8.25 7.95 6.55 9.25 8.9 7.35 9.0 7.35 6.3 4.85 6.1 4.75 8.05 4.85 9.75 6.6 M7.95 9.85 L8.1 9.85 8.0 9.9 7.85 10.05 7.65 10.1 6.5 9.9 6.45 9.75 7.8 9.85 7.95 9.85 M8.5 9.5 L9.9 8.2 9.95 8.3 8.5 9.5 M8.5 7.0 L8.65 7.15 6.3 9.05 8.5 7.0" fill="#c8c8c8" fill-rule="evenodd" stroke="none"/>
  </g>
</svg>
