<?xml version="1.0" encoding="UTF-8" standalone="no"?>
<svg xmlns:ffdec="https://www.free-decompiler.com/flash" xmlns:xlink="http://www.w3.org/1999/xlink" ffdec:objectType="shape" height="16.1px" width="17.2px" xmlns="http://www.w3.org/2000/svg">
  <g transform="matrix(1.0, 0.0, 0.0, 1.0, -2.5, 1.15)">
    <path d="M14.9 -1.15 L15.95 1.75 15.95 1.8 16.15 1.75 16.25 1.8 17.1 1.9 19.7 2.15 14.35 3.75 14.5 3.8 16.7 4.15 17.55 7.4 14.35 3.75 12.3 2.85 11.95 1.9 13.6 1.75 14.35 3.65 14.9 -1.15 M11.0 10.4 L10.95 10.35 11.9 10.4 12.1 10.55 12.3 10.6 13.45 10.65 14.0 12.35 14.2 10.4 14.4 8.55 15.25 10.75 18.05 11.35 14.0 12.35 15.8 12.5 16.5 14.95 14.0 12.35 11.0 10.4 M8.0 9.85 L8.1 9.85 8.95 10.05 5.65 10.95 7.4 11.1 8.1 13.25 5.75 11.0 5.65 10.95 5.85 9.45 5.9 9.45 6.65 9.55 6.7 9.7 7.65 9.9 8.0 9.85 M5.6 -0.75 L6.6 1.75 5.3 3.2 5.15 3.4 5.6 -0.75 M9.4 2.05 L7.85 3.35 7.75 3.4 7.3 3.8 7.45 4.25 6.2 4.3 6.0 4.35 5.15 3.45 5.15 3.4 9.4 2.05 M5.65 10.95 L3.55 9.3 5.4 9.35 5.65 10.95 M6.5 8.75 L5.85 9.35 6.05 7.7 6.5 8.75" fill="#ffcc00" fill-rule="evenodd" stroke="none"/>
    <path d="M19.7 2.15 L16.85 4.05 16.7 4.15 14.5 3.8 14.35 3.75 19.7 2.15 M17.55 7.4 L14.75 5.65 14.55 5.55 12.7 6.4 12.5 6.5 11.85 6.8 11.7 6.9 11.8 6.6 13.9 4.7 13.4 4.7 12.75 4.5 12.55 4.5 12.6 4.25 12.7 4.0 12.35 3.7 12.3 3.65 12.2 3.55 12.15 3.55 10.4 2.05 11.95 1.9 12.3 2.85 14.35 3.75 17.55 7.4 M14.15 9.05 L14.4 8.55 14.2 10.4 14.0 12.35 13.45 10.65 13.55 10.55 14.2 10.4 13.95 9.9 13.85 9.7 13.85 9.65 13.9 9.55 13.95 9.4 14.15 9.05 M18.05 11.35 L16.05 12.4 15.8 12.5 14.0 12.35 18.05 11.35 M14.2 13.3 L11.9 14.0 12.75 12.0 14.0 12.35 14.2 13.3 M8.95 10.05 L8.75 10.2 7.8 10.8 8.5 12.85 8.1 13.25 7.4 11.1 5.65 10.95 8.95 10.05 M6.2 11.85 L4.55 12.55 5.65 10.95 5.75 11.0 6.2 11.85 M6.05 7.7 L6.5 7.5 6.85 8.25 6.55 8.55 6.55 8.65 6.5 8.75 6.05 7.7 M2.5 2.0 L4.85 1.75 5.15 3.4 5.1 3.45 2.5 2.0 M5.6 -0.75 L6.25 -0.65 7.2 1.75 6.6 1.75 5.6 -0.75 M13.6 1.75 L14.9 -1.15 14.35 3.65 13.6 1.75 M9.4 2.05 L5.15 3.4 5.3 3.2 6.6 1.75 9.4 2.05 M5.15 3.45 L5.85 5.0 3.8 6.25 5.15 3.45" fill="#7f6600" fill-rule="evenodd" stroke="none"/>
    <path d="M14.9 -1.15 L15.15 -1.05 16.15 1.75 15.95 1.8 15.95 1.75 14.9 -1.15 M17.1 1.9 L19.7 2.1 19.7 2.15 17.1 1.9 M16.85 4.05 L17.65 7.15 17.55 7.4 16.7 4.15 16.85 4.05 M12.7 6.4 L12.05 7.0 14.15 9.05 13.95 9.4 12.0 7.05 11.85 7.1 12.5 6.5 12.7 6.4 M14.4 8.55 L14.65 8.3 15.45 10.4 18.15 11.0 18.05 11.35 15.25 10.75 14.4 8.55 M16.05 12.4 L16.65 14.45 16.5 14.95 14.2 13.3 14.0 12.35 12.75 12.0 11.0 10.4 14.0 12.35 16.5 14.95 15.8 12.5 16.05 12.4 M10.95 10.35 L11.1 10.2 11.1 10.15 11.65 10.2 11.75 10.3 11.8 10.3 11.9 10.4 10.95 10.35 M9.85 8.65 L8.7 9.6 9.35 9.75 8.95 10.05 8.1 9.85 8.35 9.85 9.8 8.6 9.85 8.65 M8.1 13.25 L6.2 11.85 5.75 11.0 8.1 13.25 M4.55 12.55 L5.0 10.7 3.55 9.3 4.05 9.05 5.5 9.1 6.05 7.7 5.85 9.35 6.5 8.75 8.45 7.2 8.55 7.3 5.9 9.45 5.85 9.45 5.65 10.95 5.4 9.35 3.55 9.3 5.65 10.95 4.55 12.55 M6.85 8.25 L8.25 6.95 8.3 7.0 6.55 8.65 6.55 8.55 6.85 8.25 M7.25 5.95 L6.05 5.1 4.45 6.05 3.8 6.25 4.35 3.7 2.5 2.0 5.1 3.45 5.15 3.4 4.85 1.75 5.6 -0.75 5.15 3.4 5.15 3.45 6.0 4.35 6.2 4.3 7.45 4.25 8.55 4.3 8.05 4.5 7.85 4.65 5.9 4.55 7.25 5.95 M7.2 1.75 L9.85 2.0 8.5 3.15 9.4 4.15 9.5 4.2 10.05 4.95 10.15 5.05 10.15 5.1 10.1 5.15 10.05 5.25 10.0 5.2 10.1 5.1 8.35 3.05 8.2 3.1 7.85 3.35 9.4 2.05 6.6 1.75 7.2 1.75 M10.25 4.95 L10.3 4.95 10.4 5.05 12.15 3.55 12.2 3.55 10.3 5.25 10.3 5.2 10.35 5.1 10.25 4.95 M12.55 4.5 L12.75 4.5 13.4 4.7 13.9 4.7 11.8 6.6 11.75 6.65 11.7 6.6 11.65 6.7 11.1 7.15 10.6 7.35 10.3 7.4 13.1 5.1 13.3 4.9 11.0 4.8 10.95 4.95 9.35 6.6 9.35 6.55 9.9 5.9 10.2 5.6 11.25 4.5 11.45 4.45 11.55 4.45 12.55 4.5 M13.95 9.9 L11.45 7.45 13.85 9.65 13.85 9.7 13.95 9.9 M13.25 10.5 L12.0 10.35 11.95 10.25 13.25 10.5 M9.35 8.0 L9.6 8.35 8.55 9.4 8.4 9.5 8.05 9.7 7.7 9.7 9.35 8.0 M7.55 9.7 L7.6 9.65 7.7 9.7 7.55 9.7 M5.15 3.45 L3.8 6.25 5.85 5.0 5.15 3.45" fill="#000000" fill-rule="evenodd" stroke="none"/>
    <path d="M11.1 10.2 L9.85 8.65 9.8 8.6 8.35 9.85 8.1 9.85 8.0 9.85 8.15 9.7 8.4 9.5 8.55 9.4 9.7 8.45 9.6 8.35 9.35 8.0 11.1 10.15 11.1 10.2 M8.25 6.95 L7.25 5.95 5.9 4.55 7.85 4.65 8.05 4.5 8.55 4.3 9.9 5.9 9.35 6.55 7.8 4.7 7.75 4.75 6.55 4.7 7.7 4.8 6.1 4.7 8.6 7.3 6.05 9.4 7.6 9.65 7.55 9.7 6.65 9.55 5.9 9.45 8.55 7.3 8.45 7.2 6.5 8.75 6.55 8.65 8.3 7.0 8.25 6.95 M10.15 5.05 L10.25 4.95 10.35 5.1 10.3 5.2 10.3 5.25 12.2 3.55 12.3 3.65 11.7 4.2 11.65 4.35 11.55 4.45 11.45 4.45 11.25 4.5 10.2 5.6 10.2 5.45 10.25 5.3 10.3 5.25 10.15 5.1 10.15 5.05 M11.85 6.8 L12.5 6.5 11.85 7.1 11.6 7.1 11.85 6.8 M9.35 6.6 L10.95 4.95 11.0 4.8 13.3 4.9 13.1 5.1 10.3 7.4 10.6 7.35 11.1 7.15 11.45 7.45 13.95 9.9 14.2 10.4 13.55 10.55 13.35 10.5 10.2 7.4 10.05 7.45 12.95 5.05 10.95 4.95 11.0 5.0 9.3 6.75 9.3 6.65 9.35 6.6 M8.2 3.1 L8.35 3.05 10.1 5.1 10.0 5.2 8.2 3.1 M10.05 5.25 L10.1 5.15 10.1 5.3 10.05 5.5 10.0 5.6 10.0 5.3 10.05 5.25 M11.85 7.1 L12.0 7.05 13.95 9.4 13.9 9.55 11.85 7.1 M11.65 10.2 L11.95 10.25 13.0 10.4 13.25 10.5 11.95 10.25 12.0 10.35 12.1 10.4 12.3 10.6 12.1 10.55 11.9 10.4 11.8 10.3 11.75 10.3 11.65 10.2 M7.6 9.65 L9.3 7.95 9.35 8.0 7.7 9.7 7.6 9.65" fill="#646464" fill-rule="evenodd" stroke="none"/>
    <path d="M12.3 3.65 L12.35 3.7 12.7 4.0 12.6 4.25 12.55 4.5 11.55 4.45 11.65 4.35 11.7 4.2 12.3 3.65 M11.8 6.6 L11.7 6.9 11.85 6.8 11.6 7.1 11.85 7.1 13.9 9.55 13.85 9.65 11.45 7.45 11.1 7.15 11.65 6.7 11.7 6.6 11.75 6.65 11.8 6.6 M10.3 5.25 L10.25 5.3 10.2 5.45 10.2 5.6 9.9 5.9 8.55 4.3 7.45 4.25 7.3 3.8 7.75 3.4 7.85 3.35 8.2 3.1 10.0 5.2 10.05 5.25 10.0 5.3 10.0 5.6 10.05 5.5 10.1 5.3 10.1 5.15 10.15 5.1 10.3 5.25 M9.35 6.55 L9.35 6.6 9.3 6.65 9.3 6.75 11.0 5.0 10.95 4.95 12.95 5.05 10.05 7.45 10.2 7.4 13.35 10.5 13.55 10.55 13.45 10.65 12.3 10.6 12.1 10.4 12.0 10.35 13.25 10.5 13.0 10.4 11.95 10.25 11.65 10.2 11.1 10.15 9.35 8.0 9.3 7.95 7.6 9.65 6.05 9.4 8.6 7.3 6.1 4.7 7.7 4.8 6.55 4.7 7.75 4.75 7.8 4.7 9.35 6.55 M9.6 8.35 L9.7 8.45 8.55 9.4 9.6 8.35 M8.4 9.5 L8.15 9.7 8.0 9.85 7.65 9.9 6.7 9.7 6.65 9.55 7.55 9.7 7.7 9.7 8.05 9.7 8.4 9.5" fill="#c8c8c8" fill-rule="evenodd" stroke="none"/>
  </g>
</svg>
