<?xml version="1.0" encoding="UTF-8" standalone="no"?>
<svg xmlns:ffdec="https://www.free-decompiler.com/flash" xmlns:xlink="http://www.w3.org/1999/xlink" ffdec:objectType="shape" height="17.6px" width="14.35px" xmlns="http://www.w3.org/2000/svg">
  <g transform="matrix(1.0, 0.0, 0.0, 1.0, -4.65, 1.35)">
    <path d="M13.75 -1.35 L14.7 1.8 12.65 3.85 12.65 3.7 13.75 -1.35 M12.65 3.85 L18.25 2.2 15.35 4.4 16.2 8.05 12.65 3.9 12.65 3.85 M13.0 10.9 L13.4 9.0 14.15 11.45 16.75 12.6 12.55 12.9 14.65 13.45 15.3 16.2 15.25 16.25 14.95 15.85 12.55 12.9 13.0 10.9 M6.65 -0.65 L7.35 1.75 5.9 3.3 6.65 -0.65 M7.9 4.15 L6.65 4.15 6.6 4.2 5.9 3.3 7.85 3.7 7.9 4.15 M7.0 7.35 L7.65 7.2 7.75 7.45 6.75 8.45 7.0 7.35 M7.95 10.75 L8.6 10.5 9.05 12.6 8.45 12.9 7.15 11.3 6.35 10.35 7.95 10.75 M7.35 9.35 L6.35 10.35 6.6 9.05 7.35 9.35" fill="#ffcc00" fill-rule="evenodd" stroke="none"/>
    <path d="M13.75 -1.35 L12.65 3.7 12.65 1.8 13.75 -1.35 M10.1 2.05 L12.6 3.85 12.65 3.85 12.65 3.9 12.15 4.85 12.55 4.85 11.6 6.05 11.1 7.0 11.2 6.7 10.65 7.2 10.5 7.2 9.75 7.35 12.1 4.95 11.45 5.1 9.9 4.9 10.0 4.8 10.0 4.75 8.9 3.0 8.6 3.05 8.25 3.25 9.35 2.05 7.35 1.75 8.2 1.75 10.1 2.0 10.1 2.05 9.1 3.2 9.7 4.1 9.9 4.15 9.7 4.15 10.05 4.7 10.45 4.55 10.4 4.5 10.2 4.15 10.4 4.25 10.6 4.55 10.8 4.5 11.05 4.25 11.55 3.65 10.1 2.05 M18.25 2.2 L14.7 1.8 15.5 1.8 19.0 2.2 16.15 4.3 15.35 4.4 18.25 2.2 M9.85 4.9 L9.8 5.0 9.5 5.4 8.6 6.6 8.8 6.25 9.5 5.4 9.85 4.9 M7.55 4.55 L6.55 4.45 7.0 4.55 6.3 4.45 6.25 4.4 6.3 4.3 6.45 4.2 5.9 3.3 5.85 3.5 4.65 1.95 5.9 3.3 6.15 1.75 6.65 -0.65 5.9 3.3 6.6 4.2 6.65 4.15 7.9 4.15 8.6 4.2 7.7 4.45 7.55 4.55 M6.65 4.95 L6.85 5.3 6.25 5.75 5.5 5.85 6.65 4.95 M8.05 7.1 L8.05 7.15 6.35 8.95 7.4 9.3 7.45 9.35 7.35 9.35 6.6 9.05 6.35 10.35 6.0 11.7 6.25 10.25 6.35 10.35 6.55 9.05 6.3 8.95 6.4 8.85 5.35 8.6 6.0 8.45 6.6 8.6 6.65 8.55 7.0 7.35 6.75 8.45 7.75 7.45 8.05 7.1 M8.45 9.6 L8.75 9.65 9.3 9.1 9.4 9.2 9.15 9.45 9.65 9.65 9.7 9.75 8.6 10.5 7.95 10.75 9.1 9.9 8.45 9.65 8.45 9.6 M9.95 10.2 L11.4 10.7 11.65 10.85 11.45 10.8 10.55 10.45 12.55 12.9 12.55 11.1 12.55 11.05 12.6 11.1 12.6 10.95 12.95 10.9 13.0 10.9 12.55 12.9 14.95 15.85 13.2 14.0 11.35 14.3 12.0 12.35 10.55 10.45 10.0 10.25 9.95 10.2 M12.65 3.9 L16.2 8.05 13.65 5.95 12.1 6.75 13.8 8.9 13.6 8.95 13.2 8.4 13.15 8.4 11.95 6.85 11.7 7.1 13.2 9.5 13.4 9.0 13.0 10.9 12.9 10.15 12.95 10.05 13.1 9.75 13.15 9.55 11.7 7.15 11.5 7.2 12.15 6.55 12.0 6.6 11.85 6.7 11.55 6.85 11.5 6.8 13.5 5.8 12.65 3.9 M11.75 4.6 L11.9 4.05 11.6 3.75 10.9 4.45 11.75 4.6 M11.45 6.85 L11.35 6.95 11.3 6.9 11.45 6.85 M14.3 9.6 L14.45 9.8 14.5 10.05 14.45 9.95 14.3 9.6 M14.8 11.15 L17.35 12.2 14.15 11.45 14.8 11.15 M12.55 12.9 L11.35 14.3 12.9 13.45 12.55 12.9 M8.8 8.2 L8.85 8.3 9.15 8.75 8.7 9.25 7.8 9.45 8.8 8.2" fill="#000000" fill-rule="evenodd" stroke="none"/>
    <path d="M12.65 3.7 L12.65 3.85 14.7 1.8 13.75 -1.35 14.6 -1.25 15.5 1.8 14.7 1.8 18.25 2.2 12.65 3.85 12.6 3.85 10.1 2.05 12.65 1.8 12.65 3.7 M6.3 4.45 L6.65 4.95 5.5 5.85 5.8 3.7 5.85 3.5 5.9 3.3 7.35 1.75 6.65 -0.65 7.5 -0.55 8.2 1.75 7.35 1.75 9.35 2.05 8.25 3.25 8.15 3.3 7.85 3.7 5.9 3.3 4.65 1.95 6.15 1.75 5.9 3.3 6.45 4.2 6.3 4.3 6.25 4.4 6.3 4.45 M7.45 9.35 L7.65 9.4 8.0 9.6 8.45 9.6 8.45 9.65 9.1 9.9 7.95 10.75 6.35 10.35 7.15 11.3 6.95 11.35 6.2 11.65 6.0 11.7 6.35 10.35 7.35 9.35 7.45 9.35 M11.1 7.0 L11.6 6.05 12.55 4.85 12.15 4.85 12.65 3.9 13.5 5.8 11.5 6.8 11.45 6.85 11.3 6.9 11.1 7.0 M16.2 8.05 L15.35 4.4 16.15 4.3 16.95 7.8 16.2 8.05 M13.6 8.95 L13.8 8.9 14.1 8.75 14.3 9.6 14.45 9.95 14.45 10.1 14.8 11.15 14.15 11.45 17.35 12.2 16.75 12.6 15.3 13.15 15.9 15.75 15.3 16.2 14.65 13.45 12.55 12.9 16.75 12.6 14.15 11.45 13.4 9.0 13.6 8.95 M12.55 12.9 L10.55 10.45 11.45 10.8 11.5 10.85 11.7 10.95 12.35 11.05 12.55 11.1 12.55 12.9 12.9 13.45 11.35 14.3 12.55 12.9 M6.35 10.35 L6.25 10.25 5.35 8.6 6.4 8.85 6.3 8.95 6.55 9.05 6.35 10.35" fill="#7f6600" fill-rule="evenodd" stroke="none"/>
    <path d="M10.2 4.15 L10.4 4.5 10.45 4.55 10.05 4.7 9.7 4.15 9.9 4.15 10.2 4.15 M8.6 3.05 L8.9 3.0 10.0 4.75 10.0 4.8 9.9 4.9 11.45 5.1 12.1 4.95 9.75 7.35 9.45 7.4 9.1 7.4 11.4 10.7 9.95 10.2 9.7 9.75 9.65 9.65 9.4 9.2 9.3 9.1 8.75 9.65 8.45 9.6 8.0 9.6 7.65 9.4 7.45 9.35 7.4 9.3 6.35 8.95 8.05 7.15 8.05 7.1 6.85 5.3 6.65 4.95 6.3 4.45 7.0 4.55 6.55 4.45 7.55 4.55 7.4 4.65 8.6 6.6 9.5 5.4 9.8 5.0 9.85 4.9 8.6 3.05 M9.75 7.35 L10.5 7.2 10.65 7.2 10.85 7.5 10.95 7.6 12.95 10.05 12.9 10.15 13.0 10.9 12.95 10.9 12.6 10.95 12.6 11.1 12.55 11.05 12.55 11.1 12.35 11.05 11.7 10.95 11.5 10.85 11.45 10.8 11.65 10.85 11.8 10.9 12.1 10.95 12.3 10.95 12.4 10.95 12.5 10.95 11.15 9.05 12.4 10.95 11.05 9.05 12.3 10.95 9.75 7.35 M11.75 4.6 L10.9 4.45 11.6 3.75 11.9 4.05 11.75 4.6 M11.5 6.8 L11.55 6.85 11.85 6.7 12.0 6.6 12.15 6.55 11.5 7.2 11.7 7.15 13.15 9.55 13.1 9.75 11.55 7.25 11.5 7.3 11.45 7.2 11.05 7.25 11.35 6.95 11.45 6.85 11.5 6.8 M13.4 9.0 L13.2 9.5 11.7 7.1 11.95 6.85 13.15 8.4 13.2 8.4 13.6 8.95 13.4 9.0 M14.5 10.05 L14.45 10.1 14.45 9.95 14.5 10.05 M8.15 3.3 L9.5 5.4 8.8 6.25 7.7 4.45 8.6 4.2 7.9 4.15 7.85 3.7 8.15 3.3 M8.8 8.2 L7.8 9.45 8.7 9.25 9.15 8.75 8.85 8.3 8.8 8.2" fill="#646464" fill-rule="evenodd" stroke="none"/>
    <path d="M8.6 3.05 L9.85 4.9 9.5 5.4 8.15 3.3 8.25 3.25 8.6 3.05 M8.6 6.6 L7.4 4.65 7.55 4.55 7.7 4.45 8.8 6.25 8.6 6.6 M11.4 10.7 L9.1 7.4 9.45 7.4 9.75 7.35 12.3 10.95 11.05 9.05 12.4 10.95 11.15 9.05 12.5 10.95 12.4 10.95 12.3 10.95 12.1 10.95 11.8 10.9 11.65 10.85 11.4 10.7 M10.65 7.2 L11.2 6.7 11.1 7.0 11.3 6.9 11.35 6.95 11.05 7.25 11.45 7.2 11.5 7.3 11.55 7.25 13.1 9.75 12.95 10.05 10.95 7.6 10.85 7.5 10.65 7.2" fill="#c8c8c8" fill-rule="evenodd" stroke="none"/>
  </g>
</svg>
