<?xml version="1.0" encoding="UTF-8" standalone="no"?>
<svg xmlns:ffdec="https://www.free-decompiler.com/flash" xmlns:xlink="http://www.w3.org/1999/xlink" ffdec:objectType="shape" height="18.15px" width="12.0px" xmlns="http://www.w3.org/2000/svg">
  <g transform="matrix(1.0, 0.0, 0.0, 1.0, -5.85, 1.4)">
    <path d="M12.85 -1.4 L13.95 -1.3 14.75 1.8 13.65 1.8 13.6 1.65 12.85 -1.4 M15.3 4.4 L16.0 8.1 14.9 8.3 14.2 4.5 11.5 3.9 10.1 2.25 9.45 3.25 9.35 3.05 9.3 3.05 9.3 3.0 9.2 3.0 8.95 3.05 8.9 3.0 8.6 3.15 8.6 3.2 8.45 3.25 8.4 3.35 8.2 3.65 6.45 3.2 7.85 1.75 9.3 2.05 10.0 2.05 10.25 2.0 11.95 1.8 11.5 3.9 13.65 1.8 16.7 2.25 13.9 3.15 15.4 3.45 14.2 4.5 15.3 4.4 M13.85 10.6 L14.1 11.45 16.3 12.8 15.45 13.1 13.2 11.7 12.9 10.45 14.1 11.45 12.65 9.2 13.5 9.0 13.85 10.6 M14.55 13.5 L14.5 13.5 15.0 16.4 14.2 16.75 13.65 13.8 11.65 13.1 15.45 13.1 14.55 13.45 14.55 13.5 M11.45 12.65 L10.45 10.8 10.5 10.8 10.8 10.95 11.4 11.1 11.8 11.25 11.9 11.25 11.6 13.05 11.6 13.1 11.45 12.65 M6.9 10.1 L6.35 8.4 6.85 8.55 6.7 8.7 6.7 8.75 7.15 9.0 6.9 10.1 7.8 9.25 8.1 9.3 8.4 9.5 8.65 9.5 9.2 9.85 8.3 10.6 6.9 10.1 M6.45 5.7 L6.4 3.35 6.45 3.25 7.05 4.1 6.8 4.2 6.65 4.3 6.65 4.4 6.7 4.45 7.0 5.15 6.45 5.7 M11.65 4.9 L11.3 4.9 11.5 3.9 12.65 5.9 10.7 7.05 10.8 6.7 10.95 6.15 11.35 5.5 11.4 5.35 11.65 4.9" fill="#7f6600" fill-rule="evenodd" stroke="none"/>
    <path d="M14.25 10.15 L14.2 10.25 14.05 10.45 13.85 10.6 13.5 9.0 12.65 9.2 12.6 9.15 12.55 9.35 11.5 7.15 11.6 7.0 12.2 6.9 12.9 8.05 12.3 7.0 14.25 10.15 M10.45 10.8 L9.4 10.2 9.35 10.15 9.1 9.5 9.05 9.55 8.85 9.5 8.65 9.5 8.4 9.5 8.1 9.3 7.8 9.25 7.6 9.25 7.5 9.2 7.45 9.15 7.45 9.05 6.7 8.7 6.85 8.55 7.05 8.25 7.5 7.7 7.85 7.2 7.95 7.05 7.25 5.65 7.0 5.15 6.7 4.45 7.3 4.6 6.9 4.45 7.35 4.55 7.5 4.55 7.45 4.6 8.3 6.55 8.75 5.8 8.1 4.3 8.15 4.3 8.35 4.25 8.9 4.2 8.3 4.1 8.2 3.65 8.4 3.35 8.45 3.25 8.6 3.2 9.4 4.85 9.2 4.9 9.25 4.95 10.4 5.2 10.45 5.15 11.2 5.0 11.25 4.95 11.65 4.9 11.4 5.35 11.35 5.5 10.95 6.15 9.95 7.25 10.3 7.2 10.35 7.2 10.8 6.7 10.7 7.05 11.25 6.85 11.3 6.8 11.6 6.65 11.8 6.6 11.25 7.25 11.45 7.2 12.55 9.45 12.45 9.7 11.25 7.25 10.7 7.25 10.5 7.2 10.95 8.15 12.25 10.2 12.2 10.35 12.15 10.9 11.15 9.05 10.9 9.05 9.95 7.25 10.5 8.5 9.9 7.35 10.45 8.55 9.75 7.3 9.45 7.3 8.95 7.35 8.7 7.3 10.45 10.8 M8.9 3.0 L8.95 3.05 9.2 3.0 9.3 3.0 9.3 3.05 9.35 3.05 10.0 4.6 9.8 4.65 9.45 3.95 9.5 4.2 9.35 3.95 8.9 3.0 M10.75 4.2 L10.6 4.5 10.15 4.55 10.05 4.55 9.9 4.15 10.0 4.1 10.55 4.15 10.75 4.2 M10.75 4.5 L10.7 4.5 11.2 3.85 11.35 4.1 11.25 4.6 10.75 4.5 M11.9 11.25 L11.8 11.25 11.4 11.1 11.95 11.1 11.9 11.25 M9.45 3.95 L8.95 3.05 9.35 3.95 9.45 3.95 M8.75 5.75 L8.85 5.6 8.3 4.4 8.75 5.75 M8.25 9.25 L8.95 9.2 8.7 8.65 8.25 9.25" fill="#646464" fill-rule="evenodd" stroke="none"/>
    <path d="M8.6 3.2 L8.6 3.15 8.9 3.0 9.35 3.95 9.5 4.2 9.45 3.95 9.8 4.65 9.6 4.7 9.4 4.85 8.6 3.2 M12.25 10.2 L10.95 8.15 10.5 7.2 10.7 7.25 11.25 7.25 12.45 9.7 12.25 10.2 M12.15 10.9 L12.1 11.1 11.95 11.1 11.4 11.1 10.8 10.95 10.5 10.8 10.45 10.8 8.7 7.3 8.95 7.35 9.45 7.3 9.75 7.3 10.45 8.55 9.9 7.35 10.5 8.5 9.95 7.25 10.9 9.05 11.15 9.05 12.15 10.9 M8.1 4.3 L8.75 5.8 8.3 6.55 7.45 4.6 7.5 4.55 7.65 4.45 8.1 4.3 M9.45 3.95 L9.35 3.95 8.95 3.05 9.45 3.95 M8.75 5.75 L8.3 4.4 8.85 5.6 8.75 5.75" fill="#c8c8c8" fill-rule="evenodd" stroke="none"/>
    <path d="M11.95 1.8 L12.85 -1.4 11.5 3.9 11.95 1.8 M14.75 1.8 L17.85 2.25 15.3 4.4 14.2 4.5 15.4 3.45 16.7 2.25 13.65 1.8 14.75 1.8 M14.9 8.3 L13.05 6.35 12.95 6.2 12.75 6.3 12.25 6.8 14.25 10.05 14.25 10.15 12.3 7.0 12.9 8.05 12.2 6.9 11.6 7.0 11.5 7.15 12.55 9.35 12.55 9.45 11.45 7.2 11.25 7.25 11.8 6.6 11.6 6.65 11.3 6.8 11.25 6.85 10.7 7.05 12.65 5.9 11.5 3.9 11.3 4.9 11.65 4.9 11.25 4.95 11.2 5.0 10.45 5.15 10.4 5.2 9.25 4.95 9.2 4.9 9.4 4.85 9.6 4.7 9.8 4.65 10.0 4.6 9.35 3.05 9.45 3.25 9.85 4.05 10.55 4.15 10.0 4.1 9.9 4.15 10.05 4.55 10.15 4.55 10.6 4.5 10.75 4.2 11.1 3.75 10.1 2.25 11.5 3.9 14.9 8.3 M15.45 13.1 L14.55 13.5 14.55 13.45 15.45 13.1 M12.4 14.25 L10.95 14.45 11.45 12.65 11.6 13.1 12.4 14.25 M9.35 10.15 L9.15 10.3 9.4 12.55 9.05 10.4 8.3 10.6 9.2 9.85 8.65 9.5 8.85 9.5 9.05 9.55 9.1 9.5 9.35 10.15 M7.65 11.2 L6.85 11.45 6.9 10.1 7.65 11.2 M6.35 8.4 L7.05 8.25 6.85 8.55 6.35 8.4 M7.25 5.65 L6.45 5.7 7.0 5.15 7.25 5.65 M6.45 3.2 L6.4 3.25 5.85 1.95 6.8 1.75 6.45 3.2 M8.45 0.3 L8.85 1.75 10.25 2.0 10.0 2.05 9.3 2.05 7.85 1.75 8.75 1.75 8.45 0.3 M10.75 4.5 L11.25 4.6 11.35 4.1 11.2 3.85 10.7 4.5 10.75 4.5 M10.95 6.15 L10.8 6.7 10.35 7.2 10.3 7.2 9.95 7.25 10.95 6.15 M12.25 10.2 L12.45 9.7 12.55 9.45 12.15 10.9 12.2 10.35 12.25 10.2 M12.1 11.1 L11.6 13.05 11.9 11.25 11.95 11.1 12.1 11.1 M8.3 4.1 L8.9 4.2 8.35 4.25 8.15 4.3 8.1 4.3 7.65 4.45 7.5 4.55 7.35 4.55 6.9 4.45 7.3 4.6 6.7 4.45 6.65 4.4 6.65 4.3 6.8 4.2 7.05 4.1 8.3 4.1 M8.25 9.25 L8.7 8.65 8.95 9.2 8.25 9.25 M6.7 8.7 L7.45 9.05 7.45 9.15 7.5 9.2 7.15 9.0 6.7 8.75 6.7 8.7" fill="#000000" fill-rule="evenodd" stroke="none"/>
    <path d="M14.2 16.75 L12.4 14.25 11.6 13.1 11.6 13.05 12.1 11.1 12.15 10.9 12.55 9.45 12.55 9.35 12.6 9.15 12.65 9.2 14.1 11.45 12.9 10.45 13.2 11.7 15.45 13.1 11.65 13.1 13.65 13.8 14.2 16.75 M9.4 12.55 L8.7 12.75 7.65 11.2 6.9 10.1 8.3 10.6 9.05 10.4 9.4 12.55 M7.5 7.7 L7.6 7.2 7.85 7.2 7.5 7.7 M6.45 3.25 L6.45 3.2 8.2 3.65 8.3 4.1 7.05 4.1 6.45 3.25 M6.8 1.75 L7.3 -0.6 8.25 -0.55 8.45 0.3 8.75 1.75 7.85 1.75 6.45 3.2 6.8 1.75 M11.5 3.9 L12.85 -1.4 13.6 1.65 13.65 1.8 11.5 3.9 14.2 4.5 14.9 8.3 11.5 3.9 M16.7 2.25 L15.4 3.45 13.9 3.15 16.7 2.25 M7.5 9.2 L7.6 9.25 7.8 9.25 6.9 10.1 7.15 9.0 7.5 9.2" fill="#ffcc00" fill-rule="evenodd" stroke="none"/>
  </g>
</svg>
