<?xml version="1.0" encoding="UTF-8" standalone="no"?>
<svg xmlns:ffdec="https://www.free-decompiler.com/flash" xmlns:xlink="http://www.w3.org/1999/xlink" ffdec:objectType="shape" height="18.9px" width="6.25px" xmlns="http://www.w3.org/2000/svg">
  <g transform="matrix(1.0, 0.0, 0.0, 1.0, -7.6, 1.5)">
    <path d="M10.95 1.8 L9.15 3.9 12.1 2.3 13.85 2.3 12.65 4.6 11.15 4.65 11.3 6.65 10.2 6.2 9.65 4.95 9.15 3.9 9.25 3.45 9.4 3.05 9.25 3.2 9.15 3.25 9.1 3.7 9.15 3.9 9.1 4.05 8.2 4.0 7.8 3.15 9.45 2.05 9.7 2.05 9.75 1.75 9.95 1.05 10.05 0.5 10.65 -1.5 10.95 1.8 M11.25 17.4 L9.5 13.2 9.55 13.05 10.05 11.25 10.45 10.0 10.5 9.9 10.65 9.35 10.9 12.05 12.05 11.95 13.0 13.65 11.7 13.8 9.5 13.2 11.05 14.25 11.25 17.4 M9.35 12.55 L8.15 9.75 8.25 9.35 8.3 9.65 8.15 9.75 8.35 9.85 8.35 10.1 8.6 10.65 8.65 10.75 8.75 10.9 8.85 10.95 9.25 11.1 9.35 12.55 M7.8 3.15 L8.8 -0.5 9.0 1.75 7.8 3.15" fill="#7f6600" fill-rule="evenodd" stroke="none"/>
    <path d="M10.95 1.8 L12.45 1.8 12.1 -1.45 12.95 1.95 12.95 2.0 13.85 2.3 12.1 2.3 9.15 3.9 10.95 1.8 M10.05 0.5 L9.95 1.05 9.85 -0.5 10.05 0.5 M9.75 1.75 L9.7 2.05 9.45 2.05 7.8 3.15 8.2 4.0 9.1 4.05 9.15 3.9 9.1 3.7 9.15 3.25 9.25 3.2 9.25 3.45 9.15 3.9 9.65 4.95 10.2 6.2 10.45 6.75 10.25 6.85 10.0 7.1 10.0 7.25 9.9 7.2 10.0 8.2 9.85 7.2 9.95 6.9 9.7 6.05 9.65 4.95 8.9 5.05 8.8 5.05 8.5 5.1 8.15 7.2 8.1 7.15 8.15 7.3 8.6 10.65 8.35 10.1 8.35 9.85 8.15 9.75 8.3 9.65 8.25 9.35 8.2 9.0 8.05 7.8 7.9 8.9 7.85 8.85 7.7 8.4 7.95 6.85 7.6 4.3 7.65 4.2 7.8 4.1 7.85 4.1 8.1 4.05 7.8 3.15 9.0 1.75 9.75 1.75 M12.65 4.6 L13.85 2.3 13.45 3.8 12.95 8.55 12.65 4.6 M12.3 11.1 L12.85 12.85 13.0 13.65 12.75 13.8 12.4 17.25 12.25 14.15 11.05 14.25 9.5 13.2 11.7 13.8 13.0 13.65 12.05 11.95 11.8 9.3 12.3 11.1 M9.55 13.05 L9.65 12.55 9.8 11.2 10.05 11.25 9.55 13.05 M11.25 9.3 L11.0 7.85 11.1 8.0 11.3 9.3 11.25 9.3 M10.75 7.3 L10.7 7.3 10.7 7.25 10.75 7.3 M7.85 4.4 L7.75 4.5 8.0 6.4 8.05 5.9 8.2 4.9 8.4 4.75 8.6 4.65 9.3 4.55 9.2 4.15 9.05 4.15 8.55 4.25 8.3 4.25 7.95 4.35 7.85 4.4" fill="#000000" fill-rule="evenodd" stroke="none"/>
    <path d="M12.75 10.9 L12.7 10.95 12.3 11.1 11.8 9.3 11.3 9.3 11.1 8.0 11.4 8.65 11.8 8.65 11.9 8.95 12.25 8.85 12.75 10.9 M10.5 9.9 L10.05 7.3 10.3 7.35 10.7 7.3 11.05 9.35 10.65 9.35 10.5 9.9 M10.45 10.0 L10.05 11.25 9.8 11.2 9.65 11.2 9.25 11.1 8.85 10.95 8.75 10.9 8.25 7.2 9.0 7.25 9.35 7.2 9.85 7.2 10.0 8.2 10.45 10.0 M7.85 4.4 L7.95 4.35 8.3 4.25 8.55 4.25 9.05 4.15 9.2 4.15 9.3 4.55 8.6 4.65 8.4 4.75 8.2 4.9 8.05 5.9 7.9 4.55 7.85 4.4" fill="#c8c8c8" fill-rule="evenodd" stroke="none"/>
    <path d="M9.25 3.2 L9.4 3.05 9.25 3.45 9.25 3.2 M12.8 8.6 L13.25 10.45 13.2 10.6 13.1 10.75 12.75 10.9 12.25 8.85 11.9 8.95 11.8 8.65 12.8 8.6 M8.2 9.0 L7.9 8.9 8.05 7.8 8.2 9.0 M10.0 8.2 L9.9 7.2 10.0 7.25 10.0 7.1 10.25 6.85 10.45 6.75 10.7 7.25 10.7 7.3 10.75 7.3 11.0 7.85 11.25 9.3 11.05 9.35 10.7 7.3 10.3 7.35 10.05 7.3 10.5 9.9 10.45 10.0 10.0 8.2 M9.85 7.2 L9.35 7.2 9.0 7.25 8.25 7.2 8.75 10.9 8.65 10.75 8.6 10.65 8.15 7.3 8.1 7.15 8.15 7.2 8.5 5.1 8.8 5.05 8.9 5.05 9.65 4.95 9.7 6.05 9.95 6.9 9.85 7.2 M8.05 5.9 L8.0 6.4 7.75 4.5 7.85 4.4 7.9 4.55 8.05 5.9" fill="#646464" fill-rule="evenodd" stroke="none"/>
    <path d="M12.1 -1.45 L12.45 1.8 10.95 1.8 10.65 -1.5 12.1 -1.45 M9.95 1.05 L9.75 1.75 9.0 1.75 8.8 -0.5 9.85 -0.5 9.95 1.05 M10.2 6.2 L11.3 6.65 11.15 4.65 12.65 4.6 12.95 8.55 12.8 8.6 11.8 8.65 11.4 8.65 11.1 8.0 11.0 7.85 10.75 7.3 10.7 7.25 10.45 6.75 10.2 6.2 M12.4 17.25 L11.25 17.4 11.05 14.25 12.25 14.15 12.4 17.25 M9.65 12.55 L9.35 12.55 9.25 11.1 9.65 11.2 9.8 11.2 9.65 12.55 M10.65 9.35 L11.05 9.35 11.25 9.3 11.3 9.3 11.8 9.3 12.05 11.95 10.9 12.05 10.65 9.35" fill="#ffcc00" fill-rule="evenodd" stroke="none"/>
  </g>
</svg>
