<?xml version="1.0" encoding="UTF-8" standalone="no"?>
<svg xmlns:ffdec="https://www.free-decompiler.com/flash" xmlns:xlink="http://www.w3.org/1999/xlink" ffdec:objectType="shape" height="18.95px" width="5.8px" xmlns="http://www.w3.org/2000/svg">
  <g transform="matrix(1.0, 0.0, 0.0, 1.0, -6.75, 1.5)">
    <path d="M11.55 10.85 L11.55 10.9 10.95 11.15 10.55 11.25 10.3 11.25 9.9 9.85 10.2 8.35 10.4 7.2 11.15 7.25 12.0 7.2 11.55 10.85 M8.05 11.1 L7.85 11.05 7.4 10.85 8.0 8.85 8.2 8.9 8.3 8.6 8.65 8.65 9.05 8.65 8.95 9.3 8.6 9.3 8.05 11.1 M12.15 5.8 L12.1 4.85 11.9 4.75 11.75 4.65 11.1 4.55 11.2 4.2 11.35 4.2 12.0 4.3 12.05 4.3 12.25 4.35 12.35 4.4 12.35 4.5 12.15 5.8 M9.75 7.35 L10.15 7.3 9.85 9.65 9.75 9.35 9.25 9.35 9.45 7.95 9.75 7.35" fill="#c8c8c8" fill-rule="evenodd" stroke="none"/>
    <path d="M10.3 0.35 L10.7 1.75 10.75 2.05 10.8 2.05 12.4 3.15 12.0 4.0 11.5 4.0 11.25 4.05 11.2 4.2 11.15 4.15 10.8 4.95 10.8 5.0 9.95 6.85 9.75 7.35 9.45 7.95 9.1 8.65 9.35 4.65 7.8 4.6 6.75 2.3 8.55 2.3 11.3 3.9 9.55 1.8 9.8 -1.5 10.2 0.05 10.3 0.35 M11.25 1.75 L11.4 -0.5 12.4 3.15 11.25 1.75 M11.55 10.9 L10.85 12.55 10.95 11.15 11.55 10.9 M10.9 13.2 L9.2 17.45 9.35 14.3 10.9 13.2 8.8 13.8 7.5 13.65 8.4 11.95 9.55 12.05 9.75 9.35 9.85 9.65 9.9 9.85 10.3 11.25 10.9 13.2" fill="#7f6600" fill-rule="evenodd" stroke="none"/>
    <path d="M12.3 8.85 L12.3 8.9 12.15 8.95 12.05 9.0 12.15 8.0 12.2 7.8 12.3 8.85 M11.75 10.65 L11.7 10.75 11.55 10.85 12.0 7.2 11.15 7.25 10.4 7.2 10.4 7.1 10.35 7.1 10.65 6.05 10.8 5.0 10.8 4.95 11.6 5.05 11.8 5.15 12.1 7.15 12.15 7.15 12.1 7.35 11.75 10.65 M7.4 10.85 L7.2 10.75 7.05 10.5 7.55 8.4 7.55 8.6 8.3 8.6 8.2 8.9 8.0 8.85 7.4 10.85 M12.15 5.8 L12.35 4.5 12.35 4.4 12.45 4.5 12.25 6.4 12.15 5.8 M9.95 6.85 L10.2 7.0 10.15 7.05 10.2 7.05 10.25 7.25 10.35 7.2 10.2 8.35 9.9 9.85 9.85 9.65 10.15 7.3 9.75 7.35 9.95 6.85 M9.1 8.65 L9.45 7.95 9.25 9.35 9.0 9.3 9.1 8.65" fill="#646464" fill-rule="evenodd" stroke="none"/>
    <path d="M10.35 -0.5 L10.3 0.35 10.2 0.05 10.35 -0.5 M10.7 1.75 L11.25 1.75 12.4 3.15 12.1 4.0 12.45 4.15 12.55 4.25 12.3 6.85 12.45 8.4 12.3 8.85 12.2 7.8 12.15 8.0 12.05 9.0 12.0 9.65 12.0 9.75 11.95 9.8 11.95 9.95 11.75 10.65 12.1 7.35 12.15 7.15 12.1 7.15 11.8 5.15 11.6 5.05 10.8 4.95 11.15 4.15 11.2 4.2 11.25 4.05 11.5 4.0 12.0 4.0 12.4 3.15 10.8 2.05 10.75 2.05 10.7 1.75 M10.75 12.55 L10.9 13.2 10.3 11.25 10.55 11.25 10.75 12.55 M8.05 17.3 L7.65 13.75 7.5 13.65 7.55 12.9 8.05 11.1 8.6 9.3 8.4 11.95 7.5 13.65 8.8 13.8 10.9 13.2 9.35 14.3 8.2 14.15 8.05 17.3 M7.55 8.4 L7.15 5.35 7.0 5.0 7.1 4.95 6.95 3.85 6.95 3.8 6.75 2.3 7.4 2.05 8.3 -1.45 8.05 1.8 9.55 1.8 11.3 3.9 8.55 2.3 6.75 2.3 7.8 4.6 7.55 8.6 7.55 8.4 M12.35 4.4 L12.25 4.35 12.05 4.3 12.0 4.3 11.35 4.2 11.2 4.2 11.1 4.55 11.75 4.65 11.9 4.75 12.1 4.85 12.15 5.8 12.25 6.4 12.45 4.5 12.35 4.4 M10.8 5.0 L10.65 6.05 10.35 7.1 10.4 7.1 10.4 7.2 10.2 8.35 10.35 7.2 10.25 7.25 10.2 7.05 10.15 7.05 10.2 7.0 9.95 6.85 10.8 5.0 M9.05 8.65 L9.1 8.65 9.0 9.3 8.95 9.3 9.05 8.65" fill="#000000" fill-rule="evenodd" stroke="none"/>
    <path d="M10.35 -0.5 L11.4 -0.5 11.25 1.75 10.7 1.75 10.3 0.35 10.35 -0.5 M10.85 12.55 L10.75 12.55 10.55 11.25 10.95 11.15 10.85 12.55 M9.2 17.45 L8.05 17.3 8.2 14.15 9.35 14.3 9.2 17.45 M8.3 -1.45 L9.8 -1.5 9.55 1.8 8.05 1.8 8.3 -1.45 M7.8 4.6 L9.35 4.65 9.1 8.65 9.05 8.65 8.65 8.65 8.3 8.6 7.55 8.6 7.8 4.6 M9.25 9.35 L9.75 9.35 9.55 12.05 8.4 11.95 8.6 9.3 8.95 9.3 9.0 9.3 9.25 9.35" fill="#ffcc00" fill-rule="evenodd" stroke="none"/>
  </g>
</svg>
