<?xml version="1.0" encoding="UTF-8" standalone="no"?>
<svg xmlns:ffdec="https://www.free-decompiler.com/flash" xmlns:xlink="http://www.w3.org/1999/xlink" ffdec:objectType="shape" height="18.7px" width="8.65px" xmlns="http://www.w3.org/2000/svg">
  <g transform="matrix(1.0, 0.0, 0.0, 1.0, -4.45, 1.5)">
    <path d="M11.85 1.75 L12.15 -0.55 12.75 1.85 13.1 3.2 11.85 1.75 M10.1 3.95 L10.1 4.0 10.05 4.4 10.05 4.5 10.05 4.9 9.85 4.95 9.8 4.95 9.8 5.05 10.0 6.15 10.0 7.1 8.8 6.05 10.05 3.95 10.05 4.0 10.1 3.95 M10.55 3.05 L10.4 3.1 10.35 3.2 10.25 3.0 10.45 2.05 10.9 2.05 13.1 3.2 12.95 4.15 12.6 4.05 13.1 3.2 11.55 3.65 11.4 3.25 11.3 3.15 11.15 3.1 11.1 3.1 11.1 3.05 10.95 3.05 10.9 3.05 10.9 3.0 10.65 3.0 10.55 3.05 M10.05 11.15 L9.85 13.2 9.25 11.2 9.6 11.2 9.85 11.15 10.05 11.15 M5.65 13.35 L6.85 12.1 7.25 11.75 8.3 11.95 9.85 13.2 6.7 13.55 5.65 13.35 M6.1 4.25 L4.45 2.25 6.0 2.3 7.15 2.05 8.3 3.2 8.6 3.3 10.05 3.95 7.7 4.6 6.3 4.55 6.1 4.25 M12.7 9.9 L11.55 9.85 11.7 9.15 11.9 9.15 12.7 9.9" fill="#7f6600" fill-rule="evenodd" stroke="none"/>
    <path d="M11.15 -0.5 L10.8 1.75 11.85 1.75 13.1 3.2 10.9 2.05 10.45 2.05 10.25 3.0 10.35 3.2 10.4 3.1 10.55 3.05 10.05 4.4 10.1 4.0 10.1 3.95 10.2 3.75 10.15 3.45 10.05 3.95 9.55 1.85 10.0 1.95 10.5 1.8 11.15 -0.5 M12.75 1.85 L13.05 1.9 13.1 3.2 12.75 1.85 M12.95 4.15 L13.05 4.2 13.1 4.35 12.35 6.95 13.0 8.55 12.7 8.9 12.7 9.9 12.35 11.2 12.0 11.15 12.7 9.9 11.45 10.45 11.15 10.45 10.8 10.75 11.9 7.2 11.0 5.2 10.5 5.05 10.4 5.05 9.9 4.95 9.85 4.95 10.05 4.9 10.05 4.5 10.35 4.55 10.6 4.55 10.65 4.6 10.95 4.65 11.0 4.65 11.15 4.65 11.6 4.85 12.1 6.4 12.15 6.5 12.65 4.5 12.6 4.5 12.45 4.4 11.45 4.2 11.2 4.2 11.1 4.15 11.4 3.25 11.55 3.65 11.5 4.05 12.6 4.05 12.95 4.15 M10.4 12.5 L10.35 11.05 10.5 11.0 10.6 10.95 10.4 12.5 M9.85 13.2 L9.8 14.5 9.15 14.5 9.85 13.2 8.0 14.15 6.95 13.9 6.55 16.95 6.7 13.8 5.65 13.35 6.7 13.55 9.85 13.2 M6.85 12.1 L7.2 10.9 7.65 9.15 7.25 11.75 6.85 12.1 M6.45 10.3 L6.45 10.25 7.15 8.55 7.2 8.55 6.45 10.3 M5.85 8.4 L6.1 4.25 6.3 4.55 5.85 8.4 M4.45 2.25 L6.55 1.85 7.3 -1.4 6.7 1.8 8.1 1.8 10.05 3.95 8.6 3.3 8.3 3.2 7.15 2.05 6.0 2.3 4.45 2.25 M11.7 9.15 L11.55 9.85 12.7 9.9 12.45 9.05 12.5 9.05 12.6 8.95 12.1 7.7 11.7 9.15 M8.8 6.05 L10.0 7.1 9.85 7.05 9.45 6.8 9.4 6.85 9.25 6.75 8.95 6.7 9.3 7.3 9.25 7.3 9.05 7.25 8.4 9.25 8.35 9.25 8.45 8.95 9.05 7.15 8.95 7.1 8.25 7.0 8.2 7.0 8.3 6.9 8.8 6.05" fill="#000000" fill-rule="evenodd" stroke="none"/>
    <path d="M11.85 1.75 L10.8 1.75 11.15 -0.5 12.15 -0.55 11.85 1.75 M9.55 1.85 L10.05 3.95 8.8 6.05 8.3 6.9 8.2 7.0 7.2 8.55 7.15 8.55 5.85 8.4 6.3 4.55 7.7 4.6 10.05 3.95 8.1 1.8 6.7 1.8 7.3 -1.4 8.65 -1.5 9.55 1.85 M12.0 11.15 L11.2 12.65 10.4 12.5 10.6 10.95 10.7 10.85 10.8 10.75 11.15 10.45 11.45 10.45 12.7 9.9 11.9 9.15 12.3 9.1 12.45 9.05 12.7 9.9 12.0 11.15 M9.15 14.5 L7.6 17.2 6.55 16.95 6.95 13.9 8.0 14.15 9.85 13.2 9.15 14.5 M12.6 4.05 L11.5 4.05 11.55 3.65 13.1 3.2 12.6 4.05 M8.35 9.25 L8.4 9.25 8.6 9.3 8.7 9.3 9.25 11.2 9.85 13.2 8.3 11.95 7.25 11.75 7.65 9.15 8.2 9.25 8.35 9.25" fill="#ffcc00" fill-rule="evenodd" stroke="none"/>
    <path d="M10.05 4.4 L10.55 3.05 10.65 3.0 10.9 3.0 10.35 4.55 10.05 4.5 10.05 4.4 M7.2 10.9 L6.85 10.75 6.55 10.5 6.45 10.3 7.2 8.55 8.2 7.0 8.25 7.0 8.95 7.1 9.05 7.15 8.45 8.95 8.35 8.95 8.2 9.25 7.65 9.15 7.2 10.9 M11.4 3.25 L11.1 4.15 11.2 4.2 11.0 4.65 10.95 4.65 10.65 4.6 11.15 3.1 11.3 3.15 11.4 3.25 M12.6 4.5 L12.65 4.5 12.15 6.5 12.1 6.4 12.6 4.5 M9.85 4.95 L9.9 4.95 10.4 5.05 10.5 5.05 11.0 5.2 11.9 7.2 10.8 10.75 10.7 10.85 11.85 7.25 11.55 7.3 10.1 7.25 9.3 9.4 9.95 7.25 9.65 7.3 9.3 7.3 8.95 6.7 9.25 6.75 9.4 6.85 9.45 6.8 9.85 7.05 10.0 7.1 10.0 6.15 9.8 5.05 9.8 4.95 9.85 4.95 M11.7 9.15 L12.1 7.7 12.6 8.95 12.5 9.05 12.45 9.05 12.3 9.1 11.9 9.15 11.7 9.15 M10.9 3.05 L10.95 3.05 10.65 3.9 10.9 3.05 M11.1 3.05 L11.1 3.1 10.85 3.85 11.1 3.05 M8.4 9.25 L9.05 7.25 9.25 7.3 8.6 9.3 8.4 9.25" fill="#646464" fill-rule="evenodd" stroke="none"/>
    <path d="M10.35 11.05 L10.05 11.15 9.85 11.15 9.6 11.2 9.25 11.2 8.7 9.3 8.6 9.3 9.25 7.3 9.3 7.3 9.65 7.3 9.95 7.25 9.3 9.4 10.1 7.25 11.55 7.3 11.85 7.25 10.7 10.85 10.6 10.95 10.5 11.0 10.35 11.05 M11.2 4.2 L11.45 4.2 12.45 4.4 12.6 4.5 12.1 6.4 11.6 4.85 11.15 4.65 11.0 4.65 11.2 4.2 M10.65 4.6 L10.6 4.55 10.35 4.55 10.9 3.0 10.9 3.05 10.65 3.9 10.95 3.05 11.1 3.05 10.85 3.85 11.1 3.1 11.15 3.1 10.65 4.6 M8.45 8.95 L8.35 9.25 8.2 9.25 8.35 8.95 8.45 8.95" fill="#c8c8c8" fill-rule="evenodd" stroke="none"/>
  </g>
</svg>
