<?xml version="1.0" encoding="UTF-8" standalone="no"?>
<svg xmlns:ffdec="https://www.free-decompiler.com/flash" xmlns:xlink="http://www.w3.org/1999/xlink" ffdec:objectType="shape" height="18.25px" width="11.65px" xmlns="http://www.w3.org/2000/svg">
  <g transform="matrix(1.0, 0.0, 0.0, 1.0, -2.65, 1.45)">
    <path d="M12.4 1.75 L11.45 1.75 11.95 -0.5 12.9 -0.55 13.4 1.75 13.75 3.25 12.4 1.75 M13.2 4.05 L13.15 4.1 12.0 4.05 11.85 4.1 11.95 3.65 13.75 3.25 13.2 4.05 M12.4 7.2 L12.6 7.2 12.7 7.55 12.5 7.35 12.4 7.2 M12.55 11.25 L11.5 12.75 10.8 12.55 11.15 10.4 11.9 10.6 13.3 10.1 12.55 11.25 M7.95 14.3 L6.2 16.8 6.75 13.85 8.75 13.1 8.8 13.15 7.95 14.3 M6.3 11.5 L6.5 10.65 6.85 9.0 7.75 9.2 7.75 9.25 7.8 9.35 7.85 9.65 8.25 11.15 8.75 13.05 7.15 11.75 6.3 11.5 M7.55 -1.45 L7.85 -0.3 8.55 2.35 8.65 2.85 8.9 3.9 6.8 1.8 7.55 -1.45 M12.4 9.25 L12.6 9.25 12.8 9.15 Q12.95 9.1 13.05 9.0 L13.3 10.1 12.4 9.25 M5.1 3.45 L3.85 2.25 6.6 3.15 5.1 3.45 M5.55 8.35 L6.15 4.9 6.25 4.55 8.9 3.9 5.55 8.35" fill="#ffcc00" fill-rule="evenodd" stroke="none"/>
    <path d="M11.95 -0.5 L11.45 1.75 12.4 1.75 10.95 2.05 10.3 2.05 10.0 2.0 11.35 1.75 11.95 -0.5 M13.75 3.25 L13.4 1.75 14.3 1.95 13.75 3.25 M12.75 4.65 L12.8 4.6 12.75 4.55 12.15 4.35 11.8 4.25 11.3 4.2 11.85 4.1 12.0 4.05 13.15 4.1 13.2 4.05 13.5 4.25 13.55 4.35 13.35 4.8 13.15 5.15 13.45 4.5 12.75 4.65 M13.7 5.7 L12.95 5.65 13.15 5.15 13.7 5.7 M12.7 7.55 L13.2 8.3 13.75 8.35 13.35 8.5 13.5 8.7 13.05 9.0 Q12.95 9.1 12.8 9.15 L12.25 7.05 13.1 8.25 12.5 7.35 12.7 7.55 M13.3 10.1 L13.3 11.4 12.55 11.25 13.3 10.1 M10.8 12.55 L11.0 10.3 10.9 10.2 11.05 9.85 11.2 9.55 11.6 9.45 11.05 9.85 11.9 10.6 11.15 10.4 10.8 12.55 M10.7 10.3 L9.9 10.75 10.75 10.25 10.7 10.3 M8.9 12.8 L9.35 14.45 7.95 14.3 8.8 13.15 8.9 12.8 M5.85 13.55 L4.4 12.95 6.75 13.85 5.85 13.55 M6.05 10.15 L6.0 10.05 7.95 6.8 7.45 6.25 5.55 8.35 8.9 3.9 10.15 2.3 9.2 3.8 9.45 4.2 9.65 4.5 10.1 4.55 10.3 4.1 10.2 4.1 10.3 4.05 10.75 3.2 10.8 3.05 10.9 3.0 10.15 4.55 10.45 4.65 10.6 4.65 10.8 4.75 11.0 4.85 11.05 4.95 10.0 5.15 8.75 4.95 9.1 4.9 9.05 4.6 8.9 3.9 7.75 5.9 9.6 7.05 9.45 7.05 9.15 6.9 9.0 6.8 8.5 6.65 9.0 7.25 8.8 7.2 7.8 9.35 7.75 9.25 8.75 7.15 8.65 7.0 8.0 6.85 6.05 10.15 M5.1 4.45 L2.65 2.25 5.65 1.8 6.8 1.8 3.85 2.25 5.1 3.45 6.25 4.55 5.5 4.45 5.1 4.45 M7.85 -0.3 L8.4 1.55 8.4 1.8 8.55 2.35 7.85 -0.3 M9.05 4.6 L9.55 4.5 9.15 3.9 9.0 4.1 9.05 4.6 M9.2 5.75 L10.3 7.25 10.1 7.25 9.4 6.15 9.2 5.75 M9.45 6.35 L10.05 7.25 9.9 7.2 9.55 6.8 9.45 6.35 M8.1 10.15 L8.1 10.2 8.15 10.5 8.25 11.15 8.4 11.1 8.4 11.15 8.5 11.55 8.75 13.05 8.25 11.15 7.85 9.65 7.8 9.35 7.9 9.6 8.1 10.15 M11.45 8.9 L11.5 8.8 11.8 9.25 11.6 9.25 11.45 8.9 M11.6 9.25 L11.3 9.2 11.4 8.95 11.6 9.25" fill="#000000" fill-rule="evenodd" stroke="none"/>
    <path d="M12.4 1.75 L13.75 3.25 11.95 3.65 11.8 3.35 11.6 3.15 11.3 3.0 10.9 3.0 10.8 3.05 10.75 3.2 10.15 2.3 8.9 3.9 9.05 4.6 9.1 4.9 8.75 4.95 8.95 5.35 9.2 5.75 9.4 6.15 9.45 6.35 9.55 6.8 9.6 7.05 7.75 5.9 8.9 3.9 6.25 4.55 6.15 4.9 5.55 8.35 4.45 8.1 5.1 4.45 5.5 4.45 6.25 4.55 5.1 3.45 6.6 3.15 3.85 2.25 6.8 1.8 8.9 3.9 8.65 2.85 8.55 2.35 8.4 1.8 10.0 2.0 10.3 2.05 10.95 2.05 12.4 1.75 M13.15 5.15 L13.35 4.8 13.55 4.4 13.55 4.35 13.5 4.25 13.2 4.05 13.75 3.25 13.7 5.7 13.15 5.15 M13.75 8.35 L13.3 10.1 13.05 9.0 13.5 8.7 13.35 8.5 13.75 8.35 M9.8 10.85 L8.9 12.8 8.8 13.15 8.75 13.1 6.75 13.85 6.2 16.8 5.35 16.45 5.85 13.55 6.75 13.85 4.4 12.95 4.1 12.85 6.3 11.5 7.15 11.75 8.75 13.05 8.5 11.55 8.4 11.15 8.55 11.1 9.15 11.1 9.8 10.85 M5.65 1.8 L6.4 -1.35 7.55 -1.45 6.8 1.8 5.65 1.8 M12.4 9.25 L13.3 10.1 11.9 10.6 11.05 9.85 11.6 9.45 11.7 9.4 11.8 9.4 12.0 9.25 12.4 9.25" fill="#7f6600" fill-rule="evenodd" stroke="none"/>
    <path d="M12.75 4.65 L13.45 4.5 13.15 5.15 12.95 5.65 12.3 7.0 12.4 7.2 12.5 7.35 13.1 8.25 12.25 7.05 12.8 9.15 12.6 9.25 12.4 9.25 12.0 9.25 11.8 9.4 11.7 9.4 11.6 9.45 11.2 9.55 11.05 9.85 10.9 10.2 10.7 10.3 10.75 10.25 9.9 10.75 11.15 8.05 11.6 7.3 11.25 7.35 10.4 7.25 9.4 9.05 9.05 9.05 8.15 10.5 8.1 10.2 8.1 10.15 9.8 7.2 9.65 7.25 9.0 7.25 8.5 6.65 9.0 6.8 9.15 6.9 9.45 7.05 9.6 7.05 9.55 6.8 9.9 7.2 10.05 7.25 9.45 6.35 9.4 6.15 10.1 7.25 10.3 7.25 9.2 5.75 8.95 5.35 8.75 4.95 10.0 5.15 11.05 4.95 11.0 4.85 10.8 4.75 11.6 3.15 11.8 3.35 11.95 3.65 11.85 4.1 11.3 4.2 11.8 4.25 12.15 4.35 11.45 5.6 11.95 6.55 12.75 4.65 M13.35 4.8 L13.55 4.35 13.55 4.4 13.35 4.8 M6.5 10.65 L6.25 10.5 6.05 10.3 6.05 10.15 8.0 6.85 8.65 7.0 8.75 7.15 7.75 9.25 7.75 9.2 6.85 9.0 6.5 10.65 M10.2 4.1 L10.3 4.1 10.1 4.55 9.65 4.5 9.45 4.2 9.55 4.2 10.2 4.1 M9.05 4.6 L9.0 4.1 9.15 3.9 9.55 4.5 9.05 4.6 M10.45 4.65 L10.15 4.55 10.9 3.0 11.3 3.0 10.45 4.65 M8.4 11.1 L8.55 11.1 8.4 11.15 8.4 11.1 M11.45 8.9 L11.6 9.25 11.8 9.25 11.5 8.8 11.45 8.9 M11.6 9.25 L11.4 8.95 11.3 9.2 11.6 9.25 M7.8 9.35 L8.8 7.2 9.0 7.25 7.9 9.6 7.8 9.35" fill="#646464" fill-rule="evenodd" stroke="none"/>
    <path d="M12.15 4.35 L12.75 4.55 12.8 4.6 12.75 4.65 11.95 6.55 11.45 5.6 12.15 4.35 M11.3 3.0 L11.6 3.15 10.8 4.75 10.6 4.65 10.45 4.65 11.3 3.0 M9.9 10.75 L9.8 10.8 9.8 10.85 9.15 11.1 8.55 11.1 8.4 11.1 8.25 11.15 8.15 10.5 9.05 9.05 9.4 9.05 10.4 7.25 11.25 7.35 11.6 7.3 11.15 8.05 9.9 10.75 M9.0 7.25 L9.65 7.25 9.8 7.2 8.1 10.15 7.9 9.6 9.0 7.25" fill="#c8c8c8" fill-rule="evenodd" stroke="none"/>
  </g>
</svg>
