<?xml version="1.0" encoding="UTF-8" standalone="no"?>
<svg xmlns:ffdec="https://www.free-decompiler.com/flash" xmlns:xlink="http://www.w3.org/1999/xlink" ffdec:objectType="shape" height="17.65px" width="14.1px" xmlns="http://www.w3.org/2000/svg">
  <g transform="matrix(1.0, 0.0, 0.0, 1.0, -1.4, 1.35)">
    <path d="M12.9 1.75 L13.55 -0.65 14.05 1.75 14.35 3.3 13.6 4.2 12.3 4.15 12.4 3.7 14.35 3.3 12.9 1.75 M12.45 7.4 L12.5 7.2 13.2 7.35 13.2 7.4 13.4 8.4 12.45 7.4 M13.05 11.3 L11.8 12.9 11.15 12.6 11.6 10.5 12.3 10.75 13.85 10.35 13.05 11.3 M12.8 9.3 L13.55 9.05 13.85 10.35 12.8 9.3 M5.7 1.8 L6.65 -1.35 7.75 3.7 7.75 3.85 5.7 1.8 M7.75 3.85 L7.75 3.9 4.2 8.05 5.05 4.4 2.2 2.2 7.75 3.85 M6.95 9.0 L7.35 10.95 7.8 12.95 3.65 12.65 5.0 12.05 6.2 11.5 6.95 9.0 M5.1 16.3 L5.7 13.5 7.8 12.95 5.1 16.3" fill="#ffcc00" fill-rule="evenodd" stroke="none"/>
    <path d="M12.0 1.75 L12.9 1.75 10.95 2.05 12.05 3.3 11.95 3.3 11.75 3.15 11.55 3.05 11.3 3.0 10.2 4.75 10.4 4.85 8.85 5.1 8.25 4.95 8.05 4.95 10.35 7.3 9.6 7.2 9.55 7.15 9.15 6.75 9.2 7.05 8.75 6.05 8.65 5.95 7.8 4.85 8.2 4.85 7.8 3.85 10.1 2.05 10.1 2.0 10.2 2.0 12.0 1.75 M10.0 4.15 L10.5 4.1 11.1 3.15 10.1 2.05 8.75 3.7 9.4 4.45 9.6 4.5 9.8 4.25 10.0 4.15 9.75 4.55 10.0 4.6 10.15 4.7 10.5 4.15 10.0 4.15 M14.35 3.3 L14.05 1.75 15.5 1.95 14.35 3.45 14.35 3.3 13.75 4.2 13.9 4.3 13.95 4.4 13.9 4.45 12.8 4.6 12.5 4.45 12.25 4.35 12.2 4.35 11.5 4.2 12.25 4.15 12.3 4.15 13.6 4.2 14.35 3.3 M12.35 3.65 L12.4 3.7 12.35 3.7 12.35 3.65 M12.8 9.3 L13.85 8.9 12.2 7.15 12.2 7.1 12.45 7.4 13.4 8.4 13.2 7.4 13.5 8.5 13.55 8.55 14.15 8.45 14.8 8.6 13.8 8.8 13.9 8.95 13.65 9.05 13.85 10.35 13.55 9.05 12.8 9.3 M13.35 5.3 L13.55 4.95 14.65 5.85 13.9 5.75 13.35 5.3 M13.9 10.25 L14.15 11.7 13.25 11.4 13.05 11.3 13.85 10.35 13.9 10.25 M11.6 10.5 L10.6 9.75 10.65 9.6 11.05 9.45 10.85 9.25 10.95 9.1 11.45 9.65 11.95 9.55 11.15 9.9 11.25 9.9 12.3 10.75 11.6 10.5 M10.35 10.2 L10.3 10.25 9.75 10.45 8.3 12.4 8.95 14.35 7.1 14.0 5.1 16.3 7.8 12.95 9.75 10.45 8.75 10.8 8.95 10.7 9.75 10.45 10.35 10.2 M5.75 10.05 L5.75 9.85 6.05 9.4 5.95 9.8 5.75 10.05 M6.45 8.85 L8.1 6.75 8.0 6.65 6.65 6.0 6.35 6.3 4.2 8.05 7.75 3.9 7.75 3.85 7.8 3.85 6.9 5.8 9.1 7.0 8.9 6.9 8.75 6.85 8.35 6.65 8.2 6.65 8.75 7.2 8.55 7.15 7.15 9.5 7.2 9.7 7.35 10.05 7.4 10.15 7.35 10.95 6.95 9.0 7.1 9.45 8.55 7.1 8.2 6.8 6.85 8.6 6.8 8.7 6.6 8.9 6.45 8.85 M4.2 4.3 L1.4 2.2 4.85 1.8 5.7 1.8 2.2 2.2 5.05 4.4 4.2 4.3 M6.65 -1.35 L7.7 1.8 7.75 3.7 6.65 -1.35 M10.5 7.35 L10.35 7.3 8.45 5.15 10.5 7.35 M12.4 9.4 L12.2 9.4 11.45 9.25 11.1 8.8 11.45 8.2 12.4 9.4 M8.55 4.55 L9.35 4.45 8.7 3.8 8.4 4.1 8.55 4.55 M7.75 11.0 L7.8 12.95 7.35 10.95 7.75 11.0 M5.55 11.15 L6.2 11.5 5.0 12.05 5.55 11.15" fill="#000000" fill-rule="evenodd" stroke="none"/>
    <path d="M10.0 4.15 L10.5 4.15 10.15 4.7 10.0 4.6 9.75 4.55 10.0 4.15 M9.55 7.15 L9.6 7.2 10.35 7.3 8.05 4.95 8.25 4.95 8.85 5.1 10.4 4.85 10.2 4.75 11.3 3.0 11.55 3.05 10.4 4.85 10.45 4.95 10.5 5.0 10.75 5.35 12.05 3.3 11.0 4.8 11.95 3.3 12.05 3.3 12.35 3.65 12.35 3.7 12.25 4.15 11.5 4.2 12.2 4.35 12.25 4.35 12.5 4.45 11.35 6.15 11.7 6.6 12.85 4.65 12.8 4.6 13.9 4.45 13.55 4.95 13.35 5.3 12.2 7.1 12.2 7.15 13.85 8.9 12.8 9.3 12.6 9.4 12.4 9.4 12.35 9.45 12.1 9.55 11.95 9.55 11.45 9.65 10.95 9.1 10.85 9.25 10.65 9.6 10.6 9.75 10.35 10.2 9.75 10.45 8.95 10.7 11.2 7.35 10.5 7.35 8.45 5.15 10.35 7.3 10.5 7.35 9.35 9.1 9.15 9.05 7.8 11.0 7.75 11.0 7.35 10.95 7.4 10.15 7.35 10.05 9.25 7.7 9.45 7.4 9.55 7.15 M5.85 10.2 L5.75 10.05 5.95 9.8 5.85 10.2 M12.4 9.4 L11.45 8.2 11.1 8.8 11.45 9.25 12.2 9.4 12.4 9.4 M8.55 4.55 L8.4 4.1 8.7 3.8 9.35 4.45 8.55 4.55 M8.75 7.2 L8.2 6.65 8.35 6.65 8.75 6.85 8.9 6.9 9.1 7.0 9.3 7.2 8.75 7.2 7.2 9.7 7.15 9.5 8.55 7.15 8.75 7.2 M6.6 8.9 L6.8 8.7 6.85 8.6 8.2 6.8 8.55 7.1 7.1 9.45 6.95 9.0 6.6 8.9" fill="#646464" fill-rule="evenodd" stroke="none"/>
    <path d="M12.9 1.75 L12.0 1.75 12.7 -0.55 13.55 -0.65 12.9 1.75 14.35 3.3 12.4 3.7 12.3 4.15 12.25 4.15 12.35 3.7 12.4 3.7 12.35 3.65 12.05 3.3 10.95 2.05 12.9 1.75 M10.1 2.0 L10.1 2.05 7.8 3.85 8.2 4.85 7.8 4.85 8.65 5.95 8.75 6.05 9.2 7.05 9.1 7.0 6.9 5.8 7.8 3.85 7.75 3.85 2.2 2.2 5.7 1.8 7.75 3.85 7.75 3.7 7.7 1.8 10.1 2.0 M13.9 4.45 L13.95 4.4 13.9 4.3 13.75 4.2 14.35 3.3 14.35 3.45 14.65 5.85 13.55 4.95 13.9 4.45 M14.8 8.6 L13.9 10.25 13.85 10.35 13.65 9.05 13.9 8.95 13.8 8.8 14.8 8.6 M5.1 16.3 L4.45 15.85 5.05 13.2 3.65 12.65 3.0 12.25 5.55 11.15 5.85 10.2 5.95 9.8 6.05 9.4 6.25 8.8 6.45 8.85 6.6 8.9 6.95 9.0 6.2 11.5 5.55 11.15 5.0 12.05 3.65 12.65 7.8 12.95 5.7 13.5 5.1 16.3 M4.2 8.05 L3.45 7.85 4.2 4.3 5.05 4.4 4.2 8.05 M4.85 1.8 L5.75 -1.25 6.65 -1.35 5.7 1.8 4.85 1.8 M7.8 11.0 L8.2 10.95 8.4 10.95 8.75 10.8 9.75 10.45 7.8 12.95 7.75 11.0 7.8 11.0 M12.4 9.4 L12.6 9.4 12.8 9.3 13.85 10.35 12.3 10.75 11.25 9.9 11.15 9.9 11.95 9.55 12.1 9.55 12.35 9.45 12.4 9.4" fill="#7f6600" fill-rule="evenodd" stroke="none"/>
    <path d="M9.2 7.05 L9.15 6.75 9.55 7.15 9.45 7.4 9.25 7.7 7.35 10.05 7.2 9.7 8.75 7.2 9.3 7.2 9.1 7.0 9.2 7.05 M11.55 3.05 L11.75 3.15 11.95 3.3 11.0 4.8 12.05 3.3 10.75 5.35 10.5 5.0 10.45 4.95 10.4 4.85 11.55 3.05 M12.5 4.45 L12.8 4.6 12.85 4.65 11.7 6.6 11.35 6.15 12.5 4.45 M10.5 7.35 L11.2 7.35 8.95 10.7 8.75 10.8 8.4 10.95 8.2 10.95 7.8 11.0 9.15 9.05 9.35 9.1 10.5 7.35" fill="#c8c8c8" fill-rule="evenodd" stroke="none"/>
  </g>
</svg>
