<?xml version="1.0" encoding="UTF-8" standalone="no"?>
<svg xmlns:ffdec="https://www.free-decompiler.com/flash" xmlns:xlink="http://www.w3.org/1999/xlink" ffdec:objectType="shape" height="16.9px" width="15.9px" xmlns="http://www.w3.org/2000/svg">
  <g transform="matrix(1.0, 0.0, 0.0, 1.0, -0.75, 1.25)">
    <path d="M14.8 3.35 L13.3 1.75 13.35 1.65 14.15 -0.7 14.8 3.35 14.0 4.25 12.55 4.2 12.7 3.75 12.4 3.45 12.25 3.35 10.95 2.05 14.8 3.35 M9.5 10.4 L9.35 10.55 6.95 12.7 7.25 10.8 7.35 10.8 8.25 10.7 8.35 10.7 8.55 10.55 9.5 10.4 M12.15 9.65 L12.4 9.65 12.75 9.55 12.7 9.5 14.05 9.2 14.25 10.6 14.1 10.75 12.0 13.05 12.6 10.9 14.25 10.6 11.25 10.0 12.15 9.65 M13.4 8.4 L13.75 7.5 14.0 8.95 13.4 8.4 M3.3 7.8 L4.15 4.3 1.15 2.2 4.9 1.8 5.9 -1.25 6.75 3.8 6.75 3.85 3.3 7.8 M6.3 8.85 L6.6 10.7 6.95 12.7 4.25 15.65 4.95 13.05 6.95 12.7 2.7 12.05 5.5 11.15 6.3 8.85" fill="#ffcc00" fill-rule="evenodd" stroke="none"/>
    <path d="M14.15 -0.7 L13.35 1.65 13.3 1.75 14.8 3.35 15.6 6.0 13.9 4.9 14.05 4.7 14.2 4.5 14.2 4.35 14.8 3.35 10.95 2.05 13.3 1.75 12.55 1.75 13.35 -0.6 14.15 -0.7 M14.75 1.75 L16.65 1.95 14.8 3.35 14.75 1.75 M12.9 8.0 L13.15 7.35 13.75 7.5 13.4 8.4 12.9 8.0 M14.95 12.05 L13.55 11.5 14.1 10.75 14.25 10.6 14.25 9.2 14.2 9.15 14.25 9.15 14.25 9.1 15.75 8.9 14.25 10.6 14.95 12.05 M12.0 13.05 L11.45 12.75 12.05 10.65 12.6 10.9 11.25 10.0 14.25 10.6 12.6 10.9 12.0 13.05 M7.85 12.25 L8.6 14.2 6.5 13.7 6.95 12.7 7.85 12.25 M4.45 12.85 L2.7 12.05 6.95 12.7 6.6 10.7 6.3 8.85 6.5 9.25 6.6 9.45 6.65 9.5 6.75 9.7 6.8 9.85 6.85 9.95 6.6 10.7 6.65 10.7 7.25 10.8 6.95 12.7 4.95 13.05 4.25 15.65 4.5 12.85 4.45 12.85 M5.05 10.8 L5.85 8.55 6.3 8.85 5.5 11.15 5.05 10.8 M6.15 5.75 L5.8 5.95 3.3 7.8 6.75 3.85 7.45 4.8 7.0 4.8 8.2 6.0 8.9 7.0 8.6 6.85 7.85 6.5 6.2 5.7 6.15 5.75 M5.9 -1.25 L7.15 1.8 10.0 2.05 Q8.45 2.9 6.85 3.7 L6.8 3.8 6.75 3.8 5.9 -1.25" fill="#7f6600" fill-rule="evenodd" stroke="none"/>
    <path d="M14.8 3.35 L14.15 -0.7 14.75 1.75 14.8 3.35 16.65 1.95 15.15 3.6 15.6 6.0 14.85 5.85 13.7 5.1 14.05 4.7 14.1 4.6 14.2 4.5 14.05 4.7 13.9 4.9 15.6 6.0 14.8 3.35 14.2 4.35 14.2 4.5 12.65 4.6 12.55 4.55 12.45 4.5 11.6 4.25 11.8 4.25 12.55 4.2 14.0 4.25 14.8 3.35 M12.05 7.15 L12.9 8.0 13.4 8.4 14.0 8.95 13.75 7.5 14.15 8.8 15.15 8.7 15.75 8.9 14.55 10.35 14.95 12.05 14.25 10.6 15.75 8.9 14.25 9.1 14.25 9.15 14.2 9.15 14.25 9.2 14.25 10.6 14.05 9.2 12.7 9.5 12.8 9.45 14.15 9.15 12.0 7.2 12.05 7.15 M13.55 11.5 L12.0 13.05 14.1 10.75 13.55 11.5 M12.05 10.65 L10.7 9.75 11.3 9.55 10.6 8.9 10.65 8.85 11.65 9.7 11.9 9.7 12.15 9.65 11.25 10.0 12.6 10.9 12.05 10.65 M9.35 10.35 L9.5 10.4 8.55 10.55 8.6 10.5 9.35 10.35 M9.35 10.55 L7.85 12.25 6.95 12.7 6.5 13.7 4.25 15.65 3.85 15.15 4.45 12.85 4.5 12.85 4.25 15.65 6.95 12.7 9.35 10.55 M2.7 12.05 L2.3 11.65 5.05 10.8 5.5 11.15 2.7 12.05 M6.3 8.85 L8.1 6.85 7.75 6.55 6.15 5.75 6.2 5.7 7.85 6.5 8.55 7.15 8.4 7.1 6.65 9.5 6.6 9.45 7.85 7.8 6.5 9.25 6.3 8.85 M3.3 7.8 L2.85 7.5 3.65 4.2 0.75 2.15 4.35 1.8 5.35 -1.15 5.9 -1.25 4.9 1.8 1.15 2.2 4.15 4.3 3.3 7.8 M10.0 2.05 L8.4 3.65 9.3 4.55 9.55 4.6 9.85 4.8 10.2 4.2 10.3 4.2 10.7 4.1 11.45 3.15 10.25 2.0 12.55 1.75 13.3 1.75 10.95 2.05 12.25 3.35 11.8 3.1 11.6 3.05 10.05 5.0 10.0 5.0 9.95 4.95 10.0 5.1 10.0 5.15 9.95 5.0 9.85 4.8 7.75 5.0 7.55 4.95 10.25 7.4 9.35 7.15 8.75 6.65 8.9 7.0 8.2 6.0 7.0 4.8 7.45 4.8 6.75 3.85 6.75 3.8 6.8 3.8 6.85 3.7 Q8.45 2.9 10.0 2.05 M11.25 6.45 L11.35 6.55 11.35 6.6 11.2 6.45 11.25 6.45 M10.2 5.15 L10.35 5.45 10.15 5.2 10.05 5.0 10.2 5.15 M8.25 10.6 L7.9 10.7 7.95 10.65 8.25 10.6 M11.35 7.9 L11.35 8.0 11.3 8.0 11.35 7.9 M11.2 8.05 L12.6 9.55 12.25 9.55 12.05 9.5 11.65 9.35 10.9 8.55 11.15 8.15 11.6 8.5 11.2 8.05 M8.15 3.85 L7.95 4.05 8.1 4.55 8.8 4.45 9.05 4.45 8.85 4.25 8.75 4.1 8.35 3.7 8.15 3.85" fill="#000000" fill-rule="evenodd" stroke="none"/>
    <path d="M13.7 5.1 L12.05 7.15 12.0 7.2 14.15 9.15 12.8 9.45 12.7 9.5 12.75 9.55 12.4 9.65 12.15 9.65 11.9 9.7 11.65 9.7 10.65 8.85 10.9 8.55 11.65 9.35 12.05 9.5 12.25 9.55 12.6 9.55 11.2 8.05 11.3 8.0 11.35 8.0 11.35 7.9 11.35 7.85 10.8 7.4 11.35 6.75 11.35 6.7 11.2 6.45 10.0 5.15 10.0 5.1 9.95 4.95 10.0 5.0 10.05 5.0 11.6 3.05 11.8 3.1 11.45 3.6 11.45 3.55 10.2 5.15 10.05 5.0 10.0 5.1 10.15 5.2 10.35 5.45 10.55 5.7 11.6 4.25 12.45 4.5 12.55 4.55 11.25 6.45 11.2 6.45 11.35 6.6 11.35 6.7 12.75 4.75 12.65 4.6 14.2 4.5 14.1 4.6 14.05 4.7 13.7 5.1 M9.75 10.2 L9.75 10.25 9.35 10.35 8.6 10.5 8.55 10.55 8.35 10.7 8.25 10.7 8.35 10.55 8.25 10.6 7.95 10.65 8.05 10.6 9.75 10.2 M12.55 4.2 L11.8 4.25 12.4 3.45 12.7 3.75 12.55 4.2 M9.95 5.0 L8.3 5.15 8.1 5.1 10.65 7.4 10.4 7.4 9.0 9.05 8.85 9.0 7.35 10.8 7.25 10.8 6.65 10.7 6.6 10.7 6.85 9.95 6.8 9.85 7.45 9.25 9.35 7.15 10.25 7.4 7.55 4.95 7.75 5.0 9.85 4.8 9.95 5.0 M11.15 8.15 L11.2 8.05 11.6 8.5 11.15 8.15 M8.15 3.85 L8.35 3.7 8.75 4.1 8.85 4.25 9.05 4.45 8.8 4.45 8.15 3.85 M7.85 6.5 L8.6 6.85 8.95 7.15 8.6 7.15 7.3 8.95 7.25 8.95 6.75 9.7 6.65 9.5 8.4 7.1 8.55 7.15 7.85 6.5 M6.6 9.45 L6.5 9.25 7.85 7.8 6.6 9.45" fill="#646464" fill-rule="evenodd" stroke="none"/>
    <path d="M10.6 8.9 L9.75 10.2 8.05 10.6 7.95 10.65 7.9 10.7 8.25 10.6 8.35 10.55 8.25 10.7 7.35 10.8 8.85 9.0 9.0 9.05 10.4 7.4 10.65 7.4 8.1 5.1 8.3 5.15 9.95 5.0 10.0 5.15 11.2 6.45 11.35 6.7 11.35 6.6 11.35 6.55 11.25 6.45 12.55 4.55 12.65 4.6 12.75 4.75 11.35 6.7 11.35 6.75 10.8 7.4 11.35 7.85 11.35 7.9 11.3 8.0 11.2 8.05 11.15 8.15 10.9 8.55 10.65 8.85 10.6 8.9 M11.8 4.25 L11.6 4.25 10.55 5.7 10.35 5.45 10.2 5.15 11.45 3.55 11.45 3.6 11.8 3.1 12.25 3.35 12.4 3.45 11.8 4.25 M10.05 5.0 L10.15 5.2 10.0 5.1 10.05 5.0 M9.35 7.15 L7.45 9.25 6.8 9.85 6.75 9.7 7.25 8.95 7.3 8.95 8.6 7.15 8.95 7.15 8.6 6.85 8.9 7.0 8.75 6.65 9.35 7.15 M8.8 4.45 L8.1 4.55 7.95 4.05 8.15 3.85 8.8 4.45" fill="#c8c8c8" fill-rule="evenodd" stroke="none"/>
  </g>
</svg>
