<?xml version="1.0" encoding="UTF-8" standalone="no"?>
<svg xmlns:ffdec="https://www.free-decompiler.com/flash" xmlns:xlink="http://www.w3.org/1999/xlink" ffdec:objectType="shape" height="16.15px" width="17.1px" xmlns="http://www.w3.org/2000/svg">
  <g transform="matrix(1.0, 0.0, 0.0, 1.0, -0.55, 1.15)">
    <path d="M3.75 15.0 L3.75 14.95 4.45 12.55 6.3 12.4 3.75 15.0 M14.65 -0.8 L15.1 3.4 13.6 1.75 13.65 1.65 14.65 -0.8 M10.9 2.05 L15.1 3.4 15.1 3.45 14.2 4.35 12.75 4.25 12.9 3.8 12.4 3.35 10.9 2.05 M14.25 9.45 L14.4 9.4 14.55 10.9 14.75 9.35 16.65 9.25 14.55 10.9 11.25 10.05 12.15 9.85 12.25 9.85 12.3 9.8 12.6 9.8 13.45 9.6 13.45 9.55 14.25 9.45 M14.2 7.7 L14.4 9.35 13.7 8.75 14.2 7.7 M14.55 10.9 L12.15 13.25 12.85 11.1 14.55 10.9 M0.65 2.15 L4.35 1.8 4.35 1.75 5.45 -1.15 6.0 3.75 6.35 2.7 8.3 1.9 8.0 2.85 6.0 3.75 2.75 7.45 3.6 4.2 4.8 3.95 3.35 2.95 0.65 2.15 M8.0 10.55 L8.15 10.5 8.2 10.45 8.3 10.45 9.3 10.35 6.3 12.4 6.8 10.6 6.85 10.6 6.95 10.55 6.9 10.6 8.0 10.55 M6.3 12.4 L2.2 11.45 5.05 10.8 5.85 8.6 6.05 10.45 6.3 12.4" fill="#ffcc00" fill-rule="evenodd" stroke="none"/>
    <path d="M15.35 1.75 L17.65 2.0 15.15 3.4 15.1 3.45 16.35 6.2 14.35 5.0 15.1 3.45 15.1 3.4 15.35 1.75 M13.35 8.25 L13.7 7.45 14.2 7.7 13.7 8.75 13.65 8.7 13.65 8.55 13.35 8.25 M15.6 12.5 L14.0 11.8 14.55 10.9 12.85 11.1 12.15 13.25 11.7 12.85 12.4 10.8 11.25 10.05 14.55 10.9 15.6 12.5 M7.55 12.0 L8.35 14.05 6.1 13.35 6.3 12.4 7.55 12.0 M4.2 12.4 L2.2 11.45 6.3 12.4 6.05 10.45 5.85 8.6 6.1 9.0 6.3 9.4 6.35 9.6 6.4 9.65 6.45 9.7 6.4 9.8 6.1 10.45 6.05 10.45 6.45 10.55 6.8 10.55 6.85 10.6 6.8 10.6 6.3 12.4 4.45 12.55 4.2 12.4 M7.5 6.4 L5.75 5.55 2.75 7.45 6.0 3.75 8.0 2.85 8.3 1.9 6.35 2.7 6.0 3.75 5.45 -1.15 6.7 1.75 8.3 1.9 9.85 2.05 9.8 2.1 8.15 3.55 8.1 3.6 7.9 3.7 7.6 4.0 7.75 4.5 7.2 4.6 6.75 4.75 6.45 4.7 8.5 6.6 8.5 6.65 8.6 6.95 8.4 6.85 7.75 6.5 7.5 6.4 M3.4 4.05 L0.6 2.15 0.65 2.15 3.35 2.95 4.8 3.95 3.6 4.2 3.4 4.05 M13.05 1.75 L14.0 -0.65 14.65 -0.8 13.65 1.65 13.6 1.75 15.1 3.4 10.9 2.05 13.6 1.75 13.05 1.75" fill="#7f6600" fill-rule="evenodd" stroke="none"/>
    <path d="M14.65 -0.8 L15.3 1.5 15.35 1.75 15.1 3.4 14.65 -0.8 M17.65 2.0 L15.85 3.65 16.35 6.2 15.75 6.05 14.2 5.1 13.05 5.9 12.9 6.0 14.1 4.7 14.2 4.7 14.35 4.5 12.45 4.65 12.2 4.5 11.65 4.3 12.75 4.25 14.2 4.35 15.1 3.45 15.15 3.4 17.65 2.0 M12.0 7.0 L13.35 8.25 13.65 8.55 13.65 8.7 13.7 8.75 14.4 9.35 14.2 7.7 14.7 9.1 16.1 9.0 16.65 9.25 15.15 10.7 15.6 12.5 14.55 10.9 16.65 9.25 14.75 9.35 14.55 10.9 14.4 9.4 14.25 9.45 14.2 9.4 14.3 9.4 11.75 7.3 11.8 7.2 13.65 8.7 11.95 7.05 12.0 7.0 M14.0 11.8 L12.15 13.25 14.55 10.9 14.0 11.8 M11.25 10.05 L10.85 9.8 11.5 9.65 10.4 8.7 10.35 8.65 10.45 8.6 10.55 8.5 10.45 8.6 11.9 9.85 12.15 9.85 12.1 9.8 12.2 9.8 12.25 9.85 12.15 9.85 11.25 10.05 M9.15 10.2 L9.3 10.35 7.55 12.0 6.3 12.4 9.3 10.35 8.3 10.45 8.4 10.3 9.15 10.2 M6.1 13.35 L3.75 15.0 6.3 12.4 6.1 13.35 M3.75 14.95 L3.6 14.5 4.2 12.4 4.45 12.55 3.75 14.95 M2.2 11.45 L2.1 11.05 4.8 10.45 5.6 8.3 5.85 8.6 5.05 10.8 2.2 11.45 M6.1 9.0 L8.2 7.0 7.5 6.4 7.75 6.5 8.4 7.1 8.25 7.05 6.3 9.4 6.1 9.0 M2.75 7.45 L2.6 7.2 3.4 4.05 3.6 4.2 2.75 7.45 M0.6 2.15 L0.55 2.1 4.1 1.75 5.15 -1.05 5.45 -1.15 4.35 1.75 4.35 1.8 0.65 2.15 0.6 2.15 M8.15 3.55 L9.8 5.05 9.9 4.95 10.0 4.95 9.85 5.1 9.95 5.2 9.95 5.25 8.1 3.6 8.15 3.55 M10.0 5.05 L10.7 4.2 10.75 4.2 11.7 3.15 10.4 2.0 13.05 1.75 13.6 1.75 10.9 2.05 12.4 3.35 12.0 3.1 11.85 3.05 10.05 5.1 10.0 5.05 M10.95 6.55 L10.95 6.65 9.35 5.0 9.35 4.95 9.3 4.95 9.3 4.8 10.0 5.55 10.35 5.9 10.8 6.35 10.95 6.55 M10.2 5.2 L10.2 5.35 10.1 5.2 10.05 5.1 10.2 5.2 M15.1 3.45 L14.35 5.0 16.35 6.2 15.1 3.45 M12.55 9.7 L12.65 9.6 12.7 9.65 12.55 9.7 12.5 9.7 12.15 9.65 11.9 9.55 11.75 9.5 11.7 9.45 10.65 8.35 10.85 8.1 12.45 9.65 11.65 8.8 12.55 9.7 M7.75 4.5 L8.7 4.4 8.8 4.4 9.1 4.6 9.3 4.8 7.0 4.95 9.95 7.4 9.15 7.15 8.55 6.65 8.5 6.6 6.45 4.7 6.75 4.75 7.2 4.6 7.75 4.5 M8.8 7.45 L6.4 9.8 6.45 9.7 6.4 9.65 6.5 9.6 8.8 7.45" fill="#000000" fill-rule="evenodd" stroke="none"/>
    <path d="M13.05 5.9 L12.0 7.0 11.95 7.05 13.65 8.7 11.8 7.2 11.75 7.3 14.3 9.4 14.2 9.4 14.25 9.45 13.45 9.55 12.7 9.65 12.65 9.6 12.55 9.7 11.65 8.8 12.45 9.65 10.85 8.1 10.65 8.35 10.55 8.45 11.7 9.45 11.75 9.5 11.9 9.55 12.2 9.8 12.1 9.8 12.15 9.85 11.9 9.85 10.45 8.6 10.55 8.5 10.45 8.6 10.55 8.45 10.95 7.95 12.65 9.6 14.2 9.4 11.65 7.3 12.9 6.0 13.05 5.9 M10.4 8.7 L9.15 10.2 8.4 10.3 8.3 10.45 8.2 10.45 8.15 10.5 8.0 10.55 8.2 10.35 6.95 10.5 6.8 10.55 6.45 10.55 6.05 10.45 6.1 10.45 6.4 9.8 8.8 7.45 9.15 7.15 9.95 7.4 7.0 4.95 9.3 4.8 9.1 4.6 8.8 4.4 8.7 4.4 7.9 3.7 8.1 3.6 9.95 5.25 9.95 5.2 9.85 5.1 10.0 4.95 10.0 5.05 10.05 5.1 11.85 3.05 12.0 3.1 10.2 5.2 10.05 5.1 10.0 5.2 9.95 5.25 10.0 5.3 10.0 5.55 9.3 4.8 9.3 4.95 9.35 4.95 9.35 5.0 10.95 6.65 11.0 6.75 9.3 5.0 9.3 4.95 7.35 5.05 10.15 7.45 10.05 7.4 6.95 10.5 7.3 10.4 9.15 10.15 10.4 8.7 M11.65 4.3 L12.2 4.5 12.45 4.65 14.35 4.5 14.2 4.7 14.1 4.7 12.55 4.8 12.5 4.7 10.95 6.55 10.8 6.35 10.35 5.9 11.65 4.3 M10.2 5.35 L10.25 5.6 10.15 5.5 10.1 5.2 10.2 5.35 M6.3 9.4 L8.25 7.05 8.4 7.1 7.75 6.5 8.4 6.85 8.65 7.1 8.45 7.1 6.35 9.6 6.3 9.4" fill="#646464" fill-rule="evenodd" stroke="none"/>
    <path d="M12.4 3.35 L12.9 3.8 12.75 4.25 11.65 4.3 10.35 5.9 10.0 5.55 10.0 5.3 9.95 5.25 10.0 5.2 10.05 5.1 10.1 5.2 10.15 5.5 10.25 5.6 10.2 5.35 10.2 5.2 12.0 3.1 12.4 3.35 M14.1 4.7 L12.9 6.0 11.65 7.3 14.2 9.4 12.65 9.6 10.95 7.95 10.55 8.45 10.45 8.6 10.35 8.65 10.4 8.7 9.15 10.15 7.3 10.4 6.95 10.5 10.05 7.4 10.15 7.45 7.35 5.05 9.3 4.95 9.3 5.0 11.0 6.75 10.95 6.65 10.95 6.55 12.5 4.7 12.55 4.8 14.1 4.7 M12.55 9.7 L12.7 9.65 13.45 9.55 13.45 9.6 12.6 9.8 12.3 9.8 12.25 9.85 12.2 9.8 11.9 9.55 12.15 9.65 12.5 9.7 12.55 9.7 M11.7 9.45 L10.55 8.45 10.65 8.35 11.7 9.45 M8.7 4.4 L7.75 4.5 7.6 4.0 7.9 3.7 8.7 4.4 M8.5 6.6 L8.55 6.65 9.15 7.15 8.8 7.45 6.5 9.6 6.4 9.65 6.35 9.6 8.45 7.1 8.65 7.1 8.4 6.85 8.6 6.95 8.5 6.65 8.5 6.6 M6.8 10.55 L6.95 10.5 8.2 10.35 8.0 10.55 6.9 10.6 6.95 10.55 6.85 10.6 6.8 10.55" fill="#c8c8c8" fill-rule="evenodd" stroke="none"/>
  </g>
</svg>
