<?xml version="1.0" encoding="UTF-8" standalone="no"?>
<svg xmlns:ffdec="https://www.free-decompiler.com/flash" xmlns:xlink="http://www.w3.org/1999/xlink" ffdec:objectType="shape" height="15.4px" width="17.95px" xmlns="http://www.w3.org/2000/svg">
  <g transform="matrix(1.0, 0.0, 0.0, 1.0, -0.6, 1.05)">
    <path d="M14.95 -0.85 L15.8 1.75 18.55 2.0 16.4 3.75 17.0 6.45 14.65 5.1 14.6 5.15 12.2 6.6 14.4 4.6 14.4 4.55 14.45 4.4 14.4 4.45 14.3 4.45 15.25 3.5 14.95 -0.85 M14.15 7.65 L14.5 7.9 15.05 9.35 15.15 9.65 14.75 11.25 12.95 11.3 12.65 11.1 11.25 10.15 14.75 11.25 14.5 7.9 13.95 9.0 13.95 8.8 13.9 8.7 13.85 8.7 14.15 7.65 M15.65 11.1 L16.15 13.0 14.25 12.15 14.75 11.25 15.65 11.1 M9.15 10.3 L7.35 11.75 7.3 11.8 8.15 13.85 5.9 12.95 3.55 14.35 5.85 12.05 9.15 10.3 M4.15 12.0 L2.1 10.85 5.85 12.05 4.25 12.05 4.15 12.0 M7.6 6.45 L5.45 5.4 2.6 7.1 3.0 5.6 3.95 5.45 5.35 3.8 5.4 3.65 6.35 4.65 6.0 4.65 6.85 5.35 8.25 6.5 8.4 6.85 8.25 6.8 7.75 6.55 7.6 6.45 M3.4 4.05 L0.6 2.1 5.4 3.65 5.25 3.75 3.4 4.05 M5.15 -1.05 L6.45 1.75 5.95 2.7 5.3 1.3 5.15 -1.05 M9.7 2.05 L7.95 3.45 7.9 3.5 7.8 3.6 7.35 3.95 7.5 4.4 6.7 4.55 6.4 3.8 5.4 3.65 9.7 2.05" fill="#7f6600" fill-rule="evenodd" stroke="none"/>
    <path d="M12.5 3.4 L10.8 2.05 13.8 1.75 14.0 1.4 14.95 -0.85 15.25 3.5 14.3 4.45 12.85 4.3 13.05 3.85 12.5 3.4 M3.0 5.6 L3.4 4.05 5.25 3.75 5.4 3.65 0.6 2.1 4.1 1.75 4.2 1.55 5.15 -1.05 5.3 1.3 5.95 2.7 6.45 1.75 9.7 2.05 5.4 3.65 6.4 3.8 6.7 4.55 6.35 4.65 5.4 3.65 5.35 3.8 3.95 5.45 3.0 5.6 M14.2 9.7 L14.5 9.7 14.55 9.65 14.55 9.6 14.45 9.45 13.9 9.0 13.95 9.0 14.5 7.9 14.75 11.25 11.25 10.15 12.2 9.95 12.25 10.0 12.3 10.0 12.35 9.95 12.45 10.0 12.65 10.0 13.5 9.85 13.65 9.85 13.7 9.7 14.2 9.7 M6.4 10.3 L6.55 10.25 6.6 10.35 7.75 10.35 8.0 10.3 8.2 10.3 9.15 10.3 5.85 12.05 3.55 14.35 4.25 12.05 5.85 12.05 2.1 10.85 4.8 10.4 5.6 8.35 6.2 9.4 6.2 9.45 6.2 9.5 5.75 10.15 5.8 10.2 5.9 10.25 5.95 10.25 6.15 10.3 6.4 10.3 M15.15 9.65 L17.35 9.7 14.75 11.25 15.15 9.65 M12.95 11.3 L14.75 11.25 12.2 13.45 12.95 11.3" fill="#ffcc00" fill-rule="evenodd" stroke="none"/>
    <path d="M10.55 4.65 L11.9 3.15 10.55 2.0 13.4 1.75 14.5 -0.75 14.95 -0.85 14.0 1.4 13.8 1.75 10.8 2.05 12.5 3.4 12.15 3.2 12.0 3.1 10.55 4.65 M17.0 6.45 L16.5 6.25 14.6 5.15 14.65 5.1 17.0 6.45 M12.2 6.6 L11.95 6.85 13.7 8.55 14.15 7.65 13.85 8.7 11.9 6.9 11.75 7.05 11.6 7.15 13.9 9.0 14.45 9.45 14.55 9.6 14.55 9.65 14.5 9.7 14.2 9.7 14.35 9.65 11.45 7.3 11.35 7.35 14.15 4.75 14.4 4.6 12.15 4.7 11.95 4.5 10.4 6.25 10.55 6.55 8.8 4.85 8.8 4.75 6.4 4.85 6.55 4.9 9.6 7.4 9.25 7.3 5.9 10.25 5.8 10.2 5.75 10.15 6.2 9.5 6.2 9.45 8.95 7.05 8.25 6.5 6.85 5.35 6.0 4.65 6.35 4.65 6.7 4.55 7.5 4.4 8.6 4.4 10.15 5.95 11.65 4.3 12.85 4.3 14.3 4.45 14.4 4.45 14.45 4.4 14.4 4.55 14.4 4.6 12.2 6.6 M15.05 9.35 L16.9 9.4 17.35 9.7 15.65 11.1 14.75 11.25 17.35 9.7 15.15 9.65 15.05 9.35 M14.25 12.15 L12.2 13.45 11.95 13.0 12.65 11.1 12.95 11.3 12.2 13.45 14.75 11.25 14.25 12.15 M11.25 10.15 L11.0 9.85 11.65 9.75 10.15 8.45 10.2 8.4 12.0 9.95 12.2 9.95 11.25 10.15 M8.75 10.0 L9.0 10.0 9.15 10.3 8.2 10.3 8.3 10.15 8.6 10.15 8.75 10.0 M7.35 11.75 L8.15 13.85 7.3 11.8 7.35 11.75 M3.55 14.35 L3.6 13.85 4.15 12.0 4.25 12.05 3.55 14.35 M2.1 10.85 L2.2 10.45 4.8 10.05 5.6 8.1 6.05 9.0 7.1 8.1 8.15 6.95 7.6 6.45 7.75 6.55 8.3 7.0 8.2 7.0 6.15 9.25 6.2 9.4 5.6 8.35 4.8 10.4 2.1 10.85 M7.95 3.45 L9.8 5.05 9.95 4.95 10.0 4.95 10.05 5.1 10.1 5.2 10.0 5.1 10.0 4.95 9.85 5.1 9.9 5.25 7.9 3.5 7.95 3.45 M11.8 9.6 L10.35 8.2 10.5 8.05 12.3 9.85 12.35 9.8 12.6 9.8 12.75 9.9 12.3 9.85 12.15 9.85 12.1 9.8 11.9 9.65 11.8 9.6 M13.95 8.8 L13.85 8.7 13.9 8.7 13.95 8.8" fill="#000000" fill-rule="evenodd" stroke="none"/>
    <path d="M10.55 4.65 L12.0 3.1 12.15 3.2 10.15 5.25 10.15 5.5 10.0 5.4 10.0 5.15 9.9 5.25 9.95 5.45 7.8 3.6 7.9 3.5 9.9 5.25 9.85 5.1 10.0 4.95 10.0 5.1 10.1 5.2 10.05 5.1 10.55 4.65 M10.15 8.45 L8.75 10.0 8.6 10.15 8.3 10.15 8.2 10.3 8.0 10.3 8.1 10.15 6.55 10.25 6.7 10.2 8.65 10.05 10.25 8.3 11.8 9.6 11.9 9.65 12.1 9.8 12.15 9.85 12.3 10.0 12.25 10.0 12.2 9.95 12.0 9.95 10.2 8.4 10.15 8.45 M10.55 6.55 L10.4 6.25 11.95 4.5 12.15 4.7 14.4 4.6 14.15 4.75 12.25 4.8 12.2 4.75 10.55 6.55 10.55 6.7 8.8 4.9 6.75 4.95 9.7 7.4 9.6 7.4 6.4 10.3 6.15 10.3 5.95 10.25 5.9 10.25 9.25 7.3 9.6 7.4 6.55 4.9 6.4 4.85 8.8 4.75 8.8 4.85 10.55 6.55 M14.15 4.75 L11.35 7.35 11.45 7.3 14.35 9.65 14.2 9.7 13.7 9.7 12.6 9.8 12.35 9.8 12.3 9.85 10.5 8.05 10.55 8.0 12.4 9.75 14.15 9.65 11.35 7.35 11.25 7.4 14.0 4.85 14.15 4.75 M11.75 7.05 L11.9 6.9 13.85 8.7 13.95 8.8 13.95 9.0 13.9 9.0 11.75 7.05 M8.4 6.85 L8.6 7.05 8.35 7.05 6.2 9.4 6.15 9.25 8.2 7.0 8.3 7.0 7.75 6.55 8.25 6.8 8.4 6.85" fill="#646464" fill-rule="evenodd" stroke="none"/>
    <path d="M12.15 3.2 L12.5 3.4 13.05 3.85 12.85 4.3 11.65 4.3 10.15 5.95 8.6 4.4 7.5 4.4 7.35 3.95 7.8 3.6 9.95 5.45 9.9 5.25 10.0 5.15 10.0 5.4 10.15 5.5 10.15 5.25 12.15 3.2 M10.55 6.55 L12.2 4.75 12.25 4.8 14.15 4.75 14.0 4.85 11.25 7.4 11.35 7.35 14.15 9.65 12.4 9.75 10.55 8.0 10.5 8.05 10.35 8.2 11.8 9.6 10.25 8.3 8.65 10.05 6.7 10.2 6.55 10.25 6.4 10.3 9.6 7.4 9.7 7.4 6.75 4.95 8.8 4.9 10.55 6.7 10.55 6.55 M13.9 9.0 L11.6 7.15 11.75 7.05 13.9 9.0 M12.6 9.8 L13.7 9.7 13.65 9.85 13.5 9.85 12.65 10.0 12.45 10.0 12.35 9.95 12.3 10.0 12.15 9.85 12.3 9.85 12.75 9.9 12.6 9.8 M8.25 6.5 L8.95 7.05 6.2 9.45 6.2 9.4 8.35 7.05 8.6 7.05 8.4 6.85 8.25 6.5 M8.0 10.3 L7.75 10.35 6.6 10.35 6.55 10.25 8.1 10.15 8.0 10.3" fill="#c8c8c8" fill-rule="evenodd" stroke="none"/>
  </g>
</svg>
