<?xml version="1.0" encoding="UTF-8" standalone="no"?>
<svg xmlns:ffdec="https://www.free-decompiler.com/flash" xmlns:xlink="http://www.w3.org/1999/xlink" ffdec:objectType="shape" height="16.35px" width="18.15px" xmlns="http://www.w3.org/2000/svg">
  <g transform="matrix(1.0, 0.0, 0.0, 1.0, -0.95, 1.85)">
    <path d="M12.4 6.0 L12.75 5.55 11.15 7.75 11.25 7.75 13.0 11.3 12.8 11.15 11.25 11.15 11.2 11.2 10.0 8.75 9.3 10.2 9.4 10.1 8.85 11.2 8.8 11.15 7.3 11.15 7.05 11.3 8.85 7.8 8.95 7.8 8.9 7.75 6.3 4.1 5.9 3.9 8.55 3.9 8.55 4.05 9.75 6.05 9.55 5.65 10.0 6.45 11.6 4.05 11.55 3.9 14.1 3.9 13.8 4.1 12.4 6.0 12.05 6.45 12.4 6.0 M8.8 7.8 L8.85 7.8 7.75 9.85 8.65 8.05 8.8 7.8" fill="#c8c8c8" fill-rule="evenodd" stroke="none"/>
    <path d="M14.25 3.8 L14.2 3.85 14.1 3.9 14.15 3.9 13.35 5.0 11.4 7.65 11.25 7.75 11.35 7.75 12.4 9.75 12.95 10.95 13.1 11.3 13.0 11.3 11.25 7.75 11.15 7.75 12.75 5.55 12.4 6.0 13.8 4.1 14.1 3.9 11.55 3.9 11.6 4.05 10.0 6.45 9.55 5.65 9.75 6.05 8.55 4.05 8.55 3.9 5.9 3.9 6.3 4.1 8.9 7.75 8.95 7.8 8.85 7.8 7.05 11.3 7.3 11.15 8.8 11.15 8.85 11.2 9.4 10.1 9.3 10.2 10.0 8.75 11.2 11.2 11.25 11.15 12.8 11.15 13.0 11.3 12.95 11.3 11.2 11.3 10.0 9.0 8.9 11.3 7.05 11.3 7.0 11.3 7.1 11.0 7.25 10.7 7.85 9.55 7.8 9.55 8.55 8.0 8.7 7.75 8.8 7.75 5.9 3.9 5.8 3.8 8.45 3.75 8.55 3.8 8.6 3.8 10.0 6.25 11.45 3.95 11.55 3.8 14.25 3.8 M8.8 7.8 L8.65 8.05 7.75 9.85 8.85 7.8 8.8 7.8" fill="#646464" fill-rule="evenodd" stroke="none"/>
    <path d="M10.8 2.7 L11.15 3.2 10.75 2.65 10.8 2.7 M11.6 3.75 L14.3 3.75 14.25 3.8 14.3 3.8 13.35 5.0 14.4 5.45 14.45 5.5 14.0 5.35 13.35 5.05 13.3 5.1 13.25 5.2 13.2 5.25 11.4 7.7 12.4 9.75 11.35 7.75 11.25 7.75 11.4 7.65 13.35 5.0 14.15 3.9 14.1 3.9 14.2 3.85 14.25 3.8 11.55 3.8 11.45 3.95 11.55 3.75 11.55 3.8 11.6 3.75 M13.85 5.0 L13.7 4.9 15.65 4.75 16.4 3.2 16.6 3.25 15.8 4.85 13.85 5.0 M17.15 4.75 L18.85 4.9 19.1 5.0 17.15 4.85 17.15 4.75 M14.55 7.9 L14.4 7.7 14.85 7.05 15.2 6.1 15.25 6.1 14.55 7.9 M13.35 10.95 L13.75 10.25 13.85 10.5 13.15 11.85 13.1 11.85 13.2 11.7 13.35 11.4 13.35 10.95 M14.3 11.6 L16.05 11.75 16.2 12.05 14.8 13.0 13.85 13.1 16.2 12.05 14.4 11.9 14.3 11.6 M13.7 13.7 L12.05 14.5 12.0 14.15 12.5 12.85 12.65 13.0 12.05 14.5 13.85 13.1 13.7 13.7 M11.3 12.05 L11.3 11.75 11.9 11.7 12.6 11.9 11.3 12.05 M11.3 11.55 L10.85 11.45 11.3 11.5 11.3 11.55 M8.2 11.7 L8.85 11.75 8.85 12.05 7.0 11.9 6.35 10.5 6.45 10.25 6.7 10.9 6.55 9.55 6.65 10.15 6.7 10.4 6.7 10.5 6.7 10.9 6.75 11.25 7.0 11.8 7.6 11.9 8.2 11.7 M7.65 12.9 L8.15 14.15 8.1 14.5 7.5 13.0 7.65 12.9 M8.0 14.45 L6.45 13.7 6.3 13.15 5.35 13.0 3.95 12.05 4.1 11.75 5.9 11.6 5.75 11.9 3.95 12.05 6.35 13.1 6.35 13.2 8.0 14.45 M6.05 8.3 L5.95 8.1 6.1 8.35 6.05 8.3 M5.65 7.7 L5.5 7.9 4.85 6.1 5.25 7.0 5.3 7.2 5.65 7.7 M0.95 5.0 L1.25 4.9 2.95 4.75 2.9 4.85 0.95 5.0 M3.5 3.25 L3.7 3.2 4.4 4.75 6.35 4.9 6.25 5.0 4.25 4.85 3.5 3.25 M5.6 5.5 L6.7 5.05 5.75 3.75 8.45 3.75 5.8 3.8 5.9 3.9 8.8 7.75 8.7 7.75 8.55 8.0 7.8 9.55 7.85 9.55 7.25 10.7 7.2 10.65 8.65 7.7 6.9 5.3 6.85 5.25 6.75 5.1 5.45 5.6 5.6 5.5 M8.9 3.2 L9.2 2.75 9.25 2.7 8.9 3.2 M8.6 3.8 L8.7 3.85 8.7 3.9 10.0 6.15 11.4 3.95 11.45 3.95 10.0 6.25 8.6 3.8 M12.4 9.75 L12.85 10.65 12.95 10.95 12.4 9.75 M13.1 11.3 L13.1 11.35 13.0 11.3 13.1 11.3 M12.95 11.3 L11.15 11.35 11.1 11.3 11.05 11.15 10.15 9.35 10.0 9.1 9.0 11.15 8.95 11.3 8.9 11.35 7.05 11.3 8.9 11.3 10.0 9.0 11.2 11.3 12.95 11.3" fill="#000000" fill-rule="evenodd" stroke="none"/>
    <path d="M10.75 -0.05 L12.8 0.1 10.05 1.05 10.75 -0.05 M11.15 3.2 L11.6 3.75 11.55 3.8 11.55 3.75 11.45 3.95 11.4 3.95 10.0 6.15 8.7 3.9 9.2 3.4 8.7 3.85 8.6 3.8 8.55 3.8 8.45 3.75 8.55 3.75 8.9 3.2 9.4 2.65 10.0 2.25 10.75 2.65 11.15 3.2 M8.1 14.5 L8.0 14.45 6.35 13.2 6.35 13.1 3.95 12.05 5.75 11.9 6.35 13.1 6.35 10.5 7.0 11.9 8.85 12.05 6.35 13.1 7.5 13.0 8.1 14.5 M7.3 0.1 L9.35 -0.05 10.05 1.05 10.05 1.1 10.0 1.05 7.3 0.1 M12.4 9.75 L11.4 7.7 13.2 5.25 13.25 5.2 13.3 5.1 13.35 5.05 14.0 5.35 14.6 5.6 15.2 6.1 14.85 7.05 14.55 7.4 14.4 7.7 14.35 7.6 14.1 8.1 13.9 8.4 13.7 8.85 13.4 10.1 13.35 10.95 13.35 11.4 13.2 11.7 13.1 11.85 13.15 11.85 13.85 10.5 13.85 13.1 14.4 11.9 16.2 12.05 13.85 13.1 12.05 14.5 12.65 13.0 13.85 13.1 11.3 12.05 12.6 11.9 11.95 11.7 12.1 11.7 11.3 11.5 10.85 11.45 10.2 11.35 9.05 11.5 8.85 11.5 8.5 11.6 7.95 11.75 7.6 11.9 7.0 11.8 6.75 11.25 6.7 10.5 6.7 10.4 6.65 10.15 6.6 9.7 6.4 9.0 6.1 8.35 5.95 8.0 5.25 7.0 4.85 6.1 5.45 5.6 6.75 5.1 6.85 5.25 6.15 5.7 6.9 5.3 8.65 7.7 7.2 10.65 7.25 10.7 7.1 11.0 7.0 11.3 7.05 11.3 8.9 11.35 8.95 11.3 9.0 11.15 10.0 9.1 10.15 9.35 11.05 11.15 11.1 11.3 11.15 11.35 12.95 11.3 13.0 11.3 13.1 11.35 13.1 11.3 12.95 10.95 12.85 10.65 12.4 9.75 M11.2 3.75 L11.25 3.75 10.95 3.55 11.2 3.75 M15.25 6.1 L16.65 6.0 13.85 5.0 15.8 4.85 16.6 3.25 16.65 6.0 17.15 4.85 19.1 5.0 16.65 6.0 14.55 7.9 15.25 6.1 M13.2 5.25 L14.25 5.9 13.7 5.5 13.2 5.25 M13.5 8.8 L13.3 9.7 13.55 8.8 13.5 8.8 M3.5 3.25 L4.25 4.85 6.25 5.0 3.45 6.0 3.5 3.25 M5.5 7.9 L3.45 6.0 4.85 6.1 5.5 7.9 M2.9 4.85 L3.45 6.0 0.95 5.0 2.9 4.85 M6.55 8.85 L6.75 9.4 6.55 8.8 6.55 8.85" fill="#ffcc00" fill-rule="evenodd" stroke="none"/>
    <path d="M10.75 -0.05 L10.05 1.05 12.8 0.1 11.25 1.35 11.85 3.3 10.8 2.7 10.75 2.65 10.0 2.25 9.4 2.65 8.9 3.2 8.55 3.75 8.45 3.75 8.9 3.2 9.25 2.7 9.2 2.75 8.25 3.3 8.85 1.35 7.3 0.1 10.0 1.05 10.05 1.1 10.05 1.05 9.35 -0.05 10.0 -1.85 10.75 -0.05 M14.4 5.45 L13.85 5.0 16.65 6.0 15.25 6.1 15.2 6.1 14.6 5.6 14.0 5.35 14.45 5.5 14.4 5.45 M16.6 3.25 L17.15 4.75 17.15 4.85 16.65 6.0 16.6 3.25 M19.1 5.0 L17.55 6.1 18.0 7.9 16.35 6.95 14.55 7.9 16.65 6.0 19.1 5.0 M14.4 7.7 L14.1 8.1 13.75 8.85 13.5 9.75 13.35 10.95 13.4 10.1 13.7 8.85 13.9 8.4 14.1 8.1 14.35 7.6 14.4 7.7 14.55 7.4 14.85 7.05 14.4 7.7 M13.85 10.5 L14.3 11.6 14.4 11.9 13.85 13.1 13.85 10.5 M14.8 13.0 L15.25 14.5 13.7 13.7 13.85 13.1 12.65 13.0 12.5 12.85 11.3 12.05 13.85 13.1 14.8 13.0 M11.9 11.7 L11.8 11.65 11.3 11.55 11.3 11.5 12.1 11.7 11.95 11.7 12.6 11.9 11.9 11.7 M10.85 11.45 L10.0 11.4 9.05 11.5 8.5 11.6 8.2 11.7 7.6 11.9 7.95 11.75 8.5 11.6 8.85 11.5 9.05 11.5 10.2 11.35 10.85 11.45 M8.85 12.05 L7.65 12.9 7.5 13.0 6.35 13.1 8.85 12.05 M6.45 13.7 L4.9 14.5 5.35 13.0 6.3 13.15 6.45 13.7 M5.9 11.6 L6.35 10.5 6.35 13.1 5.75 11.9 5.9 11.6 M6.55 9.55 L6.05 8.3 6.1 8.35 5.95 8.1 5.65 7.7 5.3 7.2 5.25 7.0 5.95 8.0 6.1 8.35 6.4 9.0 6.6 9.7 6.65 10.15 6.55 9.55 M5.5 7.9 L3.75 6.95 2.1 7.9 2.55 6.1 0.95 5.0 3.45 6.0 2.9 4.85 2.95 4.75 3.5 3.25 3.45 6.0 6.25 5.0 5.6 5.5 5.45 5.6 4.85 6.1 3.45 6.0 5.5 7.9 M8.7 3.85 L9.2 3.4 8.7 3.9 8.7 3.85 M11.2 3.75 L10.95 3.55 11.25 3.75 11.2 3.75 M13.2 5.25 L13.7 5.5 14.25 5.9 13.2 5.25 M13.5 8.8 L13.55 8.8 13.3 9.7 13.5 8.8 M6.9 5.3 L6.15 5.7 6.85 5.25 6.9 5.3 M6.7 10.5 L6.75 11.25 6.7 10.9 6.7 10.5 M6.55 8.85 L6.55 8.8 6.75 9.4 6.55 8.85" fill="#7f6600" fill-rule="evenodd" stroke="none"/>
  </g>
</svg>
