<?xml version="1.0" encoding="UTF-8" standalone="no"?>
<svg xmlns:ffdec="https://www.free-decompiler.com/flash" xmlns:xlink="http://www.w3.org/1999/xlink" ffdec:objectType="shape" height="16.9px" width="17.9px" xmlns="http://www.w3.org/2000/svg">
  <g transform="matrix(1.0, 0.0, 0.0, 1.0, -1.65, 1.85)">
    <path d="M13.0 11.5 L11.25 7.8 11.1 7.8 12.55 5.95 10.8 8.1 13.85 4.1 14.05 4.0 11.45 3.95 11.5 4.1 9.95 6.65 10.0 6.4 11.45 3.9 11.45 3.8 11.6 3.8 14.25 3.85 11.3 7.8 11.4 7.75 11.45 7.95 12.9 11.05 13.1 11.55 13.05 11.5 13.0 11.5 M10.0 6.4 L8.55 3.9 8.5 3.95 6.15 3.9 6.5 4.1 8.95 7.75 7.3 10.95 8.8 11.05 8.8 11.1 10.0 8.85 11.15 11.25 12.75 11.35 12.95 11.5 11.15 11.4 10.0 8.9 10.0 9.05 8.9 11.2 7.2 11.05 7.1 11.05 7.1 11.0 7.3 10.5 7.35 10.55 8.75 7.7 6.15 3.9 6.0 3.7 8.45 3.75 8.5 3.8 8.55 3.75 8.65 3.75 8.7 3.85 8.7 3.9 9.75 5.65 10.0 6.15 10.0 6.4 M8.9 7.75 L7.95 9.6 8.95 7.75 8.9 7.75" fill="#646464" fill-rule="evenodd" stroke="none"/>
    <path d="M10.75 -0.05 L10.65 -0.1 10.0 -1.85 10.1 -1.75 10.75 -0.05 M11.75 3.3 L11.15 1.35 12.7 0.1 12.8 0.15 11.25 1.35 11.85 3.25 11.75 3.3 M10.85 2.8 L11.65 3.75 14.4 3.8 13.4 5.1 14.35 5.55 14.1 5.5 13.35 5.15 13.25 5.2 13.25 5.25 13.2 5.3 13.2 5.35 13.2 5.4 11.4 7.75 11.3 7.8 14.25 3.85 11.6 3.8 11.2 3.3 10.95 3.05 10.7 2.7 10.85 2.8 M13.8 5.1 L13.85 5.0 15.85 4.9 16.7 3.25 16.75 3.3 15.9 5.0 13.8 5.1 M17.35 4.9 L19.4 5.15 19.55 5.25 17.35 5.0 17.35 4.9 M14.55 8.05 L14.55 7.9 14.7 7.6 14.75 7.5 14.7 7.55 14.7 7.5 14.9 7.3 14.55 8.05 M14.55 7.75 L14.25 8.15 14.3 8.0 14.55 7.75 M13.75 9.15 L13.5 10.1 13.55 9.75 13.75 9.15 M13.45 10.5 L13.4 11.35 13.85 10.55 14.4 11.95 16.3 12.25 16.3 12.55 14.9 13.35 15.3 14.65 15.3 15.05 13.65 14.05 12.0 14.7 12.05 14.35 12.55 13.15 11.25 12.15 11.3 11.85 12.0 11.85 12.1 11.95 12.55 12.05 13.1 12.1 13.1 12.15 11.25 12.15 13.65 13.45 15.3 15.05 14.8 13.4 13.65 13.45 16.3 12.55 14.4 12.25 13.8 10.8 13.35 11.65 13.45 10.5 M11.2 11.65 L10.85 11.55 10.9 11.55 11.2 11.65 M8.25 11.55 L8.95 11.65 8.8 11.95 7.05 11.65 6.45 10.25 6.65 10.05 6.8 10.35 6.75 9.95 6.85 10.45 6.8 10.35 6.85 10.95 6.9 11.05 7.05 11.4 7.1 11.6 7.45 11.65 7.65 11.65 7.8 11.65 8.25 11.55 M7.8 12.6 L8.25 13.95 8.1 14.3 6.55 13.35 6.3 12.8 8.1 14.3 7.55 12.75 Q7.7 12.7 7.8 12.6 M5.55 12.6 L4.25 11.55 4.55 11.3 6.0 11.3 5.9 11.55 4.25 11.55 6.25 12.75 5.55 12.6 M6.2 8.1 L6.1 7.9 6.3 8.15 6.2 8.1 M5.85 7.55 L5.7 7.65 5.05 5.95 5.1 5.9 5.15 5.95 5.45 6.85 5.5 6.95 5.85 7.55 M3.6 6.95 L3.6 7.05 2.6 7.5 3.6 6.95 M3.0 5.85 L1.65 4.75 3.35 4.6 3.35 4.65 1.65 4.75 3.65 5.8 3.0 5.85 M3.85 3.15 L4.15 3.1 4.85 4.6 6.55 4.85 5.95 5.35 6.85 4.95 6.0 3.7 5.95 3.7 5.95 3.65 8.5 3.7 9.1 3.0 8.6 3.7 8.5 3.7 8.45 3.75 8.55 3.75 8.5 3.8 8.45 3.75 6.0 3.7 6.15 3.9 8.75 7.7 7.35 10.55 7.3 10.5 8.7 7.65 7.0 5.2 6.95 5.15 6.85 5.0 6.2 5.3 5.85 5.4 5.95 5.35 5.8 5.4 6.35 4.9 4.55 4.7 3.85 3.15 M9.25 2.75 L8.4 3.25 8.25 3.25 9.3 2.65 9.25 2.75 M12.9 11.05 L11.45 7.95 11.5 7.9 12.9 11.0 12.9 11.05 M11.45 3.8 L11.45 3.9 10.0 6.4 10.0 6.15 11.35 4.0 11.4 3.95 11.45 3.8 M12.95 11.5 L13.0 11.5 13.0 11.55 11.1 11.45 10.0 9.1 8.95 11.2 8.9 11.25 7.2 11.1 7.2 11.05 8.9 11.2 10.0 9.05 10.0 8.9 11.15 11.4 12.95 11.5 M8.75 3.85 L9.75 5.65 8.7 3.9 8.75 3.85 M13.65 13.45 L12.6 13.2 12.0 14.7 13.65 13.45" fill="#000000" fill-rule="evenodd" stroke="none"/>
    <path d="M10.75 -0.05 L12.7 0.1 11.15 1.35 11.75 3.3 9.85 1.05 10.0 -1.85 10.65 -0.1 10.75 -0.05 M14.7 7.5 L14.6 7.7 14.55 7.7 14.3 8.0 14.25 8.15 14.15 8.3 13.9 8.65 13.9 8.85 13.75 9.15 13.55 9.75 13.5 10.0 13.45 10.5 13.35 11.65 13.8 10.8 14.4 12.25 16.3 12.55 13.65 13.45 14.8 13.4 15.3 15.05 13.65 13.45 11.25 12.15 13.1 12.15 13.1 12.1 12.55 12.05 12.0 11.85 11.35 11.6 11.35 11.7 11.2 11.65 11.2 11.6 10.9 11.55 10.85 11.55 10.5 11.5 9.9 11.4 9.85 11.4 9.45 11.35 9.2 11.4 8.8 11.4 8.75 11.45 8.25 11.55 8.2 11.55 7.8 11.65 7.65 11.65 7.45 11.65 7.1 11.6 7.05 11.4 6.9 11.05 6.85 10.45 6.7 9.4 6.65 9.0 6.5 8.7 6.3 8.15 5.95 7.5 5.9 7.5 5.5 6.95 5.45 6.85 5.15 5.95 5.1 5.9 5.7 5.45 5.85 5.4 6.2 5.3 6.85 5.0 6.95 5.15 6.0 5.8 7.0 5.2 8.7 7.65 7.3 10.5 7.1 11.0 7.1 11.05 7.2 11.05 7.2 11.1 8.9 11.25 8.95 11.2 10.0 9.1 11.1 11.45 13.0 11.55 13.0 11.5 13.05 11.5 13.1 11.55 12.9 11.05 12.9 11.0 11.5 7.9 11.45 7.95 11.4 7.75 13.2 5.4 13.65 5.65 14.35 6.15 14.3 6.05 13.2 5.35 13.2 5.3 13.25 5.25 13.25 5.2 13.35 5.15 14.1 5.5 14.5 5.7 15.3 6.3 16.6 6.25 13.8 5.1 15.9 5.0 16.75 3.3 16.6 6.25 17.35 5.0 19.55 5.25 16.6 6.25 14.55 8.05 14.9 7.3 14.7 7.5 M11.6 3.8 L11.45 3.8 11.4 3.95 10.5 3.15 11.35 4.0 10.0 6.15 9.75 5.65 8.75 3.85 9.05 3.55 8.7 3.85 8.65 3.75 8.55 3.75 8.45 3.75 8.5 3.7 8.6 3.7 8.95 3.3 9.4 2.65 9.3 2.65 8.25 3.25 9.85 1.05 10.0 2.25 10.7 2.7 10.95 3.05 11.15 3.35 11.2 3.3 11.6 3.8 M14.55 7.0 L13.95 8.25 14.3 7.65 14.55 7.0 M13.15 10.6 L13.55 9.0 13.95 8.25 13.55 8.9 13.15 10.5 13.15 10.6 M12.95 11.05 L13.0 11.15 13.15 10.5 12.95 11.05 M3.65 5.8 L3.85 3.15 4.55 4.7 6.35 4.9 3.65 5.8 5.05 5.95 5.7 7.65 3.65 5.8 M6.3 12.8 L6.25 12.75 6.45 10.25 7.05 11.65 8.8 11.95 6.35 12.75 7.55 12.75 8.1 14.3 6.3 12.8 M5.9 11.55 L6.25 12.75 4.25 11.55 5.9 11.55" fill="#ffcc00" fill-rule="evenodd" stroke="none"/>
    <path d="M10.0 -1.85 L9.85 1.05 11.75 3.3 10.85 2.8 10.7 2.7 10.0 2.25 9.85 1.05 8.25 3.25 8.8 1.35 7.3 0.15 9.3 -0.05 10.0 -1.85 M14.35 5.55 L13.8 5.1 16.6 6.25 15.3 6.3 14.5 5.7 14.1 5.5 14.35 5.55 M16.75 3.3 L17.35 4.9 17.35 5.0 16.6 6.25 16.75 3.3 M19.55 5.25 L17.8 6.4 18.3 8.25 16.45 7.2 14.55 8.05 16.6 6.25 19.55 5.25 M14.7 7.6 L14.7 7.55 14.75 7.5 14.7 7.6 M14.6 7.7 L14.55 7.75 14.3 8.0 14.55 7.7 14.6 7.7 M14.15 8.3 L13.9 8.85 13.9 8.65 14.15 8.3 M13.5 10.1 L13.45 10.5 13.5 10.0 13.55 9.75 13.5 10.1 M12.0 11.85 L11.35 11.7 11.35 11.6 12.0 11.85 12.55 12.05 12.1 11.95 12.0 11.85 M9.85 11.4 L9.2 11.4 8.75 11.45 8.8 11.4 9.2 11.4 9.45 11.35 9.85 11.4 M8.8 11.95 L7.8 12.6 Q7.7 12.7 7.55 12.75 L6.35 12.75 8.8 11.95 M6.55 13.35 L5.15 14.0 5.55 12.6 6.25 12.75 6.3 12.8 6.55 13.35 M6.0 11.3 L6.45 10.25 6.25 12.75 5.9 11.55 6.0 11.3 M6.75 9.95 L6.7 9.4 6.5 8.75 6.2 8.1 6.3 8.15 6.1 7.9 5.85 7.55 5.5 6.95 5.9 7.5 5.95 7.5 6.3 8.15 6.5 8.7 6.65 9.0 6.7 9.4 6.85 10.45 6.9 11.05 6.85 10.95 6.8 10.35 6.85 10.45 6.75 9.95 M5.7 7.65 L4.1 6.7 3.6 6.95 2.6 7.5 3.0 5.85 3.65 5.8 1.65 4.75 3.35 4.65 3.35 4.6 3.85 3.15 3.65 5.8 5.7 7.65 M9.1 3.0 L9.25 2.75 9.3 2.65 9.4 2.65 8.95 3.3 8.6 3.7 9.1 3.0 M7.0 5.2 L6.0 5.8 6.95 5.15 7.0 5.2 M5.85 5.4 L5.7 5.45 5.1 5.9 5.05 5.95 3.65 5.8 6.35 4.9 5.8 5.4 5.95 5.35 5.85 5.4 M7.8 11.65 L8.2 11.55 8.25 11.55 7.8 11.65 M10.95 3.05 L11.2 3.3 11.15 3.35 10.95 3.05 M8.7 3.85 L9.05 3.55 8.75 3.85 8.7 3.9 8.7 3.85 M11.35 4.0 L10.5 3.15 11.4 3.95 11.35 4.0 M13.2 5.35 L14.3 6.05 14.35 6.15 13.65 5.65 13.2 5.4 13.2 5.35 M14.55 7.0 L14.3 7.65 13.95 8.25 14.55 7.0 M12.95 11.05 L13.15 10.5 13.0 11.15 12.95 11.05 M13.15 10.6 L13.15 10.5 13.55 8.9 13.95 8.25 13.55 9.0 13.15 10.6 M13.65 13.45 L12.0 14.7 12.6 13.2 13.65 13.45 M11.2 11.65 L10.9 11.55 11.2 11.6 11.2 11.65" fill="#7f6600" fill-rule="evenodd" stroke="none"/>
    <path d="M10.0 6.4 L9.95 6.65 11.5 4.1 11.45 3.95 14.05 4.0 13.85 4.1 10.8 8.1 12.55 5.95 11.1 7.8 11.25 7.8 13.0 11.5 12.95 11.5 12.75 11.35 11.15 11.25 10.0 8.85 8.8 11.1 8.8 11.05 7.3 10.95 8.95 7.75 6.5 4.1 6.15 3.9 8.5 3.95 8.55 3.9 10.0 6.4 M8.9 7.75 L8.95 7.75 7.95 9.6 8.9 7.75" fill="#c8c8c8" fill-rule="evenodd" stroke="none"/>
  </g>
</svg>
