<?xml version="1.0" encoding="UTF-8" standalone="no"?>
<svg xmlns:ffdec="https://www.free-decompiler.com/flash" xmlns:xlink="http://www.w3.org/1999/xlink" ffdec:objectType="shape" height="17.45px" width="17.1px" xmlns="http://www.w3.org/2000/svg">
  <g transform="matrix(1.0, 0.0, 0.0, 1.0, -2.55, 1.85)">
    <path d="M10.8 -0.05 L10.55 -0.1 9.9 -1.85 10.15 -1.75 10.8 -0.05 M12.55 0.05 L12.75 0.1 11.25 1.35 11.85 3.3 11.6 3.35 11.0 1.35 12.55 0.05 M10.95 2.95 L10.95 3.0 11.6 3.8 14.3 3.9 13.3 5.2 14.0 5.55 14.2 5.7 13.9 5.6 13.95 5.6 13.25 5.2 13.15 5.25 14.15 3.95 11.35 3.85 11.45 3.8 11.5 3.8 10.9 3.05 10.8 2.85 10.95 2.95 M13.6 5.2 L13.8 5.1 15.8 5.05 15.75 5.15 13.6 5.2 M16.6 3.4 L16.75 3.35 17.35 5.1 19.65 5.4 19.6 5.55 17.25 5.25 16.6 3.4 M17.8 6.65 L18.3 8.5 18.25 8.7 17.7 6.7 17.8 6.65 M14.55 7.85 L14.15 8.35 13.7 9.25 13.35 10.9 13.35 11.6 13.2 11.85 13.25 11.3 13.4 10.15 13.65 9.3 13.85 8.9 14.1 8.4 14.35 8.0 14.55 7.85 M13.6 11.05 L13.8 10.8 14.4 12.3 14.2 12.6 13.6 11.05 M14.85 13.75 L15.25 15.25 15.15 15.6 13.5 14.45 13.5 14.4 13.3 13.8 15.15 15.6 14.65 13.85 14.85 13.75 M12.4 13.45 L11.1 12.25 11.35 11.95 11.7 12.0 12.35 12.25 12.55 12.3 12.9 12.35 12.95 12.35 12.9 12.4 11.1 12.25 13.3 13.8 12.4 13.45 M8.45 11.4 L9.1 11.55 8.8 11.85 7.25 11.4 7.3 11.35 7.65 11.45 7.85 11.5 8.45 11.4 M8.15 14.1 L6.8 13.05 6.4 12.45 5.5 13.55 5.9 12.2 4.8 11.15 5.15 10.9 6.3 11.0 6.2 11.25 4.8 11.15 6.4 12.45 8.15 14.1 M6.0 7.45 L4.7 6.5 3.75 7.05 3.4 7.15 3.35 7.2 3.7 5.65 2.55 4.6 3.0 4.5 4.0 4.45 4.4 3.05 4.1 5.6 4.0 4.5 2.55 4.6 4.1 5.6 3.4 7.15 4.6 6.45 4.1 5.6 6.0 7.45 M5.4 4.5 L6.95 4.7 6.4 3.8 6.5 3.9 7.25 5.05 7.25 5.1 8.8 7.55 8.85 7.65 7.35 10.7 7.35 10.65 8.75 7.6 7.2 5.15 7.2 5.1 7.1 4.95 7.1 4.9 6.95 4.7 6.35 5.25 6.05 5.35 5.95 5.4 5.55 5.75 5.5 5.8 5.45 5.75 6.6 4.8 5.0 4.55 5.4 4.5 M6.3 3.65 L6.25 3.6 8.55 3.7 6.3 3.65 M9.2 2.85 L8.6 3.2 8.3 3.25 9.5 2.5 9.35 2.65 9.2 2.85 M10.95 3.65 L10.95 3.6 11.05 3.7 11.05 3.75 10.95 3.65 M11.3 3.95 L11.35 3.85 11.35 4.0 11.3 4.0 9.9 6.45 9.95 6.3 9.95 6.25 10.0 6.15 11.25 4.0 11.3 3.95 M11.3 7.8 L11.3 7.75 13.05 5.4 13.05 5.5 12.95 5.65 11.3 7.8 M9.9 8.9 L9.95 8.85 10.95 11.3 10.0 9.15 9.0 11.15 8.95 11.15 7.45 10.9 7.3 10.85 8.85 11.05 8.95 11.15 10.0 9.1 9.9 8.9 M12.75 11.7 L12.95 11.8 11.05 11.5 11.0 11.5 11.05 11.45 12.75 11.7 M8.6 3.75 L8.55 3.75 8.55 3.7 8.6 3.75 M6.2 7.35 L5.85 6.7 6.25 7.35 6.2 7.35" fill="#000000" fill-rule="evenodd" stroke="none"/>
    <path d="M10.55 -0.1 L10.8 -0.05 12.55 0.05 9.6 1.05 10.55 -0.1 M11.6 3.35 L10.95 2.95 10.8 2.85 10.9 3.05 11.5 3.8 11.45 3.8 11.15 3.5 10.65 2.75 9.9 2.25 9.55 1.15 8.3 3.25 8.8 1.35 7.45 0.2 9.25 -0.05 9.9 -1.85 9.6 1.05 11.6 3.35 M14.0 5.55 L13.6 5.2 16.3 6.5 18.25 8.7 16.35 7.5 14.35 8.3 14.55 7.85 14.35 8.0 14.65 7.6 15.1 6.5 14.25 5.75 13.9 5.6 13.2 5.3 13.15 5.25 13.25 5.2 13.95 5.6 13.9 5.6 14.2 5.7 14.0 5.55 M15.8 5.05 L16.6 3.4 16.3 6.5 15.75 5.15 15.8 5.05 M19.6 5.55 L17.8 6.65 17.7 6.7 16.3 6.5 19.6 5.55 M13.35 11.6 L13.6 11.05 13.3 13.8 16.2 13.1 14.85 13.75 14.65 13.85 13.3 13.8 13.5 14.4 11.8 14.9 12.4 13.45 13.3 13.8 12.9 12.4 12.95 12.35 13.2 11.85 13.35 11.6 M14.4 12.3 L16.3 12.8 16.2 13.1 14.2 12.6 14.4 12.3 M11.7 12.0 L11.85 12.0 9.95 11.35 8.45 11.4 7.85 11.5 7.65 11.45 9.25 11.25 9.95 11.3 10.75 11.5 12.55 12.3 12.35 12.25 11.7 12.0 M8.8 11.85 L8.0 12.35 8.45 13.8 8.15 14.1 7.65 12.55 6.4 12.45 8.8 11.85 M6.8 13.05 L5.5 13.55 6.4 12.45 6.8 13.05 M6.3 11.0 L6.65 10.05 7.05 9.8 6.8 8.65 6.45 7.75 6.2 7.35 6.0 7.45 5.45 5.75 4.1 5.6 5.0 4.55 4.4 3.05 4.8 3.05 5.4 4.5 5.0 4.55 6.6 4.8 5.45 5.75 5.5 5.8 5.55 5.75 5.55 5.8 5.85 6.7 6.2 7.35 6.25 7.35 5.85 6.7 5.95 6.75 6.8 8.35 6.85 8.55 6.8 8.65 7.0 9.2 7.15 10.3 7.15 10.95 7.3 11.35 7.25 11.4 6.65 10.05 6.4 12.45 6.2 11.25 6.3 11.0 M8.55 3.7 L8.6 3.7 9.05 3.1 9.2 2.85 9.35 2.65 9.5 2.5 9.05 3.1 8.65 3.7 8.6 3.75 8.55 3.7 M10.95 3.65 L10.45 3.2 9.95 3.0 10.0 2.95 10.3 3.1 10.4 3.1 10.95 3.55 10.95 3.6 10.95 3.65 11.05 3.75 11.05 3.7 11.05 3.65 11.1 3.7 11.1 3.75 11.15 3.75 11.3 3.95 11.25 4.0 10.95 3.7 10.95 3.65 M13.05 5.4 L13.1 5.45 14.15 6.2 14.2 6.25 14.45 6.65 14.45 7.25 14.2 7.8 13.4 9.25 13.2 10.0 13.15 10.3 12.9 11.25 12.85 11.25 12.85 11.35 12.8 11.3 13.3 9.5 13.35 9.2 13.95 8.0 14.2 7.65 14.4 7.2 14.4 6.65 14.05 6.15 13.05 5.5 13.05 5.4 M14.1 8.4 L13.85 8.9 13.85 8.75 14.1 8.4 M13.65 9.3 L13.4 10.15 13.25 11.3 13.3 10.6 13.4 10.15 13.5 9.65 13.65 9.3 M4.6 6.45 L3.4 7.15 4.1 5.6 4.6 6.45 M2.55 4.6 L4.0 4.5 4.1 5.6 2.55 4.6 M6.35 5.25 L6.5 5.15 7.1 4.9 7.1 4.95 6.7 5.15 5.95 5.4 6.05 5.35 6.35 5.25 M7.2 5.1 L6.35 5.65 6.8 5.3 7.2 5.1" fill="#7f6600" fill-rule="evenodd" stroke="none"/>
    <path d="M10.55 -0.1 L9.6 1.05 12.55 0.05 11.0 1.35 11.6 3.35 9.6 1.05 9.9 -1.85 10.55 -0.1 M11.45 3.8 L11.35 3.85 11.3 3.95 11.15 3.75 11.1 3.75 11.1 3.7 11.05 3.65 11.05 3.7 10.95 3.6 10.95 3.55 10.4 3.1 10.3 3.1 10.0 2.95 9.95 3.0 10.45 3.2 10.95 3.65 10.95 3.7 11.25 4.0 10.0 6.15 8.8 3.85 8.75 3.85 8.7 3.75 8.6 3.75 8.65 3.7 9.05 3.1 9.5 2.5 8.3 3.25 9.55 1.15 9.9 2.25 10.65 2.75 11.15 3.5 11.45 3.8 M12.8 11.5 L12.8 11.3 12.75 11.1 12.6 10.85 11.3 7.85 11.3 7.8 12.95 5.65 13.05 5.5 14.05 6.15 14.4 6.65 14.4 7.2 14.2 7.65 13.95 8.0 13.35 9.2 13.3 9.5 12.8 11.3 12.85 11.35 12.85 11.25 12.9 11.25 13.15 10.3 13.2 10.0 13.4 9.25 14.2 7.8 14.45 7.25 14.45 6.65 14.2 6.25 14.15 6.2 13.1 5.45 13.05 5.4 13.15 5.25 13.2 5.3 13.9 5.6 14.25 5.75 15.1 6.5 14.65 7.6 14.35 8.0 14.1 8.4 13.85 8.75 13.85 8.9 13.65 9.3 13.5 9.65 13.4 10.15 13.3 10.6 13.25 11.3 13.2 11.85 12.95 12.35 12.9 12.35 12.55 12.3 10.75 11.5 9.95 11.3 9.25 11.25 7.65 11.45 7.3 11.35 7.15 10.95 7.15 10.3 7.0 9.2 6.8 8.65 6.85 8.55 6.8 8.35 5.95 6.75 5.85 6.7 5.55 5.8 5.55 5.75 5.95 5.4 6.7 5.15 7.1 4.95 7.2 5.1 7.2 5.15 8.75 7.6 7.35 10.65 7.35 10.7 7.3 10.85 7.45 10.9 8.95 11.15 9.0 11.15 10.0 9.15 10.95 11.3 11.05 11.45 11.0 11.5 11.05 11.5 12.95 11.8 12.8 11.5 M15.75 5.15 L16.3 6.5 16.6 3.4 17.25 5.25 19.6 5.55 16.3 6.5 17.7 6.7 18.25 8.7 16.3 6.5 13.6 5.2 15.75 5.15 M16.2 13.1 L13.3 13.8 14.65 13.85 15.15 15.6 13.3 13.8 11.1 12.25 12.9 12.4 13.3 13.8 13.6 11.05 14.2 12.6 16.2 13.1 M4.1 5.6 L4.4 3.05 5.0 4.55 4.1 5.6 5.45 5.75 6.0 7.45 4.1 5.6 M7.2 5.1 L6.8 5.3 6.35 5.65 7.2 5.1 M6.2 11.25 L6.4 12.45 4.8 11.15 6.2 11.25 M6.4 12.45 L6.65 10.05 7.25 11.4 8.8 11.85 6.4 12.45 7.65 12.55 8.15 14.1 6.4 12.45" fill="#ffcc00" fill-rule="evenodd" stroke="none"/>
    <path d="M6.4 3.8 L6.3 3.65 8.55 3.7 8.55 3.75 8.6 3.75 8.7 3.75 8.75 3.85 8.8 3.85 10.0 6.15 9.95 6.25 8.6 3.8 8.55 3.9 7.35 3.85 8.35 3.95 6.5 3.9 6.8 4.1 9.05 7.7 9.0 7.7 7.5 10.7 8.75 10.9 8.85 11.05 9.9 8.9 10.0 9.1 8.95 11.15 8.85 11.05 7.3 10.85 7.35 10.7 8.85 7.65 8.8 7.55 7.25 5.1 7.25 5.05 6.5 3.9 6.4 3.8 M11.35 3.85 L14.15 3.95 13.15 5.25 13.05 5.4 11.3 7.75 11.3 7.8 11.3 7.85 12.6 10.85 12.75 11.1 12.8 11.3 12.8 11.5 11.2 7.85 11.05 7.85 13.8 4.1 11.35 4.0 11.35 3.85 M11.3 4.0 L11.3 4.25 9.9 6.75 9.9 6.45 11.3 4.0 M9.95 8.85 L9.9 8.65 11.05 11.3 12.45 11.5 12.75 11.7 11.05 11.45 10.95 11.3 9.95 8.85" fill="#646464" fill-rule="evenodd" stroke="none"/>
    <path d="M11.35 4.0 L13.8 4.1 11.05 7.85 11.2 7.85 12.8 11.5 12.95 11.8 12.75 11.7 12.45 11.5 11.05 11.3 9.9 8.65 9.95 8.85 9.9 8.9 8.85 11.05 8.75 10.9 7.5 10.7 9.0 7.7 9.05 7.7 6.8 4.1 6.5 3.9 8.35 3.95 7.35 3.85 8.55 3.9 8.6 3.8 9.95 6.25 9.95 6.3 9.9 6.45 9.9 6.75 11.3 4.25 11.3 4.0 11.35 4.0" fill="#c8c8c8" fill-rule="evenodd" stroke="none"/>
  </g>
</svg>
