<?xml version="1.0" encoding="UTF-8" standalone="no"?>
<svg xmlns:ffdec="https://www.free-decompiler.com/flash" xmlns:xlink="http://www.w3.org/1999/xlink" ffdec:objectType="shape" height="18.0px" width="15.85px" xmlns="http://www.w3.org/2000/svg">
  <g transform="matrix(1.0, 0.0, 0.0, 1.0, -3.6, 1.85)">
    <path d="M6.8 3.75 L6.7 3.65 8.75 3.75 8.6 3.85 8.55 4.05 7.1 3.95 8.2 4.1 7.15 4.05 8.2 4.2 7.15 4.1 7.2 4.15 8.15 4.25 7.3 4.2 8.25 5.95 8.15 5.9 9.15 7.7 9.25 7.7 9.8 8.45 9.8 8.55 10.9 11.3 12.1 11.6 12.4 11.9 10.9 11.55 9.8 8.6 8.8 10.75 8.9 10.95 7.65 10.6 7.7 10.5 7.65 10.45 7.85 10.1 7.95 9.85 8.9 7.65 8.95 7.6 6.95 3.95 6.8 3.75 M12.5 11.35 L11.1 7.9 10.9 7.9 12.15 6.1 12.2 6.1 13.6 4.1 13.55 4.15 13.4 4.2 11.3 4.05 13.3 4.25 11.1 4.1 11.15 4.05 11.1 4.0 11.15 3.95 11.2 3.85 11.3 3.85 13.8 4.0 13.95 3.95 13.0 5.3 12.9 5.35 12.8 5.5 12.75 5.55 12.8 5.55 12.75 5.65 11.15 7.85 12.5 11.3 12.5 11.35 12.55 11.4 12.55 11.45 12.5 11.45 12.2 10.65 12.5 11.35 M11.1 4.1 L11.1 4.4 9.8 6.9 9.8 6.55 11.1 4.1 M9.95 6.2 L8.8 3.75 8.85 3.8 8.95 3.85 10.0 6.1 9.95 6.2 M9.2 10.85 L9.1 11.0 9.1 11.05 8.95 11.05 8.95 10.95 9.85 8.95 9.95 9.2 9.65 9.9 9.55 10.05 9.2 10.85" fill="#646464" fill-rule="evenodd" stroke="none"/>
    <path d="M12.25 0.05 L12.65 0.05 11.25 1.35 10.85 1.35 12.25 0.05 M10.95 3.1 L11.5 3.8 13.95 3.95 14.0 3.95 13.1 5.3 13.45 5.5 13.7 5.7 13.0 5.3 13.95 3.95 13.8 4.0 11.3 3.85 11.4 3.8 10.95 3.2 11.0 3.2 10.9 3.05 10.95 3.1 M13.25 5.3 L13.65 5.2 15.35 5.2 15.3 5.3 13.25 5.3 M16.15 3.5 L16.5 3.45 17.1 5.3 19.45 5.75 19.25 5.85 16.8 5.4 16.15 3.5 M17.55 6.85 L18.1 8.95 17.85 9.15 17.3 7.0 Q17.45 6.95 17.55 6.85 M14.0 8.5 L13.85 8.65 13.5 9.45 13.15 11.05 13.15 11.6 13.05 11.8 13.05 11.2 13.15 10.25 13.35 9.6 13.75 8.75 13.7 8.75 14.1 8.2 14.0 8.5 M14.75 16.15 L13.1 14.75 11.6 15.1 12.8 14.1 14.75 16.15 M12.15 13.65 L10.95 12.3 11.3 12.05 11.55 12.1 12.15 12.45 12.35 12.5 12.65 12.55 12.6 12.65 10.95 12.3 12.8 14.1 12.15 13.65 M8.7 11.3 L9.25 11.5 8.15 11.3 8.7 11.3 M8.3 13.9 L7.1 12.75 6.65 12.15 6.05 13.15 6.35 11.9 5.4 10.75 5.85 10.55 6.7 10.7 7.0 9.8 6.65 12.15 6.6 10.95 5.4 10.75 6.65 12.15 8.3 13.9 M6.45 7.3 L5.4 6.4 4.7 6.8 4.25 6.9 4.5 5.45 3.6 4.4 4.05 4.35 4.75 4.35 5.1 3.0 4.75 5.4 4.75 4.4 3.6 4.4 4.55 5.2 4.7 5.4 4.25 6.9 5.25 6.25 4.8 5.5 6.45 7.3 M6.05 4.4 L7.25 4.65 6.8 3.75 6.95 3.95 8.95 7.6 8.9 7.65 7.95 9.85 8.75 7.85 8.85 7.55 8.55 7.05 8.5 6.85 8.4 6.7 8.35 6.6 7.6 5.2 7.5 5.1 7.45 5.0 7.45 4.95 7.4 4.85 7.3 4.75 6.95 5.05 6.5 5.25 6.35 5.35 6.05 5.65 6.0 5.65 6.95 4.7 5.6 4.45 6.05 4.4 M6.7 3.65 L6.7 3.6 6.75 3.55 8.75 3.65 8.7 3.7 8.75 3.7 8.75 3.75 6.7 3.65 M9.2 2.95 L8.85 3.2 8.4 3.25 8.85 1.35 7.7 0.2 9.4 1.05 9.25 -0.05 9.85 -1.85 9.4 1.05 8.4 3.25 9.4 2.6 9.85 2.3 9.5 2.55 9.4 2.6 9.3 2.85 9.2 2.95 M11.1 4.0 L11.15 4.05 11.1 4.1 9.8 6.55 9.85 6.4 9.95 6.2 10.0 6.1 11.05 4.05 11.1 4.0 M12.4 11.9 L12.65 12.0 12.05 11.85 11.85 11.8 11.0 11.6 10.85 11.55 10.9 11.55 10.75 11.35 10.8 11.35 9.95 9.2 9.85 8.95 9.85 8.8 9.8 8.6 10.9 11.55 12.4 11.9 M10.7 3.5 L10.7 3.45 11.05 3.85 10.7 3.5 M13.8 6.35 L13.25 5.9 13.1 5.75 13.3 5.85 13.25 5.85 13.75 6.25 13.8 6.35 M14.1 7.4 L14.1 7.45 13.75 8.2 13.6 8.55 13.65 8.35 13.75 8.2 14.1 7.4 M13.1 9.45 L13.15 9.45 13.05 9.7 13.1 9.45 M8.8 11.05 L7.75 10.75 7.65 10.7 7.6 10.7 7.55 10.7 7.6 10.6 7.65 10.55 7.65 10.45 7.7 10.5 7.65 10.6 8.9 10.95 8.95 10.95 8.95 11.05 8.9 11.05 8.8 11.0 8.8 11.05 M6.35 6.5 L6.55 6.95 6.35 6.6 6.35 6.5 M7.5 11.2 L7.6 11.15 7.9 11.25 7.5 11.2" fill="#000000" fill-rule="evenodd" stroke="none"/>
    <path d="M10.85 1.35 L11.25 1.35 11.75 3.3 11.35 3.35 10.95 3.1 10.9 3.05 11.0 3.2 10.95 3.2 11.4 3.8 11.3 3.85 10.7 2.9 9.85 2.3 9.4 1.05 11.35 3.35 10.85 1.35 M13.45 5.5 L13.25 5.3 15.65 6.75 17.85 9.15 15.9 7.8 14.0 8.5 14.1 8.2 13.7 8.75 14.15 8.05 14.7 6.7 13.8 5.85 13.55 5.75 12.9 5.35 13.0 5.3 13.7 5.7 13.45 5.5 M15.35 5.2 L16.15 3.5 15.65 6.75 15.3 5.3 15.35 5.2 M19.25 5.85 L17.55 6.85 Q17.45 6.95 17.3 7.0 L15.65 6.75 19.25 5.85 M13.15 11.6 L13.25 11.35 13.6 11.1 14.15 12.7 16.05 13.35 15.75 13.65 14.6 14.15 15.0 15.8 14.75 16.15 14.25 14.3 12.8 14.1 15.75 13.65 13.85 12.95 13.25 11.35 12.8 14.1 12.6 12.65 12.65 12.55 12.95 11.95 13.0 10.9 13.3 9.5 13.7 8.75 13.75 8.75 13.35 9.6 13.15 10.25 13.05 11.2 13.05 11.8 13.15 11.6 M11.6 15.1 L12.15 13.65 12.8 14.1 11.6 15.1 M11.1 11.85 L10.95 11.75 10.0 11.4 9.3 11.3 8.7 11.3 8.15 11.3 9.25 11.5 8.9 11.75 8.25 12.1 8.7 13.65 8.3 13.9 7.85 12.35 6.65 12.15 8.9 11.75 7.5 11.2 7.0 9.8 7.35 9.65 7.3 9.0 7.0 7.85 6.7 7.2 6.45 7.3 6.0 5.65 4.75 5.4 5.6 4.45 6.95 4.7 6.0 5.65 6.05 5.65 6.35 5.35 6.5 5.25 6.95 5.05 7.4 4.85 7.45 4.95 6.65 5.5 6.55 5.65 6.5 5.7 6.4 5.85 6.45 6.25 6.2 5.85 6.2 5.9 6.5 6.6 6.5 6.75 6.75 7.15 7.25 8.35 7.5 10.15 7.45 9.6 7.6 10.6 7.55 10.7 7.6 10.7 7.6 10.8 7.65 10.7 7.75 10.75 7.8 10.8 8.2 11.05 10.05 11.3 10.6 11.5 11.9 12.2 11.4 11.95 12.35 12.5 12.15 12.45 11.55 12.1 11.1 11.85 M7.1 12.75 L6.05 13.15 6.65 12.15 5.4 10.75 6.6 10.95 6.65 12.15 7.1 12.75 M5.1 3.0 L5.55 3.0 6.05 4.4 5.6 4.45 5.1 3.0 M8.75 3.65 L9.2 2.95 9.3 2.85 9.4 2.6 9.5 2.55 9.0 3.4 8.75 3.7 8.7 3.7 8.75 3.65 M7.7 0.2 L9.25 -0.05 9.4 1.05 7.7 0.2 M9.85 -1.85 L10.25 -1.75 10.85 -0.05 12.25 0.05 9.4 1.05 10.4 -0.1 9.85 -1.85 M12.75 5.65 L12.8 5.55 12.75 5.55 12.8 5.5 13.35 5.85 13.3 5.85 13.1 5.75 13.25 5.9 13.8 6.35 13.9 6.4 14.15 6.85 14.1 7.4 13.75 8.2 13.65 8.35 13.6 8.55 13.15 9.45 12.85 10.9 12.6 11.65 12.55 11.55 12.55 11.45 12.55 11.4 12.5 11.35 12.95 9.5 13.15 9.2 13.3 8.9 13.85 7.8 14.0 7.4 14.05 6.85 13.7 6.3 12.75 5.65 M11.15 3.95 L11.1 4.0 11.05 4.05 10.4 3.35 10.35 3.25 10.0 3.05 9.95 3.0 9.95 2.9 10.35 3.1 10.35 3.05 11.15 3.85 11.05 3.85 10.7 3.45 10.7 3.5 11.05 3.85 11.15 3.95 M13.1 9.45 L13.05 9.7 13.15 9.45 13.1 9.45 13.3 8.9 13.1 9.45 M9.65 9.9 L9.6 10.05 10.0 10.45 10.5 10.8 10.0 10.8 10.55 11.1 10.0 10.9 9.35 10.8 10.0 11.0 9.2 10.85 9.55 10.05 9.65 9.9 M9.1 11.05 L9.35 11.05 9.75 11.2 9.7 11.1 9.95 11.15 10.0 11.2 9.75 11.2 9.35 11.1 8.75 11.05 8.8 11.05 8.8 11.0 8.9 11.05 8.95 11.05 9.1 11.05 M12.05 11.85 L11.85 11.85 11.85 11.8 12.05 11.85 M4.7 5.4 L4.55 5.2 3.6 4.4 4.75 4.4 4.75 5.4 4.7 5.4 4.8 5.5 5.25 6.25 4.25 6.9 4.7 5.4 M7.45 5.0 L7.5 5.1 7.25 5.3 7.2 5.25 6.8 5.55 6.7 5.55 7.1 5.25 6.65 5.5 7.45 5.0 M7.6 5.2 L8.35 6.6 8.3 6.65 8.4 6.7 8.5 6.85 8.25 6.95 8.55 7.05 8.6 7.35 8.75 7.85 7.95 9.85 7.85 10.1 7.6 9.1 7.65 9.25 7.5 8.35 7.35 8.05 6.8 6.45 6.8 6.0 7.0 5.65 6.9 5.6 7.6 5.2 M8.85 3.8 L8.95 3.65 8.95 3.85 8.85 3.8 M7.65 10.55 L7.6 10.35 7.65 10.45 7.65 10.55 M6.35 6.5 L6.35 6.6 6.55 6.95 6.35 6.5 M7.5 11.2 L7.9 11.25 7.6 11.15 7.5 11.2" fill="#7f6600" fill-rule="evenodd" stroke="none"/>
    <path d="M12.25 0.05 L10.85 1.35 11.35 3.35 9.4 1.05 12.25 0.05 M12.5 11.35 L12.5 11.3 11.15 7.85 12.75 5.65 13.7 6.3 14.05 6.85 14.0 7.4 13.85 7.8 13.3 8.9 13.15 9.2 12.95 9.5 12.5 11.35 M12.8 5.5 L12.9 5.35 13.55 5.75 13.8 5.85 14.7 6.7 14.15 8.05 13.7 8.75 13.3 9.5 13.0 10.9 12.95 11.95 12.65 12.55 12.35 12.5 11.4 11.95 11.9 12.2 10.6 11.5 10.05 11.3 8.2 11.05 7.8 10.8 7.75 10.75 8.8 11.05 8.75 11.05 9.35 11.1 9.75 11.2 10.0 11.2 9.95 11.15 9.7 11.1 9.75 11.2 9.35 11.05 9.1 11.05 9.1 11.0 9.2 10.85 10.0 11.0 9.35 10.8 10.0 10.9 10.55 11.1 10.0 10.8 10.5 10.8 10.0 10.45 9.6 10.05 9.65 9.9 9.95 9.2 10.8 11.35 10.75 11.35 10.9 11.55 10.85 11.55 11.0 11.6 11.85 11.8 11.85 11.85 12.05 11.85 12.65 12.0 12.65 11.95 12.55 11.6 12.55 11.55 12.6 11.65 12.85 10.9 13.15 9.45 13.6 8.55 13.75 8.2 14.1 7.45 14.1 7.4 14.15 6.85 13.9 6.4 13.8 6.35 13.75 6.25 13.25 5.85 13.3 5.85 13.35 5.85 12.8 5.5 M11.3 3.85 L11.2 3.85 11.15 3.95 11.05 3.85 11.15 3.85 10.35 3.05 10.35 3.1 9.95 2.9 9.95 3.0 10.0 3.05 10.35 3.25 10.4 3.35 11.05 4.05 10.0 6.1 8.95 3.85 8.95 3.65 8.85 3.8 8.8 3.75 8.75 3.7 9.0 3.4 9.5 2.55 9.85 2.3 10.7 2.9 11.3 3.85 M15.3 5.3 L15.65 6.75 16.15 3.5 16.8 5.4 19.25 5.85 15.65 6.75 17.3 7.0 17.85 9.15 15.65 6.75 13.25 5.3 15.3 5.3 M12.6 12.65 L12.8 14.1 13.25 11.35 13.85 12.95 15.75 13.65 12.8 14.1 14.25 14.3 14.75 16.15 12.8 14.1 10.95 12.3 12.6 12.65 M9.4 1.05 L9.85 -1.85 10.4 -0.1 9.4 1.05 9.85 2.3 9.4 2.6 8.4 3.25 9.4 1.05 M4.7 5.4 L4.75 5.4 5.1 3.0 5.6 4.45 4.75 5.4 6.0 5.65 6.45 7.3 4.8 5.5 4.7 5.4 M7.45 4.95 L7.45 5.0 6.65 5.5 7.1 5.25 6.7 5.55 6.8 5.55 7.2 5.25 7.25 5.3 7.5 5.1 7.6 5.2 6.9 5.6 7.0 5.65 6.8 6.0 6.8 6.45 7.35 8.05 7.5 8.35 7.65 9.25 7.6 9.1 7.85 10.1 7.65 10.45 7.6 10.35 7.65 10.55 7.6 10.6 7.45 9.6 7.5 10.15 7.25 8.35 6.75 7.15 6.5 6.75 6.5 6.6 6.2 5.9 6.2 5.85 6.45 6.25 6.4 5.85 6.5 5.7 6.55 5.65 6.65 5.5 7.45 4.95 M8.35 6.6 L8.4 6.7 8.3 6.65 8.35 6.6 M8.5 6.85 L8.55 7.05 8.85 7.55 8.75 7.85 8.6 7.35 8.55 7.05 8.25 6.95 8.5 6.85 M7.6 10.7 L7.65 10.7 7.6 10.8 7.6 10.7 M6.65 12.15 L7.0 9.8 7.5 11.2 8.9 11.75 6.65 12.15 7.85 12.35 8.3 13.9 6.65 12.15" fill="#ffcc00" fill-rule="evenodd" stroke="none"/>
    <path d="M11.1 4.1 L13.3 4.25 11.3 4.05 13.4 4.2 13.55 4.15 13.6 4.1 12.2 6.1 12.15 6.1 10.9 7.9 11.1 7.9 12.5 11.35 12.2 10.65 12.5 11.45 12.55 11.45 12.55 11.55 12.55 11.6 12.65 11.95 12.65 12.0 12.4 11.9 12.1 11.6 10.9 11.3 9.8 8.55 9.8 8.45 9.25 7.7 9.15 7.7 8.15 5.9 8.25 5.95 7.3 4.2 8.15 4.25 7.2 4.15 7.15 4.1 8.2 4.2 7.15 4.05 8.2 4.1 7.1 3.95 8.55 4.05 8.6 3.85 8.75 3.75 8.75 3.7 8.8 3.75 9.95 6.2 9.85 6.4 9.8 6.55 9.8 6.9 11.1 4.4 11.1 4.1 M9.8 8.6 L9.85 8.8 9.85 8.95 8.95 10.95 8.9 10.95 8.8 10.75 9.8 8.6" fill="#c8c8c8" fill-rule="evenodd" stroke="none"/>
  </g>
</svg>
