<?xml version="1.0" encoding="UTF-8" standalone="no"?>
<svg xmlns:ffdec="https://www.free-decompiler.com/flash" xmlns:xlink="http://www.w3.org/1999/xlink" ffdec:objectType="shape" height="18.5px" width="14.05px" xmlns="http://www.w3.org/2000/svg">
  <g transform="matrix(1.0, 0.0, 0.0, 1.0, -4.7, 1.85)">
    <path d="M10.6 1.35 L11.15 1.35 11.6 3.35 11.1 3.4 10.6 1.35 M9.8 -1.8 L10.3 -1.75 10.8 -0.05 11.85 0.0 9.2 1.05 10.25 -0.1 9.8 -1.8 M12.6 5.4 L12.95 5.65 13.25 5.95 12.5 5.4 12.6 5.4 M13.6 6.35 L14.05 6.9 13.75 7.8 13.5 8.05 13.1 8.8 13.35 8.45 12.8 9.55 12.45 11.45 12.45 12.3 12.2 12.75 11.9 12.7 11.8 12.65 11.25 12.15 10.4 11.6 10.0 11.4 9.55 11.3 9.65 11.2 9.35 11.2 8.95 11.2 9.45 11.45 8.1 12.15 7.0 11.85 7.75 11.1 7.95 11.0 7.85 10.7 7.85 10.55 7.8 9.65 7.8 9.5 7.7 8.95 7.6 8.2 7.5 7.7 7.7 8.35 7.7 8.4 7.85 9.6 7.9 9.6 8.0 10.2 7.9 10.5 7.95 10.5 8.2 10.6 8.5 10.85 8.55 10.8 8.6 10.75 9.05 10.95 9.2 11.0 9.95 9.25 10.6 11.45 10.5 11.4 10.55 11.4 10.0 11.15 10.4 11.45 9.95 11.2 9.95 11.25 10.7 11.65 11.9 12.35 10.9 11.7 11.55 12.05 11.55 11.95 12.1 12.15 12.25 12.2 12.15 11.8 12.2 11.6 11.0 7.95 12.25 5.95 12.4 5.65 12.4 5.7 12.45 5.65 13.2 6.4 13.55 7.0 13.3 6.45 13.2 6.4 12.8 5.95 12.45 5.65 12.35 5.6 12.35 5.5 13.25 6.15 13.6 6.35 M13.5 8.4 L13.35 8.75 14.7 6.95 12.75 5.4 14.6 5.45 14.7 6.95 18.3 6.15 16.5 7.25 16.95 7.15 17.45 9.4 16.95 9.6 16.45 7.3 14.7 6.95 15.15 8.05 13.5 8.7 13.35 8.75 12.95 9.75 13.05 9.7 12.85 10.5 12.9 10.5 12.8 10.8 12.8 11.35 12.75 11.55 12.8 11.55 13.25 11.35 13.75 13.05 15.5 13.9 15.0 14.2 14.15 14.5 14.55 16.35 14.1 16.65 13.65 14.7 12.15 14.35 15.0 14.2 13.25 13.3 12.75 11.55 12.55 12.0 12.7 10.55 12.9 9.7 12.85 9.7 13.25 8.75 13.5 8.4 M15.4 3.6 L15.9 3.55 16.5 5.55 16.0 5.65 15.4 3.6 M6.9 11.7 L6.15 10.45 7.1 10.75 7.0 11.85 6.9 11.7 M7.4 7.6 L7.25 7.1 7.2 6.9 6.95 6.4 6.7 5.5 7.1 5.1 7.65 4.85 7.75 4.8 9.0 7.55 8.05 10.05 7.75 8.05 7.85 8.45 7.8 8.0 7.55 7.25 7.7 7.9 7.35 6.7 7.2 6.35 7.2 5.85 7.15 5.85 7.35 5.45 7.3 5.45 7.1 5.8 7.05 5.75 7.1 6.35 7.05 6.2 7.1 6.5 7.5 7.7 7.25 7.0 7.4 7.6 M5.25 6.7 L5.45 5.3 6.05 6.1 5.25 6.7 M5.4 5.25 L4.7 4.3 4.75 4.3 5.6 4.25 5.45 5.25 6.3 4.35 5.9 2.95 6.45 2.95 6.85 4.3 6.3 4.35 7.4 4.65 6.6 5.5 5.45 5.25 5.4 5.25 M8.9 3.65 L9.25 3.1 9.45 2.6 9.85 2.3 10.3 2.75 10.95 3.9 10.9 3.9 10.85 4.1 9.95 6.05 9.1 3.85 9.6 3.2 9.6 3.15 9.25 3.55 9.2 3.5 9.05 3.7 9.0 3.8 8.95 3.7 8.9 3.65 M8.0 0.25 L9.3 -0.05 9.2 1.05 8.0 0.25 M11.3 3.85 L11.1 3.85 10.7 3.2 10.6 2.95 10.95 3.25 11.1 3.5 11.3 3.85 M9.2 1.05 L9.8 2.25 8.6 3.2 9.2 1.05 M12.2 11.6 L12.2 11.75 12.45 10.55 12.7 9.6 12.85 9.2 13.25 8.3 13.35 8.15 13.55 7.6 13.25 8.3 12.9 9.05 12.85 9.2 12.75 9.4 12.7 9.6 12.6 9.85 12.45 10.55 12.2 11.6 M9.6 3.1 L9.55 3.1 9.3 3.45 9.6 3.1 M8.55 10.8 L8.2 10.6 8.35 10.65 8.55 10.8 M8.95 11.2 L8.95 11.15 8.9 11.1 8.85 11.2 8.25 11.15 8.35 11.2 8.85 11.2 8.95 11.2" fill="#7f6600" fill-rule="evenodd" stroke="none"/>
    <path d="M11.15 1.35 L10.6 1.35 11.85 0.0 11.9 0.0 12.4 0.05 11.15 1.35 M13.5 4.0 L13.6 4.05 12.75 5.35 12.75 5.4 14.7 6.95 13.35 8.75 13.5 8.4 13.75 7.8 14.05 6.9 13.6 6.35 13.25 5.95 12.95 5.65 12.6 5.4 13.5 4.0 13.2 4.1 10.95 3.9 11.0 3.85 11.1 3.85 11.3 3.85 13.5 4.0 M12.75 5.4 L13.25 5.3 14.65 5.35 15.4 3.6 14.7 6.95 14.6 5.45 12.75 5.4 M16.5 5.55 L18.75 6.05 16.95 7.15 16.5 7.25 18.3 6.15 16.0 5.65 16.5 5.55 M16.95 9.6 L15.15 8.05 14.7 6.95 16.95 9.6 M13.5 8.7 L13.1 9.65 12.9 10.5 12.85 11.2 12.8 11.35 12.8 11.55 12.75 11.55 12.8 11.35 12.8 10.8 12.9 10.5 12.85 10.5 13.05 9.7 12.95 9.75 13.35 8.75 13.5 8.7 M14.1 16.65 L12.65 15.05 11.3 15.25 11.75 13.85 11.1 12.9 12.15 14.35 14.1 16.65 M10.7 12.4 L11.25 12.15 11.8 12.65 11.9 12.7 12.2 12.75 12.45 12.3 12.55 12.0 12.75 11.55 12.15 14.35 12.15 12.85 10.7 12.4 M9.55 11.3 L9.35 11.2 9.65 11.2 9.55 11.3 M9.45 11.45 L8.65 12.0 8.55 12.05 8.1 12.15 9.45 11.45 M7.55 12.55 L6.65 12.8 6.9 11.7 7.0 11.85 7.1 10.75 6.15 10.45 6.65 10.3 7.2 10.45 7.45 9.65 7.0 11.85 7.55 12.55 M7.75 9.55 L7.7 8.95 7.8 9.5 7.8 9.65 7.85 10.55 7.8 10.45 7.8 9.65 7.75 9.55 M7.6 8.2 L7.4 7.6 7.25 7.0 7.5 7.7 7.6 8.2 M7.0 7.15 L6.2 6.3 5.75 6.6 5.25 6.7 6.05 6.1 5.45 5.3 5.4 5.25 5.45 5.25 5.45 5.3 7.0 7.15 M4.75 4.3 L5.6 4.2 5.65 4.25 5.45 5.25 5.6 4.25 4.75 4.3 M6.85 4.3 L7.6 4.5 7.3 3.75 7.4 3.9 9.05 7.6 7.95 10.45 9.0 10.85 9.05 10.95 8.6 10.75 8.35 10.65 8.2 10.6 7.95 10.5 7.9 10.5 8.0 10.2 8.05 10.05 9.0 7.55 7.75 4.8 7.75 4.75 7.65 4.85 7.1 5.1 6.7 5.5 6.6 5.5 7.4 4.65 6.3 4.35 6.85 4.3 M7.2 3.6 L7.3 3.5 8.9 3.65 8.95 3.7 8.85 3.75 7.2 3.6 M9.25 3.1 L9.15 3.15 8.6 3.2 8.95 1.35 8.0 0.25 9.2 1.05 11.1 3.4 11.1 3.5 10.95 3.25 10.6 2.95 10.3 2.75 9.85 2.3 9.45 2.6 9.25 3.1 M9.3 -0.05 L9.8 -1.85 9.8 -1.8 9.2 1.05 8.6 3.2 9.8 2.25 9.2 1.05 9.3 -0.05 M10.85 4.1 L10.8 4.3 9.7 6.75 9.75 6.5 9.95 6.05 10.85 4.1 M12.35 5.6 L12.45 5.65 12.8 5.95 13.2 6.4 13.3 6.45 13.55 7.0 13.2 6.4 12.45 5.65 12.4 5.7 12.4 5.65 12.35 5.6 M12.2 11.6 L12.45 10.55 12.6 9.85 12.7 9.6 12.75 9.4 12.85 9.2 12.9 9.05 13.25 8.3 13.55 7.6 13.35 8.15 13.25 8.3 12.85 9.2 12.7 9.6 12.45 10.55 12.2 11.75 12.2 11.6 M12.1 12.15 L11.55 11.95 10.9 11.7 10.7 11.65 10.65 11.55 10.6 11.45 9.95 9.25 9.8 8.95 9.75 8.75 9.8 8.7 10.65 11.45 10.65 11.55 11.95 12.05 12.1 12.1 12.1 12.15 M6.95 6.4 L7.2 6.9 7.25 7.1 6.95 6.4 M8.95 11.2 L8.85 11.2 8.35 11.2 8.25 11.15 8.85 11.2 8.9 11.1 8.95 11.15 8.95 11.2" fill="#000000" fill-rule="evenodd" stroke="none"/>
    <path d="M11.85 0.0 L10.6 1.35 11.1 3.4 9.2 1.05 11.85 0.0 M9.8 -1.8 L10.25 -0.1 9.2 1.05 9.8 -1.8 M13.25 5.95 L13.6 6.35 13.25 6.15 12.35 5.5 12.5 5.4 13.25 5.95 M13.75 7.8 L13.5 8.4 13.25 8.75 12.85 9.7 12.9 9.7 12.7 10.55 12.55 12.0 12.45 12.3 12.45 11.45 12.8 9.55 13.35 8.45 13.1 8.8 13.5 8.05 13.75 7.8 M11.1 12.9 L10.7 12.4 12.15 12.85 12.15 14.35 12.75 11.55 13.25 13.3 15.0 14.2 12.15 14.35 13.65 14.7 14.1 16.65 12.15 14.35 11.1 12.9 M8.65 12.0 L9.0 13.55 8.5 13.75 7.55 12.55 7.0 11.85 7.45 9.65 7.75 9.55 7.8 9.65 7.8 10.45 7.85 10.55 7.85 10.7 7.95 11.0 7.75 11.1 7.0 11.85 8.1 12.15 8.55 12.05 8.65 12.0 M7.25 7.1 L7.0 7.15 5.45 5.3 5.45 5.25 5.65 4.25 5.9 2.95 6.3 4.35 5.45 5.25 6.6 5.5 6.7 5.5 6.95 6.4 7.25 7.1 M11.1 3.85 L11.0 3.85 10.95 3.9 10.3 2.75 10.6 2.95 10.7 3.2 11.1 3.85 M11.55 11.95 L11.55 12.05 10.9 11.7 11.9 12.35 10.7 11.65 9.95 11.25 9.95 11.2 10.4 11.45 10.0 11.15 10.55 11.4 10.5 11.4 10.6 11.45 10.65 11.55 10.7 11.65 10.9 11.7 11.55 11.95 M8.6 10.75 L8.55 10.8 8.5 10.85 8.2 10.6 8.55 10.8 8.35 10.65 8.6 10.75 M8.0 10.2 L7.9 9.6 7.85 9.6 7.7 8.4 7.7 8.35 7.5 7.7 7.1 6.5 7.05 6.2 7.1 6.35 7.05 5.75 7.1 5.8 7.3 5.45 7.35 5.45 7.15 5.85 7.2 5.85 7.2 6.35 7.35 6.7 7.7 7.9 7.55 7.25 7.8 8.0 7.85 8.45 7.75 8.05 8.05 10.05 8.0 10.2 M14.7 6.95 L15.4 3.6 16.0 5.65 18.3 6.15 14.7 6.95 16.45 7.3 16.95 9.6 14.7 6.95 M9.6 3.1 L9.3 3.45 9.55 3.1 9.6 3.1 M9.0 3.8 L9.05 3.7 9.2 3.5 9.25 3.55 9.6 3.15 9.6 3.2 9.1 3.85 9.05 3.8 9.0 3.8" fill="#ffcc00" fill-rule="evenodd" stroke="none"/>
    <path d="M9.95 6.05 L9.75 6.5 9.7 6.75 8.65 4.1 8.85 3.75 8.95 3.7 9.0 3.8 9.05 3.8 9.1 3.85 9.95 6.05 M11.0 7.95 L12.2 11.6 12.15 11.8 12.25 12.2 12.1 12.15 12.1 12.1 11.95 12.05 11.75 11.8 10.35 8.0 11.35 6.3 10.3 7.95 11.75 5.55 10.3 7.85 12.2 4.6 13.1 4.15 10.75 7.95 11.0 7.95 M11.75 6.2 L10.8 7.75 11.8 6.2 11.75 6.2 M9.8 8.95 L9.05 10.95 9.0 10.85 9.7 8.95 9.15 10.25 9.75 8.75 9.8 8.95" fill="#c8c8c8" fill-rule="evenodd" stroke="none"/>
    <path d="M13.5 4.0 L12.6 5.4 12.5 5.4 12.35 5.5 12.35 5.6 12.4 5.65 12.25 5.95 11.0 7.95 10.75 7.95 13.1 4.15 12.2 4.6 10.3 7.85 11.75 5.55 10.3 7.95 11.35 6.3 10.35 8.0 11.75 11.8 11.95 12.05 10.65 11.55 10.65 11.45 9.8 8.7 9.75 8.75 9.15 10.25 9.7 8.95 9.0 10.85 7.95 10.45 9.05 7.6 7.4 3.9 7.3 3.75 7.2 3.6 8.85 3.75 8.65 4.1 9.7 6.75 10.8 4.3 10.85 4.1 10.9 3.9 10.95 3.9 13.2 4.1 13.5 4.0 M9.95 9.25 L9.2 11.0 9.05 10.95 9.8 8.95 9.95 9.25 M11.75 6.2 L11.8 6.2 10.8 7.75 11.75 6.2" fill="#646464" fill-rule="evenodd" stroke="none"/>
  </g>
</svg>
