<?xml version="1.0" encoding="UTF-8" standalone="no"?>
<svg xmlns:ffdec="https://www.free-decompiler.com/flash" xmlns:xlink="http://www.w3.org/1999/xlink" ffdec:objectType="shape" height="18.9px" width="11.6px" xmlns="http://www.w3.org/2000/svg">
  <g transform="matrix(1.0, 0.0, 0.0, 1.0, -5.9, 1.8)">
    <path d="M11.15 3.85 L12.75 4.05 12.5 4.15 12.35 4.2 10.65 4.0 10.55 3.8 10.2 3.25 9.95 3.05 9.95 2.9 10.15 3.1 10.3 3.35 10.35 3.4 10.65 3.9 10.65 3.95 10.75 3.85 10.9 3.85 11.15 3.85 M12.9 4.1 L12.95 4.1 13.0 4.15 12.3 5.45 12.75 5.4 13.65 5.45 14.3 3.7 13.45 6.95 13.6 5.6 12.15 5.5 12.2 5.45 12.9 4.1 M15.5 5.7 L17.5 6.35 15.9 7.45 15.25 7.6 15.25 7.55 16.8 6.45 14.8 5.8 15.5 5.7 M15.65 10.05 L14.15 8.35 13.3 8.75 12.95 8.8 12.75 9.25 12.8 9.1 12.75 9.1 12.9 8.85 12.75 8.85 14.1 8.25 13.4 7.1 15.65 10.05 M12.55 9.7 L12.55 9.85 12.5 9.85 12.55 9.7 M12.35 11.0 L12.3 11.65 12.3 11.2 12.35 11.0 M14.0 14.65 L13.45 14.85 12.85 15.05 11.45 14.5 14.0 14.65 M11.95 15.3 L10.95 15.35 11.25 14.2 11.4 14.5 11.65 13.0 10.45 12.45 10.95 12.3 10.95 12.25 9.9 11.35 9.6 11.2 9.35 11.15 9.1 11.1 8.7 11.1 8.65 11.05 9.05 11.05 9.5 11.15 9.5 11.1 9.9 11.25 9.85 11.3 9.9 11.35 9.95 11.3 10.55 11.8 10.95 12.25 11.5 12.85 11.65 12.9 11.95 12.2 12.05 11.85 11.4 14.5 11.45 14.5 11.4 14.55 11.95 15.3 M9.7 11.4 L9.15 11.8 9.3 13.45 9.0 11.9 8.5 12.0 9.1 11.55 9.7 11.4 M7.9 12.4 L7.35 12.55 7.4 11.65 7.9 12.4 M7.0 10.2 L7.55 10.1 7.75 10.2 7.7 10.55 7.0 10.2 M8.25 9.4 L8.2 8.85 8.1 8.05 8.2 8.4 8.2 8.85 8.25 9.2 8.25 9.4 M7.05 6.25 L6.85 6.45 6.3 6.55 6.9 6.0 7.05 6.25 M6.25 5.15 L5.9 4.2 6.5 4.15 6.25 5.15 M7.35 2.9 L7.75 4.3 8.05 4.4 7.85 3.85 8.0 4.05 9.25 7.6 8.45 10.2 9.1 10.65 9.15 10.85 8.35 10.35 8.45 10.0 8.45 9.9 9.15 7.5 8.2 4.85 Q7.95 5.0 7.65 5.1 L7.45 5.4 7.3 5.4 7.85 4.6 7.1 4.3 7.65 4.25 7.35 2.9 M7.8 3.65 L7.8 3.5 7.9 3.45 8.0 3.45 9.1 3.6 9.3 3.15 8.8 3.2 9.75 2.25 9.05 1.1 10.75 3.4 10.6 3.25 10.35 2.95 9.8 2.3 9.65 2.5 9.1 3.7 8.9 3.85 7.8 3.65 M9.0 1.25 L8.35 0.25 9.3 0.0 9.05 1.1 9.0 1.25 M10.5 4.2 L10.5 4.35 9.95 5.95 10.5 4.2 M9.65 6.65 L9.95 5.95 9.7 6.7 9.65 6.65 M11.9 5.75 L11.9 5.7 12.05 5.85 12.65 6.55 12.85 7.1 12.8 7.85 12.8 7.15 12.6 6.65 11.9 5.75 M12.1 5.45 L13.4 7.1 12.65 8.9 12.7 8.65 13.15 7.05 12.1 5.45 M12.65 8.25 L12.6 8.5 12.1 9.8 11.9 10.8 11.95 10.4 11.95 10.5 12.1 9.65 12.65 8.25 M11.8 11.65 L11.75 11.75 11.9 10.8 11.9 11.3 11.85 11.2 11.8 11.65 M11.4 12.05 L11.65 12.3 10.45 11.65 10.4 11.5 10.45 11.5 11.4 12.05 M9.9 9.35 L9.7 8.7 9.7 8.45 10.4 11.4 10.4 11.5 9.9 9.35" fill="#000000" fill-rule="evenodd" stroke="none"/>
    <path d="M9.75 -1.8 L10.35 -1.75 10.75 -0.05 12.05 0.0 11.05 1.35 11.4 3.35 10.4 1.35 9.05 1.1 10.1 -0.1 9.75 -1.8 M10.9 3.4 L11.15 3.85 10.9 3.85 10.75 3.65 10.55 3.25 10.6 3.25 10.75 3.4 10.9 3.4 M14.3 3.7 L15.0 3.65 15.5 5.7 14.8 5.8 14.3 3.7 M15.9 7.45 L16.3 9.85 15.65 10.05 15.2 7.6 13.4 7.1 14.1 8.25 12.75 8.85 12.9 8.85 12.75 9.1 12.8 9.1 12.75 9.25 12.55 9.7 12.5 9.85 12.55 9.85 12.35 11.0 12.3 11.2 12.3 11.65 12.3 11.7 12.1 11.75 12.2 10.75 12.1 10.75 12.3 9.85 12.55 9.1 12.5 9.1 12.2 9.9 12.1 10.75 11.95 12.2 11.65 12.9 11.5 12.85 10.95 12.25 10.55 11.8 9.95 11.3 9.9 11.35 9.85 11.3 9.9 11.25 9.5 11.1 9.5 11.15 9.05 11.05 8.65 11.05 8.7 11.1 9.1 11.1 9.35 11.15 9.7 11.4 9.1 11.55 8.5 12.0 7.4 11.65 7.0 10.2 7.7 10.55 7.4 11.65 8.3 10.85 8.35 10.85 8.3 10.5 8.25 9.4 8.25 9.2 8.2 8.85 8.2 8.4 8.1 8.05 7.85 7.0 7.45 5.45 7.45 5.4 7.65 5.1 Q7.95 5.0 8.2 4.85 L9.15 7.5 8.45 9.9 8.35 8.8 8.25 8.3 8.2 8.05 8.15 7.9 8.2 8.05 8.25 8.3 8.45 10.0 8.35 10.35 9.15 10.85 9.35 10.95 9.4 10.85 9.9 9.35 10.4 11.5 10.45 11.65 11.65 12.3 11.75 12.4 11.7 12.0 11.7 11.85 11.75 11.75 10.75 7.95 11.9 5.8 11.9 5.75 12.6 6.65 12.8 7.15 12.8 7.85 12.85 7.1 12.65 6.55 12.05 5.85 11.9 5.7 11.85 5.65 11.9 5.5 12.0 5.45 12.1 5.45 12.2 5.45 12.15 5.5 13.6 5.6 13.45 6.95 13.4 7.1 14.8 5.8 16.8 6.45 15.25 7.55 15.25 7.6 15.9 7.45 M13.15 13.35 L14.6 14.4 14.0 14.65 12.55 13.55 13.15 13.35 M13.45 14.85 L13.8 16.85 13.2 17.1 12.85 15.05 13.45 14.85 M11.25 14.2 L10.45 12.45 11.65 13.0 11.4 14.5 11.25 14.2 M6.3 6.55 L6.25 5.15 6.9 6.0 6.3 6.55 M8.8 3.2 L9.0 1.25 9.05 1.1 9.75 2.25 8.8 3.2 M10.35 2.95 L10.4 3.2 10.75 3.85 10.65 3.95 10.65 3.9 10.35 3.4 10.3 3.35 10.15 3.1 9.95 2.9 9.95 3.05 10.2 3.25 10.55 3.8 10.65 4.0 10.55 4.05 10.5 4.2 9.95 5.95 9.3 3.9 9.25 3.8 9.15 3.7 9.1 3.7 9.65 2.5 9.8 2.3 10.35 2.95 M13.4 7.1 L12.1 5.45 13.15 7.05 12.7 8.65 12.55 8.95 12.5 9.1 12.65 8.9 13.4 7.1 M12.65 8.25 L12.1 9.65 11.95 10.5 11.95 10.4 11.9 10.8 12.1 9.8 12.6 8.5 12.65 8.25 M11.8 11.65 L11.85 11.2 11.9 11.3 11.9 10.8 11.75 11.75 11.8 11.65 M7.3 5.4 L6.25 5.15 7.1 4.3 7.85 4.6 7.3 5.4 M7.8 5.7 L7.75 5.7 7.75 5.85 7.7 5.7 7.75 6.2 7.95 6.9 7.8 6.3 7.8 5.7 M8.15 7.9 L8.1 7.7 8.05 7.65 8.15 7.9 8.25 8.3 8.15 7.9 M8.1 7.7 L7.95 6.9 8.15 7.75 8.1 7.7 8.15 7.75 7.95 6.9 8.1 7.7" fill="#7f6600" fill-rule="evenodd" stroke="none"/>
    <path d="M9.75 -1.8 L10.1 -0.1 9.05 1.1 10.4 1.35 11.4 3.35 10.9 3.4 10.75 3.4 9.05 1.1 9.3 0.0 9.75 -1.8 M12.3 11.7 L12.75 11.55 13.15 13.35 12.55 13.55 14.0 14.65 11.45 14.5 12.85 15.05 13.2 17.1 11.95 15.3 11.4 14.55 11.45 14.5 11.4 14.5 12.05 11.85 11.95 12.2 12.1 10.75 12.2 9.9 12.5 9.1 12.55 9.1 12.3 9.85 12.1 10.75 12.2 10.75 12.1 11.75 12.3 11.7 M9.3 13.45 L8.75 13.65 7.9 12.4 7.4 11.65 8.5 12.0 9.0 11.9 9.3 13.45 M7.75 10.2 L7.95 9.5 8.25 9.4 8.3 10.5 8.35 10.85 8.3 10.85 7.4 11.65 7.7 10.55 7.75 10.2 M7.85 7.0 L7.6 7.0 7.05 6.25 6.9 6.0 6.25 5.15 7.3 5.4 7.45 5.4 7.45 5.45 7.85 7.0 M6.5 4.15 L6.8 2.9 7.35 2.9 7.65 4.25 7.1 4.3 6.25 5.15 6.5 4.15 M10.35 2.95 L10.6 3.25 10.55 3.25 10.75 3.65 10.9 3.85 10.75 3.85 10.4 3.2 10.35 2.95 M13.4 7.1 L13.45 6.95 14.3 3.7 14.8 5.8 13.4 7.1 15.2 7.6 15.65 10.05 13.4 7.1 M12.7 8.65 L12.65 8.9 12.5 9.1 12.55 8.95 12.7 8.65 M8.15 7.9 L8.05 7.65 8.1 7.7 8.15 7.9 M7.8 5.7 L7.8 6.3 7.95 6.9 7.75 6.2 7.7 5.7 7.75 5.85 7.75 5.7 7.8 5.7 M8.25 8.3 L8.35 8.8 8.45 9.9 8.45 10.0 8.25 8.3" fill="#ffcc00" fill-rule="evenodd" stroke="none"/>
    <path d="M12.35 4.2 L12.5 4.15 11.45 6.2 11.4 6.2 11.3 6.25 10.45 8.0 10.6 8.0 10.75 7.95 11.75 11.75 11.7 11.85 11.7 12.0 11.75 12.4 11.65 12.3 11.4 12.05 10.25 7.95 10.35 7.95 10.45 8.0 11.25 6.25 11.2 6.25 11.1 6.3 11.05 6.3 11.95 4.45 12.05 4.35 12.35 4.2 M9.1 3.7 L9.15 3.7 9.25 3.8 9.3 3.9 9.95 5.95 9.65 6.65 8.85 4.0 8.9 3.85 9.1 3.7" fill="#c8c8c8" fill-rule="evenodd" stroke="none"/>
    <path d="M12.75 4.05 L12.9 4.1 12.2 5.45 12.1 5.45 12.0 5.45 11.9 5.5 11.85 5.65 11.9 5.7 11.9 5.75 11.9 5.8 10.75 7.95 10.6 8.0 10.45 8.0 11.3 6.25 11.4 6.2 11.45 6.2 12.5 4.15 12.75 4.05 M7.85 3.85 L7.8 3.65 8.9 3.85 8.85 4.0 9.65 6.65 9.7 6.7 9.95 5.95 10.5 4.35 10.5 4.2 10.55 4.05 10.65 4.0 12.35 4.2 12.05 4.35 11.95 4.45 11.05 6.3 11.1 6.3 11.2 6.25 11.25 6.25 10.45 8.0 10.35 7.95 10.25 7.95 11.4 12.05 10.45 11.5 10.4 11.5 10.4 11.4 9.7 8.45 9.7 8.7 9.9 9.35 9.4 10.85 9.35 10.95 9.15 10.85 9.1 10.65 8.45 10.2 9.25 7.6 8.0 4.05 7.85 3.85" fill="#646464" fill-rule="evenodd" stroke="none"/>
  </g>
</svg>
