<?xml version="1.0" encoding="UTF-8" standalone="no"?>
<svg xmlns:ffdec="https://www.free-decompiler.com/flash" xmlns:xlink="http://www.w3.org/1999/xlink" ffdec:objectType="shape" height="3.05px" width="36.05px" xmlns="http://www.w3.org/2000/svg">
  <g transform="matrix(1.0, 0.0, 0.0, 1.0, 8.25, 1.5)">
    <path d="M3.6 -0.7 L11.45 -0.95 21.05 -1.1 24.4 1.0 26.55 1.55 20.75 1.35 11.45 0.95 3.75 0.65 3.6 -0.7 M-3.6 0.65 L-7.4 0.9 -7.4 1.45 -8.05 1.45 Q-8.45 0.0 -8.05 -1.5 L-7.4 -1.5 -7.4 -0.95 -3.45 -0.65 -3.6 0.65" fill="url(#gradient0)" fill-rule="evenodd" stroke="none"/>
    <path d="M-3.45 -0.65 L-2.6 -0.65 -1.6 -0.65 -0.65 -0.65 0.45 -0.65 1.35 -0.65 2.5 -0.65 3.0 -0.65 3.6 -0.7 3.75 0.65 3.1 0.65 2.4 0.65 1.6 0.6 0.4 0.6 -0.75 0.6 -1.75 0.6 -2.75 0.6 -3.6 0.65 -3.45 -0.65 M3.0 -0.65 L3.1 0.65 3.0 -0.65 M2.4 0.65 L2.5 -0.65 2.4 0.65 M1.35 -0.65 L1.6 0.6 1.35 -0.65 M0.45 -0.65 L0.4 0.6 0.45 -0.65 M-2.75 0.6 L-2.6 -0.65 -2.75 0.6 M-0.75 0.6 L-0.65 -0.65 -0.75 0.6 M-1.6 -0.65 L-1.75 0.6 -1.6 -0.65" fill="url(#gradient1)" fill-rule="evenodd" stroke="none"/>
    <path d="M21.05 -1.1 L25.3 -1.2 27.35 -0.55 27.8 1.05 26.55 1.55 24.4 1.0 21.05 -1.1" fill="url(#gradient2)" fill-rule="evenodd" stroke="none"/>
    <path d="M-3.45 -0.65 L-3.6 0.65 M0.4 0.6 L0.45 -0.65 M1.6 0.6 L1.35 -0.65 M2.5 -0.65 L2.4 0.65 M3.1 0.65 L3.0 -0.65 M3.6 -0.7 L3.75 0.65 M-1.75 0.6 L-1.6 -0.65 M-0.65 -0.65 L-0.75 0.6 M-2.6 -0.65 L-2.75 0.6" fill="none" stroke="#000000" stroke-linecap="round" stroke-linejoin="round" stroke-width="0.05"/>
    <path d="M27.35 -0.55 L27.8 1.05 26.55 1.55 20.75 1.35 11.45 0.95 Q-3.6 0.3 -7.4 0.9 L-7.4 1.45 -8.05 1.45 Q-8.45 0.0 -8.05 -1.5 L-7.4 -1.5 -7.4 -0.95 Q-3.6 -0.35 11.45 -0.95 L25.3 -1.2 27.35 -0.55 Z" fill="none" stroke="#000000" stroke-linecap="round" stroke-linejoin="round" stroke-opacity="0.6" stroke-width="0.05"/>
  </g>
  <defs>
    <linearGradient gradientTransform="matrix(0.0, 0.0019, -0.0019, 0.0, 26.6, -0.05)" gradientUnits="userSpaceOnUse" id="gradient0" spreadMethod="pad" x1="-819.2" x2="819.2">
      <stop offset="0.0" stop-color="#bda757"/>
      <stop offset="0.23921568627450981" stop-color="#ead27b"/>
      <stop offset="0.4392156862745098" stop-color="#e2cd67"/>
      <stop offset="0.8" stop-color="#c4a532"/>
      <stop offset="1.0" stop-color="#73621e"/>
    </linearGradient>
    <linearGradient gradientTransform="matrix(0.0, 7.0E-4, -8.0E-4, 0.0, -3.1, 0.0)" gradientUnits="userSpaceOnUse" id="gradient1" spreadMethod="pad" x1="-819.2" x2="819.2">
      <stop offset="0.0" stop-color="#d9d9bf"/>
      <stop offset="0.27450980392156865" stop-color="#edeedd"/>
      <stop offset="1.0" stop-color="#b0b082"/>
    </linearGradient>
    <linearGradient gradientTransform="matrix(0.0025, 0.0037, -0.0016, 0.0011, 26.15, 0.8)" gradientUnits="userSpaceOnUse" id="gradient2" spreadMethod="pad" x1="-819.2" x2="819.2">
      <stop offset="0.0" stop-color="#f7e399"/>
      <stop offset="0.13333333333333333" stop-color="#edcd57"/>
      <stop offset="0.2196078431372549" stop-color="#f7e08c"/>
      <stop offset="0.3137254901960784" stop-color="#d9b840"/>
      <stop offset="0.5058823529411764" stop-color="#faecb9"/>
      <stop offset="0.6431372549019608" stop-color="#dec568"/>
      <stop offset="0.8549019607843137" stop-color="#f5dd89"/>
      <stop offset="1.0" stop-color="#d9be5b"/>
    </linearGradient>
  </defs>
</svg>
