<?xml version="1.0" encoding="UTF-8" standalone="no"?>
<svg xmlns:ffdec="https://www.free-decompiler.com/flash" xmlns:xlink="http://www.w3.org/1999/xlink" ffdec:objectType="shape" height="19.25px" width="8.55px" xmlns="http://www.w3.org/2000/svg">
  <g transform="matrix(1.0, 0.0, 0.0, 1.0, -7.15, 1.8)">
    <path d="M8.95 1.1 L10.1 1.35 10.85 1.35 11.15 3.4 10.7 3.4 10.45 3.4 10.6 3.85 10.5 3.85 10.3 3.3 10.15 3.0 9.7 2.25 8.95 1.1 9.2 0.1 9.7 -1.8 10.4 -1.75 10.65 -0.1 9.95 -0.1 8.95 1.1 M12.4 5.5 L12.9 3.75 13.75 3.7 14.15 5.9 13.3 5.95 11.9 7.25 12.4 5.5 M14.75 10.2 L13.9 10.35 12.85 8.7 12.7 8.45 11.9 7.25 13.55 7.8 14.45 7.7 14.75 10.2 M11.7 11.85 L12.1 11.75 12.4 13.6 11.65 13.75 10.55 14.6 11.0 13.15 11.15 12.5 11.25 12.15 11.35 11.9 11.3 11.7 11.4 11.75 11.45 10.7 11.6 10.0 11.65 10.0 11.5 10.85 11.65 10.85 11.6 11.85 11.7 11.85 M12.85 17.25 L12.1 17.45 11.0 15.45 10.55 14.6 11.85 15.3 12.6 15.1 12.85 17.25 M9.65 13.4 L9.05 13.5 8.4 12.3 7.95 11.45 8.85 11.9 9.45 11.8 9.65 13.4 M8.35 9.95 L8.5 9.35 8.75 9.35 8.85 10.75 8.65 10.8 7.95 11.45 8.35 9.95 M8.5 6.9 L8.25 6.95 7.95 6.35 7.15 5.05 7.4 4.1 7.75 2.9 8.3 2.9 8.4 3.55 8.35 3.65 8.4 3.75 8.5 4.2 7.95 4.25 7.15 5.05 8.1 5.35 8.2 5.35 8.35 6.35 8.45 6.65 8.5 6.9 M8.9 9.55 L8.9 9.7 8.8 8.85 8.75 8.3 8.7 7.95 8.65 7.55 8.45 6.15 8.7 7.65 8.75 7.75 8.85 8.8 8.85 9.0 8.9 9.35 8.9 9.55 M8.4 5.65 L8.45 5.65 8.45 5.95 8.4 5.65" fill="#ffcc00" fill-rule="evenodd" stroke="none"/>
    <path d="M10.85 1.35 L11.6 0.0 11.1 1.1 11.15 3.4 10.85 1.35 M10.8 -0.05 L8.95 1.1 9.95 -0.1 10.65 -0.1 10.4 -1.75 10.8 -0.05 M8.95 1.1 L8.75 0.25 9.2 0.1 8.95 1.1 M13.75 3.7 L14.25 5.9 15.7 6.6 14.55 7.6 14.75 10.2 14.45 7.7 13.55 7.8 14.75 6.65 13.3 5.95 14.15 5.9 13.75 3.7 M12.85 8.7 L12.5 8.9 12.2 8.95 11.7 9.0 12.7 8.45 12.85 8.7 M11.9 9.85 L11.8 10.8 11.75 11.65 11.7 11.65 11.8 10.8 11.8 10.3 11.9 9.85 M12.1 11.75 L12.7 13.95 12.4 13.6 12.1 11.75 M13.45 14.8 L12.75 15.1 12.85 17.25 12.6 15.1 11.85 15.3 10.55 14.6 11.0 15.45 10.55 15.45 10.55 14.6 12.7 15.0 13.45 14.8 M10.2 12.45 L10.65 12.4 9.95 11.35 9.7 11.15 9.05 11.0 9.0 10.9 8.85 10.75 8.75 9.35 8.7 8.0 8.6 7.45 8.5 6.9 8.45 6.65 8.35 6.35 8.2 5.35 8.25 5.35 8.25 5.25 8.4 5.0 8.6 4.85 8.65 4.85 8.6 4.55 8.4 4.55 7.15 5.05 7.15 4.1 7.4 4.1 7.15 5.05 7.95 4.25 8.5 4.2 8.4 3.75 8.35 3.65 8.4 3.55 8.3 2.9 8.5 3.45 8.7 3.45 9.35 3.55 9.5 3.15 9.1 3.15 9.7 2.25 10.15 3.0 10.45 3.9 10.5 3.85 10.6 3.85 10.65 3.85 10.9 3.9 12.0 4.15 11.8 4.15 11.65 4.2 11.6 4.2 11.55 4.25 11.15 4.45 10.9 4.65 9.95 7.9 10.75 11.95 10.9 12.25 11.15 12.5 11.0 13.15 10.2 12.45 M9.9 11.4 L9.7 11.6 9.65 13.4 9.45 11.8 8.85 11.9 7.95 11.45 8.4 12.3 8.1 12.35 7.95 11.45 7.85 10.05 8.35 9.95 7.95 11.45 9.3 11.5 9.9 11.4 M7.95 6.35 L7.4 6.4 7.15 5.05 7.95 6.35 M12.2 4.15 L12.25 4.2 12.25 4.3 11.75 5.5 12.05 5.45 12.4 5.5 11.9 7.25 11.7 9.0 11.45 9.95 11.35 10.75 11.3 10.95 11.25 12.15 11.15 12.5 11.1 12.0 11.15 11.9 11.15 11.75 11.1 11.25 10.5 8.0 11.25 6.0 11.3 5.8 11.2 5.6 11.5 6.0 11.3 5.5 11.65 5.5 12.2 4.15 M11.35 6.35 L11.55 7.25 11.4 7.3 11.55 7.8 11.5 8.3 11.6 8.35 11.65 8.0 11.7 7.9 11.7 7.15 11.35 6.25 11.35 6.35 M10.15 11.55 L10.1 11.2 10.0 11.05 10.0 11.1 9.7 10.95 9.7 10.9 9.65 11.0 10.0 11.3 10.15 11.55 M10.8 12.2 L10.3 11.7 10.5 12.0 10.8 12.3 10.8 12.2 M9.5 3.85 L9.8 3.3 9.75 3.15 9.95 3.05 9.95 3.0 9.9 2.9 9.7 3.1 9.7 2.85 9.45 3.6 9.4 3.6 9.35 3.7 9.35 3.65 9.2 3.75 9.1 3.85 9.1 3.9 9.0 4.15 9.6 6.8 9.65 6.55 9.9 5.65 9.5 3.85 M8.9 9.55 L8.95 9.25 8.55 6.15 8.55 5.7 8.5 5.7 8.6 5.4 8.6 5.35 8.7 5.15 8.7 5.05 8.7 5.0 8.5 5.25 8.7 5.05 8.45 5.4 8.4 5.65 8.35 5.6 8.6 7.45 8.65 7.55 8.7 7.95 8.7 8.0 8.75 8.3 8.8 8.85 8.85 9.9 8.9 9.7 8.9 9.55 M9.35 10.75 L9.1 10.55 9.15 10.65 9.35 10.8 9.4 10.8 9.45 10.85 9.55 10.9 9.6 10.75 9.85 9.65 9.65 8.6 9.25 10.6 9.3 10.7 9.35 10.75" fill="#000000" fill-rule="evenodd" stroke="none"/>
    <path d="M11.6 0.0 L10.85 1.35 10.1 1.35 8.95 1.1 10.8 -0.05 11.6 0.0 M12.2 8.95 L12.05 9.2 11.9 9.85 11.8 10.3 11.8 10.8 11.7 11.65 11.75 11.65 11.7 11.85 11.6 11.85 11.65 10.85 11.5 10.85 11.65 10.0 11.6 10.0 11.45 10.7 11.4 11.75 11.3 11.7 11.35 11.9 11.25 12.15 11.3 10.95 11.35 10.75 11.45 9.95 11.7 9.0 11.9 7.25 13.3 5.95 14.75 6.65 13.55 7.8 11.9 7.25 12.7 8.45 11.7 9.0 12.2 8.95 M12.7 13.95 L13.45 14.8 12.7 15.0 10.55 14.6 10.2 12.45 11.0 13.15 10.55 14.6 11.65 13.75 12.4 13.6 12.7 13.95 M9.7 11.15 L9.9 11.4 9.3 11.5 7.95 11.45 8.65 10.8 8.85 10.75 9.0 10.9 9.05 11.0 9.7 11.15 M9.1 3.15 L8.95 1.1 9.7 2.25 9.1 3.15 M10.15 3.0 L10.3 3.3 10.5 3.85 10.45 3.9 10.15 3.0 M10.6 3.85 L10.45 3.4 10.7 3.4 10.9 3.9 10.65 3.85 10.6 3.85 M11.35 6.35 L11.35 6.25 11.7 7.15 11.7 7.9 11.65 8.0 11.6 8.35 11.5 8.3 11.55 7.8 11.4 7.3 11.55 7.25 11.35 6.35 M11.3 5.5 L11.5 6.0 11.2 5.6 11.3 5.55 11.3 5.5 M11.75 9.25 L11.6 10.0 11.75 9.25 M10.8 12.2 L10.8 12.3 10.5 12.0 10.3 11.7 10.8 12.2 M10.15 11.55 L10.0 11.3 9.65 11.0 9.7 10.9 9.7 10.95 10.0 11.1 10.0 11.05 10.1 11.2 10.15 11.55 M9.35 3.7 L9.4 3.6 9.45 3.6 9.7 2.85 9.7 3.1 9.9 2.9 9.95 3.0 9.95 3.05 9.75 3.15 9.8 3.3 9.5 3.85 9.35 3.7 M7.15 5.05 L8.4 4.55 8.6 4.55 8.65 4.85 8.6 4.85 8.4 5.0 8.25 5.25 8.25 5.35 8.2 5.35 8.1 5.35 7.15 5.05 M8.6 7.45 L8.35 5.6 8.4 5.65 8.45 5.4 8.7 5.05 8.5 5.25 8.7 5.0 8.7 5.05 8.7 5.15 8.6 5.35 8.6 5.4 8.5 5.7 8.55 5.7 8.55 6.15 8.95 9.25 8.9 9.55 8.9 9.35 8.85 9.0 8.85 8.8 8.75 7.75 8.7 7.65 8.45 6.15 8.65 7.55 8.6 7.45 M8.9 9.7 L8.85 9.9 8.8 8.85 8.9 9.7 M8.75 8.3 L8.7 8.0 8.7 7.95 8.75 8.3 M8.4 5.65 L8.45 5.95 8.45 5.65 8.4 5.65 M9.4 10.8 L9.35 10.8 9.15 10.65 9.1 10.55 9.35 10.75 9.4 10.8" fill="#7f6600" fill-rule="evenodd" stroke="none"/>
    <path d="M12.0 4.15 L12.2 4.15 11.65 5.5 11.3 5.5 11.3 5.55 11.2 5.6 11.3 5.8 11.25 6.0 10.5 8.0 10.1 8.0 10.9 12.25 10.75 11.95 9.95 7.9 10.9 4.65 11.15 4.45 11.55 4.25 11.0 5.85 11.05 5.9 11.65 4.2 11.8 4.15 12.0 4.15 M9.65 6.55 L9.6 6.8 9.0 4.15 9.1 3.9 9.65 6.55 M9.35 10.75 L9.3 10.7 9.25 10.6 9.65 8.6 9.85 9.65 9.6 10.75 9.55 10.9 9.45 10.85 9.4 10.8 9.35 10.75" fill="#646464" fill-rule="evenodd" stroke="none"/>
    <path d="M11.55 4.25 L11.6 4.2 11.65 4.2 11.05 5.9 11.0 5.85 11.55 4.25 M10.5 8.0 L11.1 11.25 11.15 11.75 11.15 11.9 11.1 12.0 11.15 12.5 10.9 12.25 10.1 8.0 10.5 8.0 M9.35 3.7 L9.5 3.85 9.9 5.65 9.65 6.55 9.1 3.9 9.1 3.85 9.2 3.75 9.35 3.65 9.35 3.7" fill="#c8c8c8" fill-rule="evenodd" stroke="none"/>
  </g>
</svg>
