<?xml version="1.0" encoding="UTF-8" standalone="no"?>
<svg xmlns:ffdec="https://www.free-decompiler.com/flash" xmlns:xlink="http://www.w3.org/1999/xlink" ffdec:objectType="shape" height="19.45px" width="5.2px" xmlns="http://www.w3.org/2000/svg">
  <g transform="matrix(1.0, 0.0, 0.0, 1.0, -8.15, 1.8)">
    <path d="M10.35 12.45 L10.25 12.2 9.85 7.95 10.35 4.5 10.35 4.45 10.65 4.25 11.15 4.15 10.75 5.5 10.6 5.5 10.55 5.55 10.5 5.55 10.25 7.25 10.3 7.6 10.25 8.0 10.0 8.0 10.0 8.1 10.35 12.4 10.35 12.45 M9.65 6.15 L9.6 6.65 9.3 4.0 9.35 3.85 9.4 3.8 9.65 6.15 M9.85 10.35 L9.8 10.75 9.75 10.85 9.6 10.8 9.55 10.75 9.5 10.65 9.65 8.95 9.85 10.35" fill="#646464" fill-rule="evenodd" stroke="none"/>
    <path d="M10.65 1.35 L11.05 0.0 11.2 1.1 10.8 3.4 10.7 1.35 10.65 1.35 M10.9 -0.05 L10.2 -0.05 8.95 1.0 9.85 -0.1 10.55 -0.1 10.4 -1.8 10.9 -0.05 M8.85 1.05 L10.0 3.4 10.05 3.4 10.15 3.9 10.25 3.9 10.35 3.85 10.45 3.85 10.6 3.9 11.15 4.15 10.65 4.25 10.35 4.45 10.35 4.5 9.85 7.95 10.25 12.2 10.35 12.45 9.7 14.6 11.2 15.2 12.0 15.1 11.75 17.5 11.6 15.35 10.8 15.45 9.7 14.6 9.85 13.4 9.95 12.65 10.0 12.45 10.1 12.45 10.25 12.45 10.15 12.05 10.0 11.65 9.9 11.8 9.3 11.85 8.5 11.35 9.2 10.7 9.5 11.45 9.9 11.4 9.9 11.3 9.75 11.1 9.6 11.0 9.5 10.9 9.45 10.9 9.35 10.7 9.35 10.3 9.25 10.1 9.3 9.3 9.35 9.0 9.4 8.35 9.2 5.65 9.2 5.45 9.15 5.6 9.2 6.85 9.0 5.35 9.05 5.3 9.05 5.25 9.1 5.05 9.15 5.0 9.1 4.5 8.9 5.3 8.15 5.0 8.8 4.2 9.05 4.2 9.0 3.75 9.05 3.6 9.25 3.4 9.35 3.4 9.3 2.85 8.85 1.05 M10.25 8.0 L10.3 7.6 10.25 7.25 10.5 5.55 10.55 5.55 10.75 5.55 10.25 7.25 11.5 6.05 12.5 6.0 12.25 3.75 12.95 6.4 13.35 6.75 13.15 7.15 12.8 10.45 12.65 7.85 11.65 7.9 12.25 6.8 10.25 7.25 11.1 9.1 10.8 9.1 10.6 11.9 10.65 11.95 10.55 11.95 10.55 11.8 10.25 8.0 M11.3 11.9 L12.05 14.35 12.1 15.1 11.45 13.8 11.3 11.9 M8.5 11.35 L8.8 9.9 8.9 9.9 8.5 11.35 M8.75 6.3 L8.55 6.35 8.15 5.0 8.75 6.3 M9.7 3.8 L9.75 3.65 9.85 3.15 9.8 3.1 9.7 3.5 9.7 3.45 9.65 3.75 9.6 3.65 9.55 3.65 9.4 3.8 9.35 3.85 9.3 4.0 9.6 6.65 9.65 6.15 9.85 4.65 9.75 3.9 9.7 3.8 M9.4 3.15 L9.5 3.45 9.65 3.5 9.7 3.15 9.4 3.15 M9.85 10.35 L9.65 8.95 9.5 10.65 9.55 10.75 9.6 10.8 9.75 10.85 9.8 10.75 9.85 10.35" fill="#000000" fill-rule="evenodd" stroke="none"/>
    <path d="M11.05 0.0 L10.65 1.35 9.9 1.35 10.0 3.4 8.85 1.05 9.65 -1.8 9.85 -0.1 8.95 1.0 10.2 -0.05 10.9 -0.05 11.05 0.0 M10.45 3.85 L10.45 3.8 10.35 3.4 10.5 3.4 10.6 3.9 10.45 3.85 M10.05 3.4 L10.15 3.4 10.25 3.9 10.15 3.9 10.05 3.4 M10.35 12.45 L10.35 12.4 10.5 11.95 10.65 13.85 11.45 13.8 12.1 15.1 12.0 15.1 11.2 15.2 9.7 14.6 10.35 12.45 M10.55 5.55 L10.6 5.5 10.75 5.5 11.15 4.15 11.3 3.75 11.5 6.05 10.25 7.25 10.75 5.55 10.55 5.55 M11.25 9.35 L11.15 9.95 11.05 11.9 11.0 11.95 11.0 11.8 10.95 11.8 11.0 10.4 11.1 10.1 10.75 10.1 10.65 11.95 10.6 11.9 10.8 9.1 11.1 9.1 11.25 9.35 M10.9 17.65 L9.7 14.6 10.8 15.45 10.9 17.65 M9.4 13.45 L8.5 11.35 9.3 11.85 9.4 13.45 M8.9 9.9 L9.1 9.3 9.2 10.55 9.2 10.7 9.35 10.7 9.45 10.9 9.5 10.9 9.6 11.0 9.75 11.1 9.9 11.3 9.9 11.4 9.5 11.45 9.2 10.7 8.5 11.35 8.9 9.9 M9.35 9.0 L9.3 7.7 9.25 7.45 9.2 6.85 9.15 5.6 9.2 5.45 9.2 5.65 9.4 8.35 9.35 9.0 M9.0 6.85 L8.75 6.3 8.15 5.0 8.7 2.85 8.8 4.2 8.15 5.0 8.9 5.3 9.1 4.5 9.15 5.0 9.1 5.05 9.05 5.25 9.05 5.3 8.9 5.3 9.0 6.85 M10.25 7.25 L12.25 6.8 11.65 7.9 10.25 7.25 M10.1 12.45 L10.0 12.45 9.95 12.65 9.9 11.8 10.0 11.65 10.15 12.05 10.1 12.45 M9.65 3.75 L9.7 3.45 9.7 3.5 9.8 3.1 9.85 3.15 9.75 3.65 9.7 3.8 9.65 3.75 M9.2 5.95 L9.2 5.65 9.15 5.6 9.2 5.95 9.3 7.55 9.3 7.7 9.35 8.1 9.3 7.55 9.2 5.95" fill="#7f6600" fill-rule="evenodd" stroke="none"/>
    <path d="M9.85 -0.1 L9.65 -1.8 10.4 -1.8 10.55 -0.1 9.85 -0.1 M10.0 3.4 L9.9 1.35 10.65 1.35 10.7 1.35 10.8 3.4 10.5 3.4 10.35 3.4 10.45 3.8 10.45 3.85 10.35 3.85 10.25 3.9 10.15 3.4 10.05 3.4 10.0 3.4 M11.3 3.75 L12.25 3.75 12.5 6.0 11.5 6.05 11.3 3.75 M12.8 10.45 L11.8 10.55 11.25 9.35 11.1 9.1 10.25 7.25 11.65 7.9 12.65 7.85 12.8 10.45 M11.05 11.9 L11.3 11.9 11.45 13.8 10.65 13.85 10.5 11.95 10.55 11.95 10.65 11.95 10.75 10.1 11.1 10.1 11.0 10.4 10.95 11.8 11.0 11.8 11.0 11.95 11.05 11.9 M11.75 17.5 L10.9 17.65 10.8 15.45 11.6 15.35 11.75 17.5 M9.85 13.4 L9.4 13.45 9.3 11.85 9.9 11.8 9.95 12.65 9.85 13.4 M9.1 9.3 L9.3 9.3 9.25 10.1 9.35 10.3 9.35 10.7 9.2 10.7 9.2 10.55 9.1 9.3 M9.2 6.85 L9.0 6.85 8.9 5.3 9.05 5.3 9.0 5.35 9.2 6.85 M8.7 2.85 L9.3 2.85 9.35 3.4 9.25 3.4 9.05 3.6 9.0 3.75 9.05 4.2 8.8 4.2 8.7 2.85 M9.15 5.6 L9.2 5.65 9.2 5.95 9.15 5.6 M9.3 7.55 L9.35 8.1 9.3 7.7 9.3 7.55" fill="#ffcc00" fill-rule="evenodd" stroke="none"/>
    <path d="M10.35 12.4 L10.0 8.1 10.0 8.0 10.25 8.0 10.55 11.8 10.55 11.95 10.5 11.95 10.35 12.4 M9.65 3.75 L9.7 3.8 9.75 3.9 9.85 4.65 9.65 6.15 9.4 3.8 9.55 3.65 9.6 3.65 9.65 3.75" fill="#c8c8c8" fill-rule="evenodd" stroke="none"/>
  </g>
</svg>
