<?xml version="1.0" encoding="UTF-8" standalone="no"?>
<svg xmlns:ffdec="https://www.free-decompiler.com/flash" xmlns:xlink="http://www.w3.org/1999/xlink" ffdec:objectType="shape" height="19.45px" width="3.0px" xmlns="http://www.w3.org/2000/svg">
  <g transform="matrix(1.0, 0.0, 0.0, 1.0, -8.6, 1.8)">
    <path d="M10.45 -0.1 L10.4 -1.8 11.2 1.1 10.45 -0.05 10.45 -0.1 M9.65 -1.8 L9.65 -0.1 8.85 1.1 9.65 1.35 9.65 -0.05 10.45 -0.05 10.45 1.35 9.65 1.35 9.65 3.4 9.75 3.4 9.7 3.5 9.7 3.55 9.65 3.6 9.6 3.8 9.6 6.05 8.6 7.25 9.2 5.25 9.1 4.95 9.25 5.05 9.4 4.6 9.15 4.9 9.6 3.25 8.85 1.1 9.65 -1.8 M10.45 1.35 L11.2 1.1 10.45 3.3 10.45 1.35 M9.9 3.4 L10.0 3.4 9.95 3.8 9.9 3.8 9.9 3.65 9.9 3.4 M10.6 6.05 L10.6 3.8 11.6 7.25 10.7 10.45 10.9 11.2 10.6 12.35 11.3 14.55 10.5 17.65 10.5 15.45 11.3 14.55 10.5 13.9 10.55 15.25 9.65 15.25 9.7 13.9 8.85 14.55 9.7 15.45 9.7 17.65 8.85 14.55 9.5 12.55 9.1 11.2 9.45 10.05 8.6 7.25 9.65 7.95 9.65 10.6 9.65 10.7 9.1 11.2 9.7 11.75 9.7 11.95 9.7 13.85 10.45 13.85 10.5 13.9 10.45 12.0 10.45 11.65 10.9 11.2 10.45 10.8 10.45 10.6 10.65 10.6 10.65 7.95 11.6 7.25 10.6 6.05 M10.55 3.8 L10.45 3.8 10.35 3.65 10.3 3.55 10.3 3.4 10.45 3.4 10.55 3.8 M10.25 3.8 L10.2 3.8 10.2 3.4 10.25 3.4 10.25 3.8 M10.3 11.95 L10.25 11.95 10.25 10.6 10.3 10.6 10.3 11.8 10.3 11.95 M9.95 10.6 L10.0 10.6 9.95 11.95 9.9 11.95 9.9 11.25 9.95 10.6" fill="#7f6600" fill-rule="evenodd" stroke="none"/>
    <path d="M10.45 -0.1 L10.45 -0.05 11.2 1.1 10.45 1.35 10.45 -0.05 9.65 -0.05 9.65 1.35 8.85 1.1 9.65 -0.1 10.45 -0.1 M9.7 3.55 L9.8 3.45 9.85 3.45 9.85 3.4 9.9 3.4 9.9 3.65 9.8 3.65 9.7 3.75 9.65 3.8 9.6 3.8 9.65 3.6 9.7 3.55 M9.6 6.05 L10.6 6.05 11.6 7.25 10.65 7.95 9.65 7.95 8.6 7.25 9.6 6.05 M10.45 3.8 L10.4 3.8 10.3 3.7 10.3 3.8 10.25 3.8 10.25 3.4 10.3 3.4 10.3 3.55 10.35 3.65 10.45 3.8 M9.1 4.95 L9.15 4.9 9.4 4.6 9.25 5.05 9.1 4.95 M10.3 11.95 L10.3 11.8 10.3 10.6 10.35 11.6 10.3 11.8 10.35 11.7 10.35 11.95 10.3 11.95 M9.65 10.6 L9.7 10.6 9.7 11.75 9.1 11.2 9.65 10.7 9.65 10.6 M9.9 10.6 L9.95 10.6 9.9 11.25 9.9 10.6 M10.45 12.0 L10.4 11.95 10.45 10.6 10.45 10.8 10.9 11.2 10.45 11.65 10.45 12.0 M11.3 14.55 L10.5 15.45 9.7 15.45 8.85 14.55 9.7 13.9 9.65 15.25 10.55 15.25 10.5 13.9 11.3 14.55 M9.7 11.75 L9.75 11.8 9.7 11.95 9.7 11.75" fill="#000000" fill-rule="evenodd" stroke="none"/>
    <path d="M10.4 -1.8 L10.45 -0.1 9.65 -0.1 9.65 -1.8 10.4 -1.8 M10.45 1.35 L10.45 3.3 10.45 3.4 10.3 3.4 10.25 3.4 10.2 3.4 10.2 3.8 10.25 3.8 10.3 3.8 10.4 3.8 10.45 3.8 10.55 3.8 10.6 3.8 10.6 6.05 9.6 6.05 9.6 3.8 9.65 3.8 9.7 3.8 9.9 3.8 9.95 3.8 10.0 3.4 9.9 3.4 9.85 3.4 9.85 3.45 9.8 3.45 9.7 3.55 9.7 3.5 9.75 3.4 9.65 3.4 9.65 1.35 10.45 1.35 M10.5 17.65 L9.7 17.65 9.7 15.45 10.5 15.45 10.5 17.65 M10.3 10.6 L10.25 10.6 10.25 11.95 10.3 11.95 10.35 11.95 10.4 11.95 10.45 12.0 10.5 13.9 10.45 13.85 9.7 13.85 9.7 11.95 9.8 11.95 9.9 11.95 9.95 11.95 10.0 10.6 9.95 10.6 9.9 10.6 9.8 10.6 9.7 10.6 9.65 10.6 9.65 7.95 10.65 7.95 10.65 10.6 10.45 10.6 10.35 10.6 10.3 10.6" fill="#ffcc00" fill-rule="evenodd" stroke="none"/>
    <path d="M9.7 3.8 L9.65 3.8 9.7 3.75 9.7 3.8 M10.35 10.6 L10.45 10.6 10.4 11.95 10.35 11.95 10.35 11.7 10.35 11.6 10.35 10.6 M9.7 10.6 L9.8 10.6 9.8 11.95 9.7 11.95 9.75 11.8 9.7 11.75 9.7 10.6" fill="#646464" fill-rule="evenodd" stroke="none"/>
    <path d="M9.9 3.8 L9.7 3.8 9.7 3.75 9.8 3.65 9.9 3.65 9.9 3.8 M10.4 3.8 L10.3 3.8 10.3 3.7 10.4 3.8 M10.3 10.6 L10.35 10.6 10.35 11.6 10.35 11.7 10.3 11.8 10.35 11.6 10.3 10.6 M9.8 10.6 L9.9 10.6 9.9 11.25 9.9 11.95 9.8 11.95 9.8 10.6" fill="#c8c8c8" fill-rule="evenodd" stroke="none"/>
  </g>
</svg>
