<?xml version="1.0" encoding="UTF-8" standalone="no"?>
<svg xmlns:ffdec="https://www.free-decompiler.com/flash" xmlns:xlink="http://www.w3.org/1999/xlink" ffdec:objectType="shape" height="19.45px" width="4.9px" xmlns="http://www.w3.org/2000/svg">
  <g transform="matrix(1.0, 0.0, 0.0, 1.0, -6.95, 1.8)">
    <path d="M10.3 -0.1 L11.15 1.0 9.95 -0.05 9.2 -0.05 9.65 -1.8 9.55 -0.35 9.5 -0.1 10.3 -0.1 M9.05 0.0 L9.45 1.35 9.3 3.4 8.9 1.1 9.05 0.0 M10.05 3.4 L10.4 2.7 10.45 2.95 10.7 3.15 10.5 2.55 11.2 1.1 10.75 2.85 10.7 3.15 10.6 3.4 10.85 3.4 10.95 3.55 11.05 3.75 11.05 3.85 11.0 4.2 11.2 4.2 11.85 4.95 Q11.5 5.15 11.1 5.3 L10.95 4.55 10.9 4.95 11.0 5.05 11.05 5.3 10.9 6.85 10.85 7.2 10.8 8.2 10.75 8.05 10.85 6.9 10.95 5.6 10.9 5.6 10.9 5.4 10.85 5.3 10.85 5.4 10.9 5.7 10.65 8.45 10.75 9.3 10.75 9.75 10.8 10.1 10.75 10.25 10.75 10.7 10.65 10.9 10.5 11.0 10.3 11.2 10.2 11.4 10.55 11.45 10.8 10.7 11.5 11.3 11.1 9.9 11.2 9.9 11.55 11.3 11.5 11.3 10.75 11.85 10.15 11.8 10.1 11.7 10.1 11.75 9.9 12.45 10.1 12.45 10.25 13.4 10.45 14.6 9.8 12.4 9.9 12.2 10.25 8.2 10.25 7.95 9.8 4.45 9.55 4.25 9.4 4.25 9.05 4.15 9.6 3.9 9.75 3.85 9.85 3.9 9.95 3.9 10.0 3.9 10.05 3.4 M10.45 3.75 L10.35 3.15 10.35 3.1 10.3 3.15 10.4 3.5 10.35 3.55 10.4 3.8 10.35 4.0 10.3 4.7 10.45 6.25 10.45 6.65 10.8 4.05 10.75 3.9 10.65 3.8 10.65 3.75 10.55 3.65 10.5 3.65 10.5 3.7 10.45 3.8 10.45 3.75 M10.45 3.15 L10.5 3.45 10.6 3.15 10.45 3.15 M11.85 4.95 L11.4 6.3 11.25 6.3 11.85 4.95 M8.45 17.55 L8.15 15.1 8.05 14.35 8.85 11.9 8.7 13.8 8.15 15.1 9.0 15.2 10.45 14.6 9.45 15.45 9.4 15.45 8.6 15.35 8.45 17.55 M9.1 11.95 L9.15 11.3 9.2 11.95 9.1 11.95 M7.45 10.5 L7.05 7.15 6.95 6.75 7.2 6.5 7.95 3.75 7.75 6.0 8.75 6.05 10.0 7.25 9.5 5.55 9.6 5.55 9.65 5.5 9.65 5.55 10.0 7.25 9.9 7.65 9.95 8.0 9.65 11.95 9.6 11.85 9.55 10.5 9.5 10.1 9.5 9.75 9.4 9.1 9.15 9.05 10.0 7.25 8.6 7.95 7.6 7.85 7.45 10.5 M10.5 10.75 L10.55 10.65 10.45 8.85 10.25 10.2 10.3 10.7 10.35 10.85 10.45 10.75 10.5 10.75" fill="#000000" fill-rule="evenodd" stroke="none"/>
    <path d="M9.2 -0.05 L9.95 -0.05 11.15 1.0 10.3 -0.1 10.4 -1.8 11.2 1.1 10.5 2.55 10.7 3.15 10.45 2.95 10.4 2.7 10.05 3.4 10.2 1.35 9.45 1.35 9.05 0.0 9.2 -0.05 M10.4 3.8 L10.35 3.55 10.4 3.5 10.3 3.15 10.35 3.1 10.35 3.15 10.45 3.75 10.4 3.85 10.4 3.8 M9.95 3.9 L10.0 3.4 10.05 3.4 10.0 3.9 9.95 3.9 M11.2 4.2 L11.3 2.85 11.85 4.95 11.2 4.2 M11.25 6.3 L11.05 6.85 11.1 5.3 11.05 5.3 11.0 5.05 10.9 4.95 10.95 4.55 11.1 5.3 Q11.5 5.15 11.85 4.95 L11.25 6.3 M10.8 8.2 L10.75 9.3 10.65 8.45 10.9 5.7 10.85 5.4 10.85 5.3 10.9 5.4 10.9 5.6 10.95 5.6 10.85 6.9 10.75 8.05 10.8 8.2 M10.9 9.3 L11.1 9.9 11.5 11.3 10.8 10.7 10.55 11.45 10.2 11.4 10.3 11.2 10.5 11.0 10.65 10.9 10.75 10.7 10.8 10.7 10.9 9.3 M11.5 11.3 L10.65 13.45 10.75 11.85 11.5 11.3 M10.45 14.6 L9.25 17.65 9.4 15.45 9.45 15.45 10.45 14.6 9.0 15.2 8.15 15.1 8.7 13.8 9.5 13.9 9.65 11.95 9.6 11.95 9.6 11.85 9.55 10.95 9.5 10.95 9.5 10.1 9.2 10.1 9.25 10.95 9.2 10.9 9.2 11.95 9.15 11.3 9.15 10.6 9.0 9.35 8.45 10.55 8.6 7.95 10.0 7.25 9.15 9.05 9.4 9.1 9.5 9.75 9.5 10.1 9.55 10.5 9.6 11.85 9.65 11.95 9.75 12.25 9.75 12.35 9.8 12.4 10.45 14.6 M8.95 3.75 L9.05 4.15 9.45 5.5 9.65 5.5 9.6 5.55 9.5 5.55 10.0 7.25 8.75 6.05 8.95 3.75 M9.6 3.9 L9.65 3.4 9.8 3.4 9.75 3.85 9.6 3.9 M10.7 8.55 L10.75 8.7 10.75 8.05 10.7 8.55 M10.1 12.45 L9.9 12.45 10.1 11.75 10.1 11.7 10.15 11.8 10.1 12.3 10.1 12.45" fill="#7f6600" fill-rule="evenodd" stroke="none"/>
    <path d="M10.4 3.8 L10.4 3.85 10.45 3.75 10.45 3.8 10.5 3.7 10.5 3.65 10.55 3.65 10.65 3.75 10.65 3.8 10.45 6.25 10.3 4.7 10.35 4.0 10.4 3.8 M9.95 8.0 L10.1 8.0 9.75 12.25 9.8 11.85 9.75 12.35 9.75 12.25 9.65 11.95 9.95 8.0" fill="#c8c8c8" fill-rule="evenodd" stroke="none"/>
    <path d="M10.65 3.8 L10.75 3.9 10.8 4.05 10.45 6.65 10.45 6.25 10.65 3.8 M10.5 10.75 L10.45 10.75 10.35 10.85 10.3 10.7 10.25 10.2 10.45 8.85 10.55 10.65 10.5 10.75 M9.05 4.15 L9.4 4.25 9.55 4.25 9.8 4.45 10.25 7.95 10.25 8.2 9.9 12.2 9.8 12.4 9.75 12.35 9.8 11.85 9.75 12.25 10.1 8.0 9.95 8.0 9.9 7.65 10.0 7.25 9.65 5.55 9.65 5.5 9.45 5.5 9.05 4.15" fill="#646464" fill-rule="evenodd" stroke="none"/>
    <path d="M9.45 1.35 L10.2 1.35 10.05 3.4 10.0 3.4 9.95 3.9 9.85 3.9 9.75 3.85 9.8 3.4 9.65 3.4 9.3 3.4 9.45 1.35 M10.4 -1.8 L10.3 -0.1 9.5 -0.1 9.55 -0.35 9.65 -1.8 10.4 -1.8 M10.7 3.15 L10.75 2.85 11.3 2.85 11.2 4.2 11.0 4.2 11.05 3.85 11.05 3.75 10.95 3.55 10.85 3.4 10.6 3.4 10.7 3.15 M11.05 6.85 L10.9 6.85 11.05 5.3 11.1 5.3 11.05 6.85 M10.75 9.3 L10.9 9.3 10.8 10.7 10.75 10.7 10.75 10.25 10.8 10.1 10.75 9.75 10.75 9.3 M10.65 13.45 L10.25 13.4 10.1 12.45 10.1 12.3 10.15 11.8 10.75 11.85 10.65 13.45 M9.25 17.65 L8.45 17.55 8.6 15.35 9.4 15.45 9.25 17.65 M8.85 11.9 L9.1 11.95 9.2 11.95 9.2 10.9 9.25 10.95 9.2 10.1 9.5 10.1 9.5 10.95 9.55 10.95 9.6 11.85 9.6 11.95 9.65 11.95 9.5 13.9 8.7 13.8 8.85 11.9 M8.45 10.55 L7.45 10.5 7.6 7.85 8.6 7.95 8.45 10.55 M7.95 3.75 L8.95 3.75 8.75 6.05 7.75 6.0 7.95 3.75 M10.7 8.55 L10.75 8.05 10.75 8.7 10.7 8.55" fill="#ffcc00" fill-rule="evenodd" stroke="none"/>
  </g>
</svg>
