<?xml version="1.0" encoding="UTF-8" standalone="no"?>
<svg xmlns:ffdec="https://www.free-decompiler.com/flash" xmlns:xlink="http://www.w3.org/1999/xlink" ffdec:objectType="shape" height="19.25px" width="8.2px" xmlns="http://www.w3.org/2000/svg">
  <g transform="matrix(1.0, 0.0, 0.0, 1.0, -4.6, 1.8)">
    <path d="M8.95 -0.05 L8.95 0.0 9.35 -0.05 11.15 1.05 10.0 1.35 9.25 1.35 8.55 0.0 8.95 -0.05 M11.15 1.05 L11.0 3.15 10.4 2.3 11.15 1.05 M9.85 12.45 L9.6 14.6 7.55 15.05 6.7 14.85 7.4 14.05 7.75 13.6 8.5 13.75 9.6 14.6 9.15 13.1 9.85 12.45 M8.5 11.85 L8.45 11.05 8.45 10.7 8.35 10.05 8.3 9.9 8.2 9.4 8.1 9.0 8.4 9.0 7.55 8.5 8.35 7.25 6.7 7.8 5.55 6.7 6.95 5.95 8.35 7.25 8.45 8.8 8.5 9.05 8.55 9.1 8.75 9.95 8.95 12.5 8.85 12.15 8.8 10.85 8.65 10.05 8.6 10.05 8.55 10.05 8.65 10.9 8.55 10.85 8.6 11.75 8.55 11.75 8.55 11.85 8.5 11.85 M9.3 3.9 L9.45 3.4 9.7 3.4 9.55 3.9 9.45 3.85 9.3 3.9 M10.6 3.85 L10.35 3.3 10.4 3.15 10.2 3.0 10.25 2.95 10.4 3.15 10.45 3.0 10.7 3.55 10.75 3.75 10.6 3.85 M10.0 2.95 L9.75 3.9 9.65 3.95 9.9 3.1 10.0 2.95 M11.85 5.35 L11.7 5.05 11.45 4.85 11.4 4.8 11.45 4.55 11.55 4.55 12.8 5.05 11.85 5.35 M11.15 9.75 L11.1 9.45 11.55 5.7 11.55 5.45 11.35 5.1 11.35 4.95 11.6 5.3 11.7 5.75 11.7 6.1 11.55 7.0 11.45 7.55 11.5 7.3 11.4 7.9 11.4 8.1 11.3 8.55 11.3 8.65 11.3 8.55 11.4 8.1 11.3 8.65 11.15 9.75 M11.6 6.3 L11.5 7.1 11.5 7.3 11.5 7.1 11.6 6.3 M8.85 5.55 L8.9 5.55 8.9 5.45 9.0 5.55 8.65 6.05 8.85 5.55 M8.55 9.25 L8.45 9.25 8.55 9.6 8.55 9.25 M8.6 10.05 L8.7 10.9 8.65 10.9 8.6 10.05 M9.4 12.25 L9.35 12.2 9.9 11.7 9.7 12.0 9.4 12.35 9.4 12.25 M11.3 8.65 L11.3 9.05 11.25 10.05 11.2 9.8 11.3 8.65 M10.7 10.8 L10.7 10.75 10.75 10.7 10.8 10.65 10.9 10.6 11.1 10.4 10.95 10.65 10.9 10.65 10.9 10.7 10.75 10.85 10.7 10.8 M10.5 11.0 L10.2 11.2 10.2 11.25 10.1 11.4 10.05 11.35 9.95 11.6 10.0 11.35 10.15 11.1 10.2 11.15 10.45 10.95 10.5 11.0 M12.1 11.45 L10.6 11.45 10.2 11.4 10.5 11.15 10.85 11.0 10.85 11.05 11.0 11.0 11.05 11.0 11.1 10.9 11.25 10.75 11.3 10.75 12.1 11.45" fill="#7f6600" fill-rule="evenodd" stroke="none"/>
    <path d="M10.9 0.1 L11.15 1.05 10.1 -0.1 9.4 -0.1 9.7 -1.75 10.4 -1.8 10.9 0.1 M9.25 1.35 L10.0 1.35 11.15 1.05 10.4 2.3 10.0 2.95 9.9 3.1 9.65 3.95 9.55 3.9 9.7 3.4 9.45 3.4 9.0 3.4 9.25 1.35 M11.65 2.95 L11.65 2.9 12.25 2.9 12.6 4.1 12.8 5.05 12.05 4.25 11.55 4.2 11.65 3.75 11.65 3.6 11.6 3.45 11.65 2.95 M12.05 6.35 L11.75 6.9 11.6 6.9 11.85 5.35 12.8 5.05 12.05 6.35 M11.3 9.35 L11.5 9.35 11.7 9.95 12.1 11.45 11.65 12.3 11.0 13.5 10.4 13.4 10.6 11.8 11.15 11.9 Q11.65 11.7 12.1 11.45 L11.3 10.75 11.25 10.75 11.3 10.3 11.3 9.35 M9.15 15.45 L8.05 17.45 7.3 17.25 7.55 15.15 8.3 15.3 9.6 14.6 9.15 15.45 M8.05 11.75 L8.5 11.85 8.55 11.85 8.55 11.75 8.6 11.75 8.55 10.85 8.65 10.9 8.55 10.05 8.6 10.05 8.65 10.05 8.8 10.85 8.85 12.15 8.95 12.5 9.15 13.1 9.6 14.6 8.5 13.75 7.75 13.6 8.05 11.75 M7.35 8.75 L6.35 10.35 5.45 10.25 5.8 7.7 6.7 7.8 8.35 7.25 6.95 5.95 6.05 5.9 6.45 3.7 7.35 3.75 7.85 5.5 8.35 7.25 7.55 8.5 7.35 8.75 M11.15 9.75 L11.3 8.65 11.2 9.8 11.15 9.75 M11.4 7.9 L11.5 7.3 11.45 7.55 11.4 7.9 M8.55 9.25 L8.55 9.6 8.45 9.25 8.55 9.25 M8.6 10.05 L8.65 10.9 8.7 10.9 8.6 10.05" fill="#ffcc00" fill-rule="evenodd" stroke="none"/>
    <path d="M9.7 -1.75 L9.4 -0.1 10.1 -0.1 11.15 1.05 10.9 0.1 11.3 0.25 11.15 1.05 9.35 -0.05 8.95 0.0 8.95 -0.05 9.25 -0.05 9.7 -1.75 M11.0 3.15 L10.65 3.15 10.75 3.55 11.35 3.45 11.5 3.45 11.65 2.95 11.6 3.45 11.65 3.6 11.65 3.75 11.55 4.2 12.05 4.25 12.8 5.05 11.55 4.55 11.45 4.55 11.4 4.8 11.45 4.85 11.7 5.05 11.85 5.35 11.6 6.9 11.55 7.0 11.3 9.05 11.3 9.35 11.3 10.3 11.25 10.75 11.1 10.9 11.05 11.0 11.0 11.0 10.85 11.05 10.85 11.0 10.5 11.15 10.2 11.4 10.6 11.45 12.1 11.45 11.9 12.35 11.65 12.3 12.1 11.45 Q11.65 11.7 11.15 11.9 L10.6 11.8 10.4 13.4 10.35 11.6 10.15 11.4 9.55 12.4 9.85 12.45 9.15 13.1 8.95 12.5 8.75 9.95 8.55 9.1 8.5 9.05 8.45 8.8 8.35 7.25 7.85 5.5 8.35 5.5 7.9 4.3 7.9 4.25 7.95 4.2 7.95 4.15 8.45 5.5 8.85 5.55 8.65 6.05 9.0 5.55 9.05 5.6 8.9 5.8 9.0 6.15 9.65 8.0 9.0 11.85 9.05 12.0 9.1 12.1 9.05 12.45 9.2 12.3 9.2 12.25 9.3 12.15 9.4 11.95 10.15 8.0 10.15 7.9 10.1 7.95 9.25 4.65 9.0 4.45 8.65 4.25 8.15 4.15 9.3 3.9 9.45 3.85 9.55 3.9 9.65 3.95 9.75 3.9 10.0 2.95 10.4 2.3 11.0 3.15 M12.6 4.1 L12.8 4.1 12.8 5.05 12.55 6.4 12.05 6.35 12.8 5.05 12.6 4.1 M11.7 9.95 L12.1 10.05 12.1 11.45 11.7 9.95 M9.6 14.6 L9.6 15.45 9.15 15.45 9.6 14.6 8.3 15.3 7.55 15.15 7.3 17.25 7.35 15.05 6.7 14.85 7.55 15.05 9.6 14.6 M7.4 14.05 L8.05 11.75 7.75 13.6 7.4 14.05 M8.45 11.05 L8.3 9.9 8.35 10.05 8.45 10.7 8.45 11.05 M8.2 9.4 L8.05 8.95 7.65 8.9 7.35 8.75 7.55 8.5 8.4 9.0 8.1 9.0 8.2 9.4 M5.45 10.25 L5.65 7.6 4.6 6.6 5.95 5.95 6.45 3.7 6.05 5.9 6.95 5.95 5.55 6.7 6.7 7.8 5.8 7.7 5.45 10.25 M9.0 3.4 L8.95 1.1 8.55 0.0 9.25 1.35 9.0 3.4 M10.75 3.75 L10.7 3.55 10.45 3.0 10.4 3.15 10.25 2.95 10.2 3.0 10.4 3.15 10.35 3.3 10.6 3.85 10.25 5.75 10.4 6.6 10.5 6.8 11.05 4.15 11.0 4.0 11.0 3.95 10.8 3.65 10.8 3.7 10.75 3.7 10.75 3.75 M11.45 7.55 L11.55 7.0 11.7 6.1 11.7 5.75 11.6 5.3 11.35 4.95 11.35 5.1 11.55 5.45 11.55 5.7 11.1 9.45 11.15 9.75 11.2 9.8 11.25 10.05 11.3 9.05 11.3 8.65 11.4 8.1 11.4 7.9 11.45 7.55 M9.4 12.25 L9.4 12.35 9.7 12.0 9.9 11.7 9.35 12.2 9.4 12.25 M10.75 10.7 L10.8 10.6 10.4 8.6 10.4 8.8 10.25 9.5 10.55 10.85 10.6 10.85 10.6 10.9 10.7 10.8 10.75 10.85 10.9 10.7 10.9 10.65 10.95 10.65 11.1 10.4 10.9 10.6 10.8 10.65 10.75 10.7 M10.5 11.0 L10.45 10.95 10.2 11.15 10.15 11.1 10.0 11.35 9.95 11.6 10.05 11.35 10.1 11.4 10.2 11.25 10.2 11.2 10.5 11.0" fill="#000000" fill-rule="evenodd" stroke="none"/>
    <path d="M7.95 4.15 L8.15 4.15 8.65 4.25 9.0 4.45 9.25 4.65 10.1 7.95 10.15 7.9 10.15 8.0 9.4 11.95 9.3 12.15 9.2 12.25 10.0 8.0 9.65 8.0 9.0 6.15 8.9 5.8 9.05 5.6 9.0 5.55 8.9 5.45 8.9 5.55 8.85 5.55 8.45 5.5 7.95 4.15 M11.0 3.95 L11.0 4.0 11.05 4.15 10.5 6.8 10.4 6.6 11.0 3.95 M10.7 10.8 L10.6 10.9 10.6 10.85 10.55 10.85 10.25 9.5 10.4 8.8 10.4 8.6 10.8 10.6 10.75 10.7 10.7 10.75 10.7 10.8" fill="#646464" fill-rule="evenodd" stroke="none"/>
    <path d="M10.75 3.75 L10.75 3.7 10.8 3.7 10.8 3.65 11.0 3.95 10.4 6.6 10.25 5.75 10.6 3.85 10.75 3.75 M9.65 8.0 L10.0 8.0 9.2 12.25 9.2 12.3 9.05 12.45 9.1 12.1 9.05 12.0 9.0 11.85 9.65 8.0" fill="#c8c8c8" fill-rule="evenodd" stroke="none"/>
  </g>
</svg>
