<?xml version="1.0" encoding="UTF-8" standalone="no"?>
<svg xmlns:ffdec="https://www.free-decompiler.com/flash" xmlns:xlink="http://www.w3.org/1999/xlink" ffdec:objectType="shape" height="18.95px" width="11.35px" xmlns="http://www.w3.org/2000/svg">
  <g transform="matrix(1.0, 0.0, 0.0, 1.0, -2.7, 1.8)">
    <path d="M10.8 0.0 L11.05 1.05 10.0 -0.1 10.35 -1.8 10.8 0.0 M12.65 2.9 L13.2 2.9 13.5 4.15 13.75 5.15 12.9 4.3 12.35 4.25 12.65 2.9 M12.95 6.25 L12.4 7.0 12.25 7.0 12.4 6.55 12.5 6.1 12.6 5.45 12.7 5.4 13.75 5.15 13.1 6.0 12.95 6.25 M11.85 9.45 L12.1 9.45 12.25 10.2 12.35 10.5 12.6 11.65 11.8 10.85 11.7 10.85 11.7 10.8 11.75 10.55 11.8 10.3 11.85 9.45 M12.1 12.4 L11.3 13.6 10.75 13.45 11.0 11.85 11.55 12.0 12.6 11.65 12.1 12.4 M8.2 15.3 L6.95 17.15 7.3 15.05 8.75 14.5 8.2 15.3 M7.0 13.35 L7.4 11.6 7.85 11.7 8.05 11.75 8.1 12.05 8.75 14.5 7.6 13.6 7.0 13.35 M9.25 3.4 L8.7 3.35 9.05 1.35 9.7 1.35 11.05 1.05 9.35 3.4 9.25 3.4 M9.85 2.85 L9.55 3.65 9.4 3.9 9.4 3.95 9.25 3.9 9.65 3.1 9.85 2.85 M12.0 7.6 L12.3 5.7 12.35 5.7 12.3 6.45 12.0 7.6 M11.85 8.4 L11.85 8.7 11.65 10.2 11.7 9.5 11.65 10.05 11.6 10.0 11.85 8.4 M6.8 7.1 L5.4 5.85 5.9 3.7 6.8 7.1 4.6 10.05 5.0 7.6 6.8 7.1 M8.1 12.05 L8.1 11.8 8.0 10.75 8.05 10.75 7.85 9.7 7.6 9.15 7.75 9.15 8.0 9.9 8.2 11.05 8.25 12.4 8.1 12.05" fill="#ffcc00" fill-rule="evenodd" stroke="none"/>
    <path d="M11.05 1.05 L10.8 0.0 11.7 0.25 11.05 1.2 11.05 1.05 10.35 2.25 11.25 3.2 10.8 3.15 11.0 3.6 12.1 3.45 12.25 3.55 12.25 3.65 11.15 3.85 11.0 3.7 11.05 3.7 10.95 3.65 10.9 3.4 10.8 3.3 10.55 2.55 10.3 2.3 9.85 2.85 9.65 3.1 9.35 3.4 11.05 1.05 M13.5 4.15 L14.05 4.2 13.75 5.15 13.5 4.15 M13.7 6.5 L13.15 6.45 12.95 6.25 13.1 6.0 13.7 6.5 M12.25 7.0 L12.1 7.45 12.4 6.55 12.25 7.0 M11.95 8.05 L11.85 9.45 11.8 10.3 11.75 10.55 11.85 8.7 11.9 8.2 11.9 8.05 11.95 8.05 11.9 8.2 11.95 8.05 M12.25 10.2 L12.5 10.1 13.0 10.2 12.35 10.5 12.25 10.2 M12.6 11.65 L12.65 12.5 12.1 12.4 12.6 11.65 M10.75 13.45 L10.9 11.8 10.35 11.4 10.95 11.55 11.55 12.0 11.0 11.85 10.75 13.45 M10.65 11.2 L10.25 11.35 9.55 11.9 9.95 11.5 10.0 11.5 10.2 11.3 10.65 11.1 10.9 11.05 11.55 11.0 11.4 11.1 11.0 11.1 10.65 11.2 M9.2 12.3 L9.6 12.45 8.5 13.0 8.75 14.5 8.1 12.05 8.25 12.4 8.5 12.95 8.65 12.9 9.2 12.3 M8.85 14.25 L9.15 15.35 8.2 15.3 8.75 14.5 7.3 15.05 6.7 14.85 6.2 14.7 8.75 14.5 8.85 14.25 M7.85 11.7 L7.8 10.65 7.85 11.0 7.85 11.7 M7.45 9.25 L7.25 8.85 6.85 8.75 6.0 8.4 4.6 10.05 6.8 7.1 7.95 5.65 7.0 7.05 7.5 8.9 6.8 7.1 6.1 8.3 7.45 8.9 7.3 8.85 7.45 9.25 M4.3 7.45 L2.7 6.35 4.65 5.75 5.4 5.85 3.45 6.45 5.0 7.6 4.3 7.45 M5.9 3.7 L6.5 5.45 7.4 5.4 7.85 5.45 7.15 4.1 7.25 4.1 7.95 5.45 8.05 5.5 6.55 5.6 6.8 7.1 5.9 3.7 M7.4 4.1 L9.05 3.85 9.15 3.85 9.25 3.9 9.4 3.95 9.4 3.9 9.45 3.9 9.45 4.0 10.0 3.05 10.0 3.15 10.2 2.9 10.15 3.1 9.95 3.3 9.95 3.35 9.65 3.8 9.55 4.0 9.5 3.95 9.45 4.0 7.8 4.2 7.65 4.2 7.4 4.1 M9.6 4.25 L10.2 6.0 10.4 6.65 10.4 6.75 9.6 4.45 9.6 4.25 M12.2 3.85 L12.0 4.4 12.25 4.3 12.65 2.9 12.35 4.25 12.9 4.3 12.15 4.6 12.7 5.4 12.6 5.45 12.65 5.4 12.45 5.2 12.1 5.0 11.85 4.8 10.9 7.5 11.6 10.0 11.65 10.2 11.7 10.35 10.8 10.9 10.9 10.8 11.0 10.6 11.6 10.25 10.8 7.6 12.05 4.05 12.2 3.85 M10.2 9.3 L10.2 9.25 9.7 11.5 9.65 11.65 8.55 12.3 8.6 12.2 8.65 12.2 8.75 12.0 9.65 11.5 10.2 9.25 10.4 8.45 10.4 8.5 10.2 9.3 M8.5 11.95 L8.45 11.95 8.45 12.0 8.4 11.85 8.25 10.75 7.6 8.35 7.35 7.85 7.35 7.2 7.4 7.75 7.6 8.35 8.1 9.7 8.15 10.1 8.45 11.8 8.5 11.95 M8.3 5.75 L7.55 6.7 7.65 6.45 8.35 5.6 8.3 5.75" fill="#000000" fill-rule="evenodd" stroke="none"/>
    <path d="M10.35 -1.8 L10.0 -0.1 11.05 1.05 11.05 1.2 11.25 3.2 10.35 2.25 11.05 1.05 9.7 1.35 9.05 1.35 8.1 0.0 9.35 -0.05 9.75 -1.75 10.35 -1.8 M13.75 5.15 L13.7 6.5 13.1 6.0 13.75 5.15 12.7 5.4 12.15 4.6 12.9 4.3 13.75 5.15 M12.1 7.45 L11.95 8.05 12.0 7.6 11.95 8.05 11.9 8.05 11.9 8.2 11.85 8.7 11.75 10.55 11.7 10.8 11.7 10.85 11.8 10.85 12.6 11.65 11.55 12.0 10.95 11.55 10.35 11.4 10.65 11.2 11.0 11.1 11.4 11.1 11.55 11.0 10.9 11.05 10.65 11.1 10.2 11.3 10.0 11.5 9.95 11.5 9.55 11.9 9.4 12.1 9.2 12.3 8.65 12.9 8.5 12.95 8.25 12.4 8.2 11.05 8.0 9.9 7.75 9.15 7.6 9.15 7.85 9.7 8.05 10.75 8.0 10.75 8.1 11.8 8.1 12.05 8.05 11.75 7.85 11.7 7.85 11.0 7.8 10.65 7.6 9.65 7.45 9.25 7.3 8.85 7.45 8.9 6.1 8.3 6.8 7.1 7.5 8.9 7.0 7.05 7.95 5.65 6.8 7.1 6.55 5.6 8.05 5.5 8.25 5.45 8.3 5.5 8.35 5.6 7.65 6.45 7.55 6.7 8.3 5.75 9.25 7.55 9.4 8.0 8.45 11.8 8.15 10.1 8.1 9.7 7.6 8.35 7.4 7.75 7.35 7.2 7.35 7.85 7.6 8.35 8.25 10.75 8.4 11.85 8.45 12.0 8.45 11.95 8.5 11.95 8.5 12.35 8.55 12.3 9.65 11.65 9.7 11.5 10.2 9.25 10.2 9.3 10.3 9.5 10.65 10.75 10.75 10.95 10.8 10.9 11.7 10.35 11.65 10.2 11.6 10.0 10.9 7.5 11.85 4.8 12.1 5.0 12.45 5.2 12.65 5.4 12.6 5.45 12.5 6.1 12.4 6.55 12.1 7.45 M13.0 10.2 L12.6 11.65 12.35 10.5 13.0 10.2 M9.6 12.45 L8.85 14.25 8.75 14.5 8.5 13.0 9.6 12.45 M6.95 17.15 L6.35 16.85 6.7 14.85 7.3 15.05 6.95 17.15 M6.2 14.7 L5.5 14.45 7.0 13.35 7.6 13.6 8.75 14.5 6.2 14.7 M4.6 10.05 L3.9 9.85 4.3 7.45 5.0 7.6 4.6 10.05 M4.65 5.75 L5.2 3.65 5.9 3.7 5.4 5.85 6.8 7.1 5.0 7.6 3.45 6.45 5.4 5.85 4.65 5.75 M9.05 3.85 L9.25 3.4 9.35 3.4 9.65 3.1 9.25 3.9 9.15 3.85 9.05 3.85 M9.55 4.0 L9.65 3.8 9.95 3.35 9.95 3.3 10.15 3.1 10.2 2.9 10.0 3.15 10.0 3.05 9.45 4.0 9.45 3.9 9.4 3.9 9.55 3.65 9.85 2.85 10.3 2.3 10.55 2.55 10.8 3.3 10.9 3.4 10.95 3.65 11.05 3.7 11.0 3.7 10.95 3.8 10.9 3.8 10.8 3.9 10.2 6.0 9.6 4.25 9.55 4.0 M12.0 7.6 L12.3 6.45 12.35 5.7 12.3 5.7 12.0 7.6 11.9 8.05 11.85 8.4 11.9 8.05 12.0 7.6 M11.85 8.4 L11.6 10.0 11.65 10.05 11.7 9.5 11.65 10.2 11.85 8.7 11.85 8.4 11.9 8.2 11.85 8.4" fill="#7f6600" fill-rule="evenodd" stroke="none"/>
    <path d="M7.25 4.1 L7.4 4.1 7.65 4.2 8.3 5.5 8.25 5.45 8.05 5.5 7.95 5.45 7.25 4.1 M9.55 4.0 L9.6 4.25 9.6 4.45 10.4 6.75 10.4 6.65 11.25 4.0 11.15 3.85 12.25 3.65 12.2 3.85 12.05 4.05 10.8 7.6 11.6 10.25 11.0 10.6 10.9 10.8 10.8 10.9 10.75 10.95 10.65 10.75 10.3 9.5 10.2 9.3 10.4 8.5 10.4 8.45 10.2 9.25 9.65 11.5 8.75 12.0 9.5 9.4 8.75 11.8 9.65 8.5 9.85 7.95 9.65 8.0 9.4 8.0 9.25 7.55 8.3 5.75 8.35 5.6 8.65 6.25 8.8 6.25 8.95 6.3 8.1 4.35 7.8 4.2 9.45 4.0 9.5 3.95 9.55 4.0" fill="#646464" fill-rule="evenodd" stroke="none"/>
    <path d="M10.2 6.0 L10.8 3.9 10.9 3.8 10.95 3.8 11.0 3.7 11.15 3.85 11.25 4.0 10.4 6.65 10.2 6.0 M8.55 12.3 L8.5 12.35 8.5 11.95 8.45 11.8 9.4 8.0 9.65 8.0 9.85 7.95 9.65 8.5 8.75 11.8 9.5 9.4 8.75 12.0 8.65 12.2 8.6 12.2 8.55 12.3 M8.35 5.6 L8.3 5.5 7.65 4.2 7.8 4.2 8.1 4.35 8.95 6.3 8.8 6.25 8.65 6.25 8.35 5.6" fill="#c8c8c8" fill-rule="evenodd" stroke="none"/>
  </g>
</svg>
