<?xml version="1.0" encoding="UTF-8" standalone="no"?>
<svg xmlns:ffdec="https://www.free-decompiler.com/flash" xmlns:xlink="http://www.w3.org/1999/xlink" ffdec:objectType="shape" height="18.55px" width="13.85px" xmlns="http://www.w3.org/2000/svg">
  <g transform="matrix(1.0, 0.0, 0.0, 1.0, -1.4, 1.85)">
    <path d="M12.05 0.25 L10.9 1.05 11.45 3.2 10.3 2.25 10.9 1.05 10.75 -0.05 12.05 0.25 M13.2 4.3 L13.55 2.95 14.1 2.95 13.7 4.35 13.2 4.3 M15.25 4.3 L14.55 5.25 14.6 5.4 14.75 6.7 13.95 6.1 14.05 6.0 14.55 5.25 13.4 5.5 12.65 4.65 13.7 4.35 14.55 5.25 14.35 4.25 15.25 4.3 M12.85 7.1 L12.7 7.5 12.65 7.6 12.65 7.65 12.45 8.4 12.3 9.25 12.25 10.25 12.25 10.35 12.25 10.6 12.2 10.7 12.15 11.0 12.2 11.0 13.05 11.85 12.9 10.7 13.85 10.45 13.1 11.8 13.05 11.85 11.9 12.15 11.1 11.65 10.6 11.45 11.0 11.2 11.7 11.2 11.8 11.15 10.7 11.2 10.5 11.25 10.2 11.35 9.65 11.65 Q9.3 11.95 8.9 12.2 L8.3 12.7 7.95 12.8 7.75 12.45 7.6 10.5 7.55 10.35 7.4 9.75 7.05 8.85 6.4 7.8 6.1 6.9 6.45 6.45 7.55 5.7 7.8 5.5 7.85 5.6 7.8 5.6 7.8 5.75 9.15 7.95 8.0 11.55 8.0 12.1 7.95 12.1 7.95 12.2 8.6 11.95 8.6 12.0 8.6 12.05 9.1 11.8 8.15 12.45 9.55 11.55 9.45 11.65 9.65 11.5 9.6 11.45 9.45 11.5 9.9 10.1 10.05 9.5 10.15 9.15 10.15 9.2 10.7 10.45 10.8 10.8 10.9 11.0 11.05 10.95 11.65 10.7 11.55 10.8 11.6 10.8 11.8 10.65 12.1 10.5 12.1 10.4 12.05 10.3 12.2 9.55 12.1 10.4 12.4 8.25 12.95 6.3 13.0 5.9 12.8 5.45 12.75 5.45 12.9 5.8 12.9 5.85 12.85 6.4 12.25 8.3 12.0 10.15 11.05 7.55 12.3 4.8 12.55 4.95 13.05 5.15 13.35 5.5 13.35 5.6 13.25 5.85 13.3 5.9 13.15 6.3 12.85 7.1 M6.05 16.7 L5.6 16.35 6.0 14.55 5.15 14.25 4.65 13.95 6.35 13.05 6.85 11.35 7.4 11.6 7.3 11.05 7.35 10.9 7.25 10.5 7.3 10.55 7.1 9.7 7.2 9.75 6.8 8.75 6.75 8.75 6.25 8.55 5.0 8.05 5.5 6.95 5.55 5.45 7.35 5.4 7.4 5.4 5.5 6.95 6.75 8.75 6.6 8.3 6.9 8.8 7.3 9.75 7.6 11.7 7.6 12.1 7.4 11.6 6.85 13.3 Q6.0 13.8 5.15 14.25 L8.0 14.35 6.5 14.75 6.05 16.7 M3.2 9.65 L2.75 9.45 3.25 7.2 3.75 7.35 1.9 6.2 5.5 6.95 3.75 7.35 3.2 9.65 M3.65 5.55 L4.25 3.55 4.75 3.6 4.15 5.65 3.65 5.55 M8.8 3.85 L8.95 3.55 9.0 3.65 9.15 3.3 9.6 2.9 9.1 3.8 9.0 3.9 8.9 3.85 8.8 3.85 M9.05 3.4 L8.5 3.35 8.9 1.35 9.5 1.35 9.05 3.4 M7.7 0.05 L8.3 0.0 8.35 0.0 9.3 -0.05 9.8 -1.75 10.3 -1.85 9.85 -0.1 10.9 1.05 8.3 0.0 9.5 1.35 7.7 0.05 M11.15 3.75 L11.05 3.65 10.55 3.0 10.9 3.5 10.9 3.55 10.55 3.15 10.55 3.2 10.5 3.2 10.85 3.6 10.85 3.65 11.0 3.85 10.35 5.55 10.35 5.65 10.15 6.1 9.3 4.1 9.25 4.0 9.2 3.9 9.85 2.65 10.25 2.3 10.55 2.5 10.65 2.6 11.15 3.65 11.2 3.6 11.25 3.7 11.2 3.7 11.15 3.75 M9.25 4.0 L9.85 3.2 9.9 3.15 9.65 3.35 9.25 4.0 M7.8 5.6 L7.75 5.65 7.75 5.7 7.8 5.6 M6.9 6.5 L7.55 5.7 6.9 6.5 M6.8 6.0 L7.05 5.75 7.55 5.4 7.75 5.4 7.1 5.85 6.8 6.0 M6.75 7.95 L6.6 7.6 6.75 7.95 7.15 8.9 7.2 8.9 6.75 7.95 M7.5 9.7 L7.55 10.35 7.5 9.7 7.45 9.5 7.3 9.2 7.5 9.7 M9.0 11.8 L8.6 12.0 8.8 11.85 9.0 11.8 M7.95 11.75 L7.95 11.7 7.8 11.25 7.95 11.75" fill="#7f6600" fill-rule="evenodd" stroke="none"/>
    <path d="M12.05 0.25 L11.1 1.35 11.45 3.2 10.9 1.05 12.05 0.25 M11.45 3.2 L10.95 3.15 11.2 3.6 12.7 3.5 12.8 3.55 12.85 3.6 11.25 3.75 11.2 3.7 11.25 3.7 11.2 3.6 11.15 3.65 10.65 2.6 10.55 2.5 10.25 2.3 9.85 2.65 9.6 2.9 9.15 3.3 9.0 3.65 8.95 3.55 9.15 3.3 9.05 3.4 10.9 1.05 10.3 -1.85 10.75 -0.05 10.9 1.05 10.3 2.25 11.45 3.2 M12.75 3.8 L12.45 4.5 13.2 4.3 13.7 4.35 12.65 4.65 13.4 5.5 13.35 5.5 13.05 5.15 12.55 4.95 12.3 4.8 11.05 7.55 12.0 10.15 12.05 10.3 12.1 10.4 12.1 10.5 11.8 10.65 11.65 10.7 11.05 10.95 11.05 10.85 12.05 10.45 11.0 7.6 11.85 5.7 11.75 5.8 12.65 3.9 12.75 3.8 M14.35 4.2 L15.25 4.3 14.35 4.25 14.35 4.2 M14.75 6.7 L14.25 6.6 13.8 6.3 13.05 7.15 13.0 7.1 14.55 5.25 14.05 6.0 13.95 6.1 14.75 6.7 M12.7 7.5 L12.65 7.65 12.65 7.6 12.7 7.5 M12.45 8.4 L12.3 9.55 12.25 10.25 12.3 9.25 12.45 8.4 M12.6 9.6 L12.85 10.45 13.4 10.3 13.85 10.45 12.9 10.7 13.05 11.85 12.6 9.6 M13.1 11.8 L13.35 12.8 12.5 12.55 13.05 11.85 13.1 11.8 M11.4 11.95 L10.6 11.45 11.1 11.65 11.9 12.15 11.5 12.0 11.4 11.95 M11.0 11.2 L10.5 11.25 10.7 11.2 11.8 11.15 11.7 11.2 11.0 11.2 M8.9 12.2 L9.35 12.4 7.95 12.85 8.0 14.35 8.3 13.8 8.35 13.85 8.8 15.25 7.45 15.05 7.0 15.6 8.0 14.35 7.4 11.6 7.6 12.1 7.75 12.45 7.95 12.8 8.3 12.7 8.9 12.2 M7.3 11.05 L7.25 10.5 7.05 9.7 6.65 8.75 6.6 8.7 6.25 8.55 5.0 8.1 3.2 9.65 5.5 6.95 4.75 3.6 5.5 5.35 6.85 5.3 7.35 5.4 5.55 5.45 5.5 6.95 7.4 5.4 6.55 4.05 6.65 4.05 8.8 3.85 8.9 3.85 9.0 3.9 9.15 3.9 7.0 4.1 6.95 4.15 6.65 4.05 7.5 5.4 7.55 5.4 7.05 5.75 6.8 6.0 6.45 6.45 6.1 6.9 6.4 7.8 6.6 8.3 6.75 8.75 5.5 6.95 5.0 8.05 6.25 8.55 6.75 8.75 6.8 8.75 7.2 9.75 7.1 9.7 7.3 10.55 7.25 10.5 7.35 10.9 7.3 11.05 M3.25 7.2 L1.4 6.05 3.65 5.55 4.15 5.65 1.9 6.2 3.75 7.35 3.25 7.2 M8.9 1.35 L7.7 0.05 9.5 1.35 8.9 1.35 M9.25 4.0 L9.65 3.35 9.9 3.15 9.85 3.2 9.25 4.0 M9.3 4.1 L10.15 6.1 10.35 6.55 10.4 6.75 9.3 4.25 9.3 4.1 M10.3 8.7 L10.25 8.95 10.25 8.9 10.3 8.7 M9.9 10.1 L9.45 11.5 9.45 11.4 9.9 10.1 M8.6 11.95 L7.95 12.2 8.15 12.05 8.35 11.95 9.2 11.65 9.45 11.5 9.45 11.6 9.0 11.8 8.8 11.85 8.6 11.95 M7.8 5.6 L7.75 5.7 7.75 5.65 7.8 5.6 M12.25 10.6 L12.25 10.35 12.3 10.35 12.25 10.6 M6.75 7.95 L7.2 8.9 7.15 8.9 6.75 7.95 M7.5 9.7 L7.3 9.2 7.45 9.5 7.5 9.7 M7.95 11.75 L7.8 11.25 7.95 11.7 7.95 11.75" fill="#000000" fill-rule="evenodd" stroke="none"/>
    <path d="M14.1 2.95 L14.35 4.2 14.35 4.25 14.55 5.25 13.7 4.35 14.1 2.95 M13.0 7.1 L12.85 7.1 13.15 6.3 13.3 5.9 13.25 5.85 13.35 5.6 13.35 5.5 13.4 5.5 14.55 5.25 13.0 7.1 M12.3 9.55 L12.6 9.6 13.05 11.85 12.2 11.0 12.15 11.0 12.2 10.7 12.25 10.6 12.3 10.35 12.25 10.35 12.25 10.25 12.3 9.55 M12.5 12.55 L11.55 13.75 11.05 13.55 11.4 11.95 11.5 12.0 11.9 12.15 13.05 11.85 12.5 12.55 M9.35 12.4 L8.35 13.85 8.3 13.8 8.0 14.35 7.95 12.85 9.35 12.4 M7.0 15.6 L6.05 16.7 6.5 14.75 8.0 14.35 5.15 14.25 Q6.0 13.8 6.85 13.3 L7.4 11.6 8.0 14.35 7.0 15.6 M10.3 -1.85 L10.9 1.05 9.05 3.4 9.5 1.35 8.3 0.0 10.9 1.05 9.85 -0.1 10.3 -1.85 M11.65 10.7 L11.8 10.65 11.6 10.8 11.55 10.8 11.65 10.7 M12.05 10.3 L12.0 10.15 12.25 8.3 12.85 6.4 12.9 5.85 12.9 5.8 12.75 5.45 12.8 5.45 13.0 5.9 12.95 6.3 12.4 8.25 12.1 10.4 12.2 9.55 12.05 10.3 M11.0 3.85 L10.85 3.65 10.85 3.6 10.5 3.2 10.55 3.2 10.55 3.15 10.9 3.55 10.9 3.5 10.55 3.0 11.05 3.65 11.15 3.75 11.1 3.8 11.0 3.85 M9.85 2.65 L9.2 3.9 9.15 3.9 9.0 3.9 9.1 3.8 9.6 2.9 9.85 2.65 M9.45 11.5 L9.6 11.45 9.65 11.5 9.45 11.65 9.55 11.55 8.15 12.45 9.1 11.8 8.6 12.05 8.6 12.0 8.6 11.95 8.8 11.85 8.6 12.0 9.0 11.8 9.45 11.6 9.45 11.5 M7.8 5.5 L7.55 5.7 6.45 6.45 6.8 6.0 7.1 5.85 7.75 5.4 7.8 5.5 M4.15 5.65 L4.75 3.6 5.5 6.95 1.9 6.2 4.15 5.65 M3.75 7.35 L5.5 6.95 3.2 9.65 3.75 7.35 M6.6 8.3 L6.4 7.8 7.05 8.85 7.4 9.75 7.55 10.35 7.6 10.5 7.75 12.45 7.6 12.1 7.6 11.7 7.3 9.75 6.9 8.8 6.6 8.3" fill="#ffcc00" fill-rule="evenodd" stroke="none"/>
    <path d="M12.85 3.6 L12.75 3.8 12.65 3.9 11.75 5.8 11.85 5.7 11.0 7.6 12.05 10.45 11.05 10.85 10.3 8.7 10.25 8.9 10.25 8.95 11.05 10.95 10.9 11.0 10.8 10.8 10.7 10.45 10.15 9.2 10.15 9.15 10.05 9.5 9.9 10.1 9.45 11.4 9.45 11.5 9.2 11.65 8.35 11.95 8.15 12.05 8.2 12.0 8.3 11.85 9.75 7.9 7.9 4.6 7.0 4.1 9.15 3.9 9.2 3.9 9.25 4.0 9.3 4.1 9.3 4.25 10.4 6.75 11.4 4.1 11.35 3.95 11.25 3.75 12.85 3.6 M9.15 7.95 L7.8 5.75 7.8 5.6 7.85 5.6 7.8 5.5 7.75 5.4 7.85 5.45 7.85 5.6 7.9 5.55 9.35 8.0 9.15 7.95 M6.65 4.05 L6.95 4.15 7.55 5.15 7.6 5.1 7.65 5.2 7.8 5.35 7.75 5.4 7.55 5.4 7.5 5.4 6.65 4.05 M9.05 6.75 L9.7 7.9 9.7 7.95 9.05 6.75" fill="#646464" fill-rule="evenodd" stroke="none"/>
    <path d="M11.05 10.85 L11.05 10.95 10.25 8.95 10.3 8.7 11.05 10.85 M11.15 3.75 L11.2 3.7 11.25 3.75 11.35 3.95 11.4 4.1 10.4 6.75 10.35 6.55 10.15 6.1 10.35 5.65 10.35 5.55 11.0 3.85 11.1 3.8 11.15 3.75 M7.95 12.2 L7.95 12.1 8.0 12.1 8.0 11.55 9.15 7.95 9.35 8.0 7.9 5.55 7.85 5.6 7.85 5.45 7.75 5.4 7.8 5.35 7.65 5.2 7.6 5.1 7.55 5.15 6.95 4.15 7.0 4.1 7.9 4.6 9.75 7.9 8.3 11.85 8.2 12.0 8.15 12.05 7.95 12.2 M9.05 6.75 L9.7 7.95 9.7 7.9 9.05 6.75" fill="#c8c8c8" fill-rule="evenodd" stroke="none"/>
  </g>
</svg>
