<?xml version="1.0" encoding="UTF-8" standalone="no"?>
<svg xmlns:ffdec="https://www.free-decompiler.com/flash" xmlns:xlink="http://www.w3.org/1999/xlink" ffdec:objectType="shape" height="18.05px" width="15.7px" xmlns="http://www.w3.org/2000/svg">
  <g transform="matrix(1.0, 0.0, 0.0, 1.0, -0.7, 1.85)">
    <path d="M10.25 -1.85 L10.7 1.05 9.7 -0.1 10.25 -1.85 M7.85 0.05 L10.7 1.05 8.75 3.35 9.25 1.35 7.85 0.05 M14.4 4.45 L14.9 3.0 15.3 5.4 14.4 4.45 M10.7 2.6 L10.55 2.5 11.35 3.75 11.25 3.8 11.15 3.9 10.4 5.55 10.3 5.7 10.1 6.15 9.05 4.1 9.45 3.6 9.75 3.35 10.1 3.15 10.15 2.95 10.15 2.9 9.8 3.0 9.8 2.9 9.0 4.0 8.95 3.9 8.85 3.85 8.8 3.9 9.3 3.2 9.5 2.85 10.25 2.25 10.7 1.05 11.65 3.2 10.7 2.6 M9.0 7.9 L8.95 8.0 7.65 11.35 7.65 11.4 7.4 10.7 7.3 10.05 7.1 9.35 6.8 8.65 6.75 8.7 6.35 8.0 6.15 7.45 6.1 6.85 6.4 6.35 7.25 5.6 6.8 6.1 7.4 5.65 9.0 7.9 M7.6 11.8 L7.55 11.95 7.5 11.75 7.5 11.65 7.6 11.8 M11.15 11.0 L12.35 10.7 12.25 10.85 11.9 11.05 11.2 11.15 10.8 11.15 10.8 11.2 10.2 11.3 9.8 11.45 9.7 11.45 8.0 12.35 7.75 12.55 7.5 12.6 7.2 12.05 7.0 10.4 7.05 10.4 6.9 9.7 6.45 8.8 6.35 8.6 5.9 7.95 5.45 6.7 6.25 5.9 Q6.45 5.85 6.6 5.75 L7.25 5.35 7.4 5.45 6.8 5.85 6.1 6.45 6.85 5.9 6.3 6.35 6.0 6.85 6.05 7.4 6.45 8.25 6.0 7.5 6.7 8.75 6.65 8.75 7.0 9.5 7.05 9.7 7.2 10.3 7.6 12.5 7.55 12.0 7.7 11.95 7.75 12.05 7.8 11.95 9.15 11.6 9.2 11.6 9.25 11.55 9.4 11.15 9.55 11.15 10.1 10.95 10.1 11.0 10.65 10.9 10.7 10.95 10.95 10.95 11.0 11.05 10.1 11.2 10.1 11.25 10.75 11.1 10.75 11.15 11.3 11.05 11.05 11.05 11.15 11.0 M12.45 10.7 L12.45 10.65 12.5 10.65 12.45 10.6 12.5 10.35 12.45 10.5 12.25 10.05 12.4 9.6 12.7 8.0 13.1 7.0 13.25 6.45 13.3 6.0 13.4 5.95 13.15 5.6 13.25 5.6 12.85 5.3 12.9 5.25 13.3 5.55 13.45 5.5 13.6 5.9 13.65 5.85 13.6 6.35 13.95 5.65 13.55 6.75 13.25 7.3 12.8 8.5 12.85 8.65 12.75 8.95 12.65 9.8 12.6 9.8 12.5 10.65 12.45 10.75 12.45 10.7 M12.5 5.2 L12.5 5.15 12.75 5.35 12.5 5.2 M12.85 5.3 L13.15 5.55 13.15 5.6 12.8 5.3 12.85 5.3 M13.6 7.25 L14.05 5.6 15.3 5.4 13.6 7.25 M10.15 9.15 L10.3 9.55 10.15 9.8 9.75 10.25 10.15 9.15 M11.35 11.05 L11.3 11.05 11.8 10.95 11.35 11.05 11.8 10.95 11.3 11.05 11.35 11.05 M5.55 6.7 L6.0 7.5 5.55 6.7 M11.2 11.7 L12.55 11.2 13.05 9.8 13.4 12.1 11.2 11.7 M11.75 13.9 L12.2 12.35 13.4 12.1 13.2 12.35 11.75 13.9 M3.95 3.5 L4.5 6.75 4.85 5.3 6.9 5.3 4.5 6.75 2.3 9.2 2.85 7.05 4.5 6.75 0.9 5.9 3.3 5.45 3.95 3.5 M9.6 10.6 L9.75 10.25 9.7 10.6 9.6 10.6 M9.5 10.9 L9.55 10.8 9.65 10.8 9.5 10.9 M6.85 11.35 L7.1 12.75 7.1 12.7 7.3 14.1 7.5 12.65 9.15 12.3 7.3 14.1 4.35 13.7 6.3 13.0 6.85 11.35 M5.4 16.2 L5.9 14.35 7.3 14.1 5.4 16.2" fill="#ffcc00" fill-rule="evenodd" stroke="none"/>
    <path d="M10.7 1.05 L10.8 -0.05 12.4 0.2 10.7 1.05 7.85 0.05 9.25 -0.05 9.85 -1.75 10.25 -1.85 9.7 -0.1 10.7 1.05 10.25 2.25 9.5 2.85 9.3 3.2 8.8 3.9 8.7 3.8 9.2 3.0 9.15 3.05 8.75 3.35 8.35 3.3 8.85 1.35 9.25 1.35 8.75 3.35 10.7 1.05 M13.95 4.4 L14.45 3.0 14.9 3.0 14.4 4.45 14.4 4.4 13.95 4.4 M15.25 4.35 L16.4 4.4 15.3 5.4 15.75 6.9 14.75 6.25 15.3 5.4 14.05 5.6 13.6 7.25 13.4 7.2 12.9 8.4 12.7 9.65 13.05 9.8 12.55 11.2 12.5 11.15 12.05 11.35 11.7 11.3 11.2 11.7 13.4 12.1 13.4 10.95 14.6 10.75 13.4 12.1 14.0 13.1 12.9 12.75 13.2 12.35 13.4 12.1 12.2 12.35 11.75 13.9 11.35 13.65 11.8 12.1 11.2 11.7 10.8 11.5 11.25 11.3 10.8 11.3 10.15 11.4 9.45 11.7 9.5 11.65 9.1 11.8 7.95 12.5 7.75 12.55 8.0 12.35 9.7 11.45 9.8 11.45 10.2 11.3 10.8 11.2 10.8 11.15 11.2 11.15 11.9 11.05 12.25 10.85 12.35 10.7 12.45 10.7 12.45 10.75 12.5 10.65 12.6 9.8 12.65 9.8 12.75 8.95 12.85 8.65 12.8 8.5 13.25 7.3 13.55 6.75 13.95 5.65 13.6 6.35 13.65 5.85 13.6 5.9 13.45 5.5 13.3 5.55 12.9 5.25 12.85 5.3 13.25 5.6 13.15 5.6 13.4 5.95 13.3 6.0 13.25 6.45 13.1 7.0 12.7 8.0 12.4 9.6 12.25 10.05 11.2 7.55 12.5 5.2 12.75 5.35 12.5 5.15 12.7 4.85 13.05 5.0 13.55 5.2 13.65 5.25 13.65 5.3 14.0 5.65 14.05 5.6 13.1 4.7 14.4 4.45 15.3 5.4 15.25 4.35 M7.95 13.7 L8.5 15.1 7.3 14.1 7.1 12.7 7.1 12.75 6.85 11.35 7.0 11.65 7.1 11.85 7.1 11.35 6.95 10.4 7.0 10.4 6.8 9.65 6.4 8.75 6.45 8.8 5.95 8.05 6.15 8.55 4.25 7.8 2.3 9.2 4.5 6.75 2.85 7.05 2.55 6.85 0.9 5.9 4.5 6.75 3.95 3.5 4.8 5.2 4.85 5.3 4.5 6.75 5.45 6.7 5.9 7.95 6.35 8.6 6.45 8.8 6.9 9.7 7.05 10.4 7.0 10.4 7.2 12.05 7.5 12.6 7.5 12.65 7.3 14.1 7.95 13.7 M5.4 16.2 L5.1 15.85 5.5 14.2 4.35 13.7 4.05 13.4 5.95 12.7 6.5 11.1 6.85 11.35 6.3 13.0 4.35 13.7 7.3 14.1 5.9 14.35 5.4 16.2 M11.4 3.75 L11.35 3.75 10.55 2.5 10.7 2.6 10.95 3.0 11.35 3.65 11.4 3.65 11.45 3.7 11.4 3.75 M7.65 11.4 L7.6 11.45 7.6 11.8 7.5 11.65 7.5 11.75 7.55 11.95 7.55 12.0 7.6 12.5 7.2 10.3 7.05 9.7 7.15 9.8 7.05 9.45 7.0 9.5 6.65 8.75 6.7 8.75 6.0 7.5 6.45 8.25 6.05 7.4 6.0 6.85 6.3 6.35 6.85 5.9 6.1 6.45 6.8 5.85 7.4 5.45 7.4 5.55 7.35 5.55 7.4 5.65 6.8 6.1 7.25 5.6 6.4 6.35 6.1 6.85 6.15 7.45 6.35 8.0 6.75 8.7 6.8 8.65 7.1 9.35 7.3 10.05 7.4 10.7 7.65 11.4 M12.45 10.6 L12.45 10.5 12.5 10.35 12.45 10.6 M9.0 4.0 L9.8 2.9 9.8 3.0 10.15 2.9 10.15 2.95 10.1 3.15 9.75 3.35 9.45 3.6 9.05 4.1 9.0 4.0 M12.85 5.3 L12.8 5.3 13.15 5.6 13.15 5.55 12.85 5.3 M13.4 7.2 L13.6 6.75 13.35 7.2 13.4 7.2 M10.3 9.55 L10.85 10.7 10.9 10.85 10.95 10.95 10.7 10.95 10.65 10.9 10.1 11.0 10.1 10.95 9.55 11.15 9.4 11.15 9.5 10.9 9.65 10.8 9.55 10.8 9.6 10.6 9.7 10.6 9.75 10.25 10.15 9.8 10.3 9.55 M11.0 11.05 L11.05 11.05 11.3 11.05 10.75 11.15 10.75 11.1 10.1 11.25 10.1 11.2 11.0 11.05 M7.8 11.95 L7.75 12.05 7.7 11.95 7.8 11.95 M6.25 5.9 L7.15 5.3 7.25 5.3 7.25 5.35 6.6 5.75 Q6.45 5.85 6.25 5.9 M6.9 9.15 L6.7 8.75 6.95 9.3 6.9 9.15 M7.2 10.3 L7.4 11.0 7.55 11.6 7.55 11.5 7.4 11.0 7.15 9.8 7.2 10.3" fill="#7f6600" fill-rule="evenodd" stroke="none"/>
    <path d="M10.7 1.05 L10.25 -1.85 10.8 -0.05 10.7 1.05 12.4 0.2 11.2 1.35 11.65 3.2 11.15 3.2 10.95 3.0 11.4 3.65 13.35 3.55 13.35 3.6 11.4 3.75 11.45 3.7 11.4 3.65 11.35 3.65 10.95 3.0 10.7 2.6 11.65 3.2 10.7 1.05 M7.85 0.05 L9.25 1.35 8.85 1.35 7.45 0.05 7.85 0.05 M13.95 4.4 L14.4 4.4 14.4 4.45 13.1 4.7 14.05 5.6 14.0 5.65 13.65 5.3 13.65 5.25 13.55 5.2 13.05 5.0 12.75 4.75 12.7 4.85 12.5 5.15 12.5 5.2 11.2 7.55 12.25 10.05 12.45 10.5 12.45 10.6 12.5 10.65 12.45 10.65 12.45 10.7 12.35 10.7 11.15 11.0 11.1 10.95 11.15 10.95 12.4 10.6 11.15 7.6 13.0 4.15 13.1 3.9 13.25 3.75 12.8 4.6 13.95 4.4 M14.9 3.0 L15.2 4.25 15.25 4.3 15.25 4.35 15.3 5.4 14.75 6.25 15.75 6.9 15.3 5.4 16.4 4.4 15.5 5.45 15.75 6.9 15.3 6.8 14.6 6.35 13.6 7.25 15.3 5.4 14.9 3.0 M13.05 9.8 L13.35 10.7 14.15 10.55 14.6 10.75 13.7 11.85 14.0 13.1 13.4 12.1 14.6 10.75 13.4 10.95 13.4 12.1 13.05 9.8 M12.9 12.75 L11.75 13.9 13.2 12.35 12.9 12.75 M11.8 12.1 L11.15 11.75 11.2 11.7 11.7 11.3 12.05 11.35 12.5 11.15 12.55 11.2 11.2 11.7 11.8 12.1 M9.45 11.7 L9.1 11.8 9.05 11.9 8.75 12.05 9.15 12.3 7.95 13.7 7.3 14.1 9.15 12.3 7.5 12.65 7.5 12.6 7.75 12.55 7.95 12.5 9.1 11.8 9.5 11.65 9.45 11.7 M8.5 15.1 L6.95 14.8 5.4 16.2 7.3 14.1 8.5 15.1 M7.0 11.65 L6.95 11.0 6.65 9.5 6.3 8.7 6.15 8.55 5.95 8.05 6.45 8.8 6.4 8.75 6.8 9.65 7.0 10.4 6.95 10.4 7.1 11.35 7.1 11.85 7.0 11.65 M2.3 9.2 L2.05 8.95 2.55 6.85 2.85 7.05 2.3 9.2 M0.9 5.9 L0.7 5.75 3.0 5.35 3.65 3.45 3.95 3.5 3.3 5.45 0.9 5.9 M4.8 5.2 L6.5 5.2 6.9 5.3 6.65 5.55 7.05 5.3 6.1 3.95 6.2 3.95 8.65 3.8 9.15 3.05 9.2 3.0 8.7 3.8 8.8 3.9 6.35 4.05 6.2 3.95 7.15 5.3 6.25 5.9 5.45 6.7 4.5 6.75 6.9 5.3 4.85 5.3 4.8 5.2 M10.15 6.2 L10.25 6.45 10.25 6.55 9.0 4.1 8.95 4.05 9.0 4.0 9.05 4.1 10.1 6.15 10.15 6.2 M7.55 11.95 L7.7 11.95 7.55 12.0 7.55 11.95 M13.4 7.2 L13.35 7.2 13.6 6.75 13.4 7.2 M10.25 8.75 L10.2 8.95 10.15 9.15 9.75 10.25 9.6 10.6 9.55 10.8 9.5 10.9 9.4 11.15 9.25 11.55 9.2 11.6 9.15 11.6 7.8 11.95 7.7 11.95 9.25 11.55 9.25 11.4 10.25 8.75 M7.05 9.7 L7.0 9.5 7.05 9.45 7.15 9.8 7.05 9.7 M6.9 9.15 L6.95 9.3 6.7 8.75 6.9 9.15 M7.2 10.3 L7.15 9.8 7.4 11.0 7.55 11.5 7.55 11.6 7.4 11.0 7.2 10.3" fill="#000000" fill-rule="evenodd" stroke="none"/>
    <path d="M13.35 3.6 L13.25 3.75 13.1 3.9 13.0 4.15 11.55 4.15 11.45 3.85 11.35 3.75 11.4 3.75 13.35 3.6 M11.25 3.8 L10.15 6.2 10.1 6.15 10.3 5.7 10.4 5.55 11.15 3.9 11.25 3.8 M10.25 6.55 L10.3 6.65 10.3 6.9 9.0 4.45 9.0 4.1 6.75 4.2 6.55 4.1 7.35 5.3 7.4 5.3 9.15 7.9 9.0 7.9 7.4 5.65 7.35 5.55 7.4 5.55 7.4 5.45 7.25 5.35 7.25 5.3 7.15 5.3 6.2 3.95 6.35 4.05 8.8 3.9 8.85 3.85 8.95 3.9 9.0 4.0 8.95 4.05 9.0 4.1 10.25 6.55 M7.7 11.95 L8.0 11.6 9.2 11.3 10.25 8.55 10.25 8.45 10.85 7.7 10.95 7.15 10.95 7.2 11.0 7.05 11.6 4.3 11.55 4.25 13.0 4.15 11.15 7.6 12.4 10.6 11.15 10.95 11.25 10.75 10.25 8.55 10.25 8.75 9.25 11.4 9.25 11.55 7.7 11.95 M11.1 10.95 L11.15 11.0 11.05 11.05 11.0 11.05 10.95 10.95 10.9 10.85 10.85 10.7 10.3 9.55 10.15 9.15 10.2 8.95 11.1 10.95" fill="#646464" fill-rule="evenodd" stroke="none"/>
    <path d="M11.35 3.75 L11.45 3.85 11.55 4.15 13.0 4.15 11.55 4.25 11.6 4.3 11.0 7.05 10.95 7.2 10.95 7.15 10.85 7.7 10.25 8.45 10.25 8.55 9.2 11.3 8.0 11.6 7.7 11.95 7.55 11.95 7.6 11.8 7.6 11.45 7.65 11.4 7.65 11.35 8.95 8.0 9.0 7.9 9.15 7.9 7.4 5.3 7.35 5.3 6.55 4.1 6.75 4.2 9.0 4.1 9.0 4.45 10.3 6.9 10.3 6.65 10.25 6.55 10.25 6.45 10.15 6.2 11.25 3.8 11.35 3.75 M11.15 10.95 L11.1 10.95 10.2 8.95 10.25 8.75 10.25 8.55 11.25 10.75 11.15 10.95" fill="#c8c8c8" fill-rule="evenodd" stroke="none"/>
  </g>
</svg>
