<?xml version="1.0" encoding="UTF-8" standalone="no"?>
<svg xmlns:ffdec="https://www.free-decompiler.com/flash" xmlns:xlink="http://www.w3.org/1999/xlink" ffdec:objectType="shape" height="17.5px" width="17.0px" xmlns="http://www.w3.org/2000/svg">
  <g transform="matrix(1.0, 0.0, 0.0, 1.0, -0.45, 1.85)">
    <path d="M10.2 -1.85 L10.5 1.05 11.8 3.25 10.75 2.6 10.6 2.55 11.1 3.15 11.45 3.7 11.5 3.75 11.45 3.75 11.3 3.9 10.1 6.2 8.85 4.1 9.05 3.85 9.7 3.25 9.7 3.2 10.2 3.0 10.1 2.95 10.0 3.0 10.0 2.95 9.7 3.1 9.7 3.15 9.4 3.45 9.35 3.4 8.95 3.85 8.85 4.0 8.8 3.95 8.7 3.85 8.6 3.85 9.5 2.75 10.15 2.25 10.5 1.05 8.5 3.35 9.1 1.35 7.55 0.05 10.5 1.05 9.55 -0.1 10.2 -1.85 M10.15 2.25 L10.15 2.3 10.2 2.3 10.15 2.25 M7.35 11.4 L7.35 11.45 7.3 11.55 7.25 11.75 7.35 11.8 7.4 11.7 7.65 11.75 8.95 11.55 9.05 11.5 9.1 11.45 10.1 9.1 11.1 11.15 11.15 11.15 11.25 11.1 12.6 10.9 12.75 10.8 11.3 7.6 11.75 6.9 12.85 5.1 13.3 5.35 12.9 5.05 12.95 4.95 14.2 5.4 14.55 5.75 14.25 6.65 14.15 6.75 13.5 8.0 13.45 8.0 13.2 8.6 13.15 9.3 13.1 9.35 13.05 9.8 13.05 10.05 13.0 10.05 13.0 10.25 12.9 11.0 12.85 11.1 12.8 11.35 12.45 11.45 11.35 11.3 10.15 11.35 8.3 11.95 7.55 12.35 7.15 12.4 6.9 11.9 6.85 11.2 6.7 10.15 6.55 9.5 6.45 9.35 6.25 8.85 6.2 8.75 6.05 8.45 5.75 8.1 5.5 7.75 5.0 6.5 5.9 5.75 6.25 5.65 6.95 5.25 7.1 5.4 6.0 6.15 5.65 6.7 5.7 7.25 6.65 9.15 6.95 10.3 7.25 11.25 7.25 11.35 7.3 11.3 6.7 9.15 6.6 8.9 5.75 7.25 5.7 6.65 6.05 6.15 7.1 5.5 7.4 5.95 7.45 5.95 8.85 7.85 7.6 10.7 7.35 11.25 7.35 11.3 7.3 11.35 7.35 11.4 M12.8 11.4 L13.4 10.0 13.65 12.4 13.85 11.2 15.25 11.1 13.65 12.4 11.9 14.1 12.4 12.55 13.65 12.4 11.25 11.8 12.8 11.4 M14.05 7.45 L14.6 5.75 15.95 5.55 14.05 7.45 M15.95 5.55 L15.05 4.55 15.65 3.05 15.95 5.55 M4.4 5.15 L6.5 5.2 3.85 6.5 1.85 8.7 2.4 6.7 3.85 6.5 0.5 5.55 2.85 5.25 3.5 3.4 3.85 6.5 4.4 5.15 M5.45 13.9 L6.8 13.8 3.9 13.15 5.9 12.65 6.5 11.1 6.8 13.8 7.2 12.4 8.95 12.25 6.8 13.8 4.95 15.65 5.45 13.9" fill="#ffcc00" fill-rule="evenodd" stroke="none"/>
    <path d="M11.8 3.25 L11.45 3.2 10.9 2.9 10.75 2.6 11.8 3.25 M11.5 3.65 L13.8 3.6 13.75 3.65 11.5 3.75 11.5 3.65 M13.7 3.75 L13.1 4.7 14.65 4.5 15.05 4.55 13.45 4.8 14.1 5.35 13.7 5.2 13.1 4.7 13.0 4.9 12.95 4.95 13.1 4.7 13.55 3.9 13.7 3.75 M15.65 3.05 L16.05 4.45 17.0 4.5 17.45 4.6 16.35 5.6 16.65 7.15 16.25 7.05 15.35 6.5 14.05 7.45 15.95 5.55 15.65 3.05 M13.4 10.0 L13.75 10.95 14.9 10.9 15.25 11.1 14.15 12.2 14.5 13.5 13.65 12.4 15.25 11.1 13.85 11.2 13.65 12.4 13.4 10.0 M13.25 13.0 L11.9 14.1 13.65 12.4 13.25 13.0 M11.25 11.8 L10.95 11.55 11.55 11.4 11.6 11.4 12.25 11.5 12.45 11.45 12.8 11.35 12.8 11.4 11.25 11.8 M8.35 12.0 L8.75 12.0 8.95 12.25 7.65 13.45 6.8 13.8 6.6 14.45 4.95 15.65 4.8 15.25 5.25 13.8 5.45 13.9 4.95 15.65 6.8 13.8 8.95 12.25 7.2 12.4 7.15 12.4 7.55 12.35 7.75 12.3 8.35 12.0 M5.7 12.35 L6.3 10.85 6.5 11.1 5.9 12.65 5.7 12.35 M6.8 11.65 L6.65 10.1 6.0 8.4 5.5 7.8 5.5 7.75 5.75 8.1 6.0 8.4 6.2 8.75 6.25 8.85 6.45 9.35 6.7 10.15 6.85 11.2 6.85 11.85 6.8 11.65 M1.85 8.7 L1.75 8.5 2.25 6.65 2.4 6.7 1.85 8.7 M0.5 5.55 L0.45 5.45 2.75 5.15 3.35 3.35 3.5 3.4 2.85 5.25 0.5 5.55 M4.35 5.05 L6.3 5.1 6.5 5.2 4.4 5.15 4.35 5.05 M6.05 5.6 L6.8 5.25 5.8 3.9 8.55 3.8 9.15 3.0 9.15 2.95 9.4 2.8 8.6 3.85 5.95 3.95 6.9 5.25 5.9 5.75 6.05 5.6 M8.5 3.35 L8.25 3.3 8.8 1.35 7.3 0.05 7.55 0.05 9.1 1.35 8.5 3.35 M9.3 -0.05 L9.9 -1.75 10.2 -1.85 9.55 -0.1 9.3 -0.05 M10.15 2.25 L10.2 2.3 10.15 2.3 10.15 2.25 M8.8 3.95 L8.85 4.0 8.85 4.1 10.1 6.2 10.1 6.25 10.2 6.5 8.85 4.1 8.8 4.0 8.8 3.95 M7.25 11.75 L7.4 11.7 9.1 11.45 9.05 11.5 8.95 11.55 7.65 11.75 7.4 11.7 7.35 11.8 7.25 11.75 M11.1 11.15 L11.25 11.05 12.75 10.8 11.25 7.65 11.75 6.9 11.3 7.6 12.75 10.8 12.6 10.9 11.25 11.1 11.15 11.15 11.1 11.15 M12.85 5.1 L12.95 4.95 12.9 5.05 12.85 5.1 M13.05 10.05 L13.0 10.25 13.0 10.05 13.05 10.05 13.0 10.25 13.05 10.05 M15.95 5.55 L15.45 6.45 16.65 7.15 15.95 5.55 17.45 4.6 16.05 4.5 15.95 5.55 M7.1 5.5 L7.45 5.95 7.4 5.95 7.1 5.5" fill="#000000" fill-rule="evenodd" stroke="none"/>
    <path d="M13.75 3.65 L13.7 3.75 13.55 3.9 13.1 4.7 12.95 4.95 12.85 5.1 11.75 6.9 11.25 7.65 12.75 10.8 11.25 11.05 11.1 11.15 10.1 9.1 9.1 11.45 7.4 11.7 7.65 11.5 9.05 11.3 10.2 8.65 10.15 8.85 11.15 10.85 12.45 10.65 12.55 10.7 11.05 7.7 11.0 7.7 13.25 4.1 13.55 3.9 11.55 3.95 11.5 3.8 10.1 6.25 10.1 6.2 11.3 3.9 11.45 3.75 11.5 3.75 13.75 3.65 M8.6 3.85 L8.7 3.85 8.8 3.95 8.8 4.0 8.85 4.1 10.2 6.5 10.2 6.7 8.8 4.25 8.8 4.0 6.35 4.15 6.2 4.05 7.7 6.05 7.75 6.1 9.05 7.85 8.9 7.9 7.35 11.4 7.35 11.3 7.35 11.25 7.6 10.7 8.9 7.9 8.85 7.85 7.45 5.95 7.1 5.5 7.05 5.45 7.1 5.45 7.1 5.4 6.95 5.25 6.9 5.25 5.95 3.95 8.6 3.85 M11.25 11.05 L11.3 10.9 12.55 10.7 11.15 10.85 11.25 11.05" fill="#646464" fill-rule="evenodd" stroke="none"/>
    <path d="M10.1 6.25 L11.5 3.8 11.55 3.95 13.55 3.9 13.25 4.1 11.0 7.7 11.05 7.7 12.55 10.7 12.45 10.65 11.15 10.85 10.15 8.85 10.2 8.65 9.05 11.3 7.65 11.5 7.4 11.7 7.25 11.75 7.3 11.55 7.35 11.45 7.35 11.4 8.9 7.9 9.05 7.85 7.75 6.1 7.7 6.05 6.2 4.05 6.35 4.15 8.8 4.0 8.8 4.25 10.2 6.7 10.2 6.5 10.1 6.25 M11.25 11.05 L11.15 10.85 12.55 10.7 11.3 10.9 11.25 11.05 M8.85 7.85 L8.9 7.9 7.6 10.7 8.85 7.85" fill="#c8c8c8" fill-rule="evenodd" stroke="none"/>
    <path d="M10.2 -1.85 L10.85 -0.05 12.6 0.2 11.25 1.35 11.8 3.25 10.5 1.05 10.2 -1.85 M10.9 2.9 L11.1 3.15 11.5 3.65 11.5 3.75 11.45 3.7 11.1 3.15 10.6 2.55 10.75 2.6 10.9 2.9 M14.65 4.5 L15.25 3.05 15.65 3.05 15.05 4.55 15.95 5.55 16.05 4.5 17.45 4.6 15.95 5.55 16.65 7.15 15.45 6.45 15.95 5.55 14.6 5.75 14.05 7.45 13.85 7.35 13.3 8.5 13.15 9.3 13.2 8.6 13.45 8.0 13.5 8.0 14.15 6.75 14.25 6.65 14.55 5.75 14.2 5.4 12.95 4.95 13.0 4.9 13.55 5.15 13.7 5.2 14.1 5.35 13.45 4.8 15.05 4.55 14.65 4.5 M13.05 9.8 L13.4 10.0 12.8 11.4 12.8 11.35 12.85 11.1 12.9 11.0 13.0 10.25 13.05 10.05 13.05 9.8 M14.5 13.5 L13.25 13.0 13.65 12.4 14.5 13.5 M11.9 14.1 L11.6 13.8 12.05 12.3 11.25 11.8 13.65 12.4 12.4 12.55 11.9 14.1 M11.55 11.4 L10.85 11.35 10.05 11.45 8.35 12.0 7.75 12.3 7.55 12.35 8.3 11.95 10.15 11.35 11.35 11.3 12.45 11.45 12.25 11.5 11.6 11.4 11.55 11.4 M7.65 13.45 L8.3 14.9 6.6 14.45 6.8 13.8 5.45 13.9 5.25 13.8 3.9 13.15 3.8 12.85 5.7 12.35 5.9 12.65 3.9 13.15 6.8 13.8 6.5 11.1 6.8 11.65 6.85 11.85 6.85 11.2 6.9 11.9 7.15 12.4 7.2 12.4 6.8 13.8 7.65 13.45 M5.5 7.8 L5.75 8.3 3.8 7.55 1.85 8.7 3.85 6.5 6.5 5.2 6.05 5.6 5.9 5.75 5.0 6.5 5.5 7.75 5.5 7.8 M2.25 6.65 L0.5 5.55 3.85 6.5 2.4 6.7 2.25 6.65 M3.5 3.4 L4.35 5.05 4.4 5.15 3.85 6.5 3.5 3.4 M9.15 2.95 L8.5 3.35 10.5 1.05 10.15 2.25 9.5 2.75 8.6 3.85 9.4 2.8 9.15 2.95 M7.55 0.05 L9.3 -0.05 9.55 -0.1 10.5 1.05 7.55 0.05 M8.85 4.0 L8.95 3.85 9.35 3.4 9.4 3.45 9.7 3.15 9.7 3.1 10.0 2.95 10.0 3.0 10.1 2.95 10.2 3.0 9.7 3.2 9.7 3.25 9.05 3.85 8.85 4.1 8.85 4.0 M12.9 5.05 L13.3 5.35 12.85 5.1 12.9 5.05 M6.9 5.25 L6.95 5.25 6.25 5.65 5.9 5.75 6.9 5.25 M7.1 5.4 L7.1 5.45 7.05 5.45 7.1 5.5 6.05 6.15 5.7 6.65 5.75 7.25 6.6 8.9 6.7 9.15 7.3 11.3 7.25 11.35 7.25 11.25 6.95 10.3 6.65 9.15 5.7 7.25 5.65 6.7 6.0 6.15 7.1 5.4 M7.35 11.3 L7.35 11.4 7.3 11.35 7.35 11.3 M6.45 9.35 L6.55 9.5 6.7 10.15 6.45 9.35 M6.2 8.75 L6.0 8.4 5.75 8.1 6.05 8.45 6.2 8.75" fill="#7f6600" fill-rule="evenodd" stroke="none"/>
  </g>
</svg>
