<?xml version="1.0" encoding="UTF-8" standalone="no"?>
<svg xmlns:ffdec="https://www.free-decompiler.com/flash" xmlns:xlink="http://www.w3.org/1999/xlink" ffdec:objectType="shape" height="16.9px" width="17.9px" xmlns="http://www.w3.org/2000/svg">
  <g transform="matrix(1.0, 0.0, 0.0, 1.0, -0.75, 1.85)">
    <path d="M10.3 6.2 L11.6 3.95 11.65 3.9 11.7 3.9 11.75 3.8 11.8 3.75 11.9 3.75 14.35 3.7 14.15 3.9 12.65 6.15 11.6 7.65 11.55 7.7 11.6 7.7 12.1 8.7 12.5 9.55 13.05 10.7 13.15 10.9 13.2 11.05 13.1 11.05 11.55 11.2 11.5 11.15 11.55 11.05 13.05 10.9 11.45 7.75 11.3 7.8 13.8 4.1 14.15 3.9 11.8 3.95 11.8 3.85 10.35 6.4 10.35 6.65 8.85 4.15 8.85 3.95 6.25 4.0 6.35 4.05 7.85 6.0 7.9 6.05 9.2 7.8 9.05 7.8 7.45 11.2 7.45 11.4 7.4 11.4 7.4 11.3 7.45 11.2 7.5 11.0 9.0 7.75 9.05 7.8 7.2 5.35 7.05 5.15 7.0 5.1 6.1 3.85 8.75 3.8 8.75 3.85 8.8 3.8 8.9 3.95 8.85 3.95 10.25 6.25 10.3 6.2 M7.3 11.55 Q7.5 11.5 7.65 11.4 L9.15 11.25 10.4 8.6 10.4 8.7 10.35 8.8 11.5 11.15 11.45 11.2 11.4 11.2 10.85 10.15 10.3 9.0 10.3 9.05 10.25 9.15 10.2 9.3 9.2 11.4 7.3 11.55" fill="#646464" fill-rule="evenodd" stroke="none"/>
    <path d="M10.35 -1.85 L9.7 -0.1 9.55 -0.05 10.25 -1.75 10.35 -1.85 M7.6 0.1 L9.2 1.35 8.55 3.3 8.5 3.25 9.05 1.35 7.55 0.15 7.6 0.1 M8.9 3.7 L8.8 3.8 8.9 3.85 8.9 3.95 8.95 3.95 9.0 4.0 10.3 6.2 10.25 6.25 8.85 3.95 8.9 3.95 8.8 3.8 8.75 3.85 8.75 3.8 6.1 3.85 7.0 5.1 7.05 5.15 7.0 5.15 5.85 5.7 6.05 5.5 6.95 5.1 5.95 3.8 8.75 3.75 9.4 2.95 9.5 2.8 9.65 2.7 8.9 3.7 M11.0 2.65 L12.1 3.3 11.1 2.75 11.0 2.65 M11.3 3.05 L11.85 3.7 14.35 3.65 14.35 3.7 13.5 4.95 14.1 5.25 14.35 5.3 13.7 4.8 15.45 4.6 16.1 3.1 16.45 3.15 15.75 4.7 13.95 4.9 14.7 5.45 14.45 5.4 14.1 5.25 13.45 5.0 13.35 5.15 13.3 5.2 12.65 6.15 14.15 3.9 14.35 3.7 11.9 3.75 11.85 3.7 11.75 3.7 11.3 3.05 M16.9 4.6 L18.25 4.65 18.6 4.75 18.65 4.75 17.25 5.85 16.65 5.75 18.6 4.75 16.95 4.65 16.9 4.6 M14.6 7.65 L14.45 7.55 14.8 6.95 15.2 5.95 15.2 5.9 15.25 5.9 14.6 7.65 M13.5 10.3 L13.65 10.05 13.5 10.7 13.5 10.3 M14.3 11.25 L15.75 11.25 16.0 11.5 14.75 12.55 14.05 12.75 13.75 13.35 12.2 14.3 12.05 13.95 12.55 12.6 12.8 12.75 12.2 14.3 14.05 12.75 16.0 11.5 14.4 11.5 14.3 11.25 M11.5 11.9 L11.35 11.65 11.9 11.55 12.6 11.7 12.7 11.7 12.85 11.65 13.25 11.6 13.25 11.65 11.5 11.9 M8.65 11.85 L9.0 11.85 9.1 12.15 7.8 13.2 8.25 14.35 8.3 14.7 6.65 14.1 5.05 15.05 5.05 14.7 5.4 13.4 5.5 13.45 5.05 15.05 6.7 13.45 9.1 12.15 7.2 12.15 7.6 12.1 7.75 12.1 8.65 11.85 M4.0 12.6 L4.05 12.3 5.9 12.0 6.5 10.55 6.9 11.35 6.85 10.45 6.95 10.95 7.0 11.7 6.55 10.8 5.95 12.3 4.0 12.6 M6.25 8.5 L6.1 8.2 6.25 8.45 6.25 8.5 M5.75 7.75 L5.6 7.6 5.65 7.7 5.5 7.4 5.7 7.65 5.75 7.7 5.75 7.75 M0.75 5.3 L0.9 5.15 3.0 4.95 2.95 5.05 0.75 5.3 M3.6 3.3 L3.6 3.25 4.45 4.9 6.5 5.0 6.55 5.1 4.45 5.0 3.6 3.3 M11.5 11.15 L11.55 11.2 13.1 11.05 12.55 11.15 11.55 11.2 11.45 11.2 11.5 11.15 M13.05 10.7 L12.5 9.55 12.55 9.55 13.0 10.5 13.05 10.7 M12.1 8.7 L11.6 7.7 11.55 7.7 11.6 7.65 12.1 8.7 M7.2 5.35 L9.05 7.8 9.0 7.75 7.2 5.4 7.2 5.35 M10.25 9.15 L10.3 9.05 10.3 9.0 10.85 10.15 10.3 9.05 10.3 9.2 10.25 9.15 M10.2 9.3 L9.25 11.4 9.2 11.4 9.15 11.45 7.3 11.55 9.2 11.4 10.2 9.3 M8.75 3.75 L8.75 3.8 8.8 3.8 8.8 3.75 8.75 3.75 M6.7 13.45 L8.3 14.7 7.75 13.25 6.7 13.45" fill="#000000" fill-rule="evenodd" stroke="none"/>
    <path d="M10.35 -1.85 L10.55 1.05 12.1 3.3 11.0 2.65 10.95 2.6 11.5 3.4 11.75 3.7 11.8 3.75 11.75 3.8 11.7 3.9 11.35 3.55 11.35 3.6 11.65 3.9 11.6 3.95 10.3 6.2 9.0 4.0 9.85 3.2 9.85 3.15 8.95 3.95 8.9 3.95 8.9 3.85 8.8 3.8 8.9 3.7 9.45 3.05 9.65 2.7 10.35 2.25 10.55 1.05 8.6 3.3 8.55 3.3 9.2 1.35 7.6 0.1 9.55 -0.05 9.7 -0.1 10.35 -1.85 M14.15 8.05 L13.85 8.65 13.75 8.85 13.6 9.55 13.5 10.3 13.45 10.8 13.5 10.7 13.5 10.95 13.4 11.25 13.35 11.25 13.25 11.6 12.85 11.65 12.7 11.7 11.5 11.4 11.05 11.4 10.35 11.4 10.2 11.4 9.45 11.55 9.15 11.65 9.1 11.7 9.05 11.7 9.1 11.6 7.75 12.1 7.6 12.1 7.2 12.15 9.1 12.15 6.7 13.45 5.05 15.05 5.5 13.45 6.7 13.45 4.0 12.6 5.95 12.3 6.55 10.8 7.0 11.7 6.95 10.95 6.85 10.45 6.85 10.2 6.8 10.05 6.75 9.75 6.6 9.2 6.55 9.1 6.25 8.45 6.1 8.2 5.75 7.75 5.75 7.7 5.7 7.65 5.75 7.65 5.4 7.25 5.5 7.4 5.65 7.7 5.8 8.05 5.75 8.0 3.75 6.25 5.05 6.3 5.85 5.7 6.55 5.45 7.0 5.15 7.05 5.15 7.2 5.35 6.4 5.8 6.1 6.05 6.05 6.05 6.0 6.15 7.2 5.4 9.0 7.75 7.5 11.0 7.45 11.2 7.4 11.3 7.4 11.4 7.3 11.55 9.15 11.45 9.2 11.4 9.25 11.4 10.2 9.3 10.25 9.15 10.3 9.2 10.3 9.05 10.85 10.15 11.4 11.2 11.45 11.2 11.55 11.2 12.55 11.15 13.1 11.05 13.2 11.05 13.15 10.9 13.05 10.7 13.0 10.5 12.55 9.55 12.5 9.55 12.1 8.7 11.6 7.65 12.65 6.15 13.3 5.2 13.8 5.45 13.35 5.15 13.45 5.0 14.1 5.25 14.45 5.4 14.7 5.45 15.2 5.9 15.2 5.95 14.8 6.95 14.2 7.9 14.05 8.15 14.15 8.05 M3.0 4.95 L3.6 3.3 4.45 5.0 6.55 5.1 3.75 6.25 0.75 5.3 2.95 5.05 3.0 4.95 M15.25 5.9 L16.65 5.75 13.95 4.9 15.75 4.7 16.45 3.15 16.65 5.75 14.6 7.65 15.25 5.9 M13.25 11.65 L13.4 11.25 13.45 11.25 13.85 10.25 14.05 12.75 14.4 11.5 16.0 11.5 14.05 12.75 12.2 14.3 12.8 12.75 14.05 12.75 11.5 11.9 13.25 11.65 M5.9 7.4 L6.25 8.05 6.2 7.9 5.9 7.4 M6.4 8.35 L6.8 9.05 6.45 8.35 6.4 8.35 M7.1 10.25 L7.15 10.55 7.4 11.1 7.15 10.3 7.1 10.25 M7.05 9.8 L6.8 9.05 7.1 10.2 7.05 9.8" fill="#ffcc00" fill-rule="evenodd" stroke="none"/>
    <path d="M14.15 3.9 L13.8 4.1 11.3 7.8 11.45 7.75 13.05 10.9 11.55 11.05 11.5 11.15 10.35 8.8 10.4 8.7 10.4 8.6 9.15 11.25 7.65 11.4 Q7.5 11.5 7.3 11.55 L7.4 11.4 7.45 11.4 7.45 11.2 9.05 7.8 9.2 7.8 7.9 6.05 7.85 6.0 6.35 4.05 6.25 4.0 8.85 3.95 8.85 4.15 10.35 6.65 10.35 6.4 11.8 3.85 11.8 3.95 14.15 3.9" fill="#c8c8c8" fill-rule="evenodd" stroke="none"/>
    <path d="M12.1 3.3 L10.55 1.05 10.35 -1.85 11.05 -0.05 13.0 0.15 11.55 1.4 12.1 3.3 M8.6 3.3 L10.55 1.05 10.35 2.25 9.65 2.7 9.45 3.05 8.9 3.7 9.65 2.7 9.5 2.8 8.6 3.35 8.6 3.3 M8.95 3.95 L9.85 3.15 9.85 3.2 9.0 4.0 8.95 3.95 M11.65 3.9 L11.35 3.6 11.35 3.55 11.7 3.9 11.65 3.9 M11.8 3.75 L11.75 3.7 11.5 3.4 10.95 2.6 11.0 2.65 11.1 2.75 11.3 3.05 11.75 3.7 11.85 3.7 11.9 3.75 11.8 3.75 M16.45 3.15 L16.9 4.6 16.95 4.65 18.6 4.75 16.65 5.75 17.25 5.85 17.65 7.5 16.2 6.7 14.6 7.65 16.65 5.75 16.45 3.15 M14.45 7.55 L14.2 7.9 14.15 8.05 14.05 8.15 14.2 7.9 14.8 6.95 14.45 7.55 M13.85 8.65 L13.6 9.55 13.75 8.85 13.85 8.65 M13.65 10.05 L13.85 10.25 14.3 11.25 14.4 11.5 14.05 12.75 13.85 10.25 13.45 11.25 13.4 11.25 13.25 11.65 13.25 11.6 13.35 11.25 13.4 11.25 13.5 10.95 13.5 10.7 13.45 10.8 13.5 10.3 13.5 10.7 13.65 10.05 M14.75 12.55 L15.15 13.95 13.75 13.35 14.05 12.75 14.75 12.55 M12.55 12.6 L11.5 11.9 14.05 12.75 12.8 12.75 12.55 12.6 M11.9 11.55 L11.95 11.55 11.05 11.4 11.5 11.4 12.7 11.7 12.6 11.7 11.9 11.55 M10.35 11.4 L9.45 11.55 9.1 11.7 9.15 11.65 9.45 11.55 10.2 11.4 10.35 11.4 M9.05 11.7 L8.5 11.85 8.65 11.85 7.75 12.1 9.1 11.6 9.05 11.7 M5.4 13.4 L4.0 12.6 6.7 13.45 5.5 13.45 5.4 13.4 M6.85 10.45 L6.8 10.05 6.55 9.1 6.25 8.5 6.25 8.45 6.55 9.1 6.6 9.2 6.75 9.75 6.8 10.05 6.85 10.2 6.85 10.45 M5.8 8.05 L3.85 7.25 2.05 8.25 2.55 6.4 0.75 5.3 3.75 6.25 6.55 5.1 6.05 5.5 5.85 5.7 7.0 5.15 6.55 5.45 5.85 5.7 5.05 6.3 3.75 6.25 5.75 8.0 5.8 8.05 M13.35 5.15 L13.8 5.45 13.3 5.2 13.35 5.15 M15.2 5.9 L14.7 5.45 13.95 4.9 16.65 5.75 15.25 5.9 15.2 5.9 M7.2 5.35 L7.2 5.4 6.0 6.15 6.05 6.05 6.1 6.05 6.4 5.8 7.2 5.35 M8.75 3.75 L8.8 3.75 8.8 3.8 8.75 3.8 8.75 3.75 M5.5 7.4 L5.4 7.25 5.75 7.65 5.7 7.65 5.5 7.4 M5.9 7.4 L6.2 7.9 6.25 8.05 5.9 7.4 M7.05 9.8 L7.1 10.2 6.8 9.05 7.05 9.8 M7.1 10.25 L7.15 10.3 7.4 11.1 7.15 10.55 7.1 10.25 M6.4 8.35 L6.45 8.35 6.8 9.05 6.4 8.35 M6.7 13.45 L7.75 13.25 8.3 14.7 6.7 13.45" fill="#7f6600" fill-rule="evenodd" stroke="none"/>
  </g>
</svg>
