<?xml version="1.0" encoding="UTF-8" standalone="no"?>
<svg xmlns:ffdec="https://www.free-decompiler.com/flash" xmlns:xlink="http://www.w3.org/1999/xlink" ffdec:objectType="shape" height="9.45px" width="17.25px" xmlns="http://www.w3.org/2000/svg">
  <g transform="matrix(1.0, 0.0, 0.0, 1.0, -0.15, -1.35)">
    <path d="M13.8 2.25 L13.9 2.35 13.9 2.4 13.8 2.25 M13.95 2.55 L13.95 2.8 13.85 2.9 13.8 3.05 13.5 3.25 13.85 2.9 13.95 2.55 M12.85 3.6 L12.55 3.75 11.85 3.95 12.25 3.8 12.55 3.75 12.5 3.75 12.45 3.7 12.7 3.65 12.85 3.6 M11.15 4.1 L10.55 4.15 10.85 4.1 11.15 4.1 M9.7 4.25 L8.75 4.25 8.3 4.25 7.6 4.15 7.2 4.1 6.85 3.95 6.65 3.9 6.3 3.75 6.3 3.7 6.2 3.7 5.85 3.45 5.8 3.3 6.3 3.7 6.35 3.7 6.4 3.75 6.65 3.9 7.15 4.0 7.6 4.15 7.75 4.1 7.95 4.15 8.5 4.2 8.75 4.25 9.35 4.2 9.7 4.25 M5.75 3.15 L5.7 3.1 5.75 3.1 5.75 3.15 M5.8 2.8 L5.7 2.8 5.8 2.7 5.8 2.8 M6.15 2.35 L6.2 2.3 6.8 1.95 8.05 1.55 9.05 1.45 8.35 1.6 8.3 1.6 7.5 1.8 7.5 1.75 6.65 2.1 6.2 2.35 6.15 2.35 M10.2 1.4 L11.1 1.35 11.85 1.45 11.1 1.4 11.05 1.4 10.2 1.4 M11.9 1.45 L12.3 1.5 12.4 1.55 11.9 1.45 M12.65 1.6 L13.05 1.7 13.1 1.75 13.25 1.8 13.35 1.85 12.65 1.6 M12.2 1.95 L12.5 2.05 12.6 2.05 12.7 2.1 12.65 2.1 12.75 2.15 12.85 2.15 12.85 2.2 13.0 2.25 12.95 2.25 13.05 2.3 13.1 2.4 12.55 2.1 11.5 1.85 11.6 1.85 11.85 1.9 12.1 1.9 12.2 1.95 M13.1 2.8 L13.1 2.85 12.85 3.05 12.9 3.05 12.55 3.25 12.3 3.35 12.05 3.45 11.0 3.7 10.9 3.7 9.4 3.85 8.55 3.8 8.0 3.7 7.45 3.6 7.05 3.45 6.75 3.25 6.75 3.2 7.1 3.45 8.0 3.7 8.95 3.8 11.15 3.65 12.3 3.35 12.85 3.05 13.1 2.8 M8.2 2.05 L7.3 2.35 Q7.5 2.3 7.65 2.2 L8.2 2.05 M16.1 3.5 L15.75 3.45 14.8 3.45 14.8 3.4 12.65 4.0 12.7 3.95 12.45 4.05 12.4 4.0 11.25 4.5 11.2 4.5 10.7 4.9 10.55 5.15 10.4 5.55 10.3 5.55 10.55 5.1 10.55 5.15 10.65 4.9 11.15 4.5 12.35 4.0 12.7 3.95 14.7 3.4 14.8 3.4 15.55 3.4 16.1 3.5 M10.15 6.25 L10.15 6.55 10.15 6.65 10.1 6.7 10.1 6.65 10.15 6.55 10.1 6.25 10.15 6.25 M16.6 4.55 L16.6 4.5 17.3 4.25 17.1 4.0 17.1 3.95 16.5 3.65 16.5 3.6 17.05 3.85 17.4 4.3 16.6 4.55 M10.0 7.05 L11.1 5.7 11.15 5.7 10.0 7.05 10.0 7.1 10.05 7.2 9.15 6.35 10.0 7.05 M11.15 5.7 L12.75 5.5 12.8 5.45 11.2 5.6 11.1 5.7 10.3 6.55 10.35 6.4 11.2 5.55 13.2 5.35 13.0 5.4 12.85 5.45 12.75 5.55 11.2 5.75 11.15 5.7 M9.25 8.1 L9.2 8.1 9.15 8.05 7.0 6.1 7.05 6.1 7.2 6.2 9.25 8.1 M8.7 10.5 L9.8 9.15 8.75 10.5 8.7 10.5 M10.0 8.85 L10.05 8.8 11.35 10.0 11.3 10.0 10.0 8.85 M11.4 10.0 L11.45 9.95 12.6 9.7 12.8 9.75 10.8 7.9 12.65 5.65 11.15 7.6 11.1 7.6 10.85 7.9 12.85 9.7 12.8 9.75 11.4 10.0 M15.3 5.85 L15.4 5.85 15.3 6.0 15.3 5.85 M16.25 5.25 L16.25 5.2 16.3 5.2 16.25 5.25 M12.95 7.1 L13.05 7.05 13.0 7.1 13.5 7.25 13.5 7.3 12.95 7.1 M13.55 7.2 L13.55 7.15 13.9 6.55 13.9 6.6 14.5 6.6 14.5 6.55 14.75 5.95 14.75 6.0 14.5 6.6 14.45 6.65 13.9 6.6 13.55 7.2 M12.0 7.5 L12.15 7.4 12.05 7.5 12.35 7.65 12.35 7.7 12.0 7.5 M11.3 7.65 L11.65 7.8 11.25 7.65 11.3 7.65 M0.2 5.85 L0.15 5.85 0.8 5.2 1.75 4.65 4.35 4.1 7.05 4.4 7.35 4.4 8.75 4.7 9.35 5.05 9.35 5.1 8.8 4.75 7.4 4.45 4.35 4.15 1.8 4.7 0.8 5.25 0.2 5.85 0.4 5.85 1.7 5.95 1.65 6.0 2.2 6.8 2.25 6.75 3.15 6.65 3.15 6.7 3.65 7.4 3.7 7.45 3.65 7.45 3.1 6.7 2.2 6.8 2.15 6.8 1.6 6.0 0.2 5.85 M9.35 5.1 L9.55 5.55 9.9 6.35 9.85 6.5 9.85 6.4 9.55 5.55 9.3 5.2 9.3 5.15 9.35 5.1 M9.9 6.65 L9.9 6.75 8.85 5.85 7.1 6.0 6.85 6.05 8.8 7.95 8.8 8.0 6.75 6.05 6.65 6.0 8.95 5.8 8.9 5.85 9.9 6.65 M8.75 8.0 L8.7 8.05 8.7 8.0 8.75 8.0 M8.5 8.2 L8.4 8.25 8.35 8.3 7.9 8.1 7.9 8.05 8.4 8.25 8.4 8.15 8.5 8.2 M7.65 8.3 L7.55 8.4 7.5 8.4 6.75 8.0 6.15 8.3 6.1 8.35 5.6 7.7 4.85 7.9 4.8 7.9 4.45 7.25 4.35 7.25 4.45 7.2 4.85 7.9 4.95 7.85 5.7 7.6 5.65 7.7 6.15 8.3 6.2 8.25 6.8 7.9 6.8 7.95 7.55 8.4 7.55 8.3 7.65 8.3 M8.75 6.0 L7.05 6.1 8.75 5.95 8.75 6.0" fill="#000000" fill-rule="evenodd" stroke="none"/>
    <path d="M13.35 1.85 L13.6 2.0 13.8 2.25 13.9 2.4 13.95 2.55 13.85 2.9 13.5 3.25 13.1 3.5 13.05 3.5 12.85 3.6 12.7 3.65 12.9 3.55 12.95 3.5 13.0 3.5 13.75 2.95 13.85 2.6 13.75 2.3 13.5 2.05 13.0 1.8 11.85 1.5 11.05 1.45 11.05 1.4 11.1 1.4 11.85 1.45 11.9 1.45 12.4 1.55 12.5 1.6 12.65 1.6 13.35 1.85 M11.85 3.95 L11.15 4.1 10.85 4.1 12.25 3.8 12.5 3.75 12.55 3.75 12.25 3.8 11.85 3.95 M10.55 4.15 L10.2 4.2 10.15 4.2 9.7 4.25 9.35 4.2 10.15 4.2 10.85 4.1 10.55 4.15 M5.8 3.3 L5.75 3.15 5.75 3.1 5.7 3.1 5.7 3.05 5.75 2.9 5.8 2.8 5.8 2.7 6.15 2.35 6.2 2.35 6.65 2.1 7.5 1.75 7.5 1.8 8.3 1.6 8.35 1.6 9.05 1.45 9.85 1.45 10.2 1.4 8.4 1.6 6.9 2.05 6.3 2.35 6.25 2.35 5.9 2.7 5.85 2.7 5.75 3.05 5.8 3.05 5.95 3.4 6.0 3.4 6.35 3.7 6.45 3.7 6.8 3.85 7.7 4.1 7.75 4.1 7.6 4.15 7.15 4.0 6.65 3.9 6.4 3.75 6.35 3.7 6.3 3.7 5.8 3.3 M13.1 2.4 L13.05 2.3 12.95 2.25 13.0 2.25 12.85 2.2 12.85 2.15 12.75 2.15 12.65 2.1 12.7 2.1 12.6 2.05 12.5 2.05 12.2 1.95 12.65 2.0 12.95 2.15 13.3 2.45 13.2 2.45 13.25 2.65 13.2 2.65 13.15 2.85 13.2 2.85 13.0 3.05 13.05 3.1 12.9 3.15 12.2 3.45 12.25 3.45 11.6 3.65 9.6 3.9 8.0 3.8 6.95 3.5 6.95 3.45 6.7 3.25 6.55 3.05 6.65 2.8 6.6 2.8 6.9 2.55 7.0 2.5 6.75 2.75 6.65 3.0 6.75 3.2 6.75 3.25 7.05 3.45 7.45 3.6 8.0 3.7 8.55 3.8 9.4 3.85 10.9 3.7 11.0 3.7 12.05 3.45 12.3 3.35 12.55 3.25 12.9 3.05 12.85 3.05 13.1 2.85 13.1 2.8 13.15 2.65 13.1 2.4 M12.2 1.95 L12.1 1.9 11.85 1.9 11.6 1.85 11.5 1.85 10.3 1.8 10.75 1.75 12.35 1.9 12.2 1.95 M10.05 1.8 L8.75 1.95 8.65 1.95 8.2 2.05 7.65 2.2 7.9 2.1 8.8 1.9 8.85 1.9 9.75 1.8 10.05 1.8 M10.4 5.55 L10.55 5.15 10.7 4.9 11.2 4.5 11.25 4.5 12.4 4.0 12.45 4.05 12.7 3.95 12.65 4.0 14.8 3.4 14.8 3.45 15.75 3.45 16.1 3.5 16.15 3.55 16.5 3.6 16.5 3.65 17.1 3.95 17.1 4.0 17.3 4.25 16.6 4.5 16.6 4.55 16.35 5.05 15.6 5.1 16.5 3.9 16.5 3.8 15.8 3.7 15.8 3.6 14.9 3.6 14.85 3.5 14.15 3.7 12.45 4.1 11.3 4.55 10.8 4.95 10.75 4.95 10.2 6.3 10.25 6.3 10.25 6.65 10.2 6.7 10.15 6.65 10.15 6.55 10.15 6.25 10.4 5.55 M10.0 7.05 L11.15 5.7 11.2 5.75 12.75 5.55 12.85 5.45 13.0 5.4 11.25 7.65 11.15 7.6 12.65 5.65 10.8 7.9 12.8 9.75 12.6 9.7 11.45 9.95 11.4 10.0 11.35 10.0 10.05 8.8 10.0 8.85 9.8 9.15 8.7 10.5 7.2 10.75 7.55 10.6 8.7 10.4 10.1 8.6 10.1 8.7 11.45 9.95 11.5 9.8 12.4 9.65 12.55 9.7 10.65 7.95 12.35 5.9 12.5 5.8 12.65 5.65 11.25 5.8 11.2 5.75 10.0 7.1 10.0 7.05 M10.05 7.2 L10.1 7.4 8.8 6.15 8.8 6.0 9.15 6.35 10.05 7.2 M8.75 6.0 L7.2 6.2 7.4 6.25 9.45 8.15 9.25 8.1 7.2 6.2 7.05 6.1 8.75 6.0 M9.2 8.1 L7.0 10.8 6.85 10.8 6.9 10.75 7.15 10.5 7.2 10.4 9.15 8.05 9.2 8.1 M10.35 6.4 L10.6 6.0 11.15 5.45 11.3 5.45 13.5 5.2 13.2 5.35 11.2 5.55 10.35 6.4 M14.15 3.7 L14.1 3.75 12.5 4.2 14.15 3.7 M15.4 5.85 L15.3 5.85 15.65 5.15 16.35 5.05 16.3 5.2 16.25 5.2 16.25 5.25 15.65 5.35 15.4 5.85 M12.45 7.6 L12.45 7.45 13.05 6.9 13.05 6.95 13.55 7.1 13.5 7.05 13.9 6.4 13.9 6.45 14.4 6.45 14.7 5.8 15.3 5.85 15.3 6.0 14.75 6.0 14.75 5.95 14.5 6.55 14.5 6.6 13.9 6.6 13.9 6.55 13.55 7.15 13.55 7.2 13.5 7.25 13.0 7.1 13.05 7.05 12.95 7.1 12.45 7.6 12.45 7.65 12.35 7.65 12.05 7.5 12.15 7.4 12.0 7.5 11.7 7.7 11.65 7.8 11.3 7.65 11.4 7.6 11.55 7.6 11.7 7.65 11.7 7.6 12.15 7.2 12.15 7.4 12.45 7.6 M0.2 5.85 L0.8 5.25 1.8 4.7 4.35 4.15 7.4 4.45 8.8 4.75 9.35 5.1 9.3 5.15 9.3 5.2 8.8 4.85 7.45 4.55 4.4 4.25 3.0 4.5 3.0 4.45 1.8 4.75 0.85 5.3 0.4 5.85 0.6 5.8 1.75 5.9 2.25 6.7 2.3 6.65 3.2 6.55 3.2 6.6 3.75 7.35 3.8 7.25 4.6 7.05 4.55 7.15 4.95 7.85 5.0 7.75 5.75 7.55 5.7 7.6 6.2 8.25 6.25 8.15 6.85 7.8 6.85 7.85 7.55 8.3 7.6 8.2 7.95 7.9 7.95 7.95 8.4 8.15 8.4 8.1 8.5 8.0 8.7 8.0 6.55 6.0 8.8 5.75 7.4 5.85 9.0 5.7 9.0 5.75 9.85 6.5 9.7 6.3 9.5 5.65 9.25 5.25 9.3 5.2 9.55 5.55 9.85 6.4 9.85 6.5 9.9 6.65 8.9 5.85 8.95 5.8 6.65 6.0 6.75 6.05 8.8 8.0 8.75 8.0 8.7 8.0 8.7 8.05 8.5 8.2 8.4 8.15 8.4 8.25 7.9 8.05 7.9 8.1 7.65 8.3 7.55 8.3 7.55 8.4 6.8 7.95 6.8 7.9 6.2 8.25 6.15 8.3 5.65 7.7 5.7 7.6 4.95 7.85 4.85 7.9 4.45 7.2 4.35 7.25 3.65 7.4 3.15 6.7 3.15 6.65 2.25 6.75 2.2 6.8 1.65 6.0 1.7 5.95 0.4 5.85 0.2 5.85 M7.3 2.35 L7.5 2.25 7.65 2.2 Q7.5 2.3 7.3 2.35 M9.35 4.2 L8.75 4.25 8.5 4.2 7.95 4.15 7.75 4.1 8.5 4.2 9.35 4.2" fill="#7f6600" fill-rule="evenodd" stroke="none"/>
    <path d="M7.0 2.5 L6.9 2.55 6.6 2.8 6.65 2.8 6.55 3.05 6.7 3.25 6.95 3.45 6.95 3.5 8.0 3.8 9.6 3.9 11.6 3.65 12.25 3.45 12.2 3.45 12.9 3.15 13.05 3.1 13.0 3.05 13.2 2.85 13.15 2.85 13.2 2.65 13.25 2.65 13.2 2.45 13.3 2.45 12.95 2.15 12.65 2.0 12.2 1.95 12.35 1.9 10.75 1.75 10.3 1.8 10.05 1.8 9.75 1.8 8.85 1.9 8.8 1.9 7.9 2.1 7.65 2.2 7.5 2.25 7.3 2.35 7.0 2.5 M11.05 1.4 L11.05 1.45 11.85 1.5 13.0 1.8 13.5 2.05 13.75 2.3 13.85 2.6 13.75 2.95 13.0 3.5 12.95 3.5 12.9 3.55 12.7 3.65 12.45 3.7 12.5 3.75 12.25 3.8 10.85 4.1 10.15 4.2 9.35 4.2 8.5 4.2 7.75 4.1 7.7 4.1 6.8 3.85 6.45 3.7 6.35 3.7 6.0 3.4 5.95 3.4 5.8 3.05 5.75 3.05 5.85 2.7 5.9 2.7 6.25 2.35 6.3 2.35 6.9 2.05 8.4 1.6 10.2 1.4 11.05 1.4 M10.25 6.65 L10.25 6.3 10.2 6.3 10.75 4.95 10.8 4.95 11.3 4.55 12.45 4.1 14.15 3.7 14.85 3.5 14.9 3.6 15.8 3.6 15.8 3.7 16.5 3.8 16.5 3.9 15.6 5.1 16.35 5.05 15.65 5.15 15.3 5.85 14.7 5.8 14.4 6.45 13.9 6.45 13.9 6.4 13.5 7.05 13.55 7.1 13.05 6.95 13.05 6.9 12.45 7.45 12.45 7.6 12.15 7.4 12.15 7.2 11.7 7.6 11.7 7.65 11.55 7.6 11.4 7.6 11.3 7.65 11.25 7.65 13.0 5.4 13.2 5.35 13.5 5.2 11.3 5.45 11.15 5.45 10.6 6.0 10.35 6.4 10.3 6.55 10.25 6.65 M10.0 7.1 L11.2 5.75 11.25 5.8 12.65 5.65 12.5 5.8 12.35 5.9 10.65 7.95 12.55 9.7 12.4 9.65 11.5 9.8 11.45 9.95 10.1 8.7 10.1 8.6 8.7 10.4 7.55 10.6 7.2 10.75 7.0 10.8 9.2 8.1 9.25 8.1 9.45 8.15 7.4 6.25 7.2 6.2 8.75 6.0 8.8 6.0 8.8 6.15 10.1 7.4 10.05 7.2 10.0 7.1 M14.15 3.7 L12.5 4.2 14.1 3.75 14.15 3.7 M0.4 5.85 L0.85 5.3 1.8 4.75 3.0 4.45 3.0 4.5 4.4 4.25 7.45 4.55 8.8 4.85 9.3 5.2 9.25 5.25 9.5 5.65 9.7 6.3 9.85 6.5 9.0 5.75 9.0 5.7 7.4 5.85 8.8 5.75 6.55 6.0 8.7 8.0 8.5 8.0 8.4 8.1 8.4 8.15 7.95 7.95 7.95 7.9 7.6 8.2 7.55 8.3 6.85 7.85 6.85 7.8 6.25 8.15 6.2 8.25 5.7 7.6 5.75 7.55 5.0 7.75 4.95 7.85 4.55 7.15 4.6 7.05 3.8 7.25 3.75 7.35 3.2 6.6 3.2 6.55 2.3 6.65 2.25 6.7 1.75 5.9 0.6 5.8 0.4 5.85" fill="#ffcc00" fill-rule="evenodd" stroke="none"/>
  </g>
</svg>
