<?xml version="1.0" encoding="UTF-8" standalone="no"?>
<svg xmlns:ffdec="https://www.free-decompiler.com/flash" xmlns:xlink="http://www.w3.org/1999/xlink" ffdec:objectType="shape" height="9.2px" width="18.05px" xmlns="http://www.w3.org/2000/svg">
  <g transform="matrix(1.0, 0.0, 0.0, 1.0, -0.3, -1.35)">
    <path d="M12.8 1.65 L13.55 1.85 13.45 1.85 12.75 1.65 12.8 1.65 12.75 1.65 12.0 1.5 11.1 1.45 10.1 1.4 9.2 1.45 10.05 1.35 11.15 1.35 11.75 1.45 12.0 1.45 12.8 1.65 M13.45 1.85 L13.9 2.05 14.05 2.25 14.25 2.4 14.3 2.5 14.25 2.55 14.25 2.4 14.2 2.4 14.05 2.25 13.9 2.1 13.45 1.85 M14.0 3.2 L13.9 3.3 13.55 3.55 13.4 3.6 13.45 3.5 13.7 3.35 14.0 3.2 M12.8 3.8 L12.4 3.9 12.65 3.8 12.8 3.8 M10.8 4.15 L10.35 4.25 9.9 4.25 10.35 4.2 10.8 4.15 M8.3 4.15 L8.2 4.15 7.8 4.1 8.1 4.1 8.3 4.15 M7.75 4.1 L7.4 4.05 7.55 4.0 7.75 4.1 M6.75 3.85 L6.1 3.6 5.65 3.2 6.1 3.55 6.75 3.85 6.75 3.8 6.85 3.85 6.75 3.85 M5.65 2.65 L5.65 2.6 6.1 2.2 7.1 1.75 7.3 1.75 7.25 1.7 8.2 1.55 7.3 1.75 6.6 2.0 6.1 2.25 5.65 2.65 M11.9 1.9 L12.9 2.15 12.85 2.15 13.25 2.3 13.2 2.3 13.25 2.35 11.9 1.9 10.55 1.8 9.4 1.85 8.4 2.0 8.8 1.9 8.9 1.9 9.4 1.85 9.75 1.8 10.55 1.8 11.25 1.8 11.9 1.9 M13.4 2.45 L13.45 2.5 13.4 2.5 13.4 2.45 M8.2 2.0 L7.35 2.25 6.8 2.5 6.85 2.45 6.8 2.45 7.25 2.25 7.35 2.25 7.5 2.15 7.85 2.1 8.2 2.0 M6.8 3.3 L7.35 3.5 8.7 3.7 10.45 3.75 12.7 3.3 13.2 3.1 12.75 3.35 12.65 3.35 12.4 3.5 11.6 3.65 9.75 3.85 7.95 3.7 7.35 3.55 7.35 3.5 6.9 3.35 6.8 3.3 M13.45 2.7 L13.45 2.65 13.5 2.7 13.45 2.7 M10.2 6.7 L10.15 6.7 10.15 6.3 10.15 6.25 10.45 5.4 10.75 4.9 11.25 4.55 11.95 4.35 11.3 4.55 10.75 4.95 10.15 6.3 10.2 6.3 10.2 6.7 M12.6 4.1 L12.95 4.05 15.2 3.55 15.3 3.55 16.1 3.65 15.3 3.6 15.3 3.55 12.9 4.1 12.95 4.05 12.65 4.1 12.6 4.1 M16.65 3.7 L17.2 3.75 17.9 4.1 17.95 4.15 18.35 4.6 17.35 4.85 17.4 4.8 18.25 4.55 17.95 4.2 17.95 4.15 17.3 3.85 17.25 3.8 16.65 3.7 M17.05 5.45 L17.0 5.55 16.95 5.6 16.25 5.65 15.85 6.3 15.25 6.25 14.9 6.85 14.9 6.9 14.25 6.85 14.25 6.8 14.9 6.85 15.2 6.2 15.85 6.25 16.3 5.55 16.3 5.6 17.0 5.55 16.95 5.45 17.05 5.45 M13.9 7.4 L13.85 7.5 13.8 7.5 13.25 7.3 13.85 7.5 13.85 7.35 13.9 7.4 M12.65 7.75 L12.55 7.85 12.2 7.65 11.8 7.9 11.75 7.9 11.6 7.85 11.65 7.85 11.75 7.9 12.25 7.55 12.25 7.6 12.55 7.85 12.6 7.75 12.65 7.75 M11.35 7.7 L11.3 7.75 11.3 7.7 11.35 7.7 M11.75 7.15 L13.1 5.55 11.25 5.65 11.35 5.6 13.1 5.55 13.4 5.5 13.25 5.55 13.15 5.55 11.75 7.15 M10.0 7.05 L10.0 7.15 8.7 5.95 8.7 5.9 10.0 7.05 M12.95 5.7 L11.35 5.75 13.0 5.65 12.95 5.7 M12.0 6.75 L10.9 7.9 13.1 9.95 13.0 9.95 10.85 7.95 10.85 7.9 12.0 6.75 M11.55 10.1 L11.45 10.1 11.4 10.1 10.0 8.85 8.65 10.4 8.55 10.4 10.0 8.8 11.45 10.1 11.5 10.05 11.55 10.1 M6.8 10.5 L7.35 9.85 7.35 9.9 6.8 10.5 M9.1 8.0 L6.9 6.0 7.0 5.95 7.05 6.0 7.0 6.0 9.25 8.1 9.2 8.1 9.1 8.0 M2.95 4.1 L4.25 3.9 7.2 4.3 8.7 4.65 9.25 5.0 9.25 5.05 9.6 5.65 9.85 6.3 9.85 6.45 9.5 5.55 9.3 5.2 9.25 5.05 8.7 4.7 7.3 4.35 4.25 3.95 2.95 4.1 M9.85 6.55 L9.85 6.65 9.8 6.5 9.85 6.55 M8.8 5.8 L6.7 5.9 8.75 7.9 8.7 7.9 6.65 5.9 6.7 5.9 8.85 5.75 8.8 5.8 M8.6 7.95 L8.25 8.15 7.75 7.95 7.8 7.9 8.25 8.1 8.6 7.9 8.6 7.95 M7.5 8.15 L7.4 8.2 7.4 8.25 6.6 7.75 6.65 7.75 7.4 8.2 7.45 8.1 7.5 8.15 M6.1 8.0 L6.0 8.05 5.95 8.05 5.45 7.4 5.5 7.4 6.0 8.05 6.05 7.95 6.1 8.0 M4.85 7.55 L4.75 7.55 4.7 7.6 4.3 6.9 3.6 7.05 3.55 7.05 3.55 7.0 4.35 6.85 4.75 7.55 4.8 7.5 4.85 7.55 M1.65 5.6 L0.35 5.4 0.3 5.4 0.85 4.8 1.8 4.35 1.8 4.4 0.9 4.85 0.35 5.4 0.45 5.4 1.65 5.55 1.65 5.6" fill="#000000" fill-rule="evenodd" stroke="none"/>
    <path d="M12.75 1.65 L13.45 1.85 13.9 2.1 14.05 2.25 14.2 2.4 14.25 2.4 14.25 2.55 14.35 2.7 14.2 3.0 14.0 3.2 13.7 3.35 14.05 3.05 14.2 2.75 14.2 2.7 14.15 2.4 13.85 2.1 13.35 1.85 11.1 1.45 12.0 1.5 12.75 1.65 M13.4 3.6 L12.8 3.8 12.65 3.8 13.45 3.5 13.4 3.6 M12.4 3.9 L11.9 4.0 12.65 3.8 12.4 3.9 M9.9 4.25 L9.15 4.25 8.3 4.15 8.35 4.1 10.35 4.2 9.9 4.25 M7.8 4.1 L7.75 4.1 7.55 4.0 7.4 4.05 6.75 3.85 6.85 3.85 7.55 4.0 8.1 4.1 7.8 4.1 M5.65 3.2 L5.55 2.95 5.65 2.65 6.1 2.25 5.75 2.6 5.65 3.0 5.8 3.3 5.85 3.3 6.2 3.55 6.75 3.8 6.75 3.85 6.1 3.55 5.65 3.2 M8.2 1.55 L9.15 1.45 9.2 1.45 7.4 1.75 7.45 1.8 6.75 2.0 6.15 2.3 6.1 2.25 6.6 2.0 7.3 1.75 8.2 1.55 M13.25 2.35 L13.2 2.3 13.25 2.3 12.85 2.15 12.9 2.15 11.9 1.9 12.8 2.05 13.35 2.3 13.3 2.3 13.55 2.5 13.45 2.5 13.4 2.45 13.25 2.35 M6.8 2.5 L6.6 2.65 6.5 2.9 6.6 3.15 6.8 3.3 6.9 3.35 7.35 3.5 7.35 3.55 7.95 3.7 9.75 3.85 8.85 3.85 8.05 3.75 6.9 3.45 6.55 3.15 6.45 2.95 6.4 2.95 6.5 2.7 6.45 2.7 6.85 2.35 7.4 2.2 7.45 2.15 7.85 2.1 7.5 2.15 7.35 2.25 7.25 2.25 6.8 2.45 6.85 2.45 6.8 2.5 M13.2 3.1 L13.35 2.95 13.45 2.7 13.5 2.7 13.45 2.65 13.4 2.5 13.45 2.5 13.5 2.55 13.55 2.7 13.45 2.95 13.2 3.15 13.25 3.15 12.85 3.35 12.9 3.35 12.35 3.55 10.95 3.8 9.75 3.85 11.6 3.65 12.4 3.5 12.65 3.35 12.75 3.35 13.2 3.1 M9.75 1.8 L9.4 1.85 8.9 1.9 9.3 1.85 9.3 1.8 9.75 1.8 M11.65 3.65 L11.6 3.65 11.65 3.65 M11.25 5.65 L11.2 5.65 10.2 6.7 10.2 6.3 10.15 6.3 10.75 4.95 11.3 4.55 11.95 4.35 12.6 4.1 12.65 4.1 12.95 4.05 12.9 4.1 15.3 3.55 15.3 3.6 16.1 3.65 16.35 3.65 16.4 3.65 16.65 3.7 17.25 3.8 17.3 3.85 17.95 4.15 17.95 4.2 18.25 4.55 17.4 4.8 17.35 4.85 17.05 5.45 16.95 5.45 17.35 4.7 18.05 4.5 17.9 4.35 17.95 4.3 17.3 3.95 16.4 3.75 15.35 3.65 12.7 4.2 12.65 4.2 11.35 4.6 10.85 5.0 10.25 6.35 10.25 6.5 10.5 6.2 11.2 5.55 13.6 5.45 13.4 5.5 13.1 5.55 11.35 5.6 11.25 5.65 M14.25 6.85 L13.9 7.4 13.85 7.35 13.85 7.5 13.25 7.3 12.65 7.75 12.6 7.75 12.55 7.85 12.25 7.6 12.25 7.55 11.75 7.9 11.65 7.85 11.35 7.7 11.55 7.7 11.8 7.8 11.8 7.75 12.25 7.45 12.25 7.5 12.6 7.75 12.6 7.65 13.25 7.15 13.25 7.2 13.8 7.35 14.2 6.7 14.25 6.7 14.85 6.75 15.15 6.1 15.85 6.15 15.85 6.1 16.25 5.45 16.25 5.5 16.95 5.45 17.0 5.55 16.3 5.6 16.3 5.55 15.85 6.25 15.2 6.2 14.9 6.85 14.25 6.8 14.25 6.85 M11.3 7.7 L11.25 7.65 11.75 7.15 13.15 5.55 13.25 5.55 11.35 7.7 11.3 7.7 M10.0 7.05 L11.2 5.8 11.35 5.75 12.95 5.7 12.85 5.8 11.3 5.85 10.0 7.15 10.0 7.05 M9.2 8.1 L7.0 10.35 8.55 10.25 8.55 10.3 10.0 8.7 11.5 10.05 11.55 9.95 12.6 9.85 12.85 9.95 10.75 8.0 10.65 8.0 12.6 5.95 12.85 5.8 12.0 6.75 10.85 7.9 10.85 7.95 13.0 9.95 12.85 9.95 11.55 10.1 11.5 10.05 11.45 10.1 10.0 8.8 8.55 10.4 6.85 10.55 6.8 10.55 6.8 10.5 7.35 9.9 9.1 8.0 9.2 8.1 M7.05 6.0 L8.7 5.9 8.7 5.95 10.0 7.15 10.05 7.3 8.7 6.0 7.05 6.0 M16.1 3.65 L16.65 3.7 16.1 3.65 M1.8 4.35 L1.9 4.35 2.9 4.1 2.95 4.1 4.25 3.95 7.3 4.35 8.7 4.7 9.25 5.05 9.3 5.2 9.5 5.55 9.85 6.45 9.85 6.55 9.8 6.5 9.85 6.65 9.85 6.7 8.8 5.8 8.85 5.75 6.7 5.9 6.65 5.9 8.7 7.9 8.6 7.95 8.6 7.9 6.55 5.9 6.5 5.9 6.3 5.8 8.85 5.7 9.75 6.45 9.75 6.4 9.2 5.15 8.65 4.8 8.7 4.75 4.25 4.05 1.8 4.45 0.9 4.9 0.9 4.95 0.45 5.4 0.65 5.35 1.7 5.5 2.2 6.25 3.1 6.2 3.65 6.95 4.4 6.8 4.8 7.45 5.55 7.3 6.05 7.95 6.05 7.9 6.65 7.6 6.65 7.65 7.4 8.1 7.8 7.8 8.25 8.05 8.3 8.0 8.45 7.9 8.6 7.9 8.25 8.1 7.8 7.9 7.75 7.95 7.5 8.15 7.45 8.1 7.4 8.2 6.65 7.75 6.6 7.75 6.1 8.0 6.05 7.95 6.0 8.05 5.5 7.4 5.45 7.4 4.85 7.55 4.8 7.5 4.75 7.55 4.35 6.85 3.55 7.0 3.05 6.3 2.15 6.35 2.1 6.35 1.65 5.6 1.65 5.55 0.45 5.4 0.35 5.4 0.9 4.85 1.8 4.4 1.8 4.35 M7.0 6.0 L7.25 6.15 9.2 7.95 9.2 7.9 9.4 8.1 9.25 8.1 7.0 6.0 M6.85 10.55 L7.0 10.5 7.1 10.5 7.3 10.4 8.55 10.3 7.0 10.35 6.85 10.55" fill="#7f6600" fill-rule="evenodd" stroke="none"/>
    <path d="M11.9 4.0 L11.8 4.05 11.6 4.05 10.8 4.15 10.35 4.2 8.35 4.1 8.3 4.15 8.1 4.1 7.55 4.0 6.85 3.85 6.75 3.8 6.2 3.55 5.85 3.3 5.8 3.3 5.65 3.0 5.75 2.6 6.1 2.25 6.15 2.3 6.75 2.0 7.45 1.8 7.4 1.75 9.2 1.45 10.1 1.4 11.1 1.45 13.35 1.85 13.85 2.1 14.15 2.4 14.2 2.7 14.2 2.75 14.05 3.05 13.7 3.35 13.45 3.5 12.65 3.8 11.9 4.0 M13.45 2.5 L13.55 2.5 13.3 2.3 13.35 2.3 12.8 2.05 11.9 1.9 11.25 1.8 10.55 1.8 9.75 1.8 9.3 1.8 9.3 1.85 8.9 1.9 8.8 1.9 8.4 2.0 8.2 2.0 7.85 2.1 7.45 2.15 7.4 2.2 6.85 2.35 6.45 2.7 6.5 2.7 6.4 2.95 6.45 2.95 6.55 3.15 6.9 3.45 8.05 3.75 8.85 3.85 9.75 3.85 10.95 3.8 12.35 3.55 12.9 3.35 12.85 3.35 13.25 3.15 13.2 3.15 13.45 2.95 13.55 2.7 13.5 2.55 13.45 2.5 M13.4 5.5 L13.6 5.45 11.2 5.55 10.5 6.2 10.25 6.5 10.25 6.35 10.85 5.0 11.35 4.6 12.65 4.2 12.7 4.2 15.35 3.65 16.4 3.75 17.3 3.95 17.95 4.3 17.9 4.35 18.05 4.5 17.35 4.7 16.95 5.45 16.25 5.5 16.25 5.45 15.85 6.1 15.85 6.15 15.15 6.1 14.85 6.75 14.25 6.7 14.2 6.7 13.8 7.35 13.25 7.2 13.25 7.15 12.6 7.65 12.6 7.75 12.25 7.5 12.25 7.45 11.8 7.75 11.8 7.8 11.55 7.7 11.35 7.7 13.25 5.55 13.4 5.5 M10.0 7.15 L11.3 5.85 12.85 5.8 12.6 5.95 10.65 8.0 10.75 8.0 12.85 9.95 12.6 9.85 11.55 9.95 11.5 10.05 10.0 8.7 8.55 10.3 8.55 10.25 7.0 10.35 9.2 8.1 9.25 8.1 9.4 8.1 9.2 7.9 9.2 7.95 7.25 6.15 7.0 6.0 7.05 6.0 8.7 6.0 10.05 7.3 10.0 7.15 M0.45 5.4 L0.9 4.95 0.9 4.9 1.8 4.45 4.25 4.05 8.7 4.75 8.65 4.8 9.2 5.15 9.75 6.4 9.75 6.45 8.85 5.7 6.3 5.8 6.5 5.9 6.55 5.9 8.6 7.9 8.45 7.9 8.3 8.0 8.25 8.05 7.8 7.8 7.4 8.1 6.65 7.65 6.65 7.6 6.05 7.9 6.05 7.95 5.55 7.3 4.8 7.45 4.4 6.8 3.65 6.95 3.1 6.2 2.2 6.25 1.7 5.5 0.65 5.35 0.45 5.4 M6.85 10.55 L7.0 10.35 8.55 10.3 7.3 10.4 7.1 10.5 7.0 10.5 6.85 10.55" fill="#ffcc00" fill-rule="evenodd" stroke="none"/>
  </g>
</svg>
