<?xml version="1.0" encoding="UTF-8" standalone="no"?>
<svg xmlns:ffdec="https://www.free-decompiler.com/flash" xmlns:xlink="http://www.w3.org/1999/xlink" ffdec:objectType="shape" height="8.9px" width="18.3px" xmlns="http://www.w3.org/2000/svg">
  <g transform="matrix(1.0, 0.0, 0.0, 1.0, -0.85, -1.35)">
    <path d="M11.15 4.15 L11.75 4.05 12.5 3.9 13.4 3.6 13.75 3.4 14.1 3.15 14.15 3.15 14.25 2.8 14.2 2.5 14.15 2.5 13.75 2.15 13.35 1.9 13.3 1.95 12.55 1.7 10.9 1.45 11.7 1.5 12.3 1.65 11.7 1.5 11.85 1.5 12.3 1.65 13.25 1.85 13.35 1.9 13.85 2.1 14.05 2.25 14.25 2.45 14.35 2.85 14.25 3.1 14.15 3.15 14.1 3.2 14.2 3.15 13.85 3.45 13.75 3.4 13.5 3.6 13.3 3.7 13.25 3.7 12.5 3.9 12.6 3.9 12.1 4.0 11.75 4.05 11.4 4.1 11.15 4.15 M9.95 1.4 L8.05 1.55 8.0 1.55 6.55 1.95 6.5 1.9 6.0 2.2 5.7 2.5 5.65 2.5 5.55 2.8 5.6 2.8 5.7 3.15 5.75 3.15 6.1 3.4 6.5 3.6 7.35 3.9 8.15 4.05 7.55 3.95 7.35 3.9 7.2 3.9 6.6 3.7 6.5 3.7 6.25 3.55 6.1 3.4 5.95 3.4 5.75 3.25 5.7 3.15 5.65 3.15 5.55 3.0 5.45 2.75 5.55 2.45 5.85 2.2 6.0 2.1 6.5 1.9 6.6 1.9 7.7 1.55 8.9 1.4 9.95 1.4 M9.0 4.15 L9.95 4.15 10.85 4.15 10.4 4.2 9.95 4.15 9.4 4.2 9.0 4.15 M12.3 2.0 L12.55 2.05 12.8 2.15 12.9 2.15 12.85 2.2 13.3 2.35 13.25 2.35 13.55 2.6 13.45 2.6 13.55 2.8 13.5 2.8 13.4 3.05 13.45 3.05 13.1 3.3 12.75 3.4 12.8 3.45 11.95 3.65 11.7 3.65 11.55 3.7 10.55 3.8 11.45 3.65 12.15 3.55 12.7 3.4 12.65 3.4 13.1 3.2 13.15 3.15 13.35 3.0 13.4 2.95 13.45 2.8 13.4 2.6 13.2 2.4 13.15 2.4 13.2 2.4 13.2 2.35 12.85 2.2 12.6 2.1 12.15 2.05 12.3 2.0 M10.25 3.8 L9.5 3.85 7.65 3.6 7.2 3.5 6.65 3.25 6.4 3.05 6.3 2.8 6.35 2.6 6.3 2.6 6.6 2.35 6.55 2.35 6.95 2.15 7.55 2.0 7.6 2.0 7.6 2.05 7.4 2.1 7.2 2.15 7.15 2.2 7.05 2.2 6.65 2.35 6.7 2.4 6.65 2.4 6.45 2.55 6.4 2.6 6.45 2.6 6.4 2.8 6.5 3.05 6.65 3.15 6.8 3.25 7.25 3.45 8.35 3.65 8.4 3.65 8.8 3.7 10.25 3.8 M11.4 7.8 L11.55 7.8 11.8 7.95 11.8 7.9 12.3 7.6 12.3 7.65 12.65 7.9 13.4 7.4 13.95 7.65 14.45 7.0 15.15 7.1 15.5 6.4 15.5 6.45 16.25 6.55 16.2 6.5 16.7 5.85 16.7 5.9 17.5 5.9 17.5 5.85 17.95 5.05 18.85 4.9 18.9 4.9 18.65 4.6 17.9 4.25 17.9 4.2 16.85 4.0 16.85 3.95 15.65 3.85 12.75 4.3 11.35 4.7 11.4 4.7 10.85 5.05 10.55 5.55 10.6 5.55 10.25 6.35 10.25 6.5 10.3 6.4 11.2 5.6 13.75 5.6 13.45 5.7 11.2 5.7 11.25 5.75 10.2 6.65 10.2 6.3 10.5 5.5 10.55 5.4 10.8 5.0 11.4 4.6 13.05 4.2 15.65 3.75 16.0 3.8 16.7 3.85 16.85 3.85 16.85 3.9 17.9 4.1 18.7 4.5 19.1 4.95 18.0 5.15 17.55 5.95 16.7 5.95 16.25 6.6 15.55 6.5 15.55 6.55 15.2 7.2 14.5 7.1 14.5 7.15 14.05 7.75 13.4 7.5 13.35 7.5 12.65 8.0 12.25 7.75 11.8 8.0 11.4 7.8 11.3 7.8 13.3 5.75 13.45 5.75 11.4 7.8 M11.35 5.85 L12.95 5.85 13.1 5.85 13.05 5.95 13.0 5.95 11.4 5.95 10.05 7.15 10.0 7.25 8.7 5.95 7.05 5.95 7.25 6.0 9.35 8.05 9.25 8.0 7.05 5.95 7.0 5.95 6.9 5.85 7.05 5.85 8.7 5.85 10.0 7.05 10.0 7.1 11.35 5.85 M13.2 10.25 L13.05 10.25 11.45 10.25 10.0 8.8 8.5 10.25 6.95 10.25 6.8 10.25 9.1 8.0 9.2 8.05 6.95 10.25 7.25 10.15 8.5 10.15 10.0 8.65 11.5 10.15 12.8 10.15 13.05 10.25 10.8 8.05 10.9 8.0 13.2 10.25 M10.8 8.0 L10.7 8.05 12.75 6.0 13.0 5.95 10.8 8.0 M9.75 6.5 L9.75 6.35 9.3 5.25 9.15 5.05 8.6 4.7 8.65 4.7 7.25 4.3 4.35 3.85 3.15 3.95 3.15 4.0 2.1 4.2 2.1 4.25 1.35 4.6 1.1 4.9 1.15 4.9 2.05 5.05 2.5 5.85 2.5 5.9 3.3 5.9 3.3 5.85 3.8 6.5 3.75 6.55 4.5 6.45 4.5 6.4 4.85 7.1 5.55 7.0 6.05 7.65 6.6 7.4 7.35 7.9 7.7 7.65 7.7 7.6 8.2 7.9 8.2 7.95 8.45 7.8 8.6 7.8 8.2 8.0 7.75 7.75 7.35 8.0 7.3 7.95 7.25 7.95 6.65 7.55 6.6 7.5 5.95 7.75 5.5 7.15 5.5 7.1 4.8 7.2 4.45 6.55 4.4 6.5 3.75 6.6 3.3 5.95 2.45 5.95 2.0 5.15 0.9 4.95 1.3 4.5 2.1 4.1 3.15 3.9 3.15 3.85 3.3 3.85 4.0 3.8 4.35 3.75 5.7 4.0 6.5 4.15 6.55 4.15 7.0 4.2 7.05 4.15 8.65 4.6 9.25 5.0 9.35 5.25 9.45 5.4 9.5 5.5 9.8 6.35 9.8 6.65 9.75 6.5 9.75 6.6 8.75 5.75 8.8 5.7 6.55 5.7 6.25 5.6 8.8 5.6 9.65 6.35 9.75 6.5 M8.6 7.8 L6.55 5.75 6.7 5.75 8.7 7.8 8.65 7.85 8.6 7.8 M7.7 2.0 L8.05 1.9 9.05 1.8 8.75 1.85 7.7 2.0" fill="#7f6600" fill-rule="evenodd" stroke="none"/>
    <path d="M10.9 1.45 L9.95 1.4 8.9 1.4 7.7 1.55 7.9 1.5 8.9 1.35 10.95 1.35 11.7 1.5 10.9 1.45 M8.15 4.05 L8.55 4.1 8.95 4.15 8.2 4.1 7.55 3.95 7.2 3.9 7.35 3.9 7.55 3.95 8.15 4.05 M12.1 4.0 L12.6 3.9 12.5 3.9 13.25 3.7 12.5 3.95 12.1 4.0 M13.5 3.6 L13.75 3.4 13.85 3.45 14.2 3.15 14.1 3.2 14.15 3.15 14.25 3.1 14.2 3.15 13.95 3.4 13.85 3.45 13.5 3.6 M14.05 2.25 L13.85 2.1 13.35 1.9 13.25 1.85 12.3 1.65 13.3 1.8 13.5 1.9 13.35 1.9 13.65 2.0 13.85 2.1 13.95 2.15 14.05 2.25 M10.55 3.8 L10.35 3.8 10.25 3.8 10.55 3.8 10.25 3.8 8.8 3.7 9.15 3.7 11.45 3.65 12.65 3.35 13.15 3.15 13.1 3.2 12.65 3.4 12.7 3.4 12.15 3.55 11.45 3.65 10.55 3.8 M13.4 2.95 L13.35 3.0 13.15 3.15 13.4 2.95 M8.4 3.65 L8.35 3.65 7.25 3.45 6.8 3.25 6.65 3.15 8.4 3.65 M6.45 2.6 L6.4 2.6 6.45 2.55 6.45 2.6 M6.7 2.4 L6.65 2.35 7.05 2.2 7.15 2.2 6.7 2.4 M7.4 2.1 L7.6 2.05 7.6 2.0 7.7 2.0 8.75 1.85 9.05 1.8 9.85 1.8 10.75 1.8 12.3 2.0 12.15 2.05 11.6 1.95 9.85 1.8 8.75 1.85 7.4 2.1 M12.15 2.05 L12.6 2.1 12.85 2.2 13.2 2.35 13.2 2.4 12.15 2.05 M5.85 2.2 L5.95 2.1 6.0 2.1 6.35 1.9 7.3 1.6 7.7 1.55 6.6 1.9 6.5 1.9 6.0 2.1 5.85 2.2 M10.4 4.2 L9.4 4.2 9.95 4.15 10.4 4.2 M11.4 7.8 L11.8 8.0 11.75 8.0 11.3 7.8 11.4 7.8 M12.25 7.75 L12.65 8.0 12.6 8.0 12.25 7.75 M13.35 7.5 L13.4 7.5 14.05 7.75 14.0 7.8 13.35 7.5 M14.5 7.15 L14.5 7.1 15.2 7.2 15.55 6.55 15.55 6.5 16.25 6.6 16.7 5.95 17.55 5.95 18.0 5.15 19.1 4.95 18.7 4.5 17.9 4.1 16.85 3.9 16.85 3.85 17.9 4.05 18.65 4.45 18.7 4.5 19.15 4.95 18.0 5.2 17.55 6.0 16.75 6.0 16.25 6.65 15.55 6.55 15.55 6.65 15.2 7.2 14.5 7.15 M16.7 3.85 L16.0 3.8 16.2 3.75 16.7 3.85 M15.65 3.75 L13.05 4.2 11.4 4.6 10.8 5.0 10.55 5.4 10.8 4.9 11.25 4.65 11.4 4.6 12.7 4.2 13.45 4.1 13.05 4.2 13.45 4.1 15.5 3.75 15.65 3.75 M10.5 5.5 L10.2 6.3 10.2 6.65 10.15 6.7 10.15 6.3 10.5 5.45 10.5 5.5 M11.25 5.75 L11.2 5.7 13.45 5.7 13.45 5.75 13.3 5.75 11.25 5.75 M8.7 5.85 L8.7 5.8 10.0 7.05 11.35 5.8 11.35 5.85 10.0 7.1 10.0 7.05 8.7 5.85 M12.95 5.85 L13.0 5.8 13.1 5.85 12.95 5.85 M13.05 5.95 L10.9 7.95 13.2 10.2 13.2 10.25 10.9 8.0 10.8 8.05 10.8 8.0 13.0 5.95 13.05 5.95 M11.45 10.25 L11.4 10.25 10.0 8.85 8.6 10.25 8.5 10.25 10.0 8.8 11.45 10.25 M6.8 10.25 L6.8 10.2 9.1 7.95 7.0 5.95 7.05 5.95 9.25 8.0 9.2 8.05 9.1 8.0 6.8 10.25 M6.9 5.85 L7.0 5.8 7.05 5.85 6.9 5.85 M9.75 6.5 L9.8 6.65 9.8 6.35 9.5 5.5 9.45 5.4 9.35 5.25 9.4 5.25 9.45 5.4 9.5 5.45 9.85 6.3 9.85 6.7 9.8 6.65 9.75 6.6 9.75 6.5 M9.25 5.0 L8.65 4.6 7.05 4.15 7.35 4.2 8.65 4.6 9.3 5.0 9.25 5.0 M5.7 4.0 L4.35 3.75 4.5 3.75 5.7 4.0 M4.0 3.8 L3.3 3.85 3.8 3.75 4.0 3.8 M3.15 3.85 L3.15 3.9 2.1 4.1 1.3 4.5 0.9 4.95 2.0 5.15 2.45 5.95 3.3 5.95 3.75 6.6 4.4 6.5 4.45 6.55 3.75 6.65 3.25 6.0 2.45 6.0 2.0 5.2 0.85 4.95 1.3 4.5 1.35 4.45 2.1 4.05 3.15 3.85 M4.8 7.2 L5.5 7.1 5.5 7.15 4.8 7.25 4.8 7.2 M5.95 7.75 L6.6 7.5 6.65 7.55 6.0 7.8 5.95 7.75 M7.25 7.95 L7.3 7.95 7.35 8.0 7.75 7.75 7.35 8.05 7.35 8.0 7.25 7.95 M8.2 8.0 L8.6 7.8 8.65 7.85 8.25 8.0 8.2 8.0 M6.55 5.75 L6.55 5.7 8.8 5.7 8.75 5.75 6.7 5.75 6.55 5.75 M5.55 3.0 L5.45 2.9 5.45 2.75 5.55 3.0 M6.25 3.55 L5.95 3.4 6.1 3.4 6.25 3.55 M5.75 3.25 L5.65 3.15 5.7 3.15 5.75 3.25" fill="#000000" fill-rule="evenodd" stroke="none"/>
    <path d="M10.9 1.45 L12.55 1.7 13.3 1.95 13.35 1.9 13.75 2.15 14.15 2.5 14.2 2.5 14.25 2.8 14.15 3.15 14.1 3.15 13.75 3.4 13.4 3.6 12.5 3.9 11.75 4.05 11.15 4.15 10.9 4.15 10.85 4.15 9.95 4.15 9.0 4.15 8.95 4.15 8.55 4.1 8.15 4.05 7.35 3.9 6.5 3.6 6.1 3.4 5.75 3.15 5.7 3.15 5.6 2.8 5.55 2.8 5.65 2.5 5.7 2.5 6.0 2.2 6.5 1.9 6.55 1.95 8.0 1.55 8.05 1.55 9.95 1.4 10.9 1.45 M10.55 3.8 L11.55 3.7 11.7 3.65 11.95 3.65 12.8 3.45 12.75 3.4 13.1 3.3 13.45 3.05 13.4 3.05 13.5 2.8 13.55 2.8 13.45 2.6 13.55 2.6 13.25 2.35 13.3 2.35 12.85 2.2 12.9 2.15 12.8 2.15 12.55 2.05 12.3 2.0 10.75 1.8 9.85 1.8 9.05 1.8 8.05 1.9 7.7 2.0 7.6 2.0 7.55 2.0 6.95 2.15 6.55 2.35 6.6 2.35 6.3 2.6 6.35 2.6 6.3 2.8 6.4 3.05 6.65 3.25 7.2 3.5 7.65 3.6 9.5 3.85 10.25 3.8 10.35 3.8 10.55 3.8 M7.6 3.6 L7.65 3.6 7.6 3.6 M13.45 5.7 L13.75 5.6 11.2 5.6 10.3 6.4 10.25 6.5 10.25 6.35 10.6 5.55 10.55 5.55 10.85 5.05 11.4 4.7 11.35 4.7 12.75 4.3 15.65 3.85 16.85 3.95 16.85 4.0 17.9 4.2 17.9 4.25 18.65 4.6 18.9 4.9 18.85 4.9 17.95 5.05 17.5 5.85 17.5 5.9 16.7 5.9 16.7 5.85 16.2 6.5 16.25 6.55 15.5 6.45 15.5 6.4 15.15 7.1 14.45 7.0 13.95 7.65 13.4 7.4 12.65 7.9 12.3 7.65 12.3 7.6 11.8 7.9 11.8 7.95 11.55 7.8 11.4 7.8 13.45 5.75 13.45 5.7 M9.25 8.0 L9.35 8.05 7.25 6.0 7.05 5.95 8.7 5.95 10.0 7.25 10.05 7.15 11.4 5.95 13.0 5.95 12.75 6.0 10.7 8.05 10.8 8.0 10.8 8.05 13.05 10.25 12.8 10.15 11.5 10.15 10.0 8.65 8.5 10.15 7.25 10.15 6.95 10.25 9.2 8.05 9.25 8.0 M8.6 7.8 L8.45 7.8 8.2 7.95 8.2 7.9 7.7 7.6 7.7 7.65 7.35 7.9 6.6 7.4 6.05 7.65 5.55 7.0 4.85 7.1 4.5 6.4 4.5 6.45 3.75 6.55 3.8 6.5 3.3 5.85 3.3 5.9 2.5 5.9 2.5 5.85 2.05 5.05 1.15 4.9 1.1 4.9 1.35 4.6 2.1 4.25 2.1 4.2 3.15 4.0 3.15 3.95 4.35 3.85 7.25 4.3 8.65 4.7 8.6 4.7 9.15 5.05 9.3 5.25 9.75 6.35 9.75 6.5 9.65 6.35 8.8 5.6 6.25 5.6 6.55 5.7 6.55 5.75 8.6 7.8" fill="#ffcc00" fill-rule="evenodd" stroke="none"/>
  </g>
</svg>
