<?xml version="1.0" encoding="UTF-8" standalone="no"?>
<svg xmlns:ffdec="https://www.free-decompiler.com/flash" xmlns:xlink="http://www.w3.org/1999/xlink" ffdec:objectType="shape" height="9.45px" width="17.3px" xmlns="http://www.w3.org/2000/svg">
  <g transform="matrix(1.0, 0.0, 0.0, 1.0, -2.55, -1.35)">
    <path d="M12.65 2.35 L11.75 2.05 10.65 1.9 10.65 1.85 9.5 1.8 8.6 1.85 7.5 2.05 7.4 2.1 7.2 2.2 6.95 2.45 6.9 2.4 7.1 2.25 7.05 2.25 7.4 2.1 7.3 2.1 7.5 2.05 7.85 1.95 7.8 1.95 9.1 1.75 9.5 1.8 10.05 1.8 9.9 1.75 10.65 1.8 10.65 1.85 11.1 1.9 11.75 2.05 12.35 2.15 12.65 2.35 M6.9 2.55 L6.9 2.6 6.85 2.6 6.9 2.55 M7.0 2.8 L7.2 3.0 7.55 3.2 8.6 3.55 10.7 3.75 12.6 3.55 13.0 3.4 13.3 3.15 13.3 3.25 13.0 3.4 12.6 3.6 11.75 3.75 10.8 3.8 9.15 3.7 9.05 3.7 8.5 3.55 8.4 3.55 7.5 3.25 7.15 3.05 7.2 3.0 7.0 2.9 6.95 2.85 7.0 2.8 M13.3 2.75 L13.3 2.7 13.35 2.75 13.3 2.75 M14.25 2.7 L13.9 2.35 13.8 2.3 13.75 2.25 12.55 1.75 10.85 1.45 10.75 1.45 9.9 1.35 10.7 1.35 12.0 1.55 12.6 1.7 13.4 2.0 13.95 2.35 14.25 2.65 14.25 2.7 M14.1 3.4 L14.25 3.35 13.8 3.7 13.8 3.65 13.7 3.75 13.25 3.95 13.1 3.95 13.0 4.0 12.45 4.1 12.1 4.15 11.75 4.2 11.3 4.2 10.85 4.25 10.35 4.2 9.45 4.15 9.0 4.1 8.6 4.0 9.05 4.05 9.45 4.15 9.9 4.15 10.35 4.2 10.75 4.2 11.3 4.2 11.6 4.15 12.1 4.15 12.4 4.05 12.45 4.1 13.2 3.9 13.6 3.75 13.7 3.65 13.7 3.7 13.8 3.65 14.1 3.4 M14.35 3.0 L14.3 2.8 14.4 2.85 14.35 3.0 M7.75 3.8 L7.35 3.7 7.05 3.55 6.95 3.45 7.1 3.55 7.5 3.7 7.75 3.8 M6.55 3.25 L6.4 3.15 6.5 3.15 6.55 3.25 M6.4 3.1 L6.25 3.0 6.25 2.95 6.2 2.9 6.2 2.85 6.25 2.95 6.4 3.1 M6.15 2.7 L6.1 2.7 6.1 2.55 6.15 2.7 M6.15 2.35 L6.2 2.2 6.45 2.0 6.15 2.35 M6.95 1.75 L7.4 1.6 7.5 1.6 6.95 1.75 M7.6 1.55 L7.9 1.45 8.6 1.45 8.15 1.45 7.6 1.55 M19.6 5.8 L19.8 5.85 19.2 5.2 18.25 4.7 17.05 4.35 15.65 4.15 12.6 4.45 11.25 4.75 10.75 5.1 10.7 5.1 10.7 5.15 10.45 5.55 10.15 6.35 10.1 6.35 10.4 5.55 10.7 5.1 10.75 5.0 11.25 4.7 12.65 4.4 15.7 4.1 17.05 4.3 18.25 4.65 19.2 5.15 19.85 5.85 19.8 5.85 18.4 5.95 17.85 6.75 17.8 6.75 18.35 5.95 19.6 5.8 M15.1 7.8 L15.15 7.9 15.55 7.2 15.6 7.2 15.2 7.9 15.15 7.9 15.05 7.85 15.1 7.8 M16.25 7.4 L16.25 7.35 16.35 7.4 16.25 7.4 M13.0 6.1 L13.05 6.1 10.85 8.05 10.8 8.1 10.75 8.1 12.85 6.2 13.0 6.1 M11.5 8.8 L13.15 10.7 13.15 10.8 11.5 8.8 M12.75 10.7 L11.4 10.55 11.3 10.45 12.75 10.7 M10.1 9.0 L10.05 9.05 9.95 8.85 8.7 10.0 8.65 10.0 9.95 8.85 9.95 8.75 10.1 9.0 M8.6 10.0 L7.25 9.75 7.35 9.75 8.5 9.95 8.6 10.0 M7.2 9.75 L7.15 9.75 9.15 7.85 9.2 7.9 7.2 9.75 M8.05 6.55 L8.9 7.6 8.85 7.6 7.4 5.75 8.05 6.55 M8.75 7.65 L8.35 7.8 8.3 7.8 8.65 7.65 8.75 7.6 8.75 7.65 M8.3 7.75 L7.95 7.5 7.65 7.7 7.6 7.7 7.95 7.5 7.85 7.4 8.3 7.7 8.3 7.75 M7.55 7.65 L7.5 7.6 7.55 7.6 7.55 7.65 M7.0 7.15 L6.45 7.3 6.45 7.25 6.95 7.1 7.0 7.15 M6.1 6.65 L5.5 6.65 5.5 6.6 5.2 6.0 4.65 6.05 4.65 6.0 4.3 5.4 3.65 5.3 3.7 5.25 4.25 5.35 4.3 5.3 4.65 6.0 5.2 6.0 5.2 5.95 5.5 6.55 5.5 6.6 6.1 6.6 6.1 6.65 M3.4 4.55 L2.55 4.3 2.9 3.85 3.5 3.55 4.3 3.4 5.2 3.4 5.25 3.4 7.6 4.0 8.85 4.5 9.35 4.9 9.3 4.9 8.8 4.5 8.75 4.5 7.6 4.05 7.55 4.05 5.2 3.4 5.15 3.45 3.45 3.6 3.45 3.65 2.85 3.95 2.85 4.0 2.6 4.3 3.35 4.5 3.35 4.45 3.4 4.55 M9.5 5.25 L9.65 5.5 9.6 5.5 9.5 5.25 M9.85 6.25 L9.9 6.25 9.9 6.55 9.9 6.65 9.85 6.7 9.9 6.55 9.85 6.3 9.85 6.25 M9.75 6.6 L9.5 6.4 8.9 5.75 9.75 6.6 8.9 5.7 9.25 6.0 9.75 6.6 M10.0 7.05 L11.2 5.95 11.2 6.0 9.95 7.2 9.95 7.1 10.0 7.05 M10.15 6.5 L10.15 6.65 11.1 5.85 11.05 5.8 13.35 6.0 13.25 6.0 11.2 8.0 11.35 8.0 11.3 8.05 11.2 8.0 11.2 7.95 13.2 6.0 11.15 5.85 10.1 6.75 10.1 6.7 10.15 6.5 M12.45 8.25 L12.45 8.35 13.2 7.95 13.2 7.9 13.8 8.25 13.25 7.95 12.5 8.4 12.45 8.35 12.4 8.3 12.45 8.25 M12.1 8.1 L11.65 8.25 12.1 8.05 12.1 8.1 M14.4 7.7 L14.3 7.6 15.05 7.85 14.4 7.7 M7.0 5.4 L6.8 5.35 7.1 5.4 8.8 5.55 8.85 5.6 7.15 5.45 7.25 5.55 7.2 5.55 7.1 5.45 7.0 5.4 M7.25 5.55 L8.85 5.7 8.75 5.75 7.25 5.55" fill="#000000" fill-rule="evenodd" stroke="none"/>
    <path d="M13.3 2.7 L13.05 2.5 12.65 2.35 12.35 2.15 11.75 2.05 11.1 1.9 10.65 1.85 10.65 1.8 12.35 2.15 13.2 2.5 13.45 2.75 13.5 3.0 13.35 3.25 13.1 3.45 12.6 3.6 12.1 3.75 11.4 3.85 10.6 3.85 10.25 3.8 9.5 3.8 9.05 3.7 7.85 3.45 7.55 3.35 7.35 3.25 7.4 3.25 7.05 3.1 7.1 3.05 6.85 2.85 6.9 2.85 6.8 2.6 6.85 2.45 6.9 2.4 6.85 2.4 6.75 2.45 7.0 2.25 6.9 2.2 7.3 2.05 7.25 2.05 7.65 1.9 7.75 1.9 9.1 1.75 9.9 1.75 10.05 1.8 9.5 1.8 9.1 1.75 7.8 1.95 7.85 1.95 7.5 2.05 7.3 2.1 7.4 2.1 7.05 2.25 7.1 2.25 6.9 2.4 6.95 2.45 6.9 2.55 6.85 2.6 6.9 2.6 7.0 2.8 6.95 2.85 7.0 2.9 7.2 3.0 7.15 3.05 7.5 3.25 8.4 3.55 8.5 3.55 9.05 3.7 9.15 3.7 10.8 3.8 11.75 3.75 12.6 3.6 13.0 3.4 13.3 3.25 13.3 3.15 13.4 3.0 13.3 2.75 13.35 2.75 13.3 2.7 M9.9 1.35 L10.75 1.45 10.85 1.45 12.55 1.75 13.75 2.25 13.8 2.3 13.9 2.35 14.25 2.7 14.3 2.8 14.35 3.0 14.35 3.1 14.3 3.1 14.25 3.35 14.1 3.4 14.25 3.05 14.3 3.05 14.2 2.7 14.15 2.7 13.8 2.3 13.75 2.35 13.2 2.05 12.5 1.8 12.45 1.8 10.75 1.45 9.05 1.4 9.9 1.35 M11.6 4.15 L11.3 4.2 10.75 4.2 11.6 4.15 12.35 4.05 12.4 4.05 13.1 3.9 13.7 3.65 13.6 3.75 13.2 3.9 12.45 4.1 12.4 4.05 12.1 4.15 11.6 4.15 M9.9 4.15 L10.75 4.2 10.35 4.2 9.9 4.15 9.45 4.15 9.05 4.05 8.6 4.0 8.2 3.95 7.75 3.8 7.5 3.7 8.35 3.95 9.05 4.05 9.9 4.15 M6.95 3.45 L6.75 3.4 6.55 3.25 6.5 3.15 6.4 3.1 6.25 2.95 6.2 2.85 6.15 2.75 6.15 2.7 6.1 2.55 6.15 2.35 6.45 2.0 6.5 1.95 6.95 1.75 7.5 1.6 7.6 1.55 8.15 1.45 8.6 1.45 9.0 1.4 9.05 1.4 7.7 1.6 7.1 1.75 6.55 2.05 6.3 2.3 6.2 2.6 6.35 2.95 6.55 3.15 7.1 3.55 6.95 3.45 M13.7 3.7 L14.1 3.35 14.1 3.4 13.8 3.65 13.7 3.7 M10.15 6.35 L10.45 5.55 10.7 5.15 10.7 5.1 10.75 5.1 11.25 4.75 12.6 4.45 15.65 4.15 17.05 4.35 18.25 4.7 19.2 5.2 19.8 5.85 19.6 5.8 19.15 5.3 18.2 4.8 18.2 4.75 17.0 4.4 17.0 4.45 15.65 4.25 12.6 4.55 12.6 4.6 11.2 4.85 11.2 4.9 10.75 5.2 10.75 5.25 10.5 5.65 10.55 5.65 10.3 6.3 10.15 6.5 10.15 6.35 M15.1 7.8 L15.5 7.1 15.45 7.05 16.25 7.25 16.25 7.3 16.8 6.6 16.8 6.55 17.75 6.65 17.75 6.7 18.3 5.9 18.25 5.85 19.4 5.75 19.6 5.8 18.35 5.95 17.8 6.75 16.9 6.65 16.35 7.4 16.25 7.35 16.25 7.4 15.6 7.2 15.55 7.2 15.15 7.9 15.1 7.8 15.05 7.85 14.3 7.6 14.4 7.7 13.9 8.3 13.8 8.25 14.3 7.6 14.25 7.5 15.05 7.7 15.1 7.8 M11.2 5.95 L11.25 5.95 13.0 6.1 12.85 6.2 11.2 6.0 11.2 5.95 M10.85 8.05 L11.5 8.8 13.15 10.8 13.05 10.8 10.8 8.1 10.85 8.05 M11.3 10.45 L10.1 9.0 9.95 8.75 9.95 8.85 8.65 10.0 8.6 10.0 8.5 9.95 7.35 9.75 7.25 9.75 7.2 9.75 9.2 7.9 9.15 7.85 8.05 6.55 7.4 5.75 8.85 7.6 8.75 7.65 8.75 7.6 7.0 5.4 7.1 5.45 7.2 5.55 7.25 5.55 8.75 5.75 8.85 5.7 8.9 5.75 9.5 6.4 10.0 7.05 9.95 7.1 8.75 5.75 8.75 5.8 7.4 5.7 7.35 5.7 7.4 5.75 7.65 5.9 9.35 7.95 7.45 9.7 7.6 9.65 8.5 9.8 8.5 9.95 9.95 8.65 11.35 10.35 12.45 10.55 12.75 10.7 11.3 10.45 M8.3 7.8 L8.3 7.75 8.3 7.7 7.85 7.4 7.95 7.5 7.6 7.7 7.55 7.65 7.55 7.6 7.5 7.6 7.0 7.15 6.95 7.1 6.45 7.25 6.1 6.65 6.1 6.6 5.5 6.6 5.5 6.55 5.2 5.95 5.2 6.0 4.65 6.0 4.3 5.3 4.25 5.35 3.7 5.25 3.4 4.55 3.35 4.45 3.35 4.5 2.6 4.3 2.85 4.0 2.85 3.95 3.45 3.65 3.45 3.6 5.15 3.45 5.2 3.4 7.55 4.05 7.6 4.05 8.75 4.5 8.8 4.5 9.3 4.9 9.3 4.95 9.5 5.25 9.6 5.5 9.85 6.25 9.85 6.3 9.9 6.55 9.85 6.7 9.8 6.7 9.75 6.6 9.75 6.3 9.8 6.3 9.25 4.95 9.2 4.95 8.7 4.55 7.5 4.1 5.1 3.5 5.1 3.6 4.15 3.6 4.15 3.65 3.4 3.8 3.45 3.9 3.4 4.4 3.7 5.1 4.3 5.2 4.7 5.85 5.1 5.85 4.7 5.9 5.2 5.9 5.25 5.85 5.55 6.45 5.5 6.5 6.1 6.45 6.5 7.1 6.8 7.0 6.5 7.15 6.95 7.0 6.95 6.9 7.55 7.45 7.55 7.6 7.85 7.4 7.85 7.3 8.25 7.6 8.3 7.65 8.4 7.6 8.65 7.65 8.3 7.8 M10.15 6.5 L11.0 5.75 11.0 5.7 13.55 6.0 13.45 6.0 11.35 8.0 11.2 8.0 13.25 6.0 13.35 6.0 11.05 5.8 11.1 5.85 10.15 6.65 10.15 6.5 M11.35 8.0 L11.5 8.0 11.6 8.1 11.6 8.15 12.1 7.95 12.1 7.85 12.45 8.2 12.45 8.25 13.2 7.85 13.2 7.8 13.75 8.1 13.8 8.25 13.2 7.9 13.2 7.95 12.45 8.35 12.45 8.25 12.4 8.3 12.1 8.1 12.1 8.05 11.65 8.25 11.3 8.05 11.35 8.0 M10.75 8.1 L10.55 8.15 12.6 6.25 12.85 6.2 10.75 8.1 M11.2 6.0 L11.25 6.15 9.9 7.4 9.95 7.2 11.2 6.0 M6.8 5.35 L6.5 5.2 7.0 5.3 6.95 5.25 8.6 5.4 7.0 5.3 8.85 5.45 9.4 6.05 9.75 6.6 9.25 6.0 8.9 5.7 8.85 5.6 8.8 5.55 7.1 5.4 6.8 5.35" fill="#7f6600" fill-rule="evenodd" stroke="none"/>
    <path d="M9.9 1.75 L9.1 1.75 7.75 1.9 7.65 1.9 7.25 2.05 7.3 2.05 6.9 2.2 7.0 2.25 6.75 2.45 6.85 2.4 6.9 2.4 6.85 2.45 6.8 2.6 6.9 2.85 6.85 2.85 7.1 3.05 7.05 3.1 7.4 3.25 7.35 3.25 7.55 3.35 7.85 3.45 9.05 3.7 9.5 3.8 10.25 3.8 10.6 3.85 11.4 3.85 12.1 3.75 12.6 3.6 13.1 3.45 13.35 3.25 13.5 3.0 13.45 2.75 13.2 2.5 12.35 2.15 10.65 1.8 9.9 1.75 M9.05 1.4 L10.75 1.45 12.45 1.8 12.5 1.8 13.2 2.05 13.75 2.35 13.8 2.3 14.15 2.7 14.2 2.7 14.3 3.05 14.25 3.05 14.1 3.4 14.1 3.35 13.7 3.7 13.7 3.65 13.1 3.9 12.4 4.05 12.35 4.05 11.6 4.15 10.75 4.2 9.9 4.15 9.05 4.05 8.35 3.95 7.5 3.7 7.1 3.55 6.55 3.15 6.35 2.95 6.2 2.6 6.3 2.3 6.55 2.05 7.1 1.75 7.7 1.6 9.05 1.4 M10.15 6.5 L10.3 6.3 10.55 5.65 10.5 5.65 10.75 5.25 10.75 5.2 11.2 4.9 11.2 4.85 12.6 4.6 12.6 4.55 15.65 4.25 17.0 4.45 17.0 4.4 18.2 4.75 18.2 4.8 19.15 5.3 19.6 5.8 19.4 5.75 18.25 5.85 18.3 5.9 17.75 6.7 17.75 6.65 16.8 6.55 16.8 6.6 16.25 7.3 16.25 7.25 15.45 7.05 15.5 7.1 15.1 7.8 15.05 7.7 14.25 7.5 14.3 7.6 13.8 8.25 13.75 8.1 13.2 7.8 13.2 7.85 12.45 8.25 12.45 8.2 12.1 7.85 12.1 7.95 11.6 8.15 11.6 8.1 11.5 8.0 11.35 8.0 13.45 6.0 13.55 6.0 11.0 5.7 11.0 5.75 10.15 6.5 M13.05 10.8 L12.95 10.8 12.75 10.7 12.45 10.55 11.35 10.35 9.95 8.65 8.5 9.95 8.5 9.8 7.6 9.65 7.45 9.7 9.35 7.95 7.65 5.9 7.4 5.75 7.35 5.7 7.4 5.7 8.75 5.8 8.75 5.75 9.95 7.1 9.95 7.2 9.9 7.4 11.25 6.15 11.2 6.0 12.85 6.2 12.6 6.25 10.55 8.15 10.75 8.1 10.8 8.1 13.05 10.8 M8.65 7.65 L8.4 7.6 8.3 7.65 8.25 7.6 7.85 7.3 7.85 7.4 7.55 7.6 7.55 7.45 6.95 6.9 6.95 7.0 6.5 7.15 6.8 7.0 6.5 7.1 6.1 6.45 5.5 6.5 5.55 6.45 5.25 5.85 5.2 5.9 4.7 5.9 5.1 5.85 4.7 5.85 4.3 5.2 3.7 5.1 3.4 4.4 3.45 3.9 3.4 3.8 4.15 3.65 4.15 3.6 5.1 3.6 5.1 3.5 7.5 4.1 8.7 4.55 9.2 4.95 9.25 4.95 9.8 6.3 9.75 6.3 9.75 6.6 9.4 6.05 8.85 5.45 7.0 5.3 8.6 5.4 6.95 5.25 7.0 5.3 6.5 5.2 6.8 5.35 7.0 5.4 8.75 7.6 8.65 7.65" fill="#ffcc00" fill-rule="evenodd" stroke="none"/>
  </g>
</svg>
