<?xml version="1.0" encoding="UTF-8" standalone="no"?>
<svg xmlns:ffdec="https://www.free-decompiler.com/flash" xmlns:xlink="http://www.w3.org/1999/xlink" ffdec:objectType="shape" height="9.7px" width="15.95px" xmlns="http://www.w3.org/2000/svg">
  <g transform="matrix(1.0, 0.0, 0.0, 1.0, -3.6, -1.35)">
    <path d="M11.5 2.0 L11.75 2.05 12.8 2.45 13.2 2.85 13.15 2.85 13.25 3.1 13.2 3.15 13.2 3.35 12.85 3.55 12.35 3.75 12.1 3.75 12.35 3.7 12.4 3.7 12.35 3.65 12.8 3.5 13.05 3.3 13.1 3.25 13.15 3.1 13.15 3.05 13.1 2.85 13.05 2.8 12.85 2.6 12.65 2.45 12.4 2.35 12.2 2.25 11.85 2.15 11.5 2.0 M12.0 3.75 L11.8 3.85 11.55 3.85 10.9 3.9 9.6 3.75 9.2 3.7 8.0 3.4 7.9 3.6 8.6 3.9 8.2 3.8 7.8 3.65 7.45 3.45 7.25 3.35 6.95 3.15 6.9 3.05 6.75 2.9 6.6 2.5 6.6 2.3 6.65 2.25 6.8 2.1 6.85 2.05 6.85 1.95 7.25 1.75 7.8 1.55 9.05 1.4 9.1 1.45 8.35 1.5 7.8 1.6 7.9 1.85 9.15 1.75 10.6 1.8 11.2 1.95 10.9 1.9 10.0 1.8 9.95 1.8 9.15 1.75 9.2 1.8 8.7 1.8 8.05 1.9 8.1 1.9 7.65 2.05 7.7 2.05 7.4 2.2 7.45 2.2 7.3 2.35 7.1 2.35 7.35 2.15 7.2 2.15 7.1 2.2 6.95 2.4 6.9 2.6 7.0 2.8 7.1 2.95 7.6 3.25 8.0 3.4 8.05 3.4 7.6 3.2 7.7 3.2 7.35 3.0 7.45 3.0 7.25 2.75 7.3 2.8 7.25 2.55 7.3 2.55 7.4 2.75 7.35 2.75 7.55 2.95 7.5 2.95 7.8 3.15 7.85 3.2 8.05 3.3 8.2 3.35 8.15 3.35 8.5 3.5 8.7 3.5 8.65 3.55 9.6 3.75 11.55 3.85 12.0 3.75 M8.9 4.0 L9.85 4.15 10.6 4.2 11.4 4.2 12.15 4.15 12.8 4.0 13.0 3.95 13.35 3.75 13.4 3.8 13.75 3.5 13.85 3.5 14.0 3.15 13.9 2.75 13.85 2.8 13.5 2.4 13.45 2.45 12.9 2.1 11.35 1.6 9.9 1.4 9.9 1.35 10.7 1.45 10.75 1.45 11.55 1.6 11.6 1.6 13.1 2.1 13.8 2.55 13.9 2.7 13.95 2.75 14.0 2.9 14.1 3.15 13.95 3.5 13.9 3.5 13.5 3.8 13.45 3.8 13.15 3.95 12.95 4.0 12.8 4.0 12.7 4.05 12.85 4.05 12.25 4.15 11.5 4.25 11.4 4.2 11.1 4.25 10.6 4.2 10.4 4.25 9.85 4.15 9.4 4.1 8.9 4.0 M7.35 2.35 L7.3 2.5 7.25 2.55 7.2 2.55 7.3 2.35 7.35 2.35 M10.1 6.45 L10.1 6.4 10.6 5.2 10.55 5.15 11.05 4.85 11.05 4.8 11.1 4.8 12.3 4.7 11.05 4.95 11.05 5.0 Q10.85 5.15 10.6 5.25 L10.65 5.35 10.45 5.7 10.45 5.75 10.35 6.0 10.1 6.45 M10.05 6.5 L10.1 6.5 10.85 5.85 10.8 5.7 13.4 6.05 13.3 6.1 11.25 8.1 11.4 8.1 11.4 8.25 11.85 8.05 11.85 7.95 12.15 8.3 12.15 8.4 12.85 8.0 12.85 7.95 13.4 8.35 13.45 8.45 13.95 7.9 13.9 7.75 14.6 8.0 14.7 8.15 15.1 7.45 15.05 7.35 15.8 7.6 15.9 7.75 16.45 7.0 16.35 6.9 17.3 7.05 17.35 7.15 17.9 6.3 17.85 6.2 19.05 6.15 19.35 6.25 18.8 5.7 17.85 5.1 16.6 4.7 16.6 4.75 15.25 4.45 15.25 4.5 12.7 4.65 15.25 4.35 15.3 4.35 16.3 4.55 16.65 4.6 16.7 4.6 17.2 4.75 16.3 4.55 17.2 4.75 17.95 5.0 18.9 5.6 19.55 6.3 19.4 6.3 19.35 6.25 17.95 6.3 18.0 6.35 17.45 7.2 17.35 7.15 16.45 7.0 16.55 7.05 16.0 7.8 15.9 7.75 15.1 7.45 15.15 7.55 15.25 7.55 14.85 8.25 14.75 8.2 14.7 8.15 13.95 7.9 14.0 7.95 14.05 7.95 13.6 8.6 13.5 8.55 13.45 8.45 12.9 8.1 12.95 8.15 12.2 8.55 12.15 8.5 12.15 8.4 12.1 8.4 11.9 8.2 11.45 8.35 11.4 8.25 11.4 8.35 11.35 8.25 11.3 8.25 11.2 8.15 11.1 8.05 13.05 6.15 10.85 5.85 10.95 5.9 11.0 5.9 10.1 6.7 10.05 6.7 10.05 6.5 M9.45 4.9 L9.6 5.2 9.9 6.25 9.9 6.6 9.9 6.65 9.85 6.65 9.85 6.7 9.8 6.65 9.8 6.3 9.5 5.25 9.3 4.95 8.85 4.5 8.8 4.55 7.7 4.05 7.7 4.1 5.7 3.45 6.85 3.85 6.2 3.65 7.1 4.0 5.65 3.5 7.55 4.2 8.65 4.75 8.65 4.8 8.95 5.35 8.9 5.35 9.35 5.9 9.55 6.3 8.9 5.5 7.05 5.2 7.05 5.15 6.8 5.0 8.45 7.45 8.8 7.55 8.5 7.7 8.05 7.25 8.1 7.35 7.85 7.55 7.35 7.0 7.3 6.95 6.85 7.05 6.85 6.95 6.5 6.3 6.5 6.4 6.0 6.35 6.05 6.3 5.85 5.85 5.8 5.7 5.75 5.75 5.3 5.8 5.3 5.7 5.05 5.15 5.0 5.0 5.0 5.05 4.5 5.0 4.55 4.85 4.45 4.8 4.25 4.3 4.25 4.25 3.7 4.0 3.85 3.8 3.8 3.75 4.3 3.5 4.3 3.45 4.95 3.35 5.0 3.3 5.8 3.3 7.75 4.0 7.85 3.95 8.9 4.45 8.95 4.45 9.45 4.9 M11.1 6.0 L12.4 6.2 12.75 6.25 12.65 6.3 10.7 8.15 10.45 8.15 12.35 6.4 12.5 6.35 11.05 6.15 11.05 6.3 9.85 7.5 9.9 7.3 11.05 6.15 11.1 6.0 M10.8 8.1 L12.3 10.15 12.9 11.0 12.8 11.05 10.7 8.15 10.8 8.1 M11.15 10.55 L11.1 10.55 9.95 8.85 9.95 8.8 8.75 9.9 8.7 9.85 8.75 9.85 7.55 9.5 9.25 7.9 9.2 7.85 9.0 7.5 8.95 7.55 7.4 5.3 7.5 5.3 7.6 5.4 7.55 5.45 8.9 5.65 8.75 5.8 7.7 5.65 7.65 5.65 8.35 6.6 7.75 5.7 7.95 5.85 8.7 5.95 8.7 6.0 9.5 8.05 9.85 8.45 9.85 8.5 11.15 10.45 12.1 10.7 12.2 10.75 12.45 10.95 11.15 10.55 M9.75 6.6 L10.0 7.05 9.95 7.1 8.9 5.65 9.0 5.65 9.0 5.7 9.65 6.55 9.75 6.6 M9.0 7.5 L9.05 7.45 8.95 7.5 9.0 7.5" fill="#7f6600" fill-rule="evenodd" stroke="none"/>
    <path d="M11.5 2.0 L11.85 2.15 12.2 2.25 12.4 2.35 12.65 2.45 12.85 2.6 12.4 2.35 11.85 2.15 10.9 1.9 11.2 1.95 11.5 2.0 M13.05 2.8 L13.1 2.85 13.15 3.05 13.15 3.1 13.05 2.8 M13.1 3.25 L13.05 3.3 12.8 3.5 12.35 3.65 12.4 3.7 12.35 3.7 12.1 3.75 12.0 3.75 11.55 3.85 9.6 3.75 8.65 3.55 8.7 3.5 8.5 3.5 8.15 3.35 8.2 3.35 8.05 3.3 7.85 3.2 7.8 3.15 7.5 2.95 7.55 2.95 7.35 2.75 7.4 2.75 7.6 2.95 7.9 3.15 8.3 3.35 8.8 3.5 10.7 3.75 11.9 3.7 12.8 3.5 13.1 3.25 M8.6 3.9 L8.9 4.0 9.4 4.1 9.85 4.15 10.4 4.25 10.6 4.2 11.1 4.25 10.4 4.25 9.4 4.1 8.75 4.0 8.2 3.8 8.6 3.9 M9.9 1.4 L9.05 1.4 7.8 1.55 7.25 1.75 7.15 1.75 7.7 1.55 8.5 1.4 9.9 1.35 10.9 1.4 12.35 1.75 13.25 2.1 13.75 2.45 13.8 2.55 13.1 2.1 11.6 1.6 11.55 1.6 10.75 1.45 10.7 1.45 9.9 1.35 9.9 1.4 M13.9 2.7 L13.95 2.7 13.95 2.75 13.9 2.7 M14.0 2.9 L14.1 2.95 14.1 3.15 14.0 2.9 M13.95 3.5 L13.9 3.55 13.6 3.75 13.5 3.8 13.15 3.95 13.25 3.95 12.95 4.05 12.85 4.05 12.35 4.2 12.25 4.15 11.85 4.25 11.5 4.25 11.1 4.25 11.4 4.2 11.5 4.25 12.25 4.15 12.85 4.05 12.7 4.05 12.8 4.0 12.95 4.0 13.15 3.95 13.45 3.8 13.5 3.8 13.9 3.5 13.95 3.5 M7.45 3.45 L7.35 3.45 7.25 3.35 7.45 3.45 M6.95 3.15 L6.8 3.05 6.9 3.05 6.95 3.15 M6.75 2.9 L6.65 2.8 6.55 2.55 6.6 2.5 6.55 2.5 6.6 2.3 6.6 2.5 6.75 2.9 M6.65 2.25 L6.65 2.1 6.8 2.1 6.65 2.25 M6.85 2.05 L6.75 2.05 6.85 1.95 6.85 2.05 M7.3 2.55 L7.25 2.55 7.3 2.5 7.3 2.55 M7.3 2.35 L7.45 2.2 7.4 2.2 7.7 2.05 7.65 2.05 8.1 1.9 8.05 1.9 8.7 1.8 9.2 1.8 9.15 1.75 9.95 1.8 8.45 1.85 7.85 2.0 7.55 2.15 7.35 2.35 7.3 2.35 M11.05 4.85 L10.55 5.15 10.6 5.2 10.1 6.4 10.1 6.45 10.1 6.5 10.05 6.5 10.05 6.35 10.55 5.15 10.6 5.1 Q10.85 4.95 11.05 4.85 M12.3 4.7 L11.1 4.8 11.15 4.75 12.45 4.5 15.35 4.3 16.3 4.55 15.3 4.35 15.25 4.35 12.7 4.65 12.3 4.65 12.3 4.7 M17.2 4.75 L17.95 4.95 17.95 5.0 18.95 5.55 19.55 6.25 19.55 6.3 18.9 5.6 17.95 5.0 17.2 4.75 M19.4 6.3 L18.1 6.35 17.5 7.25 17.45 7.2 16.6 7.05 16.0 7.8 15.25 7.55 14.9 8.25 14.85 8.25 15.25 7.55 15.15 7.55 15.1 7.45 15.9 7.75 16.0 7.8 16.55 7.05 16.45 7.0 17.35 7.15 17.45 7.2 18.0 6.35 17.95 6.3 19.35 6.25 19.4 6.3 M14.75 8.2 L14.1 8.0 13.65 8.6 13.6 8.6 14.05 7.95 14.0 7.95 13.95 7.9 14.7 8.15 14.75 8.2 M13.5 8.55 L13.0 8.2 12.25 8.55 12.2 8.55 12.95 8.15 12.9 8.1 13.45 8.45 13.5 8.55 M12.15 8.5 L12.1 8.4 12.15 8.4 12.15 8.5 M11.9 8.2 L11.5 8.4 11.45 8.35 11.4 8.35 11.3 8.25 11.35 8.25 11.4 8.35 11.4 8.25 11.45 8.35 11.9 8.2 M11.2 8.15 L11.05 8.05 12.95 6.15 11.05 5.9 10.1 6.75 10.1 6.7 11.0 5.9 10.95 5.9 10.85 5.85 13.05 6.15 11.1 8.05 11.2 8.15 M4.25 4.3 L3.6 4.05 3.8 3.75 3.85 3.7 4.45 3.35 4.5 3.4 4.95 3.25 5.9 3.25 7.75 3.9 7.95 3.95 9.0 4.45 9.5 4.9 9.45 4.9 8.95 4.45 8.9 4.45 7.85 3.95 7.75 4.0 5.8 3.3 5.0 3.3 4.95 3.35 4.3 3.45 4.3 3.5 3.8 3.75 3.85 3.8 3.7 4.0 4.25 4.25 4.25 4.3 M9.6 5.2 L9.9 6.15 9.9 6.25 9.95 6.35 9.95 6.5 9.9 6.6 9.9 6.25 9.6 5.2 M9.8 6.65 L10.0 7.0 11.1 6.0 11.05 6.15 9.9 7.3 9.9 7.15 9.95 7.1 10.0 7.05 9.75 6.6 9.8 6.65 M12.4 6.2 L12.8 6.25 12.75 6.25 10.8 8.1 10.7 8.15 12.65 6.3 12.75 6.25 12.4 6.2 M12.3 10.15 L12.85 10.9 12.9 10.95 12.9 11.0 12.3 10.15 M12.7 11.0 L12.55 11.0 12.45 10.95 11.15 10.6 11.15 10.55 12.45 10.95 12.7 11.0 M9.95 8.85 L8.85 9.9 8.75 9.9 9.95 8.8 9.95 8.85 M8.7 9.85 L7.5 9.5 9.2 7.85 9.25 7.9 7.55 9.5 8.75 9.85 8.7 9.85 M8.95 7.55 L8.5 7.7 8.15 7.4 7.95 7.55 7.85 7.55 8.1 7.35 8.05 7.25 8.5 7.7 8.8 7.55 8.95 7.55 M7.35 7.0 L6.9 7.1 6.85 7.1 6.85 7.05 6.55 6.45 6.0 6.4 6.0 6.35 6.5 6.4 6.5 6.3 6.85 6.95 6.85 7.05 7.3 6.95 7.35 7.0 M5.85 5.85 L5.3 5.85 5.3 5.8 5.75 5.75 5.8 5.7 5.85 5.85 M5.05 5.15 L4.55 5.05 4.5 5.0 4.45 4.8 4.55 4.85 4.5 5.0 5.0 5.05 5.0 5.0 5.05 5.15 M7.4 5.3 L7.3 5.3 7.05 5.2 8.9 5.5 9.55 6.3 9.65 6.4 9.75 6.6 9.65 6.55 9.0 5.7 9.0 5.65 8.9 5.65 7.55 5.45 7.6 5.4 9.0 5.65 8.9 5.55 8.45 5.5 7.5 5.3 7.4 5.3 M7.75 5.7 L8.35 6.6 7.65 5.65 7.7 5.65 7.75 5.7 M9.0 7.5 L8.95 7.5 9.05 7.45 9.0 7.5" fill="#000000" fill-rule="evenodd" stroke="none"/>
    <path d="M12.1 3.75 L12.35 3.75 12.85 3.55 13.2 3.35 13.2 3.15 13.25 3.1 13.15 2.85 13.2 2.85 12.8 2.45 11.75 2.05 11.5 2.0 11.2 1.95 10.6 1.8 9.15 1.75 7.9 1.85 7.8 1.6 8.35 1.5 9.1 1.45 9.05 1.4 9.9 1.4 11.35 1.6 12.9 2.1 13.45 2.45 13.5 2.4 13.85 2.8 13.9 2.75 14.0 3.15 13.85 3.5 13.75 3.5 13.4 3.8 13.35 3.75 13.0 3.95 12.8 4.0 12.15 4.15 11.4 4.2 10.6 4.2 9.85 4.15 8.9 4.0 8.6 3.9 7.9 3.6 8.0 3.4 9.2 3.7 9.6 3.75 10.9 3.9 11.55 3.85 11.8 3.85 12.0 3.75 12.1 3.75 M7.25 2.55 L7.3 2.8 7.25 2.75 7.45 3.0 7.35 3.0 7.7 3.2 7.6 3.2 8.05 3.4 8.0 3.4 7.6 3.25 7.1 2.95 7.0 2.8 6.9 2.6 6.95 2.4 7.1 2.2 7.2 2.15 7.35 2.15 7.1 2.35 7.3 2.35 7.2 2.55 7.25 2.55 M10.1 6.45 L10.35 6.0 10.45 5.75 10.45 5.7 10.65 5.35 10.6 5.25 Q10.85 5.15 11.05 5.0 L11.05 4.95 12.3 4.7 12.7 4.65 12.3 4.7 12.3 4.65 12.7 4.65 15.25 4.5 15.25 4.45 16.6 4.75 16.6 4.7 17.85 5.1 18.8 5.7 19.35 6.25 19.05 6.15 17.85 6.2 17.9 6.3 17.35 7.15 17.3 7.05 16.35 6.9 16.45 7.0 15.9 7.75 15.8 7.6 15.05 7.35 15.1 7.45 14.7 8.15 14.6 8.0 13.9 7.75 13.95 7.9 13.45 8.45 13.4 8.35 12.85 7.95 12.85 8.0 12.15 8.4 12.15 8.3 11.85 7.95 11.85 8.05 11.4 8.25 11.4 8.1 11.25 8.1 13.3 6.1 13.4 6.05 10.8 5.7 10.85 5.85 10.1 6.5 10.1 6.45 M12.8 11.05 L12.7 11.0 12.45 10.95 12.2 10.75 12.1 10.7 11.15 10.45 9.85 8.5 9.85 8.45 9.5 8.05 8.7 6.0 8.7 5.95 7.95 5.85 7.75 5.7 7.7 5.65 8.75 5.8 8.9 5.65 9.95 7.1 9.9 7.15 9.9 7.3 9.85 7.5 11.05 6.3 11.05 6.15 12.5 6.35 12.35 6.4 10.45 8.15 10.7 8.15 12.8 11.05 M8.8 7.55 L8.45 7.45 6.8 5.0 7.05 5.15 7.05 5.2 7.3 5.3 7.4 5.3 8.95 7.55 8.8 7.55 M9.55 6.3 L9.35 5.9 8.9 5.35 8.95 5.35 8.65 4.8 8.65 4.75 7.55 4.2 5.65 3.5 7.1 4.0 6.2 3.65 6.85 3.85 5.7 3.45 7.7 4.1 7.7 4.05 8.8 4.55 8.85 4.5 9.3 4.95 9.5 5.25 9.8 6.3 9.8 6.65 9.75 6.6 9.65 6.4 9.55 6.3" fill="#ffcc00" fill-rule="evenodd" stroke="none"/>
  </g>
</svg>
