<?xml version="1.0" encoding="UTF-8" standalone="no"?>
<svg xmlns:ffdec="https://www.free-decompiler.com/flash" xmlns:xlink="http://www.w3.org/1999/xlink" ffdec:objectType="shape" height="10.0px" width="13.95px" xmlns="http://www.w3.org/2000/svg">
  <g transform="matrix(1.0, 0.0, 0.0, 1.0, -4.8, -1.3)">
    <path d="M13.5 2.85 L13.35 2.85 13.1 2.5 13.0 2.5 12.55 2.15 12.45 2.15 11.9 1.9 11.85 1.9 11.7 1.85 12.75 2.5 12.55 2.65 12.8 2.9 12.9 3.25 12.8 3.45 12.55 3.65 12.85 3.45 12.6 3.65 12.75 3.9 12.8 3.85 12.95 3.9 13.25 3.6 13.4 3.6 13.55 3.25 13.5 2.85 13.55 2.85 13.6 3.1 13.6 3.2 13.5 3.6 13.45 3.6 13.1 3.9 13.0 3.9 12.55 4.1 12.45 4.1 11.9 4.25 11.8 4.2 10.85 4.3 10.55 4.25 9.55 4.1 9.25 4.05 8.15 3.6 7.8 3.35 7.75 3.3 7.5 3.1 7.2 2.7 7.15 2.5 7.2 2.25 7.35 2.05 7.4 1.9 7.45 1.9 8.15 1.55 8.6 1.45 9.9 1.4 10.3 1.45 10.8 1.5 10.3 1.45 10.6 1.45 10.8 1.5 11.25 1.6 11.35 1.6 12.0 1.85 12.1 1.85 13.0 2.3 13.5 2.85 M12.65 2.9 L12.5 2.7 12.4 2.65 12.3 2.5 12.05 2.4 11.8 2.25 11.25 2.05 10.8 1.95 9.95 1.75 9.25 1.75 8.35 1.9 8.05 1.95 7.8 2.1 7.9 2.15 7.75 2.3 7.8 2.3 7.8 2.5 7.85 2.65 7.85 2.7 8.0 2.9 7.9 2.9 8.0 2.95 8.05 3.0 8.4 3.25 8.5 3.3 8.45 3.3 8.8 3.5 9.7 3.75 11.05 3.9 12.05 3.75 12.4 3.6 12.65 3.4 12.75 3.2 12.75 3.1 12.7 2.95 12.65 2.9 M7.75 2.3 L7.5 2.3 7.45 2.5 7.5 2.7 7.55 2.75 7.7 2.95 7.8 2.9 7.85 2.9 7.7 2.7 7.8 2.7 7.75 2.5 7.7 2.5 7.75 2.3 M10.2 5.8 L10.45 5.3 10.45 5.25 10.8 4.95 10.85 4.9 11.95 4.7 12.0 4.65 14.6 4.6 14.65 4.55 15.95 4.9 16.25 5.0 15.95 4.9 15.95 4.85 16.25 5.0 17.3 5.4 18.1 6.0 18.15 6.0 18.75 6.8 18.6 6.8 18.05 6.0 18.0 6.0 17.05 5.4 17.0 5.4 16.2 5.15 15.85 5.0 15.1 4.8 15.0 4.8 14.55 4.7 14.55 4.75 12.55 4.85 12.9 4.85 13.05 6.15 14.3 7.45 13.85 8.3 13.4 8.1 13.3 7.9 12.85 8.55 12.45 8.25 12.5 8.35 11.9 8.7 11.85 8.6 11.8 8.55 11.5 8.15 11.55 8.25 11.55 8.3 11.2 8.45 11.15 8.4 11.1 8.3 11.0 8.2 10.9 8.15 12.65 6.3 10.7 5.85 10.75 5.95 10.85 5.95 10.05 6.75 10.0 6.55 10.2 5.8 M16.75 7.65 L16.6 7.65 16.6 7.6 17.1 6.75 16.95 6.55 18.05 6.6 18.35 6.75 17.35 6.75 17.3 6.75 16.75 7.65 M15.3 8.2 L15.15 8.1 15.2 8.1 15.7 7.35 15.55 7.15 16.4 7.4 16.55 7.55 15.7 7.35 15.75 7.4 15.85 7.45 15.3 8.2 M14.25 8.55 L14.15 8.5 14.5 7.8 14.6 7.9 14.25 8.55 M13.1 8.85 L12.95 8.7 13.0 8.7 12.85 8.55 13.25 8.1 12.9 8.55 13.0 8.7 13.4 8.1 13.45 8.2 13.55 8.25 13.1 8.85 M15.1 8.05 L14.4 7.7 14.3 7.55 15.05 7.85 15.1 8.05 M13.85 8.3 L14.2 7.7 13.95 8.25 14.05 8.45 13.85 8.3 M10.8 6.25 L11.8 6.55 11.9 6.55 10.8 6.25 10.85 6.1 10.9 6.05 12.35 6.4 10.6 8.2 10.5 8.2 10.2 8.15 11.85 10.95 12.0 11.05 10.95 10.65 9.95 8.85 9.8 8.6 9.9 8.85 8.95 9.8 8.85 9.75 8.8 9.65 8.0 9.3 9.35 7.9 9.4 7.9 8.1 5.65 8.05 5.6 7.95 5.5 7.95 5.35 9.0 5.65 8.85 5.85 9.75 7.35 9.8 7.45 9.85 7.3 10.8 6.25 M9.95 6.25 L9.95 6.6 9.9 6.65 9.85 6.7 9.85 6.25 9.9 6.25 9.65 5.3 9.45 4.85 9.35 4.9 9.0 4.4 8.85 4.55 8.8 4.65 9.1 5.0 9.4 5.7 9.45 6.0 9.5 6.15 9.0 5.35 9.0 5.4 7.5 5.05 7.4 5.0 7.4 5.1 8.65 7.4 8.75 7.45 8.9 7.45 8.65 7.55 8.6 7.45 8.3 7.1 8.3 7.2 8.4 7.25 8.15 7.45 8.1 7.35 8.05 7.2 7.65 6.6 7.65 6.7 7.7 6.8 7.35 6.9 7.3 6.8 7.3 6.75 7.05 6.1 7.05 6.2 6.65 6.15 6.65 6.05 6.45 5.45 6.45 5.55 6.1 5.55 6.1 5.45 5.9 4.95 5.85 4.8 5.85 4.85 5.45 4.75 5.5 4.6 5.4 4.6 5.25 4.1 5.25 4.05 4.85 3.8 4.95 3.7 4.95 3.65 5.3 3.4 5.3 3.35 5.8 3.25 6.4 3.25 6.5 3.15 8.1 3.9 8.15 3.85 9.05 4.4 9.1 4.35 9.5 4.8 9.55 4.8 9.6 4.95 9.6 5.0 9.75 5.35 9.85 5.8 9.95 6.25 M10.0 7.0 L10.0 7.1 9.1 5.6 9.65 6.4 9.7 6.55 9.85 6.7 10.0 7.0 M10.7 8.15 L12.45 11.1 12.5 11.15 12.55 11.2 12.55 11.25 12.5 11.3 10.65 8.2 10.7 8.15 M7.85 5.2 L7.95 5.25 8.0 5.3 7.95 5.3 7.9 5.3 7.85 5.2" fill="#7f6600" fill-rule="evenodd" stroke="none"/>
    <path d="M13.5 2.85 L13.0 2.3 12.1 1.85 12.0 1.85 11.35 1.6 11.25 1.6 10.8 1.5 11.55 1.6 12.15 1.8 12.8 2.15 13.3 2.5 13.55 2.85 13.5 2.85 M10.3 1.45 L9.9 1.4 8.6 1.45 8.15 1.55 7.45 1.9 7.45 1.85 7.75 1.6 8.45 1.4 9.4 1.3 10.3 1.45 M7.35 2.05 L7.2 2.25 7.15 2.5 7.15 2.45 7.2 2.2 7.35 2.05 M7.2 2.7 L7.5 3.1 7.2 2.75 7.2 2.7 M7.75 3.3 L7.8 3.35 7.7 3.3 7.75 3.3 M9.55 4.1 L10.55 4.25 10.85 4.3 11.8 4.2 11.9 4.25 12.45 4.1 12.55 4.1 13.0 3.9 13.1 3.9 13.45 3.6 13.5 3.6 13.15 3.9 13.1 3.9 13.05 3.95 13.1 3.95 12.1 4.25 10.85 4.3 10.55 4.3 10.55 4.25 9.9 4.2 9.55 4.1 M13.6 3.2 L13.6 3.1 13.65 3.15 13.6 3.2 M7.75 2.3 L7.9 2.15 7.8 2.1 8.05 1.95 8.35 1.9 9.25 1.75 9.95 1.75 10.8 1.95 11.25 2.05 11.8 2.25 12.05 2.4 12.3 2.5 12.4 2.65 12.5 2.7 12.65 2.9 12.4 2.65 12.05 2.4 11.6 2.2 10.8 1.95 9.9 1.8 9.2 1.8 8.35 1.9 8.0 2.1 7.8 2.3 7.75 2.3 M12.75 3.1 L12.75 3.2 12.65 3.4 12.4 3.6 12.05 3.75 11.05 3.9 9.7 3.75 8.8 3.5 8.45 3.3 8.5 3.3 8.4 3.25 8.05 3.0 8.0 2.95 7.9 2.9 8.0 2.9 7.85 2.7 7.85 2.65 8.05 2.9 8.3 3.1 8.65 3.3 9.3 3.55 10.65 3.8 11.65 3.8 12.05 3.7 12.4 3.55 12.65 3.4 12.75 3.1 M15.95 4.9 L14.65 4.55 14.6 4.6 12.0 4.65 11.95 4.7 10.85 4.9 10.8 4.95 10.45 5.25 10.45 5.3 10.2 5.8 10.25 5.6 10.45 5.25 10.45 5.15 10.95 4.8 12.1 4.6 14.8 4.5 15.95 4.9 M10.05 6.75 L10.85 5.95 10.75 5.95 10.7 5.85 12.65 6.3 10.9 8.15 11.0 8.2 11.1 8.3 11.15 8.4 10.9 8.15 10.85 8.15 12.55 6.3 10.9 5.95 10.15 6.75 10.05 6.75 M11.2 8.45 L11.55 8.3 11.55 8.25 11.5 8.15 11.8 8.55 11.6 8.35 11.25 8.5 11.2 8.45 M11.9 8.7 L12.5 8.35 12.45 8.25 12.85 8.55 13.0 8.7 12.95 8.7 12.55 8.4 11.95 8.75 11.9 8.7 M13.4 8.1 L13.85 8.3 14.05 8.45 13.6 8.25 13.25 8.8 13.1 8.85 13.55 8.25 13.45 8.2 13.4 8.1 M18.75 6.8 L18.15 6.0 18.1 6.0 17.3 5.4 16.25 5.0 17.25 5.3 17.3 5.4 18.15 5.95 18.75 6.7 18.75 6.8 M18.5 6.8 L17.35 6.75 16.8 7.7 16.75 7.65 17.3 6.75 17.35 6.75 18.35 6.75 18.5 6.8 M16.6 7.65 L15.9 7.45 15.4 8.15 15.3 8.2 15.85 7.45 15.75 7.4 15.7 7.35 16.55 7.55 16.6 7.6 16.6 7.65 M15.15 8.1 L14.7 7.9 14.35 8.5 14.25 8.55 14.6 7.9 14.5 7.8 14.4 7.7 15.1 8.05 15.2 8.1 15.15 8.1 M10.8 6.25 L9.85 7.3 9.85 7.25 10.0 7.1 10.0 7.0 10.85 6.1 10.8 6.25 M9.0 5.65 L7.95 5.35 7.95 5.3 8.0 5.3 9.1 5.55 9.05 5.5 7.95 5.25 7.85 5.2 7.6 5.15 7.5 5.05 9.0 5.4 9.0 5.35 9.5 6.15 9.65 6.4 9.1 5.6 9.0 5.65 M8.05 5.6 L8.1 5.65 9.4 7.9 9.35 7.9 8.0 9.3 8.8 9.65 8.85 9.75 7.85 9.35 9.3 7.8 9.1 7.5 8.05 5.6 M8.95 9.8 L9.9 8.85 9.8 8.6 9.95 8.85 9.05 9.8 8.95 9.8 M10.95 10.65 L12.0 11.05 12.1 11.2 10.9 10.65 10.95 10.65 M10.6 8.2 L12.35 6.4 10.9 6.05 10.95 6.0 12.45 6.35 10.7 8.15 10.65 8.2 10.6 8.2 M9.95 6.25 L10.0 6.2 10.0 6.55 9.95 6.6 9.95 6.25 M9.9 6.65 L9.9 6.7 10.0 7.0 9.85 6.7 9.9 6.65 M12.45 11.1 L12.5 11.05 12.5 11.15 12.45 11.1 M9.6 4.95 L9.55 4.8 9.5 4.8 9.1 4.35 9.05 4.4 8.15 3.85 8.1 3.9 6.5 3.15 6.4 3.25 5.8 3.25 5.3 3.35 5.3 3.4 4.95 3.65 4.95 3.7 4.85 3.8 5.25 4.05 5.25 4.1 4.8 3.85 4.95 3.55 5.05 3.45 5.45 3.2 6.5 3.15 6.6 3.15 8.15 3.85 8.1 3.75 9.1 4.35 9.2 4.4 9.5 4.75 9.55 4.8 9.65 4.95 9.6 4.95 M5.4 4.6 L5.5 4.6 5.45 4.75 5.85 4.85 5.85 4.8 5.9 4.95 5.5 4.85 5.45 4.75 5.4 4.6 M6.1 5.55 L6.45 5.55 6.45 5.45 6.65 6.05 6.45 5.65 6.15 5.65 6.1 5.55 M6.65 6.15 L7.05 6.2 7.05 6.1 7.3 6.75 7.3 6.8 7.1 6.25 6.7 6.25 6.65 6.2 6.65 6.15 M7.35 6.9 L7.7 6.8 7.65 6.7 7.65 6.6 8.05 7.2 8.1 7.35 7.75 6.85 7.4 6.95 7.35 6.9 M8.15 7.45 L8.4 7.25 8.3 7.2 8.3 7.1 8.6 7.45 8.65 7.55 8.9 7.45 9.05 7.5 8.8 7.6 8.7 7.6 8.65 7.55 8.45 7.3 8.25 7.45 8.15 7.45 M9.6 5.0 L9.65 5.0 9.75 5.35 9.9 5.85 9.85 5.8 9.75 5.35 9.6 5.0" fill="#000000" fill-rule="evenodd" stroke="none"/>
    <path d="M13.5 2.85 L13.55 3.25 13.4 3.6 13.25 3.6 12.95 3.9 12.8 3.85 12.75 3.9 12.6 3.65 12.85 3.45 12.55 3.65 12.8 3.45 12.9 3.25 12.8 2.9 12.55 2.65 12.75 2.5 11.7 1.85 11.85 1.9 11.9 1.9 12.45 2.15 12.55 2.15 13.0 2.5 13.1 2.5 13.35 2.85 13.5 2.85 M7.75 2.3 L7.7 2.5 7.75 2.5 7.8 2.7 7.7 2.7 7.85 2.9 7.8 2.9 7.7 2.95 7.55 2.75 7.5 2.7 7.45 2.5 7.5 2.3 7.75 2.3 M12.85 8.55 L13.3 7.9 13.4 8.1 13.0 8.7 12.9 8.55 13.25 8.1 12.85 8.55 M13.85 8.3 L14.3 7.45 13.05 6.15 12.9 4.85 12.55 4.85 14.55 4.75 14.55 4.7 15.0 4.8 15.1 4.8 15.85 5.0 16.2 5.15 17.0 5.4 17.05 5.4 18.0 6.0 18.05 6.0 18.6 6.8 18.5 6.8 18.35 6.75 18.05 6.6 16.95 6.55 17.1 6.75 16.6 7.6 16.55 7.55 16.4 7.4 15.55 7.15 15.7 7.35 15.2 8.1 15.1 8.05 15.05 7.85 14.3 7.55 14.4 7.7 14.5 7.8 14.15 8.5 14.05 8.45 13.95 8.25 14.2 7.7 13.85 8.3 M10.8 6.25 L11.9 6.55 11.8 6.55 10.8 6.25 M9.85 7.3 L9.8 7.45 9.75 7.35 8.85 5.85 9.0 5.65 9.1 5.6 10.0 7.1 9.85 7.25 9.85 7.3 M7.95 5.35 L7.95 5.5 8.05 5.6 9.1 7.5 9.05 7.5 8.9 7.45 8.75 7.45 8.65 7.4 7.4 5.1 7.4 5.0 7.5 5.05 7.6 5.15 7.85 5.2 7.9 5.3 7.95 5.3 7.95 5.35 M12.0 11.05 L11.85 10.95 10.2 8.15 10.5 8.2 10.6 8.2 10.65 8.2 12.5 11.3 12.4 11.3 12.1 11.2 12.0 11.05 M9.5 6.15 L9.45 6.0 9.4 5.7 9.1 5.0 8.8 4.65 8.85 4.55 9.0 4.4 9.35 4.9 9.45 4.85 9.65 5.3 9.9 6.25 9.85 6.25 9.85 6.7 9.7 6.55 9.65 6.4 9.5 6.15" fill="#ffcc00" fill-rule="evenodd" stroke="none"/>
  </g>
</svg>
