<?xml version="1.0" encoding="UTF-8" standalone="no"?>
<svg xmlns:ffdec="https://www.free-decompiler.com/flash" xmlns:xlink="http://www.w3.org/1999/xlink" ffdec:objectType="shape" height="3.15px" width="24.45px" xmlns="http://www.w3.org/2000/svg">
  <g transform="matrix(1.0, 0.0, 0.0, 1.0, 12.15, 1.5)">
    <path d="M-11.4 -0.6 L-12.15 -1.25 Q-1.7 -1.65 11.8 -1.4 12.8 0.1 11.8 1.55 L-6.6 1.6 -8.75 1.05 -11.4 -0.6" fill="url(#gradient0)" fill-rule="evenodd" stroke="none"/>
    <path d="M8.25 -0.9 L1.0 -1.0 M7.4 -0.25 L-4.35 -0.2 M3.9 0.85 Q-3.35 0.9 -9.25 0.55" fill="none" stroke="#f5eec1" stroke-linecap="round" stroke-linejoin="round" stroke-opacity="0.33333334" stroke-width="0.05"/>
    <path d="M-8.6 -1.35 Q0.55 -1.6 11.8 -1.4 12.8 0.1 11.8 1.55 L-6.6 1.6 -8.75 1.05 -11.4 -0.6 -12.15 -1.25 -8.6 -1.35 Z" fill="none" stroke="#000000" stroke-linecap="round" stroke-linejoin="round" stroke-opacity="0.6" stroke-width="0.05"/>
  </g>
  <defs>
    <linearGradient gradientTransform="matrix(0.0, 0.0019, -0.0019, 0.0, -10.7, 0.05)" gradientUnits="userSpaceOnUse" id="gradient0" spreadMethod="pad" x1="-819.2" x2="819.2">
      <stop offset="0.0" stop-color="#bda757"/>
      <stop offset="0.23921568627450981" stop-color="#ead27b"/>
      <stop offset="0.4392156862745098" stop-color="#e2cd67"/>
      <stop offset="0.8" stop-color="#c4a532"/>
      <stop offset="1.0" stop-color="#73621e"/>
    </linearGradient>
  </defs>
</svg>
