<?xml version="1.0" encoding="UTF-8" standalone="no"?>
<svg xmlns:ffdec="https://www.free-decompiler.com/flash" xmlns:xlink="http://www.w3.org/1999/xlink" ffdec:objectType="shape" height="10.35px" width="8.25px" xmlns="http://www.w3.org/2000/svg">
  <g transform="matrix(1.0, 0.0, 0.0, 1.0, -7.25, -1.3)">
    <path d="M11.6 2.6 L11.8 2.6 11.95 3.0 12.1 3.0 12.15 3.4 12.1 3.4 12.0 3.8 11.8 3.75 11.85 3.4 11.8 3.4 11.75 3.05 11.8 3.0 11.6 2.6 M9.6 6.15 L9.65 6.35 9.65 6.15 9.5 4.95 9.45 4.85 9.8 4.8 9.85 4.95 10.0 5.95 10.0 6.15 9.95 6.15 9.9 6.5 10.0 6.9 9.8 7.25 9.3 5.65 9.4 5.55 9.5 5.8 9.5 5.95 9.6 6.15 M10.3 8.25 L10.35 8.25 10.5 8.5 10.5 8.55 10.55 8.6 11.45 11.6 11.45 11.65 11.3 11.65 11.15 11.6 11.0 11.4 10.05 8.25 10.3 8.25 M15.3 7.65 L15.15 7.65 15.05 7.6 14.9 7.55 14.85 7.5 14.7 7.4 14.5 6.85 13.95 6.0 14.05 5.95 14.65 6.75 14.1 5.95 14.7 6.75 14.9 6.65 15.3 7.65 M8.95 2.6 L8.7 2.6 8.65 2.4 8.7 2.4 8.7 2.25 8.9 2.25 8.85 2.4 8.9 2.4 8.95 2.6 M8.6 4.9 L8.95 5.15 8.95 5.2 8.85 5.2 8.8 5.25 8.8 5.35 8.85 5.6 9.4 7.4 9.25 7.35 8.6 4.9" fill="#ffcc00" fill-rule="evenodd" stroke="none"/>
    <path d="M11.35 2.8 L11.45 2.6 11.2 2.25 10.9 1.95 10.4 1.6 10.6 1.7 10.65 1.65 11.0 1.9 11.15 1.9 11.5 2.25 11.65 2.2 11.95 2.6 12.15 3.0 12.2 3.4 12.15 3.6 12.15 3.8 12.05 3.8 11.85 4.1 11.7 4.05 11.65 4.05 11.35 4.25 11.25 4.25 11.2 4.2 11.45 4.0 11.4 4.0 11.6 3.75 11.35 3.8 11.5 3.6 11.45 3.6 11.5 3.45 11.55 3.4 11.45 2.95 11.4 2.9 11.3 2.8 11.35 2.8 M9.0 2.6 L8.95 2.6 9.05 2.8 9.0 2.8 9.15 3.0 9.0 3.0 9.2 3.25 9.1 3.25 9.3 3.45 9.25 3.45 8.85 3.1 8.55 2.5 8.6 2.2 8.7 2.05 8.95 2.05 8.9 2.2 8.95 2.2 8.95 2.5 9.0 2.6 M11.6 2.6 L11.8 3.0 11.75 3.05 11.8 3.4 11.85 3.4 11.8 3.75 12.0 3.8 12.1 3.4 12.15 3.4 12.1 3.0 11.95 3.0 11.8 2.6 11.6 2.6 M10.0 5.7 L10.0 5.95 9.85 4.95 9.8 4.8 9.45 4.85 9.5 4.95 9.65 6.15 9.65 6.35 9.6 6.15 9.5 5.8 9.35 4.95 9.2 4.55 9.25 4.55 8.8 3.95 8.8 3.9 8.2 3.35 8.2 3.25 8.0 3.1 8.05 3.05 8.55 3.5 8.55 3.55 8.9 3.8 9.0 3.75 9.5 4.35 9.65 4.35 9.85 4.75 9.9 4.85 9.9 4.95 9.95 5.0 10.0 5.65 10.0 5.7 M10.0 6.15 L10.15 5.8 10.25 5.95 10.45 6.0 10.35 6.15 11.15 6.65 11.25 6.6 11.1 6.95 10.3 8.25 10.05 8.25 11.0 11.4 10.95 11.35 10.8 11.15 9.95 8.15 10.0 8.2 10.75 6.7 10.25 6.4 10.3 6.25 10.0 6.85 10.0 6.9 9.9 6.5 9.95 6.15 10.0 6.15 M10.55 8.6 L10.6 8.65 11.5 11.55 11.45 11.6 10.55 8.6 M10.8 8.7 L11.15 8.4 11.15 8.45 11.25 8.55 10.85 8.85 10.8 8.7 M11.45 8.95 L11.45 8.8 11.65 8.25 11.7 8.45 11.75 8.5 12.05 8.75 11.8 9.2 11.75 9.2 11.6 9.15 11.45 8.95 M12.15 8.85 L12.0 8.55 11.7 8.2 12.2 7.9 12.25 7.9 11.5 6.4 11.45 5.05 12.15 5.1 11.45 5.0 12.4 5.05 12.6 4.85 13.0 5.1 13.05 5.1 13.4 5.3 13.5 5.25 14.25 5.85 14.4 5.85 14.45 5.9 15.0 6.65 15.1 6.7 15.45 7.55 15.4 7.65 15.3 7.65 14.9 6.65 14.7 6.75 14.1 5.95 14.65 6.75 14.05 5.95 13.95 6.0 14.5 6.85 14.7 7.4 13.9 7.2 14.1 7.4 14.2 7.45 14.45 7.5 14.1 8.4 13.9 8.4 13.8 8.35 13.65 8.25 13.6 8.1 13.6 8.05 13.0 7.75 13.1 7.9 13.45 8.15 13.2 8.8 13.05 8.8 12.95 8.75 12.9 8.75 12.75 8.6 12.7 8.4 12.2 7.9 12.35 8.2 12.7 8.55 12.55 9.05 12.4 9.05 12.25 9.0 12.15 8.85 M9.4 9.65 L9.3 9.65 9.25 9.55 9.6 8.95 9.6 8.9 9.75 8.6 9.85 8.95 9.4 9.65 M8.95 2.6 L8.9 2.4 8.85 2.4 8.9 2.25 8.7 2.25 8.7 2.4 8.65 2.4 8.7 2.6 8.95 2.6 M9.25 7.35 L9.15 7.25 8.45 4.75 8.6 4.9 9.25 7.35 M8.95 5.15 L9.0 5.15 8.95 5.2 8.95 5.15 M9.8 7.25 L9.75 7.5 9.25 5.8 9.25 5.7 9.3 5.65 9.8 7.25" fill="#7f6600" fill-rule="evenodd" stroke="none"/>
    <path d="M11.35 2.8 L11.3 2.75 10.95 2.35 10.5 2.05 9.95 1.8 9.6 1.75 9.2 1.9 9.0 2.2 8.95 2.5 8.95 2.2 8.9 2.2 8.95 2.05 8.7 2.05 8.6 2.2 8.55 2.5 8.85 3.1 9.25 3.45 9.3 3.45 9.1 3.25 9.2 3.25 9.0 3.0 9.15 3.0 9.0 2.8 9.05 2.8 8.95 2.6 9.0 2.6 9.3 3.15 9.65 3.45 10.2 3.75 10.6 3.9 11.05 3.85 11.3 3.7 11.4 3.55 11.45 3.25 11.45 3.0 11.4 2.9 11.45 2.95 11.55 3.4 11.5 3.45 11.45 3.6 11.5 3.6 11.35 3.8 11.6 3.75 11.4 4.0 11.45 4.0 11.2 4.2 11.25 4.25 11.35 4.25 11.65 4.05 11.7 4.05 11.85 4.1 12.05 3.8 12.15 3.8 11.95 4.05 11.7 4.25 10.8 4.4 10.3 4.3 9.5 3.95 9.2 3.75 8.95 3.5 8.75 3.2 8.5 2.65 8.45 2.35 8.5 2.0 8.55 1.85 8.9 1.5 9.25 1.35 9.7 1.3 10.6 1.45 11.0 1.65 11.75 2.25 12.0 2.6 12.15 2.95 12.25 3.35 12.15 3.6 12.2 3.4 12.15 3.0 11.95 2.6 11.65 2.2 11.5 2.25 11.15 1.9 11.0 1.9 10.65 1.65 10.6 1.7 10.4 1.6 10.9 1.95 11.2 2.25 11.45 2.6 11.35 2.8 M10.0 5.95 L10.0 5.7 10.1 5.25 10.4 4.9 11.15 4.7 11.8 4.8 12.85 4.8 13.4 5.1 13.45 5.15 13.6 5.2 14.4 5.85 14.25 5.85 13.5 5.25 13.4 5.3 13.05 5.1 13.0 5.1 12.6 4.85 12.4 5.05 11.45 5.0 12.15 5.1 11.45 5.05 11.5 6.4 12.25 7.9 12.2 7.9 11.7 8.2 12.0 8.55 12.15 8.85 12.1 8.85 12.0 9.1 11.8 9.2 12.05 8.75 11.75 8.5 11.7 8.45 11.65 8.25 11.45 8.8 11.45 8.95 11.35 8.8 11.2 8.95 11.0 8.95 10.85 8.85 11.25 8.55 11.15 8.45 11.15 8.4 10.8 8.7 10.8 8.6 10.65 8.65 11.5 11.35 11.5 11.55 10.6 8.65 10.55 8.6 10.5 8.55 10.5 8.5 10.35 8.25 10.3 8.25 11.1 6.95 11.25 6.6 11.15 6.65 10.35 6.15 10.45 6.0 10.25 5.95 10.15 5.8 10.0 6.15 10.0 5.95 M10.0 5.65 L9.95 5.0 10.0 5.5 10.0 5.65 M9.9 4.95 L9.9 4.85 9.95 4.95 9.9 4.95 M9.85 4.75 L9.65 4.35 9.5 4.35 9.0 3.75 8.9 3.8 8.55 3.55 8.55 3.5 8.05 3.05 8.0 3.1 8.2 3.25 8.2 3.35 8.8 3.9 8.8 3.95 9.25 4.55 9.2 4.55 9.35 4.95 9.5 5.8 9.6 6.15 9.5 5.95 9.5 5.8 9.4 5.55 9.3 5.65 9.25 5.7 9.25 5.8 9.75 7.5 9.8 7.25 10.0 6.9 10.0 6.85 10.3 6.25 10.25 6.4 10.75 6.7 10.0 8.2 9.95 8.15 10.8 11.15 10.95 11.35 10.8 11.25 10.3 10.75 9.9 9.15 9.65 9.55 9.6 9.65 9.45 9.7 9.4 9.65 9.85 8.95 9.75 8.6 9.6 8.9 9.6 8.95 9.25 9.55 8.8 9.1 9.5 7.8 9.4 7.5 9.25 7.5 9.2 7.45 9.1 7.25 9.05 7.3 8.9 7.2 8.85 7.15 8.7 6.7 8.6 6.7 8.45 6.6 8.35 6.0 8.2 6.0 8.1 5.9 8.05 5.35 7.95 5.35 7.85 5.25 7.75 4.65 7.55 4.5 7.45 3.8 7.25 3.55 7.3 3.35 7.55 3.05 7.9 2.95 8.35 3.0 9.2 3.8 9.75 4.45 9.85 4.75 M14.45 5.9 L14.5 5.95 15.15 6.75 15.5 7.55 15.45 7.55 15.1 6.7 15.0 6.65 14.45 5.9 M15.15 7.65 L15.1 7.65 15.05 7.6 15.0 7.6 14.5 7.5 14.25 8.25 14.1 8.4 14.45 7.5 14.2 7.45 14.1 7.4 13.9 7.2 14.7 7.4 14.85 7.5 14.9 7.55 15.05 7.6 15.15 7.65 M13.8 8.35 L13.55 8.2 13.35 8.7 13.3 8.7 13.2 8.8 13.45 8.15 13.1 7.9 13.0 7.75 13.6 8.05 13.6 8.1 13.65 8.25 13.8 8.35 M12.75 8.6 L12.7 8.9 12.55 9.05 12.7 8.55 12.35 8.2 12.2 7.9 12.7 8.4 12.75 8.6 M8.6 4.9 L8.45 4.75 9.15 7.25 9.25 7.35 9.4 7.4 8.85 5.6 8.8 5.35 8.8 5.25 8.85 5.2 8.95 5.2 9.0 5.15 8.95 5.15 8.6 4.9" fill="#000000" fill-rule="evenodd" stroke="none"/>
  </g>
</svg>
