<?xml version="1.0" encoding="UTF-8" standalone="no"?>
<svg xmlns:ffdec="https://www.free-decompiler.com/flash" xmlns:xlink="http://www.w3.org/1999/xlink" ffdec:objectType="shape" height="10.45px" width="4.6px" xmlns="http://www.w3.org/2000/svg">
  <g transform="matrix(1.0, 0.0, 0.0, 1.0, -8.5, -1.3)">
    <path d="M9.95 4.35 L9.95 4.4 10.0 4.8 9.7 4.8 9.65 4.85 9.75 6.35 9.7 6.25 9.8 7.15 9.75 7.35 9.5 5.7 9.55 5.6 9.65 6.15 9.55 4.9 9.55 4.85 9.5 4.5 9.55 4.4 9.35 3.85 9.5 3.7 9.8 4.35 9.95 4.35 M13.1 7.8 L12.95 7.95 12.7 6.85 12.35 6.95 12.25 7.0 12.4 7.8 12.15 7.45 12.1 7.15 12.1 7.1 11.8 6.25 11.85 6.2 11.5 5.6 11.65 5.45 11.8 5.35 12.25 6.0 12.45 6.0 12.85 6.9 12.9 6.95 13.1 7.8 M12.35 8.55 L12.25 8.6 12.05 8.65 12.0 8.6 11.9 8.55 11.8 8.9 11.65 9.0 11.6 8.95 11.55 9.0 11.5 8.95 11.45 9.15 11.35 9.2 11.15 9.2 11.1 9.15 11.05 9.25 10.95 9.3 10.85 9.3 10.75 9.25 10.6 9.1 10.75 8.5 10.9 8.9 11.0 8.2 11.25 8.7 11.4 7.95 11.7 8.35 11.85 7.4 11.95 7.6 12.4 7.8 12.5 7.8 12.35 8.55 M10.9 11.55 L10.85 11.7 10.4 8.95 10.5 9.0 10.9 11.55 M10.45 11.6 L10.4 11.55 10.3 11.35 9.85 8.2 9.95 8.25 10.35 6.7 10.5 6.7 10.05 8.25 10.0 8.25 10.45 11.6 M9.3 2.6 L9.55 2.6 9.55 2.4 9.5 2.4 9.5 2.2 9.35 2.2 9.3 2.4 9.3 2.6 M9.3 2.8 L9.25 2.45 9.25 2.2 9.3 2.05 9.55 2.05 9.55 2.2 9.6 2.2 9.6 2.3 9.6 2.7 9.65 2.8 9.6 2.8 9.65 3.0 9.4 3.0 9.3 2.8 M9.3 5.3 L9.3 5.4 9.55 7.35 9.45 7.25 9.1 4.8 9.2 4.9 9.25 5.35 9.3 5.3 M11.15 3.85 L11.05 4.15 10.75 4.1 10.7 4.1 10.8 3.8 10.8 3.05 10.55 2.3 10.6 2.25 10.45 1.95 10.55 1.95 10.75 2.25 11.0 2.25 11.1 2.65 11.15 2.6 11.3 3.25 11.25 3.85 11.15 3.85 11.2 3.45 11.2 3.05 11.05 3.05 10.95 2.65 11.0 3.1 10.9 3.05 10.95 3.45 10.9 3.85 11.15 3.85 M10.0 4.95 L10.05 4.9 10.05 4.95 10.0 5.1 10.0 4.95 M9.85 6.5 L10.0 5.9 10.2 6.15 10.1 6.15 10.05 6.2 10.0 6.3 9.95 6.7 9.85 6.6 9.85 6.5" fill="#7f6600" fill-rule="evenodd" stroke="none"/>
    <path d="M10.3 11.35 L10.0 10.7 9.9 9.6 9.75 9.65 9.7 9.65 9.55 9.55 9.5 9.5 9.3 9.0 9.65 7.75 9.6 7.45 9.5 7.4 9.45 7.35 9.4 7.25 9.4 7.2 9.35 7.15 9.3 7.05 9.2 6.65 9.1 6.5 9.1 6.4 9.05 5.95 8.95 5.9 8.9 5.75 8.9 5.3 8.8 5.2 8.8 5.15 8.75 4.5 8.65 4.4 8.6 3.7 8.5 3.5 8.5 3.35 8.65 3.05 8.9 2.9 8.95 2.9 9.25 3.0 9.15 2.35 9.2 2.0 9.2 1.85 9.35 1.55 9.45 1.4 9.55 1.35 9.85 1.3 10.2 1.35 10.45 1.5 10.7 1.7 11.0 2.1 11.2 2.6 11.25 2.9 11.3 3.0 11.3 3.25 11.35 3.4 11.3 3.7 11.25 3.85 11.2 4.0 11.0 4.3 10.7 4.4 10.35 4.45 10.05 4.3 9.9 4.15 9.9 4.25 9.95 4.35 9.8 4.35 9.5 3.7 9.35 3.85 9.55 4.4 9.5 4.5 9.55 4.85 9.55 4.9 9.65 6.15 9.55 5.6 9.5 5.7 9.75 7.35 9.8 7.15 9.95 6.7 10.0 6.3 10.05 6.2 10.1 6.15 10.2 6.15 10.0 5.9 9.85 6.5 9.8 6.35 9.95 5.25 10.0 5.1 10.05 4.95 10.05 4.9 10.0 4.95 10.0 4.8 9.95 4.4 10.0 4.5 10.05 4.9 10.6 4.75 10.9 4.85 11.5 4.9 11.6 4.9 11.7 5.0 12.6 6.15 12.95 7.05 13.1 7.6 13.1 7.8 12.9 6.95 12.85 6.9 12.45 6.0 12.25 6.0 11.8 5.35 11.65 5.45 11.5 5.6 11.85 6.2 11.8 6.25 12.1 7.1 12.1 7.15 12.15 7.45 12.4 7.8 11.95 7.6 11.85 7.4 11.7 8.35 11.4 7.95 11.25 8.7 11.0 8.2 10.9 8.9 10.75 8.5 10.6 9.1 10.6 9.0 10.55 9.0 10.9 11.25 10.9 11.55 10.5 9.0 10.4 8.95 10.25 8.8 10.25 8.65 10.15 8.6 10.05 8.5 10.05 8.25 10.5 6.7 10.35 6.7 9.95 8.25 9.85 8.2 10.3 11.35 M12.55 7.85 L12.45 8.35 12.35 8.55 12.5 7.8 12.55 7.85 M12.0 8.6 L11.95 8.7 11.85 8.85 11.8 8.9 11.9 8.55 12.0 8.6 M11.55 9.0 L11.55 9.05 11.45 9.15 11.5 8.95 11.55 9.0 M11.15 9.2 L11.1 9.25 11.05 9.25 11.1 9.15 11.15 9.2 M9.85 1.8 L9.75 1.85 9.6 2.3 9.65 2.65 9.85 3.25 10.0 3.55 10.45 3.9 10.6 3.75 10.7 3.5 10.55 2.6 10.35 2.25 10.1 1.95 9.9 1.8 9.85 1.8 M9.3 2.8 L9.4 3.0 9.65 3.0 9.6 2.8 9.65 2.8 9.6 2.7 9.6 2.3 9.6 2.2 9.55 2.2 9.55 2.05 9.3 2.05 9.25 2.2 9.25 2.45 9.3 2.8 M9.2 4.9 L9.1 4.8 9.45 7.25 9.55 7.35 9.3 5.4 9.3 5.3 9.35 5.2 9.4 5.15 9.2 4.9 M11.15 3.85 L11.25 3.85 11.3 3.25 11.15 2.6 11.1 2.65 11.0 2.25 10.75 2.25 10.55 1.95 10.45 1.95 10.6 2.25 10.55 2.3 10.8 3.05 10.8 3.8 10.7 4.1 10.75 4.1 11.05 4.15 11.15 3.85" fill="#000000" fill-rule="evenodd" stroke="none"/>
    <path d="M12.95 7.95 L12.7 7.9 12.55 7.85 12.5 7.8 12.4 7.8 12.25 7.0 12.35 6.95 12.7 6.85 12.95 7.95 M10.85 11.7 L10.8 11.75 10.65 11.75 10.55 11.7 10.45 11.6 10.0 8.25 10.05 8.25 10.05 8.5 10.15 8.6 10.25 8.65 10.25 8.8 10.4 8.95 10.85 11.7 M9.3 2.6 L9.3 2.4 9.35 2.2 9.5 2.2 9.5 2.4 9.55 2.4 9.55 2.6 9.3 2.6 M9.8 7.15 L9.7 6.25 9.75 6.35 9.65 4.85 9.7 4.8 10.0 4.8 10.0 4.95 10.0 5.1 9.95 5.25 9.8 6.35 9.85 6.5 9.85 6.6 9.95 6.7 9.8 7.15 M9.3 5.3 L9.25 5.35 9.2 4.9 9.4 5.15 9.35 5.2 9.3 5.3 M11.15 3.85 L10.9 3.85 10.95 3.45 10.9 3.05 11.0 3.1 10.95 2.65 11.05 3.05 11.2 3.05 11.2 3.45 11.15 3.85" fill="#ffcc00" fill-rule="evenodd" stroke="none"/>
  </g>
</svg>
