<?xml version="1.0" encoding="UTF-8" standalone="no"?>
<svg xmlns:ffdec="https://www.free-decompiler.com/flash" xmlns:xlink="http://www.w3.org/1999/xlink" ffdec:objectType="shape" height="10.5px" width="0.9px" xmlns="http://www.w3.org/2000/svg">
  <g transform="matrix(1.0, 0.0, 0.0, 1.0, -9.65, -1.3)">
    <path d="M10.5 7.7 L10.5 7.8 10.45 7.8 10.4 7.9 10.4 8.55 10.3 8.6 10.3 9.1 10.25 9.15 10.25 9.2 10.2 9.25 10.25 9.25 10.3 11.2 10.3 11.55 10.2 11.65 10.2 9.3 10.1 9.35 9.95 9.35 9.85 9.25 9.85 11.65 9.8 11.65 9.8 11.6 9.75 11.4 9.75 11.35 9.75 9.15 9.8 9.25 9.8 9.15 9.75 9.05 9.75 8.85 9.8 8.9 9.8 8.6 9.75 8.55 9.75 6.2 9.85 6.1 9.95 6.05 10.2 6.05 10.25 6.1 10.3 6.1 10.35 6.15 10.4 6.15 10.5 7.7 M10.35 2.65 L10.35 3.45 10.25 4.1 10.2 4.15 10.0 4.15 10.0 3.85 9.95 3.85 9.95 3.45 9.9 3.45 9.9 2.65 9.95 2.65 9.95 2.25 10.3 2.25 10.3 2.65 10.35 2.65 M10.0 3.05 L10.0 3.85 10.2 3.85 10.2 3.5 10.25 3.5 10.25 3.05 10.0 3.05 M10.2 4.4 L10.2 4.85 10.15 4.8 9.85 4.8 9.8 4.9 9.75 4.95 9.75 4.85 9.8 4.9 9.8 4.4 9.9 4.35 9.9 4.4 10.0 4.4 10.0 4.45 10.15 4.45 10.2 4.4 M9.9 7.0 L9.9 7.95 9.95 8.0 10.0 8.0 10.15 8.05 10.25 8.0 10.3 7.95 10.3 7.0 10.25 7.0 10.25 6.95 10.0 6.95 9.95 7.0 9.9 7.0" fill="#7f6600" fill-rule="evenodd" stroke="none"/>
    <path d="M10.2 11.65 L10.15 11.75 10.05 11.8 9.95 11.8 9.85 11.65 9.85 9.25 9.95 9.35 10.1 9.35 10.2 9.3 10.2 11.65 M10.0 3.05 L10.25 3.05 10.25 3.5 10.2 3.5 10.2 3.85 10.0 3.85 10.0 3.05 M9.9 7.0 L9.95 7.0 10.0 6.95 10.25 6.95 10.25 7.0 10.3 7.0 10.3 7.95 10.25 8.0 10.15 8.05 10.0 8.0 9.95 8.0 9.9 7.95 9.9 7.0" fill="#ffcc00" fill-rule="evenodd" stroke="none"/>
    <path d="M9.75 11.35 L9.7 11.1 9.7 8.45 9.65 8.2 9.65 5.4 9.7 5.2 9.75 3.05 9.85 2.95 9.85 1.35 9.9 1.35 9.95 1.3 10.25 1.3 10.3 1.4 10.35 1.6 10.4 4.1 10.35 4.35 10.3 4.4 10.25 4.4 10.25 4.9 10.3 4.95 10.3 5.0 10.4 5.1 10.55 7.5 10.5 7.6 10.5 7.7 10.4 6.15 10.35 6.15 10.3 6.1 10.25 6.1 10.2 6.05 9.95 6.05 9.85 6.1 9.75 6.2 9.75 8.55 9.8 8.6 9.8 8.9 9.75 8.85 9.75 9.05 9.8 9.15 9.8 9.25 9.75 9.15 9.75 11.35 M10.5 7.8 L10.5 8.2 10.45 8.5 10.45 8.65 10.4 8.75 10.4 8.9 10.35 9.0 10.35 9.1 10.3 9.1 10.3 11.2 10.25 9.25 10.2 9.25 10.25 9.2 10.25 9.15 10.3 9.1 10.3 8.6 10.4 8.55 10.4 7.9 10.45 7.8 10.5 7.8 M10.35 2.65 L10.3 2.65 10.3 2.25 9.95 2.25 9.95 2.65 9.9 2.65 9.9 3.45 9.95 3.45 9.95 3.85 10.0 3.85 10.0 4.15 10.2 4.15 10.25 4.1 10.35 3.45 10.35 2.65 M10.2 4.4 L10.15 4.45 10.0 4.45 10.0 4.4 9.9 4.4 9.9 4.35 9.8 4.4 9.8 4.9 9.75 4.85 9.75 4.95 9.8 4.9 9.85 4.8 10.15 4.8 10.2 4.85 10.2 4.4" fill="#000000" fill-rule="evenodd" stroke="none"/>
  </g>
</svg>
