<?xml version="1.0" encoding="UTF-8" standalone="no"?>
<svg xmlns:ffdec="https://www.free-decompiler.com/flash" xmlns:xlink="http://www.w3.org/1999/xlink" ffdec:objectType="shape" height="10.4px" width="7.95px" xmlns="http://www.w3.org/2000/svg">
  <g transform="matrix(1.0, 0.0, 0.0, 1.0, -4.7, -1.3)">
    <path d="M8.1 3.8 L8.05 3.45 8.05 3.4 8.1 2.95 8.2 2.8 8.25 2.6 8.3 2.65 8.6 2.25 8.75 2.25 9.1 1.9 9.2 1.95 9.55 1.7 9.65 1.7 9.3 1.95 9.0 2.25 8.75 2.65 8.6 3.0 8.55 3.4 8.6 3.75 8.75 4.0 9.05 4.2 8.9 4.3 8.7 4.15 8.65 4.05 8.6 4.05 8.45 4.1 8.35 4.1 8.2 3.8 8.1 3.8 M10.05 5.0 L10.1 4.85 10.15 4.8 10.35 4.35 10.5 4.35 10.95 3.75 11.05 3.85 11.25 3.7 10.9 4.05 11.2 3.8 11.35 3.6 11.35 3.7 11.15 3.9 11.2 3.95 10.75 4.55 10.6 5.0 10.5 5.75 10.4 6.1 10.3 6.35 10.45 5.15 10.55 4.9 10.5 4.85 10.3 4.8 10.2 4.8 10.1 5.15 10.05 6.0 10.0 5.55 10.05 5.15 10.05 5.0 M10.65 5.65 L10.75 5.75 10.25 7.4 10.2 7.25 10.65 5.65 M10.0 6.85 L9.8 6.4 9.75 6.35 9.75 6.4 9.3 6.75 10.05 8.2 9.95 8.75 9.25 11.15 9.1 11.4 9.05 11.45 9.95 8.25 9.65 8.25 8.8 6.6 8.9 6.65 9.65 6.2 9.55 6.0 9.8 5.9 9.85 5.75 10.05 6.15 10.1 6.45 10.0 6.85 M10.6 9.65 L10.35 9.2 10.3 9.25 10.15 8.95 10.25 8.6 10.75 9.55 10.65 9.65 10.6 9.65 M11.1 2.2 L11.15 2.2 11.1 2.05 11.2 2.1 11.3 2.05 11.4 2.05 11.45 2.2 11.5 2.2 11.5 2.3 11.45 2.65 11.35 2.95 11.15 3.2 10.85 3.45 10.8 3.45 11.05 3.25 10.9 3.25 11.1 3.05 10.95 3.05 11.1 2.8 11.05 2.85 11.1 2.6 11.15 2.5 11.15 2.3 11.1 2.2 M11.15 2.5 L11.15 2.6 11.4 2.6 11.45 2.4 11.4 2.4 11.4 2.2 11.25 2.25 11.2 2.2 11.25 2.4 11.2 2.4 11.15 2.5 M11.8 3.1 L11.75 3.2 11.45 3.55 11.8 3.1 M10.7 7.4 L11.35 4.95 11.5 4.75 10.85 7.25 10.7 7.4 M8.2 3.8 L8.45 3.8 8.4 3.45 8.45 3.4 8.5 3.05 8.45 3.05 8.6 2.65 8.45 2.6 8.25 3.05 8.15 3.0 8.1 3.4 8.15 3.75 8.2 3.8 M5.75 5.85 L5.9 5.9 6.6 5.3 6.65 5.3 6.75 5.35 6.75 5.3 7.5 4.85 7.6 4.95 7.7 5.1 8.85 5.1 8.0 5.15 8.65 5.15 8.0 5.2 8.6 5.25 7.7 5.3 7.85 7.95 7.8 8.0 8.05 8.7 7.95 8.85 7.9 8.95 7.85 9.0 7.7 9.05 7.6 9.1 7.5 9.05 7.35 8.55 7.8 8.1 7.8 8.0 7.4 8.4 7.35 8.55 7.3 8.6 7.25 8.7 7.15 8.8 6.9 8.85 6.65 8.15 6.95 7.95 7.0 7.95 7.1 7.65 6.6 8.0 6.55 8.15 6.45 8.3 6.25 8.4 6.0 8.4 5.7 7.55 6.0 7.45 6.15 7.35 6.2 7.25 5.55 7.35 5.45 7.4 5.7 6.9 5.6 6.85 6.2 6.0 6.1 6.0 5.45 6.75 5.25 6.65 4.85 7.7 4.7 7.65 4.7 7.6 5.05 6.7 5.15 6.65 5.75 5.85 M8.2 9.2 L8.05 8.8 8.35 8.45 8.4 8.3 8.65 8.85 8.6 9.0 8.5 9.1 8.45 9.2 8.3 9.25 8.2 9.2 M9.2 8.8 L8.85 8.55 8.85 8.5 8.9 8.45 9.2 8.75 8.85 8.5 9.2 8.8 M9.4 8.65 L9.45 8.65 9.5 8.6 8.6 11.6 8.55 11.6 8.55 11.5 8.55 11.35 8.7 10.95 9.4 8.65" fill="#7f6600" fill-rule="evenodd" stroke="none"/>
    <path d="M8.1 3.8 L8.05 3.8 8.0 3.35 8.05 3.0 8.2 2.6 8.45 2.25 8.8 1.9 9.15 1.65 10.05 1.3 10.35 1.3 10.85 1.35 11.2 1.5 11.45 1.7 11.65 2.3 11.6 2.65 11.5 2.95 11.35 3.25 11.6 3.0 11.95 2.95 12.35 3.05 12.6 3.35 12.65 3.55 12.45 3.8 12.35 4.5 12.2 4.6 12.05 5.25 12.0 5.35 11.9 5.35 11.8 5.95 11.6 6.0 11.5 6.5 11.5 6.55 11.4 6.7 11.25 6.7 11.1 7.1 11.05 7.2 11.0 7.25 10.9 7.3 10.9 7.25 10.8 7.45 10.65 7.5 10.55 7.45 10.45 7.75 11.2 9.1 10.75 9.55 10.25 8.6 10.15 8.95 10.3 9.25 10.35 9.2 10.6 9.65 10.4 9.65 10.35 9.55 10.1 9.15 9.7 10.75 9.1 11.4 9.25 11.15 9.95 8.75 10.05 8.2 9.3 6.75 9.75 6.4 9.75 6.35 9.8 6.4 10.0 6.85 10.2 7.25 10.25 7.4 10.75 5.75 10.65 5.65 10.6 5.6 10.4 6.1 10.5 5.75 10.6 5.0 10.75 4.55 11.2 3.95 11.15 3.9 11.35 3.7 11.35 3.6 11.2 3.8 10.9 4.05 11.25 3.7 11.05 3.85 10.95 3.75 10.5 4.35 10.35 4.35 10.15 4.8 10.1 4.85 10.05 5.0 10.0 4.95 10.25 4.45 10.6 4.0 10.4 4.15 9.9 4.35 8.95 4.4 8.55 4.25 8.35 4.1 8.45 4.1 8.6 4.05 8.65 4.05 8.7 4.15 8.9 4.3 9.05 4.2 8.75 4.0 8.6 3.75 8.55 3.4 8.6 3.0 8.75 2.65 9.0 2.25 9.3 1.95 9.65 1.7 9.55 1.7 9.2 1.95 9.1 1.9 8.75 2.25 8.6 2.25 8.3 2.65 8.25 2.6 8.2 2.8 8.1 2.95 8.05 3.4 8.05 3.45 8.1 3.8 8.2 3.8 8.35 4.1 8.2 4.0 8.1 3.8 M11.1 2.2 L11.0 1.95 10.65 1.8 10.3 1.8 9.95 1.9 9.4 2.25 9.1 2.55 8.95 2.75 8.8 3.05 8.75 3.3 8.8 3.55 8.95 3.75 9.1 3.85 9.25 3.9 9.45 3.9 9.8 3.85 10.45 3.45 10.8 3.15 10.95 2.95 11.1 2.6 11.05 2.85 11.1 2.8 10.95 3.05 11.1 3.05 10.9 3.25 11.05 3.25 10.8 3.45 10.85 3.45 11.15 3.2 11.35 2.95 11.45 2.65 11.5 2.3 11.5 2.2 11.45 2.2 11.4 2.05 11.3 2.05 11.2 2.1 11.1 2.05 11.15 2.2 11.1 2.2 11.15 2.3 11.15 2.5 11.1 2.2 M11.8 3.1 L11.45 3.55 11.75 3.2 11.8 3.1 M11.35 4.95 L11.0 5.15 11.05 5.15 11.15 5.25 11.15 5.4 10.6 7.4 10.7 7.4 10.85 7.25 11.5 4.75 11.35 4.95 M10.05 6.0 L10.05 6.15 9.85 5.75 9.8 5.9 9.55 6.0 9.65 6.2 8.9 6.65 8.8 6.6 9.65 8.25 9.5 8.6 9.45 8.65 9.4 8.65 9.25 8.6 9.2 8.75 8.9 8.45 8.85 8.5 8.85 8.55 9.2 8.8 9.15 8.9 9.0 8.95 8.8 8.9 8.7 8.8 8.6 9.0 8.65 8.85 8.4 8.3 8.35 8.45 8.05 8.8 8.2 9.2 8.05 9.05 7.95 8.85 8.05 8.7 7.8 8.0 7.85 7.95 7.7 5.3 8.6 5.25 8.0 5.2 8.65 5.15 8.0 5.15 8.85 5.1 7.7 5.1 7.6 4.95 7.5 4.85 6.75 5.3 6.75 5.35 6.65 5.3 6.6 5.3 5.9 5.9 5.75 5.85 7.25 4.8 8.85 4.75 9.6 4.9 9.9 5.25 10.0 5.55 10.0 5.15 10.05 5.15 10.0 5.55 10.05 6.0 M4.7 7.6 L4.7 7.45 5.0 6.75 5.6 5.95 5.75 5.85 5.15 6.65 5.05 6.7 4.7 7.6 M7.8 8.0 L7.8 8.1 7.35 8.55 7.5 9.05 7.45 9.0 7.3 8.65 7.25 8.7 7.3 8.6 7.35 8.55 7.4 8.4 7.8 8.0 M9.2 8.75 L9.2 8.8 8.85 8.5 9.2 8.75 M5.0 7.65 L5.35 7.5 5.45 7.4 5.55 7.35 6.2 7.25 6.15 7.35 6.0 7.45 5.7 7.55 6.0 8.4 5.85 8.25 5.6 7.55 5.0 7.65 M6.45 8.3 L6.55 8.15 6.6 8.0 7.1 7.65 7.0 7.95 6.95 7.95 6.65 8.15 6.9 8.85 6.8 8.7 6.75 8.7 6.55 8.2 6.45 8.3 M8.55 11.35 L8.65 10.85 8.7 10.95 8.55 11.35 8.55 11.5 8.5 11.45 8.55 11.35" fill="#000000" fill-rule="evenodd" stroke="none"/>
    <path d="M10.4 6.1 L10.6 5.6 10.65 5.65 10.2 7.25 10.0 6.85 10.1 6.45 10.05 6.15 10.05 6.0 10.1 5.15 10.2 4.8 10.3 4.8 10.5 4.85 10.55 4.9 10.45 5.15 10.3 6.35 10.4 6.1 M11.15 2.5 L11.2 2.4 11.25 2.4 11.2 2.2 11.25 2.25 11.4 2.2 11.4 2.4 11.45 2.4 11.4 2.6 11.15 2.6 11.15 2.5 M10.7 7.4 L10.6 7.4 11.15 5.4 11.15 5.25 11.05 5.15 11.0 5.15 11.35 4.95 10.7 7.4 M8.2 3.8 L8.15 3.75 8.1 3.4 8.15 3.0 8.25 3.05 8.45 2.6 8.6 2.65 8.45 3.05 8.5 3.05 8.45 3.4 8.4 3.45 8.45 3.8 8.2 3.8 M9.5 8.6 L9.65 8.25 9.95 8.25 9.05 11.45 8.9 11.6 8.65 11.7 8.6 11.6 9.5 8.6 M4.85 7.7 L5.25 6.65 5.45 6.75 6.1 6.0 6.2 6.0 5.6 6.85 5.7 6.9 5.45 7.4 5.35 7.5 5.0 7.65 4.85 7.7" fill="#ffcc00" fill-rule="evenodd" stroke="none"/>
  </g>
</svg>
