<?xml version="1.0" encoding="UTF-8" standalone="no"?>
<svg xmlns:ffdec="https://www.free-decompiler.com/flash" xmlns:xlink="http://www.w3.org/1999/xlink" ffdec:objectType="shape" height="10.2px" width="11.2px" xmlns="http://www.w3.org/2000/svg">
  <g transform="matrix(1.0, 0.0, 0.0, 1.0, -2.7, -1.3)">
    <path d="M11.85 2.45 L11.8 2.25 12.0 2.25 12.05 2.45 12.0 2.65 11.95 2.65 11.8 2.9 11.75 2.85 11.9 2.65 11.75 2.65 11.8 2.45 11.85 2.45 M2.85 7.3 L3.4 6.4 3.5 6.45 4.35 5.7 4.45 5.8 5.45 5.3 5.45 5.35 4.55 5.85 5.5 5.4 4.55 5.95 4.55 6.0 3.8 6.65 3.85 6.7 3.7 6.95 3.3 7.2 3.05 7.3 2.85 7.3 M4.35 7.1 L4.5 6.9 4.9 7.85 4.8 7.95 4.75 8.05 4.7 8.05 4.25 7.2 4.35 7.1 M5.55 7.65 L5.6 7.65 5.95 8.35 5.6 7.7 5.95 8.45 5.55 7.7 5.5 7.7 5.55 7.65 M6.6 7.95 L6.9 8.65 6.9 8.7 6.8 8.8 6.5 8.1 6.6 7.95 M10.05 6.65 L10.05 6.45 10.05 6.25 10.2 5.35 10.25 5.35 10.4 4.8 10.55 4.8 10.8 4.4 10.9 4.5 10.75 4.75 10.55 5.45 10.6 5.45 10.45 6.2 10.75 5.6 10.8 5.6 10.95 5.75 10.2 7.35 10.0 7.0 10.1 6.8 10.1 6.7 10.2 6.65 10.05 6.65 M12.0 4.95 L11.0 7.35 10.95 7.4 10.85 7.45 10.75 7.45 11.55 5.55 11.65 5.3 11.6 5.35 11.6 5.3 11.6 5.25 11.55 5.25 11.6 5.15 11.7 5.1 11.85 5.05 12.0 4.95 M7.7 2.55 L7.95 2.6 7.7 3.0 7.65 3.35 7.75 3.7 7.55 3.75 7.4 3.75 7.3 3.35 7.35 2.95 7.45 2.95 7.7 2.55 M9.55 8.25 L9.75 8.25 9.9 8.2 8.65 11.1 8.6 11.2 8.3 11.45 8.1 11.5 8.0 11.5 9.5 8.25 9.55 8.25" fill="#ffcc00" fill-rule="evenodd" stroke="none"/>
    <path d="M11.85 3.3 L11.2 3.8 10.25 4.2 9.95 4.25 9.3 4.3 9.25 4.35 8.75 4.3 8.7 4.3 8.3 4.2 8.2 4.25 7.8 4.0 7.6 4.05 7.4 3.75 7.35 3.75 7.25 3.5 7.2 3.35 7.2 3.3 7.25 3.05 7.55 2.55 7.55 2.6 7.95 2.2 8.0 2.2 8.55 1.9 8.65 1.9 9.15 1.65 9.2 1.65 10.25 1.4 10.8 1.4 11.6 1.55 11.8 1.65 12.15 1.95 12.25 2.35 12.2 2.7 12.05 3.0 11.85 3.3 M11.7 2.25 L11.8 2.25 11.65 2.15 11.65 2.1 11.8 2.1 11.6 1.95 11.7 1.95 11.45 1.85 11.45 1.8 10.9 1.7 10.3 1.75 9.85 1.85 9.1 2.1 8.8 2.25 8.6 2.45 8.25 2.7 8.05 3.0 8.0 3.35 8.1 3.6 8.25 3.75 8.55 3.85 8.6 3.85 9.0 3.95 9.55 3.95 10.25 3.8 11.05 3.5 11.0 3.45 11.35 3.3 11.3 3.25 Q11.45 3.2 11.55 3.1 L11.45 3.05 11.65 2.85 11.6 2.85 11.7 2.65 11.7 2.6 11.75 2.5 11.75 2.35 11.7 2.25 M11.85 2.45 L11.8 2.45 11.75 2.65 11.9 2.65 11.75 2.85 11.8 2.9 11.95 2.65 12.0 2.65 12.05 2.45 12.0 2.25 11.8 2.25 11.85 2.45 M10.1 5.6 L10.1 5.35 10.15 5.35 10.3 4.8 10.35 4.8 10.6 4.35 10.7 4.35 11.4 3.8 11.45 3.85 12.5 3.25 12.5 3.15 12.6 3.1 12.65 3.05 12.7 3.1 12.75 3.15 12.8 3.25 13.2 3.25 12.8 3.35 12.7 5.25 12.6 5.9 12.3 5.95 12.25 6.1 12.2 6.1 12.1 6.65 11.85 6.6 11.85 6.45 11.55 7.05 11.55 7.15 11.5 7.25 11.4 7.3 11.3 7.2 11.4 6.9 11.15 7.3 11.15 7.35 11.1 7.45 10.95 7.4 11.0 7.35 12.0 4.95 12.1 4.8 10.8 5.3 10.45 6.2 10.6 5.45 10.55 5.45 10.75 4.75 10.9 4.5 10.8 4.4 10.55 4.8 10.4 4.8 10.25 5.35 10.2 5.35 10.05 6.25 10.05 6.45 10.05 6.65 10.0 6.6 10.0 6.75 9.35 6.0 9.55 5.95 9.6 5.85 9.6 5.8 8.0 6.35 9.6 5.85 7.95 6.4 9.3 8.25 9.2 8.45 9.15 8.5 8.85 8.4 8.9 8.3 8.9 8.2 8.7 8.6 8.7 8.7 8.6 8.8 8.1 8.5 8.15 8.45 8.25 8.3 7.8 8.75 7.8 8.85 7.7 8.95 7.65 9.05 7.5 9.1 7.55 9.05 7.5 9.05 7.2 8.5 7.4 8.4 7.45 8.25 6.9 8.6 6.9 8.65 6.6 7.95 6.65 7.9 6.45 8.0 6.05 8.3 6.0 8.45 5.95 8.45 5.6 7.7 5.95 8.35 5.6 7.65 5.55 7.65 5.5 7.65 5.5 7.7 4.8 7.95 4.9 7.85 4.5 6.9 4.35 7.1 3.3 7.2 3.7 6.95 3.85 6.7 3.8 6.65 4.55 6.0 4.55 5.95 5.5 5.4 4.55 5.85 5.45 5.35 5.45 5.3 4.45 5.8 4.35 5.7 3.5 6.45 3.4 6.4 2.85 7.3 2.7 7.25 3.25 6.35 3.3 6.35 4.15 5.65 4.25 5.65 4.95 5.25 5.25 5.15 4.95 5.25 5.2 5.1 5.25 5.15 6.3 4.7 6.4 4.75 6.45 4.8 6.55 4.75 6.65 4.75 6.7 4.8 8.55 4.75 8.55 4.8 9.45 4.95 9.45 5.0 9.45 5.1 9.75 5.35 10.0 6.25 10.0 6.15 10.1 5.6 M10.05 6.45 L10.0 6.35 10.0 6.55 10.05 6.45 M10.8 5.6 L11.0 5.55 11.6 5.3 11.6 5.35 11.65 5.3 11.55 5.55 11.45 5.7 10.5 7.85 11.5 9.2 11.05 9.5 11.0 9.65 10.8 9.75 10.15 8.85 10.2 8.65 10.2 8.55 10.05 9.0 9.75 9.9 9.4 10.6 9.4 10.65 8.65 11.1 9.9 8.2 9.75 8.25 9.55 8.25 8.15 6.55 9.35 6.1 9.4 6.2 9.45 6.2 9.45 6.25 9.45 6.4 10.25 7.45 10.2 7.35 10.95 5.75 10.8 5.6 M11.55 5.25 L11.45 5.25 11.45 5.2 11.6 5.15 11.55 5.25 M7.7 2.55 L7.45 2.95 7.35 2.95 7.3 3.35 7.4 3.75 7.55 3.75 7.75 3.7 7.65 3.35 7.7 3.0 7.95 2.6 7.7 2.55 M10.0 7.0 L10.0 6.8 10.05 6.65 10.2 6.65 10.1 6.7 10.1 6.8 10.0 7.0 M9.5 8.25 L8.0 11.5 7.95 11.4 8.0 11.3 8.45 10.35 8.85 9.4 9.35 8.25 9.4 8.2 9.4 8.15 9.5 8.25 M5.55 7.7 L5.95 8.45 5.8 8.55 5.7 8.55 5.3 7.85 5.45 7.75 5.55 7.7 M4.7 8.05 L4.6 8.1 4.45 8.1 4.0 7.2 4.25 7.2 4.7 8.05 M6.55 8.85 L6.3 8.25 6.5 8.1 6.45 8.0 6.6 7.95 6.5 8.1 6.8 8.8 6.7 8.85 6.55 8.85" fill="#7f6600" fill-rule="evenodd" stroke="none"/>
    <path d="M7.25 3.05 L7.25 2.95 7.5 2.55 7.85 2.2 8.3 1.9 9.45 1.45 10.0 1.35 10.75 1.3 11.3 1.4 11.6 1.5 12.1 1.8 12.15 1.95 12.3 2.15 12.3 2.55 12.05 3.0 12.0 3.1 11.85 3.3 12.05 3.0 12.2 2.7 12.25 2.35 12.15 1.95 11.8 1.65 11.6 1.55 10.8 1.4 10.25 1.4 9.2 1.65 9.15 1.65 8.65 1.9 8.55 1.9 8.0 2.2 7.95 2.2 7.55 2.6 7.55 2.55 7.25 3.05 M9.95 4.25 L9.6 4.35 9.05 4.4 8.45 4.35 7.95 4.2 7.6 4.05 7.35 3.75 7.3 3.7 7.25 3.55 7.25 3.5 7.35 3.75 7.4 3.75 7.6 4.05 7.8 4.0 8.2 4.25 8.3 4.2 8.7 4.3 8.75 4.3 9.25 4.35 9.3 4.3 9.95 4.25 M7.2 3.35 L7.15 3.3 7.2 3.3 7.2 3.35 M9.1 2.1 L9.85 1.85 10.3 1.75 10.9 1.7 11.45 1.8 11.45 1.85 11.7 1.95 11.6 1.95 11.8 2.1 11.65 2.1 11.65 2.15 11.8 2.25 11.7 2.25 11.55 2.05 11.4 1.95 11.05 1.8 10.15 1.8 9.1 2.1 8.6 2.45 8.35 2.65 8.1 3.0 8.05 3.25 8.1 3.5 8.55 3.8 9.0 3.9 9.6 3.85 10.0 3.75 10.95 3.35 11.5 2.95 11.7 2.6 11.7 2.65 11.6 2.85 11.65 2.85 11.45 3.05 11.55 3.1 Q11.45 3.2 11.3 3.25 L11.35 3.3 11.0 3.45 11.05 3.5 10.25 3.8 9.55 3.95 9.0 3.95 8.6 3.85 8.55 3.85 8.25 3.75 8.1 3.6 8.0 3.35 8.05 3.0 8.25 2.7 8.6 2.45 8.8 2.25 9.1 2.1 M11.7 2.25 L11.75 2.35 11.75 2.5 11.7 2.25 M12.6 3.1 L12.5 3.15 12.5 3.25 11.45 3.85 11.4 3.8 10.7 4.35 10.6 4.35 10.35 4.8 10.3 4.8 10.15 5.35 10.1 5.35 10.1 5.6 10.0 5.65 10.1 5.35 10.25 4.85 10.55 4.4 10.6 4.35 11.2 3.85 12.45 3.1 12.6 3.1 M10.0 6.15 L10.0 6.25 9.75 5.35 9.45 5.1 9.45 5.0 9.7 5.2 9.9 5.7 10.0 6.15 M9.45 4.95 L8.55 4.8 8.55 4.75 6.7 4.8 6.65 4.75 6.55 4.75 6.45 4.8 6.4 4.75 6.3 4.7 5.25 5.15 6.15 4.7 6.3 4.7 7.9 4.7 8.2 4.65 9.3 4.85 9.45 4.95 M4.95 5.25 L4.25 5.65 4.15 5.65 3.3 6.35 3.25 6.35 2.7 7.25 2.7 7.1 3.2 6.4 3.25 6.35 4.05 5.65 4.95 5.25 M3.3 7.2 L4.35 7.1 4.25 7.2 4.0 7.2 4.45 8.1 4.35 8.0 3.95 7.2 3.05 7.3 3.3 7.2 M4.8 7.95 L5.5 7.7 5.5 7.65 5.55 7.65 5.5 7.7 5.55 7.7 5.45 7.75 5.3 7.85 5.7 8.55 5.65 8.55 5.55 8.45 5.2 7.85 4.75 8.05 4.8 7.95 M6.0 8.45 L6.05 8.3 6.45 8.0 6.65 7.9 6.6 7.95 6.45 8.0 6.5 8.1 6.3 8.25 6.55 8.85 6.5 8.85 6.45 8.75 6.25 8.25 6.0 8.45 M6.9 8.65 L6.9 8.6 7.45 8.25 7.4 8.4 7.2 8.5 7.5 9.05 7.45 9.05 7.35 8.95 7.1 8.55 6.8 8.8 6.9 8.7 6.9 8.65 M7.8 8.85 L7.8 8.75 8.25 8.3 8.15 8.45 8.1 8.5 8.6 8.8 8.45 8.85 8.4 8.85 8.0 8.6 7.8 8.85 M8.7 8.7 L8.7 8.6 8.9 8.2 8.9 8.3 8.85 8.4 9.15 8.5 9.1 8.55 9.0 8.55 8.8 8.5 8.7 8.7 M9.2 8.45 L9.3 8.25 7.95 6.4 9.6 5.85 8.0 6.35 9.6 5.8 9.6 5.85 9.55 5.95 9.35 6.0 10.0 6.75 10.0 6.6 10.05 6.65 10.0 6.8 10.0 7.0 10.2 7.35 10.25 7.45 9.45 6.4 9.45 6.25 9.95 6.9 10.0 6.75 9.85 6.7 9.8 6.65 9.45 6.2 9.4 6.2 9.35 6.1 8.15 6.55 9.55 8.25 9.5 8.25 9.4 8.15 9.35 8.1 8.75 7.4 9.4 8.2 9.35 8.25 9.2 8.45 M10.05 6.45 L10.0 6.55 10.0 6.35 10.05 6.45 M10.45 6.2 L10.8 5.3 12.1 4.8 12.0 4.95 11.85 5.05 11.7 5.1 11.6 5.15 11.45 5.2 11.45 5.25 11.55 5.25 11.6 5.25 11.6 5.3 11.0 5.55 10.8 5.6 10.75 5.6 10.45 6.2 M10.95 7.4 L11.1 7.45 11.0 7.55 10.95 7.55 10.75 7.45 10.6 7.8 11.65 9.2 11.0 9.65 11.05 9.5 11.5 9.2 10.5 7.85 11.45 5.7 11.55 5.55 10.75 7.45 10.85 7.45 10.95 7.4 M11.15 7.35 L11.15 7.3 11.4 6.9 11.3 7.2 11.4 7.3 11.4 7.35 11.3 7.35 11.2 7.3 11.15 7.4 11.15 7.35 M11.55 7.15 L11.55 7.05 11.85 6.45 11.85 6.6 12.1 6.65 12.2 6.1 12.25 6.1 12.3 5.95 12.6 5.9 12.7 5.25 12.8 3.35 13.2 3.25 12.8 3.25 12.75 3.15 12.7 3.1 13.0 3.05 13.45 3.1 13.8 3.4 13.9 3.7 13.6 3.95 13.45 4.65 13.15 4.75 12.95 5.45 12.7 5.5 12.6 5.9 12.65 5.9 12.55 6.05 12.25 6.1 12.1 6.65 12.05 6.8 11.95 6.8 11.75 6.75 11.55 7.15 M11.45 5.2 L11.1 5.3 10.8 5.45 10.8 5.5 11.4 5.25 11.45 5.2 M8.65 11.1 L9.4 10.65 9.4 10.6 9.75 9.9 9.45 10.6 9.4 10.65 9.35 10.75 8.3 11.45 8.6 11.2 8.65 11.1 M10.05 9.0 L10.2 8.55 10.2 8.65 10.15 8.85 10.8 9.75 10.65 9.7 10.6 9.65 10.05 9.0 M9.25 6.0 L8.05 6.45 8.1 6.5 9.15 6.05 9.25 6.05 9.35 6.1 9.25 6.0 M8.45 10.35 L8.0 11.3 8.0 11.25 8.45 10.35" fill="#000000" fill-rule="evenodd" stroke="none"/>
  </g>
</svg>
