<?xml version="1.0" encoding="UTF-8" standalone="no"?>
<svg xmlns:ffdec="https://www.free-decompiler.com/flash" xmlns:xlink="http://www.w3.org/1999/xlink" ffdec:objectType="shape" height="10.0px" width="13.85px" xmlns="http://www.w3.org/2000/svg">
  <g transform="matrix(1.0, 0.0, 0.0, 1.0, -1.3, -1.3)">
    <path d="M9.55 1.5 L10.25 1.4 11.05 1.4 11.95 1.55 12.35 1.7 12.6 1.9 12.85 2.2 12.85 2.25 12.9 2.45 12.85 2.7 12.85 2.75 12.8 2.75 12.55 3.15 12.4 3.3 12.1 3.45 11.75 3.7 11.45 3.85 10.95 4.0 10.9 4.05 9.85 4.25 8.85 4.3 7.65 4.15 7.6 4.15 7.15 3.95 7.05 3.95 6.75 3.65 6.7 3.65 6.6 3.5 6.55 3.25 6.55 3.1 6.6 2.9 6.65 2.9 6.9 2.5 6.95 2.5 7.45 2.15 7.5 2.15 8.05 1.85 8.1 1.85 8.8 1.65 8.9 1.65 9.4 1.5 9.55 1.5 9.4 1.5 9.55 1.45 9.55 1.5 M6.75 3.65 L6.9 3.65 7.2 3.95 7.4 3.9 7.1 3.6 7.0 3.3 7.15 2.85 7.35 2.55 7.9 2.15 8.35 1.9 8.25 1.9 7.7 2.2 7.6 2.2 7.15 2.5 7.1 2.5 6.75 2.9 6.7 2.9 6.6 3.3 6.75 3.65 M12.6 2.3 L12.3 2.3 12.35 2.5 12.3 2.7 12.4 2.7 12.25 2.9 12.4 2.95 12.45 2.85 12.55 2.7 12.65 2.45 12.6 2.3 M12.25 2.3 L12.3 2.3 12.15 2.15 12.25 2.15 12.05 2.0 12.1 2.0 11.75 1.9 11.8 1.85 11.65 1.85 11.4 1.75 9.7 1.85 9.3 1.95 8.75 2.1 8.4 2.25 8.05 2.4 7.7 2.65 7.6 2.75 7.5 2.9 7.4 3.15 7.4 3.2 7.5 3.45 7.8 3.65 8.1 3.8 9.7 3.9 9.65 3.85 10.2 3.8 10.8 3.65 10.75 3.65 11.25 3.5 11.2 3.5 11.65 3.3 11.95 3.1 11.9 3.1 12.15 2.9 12.05 2.9 12.2 2.8 12.2 2.7 12.25 2.5 12.3 2.5 12.3 2.45 12.25 2.3 M11.5 4.05 Q11.65 3.95 11.85 3.9 11.65 3.95 11.5 4.05 L11.8 3.85 11.85 3.9 13.45 3.15 13.5 3.2 14.1 3.2 14.15 3.25 14.15 3.3 14.65 3.35 14.65 3.4 15.0 3.65 15.05 3.8 14.7 4.0 14.65 4.1 14.45 4.75 14.1 4.85 14.05 4.9 13.85 5.55 13.5 5.55 13.5 5.45 13.45 5.65 13.25 6.1 12.9 6.2 12.65 6.75 12.65 6.85 12.3 6.75 12.3 6.7 11.9 7.2 11.9 7.35 11.8 7.4 11.6 7.25 11.7 7.1 11.4 7.45 11.35 7.55 11.1 7.5 11.3 7.4 12.6 4.95 12.45 5.05 10.95 5.45 10.9 5.5 10.9 5.55 10.9 5.6 10.45 6.35 10.3 6.55 10.05 7.1 10.0 7.05 10.0 7.0 10.05 6.85 10.05 6.75 10.15 6.7 10.15 6.65 10.1 6.65 10.05 6.65 10.05 6.55 10.05 6.25 10.2 5.6 10.3 5.15 10.4 5.0 10.4 4.9 10.45 4.8 10.5 4.8 10.85 4.4 10.9 4.4 11.5 4.05 M10.55 6.05 L10.85 5.0 11.15 4.6 11.0 4.4 10.6 4.85 10.55 4.85 10.4 5.15 10.1 6.25 10.15 6.25 10.15 6.65 10.2 6.65 10.25 6.55 10.35 6.4 10.7 5.85 10.55 6.05 M10.15 7.3 L10.2 7.45 10.25 7.4 11.15 5.85 11.05 5.7 10.95 5.65 12.0 5.35 12.05 5.4 12.0 5.5 11.8 5.75 11.05 7.25 10.9 7.5 10.7 7.8 10.65 7.85 12.0 9.3 11.2 9.65 11.15 9.75 11.05 9.8 10.1 8.85 10.15 8.7 10.15 8.65 10.1 8.85 10.05 8.9 9.15 10.6 8.05 11.1 8.2 10.95 9.8 8.2 9.45 8.2 7.7 6.4 9.1 6.05 9.15 6.1 9.2 6.25 10.15 7.3 M12.1 5.2 L12.05 5.3 11.95 5.3 11.95 5.25 12.1 5.2 M9.9 6.05 L10.0 6.55 10.0 6.65 9.95 6.75 9.15 5.95 9.25 5.95 9.35 5.85 7.4 6.3 9.1 8.2 9.05 8.2 8.9 8.3 8.9 8.4 8.8 8.45 8.45 8.3 8.5 8.25 8.5 8.15 8.25 8.55 8.2 8.65 8.15 8.7 7.55 8.35 7.6 8.25 7.05 8.7 7.1 8.75 6.95 8.85 6.5 8.25 6.6 8.2 6.65 8.15 6.0 8.45 6.1 8.25 5.75 7.55 5.7 7.75 5.55 7.8 4.95 8.1 5.05 7.9 5.75 7.55 5.75 7.5 7.0 6.15 5.55 5.0 7.15 5.05 7.15 4.9 5.55 4.85 5.5 4.7 4.25 5.05 4.25 5.0 3.1 5.45 3.05 5.4 2.1 6.05 2.05 6.05 1.45 6.85 1.3 6.85 1.95 6.0 2.95 5.35 4.1 4.9 4.15 4.9 5.4 4.55 5.45 4.6 8.05 4.65 8.05 4.7 9.15 4.9 9.2 4.95 9.55 5.2 9.75 5.55 9.75 5.6 9.9 6.05 M7.55 11.3 L7.5 11.25 7.5 11.2 7.55 11.15 9.3 8.15 9.35 8.2 7.55 11.3 M5.95 8.5 L5.8 8.6 5.75 8.55 5.45 7.9 5.6 7.85 5.95 8.5 M4.9 8.15 L4.85 8.15 4.75 8.25 4.2 7.45 4.4 7.45 4.85 8.15 4.4 7.4 4.35 7.4 3.55 7.6 3.65 7.4 4.25 7.25 4.05 7.25 4.55 7.15 4.5 7.2 4.4 7.4 4.9 8.1 4.9 8.15 M3.45 7.7 L3.35 7.7 2.8 6.8 2.9 6.8 3.0 6.75 3.5 7.6 3.45 7.7 M6.65 8.15 L7.05 8.7 7.15 8.55 6.75 8.0 6.65 8.15 M1.7 6.75 L2.05 6.6 3.1 6.6 3.0 6.75 1.7 6.75" fill="#7f6600" fill-rule="evenodd" stroke="none"/>
    <path d="M6.75 3.65 L6.6 3.3 6.7 2.9 6.75 2.9 7.1 2.5 7.15 2.5 7.6 2.2 7.7 2.2 8.25 1.9 8.35 1.9 7.9 2.15 7.35 2.55 7.15 2.85 7.0 3.3 7.1 3.6 7.4 3.9 7.2 3.95 6.9 3.65 6.75 3.65 M12.6 2.3 L12.65 2.45 12.55 2.7 12.45 2.85 12.4 2.95 12.25 2.9 12.4 2.7 12.3 2.7 12.35 2.5 12.3 2.3 12.6 2.3 M10.15 6.65 L10.15 6.25 10.1 6.25 10.4 5.15 10.55 4.85 10.6 4.85 11.0 4.4 11.15 4.6 10.85 5.0 10.55 6.05 10.35 6.4 10.25 6.55 10.2 6.65 10.15 6.65 M10.05 7.1 L10.3 6.55 10.45 6.35 10.9 5.6 10.95 5.65 11.05 5.7 11.15 5.85 10.25 7.4 10.2 7.45 10.15 7.3 10.15 7.2 10.05 7.1 M12.45 5.05 L12.6 4.95 11.3 7.4 11.1 7.5 10.9 7.5 11.05 7.25 12.0 5.5 12.05 5.4 12.0 5.35 12.05 5.3 12.1 5.2 12.35 5.15 12.45 5.05 M7.95 11.2 L7.65 11.3 7.55 11.3 9.35 8.2 9.45 8.2 9.8 8.2 8.2 10.95 8.05 11.1 7.95 11.2 M1.55 6.8 L1.45 6.85 2.05 6.05 2.1 6.05 3.05 5.4 3.1 5.45 4.25 5.0 4.25 5.05 5.5 4.7 5.55 4.85 7.15 4.9 7.15 5.05 5.55 5.0 7.0 6.15 5.75 7.5 5.75 7.55 5.05 7.9 4.95 8.1 4.9 8.1 4.4 7.4 4.85 8.15 4.4 7.45 4.35 7.4 4.4 7.4 4.5 7.2 4.55 7.15 4.05 7.25 4.25 7.25 3.65 7.4 3.55 7.6 3.5 7.6 3.0 6.75 3.1 6.6 2.05 6.6 1.7 6.75 1.55 6.8 M5.55 7.8 L5.7 7.75 5.75 7.55 6.1 8.25 6.0 8.45 5.95 8.5 5.6 7.85 5.55 7.8 M6.65 8.15 L6.75 8.0 7.15 8.55 7.05 8.7 6.65 8.15" fill="#ffcc00" fill-rule="evenodd" stroke="none"/>
    <path d="M12.85 2.7 L12.9 2.45 12.85 2.25 12.85 2.2 12.6 1.9 12.35 1.7 11.95 1.55 11.05 1.4 10.25 1.4 9.55 1.5 10.75 1.3 11.35 1.35 11.6 1.4 12.45 1.7 12.7 1.9 12.9 2.15 12.95 2.45 12.9 2.6 12.85 2.7 M9.4 1.5 L8.9 1.65 8.8 1.65 8.1 1.85 8.05 1.85 7.5 2.15 7.45 2.15 6.95 2.5 6.9 2.5 6.65 2.9 6.6 2.9 6.6 2.85 6.9 2.5 6.95 2.45 7.4 2.1 7.8 1.9 8.6 1.6 9.4 1.5 M6.55 3.1 L6.55 3.25 6.5 3.15 6.55 3.1 M6.6 3.5 L6.7 3.65 6.75 3.65 7.05 3.95 7.15 3.95 7.6 4.15 7.65 4.15 8.85 4.3 9.85 4.25 9.55 4.3 8.8 4.35 8.05 4.3 7.75 4.2 7.5 4.15 7.05 4.0 7.1 4.0 7.05 3.95 7.0 3.95 6.7 3.65 6.65 3.6 6.6 3.5 M11.75 3.7 L12.1 3.45 12.05 3.55 11.75 3.7 M12.55 3.15 L12.8 2.75 12.85 2.75 12.65 3.05 12.55 3.15 M9.3 1.95 L9.7 1.85 11.4 1.75 11.65 1.85 11.8 1.85 11.75 1.9 12.1 2.0 12.05 2.0 12.25 2.15 12.15 2.15 12.3 2.3 12.25 2.3 11.95 2.0 11.15 1.8 9.3 1.95 8.4 2.25 7.6 2.75 7.7 2.65 8.05 2.4 8.4 2.25 8.75 2.1 9.3 1.95 M12.3 2.45 L12.3 2.5 12.25 2.5 12.3 2.45 M12.2 2.7 L12.2 2.8 12.05 2.9 12.15 2.9 11.9 3.1 11.95 3.1 11.65 3.3 11.2 3.5 11.25 3.5 10.75 3.65 10.8 3.65 10.2 3.8 9.65 3.85 9.7 3.9 8.1 3.8 7.8 3.65 7.5 3.45 7.4 3.2 7.4 3.15 7.5 3.4 7.75 3.6 8.5 3.8 9.2 3.85 10.3 3.7 11.65 3.2 12.05 2.9 12.2 2.7 M11.5 4.05 L10.9 4.4 10.85 4.4 10.5 4.8 10.45 4.8 10.75 4.4 11.5 4.05 M10.4 4.9 L10.4 5.0 10.35 5.0 10.4 4.9 M10.3 5.15 L10.2 5.6 10.15 5.65 10.3 5.15 M10.05 6.25 L10.05 6.55 10.0 6.5 10.0 6.35 10.05 6.25 M10.1 6.65 L10.15 6.65 10.15 6.7 10.05 6.75 10.05 6.85 10.0 7.0 10.0 7.05 10.05 7.1 10.15 7.2 10.15 7.3 9.2 6.25 9.15 6.1 10.0 7.0 10.05 6.75 10.1 6.65 M10.55 6.05 L10.7 5.85 10.35 6.4 10.55 6.05 M10.9 5.6 L10.9 5.55 11.9 5.3 11.95 5.3 12.05 5.3 12.0 5.35 10.95 5.65 10.9 5.6 M10.9 5.5 L10.95 5.45 12.45 5.05 12.35 5.15 12.1 5.2 11.95 5.25 10.9 5.5 M11.1 7.5 L11.35 7.55 11.4 7.45 11.7 7.1 11.6 7.25 11.8 7.4 11.7 7.45 11.55 7.35 11.35 7.55 11.25 7.6 10.9 7.5 11.1 7.5 M11.9 7.35 L11.9 7.2 12.3 6.7 12.3 6.75 12.65 6.85 12.65 6.75 12.9 6.2 13.25 6.1 13.3 6.1 13.3 6.2 13.25 6.2 12.9 6.25 12.65 6.85 12.55 6.95 12.25 6.85 11.9 7.35 M13.45 5.65 L13.5 5.45 13.5 5.55 13.85 5.55 13.8 5.6 13.45 5.65 M14.05 4.9 L14.1 4.85 14.45 4.75 14.45 4.8 14.05 4.9 M14.65 4.1 L14.7 4.0 15.05 3.8 15.0 3.65 14.65 3.4 14.65 3.35 14.15 3.3 14.15 3.25 14.1 3.2 13.5 3.2 13.45 3.15 11.85 3.9 13.3 3.15 13.45 3.15 14.5 3.2 14.95 3.5 15.15 3.85 14.65 4.1 M12.0 5.5 L11.05 7.25 11.8 5.75 12.0 5.5 M9.9 6.05 L10.0 6.5 10.0 6.55 9.9 6.05 M9.95 6.75 L9.8 6.7 9.1 5.95 7.5 6.3 7.55 6.4 9.0 6.0 9.05 6.0 9.1 6.05 7.7 6.4 9.45 8.2 9.35 8.2 9.3 8.15 7.55 6.4 9.15 8.15 9.1 8.2 8.9 8.4 8.9 8.3 9.05 8.2 9.1 8.2 7.4 6.3 9.35 5.85 9.25 5.95 9.15 5.95 9.95 6.75 M11.15 9.75 L11.2 9.65 12.0 9.3 10.65 7.85 10.7 7.8 12.1 9.35 11.15 9.75 M10.05 8.9 L10.1 8.85 10.15 8.65 10.15 8.7 10.1 8.85 11.05 9.8 10.9 9.8 10.05 8.9 M9.15 10.6 L9.1 10.7 7.95 11.2 8.05 11.1 9.15 10.6 M7.5 11.2 L7.5 11.1 7.55 11.15 7.5 11.2 M8.8 8.45 L8.75 8.5 8.4 8.35 8.2 8.65 8.25 8.55 8.5 8.15 8.5 8.25 8.45 8.3 8.8 8.45 M8.15 8.7 L8.05 8.75 7.45 8.4 7.1 8.75 7.05 8.7 7.6 8.25 7.55 8.35 8.15 8.7 M6.95 8.85 L6.85 8.85 6.8 8.8 6.4 8.3 5.95 8.5 6.0 8.45 6.65 8.15 6.6 8.2 6.5 8.25 6.95 8.85 M5.75 8.55 L5.7 8.55 5.35 7.95 4.95 8.1 4.9 8.15 4.9 8.1 4.95 8.1 5.55 7.8 5.6 7.85 5.45 7.9 5.75 8.55 M4.75 8.25 L4.65 8.25 4.15 7.5 3.45 7.7 3.5 7.6 3.55 7.6 4.35 7.4 4.4 7.45 4.2 7.45 4.75 8.25 M3.35 7.7 L3.25 7.65 2.75 6.8 1.55 6.8 1.7 6.75 3.0 6.75 2.9 6.8 2.8 6.8 3.35 7.7 M1.3 6.85 L1.3 6.75 1.9 6.0 2.85 5.35 4.0 4.85 5.3 4.5 7.4 4.6 7.75 4.55 9.05 4.8 9.6 5.15 9.55 5.2 9.65 5.3 9.75 5.55 9.55 5.2 9.2 4.95 9.15 4.9 8.05 4.7 8.05 4.65 5.45 4.6 5.4 4.55 4.15 4.9 4.1 4.9 2.95 5.35 1.95 6.0 1.3 6.85" fill="#000000" fill-rule="evenodd" stroke="none"/>
  </g>
</svg>
