<?xml version="1.0" encoding="UTF-8" standalone="no"?>
<svg xmlns:ffdec="https://www.free-decompiler.com/flash" xmlns:xlink="http://www.w3.org/1999/xlink" ffdec:objectType="shape" height="9.75px" width="15.85px" xmlns="http://www.w3.org/2000/svg">
  <g transform="matrix(1.0, 0.0, 0.0, 1.0, -0.45, -1.35)">
    <path d="M6.5 2.4 L6.55 2.3 7.0 2.05 8.2 1.6 9.2 1.4 11.2 1.35 11.8 1.4 12.45 1.55 12.35 1.6 12.7 1.65 12.95 1.8 12.35 1.6 11.55 1.4 11.0 1.4 9.4 1.45 9.35 1.45 8.55 1.6 8.5 1.6 7.75 1.85 7.7 1.85 7.0 2.1 6.5 2.45 6.5 2.4 M13.4 2.2 L13.45 2.25 13.45 2.3 13.4 2.2 M13.5 2.45 L13.5 2.5 13.4 2.8 13.35 2.9 13.5 2.45 M13.2 3.05 L12.9 3.35 12.8 3.4 12.6 3.5 12.75 3.4 12.8 3.4 12.9 3.25 13.2 3.05 M11.7 3.9 L11.65 3.9 11.65 3.85 11.7 3.9 M10.75 4.1 L9.7 4.25 9.35 4.3 8.25 4.3 7.95 4.2 8.7 4.25 9.5 4.25 9.7 4.25 10.2 4.15 10.75 4.1 M7.85 4.2 L7.8 4.2 7.15 4.05 6.95 4.0 6.45 3.8 6.25 3.6 6.2 3.55 6.25 3.55 6.25 3.6 6.55 3.8 7.15 4.05 7.2 4.05 7.85 4.2 M6.15 3.5 L6.05 3.4 6.1 3.4 6.15 3.5 M6.15 2.75 L6.15 2.7 6.25 2.65 6.15 2.75 M12.8 2.65 L12.7 2.75 12.7 2.8 12.55 2.95 12.55 3.0 12.25 3.15 12.3 3.2 11.4 3.55 11.45 3.55 11.0 3.65 10.85 3.7 10.2 3.8 8.55 3.85 7.75 3.7 7.35 3.55 7.05 3.35 7.05 3.3 7.35 3.5 7.75 3.65 8.2 3.75 9.4 3.8 11.55 3.45 12.5 2.95 12.7 2.75 12.75 2.5 12.8 2.65 M12.75 2.35 L12.7 2.35 12.55 2.2 12.05 1.95 10.2 1.8 11.7 1.8 12.45 2.05 12.35 2.05 12.7 2.2 12.6 2.2 12.75 2.35 M9.1 1.95 L8.0 2.25 8.55 2.05 9.1 1.95 M7.4 2.55 L7.05 2.85 6.95 3.15 6.95 3.1 7.0 2.85 7.25 2.6 7.4 2.55 M10.45 6.3 L11.05 5.5 12.45 5.3 12.8 5.25 12.55 5.3 12.5 5.35 12.45 5.3 11.1 5.55 11.0 5.65 12.4 5.4 12.4 5.45 11.05 5.65 11.0 5.65 10.2 6.65 10.25 6.6 10.25 6.65 10.2 6.7 10.15 6.7 10.15 6.65 10.2 6.65 10.45 6.3 M11.25 7.55 L11.5 7.65 11.95 7.25 11.9 7.35 12.1 7.5 12.05 7.55 11.8 7.4 11.5 7.65 11.45 7.7 11.15 7.6 11.2 7.55 11.25 7.55 M12.6 6.95 L12.75 6.85 12.7 6.9 13.1 7.05 13.1 7.1 12.6 6.95 M13.15 7.0 L13.15 6.95 13.45 6.3 13.45 6.35 13.95 6.35 13.95 6.4 13.45 6.4 13.15 7.0 M14.1 5.8 L14.15 5.7 14.2 5.75 14.6 5.75 14.6 5.8 14.1 5.8 M14.9 5.1 L14.95 5.05 15.4 4.95 15.4 5.05 14.9 5.1 M15.65 4.3 L15.7 4.25 16.25 4.0 16.1 3.8 16.1 3.75 15.65 3.5 15.6 3.45 14.6 3.3 14.2 3.3 14.15 3.25 12.25 3.95 12.15 3.95 11.1 4.45 11.05 4.45 10.6 4.85 10.4 5.3 10.1 6.25 10.1 6.65 10.05 6.55 10.05 6.25 10.5 4.9 11.0 4.45 12.2 3.9 12.25 3.85 12.35 3.85 14.05 3.25 14.15 3.25 14.75 3.25 15.5 3.35 16.05 3.65 16.3 4.05 15.65 4.3 M7.55 10.95 L8.9 10.55 8.85 10.6 7.4 11.05 7.55 10.95 M10.05 8.85 L10.05 8.8 11.25 9.9 11.15 9.9 10.05 8.85 M11.3 9.85 L11.35 9.8 12.35 9.5 12.4 9.5 10.7 7.85 10.75 7.8 12.5 9.5 12.4 9.5 11.3 9.85 M10.0 7.05 L10.05 7.1 10.1 7.15 10.1 7.25 9.0 6.15 8.95 6.05 10.0 7.05 M8.9 6.0 L7.3 6.25 9.3 8.15 9.2 8.1 7.2 6.2 8.85 6.0 8.9 6.0 M0.5 6.3 L0.45 6.3 1.1 5.6 2.05 5.05 2.1 5.0 3.15 4.75 2.05 5.05 1.15 5.65 0.5 6.3 M3.4 4.65 L4.65 4.3 7.6 4.5 8.9 4.75 9.4 5.1 9.6 5.55 9.4 5.15 8.95 4.9 8.95 4.8 7.7 4.6 7.65 4.55 4.75 4.4 4.75 4.35 3.4 4.65 M9.7 5.8 L9.95 6.35 9.95 6.7 9.95 6.75 9.85 6.7 8.95 5.9 7.1 6.2 8.95 8.05 8.9 8.1 8.8 8.2 8.75 8.15 8.9 8.1 7.0 6.15 9.15 5.85 9.1 5.9 9.0 5.9 9.95 6.7 9.9 6.5 9.9 6.45 9.9 6.4 9.7 5.8 M8.7 8.25 L8.55 8.35 8.55 8.4 8.1 8.25 8.15 8.2 8.55 8.35 8.65 8.25 8.7 8.25 M7.9 8.45 L7.85 8.5 7.85 8.4 7.9 8.45 M7.8 8.55 L7.75 8.6 7.05 8.2 6.55 8.5 7.15 8.1 7.1 8.15 7.8 8.55 M6.45 8.6 L6.4 8.65 5.9 8.0 5.25 8.25 5.3 8.2 6.05 7.9 5.95 8.0 6.45 8.6 M5.2 8.25 L5.15 8.25 4.75 7.6 4.05 7.85 4.0 7.85 3.45 7.1 2.55 7.25 2.5 7.25 1.95 6.4 0.6 6.35 0.8 6.3 2.1 6.35 2.0 6.4 2.55 7.25 2.7 7.2 3.6 7.0 3.5 7.1 4.05 7.85 4.15 7.75 4.8 7.55 4.95 7.5 4.9 7.55 4.8 7.55 5.2 8.25 M7.15 11.0 L7.15 10.95 7.95 9.9 7.15 11.0" fill="#000000" fill-rule="evenodd" stroke="none"/>
    <path d="M12.95 1.8 L13.2 1.95 13.4 2.2 13.45 2.3 13.5 2.45 13.35 2.9 13.2 3.05 12.9 3.25 12.8 3.4 12.75 3.4 12.6 3.5 12.4 3.6 11.7 3.9 11.65 3.85 11.6 3.6 11.7 3.55 11.55 3.6 10.95 3.75 10.9 3.75 9.9 3.9 8.35 3.9 8.55 3.85 10.2 3.8 10.85 3.7 11.0 3.65 11.45 3.55 11.4 3.55 12.3 3.2 12.25 3.15 12.55 3.0 12.55 2.95 12.7 2.8 12.7 2.75 12.8 2.65 12.75 2.8 12.85 2.8 12.65 3.0 12.75 3.0 12.45 3.2 11.9 3.45 12.1 3.45 12.6 3.2 12.95 2.95 13.1 2.8 13.15 2.55 13.1 2.35 12.9 2.15 12.75 2.2 12.95 2.35 12.75 2.35 12.85 2.5 12.8 2.65 12.75 2.5 12.7 2.35 12.75 2.35 12.6 2.2 12.7 2.2 12.35 2.05 12.45 2.05 11.7 1.8 11.6 1.75 12.25 1.65 11.7 1.5 11.0 1.45 11.0 1.4 8.8 1.6 7.85 1.85 7.2 2.15 7.2 2.1 6.65 2.45 6.55 2.45 6.25 2.8 6.2 2.8 6.1 3.2 6.15 3.2 6.25 3.55 6.35 3.55 6.7 3.8 6.75 3.8 7.05 3.9 7.2 4.0 7.3 4.05 7.3 4.0 7.85 4.15 8.7 4.25 7.95 4.2 7.85 4.2 7.2 4.05 7.15 4.05 6.55 3.8 6.25 3.6 6.25 3.55 6.2 3.55 6.15 3.5 6.1 3.4 6.05 3.3 6.0 3.15 6.1 2.8 6.15 2.75 6.25 2.65 6.5 2.4 6.5 2.45 7.0 2.1 7.7 1.85 7.75 1.85 8.5 1.6 8.55 1.6 9.35 1.45 9.4 1.45 11.0 1.4 11.55 1.4 12.35 1.6 12.95 1.8 M11.65 3.9 L10.75 4.1 10.2 4.15 10.9 4.05 11.65 3.85 11.65 3.9 M10.2 1.8 L9.55 1.85 9.3 1.9 9.1 1.95 8.55 2.05 8.8 1.95 9.0 1.9 9.3 1.9 9.65 1.8 10.2 1.8 M8.0 2.25 L7.75 2.35 7.7 2.35 7.4 2.55 7.25 2.6 7.0 2.85 6.95 3.1 6.95 3.15 7.05 3.3 7.05 3.35 7.35 3.55 7.75 3.7 8.55 3.85 8.3 3.85 7.65 3.75 7.25 3.6 6.95 3.4 6.85 3.15 6.95 2.85 6.9 2.85 7.2 2.6 7.65 2.35 8.0 2.25 8.15 2.15 8.55 2.05 8.0 2.25 M9.5 4.25 L10.2 4.15 9.7 4.25 9.5 4.25 M10.45 6.3 L10.75 5.75 11.1 5.35 11.05 5.3 11.4 4.7 12.35 4.25 12.35 4.2 13.15 3.95 13.15 3.9 13.6 3.7 13.65 3.65 12.3 4.1 12.25 4.05 11.2 4.55 11.15 4.5 10.7 4.9 10.4 5.5 10.2 6.3 10.2 6.65 10.15 6.65 10.1 6.7 10.1 6.65 10.1 6.25 10.4 5.3 10.6 4.85 11.05 4.45 11.1 4.45 12.15 3.95 12.25 3.95 14.15 3.25 14.2 3.3 14.6 3.3 15.6 3.45 15.65 3.5 16.1 3.75 16.1 3.8 16.25 4.0 15.7 4.25 15.65 4.3 15.4 4.95 14.95 5.05 14.9 5.1 14.6 5.75 14.2 5.75 14.15 5.7 14.1 5.8 13.95 6.3 13.95 6.35 13.45 6.35 13.45 6.3 13.15 6.95 13.15 7.0 13.1 7.05 12.7 6.9 12.75 6.85 12.6 6.95 12.2 7.4 12.15 7.5 12.1 7.5 11.9 7.35 11.95 7.25 11.5 7.65 11.25 7.55 11.35 7.55 11.55 7.45 13.2 5.0 13.0 5.15 12.8 5.25 12.45 5.3 11.05 5.5 10.45 6.3 M12.4 5.4 L12.45 5.3 12.5 5.35 12.55 5.3 12.45 5.5 12.4 5.55 11.05 7.55 10.95 7.5 10.75 7.8 10.7 7.85 12.4 9.5 12.35 9.5 11.35 9.8 11.3 9.85 11.25 9.9 10.05 8.8 10.05 8.85 10.0 8.9 8.9 10.55 7.55 10.95 7.9 10.7 8.85 10.45 8.85 10.4 9.85 8.05 10.15 7.6 10.15 7.55 11.3 5.95 12.05 5.85 12.3 5.65 11.2 5.8 11.05 5.65 12.4 5.45 12.4 5.4 M11.0 5.65 L11.05 5.65 10.05 7.1 10.0 7.05 10.2 6.7 10.25 6.65 10.25 6.6 10.2 6.65 11.0 5.65 M10.1 7.25 L10.15 7.4 10.15 7.55 8.95 6.3 9.0 6.15 10.1 7.25 M8.95 6.05 L9.0 6.15 7.65 6.35 7.55 6.35 7.65 6.4 8.9 7.55 7.65 6.35 9.6 8.15 9.3 8.15 7.3 6.25 8.9 6.0 8.95 6.05 M3.15 4.75 L3.35 4.65 3.4 4.65 3.15 4.75 3.4 4.65 4.75 4.35 4.75 4.4 7.65 4.55 7.7 4.6 8.95 4.8 8.95 4.9 9.4 5.15 9.6 5.55 9.65 5.65 9.7 5.8 9.6 5.55 9.7 5.8 9.9 6.4 9.9 6.45 9.6 5.95 9.5 5.65 9.35 5.35 9.35 5.3 8.95 5.0 8.95 4.95 7.75 4.7 7.7 4.65 4.8 4.5 4.8 4.45 3.45 4.75 3.45 4.7 2.2 5.1 1.25 5.7 1.2 5.7 0.6 6.35 0.5 6.35 0.5 6.3 1.15 5.65 2.05 5.05 3.15 4.75 M8.8 8.2 L8.7 8.25 8.65 8.25 8.55 8.35 8.15 8.2 8.1 8.25 7.9 8.45 7.85 8.4 7.85 8.3 8.2 8.0 8.2 8.05 8.25 8.1 8.3 8.05 8.65 8.2 8.65 8.1 8.7 8.1 6.7 6.05 9.2 5.7 9.15 5.85 7.0 6.15 8.9 8.1 8.75 8.15 8.8 8.2 M7.85 8.5 L7.8 8.55 7.1 8.15 7.15 8.1 6.55 8.5 6.6 8.35 7.15 8.0 7.85 8.4 7.85 8.5 M6.55 8.55 L6.45 8.6 5.95 8.0 6.05 7.9 6.4 8.4 6.1 7.95 6.55 8.5 6.5 8.5 6.55 8.55 M5.25 8.25 L5.2 8.25 4.8 7.55 4.9 7.55 4.95 7.5 4.8 7.55 4.15 7.75 4.05 7.85 3.5 7.1 3.6 7.0 2.7 7.2 2.55 7.25 2.0 6.4 2.1 6.35 0.8 6.3 1.0 6.2 2.2 6.25 2.15 6.3 2.7 7.2 2.75 7.05 3.7 6.9 3.6 7.0 4.15 7.75 4.25 7.65 5.0 7.35 4.95 7.5 5.3 8.2 5.4 8.0 6.15 7.75 6.1 7.9 6.05 7.9 5.3 8.2 5.25 8.25 M9.9 6.5 L9.95 6.7 9.0 5.9 9.1 5.9 9.15 5.85 9.9 6.5 M9.2 8.1 L9.3 8.15 7.2 11.1 7.15 11.05 7.15 11.0 7.95 9.9 9.2 8.1" fill="#7f6600" fill-rule="evenodd" stroke="none"/>
    <path d="M12.75 2.35 L12.95 2.35 12.75 2.2 12.9 2.15 13.1 2.35 13.15 2.55 13.1 2.8 12.95 2.95 12.6 3.2 12.1 3.45 11.9 3.45 12.45 3.2 12.75 3.0 12.65 3.0 12.85 2.8 12.75 2.8 12.8 2.65 12.85 2.5 12.75 2.35 M8.55 3.85 L8.35 3.9 9.9 3.9 10.9 3.75 10.95 3.75 11.55 3.6 11.7 3.55 11.6 3.6 11.65 3.85 10.9 4.05 10.2 4.15 9.5 4.25 8.7 4.25 7.85 4.15 7.3 4.0 7.3 4.05 7.2 4.0 7.05 3.9 6.75 3.8 6.7 3.8 6.35 3.55 6.25 3.55 6.15 3.2 6.1 3.2 6.2 2.8 6.25 2.8 6.55 2.45 6.65 2.45 7.2 2.1 7.2 2.15 7.85 1.85 8.8 1.6 11.0 1.4 11.0 1.45 11.7 1.5 12.25 1.65 11.6 1.75 11.7 1.8 10.2 1.8 9.65 1.8 9.3 1.9 9.0 1.9 8.8 1.95 8.55 2.05 8.15 2.15 8.0 2.25 7.65 2.35 7.2 2.6 6.9 2.85 6.95 2.85 6.85 3.15 6.95 3.4 7.25 3.6 7.65 3.75 8.3 3.85 8.55 3.85 M10.2 6.65 L10.2 6.3 10.4 5.5 10.7 4.9 11.15 4.5 11.2 4.55 12.25 4.05 12.3 4.1 13.65 3.65 13.6 3.7 13.15 3.9 13.15 3.95 12.35 4.2 12.35 4.25 11.4 4.7 11.05 5.3 11.1 5.35 10.75 5.75 10.45 6.3 10.2 6.65 M12.8 5.25 L13.0 5.15 13.2 5.0 11.55 7.45 11.35 7.55 11.25 7.55 11.2 7.55 11.15 7.6 11.05 7.55 12.4 5.55 12.45 5.5 12.55 5.3 12.8 5.25 M11.05 5.65 L11.2 5.8 12.3 5.65 12.05 5.85 11.3 5.95 10.15 7.55 10.15 7.6 9.85 8.05 8.85 10.4 8.85 10.45 7.9 10.7 7.55 10.95 7.4 11.05 7.2 11.1 9.3 8.15 9.6 8.15 7.65 6.35 8.9 7.55 7.65 6.4 7.55 6.35 7.65 6.35 9.0 6.15 8.95 6.3 10.15 7.55 10.15 7.4 10.1 7.25 10.1 7.15 10.05 7.1 11.05 5.65 M6.55 8.5 L6.55 8.55 6.5 8.5 6.55 8.5 6.1 7.95 6.4 8.4 6.05 7.9 6.1 7.9 6.15 7.75 5.4 8.0 5.3 8.2 4.95 7.5 5.0 7.35 4.25 7.65 4.15 7.75 3.6 7.0 3.7 6.9 2.75 7.05 2.7 7.2 2.15 6.3 2.2 6.25 1.0 6.2 0.8 6.3 0.6 6.35 1.2 5.7 1.25 5.7 2.2 5.1 3.45 4.7 3.45 4.75 4.8 4.45 4.8 4.5 7.7 4.65 7.75 4.7 8.95 4.95 8.95 5.0 9.35 5.3 9.35 5.35 9.5 5.65 9.6 5.95 9.9 6.45 9.9 6.5 9.15 5.85 9.2 5.7 6.7 6.05 8.7 8.1 8.65 8.1 8.65 8.2 8.3 8.05 8.25 8.1 8.2 8.05 8.2 8.0 7.85 8.3 7.85 8.4 7.15 8.0 6.6 8.35 6.55 8.5" fill="#ffcc00" fill-rule="evenodd" stroke="none"/>
  </g>
</svg>
