<?xml version="1.0" encoding="UTF-8" standalone="no"?>
<svg xmlns:ffdec="https://www.free-decompiler.com/flash" xmlns:xlink="http://www.w3.org/1999/xlink" ffdec:objectType="shape" height="13.75px" width="18.05px" xmlns="http://www.w3.org/2000/svg">
  <g transform="matrix(1.0, 0.0, 0.0, 1.0, -0.4, -0.4)">
    <path d="M14.4 10.85 L17.45 9.2 16.65 9.85 15.35 10.8 15.35 10.85 15.3 10.85 14.4 10.85 13.9 11.95 11.5 13.4 14.4 10.85 M7.9 11.6 L8.0 11.55 7.95 11.6 7.9 11.6 M11.65 7.45 L8.7 7.55 8.7 7.5 11.6 7.4 11.65 7.45 M16.1 6.55 L16.45 7.75 14.7 4.9 16.1 6.55 M15.4 11.05 L15.4 11.0 15.45 11.05 15.4 11.05 M12.35 11.3 L12.2 11.3 12.2 11.25 12.35 11.3 M9.4 4.3 L8.6 4.95 8.55 4.95 9.35 4.3 9.4 4.3 M11.0 6.5 L8.45 6.6 8.45 6.55 11.0 6.5 M4.4 11.9 L4.35 11.9 4.35 11.85 4.4 11.9" fill="#000000" fill-rule="evenodd" stroke="none"/>
    <path d="M14.4 10.85 L15.0 9.1 14.6 8.15 14.6 8.2 14.15 7.0 14.4 10.85 10.45 9.55 12.5 10.95 14.4 10.85 11.5 13.4 12.05 11.8 11.8 11.85 10.1 14.1 8.4 12.1 8.15 12.15 8.15 12.1 7.85 11.6 7.9 11.6 7.75 11.25 9.85 9.6 6.15 11.45 1.65 10.1 3.35 9.9 4.75 8.0 4.4 7.65 5.85 6.75 5.85 6.7 6.4 6.85 6.35 6.9 8.6 8.05 7.6 5.35 9.75 3.6 5.85 5.1 1.15 3.65 4.0 5.6 3.65 6.75 0.4 3.1 4.6 3.1 5.6 0.5 5.7 2.8 6.35 4.15 6.8 3.3 6.7 3.1 6.75 3.1 8.25 3.1 10.1 0.4 11.95 3.05 13.35 3.05 14.4 0.65 14.7 4.9 11.65 7.95 14.15 6.4 15.4 7.1 15.35 7.15 15.05 7.55 16.15 9.1 17.6 9.15 17.45 9.2 14.4 10.85 M7.9 11.6 L7.95 11.6 8.0 11.55 7.9 11.6 M15.3 10.85 L15.35 10.85 15.35 10.8 16.65 9.85 17.7 11.35 15.6 11.55 15.6 11.45 15.35 11.05 15.4 11.05 15.3 10.85 M11.85 6.45 L11.0 6.5 11.85 6.45 M11.65 7.45 L11.6 7.4 8.7 7.5 8.7 7.55 11.65 7.45 M16.0 6.3 L16.0 6.35 15.7 5.3 15.75 5.25 17.9 3.55 15.3 3.35 15.2 3.05 15.25 3.05 18.45 3.05 16.0 6.3 M15.4 11.05 L15.45 11.05 15.4 11.0 15.4 11.05 M12.35 11.3 L12.2 11.25 12.2 11.3 12.35 11.3 M9.4 4.3 L9.35 4.3 8.55 4.95 8.6 4.95 9.4 4.3 M11.0 6.5 L8.45 6.55 8.45 6.6 11.0 6.5 M2.75 10.75 L3.4 11.0 3.4 11.05 4.5 11.65 4.4 11.9 4.45 11.9 4.15 12.45 1.4 12.7 2.75 10.75 M4.4 11.9 L4.35 11.85 4.35 11.9 4.4 11.9" fill="#ffcc00" fill-rule="evenodd" stroke="none"/>
    <path d="M14.4 10.85 L12.5 10.95 10.45 9.55 14.4 10.85 14.15 7.0 14.6 8.2 14.6 8.15 15.0 9.1 14.4 10.85 15.3 10.85 15.4 11.05 15.35 11.05 15.6 11.45 15.6 11.55 16.1 13.0 13.9 11.95 14.4 10.85 M15.35 7.15 L15.4 7.1 14.15 6.4 11.65 7.95 14.7 4.9 14.4 0.65 15.25 3.05 15.2 3.05 15.3 3.35 17.9 3.55 15.75 5.25 15.7 5.3 16.0 6.35 16.0 6.3 16.1 6.55 14.7 4.9 16.45 7.75 15.35 7.15 M6.75 3.1 L6.7 3.1 6.8 3.3 6.35 4.15 5.7 2.8 5.6 0.5 6.75 3.1 M3.65 6.75 L4.0 5.6 1.15 3.65 5.85 5.1 9.75 3.6 7.6 5.35 8.6 8.05 6.35 6.9 6.4 6.85 5.85 6.7 5.85 6.75 4.4 7.65 3.05 8.45 3.65 6.75 M1.65 10.1 L6.15 11.45 9.85 9.6 7.75 11.25 7.9 11.6 7.85 11.6 8.15 12.1 8.15 12.15 8.75 13.65 6.15 12.6 3.5 14.15 4.15 12.45 4.45 11.9 4.4 11.9 4.5 11.65 3.4 11.05 3.4 11.0 2.75 10.75 1.65 10.1" fill="#7f6600" fill-rule="evenodd" stroke="none"/>
  </g>
</svg>
