<?xml version="1.0" encoding="UTF-8" standalone="no"?>
<svg xmlns:ffdec="https://www.free-decompiler.com/flash" xmlns:xlink="http://www.w3.org/1999/xlink" ffdec:objectType="shape" height="13.7px" width="18.35px" xmlns="http://www.w3.org/2000/svg">
  <g transform="matrix(1.0, 0.0, 0.0, 1.0, -0.95, -0.4)">
    <path d="M15.7 7.4 L15.75 7.35 14.3 6.5 11.7 7.9 14.6 5.0 12.65 5.3 10.5 3.6 14.6 5.0 14.6 0.6 15.5 3.05 15.45 3.05 15.6 3.4 14.6 5.0 16.7 4.25 17.15 3.55 18.6 3.6 16.0 5.45 16.0 5.5 16.35 6.6 16.4 6.55 16.9 8.05 15.7 7.4 M5.55 0.6 L5.55 5.0 9.65 3.6 7.5 5.3 7.45 5.25 5.55 5.0 8.4 7.9 6.35 6.8 6.35 6.75 6.15 6.7 5.85 6.5 4.45 7.3 4.5 7.35 3.25 8.05 3.75 6.5 3.8 6.5 4.15 5.5 4.15 5.45 1.55 3.6 5.55 5.0 4.55 3.4 4.7 3.05 4.6 3.05 5.55 0.6 M1.95 9.6 L5.85 11.15 4.9 9.5 5.65 7.75 5.75 7.6 5.85 7.25 5.85 11.15 9.65 9.65 7.65 11.1 5.85 11.15 8.65 13.55 6.1 12.25 3.65 13.55 4.2 12.0 4.5 11.45 4.45 11.45 4.55 11.25 3.55 10.6 3.55 10.55 3.0 10.3 1.95 9.6 M11.55 13.45 L14.3 11.15 12.5 11.1 10.45 9.6 14.3 11.15 14.3 7.35 14.35 7.5 15.2 9.5 14.3 11.15 16.3 10.35 16.85 10.4 15.6 11.25 15.65 11.45 15.95 12.0 16.5 13.55 14.05 12.25 11.55 13.45" fill="#7f6600" fill-rule="evenodd" stroke="none"/>
    <path d="M14.6 0.6 L14.6 5.0 10.5 3.6 12.65 5.3 14.6 5.0 11.7 7.9 14.3 6.5 15.75 7.35 15.7 7.4 15.4 7.8 16.65 9.5 18.2 9.6 16.3 10.35 14.3 11.15 15.2 9.5 14.35 7.5 14.3 7.35 14.3 11.15 10.45 9.6 12.5 11.1 14.3 11.15 11.55 13.45 11.45 13.55 12.1 12.0 11.85 12.0 10.1 14.1 8.35 12.0 8.05 12.0 8.65 13.55 5.85 11.15 7.65 11.1 9.65 9.65 5.85 11.15 5.85 7.25 5.75 7.6 5.65 7.75 4.9 9.5 5.85 11.15 1.95 9.6 3.6 9.5 4.85 7.8 4.5 7.35 4.45 7.3 5.85 6.5 6.15 6.7 6.35 6.75 6.35 6.8 8.4 7.9 5.55 5.0 7.45 5.25 7.5 5.3 9.65 3.6 5.55 5.0 5.55 0.6 6.7 3.05 8.2 3.05 10.1 0.4 12.0 3.05 13.45 3.05 14.6 0.6 M16.4 6.55 L16.35 6.6 16.0 5.5 16.0 5.45 18.6 3.6 17.15 3.55 16.7 4.25 14.6 5.0 15.6 3.4 15.45 3.05 15.5 3.05 19.3 3.05 16.4 6.55 M11.6 7.5 L11.6 7.45 8.55 7.45 8.55 7.5 11.6 7.5 M4.6 3.05 L4.7 3.05 4.55 3.4 5.55 5.0 1.55 3.6 4.15 5.45 4.15 5.5 3.8 6.5 3.75 6.5 0.95 3.05 4.6 3.05 M3.0 10.3 L3.55 10.55 3.55 10.6 4.55 11.25 4.45 11.45 4.5 11.45 4.2 12.0 1.8 12.0 3.0 10.3 M16.85 10.4 L17.2 10.25 18.4 12.0 15.95 12.0 15.65 11.45 15.6 11.25 16.85 10.4 M12.3 11.4 L12.3 11.45 12.35 11.45 12.3 11.4" fill="#ffcc00" fill-rule="evenodd" stroke="none"/>
    <path d="M16.3 10.35 L18.2 9.6 17.2 10.25 16.85 10.4 16.3 10.35 M11.6 7.5 L8.55 7.5 8.55 7.45 11.6 7.45 11.6 7.5 M12.3 11.4 L12.35 11.45 12.3 11.45 12.3 11.4" fill="#000000" fill-rule="evenodd" stroke="none"/>
  </g>
</svg>
