<?xml version="1.0" encoding="UTF-8" standalone="no"?>
<svg xmlns:ffdec="https://www.free-decompiler.com/flash" xmlns:xlink="http://www.w3.org/1999/xlink" ffdec:objectType="shape" height="13.7px" width="18.1px" xmlns="http://www.w3.org/2000/svg">
  <g transform="matrix(1.0, 0.0, 0.0, 1.0, -1.7, -0.4)">
    <path d="M14.0 1.9 L13.9 4.15 13.45 3.3 13.55 3.1 13.5 3.1 14.0 1.9 M5.8 0.65 L5.55 4.9 8.45 7.85 6.5 6.65 6.35 6.6 6.05 6.4 4.75 7.1 4.8 7.15 3.7 7.8 4.15 6.3 4.2 6.35 4.5 5.3 4.45 5.3 2.25 3.55 4.85 3.35 5.0 3.05 4.95 3.05 5.8 0.65 M5.8 10.85 L5.2 9.2 5.85 7.55 5.95 7.45 6.05 7.1 5.8 10.85 9.65 9.6 7.85 10.85 7.75 10.95 5.8 10.85 6.3 11.95 4.05 13.0 4.55 11.55 4.8 11.05 4.85 10.9 5.8 10.85 M12.05 12.15 L12.4 11.6 12.35 11.6 12.45 11.25 10.5 9.7 10.4 9.6 14.1 11.45 18.6 10.05 17.45 10.7 15.75 11.65 15.8 11.85 15.75 11.85 16.1 12.45 16.7 14.1 14.1 12.55 11.45 13.65 12.05 12.15 M15.85 7.6 L14.35 6.65 13.85 6.85 13.85 6.9 12.25 7.75 11.65 8.0 12.65 5.35 10.5 3.6 14.45 5.1 19.0 3.7 16.15 5.6 16.55 6.8 16.65 6.75 17.15 8.35 15.85 7.6 M14.45 5.1 L13.45 5.25 12.9 6.7 14.45 5.1" fill="#7f6600" fill-rule="evenodd" stroke="none"/>
    <path d="M14.0 1.9 L14.65 0.5 15.65 3.1 19.8 3.1 16.65 6.75 16.55 6.8 16.15 5.6 19.0 3.7 14.45 5.1 10.5 3.6 12.65 5.35 11.65 8.0 12.25 7.75 13.85 6.9 13.85 6.85 14.35 6.65 15.85 7.6 15.5 8.0 16.85 9.85 18.6 10.05 14.1 11.45 10.4 9.6 10.5 9.7 12.45 11.25 12.35 11.6 12.4 11.6 12.05 12.15 11.8 12.15 10.05 14.1 8.4 11.85 8.15 11.8 8.7 13.4 5.8 10.85 2.55 9.15 4.0 9.15 5.15 7.6 4.8 7.15 4.75 7.1 6.05 6.4 6.35 6.6 6.5 6.65 8.45 7.85 5.55 4.9 5.8 0.65 6.85 3.05 8.3 3.05 10.1 0.4 12.0 3.1 13.5 3.1 13.55 3.1 13.45 3.3 13.9 4.15 14.0 1.9 M5.8 10.85 L7.75 10.95 7.85 10.85 9.65 9.6 5.8 10.85 6.05 7.1 5.95 7.45 5.85 7.55 5.2 9.2 5.8 10.85 M14.45 5.1 L12.9 6.7 13.45 5.25 14.45 5.1 M9.2 6.5 L11.8 6.6 11.8 6.55 9.2 6.5 8.3 6.45 9.2 6.5 M11.55 7.55 L11.55 7.5 8.6 7.4 8.55 7.45 11.55 7.55 M11.65 4.95 L10.85 4.3 10.8 4.3 11.6 4.95 11.65 4.95 M15.8 11.85 L15.9 11.85 15.9 11.8 15.8 11.85 15.75 11.65 17.45 10.7 18.85 12.65 16.1 12.45 15.75 11.85 15.8 11.85 M4.95 3.05 L5.0 3.05 4.85 3.35 2.25 3.55 4.45 5.3 4.5 5.3 4.2 6.35 4.15 6.3 1.7 3.05 4.95 3.05 M7.55 5.2 L7.5 5.2 7.5 5.25 7.55 5.2 M8.05 5.35 L7.95 5.4 10.6 5.45 8.05 5.35 M3.5 9.9 L3.65 10.0 3.75 10.05 4.85 10.9 4.8 11.05 4.55 11.55 2.45 11.4 3.5 9.9" fill="#ffcc00" fill-rule="evenodd" stroke="none"/>
    <path d="M2.55 9.15 L5.8 10.85 8.7 13.4 6.3 11.95 5.8 10.85 4.85 10.9 3.75 10.05 3.65 10.0 3.5 9.9 2.55 9.15 M11.65 4.95 L11.6 4.95 10.8 4.3 10.85 4.3 11.65 4.95 M11.55 7.55 L8.55 7.45 8.6 7.4 11.55 7.5 11.55 7.55 M9.2 6.5 L11.8 6.55 11.8 6.6 9.2 6.5 M15.8 11.85 L15.9 11.8 15.9 11.85 15.8 11.85 M7.55 5.2 L7.5 5.25 7.5 5.2 7.55 5.2 M8.05 5.35 L10.6 5.45 7.95 5.4 8.05 5.35" fill="#000000" fill-rule="evenodd" stroke="none"/>
  </g>
</svg>
