<?xml version="1.0" encoding="UTF-8" standalone="no"?>
<svg xmlns:ffdec="https://www.free-decompiler.com/flash" xmlns:xlink="http://www.w3.org/1999/xlink" ffdec:objectType="shape" height="14.35px" width="17.35px" xmlns="http://www.w3.org/2000/svg">
  <g transform="matrix(1.0, 0.0, 0.0, 1.0, -2.65, -0.4)">
    <path d="M13.35 3.1 L13.3 3.3 14.05 5.2 12.05 4.3 11.8 3.5 11.4 3.6 11.4 3.55 10.4 3.6 12.55 5.4 11.55 8.15 13.75 7.0 13.7 6.95 14.25 6.85 14.3 6.9 15.75 7.85 15.4 8.2 16.8 10.25 18.65 10.6 13.75 11.7 14.2 7.7 14.2 7.65 13.05 9.65 13.75 11.7 10.3 9.6 12.3 11.4 12.25 11.7 12.2 11.75 12.15 11.9 12.15 12.0 11.95 12.25 11.75 12.25 10.05 14.1 8.5 11.75 8.2 11.25 10.05 11.9 10.05 11.45 10.05 11.4 8.15 11.15 8.1 11.1 8.05 11.15 8.0 11.15 8.25 11.55 8.3 11.7 8.8 13.3 6.0 10.6 7.9 10.8 8.95 10.1 8.95 10.15 9.8 9.55 6.0 10.6 6.4 6.85 6.0 8.0 5.95 7.95 5.6 8.95 5.25 8.9 5.9 7.9 5.65 7.5 4.7 8.75 5.6 7.4 5.3 7.0 5.25 6.9 6.4 6.3 8.7 7.95 8.7 7.9 5.7 4.85 6.2 0.7 7.1 3.05 8.4 3.05 10.1 0.4 11.95 3.1 13.35 3.1 M5.7 4.85 L9.75 3.55 7.15 3.2 5.7 4.85 M17.15 8.7 L14.05 5.2 14.55 0.45 15.6 3.15 20.0 3.15 16.55 6.95 17.15 8.7 M11.45 7.6 L11.5 7.55 8.75 7.35 8.65 7.4 11.4 7.6 11.25 8.2 11.3 8.15 11.45 7.6 M11.5 7.25 L11.55 7.2 11.75 6.65 11.75 6.6 8.45 6.35 8.35 6.4 11.65 6.65 11.5 7.25 M12.05 5.5 L12.0 5.5 11.8 6.15 11.85 6.15 12.05 5.5 M10.8 4.3 L10.7 4.3 11.5 5.0 11.6 5.0 10.8 4.3 M14.05 5.2 L16.15 5.75 19.35 3.7 14.05 5.2 M13.75 11.7 L15.7 12.05 16.8 11.45 16.75 11.45 17.45 11.2 18.9 13.35 16.0 12.9 16.65 14.75 13.75 11.7 M3.1 3.5 L4.9 5.1 5.05 5.2 4.75 6.2 4.65 6.0 2.65 3.0 5.4 3.05 5.35 3.3 3.1 3.5 M8.1 5.3 L8.05 5.35 11.05 5.45 8.1 5.3 M8.95 3.05 L9.1 3.05 10.05 1.55 8.95 3.05 M4.55 9.9 L5.35 10.5 5.25 10.75 4.1 10.55 4.55 9.9" fill="#ffcc00" fill-rule="evenodd" stroke="none"/>
    <path d="M15.75 7.85 L14.3 6.9 14.25 6.85 13.7 6.95 13.75 7.0 11.55 8.15 12.55 5.4 10.4 3.6 11.4 3.55 11.4 3.6 11.8 3.5 12.05 4.3 14.05 5.2 13.3 3.3 13.35 3.1 14.55 0.45 14.05 5.2 17.15 8.7 15.75 7.85 M5.7 4.85 L7.15 3.2 9.75 3.55 5.7 4.85 3.1 3.5 5.35 3.3 5.7 4.85 6.4 6.3 5.25 6.9 5.3 7.0 4.35 7.55 5.7 4.85 M4.7 8.75 L5.65 7.5 5.9 7.9 5.25 8.9 5.6 8.95 5.95 7.95 6.0 8.0 6.4 6.85 6.0 10.6 9.8 9.55 8.95 10.15 8.95 10.1 7.9 10.8 6.0 10.6 3.4 8.85 4.6 8.9 4.7 8.75 M8.3 11.7 L8.25 11.55 8.0 11.15 8.05 11.15 8.15 11.15 10.05 11.45 10.05 11.9 8.2 11.25 8.5 11.75 8.3 11.7 M11.95 12.25 L12.15 12.0 12.15 11.9 12.2 11.75 12.25 11.7 12.3 11.4 12.45 11.45 13.75 11.7 14.0 12.85 11.4 13.8 11.95 12.25 M13.75 11.7 L13.05 9.65 14.2 7.65 14.2 7.7 13.75 11.7 18.65 10.6 17.45 11.2 16.75 11.45 16.8 11.45 15.7 12.05 13.75 11.7 M14.05 5.2 L19.35 3.7 16.15 5.75 14.05 5.2 M6.0 10.6 L6.6 11.7 4.65 12.55 6.0 10.6 M8.95 3.05 L10.05 1.55 9.1 3.05 8.95 3.05 M4.55 9.9 L4.1 10.55 5.25 10.75 5.3 10.8 5.1 11.2 3.3 10.9 4.2 9.55 4.55 9.9" fill="#7f6600" fill-rule="evenodd" stroke="none"/>
    <path d="M6.2 0.7 L5.7 4.85 8.7 7.9 8.7 7.95 6.4 6.3 5.7 4.85 5.35 3.3 5.4 3.05 6.2 0.7 M6.0 10.6 L8.8 13.3 6.6 11.7 6.0 10.6 4.65 12.55 5.1 11.2 5.3 10.8 5.25 10.75 5.35 10.5 4.55 9.9 4.2 9.55 3.4 8.85 6.0 10.6 M8.05 11.15 L8.1 11.1 8.15 11.15 10.05 11.4 10.05 11.45 8.15 11.15 8.05 11.15 M12.3 11.4 L10.3 9.6 13.75 11.7 12.45 11.45 12.3 11.4 M10.8 4.3 L11.6 5.0 11.5 5.0 10.7 4.3 10.8 4.3 M12.05 5.5 L11.85 6.15 11.8 6.15 12.0 5.5 12.05 5.5 M11.5 7.25 L11.65 6.65 8.35 6.4 8.45 6.35 11.75 6.6 11.75 6.65 11.55 7.2 11.5 7.25 M11.45 7.6 L11.3 8.15 11.25 8.2 11.4 7.6 8.65 7.4 8.75 7.35 11.5 7.55 11.45 7.6 M14.0 12.85 L13.75 11.7 16.65 14.75 14.0 12.85 M4.75 6.2 L5.05 5.2 4.9 5.1 3.1 3.5 5.7 4.85 4.35 7.55 4.75 6.2 M8.1 5.3 L11.05 5.45 8.05 5.35 8.1 5.3" fill="#000000" fill-rule="evenodd" stroke="none"/>
  </g>
</svg>
