<?xml version="1.0" encoding="UTF-8" standalone="no"?>
<svg xmlns:ffdec="https://www.free-decompiler.com/flash" xmlns:xlink="http://www.w3.org/1999/xlink" ffdec:objectType="shape" height="15.0px" width="15.95px" xmlns="http://www.w3.org/2000/svg">
  <g transform="matrix(1.0, 0.0, 0.0, 1.0, -3.75, -0.35)">
    <path d="M13.15 3.1 L13.05 3.3 11.95 3.4 11.75 3.45 11.3 3.65 11.25 3.6 10.4 3.6 12.35 5.45 11.35 8.25 13.45 7.1 13.4 7.1 13.95 7.0 14.05 7.05 15.45 8.05 15.1 8.45 16.5 10.65 18.35 11.15 13.2 11.95 13.9 7.85 13.85 7.8 12.85 9.8 13.2 11.95 10.35 9.65 12.1 11.55 11.95 12.1 10.05 11.45 10.05 8.1 9.65 8.05 9.5 9.4 9.85 9.5 6.25 10.35 6.85 6.85 6.85 6.65 7.65 8.95 8.85 9.2 9.1 7.95 8.85 7.95 8.85 7.85 6.05 4.75 9.8 3.55 8.1 5.15 8.7 7.3 8.75 7.35 11.25 7.65 11.05 8.25 11.2 8.2 11.35 7.65 11.35 7.6 10.05 7.45 10.05 7.15 9.75 7.1 9.75 7.4 9.25 7.35 9.3 7.05 8.65 6.95 8.5 6.35 11.5 6.7 11.3 7.3 11.4 7.25 11.6 6.7 11.6 6.65 10.05 6.5 10.05 6.05 9.9 6.05 9.85 6.45 9.4 6.4 9.5 6.0 8.4 5.9 8.25 5.3 10.95 5.5 10.05 5.4 10.05 4.95 10.0 4.95 9.95 5.4 9.65 5.35 9.75 4.9 8.7 4.85 9.35 4.25 9.85 4.25 10.05 3.05 10.1 0.4 11.75 3.1 13.15 3.1 M13.45 5.25 L14.25 0.35 15.25 3.15 19.7 3.2 16.2 7.15 16.8 9.0 13.45 5.25 M10.75 4.3 L10.6 4.3 11.3 5.0 11.45 5.05 10.75 4.3 M11.8 5.5 L11.8 5.55 11.6 6.2 11.7 6.2 11.85 5.55 11.8 5.5 M13.2 11.95 L15.45 12.5 16.4 11.95 16.4 11.9 17.1 11.7 18.6 14.1 16.15 13.5 15.65 13.35 15.7 13.4 16.3 15.35 13.2 11.95 M8.65 11.6 L8.45 11.2 8.6 10.35 9.45 9.8 9.25 11.25 8.7 11.1 10.05 11.85 10.2 12.0 11.6 12.35 10.05 14.1 8.65 11.6 M6.05 4.75 L6.65 0.75 7.45 3.05 7.5 3.2 6.05 4.75 M6.25 10.35 L8.15 10.65 8.3 10.9 8.35 11.05 8.3 11.0 8.5 11.55 8.95 13.2 6.25 10.35" fill="#ffcc00" fill-rule="evenodd" stroke="none"/>
    <path d="M10.4 3.6 L11.25 3.6 11.3 3.65 11.75 3.45 11.95 3.4 13.05 3.3 13.15 3.1 14.25 0.35 13.45 5.25 10.4 3.6 M10.1 0.4 L10.05 3.05 9.85 4.25 9.35 4.25 8.7 4.85 9.75 4.9 9.65 5.35 8.3 5.25 8.25 5.3 8.4 5.9 9.5 6.0 9.4 6.4 8.5 6.35 8.65 6.95 9.3 7.05 9.25 7.35 8.9 7.3 8.75 7.35 8.7 7.3 8.1 5.15 9.8 3.55 6.05 4.75 4.1 3.45 5.7 5.1 5.45 6.0 3.75 3.0 6.05 3.0 5.95 3.25 6.05 4.75 6.85 6.25 8.85 7.85 8.85 7.95 9.1 7.95 8.85 9.2 7.65 8.95 6.85 6.65 6.85 6.85 6.5 7.85 6.45 7.8 6.2 8.75 6.25 10.35 4.35 8.55 5.35 8.65 6.15 7.25 5.9 6.85 5.15 7.35 6.05 4.75 7.5 3.2 7.45 3.05 8.6 3.05 10.1 0.4 M9.95 5.4 L10.0 4.95 10.05 4.95 10.05 5.4 9.95 5.4 M9.85 6.45 L9.9 6.05 10.05 6.05 10.05 6.5 9.85 6.45 M9.75 7.4 L9.75 7.1 10.05 7.15 10.05 7.45 9.75 7.4 M6.25 10.35 L9.85 9.5 9.5 9.4 9.65 8.05 10.05 8.1 10.05 11.45 11.95 12.1 12.1 11.55 13.2 11.95 13.7 13.2 11.3 13.9 11.8 12.4 11.6 12.35 10.2 12.0 10.05 11.85 8.7 11.1 9.25 11.25 9.45 9.8 8.6 10.35 8.45 11.2 8.65 11.6 8.5 11.55 8.3 11.0 8.35 11.05 8.3 10.9 8.15 10.65 6.25 10.35 7.05 11.45 5.4 12.15 6.25 10.35 M13.2 11.95 L12.85 9.8 13.85 7.8 13.9 7.85 13.2 11.95 18.35 11.15 17.1 11.7 16.4 11.9 16.4 11.95 15.45 12.5 13.2 11.95 M15.45 8.05 L14.05 7.05 13.95 7.0 13.4 7.1 13.45 7.1 11.35 8.25 12.35 5.45 13.45 5.25 16.8 9.0 15.45 8.05 M15.7 13.4 L15.65 13.35 16.15 13.5 15.7 13.4 M5.0 9.25 L5.95 10.3 5.9 10.4 5.9 10.45 5.75 10.9 4.25 10.5 5.0 9.25 M9.25 11.25 L10.05 11.45 9.8 11.35 9.25 11.25" fill="#7f6600" fill-rule="evenodd" stroke="none"/>
    <path d="M10.4 3.6 L13.45 5.25 12.35 5.45 10.4 3.6 M9.65 5.35 L9.95 5.4 10.05 5.4 10.95 5.5 8.25 5.3 8.3 5.25 9.65 5.35 M9.4 6.4 L9.85 6.45 10.05 6.5 11.6 6.65 11.6 6.7 11.4 7.25 11.3 7.3 11.5 6.7 8.5 6.35 9.4 6.4 M9.25 7.35 L9.75 7.4 10.05 7.45 11.35 7.6 11.35 7.65 11.2 8.2 11.05 8.25 11.25 7.65 8.75 7.35 8.9 7.3 9.25 7.35 M6.05 4.75 L8.85 7.85 6.85 6.25 6.05 4.75 5.95 3.25 6.05 3.0 6.65 0.75 6.05 4.75 5.15 7.35 5.45 6.0 5.7 5.1 4.1 3.45 6.05 4.75 M6.85 6.85 L6.25 10.35 6.2 8.75 6.45 7.8 6.5 7.85 6.85 6.85 M12.1 11.55 L10.35 9.65 13.2 11.95 12.1 11.55 M10.75 4.3 L11.45 5.05 11.3 5.0 10.6 4.3 10.75 4.3 M11.8 5.5 L11.85 5.55 11.7 6.2 11.6 6.2 11.8 5.55 11.8 5.5 M13.7 13.2 L13.2 11.95 16.3 15.35 13.7 13.2 M4.35 8.55 L6.25 10.35 5.4 12.15 5.75 10.9 5.9 10.45 5.9 10.4 5.95 10.3 5.0 9.25 4.35 8.55 M9.25 11.25 L9.8 11.35 10.05 11.45 9.25 11.25 M7.05 11.45 L6.25 10.35 8.95 13.2 7.05 11.45" fill="#000000" fill-rule="evenodd" stroke="none"/>
  </g>
</svg>
