<?xml version="1.0" encoding="UTF-8" standalone="no"?>
<svg xmlns:ffdec="https://www.free-decompiler.com/flash" xmlns:xlink="http://www.w3.org/1999/xlink" ffdec:objectType="shape" height="15.7px" width="14.05px" xmlns="http://www.w3.org/2000/svg">
  <g transform="matrix(1.0, 0.0, 0.0, 1.0, -4.9, -0.3)">
    <path d="M10.1 0.4 L10.0 1.55 11.1 3.65 11.45 3.55 11.55 3.45 11.7 3.45 11.55 3.1 12.75 3.15 12.65 3.3 12.7 5.3 10.35 3.6 12.0 5.5 11.15 8.35 12.7 5.3 13.5 7.1 13.3 7.2 12.95 7.2 13.4 7.95 12.5 9.95 12.5 12.15 10.3 9.65 10.25 9.65 11.85 11.7 11.75 11.95 11.75 12.05 11.55 12.55 11.4 12.45 11.35 12.45 10.05 14.1 8.9 11.5 8.75 11.45 8.6 10.9 8.45 10.55 6.7 10.1 8.05 8.8 7.4 6.5 6.9 8.55 6.85 8.55 6.7 10.1 6.65 10.05 6.5 10.6 5.3 10.2 5.9 9.0 5.4 8.3 6.2 8.45 6.85 7.15 6.65 6.7 6.0 7.15 6.25 5.9 4.9 2.95 6.75 3.0 6.5 4.7 5.2 3.4 5.15 3.4 6.3 4.85 6.4 5.0 6.5 4.7 7.4 6.15 9.0 7.75 8.9 7.3 8.85 6.9 8.7 6.3 8.45 5.25 8.45 5.1 6.5 4.7 7.95 3.2 7.9 3.05 8.85 3.05 10.1 0.4 M8.45 5.25 L11.5 5.6 11.65 5.6 8.7 5.25 8.45 5.25 M8.7 6.3 L9.9 6.5 9.9 6.45 8.9 6.3 8.7 6.3 M8.9 7.3 L11.05 7.7 11.2 7.65 9.1 7.25 8.9 7.3 M15.55 7.35 L15.2 6.05 18.25 3.9 12.7 5.3 14.75 3.5 14.65 3.15 18.9 3.25 15.55 7.35 M10.1 6.55 L11.2 6.7 11.4 6.7 11.25 6.65 10.1 6.55 M13.85 7.45 L14.8 8.25 14.5 8.65 13.85 7.45 M17.6 11.7 L16.4 12.2 15.85 12.3 15.7 12.35 16.4 13.7 17.85 14.9 15.05 13.85 14.8 12.9 12.5 12.15 17.6 11.7 M13.25 13.45 L11.15 13.95 12.5 12.15 13.25 13.45 M14.95 10.9 L14.35 10.6 13.55 8.35 14.95 10.9 M9.6 4.25 L9.4 4.25 10.05 4.3 9.6 4.25 M6.7 10.1 L7.55 11.25 6.2 11.85 6.7 10.1" fill="#7f6600" fill-rule="evenodd" stroke="none"/>
    <path d="M8.45 5.25 L8.7 5.25 11.65 5.6 11.5 5.6 8.45 5.25 M8.7 6.3 L8.9 6.3 9.9 6.45 9.9 6.5 8.7 6.3 M8.9 7.3 L9.1 7.25 11.2 7.65 11.05 7.7 8.9 7.3 M9.0 7.75 L7.4 6.15 6.5 4.7 6.4 5.0 6.3 4.85 5.15 3.4 5.2 3.4 6.5 4.7 6.75 3.0 7.25 0.8 6.5 4.7 9.0 7.75 M6.5 10.6 L6.65 10.05 6.7 10.1 6.85 8.55 6.9 8.55 7.4 6.5 6.7 10.1 8.7 12.6 7.65 11.35 7.55 11.25 6.7 10.1 6.2 11.85 6.5 10.6 M10.05 14.1 L11.35 12.45 11.4 12.45 10.1 14.05 10.05 14.1 M11.55 12.55 L11.75 12.05 11.75 11.95 11.85 11.7 10.25 9.65 10.3 9.65 12.5 12.15 12.5 9.95 13.4 7.95 13.4 8.0 12.5 12.15 11.15 13.95 11.6 12.55 11.55 12.55 M13.5 7.1 L12.7 5.3 11.15 8.35 12.0 5.5 10.35 3.6 12.7 5.3 12.65 3.3 12.75 3.15 13.75 0.3 12.7 5.3 16.1 9.3 14.85 8.3 14.5 8.7 14.5 8.65 14.8 8.25 13.85 7.45 13.6 7.15 13.5 7.1 M15.55 7.35 L18.9 3.25 18.95 3.25 15.55 7.4 15.55 7.35 M10.1 6.55 L11.25 6.65 11.4 6.7 11.2 6.7 10.1 6.55 M15.65 16.0 L13.25 13.45 12.5 12.15 15.65 16.0 M9.6 4.25 L10.05 4.3 9.4 4.25 9.6 4.25" fill="#000000" fill-rule="evenodd" stroke="none"/>
    <path d="M11.55 3.1 L11.7 3.45 11.55 3.45 11.45 3.55 11.1 3.65 10.0 1.55 10.1 0.4 11.55 3.1 M7.9 3.05 L7.95 3.2 6.5 4.7 8.45 5.1 8.45 5.25 8.7 6.3 8.85 6.9 8.9 7.3 9.0 7.75 6.5 4.7 7.25 0.8 7.9 3.05 M7.4 6.5 L8.05 8.8 6.7 10.1 8.45 10.55 8.6 10.9 8.75 11.45 9.1 13.1 8.7 12.6 6.7 10.1 7.4 6.5 M13.4 7.95 L12.95 7.2 13.3 7.2 13.5 7.1 13.6 7.15 13.85 7.45 14.5 8.65 14.5 8.7 15.8 11.05 17.6 11.7 12.5 12.15 14.8 12.9 15.05 13.85 15.65 16.0 12.5 12.15 13.4 8.0 13.4 7.95 M14.65 3.15 L14.75 3.5 12.7 5.3 18.25 3.9 15.2 6.05 15.55 7.35 15.55 7.4 16.1 9.3 12.7 5.3 13.75 0.3 14.65 3.15 M16.4 12.2 L17.85 14.9 16.4 13.7 15.7 12.35 15.85 12.3 16.4 12.2 M14.95 10.9 L13.55 8.35 14.35 10.6 14.95 10.9" fill="#ffcc00" fill-rule="evenodd" stroke="none"/>
  </g>
</svg>
