<?xml version="1.0" encoding="UTF-8" standalone="no"?>
<svg xmlns:ffdec="https://www.free-decompiler.com/flash" xmlns:xlink="http://www.w3.org/1999/xlink" ffdec:objectType="shape" height="16.25px" width="11.45px" xmlns="http://www.w3.org/2000/svg">
  <g transform="matrix(1.0, 0.0, 0.0, 1.0, -6.15, -0.25)">
    <path d="M9.1 3.05 L9.0 3.35 9.25 3.35 9.4 3.05 9.45 3.05 10.0 1.55 10.1 0.4 11.25 3.1 12.2 3.15 12.15 3.3 12.2 3.3 11.8 5.35 10.25 3.6 11.6 5.5 11.1 7.85 11.8 5.35 12.75 7.1 12.85 7.25 13.95 8.45 13.7 8.85 13.7 8.9 14.7 11.2 14.75 11.4 14.8 11.4 14.9 11.45 13.8 12.25 16.35 12.2 15.3 12.65 15.0 12.7 15.3 14.2 16.55 15.6 14.2 14.3 14.15 14.25 13.95 13.25 11.65 12.3 13.55 10.85 12.75 8.15 12.7 8.1 12.0 10.1 11.65 12.3 11.45 11.95 11.4 12.2 11.35 12.3 11.25 12.65 11.15 12.55 11.1 12.55 10.05 14.1 9.15 11.5 8.95 10.9 8.8 10.45 7.2 9.95 8.5 8.75 8.05 6.45 7.2 9.95 6.8 9.7 6.95 9.35 6.85 9.0 6.5 8.1 7.1 8.3 7.4 8.35 7.75 7.5 7.6 7.05 7.45 6.6 6.95 7.05 7.0 5.4 6.15 2.95 7.4 3.0 7.35 3.25 6.65 3.3 6.35 3.4 7.0 4.65 8.45 3.15 8.4 3.0 8.5 3.0 9.1 3.05 M8.85 5.2 L8.8 5.1 7.0 4.65 9.15 7.55 9.1 7.25 10.75 7.75 10.95 7.7 9.3 7.2 9.2 7.2 9.15 6.9 9.05 6.9 8.95 6.3 10.95 6.75 11.1 6.75 9.2 6.25 9.05 6.3 8.95 5.85 8.9 5.85 8.8 5.2 8.85 5.25 11.15 5.65 11.3 5.6 11.15 5.6 9.1 5.2 8.85 5.2 M11.8 5.35 L13.9 3.5 13.8 3.2 17.5 3.3 14.55 7.55 14.25 6.15 11.8 5.35 M10.05 11.85 L10.0 11.4 9.45 11.1 10.05 11.85 M9.65 4.25 L9.5 4.25 10.0 4.3 9.65 4.25" fill="#7f6600" fill-rule="evenodd" stroke="none"/>
    <path d="M10.1 0.4 L10.0 1.55 9.45 3.05 9.4 3.05 9.25 3.35 9.0 3.35 9.1 3.05 10.1 0.4 M8.5 3.0 L8.4 3.0 7.9 0.85 8.5 3.0 M8.85 5.2 L9.1 5.2 11.15 5.6 11.3 5.6 11.15 5.65 8.85 5.25 8.8 5.2 8.85 5.2 M9.05 6.3 L9.2 6.25 11.1 6.75 10.95 6.75 8.95 6.3 8.95 6.25 9.05 6.3 M9.2 7.2 L9.3 7.2 10.95 7.7 10.75 7.75 9.1 7.25 9.2 7.2 M7.0 4.65 L6.35 3.4 6.65 3.3 7.35 3.25 7.0 4.65 M7.6 7.05 L7.75 7.5 7.4 8.35 7.1 8.3 7.6 7.05 M6.85 9.0 L6.95 9.35 6.8 9.7 7.2 9.95 8.05 11.15 7.15 11.6 7.2 10.35 6.45 9.95 6.85 9.0 M8.95 10.9 L9.15 11.5 9.35 13.05 8.95 10.9 M10.05 14.1 L11.1 12.55 11.15 12.55 10.1 14.05 10.05 14.1 M11.25 12.65 L11.35 12.3 11.4 12.2 11.45 11.95 11.65 12.3 12.0 10.1 12.7 8.1 12.75 8.15 11.65 12.3 12.65 13.7 10.9 14.1 11.25 12.65 M14.15 14.25 L14.2 14.3 14.55 15.95 14.15 14.25 M13.7 8.9 L13.7 8.85 13.95 8.45 12.85 7.25 12.75 7.1 11.8 5.35 11.1 7.85 11.6 5.5 10.25 3.6 11.8 5.35 12.2 3.3 12.15 3.3 12.2 3.15 13.05 0.25 11.8 5.35 15.05 9.6 14.0 8.5 13.7 8.9 M14.55 7.55 L17.5 3.3 17.6 3.3 14.6 7.65 14.55 7.55 M10.05 11.85 L9.45 11.1 10.0 11.4 10.05 11.85 M9.65 4.25 L10.0 4.3 9.5 4.25 9.65 4.25" fill="#000000" fill-rule="evenodd" stroke="none"/>
    <path d="M8.4 3.0 L8.45 3.15 7.0 4.65 8.8 5.1 8.85 5.2 8.8 5.2 8.9 5.85 8.95 5.85 9.05 6.3 8.95 6.25 8.95 6.3 9.05 6.9 9.15 6.9 9.2 7.2 9.1 7.25 9.15 7.55 7.0 4.65 7.35 3.25 7.4 3.0 7.9 0.85 8.4 3.0 M7.2 9.95 L8.05 6.45 8.5 8.75 7.2 9.95 8.8 10.45 8.95 10.9 9.35 13.05 8.05 11.15 7.2 9.95 M12.75 8.15 L13.55 10.85 11.65 12.3 13.95 13.25 14.15 14.25 14.55 15.95 14.65 16.5 12.65 13.7 11.65 12.3 12.75 8.15 M16.55 15.6 L15.3 14.2 15.0 12.7 15.3 12.65 16.55 15.6 M16.35 12.2 L13.8 12.25 14.9 11.45 16.35 12.2 M14.8 11.4 L14.75 11.4 14.7 11.2 14.8 11.4 M13.8 3.2 L13.9 3.5 11.8 5.35 13.05 0.25 13.8 3.2 M11.8 5.35 L14.25 6.15 14.55 7.55 14.6 7.65 15.05 9.6 11.8 5.35" fill="#ffcc00" fill-rule="evenodd" stroke="none"/>
  </g>
</svg>
