<?xml version="1.0" encoding="UTF-8" standalone="no"?>
<svg xmlns:ffdec="https://www.free-decompiler.com/flash" xmlns:xlink="http://www.w3.org/1999/xlink" ffdec:objectType="shape" height="16.75px" width="8.2px" xmlns="http://www.w3.org/2000/svg">
  <g transform="matrix(1.0, 0.0, 0.0, 1.0, -7.4, -0.2)">
    <path d="M10.1 0.4 L10.0 1.55 9.9 2.15 10.0 1.6 10.6 3.65 10.85 3.5 10.9 3.45 11.0 3.45 10.9 3.1 11.4 3.15 10.75 5.4 10.75 5.65 10.65 6.3 10.75 6.3 10.75 6.75 10.6 6.75 10.5 7.4 10.7 7.35 10.7 7.75 10.45 7.75 10.4 8.35 10.6 8.3 10.7 7.85 10.7 8.35 11.7 7.4 11.9 8.25 11.35 10.15 11.0 9.95 10.2 9.7 10.7 12.4 11.6 13.95 10.65 14.15 10.7 12.95 10.7 12.8 10.05 14.1 9.6 12.1 9.6 12.95 9.35 10.95 9.2 10.35 10.0 9.5 9.9 9.45 9.0 8.65 8.7 6.45 7.8 9.8 8.55 11.1 8.1 11.4 7.8 9.9 7.65 9.7 7.7 9.6 7.75 9.3 7.65 8.0 8.05 8.15 8.4 7.0 8.3 6.6 8.25 6.45 8.6 6.2 9.4 7.45 9.35 7.2 9.5 7.2 9.45 6.9 9.3 6.85 9.25 6.25 9.4 6.25 9.35 5.85 9.2 5.8 9.15 5.2 9.25 5.2 9.2 5.05 9.6 4.25 9.65 4.25 9.95 3.55 7.65 4.6 8.95 3.15 8.6 0.9 9.2 3.05 9.45 3.05 10.1 0.4 M13.1 6.25 L15.1 4.0 12.95 3.6 12.8 3.55 12.2 0.2 12.9 3.2 15.45 3.35 15.1 4.0 13.45 7.35 13.5 7.5 13.65 9.85 13.1 6.25 M10.15 4.35 L10.5 5.05 10.55 5.1 10.65 5.05 10.55 4.75 10.35 4.35 10.15 4.35 M12.1 8.9 L12.85 11.45 12.55 11.05 12.1 8.9 M10.7 12.4 L14.6 12.6 13.85 13.0 13.8 12.9 13.4 12.95 13.35 13.0 13.3 13.0 13.8 14.65 14.8 16.2 13.25 14.8 13.35 16.95 12.85 13.5 10.7 12.4 M12.8 8.6 L12.65 8.95 12.3 7.8 12.8 8.6 M7.65 4.6 L7.55 3.6 7.4 2.9 8.05 2.95 7.65 4.6" fill="#000000" fill-rule="evenodd" stroke="none"/>
    <path d="M10.9 3.1 L11.0 3.45 10.9 3.45 10.85 3.5 10.6 3.65 10.0 1.6 9.9 2.15 10.0 1.55 10.1 0.4 10.9 3.1 M7.65 4.6 L9.95 3.55 9.65 4.25 9.6 4.25 9.2 5.05 7.65 4.6 8.6 6.2 8.25 6.45 8.3 6.6 8.0 6.95 7.65 4.6 M9.0 8.65 L9.9 9.45 10.0 9.5 9.2 10.35 7.8 9.8 9.0 8.65 M10.05 14.1 L10.7 12.8 10.7 12.95 10.1 14.05 10.1 14.1 10.05 14.1 M10.7 12.4 L10.2 9.7 11.0 9.95 11.35 10.15 10.7 12.4 12.55 11.05 12.85 11.45 12.1 8.9 11.9 8.25 11.7 7.4 10.7 8.35 10.7 7.85 10.7 7.75 10.7 7.35 10.75 6.75 10.75 6.3 10.75 5.65 10.75 5.4 12.8 3.55 12.95 3.6 15.1 4.0 13.1 6.25 10.75 5.4 12.3 7.8 12.65 8.95 12.8 8.6 12.9 8.7 12.7 9.05 13.45 11.7 14.6 12.6 10.7 12.4 M13.5 7.5 L13.45 7.35 15.1 4.0 15.45 3.35 15.6 3.35 13.5 7.5 M10.15 4.35 L10.35 4.35 10.55 4.75 10.65 5.05 10.55 5.1 10.5 5.05 10.15 4.35 M12.0 8.0 L12.1 8.15 12.05 7.85 12.0 8.0 M14.8 16.2 L13.8 14.65 13.3 13.0 13.35 13.0 13.4 12.95 13.8 12.9 13.85 13.0 14.8 16.2" fill="#7f6600" fill-rule="evenodd" stroke="none"/>
    <path d="M8.6 0.9 L8.95 3.15 7.65 4.6 9.2 5.05 9.25 5.2 9.15 5.2 9.2 5.8 9.35 5.85 9.4 6.25 9.25 6.25 9.3 6.85 9.45 6.9 9.5 7.2 9.35 7.2 9.4 7.45 8.6 6.2 7.65 4.6 8.05 2.95 8.6 0.9 M8.55 11.1 L7.8 9.8 8.7 6.45 9.0 8.65 7.8 9.8 9.2 10.35 9.35 10.95 9.6 12.95 8.55 11.1 M11.6 13.95 L10.7 12.4 11.35 10.15 11.9 8.25 12.1 8.9 12.55 11.05 10.7 12.4 12.85 13.5 13.35 16.95 11.6 13.95 M10.7 7.85 L10.6 8.3 10.4 8.35 10.45 7.75 10.7 7.75 10.7 7.85 M10.7 7.35 L10.5 7.4 10.6 6.75 10.75 6.75 10.7 7.35 M10.75 6.3 L10.65 6.3 10.75 5.65 10.75 6.3 M10.75 5.4 L11.4 3.15 12.2 0.2 12.8 3.55 10.75 5.4 13.1 6.25 13.65 9.85 12.9 8.7 12.8 8.6 12.3 7.8 10.75 5.4 M12.0 8.0 L12.05 7.85 12.1 8.15 12.0 8.0" fill="#ffcc00" fill-rule="evenodd" stroke="none"/>
  </g>
</svg>
