<?xml version="1.0" encoding="UTF-8" standalone="no"?>
<svg xmlns:ffdec="https://www.free-decompiler.com/flash" xmlns:xlink="http://www.w3.org/1999/xlink" ffdec:objectType="shape" height="17.1px" width="4.75px" xmlns="http://www.w3.org/2000/svg">
  <g transform="matrix(1.0, 0.0, 0.0, 1.0, -8.35, -0.15)">
    <path d="M10.45 2.75 L11.2 0.15 11.55 3.55 9.75 5.4 10.45 2.75 M12.95 3.35 L13.1 3.4 12.55 5.4 11.85 8.05 12.05 7.15 11.95 7.0 12.7 4.25 11.7 6.35 9.75 5.4 12.8 4.1 12.95 3.35 M11.5 9.05 L11.5 9.15 11.45 8.95 11.5 9.05 M12.3 13.1 L12.2 13.85 12.1 13.25 12.3 13.1 M12.0 15.5 L11.85 17.25 11.55 14.15 11.75 14.85 11.7 14.9 12.0 15.5 M10.2 13.75 L10.15 14.05 10.05 14.1 10.15 13.6 10.2 13.75 M9.9 12.75 L9.85 12.95 9.1 11.25 8.4 9.65 8.5 9.45 8.9 8.0 9.2 7.0 9.3 6.65 8.4 4.75 8.35 4.55 8.75 3.1 8.8 2.95 9.35 0.9 9.55 3.15 8.35 4.55 10.0 3.55 9.85 4.2 9.75 4.2 9.6 4.8 9.7 4.85 9.65 5.05 9.65 5.15 9.7 5.15 9.5 5.2 9.55 5.8 9.7 5.9 9.7 6.2 9.55 6.2 9.6 6.85 9.75 7.0 9.75 7.15 9.6 7.15 9.6 7.3 9.4 6.85 9.5 8.65 8.4 9.65 9.65 10.35 9.65 10.75 9.7 10.8 9.85 12.0 9.75 12.4 9.9 12.7 9.9 12.75 M10.0 1.55 L10.0 1.7 9.85 3.05 9.8 3.3 10.0 1.55 M9.75 12.4 L11.0 8.3 11.35 11.2 11.5 11.5 11.5 11.75 11.55 11.65 11.7 11.9 11.9 12.05 11.9 11.9 12.5 12.9 9.8 12.4 9.75 12.4" fill="#7f6600" fill-rule="evenodd" stroke="none"/>
    <path d="M11.2 0.15 L12.05 3.25 12.95 3.35 12.8 4.1 9.75 5.4 11.55 3.55 11.2 0.15 M12.55 5.4 L12.0 10.0 11.85 8.05 11.7 6.35 12.7 4.25 11.95 7.0 12.05 7.15 11.85 8.05 12.55 5.4 M11.5 9.15 L12.4 12.2 12.5 12.9 12.3 13.1 12.1 13.25 12.2 13.85 12.6 16.55 12.0 15.5 11.7 14.9 11.75 14.85 11.55 14.15 11.55 13.7 9.9 12.5 9.8 12.4 12.5 12.9 11.9 11.9 11.9 12.05 11.7 11.9 11.55 11.65 11.5 11.75 11.5 11.5 11.35 11.2 11.0 8.3 9.75 12.4 9.85 12.0 9.7 10.8 9.65 10.75 9.65 10.35 8.4 9.65 9.5 8.65 9.4 6.85 9.6 7.3 9.6 7.15 9.75 7.15 9.75 7.0 9.6 6.85 9.55 6.2 9.7 6.2 9.7 5.9 9.55 5.8 9.5 5.2 9.7 5.15 9.65 5.15 9.65 5.05 9.7 4.85 9.6 4.8 9.75 4.2 9.85 4.2 10.0 3.55 8.35 4.55 9.55 3.15 9.35 0.9 9.85 2.6 10.1 0.4 10.45 2.75 9.75 5.4 11.45 8.95 11.5 9.15 M10.5 14.15 L10.4 14.2 10.2 13.75 10.15 13.6 10.05 14.1 9.9 12.8 9.9 12.75 10.5 14.15 M9.1 11.25 L9.05 11.3 8.4 9.65 9.1 11.25 M8.5 9.45 L8.85 7.9 8.9 8.0 8.5 9.45 M9.2 7.0 L9.15 6.65 9.0 6.9 8.4 4.75 9.3 6.65 9.2 7.0 M8.75 3.1 L8.7 2.95 8.8 2.95 8.75 3.1 M10.0 1.55 L9.8 3.3 9.85 3.05 10.0 1.7 10.0 1.55 M10.3 8.35 L10.35 8.1 10.25 7.75 10.15 7.75 10.1 8.35 10.3 8.35" fill="#000000" fill-rule="evenodd" stroke="none"/>
    <path d="M12.0 10.0 L11.5 9.05 11.45 8.95 9.75 5.4 11.7 6.35 11.85 8.05 12.0 10.0 M11.85 17.25 L10.5 14.15 9.9 12.75 9.9 12.7 9.75 12.4 9.8 12.4 9.9 12.5 11.55 13.7 11.55 14.15 11.85 17.25 M10.3 8.35 L10.1 8.35 10.15 7.75 10.25 7.75 10.35 8.1 10.3 8.35" fill="#ffcc00" fill-rule="evenodd" stroke="none"/>
  </g>
</svg>
