<?xml version="1.0" encoding="UTF-8" standalone="no"?>
<svg xmlns:ffdec="https://www.free-decompiler.com/flash" xmlns:xlink="http://www.w3.org/1999/xlink" ffdec:objectType="shape" height="17.2px" width="2.95px" xmlns="http://www.w3.org/2000/svg">
  <g transform="matrix(1.0, 0.0, 0.0, 1.0, -8.7, -0.15)">
    <path d="M10.1 3.25 L10.15 3.25 10.25 3.2 10.35 3.35 10.15 3.35 10.15 4.15 10.15 6.35 8.7 5.4 10.1 3.65 10.1 3.25 M10.15 4.15 L10.25 4.1 10.35 4.15 10.35 3.8 11.65 5.35 10.3 6.3 10.35 4.15 10.25 4.75 10.15 4.15 M9.1 9.6 L9.85 8.85 9.85 8.95 9.55 9.95 9.1 9.6 M8.8 12.35 L10.05 11.3 10.05 9.55 10.2 10.05 10.3 9.8 10.3 11.3 11.5 12.35 10.3 13.6 10.35 15.0 10.2 16.7 10.1 15.2 10.05 15.0 10.05 13.65 8.8 12.35 M11.05 9.6 L10.75 9.8 10.5 9.05 11.05 9.6" fill="#000000" fill-rule="evenodd" stroke="none"/>
    <path d="M10.1 3.25 L10.1 3.65 8.7 5.4 10.15 6.35 10.15 4.15 10.15 3.35 10.35 3.35 10.25 3.2 10.15 3.25 10.1 3.25 M11.65 5.35 L10.35 3.8 10.35 4.15 10.25 4.1 10.15 4.15 10.25 4.75 10.35 4.15 10.3 6.3 11.65 5.35 10.7 8.5 11.05 9.6 10.85 10.2 11.5 12.35 10.3 11.3 10.3 9.8 10.2 10.05 10.05 9.55 10.05 11.3 8.8 12.35 9.4 10.5 9.1 9.6 9.6 8.05 8.7 5.4 10.15 0.15 11.65 5.35 M9.1 9.6 L9.55 9.95 9.85 8.95 9.85 8.85 9.1 9.6 M11.05 9.6 L10.5 9.05 10.75 9.8 11.05 9.6 M8.8 12.35 L10.05 13.65 10.05 15.0 10.1 15.2 10.2 16.7 10.35 15.0 10.3 13.6 11.5 12.35 10.15 17.35 8.8 12.35" fill="#7f6600" fill-rule="evenodd" stroke="none"/>
  </g>
</svg>
