<?xml version="1.0" encoding="UTF-8" standalone="no"?>
<svg xmlns:ffdec="https://www.free-decompiler.com/flash" xmlns:xlink="http://www.w3.org/1999/xlink" ffdec:objectType="shape" height="17.1px" width="4.35px" xmlns="http://www.w3.org/2000/svg">
  <g transform="matrix(1.0, 0.0, 0.0, 1.0, -7.45, -0.15)">
    <path d="M10.2 1.7 L10.2 1.55 10.3 2.55 10.2 1.7 M9.85 2.55 L10.5 5.0 10.5 4.85 10.6 4.8 10.45 4.2 10.35 4.2 10.2 3.55 11.8 4.55 10.65 3.15 10.8 0.9 11.8 4.55 10.85 6.7 10.9 6.95 11.15 7.6 11.7 9.65 10.55 12.4 10.4 11.55 10.5 10.8 10.5 10.75 10.55 10.35 11.7 9.65 10.65 8.65 10.75 6.85 10.55 7.25 10.55 7.2 10.4 7.15 10.4 7.0 10.6 6.85 10.65 6.2 10.45 6.2 10.45 5.9 10.65 5.8 10.7 5.25 10.7 5.2 10.55 5.15 10.6 5.4 8.85 3.55 9.15 0.15 9.85 2.55 M10.15 14.1 L10.05 14.05 10.0 13.8 10.0 13.65 10.15 14.1 M8.55 17.25 L8.35 15.6 8.65 14.95 8.75 14.6 8.75 14.8 8.55 17.25 M8.2 14.25 L8.05 12.95 8.35 13.25 8.2 14.25 M8.45 10.0 L8.1 7.6 8.15 6.4 7.75 4.7 7.45 3.4 7.6 3.35 7.75 4.1 10.6 5.4 8.7 6.3 7.75 4.1 8.45 7.0 8.55 6.1 8.7 6.3 8.45 10.0 M10.55 12.4 L9.0 11.2 9.35 8.3 10.55 12.4 M9.2 8.45 L9.15 8.6 9.15 8.55 9.2 8.45" fill="#7f6600" fill-rule="evenodd" stroke="none"/>
    <path d="M10.2 1.7 L10.3 2.55 10.2 1.55 10.2 1.7 M9.85 2.55 L10.1 0.4 10.35 2.45 10.8 0.9 10.65 3.15 11.8 4.55 10.2 3.55 10.35 4.2 10.45 4.2 10.6 4.8 10.5 4.85 10.5 5.0 9.85 2.55 M11.8 4.55 L11.1 6.9 10.95 6.65 10.9 6.95 10.85 6.7 11.8 4.55 M10.2 13.2 L10.15 14.1 10.0 13.65 10.2 13.2 M8.35 15.6 L7.85 16.6 8.2 14.25 8.35 13.25 8.05 12.95 7.95 12.9 7.95 12.2 8.8 9.2 9.15 8.55 9.15 8.6 9.2 8.45 10.6 5.4 10.55 5.15 10.7 5.2 10.7 5.25 10.65 5.8 10.45 5.9 10.45 6.2 10.65 6.2 10.6 6.85 10.4 7.0 10.4 7.15 10.55 7.2 10.55 7.25 10.75 6.85 10.65 8.65 11.7 9.65 10.55 10.35 10.5 10.75 10.5 10.8 10.4 11.55 10.55 12.4 9.35 8.3 9.0 11.2 10.55 12.4 8.8 13.7 8.8 14.15 8.85 14.1 8.8 14.3 8.8 14.4 8.75 14.6 8.65 14.95 8.35 15.6 M8.1 7.6 L7.75 5.35 7.75 4.7 8.15 6.4 8.1 7.6 M7.6 3.35 L8.3 3.3 9.15 0.15 8.85 3.55 10.6 5.4 7.75 4.1 7.6 3.35 M10.0 7.75 L9.9 8.2 9.9 8.35 10.1 8.35 10.05 7.75 10.0 7.75 M10.4 3.35 L10.3 2.55 10.4 3.35 M8.7 6.3 L8.55 6.1 8.45 7.0 7.75 4.1 8.7 6.3" fill="#000000" fill-rule="evenodd" stroke="none"/>
    <path d="M10.55 12.4 L10.2 13.2 10.0 13.65 10.0 13.8 8.55 17.25 8.75 14.8 8.75 14.6 8.8 14.4 8.8 14.3 8.85 14.1 8.8 14.15 8.8 13.7 10.55 12.4 M8.8 9.2 L8.45 10.0 8.7 6.3 10.6 5.4 9.2 8.45 9.15 8.55 8.8 9.2 M10.0 7.75 L10.05 7.75 10.1 8.35 9.9 8.35 9.9 8.2 10.0 7.75" fill="#ffcc00" fill-rule="evenodd" stroke="none"/>
  </g>
</svg>
