<?xml version="1.0" encoding="UTF-8" standalone="no"?>
<svg xmlns:ffdec="https://www.free-decompiler.com/flash" xmlns:xlink="http://www.w3.org/1999/xlink" ffdec:objectType="shape" height="16.8px" width="7.75px" xmlns="http://www.w3.org/2000/svg">
  <g transform="matrix(1.0, 0.0, 0.0, 1.0, -4.9, -0.2)">
    <path d="M8.95 3.15 L9.6 5.4 8.6 4.5 7.55 3.55 8.15 0.2 8.95 3.15 M9.55 6.75 L9.7 6.75 9.75 7.4 9.55 7.35 9.55 6.75 M9.55 7.75 L9.8 7.75 9.85 8.35 9.6 8.35 9.55 7.85 9.55 7.75 M8.4 8.25 L8.95 10.1 9.6 12.4 8.7 14.0 7.0 17.0 7.4 14.3 7.45 14.2 7.45 14.15 7.5 13.55 9.6 12.4 7.8 11.05 8.2 9.0 8.4 8.25 M10.6 12.95 L10.95 10.35 12.35 9.75 11.15 8.65 11.45 6.4 10.8 7.45 10.85 7.2 10.7 7.2 10.75 6.9 10.85 6.85 10.95 6.25 10.8 6.25 10.85 5.85 11.0 5.8 11.05 5.2 10.9 5.2 10.95 5.05 12.5 4.6 11.55 6.2 11.45 6.4 12.35 9.75 11.6 11.15 10.6 12.95 M12.5 4.6 L11.2 3.15 11.55 0.9 12.1 2.95 12.5 4.6 M7.3 6.3 L9.6 5.4 8.0 7.9 7.55 8.65 7.5 8.75 6.75 9.85 7.05 7.85 7.1 7.65 7.3 6.3 M8.3 7.85 L8.4 8.15 8.2 8.35 8.3 7.85" fill="#ffcc00" fill-rule="evenodd" stroke="none"/>
    <path d="M9.35 3.1 L9.3 3.45 9.55 3.55 9.65 3.55 9.65 3.65 10.15 1.65 10.55 3.05 10.15 1.45 10.1 0.4 10.75 3.05 10.95 3.05 11.55 0.9 11.2 3.15 12.5 4.6 10.25 3.55 10.55 4.25 10.6 4.25 10.95 5.05 10.9 5.2 11.05 5.2 11.0 5.8 10.85 5.85 10.8 6.25 10.95 6.25 10.85 6.85 10.75 6.9 10.7 7.2 10.85 7.2 10.8 7.45 11.45 6.4 11.15 8.65 10.25 9.5 10.85 10.2 10.95 10.35 10.6 12.95 10.55 12.15 10.1 14.1 9.6 12.9 9.6 13.1 9.6 14.15 8.7 14.0 9.6 12.4 10.0 9.7 8.95 10.1 8.4 8.25 8.65 7.45 9.55 8.4 9.55 7.85 9.6 8.35 9.85 8.35 9.8 7.75 9.55 7.75 9.55 7.35 9.75 7.4 9.7 6.75 9.55 6.75 9.6 6.3 9.6 5.4 8.95 3.15 9.35 3.1 M12.1 2.95 L12.65 2.95 12.55 3.55 12.5 4.6 12.1 2.95 M11.85 6.55 L11.75 7.0 12.05 8.15 12.4 8.0 12.35 9.45 12.45 9.75 12.35 9.75 12.0 11.4 11.6 11.15 12.35 9.75 11.45 6.4 11.55 6.2 11.85 6.45 11.85 6.55 M9.6 5.4 L7.7 4.8 8.6 4.5 9.6 5.4 M8.6 4.5 L6.55 3.8 5.4 4.0 7.3 6.3 7.1 7.65 7.05 7.85 6.95 7.35 5.4 4.0 5.05 3.35 7.45 3.2 8.15 0.2 7.55 3.55 8.6 4.5 M8.0 7.9 L7.7 8.95 7.55 8.65 8.0 7.9 M5.85 12.65 L9.6 12.4 7.5 13.55 7.45 14.15 7.45 14.2 7.4 14.3 7.0 17.0 7.1 14.85 5.65 16.2 6.65 14.65 7.1 13.0 6.8 13.0 6.65 13.05 6.6 12.95 6.55 13.0 5.85 12.65 M7.8 11.05 L7.5 11.45 8.2 9.0 7.8 11.05 M9.75 5.05 L10.05 4.35 9.85 4.35 9.65 5.1 9.75 5.05 M6.85 7.4 L7.05 7.85 6.75 9.85 6.85 7.4" fill="#000000" fill-rule="evenodd" stroke="none"/>
    <path d="M10.1 0.4 L10.15 1.45 10.55 3.05 10.15 1.65 9.65 3.65 9.65 3.55 9.55 3.55 9.3 3.45 9.35 3.1 10.1 0.4 M9.6 5.4 L9.6 6.3 9.55 6.75 9.55 7.35 9.55 7.75 9.55 7.85 9.55 8.4 8.65 7.45 8.4 8.25 8.2 9.0 7.5 11.45 7.8 11.05 9.6 12.4 5.85 12.65 6.95 11.7 7.7 9.05 7.5 8.75 7.55 8.65 7.7 8.95 8.0 7.9 9.6 5.4 7.3 6.3 5.4 4.0 6.55 3.8 8.6 4.5 7.7 4.8 9.6 5.4 M8.95 10.1 L10.0 9.7 9.6 12.4 8.95 10.1 M9.6 13.1 L9.6 12.9 10.1 14.1 10.05 14.05 9.6 13.1 M10.95 10.35 L10.85 10.2 10.25 9.5 11.15 8.65 12.35 9.75 10.95 10.35 M10.95 5.05 L10.6 4.25 10.55 4.25 10.25 3.55 12.5 4.6 12.1 6.95 11.85 6.55 11.85 6.45 11.55 6.2 12.5 4.6 10.95 5.05 M9.75 5.05 L9.65 5.1 9.85 4.35 10.05 4.35 9.75 5.05 M5.05 3.35 L5.4 4.0 6.95 7.35 7.05 7.85 6.85 7.4 4.9 3.35 5.05 3.35 M8.3 7.85 L8.2 8.35 8.4 8.15 8.3 7.85 M6.55 13.0 L6.6 12.95 6.65 13.05 6.8 13.0 7.1 13.0 6.65 14.65 5.65 16.2 6.55 13.0" fill="#7f6600" fill-rule="evenodd" stroke="none"/>
  </g>
</svg>
