<?xml version="1.0" encoding="UTF-8" standalone="no"?>
<svg xmlns:ffdec="https://www.free-decompiler.com/flash" xmlns:xlink="http://www.w3.org/1999/xlink" ffdec:objectType="shape" height="16.3px" width="11.1px" xmlns="http://www.w3.org/2000/svg">
  <g transform="matrix(1.0, 0.0, 0.0, 1.0, -2.85, -0.25)">
    <path d="M10.1 0.4 L10.2 1.55 10.75 3.05 11.1 3.05 11.65 3.0 11.75 3.0 11.75 3.15 13.15 4.65 11.35 5.05 11.35 5.2 11.15 5.2 9.15 5.55 8.95 5.6 9.1 5.65 11.4 5.2 11.3 5.85 11.25 5.85 11.15 6.25 11.0 6.25 9.15 6.75 9.35 6.75 11.15 6.3 11.25 6.25 11.15 6.9 11.05 6.9 11.0 7.2 10.8 7.2 10.25 7.45 9.3 7.7 9.5 7.75 11.1 7.25 11.05 7.6 13.15 4.65 13.75 3.4 13.45 3.3 12.8 3.25 12.75 3.0 13.95 2.95 13.15 5.35 13.15 7.05 12.7 6.6 12.55 7.05 12.4 7.45 12.75 8.35 12.85 8.3 12.9 8.35 13.0 8.3 13.6 8.1 13.3 9.0 13.15 9.35 13.25 9.7 13.0 9.85 12.95 9.9 12.1 6.45 11.65 8.75 12.95 9.9 11.35 10.45 11.2 11.0 11.15 11.1 11.15 11.2 11.0 11.55 10.1 14.1 9.15 12.55 9.1 12.6 9.0 12.65 8.8 12.1 8.85 12.1 8.8 12.05 8.7 12.3 8.25 10.15 8.25 10.1 7.6 8.15 7.35 8.7 6.75 10.85 8.7 12.3 6.4 13.25 6.2 14.3 6.1 14.3 3.85 15.65 5.05 12.65 4.1 12.2 5.55 11.45 6.65 8.95 6.65 8.85 6.4 8.45 7.2 7.55 7.35 7.35 7.45 7.25 7.55 7.1 8.55 5.35 9.3 8.4 9.3 8.35 8.7 5.5 10.0 3.6 9.95 3.6 8.55 5.35 8.4 4.65 8.1 3.3 8.15 3.3 8.1 3.15 9.0 3.1 10.1 0.4 M11.1 3.05 L11.15 3.3 11.2 3.3 11.1 3.05 M10.75 4.25 L10.5 4.25 10.15 4.3 9.95 4.3 9.9 4.35 10.15 4.3 10.75 4.25 M10.1 11.85 L10.75 11.25 10.55 11.25 10.75 11.1 10.4 11.25 10.15 11.4 10.1 11.85 M6.55 3.2 L6.45 3.55 8.55 5.35 6.1 6.2 5.8 7.55 4.4 5.45 5.8 7.65 5.75 7.65 2.85 3.3 6.55 3.2 M7.5 7.75 L7.4 8.0 7.55 8.0 7.5 7.75" fill="#7f6600" fill-rule="evenodd" stroke="none"/>
    <path d="M11.1 3.05 L10.75 3.05 10.2 1.55 10.1 0.4 11.1 3.05 11.2 3.3 11.15 3.3 11.1 3.05 M8.1 3.15 L8.15 3.3 8.1 3.3 8.4 4.65 7.25 0.25 8.1 3.15 M8.55 5.35 L9.95 3.6 10.0 3.6 8.7 5.5 9.3 8.35 9.3 8.4 8.55 5.35 7.55 7.1 7.45 7.25 7.35 7.35 7.2 7.55 6.4 8.45 6.65 8.85 6.65 8.95 6.35 8.5 5.35 9.65 8.55 5.35 M6.1 14.3 L6.2 14.3 5.7 16.55 6.1 14.3 M7.6 8.15 L8.25 10.1 8.25 10.15 8.7 12.3 8.8 12.05 8.85 12.1 8.8 12.1 9.0 12.65 9.35 14.1 7.7 13.75 8.7 12.3 7.6 8.15 M9.1 12.6 L9.15 12.55 10.1 14.1 10.05 14.05 9.1 12.6 M11.0 11.55 L11.15 11.2 11.1 11.35 11.15 11.35 10.85 13.0 11.0 11.55 M12.95 9.9 L13.0 9.85 13.25 9.7 13.15 9.35 13.3 9.0 13.6 9.9 12.95 10.3 13.0 11.55 12.15 11.15 12.95 9.9 M13.0 8.3 L12.9 8.35 12.85 8.3 12.75 8.35 12.4 7.45 12.55 7.05 13.0 8.3 M12.8 3.25 L13.45 3.3 13.75 3.4 13.15 4.65 12.8 3.25 M11.1 7.25 L9.5 7.75 9.3 7.7 10.25 7.45 10.8 7.2 11.0 7.2 11.1 7.25 M11.15 6.3 L9.35 6.75 9.15 6.75 11.0 6.25 11.15 6.25 11.15 6.3 M11.4 5.2 L9.1 5.65 8.95 5.6 9.15 5.55 11.15 5.2 11.35 5.2 11.4 5.2 M11.75 3.0 L11.65 3.0 12.25 0.85 11.75 3.0 M10.75 4.25 L10.15 4.3 9.9 4.35 9.95 4.3 10.15 4.3 10.5 4.25 10.75 4.25 M10.1 11.85 L10.15 11.4 10.4 11.25 10.75 11.1 10.55 11.25 10.75 11.25 10.1 11.85 M5.8 7.65 L4.4 5.45 5.8 7.55 5.8 7.65" fill="#000000" fill-rule="evenodd" stroke="none"/>
    <path d="M8.4 4.65 L8.55 5.35 6.45 3.55 6.55 3.2 7.25 0.25 8.4 4.65 M6.2 14.3 L6.4 13.25 8.7 12.3 6.75 10.85 7.35 8.7 7.6 8.15 8.7 12.3 7.7 13.75 5.7 16.55 6.2 14.3 M11.15 11.2 L11.15 11.1 11.2 11.0 11.35 10.45 12.95 9.9 11.65 8.75 12.1 6.45 12.95 9.9 12.15 11.15 10.85 13.0 11.15 11.35 11.1 11.35 11.15 11.2 M12.75 3.0 L12.8 3.25 13.15 4.65 11.05 7.6 11.1 7.25 11.0 7.2 11.05 6.9 11.15 6.9 11.25 6.25 11.15 6.3 11.15 6.25 11.25 5.85 11.3 5.85 11.4 5.2 11.35 5.2 11.35 5.05 13.15 4.65 11.75 3.15 11.75 3.0 12.25 0.85 12.75 3.0 M5.8 7.55 L6.1 6.2 8.55 5.35 5.35 9.65 5.75 7.65 5.8 7.65 5.8 7.55 M7.5 7.75 L7.55 8.0 7.4 8.0 7.5 7.75" fill="#ffcc00" fill-rule="evenodd" stroke="none"/>
  </g>
</svg>
