<?xml version="1.0" encoding="UTF-8" standalone="no"?>
<svg xmlns:ffdec="https://www.free-decompiler.com/flash" xmlns:xlink="http://www.w3.org/1999/xlink" ffdec:objectType="shape" height="15.7px" width="13.75px" xmlns="http://www.w3.org/2000/svg">
  <g transform="matrix(1.0, 0.0, 0.0, 1.0, -1.45, -0.3)">
    <path d="M8.7 3.1 L8.55 3.45 9.0 3.55 9.05 3.55 9.15 3.65 10.15 1.55 10.1 0.4 11.35 3.05 12.3 3.05 12.25 3.2 13.7 4.7 11.75 5.1 11.7 5.2 11.7 5.25 11.5 6.3 11.3 7.25 11.2 7.7 11.2 7.75 12.75 6.15 13.7 4.7 13.75 4.95 14.9 3.4 13.7 4.7 13.4 3.0 15.2 2.95 13.9 5.8 13.9 5.85 14.1 7.15 13.5 6.7 13.3 7.15 13.9 8.45 14.7 8.3 14.2 9.0 14.75 10.15 13.6 10.6 13.9 11.8 12.6 11.25 13.5 10.1 12.75 6.5 12.15 8.8 13.5 10.1 11.75 10.55 11.55 10.9 11.45 11.45 11.3 11.5 10.1 14.1 8.85 12.45 8.85 12.5 8.65 12.55 8.5 12.05 8.5 11.95 8.4 11.7 9.95 9.65 7.8 12.2 7.8 9.95 6.9 8.0 7.3 7.2 7.0 7.25 6.8 7.15 7.65 5.35 9.1 8.35 8.25 5.5 9.9 3.6 7.65 5.35 7.6 3.3 7.55 3.15 8.7 3.1 M11.3 7.25 L11.1 7.25 9.25 7.65 9.05 7.65 9.25 7.7 11.3 7.25 M11.5 6.3 L11.3 6.3 9.05 6.65 8.85 6.7 9.05 6.7 11.5 6.3 M11.7 5.25 L11.5 5.25 10.55 5.4 11.7 5.25 M1.5 3.25 L5.65 3.15 5.55 3.5 7.6 5.3 7.65 5.35 7.55 5.3 2.1 3.9 5.15 6.05 4.8 7.4 1.5 3.25 M8.6 5.6 L8.7 5.6 10.2 5.4 8.75 5.55 8.6 5.6 M5.8 8.65 L5.5 8.3 6.45 7.45 5.8 8.65 M5.95 10.6 L5.4 10.9 6.7 8.4 5.95 10.6 M7.65 12.4 L7.7 12.3 7.8 12.2 5.5 12.9 5.25 13.9 2.5 14.95 3.9 13.75 4.65 12.35 4.1 12.3 3.95 12.2 2.8 11.7 7.6 12.15 7.8 12.2 9.1 14.0 7.0 13.5 7.65 12.4 M13.55 10.15 L13.5 10.15 13.5 10.2 13.55 10.15" fill="#7f6600" fill-rule="evenodd" stroke="none"/>
    <path d="M7.55 3.15 L7.6 3.3 7.65 5.35 9.9 3.6 8.25 5.5 9.1 8.35 7.65 5.35 6.8 7.15 6.7 7.2 6.45 7.45 5.5 8.3 5.8 8.65 5.8 8.7 5.45 8.3 4.25 9.35 7.65 5.35 7.6 5.25 6.55 0.3 7.55 3.15 M6.9 8.0 L7.8 9.95 7.8 12.2 9.95 9.65 8.4 11.7 8.5 11.95 8.5 12.05 8.65 12.55 9.1 14.0 7.8 12.2 6.9 8.0 M8.85 12.5 L8.85 12.45 10.1 14.1 10.05 14.05 8.85 12.5 M13.5 10.1 L12.6 11.25 12.6 11.2 13.5 10.1 M13.4 3.0 L13.7 4.7 14.9 3.4 13.75 4.95 13.7 4.7 12.75 6.15 11.2 7.75 11.2 7.7 13.7 4.7 12.9 0.8 13.4 3.0 M11.3 7.25 L9.25 7.7 9.05 7.65 9.25 7.65 11.1 7.25 11.3 7.25 M11.5 6.3 L9.05 6.7 8.85 6.7 9.05 6.65 11.3 6.3 11.5 6.3 M11.7 5.25 L10.55 5.4 11.5 5.25 11.7 5.25 M4.75 7.45 L1.45 3.25 1.5 3.25 4.8 7.4 4.75 7.45 M8.6 5.6 L8.75 5.55 10.2 5.4 8.7 5.6 8.6 5.6 M4.65 16.0 L7.65 12.4 7.0 13.5 4.65 16.0 M13.55 10.15 L13.5 10.2 13.5 10.15 13.55 10.15" fill="#000000" fill-rule="evenodd" stroke="none"/>
    <path d="M10.1 0.4 L10.15 1.55 9.15 3.65 9.05 3.55 9.0 3.55 8.55 3.45 8.7 3.1 10.1 0.4 M6.8 7.15 L7.0 7.25 7.3 7.2 6.9 8.0 7.8 12.2 7.7 12.3 7.65 12.4 4.65 16.0 5.25 13.9 5.5 12.9 7.8 12.2 7.6 12.15 2.8 11.7 4.5 11.1 5.8 8.7 5.8 8.65 6.45 7.45 6.7 7.2 6.8 7.15 M11.45 11.45 L11.55 10.9 11.75 10.55 13.5 10.1 12.15 8.8 12.75 6.5 13.5 10.1 12.6 11.2 11.05 13.1 11.45 11.45 M11.2 7.7 L11.3 7.25 11.5 6.3 11.7 5.25 11.7 5.2 11.75 5.1 13.7 4.7 12.25 3.2 12.3 3.05 12.9 0.8 13.7 4.7 11.2 7.7 M5.65 3.15 L6.55 0.3 7.6 5.25 7.65 5.35 4.25 9.35 4.75 7.45 4.8 7.4 5.15 6.05 2.1 3.9 7.55 5.3 7.65 5.35 7.6 5.3 5.55 3.5 5.65 3.15 M5.95 10.6 L6.7 8.4 5.4 10.9 5.95 10.6 M3.95 12.2 L4.1 12.3 4.65 12.35 3.9 13.75 2.5 14.95 3.95 12.2" fill="#ffcc00" fill-rule="evenodd" stroke="none"/>
  </g>
</svg>
