<?xml version="1.0" encoding="UTF-8" standalone="no"?>
<svg xmlns:ffdec="https://www.free-decompiler.com/flash" xmlns:xlink="http://www.w3.org/1999/xlink" ffdec:objectType="shape" height="15.05px" width="15.8px" xmlns="http://www.w3.org/2000/svg">
  <g transform="matrix(1.0, 0.0, 0.0, 1.0, -0.6, -0.35)">
    <path d="M14.15 4.75 L14.2 3.25 14.15 3.0 16.4 3.0 14.65 6.05 14.45 5.1 16.05 3.45 14.15 4.75 10.4 3.55 12.05 5.15 11.5 7.3 11.3 7.3 10.1 7.45 10.1 7.15 11.55 6.95 11.7 6.35 11.55 6.3 10.1 6.5 10.1 6.05 11.8 5.9 11.95 5.3 11.9 5.25 10.15 5.45 10.1 5.45 10.1 4.95 11.5 4.85 10.9 4.25 10.1 4.3 10.1 0.4 11.6 3.05 12.75 3.05 12.65 3.2 14.15 4.75 14.9 7.05 15.0 7.3 14.25 6.8 14.0 7.25 14.8 8.65 15.75 8.55 15.5 8.8 13.9 10.3 13.95 8.7 13.7 7.8 13.65 7.85 13.35 6.8 13.3 6.65 13.2 6.9 12.55 8.95 10.65 9.4 10.35 9.5 13.9 10.3 12.05 10.65 11.85 11.0 11.9 11.0 11.8 11.1 11.8 11.3 11.75 11.45 11.7 11.55 11.5 11.6 10.1 14.1 10.1 11.9 10.0 12.0 8.65 12.35 8.4 12.4 8.95 13.9 6.55 13.2 6.6 13.05 7.1 11.95 8.15 11.6 8.25 11.9 10.1 11.45 10.85 11.25 10.1 11.4 10.1 8.1 11.35 7.9 11.35 7.85 13.3 6.25 14.15 4.75 M8.8 6.7 L8.95 7.3 8.75 6.95 8.65 6.65 8.8 6.7 M7.15 3.1 L7.2 3.3 8.3 3.4 8.95 3.6 9.0 3.55 9.85 3.6 6.85 5.25 8.9 8.25 6.8 7.15 6.85 7.1 6.5 7.05 6.3 7.0 4.85 8.05 3.5 9.0 6.85 5.25 6.05 0.35 7.15 3.1 M1.95 11.15 L7.1 11.95 6.4 7.85 7.4 9.8 7.1 11.95 4.85 12.5 3.85 11.95 3.9 11.9 3.7 11.85 3.3 11.8 3.2 11.75 1.95 11.15 M15.15 9.2 L15.85 10.5 14.4 10.85 14.2 10.25 15.15 9.2 M14.75 12.15 L13.1 11.45 13.9 10.3 14.75 12.15 M8.45 5.55 L8.65 6.2 8.55 6.2 8.35 5.55 8.45 5.55 M5.9 4.35 L3.2 3.65 4.95 3.45 5.9 4.35 M4.75 13.05 L3.15 13.15 4.8 12.75 4.75 12.95 4.75 13.05" fill="#7f6600" fill-rule="evenodd" stroke="none"/>
    <path d="M14.15 3.0 L14.2 3.25 14.15 4.75 13.5 0.8 14.15 3.0 M11.5 7.3 L9.0 7.65 9.15 8.25 9.05 8.2 8.9 7.7 8.85 7.6 10.1 7.45 11.3 7.3 11.5 7.3 M11.7 6.35 L8.8 6.7 8.65 6.65 10.1 6.5 11.55 6.3 11.7 6.35 M8.95 7.3 L8.8 7.25 8.75 6.95 8.95 7.3 M11.95 5.3 L10.15 5.45 11.9 5.25 11.95 5.3 M9.85 3.6 L7.95 5.45 8.9 8.25 6.85 5.25 9.85 3.6 M7.1 11.95 L9.9 9.65 8.15 11.6 7.1 11.95 6.6 13.05 6.55 13.2 3.95 15.4 7.1 11.95 M10.1 11.45 L10.1 11.4 10.85 11.25 10.1 11.45 M11.35 7.85 L14.15 4.75 13.3 6.25 11.35 7.85 M14.65 6.05 L14.9 7.05 14.15 4.75 16.05 3.45 14.45 5.1 14.65 6.05 M15.5 8.8 L15.15 9.2 14.2 10.25 14.4 10.85 14.75 12.15 13.9 10.3 13.1 11.45 11.25 13.2 13.9 10.3 15.5 8.8 M13.35 6.8 L13.65 7.85 13.7 7.8 13.95 8.7 13.9 10.3 13.35 6.8 M9.5 4.35 L9.6 4.3 8.95 5.0 8.8 5.0 9.5 4.35" fill="#000000" fill-rule="evenodd" stroke="none"/>
    <path d="M13.5 0.8 L14.15 4.75 11.35 7.85 11.35 7.9 10.1 8.1 10.1 11.4 10.1 11.45 8.25 11.9 8.15 11.6 9.9 9.65 7.1 11.95 7.4 9.8 6.4 7.85 7.1 11.95 1.95 11.15 3.8 10.7 5.2 8.5 4.85 8.05 6.3 7.0 6.5 7.05 6.85 7.1 6.8 7.15 8.9 8.25 7.95 5.45 9.85 3.6 9.0 3.55 8.95 3.6 8.3 3.4 7.2 3.3 7.15 3.1 8.5 3.1 10.1 0.4 10.1 4.3 10.9 4.25 11.5 4.85 10.1 4.95 10.1 5.45 10.15 5.45 11.95 5.3 11.8 5.9 10.1 6.05 10.1 6.5 8.65 6.65 8.75 6.95 8.8 7.25 8.95 7.3 8.8 6.7 11.7 6.35 11.55 6.95 10.1 7.15 10.1 7.45 8.85 7.6 8.9 7.7 9.05 8.2 9.15 8.25 9.0 7.65 11.5 7.3 12.05 5.15 10.4 3.55 14.15 4.75 12.65 3.2 12.75 3.05 13.5 0.8 M11.25 13.2 L11.7 11.55 11.75 11.45 11.8 11.3 11.8 11.1 11.9 11.0 11.85 11.0 12.05 10.65 13.9 10.3 10.35 9.5 10.65 9.4 12.55 8.95 13.2 6.9 13.3 6.65 13.35 6.8 13.9 10.3 11.25 13.2 M10.1 14.1 L8.65 12.35 10.0 12.0 10.1 11.9 10.1 14.1 M3.95 15.4 L4.6 13.4 1.7 14.2 3.2 11.75 3.3 11.8 3.7 11.85 3.9 11.9 3.85 11.95 4.85 12.5 7.1 11.95 3.95 15.4 M3.5 9.0 L4.1 7.2 3.85 6.95 0.6 3.2 5.05 3.15 6.05 0.35 6.85 5.25 3.5 9.0 M9.5 4.35 L8.8 5.0 8.95 5.0 9.6 4.3 9.5 4.35 M5.9 4.35 L4.95 3.45 3.2 3.65 5.9 4.35 M8.45 5.55 L8.35 5.55 8.55 6.2 8.65 6.2 8.45 5.55 M4.75 13.05 L4.75 12.95 4.8 12.75 3.15 13.15 4.75 13.05" fill="#ffcc00" fill-rule="evenodd" stroke="none"/>
  </g>
</svg>
