<?xml version="1.0" encoding="UTF-8" standalone="no"?>
<svg xmlns:ffdec="https://www.free-decompiler.com/flash" xmlns:xlink="http://www.w3.org/1999/xlink" ffdec:objectType="shape" height="16.0px" width="15.1px" xmlns="http://www.w3.org/2000/svg">
  <g transform="matrix(1.0, 0.0, 0.0, 1.0, -1.35, 1.4)">
    <path d="M15.5 3.15 L10.65 5.7 9.85 -1.4 11.5 2.95 15.5 3.15 M3.1 3.45 L10.65 5.7 7.15 6.2 3.1 3.45 M10.65 5.7 L12.85 8.9 11.65 8.8 9.85 8.0 8.0 9.25 6.8 9.7 10.65 5.7 M13.15 6.15 L14.2 8.1 14.0 9.95 12.0 10.35 10.0 9.35 14.0 9.95 13.15 6.15 M15.55 11.55 L13.5 11.0 14.0 9.95 15.55 11.55 M15.45 12.1 L15.45 12.2 13.05 12.7 12.1 12.6 13.5 11.35 13.95 11.9 15.45 12.1 M9.6 9.2 L8.6 9.05 9.9 8.2 10.2 8.75 9.6 9.2 M7.55 11.05 L8.15 13.55 5.7 12.35 6.15 11.15 7.55 11.05 M7.45 13.55 L7.1 13.9 5.95 13.4 3.8 14.45 3.85 14.6 2.8 14.45 2.75 14.25 5.7 12.75 7.45 13.55 M4.1 11.35 L1.35 9.5 6.15 11.15 4.1 11.35 M6.2 6.75 L6.6 8.0 6.8 9.7 6.15 11.15 6.2 6.75 M9.25 13.1 L8.5 13.3 7.95 11.15 8.85 11.6 9.25 13.1 M11.65 10.55 L11.5 11.15 10.2 10.55 9.9 9.7 11.65 10.55" fill="#7f6600" fill-rule="evenodd" stroke="none"/>
    <path d="M9.85 -1.4 L10.65 5.7 3.1 3.45 8.25 2.85 9.85 -1.4 M7.15 6.2 L10.65 5.7 6.8 9.7 8.0 9.25 9.8 9.4 6.15 11.15 1.35 9.5 4.8 9.25 6.2 6.75 6.15 11.15 6.8 9.7 6.6 8.0 7.15 6.2 M12.85 8.9 L12.7 7.65 13.15 6.15 14.0 9.95 10.0 9.35 10.25 9.25 9.6 9.2 10.2 8.75 10.9 9.05 11.65 8.8 12.85 8.9 M14.2 8.1 L16.45 7.75 14.0 9.95 11.65 12.7 11.5 12.85 12.0 10.35 14.0 9.95 14.2 8.1 M7.1 13.9 L3.85 14.6 3.8 14.45 5.95 13.4 7.1 13.9 M2.8 14.0 L4.1 11.35 6.15 11.15 2.8 14.0 M11.5 11.15 L11.15 12.75 9.25 13.1 8.85 11.6 7.95 11.15 9.9 9.7 10.2 10.55 11.5 11.15" fill="#ffcc00" fill-rule="evenodd" stroke="none"/>
    <path d="M10.65 5.7 L15.5 3.15 12.15 6.05 12.7 7.65 12.85 8.9 10.65 5.7 M16.45 7.75 L14.7 9.7 15.55 11.55 14.0 9.95 13.5 11.0 13.15 11.25 13.5 11.35 14.6 11.5 15.55 11.75 15.5 12.1 15.45 12.1 13.95 11.9 13.5 11.35 12.1 12.6 12.15 12.2 11.65 12.7 14.0 9.95 16.45 7.75 M8.6 9.05 L8.9 8.7 9.55 8.25 9.9 8.2 11.1 8.75 10.9 9.05 10.2 8.75 9.9 8.2 8.6 9.05 M9.8 9.4 L9.55 9.55 7.55 11.05 6.15 11.15 5.7 12.35 4.05 13.25 5.5 12.6 7.45 13.5 7.45 13.55 5.7 12.75 2.75 14.25 3.35 13.65 2.8 14.0 6.15 11.15 9.8 9.4 M9.25 13.1 L11.15 12.75 11.5 11.15 11.65 10.55 11.2 12.8 8.5 13.3 9.25 13.1" fill="#000000" fill-rule="evenodd" stroke="none"/>
  </g>
</svg>
