<?xml version="1.0" encoding="UTF-8" standalone="no"?>
<svg xmlns:ffdec="https://www.free-decompiler.com/flash" xmlns:xlink="http://www.w3.org/1999/xlink" ffdec:objectType="shape" height="14.7px" width="16.1px" xmlns="http://www.w3.org/2000/svg">
  <g transform="matrix(1.0, 0.0, 0.0, 1.0, -1.8, 1.4)">
    <path d="M16.4 3.25 L12.7 6.0 13.2 7.7 13.2 9.3 11.85 9.0 9.9 8.0 7.9 9.0 6.55 9.3 6.65 8.0 7.25 6.25 3.1 3.3 9.9 5.7 16.4 3.25 M13.6 6.45 L14.95 8.65 14.15 10.55 13.6 6.45 M17.9 8.5 L15.6 10.45 16.7 12.65 14.05 11.6 11.65 13.2 14.15 10.55 17.9 8.5 M12.25 10.7 L10.0 9.4 14.15 10.55 12.25 10.7 M9.8 9.4 L7.45 10.7 5.6 10.55 9.8 9.4 M6.9 12.4 L6.7 12.3 5.65 11.6 3.05 12.65 4.15 10.45 5.45 10.55 5.6 10.55 6.9 12.4 M3.0 9.45 L1.8 8.5 5.45 10.5 3.0 9.45 M4.8 8.65 L6.1 6.45 5.6 10.55 4.8 8.65 M16.75 12.85 L16.2 13.2 14.25 12.65 13.1 13.3 12.4 13.05 14.1 12.0 16.75 12.85 M9.15 9.15 L8.5 8.95 9.9 8.2 11.25 8.9 10.6 9.15 9.9 8.75 9.15 9.15 M8.45 11.35 L7.85 10.85 9.9 9.7 11.9 10.85 11.3 11.4 9.9 10.6 8.45 11.35 M7.3 13.0 L7.35 13.05 6.65 13.3 5.5 12.65 3.55 13.2 3.0 12.85 5.65 12.0 7.3 13.0" fill="#7f6600" fill-rule="evenodd" stroke="none"/>
    <path d="M3.1 3.3 L8.05 3.0 9.9 -1.4 11.55 2.8 16.4 3.25 9.9 5.7 3.1 3.3 M13.2 7.7 L13.6 6.45 14.15 10.55 14.95 8.65 17.9 8.5 14.15 10.55 11.65 13.2 12.25 10.7 14.15 10.55 10.0 9.4 11.85 9.0 13.2 9.3 13.2 7.7 M7.9 9.0 L9.8 9.4 5.6 10.55 7.45 10.7 8.05 13.05 8.1 13.2 5.6 10.55 5.45 10.5 1.8 8.5 4.8 8.65 5.6 10.55 6.1 6.45 6.65 8.0 6.55 9.3 7.9 9.0 M16.2 13.2 L16.2 13.3 13.1 13.3 14.25 12.65 16.2 13.2 M10.6 9.15 L9.9 9.3 9.15 9.15 9.9 8.75 10.6 9.15 M11.3 11.4 L10.9 12.95 8.8 12.95 8.45 11.35 9.9 10.6 11.3 11.4 M3.55 13.2 L5.5 12.65 6.65 13.3 3.55 13.3 3.55 13.2" fill="#ffcc00" fill-rule="evenodd" stroke="none"/>
    <path d="M8.1 13.2 L6.9 12.4 5.6 10.55 8.1 13.2 M4.15 10.45 L3.0 9.45 5.45 10.5 5.6 10.55 5.45 10.55 4.15 10.45 M16.75 12.85 L16.7 13.05 16.2 13.3 16.2 13.2 16.75 12.85 14.1 12.0 12.4 13.05 12.9 12.5 Q13.45 12.2 13.95 11.85 L15.75 12.4 16.75 12.85 M8.45 11.35 L8.8 12.95 10.9 12.95 11.3 11.4 11.9 10.85 11.35 13.05 8.4 13.05 7.85 10.85 8.45 11.35 M7.3 13.0 L5.65 12.0 3.0 12.85 3.55 13.2 3.55 13.3 3.05 13.05 3.0 12.85 4.0 12.4 5.8 11.85 6.85 12.5 7.3 13.0" fill="#000000" fill-rule="evenodd" stroke="none"/>
  </g>
</svg>
