<?xml version="1.0" encoding="UTF-8" standalone="no"?>
<svg xmlns:ffdec="https://www.free-decompiler.com/flash" xmlns:xlink="http://www.w3.org/1999/xlink" ffdec:objectType="shape" height="15.3px" width="15.85px" xmlns="http://www.w3.org/2000/svg">
  <g transform="matrix(1.0, 0.0, 0.0, 1.0, -2.45, 1.4)">
    <path d="M9.9 -1.4 L11.55 2.85 16.6 3.35 9.5 5.7 9.9 -1.4 M12.7 6.1 L13.2 7.85 13.65 6.55 15.05 8.95 18.3 8.95 13.95 10.85 15.75 10.85 16.95 13.25 13.95 10.85 10.0 9.4 11.85 9.1 13.15 9.5 9.5 5.7 3.55 3.25 8.1 2.95 9.5 5.7 12.7 6.1 M8.0 8.9 L9.8 9.4 5.6 10.25 7.55 10.5 8.15 13.0 5.6 10.25 2.45 8.1 5.1 8.4 5.6 10.25 6.3 6.3 6.75 7.8 6.65 9.1 8.0 8.9 M6.6 13.0 L3.8 12.75 3.8 12.65 5.55 12.25 6.6 13.0 M12.95 13.6 L14.1 13.0 16.2 13.8 16.15 13.9 12.95 13.6 M9.7 8.75 L10.35 9.2 9.7 9.3 9.05 9.15 8.95 9.1 Q9.35 8.95 9.7 8.75 M11.9 11.0 L11.1 11.5 10.75 13.05 8.65 12.85 8.3 11.25 9.7 10.6 9.9 9.7 11.9 11.0" fill="#ffcc00" fill-rule="evenodd" stroke="none"/>
    <path d="M16.6 3.35 L12.7 6.1 9.5 5.7 16.6 3.35 M18.3 8.95 L15.75 10.85 13.95 10.85 18.3 8.95 M16.95 13.25 L14.15 11.95 11.65 13.35 12.25 10.85 10.2 9.55 10.0 9.4 13.95 10.85 16.95 13.25 M11.85 9.1 L9.9 8.0 8.0 8.9 6.65 9.1 6.75 7.8 7.35 6.15 3.55 3.25 9.5 5.7 13.15 9.5 11.85 9.1 M9.8 9.4 L7.55 10.5 5.6 10.25 9.8 9.4 M7.45 12.8 L6.6 13.0 5.55 12.25 3.5 12.3 5.85 11.65 7.45 12.8 M5.9 11.3 L3.5 12.05 4.5 10.05 5.6 10.25 5.6 10.35 5.9 11.3 M5.1 8.4 L6.3 6.3 5.6 10.25 5.1 8.4 M8.1 2.95 L9.9 -1.4 9.5 5.7 8.1 2.95 M16.15 13.9 L16.2 13.8 14.1 13.0 12.95 13.6 12.4 13.3 14.15 12.35 16.95 13.5 16.95 13.7 16.15 13.9 M9.9 8.2 L11.2 9.0 10.35 9.2 9.7 8.75 9.9 8.2 M10.75 13.05 L11.1 11.5 11.9 11.0 11.3 13.2 10.75 13.05 M9.9 9.7 L9.7 10.6 8.3 11.25 7.95 10.7 9.9 9.7" fill="#7f6600" fill-rule="evenodd" stroke="none"/>
    <path d="M8.15 13.0 L8.15 13.05 7.15 12.3 7.45 12.8 5.85 11.65 3.5 12.3 5.55 12.25 3.8 12.65 3.8 12.75 3.5 12.45 3.5 12.3 3.5 12.25 4.3 11.95 6.2 11.55 5.9 11.3 5.6 10.35 5.6 10.25 4.5 10.05 2.45 8.1 5.6 10.25 8.15 13.0 M16.95 13.5 L14.15 12.35 12.4 13.3 13.25 12.7 14.2 12.2 16.1 12.9 16.95 13.5 M9.9 8.2 L9.7 8.75 Q9.35 8.95 8.95 9.1 L8.5 8.85 9.9 8.2 M8.3 11.25 L8.65 12.85 10.75 13.05 11.3 13.2 8.45 12.9 7.95 10.7 8.3 11.25" fill="#000000" fill-rule="evenodd" stroke="none"/>
  </g>
</svg>
