<?xml version="1.0" encoding="UTF-8" standalone="no"?>
<svg xmlns:ffdec="https://www.free-decompiler.com/flash" xmlns:xlink="http://www.w3.org/1999/xlink" ffdec:objectType="shape" height="15.95px" width="15.1px" xmlns="http://www.w3.org/2000/svg">
  <g transform="matrix(1.0, 0.0, 0.0, 1.0, -3.25, 1.4)">
    <path d="M9.9 -1.4 L11.45 2.85 16.55 3.45 9.1 5.7 9.9 -1.4 M12.6 6.2 L13.1 8.0 12.95 9.75 9.1 5.7 12.6 6.2 M13.55 6.7 L14.95 9.25 18.35 9.45 13.55 11.15 15.65 11.3 16.9 13.9 13.55 11.15 13.55 6.7 M15.9 14.55 L12.65 13.9 13.8 13.4 15.9 14.4 15.9 14.55 M10.0 9.4 L11.75 9.25 12.95 9.75 13.55 11.15 10.0 9.4 M8.1 8.8 L8.85 9.05 9.5 8.75 10.15 9.2 10.1 9.2 9.5 9.25 9.55 9.3 9.8 9.35 5.75 9.95 6.6 6.15 7.05 7.65 6.85 8.9 8.1 8.8 M7.75 10.35 L8.25 12.9 8.05 12.7 5.75 9.95 7.75 10.35 M3.25 7.75 L5.55 8.15 5.75 9.95 3.25 7.75 M11.8 11.15 L10.9 11.6 10.5 13.1 8.6 12.75 8.25 11.15 9.55 10.55 9.9 9.7 11.8 11.15" fill="#ffcc00" fill-rule="evenodd" stroke="none"/>
    <path d="M16.55 3.45 L12.6 6.2 9.1 5.7 12.95 9.75 13.1 8.0 13.55 6.7 13.55 11.15 14.0 12.3 11.6 13.55 12.15 11.05 13.55 11.15 12.95 9.75 11.75 9.25 9.9 8.0 8.1 8.8 6.85 8.9 9.1 5.7 4.2 3.15 8.25 2.95 9.9 -1.4 9.1 5.7 16.55 3.45 M18.35 9.45 L15.65 11.3 13.55 11.15 18.35 9.45 M16.95 14.2 L16.9 14.4 15.9 14.55 15.9 14.4 13.8 13.4 12.65 13.9 12.3 13.5 13.6 12.9 13.85 12.8 14.05 12.7 16.95 14.2 M11.15 9.05 L10.15 9.2 9.5 8.75 9.9 8.2 11.15 9.05 M9.8 9.35 L7.75 10.35 5.75 9.95 6.25 11.0 4.15 11.55 5.75 9.95 5.55 8.15 6.6 6.15 5.75 9.95 9.8 9.35 M7.65 12.6 L6.7 12.75 4.3 12.25 4.25 12.15 5.75 11.9 6.2 11.35 7.65 12.6 M10.5 13.1 L10.9 11.6 11.8 11.15 11.25 13.3 10.5 13.1 M9.9 9.7 L9.55 10.55 8.25 11.15 8.1 10.55 9.9 9.7" fill="#7f6600" fill-rule="evenodd" stroke="none"/>
    <path d="M16.9 13.9 L16.9 13.95 16.35 13.6 16.95 14.2 14.05 12.7 14.25 12.6 15.7 13.25 14.0 12.3 13.55 11.15 12.15 11.05 10.15 9.55 10.0 9.4 13.55 11.15 16.9 13.9 M8.85 9.05 L8.65 8.75 9.9 8.2 10.2 8.25 10.85 8.7 11.15 9.05 9.9 8.2 9.5 8.75 8.85 9.05 M8.05 12.7 L7.55 12.25 7.65 12.6 6.2 11.35 5.75 11.9 4.25 12.15 4.2 12.15 4.2 11.95 4.15 11.75 6.2 11.35 6.55 11.3 6.25 11.0 5.75 9.95 4.15 11.55 5.0 9.7 3.25 7.75 5.75 9.95 8.05 12.7 M7.05 7.65 L7.55 6.05 4.2 3.15 9.1 5.7 6.85 8.9 7.05 7.65 M10.5 13.1 L11.25 13.3 8.55 12.8 8.1 10.55 8.25 11.15 8.6 12.75 10.5 13.1" fill="#000000" fill-rule="evenodd" stroke="none"/>
  </g>
</svg>
