<?xml version="1.0" encoding="UTF-8" standalone="no"?>
<svg xmlns:ffdec="https://www.free-decompiler.com/flash" xmlns:xlink="http://www.w3.org/1999/xlink" ffdec:objectType="shape" height="16.55px" width="13.8px" xmlns="http://www.w3.org/2000/svg">
  <g transform="matrix(1.0, 0.0, 0.0, 1.0, -4.2, 1.4)">
    <path d="M13.65 3.2 L16.2 3.55 14.2 5.0 8.75 5.65 13.65 3.2 M12.35 6.3 L12.85 8.1 12.65 9.9 12.7 10.25 13.0 11.4 13.25 6.85 14.6 9.55 18.0 10.0 13.0 11.4 15.3 11.75 16.55 14.6 13.0 11.4 10.0 9.4 11.6 9.35 12.65 9.95 12.65 9.9 8.75 5.65 12.35 6.3 M15.3 15.15 L12.2 14.15 13.3 13.75 15.35 15.0 15.3 15.15 M9.95 9.2 L9.55 9.25 9.8 9.35 6.05 9.7 8.0 10.2 8.45 12.75 8.25 12.55 7.95 12.15 7.9 12.1 6.05 9.7 6.95 6.15 7.0 6.05 7.35 7.55 7.15 8.7 8.3 8.7 8.75 8.9 8.75 9.0 9.35 9.25 9.35 8.7 9.95 9.2 M7.9 12.45 L6.9 12.45 6.1 11.6 6.7 11.1 7.9 12.45 M9.9 -1.4 L11.3 2.85 8.75 5.65 9.9 -1.4 M9.4 10.55 L9.9 9.7 11.65 11.3 10.6 11.65 9.4 10.55" fill="#ffcc00" fill-rule="evenodd" stroke="none"/>
    <path d="M16.55 14.6 L16.3 14.45 16.6 14.9 13.75 13.1 13.3 13.75 12.2 14.15 12.1 13.75 13.75 13.1 14.15 12.95 14.1 12.95 13.7 12.65 13.0 11.4 11.4 13.7 11.95 11.2 9.95 9.4 10.0 9.4 13.0 11.4 16.55 14.6 M11.6 9.35 L10.95 8.85 11.05 9.15 9.9 8.2 9.35 8.7 8.75 9.0 8.75 8.9 8.8 8.7 9.9 8.2 10.25 8.25 9.9 8.0 8.75 5.65 12.65 9.9 12.65 9.95 11.6 9.35 M4.85 11.7 L4.95 11.35 5.65 11.25 5.65 11.2 6.7 11.1 6.1 11.6 4.85 11.7 M6.95 11.05 L6.7 10.75 6.05 9.7 4.95 11.15 5.65 9.45 4.45 7.8 4.5 7.8 6.05 9.7 6.1 8.0 6.95 6.15 6.05 9.7 7.9 12.1 6.95 11.05 M7.35 7.55 L7.85 6.0 5.0 3.1 8.75 5.65 7.15 8.7 7.35 7.55 M8.4 2.9 L9.9 -1.4 8.75 5.65 8.4 2.9 M8.25 11.0 L8.3 10.45 9.9 9.7 11.55 11.15 11.65 11.3 9.9 9.7 9.4 10.55 8.25 11.0" fill="#000000" fill-rule="evenodd" stroke="none"/>
    <path d="M11.3 2.85 L13.65 3.2 8.75 5.65 11.3 2.85 M14.2 5.0 L12.35 6.3 8.75 5.65 5.0 3.1 8.4 2.9 8.75 5.65 9.9 8.0 8.3 8.7 7.15 8.7 8.75 5.65 14.2 5.0 M12.85 8.1 L13.25 6.85 13.0 11.4 12.7 10.25 12.65 9.9 12.85 8.1 M18.0 10.0 L15.3 11.75 13.0 11.4 18.0 10.0 M16.6 14.9 L16.55 15.1 15.3 15.15 15.35 15.0 13.3 13.75 13.75 13.1 16.6 14.9 M13.7 12.65 L11.4 13.7 13.0 11.4 13.7 12.65 M11.05 9.15 L9.95 9.2 9.35 8.7 9.35 9.25 8.75 9.0 9.35 8.7 9.9 8.2 11.05 9.15 M9.8 9.35 L8.0 10.2 6.05 9.7 4.5 7.8 4.45 7.8 4.2 7.5 6.1 8.0 6.05 9.7 6.7 10.75 4.95 11.15 6.05 9.7 9.8 9.35 M7.95 12.15 L7.9 12.45 6.7 11.1 6.95 11.05 7.9 12.1 7.95 12.15 M6.9 12.45 L4.85 11.8 4.85 11.7 6.1 11.6 6.9 12.45 M11.65 11.3 L11.1 13.45 8.55 12.65 8.25 11.0 9.4 10.55 10.6 11.65 11.65 11.3" fill="#7f6600" fill-rule="evenodd" stroke="none"/>
  </g>
</svg>
