<?xml version="1.0" encoding="UTF-8" standalone="no"?>
<svg xmlns:ffdec="https://www.free-decompiler.com/flash" xmlns:xlink="http://www.w3.org/1999/xlink" ffdec:objectType="shape" height="17.85px" width="9.6px" xmlns="http://www.w3.org/2000/svg">
  <g transform="matrix(1.0, 0.0, 0.0, 1.0, -6.35, 1.4)">
    <path d="M11.95 8.4 L12.25 7.15 11.4 11.8 11.6 10.25 11.95 8.4 M13.85 12.5 L14.5 14.85 14.65 15.3 13.8 12.55 13.85 12.5 M11.0 14.5 L11.45 14.1 12.6 13.7 11.75 14.3 11.0 14.5 M12.85 13.55 L12.8 13.55 12.6 13.25 12.85 13.55 M10.95 13.8 L11.1 12.8 10.7 13.65 11.05 11.55 9.9 9.7 9.15 10.45 8.45 10.8 8.7 10.45 8.65 10.0 8.8 9.9 8.85 10.25 9.9 9.7 10.25 9.95 11.4 11.8 10.95 13.8 M7.6 12.0 L6.4 11.15 6.4 11.05 6.45 11.05 6.75 10.75 7.85 10.7 7.15 11.1 7.6 12.0 M7.65 10.4 L6.8 10.55 6.95 9.3 7.65 10.4 M8.05 6.2 L8.15 6.4 8.15 6.55 8.05 6.2 M8.2 5.55 L6.8 3.0 8.85 2.9 8.2 5.55 M11.25 9.8 L11.05 9.55 10.75 9.15 10.1 8.25 9.9 8.0 9.05 6.8 11.25 9.8" fill="#000000" fill-rule="evenodd" stroke="none"/>
    <path d="M10.85 2.9 L8.2 5.55 11.6 6.45 11.95 8.4 11.6 10.25 11.5 10.15 11.3 9.85 11.25 9.8 9.05 6.8 8.2 5.55 8.85 2.9 9.9 -1.4 10.85 2.9 M12.25 7.15 L13.25 10.1 11.4 11.8 13.8 12.55 14.65 15.3 14.8 15.9 12.95 13.7 12.85 13.55 12.6 13.25 11.4 11.8 12.25 7.15 M14.8 16.2 L14.8 16.45 13.25 16.15 13.25 16.0 14.8 16.2 11.75 14.3 12.6 13.7 14.8 16.2 M10.7 13.65 L9.8 13.2 10.0 11.75 9.15 10.45 9.9 9.7 11.05 11.55 10.7 13.65 M8.6 12.15 L7.6 12.0 7.15 11.1 7.85 10.7 7.65 10.4 6.95 9.3 7.5 7.65 8.0 5.9 8.05 6.2 8.15 6.55 7.95 8.45 8.0 8.45 6.95 9.3 8.65 10.0 8.7 10.45 8.45 10.8 8.6 11.95 7.85 10.7 8.6 12.15" fill="#ffcc00" fill-rule="evenodd" stroke="none"/>
    <path d="M10.85 2.9 L14.5 3.7 11.6 6.45 8.2 5.55 10.85 2.9 M13.25 10.1 L15.95 11.05 13.85 12.5 13.8 12.55 11.4 11.8 13.25 10.1 M14.5 14.85 L14.9 15.3 14.8 16.2 13.25 16.0 13.25 16.15 11.0 14.5 11.75 14.3 14.8 16.2 12.6 13.7 12.95 13.7 14.8 15.9 14.65 15.3 14.5 14.85 M12.6 13.25 L10.9 13.95 10.95 13.8 11.4 11.8 12.6 13.25 M9.8 13.2 L8.65 12.4 8.6 12.15 7.85 10.7 8.6 11.95 8.45 10.8 9.15 10.45 10.0 11.75 9.8 13.2 M6.95 9.3 L6.35 7.05 7.5 7.65 6.95 9.3 8.0 8.45 7.95 8.45 8.15 6.55 8.15 6.4 8.2 5.55 9.05 6.8 9.9 8.0 8.85 8.55 9.0 8.7 9.9 8.2 10.1 8.25 10.75 9.15 10.65 9.25 9.65 9.2 9.85 9.35 8.8 9.9 8.65 10.0 6.95 9.3 M11.25 9.8 L11.3 9.85 11.5 10.15 11.6 10.25 11.4 11.8 10.25 9.95 9.95 9.4 11.05 9.55 11.25 9.8" fill="#7f6600" fill-rule="evenodd" stroke="none"/>
  </g>
</svg>
