<?xml version="1.0" encoding="UTF-8" standalone="no"?>
<svg xmlns:ffdec="https://www.free-decompiler.com/flash" xmlns:xlink="http://www.w3.org/1999/xlink" ffdec:objectType="shape" height="18.35px" width="6.95px" xmlns="http://www.w3.org/2000/svg">
  <g transform="matrix(1.0, 0.0, 0.0, 1.0, -7.3, 1.4)">
    <path d="M11.05 6.5 L11.6 5.85 11.6 7.5 12.6 10.5 12.25 10.3 11.5 7.2 11.25 8.25 11.05 6.5 M13.15 3.8 L8.05 5.5 7.8 2.95 8.75 2.9 8.05 5.5 10.55 2.9 9.9 -1.4 11.0 3.05 13.15 3.8 M8.15 10.3 L7.8 10.4 7.55 9.1 7.5 6.95 8.1 7.45 7.55 9.1 8.15 10.3 M8.25 6.95 L8.05 5.5 9.65 8.15 9.35 8.4 9.35 8.45 9.2 8.5 8.5 8.4 8.45 8.35 8.25 6.95 M10.45 9.55 L10.85 10.2 10.45 11.9 9.9 9.7 9.1 10.4 9.65 11.7 9.5 13.15 8.75 12.3 8.75 12.0 8.65 10.7 9.05 10.25 9.05 9.9 7.55 9.1 9.85 9.35 9.4 9.65 9.4 10.0 9.9 9.7 10.0 9.8 9.95 9.4 10.45 9.55 M8.75 8.8 L9.0 8.6 9.25 9.15 9.05 9.15 8.75 8.8 M8.05 11.85 L7.3 10.9 7.3 10.8 7.85 10.55 8.3 10.55 8.35 10.65 7.75 10.9 8.05 11.85 M10.45 13.7 L10.5 13.05 10.45 11.9 11.55 13.6 10.6 14.05 10.55 13.55 10.45 13.7 M12.65 12.85 L13.0 12.55 13.2 14.8 13.35 16.4 12.65 12.85 M13.4 16.75 L13.85 15.8 13.85 15.95 13.35 16.95 13.4 16.75 M11.85 16.5 L10.3 14.6 10.95 14.25 11.75 13.95 10.8 14.45 11.85 16.35 11.85 16.5" fill="#000000" fill-rule="evenodd" stroke="none"/>
    <path d="M11.6 5.85 L11.05 6.5 8.05 5.5 13.15 3.8 11.6 5.85 M12.25 10.3 L12.6 10.5 14.25 11.45 13.0 12.55 12.65 12.85 10.65 11.95 10.45 11.9 12.25 10.3 M9.75 8.25 L10.3 9.3 9.75 9.2 9.85 9.35 7.55 9.1 8.5 8.4 9.2 8.5 9.35 8.45 9.75 8.25 M8.75 8.8 L9.05 9.15 9.25 9.15 9.0 8.6 8.75 8.8 M13.35 16.4 L13.2 14.8 13.85 15.8 13.4 16.75 11.75 13.95 13.35 16.4 M13.35 16.95 L11.85 16.5 11.85 16.35 13.4 16.75 13.35 16.95" fill="#7f6600" fill-rule="evenodd" stroke="none"/>
    <path d="M8.05 5.5 L11.05 6.5 11.25 8.25 11.5 7.2 12.25 10.3 10.45 11.9 10.85 10.2 10.45 9.55 10.3 9.3 9.75 8.25 9.65 8.15 8.05 5.5 8.75 2.9 9.9 -1.4 10.55 2.9 8.05 5.5 M8.1 7.45 L8.25 6.95 8.45 8.35 8.5 8.4 7.55 9.1 8.1 7.45 M8.3 10.55 L8.15 10.3 7.55 9.1 9.05 9.9 9.05 10.25 8.65 10.7 8.75 12.0 8.05 11.85 7.75 10.9 8.35 10.65 8.3 10.55 M9.5 13.15 L9.65 11.7 9.1 10.4 9.9 9.7 10.45 11.9 10.5 13.05 10.45 13.7 9.5 13.15 M11.55 13.6 L10.45 11.9 10.65 11.95 12.65 12.85 13.35 16.4 11.75 13.95 13.4 16.75 11.85 16.35 10.8 14.45 11.75 13.95 11.55 13.6" fill="#ffcc00" fill-rule="evenodd" stroke="none"/>
  </g>
</svg>
