<?xml version="1.0" encoding="UTF-8" standalone="no"?>
<svg xmlns:ffdec="https://www.free-decompiler.com/flash" xmlns:xlink="http://www.w3.org/1999/xlink" ffdec:objectType="shape" height="18.7px" width="4.6px" xmlns="http://www.w3.org/2000/svg">
  <g transform="matrix(1.0, 0.0, 0.0, 1.0, -7.95, 1.4)">
    <path d="M8.2 9.0 L9.45 9.9 9.8 9.45 9.7 9.25 9.1 9.1 8.95 8.55 9.35 8.4 7.95 5.45 11.55 3.85 10.45 6.55 10.55 7.85 10.7 7.25 11.1 10.45 9.5 11.9 10.0 9.95 9.9 9.6 9.5 11.9 10.1 13.7 9.25 13.15 9.3 11.7 9.05 10.35 8.9 10.6 8.85 10.6 8.8 10.45 8.2 9.0 8.7 7.5 9.0 8.3 9.05 8.35 8.2 9.0 M11.3 13.05 L12.15 11.75 11.9 14.3 12.55 16.2 11.75 17.05 11.7 17.3 10.25 16.6 10.25 16.5 11.75 17.05 11.45 16.2 11.7 16.7 11.3 13.05 M9.9 -1.4 L10.2 2.9 7.95 5.45 9.9 -1.4" fill="#7f6600" fill-rule="evenodd" stroke="none"/>
    <path d="M10.1 13.7 L9.5 11.9 9.9 9.6 10.0 9.95 9.5 11.9 11.1 10.45 10.7 7.25 10.55 7.85 10.45 6.55 11.55 3.85 7.95 5.45 9.35 8.4 8.95 8.55 9.1 9.1 9.7 9.25 9.8 9.45 9.45 9.9 8.2 9.0 8.6 7.25 7.95 5.45 10.2 2.9 9.9 -1.4 11.2 3.6 11.55 3.85 11.7 5.35 11.2 8.8 12.15 11.75 11.3 13.05 9.5 11.9 10.4 13.95 10.25 14.1 10.1 13.7 M8.8 10.45 L8.85 10.6 8.9 10.6 9.05 10.35 9.3 11.7 9.25 13.15 8.9 12.2 8.9 11.8 8.85 10.6 8.4 10.75 8.55 11.7 8.2 10.65 8.8 10.45 M8.2 9.0 L9.05 8.35 9.0 8.3 8.7 7.5 8.2 9.0 M10.25 16.6 L9.6 14.6 9.8 14.5 9.85 14.5 10.25 16.5 10.25 16.6 M12.55 16.2 L12.55 16.35 11.7 17.3 11.75 17.05 12.55 16.2" fill="#000000" fill-rule="evenodd" stroke="none"/>
    <path d="M10.4 13.95 L9.5 11.9 11.3 13.05 11.7 16.7 11.45 16.2 11.75 17.05 10.25 16.5 9.85 14.5 10.5 14.2 10.4 13.95 M8.55 11.7 L8.4 10.75 8.85 10.6 8.9 11.8 8.55 11.7" fill="#ffcc00" fill-rule="evenodd" stroke="none"/>
  </g>
</svg>
