<?xml version="1.0" encoding="UTF-8" standalone="no"?>
<svg xmlns:ffdec="https://www.free-decompiler.com/flash" xmlns:xlink="http://www.w3.org/1999/xlink" ffdec:objectType="shape" height="18.8px" width="3.8px" xmlns="http://www.w3.org/2000/svg">
  <g transform="matrix(1.0, 0.0, 0.0, 1.0, -7.95, 1.4)">
    <path d="M8.95 8.9 L8.95 8.6 7.95 5.4 9.9 -1.4 11.75 5.4 10.8 8.65 10.8 8.8 10.85 8.9 10.6 9.75 11.25 11.8 10.55 14.3 10.95 14.4 11.05 16.55 9.9 17.4 8.7 16.6 8.8 14.45 9.2 14.3 8.5 11.85 9.15 9.75 8.9 8.9 8.95 8.95 8.95 8.9 M9.9 6.55 L11.75 5.4 9.9 2.9 7.95 5.4 9.9 6.55 M9.9 13.1 L11.25 11.8 9.9 10.5 8.5 11.85 9.9 13.1 M10.8 8.9 L10.8 8.95 10.85 8.9 10.8 8.9" fill="#7f6600" fill-rule="evenodd" stroke="none"/>
    <path d="M8.9 8.9 L8.95 8.9 8.95 8.95 8.9 8.9 M10.8 8.9 L10.85 8.9 10.8 8.95 10.8 8.9 M9.9 13.1 L8.5 11.85 9.9 10.5 11.25 11.8 9.9 13.1 M9.9 6.55 L7.95 5.4 9.9 2.9 11.75 5.4 9.9 6.55" fill="#000000" fill-rule="evenodd" stroke="none"/>
  </g>
</svg>
