<?xml version="1.0" encoding="UTF-8" standalone="no"?>
<svg xmlns:ffdec="https://www.free-decompiler.com/flash" xmlns:xlink="http://www.w3.org/1999/xlink" ffdec:objectType="shape" height="18.7px" width="4.55px" xmlns="http://www.w3.org/2000/svg">
  <g transform="matrix(1.0, 0.0, 0.0, 1.0, -7.2, 1.4)">
    <path d="M11.75 5.45 L11.1 7.25 11.5 9.0 11.05 7.5 10.75 8.3 10.7 8.3 11.5 9.0 10.25 9.9 10.0 9.45 10.05 9.25 10.65 9.1 10.75 8.55 10.4 8.4 11.75 5.45 8.15 3.85 9.25 6.55 9.2 7.85 9.05 7.3 8.65 10.45 10.25 11.9 9.8 9.95 9.9 9.65 10.25 11.9 9.65 13.7 9.5 14.1 9.35 13.95 10.25 11.9 8.45 13.05 7.6 11.75 8.5 8.8 8.0 5.35 8.15 3.85 8.5 3.6 9.85 -1.4 9.5 2.9 11.75 5.45 M10.95 10.45 L11.5 10.65 11.5 10.8 11.15 11.7 11.3 10.75 10.9 10.6 10.85 11.8 10.8 12.2 10.5 13.1 10.4 11.55 10.65 10.35 10.85 10.6 10.9 10.6 10.95 10.45 M10.0 14.5 L10.15 14.6 9.5 16.65 9.5 16.5 10.0 14.5 M8.1 17.3 L7.2 16.35 7.2 16.2 8.05 17.1 8.1 17.3" fill="#000000" fill-rule="evenodd" stroke="none"/>
    <path d="M11.75 5.45 L10.4 8.4 10.75 8.55 10.65 9.1 10.05 9.25 10.0 9.45 10.25 9.9 11.5 9.0 10.7 8.3 10.75 8.3 11.05 7.5 11.5 9.0 10.95 10.45 10.9 10.6 10.85 10.6 10.65 10.35 10.4 11.55 10.5 13.1 9.65 13.7 10.25 11.9 9.9 9.65 9.8 9.95 10.25 11.9 8.65 10.45 9.05 7.3 9.2 7.85 9.25 6.55 8.15 3.85 11.75 5.45 9.5 2.9 9.85 -1.4 11.75 5.45 M9.5 16.65 L8.1 17.3 8.05 17.1 7.2 16.2 7.85 14.3 7.6 11.75 8.45 13.05 8.1 16.75 8.3 16.3 8.05 17.1 9.5 16.5 9.5 16.65" fill="#7f6600" fill-rule="evenodd" stroke="none"/>
    <path d="M11.15 11.7 L10.85 11.8 10.9 10.6 11.3 10.75 11.15 11.7 M9.35 13.95 L9.25 14.2 10.0 14.5 9.5 16.5 8.05 17.1 8.3 16.3 8.1 16.75 8.45 13.05 10.25 11.9 9.35 13.95" fill="#ffcc00" fill-rule="evenodd" stroke="none"/>
  </g>
</svg>
