<?xml version="1.0" encoding="UTF-8" standalone="no"?>
<svg xmlns:ffdec="https://www.free-decompiler.com/flash" xmlns:xlink="http://www.w3.org/1999/xlink" ffdec:objectType="shape" height="18.4px" width="6.95px" xmlns="http://www.w3.org/2000/svg">
  <g transform="matrix(1.0, 0.0, 0.0, 1.0, -5.5, 1.4)">
    <path d="M11.0 2.9 L11.9 2.95 11.65 5.5 11.0 2.9 M11.65 5.5 L6.6 3.8 8.7 3.05 9.85 -1.4 9.2 2.9 11.65 5.5 11.45 7.0 11.3 8.35 11.2 8.35 10.55 8.5 10.4 8.45 10.4 8.4 10.1 8.15 11.65 5.5 M8.15 5.85 L8.7 6.55 8.45 8.25 8.2 7.2 7.5 10.3 7.15 10.5 8.1 7.55 8.15 5.85 M11.6 7.45 L12.2 6.95 12.15 9.1 11.9 10.35 11.55 10.3 12.15 9.1 10.7 9.9 10.7 10.25 11.1 10.7 11.0 12.0 10.95 12.3 10.25 13.15 10.1 11.7 10.65 10.4 9.9 9.7 9.7 10.2 9.3 11.9 8.9 10.2 9.3 9.55 9.85 9.4 9.75 9.8 9.9 9.7 10.35 10.05 10.3 9.65 9.95 9.35 12.15 9.1 11.6 7.45 M11.45 10.55 L11.9 10.55 12.45 10.8 12.45 10.9 11.7 11.85 12.0 10.9 11.4 10.65 11.45 10.55 M9.3 13.7 L9.2 13.55 9.15 14.05 8.2 13.6 9.3 11.9 9.25 13.1 9.3 13.7 M8.0 13.95 L8.8 14.25 9.45 14.6 7.95 16.5 7.95 16.35 8.95 14.45 8.0 13.95 M6.4 17.0 L5.9 16.0 5.9 15.85 6.35 16.75 6.4 17.0 M6.55 14.8 L6.75 12.55 7.15 12.85 6.4 16.45 6.55 14.8 M10.95 8.75 L10.7 9.15 10.45 9.15 10.7 8.6 10.95 8.75" fill="#000000" fill-rule="evenodd" stroke="none"/>
    <path d="M6.6 3.8 L11.65 5.5 8.7 6.55 8.15 5.85 6.6 3.8 M10.4 8.45 L10.55 8.5 11.2 8.35 12.15 9.1 9.95 9.35 10.0 9.2 9.45 9.3 10.0 8.25 10.4 8.45 M7.95 16.5 L6.4 17.0 6.35 16.75 5.9 15.85 6.55 14.8 6.4 16.45 7.9 14.1 6.35 16.75 7.95 16.35 7.95 16.5 M6.75 12.55 L5.5 11.5 7.15 10.5 7.5 10.3 9.3 11.9 7.15 12.85 6.75 12.55 M10.95 8.75 L10.7 8.6 10.45 9.15 10.7 9.15 10.95 8.75" fill="#7f6600" fill-rule="evenodd" stroke="none"/>
    <path d="M11.0 2.9 L11.65 5.5 9.2 2.9 9.85 -1.4 11.0 2.9 M8.7 6.55 L11.65 5.5 10.1 8.15 10.0 8.25 9.45 9.3 9.3 9.55 8.9 10.2 9.3 11.9 9.7 10.2 9.9 9.7 10.65 10.4 10.1 11.7 10.25 13.15 Q9.8 13.45 9.3 13.7 L9.25 13.1 9.3 11.9 8.2 13.6 8.0 13.95 8.95 14.45 7.95 16.35 6.35 16.75 7.9 14.1 6.4 16.45 7.15 12.85 9.3 11.9 7.5 10.3 8.2 7.2 8.45 8.25 8.7 6.55 M11.2 8.35 L11.3 8.35 11.45 7.0 11.6 7.45 12.15 9.1 11.55 10.3 11.45 10.55 11.4 10.65 12.0 10.9 11.7 11.85 11.0 12.0 11.1 10.7 10.7 10.25 10.7 9.9 12.15 9.1 11.2 8.35" fill="#ffcc00" fill-rule="evenodd" stroke="none"/>
  </g>
</svg>
