<?xml version="1.0" encoding="UTF-8" standalone="no"?>
<svg xmlns:ffdec="https://www.free-decompiler.com/flash" xmlns:xlink="http://www.w3.org/1999/xlink" ffdec:objectType="shape" height="17.9px" width="9.6px" xmlns="http://www.w3.org/2000/svg">
  <g transform="matrix(1.0, 0.0, 0.0, 1.0, -3.75, 1.4)">
    <path d="M11.6 6.55 L11.65 6.1 11.7 5.9 12.25 7.65 12.75 9.25 11.7 8.45 11.75 8.4 11.6 6.55 M12.05 10.4 L11.9 10.7 11.15 11.95 11.25 10.8 11.05 10.45 11.1 10.0 12.75 9.25 12.05 10.4 M12.15 12.0 L11.15 12.15 11.9 10.7 12.6 11.05 12.15 12.0 M10.0 13.2 L9.05 13.65 8.7 11.55 9.9 9.7 10.55 10.45 9.8 11.75 10.0 13.2 M6.5 16.2 L5.0 16.5 4.95 16.25 6.5 16.05 6.5 16.2 M6.5 10.1 L7.5 7.15 8.3 11.55 8.35 11.8 6.5 10.1 M7.8 8.4 L7.9 8.0 8.15 6.45 11.5 5.55 8.85 2.9 9.85 -1.4 10.85 2.9 11.5 5.55 8.15 10.25 7.8 8.4 M5.95 12.55 L8.1 11.9 8.35 11.8 7.8 12.5 6.8 13.75 5.0 15.95 5.95 12.55 M8.0 14.3 L4.95 16.25 7.15 13.75 8.0 14.3" fill="#ffcc00" fill-rule="evenodd" stroke="none"/>
    <path d="M11.6 6.35 L11.65 6.1 11.6 6.55 11.6 6.35 M12.75 9.25 L12.95 10.55 12.05 10.4 12.75 9.25 M11.9 10.7 L12.95 10.75 13.3 11.0 13.3 11.1 12.15 12.0 12.6 11.05 11.9 10.7 M9.05 13.65 L8.65 12.85 8.8 13.8 8.35 11.8 8.45 11.65 8.45 11.6 9.5 9.95 9.9 9.7 10.9 10.25 10.9 9.9 11.1 10.0 11.05 10.45 11.25 10.8 10.55 10.45 9.9 9.7 8.7 11.55 9.05 13.65 M7.2 13.3 L6.8 13.75 7.8 12.5 7.2 13.3 M7.15 13.75 L8.3 14.1 8.75 14.55 8.0 14.3 7.15 13.75 M5.25 14.9 L5.9 12.5 5.95 12.55 5.0 15.95 5.25 14.9 M7.5 7.15 L7.8 8.4 8.15 10.25 8.3 11.55 7.5 7.15 M7.9 8.0 L8.1 6.5 8.15 6.45 7.9 8.0 M10.85 2.9 L12.9 3.0 11.5 5.55 10.85 2.9 M9.65 8.25 L9.0 9.15 8.7 9.55 8.15 10.25 11.5 5.55 9.9 8.0 9.65 8.25" fill="#000000" fill-rule="evenodd" stroke="none"/>
    <path d="M11.6 6.35 L11.6 6.55 11.75 8.4 11.7 8.45 12.75 9.25 11.1 10.0 10.9 9.9 9.95 9.35 10.1 9.2 9.1 9.25 9.0 9.15 9.65 8.25 9.9 8.2 10.7 8.65 10.9 8.55 9.9 8.0 11.5 5.55 11.6 6.35 M12.25 7.65 L13.35 7.05 12.75 9.25 12.25 7.65 M11.15 12.15 L11.1 12.15 11.1 12.4 10.0 13.2 9.8 11.75 10.55 10.45 11.25 10.8 11.15 11.95 11.9 10.7 11.15 12.15 M8.8 13.8 L8.85 13.95 7.2 13.3 7.8 12.5 8.35 11.8 8.1 11.9 5.95 12.55 5.9 12.5 3.75 11.1 6.5 10.1 8.35 11.8 8.3 11.55 8.15 10.25 8.7 9.55 9.85 9.4 9.5 9.95 8.45 11.6 8.45 11.65 8.35 11.8 8.8 13.8 M6.8 13.75 L7.1 13.7 7.15 13.75 4.95 16.25 4.85 15.35 5.25 14.9 5.0 15.95 6.8 13.75 M8.75 14.55 L6.5 16.2 6.5 16.05 4.95 16.25 8.0 14.3 8.75 14.55 M8.15 6.45 L5.25 3.75 8.85 2.9 11.5 5.55 8.15 6.45" fill="#7f6600" fill-rule="evenodd" stroke="none"/>
  </g>
</svg>
