<?xml version="1.0" encoding="UTF-8" standalone="no"?>
<svg xmlns:ffdec="https://www.free-decompiler.com/flash" xmlns:xlink="http://www.w3.org/1999/xlink" ffdec:objectType="shape" height="17.25px" width="11.95px" xmlns="http://www.w3.org/2000/svg">
  <g transform="matrix(1.0, 0.0, 0.0, 1.0, -2.5, 1.4)">
    <path d="M9.85 -1.4 L11.25 5.6 8.6 2.9 9.85 -1.4 M7.7 6.4 L11.25 5.6 7.55 10.1 7.3 8.3 7.7 6.4 M12.2 8.55 L11.95 7.45 12.25 5.95 13.25 9.45 12.5 10.55 12.3 10.85 11.45 12.1 11.15 12.45 11.05 12.6 11.1 12.5 11.15 12.45 11.4 10.9 11.35 10.75 11.45 10.1 13.25 9.45 12.15 8.55 12.2 8.55 M12.5 10.85 L12.55 10.85 13.15 11.3 12.5 12.2 11.5 12.25 12.5 10.85 M9.75 13.2 L8.8 13.55 8.75 13.3 8.35 11.45 9.9 9.7 10.45 10.5 9.45 11.7 9.75 13.2 M3.95 15.3 L3.9 15.35 5.05 12.2 7.45 11.65 2.5 10.6 5.7 9.85 6.9 7.0 7.45 11.65 3.95 15.3 M3.85 15.65 L6.5 13.45 7.15 14.05 3.85 15.65" fill="#ffcc00" fill-rule="evenodd" stroke="none"/>
    <path d="M11.05 2.9 L11.25 5.6 13.85 3.05 11.55 5.9 11.95 7.45 12.2 8.55 11.25 5.6 9.85 -1.4 11.05 2.9 M12.25 5.95 L12.95 7.8 13.25 9.45 12.25 5.95 M13.35 9.3 L13.9 10.8 12.5 10.55 13.25 9.45 13.35 9.3 M12.55 10.85 L13.9 11.0 14.1 11.3 13.15 11.3 12.55 10.85 M8.75 13.3 L8.7 13.3 8.35 11.45 8.3 11.2 9.3 10.1 9.9 9.7 11.2 10.3 11.35 10.75 11.4 10.9 10.45 10.5 9.9 9.7 8.35 11.45 8.75 13.3 M8.85 9.2 L8.8 9.05 8.4 9.45 7.55 10.1 7.6 10.25 7.45 11.65 9.8 9.4 9.85 9.4 8.05 11.35 8.55 13.85 7.45 11.65 6.9 7.0 7.3 8.3 7.55 10.1 11.25 5.6 9.9 8.0 9.55 8.25 9.9 8.2 10.8 8.65 10.9 8.75 11.0 8.9 10.55 8.7 9.9 8.2 8.85 9.2 M6.5 13.0 L6.1 13.4 6.5 13.45 7.95 13.95 8.1 14.4 7.15 14.05 6.5 13.45 3.85 15.65 4.95 14.4 3.95 15.3 7.45 11.65 6.5 13.0" fill="#000000" fill-rule="evenodd" stroke="none"/>
    <path d="M13.85 3.05 L11.25 5.6 11.05 2.9 13.85 3.05 M8.6 2.9 L11.25 5.6 7.7 6.4 4.2 3.65 8.6 2.9 M11.25 5.6 L12.2 8.55 12.15 8.55 13.25 9.45 11.45 10.1 9.95 9.35 10.15 9.2 8.85 9.2 9.9 8.2 10.55 8.7 11.0 8.9 10.9 8.75 11.2 8.6 9.9 8.0 11.25 5.6 M13.25 9.45 L12.95 7.8 14.45 7.25 13.35 9.3 13.25 9.45 M12.3 10.85 L12.5 10.85 11.5 12.25 11.45 12.1 12.3 10.85 M14.1 11.3 L14.15 11.4 12.65 12.15 12.5 12.2 13.15 11.3 14.1 11.3 M11.1 12.5 L9.75 13.2 9.45 11.7 10.45 10.5 11.4 10.9 11.15 12.45 11.1 12.5 M8.4 9.45 L9.8 9.4 7.45 11.65 7.6 10.25 7.55 10.1 8.4 9.45 M8.55 13.85 L6.5 13.0 7.45 11.65 5.05 12.2 4.85 12.05 2.5 10.6 7.45 11.65 8.55 13.85 M8.1 14.4 L5.35 15.75 3.9 15.85 3.85 15.65 3.95 15.3 4.95 14.4 3.85 15.65 7.15 14.05 8.1 14.4" fill="#7f6600" fill-rule="evenodd" stroke="none"/>
  </g>
</svg>
