<?xml version="1.0" encoding="UTF-8" standalone="no"?>
<svg xmlns:ffdec="https://www.free-decompiler.com/flash" xmlns:xlink="http://www.w3.org/1999/xlink" ffdec:objectType="shape" height="16.6px" width="13.8px" xmlns="http://www.w3.org/2000/svg">
  <g transform="matrix(1.0, 0.0, 0.0, 1.0, -1.7, 1.4)">
    <path d="M12.75 6.15 L13.6 7.95 13.7 9.7 12.75 6.15 M15.25 7.8 L14.05 9.4 14.75 11.15 13.7 9.7 14.2 9.0 15.25 7.8 M13.05 10.75 L12.8 11.05 11.8 12.15 11.45 12.55 13.7 9.7 13.05 10.75 M13.05 11.1 L14.8 11.3 14.85 11.65 13.6 11.55 13.05 11.1 M8.7 9.15 L8.75 8.85 8.15 9.35 7.1 9.95 10.95 5.65 14.7 3.1 11.9 6.0 12.35 7.55 12.55 8.7 10.95 5.65 9.9 8.0 9.45 8.25 9.9 8.2 10.95 8.7 10.95 8.9 11.0 9.0 10.4 8.7 9.9 8.2 8.7 9.15 M9.8 9.4 L7.75 11.2 8.3 13.7 6.75 11.45 9.8 9.4 M6.05 12.7 L5.6 13.0 5.75 13.0 6.0 13.1 7.65 13.75 7.55 14.2 6.45 13.75 6.0 13.1 3.15 14.95 3.4 14.5 3.15 14.65 6.75 11.45 6.05 12.7 M9.85 -1.4 L11.3 2.95 10.95 5.65 9.85 -1.4 M8.1 11.3 L8.25 11.1 9.9 9.7 11.45 10.45 11.45 11.0 10.35 10.55 9.9 9.7 8.1 11.3" fill="#000000" fill-rule="evenodd" stroke="none"/>
    <path d="M12.85 12.45 L11.85 12.4 13.05 11.1 13.6 11.55 12.85 12.45 M11.45 12.55 L11.3 12.75 11.75 10.2 13.7 9.7 11.45 12.55 M10.0 9.35 L10.2 9.25 9.8 9.2 10.4 8.7 10.4 9.25 11.0 9.0 10.95 8.9 11.4 8.7 12.55 8.7 12.35 7.55 12.7 6.05 12.75 6.15 13.7 9.7 10.0 9.35 M8.15 9.35 L9.8 9.4 6.75 11.45 1.7 10.05 5.15 9.6 6.45 6.9 6.75 11.45 7.05 10.3 7.1 9.95 6.9 8.15 7.35 6.3 10.95 5.65 5.55 5.0 3.5 3.55 6.1 3.2 10.95 5.65 8.4 2.85 9.85 -1.4 10.95 5.65 7.1 9.95 8.15 9.35 M7.55 14.2 L4.45 15.2 4.4 15.05 6.45 13.75 7.55 14.2 M3.15 14.65 L4.45 11.75 6.75 11.45 3.15 14.65 M8.1 11.3 L9.9 9.7 10.35 10.55 9.15 11.65 8.1 11.3" fill="#ffcc00" fill-rule="evenodd" stroke="none"/>
    <path d="M13.6 7.95 L15.5 7.45 15.25 7.8 14.2 9.0 13.7 9.7 14.75 11.15 13.05 10.75 13.7 9.7 13.6 7.95 M12.8 11.05 L13.05 11.1 11.85 12.4 11.8 12.15 12.8 11.05 M14.85 11.65 L14.85 11.8 12.85 12.45 13.6 11.55 14.85 11.65 M11.75 10.2 L10.0 9.35 13.7 9.7 11.75 10.2 M9.8 9.2 L8.7 9.15 9.9 8.2 10.4 8.7 11.0 9.0 10.4 9.25 10.4 8.7 9.8 9.2 M8.3 13.7 L6.05 12.7 6.75 11.45 6.45 6.9 6.9 8.15 7.1 9.95 7.05 10.3 6.75 11.45 8.3 13.7 M4.45 15.2 L3.15 15.15 3.15 14.95 6.0 13.1 6.45 13.75 4.4 15.05 4.45 15.2 M4.45 11.75 L1.7 10.05 6.75 11.45 4.45 11.75 M7.35 6.3 L5.55 5.0 10.95 5.65 12.55 8.7 11.4 8.7 9.9 8.0 10.95 5.65 11.3 2.95 14.7 3.1 10.95 5.65 7.35 6.3 M6.1 3.2 L8.4 2.85 10.95 5.65 6.1 3.2 M11.45 11.0 L11.2 12.6 8.6 13.45 8.1 11.3 9.15 11.65 10.35 10.55 11.45 11.0" fill="#7f6600" fill-rule="evenodd" stroke="none"/>
  </g>
</svg>
