<?xml version="1.0" encoding="UTF-8" standalone="no"?>
<svg xmlns:ffdec="https://www.free-decompiler.com/flash" xmlns:xlink="http://www.w3.org/1999/xlink" ffdec:objectType="shape" height="10.65px" width="18.1px" xmlns="http://www.w3.org/2000/svg">
  <g transform="matrix(1.0, 0.0, 0.0, 1.0, -0.45, 0.15)">
    <path d="M16.55 1.2 L16.7 0.7 16.7 0.65 16.75 0.6 16.8 0.7 15.9 3.6 15.85 3.85 15.85 4.0 15.9 4.0 15.9 4.5 15.95 4.85 16.05 4.85 16.1 5.15 16.15 5.1 16.35 5.1 16.45 5.05 16.05 5.35 15.4 6.4 15.25 6.6 15.15 7.05 15.2 7.05 15.15 7.2 15.15 7.5 15.2 7.5 15.25 7.7 15.35 7.7 15.4 7.85 15.45 7.85 15.55 8.0 15.6 7.95 15.7 8.05 15.85 7.95 15.9 8.05 16.05 7.9 16.25 7.85 16.7 7.6 17.2 6.95 17.85 5.6 18.05 4.95 18.25 4.6 18.3 4.4 18.4 4.15 18.35 4.9 18.15 5.65 17.35 7.25 16.9 7.8 16.65 7.9 16.55 8.0 16.25 8.15 16.2 8.2 15.8 8.2 15.75 8.25 15.65 8.2 15.55 8.25 15.4 8.1 15.3 7.95 15.15 7.65 15.2 7.8 15.05 7.45 15.05 7.4 15.0 7.35 15.0 7.25 14.75 7.25 14.7 7.2 14.2 7.35 14.15 7.3 13.4 7.7 12.9 8.1 12.75 8.25 12.65 8.15 13.05 7.75 Q13.35 7.55 13.7 7.4 L13.3 7.55 12.15 6.55 10.8 6.95 11.4 7.8 9.3 7.45 8.7 7.65 9.05 7.4 8.85 7.4 7.7 7.2 6.7 8.2 6.65 8.25 7.05 8.5 7.15 8.6 7.15 8.65 7.35 8.85 7.4 9.1 7.45 9.4 7.45 9.65 7.3 9.95 7.2 10.05 7.15 10.05 7.1 10.1 6.95 10.2 6.75 10.3 6.45 10.4 5.75 10.4 5.2 10.3 4.35 10.05 3.25 9.5 3.2 9.55 2.8 9.25 2.05 8.5 2.7 8.75 3.0 9.05 3.4 9.35 3.65 9.5 3.7 9.45 4.5 9.8 5.95 10.2 6.75 10.05 6.95 9.85 7.05 9.9 7.05 9.85 7.2 9.85 7.2 9.55 7.25 9.55 7.25 9.4 7.15 9.2 7.25 9.15 7.15 9.0 7.2 8.95 7.1 8.8 7.1 8.75 7.0 8.65 6.55 8.35 4.95 9.8 5.05 8.75 5.0 8.5 5.0 8.4 5.05 7.9 4.8 7.9 3.95 8.05 4.3 7.95 4.5 7.8 4.45 7.65 4.5 7.6 4.4 7.25 4.0 6.6 4.05 6.6 3.85 6.3 3.65 6.1 3.4 6.05 3.35 6.0 3.25 6.3 3.2 6.45 3.15 6.45 3.1 6.55 3.05 6.55 2.95 6.65 2.75 6.85 2.55 6.95 2.5 6.95 2.05 7.05 1.9 7.1 1.6 7.0 1.55 6.95 1.3 6.8 0.95 6.3 0.9 6.35 0.8 6.2 0.7 5.7 0.7 5.05 0.75 4.75 0.7 4.7 0.75 4.5 0.85 3.8 1.15 2.9 1.35 2.45 2.4 1.05 3.6 4.35 3.45 4.4 3.35 4.05 2.35 1.35 2.35 1.5 2.3 1.55 1.5 2.5 1.3 3.05 1.25 3.15 1.3 3.2 1.15 3.75 0.9 5.3 0.9 5.6 0.95 5.8 1.0 5.8 1.1 6.15 1.4 6.65 1.5 6.6 1.6 6.7 1.8 6.8 2.0 6.8 2.05 6.9 2.35 6.8 2.7 6.6 2.75 6.6 2.85 6.5 3.0 6.3 3.1 6.05 3.15 6.05 3.2 5.95 2.95 5.9 2.85 5.8 1.45 5.4 1.05 5.35 0.9 5.3 7.2 5.65 9.45 6.8 8.4 5.3 7.2 5.65 11.65 2.05 11.35 2.45 10.6 3.4 13.2 5.0 10.5 4.7 10.05 4.15 9.45 5.0 9.95 5.65 10.0 5.8 10.5 6.55 13.2 5.0 14.35 5.65 14.25 5.65 15.25 6.3 15.55 5.8 15.95 5.3 16.1 5.15 16.0 5.15 15.95 5.2 15.75 4.55 13.2 5.0 14.05 -0.15 14.45 3.25 15.75 3.65 15.9 3.1 16.25 2.25 16.55 1.2 M18.45 3.45 L18.55 3.5 18.55 3.55 17.95 4.0 17.8 4.25 17.75 4.15 17.8 4.15 17.6 3.1 17.7 3.05 17.55 2.65 17.5 2.45 17.2 1.95 16.95 1.05 17.6 1.95 17.65 2.05 17.6 2.1 17.75 2.3 18.1 3.75 18.45 3.45 M9.75 9.9 L9.55 10.0 8.9 10.15 7.75 10.3 6.9 10.3 7.2 10.1 7.25 10.05 8.3 10.0 9.35 9.8 9.55 9.7 9.65 9.75 9.6 9.75 9.75 9.9 M1.75 8.3 L1.6 8.2 2.05 8.15 1.15 6.75 1.55 7.05 1.7 7.3 2.0 7.7 1.85 7.4 2.5 8.2 2.75 8.2 1.75 8.3 M8.9 2.6 L8.4 2.0 9.25 2.55 8.9 2.6 M15.75 3.65 L15.7 3.85 15.7 4.25 15.75 4.4 15.75 3.65 M15.9 8.35 L16.45 8.2 16.15 8.5 14.75 9.35 14.75 9.4 14.45 9.5 14.4 9.45 13.7 9.15 12.6 8.5 12.65 8.45 12.6 8.4 12.4 8.3 12.4 8.25 12.05 8.2 11.55 8.05 10.55 8.15 10.25 8.3 10.2 8.25 9.85 8.5 9.9 8.55 9.7 8.8 9.6 8.9 9.5 9.05 9.6 9.1 9.55 9.25 9.6 9.3 9.6 9.4 9.7 9.45 9.85 9.65 9.9 9.65 10.0 9.75 10.05 9.7 10.15 9.8 10.3 9.9 10.4 9.85 10.8 10.0 11.55 10.05 11.6 9.95 12.75 9.85 13.55 9.6 14.25 9.55 13.05 10.1 12.6 10.15 12.6 10.2 12.3 10.25 11.3 10.3 10.65 10.25 10.35 10.15 10.3 10.2 10.0 10.05 10.0 10.0 9.9 10.0 9.7 9.8 9.65 9.7 9.6 9.7 9.5 9.55 9.45 9.5 9.4 9.3 9.4 9.2 9.45 9.0 9.45 8.95 9.6 8.65 9.9 8.3 10.3 8.05 11.1 7.95 11.85 7.95 12.65 8.2 12.65 8.25 12.7 8.3 13.25 8.6 13.35 8.75 14.35 9.25 15.55 8.6 15.9 8.35 M15.0 7.0 L15.0 6.95 15.1 6.65 15.25 6.3 15.15 6.5 14.0 7.2 14.2 7.1 14.05 7.2 14.1 7.25 14.3 7.15 15.0 7.05 15.0 7.15 15.05 7.05 15.0 7.0 M13.8 7.3 L13.8 7.35 13.9 7.25 13.8 7.3 M10.05 8.15 L9.85 8.05 9.65 8.0 9.65 7.95 9.15 7.9 7.9 8.15 7.2 8.55 7.1 8.45 7.85 8.0 9.25 7.8 9.75 7.8 9.85 7.85 9.9 7.9 10.05 8.0 10.2 8.05 10.05 8.15 M0.55 4.4 L0.5 4.3 0.45 4.15 0.7 4.3 0.7 4.45 0.55 4.4 M0.65 4.6 L0.65 5.0 0.6 4.5 0.65 4.6 M4.05 6.2 L3.95 6.2 4.35 6.7 4.3 6.75 4.5 7.15 4.7 7.7 4.7 7.75 4.65 7.75 4.6 7.8 5.05 7.75 5.05 7.7 5.15 6.55 4.05 6.2" fill="#7f6600" fill-rule="evenodd" stroke="none"/>
    <path d="M16.9 0.85 L17.85 2.3 18.15 3.65 18.4 3.45 18.45 3.45 18.1 3.75 17.75 2.3 17.6 2.1 17.65 2.05 17.6 1.95 16.95 1.05 16.9 0.85 M18.5 3.85 L18.55 3.75 18.35 5.3 18.2 5.65 18.15 5.65 18.05 6.05 17.5 7.1 17.35 7.25 17.2 7.5 16.8 7.95 16.7 8.0 16.15 8.5 15.65 8.9 14.75 9.4 14.5 9.55 14.1 9.7 13.5 10.0 12.9 10.2 11.95 10.35 10.35 10.3 9.9 10.05 9.75 9.9 9.6 9.75 9.65 9.75 9.55 9.7 9.5 9.65 9.5 9.6 9.45 9.5 9.5 9.55 9.6 9.7 9.65 9.7 9.7 9.8 9.9 10.0 10.0 10.0 10.0 10.05 10.3 10.2 10.35 10.15 10.65 10.25 11.3 10.3 12.3 10.25 12.6 10.2 12.6 10.15 13.05 10.1 14.25 9.55 14.4 9.45 14.45 9.5 14.75 9.4 14.75 9.35 16.15 8.5 16.45 8.2 15.9 8.35 15.9 8.3 15.65 8.3 15.55 8.25 15.65 8.2 15.75 8.25 15.8 8.2 16.2 8.2 16.25 8.15 16.55 8.0 16.65 7.9 16.9 7.8 17.35 7.25 18.15 5.65 18.35 4.9 18.4 4.15 18.5 3.85 M9.55 10.0 L9.45 10.05 8.9 10.2 7.35 10.4 6.75 10.35 6.05 10.5 5.75 10.45 5.8 10.5 5.1 10.35 3.15 9.6 1.75 8.3 2.05 8.5 2.8 9.25 3.2 9.55 3.25 9.5 4.35 10.05 5.2 10.3 5.75 10.4 6.45 10.4 6.75 10.3 6.95 10.2 7.1 10.1 7.15 10.05 7.2 10.05 7.3 9.95 7.45 9.65 7.45 9.4 7.5 9.45 7.45 9.75 7.35 10.0 7.25 10.05 7.2 10.1 6.9 10.3 7.75 10.3 8.9 10.15 9.55 10.0 M1.6 8.2 L1.65 8.15 1.95 8.1 1.55 7.6 0.75 6.15 0.6 5.55 0.45 4.15 0.45 4.05 0.75 4.2 0.75 4.15 0.85 3.55 1.25 2.45 2.45 0.9 3.7 4.3 3.6 4.35 2.4 1.05 1.35 2.45 1.15 2.9 0.85 3.8 0.75 4.5 0.7 4.7 0.75 4.75 0.7 5.05 0.7 5.7 0.8 6.2 0.9 6.35 0.95 6.3 1.3 6.8 1.55 6.95 1.6 7.0 1.9 7.1 2.05 7.05 2.5 6.95 2.55 6.95 2.75 6.85 2.95 6.65 3.05 6.55 3.1 6.55 2.95 6.65 2.95 6.75 2.75 6.85 2.55 7.0 2.55 6.95 2.35 7.05 1.95 7.15 1.75 7.15 1.55 7.05 1.15 6.75 2.05 8.15 1.6 8.2 M15.9 3.1 L16.55 1.2 16.25 2.25 15.9 3.1 M15.75 3.65 L15.75 4.4 15.7 4.25 15.7 3.85 15.75 3.65 M14.35 5.65 L13.2 5.0 15.75 4.55 15.95 5.2 16.0 5.15 16.1 5.15 15.95 5.3 15.55 5.8 15.25 6.3 15.7 5.5 15.9 5.3 15.8 5.0 14.35 5.65 M15.0 7.0 L15.05 7.05 15.0 7.15 15.0 7.05 14.3 7.15 14.1 7.25 14.05 7.2 14.2 7.1 14.65 7.0 15.0 7.0 M15.15 6.5 L15.25 6.3 15.1 6.65 15.15 6.5 M13.3 7.55 L13.7 7.4 Q13.35 7.55 13.05 7.75 L12.65 8.15 12.75 8.25 12.9 8.3 13.25 8.6 12.7 8.3 12.65 8.25 12.65 8.2 11.85 7.95 11.1 7.95 10.3 8.05 9.9 8.3 9.6 8.65 9.45 8.95 9.45 9.0 9.4 9.2 9.4 9.3 9.45 9.5 9.4 9.4 9.4 9.3 9.35 9.3 9.4 9.0 9.55 8.65 9.65 8.5 9.7 8.45 10.05 8.15 10.2 8.05 10.05 8.0 9.9 7.9 9.85 7.85 9.75 7.8 9.25 7.8 7.85 8.0 7.1 8.45 7.2 8.55 7.3 8.7 7.35 8.8 7.4 9.1 7.35 8.85 7.15 8.65 7.15 8.6 7.05 8.5 6.65 8.25 6.7 8.2 7.05 8.4 7.05 8.45 7.75 8.0 7.85 7.95 8.4 7.8 9.6 7.75 9.75 7.8 9.9 7.85 9.95 7.85 10.25 8.05 10.3 8.05 10.95 7.9 11.8 7.9 12.1 7.95 12.45 8.05 12.65 8.15 12.65 8.1 13.0 7.75 13.3 7.55 M13.8 7.3 L13.9 7.25 13.8 7.35 13.8 7.3 M3.2 6.45 L3.25 6.3 3.35 6.0 3.4 6.05 3.3 6.3 3.2 6.45 M0.55 4.4 L0.6 4.5 0.65 5.0 0.65 4.6 0.7 4.45 0.7 4.3 0.45 4.15 0.5 4.3 0.55 4.4 M5.05 7.7 L5.05 7.75 4.6 7.8 4.65 7.75 4.7 7.75 4.7 7.7 4.5 7.15 4.3 6.75 4.35 6.7 3.95 6.2 4.05 6.2 4.35 6.65 4.35 6.7 4.45 6.85 4.75 7.65 4.7 7.7 4.75 7.75 5.05 7.7" fill="#000000" fill-rule="evenodd" stroke="none"/>
    <path d="M16.8 0.7 L16.9 0.85 16.95 1.05 17.2 1.95 17.5 2.45 17.55 2.65 17.7 3.05 17.6 3.1 17.8 4.15 17.75 4.15 17.8 4.25 17.95 4.0 18.55 3.55 18.5 3.85 18.4 4.15 18.3 4.4 18.25 4.6 18.05 4.95 17.85 5.6 17.2 6.95 16.7 7.6 16.25 7.85 16.05 7.9 15.9 8.05 15.85 7.95 15.7 8.05 15.6 7.95 15.55 8.0 15.45 7.85 15.4 7.85 15.35 7.7 15.25 7.7 15.2 7.5 15.15 7.5 15.15 7.2 15.2 7.05 15.15 7.05 15.25 6.6 15.4 6.4 16.05 5.35 16.45 5.05 16.35 5.1 16.15 5.1 16.1 5.15 16.05 4.85 15.95 4.85 15.9 4.5 15.9 4.0 15.85 4.0 15.85 3.85 15.9 3.6 16.8 0.7 M3.7 4.3 L5.0 3.85 5.4 0.1 5.45 0.0 7.75 2.8 7.8 2.85 8.9 2.6 9.25 2.55 8.4 2.0 10.45 2.3 11.65 2.05 7.2 5.65 8.4 5.3 9.45 6.8 7.2 5.65 0.9 5.3 1.05 5.35 1.45 5.4 2.85 5.8 2.95 5.9 3.2 5.95 3.15 6.05 3.1 6.05 3.0 6.3 2.85 6.5 2.75 6.6 2.7 6.6 2.35 6.8 2.05 6.9 2.0 6.8 1.8 6.8 1.6 6.7 1.5 6.6 1.4 6.65 1.1 6.15 1.0 5.8 0.95 5.8 0.9 5.6 0.9 5.3 1.15 3.75 1.3 3.2 1.25 3.15 1.3 3.05 1.5 2.5 2.3 1.55 2.35 1.5 2.35 1.35 3.35 4.05 3.45 4.4 3.6 4.35 3.7 4.3 M11.35 2.45 L12.05 2.55 14.05 -0.15 13.2 5.0 10.6 3.4 11.35 2.45 M15.55 8.25 L15.65 8.3 15.9 8.3 15.9 8.35 15.55 8.6 14.35 9.25 13.35 8.75 13.25 8.6 12.9 8.3 12.75 8.25 12.9 8.1 13.4 7.7 14.15 7.3 14.2 7.35 14.7 7.2 14.75 7.25 15.0 7.25 15.0 7.35 15.05 7.4 15.05 7.45 15.2 7.8 15.15 7.65 15.3 7.95 15.4 8.1 15.55 8.25 M14.4 9.45 L14.25 9.55 13.55 9.6 12.75 9.85 11.6 9.95 11.55 10.05 10.8 10.0 10.4 9.85 10.3 9.9 10.15 9.8 10.05 9.7 10.0 9.75 9.9 9.65 9.85 9.65 9.7 9.45 9.6 9.4 9.6 9.3 9.55 9.25 9.6 9.1 9.5 9.05 9.6 8.9 9.7 8.8 9.9 8.55 9.85 8.5 10.2 8.25 10.25 8.3 10.55 8.15 11.55 8.05 12.05 8.2 12.4 8.25 12.4 8.3 12.6 8.4 12.65 8.45 12.6 8.5 13.7 9.15 14.4 9.45 M9.45 9.5 L9.5 9.6 9.5 9.65 9.55 9.7 9.35 9.8 8.3 10.0 7.25 10.05 7.35 10.0 7.45 9.75 7.5 9.45 7.45 9.4 7.4 9.1 7.35 8.8 7.3 8.7 7.2 8.55 7.9 8.15 9.15 7.9 9.65 7.95 9.65 8.0 9.85 8.05 10.05 8.15 9.7 8.45 9.65 8.5 9.55 8.65 9.4 9.0 9.35 9.3 9.4 9.3 9.4 9.4 9.45 9.5 M10.5 4.7 L13.2 5.0 10.5 6.55 10.0 5.8 9.95 5.65 10.5 4.7 M8.7 7.65 L8.85 7.4 9.05 7.4 8.7 7.65 M3.1 6.55 L3.15 6.45 3.2 6.45 3.3 6.3 3.4 6.05 3.65 6.1 3.85 6.3 4.05 6.6 4.0 6.6 4.4 7.25 4.5 7.6 4.45 7.65 4.5 7.8 4.3 7.95 3.95 8.05 4.8 7.9 5.05 7.9 5.0 8.4 5.0 8.5 5.05 8.75 4.95 9.8 6.55 8.35 7.0 8.65 7.1 8.75 7.1 8.8 7.2 8.95 7.15 9.0 7.25 9.15 7.15 9.2 7.25 9.4 7.25 9.55 7.2 9.55 7.2 9.85 7.05 9.85 7.05 9.9 6.95 9.85 6.75 10.05 5.95 10.2 4.5 9.8 3.7 9.45 3.65 9.5 3.4 9.35 3.0 9.05 2.7 8.75 2.05 8.5 1.75 8.3 2.75 8.2 2.5 8.2 1.85 7.4 2.0 7.7 1.7 7.3 1.55 7.05 1.75 7.15 1.95 7.15 2.35 7.05 2.55 6.95 2.55 7.0 2.75 6.85 2.95 6.75 2.95 6.65 3.1 6.55 M0.6 4.5 L0.55 4.4 0.7 4.45 0.65 4.6 0.6 4.5" fill="#ffcc00" fill-rule="evenodd" stroke="none"/>
  </g>
</svg>
