<?xml version="1.0" encoding="UTF-8" standalone="no"?>
<svg xmlns:ffdec="https://www.free-decompiler.com/flash" xmlns:xlink="http://www.w3.org/1999/xlink" ffdec:objectType="shape" height="10.6px" width="18.25px" xmlns="http://www.w3.org/2000/svg">
  <g transform="matrix(1.0, 0.0, 0.0, 1.0, -1.05, 0.1)">
    <path d="M16.15 3.85 L17.25 0.8 17.3 0.75 16.25 3.9 16.15 4.3 16.2 4.75 16.15 4.6 16.15 4.3 16.15 3.85 M17.4 0.9 L17.45 1.05 18.3 2.1 18.5 2.5 18.85 4.05 19.2 3.8 19.25 3.8 19.25 3.85 18.8 4.15 18.7 3.5 18.45 2.6 18.2 2.15 17.45 1.1 17.35 1.0 17.4 0.9 M19.25 4.0 L19.15 5.2 18.95 5.95 18.85 6.2 18.4 7.05 17.6 8.15 16.7 9.0 16.35 9.2 16.3 9.25 15.5 9.65 13.4 10.4 13.0 10.45 13.05 10.5 11.35 10.5 10.1 10.25 9.8 10.05 9.75 9.95 9.7 9.95 9.2 10.05 7.5 10.15 6.75 10.0 6.35 10.1 5.8 10.05 4.9 9.7 5.95 10.05 6.5 10.0 6.6 10.0 6.8 9.9 6.85 9.95 7.25 10.05 8.65 10.05 9.65 9.9 9.5 9.7 9.45 9.65 9.35 9.5 9.25 9.25 9.25 9.2 9.3 9.15 9.25 9.0 9.55 8.5 9.7 8.35 9.95 8.15 10.05 8.1 10.2 8.05 10.1 7.95 9.8 7.8 9.4 7.7 8.7 7.7 7.85 7.85 7.7 7.95 7.5 8.05 7.2 8.25 7.25 8.35 7.3 8.4 7.3 8.5 7.1 8.2 6.6 7.9 6.65 7.85 7.15 8.2 8.0 7.75 8.45 7.7 8.65 7.7 8.65 7.65 9.25 7.65 9.7 7.7 10.15 7.9 10.3 8.05 10.85 7.95 11.65 8.0 12.35 8.2 12.75 8.4 12.9 8.5 13.1 8.7 12.35 8.25 12.05 8.15 11.0 8.0 10.0 8.15 9.95 8.25 9.7 8.4 9.75 8.45 9.45 8.7 9.45 8.75 9.35 8.95 9.3 9.1 9.35 9.15 9.3 9.3 9.4 9.35 9.4 9.45 9.5 9.65 9.55 9.65 9.55 9.7 9.7 9.9 10.0 10.1 10.0 10.05 10.3 10.25 11.95 10.45 12.75 10.45 13.3 10.35 14.05 10.1 14.45 9.9 14.75 9.85 14.9 9.85 16.2 9.25 16.65 8.95 17.1 8.55 16.5 8.8 16.4 8.8 16.0 8.8 15.85 8.7 15.9 8.7 16.05 8.75 16.3 8.75 16.8 8.65 17.3 8.35 17.95 7.65 18.5 6.75 19.0 5.55 19.0 5.5 19.15 4.35 19.25 4.0 M4.25 9.4 L3.65 9.15 3.2 8.75 2.2 7.75 2.25 7.75 2.45 7.9 3.2 8.75 4.25 9.4 M2.0 7.55 L2.1 7.5 2.35 7.5 1.3 5.75 1.15 5.4 1.1 5.15 1.15 4.45 1.05 3.85 1.1 3.85 1.15 4.05 1.15 4.2 1.2 4.15 1.2 3.95 1.25 3.8 1.05 3.65 1.1 3.65 1.25 3.75 1.3 3.4 1.55 2.5 1.85 1.9 2.65 0.9 2.65 1.0 2.65 1.05 1.75 2.2 1.5 2.75 1.55 2.8 1.3 3.7 1.2 4.5 1.2 5.2 1.25 5.5 1.3 5.5 1.45 5.85 1.7 6.2 1.95 6.4 2.05 6.45 2.1 6.55 2.0 6.5 1.7 6.3 1.85 6.5 1.9 6.65 2.2 7.15 2.5 7.5 2.0 7.55 M2.75 0.75 L3.75 3.45 3.9 4.0 3.8 4.0 3.85 3.95 3.65 3.45 3.6 3.35 3.65 3.3 3.2 2.2 3.2 2.25 2.75 0.75 M16.55 5.45 L16.55 5.5 16.4 5.6 15.85 6.15 15.7 6.4 15.95 5.95 16.35 5.6 16.3 5.4 16.3 5.3 16.25 5.3 16.2 5.0 16.2 4.85 16.25 5.1 16.3 5.1 16.4 5.55 16.55 5.45 M15.7 6.4 L15.4 7.05 15.35 7.1 15.4 7.15 15.25 7.6 15.25 7.55 15.25 7.4 14.8 7.4 15.2 7.35 15.25 7.35 15.3 7.2 15.3 7.1 15.7 6.4 M15.25 7.85 L15.35 7.85 15.3 7.9 15.25 7.85 M15.7 8.6 L15.75 8.6 15.85 8.7 15.8 8.7 15.7 8.6 M13.55 7.8 L13.95 7.6 14.15 7.6 13.1 8.15 12.75 8.4 13.0 8.15 13.55 7.8 M14.55 7.4 L14.8 7.4 14.3 7.55 14.35 7.5 14.55 7.4 M4.4 5.95 L4.75 6.5 4.85 6.8 4.8 6.8 4.9 7.1 4.95 7.35 4.9 7.35 4.8 7.35 4.8 7.3 4.9 7.35 4.8 6.85 4.7 6.6 4.8 6.8 4.65 6.45 4.3 5.9 4.4 5.95 M7.4 9.5 L7.4 9.6 7.35 9.65 7.25 9.8 7.2 9.8 6.85 9.95 6.9 9.9 7.1 9.75 7.3 9.65 7.35 9.55 7.4 9.5 M2.95 6.35 L2.7 6.5 2.3 6.6 2.15 6.55 2.25 6.55 2.5 6.5 2.6 6.5 2.75 6.45 2.95 6.35" fill="#000000" fill-rule="evenodd" stroke="none"/>
    <path d="M10.65 4.7 L10.05 4.0 9.35 5.0 6.75 5.45 11.55 2.1 11.3 2.45 10.55 3.4 13.1 5.15 10.65 4.7 M14.4 -0.1 L14.45 0.1 14.85 3.4 13.1 5.15 14.4 -0.1 M17.3 0.75 L17.4 0.9 17.35 1.0 16.4 3.7 16.45 3.75 16.3 4.4 16.35 4.9 16.45 4.9 16.5 5.25 16.55 5.45 16.4 5.55 16.3 5.1 16.25 5.1 16.2 4.85 16.2 5.0 16.25 5.3 16.3 5.3 14.7 5.9 14.8 7.4 15.25 7.4 15.25 7.55 15.1 7.55 14.55 7.6 13.95 7.8 13.05 8.3 12.9 8.5 12.75 8.4 13.1 8.15 14.15 7.6 13.95 7.6 13.55 7.8 12.35 6.7 10.75 7.05 10.45 6.6 13.1 5.15 16.2 4.85 16.2 4.75 16.15 4.3 16.25 3.9 17.3 0.75 M19.25 3.85 L19.3 3.9 19.25 4.0 18.4 4.6 18.55 4.45 18.35 3.3 18.4 3.25 18.35 3.0 18.15 2.45 17.6 1.75 17.45 1.1 18.2 2.15 18.45 2.6 18.7 3.5 18.8 4.15 19.25 3.85 M4.9 9.7 L4.4 9.5 4.25 9.4 4.9 9.7 4.25 9.4 3.2 8.75 2.45 7.9 2.6 8.0 2.85 8.1 3.85 8.9 4.85 9.45 4.95 9.15 5.0 8.3 4.95 7.5 4.2 7.55 4.7 7.35 4.8 7.35 4.9 7.35 4.95 7.35 5.05 7.35 5.1 6.2 4.4 5.95 4.3 5.9 4.65 6.45 4.8 6.8 4.7 6.6 4.8 6.85 4.9 7.35 4.8 7.3 4.8 7.35 4.55 6.7 4.6 6.65 4.1 5.85 3.6 5.65 3.45 5.9 3.1 6.3 2.95 6.35 2.75 6.45 2.6 6.5 2.5 6.5 2.25 6.55 2.15 6.55 2.9 7.65 2.1 7.65 2.0 7.55 2.5 7.5 2.2 7.15 1.9 6.65 1.85 6.5 1.7 6.3 2.0 6.5 2.1 6.55 2.05 6.45 1.95 6.4 1.7 6.2 1.45 5.85 1.3 5.5 1.25 5.5 1.2 5.2 1.2 4.5 1.3 3.7 1.55 2.8 1.5 2.75 1.75 2.2 2.65 1.05 2.5 1.7 1.95 2.35 1.7 2.8 1.75 2.85 1.6 3.2 1.7 3.25 1.6 3.65 1.45 4.8 1.35 4.85 6.75 5.45 11.3 7.95 9.3 7.45 8.75 7.55 9.1 7.4 8.9 7.35 7.55 7.0 6.65 7.85 6.6 7.9 7.1 8.2 7.3 8.5 7.4 8.9 7.4 9.0 7.45 9.25 7.4 9.5 7.35 9.55 7.3 9.65 7.1 9.75 6.9 9.9 6.85 9.95 7.2 9.8 7.25 9.8 9.0 9.75 9.45 9.65 9.5 9.7 9.65 9.9 8.65 10.05 7.25 10.05 6.85 9.95 6.8 9.9 6.6 10.0 6.5 10.0 5.95 10.05 4.9 9.7 M1.05 3.85 L1.05 3.65 1.25 3.8 1.2 3.95 1.1 3.85 1.05 3.85 M2.65 0.9 L2.75 0.75 3.2 2.25 3.2 2.2 3.65 3.3 3.6 3.35 3.65 3.45 3.85 3.95 3.8 4.0 3.65 4.05 3.55 3.45 3.55 3.35 2.65 1.0 2.65 0.9 M4.95 3.6 L5.4 -0.05 6.75 5.45 4.95 3.6 M8.95 2.55 L8.5 1.95 9.25 2.5 8.95 2.55 M16.55 5.5 L16.65 5.45 17.05 5.35 16.6 5.6 16.15 6.0 15.8 6.5 15.55 7.05 15.5 7.2 15.55 7.25 15.45 7.45 15.4 7.7 15.45 7.7 15.45 7.9 15.55 7.9 15.6 8.15 15.65 8.3 15.7 8.25 15.8 8.4 15.9 8.4 15.95 8.45 16.1 8.55 16.15 8.5 16.2 8.55 16.25 8.45 16.5 8.45 16.9 8.35 17.3 8.0 17.6 7.65 18.0 7.05 18.7 5.55 18.75 5.55 18.8 5.4 18.85 4.95 19.05 4.5 19.15 4.35 19.0 5.5 19.0 5.55 18.5 6.75 17.95 7.65 17.3 8.35 16.8 8.65 16.3 8.75 16.05 8.75 15.9 8.7 15.85 8.7 15.75 8.6 15.7 8.6 15.65 8.55 15.45 8.3 15.3 7.9 15.35 7.85 15.25 7.85 15.25 7.6 15.4 7.15 15.35 7.1 15.4 7.05 15.7 6.4 15.85 6.15 16.4 5.6 16.55 5.5 M16.4 8.8 L16.5 8.8 17.1 8.55 16.65 8.95 16.2 9.25 14.9 9.85 14.75 9.85 14.35 9.6 14.6 9.7 16.15 9.0 16.4 8.8 M14.45 9.9 L14.05 10.1 13.3 10.35 12.75 10.45 11.95 10.45 10.3 10.25 10.0 10.05 10.0 10.1 9.7 9.9 9.55 9.7 9.55 9.65 9.5 9.65 9.4 9.45 9.4 9.35 9.3 9.3 9.35 9.15 9.3 9.1 9.35 8.95 9.45 8.75 9.45 8.7 9.75 8.45 9.7 8.4 9.95 8.25 10.0 8.15 11.0 8.0 12.05 8.15 12.35 8.25 13.1 8.7 13.45 9.05 12.55 8.5 12.3 8.45 12.3 8.35 11.5 8.15 10.9 8.15 10.45 8.2 10.0 8.35 9.95 8.4 9.95 8.45 9.8 8.55 9.5 8.85 9.55 8.9 9.45 9.05 9.55 9.1 9.5 9.25 9.55 9.3 9.55 9.4 9.65 9.4 9.65 9.5 9.75 9.45 9.85 9.6 9.85 9.65 10.05 9.9 10.1 9.95 10.15 9.85 10.25 9.9 10.4 10.0 10.85 10.1 12.6 10.2 13.3 10.1 13.75 9.95 14.45 9.9 M7.25 8.35 L7.2 8.25 7.5 8.05 7.7 7.95 7.85 7.85 8.7 7.7 9.4 7.7 9.8 7.8 10.1 7.95 10.2 8.05 10.05 8.1 10.05 8.05 9.85 7.95 9.55 7.85 8.4 7.85 8.0 7.95 7.75 8.05 7.75 8.1 7.25 8.35 M14.55 7.4 L14.35 7.5 14.3 7.55 14.8 7.4 14.55 7.4 M1.2 4.15 L1.15 4.2 1.15 4.05 1.2 4.15 M7.05 8.35 L6.5 7.95 5.05 9.3 4.95 9.45 5.55 9.65 6.05 9.75 6.45 9.75 6.65 9.7 6.8 9.7 6.95 9.6 7.05 9.6 7.05 9.55 7.15 9.55 7.2 9.4 7.25 9.4 7.25 9.25 7.35 9.2 7.25 8.85 7.3 8.8 7.25 8.75 7.05 8.45 7.1 8.45 7.05 8.35 M3.4 5.6 L2.35 5.15 1.45 4.9 1.5 5.45 1.5 5.5 1.6 5.5 1.75 5.85 1.95 6.05 2.1 6.15 2.05 6.25 2.15 6.3 2.35 6.25 2.4 6.3 2.75 6.2 2.8 6.25 3.05 6.0 3.15 6.05 3.35 5.65 3.4 5.65 3.4 5.6 M3.6 7.65 L3.35 7.7 3.4 7.65 3.65 7.6 4.2 7.55 4.15 7.6 3.6 7.65" fill="#7f6600" fill-rule="evenodd" stroke="none"/>
    <path d="M9.35 5.0 L9.9 5.8 10.65 4.7 13.1 5.15 10.55 3.4 11.3 2.45 12.2 2.6 14.4 -0.1 13.1 5.15 14.85 3.4 16.15 3.85 16.15 4.3 16.15 4.6 16.2 4.75 16.2 4.85 13.1 5.15 10.45 6.6 10.75 7.05 11.3 7.95 6.75 5.45 1.35 4.85 1.45 4.8 1.6 3.65 1.7 3.25 1.6 3.2 1.75 2.85 1.7 2.8 1.95 2.35 2.5 1.7 2.65 1.05 2.65 1.0 3.55 3.35 3.55 3.45 3.65 4.05 3.8 4.0 3.9 4.0 4.95 3.6 6.75 5.45 5.4 -0.05 7.7 2.75 8.95 2.55 9.25 2.5 8.5 1.95 10.45 2.3 11.55 2.1 6.75 5.45 9.35 5.0 M2.2 7.75 L2.1 7.65 2.9 7.65 2.15 6.55 2.3 6.6 2.7 6.5 2.95 6.35 3.1 6.3 3.45 5.9 3.6 5.65 4.1 5.85 4.6 6.65 4.55 6.7 4.8 7.35 4.7 7.35 4.2 7.55 4.95 7.5 5.0 8.3 4.95 9.15 4.85 9.45 3.85 8.9 2.85 8.1 2.6 8.0 2.45 7.9 2.25 7.75 2.2 7.75 M17.35 1.0 L17.45 1.1 17.6 1.75 18.15 2.45 18.35 3.0 18.4 3.25 18.35 3.3 18.55 4.45 18.4 4.6 19.25 4.0 19.15 4.35 19.05 4.5 18.85 4.95 18.8 5.4 18.75 5.55 18.7 5.55 18.0 7.05 17.6 7.65 17.3 8.0 16.9 8.35 16.5 8.45 16.25 8.45 16.2 8.55 16.15 8.5 16.1 8.55 15.95 8.45 15.9 8.4 15.8 8.4 15.7 8.25 15.65 8.3 15.6 8.15 15.55 7.9 15.45 7.9 15.45 7.7 15.4 7.7 15.45 7.45 15.55 7.25 15.5 7.2 15.55 7.05 15.8 6.5 16.15 6.0 16.6 5.6 17.05 5.35 16.65 5.45 16.55 5.5 16.55 5.45 16.5 5.25 16.45 4.9 16.35 4.9 16.3 4.4 16.45 3.75 16.4 3.7 17.35 1.0 M15.85 8.7 L16.0 8.8 16.4 8.8 16.15 9.0 14.6 9.7 14.35 9.6 13.45 9.05 14.35 9.6 14.75 9.85 14.45 9.9 13.75 9.95 13.3 10.1 12.6 10.2 10.85 10.1 10.4 10.0 10.25 9.9 10.15 9.85 10.1 9.95 10.05 9.9 9.85 9.65 9.85 9.6 9.75 9.45 9.65 9.5 9.65 9.4 9.55 9.4 9.55 9.3 9.5 9.25 9.55 9.1 9.45 9.05 9.55 8.9 9.5 8.85 9.8 8.55 9.95 8.45 9.95 8.4 10.0 8.35 10.45 8.2 10.9 8.15 11.5 8.15 12.3 8.35 12.3 8.45 12.55 8.5 13.45 9.05 13.1 8.7 12.9 8.5 13.05 8.3 13.95 7.8 14.55 7.6 15.1 7.55 15.25 7.55 15.25 7.6 15.25 7.85 15.3 7.9 15.45 8.3 15.65 8.55 15.7 8.6 15.8 8.7 15.85 8.7 M7.3 8.5 L7.3 8.4 7.25 8.35 7.75 8.1 7.75 8.05 8.0 7.95 8.4 7.85 9.55 7.85 9.85 7.95 10.05 8.05 10.05 8.1 9.95 8.15 9.7 8.35 9.55 8.5 9.25 9.0 9.3 9.15 9.25 9.2 9.25 9.25 9.35 9.5 9.45 9.65 9.0 9.75 7.25 9.8 7.35 9.65 7.4 9.6 7.4 9.5 7.45 9.25 7.4 9.0 7.4 8.9 7.3 8.5 M1.1 3.85 L1.2 3.95 1.2 4.15 1.15 4.05 1.1 3.85 M8.9 7.35 L9.1 7.4 8.75 7.55 8.9 7.35 M7.05 8.35 L7.1 8.45 7.05 8.45 7.25 8.75 7.3 8.8 7.25 8.85 7.35 9.2 7.25 9.25 7.25 9.4 7.2 9.4 7.15 9.55 7.05 9.55 7.05 9.6 6.95 9.6 6.8 9.7 6.65 9.7 6.45 9.75 6.05 9.75 5.55 9.65 4.95 9.45 5.05 9.3 6.5 7.95 7.05 8.35 M3.4 5.6 L3.4 5.65 3.35 5.65 3.15 6.05 3.05 6.0 2.8 6.25 2.75 6.2 2.4 6.3 2.35 6.25 2.15 6.3 2.05 6.25 2.1 6.15 1.95 6.05 1.75 5.85 1.6 5.5 1.5 5.5 1.5 5.45 1.45 4.9 2.35 5.15 3.4 5.6 M3.6 7.65 L4.15 7.6 4.2 7.55 3.65 7.6 3.4 7.65 3.35 7.7 3.6 7.65" fill="#ffcc00" fill-rule="evenodd" stroke="none"/>
  </g>
</svg>
