<?xml version="1.0" encoding="UTF-8" standalone="no"?>
<svg xmlns:ffdec="https://www.free-decompiler.com/flash" xmlns:xlink="http://www.w3.org/1999/xlink" ffdec:objectType="shape" height="10.85px" width="17.85px" xmlns="http://www.w3.org/2000/svg">
  <g transform="matrix(1.0, 0.0, 0.0, 1.0, -1.85, 0.1)">
    <path d="M9.9 5.95 L10.65 7.15 11.2 8.0 6.5 5.25 9.25 4.95 9.9 5.95 M12.9 8.75 L12.9 8.7 13.05 8.6 13.55 8.35 13.5 8.3 13.75 8.15 14.55 7.95 15.15 7.9 15.3 7.95 15.25 8.15 15.45 8.65 15.6 8.9 15.7 9.05 15.75 9.1 15.85 9.2 16.0 9.25 16.2 9.35 16.25 9.3 16.7 9.3 16.4 9.5 16.35 9.45 15.55 9.8 15.05 9.95 14.8 10.0 14.55 10.1 14.8 10.3 14.45 10.3 14.35 10.35 13.6 10.25 13.15 10.4 12.75 10.45 10.7 10.2 10.2 10.0 10.0 9.85 9.75 9.6 9.65 9.45 9.55 9.45 9.55 9.3 9.45 9.25 9.5 9.15 9.45 9.1 9.5 9.0 9.45 8.9 9.7 8.65 9.7 8.55 10.0 8.35 10.2 8.3 10.2 8.25 10.7 8.2 12.0 8.45 12.35 8.6 13.25 9.25 13.0 9.0 12.95 8.85 12.9 8.8 12.95 8.8 12.9 8.75 M16.35 5.15 L16.3 5.15 12.9 5.35 10.75 6.45 11.75 5.0 12.9 5.35 10.45 3.4 11.2 2.45 12.3 2.65 14.6 -0.05 15.0 3.6 16.4 4.1 16.35 4.25 16.35 4.3 16.3 4.6 16.35 5.0 16.35 5.15 M11.45 2.15 L6.5 5.25 5.55 -0.1 7.65 2.7 9.05 2.5 9.3 2.45 8.65 1.9 10.45 2.3 11.45 2.15 M18.25 8.3 L18.2 8.35 18.2 8.3 18.25 8.3 M1.9 3.75 L1.85 3.5 1.9 3.55 1.9 3.75 M3.15 0.8 L3.2 0.75 4.0 3.1 4.15 3.7 4.1 3.7 4.1 3.75 3.55 3.9 3.25 4.05 2.25 4.4 2.3 3.75 2.4 3.4 2.2 3.75 2.4 2.85 2.55 2.45 2.85 2.0 2.85 1.85 2.9 1.75 3.1 1.05 3.15 0.8 M16.75 5.8 L16.7 5.65 16.6 4.65 16.5 4.55 16.7 3.9 17.15 2.9 17.65 1.35 17.7 1.55 18.5 2.5 18.65 2.85 18.7 3.2 19.05 4.7 18.95 4.8 18.4 5.15 19.55 4.55 19.45 4.8 19.4 4.85 19.2 5.15 19.15 5.9 18.6 7.3 18.5 7.25 17.9 8.15 17.35 8.7 16.9 9.0 16.6 9.05 16.4 8.95 16.4 9.1 16.15 9.05 16.05 8.95 15.95 9.0 15.7 8.55 15.65 8.55 15.6 8.35 15.5 8.35 15.55 8.15 15.55 7.95 15.5 7.9 15.65 7.6 15.65 7.55 15.85 7.15 15.8 7.05 16.25 6.45 16.7 6.05 18.4 5.15 17.35 5.65 17.5 5.55 17.25 5.7 16.95 5.8 16.85 5.8 16.75 5.8 M3.45 5.95 L3.55 5.9 3.75 5.7 4.0 5.35 4.65 5.65 4.8 5.9 5.1 6.55 5.15 7.0 5.0 7.0 4.5 7.15 3.75 7.2 5.2 7.2 5.2 7.3 5.15 7.3 5.1 8.9 4.5 8.55 3.7 7.9 3.05 7.45 2.7 7.2 3.75 7.2 3.5 7.15 2.85 6.15 3.2 6.1 3.45 5.95 M3.85 5.25 L3.8 5.3 3.7 5.5 3.6 5.65 3.55 5.65 3.45 5.75 3.35 5.75 3.25 5.85 3.15 5.75 3.05 5.85 2.95 5.75 2.85 5.8 2.8 5.7 2.65 5.75 2.65 5.65 2.55 5.55 2.35 5.25 2.25 5.05 2.2 4.6 2.75 4.8 3.15 5.0 3.35 5.05 3.85 5.25 M7.45 8.2 L7.85 8.0 7.85 7.95 8.05 7.85 8.25 7.85 8.65 7.8 8.65 7.75 9.05 7.75 9.65 7.85 9.95 7.95 10.1 8.05 10.05 8.1 Q9.85 8.25 9.6 8.35 L9.55 8.45 9.4 8.55 9.2 8.9 9.2 9.25 9.25 9.25 9.25 9.4 9.3 9.55 9.4 9.65 7.6 9.6 7.6 9.5 7.45 9.5 7.4 9.45 7.4 9.4 7.45 9.3 7.5 9.15 7.5 8.75 7.4 8.8 7.45 8.85 7.45 9.15 7.4 9.15 7.3 9.3 7.2 9.3 7.15 9.4 7.1 9.35 7.05 9.4 6.95 9.35 6.85 9.4 6.8 9.35 6.75 9.35 6.45 9.45 6.35 9.35 6.1 9.35 5.65 9.2 5.2 8.95 6.65 7.65 7.0 7.9 7.35 8.25 7.35 8.35 7.3 8.4 7.5 8.75 7.45 8.2" fill="#ffcc00" fill-rule="evenodd" stroke="none"/>
    <path d="M9.9 5.95 L10.7 4.75 10.05 3.85 9.25 4.95 6.5 5.25 11.45 2.15 11.2 2.45 10.45 3.4 12.9 5.35 11.75 5.0 10.75 6.45 12.9 5.35 16.3 5.15 16.35 5.15 16.45 5.7 14.9 6.2 15.0 7.75 14.8 7.7 14.45 7.8 14.35 7.85 15.0 7.75 15.3 7.8 15.3 7.95 15.15 7.9 14.55 7.95 13.75 8.15 13.5 8.3 13.55 8.35 13.05 8.6 12.9 8.7 12.9 8.75 12.8 8.7 12.85 8.65 12.85 8.6 13.15 8.35 13.65 8.05 14.25 7.9 14.05 7.9 13.65 8.05 12.45 6.85 10.65 7.15 9.9 5.95 M18.4 8.2 L18.25 8.3 18.2 8.3 18.3 8.15 18.4 8.2 M12.3 10.7 L12.15 10.7 11.95 10.7 10.85 10.5 10.1 10.25 10.0 10.15 9.7 9.95 9.65 9.85 9.45 9.65 9.45 9.6 9.35 9.45 9.3 9.3 9.25 9.25 9.25 9.2 9.3 8.95 9.3 8.9 9.35 8.8 9.35 8.7 9.5 8.55 9.65 8.45 9.65 8.4 9.8 8.3 10.0 8.2 10.0 8.15 10.35 8.1 10.9 8.1 12.15 8.35 12.95 8.85 13.0 9.0 13.25 9.25 12.35 8.6 12.0 8.45 10.7 8.2 10.2 8.25 10.2 8.3 10.0 8.35 9.7 8.55 9.7 8.65 9.45 8.9 9.5 9.0 9.45 9.1 9.5 9.15 9.45 9.25 9.55 9.3 9.55 9.45 9.65 9.45 9.75 9.6 10.0 9.85 10.2 10.0 10.7 10.2 12.75 10.45 13.15 10.4 13.6 10.25 14.35 10.35 13.5 10.6 12.9 10.7 12.3 10.7 11.95 10.7 12.3 10.7 M2.7 7.2 L2.65 7.05 3.1 7.05 3.05 7.0 2.6 6.2 2.5 5.95 2.65 6.05 2.85 6.15 3.5 7.15 3.75 7.2 2.7 7.2 M1.85 3.5 L1.85 3.35 1.9 3.3 1.95 3.35 1.9 3.55 1.85 3.5 M3.2 0.75 L3.25 0.65 3.3 0.6 3.3 0.65 3.35 0.7 4.25 3.65 4.25 3.7 4.35 3.7 5.15 3.4 5.55 -0.1 6.5 5.25 1.9 4.45 1.95 3.55 2.15 2.7 2.3 2.3 2.25 2.25 3.1 1.05 2.9 1.75 2.85 1.85 2.85 2.0 2.55 2.45 2.4 2.85 2.2 3.75 2.4 3.4 2.3 3.75 2.25 4.4 3.25 4.05 3.55 3.9 4.1 3.75 4.1 3.7 4.15 3.7 4.0 3.1 3.2 0.75 M9.05 2.5 L8.65 1.9 9.3 2.45 9.05 2.5 M16.75 5.8 L16.6 5.85 16.55 5.7 16.45 5.15 16.4 5.1 16.35 5.0 16.35 4.45 17.6 0.95 17.6 1.05 17.75 1.35 18.35 2.05 18.8 2.75 19.1 3.6 19.2 4.25 19.2 4.5 19.1 4.65 19.7 4.3 19.6 4.55 19.35 6.2 19.2 6.65 19.15 6.65 18.9 7.15 18.3 8.1 17.8 8.65 17.4 8.95 17.35 9.05 17.3 9.0 17.0 9.15 16.6 9.25 16.3 9.25 16.1 9.2 16.05 9.25 15.95 9.2 15.8 9.05 15.75 9.1 15.6 8.9 15.5 8.7 15.45 8.55 15.4 8.5 15.35 8.25 15.35 8.05 15.3 8.0 15.3 7.95 15.55 7.25 15.55 7.2 15.8 6.75 15.85 6.65 15.9 6.6 16.4 6.1 16.85 5.8 16.95 5.8 17.25 5.7 17.5 5.55 17.35 5.65 18.4 5.15 16.7 6.05 16.25 6.45 15.8 7.05 15.85 7.15 15.65 7.55 15.65 7.6 15.5 7.9 15.55 7.95 15.55 8.15 15.5 8.35 15.6 8.35 15.65 8.55 15.7 8.55 15.95 9.0 16.05 8.95 16.15 9.05 16.4 9.1 16.4 8.95 16.6 9.05 16.9 9.0 17.35 8.7 17.9 8.15 18.5 7.25 18.6 7.3 19.15 5.9 19.2 5.15 19.4 4.85 19.45 4.8 19.55 4.55 18.4 5.15 18.95 4.8 19.05 4.7 18.7 3.2 18.65 2.85 18.5 2.5 17.7 1.55 17.65 1.35 17.15 2.9 16.7 3.9 16.5 4.55 16.6 4.65 16.7 5.65 16.75 5.8 M3.45 5.95 L3.4 5.95 3.1 6.05 2.75 6.05 2.7 6.0 2.6 5.95 2.35 5.75 2.15 5.45 2.0 5.15 1.95 5.0 1.95 4.65 1.9 4.6 1.9 4.45 2.2 4.6 2.25 5.05 2.35 5.25 2.55 5.55 2.65 5.65 2.65 5.75 2.8 5.7 2.85 5.8 2.95 5.75 3.05 5.85 3.15 5.75 3.25 5.85 3.35 5.75 3.45 5.75 3.55 5.65 3.6 5.65 3.7 5.5 3.8 5.3 3.85 5.25 4.0 5.35 3.75 5.7 3.55 5.9 3.45 5.95 M10.1 8.05 L9.95 7.95 9.65 7.85 9.05 7.75 8.65 7.75 8.65 7.8 8.25 7.85 8.05 7.85 7.85 7.95 7.85 8.0 7.45 8.2 7.35 8.05 7.6 7.95 7.6 7.9 7.95 7.75 8.4 7.7 8.4 7.65 8.85 7.6 9.7 7.7 10.0 7.85 10.3 8.05 10.1 8.05 M6.75 7.55 L6.75 7.6 7.05 7.8 7.45 8.2 7.5 8.75 7.3 8.4 7.35 8.35 7.35 8.25 7.0 7.9 6.65 7.65 5.2 8.95 5.65 9.2 6.1 9.35 6.35 9.35 6.45 9.45 6.75 9.35 6.8 9.35 6.85 9.4 6.95 9.35 7.05 9.4 7.1 9.35 7.15 9.4 7.2 9.3 7.3 9.3 7.4 9.15 7.45 9.15 7.45 8.85 7.4 8.8 7.5 8.75 7.5 9.15 7.45 9.3 7.4 9.4 7.35 9.4 7.25 9.5 7.2 9.5 7.2 9.55 7.0 9.65 6.3 9.7 6.15 9.65 6.05 9.6 5.85 9.55 5.6 9.45 4.4 8.8 3.7 8.3 3.35 7.9 3.05 7.45 3.7 7.9 4.5 8.55 5.1 8.9 5.15 7.3 5.2 7.3 5.2 7.2 3.75 7.2 4.5 7.15 5.0 7.0 5.25 7.05 5.25 6.95 5.15 7.0 5.1 6.55 4.8 5.9 4.65 5.65 4.85 5.75 5.15 6.35 5.25 6.65 5.25 6.55 5.3 6.0 5.3 5.9 6.5 5.25 11.2 8.0 9.3 7.4 8.85 7.5 9.0 7.3 7.55 6.85 6.75 7.55 M7.4 9.45 L7.45 9.5 7.6 9.5 7.6 9.6 9.4 9.65 9.55 9.85 9.25 9.9 8.3 9.9 7.1 9.75 7.1 9.65 7.2 9.65 7.2 9.55 7.3 9.55 7.4 9.45 M12.9 8.8 L12.9 8.75 12.95 8.8 12.9 8.8 M16.7 9.3 L16.75 9.25 16.7 9.35 17.2 9.15 17.3 9.1 17.0 9.45 16.8 9.5 16.6 9.65 14.7 10.35 14.2 10.45 14.8 10.3 14.55 10.1 14.8 10.0 15.05 9.95 15.55 9.8 16.35 9.45 16.4 9.5 16.7 9.3" fill="#7f6600" fill-rule="evenodd" stroke="none"/>
    <path d="M13.65 8.05 L14.05 7.9 14.25 7.9 13.65 8.05 13.15 8.35 12.85 8.6 12.85 8.65 12.8 8.7 12.9 8.75 12.9 8.8 12.95 8.85 12.15 8.35 10.9 8.1 10.35 8.1 10.0 8.15 10.0 8.2 9.8 8.3 9.65 8.4 9.65 8.45 9.5 8.55 9.35 8.7 9.35 8.8 9.3 8.9 9.3 8.95 9.25 9.2 9.25 9.25 9.3 9.3 9.35 9.45 9.45 9.6 9.45 9.65 9.65 9.85 9.7 9.95 10.0 10.15 10.1 10.25 10.85 10.5 11.95 10.7 11.15 10.6 11.0 10.55 10.3 10.4 9.9 10.15 9.65 9.95 8.6 10.0 7.6 9.9 7.15 9.8 6.9 9.7 6.6 9.75 6.25 9.75 6.05 9.7 6.05 9.65 5.75 9.6 5.0 9.25 3.9 8.55 3.2 7.8 3.0 7.5 2.7 7.2 3.05 7.45 3.35 7.9 3.7 8.3 4.4 8.8 5.6 9.45 5.85 9.55 6.05 9.6 6.15 9.65 6.3 9.7 7.0 9.65 7.2 9.55 7.2 9.5 7.25 9.5 7.35 9.4 7.4 9.4 7.4 9.45 7.3 9.55 7.2 9.55 7.2 9.65 7.1 9.65 7.1 9.75 8.3 9.9 9.25 9.9 9.55 9.85 9.4 9.65 9.3 9.55 9.25 9.4 9.25 9.25 9.2 9.25 9.2 8.9 9.4 8.55 9.55 8.45 9.6 8.35 Q9.85 8.25 10.05 8.1 L10.1 8.05 10.3 8.05 10.0 7.85 9.7 7.7 8.85 7.6 8.4 7.65 8.4 7.7 7.95 7.75 7.6 7.9 7.6 7.95 7.35 8.05 7.45 8.2 7.05 7.8 6.75 7.6 6.75 7.55 7.25 7.9 7.3 8.0 7.8 7.75 8.2 7.65 8.65 7.6 8.85 7.6 9.7 7.65 10.0 7.75 10.15 7.85 10.3 8.05 11.5 8.1 11.85 8.25 11.95 8.25 12.35 8.4 12.75 8.65 12.75 8.6 13.05 8.35 13.65 8.05 M15.3 7.95 L15.3 7.8 15.0 7.75 14.35 7.85 14.45 7.8 14.8 7.7 15.0 7.75 15.3 7.75 15.45 7.3 15.8 6.75 15.55 7.2 15.55 7.25 15.3 7.95 15.3 8.0 15.35 8.05 15.35 8.25 15.4 8.5 15.45 8.55 15.5 8.7 15.6 8.9 15.75 9.1 15.8 9.05 15.95 9.2 16.05 9.25 16.1 9.2 16.3 9.25 16.6 9.25 17.0 9.15 17.3 9.0 17.35 9.05 17.4 8.95 17.8 8.65 18.3 8.1 18.9 7.15 19.15 6.65 19.2 6.65 19.35 6.2 19.6 4.55 19.7 4.3 19.1 4.65 19.2 4.5 19.2 4.25 19.1 3.6 18.8 2.75 18.35 2.05 17.75 1.35 17.6 1.05 17.6 0.95 16.35 4.45 16.35 5.0 16.4 5.1 16.45 5.15 16.55 5.7 16.6 5.85 16.75 5.8 16.85 5.8 16.4 6.1 15.9 6.6 16.0 6.45 16.55 5.9 16.5 5.85 16.45 5.7 16.35 5.15 16.35 5.0 16.3 4.6 16.35 4.3 16.35 4.25 16.4 4.1 16.5 3.75 17.55 0.9 17.6 0.95 17.8 1.25 18.75 2.5 19.15 3.55 19.25 4.25 19.3 4.45 19.65 4.25 19.7 4.3 19.45 6.05 19.45 6.15 19.15 6.9 18.35 8.15 18.4 8.2 18.3 8.15 18.2 8.3 18.2 8.35 17.25 9.25 17.2 9.35 16.85 9.55 16.6 9.75 15.1 10.3 14.05 10.5 13.3 10.7 12.95 10.75 12.3 10.7 12.9 10.7 13.5 10.6 14.35 10.35 14.45 10.3 14.8 10.3 14.2 10.45 14.7 10.35 16.6 9.65 16.8 9.5 17.0 9.45 17.3 9.1 17.2 9.15 16.7 9.35 16.75 9.25 16.7 9.3 16.25 9.3 16.2 9.35 16.0 9.25 15.85 9.2 15.75 9.1 15.7 9.05 15.6 8.9 15.45 8.65 15.25 8.15 15.3 7.95 M2.65 7.05 L2.65 7.0 2.75 6.95 2.95 6.95 2.4 5.95 2.4 5.9 2.25 5.75 2.1 5.5 1.95 5.15 1.85 4.7 1.85 4.1 1.9 3.8 1.9 3.75 1.9 3.55 1.95 3.35 2.0 2.95 2.25 2.25 2.4 1.85 3.15 0.8 3.1 1.05 2.25 2.25 2.3 2.3 2.15 2.7 1.95 3.55 1.9 4.45 6.5 5.25 5.3 5.9 4.9 5.75 5.15 6.15 5.25 6.55 5.25 6.65 5.15 6.35 4.85 5.75 4.65 5.65 4.0 5.35 3.85 5.25 3.35 5.05 3.15 5.0 2.75 4.8 2.2 4.6 1.9 4.45 1.9 4.6 1.95 4.65 1.95 5.0 2.0 5.15 2.15 5.45 2.35 5.75 2.6 5.95 2.7 6.0 2.75 6.05 3.1 6.05 3.4 5.95 3.45 5.95 3.2 6.1 2.85 6.15 2.65 6.05 2.5 5.95 2.6 6.2 3.05 7.0 3.1 7.05 2.65 7.05 M3.35 0.7 L4.35 3.7 4.25 3.7 4.25 3.65 3.35 0.7 M5.15 7.0 L5.25 6.95 5.25 7.05 5.0 7.0 5.15 7.0" fill="#000000" fill-rule="evenodd" stroke="none"/>
  </g>
</svg>
