<?xml version="1.0" encoding="UTF-8" standalone="no"?>
<svg xmlns:ffdec="https://www.free-decompiler.com/flash" xmlns:xlink="http://www.w3.org/1999/xlink" ffdec:objectType="shape" height="11.15px" width="17.05px" xmlns="http://www.w3.org/2000/svg">
  <g transform="matrix(1.0, 0.0, 0.0, 1.0, -2.7, 0.15)">
    <path d="M12.6 5.5 L10.35 3.4 10.05 3.75 9.2 4.9 9.9 6.1 10.55 7.2 11.05 8.1 6.35 5.1 9.5 2.4 9.4 2.4 8.85 1.9 10.45 2.3 11.3 2.2 11.05 2.45 12.3 2.75 12.6 5.5 14.6 0.0 15.05 3.8 16.35 4.35 16.25 4.75 16.25 5.2 16.3 5.45 12.6 5.5 14.9 6.5 15.0 8.1 14.6 8.1 14.3 8.15 14.15 8.25 13.9 7.8 12.6 5.5 M3.65 6.95 L3.6 6.9 5.15 7.0 5.2 6.95 5.4 6.95 5.45 6.85 5.55 6.9 5.5 7.65 5.25 7.6 5.0 7.6 4.45 7.55 4.15 7.4 3.8 7.1 3.65 6.95 M3.8 0.8 L3.9 0.65 3.95 0.55 4.8 3.45 3.85 3.8 3.75 3.8 3.8 3.75 3.25 3.55 3.7 3.4 3.3 3.2 3.4 2.95 3.25 2.85 3.45 2.35 3.55 1.65 3.7 1.1 3.8 0.8 M5.85 -0.15 L7.75 2.6 6.35 5.1 5.85 -0.15 M19.2 5.0 L19.0 5.1 18.9 5.2 18.25 5.6 17.0 6.15 16.75 6.2 16.75 6.05 16.65 5.55 16.55 5.55 16.5 5.05 16.55 4.7 16.65 4.4 16.6 4.35 17.6 1.7 17.6 1.55 18.3 2.45 18.7 3.1 18.85 3.45 19.05 4.1 19.2 5.0 M19.6 5.0 L19.35 5.25 19.35 5.4 19.25 6.6 19.1 6.6 19.0 7.1 18.55 7.9 18.2 8.25 17.8 8.8 17.2 9.4 17.1 9.3 16.85 9.5 16.5 9.6 16.3 9.6 16.3 9.5 16.05 9.5 15.85 9.4 15.75 9.45 15.6 9.2 15.55 8.95 15.5 8.85 15.4 8.8 15.4 8.65 15.45 8.5 15.35 8.4 15.55 7.9 15.5 7.85 16.2 6.85 16.2 6.8 16.45 6.55 Q16.75 6.45 17.0 6.3 L17.0 6.2 19.6 5.0 M15.1 8.35 L15.1 8.6 15.15 9.0 15.4 9.45 15.65 9.7 15.85 9.8 16.0 9.85 16.35 9.9 16.55 9.9 15.9 10.2 15.85 10.1 14.85 10.4 14.3 10.5 14.55 10.6 14.65 10.7 14.4 10.75 14.1 10.7 13.2 10.6 13.0 10.65 12.85 10.65 12.6 10.55 12.35 10.55 11.85 10.5 10.75 10.25 10.05 9.95 9.95 9.8 9.65 9.55 9.6 9.4 9.6 9.35 9.5 9.3 9.55 9.15 9.45 9.1 9.55 9.0 9.5 8.9 9.65 8.8 9.6 8.7 9.75 8.65 9.7 8.55 9.85 8.5 9.85 8.4 10.0 8.4 10.05 8.3 10.25 8.3 10.3 8.25 11.15 8.4 11.45 8.5 11.5 8.45 11.9 8.6 12.25 8.8 12.85 9.3 12.75 9.1 12.9 9.0 12.9 8.95 13.2 8.75 13.65 8.6 13.35 8.6 13.55 8.55 13.75 8.45 14.5 8.35 14.5 8.3 15.0 8.3 15.0 8.35 15.1 8.35 M10.2 8.05 L9.7 8.2 9.5 8.35 9.25 8.7 9.15 8.95 9.15 9.2 9.2 9.35 9.25 9.45 8.75 9.45 8.4 9.3 7.9 9.25 7.6 9.15 7.65 8.95 7.6 8.95 7.55 9.1 7.4 9.1 7.4 9.2 7.15 9.05 7.1 9.1 7.0 9.0 6.9 8.95 6.85 8.9 6.75 8.9 6.55 8.95 6.35 8.9 6.15 8.8 6.15 8.7 5.95 8.6 5.95 8.15 6.85 7.4 7.1 7.6 7.15 7.6 7.55 7.95 7.65 8.3 7.85 8.15 7.85 8.1 8.05 8.0 8.05 7.95 8.25 7.9 8.25 7.8 8.45 7.8 8.5 7.7 8.9 7.7 9.3 7.8 9.3 7.75 9.8 7.85 9.85 7.8 10.2 8.05 M18.15 8.95 L18.25 8.95 18.05 9.05 18.15 8.95 M4.45 5.0 L4.35 5.2 4.3 5.2 4.2 5.35 4.05 5.3 4.0 5.4 3.85 5.25 3.75 5.35 3.6 5.15 3.65 5.15 3.6 5.05 3.7 4.9 3.8 4.7 4.45 5.0 M5.35 5.5 L5.4 5.65 5.6 6.05 5.55 6.7 5.3 6.75 5.15 6.8 4.85 6.8 4.85 6.7 4.8 6.45 4.75 6.3 4.65 6.3 4.65 6.1 4.55 6.15 4.55 5.85 4.45 5.9 4.4 5.65 4.25 5.45 4.45 5.2 4.6 5.1 5.35 5.5" fill="#ffcc00" fill-rule="evenodd" stroke="none"/>
    <path d="M10.05 3.75 L10.35 3.4 12.6 5.5 10.8 4.8 10.05 3.75 M8.85 1.9 L9.4 2.4 9.2 2.45 8.85 1.9 M6.35 5.1 L11.05 8.1 9.3 7.35 9.1 7.3 7.65 6.7 6.35 5.1 5.45 8.65 5.5 7.65 5.55 6.9 5.55 6.75 5.3 6.75 5.55 6.7 5.6 6.05 5.6 5.75 5.5 5.6 5.35 5.5 4.6 5.1 4.45 5.0 3.8 4.7 3.05 4.25 2.85 4.2 2.8 4.1 2.85 4.6 2.9 4.85 3.0 5.1 3.2 5.4 3.3 5.45 3.35 5.55 3.45 5.6 3.4 5.65 3.75 5.65 3.8 5.7 3.65 5.75 3.4 5.65 3.35 5.65 3.8 6.6 3.85 6.65 3.4 6.6 3.5 6.5 3.7 6.55 3.25 5.55 3.15 5.4 3.1 5.4 2.8 4.9 2.7 4.35 2.75 4.1 2.75 3.75 2.85 3.0 2.85 2.9 3.0 2.4 2.8 4.1 6.35 5.1 5.5 3.25 5.85 -0.15 6.35 5.1 M16.3 5.45 L16.25 5.2 16.25 4.75 16.35 4.35 16.5 3.85 16.75 3.3 16.8 3.25 17.55 1.05 18.55 2.35 19.0 3.1 19.35 4.35 19.4 4.85 19.75 4.7 19.75 4.75 19.5 6.7 18.65 8.3 18.3 8.75 18.4 8.8 18.4 8.85 18.25 8.8 18.1 8.95 18.15 8.95 18.05 9.05 18.25 8.95 17.75 9.35 17.65 9.45 17.15 9.9 16.8 10.15 16.3 10.35 15.7 10.6 14.8 10.8 14.25 10.85 14.05 10.9 13.85 10.85 13.1 11.0 12.35 11.0 10.45 10.55 10.0 10.3 9.55 9.9 9.15 9.85 9.1 9.9 7.6 9.65 7.15 9.45 6.8 9.45 6.3 9.35 5.6 9.0 4.6 8.25 4.5 8.1 4.3 7.9 3.65 6.95 3.8 7.1 3.9 7.2 3.9 7.25 4.2 7.7 5.0 8.45 5.9 9.05 6.3 9.25 6.7 9.4 7.05 9.4 7.05 9.35 7.1 9.4 7.45 9.3 7.5 9.3 7.4 9.4 7.3 9.4 7.65 9.55 8.45 9.7 8.5 9.75 9.45 9.85 9.3 9.6 9.25 9.45 9.2 9.35 9.15 9.2 9.15 8.95 9.25 8.7 9.5 8.35 9.7 8.2 10.2 8.05 10.35 8.05 10.15 7.85 9.95 7.75 9.65 7.65 8.85 7.5 8.95 7.5 9.85 7.65 10.0 7.7 10.1 7.75 10.5 8.05 11.1 8.2 10.45 8.1 10.3 8.15 10.1 8.1 10.05 8.15 9.9 8.2 9.95 8.2 9.7 8.3 9.55 8.4 9.55 8.45 9.4 8.55 9.4 8.6 9.2 8.9 9.25 8.95 9.2 9.1 9.2 9.25 9.25 9.3 9.35 9.45 9.4 9.65 10.0 10.3 11.7 10.8 12.1 10.85 12.1 10.9 12.75 10.95 13.3 10.9 14.1 10.7 14.4 10.75 14.25 10.8 16.3 10.35 16.7 10.15 17.2 9.8 17.25 9.8 17.4 9.65 17.65 9.45 17.2 9.7 16.7 9.85 16.55 9.9 16.35 9.9 16.0 9.85 15.85 9.8 15.65 9.7 15.4 9.45 15.15 9.0 15.1 8.6 15.1 8.35 15.1 8.25 15.15 8.15 14.6 8.15 14.25 8.2 14.15 8.25 14.3 8.15 14.6 8.1 15.0 8.1 15.15 8.1 15.2 7.9 15.6 7.15 15.7 7.05 15.8 6.9 15.85 6.85 16.0 6.65 16.15 6.55 16.45 6.3 16.4 6.1 16.3 5.45 M3.0 2.3 L3.15 1.8 3.8 0.8 3.7 1.1 3.4 1.5 3.45 1.5 3.0 2.3 M4.05 0.55 L4.1 0.65 4.35 1.45 4.05 0.55 M4.7 2.7 L4.9 3.35 4.9 3.45 4.7 2.7 M19.2 5.0 L19.35 4.9 19.25 4.2 18.85 3.0 18.6 2.55 17.55 1.2 16.8 3.25 16.35 4.45 16.3 4.9 16.35 4.9 16.35 5.45 16.45 6.1 16.5 6.25 16.65 6.2 16.35 6.4 15.7 7.1 15.7 7.15 15.3 7.85 15.15 8.2 15.2 8.25 15.15 8.45 15.15 8.7 15.2 8.7 15.25 9.05 15.4 9.35 15.55 9.55 15.6 9.5 15.8 9.75 16.3 9.8 16.65 9.75 16.7 9.85 17.15 9.65 17.4 9.5 17.45 9.5 17.7 9.3 18.2 8.75 18.95 7.6 19.0 7.6 19.35 6.95 19.6 5.0 19.75 4.75 Q19.5 4.9 19.2 5.0 M12.45 7.0 L12.5 6.25 13.65 8.3 13.8 8.25 13.9 7.8 14.15 8.25 13.7 8.3 13.15 8.5 13.1 8.55 13.1 8.5 13.6 8.3 12.45 7.0 M11.55 8.3 L11.8 8.35 12.0 8.45 12.4 8.7 12.65 8.9 12.7 8.9 12.7 9.0 11.95 8.5 11.55 8.3 11.55 8.35 11.1 8.2 11.55 8.3 M12.65 8.9 L12.8 8.7 12.95 8.6 13.1 8.55 13.1 8.6 12.65 8.9 M7.05 7.25 L7.55 7.8 7.6 7.85 8.05 7.6 8.45 7.5 8.85 7.5 8.85 7.55 8.3 7.6 7.85 7.75 7.85 7.8 7.6 7.95 7.55 7.9 7.55 7.8 6.95 7.3 7.0 7.3 7.15 7.4 7.05 7.25" fill="#000000" fill-rule="evenodd" stroke="none"/>
    <path d="M10.8 4.8 L12.6 5.5 12.3 2.75 14.6 0.0 12.6 5.5 16.3 5.45 16.4 6.1 14.9 6.5 12.6 5.5 13.9 7.8 13.8 8.25 13.65 8.3 12.5 6.25 12.45 7.0 10.55 7.2 9.9 6.1 10.8 4.8 M9.4 2.4 L9.5 2.4 6.35 5.1 7.65 6.7 7.05 7.25 7.0 7.3 6.95 7.3 7.55 7.8 7.55 7.9 7.6 7.95 7.85 7.8 7.85 7.75 8.3 7.6 8.85 7.55 8.85 7.5 9.65 7.65 9.95 7.75 10.15 7.85 10.35 8.05 10.2 8.05 9.85 7.8 9.8 7.85 9.3 7.75 9.3 7.8 8.9 7.7 8.5 7.7 8.45 7.8 8.25 7.8 8.25 7.9 8.05 7.95 8.05 8.0 7.85 8.1 7.85 8.15 7.65 8.3 7.55 7.95 7.15 7.6 7.1 7.6 6.85 7.4 5.95 8.15 5.95 8.6 6.15 8.7 6.15 8.8 6.35 8.9 6.55 8.95 6.75 8.9 6.85 8.9 6.9 8.95 7.0 9.0 7.1 9.1 7.15 9.05 7.4 9.2 7.4 9.1 7.55 9.1 7.6 8.95 7.65 8.95 7.6 9.15 7.9 9.25 8.4 9.3 8.75 9.45 9.25 9.45 9.3 9.6 9.45 9.85 8.5 9.75 8.45 9.7 7.65 9.55 7.3 9.4 7.4 9.4 7.5 9.3 7.45 9.3 7.1 9.4 7.05 9.35 7.05 9.4 6.7 9.4 6.3 9.25 5.9 9.05 5.0 8.45 4.2 7.7 3.9 7.25 3.9 7.2 3.8 7.1 4.15 7.4 4.45 7.55 5.0 7.6 5.25 7.6 5.5 7.65 5.45 8.65 6.35 5.1 7.75 2.6 9.2 2.45 9.4 2.4 M18.4 8.85 L18.25 8.95 18.15 8.95 18.1 8.95 18.25 8.8 18.4 8.85 M3.6 6.9 L3.45 6.7 3.4 6.6 3.85 6.65 3.8 6.6 3.35 5.65 3.4 5.65 3.65 5.75 3.8 5.7 3.75 5.65 3.4 5.65 3.45 5.6 3.35 5.55 3.3 5.45 3.2 5.4 3.0 5.1 2.9 4.85 2.85 4.6 2.8 4.1 2.85 4.2 3.05 4.25 3.8 4.7 3.7 4.9 3.6 5.05 3.65 5.15 3.6 5.15 3.75 5.35 3.85 5.25 4.0 5.4 4.05 5.3 4.2 5.35 4.3 5.2 4.35 5.2 4.45 5.0 4.6 5.1 4.45 5.2 4.25 5.45 4.4 5.65 4.45 5.9 4.55 5.85 4.55 6.15 4.65 6.1 4.65 6.3 4.75 6.3 4.8 6.45 4.85 6.7 4.85 6.8 5.15 6.8 5.3 6.75 5.55 6.75 5.55 6.9 5.45 6.85 5.4 6.95 5.2 6.95 5.15 7.0 3.6 6.9 M3.0 2.4 L3.0 2.3 3.45 1.5 3.4 1.5 3.7 1.1 3.55 1.65 3.45 2.35 3.25 2.85 3.4 2.95 3.3 3.2 3.7 3.4 3.25 3.55 3.8 3.75 3.75 3.8 3.85 3.8 4.8 3.45 3.95 0.55 4.05 0.55 4.35 1.45 4.4 1.7 4.7 2.7 4.9 3.45 5.5 3.25 6.35 5.1 2.8 4.1 3.0 2.4 M19.2 5.0 L19.05 4.1 18.85 3.45 18.7 3.1 18.3 2.45 17.6 1.55 17.6 1.7 16.6 4.35 16.65 4.4 16.55 4.7 16.5 5.05 16.55 5.55 16.65 5.55 16.75 6.05 16.75 6.2 17.0 6.15 18.25 5.6 18.9 5.2 19.0 5.1 19.2 5.0 Q19.5 4.9 19.75 4.75 L19.6 5.0 19.35 6.95 19.0 7.6 18.95 7.6 18.2 8.75 17.7 9.3 17.45 9.5 17.4 9.5 17.15 9.65 16.7 9.85 16.65 9.75 16.3 9.8 15.8 9.75 15.6 9.5 15.55 9.55 15.4 9.35 15.25 9.05 15.2 8.7 15.15 8.7 15.15 8.45 15.2 8.25 15.15 8.2 15.3 7.85 15.7 7.15 15.7 7.1 16.35 6.4 16.65 6.2 16.5 6.25 16.45 6.1 16.35 5.45 16.35 4.9 16.3 4.9 16.35 4.45 16.8 3.25 17.55 1.2 18.6 2.55 18.85 3.0 19.25 4.2 19.35 4.9 19.2 5.0 M19.6 5.0 L17.0 6.2 17.0 6.3 Q16.75 6.45 16.45 6.55 L16.2 6.8 16.2 6.85 15.5 7.85 15.55 7.9 15.35 8.4 15.45 8.5 15.4 8.65 15.4 8.8 15.5 8.85 15.55 8.95 15.6 9.2 15.75 9.45 15.85 9.4 16.05 9.5 16.3 9.5 16.3 9.6 16.5 9.6 16.85 9.5 17.1 9.3 17.2 9.4 17.8 8.8 18.2 8.25 18.55 7.9 19.0 7.1 19.1 6.6 19.25 6.6 19.35 5.4 19.35 5.25 19.6 5.0 M14.15 8.25 L14.25 8.2 14.6 8.15 15.15 8.15 15.1 8.25 15.1 8.35 15.0 8.35 15.0 8.3 14.5 8.3 14.5 8.35 13.75 8.45 13.55 8.55 13.35 8.6 13.65 8.6 13.2 8.75 12.9 8.95 12.9 9.0 12.75 9.1 12.85 9.3 12.25 8.8 11.9 8.6 11.5 8.45 11.45 8.5 11.15 8.4 10.3 8.25 10.25 8.3 10.05 8.3 10.0 8.4 9.85 8.4 9.85 8.5 9.7 8.55 9.75 8.65 9.6 8.7 9.65 8.8 9.5 8.9 9.55 9.0 9.45 9.1 9.55 9.15 9.5 9.3 9.6 9.35 9.6 9.4 9.65 9.55 9.95 9.8 10.05 9.95 10.75 10.25 11.85 10.5 12.35 10.55 12.6 10.55 12.85 10.65 13.0 10.65 13.2 10.6 14.1 10.7 13.3 10.9 12.75 10.95 12.1 10.9 12.1 10.85 11.7 10.8 10.0 10.3 9.4 9.65 9.35 9.45 9.25 9.3 9.2 9.25 9.2 9.1 9.25 8.95 9.2 8.9 9.4 8.6 9.4 8.55 9.55 8.45 9.55 8.4 9.7 8.3 9.95 8.2 9.9 8.2 10.05 8.15 10.1 8.1 10.3 8.15 10.45 8.1 11.1 8.2 11.55 8.35 11.55 8.3 11.95 8.5 12.7 9.0 12.7 8.9 12.65 8.9 13.1 8.6 13.1 8.55 13.15 8.5 13.7 8.3 14.15 8.25 M16.55 9.9 L16.7 9.85 17.2 9.7 17.65 9.45 17.4 9.65 17.25 9.8 17.2 9.8 16.7 10.15 16.3 10.35 14.25 10.8 14.4 10.75 14.65 10.7 14.55 10.6 14.3 10.5 14.85 10.4 15.85 10.1 15.9 10.2 16.55 9.9 M9.3 7.35 L9.05 7.4 9.1 7.3 9.3 7.35 M5.35 5.5 L5.5 5.6 5.6 5.75 5.6 6.05 5.4 5.65 5.35 5.5" fill="#7f6600" fill-rule="evenodd" stroke="none"/>
  </g>
</svg>
