<?xml version="1.0" encoding="UTF-8" standalone="no"?>
<svg xmlns:ffdec="https://www.free-decompiler.com/flash" xmlns:xlink="http://www.w3.org/1999/xlink" ffdec:objectType="shape" height="11.5px" width="15.65px" xmlns="http://www.w3.org/2000/svg">
  <g transform="matrix(1.0, 0.0, 0.0, 1.0, -3.75, 0.2)">
    <path d="M12.1 5.6 L10.25 3.35 10.05 3.6 9.15 4.85 9.9 6.25 10.4 7.25 10.85 8.2 6.4 4.95 11.05 2.2 10.9 2.4 12.25 2.8 12.1 5.6 14.4 0.05 14.85 4.0 15.95 4.55 15.85 5.25 15.9 5.8 12.1 5.6 14.7 6.8 14.8 8.2 14.7 8.5 14.65 8.45 14.0 8.45 13.8 8.5 12.1 5.6 M4.55 0.9 L4.6 0.75 4.55 0.8 4.7 0.55 4.8 0.45 5.5 3.25 4.75 3.5 4.3 1.9 4.3 1.8 4.4 1.25 4.55 0.9 M6.25 -0.2 L7.9 2.55 6.4 4.95 6.25 -0.2 M9.05 1.85 L10.45 2.3 9.5 2.4 9.05 1.85 M17.1 1.4 L17.35 1.75 17.55 2.15 17.6 2.1 17.75 2.45 17.85 2.4 18.2 2.9 18.4 3.35 18.75 4.65 18.85 5.35 18.8 5.4 18.45 5.65 18.0 5.95 17.7 6.1 16.65 6.5 16.35 6.55 16.2 5.45 16.25 5.1 16.35 4.8 16.25 4.75 16.4 4.3 16.85 3.35 17.15 2.35 17.1 1.75 17.1 1.4 M17.45 6.45 L17.15 6.45 17.45 6.35 17.45 6.45 17.6 6.4 18.85 5.8 18.95 5.6 18.95 5.85 19.05 5.8 19.0 6.2 18.85 6.55 18.85 6.95 18.7 7.55 18.6 7.55 18.45 7.9 18.05 8.6 17.95 8.55 17.6 9.15 17.2 9.6 17.1 9.55 16.6 10.0 16.5 9.9 16.35 10.0 16.25 9.95 16.0 10.0 15.95 10.0 15.7 10.05 15.65 9.95 15.35 9.85 15.2 9.5 15.15 9.3 15.05 9.3 15.05 9.15 15.1 9.0 15.15 8.75 15.05 8.7 15.15 8.45 15.45 7.95 15.4 7.85 15.7 7.45 15.75 7.45 15.7 7.35 15.95 7.2 15.9 7.1 16.5 6.8 17.45 6.45 M10.3 8.1 L10.0 8.1 9.8 8.15 9.65 8.2 9.4 8.35 9.4 8.4 9.3 8.5 9.2 8.45 9.2 8.35 8.9 8.25 8.6 8.25 8.6 7.75 8.85 7.8 8.9 7.7 9.1 7.75 9.15 7.7 9.6 7.8 9.65 7.75 9.85 7.85 9.9 7.75 10.2 8.05 10.25 8.0 10.3 8.1 M14.65 8.65 L14.6 8.95 14.65 9.05 14.65 9.2 14.75 9.6 15.05 10.1 15.3 10.3 15.6 10.4 15.85 10.45 15.0 10.7 14.95 10.6 13.7 10.8 14.05 11.05 14.3 11.15 14.0 11.15 13.6 11.1 12.75 10.9 12.3 10.7 11.9 10.65 11.9 10.5 11.75 10.3 11.5 10.05 11.35 9.75 10.9 9.45 10.4 9.2 10.05 9.15 9.9 9.1 9.85 9.0 9.75 9.0 9.7 8.7 9.7 8.55 9.85 8.55 9.9 8.4 10.05 8.4 10.1 8.35 10.2 8.35 10.6 8.45 10.65 8.4 11.0 8.5 11.2 8.6 11.2 8.55 11.55 8.7 11.7 8.85 11.75 8.8 11.9 8.9 12.45 9.4 12.55 9.6 12.65 9.5 12.65 9.4 12.8 9.3 12.8 9.2 13.0 9.15 13.0 9.05 13.55 8.9 13.55 8.8 13.65 8.8 14.1 8.75 14.15 8.7 14.4 8.7 14.45 8.65 14.65 8.65 M15.9 10.45 L16.05 10.45 15.95 10.5 15.9 10.45 M17.55 9.75 L17.7 9.6 17.8 9.65 17.7 9.65 17.6 9.75 17.55 9.75 M5.2 4.85 L5.15 5.0 5.1 5.0 5.0 5.1 4.65 4.95 4.7 4.85 4.65 4.8 4.7 4.55 5.2 4.85 M7.65 7.6 L7.7 7.55 7.8 7.7 7.9 7.9 7.85 8.25 7.9 8.7 7.85 8.9 7.6 8.9 7.6 8.85 7.55 8.95 7.4 8.85 7.4 8.8 7.35 8.75 7.35 8.7 7.25 8.65 7.25 8.55 7.15 8.2 6.65 7.65 7.2 7.15 7.4 7.3 7.65 7.6 M5.8 6.45 L5.6 6.5 5.45 5.85 5.2 5.25 5.1 5.1 5.3 4.9 6.1 5.45 6.05 6.45 5.9 6.45 5.8 6.45" fill="#ffcc00" fill-rule="evenodd" stroke="none"/>
    <path d="M10.8 4.85 L10.05 3.6 10.25 3.35 12.1 5.6 10.8 4.85 M15.95 4.55 L16.1 4.25 17.1 1.4 17.1 1.75 16.7 3.05 16.65 3.0 16.15 4.25 16.2 4.3 15.95 4.95 15.95 5.15 15.9 5.6 16.0 6.25 16.05 6.25 16.15 6.6 16.3 6.55 15.85 6.85 15.85 6.9 15.6 7.05 15.5 7.2 15.4 7.3 15.4 7.35 14.9 8.15 14.95 8.2 14.8 8.5 14.7 8.9 14.7 9.15 14.8 9.5 14.85 9.6 14.9 9.8 15.1 10.05 15.35 10.25 15.4 10.2 15.45 10.3 15.6 10.35 16.05 10.35 16.15 10.4 16.3 10.35 16.6 10.3 16.7 10.3 16.85 10.2 17.15 9.95 17.25 9.95 17.5 9.7 18.3 8.65 18.35 8.6 18.7 8.1 18.7 8.05 18.9 7.65 19.0 7.15 19.05 7.15 19.3 5.25 18.45 5.65 18.8 5.4 18.85 5.35 19.05 5.3 19.0 4.8 18.85 4.15 18.55 3.3 17.15 1.25 17.2 1.2 17.25 1.2 18.55 3.1 18.7 3.4 19.15 5.25 19.4 5.1 19.2 6.9 19.0 7.6 18.85 7.95 18.5 8.55 17.85 9.4 18.1 9.45 18.05 9.55 17.8 9.45 17.75 9.5 17.7 9.6 17.55 9.75 17.35 9.95 16.95 10.25 16.3 10.45 16.05 10.45 15.9 10.45 15.85 10.45 15.6 10.4 15.3 10.3 15.05 10.1 14.75 9.6 14.65 9.2 14.65 9.05 14.6 8.95 14.65 8.65 14.7 8.55 14.65 8.5 14.2 8.5 13.8 8.55 13.6 8.55 13.6 8.6 12.85 8.8 12.75 8.9 12.5 9.05 12.4 9.15 12.1 8.9 12.1 8.95 11.6 8.55 11.05 8.3 11.0 8.35 10.9 8.3 10.6 8.2 10.2 8.15 10.2 8.2 10.0 8.15 9.8 8.15 10.0 8.1 10.3 8.1 10.5 8.15 10.45 7.95 10.6 8.15 10.85 8.2 11.1 8.3 11.3 8.35 11.9 8.65 12.4 9.1 12.6 8.9 13.0 8.7 13.45 8.55 12.35 7.15 12.1 5.6 13.8 8.5 14.0 8.45 14.65 8.45 14.7 8.5 14.8 8.2 15.3 7.3 16.0 6.65 16.05 6.65 16.05 6.55 15.9 5.8 15.85 5.25 15.95 4.55 M17.95 9.6 L17.55 9.9 17.25 10.2 16.85 10.5 16.05 10.95 14.95 11.15 15.0 11.2 13.9 11.3 13.4 11.25 12.8 11.3 12.1 11.25 11.3 11.0 9.85 10.35 10.0 10.35 9.75 10.2 9.4 9.85 8.85 9.75 7.85 9.4 7.8 9.35 7.55 9.25 7.3 9.25 6.7 9.05 5.6 8.15 4.85 7.3 4.5 6.6 4.85 7.0 4.95 7.3 5.25 7.7 5.95 8.35 6.05 6.45 6.1 5.45 5.3 4.9 5.2 4.85 4.7 4.55 4.25 4.15 3.8 3.9 3.9 4.5 4.05 4.85 4.05 4.9 4.1 5.0 4.2 5.05 4.2 5.15 4.25 5.15 4.3 5.25 4.35 5.25 4.35 5.3 4.5 5.3 4.55 5.35 4.65 5.3 4.75 5.35 4.7 5.4 4.4 5.4 4.6 5.8 4.55 5.85 4.75 6.3 4.75 6.35 4.65 6.25 4.35 6.2 4.45 6.15 4.65 6.2 4.25 5.35 4.25 5.3 4.2 5.25 3.9 4.85 3.85 4.6 3.8 4.5 3.75 4.1 3.75 3.85 3.75 3.4 3.9 2.3 3.95 2.2 3.9 2.1 4.2 1.4 4.55 0.9 4.4 1.25 4.25 1.6 4.15 1.75 4.15 1.85 4.0 2.25 3.8 3.8 3.75 3.85 6.4 4.95 6.0 3.1 6.25 -0.2 6.4 4.95 10.85 8.2 10.45 7.95 10.3 7.95 10.15 7.8 9.8 7.6 9.75 7.65 9.7 7.6 9.3 7.5 9.25 7.55 9.05 7.5 8.5 7.5 8.35 7.55 8.3 7.6 8.1 7.65 8.1 7.7 7.9 7.8 7.95 7.7 8.3 7.5 8.6 7.4 8.85 7.4 9.3 7.45 9.7 7.55 9.3 7.35 9.25 7.3 7.8 6.55 6.4 4.95 5.95 8.35 6.5 8.75 6.5 8.8 6.7 8.95 6.8 9.0 7.0 9.0 7.05 9.1 7.2 9.1 7.2 9.15 7.4 9.1 7.45 9.15 7.5 9.1 7.6 9.15 7.7 9.1 7.75 9.1 7.65 9.2 8.05 9.4 8.3 9.45 8.35 9.5 8.8 9.65 9.35 9.75 9.15 9.3 9.1 9.25 9.1 8.95 9.15 8.8 9.3 8.5 9.4 8.4 9.4 8.35 9.65 8.2 9.8 8.15 9.75 8.25 9.6 8.3 9.6 8.35 9.45 8.45 9.45 8.55 9.3 8.65 9.2 8.75 9.25 8.8 9.15 8.95 9.2 8.95 9.2 9.3 9.45 9.75 9.75 10.1 10.2 10.45 10.7 10.65 10.7 10.7 11.7 11.05 12.3 11.15 12.3 11.2 12.55 11.25 13.6 11.1 14.0 11.15 13.45 11.2 14.25 11.2 14.85 11.1 14.9 11.15 16.2 10.8 16.25 10.75 16.3 10.75 16.7 10.55 17.35 9.95 17.6 9.75 17.7 9.65 17.8 9.65 17.95 9.6 M4.95 0.5 L5.0 0.6 5.5 2.55 5.65 3.2 5.6 3.2 5.5 2.55 5.2 1.7 4.95 0.5 M9.4 2.4 L9.05 1.85 9.5 2.4 9.4 2.4 M7.35 7.0 L7.7 7.3 7.95 7.7 7.9 7.7 7.75 7.5 7.3 7.05 7.35 7.0 M5.8 6.45 L5.9 6.45 5.85 6.5 5.8 6.45" fill="#000000" fill-rule="evenodd" stroke="none"/>
    <path d="M10.8 4.85 L12.1 5.6 12.35 7.15 10.4 7.25 9.9 6.25 10.8 4.85 M10.45 2.3 L11.05 2.2 6.4 4.95 7.9 2.55 9.4 2.4 9.5 2.4 10.45 2.3 M12.25 2.8 L14.4 0.05 12.1 5.6 12.25 2.8 M17.1 1.4 L17.15 1.25 18.55 3.3 18.85 4.15 19.0 4.8 19.05 5.3 18.85 5.35 18.75 4.65 18.4 3.35 18.2 2.9 17.85 2.4 17.75 2.45 17.6 2.1 17.55 2.15 17.35 1.75 17.1 1.4 M18.05 9.55 L17.95 9.6 17.8 9.65 17.7 9.6 17.75 9.5 17.8 9.45 18.05 9.55 M4.5 6.6 L4.35 6.3 4.35 6.2 4.65 6.25 4.75 6.35 4.75 6.3 4.55 5.85 4.6 5.8 4.4 5.4 4.7 5.4 4.75 5.35 4.65 5.3 4.55 5.35 4.5 5.3 4.35 5.3 4.35 5.25 4.3 5.25 4.25 5.15 4.2 5.15 4.2 5.05 4.1 5.0 4.05 4.9 4.05 4.85 3.9 4.5 3.8 3.9 4.25 4.15 4.7 4.55 4.65 4.8 4.7 4.85 4.65 4.95 5.0 5.1 5.1 5.0 5.15 5.0 5.2 4.85 5.3 4.9 5.1 5.1 5.2 5.25 5.45 5.85 5.6 6.5 5.8 6.45 5.85 6.5 5.9 6.45 6.05 6.45 5.95 8.35 5.25 7.7 4.95 7.3 4.85 7.0 4.5 6.6 M4.8 0.45 L4.85 0.45 4.95 0.5 5.2 1.7 5.5 2.55 5.6 3.2 5.65 3.2 6.0 3.1 6.4 4.95 3.75 3.85 3.8 3.8 4.0 2.25 4.15 1.85 4.15 1.75 4.25 1.6 4.4 1.25 4.3 1.8 4.3 1.9 4.75 3.5 5.5 3.25 4.8 0.45 M17.1 1.75 L17.15 2.35 16.85 3.35 16.4 4.3 16.25 4.75 16.35 4.8 16.25 5.1 16.2 5.45 16.35 6.55 16.65 6.5 17.7 6.1 18.0 5.95 18.45 5.65 19.3 5.25 19.05 7.15 19.0 7.15 18.9 7.65 18.7 8.05 18.7 8.1 18.35 8.6 18.3 8.65 17.5 9.7 17.25 9.95 17.15 9.95 16.85 10.2 16.7 10.3 16.6 10.3 16.3 10.35 16.15 10.4 16.05 10.35 15.6 10.35 15.45 10.3 15.4 10.2 15.35 10.25 15.1 10.05 14.9 9.8 14.85 9.6 14.8 9.5 14.7 9.15 14.7 8.9 14.8 8.5 14.95 8.2 14.9 8.15 15.4 7.35 15.4 7.3 15.5 7.2 15.6 7.05 15.85 6.9 15.85 6.85 16.3 6.55 16.15 6.6 16.05 6.25 16.0 6.25 15.9 5.6 15.95 5.15 15.95 4.95 16.2 4.3 16.15 4.25 16.65 3.0 16.7 3.05 17.1 1.75 M18.95 5.6 L18.85 5.8 17.6 6.4 17.45 6.45 16.5 6.8 15.9 7.1 15.95 7.2 15.7 7.35 15.75 7.45 15.7 7.45 15.4 7.85 15.45 7.95 15.15 8.45 15.05 8.7 15.15 8.75 15.1 9.0 15.05 9.15 15.05 9.3 15.15 9.3 15.2 9.5 15.35 9.85 15.65 9.95 15.7 10.05 15.95 10.0 16.0 10.0 16.25 9.95 16.35 10.0 16.5 9.9 16.6 10.0 17.1 9.55 17.2 9.6 17.6 9.15 17.95 8.55 18.05 8.6 18.45 7.9 18.6 7.55 18.7 7.55 18.85 6.95 18.85 6.55 19.0 6.2 19.05 5.8 18.95 5.85 18.95 5.6 M17.45 6.45 L17.45 6.35 17.15 6.45 17.45 6.45 M15.9 5.8 L16.05 6.55 14.7 6.8 12.1 5.6 15.9 5.8 M10.45 7.95 L10.5 8.15 10.3 8.1 10.25 8.0 10.2 8.05 9.9 7.75 9.85 7.85 9.65 7.75 9.6 7.8 9.15 7.7 9.1 7.75 8.9 7.7 8.85 7.8 8.6 7.75 8.6 8.25 8.9 8.25 9.2 8.35 9.2 8.45 9.3 8.5 9.15 8.8 9.1 8.95 9.1 9.25 9.15 9.3 9.35 9.75 8.8 9.65 8.35 9.5 8.3 9.45 8.05 9.4 7.65 9.2 7.75 9.1 7.7 9.1 7.6 9.15 7.5 9.1 7.45 9.15 7.4 9.1 7.2 9.15 7.2 9.1 7.05 9.1 7.0 9.0 6.8 9.0 6.7 8.95 6.5 8.8 6.5 8.75 5.95 8.35 6.4 4.95 7.8 6.55 7.35 7.0 7.3 7.05 7.75 7.5 7.9 7.7 7.95 7.7 7.9 7.8 8.1 7.7 8.1 7.65 8.3 7.6 8.35 7.55 8.5 7.5 9.05 7.5 9.25 7.55 9.3 7.5 9.7 7.6 9.75 7.65 9.8 7.6 10.15 7.8 10.3 7.95 10.45 7.95 M9.8 8.15 L10.0 8.15 10.2 8.2 10.2 8.15 10.6 8.2 10.9 8.3 11.0 8.35 11.05 8.3 11.6 8.55 12.1 8.95 12.1 8.9 12.4 9.15 12.5 9.05 12.75 8.9 12.85 8.8 13.6 8.6 13.6 8.55 13.8 8.55 14.2 8.5 14.65 8.5 14.7 8.55 14.65 8.65 14.45 8.65 14.4 8.7 14.15 8.7 14.1 8.75 13.65 8.8 13.55 8.8 13.55 8.9 13.0 9.05 13.0 9.15 12.8 9.2 12.8 9.3 12.65 9.4 12.65 9.5 12.55 9.6 12.45 9.4 11.9 8.9 11.75 8.8 11.7 8.85 11.55 8.7 11.2 8.55 11.2 8.6 11.0 8.5 10.65 8.4 10.6 8.45 10.2 8.35 10.1 8.35 10.05 8.4 9.9 8.4 9.85 8.55 9.7 8.55 9.7 8.7 9.75 9.0 9.85 9.0 9.9 9.1 10.05 9.15 10.4 9.2 10.9 9.45 11.35 9.75 11.5 10.05 11.75 10.3 11.9 10.5 11.9 10.65 12.3 10.7 12.75 10.9 13.6 11.1 12.55 11.25 12.3 11.2 12.3 11.15 11.7 11.05 10.7 10.7 10.7 10.65 10.2 10.45 9.75 10.1 9.45 9.75 9.2 9.3 9.2 8.95 9.15 8.95 9.25 8.8 9.2 8.75 9.3 8.65 9.45 8.55 9.45 8.45 9.6 8.35 9.6 8.3 9.75 8.25 9.8 8.15 M15.85 10.45 L15.9 10.45 15.95 10.5 16.05 10.45 16.3 10.45 16.95 10.25 17.35 9.95 17.55 9.75 17.6 9.75 17.35 9.95 16.7 10.55 16.3 10.75 16.25 10.75 16.2 10.8 14.9 11.15 14.85 11.1 14.25 11.2 13.45 11.2 14.0 11.15 14.3 11.15 14.05 11.05 13.7 10.8 14.95 10.6 15.0 10.7 15.85 10.45 M9.25 7.3 L9.3 7.35 9.25 7.35 9.25 7.3 M7.65 7.6 L7.4 7.3 7.2 7.15 6.65 7.65 7.15 8.2 7.25 8.55 7.25 8.65 7.35 8.7 7.35 8.75 7.4 8.8 7.4 8.85 7.55 8.95 7.6 8.85 7.6 8.9 7.85 8.9 7.9 8.7 7.85 8.25 7.9 7.9 7.8 7.7 7.7 7.55 7.65 7.6" fill="#7f6600" fill-rule="evenodd" stroke="none"/>
  </g>
</svg>
