<?xml version="1.0" encoding="UTF-8" standalone="no"?>
<svg xmlns:ffdec="https://www.free-decompiler.com/flash" xmlns:xlink="http://www.w3.org/1999/xlink" ffdec:objectType="shape" height="11.85px" width="13.7px" xmlns="http://www.w3.org/2000/svg">
  <g transform="matrix(1.0, 0.0, 0.0, 1.0, -4.8, 0.2)">
    <path d="M10.05 3.35 L10.1 3.25 10.35 3.65 11.55 5.7 11.8 4.3 12.05 2.9 14.0 0.1 11.55 5.7 13.3 8.8 13.65 8.75 14.0 8.8 14.2 8.25 14.3 8.05 14.55 7.65 15.0 7.2 15.3 7.0 15.25 6.95 15.15 6.15 15.15 5.3 15.2 5.0 15.3 4.75 15.8 3.35 16.25 1.8 16.25 2.1 15.9 3.25 15.35 4.8 15.3 4.95 15.35 5.0 15.25 5.5 15.25 6.15 15.35 6.95 15.6 6.95 15.3 7.1 15.25 7.15 15.0 7.3 15.0 7.4 14.75 7.6 14.6 7.75 14.6 7.85 14.15 8.6 14.2 8.65 13.95 9.3 14.0 9.4 14.0 9.7 14.2 10.3 14.35 10.5 14.45 10.6 14.55 10.65 14.6 10.75 14.7 10.75 14.9 10.8 14.95 10.9 15.2 10.9 15.4 10.85 15.45 10.9 15.7 10.85 15.75 10.9 15.95 10.8 16.1 10.8 16.55 10.35 16.65 10.35 17.4 9.3 17.5 9.25 17.7 8.85 17.75 8.85 18.0 8.15 18.05 8.15 18.4 5.6 18.5 5.6 18.45 6.0 18.45 6.95 18.4 7.45 18.3 7.8 17.8 8.9 17.05 10.0 17.3 10.15 17.3 10.2 17.0 10.05 16.95 10.15 16.85 10.25 16.75 10.35 16.3 10.75 15.85 10.95 15.25 11.0 15.15 11.0 14.8 10.95 14.6 10.85 14.2 10.45 14.1 10.25 14.0 9.95 13.95 9.85 13.9 9.4 13.9 9.1 13.95 8.9 13.4 8.8 13.35 8.85 12.85 8.9 12.8 9.0 12.55 9.05 12.55 9.1 12.15 9.3 12.15 9.35 12.0 9.45 12.0 9.35 11.35 8.65 11.25 8.7 10.85 8.4 10.75 8.4 10.3 8.2 10.25 8.25 9.9 8.15 9.85 8.2 9.7 8.2 9.65 8.3 9.5 8.35 9.4 8.55 9.35 8.55 9.35 8.6 9.2 8.75 9.25 8.8 9.15 8.95 9.15 9.15 9.2 9.2 9.25 9.3 9.3 9.55 9.35 9.6 9.35 9.65 9.45 9.8 9.7 10.05 9.7 10.1 9.95 10.35 10.45 10.7 10.9 10.9 10.95 11.0 11.35 11.2 11.7 11.3 11.75 11.35 12.2 11.4 12.4 11.4 12.45 11.45 12.95 11.4 13.3 11.55 13.45 11.55 13.5 11.6 14.8 11.45 14.85 11.45 14.9 11.5 15.25 11.4 15.45 11.3 15.5 11.35 15.55 11.3 16.1 11.05 16.3 10.85 16.95 10.35 17.0 10.3 17.0 10.35 17.2 10.25 16.6 10.7 16.15 11.15 15.35 11.5 14.55 11.65 13.5 11.65 12.9 11.55 11.95 11.5 11.1 11.2 10.0 10.55 9.65 10.2 9.3 9.75 9.3 9.7 8.95 9.6 8.25 9.25 7.95 9.05 7.85 9.0 7.9 9.05 7.55 9.0 7.3 8.85 6.8 8.4 6.4 7.9 5.95 7.4 5.65 6.85 5.65 6.75 5.45 6.3 5.95 7.15 6.55 7.9 6.55 8.05 6.6 8.0 6.6 7.95 6.65 8.0 6.65 8.1 7.1 8.55 7.25 8.6 7.25 8.65 7.4 8.75 7.45 8.75 7.55 8.85 7.65 8.85 7.7 8.9 7.8 8.9 7.95 8.95 8.0 8.9 8.1 8.95 8.15 9.0 8.45 9.2 9.0 9.45 9.05 9.5 9.2 9.55 9.2 9.5 9.1 9.3 9.1 9.2 9.05 9.05 9.1 8.95 9.05 8.85 9.25 8.5 9.4 8.3 9.65 8.15 9.7 8.1 10.15 8.1 10.5 8.2 10.6 8.25 10.65 8.25 10.55 8.1 10.45 7.85 10.75 8.3 11.4 8.65 11.65 8.85 12.05 9.3 12.05 9.25 12.15 9.15 12.5 8.95 13.1 8.8 12.15 7.3 10.2 7.3 10.1 7.1 11.85 6.55 11.55 5.7 10.0 6.85 9.9 6.5 10.8 4.9 10.15 3.6 10.05 3.35 M6.55 4.75 L10.5 8.15 10.3 8.0 10.25 8.0 10.1 7.9 9.5 7.45 9.45 7.5 9.25 7.45 8.8 7.45 8.75 7.5 8.6 7.55 8.55 7.6 8.4 7.65 8.4 7.7 8.3 7.8 8.25 7.75 8.3 7.7 8.3 7.6 8.35 7.55 7.95 7.0 7.9 7.0 7.7 6.8 7.8 6.75 8.25 7.3 8.4 7.55 8.4 7.5 8.95 7.3 9.1 7.35 9.45 7.4 8.05 6.4 6.55 4.75 6.55 5.15 5.75 4.5 5.7 4.4 5.05 3.8 4.95 3.75 4.95 4.1 5.0 4.4 5.1 4.6 5.2 4.9 5.25 4.9 5.3 4.95 5.35 4.95 5.4 5.05 5.5 5.0 5.6 5.1 5.45 5.15 5.7 5.9 5.8 6.05 5.8 6.15 5.65 6.0 5.35 5.95 5.35 5.9 5.5 5.85 5.6 5.85 5.3 5.05 5.2 5.0 5.0 4.6 4.85 4.15 4.85 3.65 4.8 3.6 4.85 3.55 4.95 2.35 5.2 1.25 5.3 1.15 5.3 1.2 5.35 1.0 5.3 1.35 5.2 1.75 5.1 1.95 5.15 2.0 4.95 3.5 4.95 3.55 5.55 3.35 5.7 3.25 5.75 3.25 6.35 3.05 6.45 3.0 5.95 0.5 6.05 0.7 6.5 3.0 6.6 2.95 6.7 1.4 6.55 4.75 M16.45 1.3 L16.55 1.4 17.3 2.6 16.45 1.3 M17.55 3.0 L17.75 3.35 18.0 4.15 18.25 4.95 18.35 5.65 18.3 5.65 18.0 4.15 17.55 3.0 M17.1 6.35 L17.8 5.9 Q18.0 5.85 18.15 5.75 L18.3 5.65 18.15 5.85 17.1 6.35 M18.35 6.5 L18.35 6.55 18.4 6.55 18.4 6.5 18.35 6.5 M18.25 7.8 L18.25 7.75 18.3 7.6 18.35 6.95 18.25 7.75 18.2 7.8 18.25 7.8 M5.6 5.1 L5.7 5.05 5.75 5.05 5.65 5.1 5.6 5.1" fill="#000000" fill-rule="evenodd" stroke="none"/>
    <path d="M10.1 3.25 L10.05 3.35 9.2 4.8 9.9 6.5 10.0 6.85 10.1 7.1 10.2 7.3 10.45 7.85 10.55 8.1 10.6 8.25 10.5 8.15 6.55 4.75 10.75 2.25 10.7 2.35 10.1 3.25 M8.15 2.5 L6.55 4.75 6.7 1.4 6.8 -0.2 8.15 2.5 M6.35 3.05 L5.75 3.25 5.3 1.35 5.35 1.0 5.5 0.7 5.65 0.5 5.7 0.4 5.8 0.4 6.35 3.05 M5.7 4.4 L5.75 4.5 6.55 5.15 6.55 6.25 6.5 6.25 6.5 6.05 6.35 5.45 6.1 4.85 6.05 4.8 5.7 4.7 5.75 4.5 5.7 4.5 5.7 4.4 M8.3 7.7 L8.25 7.75 8.3 7.8 8.25 7.8 8.2 8.05 8.2 8.75 8.1 8.75 8.0 8.7 7.85 8.65 7.85 8.55 7.75 8.55 7.75 8.15 7.65 8.15 7.65 7.9 7.25 7.3 7.65 6.9 7.9 7.25 7.95 7.2 8.2 7.6 8.25 7.55 8.3 7.7 M10.1 7.9 L10.25 8.0 10.3 8.05 10.3 8.0 10.5 8.15 10.5 8.2 10.15 8.1 9.7 8.1 9.65 8.15 9.55 8.05 9.7 7.75 9.9 7.9 9.95 7.85 10.05 7.95 10.1 7.9 M10.35 3.65 L11.8 4.3 11.55 5.7 10.35 3.65 M14.0 0.1 L14.4 4.2 15.3 4.75 15.2 5.0 15.15 5.3 15.15 6.15 11.55 5.7 14.25 7.1 14.3 8.05 14.2 8.25 14.0 8.8 13.65 8.75 13.3 8.8 11.55 5.7 14.0 0.1 M16.25 1.8 L16.35 1.45 16.65 2.0 17.4 3.1 17.85 4.2 18.15 5.75 Q18.0 5.85 17.8 5.9 L17.1 6.35 16.6 6.6 15.8 6.85 15.75 6.2 15.7 6.0 15.6 6.0 15.6 5.5 15.65 5.15 16.3 3.55 16.2 2.45 16.25 2.1 16.25 1.8 M18.0 7.55 L17.95 7.8 17.85 7.8 17.75 8.15 17.6 8.5 17.5 8.5 17.35 8.85 17.25 8.85 16.8 9.6 16.7 9.55 16.45 9.9 16.3 9.85 16.1 10.15 15.95 10.05 15.7 10.3 15.4 9.95 15.6 9.75 14.95 8.8 14.85 8.7 15.1 8.3 15.05 8.2 15.2 8.05 15.15 7.9 15.35 7.8 15.3 7.65 15.35 7.65 15.9 7.45 15.85 7.3 16.6 7.05 17.45 6.65 18.15 5.85 18.0 7.55 M16.75 10.35 L16.85 10.25 16.95 10.3 16.95 10.35 16.75 10.35 M13.45 11.55 L13.3 11.55 12.95 11.4 11.95 11.05 11.9 11.0 11.15 10.0 11.2 9.9 10.8 9.4 10.65 9.3 10.55 9.2 10.55 9.15 10.35 9.0 10.2 8.8 10.3 8.55 10.5 8.65 10.6 8.55 11.1 8.8 11.1 8.75 11.3 8.95 11.4 8.9 11.5 9.0 11.8 9.4 11.85 9.35 12.0 9.55 12.0 9.75 12.15 10.05 13.0 11.05 13.4 11.4 13.65 11.55 13.45 11.55 M13.9 9.1 L13.9 9.4 13.95 9.85 14.0 9.95 13.95 9.95 13.4 9.75 13.4 9.5 13.2 9.35 13.45 9.4 13.45 9.3 13.5 9.1 13.75 9.15 13.8 9.05 13.9 9.1" fill="#ffcc00" fill-rule="evenodd" stroke="none"/>
    <path d="M10.1 3.25 L10.7 2.35 12.05 2.9 11.8 4.3 10.35 3.65 10.1 3.25 M10.75 2.25 L6.55 4.75 8.15 2.5 9.6 2.35 9.3 1.85 10.45 2.25 10.75 2.25 M10.5 8.15 L10.6 8.25 10.55 8.1 10.65 8.25 10.6 8.25 10.5 8.2 10.5 8.15 M10.1 7.1 L10.0 6.85 11.55 5.7 11.85 6.55 10.1 7.1 M5.95 0.5 L6.45 3.0 6.35 3.05 5.8 0.4 5.85 0.4 5.95 0.5 M5.75 3.25 L5.7 3.25 5.55 3.35 4.95 3.55 4.95 3.5 5.15 2.0 5.1 1.95 5.2 1.75 5.3 1.35 5.75 3.25 M5.35 5.95 L5.65 6.0 5.8 6.15 5.8 6.05 5.7 5.9 5.45 5.15 5.6 5.1 5.5 5.0 5.4 5.05 5.35 4.95 5.3 4.95 5.25 4.9 5.2 4.9 5.1 4.6 5.0 4.4 4.95 4.1 4.95 3.75 5.05 3.8 5.7 4.4 5.7 4.5 5.75 4.5 5.7 4.7 6.05 4.8 6.1 4.85 6.35 5.45 6.5 6.05 6.5 6.25 6.55 6.25 6.55 5.15 6.55 4.75 8.05 6.4 7.8 6.75 7.7 6.8 7.9 7.0 7.95 7.0 8.35 7.55 8.3 7.6 8.3 7.7 8.25 7.55 8.2 7.6 7.95 7.2 7.9 7.25 7.65 6.9 7.25 7.3 7.65 7.9 7.65 8.15 7.75 8.15 7.75 8.55 7.85 8.55 7.85 8.65 8.0 8.7 8.1 8.75 8.2 8.75 8.2 8.05 8.25 7.8 8.3 7.8 8.4 7.7 8.4 7.65 8.55 7.6 8.6 7.55 8.75 7.5 8.8 7.45 9.25 7.45 9.45 7.5 9.5 7.45 10.1 7.9 10.05 7.95 9.95 7.85 9.9 7.9 9.7 7.75 9.55 8.05 9.65 8.15 9.4 8.3 9.25 8.5 9.05 8.85 9.1 8.95 9.05 9.05 9.1 9.2 9.1 9.3 9.2 9.5 9.2 9.55 9.05 9.5 9.0 9.45 8.45 9.2 8.15 9.0 8.1 8.95 8.0 8.9 7.95 8.95 7.8 8.9 7.7 8.9 7.65 8.85 7.55 8.85 7.45 8.75 7.4 8.75 7.25 8.65 7.25 8.6 7.1 8.55 6.65 8.1 6.65 8.0 6.6 7.95 6.6 8.0 6.55 8.05 6.55 7.9 5.95 7.15 5.45 6.3 5.35 6.15 5.35 5.95 M10.25 8.0 L10.3 8.0 10.3 8.05 10.25 8.0 M16.35 1.45 L16.4 1.35 16.45 1.3 17.3 2.6 17.45 2.85 17.55 3.0 17.3 2.6 17.55 3.0 18.0 4.15 18.3 5.65 18.15 5.75 17.85 4.2 17.4 3.1 16.65 2.0 16.35 1.45 M18.35 5.65 L18.4 5.6 18.05 8.15 18.0 8.15 17.75 8.85 17.7 8.85 17.5 9.25 17.4 9.3 16.65 10.35 16.55 10.35 16.1 10.8 15.95 10.8 15.75 10.9 15.7 10.85 15.45 10.9 15.4 10.85 15.2 10.9 14.95 10.9 14.9 10.8 14.7 10.75 14.6 10.75 14.55 10.65 14.45 10.6 14.35 10.5 14.2 10.3 14.0 9.7 14.0 9.4 13.95 9.3 14.2 8.65 14.15 8.6 14.6 7.85 14.6 7.75 14.75 7.6 15.0 7.4 15.0 7.3 15.25 7.15 15.3 7.1 15.6 6.95 15.35 6.95 15.25 6.15 15.25 5.5 15.35 5.0 15.3 4.95 15.35 4.8 15.9 3.25 16.25 2.1 16.2 2.45 16.3 3.55 15.65 5.15 15.6 5.5 15.6 6.0 15.7 6.0 15.75 6.2 15.8 6.85 16.6 6.6 17.1 6.35 18.15 5.85 18.3 5.65 18.35 5.65 M17.3 10.2 L17.2 10.25 17.0 10.35 17.0 10.3 16.95 10.35 16.3 10.85 16.1 11.05 15.55 11.3 15.5 11.35 15.45 11.3 15.25 11.4 14.9 11.5 14.85 11.45 14.8 11.45 13.5 11.6 13.45 11.55 13.65 11.55 13.4 11.4 13.0 11.05 12.15 10.05 12.0 9.75 12.0 9.55 11.85 9.35 11.8 9.4 11.5 9.0 11.4 8.9 11.3 8.95 11.1 8.75 11.1 8.8 10.6 8.55 10.5 8.65 10.3 8.55 10.2 8.8 10.35 9.0 10.55 9.15 10.55 9.2 10.65 9.3 10.8 9.4 11.2 9.9 11.15 10.0 11.9 11.0 11.95 11.05 12.95 11.4 12.45 11.45 12.4 11.4 12.2 11.4 11.75 11.35 11.7 11.3 11.35 11.2 10.95 11.0 10.9 10.9 10.45 10.7 9.95 10.35 9.7 10.1 9.7 10.05 9.45 9.8 9.35 9.65 9.35 9.6 9.3 9.55 9.25 9.3 9.2 9.2 9.15 9.15 9.15 8.95 9.25 8.8 9.2 8.75 9.35 8.6 9.35 8.55 9.4 8.55 9.5 8.35 9.65 8.3 9.7 8.2 9.85 8.2 9.9 8.15 10.25 8.25 10.3 8.2 10.75 8.4 10.85 8.4 11.25 8.7 11.35 8.65 12.0 9.35 12.0 9.45 12.15 9.35 12.15 9.3 12.55 9.1 12.55 9.05 12.8 9.0 12.85 8.9 13.35 8.85 13.4 8.8 13.95 8.9 13.9 9.1 13.8 9.05 13.75 9.15 13.5 9.1 13.45 9.3 13.45 9.4 13.2 9.35 13.4 9.5 13.4 9.75 13.95 9.95 14.0 9.95 14.1 10.25 14.2 10.45 14.6 10.85 14.8 10.95 15.15 11.0 15.25 11.0 15.85 10.95 16.3 10.75 16.75 10.35 16.95 10.35 16.95 10.3 16.85 10.25 16.95 10.15 17.0 10.05 17.3 10.2 M18.35 6.5 L18.4 6.5 18.4 6.55 18.35 6.55 18.35 6.5 M18.0 7.55 L18.15 5.85 17.45 6.65 16.6 7.05 15.85 7.3 15.9 7.45 15.35 7.65 15.3 7.65 15.35 7.8 15.15 7.9 15.2 8.05 15.05 8.2 15.1 8.3 14.85 8.7 14.95 8.8 15.6 9.75 15.4 9.95 15.7 10.3 15.95 10.05 16.1 10.15 16.3 9.85 16.45 9.9 16.7 9.55 16.8 9.6 17.25 8.85 17.35 8.85 17.5 8.5 17.6 8.5 17.75 8.15 17.85 7.8 17.95 7.8 18.0 7.55 M18.25 7.8 L18.2 7.8 18.25 7.75 18.35 6.95 18.3 7.6 18.25 7.75 18.25 7.8 M15.15 6.15 L15.25 6.95 14.25 7.1 11.55 5.7 15.15 6.15 M5.6 5.1 L5.65 5.1 5.75 5.05 5.7 5.05 5.6 5.1" fill="#7f6600" fill-rule="evenodd" stroke="none"/>
  </g>
</svg>
