<?xml version="1.0" encoding="UTF-8" standalone="no"?>
<svg xmlns:ffdec="https://www.free-decompiler.com/flash" xmlns:xlink="http://www.w3.org/1999/xlink" ffdec:objectType="shape" height="12.35px" width="11.2px" xmlns="http://www.w3.org/2000/svg">
  <g transform="matrix(1.0, 0.0, 0.0, 1.0, -5.95, 0.25)">
    <path d="M13.45 0.15 L13.75 4.4 14.25 4.8 14.05 5.45 14.1 6.4 10.9 5.8 13.6 7.35 13.65 7.75 13.25 8.35 13.0 9.05 12.6 9.05 12.6 9.0 11.8 7.45 10.9 5.8 13.45 0.15 M15.0 2.15 L15.05 1.8 15.2 1.5 15.25 1.65 16.1 3.25 16.35 3.9 16.75 5.95 16.8 6.1 16.75 6.1 16.6 7.4 16.6 7.95 16.5 7.95 16.4 8.75 16.3 8.75 16.15 9.1 16.05 9.1 15.9 9.45 15.65 9.4 15.5 9.75 15.25 9.65 15.45 9.25 15.3 9.2 15.45 8.85 15.3 8.75 15.4 8.45 15.45 8.15 15.3 8.1 15.35 7.85 16.2 6.55 16.6 6.2 15.6 6.75 15.6 6.7 15.35 4.95 14.95 3.7 14.95 3.5 14.9 3.05 14.9 2.75 15.0 2.15 M6.35 1.05 L6.4 0.9 6.6 0.45 6.7 0.35 6.75 0.35 6.8 0.3 6.9 0.3 7.15 2.1 7.2 1.65 7.2 1.45 7.4 -0.25 8.4 2.45 6.8 4.6 7.0 2.95 6.7 3.1 6.35 1.05 M15.5 10.9 L15.5 10.95 15.4 10.95 15.45 10.9 15.5 10.9 M11.45 9.85 L11.5 10.25 12.4 11.55 12.6 11.75 12.8 11.9 12.5 11.85 12.15 11.7 12.05 11.7 11.8 11.5 11.6 11.4 11.4 10.9 11.35 11.0 10.9 10.2 10.95 10.15 10.5 9.35 10.55 9.3 10.4 9.15 10.7 8.85 10.9 9.05 11.0 9.0 11.1 9.1 11.45 9.65 11.45 9.85 M10.25 7.95 L10.3 8.05 10.35 8.05 10.45 8.2 10.55 8.2 10.6 8.35 10.3 8.2 10.25 7.95 M10.05 8.0 L10.2 8.2 10.05 8.1 9.95 8.1 10.05 8.0 M8.7 7.5 L8.7 7.6 8.65 7.7 8.55 8.2 8.6 8.3 8.55 8.6 8.4 8.6 8.35 8.55 8.35 8.45 8.3 8.4 8.3 8.3 8.25 8.25 8.25 8.2 8.15 7.8 8.05 7.55 8.1 7.5 7.9 7.15 7.95 7.1 7.9 6.95 8.05 6.75 8.1 6.75 8.15 6.7 8.25 6.9 8.3 6.9 8.55 7.3 8.6 7.25 8.65 7.45 8.7 7.45 8.7 7.5" fill="#ffcc00" fill-rule="evenodd" stroke="none"/>
    <path d="M11.8 2.95 L13.45 0.15 10.9 5.8 11.8 7.45 10.05 7.3 10.15 7.55 10.55 7.9 10.65 8.05 10.9 8.6 11.1 8.75 11.4 9.1 11.6 9.4 11.6 9.35 12.25 9.05 12.6 9.0 12.6 9.05 13.0 9.05 13.25 8.35 13.65 7.75 13.9 7.5 14.2 7.3 14.1 6.5 14.1 6.4 14.05 5.45 14.25 4.8 15.0 2.15 14.9 2.75 14.9 3.05 14.75 3.85 14.7 4.0 14.65 3.95 14.5 4.25 14.55 4.35 14.25 5.4 14.15 6.05 14.3 7.3 15.35 6.9 15.6 6.75 16.6 6.2 16.2 6.55 15.1 7.15 14.2 7.45 14.0 7.6 14.15 7.55 13.8 7.8 13.8 7.9 13.6 8.05 13.6 8.15 13.35 8.45 13.35 8.65 13.0 9.6 13.05 9.65 13.0 9.85 13.1 10.35 13.25 10.75 13.3 10.8 13.3 10.9 13.45 11.0 13.6 11.05 13.65 11.15 13.8 11.2 13.85 11.25 14.05 11.25 14.1 11.35 14.3 11.3 14.45 11.35 14.45 11.4 14.65 11.3 14.75 11.3 14.95 11.15 15.05 11.15 15.25 10.9 15.35 10.9 15.8 10.25 15.85 10.2 16.2 9.65 16.45 9.1 16.5 9.05 16.6 8.8 16.7 8.3 16.8 8.25 16.95 6.2 16.95 6.05 17.0 6.05 16.95 6.0 16.75 4.5 16.35 3.3 15.4 1.5 15.45 1.5 15.7 1.85 15.65 1.9 16.7 3.95 17.15 6.7 17.15 7.7 17.1 8.1 16.85 8.75 16.6 9.1 15.75 10.55 16.15 10.75 16.05 10.8 15.7 10.6 15.55 10.8 15.5 10.9 15.45 10.9 15.4 10.95 15.2 11.2 14.85 11.4 14.55 11.5 14.1 11.5 13.6 11.3 13.3 11.05 13.1 10.7 12.9 9.95 12.9 9.7 12.95 9.2 13.0 9.15 12.9 9.1 12.85 9.15 12.6 9.1 12.55 9.2 12.35 9.2 12.3 9.25 12.1 9.25 12.05 9.35 11.9 9.4 11.85 9.45 11.65 9.55 11.7 9.6 11.55 9.7 11.55 9.8 11.45 9.85 11.45 9.65 11.45 9.6 11.55 9.45 11.05 8.75 10.95 8.75 10.8 8.6 10.7 8.6 10.4 8.3 10.3 8.35 10.1 8.25 10.1 8.3 9.95 8.2 9.9 8.2 9.75 8.15 9.65 8.3 9.5 8.25 9.4 8.45 9.3 8.5 9.3 8.8 9.25 8.85 9.25 9.0 9.2 9.15 9.25 9.3 9.25 9.4 9.35 9.65 9.55 9.85 9.65 10.0 9.65 10.1 10.4 10.8 10.8 11.05 10.85 11.15 11.0 11.25 11.15 11.3 11.2 11.35 11.3 11.35 11.35 11.4 11.55 11.4 11.65 11.5 11.8 11.5 12.05 11.7 12.15 11.7 12.5 11.85 12.8 11.9 12.6 11.75 13.05 11.75 13.15 11.9 13.75 11.85 13.8 11.9 14.0 11.85 14.1 11.9 14.3 11.85 14.4 11.85 14.6 11.75 14.7 11.75 14.95 11.55 15.05 11.45 15.15 11.5 15.25 11.35 15.25 11.4 15.5 11.15 15.4 11.15 15.65 10.9 15.95 10.9 15.05 11.7 14.75 11.85 14.3 12.0 13.7 12.1 12.65 12.0 12.1 11.8 11.4 11.7 11.0 11.5 10.5 11.15 9.9 10.6 9.35 9.9 9.15 9.45 8.65 9.1 8.4 8.85 8.15 8.85 7.75 8.55 7.5 8.25 7.25 7.85 6.85 7.2 6.6 6.6 6.6 6.5 6.5 6.2 6.6 6.45 6.65 6.5 6.95 6.65 6.95 6.75 7.1 6.8 7.25 7.85 7.3 7.7 7.55 7.35 7.6 7.3 7.6 7.4 7.7 7.55 7.6 7.95 7.75 7.7 7.65 8.05 7.75 8.1 7.75 8.25 7.9 8.3 7.95 8.5 8.0 8.45 8.15 8.7 8.2 8.75 8.3 8.7 8.35 8.7 8.5 8.8 8.55 8.7 8.75 8.85 9.0 9.1 9.05 9.1 9.05 8.85 9.25 8.45 9.4 8.25 9.6 8.1 9.95 8.1 10.05 8.1 10.2 8.2 10.05 8.0 9.55 7.45 9.45 7.4 9.4 7.45 9.25 7.4 9.2 7.45 9.05 7.45 9.0 7.6 8.95 7.65 8.85 7.65 8.85 7.85 8.7 7.85 8.7 7.95 8.6 8.0 8.65 8.15 8.55 8.2 8.65 7.7 8.7 7.6 8.7 7.5 8.8 7.45 8.65 7.1 8.5 6.9 8.5 6.85 8.2 6.5 8.25 6.45 8.9 7.4 9.25 7.25 9.35 7.3 8.4 6.3 6.8 4.6 6.4 4.05 6.3 4.4 6.35 4.45 6.3 4.6 6.35 4.6 6.4 4.7 6.5 4.85 6.55 4.9 6.65 4.85 6.75 4.9 6.8 4.85 6.8 4.8 6.85 4.9 7.0 6.15 6.9 6.1 6.95 6.05 6.85 6.0 6.85 5.95 6.65 5.85 6.45 5.7 6.5 5.65 6.6 5.65 6.45 4.95 6.4 4.95 6.25 4.75 6.15 4.55 5.95 3.45 5.95 3.4 6.0 3.35 6.0 3.3 6.1 2.1 6.2 1.55 6.35 1.1 6.25 1.55 6.25 1.9 6.45 2.9 6.45 3.25 6.65 3.1 6.7 3.1 7.0 2.95 6.8 4.6 8.4 2.45 7.4 -0.25 8.55 2.4 9.8 2.3 10.45 2.25 Q8.65 3.45 6.8 4.6 L9.25 4.8 9.35 4.5 9.95 6.75 10.7 5.1 10.9 5.8 11.8 2.95 M7.0 0.55 L7.1 0.65 7.1 0.85 7.2 1.45 7.2 1.65 7.0 0.55 M17.1 7.55 L17.0 6.15 16.9 7.95 16.7 8.8 16.75 8.7 16.75 8.65 16.8 8.65 16.95 8.35 17.0 8.0 17.05 7.95 17.1 7.55 M10.25 7.95 L10.3 8.2 10.6 8.35 10.85 8.55 10.6 8.0 10.5 8.0 10.4 7.85 10.35 7.85 10.25 7.7 10.2 7.75 10.25 7.95" fill="#000000" fill-rule="evenodd" stroke="none"/>
    <path d="M9.8 2.3 L9.6 1.8 10.45 2.25 11.8 2.95 10.9 5.8 10.7 5.1 10.0 3.15 9.35 4.5 9.25 4.8 6.8 4.6 Q8.65 3.45 10.45 2.25 L9.8 2.3 M15.2 1.5 L15.3 1.5 15.4 1.45 15.4 1.5 16.35 3.3 16.75 4.5 16.95 6.0 17.0 6.05 16.95 6.05 16.95 6.2 16.8 8.25 16.7 8.3 16.6 8.8 16.5 9.05 16.45 9.1 16.2 9.65 15.85 10.2 15.8 10.25 15.35 10.9 15.25 10.9 15.05 11.15 14.95 11.15 14.75 11.3 14.65 11.3 14.45 11.4 14.45 11.35 14.3 11.3 14.1 11.35 14.05 11.25 13.85 11.25 13.8 11.2 13.65 11.15 13.6 11.05 13.45 11.0 13.3 10.9 13.3 10.8 13.25 10.75 13.1 10.35 13.0 9.85 13.05 9.65 13.0 9.6 13.35 8.65 13.35 8.45 13.6 8.15 13.6 8.05 13.8 7.9 13.8 7.8 14.15 7.55 14.0 7.6 14.2 7.45 15.1 7.15 16.2 6.55 15.35 7.85 15.3 8.1 15.45 8.15 15.4 8.45 15.3 8.75 15.45 8.85 15.3 9.2 15.45 9.25 15.25 9.65 15.5 9.75 15.65 9.4 15.9 9.45 16.05 9.1 16.15 9.1 16.3 8.75 16.4 8.75 16.5 7.95 16.6 7.95 16.6 7.4 16.75 6.1 16.8 6.1 16.75 5.95 16.35 3.9 16.1 3.25 15.25 1.65 15.2 1.5 M16.05 10.8 L15.95 10.9 15.65 10.9 15.4 11.15 15.5 11.15 15.25 11.4 15.25 11.35 15.15 11.5 15.05 11.45 14.95 11.55 14.7 11.75 14.6 11.75 14.4 11.85 14.3 11.85 14.1 11.9 14.0 11.85 13.8 11.9 13.75 11.85 13.15 11.9 13.05 11.75 12.6 11.75 12.4 11.55 11.5 10.25 11.45 9.85 11.55 9.8 11.55 9.7 11.7 9.6 11.65 9.55 11.85 9.45 11.9 9.4 12.05 9.35 12.1 9.25 12.3 9.25 12.35 9.2 12.55 9.2 12.6 9.1 12.85 9.15 12.9 9.1 13.0 9.15 12.95 9.2 12.9 9.7 12.9 9.95 13.1 10.7 13.3 11.05 13.6 11.3 14.1 11.5 14.55 11.5 14.85 11.4 15.2 11.2 15.4 10.95 15.5 10.95 15.5 10.9 15.55 10.8 15.7 10.6 16.05 10.8 M6.5 6.2 L6.4 6.0 6.4 5.8 6.45 5.7 6.65 5.85 6.85 5.95 6.85 6.0 6.95 6.05 6.9 6.1 7.0 6.15 6.85 4.9 6.8 4.8 6.8 4.85 6.75 4.9 6.65 4.85 6.55 4.9 6.5 4.85 6.4 4.7 6.35 4.6 6.3 4.6 6.35 4.45 6.3 4.4 6.4 4.05 6.8 4.6 8.4 6.3 8.25 6.45 8.2 6.5 8.5 6.85 8.5 6.9 8.65 7.1 8.8 7.45 8.7 7.5 8.7 7.45 8.65 7.45 8.6 7.25 8.55 7.3 8.3 6.9 8.25 6.9 8.15 6.7 8.1 6.75 8.05 6.75 7.9 6.95 7.95 7.1 7.9 7.15 8.1 7.5 8.05 7.55 8.15 7.8 8.25 8.2 8.25 8.25 8.3 8.3 8.3 8.4 8.35 8.45 8.35 8.55 8.4 8.6 8.55 8.6 8.6 8.3 8.55 8.2 8.65 8.15 8.6 8.0 8.7 7.95 8.7 7.85 8.85 7.85 8.85 7.65 8.95 7.65 9.0 7.6 9.05 7.45 9.2 7.45 9.25 7.4 9.4 7.45 9.45 7.4 9.55 7.45 10.05 8.0 9.95 8.1 9.6 8.1 9.4 8.25 9.25 8.45 9.05 8.85 9.05 9.1 9.0 9.1 8.75 8.85 8.55 8.7 8.5 8.8 8.35 8.7 8.3 8.7 8.2 8.75 8.15 8.7 8.0 8.45 7.95 8.5 7.9 8.3 7.75 8.25 7.75 8.1 7.65 8.05 7.75 7.7 7.6 7.95 7.7 7.55 7.6 7.4 7.6 7.3 7.55 7.35 7.3 7.7 7.25 7.85 7.1 6.8 6.95 6.75 6.95 6.65 6.65 6.5 6.6 6.45 6.5 6.2 M6.35 1.1 L6.35 1.05 6.7 3.1 6.65 3.1 6.45 3.25 6.45 2.9 6.25 1.9 6.25 1.55 6.35 1.1 M6.9 0.3 L7.0 0.45 7.0 0.55 7.2 1.65 7.15 2.1 6.9 0.3 M14.9 3.05 L14.95 3.5 14.95 3.7 15.35 4.95 15.6 6.7 15.6 6.75 15.35 6.9 14.3 7.3 14.15 6.05 14.25 5.4 14.55 4.35 14.5 4.25 14.65 3.95 14.7 4.0 14.75 3.85 14.9 3.05 M17.1 7.55 L17.05 7.95 17.0 8.0 16.95 8.35 16.8 8.65 16.75 8.65 16.75 8.7 16.7 8.8 16.9 7.95 17.0 6.15 17.1 7.55 M14.1 6.4 L14.1 6.5 14.2 7.3 13.6 7.35 10.9 5.8 14.1 6.4 M10.6 8.35 L10.55 8.2 10.45 8.2 10.35 8.05 10.3 8.05 10.25 7.95 10.2 7.75 10.25 7.7 10.35 7.85 10.4 7.85 10.5 8.0 10.6 8.0 10.85 8.55 10.6 8.35 M11.8 11.5 L11.65 11.5 11.55 11.4 11.35 11.4 11.3 11.35 11.2 11.35 11.15 11.3 11.0 11.25 10.85 11.15 10.8 11.05 10.4 10.8 9.65 10.1 9.65 10.0 9.55 9.85 9.35 9.65 9.25 9.4 9.25 9.3 9.2 9.15 9.25 9.0 9.25 8.85 9.3 8.8 9.3 8.5 9.4 8.45 9.5 8.25 9.65 8.3 9.75 8.15 9.9 8.2 9.95 8.2 10.1 8.3 10.1 8.25 10.3 8.35 10.4 8.3 10.7 8.6 10.8 8.6 10.95 8.75 11.05 8.75 11.55 9.45 11.45 9.6 11.45 9.65 11.1 9.1 11.0 9.0 10.9 9.05 10.7 8.85 10.4 9.15 10.55 9.3 10.5 9.35 10.95 10.15 10.9 10.2 11.35 11.0 11.4 10.9 11.6 11.4 11.8 11.5" fill="#7f6600" fill-rule="evenodd" stroke="none"/>
  </g>
</svg>
