<?xml version="1.0" encoding="UTF-8" standalone="no"?>
<svg xmlns:ffdec="https://www.free-decompiler.com/flash" xmlns:xlink="http://www.w3.org/1999/xlink" ffdec:objectType="shape" height="12.7px" width="8.25px" xmlns="http://www.w3.org/2000/svg">
  <g transform="matrix(1.0, 0.0, 0.0, 1.0, -7.15, 0.3)">
    <path d="M12.65 0.35 L13.1 3.75 13.25 2.85 13.2 4.35 12.85 6.25 12.9 7.5 13.35 7.3 13.95 6.9 14.3 6.65 13.95 7.05 13.75 7.35 13.7 7.4 13.4 7.9 13.15 8.05 12.7 8.25 12.75 8.4 12.55 8.5 12.6 8.65 12.35 8.75 12.25 8.95 12.3 9.1 12.55 10.1 12.45 10.35 12.65 10.25 12.45 10.65 12.3 10.85 12.35 11.0 12.3 11.05 12.4 11.3 12.55 11.5 12.6 11.55 12.8 11.55 13.0 11.7 13.1 11.75 13.25 11.55 13.4 11.6 13.6 11.35 13.65 11.35 13.85 11.05 13.95 11.0 13.95 10.95 14.05 10.8 14.2 10.4 14.5 9.8 14.6 9.5 14.65 9.45 14.85 8.3 14.9 8.25 14.9 8.45 14.85 8.65 14.85 9.0 14.75 9.3 14.8 9.2 14.75 9.4 14.85 9.4 14.95 9.15 15.0 9.1 15.1 8.8 15.15 8.75 15.2 8.4 15.3 8.35 15.05 4.85 14.7 3.3 14.6 3.3 14.0 1.7 14.1 1.8 14.35 2.2 14.7 3.3 15.15 4.75 15.4 8.05 15.05 9.35 14.8 9.6 14.65 9.7 14.55 10.05 14.2 10.75 14.15 10.9 14.55 11.25 13.75 12.1 13.45 12.3 13.1 12.4 12.2 12.35 11.55 12.1 11.5 12.05 11.6 12.1 11.75 12.1 11.45 11.8 10.8 10.35 10.8 10.05 10.85 9.7 10.9 9.65 11.05 9.5 10.7 8.85 10.6 8.85 10.45 8.6 10.4 8.65 10.3 8.5 10.2 8.5 10.1 8.35 10.05 8.35 9.95 8.25 9.8 8.3 9.7 8.2 9.5 8.4 9.4 8.6 9.55 8.7 9.5 8.8 9.6 8.9 9.55 9.0 9.75 9.25 9.75 9.35 9.8 9.45 10.45 11.25 11.1 11.85 11.15 11.85 11.35 12.0 11.2 11.95 11.15 11.95 10.8 11.85 10.3 11.5 10.0 11.1 9.3 9.95 9.1 9.4 9.05 8.95 9.0 8.85 8.9 8.75 8.8 8.75 8.55 8.6 8.5 8.55 8.3 8.3 8.0 7.65 7.65 6.6 7.5 5.85 7.5 5.65 8.0 7.65 8.0 7.55 8.2 7.1 8.3 7.0 8.3 7.05 8.45 7.5 8.4 7.55 8.45 7.7 8.5 8.15 8.55 8.25 8.55 8.3 8.75 8.6 8.8 8.6 8.9 8.65 8.9 8.7 8.95 8.5 9.0 8.2 9.0 8.0 9.05 7.65 9.2 7.45 9.25 7.4 9.3 7.35 9.25 7.2 9.55 7.55 9.5 7.6 9.45 7.75 9.55 7.8 9.5 7.9 9.6 8.0 9.55 8.1 9.75 8.05 9.8 8.05 9.95 8.1 10.05 8.3 10.0 8.1 10.45 8.45 10.75 8.8 10.9 9.05 10.7 8.1 10.65 8.05 10.55 7.9 10.45 7.85 10.4 7.75 10.35 7.75 10.25 7.6 10.25 7.75 10.2 7.6 10.1 7.6 10.0 7.5 10.0 8.0 10.0 8.1 9.3 4.75 10.1 2.25 7.2 4.45 7.15 3.25 7.2 3.25 7.25 2.0 7.4 1.2 7.35 1.6 7.4 1.6 7.35 1.8 7.4 1.8 7.45 2.05 7.4 2.3 7.5 2.9 7.2 4.45 8.75 2.4 8.1 -0.3 9.1 2.35 9.95 2.3 10.1 2.25 10.0 2.95 10.0 3.1 9.85 4.2 10.0 7.05 10.2 5.8 12.65 6.55 12.65 6.0 12.75 5.1 12.9 4.55 12.65 0.35 M15.05 6.95 L15.0 7.4 15.0 7.7 14.9 8.25 15.0 6.5 15.05 6.65 15.05 6.95 M11.0 7.5 L10.0 7.25 10.0 7.35 10.25 7.5 10.7 7.95 10.75 8.05 10.8 8.25 10.9 8.5 11.0 9.15 11.1 9.45 11.15 9.4 11.45 9.25 11.8 9.2 11.85 8.95 12.05 8.3 12.25 8.0 12.45 7.8 12.5 7.7 12.75 7.55 10.2 5.8 11.0 7.5 M11.7 9.55 L11.55 9.5 11.5 9.6 11.4 10.05 11.55 10.1 11.55 10.25 11.65 10.3 11.6 10.4 11.7 10.55 11.7 10.25 11.65 9.95 11.65 9.65 11.7 9.55 M14.35 11.35 L14.05 11.05 13.95 11.2 13.7 11.4 13.65 11.4 13.6 11.55 13.4 11.8 13.25 11.85 13.05 11.85 13.0 11.9 12.8 11.85 12.75 11.85 12.5 11.8 12.65 12.0 12.8 12.15 12.95 12.05 13.15 12.15 13.25 12.05 13.35 12.05 13.5 11.9 13.6 11.95 13.85 11.6 13.75 11.6 13.95 11.4 14.0 11.4 14.25 11.35 14.35 11.35" fill="#000000" fill-rule="evenodd" stroke="none"/>
    <path d="M13.75 1.6 L13.8 1.55 13.9 1.6 14.0 1.7 14.6 3.3 14.7 3.3 15.05 4.85 15.3 8.35 15.2 8.4 15.15 8.75 15.1 8.8 15.0 9.1 14.95 9.15 14.85 9.4 14.75 9.4 14.8 9.2 14.75 9.3 14.85 9.0 14.85 8.65 14.9 8.45 15.0 8.45 15.0 8.0 15.1 8.0 15.1 7.1 15.05 6.95 15.05 6.65 14.95 5.5 14.6 3.7 14.5 3.7 13.75 1.6 M7.5 5.65 L7.2 4.45 9.25 7.2 9.3 7.35 9.25 7.4 9.25 7.35 9.2 7.35 9.1 7.2 9.0 7.0 8.95 7.0 8.85 6.8 8.8 6.8 8.7 6.6 8.6 6.65 8.7 6.85 8.55 6.9 8.7 7.3 8.65 7.35 8.75 7.65 8.65 7.65 8.7 8.0 8.8 8.0 8.8 8.3 8.85 8.35 8.8 8.45 8.9 8.5 8.95 8.5 8.9 8.7 8.9 8.65 8.8 8.6 8.75 8.6 8.55 8.3 8.55 8.25 8.5 8.15 8.45 7.7 8.4 7.55 8.45 7.5 8.3 7.05 8.3 7.0 8.2 7.1 8.0 7.55 8.0 7.65 7.5 5.65 M7.4 1.2 L7.5 0.8 7.65 2.1 7.95 0.35 8.1 -0.3 8.75 2.4 7.2 4.45 7.5 2.9 7.4 2.3 7.45 2.05 7.4 1.8 7.35 1.8 7.4 1.6 7.35 1.6 7.4 1.2 M9.95 2.3 L9.9 1.8 11.45 3.0 10.2 5.8 12.9 4.55 12.75 5.1 12.65 6.0 12.65 6.55 10.2 5.8 10.0 3.1 10.0 2.95 10.1 2.25 9.95 2.3 M14.9 8.25 L14.85 8.3 14.65 9.45 14.6 9.5 14.5 9.8 14.2 10.4 14.05 10.8 13.95 10.95 13.95 11.0 13.85 11.05 13.65 11.35 13.6 11.35 13.4 11.6 13.25 11.55 13.1 11.75 13.0 11.7 12.8 11.55 12.6 11.55 12.55 11.5 12.4 11.3 12.3 11.05 12.35 11.0 12.3 10.85 12.45 10.65 12.65 10.25 12.45 10.35 12.55 10.1 12.3 9.1 12.25 8.95 12.35 8.75 12.6 8.65 12.55 8.5 12.75 8.4 12.7 8.25 13.15 8.05 13.4 7.9 13.7 7.4 13.65 8.6 13.75 8.65 13.7 9.0 13.85 9.05 13.75 9.4 13.95 9.5 14.2 9.55 14.3 9.15 14.4 9.15 14.45 8.75 14.55 8.75 14.6 7.6 14.75 7.15 14.65 7.15 14.7 6.4 14.85 6.4 14.95 6.45 15.0 6.5 14.9 8.25 M13.95 6.9 L13.35 7.3 12.9 7.5 12.85 6.25 13.2 4.35 13.25 2.85 13.55 3.7 13.7 4.35 13.6 4.4 13.95 6.9 M10.0 8.0 L10.0 7.5 10.1 7.6 10.2 7.6 10.25 7.75 10.25 7.6 10.35 7.75 10.4 7.75 10.45 7.85 10.55 7.9 10.65 8.05 10.7 8.1 10.9 9.05 10.75 8.8 10.6 8.25 10.5 8.25 10.4 8.05 10.3 8.05 10.25 7.9 10.0 8.0 M9.95 8.1 L9.8 8.05 9.75 8.05 9.55 8.1 9.6 8.0 9.5 7.9 9.55 7.8 9.45 7.75 9.5 7.6 9.55 7.55 9.95 8.1 M9.3 4.75 L7.2 4.45 10.1 2.25 9.3 4.75 M11.7 9.55 L11.65 9.65 11.65 9.95 11.7 10.25 11.7 10.55 11.6 10.4 11.65 10.3 11.55 10.25 11.55 10.1 11.4 10.05 11.5 9.6 11.55 9.5 11.7 9.55 M11.15 11.85 L11.1 11.85 10.45 11.25 9.8 9.45 9.75 9.35 9.75 9.25 9.55 9.0 9.6 8.9 9.5 8.8 9.55 8.7 9.4 8.6 9.5 8.4 9.7 8.2 9.8 8.3 9.95 8.25 10.05 8.35 10.1 8.35 10.2 8.5 10.3 8.5 10.4 8.65 10.45 8.6 10.6 8.85 10.7 8.85 11.05 9.5 10.9 9.65 10.75 9.3 10.65 9.3 10.5 9.05 10.4 9.1 10.25 9.2 10.2 9.25 10.3 9.5 10.2 9.55 10.55 10.3 10.6 10.7 10.65 10.65 11.15 11.85 M14.35 11.35 L14.25 11.35 14.0 11.4 13.95 11.4 13.75 11.6 13.85 11.6 13.6 11.95 13.5 11.9 13.35 12.05 13.25 12.05 13.15 12.15 12.95 12.05 12.8 12.15 12.65 12.0 12.5 11.8 12.75 11.85 12.8 11.85 13.0 11.9 13.05 11.85 13.25 11.85 13.4 11.8 13.6 11.55 13.65 11.4 13.7 11.4 13.95 11.2 14.05 11.05 14.35 11.35" fill="#7f6600" fill-rule="evenodd" stroke="none"/>
    <path d="M11.45 3.0 L12.65 0.2 12.65 0.35 12.9 4.55 10.2 5.8 11.45 3.0 M13.25 2.85 L13.35 2.15 13.4 1.95 13.5 1.75 13.6 1.65 13.75 1.6 14.5 3.7 14.6 3.7 14.95 5.5 15.05 6.65 15.0 6.5 14.95 6.45 14.85 6.4 14.7 6.4 14.65 7.15 14.75 7.15 14.6 7.6 14.55 8.75 14.45 8.75 14.4 9.15 14.3 9.15 14.2 9.55 13.95 9.5 13.75 9.4 13.85 9.05 13.7 9.0 13.75 8.65 13.65 8.6 13.7 7.4 13.75 7.35 13.95 7.05 14.3 6.65 13.95 6.9 13.6 4.4 13.7 4.35 13.55 3.7 13.25 2.85 M11.5 12.05 L11.35 12.0 11.15 11.85 10.65 10.65 10.6 10.7 10.55 10.3 10.2 9.55 10.3 9.5 10.2 9.25 10.25 9.2 10.4 9.1 10.5 9.05 10.65 9.3 10.75 9.3 10.9 9.65 10.85 9.7 10.8 10.05 10.8 10.35 11.45 11.8 11.75 12.1 11.6 12.1 11.5 12.05 M7.5 0.8 L7.5 0.75 7.6 0.55 7.7 0.4 7.75 0.3 7.85 0.3 7.95 0.35 7.65 2.1 7.5 0.8 M14.9 8.45 L14.9 8.25 15.0 7.7 15.0 7.4 15.05 6.95 15.1 7.1 15.1 8.0 15.0 8.0 15.0 8.45 14.9 8.45 M10.75 8.8 L10.45 8.45 10.0 8.1 10.05 8.3 9.95 8.1 9.55 7.55 9.25 7.2 7.2 4.45 9.3 4.75 10.0 8.1 10.0 8.0 10.25 7.9 10.3 8.05 10.4 8.05 10.5 8.25 10.6 8.25 10.75 8.8 M9.25 7.4 L9.2 7.45 9.05 7.65 9.0 8.0 9.0 8.2 8.95 8.5 8.9 8.5 8.8 8.45 8.85 8.35 8.8 8.3 8.8 8.0 8.7 8.0 8.65 7.65 8.75 7.65 8.65 7.35 8.7 7.3 8.55 6.9 8.7 6.85 8.6 6.65 8.7 6.6 8.8 6.8 8.85 6.8 8.95 7.0 9.0 7.0 9.1 7.2 9.2 7.35 9.25 7.35 9.25 7.4 M11.0 7.5 L10.2 5.8 12.75 7.55 12.5 7.7 12.45 7.8 12.25 8.0 12.05 8.3 11.85 8.95 11.8 9.2 11.0 7.5" fill="#ffcc00" fill-rule="evenodd" stroke="none"/>
  </g>
</svg>
