<?xml version="1.0" encoding="UTF-8" standalone="no"?>
<svg xmlns:ffdec="https://www.free-decompiler.com/flash" xmlns:xlink="http://www.w3.org/1999/xlink" ffdec:objectType="shape" height="12.9px" width="5.7px" xmlns="http://www.w3.org/2000/svg">
  <g transform="matrix(1.0, 0.0, 0.0, 1.0, -7.65, 0.25)">
    <path d="M12.65 7.4 L12.65 7.0 12.7 7.05 12.65 7.4 M11.55 7.1 L11.45 7.2 11.35 7.4 11.25 7.55 11.05 8.0 11.05 8.65 11.1 8.75 11.15 8.9 11.0 9.8 11.1 9.85 10.95 10.9 11.0 11.0 10.95 11.3 11.05 11.4 10.95 11.6 11.1 11.45 11.05 11.7 11.2 11.8 11.4 11.85 11.55 11.85 11.6 11.6 11.7 11.6 11.8 11.3 11.9 11.3 11.95 10.95 12.05 10.9 12.1 10.65 12.4 9.7 12.5 9.65 12.45 9.85 12.5 9.9 12.6 9.9 12.65 9.7 12.75 9.65 12.8 9.4 12.9 9.35 12.95 9.05 13.0 9.0 13.05 8.65 13.1 8.6 13.15 7.65 12.95 4.6 13.25 7.3 13.25 7.6 13.25 7.7 13.25 8.2 13.1 9.15 12.95 9.6 12.8 9.85 12.75 9.9 12.7 10.0 12.5 10.1 12.3 10.95 12.65 11.55 12.3 12.2 12.0 12.5 11.75 12.65 11.25 12.65 10.8 12.45 10.6 12.25 10.45 12.0 10.3 11.6 10.05 10.35 10.05 10.05 10.15 9.8 10.25 9.65 10.3 9.65 10.3 9.6 10.35 9.05 10.3 8.9 10.25 8.85 10.2 8.7 10.1 8.7 10.05 8.5 10.0 8.5 9.9 8.35 9.8 8.35 9.7 8.4 9.6 8.4 9.5 8.55 9.55 8.65 9.5 8.75 9.55 8.9 9.5 8.95 9.55 9.15 9.5 9.2 9.6 9.65 9.5 9.7 9.9 11.6 10.15 12.0 10.0 11.9 9.9 11.75 9.85 11.7 9.7 11.45 9.35 10.55 9.05 9.2 9.05 8.95 9.1 8.55 8.9 8.05 8.8 7.55 7.65 4.35 9.15 2.35 8.8 -0.25 9.0 0.25 9.15 0.75 9.3 1.15 9.25 0.6 9.35 0.95 9.4 1.5 9.7 2.3 9.8 2.25 10.0 3.0 10.15 1.9 10.15 1.8 10.75 2.65 10.55 3.2 9.55 5.8 11.0 6.55 11.05 5.0 11.1 5.0 11.2 3.85 11.2 3.6 11.35 4.3 11.55 7.1 M12.85 3.65 L12.8 3.55 12.7 3.45 12.45 2.15 12.4 2.0 12.4 1.95 12.7 2.65 12.85 3.65 M11.7 0.2 L12.0 1.65 11.85 1.65 11.75 1.75 11.7 0.2 M10.15 8.35 L10.4 8.85 10.5 8.4 10.65 8.05 11.05 7.6 11.0 7.1 9.55 5.8 10.0 6.95 9.95 7.2 9.95 7.25 10.05 7.25 10.15 7.5 10.0 7.6 9.95 7.7 10.0 7.8 9.9 7.95 9.9 8.1 9.95 8.1 10.1 8.3 10.15 8.35 M12.05 11.45 L11.75 11.65 11.7 11.65 11.8 11.7 12.35 11.7 12.4 11.65 12.15 11.25 12.15 11.35 12.05 11.45 M9.5 7.7 L9.8 8.3 9.4 4.7 9.8 2.25 7.65 4.35 9.0 6.8 9.0 6.85 9.05 7.15 9.0 7.2 9.1 7.65 9.1 8.15 9.15 8.2 9.15 8.3 9.2 8.4 9.25 8.25 9.3 8.2 9.35 8.15 9.4 8.15 9.4 8.1 9.45 7.85 9.5 7.7" fill="#000000" fill-rule="evenodd" stroke="none"/>
    <path d="M12.1 1.7 L12.25 1.8 12.4 2.0 12.45 2.15 12.7 3.45 12.8 3.55 12.85 3.65 12.9 4.1 12.95 4.6 13.15 7.65 13.1 8.6 13.05 8.65 13.0 9.0 12.95 9.05 12.9 9.35 12.8 9.4 12.75 9.65 12.65 9.7 12.6 9.9 12.5 9.9 12.45 9.85 12.5 9.65 12.4 9.7 12.1 10.65 12.05 10.9 11.95 10.95 11.9 11.3 11.8 11.3 11.7 11.6 11.6 11.6 11.55 11.85 11.4 11.85 11.2 11.8 11.05 11.7 11.1 11.45 10.95 11.6 11.05 11.4 10.95 11.3 11.0 11.0 10.95 10.9 11.1 9.85 11.0 9.8 11.15 8.9 11.1 8.75 11.05 8.65 11.05 8.0 11.25 7.55 11.35 7.4 11.45 7.2 11.55 7.1 11.55 7.3 11.45 7.3 11.45 8.15 11.55 7.75 11.55 8.95 11.65 9.0 11.6 9.4 11.8 9.45 11.8 9.8 11.95 9.45 12.15 9.45 12.2 9.05 12.3 9.0 12.35 6.65 12.4 6.65 12.55 6.8 12.65 7.0 12.65 7.4 12.55 8.05 12.55 8.45 12.45 9.15 12.65 9.15 12.7 8.75 12.8 8.75 12.8 8.3 12.9 8.25 12.7 4.25 12.6 4.25 12.4 3.05 12.3 3.05 12.15 2.3 12.25 2.3 12.1 1.7 M12.85 3.65 L12.95 4.6 12.85 3.65 M13.25 7.6 L13.35 7.75 13.25 7.7 13.25 7.6 M10.3 12.1 L10.15 12.0 9.9 11.6 9.5 9.7 9.6 9.65 9.5 9.2 9.55 9.15 9.5 8.95 9.55 8.9 9.5 8.75 9.55 8.65 9.5 8.55 9.6 8.4 9.7 8.4 9.8 8.35 9.9 8.35 10.0 8.5 10.05 8.5 10.1 8.7 10.2 8.7 10.25 8.85 10.3 8.9 10.35 9.05 10.3 9.6 10.25 9.35 10.15 9.35 10.1 9.05 9.9 9.15 9.85 9.15 9.9 9.4 9.85 9.45 9.95 10.05 9.95 10.35 10.0 10.65 10.0 10.6 10.3 12.1 M7.65 4.35 L8.8 -0.25 9.15 2.35 7.65 4.35 9.8 2.25 9.4 4.7 9.8 8.3 9.5 7.7 9.25 7.25 9.3 8.2 9.25 8.25 9.2 8.4 9.15 8.3 9.15 8.2 9.1 8.15 9.1 7.65 9.0 7.2 9.05 7.15 9.0 6.85 9.0 6.8 7.65 4.35 M9.15 0.4 L9.2 0.45 9.25 0.6 9.3 1.15 9.15 0.75 9.15 0.4 M10.55 3.2 L11.35 2.7 11.45 2.2 11.7 3.65 11.65 3.9 11.9 6.75 11.85 6.75 11.7 6.9 11.55 7.1 11.35 4.3 11.2 3.6 11.2 3.85 10.6 5.25 Q10.85 5.15 11.05 5.0 L11.0 6.55 9.55 5.8 10.55 3.2 M10.15 8.35 L10.1 8.3 9.95 8.1 9.9 8.1 9.9 7.95 10.0 7.8 9.95 7.7 10.0 7.6 10.15 7.5 10.4 8.1 10.25 8.1 10.1 8.2 10.15 8.35 M12.05 11.45 L12.15 11.35 12.15 11.25 12.4 11.65 12.35 11.7 11.8 11.7 11.7 11.65 11.75 11.65 12.05 11.45" fill="#7f6600" fill-rule="evenodd" stroke="none"/>
    <path d="M12.1 1.7 L12.25 2.3 12.15 2.3 12.3 3.05 12.4 3.05 12.6 4.25 12.7 4.25 12.9 8.25 12.8 8.3 12.8 8.75 12.7 8.75 12.65 9.15 12.45 9.15 12.55 8.45 12.55 8.05 12.65 7.4 12.7 7.05 12.65 7.0 12.55 6.8 12.4 6.65 12.35 6.65 12.3 9.0 12.2 9.05 12.15 9.45 11.95 9.45 11.8 9.8 11.8 9.45 11.6 9.4 11.65 9.0 11.55 8.95 11.55 7.75 11.45 8.15 11.45 7.3 11.55 7.3 11.55 7.1 11.7 6.9 11.85 6.75 11.9 6.75 11.65 3.9 11.7 3.65 11.45 2.2 11.35 2.7 10.55 3.2 10.75 2.65 11.7 0.2 11.75 1.75 11.85 1.65 12.0 1.65 12.1 1.7 M10.6 12.25 L10.4 12.2 10.3 12.1 10.0 10.6 10.0 10.65 9.95 10.35 9.95 10.05 9.85 9.45 9.9 9.4 9.85 9.15 9.9 9.15 10.1 9.05 10.15 9.35 10.25 9.35 10.3 9.6 10.3 9.65 10.25 9.65 10.15 9.8 10.05 10.05 10.05 10.35 10.3 11.6 10.45 12.0 10.6 12.25 M9.0 0.25 L9.15 0.4 9.15 0.75 9.0 0.25 M11.2 3.85 L11.1 5.0 11.05 5.0 Q10.85 5.15 10.6 5.25 L11.2 3.85 M9.55 5.8 L11.0 7.1 11.05 7.6 10.65 8.05 10.5 8.4 10.4 8.85 10.15 8.35 10.1 8.2 10.25 8.1 10.4 8.1 10.15 7.5 10.05 7.25 10.0 6.95 9.55 5.8 M9.5 7.7 L9.45 7.85 9.4 8.1 9.4 8.15 9.35 8.15 9.3 8.2 9.25 7.25 9.5 7.7" fill="#ffcc00" fill-rule="evenodd" stroke="none"/>
  </g>
</svg>
