<?xml version="1.0" encoding="UTF-8" standalone="no"?>
<svg xmlns:ffdec="https://www.free-decompiler.com/flash" xmlns:xlink="http://www.w3.org/1999/xlink" ffdec:objectType="shape" height="13.05px" width="4.1px" xmlns="http://www.w3.org/2000/svg">
  <g transform="matrix(1.0, 0.0, 0.0, 1.0, -8.2, 0.3)">
    <path d="M10.25 0.45 L10.3 0.6 10.4 0.8 10.4 0.95 10.65 0.2 12.3 5.75 10.75 11.5 10.7 10.35 10.6 9.95 10.65 9.9 10.85 9.4 10.9 7.8 12.3 5.75 10.9 4.9 10.85 3.45 10.7 2.75 10.7 8.95 10.65 9.05 10.65 9.35 10.55 9.4 10.55 9.65 10.4 9.75 10.4 9.95 10.25 10.0 10.0 10.05 10.0 10.85 9.95 10.9 9.95 11.25 9.85 11.3 9.85 11.6 9.95 11.55 10.15 11.4 10.25 11.25 10.3 11.1 10.35 11.8 9.7 11.8 9.7 11.7 9.75 11.65 9.45 11.7 9.2 11.6 9.15 11.3 9.1 11.25 9.05 10.55 8.95 10.45 8.95 9.7 8.85 9.65 8.85 8.95 8.75 8.85 8.75 7.35 9.05 6.85 8.2 4.25 9.55 -0.3 9.8 0.5 10.1 1.7 10.0 1.65 9.85 1.7 9.65 1.9 9.65 2.4 9.75 2.35 9.75 3.1 9.65 3.1 9.65 3.9 9.55 3.95 9.55 6.7 9.4 6.65 9.3 6.7 9.3 2.75 9.4 2.35 8.2 4.25 9.15 4.55 9.15 5.6 8.9 5.75 9.15 6.05 9.15 6.8 9.1 6.85 9.1 9.05 9.2 9.1 9.2 9.5 9.75 9.5 9.75 9.05 9.85 9.05 9.85 7.8 9.95 7.35 9.85 7.4 9.85 6.8 10.05 7.15 9.9 8.35 9.9 9.25 9.95 9.25 9.95 9.2 10.25 9.25 10.25 8.85 10.4 8.8 10.4 8.35 10.5 8.35 10.45 4.35 10.35 4.35 10.35 3.1 10.25 3.1 10.25 1.75 10.15 1.7 10.25 1.5 10.25 0.45 M10.4 10.85 L10.3 10.85 10.35 10.2 10.4 10.85" fill="#7f6600" fill-rule="evenodd" stroke="none"/>
    <path d="M10.75 11.5 L10.8 11.7 10.65 12.15 10.5 12.45 10.45 12.5 10.4 12.6 10.35 12.6 10.0 12.75 9.85 12.75 9.55 12.55 9.4 12.35 9.35 12.15 9.1 12.0 9.0 11.9 8.9 11.75 8.7 11.05 8.6 8.15 8.65 7.7 8.75 7.35 8.75 8.85 8.85 8.95 8.85 9.65 8.95 9.7 8.95 10.45 9.05 10.55 9.1 11.25 9.15 11.3 9.2 11.6 9.45 11.7 9.75 11.65 9.7 11.7 9.7 11.8 10.35 11.8 10.3 11.1 10.25 11.25 10.15 11.4 9.95 11.55 9.85 11.6 9.85 11.3 9.95 11.25 9.95 10.9 10.0 10.85 10.0 10.05 10.25 10.0 10.4 9.95 10.4 9.75 10.55 9.65 10.55 9.4 10.65 9.35 10.65 9.05 10.7 8.95 10.7 2.75 10.85 3.45 10.9 4.9 12.3 5.75 10.9 7.8 10.85 9.4 10.65 9.9 10.6 9.95 10.7 10.35 10.75 11.5 M9.3 6.7 L9.15 6.8 9.15 6.05 8.9 5.75 9.15 5.6 9.15 4.55 8.2 4.25 9.4 2.35 9.3 2.75 9.3 6.7 M10.4 10.85 L10.35 10.2 10.3 10.85 10.4 10.85" fill="#000000" fill-rule="evenodd" stroke="none"/>
    <path d="M9.8 0.5 L9.9 0.3 10.0 0.25 10.15 0.3 10.25 0.45 10.25 1.5 10.15 1.7 10.25 1.75 10.25 3.1 10.35 3.1 10.35 4.35 10.45 4.35 10.5 8.35 10.4 8.35 10.4 8.8 10.25 8.85 10.25 9.25 9.95 9.2 9.95 9.25 9.9 9.25 9.9 8.35 10.05 7.15 9.85 6.8 9.85 7.4 9.95 7.35 9.85 7.8 9.85 9.05 9.75 9.05 9.75 9.5 9.2 9.5 9.2 9.1 9.1 9.05 9.1 6.85 9.15 6.8 9.3 6.7 9.4 6.65 9.55 6.7 9.55 3.95 9.65 3.9 9.65 3.1 9.75 3.1 9.75 2.35 9.65 2.4 9.65 1.9 9.85 1.7 10.0 1.65 10.1 1.7 9.8 0.5" fill="#ffcc00" fill-rule="evenodd" stroke="none"/>
  </g>
</svg>
