<?xml version="1.0" encoding="UTF-8" standalone="no"?>
<svg xmlns:ffdec="https://www.free-decompiler.com/flash" xmlns:xlink="http://www.w3.org/1999/xlink" ffdec:objectType="shape" height="12.95px" width="5.7px" xmlns="http://www.w3.org/2000/svg">
  <g transform="matrix(1.0, 0.0, 0.0, 1.0, -6.25, 0.3)">
    <path d="M11.55 1.15 L11.65 1.6 11.65 2.4 11.6 3.65 11.45 3.9 11.4 3.9 11.45 3.55 11.55 1.15 M11.9 2.9 L11.9 3.05 11.95 3.25 11.85 5.35 11.8 5.75 11.8 5.8 11.75 6.15 11.6 6.55 11.45 6.7 11.45 6.65 11.25 7.7 11.25 7.75 11.4 8.0 11.45 8.15 11.1 9.35 10.9 9.75 10.85 9.8 10.7 9.9 10.65 9.95 10.55 9.95 10.4 10.0 10.3 9.95 10.15 9.9 10.2 9.8 10.5 9.8 10.7 9.7 10.65 9.6 10.8 9.5 10.8 9.35 10.85 9.3 10.85 9.2 10.9 9.0 10.95 8.6 10.9 8.55 10.9 8.5 10.95 8.3 10.9 8.2 10.9 8.1 10.85 8.05 11.35 6.65 11.5 6.55 11.45 6.45 11.55 6.4 11.55 6.3 11.6 6.25 11.6 6.0 11.65 5.85 10.35 2.4 10.75 1.85 11.25 4.1 11.4 4.3 11.25 4.2 11.3 4.45 11.4 4.3 11.35 4.5 11.5 5.2 11.65 5.85 11.7 4.7 11.75 4.15 11.7 4.15 11.9 2.9 M9.95 10.65 L9.95 10.95 9.75 11.65 9.6 12.0 9.35 12.3 9.15 12.45 8.85 12.6 8.55 12.65 8.25 12.65 8.0 12.5 7.75 12.25 7.6 12.0 7.15 11.7 6.9 11.2 6.3 9.05 6.25 7.3 6.3 7.0 6.35 8.4 6.45 8.45 6.45 9.0 6.5 9.2 6.55 9.25 6.65 10.0 6.75 10.05 6.8 10.3 6.95 10.8 7.05 10.85 7.15 11.2 7.25 11.2 7.35 11.5 7.45 11.5 7.4 11.6 7.7 11.5 7.6 11.65 8.0 11.7 8.3 11.7 8.65 11.65 8.95 11.0 8.95 10.85 9.05 11.0 9.2 10.55 9.15 10.45 9.3 10.05 9.2 9.9 9.25 9.75 9.2 9.65 8.9 9.5 8.8 9.65 8.85 9.95 8.85 10.25 8.55 10.95 8.4 11.15 8.2 11.3 8.15 11.3 8.05 11.35 8.0 11.3 8.1 11.2 8.0 10.9 8.1 10.8 8.05 10.5 8.05 10.15 7.95 10.15 7.8 10.1 7.85 9.9 7.9 10.05 8.05 10.0 8.2 9.9 8.15 9.75 8.3 9.65 8.45 9.5 8.4 9.35 8.5 9.25 8.45 8.8 8.5 8.7 8.5 7.75 11.65 5.85 9.5 7.85 9.0 7.85 8.85 8.95 8.75 9.2 8.8 9.4 8.95 9.35 9.1 9.35 9.2 9.45 9.4 9.85 9.4 9.95 9.55 10.45 9.55 11.75 9.95 10.65 M6.85 6.6 L7.2 3.2 7.4 2.45 7.45 2.35 7.5 2.1 7.6 2.0 7.3 3.45 7.25 3.5 6.95 6.6 6.85 6.6 M8.8 3.5 L9.65 0.2 9.5 4.75 9.05 5.95 9.0 6.45 9.0 6.65 8.65 7.55 8.5 7.7 8.5 7.45 8.8 3.6 8.8 3.5 M9.9 0.9 L10.25 -0.3 10.0 1.45 9.9 0.9 M10.65 1.35 L10.7 0.85 10.75 0.7 10.75 1.65 10.65 1.35 M7.65 9.95 L7.75 9.95 7.8 10.1 7.7 10.05 7.65 9.95" fill="#000000" fill-rule="evenodd" stroke="none"/>
    <path d="M11.4 0.5 L11.45 0.6 11.45 0.7 11.5 0.75 11.5 0.8 11.55 1.15 11.45 3.55 11.4 3.9 11.45 3.9 11.6 3.65 11.65 2.4 11.7 2.45 11.8 2.6 11.85 2.7 11.9 2.9 11.7 4.15 11.75 4.15 11.7 4.7 11.65 5.85 11.5 5.2 11.5 4.8 11.55 4.65 11.5 4.6 11.55 4.2 11.4 4.15 11.45 4.0 11.4 3.95 11.3 4.0 11.4 4.3 11.3 4.45 11.25 4.2 11.4 4.3 11.25 4.1 10.75 1.85 10.35 2.4 11.65 5.85 11.6 6.0 11.6 6.25 11.55 6.3 11.55 6.4 11.45 6.45 11.5 6.55 11.35 6.65 10.85 8.05 10.9 8.1 10.9 8.2 10.95 8.3 10.9 8.5 10.9 8.55 10.95 8.6 10.9 9.0 10.85 9.2 10.85 9.3 10.8 9.35 10.8 9.5 10.65 9.6 10.7 9.7 10.5 9.8 10.2 9.8 10.15 9.9 9.95 10.65 9.55 11.75 9.55 10.45 9.4 9.95 9.4 9.85 9.2 9.45 9.1 9.35 8.95 9.35 8.8 9.4 8.75 9.2 8.85 8.95 9.0 7.85 9.5 7.85 11.65 5.85 8.5 7.75 8.5 8.7 8.45 8.8 8.5 9.25 8.4 9.35 8.45 9.5 8.3 9.65 8.15 9.75 8.2 9.9 8.05 10.0 7.9 10.05 7.85 9.9 7.8 10.1 7.95 10.15 8.05 10.15 8.05 10.5 8.1 10.8 8.0 10.9 8.1 11.2 8.0 11.3 8.05 11.35 8.15 11.3 8.2 11.3 8.4 11.15 8.55 10.95 8.85 10.25 8.85 9.95 8.8 9.65 8.9 9.5 9.2 9.65 9.25 9.75 9.2 9.9 9.3 10.05 9.15 10.45 9.2 10.55 9.05 11.0 8.95 10.85 8.95 11.0 8.65 11.65 8.3 11.7 8.0 11.7 7.6 11.65 7.7 11.5 7.4 11.6 7.45 11.5 7.35 11.5 7.25 11.2 7.15 11.2 7.05 10.85 6.95 10.8 6.8 10.3 6.75 10.05 6.65 10.0 6.55 9.25 6.5 9.2 6.45 9.0 6.45 8.45 6.35 8.4 6.3 7.0 6.3 6.85 6.45 6.65 6.6 6.6 6.7 8.95 6.8 8.95 6.85 9.35 7.05 9.35 7.1 9.75 7.3 9.7 7.25 9.35 7.35 9.3 7.3 9.15 7.25 8.75 7.35 8.75 7.4 9.15 7.75 9.15 8.0 9.05 8.0 8.25 8.1 8.25 8.35 4.0 8.25 3.95 8.55 2.2 8.6 2.3 8.75 2.85 8.8 3.5 8.8 3.6 8.5 7.45 8.5 7.7 8.65 7.55 9.0 6.65 9.0 6.45 9.05 5.95 9.5 4.75 9.65 0.2 9.9 0.9 10.0 1.45 10.25 -0.3 10.65 1.35 10.75 1.65 10.75 0.7 10.9 0.4 10.85 2.05 11.2 3.6 11.25 3.55 11.4 0.5 M7.6 2.0 L7.7 1.85 7.9 1.7 7.8 2.3 7.9 2.3 7.75 3.05 7.65 3.05 7.5 3.85 7.4 3.85 7.15 6.7 6.95 6.6 7.25 3.5 7.3 3.45 7.6 2.0 M10.35 9.4 L10.3 9.55 10.4 9.55 10.35 9.4 10.6 9.35 10.65 9.35 10.7 8.45 10.35 9.4 M7.65 9.95 L7.7 10.05 7.8 10.1 7.75 9.95 7.65 9.95" fill="#7f6600" fill-rule="evenodd" stroke="none"/>
    <path d="M10.9 0.4 L10.95 0.35 11.05 0.3 11.2 0.3 11.35 0.4 11.4 0.5 11.25 3.55 11.2 3.6 10.85 2.05 10.9 0.4 M6.6 6.6 L6.6 6.55 6.75 6.55 6.85 6.6 6.95 6.6 7.15 6.7 7.4 3.85 7.5 3.85 7.65 3.05 7.75 3.05 7.9 2.3 7.8 2.3 7.9 1.7 8.05 1.65 8.25 1.7 8.35 1.85 8.45 1.95 8.55 2.2 8.25 3.95 8.35 4.0 8.1 8.25 8.0 8.25 8.0 9.05 7.75 9.15 7.4 9.15 7.35 8.75 7.25 8.75 7.3 9.15 7.35 9.3 7.25 9.35 7.3 9.7 7.1 9.75 7.05 9.35 6.85 9.35 6.8 8.95 6.7 8.95 6.6 6.6 M11.4 4.3 L11.3 4.0 11.4 3.95 11.45 4.0 11.4 4.15 11.55 4.2 11.5 4.6 11.55 4.65 11.5 4.8 11.5 5.2 11.35 4.5 11.4 4.3 M10.35 9.4 L10.7 8.45 10.65 9.35 10.6 9.35 10.35 9.4 10.4 9.55 10.3 9.55 10.35 9.4" fill="#ffcc00" fill-rule="evenodd" stroke="none"/>
  </g>
</svg>
