<?xml version="1.0" encoding="UTF-8" standalone="no"?>
<svg xmlns:ffdec="https://www.free-decompiler.com/flash" xmlns:xlink="http://www.w3.org/1999/xlink" ffdec:objectType="shape" height="12.75px" width="9.1px" xmlns="http://www.w3.org/2000/svg">
  <g transform="matrix(1.0, 0.0, 0.0, 1.0, -4.05, 0.3)">
    <path d="M4.4 6.3 L4.6 6.4 4.65 6.4 4.7 6.45 4.8 6.55 5.0 6.75 5.15 4.9 5.35 3.95 5.6 3.3 5.65 3.3 6.25 1.6 6.4 1.7 6.5 1.75 6.7 2.35 6.8 2.9 6.25 4.75 6.35 4.8 6.2 5.2 6.3 5.2 6.25 5.75 6.05 6.3 5.95 7.65 6.0 8.35 5.85 8.4 5.9 8.7 5.8 8.75 5.85 9.05 5.4 9.2 5.3 8.85 5.2 8.85 5.15 8.5 5.1 8.85 5.05 8.45 5.05 8.0 4.95 8.0 4.95 7.45 4.9 8.35 4.95 8.75 5.1 9.15 5.15 9.35 4.9 9.35 4.85 9.0 4.7 9.0 4.65 8.6 4.55 8.6 4.4 6.3 M8.55 0.2 L9.4 2.25 9.6 2.7 10.85 5.95 10.15 7.55 9.95 8.1 9.85 8.35 9.15 9.8 8.35 11.65 8.4 10.25 8.3 10.0 8.3 9.9 8.4 7.8 10.85 5.95 8.3 4.7 8.55 0.2 M12.05 0.35 L12.1 0.3 12.3 0.3 12.45 0.5 12.5 0.65 12.55 0.75 12.35 2.7 12.3 2.85 12.3 3.85 12.25 3.9 12.3 4.1 12.4 4.05 12.5 4.1 12.55 4.1 12.5 4.3 12.55 4.3 12.5 4.5 12.55 4.55 12.35 5.8 12.35 6.15 12.3 6.2 12.25 6.35 12.15 6.4 12.1 6.35 11.95 6.15 11.85 6.05 11.85 6.0 11.8 6.0 11.95 4.85 12.0 4.65 12.05 4.65 12.1 4.35 12.15 4.2 12.25 4.25 12.3 4.1 12.15 4.15 12.0 4.25 11.95 4.35 11.95 4.15 11.9 4.1 11.95 3.7 11.85 3.5 11.85 3.4 11.8 3.4 11.8 2.55 12.05 0.35 M10.95 7.35 L11.0 7.2 11.05 7.2 11.1 7.0 11.15 7.0 11.2 6.8 11.3 6.8 11.4 6.65 11.5 6.65 11.4 6.85 11.45 6.9 11.4 7.1 11.45 7.1 11.4 7.3 11.45 7.35 11.4 7.45 11.35 7.45 11.2 7.35 10.95 7.35 M11.85 4.4 L10.9 5.65 10.9 4.5 11.85 4.4 M10.65 8.3 L10.8 8.4 10.65 8.75 10.75 8.75 10.65 9.1 10.65 9.25 10.55 9.25 10.55 9.4 10.4 9.4 10.35 9.55 10.2 9.6 10.2 9.4 10.0 9.4 10.0 8.8 10.05 8.6 10.1 8.6 10.2 8.35 10.25 8.35 10.3 8.15 10.45 8.2 10.5 8.0 10.7 8.15 10.65 8.3" fill="#ffcc00" fill-rule="evenodd" stroke="none"/>
    <path d="M12.7 1.3 L12.8 1.75 12.8 2.45 12.85 3.1 12.6 3.85 12.55 3.9 12.5 3.05 12.7 1.3 M13.15 3.3 L12.9 5.65 12.85 5.9 12.5 6.65 12.4 6.8 12.35 6.8 12.35 6.9 11.95 7.95 12.05 8.05 12.1 8.15 11.6 9.15 10.9 9.9 10.65 10.0 10.35 10.0 10.15 9.9 10.0 9.75 9.65 10.5 9.25 11.0 8.65 11.95 8.15 12.25 8.05 12.3 7.2 12.45 6.55 12.3 6.2 12.05 5.8 11.6 5.65 11.55 5.3 11.15 4.8 10.35 4.2 8.55 4.05 6.45 4.15 6.35 4.2 6.95 4.15 6.95 4.2 7.7 4.25 7.75 4.4 8.9 4.45 8.95 4.65 9.7 4.7 9.7 5.25 10.95 5.2 10.6 5.3 10.85 5.5 11.15 5.55 11.15 5.6 11.2 5.65 11.15 5.75 11.15 5.9 11.1 5.65 11.35 5.8 11.4 6.1 11.4 6.25 11.6 6.2 11.6 6.45 11.95 6.55 11.9 6.65 12.05 6.75 12.05 6.9 12.2 7.15 11.95 7.3 12.05 7.55 11.7 7.5 11.5 7.4 11.4 7.6 11.35 8.15 10.65 8.25 10.55 8.25 10.4 8.4 10.25 8.35 11.65 9.15 9.8 9.2 9.95 9.4 9.45 9.65 9.1 9.6 8.95 9.85 8.75 9.8 8.65 9.9 8.55 9.85 8.45 9.85 8.35 9.95 8.1 10.0 8.2 10.1 8.05 10.15 7.95 10.35 7.7 10.5 7.55 10.65 7.5 10.15 7.55 10.85 5.95 10.9 6.8 11.0 6.6 11.1 6.55 11.15 6.45 11.0 6.8 10.95 6.85 10.9 7.05 10.9 7.35 10.95 7.35 11.2 7.35 11.35 7.45 11.4 7.45 11.6 7.65 11.7 7.3 11.9 6.85 11.85 6.8 12.0 6.55 11.95 6.45 12.0 6.35 11.8 6.1 11.7 6.05 11.6 6.05 11.55 6.15 11.5 6.15 11.55 5.95 11.6 5.9 11.8 4.85 11.85 4.5 11.85 4.4 10.95 3.7 10.95 3.15 11.85 4.4 11.95 4.35 12.0 4.25 11.95 4.5 11.95 4.45 11.9 4.5 11.7 5.65 11.7 5.95 11.8 5.95 11.8 6.0 11.85 6.05 11.95 6.15 12.1 6.35 12.15 6.4 12.25 6.7 12.35 6.7 12.5 6.55 12.5 6.45 12.55 6.4 12.5 6.3 12.55 6.25 12.6 5.3 12.85 4.4 12.8 4.35 12.9 3.95 12.95 3.9 13.15 3.3 M4.7 6.45 L4.7 6.25 4.95 4.35 5.75 2.05 5.9 1.8 5.75 2.25 5.8 2.25 5.55 2.95 5.45 2.95 5.0 4.7 4.8 6.55 4.9 6.6 5.0 6.75 4.8 6.55 4.7 6.45 M6.8 3.15 L7.35 5.9 7.35 5.95 7.15 6.4 7.1 5.55 6.8 4.35 6.8 3.15 M7.75 5.35 L8.55 0.2 8.3 4.7 7.75 5.35 M9.4 2.25 L10.0 2.3 11.0 -0.3 10.3 2.35 10.35 2.4 9.85 2.9 9.6 2.7 9.4 2.25 M11.6 2.9 L11.9 0.55 11.65 3.2 11.6 2.9 M11.85 3.5 L11.95 3.7 11.9 4.1 11.85 4.4 11.65 3.2 11.75 3.35 11.8 3.4 11.85 3.5 M10.3 8.0 L10.2 8.05 10.15 8.2 10.05 8.25 10.0 8.45 9.95 9.45 10.0 9.5 10.0 9.65 10.1 9.7 10.15 9.8 10.3 9.85 10.45 9.8 10.5 9.9 10.75 9.7 10.7 9.65 10.75 9.6 10.8 9.5 10.8 9.4 10.85 9.35 10.85 9.25 10.9 9.15 10.9 9.1 11.0 8.65 11.0 8.5 11.05 8.45 11.0 8.3 11.2 8.1 11.15 8.0 11.25 7.95 11.15 7.75 10.95 7.55 10.8 7.65 10.7 7.65 10.65 7.75 10.5 7.75 10.4 7.85 10.35 7.85 10.3 7.9 10.3 8.0 M5.95 7.65 L10.85 5.95 8.4 7.8 8.3 9.9 8.2 9.45 8.05 9.35 7.9 9.45 7.75 9.35 7.6 9.5 7.5 9.5 7.5 9.8 7.45 10.0 7.3 10.2 7.1 10.4 7.25 10.05 7.25 9.85 7.3 9.75 7.1 9.05 6.95 8.85 6.85 9.1 6.55 9.5 6.25 9.8 5.95 9.85 5.8 9.85 5.65 9.8 5.6 9.8 5.8 9.75 5.9 9.7 6.05 9.75 6.2 9.7 6.3 9.55 6.4 9.45 6.5 9.45 6.55 9.25 6.65 9.05 6.7 8.8 6.8 8.65 6.95 8.3 7.05 7.7 7.1 7.6 6.4 7.55 6.05 7.65 5.95 7.65 M7.45 9.4 L7.5 9.4 7.55 9.3 8.0 9.2 7.95 8.1 7.9 7.75 7.2 7.7 7.15 8.3 7.4 9.1 7.45 9.4 M5.4 9.6 L5.2 9.4 5.3 9.4 5.4 9.6 5.5 9.6 5.6 9.8 5.4 9.6" fill="#000000" fill-rule="evenodd" stroke="none"/>
    <path d="M12.55 0.75 L12.6 0.8 12.7 1.3 12.5 3.05 12.55 3.9 12.6 3.85 12.85 3.1 12.8 2.45 12.9 2.45 13.0 2.55 13.1 2.7 13.15 3.05 13.15 3.3 12.95 3.9 12.9 3.95 12.8 4.35 12.85 4.4 12.6 5.3 12.55 6.25 12.5 6.3 12.55 6.4 12.5 6.45 12.5 6.55 12.35 6.7 12.25 6.7 12.15 6.4 12.25 6.35 12.3 6.2 12.35 6.15 12.35 5.8 12.55 4.55 12.5 4.5 12.55 4.3 12.5 4.3 12.55 4.1 12.5 4.1 12.4 4.05 12.3 4.1 12.25 3.9 12.3 3.85 12.3 2.85 12.35 2.7 12.55 0.75 M4.15 6.35 L4.15 6.3 4.25 6.25 4.4 6.3 4.55 8.6 4.65 8.6 4.7 9.0 4.85 9.0 4.9 9.35 5.15 9.35 5.1 9.15 4.95 8.75 4.9 8.35 4.95 7.45 4.95 8.0 5.05 8.0 5.05 8.45 5.1 8.85 5.15 8.5 5.2 8.85 5.3 8.85 5.4 9.2 5.85 9.05 5.8 8.75 5.9 8.7 5.85 8.4 6.0 8.35 5.95 7.65 6.05 6.3 6.25 5.75 6.3 5.2 6.2 5.2 6.35 4.8 6.25 4.75 6.8 2.9 6.8 3.15 6.8 4.35 7.1 5.55 7.15 6.4 7.35 5.95 7.35 5.9 7.75 5.35 8.3 4.7 10.85 5.95 9.6 2.7 9.85 2.9 10.35 2.4 10.3 2.35 11.0 -0.3 11.6 2.9 11.65 3.2 11.9 0.55 12.05 0.35 11.8 2.55 11.8 3.4 11.85 3.4 11.85 3.5 11.8 3.4 11.75 3.35 11.65 3.2 11.85 4.4 11.9 4.1 11.95 4.15 11.95 4.35 11.85 4.4 10.95 3.15 10.95 3.7 11.85 4.4 11.85 4.5 11.8 4.85 11.55 5.95 11.5 6.15 11.55 6.15 11.6 6.05 11.7 6.05 11.8 6.1 12.0 6.35 11.95 6.45 12.0 6.55 11.85 6.8 11.9 6.85 11.7 7.3 11.6 7.65 11.4 7.45 11.45 7.35 11.4 7.3 11.45 7.1 11.4 7.1 11.45 6.9 11.4 6.85 11.5 6.65 11.4 6.65 11.3 6.8 11.2 6.8 11.15 7.0 11.1 7.0 11.05 7.2 11.0 7.2 10.95 7.35 10.9 7.35 10.9 7.05 10.95 6.85 11.0 6.8 11.15 6.45 11.1 6.55 11.0 6.6 10.9 6.8 10.85 5.95 5.95 7.65 6.05 7.65 6.4 7.55 7.1 7.6 7.05 7.7 6.95 8.3 6.8 8.65 6.7 8.8 6.65 9.05 6.55 9.25 6.5 9.45 6.4 9.45 6.3 9.55 6.2 9.7 6.05 9.75 5.9 9.7 5.8 9.75 5.6 9.8 5.65 9.8 5.8 9.85 5.95 9.85 6.25 9.8 6.55 9.5 6.85 9.1 6.95 8.85 7.1 9.05 7.3 9.75 7.25 9.85 7.25 10.05 7.1 10.4 7.3 10.2 7.45 10.0 7.5 9.8 7.5 9.5 7.6 9.5 7.75 9.35 7.9 9.45 8.05 9.35 8.2 9.45 8.3 9.9 8.3 10.0 8.4 10.25 8.25 10.4 8.25 10.55 8.15 10.65 7.6 11.35 7.4 11.4 7.5 11.5 7.55 11.7 7.3 12.05 7.15 11.95 6.9 12.2 6.75 12.05 6.65 12.05 6.55 11.9 6.45 11.95 6.2 11.6 6.25 11.6 6.1 11.4 5.8 11.4 5.65 11.35 5.9 11.1 5.75 11.15 5.65 11.15 5.6 11.2 5.55 11.15 5.5 11.15 5.3 10.85 5.2 10.6 5.25 10.95 4.7 9.7 4.65 9.7 4.45 8.95 4.4 8.9 4.25 7.75 4.2 7.7 4.15 6.95 4.2 6.95 4.15 6.35 M5.9 1.8 L6.1 1.6 6.2 1.55 6.25 1.6 5.65 3.3 5.6 3.3 5.35 3.95 5.15 4.9 5.0 6.75 4.9 6.6 4.8 6.55 5.0 4.7 5.45 2.95 5.55 2.95 5.8 2.25 5.75 2.25 5.9 1.8 M12.0 4.25 L12.15 4.15 12.3 4.1 12.25 4.25 12.15 4.2 12.1 4.35 12.05 4.65 12.0 4.65 11.95 4.85 11.8 6.0 11.85 6.0 11.85 6.05 11.8 6.0 11.8 5.95 11.7 5.95 11.7 5.65 11.9 4.5 11.95 4.45 11.95 4.5 12.0 4.25 M11.85 4.4 L10.9 4.5 10.9 5.65 11.85 4.4 M9.85 8.35 L9.85 8.45 9.9 8.55 9.8 8.65 9.85 8.75 9.6 8.95 9.65 9.1 9.4 9.45 9.2 9.95 9.15 9.8 9.85 8.35 M10.3 8.0 L10.3 7.9 10.35 7.85 10.4 7.85 10.5 7.75 10.65 7.75 10.7 7.65 10.8 7.65 10.95 7.55 11.15 7.75 11.25 7.95 11.15 8.0 11.2 8.1 11.0 8.3 11.05 8.45 11.0 8.5 11.0 8.65 10.9 9.1 10.9 9.15 10.85 9.25 10.85 9.35 10.8 9.4 10.8 9.5 10.75 9.6 10.7 9.65 10.75 9.7 10.5 9.9 10.45 9.8 10.3 9.85 10.15 9.8 10.1 9.7 10.0 9.65 10.0 9.5 9.95 9.45 10.0 8.45 10.05 8.25 10.15 8.2 10.2 8.05 10.3 8.0 M10.65 8.3 L10.7 8.15 10.5 8.0 10.45 8.2 10.3 8.15 10.25 8.35 10.2 8.35 10.1 8.6 10.05 8.6 10.0 8.8 10.0 9.4 10.2 9.4 10.2 9.6 10.35 9.55 10.4 9.4 10.55 9.4 10.55 9.25 10.65 9.25 10.65 9.1 10.75 8.75 10.65 8.75 10.8 8.4 10.65 8.3 M5.4 9.6 L5.3 9.4 5.2 9.4 5.4 9.6 5.6 9.8 5.5 9.6 5.4 9.6" fill="#7f6600" fill-rule="evenodd" stroke="none"/>
  </g>
</svg>
