<?xml version="1.0" encoding="UTF-8" standalone="no"?>
<svg xmlns:ffdec="https://www.free-decompiler.com/flash" xmlns:xlink="http://www.w3.org/1999/xlink" ffdec:objectType="shape" height="12.35px" width="12.05px" xmlns="http://www.w3.org/2000/svg">
  <g transform="matrix(1.0, 0.0, 0.0, 1.0, -2.3, 0.25)">
    <path d="M12.8 3.7 L12.8 3.5 12.75 3.5 12.75 3.35 13.15 0.35 13.2 0.3 13.3 0.3 13.4 0.45 13.55 0.6 13.6 0.85 13.7 1.05 13.35 3.25 13.3 3.25 13.35 4.2 13.55 4.05 13.65 4.1 13.55 4.3 13.65 4.3 13.55 4.5 13.6 4.55 13.4 5.1 13.35 5.35 13.4 5.4 13.25 5.6 13.35 5.6 13.25 6.0 13.2 6.0 13.2 6.3 13.15 6.35 13.15 6.5 13.1 6.5 13.1 6.65 12.95 6.7 12.95 6.65 12.9 6.5 12.7 6.2 12.7 6.15 12.65 6.15 12.75 5.4 12.9 4.85 12.95 4.75 13.0 4.8 13.1 4.35 13.2 4.35 13.25 4.2 13.2 4.25 13.2 4.2 13.15 4.25 13.0 4.35 12.95 4.4 12.9 4.25 12.85 4.2 12.8 3.95 12.8 3.85 12.85 3.8 12.8 3.7 M12.1 2.85 L12.3 4.5 11.0 2.7 11.2 1.9 10.8 2.1 11.3 0.95 11.75 -0.25 12.1 2.85 M10.2 5.45 L10.45 4.6 12.3 4.5 10.55 6.25 10.2 5.45 M11.45 7.45 L11.6 7.15 11.6 7.1 11.65 7.1 11.8 6.9 11.85 6.9 11.95 6.75 12.05 6.8 12.2 6.6 12.25 6.65 12.05 6.85 12.35 6.65 12.2 6.85 12.25 6.9 12.1 7.1 12.15 7.15 12.0 7.45 11.95 7.6 11.9 7.65 11.7 7.5 11.45 7.45 M14.05 3.1 L14.25 2.7 14.05 3.15 14.3 2.75 13.95 3.45 13.9 3.4 13.95 3.3 14.0 3.25 14.05 3.2 14.05 3.1 M13.35 4.2 L13.3 4.15 13.25 4.2 13.35 4.2 M10.05 6.0 L9.2 7.75 9.05 8.05 8.95 8.2 8.7 8.7 8.75 8.75 8.9 8.6 8.95 8.65 8.8 8.8 8.9 8.95 8.75 9.1 8.85 9.2 8.55 9.6 8.45 9.5 8.35 9.35 8.25 9.5 7.25 11.45 7.35 10.2 7.25 9.8 7.25 9.3 7.35 7.6 10.05 6.0 8.7 5.25 7.3 6.6 3.95 7.3 4.05 7.3 4.4 7.25 4.4 7.8 4.3 7.85 4.3 8.1 4.4 8.3 4.25 8.4 4.35 8.6 3.9 8.9 3.75 8.65 3.55 8.7 3.45 8.4 3.35 8.4 3.25 8.05 3.2 8.05 3.15 7.45 3.25 5.95 3.2 5.95 3.55 4.0 3.6 3.9 3.7 3.9 3.9 3.35 4.8 1.5 4.85 1.55 5.0 1.85 5.05 2.25 5.1 2.65 5.1 3.05 5.05 3.7 4.7 4.8 4.45 6.35 4.4 7.1 4.5 7.1 5.55 6.2 5.7 6.0 5.85 5.7 5.95 5.6 7.25 4.6 7.6 0.2 10.05 6.0 M10.7 8.25 L10.85 8.35 10.75 8.5 10.8 8.55 10.65 8.95 10.6 9.15 10.55 9.25 10.55 9.35 10.4 9.4 10.4 9.5 10.1 9.6 10.1 9.45 10.0 9.45 10.0 9.25 9.95 9.25 10.0 9.05 9.9 9.05 10.0 8.8 10.05 8.6 10.15 8.4 10.2 8.4 10.3 8.2 10.4 8.25 10.5 8.1 10.6 8.15 10.7 8.25 M3.1 6.4 L3.15 6.5 3.05 6.7 3.0 7.05 3.0 7.95 3.0 8.05 3.1 8.45 3.15 8.65 3.2 8.65 3.3 8.85 3.15 8.85 3.05 8.5 2.95 8.5 2.85 8.15 2.8 7.75 2.7 7.75 2.7 7.55 2.6 6.15 2.55 5.95 2.65 6.0 3.1 6.4 M5.85 10.65 L5.25 11.05 5.05 11.0 5.85 10.65 5.8 10.55 Q5.45 10.8 5.05 11.0 L4.6 10.95 4.45 10.95 6.55 9.6 6.6 9.65 6.65 9.65 6.75 9.85 6.5 10.05 6.55 10.15 5.85 10.65 M4.05 9.4 L3.9 9.5 3.7 9.55 3.55 9.2 3.45 9.2 3.3 8.85 3.4 8.95 3.45 9.0 3.5 9.1 3.6 9.15 3.8 9.35 4.05 9.4" fill="#ffcc00" fill-rule="evenodd" stroke="none"/>
    <path d="M13.05 0.45 L12.65 2.9 12.65 3.4 12.8 3.7 12.85 3.8 12.8 3.85 12.7 4.0 12.7 4.05 12.75 4.35 12.8 4.4 12.85 4.55 12.9 4.45 12.95 4.4 13.0 4.35 12.8 4.8 12.55 6.0 12.55 6.1 12.45 6.15 12.35 6.15 12.25 6.25 12.1 6.25 12.15 6.2 12.3 6.05 12.45 6.0 12.8 4.7 12.7 4.45 12.65 4.1 12.65 4.05 12.3 4.5 12.1 2.85 12.6 3.05 12.65 2.5 12.95 0.8 13.05 0.45 M13.7 1.05 L13.95 2.0 14.0 2.6 14.0 2.7 14.05 3.1 14.05 3.2 14.0 3.25 13.95 3.3 13.9 3.4 13.65 3.95 13.65 3.85 13.6 3.2 13.65 3.1 13.6 3.15 13.8 1.9 13.8 1.65 13.7 1.1 13.7 1.05 M14.3 3.8 L13.85 6.05 13.75 6.35 13.55 6.7 13.3 6.95 13.05 7.45 12.65 8.1 12.75 8.15 12.7 8.3 12.3 8.9 12.35 8.85 12.25 9.0 11.9 9.35 11.3 9.8 10.95 10.0 10.7 10.05 10.4 10.05 10.2 10.0 10.0 9.85 10.0 9.75 9.9 9.95 9.25 10.65 8.4 11.25 8.0 11.65 7.75 11.8 7.25 12.0 7.15 12.0 6.5 12.1 5.85 12.05 5.55 11.95 5.25 11.9 4.65 11.5 4.5 11.25 3.95 10.85 4.1 10.9 4.4 10.95 4.4 11.0 4.6 11.15 4.55 11.15 4.9 11.5 4.95 11.45 5.3 11.8 5.45 11.75 5.6 11.85 5.7 11.85 5.9 11.9 6.0 11.85 6.25 11.9 6.3 11.8 6.6 11.85 6.85 11.85 6.95 11.75 7.45 11.75 7.5 11.65 7.8 11.55 7.9 11.5 7.95 11.45 8.1 11.35 8.2 11.25 8.2 11.15 8.5 10.85 8.55 10.7 8.55 10.5 8.5 10.35 8.55 10.25 8.5 10.05 8.5 9.95 8.45 9.75 8.45 9.65 8.3 9.6 8.3 9.5 8.25 9.5 8.35 9.35 8.45 9.5 8.55 9.6 8.55 9.7 8.6 9.75 8.75 10.5 8.7 10.7 8.6 10.85 8.9 10.65 8.95 10.55 9.7 9.95 9.9 9.7 9.9 9.6 9.8 9.5 9.8 9.3 9.85 9.5 10.0 9.6 10.0 9.7 10.05 9.75 10.0 9.75 10.1 9.8 10.25 9.85 10.3 9.95 10.45 9.9 10.5 9.9 10.65 9.95 10.8 9.75 10.9 9.8 11.05 9.5 11.1 9.55 11.2 9.4 11.3 9.35 11.45 9.3 11.7 9.15 11.9 8.45 11.85 8.3 11.85 7.9 11.75 7.9 11.65 7.65 11.55 7.7 11.45 7.55 11.3 7.6 11.25 7.55 11.1 7.65 11.05 7.6 10.9 7.7 10.85 7.7 10.65 7.8 10.65 7.75 10.45 7.9 10.4 7.9 10.3 8.05 10.25 8.05 10.15 8.2 10.05 8.25 10.0 8.5 9.8 9.05 9.85 8.8 10.0 8.35 10.0 8.3 9.95 8.3 9.95 8.2 9.85 8.1 9.75 8.1 9.65 8.0 9.5 8.05 9.45 8.0 9.25 8.1 9.2 8.05 8.95 8.2 9.05 8.05 9.65 7.9 9.85 8.0 10.0 8.1 10.05 8.2 10.1 8.05 10.1 8.15 10.2 7.95 10.6 7.65 11.1 7.45 11.2 7.45 11.45 7.0 11.65 6.7 11.9 6.5 11.5 7.05 11.3 7.45 11.45 7.45 11.7 7.5 11.9 7.65 12.1 7.8 12.15 7.85 12.2 7.85 12.35 7.5 12.75 6.95 12.9 6.85 12.9 6.75 12.95 6.7 13.0 6.7 13.0 6.75 13.1 6.95 13.2 6.95 13.35 6.8 13.5 6.55 13.5 6.45 13.55 6.35 13.5 6.2 13.5 6.05 13.65 5.2 14.05 4.35 14.0 4.3 14.3 3.8 M11.3 0.95 L10.8 2.1 10.75 2.15 11.3 0.95 M12.3 4.5 L10.8 6.15 10.6 6.35 11.05 7.45 9.3 7.65 9.2 7.75 10.05 6.0 10.2 5.45 10.55 6.25 12.3 4.5 M5.05 2.25 L5.9 5.3 5.95 5.6 5.85 5.7 5.8 5.3 5.1 3.05 5.1 2.65 5.05 2.25 M7.6 0.2 L8.65 2.15 9.15 3.1 10.05 6.0 7.6 0.2 M7.3 6.6 L10.05 6.0 7.35 7.6 7.25 9.3 7.25 9.15 7.2 9.15 7.2 9.1 7.15 9.15 7.1 9.1 6.85 9.15 6.8 9.15 6.55 9.25 6.45 9.25 6.45 9.3 6.4 9.4 6.4 9.45 6.3 9.65 6.25 9.45 6.3 9.35 6.15 8.9 6.05 8.7 6.1 8.6 5.7 7.95 5.7 7.85 5.4 8.6 4.85 9.2 4.7 9.3 4.7 9.35 4.15 9.45 4.15 9.4 4.35 9.3 4.45 9.35 4.65 9.15 4.7 9.15 4.75 9.05 4.9 9.0 4.9 8.95 5.45 8.35 5.45 8.1 5.65 7.4 5.7 7.45 5.8 7.45 5.8 7.5 5.75 7.7 6.1 8.25 6.4 9.2 6.45 9.2 6.8 9.05 7.2 9.0 7.25 7.6 5.85 7.45 7.3 6.6 M4.6 1.5 L3.65 3.3 3.45 3.85 3.0 6.25 3.1 6.35 3.1 6.4 2.65 6.0 2.95 6.15 3.05 5.15 3.4 3.75 3.75 2.95 4.0 2.55 4.45 1.6 4.55 1.5 4.6 1.5 M3.0 7.95 L3.05 8.0 3.1 8.45 3.2 8.65 3.3 8.7 3.4 8.95 3.5 8.95 3.65 9.15 3.75 9.15 3.9 9.3 4.0 9.3 4.1 9.35 4.15 9.4 4.05 9.4 3.8 9.35 3.6 9.15 3.5 9.1 3.45 9.0 3.4 8.95 3.3 8.85 3.2 8.65 3.15 8.65 3.1 8.45 3.0 8.05 3.0 7.95 M2.35 5.9 L2.55 7.6 2.5 7.6 2.6 8.05 2.6 8.1 2.85 8.85 2.9 8.85 3.45 10.0 3.55 10.0 3.75 10.35 4.0 10.65 4.25 10.65 3.95 10.85 3.85 10.75 3.95 10.75 3.7 10.45 3.15 9.65 2.75 8.85 2.45 7.6 2.3 6.05 2.3 5.95 2.35 5.9" fill="#000000" fill-rule="evenodd" stroke="none"/>
    <path d="M13.05 0.45 L13.1 0.4 13.1 0.35 13.15 0.35 12.75 3.35 12.75 3.5 12.8 3.5 12.8 3.7 12.65 3.4 12.65 2.9 13.05 0.45 M14.0 2.6 L14.1 2.55 14.2 2.55 14.25 2.7 14.3 2.75 14.35 3.1 14.35 3.45 14.3 3.8 14.0 4.3 14.05 4.35 13.65 5.2 13.5 6.05 13.5 6.2 13.55 6.35 13.5 6.45 13.5 6.55 13.35 6.8 13.2 6.95 13.1 6.95 13.0 6.75 13.0 6.7 12.95 6.7 13.1 6.65 13.1 6.5 13.15 6.5 13.15 6.35 13.2 6.3 13.2 6.0 13.25 6.0 13.35 5.6 13.25 5.6 13.4 5.4 13.35 5.35 13.4 5.1 13.6 4.55 13.55 4.5 13.65 4.3 13.55 4.3 13.65 4.1 13.55 4.05 13.35 4.2 13.3 3.25 13.35 3.25 13.7 1.05 13.7 1.1 13.8 1.65 13.8 1.9 13.6 3.15 13.65 3.1 13.6 3.2 13.65 3.85 13.65 3.95 13.9 3.4 13.95 3.45 14.3 2.75 14.05 3.15 14.25 2.7 14.05 3.1 14.0 2.7 14.0 2.6 M12.15 6.2 L12.1 6.25 12.25 6.25 12.35 6.15 12.45 6.15 12.55 6.1 12.55 6.0 12.8 4.8 13.0 4.35 13.15 4.25 13.2 4.2 13.2 4.25 13.25 4.2 13.2 4.35 13.1 4.35 13.0 4.8 12.95 4.75 12.9 4.85 12.75 5.4 12.65 6.15 12.7 6.15 12.7 6.2 12.9 6.5 12.95 6.65 12.95 6.7 12.9 6.75 12.9 6.85 12.75 6.95 12.35 7.5 12.2 7.85 12.15 7.85 12.1 7.8 11.9 7.65 11.95 7.6 12.0 7.45 12.15 7.15 12.1 7.1 12.25 6.9 12.2 6.85 12.35 6.65 12.05 6.85 12.25 6.65 12.2 6.6 12.05 6.8 11.95 6.75 11.85 6.9 11.8 6.9 11.65 7.1 11.6 7.1 11.6 7.15 11.45 7.45 11.3 7.45 11.5 7.05 11.9 6.5 11.65 6.7 11.45 7.0 10.8 6.15 12.3 4.5 12.15 6.2 M12.95 4.4 L12.9 4.45 12.85 4.55 12.8 4.4 12.75 4.35 12.7 4.05 12.7 4.0 12.8 3.85 12.8 3.95 12.85 4.2 12.9 4.25 12.95 4.4 M10.8 2.1 L11.2 1.9 11.0 2.7 12.3 4.5 10.45 4.6 10.2 5.45 10.05 6.0 9.15 3.1 8.65 2.15 10.45 2.3 10.75 2.15 10.8 2.1 M13.35 4.2 L13.25 4.2 13.3 4.15 13.35 4.2 M8.95 8.2 L9.2 8.05 9.25 8.1 9.45 8.0 9.5 8.05 9.65 8.0 9.75 8.1 9.85 8.1 9.95 8.2 9.95 8.3 10.0 8.3 10.0 8.35 9.85 8.8 9.8 9.05 10.0 8.5 10.05 8.25 10.15 8.2 10.25 8.05 10.3 8.05 10.4 7.9 10.45 7.9 10.65 7.75 10.65 7.8 10.85 7.7 10.9 7.7 11.05 7.6 11.1 7.65 11.25 7.55 11.3 7.6 11.45 7.55 11.55 7.7 11.65 7.65 11.75 7.9 11.85 7.9 11.85 8.3 11.9 8.45 11.7 9.15 11.45 9.3 11.3 9.35 11.2 9.4 11.1 9.55 11.05 9.5 10.9 9.8 10.8 9.75 10.65 9.95 10.5 9.9 10.45 9.9 10.3 9.95 10.25 9.85 10.1 9.8 10.0 9.75 10.05 9.75 10.0 9.7 10.0 9.6 9.85 9.5 9.8 9.3 9.8 9.5 9.9 9.6 9.9 9.7 9.7 9.95 8.95 10.55 8.9 10.65 8.6 10.85 8.7 10.7 8.75 10.5 8.6 9.75 8.55 9.7 8.55 9.6 8.85 9.2 8.75 9.1 8.9 8.95 8.8 8.8 8.95 8.65 8.9 8.6 8.75 8.75 8.7 8.7 8.95 8.2 M8.25 9.5 L8.3 9.5 8.3 9.6 8.45 9.65 8.45 9.75 8.5 9.95 8.5 10.05 8.55 10.25 8.5 10.35 8.55 10.5 8.55 10.7 8.5 10.85 8.2 11.15 8.2 11.25 8.1 11.35 7.95 11.45 7.9 11.5 7.8 11.55 7.5 11.65 7.45 11.75 6.95 11.75 6.85 11.85 6.6 11.85 6.3 11.8 6.25 11.9 6.0 11.85 5.9 11.9 5.7 11.85 5.6 11.85 5.45 11.75 5.3 11.8 4.95 11.45 4.9 11.5 4.55 11.15 4.6 11.15 4.4 11.0 4.4 10.95 4.1 10.9 3.95 10.85 4.25 10.65 4.0 10.65 3.75 10.35 3.55 10.0 3.45 10.0 2.9 8.85 2.85 8.85 2.6 8.1 2.6 8.05 2.5 7.6 2.55 7.6 2.35 5.9 2.35 5.85 2.45 5.85 2.55 5.95 2.6 6.15 2.7 7.55 2.7 7.75 2.8 7.75 2.85 8.15 2.95 8.5 3.05 8.5 3.15 8.85 3.3 8.85 3.45 9.2 3.55 9.2 3.7 9.55 3.9 9.5 4.05 9.4 4.15 9.4 4.1 9.35 4.0 9.3 3.9 9.3 3.75 9.15 3.65 9.15 3.5 8.95 3.4 8.95 3.3 8.7 3.2 8.65 3.1 8.45 3.05 8.0 3.0 7.95 3.0 7.05 3.05 6.7 3.15 6.5 3.1 6.4 3.1 6.35 3.0 6.25 3.45 3.85 3.65 3.3 4.6 1.5 4.7 1.45 4.8 1.5 3.9 3.35 3.7 3.9 3.6 3.9 3.55 4.0 3.2 5.95 3.25 5.95 3.15 7.45 3.2 8.05 3.25 8.05 3.35 8.4 3.45 8.4 3.55 8.7 3.75 8.65 3.9 8.9 4.35 8.6 4.25 8.4 4.4 8.3 4.3 8.1 4.3 7.85 4.4 7.8 4.4 7.25 4.05 7.3 3.95 7.3 7.3 6.6 8.7 5.25 10.05 6.0 7.3 6.6 5.85 7.45 5.8 7.5 5.8 7.45 5.7 7.45 5.65 7.4 5.45 8.1 5.45 8.35 4.9 8.95 4.9 9.0 4.75 9.05 4.7 9.15 4.65 9.15 4.45 9.35 4.35 9.3 4.15 9.4 4.15 9.45 4.7 9.35 4.7 9.3 4.85 9.2 5.4 8.6 5.7 7.85 5.7 7.95 6.1 8.6 6.05 8.7 6.15 8.9 6.3 9.35 6.25 9.45 6.3 9.65 6.4 9.45 6.4 9.4 6.45 9.3 6.45 9.25 6.55 9.25 6.8 9.15 6.85 9.15 7.1 9.1 7.15 9.15 7.2 9.1 7.2 9.15 7.25 9.15 7.25 9.3 7.25 9.8 7.35 10.2 7.25 11.45 8.25 9.5 M10.7 8.25 L10.6 8.15 10.5 8.1 10.4 8.25 10.3 8.2 10.2 8.4 10.15 8.4 10.05 8.6 10.0 8.8 9.9 9.05 10.0 9.05 9.95 9.25 10.0 9.25 10.0 9.45 10.1 9.45 10.1 9.6 10.4 9.5 10.4 9.4 10.55 9.35 10.55 9.25 10.6 9.15 10.65 8.95 10.8 8.55 10.75 8.5 10.85 8.35 10.7 8.25 M5.85 5.7 L5.7 6.0 5.55 6.2 4.5 7.1 4.4 7.1 4.45 6.35 4.7 4.8 5.05 3.7 5.1 3.05 5.8 5.3 5.85 5.7 M5.85 10.65 L5.05 11.0 5.25 11.05 5.85 10.65 6.55 10.15 6.5 10.05 6.75 9.85 6.65 9.65 6.6 9.65 6.55 9.6 4.45 10.95 4.6 10.95 5.05 11.0 Q5.45 10.8 5.8 10.55 L5.85 10.65" fill="#7f6600" fill-rule="evenodd" stroke="none"/>
  </g>
</svg>
