<?xml version="1.0" encoding="UTF-8" standalone="no"?>
<svg xmlns:ffdec="https://www.free-decompiler.com/flash" xmlns:xlink="http://www.w3.org/1999/xlink" ffdec:objectType="shape" height="11.95px" width="14.4px" xmlns="http://www.w3.org/2000/svg">
  <g transform="matrix(1.0, 0.0, 0.0, 1.0, -1.1, 0.25)">
    <path d="M15.2 2.75 L15.35 2.7 15.45 2.8 15.15 3.2 15.15 2.85 15.2 2.75 M15.5 3.3 L15.5 3.55 15.25 4.75 14.75 6.35 14.5 6.6 14.4 6.75 14.35 6.85 14.3 6.85 14.3 6.95 14.25 6.95 14.1 7.15 14.0 7.1 14.0 7.15 13.95 7.15 13.85 7.2 13.95 7.25 14.0 7.25 14.1 7.2 13.5 7.95 13.25 8.2 13.25 8.3 13.15 8.3 12.65 8.1 12.45 7.9 12.45 7.85 12.75 7.45 12.7 7.4 12.95 7.1 13.0 7.05 12.95 7.0 13.1 6.85 13.05 6.75 12.9 6.65 12.75 6.8 12.7 6.75 12.55 6.9 12.5 6.9 12.35 7.05 12.2 7.25 12.15 7.25 11.95 7.5 11.9 7.6 11.75 7.55 11.9 7.3 12.3 6.85 12.5 6.7 12.55 6.6 12.4 6.7 12.3 6.75 12.05 7.1 11.2 6.2 12.65 4.6 12.7 5.0 12.7 6.4 12.7 6.55 12.85 6.4 12.9 6.4 13.05 6.3 13.1 6.35 13.3 6.25 13.3 6.3 13.35 6.15 13.3 6.2 13.5 5.4 13.8 4.7 13.85 4.55 13.8 4.55 13.75 4.65 13.75 4.6 13.7 4.55 13.6 4.05 13.75 3.9 13.65 3.75 13.6 3.7 13.6 3.6 13.55 3.6 13.55 3.15 14.1 0.5 14.15 0.4 14.25 0.35 13.65 3.2 13.65 3.65 13.7 3.65 13.7 3.7 13.75 3.9 13.8 4.3 13.8 4.15 13.85 4.55 13.95 4.45 14.0 4.45 14.15 4.4 14.25 4.35 14.1 4.55 14.05 4.5 13.95 4.75 13.9 4.7 13.65 5.2 13.45 6.0 13.4 6.35 13.45 6.4 13.45 6.5 13.65 6.75 13.7 6.9 13.85 6.9 14.0 6.8 13.95 6.7 14.0 6.65 14.0 6.4 14.1 6.4 14.2 5.7 14.5 5.0 14.45 4.95 14.6 4.6 14.55 4.55 14.7 4.4 14.95 4.05 14.8 4.15 15.05 3.85 15.1 3.9 15.5 3.3 M1.15 5.45 L1.3 5.5 1.4 5.65 1.6 7.55 1.65 7.55 1.8 8.0 1.85 8.1 1.9 8.25 2.15 8.5 2.15 8.55 2.4 8.95 2.5 8.95 3.0 9.65 2.85 9.25 3.35 9.9 3.45 9.85 3.6 10.0 3.8 9.95 3.9 9.9 3.95 9.95 3.05 10.3 3.1 10.35 4.6 10.6 5.05 10.6 5.65 10.3 5.65 10.15 6.05 9.9 6.4 9.8 6.4 9.65 6.45 9.8 6.35 11.1 7.6 9.2 7.6 9.15 7.85 9.25 7.85 9.35 8.0 9.5 8.1 9.65 8.05 9.7 8.1 9.85 8.1 9.95 8.15 10.2 8.1 10.3 8.1 10.55 7.85 10.9 7.55 11.1 7.5 11.2 7.35 11.3 7.15 11.35 7.05 11.45 6.7 11.5 6.25 11.5 6.2 11.55 6.1 11.55 5.2 11.45 5.15 11.5 4.75 11.4 4.55 11.3 4.5 11.35 4.25 11.2 4.15 11.25 3.3 10.55 2.85 10.25 2.7 10.2 3.05 10.05 3.0 10.0 2.9 10.05 2.15 9.0 2.05 9.0 1.85 8.55 1.75 8.4 1.6 8.1 1.55 7.9 1.5 7.9 1.35 7.3 1.35 6.95 1.2 5.6 1.15 5.45 M3.5 1.35 L3.6 1.35 3.65 1.45 3.6 1.55 2.6 3.2 2.35 3.75 2.0 5.0 1.8 6.6 1.9 6.65 1.9 7.35 1.95 7.5 2.0 7.5 2.2 8.1 2.3 8.1 2.45 8.35 2.55 8.3 2.7 8.5 2.9 8.35 3.05 8.5 3.15 8.4 3.25 8.45 3.35 8.35 3.4 8.35 3.45 8.2 3.5 8.2 3.5 8.05 3.55 8.0 3.7 7.9 3.9 7.7 4.05 7.5 4.15 6.95 2.95 6.8 2.55 6.85 2.4 6.85 9.3 5.95 Q7.9 6.7 6.45 7.4 L4.7 7.15 4.6 7.15 4.55 7.3 4.15 8.1 3.75 8.5 3.55 8.6 3.5 8.7 3.2 8.75 3.0 8.85 2.85 8.8 2.8 8.85 2.6 8.75 2.45 8.6 2.4 8.6 2.2 8.4 2.1 8.35 2.05 8.3 1.85 7.9 1.85 7.85 1.8 7.8 1.7 7.45 1.7 7.05 1.65 7.05 1.65 6.95 1.7 6.0 1.45 5.65 1.65 5.75 1.7 5.85 1.7 5.7 2.15 3.7 3.5 1.35 M8.7 3.05 L9.0 2.9 9.5 2.7 8.5 2.15 10.45 2.3 11.3 1.95 11.4 1.9 11.15 2.4 12.65 4.6 10.65 3.4 10.9 2.9 9.3 5.95 8.7 3.05 M14.75 1.35 L14.75 1.55 14.8 1.65 14.8 1.75 14.95 2.15 15.1 3.45 14.55 4.1 14.3 4.3 14.3 4.1 14.35 3.8 14.35 3.15 14.75 1.35 M7.7 9.05 L7.65 9.05 7.95 8.6 8.1 8.5 8.15 8.45 8.2 8.45 8.6 8.15 8.7 8.2 9.1 8.0 9.2 8.0 9.4 7.95 9.6 7.95 9.65 8.0 9.8 8.0 9.85 8.05 10.0 8.1 10.0 8.25 9.9 8.55 10.1 8.2 10.2 8.2 10.15 8.15 10.45 7.95 10.5 7.95 11.1 7.65 11.15 7.7 11.35 7.65 11.4 7.7 11.6 7.65 11.65 7.7 11.85 7.7 12.0 7.75 12.05 7.8 12.2 7.85 12.2 7.9 12.4 8.0 12.35 8.05 12.8 8.35 13.25 8.55 13.1 8.65 12.85 8.75 12.9 8.8 12.9 8.85 12.1 9.4 12.05 9.5 11.95 9.55 11.45 9.75 11.15 9.8 11.3 9.85 11.05 9.9 10.9 9.9 10.9 9.95 10.75 9.95 10.7 10.0 10.6 9.95 10.45 10.05 10.3 9.95 10.25 9.95 10.15 9.85 10.0 9.85 9.95 9.7 9.95 9.75 9.85 9.55 9.8 9.55 9.8 9.4 9.75 9.35 9.75 9.2 9.7 9.15 9.8 8.85 9.7 9.05 9.7 9.15 9.65 9.45 9.75 9.45 9.75 9.6 9.85 9.75 9.85 9.8 9.5 10.1 8.85 10.5 8.8 10.55 8.1 10.9 7.9 10.95 8.2 10.6 8.25 10.15 8.2 9.85 8.5 9.5 8.4 9.45 8.9 9.0 8.9 8.9 9.1 8.75 9.3 8.65 9.15 8.3 8.9 8.45 8.85 8.35 8.65 8.5 8.6 8.45 8.4 8.6 8.35 8.55 8.1 8.7 8.05 8.65 7.7 9.05 M11.05 8.2 L10.95 8.05 10.75 8.1 10.7 8.05 10.55 8.2 10.45 8.1 10.3 8.25 10.2 8.25 10.05 8.5 9.8 9.25 9.9 9.25 9.9 9.45 10.0 9.45 10.0 9.6 10.15 9.6 10.2 9.55 10.4 9.5 10.4 9.4 10.5 9.35 10.55 9.3 10.6 9.15 10.75 8.85 10.85 8.75 10.8 8.7 10.85 8.6 10.95 8.5 10.9 8.3 11.05 8.2 M4.75 5.35 L4.65 5.45 4.5 5.65 4.3 5.85 4.3 5.75 4.4 5.45 3.7 3.55 3.8 2.35 4.6 4.6 4.55 4.65 4.7 5.1 4.75 5.35 M6.4 8.8 L6.35 9.2 6.3 9.2 6.2 9.05 5.95 9.15 5.9 9.1 5.6 9.2 4.95 9.55 4.4 9.75 4.3 9.85 4.25 9.55 4.8 8.95 4.8 8.6 4.35 8.05 4.45 7.95 4.4 7.9 4.65 7.25 4.65 7.3 4.9 7.55 4.9 7.6 5.35 8.3 5.35 8.4 5.5 9.0 5.55 9.1 5.6 8.95 6.0 8.85 6.05 8.85 6.4 8.8" fill="#7f6600" fill-rule="evenodd" stroke="none"/>
    <path d="M14.25 0.35 L14.3 0.35 14.45 0.5 14.5 0.65 14.7 1.05 14.75 1.35 14.35 3.15 14.35 3.8 14.3 4.1 14.3 4.3 14.55 4.1 15.1 3.45 15.15 3.2 15.45 2.8 15.5 2.8 15.5 3.3 15.1 3.9 15.05 3.85 14.8 4.15 14.95 4.05 14.7 4.4 14.55 4.55 14.6 4.6 14.45 4.95 14.5 5.0 14.2 5.7 14.1 6.4 14.0 6.4 14.0 6.65 13.95 6.7 14.0 6.8 13.85 6.9 13.7 6.9 13.65 6.75 13.45 6.5 13.45 6.4 13.4 6.35 13.45 6.0 13.65 5.2 13.9 4.7 13.95 4.75 14.05 4.5 14.1 4.55 14.25 4.35 14.15 4.4 14.0 4.45 13.95 4.45 13.85 4.55 13.8 4.15 13.8 4.3 13.75 3.9 13.7 3.7 13.7 3.65 13.65 3.65 13.65 3.2 14.25 0.35 M3.65 1.45 L3.75 1.8 3.8 2.15 3.8 2.35 3.7 3.55 4.4 5.45 4.3 5.75 4.3 5.85 4.5 5.65 4.65 5.45 4.75 5.35 4.85 5.3 6.35 4.45 6.75 0.15 9.3 5.95 6.35 11.1 6.45 9.8 6.4 9.65 6.4 9.8 6.05 9.9 5.65 10.15 5.65 10.3 5.05 10.6 4.6 10.6 3.1 10.35 3.05 10.3 3.95 9.95 3.9 9.9 3.8 9.95 3.6 10.0 3.45 9.85 3.35 9.9 2.85 9.25 3.0 9.65 2.5 8.95 2.4 8.95 2.15 8.55 2.15 8.5 2.2 8.55 2.55 8.8 2.9 8.9 3.0 8.85 3.15 8.9 3.4 8.8 3.75 8.6 4.35 8.0 4.4 7.9 4.45 7.95 4.35 8.05 4.8 8.6 4.8 8.95 4.25 9.55 4.3 9.85 4.4 9.75 4.95 9.55 5.6 9.2 5.9 9.1 5.95 9.15 6.2 9.05 6.3 9.2 6.35 9.2 6.4 8.8 6.4 8.75 6.45 7.4 Q7.9 6.7 9.3 5.95 L2.4 6.85 2.55 6.85 2.95 6.8 4.15 6.95 4.05 7.5 3.9 7.7 3.7 7.9 3.55 8.0 3.5 8.05 3.5 8.2 3.45 8.2 3.4 8.35 3.35 8.35 3.25 8.45 3.15 8.4 3.05 8.5 2.9 8.35 2.7 8.5 2.55 8.3 2.45 8.35 2.3 8.1 2.2 8.1 2.0 7.5 1.95 7.5 1.9 7.35 1.9 6.65 1.8 6.6 2.0 5.0 2.35 3.75 2.6 3.2 3.6 1.55 3.65 1.45 M9.0 2.9 L8.5 2.15 9.5 2.7 9.0 2.9 M11.3 1.95 L12.4 -0.25 12.45 0.0 12.65 4.6 10.55 6.35 9.95 5.05 10.1 4.65 10.05 4.6 10.65 3.4 12.65 4.6 11.15 2.4 11.4 1.9 11.3 1.95 M11.9 7.6 L11.95 7.5 12.15 7.25 12.2 7.25 12.35 7.05 12.5 6.9 12.55 6.9 12.7 6.75 12.75 6.8 12.9 6.65 13.05 6.75 13.1 6.85 12.95 7.0 13.0 7.05 12.95 7.1 12.7 7.4 12.75 7.45 12.45 7.85 12.45 7.9 11.9 7.6 M8.9 7.6 L9.15 7.6 8.7 7.95 8.9 7.6 M7.7 9.05 L8.05 8.65 8.1 8.7 8.35 8.55 8.4 8.6 8.6 8.45 8.65 8.5 8.85 8.35 8.9 8.45 9.15 8.3 9.3 8.65 9.1 8.75 8.9 8.9 8.9 9.0 8.4 9.45 8.5 9.5 8.2 9.85 8.05 9.4 7.95 9.35 8.0 9.3 7.7 9.1 7.7 9.05 M11.05 8.2 L10.9 8.3 10.95 8.5 10.85 8.6 10.8 8.7 10.85 8.75 10.75 8.85 10.6 9.15 10.55 9.3 10.5 9.35 10.4 9.4 10.4 9.5 10.2 9.55 10.15 9.6 10.0 9.6 10.0 9.45 9.9 9.45 9.9 9.25 9.8 9.25 10.05 8.5 10.2 8.25 10.3 8.25 10.45 8.1 10.55 8.2 10.7 8.05 10.75 8.1 10.95 8.05 11.05 8.2 M1.45 5.65 L1.7 6.0 1.65 6.95 1.6 7.0 1.65 7.05 1.6 7.3 1.7 7.55 1.65 7.55 1.6 7.55 1.4 5.65 1.45 5.65" fill="#ffcc00" fill-rule="evenodd" stroke="none"/>
    <path d="M14.7 1.05 L15.05 1.95 15.15 2.8 15.2 2.75 15.15 2.85 15.15 3.2 15.1 3.45 14.95 2.15 14.8 1.75 14.8 1.65 14.75 1.55 14.75 1.35 14.7 1.05 M15.5 3.55 L15.5 3.95 15.35 4.8 14.8 6.4 14.6 6.75 14.4 7.0 14.3 7.1 14.25 7.2 13.35 8.35 13.35 8.4 13.4 8.4 13.25 8.55 12.65 9.25 12.45 9.4 11.65 9.85 10.7 10.15 10.45 10.15 10.2 10.05 10.0 9.9 9.95 9.85 9.65 10.15 9.15 10.5 7.85 11.15 7.7 11.15 7.25 11.45 6.9 11.6 6.5 11.65 6.05 11.65 6.0 11.7 5.05 11.6 4.3 11.4 3.85 11.15 2.95 10.35 2.9 10.4 2.7 10.2 2.65 10.15 2.85 10.1 2.2 9.3 1.6 8.3 1.45 7.95 1.3 7.45 1.1 5.4 1.15 5.45 1.2 5.6 1.35 6.95 1.35 7.3 1.5 7.9 1.55 7.9 1.6 8.1 1.75 8.4 1.85 8.55 2.05 9.0 2.15 9.0 2.9 10.05 3.0 10.0 3.05 10.05 2.7 10.2 2.85 10.25 3.3 10.55 4.15 11.25 4.25 11.2 4.5 11.35 4.55 11.3 4.75 11.4 5.15 11.5 5.2 11.45 6.1 11.55 6.2 11.55 6.25 11.5 6.7 11.5 7.05 11.45 7.15 11.35 7.35 11.3 7.5 11.2 7.55 11.1 7.85 10.9 8.1 10.55 8.1 10.3 8.15 10.2 8.1 9.95 8.1 9.85 8.05 9.7 8.1 9.65 8.0 9.5 7.85 9.35 7.85 9.25 7.6 9.15 7.6 9.2 6.35 11.1 9.3 5.95 10.9 2.9 10.65 3.4 10.05 4.6 9.9 5.0 9.95 5.05 10.55 6.35 12.65 4.6 11.2 6.2 10.7 6.55 11.2 7.55 9.3 7.6 8.7 7.95 9.15 7.6 8.9 7.6 8.55 7.6 8.05 8.45 8.7 8.05 9.4 7.85 9.5 7.85 9.9 8.0 10.0 8.05 10.1 8.15 10.15 8.1 10.15 8.05 10.95 7.65 11.25 7.6 11.25 7.55 11.7 7.55 11.7 7.5 12.05 7.1 12.3 6.75 12.4 6.7 12.55 6.6 12.5 6.7 12.3 6.85 11.9 7.3 11.75 7.55 11.9 7.6 12.45 7.9 12.65 8.1 13.15 8.3 13.25 8.3 13.25 8.2 13.5 7.95 14.1 7.2 14.0 7.25 13.95 7.25 13.85 7.2 13.95 7.15 14.0 7.15 14.0 7.1 14.1 7.15 14.25 6.95 14.3 6.95 14.3 6.85 14.35 6.85 14.4 6.75 14.5 6.6 14.75 6.35 15.25 4.75 15.5 3.55 M1.3 5.5 L1.65 5.65 2.0 3.95 2.7 2.5 3.4 1.4 3.5 1.35 2.15 3.7 1.7 5.7 1.7 5.85 1.65 5.75 1.45 5.65 1.4 5.65 1.3 5.5 M3.75 1.8 L4.8 5.0 4.85 5.3 4.75 5.35 4.7 5.1 4.55 4.65 4.6 4.6 3.8 2.35 3.8 2.15 3.75 1.8 M6.75 0.15 L8.7 3.05 9.3 5.95 6.75 0.15 M12.45 0.0 L12.65 2.85 13.55 3.15 13.55 2.9 14.0 0.65 14.1 0.5 13.55 3.15 13.55 3.6 13.6 3.6 13.6 3.7 13.65 3.75 13.75 3.9 13.6 4.05 13.7 4.55 13.75 4.6 13.75 4.65 13.8 4.55 13.85 4.55 13.8 4.7 13.5 5.4 13.3 6.2 13.35 6.15 13.3 6.3 13.3 6.25 13.1 6.35 13.05 6.3 12.9 6.4 12.85 6.4 12.7 6.55 12.7 6.4 13.0 6.25 13.2 6.2 13.25 6.2 13.25 6.1 13.3 5.9 13.7 4.75 13.7 4.65 13.6 4.2 12.7 5.0 12.65 4.6 12.45 0.0 M8.2 9.85 L8.25 10.15 8.2 10.6 7.9 10.95 8.1 10.9 8.8 10.55 8.85 10.5 9.5 10.1 9.85 9.8 9.85 9.75 9.75 9.6 9.75 9.45 9.65 9.45 9.7 9.15 9.7 9.05 9.8 8.85 9.7 9.15 9.75 9.2 9.75 9.35 9.8 9.4 9.8 9.55 9.85 9.55 9.95 9.75 9.95 9.7 10.0 9.85 10.15 9.85 10.25 9.95 10.3 9.95 10.45 10.05 10.6 9.95 10.7 10.0 10.75 9.95 10.9 9.95 10.9 9.9 11.05 9.9 11.3 9.85 11.15 9.8 11.45 9.75 11.95 9.55 12.05 9.5 12.1 9.4 12.9 8.85 12.9 8.8 12.85 8.75 13.1 8.65 13.25 8.55 12.8 8.35 12.35 8.05 12.4 8.0 12.2 7.9 12.2 7.85 12.05 7.8 12.0 7.75 11.85 7.7 11.65 7.7 11.6 7.65 11.4 7.7 11.35 7.65 11.15 7.7 11.1 7.65 10.5 7.95 10.45 7.95 10.15 8.15 10.2 8.2 10.1 8.2 9.9 8.55 10.0 8.25 10.0 8.1 9.85 8.05 9.8 8.0 9.65 8.0 9.6 7.95 9.4 7.95 9.2 8.0 9.1 8.0 8.7 8.2 8.6 8.15 8.2 8.45 8.15 8.45 8.1 8.5 7.95 8.6 7.65 9.05 7.7 9.05 7.7 9.1 8.0 9.3 7.95 9.35 8.05 9.4 8.2 9.85 M1.65 6.95 L1.65 7.05 1.7 7.05 1.7 7.45 1.8 7.8 1.85 7.85 1.85 7.9 2.05 8.3 2.1 8.35 2.2 8.4 2.4 8.6 2.45 8.6 2.6 8.75 2.8 8.85 2.85 8.8 3.0 8.85 3.2 8.75 3.5 8.7 3.55 8.6 3.75 8.5 4.15 8.1 4.55 7.3 4.6 7.15 4.7 7.15 5.3 8.0 5.55 8.6 5.6 8.9 6.0 8.75 6.4 8.75 6.4 8.8 6.05 8.85 6.0 8.85 5.6 8.95 5.55 9.1 5.5 9.0 5.35 8.4 5.35 8.3 4.9 7.6 4.9 7.55 4.65 7.3 4.65 7.25 4.4 7.9 4.35 8.0 3.75 8.6 3.4 8.8 3.15 8.9 3.0 8.85 2.9 8.9 2.55 8.8 2.2 8.55 2.15 8.5 1.9 8.25 1.85 8.1 1.8 8.0 1.65 7.55 1.7 7.55 1.6 7.3 1.65 7.05 1.6 7.0 1.65 6.95" fill="#000000" fill-rule="evenodd" stroke="none"/>
  </g>
</svg>
