<?xml version="1.0" encoding="UTF-8" standalone="no"?>
<svg xmlns:ffdec="https://www.free-decompiler.com/flash" xmlns:xlink="http://www.w3.org/1999/xlink" ffdec:objectType="shape" height="11.5px" width="16.25px" xmlns="http://www.w3.org/2000/svg">
  <g transform="matrix(1.0, 0.0, 0.0, 1.0, -0.4, 0.25)">
    <path d="M15.1 0.5 L15.2 0.45 14.5 3.3 14.5 3.8 14.55 3.8 14.6 4.3 14.65 4.55 14.7 4.45 14.7 4.65 14.75 4.7 14.65 4.7 14.65 4.8 14.65 4.85 14.75 4.7 14.75 4.75 14.85 4.6 14.9 4.65 15.0 4.55 15.05 4.55 14.75 4.95 14.7 4.95 14.2 6.0 14.1 6.6 14.15 6.6 14.15 6.8 14.2 6.8 14.2 6.95 14.25 7.0 14.3 7.0 14.35 7.15 14.5 7.15 14.55 7.1 14.6 7.25 14.6 7.1 14.65 7.1 14.8 7.0 14.75 6.9 14.85 6.9 14.8 6.65 15.3 5.25 15.65 4.9 15.85 4.65 15.8 4.6 16.5 3.9 16.35 4.95 15.65 6.6 15.4 7.05 15.05 7.25 15.05 7.3 14.95 7.3 14.95 7.4 14.9 7.4 14.75 7.5 14.7 7.45 14.6 7.5 14.6 7.55 14.8 7.55 14.85 7.5 14.95 7.45 14.75 7.75 13.8 8.65 12.95 8.25 13.2 7.9 13.45 7.65 13.4 7.6 13.7 7.3 13.85 7.2 13.85 7.1 14.05 7.05 13.95 6.9 13.9 6.75 13.7 6.8 13.65 6.7 13.45 6.85 13.4 6.8 13.25 6.85 13.0 7.1 12.95 7.05 12.35 7.65 12.3 7.65 12.25 7.8 12.1 7.75 12.2 7.65 12.55 7.25 13.05 6.85 13.25 6.75 12.9 6.9 12.5 7.2 11.55 6.3 12.95 4.75 10.65 3.4 11.3 2.4 11.45 2.4 12.95 4.75 13.25 6.75 13.45 6.6 13.5 6.6 14.0 6.5 14.1 6.0 14.5 5.0 14.65 4.8 14.55 4.75 14.45 4.15 14.5 4.1 12.95 4.75 13.35 2.95 14.35 3.25 14.35 3.5 14.4 3.65 14.4 3.3 14.75 1.85 15.1 0.5 M16.45 2.9 L16.5 2.9 16.6 3.0 16.25 3.35 16.2 3.4 16.25 3.3 16.25 3.15 16.45 2.9 M13.9 8.7 L13.8 8.85 13.5 8.95 12.9 9.4 12.9 9.45 12.85 9.45 12.55 9.6 11.6 9.9 11.6 9.95 11.0 10.05 10.85 10.05 10.8 10.1 10.6 10.05 10.55 10.1 10.4 10.05 10.3 10.05 10.15 9.95 10.1 10.0 10.0 9.85 10.0 9.9 9.8 9.7 9.65 9.45 9.65 9.2 9.6 9.15 9.7 8.8 9.7 8.75 10.0 8.35 10.15 8.1 10.3 8.1 10.55 7.9 11.2 7.75 11.25 7.8 11.6 7.7 11.7 7.7 11.7 7.75 11.95 7.75 12.0 7.8 12.1 7.8 12.4 7.9 12.4 7.95 12.6 8.05 12.6 8.1 12.8 8.25 13.1 8.4 13.1 8.35 13.8 8.65 13.9 8.7 M2.05 9.6 L1.95 9.55 2.45 9.4 2.2 9.4 1.45 8.35 1.4 8.35 1.05 7.75 0.8 7.15 0.85 7.15 0.8 6.95 0.7 6.9 0.6 6.35 0.6 5.85 0.5 5.05 0.9 5.25 0.9 5.5 0.85 5.45 0.7 5.25 0.8 5.85 0.8 6.1 0.8 6.65 0.85 7.05 0.95 7.15 1.0 7.35 1.3 7.85 1.45 7.95 1.5 8.0 1.95 8.65 1.8 8.3 2.55 9.3 2.65 9.25 2.85 9.4 3.2 9.35 2.2 9.65 2.05 9.6 M2.8 1.2 L2.9 1.4 1.85 2.9 1.5 3.6 1.3 4.15 1.4 4.2 1.05 6.35 1.1 6.95 1.2 6.95 1.25 7.25 1.35 7.2 1.5 7.55 1.6 7.7 1.7 7.65 1.85 7.85 2.0 8.0 2.1 7.9 2.25 8.0 2.3 7.9 2.5 7.95 2.5 7.8 2.65 7.8 2.9 7.65 3.2 7.4 3.3 7.25 3.5 6.7 3.5 6.65 2.05 6.35 1.6 6.35 1.45 6.3 8.5 5.9 6.1 0.1 8.3 3.0 8.5 5.9 9.75 5.0 9.95 5.3 10.55 6.4 10.75 6.7 11.3 7.6 9.3 7.55 9.1 7.5 8.85 7.5 8.2 7.5 8.5 5.9 5.8 7.15 4.15 6.85 4.05 6.8 4.25 7.05 4.25 7.1 4.45 7.3 4.8 7.85 4.75 7.9 5.0 8.55 5.0 8.6 5.05 8.6 5.45 8.5 5.7 8.5 5.7 8.7 5.6 8.7 5.55 8.65 4.75 8.85 4.65 8.9 4.6 8.8 4.55 8.5 4.65 8.4 4.5 8.2 4.3 7.6 4.05 7.3 3.95 7.2 3.95 7.1 3.85 7.0 3.9 6.8 3.85 6.75 3.65 7.3 3.25 7.8 3.05 7.95 2.6 8.15 2.4 8.2 2.35 8.25 2.3 8.2 2.2 8.25 2.15 8.3 1.8 8.1 1.75 8.15 1.5 7.95 1.4 7.75 1.3 7.75 1.15 7.45 1.05 7.3 0.95 6.9 0.9 6.9 0.85 6.6 1.0 5.05 1.35 3.7 1.3 3.65 1.45 3.25 1.85 2.55 2.6 1.55 2.8 1.2 M8.4 2.1 L10.45 2.3 9.4 2.65 8.4 2.1 M14.45 3.9 L14.45 3.8 14.4 3.8 14.45 3.9 M16.2 3.45 L16.05 3.75 15.3 4.45 15.3 4.25 15.25 3.95 15.25 3.8 15.3 3.65 15.75 1.9 15.7 1.5 15.65 1.3 15.85 1.6 15.8 1.65 16.15 2.8 16.2 3.4 16.2 3.45 M15.15 4.5 L15.1 4.6 15.05 4.55 15.15 4.5 M11.15 8.05 L11.1 8.0 10.9 8.1 10.85 8.0 10.65 8.1 10.6 8.05 10.4 8.2 10.35 8.15 10.15 8.3 9.8 8.95 9.7 9.25 9.75 9.25 9.75 9.45 9.9 9.45 9.95 9.6 10.1 9.55 10.2 9.7 10.3 9.65 10.45 9.5 10.4 9.4 10.45 9.35 10.6 9.3 10.8 9.05 10.9 8.95 10.85 8.85 11.05 8.75 11.2 8.65 11.5 8.55 11.5 8.45 11.7 8.4 11.7 8.3 11.9 8.3 11.7 8.2 11.65 8.05 11.4 8.1 11.4 8.0 11.15 8.05 M6.95 9.1 L7.15 8.85 7.2 8.85 7.15 8.9 7.5 9.05 7.7 9.3 7.7 9.4 7.75 9.55 7.75 9.6 7.8 9.95 7.75 10.0 7.75 10.3 7.7 10.3 7.7 10.35 7.65 10.4 7.45 10.65 7.2 10.8 7.2 10.85 6.95 10.95 6.8 11.05 6.55 11.1 6.5 11.15 6.2 11.2 5.15 11.1 5.1 11.15 4.4 11.0 3.75 10.75 3.65 10.75 3.35 10.55 2.4 9.75 3.1 9.9 3.55 10.3 3.65 10.2 4.05 10.5 4.15 10.4 4.5 10.55 5.05 10.7 4.8 10.55 5.55 10.7 5.65 10.7 5.7 10.7 6.1 10.75 6.2 10.65 6.75 10.65 7.05 10.5 7.35 10.3 7.3 10.05 7.4 9.95 7.3 9.8 7.35 9.7 7.3 9.5 7.35 9.4 7.15 9.3 7.2 9.2 6.95 9.1 M7.4 8.9 L7.3 8.85 7.25 8.85 7.5 8.65 7.55 8.65 7.85 8.35 8.35 8.15 8.5 8.05 8.6 8.1 8.95 7.95 9.35 7.9 9.6 7.9 9.6 7.95 9.8 7.95 9.85 8.0 10.0 8.05 10.0 8.15 10.05 8.15 9.9 8.35 9.9 8.3 9.75 8.3 9.7 8.15 9.7 8.1 9.65 8.1 9.25 8.15 9.25 8.1 8.95 8.2 8.95 8.15 8.4 8.3 8.35 8.25 7.65 8.75 7.6 8.7 7.4 8.9 M2.9 1.75 L3.35 3.2 3.9 4.4 4.05 5.0 Q3.95 5.1 3.8 5.15 L3.55 4.5 3.65 4.4 2.85 2.35 2.9 2.05 2.9 1.75 M7.8 10.3 L8.3 10.2 8.3 9.55 8.6 9.95 8.6 9.35 8.75 9.25 8.75 9.1 9.65 8.8 9.65 8.85 9.55 9.0 9.55 9.25 9.6 9.45 9.65 9.55 9.85 9.8 9.55 10.05 9.2 10.2 9.2 10.25 8.6 10.5 7.7 10.75 7.35 10.8 7.65 10.55 7.75 10.4 7.75 10.3 7.8 10.3" fill="#7f6600" fill-rule="evenodd" stroke="none"/>
    <path d="M15.2 0.45 L15.35 0.6 15.5 0.8 15.65 1.3 15.7 1.5 15.75 1.9 15.3 3.65 15.25 3.8 15.25 3.95 15.3 4.25 15.3 4.45 16.05 3.75 16.2 3.45 16.25 3.35 16.6 3.0 16.65 3.15 16.65 3.25 16.6 3.6 16.55 3.85 16.5 3.9 15.8 4.6 15.85 4.65 15.65 4.9 15.3 5.25 14.8 6.65 14.85 6.9 14.75 6.9 14.8 7.0 14.65 7.1 14.6 7.1 14.6 7.25 14.55 7.1 14.5 7.15 14.35 7.15 14.3 7.0 14.25 7.0 14.2 6.95 14.2 6.8 14.15 6.8 14.15 6.6 14.1 6.6 14.2 6.0 14.7 4.95 14.75 4.95 15.05 4.55 15.0 4.55 14.9 4.65 14.85 4.6 14.75 4.7 14.7 4.65 14.7 4.45 14.65 4.55 14.6 4.3 14.55 3.8 14.5 3.8 14.5 3.3 15.2 0.45 M4.1 5.0 L4.15 5.0 5.65 4.25 6.1 0.1 8.5 5.9 1.45 6.3 1.6 6.35 2.05 6.35 3.5 6.65 3.5 6.7 3.3 7.25 3.2 7.4 2.9 7.65 2.65 7.8 2.5 7.8 2.5 7.95 2.3 7.9 2.25 8.0 2.1 7.9 2.0 8.0 1.85 7.85 1.7 7.65 1.6 7.7 1.5 7.55 1.35 7.2 1.25 7.25 1.2 6.95 1.1 6.95 1.05 6.35 1.4 4.2 1.3 4.15 1.5 3.6 1.85 2.9 2.9 1.4 2.9 1.75 2.9 2.05 2.85 2.35 3.65 4.4 3.55 4.5 3.8 5.15 Q3.95 5.1 4.05 5.0 L4.1 5.0 M8.3 3.0 L8.95 2.8 8.4 2.1 9.4 2.65 10.45 2.3 11.55 1.95 8.5 5.9 5.65 10.7 6.95 9.1 7.2 9.2 7.15 9.3 7.35 9.4 7.3 9.5 7.35 9.7 7.3 9.8 7.4 9.95 7.3 10.05 7.35 10.3 7.05 10.5 6.75 10.65 6.2 10.65 6.1 10.75 5.7 10.7 5.65 10.7 5.55 10.7 4.8 10.55 5.05 10.7 4.5 10.55 4.15 10.4 4.05 10.5 3.65 10.2 3.55 10.3 3.1 9.9 2.4 9.75 2.2 9.65 3.2 9.35 2.85 9.4 2.65 9.25 2.55 9.3 1.8 8.3 1.95 8.65 1.5 8.0 1.65 8.15 2.15 8.3 2.45 8.3 2.65 8.2 2.7 8.2 3.4 7.75 3.6 7.5 3.85 7.0 3.95 7.1 3.95 7.2 4.05 7.3 4.3 7.6 4.5 8.2 4.65 8.4 4.55 8.5 4.6 8.8 4.65 8.9 4.75 8.85 5.55 8.65 5.6 8.7 5.7 8.7 5.7 8.5 5.7 8.45 5.8 7.15 8.5 5.9 8.3 3.0 M11.45 2.4 L13.05 -0.25 13.05 0.0 12.95 4.75 11.45 2.4 M9.95 5.3 L10.25 4.65 10.05 4.4 10.65 3.4 12.95 4.75 10.55 6.4 9.95 5.3 M15.15 4.5 L15.05 4.55 15.1 4.6 15.15 4.5 M12.25 7.8 L12.3 7.65 12.35 7.65 12.95 7.05 13.0 7.1 13.25 6.85 13.4 6.8 13.45 6.85 13.65 6.7 13.7 6.8 13.9 6.75 13.95 6.9 14.05 7.05 13.85 7.1 13.85 7.2 13.7 7.3 13.4 7.6 13.45 7.65 13.2 7.9 12.95 8.25 12.9 8.2 12.5 7.9 12.25 7.8 M11.15 8.05 L11.4 8.0 11.4 8.1 11.65 8.05 11.7 8.2 11.9 8.3 11.7 8.3 11.7 8.4 11.5 8.45 11.5 8.55 11.2 8.65 11.05 8.75 10.85 8.85 10.9 8.95 10.8 9.05 10.6 9.3 10.45 9.35 10.4 9.4 10.45 9.5 10.3 9.65 10.2 9.7 10.1 9.55 9.95 9.6 9.9 9.45 9.75 9.45 9.75 9.25 9.7 9.25 9.8 8.95 10.15 8.3 10.35 8.15 10.4 8.2 10.6 8.05 10.65 8.1 10.85 8.0 10.9 8.1 11.1 8.0 11.15 8.05 M9.7 8.75 L9.7 8.8 9.65 8.8 8.75 9.1 8.75 9.25 8.6 9.35 8.6 9.95 8.3 9.55 8.3 10.2 7.8 10.3 7.85 10.0 7.85 9.6 7.8 9.45 7.65 9.2 7.5 9.05 7.4 8.95 7.4 8.9 7.6 8.7 7.65 8.75 8.35 8.25 8.4 8.3 8.95 8.15 8.95 8.2 9.25 8.1 9.25 8.15 9.65 8.1 9.7 8.1 9.7 8.15 9.75 8.3 9.9 8.3 9.9 8.35 9.8 8.55 9.7 8.7 9.7 8.75 M8.65 7.85 L8.85 7.5 9.1 7.5 8.65 7.85 M0.8 6.1 L0.8 5.85 0.7 5.25 0.85 5.45 0.9 5.5 0.9 5.65 0.8 6.1" fill="#ffcc00" fill-rule="evenodd" stroke="none"/>
    <path d="M14.35 3.25 L14.4 3.0 14.75 1.85 15.0 0.7 15.05 0.55 15.1 0.5 14.75 1.85 14.4 3.3 14.4 3.65 14.35 3.5 14.35 3.25 M15.5 0.8 L15.8 1.35 15.75 1.4 15.85 1.5 16.0 1.85 16.15 2.35 16.25 3.05 16.4 2.95 16.45 2.9 16.25 3.15 16.25 3.3 16.2 3.4 16.25 3.35 16.2 3.45 16.2 3.4 16.15 2.8 15.8 1.65 15.85 1.6 15.65 1.3 15.5 0.8 M16.6 3.6 L16.6 4.05 16.55 4.35 16.35 4.95 15.95 6.2 15.45 7.1 15.2 7.3 13.95 8.65 13.95 8.7 13.9 8.7 13.8 8.65 13.1 8.35 13.1 8.4 12.8 8.25 12.6 8.1 12.6 8.05 12.4 7.95 12.4 7.9 12.1 7.8 12.0 7.8 11.95 7.75 11.7 7.75 11.7 7.7 11.6 7.7 11.25 7.8 11.2 7.75 10.55 7.9 10.9 7.75 11.8 7.65 12.1 7.75 12.25 7.8 12.5 7.9 12.9 8.2 12.95 8.25 13.8 8.65 14.75 7.75 14.95 7.45 14.85 7.5 14.8 7.55 14.6 7.55 14.6 7.5 14.7 7.45 14.75 7.5 14.9 7.4 14.95 7.4 14.95 7.3 15.05 7.3 15.05 7.25 15.4 7.05 15.65 6.6 16.35 4.95 16.5 3.9 16.55 3.85 16.6 3.6 M13.8 8.85 L13.6 8.95 13.6 9.0 12.85 9.55 12.6 9.7 12.05 9.9 10.7 10.2 10.5 10.2 10.25 10.15 10.0 9.95 9.9 9.85 9.0 10.4 7.6 10.9 7.25 10.95 6.6 11.2 6.5 11.2 6.55 11.25 5.35 11.25 4.1 11.0 3.05 10.45 2.15 9.7 2.05 9.6 2.2 9.65 2.4 9.75 3.35 10.55 3.65 10.75 3.75 10.75 4.4 11.0 5.1 11.15 5.15 11.1 6.2 11.2 6.5 11.15 6.55 11.1 6.8 11.05 6.95 10.95 7.2 10.85 7.2 10.8 7.45 10.65 7.65 10.4 7.7 10.35 7.7 10.3 7.75 10.3 7.75 10.0 7.8 9.95 7.75 9.6 7.75 9.55 7.7 9.4 7.7 9.3 7.5 9.05 7.65 9.2 7.8 9.45 7.85 9.6 7.85 10.0 7.8 10.3 7.75 10.3 7.75 10.4 7.65 10.55 7.35 10.8 7.7 10.75 8.6 10.5 9.2 10.25 9.2 10.2 9.55 10.05 9.85 9.8 9.65 9.55 9.6 9.45 9.55 9.25 9.55 9.0 9.65 8.85 9.65 8.8 9.7 8.8 9.6 9.15 9.65 9.2 9.65 9.45 9.8 9.7 10.0 9.9 10.0 9.85 10.1 10.0 10.15 9.95 10.3 10.05 10.4 10.05 10.55 10.1 10.6 10.05 10.8 10.1 10.85 10.05 11.0 10.05 11.6 9.95 11.6 9.9 12.55 9.6 12.85 9.45 12.9 9.45 12.9 9.4 13.5 8.95 13.8 8.85 M1.95 9.55 L1.95 9.45 2.15 9.4 1.95 9.2 1.15 8.1 0.8 7.35 0.6 6.75 0.6 6.35 0.4 5.0 0.9 5.15 1.3 3.5 1.45 3.1 2.75 1.25 2.75 1.2 2.8 1.2 2.6 1.55 1.85 2.55 1.45 3.25 1.3 3.65 1.35 3.7 1.0 5.05 0.85 6.6 0.9 6.9 0.95 6.9 1.05 7.3 1.15 7.45 1.3 7.75 1.4 7.75 1.5 7.95 1.75 8.15 1.8 8.1 2.15 8.3 1.65 8.15 1.5 8.0 1.45 7.95 1.3 7.85 1.0 7.35 0.95 7.15 0.85 7.05 0.8 6.65 0.8 6.1 0.9 5.65 0.9 5.5 0.9 5.25 0.5 5.05 0.6 5.85 0.6 6.35 0.7 6.9 0.8 6.95 0.85 7.15 0.8 7.15 1.05 7.75 1.4 8.35 1.45 8.35 2.2 9.4 2.45 9.4 1.95 9.55 M2.9 1.4 L3.95 4.3 4.1 4.85 4.1 5.0 4.05 5.0 3.9 4.4 3.35 3.2 2.9 1.75 2.9 1.4 M11.55 1.95 L11.3 2.4 10.65 3.4 10.05 4.4 9.75 5.0 8.5 5.9 8.2 7.5 7.2 8.8 7.25 8.8 7.75 8.35 8.5 8.05 9.05 7.85 9.6 7.85 9.9 7.95 10.05 8.05 10.15 8.1 10.2 8.05 10.55 7.9 10.3 8.1 10.15 8.1 10.0 8.35 9.7 8.75 9.7 8.7 9.8 8.55 9.9 8.35 10.05 8.15 10.0 8.15 10.0 8.05 9.85 8.0 9.8 7.95 9.6 7.95 9.6 7.9 9.35 7.9 8.95 7.95 8.6 8.1 8.5 8.05 8.35 8.15 7.85 8.35 7.55 8.65 7.5 8.65 7.25 8.85 7.3 8.85 7.4 8.9 7.4 8.95 7.5 9.05 7.15 8.9 7.2 8.85 7.15 8.85 6.95 9.1 5.65 10.7 8.5 5.9 11.55 1.95 M13.05 0.0 L13.35 2.95 12.95 4.75 13.05 0.0 M10.55 6.4 L12.95 4.75 14.5 4.1 14.45 4.15 14.55 4.75 14.65 4.8 14.5 5.0 14.1 6.0 14.0 6.5 13.5 6.6 13.45 6.6 13.25 6.75 12.95 4.75 11.55 6.3 10.75 6.7 10.55 6.4 M14.45 3.9 L14.4 3.8 14.45 3.8 14.45 3.9 M14.85 4.6 L14.75 4.75 14.75 4.7 14.65 4.85 14.65 4.8 14.65 4.7 14.75 4.7 14.85 4.6 M14.55 4.8 L14.45 4.45 13.25 5.2 13.35 6.55 13.85 6.45 13.95 6.4 14.2 5.55 14.55 4.85 14.55 4.8 M12.5 7.2 L12.9 6.9 13.25 6.75 13.05 6.85 12.55 7.25 12.2 7.65 12.5 7.2 M12.2 7.65 L12.1 7.75 12.15 7.65 12.2 7.65 M9.3 7.55 L8.65 7.85 9.1 7.5 9.3 7.55 M3.85 7.0 L3.6 7.5 3.4 7.75 2.7 8.2 2.65 8.2 2.45 8.3 2.15 8.3 2.2 8.25 2.3 8.2 2.35 8.25 2.4 8.2 2.6 8.15 3.05 7.95 3.25 7.8 3.65 7.3 3.85 6.75 3.9 6.8 3.85 7.0 M5.7 8.45 L5.7 8.5 5.45 8.5 5.05 8.6 5.0 8.6 5.0 8.55 4.75 7.9 4.8 7.85 4.45 7.3 4.25 7.1 4.25 7.05 4.05 6.8 4.15 6.85 4.35 7.05 4.7 7.6 5.0 8.25 5.05 8.55 5.5 8.4 5.7 8.45" fill="#000000" fill-rule="evenodd" stroke="none"/>
  </g>
</svg>
