<?xml version="1.0" encoding="UTF-8" standalone="no"?>
<svg xmlns:ffdec="https://www.free-decompiler.com/flash" xmlns:xlink="http://www.w3.org/1999/xlink" ffdec:objectType="shape" height="11.05px" width="17.4px" xmlns="http://www.w3.org/2000/svg">
  <g transform="matrix(1.0, 0.0, 0.0, 1.0, -0.25, 0.2)">
    <path d="M11.8 2.45 L13.6 -0.2 13.1 4.9 10.55 6.5 9.95 5.5 10.4 4.65 10.05 4.25 10.95 3.0 13.1 4.9 11.8 2.45 M16.1 0.55 L16.25 0.85 16.35 1.05 16.4 1.2 16.6 2.35 16.25 3.25 16.15 3.75 16.25 4.55 17.0 3.95 17.1 3.75 17.2 3.65 17.65 3.25 17.65 3.65 17.55 3.95 17.25 4.7 17.2 4.8 16.3 5.5 16.05 5.8 15.75 6.4 15.55 7.05 15.6 7.2 15.5 7.3 15.6 7.4 15.45 7.55 15.35 7.6 15.3 7.5 15.2 7.6 15.15 7.6 15.1 7.45 14.95 7.5 14.9 7.3 14.8 7.3 14.8 7.15 14.7 7.1 14.7 6.65 14.8 6.3 15.25 5.35 15.55 5.0 15.6 5.0 15.85 4.8 15.55 4.9 15.5 4.9 15.4 4.55 15.35 4.6 15.3 3.75 15.25 3.75 15.25 3.5 16.1 0.55 M3.75 4.65 L5.2 4.05 5.65 0.05 7.8 5.8 0.95 5.8 1.1 5.85 1.55 5.85 2.95 6.2 3.1 6.3 3.2 6.35 2.95 6.9 2.8 7.05 2.75 7.0 2.35 7.25 2.05 7.35 1.9 7.35 1.85 7.45 1.8 7.45 1.45 7.2 1.4 7.25 1.15 7.0 1.0 6.65 0.9 6.65 0.8 6.25 0.85 5.65 0.7 5.6 1.25 3.25 2.35 1.65 2.4 1.6 2.4 1.7 3.3 4.05 3.25 4.1 3.35 4.35 3.45 4.8 3.65 4.7 3.75 4.65 M8.0 2.9 L8.9 2.7 8.35 2.05 10.1 2.25 10.2 2.35 10.45 2.3 11.6 2.0 7.8 5.8 5.2 10.25 6.7 8.7 6.85 8.75 7.1 8.9 7.1 8.95 7.25 9.1 7.2 9.2 7.3 9.3 7.2 9.4 7.3 9.5 7.25 9.55 7.3 9.7 7.3 9.85 7.2 9.9 7.2 10.15 7.1 10.1 6.7 10.35 6.45 10.4 6.45 10.5 6.15 10.55 4.2 10.1 4.15 10.2 3.45 9.9 3.15 9.6 3.05 9.7 2.55 9.25 1.95 9.05 1.75 9.0 2.85 8.8 2.4 8.8 1.75 8.0 1.65 8.0 1.4 7.6 1.5 7.65 1.7 7.7 1.75 7.7 1.8 7.75 2.05 7.7 2.3 7.6 2.5 7.55 2.95 7.25 3.05 7.15 3.3 6.8 3.35 6.75 3.5 6.4 3.7 6.55 3.65 6.6 4.05 7.05 4.2 7.3 4.15 7.4 4.5 8.1 4.4 8.15 4.45 8.35 4.05 8.5 4.9 8.3 5.25 8.3 5.25 8.1 5.25 8.05 5.35 6.85 7.8 5.8 8.0 2.9 M12.55 8.0 L12.75 7.75 12.9 7.6 12.95 7.65 13.4 7.25 13.7 7.1 13.85 7.05 13.9 7.05 14.1 6.95 14.15 7.0 14.3 6.95 14.6 6.95 14.6 7.0 14.7 7.1 14.7 7.2 14.8 7.4 14.8 7.3 14.9 7.6 14.4 7.7 14.05 7.9 14.1 8.0 13.95 8.05 13.55 8.35 13.6 8.7 13.55 8.65 13.45 8.5 13.5 8.6 13.35 8.55 13.2 8.45 13.15 8.45 12.8 8.15 12.55 8.0 M11.6 8.0 L11.9 8.0 11.9 8.1 12.15 8.1 12.15 8.15 12.35 8.2 12.35 8.3 12.55 8.4 12.55 8.45 12.75 8.55 12.7 8.65 12.9 8.75 12.85 8.85 13.55 9.25 13.7 9.3 13.2 9.3 13.0 9.4 12.65 9.5 11.5 9.7 11.15 9.7 11.1 9.8 10.85 9.8 10.65 9.7 10.55 9.8 10.45 9.75 10.35 9.8 10.25 9.7 10.15 9.75 10.05 9.65 10.0 9.65 9.95 9.55 9.8 9.6 9.75 9.45 9.7 9.45 9.7 9.25 9.65 9.25 9.7 9.05 9.65 9.05 9.9 8.55 10.25 8.25 10.5 8.1 10.55 8.15 11.05 8.0 11.35 8.05 11.6 8.0 M8.6 7.75 L8.8 7.45 9.1 7.45 8.6 7.75 M7.25 8.75 L7.95 8.25 8.4 8.2 8.4 8.1 9.15 8.0 9.15 8.05 9.65 8.05 9.7 8.1 9.85 8.15 9.85 8.25 9.95 8.2 10.0 8.25 9.95 8.25 9.6 8.7 9.45 9.15 9.5 9.5 9.6 9.65 8.95 9.9 7.9 10.15 7.45 10.2 7.55 10.1 7.55 10.0 7.6 9.9 7.6 9.85 7.65 9.8 7.6 9.55 7.6 9.5 7.55 9.25 7.4 8.95 7.3 8.85 7.3 8.8 7.25 8.75 M0.55 5.0 L0.4 4.85 0.6 4.9 0.55 5.0" fill="#ffcc00" fill-rule="evenodd" stroke="none"/>
    <path d="M11.6 2.0 L11.35 2.4 10.95 3.0 10.05 4.25 9.6 5.0 7.8 5.8 11.6 2.0 M13.6 -0.2 L13.95 3.1 13.1 4.9 13.6 -0.2 M15.15 3.45 L15.15 3.2 15.9 0.7 15.95 0.6 16.0 0.55 15.15 3.45 15.15 3.75 15.2 4.2 15.15 4.1 15.1 3.85 15.15 3.45 M16.25 0.85 L16.9 1.8 17.0 2.05 17.25 3.35 17.4 3.2 17.5 3.15 17.55 3.15 17.25 3.45 17.25 3.5 17.2 3.65 17.2 3.5 17.1 2.85 16.95 2.45 17.0 2.35 16.8 1.8 16.4 1.2 16.35 1.05 16.25 0.85 M17.65 3.65 L17.6 3.85 17.55 4.35 17.55 4.55 17.5 4.9 17.2 5.75 16.65 6.9 16.3 7.35 15.9 7.7 15.85 7.8 15.75 7.95 14.4 9.0 14.4 9.05 14.2 8.95 14.35 8.95 15.8 7.75 15.45 7.9 15.2 7.9 15.15 7.85 15.25 7.8 15.35 7.85 15.4 7.8 15.5 7.8 15.55 7.75 15.65 7.75 15.8 7.7 15.8 7.65 Q15.95 7.6 16.05 7.5 L16.6 6.9 17.45 4.95 17.55 3.95 17.65 3.65 M14.25 9.1 L13.05 9.85 12.6 10.0 11.4 10.25 10.6 10.25 10.05 10.1 9.85 9.95 9.85 9.9 9.0 10.3 8.85 10.35 7.4 10.65 6.9 10.65 6.65 10.75 6.4 10.85 5.2 10.8 4.0 10.5 3.3 10.2 2.8 9.9 1.75 9.0 1.95 9.05 2.8 9.8 2.85 9.8 2.9 9.85 3.35 10.2 4.7 10.65 4.75 10.6 5.7 10.8 6.05 10.8 6.45 10.75 6.55 10.7 6.65 10.75 6.65 10.65 7.05 10.5 7.35 10.25 7.4 10.15 7.45 10.15 7.5 10.1 7.5 9.9 7.55 9.9 7.55 9.45 7.5 9.35 7.4 9.05 7.45 9.1 7.3 8.9 7.3 8.85 7.2 8.75 6.95 8.6 6.9 8.55 6.8 8.55 6.7 8.7 5.2 10.25 7.8 5.8 7.9 7.35 6.85 8.5 7.1 8.65 7.35 8.4 7.85 8.1 8.55 7.9 9.2 7.8 9.5 7.8 9.85 7.9 9.55 7.9 9.35 7.85 8.25 8.05 7.95 8.15 7.9 8.15 7.4 8.45 7.15 8.65 7.25 8.75 7.3 8.8 7.3 8.85 7.4 8.95 7.55 9.25 7.6 9.5 7.6 9.55 7.65 9.8 7.6 9.85 7.6 9.9 7.55 10.0 7.55 10.1 7.45 10.2 7.45 10.25 7.2 10.5 7.0 10.6 8.4 10.4 8.4 10.35 9.0 10.2 9.8 9.85 9.6 9.65 9.5 9.5 9.45 9.15 9.6 8.7 9.95 8.25 10.0 8.25 10.05 8.15 10.15 8.1 10.15 8.05 9.85 7.95 9.85 7.9 10.0 7.95 10.05 8.0 10.15 8.05 10.45 7.95 11.1 7.8 11.45 7.8 10.15 8.1 9.65 8.7 9.55 8.9 9.5 9.15 9.5 9.35 9.55 9.4 9.6 9.55 9.65 9.55 9.75 9.7 10.0 9.95 10.2 10.1 10.2 10.05 10.45 10.15 10.45 10.1 10.8 10.2 11.2 10.2 11.25 10.15 13.05 9.8 13.1 9.75 13.1 9.7 13.4 9.55 Q13.7 9.4 13.95 9.2 L14.25 9.1 M1.6 8.85 L1.55 8.8 1.6 8.8 1.85 8.75 1.0 7.55 0.6 6.8 0.5 6.4 0.25 4.55 0.25 4.5 0.6 4.7 0.85 3.55 1.1 2.95 1.55 2.2 2.45 1.05 3.7 4.4 3.65 4.35 3.75 4.65 3.65 4.7 3.65 4.6 3.7 4.55 2.45 1.2 2.3 1.35 2.3 1.4 1.25 2.8 0.8 3.95 0.55 5.4 0.55 5.95 0.6 6.0 0.65 6.5 0.8 6.85 1.0 7.15 1.05 7.15 1.3 7.45 1.55 7.6 1.6 7.55 1.7 7.65 1.85 7.65 2.35 7.55 2.7 7.4 3.05 7.05 3.25 6.75 3.3 6.75 3.45 6.4 3.5 6.4 3.35 6.75 3.3 6.8 3.05 7.15 2.95 7.25 2.5 7.55 2.3 7.6 2.05 7.7 1.8 7.75 1.75 7.7 1.7 7.7 1.5 7.65 1.4 7.6 1.15 7.4 0.7 6.8 0.8 7.05 1.15 7.7 1.2 7.7 1.95 8.75 2.15 8.75 1.6 8.85 M10.55 6.5 L13.1 4.9 15.2 4.3 15.3 4.9 15.35 5.0 15.4 4.95 15.5 4.9 15.55 4.9 15.5 4.95 15.45 4.95 15.05 5.45 14.7 6.2 14.55 6.85 14.55 6.8 14.45 6.75 14.0 6.85 13.95 6.85 13.75 6.95 13.65 6.95 13.1 4.9 11.9 6.4 10.8 6.85 10.55 6.5 M15.0 5.45 L15.3 5.0 15.2 4.7 13.85 5.4 13.95 6.8 14.55 6.7 14.55 6.65 14.65 6.2 15.0 5.45 M12.95 7.4 L13.4 7.05 13.65 6.95 13.4 7.1 13.0 7.4 12.85 7.55 12.8 7.55 12.85 7.45 12.95 7.4 M12.8 7.55 L12.6 7.75 12.45 7.95 12.55 8.0 12.8 8.15 13.15 8.45 12.65 8.15 12.55 8.1 12.55 8.05 12.4 8.0 12.1 7.95 12.05 7.85 11.55 7.85 11.5 7.8 12.0 7.8 12.3 7.9 12.4 7.95 12.55 7.75 12.75 7.55 12.8 7.55 M14.55 6.9 L14.55 6.85 14.6 6.9 14.55 6.9 M9.3 7.5 L8.6 7.75 9.1 7.45 9.3 7.5 M5.25 8.1 L4.7 8.2 4.65 7.95 4.7 7.95 4.4 7.3 4.15 6.95 4.15 6.85 3.85 6.5 4.0 6.5 4.65 7.6 4.8 8.15 5.25 8.05 5.25 8.1 M0.6 4.9 L0.6 4.75 0.25 4.55 0.35 4.75 0.45 5.8 0.5 5.8 0.5 5.45 0.55 5.0 0.6 4.9 M0.5 6.15 L0.55 6.25 0.5 5.8 0.5 6.15" fill="#000000" fill-rule="evenodd" stroke="none"/>
    <path d="M11.35 2.4 L11.8 2.45 13.1 4.9 10.95 3.0 11.35 2.4 M13.95 3.1 L15.15 3.45 15.1 3.85 15.15 4.1 15.2 4.2 15.15 3.75 15.15 3.45 16.0 0.55 16.0 0.5 16.1 0.55 15.25 3.5 15.25 3.75 15.3 3.75 15.35 4.6 15.4 4.55 15.5 4.9 15.4 4.95 15.35 5.0 15.3 4.9 15.2 4.3 13.1 4.9 13.65 6.95 13.75 6.95 13.95 6.85 14.0 6.85 14.45 6.75 14.55 6.8 14.55 6.85 14.7 6.2 15.05 5.45 15.45 4.95 15.5 4.95 15.55 4.9 15.85 4.8 15.6 5.0 15.55 5.0 15.25 5.35 14.8 6.3 14.7 6.65 14.7 7.1 14.8 7.15 14.8 7.3 14.9 7.3 14.95 7.5 15.1 7.45 15.15 7.6 15.2 7.6 15.3 7.5 15.35 7.6 15.45 7.55 15.6 7.4 15.5 7.3 15.6 7.2 15.55 7.05 15.75 6.4 16.05 5.8 16.3 5.5 17.2 4.8 17.25 4.7 17.55 3.95 17.45 4.95 16.6 6.9 16.05 7.5 Q15.95 7.6 15.8 7.65 L15.8 7.7 15.65 7.75 15.55 7.75 15.5 7.8 15.4 7.8 15.35 7.85 15.25 7.8 15.15 7.85 15.2 7.9 15.45 7.9 15.8 7.75 14.35 8.95 14.2 8.95 14.4 9.05 14.25 9.1 13.95 9.2 Q13.7 9.4 13.4 9.55 L13.1 9.7 13.1 9.75 13.05 9.8 11.25 10.15 11.2 10.2 10.8 10.2 10.45 10.1 10.45 10.15 10.2 10.05 10.2 10.1 10.0 9.95 9.75 9.7 9.65 9.55 9.6 9.55 9.55 9.4 9.5 9.35 9.5 9.15 9.55 8.9 9.65 8.7 10.15 8.1 11.45 7.8 11.5 7.8 11.55 7.85 12.05 7.85 12.1 7.95 12.4 8.0 12.55 8.05 12.55 8.1 12.65 8.15 13.15 8.45 13.2 8.45 13.35 8.55 13.5 8.6 13.45 8.5 13.55 8.65 13.6 8.7 13.55 8.35 13.95 8.05 14.1 8.0 14.05 7.9 14.4 7.7 14.9 7.6 14.8 7.3 14.8 7.4 14.7 7.2 14.7 7.1 14.6 7.0 14.6 6.95 14.3 6.95 14.15 7.0 14.1 6.95 13.9 7.05 13.85 7.05 13.7 7.1 13.4 7.25 12.95 7.65 12.9 7.6 12.75 7.75 12.55 8.0 12.45 7.95 12.6 7.75 12.8 7.55 12.85 7.55 13.0 7.4 13.4 7.1 13.65 6.95 13.4 7.05 12.95 7.4 11.9 6.4 13.1 4.9 13.95 3.1 M17.55 3.15 L17.65 3.2 17.65 3.25 17.2 3.65 17.1 3.75 17.0 3.95 16.25 4.55 16.15 3.75 16.25 3.25 16.6 2.35 16.4 1.2 16.8 1.8 17.0 2.35 16.95 2.45 17.1 2.85 17.2 3.5 17.2 3.65 17.25 3.5 17.25 3.45 17.55 3.15 M1.75 9.0 L1.6 8.85 2.15 8.75 1.95 8.75 1.2 7.7 1.15 7.7 0.8 7.05 0.7 6.8 1.15 7.4 1.4 7.6 1.65 8.0 1.75 8.0 2.4 8.8 2.85 8.8 1.75 9.0 M5.65 0.05 L8.0 2.9 7.8 5.8 9.6 5.0 9.95 5.5 10.55 6.5 10.8 6.85 11.4 7.7 9.3 7.5 9.1 7.45 8.8 7.45 7.9 7.35 7.8 5.8 5.35 6.85 4.0 6.5 3.85 6.5 4.15 6.85 4.15 6.95 4.4 7.3 4.7 7.95 4.65 7.95 4.7 8.2 5.25 8.1 5.25 8.3 4.9 8.3 4.05 8.5 4.45 8.35 4.4 8.15 4.5 8.1 4.15 7.4 4.2 7.3 4.05 7.05 3.65 6.6 3.7 6.55 3.5 6.4 3.45 6.4 3.3 6.75 3.25 6.75 3.05 7.05 2.7 7.4 2.35 7.55 1.85 7.65 1.7 7.65 1.6 7.55 1.55 7.6 1.3 7.45 1.05 7.15 1.0 7.15 0.8 6.85 0.65 6.5 0.6 6.0 0.55 5.95 0.55 5.4 0.8 3.95 1.25 2.8 2.3 1.4 2.3 1.35 2.45 1.2 3.7 4.55 3.65 4.6 3.65 4.7 3.45 4.8 3.35 4.35 3.25 4.1 3.3 4.05 2.4 1.7 2.4 1.6 2.35 1.65 1.25 3.25 0.7 5.6 0.85 5.65 0.8 6.25 0.9 6.65 1.0 6.65 1.15 7.0 1.4 7.25 1.45 7.2 1.8 7.45 1.85 7.45 1.9 7.35 2.05 7.35 2.35 7.25 2.75 7.0 2.8 7.05 2.95 6.9 3.2 6.35 3.1 6.3 2.95 6.2 1.55 5.85 1.1 5.85 0.95 5.8 7.8 5.8 5.65 0.05 M10.1 2.25 L10.45 2.3 10.2 2.35 10.1 2.25 M14.55 6.9 L14.6 6.9 14.55 6.85 14.55 6.9 M9.85 7.9 L9.85 7.95 10.15 8.05 10.15 8.1 10.05 8.15 10.0 8.25 9.95 8.2 9.85 8.25 9.85 8.15 9.7 8.1 9.65 8.05 9.15 8.05 9.15 8.0 8.4 8.1 8.4 8.2 7.95 8.25 7.25 8.75 7.15 8.65 7.4 8.45 7.9 8.15 7.95 8.15 8.25 8.05 9.35 7.85 9.55 7.9 9.85 7.9 M11.6 8.0 L11.35 8.05 11.05 8.0 10.55 8.15 10.5 8.1 10.25 8.25 9.9 8.55 9.65 9.05 9.7 9.05 9.65 9.25 9.7 9.25 9.7 9.45 9.75 9.45 9.8 9.6 9.95 9.55 10.0 9.65 10.05 9.65 10.15 9.75 10.25 9.7 10.35 9.8 10.45 9.75 10.55 9.8 10.65 9.7 10.85 9.8 11.1 9.8 11.15 9.7 11.5 9.7 12.65 9.5 13.0 9.4 13.2 9.3 13.7 9.3 13.55 9.25 12.85 8.85 12.9 8.75 12.7 8.65 12.75 8.55 12.55 8.45 12.55 8.4 12.35 8.3 12.35 8.2 12.15 8.15 12.15 8.1 11.9 8.1 11.9 8.0 11.6 8.0 M0.55 5.0 L0.5 5.45 0.5 5.8 0.45 5.8 0.35 4.75 0.25 4.55 0.6 4.75 0.6 4.9 0.4 4.85 0.55 5.0 M6.7 8.7 L6.8 8.55 6.9 8.55 6.95 8.6 7.2 8.75 7.3 8.85 7.3 8.9 7.45 9.1 7.4 9.05 7.5 9.35 7.55 9.45 7.55 9.9 7.5 9.9 7.5 10.1 7.45 10.15 7.4 10.15 7.35 10.25 7.05 10.5 6.65 10.65 6.65 10.75 6.55 10.7 6.45 10.75 6.05 10.8 5.7 10.8 4.75 10.6 4.7 10.65 3.35 10.2 2.9 9.85 2.85 9.8 2.8 9.8 1.95 9.05 2.55 9.25 3.05 9.7 3.15 9.6 3.45 9.9 4.15 10.2 4.2 10.1 6.15 10.55 6.45 10.5 6.45 10.4 6.7 10.35 7.1 10.1 7.2 10.15 7.2 9.9 7.3 9.85 7.3 9.7 7.25 9.55 7.3 9.5 7.2 9.4 7.3 9.3 7.2 9.2 7.25 9.1 7.1 8.95 7.1 8.9 6.85 8.75 6.7 8.7 M9.6 9.65 L9.8 9.85 9.0 10.2 8.4 10.35 8.4 10.4 7.0 10.6 7.2 10.5 7.45 10.25 7.45 10.2 7.9 10.15 8.95 9.9 9.6 9.65 M0.5 6.15 L0.5 5.8 0.55 6.25 0.5 6.15" fill="#7f6600" fill-rule="evenodd" stroke="none"/>
  </g>
</svg>
