<?xml version="1.0" encoding="UTF-8" standalone="no"?>
<svg xmlns:ffdec="https://www.free-decompiler.com/flash" xmlns:xlink="http://www.w3.org/1999/xlink" ffdec:objectType="shape" height="15.25px" width="13.65px" xmlns="http://www.w3.org/2000/svg">
  <g transform="matrix(1.0, 0.0, 0.0, 1.0, -2.5, 1.55)">
    <path d="M13.35 1.4 L13.75 1.4 14.15 1.45 14.35 1.45 15.35 1.4 15.4 1.4 15.4 1.45 15.35 1.55 15.1 3.75 15.2 3.65 15.2 3.45 16.15 3.4 11.9 7.1 12.2 3.6 11.75 2.35 11.8 2.35 11.8 2.4 12.3 2.55 11.8 2.35 11.8 2.3 11.85 2.15 11.65 2.0 11.75 1.85 11.5 1.7 11.35 1.65 11.45 1.5 11.3 1.35 11.1 0.8 11.0 0.35 11.0 0.1 11.1 0.2 11.25 0.35 11.45 0.55 11.75 0.75 12.2 1.05 12.4 1.15 12.75 1.3 13.35 1.4 M15.05 4.55 L14.8 7.0 14.65 7.75 14.35 8.65 14.1 9.15 13.9 9.45 13.6 9.75 13.4 9.15 13.35 9.1 13.35 9.0 13.4 8.85 12.85 7.0 14.0 5.75 14.15 5.5 14.9 4.65 15.05 4.55 M2.5 5.05 L11.9 7.1 7.55 7.9 6.35 7.1 6.3 6.75 6.15 6.7 5.6 6.35 5.4 6.25 5.25 6.15 5.15 6.15 5.1 6.1 4.55 6.0 4.3 6.0 4.8 9.75 4.7 9.45 4.7 9.4 4.65 9.15 4.25 6.05 2.5 5.05 M11.9 7.1 L14.0 10.8 14.05 10.85 12.85 10.45 12.95 10.4 13.0 10.3 13.0 10.25 12.8 10.4 11.6 11.15 10.5 12.15 10.45 12.3 10.35 12.3 10.3 12.3 10.2 12.25 10.15 12.25 9.65 12.1 9.4 12.05 9.35 12.05 9.4 12.0 7.7 12.1 7.65 12.1 7.7 12.0 8.85 10.9 10.3 10.95 10.0 10.85 9.7 10.8 9.05 10.8 Q9.2 10.75 9.3 10.65 L10.8 10.65 10.9 9.6 10.45 9.5 11.9 7.1 M5.9 11.7 L5.75 11.55 5.55 11.3 5.45 11.15 5.4 11.1 5.25 10.95 5.05 10.45 4.95 10.25 4.8 9.75 4.95 10.1 4.95 10.2 5.0 10.2 5.3 10.85 5.35 10.85 5.45 11.0 5.7 11.3 5.8 11.3 5.95 11.5 6.05 11.45 6.25 11.6 6.45 11.45 6.6 11.55 6.85 11.35 6.95 11.4 7.05 11.3 6.9 11.6 6.8 11.75 6.6 11.95 6.5 11.95 6.1 11.8 5.9 11.7 M10.35 10.95 L10.5 11.0 10.55 11.0 10.5 10.95 10.35 10.95 M4.1 4.7 L3.75 2.05 3.8 2.05 4.15 4.8 4.1 4.7 M3.8 2.05 L4.5 2.05 4.9 2.05 5.55 2.0 7.5 1.65 8.35 1.35 9.3 0.75 9.55 0.55 9.9 0.3 9.9 0.2 10.0 0.2 9.9 0.3 9.85 0.35 9.6 0.55 9.6 0.6 9.3 0.8 9.2 0.9 8.85 1.1 8.9 1.1 8.25 1.5 7.6 1.7 5.25 2.1 3.9 2.15 3.9 2.1 3.8 2.05" fill="#7f6600" fill-rule="evenodd" stroke="none"/>
    <path d="M11.3 1.35 L11.45 1.5 11.35 1.65 11.5 1.7 11.75 1.85 11.65 2.0 11.85 2.15 11.8 2.3 11.8 2.35 11.7 2.3 11.55 2.2 11.55 2.15 11.35 1.65 11.3 1.35 M10.45 -1.55 L11.9 7.1 2.5 5.05 4.1 4.7 4.15 4.8 3.8 2.05 3.9 2.1 3.9 2.15 5.25 2.1 7.6 1.7 8.25 1.5 8.9 1.1 8.85 1.1 9.2 0.9 9.3 0.8 9.6 0.6 9.6 0.55 9.85 0.35 9.9 0.3 10.0 0.2 9.9 0.2 10.45 -1.55 M4.8 9.75 L4.3 6.0 4.55 6.0 5.1 6.1 5.15 6.15 5.25 6.15 5.4 6.25 5.6 6.35 6.15 6.7 6.3 6.75 6.35 7.1 7.55 7.9 11.9 7.1 5.9 13.7 6.35 11.95 6.45 12.0 6.5 11.95 6.6 11.95 6.8 11.75 6.9 11.6 7.05 11.3 6.95 11.4 6.85 11.35 6.6 11.55 6.45 11.45 6.25 11.6 6.05 11.45 5.95 11.5 5.8 11.3 5.7 11.3 5.45 11.0 5.35 10.85 5.3 10.85 5.0 10.2 4.95 10.2 4.95 10.1 4.8 9.75 M10.45 9.5 L10.9 9.6 10.8 10.65 9.3 10.65 10.45 9.5" fill="#ffcc00" fill-rule="evenodd" stroke="none"/>
    <path d="M13.35 1.4 L12.75 1.3 12.4 1.15 12.2 1.05 11.75 0.75 11.45 0.55 11.25 0.35 11.75 0.75 12.4 1.15 13.35 1.4 M11.1 0.2 L11.0 0.1 11.0 0.35 11.1 0.8 11.3 1.35 11.35 1.65 11.55 2.15 11.55 2.2 11.7 2.3 11.8 2.35 12.3 2.55 11.8 2.4 11.8 2.35 11.75 2.35 12.2 3.6 11.9 7.1 16.15 3.4 15.1 4.55 14.75 7.75 14.45 8.6 14.1 9.25 13.9 9.55 13.7 9.75 14.0 10.8 11.9 7.1 10.45 -1.55 11.1 0.2 M15.2 3.45 L15.2 3.65 15.1 3.75 15.35 1.55 15.4 1.45 15.2 3.45 M14.35 1.45 L14.15 1.45 13.75 1.4 14.35 1.45 M15.05 4.55 L14.9 4.65 14.15 5.5 14.0 5.75 12.85 7.0 13.4 8.85 13.35 9.0 13.35 9.1 13.4 9.15 13.6 9.75 13.9 9.45 14.1 9.15 14.35 8.65 14.65 7.75 14.8 7.0 15.05 4.55 M4.7 9.45 L4.8 9.75 4.95 10.25 5.05 10.45 5.25 10.95 5.15 10.75 5.05 10.45 5.0 10.45 4.95 10.25 4.75 9.75 4.7 9.45 M12.85 10.45 L11.55 11.25 10.45 12.3 10.35 12.35 10.35 12.3 10.45 12.3 10.5 12.15 11.6 11.15 12.8 10.4 13.0 10.25 13.0 10.3 12.95 10.4 12.85 10.45 M10.2 12.25 L10.2 12.3 10.15 12.25 9.4 12.05 9.65 12.1 10.15 12.25 10.2 12.25 M9.35 12.05 L7.7 12.1 9.4 12.0 9.35 12.05 M7.65 12.1 L5.9 13.7 11.9 7.1 10.45 9.5 9.3 10.65 Q9.2 10.75 9.05 10.8 L9.7 10.8 10.0 10.85 10.3 10.95 8.85 10.9 7.7 12.0 7.65 12.1 M6.35 11.95 L6.05 11.8 5.9 11.7 6.1 11.8 6.5 11.95 6.45 12.0 6.35 11.95 M5.55 11.3 L5.4 11.1 5.45 11.15 5.55 11.3 M10.35 10.95 L10.5 10.95 10.55 11.0 10.5 11.0 10.35 10.95 M4.5 2.05 L5.55 2.0 4.9 2.05 4.5 2.05 M9.55 0.55 L9.9 0.2 9.9 0.3 9.55 0.55" fill="#000000" fill-rule="evenodd" stroke="none"/>
  </g>
</svg>
