<?xml version="1.0" encoding="UTF-8" standalone="no"?>
<svg xmlns:ffdec="https://www.free-decompiler.com/flash" xmlns:xlink="http://www.w3.org/1999/xlink" ffdec:objectType="shape" height="14.7px" width="15.05px" xmlns="http://www.w3.org/2000/svg">
  <g transform="matrix(1.0, 0.0, 0.0, 1.0, -2.1, 1.55)">
    <path d="M11.4 0.4 L11.5 0.5 11.65 0.6 12.45 1.05 12.6 1.15 12.8 1.2 13.05 1.3 13.5 1.4 13.65 1.4 14.95 1.55 15.05 1.55 16.2 1.5 16.2 1.6 15.95 3.6 15.95 3.8 16.0 3.6 17.15 3.6 11.5 7.2 13.65 3.7 14.75 3.75 14.85 2.85 14.95 2.85 14.8 4.05 15.2 4.05 15.35 2.5 16.1 1.7 15.85 1.7 16.0 1.65 15.2 1.7 15.2 1.75 14.85 1.75 14.85 1.7 13.1 1.45 13.1 1.55 13.0 1.5 12.85 1.45 13.0 1.45 12.9 1.4 12.85 1.45 12.3 1.25 11.7 0.9 11.3 0.6 11.3 0.55 11.05 0.4 11.05 0.55 11.65 2.25 11.85 2.35 12.4 3.7 11.5 7.2 10.45 -1.55 11.15 0.15 11.05 0.1 11.0 0.1 11.2 0.25 11.4 0.45 11.4 0.4 M15.05 5.35 L15.85 4.7 15.85 4.8 15.6 6.7 15.55 7.4 15.05 8.85 14.4 9.8 14.05 10.05 13.9 9.85 13.8 9.65 13.75 9.4 13.85 9.35 13.8 9.2 13.9 9.2 13.85 9.1 13.8 9.15 13.8 9.2 13.7 9.25 13.75 9.15 13.75 9.0 13.8 8.95 13.95 8.75 14.25 7.95 14.4 7.3 14.5 5.95 14.65 5.7 14.5 7.2 14.35 7.95 14.15 8.5 13.95 8.9 14.15 8.95 14.2 8.75 14.45 8.3 14.65 7.2 14.85 7.2 15.05 5.35 M7.7 11.45 L8.6 11.5 8.65 11.4 9.4 11.4 10.0 11.55 10.5 11.75 10.55 11.4 11.25 10.9 12.3 10.4 12.25 10.25 12.65 10.1 12.45 10.0 12.15 10.1 10.8 10.85 10.55 11.05 10.5 11.0 10.45 10.95 10.5 10.95 10.5 10.9 12.05 10.05 10.85 9.6 10.45 9.5 11.5 7.2 14.6 11.2 13.2 10.65 13.3 10.65 13.35 10.55 12.25 11.1 11.95 11.25 11.65 11.4 11.25 11.6 10.45 12.2 10.45 12.3 10.4 12.35 9.6 12.0 9.1 11.9 9.0 11.9 9.05 11.85 8.05 11.8 8.05 11.85 7.4 11.85 7.4 11.8 7.35 11.8 7.7 11.45 M14.0 9.1 L13.95 8.9 13.85 9.1 14.0 9.1 M3.65 3.85 L3.35 1.95 3.4 1.95 3.4 2.0 3.65 3.85 M3.4 1.95 L7.2 1.6 7.85 1.45 8.2 1.3 8.85 0.9 9.35 0.65 9.05 0.85 8.65 1.05 8.7 1.1 7.8 1.5 5.4 1.95 3.45 2.0 3.4 1.95 M9.8 0.25 L9.85 0.2 10.0 0.15 9.8 0.25 M11.5 7.2 L7.3 7.7 5.9 6.8 5.9 6.55 5.35 6.2 4.15 5.7 3.95 5.7 3.9 5.75 4.15 8.0 3.85 5.75 2.1 4.7 11.5 7.2 M4.25 8.7 L4.3 8.7 4.75 10.1 4.8 10.1 5.15 10.65 5.4 10.85 5.55 11.05 5.75 11.25 5.85 11.2 6.05 11.3 6.1 11.25 6.3 11.35 6.5 11.3 6.35 11.5 6.15 11.55 6.05 11.5 5.95 11.5 5.9 11.4 5.8 11.45 5.7 11.4 5.45 11.1 5.3 11.0 5.1 10.75 4.9 10.5 4.7 10.1 4.45 9.5 4.25 8.7" fill="#7f6600" fill-rule="evenodd" stroke="none"/>
    <path d="M10.45 -1.55 L11.5 7.2 12.4 3.7 11.85 2.35 11.65 2.25 11.05 0.55 11.05 0.4 11.3 0.55 11.3 0.6 11.7 0.9 12.3 1.25 12.85 1.45 12.9 1.4 13.0 1.45 12.85 1.45 13.0 1.5 13.1 1.55 13.1 1.45 14.85 1.7 14.85 1.75 15.2 1.75 15.2 1.7 16.0 1.65 15.85 1.7 16.1 1.7 15.35 2.5 15.2 4.05 14.8 4.05 14.95 2.85 14.85 2.85 14.75 3.75 13.65 3.7 11.5 7.2 5.55 13.15 6.05 11.5 6.15 11.55 6.35 11.5 6.5 11.3 6.3 11.35 6.1 11.25 6.05 11.3 5.85 11.2 5.75 11.25 5.55 11.05 5.4 10.85 5.15 10.65 4.8 10.1 4.75 10.1 4.3 8.7 4.25 8.7 4.15 8.0 3.9 5.75 3.95 5.7 4.15 5.7 5.35 6.2 5.9 6.55 5.9 6.8 7.3 7.7 11.5 7.2 2.1 4.7 3.7 4.45 3.65 3.85 3.4 2.0 3.4 1.95 3.45 2.0 5.4 1.95 7.8 1.5 8.7 1.1 8.65 1.05 9.05 0.85 9.35 0.65 9.8 0.25 10.0 0.15 9.85 0.2 10.45 -1.55 M12.0 2.4 L12.3 2.55 12.6 2.6 12.0 2.4 M14.65 5.7 L15.05 5.35 14.85 7.2 14.65 7.2 14.45 8.3 14.2 8.75 14.15 8.95 13.95 8.9 14.15 8.5 14.35 7.95 14.5 7.2 14.65 5.7 M13.75 9.0 L13.15 7.15 13.35 7.0 14.5 5.95 14.4 7.3 14.25 7.95 13.95 8.75 13.8 8.95 13.75 9.0 M10.5 11.0 L10.55 11.05 10.8 10.85 12.15 10.1 12.45 10.0 12.65 10.1 12.25 10.25 12.3 10.4 11.25 10.9 10.55 11.4 10.5 11.75 10.0 11.55 9.4 11.4 8.65 11.4 8.6 11.5 7.7 11.45 8.6 10.75 8.8 10.75 9.9 10.85 10.45 11.0 10.5 11.0 M10.45 9.5 L10.85 9.6 12.05 10.05 10.5 10.9 10.5 10.95 10.45 10.95 9.9 10.8 8.95 10.7 8.9 10.7 10.45 9.5 M13.8 9.2 L13.8 9.15 13.85 9.1 13.9 9.2 13.8 9.2 13.85 9.35 13.75 9.4 13.7 9.25 13.8 9.2 M14.0 9.1 L13.85 9.1 13.95 8.9 14.0 9.1" fill="#ffcc00" fill-rule="evenodd" stroke="none"/>
    <path d="M11.4 0.4 L11.4 0.45 11.2 0.25 11.0 0.1 11.05 0.1 11.15 0.15 11.4 0.4 M11.5 7.2 L17.15 3.6 15.85 4.8 15.85 4.7 15.05 5.35 14.65 5.7 14.5 5.95 13.35 7.0 13.15 7.15 13.75 9.0 13.75 9.15 13.7 9.25 13.75 9.4 13.8 9.65 13.9 9.85 14.05 10.05 14.4 9.8 15.05 8.85 15.55 7.4 15.6 6.7 15.7 6.7 15.55 7.4 15.2 8.65 14.7 9.5 14.2 10.05 14.6 11.2 11.5 7.2 10.45 9.5 8.9 10.7 8.95 10.7 9.9 10.8 10.45 10.95 10.5 11.0 10.45 11.0 9.9 10.85 8.8 10.75 8.6 10.75 7.7 11.45 7.35 11.8 7.4 11.8 7.4 11.85 8.05 11.85 8.05 11.8 9.05 11.85 9.0 11.9 7.4 11.85 5.55 13.15 11.5 7.2 M16.0 3.6 L15.95 3.8 15.95 3.6 16.0 3.6 M16.2 1.5 L15.05 1.55 16.2 1.45 16.2 1.5 M12.0 2.4 L12.6 2.6 12.3 2.55 12.0 2.4 M10.4 12.35 L10.45 12.3 10.45 12.2 11.25 11.6 11.65 11.4 10.4 12.35 M12.25 11.1 L13.35 10.55 13.3 10.65 13.2 10.65 12.25 11.1 M7.2 1.6 L8.2 1.3 7.85 1.45 7.2 1.6 M5.7 11.4 L5.6 11.3 5.45 11.1 5.7 11.4 M5.3 11.0 L5.45 11.1 5.4 11.15 5.3 11.0 M5.1 10.75 L5.0 10.7 4.9 10.5 5.1 10.75 M4.9 10.5 L4.75 10.25 4.7 10.1 4.9 10.5 M5.95 11.5 L5.8 11.45 5.9 11.4 5.95 11.5" fill="#000000" fill-rule="evenodd" stroke="none"/>
  </g>
</svg>
