<?xml version="1.0" encoding="UTF-8" standalone="no"?>
<svg xmlns:ffdec="https://www.free-decompiler.com/flash" xmlns:xlink="http://www.w3.org/1999/xlink" ffdec:objectType="shape" height="14.2px" width="15.95px" xmlns="http://www.w3.org/2000/svg">
  <g transform="matrix(1.0, 0.0, 0.0, 1.0, -2.1, 1.55)">
    <path d="M16.9 1.65 L15.4 1.7 13.55 1.5 12.6 1.2 11.7 0.7 11.6 0.6 11.3 0.4 11.25 0.35 11.0 0.15 11.0 0.3 11.65 2.25 11.95 2.4 12.55 3.8 11.0 7.25 10.45 -1.55 11.2 0.15 11.5 0.45 11.55 0.5 11.8 0.65 12.95 1.25 13.6 1.4 13.95 1.45 13.6 1.45 15.45 1.6 16.9 1.55 16.9 1.65 16.65 3.8 16.6 3.9 16.5 4.0 16.25 4.1 16.5 2.0 16.9 1.65 M9.8 0.25 L9.7 0.4 8.75 1.0 8.1 1.25 7.35 1.55 5.2 1.85 3.35 1.85 3.7 4.35 3.65 4.25 3.6 4.2 3.3 1.8 5.2 1.8 7.7 1.4 8.1 1.25 9.75 0.3 9.8 0.25 M2.1 4.35 L11.0 7.25 13.4 7.35 14.05 9.25 14.15 9.2 14.65 8.05 14.7 7.85 14.75 7.9 14.65 8.4 14.4 9.0 14.1 9.4 13.95 9.55 14.2 10.05 14.3 10.0 14.6 9.75 14.9 9.35 15.0 9.15 15.15 9.2 15.4 8.65 15.7 7.45 15.85 7.45 16.15 5.15 16.35 5.0 16.5 4.95 16.5 5.05 16.25 6.95 16.15 7.55 15.85 8.7 15.8 8.7 15.15 9.9 15.1 9.9 15.05 10.0 14.8 10.2 14.7 10.25 14.45 10.4 14.55 10.35 15.0 11.6 13.45 10.9 13.55 10.85 13.0 11.1 12.85 11.15 12.65 11.2 11.8 11.5 11.65 11.55 11.55 11.65 11.3 11.75 10.4 12.35 9.95 12.15 9.8 12.05 9.55 11.9 9.05 11.8 7.3 11.5 7.25 11.55 7.2 11.5 7.2 11.4 7.4 11.25 9.2 11.5 9.9 11.7 10.3 11.9 10.35 11.95 10.45 12.0 10.45 11.9 11.25 11.4 12.5 10.9 12.45 10.8 13.25 10.5 12.55 10.2 12.1 10.3 11.2 10.65 10.45 11.05 10.45 10.95 10.9 10.7 11.95 10.25 12.05 10.3 12.15 10.2 10.45 9.5 11.0 7.25 7.15 7.45 5.7 6.5 5.7 6.25 4.15 5.45 3.95 5.4 3.8 5.4 4.2 8.25 4.25 8.25 4.55 9.4 4.7 9.6 4.75 9.6 4.95 10.05 5.4 10.6 5.5 10.55 5.85 10.9 5.95 10.85 6.25 11.0 6.05 11.15 6.0 11.15 5.9 11.1 5.75 11.05 5.7 11.0 5.55 10.8 5.45 10.85 5.25 10.65 4.75 10.0 4.6 9.7 4.4 9.15 4.25 8.7 4.15 8.4 3.8 5.45 2.1 4.35" fill="#7f6600" fill-rule="evenodd" stroke="none"/>
    <path d="M10.45 -1.55 L11.0 7.25 12.55 3.8 11.95 2.4 11.65 2.25 11.0 0.3 11.0 0.15 11.25 0.35 11.3 0.4 11.6 0.6 11.7 0.7 12.6 1.2 13.55 1.5 15.4 1.7 16.9 1.65 16.5 2.0 16.25 4.1 16.5 4.0 16.6 3.9 16.65 3.8 18.05 3.85 11.0 7.25 2.1 4.35 3.6 4.2 3.65 4.25 3.7 4.35 3.35 1.85 5.2 1.85 7.35 1.55 8.1 1.25 8.75 1.0 9.7 0.4 9.8 0.25 10.45 -1.55 M15.25 4.2 L15.35 2.95 15.3 3.0 15.2 3.9 15.25 4.2 M14.75 7.9 L14.8 7.85 15.05 5.9 15.9 5.25 16.15 5.15 15.85 7.45 15.7 7.45 15.4 8.65 15.15 9.2 15.0 9.15 14.9 9.35 14.6 9.75 14.3 10.0 14.2 10.05 13.95 9.55 14.1 9.4 14.4 9.0 14.65 8.4 14.75 7.9 M5.4 12.65 L5.9 11.1 6.0 11.15 6.05 11.15 6.25 11.0 5.95 10.85 5.85 10.9 5.5 10.55 5.4 10.6 4.95 10.05 4.75 9.6 4.7 9.6 4.55 9.4 4.25 8.25 4.2 8.25 3.8 5.4 3.95 5.4 4.15 5.45 5.7 6.25 5.7 6.5 7.15 7.45 11.0 7.25 5.4 12.65 M14.7 7.85 L14.65 8.05 14.15 9.2 14.05 9.25 13.4 7.35 14.9 6.1 14.8 7.4 14.7 7.85 M10.45 9.5 L12.15 10.2 12.05 10.3 11.95 10.25 10.9 10.7 10.45 10.95 10.1 10.8 9.55 10.65 8.85 10.55 8.75 10.55 10.45 9.5 M10.45 11.05 L11.2 10.65 12.1 10.3 12.55 10.2 13.25 10.5 12.45 10.8 12.5 10.9 11.25 11.4 10.45 11.9 10.45 12.0 10.35 11.95 10.3 11.9 9.9 11.7 9.2 11.5 7.4 11.25 8.4 10.55 10.05 10.85 10.45 11.05 M5.9 8.1 L6.05 8.8 6.15 9.05 5.9 8.1 M6.4 9.55 L6.5 9.75 6.75 10.05 6.4 9.55 6.15 9.05 6.25 9.35 6.4 9.55" fill="#ffcc00" fill-rule="evenodd" stroke="none"/>
    <path d="M15.45 1.6 L13.6 1.45 13.95 1.45 13.6 1.4 15.45 1.6 M11.8 0.65 L11.55 0.5 11.5 0.45 11.8 0.65 M11.0 7.25 L18.05 3.85 16.5 5.05 16.5 4.95 16.35 5.0 16.15 5.15 15.9 5.25 15.05 5.9 14.8 7.85 14.75 7.9 14.7 7.85 14.8 7.4 14.9 6.1 13.4 7.35 11.0 7.25 10.45 9.5 8.75 10.55 8.85 10.55 9.55 10.65 10.1 10.8 10.45 10.95 10.45 11.05 10.05 10.85 8.4 10.55 7.4 11.25 7.2 11.4 7.2 11.5 7.25 11.55 7.3 11.5 9.05 11.8 9.55 11.9 9.8 12.05 9.05 11.8 7.25 11.55 5.4 12.65 11.0 7.25 M15.25 4.2 L15.2 3.9 15.3 3.0 15.35 2.95 15.25 4.2 M15.85 8.7 L15.3 9.7 15.15 9.9 15.8 8.7 15.85 8.7 M15.05 10.0 L14.9 10.15 14.8 10.2 15.05 10.0 M14.7 10.25 L14.55 10.35 14.45 10.4 14.7 10.25 M13.45 10.9 L13.0 11.1 13.55 10.85 13.45 10.9 M11.55 11.65 Q11.4 11.7 11.3 11.8 L10.4 12.35 11.3 11.75 11.55 11.65 M5.7 11.0 L5.45 10.85 5.55 10.8 5.7 11.0 M4.6 9.7 L4.5 9.5 4.4 9.15 4.3 8.95 4.25 8.7 4.4 9.15 4.6 9.7 M16.15 7.55 L16.25 6.95 16.3 6.9 16.15 7.55 M6.4 9.55 L6.75 10.05 6.5 9.75 6.4 9.55 6.25 9.35 6.15 9.05 6.4 9.55 M5.9 8.1 L6.15 9.05 6.05 8.8 5.9 8.1" fill="#000000" fill-rule="evenodd" stroke="none"/>
  </g>
</svg>
