<?xml version="1.0" encoding="UTF-8" standalone="no"?>
<svg xmlns:ffdec="https://www.free-decompiler.com/flash" xmlns:xlink="http://www.w3.org/1999/xlink" ffdec:objectType="shape" height="13.85px" width="16.35px" xmlns="http://www.w3.org/2000/svg">
  <g transform="matrix(1.0, 0.0, 0.0, 1.0, -2.2, 1.55)">
    <path d="M15.8 1.7 L15.8 1.75 13.7 1.5 12.95 1.3 12.75 1.15 12.95 1.25 13.5 1.4 13.9 1.5 14.45 1.55 15.4 1.65 15.65 1.7 15.8 1.7 15.8 1.65 16.35 1.7 17.5 1.65 17.45 1.7 17.15 3.95 17.15 4.0 17.1 4.1 17.0 4.15 17.3 1.85 17.45 1.7 16.25 1.75 15.8 1.7 M12.75 1.15 L12.45 1.05 12.15 0.85 12.0 0.8 11.8 0.65 12.0 0.75 12.05 0.8 12.15 0.85 12.75 1.15 M11.55 0.5 L11.3 0.35 11.3 0.3 11.55 0.5 M9.95 0.1 L10.0 0.1 9.5 0.5 9.3 0.6 9.0 0.8 8.75 0.9 8.55 1.05 8.15 1.25 7.5 1.45 7.4 1.45 7.1 1.55 5.85 1.7 5.0 1.7 6.9 1.5 7.05 1.5 7.6 1.4 8.75 0.9 9.5 0.45 9.8 0.2 9.95 0.1 M4.95 1.7 L3.7 1.75 3.55 1.7 3.7 1.8 4.0 4.25 3.9 4.2 3.85 4.1 3.85 4.0 3.55 1.7 3.55 1.65 4.95 1.7 M2.2 4.15 L10.55 7.25 18.55 4.05 17.0 5.1 16.65 7.85 16.4 8.75 16.1 9.35 15.8 9.85 15.25 10.45 15.1 10.6 14.95 10.7 15.4 12.1 13.65 11.2 12.4 11.45 11.8 11.65 11.65 11.75 10.45 12.3 9.2 11.7 8.85 11.6 8.85 11.55 7.35 11.2 7.2 11.15 7.2 11.2 7.3 11.2 5.55 12.1 6.1 10.75 5.55 10.4 5.15 9.9 4.85 9.4 4.75 9.15 4.7 9.15 4.55 8.75 4.3 7.85 4.0 5.35 2.2 4.15 M14.25 9.7 L14.25 9.75 14.6 10.55 15.05 10.25 15.15 10.3 15.4 10.0 15.8 9.4 15.85 9.4 15.95 9.3 16.25 8.6 16.4 7.85 16.5 7.85 16.9 5.05 16.5 5.25 15.3 6.0 15.2 6.25 13.8 7.25 14.45 9.4 14.25 9.7 M12.6 10.35 L12.2 10.35 10.45 9.5 8.75 10.4 8.4 10.4 7.9 10.6 7.35 10.95 7.65 11.05 9.05 11.35 9.7 11.6 10.45 12.0 10.55 11.95 10.7 11.85 11.55 11.45 13.3 11.0 13.6 10.95 12.6 10.35 M6.8 9.85 L6.65 9.6 7.45 7.55 5.75 6.4 5.7 6.15 4.15 5.25 4.45 7.85 4.6 8.35 4.65 8.35 4.9 9.1 5.1 9.5 5.2 9.65 5.25 9.65 5.6 10.1 5.75 10.25 5.95 10.4 6.05 10.35 6.45 10.6 6.6 10.35 6.8 9.9 6.8 9.85" fill="#7f6600" fill-rule="evenodd" stroke="none"/>
    <path d="M12.75 1.15 L12.95 1.3 13.7 1.5 15.8 1.75 15.8 1.7 16.25 1.75 17.45 1.7 17.3 1.85 17.0 4.15 17.1 4.1 17.15 4.0 17.15 3.95 18.55 4.05 10.55 7.25 2.2 4.15 3.85 4.0 3.85 4.1 3.9 4.2 4.0 4.25 3.7 1.8 3.55 1.7 3.7 1.75 4.95 1.7 5.0 1.7 5.85 1.7 7.1 1.55 7.4 1.45 7.5 1.45 8.15 1.25 8.55 1.05 8.75 0.9 9.0 0.8 9.3 0.6 9.5 0.5 10.0 0.1 9.95 0.1 9.85 0.15 10.55 -1.55 11.25 0.2 11.1 0.15 11.3 0.3 11.3 0.35 11.55 0.5 11.8 0.65 12.0 0.8 12.15 0.85 12.45 1.05 12.75 1.15 M15.5 4.25 L15.65 3.1 15.6 3.15 15.5 3.95 15.5 4.25 M15.3 6.0 L16.5 5.25 16.9 5.05 16.5 7.85 16.4 7.85 16.25 8.6 15.95 9.3 15.85 9.4 15.8 9.4 15.4 10.0 15.15 10.3 15.05 10.25 14.6 10.55 14.25 9.75 14.25 9.7 14.45 9.45 14.8 8.85 15.1 7.8 15.3 6.0 M14.45 9.4 L13.8 7.25 15.2 6.25 15.05 7.7 14.85 8.5 14.45 9.4 M8.4 10.4 L9.45 10.65 10.15 10.9 10.45 11.05 10.55 11.0 12.2 10.45 12.35 10.45 12.6 10.35 13.6 10.95 13.3 11.0 11.55 11.45 10.7 11.85 10.55 11.95 10.45 12.0 9.7 11.6 9.05 11.35 7.65 11.05 7.35 10.95 7.9 10.6 8.4 10.4 M12.2 10.35 L11.0 10.7 10.45 10.95 9.6 10.6 8.85 10.4 8.75 10.4 10.45 9.5 12.2 10.35 M5.35 3.1 L5.5 4.35 5.5 4.05 5.4 3.15 5.35 3.1 M6.65 9.6 L6.6 9.45 6.55 9.5 6.05 8.45 6.1 8.65 6.55 9.55 6.65 9.65 6.8 9.85 6.8 9.9 6.6 10.35 6.45 10.6 6.05 10.35 5.95 10.4 5.75 10.25 5.6 10.1 5.25 9.65 5.2 9.65 5.1 9.5 4.9 9.1 4.65 8.35 4.6 8.35 4.45 7.85 4.15 5.25 5.7 6.15 5.9 7.8 6.05 8.45 5.75 6.4 7.45 7.55 6.65 9.6" fill="#ffcc00" fill-rule="evenodd" stroke="none"/>
    <path d="M15.8 1.7 L15.65 1.7 15.4 1.65 14.45 1.55 13.9 1.5 13.5 1.4 12.95 1.25 12.75 1.15 13.5 1.4 14.45 1.55 15.8 1.65 15.8 1.7 M11.3 0.3 L11.1 0.15 11.25 0.2 11.3 0.3 M9.85 0.15 L9.95 0.1 9.8 0.2 9.85 0.15 M15.5 4.25 L15.5 3.95 15.6 3.15 15.65 3.1 15.5 4.25 M15.3 6.0 L15.1 7.8 14.8 8.85 14.45 9.45 14.25 9.7 14.45 9.4 14.85 8.5 15.05 7.7 15.2 6.25 15.3 6.0 M16.1 9.35 L15.95 9.65 15.8 9.85 15.45 10.3 15.25 10.45 15.8 9.85 16.1 9.35 M13.65 11.2 L12.15 11.55 11.65 11.75 11.8 11.65 12.4 11.45 13.65 11.2 M8.85 11.6 L7.3 11.2 7.2 11.2 7.2 11.15 7.35 11.2 8.85 11.55 8.85 11.6 M5.55 10.4 L5.45 10.3 5.15 9.9 4.9 9.55 4.85 9.4 4.7 9.15 4.75 9.15 4.85 9.4 5.15 9.9 5.55 10.4 M12.6 10.35 L12.35 10.45 12.2 10.45 10.55 11.0 10.45 11.05 10.15 10.9 9.45 10.65 8.4 10.4 8.75 10.4 8.85 10.4 9.6 10.6 10.45 10.95 11.0 10.7 12.2 10.35 12.6 10.35 M6.9 1.5 L7.6 1.4 7.05 1.5 6.9 1.5 M6.8 9.85 L6.65 9.65 6.55 9.55 6.1 8.65 6.05 8.45 6.55 9.5 6.6 9.45 6.65 9.6 6.8 9.85 M5.35 3.1 L5.4 3.15 5.5 4.05 5.5 4.35 5.35 3.1 M5.75 6.4 L6.05 8.45 5.9 7.8 5.7 6.15 5.75 6.4" fill="#000000" fill-rule="evenodd" stroke="none"/>
  </g>
</svg>
