<?xml version="1.0" encoding="UTF-8" standalone="no"?>
<svg xmlns:ffdec="https://www.free-decompiler.com/flash" xmlns:xlink="http://www.w3.org/1999/xlink" ffdec:objectType="shape" height="14.15px" width="16.1px" xmlns="http://www.w3.org/2000/svg">
  <g transform="matrix(1.0, 0.0, 0.0, 1.0, -2.85, 1.55)">
    <path d="M11.25 0.2 L11.25 0.25 11.8 0.65 12.3 0.9 12.6 1.1 13.35 1.4 15.9 1.8 17.75 1.8 17.4 4.15 17.4 4.25 17.35 4.3 17.7 1.85 15.9 1.85 13.85 1.55 13.75 1.55 13.15 1.4 12.9 1.3 12.55 1.1 12.3 1.0 11.3 0.35 11.3 0.3 11.05 0.15 11.1 0.15 11.25 0.2 M18.95 4.35 L17.25 5.45 16.75 8.6 16.5 9.4 16.25 9.85 15.95 10.3 15.45 10.8 15.2 11.0 15.05 11.05 14.95 11.1 14.9 11.1 14.7 11.0 15.0 10.8 15.1 10.85 15.3 10.75 15.5 10.55 15.65 10.35 15.75 10.35 16.2 9.75 16.4 9.2 16.45 9.2 16.65 8.5 16.75 8.25 17.15 5.35 16.95 5.4 16.5 5.6 15.35 6.25 15.3 6.5 13.8 7.45 10.05 7.25 18.95 4.35 M15.5 12.6 L13.7 11.5 13.75 11.5 13.75 11.45 13.7 11.5 13.65 11.5 13.25 11.6 12.2 11.75 12.15 11.7 11.7 11.8 11.4 11.9 10.5 12.3 10.2 12.15 10.05 12.05 10.0 12.0 9.5 11.7 9.0 11.45 7.3 10.85 7.4 10.95 5.8 11.65 6.3 10.4 6.4 10.45 6.4 10.4 6.3 10.35 5.95 10.1 5.8 10.0 5.5 9.5 5.45 9.5 5.3 9.3 4.95 8.45 4.7 7.6 4.65 6.95 4.45 5.4 4.4 5.0 4.65 5.05 4.95 7.45 5.0 7.45 5.25 8.25 5.2 8.2 5.5 9.0 5.6 8.95 6.2 9.9 6.65 10.2 6.95 9.6 6.95 9.55 6.8 9.4 6.5 8.95 6.45 8.8 6.5 8.75 6.8 9.3 7.55 7.35 6.0 6.15 5.9 5.95 5.75 5.85 10.05 7.25 8.4 3.8 9.05 2.4 9.35 2.25 9.65 1.65 10.0 0.4 10.0 0.15 9.75 0.4 9.35 0.7 8.6 1.1 7.55 1.45 7.05 1.55 7.05 1.5 6.1 1.6 5.9 1.65 5.55 1.7 5.25 1.7 5.25 1.65 4.0 1.65 4.3 1.9 4.55 4.1 4.4 4.05 4.3 3.95 4.25 3.8 4.0 1.65 4.0 1.55 4.7 1.6 5.5 1.6 5.95 1.6 6.5 1.5 7.05 1.45 7.3 1.4 7.3 1.45 7.8 1.3 8.6 1.0 9.15 0.7 9.5 0.45 9.8 0.2 10.55 -1.55 10.05 7.25 15.5 12.6 M17.35 4.3 L17.3 4.35 17.6 2.45 17.35 4.3 M10.45 10.95 L10.4 11.05 10.1 10.9 9.9 10.75 8.8 10.3 8.35 10.2 7.5 10.6 7.7 10.7 9.45 11.3 9.85 11.5 10.4 11.9 10.4 12.0 11.2 11.65 11.75 11.5 13.3 11.3 13.55 11.2 12.55 10.55 12.2 10.5 10.45 9.45 8.75 10.25 8.95 10.25 9.9 10.65 10.3 10.9 10.4 10.95 10.45 10.95" fill="#7f6600" fill-rule="evenodd" stroke="none"/>
    <path d="M11.25 0.2 L11.1 0.15 11.05 0.15 11.3 0.3 11.3 0.35 12.3 1.0 12.55 1.1 12.9 1.3 13.15 1.4 13.75 1.55 13.85 1.55 15.9 1.85 17.7 1.85 17.35 4.3 17.4 4.25 17.4 4.15 18.95 4.35 10.05 7.25 13.8 7.45 15.3 6.5 15.35 6.25 16.5 5.6 16.95 5.4 17.15 5.35 16.75 8.25 16.65 8.5 16.45 9.2 16.4 9.2 16.2 9.75 15.75 10.35 15.65 10.35 15.5 10.55 15.3 10.75 15.1 10.85 15.0 10.8 14.7 11.0 14.9 11.1 14.95 11.1 15.05 11.1 15.5 12.6 10.05 7.25 10.55 -1.55 11.25 0.2 M2.85 3.85 L4.2 3.8 4.25 3.9 4.3 3.95 4.4 4.05 4.55 4.1 4.3 1.9 4.0 1.65 5.25 1.65 5.25 1.7 5.55 1.7 5.9 1.65 6.1 1.6 7.05 1.5 7.05 1.55 7.55 1.45 8.6 1.1 9.35 0.7 9.75 0.4 10.0 0.15 10.0 0.4 9.65 1.65 9.35 2.25 9.05 2.4 8.4 3.8 10.05 7.25 2.85 3.85 M17.35 4.3 L17.6 2.45 17.3 4.35 17.35 4.3 M12.2 10.5 L12.1 10.55 11.65 10.6 11.0 10.75 10.45 10.95 10.4 10.95 10.3 10.9 9.9 10.65 8.95 10.25 8.75 10.25 10.45 9.45 12.2 10.5 M10.4 11.05 L11.1 10.8 12.2 10.6 12.3 10.6 12.55 10.55 13.55 11.2 13.3 11.3 11.75 11.5 11.2 11.65 10.4 12.0 10.4 11.9 9.85 11.5 9.45 11.3 7.7 10.7 7.5 10.6 8.35 10.2 8.8 10.3 9.9 10.75 10.1 10.9 10.4 11.05 M14.7 9.45 L14.9 8.9 14.25 10.05 14.7 9.45 M5.75 5.85 L5.9 5.95 6.05 7.65 6.3 8.55 6.45 8.8 6.5 8.95 6.8 9.4 6.95 9.55 6.95 9.6 6.65 10.2 6.2 9.9 5.6 8.95 5.5 9.0 5.2 8.2 5.25 8.25 5.0 7.45 4.95 7.45 4.65 5.05 5.75 5.85 M6.0 6.15 L7.55 7.35 6.8 9.3 6.5 8.75 6.3 8.25 6.1 7.45 6.0 6.15 M5.6 3.0 L5.7 4.2 5.75 3.9 5.65 2.95 5.6 3.0" fill="#ffcc00" fill-rule="evenodd" stroke="none"/>
    <path d="M16.75 8.6 L16.65 9.05 16.5 9.4 16.35 9.75 16.25 9.85 16.5 9.4 16.75 8.6 M15.95 10.3 L15.55 10.75 15.25 11.0 15.2 11.0 15.45 10.8 15.95 10.3 M15.05 11.05 L15.05 11.1 14.95 11.1 15.05 11.05 M13.7 11.5 L13.25 11.6 13.65 11.5 13.7 11.5 13.75 11.45 13.75 11.5 13.7 11.5 M12.2 11.75 L11.7 11.8 12.15 11.7 12.2 11.75 M10.5 12.3 L10.45 12.35 10.15 12.15 10.05 12.05 10.0 12.05 9.5 11.7 8.95 11.45 7.4 10.95 7.3 10.85 9.0 11.45 9.5 11.7 10.0 12.0 10.05 12.05 10.2 12.15 10.5 12.3 M6.3 10.4 L6.05 10.2 6.0 10.2 5.95 10.1 6.3 10.35 6.4 10.4 6.4 10.45 6.3 10.4 M5.8 10.0 L5.45 9.5 5.5 9.5 5.8 10.0 M5.3 9.3 L5.1 8.95 4.95 8.45 5.3 9.3 M4.7 7.6 L4.55 6.95 4.65 6.95 4.7 7.6 M4.45 5.4 L4.4 5.4 4.35 5.05 2.85 3.85 10.05 7.25 5.75 5.85 4.65 5.05 4.4 5.0 4.45 5.4 M4.2 3.8 L4.25 3.8 4.3 3.95 4.25 3.9 4.2 3.8 M5.5 1.6 L6.5 1.5 5.95 1.6 5.5 1.6 M7.3 1.4 L7.8 1.3 7.3 1.45 7.3 1.4 M8.6 1.0 L9.5 0.45 9.15 0.7 8.6 1.0 M10.45 10.95 L11.0 10.75 11.65 10.6 12.1 10.55 12.2 10.5 12.55 10.55 12.3 10.6 12.2 10.6 11.1 10.8 10.4 11.05 10.45 10.95 M14.7 9.45 L14.25 10.05 14.9 8.9 14.7 9.45 M5.9 5.95 L6.0 6.15 6.1 7.45 6.3 8.25 6.5 8.75 6.45 8.8 6.3 8.55 6.05 7.65 5.9 5.95 M5.6 3.0 L5.65 2.95 5.75 3.9 5.7 4.2 5.6 3.0" fill="#000000" fill-rule="evenodd" stroke="none"/>
  </g>
</svg>
