<?xml version="1.0" encoding="UTF-8" standalone="no"?>
<svg xmlns:ffdec="https://www.free-decompiler.com/flash" xmlns:xlink="http://www.w3.org/1999/xlink" ffdec:objectType="shape" height="14.7px" width="15.4px" xmlns="http://www.w3.org/2000/svg">
  <g transform="matrix(1.0, 0.0, 0.0, 1.0, -3.65, 1.55)">
    <path d="M11.2 0.25 L11.45 0.5 12.2 0.95 12.15 1.0 12.4 1.1 13.05 1.45 13.7 1.6 13.8 1.65 15.75 1.95 17.7 2.0 17.35 4.55 17.4 4.5 17.45 4.4 19.05 4.7 9.6 7.2 10.55 -1.55 11.2 0.2 11.15 0.2 11.2 0.25 M9.6 7.2 L13.7 7.65 15.15 6.8 15.2 6.5 16.5 5.85 17.05 5.7 17.2 5.7 16.55 9.35 16.45 9.7 16.4 9.7 16.25 10.05 15.9 10.6 15.8 10.6 15.6 10.9 15.25 11.2 15.15 11.15 14.95 11.3 14.9 11.25 14.55 11.35 14.75 11.5 14.85 11.55 14.95 11.5 15.45 13.15 9.6 7.2 6.15 3.8 6.05 2.85 5.95 2.85 6.05 4.05 5.45 4.05 5.2 2.2 4.65 1.6 5.05 1.65 5.05 1.6 5.35 1.6 5.35 1.7 5.85 1.65 5.95 1.65 7.4 1.55 8.05 1.4 8.75 1.1 9.0 0.95 9.35 0.8 10.0 0.2 9.95 0.6 9.35 2.25 9.1 2.35 8.55 3.7 9.6 7.2 M10.4 10.95 L10.3 10.9 10.2 10.8 9.65 10.45 9.0 10.15 8.85 10.1 10.25 9.55 10.45 9.5 12.05 10.65 11.7 10.7 11.55 10.7 10.65 10.85 10.5 10.95 10.4 10.95 M13.4 11.5 L13.1 11.55 13.05 11.45 11.65 11.5 10.35 11.9 10.35 11.6 9.7 11.1 8.3 10.4 8.25 10.4 8.3 10.3 8.05 10.15 8.45 10.0 9.8 10.65 10.35 11.05 10.95 10.85 12.15 10.75 12.35 10.7 13.25 11.35 13.4 11.5 M6.35 5.95 L7.75 7.15 7.1 9.05 6.85 8.6 6.45 7.15 6.35 5.95 M7.15 9.3 L7.05 9.6 6.8 9.35 6.55 8.95 6.25 8.2 6.0 7.2 5.85 7.2 5.6 5.15 6.2 5.7 6.35 7.25 6.55 8.1 6.85 8.85 7.05 9.15 7.05 9.2 7.15 9.3" fill="#ffcc00" fill-rule="evenodd" stroke="none"/>
    <path d="M13.65 1.55 L13.3 1.45 12.95 1.3 13.65 1.55 M11.2 0.25 L11.15 0.2 11.2 0.2 11.2 0.25 M9.6 7.2 L15.45 13.15 13.6 11.8 11.9 11.9 11.65 11.95 11.65 11.9 11.7 11.9 12.05 11.85 13.6 11.8 13.65 11.8 13.6 11.7 13.4 11.5 13.25 11.35 12.35 10.7 12.15 10.75 10.95 10.85 10.35 11.05 10.35 11.0 10.4 10.95 10.5 10.95 10.65 10.85 11.55 10.7 11.7 10.7 12.05 10.65 10.45 9.5 9.6 7.2 6.2 11.25 6.65 10.05 6.55 9.95 6.4 9.85 6.15 9.6 5.8 9.0 5.7 8.75 6.0 9.3 6.25 9.6 6.75 10.1 6.9 9.95 7.0 9.75 7.05 9.6 7.15 9.3 7.1 9.05 7.75 7.15 6.35 5.95 6.2 5.7 5.6 5.15 5.3 4.9 5.05 4.75 5.0 4.75 5.25 7.1 5.45 8.05 5.35 7.8 5.2 7.1 4.95 4.8 3.65 3.6 9.6 7.2 M14.95 11.5 L14.85 11.55 14.75 11.5 14.95 11.5 M15.05 11.45 L15.1 11.4 15.2 11.4 15.05 11.45 M15.95 10.7 L16.25 10.2 16.1 10.5 15.95 10.7 M16.4 9.95 L16.65 9.25 16.6 9.5 16.4 9.95 M7.65 10.7 L7.6 10.65 7.65 10.65 9.05 11.3 9.3 11.45 10.0 11.9 10.45 12.35 9.3 11.45 7.65 10.7 M11.05 12.1 L11.4 11.95 11.65 11.95 11.05 12.1 M4.85 3.6 L4.6 1.5 4.65 1.55 4.65 1.6 4.9 3.85 4.85 3.75 4.85 3.6 M5.95 1.5 L7.35 1.4 6.65 1.5 5.95 1.5 M8.5 1.1 L9.3 0.6 9.15 0.75 Q8.85 0.95 8.5 1.1 M5.7 8.75 L5.6 8.55 5.45 8.05 5.7 8.75" fill="#000000" fill-rule="evenodd" stroke="none"/>
    <path d="M12.95 1.3 L13.3 1.45 13.65 1.55 16.1 1.9 17.8 1.9 17.45 4.4 17.4 4.5 17.35 4.55 17.7 2.0 15.75 1.95 13.8 1.65 13.7 1.6 13.05 1.45 12.4 1.1 12.15 1.0 12.2 0.95 11.45 0.5 11.2 0.25 11.8 0.7 12.5 1.1 12.95 1.3 M10.55 -1.55 L9.6 7.2 19.05 4.7 17.25 5.75 16.8 8.65 16.65 9.25 16.4 9.95 16.25 10.2 15.95 10.7 15.75 10.95 15.35 11.3 15.2 11.4 15.1 11.4 15.05 11.45 14.95 11.5 14.75 11.5 14.55 11.35 14.9 11.25 14.95 11.3 15.15 11.15 15.25 11.2 15.6 10.9 15.8 10.6 15.9 10.6 16.25 10.05 16.4 9.7 16.45 9.7 16.55 9.35 17.2 5.7 17.05 5.7 16.5 5.85 15.2 6.5 15.15 6.8 13.7 7.65 9.6 7.2 10.45 9.5 10.25 9.55 8.85 10.1 9.0 10.15 9.65 10.45 10.2 10.8 10.3 10.9 10.4 10.95 10.35 11.0 10.35 11.05 9.8 10.65 8.45 10.0 8.05 10.15 8.3 10.3 8.25 10.4 8.3 10.4 9.7 11.1 10.35 11.6 10.35 11.9 11.65 11.5 13.05 11.45 13.1 11.55 13.4 11.5 13.6 11.7 13.65 11.8 13.6 11.8 12.05 11.85 11.7 11.9 11.65 11.9 11.65 11.95 11.4 11.95 11.05 12.1 10.85 12.2 10.45 12.35 10.0 11.9 9.3 11.45 9.05 11.3 7.65 10.65 7.6 10.65 7.65 10.7 6.2 11.25 9.6 7.2 8.55 3.7 9.1 2.35 9.35 2.25 9.95 0.6 10.0 0.2 9.35 0.8 9.0 0.95 8.75 1.1 8.05 1.4 7.4 1.55 5.95 1.65 5.85 1.65 5.35 1.7 5.35 1.6 5.05 1.6 5.05 1.65 4.65 1.6 5.2 2.2 5.45 4.05 6.05 4.05 5.95 2.85 6.05 2.85 6.15 3.8 9.6 7.2 3.65 3.6 4.85 3.6 4.85 3.75 4.9 3.85 4.65 1.6 4.65 1.55 4.6 1.5 5.85 1.55 5.95 1.5 6.65 1.5 7.35 1.4 8.5 1.1 Q8.85 0.95 9.15 0.75 L9.3 0.6 9.55 0.45 9.85 0.2 10.55 -1.55 M6.2 5.7 L6.35 5.95 6.45 7.15 6.85 8.6 7.1 9.05 7.15 9.3 7.05 9.2 7.05 9.15 6.85 8.85 6.55 8.1 6.35 7.25 6.2 5.7 M7.05 9.6 L7.0 9.75 6.9 9.95 6.75 10.1 6.25 9.6 6.0 9.3 5.7 8.75 5.45 8.05 5.25 7.1 5.0 4.75 5.05 4.75 5.3 4.9 5.6 5.15 5.85 7.2 6.0 7.2 6.25 8.2 6.55 8.95 6.8 9.35 7.05 9.6" fill="#7f6600" fill-rule="evenodd" stroke="none"/>
  </g>
</svg>
