<?xml version="1.0" encoding="UTF-8" standalone="no"?>
<svg xmlns:ffdec="https://www.free-decompiler.com/flash" xmlns:xlink="http://www.w3.org/1999/xlink" ffdec:objectType="shape" height="15.2px" width="14.15px" xmlns="http://www.w3.org/2000/svg">
  <g transform="matrix(1.0, 0.0, 0.0, 1.0, -4.6, 1.55)">
    <path d="M12.05 0.95 L12.25 1.1 12.2 1.1 12.8 1.45 13.7 1.75 15.35 1.95 16.0 2.1 17.35 2.1 17.45 2.05 17.35 2.7 17.05 4.75 17.1 4.7 18.75 5.0 9.15 7.15 10.55 -1.55 11.15 0.2 11.0 0.15 11.15 0.3 11.2 0.35 12.05 0.95 M8.75 3.6 L8.3 3.65 8.8 2.5 7.8 2.7 8.05 2.45 7.75 2.5 8.0 2.3 7.7 2.35 8.2 1.95 8.5 1.85 8.9 1.65 9.05 1.45 9.9 0.9 9.45 2.2 9.15 2.35 9.15 2.4 9.25 2.35 8.75 3.6 M16.9 6.0 L16.8 6.8 16.35 9.6 16.3 9.7 16.25 9.7 16.15 10.05 15.8 10.85 15.75 10.8 15.55 11.05 15.4 11.3 15.3 11.25 15.1 11.45 15.0 11.4 14.85 11.55 14.75 11.5 14.55 11.6 14.45 11.55 14.3 11.6 14.2 11.5 14.1 11.5 14.3 11.8 14.5 11.9 14.5 11.95 14.7 11.95 15.15 13.65 9.15 7.15 13.5 7.85 14.8 7.05 14.8 6.75 15.95 6.15 16.25 6.05 16.6 6.0 16.9 6.0 M10.45 9.5 L10.45 9.55 11.85 10.75 11.9 10.8 12.0 10.85 11.85 10.8 11.7 10.8 11.85 10.75 10.05 10.65 9.95 10.55 9.5 10.25 9.55 9.75 10.45 9.5 M11.55 10.9 L12.15 10.9 12.55 11.25 12.0 11.25 11.95 11.05 11.3 11.05 Q11.45 11.0 11.55 10.9 M12.7 11.35 L12.75 11.4 12.65 11.4 12.7 11.35 M7.3 6.25 L7.0 6.75 7.25 6.2 7.3 6.25" fill="#ffcc00" fill-rule="evenodd" stroke="none"/>
    <path d="M12.6 1.25 L12.85 1.4 13.05 1.45 13.25 1.55 15.35 1.95 13.7 1.75 12.8 1.45 12.2 1.1 12.25 1.1 12.05 0.95 12.45 1.2 12.6 1.25 M11.45 0.5 L12.05 0.95 11.2 0.35 11.15 0.3 11.0 0.15 11.15 0.2 11.15 0.3 11.45 0.5 M9.15 7.15 L18.75 5.0 16.9 6.0 16.6 6.0 16.25 6.05 15.95 6.15 14.8 6.75 14.8 7.05 13.5 7.85 9.15 7.15 4.6 3.4 5.6 3.45 5.6 3.65 5.65 3.75 5.45 1.55 5.4 1.4 5.45 1.4 6.35 1.5 7.0 1.4 7.05 1.45 7.75 1.35 7.8 1.35 8.0 1.3 8.45 1.2 8.85 1.0 9.3 0.75 9.65 0.45 9.95 0.2 10.0 0.1 10.0 0.35 9.9 0.9 9.05 1.45 8.9 1.65 8.5 1.85 8.2 1.95 7.7 2.35 8.0 2.3 7.75 2.5 8.05 2.45 7.8 2.7 8.8 2.5 8.3 3.65 8.75 3.6 9.15 7.15 10.45 9.5 9.55 9.75 9.5 10.25 9.95 10.55 10.05 10.65 11.85 10.75 11.7 10.8 10.9 10.85 10.4 10.95 10.3 11.0 10.35 11.0 11.2 10.85 11.55 10.9 Q11.45 11.0 11.3 11.05 L11.95 11.05 12.0 11.25 12.55 11.25 12.7 11.35 12.65 11.4 12.75 11.4 13.25 11.9 13.35 12.05 11.55 12.0 11.55 12.05 11.5 12.05 11.25 12.05 10.45 12.3 10.4 12.3 10.4 12.25 9.7 11.55 9.5 11.45 9.5 11.4 9.05 11.05 8.55 10.8 7.85 10.35 7.9 10.3 7.8 10.25 7.8 10.35 7.95 10.45 6.75 10.85 9.15 7.15 M17.1 4.7 L17.05 4.75 17.35 2.7 17.1 4.7 M17.45 2.05 L17.35 2.1 16.0 2.1 15.35 1.95 15.75 2.0 17.45 2.05 M16.8 6.8 L16.5 9.1 16.45 9.35 16.45 9.4 16.25 10.05 16.0 10.55 15.95 10.7 15.95 10.75 15.75 11.0 15.7 11.1 15.65 11.1 15.55 11.25 15.3 11.55 15.0 11.75 14.85 11.85 14.8 11.8 14.65 11.9 14.5 11.9 14.3 11.8 14.1 11.5 14.2 11.5 14.3 11.6 14.45 11.55 14.55 11.6 14.75 11.5 14.85 11.55 15.0 11.4 15.1 11.45 15.3 11.25 15.4 11.3 15.55 11.05 15.75 10.8 15.8 10.85 16.15 10.05 16.25 9.7 16.3 9.7 16.35 9.6 16.8 6.8 M11.85 10.8 L11.9 10.85 11.7 10.8 11.85 10.8 M7.3 6.25 L7.95 6.9 8.0 7.0 7.45 8.8 7.5 9.05 7.35 9.5 7.2 9.8 7.1 9.7 6.7 9.2 6.25 8.2 5.95 6.85 5.7 4.5 6.7 5.5 6.85 5.75 7.25 6.2 7.0 6.75 7.3 6.25" fill="#7f6600" fill-rule="evenodd" stroke="none"/>
    <path d="M13.05 1.45 L12.85 1.4 12.6 1.25 13.05 1.45 M12.6 1.25 L12.45 1.2 12.05 0.95 12.6 1.25 M10.55 -1.55 L9.15 7.15 8.75 3.6 9.25 2.35 9.15 2.4 9.15 2.35 9.45 2.2 9.9 0.9 10.0 0.35 10.0 0.1 9.95 0.2 10.55 -1.55 M9.65 0.45 L9.3 0.75 8.85 1.0 8.45 1.2 8.0 1.3 8.85 1.0 9.65 0.45 M7.75 1.35 L7.05 1.45 7.0 1.4 6.35 1.5 5.45 1.4 6.55 1.45 7.0 1.4 7.75 1.35 M5.4 1.4 L5.45 1.55 5.65 3.75 5.6 3.65 5.6 3.45 5.4 1.4 M4.6 3.4 L9.15 7.15 15.15 13.65 13.35 12.1 11.55 12.05 11.55 12.0 13.35 12.05 13.25 11.9 12.75 11.4 12.7 11.35 12.55 11.25 12.15 10.9 11.55 10.9 11.2 10.85 10.35 11.0 10.3 11.0 10.4 10.95 10.9 10.85 11.7 10.8 11.9 10.85 11.85 10.8 12.0 10.85 11.9 10.8 11.85 10.75 10.45 9.55 10.45 9.5 9.15 7.15 6.75 10.85 7.1 9.75 6.7 9.35 6.05 7.8 5.9 6.95 5.7 4.6 4.6 3.4 M11.45 0.5 L11.15 0.3 11.15 0.2 11.45 0.5 M16.45 9.4 L16.4 9.7 16.25 10.05 16.45 9.4 M15.95 10.75 L15.8 10.95 15.75 11.0 15.95 10.75 M15.7 11.1 L15.65 11.2 15.55 11.25 15.4 11.45 15.3 11.55 15.55 11.25 15.65 11.1 15.7 11.1 M15.0 11.75 L14.95 11.8 14.85 11.85 14.7 11.95 14.5 11.95 14.5 11.9 14.65 11.9 14.8 11.8 14.85 11.85 15.0 11.75 M11.5 12.05 L10.45 12.35 10.4 12.3 9.7 11.6 9.5 11.45 8.55 10.8 7.95 10.45 7.8 10.35 7.8 10.25 7.9 10.3 7.85 10.35 8.55 10.8 9.05 11.05 9.5 11.4 9.5 11.45 9.7 11.55 10.4 12.25 10.4 12.3 10.45 12.3 11.25 12.05 11.5 12.05 M7.25 6.2 L6.85 5.75 6.7 5.5 5.7 4.5 5.95 6.85 6.25 8.2 6.7 9.2 7.1 9.7 7.2 9.8 7.35 9.5 7.5 9.05 7.45 8.8 8.0 7.0 7.95 6.9 7.3 6.25 7.25 6.2" fill="#000000" fill-rule="evenodd" stroke="none"/>
  </g>
</svg>
