<?xml version="1.0" encoding="UTF-8" standalone="no"?>
<svg xmlns:ffdec="https://www.free-decompiler.com/flash" xmlns:xlink="http://www.w3.org/1999/xlink" ffdec:objectType="shape" height="15.75px" width="12.4px" xmlns="http://www.w3.org/2000/svg">
  <g transform="matrix(1.0, 0.0, 0.0, 1.0, -5.65, 1.55)">
    <path d="M11.05 0.2 L10.95 0.2 11.05 0.3 11.35 0.6 11.5 0.7 11.45 0.75 11.65 0.95 12.25 1.35 12.55 1.5 12.5 1.55 13.2 1.8 15.1 2.2 16.55 2.3 16.8 2.2 16.8 2.25 16.45 4.95 18.05 5.35 8.8 7.05 14.5 4.65 12.7 4.2 12.35 3.05 12.5 3.15 12.85 3.05 12.25 2.85 12.2 2.8 12.3 2.6 11.7 2.35 12.1 2.3 11.3 1.85 11.2 1.75 11.3 1.6 10.8 1.2 11.1 2.35 11.6 2.7 11.95 3.9 8.8 7.05 13.15 8.05 13.6 10.45 13.3 10.9 13.55 11.8 13.85 12.2 14.0 12.3 14.05 12.3 14.2 12.3 14.6 14.2 8.8 7.05 10.5 -1.55 11.05 0.2 M15.7 10.15 L15.4 11.0 15.35 11.0 15.2 11.3 15.1 11.25 14.95 11.5 14.4 11.2 14.55 10.95 14.4 10.85 14.5 10.6 14.35 10.5 14.45 10.15 14.25 10.1 14.35 9.65 14.25 9.05 14.05 9.0 14.1 8.6 13.75 7.55 14.2 7.3 14.25 6.95 14.4 6.9 14.6 6.7 14.95 6.5 15.7 6.2 15.9 6.15 16.15 6.15 16.2 6.2 16.25 6.35 15.95 8.75 15.85 9.55 15.8 9.55 15.7 10.15 M7.1 2.65 L7.25 2.65 7.25 3.6 7.15 3.85 7.1 2.65 M7.25 5.35 L7.3 5.45 7.35 6.7 7.25 5.35 M7.95 8.6 L7.9 8.75 7.85 8.8 7.6 8.15 7.35 6.8 7.5 6.75 7.55 7.25 7.95 8.6" fill="#ffcc00" fill-rule="evenodd" stroke="none"/>
    <path d="M16.8 2.2 L16.55 2.3 15.1 2.2 13.2 1.8 12.5 1.55 12.55 1.5 12.25 1.35 11.65 0.95 11.45 0.75 11.5 0.7 11.35 0.6 11.05 0.3 10.95 0.2 11.05 0.2 11.15 0.3 11.05 0.3 11.35 0.55 11.5 0.7 11.65 0.85 12.25 1.25 12.4 1.35 12.95 1.6 15.15 2.05 15.25 2.1 16.8 2.2 M8.8 7.05 L11.95 3.9 11.6 2.7 11.1 2.35 10.8 1.2 11.3 1.6 11.2 1.75 11.3 1.85 12.1 2.3 11.7 2.35 12.3 2.6 12.2 2.8 12.25 2.85 12.85 3.05 12.5 3.15 12.35 3.05 12.7 4.2 14.5 4.65 8.8 7.05 18.05 5.35 16.25 6.35 16.2 6.2 16.15 6.15 15.9 6.15 15.7 6.2 14.95 6.5 14.6 6.7 14.4 6.9 14.25 6.95 14.2 7.3 13.75 7.55 14.1 8.6 14.05 9.0 14.25 9.05 14.35 9.65 14.25 10.1 14.45 10.15 14.35 10.5 14.5 10.6 14.4 10.85 14.55 10.95 14.4 11.2 14.95 11.5 15.1 11.25 15.2 11.3 15.35 11.0 15.4 11.0 15.7 10.15 15.55 10.8 15.4 11.05 15.25 11.35 15.05 11.7 14.75 11.95 14.55 12.15 14.05 12.3 14.0 12.3 13.85 12.2 13.55 11.8 13.3 10.9 13.6 10.45 13.15 8.05 8.8 7.05 5.65 3.25 6.4 3.3 6.45 3.55 6.6 3.7 6.45 1.75 6.3 1.45 6.25 1.3 6.4 1.35 7.0 1.45 7.2 1.4 8.0 1.4 8.15 1.35 8.65 1.25 8.8 1.2 9.15 1.0 9.6 0.65 9.75 0.55 9.75 0.5 10.0 0.2 10.05 0.15 9.85 1.15 9.5 2.2 9.35 2.3 9.05 2.45 8.45 2.6 9.05 2.5 9.05 2.45 9.35 2.35 9.4 2.3 9.0 3.5 8.8 7.05 10.4 9.5 11.7 10.9 10.9 10.85 10.5 10.95 11.4 10.95 11.8 11.0 11.85 11.05 13.0 12.35 12.95 12.35 12.25 12.25 12.2 12.25 12.05 12.2 12.0 12.15 11.75 12.1 11.85 12.15 11.35 12.1 11.2 12.1 10.75 12.25 10.55 12.25 10.35 12.3 10.3 12.05 10.05 11.8 10.0 11.65 10.0 11.6 9.4 11.0 8.25 10.05 8.25 9.95 8.2 10.0 8.2 10.15 8.35 10.25 7.35 10.55 8.8 7.05 M16.45 4.95 L16.8 2.25 16.75 4.2 16.45 4.95 M15.7 10.15 L15.8 9.55 15.85 9.55 15.7 10.15 M10.3 11.0 L10.45 10.95 10.35 10.95 10.3 11.0 M7.1 2.65 L7.15 3.85 7.25 3.6 7.25 2.65 7.1 2.65 M7.9 8.75 L7.9 8.85 7.7 9.4 7.8 9.25 7.7 9.45 7.7 9.4 7.55 9.2 7.35 8.85 7.05 8.05 6.65 4.55 7.25 5.35 7.35 6.7 7.3 5.45 8.4 6.9 7.95 8.6 7.55 7.25 7.5 6.75 7.35 6.8 7.6 8.15 7.85 8.8 7.9 8.75" fill="#7f6600" fill-rule="evenodd" stroke="none"/>
    <path d="M10.5 -1.55 L8.8 7.05 9.0 3.5 9.4 2.3 9.35 2.35 9.05 2.45 9.05 2.5 8.45 2.6 9.05 2.45 9.35 2.3 9.5 2.2 9.85 1.15 10.05 0.15 10.0 0.2 9.75 0.5 10.0 0.15 10.5 -1.55 M16.8 2.2 L15.25 2.1 15.15 2.05 16.8 2.2 M12.95 1.6 L12.4 1.35 12.25 1.25 11.65 0.85 11.5 0.7 11.35 0.55 11.05 0.3 11.15 0.3 11.35 0.55 12.25 1.25 12.95 1.6 M5.65 3.25 L8.8 7.05 7.35 10.55 7.65 9.55 7.4 9.25 7.1 8.65 6.75 7.4 6.5 4.4 5.65 3.25 M9.75 0.55 L9.6 0.65 9.15 1.0 8.8 1.2 8.65 1.25 8.15 1.35 8.0 1.4 7.2 1.4 7.0 1.45 6.4 1.35 7.15 1.4 7.2 1.4 8.75 1.2 9.75 0.55 M6.3 1.45 L6.45 1.75 6.6 3.7 6.45 3.55 6.4 3.3 6.3 1.45 M14.05 12.3 L14.55 12.15 14.75 11.95 15.05 11.7 14.8 11.95 14.75 11.95 14.75 12.0 14.55 12.15 14.4 12.25 14.2 12.3 14.05 12.3 M15.25 11.35 L15.4 11.05 15.35 11.2 15.25 11.35 M15.55 10.8 L15.7 10.15 15.85 9.55 15.8 10.05 15.55 10.8 M15.95 8.75 L16.05 8.75 15.85 9.55 15.95 8.75 M10.3 11.0 L10.35 10.95 10.45 10.95 10.3 11.0 M8.35 10.25 L8.2 10.15 8.2 10.0 8.25 9.95 8.25 10.05 9.4 11.0 10.0 11.6 10.0 11.65 10.05 11.8 10.3 12.05 10.35 12.3 9.5 11.25 9.2 10.95 8.35 10.25 M10.35 12.3 L10.55 12.25 10.75 12.25 11.2 12.1 11.35 12.1 11.85 12.15 11.75 12.1 12.0 12.15 12.05 12.2 12.2 12.25 11.4 12.15 11.1 12.15 10.85 12.25 10.4 12.35 10.35 12.3 M13.0 12.35 L11.85 11.05 11.8 11.0 11.4 10.95 10.5 10.95 10.9 10.85 11.7 10.9 10.4 9.5 8.8 7.05 14.6 14.2 13.0 12.35 M7.25 5.35 L6.65 4.55 7.05 8.05 7.35 8.85 7.55 9.2 7.7 9.4 7.7 9.45 7.8 9.25 7.7 9.4 7.9 8.85 7.9 8.75 7.95 8.6 8.4 6.9 7.3 5.45 7.25 5.35" fill="#000000" fill-rule="evenodd" stroke="none"/>
  </g>
</svg>
