<?xml version="1.0" encoding="UTF-8" standalone="no"?>
<svg xmlns:ffdec="https://www.free-decompiler.com/flash" xmlns:xlink="http://www.w3.org/1999/xlink" ffdec:objectType="shape" height="16.2px" width="10.05px" xmlns="http://www.w3.org/2000/svg">
  <g transform="matrix(1.0, 0.0, 0.0, 1.0, -6.75, 1.6)">
    <path d="M10.4 -1.05 L10.5 -1.55 10.95 0.2 10.85 0.2 10.95 0.3 10.85 0.3 11.0 0.4 11.05 0.45 11.0 0.45 10.9 0.5 10.8 0.35 10.7 0.2 10.7 0.25 10.65 0.55 10.7 1.5 10.75 1.85 10.9 2.4 11.35 2.75 11.65 3.95 8.5 6.9 12.6 8.2 12.95 10.6 12.65 11.15 12.85 11.95 13.15 12.5 13.25 12.6 13.35 12.65 13.5 12.65 13.85 14.6 12.45 12.6 12.3 12.4 11.4 11.1 11.3 11.0 10.25 9.5 8.5 6.9 9.25 3.7 9.3 3.6 9.55 2.55 9.6 2.3 9.6 2.35 9.6 2.25 9.65 2.2 10.0 0.5 10.1 0.1 10.4 -1.05 M15.75 2.3 L15.7 3.05 15.4 5.25 15.25 5.45 15.15 5.55 14.9 5.65 14.65 5.7 14.55 5.65 14.75 2.95 15.65 2.35 15.75 2.3 M15.3 6.6 L15.15 8.2 14.8 10.55 14.75 10.55 14.65 11.0 14.5 11.4 14.4 11.35 14.4 10.45 14.5 9.85 14.3 9.75 14.5 6.4 14.65 6.35 14.9 6.3 15.1 6.35 15.2 6.45 15.3 6.6 M10.8 0.35 L11.0 0.45 10.85 0.3 10.8 0.35 M7.85 3.65 L7.8 2.6 7.95 2.6 8.0 3.45 7.85 3.65 M8.3 8.45 L8.05 7.4 7.95 5.75 8.1 6.05 8.1 6.4 8.35 8.05 8.3 8.45" fill="#ffcc00" fill-rule="evenodd" stroke="none"/>
    <path d="M10.4 -1.05 L10.5 -1.6 10.5 -1.55 10.4 -1.05 M11.15 0.5 L11.35 0.7 11.35 0.75 12.4 1.6 12.85 1.75 12.8 1.75 14.3 2.15 15.75 2.3 15.65 2.35 14.3 2.15 13.25 1.95 12.8 1.8 12.8 1.75 12.4 1.6 11.95 1.3 11.35 0.75 11.3 0.7 11.35 0.7 11.2 0.6 11.15 0.5 M14.7 11.1 L14.65 11.3 14.6 11.4 14.4 11.8 14.55 11.4 14.6 11.4 14.7 11.1 M14.3 11.9 L14.3 11.95 14.25 12.05 14.1 12.3 14.1 12.2 14.25 12.05 14.3 11.9 M14.0 12.35 L13.8 12.55 13.7 12.55 13.65 12.6 13.5 12.65 13.35 12.65 13.25 12.6 13.4 12.6 13.8 12.5 13.95 12.35 14.0 12.35 M12.45 12.6 L11.25 12.2 11.15 12.25 10.85 12.25 10.75 12.3 10.7 12.3 10.4 12.35 10.3 12.2 9.65 11.1 8.8 10.1 8.05 10.35 8.2 9.25 8.0 8.9 7.6 7.45 7.4 4.5 6.75 3.15 7.3 3.2 7.2 1.5 7.55 2.25 7.65 3.65 7.85 3.65 7.5 4.8 7.75 5.25 7.8 6.95 8.0 7.4 8.05 7.9 8.25 8.65 8.3 8.45 8.35 8.05 8.5 6.9 10.25 9.5 9.5 9.7 9.45 9.75 9.1 9.6 8.85 9.65 9.0 9.8 8.85 9.75 9.75 10.8 10.2 11.5 10.25 11.8 10.25 11.95 10.3 12.1 10.3 12.2 10.45 12.2 10.55 12.15 10.65 12.15 10.8 12.1 10.75 12.05 11.05 12.05 11.0 12.0 11.2 12.0 11.85 12.2 11.85 12.3 12.3 12.4 12.45 12.6 M7.2 1.35 L7.2 1.3 7.25 1.25 7.7 1.35 8.75 1.3 9.1 1.15 9.25 1.05 9.85 0.5 10.05 0.2 10.1 0.1 10.0 0.5 9.85 0.75 9.3 1.3 9.1 1.4 9.1 1.3 8.85 1.4 8.85 1.35 8.7 1.5 8.7 1.4 8.45 1.45 7.9 1.5 7.7 1.5 7.7 1.45 7.2 1.35 M9.6 2.25 L9.6 2.35 9.25 2.5 8.75 2.6 9.3 2.4 9.6 2.25 M11.3 11.0 L11.4 11.1 10.55 10.95 10.4 10.95 10.85 10.9 11.3 11.0 M8.25 8.65 L8.2 8.65 8.25 8.75 8.25 8.65" fill="#000000" fill-rule="evenodd" stroke="none"/>
    <path d="M10.95 0.2 L11.15 0.5 11.2 0.6 11.35 0.7 11.3 0.7 11.35 0.75 11.95 1.3 12.4 1.6 12.8 1.75 12.8 1.8 13.25 1.95 14.3 2.15 15.65 2.35 14.75 2.95 14.55 5.65 14.65 5.7 14.9 5.65 15.15 5.55 15.25 5.45 15.4 5.25 15.7 3.05 15.45 5.2 16.8 5.7 15.3 6.6 15.2 6.45 15.1 6.35 14.9 6.3 14.65 6.35 14.5 6.4 14.3 9.75 14.5 9.85 14.4 10.45 14.4 11.35 14.5 11.4 14.65 11.0 14.75 10.55 14.8 10.55 15.15 8.2 14.95 10.05 14.9 10.15 14.7 11.1 14.6 11.4 14.55 11.4 14.4 11.8 14.3 11.9 14.25 12.05 14.1 12.2 14.0 12.35 13.95 12.35 13.8 12.5 13.4 12.6 13.25 12.6 13.15 12.5 12.85 11.95 12.65 11.15 12.95 10.6 12.6 8.2 8.5 6.9 11.65 3.95 11.35 2.75 10.9 2.4 10.75 1.85 10.7 1.5 10.65 0.55 10.7 0.25 10.7 0.2 10.8 0.35 10.9 0.5 11.0 0.45 11.05 0.45 11.0 0.4 10.85 0.3 10.95 0.3 10.85 0.2 10.95 0.2 M7.2 1.5 L7.2 1.35 7.7 1.45 7.7 1.5 7.9 1.5 8.45 1.45 8.7 1.4 8.7 1.5 8.85 1.35 8.85 1.4 9.1 1.3 9.1 1.4 9.3 1.3 9.85 0.75 10.0 0.5 9.65 2.2 9.6 2.25 9.3 2.4 8.75 2.6 9.25 2.5 9.6 2.35 9.6 2.3 9.55 2.55 9.3 3.6 9.25 3.7 8.5 6.9 8.35 8.05 8.1 6.4 8.1 6.05 7.95 5.75 8.05 7.4 8.3 8.45 8.25 8.65 8.05 7.9 8.0 7.4 7.8 6.95 7.75 5.25 7.5 4.8 7.85 3.65 7.65 3.65 7.55 2.25 7.2 1.5 M10.8 0.35 L10.85 0.3 11.0 0.45 10.8 0.35 M10.25 9.5 L11.3 11.0 10.85 10.9 10.4 10.95 10.55 10.95 11.4 11.1 12.3 12.4 11.85 12.3 11.85 12.2 11.2 12.0 11.0 12.0 11.05 12.05 10.75 12.05 10.8 12.1 10.65 12.15 10.55 12.15 10.45 12.2 10.3 12.2 10.3 12.1 10.25 11.95 10.25 11.8 10.2 11.5 9.75 10.8 8.85 9.75 9.0 9.8 8.85 9.65 9.1 9.6 9.45 9.75 9.5 9.7 10.25 9.5 M7.85 3.65 L8.0 3.45 7.95 2.6 7.8 2.6 7.85 3.65 M8.25 8.65 L8.25 8.75 8.2 8.65 8.25 8.65" fill="#7f6600" fill-rule="evenodd" stroke="none"/>
  </g>
</svg>
