<?xml version="1.0" encoding="UTF-8" standalone="no"?>
<svg xmlns:ffdec="https://www.free-decompiler.com/flash" xmlns:xlink="http://www.w3.org/1999/xlink" ffdec:objectType="shape" height="16.5px" width="7.2px" xmlns="http://www.w3.org/2000/svg">
  <g transform="matrix(1.0, 0.0, 0.0, 1.0, -7.95, 1.55)">
    <path d="M10.8 0.2 L10.7 0.15 10.6 0.2 10.5 0.55 10.5 1.45 10.55 1.7 10.55 1.8 10.55 1.85 10.65 2.4 11.1 2.95 11.1 3.15 11.25 4.0 8.3 6.8 11.95 8.35 12.15 9.55 12.2 10.55 12.05 11.0 11.9 11.25 11.95 11.7 12.1 12.3 12.2 12.45 12.25 12.65 12.5 12.9 12.65 12.9 12.9 14.95 11.55 12.6 8.3 6.8 9.95 0.6 10.5 -1.55 10.8 0.2 M13.5 11.35 L13.4 11.3 13.45 11.1 13.55 10.25 13.5 10.2 13.75 6.35 13.95 6.45 14.0 6.6 13.7 10.25 13.5 11.35 M14.1 5.35 L14.0 5.65 13.75 5.8 13.95 2.6 14.15 2.45 14.25 2.4 14.35 2.4 14.1 5.35 M10.1 10.85 L10.3 10.8 10.35 10.95 10.15 10.95 10.1 10.85 M8.55 2.55 L8.7 2.55 8.75 3.35 8.55 3.65 8.55 2.55" fill="#ffcc00" fill-rule="evenodd" stroke="none"/>
    <path d="M10.8 0.2 L11.1 0.75 11.4 1.15 11.35 1.15 11.75 1.55 11.85 1.6 11.8 1.6 12.2 1.9 13.15 2.25 13.25 2.25 13.2 2.3 13.4 2.35 13.6 2.35 14.15 2.45 13.95 2.6 13.75 5.8 14.0 5.65 14.1 5.35 14.15 5.4 15.15 5.95 14.05 6.8 13.8 9.75 13.7 10.25 14.0 6.6 13.95 6.45 13.75 6.35 13.5 10.2 13.55 10.25 13.45 11.1 13.4 11.3 13.5 11.35 13.5 11.6 13.4 11.9 13.3 12.25 13.2 12.25 13.0 12.65 12.95 12.65 12.85 12.8 12.8 12.75 12.65 12.85 12.7 12.7 12.6 12.8 12.4 12.55 12.25 12.3 12.25 12.1 12.15 11.9 12.2 11.75 12.15 11.65 12.3 11.35 12.2 11.15 12.35 10.45 12.3 9.9 12.4 8.65 12.2 7.85 11.95 8.35 8.3 6.8 11.25 4.0 11.35 4.05 11.1 3.15 11.1 2.95 11.45 3.2 11.5 3.0 11.0 2.6 11.0 2.55 11.15 2.55 10.55 1.8 10.55 1.7 10.6 1.6 10.5 1.45 10.5 0.55 10.6 0.2 10.7 0.15 10.8 0.2 M14.35 2.4 L14.4 2.4 14.15 5.3 14.1 5.35 14.35 2.4 M10.3 10.8 L10.1 10.85 10.0 10.45 9.5 9.55 9.75 9.65 9.8 9.8 10.3 10.8 M13.7 10.25 L13.55 11.35 13.5 11.35 13.7 10.25" fill="#7f6600" fill-rule="evenodd" stroke="none"/>
    <path d="M14.15 2.45 L13.6 2.35 13.4 2.35 13.2 2.3 13.25 2.25 13.15 2.25 12.2 1.9 11.8 1.6 11.85 1.6 11.75 1.55 11.35 1.15 11.4 1.15 11.1 0.75 10.8 0.2 10.5 -1.55 11.1 0.65 11.35 1.05 11.4 1.1 11.5 1.25 12.35 1.9 13.55 2.3 14.25 2.4 14.15 2.45 M10.5 1.45 L10.6 1.6 10.55 1.7 10.5 1.45 M10.55 1.8 L11.15 2.55 11.0 2.55 11.0 2.6 11.5 3.0 11.45 3.2 11.1 2.95 10.65 2.4 10.55 1.85 10.55 1.8 M11.1 3.15 L11.35 4.05 11.25 4.0 11.1 3.15 M11.95 8.35 L12.2 7.85 12.4 8.65 12.3 9.9 12.35 10.45 12.2 11.15 12.3 11.35 12.15 11.65 12.2 11.75 12.15 11.9 12.25 12.1 12.25 12.3 12.4 12.55 12.6 12.8 12.7 12.7 12.65 12.85 12.8 12.75 12.85 12.8 12.95 12.65 13.0 12.65 13.2 12.25 13.3 12.25 13.2 12.35 13.1 12.55 13.05 12.65 13.0 12.65 12.95 12.75 12.8 12.85 12.9 14.95 12.65 12.9 12.5 12.9 12.25 12.65 12.2 12.45 12.1 12.3 11.95 11.7 11.9 11.25 12.05 11.0 12.2 10.55 12.15 9.55 11.95 8.35 M13.4 11.9 L13.5 11.6 13.5 11.35 13.55 11.35 13.7 10.25 13.8 9.75 13.7 10.7 13.55 11.35 13.5 11.6 13.55 11.4 13.5 11.65 13.45 11.8 13.4 11.9 M14.15 5.4 L14.1 5.35 14.15 5.3 14.15 5.4 M10.1 10.85 L10.15 10.95 10.35 10.95 10.3 10.8 9.8 9.8 9.75 9.65 9.5 9.55 10.0 10.45 10.1 10.85 M11.55 12.6 L10.95 12.3 10.8 12.3 10.55 12.35 10.35 12.35 9.8 10.9 9.3 10.0 8.8 10.15 8.3 6.8 11.55 12.6 M8.3 6.8 L7.95 3.05 8.25 3.1 8.2 1.3 8.25 1.25 8.5 1.3 8.65 1.35 9.4 1.25 9.65 1.0 9.95 0.6 8.3 6.8 M8.55 2.55 L8.55 3.65 8.75 3.35 8.7 2.55 8.55 2.55" fill="#000000" fill-rule="evenodd" stroke="none"/>
  </g>
</svg>
