<?xml version="1.0" encoding="UTF-8" standalone="no"?>
<svg xmlns:ffdec="https://www.free-decompiler.com/flash" xmlns:xlink="http://www.w3.org/1999/xlink" ffdec:objectType="shape" height="16.7px" width="4.95px" xmlns="http://www.w3.org/2000/svg">
  <g transform="matrix(1.0, 0.0, 0.0, 1.0, -8.15, 1.55)">
    <path d="M11.8 15.15 L10.55 12.35 10.05 11.15 9.65 10.05 8.8 8.15 8.15 6.65 9.25 3.05 9.35 2.7 9.4 2.5 9.75 1.3 10.5 -1.55 10.65 0.25 10.7 0.15 10.75 0.45 10.9 0.95 11.05 1.25 11.0 1.25 11.15 1.5 11.05 1.55 11.0 1.45 10.9 1.5 10.75 1.0 10.75 0.95 10.65 1.0 10.45 0.3 10.4 0.45 10.35 1.65 10.4 2.35 10.75 3.15 10.85 4.0 8.15 6.65 11.2 8.4 11.3 9.65 11.25 10.55 11.1 11.35 11.1 11.95 11.2 12.5 11.4 12.95 11.55 13.05 11.6 13.1 11.65 13.05 11.8 15.15 M12.65 2.45 L12.7 2.5 12.7 2.55 12.55 5.55 12.5 5.65 12.65 2.45 M12.3 5.9 L12.2 5.95 11.95 6.0 12.05 3.0 12.25 2.7 12.45 2.5 12.3 5.9 M12.25 10.45 L12.15 11.9 12.1 11.95 12.05 12.35 11.95 12.65 11.9 12.65 11.85 12.85 11.75 12.8 11.8 12.6 11.75 12.55 11.8 12.4 11.75 12.3 11.85 11.8 11.8 11.75 11.85 10.9 11.8 10.8 11.95 6.5 12.15 6.45 12.3 6.6 12.1 10.4 12.15 10.45 12.1 11.05 12.15 11.05 12.2 10.45 12.25 10.45" fill="#7f6600" fill-rule="evenodd" stroke="none"/>
    <path d="M12.55 2.45 L12.65 2.45 12.5 5.65 12.3 5.9 12.45 2.5 12.55 2.45 M12.3 6.6 L12.35 6.65 12.45 6.8 12.4 7.8 12.25 10.45 12.2 10.45 12.15 11.05 12.1 11.05 12.15 10.45 12.1 10.4 12.3 6.6 M9.4 2.5 L9.35 2.7 9.35 2.5 9.4 2.5" fill="#ffcc00" fill-rule="evenodd" stroke="none"/>
    <path d="M12.7 2.55 L12.75 2.65 12.6 5.6 13.1 6.05 12.7 6.6 12.25 11.7 12.2 11.75 12.1 12.4 12.05 12.35 11.8 15.15 11.65 13.05 11.6 13.1 11.55 13.05 11.4 12.95 11.2 12.5 11.1 11.95 11.1 11.35 11.25 10.55 11.3 9.65 11.2 8.4 8.15 6.65 9.15 3.0 9.25 3.05 9.2 1.4 9.25 1.25 9.3 1.2 9.55 1.3 9.75 1.3 9.4 2.5 9.35 2.5 9.35 2.7 9.25 3.05 8.15 6.65 10.85 4.0 10.75 3.15 10.4 2.35 10.35 1.65 10.4 0.45 10.45 0.3 10.65 1.0 10.75 0.95 10.75 1.0 10.9 1.5 11.0 1.45 11.05 1.55 11.15 1.5 11.0 1.25 11.05 1.25 10.9 0.95 10.75 0.45 10.7 0.15 10.65 0.25 10.5 -1.55 11.45 1.8 11.6 1.95 12.1 2.3 12.55 2.45 12.45 2.5 12.25 2.7 12.05 3.0 11.95 6.0 12.2 5.95 12.3 5.9 12.5 5.65 12.55 5.55 12.7 2.55 M10.55 12.35 L10.4 12.35 10.3 12.2 10.25 12.05 10.05 11.15 10.55 12.35 M9.65 10.05 L9.6 10.05 8.8 8.15 9.65 10.05 M12.25 10.45 L12.4 7.8 12.45 6.8 12.35 6.65 12.3 6.6 12.15 6.45 11.95 6.5 11.8 10.8 11.85 10.9 11.8 11.75 11.85 11.8 11.75 12.3 11.8 12.4 11.75 12.55 11.8 12.6 11.75 12.8 11.85 12.85 11.9 12.65 11.95 12.65 12.05 12.35 12.1 11.95 12.15 11.9 12.25 10.45" fill="#000000" fill-rule="evenodd" stroke="none"/>
  </g>
</svg>
