<?xml version="1.0" encoding="UTF-8" standalone="no"?>
<svg xmlns:ffdec="https://www.free-decompiler.com/flash" xmlns:xlink="http://www.w3.org/1999/xlink" ffdec:objectType="shape" height="16.8px" width="4.65px" xmlns="http://www.w3.org/2000/svg">
  <g transform="matrix(1.0, 0.0, 0.0, 1.0, -8.15, 1.55)">
    <path d="M10.8 5.7 L10.85 5.75 10.9 2.6 11.05 3.05 11.1 3.45 11.05 4.5 12.8 6.55 11.0 8.1 10.9 12.2 10.8 12.7 10.8 12.85 10.65 13.1 10.65 13.15 10.55 13.15 10.45 13.05 10.3 12.7 10.2 11.95 10.25 8.25 8.15 6.55 10.25 4.2 10.15 1.95 10.25 0.65 10.35 0.25 10.4 0.15 10.4 0.65 10.45 0.6 10.5 1.25 10.55 1.25 10.55 1.15 10.6 1.15 10.55 0.3 10.6 0.35 10.6 0.15 10.65 0.25 10.7 0.3 10.8 0.85 10.85 2.25 10.9 2.55 10.8 2.5 10.8 2.45 10.65 2.5 10.55 2.6 10.55 5.8 10.6 5.75 10.65 5.75 10.7 5.6 10.8 5.7 M10.65 6.8 L10.55 6.7 10.5 11.05 10.55 11.1 10.5 12.25 10.55 12.3 10.55 12.7 10.65 12.75 10.65 12.55 10.7 12.5 10.7 12.0 10.75 11.95 10.75 10.5 10.8 10.45 10.85 6.75 10.75 6.85 10.7 6.9 10.65 6.8" fill="#000000" fill-rule="evenodd" stroke="none"/>
    <path d="M10.8 2.5 L10.9 2.55 10.85 2.25 10.8 0.85 10.7 0.3 10.65 0.25 10.6 0.15 10.6 0.35 10.55 0.3 10.6 1.15 10.55 1.15 10.55 1.25 10.5 1.25 10.45 0.6 10.4 0.65 10.4 0.15 10.35 0.25 10.25 0.65 10.15 1.95 10.25 4.2 8.15 6.55 10.25 8.25 10.2 11.95 10.3 12.7 10.45 13.05 10.55 13.15 10.65 13.15 10.65 13.1 10.8 12.85 10.8 12.7 10.9 12.2 11.0 8.1 12.8 6.55 11.05 4.5 11.1 3.45 11.05 3.05 10.9 2.6 10.85 5.75 10.8 5.7 10.8 2.5 M10.65 5.75 L10.6 5.75 10.55 5.8 10.55 2.6 10.65 2.5 10.65 5.75 M10.75 6.85 L10.85 6.75 10.8 10.45 10.75 10.5 10.75 11.95 10.7 12.0 10.7 12.5 10.65 12.55 10.65 12.75 10.55 12.7 10.55 12.3 10.5 12.25 10.55 11.1 10.5 11.05 10.55 6.7 10.65 6.8 10.6 10.5 10.65 10.5 10.65 11.15 10.7 10.55 10.75 10.5 10.75 6.85 M10.6 15.25 L8.15 6.55 10.5 -1.55 12.8 6.55 10.6 15.25" fill="#7f6600" fill-rule="evenodd" stroke="none"/>
    <path d="M10.8 5.7 L10.7 5.6 10.65 5.75 10.65 2.5 10.8 2.45 10.8 2.5 10.8 5.7 M10.65 6.8 L10.7 6.9 10.75 6.85 10.75 10.5 10.7 10.55 10.65 11.15 10.65 10.5 10.6 10.5 10.65 6.8" fill="#ffcc00" fill-rule="evenodd" stroke="none"/>
  </g>
</svg>
