<?xml version="1.0" encoding="UTF-8" standalone="no"?>
<svg xmlns:ffdec="https://www.free-decompiler.com/flash" xmlns:xlink="http://www.w3.org/1999/xlink" ffdec:objectType="shape" height="16.7px" width="4.6px" xmlns="http://www.w3.org/2000/svg">
  <g transform="matrix(1.0, 0.0, 0.0, 1.0, -8.2, 1.55)">
    <path d="M8.9 2.45 L8.95 2.45 9.05 2.55 9.15 5.85 9.05 5.8 8.95 5.6 8.95 5.55 8.9 2.45 M9.0 6.85 L9.1 6.65 9.15 6.65 9.2 8.85 9.1 6.65 9.2 11.1 9.15 11.05 9.0 6.85" fill="#ffcc00" fill-rule="evenodd" stroke="none"/>
    <path d="M11.5 2.1 L12.8 6.65 9.45 15.15 9.1 12.65 9.15 12.25 9.3 12.85 9.35 12.95 9.5 13.1 9.5 13.05 9.55 13.1 9.7 13.05 9.75 13.0 10.0 12.3 10.05 11.45 9.95 10.75 9.9 9.0 9.95 8.4 12.8 6.65 10.2 4.0 10.25 3.3 10.4 3.0 10.6 2.45 10.6 2.35 10.65 1.75 10.6 0.5 10.55 0.25 10.5 0.2 10.5 0.45 10.3 1.1 10.25 1.05 10.15 1.45 10.05 1.35 10.1 1.3 10.05 1.25 10.25 0.6 10.3 0.15 10.35 0.2 10.5 -1.55 11.3 1.25 11.5 2.1 M8.8 2.5 L8.85 2.45 8.9 2.45 8.95 5.55 8.9 5.65 8.8 2.5 M9.05 2.55 L9.15 2.6 9.25 2.75 9.35 5.95 9.15 5.85 9.05 2.55 M9.15 6.65 L9.3 6.55 9.35 6.55 9.4 10.3 9.35 10.35 9.45 11.8 9.4 11.85 9.45 12.4 9.4 12.45 9.45 12.65 9.4 12.65 9.45 12.85 9.4 12.85 9.35 12.7 9.3 12.65 9.25 12.25 9.2 12.2 9.2 12.15 9.15 12.2 9.05 10.45 9.0 10.4 8.95 6.9 9.0 6.85 9.15 11.05 9.2 11.1 9.1 6.65 9.2 8.85 9.15 6.65" fill="#7f6600" fill-rule="evenodd" stroke="none"/>
    <path d="M11.3 1.25 L11.4 1.2 11.45 1.2 11.5 1.3 11.5 1.4 11.55 1.65 11.5 2.1 11.3 1.25 M9.1 12.65 L9.0 12.2 8.2 6.4 8.8 4.45 8.75 2.7 8.8 2.5 8.9 5.65 8.95 5.55 8.95 5.6 9.05 5.8 9.15 5.85 9.35 5.95 9.25 2.75 9.15 2.6 9.05 2.55 8.95 2.45 9.05 2.4 9.25 2.35 9.45 2.15 10.5 -1.55 10.35 0.2 10.3 0.15 10.25 0.6 10.05 1.25 10.1 1.3 10.05 1.35 10.15 1.45 10.25 1.05 10.3 1.1 10.5 0.45 10.5 0.2 10.55 0.25 10.6 0.5 10.65 1.75 10.6 2.35 10.6 2.45 10.4 3.0 10.25 3.3 10.2 4.0 12.8 6.65 9.95 8.4 9.9 9.0 9.95 10.75 10.05 11.45 10.0 12.3 9.75 13.0 9.7 13.05 9.55 13.1 9.5 13.05 9.5 13.1 9.35 12.95 9.3 12.85 9.15 12.25 9.1 12.65 M9.15 6.65 L9.1 6.65 9.0 6.85 8.95 6.9 9.0 10.4 9.05 10.45 9.15 12.2 9.2 12.15 9.2 12.2 9.25 12.25 9.3 12.65 9.35 12.7 9.4 12.85 9.45 12.85 9.4 12.65 9.45 12.65 9.4 12.45 9.45 12.4 9.4 11.85 9.45 11.8 9.35 10.35 9.4 10.3 9.35 6.55 9.3 6.55 9.15 6.65" fill="#000000" fill-rule="evenodd" stroke="none"/>
  </g>
</svg>
