<?xml version="1.0" encoding="UTF-8" standalone="no"?>
<svg xmlns:ffdec="https://www.free-decompiler.com/flash" xmlns:xlink="http://www.w3.org/1999/xlink" ffdec:objectType="shape" height="16.5px" width="6.35px" xmlns="http://www.w3.org/2000/svg">
  <g transform="matrix(1.0, 0.0, 0.0, 1.0, -6.4, 1.55)">
    <path d="M11.1 0.8 L11.2 1.1 12.7 6.8 9.85 4.0 10.0 3.0 10.0 2.95 10.35 2.45 10.5 1.3 10.5 1.05 10.5 0.6 10.45 0.35 10.45 0.25 10.35 0.15 10.3 0.15 10.2 0.25 10.5 -1.55 11.1 0.8 M7.4 2.55 L7.6 5.85 7.35 5.6 7.15 2.4 7.2 2.4 7.4 2.55 M9.2 8.35 L12.7 6.8 11.15 9.65 10.75 10.35 9.65 12.55 8.3 14.95 8.55 12.95 8.7 12.9 8.9 12.65 8.95 12.55 9.2 11.65 9.2 11.3 8.95 10.4 9.0 9.55 9.2 8.35 M12.1 2.55 L12.25 2.55 12.2 3.6 12.05 3.35 12.1 2.55 M10.6 10.8 L10.75 10.85 10.7 10.95 10.5 10.95 10.6 10.8 M7.5 6.45 L7.6 6.4 7.85 10.2 7.75 10.25 7.85 10.85 7.75 10.9 7.8 11.35 7.65 10.55 7.65 10.25 7.6 10.25 7.4 6.65 7.5 6.45" fill="#ffcc00" fill-rule="evenodd" stroke="none"/>
    <path d="M9.85 4.0 L12.7 6.8 9.2 8.35 8.9 7.8 8.8 7.65 8.75 6.9 8.7 6.9 8.6 6.8 8.7 8.55 8.55 6.7 8.5 6.65 8.65 9.65 8.5 9.75 8.7 11.05 8.55 11.2 8.7 11.65 8.6 11.75 8.7 11.95 8.6 12.05 8.7 12.25 8.6 12.35 8.7 12.5 8.55 12.65 8.5 12.75 8.4 12.8 8.25 12.65 8.05 12.3 8.0 12.25 7.85 11.9 7.85 11.85 7.55 10.0 7.35 6.8 6.4 5.95 7.25 5.4 7.1 2.4 7.15 2.4 7.35 5.6 7.6 5.85 7.4 2.55 7.5 2.5 8.15 2.4 8.2 2.35 8.15 2.3 8.9 2.0 9.15 1.85 9.1 1.8 9.25 1.75 9.35 1.65 9.35 1.6 9.45 1.5 9.7 1.25 9.65 1.25 9.75 1.15 9.85 1.0 10.2 0.25 10.3 0.15 10.35 0.15 10.45 0.25 10.45 0.35 10.5 0.6 10.5 1.05 10.05 1.7 9.95 1.95 9.7 2.2 9.65 2.05 9.2 2.4 9.2 2.55 9.05 2.65 8.9 2.9 8.7 3.0 8.75 3.15 8.6 3.25 8.6 3.45 8.35 3.55 8.5 3.75 8.6 5.75 8.7 5.7 8.7 5.15 9.85 4.0 M11.15 9.65 L11.35 9.5 11.4 9.5 10.75 10.85 10.6 10.8 10.55 10.8 10.75 10.35 11.15 9.65 M8.45 5.85 L8.5 5.8 8.4 4.7 8.45 5.85 M7.5 6.45 L7.4 6.65 7.6 10.25 7.65 10.25 7.65 10.55 7.8 11.35 7.75 10.9 7.85 10.85 7.75 10.25 7.85 10.2 7.6 6.4 7.5 6.45" fill="#7f6600" fill-rule="evenodd" stroke="none"/>
    <path d="M11.1 0.8 L11.45 1.25 12.0 1.35 12.5 1.2 12.55 1.25 12.45 3.1 12.75 3.05 12.7 6.8 11.2 1.1 11.1 0.8 M9.85 4.0 L8.7 5.15 8.7 5.7 8.6 5.75 8.5 3.75 8.35 3.55 8.6 3.45 8.6 3.25 8.75 3.15 8.7 3.0 8.9 2.9 9.05 2.65 9.2 2.55 9.2 2.4 9.65 2.05 9.7 2.2 9.95 1.95 10.05 1.7 10.5 1.05 10.5 1.3 10.35 2.45 10.0 2.95 10.0 3.0 9.85 4.0 M10.2 0.25 L9.85 1.0 9.75 1.15 9.65 1.25 9.7 1.25 9.45 1.5 9.35 1.6 9.35 1.65 9.25 1.75 9.1 1.8 9.15 1.85 8.9 2.0 8.15 2.3 8.2 2.35 8.15 2.4 7.5 2.5 7.4 2.55 7.2 2.4 8.0 2.25 8.85 1.9 9.45 1.5 9.85 0.9 10.5 -1.55 10.2 0.25 M7.55 10.0 L7.85 11.85 7.55 10.45 7.55 10.0 M7.85 11.9 L8.0 12.25 8.05 12.3 8.25 12.65 8.4 12.8 8.5 12.75 8.55 12.65 8.7 12.5 8.6 12.35 8.7 12.25 8.6 12.05 8.7 11.95 8.6 11.75 8.7 11.65 8.55 11.2 8.7 11.05 8.5 9.75 8.65 9.65 8.5 6.65 8.55 6.7 8.7 8.55 8.6 6.8 8.7 6.9 8.75 6.9 8.8 7.65 8.9 7.8 9.2 8.35 9.0 9.55 8.95 10.4 9.2 11.3 9.2 11.65 8.95 12.55 8.9 12.65 8.7 12.9 8.55 12.95 8.3 14.95 8.3 12.8 8.25 12.75 8.0 12.3 8.0 12.25 7.95 12.25 7.85 11.9 M12.7 6.8 L11.9 10.15 11.5 10.0 10.95 11.1 10.95 11.15 10.5 12.25 10.45 12.35 10.2 12.3 10.15 12.3 10.1 12.25 9.65 12.55 10.75 10.35 10.55 10.8 10.6 10.8 10.5 10.95 10.7 10.95 10.75 10.85 11.4 9.5 11.35 9.5 11.15 9.65 12.7 6.8 M12.1 2.55 L12.05 3.35 12.2 3.6 12.25 2.55 12.1 2.55 M8.45 5.85 L8.4 4.7 8.5 5.8 8.45 5.85" fill="#000000" fill-rule="evenodd" stroke="none"/>
  </g>
</svg>
