<?xml version="1.0" encoding="UTF-8" standalone="no"?>
<svg xmlns:ffdec="https://www.free-decompiler.com/flash" xmlns:xlink="http://www.w3.org/1999/xlink" ffdec:objectType="shape" height="16.15px" width="9.25px" xmlns="http://www.w3.org/2000/svg">
  <g transform="matrix(1.0, 0.0, 0.0, 1.0, -4.65, 1.55)">
    <path d="M11.1 0.95 L11.45 1.35 11.9 1.65 11.9 1.55 12.2 1.65 12.2 1.55 12.35 1.6 12.75 1.65 12.65 1.75 12.9 1.75 12.9 1.85 13.05 1.85 13.05 1.95 13.15 1.95 13.15 1.85 13.25 1.85 13.2 1.65 13.3 1.6 13.25 1.55 13.4 1.5 13.45 1.7 13.4 1.8 13.35 1.95 13.3 1.8 13.25 1.95 13.25 1.85 13.15 1.95 13.05 2.1 13.05 2.4 12.9 2.6 12.85 2.6 12.8 3.4 12.4 3.5 11.7 3.5 11.45 2.35 11.75 2.5 12.05 2.55 11.75 2.45 11.4 2.25 11.1 0.95 M11.7 3.55 L13.3 4.8 12.8 6.15 12.65 6.65 12.55 7.35 12.55 6.9 8.5 8.25 8.15 10.55 8.45 11.1 8.4 11.45 8.2 12.2 7.95 12.55 7.85 12.55 7.75 12.65 7.6 12.6 7.55 12.6 7.4 12.55 7.25 12.35 7.2 12.35 7.05 12.15 6.95 12.05 6.9 11.95 6.8 11.75 6.75 11.7 6.65 11.4 6.5 10.85 6.45 10.55 6.4 10.3 6.35 10.0 6.3 9.95 6.2 8.35 6.45 10.55 6.5 10.55 6.6 11.05 6.75 11.4 6.8 11.4 6.7 11.05 6.75 11.0 6.65 10.55 6.75 10.5 6.65 9.9 6.85 9.8 6.6 6.4 6.45 6.35 6.2 6.4 6.05 6.55 6.05 6.6 4.65 5.7 5.9 5.2 5.65 2.3 5.7 2.3 5.95 5.3 6.15 5.5 6.5 5.65 6.3 2.7 5.75 2.35 6.25 2.3 6.8 2.25 7.05 2.2 7.45 2.1 8.6 1.7 8.6 1.65 8.65 1.65 9.05 1.45 9.55 0.95 9.65 0.85 10.05 0.25 10.15 0.15 10.25 0.15 10.3 0.2 10.35 0.3 10.35 1.1 10.15 2.4 9.75 2.8 9.45 3.95 12.55 6.9 11.7 3.55 M12.2 1.65 L12.35 1.7 12.35 1.6 12.2 1.65 M10.75 9.5 L11.4 9.75 11.75 9.6 11.8 9.6 11.75 9.7 10.95 10.7 10.8 11.25 10.7 11.3 10.65 11.4 10.6 11.9 10.6 11.95 10.55 12.05 10.45 12.05 10.4 12.1 10.3 12.1 10.35 12.0 10.25 12.05 10.3 12.0 10.15 12.0 10.25 11.9 10.05 12.0 10.1 11.9 10.0 11.9 10.0 11.75 9.9 11.9 9.9 11.8 9.5 11.9 9.45 12.05 9.05 12.15 9.0 12.3 8.9 12.3 9.75 11.1 10.35 10.95 10.5 10.95 10.1 10.9 9.8 11.0 10.75 9.5" fill="#7f6600" fill-rule="evenodd" stroke="none"/>
    <path d="M10.95 0.25 L11.1 0.95 11.4 2.25 11.45 2.35 11.7 3.5 11.7 3.55 12.55 6.9 9.45 3.95 9.75 2.8 10.15 2.4 10.35 1.1 10.35 0.3 10.3 0.2 10.25 0.15 10.15 0.15 10.05 0.25 10.5 -1.55 10.95 0.25 M12.9 2.6 L13.05 2.6 12.95 3.65 12.8 3.4 12.85 2.6 12.9 2.6 M8.7 12.6 L7.3 14.6 7.65 12.65 7.75 12.65 7.8 12.65 7.95 12.55 8.2 12.2 8.4 11.45 8.45 11.1 8.15 10.55 8.5 8.25 12.55 6.9 10.75 9.5 9.8 11.0 9.75 11.1 8.9 12.3 8.7 12.6 M6.2 8.35 L6.05 6.6 6.05 6.55 6.2 6.4 6.45 6.35 6.6 6.4 6.85 9.8 6.65 9.9 6.75 10.5 6.65 10.55 6.75 11.0 6.7 11.05 6.8 11.4 6.75 11.4 6.6 11.05 6.5 10.55 6.45 10.55 6.2 8.35 M12.8 6.15 L12.8 6.85 12.6 8.1 12.55 7.35 12.65 6.65 12.8 6.15 M5.7 2.3 L5.75 2.35 6.3 2.7 6.5 5.65 6.15 5.5 5.95 5.3 5.7 2.3" fill="#ffcc00" fill-rule="evenodd" stroke="none"/>
    <path d="M10.95 0.25 L11.45 0.9 11.85 1.2 12.6 1.35 13.1 1.35 13.5 1.25 13.55 1.3 13.4 3.2 13.9 3.15 13.3 4.8 11.7 3.55 11.7 3.5 12.4 3.5 12.8 3.4 12.95 3.65 13.05 2.6 12.9 2.6 13.05 2.4 13.05 2.1 13.15 1.95 13.25 1.85 13.25 1.95 13.3 1.8 13.35 1.95 13.4 1.8 13.45 1.7 13.4 1.5 13.25 1.55 13.3 1.6 13.2 1.65 13.25 1.85 13.15 1.85 13.15 1.95 13.05 1.95 13.05 1.85 12.9 1.85 12.9 1.75 12.65 1.75 12.75 1.65 12.35 1.6 12.2 1.55 12.2 1.65 11.9 1.55 11.9 1.65 11.45 1.35 11.1 0.95 10.95 0.25 M13.3 4.8 L12.9 8.45 12.7 8.95 12.6 9.1 12.65 10.3 12.0 10.1 11.05 11.3 10.45 12.35 9.9 12.25 9.7 12.25 9.1 12.45 9.0 12.5 8.7 12.6 8.9 12.3 9.0 12.3 9.05 12.15 9.45 12.05 9.5 11.9 9.9 11.8 9.9 11.9 10.0 11.75 10.0 11.9 10.1 11.9 10.05 12.0 10.25 11.9 10.15 12.0 10.3 12.0 10.25 12.05 10.35 12.0 10.3 12.1 10.4 12.1 10.45 12.05 10.55 12.05 10.6 11.95 10.6 11.9 10.65 11.4 10.7 11.3 10.8 11.25 10.95 10.7 11.75 9.7 11.8 9.6 11.75 9.6 11.4 9.75 10.75 9.5 12.55 6.9 12.55 7.35 12.6 8.1 12.8 6.85 12.8 6.15 13.3 4.8 M7.3 14.6 L7.6 12.65 7.4 12.55 7.3 12.5 7.05 12.25 7.05 12.15 7.2 12.35 7.25 12.35 7.4 12.55 7.55 12.6 7.6 12.6 7.75 12.65 7.65 12.65 7.3 14.6 M6.9 11.95 L6.75 11.7 6.7 11.6 6.65 11.4 6.55 11.1 6.5 10.85 6.4 10.6 6.4 10.3 6.35 10.3 6.35 10.0 6.4 10.3 6.45 10.55 6.5 10.85 6.65 11.4 6.75 11.7 6.8 11.75 6.9 11.95 M5.7 2.3 L6.25 2.25 6.25 2.3 5.75 2.35 5.7 2.3 M7.05 2.2 L8.6 1.7 7.45 2.1 7.05 2.2 M8.65 1.65 L9.55 0.95 9.05 1.45 8.65 1.65 M12.2 1.65 L12.35 1.6 12.35 1.7 12.2 1.65 M11.45 2.35 L11.4 2.25 11.75 2.45 12.05 2.55 11.75 2.5 11.45 2.35 M9.8 11.0 L10.1 10.9 10.5 10.95 10.35 10.95 9.75 11.1 9.8 11.0 M7.95 12.55 L7.8 12.65 7.75 12.65 7.85 12.55 7.95 12.55" fill="#000000" fill-rule="evenodd" stroke="none"/>
  </g>
</svg>
