<?xml version="1.0" encoding="UTF-8" standalone="no"?>
<svg xmlns:ffdec="https://www.free-decompiler.com/flash" xmlns:xlink="http://www.w3.org/1999/xlink" ffdec:objectType="shape" height="15.75px" width="11.7px" xmlns="http://www.w3.org/2000/svg">
  <g transform="matrix(1.0, 0.0, 0.0, 1.0, -3.35, 1.55)">
    <path d="M14.5 1.35 L14.5 1.5 14.3 1.85 14.15 3.75 14.35 3.6 14.35 3.3 15.05 3.25 14.25 4.35 14.1 4.6 13.75 7.65 13.6 8.3 13.2 9.2 13.05 9.35 12.9 8.8 12.95 8.8 13.15 8.35 13.4 7.25 13.55 5.4 13.55 5.3 12.25 7.0 13.4 10.55 12.45 10.25 12.55 10.15 12.6 10.0 12.55 9.9 12.55 10.0 11.45 10.95 10.55 11.95 10.55 12.15 10.5 12.3 10.4 12.25 10.25 12.2 10.2 12.25 10.0 12.25 10.1 12.2 10.0 12.2 10.0 12.15 9.7 12.1 9.6 12.1 9.65 12.05 9.45 12.05 8.4 12.25 8.4 12.3 8.05 12.35 9.15 11.05 9.2 11.05 9.45 11.0 10.35 10.95 10.5 11.0 10.5 10.95 10.35 10.95 9.95 10.85 9.45 10.9 9.3 10.95 12.25 7.0 11.9 3.5 11.55 2.3 11.6 2.35 12.0 2.5 12.25 2.55 11.8 2.4 11.45 2.2 10.9 0.2 11.2 0.55 11.7 1.0 11.7 0.9 12.0 1.15 12.05 1.2 12.45 1.3 12.55 1.3 13.0 1.4 13.85 1.45 14.05 1.4 14.0 1.4 14.3 1.35 14.35 1.4 14.5 1.35 M6.75 12.25 L6.65 12.2 6.4 12.0 6.35 12.0 6.15 11.75 6.1 11.65 5.9 11.35 5.8 11.0 5.85 11.0 6.0 11.35 6.35 11.15 6.2 10.85 6.45 11.1 6.35 10.8 6.5 10.7 6.4 10.4 6.55 10.3 6.3 9.35 6.7 9.15 6.45 6.65 5.8 6.3 5.75 6.3 5.6 6.2 5.55 6.25 5.4 6.2 5.35 6.2 5.25 6.15 5.25 6.2 5.1 6.2 4.95 6.35 3.35 5.4 12.25 7.0 6.75 4.65 6.65 3.7 7.0 3.65 6.95 3.4 7.25 3.35 7.2 3.15 7.8 2.6 7.8 2.45 8.05 2.35 8.05 2.2 8.3 2.0 8.0 2.1 8.25 1.9 8.05 2.0 7.3 2.15 7.3 2.05 7.25 2.1 6.1 2.3 6.05 2.3 4.9 2.4 5.05 2.3 4.75 2.3 4.6 2.2 5.35 2.15 5.25 2.2 6.0 2.1 6.3 2.05 7.95 1.65 8.2 1.6 8.35 1.55 8.75 1.35 8.9 1.2 9.05 1.15 9.15 1.05 9.6 0.7 9.75 0.5 9.85 0.45 9.8 0.45 10.0 0.2 10.1 0.15 10.0 0.4 9.85 0.45 9.9 0.45 9.75 0.55 9.75 0.6 9.8 0.6 9.65 0.75 8.8 1.4 8.85 1.45 8.7 1.5 8.65 1.55 8.7 1.65 8.45 1.7 8.5 1.8 8.3 1.9 8.45 1.7 8.2 1.8 8.2 1.85 8.25 1.9 8.3 2.0 8.35 2.1 8.55 1.9 8.6 2.0 8.85 1.9 9.8 1.25 9.9 1.0 10.0 0.85 10.05 0.95 10.15 0.7 10.25 0.8 9.95 2.4 9.5 2.7 9.1 3.9 12.25 7.0 7.95 8.05 7.5 10.45 7.55 10.55 7.8 10.9 7.75 11.1 7.35 12.1 7.15 12.3 7.05 12.35 6.85 12.25 6.75 12.25 M5.75 11.05 L5.7 11.05 5.6 10.75 5.35 9.6 5.3 9.55 5.25 8.95 5.6 10.45 5.8 11.0 5.75 11.05 M4.8 4.95 L4.5 2.2 4.55 2.2 4.8 4.95 M13.6 2.65 L13.55 3.55 13.65 3.8 13.75 2.65 13.6 2.65 M13.4 5.6 L13.1 7.85 12.9 8.55 12.45 6.85 13.4 5.6 M9.75 0.6 L9.6 0.7 9.65 0.75 9.75 0.6 M8.6 1.6 L8.4 1.65 8.45 1.7 8.6 1.6 M6.35 5.25 L6.15 3.35 6.4 5.25 6.35 5.25 M6.55 5.15 L6.4 3.55 6.7 5.15 6.55 5.15 M6.6 6.75 L6.9 9.1 6.7 6.85 6.6 6.75" fill="#7f6600" fill-rule="evenodd" stroke="none"/>
    <path d="M10.5 -1.55 L10.95 0.15 11.65 0.85 12.3 1.2 12.65 1.3 13.7 1.4 14.0 1.4 14.0 1.35 14.5 1.3 14.5 1.35 14.35 1.4 14.3 1.35 14.0 1.4 14.05 1.4 13.85 1.45 13.0 1.4 12.55 1.3 12.45 1.3 12.05 1.2 12.0 1.15 11.7 0.9 11.7 1.0 11.2 0.55 10.9 0.2 11.45 2.2 11.8 2.4 12.25 2.55 12.0 2.5 11.6 2.35 11.55 2.3 11.9 3.5 12.25 7.0 10.5 -1.55 M14.5 1.5 L14.35 3.3 14.35 3.6 14.15 3.75 14.3 1.85 14.5 1.5 M14.25 4.35 L14.1 6.7 13.55 8.85 13.25 9.4 13.1 9.5 13.4 10.55 12.25 7.0 13.55 5.3 13.55 5.4 13.4 5.6 12.45 6.85 12.9 8.55 12.95 8.8 12.9 8.8 13.05 9.35 13.2 9.2 13.6 8.3 13.75 7.65 14.1 4.6 14.25 4.35 M12.45 10.25 L11.4 11.15 10.5 12.3 10.45 12.35 10.0 12.25 9.55 12.15 9.35 12.15 8.05 12.4 6.5 14.2 12.25 7.0 9.3 10.95 9.45 10.9 9.95 10.85 10.35 10.95 10.5 10.95 10.5 11.0 10.35 10.95 9.45 11.0 9.2 11.05 9.15 11.05 8.05 12.35 8.4 12.3 8.4 12.25 9.45 12.05 9.65 12.05 9.6 12.1 9.7 12.1 10.0 12.15 10.0 12.2 10.1 12.2 10.0 12.25 10.2 12.25 10.25 12.2 10.4 12.25 10.5 12.3 10.55 12.15 10.55 11.95 11.45 10.95 12.55 10.0 12.55 9.9 12.6 10.0 12.55 10.15 12.45 10.25 M6.9 12.35 L6.85 12.3 6.75 12.25 6.85 12.25 7.05 12.35 6.9 12.35 M6.65 12.2 L6.5 12.15 6.35 12.0 6.2 11.85 6.15 11.75 6.35 12.0 6.4 12.0 6.65 12.2 M6.1 11.65 L5.95 11.5 5.95 11.45 5.9 11.35 5.75 11.1 5.75 11.05 5.8 11.0 5.9 11.35 6.1 11.65 M5.6 10.75 L5.3 9.55 5.35 9.6 5.6 10.75 M5.35 2.15 L6.0 2.1 6.15 2.05 6.3 2.05 6.0 2.1 5.25 2.2 5.35 2.15 M7.95 1.65 L8.35 1.55 8.2 1.6 7.95 1.65 M9.05 1.15 L9.75 0.5 9.8 0.45 9.85 0.45 9.75 0.5 9.6 0.7 9.15 1.05 9.05 1.15" fill="#000000" fill-rule="evenodd" stroke="none"/>
    <path d="M6.5 14.2 L6.9 12.35 7.05 12.35 7.15 12.3 7.35 12.1 7.75 11.1 7.8 10.9 7.55 10.55 7.5 10.45 7.95 8.05 12.25 7.0 6.5 14.2 M5.25 8.95 L4.95 6.35 5.1 6.2 5.25 6.2 5.25 6.15 5.35 6.2 5.4 6.2 5.55 6.25 5.6 6.2 5.75 6.3 5.8 6.3 6.45 6.65 6.7 9.15 6.3 9.35 6.55 10.3 6.4 10.4 6.5 10.7 6.35 10.8 6.45 11.1 6.2 10.85 6.35 11.15 6.0 11.35 5.85 11.0 5.8 11.0 5.6 10.45 5.25 8.95 M3.35 5.4 L4.8 4.95 4.55 2.2 4.6 2.2 4.75 2.3 5.05 2.3 4.9 2.4 6.05 2.3 6.1 2.3 7.25 2.1 7.3 2.05 7.3 2.15 8.05 2.0 8.25 1.9 8.0 2.1 8.3 2.0 8.05 2.2 8.05 2.35 7.8 2.45 7.8 2.6 7.2 3.15 7.25 3.35 6.95 3.4 7.0 3.65 6.65 3.7 6.75 4.65 12.25 7.0 9.1 3.9 9.5 2.7 9.95 2.4 10.25 0.8 10.15 0.7 10.05 0.95 10.0 0.85 9.9 1.0 9.8 1.25 8.85 1.9 8.6 2.0 8.55 1.9 8.35 2.1 8.3 2.0 8.25 1.9 8.2 1.85 8.2 1.8 8.45 1.7 8.3 1.9 8.5 1.8 8.45 1.7 8.7 1.65 8.65 1.55 8.7 1.5 8.85 1.45 8.8 1.4 9.65 0.75 9.8 0.6 9.75 0.6 9.75 0.55 9.9 0.45 9.85 0.45 10.0 0.4 10.1 0.15 10.0 0.2 10.0 0.0 10.5 -1.55 12.25 7.0 3.35 5.4 M13.6 2.65 L13.75 2.65 13.65 3.8 13.55 3.55 13.6 2.65 M13.4 5.6 L13.55 5.4 13.4 7.25 13.15 8.35 12.95 8.8 12.9 8.55 13.1 7.85 13.4 5.6 M8.6 1.6 L8.45 1.7 8.4 1.65 8.6 1.6 M9.75 0.6 L9.65 0.75 9.6 0.7 9.75 0.6 M6.6 6.75 L6.7 6.85 6.9 9.1 6.6 6.75 M6.55 5.15 L6.7 5.15 6.4 3.55 6.55 5.15 M6.35 5.25 L6.4 5.25 6.15 3.35 6.35 5.25" fill="#ffcc00" fill-rule="evenodd" stroke="none"/>
  </g>
</svg>
