<?xml version="1.0" encoding="UTF-8" standalone="no"?>
<svg xmlns:ffdec="https://www.free-decompiler.com/flash" xmlns:xlink="http://www.w3.org/1999/xlink" ffdec:objectType="shape" height="16.1px" width="13.5px" xmlns="http://www.w3.org/2000/svg">
  <g transform="matrix(1.0, 0.0, 0.0, 1.0, -2.65, 1.7)">
    <path d="M7.5 6.25 L7.5 6.3 7.75 6.15 7.5 6.35 7.45 6.45 6.4 7.3 2.85 9.7 2.65 9.8 2.7 9.85 2.8 11.3 2.75 11.35 2.65 9.8 2.65 9.75 2.8 9.6 7.3 6.5 7.5 6.25 M12.55 -0.1 L12.4 -0.25 12.4 -0.3 12.55 -0.1 M12.75 0.1 L12.75 0.05 12.75 0.1 M13.05 0.5 L13.15 0.65 13.35 1.2 13.45 1.45 13.45 1.55 13.4 1.45 13.35 1.2 13.05 0.5 M13.55 1.9 L13.65 2.75 13.6 3.05 13.55 1.9 M13.6 3.35 L13.6 3.4 13.55 3.35 13.6 3.35 M13.3 4.3 L13.35 4.3 13.25 4.5 13.3 4.3 M12.7 5.35 L12.55 5.55 12.45 5.65 12.5 5.9 13.8 6.85 15.95 8.0 16.15 8.15 16.15 8.2 16.1 9.3 16.05 9.35 12.3 7.45 10.7 6.4 10.15 5.9 8.55 7.35 8.45 7.3 9.1 6.8 10.25 5.7 10.25 5.8 10.2 5.85 12.15 7.3 16.1 9.3 16.05 9.15 16.1 8.25 16.15 8.2 15.95 8.05 15.95 8.1 13.8 6.85 13.35 6.6 12.5 5.9 12.45 5.95 12.15 5.7 12.2 5.65 11.85 5.4 11.7 5.15 11.7 5.2 11.5 4.95 11.7 5.15 12.35 5.75 10.65 3.0 11.7 3.45 12.15 4.75 12.15 4.95 12.25 5.35 12.35 5.55 12.35 5.7 12.45 5.65 12.7 5.35 M4.55 10.1 L2.95 11.2 2.95 11.15 4.55 10.1 M10.2 6.15 L11.3 7.0 11.5 7.2 11.6 7.25 12.15 7.6 11.55 7.3 11.35 7.1 11.15 7.0 10.25 6.25 10.2 6.25 10.25 6.2 10.2 6.15 M14.2 8.65 L16.05 9.55 16.05 9.6 16.0 10.5 15.95 10.5 16.0 9.7 16.05 9.6 14.2 8.65 M16.0 10.55 L16.0 10.6 10.5 8.0 10.55 8.0 10.4 7.95 10.35 7.9 10.2 7.8 9.3 8.45 10.3 7.65 10.25 7.75 10.25 7.8 10.6 7.95 10.55 8.0 11.9 8.6 11.95 8.6 16.0 10.55 M3.0 12.85 L2.9 12.85 2.8 11.5 2.8 11.45 7.9 8.05 9.1 7.1 9.2 6.95 10.1 6.05 10.15 6.1 9.1 7.1 9.3 6.95 7.95 8.05 2.8 11.5 2.85 11.6 3.0 12.85 M10.2 8.1 L10.15 8.0 12.3 9.1 10.25 8.1 10.2 8.1 M10.15 8.0 L7.75 9.7 10.05 8.0 10.15 8.0 M6.55 10.55 L2.95 13.1 3.0 13.2 3.1 14.4 3.05 14.4 2.95 13.1 2.95 13.0 6.55 10.55 M15.95 11.0 L16.0 10.9 12.3 9.1 16.0 10.8 16.0 10.9 15.9 11.8 15.9 11.85 10.25 9.3 10.2 9.25 9.1 10.2 10.05 9.5 10.1 9.5 3.4 14.3 3.45 14.15 10.2 9.2 10.25 9.15 10.25 9.2 15.9 11.8 15.9 11.55 15.95 11.0 M10.15 9.5 L15.45 11.95 15.45 12.0 15.4 12.0 3.95 14.3 4.2 14.2 15.2 12.0 15.4 12.0 15.4 11.95 10.2 9.6 10.15 9.5" fill="#000000" fill-rule="evenodd" stroke="none"/>
    <path d="M7.4 5.85 L7.2 5.5 7.6 5.95 7.7 6.0 7.6 6.0 7.45 5.9 7.4 5.85 M7.75 6.15 L7.8 6.15 10.65 3.0 10.1 -1.65 10.3 -1.25 11.1 -1.1 11.25 -1.0 11.1 -1.05 10.25 -1.2 10.3 -1.0 10.3 -0.95 10.6 -0.2 10.9 -0.1 10.85 -0.05 10.7 -0.1 11.25 1.25 12.45 1.35 12.6 1.45 12.8 1.55 13.1 1.6 13.3 1.6 13.0 0.8 12.3 -0.1 12.4 -0.25 12.25 -0.35 11.9 -0.65 11.5 -0.9 11.65 -0.85 12.0 -0.6 12.1 -0.55 12.25 -0.45 12.4 -0.3 12.4 -0.25 12.55 -0.1 12.75 0.1 12.75 0.15 13.0 0.45 13.05 0.5 13.35 1.2 13.4 1.45 13.45 1.55 13.45 1.45 14.05 1.5 13.55 1.9 13.6 3.05 13.6 3.35 13.55 3.35 13.6 3.4 13.45 3.9 13.45 4.0 13.3 4.3 13.25 4.5 12.7 5.35 12.45 5.65 12.35 5.7 12.35 5.55 12.65 5.25 13.0 4.7 13.2 4.15 13.35 3.85 13.45 3.35 13.4 1.9 12.85 2.4 12.8 2.55 12.75 2.55 11.7 3.45 10.65 3.0 12.35 5.75 11.7 5.15 11.5 4.95 11.7 5.2 11.7 5.15 11.85 5.4 12.2 5.65 12.15 5.7 12.45 5.95 12.5 5.9 13.35 6.6 13.8 6.85 15.95 8.1 15.95 8.05 16.15 8.2 16.1 8.25 16.05 9.15 16.1 9.3 12.15 7.3 10.2 5.85 10.25 5.8 10.25 5.7 11.55 6.75 11.65 6.75 12.75 7.45 16.0 9.05 15.9 8.9 15.95 8.35 15.65 8.2 15.7 8.15 15.05 7.85 14.8 7.7 14.8 7.65 13.6 7.0 13.25 6.75 12.65 6.2 12.45 6.1 11.0 4.55 10.3 4.15 8.6 5.45 7.75 6.35 6.4 7.3 2.85 9.8 2.75 9.9 2.85 9.9 2.95 11.15 3.1 10.95 7.7 7.9 8.4 7.35 8.45 7.3 8.4 7.3 9.0 6.8 10.25 5.55 10.25 5.7 9.1 6.8 8.45 7.3 8.55 7.35 4.55 10.1 2.95 11.15 2.95 11.2 2.8 11.3 2.7 9.85 2.65 9.8 2.85 9.7 6.4 7.3 7.45 6.45 7.5 6.35 7.75 6.15 M10.0 -1.25 L10.05 -1.2 9.65 -1.2 8.7 -0.95 8.35 -0.8 8.2 -0.7 8.2 -0.8 8.3 -0.9 9.15 -1.2 10.0 -1.25 M7.7 1.25 L7.65 1.35 7.55 1.4 7.6 1.25 7.65 1.25 7.9 0.8 8.65 0.15 9.2 -0.15 9.7 -0.2 9.55 -0.15 8.9 0.1 8.7 0.2 8.2 0.55 7.8 1.05 7.7 1.25 M10.15 6.1 L10.2 6.15 10.25 6.2 10.2 6.25 9.2 7.2 9.1 7.35 7.9 8.3 2.95 11.6 3.05 11.65 3.1 12.75 3.3 12.45 10.2 7.6 10.3 7.55 10.25 7.65 10.3 7.65 10.7 7.9 12.05 8.5 12.1 8.5 15.85 10.25 15.85 9.8 15.9 9.75 14.9 9.25 15.95 9.75 12.85 8.2 14.05 8.75 12.3 7.9 11.8 7.6 10.3 6.5 10.45 6.55 10.3 6.45 10.25 6.25 11.15 7.0 11.35 7.1 11.55 7.3 12.15 7.6 12.45 7.8 14.2 8.65 16.05 9.6 16.0 9.7 15.95 10.5 16.0 10.5 16.0 10.55 11.95 8.6 11.9 8.6 10.55 8.0 10.6 7.95 10.25 7.8 10.25 7.75 10.3 7.65 9.3 8.45 3.1 12.75 3.0 12.85 2.85 11.6 2.8 11.5 7.95 8.05 9.3 6.95 9.1 7.1 10.15 6.1 M10.15 8.0 L10.2 8.1 3.0 13.2 2.95 13.1 6.55 10.55 7.75 9.7 10.15 8.0 M10.25 8.1 L12.3 9.1 16.0 10.9 15.95 11.0 12.35 9.4 12.35 9.35 10.25 8.3 10.25 8.1 M10.1 9.5 L10.15 9.5 10.2 9.6 15.4 11.95 15.4 12.0 15.2 12.0 4.2 14.2 4.65 14.0 12.7 12.4 12.55 12.4 13.7 11.5 12.75 11.1 12.75 11.05 14.9 12.0 12.75 11.0 12.8 11.0 12.8 10.95 10.25 9.8 10.2 9.6 9.95 9.85 3.55 14.35 3.4 14.35 3.4 14.3 10.1 9.5 M3.45 14.15 L3.3 14.25 3.1 14.4 3.0 13.2 3.2 13.25 3.3 14.25 3.45 14.0 10.3 9.05 10.3 9.1 10.45 9.2 12.0 9.95 12.05 9.95 13.95 10.75 11.6 9.7 14.95 11.15 12.1 9.85 15.7 11.05 13.15 9.9 15.85 11.05 14.25 10.3 15.95 11.0 15.9 11.55 15.9 11.8 10.25 9.2 10.25 9.15 10.2 9.2 3.45 14.15 M7.9 4.9 L7.95 5.0 7.95 5.1 7.5 4.4 7.25 3.65 7.15 2.9 7.2 2.5 7.2 2.4 7.25 2.55 7.3 3.65 7.55 4.4 7.9 4.9" fill="#7f6600" fill-rule="evenodd" stroke="none"/>
    <path d="M7.4 5.85 L7.1 5.55 6.8 5.15 6.8 5.1 6.55 4.65 6.3 4.05 6.2 3.6 6.15 2.45 6.3 1.8 5.8 1.45 6.4 1.4 6.95 0.35 7.3 -0.05 7.3 -0.1 7.7 -0.45 7.8 -0.5 8.2 -0.8 8.2 -0.7 8.35 -0.8 8.7 -0.95 9.65 -1.2 10.05 -1.2 10.0 -1.25 10.1 -1.7 10.1 -1.65 10.65 3.0 7.8 6.15 7.75 6.15 7.5 6.3 7.5 6.25 7.6 6.0 7.7 6.0 7.6 5.95 7.2 5.5 7.4 5.85 M9.55 -0.15 L9.7 -0.2 9.2 -0.15 8.65 0.15 7.9 0.8 7.65 1.25 7.6 1.25 7.55 1.4 7.65 1.35 7.7 1.25 9.1 1.15 9.55 -0.15 M10.85 -0.05 L10.9 -0.1 10.6 -0.2 10.3 -0.95 10.3 -1.0 10.25 -1.2 11.1 -1.05 11.25 -1.0 11.5 -0.9 11.9 -0.65 12.25 -0.35 12.4 -0.25 12.3 -0.1 13.0 0.8 13.3 1.6 13.1 1.6 12.8 1.55 12.6 1.45 12.45 1.35 12.35 1.15 11.95 0.65 11.35 0.15 10.85 -0.05 M12.15 4.75 L12.6 3.9 12.8 2.9 12.75 2.55 12.8 2.55 12.85 2.4 13.4 1.9 13.45 3.35 13.35 3.85 13.2 4.15 13.0 4.7 12.65 5.25 12.35 5.55 12.25 5.35 12.15 4.95 12.15 4.75 M6.4 7.3 L7.75 6.35 8.6 5.45 10.3 4.15 11.0 4.55 12.45 6.1 12.65 6.2 13.25 6.75 13.6 7.0 14.8 7.65 14.8 7.7 15.05 7.85 15.7 8.15 15.65 8.2 15.95 8.35 15.9 8.9 16.0 9.05 12.75 7.45 11.65 6.75 11.55 6.75 10.25 5.7 10.25 5.55 9.0 6.8 8.4 7.3 8.45 7.3 8.4 7.35 7.7 7.9 3.1 10.95 2.95 11.15 2.85 9.9 2.75 9.9 2.85 9.8 6.4 7.3 M10.25 6.25 L10.3 6.45 10.45 6.55 10.3 6.5 11.8 7.6 12.3 7.9 14.05 8.75 12.85 8.2 15.95 9.75 14.9 9.25 15.9 9.75 15.85 9.8 15.85 10.25 12.1 8.5 12.05 8.5 10.7 7.9 10.3 7.65 10.25 7.65 10.3 7.55 10.2 7.6 3.3 12.45 3.1 12.75 3.05 11.65 2.95 11.6 7.9 8.3 9.1 7.35 9.2 7.2 10.2 6.25 10.25 6.25 M10.2 8.1 L10.25 8.1 10.25 8.3 12.35 9.35 12.35 9.4 15.95 11.0 14.25 10.3 15.85 11.05 13.15 9.9 15.7 11.05 12.1 9.85 14.95 11.15 11.6 9.7 13.95 10.75 12.05 9.95 12.0 9.95 10.45 9.2 10.3 9.1 10.3 9.05 3.45 14.0 3.3 14.25 3.2 13.25 3.0 13.2 10.2 8.1 M3.95 14.3 L3.55 14.35 9.95 9.85 10.2 9.6 10.25 9.8 12.8 10.95 12.8 11.0 12.75 11.0 14.9 12.0 12.75 11.05 12.75 11.1 13.7 11.5 12.55 12.4 12.7 12.4 4.65 14.0 4.2 14.2 3.95 14.3 M7.25 2.55 L7.2 2.4 7.2 2.5 7.15 2.9 7.25 3.65 7.5 4.4 7.95 5.1 7.95 5.0 7.9 4.9 8.35 3.4 7.25 2.55" fill="#ffcc00" fill-rule="evenodd" stroke="none"/>
  </g>
</svg>
