<?xml version="1.0" encoding="UTF-8" standalone="no"?>
<svg xmlns:ffdec="https://www.free-decompiler.com/flash" xmlns:xlink="http://www.w3.org/1999/xlink" ffdec:objectType="shape" height="15.4px" width="14.25px" xmlns="http://www.w3.org/2000/svg">
  <g transform="matrix(1.0, 0.0, 0.0, 1.0, -2.6, 1.7)">
    <path d="M7.6 6.1 L7.35 6.3 7.35 6.35 7.1 6.5 7.0 6.6 6.45 6.95 7.2 6.4 7.4 6.2 7.6 6.1 M4.55 8.15 L2.6 9.35 2.65 9.4 2.75 10.65 2.85 10.6 5.15 9.2 7.55 7.75 8.1 7.35 9.15 6.65 10.2 5.7 10.15 5.8 10.7 6.25 10.75 6.3 10.85 6.35 12.45 7.5 12.75 7.65 12.8 7.65 16.7 9.65 16.8 8.55 16.85 8.5 16.7 8.4 13.6 6.7 12.55 5.9 12.15 5.6 12.2 5.55 12.5 5.8 12.55 5.9 12.75 6.0 13.35 6.5 16.7 8.35 16.85 8.45 16.85 8.5 16.75 9.7 16.7 9.7 12.65 7.65 10.7 6.3 10.65 6.25 10.15 5.9 8.9 6.95 8.7 7.05 7.7 7.85 7.2 8.05 2.7 10.75 2.6 9.35 2.6 9.3 4.55 8.15 M16.7 10.05 L16.75 9.95 12.25 7.75 10.25 6.25 10.15 6.15 10.2 6.15 10.3 6.2 12.2 7.65 16.75 9.9 16.75 9.95 16.65 11.05 10.15 7.8 9.7 8.1 9.65 8.1 9.7 8.05 10.05 7.8 10.15 7.75 11.1 8.25 10.2 7.75 16.6 11.0 16.7 10.05 M10.15 6.1 L8.4 7.6 7.95 7.9 10.1 6.1 10.15 6.1 M5.5 9.35 L2.75 11.0 2.85 11.1 2.95 12.2 3.0 12.15 3.75 11.75 2.95 12.2 2.9 12.25 2.75 11.0 2.75 10.95 2.8 10.9 5.5 9.35 M10.85 9.6 L11.95 10.15 12.0 10.15 16.5 12.3 16.6 11.45 16.6 11.4 16.65 11.3 16.55 12.35 10.9 9.7 10.85 9.6 10.1 9.25 10.15 9.2 10.85 9.6 M16.65 11.3 L14.6 10.25 16.65 11.25 16.65 11.3 M12.25 9.15 L10.2 8.1 10.15 8.0 2.9 12.45 2.95 12.55 2.95 12.6 3.05 13.65 3.2 13.55 9.95 9.4 10.0 9.45 3.05 13.65 3.0 13.7 2.9 12.45 2.9 12.4 10.1 8.0 10.15 8.0 12.25 9.15 M3.3 13.65 L3.35 13.6 3.35 13.55 10.05 9.5 10.1 9.5 16.0 12.35 16.05 12.4 16.1 12.4 16.05 12.45 10.15 9.6 10.1 9.5 3.3 13.65 M15.85 12.5 L3.8 13.65 4.0 13.6 15.7 12.45 15.75 12.45 15.85 12.5 M8.9 8.6 L9.65 8.1 9.65 8.15 8.9 8.6" fill="#000000" fill-rule="evenodd" stroke="none"/>
    <path d="M13.75 1.45 L13.25 0.5 12.85 0.0 12.05 -0.65 11.6 -0.9 11.2 -1.05 10.25 -1.2 10.2 -1.2 10.25 -1.0 10.4 -0.6 10.7 -0.1 10.75 -0.1 11.3 1.25 12.65 1.35 12.8 1.45 13.05 1.55 13.35 1.6 13.6 1.6 13.75 1.55 13.75 1.45 14.45 1.5 13.9 1.9 13.95 2.4 13.95 2.6 13.85 1.85 13.6 1.95 13.0 2.55 13.0 2.6 11.85 3.5 12.3 4.8 12.3 5.0 12.4 5.45 12.5 5.65 12.6 5.75 12.65 5.75 13.1 5.2 13.05 5.2 13.45 4.7 13.4 4.85 12.8 5.65 12.7 5.7 12.65 5.8 12.75 6.0 12.55 5.9 12.5 5.8 12.2 5.55 12.15 5.6 12.55 5.9 13.6 6.7 16.7 8.4 16.85 8.5 16.8 8.55 16.7 9.65 12.8 7.65 12.75 7.65 12.45 7.5 10.85 6.35 10.75 6.3 10.7 6.25 10.15 5.8 10.2 5.7 12.9 7.6 16.6 9.45 16.65 8.65 16.75 8.6 16.65 8.6 16.3 8.4 16.3 8.35 13.75 6.95 12.55 6.1 11.2 4.75 11.0 4.6 10.2 4.15 9.4 4.65 8.5 5.35 8.05 5.9 6.6 7.05 3.3 9.05 3.3 9.1 2.8 9.4 2.75 9.45 2.8 9.45 2.85 10.6 2.75 10.65 2.65 9.4 2.6 9.35 4.55 8.15 6.45 6.95 7.0 6.6 7.1 6.5 7.35 6.35 7.35 6.3 7.6 6.1 7.7 6.05 10.4 3.0 10.1 -1.7 10.3 -1.25 10.65 -1.25 11.4 -1.05 11.7 -0.9 11.85 -0.8 12.1 -0.7 12.5 -0.4 12.7 -0.2 12.9 -0.05 12.95 0.05 12.95 0.0 13.05 0.1 13.0 0.15 13.5 0.7 13.7 1.25 13.75 1.45 M10.0 -1.25 L10.0 -1.2 9.6 -1.2 9.1 -1.1 8.1 -0.7 7.25 0.0 6.9 0.4 6.8 0.4 7.25 -0.15 8.05 -0.75 8.55 -1.0 9.6 -1.25 10.0 -1.25 M6.1 3.55 L6.15 3.5 6.45 4.5 6.5 4.55 6.85 5.2 7.5 5.85 7.55 5.95 7.45 5.9 7.35 5.85 7.3 5.75 7.0 5.5 6.7 5.05 6.65 5.05 6.65 5.0 6.4 4.55 6.2 4.05 6.1 3.55 M13.45 4.7 L13.75 4.0 13.9 3.25 13.95 2.6 13.95 2.9 13.9 3.4 13.9 3.5 13.8 4.0 13.65 4.4 13.45 4.7 M16.7 10.05 L11.9 7.65 10.5 6.6 10.4 6.5 10.2 6.35 10.2 6.25 9.05 7.25 9.2 7.15 8.4 7.8 2.85 11.1 2.75 11.0 5.5 9.35 6.35 8.85 6.75 8.6 7.85 7.95 7.95 7.9 8.4 7.6 10.15 6.1 10.2 6.15 10.15 6.15 10.25 6.25 12.25 7.75 16.75 9.95 16.7 10.05 16.6 11.0 10.2 7.75 11.1 8.25 10.15 7.75 10.05 7.8 9.7 8.05 9.65 8.1 8.9 8.6 8.75 8.7 8.65 8.75 3.75 11.75 3.0 12.15 2.95 12.2 2.85 11.1 3.0 11.15 3.05 12.0 9.55 8.1 9.55 8.05 9.6 8.0 10.2 7.6 10.2 7.65 12.0 8.65 12.1 8.65 16.55 10.85 16.5 10.7 16.5 10.15 16.7 10.05 M8.1 7.35 L10.2 5.6 10.2 5.7 9.15 6.65 8.1 7.35 M5.15 9.2 L2.85 10.6 2.95 10.45 5.15 9.2 M16.4 11.55 L16.6 11.45 14.0 10.25 15.6 10.95 10.2 8.2 10.2 8.1 2.95 12.6 3.1 12.65 3.2 13.55 3.3 13.35 8.3 10.35 8.3 10.4 10.2 9.1 11.35 9.75 16.4 12.1 16.4 11.55 M16.65 11.3 L16.6 11.4 16.6 11.45 16.5 12.3 12.0 10.15 11.95 10.15 10.85 9.6 10.15 9.2 10.1 9.25 9.95 9.4 3.2 13.55 3.05 13.65 2.95 12.6 2.95 12.55 2.9 12.45 10.15 8.0 10.2 8.1 12.25 9.15 12.5 9.25 14.6 10.25 16.65 11.3 M16.05 12.45 L15.85 12.5 15.75 12.45 15.7 12.45 10.15 9.75 10.15 9.65 3.55 13.7 3.3 13.7 3.3 13.65 10.1 9.5 10.15 9.6 16.05 12.45 M4.0 13.6 L4.3 13.55 12.8 12.7 12.75 12.65 15.3 12.4 15.7 12.45 4.0 13.6 M7.55 1.25 L7.5 1.35 7.4 1.35 7.75 0.85 8.3 0.35 8.35 0.35 8.4 0.3 8.7 0.1 9.1 -0.1 9.45 -0.15 9.65 -0.2 9.55 -0.15 9.05 0.0 8.25 0.45 7.55 1.25 M7.1 2.55 L7.1 3.2 7.2 3.7 7.35 4.15 7.55 4.5 7.8 4.8 7.85 4.95 7.85 5.0 7.8 4.9 7.5 4.55 7.15 3.8 7.05 3.2 7.05 2.5 7.1 2.4 7.1 2.55" fill="#7f6600" fill-rule="evenodd" stroke="none"/>
    <path d="M10.75 -0.1 L10.7 -0.1 10.4 -0.6 10.25 -1.0 10.2 -1.2 10.25 -1.2 11.2 -1.05 11.6 -0.9 12.05 -0.65 12.85 0.0 13.25 0.5 13.75 1.45 13.75 1.55 13.6 1.6 13.35 1.6 13.05 1.55 12.8 1.45 12.65 1.35 12.35 0.85 11.65 0.25 10.75 -0.1 M10.1 -1.7 L10.4 3.0 7.7 6.05 7.6 6.1 7.4 6.2 7.45 5.9 7.55 5.95 7.5 5.85 6.85 5.2 6.5 4.55 6.45 4.5 6.15 3.5 6.1 3.55 6.05 2.45 6.15 1.8 5.65 1.45 6.3 1.4 6.5 0.85 6.8 0.4 6.9 0.4 7.25 0.0 8.1 -0.7 9.1 -1.1 9.6 -1.2 10.0 -1.2 10.0 -1.25 10.1 -1.7 M2.85 10.6 L2.8 9.45 2.75 9.45 2.8 9.4 3.3 9.1 3.3 9.05 6.6 7.05 8.05 5.9 8.5 5.35 9.4 4.65 10.2 4.15 11.0 4.6 11.2 4.75 12.55 6.1 13.75 6.95 16.3 8.35 16.3 8.4 16.65 8.6 16.75 8.6 16.65 8.65 16.6 9.45 12.9 7.6 10.2 5.7 10.2 5.6 8.1 7.35 7.55 7.75 5.15 9.2 2.95 10.45 2.85 10.6 M13.45 4.7 L13.05 5.2 13.1 5.2 12.65 5.75 12.6 5.75 12.5 5.65 12.4 5.45 12.3 5.0 12.3 4.8 12.45 4.6 12.75 4.05 13.0 3.3 13.0 2.6 13.0 2.55 13.6 1.95 13.85 1.85 13.95 2.6 13.9 3.25 13.75 4.0 13.45 4.7 M2.85 11.1 L8.4 7.8 9.2 7.15 9.05 7.25 10.2 6.25 10.2 6.35 10.4 6.5 10.5 6.6 11.9 7.65 16.7 10.05 16.5 10.15 16.5 10.7 16.55 10.85 12.1 8.65 12.0 8.65 10.2 7.65 10.2 7.6 9.6 8.0 9.55 8.05 9.55 8.1 3.05 12.0 3.0 11.15 2.85 11.1 M8.1 7.35 L5.15 9.2 8.1 7.35 M16.4 11.55 L16.4 12.1 11.35 9.75 10.2 9.1 8.3 10.4 8.3 10.35 3.3 13.35 3.2 13.55 3.1 12.65 2.95 12.6 10.2 8.1 10.2 8.2 15.6 10.95 14.0 10.25 16.6 11.45 16.4 11.55 M3.8 13.65 L3.55 13.7 10.15 9.65 10.15 9.75 15.7 12.45 15.3 12.4 12.75 12.65 12.8 12.7 4.3 13.55 4.0 13.6 3.8 13.65 M9.55 -0.15 L9.65 -0.2 9.45 -0.15 9.1 -0.1 8.7 0.1 8.4 0.3 8.35 0.35 8.3 0.35 7.75 0.85 7.4 1.35 7.5 1.35 7.55 1.25 9.0 1.15 9.55 -0.15 M7.8 4.8 L8.25 3.4 7.1 2.55 7.1 2.4 7.05 2.5 7.05 3.2 7.15 3.8 7.5 4.55 7.8 4.9 7.85 5.0 7.85 4.95 7.8 4.8" fill="#ffcc00" fill-rule="evenodd" stroke="none"/>
  </g>
</svg>
