<?xml version="1.0" encoding="UTF-8" standalone="no"?>
<svg xmlns:ffdec="https://www.free-decompiler.com/flash" xmlns:xlink="http://www.w3.org/1999/xlink" ffdec:objectType="shape" height="14.75px" width="14.5px" xmlns="http://www.w3.org/2000/svg">
  <g transform="matrix(1.0, 0.0, 0.0, 1.0, -2.9, 1.7)">
    <path d="M6.3 1.45 L6.35 1.5 6.85 0.5 7.2 0.05 8.0 -0.6 9.05 -1.05 9.65 -1.2 10.0 -1.2 10.0 -1.25 10.15 -1.7 10.15 3.0 5.6 1.5 6.3 1.45 M10.3 -1.25 L10.35 -1.25 10.9 -1.15 11.75 -0.9 12.65 -0.35 13.35 0.35 13.7 0.9 13.95 1.45 13.95 1.4 14.55 1.45 10.15 3.0 10.7 -0.15 10.65 -0.25 10.4 -0.6 10.3 -0.95 10.3 -1.25 M11.35 0.05 L10.75 -0.15 11.3 1.15 12.7 1.25 12.6 1.05 12.2 0.6 11.35 0.05 M13.15 2.5 L13.2 2.4 13.5 2.1 13.85 1.85 14.0 1.8 14.05 1.85 14.15 2.45 14.1 3.45 13.9 4.2 13.7 4.65 13.2 5.35 12.75 5.8 12.55 5.6 12.45 5.05 12.45 4.85 12.5 4.8 13.0 3.95 13.15 3.35 13.15 2.5 M10.15 4.15 L10.85 4.55 11.7 5.25 12.05 5.6 12.5 5.95 12.85 6.3 14.3 7.3 14.25 7.3 17.3 9.0 17.2 9.05 17.15 9.95 12.8 7.65 10.1 5.65 10.05 5.75 8.6 6.9 7.9 7.35 7.8 7.45 7.05 7.9 7.0 7.85 3.15 9.95 3.1 9.05 3.0 9.0 3.1 8.95 6.6 6.9 7.7 6.1 8.8 5.05 9.95 4.25 10.15 4.15 M10.1 6.3 L10.3 6.45 10.35 6.5 12.4 8.0 17.2 10.55 17.05 10.65 17.0 11.35 11.75 8.6 11.3 8.3 11.25 8.35 10.1 7.65 8.95 8.35 8.95 8.3 3.25 11.35 3.2 10.6 3.05 10.55 7.85 8.0 10.1 6.3 M17.05 12.0 L16.95 12.05 16.85 12.75 10.1 9.1 3.35 12.75 3.3 12.05 3.15 12.0 7.7 9.6 7.7 9.55 10.1 8.15 12.55 9.55 12.5 9.6 17.05 12.0 M16.2 13.0 L15.9 12.95 4.55 12.95 4.25 13.0 4.05 13.05 3.95 13.05 10.1 9.7 16.5 13.05 16.45 13.05 16.2 13.0 M8.95 0.05 L8.25 0.5 7.95 0.75 7.7 1.05 7.55 1.35 8.95 1.25 9.5 -0.1 8.95 0.05 M7.15 2.6 L7.1 2.95 7.2 3.55 7.35 4.0 7.6 4.5 7.9 4.85 7.9 5.0 7.75 5.65 7.6 5.85 7.2 5.5 6.65 4.75 6.3 3.95 6.2 3.5 6.15 2.45 6.25 1.9 6.4 1.95 6.65 2.1 6.9 2.3 7.05 2.5 7.15 2.6" fill="#ffcc00" fill-rule="evenodd" stroke="none"/>
    <path d="M10.0 -1.25 L10.0 -1.2 9.65 -1.2 9.05 -1.05 8.0 -0.6 7.2 0.05 6.85 0.5 6.35 1.5 6.3 1.45 6.85 0.4 7.2 0.0 8.05 -0.7 9.1 -1.15 9.65 -1.25 10.0 -1.25 M5.6 1.5 L10.15 3.0 10.15 -1.7 10.3 -1.25 10.3 -0.95 10.4 -0.6 10.65 -0.25 10.7 -0.15 10.15 3.0 14.55 1.45 14.1 1.8 14.1 1.95 14.15 2.15 14.2 2.5 14.15 3.45 14.0 4.15 13.8 4.6 13.45 5.15 12.8 5.85 12.9 6.15 14.35 7.25 17.4 8.9 17.35 8.95 17.25 10.15 12.7 7.7 11.2 6.7 11.2 6.65 11.0 6.55 10.1 5.8 7.6 7.7 3.05 10.15 2.95 8.95 2.9 8.9 3.05 8.8 6.55 6.85 7.4 6.2 7.55 6.05 8.3 5.45 7.45 6.1 7.5 5.9 6.7 4.95 6.25 4.0 6.15 3.45 6.1 2.4 6.2 1.9 5.6 1.5 M13.95 1.4 L13.95 1.45 13.7 0.9 13.35 0.35 12.65 -0.35 11.75 -0.9 10.9 -1.15 10.35 -1.25 11.25 -1.15 12.25 -0.7 12.7 -0.4 13.45 0.4 13.55 0.6 13.7 0.8 13.95 1.4 M12.5 4.8 L12.45 4.85 12.45 5.05 12.55 5.6 12.75 5.8 13.2 5.35 13.7 4.65 13.9 4.2 14.1 3.45 14.15 2.45 14.05 1.85 14.0 1.8 13.85 1.85 13.5 2.1 13.2 2.4 13.15 2.5 12.05 3.35 12.5 4.8 M10.15 4.15 L9.95 4.25 8.8 5.05 7.7 6.1 6.6 6.9 3.1 8.95 3.0 9.0 3.1 9.05 3.15 9.95 7.0 7.85 7.05 7.9 7.8 7.45 7.9 7.35 8.6 6.9 10.05 5.75 10.1 5.65 12.8 7.65 17.15 9.95 17.2 9.05 17.3 9.0 14.25 7.3 14.3 7.3 12.85 6.3 12.5 5.95 12.05 5.6 11.7 5.25 10.85 4.55 10.15 4.15 M17.25 10.45 L17.25 10.5 17.2 10.55 17.1 11.55 15.2 10.55 14.55 10.2 10.35 7.95 10.1 7.75 9.85 7.95 3.15 11.55 3.05 10.55 3.0 10.45 7.8 7.95 9.5 6.7 10.1 6.15 11.85 7.55 17.25 10.45 M10.1 6.3 L7.85 8.0 3.05 10.55 3.2 10.6 3.25 11.35 8.95 8.3 8.95 8.35 10.1 7.65 11.25 8.35 11.3 8.3 11.75 8.6 17.0 11.35 17.05 10.65 17.2 10.55 12.4 8.0 10.35 6.5 10.3 6.45 10.1 6.3 M12.75 6.05 L12.9 6.15 12.8 6.05 12.75 6.05 12.7 6.0 12.15 5.55 12.7 6.0 12.75 6.05 M15.25 10.85 L17.1 11.85 17.05 12.0 17.0 12.95 10.1 9.2 9.9 9.35 9.4 9.65 9.1 9.85 8.3 10.3 4.55 12.3 4.2 12.5 3.25 12.95 3.15 12.0 3.3 12.05 3.35 12.75 10.1 9.1 16.85 12.75 16.95 12.05 17.05 12.0 12.5 9.6 12.55 9.55 10.1 8.15 7.7 9.55 7.7 9.6 3.15 12.0 3.1 11.85 4.9 10.9 5.5 10.6 8.8 8.8 10.1 8.05 11.85 9.0 13.85 10.1 14.65 10.5 15.25 10.85 M4.25 13.0 L4.55 12.95 15.9 12.95 16.2 13.0 4.25 13.0 M16.5 13.05 L10.1 9.7 3.95 13.05 3.8 13.05 3.75 13.0 10.1 9.55 16.7 13.0 16.65 13.05 16.5 13.05 M7.9 4.85 L8.4 3.55 7.15 2.6 7.05 2.5 6.9 2.3 6.65 2.1 6.4 1.95 6.25 1.9 6.15 2.45 6.2 3.5 6.3 3.95 6.65 4.75 7.2 5.5 7.6 5.85 7.75 5.65 7.9 5.0 7.9 4.85" fill="#7f6600" fill-rule="evenodd" stroke="none"/>
    <path d="M12.9 6.15 L17.2 8.75 17.4 8.85 17.4 8.9 17.3 10.2 12.6 7.7 11.15 6.7 11.2 6.7 12.7 7.7 17.25 10.15 17.35 8.95 17.4 8.9 14.35 7.25 12.9 6.15 12.75 6.05 12.8 6.05 12.9 6.15 M11.0 6.55 L10.7 6.35 10.75 6.35 10.1 5.85 7.7 7.7 3.0 10.2 2.9 8.9 2.9 8.85 3.05 8.75 6.3 6.95 7.35 6.15 7.45 6.1 8.3 5.45 7.55 6.05 7.4 6.2 6.55 6.85 3.05 8.8 2.9 8.9 2.95 8.95 3.05 10.15 7.6 7.7 10.1 5.8 11.0 6.55 M10.35 7.95 L10.1 7.8 9.9 7.95 3.1 11.6 3.0 10.45 3.0 10.4 8.0 7.75 9.15 6.9 9.2 6.8 10.1 6.1 10.35 6.25 11.9 7.5 12.45 7.85 17.2 10.35 17.25 10.45 11.85 7.55 10.1 6.15 9.5 6.7 7.8 7.95 3.0 10.45 3.05 10.55 3.15 11.55 9.85 7.95 10.1 7.75 10.35 7.95 M17.25 10.5 L17.15 11.6 17.1 11.6 15.2 10.55 17.1 11.55 17.2 10.55 17.25 10.5 M15.25 10.85 L17.1 11.8 17.1 11.85 15.25 10.85 M17.1 11.85 L17.0 12.95 17.0 13.0 10.1 9.25 9.4 9.65 9.9 9.35 10.1 9.2 17.0 12.95 17.05 12.0 17.1 11.85 M4.2 12.5 L3.2 13.0 3.1 11.85 3.1 11.8 4.9 10.9 3.1 11.85 3.15 12.0 3.25 12.95 4.2 12.5 M8.8 8.8 L10.1 8.0 11.85 9.0 10.1 8.05 8.8 8.8 M16.2 13.0 L16.45 13.05 4.05 13.05 4.25 13.0 16.2 13.0 M3.75 13.0 L3.7 13.0 10.1 9.5 16.75 13.0 16.7 13.0 10.1 9.55 3.75 13.0" fill="#000000" fill-rule="evenodd" stroke="none"/>
  </g>
</svg>
