<?xml version="1.0" encoding="UTF-8" standalone="no"?>
<svg xmlns:ffdec="https://www.free-decompiler.com/flash" xmlns:xlink="http://www.w3.org/1999/xlink" ffdec:objectType="shape" height="15.35px" width="14.35px" xmlns="http://www.w3.org/2000/svg">
  <g transform="matrix(1.0, 0.0, 0.0, 1.0, -3.35, 1.7)">
    <path d="M7.5 6.05 L7.55 5.95 7.75 5.85 7.45 6.15 6.1 7.1 3.55 8.45 3.55 8.4 3.4 8.55 3.45 8.6 3.55 9.55 3.45 9.7 7.85 7.45 8.95 6.75 10.1 5.8 11.3 6.85 11.9 7.25 11.95 7.25 12.45 7.65 11.7 7.2 10.1 5.85 9.8 6.15 9.55 6.3 9.5 6.4 7.8 7.55 3.45 9.75 3.45 9.7 3.4 8.55 3.35 8.45 3.55 8.4 6.75 6.6 7.5 6.05 M16.85 10.3 L17.5 10.65 17.6 9.4 17.65 9.35 17.45 9.25 17.05 8.95 14.45 7.45 12.9 6.3 12.6 6.05 12.9 6.2 14.5 7.4 17.7 9.25 17.65 9.35 17.55 10.7 16.85 10.3 M8.8 7.15 L9.75 6.4 10.05 6.1 10.1 6.1 11.0 6.85 11.1 6.9 17.5 10.9 17.5 10.95 17.4 12.2 10.25 7.95 10.3 7.9 10.1 7.8 9.8 8.0 3.6 11.05 3.55 11.1 3.55 11.05 3.5 10.05 3.55 10.15 3.6 10.95 3.55 11.05 9.75 7.95 10.05 7.75 10.3 7.9 17.35 12.15 17.45 11.05 17.5 10.95 12.25 7.9 10.7 6.7 10.65 6.6 10.05 6.1 10.05 6.2 10.0 6.25 8.8 7.15 M3.45 10.0 L3.5 9.95 8.45 7.4 7.85 7.85 3.45 10.0 M10.05 8.0 L10.1 8.0 17.4 12.35 17.35 12.4 10.05 8.0 10.05 8.05 7.7 9.3 7.7 9.35 3.55 11.35 3.65 11.45 3.7 12.3 6.7 10.95 Q5.15 11.7 3.65 12.4 L3.55 11.35 3.55 11.3 10.05 8.0 M17.35 12.5 L17.25 13.65 17.2 13.6 15.65 12.65 17.1 13.5 17.2 13.6 17.3 12.55 17.35 12.5 M11.5 10.15 L10.25 9.4 10.3 9.4 10.05 9.25 10.0 9.35 8.95 9.85 10.05 9.2 10.3 9.4 11.5 10.15 M16.3 13.55 L16.5 13.65 4.4 12.5 4.5 12.5 16.3 13.55 M16.95 13.6 L10.1 9.5 10.1 9.6 10.0 9.6 4.15 12.5 4.1 12.45 4.15 12.4 10.1 9.5 10.15 9.5 16.85 13.5 16.9 13.55 17.0 13.6 16.95 13.6" fill="#000000" fill-rule="evenodd" stroke="none"/>
    <path d="M14.0 1.4 L13.95 1.45 13.7 0.9 13.05 0.0 12.65 -0.35 12.2 -0.65 11.35 -1.05 10.65 -1.2 10.25 -1.2 10.3 -1.25 10.65 -1.25 11.75 -1.0 12.25 -0.75 13.1 -0.05 13.5 0.4 13.8 0.85 14.0 1.4 M10.15 -1.7 L9.9 3.0 14.05 1.6 14.05 1.65 14.65 1.45 14.15 1.8 14.15 1.9 14.1 1.9 14.05 1.8 13.75 1.9 13.2 2.4 13.3 2.75 13.2 3.55 13.0 4.15 12.5 4.9 12.45 4.95 12.5 4.85 12.75 4.5 12.95 4.1 13.15 3.55 13.2 2.55 12.05 3.35 9.9 3.0 12.6 6.05 12.9 6.3 14.45 7.45 17.05 8.95 17.45 9.25 17.65 9.35 17.6 9.4 17.5 10.65 16.85 10.3 16.25 9.9 12.45 7.65 11.95 7.25 11.9 7.25 11.3 6.85 10.1 5.8 8.95 6.75 7.85 7.45 3.45 9.7 3.55 9.55 7.55 7.55 8.6 6.8 8.65 6.85 9.0 6.55 9.45 6.25 10.1 5.7 11.55 6.9 11.6 6.95 11.65 6.95 17.35 10.45 17.45 9.45 17.55 9.4 17.45 9.35 15.7 8.3 15.75 8.3 13.15 6.65 11.05 4.75 10.05 4.15 9.25 4.6 9.0 4.8 8.85 5.0 7.85 6.0 6.2 7.15 3.55 8.6 3.45 8.6 3.4 8.55 3.55 8.4 3.55 8.45 6.1 7.1 7.45 6.15 7.75 5.85 7.55 5.95 7.5 6.05 7.6 5.8 7.35 5.5 7.6 5.75 7.65 5.75 7.85 5.45 8.0 4.8 7.95 4.8 8.45 3.5 7.25 2.6 7.15 2.45 6.6 1.95 6.4 1.9 6.35 2.35 6.35 3.0 6.55 4.15 7.15 5.2 6.85 4.85 6.5 4.1 6.35 3.4 6.3 2.9 6.35 1.9 5.85 1.5 6.5 1.45 6.75 0.8 6.95 0.45 7.7 -0.35 8.55 -0.9 9.65 -1.25 10.0 -1.25 10.15 -1.7 M10.75 -0.15 L10.65 -0.2 11.0 -0.15 11.65 0.1 12.35 0.65 12.7 1.05 12.85 1.35 12.75 1.25 12.45 0.85 12.05 0.45 11.5 0.1 10.75 -0.15 M9.55 -0.1 L9.6 -0.1 9.75 -0.45 9.8 -0.45 10.0 -1.05 10.0 -1.2 9.1 -1.05 8.1 -0.55 7.3 0.1 6.7 1.0 6.55 1.45 6.55 1.5 6.7 1.55 7.2 1.55 7.5 1.45 7.55 1.35 7.65 1.35 8.95 1.25 9.55 -0.1 M14.15 1.9 L14.2 1.9 14.25 2.45 14.2 3.55 13.9 4.5 13.6 5.05 13.25 5.5 12.8 5.9 12.75 5.9 13.25 5.4 13.55 5.0 13.85 4.45 14.1 3.75 14.2 3.0 14.15 1.9 M3.5 10.05 L3.45 10.0 7.85 7.85 8.45 7.4 8.8 7.15 10.0 6.25 10.05 6.2 10.05 6.1 10.65 6.6 10.7 6.7 12.25 7.9 17.5 10.95 17.45 11.05 17.35 12.15 10.3 7.9 10.05 7.75 9.75 7.95 3.55 11.05 3.6 10.95 3.55 10.15 3.5 10.05 M3.55 10.15 L3.65 10.15 3.7 10.85 8.15 8.65 8.2 8.65 9.65 7.9 10.0 7.65 10.0 7.6 17.2 11.95 17.3 11.1 17.45 11.05 12.65 8.25 10.35 6.55 10.05 6.25 10.05 6.35 9.8 6.6 7.7 8.0 3.55 10.15 M10.05 8.0 L17.35 12.4 17.35 12.5 17.3 12.55 17.2 13.6 17.1 13.5 17.15 12.6 17.25 12.55 17.15 12.5 10.05 8.1 10.05 8.2 3.65 11.45 3.55 11.35 7.7 9.35 7.7 9.3 10.05 8.05 10.05 8.0 M15.65 12.65 L15.15 12.35 11.9 10.4 11.5 10.15 10.3 9.4 10.05 9.2 8.95 9.85 7.65 10.5 6.7 10.95 3.7 12.3 3.65 11.45 3.8 11.55 3.85 12.1 9.15 9.6 10.0 9.1 17.0 13.3 17.1 13.5 15.65 12.65 M16.75 13.65 L10.05 9.65 10.05 9.75 7.1 11.2 7.15 11.2 4.5 12.5 4.95 12.45 7.6 12.7 7.4 12.7 16.0 13.5 16.3 13.55 4.5 12.5 4.4 12.5 4.15 12.5 10.0 9.6 10.1 9.6 10.1 9.5 16.95 13.6 16.9 13.65 16.75 13.65 M3.45 8.6 L3.55 8.7 3.6 9.5 4.6 9.0 3.55 9.55 3.45 8.6" fill="#7f6600" fill-rule="evenodd" stroke="none"/>
    <path d="M10.3 -1.25 L10.25 -1.2 10.65 -1.2 11.35 -1.05 12.2 -0.65 12.65 -0.35 13.05 0.0 13.7 0.9 13.95 1.45 14.0 1.4 14.65 1.45 14.05 1.65 14.05 1.6 9.9 3.0 10.15 -1.7 10.3 -1.25 M12.75 1.25 L12.85 1.35 12.7 1.05 12.35 0.65 11.65 0.1 11.0 -0.15 10.65 -0.2 10.75 -0.15 11.25 1.15 12.75 1.25 M7.65 1.35 L7.55 1.35 7.5 1.45 7.2 1.55 6.7 1.55 6.55 1.5 6.55 1.45 6.7 1.0 7.3 0.1 8.1 -0.55 9.1 -1.05 10.0 -1.2 10.0 -1.05 9.8 -0.45 9.75 -0.45 9.6 -0.1 9.55 -0.1 8.65 0.25 7.95 0.85 7.65 1.35 M7.15 5.2 L6.55 4.15 6.35 3.0 6.35 2.35 6.4 1.9 6.6 1.95 7.15 2.45 7.25 2.6 7.25 2.9 7.35 3.65 7.65 4.4 7.95 4.8 8.0 4.8 7.85 5.45 7.65 5.75 7.6 5.75 7.35 5.5 7.15 5.2 7.35 5.5 7.15 5.25 7.15 5.2 M3.45 8.6 L3.55 8.6 6.2 7.15 7.85 6.0 8.85 5.0 9.0 4.8 9.25 4.6 10.05 4.15 11.05 4.75 13.15 6.65 15.75 8.3 15.7 8.3 17.45 9.35 17.55 9.4 17.45 9.45 17.35 10.45 11.65 6.95 11.6 6.95 11.55 6.9 10.1 5.7 9.45 6.25 9.0 6.55 8.65 6.85 8.6 6.8 7.55 7.55 3.55 9.55 4.6 9.0 3.6 9.5 3.55 8.7 3.45 8.6 M12.6 6.05 L9.9 3.0 12.05 3.35 12.5 4.85 12.45 4.95 12.5 4.9 13.0 4.15 13.2 3.55 13.3 2.75 13.2 2.4 13.75 1.9 14.05 1.8 14.1 1.9 14.15 1.9 14.2 3.0 14.1 3.75 13.85 4.45 13.55 5.0 13.25 5.4 12.75 5.9 12.8 5.9 12.9 6.2 12.6 6.05 M3.55 10.15 L7.7 8.0 9.8 6.6 10.05 6.35 10.05 6.25 10.35 6.55 12.65 8.25 17.45 11.05 17.3 11.1 17.2 11.95 10.0 7.6 10.0 7.65 9.65 7.9 8.2 8.65 8.15 8.65 3.7 10.85 3.65 10.15 3.55 10.15 M3.65 11.45 L10.05 8.2 10.05 8.1 17.15 12.5 17.25 12.55 17.15 12.6 17.1 13.5 17.0 13.3 10.0 9.1 9.15 9.6 3.85 12.1 3.8 11.55 3.65 11.45 M16.3 13.55 L16.0 13.5 7.4 12.7 7.6 12.7 4.95 12.45 4.5 12.5 7.15 11.2 7.1 11.2 10.05 9.75 10.05 9.65 16.75 13.65 16.5 13.65 16.3 13.55" fill="#ffcc00" fill-rule="evenodd" stroke="none"/>
  </g>
</svg>
