<?xml version="1.0" encoding="UTF-8" standalone="no"?>
<svg xmlns:ffdec="https://www.free-decompiler.com/flash" xmlns:xlink="http://www.w3.org/1999/xlink" ffdec:objectType="shape" height="16.75px" width="12.5px" xmlns="http://www.w3.org/2000/svg">
  <g transform="matrix(1.0, 0.0, 0.0, 1.0, -4.85, 1.7)">
    <path d="M10.3 -1.3 L10.6 -1.3 11.55 -1.05 12.0 -0.8 11.9 -0.75 11.35 -1.05 10.5 -1.2 10.2 -1.2 10.3 -1.25 10.3 -1.3 M13.65 1.35 L14.25 1.45 9.4 3.0 11.1 1.15 12.45 1.25 12.55 1.35 12.35 1.0 12.3 1.05 12.2 0.85 12.1 0.65 12.05 0.7 11.65 0.3 10.65 -0.15 10.55 -0.25 10.65 -0.25 11.15 -0.05 11.5 0.15 11.95 0.5 12.1 0.65 12.35 1.0 12.45 0.85 12.55 1.35 12.7 1.3 12.8 1.5 13.05 1.55 13.35 1.55 13.55 1.5 13.65 1.35 M12.6 6.0 L12.5 6.1 12.4 6.05 12.55 5.95 12.6 6.0 M17.2 11.85 L17.0 11.75 17.1 10.35 17.2 10.3 16.55 9.8 16.55 9.85 13.35 7.4 12.65 6.75 12.65 6.65 11.7 5.7 12.25 6.2 12.6 6.4 12.6 6.5 17.15 10.1 17.3 10.25 17.2 11.85 M14.8 10.0 L12.15 7.95 11.9 7.7 11.05 6.9 11.0 6.8 10.0 5.7 9.95 5.65 9.95 5.45 11.65 7.35 11.6 7.35 16.7 11.35 16.9 11.6 14.8 10.0 M17.0 13.45 L16.95 13.45 16.85 13.35 16.95 12.2 17.0 12.15 11.45 7.75 10.0 6.2 10.1 6.1 12.2 8.15 17.2 12.05 17.1 12.1 17.0 13.45 M16.65 13.2 L14.7 11.6 14.05 11.1 11.4 8.95 9.9 7.6 10.0 7.75 9.9 7.85 9.7 8.0 4.95 10.2 5.0 10.05 4.95 9.4 4.9 9.3 8.35 7.6 8.8 7.3 9.0 7.1 9.9 6.35 9.95 6.3 9.9 6.5 9.85 6.55 9.55 6.9 9.15 7.25 8.95 7.35 8.5 7.75 8.9 8.05 8.7 8.2 9.1 8.0 9.15 8.0 9.5 7.85 9.9 7.6 9.95 7.6 9.9 7.5 16.45 12.85 16.65 13.2 M16.85 15.05 L16.7 15.0 16.8 13.85 16.95 13.75 10.0 8.1 10.0 8.0 10.1 8.0 17.05 13.65 16.95 13.75 16.85 15.05 M16.6 14.9 L16.5 15.0 16.4 14.95 10.0 9.6 10.05 9.55 10.15 9.5 16.6 14.9 M4.95 10.6 L4.95 10.55 9.95 8.15 9.9 8.3 9.9 8.45 8.15 9.35 9.85 8.95 9.35 9.2 9.25 9.35 9.4 9.25 9.4 9.3 9.9 9.05 9.9 9.0 16.35 14.5 16.5 14.75 9.95 9.1 10.0 9.25 5.0 11.4 5.05 11.3 5.0 10.6 4.95 10.6 M4.9 9.0 L4.9 8.4 4.85 8.0 6.8 6.85 6.9 6.75 7.55 6.3 8.6 5.3 9.0 4.8 8.05 5.8 9.4 3.0 9.9 4.15 9.5 4.4 8.75 5.3 8.7 5.4 8.1 6.0 8.55 6.6 8.4 6.75 8.0 7.05 8.05 7.1 8.4 6.9 8.65 6.7 9.0 6.5 9.05 6.5 9.95 5.7 10.0 5.85 8.95 6.8 8.65 6.95 7.95 7.45 7.9 7.4 4.9 9.0 M7.85 5.35 L7.3 4.3 7.2 3.95 7.05 2.85 7.05 2.5 7.1 1.9 7.15 1.85 7.4 2.05 7.35 2.15 7.35 3.3 7.6 4.25 7.8 4.7 8.2 5.3 8.2 5.4 8.1 5.6 7.85 5.35 M6.7 1.5 L7.2 1.45 7.5 0.7 8.2 -0.3 8.85 -0.8 9.25 -1.0 9.3 -1.05 9.7 -1.2 10.0 -1.25 10.0 -1.0 9.7 -0.95 8.85 -0.6 8.55 -0.4 8.65 -0.15 8.3 0.1 7.65 1.15 7.5 1.6 7.6 1.6 8.05 1.4 8.1 1.35 9.15 1.25 9.4 3.0 6.7 1.5 M9.7 -0.2 L9.65 -0.1 9.2 0.1 9.15 0.05 9.7 -0.2 M12.65 4.3 L12.85 3.7 12.9 2.75 12.85 2.4 13.0 2.2 13.1 2.85 12.8 4.4 12.65 4.3 M12.4 4.65 L12.45 4.65 12.2 5.0 12.15 5.1 12.15 5.05 12.2 4.95 12.4 4.65 M9.95 9.7 L9.95 10.0 8.85 10.45 11.1 11.05 9.95 11.45 12.4 13.65 15.15 14.5 15.7 14.75 5.7 11.65 5.45 11.65 5.6 11.55 9.95 9.7" fill="#7f6600" fill-rule="evenodd" stroke="none"/>
    <path d="M12.55 6.3 L17.15 10.0 17.35 10.2 17.25 11.8 17.2 11.85 17.3 10.25 17.15 10.1 12.6 6.5 12.6 6.4 12.55 6.3 M17.0 11.75 L14.8 10.0 16.9 11.6 17.0 11.75 M11.9 7.7 L11.45 7.35 11.05 6.9 10.7 6.6 11.8 7.75 17.2 11.95 17.2 12.05 17.05 13.4 17.05 13.5 17.0 13.45 17.1 12.1 17.2 12.05 12.2 8.15 10.1 6.1 10.2 6.1 10.7 6.6 10.6 6.45 10.1 5.9 10.0 5.95 9.0 6.85 8.9 6.9 8.25 7.35 5.0 9.0 4.9 9.0 7.9 7.4 7.95 7.45 8.65 6.95 8.95 6.8 10.0 5.85 9.95 5.7 10.0 5.7 11.0 6.8 11.05 6.9 11.9 7.7 M14.7 11.6 L17.05 13.6 17.05 13.65 16.95 15.0 16.85 15.05 16.95 13.75 17.05 13.65 10.1 8.0 10.2 8.0 10.0 7.85 9.85 7.95 5.05 10.25 4.95 10.25 4.95 10.2 4.9 9.3 4.9 9.25 8.3 7.55 9.1 6.95 9.1 6.9 10.0 6.2 10.0 6.25 9.95 6.3 9.9 6.35 9.0 7.1 8.8 7.3 8.35 7.6 4.9 9.3 4.95 9.4 5.0 10.05 4.95 10.2 9.7 8.0 9.9 7.85 10.0 7.75 9.9 7.6 11.4 8.95 14.05 11.1 14.7 11.6 M15.95 14.85 L5.45 11.65 5.4 11.6 5.4 11.55 10.05 9.55 10.0 9.6 9.95 9.7 5.6 11.55 5.45 11.65 5.7 11.65 15.7 14.75 15.95 14.85 M10.15 9.5 L10.25 9.5 10.0 9.3 9.85 9.4 5.05 11.45 5.0 11.4 4.95 10.6 5.0 10.6 5.05 11.3 5.0 11.4 10.0 9.25 9.95 9.1 16.5 14.75 16.55 14.8 16.6 14.9 10.15 9.5 M4.95 10.55 L4.95 10.45 10.0 8.0 10.0 8.1 9.95 8.15 4.95 10.55 M4.85 8.0 L4.85 7.9 7.55 6.25 7.7 6.05 8.0 5.8 8.05 5.65 7.85 5.35 8.1 5.6 8.2 5.4 8.2 5.3 8.3 4.95 8.3 4.8 8.35 4.7 8.75 3.45 7.8 2.55 7.4 2.05 7.15 1.85 7.1 1.9 7.05 2.5 7.05 2.15 7.1 1.9 6.7 1.5 9.4 3.0 12.25 6.2 11.7 5.7 9.9 4.15 9.4 3.0 8.05 5.8 9.0 4.8 8.6 5.3 7.55 6.3 6.9 6.75 6.8 6.85 4.85 8.0 M7.5 0.7 L7.7 0.25 8.05 -0.2 8.85 -0.85 9.3 -1.05 9.25 -1.0 8.85 -0.8 8.2 -0.3 7.5 0.7 M10.0 -1.25 L10.15 -1.7 9.4 3.0 9.15 1.25 9.65 -0.1 9.7 -0.2 9.95 -0.8 10.0 -1.0 10.0 -1.25 M12.05 0.7 L12.1 0.65 12.2 0.85 12.05 0.7 M12.3 1.05 L12.35 1.0 12.55 1.35 12.45 1.25 12.3 1.05 M12.85 2.4 L12.9 2.75 12.85 3.7 12.65 4.3 12.55 4.45 12.45 4.65 12.4 4.65 12.7 4.1 12.85 3.05 12.85 2.6 12.85 2.4 M11.15 8.75 L11.4 8.95 11.15 8.75" fill="#000000" fill-rule="evenodd" stroke="none"/>
    <path d="M12.0 -0.8 L12.45 -0.45 13.15 0.3 13.65 1.35 13.55 1.5 13.35 1.55 13.05 1.55 12.8 1.5 12.7 1.3 12.55 1.35 12.45 0.85 12.35 1.0 12.1 0.65 11.95 0.5 11.5 0.15 11.15 -0.05 10.65 -0.25 10.55 -0.25 10.65 -0.15 11.1 1.15 9.4 3.0 14.25 1.45 13.75 1.8 13.9 3.1 13.7 4.2 13.5 4.75 12.95 5.65 12.6 6.0 12.55 5.95 12.4 6.05 12.5 6.1 12.55 6.3 12.6 6.4 12.25 6.2 9.4 3.0 10.15 -1.7 10.3 -1.3 10.3 -1.25 10.2 -1.2 10.5 -1.2 11.35 -1.05 11.9 -0.75 12.0 -0.8 M16.85 13.35 L16.65 13.2 16.45 12.85 9.9 7.5 9.95 7.6 9.9 7.6 9.5 7.85 9.15 8.0 9.1 8.0 8.7 8.2 8.9 8.05 8.5 7.75 8.95 7.35 9.15 7.25 9.55 6.9 9.85 6.55 9.9 6.5 9.95 6.3 10.0 6.25 10.0 6.2 11.45 7.75 17.0 12.15 16.95 12.2 16.85 13.35 M16.7 15.0 L16.6 14.9 16.55 14.8 16.5 14.75 16.35 14.5 9.9 9.0 9.9 9.05 9.4 9.3 9.4 9.25 9.25 9.35 9.35 9.2 9.85 8.95 8.15 9.35 9.9 8.45 9.9 8.3 9.95 8.15 10.0 8.1 16.95 13.75 16.8 13.85 16.7 15.0 M16.4 14.95 L16.35 15.0 15.95 14.85 15.7 14.75 15.15 14.5 12.4 13.65 9.95 11.45 11.1 11.05 8.85 10.45 9.95 10.0 9.95 9.7 10.0 9.6 16.4 14.95 M10.0 -1.0 L9.95 -0.8 9.7 -0.2 9.15 0.05 9.2 0.1 9.0 0.2 8.4 0.8 8.2 1.1 8.1 1.35 8.05 1.4 7.6 1.6 7.5 1.6 7.65 1.15 8.3 0.1 8.65 -0.15 8.55 -0.4 8.85 -0.6 9.7 -0.95 10.0 -1.0 M12.65 4.3 L12.8 4.4 13.1 2.85 13.0 2.2 12.85 2.4 12.85 2.6 11.8 3.45 12.2 4.95 12.15 5.05 12.15 5.1 12.2 5.0 12.45 4.65 12.55 4.45 12.65 4.3 M11.7 5.7 L12.65 6.65 12.65 6.75 13.35 7.4 16.55 9.85 16.55 9.8 17.2 10.3 17.1 10.35 17.0 11.75 16.9 11.6 16.7 11.35 11.6 7.35 11.65 7.35 9.95 5.45 9.95 5.65 10.0 5.7 9.95 5.7 9.05 6.5 9.0 6.5 8.65 6.7 8.4 6.9 8.05 7.1 8.0 7.05 8.4 6.75 8.55 6.6 8.1 6.0 8.7 5.4 8.75 5.3 9.5 4.4 9.9 4.15 11.7 5.7 M8.2 5.3 L7.8 4.7 7.6 4.25 7.35 3.3 7.35 2.15 7.4 2.05 7.8 2.55 7.85 3.5 8.15 4.35 8.35 4.7 8.3 4.8 8.3 4.95 8.2 5.3" fill="#ffcc00" fill-rule="evenodd" stroke="none"/>
  </g>
</svg>
