<?xml version="1.0" encoding="UTF-8" standalone="no"?>
<svg xmlns:ffdec="https://www.free-decompiler.com/flash" xmlns:xlink="http://www.w3.org/1999/xlink" ffdec:objectType="shape" height="17.45px" width="11.0px" xmlns="http://www.w3.org/2000/svg">
  <g transform="matrix(1.0, 0.0, 0.0, 1.0, -5.7, 1.7)">
    <path d="M10.05 -1.3 L10.15 -1.7 10.25 -1.3 10.25 -1.25 10.2 -1.2 10.15 -1.0 10.25 -0.6 10.45 -0.25 10.6 -0.15 11.0 1.15 9.2 2.95 10.0 -1.0 10.0 -1.05 10.05 -1.3 M12.1 -0.55 L12.35 -0.3 12.75 0.3 13.2 1.35 13.1 1.5 12.9 1.55 12.7 1.55 12.3 0.65 11.95 0.15 11.75 -0.05 11.9 -0.3 11.55 -0.6 11.65 -0.75 12.05 -0.45 12.1 -0.55 M13.75 1.4 L13.3 1.8 13.4 2.55 13.35 3.7 13.25 4.3 13.1 4.8 12.85 5.3 12.3 6.1 12.2 6.05 12.1 6.15 12.2 6.15 12.15 6.25 12.25 6.4 12.25 6.5 11.95 6.3 12.05 6.45 12.3 6.7 12.35 6.8 12.3 6.8 16.5 10.75 16.45 10.8 16.3 12.4 16.0 12.0 15.85 11.7 13.2 9.2 13.5 9.45 12.1 8.1 14.8 9.9 13.65 8.8 13.7 8.8 12.85 8.0 10.85 5.6 10.25 4.5 11.95 6.3 9.2 2.95 13.75 1.4 M16.0 15.7 L15.9 15.6 15.75 15.45 15.7 15.35 15.6 15.15 15.6 14.5 15.55 14.4 9.85 8.35 9.9 8.25 10.0 8.05 16.25 14.4 16.1 14.45 16.0 15.7 M15.8 15.65 L15.6 15.6 15.05 15.35 14.75 15.15 14.5 15.0 12.0 12.3 12.0 12.25 12.1 12.3 9.9 9.9 9.9 9.75 9.95 9.7 10.0 9.55 10.05 9.55 15.8 15.65 M9.95 6.25 L10.0 6.15 10.45 6.75 10.5 6.85 11.25 7.8 16.3 12.7 16.25 12.7 16.15 14.1 15.9 13.85 15.8 13.65 15.7 13.45 15.65 12.75 15.75 12.75 10.3 7.25 10.35 7.2 9.85 6.5 9.85 6.4 9.95 6.25 M11.9 5.05 L11.85 5.15 11.85 5.4 11.9 5.7 12.25 5.3 12.75 4.1 12.85 3.6 12.9 2.85 12.8 2.0 12.6 2.2 12.5 2.4 12.5 2.6 11.6 3.45 11.95 5.0 11.9 5.05 M11.9 5.7 L11.95 6.0 12.1 5.9 11.9 5.7 M8.55 5.0 L8.15 4.1 7.95 3.2 7.95 2.25 8.15 2.45 8.15 2.5 8.35 4.1 8.65 4.65 8.6 4.8 8.6 4.95 8.55 5.0 M9.1 0.3 L8.7 0.8 8.4 1.35 8.3 1.45 8.1 1.55 8.3 0.95 8.5 0.65 8.6 0.75 9.05 0.25 9.1 0.3" fill="#ffcc00" fill-rule="evenodd" stroke="none"/>
    <path d="M10.25 -1.3 L10.55 -1.3 11.4 -1.05 11.75 -0.85 12.1 -0.55 12.05 -0.45 11.65 -0.75 11.55 -0.6 11.9 -0.3 11.75 -0.05 11.95 0.15 12.3 0.65 12.7 1.55 12.9 1.55 13.1 1.5 13.2 1.35 13.75 1.4 9.2 2.95 11.0 1.15 12.1 1.25 12.25 1.4 12.15 1.25 12.05 1.0 11.65 0.45 11.25 0.15 11.0 -0.05 11.0 0.0 10.6 -0.15 10.45 -0.25 10.25 -0.6 10.15 -1.0 10.2 -1.2 10.25 -1.25 10.25 -1.3 M12.3 6.1 L12.2 6.15 12.1 6.15 12.2 6.05 12.3 6.1 M16.5 12.35 L16.5 12.4 16.4 12.4 16.3 12.4 16.45 10.8 16.5 10.75 12.3 6.8 12.35 6.8 12.3 6.7 12.05 6.45 11.95 6.3 12.25 6.5 12.25 6.4 13.45 7.75 16.65 10.7 16.5 12.3 16.5 12.35 M16.3 14.1 L16.25 14.1 16.15 14.1 16.25 12.7 16.3 12.7 11.25 7.8 10.5 6.85 10.45 6.75 10.0 6.15 10.1 6.1 10.15 6.1 10.65 6.75 11.0 7.1 9.9 5.6 9.9 5.7 10.0 5.9 9.5 6.4 9.15 6.7 9.1 6.7 8.8 7.0 8.25 7.35 8.2 7.35 8.1 7.4 8.05 7.4 5.75 8.7 5.75 8.55 5.8 8.45 5.75 7.8 7.4 6.65 7.95 6.15 8.1 6.05 8.8 5.25 9.05 4.9 9.1 4.75 9.05 4.85 9.0 4.85 8.85 5.05 8.85 5.1 8.65 5.35 8.4 5.6 8.4 5.55 8.3 5.4 7.9 4.6 7.7 3.95 7.55 2.8 7.6 1.9 7.6 1.85 7.9 2.15 7.95 2.25 7.95 3.2 8.15 4.1 8.55 5.0 8.55 5.2 8.5 5.2 8.4 5.55 8.55 5.2 9.2 2.95 9.85 4.15 10.25 4.5 10.85 5.6 12.85 8.0 13.7 8.8 13.65 8.8 14.8 9.9 12.1 8.1 13.5 9.45 13.2 9.2 15.85 11.7 16.0 12.0 11.15 7.3 11.4 7.65 11.35 7.65 16.3 12.4 16.5 12.6 16.45 12.6 16.3 14.1 M16.2 15.75 L16.1 15.75 16.0 15.7 16.1 14.45 16.25 14.4 10.0 8.05 10.1 8.0 10.15 8.0 15.9 13.85 16.15 14.1 16.3 14.25 16.4 14.3 16.3 14.35 16.3 14.45 16.2 15.75 M15.9 15.6 L15.8 15.65 10.05 9.55 10.15 9.5 10.7 10.05 9.85 9.05 9.9 9.15 9.95 9.2 9.9 9.25 9.4 9.5 9.35 9.5 8.7 9.85 8.7 9.8 5.85 11.05 5.9 10.9 5.85 10.4 5.85 10.3 9.9 8.25 9.85 8.35 15.55 14.4 15.6 14.5 15.6 15.15 15.7 15.35 14.6 14.2 15.75 15.45 15.9 15.6 M12.65 14.25 L6.3 11.3 9.95 9.7 9.9 9.75 9.9 9.9 12.1 12.3 12.0 12.25 12.0 12.3 14.5 15.0 14.75 15.15 12.65 14.25 M5.8 9.85 L5.8 9.75 5.85 9.7 5.8 9.1 5.75 9.05 8.35 7.7 8.8 7.4 9.85 6.4 9.85 6.5 10.35 7.2 10.3 7.25 15.75 12.75 15.65 12.75 15.7 13.45 15.8 13.65 9.85 7.6 9.9 7.7 10.0 7.8 9.75 7.95 5.8 9.85 M7.25 1.5 L7.7 1.45 7.9 0.7 8.15 0.25 8.45 -0.2 8.95 -0.7 9.45 -1.0 10.0 -1.2 10.0 -1.05 9.85 -0.4 9.7 -0.1 9.2 0.2 9.1 0.3 9.05 0.25 8.6 0.75 8.5 0.65 8.3 0.95 8.1 1.55 8.3 1.45 8.4 1.35 9.3 1.25 9.2 2.95 7.25 1.5 M12.5 2.6 L12.5 2.4 12.6 2.2 12.8 2.0 12.9 2.85 12.85 3.6 12.75 4.1 12.25 5.3 11.9 5.7 11.85 5.4 11.85 5.15 11.9 5.05 11.95 5.1 12.25 4.55 12.3 4.35 12.45 3.75 12.5 3.25 12.55 2.85 12.5 2.6 M11.9 5.7 L12.1 5.9 11.95 6.0 11.9 5.7 M11.15 10.55 L11.3 10.7 11.8 11.25 14.25 13.85 14.6 14.2 14.25 13.85 11.8 11.25 11.3 10.7 11.15 10.55 10.75 10.15 11.15 10.55 10.7 10.05 10.75 10.15 10.7 10.05 11.15 10.55" fill="#7f6600" fill-rule="evenodd" stroke="none"/>
    <path d="M12.15 6.25 L13.3 7.55 16.7 10.65 16.55 12.35 16.55 12.4 16.5 12.35 16.5 12.3 16.65 10.7 13.45 7.75 12.25 6.4 12.15 6.25 M16.4 12.4 L16.5 12.5 16.5 12.6 16.4 14.0 16.3 14.1 16.45 12.6 16.5 12.6 16.3 12.4 11.35 7.65 11.4 7.65 11.15 7.3 16.0 12.0 16.3 12.4 16.4 12.4 M16.25 14.1 L16.3 14.15 16.35 14.1 16.4 14.2 16.4 14.3 16.35 14.5 16.3 15.6 16.25 15.7 16.2 15.75 16.3 14.45 16.3 14.35 16.4 14.3 16.3 14.25 16.15 14.1 16.25 14.1 M15.05 15.35 L12.65 14.25 14.75 15.15 15.05 15.35 M6.3 11.3 L6.2 11.3 6.2 11.25 10.0 9.55 9.95 9.7 6.3 11.3 M10.15 9.5 L10.0 9.3 9.45 9.65 6.0 11.1 5.9 11.1 5.85 11.05 5.85 10.4 5.9 10.9 5.85 11.05 8.7 9.8 8.7 9.85 9.35 9.5 9.4 9.5 9.9 9.25 9.95 9.2 9.9 9.15 9.85 9.05 10.7 10.05 10.15 9.5 M5.85 10.3 L5.85 10.15 10.0 8.05 9.9 8.25 5.85 10.3 M10.15 8.0 L10.05 7.95 10.0 7.85 10.0 7.9 9.55 8.1 9.05 8.4 5.9 9.95 5.8 9.85 9.75 7.95 10.0 7.8 9.9 7.7 9.85 7.6 15.8 13.65 15.9 13.85 10.15 8.0 M5.8 9.75 L5.75 9.05 5.75 8.95 8.3 7.6 8.95 7.15 9.95 6.25 9.85 6.4 8.8 7.4 8.35 7.7 5.75 9.05 5.8 9.1 5.85 9.7 5.8 9.75 M10.15 6.1 L10.05 5.95 9.9 6.2 9.1 6.9 8.5 7.3 5.95 8.75 5.8 8.7 5.75 8.7 8.05 7.4 8.1 7.4 8.2 7.35 8.25 7.35 8.8 7.0 9.1 6.7 9.15 6.7 9.5 6.4 10.0 5.9 9.9 5.7 9.9 5.6 11.0 7.1 10.65 6.75 10.15 6.1 M5.75 8.55 L5.7 7.7 5.75 7.7 7.75 6.3 8.4 5.6 8.65 5.35 8.85 5.1 8.85 5.05 9.0 4.85 9.05 4.85 9.1 4.75 9.05 4.9 8.8 5.25 8.1 6.05 7.95 6.15 7.4 6.65 5.75 7.8 5.8 8.45 5.75 8.55 M7.6 1.9 L7.25 1.5 9.2 2.95 9.3 1.25 9.7 -0.1 9.85 -0.4 10.0 -1.05 10.0 -1.2 9.45 -1.0 8.95 -0.7 8.45 -0.2 9.05 -0.85 Q9.55 -1.05 10.05 -1.3 L10.0 -1.05 10.0 -1.0 9.2 2.95 8.55 5.2 8.4 5.55 8.5 5.2 8.55 5.2 8.55 5.0 8.6 4.95 8.6 4.8 8.65 4.65 8.95 3.45 8.15 2.5 8.15 2.45 7.95 2.25 7.9 2.15 7.6 1.85 7.6 1.9 M8.15 0.25 L8.35 -0.1 8.45 -0.2 8.15 0.25 M12.1 1.25 L12.15 1.25 11.8 0.7 11.25 0.15 11.0 0.0 11.0 -0.05 11.25 0.15 11.65 0.45 12.05 1.0 12.15 1.25 12.25 1.4 12.1 1.25 M12.5 2.6 L12.55 2.85 12.5 3.25 12.5 2.6 M12.3 4.35 L12.25 4.55 11.95 5.1 11.9 5.05 11.95 5.0 12.3 4.35 M10.25 4.5 L9.85 4.15 9.2 2.95 11.95 6.3 10.25 4.5 M15.7 15.35 L15.75 15.45 14.6 14.2 15.7 15.35" fill="#000000" fill-rule="evenodd" stroke="none"/>
  </g>
</svg>
