<?xml version="1.0" encoding="UTF-8" standalone="no"?>
<svg xmlns:ffdec="https://www.free-decompiler.com/flash" xmlns:xlink="http://www.w3.org/1999/xlink" ffdec:objectType="shape" height="18.1px" width="8.95px" xmlns="http://www.w3.org/2000/svg">
  <g transform="matrix(1.0, 0.0, 0.0, 1.0, -6.7, 1.7)">
    <path d="M10.45 -1.3 L10.8 -1.25 11.1 -1.1 11.6 -0.7 12.0 -0.2 11.9 -0.1 12.1 0.2 12.5 1.35 12.35 1.45 12.35 1.55 12.55 1.5 12.6 1.35 13.05 1.4 12.7 1.8 12.6 1.75 12.4 1.8 12.5 2.6 12.4 4.25 12.55 4.3 12.4 4.95 12.05 5.75 12.1 5.8 11.8 6.25 11.7 6.2 11.55 6.05 11.45 5.4 11.5 5.25 11.55 5.05 11.7 4.75 11.9 4.2 12.0 3.55 12.1 3.6 12.15 3.1 12.05 2.2 12.0 2.35 12.0 2.6 11.3 3.45 9.05 2.95 10.8 1.15 11.75 1.25 11.65 1.0 11.4 0.5 11.2 0.25 11.05 0.1 10.7 -0.15 10.4 -0.25 10.25 -0.45 10.1 -1.0 10.15 -1.2 10.25 -1.25 10.4 -1.25 10.45 -1.3 M15.5 12.85 L15.4 12.9 15.35 12.9 15.45 13.05 15.4 14.0 15.35 14.0 15.3 14.6 15.25 14.65 15.4 14.85 15.3 14.9 15.2 16.35 15.05 16.4 15.0 16.35 15.05 14.95 15.15 14.95 10.0 8.05 10.0 8.0 10.05 8.0 10.6 8.75 10.7 8.9 11.35 9.75 12.0 10.6 13.3 12.4 13.65 12.85 13.3 12.4 12.0 10.6 11.35 9.75 10.7 8.9 10.6 8.75 11.35 9.75 10.6 8.75 9.8 7.5 9.8 7.6 9.95 7.75 9.8 7.85 9.85 7.85 9.65 8.0 9.6 8.0 9.35 8.1 8.95 8.35 8.9 8.35 6.75 9.6 8.8 8.35 6.75 9.55 6.75 9.45 6.8 9.3 6.8 8.9 8.65 7.75 8.6 7.75 9.0 7.4 9.05 7.3 9.1 7.25 9.3 7.1 9.4 6.95 9.85 6.45 10.6 7.9 13.8 12.1 12.9 11.0 14.65 13.25 14.7 13.25 14.65 14.15 13.65 12.85 14.65 14.2 14.9 14.5 15.0 14.6 15.1 14.65 15.15 13.85 15.2 13.9 15.25 13.15 11.5 8.55 11.2 8.1 11.25 8.1 10.25 6.55 10.2 6.45 10.15 6.5 10.0 6.15 10.0 6.1 10.05 6.1 10.7 7.1 10.85 7.35 11.0 7.5 10.85 7.35 10.7 7.1 11.0 7.5 11.4 8.15 14.9 12.55 15.05 12.75 15.25 12.9 15.4 11.2 14.25 9.95 12.05 7.2 11.85 6.85 11.9 6.85 11.55 6.45 11.65 6.45 11.55 6.35 11.7 6.45 11.85 6.6 11.8 6.35 12.15 6.8 12.1 6.8 12.5 7.3 15.4 10.9 15.6 11.1 15.5 12.85 M10.0 9.55 L10.05 9.5 11.3 11.35 10.0 9.55 M6.8 10.65 L6.8 10.55 8.75 9.55 6.8 10.15 8.65 9.1 8.65 9.05 9.8 8.3 9.85 8.25 11.2 10.25 10.9 9.85 11.2 10.25 14.05 14.3 13.5 13.55 14.55 15.0 14.6 15.0 14.55 15.85 10.35 9.9 10.4 9.95 9.8 8.95 9.8 9.1 9.9 9.2 9.85 9.2 9.35 9.55 9.3 9.5 8.9 9.75 8.85 9.7 6.8 10.7 Q7.8 10.2 8.85 9.65 L6.8 10.65 M6.7 8.45 L6.7 8.3 6.75 8.15 6.75 7.7 7.0 7.5 7.1 7.35 7.75 6.85 8.25 6.35 8.8 5.6 9.05 5.15 9.1 5.15 9.4 4.55 9.4 4.45 9.2 4.8 9.15 4.85 8.75 5.55 8.75 5.45 8.75 5.35 8.5 4.7 8.25 3.75 8.15 2.6 8.2 1.95 8.4 2.15 8.55 2.4 8.55 3.45 8.7 4.05 8.75 4.2 8.8 4.45 8.85 4.6 8.9 4.45 8.9 4.4 9.05 3.15 9.05 2.95 10.3 4.8 10.35 4.85 10.4 4.9 10.5 5.25 11.65 7.25 12.95 8.9 12.4 8.3 14.8 11.25 14.75 12.25 11.0 7.5 10.7 7.1 9.8 5.5 9.85 5.65 10.0 5.95 9.65 6.4 9.55 6.5 9.5 6.5 9.45 6.55 9.15 6.9 9.1 6.85 8.85 7.1 8.6 7.25 8.55 7.25 8.2 7.5 8.15 7.45 6.7 8.45 M8.65 1.5 L8.6 1.55 8.4 1.6 8.25 1.6 8.3 1.25 8.65 0.3 9.0 -0.3 9.3 -0.6 9.25 -0.75 9.55 -0.95 9.85 -1.15 10.0 -1.2 9.8 -0.05 9.4 0.25 9.15 0.55 9.1 0.5 8.8 1.05 8.65 1.5 M10.9 9.85 L10.85 9.8 9.8 8.3 10.85 9.8 10.9 9.85 M9.85 9.8 L9.9 9.9 13.75 15.55 13.8 15.6 8.25 11.8 8.95 12.25 7.35 11.15 8.45 10.6 7.25 11.1 9.8 9.85 9.85 9.8 M9.85 6.4 L9.95 6.6 9.85 6.45 9.8 6.45 9.85 6.4" fill="#7f6600" fill-rule="evenodd" stroke="none"/>
    <path d="M10.25 -1.3 L10.45 -1.3 10.4 -1.25 10.25 -1.25 10.15 -1.2 10.15 -1.25 10.25 -1.25 10.25 -1.3 M11.8 6.25 L11.85 6.3 12.5 7.3 15.65 11.05 15.55 12.75 15.5 12.85 15.6 11.1 15.4 10.9 12.5 7.3 12.1 6.8 12.15 6.8 11.8 6.35 11.8 6.25 M15.4 12.9 L15.55 13.05 15.45 13.05 15.5 13.15 15.5 13.25 15.4 14.45 15.35 14.55 15.3 14.6 15.35 14.0 15.4 14.0 15.45 13.05 15.35 12.9 15.4 12.9 M15.25 14.65 L15.4 14.8 15.4 14.85 15.3 16.15 15.2 16.35 15.3 14.9 15.4 14.85 15.25 14.65 M13.9 15.75 L7.05 11.0 10.0 9.6 9.85 9.75 9.85 9.8 9.8 9.85 7.25 11.1 8.45 10.6 7.35 11.15 8.95 12.25 8.25 11.8 13.8 15.6 13.9 15.75 M10.05 9.5 L10.0 9.35 9.95 9.4 6.9 10.85 6.8 10.8 6.8 10.7 6.8 10.65 8.85 9.65 Q7.8 10.2 6.8 10.7 L8.85 9.7 8.9 9.75 9.3 9.5 9.35 9.55 9.85 9.2 9.9 9.2 9.8 9.1 9.8 8.95 10.4 9.95 10.35 9.9 14.55 15.85 14.55 15.95 11.3 11.35 10.05 9.5 M6.8 10.55 L6.75 9.95 9.9 8.1 9.85 8.25 9.8 8.3 8.65 9.05 8.65 9.1 6.8 10.15 8.75 9.55 6.8 10.55 M10.05 8.0 L10.0 7.95 6.95 9.65 6.8 9.65 6.75 9.6 6.75 9.55 8.8 8.35 6.75 9.6 8.9 8.35 8.95 8.35 9.35 8.1 9.6 8.0 9.65 8.0 9.85 7.85 9.8 7.85 9.95 7.75 9.8 7.6 9.8 7.5 10.6 8.75 10.05 8.0 M6.75 9.45 L6.7 8.75 8.65 7.55 9.2 7.05 7.05 8.45 6.95 8.5 6.8 8.55 6.75 8.45 6.7 8.45 8.15 7.45 8.2 7.5 8.55 7.25 8.6 7.25 8.85 7.1 9.1 6.85 9.15 6.9 9.45 6.55 9.5 6.5 9.55 6.5 9.65 6.4 10.0 5.95 9.85 5.65 9.8 5.5 10.7 7.1 10.05 6.1 10.05 6.05 10.0 6.1 10.0 6.15 9.95 6.2 9.95 6.25 9.9 6.25 9.85 6.4 9.8 6.45 9.85 6.45 9.4 6.95 9.3 7.1 9.1 7.25 9.05 7.3 9.0 7.4 8.6 7.75 8.65 7.75 6.8 8.9 6.8 9.3 6.75 9.45 M6.7 8.3 L6.7 7.55 6.75 7.5 7.9 6.55 8.2 6.25 8.7 5.6 8.75 5.55 9.15 4.85 9.2 4.8 9.4 4.45 9.4 4.55 9.1 5.15 9.05 5.15 8.8 5.6 8.25 6.35 7.75 6.85 7.1 7.35 7.0 7.5 6.75 7.7 6.75 8.15 6.7 8.3 M8.75 5.45 L8.5 4.7 8.2 3.8 8.1 2.5 8.15 1.85 7.95 1.55 7.9 1.5 8.25 1.45 8.4 0.75 8.85 -0.2 9.2 -0.7 9.25 -0.75 9.55 -1.1 9.45 -0.9 9.55 -0.95 9.55 -1.0 9.85 -1.2 9.9 -1.2 10.0 -1.25 10.0 -1.2 9.85 -1.15 9.55 -0.95 9.25 -0.75 9.3 -0.6 9.0 -0.3 8.65 0.3 8.3 1.25 8.25 1.6 8.4 1.6 8.6 1.55 8.65 1.5 8.75 1.45 8.8 1.35 9.45 1.25 9.05 2.95 11.45 6.25 10.65 5.3 10.4 4.9 10.35 4.85 10.3 4.8 9.05 2.95 9.05 3.15 8.95 3.05 8.6 2.5 8.55 2.4 8.4 2.15 8.2 1.95 8.15 2.6 8.25 3.75 8.5 4.7 8.75 5.35 8.75 5.45 M10.4 -0.25 L10.7 -0.15 11.05 0.1 11.2 0.25 11.4 0.5 11.65 1.0 11.2 0.25 10.85 0.0 10.5 -0.15 10.4 -0.25 M12.0 2.6 L12.0 2.35 12.05 2.2 12.15 3.1 12.1 3.6 12.0 3.55 12.05 3.1 12.0 2.6 M11.55 5.05 L11.5 5.25 11.5 5.15 11.55 5.05 M14.9 12.55 L11.4 8.15 11.0 7.5 14.75 12.25 14.9 12.55 M14.65 14.2 L13.65 12.85 14.65 14.15 14.65 14.2 M9.15 0.55 L9.1 0.65 8.9 1.15 8.95 0.9 9.15 0.55 M8.9 4.4 L8.9 4.45 8.8 4.05 8.9 4.4 M8.6 2.5 L8.65 3.4 8.6 3.0 8.6 2.5 M9.2 7.05 L9.25 7.0 9.25 6.95 9.2 7.05" fill="#000000" fill-rule="evenodd" stroke="none"/>
    <path d="M12.0 -0.2 L12.25 0.25 12.6 1.35 12.55 1.5 12.35 1.55 12.35 1.45 12.5 1.35 12.1 0.2 11.9 -0.1 12.0 -0.2 M12.7 1.8 L12.8 2.55 12.8 3.15 12.5 4.9 12.1 5.8 12.05 5.75 12.4 4.95 12.55 4.3 12.4 4.25 12.5 2.6 12.4 1.8 12.6 1.75 12.7 1.8 M15.0 16.35 L14.85 16.3 14.8 16.25 14.7 16.25 14.6 16.15 14.4 16.1 13.9 15.75 13.8 15.6 13.75 15.55 9.9 9.9 9.85 9.8 9.85 9.75 10.0 9.6 10.0 9.55 11.3 11.35 14.55 15.95 14.55 15.85 14.6 15.0 14.55 15.0 13.5 13.55 14.05 14.3 11.2 10.25 9.85 8.25 9.9 8.1 10.0 8.05 15.15 14.95 15.05 14.95 15.0 16.35 M10.0 -1.25 L10.15 -1.7 10.25 -1.3 10.25 -1.25 10.15 -1.25 10.15 -1.2 10.1 -1.0 10.25 -0.45 10.4 -0.25 10.5 -0.15 10.8 1.15 9.05 2.95 11.3 3.45 11.55 5.05 11.5 5.15 11.5 5.25 11.45 5.4 11.55 6.05 11.7 6.2 11.8 6.25 11.8 6.35 11.85 6.6 11.7 6.45 11.55 6.35 11.65 6.45 11.55 6.45 11.9 6.85 11.85 6.85 12.05 7.2 14.25 9.95 15.4 11.2 15.25 12.9 15.05 12.75 14.9 12.55 14.75 12.25 14.8 11.25 12.4 8.3 12.95 8.9 11.65 7.25 10.5 5.25 10.4 4.9 10.65 5.3 11.45 6.25 9.05 2.95 9.45 1.25 9.8 -0.05 10.0 -1.2 10.0 -1.25 M8.8 1.35 L8.75 1.45 8.65 1.5 8.8 1.05 9.1 0.5 9.15 0.55 8.95 0.9 8.9 1.15 8.8 1.35 M10.0 6.15 L10.15 6.5 10.2 6.45 10.25 6.55 11.25 8.1 11.2 8.1 11.5 8.55 15.25 13.15 15.2 13.9 15.15 13.85 15.1 14.65 15.0 14.6 14.9 14.5 14.65 14.2 14.65 14.15 14.7 13.25 14.65 13.25 12.9 11.0 13.8 12.1 10.6 7.9 9.85 6.45 9.95 6.6 9.85 6.4 9.9 6.25 9.95 6.25 9.95 6.2 10.0 6.15 M8.9 4.45 L8.85 4.6 8.8 4.45 8.75 4.2 8.7 4.05 8.55 3.45 8.55 2.4 8.6 2.5 8.6 3.0 8.65 3.4 8.8 4.05 8.9 4.45" fill="#ffcc00" fill-rule="evenodd" stroke="none"/>
  </g>
</svg>
