<?xml version="1.0" encoding="UTF-8" standalone="no"?>
<svg xmlns:ffdec="https://www.free-decompiler.com/flash" xmlns:xlink="http://www.w3.org/1999/xlink" ffdec:objectType="shape" height="18.6px" width="6.55px" xmlns="http://www.w3.org/2000/svg">
  <g transform="matrix(1.0, 0.0, 0.0, 1.0, -7.7, 1.7)">
    <path d="M10.2 -1.5 L10.25 -1.3 10.35 -1.3 10.55 -1.25 Q10.7 -1.15 10.8 -1.1 L10.75 -1.05 10.5 -1.15 10.45 -0.95 10.65 -0.85 10.85 -0.6 10.8 -0.35 11.15 0.25 11.35 0.85 11.5 1.6 11.55 1.6 11.65 1.55 11.8 1.5 11.85 1.5 11.9 1.35 11.75 0.75 11.8 0.8 11.9 1.35 12.2 1.4 8.95 2.95 8.95 2.85 8.9 2.9 8.95 2.95 9.15 5.4 9.2 5.15 9.25 5.1 9.4 4.65 9.5 4.5 9.55 4.35 9.7 4.25 9.7 4.2 10.0 4.7 10.0 4.75 10.2 5.45 11.4 8.2 11.9 9.1 11.85 9.15 12.1 9.6 11.0 8.25 13.25 12.6 13.35 12.85 10.75 8.0 10.0 6.15 9.95 6.1 10.0 6.1 9.75 5.5 9.45 6.1 9.35 6.2 9.05 6.8 9.0 6.8 8.85 7.1 9.0 7.2 9.15 7.0 9.2 7.0 9.25 6.9 9.3 6.95 9.35 6.85 9.45 6.8 9.55 6.65 9.6 6.65 9.8 6.35 9.75 6.6 10.1 7.5 10.0 7.2 10.35 8.1 13.15 13.6 13.1 13.55 13.05 14.2 13.3 14.75 10.0 8.0 9.85 8.15 9.8 8.25 9.75 8.4 13.05 15.4 13.05 16.15 10.0 9.55 10.0 9.45 9.95 9.5 9.75 9.6 8.1 10.6 8.0 10.65 7.95 10.65 7.8 10.6 7.75 10.45 7.75 9.8 9.25 8.7 9.45 8.45 8.1 9.45 8.0 9.5 7.85 9.5 7.8 9.45 7.75 9.35 7.7 8.65 8.05 8.35 7.95 8.4 7.85 8.4 7.7 8.25 7.7 7.5 8.4 6.6 8.5 6.5 8.85 6.0 9.15 5.4 8.95 4.55 8.9 4.45 8.8 3.7 8.75 2.2 8.65 1.5 8.8 1.45 9.0 0.35 9.35 -0.5 9.8 -1.1 9.9 -1.15 10.0 -1.2 9.75 -0.2 9.75 -0.25 9.6 -0.1 9.4 0.15 9.25 0.5 9.0 1.55 9.0 1.6 9.15 1.5 9.2 1.4 9.3 1.1 9.35 0.95 9.4 0.7 9.55 0.4 9.35 0.95 9.25 1.35 9.35 1.35 8.95 2.95 10.6 1.1 10.4 -0.15 10.3 -0.25 10.2 -0.45 10.1 -0.75 10.1 -1.05 10.15 -1.25 10.2 -1.25 10.2 -1.5 M11.5 -0.1 L11.55 -0.05 11.55 0.0 11.65 0.35 11.6 0.25 11.5 -0.1 M11.95 1.95 L12.0 1.95 12.0 2.55 12.05 2.6 12.05 3.1 12.0 3.45 12.0 2.55 11.95 1.95 M11.85 4.85 L11.8 5.2 11.7 5.45 11.85 4.85 M11.65 5.55 L11.6 5.75 11.55 5.75 11.65 5.55 M11.4 6.15 L14.25 11.45 14.2 12.8 14.1 13.15 14.2 11.5 11.8 7.25 11.35 6.25 11.35 6.5 11.3 6.55 11.3 6.3 11.35 6.25 11.4 6.15 M14.05 13.25 L14.15 13.45 14.1 13.45 14.15 13.55 14.1 14.8 14.0 15.0 14.1 13.5 14.1 13.45 14.0 13.3 14.05 13.25 M13.95 15.05 L14.05 15.25 14.1 15.4 14.0 16.55 13.95 16.75 13.9 16.7 13.95 15.2 13.95 16.75 14.0 15.3 13.95 15.2 13.9 15.05 13.95 15.05 M12.45 15.85 L7.95 10.85 9.85 9.65 9.8 9.75 9.8 9.9 12.45 15.85 M10.55 -0.1 L10.85 1.15 11.25 1.25 10.85 0.25 10.55 -0.1 M11.45 2.65 L11.4 2.4 11.45 2.1 11.55 1.95 11.6 2.4 11.6 3.7 11.55 4.2 11.2 5.55 11.05 5.85 11.05 5.25 11.15 5.05 10.95 3.5 11.3 2.9 11.3 4.25 11.35 4.25 11.45 3.6 11.45 2.65 M9.65 7.95 L9.85 7.75 9.75 7.55 9.55 7.8 9.5 7.85 9.5 7.9 9.45 7.95 9.55 8.0 9.65 7.9 9.65 7.95" fill="#000000" fill-rule="evenodd" stroke="none"/>
    <path d="M10.8 -1.1 L10.85 -1.1 11.0 -0.95 11.5 -0.1 11.6 0.25 11.55 0.3 11.8 1.5 11.65 1.55 11.55 1.6 11.5 1.6 11.35 0.85 11.15 0.25 10.8 -0.35 10.85 -0.6 10.65 -0.85 10.45 -0.95 10.5 -1.15 10.75 -1.05 10.8 -1.1 M12.2 1.4 L11.95 1.8 11.85 1.75 11.85 4.1 11.6 5.4 11.7 5.45 11.65 5.55 11.55 5.75 11.5 5.95 11.4 6.15 11.35 6.25 11.3 6.3 11.2 6.25 11.1 6.05 11.05 5.85 11.2 5.55 11.55 4.2 11.6 3.7 11.6 2.4 11.55 1.95 11.45 2.1 11.4 2.4 11.45 2.65 11.3 2.9 10.95 3.5 8.95 2.95 9.7 4.2 9.7 4.25 9.55 4.35 9.5 4.5 9.4 4.65 9.25 5.1 9.2 5.15 9.15 5.4 8.95 2.95 8.9 2.9 8.95 2.85 8.95 2.95 12.2 1.4 M14.1 13.15 L14.05 13.25 14.0 13.3 14.1 13.45 14.1 13.5 14.0 15.0 13.95 15.05 13.9 15.05 13.95 15.2 14.0 15.3 13.95 16.75 13.95 15.2 13.9 16.7 13.9 16.8 13.75 16.9 13.65 16.9 13.7 15.4 13.8 15.4 13.7 15.3 13.75 15.25 13.6 15.05 13.65 15.1 13.75 15.1 13.8 13.7 13.8 14.6 13.85 13.85 13.9 13.7 13.6 13.2 13.8 13.3 13.9 13.3 14.0 11.5 13.9 11.55 11.7 7.85 11.75 7.85 11.45 7.35 11.5 7.35 11.1 6.5 11.15 6.5 11.35 6.65 11.3 6.55 11.35 6.5 11.35 6.25 11.8 7.25 14.2 11.5 14.1 13.15 M12.7 16.15 L12.45 15.85 9.8 9.9 9.8 9.75 9.85 9.65 12.7 16.15 M9.75 -0.2 L9.65 0.2 9.55 0.4 9.4 0.7 9.35 0.95 9.3 1.1 9.2 1.05 9.15 1.5 9.0 1.6 9.0 1.55 9.25 0.5 9.4 0.15 9.6 -0.1 9.75 -0.25 9.75 -0.2 M13.35 12.85 L13.25 12.6 11.0 8.25 12.1 9.6 11.85 9.15 11.9 9.1 11.4 8.2 10.2 5.45 10.0 4.75 10.0 4.7 10.35 5.25 10.4 5.45 11.05 7.2 12.75 10.25 12.35 9.65 13.4 11.55 13.35 12.85 M10.0 6.15 L9.85 6.25 10.45 7.85 10.6 8.1 10.85 8.65 10.8 8.7 13.3 13.6 13.35 13.6 13.3 14.75 13.05 14.2 13.1 13.55 13.15 13.6 10.35 8.1 10.0 7.2 10.1 7.5 9.75 6.6 9.8 6.35 9.6 6.65 9.55 6.65 9.45 6.8 9.35 6.85 9.3 6.95 9.25 6.9 9.2 7.0 9.15 7.0 9.0 7.2 8.85 7.1 9.0 6.8 9.05 6.8 9.35 6.2 9.45 6.1 9.75 5.5 10.0 6.1 9.95 6.1 10.0 6.15 M9.85 8.15 L10.8 10.3 10.75 10.3 11.75 12.3 11.35 11.5 13.25 15.4 13.3 15.45 13.3 16.65 13.05 16.15 13.05 15.4 9.75 8.4 9.8 8.25 9.85 8.15 M10.45 7.85 L10.25 7.5 10.4 7.85 10.45 7.85 M9.65 7.95 L9.65 7.9 9.55 8.0 9.45 7.95 9.5 7.9 9.5 7.85 9.55 7.8 9.75 7.55 9.85 7.75 9.65 7.95" fill="#7f6600" fill-rule="evenodd" stroke="none"/>
    <path d="M10.0 -1.2 L10.0 -1.25 10.15 -1.7 10.2 -1.5 10.2 -1.25 10.15 -1.25 10.1 -1.05 10.1 -0.75 10.2 -0.45 10.3 -0.25 10.4 -0.15 10.6 1.1 8.95 2.95 9.35 1.35 9.65 0.2 9.75 -0.2 10.0 -1.2 M11.65 0.35 L11.8 0.8 11.75 0.75 11.9 1.35 11.85 1.5 11.8 1.5 11.55 0.3 11.6 0.25 11.65 0.35 M11.95 1.8 L11.95 1.95 12.0 2.55 12.0 3.45 11.95 4.4 11.85 4.85 11.7 5.45 11.6 5.4 11.85 4.1 11.85 1.75 11.95 1.8 M13.65 16.9 L13.55 16.85 13.4 16.75 13.3 16.65 13.0 16.5 12.9 16.35 12.7 16.15 9.85 9.65 10.0 9.55 13.05 16.15 13.3 16.65 13.3 15.45 13.25 15.4 11.35 11.5 11.75 12.3 10.75 10.3 10.8 10.3 9.85 8.15 10.0 8.0 13.3 14.75 13.35 13.6 13.3 13.6 10.8 8.7 10.85 8.65 10.6 8.1 10.45 7.85 9.85 6.25 10.0 6.15 10.75 8.0 13.35 12.85 13.4 11.55 12.35 9.65 12.75 10.25 11.05 7.2 10.4 5.45 10.35 5.25 10.0 4.7 9.7 4.2 8.95 2.95 10.95 3.5 11.15 5.05 11.05 5.25 11.05 5.85 11.1 6.05 11.2 6.25 11.3 6.3 11.3 6.55 11.35 6.65 11.15 6.5 11.1 6.5 11.5 7.35 11.45 7.35 11.75 7.85 11.7 7.85 13.9 11.55 14.0 11.5 13.9 13.3 13.8 13.3 13.6 13.2 13.9 13.7 13.85 13.85 13.8 14.6 13.8 13.7 13.75 15.1 13.65 15.1 13.6 15.05 13.75 15.25 13.7 15.3 13.8 15.4 13.7 15.4 13.65 16.9 M10.45 7.85 L10.4 7.85 10.25 7.5 10.45 7.85 M9.15 1.5 L9.2 1.05 9.3 1.1 9.2 1.4 9.15 1.5" fill="#ffcc00" fill-rule="evenodd" stroke="none"/>
  </g>
</svg>
