<?xml version="1.0" encoding="UTF-8" standalone="no"?>
<svg xmlns:ffdec="https://www.free-decompiler.com/flash" xmlns:xlink="http://www.w3.org/1999/xlink" ffdec:objectType="shape" height="18.9px" width="3.95px" xmlns="http://www.w3.org/2000/svg">
  <g transform="matrix(1.0, 0.0, 0.0, 1.0, -8.7, 1.7)">
    <path d="M10.15 -1.7 L10.15 -1.3 10.1 -1.2 10.05 -0.95 10.05 -0.75 10.1 -0.45 10.25 -0.15 10.4 1.1 8.9 2.9 11.25 1.4 11.1 1.8 11.0 1.75 11.05 3.5 11.0 4.4 11.05 4.45 11.05 4.9 10.9 5.75 10.85 5.8 10.85 5.9 10.8 6.2 10.75 6.35 10.75 6.65 10.8 6.45 10.9 6.25 10.9 6.05 12.35 11.15 12.55 11.7 12.5 13.3 12.45 13.35 12.4 13.45 12.5 13.8 12.45 15.1 12.4 15.2 12.35 15.25 12.45 15.6 12.4 15.6 12.35 16.9 12.35 17.0 12.3 17.05 12.25 17.15 12.1 17.2 12.1 15.7 12.2 15.7 12.15 15.4 12.2 15.4 12.25 13.8 12.15 13.8 12.1 13.6 12.25 13.55 12.3 13.55 12.35 11.75 12.25 11.75 12.0 11.0 11.95 11.0 11.7 10.3 11.6 10.3 11.4 9.65 11.3 9.65 11.5 10.3 11.25 9.65 11.65 11.05 11.4 10.35 11.8 11.75 11.7 11.75 11.75 13.35 11.7 13.3 11.6 13.1 11.7 13.5 11.5 12.8 11.55 11.8 10.1 6.15 10.0 5.35 8.9 2.95 8.9 2.9 9.5 0.75 10.0 -1.2 10.15 -1.7 M11.0 0.65 L11.0 0.9 11.05 1.35 11.0 1.35 10.85 0.25 10.55 -0.85 10.6 -0.9 10.65 -0.85 10.7 -0.65 10.75 -0.6 10.75 -0.55 10.8 -0.45 10.8 -0.25 10.85 -0.2 11.0 0.65 M11.0 1.45 L11.0 1.5 10.9 1.55 10.85 1.45 10.95 1.35 11.0 1.45 M11.1 3.85 L11.15 3.65 11.15 3.8 11.1 3.85 M11.15 3.4 L11.1 1.95 11.15 1.95 11.2 3.05 11.15 3.4 M11.7 17.1 L11.55 16.8 11.45 16.6 11.5 15.7 11.5 15.65 11.35 15.05 11.5 15.7 11.4 15.65 9.75 8.25 9.8 8.15 9.9 8.05 11.2 13.7 11.7 15.7 11.75 15.7 11.7 17.1 M11.4 16.6 L11.15 16.2 11.15 16.15 11.15 16.1 9.8 9.75 9.9 9.6 10.95 14.5 10.95 14.55 11.4 16.6 M10.8 2.75 L10.55 3.5 10.65 4.95 10.5 5.65 10.65 6.3 10.7 6.15 11.0 4.4 10.9 4.3 10.95 3.5 10.9 1.85 10.8 1.95 10.75 2.2 10.8 2.75 M10.3 5.95 L10.45 6.55 10.5 6.55 10.55 6.95 10.65 6.95 10.75 6.95 10.65 6.55 10.5 6.4 10.3 5.95 M11.5 14.8 L11.5 13.8 9.75 6.4 9.7 6.6 9.55 6.6 9.7 6.2 9.65 6.2 9.8 5.7 9.9 6.3 10.0 6.65 10.0 6.9 10.95 10.75 10.35 8.65 11.7 13.85 11.7 15.2 11.6 15.05 11.5 14.8 M10.8 7.4 L10.65 6.95 10.75 7.4 10.8 7.4 M11.7 13.3 L11.75 13.4 11.75 13.45 11.7 13.3" fill="#7f6600" fill-rule="evenodd" stroke="none"/>
    <path d="M11.05 1.35 L11.0 1.45 10.95 1.35 11.0 1.35 11.05 1.35 M11.05 4.45 L11.0 4.4 11.05 3.5 11.0 1.75 11.1 1.8 11.1 1.95 11.15 3.4 11.15 3.65 11.1 3.85 11.1 4.15 11.05 4.45 M12.1 17.2 L11.85 17.2 11.7 17.1 11.75 15.7 11.7 15.7 11.2 13.7 11.5 14.8 11.6 15.05 11.7 15.2 11.7 13.85 10.35 8.65 10.95 10.75 11.5 12.8 11.7 13.5 11.6 13.1 11.7 13.3 11.75 13.35 11.7 11.75 11.8 11.75 11.4 10.35 11.65 11.05 11.25 9.65 11.5 10.3 11.3 9.65 11.4 9.65 11.6 10.3 11.7 10.3 11.95 11.0 12.0 11.0 12.25 11.75 12.35 11.75 12.3 13.55 12.25 13.55 12.1 13.6 12.15 13.8 12.25 13.8 12.2 15.4 12.15 15.4 12.2 15.7 12.1 15.7 12.1 17.2 M11.55 16.8 L11.45 16.7 11.4 16.6 10.95 14.55 10.95 14.5 11.45 16.6 11.55 16.8 M10.3 5.95 L10.5 6.4 10.65 6.55 10.75 6.95 10.65 6.95 10.55 6.95 10.5 6.55 10.45 6.55 10.3 5.95 M10.8 7.4 L10.75 7.4 10.65 6.95 10.8 7.4 M11.7 13.3 L11.75 13.45 11.75 13.4 11.7 13.3" fill="#ffcc00" fill-rule="evenodd" stroke="none"/>
    <path d="M10.15 -1.7 L10.25 -1.3 10.4 -1.25 10.6 -1.0 10.65 -0.85 10.6 -0.9 10.55 -0.85 10.85 0.25 11.0 1.35 10.95 1.35 10.85 1.45 10.9 1.55 11.0 1.5 11.0 1.45 11.05 1.35 11.0 0.9 11.0 0.65 11.1 1.4 11.25 1.4 8.9 2.9 10.4 1.1 10.25 -0.15 10.1 -0.45 10.05 -0.75 10.05 -0.95 10.1 -1.2 10.15 -1.3 10.15 -1.7 M10.65 -0.85 L10.7 -0.75 10.75 -0.6 10.7 -0.65 10.65 -0.85 M10.8 -0.45 L10.85 -0.2 10.9 -0.15 11.0 0.65 10.85 -0.2 10.8 -0.25 10.8 -0.45 M11.05 4.45 L11.1 4.15 11.1 3.85 11.15 3.8 11.15 3.65 11.15 3.4 11.2 3.05 11.15 1.95 11.1 1.95 11.1 1.8 11.25 1.4 11.4 2.9 10.95 5.85 12.65 11.75 12.6 12.9 12.55 13.05 12.5 13.3 12.55 11.7 12.35 11.15 10.9 6.05 10.9 6.25 10.8 6.45 10.75 6.65 10.75 6.35 10.8 6.2 10.85 5.9 10.85 5.8 10.9 5.75 11.05 4.9 11.05 4.45 M12.45 13.35 L12.55 13.7 12.5 14.95 12.45 15.1 12.5 13.8 12.4 13.45 12.45 13.35 M12.4 15.2 L12.5 15.55 12.45 16.7 12.35 16.9 12.4 15.6 12.45 15.6 12.35 15.25 12.4 15.2 M11.15 16.1 L8.9 10.75 9.1 10.5 8.85 10.5 8.8 10.35 8.75 9.7 9.0 9.4 8.85 9.4 8.75 9.25 8.75 8.6 8.9 8.3 8.8 8.2 8.75 8.1 8.75 8.0 8.7 7.4 9.15 6.45 9.4 5.6 9.4 5.5 9.5 5.2 8.9 2.95 10.0 5.35 10.1 6.15 11.55 11.8 11.5 12.8 10.95 10.75 10.0 6.9 10.0 6.65 9.9 6.3 9.8 5.7 9.65 6.2 9.7 6.2 9.55 6.6 9.7 6.6 9.75 6.4 11.5 13.8 11.5 14.8 11.2 13.7 9.9 8.05 9.8 8.15 9.75 8.25 11.4 15.65 11.5 15.7 11.35 15.05 11.5 15.65 11.5 15.7 11.45 16.6 10.95 14.5 9.9 9.6 9.8 9.75 11.15 16.1 M9.5 0.75 L9.75 -0.65 10.0 -1.2 9.5 0.75 M10.8 2.75 L10.75 2.2 10.8 1.95 10.9 1.85 10.95 3.5 10.9 4.3 11.0 4.4 10.7 6.15 10.65 6.3 10.5 5.65 10.65 4.95 10.55 3.5 10.8 2.75" fill="#000000" fill-rule="evenodd" stroke="none"/>
  </g>
</svg>
