<?xml version="1.0" encoding="UTF-8" standalone="no"?>
<svg xmlns:ffdec="https://www.free-decompiler.com/flash" xmlns:xlink="http://www.w3.org/1999/xlink" ffdec:objectType="shape" height="19.05px" width="2.6px" xmlns="http://www.w3.org/2000/svg">
  <g transform="matrix(1.0, 0.0, 0.0, 1.0, -8.85, 1.7)">
    <path d="M11.4 2.85 L10.3 1.4 10.3 -0.75 10.2 -1.25 10.15 -1.25 10.15 -1.3 10.05 -1.25 10.0 -0.9 10.05 -0.35 10.05 1.25 8.85 2.9 10.1 -1.7 11.4 2.85 M8.85 2.9 L10.05 3.45 10.0 5.8 10.05 6.2 10.1 6.3 10.15 6.35 10.25 6.3 10.25 6.15 10.3 6.05 10.3 3.4 11.45 2.9 10.6 5.6 10.55 5.75 10.65 16.9 10.5 17.2 10.45 17.25 10.45 15.8 10.5 15.75 10.5 15.45 10.45 15.45 10.45 13.9 10.4 13.9 10.4 13.65 10.5 13.55 10.5 11.85 10.4 11.85 10.4 11.05 10.3 11.05 10.25 10.35 10.25 11.05 10.2 10.35 10.2 11.05 10.1 10.35 10.1 11.05 10.05 11.05 10.1 12.05 10.0 11.15 10.0 13.6 10.05 13.65 10.05 13.9 10.0 13.9 10.0 17.25 9.8 16.9 9.75 14.9 9.8 15.1 9.8 13.85 9.75 13.85 9.75 13.1 9.8 13.25 9.8 11.8 9.75 11.8 9.75 10.35 9.8 11.4 9.8 5.75 9.75 5.55 9.7 5.35 8.85 2.9 M10.1 1.75 L10.2 1.8 10.25 1.75 10.25 5.85 10.2 5.9 10.1 5.85 10.1 1.75 M10.1 -0.15 L10.15 -0.25 10.25 -0.15 10.25 1.5 10.2 1.4 10.2 1.35 10.1 1.45 10.1 -0.15 M10.35 17.3 L10.4 15.8 10.4 17.25 10.35 17.3 M10.4 15.45 L10.45 15.45 10.45 15.8 10.4 15.45" fill="#7f6600" fill-rule="evenodd" stroke="none"/>
    <path d="M8.85 2.9 L10.05 1.25 10.05 -0.35 10.0 -0.9 10.05 -1.25 10.15 -1.3 10.15 -1.25 10.2 -1.25 10.3 -0.75 10.3 1.4 11.4 2.85 11.45 2.9 10.3 3.4 10.3 6.05 10.25 6.15 10.25 6.3 10.15 6.35 10.1 6.3 10.05 6.2 10.0 5.8 10.05 3.45 8.85 2.9 M10.1 -0.15 L10.1 1.45 10.2 1.35 10.2 1.4 10.25 1.5 10.25 -0.15 10.15 -0.25 10.1 -0.15 M10.1 1.75 L10.1 5.85 10.2 5.9 10.25 5.85 10.25 1.75 10.2 1.8 10.1 1.75 M10.65 16.9 L10.55 5.75 10.6 5.6 10.8 12.7 10.75 12.9 10.75 16.45 10.7 16.75 10.65 16.9 M9.75 5.55 L9.8 5.75 9.8 11.4 9.75 10.35 9.75 11.8 9.8 11.8 9.8 13.25 9.75 13.1 9.75 13.85 9.8 13.85 9.8 15.1 9.75 14.9 9.8 16.9 9.75 16.75 9.7 16.3 9.75 14.7 9.7 14.5 9.75 5.55" fill="#000000" fill-rule="evenodd" stroke="none"/>
    <path d="M10.0 17.25 L10.0 13.9 10.05 13.9 10.05 13.65 10.0 13.6 10.0 11.15 10.1 12.05 10.05 11.05 10.1 11.05 10.1 10.35 10.2 11.05 10.2 10.35 10.25 11.05 10.25 10.35 10.3 11.05 10.4 11.05 10.4 11.85 10.5 11.85 10.5 13.55 10.4 13.65 10.4 13.9 10.45 13.9 10.45 15.45 10.5 15.45 10.5 15.75 10.45 15.8 10.45 17.25 10.4 17.25 10.4 15.8 10.35 17.3 10.3 17.35 10.15 17.35 10.1 17.3 10.05 17.3 10.0 17.25 M10.4 15.45 L10.45 15.8 10.45 15.45 10.4 15.45" fill="#ffcc00" fill-rule="evenodd" stroke="none"/>
  </g>
</svg>
