<?xml version="1.0" encoding="UTF-8" standalone="no"?>
<svg xmlns:ffdec="https://www.free-decompiler.com/flash" xmlns:xlink="http://www.w3.org/1999/xlink" ffdec:objectType="shape" height="18.95px" width="3.5px" xmlns="http://www.w3.org/2000/svg">
  <g transform="matrix(1.0, 0.0, 0.0, 1.0, -7.9, 1.7)">
    <path d="M9.75 -0.85 L9.75 -0.9 9.8 -0.8 9.75 -0.55 9.7 -0.5 9.65 -0.2 9.65 -0.15 9.5 0.6 9.45 1.5 9.4 1.5 9.4 1.45 9.35 1.35 9.4 0.75 9.45 0.7 9.45 0.55 9.5 0.25 9.5 0.15 9.65 -0.6 9.7 -0.65 9.7 -0.8 9.7 -0.85 9.75 -0.85 M9.2 1.4 L11.4 2.9 9.95 1.1 10.0 -0.15 10.1 -0.2 10.15 -0.4 10.2 -0.8 10.2 -1.1 10.15 -1.25 10.1 -1.25 10.1 -1.7 10.3 -1.1 10.75 0.45 11.3 2.6 11.4 2.9 10.25 5.35 10.15 6.3 8.95 11.75 8.95 12.95 10.45 5.85 10.65 6.6 10.55 6.6 10.55 6.45 8.95 13.85 9.0 14.8 10.4 8.1 10.45 8.15 10.5 8.25 9.0 15.65 9.0 16.6 8.95 16.75 8.9 16.9 8.75 17.1 8.75 15.7 8.8 15.7 9.0 14.85 8.8 15.2 8.75 13.85 8.7 13.85 8.85 13.25 8.75 13.4 8.75 11.8 8.9 11.05 8.85 11.05 9.1 9.65 8.9 10.3 9.0 9.65 8.85 10.3 8.8 10.3 8.6 11.0 8.7 10.35 8.55 11.0 8.45 11.0 8.25 11.75 8.15 11.75 8.2 13.55 8.25 13.6 8.4 13.6 8.3 13.85 8.25 13.8 8.3 15.4 8.25 15.7 8.35 15.7 8.4 17.25 8.3 17.2 8.2 17.1 8.15 17.1 8.1 16.9 8.05 15.6 8.1 15.25 8.1 15.2 8.05 15.1 8.0 13.75 8.1 13.4 8.05 13.35 8.0 13.35 7.95 11.7 8.1 11.05 8.15 11.0 8.2 10.85 8.8 8.6 8.8 8.55 8.9 8.2 9.4 6.15 9.35 6.15 9.4 5.95 9.5 6.45 9.6 6.65 9.6 6.35 9.5 5.85 9.4 4.95 9.3 4.6 9.35 4.4 9.3 4.45 9.25 3.4 9.3 3.85 9.4 3.8 9.55 5.75 9.65 6.1 9.65 6.25 9.7 6.35 9.85 5.7 9.8 5.5 9.7 4.85 9.8 3.5 9.6 2.85 9.6 2.2 9.55 1.85 9.45 1.7 9.4 1.75 9.4 1.95 9.3 1.95 9.25 3.2 9.25 1.8 9.3 1.8 9.2 1.4 M9.25 16.25 L9.05 16.65 9.45 14.55 9.4 14.6 10.4 9.6 10.4 9.65 10.5 9.75 9.25 16.25 M10.0 5.95 L9.95 6.15 10.0 6.15 10.0 5.95 M9.25 3.2 L9.3 3.2 9.25 3.4 9.25 3.2 M9.85 6.35 L9.7 6.55 9.7 6.7 9.65 6.8 9.6 6.95 9.8 6.95 9.8 6.8 9.9 6.2 9.85 6.35" fill="#7f6600" fill-rule="evenodd" stroke="none"/>
    <path d="M9.75 -0.85 L9.8 -1.1 9.85 -1.1 9.85 -1.15 10.0 -1.3 10.1 -1.7 10.1 -1.25 10.15 -1.25 10.2 -1.1 10.2 -0.8 10.15 -0.4 10.1 -0.2 10.0 -0.15 9.95 1.1 11.4 2.9 9.2 1.4 9.3 1.4 9.55 -0.4 9.7 -0.8 9.7 -0.65 9.65 -0.6 9.5 0.15 9.5 0.25 9.45 0.55 9.45 0.7 9.4 0.75 9.35 1.35 9.4 1.45 9.4 1.5 9.45 1.5 9.5 0.6 9.65 -0.15 9.65 -0.2 9.7 -0.5 9.75 -0.55 9.8 -0.8 9.75 -0.9 9.75 -0.85 M10.3 -1.1 L10.4 -0.9 10.75 0.45 10.3 -1.1 M11.4 2.9 L10.75 5.2 10.85 5.7 10.9 5.8 10.9 5.85 11.05 6.45 11.05 6.5 11.15 6.65 11.4 7.4 11.4 8.1 11.3 8.2 11.25 8.3 11.4 8.6 11.4 9.25 11.35 9.3 11.15 9.4 11.4 9.7 11.35 10.3 11.35 10.4 11.3 10.5 11.05 10.5 11.25 10.75 9.25 16.25 10.5 9.75 10.4 9.65 10.4 9.6 9.4 14.6 9.0 16.6 9.0 15.65 10.5 8.25 10.45 8.15 10.4 8.1 9.0 14.8 8.95 13.85 10.55 6.45 10.55 6.6 10.65 6.6 10.45 5.85 8.95 12.95 8.95 11.75 10.15 6.3 10.25 5.35 11.4 2.9 M8.1 16.9 L8.0 16.25 8.0 15.6 8.1 15.2 8.1 15.25 8.05 15.6 8.1 16.9 M8.05 15.1 L8.0 14.9 7.95 13.75 8.05 13.35 8.1 13.4 8.0 13.75 8.05 15.1 M8.0 13.35 L7.9 12.85 7.9 11.7 8.7 8.75 8.8 8.6 8.2 10.85 8.15 11.0 8.1 11.05 7.95 11.7 8.0 13.35 M8.9 8.2 L9.4 5.85 8.9 2.9 9.2 1.4 9.3 1.8 9.25 1.8 9.25 3.2 9.25 3.4 9.3 4.45 9.35 4.4 9.3 4.6 9.4 4.95 9.5 5.85 9.6 6.35 9.6 6.65 9.5 6.45 9.4 5.95 9.35 6.15 9.4 6.15 8.9 8.2 M9.4 1.95 L9.4 1.75 9.45 1.7 9.55 1.85 9.6 2.2 9.6 2.85 9.8 3.5 9.7 4.85 9.8 5.5 9.85 5.7 9.7 6.35 9.65 6.25 9.65 6.1 9.55 5.75 9.4 3.8 9.35 3.4 9.4 1.95" fill="#000000" fill-rule="evenodd" stroke="none"/>
    <path d="M9.05 16.65 L8.95 16.75 9.0 16.6 9.4 14.6 9.45 14.55 9.05 16.65 M8.75 17.1 L8.55 17.2 8.4 17.25 8.35 15.7 8.25 15.7 8.3 15.4 8.25 13.8 8.3 13.85 8.4 13.6 8.25 13.6 8.2 13.55 8.15 11.75 8.25 11.75 8.45 11.0 8.55 11.0 8.7 10.35 8.6 11.0 8.8 10.3 8.85 10.3 9.0 9.65 8.9 10.3 9.1 9.65 8.85 11.05 8.9 11.05 8.75 11.8 8.75 13.4 8.85 13.25 8.7 13.85 8.75 13.85 8.8 15.2 9.0 14.85 8.8 15.7 8.75 15.7 8.75 17.1 M9.25 3.2 L9.3 1.95 9.4 1.95 9.35 3.4 9.4 3.8 9.3 3.85 9.25 3.4 9.3 3.2 9.25 3.2 M10.0 5.95 L10.0 6.15 9.95 6.15 10.0 5.95 M9.85 6.35 L9.9 6.2 9.8 6.8 9.8 6.95 9.6 6.95 9.65 6.8 9.7 6.7 9.7 6.55 9.85 6.35" fill="#ffcc00" fill-rule="evenodd" stroke="none"/>
  </g>
</svg>
