<?xml version="1.0" encoding="UTF-8" standalone="no"?>
<svg xmlns:ffdec="https://www.free-decompiler.com/flash" xmlns:xlink="http://www.w3.org/1999/xlink" ffdec:objectType="shape" height="18.6px" width="6.25px" xmlns="http://www.w3.org/2000/svg">
  <g transform="matrix(1.0, 0.0, 0.0, 1.0, -6.2, 1.7)">
    <path d="M8.6 1.5 L8.55 1.5 8.5 1.4 8.65 0.75 8.75 0.25 8.85 0.3 8.65 1.05 8.6 1.5 M11.35 2.95 L9.7 1.1 9.9 -0.15 10.0 -0.25 10.1 -0.45 10.15 -0.75 10.15 -1.25 10.05 -1.3 10.1 -1.7 10.25 -1.25 10.6 0.05 10.65 0.35 10.95 1.35 11.35 2.95 10.6 4.2 10.3 4.7 9.95 5.3 9.9 5.45 9.9 5.4 9.85 5.5 9.8 5.8 9.75 5.8 8.3 9.0 8.35 9.0 7.35 10.95 7.4 10.95 7.1 11.6 7.0 11.6 7.1 12.95 7.25 12.65 9.7 7.8 10.25 6.15 10.3 6.15 10.3 6.2 10.4 6.25 10.3 6.5 10.3 6.55 9.9 7.85 7.1 13.6 7.15 14.8 7.3 14.55 10.3 8.05 10.4 8.1 9.5 10.3 9.55 10.3 7.25 15.45 7.1 15.45 7.15 16.65 7.25 16.55 7.4 16.15 9.95 10.5 10.25 9.55 10.4 9.65 10.45 9.7 7.65 16.25 7.3 16.6 7.2 16.65 7.15 16.65 6.9 16.9 6.8 16.9 6.75 15.45 6.7 15.4 6.65 15.4 6.75 15.15 6.7 15.15 6.6 13.55 6.65 13.6 6.85 13.3 6.6 13.35 6.45 11.55 6.55 11.55 7.3 10.15 7.35 10.15 8.05 8.95 7.85 9.45 8.65 7.85 8.9 7.4 8.85 7.35 8.9 7.2 9.05 6.9 9.0 6.9 9.15 6.5 9.1 6.7 9.25 6.5 9.15 6.5 9.0 6.65 9.05 6.45 9.05 6.3 9.15 6.3 9.25 6.1 9.35 5.65 9.3 5.2 9.2 5.1 9.4 3.5 11.35 2.95 M8.6 5.0 L8.6 4.95 8.5 4.4 8.45 4.2 8.45 3.8 8.4 3.8 8.45 3.75 8.4 3.2 8.4 2.55 8.4 2.0 8.45 1.85 8.45 1.8 8.45 1.75 8.6 1.75 8.5 2.1 8.5 3.8 8.6 4.7 8.8 5.4 8.7 5.45 8.6 5.0 M11.1 1.5 L11.05 1.45 11.1 1.4 11.1 1.5 M8.65 7.85 L8.6 7.85 8.85 7.35 8.65 7.85" fill="#ffcc00" fill-rule="evenodd" stroke="none"/>
    <path d="M9.55 -1.1 L9.6 -1.1 9.75 -1.25 9.8 -1.25 9.95 -1.3 10.0 -1.3 10.1 -1.7 10.05 -1.3 10.15 -1.25 10.15 -0.75 10.1 -0.45 10.0 -0.25 9.9 -0.15 9.7 1.1 11.35 2.95 8.2 1.4 8.5 1.35 8.65 0.75 8.5 1.4 8.55 1.5 8.6 1.5 8.75 1.6 8.9 1.6 9.05 0.75 9.25 0.25 9.15 0.0 9.4 -0.55 9.65 -0.8 9.6 -1.05 9.55 -1.1 M10.25 -1.25 L10.4 -1.1 10.5 -1.05 10.8 -0.65 10.95 -0.35 11.2 0.35 11.4 1.45 11.55 1.5 11.45 2.4 11.4 3.9 11.1 5.35 11.3 5.85 11.35 5.9 11.55 6.25 12.45 7.45 12.45 8.15 12.4 8.25 12.4 8.3 12.35 8.3 12.2 8.35 12.15 8.35 12.4 8.65 12.4 9.4 12.3 9.5 12.15 9.5 11.95 9.4 11.0 8.65 11.0 8.7 12.4 9.75 12.35 10.45 12.35 10.55 12.3 10.6 12.0 10.6 10.5 9.65 10.45 9.6 10.3 9.5 10.25 9.55 9.95 10.5 7.4 16.15 7.4 15.4 10.5 8.4 10.45 8.2 10.4 8.1 10.3 8.05 7.3 14.55 7.35 14.3 7.35 13.6 10.0 8.05 10.5 6.55 10.5 6.4 10.65 6.7 10.7 6.65 10.85 6.85 10.9 6.8 11.05 7.0 11.1 7.0 11.25 7.15 11.35 7.15 11.2 6.95 11.4 7.15 11.0 6.65 11.25 6.9 10.9 6.35 10.95 6.3 10.9 6.2 10.75 6.0 10.5 5.5 10.3 6.1 10.3 6.15 10.25 6.15 9.7 7.8 7.25 12.65 7.3 12.4 7.3 11.6 7.55 11.05 7.5 11.05 9.45 7.2 10.3 4.7 10.6 4.2 10.6 4.25 10.65 4.3 10.8 4.5 11.1 5.35 11.35 2.95 10.95 1.35 11.0 1.35 11.05 1.45 11.1 1.5 11.2 1.55 11.05 0.65 10.65 -0.15 10.6 0.05 10.25 -1.25 M10.4 9.65 L12.2 10.85 7.95 15.9 10.5 9.9 10.45 9.8 10.45 9.7 10.4 9.65 M6.5 16.75 L6.45 16.5 6.4 15.25 6.5 15.05 6.55 15.1 6.45 15.3 6.5 16.75 M6.45 14.95 L6.4 14.9 6.35 14.7 6.3 13.6 6.35 13.55 6.3 13.5 6.4 13.25 6.45 13.3 6.35 13.5 6.35 13.55 6.45 14.95 M6.35 13.2 L6.25 12.95 6.2 11.45 8.9 6.25 8.95 6.1 8.95 6.15 8.9 6.35 8.7 6.9 8.65 6.95 6.5 11.05 6.45 11.2 6.4 11.15 6.25 11.5 6.35 13.2 M8.85 5.9 L8.75 5.65 8.7 5.45 8.65 5.45 8.6 5.0 8.7 5.45 8.85 5.9 M8.6 4.95 L8.55 4.95 8.5 4.4 8.45 4.4 8.45 4.2 8.4 4.0 8.4 3.8 8.4 3.2 8.35 2.7 8.4 2.55 8.4 3.2 8.45 3.75 8.4 3.8 8.45 3.8 8.45 4.2 8.5 4.4 8.6 4.95 M8.4 2.0 L8.4 1.95 8.45 1.8 8.45 1.85 8.4 2.0 M10.65 0.35 L10.7 0.4 10.85 0.7 10.65 0.35 M10.85 0.7 L11.05 1.4 11.0 1.35 10.85 0.7 M10.6 7.75 L10.55 7.75 10.55 7.8 10.65 7.95 10.7 7.9 10.6 7.75 M9.1 -0.5 L9.1 -0.55 9.15 -0.6 9.1 -0.5 8.95 -0.2 9.0 -0.45 9.1 -0.5 M9.55 0.15 L9.35 0.55 9.1 1.2 9.4 1.2 9.75 -0.05 9.55 0.15 M8.65 0.75 L8.7 0.35 8.75 0.25 8.65 0.75 M9.25 6.1 L9.2 6.0 9.15 5.5 9.0 5.0 8.75 3.65 8.8 2.35 8.85 1.95 8.95 2.15 8.95 2.7 9.4 3.5 9.2 5.1 9.3 5.2 9.35 5.65 9.25 6.1 M8.95 3.6 L8.95 2.9 8.9 3.6 8.95 3.6 M9.05 6.3 L9.05 6.45 9.0 6.45 9.0 6.2 9.05 6.3" fill="#000000" fill-rule="evenodd" stroke="none"/>
    <path d="M9.55 -1.1 L9.6 -1.05 9.65 -0.8 9.4 -0.55 9.15 0.0 9.25 0.25 9.05 0.75 8.9 1.6 8.75 1.6 8.6 1.5 8.65 1.05 8.85 0.3 8.75 0.25 8.95 -0.2 9.1 -0.5 9.15 -0.6 9.35 -0.9 9.55 -1.1 M8.2 1.4 L11.35 2.95 11.1 5.35 10.8 4.5 10.65 4.3 10.6 4.25 10.6 4.2 11.35 2.95 9.4 3.5 8.95 2.7 8.95 2.15 8.85 1.95 8.8 2.35 8.75 3.65 9.0 5.0 9.15 5.5 9.2 6.0 9.25 6.1 9.15 6.3 9.05 6.3 9.0 6.2 9.0 6.45 9.05 6.45 9.0 6.65 9.15 6.5 9.25 6.5 9.1 6.7 9.15 6.5 9.0 6.9 9.05 6.9 8.9 7.2 8.85 7.35 8.9 7.4 8.65 7.85 7.85 9.45 8.05 8.95 7.35 10.15 7.3 10.15 6.55 11.55 6.45 11.55 6.6 13.35 6.85 13.3 6.65 13.6 6.6 13.55 6.7 15.15 6.75 15.15 6.65 15.4 6.7 15.4 6.75 15.45 6.8 16.9 6.75 16.9 6.6 16.85 6.5 16.75 6.45 15.3 6.55 15.1 6.5 15.05 6.45 14.95 6.35 13.55 6.35 13.5 6.45 13.3 6.4 13.25 6.35 13.2 6.25 11.5 6.4 11.15 6.45 11.2 6.5 11.05 8.65 6.95 8.7 6.9 8.9 6.35 8.95 6.15 8.95 6.1 8.85 5.9 8.7 5.45 8.8 5.4 8.6 4.7 8.5 3.8 8.5 2.1 8.6 1.75 8.45 1.75 8.45 1.8 8.2 1.4 M7.95 15.9 L7.65 16.25 10.45 9.7 10.45 9.8 10.5 9.9 7.95 15.9 M10.6 0.05 L10.65 -0.15 11.05 0.65 11.2 1.55 11.1 1.5 11.1 1.4 11.05 1.45 11.0 1.35 11.05 1.4 10.85 0.7 10.7 0.4 10.65 0.35 10.6 0.05 M10.3 4.7 L9.45 7.2 7.5 11.05 7.55 11.05 7.3 11.6 7.3 12.4 7.25 12.65 7.1 12.95 7.0 11.6 7.1 11.6 7.4 10.95 7.35 10.95 8.35 9.0 8.3 9.0 9.75 5.8 9.8 5.8 9.85 5.5 9.9 5.4 9.9 5.45 9.95 5.3 10.3 4.7 M10.3 6.15 L10.3 6.1 10.5 5.5 10.75 6.0 10.9 6.2 10.95 6.3 10.9 6.35 11.25 6.9 11.0 6.65 11.4 7.15 11.2 6.95 11.35 7.15 11.25 7.15 11.1 7.0 11.05 7.0 10.9 6.8 10.85 6.85 10.7 6.65 10.65 6.7 10.5 6.4 10.5 6.55 10.0 8.05 7.35 13.6 7.35 14.3 7.3 14.55 7.15 14.8 7.1 13.6 9.9 7.85 10.3 6.55 10.3 6.5 10.4 6.25 10.3 6.2 10.3 6.15 M10.4 8.1 L10.45 8.2 10.5 8.4 7.4 15.4 7.4 16.15 7.25 16.55 7.15 16.65 7.1 15.45 7.25 15.45 9.55 10.3 9.5 10.3 10.4 8.1 M10.6 7.75 L10.7 7.9 10.65 7.95 10.55 7.8 10.55 7.75 10.6 7.75 M8.65 7.85 L8.85 7.35 8.6 7.85 8.65 7.85" fill="#7f6600" fill-rule="evenodd" stroke="none"/>
  </g>
</svg>
