<?xml version="1.0" encoding="UTF-8" standalone="no"?>
<svg xmlns:ffdec="https://www.free-decompiler.com/flash" xmlns:xlink="http://www.w3.org/1999/xlink" ffdec:objectType="shape" height="17.55px" width="10.75px" xmlns="http://www.w3.org/2000/svg">
  <g transform="matrix(1.0, 0.0, 0.0, 1.0, -3.7, 1.75)">
    <path d="M10.1 -1.7 L10.1 -1.75 10.25 -1.25 10.45 -1.25 10.75 -1.05 10.75 -1.1 11.2 -0.85 11.35 -0.65 11.5 -0.55 11.65 -0.4 11.75 -0.3 11.85 -0.1 12.0 0.05 12.05 0.15 11.85 -0.1 11.65 -0.4 11.35 -0.65 10.75 -1.05 10.25 -1.2 10.25 -1.15 10.3 -1.15 10.3 -0.9 10.55 -0.05 10.6 -0.05 10.95 1.25 11.1 2.95 10.1 -1.7 M12.95 1.5 L12.6 1.9 12.65 2.3 12.6 3.5 12.45 4.15 12.4 4.15 12.6 3.05 12.55 1.9 12.5 1.95 12.3 2.2 12.1 2.45 12.1 2.5 11.3 3.45 11.6 4.65 11.65 4.75 11.65 4.95 11.1 2.95 10.45 4.15 9.9 4.7 8.5 6.2 11.1 2.95 11.15 2.9 12.95 1.5 M11.8 5.55 L11.85 5.55 11.85 5.7 12.9 6.65 14.4 7.65 14.4 7.7 14.45 7.7 14.4 8.55 14.35 8.45 14.4 7.8 12.85 6.7 12.8 6.65 12.3 6.25 11.6 5.45 11.3 5.0 11.15 4.85 11.05 4.65 11.2 4.8 11.45 5.15 11.5 5.2 11.8 5.55 M14.4 8.65 L14.3 8.75 11.6 7.25 10.7 6.5 10.15 5.95 10.2 5.85 11.5 7.05 11.65 7.15 11.7 7.1 12.0 7.35 12.0 7.3 14.4 8.65 M10.05 6.1 L10.15 6.1 8.85 7.65 8.55 8.0 8.6 8.0 8.55 8.05 8.3 8.25 8.2 8.4 8.25 8.4 4.25 12.3 4.3 12.2 4.45 12.0 8.85 7.65 9.9 6.35 10.05 6.1 M10.35 6.25 L11.9 7.6 14.4 8.95 14.4 9.05 14.35 9.75 14.3 9.6 14.3 9.15 14.4 9.05 11.85 7.65 11.1 7.05 10.4 6.4 10.35 6.3 10.35 6.25 M14.35 9.8 L14.3 9.9 14.2 9.9 10.4 7.95 10.25 7.9 10.2 7.85 10.1 7.95 10.4 7.6 10.4 7.7 10.3 7.8 10.35 7.8 10.45 7.9 10.85 8.05 11.25 8.3 11.55 8.4 14.35 9.8 M10.25 8.05 L14.35 10.15 14.3 10.25 14.3 11.0 14.3 11.05 14.15 11.05 14.15 11.1 10.95 9.7 10.25 9.3 10.15 9.45 10.2 9.3 10.25 9.3 10.3 9.2 10.4 9.3 11.5 9.85 11.55 9.8 14.3 11.0 14.25 10.8 14.25 10.35 14.3 10.25 11.9 9.1 11.9 9.05 10.4 8.25 10.25 8.05 M10.2 9.55 L13.95 11.25 13.85 11.3 13.8 11.3 10.35 9.75 10.3 9.65 10.2 9.55 M4.2 15.8 L4.1 15.75 4.1 15.55 4.0 14.35 4.0 14.25 4.1 14.15 4.25 14.1 4.0 14.35 4.1 14.4 4.2 15.8 M4.05 14.15 L3.95 13.95 3.85 12.65 3.95 12.45 4.1 12.4 3.85 12.65 3.95 12.65 4.05 14.15 M3.9 12.45 L3.8 12.35 3.7 10.7 3.7 10.65 4.9 9.6 3.7 10.7 3.75 10.75 3.9 12.45 M6.8 7.8 L6.85 7.7 8.1 6.3 8.1 6.4 7.65 6.95 6.8 7.8 M12.6 1.9 L12.6 1.8 12.55 1.9 12.6 1.9 M4.7 15.4 L5.75 14.3 4.65 15.5 4.7 15.4 M10.1 9.5 L10.0 9.65 10.1 9.5 M9.6 -0.1 L9.3 0.0 Q9.2 0.1 9.05 0.15 L8.3 1.0 8.9 0.2 9.6 -0.2 9.6 -0.1 M8.2 1.25 L8.25 1.25 8.1 1.45 8.2 1.25 M8.4 5.0 L8.45 5.1 8.5 5.15 8.45 5.15 8.05 4.35 8.0 4.15 8.4 5.0 M6.15 13.95 L6.1 13.9 8.45 11.4 6.15 13.95 M4.5 13.85 L4.6 13.7 10.05 8.0 9.55 8.65 4.5 13.85" fill="#000000" fill-rule="evenodd" stroke="none"/>
    <path d="M12.05 0.15 L12.2 0.4 12.35 0.75 12.55 1.45 12.95 1.5 11.15 2.9 11.1 2.95 6.65 1.4 7.15 1.35 7.15 1.4 7.25 1.55 7.55 1.55 7.6 1.6 7.7 1.55 7.95 0.85 8.3 0.25 8.15 0.05 8.45 -0.3 8.8 -0.6 8.7 -0.8 8.5 -0.6 8.3 -0.45 8.25 -0.55 8.6 -0.85 8.95 -1.05 9.15 -1.1 9.25 -1.2 9.95 -1.3 9.95 -1.25 10.0 -1.3 10.1 -1.2 10.1 -1.1 10.05 -0.7 10.0 -0.5 9.85 -0.25 9.7 -0.15 9.6 -0.1 9.6 -0.2 8.9 0.2 8.3 1.0 8.2 1.25 8.1 1.45 8.25 1.25 9.35 1.15 11.1 2.95 10.95 1.25 11.85 1.35 11.85 1.45 12.0 1.55 12.15 1.6 12.05 1.3 12.0 1.4 11.95 1.4 11.8 1.05 11.6 0.75 11.5 0.55 11.25 0.25 11.15 0.3 11.0 0.15 10.6 -0.05 10.55 -0.05 10.3 -0.9 10.3 -1.15 10.25 -1.15 10.25 -1.2 10.75 -1.05 11.35 -0.65 11.65 -0.4 11.85 -0.1 12.05 0.15 M12.45 4.15 L12.45 4.3 12.1 5.1 11.8 5.55 11.5 5.2 11.45 5.15 11.2 4.8 11.05 4.65 11.15 4.85 11.3 5.0 11.6 5.45 12.3 6.25 12.8 6.65 12.85 6.7 14.4 7.8 14.35 8.45 14.4 8.55 14.4 8.65 12.0 7.3 12.0 7.35 11.7 7.1 11.65 7.15 11.5 7.05 10.2 5.85 10.15 5.95 10.05 6.1 9.9 6.35 8.85 7.65 4.45 12.0 4.65 11.6 4.6 10.9 5.6 9.9 5.55 9.9 8.2 7.3 9.7 5.15 9.65 5.1 9.9 4.7 10.45 4.15 11.1 2.95 11.65 4.95 11.65 4.75 11.75 4.6 11.85 4.7 11.95 4.45 12.2 3.6 12.3 3.05 12.3 2.2 12.5 1.95 12.55 1.9 12.6 3.05 12.4 4.15 12.45 4.15 M10.15 6.1 L10.2 6.1 10.25 6.15 9.65 6.95 9.55 7.15 8.7 8.15 4.1 12.7 4.15 12.75 4.25 14.1 4.1 14.15 4.05 14.15 3.95 12.65 3.85 12.65 4.1 12.4 3.95 12.45 3.9 12.45 3.75 10.75 3.7 10.7 4.9 9.6 5.25 9.25 6.8 7.8 7.65 6.95 8.1 6.4 8.05 6.5 8.35 6.35 7.65 7.2 7.7 7.2 5.15 9.7 5.1 9.65 3.9 10.8 3.95 10.8 4.1 12.4 4.3 12.2 4.25 12.3 8.25 8.4 8.2 8.4 8.3 8.25 8.55 8.05 8.6 8.0 8.55 8.0 8.85 7.65 10.15 6.1 M14.35 9.75 L14.35 9.8 11.55 8.4 11.25 8.3 10.85 8.05 10.45 7.9 10.35 7.8 10.3 7.8 10.4 7.7 10.4 7.6 10.1 7.95 10.05 8.0 10.15 8.0 10.25 8.05 4.15 14.45 4.3 14.5 4.4 15.75 4.35 15.75 4.3 15.8 4.2 15.8 4.1 14.4 4.0 14.35 4.25 14.1 4.5 13.85 9.55 8.65 10.05 8.0 4.6 13.7 4.7 13.5 4.65 12.8 9.2 8.2 9.15 8.2 10.4 6.5 10.4 6.4 11.1 7.05 11.85 7.65 14.4 9.05 14.3 9.15 14.3 9.6 14.35 9.75 M10.15 9.45 L10.05 9.5 10.1 9.5 10.2 9.55 6.2 13.95 6.15 13.95 4.55 15.7 4.5 15.7 4.5 15.65 4.65 15.5 5.75 14.3 4.7 15.4 4.8 15.2 4.75 14.5 8.8 10.25 8.75 10.25 10.4 8.35 10.4 8.25 11.9 9.05 11.9 9.1 14.3 10.25 14.25 10.35 14.25 10.8 14.3 11.0 11.55 9.8 11.5 9.85 10.4 9.3 10.3 9.2 10.25 9.3 10.2 9.3 10.15 9.45 M13.8 11.3 L5.65 15.2 10.4 9.9 10.35 9.75 13.8 11.3 M8.15 6.2 L8.05 6.1 8.1 6.05 8.2 6.15 8.15 6.2 M12.6 1.9 L12.55 1.9 12.6 1.8 12.6 1.9 M10.1 9.5 L10.0 9.65 10.1 9.5 M8.5 5.15 L8.5 5.4 8.45 5.85 8.35 6.0 8.0 5.55 7.95 5.05 7.55 3.9 7.5 2.6 7.6 2.0 7.75 2.15 7.85 2.4 7.85 2.6 7.85 3.55 8.0 4.15 8.05 4.35 8.45 5.15 8.5 5.15 M8.45 11.4 L6.1 13.9 6.15 13.95 8.45 11.4 9.2 10.55 8.45 11.4" fill="#7f6600" fill-rule="evenodd" stroke="none"/>
    <path d="M10.25 6.15 L10.35 6.25 10.35 6.3 10.4 6.4 10.4 6.5 9.15 8.2 9.2 8.2 4.65 12.8 4.7 13.5 4.6 13.7 4.5 13.85 4.25 14.1 4.15 12.75 4.1 12.7 8.7 8.15 9.55 7.15 9.65 6.95 10.25 6.15 M5.65 15.2 L4.85 15.6 4.55 15.7 6.15 13.95 6.2 13.95 10.2 9.55 10.3 9.65 10.35 9.75 10.4 9.9 5.65 15.2 M4.5 15.65 L4.4 15.75 4.3 14.5 4.15 14.45 10.25 8.05 10.4 8.25 10.4 8.35 8.75 10.25 8.8 10.25 4.75 14.5 4.8 15.2 4.7 15.4 4.65 15.5 4.5 15.65 M8.1 6.3 L8.15 6.2 8.2 6.15 8.1 6.05 8.05 6.1 7.75 5.7 7.25 4.8 7.1 4.3 7.0 3.7 6.95 2.55 7.05 1.8 6.65 1.4 11.1 2.95 8.5 6.2 9.9 4.7 9.65 5.1 9.7 5.15 8.2 7.3 5.55 9.9 5.6 9.9 4.6 10.9 4.65 11.6 4.45 12.0 4.3 12.2 4.1 12.4 3.95 10.8 3.9 10.8 5.1 9.65 5.15 9.7 7.7 7.2 7.65 7.2 8.35 6.35 8.05 6.5 8.1 6.4 8.1 6.3 M7.15 1.35 L7.35 0.8 7.6 0.3 7.9 -0.15 8.25 -0.55 8.3 -0.45 8.5 -0.6 8.7 -0.8 8.8 -0.6 8.45 -0.3 8.15 0.05 8.3 0.25 7.95 0.85 7.7 1.55 7.6 1.6 7.55 1.55 7.25 1.55 7.15 1.4 7.15 1.35 M10.0 -1.3 L10.1 -1.7 11.1 2.95 9.35 1.15 9.7 -0.15 9.85 -0.25 10.0 -0.5 10.05 -0.7 10.1 -1.1 10.1 -1.2 10.0 -1.3 M11.15 0.3 L11.25 0.25 11.5 0.55 11.6 0.75 11.8 1.05 11.95 1.4 12.0 1.4 12.05 1.3 12.15 1.6 12.0 1.55 11.85 1.45 11.85 1.35 11.7 1.1 11.5 0.65 11.15 0.3 M12.3 2.2 L12.3 3.05 12.2 3.6 11.95 4.45 11.85 4.7 11.75 4.6 11.65 4.75 11.6 4.65 11.8 4.25 12.0 3.55 12.1 2.5 12.1 2.45 12.3 2.2 M7.85 2.6 L7.85 2.4 7.75 2.15 7.6 2.0 7.5 2.6 7.55 3.9 7.95 5.05 8.0 5.55 8.35 6.0 8.45 5.85 8.5 5.4 8.5 5.15 8.45 5.1 8.4 5.0 8.75 3.45 7.85 2.6" fill="#ffcc00" fill-rule="evenodd" stroke="none"/>
  </g>
</svg>
