<?xml version="1.0" encoding="UTF-8" standalone="no"?>
<svg xmlns:ffdec="https://www.free-decompiler.com/flash" xmlns:xlink="http://www.w3.org/1999/xlink" ffdec:objectType="shape" height="16.8px" width="12.35px" xmlns="http://www.w3.org/2000/svg">
  <g transform="matrix(1.0, 0.0, 0.0, 1.0, -3.0, 1.7)">
    <path d="M10.25 -1.25 L10.55 -1.2 10.8 -1.1 10.95 -1.1 11.05 -1.0 11.4 -0.85 11.65 -0.65 12.0 -0.4 12.25 -0.05 12.45 0.2 12.8 0.85 12.85 0.95 12.85 1.0 13.0 1.45 13.55 1.5 10.9 3.0 11.1 1.25 12.15 1.35 12.25 1.45 12.5 1.55 12.75 1.6 12.6 1.1 12.35 0.6 11.95 0.1 11.3 -0.4 11.0 -0.8 10.6 -0.95 10.3 -1.0 10.25 -1.2 10.25 -1.25 M13.2 2.85 L13.2 2.95 13.15 3.25 13.15 3.3 13.05 3.8 13.05 3.75 13.0 3.95 12.75 4.7 12.5 5.15 12.15 5.6 12.1 5.6 12.0 5.25 12.05 5.25 12.45 4.7 12.65 4.25 12.8 3.7 12.9 2.85 12.9 2.1 12.85 2.05 13.1 1.8 13.1 1.9 13.15 2.3 13.2 2.85 M15.3 8.85 L15.3 8.95 12.35 7.45 12.3 7.45 10.95 6.5 10.75 6.3 10.2 5.85 10.35 5.7 10.75 6.1 10.95 6.25 11.0 6.25 11.45 6.6 11.55 6.7 11.6 6.65 11.9 6.9 11.95 6.8 11.65 6.55 11.4 6.4 11.45 6.35 11.2 6.1 11.65 5.45 11.2 5.0 10.8 4.4 10.35 4.15 10.9 3.0 12.1 5.65 11.15 4.7 12.5 6.15 15.3 8.0 15.25 8.75 15.3 8.85 M10.1 6.05 L10.25 6.2 8.7 7.85 3.35 12.2 3.45 12.2 3.5 13.45 3.35 13.5 3.2 12.1 3.15 12.1 7.95 8.3 8.35 7.9 8.5 7.8 8.65 7.65 8.85 7.45 8.9 7.4 8.95 7.35 9.55 6.75 10.1 6.05 M15.25 9.3 L15.25 9.35 15.2 10.15 10.5 7.9 10.3 7.75 10.35 7.6 3.7 13.2 3.85 12.95 10.35 7.5 10.35 7.6 10.55 7.75 10.9 7.85 11.15 8.0 11.2 8.0 10.9 7.8 11.15 7.25 10.95 7.1 10.9 7.0 10.35 6.6 10.35 6.35 10.4 6.35 11.05 6.9 11.2 7.05 12.2 7.75 15.25 9.3 M10.1 8.0 L10.25 8.05 8.15 9.95 8.1 9.95 3.4 13.8 3.55 13.85 3.65 15.05 3.55 15.1 3.5 15.1 3.4 13.8 3.3 13.7 6.8 10.75 7.1 10.55 7.9 9.85 10.1 8.0 M15.2 10.55 L15.2 10.6 15.15 10.6 15.1 11.25 15.15 11.35 11.75 9.9 11.7 9.9 10.25 9.25 10.4 9.05 10.2 9.25 10.15 9.25 8.25 11.1 10.05 9.5 10.2 9.55 10.15 9.6 4.1 14.85 3.95 15.0 3.85 15.05 3.8 15.05 3.75 14.95 5.5 13.45 3.8 14.85 4.0 14.55 10.35 9.0 10.35 8.25 10.25 8.15 10.3 8.15 12.15 9.1 12.2 9.15 15.2 10.55 M14.7 11.6 L7.2 14.0 6.6 14.2 6.1 14.35 4.7 14.75 5.15 14.55 8.05 13.6 8.0 13.6 9.2 12.5 8.0 12.1 10.3 11.45 9.2 11.05 10.35 10.0 10.3 9.7 14.7 11.6 M3.3 11.8 L3.25 11.85 3.15 11.9 3.05 10.25 3.2 10.15 7.15 7.05 7.1 7.05 7.75 6.4 8.05 6.2 8.45 5.85 8.1 6.25 6.8 7.5 6.85 7.55 6.3 7.95 6.25 8.0 5.1 8.85 5.7 8.35 3.2 10.3 3.15 10.35 3.2 10.35 3.3 11.8 M7.8 6.1 L7.7 6.0 7.75 5.95 7.9 6.1 7.8 6.1 M6.1 1.45 L6.7 1.35 6.8 1.5 7.0 1.55 7.35 1.55 7.55 1.5 8.0 0.65 8.45 0.2 8.75 -0.05 8.85 0.15 9.15 -0.05 9.65 -0.25 9.75 -0.25 9.75 -0.15 9.65 -0.15 8.95 0.1 8.25 0.7 8.25 0.65 7.75 1.4 7.85 1.4 7.9 1.25 9.2 1.15 10.9 3.0 6.1 1.45 M8.35 -0.8 L8.8 -1.05 8.9 -1.05 9.1 -1.2 9.3 -1.2 9.8 -1.3 10.0 -1.25 10.0 -1.3 10.05 -1.25 10.0 -1.2 9.75 -1.2 9.3 -1.15 8.75 -0.95 8.6 -0.85 8.4 -0.75 8.35 -0.8 M10.6 -0.15 L11.15 0.05 11.1 0.1 10.65 -0.1 10.6 -0.15 M3.5 11.65 L3.65 11.4 7.85 8.05 7.8 8.0 8.25 7.7 10.35 5.45 10.35 5.65 10.3 5.7 9.15 7.0 3.5 11.65 M8.45 0.2 L8.55 0.35 8.85 0.15 8.45 0.2 M8.1 4.95 L8.2 5.15 8.2 5.4 8.05 5.2 7.45 4.2 7.3 3.55 7.3 2.4 7.35 2.2 7.5 2.4 7.45 2.55 7.45 2.8 7.45 3.25 7.5 3.4 7.55 3.85 7.65 4.2 7.9 4.65 8.1 5.0 8.1 4.95 M6.3 7.95 L6.8 7.5 6.25 7.95 6.3 7.95" fill="#7f6600" fill-rule="evenodd" stroke="none"/>
    <path d="M10.1 -1.7 L10.25 -1.25 10.25 -1.2 10.3 -1.0 10.3 -0.9 10.55 -0.2 10.6 -0.15 10.65 -0.1 11.1 1.25 10.9 3.0 13.55 1.5 13.1 1.9 13.15 2.05 13.15 2.3 13.2 2.35 13.2 2.85 13.15 2.3 13.1 1.9 13.1 1.8 12.85 2.05 12.55 2.35 12.5 2.5 12.45 2.55 11.55 3.45 11.9 4.7 11.95 4.8 11.95 5.1 12.0 5.25 12.1 5.6 12.15 5.6 12.5 5.15 12.75 4.7 12.65 4.95 12.5 5.15 12.15 5.65 12.2 5.75 12.65 6.2 13.3 6.65 13.4 6.7 15.35 7.9 15.3 8.85 15.25 8.75 15.3 8.0 12.5 6.15 11.15 4.7 12.1 5.65 10.9 3.0 10.35 4.15 9.75 4.7 9.6 4.75 8.45 5.85 8.05 6.2 10.9 3.0 10.1 -1.7 M10.95 -1.1 L11.4 -0.9 11.65 -0.65 11.8 -0.6 12.0 -0.4 11.65 -0.65 11.4 -0.85 11.05 -1.0 10.95 -1.1 M12.25 -0.05 L12.4 0.05 12.6 0.3 12.8 0.85 12.45 0.2 12.25 -0.05 M12.85 0.95 L13.05 1.35 13.0 1.45 12.85 1.0 12.85 0.95 M13.05 3.8 L13.0 3.95 13.05 3.75 13.05 3.8 M15.3 8.95 L15.25 9.0 15.2 9.0 12.0 7.35 10.35 6.1 10.15 5.9 9.1 7.1 10.1 6.05 9.55 6.75 8.95 7.35 9.1 7.1 7.95 8.15 7.95 8.1 3.45 11.7 3.5 11.65 9.15 7.0 10.3 5.7 10.35 5.7 10.2 5.85 10.75 6.3 10.95 6.5 12.3 7.45 12.35 7.45 15.3 8.95 M10.3 6.2 L11.2 6.95 11.45 7.2 12.15 7.65 15.3 9.2 15.25 9.3 12.2 7.75 11.2 7.05 11.05 6.9 10.4 6.35 10.35 6.35 10.25 6.25 10.3 6.2 M15.2 10.15 L15.2 10.25 10.75 8.1 10.45 8.0 10.45 7.95 10.2 7.85 10.05 8.0 10.1 8.0 7.9 9.85 8.85 9.0 6.8 10.75 3.3 13.7 3.4 13.8 3.5 15.1 3.4 15.05 3.3 13.7 3.3 13.65 3.5 13.45 3.7 13.2 10.35 7.6 10.3 7.75 10.5 7.9 15.2 10.15 M10.25 8.05 L15.15 10.45 15.2 10.45 15.2 10.55 12.2 9.15 12.15 9.1 10.3 8.15 10.25 8.1 10.25 8.05 M15.2 10.6 L15.15 11.35 15.15 11.4 15.1 11.45 10.75 9.6 10.25 9.3 10.2 9.3 10.0 9.5 10.05 9.5 8.25 11.1 10.15 9.25 10.2 9.25 10.4 9.05 10.25 9.25 11.7 9.9 11.75 9.9 15.15 11.35 15.1 11.25 15.15 10.6 15.2 10.6 M10.2 9.55 L14.75 11.55 14.8 11.6 14.7 11.6 10.3 9.7 10.2 9.55 M6.1 14.35 L4.65 14.8 4.7 14.75 6.1 14.35 M3.75 14.95 L3.7 15.0 3.8 14.85 5.5 13.45 3.75 14.95 M3.35 13.5 L3.25 13.45 3.15 12.1 3.15 12.0 8.35 7.9 7.95 8.3 3.15 12.1 3.2 12.1 3.35 13.5 M8.65 7.65 L8.75 7.5 8.85 7.45 8.65 7.65 M3.15 11.9 L3.1 11.8 3.0 10.2 7.5 6.6 7.75 6.25 7.75 6.4 7.1 7.05 7.15 7.05 3.2 10.15 3.05 10.25 3.15 11.9 M8.25 0.7 L8.0 1.05 7.9 1.25 7.85 1.4 7.75 1.4 8.25 0.65 8.25 0.7 M7.5 2.4 L7.5 2.6 7.45 2.8 7.45 2.55 7.5 2.4 M7.5 3.4 L7.7 4.25 7.9 4.65 8.1 4.95 8.1 5.0 7.9 4.65 7.65 4.2 7.55 3.85 7.5 3.4 M9.95 8.1 L10.0 8.05 9.95 8.05 9.95 8.1" fill="#000000" fill-rule="evenodd" stroke="none"/>
    <path d="M10.0 -1.3 L10.1 -1.7 10.9 3.0 9.2 1.15 9.65 -0.15 9.75 -0.15 9.75 -0.25 9.65 -0.25 9.15 -0.05 8.85 0.15 8.75 -0.05 8.45 0.2 8.0 0.65 7.55 1.5 7.35 1.55 7.0 1.55 6.8 1.5 6.7 1.35 7.2 0.35 7.9 -0.5 7.95 -0.5 8.35 -0.8 8.4 -0.75 8.6 -0.85 8.75 -0.95 9.3 -1.15 9.75 -1.2 10.0 -1.2 10.05 -1.25 10.0 -1.3 M10.25 6.2 L10.3 6.2 10.25 6.25 10.35 6.35 10.35 6.6 10.9 7.0 10.95 7.1 11.15 7.25 10.9 7.8 11.2 8.0 11.15 8.0 10.9 7.85 10.55 7.75 10.35 7.6 10.35 7.5 3.85 12.95 3.7 13.2 3.5 13.45 3.45 12.2 3.35 12.2 8.7 7.85 10.25 6.2 M4.65 14.8 L4.0 15.0 3.95 15.0 4.1 14.85 10.15 9.6 10.2 9.55 10.3 9.7 10.35 10.0 9.2 11.05 10.3 11.45 8.0 12.1 9.2 12.5 8.0 13.6 8.05 13.6 5.15 14.55 4.7 14.75 4.65 14.8 M3.7 15.0 L3.65 15.05 3.55 13.85 3.4 13.8 8.1 9.95 8.15 9.95 10.25 8.05 10.25 8.1 10.3 8.15 10.25 8.15 10.35 8.25 10.35 9.0 4.0 14.55 3.8 14.85 3.7 15.0 M3.45 11.7 L3.3 11.8 3.2 10.35 3.15 10.35 3.2 10.3 5.7 8.35 5.1 8.85 6.25 8.0 6.3 7.95 6.85 7.55 6.8 7.5 8.1 6.25 8.45 5.85 9.6 4.75 9.75 4.7 10.35 4.15 10.8 4.4 11.2 5.0 11.65 5.45 11.2 6.1 11.45 6.35 11.4 6.4 11.65 6.55 11.95 6.8 11.9 6.9 11.6 6.65 11.55 6.7 11.45 6.6 11.0 6.25 10.95 6.25 10.75 6.1 10.35 5.7 10.3 5.7 10.35 5.65 10.35 5.45 8.25 7.7 7.8 8.0 7.85 8.05 3.65 11.4 3.5 11.65 3.45 11.7 M7.75 6.25 L7.8 6.1 7.9 6.1 7.75 5.95 7.7 6.0 7.35 5.65 6.95 5.05 6.85 4.75 6.8 4.65 6.7 4.55 6.65 4.2 6.65 4.15 6.55 4.0 6.55 3.65 6.5 3.65 6.5 3.6 6.45 3.1 6.6 1.8 6.1 1.45 10.9 3.0 8.05 6.2 7.75 6.4 7.75 6.25 M10.3 -1.0 L10.6 -0.95 11.0 -0.8 11.3 -0.4 11.95 0.1 12.35 0.6 12.6 1.1 12.75 1.6 12.5 1.55 12.25 1.45 12.15 1.35 12.05 1.1 11.85 0.8 11.25 0.2 11.1 0.1 11.15 0.05 10.6 -0.15 10.55 -0.2 10.3 -0.9 10.3 -1.0 M12.85 2.05 L12.9 2.1 12.9 2.85 12.8 3.7 12.65 4.25 12.45 4.7 12.05 5.25 12.0 5.25 11.95 5.1 11.95 4.8 11.9 4.7 12.15 4.3 12.35 3.75 12.45 3.05 12.45 2.55 12.5 2.5 12.55 2.35 12.85 2.05 M8.45 0.2 L8.85 0.15 8.55 0.35 8.45 0.2 M8.1 4.95 L8.5 3.45 7.5 2.6 7.5 2.4 7.35 2.2 7.3 2.4 7.3 3.55 7.45 4.2 8.05 5.2 8.2 5.4 8.2 5.15 8.1 4.95 M6.3 7.95 L6.25 7.95 6.8 7.5 6.3 7.95" fill="#ffcc00" fill-rule="evenodd" stroke="none"/>
  </g>
</svg>
