<?xml version="1.0" encoding="UTF-8" standalone="no"?>
<svg xmlns:ffdec="https://www.free-decompiler.com/flash" xmlns:xlink="http://www.w3.org/1999/xlink" ffdec:objectType="shape" height="16.1px" width="13.45px" xmlns="http://www.w3.org/2000/svg">
  <g transform="matrix(1.0, 0.0, 0.0, 1.0, -2.55, 1.7)">
    <path d="M11.55 3.45 L12.45 6.05 13.65 6.9 15.8 8.05 16.0 8.2 15.95 8.25 15.8 8.1 13.6 6.95 12.65 6.3 12.45 6.1 12.3 6.0 11.9 5.6 11.75 5.5 11.0 4.7 11.65 5.3 11.9 5.6 11.9 5.55 12.35 5.95 10.5 2.95 11.55 3.45 M15.95 8.3 L15.95 9.35 15.85 9.35 12.15 7.5 11.4 7.05 10.0 6.0 8.2 7.65 7.75 7.95 8.55 7.3 10.1 5.8 10.15 5.8 10.05 5.9 11.2 6.8 12.1 7.4 15.95 9.35 15.85 9.15 15.95 8.3 M4.65 10.05 L2.9 11.25 2.9 11.2 4.65 10.05 M2.75 11.35 L2.7 11.35 2.55 9.85 2.55 9.8 7.3 6.45 7.65 6.2 7.5 6.35 7.3 6.45 7.3 6.55 6.25 7.35 6.15 7.5 2.75 9.75 2.55 9.85 2.65 9.9 2.75 11.35 M10.1 6.35 L10.1 6.3 10.0 6.2 9.25 6.95 8.95 7.15 8.3 7.8 2.75 11.55 2.8 11.6 2.9 12.85 2.85 12.85 2.75 11.55 2.75 11.45 8.95 7.15 8.9 7.15 10.0 6.15 10.0 6.2 11.0 6.95 11.2 7.15 10.1 6.35 M3.05 12.8 L3.05 12.75 9.25 8.45 10.05 7.8 10.15 7.75 10.1 7.8 10.1 7.85 10.4 8.0 10.3 8.0 10.2 7.95 10.05 7.9 3.05 12.8 M15.8 9.75 L15.9 9.65 12.25 7.9 11.55 7.4 12.3 7.85 15.9 9.55 15.9 9.65 15.85 10.55 15.8 10.45 15.8 9.75 M11.45 7.35 L11.2 7.15 11.4 7.25 11.45 7.35 M3.05 14.35 L3.0 14.4 2.9 13.1 2.85 13.0 10.0 8.0 10.0 8.05 15.8 10.85 15.8 10.9 15.75 11.05 15.75 11.0 15.8 10.9 10.1 8.2 10.1 8.15 10.0 8.05 2.9 13.1 2.95 13.2 3.05 14.35 M15.75 11.15 L15.75 11.9 12.6 10.45 15.7 11.8 15.75 11.15 M11.55 10.0 L10.1 9.35 10.15 9.35 10.05 9.3 10.0 9.3 10.1 9.25 11.55 10.0 M3.7 13.95 L3.15 14.3 3.2 14.25 3.7 13.95 M15.85 10.55 L15.85 10.65 11.75 8.65 11.8 8.65 15.85 10.55" fill="#000000" fill-rule="evenodd" stroke="none"/>
    <path d="M10.0 -1.7 L11.1 1.25 13.85 1.5 11.55 3.45 10.5 2.95 10.0 -1.7 M15.95 8.25 L15.95 8.3 15.85 9.15 15.95 9.35 12.1 7.4 11.2 6.8 10.05 5.9 10.15 5.8 10.75 6.35 11.45 6.85 11.5 6.8 11.75 7.0 11.85 7.05 12.6 7.55 12.65 7.5 15.8 9.05 15.75 8.95 15.75 8.4 15.45 8.25 15.5 8.2 13.35 7.0 12.65 6.5 13.2 6.85 12.45 6.3 11.0 4.85 10.65 4.4 10.1 4.1 7.25 6.75 2.75 9.85 2.7 9.95 2.8 9.95 2.9 11.2 3.0 11.0 8.15 7.5 10.15 5.65 10.1 5.8 8.55 7.3 7.75 7.95 7.55 8.05 4.65 10.05 2.9 11.2 2.9 11.25 2.75 11.35 2.65 9.9 2.55 9.85 2.75 9.75 6.15 7.5 6.25 7.35 7.3 6.55 7.3 6.45 7.5 6.35 7.65 6.2 7.3 6.45 7.35 6.4 10.5 2.95 12.35 5.95 11.9 5.55 11.9 5.6 11.65 5.3 11.0 4.7 11.75 5.5 11.9 5.6 12.3 6.0 12.45 6.1 12.65 6.3 13.6 6.95 15.8 8.1 15.95 8.25 M2.9 12.85 L2.8 11.6 2.75 11.55 8.3 7.8 8.95 7.15 9.25 6.95 10.0 6.2 10.1 6.3 10.1 6.35 8.45 7.9 2.85 11.65 2.95 11.7 3.05 12.75 3.05 12.8 2.9 12.85 M10.1 6.35 L11.2 7.15 11.45 7.35 11.55 7.4 12.25 7.9 15.9 9.65 15.8 9.75 12.05 7.95 10.3 6.65 10.35 6.65 10.15 6.5 10.1 6.35 M10.4 8.0 L10.1 7.85 10.1 7.8 10.15 7.75 10.05 7.8 9.25 8.45 3.05 12.75 3.25 12.5 10.05 7.7 10.15 7.6 10.15 7.75 11.9 8.55 11.95 8.55 15.7 10.3 15.65 10.25 15.7 9.8 15.8 9.75 15.8 10.45 15.85 10.55 11.8 8.65 11.75 8.65 11.25 8.45 10.4 8.0 11.75 8.65 10.4 8.0 M15.75 11.05 L15.75 11.15 15.7 11.8 12.6 10.45 11.55 10.0 10.1 9.25 10.0 9.3 10.05 9.3 4.15 13.6 Q3.9 13.75 3.7 13.95 L3.2 14.25 3.15 14.3 3.05 14.4 3.05 14.35 2.95 13.2 2.9 13.1 10.0 8.05 10.1 8.15 2.95 13.2 3.15 13.25 3.25 14.2 3.4 14.0 9.05 10.0 10.1 9.1 10.15 9.1 10.15 9.15 10.3 9.2 11.1 9.65 11.85 10.0 11.9 10.0 15.65 11.6 12.3 10.1 13.55 10.6 11.95 9.9 15.55 11.1 12.15 9.6 13.6 10.2 10.8 8.9 13.45 10.05 12.2 9.45 12.2 9.4 10.15 8.35 10.1 8.2 15.8 10.9 15.75 11.0 15.75 11.05" fill="#7f6600" fill-rule="evenodd" stroke="none"/>
    <path d="M7.35 6.4 L8.2 3.4 5.7 1.45 8.95 1.15 10.0 -1.7 10.5 2.95 7.35 6.4 M2.9 11.2 L2.8 9.95 2.7 9.95 2.75 9.85 7.25 6.75 10.1 4.1 10.65 4.4 11.0 4.85 12.45 6.3 13.2 6.85 12.65 6.5 13.35 7.0 15.5 8.2 15.45 8.25 15.75 8.4 15.75 8.95 15.8 9.05 12.65 7.5 12.6 7.55 11.85 7.05 11.75 7.0 11.5 6.8 11.45 6.85 10.75 6.35 10.15 5.8 10.1 5.8 10.15 5.65 8.15 7.5 3.0 11.0 2.9 11.2 M3.05 12.75 L2.95 11.7 2.85 11.65 8.45 7.9 10.1 6.35 10.15 6.5 10.35 6.65 10.3 6.65 12.05 7.95 15.8 9.75 15.7 9.8 15.65 10.25 15.7 10.3 11.95 8.55 11.9 8.55 10.15 7.75 10.15 7.6 10.05 7.7 3.25 12.5 3.05 12.75 M10.1 8.15 L10.1 8.2 10.15 8.35 12.2 9.4 12.2 9.45 13.45 10.05 10.8 8.9 13.6 10.2 12.15 9.6 15.55 11.1 11.95 9.9 13.55 10.6 12.3 10.1 15.65 11.6 11.9 10.0 11.85 10.0 11.1 9.65 10.3 9.2 10.15 9.15 10.15 9.1 10.1 9.1 9.05 10.0 3.4 14.0 3.25 14.2 3.15 13.25 2.95 13.2 10.1 8.15" fill="#ffcc00" fill-rule="evenodd" stroke="none"/>
  </g>
</svg>
