<?xml version="1.0" encoding="UTF-8" standalone="no"?>
<svg xmlns:ffdec="https://www.free-decompiler.com/flash" xmlns:xlink="http://www.w3.org/1999/xlink" ffdec:objectType="shape" height="15.4px" width="14.1px" xmlns="http://www.w3.org/2000/svg">
  <g transform="matrix(1.0, 0.0, 0.0, 1.0, -2.55, 1.7)">
    <path d="M12.65 6.15 L13.85 7.0 16.5 8.4 16.65 8.5 16.65 8.55 16.55 9.75 13.3 8.05 16.5 9.65 16.6 8.65 16.65 8.55 16.5 8.5 13.9 7.1 13.8 7.0 13.0 6.5 12.8 6.3 12.75 6.3 12.65 6.15 12.6 6.2 12.05 5.65 12.65 6.15 M12.25 7.5 L11.5 7.1 10.1 6.05 10.0 5.95 9.25 6.6 10.0 5.9 10.0 5.85 10.05 5.8 10.05 5.95 11.3 6.85 11.45 7.0 12.25 7.5 M8.35 7.3 L7.55 7.9 2.65 10.8 2.55 9.4 2.55 9.35 6.4 7.0 7.2 6.35 7.6 6.05 6.45 7.0 2.55 9.4 2.6 9.45 2.7 10.7 2.8 10.65 7.55 7.85 8.35 7.3 M16.5 10.15 L16.5 10.1 16.55 10.0 12.3 7.9 11.55 7.4 10.05 6.3 10.0 6.2 8.15 7.8 2.75 11.0 2.7 11.0 2.75 10.95 8.15 7.75 9.05 7.0 10.0 6.15 10.0 6.2 10.2 6.3 11.5 7.3 11.55 7.4 12.35 7.9 16.55 9.95 16.55 10.0 16.45 11.05 16.5 10.15 M2.75 11.05 L2.8 11.15 2.85 12.25 2.95 12.15 4.25 11.4 2.85 12.25 2.8 12.25 2.75 11.05 M9.6 8.1 L10.0 7.8 16.45 11.05 16.45 11.1 10.4 8.05 10.15 7.95 10.0 7.85 9.6 8.1 M10.0 8.05 L16.45 11.25 16.45 11.35 16.35 12.4 11.15 9.95 10.05 9.3 9.6 9.65 10.05 9.25 11.8 10.2 11.85 10.2 16.35 12.3 16.4 11.45 16.45 11.35 10.05 8.15 10.0 8.05 M9.3 9.8 L9.3 9.85 5.95 11.95 7.0 11.25 3.0 13.65 2.95 13.7 2.85 12.55 2.9 12.55 2.9 12.6 3.0 13.65 3.15 13.55 8.2 10.45 9.0 9.95 9.05 9.95 Q9.2 9.9 9.3 9.8 M2.85 12.5 L2.85 12.4 6.45 10.25 2.85 12.5" fill="#000000" fill-rule="evenodd" stroke="none"/>
    <path d="M10.0 -1.7 L11.15 1.25 14.25 1.5 11.7 3.5 12.65 6.15 12.75 6.3 12.8 6.3 13.0 6.5 13.8 7.0 13.9 7.1 16.5 8.5 16.65 8.55 16.6 8.65 16.5 9.65 13.3 8.05 12.25 7.5 11.45 7.0 11.3 6.85 10.05 5.95 10.05 5.8 10.0 5.85 10.0 5.9 9.25 6.6 8.35 7.3 7.55 7.85 2.8 10.65 2.7 10.7 2.6 9.45 2.55 9.4 6.45 7.0 7.6 6.05 7.2 6.35 10.25 3.0 10.0 -1.7 M8.0 5.7 L7.6 6.05 8.0 5.7 M10.05 4.15 L9.5 4.5 8.75 5.1 8.2 5.7 6.0 7.45 3.2 9.1 3.25 9.15 2.7 9.45 2.65 9.5 2.7 9.5 2.8 10.65 2.95 10.45 8.35 7.2 10.05 5.7 10.05 5.8 10.65 6.25 10.8 6.4 11.5 6.9 11.5 6.85 11.8 7.1 16.4 9.5 16.45 8.7 16.5 8.65 16.5 8.6 13.75 7.15 13.7 7.1 12.9 6.55 12.8 6.5 11.1 4.95 10.85 4.6 10.65 4.45 10.05 4.15 M2.75 11.0 L8.15 7.8 10.0 6.2 10.05 6.3 11.55 7.4 12.3 7.9 16.55 10.0 16.5 10.1 16.5 10.15 16.35 10.05 12.25 8.0 13.35 8.55 11.75 7.7 10.2 6.55 10.05 6.4 10.05 6.35 9.1 7.2 7.65 8.25 2.8 11.15 2.75 11.05 2.75 11.0 M16.5 10.15 L16.45 11.05 10.0 7.8 9.6 8.1 9.05 8.5 7.15 9.65 5.2 10.8 4.65 11.15 4.25 11.4 2.95 12.15 2.85 12.25 2.8 11.15 2.95 11.2 3.0 12.05 3.05 12.0 10.05 7.7 10.05 7.75 10.45 7.95 10.5 8.0 11.4 8.45 11.5 8.45 16.35 10.85 16.4 10.2 16.5 10.15 M9.6 8.1 L7.15 9.65 9.6 8.1 M12.65 6.15 L12.05 5.65 12.6 6.2 12.65 6.15 M16.35 10.05 L16.35 10.85 16.3 10.75 16.35 10.05 M9.6 9.65 L9.4 9.75 9.3 9.8 Q9.2 9.9 9.05 9.95 L9.0 9.95 8.2 10.45 10.05 9.15 10.2 9.25 16.2 12.1 16.25 11.55 16.35 11.45 11.6 9.2 13.9 10.25 10.05 8.3 10.05 8.15 2.9 12.6 3.05 12.65 3.15 13.55 3.2 13.35 8.15 10.4 8.2 10.45 3.15 13.55 3.0 13.65 2.9 12.6 2.9 12.55 2.85 12.55 2.85 12.5 6.45 10.25 10.0 8.05 10.05 8.15 16.45 11.35 16.4 11.45 16.35 12.3 11.85 10.2 11.8 10.2 10.05 9.25 9.6 9.65" fill="#7f6600" fill-rule="evenodd" stroke="none"/>
    <path d="M7.2 6.35 L8.1 3.35 5.55 1.45 8.9 1.15 10.0 -1.7 10.25 3.0 7.2 6.35 M10.05 4.15 L10.65 4.45 10.85 4.6 11.1 4.95 12.8 6.5 12.9 6.55 13.7 7.1 13.75 7.15 16.5 8.6 16.5 8.65 16.45 8.7 16.4 9.5 11.8 7.1 11.5 6.85 11.5 6.9 10.8 6.4 10.65 6.25 10.05 5.8 10.05 5.7 8.35 7.2 2.95 10.45 2.8 10.65 2.7 9.5 2.65 9.5 2.7 9.45 3.25 9.15 3.2 9.1 6.0 7.45 8.2 5.7 8.75 5.1 9.5 4.5 10.05 4.15 M2.8 11.15 L7.65 8.25 9.1 7.2 10.05 6.35 10.05 6.4 10.2 6.55 11.75 7.7 13.35 8.55 12.25 8.0 16.35 10.05 16.5 10.15 16.4 10.2 16.35 10.85 11.5 8.45 11.4 8.45 10.5 8.0 10.45 7.95 10.05 7.75 10.05 7.7 3.05 12.0 3.0 12.05 2.95 11.2 2.8 11.15 M16.35 10.05 L16.3 10.75 16.35 10.85 16.35 10.05 M10.05 8.15 L10.05 8.3 13.9 10.25 11.6 9.2 16.35 11.45 16.25 11.55 16.2 12.1 10.2 9.25 10.05 9.15 8.2 10.45 8.15 10.4 3.2 13.35 3.15 13.55 3.05 12.65 2.9 12.6 10.05 8.15" fill="#ffcc00" fill-rule="evenodd" stroke="none"/>
  </g>
</svg>
