<?xml version="1.0" encoding="UTF-8" standalone="no"?>
<svg xmlns:ffdec="https://www.free-decompiler.com/flash" xmlns:xlink="http://www.w3.org/1999/xlink" ffdec:objectType="shape" height="14.7px" width="14.35px" xmlns="http://www.w3.org/2000/svg">
  <g transform="matrix(1.0, 0.0, 0.0, 1.0, -2.85, 1.7)">
    <path d="M13.15 6.5 L17.0 8.8 17.2 8.9 17.2 8.95 17.1 10.25 12.6 7.85 11.85 7.3 12.7 7.85 17.05 10.15 17.15 9.0 17.2 8.95 14.25 7.35 13.15 6.5 M11.1 6.75 L10.1 6.05 10.0 5.95 9.6 6.25 9.35 6.5 9.35 6.4 9.6 6.25 10.0 5.9 10.15 6.05 11.1 6.75 M8.9 6.8 L8.1 7.4 Q5.55 8.85 2.95 10.25 L2.85 8.95 2.85 8.9 6.7 6.65 5.85 7.3 2.85 8.95 2.9 9.0 2.95 10.15 8.05 7.4 8.9 6.8 M12.45 6.0 L11.9 5.6 11.85 5.5 12.45 6.0 M12.45 8.0 L11.7 7.6 10.5 6.7 10.45 6.6 10.0 6.25 8.5 7.45 7.5 8.0 8.8 7.15 8.9 7.05 10.0 6.15 10.75 6.8 10.8 6.85 12.45 8.0 M6.4 8.6 L2.95 10.5 3.0 10.6 3.05 11.55 10.0 7.8 11.8 8.85 11.85 8.85 16.9 11.55 17.0 10.6 17.05 10.5 14.45 9.05 17.0 10.4 17.05 10.5 16.95 11.65 10.8 8.35 10.0 7.85 8.75 8.6 8.6 8.65 3.05 11.65 2.95 10.5 2.95 10.4 6.4 8.6 M16.9 11.95 L16.85 13.0 11.0 9.95 10.0 9.3 9.95 9.35 9.3 9.75 9.9 9.35 10.0 9.25 16.8 12.95 16.85 12.0 16.9 11.95 M4.05 12.55 L3.15 13.0 3.05 11.85 3.05 11.8 10.0 8.05 16.9 11.8 16.9 11.85 10.0 8.1 3.05 11.85 3.1 11.95 3.2 12.95 4.05 12.55" fill="#000000" fill-rule="evenodd" stroke="none"/>
    <path d="M5.5 1.5 L10.0 3.0 14.35 1.45 11.9 3.35 12.8 6.25 12.45 6.0 12.8 6.25 12.8 6.3 13.15 6.5 14.25 7.35 17.2 8.95 17.15 9.0 17.05 10.15 12.7 7.85 11.85 7.3 11.6 7.15 11.1 6.75 11.85 7.3 11.1 6.75 10.15 6.05 10.0 5.9 9.6 6.25 9.35 6.4 9.35 6.5 9.3 6.5 8.9 6.8 8.05 7.4 2.95 10.15 2.9 9.0 2.85 8.95 5.85 7.3 6.7 6.65 7.25 6.25 7.9 5.75 7.25 6.25 7.9 5.75 7.25 6.25 8.25 3.5 5.5 1.5 M11.1 4.85 L10.0 4.15 9.35 4.5 8.9 4.85 8.4 5.4 8.35 5.5 6.5 7.0 5.15 7.8 5.2 7.8 3.0 9.0 2.95 9.05 3.05 9.1 3.1 9.95 6.05 8.45 4.5 9.3 7.2 7.85 8.25 7.15 9.3 6.35 9.35 6.3 10.0 5.75 11.55 7.0 12.55 7.65 16.9 9.95 17.0 9.1 17.1 9.05 14.0 7.3 13.2 6.75 11.5 5.3 11.1 4.85 M12.45 6.0 L11.85 5.5 11.9 5.6 12.45 6.0 12.8 6.3 12.45 6.0 M7.5 8.0 L8.5 7.45 10.0 6.25 10.45 6.6 10.5 6.7 11.7 7.6 12.45 8.0 13.6 8.6 14.45 9.05 17.05 10.5 17.0 10.6 12.4 8.15 10.2 6.6 10.0 6.4 9.8 6.55 9.65 6.7 8.9 7.3 7.7 8.05 3.0 10.6 3.15 10.65 3.2 11.4 8.45 8.6 8.55 8.5 8.8 8.35 8.85 8.4 10.0 7.75 11.0 8.3 11.1 8.4 11.15 8.35 16.8 11.4 16.85 10.65 17.0 10.6 16.9 11.55 11.85 8.85 11.8 8.85 10.0 7.8 3.05 11.55 3.0 10.6 2.95 10.5 6.4 8.6 7.5 8.0 M16.9 11.95 L16.85 12.0 16.8 12.95 10.0 9.25 9.9 9.35 9.3 9.75 8.95 9.9 4.65 12.2 4.3 12.4 4.05 12.55 3.2 12.95 3.1 11.95 3.05 11.85 10.0 8.1 16.9 11.85 16.9 11.95 M16.85 12.0 L12.35 9.6 12.4 9.6 10.0 8.2 3.15 12.0 3.25 12.05 3.3 12.8 9.8 9.3 10.0 9.15 16.65 12.8 16.75 12.05 16.85 12.0" fill="#7f6600" fill-rule="evenodd" stroke="none"/>
    <path d="M5.5 1.5 L8.8 1.25 10.0 -1.7 11.1 1.1 11.15 1.15 14.35 1.45 10.0 3.0 5.5 1.5 M11.1 4.85 L11.5 5.3 13.2 6.75 14.0 7.3 17.1 9.05 17.0 9.1 16.9 9.95 12.55 7.65 11.55 7.0 10.0 5.75 9.35 6.3 9.3 6.35 8.25 7.15 7.2 7.85 4.5 9.3 6.05 8.45 3.1 9.95 3.05 9.1 2.95 9.05 3.0 9.0 5.2 7.8 5.15 7.8 6.5 7.0 8.35 5.5 8.4 5.4 8.9 4.85 9.35 4.5 10.0 4.15 11.1 4.85 M3.0 10.6 L7.7 8.05 8.9 7.3 9.65 6.7 9.8 6.55 10.0 6.4 10.2 6.6 12.4 8.15 17.0 10.6 16.85 10.65 16.8 11.4 11.15 8.35 11.1 8.4 11.0 8.3 10.0 7.75 8.85 8.4 8.8 8.35 8.55 8.5 8.45 8.6 3.2 11.4 3.15 10.65 3.0 10.6 M16.85 12.0 L16.75 12.05 16.65 12.8 10.0 9.15 9.8 9.3 3.3 12.8 3.25 12.05 3.15 12.0 10.0 8.2 12.4 9.6 12.35 9.6 16.85 12.0" fill="#ffcc00" fill-rule="evenodd" stroke="none"/>
  </g>
</svg>
