<?xml version="1.0" encoding="UTF-8" standalone="no"?>
<svg xmlns:ffdec="https://www.free-decompiler.com/flash" xmlns:xlink="http://www.w3.org/1999/xlink" ffdec:objectType="shape" height="16.05px" width="13.5px" xmlns="http://www.w3.org/2000/svg">
  <g transform="matrix(1.0, 0.0, 0.0, 1.0, -3.95, 1.7)">
    <path d="M10.0 -1.7 L9.5 2.95 12.65 6.4 12.7 6.45 12.7 6.55 13.55 7.15 13.95 7.45 14.4 7.75 17.4 9.8 17.45 9.8 17.4 9.85 17.25 11.3 17.15 11.15 11.4 7.3 10.4 6.35 9.9 5.8 9.95 5.9 9.5 6.3 8.0 7.35 7.95 7.35 4.05 9.35 4.1 9.15 4.0 8.35 3.95 8.25 5.75 7.3 6.35 6.95 7.4 6.25 8.1 5.6 7.65 5.95 9.5 2.95 9.35 3.0 8.45 3.45 6.1 1.5 8.9 1.25 9.05 0.95 10.0 -1.7 M11.45 5.4 L9.85 4.15 9.45 4.3 9.0 4.8 8.9 4.9 8.55 5.35 7.3 6.5 6.2 7.2 6.25 7.25 4.85 8.0 4.9 8.0 4.2 8.35 4.15 8.4 4.2 8.4 4.2 8.95 4.15 9.1 Q4.75 8.8 5.3 8.55 L4.7 8.85 Q6.05 8.2 7.35 7.5 L7.4 7.55 8.5 6.85 8.55 6.85 8.7 6.75 9.9 5.8 9.85 5.65 10.4 6.15 10.3 6.2 16.95 10.95 17.15 11.15 17.25 9.95 17.35 9.9 13.8 7.55 11.95 6.0 11.45 5.4 M10.0 6.15 L11.35 7.5 12.2 8.1 15.35 10.2 17.25 11.5 17.2 11.55 17.1 12.85 16.95 12.75 17.0 12.7 17.05 11.65 17.15 11.6 11.9 8.1 9.9 6.3 9.95 6.25 10.0 6.15 M16.8 14.2 L16.9 13.25 17.1 13.15 9.9 8.2 9.85 8.35 Q8.85 8.9 7.8 9.4 L7.8 9.45 4.25 11.1 4.35 11.15 8.05 9.9 5.55 11.1 6.0 10.9 4.25 11.7 8.1 10.0 8.15 10.0 9.85 9.15 9.85 9.1 9.9 9.1 16.65 13.95 16.75 14.15 16.2 13.8 9.95 9.3 10.0 9.3 9.9 9.25 9.0 9.7 9.1 9.7 8.65 9.9 8.2 10.1 6.2 11.0 4.2 11.85 4.25 11.8 4.25 11.7 4.2 11.05 4.15 10.95 7.75 9.25 9.9 8.2 10.0 8.05 17.15 13.05 17.1 13.15 17.0 14.35 16.8 14.2 M9.85 7.75 L9.9 7.7 9.85 7.65 16.75 12.45 17.0 12.7 9.85 7.75 9.9 7.85 9.6 8.0 9.55 8.0 9.25 8.2 8.75 8.45 9.25 8.2 8.75 8.45 8.7 8.4 8.65 8.5 8.6 8.5 8.1 8.75 7.9 8.85 7.7 8.95 5.9 9.8 4.1 10.6 4.15 10.55 4.1 9.75 4.05 9.65 8.6 7.4 9.55 6.55 9.9 6.35 9.85 6.5 9.4 6.85 9.4 6.9 7.85 8.0 4.15 9.8 4.25 9.85 4.3 10.3 6.35 9.35 4.75 10.15 8.05 8.55 8.1 8.6 8.6 8.35 9.45 7.95 9.5 7.95 9.85 7.75 M8.1 5.6 L8.85 4.85 8.1 5.55 8.1 5.6 M8.1 8.75 L8.65 8.5 8.1 8.75 M8.65 9.9 L9.1 9.7 8.65 9.9" fill="#7f6600" fill-rule="evenodd" stroke="none"/>
    <path d="M12.7 6.45 L13.1 6.8 13.55 7.15 12.7 6.55 12.7 6.45 M14.4 7.75 L17.4 9.7 17.45 9.75 17.45 9.8 17.3 11.3 17.25 11.3 11.8 7.65 12.15 7.85 11.4 7.3 17.15 11.15 17.25 11.3 17.4 9.85 17.45 9.8 17.4 9.8 14.4 7.75 M10.4 6.35 L10.0 5.95 9.85 6.05 9.4 6.45 7.85 7.5 4.1 9.4 4.05 9.35 3.95 8.25 3.95 8.2 5.75 7.3 3.95 8.25 4.0 8.35 4.1 9.15 4.05 9.35 7.95 7.35 8.0 7.35 9.5 6.3 9.95 5.9 9.9 5.8 10.4 6.35 M6.35 6.95 L7.55 6.05 8.45 3.45 9.35 3.0 9.5 2.95 7.65 5.95 8.1 5.6 7.4 6.25 6.35 6.95 M12.2 8.1 L11.35 7.5 10.0 6.15 12.2 8.1 M9.95 6.25 L9.9 6.3 9.9 6.35 9.55 6.55 8.6 7.4 4.05 9.65 4.05 9.6 8.55 7.35 8.85 7.05 9.0 6.95 9.7 6.4 9.95 6.25 M17.0 12.7 L16.95 12.75 9.95 7.9 9.85 7.95 9.6 8.0 9.9 7.85 9.85 7.75 17.0 12.7 M17.1 12.85 L17.2 11.55 17.25 11.5 15.35 10.2 17.25 11.45 17.3 11.5 17.25 11.5 17.15 12.8 17.1 12.85 M16.75 14.15 L16.8 14.2 16.2 13.8 16.75 14.15 M9.95 9.3 L9.1 9.7 9.0 9.7 9.9 9.25 10.0 9.3 9.95 9.3 M6.2 11.0 L4.2 11.9 4.2 11.85 4.15 10.95 4.15 10.85 10.0 8.05 10.0 8.0 17.15 13.0 17.15 13.05 17.05 14.35 17.0 14.35 17.1 13.15 17.15 13.05 10.0 8.05 9.9 8.2 7.75 9.25 4.15 10.95 4.2 11.05 4.25 11.7 4.25 11.8 4.2 11.85 6.2 11.0 M8.1 5.6 L8.1 5.55 8.85 4.85 8.1 5.6 M8.75 8.45 L8.65 8.5 8.7 8.4 8.75 8.45 M5.9 9.8 L4.1 10.65 4.1 10.6 4.05 9.65 4.1 9.75 4.15 10.55 4.1 10.6 5.9 9.8 M9.25 8.2 L9.55 8.0 9.6 8.0 9.25 8.2" fill="#000000" fill-rule="evenodd" stroke="none"/>
    <path d="M10.0 -1.7 L11.05 1.15 14.35 1.45 11.8 3.4 12.65 6.4 9.5 2.95 10.0 -1.7 M11.45 5.4 L11.95 6.0 13.8 7.55 17.35 9.9 17.25 9.95 17.15 11.15 16.95 10.95 10.3 6.2 10.4 6.15 9.85 5.65 9.9 5.8 8.7 6.75 8.55 6.85 8.5 6.85 7.4 7.55 7.35 7.5 Q6.05 8.2 4.7 8.85 L5.3 8.55 Q4.75 8.8 4.15 9.1 L4.2 8.95 4.2 8.4 4.15 8.4 4.2 8.35 4.9 8.0 4.85 8.0 6.25 7.25 6.2 7.2 7.3 6.5 8.55 5.35 8.9 4.9 9.0 4.8 9.45 4.3 9.85 4.15 11.45 5.4 M9.9 6.3 L11.9 8.1 17.15 11.6 17.05 11.65 17.0 12.7 16.75 12.45 9.85 7.65 9.9 7.7 9.85 7.75 9.5 7.95 9.45 7.95 8.6 8.35 8.1 8.6 8.05 8.55 4.75 10.15 6.35 9.35 4.3 10.3 4.25 9.85 4.15 9.8 7.85 8.0 9.4 6.9 9.4 6.85 9.85 6.5 9.9 6.35 9.9 6.3 M16.75 14.15 L16.65 13.95 9.9 9.1 9.85 9.1 9.85 9.15 8.15 10.0 8.1 10.0 4.25 11.7 6.0 10.9 5.55 11.1 8.05 9.9 4.35 11.15 4.25 11.1 7.8 9.45 7.8 9.4 Q8.85 8.9 9.85 8.35 L9.9 8.2 17.1 13.15 16.9 13.25 16.8 14.2 16.75 14.15" fill="#ffcc00" fill-rule="evenodd" stroke="none"/>
  </g>
</svg>
