<?xml version="1.0" encoding="UTF-8" standalone="no"?>
<svg xmlns:ffdec="https://www.free-decompiler.com/flash" xmlns:xlink="http://www.w3.org/1999/xlink" ffdec:objectType="shape" height="16.75px" width="12.4px" xmlns="http://www.w3.org/2000/svg">
  <g transform="matrix(1.0, 0.0, 0.0, 1.0, -4.75, 1.7)">
    <path d="M9.3 2.95 L10.95 1.15 14.05 1.45 9.3 2.95 9.7 4.05 9.8 4.1 9.8 4.15 9.75 4.15 9.5 4.3 8.05 6.05 8.0 6.15 8.45 6.7 8.2 6.85 7.9 7.1 7.95 7.15 8.25 6.95 8.35 6.95 9.25 6.25 9.4 6.15 9.8 5.8 9.95 5.95 8.9 6.8 8.55 7.0 8.5 7.1 7.85 7.5 7.8 7.5 4.8 9.0 4.8 8.95 4.85 8.85 4.8 8.1 4.75 8.0 4.8 8.0 6.8 6.85 7.95 5.95 8.35 5.55 9.0 4.7 9.0 4.65 8.4 5.4 7.9 5.9 9.3 2.95 6.6 1.5 9.05 1.25 9.3 2.95 M16.95 11.85 L16.8 11.85 16.75 11.75 16.85 10.4 16.95 10.35 13.3 7.6 13.4 7.6 12.55 6.85 11.45 5.65 12.35 6.45 12.4 6.5 12.45 6.5 12.5 6.6 12.65 6.7 12.6 6.75 12.65 6.75 13.65 7.7 17.05 10.25 16.95 11.85 M9.85 5.75 L9.8 5.7 9.8 5.55 11.9 7.75 11.85 7.75 16.5 11.4 16.65 11.6 11.45 7.5 9.85 5.75 M12.9 8.85 L14.15 9.8 15.55 10.9 16.95 12.05 16.85 12.1 16.75 13.45 16.7 13.45 16.6 13.4 16.7 12.2 16.8 12.15 11.4 7.95 10.1 6.55 10.15 6.55 9.9 6.25 10.0 6.15 10.95 7.2 10.85 7.15 11.45 7.65 11.65 7.85 12.9 8.85 M4.9 10.2 L4.9 9.75 4.85 9.4 4.85 9.35 7.95 7.8 8.9 7.15 9.1 6.95 9.75 6.45 9.8 6.4 9.8 6.6 8.7 7.55 8.7 7.6 8.75 8.05 8.9 8.0 8.75 8.1 8.8 8.15 9.15 8.0 9.2 8.0 9.75 7.7 9.8 7.55 16.25 12.9 16.4 13.15 16.45 13.2 9.8 7.75 9.85 7.85 Q7.4 9.05 4.9 10.2 M16.45 14.95 L16.55 13.85 16.7 13.75 12.05 9.95 12.0 10.0 9.9 8.15 9.95 8.05 10.0 8.05 16.8 13.65 16.75 13.75 16.65 15.05 16.55 15.05 16.45 14.95 M9.85 8.2 L9.8 8.35 9.8 8.5 8.05 9.4 9.8 8.55 9.8 8.95 9.35 9.2 9.25 9.3 9.4 9.2 9.45 9.25 9.8 9.1 9.8 9.05 16.15 14.5 16.3 14.8 14.7 13.45 14.15 12.95 11.95 11.1 11.3 10.55 11.15 10.4 10.7 10.05 10.6 9.95 11.15 10.4 10.6 9.95 9.8 9.15 9.85 9.3 9.8 9.35 4.95 11.45 4.95 11.4 5.0 11.3 4.95 10.65 4.9 10.65 4.9 10.6 7.95 9.2 7.95 9.15 9.85 8.2" fill="#7f6600" fill-rule="evenodd" stroke="none"/>
    <path d="M10.0 -1.7 L10.95 1.15 9.3 2.95 10.0 -1.7 M14.05 1.45 L11.65 3.4 12.45 6.45 12.45 6.5 12.4 6.5 12.35 6.45 9.3 2.95 14.05 1.45 M9.8 4.15 L11.3 5.45 11.45 5.65 12.55 6.85 13.4 7.6 13.3 7.6 16.95 10.35 16.85 10.4 16.75 11.75 16.65 11.6 16.5 11.4 11.85 7.75 11.9 7.75 9.8 5.55 9.8 5.7 9.85 5.75 9.8 5.8 9.4 6.15 9.25 6.25 8.35 6.95 8.25 6.95 7.95 7.15 7.9 7.1 8.2 6.85 8.45 6.7 8.0 6.15 8.05 6.05 9.5 4.3 9.75 4.15 9.8 4.15 M16.6 13.4 L16.5 13.3 16.45 13.2 16.4 13.15 16.25 12.9 9.8 7.55 9.75 7.7 9.2 8.0 9.15 8.0 8.8 8.15 8.75 8.1 8.9 8.0 8.75 8.05 8.7 7.6 8.7 7.55 9.8 6.6 9.8 6.4 9.9 6.35 9.85 6.3 9.9 6.25 10.15 6.55 10.1 6.55 11.4 7.95 16.8 12.15 16.7 12.2 16.6 13.4 M9.9 8.15 L12.0 10.0 12.05 9.95 16.7 13.75 16.55 13.85 16.45 14.95 16.35 14.9 16.3 14.8 16.15 14.5 9.8 9.05 9.8 9.1 9.45 9.25 9.4 9.2 9.25 9.3 9.35 9.2 9.8 8.95 9.8 8.55 8.05 9.4 9.8 8.5 9.8 8.35 9.85 8.2 9.85 8.15 9.9 8.2 9.9 8.15" fill="#ffcc00" fill-rule="evenodd" stroke="none"/>
    <path d="M10.0 -1.7 L9.3 2.95 12.35 6.45 11.45 5.65 11.3 5.45 9.8 4.15 9.8 4.1 9.7 4.05 9.3 2.95 7.9 5.9 8.4 5.4 9.0 4.65 9.0 4.7 8.35 5.55 7.95 5.95 6.8 6.85 4.8 8.0 4.75 8.0 4.8 7.95 Q5.8 7.4 6.75 6.8 L7.65 6.1 7.75 6.05 7.9 5.9 8.6 3.45 6.6 1.5 9.3 2.95 9.05 1.25 10.0 -1.7 M12.45 6.45 L17.1 10.2 17.15 10.2 17.0 11.85 16.95 11.85 17.05 10.25 13.65 7.7 12.65 6.75 12.6 6.75 12.65 6.7 12.5 6.6 12.45 6.5 12.45 6.45 M16.75 11.75 L11.7 7.8 11.45 7.5 11.05 7.2 10.0 6.0 9.95 6.05 9.45 6.4 8.95 6.85 8.15 7.4 4.9 9.05 4.85 9.05 4.8 9.0 7.8 7.5 7.85 7.5 8.5 7.1 8.55 7.0 8.9 6.8 9.95 5.95 9.8 5.8 9.85 5.75 11.45 7.5 16.65 11.6 16.75 11.75 M4.8 8.95 L4.75 8.0 4.8 8.1 4.85 8.85 4.8 8.95 M10.0 6.15 L10.1 6.2 11.45 7.65 10.85 7.15 10.95 7.2 10.0 6.15 M15.55 10.9 L16.95 12.0 16.95 12.05 16.85 13.4 16.8 13.5 16.75 13.45 16.85 12.1 16.95 12.05 15.55 10.9 M16.5 13.3 L10.6 8.45 10.45 8.35 9.95 7.9 9.85 7.95 9.7 8.0 4.95 10.25 4.9 10.25 4.9 10.2 Q7.4 9.05 9.85 7.85 L9.8 7.75 16.45 13.2 16.5 13.3 M4.85 9.35 L4.8 9.25 8.25 7.55 9.85 6.3 9.9 6.35 9.8 6.4 9.75 6.45 9.1 6.95 8.9 7.15 7.95 7.8 4.85 9.35 M16.65 15.05 L16.75 13.75 16.8 13.65 16.7 14.95 16.65 15.05 M9.95 8.05 L9.9 8.15 9.9 8.2 9.85 8.15 9.85 8.2 7.95 9.15 7.95 9.2 4.9 10.6 4.9 10.5 9.95 8.05 M16.3 14.8 L16.35 14.9 14.7 13.45 16.3 14.8 M10.6 9.95 L9.9 9.35 9.85 9.35 8.8 9.9 5.0 11.5 4.95 11.45 9.8 9.35 9.85 9.3 9.8 9.15 10.6 9.95 M4.95 11.4 L4.9 10.65 4.95 10.65 5.0 11.3 4.95 11.4" fill="#000000" fill-rule="evenodd" stroke="none"/>
  </g>
</svg>
