<?xml version="1.0" encoding="UTF-8" standalone="no"?>
<svg xmlns:ffdec="https://www.free-decompiler.com/flash" xmlns:xlink="http://www.w3.org/1999/xlink" ffdec:objectType="shape" height="17.45px" width="10.8px" xmlns="http://www.w3.org/2000/svg">
  <g transform="matrix(1.0, 0.0, 0.0, 1.0, -5.65, 1.7)">
    <path d="M10.8 1.15 L13.55 1.4 9.1 2.95 10.8 1.15 M16.25 12.4 L16.2 12.45 16.15 12.4 16.05 12.4 16.1 12.15 16.2 10.85 16.25 10.8 15.05 9.7 15.0 9.7 12.45 7.3 12.5 7.25 11.3 5.8 11.85 6.35 12.05 6.55 12.05 6.6 12.15 6.6 12.1 6.5 12.85 7.4 16.4 10.75 16.25 12.4 M16.1 14.1 L16.05 14.1 15.9 14.05 16.0 12.7 16.05 12.7 11.1 7.85 10.35 6.9 10.0 6.35 9.9 6.25 9.9 6.2 10.0 6.15 10.8 7.15 10.85 7.2 11.3 7.75 11.2 7.75 11.6 8.05 11.55 8.05 11.9 8.45 16.25 12.6 16.2 12.65 16.1 14.1 M15.95 15.7 L15.9 15.75 15.75 15.7 15.85 14.4 16.0 14.4 11.75 10.05 11.7 10.1 9.9 8.1 10.0 8.05 15.75 13.9 15.9 14.05 16.15 14.3 16.05 14.35 15.95 15.7 M5.7 8.75 L5.7 8.5 5.7 7.9 7.75 6.35 8.35 5.75 8.6 5.45 8.65 5.35 8.75 5.25 8.95 4.9 8.95 4.95 9.05 4.75 9.0 4.8 8.3 5.7 8.2 5.8 8.25 5.65 9.1 2.95 7.15 1.5 9.2 1.25 9.1 2.95 9.7 4.15 10.0 4.45 10.8 5.8 13.15 8.55 14.05 9.35 13.4 8.85 15.15 10.5 11.95 8.15 15.05 11.15 13.35 9.6 15.6 11.75 15.75 12.05 11.85 8.25 9.75 5.65 9.8 5.8 9.9 5.95 9.05 6.8 9.0 6.8 8.8 6.95 8.7 7.0 8.55 7.15 8.5 7.15 8.45 7.2 8.15 7.4 8.1 7.4 5.7 8.75 M10.4 7.6 L11.1 8.45 15.5 12.8 15.45 13.45 15.55 13.65 9.75 7.65 9.8 7.8 9.85 7.85 8.6 8.5 8.6 8.45 7.2 9.2 7.5 9.0 5.75 9.85 5.75 9.15 5.7 9.1 8.3 7.75 8.95 7.25 9.75 6.45 9.7 6.6 10.4 7.6 10.15 7.3 10.4 7.6 M9.75 8.3 L9.75 8.4 11.4 10.25 11.35 10.3 15.4 14.5 15.35 15.1 15.45 15.3 9.75 9.1 9.75 9.15 9.85 9.25 9.8 9.3 9.3 9.55 9.25 9.55 8.6 9.85 8.55 9.85 5.8 11.05 5.8 10.4 5.75 10.3 9.75 8.3 M9.1 4.7 L9.3 4.4 9.1 4.7" fill="#7f6600" fill-rule="evenodd" stroke="none"/>
    <path d="M12.1 6.45 L12.95 7.45 16.45 10.7 16.35 12.3 16.25 12.4 16.4 10.75 12.85 7.4 12.1 6.5 12.1 6.45 M16.2 12.45 L16.3 12.55 16.3 12.6 16.2 13.9 16.1 14.1 16.2 12.65 16.25 12.6 11.9 8.45 11.55 8.05 11.6 8.05 11.2 7.75 11.3 7.75 10.85 7.2 10.8 7.15 10.0 6.15 9.95 6.05 9.3 6.7 8.8 7.1 5.9 8.75 5.85 8.8 5.75 8.8 5.7 8.75 8.1 7.4 8.15 7.4 8.45 7.2 8.5 7.15 8.55 7.15 8.7 7.0 8.8 6.95 9.0 6.8 9.05 6.8 9.9 5.95 9.8 5.8 9.75 5.65 11.85 8.25 15.75 12.05 15.85 12.15 16.05 12.4 16.15 12.4 16.2 12.45 M16.05 14.1 L16.15 14.2 16.15 14.3 16.05 15.55 16.0 15.7 15.95 15.7 16.05 14.35 16.15 14.3 15.9 14.05 16.05 14.1 M15.5 15.45 L10.45 10.05 10.35 9.9 9.9 9.35 9.85 9.4 5.9 11.1 5.85 11.1 5.8 11.05 5.75 10.3 5.75 10.2 5.8 10.2 9.8 8.15 9.75 8.3 5.75 10.3 5.8 10.4 5.8 11.05 8.55 9.85 8.6 9.85 9.25 9.55 9.3 9.55 9.8 9.3 9.85 9.25 9.75 9.15 9.75 9.1 15.45 15.3 15.5 15.45 M10.0 8.05 L9.9 7.95 9.85 7.95 5.9 9.95 5.75 9.95 5.75 9.85 5.7 9.1 5.7 9.0 5.75 9.0 8.35 7.6 8.7 7.35 8.9 7.15 9.05 7.05 9.8 6.3 9.75 6.4 9.75 6.45 8.95 7.25 8.3 7.75 5.7 9.1 5.75 9.15 5.75 9.85 7.5 9.0 7.2 9.2 8.6 8.45 8.6 8.5 9.85 7.85 9.8 7.8 9.75 7.65 15.55 13.65 15.75 13.9 10.0 8.05 M5.7 8.5 L5.65 7.75 7.6 6.4 7.9 6.15 8.2 5.8 8.3 5.7 9.0 4.8 9.05 4.75 8.95 4.95 8.95 4.9 8.75 5.25 8.65 5.35 8.6 5.45 8.35 5.75 7.75 6.35 5.7 7.9 5.7 8.5 M8.25 5.65 L8.85 3.4 7.15 1.5 9.1 2.95 8.25 5.65 M9.2 1.25 L10.0 -1.7 10.0 -1.65 9.1 2.95 11.85 6.35 11.3 5.8 10.0 4.45 9.7 4.15 9.1 2.95 9.2 1.25 M9.1 4.7 L9.3 4.4 9.1 4.7" fill="#000000" fill-rule="evenodd" stroke="none"/>
    <path d="M13.55 1.4 L11.4 3.45 12.1 6.45 12.1 6.5 12.15 6.6 12.05 6.6 12.05 6.55 11.85 6.35 9.1 2.95 13.55 1.4 M15.75 15.7 L15.5 15.45 15.45 15.3 15.35 15.1 15.4 14.5 11.35 10.3 11.4 10.25 9.75 8.4 9.75 8.3 9.8 8.15 9.9 8.1 11.7 10.1 11.75 10.05 16.0 14.4 15.85 14.4 15.75 15.7 M9.8 6.3 L9.9 6.25 10.0 6.35 10.35 6.9 11.1 7.85 16.05 12.7 16.0 12.7 15.9 14.05 15.75 13.9 15.55 13.65 15.45 13.45 15.5 12.8 11.1 8.45 10.4 7.6 9.7 6.6 9.75 6.45 9.75 6.4 9.8 6.3 M10.0 -1.65 L10.8 1.15 9.1 2.95 10.0 -1.65 M10.0 4.45 L11.3 5.8 12.5 7.25 12.45 7.3 15.0 9.7 15.05 9.7 16.25 10.8 16.2 10.85 16.1 12.15 16.05 12.4 15.85 12.15 15.75 12.05 15.6 11.75 13.35 9.6 15.05 11.15 11.95 8.15 15.15 10.5 13.4 8.85 14.05 9.35 13.15 8.55 10.8 5.8 10.0 4.45" fill="#ffcc00" fill-rule="evenodd" stroke="none"/>
  </g>
</svg>
