<?xml version="1.0" encoding="UTF-8" standalone="no"?>
<svg xmlns:ffdec="https://www.free-decompiler.com/flash" xmlns:xlink="http://www.w3.org/1999/xlink" ffdec:objectType="shape" height="18.05px" width="8.8px" xmlns="http://www.w3.org/2000/svg">
  <g transform="matrix(1.0, 0.0, 0.0, 1.0, -6.6, 1.7)">
    <path d="M8.9 2.95 L10.65 1.15 12.85 1.4 11.1 3.45 8.9 2.95 9.7 4.15 9.95 4.45 10.05 4.65 10.25 5.15 10.95 6.5 12.75 8.95 12.7 9.0 14.55 11.3 14.5 12.3 10.7 7.4 9.7 5.6 9.7 5.75 9.9 6.05 9.45 6.55 9.4 6.55 9.0 6.95 8.75 7.15 8.75 7.1 8.5 7.35 8.45 7.3 6.65 8.5 7.75 7.7 6.6 8.5 6.6 8.35 6.65 8.15 6.65 7.75 8.15 6.4 8.8 5.5 9.35 4.45 9.4 4.3 9.3 4.4 9.1 4.8 9.05 4.95 8.6 5.7 8.9 3.1 8.9 2.95 M15.25 12.85 L15.15 12.9 15.1 12.95 15.25 13.1 15.2 13.3 15.1 14.6 15.05 14.6 15.0 14.65 15.15 14.85 15.05 14.85 15.0 16.3 14.85 16.35 14.75 16.35 14.85 14.95 14.95 14.9 9.9 8.1 9.95 8.05 10.0 8.1 10.3 8.6 14.45 14.2 14.65 14.45 14.75 14.55 14.85 14.6 14.9 13.8 14.9 14.65 15.0 13.15 11.35 8.6 11.4 8.6 11.05 8.15 11.1 8.15 10.05 6.55 9.9 6.25 9.95 6.2 10.0 6.2 10.7 7.5 14.5 12.35 14.8 12.75 15.05 12.9 15.15 11.25 11.65 6.95 11.7 6.95 11.15 6.05 11.65 6.65 11.7 6.7 11.65 6.45 12.1 7.15 12.25 7.3 12.2 7.3 15.4 11.15 15.35 11.15 15.25 12.85 M14.35 15.9 L12.15 12.75 11.4 11.7 10.5 10.4 10.55 10.4 9.7 9.0 9.7 9.15 9.75 9.2 9.75 9.25 9.35 9.5 9.3 9.5 8.8 9.75 8.75 9.7 6.7 10.7 6.7 10.6 8.65 9.6 6.85 10.15 8.55 9.15 8.55 9.1 Q9.15 8.75 9.7 8.35 L9.7 8.3 10.6 9.65 10.25 9.15 10.15 9.0 9.7 8.35 10.15 9.0 10.25 9.15 14.35 15.0 14.4 15.0 14.35 15.9 M6.7 9.65 L6.65 9.6 6.65 9.45 8.6 8.2 6.7 9.0 6.65 8.95 Q7.6 8.4 8.5 7.8 L9.15 7.2 9.15 7.15 9.65 6.6 9.7 6.45 10.0 6.95 9.95 7.0 10.75 8.3 14.5 13.25 13.45 11.9 14.45 13.25 14.5 13.25 14.45 14.15 9.65 7.55 9.7 7.7 9.8 7.85 9.75 7.85 9.6 8.0 9.5 8.0 9.45 8.05 9.25 8.15 9.2 8.15 6.7 9.65" fill="#7f6600" fill-rule="evenodd" stroke="none"/>
    <path d="M9.3 1.3 L8.9 2.95 8.9 3.1 7.8 1.5 9.3 1.3 M11.65 6.3 L12.4 7.45 15.4 11.1 15.4 11.15 15.3 12.65 15.3 12.75 15.25 12.85 15.35 11.15 15.4 11.15 12.2 7.3 12.25 7.3 12.1 7.15 11.65 6.45 11.65 6.3 M15.15 12.9 L15.3 13.05 15.2 14.15 15.2 14.35 15.15 14.5 15.1 14.6 15.2 13.3 15.25 13.1 15.1 12.95 15.15 12.9 M15.05 14.6 L15.15 14.75 15.15 14.85 15.1 16.0 15.05 16.2 15.0 16.3 15.05 14.85 15.15 14.85 15.0 14.65 15.05 14.6 M10.5 10.4 L9.85 9.4 9.85 9.45 8.2 10.3 8.4 10.15 6.9 10.85 6.8 10.85 6.7 10.8 6.7 10.7 8.75 9.7 8.8 9.75 9.3 9.5 9.35 9.5 9.75 9.25 9.75 9.2 9.7 9.15 9.7 9.0 10.55 10.4 10.5 10.4 M6.7 10.6 L6.7 9.95 9.75 8.2 9.7 8.3 9.7 8.35 Q9.15 8.75 8.55 9.1 L8.55 9.15 6.85 10.15 8.65 9.6 6.7 10.6 M9.95 8.05 L9.9 8.0 9.8 8.0 9.45 8.25 6.85 9.7 6.7 9.7 6.7 9.65 9.2 8.15 9.25 8.15 9.45 8.05 9.5 8.0 9.6 8.0 9.75 7.85 9.8 7.85 9.7 7.7 9.65 7.55 14.45 14.15 14.45 14.2 10.3 8.6 10.0 8.1 9.95 8.05 M6.65 9.45 L6.65 8.95 6.65 8.8 8.65 7.55 9.05 7.15 9.1 7.05 8.8 7.3 6.95 8.5 6.85 8.55 6.7 8.55 6.65 8.5 6.6 8.5 7.75 7.7 6.65 8.5 8.45 7.3 8.5 7.35 8.75 7.1 8.75 7.15 9.0 6.95 9.4 6.55 9.45 6.55 9.9 6.05 9.7 5.75 9.7 5.6 10.7 7.4 14.5 12.3 14.5 12.35 10.7 7.5 10.0 6.2 9.95 6.15 9.95 6.2 9.9 6.25 9.75 6.3 9.8 6.35 9.7 6.4 9.7 6.45 9.65 6.6 9.15 7.15 9.15 7.2 8.5 7.8 Q7.6 8.4 6.65 8.95 L6.7 9.0 8.6 8.2 6.65 9.45 M6.6 8.35 L6.6 7.6 8.05 6.35 8.3 6.1 8.35 6.0 8.6 5.7 9.05 4.95 9.1 4.8 9.3 4.4 9.4 4.3 9.35 4.45 8.8 5.5 8.15 6.4 6.65 7.75 6.65 8.15 6.6 8.35 M11.65 6.65 L11.15 6.05 10.05 4.65 9.95 4.45 9.7 4.15 8.9 2.95 11.65 6.65 M9.1 7.05 L9.1 7.1 9.15 7.0 9.1 7.05" fill="#000000" fill-rule="evenodd" stroke="none"/>
    <path d="M9.3 1.3 L10.0 -1.7 10.65 1.15 8.9 2.95 9.3 1.3 M11.1 3.45 L11.65 6.3 11.65 6.45 11.7 6.7 11.65 6.65 8.9 2.95 11.1 3.45 M14.75 16.35 L14.65 16.3 14.45 16.1 14.35 15.9 14.4 15.0 14.35 15.0 10.25 9.15 10.6 9.65 9.7 8.3 9.75 8.2 9.9 8.1 14.95 14.9 14.85 14.95 14.75 16.35 M11.15 6.05 L11.7 6.95 11.65 6.95 15.15 11.25 15.05 12.9 14.8 12.75 14.5 12.35 14.5 12.3 14.55 11.3 12.7 9.0 12.75 8.95 10.95 6.5 10.25 5.15 10.05 4.65 11.15 6.05 M9.9 6.25 L10.05 6.55 11.1 8.15 11.05 8.15 11.4 8.6 11.35 8.6 15.0 13.15 14.9 14.65 14.9 13.8 14.85 14.6 14.75 14.55 14.65 14.45 14.45 14.2 14.45 14.15 14.5 13.25 14.45 13.25 13.45 11.9 14.5 13.25 10.75 8.3 9.95 7.0 10.0 6.95 9.7 6.45 9.7 6.4 9.8 6.35 9.75 6.3 9.9 6.25" fill="#ffcc00" fill-rule="evenodd" stroke="none"/>
  </g>
</svg>
