<?xml version="1.0" encoding="UTF-8" standalone="no"?>
<svg xmlns:ffdec="https://www.free-decompiler.com/flash" xmlns:xlink="http://www.w3.org/1999/xlink" ffdec:objectType="shape" height="18.6px" width="6.45px" xmlns="http://www.w3.org/2000/svg">
  <g transform="matrix(1.0, 0.0, 0.0, 1.0, -7.6, 1.75)">
    <path d="M8.8 2.95 L12.0 1.4 11.15 2.85 10.8 3.45 8.8 2.95 9.6 4.15 9.45 4.3 9.2 4.9 9.15 5.2 9.0 5.5 8.8 2.95 M13.45 16.85 L13.5 15.35 13.6 15.35 13.55 15.25 13.55 15.2 13.5 15.1 13.55 15.1 13.65 13.55 13.6 13.55 13.45 13.25 13.55 13.3 13.65 13.3 13.75 11.55 13.7 11.55 11.55 7.95 11.6 7.9 11.3 7.45 11.35 7.45 11.15 7.0 11.2 7.0 10.95 6.6 11.0 6.55 11.0 6.5 11.15 6.7 11.2 6.75 11.2 6.3 11.3 6.55 11.25 6.55 11.95 7.85 12.0 7.95 12.25 8.4 13.95 11.5 13.9 13.15 13.8 13.25 13.8 13.3 13.9 13.45 13.8 14.85 13.8 14.9 13.75 15.0 13.65 15.05 13.8 15.3 13.7 16.65 13.7 16.7 13.65 16.75 13.45 16.85 M9.85 4.55 L10.1 5.1 10.75 6.95 11.2 7.9 11.3 8.0 11.35 8.0 11.6 8.45 11.35 8.1 11.35 8.15 12.55 10.3 12.5 10.35 13.15 11.6 13.1 12.85 13.05 12.75 12.9 12.3 10.8 8.3 12.35 10.4 11.4 8.65 10.8 7.45 10.05 5.45 9.85 4.55 M9.85 6.2 L9.75 6.25 9.7 6.35 10.65 8.7 10.65 8.75 12.45 12.25 12.25 11.9 13.1 13.6 13.15 13.6 13.1 14.75 12.95 14.5 12.85 14.2 12.9 13.55 12.95 13.6 10.25 8.35 9.65 6.65 9.7 6.4 9.45 6.75 9.4 6.75 9.3 6.9 9.2 6.9 9.05 7.1 9.05 7.05 8.85 7.25 8.75 7.15 8.9 7.0 8.85 6.95 9.1 6.6 9.05 6.55 9.15 6.5 9.3 6.15 9.65 5.6 9.85 6.2 M9.7 8.2 L10.65 10.35 10.6 10.35 11.7 12.6 11.15 11.55 13.0 15.4 13.05 15.4 13.1 16.65 12.9 16.3 12.85 16.05 12.85 15.35 9.65 8.45 9.65 8.3 9.7 8.2 M11.1 7.5 L11.2 7.75 11.05 7.5 11.1 7.5 M9.65 7.85 L9.5 8.0 9.5 7.95 9.4 8.05 9.35 8.0 9.4 7.95 9.4 7.9 9.6 7.65 9.65 7.65 9.7 7.75 9.6 7.85 9.65 7.85" fill="#7f6600" fill-rule="evenodd" stroke="none"/>
    <path d="M10.0 -1.7 L10.45 1.1 8.8 2.95 9.25 1.35 10.0 -1.7 M11.2 6.75 L11.15 6.7 11.0 6.5 11.0 6.55 10.95 6.6 11.2 7.0 11.15 7.0 11.35 7.45 11.3 7.45 11.6 7.9 11.55 7.95 13.7 11.55 13.75 11.55 13.65 13.3 13.55 13.3 13.45 13.25 13.6 13.55 13.65 13.55 13.55 15.1 13.5 15.1 13.55 15.2 13.55 15.25 13.6 15.35 13.5 15.35 13.45 16.85 13.2 16.75 13.1 16.65 13.05 15.4 13.0 15.4 11.15 11.55 11.7 12.6 10.6 10.35 10.65 10.35 9.7 8.2 9.85 8.05 12.95 14.5 13.1 14.75 13.15 13.6 13.1 13.6 12.25 11.9 12.45 12.25 10.65 8.75 10.65 8.7 9.7 6.35 9.75 6.25 9.85 6.2 9.9 6.2 10.55 7.95 13.05 12.75 13.1 12.85 13.15 11.6 12.5 10.35 12.55 10.3 11.35 8.15 11.35 8.1 11.6 8.45 11.35 8.0 11.3 8.0 11.2 7.9 10.75 6.95 10.1 5.1 9.85 4.55 9.6 4.15 8.8 2.95 10.8 3.45 11.2 6.75 M11.1 7.5 L11.05 7.5 11.2 7.75 11.1 7.5" fill="#ffcc00" fill-rule="evenodd" stroke="none"/>
    <path d="M9.25 1.35 L8.8 2.95 10.45 1.1 10.0 -1.7 10.0 -1.75 10.65 0.9 10.7 1.2 12.0 1.4 8.8 2.95 8.5 1.5 9.25 1.35 M10.8 3.45 L11.15 2.85 11.2 6.15 11.95 7.85 11.25 6.55 11.3 6.55 11.2 6.3 11.2 6.75 10.8 3.45 M13.7 16.65 L13.8 15.3 13.65 15.05 13.75 15.0 13.85 15.2 13.8 16.3 13.75 16.55 13.7 16.65 M13.8 14.85 L13.9 13.45 13.8 13.3 13.8 13.25 13.9 13.45 13.9 14.3 13.85 14.8 13.8 14.85 M13.9 13.15 L13.95 11.5 12.25 8.4 14.05 11.45 14.0 12.7 13.9 13.15 M9.6 4.15 L9.85 4.55 10.05 5.45 10.8 7.45 11.4 8.65 12.35 10.4 10.8 8.3 12.9 12.3 13.05 12.75 10.55 7.95 9.9 6.2 9.85 6.2 9.65 5.6 9.3 6.15 9.15 6.5 9.05 6.55 9.1 6.6 8.85 6.95 8.9 7.0 8.75 7.15 8.85 7.25 9.05 7.05 9.05 7.1 9.2 6.9 9.3 6.9 9.4 6.75 9.45 6.75 9.7 6.4 9.65 6.65 10.25 8.35 12.95 13.6 12.9 13.55 12.85 14.2 12.95 14.5 9.85 8.05 9.7 8.2 9.65 8.3 9.65 8.45 12.85 15.35 12.85 16.05 12.9 16.3 12.85 16.15 9.85 9.5 8.0 10.6 7.95 10.65 7.7 10.65 7.65 9.8 9.4 8.55 9.35 8.5 8.05 9.45 7.95 9.55 7.8 9.55 7.7 9.5 7.65 9.45 7.65 8.7 7.95 8.4 7.85 8.45 7.7 8.4 7.65 8.3 7.6 8.25 7.6 7.55 8.45 6.5 8.45 6.45 8.55 6.3 8.65 6.2 8.9 5.65 9.0 5.5 9.15 5.2 9.2 4.9 9.45 4.3 9.6 4.15 M9.65 7.85 L9.6 7.85 9.7 7.75 9.65 7.65 9.6 7.65 9.4 7.9 9.4 7.95 9.35 8.0 9.4 8.05 9.5 7.95 9.5 8.0 9.65 7.85" fill="#000000" fill-rule="evenodd" stroke="none"/>
  </g>
</svg>
