<?xml version="1.0" encoding="UTF-8" standalone="no"?>
<svg xmlns:ffdec="https://www.free-decompiler.com/flash" xmlns:xlink="http://www.w3.org/1999/xlink" ffdec:objectType="shape" height="18.85px" width="3.75px" xmlns="http://www.w3.org/2000/svg">
  <g transform="matrix(1.0, 0.0, 0.0, 1.0, -8.65, 1.7)">
    <path d="M12.3 13.2 L12.3 13.3 12.25 13.4 12.2 13.45 12.25 13.75 12.25 15.05 12.2 15.2 12.15 15.25 12.25 15.55 12.2 15.6 12.15 16.9 12.1 17.0 12.0 17.1 11.9 17.15 11.9 15.65 12.0 15.65 11.9 15.45 11.9 15.4 12.0 15.35 12.0 13.8 11.95 13.8 11.9 13.6 12.05 13.55 12.1 13.5 12.15 11.75 12.05 11.75 11.8 11.05 11.75 11.05 11.5 10.35 11.4 10.35 11.25 9.7 11.1 9.7 11.3 10.35 11.25 10.4 11.45 11.1 11.4 11.1 11.6 11.8 11.5 11.8 11.55 13.35 11.5 13.3 11.35 12.95 11.35 11.8 10.5 8.6 9.85 5.15 8.75 2.9 10.0 -1.7 10.2 1.1 8.8 2.9 11.05 1.4 10.4 3.5 10.6 6.8 10.7 6.55 10.65 6.45 10.75 6.1 12.3 11.75 12.3 13.2 M11.5 17.0 L11.45 16.9 11.35 16.75 11.3 16.6 11.3 15.6 11.25 15.6 9.65 8.3 9.65 8.2 9.7 8.15 9.75 8.15 10.2 10.35 11.5 15.65 11.55 15.7 11.5 17.0 M10.5 6.6 L10.1 5.85 10.25 6.65 10.3 6.6 10.4 7.05 10.45 7.05 10.55 7.0 10.5 6.6 M10.55 7.5 L10.65 7.5 10.45 7.05 10.55 7.5 M10.9 11.2 L10.5 9.8 11.5 13.85 11.5 15.2 11.35 14.95 11.3 14.7 11.3 13.8 9.6 6.5 9.55 6.7 9.5 6.65 9.5 6.55 9.55 6.3 9.55 6.15 9.65 5.8 10.9 11.2" fill="#7f6600" fill-rule="evenodd" stroke="none"/>
    <path d="M11.9 17.15 L11.75 17.15 11.65 17.1 11.65 17.15 11.5 17.0 11.55 15.7 11.5 15.65 10.2 10.35 10.25 10.35 11.3 14.7 11.35 14.95 11.5 15.2 11.5 13.85 10.5 9.8 10.9 11.2 11.35 12.95 11.5 13.3 11.55 13.35 11.5 11.8 11.6 11.8 11.4 11.1 11.45 11.1 11.25 10.4 11.3 10.35 11.1 9.7 11.25 9.7 11.4 10.35 11.5 10.35 11.75 11.05 11.8 11.05 12.05 11.75 12.15 11.75 12.1 13.5 12.05 13.55 11.9 13.6 11.95 13.8 12.0 13.8 12.0 15.35 11.9 15.4 11.9 15.45 12.0 15.65 11.9 15.65 11.9 17.15 M10.55 7.5 L10.45 7.05 10.65 7.5 10.55 7.5 M10.5 6.6 L10.55 7.0 10.45 7.05 10.4 7.05 10.3 6.6 10.25 6.65 10.1 5.85 10.5 6.6" fill="#ffcc00" fill-rule="evenodd" stroke="none"/>
    <path d="M10.0 -1.7 L10.8 1.35 11.05 1.4 11.25 2.9 10.75 5.95 12.4 11.7 12.35 12.95 12.3 13.2 12.3 11.75 10.75 6.1 10.65 6.45 10.7 6.55 10.6 6.8 10.4 3.5 11.05 1.4 8.8 2.9 10.2 1.1 10.0 -1.7 M12.25 13.4 L12.35 13.75 12.3 14.85 12.25 15.05 12.25 13.75 12.2 13.45 12.25 13.4 M12.2 15.2 L12.3 15.55 12.25 16.7 12.15 16.9 12.2 15.6 12.25 15.55 12.15 15.25 12.2 15.2 M11.3 16.6 L9.8 9.8 9.1 10.5 9.0 10.5 8.8 10.55 8.7 10.45 8.65 10.3 8.65 9.75 8.9 9.45 8.75 9.4 8.7 9.35 8.65 9.25 8.65 8.65 8.8 8.35 8.7 8.25 8.65 8.15 8.65 7.45 9.05 6.55 9.25 5.7 9.3 5.6 9.35 5.25 8.75 2.9 9.85 5.15 10.5 8.6 11.35 11.8 11.35 12.95 10.9 11.2 9.65 5.8 9.55 6.15 9.55 6.3 9.5 6.55 9.5 6.65 9.55 6.7 9.6 6.5 11.3 13.8 11.3 14.7 10.25 10.35 10.2 10.35 9.75 8.15 9.7 8.15 9.65 8.2 9.65 8.3 11.25 15.6 11.3 15.6 11.3 16.6" fill="#000000" fill-rule="evenodd" stroke="none"/>
  </g>
</svg>
