<?xml version="1.0" encoding="UTF-8" standalone="no"?>
<svg xmlns:ffdec="https://www.free-decompiler.com/flash" xmlns:xlink="http://www.w3.org/1999/xlink" ffdec:objectType="shape" height="19.0px" width="2.55px" xmlns="http://www.w3.org/2000/svg">
  <g transform="matrix(1.0, 0.0, 0.0, 1.0, -8.75, 1.7)">
    <path d="M9.9 17.25 L9.9 15.75 9.8 15.75 9.8 15.35 9.9 15.45 9.8 13.9 9.9 13.9 9.95 13.65 9.9 13.6 9.9 13.65 9.8 13.55 9.8 11.85 9.9 11.85 9.9 11.3 9.95 12.0 9.95 11.1 10.0 11.1 10.0 10.45 10.05 11.1 10.05 10.4 10.15 11.1 10.2 11.1 10.2 11.85 10.35 11.85 10.3 13.55 10.2 13.65 10.2 13.9 10.25 13.9 10.3 13.9 10.3 15.35 10.25 13.9 10.25 15.4 10.3 15.4 10.3 15.75 10.25 15.75 10.25 17.2 10.2 15.75 10.2 17.25 10.15 17.25 10.05 17.3 10.0 17.3 9.95 17.25 9.9 17.25" fill="#ffcc00" fill-rule="evenodd" stroke="none"/>
    <path d="M8.75 2.9 L10.0 3.5 11.3 2.9 10.4 5.6 10.35 5.75 10.5 15.25 10.55 15.65 10.55 15.7 10.5 15.75 10.5 16.85 10.35 17.1 10.25 17.2 10.25 15.75 10.3 15.75 10.3 15.4 10.25 15.4 10.25 13.9 10.3 15.35 10.3 13.9 10.25 13.9 10.2 13.9 10.2 13.65 10.3 13.55 10.35 11.85 10.2 11.85 10.2 11.1 10.15 11.1 10.05 10.4 10.05 11.1 10.0 10.45 10.0 11.1 9.95 11.1 9.95 12.0 9.9 11.3 9.9 11.85 9.8 11.85 9.8 13.55 9.9 13.65 9.9 13.6 9.95 13.65 9.9 13.9 9.8 13.9 9.9 15.45 9.8 15.35 9.8 15.75 9.9 15.75 9.9 17.25 9.65 16.9 9.65 15.75 9.6 15.7 9.6 14.95 9.65 15.1 9.6 11.2 9.65 11.15 9.65 5.7 9.6 5.45 8.75 2.9 10.0 -1.7 11.3 2.9 10.0 1.1 8.75 2.9 M10.25 17.2 L10.2 17.25 10.2 15.75 10.25 17.2" fill="#7f6600" fill-rule="evenodd" stroke="none"/>
    <path d="M11.3 2.9 L10.0 3.5 8.75 2.9 10.0 1.1 11.3 2.9 M9.6 5.45 L9.65 5.7 9.65 11.15 9.6 11.2 9.65 15.1 9.6 14.95 9.6 15.7 9.65 15.75 9.65 16.9 9.55 16.45 9.6 5.45 M10.5 16.85 L10.5 15.75 10.55 15.7 10.55 16.7 10.5 16.85 M10.55 15.65 L10.5 15.25 10.35 5.75 10.4 5.6 10.6 12.9 10.55 13.15 10.6 13.05 10.6 14.5 10.55 14.8 10.55 15.65" fill="#000000" fill-rule="evenodd" stroke="none"/>
  </g>
</svg>
