<?xml version="1.0" encoding="UTF-8" standalone="no"?>
<svg xmlns:ffdec="https://www.free-decompiler.com/flash" xmlns:xlink="http://www.w3.org/1999/xlink" ffdec:objectType="shape" height="18.9px" width="3.55px" xmlns="http://www.w3.org/2000/svg">
  <g transform="matrix(1.0, 0.0, 0.0, 1.0, -7.75, 1.7)">
    <path d="M7.85 13.35 L7.8 11.75 9.25 6.2 9.25 6.25 9.3 5.95 9.45 6.85 9.65 3.5 9.05 1.4 11.25 2.9 10.1 5.3 10.15 5.4 8.9 11.15 8.95 11.2 8.8 11.8 8.75 11.8 8.8 12.95 8.6 13.4 8.55 11.8 8.75 11.1 8.7 11.1 8.85 10.4 8.8 10.4 8.9 9.7 8.75 10.35 8.85 9.7 8.7 10.35 8.55 10.35 8.4 11.05 8.3 11.05 8.1 11.8 8.0 11.75 8.05 13.55 8.1 13.6 8.25 13.6 8.15 13.85 8.1 13.8 8.15 15.4 8.2 15.4 8.15 15.65 8.2 15.7 8.25 17.2 8.15 17.15 8.1 17.1 7.95 16.9 7.9 15.6 7.95 15.35 8.0 15.25 7.95 15.15 7.9 15.05 7.85 13.8 7.9 13.45 7.9 13.4 7.85 13.35 M8.9 12.55 L10.3 5.95 10.5 6.45 10.45 6.5 10.5 6.65 10.45 6.7 10.4 6.5 8.8 13.85 8.8 14.85 10.25 8.15 10.35 8.2 10.35 8.3 8.85 15.65 8.85 16.6 8.75 16.85 8.6 17.05 8.6 15.7 8.65 15.7 8.8 14.85 8.75 15.0 8.65 15.2 8.6 13.85 8.9 12.55 M11.25 2.9 L9.8 1.1 10.0 -1.7 11.25 2.9 M10.35 5.8 L10.4 5.95 10.35 5.85 10.35 5.8 M9.85 6.25 L9.9 5.9 9.6 6.55 9.45 7.05 9.55 7.05 9.65 7.05 9.7 6.6 9.75 6.65 9.8 6.2 9.85 6.25 M9.45 7.5 L9.5 7.5 9.55 7.05 9.45 7.5" fill="#7f6600" fill-rule="evenodd" stroke="none"/>
    <path d="M8.8 12.95 L8.75 11.8 8.8 11.8 8.95 11.2 8.9 11.15 10.15 5.4 10.1 5.3 11.25 2.9 9.05 1.4 9.65 3.5 9.45 6.85 9.3 5.95 9.25 6.25 9.25 6.2 7.8 11.75 7.85 13.35 7.75 12.85 7.75 11.7 9.25 5.85 8.75 2.9 9.05 1.4 9.2 1.35 10.0 -1.7 9.8 1.1 11.25 2.9 10.6 5.2 10.65 5.3 10.75 5.8 10.75 5.9 10.8 6.15 10.9 6.45 10.95 6.5 11.3 7.45 11.3 8.15 11.25 8.25 11.1 8.3 11.3 8.65 11.25 9.2 11.25 9.3 11.2 9.4 11.05 9.45 11.25 9.75 11.25 10.4 11.2 10.5 10.95 10.55 10.8 10.5 10.75 10.4 10.2 9.85 10.15 10.25 8.85 16.6 8.85 15.65 10.35 8.3 10.35 8.2 10.25 8.15 8.8 14.85 8.8 13.85 10.4 6.5 10.45 6.7 10.5 6.65 10.45 6.5 10.5 6.45 10.3 5.95 8.9 12.55 8.8 12.95 M7.9 13.4 L7.9 13.45 7.85 13.8 7.9 15.05 7.85 15.0 7.8 13.75 7.9 13.4 M7.95 15.15 L8.0 15.25 7.95 15.35 7.9 15.6 7.95 16.9 7.9 16.85 7.85 16.45 7.85 15.55 7.95 15.15 M10.35 5.8 L10.35 5.85 10.4 5.95 10.35 5.8" fill="#000000" fill-rule="evenodd" stroke="none"/>
    <path d="M8.25 17.2 L8.2 15.7 8.15 15.65 8.2 15.4 8.15 15.4 8.1 13.8 8.15 13.85 8.25 13.6 8.1 13.6 8.05 13.55 8.0 11.75 8.1 11.8 8.3 11.05 8.4 11.05 8.55 10.35 8.7 10.35 8.85 9.7 8.75 10.35 8.9 9.7 8.8 10.4 8.85 10.4 8.7 11.1 8.75 11.1 8.55 11.8 8.6 13.4 8.8 12.95 8.9 12.55 8.6 13.85 8.65 15.2 8.75 15.0 8.8 14.85 8.65 15.7 8.6 15.7 8.6 17.05 8.4 17.15 8.25 17.2 M9.45 7.5 L9.55 7.05 9.5 7.5 9.45 7.5 M9.85 6.25 L9.8 6.2 9.75 6.65 9.7 6.6 9.65 7.05 9.55 7.05 9.45 7.05 9.6 6.55 9.9 5.9 9.85 6.25" fill="#ffcc00" fill-rule="evenodd" stroke="none"/>
  </g>
</svg>
