<?xml version="1.0" encoding="UTF-8" standalone="no"?>
<svg xmlns:ffdec="https://www.free-decompiler.com/flash" xmlns:xlink="http://www.w3.org/1999/xlink" ffdec:objectType="shape" height="18.6px" width="6.3px" xmlns="http://www.w3.org/2000/svg">
  <g transform="matrix(1.0, 0.0, 0.0, 1.0, -6.05, 1.7)">
    <path d="M10.8 1.35 L11.45 1.5 11.2 2.95 10.8 1.35 M11.2 2.95 L8.05 1.4 9.25 3.45 8.85 6.65 8.85 6.3 8.55 7.0 8.6 7.0 6.15 11.55 6.2 13.15 6.15 12.9 6.05 11.5 6.3 11.1 8.85 6.1 8.85 2.9 8.05 1.4 9.3 1.2 10.0 -1.7 9.55 1.15 11.2 2.95 M10.95 5.5 L11.55 6.55 12.35 7.55 12.3 8.15 12.3 8.25 12.25 8.4 12.0 8.4 12.3 8.7 12.3 9.4 12.2 9.5 12.05 9.55 12.0 9.5 11.9 9.45 10.65 8.5 12.25 9.8 12.25 10.5 12.2 10.6 12.05 10.65 12.0 10.65 11.9 10.6 10.2 9.55 10.15 9.5 9.8 10.55 7.3 16.05 7.25 15.4 10.0 9.4 10.35 8.45 10.35 8.25 10.25 8.2 10.25 8.15 10.15 8.1 9.8 9.0 7.2 14.35 7.2 13.6 9.75 8.35 10.35 6.6 10.35 6.4 10.5 6.75 10.55 6.75 10.7 6.95 10.75 6.9 10.9 7.1 11.0 7.05 11.15 7.25 11.25 7.15 11.1 7.0 11.1 6.95 10.75 6.4 10.8 6.35 10.35 5.6 10.15 6.2 9.55 7.85 7.1 12.7 7.2 12.35 7.15 11.65 9.45 6.95 10.2 4.6 10.45 4.2 10.5 4.3 10.6 4.4 10.85 5.15 10.85 5.2 10.95 5.5 M6.4 16.7 L6.3 16.45 6.25 15.3 6.35 15.05 6.4 15.05 6.3 15.3 6.35 15.35 6.4 16.7 M6.3 14.95 L6.25 14.8 6.25 14.65 6.15 13.5 6.3 13.25 6.35 13.3 6.25 13.5 6.25 13.55 6.3 14.95 M10.45 7.8 L10.4 7.8 10.4 7.85 10.5 8.0 10.6 7.95 10.45 7.8 10.35 7.65 10.3 7.75 10.35 7.75 10.45 7.8" fill="#000000" fill-rule="evenodd" stroke="none"/>
    <path d="M9.25 3.45 L8.05 1.4 11.2 2.95 9.25 3.45 M6.2 13.15 L6.15 11.55 8.6 7.0 8.55 7.0 8.85 6.3 8.85 6.65 8.85 6.8 9.0 6.65 8.85 6.95 8.9 7.0 8.7 7.45 8.75 7.45 8.55 7.95 7.65 9.6 7.9 9.0 7.25 10.2 7.15 10.2 6.45 11.6 6.3 11.55 6.45 13.35 6.6 13.3 6.7 13.25 6.55 13.6 6.5 13.6 6.55 15.15 6.6 15.15 6.65 15.1 6.5 15.4 6.6 15.4 6.7 16.85 6.6 16.9 6.45 16.8 6.4 16.7 6.35 15.35 6.3 15.3 6.4 15.05 6.35 15.05 6.3 14.95 6.25 13.55 6.25 13.5 6.35 13.3 6.3 13.25 6.2 13.2 6.2 13.15 M10.45 4.2 L11.2 2.95 10.95 5.5 10.85 5.2 10.85 5.15 10.6 4.4 10.5 4.3 10.45 4.2 M7.3 16.05 L7.2 16.25 7.1 16.55 7.05 16.6 7.0 15.45 7.1 15.45 9.4 10.35 9.35 10.35 10.25 8.2 10.35 8.25 10.35 8.45 10.0 9.4 7.25 15.4 7.3 16.05 M7.2 14.35 L7.0 14.8 7.0 13.6 9.4 8.75 10.2 6.6 10.15 6.6 10.25 6.3 10.15 6.2 10.35 5.6 10.8 6.35 10.75 6.4 11.1 6.95 11.1 7.0 11.25 7.15 11.15 7.25 11.0 7.05 10.9 7.1 10.75 6.9 10.7 6.95 10.55 6.75 10.5 6.75 10.35 6.4 10.35 6.6 9.75 8.35 7.2 13.6 7.2 14.35 M7.1 12.7 L6.95 12.95 6.9 11.6 6.95 11.6 7.15 11.3 9.0 7.5 9.9 5.1 10.2 4.6 9.45 6.95 7.15 11.65 7.2 12.35 7.1 12.7 M10.45 7.8 L10.35 7.75 10.3 7.75 10.35 7.65 10.45 7.8 10.6 7.95 10.5 8.0 10.4 7.85 10.4 7.8 10.45 7.8 M8.7 7.45 L8.45 7.9 8.5 7.95 8.7 7.45 M8.9 7.0 L9.0 6.65 9.0 6.55 9.1 6.6 8.9 7.0" fill="#7f6600" fill-rule="evenodd" stroke="none"/>
    <path d="M10.8 1.35 L11.2 2.95 9.55 1.15 10.0 -1.7 10.8 1.35 M9.25 3.45 L11.2 2.95 10.45 4.2 10.2 4.6 9.9 5.1 9.0 7.5 7.15 11.3 6.95 11.6 6.9 11.6 6.95 12.95 7.1 12.7 9.55 7.85 10.15 6.2 10.25 6.3 10.15 6.6 10.2 6.6 9.4 8.75 7.0 13.6 7.0 14.8 7.2 14.35 9.8 9.0 10.15 8.1 10.25 8.15 10.25 8.2 9.35 10.35 9.4 10.35 7.1 15.45 7.0 15.45 7.05 16.6 6.95 16.75 6.9 16.8 6.75 16.85 6.7 16.85 6.6 15.4 6.5 15.4 6.65 15.1 6.6 15.15 6.55 15.15 6.5 13.6 6.55 13.6 6.7 13.25 6.6 13.3 6.45 13.35 6.3 11.55 6.45 11.6 7.15 10.2 7.25 10.2 7.9 9.0 7.65 9.6 8.55 7.95 8.75 7.45 8.7 7.45 8.5 7.95 8.45 7.9 8.7 7.45 8.9 7.0 8.85 6.95 9.0 6.65 8.85 6.8 8.85 6.65 9.25 3.45 M8.9 7.0 L9.1 6.6 9.0 6.55 9.0 6.65 8.9 7.0" fill="#ffcc00" fill-rule="evenodd" stroke="none"/>
  </g>
</svg>
