<?xml version="1.0" encoding="UTF-8" standalone="no"?>
<svg xmlns:ffdec="https://www.free-decompiler.com/flash" xmlns:xlink="http://www.w3.org/1999/xlink" ffdec:objectType="shape" height="18.1px" width="8.7px" xmlns="http://www.w3.org/2000/svg">
  <g transform="matrix(1.0, 0.0, 0.0, 1.0, -4.65, 1.7)">
    <path d="M10.7 1.3 L12.15 1.5 11.1 3.05 11.1 2.95 10.7 1.3 M11.35 5.65 L12.0 6.45 13.35 7.6 13.3 8.2 13.3 8.25 11.6 7.05 13.3 8.2 11.75 7.1 13.05 7.6 11.95 6.55 11.1 5.45 10.9 5.05 10.85 5.0 10.9 4.95 10.8 4.8 10.6 4.3 10.75 4.5 11.15 5.35 11.35 5.65 M13.3 8.45 L13.2 8.55 13.05 8.55 12.95 8.5 10.9 7.05 10.85 7.1 11.4 7.6 13.3 8.8 13.3 9.0 13.25 9.4 11.35 8.2 13.3 9.0 10.65 7.35 11.45 7.8 10.8 7.15 10.6 6.85 10.35 6.6 10.3 6.45 10.2 6.3 10.15 6.2 10.05 6.2 8.9 8.05 5.55 12.45 5.55 12.4 5.6 12.3 10.1 6.05 10.2 6.1 10.4 6.4 10.55 6.55 10.6 6.55 10.8 6.8 10.95 6.95 11.05 6.95 11.2 7.15 11.25 7.1 11.45 7.3 11.55 7.3 13.3 8.45 M13.25 9.55 L13.25 9.6 13.2 9.7 13.05 9.7 12.95 9.65 10.15 8.0 10.1 8.0 10.05 8.05 9.8 8.4 10.35 7.5 10.3 7.65 10.2 7.8 10.3 7.9 11.15 8.4 11.25 8.35 13.25 9.55 M10.25 8.2 L13.25 9.95 13.25 10.15 13.25 10.55 13.25 10.6 11.05 9.5 13.25 10.55 11.35 9.55 13.25 10.15 11.45 9.15 11.45 9.1 10.3 8.4 10.3 8.3 10.25 8.2 M13.2 10.65 L13.2 10.75 13.15 10.85 13.1 10.85 12.95 10.8 10.5 9.65 10.15 9.4 10.15 9.45 9.25 10.8 9.25 10.75 10.1 9.45 10.2 9.2 10.35 9.0 10.3 9.1 10.25 9.25 10.65 9.5 10.7 9.5 10.95 9.65 11.0 9.65 11.2 9.75 11.25 9.7 13.2 10.65 M6.5 14.85 L5.75 15.95 5.75 15.9 6.5 14.85 M5.1 16.3 L5.05 16.25 5.0 16.1 4.95 14.85 4.95 14.8 5.05 14.65 5.05 14.7 4.95 14.85 5.0 14.9 5.1 16.3 M5.0 14.6 L4.9 14.4 4.85 13.55 4.8 13.35 4.8 13.2 4.85 13.1 4.8 13.1 4.9 12.9 4.95 12.95 4.85 13.1 4.85 13.25 5.0 14.6 M4.85 12.9 L4.75 12.7 4.65 11.15 8.05 6.9 8.4 6.25 8.85 3.4 8.9 3.45 8.4 6.25 8.4 6.45 7.8 7.35 7.85 7.35 4.95 11.0 5.6 10.1 4.7 11.2 4.75 11.2 4.85 12.9 M11.1 2.95 L10.35 4.15 9.95 4.65 8.9 6.0 8.45 6.65 8.4 6.65 11.1 2.95 M5.65 14.15 L7.15 12.15 5.65 14.25 5.65 14.15" fill="#000000" fill-rule="evenodd" stroke="none"/>
    <path d="M11.1 2.95 L11.1 3.05 11.35 5.65 11.15 5.35 10.75 4.5 10.6 4.3 10.8 4.8 10.9 4.95 10.85 5.0 10.9 5.05 11.1 5.45 11.95 6.55 13.05 7.6 11.75 7.1 13.3 8.2 11.6 7.05 13.3 8.25 13.3 8.45 11.55 7.3 11.45 7.3 11.25 7.1 11.2 7.15 11.05 6.95 10.95 6.95 10.8 6.8 10.6 6.55 10.55 6.55 10.4 6.4 10.2 6.1 10.1 6.05 5.6 12.3 5.55 11.3 9.05 6.55 9.9 4.85 9.95 4.65 10.35 4.15 11.1 2.95 8.9 3.45 8.85 3.4 7.2 1.4 9.35 1.15 11.1 2.95 M13.25 9.4 L13.25 9.55 11.25 8.35 11.15 8.4 10.3 7.9 10.2 7.8 10.3 7.65 10.35 7.5 9.8 8.4 10.05 8.05 10.1 8.05 10.1 8.1 10.0 8.2 8.65 10.2 8.65 10.15 8.6 10.25 5.15 14.95 5.25 15.0 5.35 16.4 5.2 16.4 5.1 16.3 5.0 14.9 4.95 14.85 5.05 14.7 5.05 14.65 5.0 14.6 4.85 13.25 4.85 13.1 4.95 12.95 4.9 12.9 4.85 12.9 4.75 11.2 4.7 11.2 5.6 10.1 4.95 11.0 7.85 7.35 7.8 7.35 8.4 6.45 8.35 6.7 8.4 6.65 8.45 6.65 8.9 6.0 8.3 6.95 8.4 6.95 8.3 7.05 6.05 10.0 5.95 10.0 4.95 11.25 5.05 12.95 5.15 12.9 5.2 12.85 5.3 12.8 5.45 12.65 5.55 12.45 8.9 8.05 10.05 6.2 10.15 6.2 10.0 6.55 9.95 6.55 9.6 7.2 8.65 8.6 5.1 13.2 5.2 14.7 5.3 14.65 5.45 14.5 5.65 14.25 7.15 12.15 5.65 14.15 5.6 13.25 5.65 13.25 9.95 7.3 9.9 7.25 10.3 6.45 10.35 6.6 10.6 6.85 10.8 7.15 11.45 7.8 10.65 7.35 13.3 9.0 11.35 8.2 13.25 9.4 M13.25 10.6 L13.2 10.65 11.25 9.7 11.2 9.75 11.0 9.65 10.95 9.65 10.7 9.5 10.65 9.5 10.25 9.25 10.3 9.1 10.35 9.0 10.2 9.2 10.1 9.45 9.25 10.75 9.25 10.8 7.75 13.0 6.75 14.45 6.5 14.85 5.75 15.9 5.7 15.05 10.3 8.3 10.3 8.4 11.45 9.1 11.45 9.15 13.25 10.15 11.35 9.55 13.25 10.55 11.05 9.5 13.25 10.6 M5.75 15.95 L5.7 16.05 5.6 14.65 5.75 15.9 5.75 15.95 M9.05 9.5 L9.65 8.65 9.8 8.4 9.05 9.5 8.85 9.75 8.6 10.15 7.15 12.15 8.6 10.15 8.85 9.75 9.05 9.5 9.8 8.4 9.65 8.65 9.05 9.5 M5.55 12.4 L5.5 11.3 5.6 12.3 5.55 12.4" fill="#7f6600" fill-rule="evenodd" stroke="none"/>
    <path d="M10.7 1.3 L11.1 2.95 9.35 1.15 10.0 -1.7 10.7 1.3 M10.1 8.1 L10.25 8.2 10.3 8.3 5.7 15.05 5.75 15.9 5.6 14.65 5.7 16.05 5.35 16.4 5.25 15.0 5.15 14.95 8.6 10.25 8.65 10.15 8.65 10.2 10.0 8.2 10.1 8.1 M9.95 4.65 L9.9 4.85 9.05 6.55 5.55 11.3 5.6 12.3 5.5 11.3 5.55 12.4 5.55 12.45 5.45 12.65 5.3 12.8 5.2 12.85 5.15 12.9 5.05 12.95 4.95 11.25 5.95 10.0 6.05 10.0 8.3 7.05 8.4 6.95 8.3 6.95 8.9 6.0 9.95 4.65 M10.15 6.2 L10.2 6.3 10.3 6.45 9.9 7.25 9.95 7.3 5.65 13.25 5.6 13.25 5.65 14.15 5.65 14.25 5.45 14.5 5.3 14.65 5.2 14.7 5.1 13.2 8.65 8.6 9.6 7.2 9.95 6.55 10.0 6.55 10.15 6.2 M8.4 6.65 L8.35 6.7 8.4 6.45 8.4 6.25 8.9 3.45 11.1 2.95 8.4 6.65" fill="#ffcc00" fill-rule="evenodd" stroke="none"/>
  </g>
</svg>
