<?xml version="1.0" encoding="UTF-8" standalone="no"?>
<svg xmlns:ffdec="https://www.free-decompiler.com/flash" xmlns:xlink="http://www.w3.org/1999/xlink" ffdec:objectType="shape" height="17.5px" width="10.7px" xmlns="http://www.w3.org/2000/svg">
  <g transform="matrix(1.0, 0.0, 0.0, 1.0, -3.6, 1.7)">
    <path d="M10.8 1.25 L10.9 2.8 10.0 -1.7 10.8 1.25 M10.95 2.95 L12.8 1.5 11.15 3.4 11.65 5.4 10.95 2.95 M11.75 5.75 L11.75 5.8 12.1 6.15 14.25 7.75 14.3 7.75 14.25 8.7 14.15 8.8 14.0 8.75 11.4 7.25 10.4 6.45 11.3 7.35 11.75 7.65 14.2 8.95 14.25 9.0 14.25 9.1 14.2 9.85 14.15 9.95 14.05 9.95 14.05 9.9 10.15 7.95 10.1 7.9 10.0 8.0 10.0 8.05 9.15 8.95 9.5 8.55 10.25 7.65 10.25 7.75 10.15 7.85 10.2 7.9 10.6 8.05 11.35 8.5 11.4 8.45 14.2 9.85 14.2 9.15 14.25 9.1 11.7 7.75 11.05 7.25 10.35 6.55 10.25 6.5 10.25 6.35 10.4 6.45 10.25 6.3 10.15 6.15 10.05 6.05 10.0 6.15 8.9 7.6 8.45 8.05 8.4 8.1 8.1 8.45 4.15 12.3 4.35 12.05 8.3 8.1 9.15 7.2 10.25 5.7 10.25 5.8 10.1 5.95 10.2 6.1 10.95 6.8 11.0 6.8 11.45 7.15 11.55 7.2 11.85 7.4 11.9 7.4 14.25 8.7 14.2 8.5 14.25 7.85 13.15 7.1 13.15 7.05 12.3 6.4 12.3 6.45 11.95 6.1 11.85 6.05 11.25 5.3 10.7 4.4 10.8 4.5 10.95 4.75 11.0 4.8 11.1 4.95 11.75 5.75 M10.2 8.15 L14.2 10.15 14.2 10.3 14.15 11.0 14.15 11.1 14.0 11.1 10.85 9.75 10.1 9.35 9.75 9.85 4.55 15.45 4.6 15.35 9.2 10.4 10.15 9.25 10.2 9.3 14.15 11.0 14.1 10.85 14.1 10.4 14.2 10.3 11.75 9.15 11.75 9.1 10.25 8.3 10.2 8.15 M4.1 15.75 L4.05 15.7 4.0 15.6 3.9 14.35 3.9 14.25 4.0 14.15 4.1 14.1 3.95 14.25 3.95 14.35 4.0 14.35 4.0 14.4 4.1 15.75 M3.95 14.1 L3.9 14.0 3.8 12.65 3.85 12.65 3.95 14.1 M3.8 12.6 L3.8 12.5 3.9 12.45 3.95 12.45 3.8 12.6 M3.8 12.4 L3.75 12.4 3.75 12.3 3.6 10.7 7.95 6.4 7.9 6.6 3.65 10.75 3.65 10.8 3.8 12.4 M10.9 2.95 L10.25 4.15 9.9 4.5 8.7 5.85 8.2 6.35 10.9 2.95 M10.2 6.35 L10.1 6.25 10.2 6.3 10.2 6.35 M4.4 13.85 L4.5 13.7 5.75 12.5 4.4 13.85 M10.25 9.15 L10.25 9.2 10.2 9.25 10.25 9.15 M4.0 12.4 L4.0 12.45 3.95 12.45 4.0 12.4" fill="#000000" fill-rule="evenodd" stroke="none"/>
    <path d="M10.8 1.25 L12.8 1.5 10.95 2.95 10.95 2.9 10.9 2.8 10.8 1.25 M11.65 5.4 L11.75 5.75 11.1 4.95 11.0 4.8 10.95 4.75 10.8 4.5 10.7 4.4 11.25 5.3 11.85 6.05 11.95 6.1 12.3 6.45 12.3 6.4 13.15 7.05 13.15 7.1 14.25 7.85 14.2 8.5 14.25 8.7 11.9 7.4 11.85 7.4 11.55 7.2 11.45 7.15 11.0 6.8 10.95 6.8 10.2 6.1 10.1 5.95 10.25 5.8 10.25 5.7 9.15 7.2 8.3 8.1 4.35 12.05 4.55 11.65 4.5 10.95 7.5 8.0 9.45 5.5 9.75 4.9 9.7 4.9 9.9 4.5 10.25 4.15 10.9 2.95 10.95 2.95 11.65 5.4 M10.0 8.05 L10.1 8.1 8.3 10.1 4.05 14.4 4.2 14.45 4.3 15.7 4.15 15.8 4.1 15.75 4.0 14.4 4.0 14.35 3.95 14.35 3.95 14.25 4.1 14.1 4.0 14.15 3.95 14.1 3.85 12.65 3.8 12.65 3.8 12.6 3.95 12.45 3.9 12.45 3.8 12.45 3.8 12.4 3.65 10.8 3.65 10.75 7.9 6.6 7.9 6.7 8.2 6.35 8.7 5.85 7.55 7.3 7.6 7.3 5.05 9.75 5.0 9.7 3.85 10.85 3.9 10.85 4.0 12.4 4.1 12.35 4.15 12.3 8.1 8.45 8.4 8.1 8.45 8.05 8.9 7.6 10.0 6.15 10.1 6.25 9.1 7.65 8.65 8.1 8.3 8.5 4.0 12.75 4.05 12.75 4.15 14.1 4.4 13.85 5.75 12.5 4.5 13.7 4.6 13.5 4.55 12.8 8.85 8.55 9.05 8.3 9.2 8.1 10.3 6.6 10.25 6.5 10.35 6.55 11.05 7.25 11.7 7.75 14.25 9.1 14.2 9.15 14.2 9.85 11.4 8.45 11.35 8.5 10.6 8.05 10.2 7.9 10.15 7.85 10.25 7.75 10.25 7.65 9.5 8.55 9.15 8.95 10.0 8.05 M6.5 1.4 L9.2 1.15 10.95 2.9 10.9 2.95 6.5 1.4 M10.25 8.3 L11.75 9.1 11.75 9.15 14.2 10.3 14.1 10.4 14.1 10.85 14.15 11.0 10.2 9.3 10.15 9.25 9.2 10.4 4.6 15.35 4.7 15.15 4.65 14.5 8.7 10.3 8.65 10.3 10.3 8.4 10.25 8.3 M10.25 9.15 L10.2 9.25 10.25 9.2 10.25 9.15 M8.6 9.5 L8.3 9.8 7.75 10.4 6.15 12.05 5.75 12.5 6.15 12.05 7.75 10.4 8.3 9.8 8.6 9.5 9.15 8.95 8.6 9.5 8.9 9.2 9.15 8.95 8.9 9.2 8.6 9.5 M4.0 12.4 L3.95 12.45 4.0 12.45 4.0 12.4" fill="#7f6600" fill-rule="evenodd" stroke="none"/>
    <path d="M10.9 2.8 L10.95 2.9 10.95 2.95 10.9 2.95 10.95 2.9 9.2 1.15 10.0 -1.7 10.9 2.8 M10.1 8.1 L10.2 8.15 10.25 8.3 10.3 8.4 8.65 10.3 8.7 10.3 4.65 14.5 4.7 15.15 4.6 15.35 4.55 15.45 4.3 15.7 4.2 14.45 4.05 14.4 8.3 10.1 10.1 8.1 M7.95 6.4 L8.6 3.45 6.5 1.4 10.9 2.95 8.2 6.35 7.9 6.7 7.9 6.6 7.95 6.4 M8.7 5.85 L9.9 4.5 9.7 4.9 9.75 4.9 9.45 5.5 7.5 8.0 4.5 10.95 4.55 11.65 4.35 12.05 4.15 12.3 4.1 12.35 4.0 12.4 3.9 10.85 3.85 10.85 5.0 9.7 5.05 9.75 7.6 7.3 7.55 7.3 8.7 5.85 M10.25 6.35 L10.25 6.5 10.3 6.6 9.2 8.1 9.05 8.3 8.85 8.55 4.55 12.8 4.6 13.5 4.5 13.7 4.4 13.85 4.15 14.1 4.05 12.75 4.0 12.75 8.3 8.5 8.65 8.1 9.1 7.65 10.1 6.25 10.2 6.35 10.25 6.35" fill="#ffcc00" fill-rule="evenodd" stroke="none"/>
  </g>
</svg>
