<?xml version="1.0" encoding="UTF-8" standalone="no"?>
<svg xmlns:ffdec="https://www.free-decompiler.com/flash" xmlns:xlink="http://www.w3.org/1999/xlink" ffdec:objectType="shape" height="16.8px" width="12.3px" xmlns="http://www.w3.org/2000/svg">
  <g transform="matrix(1.0, 0.0, 0.0, 1.0, -2.9, 1.7)">
    <path d="M10.95 1.25 L10.75 2.95 13.35 1.5 11.4 3.45 12.1 5.85 12.3 6.1 13.2 6.8 15.15 7.95 15.2 7.95 15.2 8.0 15.15 8.9 15.1 8.8 15.15 8.1 15.2 8.0 15.15 8.0 13.15 6.85 12.15 6.05 12.15 6.0 12.05 5.9 11.5 5.4 11.45 5.3 11.05 4.75 12.05 5.9 12.1 5.85 10.75 2.95 10.2 4.15 8.55 5.65 7.65 6.45 10.75 2.95 10.0 -1.7 10.95 1.25 M15.1 9.0 L15.1 9.05 15.0 9.05 14.95 9.0 11.85 7.4 11.25 7.0 10.1 6.05 10.0 6.0 8.9 7.25 7.8 8.15 10.15 5.75 10.2 5.8 10.05 5.95 11.1 6.8 11.45 7.0 12.15 7.5 12.2 7.5 15.1 9.0 M5.6 9.9 L3.3 11.8 3.4 11.65 5.6 9.9 M3.1 11.9 L3.05 11.85 2.9 10.25 7.6 6.45 7.55 6.55 7.0 7.1 6.8 7.25 6.35 7.7 5.75 8.1 3.1 10.2 2.95 10.3 3.1 11.9 M10.15 6.3 L10.9 6.95 12.1 7.75 15.1 9.25 15.1 9.3 15.05 10.2 15.0 10.25 14.85 10.2 10.85 8.3 10.35 8.0 10.3 8.0 10.05 7.9 9.95 8.0 10.0 8.05 3.2 13.7 3.3 13.8 3.4 15.1 3.35 15.1 3.35 15.0 3.2 13.7 3.2 13.6 3.45 13.45 3.45 13.4 3.55 13.35 3.6 13.25 9.75 8.1 10.1 7.8 10.25 7.7 10.15 7.85 10.35 7.95 10.4 8.0 15.05 10.2 15.05 9.4 15.1 9.3 12.05 7.8 12.0 7.8 10.35 6.55 10.25 6.4 10.2 6.45 10.15 6.3 M10.05 8.05 L15.05 10.45 15.05 10.55 15.0 11.4 15.0 11.45 14.95 11.45 10.75 9.7 10.05 9.3 10.1 9.25 10.2 9.2 10.15 9.25 10.2 9.3 10.65 9.55 10.8 9.6 15.0 11.4 14.95 11.25 15.0 10.65 15.05 10.55 12.05 9.2 12.05 9.15 10.2 8.2 10.1 8.2 10.15 8.15 10.1 8.15 10.05 8.05 M5.55 13.35 L3.7 14.9 3.75 14.8 5.55 13.35 M3.25 13.5 L3.2 13.5 3.1 12.1 3.1 12.05 8.7 7.5 8.85 7.4 9.8 6.35 9.95 6.15 10.0 6.15 9.1 7.2 9.05 7.2 8.5 7.8 3.1 12.1 3.15 12.15 3.25 13.5 M9.75 8.1 L9.65 8.25 9.95 8.0 9.75 8.1" fill="#000000" fill-rule="evenodd" stroke="none"/>
    <path d="M7.6 6.45 L8.35 3.4 6.0 1.45 10.75 2.95 7.65 6.45 7.55 6.55 7.6 6.45 M9.05 1.15 L10.0 -1.7 10.75 2.95 9.05 1.15 M10.2 4.15 L10.55 4.3 10.75 4.65 11.75 5.85 11.5 5.65 11.7 5.85 11.25 6.45 11.8 6.9 11.75 6.95 11.45 6.75 11.4 6.75 10.85 6.35 10.75 6.25 10.2 5.8 10.15 5.75 10.2 5.75 10.2 5.55 7.7 8.1 7.75 8.1 3.6 11.4 3.4 11.65 3.3 11.8 3.15 10.4 3.05 10.4 3.1 10.35 5.6 8.4 5.0 8.9 6.7 7.6 8.3 5.95 8.55 5.65 10.2 4.15 M10.1 6.25 L10.15 6.3 10.2 6.45 10.2 6.65 11.0 7.3 10.95 7.9 10.9 7.95 11.05 8.0 11.0 8.05 10.7 7.9 10.7 7.95 10.55 7.85 10.25 7.7 10.2 7.65 10.25 7.55 3.8 12.95 3.6 13.25 3.55 13.35 3.45 13.4 3.35 12.25 3.25 12.2 8.6 7.95 9.9 6.55 9.85 6.55 10.1 6.25 M3.7 14.9 L3.55 15.0 3.5 13.85 3.35 13.8 8.0 9.95 8.0 10.0 10.1 8.15 10.15 8.15 10.1 8.2 10.2 8.2 10.2 8.95 10.45 9.1 10.2 9.05 9.2 10.05 3.9 14.55 3.75 14.8 3.7 14.9 M6.65 7.6 L6.7 7.6 6.15 8.0 6.65 7.6" fill="#ffcc00" fill-rule="evenodd" stroke="none"/>
    <path d="M10.95 1.25 L13.35 1.5 10.75 2.95 10.95 1.25 M15.15 8.9 L15.1 9.0 12.2 7.5 12.15 7.5 11.45 7.0 11.1 6.8 10.05 5.95 10.2 5.8 10.75 6.25 10.85 6.35 11.4 6.75 11.45 6.75 11.75 6.95 11.8 6.9 11.25 6.45 11.7 5.85 11.5 5.65 11.75 5.85 10.75 4.65 10.55 4.3 10.2 4.15 10.75 2.95 12.1 5.85 12.05 5.9 11.05 4.75 11.45 5.3 11.5 5.4 12.05 5.9 12.15 6.0 12.15 6.05 13.15 6.85 15.15 8.0 15.2 8.0 15.15 8.1 15.1 8.8 15.15 8.9 M7.8 8.15 L5.6 9.9 3.4 11.65 3.6 11.4 7.75 8.1 7.7 8.1 10.2 5.55 10.2 5.75 10.15 5.75 7.8 8.15 M3.3 11.8 L3.1 11.9 2.95 10.3 3.1 10.2 5.75 8.1 6.35 7.7 6.8 7.25 7.0 7.1 7.55 6.55 7.65 6.45 8.55 5.65 8.3 5.95 6.7 7.6 5.0 8.9 5.6 8.4 3.1 10.35 3.05 10.4 3.15 10.4 3.3 11.8 M6.0 1.45 L9.05 1.15 10.75 2.95 6.0 1.45 M10.0 6.15 L10.1 6.25 9.85 6.55 9.9 6.55 8.6 7.95 3.25 12.2 3.35 12.25 3.45 13.4 3.35 13.5 3.25 13.5 3.15 12.15 3.1 12.1 8.5 7.8 9.05 7.2 9.1 7.2 10.0 6.15 M10.0 8.05 L10.05 8.05 10.1 8.15 8.0 10.0 8.0 9.95 3.35 13.8 3.5 13.85 3.55 15.0 3.5 15.1 3.4 15.1 3.3 13.8 3.2 13.7 10.0 8.05 M10.05 9.3 L9.75 9.7 9.1 10.3 5.55 13.35 3.75 14.8 3.9 14.55 9.2 10.05 10.2 9.05 10.45 9.1 10.2 8.95 10.2 8.2 12.05 9.15 12.05 9.2 15.05 10.55 15.0 10.65 14.95 11.25 15.0 11.4 10.8 9.6 10.65 9.55 10.2 9.3 10.15 9.25 10.2 9.2 10.1 9.25 10.05 9.3 M10.2 6.45 L10.25 6.4 10.35 6.55 12.0 7.8 12.05 7.8 15.1 9.3 15.05 9.4 15.05 10.2 10.4 8.0 10.35 7.95 10.15 7.85 10.25 7.7 10.1 7.8 9.75 8.1 3.6 13.25 3.8 12.95 10.25 7.55 10.2 7.65 10.25 7.7 10.55 7.85 10.7 7.95 10.7 7.9 11.0 8.05 11.05 8.0 10.9 7.95 10.95 7.9 11.0 7.3 10.2 6.65 10.2 6.45 M6.65 7.6 L6.15 8.0 6.7 7.6 6.65 7.6" fill="#7f6600" fill-rule="evenodd" stroke="none"/>
  </g>
</svg>
