<?xml version="1.0" encoding="UTF-8" standalone="no"?>
<svg xmlns:ffdec="https://www.free-decompiler.com/flash" xmlns:xlink="http://www.w3.org/1999/xlink" ffdec:objectType="shape" height="13.5px" width="15.3px" xmlns="http://www.w3.org/2000/svg">
  <g transform="matrix(1.0, 0.0, 0.0, 1.0, -1.4, 1.25)">
    <path d="M10.1 -1.05 L10.6 0.0 10.7 0.3 11.05 0.85 11.8 1.8 11.9 1.9 12.15 2.2 13.15 3.1 14.05 3.7 14.1 3.8 16.5 5.25 16.7 5.35 16.7 5.45 16.6 6.6 16.6 6.65 16.55 6.65 12.4 4.45 11.35 3.65 10.0 2.6 8.1 4.35 7.95 4.45 10.1 2.45 10.1 2.5 10.05 2.55 11.35 3.65 11.35 3.6 12.7 4.55 12.75 4.55 16.6 6.6 16.65 5.5 16.7 5.45 16.5 5.3 14.05 3.85 14.1 3.8 13.55 3.5 12.1 2.25 11.85 1.9 11.3 1.35 11.0 0.9 10.95 0.8 10.65 0.35 10.15 -0.8 10.1 -1.05 M4.85 6.55 L1.65 8.7 1.55 8.7 1.4 6.9 1.6 6.75 5.75 4.05 7.15 2.9 8.85 1.0 9.95 -1.2 10.0 -1.25 9.3 0.4 8.85 1.0 7.4 2.75 6.25 3.7 6.3 3.75 1.45 6.95 1.65 8.7 1.75 8.55 4.85 6.55 M10.1 3.0 L10.1 2.95 12.5 4.75 16.6 6.85 16.6 6.95 12.55 4.85 11.75 4.35 10.15 3.05 10.1 3.0 M10.0 2.85 L9.7 3.2 9.0 3.85 9.25 3.65 7.35 5.25 1.65 8.95 1.7 9.0 1.85 10.45 2.05 10.3 2.5 10.0 Q2.2 10.25 1.85 10.45 L1.8 10.5 1.8 10.45 1.65 8.95 1.65 8.9 7.45 5.1 10.0 2.85 M9.1 5.5 L10.05 4.75 10.15 4.65 10.1 4.75 10.3 4.85 10.35 4.9 11.55 5.6 10.25 4.95 10.15 4.85 10.05 4.8 9.1 5.5 M12.8 6.2 L16.55 8.0 16.5 7.85 16.55 7.0 16.6 6.95 16.55 8.0 16.5 8.05 16.45 8.05 12.8 6.2 M10.1 5.2 L10.05 5.1 16.5 8.3 16.5 8.35 Q13.3 6.8 10.1 5.2 M10.0 5.1 L1.8 10.75 1.9 10.85 2.05 12.2 2.0 12.25 1.95 12.2 1.8 10.75 1.8 10.65 10.0 5.05 10.0 5.1 M2.1 12.15 L2.2 12.05 3.1 11.45 2.1 12.15 M16.45 8.65 L16.45 8.5 16.5 8.4 16.4 9.35 16.4 9.1 16.45 8.65 M16.4 9.4 L16.4 9.45 10.1 6.55 10.15 6.5 10.05 6.45 9.4 6.95 10.05 6.4 10.15 6.35 10.1 6.45 10.2 6.45 10.2 6.5 16.4 9.4" fill="#000000" fill-rule="evenodd" stroke="none"/>
    <path d="M10.0 -1.25 L10.1 -1.1 9.75 -0.15 9.5 0.35 8.45 1.8 7.7 2.6 7.75 2.6 6.0 4.15 1.65 7.05 1.6 7.05 1.65 7.1 1.75 8.55 1.65 8.7 1.45 6.95 6.3 3.75 6.25 3.7 7.4 2.75 8.85 1.0 9.3 0.4 10.0 -1.25 M7.95 4.45 L4.85 6.55 1.75 8.55 1.95 8.3 7.25 4.85 10.15 2.25 10.1 2.45 12.45 4.2 12.45 4.15 12.95 4.45 13.0 4.45 16.55 6.3 16.45 6.15 16.5 5.6 15.85 5.2 16.5 5.5 15.2 4.75 15.25 4.7 13.9 3.95 13.8 3.85 12.2 2.55 12.5 2.75 12.0 2.3 10.9 0.95 10.25 -0.3 10.15 -0.45 10.15 -0.8 10.65 0.35 10.95 0.8 11.0 0.9 11.3 1.35 11.85 1.9 12.1 2.25 13.55 3.5 14.1 3.8 14.05 3.85 16.5 5.3 16.7 5.45 16.65 5.5 16.6 6.6 12.75 4.55 12.7 4.55 11.35 3.6 11.35 3.65 10.05 2.55 10.1 2.5 10.1 2.45 7.95 4.45 M10.1 2.95 L10.1 3.0 9.0 4.1 7.45 5.35 1.75 9.05 1.85 9.1 2.05 10.3 1.85 10.45 1.7 9.0 1.65 8.95 7.35 5.25 9.25 3.65 9.0 3.85 9.7 3.2 10.0 2.85 10.1 2.95 M10.15 3.05 L11.75 4.35 12.55 4.85 16.6 6.95 16.55 7.0 16.5 7.85 16.55 8.0 12.8 6.2 11.55 5.6 10.35 4.9 10.3 4.85 10.1 4.75 10.15 4.65 10.05 4.75 9.1 5.5 2.5 10.0 2.05 10.3 2.25 10.0 10.2 4.5 10.15 4.6 11.55 5.45 11.7 5.5 12.1 5.7 12.15 5.7 15.85 7.45 15.25 7.15 16.4 7.7 16.35 7.6 16.4 7.15 16.45 7.1 15.45 6.6 16.5 7.1 12.5 5.05 12.5 5.0 11.85 4.6 10.25 3.3 10.15 3.25 10.15 3.05 M10.05 5.1 L10.1 5.2 1.95 10.9 2.1 10.95 2.2 12.05 2.1 12.15 2.05 12.2 1.9 10.85 1.8 10.75 10.0 5.1 10.05 5.1 M10.1 5.2 Q13.3 6.8 16.5 8.35 L16.5 8.4 16.45 8.5 16.45 8.65 12.25 6.7 13.7 7.35 11.6 6.35 15.4 8.1 12.45 6.65 12.5 6.6 11.05 5.95 11.1 5.9 10.15 5.4 10.1 5.2 M9.4 6.95 L9.3 7.05 9.1 7.2 8.4 7.7 3.75 11.0 3.4 11.25 3.1 11.45 2.2 12.05 2.4 11.8 8.95 7.2 10.15 6.2 10.15 6.3 10.3 6.4 12.1 7.3 12.15 7.25 15.35 8.7 13.5 7.8 15.35 8.65 12.25 7.15 16.45 8.65 16.4 9.1 16.4 9.35 16.4 9.4 10.2 6.5 10.2 6.45 10.1 6.45 10.15 6.35 10.05 6.4 9.4 6.95 9.1 7.2 9.4 6.95" fill="#7f6600" fill-rule="evenodd" stroke="none"/>
    <path d="M10.1 -1.1 L10.1 -1.05 10.15 -0.8 10.15 -0.45 10.25 -0.3 10.9 0.95 12.0 2.3 12.5 2.75 12.2 2.55 13.8 3.85 13.9 3.95 15.25 4.7 15.2 4.75 16.5 5.5 15.85 5.2 16.5 5.6 16.45 6.15 16.55 6.3 13.0 4.45 12.95 4.45 12.45 4.15 12.45 4.2 10.1 2.45 10.15 2.25 7.25 4.85 1.95 8.3 1.75 8.55 1.65 7.1 1.6 7.05 1.65 7.05 6.0 4.15 7.75 2.6 7.7 2.6 8.45 1.8 9.5 0.35 9.75 -0.15 10.1 -1.1 M10.1 3.0 L10.15 3.05 10.15 3.25 10.25 3.3 11.85 4.6 12.5 5.0 12.5 5.05 16.5 7.1 15.45 6.6 16.45 7.1 16.4 7.15 16.35 7.6 16.4 7.7 15.25 7.15 15.85 7.45 12.15 5.7 12.1 5.7 11.7 5.5 11.55 5.45 10.15 4.6 10.2 4.5 2.25 10.0 2.05 10.3 1.85 9.1 1.75 9.05 7.45 5.35 9.0 4.1 10.1 3.0 M2.2 12.05 L2.1 10.95 1.95 10.9 10.1 5.2 10.15 5.4 11.1 5.9 11.05 5.95 12.5 6.6 12.45 6.65 15.4 8.1 11.6 6.35 13.7 7.35 12.25 6.7 16.45 8.65 12.25 7.15 15.35 8.65 13.5 7.8 15.35 8.7 12.15 7.25 12.1 7.3 10.3 6.4 10.15 6.3 10.15 6.2 8.95 7.2 2.4 11.8 2.2 12.05" fill="#ffcc00" fill-rule="evenodd" stroke="none"/>
  </g>
</svg>
