<?xml version="1.0" encoding="UTF-8" standalone="no"?>
<svg xmlns:ffdec="https://www.free-decompiler.com/flash" xmlns:xlink="http://www.w3.org/1999/xlink" ffdec:objectType="shape" height="12.75px" width="16.05px" xmlns="http://www.w3.org/2000/svg">
  <g transform="matrix(1.0, 0.0, 0.0, 1.0, -1.45, 1.3)">
    <path d="M10.35 -0.45 L10.15 -0.85 10.05 -1.0 10.05 -1.15 10.35 -0.45 10.45 -0.3 10.6 0.1 11.0 0.7 11.1 0.9 12.8 2.65 11.95 1.95 11.05 0.9 11.1 0.9 10.95 0.75 10.6 0.15 10.6 0.1 10.55 0.05 10.4 -0.25 10.35 -0.45 M10.0 -1.2 L10.0 -1.15 9.35 0.25 9.0 0.8 8.75 1.1 8.8 1.1 7.1 2.9 5.9 3.8 1.5 6.5 1.45 6.5 1.5 6.55 1.65 8.05 2.4 7.65 1.6 8.1 1.45 6.5 1.45 6.45 1.5 6.4 6.1 3.6 7.1 2.8 7.75 2.15 9.25 0.3 10.0 -1.3 10.0 -1.2 M8.35 3.95 L8.5 3.8 10.0 2.55 12.65 4.5 17.4 7.0 17.35 6.85 17.45 5.8 17.5 5.75 17.35 5.6 17.35 5.65 14.4 3.95 13.75 3.4 17.5 5.65 17.5 5.75 17.4 7.0 17.4 7.05 12.65 4.55 11.7 3.95 11.6 3.85 10.0 2.6 8.35 3.95 M1.65 8.4 L1.65 8.3 7.95 4.6 10.0 2.85 10.05 2.9 10.0 2.95 8.0 4.6 7.2 5.15 1.65 8.4 1.75 8.45 1.75 8.5 1.85 9.75 1.9 9.65 9.75 4.95 10.05 4.7 10.05 4.75 10.45 5.05 10.1 4.85 10.0 4.8 9.0 5.55 1.85 9.75 1.8 9.8 1.65 8.4 M10.05 2.9 L10.45 3.2 10.55 3.3 11.2 3.85 11.4 3.95 11.7 4.2 12.5 4.75 11.75 4.35 10.1 3.0 10.0 2.95 10.05 2.95 10.05 2.9 M13.75 5.4 L17.4 7.25 17.4 7.35 17.3 8.5 17.3 8.55 15.6 7.65 17.3 8.5 17.25 8.4 17.3 7.45 17.4 7.35 13.75 5.4 M11.1 7.05 L10.0 6.45 9.05 7.2 1.95 11.45 1.8 10.05 1.8 10.0 10.0 5.05 10.0 5.1 17.25 8.75 17.25 8.85 17.15 10.0 14.1 8.5 17.1 9.9 17.2 9.0 17.2 8.9 17.25 8.85 10.05 5.2 10.0 5.1 1.8 10.05 1.9 10.15 1.9 10.2 2.0 11.4 10.05 6.4 10.15 6.45 11.1 7.05" fill="#000000" fill-rule="evenodd" stroke="none"/>
    <path d="M10.05 -1.15 L10.05 -1.0 10.15 -0.85 10.35 -0.45 10.4 -0.25 10.55 0.05 10.6 0.1 10.6 0.15 10.95 0.75 11.1 0.9 11.05 0.9 11.95 1.95 12.8 2.65 13.15 3.0 13.55 3.3 13.75 3.4 14.4 3.95 17.35 5.65 17.35 5.6 17.5 5.75 17.45 5.8 17.35 6.85 17.4 7.0 12.65 4.5 10.0 2.55 8.5 3.8 8.35 3.95 7.35 4.7 3.1 7.25 2.4 7.65 1.65 8.05 1.5 6.55 1.45 6.5 1.5 6.5 5.9 3.8 7.1 2.9 8.8 1.1 8.75 1.1 9.0 0.8 9.35 0.25 10.0 -1.15 10.0 -1.2 10.05 -1.15 M10.05 -0.75 L10.05 -1.0 9.75 -0.3 9.7 -0.15 9.5 0.3 9.0 1.05 7.45 2.7 7.3 2.9 7.25 2.9 6.9 3.2 6.95 3.2 6.65 3.4 6.65 3.45 1.55 6.6 1.7 6.65 1.8 7.8 3.7 6.7 3.0 7.15 6.9 4.85 10.05 2.35 10.75 2.95 10.9 3.1 12.6 4.3 17.25 6.7 17.3 5.85 17.35 5.85 17.3 5.8 15.8 4.9 16.35 5.2 13.8 3.7 13.05 3.1 12.95 3.0 12.15 2.35 10.95 1.0 10.85 0.8 10.45 0.25 10.45 0.15 10.3 -0.15 10.25 -0.35 10.05 -0.75 M1.65 8.4 L7.2 5.15 8.0 4.6 10.0 2.95 10.05 2.9 10.05 2.95 10.0 2.95 10.1 3.0 9.75 3.35 7.3 5.25 1.75 8.5 1.75 8.45 1.65 8.4 M12.5 4.75 L13.75 5.4 17.4 7.35 17.3 7.45 12.7 5.1 12.7 5.05 11.65 4.4 10.4 3.4 10.3 3.3 10.1 3.15 10.1 3.0 11.75 4.35 12.5 4.75 M15.6 7.65 L15.0 7.35 12.7 6.2 11.65 5.65 11.35 5.5 10.55 5.1 10.45 5.05 10.05 4.75 10.05 4.7 9.75 4.95 1.9 9.65 1.85 9.75 1.75 8.5 1.9 8.55 2.0 9.5 8.95 5.4 10.05 4.6 10.1 4.6 10.1 4.65 12.2 5.85 12.25 5.8 17.2 8.25 17.1 8.1 17.15 7.5 17.3 7.45 17.25 8.4 17.3 8.5 15.6 7.65 M11.35 5.5 L10.45 5.05 11.35 5.5 M14.1 8.5 L11.1 7.05 10.15 6.45 10.05 6.4 2.0 11.4 1.9 10.2 1.9 10.15 1.8 10.05 10.0 5.1 10.05 5.2 17.25 8.85 17.2 8.9 17.2 9.0 17.1 9.9 14.1 8.5 M1.9 10.2 L2.05 10.25 2.15 11.2 10.1 6.25 10.1 6.3 10.2 6.4 11.1 6.9 11.35 7.0 17.0 9.7 16.95 9.65 17.0 9.05 17.2 9.0 13.55 7.15 13.9 7.3 10.1 5.35 10.05 5.25 1.9 10.2" fill="#7f6600" fill-rule="evenodd" stroke="none"/>
    <path d="M10.05 -0.75 L10.25 -0.35 10.3 -0.15 10.45 0.15 10.45 0.25 10.85 0.8 10.95 1.0 12.15 2.35 12.95 3.0 13.05 3.1 13.8 3.7 16.35 5.2 15.8 4.9 17.3 5.8 17.35 5.85 17.3 5.85 17.25 6.7 12.6 4.3 10.9 3.1 10.75 2.95 10.05 2.35 6.9 4.85 3.0 7.15 3.7 6.7 1.8 7.8 1.7 6.65 1.55 6.6 6.65 3.45 6.65 3.4 6.95 3.2 6.9 3.2 7.25 2.9 7.3 2.9 7.45 2.7 9.0 1.05 9.5 0.3 9.7 -0.15 9.75 -0.3 10.05 -1.0 10.05 -0.75 M1.75 8.5 L7.3 5.25 9.75 3.35 10.1 3.0 10.1 3.15 10.3 3.3 10.4 3.4 11.65 4.4 12.7 5.05 12.7 5.1 17.3 7.45 17.15 7.5 17.1 8.1 17.2 8.25 12.25 5.8 12.2 5.85 10.1 4.65 10.1 4.6 10.05 4.6 8.95 5.4 2.0 9.5 1.9 8.55 1.75 8.5 M1.9 10.2 L10.05 5.25 10.1 5.35 13.9 7.3 13.55 7.15 17.2 9.0 17.0 9.05 16.95 9.65 17.0 9.7 11.35 7.0 11.1 6.9 10.2 6.4 10.1 6.3 10.1 6.25 2.15 11.2 2.05 10.25 1.9 10.2" fill="#ffcc00" fill-rule="evenodd" stroke="none"/>
  </g>
</svg>
