<?xml version="1.0" encoding="UTF-8" standalone="no"?>
<svg xmlns:ffdec="https://www.free-decompiler.com/flash" xmlns:xlink="http://www.w3.org/1999/xlink" ffdec:objectType="shape" height="12.65px" width="16.1px" xmlns="http://www.w3.org/2000/svg">
  <g transform="matrix(1.0, 0.0, 0.0, 1.0, -2.45, 1.25)">
    <path d="M10.0 -1.2 L10.0 -1.25 10.75 0.3 11.5 1.35 12.75 2.65 11.5 1.5 11.65 1.6 11.2 1.05 10.95 0.8 11.0 0.75 10.45 -0.15 10.0 -1.2 M12.75 2.65 L15.3 4.5 13.95 3.7 14.0 3.7 13.45 3.35 13.4 3.25 12.75 2.65 M16.1 5.0 L18.55 6.4 18.55 6.5 18.4 8.05 13.0 4.95 12.95 4.9 11.5 3.85 10.0 2.6 9.65 2.85 9.15 3.3 7.2 4.65 2.55 7.1 2.55 7.0 2.45 5.75 2.45 5.7 2.5 5.65 6.55 3.2 7.55 2.4 7.25 2.7 6.4 3.4 2.5 5.75 2.5 5.7 2.45 5.75 2.5 5.85 2.6 6.85 2.55 7.0 8.25 3.9 10.0 2.55 9.95 2.5 12.7 4.7 18.35 8.0 18.5 6.55 18.55 6.5 16.1 5.0 M8.25 1.65 L8.9 0.9 9.0 0.7 9.3 0.3 9.95 -1.15 10.0 -1.1 9.95 -1.0 9.85 -0.85 9.3 0.3 9.2 0.5 9.1 0.65 9.05 0.75 8.95 0.9 8.25 1.65 M10.0 2.9 L10.0 2.85 11.8 4.35 11.85 4.45 18.3 8.25 18.3 8.35 12.7 5.1 12.65 5.05 11.7 4.4 10.5 3.4 10.0 2.9 M18.3 8.35 L18.15 9.75 10.45 5.15 10.5 5.15 10.35 5.1 10.0 4.8 9.1 5.3 9.95 4.75 9.95 4.7 10.4 5.05 10.5 5.15 18.15 9.65 18.25 8.45 18.3 8.35 M4.55 7.6 L2.7 8.55 2.55 7.35 2.55 7.3 8.2 4.3 8.9 3.75 9.1 3.55 9.95 2.9 9.9 3.0 8.05 4.5 7.45 4.9 2.55 7.35 2.65 7.5 2.7 8.5 4.55 7.6 M10.0 5.1 L10.0 5.05 18.15 9.95 18.15 10.05 10.0 5.1 9.95 5.2 2.7 8.85 2.75 9.0 2.85 9.85 2.85 9.95 5.85 8.55 2.8 10.05 2.7 8.85 2.7 8.8 10.0 5.1 M18.15 10.05 L18.05 11.4 10.8 7.05 10.0 6.45 9.9 6.5 9.25 6.9 8.8 7.1 9.85 6.5 9.9 6.4 10.0 6.45 18.0 11.35 18.1 10.15 18.15 10.05" fill="#000000" fill-rule="evenodd" stroke="none"/>
    <path d="M10.0 -1.2 L10.45 -0.15 11.0 0.75 10.95 0.8 11.2 1.05 11.65 1.6 11.5 1.5 12.75 2.65 13.4 3.25 13.45 3.35 14.0 3.7 13.95 3.7 15.3 4.5 15.4 4.6 16.1 5.0 18.55 6.5 18.5 6.55 18.35 8.0 12.7 4.7 9.95 2.5 10.0 2.55 8.25 3.9 2.55 7.0 2.6 6.85 2.5 5.85 2.45 5.75 2.5 5.7 2.5 5.75 6.4 3.4 7.25 2.7 7.55 2.4 8.25 1.65 8.95 0.9 9.05 0.75 9.1 0.65 9.2 0.5 9.3 0.3 9.85 -0.85 9.95 -1.0 10.0 -1.1 9.95 -1.15 10.0 -1.2 M10.0 2.9 L10.5 3.4 11.7 4.4 12.65 5.05 12.7 5.1 18.3 8.35 18.25 8.45 11.65 4.55 11.6 4.45 11.25 4.2 9.9 3.0 9.95 3.15 7.8 4.75 7.3 5.05 7.3 5.1 2.65 7.5 2.8 7.55 2.85 8.15 2.75 8.3 7.75 5.8 7.8 5.85 9.85 4.65 9.9 4.7 9.9 4.6 10.5 5.0 10.6 5.1 18.0 9.45 18.1 8.5 18.25 8.45 18.15 9.65 10.5 5.15 10.4 5.05 9.95 4.7 9.95 4.75 9.1 5.3 8.45 5.65 8.4 5.65 7.4 6.15 6.35 6.7 4.55 7.6 2.7 8.5 2.65 7.5 2.55 7.35 7.45 4.9 8.05 4.5 9.9 3.0 9.95 2.9 10.0 2.9 M12.05 2.2 L11.05 1.1 10.05 -0.75 9.95 -1.0 9.95 -0.65 9.55 0.15 9.45 0.4 8.75 1.35 8.7 1.4 8.2 2.0 7.15 3.0 6.4 3.55 2.65 5.85 2.6 5.85 2.65 5.9 2.7 6.75 2.6 6.85 6.9 4.6 7.4 4.25 7.45 4.3 10.0 2.4 13.1 4.85 18.2 7.75 18.3 6.6 18.4 6.55 18.3 6.5 13.35 3.45 12.0 2.2 12.05 2.2 M10.0 5.1 L18.15 10.05 18.1 10.15 18.0 11.35 10.0 6.45 9.9 6.4 9.85 6.5 8.8 7.1 5.85 8.55 2.85 9.95 2.85 9.85 2.75 9.0 2.7 8.85 9.95 5.2 10.0 5.1 M2.75 9.0 L2.95 9.1 3.0 9.65 2.95 9.75 6.15 8.2 4.75 8.95 8.65 7.0 8.65 7.05 8.85 6.9 9.95 6.3 9.9 6.25 17.85 11.15 17.95 10.2 18.05 10.15 17.95 10.1 9.95 5.25 9.95 5.35 2.75 9.0 M7.4 6.15 L9.1 5.3 7.4 6.15" fill="#7f6600" fill-rule="evenodd" stroke="none"/>
    <path d="M12.05 2.2 L12.0 2.2 13.35 3.45 18.3 6.5 18.4 6.55 18.3 6.6 18.2 7.75 13.1 4.85 10.0 2.4 7.45 4.3 7.4 4.25 6.9 4.6 2.6 6.85 2.7 6.75 2.65 5.9 2.6 5.85 2.65 5.85 6.4 3.55 7.15 3.0 8.2 2.0 8.7 1.4 8.75 1.35 9.45 0.4 9.55 0.15 9.95 -0.65 9.95 -1.0 10.05 -0.75 11.05 1.1 12.05 2.2 M18.25 8.45 L18.1 8.5 18.0 9.45 10.6 5.1 10.5 5.0 9.9 4.6 9.9 4.7 9.85 4.65 7.8 5.85 7.75 5.8 2.75 8.3 2.85 8.15 2.8 7.55 2.65 7.5 7.3 5.1 7.3 5.05 7.8 4.75 9.95 3.15 9.9 3.0 11.25 4.2 11.6 4.45 11.65 4.55 18.25 8.45 M2.75 9.0 L9.95 5.35 9.95 5.25 17.95 10.1 18.05 10.15 17.95 10.2 17.85 11.15 9.9 6.25 9.95 6.3 8.85 6.9 8.65 7.05 8.65 7.0 4.75 8.95 6.15 8.2 2.95 9.75 3.0 9.65 2.95 9.1 2.75 9.0" fill="#ffcc00" fill-rule="evenodd" stroke="none"/>
  </g>
</svg>
