<?xml version="1.0" encoding="UTF-8" standalone="no"?>
<svg xmlns:ffdec="https://www.free-decompiler.com/flash" xmlns:xlink="http://www.w3.org/1999/xlink" ffdec:objectType="shape" height="13.4px" width="15.35px" xmlns="http://www.w3.org/2000/svg">
  <g transform="matrix(1.0, 0.0, 0.0, 1.0, -3.25, 1.25)">
    <path d="M9.9 -1.1 L9.95 -1.1 10.5 0.3 10.9 1.0 11.65 1.9 11.95 2.2 11.9 2.25 12.85 3.2 18.4 7.0 18.45 7.05 18.4 7.05 18.25 8.5 18.05 8.25 12.95 4.95 9.95 2.35 9.85 2.25 9.9 2.45 8.5 3.5 8.05 3.9 7.05 4.5 7.0 4.45 4.3 5.9 6.95 4.4 3.4 6.3 3.5 6.15 3.45 5.6 3.8 5.4 3.75 5.35 4.75 4.8 4.75 4.75 6.7 3.5 8.25 2.0 8.45 1.75 8.55 1.65 9.1 0.95 9.2 0.85 9.85 -0.5 9.85 -0.8 9.9 -0.95 9.9 -1.1 M9.9 3.0 L11.35 4.4 12.55 5.35 18.25 9.0 18.1 9.1 18.0 10.25 17.85 10.05 14.9 8.1 11.9 6.1 11.95 6.05 11.35 5.7 9.85 4.5 9.85 4.6 9.8 4.65 9.35 4.95 7.9 5.75 7.85 5.7 3.45 7.85 5.3 6.9 3.45 7.8 5.35 6.85 3.55 7.7 3.6 7.6 3.55 7.15 3.5 7.15 5.2 6.3 3.4 7.15 7.7 4.9 9.65 3.4 9.65 3.35 9.85 3.2 9.85 3.05 9.9 3.0 M18.1 10.8 L17.9 10.9 17.8 12.0 17.65 11.75 12.95 8.55 11.5 7.55 11.15 7.25 12.95 8.55 11.15 7.25 9.85 6.2 9.85 6.3 9.85 6.35 9.7 6.4 7.9 7.3 7.85 7.25 3.55 9.25 5.35 8.4 4.35 8.85 7.75 7.2 3.5 8.7 5.75 7.6 4.65 8.1 5.7 7.6 3.5 8.6 7.5 6.65 7.5 6.6 9.85 5.4 9.85 5.3 9.9 5.2 18.1 10.8" fill="#ffcc00" fill-rule="evenodd" stroke="none"/>
    <path d="M10.0 -1.25 L10.75 0.5 11.95 2.05 12.55 2.65 12.85 2.9 12.8 2.9 13.15 3.25 13.25 3.3 13.2 3.35 18.4 6.85 18.6 6.95 18.5 7.0 18.35 8.65 18.25 8.5 18.4 7.05 18.45 7.05 18.4 7.0 12.85 3.2 11.9 2.25 11.95 2.2 11.65 1.9 10.9 1.0 10.5 0.3 9.95 -1.1 9.95 -1.2 10.0 -1.25 M9.6 2.9 L9.3 3.15 8.65 3.65 8.6 3.6 8.55 3.7 8.5 3.7 8.2 3.9 8.05 4.05 3.35 6.6 3.4 6.4 3.3 5.45 3.25 5.45 3.3 5.4 5.95 3.75 6.35 3.5 6.45 3.45 7.05 3.0 8.0 2.15 9.1 0.75 9.85 -0.8 9.85 -0.5 9.2 0.85 9.1 0.95 8.55 1.65 8.45 1.75 8.25 2.0 6.7 3.5 4.75 4.75 4.75 4.8 3.75 5.35 3.8 5.4 3.45 5.6 3.5 6.15 3.4 6.3 6.95 4.4 4.3 5.9 7.0 4.45 7.05 4.5 8.05 3.9 8.5 3.5 9.9 2.45 9.85 2.25 9.95 2.35 12.95 4.95 18.05 8.25 18.25 8.5 12.3 4.6 9.9 2.45 9.9 2.5 9.95 2.55 9.6 2.9 M10.0 5.1 L18.2 10.7 18.1 10.8 18.0 12.15 17.9 12.1 17.8 12.0 17.9 10.9 18.1 10.8 9.9 5.2 9.85 5.3 9.85 5.4 7.5 6.6 7.5 6.65 3.5 8.6 5.7 7.6 4.65 8.1 5.75 7.6 3.5 8.7 7.75 7.2 4.35 8.85 5.35 8.4 3.55 9.25 7.85 7.25 7.9 7.3 9.7 6.4 9.85 6.35 9.9 6.45 3.5 9.45 3.5 9.4 3.55 9.4 3.55 9.25 3.55 9.2 3.5 8.7 3.5 8.6 3.5 8.55 3.45 8.4 9.9 5.2 9.95 5.1 10.0 5.1 M9.9 3.0 L9.95 2.9 11.0 3.8 10.75 3.65 11.7 4.5 12.4 4.95 12.55 5.1 13.85 5.95 14.25 6.2 15.3 6.9 18.35 8.9 18.3 9.0 18.15 10.4 18.0 10.25 18.1 9.1 18.25 9.0 12.55 5.35 11.35 4.4 9.9 3.0 M3.35 6.95 L7.55 4.8 8.65 4.05 8.9 3.8 9.85 3.05 9.85 3.2 9.65 3.35 9.65 3.4 7.7 4.9 3.4 7.15 3.4 7.05 3.35 6.95 M14.9 8.1 L17.85 10.05 18.0 10.25 14.9 8.1 M12.95 8.55 L17.65 11.75 17.8 12.0 12.95 8.55 M11.15 7.25 L9.95 6.4 9.85 6.3 9.85 6.2 11.15 7.25 M3.4 7.15 L5.2 6.3 3.5 7.15 3.55 7.15 3.6 7.6 3.55 7.7 5.35 6.85 3.45 7.8 5.3 6.9 3.45 7.85 7.85 5.7 7.9 5.75 9.35 4.95 9.8 4.65 9.85 4.6 9.85 4.5 11.35 5.7 11.95 6.05 11.9 6.1 9.8 4.65 9.9 4.75 9.6 4.95 9.45 5.0 8.6 5.55 3.4 8.05 3.45 7.85 3.45 7.8 3.4 7.15" fill="#7f6600" fill-rule="evenodd" stroke="none"/>
    <path d="M10.0 -1.25 L10.05 -1.2 10.85 0.5 11.05 0.85 12.5 2.55 13.8 3.7 18.6 6.9 18.6 6.95 18.4 6.85 13.2 3.35 13.25 3.3 13.15 3.25 12.8 2.9 12.85 2.9 12.55 2.65 11.95 2.05 10.75 0.5 10.0 -1.25 M18.6 6.95 L18.45 8.7 18.35 8.65 12.85 5.05 12.3 4.6 10.5 3.15 10.0 2.6 9.6 2.9 9.95 2.55 9.9 2.5 9.9 2.45 12.3 4.6 18.25 8.5 18.35 8.65 18.5 7.0 18.6 6.95 M8.65 3.65 L7.6 4.45 3.4 6.65 3.35 6.65 3.35 6.6 3.25 5.45 3.25 5.35 5.95 3.75 3.3 5.4 3.25 5.45 3.3 5.45 3.4 6.4 3.35 6.6 8.05 4.05 8.2 3.9 8.5 3.7 8.55 3.7 8.6 3.6 8.65 3.65 M6.45 3.45 L7.1 2.9 8.35 1.65 9.3 0.3 9.4 0.1 9.8 -0.9 9.9 -1.1 9.9 -0.95 9.85 -0.8 9.1 0.75 8.0 2.15 7.05 3.0 6.45 3.45 M10.0 5.1 L10.0 5.05 18.2 10.6 18.2 10.7 10.0 5.1 M18.2 10.7 L18.05 12.15 18.0 12.15 18.1 10.8 18.2 10.7 M17.9 12.1 L10.6 7.05 9.95 6.5 9.9 6.55 3.55 9.5 3.5 9.45 9.9 6.45 9.85 6.35 9.85 6.3 9.95 6.4 11.15 7.25 11.5 7.55 12.95 8.55 17.8 12.0 17.9 12.1 M3.5 9.4 L3.45 8.4 3.45 8.35 3.55 8.25 9.95 5.1 9.9 5.2 3.45 8.4 3.5 8.55 3.5 8.6 3.5 8.7 3.55 9.2 3.55 9.25 3.55 9.4 3.5 9.4 M12.4 4.95 L11.7 4.5 10.75 3.65 11.0 3.8 9.95 2.9 9.9 3.0 9.85 3.05 8.9 3.8 8.65 4.05 7.55 4.8 3.35 6.95 3.35 6.9 Q5.85 5.6 8.3 4.25 L8.85 3.75 9.95 2.9 10.0 2.85 12.4 4.95 M18.0 10.25 L18.15 10.4 18.3 9.0 18.35 8.9 15.3 6.9 18.4 8.85 18.35 8.9 18.25 10.4 18.2 10.45 18.15 10.4 10.25 5.1 9.95 4.8 9.8 4.9 9.7 5.0 9.55 5.05 8.65 5.6 3.45 8.1 3.4 8.05 3.35 6.95 3.4 7.05 3.4 7.15 3.45 7.8 3.45 7.85 3.4 8.05 8.6 5.55 9.45 5.0 9.6 4.95 9.9 4.75 9.8 4.65 11.9 6.1 14.9 8.1 18.0 10.25" fill="#000000" fill-rule="evenodd" stroke="none"/>
  </g>
</svg>
