<?xml version="1.0" encoding="UTF-8" standalone="no"?>
<svg xmlns:ffdec="https://www.free-decompiler.com/flash" xmlns:xlink="http://www.w3.org/1999/xlink" ffdec:objectType="shape" height="14.25px" width="14.15px" xmlns="http://www.w3.org/2000/svg">
  <g transform="matrix(1.0, 0.0, 0.0, 1.0, -4.15, 1.25)">
    <path d="M9.9 -1.15 L10.0 -0.8 10.05 -0.8 10.2 -0.45 10.25 -0.25 10.6 0.45 10.5 0.5 10.65 0.65 10.65 0.75 11.75 2.25 11.7 2.25 15.1 5.35 18.1 7.5 18.0 7.55 17.85 9.15 17.75 9.0 17.55 8.7 12.5 4.9 10.5 3.0 11.0 3.45 9.75 2.1 9.8 2.35 9.85 2.4 9.8 2.45 9.1 3.1 9.3 2.85 8.55 3.5 8.45 3.6 8.4 3.55 7.75 4.1 7.7 4.05 7.3 4.35 7.65 4.05 7.25 4.3 7.55 4.0 7.95 3.7 8.2 3.45 7.75 2.85 8.0 2.5 8.9 1.45 9.25 0.95 9.25 0.85 9.65 0.1 9.75 -0.25 9.75 -0.65 9.85 -1.0 9.9 -1.15 M9.85 3.0 L12.15 5.3 17.9 9.6 17.8 9.65 17.65 11.05 17.55 10.9 17.5 10.85 17.35 10.6 9.75 4.45 9.75 4.65 8.7 5.25 8.65 5.2 8.35 5.35 8.3 5.3 8.6 5.15 8.2 4.75 9.75 3.35 9.75 3.15 9.8 3.1 9.85 3.05 9.85 3.0 M9.75 6.25 L9.35 6.45 9.7 6.25 9.05 6.6 8.95 6.5 9.7 6.1 7.8 6.6 9.75 5.55 9.75 5.4 9.8 5.3 9.85 5.25 9.85 5.15 17.75 11.5 17.55 11.6 17.45 12.85 17.3 12.65 17.1 12.35 9.75 6.15 9.75 6.25" fill="#ffcc00" fill-rule="evenodd" stroke="none"/>
    <path d="M10.0 -1.25 L10.15 -0.95 10.55 0.15 11.1 1.1 11.05 1.1 11.3 1.35 11.4 1.55 12.1 2.45 13.9 4.2 18.3 7.45 18.2 7.45 18.05 9.3 17.85 9.15 18.0 7.55 18.1 7.5 15.1 5.35 11.7 2.25 11.75 2.25 10.65 0.75 10.65 0.65 10.5 0.5 10.6 0.45 10.25 -0.25 10.2 -0.45 10.05 -0.8 10.0 -0.8 9.9 -1.15 10.0 -1.25 M10.0 2.85 L11.3 4.2 11.45 4.4 12.5 5.4 18.05 9.5 18.0 9.55 17.85 11.15 17.75 11.15 17.65 11.05 17.8 9.65 17.9 9.6 12.15 5.3 9.85 3.0 9.95 2.85 10.0 2.85 M12.3 4.9 L11.25 3.95 10.65 3.3 12.3 4.9 10.65 3.3 9.85 2.4 9.8 2.35 9.75 2.1 11.0 3.45 10.5 3.0 12.5 4.9 17.55 8.7 17.75 9.0 12.3 4.9 M4.2 6.3 L4.2 6.15 4.25 6.05 4.2 5.2 4.15 5.2 4.2 5.15 6.75 3.45 8.25 2.0 8.3 1.9 8.75 1.3 8.85 1.2 9.1 0.75 9.5 0.0 9.55 -0.2 9.75 -0.65 9.75 -0.25 9.65 0.1 9.25 0.85 9.25 0.95 8.9 1.45 8.0 2.5 7.75 2.85 8.2 3.45 7.95 3.7 7.55 4.0 7.25 4.3 7.65 4.05 7.3 4.35 7.7 4.05 7.75 4.1 8.4 3.55 8.45 3.6 8.55 3.5 9.3 2.85 9.1 3.1 9.8 2.45 9.95 2.6 8.0 4.2 7.95 4.15 7.55 4.45 7.5 4.45 4.2 6.3 M4.3 7.6 L4.25 6.65 8.35 4.35 8.8 3.9 8.95 3.85 9.7 3.15 9.8 3.1 9.75 3.15 9.75 3.35 8.2 4.75 8.6 5.15 8.3 5.3 8.35 5.35 8.65 5.2 8.7 5.25 9.75 4.65 9.75 4.45 17.35 10.6 17.5 10.85 17.55 10.9 10.25 5.15 10.3 5.15 9.95 4.8 9.8 4.65 9.8 4.7 9.9 4.8 8.95 5.35 8.9 5.3 4.3 7.6 M17.65 13.0 L17.55 12.95 17.45 12.85 17.55 11.6 17.75 11.5 9.85 5.15 10.0 5.05 17.9 11.4 17.8 11.5 17.65 13.0 M15.4 11.1 L14.8 10.6 12.25 8.5 11.1 7.5 9.75 6.25 9.8 6.35 9.85 6.4 9.05 6.9 4.4 9.0 4.4 8.95 4.35 8.1 4.3 8.05 9.85 5.25 9.8 5.3 9.75 5.4 9.75 5.55 7.8 6.6 9.7 6.1 8.95 6.5 9.05 6.6 9.7 6.25 9.35 6.45 9.75 6.25 9.75 6.15 17.1 12.35 17.3 12.65 15.4 11.1" fill="#7f6600" fill-rule="evenodd" stroke="none"/>
    <path d="M18.3 7.45 L13.9 4.2 12.1 2.45 11.4 1.55 11.3 1.35 11.05 1.1 11.1 1.1 10.55 0.15 10.15 -0.95 10.0 -1.25 10.1 -1.2 10.1 -1.1 10.9 0.65 11.35 1.4 12.5 2.8 18.3 7.35 18.3 7.45 18.15 9.2 18.05 9.3 18.2 7.45 18.3 7.45 M17.85 11.15 L18.0 9.55 18.05 9.5 12.5 5.4 11.45 4.4 11.3 4.2 10.0 2.85 10.2 2.95 11.3 4.2 12.55 5.35 18.05 9.45 18.05 9.5 17.9 11.05 17.9 11.15 17.85 11.15 M10.65 3.3 L10.0 2.65 9.85 2.75 8.7 3.8 8.0 4.2 4.4 6.3 4.2 6.3 7.5 4.45 7.55 4.45 7.95 4.15 8.0 4.2 9.95 2.6 9.8 2.45 9.85 2.4 10.65 3.3 M4.2 6.15 L4.15 5.2 4.15 5.1 4.2 5.1 6.6 3.5 8.2 2.0 8.5 1.6 8.55 1.5 9.05 0.8 9.1 0.75 9.45 -0.05 9.55 -0.25 9.85 -1.0 9.75 -0.65 9.55 -0.2 9.5 0.0 9.1 0.75 8.85 1.2 8.75 1.3 8.3 1.9 8.25 2.0 6.75 3.45 4.2 5.15 4.15 5.2 4.2 5.2 4.25 6.05 4.2 6.15 M17.75 9.0 L17.85 9.15 12.4 5.0 12.3 4.9 17.75 9.0 M10.0 5.05 L10.05 5.05 10.25 5.15 9.95 4.8 9.85 4.9 9.7 5.0 4.35 7.7 4.3 7.65 4.3 7.6 8.9 5.3 8.95 5.35 9.9 4.8 9.8 4.7 9.8 4.65 9.95 4.8 10.3 5.15 10.25 5.15 17.55 10.9 17.65 11.05 16.2 9.95 17.9 11.3 17.9 11.4 17.75 12.9 17.65 13.0 17.8 11.5 17.9 11.4 10.0 5.05 M4.25 6.65 L4.25 6.55 7.95 4.55 8.8 3.9 9.7 3.1 9.85 3.0 9.85 3.05 9.8 3.1 9.7 3.15 8.95 3.85 8.8 3.9 8.35 4.35 4.25 6.65 M17.45 12.85 L15.4 11.1 17.3 12.65 17.45 12.85 M11.1 7.5 L9.9 6.5 9.85 6.5 9.15 6.95 4.45 9.05 4.4 9.0 9.05 6.9 9.85 6.4 9.8 6.35 9.75 6.25 11.1 7.5 M4.4 8.95 L4.3 8.05 4.3 7.95 9.85 5.15 9.85 5.25 4.3 8.05 4.35 8.1 4.4 8.95" fill="#000000" fill-rule="evenodd" stroke="none"/>
  </g>
</svg>
