<?xml version="1.0" encoding="UTF-8" standalone="no"?>
<svg xmlns:ffdec="https://www.free-decompiler.com/flash" xmlns:xlink="http://www.w3.org/1999/xlink" ffdec:objectType="shape" height="15.0px" width="12.45px" xmlns="http://www.w3.org/2000/svg">
  <g transform="matrix(1.0, 0.0, 0.0, 1.0, -5.15, 1.25)">
    <path d="M9.95 -1.2 L10.45 0.4 10.65 0.8 10.55 0.8 11.5 2.25 11.45 2.3 11.65 2.6 17.3 8.0 17.15 9.85 16.9 9.65 16.75 9.45 16.6 9.1 12.2 5.1 12.25 5.1 13.4 5.25 12.85 4.75 12.9 4.7 11.0 2.5 10.85 2.2 10.35 1.45 9.65 -0.2 9.9 0.25 9.7 -0.4 9.7 -0.45 9.7 -0.7 9.8 -0.95 9.9 -1.25 9.95 -1.2 M9.7 2.3 L9.45 2.55 9.7 2.25 9.75 2.3 9.7 2.3 M16.7 13.7 L16.5 13.5 16.4 13.3 16.25 13.05 16.3 12.3 10.65 6.5 10.8 6.65 9.7 5.5 9.7 5.35 9.85 5.15 16.95 12.2 16.85 12.25 16.7 13.7 M9.75 3.0 L9.85 2.95 11.2 4.65 11.15 4.65 11.95 5.55 17.15 10.2 17.05 10.25 16.95 11.55 16.95 10.9 16.9 11.75 16.7 11.6 16.6 11.45 16.5 11.35 16.3 10.95 11.4 6.15 16.35 10.3 12.1 6.25 12.65 6.75 10.2 4.15 10.25 4.1 9.7 3.3 9.7 3.2 9.7 3.1 9.75 3.15 9.75 3.0" fill="#ffcc00" fill-rule="evenodd" stroke="none"/>
    <path d="M17.35 9.85 L17.5 7.95 17.55 7.9 13.35 4.2 12.3 3.05 12.35 3.05 10.85 0.85 10.7 0.45 10.6 0.3 10.1 -1.2 10.15 -1.2 10.75 0.5 11.95 2.45 13.65 4.4 17.6 7.85 17.4 9.75 17.4 9.8 17.35 9.85 M9.7 -0.45 L9.6 -0.3 9.35 0.5 9.2 0.85 8.35 2.15 8.3 2.2 8.1 2.5 6.95 3.65 5.2 5.0 5.25 5.8 5.2 5.9 5.15 4.9 5.2 4.9 7.35 3.2 8.45 1.9 8.55 1.7 8.9 1.2 9.45 0.05 9.55 -0.35 9.7 -0.7 9.7 -0.45 M5.25 6.0 L7.85 4.35 7.95 4.35 8.35 4.05 8.55 3.85 8.6 3.9 8.85 3.7 9.15 3.4 9.2 3.4 9.4 3.15 9.75 2.8 9.95 2.65 9.7 2.3 9.75 2.3 11.25 4.25 16.75 9.45 16.9 9.65 17.15 9.85 17.35 10.05 17.2 11.7 17.15 11.85 17.1 11.85 17.25 10.15 17.3 10.1 13.05 6.15 12.2 5.45 11.35 4.55 10.55 3.5 10.65 3.6 10.5 3.4 10.0 2.85 10.05 2.85 10.0 2.7 8.9 3.75 8.3 4.25 5.5 6.0 5.4 6.05 5.3 6.05 5.25 6.0 M17.05 11.85 L17.2 12.0 17.2 12.05 17.05 13.55 17.0 13.7 16.95 13.75 17.1 12.15 17.2 12.05 16.95 11.8 17.05 11.85 M16.5 13.5 L9.9 6.55 9.85 6.6 5.55 8.65 5.35 8.65 5.35 8.6 8.4 7.15 8.45 7.15 9.0 6.85 9.05 6.9 9.75 6.45 9.8 6.4 9.75 6.4 9.65 6.2 16.4 13.3 16.5 13.5 M5.35 8.5 L5.3 7.8 5.35 7.85 5.4 8.35 5.35 8.5 M5.3 7.75 L5.3 7.65 9.85 5.15 9.7 5.35 8.0 6.3 8.0 6.35 5.3 7.75 M10.0 5.05 L10.05 5.05 9.9 4.9 9.7 5.0 9.35 5.25 9.3 5.3 5.5 7.35 5.3 7.35 5.3 7.3 8.7 5.45 8.8 5.45 9.2 5.2 9.3 5.15 9.6 4.9 9.8 4.8 9.75 4.7 9.7 4.5 10.35 5.35 16.5 11.35 16.6 11.45 16.7 11.6 16.9 11.75 16.75 11.7 16.7 11.6 12.2 7.2 12.15 7.2 10.0 5.05 M5.25 7.15 L5.25 6.45 5.25 6.3 8.15 4.55 8.75 4.05 9.2 3.55 9.25 3.5 9.55 3.25 9.75 3.0 9.75 3.15 9.7 3.1 9.7 3.2 9.0 3.85 8.9 4.0 8.05 4.75 5.25 6.45 5.3 7.05 5.25 7.15 M13.05 6.15 L13.65 6.7 12.55 5.65 13.05 6.15 M11.1 4.1 L11.25 4.25 11.1 4.1 M9.8 -0.95 L9.7 -0.7 9.75 -0.85 9.8 -0.95" fill="#000000" fill-rule="evenodd" stroke="none"/>
    <path d="M9.95 -1.2 L9.95 -1.25 10.0 -1.25 10.1 -1.2 10.6 0.3 10.7 0.45 10.85 0.85 12.35 3.05 12.3 3.05 13.35 4.2 17.55 7.9 17.5 7.95 17.35 9.85 17.25 9.9 17.15 9.85 17.3 8.0 11.65 2.6 11.45 2.3 11.5 2.25 10.55 0.8 10.65 0.8 10.45 0.4 9.95 -1.2 M9.7 -0.45 L9.7 -0.4 9.9 0.25 9.65 -0.2 10.35 1.45 10.85 2.2 11.0 2.5 12.9 4.7 12.85 4.75 13.4 5.25 12.25 5.1 12.2 5.1 16.6 9.1 16.75 9.45 11.25 4.25 9.75 2.3 9.7 2.25 9.45 2.55 9.7 2.3 9.95 2.65 9.75 2.8 9.4 3.15 9.2 3.4 9.15 3.4 8.85 3.7 8.6 3.9 8.55 3.85 8.35 4.05 7.95 4.35 7.85 4.35 5.25 6.0 5.2 6.0 5.2 5.9 5.25 5.8 5.2 5.0 6.95 3.65 8.1 2.5 8.3 2.2 8.35 2.15 9.2 0.85 9.35 0.5 9.6 -0.3 9.7 -0.45 M17.1 11.85 L17.05 11.85 16.95 11.8 17.2 12.05 17.1 12.15 16.95 13.75 16.85 13.75 16.7 13.7 16.85 12.25 16.95 12.2 9.85 5.15 10.0 5.05 12.15 7.2 12.2 7.2 16.7 11.6 16.75 11.7 16.9 11.75 16.95 10.9 16.95 11.55 17.05 10.25 17.15 10.2 11.95 5.55 11.15 4.65 11.2 4.65 9.85 2.95 9.85 2.9 9.95 2.85 10.0 2.85 10.5 3.4 10.65 3.6 10.55 3.5 11.35 4.55 12.2 5.45 13.05 6.15 17.3 10.1 17.25 10.15 17.1 11.85 M5.35 8.6 L5.35 8.5 5.4 8.35 5.35 7.85 5.3 7.8 5.3 7.75 8.0 6.35 8.0 6.3 9.7 5.35 9.7 5.5 10.8 6.65 10.65 6.5 16.3 12.3 16.25 13.05 16.4 13.3 9.65 6.2 9.75 6.4 9.8 6.4 9.75 6.45 9.05 6.9 9.0 6.85 8.45 7.15 8.4 7.15 5.35 8.6 M5.3 7.3 L5.25 7.2 5.25 7.15 5.3 7.05 5.25 6.45 8.05 4.75 8.9 4.0 9.0 3.85 9.7 3.2 9.7 3.3 10.25 4.1 10.2 4.15 12.65 6.75 12.1 6.25 16.35 10.3 11.4 6.15 16.3 10.95 16.5 11.35 10.35 5.35 9.7 4.5 9.75 4.7 9.8 4.8 9.6 4.9 9.3 5.15 9.2 5.2 8.8 5.45 8.7 5.45 5.3 7.3 M9.7 5.55 L10.25 6.1 10.65 6.5 10.25 6.1 9.7 5.55" fill="#7f6600" fill-rule="evenodd" stroke="none"/>
  </g>
</svg>
