<?xml version="1.0" encoding="UTF-8" standalone="no"?>
<svg xmlns:ffdec="https://www.free-decompiler.com/flash" xmlns:xlink="http://www.w3.org/1999/xlink" ffdec:objectType="shape" height="15.75px" width="10.2px" xmlns="http://www.w3.org/2000/svg">
  <g transform="matrix(1.0, 0.0, 0.0, 1.0, -6.2, 1.25)">
    <path d="M10.15 -1.15 L10.35 -0.45 10.35 -0.5 10.45 -0.15 10.45 -0.2 10.55 0.3 11.25 1.9 11.2 1.9 12.65 4.1 12.6 4.1 13.45 5.05 13.4 5.1 16.35 8.35 16.3 8.4 16.15 10.4 16.1 10.45 16.0 10.45 16.2 10.65 16.1 10.65 16.0 12.45 15.95 12.5 15.85 12.5 16.05 12.7 15.95 12.75 15.85 14.45 15.65 14.5 15.6 14.45 15.7 12.85 15.8 12.8 11.55 7.4 11.5 7.4 9.8 5.15 9.95 5.1 10.0 5.1 10.5 5.85 15.3 12.05 15.5 12.35 15.7 12.5 15.65 12.45 15.7 12.45 15.85 10.75 15.9 10.75 11.4 5.45 10.05 3.3 10.0 3.3 9.8 2.95 9.9 2.85 9.9 2.9 9.95 2.85 10.0 2.85 10.45 3.7 11.45 5.15 15.55 10.05 15.7 10.3 15.85 10.35 15.95 10.45 16.1 8.45 16.05 8.45 14.2 6.3 14.1 6.35 11.85 3.6 11.95 3.6 11.15 2.3 11.2 2.3 11.15 2.2 11.0 2.0 10.9 1.9 11.0 1.9 10.55 1.1 10.45 0.8 10.5 0.8 10.4 0.45 10.45 0.45 10.25 -0.05 10.1 -0.8 10.05 -0.8 9.95 -1.25 10.0 -1.25 10.1 -1.2 10.15 -1.15 M9.65 -0.55 L10.1 1.05 10.75 2.45 11.9 4.25 12.75 5.3 12.7 5.35 12.7 5.4 15.4 8.5 15.35 9.75 13.65 7.75 14.4 8.6 11.05 4.55 9.65 2.2 9.65 2.35 9.9 2.7 9.85 2.8 9.4 3.35 8.95 3.85 8.9 3.8 8.65 4.1 8.6 4.05 8.35 4.3 8.25 4.3 6.3 5.85 7.7 4.7 6.3 5.8 6.25 5.75 6.25 5.55 7.95 4.05 6.45 4.75 7.65 3.6 7.9 3.3 7.95 3.25 8.5 2.45 8.55 2.4 9.3 0.75 9.35 0.5 9.5 0.15 9.65 -0.55 M9.65 3.2 L9.9 3.55 10.15 4.05 10.1 4.1 10.7 5.05 14.25 9.6 13.75 8.95 15.25 10.85 15.15 11.8 10.05 5.15 10.0 5.1 10.0 5.05 9.95 5.0 9.6 4.45 9.65 4.55 9.65 4.6 9.8 4.8 9.75 4.85 9.65 4.9 9.3 5.2 9.2 5.25 9.15 5.25 8.7 5.55 8.65 5.5 6.3 7.0 6.3 6.8 8.45 5.3 6.35 6.3 8.35 4.85 8.3 4.8 8.7 4.4 8.85 4.3 8.85 4.25 9.6 3.35 9.65 3.25 9.65 3.2 M6.35 8.15 L8.8 6.7 6.95 7.75 8.45 6.85 6.4 7.6 8.35 6.35 8.35 6.3 9.65 5.45 9.65 5.35 12.05 8.75 15.1 12.9 15.2 12.9 15.1 13.95 15.05 13.8 10.5 7.55 10.05 6.9 10.1 6.9 9.65 6.1 9.65 6.25 9.75 6.45 9.7 6.4 9.3 6.75 9.25 6.7 8.95 6.95 8.9 6.9 8.65 7.05 8.6 7.0 7.2 7.8 7.7 7.5 6.75 8.0 9.65 6.3 6.35 8.15 M11.35 7.8 L12.05 8.75 11.35 7.8 M15.6 14.45 L15.6 14.5 15.5 14.45 15.6 13.55 15.6 14.45" fill="#7f6600" fill-rule="evenodd" stroke="none"/>
    <path d="M16.15 10.4 L16.3 8.4 16.35 8.35 13.4 5.1 13.45 5.05 12.6 4.1 12.65 4.1 11.2 1.9 11.25 1.9 10.55 0.3 10.45 -0.2 10.45 -0.15 10.35 -0.5 10.35 -0.45 10.15 -1.15 10.25 -1.05 10.8 0.85 12.35 3.6 16.4 8.25 16.3 10.15 16.25 10.25 16.15 10.4 M15.55 10.05 L11.45 5.15 10.45 3.7 10.0 2.85 9.95 2.85 9.9 2.9 9.9 2.85 9.8 2.95 9.75 3.0 9.65 3.2 9.65 3.25 9.6 3.35 8.85 4.25 8.85 4.3 8.7 4.4 8.3 4.8 8.35 4.85 6.35 6.3 8.45 5.3 6.3 6.8 6.3 6.1 8.5 4.5 8.75 4.2 6.65 5.8 6.55 5.85 6.4 5.9 6.3 5.85 6.3 5.8 7.7 4.7 6.3 5.85 8.25 4.3 8.35 4.3 8.6 4.05 8.65 4.1 8.9 3.8 8.95 3.85 9.4 3.35 9.85 2.8 9.9 2.7 9.65 2.35 9.65 2.2 11.05 4.55 14.4 8.6 13.65 7.75 15.35 9.75 15.55 10.05 M15.3 12.05 L10.5 5.85 10.0 5.1 10.05 5.15 15.15 11.8 15.3 12.05 M15.85 14.45 L15.95 12.75 16.05 12.7 15.85 12.5 15.95 12.5 16.05 12.65 16.05 12.7 16.05 13.0 15.95 14.2 15.9 14.35 15.85 14.45 M16.0 12.45 L16.1 10.65 16.2 10.65 16.0 10.45 16.1 10.45 16.2 10.6 16.2 10.65 16.1 12.2 16.05 12.4 16.0 12.45 M6.3 7.0 L8.65 5.5 8.7 5.55 9.15 5.25 9.2 5.25 9.3 5.2 9.65 4.9 9.75 4.85 9.8 4.8 9.65 4.6 9.65 4.55 9.6 4.45 9.95 5.0 9.9 4.95 9.75 5.05 9.45 5.3 6.65 7.05 6.55 7.1 6.4 7.15 6.35 7.1 6.3 7.0 M6.25 5.55 L6.25 4.85 6.2 4.9 6.25 4.8 6.2 4.75 7.55 3.5 8.25 2.65 9.35 0.45 9.55 -0.4 9.65 -0.55 9.5 0.15 9.35 0.5 9.3 0.75 8.55 2.4 8.5 2.45 7.95 3.25 7.9 3.3 7.65 3.6 6.45 4.75 7.95 4.05 6.25 5.55 M9.65 5.35 L9.65 5.45 8.35 6.3 8.35 6.35 6.4 7.6 8.45 6.85 6.95 7.75 8.8 6.7 6.35 8.15 6.35 7.45 6.4 7.35 9.75 5.2 9.65 5.35 M6.35 8.15 L9.65 6.3 6.75 8.0 7.7 7.5 7.2 7.8 8.6 7.0 8.65 7.05 8.9 6.9 8.95 6.95 9.25 6.7 9.3 6.75 9.7 6.4 9.75 6.45 9.65 6.25 9.65 6.1 10.1 6.9 9.9 6.65 9.85 6.6 6.65 8.35 6.4 8.35 6.35 8.25 6.35 8.15 M10.5 7.55 L15.05 13.8 15.1 13.95 15.15 14.05 10.75 7.95 10.5 7.55" fill="#000000" fill-rule="evenodd" stroke="none"/>
    <path d="M9.95 -1.25 L10.05 -0.8 10.1 -0.8 10.25 -0.05 10.45 0.45 10.4 0.45 10.5 0.8 10.45 0.8 10.55 1.1 11.0 1.9 10.9 1.9 11.0 2.0 11.15 2.2 11.2 2.3 11.15 2.3 11.95 3.6 11.85 3.6 14.1 6.35 14.2 6.3 16.05 8.45 16.1 8.45 15.95 10.45 15.85 10.35 15.7 10.3 15.55 10.05 15.35 9.75 15.4 8.5 12.7 5.4 12.7 5.35 12.75 5.3 11.9 4.25 10.75 2.45 10.1 1.05 9.65 -0.55 9.65 -0.75 9.7 -0.95 9.8 -1.15 9.95 -1.25 M9.8 2.95 L10.0 3.3 10.05 3.3 11.4 5.45 15.9 10.75 15.85 10.75 15.7 12.45 15.65 12.45 15.7 12.5 15.5 12.35 15.3 12.05 15.15 11.8 15.25 10.85 13.75 8.95 14.25 9.6 10.7 5.05 10.1 4.1 10.15 4.05 9.9 3.55 9.65 3.2 9.75 3.0 9.8 2.95 M9.8 5.15 L11.5 7.4 11.55 7.4 15.8 12.8 15.7 12.85 15.6 14.45 15.6 13.55 15.5 14.45 15.35 14.3 15.15 14.05 15.1 13.95 15.2 12.9 15.1 12.9 12.05 8.75 9.65 5.35 9.75 5.2 9.8 5.15" fill="#ffcc00" fill-rule="evenodd" stroke="none"/>
  </g>
</svg>
