<?xml version="1.0" encoding="UTF-8" standalone="no"?>
<svg xmlns:ffdec="https://www.free-decompiler.com/flash" xmlns:xlink="http://www.w3.org/1999/xlink" ffdec:objectType="shape" height="16.35px" width="7.45px" xmlns="http://www.w3.org/2000/svg">
  <g transform="matrix(1.0, 0.0, 0.0, 1.0, -7.35, 1.25)">
    <path d="M10.0 -1.25 L10.15 -1.2 10.25 -1.1 10.6 0.6 10.75 1.15 10.7 1.15 11.35 2.7 11.4 2.8 12.2 4.65 14.75 8.75 14.65 10.75 14.55 10.85 14.45 10.85 14.6 11.15 14.5 12.8 14.45 12.9 14.4 12.95 14.35 13.0 14.5 13.25 14.45 13.3 14.35 14.95 14.25 15.05 14.15 15.1 14.05 15.05 14.05 15.1 14.0 15.05 14.05 14.1 14.1 14.45 14.15 13.35 14.2 13.35 14.05 13.0 14.15 13.0 14.25 11.35 14.25 12.2 14.35 11.2 14.25 11.2 14.0 10.75 14.05 10.8 14.25 10.9 14.35 10.9 14.45 8.8 14.35 8.8 13.65 7.6 13.4 7.25 13.35 7.25 12.9 6.5 12.85 6.55 12.55 6.0 12.0 5.3 12.05 5.25 11.65 4.7 11.75 4.65 11.4 4.15 11.45 4.15 11.5 4.1 11.25 3.65 11.05 3.15 11.1 3.15 10.85 2.75 10.95 2.7 10.65 1.9 10.7 1.9 10.45 1.15 10.5 1.15 10.35 0.75 10.45 0.8 10.3 0.2 10.25 0.15 10.35 0.15 10.2 -0.5 10.15 -0.5 10.0 -1.25 M9.65 -0.9 L9.65 -0.6 10.05 1.25 10.05 1.2 11.1 3.85 11.3 4.2 11.25 4.2 11.55 4.75 12.25 5.95 12.2 6.0 13.0 7.35 12.95 7.4 13.8 8.85 13.7 10.35 13.65 10.2 13.55 9.9 10.95 5.25 10.95 5.2 12.0 6.1 11.6 5.5 11.65 5.5 10.25 2.45 9.7 0.55 9.7 0.45 9.65 0.1 9.55 -0.15 9.6 -0.7 9.65 -0.9 M12.3 7.75 L11.05 5.65 12.05 7.45 10.7 5.15 10.75 5.15 10.55 4.7 10.6 4.7 12.3 7.75 M10.0 3.3 L9.85 3.3 10.0 3.7 9.9 3.7 10.0 4.1 10.55 5.25 10.6 5.2 10.85 5.7 10.55 5.25 10.75 5.75 12.6 9.2 11.45 7.15 13.65 11.25 13.75 11.25 13.65 12.65 13.55 12.35 13.4 11.95 10.2 5.85 10.4 6.3 9.9 5.35 10.9 7.5 10.05 5.75 10.85 7.5 9.7 5.2 10.15 6.1 9.7 5.25 10.75 7.55 10.7 7.6 11.4 8.95 11.2 8.6 13.55 13.4 13.65 13.4 13.65 14.8 13.55 14.65 13.4 14.35 13.3 13.95 13.35 13.35 13.4 13.35 9.6 5.5 9.6 5.3 9.7 5.25 9.7 5.2 9.75 5.15 9.8 5.15 9.85 5.1 9.9 5.15 10.2 5.85 13.4 11.2 12.35 9.2 13.45 11.2 10.3 5.35 9.6 3.35 9.6 3.2 9.55 3.25 9.4 3.55 9.4 3.6 9.35 3.55 9.35 3.6 9.3 3.75 9.25 3.8 9.2 3.8 9.05 4.0 9.0 4.0 8.85 4.25 8.7 4.2 8.6 4.15 8.55 4.1 8.85 3.65 8.8 3.6 9.0 3.35 9.2 2.95 9.25 2.8 9.6 2.2 10.0 3.3 M11.55 4.75 L11.6 4.7 11.95 5.3 11.55 4.75 M9.4 5.1 L9.3 5.2 9.15 5.15 9.25 4.95 9.35 4.85 9.35 4.8 9.6 4.55 9.7 4.75 9.65 4.85 9.7 4.85 9.6 4.95 9.6 5.05 9.5 5.0 9.45 5.1 9.4 5.1" fill="#7f6600" fill-rule="evenodd" stroke="none"/>
    <path d="M10.0 -1.25 L10.15 -0.5 10.2 -0.5 10.35 0.15 10.25 0.15 10.3 0.2 10.45 0.8 10.35 0.75 10.5 1.15 10.45 1.15 10.7 1.9 10.65 1.9 10.95 2.7 10.85 2.75 11.1 3.15 11.05 3.15 11.25 3.65 11.5 4.1 11.45 4.15 11.4 4.15 11.75 4.65 11.65 4.7 12.05 5.25 12.0 5.3 12.55 6.0 12.85 6.55 12.9 6.5 13.35 7.25 13.4 7.25 13.65 7.6 14.35 8.8 14.45 8.8 14.35 10.9 14.25 10.9 14.05 10.8 14.0 10.75 14.25 11.2 14.35 11.2 14.25 12.2 14.25 11.35 14.15 13.0 14.05 13.0 14.2 13.35 14.15 13.35 14.1 14.45 14.05 14.1 14.0 15.05 13.9 15.05 13.65 14.8 13.65 13.4 13.55 13.4 11.2 8.6 11.4 8.95 10.7 7.6 10.75 7.55 9.7 5.25 10.15 6.1 9.7 5.2 10.85 7.5 10.05 5.75 10.9 7.5 9.9 5.35 10.4 6.3 13.55 12.35 13.65 12.65 13.75 11.25 13.65 11.25 11.45 7.15 12.6 9.2 10.75 5.75 10.55 5.25 10.85 5.7 10.6 5.2 10.55 5.25 10.0 4.1 9.9 3.7 10.0 3.7 9.85 3.3 10.0 3.3 10.1 3.6 10.6 4.7 10.55 4.7 10.75 5.15 10.7 5.15 12.05 7.45 11.05 5.65 12.3 7.75 13.65 10.2 13.7 10.4 13.7 10.35 13.8 8.85 12.95 7.4 13.0 7.35 12.2 6.0 12.25 5.95 11.55 4.75 11.25 4.2 11.3 4.2 11.1 3.85 10.05 1.2 10.05 1.25 9.65 -0.6 9.65 -0.9 9.75 -1.1 9.9 -1.25 10.0 -1.25 M11.55 4.75 L11.95 5.3 11.6 4.7 11.55 4.75" fill="#ffcc00" fill-rule="evenodd" stroke="none"/>
    <path d="M14.35 14.95 L14.45 13.3 14.5 13.25 14.35 13.0 14.4 12.95 14.5 13.1 14.5 13.0 14.55 13.2 14.45 14.75 14.4 14.85 14.4 14.9 14.35 14.95 M14.5 12.8 L14.6 11.15 14.45 10.85 14.55 10.85 14.7 11.1 14.65 11.85 14.6 11.95 14.55 12.6 14.5 12.8 M14.65 10.75 L14.75 8.75 12.2 4.65 11.4 2.8 14.8 8.7 14.7 10.55 14.65 10.75 M11.35 2.7 L10.7 1.15 10.75 1.15 10.6 0.6 10.25 -1.1 10.45 -0.5 10.75 1.0 11.35 2.7 M9.6 -0.7 L9.55 -0.15 9.65 0.1 9.7 0.45 9.7 0.55 10.25 2.45 11.65 5.5 11.6 5.5 12.0 6.1 10.95 5.2 10.95 5.25 13.55 9.9 13.65 10.2 13.7 10.35 13.7 10.4 13.65 10.2 12.3 7.75 10.6 4.7 10.1 3.6 10.0 3.3 9.6 2.2 9.25 2.8 9.2 2.95 9.0 3.35 8.8 3.6 8.85 3.65 8.55 4.1 8.6 4.15 8.7 4.2 8.85 4.25 9.0 4.0 9.05 4.0 9.2 3.8 9.25 3.8 9.3 3.75 9.35 3.6 9.35 3.55 9.4 3.6 9.4 3.55 9.55 3.25 9.6 3.2 9.6 3.35 10.3 5.35 13.45 11.2 12.35 9.2 13.4 11.2 10.2 5.85 9.9 5.15 9.85 5.1 9.8 5.15 9.75 5.15 9.7 5.2 9.7 5.25 9.6 5.3 9.6 5.5 13.4 13.35 13.35 13.35 13.3 13.95 13.4 14.35 9.85 6.7 9.8 6.75 7.85 8.1 7.75 8.15 7.55 8.2 7.5 8.15 7.45 8.05 7.45 7.95 7.4 7.25 7.8 6.9 7.7 6.9 7.5 6.95 7.4 6.85 7.4 6.0 7.65 5.75 7.5 5.75 7.45 5.7 7.35 5.55 7.35 4.65 8.4 3.2 8.75 2.45 8.8 2.4 8.85 2.15 9.0 1.8 9.05 1.75 9.5 0.15 9.5 0.0 9.6 -0.7 M13.55 12.35 L10.4 6.3 10.2 5.85 13.4 11.95 13.55 12.35 M9.4 5.1 L9.45 5.1 9.5 5.0 9.6 5.05 9.6 4.95 9.7 4.85 9.65 4.85 9.7 4.75 9.6 4.55 9.35 4.8 9.35 4.85 9.25 4.95 9.15 5.15 9.3 5.2 9.4 5.1" fill="#000000" fill-rule="evenodd" stroke="none"/>
  </g>
</svg>
