<?xml version="1.0" encoding="UTF-8" standalone="no"?>
<svg xmlns:ffdec="https://www.free-decompiler.com/flash" xmlns:xlink="http://www.w3.org/1999/xlink" ffdec:objectType="shape" height="16.75px" width="4.35px" xmlns="http://www.w3.org/2000/svg">
  <g transform="matrix(1.0, 0.0, 0.0, 1.0, -8.5, 1.25)">
    <path d="M10.1 -1.2 L10.25 -1.1 10.35 -1.0 10.5 0.6 10.55 0.85 10.5 0.85 11.25 4.2 11.2 4.15 11.4 4.75 11.35 4.7 11.65 5.75 11.9 6.2 12.8 9.0 12.7 10.9 12.65 11.0 12.6 11.1 12.7 11.45 12.65 13.0 12.6 13.15 12.55 13.2 12.65 13.6 12.55 15.15 12.4 15.4 12.25 15.5 12.3 13.7 12.35 13.7 12.25 13.35 12.35 13.35 12.4 11.5 12.25 11.5 12.2 11.2 12.45 11.2 12.5 11.15 12.55 9.0 12.5 9.05 12.35 9.05 12.1 8.2 11.95 8.2 11.6 7.4 11.55 7.4 11.85 8.3 11.5 7.45 11.7 8.25 11.65 8.25 11.9 9.1 11.8 9.05 11.8 10.85 11.6 10.45 11.9 11.5 11.8 11.5 11.8 13.1 11.65 12.85 11.6 12.8 11.55 12.6 11.6 11.5 11.55 11.45 9.55 3.2 9.55 3.25 9.5 3.55 9.4 3.8 9.4 3.75 9.3 3.7 9.6 2.4 10.2 5.3 11.55 10.3 11.6 9.05 10.95 6.85 11.2 7.55 10.35 4.6 9.55 -0.5 9.6 -0.75 9.7 -0.95 9.7 -0.9 9.9 0.85 9.95 0.85 10.0 1.55 10.05 1.55 10.2 2.35 10.25 2.35 10.35 2.75 10.4 2.75 10.25 2.35 10.4 2.3 10.3 1.9 10.35 1.9 10.3 1.55 10.35 1.5 10.2 1.15 10.3 1.15 10.2 0.8 10.35 0.8 10.25 0.45 10.3 0.45 10.1 -1.2 M11.5 14.75 L11.55 13.65 11.5 13.65 10.95 11.3 11.25 12.4 9.6 5.35 9.65 5.25 9.7 5.2 10.8 9.6 10.55 8.75 11.75 13.7 11.85 13.7 11.8 15.3 11.75 15.25 11.5 14.75" fill="#7f6600" fill-rule="evenodd" stroke="none"/>
    <path d="M10.1 -1.2 L10.3 0.45 10.25 0.45 10.35 0.8 10.2 0.8 10.3 1.15 10.2 1.15 10.35 1.5 10.3 1.55 10.35 1.9 10.3 1.9 10.4 2.3 10.25 2.35 10.4 2.75 10.35 2.75 10.25 2.35 10.2 2.35 10.05 1.55 10.0 1.55 9.95 0.85 9.9 0.85 9.7 -0.9 9.7 -0.95 9.75 -1.1 9.85 -1.2 10.0 -1.25 10.1 -1.25 10.1 -1.2 M11.55 12.6 L11.6 12.8 11.65 12.85 11.8 13.1 11.8 11.5 11.9 11.5 11.6 10.45 11.8 10.85 11.8 9.05 11.9 9.1 11.65 8.25 11.7 8.25 11.5 7.45 11.85 8.3 11.55 7.4 11.6 7.4 11.95 8.2 12.1 8.2 12.35 9.05 12.5 9.05 12.55 9.0 12.5 11.15 12.45 11.2 12.2 11.2 12.25 11.5 12.4 11.5 12.35 13.35 12.25 13.35 12.35 13.7 12.3 13.7 12.25 15.5 12.15 15.5 12.05 15.45 11.95 15.45 11.8 15.3 11.85 13.7 11.75 13.7 10.55 8.75 10.8 9.6 11.55 12.6" fill="#ffcc00" fill-rule="evenodd" stroke="none"/>
    <path d="M9.55 -0.5 L10.35 4.6 11.2 7.55 10.95 6.85 11.6 9.05 11.55 10.3 10.2 5.3 9.6 2.4 9.3 3.7 9.4 3.75 9.4 3.8 9.5 3.55 9.55 3.25 9.55 3.2 11.55 11.45 11.6 11.5 11.55 12.6 10.8 9.6 9.7 5.2 9.65 5.25 9.6 5.35 11.25 12.4 10.95 11.3 11.5 13.65 11.55 13.65 11.5 14.75 9.8 7.1 9.1 7.9 9.05 8.0 8.85 8.05 8.65 8.0 8.55 7.9 8.55 7.8 8.5 7.2 8.75 6.85 8.65 6.8 8.6 6.75 8.55 6.65 8.5 6.6 8.5 6.0 8.65 5.65 8.6 5.6 8.5 5.4 8.5 4.65 9.25 2.05 9.25 1.95 9.4 1.3 9.5 0.35 9.55 -0.5 M12.55 15.15 L12.65 13.6 12.55 13.2 12.6 13.15 12.7 13.55 12.7 14.4 12.65 14.35 12.65 14.85 12.55 15.15 M12.65 13.0 L12.7 11.45 12.6 11.1 12.65 11.0 12.8 11.4 12.75 11.7 12.7 12.8 12.65 13.0 M12.7 10.9 L12.8 9.0 11.9 6.2 11.65 5.75 11.35 4.7 11.4 4.75 11.2 4.15 11.25 4.2 10.5 0.85 10.55 0.85 10.5 0.6 10.35 -1.0 10.45 -0.6 11.4 4.55 12.8 8.75 12.85 8.95 12.8 10.7 12.7 10.9" fill="#000000" fill-rule="evenodd" stroke="none"/>
  </g>
</svg>
