<?xml version="1.0" encoding="UTF-8" standalone="no"?>
<svg xmlns:ffdec="https://www.free-decompiler.com/flash" xmlns:xlink="http://www.w3.org/1999/xlink" ffdec:objectType="shape" height="16.9px" width="1.25px" xmlns="http://www.w3.org/2000/svg">
  <g transform="matrix(1.0, 0.0, 0.0, 1.0, -9.45, 1.25)">
    <path d="M10.25 15.6 L10.2 15.6 10.1 15.65 10.05 15.6 9.9 15.6 9.85 13.8 9.8 13.8 9.75 11.6 10.0 11.6 10.0 11.3 9.95 11.3 9.9 11.25 9.8 11.2 9.75 11.2 9.75 9.1 9.9 9.15 9.9 8.25 10.0 9.15 10.0 8.25 10.1 8.25 10.15 9.15 10.2 9.15 10.4 9.1 10.4 11.2 10.3 11.25 10.25 11.3 10.2 11.3 10.2 11.6 10.3 11.6 10.3 15.5 10.25 13.8 10.2 13.8 10.25 15.6 M9.75 -1.1 L9.8 -1.2 9.9 -1.2 10.0 -1.25 10.05 -1.25 10.15 -1.2 10.2 -1.1 10.25 0.5 10.2 0.45 10.25 0.8 10.15 0.8 10.2 1.15 10.05 1.15 10.15 1.55 10.1 1.55 10.1 1.9 9.95 1.9 9.95 1.55 9.9 1.55 9.9 1.15 9.85 1.15 9.85 0.8 9.75 0.8 9.75 -1.1 M10.3 11.6 L10.4 11.6 10.4 13.35 10.3 11.6" fill="#ffcc00" fill-rule="evenodd" stroke="none"/>
    <path d="M10.5 1.75 L10.65 9.1 10.65 10.0 10.65 12.75 10.65 13.75 10.6 13.75 10.6 15.15 10.35 15.5 10.3 15.5 10.3 15.55 10.25 15.6 10.2 13.8 10.25 13.8 10.3 15.5 10.3 11.6 10.2 11.6 10.2 11.3 10.25 11.3 10.3 11.25 10.4 11.2 10.4 9.1 10.2 9.15 10.15 9.15 10.1 8.25 10.0 8.25 10.0 9.15 9.9 8.25 9.9 9.15 9.75 9.1 9.75 11.2 9.8 11.2 9.9 11.25 9.95 11.3 10.0 11.3 10.0 11.6 9.75 11.6 9.8 13.8 9.85 13.8 9.9 15.6 9.65 15.35 9.55 15.15 9.55 13.8 9.5 13.75 9.5 12.85 9.55 12.95 9.6 -0.85 9.65 -1.0 9.75 -1.1 9.75 0.8 9.85 0.8 9.85 1.15 9.9 1.15 9.9 1.55 9.95 1.55 9.95 1.9 10.1 1.9 10.1 1.55 10.15 1.55 10.05 1.15 10.2 1.15 10.15 0.8 10.25 0.8 10.2 0.45 10.25 0.5 10.2 -1.1 10.3 -1.05 10.4 -0.75 10.5 1.75 M10.3 11.6 L10.4 13.35 10.4 11.6 10.3 11.6" fill="#7f6600" fill-rule="evenodd" stroke="none"/>
    <path d="M10.4 -0.75 L10.45 -0.7 10.5 1.75 10.4 -0.75 M10.65 10.0 L10.7 12.65 10.65 12.75 10.7 14.65 10.65 14.75 10.6 15.15 10.6 13.75 10.65 13.75 10.65 12.75 10.65 10.0 M9.55 15.15 L9.45 14.45 9.5 12.85 9.5 12.7 9.45 12.35 9.55 -0.75 9.6 -0.85 9.55 12.95 9.5 12.85 9.5 13.75 9.55 13.8 9.55 15.15" fill="#000000" fill-rule="evenodd" stroke="none"/>
  </g>
</svg>
