<?xml version="1.0" encoding="UTF-8" standalone="no"?>
<svg xmlns:ffdec="https://www.free-decompiler.com/flash" xmlns:xlink="http://www.w3.org/1999/xlink" ffdec:objectType="shape" height="16.75px" width="4.15px" xmlns="http://www.w3.org/2000/svg">
  <g transform="matrix(1.0, 0.0, 0.0, 1.0, -7.3, 1.25)">
    <path d="M10.35 -0.95 L10.45 -0.6 10.45 -0.45 9.9 3.7 8.7 8.35 8.75 8.4 8.55 9.05 8.5 9.05 8.55 10.45 10.4 2.45 10.6 3.2 10.55 3.25 10.65 3.55 10.6 3.6 10.65 3.7 10.55 3.75 10.45 3.25 8.55 11.5 8.6 12.6 8.5 13.0 8.35 13.1 8.3 11.5 8.4 11.1 8.4 10.95 8.45 10.65 8.4 10.8 8.4 10.85 8.3 10.95 8.25 9.05 8.35 10.2 8.35 9.05 8.25 9.05 8.4 8.25 8.35 8.2 8.5 7.4 8.3 8.0 8.45 7.4 8.2 8.2 8.05 8.2 7.8 9.05 7.6 9.05 7.65 11.15 7.75 11.2 7.95 11.2 7.9 11.5 7.75 11.5 7.8 13.35 7.85 13.4 7.9 13.4 7.8 13.7 7.85 13.7 7.9 15.5 7.85 15.5 7.55 15.2 7.5 13.6 7.6 13.2 7.55 13.1 7.5 13.0 7.45 11.5 7.55 11.05 7.5 11.0 7.45 10.9 7.35 9.0 8.75 4.55 9.45 1.3 9.45 1.2 9.4 1.2 9.45 0.9 9.45 1.1 9.5 0.85 9.45 0.9 9.65 -0.45 9.6 -0.45 9.65 -0.9 9.7 -1.05 9.85 -1.2 9.9 -1.2 9.8 -0.5 9.75 -0.5 9.7 0.05 9.7 0.15 9.75 0.15 9.65 0.8 9.75 0.8 9.65 1.5 9.75 1.55 9.65 1.9 9.75 1.9 9.65 2.3 9.85 2.35 9.85 1.9 9.9 1.95 10.0 1.2 10.05 1.2 10.1 0.85 10.15 0.85 10.35 -0.95 M8.65 14.8 L8.5 15.1 8.35 15.3 8.3 13.75 8.4 13.7 8.9 11.3 10.3 5.2 10.35 5.25 10.4 5.35 8.6 13.65 8.65 14.8 M9.75 -0.2 L9.8 -0.2 9.75 0.15 9.75 -0.2" fill="#7f6600" fill-rule="evenodd" stroke="none"/>
    <path d="M9.65 -0.9 L9.6 -0.45 9.65 -0.45 9.45 0.9 9.5 0.85 9.45 1.1 9.45 0.9 9.4 1.2 9.45 1.2 9.45 1.3 8.75 4.55 7.35 9.0 7.45 10.9 7.35 10.6 7.3 8.95 7.55 8.05 7.65 7.8 8.2 6.0 8.3 5.8 8.9 3.55 9.6 -0.65 9.55 -0.7 9.65 -0.9 M7.5 11.0 L7.55 11.05 7.45 11.5 7.5 13.0 7.35 11.75 7.35 11.45 7.5 11.0 M7.55 13.1 L7.6 13.2 7.5 13.6 7.55 15.2 7.5 14.9 7.45 14.75 7.45 13.6 7.55 13.1 M8.6 12.6 L8.55 11.5 10.45 3.25 10.55 3.75 10.65 3.7 10.6 3.6 10.65 3.55 10.55 3.25 10.6 3.2 10.4 2.45 8.55 10.45 8.5 9.05 8.55 9.05 8.75 8.4 8.7 8.35 9.9 3.7 10.45 -0.45 10.45 -0.2 10.7 1.95 10.85 2.6 10.85 2.7 11.45 4.65 11.4 5.5 11.35 5.5 11.25 5.65 11.4 6.0 11.4 6.6 11.35 6.75 11.2 6.85 11.4 7.2 11.4 7.85 11.35 7.9 11.3 8.0 11.15 8.05 11.05 8.05 10.9 8.0 10.8 7.9 10.25 7.15 8.65 14.8 8.6 13.65 10.4 5.35 10.35 5.25 10.3 5.2 8.9 11.3 8.6 12.6" fill="#000000" fill-rule="evenodd" stroke="none"/>
    <path d="M10.35 -0.95 L10.15 0.85 10.1 0.85 10.05 1.2 10.0 1.2 9.9 1.95 9.85 1.9 9.85 2.35 9.65 2.3 9.75 1.9 9.65 1.9 9.75 1.55 9.65 1.5 9.75 0.8 9.65 0.8 9.75 0.15 9.7 0.15 9.7 0.05 9.75 -0.5 9.8 -0.5 9.9 -1.2 9.95 -1.25 10.1 -1.25 10.25 -1.1 10.35 -0.95 M7.9 15.5 L7.85 13.7 7.8 13.7 7.9 13.4 7.85 13.4 7.8 13.35 7.75 11.5 7.9 11.5 7.95 11.2 7.75 11.2 7.65 11.15 7.6 9.05 7.8 9.05 8.05 8.2 8.2 8.2 8.45 7.4 8.3 8.0 8.5 7.4 8.35 8.2 8.4 8.25 8.25 9.05 8.35 9.05 8.35 10.2 8.25 9.05 8.3 10.95 8.4 10.85 8.4 10.8 8.45 10.65 8.4 10.95 8.4 11.1 8.3 11.5 8.35 13.1 8.5 13.0 8.6 12.6 8.9 11.3 8.4 13.7 8.3 13.75 8.35 15.3 8.3 15.35 8.2 15.4 8.05 15.5 7.9 15.5 M9.75 -0.2 L9.75 0.15 9.8 -0.2 9.75 -0.2" fill="#ffcc00" fill-rule="evenodd" stroke="none"/>
  </g>
</svg>
