<?xml version="1.0" encoding="UTF-8" standalone="no"?>
<svg xmlns:ffdec="https://www.free-decompiler.com/flash" xmlns:xlink="http://www.w3.org/1999/xlink" ffdec:objectType="shape" height="16.4px" width="7.3px" xmlns="http://www.w3.org/2000/svg">
  <g transform="matrix(1.0, 0.0, 0.0, 1.0, -5.3, 1.25)">
    <path d="M10.0 -1.25 L10.2 -1.1 10.35 -0.8 10.4 -0.75 10.35 -0.65 10.05 0.85 10.0 0.85 9.95 1.3 9.0 3.7 8.95 3.7 8.8 4.2 8.75 4.2 8.45 4.7 8.4 4.7 8.7 4.15 8.6 4.15 8.6 4.1 8.85 3.65 8.8 3.65 9.0 3.15 8.95 3.15 9.25 2.3 9.4 1.9 9.35 1.9 9.6 1.15 9.5 1.15 9.65 0.8 9.6 0.8 9.7 0.25 9.75 0.15 9.7 0.15 9.85 -0.8 9.9 -0.8 10.0 -1.25 M6.5 14.85 L6.25 15.05 6.15 15.1 6.05 15.1 6.0 13.4 5.9 13.35 6.1 13.05 5.9 13.05 5.8 11.2 5.9 11.25 6.1 10.8 6.05 10.85 5.85 10.95 5.75 10.9 5.65 8.8 5.75 8.8 6.2 8.0 5.85 8.75 6.7 7.25 6.8 7.25 7.2 6.55 7.25 6.55 8.0 5.35 7.75 5.95 8.4 4.7 7.5 6.65 6.55 8.55 6.35 8.85 6.4 10.35 6.5 10.2 9.0 5.65 7.9 7.75 9.05 5.65 9.1 5.65 9.35 5.15 9.3 5.15 9.5 4.7 9.45 4.7 10.0 3.3 10.05 3.3 10.2 3.3 10.05 3.55 10.0 4.05 9.7 4.8 9.65 4.75 9.5 5.2 9.45 5.2 9.2 5.7 9.25 5.7 6.4 11.3 6.45 12.65 6.65 12.3 9.85 5.9 9.1 7.55 9.5 6.8 9.3 7.25 10.25 5.15 9.2 7.55 9.3 7.6 6.55 13.4 6.5 13.4 6.55 14.75 6.45 13.65 6.5 14.85 M8.4 4.7 L8.35 4.7 8.6 4.15 8.4 4.7 M9.25 2.3 L9.2 2.3 9.35 1.95 9.25 2.3" fill="#ffcc00" fill-rule="evenodd" stroke="none"/>
    <path d="M10.0 -1.25 L9.9 -0.8 9.85 -0.8 9.7 0.15 9.75 0.15 9.7 0.25 9.6 0.8 9.65 0.8 9.5 1.15 9.6 1.15 9.35 1.9 9.4 1.9 9.25 2.3 8.95 3.15 9.0 3.15 8.8 3.65 8.85 3.65 8.6 4.1 8.6 4.15 8.7 4.15 8.4 4.7 8.45 4.7 8.75 4.2 8.8 4.2 8.95 3.7 9.0 3.7 9.95 1.3 10.0 0.85 10.05 0.85 10.35 -0.65 10.4 -0.75 10.45 -0.45 10.45 -0.35 10.35 0.25 10.35 0.3 9.75 2.6 7.35 7.55 9.1 5.2 6.6 9.85 6.5 10.2 6.4 10.35 6.35 8.85 6.55 8.55 7.5 6.65 8.4 4.7 7.75 5.95 8.0 5.35 7.25 6.55 7.2 6.55 6.8 7.25 6.7 7.25 5.85 8.75 6.2 8.0 5.75 8.8 5.65 8.8 5.75 10.9 5.85 10.95 6.05 10.85 6.1 10.8 5.9 11.25 5.8 11.2 5.9 13.05 6.1 13.05 5.9 13.35 6.0 13.4 6.05 15.1 6.0 15.15 5.8 15.0 5.65 13.3 5.65 13.25 5.75 13.0 5.7 12.95 5.65 12.9 5.5 11.15 5.65 10.9 5.6 10.85 5.5 10.75 5.4 8.75 7.1 5.9 6.7 6.65 7.55 5.2 7.5 5.2 7.8 4.65 7.85 4.65 8.9 2.3 9.0 1.9 9.2 1.55 9.15 1.55 9.3 0.95 9.35 0.8 9.75 -1.1 9.9 -1.25 10.0 -1.25 M6.8 14.25 L6.55 14.75 6.5 14.85 6.45 13.65 6.55 14.75 6.5 13.4 6.55 13.4 9.3 7.6 9.2 7.55 10.25 5.15 9.3 7.25 9.5 6.8 9.1 7.55 9.85 5.9 10.15 5.1 10.2 5.15 10.25 5.15 10.35 5.3 10.4 5.4 10.4 5.5 6.75 13.35 6.8 14.25 M10.05 3.3 L10.45 2.2 10.75 2.9 10.85 3.05 11.0 3.35 11.0 3.4 11.15 3.7 11.45 4.1 11.3 3.95 11.4 4.15 11.15 4.25 11.0 4.0 10.95 4.0 10.8 3.8 10.75 3.8 10.4 3.2 10.45 3.4 9.8 5.15 6.65 11.25 6.7 11.25 6.75 11.9 6.65 12.3 6.45 12.65 6.4 11.3 9.25 5.7 9.2 5.7 9.45 5.2 9.5 5.2 9.65 4.75 9.7 4.8 10.0 4.05 10.05 3.55 10.2 3.3 10.05 3.3 M9.0 5.65 L9.45 4.7 9.5 4.7 9.3 5.15 9.35 5.15 9.1 5.65 9.05 5.65 7.9 7.75 9.0 5.65 M10.75 4.95 L10.75 5.0 10.85 5.1 10.75 5.15 10.6 5.1 10.55 5.1 10.5 5.0 10.45 5.05 10.3 4.85 10.3 4.8 10.4 4.5 10.6 4.8 10.75 4.95 M9.25 2.3 L9.35 1.95 9.2 2.3 9.25 2.3 M8.4 4.7 L8.6 4.15 8.35 4.7 8.4 4.7" fill="#7f6600" fill-rule="evenodd" stroke="none"/>
    <path d="M10.45 -0.35 L10.7 0.95 10.8 1.2 10.8 1.25 11.45 3.0 12.6 4.65 12.55 5.5 12.5 5.65 12.4 5.7 12.35 5.75 12.25 5.75 12.55 6.0 12.5 6.85 12.35 6.95 12.3 6.95 12.15 6.9 12.5 7.25 12.5 8.05 12.4 8.15 12.15 8.15 10.2 6.75 10.15 6.75 6.8 14.25 6.75 13.35 10.4 5.5 10.4 5.4 10.35 5.3 10.25 5.15 10.2 5.15 10.15 5.1 9.85 5.9 6.65 12.3 6.75 11.9 6.7 11.25 6.65 11.25 9.8 5.15 10.45 3.4 10.4 3.2 10.75 3.8 10.8 3.8 10.95 4.0 11.0 4.0 11.15 4.25 11.4 4.15 11.3 3.95 11.45 4.1 11.15 3.7 11.0 3.4 11.0 3.35 10.85 3.05 10.75 2.9 10.45 2.2 10.05 3.3 10.0 3.3 9.45 4.7 9.0 5.65 6.5 10.2 6.6 9.85 9.1 5.2 7.35 7.55 9.75 2.6 10.35 0.3 10.35 0.25 10.45 -0.35 M5.8 15.0 L5.65 14.7 5.6 13.2 5.7 12.95 5.75 13.0 5.65 13.25 5.65 13.3 5.8 15.0 M5.65 12.9 L5.55 12.55 5.45 11.1 5.6 10.85 5.65 10.9 5.5 11.15 5.65 12.9 M5.5 10.75 L5.4 10.4 5.3 8.7 7.8 4.6 9.1 1.55 9.6 -0.8 9.75 -1.1 9.35 0.8 9.3 0.95 9.15 1.55 9.2 1.55 9.0 1.9 8.9 2.3 7.85 4.65 7.8 4.65 7.5 5.2 7.55 5.2 6.7 6.65 7.1 5.9 5.4 8.75 5.5 10.75 M10.75 4.95 L10.6 4.8 10.4 4.5 10.3 4.8 10.3 4.85 10.45 5.05 10.5 5.0 10.55 5.1 10.6 5.1 10.75 5.15 10.85 5.1 10.75 5.0 10.75 4.95" fill="#000000" fill-rule="evenodd" stroke="none"/>
  </g>
</svg>
