<?xml version="1.0" encoding="UTF-8" standalone="no"?>
<svg xmlns:ffdec="https://www.free-decompiler.com/flash" xmlns:xlink="http://www.w3.org/1999/xlink" ffdec:objectType="shape" height="15.8px" width="10.0px" xmlns="http://www.w3.org/2000/svg">
  <g transform="matrix(1.0, 0.0, 0.0, 1.0, -3.7, 1.25)">
    <path d="M13.65 5.45 L12.0 4.05 13.25 4.55 12.75 4.1 12.8 4.05 11.8 2.95 11.7 2.75 11.2 1.9 10.65 0.75 10.5 0.15 10.4 -0.35 10.35 -0.5 10.35 -0.55 10.45 -0.4 10.55 0.1 10.85 1.0 11.2 1.75 11.25 1.8 11.35 2.05 12.05 3.1 12.4 3.5 13.7 4.75 13.65 5.45 13.65 5.5 12.0 4.1 13.65 5.45 M4.8 9.75 L8.95 4.55 10.4 2.15 10.3 2.4 10.1 2.75 10.15 2.8 10.4 3.15 10.6 3.35 10.65 3.35 10.9 3.65 11.0 3.8 11.1 3.8 11.3 4.05 11.35 4.05 11.6 4.3 11.7 4.25 13.65 5.8 13.6 5.85 13.45 5.9 13.25 5.8 11.15 4.15 11.6 4.6 13.25 5.8 13.65 6.1 13.6 6.8 11.25 5.15 13.55 6.7 11.55 5.3 13.55 6.25 11.5 4.8 13.45 6.1 11.55 4.75 11.4 4.6 11.4 4.55 10.4 3.3 10.35 3.15 10.25 3.0 10.2 2.95 10.15 2.9 10.1 2.9 10.05 2.85 10.0 3.0 9.15 4.4 4.6 10.1 4.8 9.75 M4.8 12.1 L4.85 11.95 4.95 11.85 9.65 5.6 10.1 4.85 10.4 4.45 10.35 4.55 10.35 4.6 10.2 4.8 10.3 4.85 10.35 4.9 10.8 5.25 10.85 5.25 11.25 5.55 11.35 5.5 13.6 6.95 13.55 7.05 13.5 7.1 13.35 7.1 13.25 7.05 10.5 5.3 10.25 5.1 10.1 4.95 10.05 5.05 10.0 5.1 10.05 5.1 4.8 12.1 M10.3 5.25 L13.6 7.4 13.6 7.6 13.55 8.0 11.5 6.85 13.6 7.6 11.6 6.35 11.65 6.3 10.35 5.45 10.35 5.35 10.3 5.25 M13.55 8.05 L13.55 8.15 13.55 8.25 13.5 8.35 13.35 8.35 10.15 6.6 9.45 7.65 9.4 7.65 10.4 6.1 10.35 6.25 10.25 6.4 10.3 6.45 10.7 6.75 10.75 6.7 11.05 6.9 11.1 6.9 11.3 7.05 11.4 7.0 13.55 8.15 12.15 7.35 13.25 7.95 10.4 6.3 13.55 8.05 M6.65 11.7 L4.95 14.1 5.0 14.0 5.05 13.85 6.65 11.7 M4.25 14.5 L4.2 14.4 4.15 14.25 4.05 12.75 4.05 12.7 4.15 12.5 4.25 12.55 4.05 12.75 4.15 12.8 4.25 14.5 M4.1 12.45 L4.0 12.25 4.0 12.0 3.9 10.7 3.9 10.6 4.0 10.45 4.1 10.45 3.9 10.7 4.0 10.7 4.1 12.45 M3.9 10.4 L3.85 10.3 3.8 10.15 3.7 8.35 7.05 4.45 7.85 3.3 9.2 0.9 9.65 -0.85 9.8 -1.05 9.45 0.15 9.5 0.15 9.2 1.0 8.55 2.25 8.6 2.25 7.5 4.0 3.75 8.4 3.9 10.4" fill="#000000" fill-rule="evenodd" stroke="none"/>
    <path d="M10.35 -0.5 L10.4 -0.35 10.5 0.15 10.65 0.75 11.2 1.9 11.7 2.75 11.8 2.95 12.8 4.05 12.75 4.1 13.25 4.55 12.0 4.05 13.65 5.45 12.0 4.1 13.65 5.5 13.65 5.8 11.7 4.25 11.6 4.3 11.35 4.05 11.3 4.05 11.1 3.8 11.0 3.8 10.9 3.65 10.65 3.35 10.6 3.35 10.4 3.15 10.15 2.8 10.1 2.75 10.3 2.4 10.4 2.15 8.95 4.55 4.8 9.75 4.7 8.55 6.9 5.95 6.85 5.95 8.5 3.75 9.65 1.75 9.8 1.25 9.85 1.3 9.95 0.9 10.0 0.9 10.35 -0.5 M4.6 10.1 L9.15 4.4 10.0 3.0 10.05 2.85 10.1 2.9 10.15 2.9 10.2 2.95 10.0 3.3 9.95 3.25 9.0 4.9 6.2 8.4 6.85 7.5 4.2 10.8 4.4 12.5 4.45 12.45 4.5 12.45 4.65 12.3 4.8 12.1 10.05 5.1 10.1 5.1 10.15 5.15 10.2 5.15 9.0 6.95 10.05 5.3 8.5 7.4 8.45 7.4 5.4 11.55 6.4 10.15 4.3 12.85 4.35 12.9 4.4 12.9 4.5 14.5 4.45 14.55 4.25 14.5 4.15 12.8 4.05 12.75 4.25 12.55 4.15 12.5 4.1 12.45 4.0 10.7 3.9 10.7 4.1 10.45 4.0 10.45 3.9 10.4 3.75 8.4 7.5 4.0 8.6 2.25 8.55 2.25 9.2 1.0 9.5 0.15 9.45 0.15 9.8 -1.05 9.8 -1.1 9.8 -1.15 9.9 -1.25 10.05 -1.25 9.95 -0.8 9.9 -0.8 9.7 0.15 9.55 0.45 9.65 0.45 9.5 0.8 9.55 0.8 9.4 1.1 9.15 1.75 8.85 2.3 8.9 2.25 8.75 2.55 7.8 4.05 8.1 3.6 8.15 3.6 7.9 4.0 7.8 4.05 7.85 4.1 5.95 6.35 5.9 6.35 4.1 8.45 4.0 8.45 4.15 10.45 4.35 10.35 4.6 10.1 M10.35 3.15 L10.4 3.3 11.4 4.55 11.4 4.6 11.55 4.75 13.45 6.1 11.5 4.8 13.55 6.25 11.55 5.3 13.55 6.7 11.25 5.15 13.6 6.8 13.6 6.95 11.35 5.5 11.25 5.55 10.85 5.25 10.8 5.25 10.35 4.9 10.3 4.85 10.2 4.8 10.35 4.6 10.35 4.55 10.4 4.45 10.1 4.85 9.65 5.6 4.95 11.85 4.85 11.95 4.8 10.85 4.9 10.85 9.2 5.25 9.55 4.55 9.8 4.25 10.2 3.4 10.35 3.25 10.35 3.15 M13.55 8.0 L13.55 8.05 10.4 6.3 13.25 7.95 12.15 7.35 13.55 8.15 11.4 7.0 11.3 7.05 11.1 6.9 11.05 6.9 10.75 6.7 10.7 6.75 10.3 6.45 10.25 6.4 10.35 6.25 10.4 6.1 9.4 7.65 9.45 7.65 6.65 11.7 5.05 13.85 5.0 14.0 4.95 12.95 5.0 12.95 10.35 5.35 10.35 5.45 11.65 6.3 11.6 6.35 13.6 7.6 11.5 6.85 13.55 8.0" fill="#7f6600" fill-rule="evenodd" stroke="none"/>
    <path d="M10.35 -0.55 L10.35 -0.5 10.0 0.9 9.95 0.9 9.85 1.3 9.8 1.25 9.65 1.75 8.5 3.75 6.85 5.95 6.9 5.95 4.7 8.55 4.8 9.75 4.6 10.1 4.35 10.35 4.15 10.45 4.0 8.45 4.1 8.45 5.9 6.35 5.95 6.35 7.85 4.1 7.8 4.05 7.9 4.0 8.15 3.6 8.1 3.6 7.8 4.05 8.75 2.55 8.9 2.25 8.85 2.3 9.15 1.75 9.4 1.1 9.55 0.8 9.5 0.8 9.65 0.45 9.55 0.45 9.7 0.15 9.9 -0.8 9.95 -0.8 10.05 -1.25 10.2 -1.1 10.3 -0.85 10.35 -0.55 M10.2 2.95 L10.25 3.0 10.35 3.15 10.35 3.25 10.2 3.4 9.8 4.25 9.55 4.55 9.2 5.25 4.9 10.85 4.8 10.85 4.85 11.95 4.8 12.1 4.65 12.3 4.5 12.45 4.45 12.45 4.4 12.5 4.2 10.8 6.85 7.5 6.2 8.4 9.0 4.9 9.95 3.25 10.0 3.3 10.2 2.95 M10.2 5.15 L10.3 5.25 10.35 5.35 5.0 12.95 4.95 12.95 5.0 14.0 4.95 14.1 4.75 14.35 4.65 14.45 4.5 14.5 4.4 12.9 4.35 12.9 4.3 12.85 6.4 10.15 5.4 11.55 8.45 7.4 8.5 7.4 10.05 5.3 9.0 6.95 10.2 5.15" fill="#ffcc00" fill-rule="evenodd" stroke="none"/>
  </g>
</svg>
