<?xml version="1.0" encoding="UTF-8" standalone="no"?>
<svg xmlns:ffdec="https://www.free-decompiler.com/flash" xmlns:xlink="http://www.w3.org/1999/xlink" ffdec:objectType="shape" height="15.05px" width="12.25px" xmlns="http://www.w3.org/2000/svg">
  <g transform="matrix(1.0, 0.0, 0.0, 1.0, -2.5, 1.25)">
    <path d="M14.7 5.85 L14.7 6.0 12.1 4.35 12.05 4.35 11.45 3.9 11.4 3.85 10.1 2.65 10.1 2.6 10.25 2.4 10.3 2.25 8.35 4.75 3.3 9.5 3.5 9.15 7.8 5.1 5.45 6.4 6.65 5.3 6.6 5.25 9.0 2.5 9.7 1.4 9.75 1.35 9.65 1.3 9.95 0.7 10.35 -0.45 10.5 0.1 10.9 0.95 10.95 1.15 11.15 1.4 11.8 2.45 13.0 3.65 14.75 5.0 14.7 5.05 14.65 5.7 14.7 5.85 M10.0 2.85 L10.05 2.85 10.05 2.9 10.1 2.9 10.15 2.95 9.8 3.5 9.9 3.25 9.25 4.15 8.8 4.65 8.85 4.65 8.05 5.55 3.0 10.3 3.15 11.9 3.05 11.9 2.95 11.9 2.8 10.2 2.75 10.15 8.0 5.3 10.0 2.85 M14.65 7.15 L14.65 7.3 11.6 5.6 11.55 5.6 11.25 5.45 11.2 5.45 10.4 4.95 10.4 4.9 10.2 4.8 10.35 4.5 8.7 6.35 10.0 5.05 10.1 5.15 10.15 5.15 9.35 6.05 10.1 5.15 7.75 7.6 3.1 12.25 3.25 12.3 3.35 13.75 3.2 13.8 3.1 13.8 3.0 12.2 2.9 12.15 2.95 12.05 3.15 11.9 3.4 11.6 4.8 10.25 3.55 11.4 3.75 11.0 3.7 10.35 3.6 10.35 8.8 5.4 9.25 4.85 9.5 4.45 10.35 3.35 10.3 3.2 10.4 3.25 11.25 4.15 11.9 4.7 14.7 6.4 14.65 6.5 14.6 7.0 14.65 7.15 M14.6 8.45 L14.6 8.55 11.6 7.15 11.55 7.15 11.0 6.85 11.0 6.9 10.9 6.85 10.2 6.4 10.3 6.35 10.3 6.25 3.7 13.35 3.85 13.1 3.75 12.35 8.5 7.55 8.45 7.5 10.3 5.5 10.3 5.35 12.05 6.3 10.4 5.45 12.0 6.35 12.55 6.6 14.65 7.7 14.55 7.85 14.55 8.35 14.6 8.45 M2.9 9.9 L2.75 9.9 2.6 8.0 2.55 7.95 6.3 4.6 7.3 3.55 7.35 3.45 7.4 3.45 7.75 3.05 7.7 3.05 9.2 0.8 9.15 0.75 9.3 0.45 9.35 0.35 9.95 -1.25 10.05 -1.25 9.35 0.8 9.45 0.8 8.65 2.05 8.5 2.25 8.55 2.3 8.15 2.9 6.7 4.5 2.8 8.05 2.95 9.9 2.9 9.9 M8.7 6.35 L7.85 7.25 8.7 6.35 M2.95 10.25 L3.0 10.25 4.4 8.9 2.95 10.25" fill="#7f6600" fill-rule="evenodd" stroke="none"/>
    <path d="M10.3 -0.7 L10.95 0.95 11.15 1.35 12.6 3.2 14.75 4.9 14.75 5.0 14.7 5.85 14.65 5.7 14.7 5.05 14.75 5.0 13.0 3.65 11.8 2.45 11.15 1.4 10.95 1.15 10.9 0.95 10.5 0.1 10.35 -0.45 10.25 -0.65 10.3 -0.7 M14.7 6.0 L14.65 6.05 14.5 6.0 14.4 6.0 11.65 4.25 10.75 3.5 10.0 2.7 9.95 2.85 10.0 2.85 8.0 5.3 2.75 10.15 2.8 10.2 2.95 11.9 2.85 11.8 2.7 10.05 2.9 9.9 2.95 9.9 3.15 9.65 3.3 9.5 8.35 4.75 10.3 2.25 10.25 2.4 10.1 2.6 10.1 2.65 11.4 3.85 11.45 3.9 12.05 4.35 12.1 4.35 14.7 6.0 M10.3 3.1 L10.7 3.5 10.8 3.55 11.7 4.5 14.7 6.3 14.7 6.4 14.65 7.15 14.6 7.0 14.65 6.5 14.7 6.4 11.9 4.7 11.25 4.15 10.4 3.25 10.3 3.2 10.25 3.15 10.3 3.1 M14.65 7.3 L14.6 7.35 14.5 7.35 10.7 5.3 10.1 4.9 10.0 5.05 8.7 6.35 10.35 4.5 10.2 4.8 10.4 4.9 10.4 4.95 11.2 5.45 11.25 5.45 11.55 5.6 11.6 5.6 14.65 7.3 M10.2 5.2 L14.65 7.6 14.65 7.7 14.6 8.45 14.55 8.35 14.55 7.85 14.65 7.7 12.55 6.6 12.05 6.3 12.55 6.6 12.0 6.35 10.4 5.45 12.05 6.3 10.3 5.35 10.2 5.2 M14.6 8.55 L14.55 8.65 14.45 8.65 10.5 6.75 10.1 6.5 10.05 6.6 3.6 13.5 3.7 13.35 10.3 6.25 10.3 6.35 10.2 6.4 10.9 6.85 11.0 6.9 11.0 6.85 11.55 7.15 11.6 7.15 14.6 8.55 M3.1 13.8 L3.0 13.7 2.9 12.15 2.9 12.05 2.95 12.0 2.95 11.95 3.05 11.9 3.15 11.9 2.95 12.05 2.9 12.15 3.0 12.2 3.1 13.8 M2.75 9.9 L2.7 9.9 2.65 9.75 2.5 7.9 7.05 3.75 8.75 1.45 9.3 0.45 9.8 -1.05 9.85 -1.15 9.95 -1.25 9.35 0.35 9.3 0.45 9.15 0.75 9.2 0.8 7.7 3.05 7.75 3.05 7.4 3.45 7.35 3.45 7.3 3.55 6.3 4.6 2.55 7.95 2.6 8.0 2.75 9.9 M3.55 11.4 L4.8 10.25 3.4 11.6 3.55 11.4 M8.7 6.35 L7.85 7.25 8.7 6.35" fill="#000000" fill-rule="evenodd" stroke="none"/>
    <path d="M10.05 -1.25 L10.15 -1.1 10.3 -0.7 10.25 -0.65 10.35 -0.45 9.95 0.7 9.65 1.3 9.75 1.35 9.7 1.4 9.0 2.5 6.6 5.25 6.65 5.3 5.45 6.4 7.8 5.1 3.5 9.15 3.3 9.5 3.15 9.65 2.95 9.9 2.8 8.05 6.7 4.5 8.15 2.9 8.55 2.3 8.5 2.25 8.65 2.05 9.45 0.8 9.35 0.8 10.05 -1.25 M10.15 2.95 L10.25 3.0 10.3 3.1 10.25 3.15 10.3 3.2 10.35 3.35 9.5 4.45 9.25 4.85 8.8 5.4 3.6 10.35 3.7 10.35 3.75 11.0 3.55 11.4 3.4 11.6 3.15 11.9 3.0 10.3 8.05 5.55 8.85 4.65 8.8 4.65 9.25 4.15 9.9 3.25 9.8 3.5 10.15 2.95 M10.15 5.15 L10.2 5.2 10.3 5.35 10.3 5.5 8.45 7.5 8.5 7.55 3.75 12.35 3.85 13.1 3.7 13.35 3.6 13.5 3.35 13.75 3.25 12.3 3.1 12.25 7.75 7.6 10.1 5.15 9.35 6.05 10.15 5.15 M8.3 7.05 L7.75 7.6 8.3 7.05 M2.95 10.25 L4.4 8.9 3.0 10.25 2.95 10.25" fill="#ffcc00" fill-rule="evenodd" stroke="none"/>
  </g>
</svg>
