<?xml version="1.0" encoding="UTF-8" standalone="no"?>
<svg xmlns:ffdec="https://www.free-decompiler.com/flash" xmlns:xlink="http://www.w3.org/1999/xlink" ffdec:objectType="shape" height="14.3px" width="14.05px" xmlns="http://www.w3.org/2000/svg">
  <g transform="matrix(1.0, 0.0, 0.0, 1.0, -1.75, 1.25)">
    <path d="M10.15 -1.0 L10.45 -0.25 10.5 -0.15 10.65 0.25 11.15 1.15 10.85 0.75 10.6 0.25 10.65 0.25 10.45 -0.15 10.5 -0.15 10.45 -0.2 10.2 -0.75 10.15 -1.0 M11.3 1.35 L11.5 1.55 11.8 1.95 11.85 2.05 12.5 2.7 12.6 2.85 15.8 5.1 15.8 5.15 13.15 3.4 12.3 2.65 11.3 1.35 M15.8 5.2 L15.7 6.15 15.75 5.2 15.8 5.2 M15.7 6.25 L15.65 6.3 15.55 6.3 11.65 4.05 10.15 2.75 10.0 2.65 7.65 5.05 2.15 9.2 2.3 9.05 7.6 5.05 10.15 2.4 10.2 2.45 10.05 2.6 11.2 3.6 11.25 3.6 11.6 3.9 12.0 4.15 12.05 4.15 12.45 4.45 15.7 6.25 M2.0 9.35 L1.9 9.25 1.75 7.45 1.75 7.4 1.8 7.35 5.5 4.65 7.5 2.8 9.05 0.8 9.85 -1.1 10.0 -1.25 9.35 0.3 8.9 1.1 8.95 1.1 7.2 3.2 5.6 4.65 1.8 7.4 1.75 7.45 1.8 7.45 2.0 9.35 M10.0 2.85 L8.85 4.1 9.0 4.0 7.5 5.35 7.55 5.35 7.2 5.6 7.5 5.35 7.45 5.35 8.15 4.75 9.95 2.85 10.0 2.85 M4.75 7.45 L2.0 9.55 2.05 9.6 2.2 11.2 2.15 11.2 2.1 11.15 1.95 9.5 4.75 7.45 M10.15 2.95 L11.05 3.75 11.25 3.9 11.6 4.25 12.25 4.7 15.7 6.55 15.7 6.65 15.7 6.75 15.7 6.95 15.65 7.5 15.6 6.95 15.65 7.0 15.7 6.75 15.65 6.75 15.7 6.65 12.2 4.75 11.6 4.25 10.35 3.2 10.2 3.1 10.15 3.05 10.15 2.95 M15.65 7.6 L15.65 7.65 15.5 7.65 11.15 5.5 10.4 5.05 10.3 5.0 10.1 4.85 10.05 4.85 8.95 5.9 9.9 5.1 9.95 5.05 10.0 5.1 2.15 11.45 2.25 11.55 2.4 13.05 2.35 13.0 2.3 13.0 2.3 12.9 2.15 11.45 2.15 11.35 3.85 10.0 2.4 11.1 2.6 10.85 5.9 8.15 6.95 7.3 8.35 6.15 10.25 4.6 10.15 4.8 10.4 4.95 10.45 5.0 11.05 5.35 15.65 7.6 M10.15 5.15 L15.6 7.9 15.6 8.0 15.55 8.8 15.55 8.1 15.6 8.0 10.2 5.3 10.2 5.25 10.15 5.15 M15.55 8.9 L15.55 9.0 15.45 9.0 11.0 7.0 10.1 6.5 10.0 6.55 9.4 7.2 9.3 7.25 2.6 12.9 2.75 12.7 2.8 12.65 10.0 6.55 10.15 6.4 11.05 6.95 11.35 7.1 11.4 7.05 15.55 8.9 M8.95 5.9 L7.45 7.1 4.3 9.6 3.85 10.0 4.3 9.6 7.45 7.1 8.95 5.9" fill="#000000" fill-rule="evenodd" stroke="none"/>
    <path d="M11.15 1.15 L11.3 1.35 12.3 2.65 13.15 3.4 15.8 5.15 15.8 5.2 15.75 5.2 15.7 6.15 15.7 6.25 12.45 4.45 12.05 4.15 12.0 4.15 11.6 3.9 11.25 3.6 11.2 3.6 10.05 2.6 10.2 2.45 10.65 2.85 10.75 2.9 11.4 3.45 11.55 3.6 11.6 3.55 11.8 3.75 12.3 4.05 12.4 4.0 11.65 3.4 11.55 3.3 11.7 3.35 11.5 3.15 11.95 2.55 11.65 2.2 11.95 2.5 11.35 1.7 11.2 1.55 10.8 0.95 10.25 -0.25 10.25 -0.45 10.2 -0.75 10.45 -0.2 10.5 -0.15 10.45 -0.15 10.65 0.25 10.6 0.25 10.85 0.75 11.15 1.15 M2.15 9.2 L2.0 9.35 1.8 7.45 1.75 7.45 1.8 7.4 5.6 4.65 7.2 3.2 8.95 1.1 8.9 1.1 9.35 0.3 10.0 -1.25 10.1 -1.2 9.55 0.25 9.45 0.45 9.45 0.5 9.3 0.8 7.95 2.65 8.0 2.65 6.45 4.15 1.95 7.55 2.05 7.55 2.15 9.2 M2.3 9.05 L2.5 8.75 8.1 4.45 8.7 3.85 8.65 3.8 10.25 2.1 10.2 2.35 10.15 2.4 7.6 5.05 2.3 9.05 M10.0 2.85 L10.05 2.85 10.15 2.95 7.85 5.3 2.15 9.65 2.25 9.7 2.4 11.1 2.25 11.2 2.2 11.2 2.05 9.6 2.0 9.55 4.75 7.45 7.45 5.35 7.5 5.35 7.2 5.6 7.55 5.35 7.5 5.35 9.0 4.0 8.85 4.1 10.0 2.85 M15.65 7.5 L15.65 7.6 11.05 5.35 10.45 5.0 10.4 4.95 10.15 4.8 10.25 4.6 10.7 4.8 11.15 5.1 11.35 5.2 11.4 5.15 11.2 5.05 11.5 4.45 11.15 4.15 10.9 4.0 10.25 3.4 10.25 3.15 10.2 3.1 10.35 3.2 11.6 4.25 12.2 4.75 15.7 6.65 15.65 6.75 15.7 6.75 15.65 7.0 15.6 6.95 15.65 7.5 M10.0 5.1 L10.15 5.15 2.3 11.55 2.45 11.6 2.6 12.9 2.5 13.0 2.4 13.05 2.25 11.55 2.15 11.45 10.0 5.1 M15.55 8.8 L15.55 8.9 11.4 7.05 11.35 7.1 11.05 6.95 10.15 6.4 10.0 6.55 2.8 12.65 2.95 12.4 10.25 6.15 10.25 6.2 10.8 6.5 10.85 6.45 10.65 6.35 10.7 6.3 10.25 6.05 10.25 5.45 10.2 5.3 15.6 8.0 15.55 8.1 15.55 8.8 M2.6 10.85 L2.7 10.65 5.9 8.15 2.6 10.85 M8.35 6.15 L8.3 6.15 10.25 4.45 10.25 4.6 8.35 6.15" fill="#7f6600" fill-rule="evenodd" stroke="none"/>
    <path d="M10.1 -1.2 L10.15 -1.0 10.2 -0.75 10.25 -0.45 10.25 -0.25 10.8 0.95 11.2 1.55 11.35 1.7 11.95 2.5 11.65 2.2 11.95 2.55 11.5 3.15 11.7 3.35 11.55 3.3 11.65 3.4 12.4 4.0 12.3 4.05 11.8 3.75 11.6 3.55 11.55 3.6 11.4 3.45 10.75 2.9 10.65 2.85 10.2 2.45 10.15 2.4 10.2 2.35 10.25 2.1 8.65 3.8 8.7 3.85 8.1 4.45 2.5 8.75 2.3 9.05 2.15 9.2 2.05 7.55 1.95 7.55 6.45 4.15 8.0 2.65 7.95 2.65 9.3 0.8 9.45 0.5 9.45 0.45 9.55 0.25 10.1 -1.2 M2.4 11.1 L2.25 9.7 2.15 9.65 7.85 5.3 10.15 2.95 10.15 3.05 10.2 3.1 10.25 3.15 10.25 3.4 10.9 4.0 11.15 4.15 11.5 4.45 11.2 5.05 11.4 5.15 11.35 5.2 11.15 5.1 10.7 4.8 10.25 4.6 10.25 4.45 8.3 6.15 8.35 6.15 6.95 7.3 5.9 8.15 2.7 10.65 2.6 10.85 2.4 11.1 M10.2 5.3 L10.25 5.45 10.25 6.05 10.7 6.3 10.65 6.35 10.85 6.45 10.8 6.5 10.25 6.2 10.25 6.15 2.95 12.4 2.8 12.65 2.75 12.7 2.6 12.9 2.45 11.6 2.3 11.55 10.15 5.15 10.2 5.25 10.2 5.3" fill="#ffcc00" fill-rule="evenodd" stroke="none"/>
  </g>
</svg>
