<?xml version="1.0" encoding="UTF-8" standalone="no"?>
<svg xmlns:ffdec="https://www.free-decompiler.com/flash" xmlns:xlink="http://www.w3.org/1999/xlink" ffdec:objectType="shape" height="10.6px" width="13.85px" xmlns="http://www.w3.org/2000/svg">
  <g transform="matrix(1.0, 0.0, 0.0, 1.0, -2.3, 1.85)">
    <path d="M10.0 -1.85 L9.35 -0.35 8.85 0.4 9.35 -0.45 9.95 -1.8 10.0 -1.85 M8.7 0.55 L8.6 0.7 8.1 1.25 8.15 1.25 7.1 2.35 2.5 5.55 2.3 5.65 2.4 5.7 2.5 7.2 2.45 7.15 2.3 5.65 2.3 5.6 5.9 3.15 7.75 1.6 8.7 0.55 M2.65 7.1 L2.65 7.05 4.2 6.0 2.65 7.1 M10.05 -1.65 L10.25 -1.3 10.6 -0.5 10.85 -0.1 10.9 0.0 11.5 0.7 11.2 0.4 10.9 0.0 10.8 -0.05 10.4 -0.8 10.4 -0.85 10.3 -1.0 10.15 -1.45 10.1 -1.5 10.05 -1.65 M11.7 0.9 L12.7 1.8 13.6 2.45 13.1 2.15 12.65 1.8 12.7 1.8 12.35 1.55 11.7 0.9 M14.05 2.7 L15.95 3.65 16.1 3.75 16.15 3.75 16.15 3.85 16.05 4.9 16.05 4.95 16.0 5.0 12.0 3.0 10.6 2.1 10.15 1.7 10.0 1.6 8.7 2.85 10.1 1.4 10.1 1.5 10.05 1.55 11.5 2.65 12.5 3.15 12.55 3.15 16.05 4.9 16.1 3.9 16.15 3.85 14.05 2.7 M10.0 1.85 L10.15 1.95 10.1 1.95 10.0 1.85 M10.15 1.95 L10.5 2.15 11.8 3.1 11.2 2.8 10.4 2.2 10.45 2.2 10.15 1.95 M14.1 4.25 L16.05 5.2 16.05 5.25 16.0 6.2 16.0 6.3 11.6 4.25 10.1 3.55 10.05 3.5 9.45 4.05 2.85 8.65 2.85 8.6 10.05 3.45 10.15 3.35 10.1 3.45 10.15 3.5 10.8 3.85 11.1 3.95 11.6 4.25 16.0 6.2 15.95 6.1 15.95 5.95 16.0 5.55 16.0 5.4 16.05 5.25 14.1 4.25 M2.7 8.75 L2.65 8.75 2.5 7.4 2.5 7.3 7.9 3.65 10.0 1.8 8.3 3.4 2.5 7.4 2.55 7.45 2.7 8.75" fill="#000000" fill-rule="evenodd" stroke="none"/>
    <path d="M10.0 -1.85 L10.05 -1.7 9.55 -0.45 9.25 0.05 9.3 0.05 8.75 0.8 7.15 2.45 7.05 2.5 7.1 2.5 2.55 5.7 2.45 5.75 2.55 5.8 2.65 7.05 2.65 7.1 2.5 7.2 2.4 5.7 2.3 5.65 2.5 5.55 7.1 2.35 8.15 1.25 8.1 1.25 8.6 0.7 8.7 0.55 8.85 0.4 9.35 -0.35 10.0 -1.85 M11.5 0.7 L11.7 0.9 12.35 1.55 12.7 1.8 12.65 1.8 13.1 2.15 13.6 2.45 13.7 2.5 14.05 2.7 16.15 3.85 16.1 3.9 16.05 4.9 12.55 3.15 12.5 3.15 11.5 2.65 10.05 1.55 10.1 1.5 10.1 1.4 8.7 2.85 8.5 3.0 8.15 3.25 5.4 5.15 4.75 5.65 4.2 6.0 2.65 7.05 2.85 6.75 8.4 2.95 10.15 1.25 10.1 1.4 11.2 2.25 11.25 2.2 11.5 2.4 11.65 2.55 12.65 3.1 12.75 3.05 15.9 4.6 15.95 4.0 15.15 3.6 15.2 3.55 12.9 2.25 13.25 2.4 12.5 1.9 11.1 0.5 11.05 0.4 10.75 0.0 10.15 -1.1 10.15 -1.45 10.3 -1.0 10.4 -0.85 10.4 -0.8 10.8 -0.05 10.9 0.0 11.2 0.4 11.5 0.7 M10.0 1.85 L10.1 1.95 10.15 1.95 10.45 2.2 10.4 2.2 11.2 2.8 11.8 3.1 13.45 3.95 14.1 4.25 16.05 5.25 16.0 5.4 16.0 5.55 15.95 5.95 15.95 6.1 16.0 6.2 11.6 4.25 11.1 3.95 10.8 3.85 10.15 3.5 10.1 3.45 10.15 3.35 10.05 3.45 2.85 8.6 2.85 8.65 2.7 8.75 2.55 7.45 2.5 7.4 8.3 3.4 10.0 1.8 10.0 1.85 M10.1 1.95 L9.8 2.2 9.7 2.3 8.15 3.65 8.2 3.7 2.65 7.5 2.8 7.55 2.85 8.6 3.05 8.35 10.05 3.3 10.15 3.2 10.15 3.35 10.25 3.45 10.3 3.4 10.8 3.7 10.85 3.7 10.9 3.75 11.95 4.25 12.0 4.2 14.15 5.2 13.1 4.7 14.55 5.3 12.05 4.15 16.0 5.55 13.4 4.3 14.7 4.9 11.45 3.35 13.4 4.25 11.5 3.3 15.1 4.95 11.1 2.9 10.3 2.3 10.65 2.5 10.15 2.15 10.1 2.0 10.1 1.95" fill="#7f6600" fill-rule="evenodd" stroke="none"/>
    <path d="M2.65 7.05 L2.55 5.8 2.45 5.75 2.55 5.7 7.1 2.5 7.05 2.5 7.15 2.45 8.75 0.8 9.3 0.05 9.25 0.05 9.55 -0.45 10.05 -1.7 10.05 -1.65 10.1 -1.5 10.15 -1.45 10.15 -1.1 10.75 0.0 11.05 0.4 11.1 0.5 12.5 1.9 13.25 2.4 12.9 2.25 15.2 3.55 15.15 3.6 15.95 4.0 15.9 4.6 12.75 3.05 12.65 3.1 11.65 2.55 11.5 2.4 11.25 2.2 11.2 2.25 10.1 1.4 10.15 1.25 8.4 2.95 2.85 6.75 2.65 7.05 M10.1 1.95 L10.1 2.0 10.15 2.15 10.65 2.5 10.3 2.3 11.1 2.9 15.1 4.95 11.5 3.3 13.4 4.25 11.45 3.35 14.7 4.9 13.4 4.3 16.0 5.55 12.05 4.15 14.55 5.3 13.1 4.7 14.15 5.2 12.0 4.2 11.95 4.25 10.9 3.75 10.85 3.7 10.8 3.7 10.3 3.4 10.25 3.45 10.15 3.35 10.15 3.2 10.05 3.3 3.05 8.35 2.85 8.6 2.8 7.55 2.65 7.5 8.2 3.7 8.15 3.65 9.7 2.3 9.8 2.2 10.1 1.95" fill="#ffcc00" fill-rule="evenodd" stroke="none"/>
  </g>
</svg>
