<?xml version="1.0" encoding="UTF-8" standalone="no"?>
<svg xmlns:ffdec="https://www.free-decompiler.com/flash" xmlns:xlink="http://www.w3.org/1999/xlink" ffdec:objectType="shape" height="9.9px" width="14.55px" xmlns="http://www.w3.org/2000/svg">
  <g transform="matrix(1.0, 0.0, 0.0, 1.0, -2.3, 1.85)">
    <path d="M2.3 5.15 L2.5 5.0 6.35 2.65 6.45 2.6 6.65 2.4 6.9 2.25 8.4 0.85 9.35 -0.35 10.0 -1.8 10.05 -1.6 9.5 -0.35 8.55 0.9 7.35 2.05 6.3 2.85 2.55 5.15 2.35 5.25 2.55 5.3 2.6 6.3 8.35 2.8 10.05 1.3 10.05 1.45 11.2 2.3 11.25 2.3 12.3 3.0 12.8 3.25 12.85 3.25 16.6 5.15 16.65 4.35 16.7 4.3 16.65 4.3 16.65 4.25 13.05 2.25 12.9 2.1 12.65 1.95 11.35 0.75 10.8 0.15 10.75 0.0 10.65 -0.1 10.05 -1.3 10.05 -1.35 10.0 -1.45 10.05 -1.55 10.15 -1.45 10.35 -0.95 10.55 -0.6 10.6 -0.4 10.9 0.0 10.95 0.05 11.2 0.35 11.75 1.0 12.75 1.85 16.85 4.2 16.75 4.3 16.7 5.35 12.7 3.3 12.65 3.3 11.5 2.65 11.5 2.6 10.8 2.15 10.6 2.0 10.55 1.95 10.0 1.5 8.0 3.1 2.5 6.5 2.35 5.25 2.3 5.15 M10.8 2.15 L10.55 1.95 10.8 2.15 M10.05 1.95 L8.05 3.6 7.55 3.95 2.55 6.9 2.7 7.0 2.8 7.85 10.1 3.3 10.05 3.35 10.1 3.4 10.15 3.4 11.2 3.95 11.25 4.0 16.45 6.45 16.5 5.9 16.65 5.8 12.45 3.7 10.05 2.1 10.05 1.95 11.7 3.1 16.7 5.65 16.7 5.75 16.65 5.8 16.6 6.65 10.05 3.45 10.0 3.45 9.95 3.55 9.1 4.1 8.2 4.65 4.05 7.2 3.35 7.6 2.65 8.0 2.55 6.9 2.5 6.85 2.5 6.8 7.5 3.8 8.25 3.3 8.95 2.7 9.35 2.4 9.75 2.05 10.0 1.8 10.0 1.9 10.05 1.95" fill="#7f6600" fill-rule="evenodd" stroke="none"/>
    <path d="M2.3 5.15 L2.3 5.1 2.5 4.95 6.45 2.55 7.85 1.35 9.25 -0.3 10.0 -1.85 10.0 -1.8 9.35 -0.35 8.4 0.85 6.9 2.25 6.65 2.4 6.45 2.6 6.35 2.65 2.5 5.0 2.3 5.15 2.35 5.25 2.5 6.5 8.0 3.1 10.0 1.5 10.55 1.95 10.0 1.55 8.5 2.85 2.45 6.55 2.3 5.15 M10.0 -1.8 L10.3 -1.25 10.65 -0.45 11.2 0.35 11.5 0.6 11.8 0.95 12.8 1.8 16.7 4.05 16.85 4.15 16.85 4.2 16.75 5.4 12.2 3.15 11.5 2.65 10.8 2.15 11.5 2.6 11.5 2.65 12.65 3.3 12.7 3.3 16.7 5.35 16.75 4.3 16.85 4.2 12.75 1.85 11.75 1.0 11.2 0.35 10.95 0.05 10.9 0.0 10.6 -0.4 10.55 -0.6 10.35 -0.95 10.15 -1.45 10.05 -1.55 10.05 -1.6 10.0 -1.8 M10.05 1.95 L10.0 1.9 10.0 1.8 11.8 3.1 16.7 5.6 16.7 5.65 11.7 3.1 10.05 1.95 M9.35 2.4 L8.95 2.7 8.25 3.3 7.5 3.8 2.5 6.8 2.5 6.7 8.95 2.7 9.1 2.55 9.35 2.4 M2.5 6.85 L2.55 6.9 2.65 8.0 3.35 7.6 2.6 8.05 2.5 6.85 M9.1 4.1 L9.95 3.55 10.0 3.55 9.1 4.1 M10.0 3.45 L10.05 3.45 16.6 6.65 16.65 5.8 16.7 5.75 16.65 6.75 10.65 3.85 10.0 3.45" fill="#000000" fill-rule="evenodd" stroke="none"/>
    <path d="M2.35 5.25 L2.55 5.15 6.3 2.85 7.35 2.05 8.55 0.9 9.5 -0.35 10.05 -1.6 10.05 -1.55 10.0 -1.45 10.05 -1.35 10.05 -1.3 10.65 -0.1 10.75 0.0 10.8 0.15 11.35 0.75 12.65 1.95 12.9 2.1 13.05 2.25 16.65 4.25 16.65 4.3 16.7 4.3 16.65 4.35 16.6 5.15 12.85 3.25 12.8 3.25 12.3 3.0 11.25 2.3 11.2 2.3 10.05 1.45 10.05 1.3 8.35 2.8 2.6 6.3 2.55 5.3 2.35 5.25 M10.05 1.95 L10.05 2.1 12.45 3.7 16.65 5.8 16.5 5.9 16.45 6.45 11.25 4.0 11.2 3.95 10.15 3.4 10.1 3.4 10.05 3.35 10.1 3.3 2.8 7.85 2.7 7.0 2.55 6.9 7.55 3.95 8.05 3.6 10.05 1.95" fill="#ffcc00" fill-rule="evenodd" stroke="none"/>
  </g>
</svg>
