<?xml version="1.0" encoding="UTF-8" standalone="no"?>
<svg xmlns:ffdec="https://www.free-decompiler.com/flash" xmlns:xlink="http://www.w3.org/1999/xlink" ffdec:objectType="shape" height="9.2px" width="14.8px" xmlns="http://www.w3.org/2000/svg">
  <g transform="matrix(1.0, 0.0, 0.0, 1.0, -2.6, 1.8)">
    <path d="M11.75 2.85 L17.25 5.9 17.35 4.65 16.8 4.35 16.85 4.3 14.15 2.85 13.55 2.45 13.6 2.45 13.4 2.35 13.0 2.05 11.75 1.0 11.15 0.3 11.1 0.2 10.9 0.0 10.7 -0.3 10.0 -1.7 9.7 -1.1 9.65 -0.9 9.5 -0.6 8.8 0.4 8.75 0.35 9.45 -0.65 9.6 -0.95 9.65 -1.1 10.0 -1.8 10.75 -0.3 11.0 0.0 12.5 1.55 14.45 2.95 15.2 3.3 17.35 4.55 17.4 4.55 17.3 5.95 12.15 3.1 11.75 2.85 M8.75 0.35 L8.35 0.85 8.05 1.15 7.8 1.35 6.35 2.55 Q4.8 3.45 3.2 4.3 L3.2 4.35 2.65 4.65 2.75 5.9 8.5 2.7 10.0 1.5 10.2 1.6 10.15 1.65 11.25 2.5 10.1 1.7 10.15 1.65 10.0 1.55 9.35 2.15 8.5 2.7 7.35 3.45 2.75 5.95 2.75 5.9 2.6 4.55 2.65 4.55 7.0 2.0 7.1 1.9 7.8 1.35 8.75 0.35 M2.75 6.2 L2.75 6.15 7.65 3.5 8.65 2.85 8.75 2.8 8.9 2.7 10.0 1.8 10.85 2.45 10.85 2.5 12.35 3.5 17.2 6.1 17.25 6.2 12.35 3.6 10.55 2.35 10.0 1.85 8.75 2.9 8.7 2.9 7.45 3.7 2.75 6.2 M17.25 6.2 L17.15 7.4 10.75 4.0 10.8 3.95 10.0 3.5 9.2 3.95 9.2 4.0 2.85 7.4 2.75 6.25 2.8 6.3 2.85 7.3 9.1 4.0 9.85 3.5 9.9 3.5 10.0 3.45 17.1 7.3 17.2 6.3 17.25 6.2" fill="#000000" fill-rule="evenodd" stroke="none"/>
    <path d="M10.0 -1.5 L9.95 -1.3 9.65 -0.75 9.6 -0.55 9.1 0.15 9.1 0.2 8.3 1.1 7.25 2.0 7.15 2.05 5.9 2.95 4.4 3.75 4.45 3.8 2.7 4.75 2.8 4.8 2.9 5.7 7.1 3.4 7.15 3.4 9.35 1.95 10.0 1.35 12.25 3.05 12.85 3.4 12.9 3.4 17.15 5.7 17.2 4.8 17.3 4.75 15.6 3.8 15.6 3.75 13.4 2.5 12.5 1.8 12.55 1.8 12.3 1.6 11.2 0.55 10.8 0.05 10.75 -0.05 10.35 -0.7 10.0 -1.5 M8.75 0.35 L8.8 0.4 9.5 -0.6 9.65 -0.9 9.7 -1.1 10.0 -1.7 10.7 -0.3 10.9 0.0 11.1 0.2 11.15 0.3 11.75 1.0 13.0 2.05 13.4 2.35 13.6 2.45 13.55 2.45 14.15 2.85 16.85 4.3 16.8 4.35 17.35 4.65 17.25 5.9 11.75 2.85 11.25 2.5 11.75 2.85 11.6 2.75 11.25 2.5 10.15 1.65 10.2 1.6 10.0 1.5 8.5 2.7 2.75 5.9 2.65 4.65 3.2 4.35 3.2 4.3 Q4.8 3.45 6.35 2.55 L7.8 1.35 8.05 1.15 8.35 0.85 8.75 0.35 M2.75 6.2 L7.45 3.7 8.7 2.9 8.75 2.9 10.0 1.85 10.55 2.35 12.35 3.6 17.25 6.2 17.2 6.3 17.1 7.3 10.0 3.45 9.9 3.5 9.85 3.5 9.1 4.0 2.85 7.3 2.8 6.3 2.75 6.25 2.75 6.2 M17.2 6.3 L11.8 3.4 10.0 2.05 7.7 3.7 2.8 6.3 2.95 6.4 3.0 7.15 8.8 4.05 9.8 3.4 10.0 3.3 17.0 7.15 17.05 6.4 17.2 6.3" fill="#7f6600" fill-rule="evenodd" stroke="none"/>
    <path d="M10.0 -1.5 L10.35 -0.7 10.75 -0.05 10.8 0.05 11.2 0.55 12.3 1.6 12.55 1.8 12.5 1.8 13.4 2.5 15.6 3.75 15.6 3.8 17.3 4.75 17.2 4.8 17.15 5.7 12.9 3.4 12.85 3.4 12.25 3.05 10.0 1.35 9.35 1.95 7.15 3.4 7.1 3.4 2.9 5.7 2.8 4.8 2.7 4.75 4.45 3.8 4.4 3.75 5.9 2.95 7.15 2.05 7.25 2.0 8.3 1.1 9.1 0.2 9.1 0.15 9.6 -0.55 9.65 -0.75 9.95 -1.3 10.0 -1.5 M17.2 6.3 L17.05 6.4 17.0 7.15 10.0 3.3 9.8 3.4 8.8 4.05 3.0 7.15 2.95 6.4 2.8 6.3 7.7 3.7 10.0 2.05 11.8 3.4 17.2 6.3" fill="#ffcc00" fill-rule="evenodd" stroke="none"/>
  </g>
</svg>
