<?xml version="1.0" encoding="UTF-8" standalone="no"?>
<svg xmlns:ffdec="https://www.free-decompiler.com/flash" xmlns:xlink="http://www.w3.org/1999/xlink" ffdec:objectType="shape" height="9.85px" width="14.55px" xmlns="http://www.w3.org/2000/svg">
  <g transform="matrix(1.0, 0.0, 0.0, 1.0, -3.15, 1.85)">
    <path d="M10.5 -0.8 L10.65 -0.5 10.35 -0.95 11.3 0.55 12.55 1.7 12.65 1.8 12.75 1.85 13.15 2.25 13.55 2.5 17.5 5.0 17.7 5.1 17.6 5.2 17.5 6.45 11.6 2.85 9.95 1.45 10.0 1.4 9.95 1.3 11.75 2.85 17.35 6.25 17.45 5.25 17.55 5.2 17.45 5.15 17.45 5.1 13.05 2.35 12.2 1.6 11.1 0.45 10.25 -0.85 9.95 -1.6 10.0 -1.6 10.0 -1.8 10.5 -0.8 M8.6 2.6 L8.5 2.65 8.45 2.7 7.9 3.0 8.6 2.6 7.9 3.0 7.65 3.15 3.25 5.35 3.2 4.35 3.15 4.25 3.2 4.2 6.55 2.35 7.6 1.55 7.9 1.25 8.3 0.95 8.6 0.6 8.7 0.45 8.8 0.4 8.8 0.35 9.05 0.05 9.15 -0.05 9.25 -0.2 9.85 -1.4 9.85 -1.45 9.95 -1.55 9.95 -1.4 9.45 -0.35 8.9 0.4 8.8 0.5 8.45 0.95 7.35 1.95 6.1 2.8 3.2 4.35 3.3 4.4 3.35 5.2 7.15 3.25 7.2 3.25 8.35 2.6 8.4 2.55 9.15 2.0 8.8 2.3 9.95 1.45 9.95 1.55 9.7 1.7 8.6 2.6 M10.0 1.8 L10.2 2.0 11.25 2.85 11.55 3.1 11.85 3.35 12.25 3.6 13.55 4.4 17.5 6.75 17.45 6.9 11.75 3.45 11.15 3.0 11.2 3.0 10.8 2.8 10.85 2.75 10.25 2.2 10.2 2.25 9.95 2.0 9.95 2.05 9.75 2.2 9.65 2.3 8.85 2.95 7.55 3.7 3.3 5.85 3.25 5.8 3.25 5.7 7.5 3.6 10.0 1.9 10.0 1.8 M9.25 3.85 L8.9 4.05 8.85 4.05 4.75 6.1 4.4 6.25 3.35 6.75 3.35 6.6 3.3 5.85 3.45 5.9 3.5 6.5 4.5 6.05 3.7 6.45 9.95 3.35 17.2 7.8 17.3 6.95 17.45 6.9 17.35 7.95 9.95 3.45 9.25 3.85 8.85 4.05 9.25 3.85 M3.7 6.45 L3.35 6.6 3.7 6.45" fill="#7f6600" fill-rule="evenodd" stroke="none"/>
    <path d="M10.65 -0.5 L11.0 0.05 12.55 1.7 11.3 0.55 10.35 -0.95 10.65 -0.5 M12.75 1.85 L13.55 2.5 17.5 4.9 17.7 5.05 17.7 5.1 17.55 6.55 11.3 2.7 10.0 1.55 9.35 2.1 8.6 2.6 9.7 1.7 9.95 1.55 9.95 1.45 11.6 2.85 17.5 6.45 17.6 5.2 17.7 5.1 17.5 5.0 13.55 2.5 13.15 2.25 12.75 1.85 M7.9 3.0 L7.45 3.3 3.25 5.45 3.15 4.25 3.15 4.1 6.75 2.15 7.9 1.25 8.65 0.45 8.8 0.4 8.7 0.45 8.6 0.6 8.3 0.95 7.9 1.25 7.6 1.55 6.55 2.35 3.2 4.2 3.15 4.25 3.2 4.35 3.25 5.35 7.65 3.15 7.9 3.0 M8.8 0.35 L9.35 -0.45 10.0 -1.8 10.0 -1.85 10.5 -0.8 10.0 -1.8 10.0 -1.6 9.95 -1.6 9.95 -1.55 9.85 -1.45 9.85 -1.4 9.25 -0.2 9.15 -0.05 9.05 0.05 8.8 0.35 M11.25 2.85 L10.2 2.0 10.0 1.8 11.25 2.85 M10.0 1.8 L10.0 1.9 7.5 3.6 3.25 5.7 3.25 5.65 7.55 3.5 10.0 1.8 M3.25 5.8 L3.3 5.85 3.35 6.6 3.35 6.75 4.4 6.25 3.3 6.8 3.25 5.8 M17.45 6.9 L17.5 6.75 13.55 4.4 17.5 6.65 17.5 6.75 17.4 8.0 10.9 4.15 10.9 4.1 9.95 3.5 9.25 3.85 9.95 3.45 17.35 7.95 17.45 6.9 M12.25 3.6 L11.85 3.35 11.55 3.1 12.25 3.6" fill="#000000" fill-rule="evenodd" stroke="none"/>
    <path d="M9.95 -1.6 L10.25 -0.85 11.1 0.45 12.2 1.6 13.05 2.35 17.45 5.1 17.45 5.15 17.55 5.2 17.45 5.25 17.35 6.25 11.75 2.85 9.95 1.3 10.0 1.4 9.95 1.45 8.8 2.3 9.15 2.0 8.4 2.55 8.35 2.6 7.2 3.25 7.15 3.25 3.35 5.2 3.3 4.4 3.2 4.35 6.1 2.8 7.35 1.95 8.45 0.95 8.8 0.5 8.9 0.4 9.45 -0.35 9.95 -1.4 9.95 -1.55 9.95 -1.6 M3.3 5.85 L7.55 3.7 8.85 2.95 9.65 2.3 9.75 2.2 9.95 2.05 9.95 2.0 10.2 2.25 10.25 2.2 10.85 2.75 10.8 2.8 11.2 3.0 11.15 3.0 11.75 3.45 17.45 6.9 17.3 6.95 17.2 7.8 9.95 3.35 3.7 6.45 4.5 6.05 3.5 6.5 3.45 5.9 3.3 5.85" fill="#ffcc00" fill-rule="evenodd" stroke="none"/>
  </g>
</svg>
