<?xml version="1.0" encoding="UTF-8" standalone="no"?>
<svg xmlns:ffdec="https://www.free-decompiler.com/flash" xmlns:xlink="http://www.w3.org/1999/xlink" ffdec:objectType="shape" height="10.55px" width="13.9px" xmlns="http://www.w3.org/2000/svg">
  <g transform="matrix(1.0, 0.0, 0.0, 1.0, -3.8, 1.85)">
    <path d="M17.35 7.0 L17.5 5.75 17.55 5.7 17.5 5.65 12.5 2.1 11.6 1.2 10.7 0.05 10.75 0.05 10.6 -0.15 10.3 -0.8 10.3 -0.9 9.95 -1.7 10.0 -1.85 10.05 -1.75 10.7 -0.25 10.8 -0.15 11.1 0.3 11.05 0.3 11.2 0.5 12.5 1.95 13.05 2.45 17.7 5.65 17.65 5.65 17.5 7.15 17.35 7.05 17.35 7.0 15.45 5.7 14.8 5.25 12.25 3.5 9.9 1.4 9.85 1.25 11.6 2.9 17.15 6.7 17.35 7.0 M9.85 -1.4 L9.9 -1.25 9.45 -0.25 8.75 0.65 7.7 1.7 5.85 3.0 4.75 3.55 4.75 3.6 4.3 3.85 4.35 3.85 4.0 4.05 4.05 4.55 4.0 4.7 7.3 3.1 7.35 3.1 8.4 2.55 8.6 2.35 8.75 2.25 8.8 2.25 9.85 1.45 9.95 1.55 8.55 2.6 7.5 3.2 7.45 3.15 3.9 4.95 3.95 4.8 3.85 3.95 3.8 3.85 5.9 2.8 7.35 1.8 8.05 1.2 8.2 1.05 9.1 0.05 9.05 0.0 9.15 -0.05 9.25 -0.15 9.7 -1.0 9.85 -1.4 M10.0 1.8 L10.85 2.6 10.9 2.7 12.45 3.95 17.5 7.35 17.45 7.4 17.35 8.7 17.15 8.6 17.15 8.55 9.95 3.45 9.85 3.35 9.9 3.45 3.95 6.25 4.0 6.2 3.95 5.4 3.9 5.3 8.4 3.05 9.85 1.95 9.85 2.15 9.8 2.2 9.1 2.7 9.1 2.75 7.7 3.65 4.0 5.45 4.1 5.5 4.15 5.95 4.05 6.05 8.0 4.2 8.05 4.25 9.15 3.7 9.2 3.7 9.85 3.35 9.85 3.25 17.0 8.3 17.15 8.55 17.25 7.5 17.4 7.45 11.4 3.35 11.45 3.3 11.3 3.15 10.3 2.3 10.2 2.2 9.9 1.95 9.95 1.9 9.9 1.9 10.0 1.8" fill="#7f6600" fill-rule="evenodd" stroke="none"/>
    <path d="M17.35 7.0 L17.35 7.05 15.45 5.7 17.35 7.0 M17.5 7.15 L17.65 5.65 17.7 5.65 13.05 2.45 12.5 1.95 11.2 0.5 11.05 0.3 11.1 0.3 10.8 -0.15 10.7 -0.25 10.05 -1.75 10.75 -0.25 11.35 0.6 12.4 1.75 17.7 5.55 17.7 5.65 17.55 7.1 17.5 7.15 M9.95 -1.65 L9.9 -1.5 9.9 -1.45 9.85 -1.4 9.7 -1.0 9.25 -0.15 9.15 -0.05 9.05 0.0 9.1 0.05 8.2 1.05 8.05 1.2 7.35 1.8 5.9 2.8 3.8 3.85 3.85 3.95 3.95 4.8 3.9 4.95 7.45 3.15 7.5 3.2 8.55 2.6 9.95 1.55 9.85 1.45 9.9 1.4 12.25 3.5 11.2 2.75 10.0 1.6 8.7 2.55 8.6 2.65 7.5 3.2 3.95 5.0 3.9 5.0 3.9 4.95 3.8 3.85 3.8 3.8 7.35 1.8 7.4 1.7 8.05 1.2 8.6 0.55 8.65 0.5 9.05 0.0 9.15 -0.1 9.8 -1.4 9.95 -1.65 M10.0 1.8 L11.05 2.75 11.1 2.85 11.8 3.4 17.5 7.25 17.5 7.35 12.45 3.95 10.9 2.7 10.85 2.6 10.0 1.8 M17.5 7.35 L17.4 8.7 17.35 8.7 17.45 7.4 17.5 7.35 M17.15 8.6 L9.95 3.5 9.95 3.55 9.9 3.55 Q6.95 4.95 3.95 6.3 L3.95 6.25 3.9 5.3 3.9 5.2 8.3 3.05 8.95 2.6 9.5 2.15 9.9 1.9 9.95 1.9 9.9 1.95 9.85 1.95 8.4 3.05 3.9 5.3 3.95 5.4 4.0 6.2 3.95 6.25 9.9 3.45 9.85 3.35 9.95 3.45 17.15 8.55 17.15 8.6" fill="#000000" fill-rule="evenodd" stroke="none"/>
    <path d="M9.95 -1.7 L10.3 -0.9 10.3 -0.8 10.6 -0.15 10.75 0.05 10.7 0.05 11.6 1.2 12.5 2.1 17.5 5.65 17.55 5.7 17.5 5.75 17.35 7.0 17.15 6.7 11.6 2.9 9.85 1.25 9.9 1.4 9.85 1.45 8.8 2.25 8.75 2.25 8.6 2.35 8.4 2.55 7.35 3.1 7.3 3.1 4.0 4.7 4.05 4.55 4.0 4.05 4.35 3.85 4.3 3.85 4.75 3.6 4.75 3.55 5.85 3.0 7.7 1.7 8.75 0.65 9.45 -0.25 9.9 -1.25 9.85 -1.4 9.9 -1.45 9.9 -1.5 9.95 -1.65 9.95 -1.7 M9.9 1.95 L10.2 2.2 10.3 2.3 11.3 3.15 11.45 3.3 11.4 3.35 17.4 7.45 17.25 7.5 17.15 8.55 17.0 8.3 9.85 3.25 9.85 3.35 9.2 3.7 9.15 3.7 8.05 4.25 8.0 4.2 4.05 6.05 4.15 5.95 4.1 5.5 4.0 5.45 7.7 3.65 9.1 2.75 9.1 2.7 9.8 2.2 9.85 2.15 9.85 1.95 9.9 1.95" fill="#ffcc00" fill-rule="evenodd" stroke="none"/>
  </g>
</svg>
