<?xml version="1.0" encoding="UTF-8" standalone="no"?>
<svg xmlns:ffdec="https://www.free-decompiler.com/flash" xmlns:xlink="http://www.w3.org/1999/xlink" ffdec:objectType="shape" height="11.25px" width="12.75px" xmlns="http://www.w3.org/2000/svg">
  <g transform="matrix(1.0, 0.0, 0.0, 1.0, -4.65, 1.85)">
    <path d="M9.95 -1.75 L10.0 -1.85 10.0 -1.8 10.4 -0.85 10.4 -0.9 10.6 -0.4 10.75 -0.15 10.85 0.1 11.25 0.6 12.4 2.05 13.35 3.0 14.15 3.6 14.15 3.65 17.15 5.95 17.15 6.0 17.35 6.15 17.3 6.2 17.15 7.75 17.15 7.8 17.0 7.65 17.1 6.25 17.2 6.25 17.1 6.15 12.25 2.15 11.8 1.6 11.2 0.95 11.1 0.75 10.8 0.35 10.9 0.35 10.4 -0.5 9.95 -1.75 M12.3 4.05 L13.55 5.05 14.45 5.75 17.2 8.0 17.1 8.05 17.0 9.4 16.9 9.4 16.8 9.35 16.9 8.1 17.0 8.1 11.3 3.4 11.3 3.35 10.95 3.05 11.0 3.05 10.7 2.8 9.9 1.9 10.0 1.8 10.15 2.0 10.75 2.6 10.95 2.85 12.3 4.05 M4.7 4.6 L4.65 3.55 7.35 2.0 7.7 1.65 7.9 1.5 8.25 1.1 9.2 0.0 9.2 -0.05 9.5 -0.6 9.55 -0.75 9.8 -1.3 9.8 -0.95 9.75 -0.8 9.65 -0.6 9.55 -0.3 9.35 0.05 9.35 0.1 9.0 0.5 8.8 0.8 8.2 1.45 8.65 2.05 8.15 2.5 8.2 2.6 8.5 2.35 8.55 2.4 9.4 1.7 9.4 1.75 9.8 1.4 9.95 1.55 8.9 2.4 8.85 2.4 8.0 2.95 4.7 4.6 M16.9 7.55 L13.45 4.7 16.65 7.25 16.9 7.55 M12.35 3.85 L11.15 2.85 9.85 1.4 9.8 1.35 9.8 1.2 11.25 2.8 12.4 3.8 12.35 3.85 M9.8 2.05 L9.8 2.1 9.75 2.3 9.15 2.85 9.0 2.9 8.7 3.2 9.1 3.55 8.95 3.7 9.1 3.6 9.75 3.25 9.75 3.2 16.45 8.85 16.65 9.15 11.15 4.6 10.0 3.45 9.75 3.3 9.85 3.45 9.3 3.8 4.75 5.85 4.8 5.65 4.75 5.0 4.7 4.95 8.4 3.1 9.75 2.1 9.8 2.05 M9.75 3.25 L9.45 3.45 9.75 3.3 9.8 3.3 9.75 3.25" fill="#7f6600" fill-rule="evenodd" stroke="none"/>
    <path d="M10.0 -1.8 L10.05 -1.8 10.1 -1.75 10.65 -0.4 11.25 0.6 12.95 2.55 17.4 6.1 17.35 6.15 17.25 7.7 17.2 7.75 17.15 7.75 17.3 6.2 17.35 6.15 17.15 6.0 17.15 5.95 14.15 3.65 14.15 3.6 13.35 3.0 12.4 2.05 11.25 0.6 10.85 0.1 10.75 -0.15 10.6 -0.4 10.4 -0.9 10.4 -0.85 10.0 -1.8 M17.0 7.65 L11.75 3.45 10.95 2.7 11.15 2.95 12.3 4.05 10.95 2.85 10.75 2.6 10.15 2.0 10.0 1.8 10.05 1.8 10.95 2.7 10.0 1.6 9.9 1.7 8.8 2.55 4.8 4.65 4.75 4.65 4.7 4.6 8.0 2.95 8.85 2.4 8.9 2.4 9.95 1.55 9.8 1.4 9.85 1.4 11.15 2.85 12.35 3.85 13.45 4.7 16.9 7.55 17.0 7.65 M14.45 5.75 L17.2 7.9 17.2 8.0 17.05 9.35 17.05 9.4 17.0 9.4 17.1 8.05 17.2 8.0 14.45 5.75 M16.7 9.25 L10.7 4.25 10.5 4.1 10.55 4.1 9.95 3.5 9.3 3.8 4.85 5.9 4.75 5.85 4.7 4.95 4.7 4.85 8.45 3.0 8.95 2.65 9.0 2.55 9.85 1.9 9.85 1.95 9.8 2.05 9.75 2.1 8.4 3.1 4.7 4.95 4.75 5.0 4.8 5.65 4.75 5.85 9.3 3.8 9.85 3.45 9.75 3.3 10.0 3.45 11.15 4.6 16.65 9.15 16.7 9.25 M4.65 3.55 L4.65 3.45 6.7 2.35 8.25 1.1 9.15 -0.05 9.5 -0.75 9.55 -0.8 9.85 -1.6 9.8 -1.3 9.55 -0.75 9.5 -0.6 9.2 -0.05 9.2 0.0 8.25 1.1 7.9 1.5 7.7 1.65 7.35 2.0 4.65 3.55" fill="#000000" fill-rule="evenodd" stroke="none"/>
    <path d="M16.8 9.35 L16.7 9.25 16.65 9.15 16.45 8.85 9.75 3.2 9.75 3.25 9.1 3.6 8.95 3.7 9.1 3.55 8.7 3.2 9.0 2.9 9.15 2.85 9.75 2.3 9.8 2.1 9.8 2.05 9.85 1.95 9.85 1.9 9.9 1.9 10.7 2.8 11.0 3.05 10.95 3.05 11.3 3.35 11.3 3.4 17.0 8.1 16.9 8.1 16.8 9.35 M9.85 -1.6 L9.95 -1.75 10.4 -0.5 10.9 0.35 10.8 0.35 11.1 0.75 11.2 0.95 11.8 1.6 12.25 2.15 17.1 6.15 17.2 6.25 17.1 6.25 17.0 7.65 16.9 7.55 16.65 7.25 13.45 4.7 12.35 3.85 12.4 3.8 11.25 2.8 9.8 1.2 9.8 1.35 9.85 1.4 9.8 1.4 9.4 1.75 9.4 1.7 8.55 2.4 8.5 2.35 8.2 2.6 8.15 2.5 8.65 2.05 8.2 1.45 8.8 0.8 9.0 0.5 9.35 0.1 9.35 0.05 9.55 -0.3 9.65 -0.6 9.75 -0.8 9.8 -0.95 9.8 -1.3 9.85 -1.6 M9.75 3.25 L9.8 3.3 9.75 3.3 9.45 3.45 9.75 3.25" fill="#ffcc00" fill-rule="evenodd" stroke="none"/>
  </g>
</svg>
