<?xml version="1.0" encoding="UTF-8" standalone="no"?>
<svg xmlns:ffdec="https://www.free-decompiler.com/flash" xmlns:xlink="http://www.w3.org/1999/xlink" ffdec:objectType="shape" height="11.9px" width="11.15px" xmlns="http://www.w3.org/2000/svg">
  <g transform="matrix(1.0, 0.0, 0.0, 1.0, -5.55, 1.8)">
    <path d="M9.95 -1.8 L10.4 -0.5 10.45 -0.25 10.45 -0.15 10.6 0.2 11.15 1.05 11.1 1.05 11.4 1.4 11.35 1.4 12.25 2.6 16.45 6.75 16.4 6.75 16.3 8.35 16.1 8.2 15.9 7.9 15.75 7.55 15.8 6.85 14.15 5.25 14.2 5.2 11.8 2.8 10.25 0.55 9.75 -0.75 9.8 -0.75 9.7 -1.05 9.7 -1.1 9.75 -1.25 9.75 -1.35 9.85 -1.7 9.95 -1.8 M9.9 1.85 L10.25 2.4 10.35 2.5 10.4 2.5 10.45 2.55 10.85 3.1 10.8 3.1 11.1 3.4 11.05 3.45 16.25 8.65 16.2 8.7 16.1 10.05 15.9 9.85 15.75 9.65 15.65 9.45 15.7 8.75 11.3 4.35 10.4 3.25 10.45 3.25 9.7 2.25 9.75 2.15 9.8 2.0 9.8 1.95 9.9 1.85" fill="#ffcc00" fill-rule="evenodd" stroke="none"/>
    <path d="M9.75 -1.35 L9.75 -1.25 9.7 -1.1 9.4 -0.3 9.15 0.2 9.1 0.2 9.1 0.25 8.85 0.55 8.7 0.85 8.3 1.35 7.95 1.65 7.35 2.25 6.4 2.9 6.1 3.0 5.55 3.35 5.55 3.25 7.2 2.25 7.95 1.65 7.95 1.6 8.25 1.3 8.65 0.8 9.25 -0.15 9.3 -0.2 9.75 -1.35 M15.9 7.9 L16.1 8.2 11.15 3.25 10.0 1.8 9.95 1.65 9.95 1.7 8.35 2.95 5.7 4.35 5.6 4.3 8.0 3.0 8.1 3.0 8.65 2.6 8.7 2.6 8.8 2.55 9.4 2.05 9.9 1.6 9.8 1.45 9.7 1.25 10.1 1.8 10.05 1.8 11.05 3.0 15.9 7.9 M16.3 10.1 L16.4 8.65 16.5 8.6 16.3 8.35 16.4 8.4 16.5 8.5 16.5 8.6 16.4 10.0 16.3 10.1 M16.45 8.4 L16.6 6.7 16.65 6.65 12.9 3.05 12.7 2.9 11.5 1.35 11.55 1.35 10.9 0.35 10.1 -1.8 10.2 -1.6 10.75 -0.1 12.0 1.95 16.7 6.6 16.55 8.2 16.55 8.3 16.45 8.4 M15.75 9.65 L15.9 9.85 9.9 3.55 9.85 3.6 5.7 5.55 5.65 5.5 5.65 5.45 5.6 5.0 5.65 5.0 5.65 5.45 Q7.1 4.8 8.5 4.1 L8.55 4.1 9.05 3.85 9.1 3.85 9.75 3.45 9.8 3.5 9.8 3.45 9.7 3.25 15.75 9.65 M9.8 1.95 L9.8 2.0 9.75 2.15 9.65 2.15 8.8 2.95 8.15 3.35 5.6 4.65 5.65 4.75 5.6 4.75 5.6 4.65 5.6 4.55 8.3 3.15 9.1 2.6 9.3 2.35 9.8 1.95" fill="#000000" fill-rule="evenodd" stroke="none"/>
    <path d="M16.1 8.2 L16.3 8.35 16.4 6.75 16.45 6.75 12.25 2.6 11.35 1.4 11.4 1.4 11.1 1.05 11.15 1.05 10.6 0.2 10.45 -0.15 10.45 -0.25 10.4 -0.5 9.95 -1.8 10.1 -1.8 10.9 0.35 11.55 1.35 11.5 1.35 12.7 2.9 12.9 3.05 16.65 6.65 16.6 6.7 16.45 8.4 16.4 8.4 16.3 8.35 16.5 8.6 16.4 8.65 16.3 10.1 16.2 10.1 16.1 10.05 16.2 8.7 16.25 8.65 11.05 3.45 11.1 3.4 10.8 3.1 10.85 3.1 10.45 2.55 10.4 2.5 10.35 2.5 10.25 2.4 9.9 1.85 10.0 1.8 11.15 3.25 16.1 8.2 M9.7 -1.1 L9.7 -1.05 9.8 -0.75 9.75 -0.75 10.25 0.55 11.8 2.8 14.2 5.2 14.15 5.25 15.8 6.85 15.75 7.55 15.9 7.9 11.05 3.0 10.05 1.8 10.1 1.8 9.7 1.25 9.8 1.45 9.9 1.6 9.4 2.05 8.8 2.55 8.7 2.6 8.65 2.6 8.1 3.0 8.0 3.0 5.6 4.3 5.55 3.35 6.1 3.0 6.4 2.9 7.35 2.25 7.95 1.65 8.3 1.35 8.7 0.85 8.85 0.55 9.1 0.25 9.1 0.2 9.15 0.2 9.4 -0.3 9.7 -1.1 M9.75 2.15 L9.7 2.25 10.45 3.25 10.4 3.25 11.3 4.35 15.7 8.75 15.65 9.45 15.75 9.65 9.7 3.25 9.8 3.45 9.8 3.5 9.75 3.45 9.1 3.85 9.05 3.85 8.55 4.1 8.5 4.1 Q7.1 4.8 5.65 5.45 L5.65 5.0 5.6 5.0 5.6 4.75 5.65 4.75 5.6 4.65 8.15 3.35 8.8 2.95 9.65 2.15 9.75 2.15" fill="#7f6600" fill-rule="evenodd" stroke="none"/>
  </g>
</svg>
