<?xml version="1.0" encoding="UTF-8" standalone="no"?>
<svg xmlns:ffdec="https://www.free-decompiler.com/flash" xmlns:xlink="http://www.w3.org/1999/xlink" ffdec:objectType="shape" height="12.55px" width="9.1px" xmlns="http://www.w3.org/2000/svg">
  <g transform="matrix(1.0, 0.0, 0.0, 1.0, -6.5, 1.8)">
    <path d="M10.0 -1.8 L10.15 -1.15 10.2 -1.15 10.2 -0.95 10.25 -0.85 10.3 -0.65 10.35 -0.55 10.3 -0.55 10.5 0.05 10.45 0.05 10.7 0.7 11.1 1.45 11.05 1.45 11.3 1.8 11.25 1.85 12.1 3.05 12.0 3.05 12.4 3.55 12.35 3.55 15.35 7.25 15.25 8.95 15.15 8.9 15.1 8.85 15.05 8.85 14.95 8.75 14.85 8.6 14.75 8.45 14.75 8.4 14.75 7.3 12.3 4.15 12.75 4.7 10.5 1.35 10.55 1.35 10.05 0.3 10.0 0.0 9.7 -1.0 9.7 -1.1 9.65 -1.2 9.7 -1.45 9.75 -1.6 9.85 -1.7 9.9 -1.8 10.0 -1.8 M10.7 3.1 L10.65 3.1 10.9 3.45 10.85 3.5 15.25 9.2 15.1 9.25 15.05 10.7 14.9 10.6 14.8 10.5 14.6 10.25 14.6 10.2 14.65 9.3 14.6 9.3 10.6 3.85 9.75 2.3 9.8 2.3 9.7 2.1 9.75 1.95 9.9 1.8 10.25 2.5 10.3 2.5 10.7 3.1" fill="#ffcc00" fill-rule="evenodd" stroke="none"/>
    <path d="M10.0 -1.8 L10.05 -1.8 10.15 -1.75 10.5 -0.55 10.4 -0.75 10.65 0.0 10.7 0.05 10.65 0.05 11.85 2.4 12.2 2.95 15.6 7.15 15.55 7.15 15.45 8.9 15.4 8.95 15.3 9.0 15.45 9.1 15.35 9.15 15.25 10.7 15.15 10.75 15.05 10.7 15.1 9.25 15.25 9.2 10.85 3.5 10.9 3.45 10.65 3.1 10.7 3.1 10.3 2.5 10.25 2.5 9.9 1.8 9.95 1.8 10.0 1.85 10.7 3.1 10.75 3.1 9.95 1.75 9.9 1.65 9.65 1.2 9.7 1.35 9.9 1.65 9.7 1.85 9.65 1.85 9.6 1.95 9.2 2.35 9.15 2.35 8.95 2.55 8.9 2.55 8.7 2.75 8.65 2.7 8.4 2.9 8.35 2.9 6.55 4.0 6.55 3.8 8.15 2.7 6.8 3.1 8.0 2.1 8.65 1.25 9.4 -0.1 9.5 -0.4 9.5 -0.5 9.65 -1.0 9.7 -1.1 9.7 -1.0 10.0 0.0 10.05 0.3 10.55 1.35 10.5 1.35 12.75 4.7 12.3 4.15 14.75 7.3 14.75 8.4 13.65 7.0 14.85 8.6 14.95 8.75 15.05 8.85 15.1 8.85 15.15 8.9 15.25 8.95 15.35 7.25 12.35 3.55 12.4 3.55 12.0 3.05 12.1 3.05 11.25 1.85 11.3 1.8 11.05 1.45 11.1 1.45 10.7 0.7 10.45 0.05 10.5 0.05 10.3 -0.55 10.35 -0.55 10.3 -0.65 10.25 -0.85 10.2 -0.95 10.2 -1.15 10.15 -1.15 10.0 -1.8 M10.9 3.4 L12.85 5.9 13.3 6.55 13.65 7.0 13.3 6.55 12.85 5.9 10.9 3.4 M13.8 9.15 L13.55 8.75 10.4 4.4 10.05 3.9 10.1 3.85 9.8 3.35 9.65 3.15 9.65 3.25 9.75 3.4 6.6 5.1 6.6 5.0 8.55 3.8 6.55 4.55 8.5 3.4 8.45 3.35 8.95 3.0 9.7 2.2 9.65 2.15 9.7 2.1 9.8 2.3 9.75 2.3 10.6 3.85 14.6 9.3 14.65 9.3 14.6 10.2 13.8 9.15 M8.95 3.85 L8.75 4.0 8.7 4.0 8.2 4.3 8.95 3.85 9.75 3.4 9.8 3.45 9.75 3.45 9.35 3.7 9.3 3.7 9.0 3.9 8.95 3.85" fill="#7f6600" fill-rule="evenodd" stroke="none"/>
    <path d="M14.85 8.6 L13.65 7.0 14.75 8.4 14.75 8.45 14.85 8.6 M15.6 7.15 L12.2 2.95 11.85 2.4 10.65 0.05 10.7 0.05 10.65 0.0 10.4 -0.75 10.5 -0.55 10.15 -1.75 10.25 -1.6 10.65 -0.15 11.5 1.65 15.6 7.1 15.6 7.15 15.5 8.8 15.45 8.9 15.55 7.15 15.6 7.15 M9.7 -1.1 L9.65 -1.0 9.5 -0.5 9.5 -0.4 9.4 -0.1 8.65 1.25 8.0 2.1 6.8 3.1 8.15 2.7 6.55 3.8 6.5 3.05 7.95 2.0 8.75 1.0 8.95 0.6 9.05 0.45 9.2 0.1 9.3 0.0 9.5 -0.65 9.5 -0.7 9.65 -1.2 9.7 -1.1 M6.55 4.0 L8.35 2.9 8.4 2.9 8.65 2.7 8.7 2.75 8.9 2.55 8.95 2.55 9.15 2.35 9.2 2.35 9.6 1.95 9.65 1.85 9.7 1.85 9.9 1.65 9.7 1.35 9.65 1.2 9.9 1.65 9.95 1.75 10.75 3.1 10.7 3.1 10.0 1.85 9.95 1.8 9.95 1.75 9.9 1.8 9.75 1.95 9.7 2.1 9.65 2.15 9.7 2.2 8.95 3.0 8.45 3.35 8.5 3.4 6.55 4.55 8.55 3.8 6.6 5.0 6.55 4.55 6.55 4.35 8.55 3.15 8.9 2.9 9.3 2.45 8.8 2.85 6.85 4.05 6.75 4.1 6.7 4.1 6.6 4.05 6.55 4.0 M15.25 10.7 L15.35 9.15 15.45 9.1 15.3 9.0 15.4 8.95 15.45 9.0 15.45 9.1 15.35 10.45 15.35 10.55 15.25 10.7 M13.8 9.15 L14.6 10.2 14.6 10.25 13.8 9.15 M6.6 5.1 L9.75 3.4 9.65 3.25 9.65 3.15 9.8 3.35 10.1 3.85 10.05 3.9 9.85 3.6 9.3 3.95 6.85 5.25 6.6 5.25 6.6 5.1 M9.8 3.45 L9.75 3.4 8.95 3.85 9.0 3.9 9.3 3.7 9.35 3.7 9.75 3.45 9.8 3.45 M8.95 3.85 L8.2 4.3 8.7 4.0 8.75 4.0 8.95 3.85" fill="#000000" fill-rule="evenodd" stroke="none"/>
  </g>
</svg>
