<?xml version="1.0" encoding="UTF-8" standalone="no"?>
<svg xmlns:ffdec="https://www.free-decompiler.com/flash" xmlns:xlink="http://www.w3.org/1999/xlink" ffdec:objectType="shape" height="13.1px" width="6.65px" xmlns="http://www.w3.org/2000/svg">
  <g transform="matrix(1.0, 0.0, 0.0, 1.0, -7.55, 1.85)">
    <path d="M10.2 -1.7 L10.25 -1.65 10.25 -1.6 10.35 -1.4 10.5 -0.4 11.05 1.4 14.15 7.35 14.2 7.5 14.1 9.1 14.05 9.25 14.15 7.55 13.75 6.8 13.7 6.8 11.5 2.7 11.55 2.7 11.05 1.4 10.6 0.1 10.2 -1.7 M14.0 9.35 L14.1 9.5 14.05 10.5 14.0 10.85 13.95 11.0 13.9 11.05 14.05 9.6 13.95 9.35 14.0 9.35 M13.0 10.45 L10.25 4.75 9.85 3.7 9.85 3.75 7.95 5.05 7.8 5.1 7.7 5.1 7.6 4.95 7.6 4.9 7.55 4.25 7.6 4.2 7.9 3.95 7.7 3.95 7.6 3.9 7.55 3.75 7.55 3.0 8.45 1.95 8.9 1.25 9.2 0.5 9.6 -0.95 9.6 -0.9 10.15 1.4 12.9 7.2 10.95 4.25 9.85 1.85 9.8 1.85 9.7 1.95 9.85 1.75 9.6 1.2 9.2 1.9 9.2 2.0 9.05 2.2 8.85 2.6 9.0 2.65 9.15 2.5 9.2 2.5 9.35 2.35 9.4 2.35 9.55 2.15 9.55 2.2 9.65 2.05 9.6 2.25 9.6 2.3 10.35 4.25 13.05 9.7 13.0 9.65 13.0 10.45 M12.6 7.55 L13.1 8.55 13.2 8.8 12.6 7.55" fill="#000000" fill-rule="evenodd" stroke="none"/>
    <path d="M10.05 -1.8 L10.1 -1.8 10.2 -1.75 10.2 -1.7 10.6 0.1 11.05 1.4 11.55 2.7 11.5 2.7 13.7 6.8 13.75 6.8 14.15 7.55 14.05 9.25 14.0 9.35 13.95 9.35 14.05 9.6 13.9 11.05 13.85 11.15 13.75 11.25 13.65 11.25 13.7 9.65 13.8 9.65 13.6 9.35 13.7 9.4 13.8 9.4 13.9 7.6 13.5 6.85 13.4 6.85 13.4 6.8 12.65 5.45 12.6 5.45 11.4 3.15 11.45 3.15 11.05 2.3 11.1 2.25 10.9 1.85 10.95 1.85 10.55 0.8 10.55 0.75 10.6 0.75 10.35 0.05 10.45 0.05 10.2 -0.85 10.25 -0.9 10.05 -1.8 M13.2 10.9 L13.0 10.45 13.0 9.65 13.05 9.7 10.35 4.25 9.6 2.3 9.6 2.25 9.65 2.05 9.55 2.2 9.55 2.15 9.4 2.35 9.35 2.35 9.2 2.5 9.15 2.5 9.0 2.65 8.85 2.6 9.05 2.2 9.2 2.0 9.2 1.9 9.6 1.2 9.85 1.75 9.7 1.95 9.95 2.6 9.9 2.6 13.0 9.15 12.15 7.55 13.2 9.7 13.25 9.7 13.3 9.75 13.2 10.9 M9.6 -0.95 L9.65 -1.3 9.65 -1.4 9.75 -1.15 9.95 -0.05 9.95 0.1 10.7 2.45 12.25 5.6 12.2 5.6 13.3 7.65 13.35 7.65 13.3 9.05 13.2 8.8 13.1 8.55 12.6 7.55 12.4 7.25 12.2 6.8 11.3 5.0 11.1 4.55 10.85 4.1 10.95 4.25 11.1 4.55 10.95 4.25 12.9 7.2 10.15 1.4 9.6 -0.9 9.6 -0.95" fill="#7f6600" fill-rule="evenodd" stroke="none"/>
    <path d="M13.65 11.25 L13.35 11.1 13.2 10.9 13.3 9.75 13.25 9.7 13.2 9.7 12.15 7.55 13.0 9.15 9.9 2.6 9.95 2.6 9.7 1.95 9.8 1.85 9.85 1.85 10.95 4.25 10.85 4.1 11.1 4.55 11.3 5.0 12.2 6.8 12.4 7.25 12.6 7.55 13.2 8.8 13.3 9.05 13.35 7.65 13.3 7.65 12.2 5.6 12.25 5.6 10.7 2.45 9.95 0.1 9.95 -0.05 9.75 -1.15 9.65 -1.4 9.7 -1.5 9.75 -1.65 9.85 -1.75 9.95 -1.8 10.0 -1.85 10.05 -1.8 10.25 -0.9 10.2 -0.85 10.45 0.05 10.35 0.05 10.6 0.75 10.55 0.75 10.55 0.8 10.95 1.85 10.9 1.85 11.1 2.25 11.05 2.3 11.45 3.15 11.4 3.15 12.6 5.45 12.65 5.45 13.4 6.8 13.4 6.85 13.5 6.85 13.9 7.6 13.8 9.4 13.7 9.4 13.6 9.35 13.8 9.65 13.7 9.65 13.65 11.25" fill="#ffcc00" fill-rule="evenodd" stroke="none"/>
  </g>
</svg>
