<?xml version="1.0" encoding="UTF-8" standalone="no"?>
<svg xmlns:ffdec="https://www.free-decompiler.com/flash" xmlns:xlink="http://www.w3.org/1999/xlink" ffdec:objectType="shape" height="13.45px" width="3.9px" xmlns="http://www.w3.org/2000/svg">
  <g transform="matrix(1.0, 0.0, 0.0, 1.0, -8.6, 1.85)">
    <path d="M12.3 11.25 L12.35 9.9 12.3 9.55 12.35 9.5 12.4 9.8 12.4 10.95 12.35 11.15 12.3 11.25 M12.35 9.45 L12.4 7.8 12.45 7.8 12.25 7.05 12.2 7.05 10.75 1.9 10.8 1.9 10.3 -1.3 10.4 -0.8 10.3 -1.5 10.35 -1.4 10.4 -1.25 11.2 3.4 12.5 7.75 12.45 9.15 12.35 9.45 M11.4 9.0 L11.3 8.6 9.65 1.5 9.65 1.55 9.55 1.9 9.55 2.3 9.6 2.15 11.35 9.95 11.35 10.9 9.8 4.05 9.15 4.85 9.05 4.95 8.8 4.95 8.65 4.85 8.6 4.75 8.6 4.15 8.8 3.85 8.65 3.75 8.6 3.65 8.6 3.0 9.2 1.5 9.25 1.25 9.25 1.15 9.45 0.3 9.45 0.05 9.55 -0.45 9.55 -0.55 9.6 -1.15 9.75 0.15 9.75 0.4 10.05 2.4 10.8 5.4 10.85 5.75 11.4 7.85 11.4 9.0" fill="#000000" fill-rule="evenodd" stroke="none"/>
    <path d="M10.15 -1.75 L10.25 -1.65 10.3 -1.5 10.4 -0.8 10.3 -1.3 10.8 1.9 10.75 1.9 12.2 7.05 12.25 7.05 12.45 7.8 12.4 7.8 12.35 9.45 12.35 9.5 12.3 9.55 12.35 9.9 12.3 11.25 12.25 11.35 12.05 11.55 12.1 9.95 12.05 9.7 12.1 9.7 12.15 7.85 11.95 7.05 11.9 7.05 11.65 6.3 11.6 6.3 11.4 5.6 11.35 5.6 11.15 4.95 11.15 4.9 11.1 4.95 10.85 4.3 10.95 4.3 10.7 3.75 10.8 3.7 10.85 3.7 10.7 3.2 10.75 3.2 10.65 2.75 10.7 2.75 10.55 2.3 10.6 2.3 10.5 1.9 10.55 1.9 10.45 1.5 10.5 1.5 10.35 0.65 10.3 0.5 10.3 0.4 10.35 0.4 10.3 0.05 10.35 0.05 10.15 -1.7 10.15 -1.75 M9.7 -1.55 L9.75 -1.4 9.7 -1.4 9.8 -0.4 9.8 -0.2 9.85 -0.2 9.9 0.3 10.0 0.75 10.05 1.55 10.1 1.5 10.35 2.8 10.5 3.25 10.5 3.2 10.65 3.75 10.7 3.75 10.85 4.3 10.65 3.75 10.8 4.25 10.8 4.3 10.85 4.3 11.0 4.9 10.8 4.3 11.15 5.6 10.9 4.95 11.3 6.35 11.05 5.65 11.65 7.9 11.6 9.5 11.45 9.2 11.4 9.0 11.4 7.85 10.85 5.75 10.8 5.4 10.05 2.4 9.75 0.4 9.75 0.15 9.6 -1.15 9.6 -1.35 9.7 -1.55 M11.3 8.6 L11.2 8.25 11.6 9.95 11.6 11.45 11.35 10.9 11.35 9.95 9.6 2.15 9.55 2.3 9.55 1.9 9.65 1.55 9.65 1.5 11.3 8.6 M12.0 11.55 L12.05 10.35 12.05 11.55 12.0 11.55 M11.65 7.9 L11.4 7.15 11.55 7.9 11.65 7.9 M12.05 9.95 L11.95 9.7 12.0 9.7 12.05 9.95" fill="#7f6600" fill-rule="evenodd" stroke="none"/>
    <path d="M10.15 -1.75 L10.15 -1.7 10.35 0.05 10.3 0.05 10.35 0.4 10.3 0.4 10.3 0.5 10.35 0.65 10.5 1.5 10.45 1.5 10.55 1.9 10.5 1.9 10.6 2.3 10.55 2.3 10.7 2.75 10.65 2.75 10.75 3.2 10.7 3.2 10.85 3.7 10.8 3.7 10.7 3.75 10.95 4.3 10.85 4.3 11.1 4.95 11.15 4.9 11.15 4.95 11.35 5.6 11.4 5.6 11.6 6.3 11.65 6.3 11.9 7.05 11.95 7.05 12.15 7.85 12.1 9.7 12.05 9.7 12.1 9.95 12.05 11.55 12.05 10.35 12.0 11.55 11.95 11.6 11.75 11.5 11.6 11.45 11.6 9.95 11.2 8.25 11.3 8.6 11.4 9.0 11.45 9.2 11.6 9.5 11.65 7.9 11.05 5.65 11.3 6.35 10.9 4.95 11.15 5.6 10.8 4.3 11.0 4.9 10.85 4.3 10.8 4.3 10.8 4.25 10.65 3.75 10.85 4.3 10.7 3.75 10.65 3.75 10.5 3.2 10.5 3.25 10.35 2.8 10.1 1.5 10.05 1.55 10.0 0.75 9.9 0.3 9.85 -0.2 9.8 -0.2 9.8 -0.4 9.7 -1.4 9.75 -1.4 9.7 -1.55 9.8 -1.7 9.8 -1.75 9.95 -1.8 10.0 -1.85 10.1 -1.75 10.15 -1.75 M11.65 7.9 L11.55 7.9 11.4 7.15 11.65 7.9 M12.05 9.95 L12.0 9.7 11.95 9.7 12.05 9.95" fill="#ffcc00" fill-rule="evenodd" stroke="none"/>
  </g>
</svg>
