<?xml version="1.0" encoding="UTF-8" standalone="no"?>
<svg xmlns:ffdec="https://www.free-decompiler.com/flash" xmlns:xlink="http://www.w3.org/1999/xlink" ffdec:objectType="shape" height="13.5px" width="1.15px" xmlns="http://www.w3.org/2000/svg">
  <g transform="matrix(1.0, 0.0, 0.0, 1.0, -9.5, 1.8)">
    <path d="M9.75 -1.7 L9.8 -1.75 9.85 -1.75 9.9 -1.8 10.1 -1.8 10.2 -1.75 10.2 -1.4 10.25 -1.4 10.25 -0.25 10.2 -0.25 10.2 0.4 10.15 0.4 10.2 1.9 10.15 1.9 10.15 2.35 10.1 2.3 10.15 2.8 10.05 2.75 10.1 3.2 10.0 3.2 10.0 2.75 9.95 2.8 9.9 2.8 9.9 1.9 9.85 1.9 9.85 0.75 9.8 0.75 9.75 -1.7 M10.25 11.6 L10.25 11.65 10.15 11.65 10.1 11.7 10.0 11.7 9.95 11.65 9.85 11.6 9.85 9.75 9.8 9.7 9.8 7.1 9.85 7.95 9.85 6.4 9.9 7.15 9.9 5.65 10.0 6.35 10.0 5.65 10.1 5.65 10.15 6.35 10.2 6.4 10.2 7.15 10.25 7.15 10.3 7.9 10.3 7.95 10.35 7.95 10.35 9.7 10.3 9.75 10.25 9.75 10.3 10.05 10.25 11.6 M10.0 3.2 L9.95 3.2 9.95 2.8 10.0 3.2" fill="#ffcc00" fill-rule="evenodd" stroke="none"/>
    <path d="M10.2 -1.75 L10.4 -1.35 10.4 -0.95 10.6 5.7 10.6 6.25 10.6 7.9 10.55 7.9 10.5 11.25 10.45 11.45 10.25 11.6 10.3 10.05 10.25 9.75 10.3 9.75 10.35 9.7 10.35 7.95 10.3 7.95 10.3 7.9 10.25 7.15 10.2 7.15 10.2 6.4 10.15 6.35 10.1 5.65 10.0 5.65 10.0 6.35 9.9 5.65 9.9 7.15 9.85 6.4 9.85 7.95 9.8 7.1 9.8 9.7 9.85 9.75 9.85 11.6 9.7 11.45 9.6 11.25 9.6 10.0 9.55 10.0 9.55 9.3 9.6 9.35 9.6 6.0 9.65 7.0 9.65 0.45 9.6 0.45 9.6 -1.35 9.65 -1.4 9.65 -1.5 9.75 -1.7 9.8 0.75 9.85 0.75 9.85 1.9 9.9 1.9 9.9 2.8 9.95 2.8 10.0 2.75 10.0 3.2 10.1 3.2 10.05 2.75 10.15 2.8 10.1 2.3 10.15 2.35 10.15 1.9 10.2 1.9 10.15 0.4 10.2 0.4 10.2 -0.25 10.25 -0.25 10.25 -1.4 10.2 -1.4 10.2 -1.75 M10.0 3.2 L9.95 2.8 9.95 3.2 10.0 3.2" fill="#7f6600" fill-rule="evenodd" stroke="none"/>
    <path d="M10.6 6.25 L10.65 8.35 10.6 9.0 10.6 10.9 10.5 11.25 10.55 7.9 10.6 7.9 10.6 6.25 M9.6 11.25 L9.55 10.95 9.55 10.0 9.6 10.0 9.6 11.25 M9.55 9.3 L9.55 9.0 9.5 8.9 9.6 0.45 9.65 0.45 9.65 7.0 9.6 6.0 9.6 9.35 9.55 9.3" fill="#000000" fill-rule="evenodd" stroke="none"/>
  </g>
</svg>
