<?xml version="1.0" encoding="UTF-8" standalone="no"?>
<svg xmlns:ffdec="https://www.free-decompiler.com/flash" xmlns:xlink="http://www.w3.org/1999/xlink" ffdec:objectType="shape" height="13.45px" width="3.7px" xmlns="http://www.w3.org/2000/svg">
  <g transform="matrix(1.0, 0.0, 0.0, 1.0, -7.65, 1.85)">
    <path d="M10.3 -1.55 L10.35 -1.55 10.4 -1.2 10.4 -1.0 10.35 -0.8 10.35 -0.5 8.85 7.2 8.9 7.25 8.75 7.85 8.7 7.85 8.75 9.05 10.35 1.5 10.45 1.85 10.4 1.9 10.45 2.05 10.4 2.1 8.75 9.95 8.75 11.0 8.7 11.2 8.6 11.3 8.5 11.45 8.5 10.0 8.55 10.0 8.75 9.05 8.55 9.5 8.5 7.9 8.9 6.4 8.85 6.35 9.2 4.3 9.3 3.75 9.15 4.35 9.2 4.3 9.05 4.9 9.15 4.35 9.0 4.95 8.95 4.95 8.75 5.6 8.7 5.6 8.5 6.3 8.45 6.3 8.25 7.05 8.2 7.05 7.95 7.85 7.9 7.85 8.0 9.7 8.1 9.75 8.05 9.95 8.1 11.55 8.05 11.55 7.8 11.3 7.8 11.2 7.8 9.95 7.75 9.9 7.85 9.55 7.8 9.5 7.75 9.35 7.7 7.8 8.1 6.35 8.15 6.3 9.1 2.75 9.05 2.8 9.6 -0.2 9.55 -0.05 9.6 -0.35 9.6 -0.65 9.7 -1.55 9.75 -1.6 9.8 -1.7 9.85 -1.75 9.65 0.4 9.7 0.4 9.65 0.75 9.65 0.85 9.5 1.9 9.5 2.0 9.35 2.75 9.4 2.75 9.3 3.2 9.4 3.2 9.3 3.75 9.4 3.75 9.45 3.2 9.5 3.2 9.6 2.8 9.65 2.8 10.0 1.15 10.05 0.5 10.05 0.35 10.1 0.15 10.2 -0.5 10.25 -0.5 10.2 -0.8 10.25 -0.8 10.25 -0.95 10.3 -1.55 M9.6 0.7 L9.65 0.75 9.65 0.4 9.6 0.7 M9.45 2.3 L9.5 2.3 9.4 2.65 9.45 2.3 M9.3 3.75 L9.35 3.3 9.25 3.75 9.3 3.75" fill="#7f6600" fill-rule="evenodd" stroke="none"/>
    <path d="M10.4 -1.0 L10.4 -0.9 10.45 -0.7 10.6 0.5 10.6 0.6 10.65 0.9 10.65 1.0 11.35 3.0 11.3 3.55 11.3 3.65 11.25 3.75 11.15 3.85 11.3 4.15 11.3 4.75 11.25 4.85 11.25 4.9 11.2 4.95 10.9 4.95 10.85 4.9 10.75 4.85 10.2 4.1 8.75 11.0 8.75 9.95 10.4 2.1 10.45 2.05 10.4 1.9 10.45 1.85 10.35 1.5 8.75 9.05 8.7 7.85 8.75 7.85 8.9 7.25 8.85 7.2 10.35 -0.5 10.35 -0.8 10.4 -1.0 M7.8 11.2 L7.75 11.05 7.7 9.85 7.8 9.5 7.85 9.55 7.75 9.9 7.8 9.95 7.8 11.2 M7.75 9.35 L7.7 9.1 7.65 7.75 8.85 3.4 9.6 -1.2 9.65 -1.4 9.65 -1.5 9.7 -1.6 9.7 -1.55 9.6 -0.65 9.6 -0.35 9.55 -0.05 9.6 -0.2 9.05 2.8 9.1 2.75 8.15 6.3 8.1 6.35 7.7 7.8 7.75 9.35" fill="#000000" fill-rule="evenodd" stroke="none"/>
    <path d="M9.85 -1.75 L9.9 -1.8 10.0 -1.85 10.0 -1.8 10.05 -1.8 10.2 -1.7 10.3 -1.6 10.3 -1.55 10.25 -0.95 10.25 -0.8 10.2 -0.8 10.25 -0.5 10.2 -0.5 10.1 0.15 10.05 0.35 10.05 0.5 10.0 1.15 9.65 2.8 9.6 2.8 9.5 3.2 9.45 3.2 9.4 3.75 9.3 3.75 9.4 3.2 9.3 3.2 9.4 2.75 9.35 2.75 9.5 2.0 9.5 1.9 9.65 0.85 9.65 0.75 9.7 0.4 9.65 0.4 9.85 -1.75 M8.5 11.45 L8.3 11.6 8.15 11.6 8.1 11.55 8.05 9.95 8.1 9.75 8.0 9.7 7.9 7.85 7.95 7.85 8.2 7.05 8.25 7.05 8.45 6.3 8.5 6.3 8.7 5.6 8.75 5.6 8.95 4.95 9.0 4.95 9.15 4.35 9.05 4.9 9.2 4.3 9.15 4.35 9.3 3.75 9.25 3.75 9.35 3.3 9.3 3.75 9.2 4.3 8.85 6.35 8.9 6.4 8.5 7.9 8.55 9.5 8.75 9.05 8.55 10.0 8.5 10.0 8.5 11.45 M9.45 2.3 L9.4 2.65 9.5 2.3 9.45 2.3 M9.6 0.7 L9.65 0.4 9.65 0.75 9.6 0.7" fill="#ffcc00" fill-rule="evenodd" stroke="none"/>
  </g>
</svg>
