<?xml version="1.0" encoding="UTF-8" standalone="no"?>
<svg xmlns:ffdec="https://www.free-decompiler.com/flash" xmlns:xlink="http://www.w3.org/1999/xlink" ffdec:objectType="shape" height="13.1px" width="6.5px" xmlns="http://www.w3.org/2000/svg">
  <g transform="matrix(1.0, 0.0, 0.0, 1.0, -5.9, 1.85)">
    <path d="M9.95 -1.8 L10.0 -1.85 10.1 -1.75 10.25 -1.7 10.35 -1.35 10.3 -1.25 10.25 -0.8 10.1 -0.3 10.1 -0.15 10.0 0.55 9.4 2.3 7.45 6.3 7.5 6.3 6.8 7.65 6.75 7.65 6.8 9.1 7.0 8.75 9.7 3.1 10.15 1.85 10.3 1.95 9.95 3.0 9.9 3.2 9.85 3.2 9.75 3.6 9.7 3.6 9.35 4.5 9.4 4.5 6.9 9.7 6.85 9.75 6.9 10.95 6.6 11.25 6.45 11.25 6.4 9.7 6.35 9.7 6.45 9.45 6.3 9.45 6.25 7.65 6.65 6.85 6.7 6.85 7.75 4.8 7.5 5.5 8.65 3.15 8.6 3.15 9.0 2.3 8.95 2.3 9.35 1.1 9.3 1.1 9.35 1.0 9.65 0.05 9.6 0.05 9.95 -1.8" fill="#ffcc00" fill-rule="evenodd" stroke="none"/>
    <path d="M10.3 1.95 L10.15 1.85 9.7 3.1 7.0 8.75 7.05 8.4 7.05 7.65 9.5 2.45 10.1 0.5 10.1 0.4 10.35 -0.55 10.4 -1.0 10.4 -0.9 10.5 -0.4 10.95 0.95 11.35 1.75 11.45 1.9 12.4 3.0 12.35 3.7 12.35 3.8 12.3 3.9 12.1 3.95 12.0 3.9 12.35 4.2 12.35 5.0 12.15 5.1 12.0 5.05 11.95 5.0 10.15 3.75 7.05 10.65 7.1 10.4 7.1 9.7 9.5 4.55 9.45 4.75 10.4 2.3 10.35 2.05 10.4 2.15 10.45 2.15 10.6 2.35 10.65 2.35 10.75 2.5 10.85 2.5 10.95 2.65 11.15 2.6 11.0 2.4 11.0 2.35 10.55 1.5 10.35 1.2 10.35 1.3 10.15 1.75 10.3 1.95 M9.75 -1.65 L9.55 -0.55 9.45 -0.25 9.5 -0.25 8.9 1.8 8.3 3.15 8.3 3.1 5.95 7.55 6.0 7.55 6.05 9.3 6.0 9.15 5.9 7.5 8.85 1.75 9.45 -0.15 9.45 -0.25 9.65 -1.45 9.75 -1.65 M6.15 9.35 L6.2 9.4 6.1 9.6 6.15 10.95 6.05 10.6 6.0 9.55 6.15 9.35" fill="#000000" fill-rule="evenodd" stroke="none"/>
    <path d="M9.95 -1.8 L9.6 0.05 9.65 0.05 9.35 1.0 9.3 1.1 9.35 1.1 8.95 2.3 9.0 2.3 8.6 3.15 8.65 3.15 7.5 5.5 7.75 4.8 6.7 6.85 6.65 6.85 6.25 7.65 6.3 9.45 6.45 9.45 6.35 9.7 6.4 9.7 6.45 11.25 6.4 11.25 6.25 11.15 6.2 11.15 6.15 11.05 6.15 10.95 6.1 9.6 6.2 9.4 6.15 9.35 6.05 9.3 6.0 7.55 5.95 7.55 8.3 3.1 8.3 3.15 8.9 1.8 9.5 -0.25 9.45 -0.25 9.55 -0.55 9.75 -1.65 9.9 -1.75 9.95 -1.8 M6.9 10.95 L6.85 9.75 6.9 9.7 9.4 4.5 9.35 4.5 9.7 3.6 9.75 3.6 9.85 3.2 9.9 3.2 9.95 3.0 10.3 1.95 10.15 1.75 10.35 1.3 10.35 1.2 10.55 1.5 11.0 2.35 11.0 2.4 11.15 2.6 10.95 2.65 10.85 2.5 10.75 2.5 10.65 2.35 10.6 2.35 10.45 2.15 10.4 2.15 10.35 2.05 10.4 2.3 9.45 4.75 9.5 4.55 7.1 9.7 7.1 10.4 7.05 10.65 6.9 10.95 M7.0 8.75 L6.8 9.1 6.75 7.65 6.8 7.65 7.5 6.3 7.45 6.3 9.4 2.3 10.0 0.55 10.1 -0.15 10.1 -0.3 10.25 -0.8 10.3 -1.25 10.35 -1.35 10.4 -1.0 10.35 -0.55 10.1 0.4 10.1 0.5 9.5 2.45 7.05 7.65 7.05 8.4 7.0 8.75" fill="#7f6600" fill-rule="evenodd" stroke="none"/>
  </g>
</svg>
