<?xml version="1.0" encoding="UTF-8" standalone="no"?>
<svg xmlns:ffdec="https://www.free-decompiler.com/flash" xmlns:xlink="http://www.w3.org/1999/xlink" ffdec:objectType="shape" height="12.65px" width="9.0px" xmlns="http://www.w3.org/2000/svg">
  <g transform="matrix(1.0, 0.0, 0.0, 1.0, -4.4, 1.85)">
    <path d="M9.85 -1.75 L9.9 -1.8 10.0 -1.85 10.0 -1.8 9.95 -1.4 9.9 -1.4 9.65 -0.55 9.7 -0.55 9.65 -0.35 9.35 0.4 9.45 0.4 8.7 1.85 8.75 1.85 7.8 3.35 7.65 3.55 7.7 3.55 6.85 4.65 6.8 4.65 4.75 7.25 4.85 9.0 4.95 9.0 5.3 8.65 4.85 9.25 4.9 9.25 5.0 9.3 5.05 10.75 4.95 10.8 4.85 10.75 4.8 10.7 4.7 9.2 4.65 9.15 4.8 9.0 4.7 8.95 4.6 8.85 4.6 8.75 4.5 7.2 7.9 2.85 9.2 0.5 9.2 0.35 9.15 0.35 9.3 0.15 9.6 -0.7 9.6 -0.95 9.85 -1.75 M13.4 3.8 L13.4 3.95 11.65 2.85 11.55 2.9 11.3 2.7 11.3 2.75 11.1 2.55 11.05 2.55 10.85 2.35 10.8 2.35 10.2 1.75 10.15 1.65 10.3 1.35 10.35 1.15 8.95 3.65 8.1 4.85 8.95 3.65 9.35 3.1 9.1 3.45 9.15 3.5 9.05 3.65 9.1 3.6 8.65 4.3 5.8 8.1 7.0 6.45 5.3 8.65 8.1 4.85 5.4 8.35 5.35 8.45 5.3 7.35 5.35 7.35 9.2 1.9 9.9 0.45 9.9 0.4 10.25 -0.7 10.35 -1.15 10.35 -0.9 10.45 -0.7 10.5 -0.4 10.7 0.15 10.75 0.25 10.95 0.55 10.9 0.6 11.45 1.5 11.6 1.65 11.55 1.7 12.55 2.6 12.55 2.65 13.05 3.0 11.8 2.7 12.25 3.0 11.7 2.65 13.4 3.8 M9.7 2.5 L10.05 1.85 10.1 1.8 9.75 2.5 9.7 2.5 M10.3 2.1 L10.35 2.2 10.35 2.25 11.2 3.1 11.5 3.35 11.5 3.4 13.35 4.5 11.35 3.4 13.35 4.55 11.4 3.8 13.35 4.95 11.7 4.05 13.35 5.0 10.65 3.55 11.5 4.05 10.3 3.4 13.35 5.1 11.25 4.0 11.2 4.0 11.0 3.9 10.7 3.7 10.65 3.7 10.3 3.45 10.2 3.45 10.3 3.3 10.35 3.15 9.45 4.55 9.5 4.6 5.5 10.25 5.45 9.3 5.5 9.3 9.15 4.25 9.9 3.0 10.0 2.6 10.3 2.1" fill="#7f6600" fill-rule="evenodd" stroke="none"/>
    <path d="M10.0 -1.8 L10.1 -1.8 10.15 -1.7 10.2 -1.65 10.3 -1.5 10.35 -1.15 10.25 -0.7 9.9 0.4 9.9 0.45 9.2 1.9 5.35 7.35 5.3 7.35 5.35 8.45 5.3 8.65 4.95 9.0 4.85 9.0 4.75 7.25 6.8 4.65 6.85 4.65 7.7 3.55 7.65 3.55 7.8 3.35 8.75 1.85 8.7 1.85 9.45 0.4 9.35 0.4 9.65 -0.35 9.7 -0.55 9.65 -0.55 9.9 -1.4 9.95 -1.4 10.0 -1.8 M5.5 10.3 L5.35 10.55 5.05 10.75 5.0 9.3 4.9 9.25 4.85 9.25 5.3 8.65 7.0 6.45 5.8 8.1 8.65 4.3 9.1 3.6 9.05 3.65 9.15 3.5 9.1 3.45 9.35 3.1 9.6 2.7 9.7 2.5 9.75 2.5 10.1 1.8 10.1 1.85 10.3 2.0 10.3 2.1 10.0 2.6 9.9 3.0 9.15 4.25 5.5 9.3 5.45 9.3 5.5 10.25 5.5 10.3" fill="#ffcc00" fill-rule="evenodd" stroke="none"/>
    <path d="M4.6 8.75 L4.4 7.3 4.5 7.1 7.65 3.05 9.0 0.7 9.7 -1.4 9.7 -1.5 9.8 -1.65 9.8 -1.7 9.85 -1.75 9.6 -0.95 9.6 -0.7 9.3 0.15 9.15 0.35 9.2 0.35 9.2 0.5 7.9 2.85 4.5 7.2 4.6 8.75 M10.35 -1.15 L10.55 -0.5 10.55 -0.45 10.75 0.1 11.1 0.75 11.65 1.55 11.95 1.9 13.4 3.05 13.4 3.8 11.7 2.65 12.25 3.0 11.8 2.7 13.05 3.0 12.55 2.65 12.55 2.6 11.55 1.7 11.6 1.65 11.45 1.5 10.9 0.6 10.95 0.55 10.75 0.25 10.7 0.15 10.5 -0.4 10.45 -0.7 10.35 -0.9 10.35 -1.15 M13.4 3.95 L13.35 4.05 13.3 4.1 13.15 4.1 13.1 4.05 11.15 2.85 10.9 2.65 10.8 2.6 11.25 3.05 13.35 4.35 13.35 4.5 13.35 4.55 13.35 4.95 13.35 5.0 13.35 5.1 13.3 5.25 13.15 5.25 13.0 5.2 10.15 3.65 10.1 3.6 9.45 4.7 5.5 10.3 5.5 10.25 9.5 4.6 9.45 4.55 10.35 3.15 10.3 3.3 10.2 3.45 10.3 3.45 10.65 3.7 10.7 3.7 11.0 3.9 11.2 4.0 11.25 4.0 13.35 5.1 10.3 3.4 11.5 4.05 10.65 3.55 13.35 5.0 11.7 4.05 13.35 4.95 11.4 3.8 13.35 4.55 11.35 3.4 13.35 4.5 11.5 3.4 11.5 3.35 11.2 3.1 10.35 2.25 10.35 2.2 10.3 2.1 10.3 2.0 10.1 1.85 10.1 1.8 10.05 1.8 10.05 1.85 9.7 2.5 9.6 2.7 9.35 3.1 8.95 3.65 10.35 1.15 10.3 1.35 10.15 1.65 10.2 1.75 10.8 2.35 10.85 2.35 11.05 2.55 11.1 2.55 11.3 2.75 11.3 2.7 11.55 2.9 11.65 2.85 13.4 3.95 M4.8 10.7 L4.75 10.65 4.75 10.55 4.7 10.4 4.6 9.1 4.7 8.95 4.8 9.0 4.65 9.15 4.7 9.2 4.8 10.7 M5.35 8.45 L5.4 8.35 8.1 4.85 5.3 8.65 5.35 8.45" fill="#000000" fill-rule="evenodd" stroke="none"/>
  </g>
</svg>
