<?xml version="1.0" encoding="UTF-8" standalone="no"?>
<svg xmlns:ffdec="https://www.free-decompiler.com/flash" xmlns:xlink="http://www.w3.org/1999/xlink" ffdec:objectType="shape" height="11.3px" width="12.65px" xmlns="http://www.w3.org/2000/svg">
  <g transform="matrix(1.0, 0.0, 0.0, 1.0, -2.65, 1.85)">
    <path d="M10.2 -1.45 L10.3 -1.3 10.45 -0.8 10.7 -0.3 10.8 -0.15 10.85 -0.05 11.1 0.35 12.4 1.7 12.85 2.05 15.3 3.45 15.3 3.55 15.25 4.55 15.25 4.6 15.15 4.6 11.95 2.95 12.25 3.05 15.25 4.55 15.25 3.65 15.3 3.55 13.6 2.65 12.85 2.15 12.1 1.5 11.1 0.4 10.8 0.0 10.8 -0.05 10.6 -0.4 10.15 -1.45 10.2 -1.45 M11.8 2.85 L11.3 2.6 11.35 2.6 11.05 2.45 10.05 1.65 10.0 1.6 8.9 2.9 9.9 1.85 9.95 1.85 8.55 3.3 8.6 3.3 8.55 3.35 7.7 4.05 8.9 2.9 8.65 3.05 10.15 1.4 10.2 1.4 10.05 1.55 10.45 1.85 10.6 2.0 11.1 2.4 11.2 2.5 11.35 2.55 11.8 2.85 M10.1 1.9 L11.55 3.0 15.25 4.85 15.25 4.9 15.2 5.8 15.2 5.85 15.1 5.85 10.75 3.9 10.05 3.5 9.6 3.95 10.2 3.3 10.2 3.4 10.1 3.45 11.25 4.05 11.3 4.05 15.2 5.8 15.15 5.65 15.2 5.0 15.25 4.9 12.1 3.4 11.1 2.8 11.15 2.75 10.9 2.6 10.25 2.05 10.2 2.05 10.15 2.0 10.1 1.9 M3.4 9.2 L3.2 9.35 3.35 9.2 3.45 9.15 3.4 9.2 M3.05 9.45 L3.0 9.45 2.95 9.35 2.85 8.0 2.85 7.95 4.25 6.9 2.85 8.0 2.95 8.1 3.05 9.45 M6.55 4.85 L3.05 7.75 3.2 7.5 6.55 4.85 M2.85 7.8 L2.8 7.75 2.65 6.2 2.65 6.1 8.1 1.45 9.15 0.0 9.25 -0.3 9.3 -0.3 9.85 -1.65 9.9 -1.75 10.0 -1.85 9.8 -1.45 9.5 -0.6 9.05 0.25 8.35 1.25 7.2 2.5 6.25 3.35 2.65 6.2 2.7 6.25 2.85 7.8" fill="#000000" fill-rule="evenodd" stroke="none"/>
    <path d="M10.05 -1.75 L10.2 -1.45 10.15 -1.45 10.25 -1.0 10.2 -0.95 10.45 -0.3 10.65 0.05 10.65 0.1 10.95 0.5 11.55 1.15 11.05 1.8 11.45 2.1 11.05 1.85 11.85 2.5 11.6 2.35 11.8 2.55 11.4 2.3 11.3 2.25 10.6 1.7 10.6 1.75 10.2 1.4 10.15 1.4 10.2 1.35 10.25 1.15 8.6 3.0 7.6 3.8 7.65 3.85 3.4 7.3 3.2 7.5 3.05 7.75 2.95 6.3 2.85 6.25 2.95 6.2 6.85 3.05 7.95 2.0 8.05 1.85 8.0 1.85 8.25 1.6 8.95 0.7 8.9 0.7 9.35 0.0 9.7 -0.75 10.05 -1.75 M3.45 9.15 L3.4 9.2 3.45 9.15 3.35 9.2 3.2 9.35 3.1 8.15 3.0 8.1 8.75 3.4 8.7 3.35 10.1 1.9 10.15 2.0 10.2 2.05 10.2 2.1 10.25 2.3 10.75 2.75 10.95 2.9 10.85 2.85 11.05 3.0 10.65 3.35 10.8 3.45 10.6 3.4 10.8 3.5 10.75 3.5 10.6 3.45 10.25 3.25 10.25 3.2 3.6 8.9 3.45 9.15" fill="#ffcc00" fill-rule="evenodd" stroke="none"/>
    <path d="M10.0 -1.85 L10.05 -1.8 10.05 -1.75 9.7 -0.75 9.35 0.0 8.9 0.7 8.95 0.7 8.25 1.6 8.0 1.85 8.05 1.85 7.95 2.0 6.85 3.05 2.95 6.2 2.85 6.25 2.95 6.3 3.05 7.75 2.85 7.8 2.7 6.25 2.65 6.2 6.25 3.35 7.2 2.5 8.35 1.25 9.05 0.25 9.5 -0.6 9.8 -1.45 10.0 -1.85 M11.95 2.95 L11.85 2.9 11.8 2.85 11.35 2.55 11.2 2.5 11.1 2.4 10.6 2.0 10.45 1.85 10.05 1.55 10.2 1.4 10.6 1.75 10.6 1.7 11.3 2.25 11.4 2.3 11.8 2.55 11.6 2.35 11.85 2.5 11.05 1.85 11.45 2.1 11.05 1.8 11.55 1.15 10.95 0.5 10.65 0.1 10.65 0.05 10.45 -0.3 10.2 -0.95 10.25 -1.0 10.15 -1.45 10.6 -0.4 10.8 -0.05 10.8 0.0 11.1 0.4 12.1 1.5 12.85 2.15 13.6 2.65 15.3 3.55 15.25 3.65 15.25 4.55 12.25 3.05 11.95 2.95 11.8 2.85 11.95 2.95 M9.95 1.85 L10.0 1.8 10.0 1.75 10.1 1.9 8.7 3.35 8.75 3.4 3.0 8.1 3.1 8.15 3.2 9.35 3.15 9.45 3.05 9.45 2.95 8.1 2.85 8.0 4.25 6.9 4.7 6.5 5.3 6.0 7.7 4.05 8.55 3.35 8.6 3.3 8.55 3.3 9.95 1.85 M9.6 3.95 L3.45 9.15 3.6 8.9 10.25 3.2 10.25 3.25 10.6 3.45 10.75 3.5 10.8 3.5 10.6 3.4 10.8 3.45 10.65 3.35 11.05 3.0 10.85 2.85 10.95 2.9 10.75 2.75 10.25 2.3 10.2 2.1 10.2 2.05 10.25 2.05 10.9 2.6 11.15 2.75 11.1 2.8 12.1 3.4 15.25 4.9 15.2 5.0 15.15 5.65 15.2 5.8 11.3 4.05 11.25 4.05 10.1 3.45 10.2 3.4 10.2 3.3 9.6 3.95 M8.65 3.05 L6.55 4.85 3.2 7.5 3.4 7.3 7.65 3.85 7.6 3.8 8.6 3.0 10.25 1.15 10.2 1.35 10.15 1.4 8.65 3.05" fill="#7f6600" fill-rule="evenodd" stroke="none"/>
  </g>
</svg>
