<?xml version="1.0" encoding="UTF-8" standalone="no"?>
<svg xmlns:ffdec="https://www.free-decompiler.com/flash" xmlns:xlink="http://www.w3.org/1999/xlink" ffdec:objectType="shape" height="9.9px" width="15.1px" xmlns="http://www.w3.org/2000/svg">
  <g transform="matrix(1.0, 0.0, 0.0, 1.0, -1.55, 1.4)">
    <path d="M10.15 2.15 L10.15 2.2 10.05 2.25 11.45 3.25 11.5 3.25 12.45 3.8 12.65 3.95 11.55 3.4 10.0 2.3 10.05 2.25 10.15 2.15 M13.7 4.45 L16.55 5.8 16.5 5.7 16.5 5.5 16.55 4.75 16.6 4.65 13.8 3.1 13.65 3.0 12.5 2.25 11.8 1.5 11.0 0.65 11.05 0.65 10.95 0.55 10.6 0.05 10.5 -0.3 10.15 -1.0 10.1 -1.25 10.75 0.2 11.05 0.65 11.8 1.5 13.65 3.0 16.65 4.55 16.6 4.65 16.55 5.8 16.55 5.85 16.5 5.85 13.7 4.45 M7.75 2.15 L9.05 0.55 9.4 -0.05 9.4 -0.15 9.35 -0.15 9.95 -1.35 10.0 -1.4 9.5 -0.3 9.45 -0.1 9.45 0.0 8.75 1.05 7.75 2.15 M8.55 3.6 L7.25 4.75 1.9 8.45 2.0 8.35 7.55 4.45 8.55 3.6 M1.8 8.5 L1.75 8.5 1.55 6.9 1.55 6.8 1.65 6.7 6.55 3.25 7.0 2.9 6.85 3.05 6.55 3.25 6.4 3.4 1.65 6.8 1.55 6.9 1.65 6.95 1.8 8.5" fill="#000000" fill-rule="evenodd" stroke="none"/>
    <path d="M10.15 2.15 L11.0 2.75 11.5 3.0 12.05 3.45 12.1 3.4 12.9 3.9 12.95 3.85 14.75 4.7 12.75 3.7 15.65 5.1 13.1 3.8 16.1 4.65 15.1 4.15 15.15 4.1 14.65 3.85 14.65 3.8 13.2 3.0 12.85 2.75 12.9 2.7 12.05 2.05 11.7 1.7 11.5 1.4 11.15 1.05 10.65 0.4 10.15 -0.65 10.15 -1.0 10.5 -0.3 10.6 0.05 10.95 0.55 11.05 0.65 11.0 0.65 11.8 1.5 12.5 2.25 13.65 3.0 13.8 3.1 16.6 4.65 16.55 4.75 16.5 5.5 16.5 5.7 16.55 5.8 13.7 4.45 12.75 4.0 12.65 3.95 12.75 4.0 12.7 4.0 12.65 3.95 12.45 3.8 11.5 3.25 11.45 3.25 10.05 2.25 10.15 2.2 10.15 2.15 10.05 2.25 10.0 2.3 9.55 2.75 8.55 3.6 7.55 4.45 2.0 8.35 1.9 8.45 1.8 8.5 1.65 6.95 1.55 6.9 1.65 6.8 6.4 3.4 6.55 3.25 6.85 3.05 7.0 2.9 7.75 2.15 8.75 1.05 9.45 0.0 9.45 -0.1 9.5 -0.3 10.0 -1.4 10.1 -1.25 9.75 -0.5 9.55 0.05 8.7 1.3 8.75 1.35 7.2 3.0 6.85 3.25 6.7 3.4 1.7 6.95 1.85 7.05 2.0 8.35 2.15 8.05 7.25 4.55 10.2 1.95 10.15 2.1 10.15 2.15" fill="#7f6600" fill-rule="evenodd" stroke="none"/>
    <path d="M10.15 -1.0 L10.15 -0.65 10.65 0.4 11.15 1.05 11.5 1.4 11.7 1.7 12.05 2.05 12.9 2.7 12.85 2.75 13.2 3.0 14.65 3.8 14.65 3.85 15.15 4.1 15.1 4.15 16.1 4.65 13.1 3.8 15.65 5.1 12.75 3.7 14.75 4.7 12.95 3.85 12.9 3.9 12.1 3.4 12.05 3.45 11.5 3.0 11.0 2.75 10.15 2.15 10.15 2.1 10.2 1.95 7.25 4.55 2.15 8.05 2.0 8.35 1.85 7.05 1.7 6.95 6.7 3.4 6.85 3.25 7.2 3.0 8.75 1.35 8.7 1.3 9.55 0.05 9.75 -0.5 10.1 -1.25 10.15 -1.0" fill="#ffcc00" fill-rule="evenodd" stroke="none"/>
  </g>
</svg>
