<?xml version="1.0" encoding="UTF-8" standalone="no"?>
<svg xmlns:ffdec="https://www.free-decompiler.com/flash" xmlns:xlink="http://www.w3.org/1999/xlink" ffdec:objectType="shape" height="9.15px" width="15.8px" xmlns="http://www.w3.org/2000/svg">
  <g transform="matrix(1.0, 0.0, 0.0, 1.0, -1.6, 1.4)">
    <path d="M10.05 -1.15 L10.0 -1.2 10.05 -1.25 10.0 -1.3 9.35 0.05 8.9 0.7 8.7 1.0 8.1 1.7 6.7 3.0 6.6 3.0 5.15 3.95 6.95 2.7 8.9 0.7 10.0 -1.4 10.0 -1.35 10.05 -1.25 10.25 -0.85 10.05 -1.15 M3.35 5.1 L1.6 6.2 1.6 6.15 3.35 5.1 M1.6 6.25 L1.65 6.3 1.65 6.35 1.8 7.75 1.85 7.65 4.55 6.05 1.8 7.75 1.75 7.75 1.6 6.25 M7.95 3.9 L10.05 2.2 10.05 2.25 12.4 3.9 12.45 3.85 12.95 4.15 17.3 6.3 17.25 6.25 17.35 5.15 17.4 5.1 17.2 4.95 13.05 2.65 11.65 1.35 11.35 0.95 11.1 0.75 10.9 0.5 10.6 0.0 10.3 -0.7 10.25 -0.85 10.8 0.2 11.35 0.95 12.2 1.85 13.35 2.75 17.2 4.85 17.4 5.0 17.4 5.1 17.3 6.3 17.3 6.4 12.8 4.15 11.15 3.15 11.3 3.2 10.95 3.0 10.0 2.3 7.95 3.9" fill="#000000" fill-rule="evenodd" stroke="none"/>
    <path d="M5.15 3.95 L6.6 3.0 6.7 3.0 8.1 1.7 8.7 1.0 8.9 0.7 9.35 0.05 10.0 -1.3 10.05 -1.25 10.0 -1.2 10.05 -1.15 9.85 -0.6 9.8 -0.6 9.5 0.15 9.3 0.4 9.25 0.5 8.25 1.75 6.5 3.3 1.65 6.35 1.65 6.3 1.6 6.25 1.6 6.2 3.35 5.1 3.9 4.75 5.15 3.95 M10.05 -1.15 L10.25 -0.85 10.3 -0.7 10.6 0.0 10.9 0.5 11.1 0.75 11.35 0.95 11.65 1.35 13.05 2.65 17.2 4.95 17.4 5.1 17.35 5.15 17.25 6.25 17.3 6.3 12.95 4.15 12.45 3.85 12.4 3.9 10.05 2.25 10.05 2.2 7.95 3.9 7.25 4.4 4.55 6.05 1.85 7.65 1.8 7.75 1.65 6.35 1.85 6.4 1.95 7.5 7.1 4.4 10.05 2.05 10.05 2.1 13.05 4.1 13.1 4.1 17.15 6.05 17.1 6.0 17.15 5.25 17.25 5.2 16.8 4.95 16.85 4.95 13.35 3.0 12.9 2.65 11.2 1.1 10.65 0.35 10.05 -0.85 10.05 -1.15" fill="#7f6600" fill-rule="evenodd" stroke="none"/>
    <path d="M1.65 6.35 L6.5 3.3 8.25 1.75 9.25 0.5 9.3 0.4 9.5 0.15 9.8 -0.6 9.85 -0.6 10.05 -1.15 10.05 -0.85 10.65 0.35 11.2 1.1 12.9 2.65 13.35 3.0 16.85 4.95 16.8 4.95 17.25 5.2 17.15 5.25 17.1 6.0 17.15 6.05 13.1 4.1 13.05 4.1 10.05 2.1 10.05 2.05 7.1 4.4 1.95 7.5 1.85 6.4 1.65 6.35" fill="#ffcc00" fill-rule="evenodd" stroke="none"/>
  </g>
</svg>
