<?xml version="1.0" encoding="UTF-8" standalone="no"?>
<svg xmlns:ffdec="https://www.free-decompiler.com/flash" xmlns:xlink="http://www.w3.org/1999/xlink" ffdec:objectType="shape" height="8.4px" width="16.1px" xmlns="http://www.w3.org/2000/svg">
  <g transform="matrix(1.0, 0.0, 0.0, 1.0, -1.95, 1.4)">
    <path d="M7.55 2.1 L8.15 1.55 8.65 1.05 8.65 1.0 8.9 0.75 9.2 0.3 9.6 -0.45 9.75 -0.85 10.0 -1.3 10.9 0.45 11.25 0.9 12.3 1.95 12.7 2.35 13.95 3.25 13.75 3.15 15.65 4.3 18.05 5.6 17.95 5.7 17.95 5.75 17.85 6.95 13.05 4.35 13.0 4.35 10.0 2.2 8.15 3.65 7.0 4.35 6.95 4.35 2.15 6.95 2.05 5.75 1.95 5.6 6.5 3.0 7.55 2.1 M2.05 5.75 L2.15 5.8 2.25 6.75 6.85 4.3 7.35 3.95 7.4 3.95 10.0 2.1 12.6 4.0 12.65 3.95 13.15 4.3 17.75 6.75 17.85 5.8 17.95 5.75 17.85 5.65 Q16.95 5.2 16.05 4.7 L16.1 4.65 13.35 3.0 13.3 3.0 12.45 2.3 11.25 1.15 10.3 -0.3 10.0 -1.05 10.0 -1.0 9.75 -0.5 9.7 -0.35 9.05 0.75 8.15 1.75 6.85 2.85 3.3 5.05 2.15 5.65 2.05 5.75" fill="#7f6600" fill-rule="evenodd" stroke="none"/>
    <path d="M8.15 1.55 L8.65 1.0 9.45 -0.25 9.45 -0.3 10.0 -1.4 10.0 -1.35 10.85 0.3 11.35 0.95 12.3 1.95 13.65 3.0 17.85 5.4 18.05 5.55 18.05 5.6 17.9 7.0 12.9 4.35 10.0 2.3 8.15 3.65 7.25 4.25 2.1 7.0 1.95 5.6 1.95 5.55 2.15 5.4 7.55 2.1 6.5 3.0 1.95 5.6 2.05 5.75 2.15 6.95 6.95 4.35 7.0 4.35 8.15 3.65 10.0 2.2 13.0 4.35 13.05 4.35 17.85 6.95 17.95 5.75 17.95 5.7 18.05 5.6 15.65 4.3 13.75 3.15 13.95 3.25 12.7 2.35 12.3 1.95 11.25 0.9 10.9 0.45 10.0 -1.3 9.75 -0.85 9.6 -0.45 9.2 0.3 8.9 0.75 8.65 1.0 8.65 1.05 8.15 1.55" fill="#000000" fill-rule="evenodd" stroke="none"/>
    <path d="M2.05 5.75 L2.15 5.65 3.3 5.05 6.85 2.85 8.15 1.75 9.05 0.75 9.7 -0.35 9.75 -0.5 10.0 -1.0 10.0 -1.05 10.3 -0.3 11.25 1.15 12.45 2.3 13.3 3.0 13.35 3.0 16.1 4.65 16.05 4.7 Q16.95 5.2 17.85 5.65 L17.95 5.75 17.85 5.8 17.75 6.75 13.15 4.3 12.65 3.95 12.6 4.0 10.0 2.1 7.4 3.95 7.35 3.95 6.85 4.3 2.25 6.75 2.15 5.8 2.05 5.75" fill="#ffcc00" fill-rule="evenodd" stroke="none"/>
  </g>
</svg>
