<?xml version="1.0" encoding="UTF-8" standalone="no"?>
<svg xmlns:ffdec="https://www.free-decompiler.com/flash" xmlns:xlink="http://www.w3.org/1999/xlink" ffdec:objectType="shape" height="9.1px" width="15.85px" xmlns="http://www.w3.org/2000/svg">
  <g transform="matrix(1.0, 0.0, 0.0, 1.0, -2.55, 1.4)">
    <path d="M10.0 -1.35 L10.0 -1.4 10.8 0.3 11.35 1.0 12.7 2.4 18.2 5.95 18.4 6.1 18.4 6.2 18.2 6.05 13.25 2.95 12.45 2.2 11.0 0.65 10.8 0.35 10.0 -1.35 9.95 -1.15 9.45 -0.15 9.45 -0.05 9.05 0.55 8.4 1.3 8.05 1.65 6.85 2.7 6.3 3.0 6.6 2.85 6.6 2.9 6.3 3.0 5.9 3.3 5.9 3.25 4.95 3.85 4.8 3.9 4.8 3.85 2.55 5.1 2.6 5.2 2.7 6.35 7.2 4.1 8.0 3.6 8.05 3.6 9.95 2.25 9.95 2.15 12.2 4.0 18.2 7.65 18.3 6.3 18.4 6.2 18.25 7.7 12.9 4.55 11.5 3.55 10.0 2.3 9.75 2.5 8.05 3.6 7.35 4.05 2.65 6.4 2.55 5.1 2.55 5.05 2.75 4.9 5.6 3.4 8.05 1.65 8.55 1.0 8.9 0.65 9.2 0.25 9.55 -0.5 9.6 -0.65 10.0 -1.35" fill="#000000" fill-rule="evenodd" stroke="none"/>
    <path d="M9.95 -1.15 L10.4 -0.05 11.9 1.9 13.15 3.0 18.3 6.3 18.15 6.35 18.05 7.45 12.3 3.95 9.95 2.05 9.95 2.1 6.95 4.1 6.9 4.1 2.75 6.15 2.85 6.0 2.8 5.3 2.7 5.25 3.15 5.0 3.1 4.95 6.05 3.4 7.55 2.3 8.5 1.35 9.05 0.7 9.1 0.6 9.25 0.45 9.95 -0.9 9.95 -1.15" fill="#ffcc00" fill-rule="evenodd" stroke="none"/>
    <path d="M10.0 -1.35 L10.8 0.35 11.0 0.65 12.45 2.2 13.25 2.95 18.2 6.05 18.4 6.2 18.3 6.3 13.15 3.0 11.9 1.9 10.4 -0.05 9.95 -1.15 9.95 -0.9 9.25 0.45 9.1 0.6 9.05 0.7 8.5 1.35 7.55 2.3 6.05 3.4 3.1 4.95 3.15 5.0 2.7 5.25 2.8 5.3 2.85 6.0 2.75 6.15 6.9 4.1 6.95 4.1 9.95 2.1 9.95 2.05 12.3 3.95 18.05 7.45 18.15 6.35 18.3 6.3 18.2 7.65 12.2 4.0 9.95 2.15 9.95 2.25 8.05 3.6 8.0 3.6 7.2 4.1 2.7 6.35 2.6 5.2 2.55 5.1 4.8 3.85 4.8 3.9 4.95 3.85 5.9 3.25 5.9 3.3 6.3 3.0 6.6 2.9 6.6 2.85 6.3 3.0 6.85 2.7 8.05 1.65 8.4 1.3 9.05 0.55 9.45 -0.05 9.45 -0.15 9.95 -1.15 10.0 -1.35" fill="#7f6600" fill-rule="evenodd" stroke="none"/>
  </g>
</svg>
