<?xml version="1.0" encoding="UTF-8" standalone="no"?>
<svg xmlns:ffdec="https://www.free-decompiler.com/flash" xmlns:xlink="http://www.w3.org/1999/xlink" ffdec:objectType="shape" height="9.85px" width="15.15px" xmlns="http://www.w3.org/2000/svg">
  <g transform="matrix(1.0, 0.0, 0.0, 1.0, -3.3, 1.4)">
    <path d="M3.3 4.7 L3.3 4.65 5.0 3.7 6.7 2.8 6.8 2.75 8.7 1.05 9.05 0.6 9.25 0.2 9.5 -0.2 9.55 -0.35 9.65 -0.5 9.8 -0.9 9.85 -1.0 9.85 -0.65 9.4 0.3 8.8 1.15 7.9 2.05 7.7 2.15 7.55 2.35 7.35 2.55 3.9 4.7 6.95 3.8 4.8 4.9 6.6 4.05 3.5 5.6 7.0 3.9 7.05 3.9 7.6 3.6 7.25 3.9 8.75 2.95 9.45 2.4 8.95 2.85 9.85 2.15 9.85 1.95 11.75 3.75 17.85 8.0 18.05 8.25 18.15 6.95 18.35 6.95 12.65 2.85 11.05 1.05 11.0 1.0 11.1 0.95 10.95 0.8 10.55 0.2 10.05 -0.95 9.95 -1.25 10.0 -1.4 10.0 -1.35 10.05 -1.35 10.75 0.35 10.95 0.55 11.0 0.7 12.25 2.2 12.7 2.65 12.8 2.7 12.75 2.75 14.1 3.7 14.25 3.85 14.8 4.2 18.45 6.85 18.35 6.85 18.35 6.95 18.2 8.45 18.05 8.25 12.65 4.6 11.65 3.8 10.0 2.3 9.95 2.25 8.95 3.0 7.25 4.0 7.2 4.0 3.4 5.85 3.45 5.7 3.35 4.75 3.3 4.7" fill="#7f6600" fill-rule="evenodd" stroke="none"/>
    <path d="M10.05 -1.35 L10.8 0.3 12.3 2.15 14.1 3.7 12.75 2.75 12.8 2.7 12.7 2.65 12.25 2.2 11.0 0.7 10.95 0.55 10.75 0.35 10.05 -1.35 M14.8 4.2 L18.45 6.7 18.45 6.85 18.3 8.45 18.2 8.45 12.6 4.6 11.65 3.8 11.2 3.45 10.0 2.3 9.55 2.65 9.3 2.8 7.45 4.0 3.45 5.9 3.4 5.85 3.3 4.7 3.35 4.75 3.45 5.7 3.4 5.85 7.2 4.0 7.25 4.0 8.95 3.0 9.95 2.25 10.0 2.3 11.65 3.8 12.65 4.6 18.05 8.25 18.2 8.45 18.35 6.95 18.35 6.85 18.45 6.85 14.8 4.2 M3.3 4.65 L3.3 4.6 5.0 3.7 3.3 4.65 M6.7 2.8 L8.65 1.0 9.1 0.4 9.35 0.0 9.9 -1.2 9.95 -1.15 9.85 -1.0 9.8 -0.9 9.65 -0.5 9.55 -0.35 9.5 -0.2 9.25 0.2 9.05 0.6 8.7 1.05 6.8 2.75 6.7 2.8" fill="#000000" fill-rule="evenodd" stroke="none"/>
    <path d="M9.9 -1.2 L9.95 -1.25 10.05 -0.95 10.55 0.2 10.95 0.8 11.1 0.95 11.0 1.0 11.05 1.05 12.65 2.85 18.35 6.95 18.15 6.95 18.05 8.25 17.85 8.0 11.75 3.75 9.85 1.95 9.85 2.15 8.95 2.85 9.45 2.4 8.75 2.95 7.25 3.9 7.6 3.6 7.05 3.9 7.0 3.9 3.5 5.6 6.6 4.05 4.8 4.9 6.95 3.8 3.9 4.7 7.35 2.55 7.55 2.35 7.7 2.15 7.9 2.05 8.8 1.15 9.4 0.3 9.85 -0.65 9.85 -1.0 9.95 -1.15 9.9 -1.2" fill="#ffcc00" fill-rule="evenodd" stroke="none"/>
  </g>
</svg>
