<?xml version="1.0" encoding="UTF-8" standalone="no"?>
<svg xmlns:ffdec="https://www.free-decompiler.com/flash" xmlns:xlink="http://www.w3.org/1999/xlink" ffdec:objectType="shape" height="10.65px" width="13.95px" xmlns="http://www.w3.org/2000/svg">
  <g transform="matrix(1.0, 0.0, 0.0, 1.0, -4.2, 1.4)">
    <path d="M10.0 -1.4 L10.75 0.3 10.7 0.3 10.85 0.5 10.9 0.65 12.0 2.2 13.45 3.65 11.7 2.15 11.8 2.1 11.65 1.95 10.8 0.8 10.55 0.3 9.95 -1.25 9.9 -1.3 10.0 -1.4 M14.75 4.8 L18.15 7.45 18.05 7.55 17.9 9.25 17.8 9.25 17.7 9.15 17.85 7.65 17.95 7.6 17.85 7.5 14.75 4.8 M16.55 8.2 L12.6 4.85 11.3 3.75 11.2 3.65 9.8 2.05 9.75 1.85 11.7 4.0 13.2 5.3 12.6 4.85 17.4 8.75 17.5 8.95 16.55 8.2 M9.75 -0.85 L9.75 -0.35 9.65 -0.15 9.65 -0.05 9.25 0.65 9.25 0.7 8.3 1.85 8.8 2.55 8.55 2.85 8.25 3.0 8.35 3.05 8.35 3.1 8.9 2.7 8.7 2.95 9.75 2.1 9.8 2.15 9.9 2.3 7.55 3.85 7.5 3.85 4.3 5.4 4.25 4.4 4.2 4.35 4.25 4.3 5.35 3.7 5.35 3.65 5.8 3.45 6.5 3.0 6.7 2.95 6.95 2.75 6.95 2.8 7.05 2.7 7.15 2.65 8.75 1.1 8.85 0.9 9.1 0.55 9.5 -0.2 9.5 -0.25 9.75 -0.85" fill="#7f6600" fill-rule="evenodd" stroke="none"/>
    <path d="M10.0 -1.4 L10.1 -1.35 11.1 0.85 12.85 3.0 13.8 3.9 18.15 7.4 18.15 7.45 14.75 4.8 13.45 3.65 12.0 2.2 10.9 0.65 10.85 0.5 10.7 0.3 10.75 0.3 10.0 -1.4 M18.15 7.45 L17.95 9.2 17.95 9.25 17.9 9.25 18.05 7.55 18.15 7.45 M17.7 9.15 L16.55 8.2 17.5 8.95 17.7 9.15 M11.2 3.65 L9.95 2.3 9.7 2.55 8.25 3.55 4.4 5.45 4.3 5.45 4.3 5.4 4.2 4.35 4.2 4.25 4.25 4.2 7.05 2.65 8.35 1.45 8.4 1.35 8.85 0.85 9.25 0.25 9.45 -0.25 9.5 -0.3 9.85 -1.15 9.75 -0.85 9.5 -0.25 9.5 -0.2 9.1 0.55 8.85 0.9 8.75 1.1 7.15 2.65 7.05 2.7 6.95 2.8 6.95 2.75 6.7 2.95 6.5 3.0 5.8 3.45 5.35 3.65 5.35 3.7 4.25 4.3 4.2 4.35 4.25 4.4 4.3 5.4 7.5 3.85 7.55 3.85 9.9 2.3 9.8 2.15 9.75 2.1 9.8 2.05 11.2 3.65" fill="#000000" fill-rule="evenodd" stroke="none"/>
    <path d="M13.45 3.65 L14.75 4.8 17.85 7.5 17.95 7.6 17.85 7.65 17.7 9.15 17.5 8.95 17.4 8.75 12.6 4.85 13.2 5.3 11.7 4.0 9.75 1.85 9.8 2.05 9.75 2.1 8.7 2.95 8.9 2.7 8.35 3.1 8.35 3.05 8.25 3.0 8.55 2.85 8.8 2.55 8.3 1.85 9.25 0.7 9.25 0.65 9.65 -0.05 9.65 -0.15 9.75 -0.35 9.75 -0.85 9.85 -1.15 9.9 -1.3 9.95 -1.25 10.55 0.3 10.8 0.8 11.65 1.95 11.8 2.1 11.7 2.15 13.45 3.65" fill="#ffcc00" fill-rule="evenodd" stroke="none"/>
  </g>
</svg>
