<?xml version="1.0" encoding="UTF-8" standalone="no"?>
<svg xmlns:ffdec="https://www.free-decompiler.com/flash" xmlns:xlink="http://www.w3.org/1999/xlink" ffdec:objectType="shape" height="11.35px" width="12.2px" xmlns="http://www.w3.org/2000/svg">
  <g transform="matrix(1.0, 0.0, 0.0, 1.0, -5.2, 1.35)">
    <path d="M16.95 9.95 L17.05 8.3 17.2 8.25 13.05 4.15 11.8 2.65 11.75 2.6 11.8 2.55 10.65 0.65 10.7 0.65 10.35 -0.15 10.35 -0.2 10.0 -1.3 9.95 -1.35 10.1 -1.35 10.7 0.3 10.75 0.4 10.9 0.8 11.5 1.85 12.6 3.35 17.4 8.15 17.35 8.2 17.15 10.0 17.05 10.0 16.95 9.95 M9.7 -0.65 L9.7 -0.5 9.9 0.1 9.85 0.1 10.05 0.7 10.3 1.2 10.3 1.25 10.55 1.6 10.45 1.5 12.35 4.15 15.3 7.1 15.25 7.15 16.45 8.35 16.35 9.1 16.55 9.55 11.75 4.65 10.8 3.45 11.75 4.65 11.45 4.3 10.8 3.45 9.7 2.0 9.75 2.15 9.85 2.3 9.7 2.4 9.6 2.55 8.85 3.1 8.8 3.1 8.45 3.4 8.25 3.5 8.2 3.5 7.9 3.7 7.85 3.7 5.3 5.05 5.25 5.0 5.25 4.9 5.3 4.75 5.25 4.1 5.2 4.1 7.0 3.0 8.15 1.95 9.0 0.85 9.0 0.9 9.15 0.55 9.15 0.6 9.45 0.05 9.7 -0.65" fill="#7f6600" fill-rule="evenodd" stroke="none"/>
    <path d="M9.75 -0.95 L9.7 -0.65 9.45 0.05 9.15 0.6 9.15 0.55 9.0 0.9 9.0 0.85 8.15 1.95 7.0 3.0 5.2 4.1 5.2 3.95 7.05 2.85 8.0 2.05 8.5 1.45 8.55 1.4 9.05 0.65 9.3 0.15 9.7 -0.85 9.75 -0.95 M16.55 9.55 L16.7 9.75 12.1 5.05 11.75 4.65 16.55 9.55 M17.15 10.0 L17.35 8.2 17.4 8.15 12.6 3.35 11.5 1.85 10.9 0.8 10.75 0.4 11.8 2.15 13.6 4.3 17.35 7.95 17.4 8.05 17.4 8.15 17.25 9.85 17.25 9.95 17.2 9.95 17.15 10.0 M10.7 0.3 L10.1 -1.35 10.15 -1.3 10.3 -1.0 10.7 0.3 M5.3 5.05 L7.85 3.7 7.9 3.7 8.2 3.5 8.25 3.5 8.45 3.4 8.8 3.1 8.85 3.1 9.6 2.55 9.7 2.4 9.85 2.3 9.75 2.15 9.7 2.0 10.8 3.45 9.95 2.4 9.85 2.45 9.4 2.9 8.2 3.7 5.4 5.1 5.3 5.1 5.3 5.05 M5.2 4.1 L5.25 4.1 5.3 4.75 5.25 4.9 5.2 4.1" fill="#000000" fill-rule="evenodd" stroke="none"/>
    <path d="M9.95 -1.35 L10.0 -1.3 10.35 -0.2 10.35 -0.15 10.7 0.65 10.65 0.65 11.8 2.55 11.75 2.6 11.8 2.65 13.05 4.15 17.2 8.25 17.05 8.3 16.95 9.95 16.7 9.75 16.55 9.55 16.35 9.1 16.45 8.35 15.25 7.15 15.3 7.1 12.35 4.15 10.45 1.5 10.55 1.6 10.3 1.25 10.3 1.2 10.05 0.7 9.85 0.1 9.9 0.1 9.7 -0.5 9.7 -0.65 9.75 -0.95 9.85 -1.25 9.95 -1.35" fill="#ffcc00" fill-rule="evenodd" stroke="none"/>
  </g>
</svg>
