<?xml version="1.0" encoding="UTF-8" standalone="no"?>
<svg xmlns:ffdec="https://www.free-decompiler.com/flash" xmlns:xlink="http://www.w3.org/1999/xlink" ffdec:objectType="shape" height="12.15px" width="10.0px" xmlns="http://www.w3.org/2000/svg">
  <g transform="matrix(1.0, 0.0, 0.0, 1.0, -6.25, 1.4)">
    <path d="M15.75 10.7 L15.9 8.85 16.05 8.85 14.8 7.25 14.75 7.25 12.05 3.7 11.95 3.5 12.0 3.5 11.7 3.05 10.65 1.05 10.7 1.0 10.4 0.3 10.35 0.0 10.4 0.0 10.15 -0.95 10.1 -0.95 10.0 -1.4 10.05 -1.4 10.15 -1.3 10.7 0.5 10.9 1.0 10.85 1.0 11.4 1.95 11.6 2.4 11.75 2.65 12.45 3.85 12.45 3.9 16.25 8.75 16.15 8.75 16.05 10.65 15.95 10.75 15.75 10.7 M9.65 -0.6 L10.15 1.15 12.2 4.75 12.65 5.35 12.6 5.4 15.3 8.9 15.35 8.9 15.3 10.15 14.65 9.25 11.45 4.95 10.6 3.45 14.65 9.25 10.6 3.45 9.65 1.9 9.65 2.05 9.85 2.35 9.3 2.9 8.6 3.45 8.75 3.25 8.3 3.6 8.15 3.55 7.35 4.1 7.95 3.7 6.3 4.65 6.3 4.55 7.2 3.95 6.65 4.3 8.0 3.35 6.95 3.45 7.2 3.3 7.2 3.25 7.6 3.0 8.5 2.0 9.0 1.1 9.1 0.95 9.3 0.45 9.35 0.35 9.5 -0.05 9.55 -0.35 9.65 -0.6" fill="#7f6600" fill-rule="evenodd" stroke="none"/>
    <path d="M9.6 -0.75 L9.65 -0.6 9.55 -0.35 9.5 -0.05 9.35 0.35 9.3 0.45 9.1 0.95 9.0 1.1 8.5 2.0 7.6 3.0 7.2 3.25 7.2 3.3 6.95 3.45 8.0 3.35 6.65 4.3 7.2 3.95 6.3 4.55 6.25 3.75 7.85 2.55 8.25 2.15 8.8 1.4 8.8 1.35 9.15 0.7 9.2 0.55 9.4 0.1 9.55 -0.4 9.6 -0.75 M15.3 10.15 L15.3 10.2 15.5 10.5 15.4 10.4 15.3 10.2 14.65 9.25 15.3 10.15 M16.05 10.65 L16.15 8.75 16.25 8.75 12.45 3.9 12.45 3.85 11.75 2.65 12.45 3.75 16.25 8.65 16.25 8.75 16.15 10.4 16.1 10.55 16.05 10.65 M11.4 1.95 L10.85 1.0 10.9 1.0 10.7 0.5 10.15 -1.3 10.25 -1.15 10.3 -1.05 10.9 0.95 11.4 1.95 M10.6 3.45 L9.9 2.5 8.75 3.5 6.65 4.75 6.55 4.8 6.5 4.8 6.4 4.85 6.3 4.75 6.3 4.65 7.95 3.7 7.35 4.1 8.15 3.55 8.3 3.6 8.75 3.25 8.6 3.45 9.3 2.9 9.85 2.35 9.65 2.05 9.65 1.9 10.6 3.45" fill="#000000" fill-rule="evenodd" stroke="none"/>
    <path d="M10.0 -1.4 L10.1 -0.95 10.15 -0.95 10.4 0.0 10.35 0.0 10.4 0.3 10.7 1.0 10.65 1.05 11.7 3.05 12.0 3.5 11.95 3.5 12.05 3.7 14.75 7.25 14.8 7.25 16.05 8.85 15.9 8.85 15.75 10.7 15.7 10.65 15.65 10.65 15.5 10.5 15.3 10.2 15.3 10.15 15.35 8.9 15.3 8.9 12.6 5.4 12.65 5.35 12.2 4.75 10.15 1.15 9.65 -0.6 9.6 -0.75 9.75 -1.15 9.8 -1.25 9.9 -1.35 9.95 -1.35 10.0 -1.4" fill="#ffcc00" fill-rule="evenodd" stroke="none"/>
  </g>
</svg>
