<?xml version="1.0" encoding="UTF-8" standalone="no"?>
<svg xmlns:ffdec="https://www.free-decompiler.com/flash" xmlns:xlink="http://www.w3.org/1999/xlink" ffdec:objectType="shape" height="12.7px" width="7.35px" xmlns="http://www.w3.org/2000/svg">
  <g transform="matrix(1.0, 0.0, 0.0, 1.0, -7.35, 1.4)">
    <path d="M10.05 -1.4 L10.25 -1.25 10.5 0.0 10.5 0.15 10.85 1.2 10.95 1.45 11.2 2.3 11.9 3.9 12.2 4.6 14.65 9.25 14.6 9.3 14.5 11.2 14.35 11.3 14.2 11.3 14.3 9.35 14.45 9.3 13.0 6.8 12.95 6.8 11.6 4.15 11.65 4.1 10.85 2.25 10.95 2.25 10.85 2.05 10.4 0.7 10.45 0.7 10.05 -1.4 M13.7 10.9 L13.55 10.6 13.4 10.1 12.15 7.6 10.95 5.15 11.25 5.6 13.15 8.7 12.3 7.05 12.35 7.05 10.35 2.75 9.55 -0.45 9.65 -0.95 9.7 -0.7 9.7 -0.6 9.85 0.25 9.85 0.35 10.4 2.35 13.7 9.4 13.75 9.4 13.7 10.9 M12.15 7.6 L11.25 5.6 12.15 7.6 M9.8 2.5 L9.5 2.9 9.45 2.9 9.3 3.0 9.25 3.0 9.1 3.2 9.2 3.0 9.05 3.15 8.95 3.15 8.85 3.3 8.95 3.1 8.9 3.1 9.2 2.6 9.25 2.55 9.2 2.5 9.6 1.9 9.8 2.5" fill="#7f6600" fill-rule="evenodd" stroke="none"/>
    <path d="M10.25 -1.25 L10.35 -1.05 10.55 -0.05 10.5 -0.25 10.65 0.55 10.85 1.2 10.5 0.15 10.5 0.0 10.25 -1.25 M11.9 3.9 L14.6 9.0 14.7 9.15 14.6 10.95 14.5 11.2 14.6 9.3 14.65 9.25 12.2 4.6 11.9 3.9 M13.55 10.6 L12.15 7.6 13.4 10.1 13.55 10.6 M11.25 5.6 L9.9 2.75 9.8 2.9 9.25 3.45 7.85 4.55 7.6 4.65 7.5 4.6 7.4 4.5 7.35 3.6 7.4 3.6 7.4 3.55 8.4 2.55 8.7 2.05 9.2 0.95 9.2 0.85 9.35 0.45 9.55 -0.45 10.35 2.75 12.35 7.05 12.3 7.05 13.15 8.7 11.25 5.6 M9.8 2.5 L9.6 1.9 9.2 2.5 9.25 2.55 9.2 2.6 8.9 3.1 8.95 3.1 8.85 3.3 8.95 3.15 9.05 3.15 9.2 3.0 9.1 3.2 9.25 3.0 9.3 3.0 9.45 2.9 9.5 2.9 9.8 2.5" fill="#000000" fill-rule="evenodd" stroke="none"/>
    <path d="M9.65 -0.95 L9.75 -1.2 9.9 -1.35 10.0 -1.4 10.05 -1.4 10.45 0.7 10.4 0.7 10.85 2.05 10.95 2.25 10.85 2.25 11.65 4.1 11.6 4.15 12.95 6.8 13.0 6.8 14.45 9.3 14.3 9.35 14.2 11.3 13.95 11.25 13.7 10.9 13.75 9.4 13.7 9.4 10.4 2.35 9.85 0.35 9.85 0.25 9.7 -0.6 9.7 -0.7 9.65 -0.95" fill="#ffcc00" fill-rule="evenodd" stroke="none"/>
  </g>
</svg>
