<?xml version="1.0" encoding="UTF-8" standalone="no"?>
<svg xmlns:ffdec="https://www.free-decompiler.com/flash" xmlns:xlink="http://www.w3.org/1999/xlink" ffdec:objectType="shape" height="13.1px" width="4.3px" xmlns="http://www.w3.org/2000/svg">
  <g transform="matrix(1.0, 0.0, 0.0, 1.0, -8.5, 1.4)">
    <path d="M10.35 -1.05 L10.4 -0.85 11.2 3.9 12.75 9.25 12.8 9.5 12.75 10.95 12.7 11.1 12.65 11.4 12.7 9.6 12.75 9.55 12.7 9.45 11.2 4.2 11.25 4.2 11.1 3.65 10.35 -1.05 M11.55 10.95 L9.85 3.3 9.1 4.35 9.05 4.45 8.9 4.5 8.8 4.55 8.65 4.5 8.55 4.4 8.55 4.35 8.5 4.35 8.5 3.5 8.9 2.8 9.15 2.05 9.35 0.95 9.4 1.0 9.55 -0.6 10.8 6.35 10.75 6.35 11.55 9.6 11.6 9.65 11.55 10.95 M9.7 2.65 L9.65 2.3 9.65 2.35 9.55 2.6 9.7 2.65" fill="#000000" fill-rule="evenodd" stroke="none"/>
    <path d="M10.15 -1.35 L10.3 -1.2 10.35 -1.05 11.1 3.65 11.25 4.2 11.2 4.2 12.7 9.45 12.75 9.55 12.7 9.6 12.65 11.4 12.55 11.55 12.4 11.65 12.3 11.7 12.35 9.65 12.5 9.65 12.25 8.7 12.2 8.7 11.45 6.2 11.15 5.45 11.0 4.8 11.05 4.8 10.85 4.2 10.9 4.2 10.65 3.15 10.7 3.15 10.45 1.85 10.5 1.85 10.3 0.7 10.4 0.7 10.15 -1.35 M11.85 11.5 L11.8 11.45 11.55 10.95 11.6 9.65 11.55 9.6 10.75 6.35 10.8 6.35 9.55 -0.6 9.55 -0.8 9.7 -1.15 9.7 -0.95 9.65 -0.9 10.35 3.65 10.35 3.7 10.4 3.7 10.55 4.25 10.55 4.35 11.0 6.25 10.75 5.45 11.4 7.9 11.35 7.9 11.75 9.65 11.85 9.7 11.85 11.5 M10.55 4.25 L10.45 3.95 10.5 4.25 10.55 4.25 M9.7 2.65 L9.55 2.6 9.65 2.35 9.65 2.3 9.7 2.65" fill="#7f6600" fill-rule="evenodd" stroke="none"/>
    <path d="M9.7 -1.15 L9.8 -1.3 10.0 -1.4 10.05 -1.4 10.15 -1.35 10.4 0.7 10.3 0.7 10.5 1.85 10.45 1.85 10.7 3.15 10.65 3.15 10.9 4.2 10.85 4.2 11.05 4.8 11.0 4.8 11.15 5.45 11.45 6.2 12.2 8.7 12.25 8.7 12.5 9.65 12.35 9.65 12.3 11.7 12.25 11.7 12.05 11.65 12.0 11.6 11.85 11.5 11.85 9.7 11.75 9.65 11.35 7.9 11.4 7.9 10.75 5.45 11.0 6.25 10.55 4.35 10.55 4.25 10.4 3.7 10.35 3.7 10.35 3.65 9.65 -0.9 9.7 -0.95 9.7 -1.15 M10.55 4.25 L10.5 4.25 10.45 3.95 10.55 4.25" fill="#ffcc00" fill-rule="evenodd" stroke="none"/>
  </g>
</svg>
