<?xml version="1.0" encoding="UTF-8" standalone="no"?>
<svg xmlns:ffdec="https://www.free-decompiler.com/flash" xmlns:xlink="http://www.w3.org/1999/xlink" ffdec:objectType="shape" height="13.25px" width="1.25px" xmlns="http://www.w3.org/2000/svg">
  <g transform="matrix(1.0, 0.0, 0.0, 1.0, -9.45, 1.4)">
    <path d="M9.75 -1.2 L9.8 -1.3 10.0 -1.4 10.15 -1.35 10.25 -1.25 10.3 0.7 10.25 0.7 10.25 1.85 10.2 1.9 10.25 2.3 10.2 2.3 10.2 3.7 10.15 3.65 10.15 4.8 10.1 4.8 10.2 5.5 10.1 5.5 10.2 6.25 10.2 7.05 10.25 7.05 10.3 7.9 10.35 7.9 10.4 9.8 10.3 9.8 10.35 11.75 10.3 11.75 10.25 11.8 10.15 11.85 9.9 11.8 9.85 11.75 9.85 9.8 9.75 9.8 9.8 7.9 9.85 7.9 9.85 6.2 9.9 7.05 9.9 4.85 9.95 5.5 9.95 4.85 9.9 4.85 9.9 4.25 9.9 3.7 9.85 3.7 9.8 0.7 9.75 0.7 9.75 -1.2 M9.85 3.7 L9.9 4.25 9.85 4.25 9.85 3.7" fill="#ffcc00" fill-rule="evenodd" stroke="none"/>
    <path d="M10.25 -1.25 L10.3 -1.15 10.35 -1.15 10.35 -1.05 10.4 -0.9 10.45 0.75 10.4 0.75 10.55 7.1 10.6 7.1 10.65 9.7 10.6 9.7 10.65 11.1 10.65 11.2 10.45 11.65 10.35 11.75 10.3 9.8 10.4 9.8 10.35 7.9 10.3 7.9 10.25 7.05 10.2 7.05 10.2 6.25 10.1 5.5 10.2 5.5 10.1 4.8 10.15 4.8 10.15 3.65 10.2 3.7 10.2 2.3 10.25 2.3 10.2 1.9 10.25 1.85 10.25 0.7 10.3 0.7 10.25 -1.25 M9.85 11.75 L9.65 11.55 9.55 11.35 9.55 9.75 9.5 9.7 9.6 2.75 9.55 2.8 9.55 2.35 9.6 2.75 9.6 2.35 9.55 2.35 9.6 -0.85 9.7 -1.15 9.75 -1.2 9.75 0.7 9.8 0.7 9.85 3.7 9.9 3.7 9.9 4.25 9.9 4.85 9.95 4.85 9.95 5.5 9.9 4.85 9.9 7.05 9.85 6.2 9.85 7.9 9.8 7.9 9.75 9.8 9.85 9.8 9.85 11.75 M9.85 3.7 L9.85 4.25 9.9 4.25 9.85 3.7" fill="#7f6600" fill-rule="evenodd" stroke="none"/>
    <path d="M10.4 -0.9 L10.45 -0.8 10.7 10.75 10.65 11.1 10.6 9.7 10.65 9.7 10.6 7.1 10.55 7.1 10.4 0.75 10.45 0.75 10.4 -0.9 M9.55 11.35 L9.45 10.65 9.55 -0.85 9.6 -0.85 9.55 2.35 9.6 2.35 9.6 2.75 9.55 2.35 9.55 2.8 9.6 2.75 9.5 9.7 9.55 9.75 9.55 11.35" fill="#000000" fill-rule="evenodd" stroke="none"/>
  </g>
</svg>
