<?xml version="1.0" encoding="UTF-8" standalone="no"?>
<svg xmlns:ffdec="https://www.free-decompiler.com/flash" xmlns:xlink="http://www.w3.org/1999/xlink" ffdec:objectType="shape" height="13.15px" width="4.05px" xmlns="http://www.w3.org/2000/svg">
  <g transform="matrix(1.0, 0.0, 0.0, 1.0, -7.35, 1.4)">
    <path d="M10.0 2.2 L10.45 -0.6 10.6 1.0 10.7 1.35 10.8 2.0 11.4 3.55 11.4 4.35 11.25 4.5 11.0 4.5 10.9 4.45 10.8 4.35 10.2 3.4 8.55 11.05 8.55 9.65 8.6 9.65 9.8 3.2 9.9 2.75 10.0 2.2 M7.5 11.4 L7.4 11.05 7.35 9.55 7.4 9.25 8.55 5.05 7.4 9.6 7.45 9.65 7.5 11.4 M9.35 1.3 L9.6 -0.85 9.65 -1.05 9.65 -0.9 9.35 1.3 M10.35 2.5 L10.3 2.65 10.4 2.65 10.35 2.5" fill="#000000" fill-rule="evenodd" stroke="none"/>
    <path d="M10.35 -1.1 L10.4 -0.95 10.4 -0.9 10.45 -0.6 10.0 2.2 10.2 0.4 10.2 0.0 10.25 0.05 10.3 -0.8 10.35 -1.1 M8.55 11.05 L8.3 11.55 8.25 9.7 8.35 10.8 8.3 9.7 8.4 9.7 9.15 6.25 9.05 6.25 9.75 3.2 9.8 3.2 9.85 2.75 9.9 2.75 9.8 3.2 8.6 9.65 8.55 9.65 8.55 11.05 M7.85 11.7 L7.75 11.7 7.65 11.6 7.5 11.4 7.45 9.65 7.4 9.6 8.55 5.05 8.9 3.65 9.25 2.0 9.35 1.3 9.65 -0.9 9.65 -1.05 9.65 -1.1 9.8 -1.35 9.85 -1.3 9.8 -1.05 9.65 0.7 9.7 0.7 9.5 1.85 9.55 1.85 9.5 2.25 9.5 2.35 9.2 3.65 9.25 3.65 9.3 3.55 9.35 3.15 9.4 3.15 9.3 3.55 9.05 4.8 9.1 4.8 8.75 6.25 8.85 5.65 8.3 7.75 8.4 6.95 7.95 8.7 7.9 8.7 7.65 9.65 7.7 9.65 7.85 11.7 M10.35 2.5 L10.4 2.65 10.3 2.65 10.35 2.5 M9.5 2.25 L9.5 1.85 9.45 2.3 9.5 2.25" fill="#7f6600" fill-rule="evenodd" stroke="none"/>
    <path d="M10.35 -1.1 L10.3 -0.8 10.25 0.05 10.2 0.0 10.2 0.4 10.0 2.2 9.9 2.75 10.0 2.2 9.9 2.75 9.85 2.75 9.8 3.2 9.75 3.2 9.05 6.25 9.15 6.25 8.4 9.7 8.3 9.7 8.35 10.8 8.25 9.7 8.3 11.55 8.1 11.7 7.9 11.75 7.85 11.7 7.7 9.65 7.65 9.65 7.9 8.7 7.95 8.7 8.4 6.95 8.3 7.75 8.85 5.65 8.75 6.25 9.1 4.8 9.05 4.8 9.3 3.55 9.4 3.15 9.35 3.15 9.3 3.55 9.25 3.65 9.2 3.65 9.5 2.35 9.5 2.25 9.55 1.85 9.5 1.85 9.7 0.7 9.65 0.7 9.8 -1.05 9.85 -1.3 9.85 -1.35 10.0 -1.4 10.15 -1.35 10.25 -1.2 10.35 -1.1 M9.5 2.25 L9.45 2.3 9.5 1.85 9.5 2.25" fill="#ffcc00" fill-rule="evenodd" stroke="none"/>
  </g>
</svg>
