<?xml version="1.0" encoding="UTF-8" standalone="no"?>
<svg xmlns:ffdec="https://www.free-decompiler.com/flash" xmlns:xlink="http://www.w3.org/1999/xlink" ffdec:objectType="shape" height="12.75px" width="7.1px" xmlns="http://www.w3.org/2000/svg">
  <g transform="matrix(1.0, 0.0, 0.0, 1.0, -5.45, 1.4)">
    <path d="M6.6 10.55 L6.7 10.2 6.7 9.35 7.0 8.7 6.95 8.7 9.25 3.85 10.15 1.1 10.45 -0.5 10.55 0.0 10.55 0.1 11.15 1.85 11.5 2.45 11.85 2.9 12.55 3.55 12.5 4.5 12.45 4.6 12.2 4.6 12.1 4.55 10.7 3.45 10.45 3.2 10.15 2.8 10.1 2.75 9.25 5.05 6.6 10.55 M10.4 1.95 L10.2 2.45 10.5 2.9 10.55 2.9 10.7 3.0 10.8 3.0 10.9 3.15 11.1 3.1 10.95 2.95 11.0 2.9 10.6 2.3 10.65 2.3 10.4 1.9 10.4 1.95 M9.1 1.4 L9.4 0.3 9.6 -0.9 9.65 -1.05 9.7 -1.1 9.75 -1.2 9.45 0.3 9.45 0.35 9.1 1.4 M5.95 8.3 L5.45 9.25 5.5 9.3 5.6 11.15 5.55 10.95 5.45 9.25 5.45 9.2 5.95 8.3" fill="#000000" fill-rule="evenodd" stroke="none"/>
    <path d="M6.45 10.95 L6.35 9.4 6.45 9.4 8.6 4.9 9.95 1.3 10.35 -0.85 10.35 -0.9 10.4 -0.65 10.45 -0.5 10.15 1.1 9.25 3.85 6.95 8.7 7.0 8.7 6.7 9.35 6.7 10.2 6.6 10.55 6.45 10.95 M9.95 -1.35 L9.8 -0.65 9.75 -0.65 9.7 -0.3 9.75 -0.3 9.7 -0.1 9.7 -0.2 9.65 0.0 9.7 0.05 9.65 0.15 9.55 0.7 9.6 0.7 9.1 2.25 9.15 2.2 8.4 4.15 8.45 4.15 7.05 7.0 7.45 6.1 6.3 8.3 6.25 8.45 6.15 8.45 5.7 9.35 5.85 9.4 5.95 11.35 5.8 11.3 5.6 11.15 5.5 9.3 5.45 9.25 5.95 8.3 6.1 8.0 6.3 7.55 8.7 2.55 8.9 2.1 9.1 1.4 9.45 0.35 9.45 0.3 9.75 -1.2 9.75 -1.25 9.85 -1.35 9.95 -1.35 M10.4 1.95 L10.4 1.9 10.65 2.3 10.6 2.3 11.0 2.9 10.95 2.95 11.1 3.1 10.9 3.15 10.8 3.0 10.7 3.0 10.55 2.9 10.5 2.9 10.2 2.45 10.4 1.95" fill="#7f6600" fill-rule="evenodd" stroke="none"/>
    <path d="M10.35 -0.9 L10.35 -0.85 9.95 1.3 8.6 4.9 6.45 9.4 6.35 9.4 6.45 10.95 6.25 11.2 6.15 11.25 6.05 11.35 5.95 11.35 5.85 9.4 5.7 9.35 6.15 8.45 6.25 8.45 6.3 8.3 7.45 6.1 7.05 7.0 8.45 4.15 8.4 4.15 9.15 2.2 9.1 2.25 9.6 0.7 9.55 0.7 9.65 0.15 9.7 0.05 9.65 0.0 9.7 -0.2 9.7 -0.1 9.75 -0.3 9.7 -0.3 9.75 -0.65 9.8 -0.65 9.95 -1.35 10.0 -1.4 10.05 -1.4 10.25 -1.2 10.3 -1.1 10.35 -0.95 10.35 -0.9" fill="#ffcc00" fill-rule="evenodd" stroke="none"/>
  </g>
</svg>
