<?xml version="1.0" encoding="UTF-8" standalone="no"?>
<svg xmlns:ffdec="https://www.free-decompiler.com/flash" xmlns:xlink="http://www.w3.org/1999/xlink" ffdec:objectType="shape" height="12.2px" width="9.8px" xmlns="http://www.w3.org/2000/svg">
  <g transform="matrix(1.0, 0.0, 0.0, 1.0, -3.85, 1.4)">
    <path d="M10.4 -0.75 L10.55 -0.1 10.6 0.0 10.6 0.1 10.8 0.55 10.85 0.7 11.05 1.1 11.1 1.15 11.45 1.75 12.1 2.55 12.55 2.95 13.65 3.7 13.6 4.5 13.6 4.55 13.6 4.6 12.15 3.65 13.6 4.55 11.75 3.35 13.6 4.5 11.95 3.4 11.95 3.35 12.75 3.25 12.5 3.1 12.5 3.05 12.15 2.8 11.65 2.25 11.55 2.05 11.15 1.5 11.05 1.25 10.85 0.95 10.8 0.8 10.8 0.75 10.75 0.6 10.7 0.65 10.65 0.5 10.7 0.45 10.6 0.15 10.5 -0.05 10.35 -0.6 10.4 -0.75 M13.6 4.65 L13.6 4.75 13.55 4.8 13.4 4.8 13.3 4.75 10.8 3.2 10.55 3.0 10.15 2.6 10.1 2.5 9.1 4.25 10.4 1.85 10.35 2.0 10.15 2.35 10.7 2.9 10.75 2.9 10.95 3.05 11.15 3.25 11.2 3.2 11.7 3.6 11.8 3.55 13.6 4.65 M6.8 7.5 L4.85 10.25 4.85 10.15 6.8 7.5 M4.05 10.7 L4.0 10.6 3.95 10.45 3.85 8.75 3.85 8.7 8.75 1.7 9.15 0.8 9.7 -1.1 9.8 -1.3 9.4 0.3 9.15 0.95 8.75 1.75 8.8 1.75 8.25 2.85 4.2 8.35 3.85 8.75 3.95 8.85 4.05 10.7" fill="#000000" fill-rule="evenodd" stroke="none"/>
    <path d="M13.6 4.6 L13.6 4.65 11.8 3.55 11.7 3.6 11.2 3.2 11.15 3.25 10.95 3.05 10.75 2.9 10.7 2.9 10.15 2.35 10.35 2.0 10.4 1.85 9.1 4.25 8.85 4.65 6.8 7.5 4.85 10.15 4.75 8.95 4.8 8.95 8.95 3.0 9.9 1.0 9.95 0.9 10.0 0.6 10.35 -0.6 10.5 -0.05 10.6 0.15 10.7 0.45 10.65 0.5 10.7 0.65 10.75 0.6 10.8 0.75 10.8 0.8 10.85 0.95 11.05 1.25 11.15 1.5 11.55 2.05 11.65 2.25 12.15 2.8 12.5 3.05 12.5 3.1 12.75 3.25 11.95 3.35 11.95 3.4 13.6 4.5 11.75 3.35 13.6 4.55 12.15 3.65 13.6 4.6 M4.35 10.75 L4.15 10.8 4.05 10.7 3.95 8.85 3.85 8.75 4.2 8.35 8.25 2.85 8.8 1.75 8.75 1.75 9.15 0.95 9.4 0.3 9.8 -1.3 9.9 -1.4 10.0 -1.4 9.55 0.3 9.6 0.35 9.3 1.05 9.35 1.05 9.2 1.4 8.05 3.5 8.1 3.55 5.35 7.3 5.3 7.3 4.2 8.7 4.1 8.85 4.2 8.9 4.35 10.75 M9.2 1.4 L9.25 1.2 9.15 1.4 9.2 1.4" fill="#7f6600" fill-rule="evenodd" stroke="none"/>
    <path d="M10.0 -1.4 L10.2 -1.25 10.25 -1.15 10.3 -1.1 10.4 -0.75 10.35 -0.6 10.0 0.6 9.95 0.9 9.9 1.0 8.95 3.0 4.8 8.95 4.75 8.95 4.85 10.15 4.85 10.25 4.45 10.7 4.35 10.75 4.2 8.9 4.1 8.85 4.2 8.7 5.3 7.3 5.35 7.3 8.1 3.55 8.05 3.5 9.2 1.4 9.35 1.05 9.3 1.05 9.6 0.35 9.55 0.3 10.0 -1.4 M9.2 1.4 L9.15 1.4 9.25 1.2 9.2 1.4" fill="#ffcc00" fill-rule="evenodd" stroke="none"/>
  </g>
</svg>
