<?xml version="1.0" encoding="UTF-8" standalone="no"?>
<svg xmlns:ffdec="https://www.free-decompiler.com/flash" xmlns:xlink="http://www.w3.org/1999/xlink" ffdec:objectType="shape" height="10.7px" width="13.8px" xmlns="http://www.w3.org/2000/svg">
  <g transform="matrix(1.0, 0.0, 0.0, 1.0, -1.9, 1.4)">
    <path d="M10.2 -0.95 L10.15 -1.15 10.2 -1.0 10.7 0.1 11.25 1.0 11.9 1.75 13.45 2.95 15.7 4.2 15.7 4.3 13.75 3.25 13.75 3.2 13.65 3.15 12.7 2.55 12.15 2.1 11.75 1.6 11.5 1.4 11.55 1.4 11.25 1.05 11.15 0.9 10.9 0.6 10.7 0.25 10.2 -0.95 M2.35 9.2 L2.55 8.95 8.3 4.2 7.7 4.75 2.35 9.2 M8.35 4.1 L10.2 2.05 10.2 2.15 10.1 2.3 10.6 2.7 10.7 2.75 10.75 2.75 11.35 3.15 11.65 3.4 11.7 3.4 12.45 3.85 12.5 3.85 15.65 5.35 15.65 4.4 15.7 4.3 15.65 5.35 15.65 5.4 15.55 5.4 12.2 3.8 11.6 3.45 10.05 2.35 8.35 4.1 M10.0 -1.4 L9.85 -1.15 9.1 0.6 9.15 0.6 8.3 1.8 7.9 2.25 6.9 3.35 1.9 7.5 2.0 7.6 2.15 9.3 2.1 9.3 2.05 9.2 1.9 7.5 1.9 7.45 7.9 2.25 8.9 0.85 9.2 0.3 9.9 -1.3 10.0 -1.4" fill="#000000" fill-rule="evenodd" stroke="none"/>
    <path d="M2.55 8.95 L2.75 8.65 8.9 3.4 10.25 1.85 10.2 2.05 11.0 2.7 11.0 2.65 11.35 2.9 11.4 2.85 11.65 3.0 10.85 2.35 11.2 2.55 10.9 2.3 11.4 1.55 10.75 0.7 10.45 0.1 10.3 -0.3 10.2 -0.95 10.7 0.25 10.9 0.6 11.15 0.9 11.25 1.05 11.55 1.4 11.5 1.4 11.75 1.6 12.15 2.1 12.7 2.55 13.65 3.15 13.75 3.2 13.75 3.25 15.7 4.3 15.65 4.4 15.65 5.35 12.5 3.85 12.45 3.85 11.7 3.4 11.65 3.4 11.35 3.15 10.75 2.75 10.7 2.75 10.6 2.7 10.1 2.3 10.2 2.15 10.2 2.05 8.35 4.1 8.3 4.2 2.55 8.95 M10.1 -1.3 L9.5 0.3 8.45 1.9 7.95 2.5 8.0 2.5 2.2 7.55 2.05 7.65 2.2 7.7 2.35 9.2 2.25 9.3 2.15 9.3 2.0 7.6 1.9 7.5 6.9 3.35 7.9 2.25 8.3 1.8 9.15 0.6 9.1 0.6 9.85 -1.15 10.0 -1.4 10.1 -1.3" fill="#7f6600" fill-rule="evenodd" stroke="none"/>
    <path d="M10.2 -0.95 L10.3 -0.3 10.45 0.1 10.75 0.7 11.4 1.55 10.9 2.3 11.2 2.55 10.85 2.35 11.65 3.0 11.4 2.85 11.35 2.9 11.0 2.65 11.0 2.7 10.2 2.05 10.25 1.85 8.9 3.4 2.75 8.65 2.55 8.95 2.35 9.2 2.2 7.7 2.05 7.65 2.2 7.55 8.0 2.5 7.95 2.5 8.45 1.9 9.5 0.3 10.1 -1.3 10.15 -1.15 10.2 -0.95" fill="#ffcc00" fill-rule="evenodd" stroke="none"/>
  </g>
</svg>
