<?xml version="1.0" encoding="UTF-8" standalone="no"?>
<svg xmlns:ffdec="https://www.free-decompiler.com/flash" xmlns:xlink="http://www.w3.org/1999/xlink" ffdec:objectType="shape" height="14.15px" width="14.25px" xmlns="http://www.w3.org/2000/svg">
  <g transform="matrix(1.0, 0.0, 0.0, 1.0, -2.0, 0.5)">
    <path d="M12.65 1.85 L12.65 1.95 15.0 2.6 15.25 4.85 15.3 4.85 16.15 13.05 16.1 12.9 15.9 12.7 15.25 9.85 14.5 9.75 13.9 6.95 13.85 7.15 13.5 3.0 13.35 3.9 11.2 9.4 11.05 9.1 12.4 5.85 12.35 5.75 12.4 5.55 12.05 5.0 11.65 4.75 11.65 4.6 11.6 4.55 11.5 4.3 11.0 5.35 11.5 4.25 10.15 6.9 10.15 6.75 10.0 6.4 11.2 4.0 11.25 4.0 12.35 1.8 12.65 1.85 M13.55 13.25 L14.05 12.85 16.15 13.05 16.2 13.2 16.25 13.4 16.2 13.45 13.55 13.25 M10.15 7.05 L10.2 7.5 7.4 0.55 7.35 0.6 7.1 0.7 6.6 0.75 4.65 -0.1 4.45 -0.4 7.5 0.5 10.15 7.05 M4.4 -0.4 L4.05 2.2 4.0 2.15 3.2 8.3 3.1 8.35 2.6 12.15 6.2 12.45 6.05 12.15 6.35 7.85 6.2 9.45 6.6 3.9 6.55 3.85 6.5 3.5 6.65 1.25 6.85 2.8 6.2 12.45 6.3 12.6 6.3 12.8 2.2 12.5 2.75 8.6 2.8 8.5 4.0 -0.5 4.1 -0.5 4.3 -0.45 4.4 -0.4 M6.9 3.45 L8.0 6.3 7.95 6.3 7.95 6.45 9.1 9.55 9.15 9.45 9.2 9.4 10.9 9.6 9.15 9.25 11.2 9.55 11.2 9.75 11.1 9.95 11.1 10.0 8.9 9.7 8.75 9.8 6.85 4.55 6.9 3.45 M13.05 5.05 L13.4 10.85 13.3 11.05 13.45 13.3 13.3 13.4 13.05 13.5 12.95 13.45 12.6 6.1 13.05 5.05" fill="#6d6d6d" fill-rule="evenodd" stroke="none"/>
    <path d="M16.15 13.05 L15.3 4.85 15.25 4.85 15.0 2.6 12.65 1.95 12.65 1.85 15.1 2.55 16.2 13.2 16.15 13.05 M12.35 1.8 L11.25 4.0 11.2 4.0 10.0 6.4 10.15 6.75 10.15 6.9 10.15 7.05 7.5 0.5 4.45 -0.4 4.4 -0.4 4.3 -0.45 7.6 0.45 9.95 6.1 11.85 2.15 11.95 2.0 12.0 2.0 12.15 1.85 12.35 1.8 M11.2 9.4 L13.35 3.9 13.05 5.05 12.6 6.1 12.95 13.45 12.85 13.45 12.5 6.4 11.25 9.65 11.2 9.75 11.2 9.55 11.15 9.5 11.2 9.4 M13.55 13.25 L16.2 13.45 16.2 13.5 16.15 13.55 15.95 13.65 13.05 13.5 13.3 13.4 13.45 13.3 13.5 13.25 13.55 13.25 M6.85 2.8 L6.9 3.45 6.85 4.55 8.75 9.8 8.9 9.7 11.1 10.0 11.0 10.1 10.8 10.15 10.65 10.15 8.55 9.9 6.8 5.05 6.3 12.8 6.3 12.9 6.15 13.0 2.2 12.75 2.0 12.7 3.75 -0.15 3.8 -0.3 3.9 -0.45 3.95 -0.5 4.0 -0.5 2.8 8.5 2.75 8.6 2.2 12.5 6.3 12.8 6.3 12.6 6.2 12.45 6.85 2.8" fill="#000000" fill-rule="evenodd" stroke="none"/>
    <path d="M10.15 6.9 L11.5 4.25 11.0 5.35 11.5 4.3 11.6 4.55 11.65 4.6 11.65 4.75 12.05 5.0 12.4 5.55 12.35 5.75 12.4 5.85 11.05 9.1 11.2 9.4 11.15 9.5 11.2 9.55 9.15 9.25 10.9 9.6 9.2 9.4 9.15 9.45 9.1 9.55 7.95 6.45 7.95 6.3 8.0 6.3 6.9 3.45 6.85 2.8 6.65 1.25 6.5 3.5 6.55 3.85 6.6 3.9 6.2 9.45 6.35 7.85 6.05 12.15 6.2 12.45 2.6 12.15 3.1 8.35 3.2 8.3 4.0 2.15 4.05 2.2 4.4 -0.4 4.45 -0.4 4.65 -0.1 6.6 0.75 7.1 0.7 7.35 0.6 7.4 0.55 10.2 7.5 10.15 7.05 10.15 6.9 M13.35 3.9 L13.5 3.0 13.85 7.15 13.9 6.95 14.5 9.75 15.25 9.85 15.9 12.7 16.1 12.9 16.15 13.05 14.05 12.85 13.55 13.25 13.5 13.25 13.45 13.3 13.3 11.05 13.4 10.85 13.05 5.05 13.35 3.9" fill="#dadada" fill-rule="evenodd" stroke="none"/>
  </g>
</svg>
