<?xml version="1.0" encoding="UTF-8" standalone="no"?>
<svg xmlns:ffdec="https://www.free-decompiler.com/flash" xmlns:xlink="http://www.w3.org/1999/xlink" ffdec:objectType="shape" height="13.25px" width="14.95px" xmlns="http://www.w3.org/2000/svg">
  <g transform="matrix(1.0, 0.0, 0.0, 1.0, -1.9, -0.25)">
    <path d="M16.75 12.9 L15.8 4.45 16.0 6.85 15.45 2.0 12.75 1.6 12.65 1.55 12.8 1.55 15.55 1.95 16.85 13.05 16.75 12.9 M12.5 1.5 L10.0 6.55 10.0 6.9 7.25 0.75 7.2 0.8 3.95 0.3 3.95 0.25 7.25 0.75 7.35 0.75 9.9 6.3 12.2 1.7 12.35 1.55 12.45 1.5 12.5 1.5 M3.85 0.25 L2.15 12.4 2.1 12.6 2.0 12.75 6.05 12.9 5.95 12.75 6.3 7.8 6.3 7.75 6.25 7.6 6.55 3.3 6.65 4.4 7.7 6.9 7.65 6.95 8.75 9.75 11.1 9.95 11.1 10.0 10.95 10.1 8.6 9.95 6.65 4.95 6.1 13.1 1.9 12.95 3.65 0.4 3.7 0.35 3.75 0.25 3.85 0.25 M11.15 9.8 L11.15 9.55 13.0 5.1 13.0 5.0 13.35 4.15 13.35 4.25 13.2 4.95 13.0 5.35 13.5 13.3 13.7 13.2 16.85 13.3 16.75 13.45 16.6 13.5 13.3 13.35 12.85 5.75 11.15 9.8" fill="#000000" fill-rule="evenodd" stroke="none"/>
    <path d="M16.75 12.9 L16.65 12.8 16.65 12.75 16.5 12.6 15.6 4.35 15.55 4.3 15.5 4.35 15.1 4.4 14.5 2.2 14.7 4.45 14.15 2.35 14.3 4.5 13.75 2.25 12.9 1.8 12.8 1.65 11.5 4.25 11.5 4.2 11.45 4.15 10.0 7.05 10.0 7.25 8.55 3.9 8.55 4.0 8.5 4.05 7.1 0.9 4.2 0.45 4.1 0.4 3.8 2.9 3.75 2.85 2.95 8.7 2.85 8.75 2.4 12.3 2.3 12.4 5.85 12.55 5.75 12.45 6.0 9.65 5.9 9.6 5.9 9.5 6.35 3.6 6.25 3.4 6.4 2.0 6.55 3.15 7.75 6.05 7.7 6.1 9.0 9.4 11.15 9.55 11.15 9.8 11.1 9.95 8.75 9.75 7.65 6.95 7.7 6.9 6.65 4.4 6.55 3.3 6.25 7.6 6.3 7.75 6.3 7.8 5.95 12.75 6.05 12.9 2.0 12.75 2.1 12.6 2.15 12.4 3.85 0.25 3.95 0.25 3.95 0.3 7.2 0.8 7.25 0.75 10.0 6.9 10.0 6.55 12.5 1.5 12.65 1.55 12.75 1.6 15.45 2.0 16.0 6.85 15.8 4.45 16.75 12.9 16.85 13.05 16.85 13.3 13.7 13.2 13.5 13.3 13.0 5.35 13.2 4.95 13.35 4.25 13.65 8.2 13.6 8.25 13.55 8.4 13.85 13.05 14.15 12.8 16.75 12.9 M11.15 9.55 L11.1 9.45 11.05 9.3 12.5 5.85 10.95 9.3 12.95 4.5 12.95 4.3 13.65 2.6 13.45 3.95 13.35 4.15 13.0 5.0 13.0 5.1 11.15 9.55" fill="#6d6d6d" fill-rule="evenodd" stroke="none"/>
    <path d="M11.15 9.55 L9.0 9.4 7.7 6.1 7.75 6.05 6.55 3.15 6.4 2.0 6.25 3.4 6.35 3.6 5.9 9.5 5.9 9.6 6.0 9.65 5.75 12.45 5.85 12.55 2.3 12.4 2.4 12.3 2.85 8.75 2.95 8.7 3.75 2.85 3.8 2.9 4.1 0.4 4.2 0.45 7.1 0.9 8.5 4.05 8.55 4.0 8.55 3.9 10.0 7.25 10.0 7.05 11.45 4.15 11.5 4.2 11.5 4.25 12.8 1.65 12.9 1.8 13.75 2.25 14.3 4.5 14.15 2.35 14.7 4.45 14.5 2.2 15.1 4.4 15.5 4.35 15.55 4.3 15.6 4.35 16.5 12.6 16.65 12.75 16.65 12.8 16.75 12.9 14.15 12.8 13.85 13.05 13.55 8.4 13.6 8.25 13.65 8.2 13.35 4.25 13.35 4.15 13.45 3.95 13.65 2.6 12.95 4.3 12.95 4.5 10.95 9.3 12.5 5.85 11.05 9.3 11.1 9.45 11.15 9.55" fill="#dadada" fill-rule="evenodd" stroke="none"/>
  </g>
</svg>
