<?xml version="1.0" encoding="UTF-8" standalone="no"?>
<svg xmlns:ffdec="https://www.free-decompiler.com/flash" xmlns:xlink="http://www.w3.org/1999/xlink" ffdec:objectType="shape" height="12.25px" width="15.25px" xmlns="http://www.w3.org/2000/svg">
  <g transform="matrix(1.0, 0.0, 0.0, 1.0, -2.1, -1.05)">
    <path d="M17.2 12.75 L17.1 12.65 16.95 12.45 15.9 3.7 15.85 3.65 15.8 3.7 15.5 1.4 12.8 1.35 12.75 1.25 10.3 6.25 10.7 5.35 9.85 7.05 8.75 4.75 9.5 6.4 9.1 5.6 9.4 6.2 6.95 1.2 6.9 1.25 4.1 1.2 3.8 3.55 3.8 3.6 3.7 3.55 2.55 12.7 5.5 12.7 5.85 7.65 5.85 7.6 5.8 7.45 6.15 3.05 8.75 9.3 8.65 9.45 10.85 9.5 10.75 9.3 13.35 3.25 13.5 5.35 13.45 5.6 13.9 12.75 17.2 12.75 17.35 13.05 13.65 13.05 13.1 4.8 13.1 4.55 13.15 4.35 10.9 9.6 10.95 9.85 8.5 9.85 8.55 9.65 6.5 4.7 6.35 4.25 6.2 6.15 6.25 6.4 5.75 13.0 2.1 13.0 2.2 12.85 2.3 12.7 3.85 1.05 3.95 1.1 7.0 1.15 7.1 1.1 9.75 6.55 9.85 6.75 9.85 6.7 9.75 6.55 9.8 6.5 9.85 6.65 11.25 3.75 11.25 3.8 12.55 1.15 12.7 1.2 15.7 1.25 16.0 3.65 16.05 3.65 17.2 12.75 M2.3 12.7 L2.5 12.7 2.5 12.45 2.45 12.5 2.3 12.7 M12.15 5.85 L13.4 2.9 13.35 3.25 12.1 6.0 12.15 5.85" fill="#6d6d6d" fill-rule="evenodd" stroke="none"/>
    <path d="M17.2 12.75 L16.05 3.65 16.0 3.65 15.7 1.25 12.7 1.2 12.55 1.15 11.25 3.8 11.25 3.75 9.85 6.65 9.8 6.5 9.75 6.55 9.85 6.7 9.85 6.75 9.75 6.55 7.1 1.1 7.0 1.15 3.95 1.1 3.85 1.05 2.3 12.7 2.2 12.85 2.2 12.7 3.75 1.05 3.85 1.05 7.1 1.1 7.25 1.1 9.85 6.4 12.35 1.25 12.45 1.15 12.55 1.15 15.85 1.2 17.35 13.05 17.3 13.2 17.3 13.25 17.15 13.3 13.45 13.25 12.95 5.2 10.9 10.05 8.5 10.0 6.5 5.05 5.95 13.25 2.15 13.2 2.1 13.0 5.75 13.0 6.25 6.4 6.2 6.15 6.35 4.25 6.5 4.7 8.55 9.65 8.5 9.85 10.95 9.85 10.9 9.6 13.15 4.35 13.1 4.55 13.1 4.8 13.65 13.05 17.35 13.05 17.2 12.75" fill="#000000" fill-rule="evenodd" stroke="none"/>
    <path d="M17.2 12.75 L13.9 12.75 13.45 5.6 13.5 5.35 13.35 3.25 10.75 9.3 10.85 9.5 8.65 9.45 8.75 9.3 6.15 3.05 5.8 7.45 5.85 7.6 5.85 7.65 5.5 12.7 2.55 12.7 3.7 3.55 3.8 3.6 3.8 3.55 4.1 1.2 6.9 1.25 6.95 1.2 9.4 6.2 9.1 5.6 9.5 6.4 8.75 4.75 9.85 7.05 10.7 5.35 10.3 6.25 12.75 1.25 12.8 1.35 15.5 1.4 15.8 3.7 15.85 3.65 15.9 3.7 16.95 12.45 17.1 12.65 17.2 12.75 M2.3 12.7 L2.45 12.5 2.5 12.45 2.5 12.7 2.3 12.7 M12.15 5.85 L12.1 6.0 13.35 3.25 13.4 2.9 12.15 5.85" fill="#dadada" fill-rule="evenodd" stroke="none"/>
  </g>
</svg>
