<?xml version="1.0" encoding="UTF-8" standalone="no"?>
<svg xmlns:ffdec="https://www.free-decompiler.com/flash" xmlns:xlink="http://www.w3.org/1999/xlink" ffdec:objectType="shape" height="12.95px" width="15.0px" xmlns="http://www.w3.org/2000/svg">
  <g transform="matrix(1.0, 0.0, 0.0, 1.0, -2.55, -0.5)">
    <path d="M4.35 1.75 L4.3 1.75 4.05 1.75 2.65 12.8 2.6 13.0 4.0 1.7 6.95 1.4 7.05 1.4 6.95 1.45 4.35 1.75 M2.55 13.25 L5.8 13.15 5.95 13.25 6.0 13.25 6.0 13.15 5.95 13.15 6.5 5.15 6.3 4.4 6.3 4.2 8.5 9.55 8.45 9.75 8.45 9.85 6.7 5.6 6.2 13.35 2.85 13.45 2.7 13.4 2.65 13.35 2.55 13.3 2.55 13.25 M8.45 9.9 L10.85 9.8 10.85 9.75 13.0 4.55 13.1 3.75 13.65 12.8 13.55 12.95 17.5 12.85 17.45 12.7 17.35 12.6 15.8 0.5 15.65 0.55 12.45 0.9 11.1 3.75 11.1 3.7 9.65 6.8 9.7 6.6 9.7 6.55 8.35 3.85 8.3 3.85 7.1 1.4 7.15 1.4 7.3 1.45 7.4 1.6 9.8 6.35 12.35 0.85 15.8 0.5 15.9 0.5 15.95 0.6 17.55 13.0 17.55 13.05 13.5 13.15 13.0 4.95 10.95 9.95 8.6 10.1 8.5 10.0 8.45 9.9" fill="#000000" fill-rule="evenodd" stroke="none"/>
    <path d="M4.3 1.75 L3.95 4.45 3.9 4.7 3.3 9.4 3.25 9.5 3.2 9.45 2.85 12.65 2.65 12.8 5.5 12.85 5.55 12.95 6.1 6.0 6.05 5.8 6.2 3.8 6.0 2.8 7.25 5.8 7.2 5.85 7.25 6.0 8.6 9.25 8.5 9.55 10.6 9.45 11.9 6.25 11.65 6.85 13.15 3.2 13.25 2.5 13.55 6.95 13.55 7.0 13.5 7.25 13.85 12.5 13.8 12.6 17.3 12.5 17.1 12.3 16.15 4.6 16.25 5.8 15.7 1.5 15.95 3.85 15.55 0.7 15.55 0.6 15.5 0.7 12.65 1.0 11.2 4.0 11.15 3.95 9.65 7.25 9.65 7.05 8.2 4.1 8.2 4.15 8.15 4.2 6.85 1.5 6.75 1.7 5.85 2.1 5.1 2.0 4.45 4.3 4.7 1.95 4.05 4.2 4.35 1.75 6.95 1.45 7.05 1.4 7.1 1.4 8.3 3.85 8.35 3.85 9.7 6.55 9.7 6.6 9.65 6.8 11.1 3.7 11.1 3.75 12.45 0.9 15.65 0.55 15.8 0.5 17.35 12.6 17.45 12.7 17.5 12.85 13.55 12.95 13.65 12.8 13.1 3.75 13.0 4.55 10.85 9.75 10.85 9.8 8.45 9.9 8.45 9.85 8.45 9.75 8.5 9.55 6.3 4.2 6.3 4.4 6.5 5.15 5.95 13.15 6.0 13.15 6.0 13.25 5.95 13.25 5.8 13.15 2.55 13.25 2.6 13.0 2.65 12.8 4.05 1.75 4.3 1.75 M10.6 9.45 L10.65 9.45 11.65 7.1 10.6 9.45" fill="#6d6d6d" fill-rule="evenodd" stroke="none"/>
    <path d="M4.35 1.75 L4.05 4.2 4.7 1.95 4.45 4.3 5.1 2.0 5.85 2.1 6.75 1.7 6.85 1.5 8.15 4.2 8.2 4.15 8.2 4.1 9.65 7.05 9.65 7.25 11.15 3.95 11.2 4.0 12.65 1.0 15.5 0.7 15.55 0.6 15.55 0.7 15.95 3.85 15.7 1.5 16.25 5.8 16.15 4.6 17.1 12.3 17.3 12.5 13.8 12.6 13.85 12.5 13.5 7.25 13.55 7.0 13.55 6.95 13.25 2.5 13.15 3.2 11.65 6.85 11.9 6.25 10.6 9.45 8.5 9.55 8.6 9.25 7.25 6.0 7.2 5.85 7.25 5.8 6.0 2.8 6.2 3.8 6.05 5.8 6.1 6.0 5.55 12.95 5.5 12.85 2.65 12.8 2.85 12.65 3.2 9.45 3.25 9.5 3.3 9.4 3.9 4.7 3.95 4.45 4.3 1.75 4.35 1.75 M10.6 9.45 L11.65 7.1 10.65 9.45 10.6 9.45" fill="#dadada" fill-rule="evenodd" stroke="none"/>
  </g>
</svg>
