<?xml version="1.0" encoding="UTF-8" standalone="no"?>
<svg xmlns:ffdec="https://www.free-decompiler.com/flash" xmlns:xlink="http://www.w3.org/1999/xlink" ffdec:objectType="shape" height="13.85px" width="14.45px" xmlns="http://www.w3.org/2000/svg">
  <g transform="matrix(1.0, 0.0, 0.0, 1.0, -3.15, 0.25)">
    <path d="M15.65 -0.25 L15.75 -0.25 15.8 -0.2 15.9 -0.05 15.9 0.05 17.6 12.8 13.75 13.0 13.45 13.05 13.35 12.9 13.3 12.8 12.9 5.0 11.0 9.9 8.8 10.15 8.7 10.15 8.55 10.05 8.5 10.0 10.75 9.75 10.85 9.85 11.9 7.05 11.85 7.0 12.85 4.5 12.8 3.6 12.8 3.5 12.85 3.35 12.9 2.8 13.45 12.5 13.4 12.5 13.4 12.55 13.35 12.65 13.3 12.8 13.7 12.8 17.4 12.55 17.3 12.5 16.05 2.35 16.0 2.35 15.65 -0.25 M8.4 9.75 L7.0 6.2 6.6 13.45 6.4 13.45 3.4 13.6 3.2 13.5 3.15 13.35 5.9 13.2 5.95 13.2 6.05 13.3 6.4 13.45 6.85 5.85 6.5 4.9 6.45 4.7 6.3 4.2 6.25 3.85 7.25 6.4 7.25 6.45 8.4 9.45 8.4 9.6 8.4 9.75 M3.15 13.1 L4.4 2.35 7.1 1.7 6.9 1.8 4.45 2.4 3.25 12.95 3.15 13.1 M7.3 1.7 L7.55 1.85 7.7 2.0 9.75 6.2 12.15 0.55 15.45 -0.2 15.45 -0.15 15.35 -0.15 15.3 -0.15 12.2 0.55 10.9 3.65 10.85 3.65 9.5 6.9 9.5 6.7 9.6 6.5 7.3 1.7" fill="#000000" fill-rule="evenodd" stroke="none"/>
    <path d="M8.5 10.0 L8.4 9.75 8.4 9.6 10.4 9.4 10.5 9.45 12.8 3.6 12.85 4.5 11.85 7.0 11.9 7.05 10.85 9.85 10.75 9.75 8.5 10.0 M3.15 13.35 L3.15 13.1 3.25 12.95 5.55 12.9 5.9 13.2 3.15 13.35 M7.1 1.7 L7.3 1.7 9.6 6.5 9.5 6.7 9.5 6.9 10.85 3.65 10.9 3.65 12.2 0.55 15.3 -0.15 15.35 -0.05 15.3 0.0 15.3 -0.1 15.2 0.0 12.3 0.65 9.45 7.5 9.45 7.1 9.5 7.0 9.45 6.95 9.5 6.9 8.5 4.85 8.95 5.9 8.15 4.2 9.4 6.95 8.1 4.25 8.1 4.35 8.05 4.4 7.2 2.7 8.05 4.5 8.05 4.65 7.6 4.95 7.15 5.55 7.2 5.75 8.5 9.05 7.9 7.65 8.5 9.2 8.4 9.45 7.25 6.45 7.25 6.4 6.25 3.85 6.05 3.0 5.7 7.05 4.85 7.15 4.5 7.1 3.8 9.7 3.75 9.8 3.4 12.75 3.25 12.95 4.45 2.4 6.9 1.8 7.1 1.7 M15.45 -0.2 L15.65 -0.25 16.0 2.35 16.05 2.35 17.3 12.5 17.4 12.55 13.7 12.8 13.3 12.8 13.35 12.65 13.4 12.55 13.4 12.5 13.45 12.5 12.9 2.8 12.9 2.6 13.0 1.95 13.0 1.75 13.6 12.25 13.45 12.5 16.95 12.25 17.0 12.25 17.05 12.25 16.7 9.45 17.0 12.25 16.95 12.15 16.95 12.25 15.6 0.95 15.9 4.2 15.85 3.8 15.95 4.55 15.35 -0.15 15.45 -0.15 15.45 -0.2 M6.45 4.7 L6.5 4.9 6.85 5.85 6.4 13.45 6.05 13.3 5.95 13.2 6.25 8.8 6.25 8.7 6.2 8.7 6.15 8.55 6.45 4.7" fill="#6d6d6d" fill-rule="evenodd" stroke="none"/>
    <path d="M12.9 2.8 L12.85 3.35 12.8 3.5 12.8 3.6 10.5 9.45 10.4 9.4 8.4 9.6 8.4 9.45 8.5 9.2 7.9 7.65 8.5 9.05 7.2 5.75 7.15 5.55 7.6 4.95 8.05 4.65 8.05 4.5 7.2 2.7 8.05 4.4 8.1 4.35 8.1 4.25 9.4 6.95 8.15 4.2 8.95 5.9 8.5 4.85 9.5 6.9 9.45 6.95 9.5 7.0 9.45 7.1 9.45 7.5 12.3 0.65 15.2 0.0 15.3 -0.1 15.3 0.0 15.35 -0.05 15.3 -0.15 15.35 -0.15 15.95 4.55 15.85 3.8 15.9 4.2 15.6 0.95 16.95 12.25 16.95 12.15 17.0 12.25 16.7 9.45 17.05 12.25 17.0 12.25 16.95 12.25 13.45 12.5 13.6 12.25 13.0 1.75 13.0 1.95 12.9 2.6 12.9 2.8 M3.25 12.95 L3.4 12.75 3.75 9.8 3.8 9.7 4.5 7.1 4.85 7.15 5.7 7.05 6.05 3.0 6.25 3.85 6.3 4.2 6.45 4.7 6.15 8.55 6.2 8.7 6.25 8.7 6.25 8.8 5.95 13.2 5.9 13.2 5.55 12.9 3.25 12.95" fill="#dadada" fill-rule="evenodd" stroke="none"/>
  </g>
</svg>
