<?xml version="1.0" encoding="UTF-8" standalone="no"?>
<svg xmlns:ffdec="https://www.free-decompiler.com/flash" xmlns:xlink="http://www.w3.org/1999/xlink" ffdec:objectType="shape" height="14.75px" width="13.5px" xmlns="http://www.w3.org/2000/svg">
  <g transform="matrix(1.0, 0.0, 0.0, 1.0, -3.85, 1.0)">
    <path d="M15.3 -1.0 L15.4 -0.95 15.6 -0.75 15.7 -0.45 17.35 12.55 13.2 12.95 13.05 12.9 12.95 12.8 12.9 12.7 16.9 12.3 17.1 12.4 16.6 8.4 16.5 8.3 15.7 1.75 15.65 1.75 15.3 -1.0 M12.9 12.45 L12.55 5.45 11.05 9.85 9.05 10.2 8.9 10.2 8.6 10.1 8.5 10.0 10.5 9.65 10.7 9.75 10.85 9.85 12.55 5.0 12.45 3.7 12.45 2.05 13.0 12.25 12.95 12.35 12.9 12.45 M8.35 9.6 L7.45 7.1 7.15 13.45 7.0 13.5 7.2 9.35 7.15 9.4 7.3 6.7 6.95 5.65 6.85 5.45 6.4 3.9 8.35 9.4 8.35 9.6 M6.85 13.55 L4.5 13.75 4.3 13.75 4.15 13.7 4.05 13.7 3.9 13.55 3.9 13.5 6.25 13.3 6.3 13.35 6.4 13.35 6.45 13.4 6.6 13.5 6.85 13.55 M3.9 13.2 L4.95 2.9 7.2 2.05 7.0 2.2 5.0 2.95 3.95 13.05 3.9 13.2 M7.55 2.0 L7.85 2.1 8.0 2.3 9.7 5.95 11.8 0.25 14.85 -0.9 14.75 -0.75 11.85 0.35 11.8 0.3 9.3 7.05 9.3 7.0 9.3 6.9 9.55 6.25 8.55 4.1 8.45 4.1 7.55 2.0" fill="#000000" fill-rule="evenodd" stroke="none"/>
    <path d="M12.9 12.7 L12.9 12.45 12.95 12.35 16.45 12.0 16.6 12.05 16.15 8.1 16.05 8.05 16.0 8.05 15.95 8.0 15.8 6.55 15.9 7.8 15.05 0.25 15.25 2.7 14.85 -0.8 14.85 -0.9 15.0 -0.95 15.1 -1.0 15.3 -1.0 15.65 1.75 15.7 1.75 16.5 8.3 16.6 8.4 17.1 12.4 16.9 12.3 12.9 12.7 M8.5 10.0 L8.4 9.9 8.35 9.6 10.1 9.25 10.2 9.4 10.3 9.45 10.45 9.55 12.45 3.7 12.55 5.0 10.85 9.85 10.7 9.75 10.5 9.65 8.5 10.0 M7.0 13.5 L6.85 13.55 6.6 13.5 6.45 13.4 6.95 5.65 6.65 9.15 6.85 5.45 6.95 5.65 7.3 6.7 7.15 9.4 7.2 9.35 7.0 13.5 M3.9 13.5 L3.85 13.4 3.9 13.2 3.95 13.05 5.0 2.95 7.0 2.2 7.2 2.05 7.4 1.95 7.55 2.0 8.45 4.1 8.55 4.1 9.55 6.25 9.3 6.9 8.5 5.0 9.3 7.0 8.05 4.15 9.0 6.4 8.1 4.4 8.1 4.5 8.05 4.55 8.7 6.1 8.0 4.55 9.25 7.55 9.3 7.1 9.3 7.05 11.8 0.3 11.85 0.35 14.75 -0.75 14.65 -0.7 14.9 1.8 14.8 1.95 13.55 2.5 12.8 2.95 12.75 3.3 13.05 8.65 13.0 8.75 12.95 8.9 13.15 11.95 13.0 12.25 12.45 2.05 12.6 1.0 11.25 4.85 11.2 4.8 11.25 4.55 10.35 6.35 10.1 5.95 8.35 9.4 6.4 3.9 6.35 3.6 6.2 5.6 6.15 5.35 5.6 12.75 5.9 13.05 6.25 13.3 3.9 13.5 M15.75 6.1 L15.8 6.55 15.75 6.1" fill="#6d6d6d" fill-rule="evenodd" stroke="none"/>
    <path d="M14.75 -0.75 L14.85 -0.9 14.85 -0.8 15.25 2.7 15.05 0.25 15.9 7.8 15.8 6.55 15.95 8.0 16.0 8.05 16.05 8.05 16.15 8.1 16.6 12.05 16.45 12.0 12.95 12.35 13.0 12.25 13.15 11.95 12.95 8.9 13.0 8.75 13.05 8.65 12.75 3.3 12.8 2.95 13.55 2.5 14.8 1.95 14.9 1.8 14.65 -0.7 14.75 -0.75 M9.3 7.05 L9.3 7.1 9.25 7.55 8.0 4.55 8.7 6.1 8.05 4.55 8.1 4.5 8.1 4.4 9.0 6.4 8.05 4.15 9.3 7.0 8.5 5.0 9.3 6.9 9.3 7.0 9.3 7.05 M8.35 9.4 L10.1 5.95 10.35 6.35 11.25 4.55 11.2 4.8 11.25 4.85 12.6 1.0 12.45 2.05 12.45 3.7 10.45 9.55 10.3 9.45 10.2 9.4 10.1 9.25 8.35 9.6 8.35 9.4 M6.85 5.45 L6.65 9.15 6.95 5.65 6.45 13.4 6.4 13.35 6.3 13.35 6.25 13.3 5.9 13.05 5.6 12.75 6.15 5.35 6.2 5.6 6.35 3.6 6.4 3.9 6.85 5.45" fill="#dadada" fill-rule="evenodd" stroke="none"/>
  </g>
</svg>
