<?xml version="1.0" encoding="UTF-8" standalone="no"?>
<svg xmlns:ffdec="https://www.free-decompiler.com/flash" xmlns:xlink="http://www.w3.org/1999/xlink" ffdec:objectType="shape" height="15.6px" width="12.1px" xmlns="http://www.w3.org/2000/svg">
  <g transform="matrix(1.0, 0.0, 0.0, 1.0, -4.7, 1.7)">
    <path d="M14.85 -1.6 L15.15 1.2 15.25 1.25 16.25 10.15 16.1 8.25 16.55 12.25 16.0 12.05 12.35 12.6 12.3 12.5 12.3 12.2 12.35 12.1 15.3 11.65 15.9 12.0 15.45 7.8 15.35 7.75 15.0 4.2 14.85 4.2 14.55 1.1 14.4 1.1 14.35 1.15 14.25 -0.15 14.45 2.95 14.05 -1.45 13.95 -1.4 14.15 1.2 14.05 1.35 14.55 7.35 14.5 7.4 14.45 7.0 14.5 7.5 12.9 7.95 12.6 11.55 12.4 11.85 12.35 12.0 12.0 3.8 12.05 3.45 11.95 1.1 11.4 3.05 11.35 3.0 11.4 2.65 9.55 8.9 9.7 9.15 10.3 9.6 8.6 10.05 8.55 10.0 8.4 9.8 8.35 9.6 8.4 9.45 6.75 3.95 6.75 4.35 6.65 6.15 6.6 5.95 6.15 13.0 6.2 13.05 6.5 13.3 4.8 13.55 4.7 13.45 4.75 13.3 4.8 13.05 4.9 11.85 5.65 3.45 7.25 2.55 7.35 2.4 7.55 2.25 7.85 2.25 8.0 2.3 8.75 4.2 8.05 2.3 9.5 5.95 9.15 7.0 9.1 7.35 11.35 0.1 13.95 -1.4 13.95 -1.5 14.25 -1.65 14.5 -1.7 14.7 -1.7 14.85 -1.6 M10.95 9.8 L10.9 9.8 10.5 9.7 12.0 4.6 11.4 6.5 11.6 5.85 11.3 6.65 11.95 4.3 12.0 4.45 12.0 4.6 12.05 6.05 10.95 9.8 M7.65 13.55 L7.4 13.6 7.2 13.6 7.4 9.55 7.3 9.5 7.45 6.6 7.9 8.05 7.65 13.55 M9.5 5.9 L8.75 3.95 9.55 5.85 9.5 5.9" fill="#6d6d6d" fill-rule="evenodd" stroke="none"/>
    <path d="M14.85 -1.6 L14.95 -1.55 15.05 -1.45 15.15 -1.3 15.2 -1.2 15.25 -1.0 16.8 12.25 12.85 12.85 12.6 12.75 12.35 12.6 16.0 12.05 16.55 12.25 16.1 8.25 16.25 10.15 15.25 1.25 15.15 1.2 14.85 -1.6 M12.3 12.2 L12.05 6.4 11.1 9.75 10.95 9.8 12.05 6.05 12.0 4.6 12.0 4.45 11.95 4.3 11.95 1.1 12.05 3.45 12.0 3.8 12.35 12.0 12.35 12.1 12.3 12.2 M10.9 9.8 L9.15 10.25 8.95 10.25 8.65 10.1 8.6 10.05 10.3 9.6 10.35 9.65 10.45 9.65 10.5 9.7 10.9 9.8 M8.35 9.6 L7.95 8.3 7.75 13.45 7.65 13.55 7.9 8.05 7.45 6.6 6.75 4.35 6.75 3.95 8.4 9.45 8.35 9.6 M7.4 13.6 L5.5 13.9 5.3 13.9 5.05 13.85 4.75 13.65 4.8 13.55 6.5 13.3 6.65 13.4 7.2 13.6 7.4 13.6 M4.75 13.3 L4.9 11.85 4.8 13.05 4.75 13.3 M5.65 3.45 L5.65 3.4 7.35 2.4 7.25 2.55 5.65 3.45 M8.0 2.3 L8.05 2.3 8.15 2.35 8.3 2.45 8.5 2.65 9.65 5.45 11.3 0.05 13.95 -1.5 13.95 -1.4 11.35 0.1 9.1 7.35 9.15 7.0 9.5 5.95 8.05 2.3 8.75 4.2 8.0 2.3 M9.5 5.9 L9.55 5.85 8.75 3.95 9.5 5.9" fill="#000000" fill-rule="evenodd" stroke="none"/>
    <path d="M13.95 -1.4 L14.05 -1.45 14.45 2.95 14.25 -0.15 14.35 1.15 14.4 1.1 14.55 1.1 14.85 4.2 15.0 4.2 15.35 7.75 15.45 7.8 15.9 12.0 15.3 11.65 12.35 12.1 12.35 12.0 12.4 11.85 12.6 11.55 12.9 7.95 14.5 7.5 14.45 7.0 14.5 7.4 14.55 7.35 14.05 1.35 14.15 1.2 13.95 -1.4 M11.95 1.1 L11.95 4.3 11.3 6.65 11.6 5.85 11.4 6.5 12.0 4.6 10.5 9.7 10.45 9.65 10.35 9.65 10.3 9.6 9.7 9.15 9.55 8.9 11.4 2.65 11.35 3.0 11.4 3.05 11.95 1.1 M7.45 6.6 L7.3 9.5 7.4 9.55 7.2 13.6 6.65 13.4 6.5 13.3 6.2 13.05 6.15 13.0 6.6 5.95 6.65 6.15 6.75 4.35 7.45 6.6" fill="#dadada" fill-rule="evenodd" stroke="none"/>
  </g>
</svg>
