<?xml version="1.0" encoding="UTF-8" standalone="no"?>
<svg xmlns:ffdec="https://www.free-decompiler.com/flash" xmlns:xlink="http://www.w3.org/1999/xlink" ffdec:objectType="shape" height="16.35px" width="10.3px" xmlns="http://www.w3.org/2000/svg">
  <g transform="matrix(1.0, 0.0, 0.0, 1.0, -5.65, 2.35)">
    <path d="M14.55 11.75 L14.35 11.65 13.85 11.35 13.7 11.2 13.65 11.2 13.2 3.8 13.25 3.75 13.3 3.8 13.1 0.7 13.2 0.65 13.25 0.65 13.3 0.6 13.35 0.6 13.55 0.5 13.75 2.95 13.7 2.15 14.0 5.35 13.7 0.8 13.75 1.65 13.7 0.55 13.95 3.75 14.0 3.75 14.1 3.8 14.25 5.3 14.0 1.65 14.7 9.6 14.85 9.65 15.05 11.95 14.9 11.9 14.85 11.9 14.8 11.85 14.75 11.85 14.6 11.75 14.55 11.75 M11.35 6.15 L11.2 6.65 11.35 6.7 10.6 9.7 10.5 9.7 10.2 9.6 10.0 9.5 9.7 9.35 9.35 9.05 11.2 1.05 11.35 6.15 M14.35 6.8 L14.25 5.3 14.35 6.8 M8.15 8.55 L7.95 13.65 7.45 13.6 6.8 13.25 6.75 13.2 7.2 4.55 8.15 8.55" fill="#dadada" fill-rule="evenodd" stroke="none"/>
    <path d="M15.75 12.05 L15.55 12.05 15.5 12.05 15.05 11.95 14.85 9.65 14.7 9.6 14.0 1.65 14.25 5.3 14.1 3.8 14.0 3.75 13.95 3.75 13.7 0.55 13.75 1.65 13.7 0.8 14.0 5.35 13.7 2.15 13.75 2.95 13.55 0.5 13.35 0.6 13.3 0.6 13.25 0.65 13.2 0.65 13.1 0.7 13.3 3.8 13.25 3.75 13.2 3.8 13.65 11.2 13.7 11.2 13.85 11.35 14.35 11.65 14.55 11.75 11.65 12.45 11.55 12.4 11.5 12.2 11.5 12.05 11.55 11.75 11.25 0.5 11.2 1.05 9.35 9.05 9.7 9.35 10.0 9.5 8.65 10.05 8.55 10.0 8.45 9.85 8.35 13.55 8.25 13.6 7.95 13.65 8.15 8.55 8.35 9.55 8.4 9.35 7.7 6.45 7.7 6.1 7.9 5.5 8.2 5.1 8.2 5.0 7.55 2.85 7.65 2.7 7.8 2.55 8.05 2.45 8.35 2.45 8.55 2.55 9.15 4.35 9.25 4.4 9.5 5.15 8.95 7.4 8.95 7.65 10.8 -0.05 12.8 -1.8 12.85 -1.95 13.1 -2.15 13.35 -2.3 13.5 -2.3 13.55 -2.35 13.7 -2.3 13.75 -2.3 13.95 -2.25 14.05 -2.2 14.2 -2.1 14.45 0.75 14.55 0.85 14.85 4.05 14.95 4.15 15.75 12.05 M11.0 9.65 L10.85 9.75 10.6 9.7 11.35 6.7 11.2 6.65 11.35 6.15 11.35 6.7 11.4 8.1 11.0 9.65 M5.65 13.55 L5.65 13.3 5.75 13.15 5.95 13.1 6.35 10.4 6.55 10.35 6.9 8.05 7.15 3.85 7.2 4.55 6.75 13.2 6.8 13.25 5.65 13.55" fill="#6d6d6d" fill-rule="evenodd" stroke="none"/>
    <path d="M14.2 -2.1 L14.25 -2.05 14.35 -1.9 14.45 -1.85 14.55 -1.55 14.55 -1.35 15.95 11.95 15.75 12.05 14.95 4.15 14.85 4.05 14.55 0.85 14.45 0.75 14.2 -2.1 M15.55 12.05 L12.6 12.7 11.95 12.7 11.75 12.55 11.65 12.45 14.55 11.75 14.6 11.75 14.75 11.85 14.8 11.85 14.85 11.9 14.9 11.9 15.05 11.95 15.5 12.05 15.55 12.05 M11.5 12.05 L11.4 8.4 11.1 9.6 11.0 9.65 11.4 8.1 11.35 6.7 11.35 6.15 11.2 1.05 11.25 0.5 11.55 11.75 11.5 12.05 M10.85 9.75 L9.5 10.25 9.05 10.25 8.8 10.15 8.65 10.05 10.0 9.5 10.2 9.6 10.5 9.7 10.6 9.7 10.85 9.75 M8.55 10.0 L8.45 13.5 8.35 13.55 8.45 9.85 8.55 10.0 M7.95 13.65 L6.7 13.95 6.55 13.95 6.35 14.0 6.1 13.95 5.85 13.85 5.7 13.65 5.65 13.55 6.8 13.25 7.45 13.6 7.95 13.65 M5.65 13.3 L6.35 3.8 7.65 2.7 7.55 2.85 8.2 5.0 8.2 5.1 7.9 5.5 7.7 6.1 7.7 6.45 8.4 9.35 8.35 9.55 8.15 8.55 7.2 4.55 7.15 3.85 6.9 8.05 6.55 10.35 6.35 10.4 5.95 13.1 5.75 13.15 5.65 13.3 M8.55 2.55 L8.6 2.55 8.65 2.6 8.85 2.7 9.0 2.85 9.65 4.65 10.75 -0.1 12.85 -1.95 12.8 -1.8 10.8 -0.05 8.95 7.65 8.95 7.4 9.5 5.15 9.25 4.4 9.15 4.35 8.55 2.55" fill="#000000" fill-rule="evenodd" stroke="none"/>
  </g>
</svg>
