<?xml version="1.0" encoding="UTF-8" standalone="no"?>
<svg xmlns:ffdec="https://www.free-decompiler.com/flash" xmlns:xlink="http://www.w3.org/1999/xlink" ffdec:objectType="shape" height="16.85px" width="8.1px" xmlns="http://www.w3.org/2000/svg">
  <g transform="matrix(1.0, 0.0, 0.0, 1.0, -6.65, 2.8)">
    <path d="M11.5 -2.15 L11.75 -2.55 11.9 -2.6 12.0 -2.7 12.45 -2.8 12.6 -2.8 12.7 -2.75 12.75 -2.75 12.9 -2.7 12.95 -2.7 13.05 -2.65 13.2 -2.55 13.35 -2.4 13.6 0.45 13.65 0.55 14.55 11.75 14.35 11.85 13.95 11.85 13.65 7.35 13.5 7.3 13.3 4.45 13.45 7.35 13.35 6.25 13.4 7.3 13.3 5.4 13.4 7.7 13.1 3.5 12.95 3.45 12.8 0.95 12.9 3.45 12.75 0.95 12.85 3.45 12.7 0.85 12.8 3.45 12.6 0.1 12.55 0.1 12.35 0.15 12.3 0.1 12.1 0.2 12.05 0.2 11.95 0.25 12.1 3.5 12.0 3.5 12.0 3.45 11.95 3.45 11.9 3.5 12.2 11.15 12.35 11.3 12.4 11.3 12.4 11.35 12.6 11.45 10.6 12.1 10.55 12.05 10.55 11.7 10.65 11.4 10.95 11.3 11.15 7.45 11.75 7.0 11.8 6.95 11.85 7.0 11.5 -2.15 M9.15 9.15 L9.05 8.95 10.45 0.5 10.45 1.2 9.15 9.15 9.4 9.35 8.6 9.9 8.55 9.85 8.45 9.7 9.15 9.15 M8.85 10.15 L8.9 10.15 9.2 10.25 9.15 13.55 9.05 13.6 8.9 13.65 8.9 11.55 8.85 11.6 8.85 10.15 M9.25 2.8 L9.5 3.8 9.5 3.9 9.45 4.0 8.85 7.5 8.0 2.95 8.15 2.75 8.45 2.6 8.7 2.6 9.0 2.65 9.15 2.75 9.45 4.0 9.2 2.75 9.25 2.8 M7.4 13.35 L7.3 13.2 7.25 13.1 7.6 6.05 7.6 6.3 7.7 4.45 7.8 5.05 7.4 13.35" fill="#6d6d6d" fill-rule="evenodd" stroke="none"/>
    <path d="M11.5 -2.15 L11.85 7.0 11.8 6.95 11.75 7.0 11.15 7.45 10.95 11.3 10.65 11.4 10.55 11.7 10.5 9.85 10.0 10.15 9.9 10.25 9.6 10.3 9.3 10.25 9.25 10.25 9.2 13.45 9.15 13.55 9.2 10.25 8.9 10.15 8.85 10.15 8.7 10.05 8.6 9.9 9.4 9.35 10.05 9.65 10.5 9.7 10.45 1.2 10.45 0.5 9.05 8.95 9.15 9.15 8.45 9.7 7.8 5.05 7.7 4.45 7.6 6.3 7.6 6.05 7.25 13.1 7.3 13.2 7.4 13.35 7.8 13.55 8.5 13.7 8.8 13.7 7.7 14.05 7.2 14.05 7.0 13.95 6.8 13.8 6.7 13.65 6.65 13.5 7.2 4.1 8.0 2.95 8.85 7.5 9.45 4.0 9.5 3.9 9.5 3.8 9.25 2.8 9.4 2.9 9.55 3.1 9.6 3.25 10.15 -0.15 11.5 -2.15 M10.6 12.1 L12.6 11.45 13.2 11.7 13.3 11.7 13.3 11.75 13.4 11.75 13.6 11.8 13.8 11.8 13.95 11.85 14.35 11.85 12.05 12.6 11.85 12.65 11.55 12.65 11.25 12.6 10.95 12.5 10.7 12.25 10.6 12.1 M14.55 11.75 L13.65 0.55 13.6 0.45 13.35 -2.4 13.5 -2.25 13.5 -2.2 13.55 -2.15 13.6 -2.05 13.6 -1.85 14.75 11.6 14.6 11.75 14.55 11.75 M9.15 2.75 L9.2 2.75 9.45 4.0 9.15 2.75" fill="#000000" fill-rule="evenodd" stroke="none"/>
    <path d="M12.6 11.45 L12.4 11.35 12.4 11.3 12.35 11.3 12.2 11.15 11.9 3.5 11.95 3.45 12.0 3.45 12.0 3.5 12.1 3.5 11.95 0.25 12.05 0.2 12.1 0.2 12.3 0.1 12.35 0.15 12.55 0.1 12.6 0.1 12.8 3.45 12.7 0.85 12.85 3.45 12.75 0.95 12.9 3.45 12.8 0.95 12.95 3.45 13.1 3.5 13.4 7.7 13.3 5.4 13.4 7.3 13.35 6.25 13.45 7.35 13.3 4.45 13.5 7.3 13.65 7.35 13.95 11.85 13.8 11.8 13.6 11.8 13.4 11.75 13.3 11.75 13.3 11.7 13.2 11.7 12.6 11.45 M9.15 9.15 L10.45 1.2 10.5 9.7 10.05 9.65 9.4 9.35 9.15 9.15 M8.6 9.9 L8.7 10.05 8.85 10.15 8.85 11.6 8.9 11.55 8.9 13.65 8.8 13.7 8.5 13.7 7.8 13.55 7.4 13.35 7.8 5.05 8.45 9.7 8.55 9.85 8.6 9.9" fill="#dadada" fill-rule="evenodd" stroke="none"/>
  </g>
</svg>
