<?xml version="1.0" encoding="UTF-8" standalone="no"?>
<svg xmlns:ffdec="https://www.free-decompiler.com/flash" xmlns:xlink="http://www.w3.org/1999/xlink" ffdec:objectType="shape" height="17.2px" width="5.55px" xmlns="http://www.w3.org/2000/svg">
  <g transform="matrix(1.0, 0.0, 0.0, 1.0, -7.7, 3.1)">
    <path d="M10.2 -2.45 L10.25 -2.6 10.35 -2.65 10.5 -2.85 10.6 -2.95 10.95 -3.1 11.55 -3.1 11.55 -3.05 11.6 -3.05 11.85 -3.0 12.25 -2.7 12.35 -2.55 12.65 3.5 12.7 3.55 12.75 3.55 13.15 11.45 12.9 11.6 12.75 11.65 12.65 9.3 12.5 9.3 12.4 6.6 12.4 7.15 12.25 4.3 12.35 7.15 12.15 3.35 12.2 5.5 12.1 3.3 11.8 3.25 11.75 0.7 11.75 3.25 11.65 0.7 11.7 2.65 11.55 -0.15 11.15 -0.15 10.7 -0.1 10.7 3.1 10.65 0.85 10.65 3.15 10.6 1.0 10.6 3.25 10.55 3.25 10.5 3.3 10.55 6.95 10.45 6.9 10.4 6.95 10.45 11.2 10.3 11.1 10.3 11.05 10.25 11.0 10.2 10.9 10.2 -2.45 M9.9 13.5 L9.65 13.65 9.65 12.05 9.75 12.2 9.9 12.3 9.9 13.5 M8.55 2.95 L8.8 2.8 8.95 2.75 9.25 2.7 8.8 7.2 8.65 5.0 8.65 4.95 8.7 4.9 8.55 2.95 M9.0 9.3 L8.9 9.15 9.65 0.75 9.65 2.2 9.0 9.3 M8.4 6.25 L8.15 13.45 8.1 13.4 8.0 13.25 8.3 4.6 8.4 6.25" fill="#6d6d6d" fill-rule="evenodd" stroke="none"/>
    <path d="M9.65 13.65 L9.55 13.7 8.95 13.7 8.6 13.65 8.15 13.45 8.4 6.25 8.6 9.75 8.7 9.95 8.95 10.15 9.2 10.25 9.6 10.3 9.55 11.85 9.65 12.05 9.65 13.65 M10.45 11.2 L10.4 6.95 10.45 6.9 10.55 6.95 10.5 3.3 10.55 3.25 10.6 3.25 10.6 1.0 10.65 3.15 10.65 0.85 10.7 3.1 10.7 -0.1 11.15 -0.15 11.55 -0.15 11.7 2.65 11.65 0.7 11.75 3.25 11.75 0.7 11.8 3.25 12.1 3.3 12.2 5.5 12.15 3.35 12.35 7.15 12.25 4.3 12.4 7.15 12.4 6.6 12.5 9.3 12.65 9.3 12.75 11.65 12.6 11.65 12.55 11.7 11.85 11.7 11.3 11.6 10.6 11.3 10.45 11.2 M9.65 2.2 L9.6 9.55 9.3 9.45 9.0 9.3 9.65 2.2" fill="#dadada" fill-rule="evenodd" stroke="none"/>
    <path d="M12.35 -2.55 L12.4 -2.45 12.45 -2.2 13.25 11.25 13.15 11.45 12.75 3.55 12.7 3.55 12.65 3.5 12.35 -2.55 M12.9 11.6 L11.55 12.45 10.85 12.6 10.65 12.6 10.3 12.55 10.05 12.45 9.95 12.35 9.95 13.4 9.9 13.5 9.9 12.3 9.75 12.2 9.65 12.05 9.55 11.85 9.6 10.3 9.2 10.25 8.95 10.15 8.7 9.95 8.6 9.75 8.4 6.25 8.3 4.6 8.0 13.25 8.1 13.4 8.15 13.45 8.6 13.65 8.95 13.7 9.55 13.7 9.55 13.75 9.0 14.0 8.85 14.05 8.55 14.1 8.3 14.1 7.95 13.95 7.7 13.7 8.05 4.35 8.5 3.0 8.55 2.95 8.7 4.9 8.65 4.95 8.65 5.0 8.8 7.2 9.25 2.7 9.5 -0.15 10.2 -2.45 10.2 10.9 10.25 11.0 10.3 11.05 10.3 11.1 10.45 11.2 10.6 11.3 11.3 11.6 11.85 11.7 12.55 11.7 12.6 11.65 12.75 11.65 12.9 11.6 M9.65 2.2 L9.65 0.75 8.9 9.15 9.0 9.3 9.3 9.45 9.6 9.55 9.65 2.2" fill="#000000" fill-rule="evenodd" stroke="none"/>
  </g>
</svg>
