<?xml version="1.0" encoding="UTF-8" standalone="no"?>
<svg xmlns:ffdec="https://www.free-decompiler.com/flash" xmlns:xlink="http://www.w3.org/1999/xlink" ffdec:objectType="shape" height="17.4px" width="3.1px" xmlns="http://www.w3.org/2000/svg">
  <g transform="matrix(1.0, 0.0, 0.0, 1.0, -8.45, 3.25)">
    <path d="M8.95 -2.65 L9.05 -2.85 9.1 -2.85 9.2 -3.0 9.5 -3.15 9.55 -3.15 10.0 -3.25 10.15 -3.25 10.3 -3.2 10.4 -3.2 10.55 -3.1 10.6 -3.1 11.0 -2.8 11.1 -2.6 11.45 11.25 11.15 11.45 11.05 7.0 11.0 7.0 10.9 3.3 10.9 5.4 10.85 3.2 10.7 3.2 10.65 0.7 10.65 3.15 10.6 0.4 10.6 2.75 10.55 0.55 10.55 3.15 10.5 0.65 10.5 3.15 10.45 0.65 10.45 1.9 10.4 -0.25 10.35 -0.25 10.2 -0.3 9.85 -0.3 9.55 -0.25 9.45 3.15 9.45 -0.2 9.35 3.15 9.3 3.15 9.2 3.2 9.1 3.15 9.0 6.95 8.9 6.95 8.8 11.4 8.55 11.15 8.75 3.3 8.8 3.35 8.95 -2.65 M10.6 13.4 L10.6 13.45 10.55 13.45 10.45 13.55 10.45 12.5 10.6 12.45 10.6 13.4 M8.95 12.3 L8.9 13.5 8.75 13.4 8.8 12.15 8.9 12.3 8.95 12.3" fill="#6d6d6d" fill-rule="evenodd" stroke="none"/>
    <path d="M8.8 11.4 L8.9 6.95 9.0 6.95 9.1 3.15 9.2 3.2 9.3 3.15 9.35 3.15 9.45 -0.2 9.45 3.15 9.55 -0.25 9.85 -0.3 10.2 -0.3 10.35 -0.25 10.4 -0.25 10.45 1.9 10.45 0.65 10.5 3.15 10.5 0.65 10.55 3.15 10.55 0.55 10.6 2.75 10.6 0.4 10.65 3.15 10.65 0.7 10.7 3.2 10.85 3.2 10.9 5.4 10.9 3.3 11.0 7.0 11.05 7.0 11.15 11.45 11.05 11.45 10.95 11.55 10.65 11.6 10.55 11.6 10.45 11.65 9.35 11.6 9.25 11.55 9.2 11.55 8.8 11.4 M10.45 3.15 L10.45 1.9 10.45 3.15 M10.45 12.5 L10.45 13.55 9.85 13.75 9.5 13.7 9.3 13.7 8.9 13.55 8.9 13.5 8.95 12.3 9.3 12.5 9.85 12.6 10.45 12.5" fill="#dadada" fill-rule="evenodd" stroke="none"/>
    <path d="M8.95 -2.65 L8.8 3.35 8.75 3.3 8.55 11.15 8.8 11.4 9.2 11.55 9.25 11.55 9.35 11.6 10.45 11.65 10.55 11.6 10.65 11.6 10.95 11.55 11.05 11.45 11.15 11.45 11.45 11.25 11.1 -2.6 11.15 -2.45 11.15 -2.4 11.2 -2.15 11.55 11.0 11.45 11.25 11.2 11.9 11.1 12.05 10.85 12.35 10.65 12.4 10.65 13.25 10.6 13.4 10.6 12.45 10.45 12.5 9.85 12.6 9.3 12.5 8.95 12.3 8.9 12.3 8.8 12.15 8.75 13.4 8.9 13.5 8.9 13.55 9.3 13.7 9.5 13.7 9.85 13.75 10.45 13.55 10.55 13.45 10.55 13.6 10.25 14.0 10.0 14.1 9.6 14.15 9.2 14.05 9.15 14.0 9.0 13.95 8.8 13.75 8.75 13.65 8.7 13.2 8.75 12.15 8.55 11.7 8.5 11.45 8.55 11.15 8.45 11.0 8.8 -2.2 8.85 -2.45 8.95 -2.65" fill="#000000" fill-rule="evenodd" stroke="none"/>
  </g>
</svg>
