<?xml version="1.0" encoding="UTF-8" standalone="no"?>
<svg xmlns:ffdec="https://www.free-decompiler.com/flash" xmlns:xlink="http://www.w3.org/1999/xlink" ffdec:objectType="shape" height="17.25px" width="4.85px" xmlns="http://www.w3.org/2000/svg">
  <g transform="matrix(1.0, 0.0, 0.0, 1.0, -6.75, 3.15)">
    <path d="M10.25 4.05 L10.2 0.8 10.75 9.2 10.55 9.35 10.25 4.05 M9.7 13.6 L9.5 13.45 9.55 12.5 9.7 12.45 9.7 13.6 M7.0 11.5 L6.85 11.4 7.45 0.25 7.5 0.15 7.55 0.15 7.7 -2.65 7.8 -2.8 7.95 -2.95 7.95 -2.9 8.0 -3.0 8.1 -3.05 8.4 -3.15 8.85 -3.15 9.1 -3.1 9.4 -3.0 9.45 -2.95 9.55 -2.9 9.65 -2.75 9.75 -2.65 9.8 -2.5 9.75 11.05 9.55 11.25 9.5 11.25 9.55 4.4 9.45 7.0 9.45 3.25 9.3 3.25 9.35 0.9 9.3 2.65 9.3 -0.1 9.1 -0.2 9.05 -0.15 8.8 -0.2 8.5 -0.2 8.4 2.55 8.45 0.65 8.3 3.2 8.4 0.65 8.25 3.2 8.35 0.65 8.25 2.55 8.3 0.3 8.2 2.2 8.25 1.25 8.1 3.2 7.95 3.2 7.9 3.25 7.8 3.25 7.65 7.1 7.5 7.1 7.4 9.25 7.35 9.25 7.2 11.55 7.15 11.55 7.0 11.5 M10.5 2.75 L10.7 2.8 10.95 2.95 11.0 3.05 10.75 6.65 10.9 5.05 10.8 6.9 10.75 6.65 10.5 2.75 M11.25 13.45 L11.1 6.95 11.2 4.65 11.4 13.3 11.25 13.45" fill="#6d6d6d" fill-rule="evenodd" stroke="none"/>
    <path d="M10.25 4.05 L10.55 9.35 10.3 9.5 10.25 9.5 10.25 4.05 M9.75 13.65 L9.7 13.6 9.7 12.45 9.75 12.45 10.05 12.2 10.25 11.85 10.25 10.25 10.55 10.2 10.6 10.15 10.8 10.0 11.0 9.75 11.1 6.95 11.25 13.45 11.25 13.5 11.05 13.6 10.3 13.75 10.2 13.75 9.75 13.65 M7.2 11.55 L7.35 9.25 7.4 9.25 7.5 7.1 7.65 7.1 7.8 3.25 7.9 3.25 7.95 3.2 8.1 3.2 8.25 1.25 8.2 2.2 8.3 0.3 8.25 2.55 8.35 0.65 8.25 3.2 8.4 0.65 8.3 3.2 8.45 0.65 8.4 2.55 8.5 -0.2 8.8 -0.2 9.05 -0.15 9.1 -0.2 9.3 -0.1 9.3 2.65 9.35 0.9 9.3 3.25 9.45 3.25 9.45 7.0 9.55 4.4 9.5 11.25 9.5 11.3 9.45 11.3 9.4 11.35 9.35 11.35 9.3 11.4 9.2 11.45 9.15 11.45 9.0 11.5 8.95 11.5 8.05 11.7 7.9 11.65 7.4 11.65 7.25 11.6 7.2 11.6 7.2 11.55 M9.25 3.2 L9.3 2.65 9.25 3.2" fill="#dadada" fill-rule="evenodd" stroke="none"/>
    <path d="M10.55 9.35 L10.75 9.2 10.2 0.8 10.25 4.05 10.25 9.5 10.3 9.5 10.55 9.35 M11.0 3.05 L11.05 3.1 11.35 4.4 11.6 13.6 11.5 13.8 11.25 14.0 10.85 14.1 10.5 14.1 10.2 14.0 9.75 13.7 9.75 13.65 10.2 13.75 10.3 13.75 11.05 13.6 11.25 13.5 11.25 13.45 11.4 13.3 11.2 4.65 11.1 6.95 11.0 9.75 10.8 10.0 10.6 10.15 10.55 10.2 10.25 10.25 10.25 11.85 10.05 12.2 9.75 12.45 9.7 12.45 9.55 12.5 9.5 13.45 9.45 13.35 9.45 12.55 9.35 12.55 9.35 12.6 9.05 12.6 8.25 12.45 7.9 12.25 7.0 11.5 7.15 11.55 7.2 11.55 7.2 11.6 7.25 11.6 7.4 11.65 7.9 11.65 8.05 11.7 8.95 11.5 9.0 11.5 9.15 11.45 9.2 11.45 9.3 11.4 9.35 11.35 9.4 11.35 9.45 11.3 9.5 11.3 9.5 11.25 9.55 11.25 9.75 11.05 9.8 -2.5 9.75 -2.65 9.85 -2.4 10.3 -0.1 10.5 2.75 10.75 6.65 10.8 6.9 10.9 5.05 10.75 6.65 11.0 3.05 M6.85 11.4 L6.75 11.25 7.5 -2.25 7.6 -2.5 7.6 -2.55 7.7 -2.65 7.55 0.15 7.5 0.15 7.45 0.25 6.85 11.4" fill="#000000" fill-rule="evenodd" stroke="none"/>
  </g>
</svg>
