<?xml version="1.0" encoding="UTF-8" standalone="no"?>
<svg xmlns:ffdec="https://www.free-decompiler.com/flash" xmlns:xlink="http://www.w3.org/1999/xlink" ffdec:objectType="shape" height="17.0px" width="7.45px" xmlns="http://www.w3.org/2000/svg">
  <g transform="matrix(1.0, 0.0, 0.0, 1.0, -5.2, 2.9)">
    <path d="M10.3 2.8 L10.4 2.75 10.45 2.7 10.65 2.65 10.9 2.65 11.2 2.7 11.4 2.85 11.5 2.95 11.4 3.5 11.5 3.0 11.55 3.0 10.75 7.5 10.15 3.35 10.3 2.8 M10.5 13.65 L10.4 13.6 10.25 13.5 10.25 10.3 10.5 10.25 10.5 13.65 M5.65 11.8 L5.3 11.65 6.25 0.45 6.3 0.35 6.55 -2.5 6.75 -2.7 7.25 -2.9 7.6 -2.9 7.9 -2.85 8.2 -2.7 8.35 -2.45 8.4 -2.4 8.5 -2.15 8.05 10.9 7.95 11.05 9.3 11.85 8.0 11.25 9.3 12.0 8.0 11.4 9.25 12.1 7.55 11.35 7.85 11.15 8.0 7.0 7.9 7.05 8.05 3.4 7.95 3.45 7.9 3.35 8.05 0.15 8.0 0.15 7.8 0.05 7.7 0.05 7.4 0.0 7.2 3.05 7.3 0.85 7.1 3.35 7.25 0.85 7.05 3.35 6.9 3.35 6.75 3.4 6.35 8.45 6.5 6.3 6.4 7.25 6.55 5.1 6.35 7.25 6.2 7.25 5.9 11.8 5.65 11.8 M11.65 5.35 L11.8 4.5 12.1 13.2 11.95 13.35 11.8 8.2 11.8 8.9 11.65 5.35 M9.4 1.7 L9.45 0.4 10.6 9.05 10.45 9.2 10.2 7.1 10.15 7.15 9.95 5.2 9.95 5.4 9.4 1.7" fill="#6d6d6d" fill-rule="evenodd" stroke="none"/>
    <path d="M11.5 2.95 L11.5 3.0 11.4 3.5 11.5 2.95 M11.55 3.0 L12.25 4.2 12.65 13.6 12.55 13.8 12.3 14.0 12.15 14.05 12.0 14.05 11.75 14.1 11.4 14.0 10.65 13.7 11.05 13.7 11.35 13.65 11.9 13.45 11.9 13.4 11.95 13.35 12.1 13.2 11.8 4.5 11.65 5.35 11.1 9.7 10.95 10.0 10.75 10.1 10.6 10.2 10.5 10.25 10.25 10.3 10.25 13.5 10.2 13.45 10.2 10.3 10.05 10.3 9.75 10.25 9.6 10.2 9.3 10.0 9.3 11.85 9.3 12.0 9.25 12.1 9.1 12.3 8.95 12.45 8.55 12.6 8.2 12.65 7.8 12.6 5.65 11.8 5.9 11.8 6.1 11.8 6.15 11.75 6.15 11.8 6.5 11.7 6.7 11.7 7.0 11.6 7.55 11.35 9.25 12.1 8.0 11.4 9.3 12.0 8.0 11.25 9.3 11.85 7.95 11.05 8.05 10.9 8.5 -2.15 9.7 -0.15 10.1 2.9 10.3 2.8 10.15 3.35 10.75 7.5 11.55 3.0 M5.3 11.65 L5.2 11.55 6.3 -2.0 6.45 -2.4 6.55 -2.5 6.3 0.35 6.25 0.45 5.3 11.65 M10.45 9.2 L10.6 9.05 9.45 0.4 9.4 1.7 9.3 9.65 9.7 9.6 10.15 9.4 10.2 9.35 10.45 9.2" fill="#000000" fill-rule="evenodd" stroke="none"/>
    <path d="M10.65 13.7 L10.5 13.65 10.5 10.25 10.6 10.2 10.75 10.1 10.95 10.0 11.1 9.7 11.65 5.35 11.8 8.9 11.8 8.2 11.95 13.35 11.9 13.4 11.9 13.45 11.35 13.65 11.05 13.7 10.65 13.7 M5.9 11.8 L6.2 7.25 6.35 7.25 6.55 5.1 6.4 7.25 6.5 6.3 6.35 8.45 6.75 3.4 6.9 3.35 7.05 3.35 7.25 0.85 7.1 3.35 7.3 0.85 7.2 3.05 7.4 0.0 7.7 0.05 7.8 0.05 8.0 0.15 8.05 0.15 7.9 3.35 7.95 3.45 8.05 3.4 7.9 7.05 8.0 7.0 7.85 11.15 7.55 11.35 7.0 11.6 6.7 11.7 6.5 11.7 6.15 11.8 6.15 11.75 6.1 11.8 5.9 11.8 M9.4 1.7 L9.95 5.4 9.95 5.2 10.15 7.15 10.2 7.1 10.45 9.2 10.2 9.35 10.15 9.4 9.7 9.6 9.3 9.65 9.4 1.7" fill="#dadada" fill-rule="evenodd" stroke="none"/>
  </g>
</svg>
