<?xml version="1.0" encoding="UTF-8" standalone="no"?>
<svg xmlns:ffdec="https://www.free-decompiler.com/flash" xmlns:xlink="http://www.w3.org/1999/xlink" ffdec:objectType="shape" height="16.5px" width="9.75px" xmlns="http://www.w3.org/2000/svg">
  <g transform="matrix(1.0, 0.0, 0.0, 1.0, -3.9, 2.5)">
    <path d="M11.0 2.6 L11.25 2.5 11.55 2.5 11.8 2.65 11.9 2.75 12.0 2.9 11.15 5.95 11.45 4.95 10.7 7.9 11.65 5.55 10.9 8.65 11.85 6.1 11.25 8.85 11.25 8.95 11.15 9.4 11.2 9.55 11.3 9.0 11.35 9.75 11.25 9.7 11.35 13.65 11.15 13.65 11.0 13.55 10.95 10.05 9.8 9.45 10.0 9.35 10.25 9.15 10.25 9.1 10.3 9.05 9.45 4.7 9.45 5.0 8.65 1.35 8.65 1.1 8.6 0.85 8.6 0.5 8.25 11.6 8.3 11.85 8.3 12.2 8.2 12.35 6.2 11.8 8.15 12.45 5.35 11.7 5.85 11.45 6.25 11.15 6.75 3.7 6.7 3.75 6.65 3.7 6.85 0.6 6.75 0.5 6.75 0.55 6.65 0.45 6.6 0.5 6.55 0.4 6.5 0.45 6.25 0.4 5.95 3.65 6.15 1.2 5.9 3.65 5.75 3.65 5.4 7.4 5.25 7.45 5.1 9.55 4.95 9.6 4.75 11.9 4.2 12.0 4.05 11.95 5.25 0.75 5.25 0.7 5.35 0.65 5.65 -2.2 5.8 -2.35 6.15 -2.5 6.5 -2.5 6.85 -2.35 7.15 -2.05 7.15 -1.95 9.05 -0.05 9.3 1.05 10.0 4.4 10.1 4.85 10.2 4.5 10.3 4.4 10.95 2.6 10.4 4.25 11.0 2.6 M8.75 9.7 L8.6 9.65 8.4 8.75 8.45 7.0 9.0 9.7 8.75 9.7 M12.2 4.85 L12.3 4.6 12.35 4.0 12.8 13.1 12.65 13.2 12.35 6.45 12.3 6.7 12.2 4.85 M10.1 4.85 L10.7 7.65 10.7 7.35 10.1 4.85 M9.7 9.5 L9.8 9.45 10.6 9.95 9.7 9.5" fill="#6d6d6d" fill-rule="evenodd" stroke="none"/>
    <path d="M11.45 13.7 L11.35 13.65 11.25 9.7 11.35 9.75 11.3 9.0 12.2 4.85 12.3 6.7 12.35 6.45 12.65 13.2 12.6 13.3 11.95 13.6 11.45 13.7 M8.65 1.35 L9.45 5.0 9.45 4.7 10.3 9.05 10.25 9.1 10.25 9.15 10.0 9.35 9.8 9.45 9.7 9.5 9.45 9.6 9.0 9.7 8.45 7.0 8.65 1.35 M4.75 11.9 L4.95 9.6 5.1 9.55 5.25 7.45 5.4 7.4 5.75 3.65 5.9 3.65 6.15 1.2 5.95 3.65 6.25 0.4 6.5 0.45 6.55 0.4 6.6 0.5 6.65 0.45 6.75 0.55 6.75 0.5 6.85 0.6 6.65 3.7 6.7 3.75 6.75 3.7 6.25 11.15 5.85 11.45 5.35 11.7 5.3 11.7 5.3 11.75 5.25 11.75 5.15 11.8 5.1 11.8 5.05 11.85 4.9 11.9 4.75 11.9" fill="#dadada" fill-rule="evenodd" stroke="none"/>
    <path d="M10.0 4.4 L10.5 2.95 10.65 2.75 10.8 2.65 10.95 2.6 11.0 2.6 10.4 4.25 10.95 2.6 10.3 4.4 10.2 4.5 10.1 4.85 10.0 4.4 M11.9 2.75 L13.05 3.9 13.65 13.65 13.55 13.8 13.15 14.0 12.7 14.0 11.45 13.7 11.95 13.6 12.6 13.3 12.65 13.2 12.8 13.1 12.35 4.0 12.3 4.6 12.2 4.85 11.3 9.0 11.2 9.55 11.15 9.4 11.25 8.95 11.25 8.85 11.85 6.1 10.9 8.65 11.65 5.55 10.7 7.9 11.45 4.95 11.15 5.95 12.0 2.9 11.9 2.75 M11.0 13.55 L10.95 13.5 10.85 10.1 10.7 10.2 10.55 10.25 10.0 10.25 8.75 9.7 9.0 9.7 9.45 9.6 9.7 9.5 10.6 9.95 9.8 9.45 10.95 10.05 11.0 13.55 M8.6 9.65 L8.5 9.6 8.4 9.15 8.3 11.85 8.25 11.6 8.6 0.5 8.6 0.85 8.65 1.1 8.65 1.35 8.45 7.0 8.4 8.75 8.6 9.65 M8.2 12.35 L8.15 12.45 8.0 12.55 7.8 12.65 7.45 12.7 4.2 12.0 4.75 11.9 4.9 11.9 5.05 11.85 5.1 11.8 5.15 11.8 5.25 11.75 5.3 11.75 5.3 11.7 5.35 11.7 8.15 12.45 6.2 11.8 8.2 12.35 M4.05 11.95 L4.0 11.95 3.95 11.9 3.9 11.8 5.3 -1.6 5.5 -2.1 5.55 -2.1 5.65 -2.2 5.35 0.65 5.25 0.7 5.25 0.75 4.05 11.95 M7.15 -2.05 L9.05 -0.15 9.3 1.05 9.05 -0.05 7.15 -1.95 7.15 -2.05 M10.1 4.85 L10.7 7.35 10.7 7.65 10.1 4.85" fill="#000000" fill-rule="evenodd" stroke="none"/>
  </g>
</svg>
