<?xml version="1.0" encoding="UTF-8" standalone="no"?>
<svg xmlns:ffdec="https://www.free-decompiler.com/flash" xmlns:xlink="http://www.w3.org/1999/xlink" ffdec:objectType="shape" height="15.85px" width="11.65px" xmlns="http://www.w3.org/2000/svg">
  <g transform="matrix(1.0, 0.0, 0.0, 1.0, -2.95, 1.9)">
    <path d="M13.8 3.6 L12.35 2.65 12.25 2.5 13.8 3.55 13.8 3.6 M11.5 2.35 L10.8 4.25 10.7 4.25 10.1 5.75 10.5 7.1 10.55 7.35 9.15 2.4 9.5 3.8 8.4 0.1 8.45 0.05 6.1 -1.5 6.0 -1.55 5.95 -1.7 8.5 0.0 10.0 5.3 11.0 2.8 11.15 2.6 11.35 2.45 11.45 2.4 11.5 2.35 M7.5 10.45 L7.55 8.8 7.5 8.7 7.9 1.05 7.8 4.7 7.7 6.35 8.65 9.75 8.5 9.7 7.7 6.75 7.5 10.45 M9.45 9.55 L11.0 10.0 10.95 10.05 9.45 9.55 M11.25 9.6 L11.2 9.45 12.1 6.45 12.05 6.35 12.85 3.7 12.8 4.05 12.75 4.25 12.75 4.4 12.05 6.85 12.0 6.95 11.6 8.4 11.75 13.6 11.65 13.5 11.5 8.7 11.25 9.6 M12.95 13.3 L14.55 13.6 14.55 13.65 14.35 13.85 14.2 13.9 13.95 13.95 12.3 13.65 12.1 13.65 12.25 13.6 12.35 13.55 12.4 13.55 12.75 13.45 12.95 13.3 M14.6 13.3 L14.5 13.15 14.2 8.4 14.6 13.3 M7.4 12.5 L7.35 12.6 6.95 12.8 6.7 12.8 3.15 12.2 3.0 12.2 2.95 12.15 4.55 -1.15 4.65 -1.45 4.8 -1.65 4.95 -1.8 4.6 1.05 4.55 1.1 3.7 7.9 3.65 7.95 3.15 12.2 3.2 12.2 3.8 12.0 4.05 12.0 4.05 11.9 4.9 12.05 4.9 12.15 7.35 12.6 4.95 12.1 7.4 12.5 M8.75 9.8 L9.15 9.65 9.35 9.6 10.95 10.1 10.75 10.2 10.5 10.25 10.35 10.25 8.75 9.8" fill="#000000" fill-rule="evenodd" stroke="none"/>
    <path d="M12.25 2.5 L12.35 2.65 13.8 3.6 14.2 8.4 14.5 13.15 14.6 13.3 14.6 13.5 14.55 13.6 12.95 13.3 13.2 13.1 13.25 13.1 13.25 13.05 13.3 13.0 13.05 8.7 13.15 11.4 12.75 4.4 12.75 4.25 12.8 4.05 12.85 3.7 12.05 6.35 12.1 6.45 11.2 9.45 11.25 9.6 11.2 9.8 11.1 9.95 11.0 10.0 9.45 9.55 9.75 9.35 10.05 9.05 10.05 8.95 9.5 6.7 9.5 7.0 7.95 1.3 7.9 1.05 7.5 8.7 7.55 8.8 7.5 10.45 7.45 12.0 7.35 11.7 5.05 11.1 5.65 11.2 5.4 7.4 5.05 11.1 5.0 11.1 5.85 1.35 5.55 4.15 5.8 1.15 5.75 1.15 5.75 1.1 5.6 0.95 5.85 -1.75 5.9 -1.7 5.95 -1.7 6.0 -1.55 6.1 -1.5 8.45 0.05 8.4 0.1 9.5 3.8 9.15 2.4 10.55 7.35 10.5 7.1 10.1 5.75 10.7 4.25 10.8 4.25 11.5 2.35 11.75 2.3 12.0 2.35 12.25 2.5 M4.95 -1.8 L5.0 -1.85 5.2 -1.9 5.6 -1.9 5.75 -1.8 5.8 -1.75 5.35 2.5 5.6 -0.4 5.45 0.95 5.3 0.9 5.05 3.1 5.2 1.75 4.7 5.8 4.85 4.05 4.65 6.05 4.7 5.5 4.2 9.7 4.05 9.8 3.8 12.0 3.2 12.2 3.15 12.2 3.65 7.95 3.7 7.9 4.55 1.1 4.6 1.05 4.95 -1.8 M9.15 9.65 L8.75 9.8 8.65 9.75 7.7 6.35 7.8 4.7 9.15 9.65 M10.95 10.1 L9.35 9.6 9.45 9.55 10.95 10.05 10.95 10.1 M3.8 12.0 L3.95 11.9 4.0 11.9 4.0 11.85 4.05 11.85 4.15 11.8 4.2 11.75 4.3 11.7 4.35 11.7 4.45 11.6 4.5 11.6 4.65 11.45 7.45 12.0 7.45 12.4 7.4 12.5 4.95 12.1 7.35 12.6 4.9 12.15 4.9 12.05 4.05 11.9 4.05 12.0 3.8 12.0 M11.75 13.6 L11.6 8.4 12.0 6.95 12.05 6.85 12.1 9.55 12.15 11.5 12.1 11.55 12.15 12.65 12.1 12.5 12.1 13.65 11.75 13.6 M12.0 6.95 L12.1 9.55 12.0 6.95" fill="#6d6d6d" fill-rule="evenodd" stroke="none"/>
    <path d="M5.85 -1.75 L5.6 0.95 5.75 1.1 5.75 1.15 5.8 1.15 5.55 4.15 5.85 1.35 5.0 11.1 5.05 11.1 5.4 7.4 5.65 11.2 5.05 11.1 7.35 11.7 7.45 12.0 4.65 11.45 4.5 11.6 4.45 11.6 4.35 11.7 4.3 11.7 4.2 11.75 4.15 11.8 4.05 11.85 4.0 11.85 4.0 11.9 3.95 11.9 3.8 12.0 4.05 9.8 4.2 9.7 4.7 5.5 4.65 6.05 4.85 4.05 4.7 5.8 5.2 1.75 5.05 3.1 5.3 0.9 5.45 0.95 5.6 -0.4 5.35 2.5 5.8 -1.75 5.85 -1.75 M7.9 1.05 L7.95 1.3 9.5 7.0 9.5 6.7 10.05 8.95 10.05 9.05 9.75 9.35 9.45 9.55 9.35 9.6 9.15 9.65 7.8 4.7 7.9 1.05 M12.75 4.4 L13.15 11.4 13.05 8.7 13.3 13.0 13.25 13.05 13.25 13.1 13.2 13.1 12.95 13.3 12.75 13.45 12.4 13.55 12.35 13.55 12.25 13.6 12.1 13.65 12.1 12.5 12.15 12.65 12.1 11.55 12.15 11.5 12.1 9.55 12.05 6.85 12.75 4.4 M5.0 3.55 L5.05 3.1 5.0 3.55" fill="#dadada" fill-rule="evenodd" stroke="none"/>
  </g>
</svg>
