<?xml version="1.0" encoding="UTF-8" standalone="no"?>
<svg xmlns:ffdec="https://www.free-decompiler.com/flash" xmlns:xlink="http://www.w3.org/1999/xlink" ffdec:objectType="shape" height="15.05px" width="13.15px" xmlns="http://www.w3.org/2000/svg">
  <g transform="matrix(1.0, 0.0, 0.0, 1.0, -2.3, 1.25)">
    <path d="M12.4 2.15 L14.5 3.1 15.45 13.25 15.4 13.1 14.45 3.15 12.6 2.3 12.4 2.15 M15.45 13.55 L15.35 13.7 15.0 13.8 14.8 13.8 12.6 13.55 12.9 13.5 13.3 13.3 15.45 13.55 M12.4 13.55 L12.3 13.45 12.05 7.35 11.25 9.7 11.25 9.55 11.25 9.4 13.1 4.05 13.1 4.2 12.6 5.8 12.15 7.05 12.4 13.55 M11.05 10.0 L11.0 10.05 10.8 10.2 10.5 10.2 8.7 9.85 8.5 9.8 7.15 5.6 6.8 12.45 6.75 12.3 6.75 12.2 7.3 1.65 7.3 2.4 7.35 2.75 7.3 3.65 7.25 3.8 7.2 5.2 8.7 9.85 9.1 9.65 9.15 9.6 11.05 10.0 M6.75 12.65 L6.6 12.85 6.4 12.9 2.3 12.45 4.05 -0.65 4.1 -0.85 4.2 -1.05 4.35 -1.2 2.65 12.2 2.6 12.2 2.55 12.35 2.6 12.35 2.85 12.2 6.75 12.65 M5.0 -1.1 L7.95 0.2 10.0 5.85 11.45 2.5 11.6 2.3 11.95 2.1 11.05 4.1 11.0 4.1 10.05 6.15 10.35 6.95 10.35 7.0 10.4 7.1 10.35 7.25 7.9 0.25 5.2 -0.95 5.15 -1.0 5.0 -1.1 M4.3 -0.45 L4.2 0.7 4.3 -0.45" fill="#000000" fill-rule="evenodd" stroke="none"/>
    <path d="M11.95 2.1 L12.1 2.05 12.2 2.1 12.4 2.15 12.6 2.3 14.45 3.15 15.4 13.1 15.45 13.25 15.45 13.55 13.3 13.3 13.85 12.8 13.5 7.7 13.45 7.9 13.2 3.7 13.1 4.05 11.25 9.4 11.15 9.2 9.85 8.9 7.2 0.85 7.3 1.65 6.75 12.2 6.5 11.8 6.85 6.05 6.5 2.5 6.3 5.2 6.0 2.25 5.55 1.95 5.05 1.75 5.0 1.8 4.9 1.65 5.2 -0.95 7.9 0.25 10.35 7.25 10.4 7.3 11.55 4.65 10.55 6.85 11.0 5.85 10.4 7.1 11.9 3.6 10.35 7.0 10.8 6.0 10.35 6.95 10.05 6.15 11.0 4.1 11.05 4.1 11.95 2.1 M12.6 13.55 L12.4 13.55 12.15 7.05 12.6 5.8 12.8 9.25 12.75 9.25 12.7 9.3 12.9 13.5 12.6 13.55 M11.25 9.7 L11.15 9.9 11.05 10.0 9.15 9.6 9.1 9.65 8.7 9.85 7.2 5.2 7.25 3.8 7.3 3.65 8.25 6.7 7.75 5.25 9.15 9.6 9.5 9.3 9.65 9.2 11.25 9.55 11.25 9.7 M6.8 12.45 L6.75 12.65 2.85 12.2 2.6 12.35 2.55 12.35 2.6 12.2 2.65 12.2 4.35 -1.2 4.45 -1.2 4.6 -1.25 4.75 -1.25 5.0 -1.1 5.0 -1.05 4.95 -1.05 4.65 1.5 4.6 1.55 4.5 1.5 4.15 4.55 4.05 4.55 3.15 12.0 3.3 11.9 6.75 12.3 6.8 12.45 M7.75 5.25 L7.25 3.8 7.75 5.25" fill="#6d6d6d" fill-rule="evenodd" stroke="none"/>
    <path d="M10.35 6.95 L10.8 6.0 10.35 7.0 11.9 3.6 10.4 7.1 11.0 5.85 10.55 6.85 11.55 4.65 10.4 7.3 10.35 7.25 10.4 7.1 10.35 7.0 10.35 6.95 M5.2 -0.95 L4.9 1.65 5.0 1.8 5.05 1.75 5.55 1.95 6.0 2.25 6.3 5.2 6.5 2.5 6.85 6.05 6.5 11.8 6.75 12.2 6.75 12.3 3.3 11.9 3.15 12.0 4.05 4.55 4.15 4.55 4.5 1.5 4.6 1.55 4.65 1.5 4.95 -1.05 5.0 -1.05 5.0 -1.1 5.15 -1.0 5.2 -0.95 M7.3 1.65 L7.2 0.85 9.85 8.9 11.15 9.2 11.25 9.4 11.25 9.55 9.65 9.2 9.5 9.3 9.15 9.6 7.75 5.25 8.25 6.7 7.3 3.65 7.35 2.75 7.3 2.4 7.3 1.65 M13.1 4.05 L13.2 3.7 13.45 7.9 13.5 7.7 13.85 12.8 13.3 13.3 12.9 13.5 12.7 9.3 12.75 9.25 12.8 9.25 12.6 5.8 13.1 4.2 13.1 4.05" fill="#dadada" fill-rule="evenodd" stroke="none"/>
  </g>
</svg>
