<?xml version="1.0" encoding="UTF-8" standalone="no"?>
<svg xmlns:ffdec="https://www.free-decompiler.com/flash" xmlns:xlink="http://www.w3.org/1999/xlink" ffdec:objectType="shape" height="395.55px" width="48.0px" xmlns="http://www.w3.org/2000/svg">
  <g transform="matrix(1.0, 0.0, 0.0, 1.0, 10.9, 425.3)">
    <path d="M13.05 -250.35 L18.95 -250.35 19.0 -250.35 19.0 -53.8 13.05 -53.8 13.05 -250.35" fill="url(#gradient0)" fill-rule="evenodd" stroke="none"/>
    <path d="M18.95 -250.35 L13.05 -250.35 7.05 -250.35 7.0 -250.35 7.0 -250.4 Q7.1 -318.6 8.45 -369.4 10.15 -431.85 13.0 -424.55 15.85 -427.5 17.6 -360.7 19.0 -307.0 18.95 -250.4 L18.95 -250.35" fill="url(#gradient1)" fill-rule="evenodd" stroke="none"/>
    <path d="M13.05 -250.35 L13.05 -53.8 7.05 -53.8 7.05 -250.35 13.05 -250.35" fill="url(#gradient2)" fill-rule="evenodd" stroke="none"/>
    <path d="M30.05 -70.7 Q37.1 -63.65 37.1 -53.75 37.1 -43.85 30.05 -36.8 23.0 -29.75 13.1 -29.75 3.15 -29.75 -3.9 -36.8 -10.95 -43.85 -10.9 -53.75 -10.95 -63.65 -3.9 -70.7 3.15 -77.75 13.1 -77.75 23.0 -77.75 30.05 -70.7" fill="url(#gradient3)" fill-rule="evenodd" stroke="none"/>
  </g>
  <defs>
    <linearGradient gradientTransform="matrix(0.0037, 0.0, 0.0, 0.12, 15.95, -152.15)" gradientUnits="userSpaceOnUse" id="gradient0" spreadMethod="pad" x1="-819.2" x2="819.2">
      <stop offset="0.34901960784313724" stop-color="#ffffff"/>
      <stop offset="0.7098039215686275" stop-color="#00ffff" stop-opacity="0.6627451"/>
      <stop offset="0.9725490196078431" stop-color="#0affff" stop-opacity="0.0"/>
    </linearGradient>
    <radialGradient cx="0" cy="0" gradientTransform="matrix(0.0073, 0.0, 0.0, 0.2126, 13.0, -248.95)" gradientUnits="userSpaceOnUse" id="gradient1" r="819.2" spreadMethod="pad">
      <stop offset="0.34901960784313724" stop-color="#ffffff"/>
      <stop offset="0.7098039215686275" stop-color="#00ffff" stop-opacity="0.6627451"/>
      <stop offset="0.9725490196078431" stop-color="#0affff" stop-opacity="0.0"/>
    </radialGradient>
    <linearGradient gradientTransform="matrix(-0.0037, 0.0, 0.0, 0.12, 10.05, -152.15)" gradientUnits="userSpaceOnUse" id="gradient2" spreadMethod="pad" x1="-819.2" x2="819.2">
      <stop offset="0.34901960784313724" stop-color="#ffffff"/>
      <stop offset="0.7098039215686275" stop-color="#00ffff" stop-opacity="0.6627451"/>
      <stop offset="0.9725490196078431" stop-color="#0affff" stop-opacity="0.0"/>
    </linearGradient>
    <radialGradient cx="0" cy="0" gradientTransform="matrix(0.0295, 0.0, 0.0, 0.0295, 13.05, -53.8)" gradientUnits="userSpaceOnUse" id="gradient3" r="819.2" spreadMethod="pad">
      <stop offset="0.2235294117647059" stop-color="#ffffff"/>
      <stop offset="0.611764705882353" stop-color="#ffffff" stop-opacity="0.37254903"/>
      <stop offset="0.9568627450980393" stop-color="#ffffff" stop-opacity="0.0"/>
    </radialGradient>
  </defs>
</svg>
