<?xml version="1.0" encoding="UTF-8" standalone="no"?>
<svg xmlns:ffdec="https://www.free-decompiler.com/flash" xmlns:xlink="http://www.w3.org/1999/xlink" ffdec:objectType="shape" height="153.75px" width="153.8px" xmlns="http://www.w3.org/2000/svg">
  <g transform="matrix(1.0, 0.0, 0.0, 1.0, 63.85, 130.65)">
    <path d="M67.4 -108.1 Q89.9 -85.6 89.95 -53.8 89.9 -22.0 67.4 0.55 44.85 23.1 13.05 23.1 -18.75 23.1 -41.3 0.55 -63.85 -22.0 -63.85 -53.8 -63.85 -85.6 -41.3 -108.1 -18.75 -130.65 13.05 -130.65 44.85 -130.65 67.4 -108.1 M59.85 -53.8 Q59.85 -73.15 46.15 -86.85 32.45 -100.55 13.1 -100.55 -6.25 -100.55 -19.95 -86.85 -33.65 -73.15 -33.65 -53.8 -33.65 -34.45 -19.95 -20.75 -6.25 -7.05 13.1 -7.05 32.45 -7.05 46.15 -20.75 59.85 -34.45 59.85 -53.8" fill="url(#gradient0)" fill-rule="evenodd" stroke="none"/>
  </g>
  <defs>
    <radialGradient cx="0" cy="0" gradientTransform="matrix(0.0965, 0.0, 0.0, 0.0965, 13.05, -53.8)" gradientUnits="userSpaceOnUse" id="gradient0" r="819.2" spreadMethod="pad">
      <stop offset="0.611764705882353" stop-color="#00ffff" stop-opacity="0.0"/>
      <stop offset="0.8352941176470589" stop-color="#1cfdfd" stop-opacity="0.68235296"/>
      <stop offset="0.9254901960784314" stop-color="#ffffff"/>
      <stop offset="0.9647058823529412" stop-color="#ffffff" stop-opacity="0.0"/>
    </radialGradient>
  </defs>
</svg>
