<?xml version="1.0" encoding="UTF-8" standalone="no"?>
<svg xmlns:ffdec="https://www.free-decompiler.com/flash" xmlns:xlink="http://www.w3.org/1999/xlink" ffdec:objectType="shape" height="25.7px" width="40.75px" xmlns="http://www.w3.org/2000/svg">
  <g transform="matrix(1.0, 0.0, 0.0, 1.0, 20.35, 12.85)">
    <path d="M16.2 5.0 Q16.2 2.75 14.6 1.15 13.05 -0.4 10.8 -0.4 8.55 -0.4 6.95 1.15 5.4 2.75 5.4 5.0 5.4 7.25 6.95 8.8 8.55 10.4 10.8 10.4 13.05 10.4 14.6 8.8 16.2 7.25 16.2 5.0 M-18.35 -11.75 Q1.45 -15.65 19.9 5.55 18.15 9.45 13.6 12.35 -3.45 12.25 -14.1 9.2 -20.4 1.0 -18.35 -11.75" fill="#ffffff" fill-rule="evenodd" stroke="none"/>
    <path d="M16.2 5.0 Q16.2 7.25 14.6 8.8 13.05 10.4 10.8 10.4 8.55 10.4 6.95 8.8 5.4 7.25 5.4 5.0 5.4 2.75 6.95 1.15 8.55 -0.4 10.8 -0.4 13.05 -0.4 14.6 1.15 16.2 2.75 16.2 5.0" fill="#000000" fill-rule="evenodd" stroke="none"/>
    <path d="M-18.35 -11.75 Q1.45 -15.65 19.9 5.55 18.15 9.45 13.6 12.35 L15.4 12.35 M13.6 12.35 Q-3.45 12.25 -14.1 9.2 -20.4 1.0 -18.35 -11.75 L-19.85 -11.45" fill="none" stroke="#000000" stroke-linecap="round" stroke-linejoin="round" stroke-width="1.0"/>
  </g>
</svg>
