<?xml version="1.0" encoding="UTF-8" standalone="no"?>
<svg xmlns:ffdec="https://www.free-decompiler.com/flash" xmlns:xlink="http://www.w3.org/1999/xlink" ffdec:objectType="shape" height="459.2px" width="15.7px" xmlns="http://www.w3.org/2000/svg">
  <g transform="matrix(1.0, 0.0, 0.0, 1.0, 7.85, 229.6)">
    <path d="M3.65 -9.0 L5.9 -9.0 4.85 -6.9 4.8 -6.85 Q2.85 -3.6 0.5 -2.25 -1.45 -1.15 -2.95 1.55 -5.85 6.5 -5.85 13.45 -5.85 20.35 -3.0 25.25 L-2.95 25.25 Q-1.45 27.9 0.5 29.15 L0.55 29.15 Q2.85 30.45 4.8 33.65 L4.85 33.65 Q7.85 39.0 7.85 46.55 7.85 54.05 4.85 59.3 L4.8 59.35 Q2.85 62.55 0.55 63.95 L0.5 64.0 Q-1.45 65.1 -2.95 67.75 -5.85 72.7 -5.85 79.6 -5.85 86.55 -3.0 91.4 L-2.95 91.4 Q-1.45 94.1 0.5 95.25 L0.55 95.25 Q2.85 96.65 4.8 99.85 L4.85 99.85 Q7.85 105.2 7.85 112.75 7.85 120.25 4.85 125.5 L4.8 125.55 Q2.85 128.75 0.55 130.15 L0.5 130.2 Q-1.45 131.3 -2.95 133.95 -5.85 138.9 -5.85 145.85 -5.85 152.75 -3.0 157.6 L-2.95 157.6 Q-1.45 160.35 0.5 161.5 2.85 162.8 4.8 166.05 L4.85 166.05 5.15 166.6 2.8 166.6 Q1.3 164.3 -0.5 163.25 -2.85 161.85 -4.7 158.6 -7.85 153.35 -7.85 145.85 -7.85 138.3 -4.7 132.95 -2.85 129.8 -0.5 128.45 1.45 127.25 3.1 124.5 5.85 119.65 5.85 112.75 5.85 105.8 3.1 100.85 L3.1 100.9 Q1.45 98.2 -0.45 97.0 L-0.5 96.95 Q-2.85 95.65 -4.7 92.4 -7.85 87.15 -7.85 79.6 -7.85 72.1 -4.7 66.75 -2.85 63.55 -0.5 62.25 L-0.45 62.25 Q1.45 61.0 3.1 58.3 5.85 53.45 5.85 46.55 5.85 39.6 3.1 34.65 L3.1 34.7 Q1.45 32.0 -0.45 30.9 L-0.5 30.85 Q-2.9 29.45 -4.7 26.25 -7.85 20.95 -7.85 13.45 -7.85 5.9 -4.7 0.55 -2.85 -2.65 -0.5 -4.0 1.45 -5.2 3.1 -7.9 L3.65 -9.0" fill="#8afffd" fill-opacity="0.2" fill-rule="evenodd" stroke="none"/>
    <path d="M-4.7 224.9 L-4.7 224.85 -4.7 224.9" fill="url(#gradient0)" fill-rule="evenodd" stroke="none"/>
    <path d="M5.15 166.6 Q7.85 171.8 7.85 178.95 7.85 186.45 4.85 191.75 L4.8 191.8 Q2.85 194.95 0.55 196.35 L0.5 196.4 Q-1.45 197.5 -2.95 200.15 -5.85 205.1 -5.85 212.05 -5.85 219.0 -3.0 223.85 L-2.95 223.85 Q-1.45 226.55 0.5 227.7 L1.0 228.3 0.9 229.05 0.25 229.55 -0.5 229.45 Q-2.85 228.05 -4.7 224.9 L-4.7 224.85 Q-7.85 219.6 -7.85 212.05 -7.85 204.5 -4.7 199.15 -2.85 196.0 -0.5 194.65 1.45 193.45 3.1 190.75 5.85 185.85 5.85 178.95 5.85 172.0 3.1 167.05 L3.1 167.1 2.8 166.6 5.15 166.6" fill="url(#gradient1)" fill-rule="evenodd" stroke="none"/>
    <path d="M3.65 -9.0 Q5.85 -13.5 5.85 -19.65 5.85 -26.6 3.1 -31.55 L3.1 -31.5 Q1.45 -34.2 -0.45 -35.4 L-0.5 -35.45 Q-2.85 -36.75 -4.7 -40.0 -7.85 -45.25 -7.85 -52.75 -7.85 -60.35 -4.7 -65.7 -2.85 -68.85 -0.5 -70.15 L-0.45 -70.15 Q1.45 -71.4 3.1 -74.1 5.85 -78.95 5.85 -85.9 5.85 -92.85 3.1 -97.8 L3.1 -97.75 Q1.45 -100.45 -0.5 -101.65 L-0.5 -101.6 Q-2.85 -103.0 -4.7 -106.2 -7.85 -111.45 -7.85 -119.0 -7.85 -126.55 -4.7 -131.85 -2.85 -135.05 -0.5 -136.4 1.45 -137.6 3.1 -140.3 5.85 -145.15 5.85 -152.1 5.85 -159.05 3.1 -163.95 L3.1 -163.9 Q1.45 -166.6 -0.5 -167.75 L-0.5 -167.8 Q-2.9 -169.2 -4.7 -172.4 -7.85 -177.65 -7.85 -185.15 -7.85 -192.7 -4.7 -198.05 -2.85 -201.25 -0.5 -202.6 1.45 -203.8 3.1 -206.55 5.85 -211.4 5.85 -218.3 5.85 -223.9 4.1 -228.2 3.9 -228.6 4.1 -228.95 L4.65 -229.5 Q5.0 -229.7 5.4 -229.5 L5.95 -228.95 Q7.85 -224.3 7.85 -218.3 7.85 -210.8 4.85 -205.55 L4.8 -205.5 Q2.85 -202.3 0.55 -200.9 L0.5 -200.85 Q-1.45 -199.75 -2.95 -197.05 -5.85 -192.1 -5.85 -185.15 -5.85 -178.25 -3.0 -173.4 L-2.95 -173.4 Q-1.4 -170.7 0.55 -169.5 L0.5 -169.5 Q2.85 -168.2 4.8 -164.95 L4.85 -164.95 Q7.85 -159.65 7.85 -152.1 7.85 -144.55 4.85 -139.3 L4.8 -139.25 Q2.85 -136.1 0.55 -134.7 L0.5 -134.65 Q-1.45 -133.55 -2.95 -130.85 L-3.0 -130.85 Q-5.85 -125.95 -5.85 -119.0 -5.85 -112.05 -3.0 -107.2 L-2.95 -107.2 Q-1.45 -104.5 0.5 -103.35 L0.55 -103.35 Q2.85 -101.95 4.8 -98.8 L4.85 -98.8 Q7.85 -93.45 7.85 -85.9 7.85 -78.35 4.85 -73.1 L4.8 -73.05 Q2.85 -69.85 0.55 -68.45 L0.5 -68.4 Q-1.45 -67.35 -2.95 -64.7 -5.85 -59.75 -5.85 -52.75 -5.85 -45.85 -3.0 -41.0 L-2.95 -41.0 Q-1.45 -38.3 0.5 -37.15 L0.55 -37.15 Q2.85 -35.75 4.8 -32.55 L4.85 -32.55 Q7.85 -27.2 7.85 -19.65 7.85 -13.6 5.9 -9.0 L3.65 -9.0" fill="url(#gradient2)" fill-rule="evenodd" stroke="none"/>
  </g>
  <defs>
    <linearGradient gradientTransform="matrix(0.0093, 0.0025, -0.0099, 0.0371, 0.0, 198.1)" gradientUnits="userSpaceOnUse" id="gradient0" spreadMethod="pad" x1="-819.2" x2="819.2">
      <stop offset="0.0" stop-color="#8afffd" stop-opacity="0.2"/>
      <stop offset="1.0" stop-color="#8afffd" stop-opacity="0.0"/>
    </linearGradient>
    <linearGradient gradientTransform="matrix(0.0, 0.0369, -0.0096, 0.0, 0.0, 199.0)" gradientUnits="userSpaceOnUse" id="gradient1" spreadMethod="pad" x1="-819.2" x2="819.2">
      <stop offset="0.0" stop-color="#8afffd" stop-opacity="0.2"/>
      <stop offset="1.0" stop-color="#8afffd" stop-opacity="0.0"/>
    </linearGradient>
    <linearGradient gradientTransform="matrix(0.0, -0.1325, 0.0096, 0.0, 0.0, -119.0)" gradientUnits="userSpaceOnUse" id="gradient2" spreadMethod="pad" x1="-819.2" x2="819.2">
      <stop offset="0.0" stop-color="#8afffd" stop-opacity="0.2"/>
      <stop offset="1.0" stop-color="#8afffd" stop-opacity="0.0"/>
    </linearGradient>
  </defs>
</svg>
