<?xml version="1.0" encoding="UTF-8" standalone="no"?>
<svg xmlns:ffdec="https://www.free-decompiler.com/flash" xmlns:xlink="http://www.w3.org/1999/xlink" ffdec:objectType="shape" height="111.75px" width="12.75px" xmlns="http://www.w3.org/2000/svg">
  <g transform="matrix(1.0, 0.0, 0.0, 1.0, 6.35, 54.4)">
    <path d="M0.65 -52.35 Q0.65 -49.8 -0.2 -49.65 -0.85 -49.95 -0.85 -50.4 -0.85 -53.75 0.05 -54.4 0.65 -54.0 0.65 -52.35 M1.3 -23.65 Q1.4 -23.4 0.8 -23.4 L-0.1 -25.45 Q-0.1 -26.4 0.55 -26.4 1.05 -26.4 1.4 -24.45 L1.3 -23.65" fill="#ffff88" fill-opacity="0.5019608" fill-rule="evenodd" stroke="none"/>
    <path d="M-0.7 44.85 Q0.1 44.85 -0.1 46.9 -0.1 48.85 -0.95 49.35 -1.6 49.05 -1.6 48.6 -1.6 44.85 -0.7 44.85 M-2.55 55.0 Q-3.3 56.6 -4.6 56.6 L-5.3 56.5 -5.55 55.9 -4.4 55.4 Q-3.3 54.75 -3.3 52.0 -3.35 51.85 -2.75 51.85 -1.9 51.85 -2.05 53.1 -2.05 53.9 -2.55 55.0 M-6.35 50.95 Q-6.35 49.8 -5.7 49.35 -5.3 49.45 -5.1 49.85 L-5.1 52.25 Q-5.25 52.25 -5.7 52.6 -6.35 52.2 -6.35 50.95 M2.5 47.35 Q3.35 48.05 3.85 51.0 3.85 51.35 3.25 51.35 2.05 51.35 1.85 48.6 1.85 47.85 2.5 47.35 M3.25 54.15 L3.35 55.25 Q4.0 56.35 5.6 56.6 5.45 57.35 4.5 57.35 2.5 57.35 1.85 55.1 L1.85 53.75 Q1.85 53.6 2.5 53.6 3.25 53.6 3.25 54.15" fill="#ffff87" fill-opacity="0.050980393" fill-rule="evenodd" stroke="none"/>
    <path d="M-3.2 35.85 Q-2.35 35.85 -2.6 37.15 L-2.8 38.4 -3.2 38.6 -3.85 38.1 -3.85 36.0 -3.2 35.85 M-1.55 41.0 Q-2.4 44.85 -4.0 44.85 L-4.55 44.75 -4.8 44.15 -2.8 41.65 -2.85 40.2 Q-2.9 39.35 -2.25 39.35 -1.35 39.35 -1.55 41.0 M2.8 34.35 Q3.65 34.35 3.4 35.65 3.4 37.0 2.55 37.35 1.9 37.05 1.9 36.6 1.9 34.35 2.8 34.35" fill="#ffff87" fill-opacity="0.101960786" fill-rule="evenodd" stroke="none"/>
    <path d="M6.4 27.1 L6.4 28.75 Q6.25 28.75 5.8 29.1 5.3 28.55 5.15 27.85 5.15 27.05 5.8 26.6 6.2 26.7 6.4 27.1 M2.25 29.1 Q3.0 29.1 3.85 32.25 3.7 32.85 3.25 32.85 2.4 32.85 1.6 29.7 1.6 29.5 1.75 29.25 1.6 29.1 2.25 29.1" fill="#ffff87" fill-opacity="0.2" fill-rule="evenodd" stroke="none"/>
    <path d="M-2.6 11.25 L-2.85 13.25 Q-3.0 13.25 -3.45 13.6 -4.1 12.9 -4.1 12.4 -4.1 10.9 -3.2 10.35 -2.6 10.7 -2.6 11.25 M-0.85 20.15 L-0.95 20.85 Q-0.85 21.1 -1.45 21.1 -2.1 21.1 -2.25 20.15 L-2.35 19.15 Q-2.35 18.1 -1.7 18.1 -1.2 18.1 -0.85 20.15" fill="#ffff87" fill-opacity="0.3019608" fill-rule="evenodd" stroke="none"/>
    <path d="M-2.45 -9.9 Q-3.1 -10.2 -3.1 -10.75 -3.1 -12.05 -1.95 -12.65 L-1.35 -11.8 Q-1.35 -10.5 -2.45 -9.9 M1.4 8.55 Q1.4 7.6 2.05 7.6 2.95 7.6 2.9 10.3 L2.8 11.85 2.3 12.1 Q1.4 11.2 1.4 8.55" fill="#ffff87" fill-opacity="0.4" fill-rule="evenodd" stroke="none"/>
  </g>
</svg>
