<?xml version="1.0" encoding="UTF-8" standalone="no"?>
<svg xmlns:ffdec="https://www.free-decompiler.com/flash" xmlns:xlink="http://www.w3.org/1999/xlink" ffdec:objectType="shape" height="334.15px" width="10.4px" xmlns="http://www.w3.org/2000/svg">
  <g transform="matrix(1.0, 0.0, 0.0, 1.0, 4.05, 279.55)">
    <path d="M3.85 -278.65 L3.65 -277.75 3.25 -277.55 Q2.7 -277.75 2.6 -278.05 L2.6 -279.4 3.25 -279.55 Q3.85 -279.55 3.85 -278.65 M0.6 -263.25 L0.5 -262.75 Q0.6 -262.55 0.0 -262.55 L-0.5 -262.9 -0.55 -263.3 Q-0.55 -263.7 0.0 -263.8 0.6 -263.75 0.6 -263.25 M2.35 -152.0 L2.15 -150.0 1.75 -149.8 Q1.2 -150.0 1.1 -150.3 L1.1 -153.9 1.75 -154.05 Q2.6 -154.05 2.35 -152.0 M3.35 -70.65 L2.9 -68.8 2.25 -67.3 Q1.6 -67.6 1.6 -68.05 L2.1 -71.4 2.75 -71.55 Q3.35 -71.55 3.35 -70.65 M1.85 -36.5 L1.75 -36.0 Q1.85 -35.8 1.25 -35.8 1.1 -35.8 0.65 -36.15 L0.6 -36.55 Q0.6 -36.9 1.25 -37.05 1.85 -37.0 1.85 -36.5 M5.75 15.85 Q6.25 16.15 6.35 16.35 L6.35 20.25 5.75 20.6 Q5.1 20.2 5.1 18.25 5.1 16.1 5.75 15.85 M1.35 40.25 L1.35 39.75 2.0 39.6 2.85 42.7 2.75 43.65 2.25 43.85 1.8 42.95 2.1 47.6 1.5 48.1 Q0.1 46.5 0.1 41.6 0.1 38.8 0.75 38.1 L1.35 40.25 M-0.05 -98.0 L-0.05 -95.9 -0.75 -95.55 Q-1.55 -96.65 -1.55 -98.15 L-1.5 -98.75 -1.0 -98.8 Q-0.5 -98.8 -0.05 -98.0 M-3.5 -0.8 Q-2.65 -0.8 -2.8 1.2 L-2.9 3.15 -3.5 3.35 -4.05 2.85 -4.05 -0.65 -3.5 -0.8 M-1.25 20.35 Q-0.4 20.35 -0.55 22.8 L-0.65 25.15 -1.25 25.35 -1.8 24.85 -1.8 20.5 Q-1.85 20.35 -1.25 20.35 M-0.75 45.85 Q0.1 45.85 -0.05 48.5 -0.05 50.9 -0.65 54.4 L-1.25 54.6 Q-1.8 54.05 -1.8 53.4 -1.3 48.65 -1.3 46.0 -1.35 45.85 -0.75 45.85 M-2.75 41.1 Q-3.3 40.85 -3.3 39.5 -3.3 36.9 -2.5 36.35 -1.8 37.05 -1.8 37.5 L-2.05 40.75 -2.75 41.1" fill="#00ffff" fill-opacity="0.5019608" fill-rule="evenodd" stroke="none"/>
  </g>
</svg>
