<?xml version="1.0" encoding="UTF-8" standalone="no"?>
<svg xmlns:ffdec="https://www.free-decompiler.com/flash" xmlns:xlink="http://www.w3.org/1999/xlink" ffdec:objectType="shape" height="181.75px" width="181.75px" xmlns="http://www.w3.org/2000/svg">
  <g transform="matrix(1.0, 0.0, 0.0, 1.0, 77.85, 144.65)">
    <path d="M61.0 -101.7 Q41.1 -121.6 13.1 -121.55 -14.95 -121.6 -34.8 -101.7 -54.65 -81.85 -54.65 -53.8 -54.65 -25.8 -34.8 -5.9 -14.95 13.95 13.1 13.95 41.1 13.95 61.0 -5.9 80.85 -25.8 80.85 -53.8 80.85 -81.85 61.0 -101.7 M77.25 -118.0 Q103.9 -91.4 103.9 -53.8 103.9 -16.2 77.25 10.45 50.6 37.1 13.05 37.1 -24.6 37.1 -51.2 10.45 -77.85 -16.2 -77.85 -53.8 -77.85 -91.4 -51.2 -118.0 -24.6 -144.65 13.05 -144.65 50.6 -144.65 77.25 -118.0" fill="url(#gradient0)" fill-rule="evenodd" stroke="none"/>
  </g>
  <defs>
    <radialGradient cx="0" cy="0" gradientTransform="matrix(0.114, 0.0, 0.0, 0.114, 13.05, -53.8)" gradientUnits="userSpaceOnUse" id="gradient0" r="819.2" spreadMethod="pad">
      <stop offset="0.7372549019607844" stop-color="#00ffff" stop-opacity="0.0"/>
      <stop offset="0.8784313725490196" stop-color="#1cfdfd" stop-opacity="0.68235296"/>
      <stop offset="0.9411764705882353" stop-color="#ffffff"/>
      <stop offset="0.9803921568627451" stop-color="#ffffff" stop-opacity="0.0"/>
    </radialGradient>
  </defs>
</svg>
