<?xml version="1.0" encoding="UTF-8" standalone="no"?>
<svg xmlns:ffdec="https://www.free-decompiler.com/flash" xmlns:xlink="http://www.w3.org/1999/xlink" ffdec:objectType="shape" height="195.75px" width="195.8px" xmlns="http://www.w3.org/2000/svg">
  <g transform="matrix(1.0, 0.0, 0.0, 1.0, 84.85, 151.65)">
    <path d="M70.2 -110.85 Q46.5 -134.55 13.1 -134.5 -20.35 -134.55 -44.0 -110.85 -67.65 -87.2 -67.65 -53.75 -67.65 -20.35 -44.0 3.3 -20.35 26.95 13.1 27.0 46.5 26.95 70.2 3.3 93.85 -20.35 93.85 -53.75 93.85 -87.2 70.2 -110.85 M110.95 -53.8 Q110.9 -13.3 82.25 15.4 53.55 44.1 13.05 44.1 -27.45 44.1 -56.15 15.4 -84.85 -13.3 -84.85 -53.8 -84.85 -94.3 -56.15 -122.95 -27.45 -151.65 13.05 -151.65 53.55 -151.65 82.25 -122.95 110.9 -94.3 110.95 -53.8" fill="url(#gradient0)" fill-rule="evenodd" stroke="none"/>
  </g>
  <defs>
    <radialGradient cx="0" cy="0" gradientTransform="matrix(0.1228, 0.0, 0.0, 0.1228, 13.05, -53.8)" gradientUnits="userSpaceOnUse" id="gradient0" r="819.2" spreadMethod="pad">
      <stop offset="0.8196078431372549" stop-color="#00ffff" stop-opacity="0.0"/>
      <stop offset="0.9176470588235294" stop-color="#1cfdfd" stop-opacity="0.68235296"/>
      <stop offset="0.9607843137254902" stop-color="#ffffff"/>
      <stop offset="0.9803921568627451" stop-color="#ffffff" stop-opacity="0.0"/>
    </radialGradient>
  </defs>
</svg>
