<?xml version="1.0" encoding="UTF-8" standalone="no"?>
<svg xmlns:ffdec="https://www.free-decompiler.com/flash" xmlns:xlink="http://www.w3.org/1999/xlink" ffdec:objectType="shape" height="201.75px" width="201.8px" xmlns="http://www.w3.org/2000/svg">
  <g transform="matrix(1.0, 0.0, 0.0, 1.0, 87.85, 154.65)">
    <path d="M77.75 -118.5 Q50.9 -145.3 13.05 -145.3 -24.85 -145.3 -51.65 -118.5 -78.5 -91.7 -78.5 -53.8 -78.5 -15.95 -51.65 10.9 -24.85 37.7 13.05 37.7 50.9 37.7 77.75 10.9 104.55 -15.95 104.55 -53.8 104.55 -91.7 77.75 -118.5 M84.35 -125.1 Q113.9 -95.55 113.95 -53.8 113.9 -12.05 84.35 17.55 54.8 47.1 13.05 47.1 -28.7 47.1 -58.25 17.55 -87.85 -12.05 -87.85 -53.8 -87.85 -95.55 -58.25 -125.1 -28.7 -154.65 13.05 -154.65 54.8 -154.65 84.35 -125.1" fill="url(#gradient0)" fill-rule="evenodd" stroke="none"/>
  </g>
  <defs>
    <radialGradient cx="0" cy="0" gradientTransform="matrix(0.1266, 0.0, 0.0, 0.1266, 13.05, -53.8)" gradientUnits="userSpaceOnUse" id="gradient0" r="819.2" spreadMethod="pad">
      <stop offset="0.8862745098039215" stop-color="#00ffff" stop-opacity="0.0"/>
      <stop offset="0.9333333333333333" stop-color="#1bfcfc" stop-opacity="0.3529412"/>
      <stop offset="0.9607843137254902" stop-color="#ffffff" stop-opacity="0.8117647"/>
      <stop offset="0.9803921568627451" stop-color="#ffffff" stop-opacity="0.0"/>
    </radialGradient>
  </defs>
</svg>
