<?xml version="1.0" encoding="UTF-8" standalone="no"?>
<svg xmlns:ffdec="https://www.free-decompiler.com/flash" xmlns:xlink="http://www.w3.org/1999/xlink" ffdec:objectType="shape" height="207.75px" width="207.8px" xmlns="http://www.w3.org/2000/svg">
  <g transform="matrix(1.0, 0.0, 0.0, 1.0, 90.85, 157.65)">
    <path d="M82.75 -123.45 Q53.85 -152.3 13.1 -152.3 -27.7 -152.3 -56.55 -123.45 -85.4 -94.6 -85.4 -53.8 -85.4 -13.05 -56.55 15.85 -27.7 44.7 13.1 44.7 53.85 44.7 82.75 15.85 111.6 -13.05 111.6 -53.8 111.6 -94.6 82.75 -123.45 M86.5 -127.2 Q116.95 -96.8 116.95 -53.8 116.95 -10.8 86.5 19.65 56.05 50.1 13.05 50.1 -29.95 50.1 -60.4 19.65 -90.85 -10.8 -90.85 -53.8 -90.85 -96.8 -60.4 -127.2 -29.95 -157.7 13.05 -157.65 56.05 -157.7 86.5 -127.2" fill="url(#gradient0)" fill-rule="evenodd" stroke="none"/>
  </g>
  <defs>
    <radialGradient cx="0" cy="0" gradientTransform="matrix(0.1304, 0.0, 0.0, 0.1304, 13.05, -53.8)" gradientUnits="userSpaceOnUse" id="gradient0" r="819.2" spreadMethod="pad">
      <stop offset="0.9254901960784314" stop-color="#00ffff" stop-opacity="0.0"/>
      <stop offset="0.9490196078431372" stop-color="#1bfcfc" stop-opacity="0.19215687"/>
      <stop offset="0.9607843137254902" stop-color="#ffffff" stop-opacity="0.24313726"/>
      <stop offset="0.9803921568627451" stop-color="#ffffff" stop-opacity="0.0"/>
    </radialGradient>
  </defs>
</svg>
