<?xml version="1.0" encoding="UTF-8" standalone="no"?>
<svg xmlns:ffdec="https://www.free-decompiler.com/flash" xmlns:xlink="http://www.w3.org/1999/xlink" ffdec:objectType="shape" height="23.95px" width="37.65px" xmlns="http://www.w3.org/2000/svg">
  <g transform="matrix(1.0, 0.0, 0.0, 1.0, 18.8, 11.95)">
    <path d="M14.95 -7.2 Q16.65 -2.2 13.8 3.4 0.35 9.1 -13.35 11.2 -16.0 9.7 -16.6 7.35 L-14.25 6.95 -13.55 7.8 Q-11.95 9.4 -9.7 9.4 -7.45 9.4 -5.9 7.8 -4.5 6.45 -4.3 4.5 7.7 0.6 14.95 -7.2" fill="#ffffff" fill-rule="evenodd" stroke="none"/>
    <path d="M-4.3 4.5 Q-4.5 6.45 -5.9 7.8 -7.45 9.4 -9.7 9.4 -11.95 9.4 -13.55 7.8 L-14.25 6.95 Q-8.95 6.0 -4.3 4.5" fill="#000000" fill-rule="evenodd" stroke="none"/>
    <path d="M13.8 3.4 L15.55 2.65 M14.95 -7.2 Q16.65 -2.2 13.8 3.4 0.35 9.1 -13.35 11.2 L-15.35 11.5 M-14.25 6.95 L-16.6 7.35 Q-16.0 9.7 -13.35 11.2 M-14.25 6.95 Q-8.95 6.0 -4.3 4.5 7.7 0.6 14.95 -7.2 L18.35 -11.45 M-16.6 7.35 L-18.3 7.55" fill="none" stroke="#000000" stroke-linecap="round" stroke-linejoin="round" stroke-width="1.0"/>
  </g>
</svg>
