<?xml version="1.0" encoding="UTF-8" standalone="no"?>
<svg xmlns:ffdec="https://www.free-decompiler.com/flash" xmlns:xlink="http://www.w3.org/1999/xlink" ffdec:objectType="shape" height="28.7px" width="72.35px" xmlns="http://www.w3.org/2000/svg">
  <g transform="matrix(1.0, 0.0, 0.0, 1.0, 74.9, -6.7)">
    <path d="M-26.25 20.35 Q-19.7 14.95 -15.65 12.8 -10.35 9.95 -5.7 10.0 -3.55 14.0 -3.55 18.85 -3.55 25.55 -7.6 30.5 -14.35 33.2 -32.75 34.75 L-35.85 32.2 Q-37.7 30.3 -38.9 28.2 -37.6 28.4 -35.9 27.6 L-33.8 26.3 -33.25 26.95 Q-31.85 28.35 -29.85 28.35 -27.85 28.35 -26.45 26.95 -25.05 25.55 -25.05 23.55 -25.05 21.7 -26.25 20.35 M-69.65 7.5 Q-67.6 8.0 -65.35 9.65 -61.95 12.15 -56.6 18.45 -50.8 25.3 -49.2 26.65 L-46.9 28.05 Q-47.8 31.25 -49.65 33.7 -65.6 29.55 -70.25 25.6 -71.5 21.65 -71.5 17.1 -71.5 11.6 -69.65 7.5 M-61.75 15.05 Q-63.15 13.65 -65.15 13.65 -67.15 13.65 -68.55 15.05 -69.95 16.45 -69.95 18.45 -69.95 20.45 -68.55 21.85 -67.15 23.25 -65.15 23.25 -63.15 23.25 -61.75 21.85 -60.35 20.45 -60.35 18.45 -60.35 16.45 -61.75 15.05" fill="#ffffff" fill-rule="evenodd" stroke="none"/>
    <path d="M-33.8 26.3 L-26.9 20.9 -26.25 20.35 Q-25.05 21.7 -25.05 23.55 -25.05 25.55 -26.45 26.95 -27.85 28.35 -29.85 28.35 -31.85 28.35 -33.25 26.95 L-33.8 26.3 M-61.75 15.05 Q-60.35 16.45 -60.35 18.45 -60.35 20.45 -61.75 21.85 -63.15 23.25 -65.15 23.25 -67.15 23.25 -68.55 21.85 -69.95 20.45 -69.95 18.45 -69.95 16.45 -68.55 15.05 -67.15 13.65 -65.15 13.65 -63.15 13.65 -61.75 15.05" fill="#000000" fill-rule="evenodd" stroke="none"/>
    <path d="M-5.7 10.0 L-3.05 10.3 M-26.25 20.35 Q-19.7 14.95 -15.65 12.8 -10.35 9.95 -5.7 10.0 -3.55 14.0 -3.55 18.85 -3.55 25.55 -7.6 30.5 L-5.1 29.2 M-26.25 20.35 L-26.9 20.9 -33.8 26.3 -35.9 27.6 Q-37.6 28.4 -38.9 28.2 -40.75 27.95 -41.85 25.75 M-32.75 34.75 L-34.8 34.9 M-32.75 34.75 L-35.85 32.2 Q-37.7 30.3 -38.9 28.2 M-7.6 30.5 Q-14.35 33.2 -32.75 34.75 M-69.65 7.5 Q-71.5 11.6 -71.5 17.1 -71.5 21.65 -70.25 25.6 -65.6 29.55 -49.65 33.7 -47.8 31.25 -46.9 28.05 L-49.2 26.65 Q-50.8 25.3 -56.6 18.45 -61.95 12.15 -65.35 9.65 -67.6 8.0 -69.65 7.5 -72.2 6.8 -74.4 7.8 M-70.25 25.6 L-70.95 24.95 M-49.65 33.7 L-48.7 33.95 M-46.9 28.05 Q-45.2 28.55 -44.25 26.85" fill="none" stroke="#000000" stroke-linecap="round" stroke-linejoin="round" stroke-width="1.0"/>
  </g>
</svg>
