<?xml version="1.0" encoding="UTF-8" standalone="no"?>
<svg xmlns:ffdec="https://www.free-decompiler.com/flash" xmlns:xlink="http://www.w3.org/1999/xlink" ffdec:objectType="shape" height="17.95px" width="77.6px" xmlns="http://www.w3.org/2000/svg">
  <g transform="matrix(1.0, 0.0, 0.0, 1.0, 1.85, -15.4)">
    <path d="M75.25 16.25 L75.25 16.65 Q75.25 23.8 72.05 29.15 L48.15 28.4 Q46.6 25.55 45.95 22.3 L50.3 22.05 50.25 22.4 Q50.25 24.45 51.65 25.85 53.1 27.3 55.15 27.3 57.2 27.3 58.6 25.85 60.05 24.45 60.05 22.4 L59.8 20.8 Q68.0 19.25 75.25 16.25 M33.15 22.05 L36.9 22.25 Q35.95 26.0 33.65 29.1 19.9 30.2 5.95 32.85 L4.3 31.3 Q-1.35 25.4 -1.35 17.05 L-1.35 15.9 Q12.0 19.55 24.05 21.15 23.5 22.15 23.5 23.4 23.5 25.45 24.9 26.85 26.35 28.3 28.4 28.3 30.45 28.3 31.85 26.85 33.3 25.45 33.3 23.4 L33.15 22.05" fill="#ffffff" fill-rule="evenodd" stroke="none"/>
    <path d="M59.8 20.8 L60.05 22.4 Q60.05 24.45 58.6 25.85 57.2 27.3 55.15 27.3 53.1 27.3 51.65 25.85 50.25 24.45 50.25 22.4 L50.3 22.05 59.8 20.8 M24.05 21.15 L33.15 22.05 33.3 23.4 Q33.3 25.45 31.85 26.85 30.45 28.3 28.4 28.3 26.35 28.3 24.9 26.85 23.5 25.45 23.5 23.4 23.5 22.15 24.05 21.15" fill="#000000" fill-rule="evenodd" stroke="none"/>
    <path d="M72.05 29.15 Q75.25 23.8 75.25 16.65 L75.25 16.25 M45.95 22.3 Q46.6 25.55 48.15 28.4 M36.9 22.25 Q35.95 26.0 33.65 29.1 M5.95 32.85 L4.3 31.3 Q-1.35 25.4 -1.35 17.05 L-1.35 15.9" fill="none" stroke="#000000" stroke-linecap="round" stroke-linejoin="round" stroke-width="1.0"/>
    <path d="M75.25 16.25 Q68.0 19.25 59.8 20.8 L50.3 22.05 45.95 22.3 M48.15 28.4 L72.05 29.15 M24.05 21.15 L33.15 22.05 36.9 22.25 M33.65 29.1 Q19.9 30.2 5.95 32.85 M-1.35 15.9 Q12.0 19.55 24.05 21.15" fill="none" stroke="#000000" stroke-linecap="round" stroke-linejoin="round" stroke-width="1.0"/>
  </g>
</svg>
