<?xml version="1.0" encoding="UTF-8" standalone="no"?>
<svg xmlns:ffdec="https://www.free-decompiler.com/flash" xmlns:xlink="http://www.w3.org/1999/xlink" ffdec:objectType="shape" height="51.95px" width="74.85px" xmlns="http://www.w3.org/2000/svg">
  <g transform="matrix(1.0, 0.0, 0.0, 1.0, 28.55, 24.7)">
    <path d="M8.8 -13.2 L9.85 -10.85 8.85 -9.75 8.0 -11.8 8.05 -11.8 8.8 -13.2" fill="#4a4b64" fill-rule="evenodd" stroke="none"/>
    <path d="M-22.7 -13.05 L8.8 -13.2 8.05 -11.8 -7.9 -11.85 -7.95 -11.85 -24.65 -11.9 -22.7 -13.05 M9.85 -10.85 L36.55 -10.7 37.25 -9.7 8.85 -9.75 9.85 -10.85 M39.85 -14.9 L46.25 -14.65 46.25 -13.75 45.05 -13.75 40.35 -13.8 39.85 -14.9" fill="#1a1a22" fill-rule="evenodd" stroke="none"/>
    <path d="M44.9 -20.75 L37.4 -20.85 44.25 -22.2 44.9 -20.75 M-2.3 -14.55 L-10.3 -14.45 -10.4 -15.95 -2.2 -16.0 -2.3 -14.55 M10.6 -5.55 Q5.2 -0.15 7.6 5.3 L6.25 6.7 Q2.2 7.9 -9.0 8.0 -10.25 7.95 -12.15 10.6 -10.5 1.0 -7.5 -5.75 L10.6 -5.55 M-0.75 -4.15 L-2.65 -3.9 Q-8.25 -2.65 -8.95 0.7 -9.85 5.65 -2.4 6.4 4.45 5.05 5.7 0.2 6.0 -3.55 -0.75 -4.15" fill="#262633" fill-rule="evenodd" stroke="none"/>
    <path d="M5.95 -19.8 L5.95 -20.95 37.4 -20.85 44.9 -20.75 46.3 -20.75 46.3 -19.8 5.95 -19.8 M-2.1 -19.6 Q-9.95 -19.9 -18.0 -19.55 L-18.8 -20.9 -16.8 -21.05 -11.8 -20.95 -2.05 -20.9 -2.1 -19.6" fill="#8283a2" fill-rule="evenodd" stroke="none"/>
    <path d="M36.8 -8.0 L45.0 -7.85 45.0 -6.7 36.65 -6.6 Q36.65 -7.45 36.8 -8.0" fill="#101014" fill-rule="evenodd" stroke="none"/>
    <path d="M36.55 -10.7 Q37.3 -13.25 39.85 -14.9 L40.35 -13.8 40.3 -13.8 Q38.75 -12.75 38.05 -11.5 37.3 -10.3 37.25 -9.7 L36.55 -10.7" fill="#0d0d11" fill-rule="evenodd" stroke="none"/>
    <path d="M4.95 -20.15 L4.9 -16.75 Q4.6 -15.9 3.5 -15.6 L-1.05 -15.65 -0.95 -20.15 4.95 -20.15 M8.2 -8.8 L8.85 -9.75 37.25 -9.7 35.75 -8.75 8.2 -8.8 M8.0 -11.8 L7.3 -10.85 -6.65 -10.9 -7.9 -11.85 8.05 -11.8 8.0 -11.8 M-24.0 -11.0 L-24.65 -11.9 -7.95 -11.85 -9.05 -10.95 -24.0 -11.0 M-16.3 -2.7 L-16.35 -3.15 Q-16.45 -3.65 -16.05 -4.0 L-16.0 -4.05 -15.75 -3.4 -15.0 -3.45 Q-14.55 -4.1 -15.0 -4.4 -14.55 -4.4 -14.1 -3.95 L-13.85 -3.6 -13.85 -3.55 -14.4 -3.0 Q-15.35 -2.35 -16.3 -2.7 M-21.25 19.45 Q-21.25 19.0 -20.9 18.7 -21.1 19.45 -20.15 19.5 L-19.8 19.3 Q-19.3 18.4 -20.1 18.1 L-19.8 18.1 Q-19.35 18.1 -18.85 18.6 L-18.8 18.7 -18.8 18.75 -19.2 19.65 -20.2 20.0 -20.6 19.95 -21.1 19.95 -21.25 19.45" fill="#dbdbdf" fill-rule="evenodd" stroke="none"/>
    <path d="M35.75 -8.75 L37.25 -9.7 36.8 -8.0 Q36.65 -7.45 36.65 -6.6 L36.55 -5.55 35.45 -6.65 Q35.4 -7.6 35.75 -8.75 M-8.9 -8.8 L-9.05 -10.95 -7.95 -11.85 -7.5 -5.75 Q-7.7 -7.55 -8.9 -8.8" fill="#91919d" fill-rule="evenodd" stroke="none"/>
    <path d="M36.55 -5.55 L10.6 -5.55 -7.5 -5.75 -6.5 -6.75 35.45 -6.65 36.55 -5.55 M-23.3 -9.95 Q-14.15 -11.35 -8.9 -8.8 -7.7 -7.55 -7.5 -5.75 -8.25 -8.0 -11.65 -8.9 L-13.55 -9.35 -19.3 -9.55 -23.7 -8.75 -23.3 -9.95" fill="#555560" fill-rule="evenodd" stroke="none"/>
    <path d="M-18.0 -19.55 Q-20.4 -17.25 -22.7 -13.05 L-24.65 -11.9 -24.3 -12.95 Q-22.65 -17.1 -18.8 -20.9 L-18.0 -19.55" fill="#595975" fill-rule="evenodd" stroke="none"/>
    <path d="M-7.9 -11.85 L-6.65 -10.9 -6.7 -10.9 -6.5 -6.75 -7.5 -5.75 -7.95 -11.85 -7.9 -11.85 M-25.3 -9.75 L-24.65 -11.9 -24.0 -11.0 -24.15 -10.25 -25.3 -9.75 M-24.2 20.7 Q-22.25 20.25 -21.25 19.45 L-21.1 19.95 -20.85 20.3 Q-21.9 21.6 -24.8 21.7 L-28.1 21.2 -24.2 20.7" fill="#c5c5cb" fill-rule="evenodd" stroke="none"/>
    <path d="M-23.7 -8.75 L-25.3 -9.75 -24.15 -10.25 -23.3 -9.95 -23.7 -8.75" fill="#7d7d8c" fill-rule="evenodd" stroke="none"/>
    <path d="M-23.65 25.8 L-25.5 25.1 -25.15 23.6 -23.45 24.2 -23.65 25.8 M-28.1 21.2 Q-27.35 12.5 -20.85 -5.7 -21.6 -7.25 -23.7 -8.75 L-19.3 -9.55 Q-18.0 -7.35 -17.95 -5.15 -22.85 9.3 -24.2 20.7 L-28.1 21.2" fill="#414256" fill-rule="evenodd" stroke="none"/>
    <path d="M-16.05 27.25 Q-19.6 27.3 -23.65 25.8 L-23.45 24.2 Q-19.95 25.45 -16.8 25.65 L-16.0 25.65 -16.05 27.25 M-19.3 -9.55 L-13.55 -9.35 -11.65 -8.9 Q-10.6 -7.55 -10.65 -6.4 -15.85 8.1 -17.05 22.6 -18.2 21.55 -18.6 20.05 L-18.45 19.45 -18.6 18.95 -18.6 18.9 -18.75 18.7 -18.85 18.6 Q-19.35 18.1 -19.8 18.1 L-20.1 18.1 Q-20.5 18.15 -20.75 18.5 L-20.9 18.7 Q-21.25 19.0 -21.25 19.45 -22.25 20.25 -24.2 20.7 -22.85 9.3 -17.95 -5.15 -18.0 -7.35 -19.3 -9.55 M-16.0 -4.05 L-16.05 -4.0 Q-16.45 -3.65 -16.35 -3.15 L-16.3 -2.7 -16.25 -2.5 -15.95 -2.15 Q-15.7 -1.8 -15.2 -1.8 L-14.4 -2.0 -14.2 -2.1 Q-13.8 -2.6 -13.75 -3.1 L-13.75 -3.3 -13.8 -3.5 -13.85 -3.55 -13.85 -3.6 -14.1 -3.95 Q-14.55 -4.4 -15.0 -4.4 L-15.2 -4.4 Q-15.7 -4.45 -16.0 -4.05" fill="#333345" fill-rule="evenodd" stroke="none"/>
    <path d="M-2.25 -14.55 L-2.3 -14.55 -2.2 -16.0 -2.1 -19.6 -2.05 -20.9 -0.95 -20.15 -1.05 -15.65 -2.25 -14.55" fill="#b5b7bd" fill-rule="evenodd" stroke="none"/>
    <path d="M5.95 -20.95 L5.95 -19.8 5.95 -16.7 4.9 -16.75 4.95 -20.15 5.95 -20.95 M-16.0 -4.05 Q-15.7 -4.45 -15.2 -4.4 L-15.0 -4.4 Q-14.55 -4.1 -15.0 -3.45 L-15.75 -3.4 -16.0 -4.05 M-20.9 18.7 L-20.75 18.5 Q-20.5 18.15 -20.1 18.1 -19.3 18.4 -19.8 19.3 L-20.15 19.5 Q-21.1 19.45 -20.9 18.7" fill="#ffffff" fill-rule="evenodd" stroke="none"/>
    <path d="M4.9 -16.75 L5.95 -16.7 Q5.85 -15.0 3.85 -14.55 L3.5 -15.6 Q4.6 -15.9 4.9 -16.75" fill="#ebeced" fill-rule="evenodd" stroke="none"/>
    <path d="M3.5 -15.6 L3.85 -14.55 3.8 -14.55 -2.25 -14.55 -1.05 -15.65 3.5 -15.6" fill="#cbccd1" fill-rule="evenodd" stroke="none"/>
    <path d="M-16.8 -21.05 Q-17.0 -23.8 -15.45 -24.7 -15.0 -22.35 -13.9 -22.0 L-11.8 -20.95 -16.8 -21.05 M-18.6 20.05 Q-18.2 21.55 -17.05 22.6 L-16.6 22.95 -16.8 25.65 Q-19.95 25.45 -23.45 24.2 L-25.15 23.6 -24.8 21.7 Q-21.9 21.6 -20.85 20.3 L-20.75 20.45 Q-20.4 20.8 -19.9 20.8 -19.4 20.75 -18.85 20.4 L-18.6 20.05 M-7.9 -11.85 L-7.95 -11.85 -7.9 -11.85 M-2.65 -3.9 L-0.75 -4.15 Q-3.35 0.9 0.15 2.9 -4.05 2.25 -2.65 -3.9" fill="#a5a4ae" fill-rule="evenodd" stroke="none"/>
    <path d="M-13.85 -3.55 L-13.8 -3.5 -13.75 -3.3 -13.75 -3.1 Q-13.8 -2.6 -14.2 -2.1 L-14.4 -2.0 -15.2 -1.8 Q-15.7 -1.8 -15.95 -2.15 L-16.25 -2.5 -16.3 -2.7 Q-15.35 -2.35 -14.4 -3.0 L-13.85 -3.55 M-18.85 18.6 L-18.75 18.7 -18.6 18.9 -18.6 18.95 -18.45 19.45 -18.6 20.05 -18.85 20.4 Q-19.4 20.75 -19.9 20.8 -20.4 20.8 -20.75 20.45 L-20.85 20.3 -21.1 19.95 -20.6 19.95 -20.2 20.0 -19.2 19.65 -18.8 18.75 -18.8 18.7 -18.85 18.6" fill="#666666" fill-rule="evenodd" stroke="none"/>
    <path d="M-12.15 10.6 Q-13.2 16.65 -13.55 24.15 -15.35 23.8 -16.6 22.95 L-17.05 22.6 Q-15.85 8.1 -10.65 -6.4 -10.6 -7.55 -11.65 -8.9 -8.25 -8.0 -7.5 -5.75 -10.5 1.0 -12.15 10.6 M-13.75 25.4 L-12.15 25.35 -12.15 26.7 -16.05 27.25 -16.0 25.65 -13.75 25.4" fill="#242431" fill-rule="evenodd" stroke="none"/>
    <path d="M8.85 -9.75 L8.2 -8.8 7.3 -10.85 8.0 -11.8 8.85 -9.75" fill="#c8c9ce" fill-rule="evenodd" stroke="none"/>
    <path d="M-13.55 24.15 L-13.75 25.4 -16.0 25.65 -16.8 25.65 -16.6 22.95 Q-15.35 23.8 -13.55 24.15" fill="#9898a3" fill-rule="evenodd" stroke="none"/>
    <path d="M-25.5 25.1 L-28.55 23.65 -28.2 22.1 -28.1 21.2 -24.8 21.7 -25.15 23.6 -25.5 25.1" fill="#b8b8c0" fill-rule="evenodd" stroke="none"/>
    <path d="M5.95 -16.7 L5.95 -19.8 46.3 -19.8 46.25 -14.65 39.85 -14.9 Q37.3 -13.25 36.55 -10.7 L9.85 -10.85 8.8 -13.2 -22.7 -13.05 Q-20.4 -17.25 -18.0 -19.55 -9.95 -19.9 -2.1 -19.6 L-2.2 -16.0 -10.4 -15.95 -10.3 -14.45 -2.3 -14.55 -2.25 -14.55 3.8 -14.55 3.85 -14.55 Q5.85 -15.0 5.95 -16.7" fill="url(#gradient0)" fill-rule="evenodd" stroke="none"/>
    <path d="M7.3 -10.85 L8.2 -8.8 35.75 -8.75 Q35.4 -7.6 35.45 -6.65 L-6.5 -6.75 -6.7 -10.9 -6.65 -10.9 7.3 -10.85" fill="url(#gradient1)" fill-rule="evenodd" stroke="none"/>
    <path d="M37.25 -9.7 Q37.3 -10.3 38.05 -11.5 38.75 -12.75 40.3 -13.8 L40.35 -13.8 45.05 -13.75 45.0 -7.85 36.8 -8.0 37.25 -9.7" fill="url(#gradient2)" fill-rule="evenodd" stroke="none"/>
    <path d="M-24.15 -10.25 L-24.0 -11.0 -9.05 -10.95 -8.9 -8.8 Q-14.15 -11.35 -23.3 -9.95 L-24.15 -10.25" fill="url(#gradient3)" fill-rule="evenodd" stroke="none"/>
    <path d="M5.95 -19.8 L5.95 -20.95 4.95 -20.15 -0.95 -20.15 -2.05 -20.9 -11.8 -20.95 -13.9 -22.0 Q-15.0 -22.35 -15.45 -24.7 -17.0 -23.8 -16.8 -21.05 L-11.8 -20.95 M5.95 -16.7 L5.95 -19.8 M46.3 -19.8 L46.3 -20.75 44.9 -20.75 37.4 -20.85 5.95 -20.95 M3.85 -14.55 Q5.85 -15.0 5.95 -16.7 M3.8 -14.55 L-2.25 -14.55 M-2.2 -16.0 L-2.1 -19.6 -2.05 -20.9 M46.25 -14.65 L46.3 -19.8 M8.85 -9.75 L8.0 -11.8 8.05 -11.8 -7.9 -11.85 -7.95 -11.85 -24.65 -11.9 -24.3 -12.95 Q-22.65 -17.1 -18.8 -20.9 L-16.8 -21.05 M37.25 -9.7 L8.85 -9.75 M40.35 -13.8 L40.3 -13.8 Q38.75 -12.75 38.05 -11.5 37.3 -10.3 37.25 -9.7 L36.8 -8.0 Q36.65 -7.45 36.65 -6.6 L45.0 -6.7 45.0 -7.85 45.05 -13.75 40.35 -13.8 M36.65 -6.6 L36.55 -5.55 10.6 -5.55 Q5.2 -0.15 7.6 5.3 L6.25 6.7 Q2.2 7.9 -9.0 8.0 -10.25 7.95 -12.15 10.6 -13.2 16.65 -13.55 24.15 L-13.75 25.4 -12.15 25.35 -12.15 26.7 -16.05 27.25 Q-19.6 27.3 -23.65 25.8 L-25.5 25.1 -28.55 23.65 -28.2 22.1 -28.1 21.2 Q-27.35 12.5 -20.85 -5.7 -21.6 -7.25 -23.7 -8.75 L-25.3 -9.75 -24.65 -11.9 M-7.5 -5.75 L10.6 -5.55 M37.4 -20.85 L44.25 -22.2 44.9 -20.75 M46.25 -14.65 L46.25 -13.75 45.05 -13.75 M-23.7 -8.75 L-19.3 -9.55 -13.55 -9.35 -11.65 -8.9 Q-8.25 -8.0 -7.5 -5.75 -10.5 1.0 -12.15 10.6 M-2.3 -14.55 L-2.2 -16.0 M-0.75 -4.15 L-2.65 -3.9 Q-4.05 2.25 0.15 2.9 -3.35 0.9 -0.75 -4.15 6.0 -3.55 5.7 0.2 4.45 5.05 -2.4 6.4 -9.85 5.65 -8.95 0.7 -8.25 -2.65 -2.65 -3.9 M-25.15 23.6 L-23.45 24.2 Q-19.95 25.45 -16.8 25.65 L-16.0 25.65 -13.75 25.4 M-25.15 23.6 L-25.5 25.1" fill="none" stroke="#000000" stroke-linecap="round" stroke-linejoin="round" stroke-opacity="0.6" stroke-width="0.05"/>
  </g>
  <defs>
    <linearGradient gradientTransform="matrix(-0.0244, -0.0217, 0.0068, -0.0076, 10.3, -13.65)" gradientUnits="userSpaceOnUse" id="gradient0" spreadMethod="pad" x1="-819.2" x2="819.2">
      <stop offset="0.0" stop-color="#333345"/>
      <stop offset="0.11372549019607843" stop-color="#5a5b73"/>
      <stop offset="0.16470588235294117" stop-color="#8283a2"/>
      <stop offset="0.2823529411764706" stop-color="#585971"/>
      <stop offset="0.5294117647058824" stop-color="#333345"/>
      <stop offset="0.7372549019607844" stop-color="#5b5b74"/>
      <stop offset="0.8117647058823529" stop-color="#7d7e9c"/>
      <stop offset="1.0" stop-color="#333345"/>
    </linearGradient>
    <linearGradient gradientTransform="matrix(0.0177, 0.0076, -0.0036, 0.0083, 11.9, -6.8)" gradientUnits="userSpaceOnUse" id="gradient1" spreadMethod="pad" x1="-819.2" x2="819.2">
      <stop offset="0.0" stop-color="#a5a4ae"/>
      <stop offset="0.19607843137254902" stop-color="#dbdbdf"/>
      <stop offset="1.0" stop-color="#a5a4ae"/>
    </linearGradient>
    <linearGradient gradientTransform="matrix(0.0049, 1.0E-4, 0.0, 0.0036, 31.3, -10.85)" gradientUnits="userSpaceOnUse" id="gradient2" spreadMethod="pad" x1="-819.2" x2="819.2">
      <stop offset="0.0" stop-color="#3a3c49"/>
      <stop offset="1.0" stop-color="#262633"/>
    </linearGradient>
    <linearGradient gradientTransform="matrix(0.0072, 0.0021, -8.0E-4, 0.0029, -15.85, -10.35)" gradientUnits="userSpaceOnUse" id="gradient3" spreadMethod="pad" x1="-819.2" x2="819.2">
      <stop offset="0.0" stop-color="#a5a4ae"/>
      <stop offset="0.19607843137254902" stop-color="#dbdbdf"/>
      <stop offset="1.0" stop-color="#a5a4ae"/>
    </linearGradient>
  </defs>
</svg>
