<?xml version="1.0" encoding="UTF-8" standalone="no"?>
<svg xmlns:ffdec="https://www.free-decompiler.com/flash" xmlns:xlink="http://www.w3.org/1999/xlink" ffdec:objectType="shape" height="184.0px" width="125.35px" xmlns="http://www.w3.org/2000/svg">
  <g transform="matrix(1.0, 0.0, 0.0, 1.0, 64.9, 139.15)">
    <path d="M5.6 -79.45 Q8.05 -75.9 12.8 -77.25 17.9 -78.7 20.5 -84.9 23.65 -92.4 21.45 -103.9 34.85 -95.3 33.1 -75.25 32.75 -71.5 30.55 -58.6 28.8 -48.5 29.1 -43.2 29.35 -38.9 33.45 -36.25 37.35 -33.75 41.75 -34.5 46.6 -35.35 48.65 -39.85 51.15 -45.2 48.75 -54.3 57.05 -47.0 59.5 -35.75 61.7 -25.55 58.9 -13.45 56.2 -2.1 49.75 8.45 43.35 18.9 35.0 25.75 37.35 28.7 39.7 30.1 42.55 31.8 46.05 31.8 39.1 39.95 25.6 42.8 16.85 44.65 -0.6 44.85 -24.2 43.3 -34.9 40.4 -54.0 35.25 -59.7 22.7 -54.1 25.0 -49.15 23.8 -44.05 22.5 -41.8 17.9 -53.15 10.65 -59.25 -2.25 -64.9 -14.2 -64.9 -28.35 -64.9 -42.2 -59.55 -54.1 -53.9 -66.5 -43.9 -73.2 -46.05 -67.15 -44.5 -62.7 -43.1 -58.7 -39.65 -57.75 -36.2 -56.8 -33.3 -59.65 -30.0 -62.9 -29.25 -69.65 -28.55 -76.0 -29.2 -84.15 L-30.0 -95.65 Q-29.95 -101.2 -27.75 -104.6 -25.1 -108.65 -18.55 -111.4 -20.95 -105.8 -17.9 -104.55 -15.15 -103.35 -10.9 -106.2 -6.35 -109.2 -5.3 -113.75 -3.95 -119.35 -8.9 -124.65 6.0 -122.7 9.8 -114.75 13.85 -106.35 6.1 -90.0 2.95 -83.35 5.6 -79.45 M-11.55 -128.3 Q-11.75 -129.85 -13.95 -134.0 -15.2 -136.4 -13.05 -139.15 -10.35 -136.9 -10.1 -134.1 -9.85 -131.55 -11.55 -128.3" fill="#ffffff" fill-rule="evenodd" stroke="none"/>
  </g>
</svg>
