<?xml version="1.0" encoding="UTF-8" standalone="no"?>
<svg xmlns:ffdec="https://www.free-decompiler.com/flash" xmlns:xlink="http://www.w3.org/1999/xlink" ffdec:objectType="shape" height="186.0px" width="128.9px" xmlns="http://www.w3.org/2000/svg">
  <g transform="matrix(1.0, 0.0, 0.0, 1.0, 68.6, 141.15)">
    <path d="M2.1 -99.8 Q-0.05 -92.8 2.3 -88.05 4.4 -83.8 8.2 -84.3 12.2 -84.8 14.1 -90.55 16.35 -97.4 14.15 -108.95 25.9 -103.7 25.95 -83.45 25.95 -79.6 25.0 -65.7 24.25 -54.55 24.85 -48.55 25.25 -44.25 30.0 -41.95 34.6 -39.7 39.35 -41.05 44.65 -42.5 46.3 -47.75 48.3 -54.0 44.3 -63.95 52.7 -56.55 56.6 -46.15 60.25 -36.4 59.4 -25.45 58.55 -14.8 53.65 -5.2 48.65 4.65 40.45 11.35 44.85 14.75 50.2 16.35 L60.3 16.7 Q53.9 26.85 33.25 36.0 13.55 44.7 -0.6 44.85 -8.95 44.3 -19.6 41.15 -31.05 37.8 -41.0 32.65 -65.75 19.85 -68.6 3.75 -63.9 7.5 -57.35 8.1 -50.75 8.65 -47.2 5.4 -56.45 -5.5 -60.55 -19.2 -64.4 -32.0 -63.15 -44.9 -61.9 -57.55 -56.05 -67.2 -49.95 -77.25 -40.3 -81.7 -43.0 -76.15 -41.45 -71.85 -40.1 -68.0 -36.35 -66.95 -32.55 -65.95 -29.35 -68.7 -25.7 -71.8 -24.95 -78.55 -24.2 -85.25 -25.05 -92.45 L-26.5 -102.75 Q-27.05 -107.65 -25.7 -110.7 -24.05 -114.45 -18.95 -117.65 -21.2 -111.45 -18.75 -110.1 -16.5 -108.85 -12.8 -111.9 -8.95 -115.1 -7.8 -119.8 -6.5 -125.5 -10.4 -130.55 0.1 -130.7 3.25 -121.3 6.1 -112.8 2.1 -99.8 M-12.8 -141.15 Q-10.9 -139.5 -10.75 -137.45 -10.55 -135.6 -11.75 -133.25 -11.9 -134.35 -13.45 -137.4 -14.3 -139.15 -12.8 -141.15" fill="#ffffff" fill-rule="evenodd" stroke="none"/>
  </g>
</svg>
