<?xml version="1.0" encoding="UTF-8" standalone="no"?>
<svg xmlns:ffdec="https://www.free-decompiler.com/flash" xmlns:xlink="http://www.w3.org/1999/xlink" ffdec:objectType="shape" height="180.9px" width="132.35px" xmlns="http://www.w3.org/2000/svg">
  <g transform="matrix(1.0, 0.0, 0.0, 1.0, 68.85, 136.05)">
    <path d="M5.1 -114.15 Q17.05 -109.75 19.05 -90.35 19.75 -83.65 19.3 -74.1 L18.4 -60.0 Q18.05 -53.25 23.5 -48.9 28.6 -44.85 34.6 -45.6 41.0 -46.4 43.05 -52.4 45.45 -59.55 40.2 -71.65 52.1 -60.65 53.95 -50.25 55.3 -42.45 50.95 -33.05 45.25 -22.9 43.2 -18.0 39.7 -9.7 42.75 -3.2 45.45 2.55 52.0 1.55 58.95 0.45 63.5 -8.1 60.75 12.85 42.55 26.7 26.45 38.9 -0.6 44.85 -31.0 39.3 -50.45 21.8 -68.8 5.25 -68.85 -13.5 -63.8 -4.25 -55.25 -6.6 -51.9 -7.5 -49.3 -10.0 -46.75 -12.4 -46.2 -14.95 -45.5 -18.25 -49.1 -27.7 -53.7 -39.8 -54.85 -46.0 -59.65 -71.95 -34.0 -90.7 -37.25 -82.8 -35.85 -77.95 -34.6 -73.7 -30.4 -73.25 -26.35 -72.8 -22.1 -76.2 -17.5 -79.95 -15.4 -86.5 -13.75 -91.55 -15.0 -97.4 -15.65 -100.3 -18.3 -107.05 -20.55 -112.7 -20.65 -115.7 -20.85 -120.15 -17.5 -123.55 -18.55 -119.5 -16.3 -118.5 -14.15 -117.5 -11.5 -119.65 -8.65 -122.0 -8.4 -125.9 -8.1 -130.7 -12.15 -136.05 -4.05 -136.5 -0.95 -126.35 2.4 -115.7 -3.1 -101.85 -4.3 -98.85 -2.1 -97.5 -0.05 -96.25 2.7 -97.55 5.75 -99.05 6.65 -102.8 7.8 -107.45 5.1 -114.15" fill="#ffffff" fill-rule="evenodd" stroke="none"/>
  </g>
</svg>
