<?xml version="1.0" encoding="UTF-8" standalone="no"?>
<svg xmlns:ffdec="https://www.free-decompiler.com/flash" xmlns:xlink="http://www.w3.org/1999/xlink" ffdec:objectType="shape" height="181.25px" width="127.3px" xmlns="http://www.w3.org/2000/svg">
  <g transform="matrix(1.0, 0.0, 0.0, 1.0, 66.05, 136.4)">
    <path d="M18.75 -55.45 Q22.4 -52.6 27.25 -53.45 32.7 -54.35 35.5 -59.65 38.9 -66.1 37.15 -77.35 45.75 -68.5 46.85 -60.85 47.65 -55.3 44.25 -48.05 39.15 -37.15 38.7 -35.65 36.5 -28.05 39.6 -20.3 40.7 -17.55 43.5 -15.95 46.35 -14.4 49.6 -14.75 57.7 -15.55 60.95 -25.65 63.55 -0.8 44.05 19.85 26.0 39.0 -0.6 44.85 -17.6 42.05 -32.25 33.55 -46.25 25.45 -55.15 13.95 -64.15 2.35 -65.7 -9.85 -67.4 -22.85 -60.3 -33.8 -60.1 -26.75 -56.95 -23.35 -54.15 -20.25 -50.2 -21.1 -46.25 -22.0 -43.5 -26.2 -40.45 -30.9 -40.4 -37.65 -40.3 -47.1 -42.1 -57.95 -43.95 -69.25 -44.0 -71.9 -44.1 -78.3 -40.6 -83.45 -36.65 -89.25 -26.4 -96.5 -29.55 -87.15 -27.65 -83.55 -26.0 -80.35 -21.7 -82.95 -17.35 -85.65 -14.35 -92.05 -11.05 -98.95 -11.3 -106.9 L-11.35 -107.1 Q-12.45 -110.65 -16.55 -115.7 -20.75 -120.85 -21.35 -122.6 -22.6 -126.05 -18.75 -128.75 -18.85 -126.15 -17.3 -125.45 -15.9 -124.75 -14.15 -126.05 -12.3 -127.4 -11.7 -129.95 -11.0 -132.9 -12.5 -136.4 -6.75 -133.65 -6.1 -125.95 -5.45 -118.35 -9.7 -105.5 -5.9 -100.2 -1.85 -100.15 3.15 -100.05 1.8 -108.0 13.6 -105.95 17.4 -90.8 20.85 -77.1 16.25 -62.45 14.95 -58.35 18.75 -55.45" fill="#ffffff" fill-rule="evenodd" stroke="none"/>
  </g>
</svg>
