<?xml version="1.0" encoding="UTF-8" standalone="no"?>
<svg xmlns:ffdec="https://www.free-decompiler.com/flash" xmlns:xlink="http://www.w3.org/1999/xlink" ffdec:objectType="shape" height="165.2px" width="123.2px" xmlns="http://www.w3.org/2000/svg">
  <g transform="matrix(1.0, 0.0, 0.0, 1.0, 63.45, 119.35)">
    <path d="M10.05 -69.75 Q12.75 -66.85 18.0 -68.5 23.6 -70.3 27.25 -76.2 31.55 -83.3 31.0 -93.75 45.5 -75.95 40.65 -61.1 39.9 -58.85 35.4 -49.8 32.2 -43.25 32.1 -38.7 32.05 -34.8 35.3 -31.7 38.5 -28.65 42.45 -28.55 46.8 -28.45 49.35 -32.25 52.4 -36.75 52.0 -45.75 59.0 -37.8 59.7 -25.65 60.3 -14.55 55.75 -2.25 51.35 9.55 43.6 18.8 35.6 28.3 26.65 31.85 27.7 34.3 29.75 36.3 32.2 38.7 35.35 39.7 29.15 43.95 19.8 45.3 10.45 46.6 -0.6 44.85 -10.35 45.75 -22.5 43.05 -35.35 40.25 -45.35 34.5 -40.65 34.8 -36.95 33.65 -33.7 32.65 -31.85 30.75 -43.95 25.9 -52.1 14.8 -59.95 4.25 -62.4 -9.4 -64.95 -23.25 -61.3 -36.55 -57.45 -50.7 -47.4 -61.1 -49.95 -54.7 -48.15 -50.35 -46.6 -46.5 -42.55 -45.8 -38.55 -45.15 -35.1 -48.0 -31.25 -51.2 -30.35 -57.35 -29.45 -63.85 -30.95 -72.0 L-33.35 -84.35 Q-34.05 -90.8 -31.6 -95.35 -28.5 -100.9 -19.75 -105.85 -22.1 -99.85 -21.1 -96.75 -20.25 -94.1 -17.6 -94.55 -14.95 -95.0 -12.95 -97.95 -10.75 -101.25 -11.1 -105.65 -7.8 -100.65 -4.9 -99.9 -2.3 -99.2 -1.3 -102.0 -0.3 -104.85 -1.75 -109.35 -3.4 -114.5 -7.7 -119.35 6.95 -115.3 12.1 -105.6 17.85 -94.75 10.15 -79.0 7.15 -72.85 10.05 -69.75" fill="#ffffff" fill-rule="evenodd" stroke="none"/>
  </g>
</svg>
