<?xml version="1.0" encoding="UTF-8" standalone="no"?>
<svg xmlns:ffdec="https://www.free-decompiler.com/flash" xmlns:xlink="http://www.w3.org/1999/xlink" ffdec:objectType="shape" height="164.9px" width="128.9px" xmlns="http://www.w3.org/2000/svg">
  <g transform="matrix(1.0, 0.0, 0.0, 1.0, 68.6, 120.05)">
    <path d="M14.1 -90.1 Q16.35 -97.4 14.15 -108.95 25.9 -103.7 25.95 -83.45 25.95 -79.6 25.0 -65.7 24.25 -54.55 24.85 -48.55 25.25 -44.25 30.0 -41.95 34.6 -39.7 39.35 -41.05 44.65 -42.5 46.3 -47.75 48.3 -54.0 44.3 -63.95 52.7 -56.55 56.6 -46.15 60.25 -36.4 59.4 -25.45 58.55 -14.8 53.65 -5.2 48.65 4.65 40.45 11.35 44.85 14.75 50.2 16.35 L60.3 16.7 Q53.9 26.85 33.25 36.0 13.55 44.7 -0.6 44.85 -8.95 44.3 -19.6 41.15 -31.05 37.8 -41.0 32.65 -65.75 19.85 -68.6 3.75 -63.9 7.5 -57.35 8.1 -50.75 8.65 -47.2 5.4 -56.45 -5.5 -60.55 -19.2 -64.4 -32.0 -63.15 -44.9 -61.9 -57.55 -56.05 -67.2 -49.95 -77.25 -40.3 -81.7 -43.0 -76.15 -41.5 -71.35 -40.1 -67.1 -36.35 -65.5 -32.55 -63.85 -29.35 -66.15 -25.7 -68.8 -24.95 -75.55 -24.1 -82.8 -25.4 -94.25 -25.5 -103.1 -18.95 -107.15 -21.2 -100.95 -18.75 -99.6 -16.5 -98.35 -12.8 -101.4 -8.95 -104.6 -7.8 -109.3 -6.5 -115.0 -10.4 -120.05 0.45 -120.2 3.25 -114.55 5.95 -109.2 2.1 -96.8 -0.05 -89.8 2.3 -85.55 4.45 -81.7 8.2 -82.8 12.25 -83.95 14.1 -90.1" fill="#ffffff" fill-rule="evenodd" stroke="none"/>
  </g>
</svg>
