<?xml version="1.0" encoding="UTF-8" standalone="no"?>
<svg xmlns:ffdec="https://www.free-decompiler.com/flash" xmlns:xlink="http://www.w3.org/1999/xlink" ffdec:objectType="shape" height="152.85px" width="127.3px" xmlns="http://www.w3.org/2000/svg">
  <g transform="matrix(1.0, 0.0, 0.0, 1.0, 66.05, 108.0)">
    <path d="M27.25 -53.45 Q32.7 -54.35 35.5 -59.65 38.9 -66.1 37.15 -77.35 45.75 -68.5 46.85 -60.85 47.65 -55.3 44.25 -48.05 39.15 -37.15 38.7 -35.65 36.5 -28.05 39.6 -20.3 40.7 -17.55 43.5 -15.95 46.35 -14.4 49.6 -14.75 57.7 -15.55 60.95 -25.65 63.55 -0.8 44.05 19.85 26.0 39.0 -0.6 44.85 -17.6 42.05 -32.25 33.55 -46.25 25.45 -55.15 13.95 -64.15 2.35 -65.7 -9.85 -67.4 -22.85 -60.3 -33.8 -60.1 -26.75 -56.95 -23.35 -54.15 -20.25 -50.2 -21.1 -46.25 -22.0 -43.5 -26.2 -40.45 -30.9 -40.4 -37.65 -40.3 -47.1 -42.1 -57.95 -43.95 -69.25 -44.0 -71.9 -44.1 -78.3 -40.6 -83.45 -36.65 -89.25 -26.4 -96.5 -29.55 -87.25 -28.65 -83.8 -27.9 -80.7 -24.55 -83.15 -21.15 -85.55 -17.55 -91.75 -13.5 -98.7 -11.3 -106.9 -9.3 -103.75 -6.55 -101.9 -4.0 -100.2 -1.85 -100.15 3.15 -100.05 1.8 -108.0 13.6 -105.95 17.4 -90.8 20.85 -77.1 16.25 -62.45 14.95 -58.35 18.75 -55.45 22.4 -52.6 27.25 -53.45" fill="#ffffff" fill-rule="evenodd" stroke="none"/>
  </g>
</svg>
