<?xml version="1.0" encoding="UTF-8" standalone="no"?>
<svg xmlns:ffdec="https://www.free-decompiler.com/flash" xmlns:xlink="http://www.w3.org/1999/xlink" ffdec:objectType="shape" height="38.1px" width="48.7px" xmlns="http://www.w3.org/2000/svg">
  <g transform="matrix(1.0, 0.0, 0.0, 1.0, 24.35, 23.15)">
    <path d="M19.1 -18.95 L17.6 -21.25 Q17.15 -21.8 18.5 -22.25 L20.65 -22.6 Q21.65 -22.45 22.95 -21.55 23.7 -21.0 22.75 -20.4 21.35 -19.6 21.15 -18.8 20.4 -15.8 20.35 -11.85 20.3 -7.75 20.95 -4.2 21.85 0.7 13.15 6.8 5.05 12.5 0.0 12.5 -5.05 12.5 -13.15 6.8 -21.85 0.7 -20.95 -4.2 -20.3 -7.75 -20.35 -11.85 -20.4 -15.8 -21.15 -18.8 -21.35 -19.6 -22.75 -20.4 -23.7 -21.0 -22.95 -21.55 -21.65 -22.45 -20.65 -22.6 L-18.5 -22.25 Q-17.15 -21.8 -17.6 -21.25 L-19.1 -18.95 Q-19.5 -17.8 -18.9 -11.25 -18.2 -4.05 -16.8 -1.45 -15.9 0.2 -11.35 2.95 -5.5 6.45 0.0 6.6 5.5 6.45 11.35 2.95 15.9 0.2 16.8 -1.45 18.2 -4.05 18.9 -11.25 19.5 -17.8 19.1 -18.95 M2.35 -1.0 L2.0 2.7 0.2 2.8 0.2 -0.9 2.35 -1.0 M4.95 -1.15 L4.3 2.5 2.45 2.7 2.8 -1.0 4.95 -1.15 M7.65 -2.6 L7.65 -1.25 Q7.6 0.8 7.05 2.0 L4.8 2.4 5.4 -0.95 Q7.1 -1.55 7.65 -2.6 M9.8 -2.0 L9.3 1.5 8.1 1.8 7.5 1.9 Q8.05 0.6 8.1 -1.6 L9.8 -2.0 M11.4 -2.65 L10.95 1.05 9.9 1.4 10.3 -2.15 11.4 -2.65 M12.9 -3.5 L12.45 0.35 11.35 0.9 11.8 -2.7 12.9 -3.5 M-2.35 -1.0 L-0.2 -0.9 -0.2 2.8 -2.0 2.7 -2.35 -1.0 M-4.95 -1.15 L-2.8 -1.0 -2.45 2.7 -4.3 2.5 -4.95 -1.15 M-7.6 -1.25 L-7.6 -2.6 Q-7.05 -1.55 -5.4 -0.95 L-4.8 2.4 -7.0 2.0 Q-7.55 0.8 -7.6 -1.25 M-9.75 -2.0 L-8.05 -1.6 Q-8.0 0.6 -7.45 1.9 L-8.05 1.8 -9.25 1.5 -9.75 -2.0 M-11.35 -2.65 L-10.25 -2.15 -9.85 1.4 -10.9 1.05 -11.35 -2.65 M-12.85 -3.45 L-11.75 -2.7 -11.3 0.9 -12.4 0.35 -12.85 -3.45" fill="#ffffff" fill-rule="evenodd" stroke="none"/>
    <path d="M19.1 -18.95 Q19.5 -17.8 18.9 -11.25 18.2 -4.05 16.8 -1.45 15.9 0.2 11.35 2.95 5.5 6.45 0.0 6.6 -5.5 6.45 -11.35 2.95 -15.9 0.2 -16.8 -1.45 -18.2 -4.05 -18.9 -11.25 -19.5 -17.8 -19.1 -18.95 L-17.6 -21.25 Q-17.15 -21.8 -18.5 -22.25 L-20.65 -22.6 Q-21.65 -22.45 -22.95 -21.55 -23.7 -21.0 -22.75 -20.4 -21.35 -19.6 -21.15 -18.8 -20.4 -15.8 -20.35 -11.85 -20.3 -7.75 -20.95 -4.2 -21.85 0.7 -13.15 6.8 -5.05 12.5 0.0 12.5 5.05 12.5 13.15 6.8 21.85 0.7 20.95 -4.2 20.3 -7.75 20.35 -11.85 20.4 -15.8 21.15 -18.8 21.35 -19.6 22.75 -20.4 23.7 -21.0 22.95 -21.55 21.65 -22.45 20.65 -22.6 L18.5 -22.25 Q17.15 -21.8 17.6 -21.25 L19.1 -18.95 M16.75 -20.65 Q15.65 -21.55 16.9 -22.25 20.7 -24.35 24.05 -21.5 24.8 -20.85 23.65 -20.2 22.05 -19.35 21.9 -18.55 20.25 -10.05 22.15 -3.05 23.15 0.55 14.0 7.75 5.0 14.85 0.0 14.95 -5.0 14.85 -14.0 7.75 -23.15 0.55 -22.15 -3.05 -20.25 -10.05 -21.9 -18.55 -22.05 -19.35 -23.65 -20.2 -24.8 -20.85 -24.05 -21.5 -20.7 -24.35 -16.9 -22.25 -15.65 -21.55 -16.75 -20.65 -18.3 -19.4 -18.3 -18.65 -18.2 -10.3 -14.55 -0.8 L-12.85 0.2 -13.55 -4.25 -11.9 -3.35 -8.05 -2.2 -8.05 -3.9 Q-7.35 -2.6 -5.25 -1.8 L-2.75 -1.6 5.25 -1.8 Q7.35 -2.6 8.05 -3.9 L8.05 -2.2 11.9 -3.35 13.55 -4.25 12.85 0.2 14.55 -0.8 Q18.2 -10.3 18.3 -18.65 18.3 -19.4 16.75 -20.65 M12.9 -3.5 L11.8 -2.7 11.35 0.9 12.45 0.35 12.9 -3.5 M11.4 -2.65 L10.3 -2.15 9.9 1.4 10.95 1.05 11.4 -2.65 M9.8 -2.0 L8.1 -1.6 Q8.05 0.6 7.5 1.9 L8.1 1.8 9.3 1.5 9.8 -2.0 M7.65 -2.6 Q7.1 -1.55 5.4 -0.95 L4.8 2.4 7.05 2.0 Q7.6 0.8 7.65 -1.25 L7.65 -2.6 M4.95 -1.15 L2.8 -1.0 2.45 2.7 4.3 2.5 4.95 -1.15 M2.35 -1.0 L0.2 -0.9 0.2 2.8 2.0 2.7 2.35 -1.0 M-12.85 -3.45 L-12.4 0.35 -11.3 0.9 -11.75 -2.7 -12.85 -3.45 M-11.35 -2.65 L-10.9 1.05 -9.85 1.4 -10.25 -2.15 -11.35 -2.65 M-9.75 -2.0 L-9.25 1.5 -8.05 1.8 -7.45 1.9 Q-8.0 0.6 -8.05 -1.6 L-9.75 -2.0 M-7.6 -1.25 Q-7.55 0.8 -7.0 2.0 L-4.8 2.4 -5.4 -0.95 Q-7.05 -1.55 -7.6 -2.6 L-7.6 -1.25 M-4.95 -1.15 L-4.3 2.5 -2.45 2.7 -2.8 -1.0 -4.95 -1.15 M-2.35 -1.0 L-2.0 2.7 -0.2 2.8 -0.2 -0.9 -2.35 -1.0" fill="#000000" fill-rule="evenodd" stroke="none"/>
  </g>
</svg>
