<?xml version="1.0" encoding="UTF-8" standalone="no"?>
<svg xmlns:ffdec="https://www.free-decompiler.com/flash" xmlns:xlink="http://www.w3.org/1999/xlink" ffdec:objectType="shape" height="85.55px" width="65.3px" xmlns="http://www.w3.org/2000/svg">
  <g transform="matrix(1.0, 0.0, 0.0, 1.0, 32.65, 42.8)">
    <path d="M26.3 -25.0 Q25.15 -28.65 22.0 -32.05 13.85 -40.9 0.0 -40.95 -13.85 -40.9 -22.0 -32.05 -25.15 -28.65 -26.3 -25.0 -27.4 -21.6 -26.2 -19.8 -23.05 -15.0 -23.15 -12.0 -23.2 -10.15 -25.1 -7.1 -27.15 -3.75 -27.65 -0.95 -28.4 3.7 -26.35 10.65 -25.75 12.75 -26.4 14.55 L-28.4 18.2 Q-30.0 20.95 -22.15 23.15 -13.15 25.55 -12.55 27.55 L-13.8 31.85 Q-7.95 35.15 0.0 35.05 7.95 35.15 13.8 31.85 L12.55 27.55 Q13.15 25.55 22.15 23.15 30.0 20.95 28.4 18.2 L26.4 14.55 Q25.75 12.75 26.35 10.65 28.4 3.7 27.65 -0.95 27.15 -3.75 25.1 -7.1 23.2 -10.15 23.15 -12.0 23.05 -15.0 26.2 -19.8 27.4 -21.6 26.3 -25.0 M16.0 -40.4 Q24.6 -37.15 29.35 -28.9 33.25 -22.15 32.55 -10.35 31.9 -0.4 28.25 10.95 27.6 13.05 28.5 15.0 L30.85 18.7 Q32.55 21.55 24.3 23.9 14.9 26.5 14.25 28.6 L15.25 32.5 14.5 33.0 Q15.2 35.1 15.2 37.35 14.95 38.3 13.65 38.65 13.0 40.05 11.2 39.95 10.2 41.15 8.9 40.75 8.6 41.85 7.4 42.75 7.1 41.95 6.4 41.3 5.4 41.95 3.8 41.7 L0.0 41.8 -3.8 41.7 Q-5.4 41.95 -6.4 41.3 -7.1 41.95 -7.4 42.75 -8.6 41.85 -8.9 40.75 -10.2 41.15 -11.2 39.95 -13.0 40.05 -13.65 38.65 -14.95 38.3 -15.2 37.35 -15.2 35.1 -14.5 33.0 L-15.25 32.5 -14.25 28.6 Q-14.9 26.5 -24.3 23.9 -32.55 21.55 -30.85 18.7 L-28.5 15.0 Q-27.6 13.05 -28.25 10.95 -31.9 -0.4 -32.55 -10.35 -33.25 -22.15 -29.35 -28.9 -24.6 -37.15 -16.0 -40.4 -9.9 -42.7 0.0 -42.8 9.9 -42.7 16.0 -40.4 M1.9 17.2 Q3.0 21.85 4.25 23.65 5.55 25.6 4.0 27.3 2.55 28.9 0.0 28.95 -2.55 28.9 -4.0 27.3 -5.55 25.6 -4.25 23.65 -3.0 21.85 -1.9 17.2 -1.05 13.65 0.0 13.6 1.05 13.65 1.9 17.2 M13.1 33.95 L11.55 34.65 Q12.1 36.9 11.65 39.25 13.0 39.3 13.45 38.1 L13.55 36.9 13.1 33.95 M13.5 33.8 Q14.1 35.75 14.0 37.7 L14.85 36.65 Q14.8 34.9 14.25 33.3 L13.5 33.8 M4.05 36.2 Q4.5 38.55 4.25 40.7 5.45 40.9 6.2 40.35 6.6 38.15 6.2 35.85 L4.05 36.2 M8.25 35.45 L6.85 35.8 Q7.25 38.15 6.85 40.5 L7.6 41.7 Q8.45 40.95 8.65 40.05 9.15 37.7 8.65 35.4 L8.25 35.45 M0.6 36.35 L0.6 40.8 3.45 40.75 Q3.7 38.6 3.25 36.25 L0.6 36.35 M11.0 34.7 L9.35 35.25 Q9.8 37.6 9.35 39.95 10.3 40.25 11.05 39.25 11.55 36.9 11.0 34.7 M-10.85 34.75 Q-11.4 37.0 -10.9 39.35 -10.2 40.35 -9.2 40.05 -9.7 37.65 -9.2 35.3 L-10.85 34.75 M-13.4 33.85 L-14.1 33.35 Q-14.65 34.95 -14.75 36.75 -14.65 37.4 -13.85 37.75 -13.95 35.8 -13.4 33.85 M-11.4 34.75 L-13.0 34.0 Q-13.4 35.45 -13.4 37.0 L-13.3 38.2 Q-12.85 39.4 -11.55 39.35 -12.0 37.0 -11.4 34.75 M-8.15 35.55 L-8.55 35.45 Q-9.0 37.8 -8.55 40.15 -8.35 41.05 -7.45 41.8 -7.25 41.15 -6.75 40.6 -7.1 38.25 -6.75 35.9 L-8.15 35.55 M-0.5 36.45 L-3.15 36.35 Q-3.6 38.65 -3.35 40.85 L-0.5 40.9 -0.5 36.45 M-3.95 36.3 L-6.1 35.9 Q-6.45 38.2 -6.1 40.45 -5.35 41.0 -4.1 40.8 -4.4 38.6 -3.95 36.3" fill="#000000" fill-rule="evenodd" stroke="none"/>
    <path d="M26.3 -25.0 Q27.4 -21.6 26.2 -19.8 23.05 -15.0 23.15 -12.0 23.2 -10.15 25.1 -7.1 27.15 -3.75 27.65 -0.95 28.4 3.7 26.35 10.65 25.75 12.75 26.4 14.55 L28.4 18.2 Q30.0 20.95 22.15 23.15 13.15 25.55 12.55 27.55 L13.8 31.85 Q7.95 35.15 0.0 35.05 -7.95 35.15 -13.8 31.85 L-12.55 27.55 Q-13.15 25.55 -22.15 23.15 -30.0 20.95 -28.4 18.2 L-26.4 14.55 Q-25.75 12.75 -26.35 10.65 -28.4 3.7 -27.65 -0.95 -27.15 -3.75 -25.1 -7.1 -23.2 -10.15 -23.15 -12.0 -23.05 -15.0 -26.2 -19.8 -27.4 -21.6 -26.3 -25.0 -25.15 -28.65 -22.0 -32.05 -13.85 -40.9 0.0 -40.95 13.85 -40.9 22.0 -32.05 25.15 -28.65 26.3 -25.0 M11.0 34.7 Q11.55 36.9 11.05 39.25 10.3 40.25 9.35 39.95 9.8 37.6 9.35 35.25 L11.0 34.7 M0.6 36.35 L3.25 36.25 Q3.7 38.6 3.45 40.75 L0.6 40.8 0.6 36.35 M8.25 35.45 L8.65 35.4 Q9.15 37.7 8.65 40.05 8.45 40.95 7.6 41.7 L6.85 40.5 Q7.25 38.15 6.85 35.8 L8.25 35.45 M4.05 36.2 L6.2 35.85 Q6.6 38.15 6.2 40.35 5.45 40.9 4.25 40.7 4.5 38.55 4.05 36.2 M13.5 33.8 L14.25 33.3 Q14.8 34.9 14.85 36.65 L14.0 37.7 Q14.1 35.75 13.5 33.8 M13.1 33.95 L13.55 36.9 13.45 38.1 Q13.0 39.3 11.65 39.25 12.1 36.9 11.55 34.65 L13.1 33.95 M1.9 17.2 Q1.05 13.65 0.0 13.6 -1.05 13.65 -1.9 17.2 -3.0 21.85 -4.25 23.65 -5.55 25.6 -4.0 27.3 -2.55 28.9 0.0 28.95 2.55 28.9 4.0 27.3 5.55 25.6 4.25 23.65 3.0 21.85 1.9 17.2 M-3.95 36.3 Q-4.4 38.6 -4.1 40.8 -5.35 41.0 -6.1 40.45 -6.45 38.2 -6.1 35.9 L-3.95 36.3 M-0.5 36.45 L-0.5 40.9 -3.35 40.85 Q-3.6 38.65 -3.15 36.35 L-0.5 36.45 M-8.15 35.55 L-6.75 35.9 Q-7.1 38.25 -6.75 40.6 -7.25 41.15 -7.45 41.8 -8.35 41.05 -8.55 40.15 -9.0 37.8 -8.55 35.45 L-8.15 35.55 M-11.4 34.75 Q-12.0 37.0 -11.55 39.35 -12.85 39.4 -13.3 38.2 L-13.4 37.0 Q-13.4 35.45 -13.0 34.0 L-11.4 34.75 M-13.4 33.85 Q-13.95 35.8 -13.85 37.75 -14.65 37.4 -14.75 36.75 -14.65 34.95 -14.1 33.35 L-13.4 33.85 M-10.85 34.75 L-9.2 35.3 Q-9.7 37.65 -9.2 40.05 -10.2 40.35 -10.9 39.35 -11.4 37.0 -10.85 34.75" fill="#ffffff" fill-rule="evenodd" stroke="none"/>
  </g>
</svg>
