<?xml version="1.0" encoding="UTF-8" standalone="no"?>
<svg xmlns:ffdec="https://www.free-decompiler.com/flash" xmlns:xlink="http://www.w3.org/1999/xlink" ffdec:objectType="shape" height="20.8px" width="122.9px" xmlns="http://www.w3.org/2000/svg">
  <g transform="matrix(1.0, 0.0, 0.0, 1.0, 61.45, 10.4)">
    <path d="M58.1 -8.3 Q56.5 -9.8 54.2 -9.8 51.9 -9.8 50.25 -8.3 48.65 -6.8 48.65 -4.65 48.65 -2.75 49.9 -1.35 -2.5 1.1 -52.3 -1.5 -51.65 -2.3 -51.65 -3.35 -51.65 -4.75 -52.8 -5.75 -53.9 -6.7 -55.5 -6.7 -57.1 -6.7 -58.25 -5.75 -59.35 -4.75 -59.35 -3.35 -59.35 -1.95 -58.25 -1.0 -57.7 -0.5 -57.0 -0.25 -58.35 0.0 -59.35 0.75 -60.9 1.9 -60.9 3.55 -60.9 5.2 -59.35 6.35 -57.8 7.5 -55.6 7.5 -53.4 7.5 -51.85 6.35 -50.35 5.25 -50.3 3.65 1.05 1.2 49.95 3.65 49.8 4.15 49.8 4.75 49.8 6.65 51.35 8.0 52.9 9.35 55.1 9.35 57.3 9.35 58.85 8.0 60.4 6.65 60.4 4.75 60.4 2.85 58.85 1.5 57.65 0.45 56.05 0.25 57.2 -0.15 58.1 -1.0 59.75 -2.5 59.75 -4.65 59.75 -6.8 58.1 -8.3 M58.75 0.2 L59.6 0.85 Q61.45 2.5 61.45 4.8 61.45 7.1 59.6 8.75 57.8 10.4 55.2 10.4 52.6 10.4 50.75 8.75 48.95 7.1 48.95 4.8 L49.0 4.35 Q4.1 2.3 -48.55 4.3 -48.8 6.0 -50.45 7.25 -52.35 8.75 -55.0 8.75 -57.65 8.75 -59.55 7.25 -61.45 5.8 -61.45 3.75 -61.45 1.7 -59.55 0.2 L-59.15 -0.05 Q-60.2 -1.3 -60.2 -2.9 -60.2 -4.8 -58.75 -6.15 -57.25 -7.5 -55.2 -7.5 -53.15 -7.5 -51.7 -6.15 -50.2 -4.8 -50.2 -2.9 L-50.25 -2.25 Q-5.1 -0.2 48.1 -2.25 47.7 -3.2 47.7 -4.35 47.7 -6.85 49.65 -8.65 51.6 -10.4 54.35 -10.4 57.1 -10.4 59.05 -8.65 61.0 -6.85 61.0 -4.35 61.0 -1.85 59.05 -0.1 L58.75 0.2" fill="#000000" fill-rule="evenodd" stroke="none"/>
    <path d="M58.1 -8.3 Q59.75 -6.8 59.75 -4.65 59.75 -2.5 58.1 -1.0 57.2 -0.15 56.05 0.25 57.65 0.45 58.85 1.5 60.4 2.85 60.4 4.75 60.4 6.65 58.85 8.0 57.3 9.35 55.1 9.35 52.9 9.35 51.35 8.0 49.8 6.65 49.8 4.75 49.8 4.15 49.95 3.65 1.05 1.2 -50.3 3.65 -50.35 5.25 -51.85 6.35 -53.4 7.5 -55.6 7.5 -57.8 7.5 -59.35 6.35 -60.9 5.2 -60.9 3.55 -60.9 1.9 -59.35 0.75 -58.35 0.0 -57.0 -0.25 -57.7 -0.5 -58.25 -1.0 -59.35 -1.95 -59.35 -3.35 -59.35 -4.75 -58.25 -5.75 -57.1 -6.7 -55.5 -6.7 -53.9 -6.7 -52.8 -5.75 -51.65 -4.75 -51.65 -3.35 -51.65 -2.3 -52.3 -1.5 -2.5 1.1 49.9 -1.35 48.65 -2.75 48.65 -4.65 48.65 -6.8 50.25 -8.3 51.9 -9.8 54.2 -9.8 56.5 -9.8 58.1 -8.3" fill="#ffffff" fill-rule="evenodd" stroke="none"/>
  </g>
</svg>
