<?xml version="1.0" encoding="UTF-8" standalone="no"?>
<svg xmlns:ffdec="https://www.free-decompiler.com/flash" xmlns:xlink="http://www.w3.org/1999/xlink" ffdec:objectType="shape" height="20.25px" width="19.65px" xmlns="http://www.w3.org/2000/svg">
  <g transform="matrix(1.0, 0.0, 0.0, 1.0, 11.0, 8.85)">
    <path d="M8.55 -1.15 Q8.85 3.6 8.05 4.65 6.3 6.9 3.5 7.75 L-2.75 8.3 Q-5.2 8.25 -6.35 7.3 -7.5 6.4 -8.2 3.8 -9.35 -0.7 -7.35 -5.7 -6.1 -8.9 -0.1 -8.85 5.4 -8.8 7.05 -7.1 8.2 -5.95 8.55 -1.15 M-9.7 -5.1 Q-10.65 4.15 -8.4 7.65 -6.0 11.4 1.55 11.2 -7.7 12.2 -10.0 8.4 -12.1 5.0 -9.7 -5.1" fill="#000000" fill-rule="evenodd" stroke="none"/>
  </g>
</svg>
