<?xml version="1.0" encoding="UTF-8" standalone="no"?>
<svg xmlns:ffdec="https://www.free-decompiler.com/flash" xmlns:xlink="http://www.w3.org/1999/xlink" ffdec:objectType="shape" height="4.0px" width="30.0px" xmlns="http://www.w3.org/2000/svg">
  <g transform="matrix(1.0, 0.0, 0.0, 1.0, 15.0, 2.0)">
    <path d="M14.4 -1.4 Q15.0 -0.8 15.0 0.0 15.0 0.85 14.4 1.45 13.85 2.0 13.0 2.0 12.15 2.0 11.6 1.45 11.0 0.85 11.0 0.0 11.0 -0.8 11.6 -1.4 12.15 -2.0 13.0 -2.0 13.85 -2.0 14.4 -1.4 M-11.6 -1.4 Q-11.0 -0.8 -11.0 0.0 -11.0 0.85 -11.6 1.45 -12.15 2.0 -13.0 2.0 -13.85 2.0 -14.4 1.45 -15.0 0.85 -15.0 0.0 -15.0 -0.8 -14.4 -1.4 -13.85 -2.0 -13.0 -2.0 -12.15 -2.0 -11.6 -1.4" fill="#ffffff" fill-rule="evenodd" stroke="none"/>
  </g>
</svg>
