<?xml version="1.0" encoding="UTF-8" standalone="no"?>
<svg xmlns:ffdec="https://www.free-decompiler.com/flash" xmlns:xlink="http://www.w3.org/1999/xlink" ffdec:objectType="shape" height="19.55px" width="22.95px" xmlns="http://www.w3.org/2000/svg">
  <g transform="matrix(1.0, 0.0, 0.0, 1.0, 11.5, 11.55)">
    <path d="M-11.5 -3.9 Q-8.15 -8.85 -4.8 -7.8 -2.4 -7.0 0.9 -2.45 L6.15 4.75 Q9.1 8.0 11.45 6.6 10.15 7.85 9.05 8.0 7.9 8.15 6.55 7.2 4.35 5.65 -0.7 -1.2 -4.0 -5.75 -8.3 -5.0 -9.65 -4.75 -11.5 -3.9" fill="#000000" fill-rule="evenodd" stroke="none"/>
    <path d="M11.45 6.6 Q9.1 8.0 6.15 4.75 L0.9 -2.45 Q-2.4 -7.0 -4.8 -7.8 -8.15 -8.85 -11.5 -3.9 -1.0 -23.3 11.45 6.6" fill="#ffffff" fill-rule="evenodd" stroke="none"/>
  </g>
</svg>
