<?xml version="1.0" encoding="UTF-8" standalone="no"?>
<svg xmlns:ffdec="https://www.free-decompiler.com/flash" xmlns:xlink="http://www.w3.org/1999/xlink" ffdec:objectType="shape" height="37.0px" width="173.0px" xmlns="http://www.w3.org/2000/svg">
  <g transform="matrix(1.0, 0.0, 0.0, 1.0, 86.5, 18.5)">
    <path d="M82.8 17.15 Q82.8 17.45 68.85 17.5 L30.8 17.5 Q-0.15 17.5 -25.65 17.8 L-58.9 18.3 -67.6 18.5 -76.95 18.25 Q-81.85 16.8 -84.6 12.05 -87.35 7.3 -86.1 2.2 -85.5 -0.4 -83.85 -2.45 -82.1 -4.6 -79.6 -5.65 L-70.9 -8.3 -53.7 -12.6 Q-36.25 -16.3 -20.65 -17.55 7.65 -19.95 35.9 -16.4 55.95 -13.75 73.25 -8.7 81.9 -6.2 86.5 -4.2 L72.95 -7.6 Q54.85 -12.15 35.65 -14.35 7.3 -17.45 -20.4 -14.9 -35.9 -13.6 -53.1 -9.8 L-70.1 -5.55 -78.7 -2.9 Q-80.3 -2.2 -81.6 -0.65 -82.9 0.95 -83.3 2.85 -84.25 6.85 -82.1 10.65 -79.9 14.45 -76.05 15.55 L-67.7 15.65 -58.95 15.5 -25.65 15.15 Q2.9 15.0 30.8 15.45 52.95 15.85 68.85 16.4 L82.8 17.15" fill="#000000" fill-rule="evenodd" stroke="none"/>
    <path d="M-76.05 15.55 Q-79.9 14.45 -82.1 10.65 -84.25 6.85 -83.3 2.85 -82.9 0.95 -81.6 -0.65 -80.3 -2.2 -78.7 -2.9 L-70.1 -5.55 -53.1 -9.8 Q-35.9 -13.6 -20.4 -14.9 7.3 -17.45 35.65 -14.35 54.85 -12.15 72.95 -7.6 L86.5 -4.2 84.35 8.25 Q13.3 3.9 -67.4 8.25 -69.5 15.15 -76.05 15.55" fill="#757575" fill-rule="evenodd" stroke="none"/>
    <path d="M82.8 17.15 L68.85 16.4 Q52.95 15.85 30.8 15.45 2.9 15.0 -25.65 15.15 L-58.95 15.5 -67.7 15.65 -76.05 15.55 Q-69.5 15.15 -67.4 8.25 13.3 3.9 84.35 8.25 L82.8 17.15" fill="#5e5e5e" fill-rule="evenodd" stroke="none"/>
  </g>
</svg>
