<?xml version="1.0" encoding="UTF-8" standalone="no"?>
<svg xmlns:ffdec="https://www.free-decompiler.com/flash" xmlns:xlink="http://www.w3.org/1999/xlink" ffdec:objectType="shape" height="113.0px" width="155.7px" xmlns="http://www.w3.org/2000/svg">
  <g transform="matrix(1.0, 0.0, 0.0, 1.0, 77.85, 56.5)">
    <path d="M74.15 26.9 Q74.15 27.2 60.2 27.25 L22.15 27.25 1.25 27.3 Q-10.35 37.85 -8.95 56.5 L-19.6 50.2 Q-24.55 37.55 -17.6 27.55 -33.4 34.2 -40.7 50.95 L-44.15 40.3 Q-38.3 23.8 -22.65 16.1 -34.5 16.65 -48.45 25.15 L-58.35 23.25 Q-44.75 13.5 -30.8 11.55 L-77.85 13.95 -72.3 6.05 Q-53.8 2.85 -33.7 1.45 -57.15 -5.8 -61.7 -16.9 L-60.95 -20.35 Q-58.5 -14.65 -43.5 -10.4 -45.75 -13.95 -46.85 -18.1 -37.95 -10.35 -23.65 -6.5 -43.45 -25.95 -47.0 -49.8 -43.55 -50.9 -40.7 -56.5 -34.65 -24.75 -1.1 -8.7 13.1 -8.45 27.25 -6.65 47.3 -4.0 64.6 1.05 73.25 3.55 77.85 5.55 L64.3 2.15 Q46.2 -2.4 27.0 -4.6 L-2.2 -6.3 -9.4 -3.25 12.65 1.05 -3.4 3.75 16.7 13.05 6.75 15.85 -9.35 20.3 16.05 22.2 6.35 25.0 22.15 25.2 Q44.3 25.6 60.2 26.15 L74.15 26.9 M-12.25 0.95 L-17.1 8.35 -11.1 14.1 -20.25 19.9 -16.0 20.85 6.85 12.4 -9.2 3.6 1.4 0.95 -13.25 -2.95 -7.25 -6.1 -17.45 -4.35 -12.25 0.95" fill="#000000" fill-rule="evenodd" stroke="none"/>
    <path d="M-12.25 0.95 L-17.45 -4.35 -7.25 -6.1 -13.25 -2.95 1.4 0.95 -9.2 3.6 6.85 12.4 -16.0 20.85 -20.25 19.9 -11.1 14.1 -17.1 8.35 -12.25 0.95" fill="#333333" fill-rule="evenodd" stroke="none"/>
    <path d="M77.85 5.55 L75.7 18.0 6.75 15.85 16.7 13.05 -3.4 3.75 12.65 1.05 -9.4 -3.25 -2.2 -6.3 27.0 -4.6 Q46.2 -2.4 64.3 2.15 L77.85 5.55" fill="#757575" fill-rule="evenodd" stroke="none"/>
    <path d="M75.7 18.0 L74.15 26.9 60.2 26.15 Q44.3 25.6 22.15 25.2 L6.35 25.0 16.05 22.2 -9.35 20.3 6.75 15.85 75.7 18.0" fill="#5e5e5e" fill-rule="evenodd" stroke="none"/>
  </g>
</svg>
