<?xml version="1.0" encoding="UTF-8" standalone="no"?>
<svg xmlns:ffdec="https://www.free-decompiler.com/flash" xmlns:xlink="http://www.w3.org/1999/xlink" ffdec:objectType="shape" height="210.8px" width="199.0px" xmlns="http://www.w3.org/2000/svg">
  <g transform="matrix(1.0, 0.0, 0.0, 1.0, 99.5, 105.4)">
    <path d="M-99.5 -12.05 Q-99.5 -31.35 -84.25 -45.0 -70.15 -57.55 -50.85 -58.55 -50.5 -77.75 -35.95 -91.45 -21.0 -105.4 0.0 -105.4 21.0 -105.4 35.9 -91.45 50.85 -77.45 50.85 -57.65 50.85 -52.9 50.0 -48.5 68.15 -45.85 81.85 -33.9 99.5 -18.55 99.5 3.3 99.5 25.15 81.85 40.5 64.2 55.9 39.25 55.9 26.5 55.9 15.65 51.9 L13.15 54.15 Q3.35 62.35 -10.3 62.7 -6.3 68.35 -6.3 75.5 -6.3 85.4 -14.0 92.4 -21.65 99.4 -32.45 99.4 -43.2 99.4 -50.9 92.4 -58.55 85.4 -58.55 75.5 -58.55 65.6 -50.9 58.6 -45.45 53.65 -38.5 52.2 -46.3 44.65 -46.55 34.55 L-47.45 34.55 Q-68.95 34.55 -84.25 20.9 -99.5 7.25 -99.5 -12.05 M24.75 101.45 Q20.85 105.4 15.35 105.4 9.9 105.4 5.95 101.45 2.05 97.55 2.05 92.05 2.05 86.6 5.95 82.65 9.9 78.75 15.35 78.75 20.85 78.75 24.75 82.65 28.7 86.6 28.7 92.05 28.7 97.55 24.75 101.45" fill="#000000" fill-rule="evenodd" stroke="none"/>
  </g>
</svg>
