<?xml version="1.0" encoding="UTF-8" standalone="no"?>
<svg xmlns:ffdec="https://www.free-decompiler.com/flash" xmlns:xlink="http://www.w3.org/1999/xlink" ffdec:objectType="shape" height="21.85px" width="24.3px" xmlns="http://www.w3.org/2000/svg">
  <g transform="matrix(1.0, 0.0, 0.0, 1.0, 83.6, 6.15)">
    <path d="M-75.65 -2.4 L-76.85 -1.75 -78.1 0.45 -80.35 1.5 -81.9 6.3 -79.6 9.2 -78.1 12.05 -74.65 13.05 -72.1 11.6 -69.2 11.8 -67.8 6.25 -70.1 0.95 -75.65 -2.4 M-70.1 -5.55 L-67.8 -6.15 Q-60.45 -2.95 -59.45 3.2 -58.4 9.75 -65.4 15.6 L-67.7 15.65 -76.05 15.55 Q-79.9 14.45 -82.1 10.65 -84.25 6.85 -83.3 2.85 -82.9 0.95 -81.6 -0.65 -80.3 -2.2 -78.7 -2.9 L-70.1 -5.55 M-68.05 -4.25 L-73.1 -2.95 -67.85 0.75 -65.6 6.8 -60.25 6.3 -61.95 0.7 -68.05 -4.25" fill="#333333" fill-rule="evenodd" stroke="none"/>
    <path d="M-75.65 -2.4 L-70.1 0.95 -67.8 6.25 -69.2 11.8 -72.1 11.6 -74.65 13.05 -78.1 12.05 -79.6 9.2 -81.9 6.3 -80.35 1.5 -78.1 0.45 -76.85 -1.75 -75.65 -2.4 M-68.05 -4.25 L-61.95 0.7 -60.25 6.3 -65.6 6.8 -67.85 0.75 -73.1 -2.95 -68.05 -4.25" fill="#666666" fill-rule="evenodd" stroke="none"/>
  </g>
</svg>
