<?xml version="1.0" encoding="UTF-8" standalone="no"?>
<svg xmlns:ffdec="https://www.free-decompiler.com/flash" xmlns:xlink="http://www.w3.org/1999/xlink" ffdec:objectType="shape" height="58.75px" width="216.75px" xmlns="http://www.w3.org/2000/svg">
  <g transform="matrix(1.0, 0.0, 0.0, 1.0, 11.65, 43.05)">
    <path d="M-0.9 -15.5 L3.7 -15.35 Q7.7 -13.1 9.85 -8.5 11.85 -4.25 11.6 0.8 11.35 5.85 8.95 9.75 6.3 14.05 1.8 15.7 L-0.4 15.65 Q5.7 10.65 5.85 0.45 6.05 -10.15 -0.9 -15.5" fill="#ffed00" fill-rule="evenodd" stroke="none"/>
    <path d="M-0.4 15.65 L-2.65 15.65 Q4.4 9.25 3.2 -1.9 2.1 -12.6 -4.55 -15.6 L-2.5 -15.75 -0.9 -15.5 Q6.05 -10.15 5.85 0.45 5.7 10.65 -0.4 15.65" fill="#000000" fill-rule="evenodd" stroke="none"/>
    <path d="M-2.65 15.65 L-7.9 15.6 Q-4.15 13.3 -2.25 8.5 -0.5 3.9 -0.95 -1.25 -1.4 -6.55 -4.05 -10.35 -6.95 -14.55 -11.65 -15.55 L-4.55 -15.6 Q2.1 -12.6 3.2 -1.9 4.4 9.25 -2.65 15.65" fill="#ffff00" fill-rule="evenodd" stroke="none"/>
    <path d="M49.05 -32.8 Q124.15 -29.85 205.0 -43.05 205.3 -40.8 204.85 -38.35 202.8 -27.2 185.55 -17.95 168.4 -8.75 146.1 -7.0 126.75 -5.5 113.5 -10.4 102.7 -5.4 88.1 -5.4 71.45 -5.4 59.7 -11.95 48.0 -18.5 48.0 -27.6 48.0 -30.35 49.05 -32.8" fill="#ffffff" fill-rule="evenodd" stroke="none"/>
  </g>
</svg>
