<?xml version="1.0" encoding="UTF-8" standalone="no"?>
<svg xmlns:ffdec="https://www.free-decompiler.com/flash" xmlns:xlink="http://www.w3.org/1999/xlink" ffdec:objectType="shape" height="71.8px" width="198.2px" xmlns="http://www.w3.org/2000/svg">
  <g transform="matrix(1.0, 0.0, 0.0, 1.0, 98.55, 36.45)">
    <path d="M78.25 33.35 L82.6 27.1 Q89.8 15.95 95.05 0.95 L97.7 -8.25 Q98.9 -13.85 98.3 -18.4 98.05 -21.1 95.55 -22.1 93.7 -22.85 90.1 -22.75 L78.25 -23.65 52.85 -26.45 25.65 -30.1 -1.5 -33.45 -26.9 -35.15 Q-38.65 -35.1 -49.7 -32.65 -60.0 -30.4 -68.6 -26.35 -82.5 -19.7 -91.95 -9.55 L-97.0 -3.4 -98.5 -1.15 -98.55 -1.15 -98.0 -2.15 -97.25 -3.55 -92.4 -9.95 Q-83.2 -20.35 -69.05 -27.3 -60.35 -31.45 -49.9 -33.8 -38.75 -36.35 -26.9 -36.45 L-1.35 -34.85 25.85 -31.55 53.0 -27.8 78.35 -24.95 90.2 -24.05 93.05 -23.85 96.0 -23.35 Q98.75 -22.3 99.45 -18.65 100.05 -13.75 98.8 -8.05 L96.0 1.3 Q90.5 16.5 83.05 27.4 76.75 36.6 75.8 35.15 76.25 35.8 78.25 33.35" fill="#000000" fill-rule="evenodd" stroke="none"/>
    <path d="M53.55 -6.0 Q56.25 -10.35 55.8 -10.6 L52.7 -6.55 45.2 3.05 37.5 12.55 Q34.3 16.5 34.55 16.65 34.75 16.9 38.25 13.2 L46.3 3.95 Q50.45 -1.0 53.55 -6.0 M27.3 -18.1 Q27.1 -18.55 22.85 -16.4 17.8 -13.9 13.3 -10.25 8.7 -6.55 5.05 -2.4 1.9 1.2 2.3 1.4 L5.8 -1.7 Q10.35 -6.05 14.2 -9.1 18.15 -12.3 23.35 -15.55 27.35 -18.0 27.3 -18.1 M-98.5 -1.15 L-97.0 -3.4 -91.95 -9.55 Q-82.5 -19.7 -68.6 -26.35 -60.0 -30.4 -49.7 -32.65 -38.65 -35.1 -26.9 -35.15 L-1.5 -33.45 25.65 -30.1 52.85 -26.45 78.25 -23.65 90.1 -22.75 Q93.7 -22.85 95.55 -22.1 98.05 -21.1 98.3 -18.4 98.9 -13.85 97.7 -8.25 L95.05 0.95 Q89.8 15.95 82.6 27.1 L78.25 33.35 Q76.9 34.7 75.8 35.15 L-98.5 -1.15 M-30.2 -2.85 L-27.4 -6.65 Q-23.85 -11.5 -19.9 -15.05 -16.0 -18.65 -10.7 -21.4 -6.45 -23.55 -6.45 -23.6 -14.05 -22.4 -20.85 -16.1 -27.7 -10.0 -30.2 -2.85 M-68.2 -1.85 L-65.3 -6.25 Q-61.6 -11.9 -57.15 -15.95 -52.8 -20.1 -46.75 -23.05 L-41.95 -25.35 Q-41.8 -26.05 -47.2 -23.95 -53.35 -21.5 -58.15 -17.0 -65.75 -10.0 -68.2 -1.85 M82.3 -7.85 L79.35 -2.35 Q75.55 4.55 71.35 10.35 L62.55 22.5 Q58.85 27.5 59.05 27.65 59.3 27.9 63.35 23.15 68.05 17.6 72.55 11.15 77.15 4.9 80.25 -1.85 82.95 -7.7 82.3 -7.85" fill="#f7f7f7" fill-opacity="0.7529412" fill-rule="evenodd" stroke="none"/>
    <path d="M27.3 -18.1 Q27.35 -18.0 23.35 -15.55 18.15 -12.3 14.2 -9.1 10.35 -6.05 5.8 -1.7 L2.3 1.4 Q1.9 1.2 5.05 -2.4 8.7 -6.55 13.3 -10.25 17.8 -13.9 22.85 -16.4 27.1 -18.55 27.3 -18.1 M53.55 -6.0 Q50.45 -1.0 46.3 3.95 L38.25 13.2 Q34.75 16.9 34.55 16.65 34.3 16.5 37.5 12.55 L45.2 3.05 52.7 -6.55 55.8 -10.6 Q56.25 -10.35 53.55 -6.0 M82.3 -7.85 Q82.95 -7.7 80.25 -1.85 77.15 4.9 72.55 11.15 68.05 17.6 63.35 23.15 59.3 27.9 59.05 27.65 58.85 27.5 62.55 22.5 L71.35 10.35 Q75.55 4.55 79.35 -2.35 L82.3 -7.85 M-68.2 -1.85 Q-65.75 -10.0 -58.15 -17.0 -53.35 -21.5 -47.2 -23.95 -41.8 -26.05 -41.95 -25.35 L-46.75 -23.05 Q-52.8 -20.1 -57.15 -15.95 -61.6 -11.9 -65.3 -6.25 L-68.2 -1.85 M-30.2 -2.85 Q-27.7 -10.0 -20.85 -16.1 -14.05 -22.4 -6.45 -23.6 -6.45 -23.55 -10.7 -21.4 -16.0 -18.65 -19.9 -15.05 -23.85 -11.5 -27.4 -6.65 L-30.2 -2.85" fill="#f2f2f2" fill-opacity="0.7529412" fill-rule="evenodd" stroke="none"/>
  </g>
</svg>
