<?xml version="1.0" encoding="UTF-8" standalone="no"?>
<svg xmlns:ffdec="https://www.free-decompiler.com/flash" xmlns:xlink="http://www.w3.org/1999/xlink" ffdec:objectType="shape" height="46.25px" width="61.85px" xmlns="http://www.w3.org/2000/svg">
  <g transform="matrix(1.0, 0.0, 0.0, 1.0, 30.9, 23.1)">
    <path d="M20.25 -23.05 L20.35 -23.1 20.75 -18.8 Q21.5 -13.25 23.5 -7.5 L26.2 0.1 29.35 8.85 30.65 13.8 Q31.25 16.8 30.65 19.35 29.5 22.25 26.05 22.85 L20.3 23.15 Q10.1 22.85 -0.8 19.4 -7.75 17.2 -17.0 12.9 -22.8 10.1 -27.35 7.35 -31.05 5.1 -30.9 4.9 L-27.1 6.9 -16.55 12.0 Q-6.8 16.2 -0.4 18.15 10.4 21.45 20.3 21.7 L25.8 21.45 Q28.7 20.95 29.3 18.9 29.8 16.9 29.3 14.05 L28.05 9.25 25.05 0.5 Q23.25 -4.55 22.5 -7.2 20.55 -13.25 20.2 -18.75 19.95 -22.6 20.25 -23.05" fill="#000000" fill-rule="evenodd" stroke="none"/>
    <path d="M0.75 -6.75 Q0.25 -6.65 1.5 -3.5 2.95 0.15 5.55 3.35 8.1 6.55 11.25 8.95 13.9 10.95 14.1 10.6 14.2 10.45 11.9 8.15 8.7 5.05 6.65 2.45 4.45 -0.25 2.4 -3.95 L0.75 -6.75 M20.25 -23.05 Q19.95 -22.6 20.2 -18.75 20.55 -13.25 22.5 -7.2 23.25 -4.55 25.05 0.5 L28.05 9.25 29.3 14.05 Q29.8 16.9 29.3 18.9 28.7 20.95 25.8 21.45 L20.3 21.7 Q10.4 21.45 -0.4 18.15 -6.8 16.2 -16.55 12.0 L-27.1 6.9 -30.9 4.9 20.25 -23.05" fill="#f7f7f7" fill-opacity="0.7529412" fill-rule="evenodd" stroke="none"/>
    <path d="M0.75 -6.75 L2.4 -3.95 Q4.45 -0.25 6.65 2.45 8.7 5.05 11.9 8.15 14.2 10.45 14.1 10.6 13.9 10.95 11.25 8.95 8.1 6.55 5.55 3.35 2.95 0.15 1.5 -3.5 0.25 -6.65 0.75 -6.75" fill="#f2f2f2" fill-opacity="0.7529412" fill-rule="evenodd" stroke="none"/>
  </g>
</svg>
