<?xml version="1.0" encoding="UTF-8" standalone="no"?>
<svg xmlns:ffdec="https://www.free-decompiler.com/flash" xmlns:xlink="http://www.w3.org/1999/xlink" ffdec:objectType="shape" height="159.25px" width="119.15px" xmlns="http://www.w3.org/2000/svg">
  <g transform="matrix(1.0, 0.0, 0.0, 1.0, -0.2, 75.3)">
    <path d="M2.45 -4.95 Q0.45 -1.05 0.25 -1.05 0.45 -0.9 1.25 3.4 2.7 9.3 5.65 15.45 9.65 23.8 16.6 32.7 24.65 42.95 35.3 52.15 49.75 64.1 62.3 70.7 80.0 80.05 97.7 81.25 102.9 81.55 107.1 79.75 111.85 77.75 113.9 73.5 115.95 69.5 116.45 63.9 116.8 59.55 116.25 53.4 115.4 45.05 112.3 31.8 L107.2 9.5 Q105.7 -0.25 108.65 -13.65 112.45 -28.15 113.4 -35.25 115.7 -48.2 114.75 -56.1 114.3 -61.3 111.7 -65.25 108.95 -69.45 104.6 -71.0 96.5 -73.7 86.05 -72.25 79.1 -71.3 68.5 -67.85 53.6 -62.4 40.25 -51.7 21.35 -35.65 8.95 -16.25 5.55 -10.95 2.45 -4.95 M8.0 -16.85 Q19.7 -36.45 38.95 -53.3 52.8 -64.55 67.65 -70.05 79.15 -73.8 85.7 -74.75 96.55 -76.35 105.6 -73.45 110.6 -71.75 113.95 -66.75 117.05 -62.05 117.5 -56.45 118.1 -51.5 117.6 -45.6 117.25 -41.15 116.15 -34.75 115.55 -30.45 114.05 -23.95 L111.45 -13.0 Q108.55 0.2 110.0 9.0 L115.05 31.15 Q118.2 44.45 119.05 53.1 119.6 59.75 119.2 64.15 118.7 70.25 116.3 74.85 113.85 79.8 108.15 82.25 103.2 84.3 97.65 83.9 79.15 82.5 61.15 72.85 48.7 66.15 33.95 53.7 23.25 44.25 15.3 33.7 8.45 24.55 4.65 15.95 1.75 9.4 0.7 3.5 L0.35 0.1 0.2 -1.05 1.9 -5.2 Q4.4 -10.85 8.0 -16.85" fill="#000000" fill-rule="evenodd" stroke="none"/>
    <path d="M2.45 -4.95 Q5.55 -10.95 8.95 -16.25 21.35 -35.65 40.25 -51.7 53.6 -62.4 68.5 -67.85 79.1 -71.3 86.05 -72.25 96.5 -73.7 104.6 -71.0 108.95 -69.45 111.7 -65.25 114.3 -61.3 114.75 -56.1 115.7 -48.2 113.4 -35.25 112.45 -28.15 108.65 -13.65 105.7 -0.25 107.2 9.5 L112.3 31.8 Q115.4 45.05 116.25 53.4 116.8 59.55 116.45 63.9 115.95 69.5 113.9 73.5 111.85 77.75 107.1 79.75 102.9 81.55 97.7 81.25 80.0 80.05 62.3 70.7 49.75 64.1 35.3 52.15 24.65 42.95 16.6 32.7 9.65 23.8 5.65 15.45 2.7 9.3 1.25 3.4 0.45 -0.9 0.25 -1.05 0.45 -1.05 2.45 -4.95 M95.9 60.8 L89.2 58.2 Q80.35 55.0 73.3 51.5 66.0 48.05 58.2 43.25 L52.05 39.5 Q51.65 39.9 57.6 44.1 64.6 49.0 72.65 52.8 84.95 58.8 95.9 60.8 M94.55 20.15 L88.5 19.1 74.05 16.85 59.7 13.95 53.7 12.8 Q53.55 13.25 59.45 14.95 66.2 16.95 73.8 18.3 L88.45 20.15 Q94.55 20.55 94.55 20.15 M53.4 -8.5 L59.75 -11.75 Q67.95 -16.0 75.35 -18.85 83.0 -21.95 91.8 -23.35 L98.9 -24.35 Q87.55 -25.35 74.85 -20.2 66.65 -17.05 59.25 -12.65 53.05 -8.9 53.4 -8.5 M53.7 -31.6 Q62.25 -39.5 71.65 -45.2 80.6 -50.8 91.65 -55.75 L100.2 -59.7 Q100.2 -60.25 91.25 -56.7 80.5 -52.4 70.9 -46.45 61.0 -40.4 53.0 -32.35 46.2 -25.5 47.05 -25.0 49.45 -27.7 53.7 -31.6" fill="#f7f7f7" fill-opacity="0.7529412" fill-rule="evenodd" stroke="none"/>
    <path d="M53.7 -31.6 Q49.45 -27.7 47.05 -25.0 46.2 -25.5 53.0 -32.35 61.0 -40.4 70.9 -46.45 80.5 -52.4 91.25 -56.7 100.2 -60.25 100.2 -59.7 L91.65 -55.75 Q80.6 -50.8 71.65 -45.2 62.25 -39.5 53.7 -31.6 M53.4 -8.5 Q53.05 -8.9 59.25 -12.65 66.65 -17.05 74.85 -20.2 87.55 -25.35 98.9 -24.35 L91.8 -23.35 Q83.0 -21.95 75.35 -18.85 67.95 -16.0 59.75 -11.75 L53.4 -8.5 M94.55 20.15 Q94.55 20.55 88.45 20.15 L73.8 18.3 Q66.2 16.95 59.45 14.95 53.55 13.25 53.7 12.8 L59.7 13.95 74.05 16.85 88.5 19.1 94.55 20.15 M95.9 60.8 Q84.95 58.8 72.65 52.8 64.6 49.0 57.6 44.1 51.65 39.9 52.05 39.5 L58.2 43.25 Q66.0 48.05 73.3 51.5 80.35 55.0 89.2 58.2 L95.9 60.8" fill="#f2f2f2" fill-opacity="0.7529412" fill-rule="evenodd" stroke="none"/>
  </g>
</svg>
