<?xml version="1.0" encoding="UTF-8" standalone="no"?>
<svg xmlns:ffdec="https://www.free-decompiler.com/flash" xmlns:xlink="http://www.w3.org/1999/xlink" ffdec:objectType="shape" height="218.05px" width="412.05px" xmlns="http://www.w3.org/2000/svg">
  <g transform="matrix(1.0, 0.0, 0.0, 1.0, 206.0, 109.0)">
    <path d="M76.5 -53.0 Q78.35 -44.5 78.7 -30.6 79.5 -2.7 71.9 23.1 69.7 30.25 66.2 37.55 L62.7 44.05 61.3 46.35 61.2 46.55 61.15 46.6 59.95 46.0 60.0 45.95 60.0 45.85 60.2 45.45 61.45 42.25 Q65.8 30.65 68.65 19.05 70.65 11.0 71.7 3.0 72.35 -3.0 72.5 -3.0 72.7 5.7 69.6 19.3 67.5 28.65 64.2 38.4 L64.95 36.9 Q68.3 29.95 70.55 22.65 77.95 -2.5 77.7 -30.55 77.6 -44.4 76.5 -53.0 M199.2 31.15 L194.7 35.9 181.1 48.65 Q154.55 71.8 123.45 85.55 103.0 94.7 78.45 100.45 52.6 106.5 24.55 108.2 3.8 109.3 -4.9 108.95 -22.05 108.3 -35.3 103.55 -48.9 99.1 -64.5 90.55 -75.3 84.6 -92.45 73.45 -110.8 61.35 -120.15 56.25 -136.3 47.4 -149.3 47.15 L-164.35 49.65 Q-173.6 51.15 -179.7 51.0 -188.75 51.0 -194.75 49.1 -204.75 46.0 -205.95 38.9 -206.75 31.8 -198.65 25.95 -193.3 22.15 -185.8 20.05 -175.45 17.2 -159.6 15.8 -147.5 14.85 -134.0 15.1 -137.7 14.25 -141.15 13.0 -152.1 9.1 -157.5 2.35 -160.05 -0.8 -160.85 -4.6 -161.55 -7.85 -160.8 -10.4 L-160.5 -11.35 -168.75 -12.3 -172.15 -13.05 Q-174.15 -13.65 -175.7 -14.7 -176.8 -15.3 -176.9 -17.05 -177.0 -18.75 -176.2 -19.45 L-173.5 -22.15 Q-166.0 -27.6 -149.35 -36.8 -134.75 -45.65 -127.85 -55.5 -117.9 -69.5 -108.05 -78.7 -95.5 -90.45 -81.7 -95.95 -68.3 -101.75 -51.45 -104.75 -39.3 -106.9 -21.2 -108.15 11.95 -110.3 36.3 -107.05 61.95 -104.25 86.35 -92.95 106.6 -83.55 124.85 -69.0 143.3 -54.45 154.5 -46.4 168.6 -36.25 178.1 -31.25 186.15 -26.95 194.05 -23.4 L199.7 -20.85 Q191.4 -23.2 177.6 -30.3 167.9 -35.05 153.55 -45.05 142.15 -53.05 123.65 -67.35 105.3 -81.7 85.35 -90.75 61.25 -101.7 35.95 -104.4 12.0 -107.5 -21.0 -105.35 -39.0 -104.05 -50.95 -101.95 -67.5 -99.0 -80.55 -93.35 -94.05 -87.9 -106.1 -76.65 -115.55 -67.85 -125.65 -53.8 -132.85 -43.55 -147.9 -34.45 -164.75 -25.25 -171.85 -20.05 L-174.0 -18.0 Q-174.75 -16.95 -174.0 -16.7 -172.6 -15.7 -168.3 -14.85 L-155.35 -13.5 -130.3 -12.75 -85.2 -14.55 Q-52.15 -17.0 -20.15 -20.9 L3.7 -23.85 -2.85 -22.6 -2.75 -19.6 Q-3.15 -12.0 -9.45 -5.5 -16.45 2.1 -28.8 7.55 -41.4 13.15 -56.25 15.0 -71.65 16.9 -84.75 14.3 -89.2 13.45 -92.95 12.15 L-94.05 12.55 Q-101.15 15.3 -109.25 16.3 -74.05 19.0 -44.5 26.85 -34.15 29.6 -26.7 32.4 -20.5 34.75 -20.8 35.15 -29.1 31.75 -44.8 27.9 -76.1 20.3 -112.35 18.05 -138.75 16.5 -159.4 18.2 -174.95 19.6 -185.1 22.5 -192.5 24.6 -197.25 28.1 -203.45 32.65 -203.3 38.5 L-203.1 39.1 Q-200.0 48.35 -179.7 48.25 -173.65 48.35 -164.85 46.9 L-149.45 44.3 Q-135.25 44.7 -118.75 53.7 -109.25 58.9 -90.9 71.05 -73.65 82.2 -63.1 88.05 -47.7 96.55 -34.45 100.85 -21.6 105.5 -4.8 106.2 3.55 106.55 24.4 105.55 52.2 104.0 77.9 98.15 102.25 92.55 122.6 83.65 153.25 70.5 180.35 47.8 L180.65 47.55 182.95 45.6 187.6 41.5 190.95 38.55 194.3 35.45 196.7 33.3 199.2 31.15 M-155.55 -10.95 L-159.3 -11.25 -159.65 -10.1 Q-160.35 -4.15 -155.95 1.05 -150.75 7.05 -140.25 10.55 -129.85 14.0 -117.6 13.9 -106.3 13.85 -96.7 10.65 -102.15 8.2 -106.0 4.65 -109.6 1.4 -111.0 -3.05 -112.25 -6.8 -111.5 -9.9 L-111.3 -10.85 Q-121.2 -10.45 -130.3 -10.35 -144.65 -10.25 -155.55 -10.95 M-140.65 -28.5 L-122.3 -28.6 -78.0 -30.75 Q-57.5 -32.4 -33.9 -35.6 L-15.65 -38.0 Q-43.25 -32.1 -77.85 -29.3 L-122.25 -27.55 -140.65 -28.5 M-110.3 -10.9 L-110.4 -9.8 Q-110.75 -6.8 -109.5 -3.55 -108.0 0.3 -104.6 3.15 -97.5 9.3 -84.25 11.7 -71.45 14.0 -56.6 12.15 -42.2 10.35 -29.85 5.1 -17.85 0.05 -10.95 -6.9 -4.9 -12.6 -3.9 -19.7 L-3.7 -22.45 Q-35.8 -16.65 -85.05 -12.5 L-110.3 -10.9" fill="#000000" fill-rule="evenodd" stroke="none"/>
    <path d="M-81.35 -88.65 Q-74.8 -91.6 -69.3 -91.65 -63.75 -91.75 -62.45 -88.9 -61.15 -86.05 -64.9 -81.95 -68.6 -77.8 -75.15 -74.85 -81.65 -71.9 -87.2 -71.8 -92.7 -71.75 -94.0 -74.6 -95.3 -77.45 -91.6 -81.55 -87.9 -85.7 -81.35 -88.65" fill="#ffffff" fill-rule="evenodd" stroke="none"/>
    <path d="M10.85 -80.5 Q13.3 -78.0 13.3 -75.15 13.3 -72.3 10.85 -69.75 8.5 -67.3 4.3 -65.6 9.85 -66.8 13.2 -69.35 15.1 -70.8 15.95 -72.4 19.1 -70.9 21.05 -68.85 23.5 -66.35 23.5 -63.5 23.5 -60.65 21.05 -58.1 19.1 -56.1 16.0 -54.55 15.1 -56.2 13.2 -57.65 9.8 -60.25 4.3 -61.45 8.5 -59.75 10.85 -57.25 13.3 -54.75 13.3 -51.9 13.3 -49.05 10.85 -46.5 8.5 -44.05 4.3 -42.35 9.85 -43.55 13.2 -46.1 16.65 -48.75 16.65 -51.9 16.65 -53.15 16.1 -54.3 20.55 -55.55 23.4 -57.75 26.85 -60.35 26.85 -63.5 26.85 -66.7 23.4 -69.3 20.55 -71.5 16.1 -72.65 16.65 -73.85 16.65 -75.15 16.65 -78.3 13.2 -80.9 9.8 -83.5 4.3 -84.7 8.5 -83.0 10.85 -80.5 M72.5 -3.0 Q72.35 -3.0 71.7 3.0 70.65 11.0 68.65 19.05 65.8 30.65 61.45 42.25 L60.2 45.45 60.0 45.85 60.0 45.95 59.95 46.0 61.15 46.6 61.2 46.55 61.3 46.35 62.7 44.05 66.2 37.55 Q69.7 30.25 71.9 23.1 79.5 -2.7 78.7 -30.6 78.35 -44.5 76.5 -53.0 77.3 -27.25 72.5 -3.0 M199.2 31.15 L196.7 33.3 Q181.05 30.05 162.2 31.65 152.5 32.45 136.25 40.0 L103.75 56.3 Q81.85 67.25 65.4 73.15 42.5 81.3 21.7 83.15 1.1 85.0 -24.0 77.75 -39.95 73.1 -68.4 60.9 -98.3 48.05 -111.0 44.05 -134.05 36.8 -151.3 38.65 L-176.0 41.05 Q-187.7 41.8 -195.55 40.75 L-203.1 39.1 -203.3 38.5 Q-203.45 32.65 -197.25 28.1 -192.5 24.6 -185.1 22.5 -174.95 19.6 -159.4 18.2 -138.75 16.5 -112.35 18.05 -76.1 20.3 -44.8 27.9 -29.1 31.75 -20.8 35.15 -20.5 34.75 -26.7 32.4 -34.15 29.6 -44.5 26.85 -74.05 19.0 -109.25 16.3 -101.15 15.3 -94.05 12.55 L-92.95 12.15 Q-89.2 13.45 -84.75 14.3 -71.65 16.9 -56.25 15.0 -41.4 13.15 -28.8 7.55 -16.45 2.1 -9.45 -5.5 -3.15 -12.0 -2.75 -19.6 L-2.85 -22.6 3.7 -23.85 -20.15 -20.9 Q-52.15 -17.0 -85.2 -14.55 L-130.3 -12.75 -155.35 -13.5 -168.3 -14.85 Q-172.6 -15.7 -174.0 -16.7 -174.75 -16.95 -174.0 -18.0 L-171.85 -20.05 Q-164.75 -25.25 -147.9 -34.45 -132.85 -43.55 -125.65 -53.8 -115.55 -67.85 -106.1 -76.65 -94.05 -87.9 -80.55 -93.35 -67.5 -99.0 -50.95 -101.95 -39.0 -104.05 -21.0 -105.35 12.0 -107.5 35.95 -104.4 61.25 -101.7 85.35 -90.75 105.3 -81.7 123.65 -67.35 142.15 -53.05 153.55 -45.05 167.9 -35.05 177.6 -30.3 191.4 -23.2 199.7 -20.85 L201.75 -16.15 Q204.0 -10.25 205.1 -4.05 208.6 15.85 199.2 31.15 M-81.35 -88.65 Q-87.9 -85.7 -91.6 -81.55 -95.3 -77.45 -94.0 -74.6 -92.7 -71.75 -87.2 -71.8 -81.65 -71.9 -75.15 -74.85 -68.6 -77.8 -64.9 -81.95 -61.15 -86.05 -62.45 -88.9 -63.75 -91.75 -69.3 -91.65 -74.8 -91.6 -81.35 -88.65 M-140.65 -28.5 L-122.25 -27.55 -77.85 -29.3 Q-43.25 -32.1 -15.65 -38.0 L-33.9 -35.6 Q-57.5 -32.4 -78.0 -30.75 L-122.3 -28.6 -140.65 -28.5" fill="#f7f7f7" fill-rule="evenodd" stroke="none"/>
    <path d="M10.85 -80.5 Q8.5 -83.0 4.3 -84.7 9.8 -83.5 13.2 -80.9 16.65 -78.3 16.65 -75.15 16.65 -73.85 16.1 -72.65 20.55 -71.5 23.4 -69.3 26.85 -66.7 26.85 -63.5 26.85 -60.35 23.4 -57.75 20.55 -55.55 16.1 -54.3 16.65 -53.15 16.65 -51.9 16.65 -48.75 13.2 -46.1 9.85 -43.55 4.3 -42.35 8.5 -44.05 10.85 -46.5 13.3 -49.05 13.3 -51.9 13.3 -54.75 10.85 -57.25 8.5 -59.75 4.3 -61.45 9.8 -60.25 13.2 -57.65 15.1 -56.2 16.0 -54.55 19.1 -56.1 21.05 -58.1 23.5 -60.65 23.5 -63.5 23.5 -66.35 21.05 -68.85 19.1 -70.9 15.95 -72.4 15.1 -70.8 13.2 -69.35 9.85 -66.8 4.3 -65.6 8.5 -67.3 10.85 -69.75 13.3 -72.3 13.3 -75.15 13.3 -78.0 10.85 -80.5 M72.5 -3.0 Q77.3 -27.25 76.5 -53.0 77.6 -44.4 77.7 -30.55 77.95 -2.5 70.55 22.65 68.3 29.95 64.95 36.9 L64.2 38.4 Q67.5 28.65 69.6 19.3 72.7 5.7 72.5 -3.0 M196.7 33.3 L194.3 35.45 190.95 38.55 187.6 41.5 182.95 45.6 180.65 47.55 180.35 47.8 Q153.25 70.5 122.6 83.65 102.25 92.55 77.9 98.15 52.2 104.0 24.4 105.55 3.55 106.55 -4.8 106.2 -21.6 105.5 -34.45 100.85 -47.7 96.55 -63.1 88.05 -73.65 82.2 -90.9 71.05 -109.25 58.9 -118.75 53.7 -135.25 44.7 -149.45 44.3 L-164.85 46.9 Q-173.65 48.35 -179.7 48.25 -200.0 48.35 -203.1 39.1 L-195.55 40.75 Q-187.7 41.8 -176.0 41.05 L-151.3 38.65 Q-134.05 36.8 -111.0 44.05 -98.3 48.05 -68.4 60.9 -39.95 73.1 -24.0 77.75 1.1 85.0 21.7 83.15 42.5 81.3 65.4 73.15 81.85 67.25 103.75 56.3 L136.25 40.0 Q152.5 32.45 162.2 31.65 181.05 30.05 196.7 33.3" fill="#f2f2f2" fill-rule="evenodd" stroke="none"/>
  </g>
</svg>
