<?xml version="1.0" encoding="UTF-8" standalone="no"?>
<svg xmlns:ffdec="https://www.free-decompiler.com/flash" xmlns:xlink="http://www.w3.org/1999/xlink" ffdec:objectType="shape" height="66.35px" width="70.7px" xmlns="http://www.w3.org/2000/svg">
  <g transform="matrix(1.0, 0.0, 0.0, 1.0, 17.85, 4.95)">
    <path d="M-17.65 4.5 Q-17.55 4.5 -16.35 11.25 -14.75 20.45 -12.05 29.3 -7.85 42.95 -1.45 54.55 L-0.3 56.5 0.3 56.7 4.1 57.7 12.1 58.6 Q20.6 58.75 28.65 55.45 36.65 52.15 42.5 45.9 48.15 39.75 50.3 32.4 47.25 26.6 43.15 20.85 38.85 14.8 34.95 11.0 28.45 4.3 20.9 -0.95 15.25 -4.9 15.3 -4.95 L21.5 -1.9 Q29.15 2.6 36.4 9.6 42.5 15.95 45.05 19.25 49.85 25.55 52.85 33.15 50.7 41.1 44.55 47.8 38.3 54.6 29.75 58.1 21.3 61.65 12.05 61.4 L3.5 60.35 1.45 59.85 -0.55 59.25 -1.5 58.95 -2.6 58.0 -2.8 57.6 -3.75 55.85 Q-10.15 43.9 -14.0 29.85 -16.65 20.05 -17.45 11.4 -18.15 4.5 -17.65 4.5" fill="#000000" fill-rule="evenodd" stroke="none"/>
    <path d="M15.3 -4.95 Q15.25 -4.9 20.9 -0.95 28.45 4.3 34.95 11.0 38.85 14.8 43.15 20.85 47.25 26.6 50.3 32.4 48.15 39.75 42.5 45.9 36.65 52.15 28.65 55.45 20.6 58.75 12.1 58.6 L4.1 57.7 0.3 56.7 -0.3 56.5 -1.45 54.55 Q-7.85 42.95 -12.05 29.3 -14.75 20.45 -16.35 11.25 -17.55 4.5 -17.65 4.5 L9.35 -3.2 15.3 -4.95 M9.35 -3.2 Q9.45 -2.6 14.1 2.2 21.0 9.45 25.95 15.4 31.45 21.7 36.7 29.5 L40.8 35.6 Q41.4 35.4 37.55 28.95 33.05 21.35 27.05 14.5 21.25 7.55 14.8 1.5 10.15 -2.85 9.35 -3.2 M8.2 43.75 L1.1 27.05 Q-9.25 3.65 -9.85 3.9 -10.5 4.25 -0.2 27.65 L7.3 44.15 Q10.5 50.9 10.75 50.8 11.05 50.7 8.2 43.75 M5.45 9.2 L14.2 24.0 Q18.0 30.45 22.6 39.0 L26.1 45.25 Q26.55 45.05 23.5 38.55 20.05 31.1 15.45 23.25 10.85 15.35 6.3 8.65 2.25 2.7 1.95 2.95 1.8 3.05 5.45 9.2" fill="#f7f7f7" fill-rule="evenodd" stroke="none"/>
    <path d="M9.35 -3.2 Q10.15 -2.85 14.8 1.5 21.25 7.55 27.05 14.5 33.05 21.35 37.55 28.95 41.4 35.4 40.8 35.6 L36.7 29.5 Q31.45 21.7 25.95 15.4 21.0 9.45 14.1 2.2 9.45 -2.6 9.35 -3.2 M5.45 9.2 Q1.8 3.05 1.95 2.95 2.25 2.7 6.3 8.65 10.85 15.35 15.45 23.25 20.05 31.1 23.5 38.55 26.55 45.05 26.1 45.25 L22.6 39.0 Q18.0 30.45 14.2 24.0 L5.45 9.2 M8.2 43.75 Q11.05 50.7 10.75 50.8 10.5 50.9 7.3 44.15 L-0.2 27.65 Q-10.5 4.25 -9.85 3.9 -9.25 3.65 1.1 27.05 L8.2 43.75" fill="#f2f2f2" fill-rule="evenodd" stroke="none"/>
  </g>
</svg>
