<?xml version="1.0" encoding="UTF-8" standalone="no"?>
<svg xmlns:ffdec="https://www.free-decompiler.com/flash" xmlns:xlink="http://www.w3.org/1999/xlink" ffdec:objectType="shape" height="10.65px" width="45.7px" xmlns="http://www.w3.org/2000/svg">
  <g transform="matrix(1.0, 0.0, 0.0, 1.0, 44.65, 6.55)">
    <path d="M-44.5 -3.25 L-43.4 -3.15 Q-40.2 -2.95 -36.0 -3.0 L-30.45 -3.15 -30.5 -2.85 Q-30.75 -1.95 -30.35 -0.85 -29.95 0.45 -28.9 1.4 L-26.2 3.15 Q-29.0 4.1 -32.3 4.1 -35.9 4.15 -38.95 3.15 -42.0 2.1 -43.55 0.35 -44.8 -1.15 -44.6 -2.9 L-44.5 -3.25 M1.05 -6.55 L1.0 -5.7 Q0.7 -3.65 -1.05 -1.95 -3.1 0.05 -6.6 1.55 -10.2 3.1 -14.45 3.6 -18.8 4.15 -22.55 3.5 L-25.75 2.6 -25.75 -3.4 -22.75 -3.6 Q-8.35 -4.85 1.05 -6.55" fill="#0000ff" fill-rule="evenodd" stroke="none"/>
  </g>
</svg>
