<?xml version="1.0" encoding="UTF-8" standalone="no"?>
<svg xmlns:ffdec="https://www.free-decompiler.com/flash" xmlns:xlink="http://www.w3.org/1999/xlink" ffdec:objectType="shape" height="18.25px" width="22.65px" xmlns="http://www.w3.org/2000/svg">
  <g transform="matrix(1.0, 0.0, 0.0, 1.0, 11.3, 9.1)">
    <path d="M8.0 6.5 Q4.7 9.15 0.0 9.15 -4.7 9.15 -8.0 6.5 -11.3 3.85 -11.3 0.05 -11.3 -3.75 -8.0 -6.4 -4.7 -9.1 0.0 -9.1 4.7 -9.1 8.0 -6.4 11.35 -3.75 11.35 0.05 11.35 3.85 8.0 6.5" fill="#000000" fill-rule="evenodd" stroke="none"/>
    <path d="M-1.15 1.8 Q-2.35 2.8 -4.1 2.8 -5.85 2.8 -7.1 1.8 -8.3 0.85 -8.3 -0.6 -8.3 -2.0 -7.1 -2.95 -5.85 -3.95 -4.1 -3.95 -2.35 -3.95 -1.15 -2.95 0.1 -2.0 0.1 -0.6 0.1 0.8 -1.15 1.8" fill="#ffffff" fill-rule="evenodd" stroke="none"/>
  </g>
</svg>
