<?xml version="1.0" encoding="UTF-8" standalone="no"?>
<svg xmlns:ffdec="https://www.free-decompiler.com/flash" xmlns:xlink="http://www.w3.org/1999/xlink" ffdec:objectType="shape" height="160.05px" width="271.0px" xmlns="http://www.w3.org/2000/svg">
  <g transform="matrix(1.0, 0.0, 0.0, 1.0, 206.0, 72.5)">
    <path d="M-172.15 -13.05 Q-174.15 -13.65 -175.7 -14.7 -176.8 -15.3 -176.9 -17.05 -177.0 -18.75 -176.2 -19.45 L-173.5 -22.15 Q-166.0 -27.6 -149.35 -36.8 L-149.15 -36.9 -144.1 -31.1 -76.8 -63.2 -91.85 -33.15 7.5 -72.5 -11.4 -36.15 65.0 -47.65 -5.2 2.55 28.65 12.25 -37.65 27.9 35.65 53.7 -78.55 49.45 -41.9 87.55 -112.0 61.0 -120.15 56.25 Q-136.3 47.4 -149.3 47.15 L-164.35 49.65 Q-173.6 51.15 -179.7 51.0 -188.75 51.0 -194.75 49.1 -204.75 46.0 -205.95 38.9 -206.75 31.8 -198.65 25.95 -193.3 22.15 -185.8 20.05 -175.45 17.2 -159.6 15.8 -147.5 14.85 -134.0 15.1 -137.7 14.25 -141.15 13.0 -152.1 9.1 -157.5 2.35 -160.05 -0.8 -160.85 -4.6 -161.55 -7.85 -160.8 -10.4 L-160.5 -11.25 -160.5 -11.35 -168.75 -12.3 -172.15 -13.05 M-159.7 -7.35 Q-159.3 -2.95 -155.95 1.05 -150.75 7.05 -140.25 10.55 -129.85 14.0 -117.6 13.9 -106.3 13.85 -96.7 10.65 -102.15 8.2 -106.0 4.65 -109.6 1.4 -111.0 -3.05 -112.25 -6.8 -111.5 -9.9 L-111.3 -10.85 -114.65 -11.1 -130.3 -10.35 Q-144.65 -10.25 -155.55 -10.95 L-158.35 -11.15 -159.3 -11.25 -159.65 -10.1 -159.7 -7.35 M-110.4 -9.8 Q-110.75 -6.8 -109.5 -3.55 -108.0 0.3 -104.6 3.15 -97.5 9.3 -84.25 11.7 -71.45 14.0 -56.6 12.15 -42.2 10.35 -29.85 5.1 -17.85 0.05 -10.95 -6.9 -4.9 -12.6 -3.9 -19.7 L-3.7 -22.45 Q-22.4 -19.05 -46.9 -16.25 L-57.5 -15.1 -85.05 -12.5 -110.3 -10.9 -110.4 -9.8" fill="#000000" fill-rule="evenodd" stroke="none"/>
  </g>
</svg>
