<?xml version="1.0" encoding="UTF-8" standalone="no"?>
<svg xmlns:ffdec="https://www.free-decompiler.com/flash" xmlns:xlink="http://www.w3.org/1999/xlink" ffdec:objectType="shape" height="29.95px" width="39.0px" xmlns="http://www.w3.org/2000/svg">
  <g transform="matrix(1.0, 0.0, 0.0, 1.0, 19.5, 14.95)">
    <path d="M16.4 -11.15 Q19.0 -6.9 19.0 -1.5 19.0 6.2 13.6 11.65 L13.05 12.2 Q-0.3 16.1 -10.55 13.45 L-12.55 11.65 Q-16.55 7.55 -17.5 2.2 -15.0 1.2 -11.25 -2.2 L-2.35 -10.2 Q7.9 -18.2 16.4 -11.15 M-0.35 0.6 Q-1.25 0.6 -1.9 1.2 -2.55 1.85 -2.55 2.75 -2.55 3.7 -1.9 4.3 -1.25 4.95 -0.35 4.95 0.6 4.95 1.25 4.3 1.9 3.7 1.9 2.75 1.9 1.85 1.25 1.2 0.6 0.6 -0.35 0.6" fill="#ffffff" fill-rule="evenodd" stroke="none"/>
    <path d="M-0.35 0.6 Q0.6 0.6 1.25 1.2 1.9 1.85 1.9 2.75 1.9 3.7 1.25 4.3 0.6 4.95 -0.35 4.95 -1.25 4.95 -1.9 4.3 -2.55 3.7 -2.55 2.75 -2.55 1.85 -1.9 1.2 -1.25 0.6 -0.35 0.6" fill="#000000" fill-rule="evenodd" stroke="none"/>
    <path d="M16.4 -11.15 L18.85 -8.75 M16.4 -11.15 Q19.0 -6.9 19.0 -1.5 19.0 6.2 13.6 11.65 L13.05 12.2 14.9 11.6 M-17.5 2.2 Q-15.0 1.2 -11.25 -2.2 L-2.35 -10.2 Q7.9 -18.2 16.4 -11.15 M-10.55 13.45 L-12.45 12.85 M-10.55 13.45 L-12.55 11.65 Q-16.55 7.55 -17.5 2.2 L-19.0 2.6 M13.05 12.2 Q-0.3 16.1 -10.55 13.45" fill="none" stroke="#000000" stroke-linecap="round" stroke-linejoin="round" stroke-width="1.0"/>
  </g>
</svg>
