<?xml version="1.0" encoding="UTF-8" standalone="no"?>
<svg xmlns:ffdec="https://www.free-decompiler.com/flash" xmlns:xlink="http://www.w3.org/1999/xlink" ffdec:objectType="shape" height="92.0px" width="202.2px" xmlns="http://www.w3.org/2000/svg">
  <g transform="matrix(1.0, 0.0, 0.0, 1.0, 107.65, 47.4)">
    <path d="M75.6 35.15 L75.3 35.05 73.5 34.25 72.7 33.85 71.0 33.15 69.2 32.4 66.45 31.25 65.95 31.05 62.6 29.7 62.15 29.5 64.1 25.25 68.05 26.9 71.55 28.3 75.0 29.75 77.95 30.85 75.6 35.15 M51.15 25.15 L52.55 20.25 54.8 21.3 57.2 22.3 59.95 23.5 64.1 25.25 62.15 29.5 59.0 28.2 55.0 26.65 53.25 25.9 51.15 25.15 M54.8 21.3 L53.25 25.9 54.8 21.3 M57.2 22.3 L55.0 26.65 57.2 22.3 M59.95 23.5 L59.0 28.2 59.95 23.5 M72.7 33.85 L75.0 29.75 72.7 33.85 M65.95 31.05 L68.05 26.9 65.95 31.05 M71.55 28.3 L69.2 32.4 71.55 28.3" fill="#e6e6e6" fill-rule="evenodd" stroke="none"/>
    <path d="M50.4 24.85 L23.7 14.9 23.6 14.85 -23.4 -3.05 Q-60.6 -16.75 -107.35 -37.2 -108.75 -43.75 -103.1 -47.4 -55.6 -28.85 -19.6 -12.25 L26.3 8.3 26.4 8.3 51.1 19.6 52.55 20.25 51.15 25.15 50.4 24.85 M78.9 31.2 L84.85 33.35 87.1 34.1 88.4 34.5 91.5 35.35 92.3 33.45 94.55 34.4 Q93.8 40.05 90.3 44.6 L88.05 43.65 88.85 41.75 Q84.6 39.15 75.6 35.15 L77.95 30.85 78.9 31.2 M-49.85 -18.25 L-90.55 -34.9 -49.85 -18.25 M-69.5 -23.15 L-94.45 -33.9 -69.5 -23.15 M-31.8 -13.85 Q-51.65 -23.45 -76.85 -33.7 -51.65 -23.45 -31.8 -13.85" fill="#999999" fill-rule="evenodd" stroke="none"/>
    <path d="M51.15 25.15 L52.55 20.25 M53.25 25.9 L54.8 21.3 M55.0 26.65 L57.2 22.3 M59.0 28.2 L59.95 23.5 M75.0 29.75 L72.7 33.85 M75.6 35.15 L77.95 30.85 M68.05 26.9 L65.95 31.05 M62.15 29.5 L64.1 25.25 M69.2 32.4 L71.55 28.3" fill="none" stroke="#000000" stroke-linecap="round" stroke-linejoin="round" stroke-width="0.05"/>
    <path d="M50.4 24.85 L23.7 14.9 23.6 14.85 -23.4 -3.05 Q-60.6 -16.75 -107.35 -37.2 -108.75 -43.75 -103.1 -47.4 -55.6 -28.85 -19.6 -12.25 L26.3 8.3 26.4 8.3 51.1 19.6 Q68.2 27.15 78.9 31.2 L84.85 33.35 87.1 34.1 88.4 34.5 91.5 35.35 92.3 33.45 94.55 34.4 Q93.8 40.05 90.3 44.6 L88.05 43.65 88.85 41.75 Q84.6 39.15 75.6 35.15 L75.3 35.05 73.5 34.25 71.0 33.15 69.2 32.4 66.45 31.25 65.95 31.05 62.6 29.7 50.4 24.85" fill="none" stroke="#000000" stroke-linecap="round" stroke-linejoin="round" stroke-opacity="0.6" stroke-width="0.05"/>
    <path d="M-76.85 -33.7 Q-51.65 -23.45 -31.8 -13.85 M-94.45 -33.9 L-69.5 -23.15 M-90.55 -34.9 L-49.85 -18.25" fill="none" stroke="#666666" stroke-linecap="round" stroke-linejoin="round" stroke-width="0.05"/>
  </g>
</svg>
