<?xml version="1.0" encoding="UTF-8" standalone="no"?>
<svg xmlns:ffdec="https://www.free-decompiler.com/flash" xmlns:xlink="http://www.w3.org/1999/xlink" ffdec:objectType="shape" height="74.75px" width="162.7px" xmlns="http://www.w3.org/2000/svg">
  <g transform="matrix(1.0, 0.0, 0.0, 1.0, 77.2, 39.25)">
    <path d="M-74.05 -37.15 L-73.2 -39.25 Q-45.5 -25.65 -6.65 -11.25 L-6.2 -10.2 -6.9 -8.5 Q-33.8 -19.2 -74.05 -37.15" fill="#161618" fill-rule="evenodd" stroke="none"/>
    <path d="M-77.2 -29.4 L-76.2 -31.9 Q-34.95 -16.5 -8.25 -5.25 L-9.1 -3.2 -10.15 -2.65 Q-47.95 -19.65 -77.2 -29.4" fill="#474750" fill-rule="evenodd" stroke="none"/>
    <path d="M-76.2 -31.9 L-74.05 -37.15 Q-33.8 -19.2 -6.9 -8.5 L-8.25 -5.25 Q-34.95 -16.5 -76.2 -31.9" fill="#303036" fill-rule="evenodd" stroke="none"/>
    <path d="M-6.2 -10.2 L6.9 -5.4 85.5 25.7 85.05 28.9 Q38.4 8.65 -6.9 -8.5 L-6.2 -10.2" fill="#333333" fill-rule="evenodd" stroke="none"/>
    <path d="M85.05 28.9 Q84.6 30.7 83.75 32.35 L-8.25 -5.25 -6.9 -8.5 Q38.4 8.65 85.05 28.9" fill="#666666" fill-rule="evenodd" stroke="none"/>
    <path d="M83.75 32.35 L81.45 35.5 3.65 2.6 -9.1 -3.2 -8.25 -5.25 83.75 32.35" fill="#999999" fill-rule="evenodd" stroke="none"/>
    <path d="M-73.2 -39.25 Q-45.5 -25.65 -6.65 -11.25 L-6.2 -10.2 6.9 -5.4 85.5 25.7 85.05 28.9 Q84.6 30.7 83.75 32.35 L81.45 35.5 3.65 2.6 -9.1 -3.2 -10.15 -2.65 Q-47.95 -19.65 -77.2 -29.4 M-8.25 -5.25 L-9.1 -3.2 M-6.9 -8.5 L-8.25 -5.25 M-6.2 -10.2 L-6.9 -8.5" fill="none" stroke="#000000" stroke-linecap="round" stroke-linejoin="round" stroke-opacity="0.6627451" stroke-width="0.05"/>
    <path d="M-77.2 -29.4 L-76.2 -31.9 -74.05 -37.15 -73.2 -39.25" fill="none" stroke="#000000" stroke-linecap="round" stroke-linejoin="round" stroke-opacity="0.4509804" stroke-width="0.05"/>
  </g>
</svg>
