<?xml version="1.0" encoding="UTF-8" standalone="no"?>
<svg xmlns:ffdec="https://www.free-decompiler.com/flash" xmlns:xlink="http://www.w3.org/1999/xlink" ffdec:objectType="shape" height="69.45px" width="147.15px" xmlns="http://www.w3.org/2000/svg">
  <g transform="matrix(1.0, 0.0, 0.0, 1.0, 121.95, 47.9)">
    <path d="M-61.15 -13.8 Q-91.7 -27.55 -121.65 -42.45 -122.9 -46.0 -119.3 -47.9 -89.85 -33.3 -59.9 -19.75 -61.8 -17.3 -61.15 -13.8 M-10.8 1.55 Q3.1 7.3 17.1 12.85 14.8 15.2 13.8 18.1 0.85 12.95 -11.95 7.6 -12.55 4.25 -10.8 1.55" fill="#000000" fill-rule="evenodd" stroke="none"/>
    <path d="M-26.95 -5.2 L-10.8 1.55 Q-12.55 4.25 -11.95 7.6 L-30.1 -0.1 Q-29.6 -3.1 -26.95 -5.2 M17.1 12.85 L25.2 16.1 23.0 21.55 13.8 18.1 Q14.8 15.2 17.1 12.85" fill="#333333" fill-rule="evenodd" stroke="none"/>
    <path d="M-59.9 -19.75 Q-43.5 -12.3 -26.95 -5.2 -29.6 -3.1 -30.1 -0.1 -45.7 -6.8 -61.15 -13.8 -61.8 -17.3 -59.9 -19.75" fill="#cccccc" fill-rule="evenodd" stroke="none"/>
    <path d="M-61.15 -13.8 Q-91.7 -27.55 -121.65 -42.45 -122.9 -46.0 -119.3 -47.9 -89.85 -33.3 -59.9 -19.75 -43.5 -12.3 -26.95 -5.2 L-10.8 1.55 Q3.1 7.3 17.1 12.85 L25.2 16.1 23.0 21.55 13.8 18.1 Q0.85 12.95 -11.95 7.6 L-30.1 -0.1 Q-45.7 -6.8 -61.15 -13.8 Z" fill="none" stroke="#000000" stroke-linecap="round" stroke-linejoin="round" stroke-opacity="0.5019608" stroke-width="0.05"/>
  </g>
</svg>
