<?xml version="1.0" encoding="UTF-8" standalone="no"?>
<svg xmlns:ffdec="https://www.free-decompiler.com/flash" xmlns:xlink="http://www.w3.org/1999/xlink" ffdec:objectType="shape" height="6.5px" width="61.8px" xmlns="http://www.w3.org/2000/svg">
  <g transform="matrix(1.0, 0.0, 0.0, 1.0, 54.2, 3.15)">
    <path d="M3.0 -0.9 L4.0 -0.95 Q3.75 0.15 4.45 1.0 4.3 0.05 4.85 -0.95 L5.7 -1.0 Q5.55 -0.05 6.05 0.95 L4.45 1.0 2.6 1.05 0.65 1.15 -0.4 1.15 -1.05 1.15 -1.55 1.2 -1.55 -0.15 -1.05 1.15 Q-1.4 0.0 -0.75 -0.8 L-0.4 -0.8 0.15 -0.8 Q0.0 0.25 0.65 1.15 0.4 0.15 1.05 -0.85 L2.15 -0.85 Q1.95 0.2 2.6 1.05 2.5 0.05 3.0 -0.9 M6.55 -1.05 L7.4 -1.05 Q7.8 -0.1 7.4 0.85 L6.05 0.95 Q5.95 -0.05 6.55 -1.05" fill="#000000" fill-rule="evenodd" stroke="none"/>
    <path d="M2.15 -0.85 L3.0 -0.9 Q2.5 0.05 2.6 1.05 1.95 0.2 2.15 -0.85 M4.0 -0.95 L4.85 -0.95 Q4.3 0.05 4.45 1.0 3.75 0.15 4.0 -0.95 M5.7 -1.0 L6.55 -1.05 Q5.95 -0.05 6.05 0.95 5.55 -0.05 5.7 -1.0 M-3.05 1.0 Q-26.5 1.75 -52.2 0.5 -53.3 0.2 -54.2 -0.75 -28.85 0.45 -3.1 -0.4 L-3.05 1.0 M-3.1 -0.5 L-3.15 -2.0 -1.65 -2.05 -1.6 -0.75 -0.75 -0.8 Q-1.4 0.0 -1.05 1.15 L-1.55 -0.15 -1.6 -0.55 -1.6 -0.75 -1.6 -0.55 -3.1 -0.5 M0.15 -0.8 L0.6 -0.8 1.05 -0.85 Q0.4 0.15 0.65 1.15 0.0 0.25 0.15 -0.8" fill="#ffffff" fill-rule="evenodd" stroke="none"/>
    <path d="M-1.55 1.2 L-1.5 3.3 -3.0 3.35 -3.05 1.0 -3.1 -0.4 -3.1 -0.5 -1.6 -0.55 -1.55 -0.15 -1.55 1.2 M-3.15 -2.0 L-3.15 -3.15 -1.65 -3.15 -1.65 -2.05 -3.15 -2.0" fill="#cccccc" fill-rule="evenodd" stroke="none"/>
    <path d="M2.15 -0.85 L3.0 -0.9 4.0 -0.95 4.85 -0.95 5.7 -1.0 6.55 -1.05 7.4 -1.05 Q7.8 -0.1 7.4 0.85 L6.05 0.95 4.45 1.0 2.6 1.05 0.65 1.15 -0.4 1.15 -1.05 1.15 -1.55 1.2 -1.5 3.3 -3.0 3.35 -3.05 1.0 Q-26.5 1.75 -52.2 0.5 -53.3 0.2 -54.2 -0.75 -28.85 0.45 -3.1 -0.4 L-3.1 -0.5 -3.15 -2.0 -3.15 -3.15 -1.65 -3.15 -1.65 -2.05 -1.6 -0.75 -0.75 -0.8 -0.4 -0.8 0.15 -0.8 0.6 -0.8 1.05 -0.85 2.15 -0.85 M-1.6 -0.55 L-1.55 -0.15 -1.55 1.2 M-1.6 -0.75 L-1.6 -0.55 M-3.05 1.0 L-3.1 -0.4" fill="none" stroke="#000000" stroke-linecap="round" stroke-linejoin="round" stroke-opacity="0.5019608" stroke-width="0.05"/>
  </g>
</svg>
