<?xml version="1.0" encoding="UTF-8" standalone="no"?>
<svg xmlns:ffdec="https://www.free-decompiler.com/flash" xmlns:xlink="http://www.w3.org/1999/xlink" ffdec:objectType="shape" height="64.0px" width="106.55px" xmlns="http://www.w3.org/2000/svg">
  <g transform="matrix(1.0, 0.0, 0.0, 1.0, 7.1, 20.2)">
    <path d="M35.8 -7.85 L19.4 -10.5 35.8 -7.85 25.75 8.35 20.3 17.15 14.35 16.2 15.25 10.7 -7.1 7.1 -6.45 3.15 11.6 6.05 15.15 -15.75 38.35 -12.0 35.8 -7.85 M16.6 6.85 L11.6 6.05 16.6 6.85 19.4 -10.5 16.6 6.85 25.75 8.35 16.6 6.85 M47.15 -10.6 L54.0 -9.5 55.7 -9.2 56.4 -13.35 63.25 -9.75 61.1 3.4 66.25 5.4 92.5 6.65 99.45 13.9 Q95.0 16.3 90.6 18.65 L65.25 11.55 59.75 11.8 59.1 15.85 52.45 13.2 50.45 12.35 43.95 11.3 35.5 9.95 34.55 9.8 44.55 -6.4 46.75 -6.05 44.55 -6.4 47.15 -10.6 M46.75 -6.05 L43.95 11.3 46.75 -6.05 M61.1 3.4 L52.5 -0.05 54.0 -9.5 52.5 -0.05 61.1 3.4 M59.75 11.8 L50.45 12.35 52.5 -0.05 50.45 12.35 59.75 11.8 M29.05 18.6 L30.65 16.05 30.2 18.75 29.05 18.6" fill="#666666" fill-rule="evenodd" stroke="none"/>
    <path d="M64.7 18.1 L71.7 20.9 Q71.0 38.3 60.55 43.8 L64.7 18.1 M54.8 42.4 Q51.4 41.45 48.1 40.2 L52.45 13.2 59.1 15.85 54.8 42.4" fill="#4d4d4d" fill-rule="evenodd" stroke="none"/>
    <path d="M59.1 15.85 L64.7 18.1 60.55 43.8 54.8 42.4 59.1 15.85 M48.1 40.2 Q44.05 38.7 40.15 36.8 31.9 28.45 35.5 9.95 L43.95 11.3 50.45 12.35 52.45 13.2 48.1 40.2" fill="#808080" fill-rule="evenodd" stroke="none"/>
    <path d="M40.15 36.8 L35.95 34.5 Q29.25 29.8 29.3 24.25 L30.2 18.75 30.65 16.05 34.55 9.8 35.5 9.95 Q31.9 28.45 40.15 36.8" fill="#c4c4c4" fill-rule="evenodd" stroke="none"/>
    <path d="M35.8 -7.85 L38.35 -12.0 40.25 -15.1 41.35 -16.8 Q42.25 -18.3 43.65 -18.65 45.35 -19.0 46.85 -18.05 L47.0 -18.0 Q48.45 -17.1 48.7 -15.55 49.2 -14.0 48.3 -12.5 L47.15 -10.6 44.55 -6.4 34.55 9.8 30.65 16.05 29.05 18.6 25.9 23.7 25.15 24.9 Q24.2 26.4 22.55 26.8 21.1 27.15 19.65 26.25 L19.5 26.1 Q18.0 25.2 17.5 23.7 17.3 22.4 17.85 21.2 L18.15 20.6 20.3 17.15 25.75 8.35 35.8 -7.85" fill="#a2a2a2" fill-rule="evenodd" stroke="none"/>
    <path d="M40.25 -15.1 L41.1 -20.2 57.1 -17.6 56.4 -13.35 55.7 -9.2 54.0 -9.5 47.15 -10.6 48.3 -12.5 Q49.2 -14.0 48.7 -15.55 48.45 -17.1 47.0 -18.0 L46.85 -18.05 Q45.35 -19.0 43.65 -18.65 42.25 -18.3 41.35 -16.8 L40.25 -15.1 M29.3 24.25 L25.9 23.7 29.05 18.6 30.2 18.75 29.3 24.25 M17.85 21.2 L14.35 16.2 -2.3 13.5 -7.1 7.1 15.25 10.7 14.35 16.2 20.3 17.15 18.15 20.6 17.85 21.2" fill="#333333" fill-rule="evenodd" stroke="none"/>
    <path d="M35.8 -7.85 L38.35 -12.0 15.15 -15.75 11.6 6.05 16.6 6.85 25.75 8.35 35.8 -7.85 M40.25 -15.1 L38.35 -12.0 M56.4 -13.35 L57.1 -17.6 41.1 -20.2 40.25 -15.1 41.35 -16.8 Q42.25 -18.3 43.65 -18.65 45.35 -19.0 46.85 -18.05 L47.0 -18.0 Q48.45 -17.1 48.7 -15.55 49.2 -14.0 48.3 -12.5 L47.15 -10.6 54.0 -9.5 55.7 -9.2 56.4 -13.35 63.25 -9.75 61.1 3.4 66.25 5.4 92.5 6.65 99.45 13.9 Q95.0 16.3 90.6 18.65 L65.25 11.55 59.75 11.8 59.1 15.85 64.7 18.1 71.7 20.9 Q71.0 38.3 60.55 43.8 L54.8 42.4 Q51.4 41.45 48.1 40.2 44.05 38.7 40.15 36.8 L35.95 34.5 Q29.25 29.8 29.3 24.25 L25.9 23.7 25.15 24.9 Q24.2 26.4 22.55 26.8 21.1 27.15 19.65 26.25 L19.5 26.1 Q18.0 25.2 17.5 23.7 17.3 22.4 17.85 21.2 L14.35 16.2 -2.3 13.5 -7.1 7.1 -6.45 3.15 11.6 6.05 M44.55 -6.4 L34.55 9.8 35.5 9.95 43.95 11.3 50.45 12.35 59.75 11.8 M44.55 -6.4 L47.15 -10.6 M54.0 -9.5 L52.5 -0.05 61.1 3.4 M52.45 13.2 L50.45 12.35 52.5 -0.05 M52.45 13.2 L59.1 15.85 M25.9 23.7 L29.05 18.6 30.65 16.05 34.55 9.8 M30.2 18.75 L30.65 16.05 M30.2 18.75 L29.3 24.25 M20.3 17.15 L25.75 8.35 M20.3 17.15 L18.15 20.6 17.85 21.2" fill="none" stroke="#000000" stroke-linecap="round" stroke-linejoin="round" stroke-width="0.05"/>
    <path d="M19.4 -10.5 L35.8 -7.85 M46.75 -6.05 L44.55 -6.4" fill="none" stroke="#ffffff" stroke-linecap="round" stroke-linejoin="round" stroke-opacity="0.101960786" stroke-width="0.05"/>
    <path d="M43.95 11.3 L46.75 -6.05" fill="none" stroke="#000000" stroke-linecap="round" stroke-linejoin="round" stroke-opacity="0.33333334" stroke-width="0.05"/>
    <path d="M16.6 6.85 L19.4 -10.5" fill="none" stroke="#ffffff" stroke-linecap="round" stroke-linejoin="round" stroke-opacity="0.33333334" stroke-width="0.05"/>
  </g>
</svg>
