<?xml version="1.0" encoding="UTF-8" standalone="no"?>
<svg xmlns:ffdec="https://www.free-decompiler.com/flash" xmlns:xlink="http://www.w3.org/1999/xlink" ffdec:objectType="shape" height="121.75px" width="183.55px" xmlns="http://www.w3.org/2000/svg">
  <g transform="matrix(1.0, 0.0, 0.0, 1.0, 111.05, 74.6)">
    <path d="M31.75 -53.95 L34.8 -49.95 32.0 -46.2 Q19.75 -45.05 8.85 -38.85 -2.05 -32.6 -1.05 -26.0 L-40.9 -10.6 -76.8 2.85 -78.0 0.6 Q-79.65 -3.1 -82.1 -5.85 L-40.65 -21.4 -40.35 -26.5 31.75 -53.95 M69.55 21.9 L70.6 23.9 72.5 26.95 67.05 32.8 65.05 29.5 Q52.85 40.85 41.35 42.95 L40.1 40.4 Q48.5 35.3 47.7 27.2 L48.55 27.8 Q49.85 28.15 50.95 27.8 52.1 27.4 52.65 26.4 53.4 24.8 53.0 23.7 58.3 25.5 69.55 21.9 M-4.25 -63.25 L-0.5 -67.25 Q1.6 -69.05 0.6 -74.6 4.8 -73.8 6.6 -67.55 L-4.25 -63.25" fill="#a5a4ae" fill-rule="evenodd" stroke="none"/>
    <path d="M-43.55 -48.7 L-25.7 -54.9 -21.3 -44.2 -20.0 -41.25 -33.45 -36.1 Q-38.3 -35.4 -39.9 -39.2 L-43.55 -48.7 M47.7 27.2 L46.7 26.1 Q46.4 24.95 47.05 23.85 47.55 22.3 48.55 21.9 49.7 21.35 50.9 22.1 52.45 22.5 53.0 23.7 53.4 24.8 52.65 26.4 52.1 27.4 50.95 27.8 49.85 28.15 48.55 27.8 L47.7 27.2" fill="#dbdbdf" fill-rule="evenodd" stroke="none"/>
    <path d="M-108.05 -23.55 L-107.85 -27.4 -91.35 -30.1 -108.05 -23.55" fill="#262633" fill-rule="evenodd" stroke="none"/>
    <path d="M32.0 -46.2 Q28.55 -41.1 28.2 -37.2 57.95 -2.1 69.55 21.9 58.3 25.5 53.0 23.7 52.45 22.5 50.9 22.1 49.7 21.35 48.55 21.9 47.55 22.3 47.05 23.85 46.4 24.95 46.7 26.1 L47.7 27.2 Q48.5 35.3 40.1 40.4 31.6 21.0 22.7 6.0 11.15 -13.75 -1.05 -26.0 -2.05 -32.6 8.85 -38.85 19.75 -45.05 32.0 -46.2 M67.05 32.8 Q53.65 45.8 39.05 47.15 L37.75 44.15 41.35 42.95 Q52.85 40.85 65.05 29.5 L67.05 32.8 M-102.65 -8.25 L-105.1 -7.15 -111.05 -22.7 -108.05 -23.55 -91.35 -30.1 -43.55 -48.7 -39.9 -39.2 Q-38.3 -35.4 -33.45 -36.1 L-20.0 -41.25 -2.15 -47.45 -3.2 -51.0 -21.3 -44.2 -25.7 -54.9 -4.25 -63.25 6.6 -67.55 11.2 -69.0 Q24.4 -63.1 31.75 -53.95 L-40.35 -26.5 -40.65 -21.4 -82.1 -5.85 Q-85.95 -10.45 -92.2 -12.1 L-102.65 -8.25" fill="#333333" fill-rule="evenodd" stroke="none"/>
    <path d="M22.7 6.0 Q16.3 1.9 13.55 3.0 -11.3 12.05 -21.1 12.65 L-25.3 10.75 Q-24.5 -3.2 -40.9 -10.6 L-1.05 -26.0 Q11.15 -13.75 22.7 6.0 M-78.0 0.6 L-96.5 7.35 -102.65 -8.25 -92.2 -12.1 Q-85.95 -10.45 -82.1 -5.85 -79.65 -3.1 -78.0 0.6 M-20.0 -41.25 L-21.3 -44.2 -3.2 -51.0 -2.15 -47.45 -20.0 -41.25 M-10.25 -18.1 L-14.65 -17.0 -10.25 -18.1 Q-2.2 -5.75 -10.9 -0.9 -4.8 -8.15 -14.65 -17.0 -29.1 -10.1 -25.25 -2.1 -18.5 7.6 -2.2 4.95 13.55 -2.9 7.4 -13.05 3.1 -19.85 -10.25 -18.1" fill="#000000" fill-rule="evenodd" stroke="none"/>
    <path d="M31.75 -53.95 L34.8 -49.95 32.0 -46.2 Q28.55 -41.1 28.2 -37.2 57.95 -2.1 69.55 21.9 L70.6 23.9 72.5 26.95 67.05 32.8 Q53.65 45.8 39.05 47.15 L37.75 44.15 41.35 42.95 40.1 40.4 Q31.6 21.0 22.7 6.0 16.3 1.9 13.55 3.0 -11.3 12.05 -21.1 12.65 L-25.3 10.75 Q-24.5 -3.2 -40.9 -10.6 L-76.8 2.85 -78.0 0.6 -96.5 7.35 -102.65 -8.25 -105.1 -7.15 -111.05 -22.7 -108.05 -23.55 -107.85 -27.4 -91.35 -30.1 -43.55 -48.7 -25.7 -54.9 -4.25 -63.25 -0.5 -67.25 Q1.6 -69.05 0.6 -74.6 4.8 -73.8 6.6 -67.55 L11.2 -69.0 Q24.4 -63.1 31.75 -53.95 L-40.35 -26.5 -40.65 -21.4 -82.1 -5.85 Q-79.65 -3.1 -78.0 0.6 M32.0 -46.2 Q19.75 -45.05 8.85 -38.85 -2.05 -32.6 -1.05 -26.0 11.15 -13.75 22.7 6.0 M-108.05 -23.55 L-91.35 -30.1 M-82.1 -5.85 Q-85.95 -10.45 -92.2 -12.1 L-102.65 -8.25 M-20.0 -41.25 L-21.3 -44.2 -25.7 -54.9 M-14.65 -17.0 L-10.25 -18.1 Q3.1 -19.85 7.4 -13.05 13.55 -2.9 -2.2 4.95 -18.5 7.6 -25.25 -2.1 -29.1 -10.1 -14.65 -17.0 -4.8 -8.15 -10.9 -0.9 -2.2 -5.75 -10.25 -18.1 M-43.55 -48.7 L-39.9 -39.2 Q-38.3 -35.4 -33.45 -36.1 L-20.0 -41.25 M-1.05 -26.0 L-40.9 -10.6 M67.05 32.8 L65.05 29.5 Q52.85 40.85 41.35 42.95 M-4.25 -63.25 L6.6 -67.55" fill="none" stroke="#000000" stroke-linecap="round" stroke-linejoin="round" stroke-opacity="0.6" stroke-width="0.05"/>
  </g>
</svg>
