<?xml version="1.0" encoding="UTF-8" standalone="no"?>
<svg xmlns:ffdec="https://www.free-decompiler.com/flash" xmlns:xlink="http://www.w3.org/1999/xlink" ffdec:objectType="shape" height="81.9px" width="213.55px" xmlns="http://www.w3.org/2000/svg">
  <g transform="matrix(1.0, 0.0, 0.0, 1.0, 119.85, 46.1)">
    <path d="M18.95 5.0 L18.45 7.0 15.3 6.1 2.05 2.5 0.25 1.95 -1.8 1.4 -8.35 -0.45 -9.35 -0.7 -10.55 -1.05 -14.05 -2.1 -21.4 -3.95 -24.95 -5.1 -33.85 -7.45 -32.95 -10.55 -30.9 -17.6 -30.15 -20.4 -28.9 -25.35 6.7 -15.55 14.45 -13.55 22.65 -8.5 20.1 0.75 18.95 5.0 M-25.8 -16.75 L-24.05 -16.45 -9.05 -12.2 -7.8 -16.45 -22.9 -20.7 -24.6 -21.1 -26.8 -21.8 -28.05 -17.45 -25.8 -16.75" fill="#515151" fill-rule="evenodd" stroke="none"/>
    <path d="M-44.15 33.0 L-48.15 27.15 Q-24.45 14.95 -21.4 -3.95 L-14.05 -2.1 Q-20.5 23.4 -44.15 33.0 M-65.7 -17.35 L-69.0 -18.25 -68.45 -20.25 -67.75 -23.15 -66.25 -28.7 -65.35 -31.7 -64.85 -33.35 -61.65 -32.45 -62.35 -29.65 -63.2 -26.7 -65.35 -18.75 -65.7 -17.35 M-85.55 -24.95 L-85.85 -24.2 -93.6 -26.3 -93.4 -27.1 -92.5 -30.15 -92.35 -30.65 -91.45 -30.35 -79.15 -36.5 -76.65 -35.8 -77.1 -34.8 -77.9 -31.9 -78.15 -30.75 -86.0 -28.85 -84.6 -28.45 -84.85 -27.95 -85.55 -24.95 M-111.3 -32.1 L-111.5 -31.3 -119.85 -33.7 -118.65 -38.15 -117.95 -37.95 -111.3 -36.1 -110.25 -35.7 -110.6 -35.1 -111.3 -32.1 M-28.9 -25.35 L-15.8 -23.4 4.9 -20.0 5.6 -17.45 7.15 -16.95 6.7 -15.55 -28.9 -25.35 M-86.0 -28.85 L-91.45 -30.35 -86.0 -28.85 M0.25 1.95 Q-0.35 5.35 -4.05 5.95 -1.7 4.35 -1.8 1.4 L0.25 1.95 M-15.8 -23.4 L5.6 -17.45 -15.8 -23.4" fill="#3f3f3f" fill-rule="evenodd" stroke="none"/>
    <path d="M89.45 27.45 Q87.95 30.35 86.0 32.95 69.85 24.0 49.15 14.95 37.05 9.55 23.45 4.15 21.65 2.95 18.95 5.0 L20.1 0.75 23.85 0.3 Q36.75 4.6 48.45 9.2 71.15 17.85 89.45 27.45 M5.85 9.15 Q-3.25 10.05 -8.1 7.3 -10.85 4.2 -9.35 -0.7 L-8.35 -0.45 Q-9.3 3.75 -6.2 6.8 0.8 9.2 4.45 7.1 L5.85 8.2 5.85 9.15 M-10.55 -1.05 Q-19.15 28.0 -42.35 35.8 L-44.15 33.0 Q-20.5 23.4 -14.05 -2.1 L-10.55 -1.05 M-48.15 27.15 L-50.0 24.05 Q-31.4 16.1 -24.95 -5.1 L-21.4 -3.95 Q-24.45 14.95 -48.15 27.15 M-33.85 -7.45 Q-39.2 -4.5 -43.2 -7.4 -47.3 -10.25 -51.65 -11.45 L-64.55 -15.1 -65.7 -17.35 -65.35 -18.75 -46.75 -13.5 -39.25 -10.1 Q-35.75 -9.15 -32.95 -10.55 L-33.85 -7.45 M-68.45 -20.25 L-85.55 -24.95 -84.85 -27.95 -67.75 -23.15 -68.45 -20.25 M-93.4 -27.1 L-111.3 -32.1 -110.6 -35.1 -92.5 -30.15 -93.4 -27.1 M-117.95 -37.95 L-115.6 -46.1 -114.05 -45.5 -114.35 -44.0 -111.3 -36.1 -117.95 -37.95 M-77.1 -34.8 L-65.35 -31.7 -66.25 -28.7 -77.9 -31.9 -77.1 -34.8 M-62.35 -29.65 L-30.15 -20.4 -30.9 -17.6 -32.6 -18.2 -32.3 -19.5 -39.9 -21.6 -40.15 -20.3 -46.1 -21.95 -45.55 -23.05 -53.2 -25.2 -53.6 -23.85 -63.2 -26.7 -62.35 -29.65 M-25.8 -16.75 L-28.05 -17.45 -26.8 -21.8 -24.6 -21.1 -25.8 -16.75 M-22.9 -20.7 L-7.8 -16.45 -9.05 -12.2 -24.05 -16.45 -22.9 -20.7" fill="#666666" fill-rule="evenodd" stroke="none"/>
    <path d="M-24.05 -16.45 L-25.8 -16.75 -24.6 -21.1 -22.9 -20.7 -24.05 -16.45" fill="#9e9e9e" fill-rule="evenodd" stroke="none"/>
    <path d="M22.65 -8.5 L40.1 -2.1 44.0 -3.05 93.7 12.45 Q92.8 20.85 89.45 27.45 71.15 17.85 48.45 9.2 36.75 4.6 23.85 0.3 L20.1 0.75 22.65 -8.5 M15.3 6.1 Q12.5 6.95 12.65 10.7 L12.75 11.45 Q12.55 24.4 10.75 28.35 5.95 31.85 1.1 28.0 4.9 23.05 5.3 16.7 L5.55 12.3 5.75 9.95 5.85 9.15 5.85 8.2 4.45 7.1 Q2.4 5.5 2.05 2.5 L15.3 6.1 M-61.65 -32.45 L-59.45 -33.7 -28.9 -25.35 -30.15 -20.4 -62.35 -29.65 -61.65 -32.45 M-65.35 -18.75 L-63.2 -26.7 -53.6 -23.85 -46.1 -21.95 -40.15 -20.3 -32.6 -18.2 -30.9 -17.6 -32.95 -10.55 Q-35.75 -9.15 -39.25 -10.1 L-46.75 -13.5 -65.35 -18.75" fill="#999999" fill-rule="evenodd" stroke="none"/>
    <path d="M22.65 -8.5 L40.1 -2.1 44.0 -3.05 93.7 12.45 Q92.8 20.85 89.45 27.45 87.95 30.35 86.0 32.95 69.85 24.0 49.15 14.95 37.05 9.55 23.45 4.15 21.65 2.95 18.95 5.0 L18.45 7.0 15.3 6.1 Q12.5 6.95 12.65 10.7 L12.75 11.45 Q12.55 24.4 10.75 28.35 5.95 31.85 1.1 28.0 4.9 23.05 5.3 16.7 L5.55 12.3 5.75 9.95 5.85 9.15 Q-3.25 10.05 -8.1 7.3 -10.85 4.2 -9.35 -0.7 L-10.55 -1.05 Q-19.15 28.0 -42.35 35.8 L-44.15 33.0 -48.15 27.15 -50.0 24.05 Q-31.4 16.1 -24.95 -5.1 L-33.85 -7.45 Q-39.2 -4.5 -43.2 -7.4 -47.3 -10.25 -51.65 -11.45 L-64.55 -15.1 -65.7 -17.35 -69.0 -18.25 -68.45 -20.25 -85.55 -24.95 -85.85 -24.2 -93.6 -26.3 -93.4 -27.1 -111.3 -32.1 -111.5 -31.3 -119.85 -33.7 -118.65 -38.15 -117.95 -37.95 -115.6 -46.1 -114.05 -45.5 -114.35 -44.0 -111.3 -36.1 -110.25 -35.7 -110.6 -35.1 -92.5 -30.15 -92.35 -30.65 -91.45 -30.35 -79.15 -36.5 -76.65 -35.8 -77.1 -34.8 -65.35 -31.7 -64.85 -33.35 -61.65 -32.45 -59.45 -33.7 -28.9 -25.35 -15.8 -23.4 4.9 -20.0 5.6 -17.45 7.15 -16.95 6.7 -15.55 14.45 -13.55 22.65 -8.5 20.1 0.75 18.95 5.0 M0.25 1.95 L2.05 2.5 15.3 6.1 M5.85 9.15 L5.85 8.2 4.45 7.1 Q0.8 9.2 -6.2 6.8 -9.3 3.75 -8.35 -0.45 L-9.35 -0.7 M4.45 7.1 Q2.4 5.5 2.05 2.5 M-77.9 -31.9 L-78.15 -30.75 -86.0 -28.85 -84.6 -28.45 -84.85 -27.95 -67.75 -23.15 -66.25 -28.7 -77.9 -31.9 -77.1 -34.8 M-84.85 -27.95 L-85.55 -24.95 M-93.4 -27.1 L-92.5 -30.15 M-91.45 -30.35 L-86.0 -28.85 M-111.3 -32.1 L-110.6 -35.1 M-111.3 -36.1 L-117.95 -37.95 M-61.65 -32.45 L-62.35 -29.65 -63.2 -26.7 -53.6 -23.85 -53.2 -25.2 -45.55 -23.05 -46.1 -21.95 -40.15 -20.3 -39.9 -21.6 -32.3 -19.5 -32.6 -18.2 -30.9 -17.6 -30.15 -20.4 -28.9 -25.35 6.7 -15.55 M-66.25 -28.7 L-65.35 -31.7 M-65.7 -17.35 L-65.35 -18.75 -63.2 -26.7 M-68.45 -20.25 L-67.75 -23.15 M-46.1 -21.95 L-53.6 -23.85 M-32.95 -10.55 L-30.9 -17.6 M-24.05 -16.45 L-25.8 -16.75 -28.05 -17.45 -26.8 -21.8 -24.6 -21.1 -22.9 -20.7 -7.8 -16.45 -9.05 -12.2 -24.05 -16.45 -22.9 -20.7 M-25.8 -16.75 L-24.6 -21.1 M-40.15 -20.3 L-32.6 -18.2 M-32.95 -10.55 L-33.85 -7.45 M-24.95 -5.1 L-21.4 -3.95 -14.05 -2.1 -10.55 -1.05 M-1.8 1.4 Q-1.7 4.35 -4.05 5.95 -0.35 5.35 0.25 1.95 L-1.8 1.4 -8.35 -0.45 M-44.15 33.0 Q-20.5 23.4 -14.05 -2.1 M-21.4 -3.95 Q-24.45 14.95 -48.15 27.15 M5.6 -17.45 L-15.8 -23.4" fill="none" stroke="#000000" stroke-linecap="round" stroke-linejoin="round" stroke-opacity="0.6" stroke-width="0.05"/>
  </g>
</svg>
