<?xml version="1.0" encoding="UTF-8" standalone="no"?>
<svg xmlns:ffdec="https://www.free-decompiler.com/flash" xmlns:xlink="http://www.w3.org/1999/xlink" ffdec:objectType="shape" height="72.7px" width="192.05px" xmlns="http://www.w3.org/2000/svg">
  <g transform="matrix(1.0, 0.0, 0.0, 1.0, 107.95, 40.1)">
    <path d="M-1.95 -3.6 L-2.1 -2.85 -19.3 -7.55 -61.2 -19.2 -62.45 -19.5 -107.95 -32.15 -107.75 -32.9 -1.95 -3.6 M11.6 7.2 Q13.8 9.2 11.55 11.95 9.25 14.7 4.9 14.0 0.55 13.25 0.7 10.45 0.75 7.7 2.9 6.9 L3.75 6.85 Q1.25 8.9 1.8 11.15 2.4 13.35 6.6 13.0 10.8 12.7 11.3 10.25 11.7 7.8 10.5 7.15 L11.6 7.2" fill="#2d2e39" fill-rule="evenodd" stroke="none"/>
    <path d="M-2.1 -2.85 L-2.4 -1.9 -13.8 -5.1 -19.6 -6.7 -19.3 -7.55 -2.1 -2.85" fill="#17171e" fill-rule="evenodd" stroke="none"/>
    <path d="M-0.25 -9.8 L-0.7 -7.95 -106.5 -37.25 -107.45 -37.5 -106.75 -40.1 -103.65 -38.45 -0.25 -9.8" fill="#000000" fill-rule="evenodd" stroke="none"/>
    <path d="M6.5 -5.8 L6.65 -6.6 29.75 2.9 33.1 1.55 84.1 11.95 79.3 26.9 18.3 3.9 18.65 3.7 Q17.15 -1.55 6.5 -5.8 M-19.3 -7.55 L-19.6 -6.7 -20.45 -3.5 -54.85 -13.9 Q-59.7 -15.6 -61.2 -19.2 L-19.3 -7.55" fill="#666666" fill-rule="evenodd" stroke="none"/>
    <path d="M3.2 5.95 L6.5 -5.8 Q17.15 -1.55 18.65 3.7 L18.3 3.9 Q12.9 6.6 3.2 5.95" fill="#999999" fill-rule="evenodd" stroke="none"/>
    <path d="M-2.1 -2.85 Q1.5 -1.75 2.6 -5.2 3.5 -7.9 0.5 -9.45 3.5 -7.9 2.6 -5.2 1.5 -1.75 -2.1 -2.85 L-1.95 -3.6 -1.45 -5.2 -0.7 -7.95 -1.45 -5.2 -107.35 -34.5 -106.5 -37.25 -0.7 -7.95 -0.25 -9.8 0.5 -9.45 6.65 -6.6 6.5 -5.8 3.2 5.95 2.9 6.9 3.2 5.95 Q12.9 6.6 18.3 3.9 L79.3 26.9 77.45 32.6 11.6 7.2 10.5 7.15 8.15 7.05 6.85 6.95 6.0 7.0 3.75 6.85 2.9 6.9 -15.55 1.2 Q-18.45 -3.0 -13.8 -5.1 -18.45 -3.0 -15.55 1.2 L-21.3 -0.55 -52.75 -10.25 Q-62.05 -13.15 -62.45 -19.5 L-61.2 -19.2 Q-59.7 -15.6 -54.85 -13.9 L-20.45 -3.5 -21.3 -0.55 -20.45 -3.5 -19.6 -6.7 -13.8 -5.1 -2.4 -1.9 -2.1 -2.85" fill="#333333" fill-rule="evenodd" stroke="none"/>
    <path d="M-1.45 -5.2 L-1.95 -3.6 -107.75 -32.9 -107.35 -34.5 -1.45 -5.2 M6.0 7.0 L6.85 6.95 8.15 7.05 Q10.4 8.45 8.75 11.3 9.4 8.2 6.85 6.95 6.95 10.65 4.35 10.85 6.2 10.0 6.0 7.0" fill="#cccccc" fill-rule="evenodd" stroke="none"/>
    <path d="M0.5 -9.45 Q3.5 -7.9 2.6 -5.2 1.5 -1.75 -2.1 -2.85 L-2.4 -1.9 -13.8 -5.1 Q-18.45 -3.0 -15.55 1.2 L2.9 6.9 3.2 5.95 6.5 -5.8 6.65 -6.6 0.5 -9.45 -0.25 -9.8 -0.7 -7.95 -1.45 -5.2 -1.95 -3.6 -2.1 -2.85 -19.3 -7.55 -19.6 -6.7 -13.8 -5.1 M79.3 26.9 L77.45 32.6 11.6 7.2 Q13.8 9.2 11.55 11.95 9.25 14.7 4.9 14.0 0.55 13.25 0.7 10.45 0.75 7.7 2.9 6.9 L3.75 6.85 6.0 7.0 6.85 6.95 8.15 7.05 10.5 7.15 11.6 7.2 M6.65 -6.6 L29.75 2.9 33.1 1.55 84.1 11.95 79.3 26.9 M10.5 7.15 Q11.7 7.8 11.3 10.25 10.8 12.7 6.6 13.0 2.4 13.35 1.8 11.15 1.25 8.9 3.75 6.85 M8.15 7.05 Q10.4 8.45 8.75 11.3 9.4 8.2 6.85 6.95 6.95 10.65 4.35 10.85 6.2 10.0 6.0 7.0 M-107.35 -34.5 L-106.5 -37.25 -107.45 -37.5 -106.75 -40.1 -103.65 -38.45 -0.25 -9.8 M-107.75 -32.9 L-107.35 -34.5 M-107.75 -32.9 L-107.95 -32.15 -62.45 -19.5 -61.2 -19.2 -19.3 -7.55 M-62.45 -19.5 Q-62.05 -13.15 -52.75 -10.25 L-21.3 -0.55 -20.45 -3.5 -19.6 -6.7 M-21.3 -0.55 L-15.55 1.2" fill="none" stroke="#000000" stroke-linecap="round" stroke-linejoin="round" stroke-opacity="0.6" stroke-width="0.05"/>
  </g>
</svg>
