<?xml version="1.0" encoding="UTF-8" standalone="no"?>
<svg xmlns:ffdec="https://www.free-decompiler.com/flash" xmlns:xlink="http://www.w3.org/1999/xlink" ffdec:objectType="shape" height="103.6px" width="197.45px" xmlns="http://www.w3.org/2000/svg">
  <g transform="matrix(1.0, 0.0, 0.0, 1.0, 114.45, 53.85)">
    <path d="M64.8 39.4 L65.8 38.35 69.1 33.85 Q73.1 26.9 73.25 17.45 L74.6 17.35 74.65 17.4 Q74.6 32.8 65.65 40.6 L64.8 39.4" fill="#34353a" fill-rule="evenodd" stroke="none"/>
    <path d="M19.25 -47.55 L19.55 -50.65 41.35 -48.7 41.5 -50.05 51.9 -49.1 52.3 -53.85 54.3 -53.65 58.45 -48.95 61.9 -48.65 61.7 -46.8 71.8 -45.9 71.65 -44.5 75.1 -44.2 74.95 -42.5 76.95 -42.3 76.85 -41.35 74.85 -41.55 71.45 -41.85 71.5 -42.8 71.2 -42.85 71.25 -43.25 65.75 -43.75 65.7 -43.35 61.45 -43.75 61.35 -42.75 41.0 -44.6 41.1 -45.6 39.5 -45.75 39.5 -46.1 34.05 -46.6 34.0 -46.25 27.8 -46.8 27.85 -47.0 22.05 -47.5 22.0 -47.3 19.25 -47.55 M41.35 -48.7 L41.1 -45.6 41.35 -48.7 M74.85 -41.55 L74.95 -42.5 74.85 -41.55 M61.45 -43.75 L61.7 -46.8 61.45 -43.75 M71.5 -42.8 L71.65 -44.5 71.5 -42.8" fill="#202026" fill-rule="evenodd" stroke="none"/>
    <path d="M71.45 -41.85 L71.1 -41.9 71.2 -42.85 71.5 -42.8 71.45 -41.85" fill="#42424d" fill-rule="evenodd" stroke="none"/>
    <path d="M29.4 -21.9 L31.75 -21.65 31.7 -20.75 32.6 -20.7 32.5 -19.6 29.4 -21.9" fill="#58586b" fill-rule="evenodd" stroke="none"/>
    <path d="M-87.6 -39.95 L-86.75 -39.85 -87.25 -34.15 -88.15 -34.2 -87.6 -39.95 M-36.55 -35.3 L-35.7 -35.2 -36.2 -29.5 -37.1 -29.55 -36.55 -35.3 M-36.7 -24.25 L-37.15 -19.2 -38.05 -19.25 -37.55 -24.35 -36.7 -24.25 M-37.65 -14.0 L-38.1 -8.85 -39.0 -8.95 -38.5 -14.1 -37.65 -14.0 M-101.65 -41.2 L-100.75 -41.15 -101.3 -35.4 -102.15 -35.5 -101.65 -41.2 M-88.6 -29.0 L-87.75 -28.9 -88.2 -23.85 -89.05 -23.9 -88.6 -29.0 M-101.75 -30.2 L-102.25 -25.1 -103.1 -25.2 -102.65 -30.25 -101.75 -30.2 M-104.05 -14.85 L-103.6 -20.0 -102.7 -19.95 -103.15 -14.8 -104.05 -14.85 M-89.5 -18.75 L-88.65 -18.65 -89.1 -13.5 -90.0 -13.6 -89.5 -18.75" fill="#454454" fill-rule="evenodd" stroke="none"/>
    <path d="M-36.7 -24.35 L-36.7 -24.25 -37.55 -24.35 -37.55 -24.4 -36.7 -24.35 M-88.6 -29.0 L-88.6 -29.05 -87.75 -29.0 -87.75 -28.9 -88.6 -29.0 M-102.65 -30.35 L-101.75 -30.25 -101.75 -30.2 -102.65 -30.25 -102.65 -30.35" fill="#a2a2b3" fill-rule="evenodd" stroke="none"/>
    <path d="M73.5 3.0 L73.25 6.0 69.9 7.3 30.35 3.75 30.8 -0.9 73.5 3.0 M7.1 10.3 L3.4 9.95 -4.25 9.25 -3.55 1.75 4.1 2.45 7.8 2.8 7.1 10.3 M15.35 3.5 L20.05 3.9 19.35 11.4 14.65 10.95 15.35 3.5 M3.4 9.95 L4.1 2.45 3.4 9.95 M-38.55 -3.7 L-39.1 2.15 -39.95 2.1 -49.55 1.2 -49.0 -4.65 -48.75 -7.05 -48.75 -7.15 -39.2 -6.3 -39.2 -6.2 -39.45 -3.8 -38.55 -3.7 M-89.6 -8.35 L-90.15 -2.5 -91.0 -2.55 -95.7 -3.0 -95.2 -8.85 -94.95 -11.3 -94.95 -11.35 -90.25 -10.95 -90.25 -10.85 -90.45 -8.45 -89.6 -8.35 M-103.65 -9.65 L-104.15 -3.75 -105.05 -3.85 -109.75 -4.25 -109.2 -10.15 -109.0 -12.55 -109.0 -12.65 -104.3 -12.2 -104.3 -12.15 -104.5 -9.7 -103.65 -9.65 M-104.5 -9.7 L-105.05 -3.85 -104.5 -9.7 M-109.0 -12.55 L-104.3 -12.15 -109.0 -12.55 M-91.0 -2.55 L-90.45 -8.45 -91.0 -2.55 M-90.25 -10.85 L-94.95 -11.3 -90.25 -10.85 M-39.2 -6.2 L-48.75 -7.05 -39.2 -6.2 M-39.95 2.1 L-39.45 -3.8 -39.95 2.1" fill="#1b1c21" fill-rule="evenodd" stroke="none"/>
    <path d="M19.35 11.4 L20.05 3.9 30.8 -0.9 30.35 3.75 19.35 11.4" fill="#0f1013" fill-rule="evenodd" stroke="none"/>
    <path d="M33.45 -40.15 L38.95 -39.65 38.95 -39.6 38.85 -38.75 33.35 -39.25 33.45 -40.1 33.45 -40.15 M65.1 -36.4 L65.15 -37.2 65.15 -37.3 70.65 -36.8 70.55 -35.9 65.1 -36.4 M32.15 -25.85 L37.65 -25.35 37.25 -21.15 37.15 -20.25 32.6 -20.7 31.7 -20.75 31.75 -21.65 32.15 -25.85 M63.5 -18.8 L63.85 -23.0 69.35 -22.5 68.95 -18.3 68.9 -17.4 63.4 -17.9 63.5 -18.8" fill="#242528" fill-rule="evenodd" stroke="none"/>
    <path d="M25.95 -26.55 L25.6 -22.25 25.45 -21.0 22.35 -21.3 19.65 -21.55 20.15 -26.95 20.15 -27.1 25.95 -26.55" fill="#1c1d21" fill-rule="evenodd" stroke="none"/>
    <path d="M79.2 -38.1 L78.95 -35.7 78.85 -34.4 80.3 -34.3 80.1 -31.95 78.65 -32.1 78.85 -34.4 76.75 -34.6 77.0 -37.5 77.1 -38.3 79.2 -38.1 M25.6 -22.25 L29.4 -21.9 32.5 -19.6 32.05 -14.65 21.9 -16.6 22.35 -21.3 25.45 -21.0 25.6 -22.25" fill="#ffffff" fill-rule="evenodd" stroke="none"/>
    <path d="M-13.95 18.35 L-13.55 14.25 0.8 15.55 0.6 17.45 0.2 22.1 -5.75 21.6 -5.5 19.1 -13.95 18.35" fill="#2e2f38" fill-rule="evenodd" stroke="none"/>
    <path d="M-13.65 29.3 L-14.5 38.65 Q-14.6 39.65 -15.4 40.25 L-16.1 40.7 -17.15 40.85 Q-17.95 40.75 -18.55 40.2 L-18.85 39.95 Q-19.45 39.25 -19.35 38.2 L-18.5 28.85 -18.1 24.6 -13.25 25.05 -13.65 29.3" fill="#47474d" fill-rule="evenodd" stroke="none"/>
    <path d="M76.85 -41.35 L77.35 -41.3 77.1 -38.3 77.0 -37.5 70.75 -38.05 70.85 -39.1 70.75 -38.05 70.65 -36.8 65.15 -37.3 65.3 -38.55 39.05 -40.95 38.95 -39.65 33.45 -40.15 33.55 -41.45 33.65 -42.5 33.55 -41.45 27.4 -42.0 27.75 -45.8 33.9 -45.25 33.65 -42.5 39.15 -42.0 39.4 -44.75 41.0 -44.6 61.35 -42.75 65.6 -42.4 65.35 -39.6 70.85 -39.1 71.1 -41.9 71.45 -41.85 74.85 -41.55 76.85 -41.35 M78.8 27.85 Q76.65 38.3 68.95 44.85 L70.45 46.7 66.85 49.75 59.75 39.85 63.75 38.15 64.8 39.4 65.65 40.6 Q74.6 32.8 74.65 17.4 L79.6 17.0 Q79.8 22.85 78.8 27.85 M73.25 6.0 L74.6 5.5 74.15 10.0 16.7 32.05 -13.65 29.3 -13.25 25.05 -6.1 25.7 16.85 27.8 69.9 7.3 73.25 6.0 M-18.5 28.85 L-23.85 28.35 -23.45 24.1 -18.3 24.6 -18.1 24.6 -18.5 28.85 M6.75 14.4 L7.1 10.3 7.8 2.8 7.85 2.15 15.4 2.85 15.35 3.5 14.65 10.95 14.4 13.7 12.7 13.55 12.55 14.9 6.75 14.4 M39.15 -42.0 L39.05 -40.95 39.15 -42.0 M38.8 -38.05 L64.9 -35.65 65.0 -35.65 63.95 -24.15 37.75 -26.5 38.8 -38.05 M27.1 -39.1 L33.3 -38.55 32.25 -27.0 26.05 -27.6 27.1 -39.1 M65.3 -38.55 L65.35 -39.6 65.3 -38.55 M70.5 -35.2 L76.75 -34.6 75.85 -24.55 75.7 -23.05 69.45 -23.65 70.5 -35.2 M68.95 44.85 L65.65 40.6 68.95 44.85 M-88.15 -34.2 L-87.25 -34.15 -46.65 -30.45 -46.65 -30.35 -47.15 -25.3 -87.75 -29.0 -88.6 -29.05 -88.15 -34.15 -88.15 -34.2 M-36.2 -29.5 L-1.1 -26.3 -1.6 -21.15 -36.7 -24.35 -37.55 -24.4 -37.1 -29.5 -37.1 -29.55 -36.2 -29.5 M-37.15 -19.2 L-2.05 -16.0 -2.5 -10.85 -37.65 -14.0 -38.5 -14.1 -38.05 -19.25 -37.15 -19.2 M-38.1 -8.85 L-3.0 -5.65 -3.45 -0.5 -38.55 -3.7 -39.45 -3.8 -39.2 -6.2 -39.2 -6.3 -39.0 -8.95 -38.1 -8.85 M-49.0 -4.65 L-89.6 -8.35 -90.45 -8.45 -90.25 -10.85 -90.25 -10.95 -90.0 -13.6 -89.1 -13.5 -48.5 -9.8 -48.75 -7.15 -48.75 -7.05 -49.0 -4.65 M-95.2 -8.85 L-103.65 -9.65 -104.5 -9.7 -104.3 -12.15 -104.3 -12.2 -104.05 -14.85 -103.15 -14.8 -94.7 -14.0 -94.95 -11.35 -94.95 -11.3 -95.2 -8.85 M-109.2 -10.15 L-114.45 -10.6 -114.0 -15.75 -108.75 -15.3 -109.0 -12.65 -109.0 -12.55 -109.2 -10.15 M-108.3 -20.45 L-113.5 -20.9 -113.05 -26.1 -107.8 -25.6 -108.3 -20.45 M-107.35 -30.75 L-112.6 -31.25 -112.1 -36.4 -106.9 -35.9 -106.9 -35.85 -107.35 -30.75 M-101.3 -35.4 L-92.85 -34.65 -92.85 -34.55 -93.3 -29.5 -101.75 -30.25 -102.65 -30.35 -102.15 -35.4 -102.15 -35.5 -101.3 -35.4 M-89.05 -23.9 L-88.2 -23.85 -47.6 -20.15 -48.05 -14.95 -88.65 -18.65 -89.5 -18.75 -89.05 -23.9 M-103.1 -25.2 L-102.25 -25.1 -93.75 -24.35 -94.25 -19.15 -102.7 -19.95 -103.6 -20.0 -103.1 -25.2" fill="#999999" fill-rule="evenodd" stroke="none"/>
    <path d="M79.6 -26.4 L79.25 -22.6 77.8 -22.75 77.2 -16.3 75.3 -16.45 75.2 -15.7 32.5 -19.6 32.6 -20.7 37.15 -20.25 37.25 -21.15 37.65 -25.35 32.15 -25.85 32.25 -27.0 32.15 -25.85 31.75 -21.65 29.4 -21.9 25.6 -22.25 25.95 -26.55 26.05 -27.6 25.95 -26.55 20.15 -27.1 20.15 -26.95 15.8 -27.35 16.45 -34.4 20.8 -34.0 20.85 -34.6 19.2 -34.75 19.6 -39.35 18.55 -39.45 19.25 -47.55 22.0 -47.3 22.05 -47.5 27.85 -47.0 27.8 -46.8 34.0 -46.25 34.05 -46.6 39.5 -46.1 39.5 -45.75 41.1 -45.6 41.0 -44.6 39.4 -44.75 39.5 -45.75 39.4 -44.75 39.15 -42.0 33.65 -42.5 33.9 -45.25 34.0 -46.25 33.9 -45.25 27.75 -45.8 27.4 -42.0 27.1 -39.1 26.05 -27.6 32.25 -27.0 33.3 -38.55 33.35 -39.25 38.85 -38.75 38.8 -38.05 37.75 -26.5 37.65 -25.35 37.75 -26.5 63.95 -24.15 63.85 -23.0 63.95 -24.15 65.0 -35.65 65.0 -35.75 65.1 -36.4 70.55 -35.9 70.5 -35.2 69.45 -23.65 75.7 -23.05 75.85 -24.55 77.95 -24.35 77.8 -22.75 77.95 -24.35 78.15 -26.55 79.6 -26.4 M75.2 -15.65 Q86.3 -2.3 81.65 23.95 L78.8 27.85 Q79.8 22.85 79.6 17.0 81.3 0.45 74.75 -10.75 L73.9 -1.2 73.9 -0.95 73.5 3.0 30.8 -0.9 32.05 -14.65 74.75 -10.75 75.2 -15.35 75.2 -15.65 M65.8 38.35 Q66.2 35.6 65.25 33.2 67.25 32.6 69.1 33.85 L65.8 38.35 M-18.3 24.6 Q-20.4 24.2 -20.65 22.5 L-20.7 22.3 -20.65 21.5 -20.3 17.75 -13.95 18.35 -5.5 19.1 -5.75 21.6 -6.1 25.7 -13.25 25.05 -18.1 24.6 -18.3 24.6 M-3.55 1.75 L-1.7 -18.75 5.95 -18.05 14.9 -17.25 21.9 -16.6 20.05 3.9 15.35 3.5 15.4 2.85 7.85 2.15 7.8 2.8 4.1 2.45 5.95 -18.05 4.1 2.45 -3.55 1.75 M-0.75 -28.85 L-0.15 -35.9 7.55 -35.2 16.45 -34.4 15.8 -27.35 6.9 -28.15 7.55 -35.2 6.9 -28.15 -0.75 -28.85 M20.85 -34.6 L21.25 -39.2 22.0 -47.3 21.25 -39.2 20.85 -34.6 M27.8 -46.8 L27.75 -45.8 27.8 -46.8 M20.8 -34.0 L20.15 -27.1 20.8 -34.0 M19.6 -39.35 L21.25 -39.2 19.6 -39.35 M63.5 -18.8 L37.25 -21.15 63.5 -18.8 63.4 -17.9 68.9 -17.4 68.95 -18.3 75.2 -17.7 75.1 -16.5 75.3 -16.45 75.1 -16.5 75.2 -17.7 68.95 -18.3 69.35 -22.5 63.85 -23.0 63.5 -18.8 M71.1 -41.9 L70.85 -39.1 65.35 -39.6 65.6 -42.4 65.7 -43.35 65.6 -42.4 61.35 -42.75 61.45 -43.75 65.7 -43.35 65.75 -43.75 71.25 -43.25 71.2 -42.85 71.1 -41.9 M75.7 -23.05 L75.2 -17.7 75.7 -23.05 M69.35 -22.5 L69.45 -23.65 69.35 -22.5 M15.5 17.8 L14.75 26.25 11.55 25.95 11.65 24.65 0.05 23.6 0.2 22.1 0.6 17.45 12.25 18.5 12.3 17.5 15.5 17.8 M13.1 2.35 L14.9 -17.25 13.1 2.35 M-87.6 -39.95 L-88.15 -34.2 -88.15 -34.15 -92.85 -34.55 -92.85 -34.65 -92.3 -40.35 -87.6 -39.95 M-46.65 -30.45 L-46.15 -36.15 -36.55 -35.3 -37.1 -29.55 -37.1 -29.5 -46.65 -30.35 -46.65 -30.45 M-108.75 -15.3 L-108.3 -20.45 -107.8 -25.6 -107.35 -30.7 -102.65 -30.25 -103.1 -25.2 -103.6 -20.0 -104.05 -14.85 -104.3 -12.2 -109.0 -12.65 -108.75 -15.3 M-106.9 -35.9 L-106.35 -41.65 -101.65 -41.2 -102.15 -35.5 -102.15 -35.4 -106.9 -35.85 -106.9 -35.9 M-93.3 -29.4 L-88.6 -29.0 -89.05 -23.9 -89.5 -18.75 -90.0 -13.6 -90.25 -10.95 -94.95 -11.35 -94.7 -14.0 -94.25 -19.15 -93.75 -24.35 -93.3 -29.4 M-48.05 -14.95 L-47.6 -20.15 -47.15 -25.2 -37.55 -24.35 -38.05 -19.25 -38.5 -14.1 -39.0 -8.95 -39.2 -6.3 -48.75 -7.15 -48.5 -9.8 -48.05 -14.95" fill="#666666" fill-rule="evenodd" stroke="none"/>
    <path d="M77.35 -41.3 L77.45 -42.45 79.55 -42.3 79.2 -38.1 77.1 -38.3 77.35 -41.3 M78.95 -35.7 L80.45 -35.55 80.3 -34.3 78.85 -34.4 78.65 -32.1 80.1 -31.95 79.6 -26.4 78.15 -26.55 78.65 -32.1 78.15 -26.55 77.95 -24.35 75.85 -24.55 76.75 -34.6 70.5 -35.2 70.55 -35.9 70.65 -36.8 70.75 -38.05 77.0 -37.5 76.75 -34.6 78.85 -34.4 78.95 -35.7 M75.2 -15.7 L75.2 -15.65 75.2 -15.35 74.75 -10.75 32.05 -14.65 30.8 -0.9 20.05 3.9 21.9 -16.6 32.05 -14.65 32.5 -19.6 75.2 -15.7 M74.6 17.35 Q76.5 9.1 73.9 -0.95 L73.9 -1.2 74.75 -10.75 Q81.3 0.45 79.6 17.0 L74.65 17.4 74.6 17.35 M0.8 15.55 L0.95 13.85 6.75 14.4 12.55 14.9 12.7 13.55 14.4 13.7 15.85 13.85 15.5 17.8 12.3 17.5 12.25 18.5 0.6 17.45 0.8 15.55 M-1.7 -18.75 L-0.75 -28.85 6.9 -28.15 15.8 -27.35 20.15 -26.95 19.65 -21.55 22.35 -21.3 21.9 -16.6 14.9 -17.25 5.95 -18.05 6.9 -28.15 5.95 -18.05 -1.7 -18.75 M33.55 -41.45 L33.45 -40.15 33.45 -40.1 33.35 -39.25 33.3 -38.55 27.1 -39.1 27.4 -42.0 33.55 -41.45 M38.95 -39.65 L39.05 -40.95 65.3 -38.55 65.15 -37.3 65.15 -37.2 65.1 -36.4 65.0 -35.75 65.0 -35.65 64.9 -35.65 38.8 -38.05 38.85 -38.75 38.95 -39.6 38.95 -39.65 M14.9 -17.25 L15.8 -27.35 14.9 -17.25 M-107.35 -30.7 L-107.35 -30.75 -106.9 -35.85 -102.15 -35.4 -102.65 -30.35 -102.65 -30.25 -107.35 -30.7 M-93.3 -29.5 L-92.85 -34.55 -88.15 -34.15 -88.6 -29.05 -88.6 -29.0 -93.3 -29.4 -93.3 -29.5 M-47.15 -25.3 L-46.65 -30.35 -37.1 -29.5 -37.55 -24.4 -37.55 -24.35 -47.15 -25.2 -47.15 -25.3" fill="#cccccc" fill-rule="evenodd" stroke="none"/>
    <path d="M19.25 -47.55 L19.55 -50.65 41.35 -48.7 41.5 -50.05 51.9 -49.1 52.3 -53.85 54.3 -53.65 58.45 -48.95 61.9 -48.65 61.7 -46.8 71.8 -45.9 71.65 -44.5 75.1 -44.2 74.95 -42.5 76.95 -42.3 76.85 -41.35 M77.35 -41.3 L77.45 -42.45 79.55 -42.3 79.2 -38.1 78.95 -35.7 80.45 -35.55 80.3 -34.3 80.1 -31.95 79.6 -26.4 79.25 -22.6 77.8 -22.75 77.2 -16.3 75.3 -16.45 75.2 -15.7 75.2 -15.65 Q86.3 -2.3 81.65 23.95 L78.8 27.85 M68.95 44.85 L70.45 46.7 66.85 49.75 59.75 39.85 63.75 38.15 64.8 39.4 65.8 38.35 Q66.2 35.6 65.25 33.2 67.25 32.6 69.1 33.85 73.1 26.9 73.25 17.45 L74.6 17.35 Q76.5 9.1 73.9 -0.95 L73.5 3.0 73.25 6.0 M-13.65 29.3 L-14.5 38.65 Q-14.6 39.65 -15.4 40.25 L-16.1 40.7 -17.15 40.85 Q-17.95 40.75 -18.55 40.2 L-18.85 39.95 Q-19.45 39.25 -19.35 38.2 L-18.5 28.85 M-18.3 24.6 Q-20.4 24.2 -20.65 22.5 M-20.7 22.3 L-20.65 21.5 -20.3 17.75 -13.95 18.35 -13.55 14.25 0.8 15.55 0.95 13.85 6.75 14.4 M7.1 10.3 L3.4 9.95 -4.25 9.25 -3.55 1.75 -1.7 -18.75 -0.75 -28.85 -0.15 -35.9 7.55 -35.2 16.45 -34.4 20.8 -34.0 20.85 -34.6 19.2 -34.75 19.6 -39.35 M18.55 -39.45 L19.25 -47.55 M22.0 -47.3 L22.05 -47.5 27.85 -47.0 27.8 -46.8 27.75 -45.8 M34.0 -46.25 L34.05 -46.6 39.5 -46.1 39.5 -45.75 39.4 -44.75 M34.0 -46.25 L33.9 -45.25 M65.0 -35.65 L65.0 -35.75 65.1 -36.4 M22.0 -47.3 L21.25 -39.2 20.85 -34.6 M25.6 -22.25 L29.4 -21.9 31.75 -21.65 31.7 -20.75 32.6 -20.7 37.15 -20.25 37.25 -21.15 63.5 -18.8 63.4 -17.9 68.9 -17.4 68.95 -18.3 75.2 -17.7 75.1 -16.5 75.3 -16.45 M20.15 -26.95 L20.15 -27.1 20.8 -34.0 M22.35 -21.3 L19.65 -21.55 20.15 -26.95 M22.35 -21.3 L25.45 -21.0 25.6 -22.25 M71.2 -42.85 L71.1 -41.9 M71.2 -42.85 L71.25 -43.25 65.75 -43.75 65.7 -43.35 65.6 -42.4 M73.9 -1.2 L74.75 -10.75 75.2 -15.35 M74.65 17.4 L74.6 17.35 M64.8 39.4 L65.65 40.6 M69.1 33.85 L65.8 38.35 M14.65 10.95 L19.35 11.4 30.35 3.75 69.9 7.3 M14.4 13.7 L15.85 13.85 15.5 17.8 14.75 26.25 11.55 25.95 11.65 24.65 0.05 23.6 0.2 22.1 -5.75 21.6 -6.1 25.7 M-87.25 -34.15 L-86.75 -39.85 -87.6 -39.95 M-36.55 -35.3 L-35.7 -35.2 -36.2 -29.5 M-36.7 -24.35 L-36.7 -24.25 -37.15 -19.2 M-37.65 -14.0 L-38.1 -8.85 M-38.55 -3.7 L-39.1 2.15 -39.95 2.1 M-89.6 -8.35 L-90.15 -2.5 -91.0 -2.55 M-103.65 -9.65 L-104.15 -3.75 -105.05 -3.85 M-101.65 -41.2 L-100.75 -41.15 -101.3 -35.4 M-88.2 -23.85 L-87.75 -28.9 -87.75 -29.0 M-102.25 -25.1 L-101.75 -30.2 -101.75 -30.25 M-102.7 -19.95 L-103.15 -14.8 M-89.1 -13.5 L-88.65 -18.65 M-5.75 21.6 L-5.5 19.1 -13.95 18.35 M-18.1 24.6 L-13.25 25.05" fill="none" stroke="#000000" stroke-linecap="round" stroke-linejoin="round" stroke-width="0.05"/>
    <path d="M-20.65 22.5 L-20.7 22.3 M19.6 -39.35 L18.55 -39.45 M41.1 -45.6 L41.35 -48.7 M41.0 -44.6 L41.1 -45.6 M33.55 -41.45 L33.45 -40.15 33.45 -40.1 33.35 -39.25 33.3 -38.55 M38.95 -39.65 L39.05 -40.95 M38.85 -38.75 L38.8 -38.05 M65.1 -36.4 L65.15 -37.2 65.15 -37.3 65.3 -38.55 M38.95 -39.65 L38.95 -39.6 38.85 -38.75 33.35 -39.25 M27.4 -42.0 L27.1 -39.1 M32.25 -27.0 L32.15 -25.85 31.75 -21.65 M37.65 -25.35 L37.75 -26.5 M26.05 -27.6 L25.95 -26.55 25.6 -22.25 M21.25 -39.2 L19.6 -39.35 M37.65 -25.35 L37.25 -21.15 M63.5 -18.8 L63.85 -23.0 63.95 -24.15 M71.45 -41.85 L71.5 -42.8 71.65 -44.5 M74.95 -42.5 L74.85 -41.55 M61.7 -46.8 L61.45 -43.75 61.35 -42.75 M70.55 -35.9 L70.5 -35.2 M76.75 -34.6 L77.0 -37.5 M70.55 -35.9 L65.1 -36.4 M70.65 -36.8 L70.55 -35.9 M78.85 -34.4 L78.95 -35.7 M78.65 -32.1 L78.85 -34.4 M78.65 -32.1 L78.15 -26.55 77.95 -24.35 77.8 -22.75 M70.65 -36.8 L70.75 -38.05 M75.2 -17.7 L75.7 -23.05 M69.45 -23.65 L69.35 -22.5 68.95 -18.3 M0.6 17.45 L0.8 15.55 M0.2 22.1 L0.6 17.45" fill="none" stroke="#000000" stroke-linecap="round" stroke-linejoin="round" stroke-opacity="0.4" stroke-width="0.05"/>
    <path d="M6.9 -28.15 L7.55 -35.2 M16.45 -34.4 L15.8 -27.35 14.9 -17.25 13.1 2.35 M5.95 -18.05 L4.1 2.45 3.4 9.95 M6.9 -28.15 L5.95 -18.05" fill="none" stroke="#000000" stroke-linecap="round" stroke-linejoin="round" stroke-opacity="0.33333334" stroke-width="0.05"/>
    <path d="M-87.6 -39.95 L-88.15 -34.2 M-46.65 -30.45 L-46.15 -36.15 -36.55 -35.3 -37.1 -29.55 M-39.95 2.1 L-49.55 1.2 -49.0 -4.65 M-91.0 -2.55 L-95.7 -3.0 -95.2 -8.85 M-105.05 -3.85 L-109.75 -4.25 -109.2 -10.15 M-108.75 -15.3 L-108.3 -20.45 M-107.8 -25.6 L-107.35 -30.7 -107.35 -30.75 M-92.85 -34.65 L-92.3 -40.35 -87.6 -39.95 M-93.3 -29.5 L-93.3 -29.4 -93.75 -24.35 M-88.6 -29.0 L-88.6 -29.05 M-88.6 -29.0 L-89.05 -23.9 M-102.65 -30.25 L-103.1 -25.2 M-102.65 -30.25 L-102.65 -30.35 M-104.05 -14.85 L-103.6 -20.0 M-94.7 -14.0 L-94.25 -19.15 M-105.05 -3.85 L-104.5 -9.7 M-89.5 -18.75 L-90.0 -13.6 M-90.45 -8.45 L-91.0 -2.55 M-47.15 -25.2 L-47.15 -25.3 M-48.05 -14.95 L-48.5 -9.8 M-39.0 -8.95 L-38.5 -14.1 M-38.05 -19.25 L-37.55 -24.35 -37.55 -24.4 M-47.15 -25.2 L-47.6 -20.15 M-39.45 -3.8 L-39.95 2.1" fill="none" stroke="#000000" stroke-linecap="round" stroke-linejoin="round" stroke-width="0.05"/>
    <path d="M-104.3 -12.15 L-109.0 -12.55 M-94.95 -11.3 L-90.25 -10.85 M-48.75 -7.05 L-39.2 -6.2" fill="none" stroke="url(#gradient0)" stroke-linecap="round" stroke-linejoin="round" stroke-width="0.05"/>
    <path d="M73.25 6.0 L74.6 5.5 74.15 10.0 M-23.85 28.35 L-23.45 24.1 -18.3 24.6 M33.9 -45.25 L33.65 -42.5 33.55 -41.45 M39.15 -42.0 L39.4 -44.75 M39.05 -40.95 L39.15 -42.0 M33.3 -38.55 L32.25 -27.0 M37.75 -26.5 L38.8 -38.05 M27.4 -42.0 L27.75 -45.8 M27.1 -39.1 L26.05 -27.6 M71.1 -41.9 L70.85 -39.1 70.75 -38.05 M77.0 -37.5 L77.1 -38.3 77.35 -41.3 M65.6 -42.4 L65.35 -39.6 65.3 -38.55 M75.7 -23.05 L75.85 -24.55 76.75 -34.6 M65.0 -35.65 L63.95 -24.15 M70.5 -35.2 L69.45 -23.65 M73.25 6.0 L69.9 7.3 16.85 27.8 -6.1 25.7 M14.4 13.7 L12.7 13.55 12.55 14.9 6.75 14.4 M-88.15 -34.2 L-87.25 -34.15 -46.65 -30.45 -46.65 -30.35 -47.15 -25.3 -87.75 -29.0 -88.6 -29.05 -88.15 -34.15 -88.15 -34.2 M-36.2 -29.5 L-1.1 -26.3 -1.6 -21.15 -36.7 -24.35 -37.55 -24.4 -37.1 -29.5 -37.1 -29.55 -36.2 -29.5 M-37.15 -19.2 L-2.05 -16.0 -2.5 -10.85 -37.65 -14.0 -38.5 -14.1 -38.05 -19.25 -37.15 -19.2 M-38.1 -8.85 L-3.0 -5.65 -3.45 -0.5 -38.55 -3.7 -39.45 -3.8 -39.2 -6.2 -39.2 -6.3 -39.0 -8.95 -38.1 -8.85 M-49.0 -4.65 L-89.6 -8.35 -90.45 -8.45 -90.25 -10.85 -90.25 -10.95 -90.0 -13.6 -89.1 -13.5 -48.5 -9.8 -48.75 -7.15 -48.75 -7.05 -49.0 -4.65 M-95.2 -8.85 L-103.65 -9.65 -104.5 -9.7 -104.3 -12.15 -104.3 -12.2 -104.05 -14.85 -103.15 -14.8 -94.7 -14.0 -94.95 -11.35 -94.95 -11.3 -95.2 -8.85 M-109.2 -10.15 L-114.45 -10.6 -114.0 -15.75 -108.75 -15.3 -109.0 -12.65 -109.0 -12.55 -109.2 -10.15 M-108.3 -20.45 L-113.5 -20.9 -113.05 -26.1 -107.8 -25.6 -108.3 -20.45 M-107.35 -30.75 L-112.6 -31.25 -112.1 -36.4 -106.9 -35.9 -106.35 -41.65 -101.65 -41.2 -102.15 -35.5 -102.15 -35.4 -102.65 -30.35 -101.75 -30.25 -93.3 -29.5 -92.85 -34.55 -92.85 -34.65 -101.3 -35.4 -102.15 -35.5 M-89.05 -23.9 L-88.2 -23.85 -47.6 -20.15 -48.05 -14.95 -88.65 -18.65 -89.5 -18.75 -89.05 -23.9 M-106.9 -35.9 L-106.9 -35.85 -107.35 -30.75 M-103.1 -25.2 L-102.25 -25.1 -93.75 -24.35 -94.25 -19.15 -102.7 -19.95 -103.6 -20.0 -103.1 -25.2" fill="none" stroke="#999999" stroke-linecap="round" stroke-linejoin="round" stroke-opacity="0.4" stroke-width="0.05"/>
    <path d="M76.85 -41.35 L77.35 -41.3 M78.8 27.85 Q76.65 38.3 68.95 44.85 L65.65 40.6 M74.15 10.0 L16.7 32.05 -13.65 29.3 -13.25 25.05 -6.1 25.7 M-18.5 28.85 L-23.85 28.35 M6.75 14.4 L7.1 10.3 7.8 2.8 7.85 2.15 15.4 2.85 15.35 3.5 14.65 10.95 14.4 13.7 M39.4 -44.75 L41.0 -44.6 61.35 -42.75 65.6 -42.4 M33.9 -45.25 L27.75 -45.8 M71.45 -41.85 L71.1 -41.9 M76.85 -41.35 L74.85 -41.55 71.45 -41.85 M79.6 17.0 L74.65 17.4 M79.6 17.0 Q79.8 22.85 78.8 27.85 M-18.1 24.6 L-18.3 24.6 M-18.5 28.85 L-18.1 24.6" fill="none" stroke="#999999" stroke-linecap="round" stroke-linejoin="round" stroke-opacity="0.4" stroke-width="0.05"/>
  </g>
  <defs>
    <linearGradient gradientTransform="matrix(0.0456, 0.0323, 0.0404, -0.0584, -99.9, 13.1)" gradientUnits="userSpaceOnUse" id="gradient0" spreadMethod="pad" x1="-819.2" x2="819.2">
      <stop offset="0.0" stop-color="#000000"/>
      <stop offset="1.0" stop-color="#000000" stop-opacity="0.0"/>
    </linearGradient>
  </defs>
</svg>
