<?xml version="1.0" encoding="UTF-8" standalone="no"?>
<svg xmlns:ffdec="https://www.free-decompiler.com/flash" xmlns:xlink="http://www.w3.org/1999/xlink" ffdec:objectType="shape" height="140.05px" width="145.1px" xmlns="http://www.w3.org/2000/svg">
  <g transform="matrix(1.0, 0.0, 0.0, 1.0, 94.35, 78.95)">
    <path d="M15.35 27.95 L10.1 28.2 9.6 25.3 12.95 24.4 13.45 26.2 Q14.1 27.15 15.35 27.95 M-28.45 28.6 L-42.25 31.0 -42.95 27.05 -29.2 25.7 -28.45 28.6" fill="#313528" fill-rule="evenodd" stroke="none"/>
    <path d="M10.1 28.2 L9.3 27.95 9.4 27.3 8.9 25.45 9.6 25.3 10.1 28.2" fill="#545750" fill-rule="evenodd" stroke="none"/>
    <path d="M21.9 44.1 L23.0 45.45 16.05 49.5 15.65 47.8 21.9 44.1" fill="#545667" fill-rule="evenodd" stroke="none"/>
    <path d="M13.25 -53.85 Q12.1 -52.9 10.3 -52.4 L6.85 -52.2 Q5.7 -52.5 5.25 -53.1 L5.25 -53.25 4.6 -55.75 Q5.05 -55.15 6.1 -54.9 L9.6 -55.1 Q11.45 -55.6 12.6 -56.65 13.5 -57.45 13.6 -58.2 13.5 -57.45 12.6 -56.65 11.45 -55.6 9.6 -55.1 L6.1 -54.9 Q5.05 -55.15 4.6 -55.75 L4.5 -55.8 Q4.6 -56.55 5.45 -57.35 6.6 -58.45 8.55 -58.9 L11.95 -59.1 Q13.1 -58.85 13.6 -58.2 L14.3 -55.6 14.35 -55.55 Q14.25 -54.8 13.35 -54.0 L13.25 -53.85 M-32.35 -43.15 L-33.0 -45.65 -33.1 -45.7 Q-33.0 -46.45 -32.15 -47.25 -31.0 -48.35 -29.05 -48.8 L-25.65 -49.0 Q-24.5 -48.75 -24.0 -48.1 L-23.3 -45.5 -23.25 -45.45 Q-23.35 -44.7 -24.25 -43.9 L-24.35 -43.75 Q-25.5 -42.8 -27.3 -42.3 L-30.75 -42.1 Q-31.9 -42.4 -32.35 -43.0 L-32.35 -43.15 M-3.45 -20.6 L-3.6 -21.35 -4.35 -24.1 -0.4 -25.25 -0.25 -25.3 0.85 -20.95 Q1.25 -19.8 4.15 -19.15 L6.6 -18.75 6.1 -16.3 -7.95 -12.35 -7.4 -14.75 -7.4 -14.8 Q-3.35 -18.0 -3.45 -20.6 M-5.6 41.7 L-3.7 43.0 -2.4 50.95 Q-2.5 52.05 -2.75 53.0 -3.85 56.8 -8.0 58.0 -13.45 59.6 -16.65 53.4 L-18.05 45.5 -16.65 43.65 -5.6 41.7 M-21.55 44.5 L-19.6 45.9 -18.3 53.7 Q-18.55 59.7 -24.65 60.85 -30.8 62.15 -32.85 56.2 L-34.25 48.15 -33.0 46.45 -21.55 44.5 M-33.3 44.2 L-35.15 42.75 -36.2 36.75 Q-46.15 49.3 -62.25 52.55 L-64.75 53.0 Q-72.45 54.2 -79.35 53.0 -84.65 52.1 -89.5 49.8 L-87.3 47.05 Q-78.1 50.7 -64.9 48.45 -57.9 47.25 -51.9 44.45 L-50.15 44.55 -50.3 43.7 Q-45.05 40.95 -40.6 36.9 L-37.8 36.45 -36.8 35.1 -36.5 35.05 -36.55 34.7 -35.5 33.25 -27.55 31.9 -27.25 33.1 -33.95 34.3 -34.7 35.4 -33.65 41.45 -32.2 42.55 -23.6 41.05 -22.5 39.7 -22.8 37.9 -22.55 37.85 -21.35 38.55 -20.85 38.75 -20.6 40.4 -21.9 42.25 -33.3 44.2 M-33.0 -45.65 Q-32.55 -45.05 -31.5 -44.8 L-28.0 -45.0 Q-26.15 -45.5 -25.0 -46.55 -24.1 -47.35 -24.0 -48.1 -24.1 -47.35 -25.0 -46.55 -26.15 -45.5 -28.0 -45.0 L-31.5 -44.8 Q-32.55 -45.05 -33.0 -45.65 M-36.2 36.75 L-36.5 35.05 -36.2 36.75 M-20.6 55.05 L-20.6 55.1 Q-20.4 55.3 -20.2 54.9 -19.6 53.35 -19.9 51.65 -20.4 49.35 -21.15 47.2 -21.45 46.2 -22.3 45.75 -24.2 45.7 -23.8 46.95 L-31.25 48.25 -32.1 49.5 -31.1 55.4 Q-29.6 59.8 -25.1 58.85 -21.45 58.15 -20.6 55.05 M-7.95 44.15 L-15.0 45.35 -16.05 46.8 -15.0 52.75 -14.85 53.0 Q-12.45 57.4 -8.45 56.25 -5.65 55.4 -4.65 53.0 L-4.55 52.75 -3.75 52.35 Q-3.3 52.1 -3.25 51.6 -3.05 46.85 -5.7 43.25 -8.35 41.95 -7.95 44.15" fill="#333333" fill-rule="evenodd" stroke="none"/>
    <path d="M-16.4 39.85 L-15.55 39.95 -16.15 40.05 -16.4 39.85" fill="#876311" fill-rule="evenodd" stroke="none"/>
    <path d="M-5.6 39.0 L-5.95 39.45 -17.1 41.4 -18.95 40.1 -19.05 39.35 -18.3 39.55 -16.4 39.85 -16.15 40.05 -15.55 39.95 -13.3 40.05 Q-9.7 40.05 -5.6 39.0" fill="url(#gradient0)" fill-rule="evenodd" stroke="none"/>
    <path d="M-53.3 44.4 L-53.35 44.45 -54.05 44.35 -56.25 44.3 -56.3 44.2 Q-56.85 43.7 -57.0 42.7 L-57.0 41.35 Q-56.65 40.2 -55.1 39.95 -52.95 39.55 -52.4 41.5 L-52.35 41.9 Q-52.05 43.75 -53.3 44.4 M-70.65 43.45 L-75.2 43.2 -75.3 42.95 Q-75.55 41.45 -74.85 40.7 -74.35 40.15 -73.35 40.0 -71.7 39.7 -71.0 40.85 -70.75 41.3 -70.65 42.0 -70.5 42.85 -70.65 43.45 M-67.3 27.3 L-63.05 25.55 -62.55 26.75 Q-62.2 29.1 -64.5 29.55 -66.85 29.9 -67.25 27.55 L-67.3 27.3 M-65.5 36.95 Q-65.7 35.9 -65.1 35.1 -64.6 34.3 -63.6 34.15 -62.6 33.95 -61.8 34.55 -61.0 35.1 -60.85 36.1 -60.65 37.1 -61.2 37.9 -61.75 38.7 -62.75 38.85 -63.75 39.0 -64.55 38.45 -65.35 37.9 -65.5 36.95 M-72.25 33.05 L-72.25 33.2 Q-72.05 34.2 -72.6 35.05 -73.2 35.8 -74.15 36.0 -75.2 36.15 -76.0 35.6 L-76.85 34.45 -76.95 34.05 Q-77.15 33.05 -76.55 32.3 -76.0 31.5 -75.0 31.35 -74.0 31.1 -73.2 31.65 -72.45 32.2 -72.25 33.05 M-57.7 28.8 Q-57.35 28.5 -56.85 28.4 L-56.45 28.35 Q-55.65 28.35 -55.0 28.8 -54.25 29.35 -54.05 30.35 -53.9 31.35 -54.45 32.2 -55.0 32.95 -56.0 33.1 L-57.8 32.75 Q-58.6 32.2 -58.75 31.2 -58.95 30.2 -58.35 29.4 L-57.7 28.8 M-54.05 44.35 L-56.3 44.2 -54.05 44.35" fill="#000000" fill-rule="evenodd" stroke="none"/>
    <path d="M-51.9 44.45 L-53.3 44.4 Q-52.05 43.75 -52.35 41.9 L-52.4 41.5 -50.65 41.6 -50.3 43.7 -50.15 44.55 -51.9 44.45 M-56.3 44.2 L-70.65 43.45 Q-70.5 42.85 -70.65 42.0 -70.75 41.3 -71.0 40.85 L-57.0 41.35 -57.0 42.7 Q-56.85 43.7 -56.3 44.2 M-75.2 43.2 L-79.6 43.0 -80.05 40.55 -74.85 40.7 Q-75.55 41.45 -75.3 42.95 L-75.2 43.2 M-80.1 40.5 L-90.9 42.35 -91.05 41.2 -80.3 39.3 -80.1 40.5" fill="#26262f" fill-rule="evenodd" stroke="none"/>
    <path d="M-89.5 49.8 L-94.35 47.65 -92.8 46.6 -87.3 47.05 -89.5 49.8" fill="#cccccc" fill-rule="evenodd" stroke="none"/>
    <path d="M-7.4 -14.75 L-7.45 -14.75 -7.4 -14.8 -7.4 -14.75" fill="#a15a25" fill-rule="evenodd" stroke="none"/>
    <path d="M6.6 -18.75 L13.85 6.9 13.35 9.3 6.1 -16.3 6.6 -18.75" fill="#1e1e1e" fill-rule="evenodd" stroke="none"/>
    <path d="M0.3 -0.05 Q0.55 -1.0 0.05 -1.9 -0.45 -2.75 -1.4 -3.0 L-3.2 -2.75 Q-4.05 -2.25 -4.3 -1.3 -4.6 -0.35 -4.05 0.5 -3.55 1.35 -2.6 1.65 L-0.8 1.4 Q0.05 0.85 0.3 -0.05 M13.35 9.3 L12.15 9.65 9.2 10.5 5.2 11.6 -0.7 13.3 -7.95 -12.35 6.1 -16.3 13.35 9.3" fill="#404040" fill-rule="evenodd" stroke="none"/>
    <path d="M26.85 -50.0 L22.35 -67.0 20.45 -74.1 19.55 -77.55 25.05 -78.95 50.75 18.5 46.2 19.7 Q46.9 18.4 47.0 17.2 L30.2 -45.3 Q28.9 -47.95 26.85 -50.0 M-45.15 -56.85 L-43.25 -49.75 -39.4 -35.0 Q-41.3 -30.8 -40.95 -26.1 L-24.15 36.3 -22.55 37.85 -22.8 37.9 -25.75 38.7 -27.25 33.1 -27.55 31.9 -28.45 28.6 -29.2 25.7 -29.8 23.45 -51.55 -58.75 -46.1 -60.2 -45.15 -56.85 M24.3 29.95 L19.3 29.45 Q17.55 29.05 16.25 28.45 L16.15 27.9 15.3 23.8 12.15 9.65 13.35 9.3 13.85 6.9 6.6 -18.75 4.15 -19.15 -1.0 -34.25 Q-0.65 -44.3 4.25 -49.1 2.4 -42.0 4.9 -32.7 L2.45 -33.1 Q0.45 -33.55 -1.0 -34.25 0.45 -33.55 2.45 -33.1 L4.9 -32.7 Q11.7 -4.75 21.4 22.15 L23.4 27.5 24.3 29.95 M-5.95 39.45 L-5.6 41.7 -16.65 43.65 -21.55 44.5 -33.0 46.45 -33.3 44.2 -21.9 42.25 -17.1 41.4 -5.95 39.45 M-91.35 39.45 L-91.5 38.55 -80.7 36.75 -80.55 37.6 -91.35 39.45 M-80.95 35.55 L-81.35 33.1 -67.3 27.3 -67.25 27.55 Q-66.85 29.9 -64.5 29.55 -62.2 29.1 -62.55 26.75 L-63.05 25.55 -54.1 21.75 -53.1 27.45 -56.45 28.35 -56.85 28.4 Q-57.35 28.5 -57.7 28.8 L-72.25 33.05 Q-72.45 32.2 -73.2 31.65 -74.0 31.1 -75.0 31.35 -76.0 31.5 -76.55 32.3 -77.15 33.05 -76.95 34.05 L-76.85 34.45 -80.9 35.6 -80.95 35.55 M-38.6 -24.15 Q-38.5 -27.1 -38.0 -29.6 -37.2 -33.65 -35.4 -36.45 L-33.35 -39.0 Q-35.2 -31.9 -32.7 -22.6 L-31.15 -16.4 -27.9 -4.3 -22.45 13.8 -20.25 20.65 -16.25 32.1 -13.45 39.6 -13.3 40.05 -15.55 39.95 -16.4 39.85 -18.3 39.55 -19.05 39.35 -20.85 38.75 -21.35 38.55 -21.55 37.6 Q-27.6 6.4 -38.6 -24.15 -37.6 -23.65 -36.35 -23.3 L-35.15 -23.0 -32.7 -22.6 -35.15 -23.0 -36.35 -23.3 Q-37.6 -23.65 -38.6 -24.15" fill="#e1e1e1" fill-rule="evenodd" stroke="none"/>
    <path d="M4.6 -55.75 L5.25 -53.25 5.25 -53.1 Q5.7 -52.5 6.85 -52.2 L10.3 -52.4 Q12.1 -52.9 13.25 -53.85 22.85 -49.25 23.0 -36.85 34.1 -11.3 38.65 17.6 L39.75 25.7 Q36.45 27.65 32.15 28.85 28.0 29.95 24.3 29.95 L23.4 27.5 21.4 22.15 Q11.7 -4.75 4.9 -32.7 2.4 -42.0 4.25 -49.1 -0.65 -44.3 -1.0 -34.25 L4.15 -19.15 Q1.25 -19.8 0.85 -20.95 L-0.25 -25.3 -0.4 -25.25 -4.35 -24.1 -3.6 -21.35 -3.45 -20.6 -7.4 -35.2 Q-9.75 -40.0 -14.5 -42.8 -18.8 -45.45 -23.3 -45.5 L-24.0 -48.1 Q-24.5 -48.75 -25.65 -49.0 L-29.05 -48.8 Q-31.0 -48.35 -32.15 -47.25 -33.0 -46.45 -33.1 -45.7 L-33.0 -45.65 -32.35 -43.15 Q-34.4 -41.95 -36.05 -40.15 -34.4 -41.95 -32.35 -43.15 L-32.35 -43.0 Q-31.9 -42.4 -30.75 -42.1 L-27.3 -42.3 Q-25.5 -42.8 -24.35 -43.75 -14.75 -39.15 -14.6 -26.75 -3.55 -1.25 1.0 27.55 L1.25 29.2 1.45 30.3 1.95 34.0 2.15 35.8 Q-1.15 37.75 -5.45 38.95 L-5.6 39.0 Q-9.7 40.05 -13.3 40.05 L-13.45 39.6 -16.25 32.1 -20.25 20.65 -22.45 13.8 -27.9 -4.3 -31.15 -16.4 -32.7 -22.6 Q-35.2 -31.9 -33.35 -39.0 L-35.4 -36.45 Q-37.2 -33.65 -38.0 -29.6 -38.5 -27.1 -38.6 -24.15 -40.15 -25.0 -40.95 -26.1 -40.15 -25.0 -38.6 -24.15 -27.6 6.4 -21.55 37.6 L-21.35 38.55 -22.55 37.85 -24.15 36.3 -40.95 -26.1 Q-41.3 -30.8 -39.4 -35.0 L-38.7 -36.35 Q-37.55 -38.5 -36.05 -40.15 -37.7 -45.4 -43.25 -49.75 L-45.15 -56.85 20.45 -74.1 22.35 -67.0 Q19.3 -59.8 21.05 -54.0 17.75 -55.6 14.3 -55.6 L13.6 -58.2 Q13.1 -58.85 11.95 -59.1 L8.55 -58.9 Q6.6 -58.45 5.45 -57.35 4.6 -56.55 4.5 -55.8 L4.6 -55.75 M5.25 -53.25 Q1.3 -50.9 -1.1 -46.45 -3.75 -41.65 -3.35 -36.2 L-0.4 -25.25 -3.35 -36.2 Q-3.75 -41.65 -1.1 -46.45 1.3 -50.9 5.25 -53.25 M16.25 28.45 L15.35 27.95 Q14.1 27.15 13.45 26.2 L12.95 24.4 9.2 10.5 12.95 24.4 9.6 25.3 8.9 25.45 5.2 11.6 9.2 10.5 12.15 9.65 15.3 23.8 16.15 27.9 16.25 28.45 M-91.05 41.2 L-91.35 39.45 -80.55 37.6 -80.3 39.3 -91.05 41.2 M-91.5 38.55 L-91.7 37.45 -80.95 35.55 -80.9 35.6 -80.7 36.75 -91.5 38.55 M-53.1 27.45 L-43.15 25.75 -42.95 27.05 -42.25 31.0 -28.45 28.6 -27.55 31.9 -35.5 33.25 -36.55 34.7 -36.8 35.1 -37.8 36.45 -40.6 36.9 -41.85 37.15 -42.55 32.95 -46.95 33.7 -46.2 37.9 -51.15 38.75 -53.1 27.45 M4.9 -32.7 Q9.7 -32.2 15.35 -33.65 19.7 -34.85 23.0 -36.85 19.7 -34.85 15.35 -33.65 9.7 -32.2 4.9 -32.7 M-3.35 -36.2 Q-2.55 -35.1 -1.0 -34.25 -2.55 -35.1 -3.35 -36.2 M-14.6 -26.75 Q-17.9 -24.75 -22.25 -23.55 -27.9 -22.1 -32.7 -22.6 -27.9 -22.1 -22.25 -23.55 -17.9 -24.75 -14.6 -26.75 M-20.6 55.05 Q-22.2 53.05 -22.4 50.1 -22.55 48.8 -23.2 47.95 L-23.8 46.95 Q-24.2 45.7 -22.3 45.75 -21.45 46.2 -21.15 47.2 -20.4 49.35 -19.9 51.65 -19.6 53.35 -20.2 54.9 -20.4 55.3 -20.6 55.1 L-20.6 55.05 M-4.55 52.75 Q-5.6 53.05 -5.35 51.1 -5.1 49.65 -5.35 48.15 -5.65 45.8 -7.45 44.85 -7.9 44.65 -7.95 44.15 -8.35 41.95 -5.7 43.25 -3.05 46.85 -3.25 51.6 -3.3 52.1 -3.75 52.35 L-4.55 52.75" fill="#bfbfbf" fill-rule="evenodd" stroke="none"/>
    <path d="M13.25 -53.85 L13.35 -54.0 Q14.25 -54.8 14.35 -55.55 L14.3 -55.6 Q17.75 -55.6 21.05 -54.0 L23.1 -52.9 Q25.2 -51.65 26.85 -50.0 28.9 -47.95 30.2 -45.3 30.0 -43.75 28.95 -42.15 L26.65 -39.6 Q25.05 -38.05 23.0 -36.85 25.05 -38.05 26.65 -39.6 L28.95 -42.15 Q30.0 -43.75 30.2 -45.3 L47.0 17.2 Q46.9 18.4 46.2 19.7 45.3 21.25 43.5 22.9 L39.75 25.7 38.65 17.6 Q34.1 -11.3 23.0 -36.85 22.85 -49.25 13.25 -53.85 M-23.3 -45.5 Q-18.8 -45.45 -14.5 -42.8 -9.75 -40.0 -7.4 -35.2 L-3.45 -20.6 Q-3.35 -18.0 -7.4 -14.8 L-7.45 -14.75 -7.4 -14.75 -7.95 -12.35 -0.7 13.3 5.2 11.6 8.9 25.45 9.4 27.3 9.3 27.95 Q8.8 30.05 6.65 32.3 15.65 36.35 21.9 44.1 L15.65 47.8 Q14.65 44.4 11.65 41.25 L12.05 38.7 5.2 33.65 2.15 35.8 1.95 34.0 1.45 30.3 1.25 29.2 1.0 27.55 Q-3.55 -1.25 -14.6 -26.75 -12.55 -27.95 -10.95 -29.5 -7.7 -32.45 -7.4 -35.2 -7.7 -32.45 -10.95 -29.5 -12.55 -27.95 -14.6 -26.75 -14.75 -39.15 -24.35 -43.75 L-24.25 -43.9 Q-23.35 -44.7 -23.25 -45.45 L-23.3 -45.5 M-80.05 40.55 L-80.1 40.5 -80.3 39.3 -80.55 37.6 -80.7 36.75 -80.9 35.6 -76.85 34.45 -76.0 35.6 Q-75.2 36.15 -74.15 36.0 -73.2 35.8 -72.6 35.05 -72.05 34.2 -72.25 33.2 L-72.25 33.05 -57.7 28.8 -58.35 29.4 Q-58.95 30.2 -58.75 31.2 -58.6 32.2 -57.8 32.75 L-56.0 33.1 Q-55.0 32.95 -54.45 32.2 -53.9 31.35 -54.05 30.35 -54.25 29.35 -55.0 28.8 -55.65 28.35 -56.45 28.35 L-53.1 27.45 -51.15 38.75 -50.65 41.6 -52.4 41.5 Q-52.95 39.55 -55.1 39.95 -56.65 40.2 -57.0 41.35 L-71.0 40.85 Q-71.7 39.7 -73.35 40.0 -74.35 40.15 -74.85 40.7 L-80.05 40.55 M-43.15 25.75 L-29.8 23.45 -29.2 25.7 -42.95 27.05 -43.15 25.75 M0.3 -0.05 Q0.05 0.85 -0.8 1.4 L-2.6 1.65 Q-3.55 1.35 -4.05 0.5 -4.6 -0.35 -4.3 -1.3 -4.05 -2.25 -3.2 -2.75 L-1.4 -3.0 Q-0.45 -2.75 0.05 -1.9 0.55 -1.0 0.3 -0.05 M6.65 32.3 L5.9 33.0 5.2 33.65 5.9 33.0 6.65 32.3 M-22.8 37.9 L-22.5 39.7 -23.6 41.05 -32.2 42.55 -33.65 41.45 -34.7 35.4 -33.95 34.3 -27.25 33.1 -25.75 38.7 -22.8 37.9 M-23.8 46.95 L-23.2 47.95 Q-22.55 48.8 -22.4 50.1 -22.2 53.05 -20.6 55.05 -21.45 58.15 -25.1 58.85 -29.6 59.8 -31.1 55.4 L-32.1 49.5 -31.25 48.25 -23.8 46.95 M-4.55 52.75 L-4.65 53.0 Q-5.65 55.4 -8.45 56.25 -12.45 57.4 -14.85 53.0 L-15.0 52.75 -16.05 46.8 -15.0 45.35 -7.95 44.15 Q-7.9 44.65 -7.45 44.85 -5.65 45.8 -5.35 48.15 -5.1 49.65 -5.35 51.1 -5.6 53.05 -4.55 52.75 M-65.5 36.95 Q-65.35 37.9 -64.55 38.45 -63.75 39.0 -62.75 38.85 -61.75 38.7 -61.2 37.9 -60.65 37.1 -60.85 36.1 -61.0 35.1 -61.8 34.55 -62.6 33.95 -63.6 34.15 -64.6 34.3 -65.1 35.1 -65.7 35.9 -65.5 36.95 M-46.2 37.9 L-46.95 33.7 -42.55 32.95 -41.85 37.15 -46.2 37.9" fill="#666666" fill-rule="evenodd" stroke="none"/>
    <path d="M22.35 -67.0 Q19.3 -59.8 21.05 -54.0 M26.85 -50.0 L22.35 -67.0 20.45 -74.1 -45.15 -56.85 -43.25 -49.75 Q-37.7 -45.4 -36.05 -40.15 M-3.45 -20.6 L-3.6 -21.35 M20.45 -74.1 L19.55 -77.55 25.05 -78.95 50.75 18.5 46.2 19.7 M15.35 27.95 L10.1 28.2 9.3 27.95 M6.65 32.3 Q15.65 36.35 21.9 44.1 L23.0 45.45 16.05 49.5 15.65 47.8 Q14.65 44.4 11.65 41.25 L12.05 38.7 5.2 33.65 M-5.6 39.0 L-5.95 39.45 -5.6 41.7 -3.7 43.0 -2.4 50.95 Q-2.5 52.05 -2.75 53.0 -3.85 56.8 -8.0 58.0 -13.45 59.6 -16.65 53.4 L-18.05 45.5 -16.65 43.65 -21.55 44.5 -19.6 45.9 -18.3 53.7 Q-18.55 59.7 -24.65 60.85 -30.8 62.15 -32.85 56.2 L-34.25 48.15 -33.0 46.45 -33.3 44.2 -35.15 42.75 -36.2 36.75 -36.5 35.05 -36.8 35.1 -37.8 36.45 -40.6 36.9 -41.85 37.15 -42.55 32.95 -46.95 33.7 -46.2 37.9 -41.85 37.15 M-51.9 44.45 L-53.3 44.4 -53.35 44.45 -54.05 44.35 -56.3 44.2 -70.65 43.45 -75.2 43.2 -79.6 43.0 -80.05 40.55 -80.1 40.5 -90.9 42.35 -91.05 41.2 -91.35 39.45 -91.5 38.55 -91.7 37.45 -80.95 35.55 -81.35 33.1 -67.3 27.3 -63.05 25.55 -54.1 21.75 -53.1 27.45 -43.15 25.75 -29.8 23.45 -51.55 -58.75 -46.1 -60.2 -45.15 -56.85 M0.3 -0.05 Q0.05 0.85 -0.8 1.4 L-2.6 1.65 Q-3.55 1.35 -4.05 0.5 -4.6 -0.35 -4.3 -1.3 -4.05 -2.25 -3.2 -2.75 L-1.4 -3.0 Q-0.45 -2.75 0.05 -1.9 0.55 -1.0 0.3 -0.05 M6.6 -18.75 L13.85 6.9 M9.6 25.3 L10.1 28.2 M-7.45 -14.75 L-7.4 -14.8 Q-3.35 -18.0 -3.45 -20.6 M9.6 25.3 L8.9 25.45 M12.95 24.4 L9.6 25.3 M-7.4 -14.75 L-7.4 -14.8 M-43.25 -49.75 L-39.4 -35.0 M-27.25 33.1 L-27.55 31.9 -28.45 28.6 -29.2 25.7 -29.8 23.45 M-35.5 33.25 L-36.55 34.7 -36.5 35.05 M-42.25 31.0 L-42.95 27.05 -43.15 25.75 M-50.3 43.7 L-50.15 44.55 -51.9 44.45 M-36.8 35.1 L-36.55 34.7 M-22.8 37.9 L-25.75 38.7 -27.25 33.1 M-22.55 37.85 L-22.8 37.9 M-21.9 42.25 L-20.6 40.4 -20.85 38.75 M-21.9 42.25 L-17.1 41.4 -18.95 40.1 -19.05 39.35 M-80.9 35.6 L-80.95 35.55 M-80.9 35.6 L-80.7 36.75 -80.55 37.6 -80.3 39.3 -80.1 40.5 M-53.1 27.45 L-51.15 38.75 -46.2 37.9 M-50.65 41.6 L-51.15 38.75 M-50.65 41.6 L-50.3 43.7" fill="none" stroke="#000000" stroke-linecap="round" stroke-linejoin="round" stroke-width="0.05"/>
    <path d="M-36.2 36.75 Q-46.15 49.3 -62.25 52.55 L-64.75 53.0 Q-72.45 54.2 -79.35 53.0 -84.65 52.1 -89.5 49.8 M21.9 44.1 L15.65 47.8 M-27.55 31.9 L-35.5 33.25 M-33.3 44.2 L-21.9 42.25 M-33.0 46.45 L-21.55 44.5 M-5.95 39.45 L-17.1 41.4 M-16.65 43.65 L-5.6 41.7" fill="none" stroke="#000000" stroke-linecap="round" stroke-linejoin="round" stroke-opacity="0.33333334" stroke-width="0.05"/>
    <path d="M-87.3 47.05 Q-78.1 50.7 -64.9 48.45 -57.9 47.25 -51.9 44.45 M-40.6 36.9 Q-45.05 40.95 -50.3 43.7" fill="none" stroke="#000000" stroke-linecap="round" stroke-linejoin="round" stroke-opacity="0.6627451" stroke-width="0.05"/>
    <path d="M-28.45 28.6 L-42.25 31.0" fill="none" stroke="#000000" stroke-linecap="round" stroke-linejoin="round" stroke-opacity="0.5019608" stroke-width="0.05"/>
    <path d="M-89.5 49.8 L-94.35 47.65 -92.8 46.6 -87.3 47.05" fill="none" stroke="#000000" stroke-linecap="round" stroke-linejoin="round" stroke-opacity="0.2" stroke-width="0.05"/>
    <path d="M4.6 -55.75 L5.25 -53.25 5.25 -53.1 Q5.7 -52.5 6.85 -52.2 L10.3 -52.4 Q12.1 -52.9 13.25 -53.85 L13.35 -54.0 Q14.25 -54.8 14.35 -55.55 L14.3 -55.6 13.6 -58.2 Q13.5 -57.45 12.6 -56.65 11.45 -55.6 9.6 -55.1 L6.1 -54.9 Q5.05 -55.15 4.6 -55.75 L4.5 -55.8 Q4.6 -56.55 5.45 -57.35 6.6 -58.45 8.55 -58.9 L11.95 -59.1 Q13.1 -58.85 13.6 -58.2 M21.05 -54.0 L23.1 -52.9 Q25.2 -51.65 26.85 -50.0 28.9 -47.95 30.2 -45.3 L47.0 17.2 Q46.9 18.4 46.2 19.7 45.3 21.25 43.5 22.9 L39.75 25.7 Q36.45 27.65 32.15 28.85 28.0 29.95 24.3 29.95 L19.3 29.45 Q17.55 29.05 16.25 28.45 L15.35 27.95 Q14.1 27.15 13.45 26.2 L12.95 24.4 9.2 10.5 12.15 9.65 13.35 9.3 13.85 6.9 M-36.05 -40.15 Q-34.4 -41.95 -32.35 -43.15 L-33.0 -45.65 -33.1 -45.7 Q-33.0 -46.45 -32.15 -47.25 -31.0 -48.35 -29.05 -48.8 L-25.65 -49.0 Q-24.5 -48.75 -24.0 -48.1 L-23.3 -45.5 Q-18.8 -45.45 -14.5 -42.8 -9.75 -40.0 -7.4 -35.2 L-3.45 -20.6 M-3.6 -21.35 L-4.35 -24.1 -0.4 -25.25 -3.35 -36.2 Q-3.75 -41.65 -1.1 -46.45 1.3 -50.9 5.25 -53.25 M9.3 27.95 Q8.8 30.05 6.65 32.3 L5.9 33.0 5.2 33.65 2.15 35.8 Q-1.15 37.75 -5.45 38.95 L-5.6 39.0 Q-9.7 40.05 -13.3 40.05 L-15.55 39.95 -16.4 39.85 -18.3 39.55 -19.05 39.35 -20.85 38.75 -21.35 38.55 -22.55 37.85 -24.15 36.3 -40.95 -26.1 Q-41.3 -30.8 -39.4 -35.0 L-38.7 -36.35 Q-37.55 -38.5 -36.05 -40.15 M14.3 -55.6 Q17.75 -55.6 21.05 -54.0 M4.15 -19.15 L6.6 -18.75 6.1 -16.3 13.35 9.3 M-0.4 -25.25 L-0.25 -25.3 0.85 -20.95 Q1.25 -19.8 4.15 -19.15 M5.2 11.6 L9.2 10.5 M9.3 27.95 L9.4 27.3 8.9 25.45 5.2 11.6 -0.7 13.3 -7.95 -12.35 -7.4 -14.75 -7.45 -14.75 M-24.35 -43.75 Q-25.5 -42.8 -27.3 -42.3 L-30.75 -42.1 Q-31.9 -42.4 -32.35 -43.0 L-32.35 -43.15 M-24.0 -48.1 Q-24.1 -47.35 -25.0 -46.55 -26.15 -45.5 -28.0 -45.0 L-31.5 -44.8 Q-32.55 -45.05 -33.0 -45.65 M-23.3 -45.5 L-23.25 -45.45 Q-23.35 -44.7 -24.25 -43.9 L-24.35 -43.75 M6.1 -16.3 L-7.95 -12.35" fill="none" stroke="#000000" stroke-linecap="round" stroke-linejoin="round" stroke-width="0.05"/>
    <path d="M23.0 -36.85 Q25.05 -38.05 26.65 -39.6 L28.95 -42.15 Q30.0 -43.75 30.2 -45.3 M23.0 -36.85 Q19.7 -34.85 15.35 -33.65 9.7 -32.2 4.9 -32.7 L2.45 -33.1 Q0.45 -33.55 -1.0 -34.25 -2.55 -35.1 -3.35 -36.2 M-7.4 -35.2 Q-7.7 -32.45 -10.95 -29.5 -12.55 -27.95 -14.6 -26.75 -17.9 -24.75 -22.25 -23.55 -27.9 -22.1 -32.7 -22.6 L-35.15 -23.0 -36.35 -23.3 Q-37.6 -23.65 -38.6 -24.15 -40.15 -25.0 -40.95 -26.1" fill="none" stroke="#000000" stroke-linecap="round" stroke-linejoin="round" stroke-opacity="0.2509804" stroke-width="0.05"/>
  </g>
  <defs>
    <linearGradient gradientTransform="matrix(-0.0088, 0.0017, -0.0013, -0.0069, -12.2, 34.9)" gradientUnits="userSpaceOnUse" id="gradient0" spreadMethod="pad" x1="-819.2" x2="819.2">
      <stop offset="0.0" stop-color="#62480d"/>
      <stop offset="1.0" stop-color="#2d2106"/>
    </linearGradient>
  </defs>
</svg>
