<?xml version="1.0" encoding="UTF-8" standalone="no"?>
<svg xmlns:ffdec="https://www.free-decompiler.com/flash" xmlns:xlink="http://www.w3.org/1999/xlink" ffdec:objectType="shape" height="99.9px" width="197.35px" xmlns="http://www.w3.org/2000/svg">
  <g transform="matrix(1.0, 0.0, 0.0, 1.0, 104.5, 53.0)">
    <path d="M-17.5 -27.75 L-18.15 -24.5 -18.75 -22.65 -20.45 -21.8 -19.5 -14.5 -15.3 -12.95 -14.6 -9.6 -5.35 -6.0 -1.2 -9.1 8.85 -4.7 10.85 -7.65 13.45 -6.95 13.45 -4.1 24.6 2.15 26.35 -0.1 31.1 0.3 36.85 1.95 36.0 -1.0 38.65 -0.3 41.15 2.1 45.55 -8.7 42.0 -10.9 42.6 -13.25 46.05 -12.7 47.35 -17.55 49.35 -17.05 48.05 -12.2 46.85 -7.6 44.45 1.6 39.0 5.25 39.6 7.85 42.4 9.25 42.0 10.8 38.45 9.85 Q37.1 4.75 32.05 3.85 L29.3 3.3 27.6 4.4 21.4 3.8 19.3 4.8 17.0 4.2 17.8 2.25 -1.5 -5.75 -3.65 -3.7 -9.5 -4.95 -9.75 -2.85 -12.35 -3.55 -17.9 -8.45 -19.45 -11.9 -22.85 -10.95 -25.6 -9.8 -29.75 -11.6 -30.7 -14.45 -33.85 -17.3 -32.95 -20.7 -29.3 -18.25 -29.05 -15.75 -22.55 -13.3 -25.35 -20.65 -22.05 -22.65 -20.95 -27.95 -19.95 -28.45 -17.5 -27.75" fill="#666666" fill-rule="evenodd" stroke="none"/>
    <path d="M10.85 -7.65 L8.85 -4.7 -1.2 -9.1 -5.35 -6.0 -14.6 -9.6 -15.3 -12.95 -19.5 -14.5 -20.45 -21.8 -18.75 -22.65 -18.15 -24.5 -17.5 -27.75 -11.5 -26.2 -17.5 -27.75 -19.95 -28.45 -20.95 -27.95 -22.05 -22.65 -25.35 -20.65 -22.55 -13.3 -29.05 -15.75 -29.3 -18.25 -32.95 -20.7 -32.5 -22.4 -31.9 -24.55 -31.0 -25.1 -25.45 -28.3 -19.0 -32.05 -10.55 -29.8 -11.05 -27.95 -11.5 -26.2 -13.85 -17.3 -14.6 -14.35 10.85 -7.65 -14.6 -14.35 -13.85 -17.3 39.95 -3.1 39.15 -0.15 38.65 -0.3 36.0 -1.0 36.85 1.95 31.1 0.3 26.35 -0.1 24.6 2.15 13.45 -4.1 13.45 -6.95 10.85 -7.65 M42.0 -10.9 L45.55 -8.7 41.15 2.1 38.65 -0.3 39.15 -0.15 39.95 -3.1 42.0 -10.9 M13.45 -6.95 L36.0 -1.0 13.45 -6.95 M68.8 -6.85 Q75.7 -2.55 82.55 1.8 L67.55 -2.15 68.8 -6.85 M75.45 28.7 L59.2 29.45 49.2 26.8 47.35 34.2 40.6 32.45 40.9 35.1 41.15 37.75 3.6 38.7 2.75 37.55 40.9 35.1 5.75 30.9 5.05 29.8 40.9 35.1 7.1 27.45 6.25 25.95 40.6 32.45 4.6 22.9 -17.2 17.15 -55.35 7.1 -57.45 6.55 -56.75 3.85 -53.5 -8.5 Q-33.45 1.55 -7.75 5.95 17.9 10.3 39.9 18.75 46.5 21.8 51.25 19.0 56.2 21.5 61.2 22.05 L60.45 24.75 59.2 29.45 60.45 24.75 75.45 28.7 M4.8 34.6 L3.7 33.35 40.9 35.1 4.8 34.6 M-67.55 37.95 Q-59.95 31.45 -56.0 25.2 L-53.55 24.7 -53.05 23.95 -51.25 20.85 -50.9 20.05 -52.25 17.55 -50.75 14.65 -42.5 16.1 Q-49.75 31.4 -61.4 42.25 L-67.55 37.95 M-62.1 2.45 L-62.85 5.1 -68.2 3.7 -67.5 1.0 -64.25 -11.35 Q-62.3 -8.95 -58.85 -9.95 L-62.1 2.45 M-72.9 -0.4 L-73.6 2.3 -78.95 0.85 -78.25 -1.85 -75.0 -14.2 Q-72.65 -12.2 -69.6 -12.75 L-72.9 -0.4 M-83.65 -3.25 L-84.35 -0.55 -89.7 -2.0 -88.3 -7.3 Q-96.4 -11.35 -104.5 -15.45 L-102.4 -23.45 Q-95.05 -18.6 -85.75 -17.05 L-88.3 -7.3 -85.75 -17.05 Q-83.4 -15.15 -80.35 -15.6 L-83.65 -3.25 M-38.55 -43.05 L-37.9 -45.4 -15.45 -39.45 -16.1 -37.05 -38.55 -43.05 M77.75 23.55 L76.4 23.2 80.65 7.05 82.0 7.4 77.75 23.55 M66.15 3.2 L68.15 3.75 63.9 19.9 61.9 19.35 66.15 3.2 M72.6 4.95 L76.25 5.9 71.95 22.0 68.35 21.05 72.6 4.95 M49.2 26.8 L51.25 19.0 49.2 26.8 M-62.65 -39.1 L-62.1 -41.15 -56.75 -39.7 -57.3 -37.7 -57.8 -35.7 -63.2 -37.1 -62.65 -39.1 M-51.9 -36.3 L-51.35 -38.3 -46.0 -36.9 -46.55 -34.85 -47.05 -32.85 -52.45 -34.25 -51.9 -36.3 M-68.05 -40.55 L-68.55 -38.5 -73.95 -39.95 -73.4 -41.95 -72.9 -44.0 -67.5 -42.55 -68.05 -40.55 M-20.95 -27.95 L-32.5 -22.4 -20.95 -27.95" fill="#333333" fill-rule="evenodd" stroke="none"/>
    <path d="M-33.85 -17.3 L-30.7 -14.45 -29.75 -11.6 -25.6 -9.8 -22.85 -10.95 -19.45 -11.9 -17.9 -8.45 -12.35 -3.55 -35.85 -9.75 -33.85 -17.3 M-9.75 -2.85 L-9.5 -4.95 -3.65 -3.7 -1.5 -5.75 17.8 2.25 17.0 4.2 -9.75 -2.85 M19.3 4.8 L21.4 3.8 27.6 4.4 29.3 3.3 32.05 3.85 Q37.1 4.75 38.45 9.85 L19.3 4.8 M42.4 9.25 L39.6 7.85 39.0 5.25 44.45 1.6 42.4 9.25" fill="#1a1a1a" fill-rule="evenodd" stroke="none"/>
    <path d="M2.75 37.55 L0.8 34.55 4.8 34.6 40.9 35.1 3.7 33.35 1.6 30.45 5.75 30.9 40.9 35.1 2.75 37.55 M5.05 29.8 L3.2 26.55 7.1 27.45 40.9 35.1 5.05 29.8 M6.25 25.95 L4.6 22.9 40.6 32.45 6.25 25.95 M-41.5 19.4 Q-45.05 32.1 -58.8 44.0 L-61.4 42.25 Q-49.75 31.4 -42.5 16.1 L-41.5 19.4" fill="#222222" fill-rule="evenodd" stroke="none"/>
    <path d="M46.85 -7.6 L48.05 -12.2 Q51.0 -9.9 58.8 -9.5 L58.0 -6.55 Q62.5 -2.3 67.55 -2.15 L66.3 2.55 Q62.05 -0.6 56.7 -1.55 L57.25 -3.7 58.0 -6.55 57.25 -3.7 Q52.65 -7.15 46.85 -7.6 M47.35 -17.55 L46.05 -12.7 42.6 -13.25 43.0 -14.7 43.95 -18.45 43.0 -14.7 Q16.5 -25.2 -11.05 -27.95 L-10.55 -29.8 -9.85 -32.5 Q15.9 -25.45 44.65 -21.0 L43.95 -18.45 47.35 -17.55 M-53.05 23.95 L-54.45 23.15 -52.9 20.55 -51.25 20.85 -53.05 23.95 M-98.35 -38.75 L-97.35 -42.55 Q-87.6 -40.6 -79.35 -41.25 L-79.95 -38.95 -79.35 -41.25 -78.8 -43.4 Q-76.15 -41.55 -73.4 -41.95 L-73.95 -39.95 -74.6 -37.5 Q-77.05 -39.2 -79.95 -38.95 L-80.55 -36.65 Q-89.7 -38.85 -98.35 -38.75 M-57.3 -37.7 Q-55.25 -35.55 -51.9 -36.3 L-52.45 -34.25 -53.05 -31.85 Q-55.45 -33.85 -58.45 -33.25 L-57.8 -35.7 -57.3 -37.7 M-46.55 -34.85 Q-38.0 -30.25 -25.45 -28.3 L-31.0 -25.1 Q-36.85 -28.2 -47.7 -30.45 L-47.05 -32.85 -46.55 -34.85 M-63.2 -37.1 L-63.85 -34.7 Q-66.2 -36.7 -69.2 -36.1 L-68.55 -38.5 -68.05 -40.55 Q-65.75 -38.45 -62.65 -39.1 L-63.2 -37.1" fill="#cccccc" fill-rule="evenodd" stroke="none"/>
    <path d="M-13.85 -17.3 L-11.5 -26.2 -11.05 -27.95 Q16.5 -25.2 43.0 -14.7 L42.6 -13.25 42.0 -10.9 39.95 -3.1 -13.85 -17.3 M-32.95 -20.7 L-33.85 -17.3 -35.85 -9.75 -12.35 -3.55 -9.75 -2.85 17.0 4.2 19.3 4.8 38.45 9.85 42.0 10.8 42.4 9.25 44.45 1.6 46.85 -7.6 Q52.65 -7.15 57.25 -3.7 L56.7 -1.55 Q62.05 -0.6 66.3 2.55 L67.55 -2.15 Q62.5 -2.3 58.0 -6.55 L58.8 -9.5 Q51.0 -9.9 48.05 -12.2 L49.35 -17.05 50.4 -21.0 61.1 -18.15 58.8 -9.5 68.8 -6.85 67.55 -2.15 82.55 1.8 92.85 4.5 91.4 9.9 88.75 9.2 84.45 25.3 87.15 26.05 85.75 31.4 75.45 28.7 60.45 24.75 61.2 22.05 Q56.2 21.5 51.25 19.0 46.5 21.8 39.9 18.75 17.9 10.3 -7.75 5.95 -33.45 1.55 -53.5 -8.5 L-56.75 3.85 -62.1 2.45 -58.85 -9.95 Q-62.3 -8.95 -64.25 -11.35 L-58.45 -33.25 -64.25 -11.35 -67.5 1.0 -72.9 -0.4 -69.6 -12.75 -63.85 -34.7 -69.6 -12.75 Q-72.65 -12.2 -75.0 -14.2 L-78.25 -1.85 -83.65 -3.25 -80.35 -15.6 -74.6 -37.5 -73.95 -39.95 -68.55 -38.5 -69.2 -36.1 Q-66.2 -36.7 -63.85 -34.7 L-63.2 -37.1 -57.8 -35.7 -58.45 -33.25 Q-55.45 -33.85 -53.05 -31.85 L-52.45 -34.25 -47.05 -32.85 -47.7 -30.45 -53.5 -8.5 -47.7 -30.45 Q-36.85 -28.2 -31.0 -25.1 L-31.9 -24.55 -32.5 -22.4 -32.95 -20.7 M-16.1 -37.05 L-9.1 -35.2 -8.2 -38.7 45.55 -24.5 44.65 -21.0 Q15.9 -25.45 -9.85 -32.5 L-10.55 -29.8 -19.0 -32.05 -25.45 -28.3 Q-38.0 -30.25 -46.55 -34.85 L-46.0 -36.9 -51.35 -38.3 -51.9 -36.3 Q-55.25 -35.55 -57.3 -37.7 L-56.75 -39.7 -62.1 -41.15 -62.65 -39.1 Q-65.75 -38.45 -68.05 -40.55 L-67.5 -42.55 -72.9 -44.0 -73.4 -41.95 Q-76.15 -41.55 -78.8 -43.4 L-77.65 -47.6 -76.25 -53.0 -70.85 -51.55 -71.55 -48.95 -66.2 -47.45 -65.5 -50.15 -60.1 -48.75 -60.8 -46.1 -55.45 -44.6 -54.75 -47.3 -49.35 -45.9 -50.05 -43.25 -44.7 -41.8 -44.0 -44.45 -38.55 -43.05 -16.1 -37.05 M41.15 37.75 L44.55 37.65 49.55 45.45 Q20.15 40.8 -4.75 46.9 L-0.05 38.8 3.6 38.7 41.15 37.75 M-17.2 17.15 L-24.15 21.8 -41.5 19.4 -42.5 16.1 -50.75 14.65 -52.25 17.55 -55.35 13.0 -55.35 7.1 -17.2 17.15 M-58.8 44.0 L-60.85 45.75 -70.8 38.25 -67.55 37.95 -61.4 42.25 -58.8 44.0 M-102.4 -23.45 L-98.35 -38.75 Q-89.7 -38.85 -80.55 -36.65 L-85.75 -17.05 -80.55 -36.65 -79.95 -38.95 Q-77.05 -39.2 -74.6 -37.5 L-80.35 -15.6 Q-83.4 -15.15 -85.75 -17.05 -95.05 -18.6 -102.4 -23.45 M-97.35 -42.55 L-95.8 -48.45 -77.65 -47.6 -78.8 -43.4 -79.35 -41.25 Q-87.6 -40.6 -97.35 -42.55 M77.75 23.55 L80.05 24.15 84.3 8.0 82.0 7.4 80.65 7.05 76.4 23.2 77.75 23.55 M72.6 4.95 L68.35 21.05 71.95 22.0 76.25 5.9 72.6 4.95 M66.15 3.2 L61.9 19.35 63.9 19.9 68.15 3.75 66.15 3.2 66.3 2.55 66.15 3.2 M61.9 19.35 L61.2 22.05 61.9 19.35 M51.25 19.0 L56.7 -1.55 51.25 19.0 M-44.7 -41.8 L-45.45 -39.05 -50.8 -40.45 -50.05 -43.25 -50.8 -40.45 -45.45 -39.05 -44.7 -41.8 M-55.45 -44.6 L-56.2 -41.85 -61.55 -43.3 -60.8 -46.1 -61.55 -43.3 -56.2 -41.85 -55.45 -44.6 M-9.1 -35.2 L-9.85 -32.5 -9.1 -35.2 M-53.05 -31.85 L-58.85 -9.95 -53.05 -31.85 M-66.2 -47.45 L-66.95 -44.7 -72.3 -46.15 -71.55 -48.95 -72.3 -46.15 -66.95 -44.7 -66.2 -47.45 M-75.0 -14.2 L-69.2 -36.1 -75.0 -14.2" fill="#999999" fill-rule="evenodd" stroke="none"/>
    <path d="M10.85 -7.65 L-14.6 -14.35 -13.85 -17.3 -11.5 -26.2 -17.5 -27.75 -19.95 -28.45 -20.95 -27.95 -32.5 -22.4 -32.95 -20.7 -33.85 -17.3 -35.85 -9.75 -12.35 -3.55 -9.75 -2.85 17.0 4.2 19.3 4.8 38.45 9.85 42.0 10.8 42.4 9.25 44.45 1.6 46.85 -7.6 48.05 -12.2 49.35 -17.05 47.35 -17.55 43.95 -18.45 43.0 -14.7 42.6 -13.25 42.0 -10.9 39.95 -3.1 39.15 -0.15 38.65 -0.3 36.0 -1.0 13.45 -6.95 10.85 -7.65 M-16.1 -37.05 L-9.1 -35.2 -8.2 -38.7 45.55 -24.5 44.65 -21.0 43.95 -18.45 M-11.05 -27.95 L-11.5 -26.2 M49.35 -17.05 L50.4 -21.0 61.1 -18.15 58.8 -9.5 68.8 -6.85 Q75.7 -2.55 82.55 1.8 L92.85 4.5 91.4 9.9 88.75 9.2 84.45 25.3 87.15 26.05 85.75 31.4 75.45 28.7 59.2 29.45 49.2 26.8 47.35 34.2 40.6 32.45 40.9 35.1 41.15 37.75 44.55 37.65 49.55 45.45 Q20.15 40.8 -4.75 46.9 L-0.05 38.8 3.6 38.7 2.75 37.55 0.8 34.55 4.8 34.6 3.7 33.35 1.6 30.45 5.75 30.9 5.05 29.8 3.2 26.55 7.1 27.45 6.25 25.95 4.6 22.9 -17.2 17.15 -24.15 21.8 -41.5 19.4 Q-45.05 32.1 -58.8 44.0 L-60.85 45.75 -70.8 38.25 -67.55 37.95 Q-59.95 31.45 -56.0 25.2 L-53.55 24.7 -53.05 23.95 -54.45 23.15 -52.9 20.55 -51.25 20.85 -50.9 20.05 -52.25 17.55 -55.35 13.0 -55.35 7.1 -57.45 6.55 -56.75 3.85 -62.1 2.45 -62.85 5.1 -68.2 3.7 -67.5 1.0 -72.9 -0.4 -73.6 2.3 -78.95 0.85 -78.25 -1.85 -83.65 -3.25 -84.35 -0.55 -89.7 -2.0 -88.3 -7.3 Q-96.4 -11.35 -104.5 -15.45 L-102.4 -23.45 -98.35 -38.75 -97.35 -42.55 -95.8 -48.45 -77.65 -47.6 -76.25 -53.0 -70.85 -51.55 -71.55 -48.95 -66.2 -47.45 -65.5 -50.15 -60.1 -48.75 -60.8 -46.1 -55.45 -44.6 -54.75 -47.3 -49.35 -45.9 -50.05 -43.25 -44.7 -41.8 -44.0 -44.45 -38.55 -43.05 -37.9 -45.4 -15.45 -39.45 -16.1 -37.05 -38.55 -43.05 M57.25 -3.7 L56.7 -1.55 51.25 19.0 49.2 26.8 M66.3 2.55 L67.55 -2.15 82.55 1.8 M58.0 -6.55 L57.25 -3.7 M58.8 -9.5 L58.0 -6.55 M68.8 -6.85 L67.55 -2.15 M82.0 7.4 L84.3 8.0 80.05 24.15 77.75 23.55 76.4 23.2 80.65 7.05 M82.0 7.4 L77.75 23.55 M72.6 4.95 L68.35 21.05 71.95 22.0 76.25 5.9 72.6 4.95 M66.15 3.2 L61.9 19.35 63.9 19.9 68.15 3.75 66.15 3.2 66.3 2.55 M61.2 22.05 L61.9 19.35 M59.2 29.45 L60.45 24.75 61.2 22.05 M75.45 28.7 L60.45 24.75 M40.6 32.45 L4.6 22.9 M3.6 38.7 L41.15 37.75 M-53.5 -8.5 L-56.75 3.85 M-85.75 -17.05 L-88.3 -7.3 M-85.75 -17.05 L-80.55 -36.65 -79.95 -38.95 -79.35 -41.25 -78.8 -43.4 -77.65 -47.6 M-50.05 -43.25 L-50.8 -40.45 -45.45 -39.05 -44.7 -41.8 M-10.55 -29.8 L-9.85 -32.5 -9.1 -35.2 M-60.8 -46.1 L-61.55 -43.3 -56.2 -41.85 -55.45 -44.6 M-53.05 -31.85 L-52.45 -34.25 -47.05 -32.85 -47.7 -30.45 -53.5 -8.5 M-57.8 -35.7 L-58.45 -33.25 -64.25 -11.35 -67.5 1.0 M-58.85 -9.95 L-53.05 -31.85 M-57.8 -35.7 L-63.2 -37.1 -63.85 -34.7 -69.6 -12.75 -72.9 -0.4 M-68.55 -38.5 L-69.2 -36.1 -75.0 -14.2 -78.25 -1.85 M-71.55 -48.95 L-72.3 -46.15 -66.95 -44.7 -66.2 -47.45 M-73.95 -39.95 L-68.55 -38.5 M-74.6 -37.5 L-73.95 -39.95 M-80.35 -15.6 L-74.6 -37.5 M-10.55 -29.8 L-11.05 -27.95 M-31.9 -24.55 L-32.5 -22.4 M-80.35 -15.6 L-83.65 -3.25 M-42.5 16.1 L-50.75 14.65 -52.25 17.55 M-51.25 20.85 L-53.05 23.95 M-41.5 19.4 L-42.5 16.1 M-61.4 42.25 L-58.8 44.0 M-67.55 37.95 L-61.4 42.25 M-55.35 7.1 L-17.2 17.15 M-62.1 2.45 L-58.85 -9.95" fill="none" stroke="#000000" stroke-linecap="round" stroke-linejoin="round" stroke-width="0.05"/>
  </g>
</svg>
