<?xml version="1.0" encoding="UTF-8" standalone="no"?>
<svg xmlns:ffdec="https://www.free-decompiler.com/flash" xmlns:xlink="http://www.w3.org/1999/xlink" ffdec:objectType="shape" height="67.2px" width="79.25px" xmlns="http://www.w3.org/2000/svg">
  <g transform="matrix(1.0, 0.0, 0.0, 1.0, 31.5, 42.65)">
    <path d="M-26.85 12.45 Q-28.5 10.7 -29.55 9.05 L-28.1 9.2 Q-26.35 9.45 -25.6 10.25 -25.15 10.25 -25.15 9.3 L-24.3 10.1 -23.65 10.75 -23.85 11.2 -26.2 10.55 -26.65 11.0 -26.85 12.4 -26.85 12.45 M7.3 -9.5 Q8.5 -6.65 11.55 -5.1 L11.55 -4.55 Q11.6 -3.6 12.0 -2.85 11.6 -3.6 11.55 -4.55 L26.5 -11.45 12.0 -2.85 12.45 -2.15 Q13.2 -1.25 14.65 -0.7 L14.65 -0.2 14.5 0.85 13.55 1.15 10.15 1.75 10.25 1.5 Q10.85 -0.15 10.85 -1.1 10.85 -4.5 8.05 -6.4 L4.75 -7.65 Q3.4 -8.15 2.95 -8.9 L6.25 -9.15 7.3 -9.5 M-3.5 -11.75 Q-2.6 -10.85 -1.35 -10.2 -3.25 -9.65 -4.2 -9.0 L-7.45 -6.65 Q-9.5 -5.25 -10.25 -3.45 L-13.0 -5.65 Q-12.55 -6.4 -12.35 -7.55 -11.15 -9.15 -3.5 -11.75 M-11.75 -10.65 L-18.75 -25.6 -9.7 -11.35 Q-10.55 -10.75 -11.75 -10.65 M-28.1 9.2 L-26.65 11.0 -28.1 9.2" fill="#ffffff" fill-rule="evenodd" stroke="none"/>
    <path d="M18.4 1.55 Q18.8 1.55 19.1 1.85 L19.45 2.65 19.1 3.45 18.75 3.7 18.1 3.35 Q17.8 3.05 17.8 2.55 17.8 2.05 18.1 1.7 L18.4 1.55 M11.15 3.0 Q11.6 3.0 11.9 3.3 12.25 3.6 12.25 4.1 12.25 4.6 11.9 4.9 L11.4 5.2 10.7 4.85 Q10.4 4.55 10.4 4.05 10.4 3.55 10.7 3.2 10.85 3.05 11.05 3.0 L11.15 3.0 M15.05 10.7 L14.8 10.5 Q14.5 10.2 14.5 9.7 14.5 9.2 14.8 8.85 L15.55 8.55 15.9 8.8 16.25 9.6 15.9 10.4 Q15.6 10.7 15.1 10.7 L15.05 10.7 M3.05 3.2 L3.45 3.15 Q3.95 3.15 4.25 3.45 L4.55 4.25 4.25 5.05 3.7 5.35 3.65 5.35 Q3.15 5.35 2.8 5.0 2.5 4.7 2.5 4.2 2.5 3.7 2.8 3.35 L3.05 3.2 M-20.55 0.75 L-20.8 0.55 -21.1 -0.2 -20.8 -1.05 -20.0 -1.3 -19.75 -1.3 -19.7 -1.25 Q-19.35 -0.9 -19.35 -0.4 -19.35 0.1 -19.7 0.4 -20.0 0.75 -20.5 0.75 L-20.55 0.75 M-20.2 -5.55 L-20.45 -6.25 -20.15 -7.1 -19.3 -7.4 -18.8 -7.3 -18.65 -6.65 Q-18.65 -6.15 -19.0 -5.85 -19.3 -5.5 -19.8 -5.5 L-20.2 -5.55 M-13.15 -2.65 L-12.9 -1.9 Q-12.9 -1.4 -13.25 -1.1 -13.55 -0.75 -14.05 -0.75 L-14.5 -0.8 -14.55 -0.9 Q-14.85 -1.2 -14.85 -1.65 L-14.55 -2.5 Q-14.25 -2.8 -13.75 -2.8 L-13.15 -2.65 M-3.5 2.5 Q-3.2 2.15 -2.75 2.15 -2.3 2.15 -1.95 2.5 -1.65 2.8 -1.65 3.25 -1.65 3.7 -1.95 4.05 -2.3 4.35 -2.75 4.35 -3.2 4.35 -3.5 4.05 L-3.85 3.25 Q-3.85 2.8 -3.5 2.5 M-7.85 0.55 Q-7.7 0.8 -7.7 1.15 -7.7 1.65 -8.05 1.95 -8.35 2.3 -8.85 2.3 L-9.45 2.15 -9.5 2.1 -9.8 1.3 -9.5 0.5 Q-9.2 0.2 -8.7 0.2 -8.2 0.2 -7.9 0.5 L-7.85 0.55" fill="#363841" fill-rule="evenodd" stroke="none"/>
    <path d="M-14.35 -14.35 L-18.75 -25.6 -11.75 -10.65 -12.9 -10.65 -14.35 -14.35" fill="#cccccc" fill-rule="evenodd" stroke="none"/>
    <path d="M8.45 -11.3 L8.5 -11.3 Q9.3 -11.65 10.15 -12.3 L11.05 -13.1 10.4 -12.15 Q13.0 -10.2 15.5 -7.15 L26.5 -11.45 18.2 -3.45 19.2 -1.7 Q17.75 -0.3 15.3 0.6 L15.75 -1.05 15.2 -0.55 14.65 -0.7 Q13.2 -1.25 12.45 -2.15 L26.5 -11.45 11.55 -4.55 11.55 -5.1 11.55 -5.6 12.65 -6.0 11.8 -6.55 Q8.75 -8.25 7.95 -9.9 L8.55 -10.4 10.4 -12.15 8.55 -10.4 7.95 -9.9 7.3 -9.5 6.25 -9.15 2.95 -8.9 Q3.4 -8.15 4.75 -7.65 L8.05 -6.4 Q10.85 -4.5 10.85 -1.1 10.85 -0.15 10.25 1.5 L10.15 1.75 13.55 1.15 14.5 0.85 Q13.6 5.85 13.6 8.0 13.6 11.5 15.7 12.8 17.85 14.2 18.6 17.35 17.15 18.3 15.25 19.05 17.15 18.3 18.6 17.35 L19.4 16.75 20.9 15.3 21.3 14.1 21.95 9.45 Q23.55 13.0 22.15 16.05 20.0 21.35 11.85 23.5 2.85 25.9 -8.25 22.9 -19.05 20.0 -25.6 13.7 L-25.75 12.55 -25.7 12.05 -25.0 12.75 Q-18.7 19.0 -8.1 21.85 2.45 24.7 11.05 22.4 18.85 20.4 20.9 15.3 18.85 20.4 11.05 22.4 2.45 24.7 -8.1 21.85 -18.7 19.0 -25.0 12.75 L-25.7 12.05 Q-25.55 11.55 -25.05 11.55 L-21.25 12.8 -18.85 14.45 Q-13.8 17.6 -7.1 19.4 3.65 22.3 12.45 19.95 L15.25 19.05 15.8 16.05 Q15.8 14.1 12.7 10.25 9.6 6.4 9.6 4.35 9.6 3.2 10.15 1.75 5.1 2.3 -0.8 0.75 -5.65 -0.55 -9.25 -2.8 L-3.9 -5.3 Q0.4 -7.25 1.15 -9.25 L1.05 -9.3 -1.35 -10.2 Q-2.6 -10.85 -3.5 -11.75 -4.9 -13.1 -4.95 -14.2 L-5.35 -16.45 -4.95 -14.2 Q-4.9 -13.1 -3.5 -11.75 -11.15 -9.15 -12.35 -7.55 -12.55 -6.4 -13.0 -5.65 L-10.25 -3.45 Q-10.7 -2.4 -10.7 -1.2 -10.7 0.4 -11.35 0.7 L-13.4 1.8 Q-17.15 3.7 -17.15 5.1 L-16.85 7.5 Q-16.85 9.8 -19.5 9.7 -22.2 9.55 -22.2 10.6 L-22.0 12.15 -23.65 10.75 -24.3 10.1 -25.15 9.3 -27.2 6.85 -25.15 9.3 Q-25.15 10.25 -25.6 10.25 -26.35 9.45 -28.1 9.2 L-29.55 9.05 Q-32.65 4.35 -30.85 0.5 -29.75 -2.15 -27.2 -4.0 -28.6 -1.95 -29.7 0.45 -31.5 4.35 -28.1 9.2 -31.5 4.35 -29.7 0.45 -29.75 3.4 -27.2 6.85 L-26.9 6.8 -25.05 7.7 Q-24.5 7.7 -24.55 6.4 L-24.75 4.05 Q-16.7 4.4 -16.7 0.15 -16.7 -1.55 -17.4 -3.1 -17.4 -4.15 -16.55 -4.15 -15.0 -4.1 -14.15 -4.55 -13.45 -4.9 -13.0 -5.65 L-13.45 -6.1 Q-17.25 -9.8 -17.45 -12.85 L-15.8 -13.7 -14.35 -14.35 -12.9 -10.65 -11.75 -10.65 Q-10.55 -10.75 -9.7 -11.35 L-9.0 -11.95 Q-8.25 -12.85 -7.85 -14.3 L-9.4 -15.9 -5.35 -16.45 -5.7 -18.25 -5.05 -16.5 -4.05 -14.95 -3.8 -14.65 Q-1.95 -12.5 1.75 -11.5 L8.45 -11.3 M-18.75 -25.6 L-9.4 -15.9 -7.85 -14.3 Q-8.25 -12.85 -9.0 -11.95 L-18.75 -25.6 M-1.5 -22.1 L3.6 -21.95 Q2.45 -18.15 2.65 -15.4 L-0.95 -15.8 Q-0.9 -18.9 -1.5 -22.1 M15.5 -7.15 L12.65 -6.0 15.5 -7.15 M1.15 -9.25 L2.95 -8.9 1.15 -9.25 M15.75 -1.05 L18.2 -3.45 15.75 -1.05 M11.15 3.0 L11.05 3.0 Q10.85 3.05 10.7 3.2 10.4 3.55 10.4 4.05 10.4 4.55 10.7 4.85 L11.4 5.2 11.9 4.9 Q12.25 4.6 12.25 4.1 12.25 3.6 11.9 3.3 11.6 3.0 11.15 3.0 M-14.5 -0.8 L-14.05 -0.75 Q-13.55 -0.75 -13.25 -1.1 -12.9 -1.4 -12.9 -1.9 L-13.15 -2.65 -13.25 -2.75 -14.05 -3.05 -14.9 -2.75 -15.2 -1.9 -14.9 -1.1 -14.5 -0.8 M-20.4 8.6 L-20.05 8.3 Q-19.7 8.0 -19.7 7.5 -19.7 7.0 -20.05 6.65 -20.25 6.45 -20.6 6.4 L-20.85 6.35 Q-21.35 6.35 -21.7 6.65 L-22.0 7.5 -21.7 8.3 -20.85 8.65 -20.4 8.6" fill="#e1e1e1" fill-rule="evenodd" stroke="none"/>
    <path d="M5.1 -21.55 Q8.4 -20.6 10.45 -18.55 12.95 -16.1 12.1 -14.2 L11.05 -13.1 10.15 -12.3 Q9.3 -11.65 8.5 -11.3 L8.45 -11.3 7.25 -12.9 Q5.85 -14.3 3.7 -15.05 L3.65 -15.7 Q3.65 -19.15 5.1 -21.55 M19.2 -1.7 Q22.15 3.75 21.95 9.45 L21.3 14.1 20.9 15.3 19.4 16.75 18.1 13.9 16.85 12.6 Q16.35 12.15 16.35 11.1 L16.5 10.5 16.45 10.5 16.5 10.5 16.8 9.75 16.8 9.7 16.85 9.75 17.2 9.05 Q17.2 8.65 16.0 7.35 14.75 6.05 14.75 4.2 14.75 2.6 15.3 0.6 17.75 -0.3 19.2 -1.7 M-25.6 13.7 L-25.95 13.35 -26.85 12.45 -26.85 12.4 -26.65 11.0 -25.7 12.05 -26.65 11.0 -26.2 10.55 -23.85 11.2 -23.65 10.75 -22.0 12.15 -21.25 12.8 -25.05 11.55 Q-25.55 11.55 -25.7 12.05 L-25.75 12.55 -25.6 13.7 M-27.2 -4.0 Q-23.4 -9.6 -17.45 -12.85 -17.25 -9.8 -13.45 -6.1 L-13.0 -5.65 Q-13.45 -4.9 -14.15 -4.55 -15.0 -4.1 -16.55 -4.15 -17.4 -4.15 -17.4 -3.1 -16.7 -1.55 -16.7 0.15 -16.7 4.4 -24.75 4.05 L-24.55 6.4 Q-24.5 7.7 -25.05 7.7 L-26.9 6.8 -27.2 6.85 Q-29.75 3.4 -29.7 0.45 -28.6 -1.95 -27.2 -4.0 M7.95 -9.9 Q8.75 -8.25 11.8 -6.55 L12.65 -6.0 11.55 -5.6 11.55 -5.1 Q8.5 -6.65 7.3 -9.5 L7.95 -9.9 M12.45 -2.15 L12.0 -2.85 26.5 -11.45 12.45 -2.15 M1.15 -9.25 Q0.4 -7.25 -3.9 -5.3 L-9.25 -2.8 Q-5.65 -0.55 -0.8 0.75 5.1 2.3 10.15 1.75 9.6 3.2 9.6 4.35 9.6 6.4 12.7 10.25 15.8 14.1 15.8 16.05 L15.25 19.05 12.45 19.95 Q3.65 22.3 -7.1 19.4 -13.8 17.6 -18.85 14.45 -19.6 13.45 -19.6 12.55 -19.6 11.7 -16.4 9.75 -13.25 7.75 -13.25 6.5 L-13.7 4.6 Q-13.7 3.55 -11.1 1.1 -10.5 0.5 -10.3 -0.85 -10.1 -2.15 -9.55 -2.65 L-9.25 -2.8 -10.25 -3.45 Q-9.5 -5.25 -7.45 -6.65 L-4.2 -9.0 Q-3.25 -9.65 -1.35 -10.2 L1.05 -9.3 1.15 -9.25 M19.05 13.45 Q19.35 13.65 19.75 13.65 20.25 13.65 20.55 13.3 20.9 13.0 20.9 12.5 20.9 12.0 20.55 11.65 20.25 11.35 19.75 11.35 L19.7 11.35 Q19.25 11.35 18.9 11.65 18.6 12.0 18.6 12.5 18.6 13.0 18.9 13.3 L19.05 13.45 M18.75 3.7 L18.95 3.7 Q19.45 3.7 19.75 3.35 20.1 3.05 20.1 2.55 20.1 2.05 19.75 1.7 19.45 1.4 18.95 1.4 L18.4 1.55 18.1 1.7 Q17.8 2.05 17.8 2.55 17.8 3.05 18.1 3.35 L18.75 3.7 M3.7 5.35 L4.45 5.0 Q4.8 4.7 4.8 4.2 4.8 3.7 4.45 3.35 4.15 3.05 3.65 3.05 L3.05 3.2 2.8 3.35 Q2.5 3.7 2.5 4.2 2.5 4.7 2.8 5.0 3.15 5.35 3.65 5.35 L3.7 5.35 M-1.8 11.1 L-1.55 11.55 -0.7 11.9 Q-0.2 11.9 0.1 11.55 L0.45 10.75 0.15 9.95 0.1 9.9 Q-0.2 9.6 -0.7 9.6 -1.2 9.6 -1.55 9.9 L-1.85 10.75 -1.8 11.1 M8.25 9.75 L8.0 9.7 Q7.5 9.7 7.15 10.0 6.85 10.35 6.85 10.85 6.85 11.35 7.15 11.65 L7.25 11.75 8.0 12.0 Q8.5 12.0 8.8 11.65 9.15 11.35 9.15 10.85 9.15 10.35 8.8 10.0 L8.25 9.75 M3.0 17.25 L3.2 17.6 4.05 17.95 Q4.55 17.95 4.85 17.6 L5.2 16.8 Q5.2 16.3 4.85 15.95 L4.8 15.9 4.05 15.65 Q3.55 15.65 3.2 15.95 2.9 16.3 2.9 16.8 L3.0 17.25 M12.8 14.8 L12.5 14.75 Q12.0 14.75 11.65 15.05 11.35 15.4 11.35 15.9 11.35 16.35 11.6 16.65 L11.65 16.7 Q12.0 17.05 12.5 17.05 13.0 17.05 13.3 16.7 L13.65 15.9 Q13.65 15.4 13.3 15.05 13.1 14.85 12.8 14.8 M-19.75 -1.3 L-20.5 -1.55 -21.35 -1.25 -21.65 -0.4 -21.35 0.4 -20.55 0.75 -20.5 0.75 Q-20.0 0.75 -19.7 0.4 -19.35 0.1 -19.35 -0.4 -19.35 -0.9 -19.7 -1.25 L-19.75 -1.3 M-18.8 -7.3 L-19.0 -7.5 -19.8 -7.8 -20.65 -7.5 -20.95 -6.65 -20.65 -5.85 -20.2 -5.55 -19.8 -5.5 Q-19.3 -5.5 -19.0 -5.85 -18.65 -6.15 -18.65 -6.65 L-18.8 -7.3 M-18.75 -25.6 L-9.0 -11.95 -9.7 -11.35 -18.75 -25.6 M-3.5 2.5 Q-3.85 2.8 -3.85 3.25 L-3.5 4.05 Q-3.2 4.35 -2.75 4.35 -2.3 4.35 -1.95 4.05 -1.65 3.7 -1.65 3.25 -1.65 2.8 -1.95 2.5 -2.3 2.15 -2.75 2.15 -3.2 2.15 -3.5 2.5 M-7.85 0.55 L-8.05 0.3 Q-8.35 0.0 -8.85 0.0 -9.35 0.0 -9.7 0.3 L-10.0 1.15 -9.7 1.95 -9.45 2.15 -8.85 2.3 Q-8.35 2.3 -8.05 1.95 -7.7 1.65 -7.7 1.15 -7.7 0.8 -7.85 0.55 M-6.95 9.65 L-6.85 9.55 Q-6.6 9.25 -6.6 8.85 -6.6 8.35 -6.95 8.0 -7.25 7.7 -7.75 7.7 L-8.1 7.75 Q-8.4 7.8 -8.6 8.0 -8.9 8.35 -8.9 8.85 L-8.6 9.65 Q-8.25 10.0 -7.75 10.0 -7.25 10.0 -6.95 9.65 M-14.0 11.4 L-14.4 11.6 -14.7 12.45 -14.4 13.25 -13.55 13.6 Q-13.05 13.6 -12.75 13.3 L-12.75 13.25 Q-12.4 12.95 -12.4 12.45 -12.4 11.95 -12.75 11.6 -13.05 11.3 -13.55 11.3 L-14.0 11.4 M-6.45 15.15 L-6.6 15.75 -6.3 16.55 -5.45 16.9 Q-4.95 16.9 -4.65 16.55 -4.3 16.25 -4.3 15.75 -4.3 15.25 -4.65 14.9 -4.95 14.6 -5.45 14.6 -5.95 14.6 -6.3 14.9 L-6.45 15.15 M-25.7 0.25 L-26.35 0.05 Q-26.85 0.05 -27.2 0.35 -27.5 0.7 -27.5 1.2 L-27.2 2.0 -26.35 2.35 -26.2 2.35 -25.55 2.0 Q-25.2 1.7 -25.2 1.2 -25.2 0.7 -25.55 0.35 L-25.7 0.25" fill="#b7b7b7" fill-rule="evenodd" stroke="none"/>
    <path d="M5.1 -21.55 Q3.65 -19.15 3.65 -15.7 L3.7 -15.05 2.65 -15.4 Q2.45 -18.15 3.6 -21.95 L4.5 -21.75 5.1 -21.55 M-5.7 -18.25 L-5.85 -19.0 Q-5.3 -21.15 -2.25 -21.95 L-1.5 -22.1 Q-0.9 -18.9 -0.95 -15.8 L-2.55 -15.55 -4.05 -14.95 -5.05 -16.5 -5.7 -18.25 M14.5 0.85 L14.65 -0.2 14.65 -0.7 15.2 -0.55 15.75 -1.05 15.3 0.6 14.5 0.85 15.3 0.6 Q14.75 2.6 14.75 4.2 14.75 6.05 16.0 7.35 17.2 8.65 17.2 9.05 L16.85 9.75 16.8 9.7 Q16.8 9.2 16.45 8.85 16.15 8.55 15.65 8.55 L15.55 8.55 14.8 8.85 Q14.5 9.2 14.5 9.7 14.5 10.2 14.8 10.5 L15.05 10.7 15.65 10.85 Q16.15 10.85 16.45 10.5 L16.5 10.5 16.35 11.1 Q16.35 12.15 16.85 12.6 L18.1 13.9 19.4 16.75 18.6 17.35 Q17.85 14.2 15.7 12.8 13.6 11.5 13.6 8.0 13.6 5.85 14.5 0.85 M19.7 11.35 L19.75 11.35 Q20.25 11.35 20.55 11.65 20.9 12.0 20.9 12.5 20.9 13.0 20.55 13.3 20.25 13.65 19.75 13.65 19.35 13.65 19.05 13.45 L19.1 13.45 Q19.55 13.45 19.85 13.1 20.2 12.8 20.2 12.3 20.2 11.8 19.85 11.5 L19.7 11.35 M18.4 1.55 L18.95 1.4 Q19.45 1.4 19.75 1.7 20.1 2.05 20.1 2.55 20.1 3.05 19.75 3.35 19.45 3.7 18.95 3.7 L18.75 3.7 19.1 3.45 19.45 2.65 19.1 1.85 Q18.8 1.55 18.4 1.55 M3.7 5.35 L4.25 5.05 4.55 4.25 4.25 3.45 Q3.95 3.15 3.45 3.15 L3.05 3.2 3.65 3.05 Q4.15 3.05 4.45 3.35 4.8 3.7 4.8 4.2 4.8 4.7 4.45 5.0 L3.7 5.35 M0.15 9.95 L0.45 10.75 0.1 11.55 Q-0.2 11.9 -0.7 11.9 L-1.55 11.55 -1.8 11.1 -1.6 11.4 Q-1.25 11.75 -0.75 11.75 -0.3 11.75 0.0 11.4 0.35 11.1 0.35 10.6 L0.15 9.95 M8.25 9.75 L8.8 10.0 Q9.15 10.35 9.15 10.85 9.15 11.35 8.8 11.65 8.5 12.0 8.0 12.0 L7.25 11.75 7.7 11.85 8.45 11.5 Q8.8 11.2 8.8 10.7 8.8 10.2 8.45 9.9 L8.25 9.75 M4.8 15.9 L4.85 15.95 Q5.2 16.3 5.2 16.8 L4.85 17.6 Q4.55 17.95 4.05 17.95 L3.2 17.6 3.0 17.25 3.0 17.3 3.85 17.6 Q4.3 17.6 4.6 17.3 4.95 16.95 4.95 16.5 L4.8 15.9 M11.6 16.65 L12.05 16.75 Q12.55 16.75 12.85 16.4 L13.15 15.65 12.85 14.8 12.8 14.8 Q13.1 14.85 13.3 15.05 13.65 15.4 13.65 15.9 L13.3 16.7 Q13.0 17.05 12.5 17.05 12.0 17.05 11.65 16.7 L11.6 16.65 M-18.85 14.45 L-21.25 12.8 -22.0 12.15 -22.2 10.6 Q-22.2 9.55 -19.5 9.7 -16.85 9.8 -16.85 7.5 L-17.15 5.1 Q-17.15 3.7 -13.4 1.8 L-11.35 0.7 Q-10.7 0.4 -10.7 -1.2 -10.7 -2.4 -10.25 -3.45 L-9.25 -2.8 -9.55 -2.65 Q-10.1 -2.15 -10.3 -0.85 -10.5 0.5 -11.1 1.1 -13.7 3.55 -13.7 4.6 L-13.25 6.5 Q-13.25 7.75 -16.4 9.75 -19.6 11.7 -19.6 12.55 -19.6 13.45 -18.85 14.45 M-19.75 -1.3 L-20.0 -1.3 -20.8 -1.05 -21.1 -0.2 -20.8 0.55 -20.55 0.75 -21.35 0.4 -21.65 -0.4 -21.35 -1.25 -20.5 -1.55 -19.75 -1.3 M-20.2 -5.55 L-20.65 -5.85 -20.95 -6.65 -20.65 -7.5 -19.8 -7.8 -19.0 -7.5 -18.8 -7.3 -19.3 -7.4 -20.15 -7.1 -20.45 -6.25 -20.2 -5.55 M-14.5 -0.8 L-14.9 -1.1 -15.2 -1.9 -14.9 -2.75 -14.05 -3.05 -13.25 -2.75 -13.15 -2.65 -13.75 -2.8 Q-14.25 -2.8 -14.55 -2.5 L-14.85 -1.65 Q-14.85 -1.2 -14.55 -0.9 L-14.5 -0.8 M-9.45 2.15 L-9.7 1.95 -10.0 1.15 -9.7 0.3 Q-9.35 0.0 -8.85 0.0 -8.35 0.0 -8.05 0.3 L-7.85 0.55 -7.9 0.5 Q-8.2 0.2 -8.7 0.2 -9.2 0.2 -9.5 0.5 L-9.8 1.3 -9.5 2.1 -9.45 2.15 M-6.95 9.65 Q-7.25 10.0 -7.75 10.0 -8.25 10.0 -8.6 9.65 L-8.9 8.85 Q-8.9 8.35 -8.6 8.0 -8.4 7.8 -8.1 7.75 L-8.45 7.95 -8.75 8.8 -8.45 9.55 -7.6 9.9 -6.95 9.65 M-15.3 6.4 L-14.7 6.05 Q-14.35 5.75 -14.35 5.25 -14.35 4.75 -14.7 4.4 L-15.1 4.15 -15.5 4.1 Q-16.0 4.1 -16.35 4.4 L-16.65 5.25 -16.35 6.05 -15.5 6.4 -15.3 6.4 M-20.4 8.6 L-20.85 8.65 -21.7 8.3 -22.0 7.5 -21.7 6.65 Q-21.35 6.35 -20.85 6.35 L-20.6 6.4 Q-20.95 6.4 -21.15 6.65 L-21.45 7.45 -21.15 8.25 Q-20.85 8.55 -20.4 8.6 M-12.75 13.3 Q-13.05 13.6 -13.55 13.6 L-14.4 13.25 -14.7 12.45 -14.4 11.6 -14.0 11.4 -14.05 11.45 -14.35 12.3 -14.05 13.05 Q-13.75 13.4 -13.25 13.4 L-12.75 13.3 M-4.3 15.75 Q-4.3 16.25 -4.65 16.55 -4.95 16.9 -5.45 16.9 L-6.3 16.55 -6.6 15.75 -6.45 15.15 -6.5 15.5 -6.2 16.25 Q-5.9 16.6 -5.4 16.6 -4.9 16.6 -4.6 16.25 L-4.3 15.75 M-26.2 2.35 L-26.35 2.35 -27.2 2.0 -27.5 1.2 Q-27.5 0.7 -27.2 0.35 -26.85 0.05 -26.35 0.05 L-25.7 0.25 Q-26.15 0.25 -26.5 0.55 L-26.8 1.35 -26.5 2.15 -26.2 2.35" fill="#848484" fill-rule="evenodd" stroke="none"/>
    <path d="M3.7 -15.05 Q5.85 -14.3 7.25 -12.9 L8.45 -11.3 1.75 -11.5 Q-1.95 -12.5 -3.8 -14.65 L-4.05 -14.95 -2.55 -15.55 -0.95 -15.8 2.65 -15.4 3.7 -15.05 M15.55 8.55 L15.65 8.55 Q16.15 8.55 16.45 8.85 16.8 9.2 16.8 9.7 L16.8 9.75 16.5 10.5 16.45 10.5 Q16.15 10.85 15.65 10.85 L15.05 10.7 15.1 10.7 Q15.6 10.7 15.9 10.4 L16.25 9.6 15.9 8.8 15.55 8.55 M-15.1 4.15 L-15.15 4.15 Q-15.65 4.15 -15.95 4.45 L-16.25 5.3 -15.95 6.05 -15.3 6.4 -15.5 6.4 -16.35 6.05 -16.65 5.25 -16.35 4.4 Q-16.0 4.1 -15.5 4.1 L-15.1 4.15" fill="#666666" fill-rule="evenodd" stroke="none"/>
    <path d="M11.05 -13.1 L12.1 -14.2 Q12.95 -16.1 10.45 -18.55 8.4 -20.6 5.1 -21.55 L4.5 -21.75 3.6 -21.95 -1.5 -22.1 -2.25 -21.95 Q-5.3 -21.15 -5.85 -19.0 L-5.7 -18.25 -5.35 -16.45 -9.4 -15.9 -18.75 -25.6 -14.35 -14.35 -15.8 -13.7 -17.45 -12.85 Q-23.4 -9.6 -27.2 -4.0 -29.75 -2.15 -30.85 0.5 -32.65 4.35 -29.55 9.05 -28.5 10.7 -26.85 12.45 L-25.95 13.35 -25.6 13.7 Q-19.05 20.0 -8.25 22.9 2.85 25.9 11.85 23.5 20.0 21.35 22.15 16.05 23.55 13.0 21.95 9.45 22.15 3.75 19.2 -1.7 L18.2 -3.45 26.5 -11.45 15.5 -7.15 Q13.0 -10.2 10.4 -12.15 L11.05 -13.1" fill="none" stroke="#000000" stroke-linecap="round" stroke-linejoin="round" stroke-width="0.05"/>
    <path d="M3.7 -15.05 Q5.85 -14.3 7.25 -12.9 L8.45 -11.3 8.5 -11.3 Q9.3 -11.65 10.15 -12.3 L11.05 -13.1 M2.65 -15.4 L3.7 -15.05 M10.4 -12.15 L8.55 -10.4 7.95 -9.9 7.3 -9.5 6.25 -9.15 2.95 -8.9 1.15 -9.25 1.05 -9.3 -1.35 -10.2 Q-2.6 -10.85 -3.5 -11.75 -4.9 -13.1 -4.95 -14.2 L-5.35 -16.45 M12.65 -6.0 L15.5 -7.15 M11.55 -5.1 L11.55 -5.6 12.65 -6.0 M10.15 1.75 L13.55 1.15 14.5 0.85 15.3 0.6 Q17.75 -0.3 19.2 -1.7 M14.65 -0.7 Q13.2 -1.25 12.45 -2.15 L12.0 -2.85 Q11.6 -3.6 11.55 -4.55 L11.55 -5.1 M-9.25 -2.8 Q-5.65 -0.55 -0.8 0.75 5.1 2.3 10.15 1.75 M15.25 19.05 Q17.15 18.3 18.6 17.35 L19.4 16.75 20.9 15.3 Q18.85 20.4 11.05 22.4 2.45 24.7 -8.1 21.85 -18.7 19.0 -25.0 12.75 L-25.7 12.05 -26.65 11.0 -28.1 9.2 Q-31.5 4.35 -29.7 0.45 -28.6 -1.95 -27.2 -4.0 M15.75 -1.05 L15.2 -0.55 14.65 -0.7 M8.45 -11.3 L1.75 -11.5 Q-1.95 -12.5 -3.8 -14.65 L-4.05 -14.95 -5.05 -16.5 -5.7 -18.25 M18.2 -3.45 L15.75 -1.05 M19.05 13.45 L18.9 13.3 Q18.6 13.0 18.6 12.5 18.6 12.0 18.9 11.65 19.25 11.35 19.7 11.35 L19.85 11.5 Q20.2 11.8 20.2 12.3 20.2 12.8 19.85 13.1 19.55 13.45 19.1 13.45 L19.05 13.45 M21.95 9.45 L21.3 14.1 20.9 15.3 M18.4 1.55 Q18.8 1.55 19.1 1.85 L19.45 2.65 19.1 3.45 18.75 3.7 18.1 3.35 Q17.8 3.05 17.8 2.55 17.8 2.05 18.1 1.7 L18.4 1.55 M11.15 3.0 Q11.6 3.0 11.9 3.3 12.25 3.6 12.25 4.1 12.25 4.6 11.9 4.9 L11.4 5.2 10.7 4.85 Q10.4 4.55 10.4 4.05 10.4 3.55 10.7 3.2 10.85 3.05 11.05 3.0 L11.15 3.0 M15.05 10.7 L14.8 10.5 Q14.5 10.2 14.5 9.7 14.5 9.2 14.8 8.85 L15.55 8.55 15.9 8.8 16.25 9.6 15.9 10.4 Q15.6 10.7 15.1 10.7 L15.05 10.7 M3.05 3.2 L3.45 3.15 Q3.95 3.15 4.25 3.45 L4.55 4.25 4.25 5.05 3.7 5.35 3.65 5.35 Q3.15 5.35 2.8 5.0 2.5 4.7 2.5 4.2 2.5 3.7 2.8 3.35 L3.05 3.2 M0.15 9.95 L0.35 10.6 Q0.35 11.1 0.0 11.4 -0.3 11.75 -0.75 11.75 -1.25 11.75 -1.6 11.4 L-1.8 11.1 -1.85 10.75 -1.55 9.9 Q-1.2 9.6 -0.7 9.6 -0.2 9.6 0.1 9.9 L0.15 9.95 M7.25 11.75 L7.15 11.65 Q6.85 11.35 6.85 10.85 6.85 10.35 7.15 10.0 7.5 9.7 8.0 9.7 L8.25 9.75 8.45 9.9 Q8.8 10.2 8.8 10.7 8.8 11.2 8.45 11.5 L7.7 11.85 7.25 11.75 M4.8 15.9 L4.95 16.5 Q4.95 16.95 4.6 17.3 4.3 17.6 3.85 17.6 L3.0 17.3 3.0 17.25 2.9 16.8 Q2.9 16.3 3.2 15.95 3.55 15.65 4.05 15.65 L4.8 15.9 M11.6 16.65 L12.05 16.75 Q12.55 16.75 12.85 16.4 L13.15 15.65 12.85 14.8 12.8 14.8 12.5 14.75 Q12.0 14.75 11.65 15.05 11.35 15.4 11.35 15.9 11.35 16.35 11.6 16.65 M15.25 19.05 L12.45 19.95 Q3.65 22.3 -7.1 19.4 -13.8 17.6 -18.85 14.45 L-21.25 12.8 -22.0 12.15 -23.65 10.75 -24.3 10.1 -25.15 9.3 -27.2 6.85 Q-29.75 3.4 -29.7 0.45 M-20.55 0.75 L-20.8 0.55 -21.1 -0.2 -20.8 -1.05 -20.0 -1.3 -19.75 -1.3 -19.7 -1.25 Q-19.35 -0.9 -19.35 -0.4 -19.35 0.1 -19.7 0.4 -20.0 0.75 -20.5 0.75 L-20.55 0.75 M-20.2 -5.55 L-20.45 -6.25 -20.15 -7.1 -19.3 -7.4 -18.8 -7.3 -18.65 -6.65 Q-18.65 -6.15 -19.0 -5.85 -19.3 -5.5 -19.8 -5.5 L-20.2 -5.55 M-9.0 -11.95 Q-8.25 -12.85 -7.85 -14.3 L-9.4 -15.9 M-0.95 -15.8 L-2.55 -15.55 -4.05 -14.95 M-10.25 -3.45 L-9.25 -2.8 M-0.95 -15.8 L2.65 -15.4 M-14.35 -14.35 L-12.9 -10.65 -11.75 -10.65 Q-10.55 -10.75 -9.7 -11.35 L-9.0 -11.95 M-10.25 -3.45 L-13.0 -5.65 -13.45 -6.1 Q-17.25 -9.8 -17.45 -12.85 M-13.15 -2.65 L-12.9 -1.9 Q-12.9 -1.4 -13.25 -1.1 -13.55 -0.75 -14.05 -0.75 L-14.5 -0.8 -14.55 -0.9 Q-14.85 -1.2 -14.85 -1.65 L-14.55 -2.5 Q-14.25 -2.8 -13.75 -2.8 L-13.15 -2.65 M-3.5 2.5 Q-3.85 2.8 -3.85 3.25 L-3.5 4.05 Q-3.2 4.35 -2.75 4.35 -2.3 4.35 -1.95 4.05 -1.65 3.7 -1.65 3.25 -1.65 2.8 -1.95 2.5 -2.3 2.15 -2.75 2.15 -3.2 2.15 -3.5 2.5 M-7.85 0.55 Q-7.7 0.8 -7.7 1.15 -7.7 1.65 -8.05 1.95 -8.35 2.3 -8.85 2.3 L-9.45 2.15 -9.5 2.1 -9.8 1.3 -9.5 0.5 Q-9.2 0.2 -8.7 0.2 -8.2 0.2 -7.9 0.5 L-7.85 0.55 M-8.1 7.75 L-7.75 7.7 Q-7.25 7.7 -6.95 8.0 -6.6 8.35 -6.6 8.85 -6.6 9.25 -6.85 9.55 L-6.95 9.65 -7.6 9.9 -8.45 9.55 -8.75 8.8 -8.45 7.95 -8.1 7.75 M-15.3 6.4 L-14.7 6.05 Q-14.35 5.75 -14.35 5.25 -14.35 4.75 -14.7 4.4 L-15.1 4.15 -15.15 4.15 Q-15.65 4.15 -15.95 4.45 L-16.25 5.3 -15.95 6.05 -15.3 6.4 M-20.6 6.4 Q-20.25 6.45 -20.05 6.65 -19.7 7.0 -19.7 7.5 -19.7 8.0 -20.05 8.3 L-20.4 8.6 Q-20.85 8.55 -21.15 8.25 L-21.45 7.45 -21.15 6.65 Q-20.95 6.4 -20.6 6.4 M-14.0 11.4 L-13.55 11.3 Q-13.05 11.3 -12.75 11.6 -12.4 11.95 -12.4 12.45 -12.4 12.95 -12.75 13.25 L-12.75 13.3 -13.25 13.4 Q-13.75 13.4 -14.05 13.05 L-14.35 12.3 -14.05 11.45 -14.0 11.4 M-4.3 15.75 L-4.6 16.25 Q-4.9 16.6 -5.4 16.6 -5.9 16.6 -6.2 16.25 L-6.5 15.5 -6.45 15.15 -6.3 14.9 Q-5.95 14.6 -5.45 14.6 -4.95 14.6 -4.65 14.9 -4.3 15.25 -4.3 15.75 M-25.7 0.25 L-25.55 0.35 Q-25.2 0.7 -25.2 1.2 -25.2 1.7 -25.55 2.0 L-26.2 2.35 -26.5 2.15 -26.8 1.35 -26.5 0.55 Q-26.15 0.25 -25.7 0.25 Z" fill="none" stroke="#000000" stroke-linecap="round" stroke-linejoin="round" stroke-opacity="0.33333334" stroke-width="0.05"/>
    <path d="M30.7 -29.55 L31.95 -35.15 31.5 -29.7 38.7 -26.85 37.2 -19.8 47.75 -23.2 29.7 -15.8 26.85 -11.0 25.8 -1.45 30.55 -2.5 31.7 -11.1 46.7 -12.4 32.55 -10.5 31.65 -2.7 37.55 -3.6 37.4 7.55 36.8 -2.65 24.75 -0.65 25.5 -11.2 20.3 -14.6 22.0 -20.6 21.75 -14.75 25.95 -11.9 31.6 -21.7 16.8 -25.85 22.4 -32.5 19.8 -38.95 23.3 -32.35 18.15 -26.4 32.9 -22.3 30.0 -16.8 36.3 -19.4 37.7 -26.3 30.7 -29.55 M13.15 -22.25 L7.4 -20.3 -3.35 -26.3 -18.55 -25.0 -22.1 -22.35 -22.75 -18.75 -22.75 -22.5 -19.25 -25.85 -21.9 -29.05 -26.35 -30.6 -29.0 -34.45 -25.2 -39.9 -28.1 -34.4 -25.6 -31.5 -15.4 -37.35 -24.75 -30.75 -21.45 -29.4 -18.2 -25.95 -3.1 -27.1 7.5 -21.05 13.15 -22.25 M-16.85 -42.65 L-8.7 -38.05 -8.85 -30.55 -9.4 -37.8 -16.85 -42.65" fill="#ffffff" fill-rule="evenodd" stroke="none"/>
    <path d="M30.7 -29.55 L31.95 -35.15 31.5 -29.7 38.7 -26.85 37.2 -19.8 47.75 -23.2 29.7 -15.8 26.85 -11.0 25.8 -1.45 30.55 -2.5 31.7 -11.1 46.7 -12.4 32.55 -10.5 31.65 -2.7 37.55 -3.6 37.4 7.55 36.8 -2.65 24.75 -0.65 25.5 -11.2 20.3 -14.6 22.0 -20.6 21.75 -14.75 25.95 -11.9 31.6 -21.7 16.8 -25.85 22.4 -32.5 19.8 -38.95 23.3 -32.35 18.15 -26.4 32.9 -22.3 30.0 -16.8 36.3 -19.4 37.7 -26.3 30.7 -29.55 M13.15 -22.25 L7.4 -20.3 -3.35 -26.3 -18.55 -25.0 -22.1 -22.35 -22.75 -18.75 -22.75 -22.5 -19.25 -25.85 -21.9 -29.05 -26.35 -30.6 -29.0 -34.45 -25.2 -39.9 -28.1 -34.4 -25.6 -31.5 -15.4 -37.35 -24.75 -30.75 -21.45 -29.4 -18.2 -25.95 -3.1 -27.1 7.5 -21.05 13.15 -22.25 Z" fill="none" stroke="#cccccc" stroke-linecap="round" stroke-linejoin="round" stroke-width="0.05"/>
  </g>
</svg>
