<?xml version="1.0" encoding="UTF-8" standalone="no"?>
<svg xmlns:ffdec="https://www.free-decompiler.com/flash" xmlns:xlink="http://www.w3.org/1999/xlink" ffdec:objectType="shape" height="24.8px" width="30.65px" xmlns="http://www.w3.org/2000/svg">
  <g transform="matrix(1.0, 0.0, 0.0, 1.0, 15.35, 12.35)">
    <path d="M-0.2 3.1 Q0.45 2.5 0.45 1.55 0.45 0.65 -0.2 0.0 -0.85 -0.6 -1.8 -0.6 -2.7 -0.6 -3.35 0.0 -4.0 0.65 -4.0 1.55 -4.0 2.5 -3.35 3.1 -2.7 3.75 -1.8 3.75 -0.85 3.75 -0.2 3.1 M-10.85 -11.65 Q-8.8 -11.25 -6.4 -9.55 -3.05 -7.25 2.25 -1.3 L9.8 6.75 Q11.8 8.5 13.15 8.6 L11.3 11.85 Q-1.95 12.5 -11.2 8.45 -13.1 4.15 -13.1 -1.25 -13.1 -7.1 -10.85 -11.65" fill="#ffffff" fill-rule="evenodd" stroke="none"/>
    <path d="M-0.2 3.1 Q-0.85 3.75 -1.8 3.75 -2.7 3.75 -3.35 3.1 -4.0 2.5 -4.0 1.55 -4.0 0.65 -3.35 0.0 -2.7 -0.6 -1.8 -0.6 -0.85 -0.6 -0.2 0.0 0.45 0.65 0.45 1.55 0.45 2.5 -0.2 3.1" fill="#000000" fill-rule="evenodd" stroke="none"/>
    <path d="M-10.85 -11.65 Q-13.05 -12.15 -14.85 -11.25 M-10.85 -11.65 Q-13.1 -7.1 -13.1 -1.25 -13.1 4.15 -11.2 8.45 -1.95 12.5 11.3 11.85 L13.15 8.6 Q11.8 8.5 9.8 6.75 L2.25 -1.3 Q-3.05 -7.25 -6.4 -9.55 -8.8 -11.25 -10.85 -11.65 M-11.2 8.45 L-12.5 7.85 M11.3 11.85 L12.45 11.75 M13.15 8.6 Q14.15 8.65 14.8 7.7" fill="none" stroke="#000000" stroke-linecap="round" stroke-linejoin="round" stroke-width="1.0"/>
  </g>
</svg>
