<?xml version="1.0" encoding="UTF-8" standalone="no"?>
<svg xmlns:ffdec="https://www.free-decompiler.com/flash" xmlns:xlink="http://www.w3.org/1999/xlink" ffdec:objectType="shape" height="413.5px" width="4.5px" xmlns="http://www.w3.org/2000/svg">
  <g transform="matrix(1.0, 0.0, 0.0, 1.0, -10.75, 467.3)">
    <path d="M10.75 -272.55 L10.75 -272.6 Q10.8 -348.55 11.3 -405.1 11.95 -474.55 13.0 -466.45 14.05 -469.7 14.75 -395.4 15.25 -335.65 15.25 -272.6 L15.25 -272.55 13.0 -272.55 10.75 -272.55" fill="url(#gradient0)" fill-rule="evenodd" stroke="none"/>
    <path d="M13.0 -53.8 L10.75 -53.8 10.75 -272.55 13.0 -272.55 13.0 -53.8" fill="url(#gradient1)" fill-rule="evenodd" stroke="none"/>
    <path d="M15.25 -272.55 L15.25 -53.8 13.0 -53.8 13.0 -272.55 15.25 -272.55" fill="url(#gradient2)" fill-rule="evenodd" stroke="none"/>
  </g>
  <defs>
    <radialGradient cx="0" cy="0" gradientTransform="matrix(0.0027, 0.0, 0.0, 0.2367, 13.0, -271.0)" gradientUnits="userSpaceOnUse" id="gradient0" r="819.2" spreadMethod="pad">
      <stop offset="0.34901960784313724" stop-color="#ffffff"/>
      <stop offset="0.7098039215686275" stop-color="#00ffff" stop-opacity="0.6627451"/>
      <stop offset="0.9725490196078431" stop-color="#0affff" stop-opacity="0.0"/>
    </radialGradient>
    <linearGradient gradientTransform="matrix(-0.0014, 0.0, 0.0, 0.1335, 11.9, -163.25)" gradientUnits="userSpaceOnUse" id="gradient1" spreadMethod="pad" x1="-819.2" x2="819.2">
      <stop offset="0.34901960784313724" stop-color="#ffffff"/>
      <stop offset="0.7098039215686275" stop-color="#00ffff" stop-opacity="0.6627451"/>
      <stop offset="0.9725490196078431" stop-color="#0affff" stop-opacity="0.0"/>
    </linearGradient>
    <linearGradient gradientTransform="matrix(0.0014, 0.0, 0.0, 0.1335, 14.1, -163.25)" gradientUnits="userSpaceOnUse" id="gradient2" spreadMethod="pad" x1="-819.2" x2="819.2">
      <stop offset="0.34901960784313724" stop-color="#ffffff"/>
      <stop offset="0.7098039215686275" stop-color="#00ffff" stop-opacity="0.6627451"/>
      <stop offset="0.9725490196078431" stop-color="#0affff" stop-opacity="0.0"/>
    </linearGradient>
  </defs>
</svg>
