<?xml version="1.0" encoding="UTF-8" standalone="no"?>
<svg xmlns:ffdec="https://www.free-decompiler.com/flash" xmlns:xlink="http://www.w3.org/1999/xlink" ffdec:objectType="shape" height="12.5px" width="11.75px" xmlns="http://www.w3.org/2000/svg">
  <g transform="matrix(1.0, 0.0, 0.0, 1.0, 0.2, -0.9)">
    <path d="M10.75 5.85 L10.0 6.85 Q9.65 7.3 10.7 7.9 11.7 8.5 11.55 10.15 11.35 11.6 10.9 11.8 L10.45 12.5 Q9.65 13.05 8.85 13.3 4.45 13.5 0.7 13.2 L0.15 13.15 0.05 13.2 -0.2 6.45 -0.2 2.7 -0.15 1.45 -0.1 1.0 7.9 0.9 Q9.2 1.0 10.2 1.85 L10.3 1.9 10.85 2.85 Q11.2 5.35 10.75 5.85 M10.4 4.9 L10.4 3.8 Q10.15 2.45 9.2 2.0 L8.1 1.75 0.65 1.9 0.65 12.65 8.3 12.8 Q10.75 12.65 10.8 9.55 10.6 8.25 10.1 8.0 L9.65 7.75 8.1 7.3 9.55 6.55 10.0 6.05 10.35 5.25 10.4 4.9 M10.9 11.45 L10.9 11.4 10.9 11.45 M10.95 11.15 L10.95 11.35 10.95 11.4 10.95 11.3 11.0 11.25 10.95 11.15 M3.2 8.55 L3.05 8.55 2.6 8.1 7.1 8.05 7.65 8.1 7.85 8.1 Q8.25 8.05 8.35 9.25 8.35 10.4 7.85 10.6 L7.4 10.75 2.6 10.8 3.05 10.35 7.4 10.3 7.65 10.25 7.65 10.2 7.9 9.85 7.95 9.3 Q7.85 8.5 7.55 8.55 L3.2 8.55 M7.35 6.05 L7.6 5.7 7.65 5.15 Q7.55 4.35 7.25 4.4 L2.9 4.4 2.75 4.4 2.3 3.95 6.8 3.9 7.35 3.95 7.55 3.95 Q7.95 3.9 8.05 5.1 8.05 6.25 7.55 6.45 L7.1 6.6 2.3 6.65 2.75 6.2 7.1 6.15 7.35 6.1 7.35 6.05" fill="#000000" fill-rule="evenodd" stroke="none"/>
    <path d="M10.3 3.85 L10.3 4.95 10.25 5.25 9.9 6.05 9.45 6.5 8.05 7.25 9.55 7.7 10.0 7.9 Q10.5 8.2 10.7 9.45 10.6 12.45 8.25 12.55 L0.85 12.4 0.85 2.0 8.05 1.85 9.15 2.1 Q10.05 2.55 10.3 3.85 M7.0 3.75 L2.5 3.8 2.95 4.25 2.95 6.05 2.5 6.5 7.3 6.45 7.75 6.3 Q8.25 6.1 8.25 4.95 8.15 3.75 7.75 3.8 L7.55 3.8 7.2 3.75 7.0 3.75 M2.5 10.6 L6.15 10.65 7.05 10.7 Q8.35 10.7 8.45 10.15 8.8 8.55 7.9 7.95 L7.45 7.85 2.5 7.85 2.5 10.6" fill="#ffcc00" fill-rule="evenodd" stroke="none"/>
    <path d="M10.65 5.85 L9.9 6.8 Q9.55 7.2 10.6 7.8 11.55 8.4 11.4 10.0 11.2 11.4 10.8 11.6 L10.3 12.3 8.75 13.05 Q4.5 13.25 0.85 12.95 L0.35 12.9 0.25 12.95 0.0 6.45 0.0 2.8 0.05 1.55 0.1 1.1 7.85 1.0 Q9.15 1.15 10.1 1.95 L10.2 2.0 10.7 2.9 Q11.05 5.35 10.65 5.85 M10.3 3.85 Q10.05 2.55 9.15 2.1 L8.05 1.85 0.85 2.0 0.85 12.4 8.25 12.55 Q10.6 12.45 10.7 9.45 10.5 8.2 10.0 7.9 L9.55 7.7 8.05 7.25 9.45 6.5 9.9 6.05 10.25 5.25 10.3 4.95 10.3 3.85 M10.8 11.15 L10.8 11.2 10.85 11.15 10.85 11.1 10.85 11.0 10.8 11.15 M10.75 11.25 L10.8 11.2 10.75 11.25 M7.0 3.75 L7.55 3.8 7.75 3.8 Q8.15 3.75 8.25 4.95 8.25 6.1 7.75 6.3 L7.3 6.45 2.5 6.5 2.95 6.05 7.3 6.0 7.55 5.95 7.55 5.9 7.8 5.55 7.85 5.0 Q7.75 4.2 7.45 4.25 L3.1 4.25 2.95 4.25 2.5 3.8 7.0 3.75 M2.5 10.6 L2.5 7.85 7.45 7.85 7.9 7.95 Q8.8 8.55 8.45 10.15 8.35 10.7 7.05 10.7 L6.15 10.65 2.5 10.6 M2.95 8.3 L2.95 10.15 7.65 10.15 8.05 9.85 8.1 9.4 Q8.1 8.4 7.7 8.35 L2.95 8.3" fill="#7f6600" fill-rule="evenodd" stroke="none"/>
    <path d="M10.8 11.15 L10.85 11.0 10.85 11.1 10.85 11.15 10.8 11.2 10.8 11.15" fill="#b8b8b8" fill-rule="evenodd" stroke="none"/>
  </g>
</svg>
