<?xml version="1.0" encoding="UTF-8" standalone="no"?>
<svg xmlns:ffdec="https://www.free-decompiler.com/flash" xmlns:xlink="http://www.w3.org/1999/xlink" ffdec:objectType="shape" height="58.0px" width="44.8px" xmlns="http://www.w3.org/2000/svg">
  <g transform="matrix(1.0, 0.0, 0.0, 1.0, 22.4, 29.0)">
    <path d="M17.4 17.25 L17.4 24.0 -17.4 24.0 -17.4 17.25 17.4 17.25" fill="#ffffff" fill-rule="evenodd" stroke="none"/>
    <path d="M21.7 -28.3 Q22.4 -27.5 22.4 -26.5 L22.4 26.5 Q22.4 27.55 21.7 28.25 20.85 29.0 19.9 29.0 L-19.9 29.0 Q-20.9 29.0 -21.65 28.25 -22.4 27.5 -22.4 26.5 L-22.4 -26.5 Q-22.4 -27.45 -21.65 -28.3 -20.95 -29.0 -19.9 -29.0 L19.9 -29.0 Q20.9 -29.0 21.7 -28.3 M-17.4 17.25 L-17.4 24.0 17.4 24.0 17.4 17.25 17.4 -24.0 -17.4 -24.0 -17.4 17.25" fill="#000000" fill-rule="evenodd" stroke="none"/>
    <path d="M17.4 17.25 L-17.4 17.25 -17.4 -24.0 17.4 -24.0 17.4 17.25" fill="#cccccc" fill-rule="evenodd" stroke="none"/>
  </g>
</svg>
