<?xml version="1.0" encoding="UTF-8" standalone="no"?>
<svg xmlns:ffdec="https://www.free-decompiler.com/flash" xmlns:xlink="http://www.w3.org/1999/xlink" ffdec:objectType="shape" height="37.55px" width="121.15px" xmlns="http://www.w3.org/2000/svg">
  <g transform="matrix(1.0, 0.0, 0.0, 1.0, 60.55, 18.75)">
    <path d="M21.95 -9.85 Q8.65 -7.5 0.05 -7.5 -8.6 -7.5 -21.9 -9.85 -34.6 -12.1 -45.5 -15.45 -53.55 -17.95 -56.9 -15.15 L-56.95 -15.15 Q-58.35 -13.85 -58.5 -12.15 L-58.5 6.45 Q-58.35 12.2 -50.2 15.0 -45.85 16.45 -41.5 16.7 L41.6 16.7 44.25 16.4 50.25 15.0 Q58.4 12.2 58.5 6.45 L58.5 -12.1 Q58.45 -13.85 56.95 -15.15 53.6 -17.95 45.55 -15.45 34.65 -12.1 21.95 -9.85 M0.05 -9.55 Q8.5 -9.55 21.55 -11.9 34.15 -14.15 44.95 -17.45 54.4 -20.35 58.35 -16.7 60.55 -14.75 60.6 -12.2 L60.6 6.45 Q60.75 13.65 50.9 16.95 48.0 17.95 44.6 18.45 L44.5 18.45 41.7 18.8 41.6 18.8 -41.6 18.8 Q-46.25 18.55 -50.9 16.95 -60.7 13.65 -60.55 6.45 L-60.55 -12.2 Q-60.5 -14.75 -58.3 -16.7 -54.35 -20.35 -44.85 -17.45 -34.1 -14.15 -21.5 -11.9 -8.45 -9.55 0.05 -9.55" fill="#000000" fill-rule="evenodd" stroke="none"/>
    <path d="M21.95 -9.85 Q34.65 -12.1 45.55 -15.45 53.6 -17.95 56.95 -15.15 58.45 -13.85 58.5 -12.1 L58.5 6.45 Q58.4 12.2 50.25 15.0 L44.25 16.4 41.6 16.7 -41.5 16.7 Q-45.85 16.45 -50.2 15.0 -58.35 12.2 -58.5 6.45 L-58.5 -12.15 Q-58.35 -13.85 -56.95 -15.15 L-56.9 -15.15 Q-53.55 -17.95 -45.5 -15.45 -34.6 -12.1 -21.9 -9.85 -8.6 -7.5 0.05 -7.5 8.65 -7.5 21.95 -9.85" fill="#333333" fill-rule="evenodd" stroke="none"/>
  </g>
</svg>
