<?xml version="1.0" encoding="UTF-8" standalone="no"?>
<svg xmlns:ffdec="https://www.free-decompiler.com/flash" xmlns:xlink="http://www.w3.org/1999/xlink" ffdec:objectType="shape" height="24.25px" width="120.9px" xmlns="http://www.w3.org/2000/svg">
  <g transform="matrix(1.0, 0.0, 0.0, 1.0, 60.45, 12.1)">
    <path d="M-41.35 -8.8 L-41.3 -8.8 Q-38.05 -5.5 -38.05 -0.85 -38.05 3.8 -41.35 7.05 L-41.3 7.05 Q-44.6 10.3 -49.25 10.3 -53.9 10.3 -57.15 7.05 -60.45 3.8 -60.45 -0.85 -60.45 -5.5 -57.15 -8.8 -53.9 -12.1 -49.25 -12.1 -44.6 -12.1 -41.35 -8.8 M-55.7 -7.3 Q-58.35 -4.65 -58.35 -0.85 -58.35 2.9 -55.7 5.55 L-55.65 5.55 Q-53.0 8.2 -49.25 8.2 -45.45 8.2 -42.8 5.55 -40.15 2.9 -40.15 -0.85 -40.15 -4.65 -42.8 -7.3 -45.45 -10.0 -49.25 -10.0 -53.0 -10.0 -55.65 -7.3 L-55.7 -7.3" fill="#000000" fill-rule="evenodd" stroke="none"/>
    <path d="M-55.7 -7.3 L-55.65 -7.3 Q-53.0 -10.0 -49.25 -10.0 -45.45 -10.0 -42.8 -7.3 -40.15 -4.65 -40.15 -0.85 -40.15 2.9 -42.8 5.55 -45.45 8.2 -49.25 8.2 -53.0 8.2 -55.65 5.55 L-55.7 5.55 Q-58.35 2.9 -58.35 -0.85 -58.35 -4.65 -55.7 -7.3" fill="#999999" fill-rule="evenodd" stroke="none"/>
    <path d="M38.05 -0.85 Q38.05 -5.5 41.35 -8.8 44.6 -12.1 49.25 -12.1 53.85 -12.1 57.15 -8.8 60.45 -5.5 60.45 -0.85 60.45 3.8 57.15 7.05 53.9 10.3 49.25 10.3 44.6 10.3 41.35 7.05 38.05 3.8 38.05 -0.85 M42.8 -7.3 Q40.1 -4.65 40.1 -0.85 40.1 2.9 42.8 5.55 45.45 8.2 49.25 8.2 53.0 8.2 55.7 5.55 58.35 2.9 58.35 -0.85 58.35 -4.65 55.7 -7.3 53.0 -10.0 49.25 -10.0 45.45 -10.0 42.8 -7.3" fill="#000000" fill-rule="evenodd" stroke="none"/>
    <path d="M42.8 -7.3 Q45.45 -10.0 49.25 -10.0 53.0 -10.0 55.7 -7.3 58.35 -4.65 58.35 -0.85 58.35 2.9 55.7 5.55 53.0 8.2 49.25 8.2 45.45 8.2 42.8 5.55 40.1 2.9 40.1 -0.85 40.1 -4.65 42.8 -7.3" fill="#999999" fill-rule="evenodd" stroke="none"/>
    <path d="M-34.8 -2.65 Q-37.0 -0.5 -37.0 2.6 -37.0 5.7 -34.8 7.85 -32.6 10.05 -29.55 10.05 -26.45 10.05 -24.25 7.85 -22.1 5.7 -22.1 2.6 -22.1 -0.5 -24.25 -2.65 -26.45 -4.85 -29.55 -4.85 -32.6 -4.85 -34.8 -2.65 M-36.25 -4.15 Q-33.5 -6.95 -29.55 -6.95 -25.6 -6.95 -22.8 -4.15 -20.0 -1.35 -20.0 2.6 -20.0 6.55 -22.8 9.35 -25.6 12.15 -29.55 12.15 -33.5 12.15 -36.25 9.35 -39.1 6.55 -39.1 2.6 -39.1 -1.35 -36.25 -4.15" fill="#000000" fill-rule="evenodd" stroke="none"/>
    <path d="M-34.8 -2.65 Q-32.6 -4.85 -29.55 -4.85 -26.45 -4.85 -24.25 -2.65 -22.1 -0.5 -22.1 2.6 -22.1 5.7 -24.25 7.85 -26.45 10.05 -29.55 10.05 -32.6 10.05 -34.8 7.85 -37.0 5.7 -37.0 2.6 -37.0 -0.5 -34.8 -2.65" fill="#999999" fill-rule="evenodd" stroke="none"/>
    <path d="M-15.1 -2.65 Q-17.3 -0.5 -17.3 2.6 -17.3 5.7 -15.1 7.85 -12.9 10.05 -9.85 10.05 -6.75 10.05 -4.55 7.85 -2.4 5.7 -2.4 2.6 -2.4 -0.5 -4.55 -2.65 -6.75 -4.85 -9.85 -4.85 -12.9 -4.85 -15.1 -2.65 M-16.55 -4.15 Q-13.8 -6.95 -9.85 -6.95 -5.9 -6.95 -3.1 -4.15 -0.3 -1.35 -0.3 2.6 -0.3 6.55 -3.1 9.35 -5.9 12.15 -9.85 12.15 -13.8 12.15 -16.55 9.35 -19.4 6.55 -19.4 2.6 -19.4 -1.35 -16.55 -4.15" fill="#000000" fill-rule="evenodd" stroke="none"/>
    <path d="M-15.1 -2.65 Q-12.9 -4.85 -9.85 -4.85 -6.75 -4.85 -4.55 -2.65 -2.4 -0.5 -2.4 2.6 -2.4 5.7 -4.55 7.85 -6.75 10.05 -9.85 10.05 -12.9 10.05 -15.1 7.85 -17.3 5.7 -17.3 2.6 -17.3 -0.5 -15.1 -2.65" fill="#999999" fill-rule="evenodd" stroke="none"/>
    <path d="M4.6 -2.65 Q2.4 -0.5 2.4 2.6 2.4 5.7 4.6 7.85 6.8 10.05 9.85 10.05 12.95 10.05 15.1 7.85 17.3 5.7 17.3 2.6 17.3 -0.5 15.1 -2.65 12.95 -4.85 9.85 -4.85 6.8 -4.85 4.6 -2.65 M3.15 -4.15 Q5.9 -6.95 9.85 -6.95 13.8 -6.95 16.6 -4.15 19.4 -1.35 19.4 2.6 19.4 6.55 16.6 9.35 13.8 12.15 9.85 12.15 5.9 12.15 3.15 9.35 0.3 6.55 0.3 2.6 0.3 -1.35 3.15 -4.15" fill="#000000" fill-rule="evenodd" stroke="none"/>
    <path d="M4.6 -2.65 Q6.8 -4.85 9.85 -4.85 12.95 -4.85 15.1 -2.65 17.3 -0.5 17.3 2.6 17.3 5.7 15.1 7.85 12.95 10.05 9.85 10.05 6.8 10.05 4.6 7.85 2.4 5.7 2.4 2.6 2.4 -0.5 4.6 -2.65" fill="#999999" fill-rule="evenodd" stroke="none"/>
    <path d="M34.8 -2.65 Q32.65 -4.85 29.55 -4.85 26.5 -4.85 24.3 -2.65 22.1 -0.5 22.1 2.6 22.1 5.7 24.3 7.85 26.5 10.05 29.55 10.05 32.65 10.05 34.8 7.85 37.0 5.7 37.0 2.6 37.0 -0.5 34.8 -2.65 M29.55 -6.95 Q33.5 -6.95 36.3 -4.15 39.1 -1.35 39.1 2.6 39.1 6.55 36.3 9.35 33.5 12.15 29.55 12.15 25.6 12.15 22.8 9.35 20.0 6.55 20.0 2.6 20.0 -1.35 22.8 -4.15 25.6 -6.95 29.55 -6.95" fill="#000000" fill-rule="evenodd" stroke="none"/>
    <path d="M34.8 -2.65 Q37.0 -0.5 37.0 2.6 37.0 5.7 34.8 7.85 32.65 10.05 29.55 10.05 26.5 10.05 24.3 7.85 22.1 5.7 22.1 2.6 22.1 -0.5 24.3 -2.65 26.5 -4.85 29.55 -4.85 32.65 -4.85 34.8 -2.65" fill="#999999" fill-rule="evenodd" stroke="none"/>
  </g>
</svg>
