<?xml version="1.0" encoding="UTF-8" standalone="no"?>
<svg xmlns:ffdec="https://www.free-decompiler.com/flash" xmlns:xlink="http://www.w3.org/1999/xlink" ffdec:objectType="shape" height="89.5px" width="119.7px" xmlns="http://www.w3.org/2000/svg">
  <g transform="matrix(1.0, 0.0, 0.0, 1.0, 59.85, 44.75)">
    <path d="M22.15 -40.75 Q30.1 -37.8 36.95 -32.6 45.2 -26.4 50.75 -17.85 57.3 -7.75 59.15 3.75 60.15 10.1 59.75 16.4 59.6 19.2 58.9 22.95 L58.8 23.55 58.5 24.3 58.45 24.35 58.4 24.45 56.8 26.5 55.55 27.8 54.3 29.0 Q49.4 33.35 42.6 36.5 36.75 39.2 29.2 41.2 15.75 44.7 0.0 44.75 -15.75 44.7 -29.2 41.2 -36.75 39.2 -42.6 36.5 -49.4 33.35 -54.3 29.0 L-55.55 27.8 -56.75 26.5 -58.45 24.35 -58.5 24.3 -58.8 23.55 -58.85 23.35 -58.9 22.95 Q-59.6 19.1 -59.75 16.4 -60.15 9.95 -59.1 3.75 -57.3 -7.85 -50.75 -17.85 -45.15 -26.4 -36.95 -32.6 -30.05 -37.8 -22.1 -40.75 -15.85 -43.15 -9.25 -44.1 L0.0 -44.75 9.25 -44.1 Q15.85 -43.15 22.15 -40.75 M53.85 23.95 L55.1 22.4 55.15 22.2 55.95 16.15 Q56.45 10.2 55.6 4.3 L54.6 -0.8 Q46.5 2.1 36.1 4.15 18.6 7.55 -1.45 7.6 -22.2 7.55 -39.05 3.9 -47.8 1.95 -54.6 -0.75 L-55.6 4.3 Q-56.45 10.2 -55.95 16.15 L-55.15 22.2 -55.1 22.4 -53.85 23.95 -52.8 25.05 -51.7 26.05 Q-43.25 33.35 -28.15 37.15 -15.2 40.45 0.0 40.5 15.25 40.45 28.15 37.15 43.3 33.3 51.7 26.05 L53.85 23.95 M35.25 -30.35 Q28.75 -35.45 21.2 -38.45 11.2 -42.45 0.0 -42.55 -11.2 -42.45 -21.2 -38.45 -28.75 -35.45 -35.2 -30.35 -40.25 -26.4 -44.15 -21.6 -39.45 -19.9 -34.1 -18.8 -26.95 -17.2 -18.55 -16.4 L-1.45 -15.6 Q16.15 -15.6 31.7 -18.65 38.45 -19.9 44.05 -21.7 40.2 -26.5 35.25 -30.35" fill="#000000" fill-rule="evenodd" stroke="none"/>
    <path d="M37.05 -22.95 Q25.95 -33.55 6.25 -38.65 18.75 -32.45 27.0 -24.1 4.3 -19.2 -25.15 -19.5 4.1 -17.1 29.5 -21.45 L37.05 -22.95 M35.25 -30.35 Q40.2 -26.5 44.05 -21.7 38.45 -19.9 31.7 -18.65 16.15 -15.6 -1.45 -15.6 L-18.55 -16.4 Q-26.95 -17.2 -34.1 -18.8 -39.45 -19.9 -44.15 -21.6 -40.25 -26.4 -35.2 -30.35 -28.75 -35.45 -21.2 -38.45 -11.2 -42.45 0.0 -42.55 11.2 -42.45 21.2 -38.45 28.75 -35.45 35.25 -30.35 M53.85 23.95 L51.7 26.05 Q43.3 33.3 28.15 37.15 15.25 40.45 0.0 40.5 -15.2 40.45 -28.15 37.15 -43.25 33.35 -51.7 26.05 L-52.8 25.05 -53.85 23.95 -55.1 22.4 -55.15 22.2 -55.95 16.15 Q-56.45 10.2 -55.6 4.3 L-54.6 -0.75 Q-47.8 1.95 -39.05 3.9 -22.2 7.55 -1.45 7.6 18.6 7.55 36.1 4.15 46.5 2.1 54.6 -0.8 L55.6 4.3 Q56.45 10.2 55.95 16.15 L55.15 22.2 55.1 22.4 53.85 23.95 M50.65 3.8 L42.25 5.5 Q43.2 10.85 43.2 16.65 29.1 27.95 2.45 29.5 -23.25 30.95 -47.5 22.85 -38.7 28.9 -24.9 31.9 -11.9 34.7 2.8 34.2 17.35 33.75 29.95 30.2 43.1 26.5 50.95 20.25 51.75 11.4 50.65 3.8" fill="#ffffff" fill-rule="evenodd" stroke="none"/>
    <path d="M37.05 -22.95 L29.5 -21.45 Q4.1 -17.1 -25.15 -19.5 4.3 -19.2 27.0 -24.1 18.75 -32.45 6.25 -38.65 25.95 -33.55 37.05 -22.95 M50.65 3.8 Q51.75 11.4 50.95 20.25 43.1 26.5 29.95 30.2 17.35 33.75 2.8 34.2 -11.9 34.7 -24.9 31.9 -38.7 28.9 -47.5 22.85 -23.25 30.95 2.45 29.5 29.1 27.95 43.2 16.65 43.2 10.85 42.25 5.5 L50.65 3.8" fill="#cccccc" fill-rule="evenodd" stroke="none"/>
  </g>
</svg>
