<?xml version="1.0" encoding="UTF-8" standalone="no"?>
<svg xmlns:ffdec="https://www.free-decompiler.com/flash" xmlns:xlink="http://www.w3.org/1999/xlink" ffdec:objectType="shape" height="50.25px" width="10.15px" xmlns="http://www.w3.org/2000/svg">
  <g transform="matrix(1.0, 0.0, 0.0, 1.0, 5.1, 25.15)">
    <path d="M-3.55 25.1 L-5.1 25.1 -5.1 -23.0 Q-5.1 -23.9 -3.6 -24.5 -2.1 -25.15 -0.05 -25.15 2.05 -25.15 3.6 -24.5 5.05 -23.9 5.05 -23.0 L5.05 25.1 3.55 25.1 3.55 -22.35 Q3.55 -22.9 2.5 -23.3 L0.0 -23.7 -2.5 -23.3 Q-3.55 -22.9 -3.55 -22.35 L-3.55 25.1" fill="#000000" fill-rule="evenodd" stroke="none"/>
    <path d="M-3.55 25.1 L-3.55 -22.35 Q-3.55 -22.9 -2.5 -23.3 L0.0 -23.7 2.5 -23.3 Q3.55 -22.9 3.55 -22.35 L3.55 25.1 -3.55 25.1" fill="#999999" fill-rule="evenodd" stroke="none"/>
  </g>
</svg>
