<?xml version="1.0" encoding="UTF-8" standalone="no"?>
<svg xmlns:ffdec="https://www.free-decompiler.com/flash" xmlns:xlink="http://www.w3.org/1999/xlink" ffdec:objectType="shape" height="17.3px" width="47.15px" xmlns="http://www.w3.org/2000/svg">
  <g transform="matrix(1.0, 0.0, 0.0, 1.0, 23.55, 8.65)">
    <path d="M21.9 7.65 Q21.8 3.15 21.3 -1.05 20.75 -5.75 19.9 -7.65 20.75 -5.75 21.3 -1.05 21.8 3.15 21.9 7.65 L-22.55 0.0 19.9 -7.65 Q21.0 -6.75 21.75 -2.45 22.45 1.55 22.6 7.15 L21.9 7.65" fill="#ffffff" fill-rule="evenodd" stroke="none"/>
    <path d="M19.9 -7.65 Q20.75 -5.75 21.3 -1.05 21.8 3.15 21.9 7.65 L22.6 7.15 Q22.45 1.55 21.75 -2.45 21.0 -6.75 19.9 -7.65 L-22.55 0.0 21.9 7.65" fill="none" stroke="#000000" stroke-linecap="round" stroke-linejoin="round" stroke-width="2.0"/>
  </g>
</svg>
