<?xml version="1.0" encoding="UTF-8" standalone="no"?>
<svg xmlns:ffdec="https://www.free-decompiler.com/flash" xmlns:xlink="http://www.w3.org/1999/xlink" ffdec:objectType="shape" height="17.05px" width="42.8px" xmlns="http://www.w3.org/2000/svg">
  <g transform="matrix(1.0, 0.0, 0.0, 1.0, 21.4, 8.55)">
    <path d="M19.45 7.5 Q19.3 3.0 18.6 -1.15 17.8 -5.7 16.65 -7.55 17.8 -5.7 18.6 -1.15 19.3 3.0 19.45 7.5 L-20.4 -0.05 16.65 -7.55 Q18.15 -6.8 19.2 -2.6 20.15 1.35 20.4 6.85 L19.45 7.5" fill="#ffffff" fill-rule="evenodd" stroke="none"/>
    <path d="M16.65 -7.55 Q17.8 -5.7 18.6 -1.15 19.3 3.0 19.45 7.5 L20.4 6.85 Q20.15 1.35 19.2 -2.6 18.15 -6.8 16.65 -7.55 L-20.4 -0.05 19.45 7.5" fill="none" stroke="#000000" stroke-linecap="round" stroke-linejoin="round" stroke-width="2.0"/>
  </g>
</svg>
