<?xml version="1.0" encoding="UTF-8" standalone="no"?>
<svg xmlns:ffdec="https://www.free-decompiler.com/flash" xmlns:xlink="http://www.w3.org/1999/xlink" ffdec:objectType="shape" height="21.55px" width="30.2px" xmlns="http://www.w3.org/2000/svg">
  <g transform="matrix(1.0, 0.0, 0.0, 1.0, 15.1, 10.8)">
    <path d="M-14.1 -9.8 Q-11.2 -6.95 -9.25 -1.35 -7.4 3.9 -6.95 9.75 -7.4 3.9 -9.25 -1.35 -11.2 -6.95 -14.1 -9.8 L14.1 0.25 -6.95 9.75 -8.8 9.1 Q-9.05 4.35 -10.4 -0.75 -11.9 -6.4 -14.1 -9.8" fill="#ffffff" fill-rule="evenodd" stroke="none"/>
    <path d="M-6.95 9.75 Q-7.4 3.9 -9.25 -1.35 -11.2 -6.95 -14.1 -9.8 -11.9 -6.4 -10.4 -0.75 -9.05 4.35 -8.8 9.1 L-6.95 9.75 14.1 0.25 -14.1 -9.8" fill="none" stroke="#000000" stroke-linecap="round" stroke-linejoin="round" stroke-width="2.0"/>
  </g>
</svg>
