<?xml version="1.0" encoding="UTF-8" standalone="no"?>
<svg xmlns:ffdec="https://www.free-decompiler.com/flash" xmlns:xlink="http://www.w3.org/1999/xlink" ffdec:objectType="shape" height="16.85px" width="29.85px" xmlns="http://www.w3.org/2000/svg">
  <g transform="matrix(1.0, 0.0, 0.0, 1.0, 14.9, 8.45)">
    <path d="M12.1 7.4 Q11.85 2.85 10.5 -1.2 9.0 -5.7 6.8 -7.45 9.0 -5.7 10.5 -1.2 11.85 2.85 12.1 7.4 L-13.9 -0.2 6.8 -7.45 Q9.7 -6.85 11.65 -2.7 13.5 1.15 13.95 6.65 L12.1 7.4" fill="#ffffff" fill-rule="evenodd" stroke="none"/>
    <path d="M6.8 -7.45 Q9.0 -5.7 10.5 -1.2 11.85 2.85 12.1 7.4 L13.95 6.65 Q13.5 1.15 11.65 -2.7 9.7 -6.85 6.8 -7.45 L-13.9 -0.2 12.1 7.4" fill="none" stroke="#000000" stroke-linecap="round" stroke-linejoin="round" stroke-width="2.0"/>
  </g>
</svg>
