<?xml version="1.0" encoding="UTF-8" standalone="no"?>
<svg xmlns:ffdec="https://www.free-decompiler.com/flash" xmlns:xlink="http://www.w3.org/1999/xlink" ffdec:objectType="shape" height="21.3px" width="43.25px" xmlns="http://www.w3.org/2000/svg">
  <g transform="matrix(1.0, 0.0, 0.0, 1.0, 21.65, 10.65)">
    <path d="M-20.65 -9.65 Q-19.1 -6.95 -18.1 -1.4 -17.15 3.8 -16.9 9.65 -17.15 3.8 -18.1 -1.4 -19.1 -6.95 -20.65 -9.65 L20.6 0.3 -16.9 9.65 -17.85 9.0 Q-18.0 4.3 -18.7 -0.75 -19.5 -6.35 -20.65 -9.65" fill="#ffffff" fill-rule="evenodd" stroke="none"/>
    <path d="M-16.9 9.65 Q-17.15 3.8 -18.1 -1.4 -19.1 -6.95 -20.65 -9.65 -19.5 -6.35 -18.7 -0.75 -18.0 4.3 -17.85 9.0 L-16.9 9.65 20.6 0.3 -20.65 -9.65" fill="none" stroke="#000000" stroke-linecap="round" stroke-linejoin="round" stroke-width="2.0"/>
  </g>
</svg>
