<?xml version="1.0" encoding="UTF-8" standalone="no"?>
<svg xmlns:ffdec="https://www.free-decompiler.com/flash" xmlns:xlink="http://www.w3.org/1999/xlink" ffdec:objectType="shape" height="13.5px" width="66.25px" xmlns="http://www.w3.org/2000/svg">
  <g transform="matrix(1.0, 0.0, 0.0, 1.0, 64.35, 6.75)">
    <path d="M1.4 -6.2 Q1.9 -5.7 1.9 -5.0 L1.9 5.0 Q1.9 5.7 1.4 6.25 0.85 6.75 0.15 6.75 L-62.6 6.75 Q-63.3 6.75 -63.8 6.25 -64.35 5.7 -64.35 5.0 L-64.35 -5.0 Q-64.35 -5.65 -63.8 -6.2 -63.25 -6.75 -62.6 -6.75 L0.15 -6.75 Q0.85 -6.75 1.4 -6.2 M-1.6 -3.25 L-60.85 -3.25 -60.85 3.25 -1.6 3.25 -1.6 -3.25" fill="#000000" fill-rule="evenodd" stroke="none"/>
    <path d="M-1.6 -3.25 L-1.6 3.25 -60.85 3.25 -60.85 -3.25 -1.6 -3.25" fill="#999999" fill-rule="evenodd" stroke="none"/>
  </g>
</svg>
