<?xml version="1.0" encoding="UTF-8" standalone="no"?>
<svg xmlns:ffdec="https://www.free-decompiler.com/flash" xmlns:xlink="http://www.w3.org/1999/xlink" ffdec:objectType="shape" height="60.0px" width="61.8px" xmlns="http://www.w3.org/2000/svg">
  <g transform="matrix(1.0, 0.0, 0.0, 1.0, 30.9, 30.0)">
    <path d="M10.9 -20.7 L10.55 -22.55 30.9 -30.0 30.9 30.0 19.85 26.0 19.2 22.7 1.2 16.25 0.55 12.95 -17.35 6.5 -18.15 3.25 -30.9 -1.5 -19.9 -5.55 -20.2 -7.35 -5.0 -12.95 -5.4 -14.8 10.9 -20.7 M14.55 -12.3 L13.6 -18.65 -1.9 -12.9 -1.0 -8.75 -0.5 -6.45 -0.3 -5.45 2.85 9.4 3.8 14.0 19.35 19.85 18.5 14.05 15.05 -9.0 14.55 -12.3 M27.9 -17.95 L27.9 -25.7 13.95 -20.65 15.0 -15.2 15.7 -11.65 20.9 15.55 22.45 23.75 27.9 25.7 27.9 17.55 27.9 -13.25 27.9 -17.95 M-1.35 -5.3 L-2.0 -10.7 -16.85 -5.4 -16.35 -3.0 -16.05 -1.65 -15.35 1.75 -14.8 4.25 0.5 10.2 -0.05 5.65 -1.1 -3.5 -1.35 -5.3 M-18.0 -3.55 L-22.3 -1.5 -17.2 0.7 -18.0 -3.55" fill="#000000" fill-rule="evenodd" stroke="none"/>
    <path d="M-1.0 -8.75 L14.55 -12.3 15.05 -9.0 -0.5 -6.45 -1.0 -8.75 M27.9 -17.95 L27.9 -13.25 15.7 -11.65 15.0 -15.2 27.9 -17.95 M-1.35 -5.3 L-1.1 -3.5 -16.05 -1.65 -16.35 -3.0 -1.35 -5.3" fill="#ffffff" fill-rule="evenodd" stroke="none"/>
    <path d="M-1.0 -8.75 L-1.9 -12.9 13.6 -18.65 14.55 -12.3 -1.0 -8.75 M15.05 -9.0 L18.5 14.05 2.85 9.4 -0.3 -5.45 -0.5 -6.45 15.05 -9.0 M15.0 -15.2 L13.95 -20.65 27.9 -25.7 27.9 -17.95 15.0 -15.2 M27.9 -13.25 L27.9 17.55 20.9 15.55 15.7 -11.65 27.9 -13.25 M-16.35 -3.0 L-16.85 -5.4 -2.0 -10.7 -1.35 -5.3 -16.35 -3.0 M-1.1 -3.5 L-0.05 5.65 -15.35 1.75 -16.05 -1.65 -1.1 -3.5 M-18.0 -3.55 L-17.2 0.7 -22.3 -1.5 -18.0 -3.55" fill="#cccccc" fill-rule="evenodd" stroke="none"/>
    <path d="M18.5 14.05 L19.35 19.85 3.8 14.0 2.85 9.4 18.5 14.05 M27.9 17.55 L27.9 25.7 22.45 23.75 20.9 15.55 27.9 17.55 M-0.05 5.65 L0.5 10.2 -14.8 4.25 -15.35 1.75 -0.05 5.65" fill="#666666" fill-rule="evenodd" stroke="none"/>
  </g>
</svg>
