<?xml version="1.0" encoding="UTF-8" standalone="no"?>
<svg xmlns:ffdec="https://www.free-decompiler.com/flash" xmlns:xlink="http://www.w3.org/1999/xlink" ffdec:objectType="shape" height="60.0px" width="59.3px" xmlns="http://www.w3.org/2000/svg">
  <g transform="matrix(1.0, 0.0, 0.0, 1.0, 28.4, 30.0)">
    <path d="M14.75 -22.2 L14.4 -24.05 30.9 -30.0 30.9 30.0 24.5 27.8 23.85 24.5 5.95 18.6 5.3 15.3 -12.6 8.9 -13.4 5.65 -28.4 -0.55 -28.4 -2.4 -15.3 -7.8 -15.6 -9.6 -0.3 -15.25 -0.7 -17.1 14.75 -22.2 M27.9 -18.75 L27.9 -25.7 17.8 -22.15 18.85 -16.9 19.7 -12.5 25.35 16.55 27.1 25.55 27.9 25.85 27.9 17.35 27.9 -13.7 27.9 -18.75 M18.45 -13.95 L17.45 -20.15 2.8 -15.2 3.65 -10.75 4.25 -7.35 4.75 -4.65 7.7 11.65 8.55 16.35 24.0 21.65 23.25 16.8 19.1 -9.6 18.45 -13.95 M3.55 -4.45 L3.35 -6.8 2.7 -13.0 -12.25 -7.65 -11.7 -4.3 -11.4 -2.4 -10.6 3.1 -10.05 6.65 5.25 12.55 4.9 9.05 3.55 -4.45 M-21.85 -1.75 L-21.85 -1.5 -21.9 -0.85 -12.45 3.1 -13.0 -2.05 -13.15 -3.45 -13.4 -5.8 -21.85 -2.15 -21.85 -1.75" fill="#000000" fill-rule="evenodd" stroke="none"/>
    <path d="M27.9 -18.75 L27.9 -13.7 19.7 -12.5 18.85 -16.9 27.9 -18.75 M18.45 -13.95 L19.1 -9.6 4.25 -7.35 3.65 -10.75 18.45 -13.95 M3.35 -6.8 L3.55 -4.45 -11.4 -2.4 -11.7 -4.3 3.35 -6.8 M-21.85 -1.5 L-21.85 -1.75 -13.15 -3.45 -13.0 -2.05 -21.85 -1.5" fill="#ffffff" fill-rule="evenodd" stroke="none"/>
    <path d="M18.85 -16.9 L17.8 -22.15 27.9 -25.7 27.9 -18.75 18.85 -16.9 M27.9 -13.7 L27.9 17.35 25.35 16.55 19.7 -12.5 27.9 -13.7 M3.65 -10.75 L2.8 -15.2 17.45 -20.15 18.45 -13.95 3.65 -10.75 M19.1 -9.6 L23.25 16.8 7.7 11.65 4.75 -4.65 4.25 -7.35 19.1 -9.6 M3.55 -4.45 L4.9 9.05 -10.6 3.1 -11.4 -2.4 3.55 -4.45 M-11.7 -4.3 L-12.25 -7.65 2.7 -13.0 3.35 -6.8 -11.7 -4.3 M-21.85 -1.75 L-21.85 -2.15 -13.4 -5.8 -13.15 -3.45 -21.85 -1.75 M-13.0 -2.05 L-12.45 3.1 -21.9 -0.85 -21.85 -1.5 -13.0 -2.05" fill="#cccccc" fill-rule="evenodd" stroke="none"/>
    <path d="M27.9 17.35 L27.9 25.85 27.1 25.55 25.35 16.55 27.9 17.35 M23.25 16.8 L24.0 21.65 8.55 16.35 7.7 11.65 23.25 16.8 M4.9 9.05 L5.25 12.55 -10.05 6.65 -10.6 3.1 4.9 9.05" fill="#666666" fill-rule="evenodd" stroke="none"/>
  </g>
</svg>
