<?xml version="1.0" encoding="UTF-8" standalone="no"?>
<svg xmlns:ffdec="https://www.free-decompiler.com/flash" xmlns:xlink="http://www.w3.org/1999/xlink" ffdec:objectType="shape" height="60.0px" width="60.1px" xmlns="http://www.w3.org/2000/svg">
  <g transform="matrix(1.0, 0.0, 0.0, 1.0, 29.2, 30.0)">
    <path d="M22.75 -16.1 L22.15 -21.8 6.95 -17.15 7.8 -12.6 8.55 -8.3 12.6 14.05 13.45 18.85 26.75 22.4 26.2 17.2 23.3 -10.75 22.75 -16.1 M3.85 -17.2 L3.45 -19.05 19.45 -23.85 19.1 -25.7 30.9 -30.0 30.9 30.0 27.25 28.55 26.6 25.25 10.85 21.1 10.2 17.8 -7.7 11.2 -8.5 7.95 -23.05 1.0 -23.3 -0.95 -29.2 -1.55 -23.15 -3.05 -22.95 -4.5 -10.9 -9.7 -11.2 -11.5 3.85 -17.2 M7.9 -5.3 L7.55 -8.6 7.15 -12.45 6.85 -14.95 -7.85 -9.55 -7.25 -5.5 -6.9 -3.2 -5.7 5.25 -5.15 8.95 10.15 15.05 9.65 10.35 7.9 -5.3 M23.2 -18.95 L23.95 -13.8 27.9 13.0 27.9 -14.45 27.9 -19.95 27.9 -25.7 22.5 -23.8 23.2 -18.95 M-8.65 -4.5 L-9.0 -7.7 -19.35 -2.25 -19.2 -1.65 -19.1 -1.25 -19.0 -0.7 -18.95 -0.5 -7.55 5.4 -7.7 3.95 -8.35 -2.1 -8.65 -4.5" fill="#000000" fill-rule="evenodd" stroke="none"/>
    <path d="M22.75 -16.1 L23.3 -10.75 8.55 -8.3 7.8 -12.6 22.75 -16.1 M7.55 -8.6 L7.9 -5.3 -6.9 -3.2 -7.25 -5.5 7.55 -8.6 M23.95 -13.8 L23.2 -18.95 27.9 -19.95 27.9 -14.45 23.95 -13.8 M-8.65 -4.5 L-8.35 -2.1 -19.1 -1.25 -19.2 -1.65 -8.65 -4.5" fill="#ffffff" fill-rule="evenodd" stroke="none"/>
    <path d="M7.8 -12.6 L6.95 -17.15 22.15 -21.8 22.75 -16.1 7.8 -12.6 M23.3 -10.75 L26.2 17.2 12.6 14.05 8.55 -8.3 23.3 -10.75 M7.9 -5.3 L9.65 10.35 -5.7 5.25 -6.9 -3.2 7.9 -5.3 M-7.25 -5.5 L-7.85 -9.55 6.85 -14.95 7.15 -12.45 7.55 -8.6 -7.25 -5.5 M23.2 -18.95 L22.5 -23.8 27.9 -25.7 27.9 -19.95 23.2 -18.95 M27.9 -14.45 L27.9 13.0 23.95 -13.8 27.9 -14.45 M-19.2 -1.65 L-19.35 -2.25 -9.0 -7.7 -8.65 -4.5 -19.2 -1.65 M-8.35 -2.1 L-7.7 3.95 -19.0 -0.7 -19.1 -1.25 -8.35 -2.1" fill="#cccccc" fill-rule="evenodd" stroke="none"/>
    <path d="M26.2 17.2 L26.75 22.4 13.45 18.85 12.6 14.05 26.2 17.2 M9.65 10.35 L10.15 15.05 -5.15 8.95 -5.7 5.25 9.65 10.35 M-7.7 3.95 L-7.55 5.4 -18.95 -0.5 -19.0 -0.7 -7.7 3.95" fill="#666666" fill-rule="evenodd" stroke="none"/>
  </g>
</svg>
