<?xml version="1.0" encoding="UTF-8" standalone="no"?>
<svg xmlns:ffdec="https://www.free-decompiler.com/flash" xmlns:xlink="http://www.w3.org/1999/xlink" ffdec:objectType="shape" height="101.65px" width="51.4px" xmlns="http://www.w3.org/2000/svg">
  <g transform="matrix(1.0, 0.0, 0.0, 1.0, 25.7, 89.85)">
    <path d="M25.7 0.4 L25.55 3.25 -25.5 3.25 -25.7 0.4 25.7 0.4" fill="url(#gradient0)" fill-rule="evenodd" stroke="none"/>
    <path d="M-25.7 0.4 L-25.7 0.35 -25.7 -0.85 Q-25.7 -37.75 -18.2 -63.9 -10.65 -89.9 0.0 -89.85 10.65 -89.9 18.15 -63.9 25.7 -37.75 25.7 -0.85 L25.7 0.35 25.7 0.4 -25.7 0.4" fill="url(#gradient1)" fill-rule="evenodd" stroke="none"/>
    <path d="M25.55 3.25 Q24.5 6.5 18.15 8.9 10.65 11.8 0.0 11.8 -10.65 11.8 -18.2 8.9 -24.55 6.5 -25.5 3.25 L25.55 3.25" fill="url(#gradient2)" fill-rule="evenodd" stroke="none"/>
  </g>
  <defs>
    <radialGradient cx="0" cy="0" gradientTransform="matrix(0.0316, 0.0, 0.0, 0.0316, 0.0, 0.0)" gradientUnits="userSpaceOnUse" id="gradient0" r="819.2" spreadMethod="pad">
      <stop offset="0.16470588235294117" stop-color="#ffffff"/>
      <stop offset="0.42745098039215684" stop-color="#ffff00" stop-opacity="0.6627451"/>
      <stop offset="0.9450980392156862" stop-color="#ff9900" stop-opacity="0.0"/>
    </radialGradient>
    <radialGradient cx="0" cy="0" gradientTransform="matrix(0.0316, 0.0, 0.0, 0.1093, 0.0, -0.85)" gradientUnits="userSpaceOnUse" id="gradient1" r="819.2" spreadMethod="pad">
      <stop offset="0.16470588235294117" stop-color="#ffffff"/>
      <stop offset="0.42745098039215684" stop-color="#ffff00" stop-opacity="0.6627451"/>
      <stop offset="0.9450980392156862" stop-color="#ff9900" stop-opacity="0.0"/>
    </radialGradient>
    <radialGradient cx="0" cy="0" gradientTransform="matrix(0.0316, 0.0, 0.0, 0.012, 0.0, 2.0)" gradientUnits="userSpaceOnUse" id="gradient2" r="819.2" spreadMethod="pad">
      <stop offset="0.16470588235294117" stop-color="#ffffff"/>
      <stop offset="0.42745098039215684" stop-color="#ffff00" stop-opacity="0.6627451"/>
      <stop offset="0.9450980392156862" stop-color="#ff9900" stop-opacity="0.0"/>
    </radialGradient>
  </defs>
</svg>
