<?xml version="1.0" encoding="UTF-8" standalone="no"?>
<svg xmlns:ffdec="https://www.free-decompiler.com/flash" xmlns:xlink="http://www.w3.org/1999/xlink" ffdec:objectType="shape" height="60.0px" width="60.25px" xmlns="http://www.w3.org/2000/svg">
  <g transform="matrix(1.0, 0.0, 0.0, 1.0, 29.35, 30.0)">
    <path d="M27.9 -25.7 L26.45 -25.05 28.0 -7.45 27.9 -25.7 M23.05 -26.95 L30.9 -30.0 30.9 30.0 27.25 28.55 26.6 25.25 15.3 23.25 14.65 19.95 -3.45 13.65 -4.25 10.4 -17.4 3.4 -17.8 0.65 -29.35 -1.7 -17.75 -4.9 -17.65 -6.1 -7.7 -11.15 -8.0 -12.95 7.7 -19.1 7.3 -20.95 23.4 -25.1 23.05 -26.95 M26.2 -18.5 L26.1 -23.05 10.8 -19.05 11.6 -14.45 12.5 -9.5 16.8 14.85 17.9 21.0 26.75 22.4 26.7 17.8 26.3 -11.55 26.2 -18.5 M11.35 -11.35 L11.0 -14.3 10.7 -16.85 -4.65 -11.0 -4.1 -7.8 -3.5 -4.05 -1.6 7.05 -0.9 11.4 14.6 17.2 14.0 11.75 11.9 -6.6 11.35 -11.35 M-5.1 -4.6 L-5.8 -9.15 -13.85 -3.2 -14.0 -1.95 -14.15 -0.9 -14.25 -0.1 -3.3 7.85 -3.85 3.95 -4.8 -2.6 -5.1 -4.6" fill="#000000" fill-rule="evenodd" stroke="none"/>
    <path d="M26.2 -18.5 L26.3 -11.55 12.5 -9.5 11.6 -14.45 26.2 -18.5 M11.35 -11.35 L11.9 -6.6 -3.5 -4.05 -4.1 -7.8 11.35 -11.35 M-5.1 -4.6 L-4.8 -2.6 -14.0 -1.95 -5.1 -4.6" fill="#ffffff" fill-rule="evenodd" stroke="none"/>
    <path d="M27.9 -25.7 L28.0 -7.45 26.45 -25.05 27.9 -25.7 M11.6 -14.45 L10.8 -19.05 26.1 -23.05 26.2 -18.5 11.6 -14.45 M26.3 -11.55 L26.7 17.8 16.8 14.85 12.5 -9.5 26.3 -11.55 M-4.1 -7.8 L-4.65 -11.0 10.7 -16.85 11.0 -14.3 11.35 -11.35 -4.1 -7.8 M11.9 -6.6 L14.0 11.75 -1.6 7.05 -3.5 -4.05 11.9 -6.6 M-14.0 -1.95 L-13.85 -3.2 -5.8 -9.15 -5.1 -4.6 -14.0 -1.95 -4.8 -2.6 -3.85 3.95 -14.15 -0.9 -14.0 -1.95" fill="#cccccc" fill-rule="evenodd" stroke="none"/>
    <path d="M26.7 17.8 L26.75 22.4 17.9 21.0 16.8 14.85 26.7 17.8 M14.0 11.75 L14.6 17.2 -0.9 11.4 -1.6 7.05 14.0 11.75 M-3.85 3.95 L-3.3 7.85 -14.25 -0.1 -14.15 -0.9 -3.85 3.95" fill="#666666" fill-rule="evenodd" stroke="none"/>
  </g>
</svg>
