<?xml version="1.0" encoding="UTF-8" standalone="no"?>
<svg xmlns:ffdec="https://www.free-decompiler.com/flash" xmlns:xlink="http://www.w3.org/1999/xlink" ffdec:objectType="shape" height="119.3px" width="41.85px" xmlns="http://www.w3.org/2000/svg">
  <g transform="matrix(1.0, 0.0, 0.0, 1.0, 19.7, 58.4)">
    <path d="M-10.0 17.3 L-11.65 -1.2 -7.7 -31.35 5.45 -1.8 9.7 16.65 M19.65 58.15 L11.3 32.2 -1.8 6.8 -7.35 34.15 -14.6 58.4 M-7.7 -31.35 L-1.8 6.8" fill="none" stroke="#000000" stroke-linecap="round" stroke-linejoin="round" stroke-width="5.0"/>
    <path d="M-14.65 -53.35 Q-9.6 -58.4 -2.45 -58.4 4.7 -58.4 9.75 -53.35 14.85 -48.25 14.85 -41.1 14.85 -34.0 9.75 -28.9 4.7 -23.85 -2.45 -23.85 -9.6 -23.85 -14.65 -28.9 -19.7 -34.0 -19.7 -41.1 -19.7 -48.25 -14.65 -53.35" fill="#000000" fill-rule="evenodd" stroke="none"/>
  </g>
</svg>
