<?xml version="1.0" encoding="UTF-8" standalone="no"?>
<svg xmlns:ffdec="https://www.free-decompiler.com/flash" xmlns:xlink="http://www.w3.org/1999/xlink" ffdec:objectType="shape" height="108.05px" width="90.7px" xmlns="http://www.w3.org/2000/svg">
  <g transform="matrix(1.0, 0.0, 0.0, 1.0, 46.5, 58.9)">
    <path d="M-44.0 -39.2 L-29.9 -41.2 -7.7 -31.35 20.2 -17.8 41.7 -22.35 M39.4 37.9 L17.05 8.95 -9.05 3.05 -20.6 23.65 -23.6 46.65 M-9.05 3.05 L-7.7 -31.35" fill="none" stroke="#000000" stroke-linecap="round" stroke-linejoin="round" stroke-width="5.0"/>
    <path d="M-24.4 -53.85 Q-19.35 -58.9 -12.2 -58.9 -5.05 -58.9 0.0 -53.85 5.1 -48.75 5.1 -41.6 5.1 -34.5 0.0 -29.4 -5.05 -24.35 -12.2 -24.35 -19.35 -24.35 -24.4 -29.4 -29.45 -34.5 -29.45 -41.6 -29.45 -48.75 -24.4 -53.85" fill="#000000" fill-rule="evenodd" stroke="none"/>
  </g>
</svg>
