<?xml version="1.0" encoding="UTF-8" standalone="no"?>
<svg xmlns:ffdec="https://www.free-decompiler.com/flash" xmlns:xlink="http://www.w3.org/1999/xlink" ffdec:objectType="shape" height="113.8px" width="85.95px" xmlns="http://www.w3.org/2000/svg">
  <g transform="matrix(1.0, 0.0, 0.0, 1.0, 52.5, 59.9)">
    <path d="M-50.0 -17.2 L-31.15 -25.95 -11.45 -28.6 15.45 -40.55 30.95 -17.1 M13.15 51.4 L10.3 21.95 -2.55 2.55 -12.1 18.4 -33.1 16.9 M-2.55 2.55 L-11.45 -28.6" fill="none" stroke="#000000" stroke-linecap="round" stroke-linejoin="round" stroke-width="5.0"/>
    <path d="M-19.4 -54.85 Q-14.35 -59.9 -7.2 -59.9 -0.05 -59.9 5.0 -54.85 10.1 -49.75 10.1 -42.6 10.1 -35.5 5.0 -30.4 -0.05 -25.35 -7.2 -25.35 -14.35 -25.35 -19.4 -30.4 -24.45 -35.5 -24.45 -42.6 -24.45 -49.75 -19.4 -54.85" fill="#000000" fill-rule="evenodd" stroke="none"/>
  </g>
</svg>
