<?xml version="1.0" encoding="UTF-8" standalone="no"?>
<svg xmlns:ffdec="https://www.free-decompiler.com/flash" xmlns:xlink="http://www.w3.org/1999/xlink" ffdec:objectType="shape" height="89.1px" width="64.8px" xmlns="http://www.w3.org/2000/svg">
  <g transform="matrix(1.0, 0.0, 0.0, 1.0, 39.85, 59.45)">
    <path d="M-24.75 -56.95 L-36.65 -36.2 -9.45 -27.35 22.45 -26.05 14.7 -53.85 M-15.1 27.15 L-37.35 14.65 -12.3 -1.7 -9.45 -27.35 M-6.85 25.9 L14.3 16.2 -12.3 -1.7" fill="none" stroke="#000000" stroke-linecap="round" stroke-linejoin="round" stroke-width="5.0"/>
    <path d="M-25.9 -52.35 Q-20.85 -57.4 -13.7 -57.4 -6.55 -57.4 -1.5 -52.35 3.6 -47.25 3.6 -40.1 3.6 -33.0 -1.5 -27.9 -6.55 -22.85 -13.7 -22.85 -20.85 -22.85 -25.9 -27.9 -30.95 -33.0 -30.95 -40.1 -30.95 -47.25 -25.9 -52.35" fill="#000000" fill-rule="evenodd" stroke="none"/>
  </g>
</svg>
