<?xml version="1.0" encoding="UTF-8" standalone="no"?>
<svg xmlns:ffdec="https://www.free-decompiler.com/flash" xmlns:xlink="http://www.w3.org/1999/xlink" ffdec:objectType="shape" height="100.3px" width="93.95px" xmlns="http://www.w3.org/2000/svg">
  <g transform="matrix(1.0, 0.0, 0.0, 1.0, 65.5, 49.4)">
    <path d="M12.15 48.4 L5.3 23.7 -12.3 -1.7 -39.85 9.15 -50.6 35.15 M25.95 24.4 L4.2 -9.55 -9.45 -27.35 -12.3 -1.7 M-9.45 -27.35 L-42.65 -21.45 -63.0 -6.7" fill="none" stroke="#000000" stroke-linecap="round" stroke-linejoin="round" stroke-width="5.0"/>
    <path d="M-19.65 -44.35 Q-14.6 -49.4 -7.45 -49.4 -0.3 -49.4 4.75 -44.35 9.85 -39.25 9.85 -32.1 9.85 -25.0 4.75 -19.9 -0.3 -14.85 -7.45 -14.85 -14.6 -14.85 -19.65 -19.9 -24.7 -25.0 -24.7 -32.1 -24.7 -39.25 -19.65 -44.35" fill="#000000" fill-rule="evenodd" stroke="none"/>
  </g>
</svg>
