<?xml version="1.0" encoding="UTF-8" standalone="no"?>
<svg xmlns:ffdec="https://www.free-decompiler.com/flash" xmlns:xlink="http://www.w3.org/1999/xlink" ffdec:objectType="shape" height="138.7px" width="142.3px" xmlns="http://www.w3.org/2000/svg">
  <g transform="matrix(1.0, 0.0, 0.0, 1.0, 72.3, 70.15)">
    <path d="M50.2 -69.2 Q50.6 -68.85 51.35 -68.85 L57.0 -70.0 Q61.85 -70.65 64.25 -68.5 63.95 -67.9 62.7 -67.25 60.85 -66.35 58.25 -66.35 54.05 -66.35 51.95 -67.15 50.15 -67.85 49.55 -69.25 L49.75 -69.6 50.2 -69.2 M28.5 -53.85 Q27.7 -52.5 26.0 -52.5 22.95 -52.5 22.0 -55.0 21.6 -56.2 21.75 -57.05 21.75 -61.5 25.4 -60.7 29.0 -59.9 29.0 -55.55 29.0 -54.75 28.5 -53.85 M9.35 -27.0 Q9.75 -26.85 9.75 -26.05 L8.9 -22.55 Q8.05 -19.55 8.05 -18.0 6.7 -12.85 4.95 -7.9 L4.8 -7.45 8.35 -10.1 Q18.4 -17.4 22.3 -18.15 28.1 -21.95 30.55 -22.25 L30.75 -21.85 21.8 -15.2 Q17.7 -11.4 2.65 0.6 L5.45 4.35 9.5 10.3 9.25 11.05 Q9.75 11.5 8.5 11.5 6.35 11.5 3.1 5.8 L1.05 1.9 -1.0 3.5 -2.2 3.2 -11.35 10.7 Q-23.3 20.15 -26.0 21.75 L-26.9 21.45 Q-27.25 21.15 -27.25 20.35 -27.25 18.95 -15.7 9.8 -7.8 3.45 -2.75 0.35 L-2.55 -0.1 -2.6 -0.55 Q-2.6 -2.4 1.3 -12.4 5.55 -23.3 8.5 -27.25 L9.35 -27.0 M47.7 -15.9 Q51.5 -14.35 52.8 -12.1 54.7 -8.85 56.75 -8.05 57.75 -7.65 57.75 -4.6 L57.55 -2.75 Q57.1 -1.25 55.5 -1.25 53.7 -1.25 53.05 -2.7 52.7 -3.4 52.75 -4.25 53.05 -4.85 51.8 -4.85 51.3 -4.85 50.65 -4.05 L49.5 -3.25 Q48.0 -3.25 47.75 -4.3 47.6 -4.85 47.75 -5.55 47.75 -6.15 48.25 -7.5 L48.75 -9.5 Q48.75 -10.35 46.7 -12.35 44.1 -14.95 43.5 -15.85 43.9 -17.45 47.7 -15.9 M69.25 12.55 L68.0 13.0 65.9 12.55 63.75 12.05 Q61.2 12.05 50.25 8.5 39.55 5.0 33.3 2.25 36.7 -0.95 50.05 3.0 61.8 6.5 70.0 11.5 L69.25 12.55 M52.3 21.4 L51.5 22.5 Q48.95 21.6 49.2 20.85 49.35 20.5 47.0 20.5 L32.5 7.0 Q34.05 4.5 36.65 6.65 41.8 10.95 43.75 11.8 46.6 14.95 50.55 16.85 52.8 17.95 52.8 20.5 L52.3 21.4 M38.0 53.8 Q37.35 53.3 36.8 52.4 36.3 51.5 36.3 51.1 36.3 49.15 38.15 49.45 40.0 49.75 40.0 51.0 40.0 51.55 39.15 52.55 L38.0 53.8 M9.55 63.55 L9.55 66.55 Q9.25 68.55 7.5 68.55 5.0 68.55 4.25 67.05 L4.0 65.35 Q4.0 59.5 6.8 58.75 9.55 58.05 9.55 63.55 M-72.25 -43.5 Q-72.25 -45.5 -69.5 -45.8 -66.75 -46.1 -66.75 -43.0 -66.75 -42.15 -67.4 -41.5 -68.25 -40.6 -70.0 -40.6 -71.65 -40.6 -72.1 -41.95 -72.35 -42.65 -72.25 -43.5 M-52.0 -23.55 Q-52.0 -25.2 -48.2 -27.45 -44.55 -29.55 -39.45 -31.0 -26.55 -34.7 -22.75 -30.1 -22.9 -29.6 -24.5 -29.6 L-30.15 -28.75 Q-37.1 -28.75 -40.25 -24.8 -41.9 -22.8 -43.15 -22.1 -45.35 -20.85 -49.5 -20.85 -51.15 -20.85 -51.75 -22.1 L-52.0 -23.55 M-25.0 6.15 Q-25.0 7.5 -30.5 11.75 L-31.55 10.75 -32.0 9.9 Q-32.0 9.35 -31.0 8.05 -29.9 6.65 -28.5 5.75 L-28.9 4.75 -29.1 3.4 Q-29.1 1.55 -27.35 0.8 -25.15 -0.05 -21.5 2.15 L-22.3 2.0 -25.0 2.3 Q-26.8 2.6 -26.85 2.8 -25.0 5.1 -25.0 6.15 M-47.85 39.85 L-48.0 44.1 Q-48.0 45.35 -48.85 47.3 -49.75 49.2 -49.75 50.25 -49.75 52.1 -48.4 55.55 -47.1 59.0 -47.1 60.35 -47.1 62.25 -47.5 63.25 -48.2 64.8 -50.0 64.8 -52.4 64.8 -53.5 61.65 L-54.1 58.35 -53.7 55.65 Q-53.35 53.55 -53.35 52.9 -53.35 47.95 -51.0 41.95 -47.85 33.95 -42.75 34.0 L-47.85 39.85" fill="#990000" fill-rule="evenodd" stroke="none"/>
  </g>
</svg>
