<?xml version="1.0" encoding="UTF-8" standalone="no"?>
<svg xmlns:ffdec="https://www.free-decompiler.com/flash" xmlns:xlink="http://www.w3.org/1999/xlink" ffdec:objectType="shape" height="171.0px" width="184.85px" xmlns="http://www.w3.org/2000/svg">
  <g transform="matrix(1.0, 0.0, 0.0, 1.0, 85.85, 88.0)">
    <path d="M76.3 -66.35 Q76.3 -65.65 75.0 -65.2 L72.5 -64.85 Q70.85 -64.85 69.55 -65.65 L68.3 -66.85 Q69.25 -68.05 71.95 -68.1 74.55 -68.15 76.05 -67.1 76.3 -67.6 76.3 -66.35 M13.5 -39.35 L14.3 -38.6 14.55 -37.4 9.7 -21.95 6.2 -11.15 Q8.85 -13.3 12.7 -16.0 24.8 -24.4 30.0 -24.1 30.25 -24.8 30.25 -23.55 30.25 -21.8 25.9 -18.25 34.2 -23.25 42.85 -27.65 L44.25 -28.6 44.4 -28.45 55.05 -33.6 Q49.55 -29.75 38.35 -22.9 L28.7 -17.0 22.95 -13.6 15.8 -9.35 5.8 -3.05 6.55 -3.0 7.0 -2.0 Q6.55 -1.5 4.95 -1.0 L5.05 1.05 4.3 4.1 8.4 11.95 Q12.75 20.2 14.75 25.05 L14.25 25.25 Q8.3 14.7 4.0 5.25 L2.5 10.05 Q-0.05 18.5 -0.5 18.5 -1.95 18.5 -2.4 17.2 L-2.5 15.75 Q-2.5 6.85 0.85 0.0 L0.75 0.0 -0.1 -0.15 -0.5 0.05 -0.75 -0.1 -0.35 -0.35 -0.45 -0.5 -0.5 -0.55 -0.55 -0.3 Q-0.75 0.0 -1.5 0.0 L-1.6 0.0 Q-6.25 4.8 -13.85 11.2 L-25.5 21.0 Q-35.1 30.5 -47.25 40.55 L-30.45 25.1 -32.5 26.8 -33.0 26.55 Q-28.0 20.9 -15.4 10.75 L-2.1 -0.3 -2.85 -0.95 -4.9 -1.0 Q-14.55 -1.0 -20.2 1.05 -23.0 2.05 -24.75 3.05 L-25.75 2.8 -26.0 2.7 -26.1 1.85 Q-26.1 -0.65 -18.0 -2.45 -12.15 -3.8 -5.65 -3.9 L-6.15 -4.45 Q-10.4 -9.15 -12.35 -12.5 L-11.05 -12.35 -9.1 -12.0 Q-5.15 -12.0 -1.4 -9.8 L-2.7 -15.15 Q-3.85 -21.15 -3.85 -24.5 L-3.75 -29.25 Q-1.6 -28.85 -1.45 -27.5 -1.3 -26.25 0.0 -26.25 L3.45 -13.1 5.3 -20.05 Q8.8 -33.55 10.55 -39.1 L11.75 -39.1 Q12.05 -38.65 11.95 -37.95 L11.75 -36.85 11.75 -36.75 12.45 -38.0 Q12.9 -39.0 13.5 -39.35 M4.45 -3.5 L5.85 -4.4 9.0 -6.95 4.25 -4.1 4.45 -3.5 M98.55 -27.0 Q97.9 -26.0 96.5 -26.0 94.5 -26.0 94.05 -27.05 93.85 -27.6 94.0 -28.3 94.0 -30.35 96.5 -30.8 99.0 -31.2 99.0 -28.5 99.0 -27.65 98.55 -27.0 M88.25 24.3 Q87.4 24.3 80.3 21.0 73.05 17.6 73.05 16.9 73.05 16.65 74.55 15.5 L73.25 14.0 Q75.65 11.95 82.8 16.0 89.8 20.0 89.8 22.65 89.8 24.3 88.25 24.3 M61.0 10.75 L60.65 11.0 59.5 11.25 Q57.25 11.25 55.55 7.8 L54.3 4.6 Q54.3 -3.9 57.8 0.7 59.05 2.4 60.15 5.15 61.25 7.8 61.25 9.15 L61.0 10.75 M56.95 24.2 Q57.8 24.85 57.8 25.5 L56.8 27.5 55.55 29.5 58.55 30.8 58.7 30.7 58.8 31.55 Q58.8 32.45 56.5 33.0 L51.25 33.5 Q49.45 33.5 49.05 32.4 L49.0 31.1 Q49.0 29.95 50.3 28.9 L54.05 25.75 51.9 24.1 Q50.8 23.25 50.8 22.85 50.8 21.55 51.25 20.45 51.7 19.2 52.55 18.8 52.85 19.35 52.95 20.85 53.05 22.1 53.5 22.3 56.1 23.55 56.95 24.2 M8.8 81.55 Q8.15 83.0 7.0 83.0 5.3 83.0 5.0 81.45 L5.0 79.75 Q5.0 76.15 7.15 76.55 9.3 76.9 9.3 79.5 9.3 80.5 8.8 81.55 M55.7 79.55 Q55.0 80.35 52.05 80.5 L51.55 79.85 Q51.25 79.4 51.25 78.6 51.25 76.1 53.65 75.35 56.05 74.6 56.05 77.6 56.05 79.2 55.7 79.55 M-28.5 -83.35 Q-29.4 -82.1 -30.5 -82.1 -32.05 -82.1 -32.35 -83.25 L-32.35 -84.6 Q-32.35 -87.2 -30.05 -87.9 -27.75 -88.55 -27.75 -85.4 -27.75 -84.45 -28.5 -83.35 M-45.25 -26.85 L-45.0 -26.7 Q-44.75 -26.6 -44.75 -25.85 -44.75 -25.2 -45.0 -24.7 -45.4 -23.95 -46.0 -25.1 L-52.85 -19.4 Q-59.1 -14.25 -60.75 -14.25 -65.2 -14.25 -66.85 -15.75 -67.6 -16.45 -67.6 -17.4 -67.6 -19.2 -66.9 -19.55 L-64.9 -19.5 Q-60.7 -18.85 -57.35 -21.6 L-51.6 -25.8 Q-48.85 -27.2 -45.25 -26.85 M-1.6 -17.95 L-0.85 -13.5 -0.75 -13.5 -1.4 -18.2 Q-1.7 -21.45 -2.1 -22.1 L-1.6 -17.95 M-31.85 10.35 Q-31.85 12.3 -30.35 13.4 -28.85 14.55 -28.85 16.0 -28.85 19.75 -31.0 19.75 -33.55 19.75 -34.25 16.75 L-34.5 12.9 Q-34.5 10.55 -33.55 8.65 -32.2 5.8 -29.75 9.3 -29.85 9.75 -31.75 9.8 L-31.8 9.6 -31.85 10.35 M-54.25 61.0 L-54.1 72.05 Q-47.85 73.3 -47.85 76.0 -47.85 77.05 -49.0 78.5 -50.45 80.3 -52.5 80.3 -56.05 80.3 -57.25 72.2 L-57.75 64.0 Q-57.75 61.1 -56.1 56.55 L-55.35 52.3 Q-54.8 49.6 -53.5 49.3 L-52.7 49.55 Q-52.35 49.7 -52.35 50.5 -52.35 52.25 -53.3 55.2 -54.25 58.1 -54.25 61.0 M-82.25 35.25 Q-82.75 35.8 -83.5 35.8 L-84.7 35.7 -85.6 35.3 -85.85 33.6 Q-85.85 31.75 -83.8 31.95 -81.75 32.15 -81.75 33.85 -81.75 34.7 -82.25 35.25" fill="#990000" fill-rule="evenodd" stroke="none"/>
  </g>
</svg>
