<?xml version="1.0" encoding="UTF-8" standalone="no"?>
<svg xmlns:ffdec="https://www.free-decompiler.com/flash" xmlns:xlink="http://www.w3.org/1999/xlink" ffdec:objectType="shape" height="178.2px" width="193.35px" xmlns="http://www.w3.org/2000/svg">
  <g transform="matrix(1.0, 0.0, 0.0, 1.0, 85.35, 83.45)">
    <path d="M4.8 -82.9 L5.0 -81.9 4.75 -81.0 Q4.05 -80.6 3.5 -80.5 L2.0 -81.85 Q2.0 -82.7 2.25 -83.05 2.8 -83.75 4.55 -83.25 L4.8 -82.9 M11.55 -27.4 L7.35 -17.1 Q4.95 -11.25 3.5 -7.05 6.25 -6.1 11.65 -3.15 19.8 1.3 19.8 1.85 L14.0 6.05 Q12.0 6.05 6.3 1.3 L2.8 -1.7 Q1.6 7.55 -0.1 16.55 -3.9 36.3 -7.25 36.3 -8.65 36.3 -8.9 35.15 L-8.85 33.8 Q-8.85 30.3 -2.9 8.35 L0.45 -2.95 Q-4.35 -3.75 -10.85 -7.85 L-24.0 -16.1 Q-21.5 -19.9 -12.0 -14.55 L-4.1 -9.7 1.85 -6.15 1.9 -6.25 1.25 -7.5 2.4 -7.35 Q3.2 -11.05 4.4 -14.55 7.05 -22.3 11.25 -28.0 11.55 -28.65 11.55 -27.4 M0.3 -4.1 L0.75 -3.75 0.9 -4.1 0.3 -4.1 M7.15 -11.2 Q6.75 -11.2 6.75 -12.0 6.75 -13.55 11.7 -16.75 16.5 -19.85 23.1 -22.6 39.85 -29.65 44.75 -25.85 37.45 -22.7 30.7 -20.05 17.4 -14.75 14.25 -14.75 8.75 -11.75 7.5 -11.35 L7.15 -11.2 M85.0 -60.65 Q84.45 -60.25 84.0 -60.25 82.9 -60.25 82.25 -61.65 81.9 -62.35 81.8 -63.1 L81.85 -63.85 82.05 -64.25 Q83.45 -65.0 84.7 -63.9 85.75 -62.95 85.75 -61.9 85.75 -61.15 85.0 -60.65 M107.9 34.7 Q107.75 35.0 107.0 35.0 102.95 35.0 101.0 31.8 99.75 29.75 99.75 27.85 L99.8 26.55 100.75 26.5 Q100.95 27.05 104.1 30.05 L108.0 34.05 107.9 34.7 M62.5 23.0 Q60.85 23.0 60.5 21.25 L60.5 19.85 Q60.5 16.9 62.5 16.9 64.5 16.9 64.5 19.85 64.5 23.0 62.5 23.0 M59.5 36.5 Q59.5 37.7 60.8 38.55 62.25 39.5 64.5 39.5 65.45 39.5 66.05 40.35 L66.5 41.35 Q66.5 42.05 65.9 42.9 65.15 43.95 63.8 44.55 65.45 46.2 67.25 47.25 68.3 47.85 68.3 48.5 68.3 49.5 67.55 50.25 66.85 51.0 66.0 51.0 62.25 51.0 60.05 48.0 58.55 45.95 58.55 44.55 58.55 42.6 59.75 41.25 58.85 41.1 57.95 39.9 L57.25 38.6 Q57.25 36.35 58.0 34.9 59.3 32.4 62.5 33.3 L63.25 34.05 62.75 34.1 61.5 34.0 Q60.35 34.0 59.8 35.2 59.5 35.85 59.5 36.5 M26.55 32.25 Q25.3 33.3 24.5 33.3 23.25 33.3 22.8 32.3 L22.55 31.25 Q22.55 28.85 25.2 28.65 27.8 28.45 27.8 30.5 27.8 31.2 26.55 32.25 M8.55 93.5 Q7.8 94.75 7.0 94.75 5.7 94.75 5.25 93.45 L5.05 92.0 Q5.05 89.45 7.2 89.2 9.3 88.95 9.3 91.0 9.3 92.25 8.55 93.5 M-83.5 -2.6 L-84.5 -2.75 -85.25 -3.25 -85.35 -4.75 Q-85.35 -6.2 -84.1 -8.5 -82.35 -11.75 -79.5 -11.75 L-77.5 -11.15 Q-76.1 -10.6 -75.5 -10.6 -74.3 -10.6 -71.55 -12.9 -69.2 -14.9 -66.85 -13.75 -66.75 -14.4 -66.75 -13.15 -66.75 -12.3 -71.15 -10.25 -75.9 -8.0 -79.35 -8.0 -80.45 -8.0 -81.3 -5.3 -82.15 -2.6 -83.5 -2.6 M-44.05 -52.4 Q-41.25 -52.15 -41.25 -49.75 -41.2 -48.95 -41.6 -48.25 -42.4 -46.85 -44.5 -46.85 -45.85 -46.85 -46.5 -48.25 L-46.85 -49.75 Q-46.85 -52.7 -44.05 -52.4 M-1.9 -26.25 L-0.75 -20.55 Q-0.75 -19.7 -1.25 -18.9 -1.8 -18.0 -2.5 -18.0 -4.25 -18.0 -4.9 -20.35 L-5.35 -23.25 -5.9 -22.3 Q-6.1 -21.85 -7.5 -21.85 -9.45 -21.85 -11.1 -23.75 -12.5 -25.25 -12.5 -26.0 -12.5 -27.3 -10.6 -33.9 -8.65 -40.75 -8.6 -41.35 -8.35 -43.9 -6.85 -44.8 -5.0 -45.85 -3.0 -42.5 -2.4 -40.95 -2.65 -38.55 L-3.1 -34.8 Q-3.1 -31.55 -1.9 -26.25 M-13.75 -1.0 L-18.8 -0.1 Q-20.5 0.35 -20.5 1.05 -20.5 3.45 -30.35 5.95 L-44.5 9.3 -45.75 8.75 Q-44.0 5.4 -30.7 1.45 -17.75 -2.4 -13.75 -1.35 L-13.75 -1.0 M-30.1 24.25 L-30.75 24.4 -32.0 24.55 Q-33.8 24.55 -34.85 23.25 -35.6 22.4 -35.6 21.85 -35.6 20.25 -32.7 20.85 -29.85 21.4 -29.85 22.85 -29.85 24.1 -30.1 24.25 M-53.45 88.05 Q-51.0 91.4 -51.0 92.0 -51.0 92.8 -51.4 93.5 -51.9 94.5 -53.0 94.5 -57.0 94.5 -58.15 89.5 L-58.5 84.0 Q-58.5 82.15 -57.25 81.8 -56.25 84.1 -53.45 88.05 M-25.25 78.55 Q-27.0 78.55 -27.25 76.1 -27.25 73.45 -24.4 72.05 -21.6 70.65 -21.6 74.35 -21.6 75.8 -25.25 78.55" fill="#990000" fill-rule="evenodd" stroke="none"/>
  </g>
</svg>
