<?xml version="1.0" encoding="UTF-8" standalone="no"?>
<svg xmlns:ffdec="https://www.free-decompiler.com/flash" xmlns:xlink="http://www.w3.org/1999/xlink" ffdec:objectType="shape" height="174.3px" width="215.05px" xmlns="http://www.w3.org/2000/svg">
  <g transform="matrix(1.0, 0.0, 0.0, 1.0, 92.25, 70.8)">
    <path d="M8.0 -65.75 Q7.3 -65.0 6.5 -65.0 4.4 -65.0 3.75 -66.5 3.45 -67.25 3.55 -68.0 3.55 -71.2 6.15 -70.75 8.75 -70.35 8.75 -67.4 8.75 -66.5 8.0 -65.75 M11.25 -22.55 L7.0 -12.25 6.85 -11.85 7.5 -12.3 Q15.75 -17.7 15.75 -13.5 15.75 -12.8 9.8 -6.75 3.8 -0.6 3.0 -0.6 L2.55 -0.9 -0.95 13.8 Q-5.6 32.9 -6.5 38.5 L-7.35 38.55 Q-7.75 36.7 -7.25 33.0 L-9.75 41.0 Q-11.6 46.55 -13.5 50.0 L-14.1 49.75 Q-10.95 39.75 -6.4 23.15 L0.9 -2.65 0.8 -2.75 0.75 -2.8 0.5 -3.05 -0.75 -4.65 -0.3 -5.8 -19.85 -14.6 Q-41.1 -24.4 -41.1 -26.5 L-41.05 -27.2 -40.85 -27.5 Q-33.55 -24.55 -18.35 -16.95 -6.0 -10.75 0.3 -7.1 1.05 -11.6 4.0 -22.35 8.05 -37.1 8.75 -25.35 10.15 -25.1 10.8 -24.1 L11.25 -22.55 M1.5 -2.0 L1.5 -1.6 1.6 -1.9 1.5 -2.0 M7.05 -1.6 Q9.2 -1.65 11.1 0.35 L12.75 2.3 Q13.4 2.3 13.4 1.8 13.4 1.3 14.0 1.3 14.1 1.3 20.4 5.95 L29.55 12.8 29.55 14.0 29.4 14.3 28.5 14.55 Q25.1 14.55 15.8 7.55 7.0 0.85 7.0 -0.4 L7.05 -1.6 M32.8 -22.5 L32.65 -22.6 Q32.5 -22.75 32.5 -23.5 32.5 -25.85 37.95 -26.9 L52.0 -28.5 62.7 -27.9 Q63.85 -27.65 64.55 -26.6 L64.3 -25.7 Q64.05 -25.35 63.25 -25.35 L59.9 -25.75 52.0 -26.5 49.5 -26.5 51.1 -26.15 52.55 -25.6 52.5 -25.0 46.1 -23.5 Q40.45 -22.35 36.0 -22.35 L32.8 -22.5 M57.55 -46.75 Q56.95 -45.85 56.0 -45.85 54.6 -45.85 53.55 -47.6 L52.8 -49.1 Q52.8 -50.7 55.45 -51.3 58.05 -51.85 58.05 -48.25 58.05 -47.45 57.55 -46.75 M121.8 44.55 L119.75 45.0 Q118.35 45.0 117.3 43.55 L116.5 42.1 Q116.5 36.1 119.65 38.9 121.25 40.3 122.8 43.0 122.8 44.05 121.8 44.55 M82.05 30.5 Q81.25 31.75 80.5 31.75 79.2 31.75 78.75 30.45 L78.55 29.0 Q78.55 26.4 80.7 26.15 82.8 25.9 82.8 28.15 82.8 29.25 82.05 30.5 M64.05 33.75 L63.75 32.6 Q63.75 32.2 64.05 31.55 64.4 30.7 65.0 30.3 L65.9 31.9 66.75 33.35 66.55 34.0 66.4 34.5 65.5 34.75 Q64.55 34.75 64.05 33.75 M12.5 61.55 L12.75 62.85 12.5 65.05 12.15 65.4 11.0 65.75 9.95 65.55 9.3 65.05 9.25 63.75 Q9.25 62.45 9.55 61.85 10.05 60.8 11.5 60.75 12.3 61.2 12.5 61.55 M73.75 54.5 Q72.6 56.25 71.5 56.25 69.75 56.25 68.25 54.5 67.05 53.1 67.05 52.6 67.05 51.05 70.9 49.95 74.75 48.85 74.75 52.15 74.75 52.95 73.75 54.5 M-88.45 -0.3 L-88.25 0.6 Q-88.25 2.0 -89.05 3.6 -90.2 5.8 -92.25 6.8 L-91.15 2.4 Q-90.5 -0.1 -88.85 -0.6 L-88.45 -0.3 M-7.2 -52.4 L-7.1 -51.5 Q-7.1 -51.0 -7.9 -49.1 -8.75 -47.2 -8.75 -46.05 -8.75 -45.1 -10.1 -43.7 -11.85 -41.95 -12.25 -41.1 L-12.25 -41.0 Q-9.5 -42.4 -8.75 -44.1 L-8.35 -44.1 Q-8.9 -42.7 -10.75 -40.5 -12.75 -38.2 -14.5 -37.1 -15.55 -37.4 -15.75 -38.1 L-15.85 -39.25 Q-15.85 -40.7 -15.2 -41.9 L-13.5 -44.85 -13.5 -45.25 -14.5 -44.85 Q-15.3 -44.5 -16.0 -44.5 L-17.05 -44.65 -17.75 -45.1 -17.85 -45.55 -18.0 -46.6 Q-18.0 -50.8 -13.5 -52.15 L-7.35 -52.6 -7.2 -52.4 M-57.1 -55.1 Q-57.8 -54.1 -59.0 -54.1 -60.75 -54.1 -61.25 -55.45 L-61.35 -56.4 Q-61.35 -59.4 -58.95 -58.95 -56.6 -58.55 -56.6 -56.4 -56.6 -55.8 -57.1 -55.1 M-33.5 30.3 Q-35.6 30.3 -36.25 29.0 L-36.35 28.35 Q-36.35 27.55 -35.7 27.5 L-34.1 27.55 -31.85 27.8 -31.7 28.1 -31.6 29.0 -31.7 29.7 -31.85 30.05 -32.35 30.2 -33.5 30.3 M-55.25 16.0 Q-56.8 16.75 -60.25 18.95 -62.8 20.55 -63.5 20.55 L-64.75 20.3 -65.0 20.2 -65.1 19.35 Q-61.4 16.75 -57.2 14.4 -48.75 9.75 -46.1 11.3 -46.9 12.25 -50.35 13.8 L-55.25 16.0 M-53.6 103.05 L-55.25 103.5 Q-56.65 103.5 -57.65 101.75 L-58.35 100.25 Q-58.35 96.7 -55.45 98.05 -52.6 99.4 -52.6 101.35 -52.6 102.5 -53.6 103.05" fill="#990000" fill-rule="evenodd" stroke="none"/>
  </g>
</svg>
