<?xml version="1.0" encoding="UTF-8" standalone="no"?>
<svg xmlns:ffdec="https://www.free-decompiler.com/flash" xmlns:xlink="http://www.w3.org/1999/xlink" ffdec:objectType="shape" height="137.3px" width="178.7px" xmlns="http://www.w3.org/2000/svg">
  <g transform="matrix(1.0, 0.0, 0.0, 1.0, 86.4, 68.55)">
    <path d="M38.0 -61.25 Q36.2 -61.25 35.8 -62.3 35.6 -62.85 35.75 -63.55 35.75 -65.2 38.4 -66.45 41.05 -67.7 41.05 -64.5 41.05 -63.75 40.25 -62.6 39.25 -61.25 38.0 -61.25 M11.75 -25.85 L6.3 -14.0 6.25 -13.35 12.5 -17.05 Q18.05 -20.25 19.5 -20.25 20.95 -20.25 21.5 -19.15 L21.75 -17.9 Q21.75 -17.05 6.5 -4.75 L6.3 -4.75 6.3 -4.5 6.3 -4.35 8.55 -3.1 8.3 -2.2 Q8.05 -1.85 7.25 -1.85 L5.3 -2.65 Q4.3 -1.1 4.3 -0.55 4.3 0.85 1.9 2.55 L-1.55 16.8 Q-5.6 33.0 -5.6 36.1 -5.6 37.75 -9.1 48.75 L-13.35 61.8 -14.0 62.25 -14.65 62.25 -14.75 61.5 Q-14.75 59.5 -7.6 33.05 L0.45 3.45 Q-1.35 4.45 -4.0 5.55 -11.6 8.75 -15.0 8.75 -15.5 8.75 -16.0 8.2 L-16.1 8.05 -17.4 8.8 Q-26.8 14.3 -29.5 14.3 -31.75 14.3 -31.75 12.4 -31.75 11.75 -28.25 9.1 -24.55 6.2 -20.15 3.65 -17.4 2.05 -15.05 0.95 L-7.65 -4.25 -3.6 -6.55 Q-9.5 -9.25 -11.85 -10.75 L-24.1 -18.45 Q-29.75 -21.65 -29.75 -19.5 L-30.0 -19.25 Q-31.7 -19.4 -34.15 -20.75 L-38.75 -23.35 -38.75 -24.1 -37.5 -23.9 -36.75 -23.5 -35.35 -23.5 Q-36.6 -24.6 -43.25 -29.0 -49.45 -33.05 -50.75 -34.5 L-50.75 -34.6 Q-43.5 -27.9 -21.45 -17.6 L-0.85 -7.85 0.8 -8.4 0.75 -8.5 Q0.6 -9.15 0.75 -9.9 0.75 -20.9 8.5 -33.2 11.45 -37.9 13.85 -39.75 16.25 -41.65 16.25 -39.1 16.25 -35.5 11.75 -25.85 M5.75 -8.75 L4.85 -8.2 5.2 -7.95 5.75 -8.75 M74.8 -28.35 Q75.05 -28.85 75.05 -27.6 L74.6 -26.6 Q74.1 -26.05 74.05 -24.75 L72.0 -24.35 63.2 -25.35 55.3 -26.5 55.15 -26.6 Q55.0 -26.75 55.0 -27.5 55.0 -28.4 56.0 -28.5 L66.5 -28.6 74.8 -28.35 M91.6 7.8 Q90.65 9.0 89.0 9.0 86.95 9.0 86.25 7.25 L86.0 5.85 Q86.0 2.85 89.15 2.95 92.3 3.0 92.3 5.9 92.3 6.9 91.6 7.8 M43.8 22.05 L46.55 24.8 Q46.5 25.25 44.75 25.25 L45.4 26.95 Q45.8 28.0 45.8 28.75 45.8 29.75 45.3 30.5 44.8 31.25 44.0 31.25 42.15 31.25 38.8 25.9 35.8 21.1 35.8 20.4 35.8 19.6 36.15 19.35 L37.0 19.05 38.1 20.25 39.05 21.05 Q39.7 21.05 40.05 20.55 40.4 20.05 41.0 20.05 41.8 20.05 43.8 22.05 M36.25 0.9 Q36.25 -0.65 38.3 -0.65 40.3 -0.65 40.3 1.0 L39.75 2.3 Q39.05 3.35 38.0 3.5 36.25 1.9 36.25 0.9 M5.5 57.0 L2.0 57.5 Q0.05 57.5 0.0 55.35 0.0 52.8 3.4 52.75 6.75 52.7 6.75 55.0 6.75 56.45 5.5 57.0 M77.25 65.5 Q76.75 66.4 76.75 67.0 76.75 68.15 74.5 68.75 73.2 68.75 72.75 67.55 L72.55 66.25 Q72.55 65.55 72.95 64.5 L73.3 63.0 Q73.3 60.15 75.55 61.25 77.75 62.3 77.75 64.0 77.75 64.65 77.25 65.5 M53.35 54.05 Q52.6 54.8 51.5 54.8 49.75 54.8 49.25 53.7 L49.05 52.5 Q49.05 50.1 51.55 50.4 54.05 50.65 54.05 52.35 54.05 53.35 53.35 54.05 M-20.35 -67.25 Q-13.25 -70.0 -13.25 -67.0 -13.25 -66.4 -13.85 -65.7 -14.75 -64.75 -16.35 -64.75 L-15.5 -63.6 Q-16.75 -62.35 -18.75 -61.35 L-20.5 -60.6 Q-18.75 -60.3 -16.85 -60.6 -17.9 -59.8 -21.6 -59.1 L-25.25 -58.6 Q-26.6 -58.6 -27.5 -61.5 -27.5 -64.55 -20.35 -67.25 M-35.0 -23.1 L-34.0 -22.6 -33.35 -22.5 Q-33.95 -23.1 -35.0 -23.1 M-33.5 -21.5 L-32.6 -21.0 -31.85 -20.85 Q-32.9 -21.5 -33.5 -21.5 M-69.2 24.1 L-69.1 25.0 -72.0 28.05 Q-75.4 31.25 -78.0 32.55 L-78.85 32.35 -79.1 31.35 Q-73.55 23.65 -69.35 23.8 L-69.2 24.1 M-81.75 2.05 Q-82.45 2.8 -83.75 2.8 -85.75 2.8 -86.25 1.7 -86.5 1.15 -86.35 0.5 -86.35 -1.65 -83.7 -1.8 -81.1 -1.95 -81.1 0.35 -81.1 1.4 -81.75 2.05" fill="#990000" fill-rule="evenodd" stroke="none"/>
  </g>
</svg>
