<?xml version="1.0" encoding="UTF-8" standalone="no"?>
<svg xmlns:ffdec="https://www.free-decompiler.com/flash" xmlns:xlink="http://www.w3.org/1999/xlink" ffdec:objectType="shape" height="162.65px" width="176.05px" xmlns="http://www.w3.org/2000/svg">
  <g transform="matrix(1.0, 0.0, 0.0, 1.0, 90.75, 83.65)">
    <path d="M8.3 -62.75 L8.0 -62.55 7.0 -62.35 Q5.95 -62.35 5.5 -63.35 L5.3 -64.1 Q5.3 -65.7 6.95 -65.85 8.55 -66.0 8.55 -64.05 L8.5 -63.2 8.3 -62.75 M31.55 -63.6 Q31.55 -62.55 30.05 -59.55 28.55 -56.6 28.55 -54.05 28.55 -52.1 27.05 -50.6 L23.7 -48.15 Q18.8 -44.95 18.8 -40.55 12.4 -32.55 8.05 -30.0 L7.7 -30.1 Q7.55 -30.15 7.55 -30.9 7.55 -33.4 11.3 -37.1 15.0 -40.8 15.0 -42.9 15.0 -45.1 19.95 -49.1 24.85 -53.15 24.8 -56.25 24.75 -57.6 25.65 -59.45 L27.3 -63.0 Q28.4 -65.95 30.0 -66.05 31.55 -66.1 31.55 -63.6 M15.7 -14.35 L12.0 -12.6 11.25 -12.6 Q11.05 -12.65 11.05 -13.4 11.05 -13.9 14.3 -16.5 17.75 -19.3 21.4 -21.5 31.75 -27.9 31.75 -22.75 31.75 -20.7 29.25 -17.85 26.15 -14.35 22.0 -14.35 21.8 -14.35 20.45 -15.1 L19.0 -15.85 Q18.6 -15.85 15.7 -14.35 M1.5 -1.35 Q0.7 -1.35 -0.05 -2.1 -7.95 4.05 -23.85 12.05 -25.75 13.05 -33.75 19.3 L-41.5 25.25 Q-42.75 25.25 -43.1 24.4 L-43.25 23.4 Q-43.25 22.65 -35.5 14.5 -27.45 6.0 -25.5 6.0 -24.85 6.0 -24.65 6.55 -24.45 7.05 -23.85 7.05 -20.35 5.05 -15.9 2.85 -7.25 -1.45 -0.45 -2.65 -2.05 -4.8 -3.25 -10.6 -4.2 -15.25 -4.6 -19.8 -4.6 -24.45 2.85 -16.75 10.25 -9.05 10.25 -5.5 10.25 -4.35 9.75 -3.6 9.15 -2.75 8.0 -2.75 7.5 -2.75 6.6 -3.4 L5.35 -4.25 Q6.3 -2.0 6.95 2.4 8.0 9.35 8.0 18.0 8.0 21.0 6.0 21.0 4.6 21.0 2.8 8.2 L1.65 -1.35 1.5 -1.35 M74.3 -24.85 Q76.45 -28.55 80.45 -26.8 83.8 -25.35 85.3 -22.5 L84.8 -21.65 Q84.5 -21.1 84.0 -21.1 L79.75 -21.85 Q75.45 -22.95 74.3 -24.85 M72.5 -45.5 Q71.45 -44.5 69.75 -44.5 67.1 -44.5 66.3 -46.2 65.9 -47.05 66.0 -48.05 66.0 -51.5 69.75 -51.5 73.5 -51.5 73.5 -48.1 73.5 -46.5 72.5 -45.5 M66.0 48.3 L64.75 48.75 Q63.1 48.75 60.5 46.05 58.05 43.55 57.5 41.8 59.8 39.95 63.4 42.5 66.75 44.9 66.75 47.0 66.75 47.8 66.0 48.3 M7.75 77.55 Q6.25 79.0 4.5 79.0 1.7 79.0 0.8 77.25 L0.5 75.35 Q0.5 72.4 4.9 71.4 9.25 70.35 9.25 74.6 9.25 76.15 7.75 77.55 M76.9 73.1 Q76.25 74.5 76.25 75.05 L77.0 75.0 Q77.95 74.85 78.5 75.0 L78.65 75.2 78.75 76.1 78.3 77.55 Q77.65 78.55 76.5 78.55 75.9 78.55 75.3 77.65 74.75 76.9 74.75 76.6 74.75 75.95 75.4 74.4 76.25 72.3 77.55 71.3 L76.9 73.1 M-15.35 -80.55 Q-15.35 -78.8 -15.6 -78.1 -16.0 -77.0 -17.25 -77.0 -18.7 -77.0 -20.0 -77.8 L-20.7 -78.35 -21.1 -77.85 Q-21.6 -77.1 -21.6 -76.15 -21.6 -75.05 -20.15 -73.25 -18.75 -71.45 -18.75 -69.25 -18.75 -66.75 -22.25 -66.75 -23.7 -66.75 -24.35 -67.25 L-25.0 -68.1 Q-24.1 -69.65 -22.5 -70.5 L-23.75 -72.8 Q-24.6 -74.15 -24.6 -75.0 -24.6 -77.35 -23.05 -79.1 -22.2 -80.1 -21.05 -80.2 L-20.75 -80.55 -18.75 -80.5 Q-17.2 -84.1 -16.2 -83.6 -15.35 -83.2 -15.35 -80.55 M-50.5 -25.85 L-49.8 -25.6 -49.6 -24.65 -49.75 -24.1 -49.95 -23.75 -51.0 -23.6 -52.1 -23.85 -52.2 -23.65 -52.35 -24.4 Q-52.35 -25.05 -51.65 -25.5 -51.0 -25.9 -50.5 -25.85 M-89.5 44.25 L-90.4 43.95 Q-90.75 43.65 -90.75 42.85 -90.75 41.3 -88.1 39.45 -85.5 37.55 -85.5 40.65 -85.5 42.55 -89.5 44.25 M-87.1 20.05 Q-87.6 19.1 -87.5 18.35 -87.5 14.8 -83.25 14.85 -79.0 14.9 -79.0 18.35 -79.0 22.0 -83.25 22.0 -86.1 22.0 -87.1 20.05" fill="#990000" fill-rule="evenodd" stroke="none"/>
  </g>
</svg>
