<?xml version="1.0" encoding="UTF-8" standalone="no"?>
<svg xmlns:ffdec="https://www.free-decompiler.com/flash" xmlns:xlink="http://www.w3.org/1999/xlink" ffdec:objectType="shape" height="150.75px" width="192.5px" xmlns="http://www.w3.org/2000/svg">
  <g transform="matrix(1.0, 0.0, 0.0, 1.0, 97.5, 84.75)">
    <path d="M41.65 -63.8 Q33.85 -62.15 33.05 -61.5 31.65 -58.75 28.45 -56.15 L23.55 -51.85 23.55 -51.6 26.55 -52.1 Q23.8 -50.5 23.0 -50.35 L22.0 -50.55 Q21.55 -50.75 21.55 -51.55 21.55 -53.0 27.5 -58.5 29.65 -58.9 29.95 -61.25 30.3 -63.8 31.8 -64.35 L37.45 -65.9 Q39.8 -66.4 42.25 -67.75 45.4 -69.5 46.65 -69.55 48.05 -69.65 48.05 -67.8 48.05 -65.2 41.65 -63.8 M1.55 -9.4 L18.0 -5.85 Q32.7 -2.45 39.05 -0.25 L39.5 0.5 37.8 1.45 36.5 2.05 32.05 1.15 27.75 0.25 Q27.05 0.25 25.25 2.05 26.65 2.4 27.55 3.25 28.5 4.1 28.5 5.0 28.5 5.95 27.75 6.5 27.1 7.0 26.25 7.0 23.4 7.0 11.5 2.5 -0.1 -1.85 -0.1 -2.6 L0.05 -2.9 -4.5 -2.75 Q-15.7 -3.2 -17.5 -2.85 L-18.45 -4.4 -19.0 -5.9 Q-19.0 -6.95 -16.6 -7.3 L-7.5 -7.6 -0.65 -7.9 -0.85 -9.05 -0.6 -9.85 0.05 -9.7 -4.7 -16.35 Q-8.85 -22.25 -9.2 -23.95 L-10.5 -23.75 -13.5 -24.75 Q-16.45 -25.75 -17.75 -25.75 -20.1 -25.75 -20.9 -27.15 L-21.25 -28.6 Q-21.25 -34.4 -15.8 -31.95 -11.55 -30.0 -8.95 -26.25 -8.55 -27.4 -7.55 -27.25 -6.05 -27.0 -3.85 -24.15 1.55 -17.15 1.55 -9.85 L1.55 -9.4 M39.15 -23.9 L39.3 -23.0 39.0 -21.85 38.3 -21.1 Q39.55 -19.2 41.8 -17.95 43.55 -16.95 43.55 -16.4 43.55 -15.55 42.75 -15.1 42.15 -14.75 41.5 -14.75 40.15 -14.75 37.8 -16.75 35.3 -18.8 34.8 -20.5 33.05 -20.0 30.6 -18.75 28.6 -17.75 27.75 -17.75 L26.75 -17.8 25.8 -18.0 25.65 -18.1 Q25.5 -18.25 25.5 -19.0 L30.55 -21.85 Q36.15 -24.6 38.75 -24.1 38.9 -23.9 39.15 -23.9 M60.75 -31.85 Q60.15 -31.1 59.0 -31.1 56.25 -31.1 56.25 -33.55 56.25 -35.7 58.8 -35.8 61.3 -35.95 61.3 -33.55 61.3 -32.5 60.75 -31.85 M1.75 -49.5 Q0.7 -48.75 -0.5 -48.75 -2.4 -48.75 -3.25 -50.25 -3.75 -51.05 -3.75 -51.9 -3.75 -55.5 -0.35 -55.25 3.05 -54.95 3.05 -51.9 3.05 -50.4 1.75 -49.5 M94.3 -17.8 Q93.85 -17.25 93.0 -17.25 92.7 -17.25 91.65 -17.8 90.5 -18.4 90.25 -19.0 L90.3 -20.5 Q93.3 -20.5 95.0 -19.0 L94.3 -17.8 M85.65 64.25 Q85.5 64.45 85.5 64.75 L85.4 64.9 84.5 65.05 Q83.4 65.05 81.85 63.2 80.65 61.85 80.3 61.05 82.05 59.8 84.05 61.2 85.75 62.45 85.75 63.35 L85.65 64.25 M7.75 14.8 L9.95 22.6 Q11.05 27.2 11.05 30.55 11.05 32.2 10.5 34.75 9.7 38.25 8.5 38.25 7.15 38.25 6.55 35.0 L6.25 31.75 Q6.25 26.35 6.5 23.15 6.8 18.4 7.75 14.8 M47.05 59.8 Q46.2 60.8 44.75 60.8 42.8 60.8 42.0 59.5 41.55 58.8 41.55 57.9 41.55 55.0 44.7 55.0 47.8 55.0 47.8 57.9 47.8 58.95 47.05 59.8 M-9.1 -81.0 L-9.4 -80.2 Q-9.7 -79.75 -10.5 -79.75 -11.45 -79.75 -12.6 -80.7 L-14.35 -82.25 -15.55 -80.55 Q-16.25 -79.5 -17.5 -79.5 -19.0 -79.5 -19.6 -80.35 -13.2 -88.8 -9.1 -81.0 M-49.6 -38.9 Q-50.75 -37.5 -52.5 -37.5 -54.75 -37.5 -55.6 -39.2 -56.0 -40.05 -56.0 -41.05 -56.0 -44.5 -52.3 -44.75 -48.6 -45.05 -48.6 -41.5 -48.6 -40.1 -49.6 -38.9 M-30.2 14.85 Q-35.95 19.85 -38.1 22.3 -40.15 24.6 -41.45 28.85 -43.3 34.8 -44.5 37.3 L-45.35 37.5 -45.65 37.1 -45.75 36.1 -44.85 34.65 -44.0 33.3 -44.1 31.8 -44.25 31.55 -45.15 32.35 Q-45.7 32.8 -46.5 32.8 -47.85 32.8 -48.25 31.5 L-48.35 30.1 Q-48.35 26.05 -38.05 18.15 -34.85 15.65 -22.35 7.3 -24.65 10.05 -30.2 14.85 M-68.5 9.5 Q-68.75 10.2 -69.5 10.5 L-69.85 10.3 -70.5 9.8 -69.65 8.95 -68.85 8.75 -68.5 9.5 M-27.5 65.0 Q-28.5 66.0 -30.25 66.0 -32.75 66.0 -33.65 64.05 L-34.0 62.35 Q-34.0 58.95 -30.25 58.95 -26.5 58.95 -26.5 62.35 -26.5 64.0 -27.5 65.0 M-94.85 49.7 L-94.75 50.6 -94.85 51.75 -96.0 52.25 -97.2 52.0 Q-97.5 51.85 -97.5 51.0 -97.5 50.15 -96.9 49.6 L-95.0 49.5 -94.85 49.7" fill="#990000" fill-rule="evenodd" stroke="none"/>
  </g>
</svg>
