<?xml version="1.0" encoding="UTF-8" standalone="no"?>
<svg xmlns:ffdec="https://www.free-decompiler.com/flash" xmlns:xlink="http://www.w3.org/1999/xlink" ffdec:objectType="shape" height="141.15px" width="170.9px" xmlns="http://www.w3.org/2000/svg">
  <g transform="matrix(1.0, 0.0, 0.0, 1.0, 74.1, 82.35)">
    <path d="M57.9 -69.2 L57.55 -68.35 56.75 -69.0 Q56.25 -68.55 54.7 -67.8 53.05 -67.0 52.5 -67.0 51.25 -67.0 50.05 -68.15 L49.0 -69.35 Q42.25 -65.35 39.0 -63.85 L38.55 -64.05 Q38.25 -64.3 38.25 -65.05 38.25 -65.8 41.2 -67.7 L45.3 -70.35 Q48.95 -73.55 50.5 -72.3 L51.55 -71.0 Q52.15 -70.25 52.75 -70.25 53.45 -70.25 54.6 -71.05 55.85 -71.9 56.5 -72.0 L58.25 -70.4 Q58.25 -69.7 57.9 -69.2 M21.5 -37.55 Q21.5 -41.0 25.0 -41.0 28.5 -41.0 28.5 -37.6 28.5 -36.45 27.75 -35.4 26.75 -34.0 25.0 -34.0 22.6 -34.0 21.8 -35.7 21.4 -36.55 21.5 -37.55 M7.2 -18.4 Q6.1 -16.7 4.5 -15.5 L4.0 -15.6 4.0 -16.5 Q4.0 -17.1 3.4 -18.35 2.8 -19.6 2.8 -20.25 2.8 -22.55 5.45 -23.0 8.05 -23.4 8.05 -20.25 8.05 -19.7 7.2 -18.4 M39.5 -18.25 Q42.6 -18.25 43.25 -19.5 43.9 -20.75 45.0 -20.75 46.4 -20.75 47.25 -19.9 48.05 -19.1 50.25 -19.1 52.25 -19.1 52.55 -17.45 L52.5 -15.65 Q52.5 -15.1 53.25 -14.35 L54.0 -13.4 Q54.0 -12.4 51.5 -11.0 49.25 -9.75 48.5 -9.75 45.35 -9.75 38.0 -14.5 30.8 -19.2 30.8 -20.9 L31.0 -21.85 Q33.1 -21.85 35.7 -20.05 38.35 -18.25 39.5 -18.25 M30.8 -2.85 Q51.55 1.1 51.55 3.85 L51.5 4.75 51.3 5.25 49.75 5.55 Q45.2 5.55 29.5 1.6 L7.55 -4.25 Q9.95 -6.8 30.8 -2.85 M92.25 -36.6 Q92.25 -39.5 94.55 -39.6 96.8 -39.75 96.8 -36.9 96.8 -36.1 96.3 -35.6 95.75 -35.1 95.0 -35.1 L92.3 -35.5 92.25 -36.6 M94.05 -5.9 Q94.05 -4.45 93.0 -3.5 92.0 -2.6 90.75 -2.6 88.8 -2.6 88.0 -4.0 L87.55 -5.5 Q87.55 -8.35 90.8 -8.55 94.05 -8.8 94.05 -5.9 M27.7 7.2 L26.85 7.3 Q23.55 7.3 19.75 4.75 16.25 2.35 16.25 0.9 16.25 -3.2 22.95 0.95 L23.9 1.55 28.6 3.05 Q38.05 6.25 38.05 8.35 38.05 9.45 37.3 10.05 36.7 10.55 36.0 10.55 33.85 10.55 27.7 7.2 M12.5 49.4 L12.5 52.5 Q12.05 55.3 10.0 55.3 7.9 55.3 7.5 52.5 L7.5 49.4 Q7.5 43.6 10.0 43.6 12.5 43.6 12.5 49.4 M34.75 38.05 Q34.1 39.0 33.0 39.0 31.35 39.0 30.8 37.8 30.55 37.25 30.55 36.4 30.55 34.45 32.95 34.15 35.3 33.85 35.3 36.35 35.3 37.25 34.75 38.05 M1.05 54.35 Q1.05 56.0 -1.65 57.55 -3.85 58.8 -5.0 58.8 -7.85 58.8 -7.85 55.9 -7.85 53.35 -6.1 53.3 L-2.25 53.75 -0.75 53.4 0.75 53.05 0.9 53.4 1.05 54.35 M-9.85 -81.45 L-9.5 -79.5 -9.5 -74.6 -10.5 -74.0 Q-11.55 -74.95 -11.5 -77.95 -11.4 -81.0 -12.35 -82.1 L-12.0 -82.35 Q-10.15 -82.2 -9.85 -81.45 M-67.25 -5.1 Q-68.15 -3.85 -69.5 -3.85 -71.85 -3.85 -73.25 -6.35 L-74.1 -8.4 Q-74.1 -12.1 -70.3 -11.75 -66.5 -11.4 -66.5 -7.0 -66.5 -6.15 -67.25 -5.1 M-6.6 -27.1 L-7.25 -25.6 Q-10.25 -26.65 -21.05 -29.15 -28.5 -30.85 -32.25 -33.6 L-34.2 -33.05 -36.0 -32.75 Q-37.65 -32.75 -38.1 -34.1 L-38.25 -35.05 Q-38.25 -38.65 -31.1 -37.7 -24.3 -36.75 -22.5 -34.5 -20.1 -31.45 -14.4 -30.2 -8.35 -28.85 -6.6 -27.1 M-23.25 -4.5 L-19.1 -3.1 -18.6 -3.25 -22.85 -5.15 Q-26.6 -7.0 -26.6 -8.0 -26.6 -9.85 -21.0 -8.5 -11.5 -6.2 -7.75 -5.85 L-10.75 -5.75 -17.6 -6.35 -21.35 -7.1 -14.8 -4.5 Q-13.0 -3.5 -13.0 -1.5 -13.0 -0.65 -13.5 -0.35 L-16.75 0.0 -20.0 -0.55 -22.85 -1.25 Q-23.1 -0.45 -23.85 0.65 -24.75 1.95 -25.5 2.25 L-26.4 1.95 Q-26.75 1.65 -26.75 0.85 -26.75 -0.9 -25.95 -2.5 -25.0 -4.5 -23.25 -4.5 M-40.15 24.1 Q-45.25 29.45 -45.25 30.0 L-44.55 32.05 Q-43.85 33.55 -43.85 34.0 -43.85 34.45 -46.95 39.35 -50.1 44.25 -50.1 45.35 L-49.15 46.9 Q-48.25 48.1 -48.25 48.55 -48.25 49.8 -49.4 50.8 -50.55 51.8 -52.0 51.8 -53.6 51.8 -54.25 50.5 -54.6 49.8 -54.6 48.9 -54.6 45.25 -51.2 39.75 -47.85 34.2 -47.85 31.35 -47.85 27.95 -43.85 23.95 -39.85 19.85 -34.35 17.8 L-40.15 24.1" fill="#990000" fill-rule="evenodd" stroke="none"/>
  </g>
</svg>
