<?xml version="1.0" encoding="UTF-8" standalone="no"?>
<svg xmlns:ffdec="https://www.free-decompiler.com/flash" xmlns:xlink="http://www.w3.org/1999/xlink" ffdec:objectType="shape" height="30.5px" width="61.05px" xmlns="http://www.w3.org/2000/svg">
  <g transform="matrix(1.0, 0.0, 0.0, 1.0, 30.55, 15.25)">
    <path d="M-30.55 9.45 Q-25.35 2.2 -18.15 -3.25 -11.25 -8.45 -3.3 -11.4 2.95 -13.8 9.55 -14.75 L14.95 -15.25 13.7 -12.95 0.35 -3.4 30.5 3.75 2.95 13.2 -4.4 15.25 -11.4 14.35 -12.9 8.4 -18.0 12.95 -23.45 11.5 -30.55 9.45 M-2.4 -9.1 Q-9.95 -6.1 -16.4 -1.0 -21.45 2.95 -25.35 7.75 L-18.45 9.85 -11.6 2.8 -9.35 11.7 -3.95 12.5 20.9 4.3 -6.8 -1.65 6.65 -11.85 Q2.0 -10.85 -2.4 -9.1" fill="#000000" fill-rule="evenodd" stroke="none"/>
    <path d="M-2.4 -9.1 Q2.0 -10.85 6.65 -11.85 L-6.8 -1.65 20.9 4.3 -3.95 12.5 -9.35 11.7 -11.6 2.8 -18.45 9.85 -25.35 7.75 Q-21.45 2.95 -16.4 -1.0 -9.95 -6.1 -2.4 -9.1" fill="#ffffff" fill-rule="evenodd" stroke="none"/>
  </g>
</svg>
