<?xml version="1.0" encoding="UTF-8" standalone="no"?>
<svg xmlns:ffdec="https://www.free-decompiler.com/flash" xmlns:xlink="http://www.w3.org/1999/xlink" ffdec:objectType="shape" height="50.4px" width="87.7px" xmlns="http://www.w3.org/2000/svg">
  <g transform="matrix(1.0, 0.0, 0.0, 1.0, 43.85, 25.2)">
    <path d="M26.6 -25.05 L29.4 -24.95 Q31.95 -23.95 33.4 -22.3 36.65 -18.4 35.15 -13.1 34.8 -12.25 33.9 -11.7 33.55 -11.45 32.85 -11.35 L30.5 -11.15 28.7 -10.85 26.95 -10.5 Q20.9 -8.9 15.2 -4.9 12.3 -2.7 9.8 -0.2 L14.5 2.45 Q16.65 -0.15 19.95 -2.65 24.45 -6.05 29.9 -8.6 33.3 -10.15 36.05 -11.05 L37.75 -11.55 40.05 -11.7 Q41.4 -11.5 42.3 -10.0 L43.15 -8.2 Q43.9 -6.4 43.85 -4.3 43.85 -2.4 43.25 -0.55 43.0 0.65 41.85 1.5 40.7 2.35 39.45 2.2 L36.3 1.9 Q30.7 1.6 25.7 3.65 22.75 4.8 20.15 6.5 26.75 11.75 31.55 18.65 11.85 24.0 -8.15 25.0 -24.5 25.8 -42.85 23.65 L-41.0 21.1 -16.15 12.9 -43.85 6.95 -30.4 -3.25 -24.55 -6.5 -18.25 -6.8 -9.0 -6.15 Q-3.1 -5.3 2.6 -3.3 5.1 -7.6 7.6 -10.7 12.25 -16.4 17.6 -20.25 21.0 -22.7 24.45 -24.25 L26.6 -25.05 M4.25 -2.65 L3.2 -1.1 2.9 -0.5 2.2 0.6 Q1.6 1.55 1.7 1.75 1.7 2.55 2.65 3.2 L4.45 3.45 4.7 3.3 4.8 3.25 5.3 2.5 6.45 1.05 6.5 0.9 8.15 -1.0 Q10.8 -4.05 13.95 -6.6 19.75 -11.1 26.3 -13.05 L28.2 -13.45 30.15 -13.85 32.5 -14.1 32.55 -14.1 32.6 -14.2 32.8 -14.1 32.65 -17.4 Q32.35 -19.35 31.25 -20.4 30.25 -21.55 28.4 -22.3 27.35 -22.6 25.55 -21.7 22.35 -20.3 19.05 -18.1 13.85 -14.5 9.25 -9.3 6.8 -6.5 4.25 -2.65 M0.85 -0.25 L1.35 -1.1 Q-7.95 -4.5 -18.25 -4.6 L-23.35 -4.35 -36.7 5.2 -6.55 12.35 -34.1 21.8 -19.7 22.35 Q-2.1 22.35 13.45 19.3 20.2 18.05 25.8 16.25 22.25 11.8 17.75 8.2 L17.15 8.7 15.7 9.75 Q14.3 10.1 13.0 9.15 12.45 8.75 12.15 8.15 11.7 7.4 11.85 6.55 12.1 5.7 12.6 4.95 L12.85 4.65 Q10.45 3.05 7.95 1.8 L7.8 1.95 6.6 3.45 6.1 4.1 5.5 4.6 5.05 4.85 3.2 5.0 1.9 4.5 0.85 3.55 Q0.2 2.75 0.2 1.8 0.3 0.7 0.85 -0.25 M39.45 -8.95 L36.9 -8.4 Q34.2 -7.6 31.0 -6.2 25.8 -4.0 21.2 -0.9 18.1 1.2 16.0 3.4 L14.9 4.6 14.15 5.5 13.35 6.8 Q13.2 7.45 13.85 7.95 14.6 8.5 15.25 8.3 L16.0 7.6 16.45 7.2 17.35 6.4 18.7 5.35 Q21.5 3.2 24.85 1.7 30.25 -0.8 36.4 -0.7 L39.55 -0.5 Q39.95 -0.55 40.2 -0.7 40.5 -0.9 40.6 -1.35 41.55 -4.55 40.55 -7.2 L39.9 -8.55 39.45 -8.95" fill="#000000" fill-rule="evenodd" stroke="none"/>
    <path d="M0.85 -0.25 Q0.3 0.7 0.2 1.8 0.2 2.75 0.85 3.55 L1.9 4.5 3.2 5.0 5.05 4.85 5.5 4.6 6.1 4.1 6.6 3.45 7.8 1.95 7.95 1.8 Q10.45 3.05 12.85 4.65 L12.6 4.95 Q12.1 5.7 11.85 6.55 11.7 7.4 12.15 8.15 12.45 8.75 13.0 9.15 14.3 10.1 15.7 9.75 L17.15 8.7 17.75 8.2 Q22.25 11.8 25.8 16.25 20.2 18.05 13.45 19.3 -2.1 22.35 -19.7 22.35 L-34.1 21.8 -6.55 12.35 -36.7 5.2 -23.35 -4.35 -18.25 -4.6 Q-7.95 -4.5 1.35 -1.1 L0.85 -0.25" fill="#ffffff" fill-rule="evenodd" stroke="none"/>
    <path d="M4.25 -2.65 Q6.8 -6.5 9.25 -9.3 13.85 -14.5 19.05 -18.1 22.35 -20.3 25.55 -21.7 27.35 -22.6 28.4 -22.3 30.25 -21.55 31.25 -20.4 32.35 -19.35 32.65 -17.4 L32.8 -14.1 32.6 -14.2 32.55 -14.1 32.5 -14.1 30.15 -13.85 28.2 -13.45 26.3 -13.05 Q19.75 -11.1 13.95 -6.6 10.8 -4.05 8.15 -1.0 L6.5 0.9 6.45 1.05 5.3 2.5 4.8 3.25 4.7 3.3 4.45 3.45 2.65 3.2 Q1.7 2.55 1.7 1.75 1.6 1.55 2.2 0.6 L2.9 -0.5 3.2 -1.1 4.25 -2.65 M39.45 -8.95 L39.9 -8.55 40.55 -7.2 Q41.55 -4.55 40.6 -1.35 40.5 -0.9 40.2 -0.7 39.95 -0.55 39.55 -0.5 L36.4 -0.7 Q30.25 -0.8 24.85 1.7 21.5 3.2 18.7 5.35 L17.35 6.4 16.45 7.2 16.0 7.6 15.25 8.3 Q14.6 8.5 13.85 7.95 13.2 7.45 13.35 6.8 L14.15 5.5 14.9 4.6 16.0 3.4 Q18.1 1.2 21.2 -0.9 25.8 -4.0 31.0 -6.2 34.2 -7.6 36.9 -8.4 L39.45 -8.95" fill="#333333" fill-rule="evenodd" stroke="none"/>
  </g>
</svg>
