<?xml version="1.0" encoding="UTF-8" standalone="no"?>
<svg xmlns:ffdec="https://www.free-decompiler.com/flash" xmlns:xlink="http://www.w3.org/1999/xlink" ffdec:objectType="shape" height="50.8px" width="121.05px" xmlns="http://www.w3.org/2000/svg">
  <g transform="matrix(1.0, 0.0, 0.0, 1.0, 59.85, 6.05)">
    <path d="M56.65 -6.05 Q58.35 -1.3 59.15 3.75 60.15 10.1 59.75 16.4 L59.0 22.4 Q59.85 22.8 60.35 23.6 62.0 27.05 60.5 30.7 L59.65 32.25 Q58.8 33.5 57.7 33.75 L55.6 33.85 54.05 33.5 50.1 32.3 47.15 34.15 Q46.95 36.55 45.3 38.7 L44.15 40.0 Q43.05 40.95 41.85 40.95 40.7 40.9 39.8 40.45 L38.4 39.75 36.9 38.85 29.2 41.2 Q15.75 44.7 0.0 44.75 -15.75 44.7 -29.2 41.2 -36.75 39.2 -42.6 36.5 -49.4 33.35 -54.3 29.0 L-55.55 27.8 -56.75 26.5 -58.45 24.35 -58.5 24.3 -58.8 23.55 -58.85 23.35 -58.9 22.95 Q-59.6 19.1 -59.75 16.4 -60.15 9.95 -59.1 3.75 L-58.5 0.6 -57.4 -3.65 -40.1 19.65 -28.2 12.1 -10.9 14.85 1.45 9.0 13.25 23.4 29.65 7.75 38.3 11.05 45.1 -2.65 49.0 -3.7 56.65 -6.05 M53.75 22.4 L55.05 22.25 55.15 22.25 55.15 22.2 55.95 16.15 Q56.45 10.2 55.6 4.3 L54.6 -0.8 46.4 1.8 39.2 15.6 29.4 12.35 23.0 18.3 23.15 18.25 24.5 18.5 25.7 19.65 26.55 20.7 Q28.95 23.35 32.2 25.4 36.0 27.9 40.95 28.95 L43.15 29.3 Q41.2 28.3 39.4 27.15 35.75 24.75 33.4 22.1 L32.45 20.95 31.7 19.5 Q31.45 18.1 32.85 17.15 L33.8 16.7 35.15 16.55 36.6 17.35 37.75 18.15 Q40.75 20.1 44.35 21.25 48.75 22.65 53.75 22.4 M43.3 32.0 L42.75 31.9 41.8 31.75 40.4 31.5 Q35.1 30.2 31.0 27.2 27.65 24.75 25.3 21.75 L24.4 20.55 23.85 19.85 Q23.35 19.6 22.6 19.85 21.9 20.05 21.95 20.6 L22.85 22.65 Q24.4 25.4 27.45 28.35 30.6 31.5 35.0 34.4 L35.7 34.9 39.7 37.3 40.2 37.55 41.75 38.15 Q41.8 38.3 42.25 37.9 L43.1 36.95 43.8 35.95 44.2 34.75 44.35 32.55 Q44.2 32.15 43.3 32.0 M57.3 30.7 L57.9 29.6 Q58.4 28.55 58.4 27.2 58.35 25.95 57.95 25.05 L57.95 25.0 Q57.75 24.65 56.8 24.75 L55.3 24.9 53.85 25.0 52.8 25.0 Q48.0 24.95 43.65 23.3 39.85 21.8 36.75 19.5 L35.55 18.55 34.9 18.05 Q34.3 17.95 33.65 18.35 33.05 18.75 33.2 19.25 L34.6 21.0 Q36.85 23.25 40.55 25.3 43.95 27.25 48.1 28.8 L49.4 29.25 52.75 30.3 54.7 30.8 56.9 31.1 57.3 30.7 M21.4 23.4 L20.75 22.0 20.45 20.65 12.6 27.9 -0.35 13.75 -10.85 18.7 -27.55 16.05 -41.4 23.5 -55.6 4.3 Q-56.45 10.2 -55.95 16.15 L-55.15 22.2 -55.1 22.4 -53.85 23.95 -52.8 25.05 -51.7 26.05 Q-43.25 33.35 -28.15 37.15 -15.2 40.45 0.0 40.5 15.25 40.45 28.15 37.15 L32.65 35.9 Q28.8 33.05 25.9 29.8 22.85 26.45 21.4 23.4" fill="#000000" fill-rule="evenodd" stroke="none"/>
    <path d="M53.75 22.4 Q48.75 22.65 44.35 21.25 40.75 20.1 37.75 18.15 L36.6 17.35 35.15 16.55 33.8 16.7 32.85 17.15 Q31.45 18.1 31.7 19.5 L32.45 20.95 33.4 22.1 Q35.75 24.75 39.4 27.15 41.2 28.3 43.15 29.3 L40.95 28.95 Q36.0 27.9 32.2 25.4 28.95 23.35 26.55 20.7 L25.7 19.65 24.5 18.5 23.15 18.25 23.0 18.3 29.4 12.35 39.2 15.6 46.4 1.8 54.6 -0.8 55.6 4.3 Q56.45 10.2 55.95 16.15 L55.15 22.2 55.15 22.25 55.05 22.25 53.75 22.4 M21.4 23.4 Q22.85 26.45 25.9 29.8 28.8 33.05 32.65 35.9 L28.15 37.15 Q15.25 40.45 0.0 40.5 -15.2 40.45 -28.15 37.15 -43.25 33.35 -51.7 26.05 L-52.8 25.05 -53.85 23.95 -55.1 22.4 -55.15 22.2 -55.95 16.15 Q-56.45 10.2 -55.6 4.3 L-41.4 23.5 -27.55 16.05 -10.85 18.7 -0.35 13.75 12.6 27.9 20.45 20.65 20.75 22.0 21.4 23.4" fill="#ffffff" fill-rule="evenodd" stroke="none"/>
    <path d="M57.3 30.7 L56.9 31.1 54.7 30.8 52.75 30.3 49.4 29.25 48.1 28.8 Q43.95 27.25 40.55 25.3 36.85 23.25 34.6 21.0 L33.2 19.25 Q33.05 18.75 33.65 18.35 34.3 17.95 34.9 18.05 L35.55 18.55 36.75 19.5 Q39.85 21.8 43.65 23.3 48.0 24.95 52.8 25.0 L53.85 25.0 55.3 24.9 56.8 24.75 Q57.75 24.65 57.95 25.0 L57.95 25.05 Q58.35 25.95 58.4 27.2 58.4 28.55 57.9 29.6 L57.3 30.7 M43.3 32.0 Q44.2 32.15 44.35 32.55 L44.2 34.75 43.8 35.95 43.1 36.95 42.25 37.9 Q41.8 38.3 41.75 38.15 L40.2 37.55 39.7 37.3 35.7 34.9 35.0 34.4 Q30.6 31.5 27.45 28.35 24.4 25.4 22.85 22.65 L21.95 20.6 Q21.9 20.05 22.6 19.85 23.35 19.6 23.85 19.85 L24.4 20.55 25.3 21.75 Q27.65 24.75 31.0 27.2 35.1 30.2 40.4 31.5 L41.8 31.75 42.75 31.9 43.3 32.0" fill="#333333" fill-rule="evenodd" stroke="none"/>
  </g>
</svg>
