<?xml version="1.0" encoding="UTF-8" standalone="no"?>
<svg xmlns:ffdec="https://www.free-decompiler.com/flash" xmlns:xlink="http://www.w3.org/1999/xlink" ffdec:objectType="shape" height="104.1px" width="100.95px" xmlns="http://www.w3.org/2000/svg">
  <g transform="matrix(1.0, 0.0, 0.0, 1.0, 38.85, 63.15)">
    <path d="M44.85 -63.0 L47.65 -62.9 Q50.2 -61.9 51.65 -60.25 54.9 -56.35 53.4 -51.05 53.05 -50.2 52.15 -49.65 L51.1 -49.3 48.75 -49.1 46.95 -48.8 45.2 -48.45 Q39.15 -46.85 33.45 -42.85 29.3 -39.75 26.05 -36.0 L24.85 -34.5 24.35 -33.85 23.75 -33.35 23.3 -33.1 21.45 -32.95 20.15 -33.45 Q19.5 -33.85 19.1 -34.4 18.45 -35.2 18.45 -36.15 18.55 -37.25 19.1 -38.2 L20.05 -39.9 Q23.0 -45.1 25.85 -48.65 30.5 -54.35 35.85 -58.2 39.25 -60.65 42.7 -62.2 43.95 -62.8 44.85 -63.0 M33.15 -33.35 Q31.6 -31.5 31.6 -31.15 31.45 -30.5 32.1 -30.0 32.85 -29.45 33.5 -29.65 L34.25 -30.35 35.6 -31.55 Q38.95 -34.4 43.1 -36.25 48.5 -38.75 54.65 -38.65 L57.8 -38.45 58.45 -38.65 58.85 -39.3 Q59.8 -42.5 58.8 -45.15 L58.15 -46.5 Q57.8 -47.05 57.7 -46.9 L55.15 -46.35 Q52.45 -45.55 49.25 -44.15 44.05 -41.95 39.45 -38.85 35.5 -36.15 33.15 -33.35 M44.55 -51.0 L46.45 -51.4 48.4 -51.8 50.75 -52.05 50.8 -52.05 50.85 -52.15 51.05 -52.05 50.9 -55.35 Q50.6 -57.3 49.5 -58.35 48.5 -59.5 46.65 -60.25 45.6 -60.55 43.8 -59.65 40.6 -58.25 37.3 -56.05 32.1 -52.45 27.5 -47.25 24.55 -43.9 21.45 -39.05 L20.45 -37.35 Q19.85 -36.4 19.95 -36.2 19.95 -35.4 20.9 -34.75 22.0 -34.2 22.7 -34.5 L22.95 -34.65 23.05 -34.7 23.55 -35.45 24.75 -37.05 Q28.05 -41.2 32.2 -44.55 38.0 -49.05 44.55 -51.0 M55.05 22.25 L56.35 22.1 58.35 22.15 Q59.7 22.5 60.35 23.6 62.0 27.05 60.5 30.7 L59.65 32.25 Q58.8 33.5 57.7 33.75 L55.6 33.85 54.05 33.5 Q51.45 32.85 48.5 31.7 L46.6 30.95 47.0 31.8 Q47.75 35.55 45.3 38.7 L44.15 40.0 Q43.05 40.95 41.85 40.95 40.7 40.9 39.8 40.45 L38.4 39.75 33.5 36.55 Q29.15 33.4 25.9 29.8 22.85 26.45 21.4 23.4 L20.75 22.0 Q20.45 21.3 20.4 20.45 20.55 19.05 22.1 18.5 L23.15 18.25 24.5 18.5 25.7 19.65 26.55 20.7 Q28.95 23.35 32.2 25.4 36.0 27.9 40.95 28.95 L43.15 29.3 Q41.2 28.3 39.4 27.15 35.75 24.75 33.4 22.1 L32.45 20.95 31.7 19.5 Q31.45 18.1 32.85 17.15 L33.8 16.7 35.15 16.55 36.6 17.35 37.75 18.15 Q40.75 20.1 44.35 21.25 48.75 22.65 53.75 22.4 L55.05 22.25 M30.85 -33.0 L31.85 -34.4 Q34.2 -37.55 38.2 -40.6 42.7 -44.0 48.15 -46.55 51.55 -48.1 54.3 -49.0 L56.0 -49.5 58.3 -49.65 Q59.65 -49.45 60.55 -47.95 L61.4 -46.15 Q62.15 -44.35 62.1 -42.25 62.1 -40.35 61.5 -38.5 61.25 -37.3 60.1 -36.45 58.95 -35.6 57.7 -35.75 L54.55 -36.05 Q48.95 -36.35 43.95 -34.3 39.95 -32.75 36.6 -30.25 L35.4 -29.25 33.95 -28.2 Q32.55 -27.85 31.25 -28.8 L30.4 -29.8 Q29.95 -30.55 30.1 -31.4 L30.85 -33.0 M44.35 32.55 Q44.2 32.15 43.3 32.0 L41.8 31.75 40.4 31.5 Q35.1 30.2 31.0 27.2 27.65 24.75 25.3 21.75 L24.4 20.55 23.85 19.85 Q23.35 19.6 22.6 19.85 21.9 20.05 21.95 20.6 L22.85 22.65 Q24.4 25.4 27.45 28.35 30.6 31.5 35.0 34.4 L39.7 37.3 41.75 38.15 Q41.8 38.3 42.25 37.9 L43.1 36.95 Q43.85 36.1 44.2 34.75 L44.35 32.55 M57.9 29.6 Q58.4 28.55 58.4 27.2 58.35 25.95 57.95 25.0 57.75 24.65 56.8 24.75 L55.3 24.9 53.85 25.0 Q48.45 25.15 43.65 23.3 39.85 21.8 36.75 19.5 L35.55 18.55 34.9 18.05 Q34.3 17.95 33.65 18.35 33.05 18.75 33.2 19.25 L34.6 21.0 Q36.85 23.25 40.55 25.3 44.45 27.55 49.4 29.25 L54.7 30.8 56.9 31.1 57.3 30.7 57.9 29.6" fill="#000000" fill-rule="evenodd" stroke="none"/>
    <path d="M-33.3 -7.35 Q-29.7 -11.95 -25.35 -15.05 L-13.3 -13.8 Q-23.8 -7.95 -31.4 3.1 L-38.55 1.75 -38.85 1.7 Q-36.65 -3.15 -33.3 -7.35" fill="#ffffff" fill-rule="evenodd" stroke="none"/>
    <path d="M44.55 -51.0 Q38.0 -49.05 32.2 -44.55 28.05 -41.2 24.75 -37.05 L23.55 -35.45 23.05 -34.7 22.95 -34.65 22.7 -34.5 Q22.0 -34.2 20.9 -34.75 19.95 -35.4 19.95 -36.2 19.85 -36.4 20.45 -37.35 L21.45 -39.05 Q24.55 -43.9 27.5 -47.25 32.1 -52.45 37.3 -56.05 40.6 -58.25 43.8 -59.65 45.6 -60.55 46.65 -60.25 48.5 -59.5 49.5 -58.35 50.6 -57.3 50.9 -55.35 L51.05 -52.05 50.85 -52.15 50.8 -52.05 50.75 -52.05 48.4 -51.8 46.45 -51.4 44.55 -51.0 M33.15 -33.35 Q35.5 -36.15 39.45 -38.85 44.05 -41.95 49.25 -44.15 52.45 -45.55 55.15 -46.35 L57.7 -46.9 Q57.8 -47.05 58.15 -46.5 L58.8 -45.15 Q59.8 -42.5 58.85 -39.3 L58.45 -38.65 57.8 -38.45 54.65 -38.65 Q48.5 -38.75 43.1 -36.25 38.95 -34.4 35.6 -31.55 L34.25 -30.35 33.5 -29.65 Q32.85 -29.45 32.1 -30.0 31.45 -30.5 31.6 -31.15 31.6 -31.5 33.15 -33.35 M57.9 29.6 L57.3 30.7 56.9 31.1 54.7 30.8 49.4 29.25 Q44.45 27.55 40.55 25.3 36.85 23.25 34.6 21.0 L33.2 19.25 Q33.05 18.75 33.65 18.35 34.3 17.95 34.9 18.05 L35.55 18.55 36.75 19.5 Q39.85 21.8 43.65 23.3 48.45 25.15 53.85 25.0 L55.3 24.9 56.8 24.75 Q57.75 24.65 57.95 25.0 58.35 25.95 58.4 27.2 58.4 28.55 57.9 29.6 M44.35 32.55 L44.2 34.75 Q43.85 36.1 43.1 36.95 L42.25 37.9 Q41.8 38.3 41.75 38.15 L39.7 37.3 35.0 34.4 Q30.6 31.5 27.45 28.35 24.4 25.4 22.85 22.65 L21.95 20.6 Q21.9 20.05 22.6 19.85 23.35 19.6 23.85 19.85 L24.4 20.55 25.3 21.75 Q27.65 24.75 31.0 27.2 35.1 30.2 40.4 31.5 L41.8 31.75 43.3 32.0 Q44.2 32.15 44.35 32.55" fill="#e0e2fc" fill-rule="evenodd" stroke="none"/>
  </g>
</svg>
