<?xml version="1.0" encoding="UTF-8" standalone="no"?>
<svg xmlns:ffdec="https://www.free-decompiler.com/flash" xmlns:xlink="http://www.w3.org/1999/xlink" ffdec:objectType="shape" height="75.25px" width="136.2px" xmlns="http://www.w3.org/2000/svg">
  <g transform="matrix(1.0, 0.0, 0.0, 1.0, 68.1, 37.65)">
    <path d="M1.5 -27.55 Q-1.95 -27.55 -4.8 -26.65 L-4.95 -26.7 Q-8.45 -28.3 -11.9 -28.3 L-16.15 -27.75 -20.35 -28.65 Q-27.35 -28.65 -34.3 -23.05 -40.2 -18.25 -41.35 -12.9 -47.5 -12.75 -51.15 -9.55 -54.4 -6.65 -54.4 -2.95 L-54.25 -0.5 -54.45 -0.55 Q-57.2 -0.55 -59.05 0.95 -60.8 2.4 -60.8 4.25 -60.8 5.4 -60.25 6.3 L-61.55 7.4 Q-62.05 8.1 -62.05 9.9 -62.05 12.1 -59.65 14.45 -56.65 17.35 -52.2 17.35 L-49.95 17.05 Q-48.95 19.25 -47.3 20.65 -44.05 23.35 -37.85 23.35 L-34.4 22.9 -33.85 24.4 Q-32.45 26.6 -27.75 26.6 -23.4 26.6 -19.15 23.25 -14.15 19.35 -14.15 13.7 -14.15 12.1 -15.15 9.75 L-15.1 9.75 Q-9.0 9.75 -4.65 5.5 -1.95 2.8 -1.05 -0.25 1.65 1.4 5.4 3.1 16.15 8.0 26.45 8.0 L29.35 7.6 Q28.9 8.95 28.8 10.95 L28.85 15.4 Q28.85 20.35 32.75 22.95 35.55 24.85 38.7 24.85 L40.8 24.6 43.2 26.75 Q45.4 28.1 47.65 28.1 49.65 28.1 52.3 26.1 53.8 26.85 55.2 26.85 57.5 26.85 59.0 24.95 60.5 23.05 60.5 20.05 60.5 19.05 60.0 18.05 L61.15 17.05 Q62.5 15.55 62.5 14.35 62.5 11.35 59.95 8.6 58.5 7.05 56.6 6.0 57.1 4.95 57.1 2.9 57.1 0.0 54.95 -2.4 52.95 -4.65 49.4 -5.7 L49.45 -5.9 Q50.6 -8.5 50.6 -10.0 50.6 -16.3 43.6 -21.15 35.8 -26.55 23.55 -26.55 19.85 -26.55 14.05 -25.4 L12.2 -25.0 Q10.7 -25.85 8.5 -26.5 4.85 -27.55 1.5 -27.55 M11.05 -29.2 L11.25 -29.3 Q15.75 -30.9 23.35 -30.9 41.5 -30.9 52.3 -22.15 64.55 -12.25 63.75 6.7 64.95 7.85 66.0 9.45 68.1 12.55 68.1 14.25 68.1 16.5 66.8 18.05 L62.75 21.65 Q64.1 23.8 64.1 26.1 64.1 31.1 59.1 32.6 L56.35 32.85 Q53.95 32.85 52.45 32.2 50.25 34.4 48.7 35.4 45.25 37.6 40.45 37.6 36.1 37.45 31.85 35.35 23.35 31.1 23.35 21.35 23.35 17.2 25.65 11.75 L25.75 11.55 14.85 12.1 Q4.8 12.1 0.0 8.95 -1.3 10.5 -3.05 11.75 -6.5 14.1 -9.9 14.1 L-10.35 14.1 Q-11.5 19.75 -15.15 24.65 -21.45 33.1 -32.15 33.1 -39.55 33.1 -46.65 28.1 -50.0 25.75 -51.8 23.25 -58.25 23.35 -61.25 22.05 -66.05 20.0 -67.9 13.6 -68.6 11.2 -67.05 8.95 -65.6 6.85 -62.7 5.45 -63.85 -2.7 -56.9 -3.1 -57.4 -4.15 -57.4 -6.15 -57.4 -10.95 -54.6 -13.65 -51.95 -16.25 -46.9 -16.75 L-46.9 -17.15 Q-46.9 -23.7 -35.9 -30.65 -24.75 -37.65 -13.9 -37.65 -7.75 -37.65 -4.6 -36.0 -1.45 -34.35 0.6 -30.35 L4.35 -30.65 Q8.75 -30.65 11.05 -29.2" fill="url(#gradient0)" fill-rule="evenodd" stroke="none"/>
    <path d="M1.5 -27.55 Q4.85 -27.55 8.5 -26.5 10.7 -25.85 12.2 -25.0 L14.05 -25.4 Q19.85 -26.55 23.55 -26.55 35.8 -26.55 43.6 -21.15 50.6 -16.3 50.6 -10.0 50.6 -8.5 49.45 -5.9 L49.4 -5.7 Q52.95 -4.65 54.95 -2.4 57.1 0.0 57.1 2.9 57.1 4.95 56.6 6.0 58.5 7.05 59.95 8.6 62.5 11.35 62.5 14.35 62.5 15.55 61.15 17.05 L60.0 18.05 Q60.5 19.05 60.5 20.05 60.5 23.05 59.0 24.95 57.5 26.85 55.2 26.85 53.8 26.85 52.3 26.1 49.65 28.1 47.65 28.1 45.4 28.1 43.2 26.75 L40.8 24.6 38.7 24.85 Q35.55 24.85 32.75 22.95 28.85 20.35 28.85 15.4 L28.8 10.95 Q28.9 8.95 29.35 7.6 L26.45 8.0 Q16.15 8.0 5.4 3.1 1.65 1.4 -1.05 -0.25 -1.95 2.8 -4.65 5.5 -9.0 9.75 -15.1 9.75 L-15.15 9.75 Q-14.15 12.1 -14.15 13.7 -14.15 19.35 -19.15 23.25 -23.4 26.6 -27.75 26.6 -32.45 26.6 -33.85 24.4 L-34.4 22.9 -37.85 23.35 Q-44.05 23.35 -47.3 20.65 -48.95 19.25 -49.95 17.05 L-52.2 17.35 Q-56.65 17.35 -59.65 14.45 -62.05 12.1 -62.05 9.9 -62.05 8.1 -61.55 7.4 L-60.25 6.3 Q-60.8 5.4 -60.8 4.25 -60.8 2.4 -59.05 0.95 -57.2 -0.55 -54.45 -0.55 L-54.25 -0.5 -54.4 -2.95 Q-54.4 -6.65 -51.15 -9.55 -47.5 -12.75 -41.35 -12.9 -40.2 -18.25 -34.3 -23.05 -27.35 -28.65 -20.35 -28.65 L-16.15 -27.75 -11.9 -28.3 Q-8.45 -28.3 -4.95 -26.7 L-4.8 -26.65 Q-1.95 -27.55 1.5 -27.55" fill="url(#gradient1)" fill-rule="evenodd" stroke="none"/>
    <path d="M19.2 1.65 L16.8 1.65 Q9.1 1.65 2.3 -1.6 -0.3 -2.85 -2.0 -4.2 -2.35 -3.05 -2.85 -2.55 -4.65 -0.65 -6.55 0.05 -7.5 3.5 -11.0 6.25 -14.4 8.95 -18.7 9.65 -18.85 15.0 -21.0 18.25 -23.2 21.65 -26.6 21.65 -29.55 21.65 -31.95 19.75 L-32.85 18.95 Q-37.8 18.95 -40.55 16.8 -43.15 14.75 -43.15 11.3 -43.15 8.95 -41.3 6.65 -39.15 4.1 -36.05 4.0 L-36.7 1.25 Q-36.75 -1.5 -33.8 -2.25 -35.6 -6.75 -31.25 -9.85 -27.05 -12.85 -22.85 -10.7 -21.15 -12.05 -19.15 -11.4 -17.45 -10.9 -16.3 -9.15 -12.9 -20.4 -2.0 -19.85 2.3 -19.7 6.2 -17.55 9.95 -15.55 11.45 -12.75 L13.55 -13.75 Q17.85 -15.4 23.3 -15.4 30.2 -15.4 36.4 -12.2 41.75 -9.4 42.85 -5.85 45.95 -5.0 47.25 -2.3 48.05 -0.55 48.05 2.55 L48.0 3.75 49.05 4.8 Q52.45 8.35 52.45 11.9 52.45 13.9 50.0 15.75 47.15 17.9 42.95 17.9 38.95 17.9 36.5 15.3 L35.8 14.45 34.0 13.75 Q30.2 11.7 30.2 7.25 L30.25 5.05 Q23.5 4.55 19.8 2.05 L19.2 1.65" fill="url(#gradient2)" fill-rule="evenodd" stroke="none"/>
  </g>
  <defs>
    <linearGradient gradientTransform="matrix(0.0018, 0.0309, -0.0828, 0.0047, -0.35, 6.4)" gradientUnits="userSpaceOnUse" id="gradient0" spreadMethod="pad" x1="-819.2" x2="819.2">
      <stop offset="0.0" stop-color="#ffad00"/>
      <stop offset="1.0" stop-color="#ff4300"/>
    </linearGradient>
    <linearGradient gradientTransform="matrix(0.0033, 0.0342, -0.0751, 0.0073, 0.7, 9.85)" gradientUnits="userSpaceOnUse" id="gradient1" spreadMethod="pad" x1="-819.2" x2="819.2">
      <stop offset="0.0" stop-color="#ffff00"/>
      <stop offset="1.0" stop-color="#ff9900"/>
    </linearGradient>
    <linearGradient gradientTransform="matrix(-0.0036, -0.0576, 0.0718, -0.0057, 5.6, 26.35)" gradientUnits="userSpaceOnUse" id="gradient2" spreadMethod="pad" x1="-819.2" x2="819.2">
      <stop offset="0.0" stop-color="#000000"/>
      <stop offset="1.0" stop-color="#000000" stop-opacity="0.0"/>
    </linearGradient>
  </defs>
</svg>
