<?xml version="1.0" encoding="UTF-8" standalone="no"?>
<svg xmlns:ffdec="https://www.free-decompiler.com/flash" xmlns:xlink="http://www.w3.org/1999/xlink" ffdec:objectType="shape" height="113.5px" width="114.5px" xmlns="http://www.w3.org/2000/svg">
  <g transform="matrix(1.0, 0.0, 0.0, 1.0, 57.25, 56.75)">
    <path d="M16.0 -47.75 Q24.4 -47.75 30.3 -41.8 36.25 -35.9 36.25 -27.5 36.25 -24.3 35.4 -21.5 43.55 -20.35 49.7 -14.2 57.25 -6.65 57.25 4.0 57.25 14.65 49.7 22.2 42.15 29.75 31.5 29.75 L28.15 29.55 Q26.85 32.9 24.1 35.65 19.3 40.45 12.6 40.7 10.95 45.8 6.85 49.9 0.0 56.75 -9.75 56.75 -19.5 56.75 -26.4 49.9 -31.25 45.0 -32.65 38.65 -40.55 38.05 -46.3 32.3 -52.75 25.85 -52.75 16.75 -52.75 8.55 -47.45 2.45 L-49.85 0.35 Q-57.25 -7.05 -57.25 -17.5 -57.25 -27.95 -49.85 -35.35 -44.15 -41.05 -36.65 -42.35 -34.85 -45.05 -32.45 -47.45 -23.15 -56.75 -10.0 -56.75 3.15 -56.75 12.45 -47.5 L16.0 -47.75" fill="#000000" fill-rule="evenodd" stroke="none"/>
  </g>
</svg>
