<?xml version="1.0" encoding="UTF-8" standalone="no"?>
<svg xmlns:ffdec="https://www.free-decompiler.com/flash" xmlns:xlink="http://www.w3.org/1999/xlink" ffdec:objectType="shape" height="67.0px" width="81.0px" xmlns="http://www.w3.org/2000/svg">
  <g transform="matrix(1.0, 0.0, 0.0, 1.0, 40.5, 33.5)">
    <path d="M15.6 -28.6 Q19.35 -24.85 20.25 -19.95 28.2 -19.4 34.05 -13.55 40.5 -7.1 40.5 2.0 40.5 11.1 34.05 17.55 27.6 24.0 18.5 24.0 13.65 24.0 9.55 22.15 8.15 25.35 5.5 28.0 0.0 33.5 -7.75 33.5 -15.5 33.5 -21.0 28.0 -24.55 24.45 -25.8 20.0 -31.75 19.8 -36.05 15.5 -40.5 11.05 -40.5 4.75 -40.5 -1.05 -36.7 -5.35 -38.0 -8.65 -38.0 -12.5 -38.0 -20.6 -32.3 -26.3 -26.6 -32.0 -18.5 -32.0 -12.5 -32.0 -7.8 -28.85 -3.0 -33.5 3.75 -33.5 10.7 -33.5 15.6 -28.6" fill="#000000" fill-rule="evenodd" stroke="none"/>
  </g>
</svg>
