<?xml version="1.0" encoding="UTF-8" standalone="no"?>
<svg xmlns:ffdec="https://www.free-decompiler.com/flash" xmlns:xlink="http://www.w3.org/1999/xlink" ffdec:objectType="shape" height="45.5px" width="45.5px" xmlns="http://www.w3.org/2000/svg">
  <g transform="matrix(1.0, 0.0, 0.0, 1.0, 22.75, 22.75)">
    <path d="M12.6 -6.9 Q15.7 -5.85 18.25 -3.3 22.75 1.2 22.75 7.5 22.75 13.8 18.25 18.25 13.8 22.75 7.5 22.75 1.2 22.75 -3.3 18.25 -5.0 16.55 -6.05 14.55 -8.4 15.75 -11.25 15.75 -16.0 15.75 -19.4 12.35 -22.75 9.0 -22.75 4.25 -22.75 -0.5 -19.4 -3.9 -17.05 -6.2 -14.05 -6.9 L-14.25 -9.25 Q-14.25 -14.85 -10.3 -18.8 -6.35 -22.75 -0.75 -22.75 4.85 -22.75 8.8 -18.8 12.75 -14.85 12.75 -9.25 L12.6 -6.9" fill="#000000" fill-rule="evenodd" stroke="none"/>
  </g>
</svg>
