<?xml version="1.0" encoding="UTF-8" standalone="no"?>
<svg xmlns:ffdec="https://www.free-decompiler.com/flash" xmlns:xlink="http://www.w3.org/1999/xlink" ffdec:objectType="shape" height="21.0px" width="17.0px" xmlns="http://www.w3.org/2000/svg">
  <g transform="matrix(1.0, 0.0, 0.0, 1.0, 8.5, 10.5)">
    <path d="M3.5 -9.5 L3.5 -8.5 4.5 -8.5 4.5 -3.5 3.5 -3.5 3.5 -1.5 2.5 -1.5 2.5 -0.5 3.5 -0.5 3.5 1.5 2.5 1.5 2.5 3.5 3.5 3.5 3.5 2.5 4.5 2.5 4.5 1.5 6.5 1.5 6.5 3.5 7.5 3.5 7.5 4.5 2.5 4.5 2.5 5.5 7.5 5.5 7.5 6.5 8.5 6.5 8.5 7.5 7.5 7.5 7.5 10.5 6.5 10.5 6.5 9.5 4.5 9.5 4.5 8.5 3.5 8.5 3.5 7.5 0.5 7.5 0.5 6.5 -2.5 6.5 -2.5 7.5 -4.5 7.5 -4.5 8.5 -5.5 8.5 -5.5 9.5 -6.5 9.5 -6.5 10.5 -7.5 10.5 -7.5 8.5 -8.5 8.5 -8.5 6.5 -4.5 6.5 -4.5 4.5 -8.5 4.5 -8.5 3.5 -7.5 3.5 -7.5 1.5 -5.5 1.5 -5.5 2.5 -4.5 2.5 -4.5 -0.5 -3.5 -0.5 -3.5 -1.5 -4.5 -1.5 -4.5 -3.5 -5.5 -3.5 -5.5 -5.5 -6.5 -5.5 -6.5 -7.5 -5.5 -7.5 -5.5 -9.5 -4.5 -9.5 -4.5 -10.5 2.5 -10.5 2.5 -9.5 3.5 -9.5 M0.5 -2.5 L0.5 -4.5 -1.5 -4.5 -1.5 -2.5 0.5 -2.5 M2.5 -6.5 L2.5 -7.5 -0.5 -7.5 -0.5 -6.5 0.5 -6.5 0.5 -5.5 3.5 -5.5 3.5 -6.5 2.5 -6.5 M1.5 0.5 L2.5 0.5 2.5 -0.5 -3.5 -0.5 -3.5 0.5 -2.5 0.5 -2.5 1.5 1.5 1.5 1.5 0.5 M-3.5 -7.5 L-3.5 -6.5 -4.5 -6.5 -4.5 -5.5 -1.5 -5.5 -1.5 -7.5 -3.5 -7.5 M1.5 4.5 L1.5 3.5 -2.5 3.5 -2.5 4.5 1.5 4.5 M-4.5 2.5 L-4.5 3.5 -3.5 3.5 -3.5 2.5 -4.5 2.5" fill="#ffffff" fill-rule="evenodd" stroke="none"/>
  </g>
</svg>
