<?xml version="1.0" encoding="UTF-8" standalone="no"?>
<svg xmlns:ffdec="https://www.free-decompiler.com/flash" xmlns:xlink="http://www.w3.org/1999/xlink" ffdec:objectType="shape" height="18.4px" width="29.25px" xmlns="http://www.w3.org/2000/svg">
  <g transform="matrix(1.0, 0.0, 0.0, 1.0, 15.15, 4.9)">
    <path d="M6.1 -3.75 L11.1 -4.4 4.95 -0.5 4.4 -4.9 6.1 -3.75 M14.1 4.35 L9.75 5.4 9.45 7.15 1.2 9.3 1.2 8.05 0.2 8.0 0.55 5.85 5.55 3.05 9.65 0.2 14.1 0.6 14.1 4.35 M-3.35 3.35 L-5.25 1.65 -6.25 -0.65 -4.9 0.1 -4.85 -1.15 -3.25 1.5 -3.35 3.35 M-15.15 12.5 L-15.15 10.4 0.0 7.75 -0.35 10.5 -9.3 13.5 -11.85 13.4 -12.05 12.5 -15.15 12.5" fill="#00ff00" fill-rule="evenodd" stroke="none"/>
  </g>
</svg>
