<?xml version="1.0" encoding="UTF-8" standalone="no"?>
<svg xmlns:ffdec="https://www.free-decompiler.com/flash" xmlns:xlink="http://www.w3.org/1999/xlink" ffdec:objectType="shape" height="42.55px" width="63.95px" xmlns="http://www.w3.org/2000/svg">
  <g transform="matrix(1.0, 0.0, 0.0, 1.0, 26.6, 12.3)">
    <path d="M9.3 -11.85 L8.8 -11.05 8.75 -11.05 8.85 -11.6 9.15 -12.1 9.3 -11.85 M9.4 -9.3 L9.05 -8.6 8.85 -8.85 9.05 -9.15 9.35 -9.4 9.4 -9.3 M9.6 -9.85 L9.4 -9.85 9.4 -10.2 9.8 -10.9 9.95 -10.7 9.6 -9.85 M7.4 -8.6 L7.8 -9.05 Q8.1 -9.25 8.1 -8.9 L7.8 -8.45 7.4 -8.15 7.4 -8.6 M5.65 -6.4 L5.65 -6.8 5.95 -6.8 6.05 -6.6 5.8 -6.35 5.65 -6.4 M7.0 -6.95 L6.8 -6.7 Q6.6 -6.7 6.55 -6.85 L6.55 -7.05 Q6.55 -7.4 6.85 -7.55 L7.1 -7.35 7.0 -6.95 M9.05 -8.05 L8.65 -7.3 8.15 -6.65 Q7.85 -6.65 7.85 -6.9 L8.2 -7.75 8.9 -8.3 9.05 -8.05 M9.7 -9.2 L9.6 -9.35 Q9.6 -9.85 11.05 -12.3 L11.15 -12.2 10.55 -10.8 9.8 -9.25 9.7 -9.2 M7.7 -6.75 L7.35 -6.15 6.9 -5.65 6.8 -5.7 6.75 -5.85 7.55 -6.95 7.7 -6.75 M0.9 -4.35 Q0.9 -4.6 1.2 -4.65 L1.45 -4.35 1.15 -4.05 0.95 -4.2 0.9 -4.35 M1.85 -3.4 Q1.85 -3.0 1.45 -3.0 1.05 -3.0 1.05 -3.4 1.05 -3.85 1.45 -3.8 L1.85 -3.4 M0.6 -1.5 Q0.05 -1.5 0.0 -2.1 0.0 -2.65 0.6 -2.65 1.15 -2.65 1.15 -2.05 1.15 -1.5 0.6 -1.5 M7.95 -3.95 L7.7 -3.5 7.6 -3.45 7.55 -3.55 Q7.55 -3.95 7.9 -4.05 L7.95 -3.95 M6.5 -5.6 L6.1 -4.15 6.1 -4.1 7.35 -5.5 7.45 -5.55 7.55 -5.5 6.6 -3.65 6.2 -2.6 5.7 -1.95 5.65 -1.95 Q5.25 -2.2 5.25 -3.0 L5.3 -3.6 5.6 -5.15 5.6 -5.4 5.6 -6.0 5.8 -6.0 5.8 -4.35 5.85 -4.35 6.2 -5.65 6.45 -5.75 6.5 -5.6 M6.95 -2.5 L6.65 -2.4 Q6.65 -2.7 7.05 -2.8 L6.95 -2.5 M35.15 9.2 L35.15 7.15 Q34.7 7.1 34.7 6.75 34.7 6.45 34.95 6.6 L35.6 6.85 35.6 7.05 35.4 7.15 35.45 7.95 35.4 9.15 35.35 9.2 35.15 9.2 M30.8 11.75 Q30.55 11.75 30.55 11.35 L30.7 11.15 30.95 11.6 30.9 11.7 30.8 11.75 M30.75 12.0 L31.1 12.8 31.0 12.85 31.05 15.55 31.05 20.55 31.2 22.0 31.15 22.2 31.0 22.25 30.85 22.2 30.85 21.75 30.95 21.25 30.8 16.8 30.65 13.9 30.75 12.6 30.55 12.35 Q30.55 12.0 30.75 12.0 M31.5 12.05 L31.65 12.4 31.6 12.5 31.6 12.55 Q31.15 12.2 31.15 11.9 L31.5 12.05 M31.2 11.1 Q30.45 10.95 30.45 10.55 L29.0 9.65 27.0 8.9 24.85 8.4 Q23.55 8.05 23.3 7.55 L23.35 7.5 26.5 8.2 Q28.6 8.7 29.25 9.55 L30.5 10.4 31.85 11.0 Q32.75 11.45 32.95 11.9 L33.7 12.9 33.65 12.95 32.05 11.6 31.2 11.1 M36.35 8.9 L36.2 8.9 36.45 13.05 36.3 15.45 36.2 15.45 35.9 8.75 35.75 8.5 35.8 8.3 35.95 8.25 36.05 8.25 Q36.45 8.2 36.45 8.6 L36.35 8.9 M37.35 10.25 L37.15 10.45 36.75 10.3 37.35 10.25 M30.1 0.85 L29.65 1.2 29.4 1.05 29.35 0.9 Q29.35 0.65 30.05 0.7 L30.1 0.85 M28.4 0.45 L28.55 0.35 28.7 0.4 28.75 0.5 27.55 0.95 27.3 0.7 Q27.3 0.6 27.6 0.45 L28.2 0.3 Q28.3 0.3 28.4 0.45 M25.5 1.0 Q25.45 1.65 25.55 1.85 L25.55 2.95 25.45 3.05 Q25.1 2.6 25.1 1.25 L25.15 1.05 25.0 1.05 24.75 0.9 24.75 0.75 Q24.75 0.35 25.2 0.25 L25.2 0.2 25.3 0.2 26.45 0.25 26.5 0.4 25.5 0.95 25.5 1.0 M25.85 4.6 L25.8 4.4 Q25.8 4.05 26.15 4.05 L26.4 4.35 26.25 4.65 26.35 5.35 26.3 6.75 26.1 7.1 25.9 7.1 25.9 4.6 25.85 4.6 M23.3 0.25 L24.5 0.35 Q24.05 0.5 23.35 0.9 L18.05 2.35 18.1 3.05 18.1 3.7 19.15 3.45 19.1 3.5 21.3 3.4 21.75 3.2 22.2 3.35 Q30.35 3.2 34.8 5.9 30.8 4.0 25.05 3.95 L24.85 4.2 24.55 4.3 24.3 4.15 24.25 3.95 23.85 3.95 23.85 4.0 Q23.85 4.45 23.3 4.45 23.0 4.45 23.0 4.05 L23.0 3.95 22.3 4.0 22.2 4.3 22.2 4.4 22.2 5.1 22.35 7.85 22.25 8.35 22.45 10.45 22.45 16.8 22.55 17.45 22.45 19.15 22.65 20.55 22.4 21.05 22.15 20.8 22.15 20.5 22.3 19.1 21.9 11.9 21.55 8.0 21.3 4.7 21.35 4.4 21.2 4.3 21.1 4.1 21.1 4.05 18.05 4.4 17.85 6.05 18.05 10.25 17.95 10.95 18.3 15.15 Q18.15 16.25 18.5 18.15 L18.4 18.35 18.25 18.45 Q18.05 18.45 17.95 18.0 L17.9 17.5 17.9 12.0 17.7 10.75 17.55 9.5 17.3 4.55 12.65 5.6 12.25 5.75 12.45 8.3 12.35 8.75 12.5 12.25 12.5 15.7 12.65 16.7 12.4 20.0 12.25 20.0 12.1 17.25 11.9 16.65 12.15 14.5 11.85 9.85 11.75 7.55 11.6 5.9 10.7 6.15 10.85 8.45 10.65 12.45 10.75 15.0 10.85 16.2 Q10.85 16.95 10.45 17.15 L10.4 17.0 10.55 15.55 10.35 12.45 10.45 10.75 Q10.2 8.75 10.35 8.0 L10.2 6.3 0.3 9.1 -2.85 9.95 -5.35 10.5 -7.3 10.55 Q-8.75 10.85 -9.5 11.25 L-11.95 12.25 -14.0 13.05 Q-14.55 13.05 -17.65 14.8 L-18.95 15.65 -19.9 16.7 -20.85 17.3 -21.0 17.15 -20.85 16.6 Q-20.85 15.95 -18.2 14.3 L-17.35 14.0 -15.45 13.0 -13.05 12.0 -11.05 11.15 -9.6 10.55 -7.25 9.9 -6.95 9.85 -5.15 9.6 -2.7 9.1 -1.5 9.05 Q-1.5 8.65 1.75 7.25 4.55 6.0 5.25 5.8 L5.7 5.65 8.7 4.45 8.8 4.45 8.6 4.35 6.95 4.65 6.8 4.5 Q6.8 4.35 7.5 4.35 L8.9 3.95 Q8.55 4.05 8.35 3.8 L8.2 3.5 8.4 3.2 8.9 3.1 9.0 3.05 Q7.4 2.45 7.4 2.2 7.4 2.05 7.65 2.05 8.3 2.05 9.3 2.65 L9.1 2.25 9.55 1.8 9.4 1.1 Q9.4 0.75 9.7 0.7 10.0 0.65 10.05 1.1 L10.3 1.95 10.6 1.7 10.85 1.85 10.9 1.5 11.15 1.3 11.45 1.4 11.7 1.1 12.1 1.65 12.15 1.35 12.3 1.3 Q12.7 1.3 12.7 1.8 L12.75 1.3 Q12.85 0.85 13.0 0.85 13.3 0.85 13.25 1.55 L13.25 1.6 13.35 1.4 13.5 1.75 13.3 2.55 13.75 2.15 13.9 2.3 13.6 2.85 16.5 2.05 16.85 2.0 16.8 1.8 16.6 1.65 16.15 1.2 Q16.35 1.05 16.9 1.4 L16.9 1.35 16.8 0.2 Q16.8 -0.3 17.15 0.0 17.5 0.3 17.5 0.8 L17.45 1.15 17.55 1.2 17.55 1.05 18.0 0.3 18.15 0.45 17.95 1.3 18.25 0.95 18.4 1.2 18.2 1.55 19.95 0.95 21.6 0.6 22.9 0.35 23.3 0.25 M17.0 2.6 L14.6 3.25 Q13.8 3.55 13.5 3.75 L14.35 4.45 14.35 4.55 17.3 3.85 17.25 2.55 17.0 2.6 M10.75 5.4 L11.55 5.2 11.6 5.15 11.5 5.05 11.55 4.45 11.35 4.55 10.85 4.7 10.75 4.75 10.75 5.05 10.75 5.4 M10.2 4.9 L9.9 5.0 6.3 6.15 4.05 7.1 1.65 8.3 5.35 7.05 10.15 5.55 10.15 5.35 10.2 4.9 M12.35 5.0 L14.1 4.6 13.95 4.5 13.75 4.6 13.25 4.25 13.35 4.55 13.25 4.6 Q12.85 4.6 12.7 4.4 L12.55 4.45 12.45 4.75 12.35 5.0 M-6.5 -4.2 L-6.1 -2.75 -6.75 -3.15 Q-7.1 -3.5 -7.1 -3.9 L-6.75 -4.2 -6.5 -4.2 M-8.05 -4.85 L-7.75 -4.45 -7.9 -4.2 -7.85 -3.45 -7.9 -1.4 -7.95 1.5 -7.6 5.35 -7.65 6.05 -7.7 6.05 -8.3 0.45 -8.2 -0.95 -8.5 -4.3 -8.75 -4.9 Q-8.75 -5.55 -8.3 -5.15 L-8.25 -5.25 -8.05 -4.85 M-5.45 -2.3 L-5.0 -1.65 -4.5 -0.4 -3.95 0.95 -3.7 2.1 Q-3.7 2.5 -4.0 2.5 -4.35 2.5 -4.7 2.0 L-4.85 4.45 -4.65 7.65 -4.75 7.9 Q-5.15 7.2 -5.2 6.1 L-5.25 4.3 -5.45 2.35 -5.65 0.7 -6.0 -0.5 -6.15 -0.9 -6.1 -1.45 -5.9 -1.75 Q-5.6 -1.75 -5.6 -1.3 L-5.45 -1.35 -5.8 -2.2 Q-5.8 -2.75 -5.45 -2.3 M-5.1 2.2 L-4.95 1.65 -5.5 0.7 Q-5.15 1.85 -5.15 2.15 L-5.1 2.2 M-5.8 10.85 L-3.15 10.35 Q-1.1 10.1 -1.1 10.65 L-2.65 11.0 -5.25 11.55 -8.3 12.55 Q-10.1 13.1 -11.65 14.15 L-14.25 15.5 -14.3 15.45 -12.25 13.6 Q-11.05 12.5 -8.85 11.85 L-5.8 10.85 M-0.55 8.95 L-0.55 8.9 -0.7 9.0 -0.55 8.95 M-23.6 3.9 L-24.15 3.6 -23.8 3.65 -22.75 3.65 -23.15 3.2 -23.15 3.05 -21.9 3.4 Q-21.45 3.6 -21.4 3.9 L-21.3 4.05 Q-21.3 4.45 -21.95 4.45 L-23.15 4.1 -23.6 3.9 M-25.1 3.55 L-25.45 3.45 Q-25.4 3.25 -25.1 3.3 L-25.1 3.55 M-24.15 5.65 L-23.65 5.75 -23.3 5.65 -22.05 5.85 -22.5 5.4 -22.45 5.35 -21.55 5.5 Q-21.0 5.5 -20.4 5.85 -19.85 6.15 -19.85 6.35 -19.85 6.9 -20.4 6.95 L-20.55 7.05 -20.5 7.65 -20.6 8.8 -20.7 10.2 Q-20.6 11.0 -20.95 12.7 L-20.75 15.35 -20.95 15.55 -21.2 15.35 -21.05 14.5 Q-21.05 13.5 -21.2 12.7 L-21.35 11.65 -21.2 8.7 -21.45 7.15 -22.6 7.05 -23.7 6.6 -23.95 6.55 -23.05 6.3 Q-24.15 5.65 -24.2 5.65 L-24.15 5.65 M-25.1 5.75 Q-25.5 5.75 -25.5 5.55 -25.5 5.35 -25.15 5.35 L-24.8 5.55 -25.1 5.75 M-25.95 7.0 L-26.5 6.85 -26.6 6.8 Q-25.4 6.15 -25.4 6.9 L-25.95 7.0 M-22.0 21.45 Q-22.0 21.75 -22.8 22.3 L-23.35 22.65 -23.35 22.8 -23.3 23.3 -23.45 23.7 -23.1 29.9 Q-23.1 30.25 -23.4 30.25 L-23.7 29.9 -23.5 26.8 -23.75 24.65 -24.05 23.3 -24.0 22.9 -24.1 22.9 -24.3 22.65 -23.65 21.8 Q-22.9 21.3 -22.05 21.3 L-22.0 21.45 M-21.45 18.6 Q-20.35 18.25 -20.35 18.8 -20.35 19.0 -21.05 19.4 L-21.0 19.65 -21.15 20.35 -21.35 20.9 -21.2 22.8 -21.4 26.3 -21.2 28.6 Q-21.2 29.1 -21.45 29.1 -21.75 29.1 -21.7 28.3 L-21.5 25.75 -21.75 20.7 -22.25 19.9 Q-22.65 19.9 -22.55 19.55 -22.55 18.95 -21.45 18.6" fill="#990000" fill-rule="evenodd" stroke="none"/>
  </g>
</svg>
