<?xml version="1.0" encoding="UTF-8" standalone="no"?>
<svg xmlns:ffdec="https://www.free-decompiler.com/flash" xmlns:xlink="http://www.w3.org/1999/xlink" ffdec:objectType="shape" height="28.7px" width="63.55px" xmlns="http://www.w3.org/2000/svg">
  <g transform="matrix(1.0, 0.0, 0.0, 1.0, 27.8, 10.85)">
    <path d="M11.1 -4.4 L4.95 -0.5 4.4 -4.9 7.75 -10.85 11.1 -4.4 M21.45 3.0 L30.65 3.55 35.75 6.25 28.95 4.65 21.85 3.95 11.65 5.85 1.2 9.3 1.2 8.05 0.2 8.0 0.55 5.85 5.55 3.05 9.65 0.2 32.95 -2.7 30.6 1.25 23.8 0.95 13.7 3.55 14.0 4.4 21.45 3.0 M-7.5 -3.75 L-10.05 -5.8 -9.5 -8.35 -4.8 -3.5 -3.05 0.35 -3.35 3.35 -5.25 1.65 -6.75 -0.55 -7.5 -3.75 M-0.1 -3.2 L3.25 -1.8 -0.95 -0.45 -0.1 -3.2 M-17.65 3.85 L-21.15 4.8 -19.1 6.6 -27.8 8.9 -27.35 5.3 -26.2 5.15 -25.9 2.55 -19.85 1.9 -17.65 3.85 M-9.3 13.5 L-14.65 16.45 -22.65 17.85 -17.4 12.25 0.0 7.75 -0.35 10.5 -9.3 13.5" fill="#00ff00" fill-rule="evenodd" stroke="none"/>
  </g>
</svg>
