<?xml version="1.0" encoding="UTF-8" standalone="no"?>
<svg xmlns:ffdec="https://www.free-decompiler.com/flash" xmlns:xlink="http://www.w3.org/1999/xlink" ffdec:objectType="shape" height="35.7px" width="68.45px" xmlns="http://www.w3.org/2000/svg">
  <g transform="matrix(1.0, 0.0, 0.0, 1.0, 27.8, 15.0)">
    <path d="M14.2 -8.65 L4.95 -0.5 4.4 -4.9 10.0 -15.0 14.2 -8.65 M3.25 -1.8 L-0.95 -0.45 1.25 -6.2 3.25 -1.8 M-8.95 -3.4 L-8.95 -4.9 -10.05 -5.8 -9.5 -8.35 -4.8 -3.5 -3.05 0.35 -3.35 3.35 -4.5 2.3 -5.75 2.3 -5.75 0.95 -6.75 -0.55 -7.5 -3.75 -7.8 -4.0 -7.8 -3.4 -8.95 -3.4 M-17.65 3.85 L-21.15 4.8 -19.1 6.6 -20.25 6.9 -20.25 8.4 -21.75 8.4 -21.75 7.3 -27.8 8.9 -27.35 5.3 -26.2 5.15 -25.9 2.55 -19.85 1.9 -17.65 3.85 M-14.65 16.45 L-22.65 17.85 -17.4 12.25 0.0 7.75 -0.35 10.5 -9.3 13.5 -14.65 16.45 M-20.45 18.0 L-19.95 20.2 -21.75 20.7 -23.2 18.9 -20.45 18.0 M30.65 3.55 L35.75 6.25 28.95 4.65 26.7 4.4 26.7 5.0 25.55 5.0 25.55 4.65 22.45 4.65 22.45 5.6 21.15 5.6 21.15 4.1 18.3 4.65 18.3 5.85 16.95 5.85 16.95 4.9 12.65 5.7 12.65 7.5 9.95 7.0 9.95 6.4 1.2 9.3 1.2 8.05 0.2 8.0 0.55 5.85 5.55 3.05 9.65 0.2 32.95 -2.7 30.6 1.25 26.05 1.05 26.05 1.55 24.6 1.55 24.6 0.95 23.8 0.95 18.15 2.4 18.15 2.8 17.0 2.8 17.0 2.7 13.7 3.55 14.0 4.4 21.45 3.0 30.65 3.55 M38.1 9.75 L38.1 10.85 36.5 10.85 36.5 9.75 38.1 9.75 M35.95 7.25 L34.65 7.2 34.2 6.1 40.65 7.95 35.65 9.05 35.95 7.25 M22.95 6.6 L29.4 8.45 35.3 13.0 23.25 12.15 22.95 6.6" fill="#00ff00" fill-rule="evenodd" stroke="none"/>
  </g>
</svg>
