<?xml version="1.0" encoding="UTF-8" standalone="no"?>
<svg xmlns:ffdec="https://www.free-decompiler.com/flash" xmlns:xlink="http://www.w3.org/1999/xlink" ffdec:objectType="shape" height="38.9px" width="68.45px" xmlns="http://www.w3.org/2000/svg">
  <g transform="matrix(1.0, 0.0, 0.0, 1.0, 27.8, 15.0)">
    <path d="M4.95 -0.5 L4.4 -4.9 10.0 -15.0 14.2 -8.65 4.95 -0.5 M3.25 -1.8 L-0.95 -0.45 1.25 -6.2 3.25 -1.8 M-8.75 -2.2 L-8.95 -4.9 -10.05 -5.8 -9.5 -8.35 -4.8 -3.5 -3.05 0.35 -3.35 3.35 -4.5 3.1 -5.8 3.7 -5.75 0.95 -7.7 -1.95 -8.75 -2.2 M-20.15 9.6 L-21.65 9.8 -21.75 7.3 -27.8 8.9 -27.35 5.3 -26.2 5.15 -25.9 2.55 -19.85 1.9 -17.65 3.85 -21.15 4.8 -19.1 6.6 -20.25 6.9 -20.15 9.6 M-14.65 16.45 L-22.65 17.85 -17.4 12.25 0.0 7.75 -0.35 10.5 -9.3 13.5 -14.65 16.45 M-25.05 22.05 L-22.35 20.75 -23.2 18.9 -20.45 18.0 -19.95 20.2 -21.5 21.85 -24.2 23.9 -25.05 22.05 M35.8 11.65 L35.75 8.3 34.7 8.2 34.2 6.1 40.65 7.95 36.7 8.85 36.7 9.5 38.35 9.5 38.35 10.9 36.8 11.65 35.8 11.65 M30.65 3.55 L35.75 6.25 28.95 4.65 26.7 4.4 26.7 5.65 25.7 5.7 25.6 4.65 22.5 4.65 22.65 8.1 21.0 8.0 21.15 4.1 18.3 4.65 18.35 7.8 17.1 7.8 16.95 4.9 12.65 5.7 12.85 9.1 10.0 8.95 9.95 6.4 1.2 9.3 1.2 8.05 0.2 8.0 0.55 5.85 5.55 3.05 9.65 0.2 32.95 -2.7 30.6 1.25 26.05 1.05 26.05 2.0 24.55 2.0 24.55 0.95 23.8 0.95 18.2 2.4 18.2 3.1 17.05 3.1 17.05 2.7 13.7 3.55 14.0 4.4 21.45 3.0 30.65 3.55 M22.95 6.6 L29.4 8.45 35.3 13.0 31.4 12.75 31.4 16.35 30.45 16.45 30.45 12.65 23.25 12.15 22.95 6.6" fill="#00ff00" fill-rule="evenodd" stroke="none"/>
  </g>
</svg>
