<?xml version="1.0" encoding="UTF-8" standalone="no"?>
<svg xmlns:ffdec="https://www.free-decompiler.com/flash" xmlns:xlink="http://www.w3.org/1999/xlink" ffdec:objectType="shape" height="46.0px" width="68.45px" xmlns="http://www.w3.org/2000/svg">
  <g transform="matrix(1.0, 0.0, 0.0, 1.0, 27.8, 15.0)">
    <path d="M10.0 -15.0 L14.2 -8.65 4.95 -0.5 4.4 -4.9 10.0 -15.0 M3.25 -1.8 L-0.95 -0.45 1.25 -6.2 3.25 -1.8 M-4.8 -3.5 L-3.05 0.35 -4.2 8.05 -5.15 8.3 -5.75 0.95 -7.3 6.25 -8.25 6.5 -8.95 -4.9 -10.05 -5.8 -9.5 -8.35 -4.8 -3.5 M-20.25 6.9 L-20.45 15.5 -17.4 12.25 0.0 7.75 -0.35 10.5 -9.3 13.5 -14.65 16.45 -22.65 17.85 -20.55 15.65 -21.45 15.6 -21.75 7.3 -27.8 8.9 -27.35 5.3 -26.2 5.15 -25.9 2.55 -19.85 1.9 -17.65 3.85 -21.15 4.8 -19.1 6.6 -20.25 6.9 M-22.35 20.75 L-23.2 18.9 -20.45 18.0 -19.95 20.2 -21.05 29.75 -23.8 31.0 -25.05 22.05 -22.35 20.75 M38.35 10.9 L36.65 15.85 35.9 16.0 35.6 9.9 34.75 9.55 34.2 6.1 40.65 7.95 36.7 8.85 36.7 9.5 38.35 9.5 38.35 10.9 M30.65 3.55 L35.75 6.25 28.95 4.65 26.7 4.4 26.8 7.7 29.4 8.45 35.3 13.0 31.4 12.75 31.35 22.65 30.75 22.85 30.45 12.65 23.25 12.15 22.95 6.6 25.65 7.4 25.55 4.3 22.45 4.0 23.45 20.25 21.85 20.05 21.15 4.1 18.3 4.65 19.0 18.2 17.7 18.15 16.95 4.9 12.65 5.7 13.0 19.35 10.2 17.55 9.95 6.4 1.2 9.3 1.2 8.05 0.2 8.0 0.55 5.85 5.55 3.05 9.65 0.2 32.95 -2.7 30.6 1.25 23.8 0.95 13.7 3.55 14.0 4.4 21.45 3.0 30.65 3.55" fill="#00ff00" fill-rule="evenodd" stroke="none"/>
  </g>
</svg>
