<?xml version="1.0" encoding="UTF-8" standalone="no"?>
<svg xmlns:ffdec="https://www.free-decompiler.com/flash" xmlns:xlink="http://www.w3.org/1999/xlink" ffdec:objectType="shape" height="49.4px" width="73.3px" xmlns="http://www.w3.org/2000/svg">
  <g transform="matrix(1.0, 0.0, 0.0, 1.0, 6.15, 36.7)">
    <path d="M65.3 -19.95 Q67.4 -21.05 67.1 -18.25 64.85 -11.15 50.55 -9.8 57.9 -6.55 64.9 -8.9 62.5 -1.05 44.9 -3.7 48.55 1.25 53.55 2.7 46.35 6.45 39.65 0.2 39.85 4.4 41.9 7.95 37.05 6.7 34.65 3.05 33.65 6.7 34.8 9.8 32.0 9.5 30.55 7.55 29.4 9.4 30.15 11.2 27.35 10.8 25.4 8.95 L25.8 11.2 Q20.8 13.25 7.0 12.5 -6.8 11.7 -6.1 1.3 -3.1 -12.5 32.9 -18.8 62.15 -24.4 62.3 -36.7 71.9 -28.65 57.9 -19.2 61.8 -18.0 65.3 -19.95" fill="#ffffff" fill-rule="evenodd" stroke="none"/>
  </g>
</svg>
