<?xml version="1.0" encoding="UTF-8" standalone="no"?>
<svg xmlns:ffdec="https://www.free-decompiler.com/flash" xmlns:xlink="http://www.w3.org/1999/xlink" ffdec:objectType="shape" height="23.4px" width="14.0px" xmlns="http://www.w3.org/2000/svg">
  <g transform="matrix(1.0, 0.0, 0.0, 1.0, 10.05, 17.35)">
    <path d="M1.05 -13.7 Q0.9 -14.45 1.5 -13.55 2.85 -10.85 1.55 -7.5 2.85 -7.95 3.5 -10.2 4.85 -7.1 1.6 -4.95 L3.95 -4.85 Q3.1 -2.4 1.05 -2.9 1.6 -1.85 2.5 -1.35 1.25 -0.85 0.4 -1.35 0.55 -0.25 1.3 0.1 L0.1 0.25 Q0.1 0.8 0.45 1.15 L-0.9 1.35 -0.5 1.75 Q-1.5 3.0 -4.85 5.05 -8.2 7.25 -9.7 4.6 -11.5 0.95 -3.7 -6.5 1.35 -14.25 -1.8 -17.35 -0.05 -17.5 0.75 -11.85 1.1 -12.3 1.05 -13.7" fill="#ffffff" fill-rule="evenodd" stroke="none"/>
  </g>
</svg>
