<?xml version="1.0" encoding="UTF-8" standalone="no"?>
<svg xmlns:ffdec="https://www.free-decompiler.com/flash" xmlns:xlink="http://www.w3.org/1999/xlink" ffdec:objectType="shape" height="17.75px" width="20.9px" xmlns="http://www.w3.org/2000/svg">
  <g transform="matrix(1.0, 0.0, 0.0, 1.0, 10.4, 9.55)">
    <path d="M9.85 -2.5 Q10.5 -3.05 10.5 -1.8 9.7 1.85 5.85 2.05 7.1 3.65 9.3 3.0 6.95 6.15 3.8 4.25 3.7 6.15 4.15 7.0 1.85 7.75 1.9 5.3 1.0 6.65 0.7 7.95 0.0 7.25 0.1 5.95 L-1.25 8.05 Q-1.8 7.8 -1.7 7.1 -2.35 7.45 -2.6 8.2 L-3.15 7.2 -3.45 7.9 Q-4.75 8.05 -7.45 7.15 -11.0 5.95 -10.3 3.3 -7.4 -0.65 1.75 -1.6 8.8 -2.7 7.25 -9.55 12.0 -6.3 7.75 -1.85 8.8 -1.5 9.85 -2.5" fill="#ffffff" fill-rule="evenodd" stroke="none"/>
  </g>
</svg>
