<?xml version="1.0" encoding="UTF-8" standalone="no"?>
<svg xmlns:ffdec="https://www.free-decompiler.com/flash" xmlns:xlink="http://www.w3.org/1999/xlink" ffdec:objectType="shape" height="19.35px" width="22.9px" xmlns="http://www.w3.org/2000/svg">
  <g transform="matrix(1.0, 0.0, 0.0, 1.0, 11.85, -1.7)">
    <path d="M6.45 19.5 Q7.6 19.6 6.35 20.25 1.8 20.95 -1.75 17.4 -1.7 19.25 1.2 21.05 -2.4 20.7 -4.35 16.3 -5.35 17.3 -5.1 18.65 -7.55 16.95 -6.15 15.05 -7.4 15.25 -8.45 15.8 -8.4 14.45 -7.5 13.85 L-9.6 13.9 Q-9.6 13.05 -9.2 12.75 -9.8 12.3 -10.35 12.6 -10.35 11.75 -9.95 11.25 L-10.6 11.3 Q-11.45 9.65 -11.85 5.8 -12.05 1.85 -9.6 1.7 -7.65 2.1 -0.5 12.45 6.75 18.65 10.95 14.8 11.9 18.85 4.05 18.05 4.45 19.0 6.45 19.5" fill="#ffffff" fill-rule="evenodd" stroke="none"/>
  </g>
</svg>
