<?xml version="1.0" encoding="UTF-8" standalone="no"?>
<svg xmlns:ffdec="https://www.free-decompiler.com/flash" xmlns:xlink="http://www.w3.org/1999/xlink" ffdec:objectType="shape" height="22.65px" width="9.65px" xmlns="http://www.w3.org/2000/svg">
  <g transform="matrix(1.0, 0.0, 0.0, 1.0, 15.05, -1.35)">
    <path d="M-14.3 9.05 Q-14.35 7.5 -12.7 3.95 -11.1 0.4 -8.4 1.7 -5.1 3.85 -7.1 14.0 -8.65 22.25 -5.4 23.55 -8.55 25.25 -9.55 20.6 -10.3 21.5 -10.15 22.65 -10.05 23.3 -10.75 22.95 -12.4 21.6 -11.3 17.7 -12.9 19.3 -13.0 21.4 -14.85 19.95 -12.3 15.6 -14.0 16.05 -14.9 17.2 -15.15 14.9 -12.8 13.8 L-15.05 13.6 Q-14.25 12.45 -13.05 12.2 -13.9 11.55 -14.85 11.55 -14.5 10.85 -13.8 10.65 -14.2 10.15 -14.7 10.2 -14.35 9.45 -13.65 9.15 L-14.3 9.05" fill="#ffffff" fill-rule="evenodd" stroke="none"/>
  </g>
</svg>
