<?xml version="1.0" encoding="UTF-8" standalone="no"?>
<svg xmlns:ffdec="https://www.free-decompiler.com/flash" xmlns:xlink="http://www.w3.org/1999/xlink" ffdec:objectType="shape" height="22.95px" width="14.35px" xmlns="http://www.w3.org/2000/svg">
  <g transform="matrix(1.0, 0.0, 0.0, 1.0, 20.25, -1.0)">
    <path d="M-14.15 7.95 Q-14.4 7.75 -14.85 7.7 L-12.3 3.1 Q-10.5 -0.15 -7.85 1.6 -3.4 4.5 -9.1 14.0 -15.25 21.5 -12.95 23.8 -17.5 24.8 -14.6 19.8 -15.6 20.5 -16.2 21.75 -16.5 22.35 -17.2 21.9 -18.45 19.95 -14.65 16.55 -17.65 17.6 -19.85 19.6 -21.55 17.55 -15.0 14.3 -17.45 14.25 -20.25 15.15 -18.85 12.9 -14.8 12.6 -16.05 11.95 -18.1 11.9 -15.85 10.9 -14.4 11.05 -15.2 10.2 -16.6 9.95 -15.6 9.35 -14.75 9.35 -15.1 8.65 -15.85 8.7 -14.9 8.05 -14.15 7.95" fill="#ffffff" fill-rule="evenodd" stroke="none"/>
  </g>
</svg>
