<?xml version="1.0" encoding="UTF-8" standalone="no"?>
<svg xmlns:ffdec="https://www.free-decompiler.com/flash" xmlns:xlink="http://www.w3.org/1999/xlink" ffdec:objectType="shape" height="23.0px" width="15.55px" xmlns="http://www.w3.org/2000/svg">
  <g transform="matrix(1.0, 0.0, 0.0, 1.0, 22.4, -0.9)">
    <path d="M-15.7 7.7 L-16.25 7.4 Q-15.5 5.95 -12.75 2.9 -10.1 -0.25 -7.8 1.6 -4.9 4.35 -10.75 14.05 -17.15 20.3 -17.4 23.9 -18.6 22.25 -18.3 19.6 -19.55 19.75 -20.4 20.9 L-21.4 20.85 Q-21.95 18.95 -17.7 16.45 -20.45 17.15 -22.4 18.65 -22.35 16.9 -17.3 14.3 -18.95 13.9 -20.55 14.85 -19.15 12.45 -16.9 12.4 -17.6 11.5 -18.85 11.35 -17.65 10.45 -16.4 10.75 -17.05 9.9 -17.85 9.6 -17.1 8.9 -16.5 9.0 -16.45 8.3 -17.2 8.4 -16.35 7.75 -15.7 7.7" fill="#ffffff" fill-rule="evenodd" stroke="none"/>
  </g>
</svg>
