<?xml version="1.0" encoding="UTF-8" standalone="no"?>
<svg xmlns:ffdec="https://www.free-decompiler.com/flash" xmlns:xlink="http://www.w3.org/1999/xlink" ffdec:objectType="shape" height="22.65px" width="14.25px" xmlns="http://www.w3.org/2000/svg">
  <g transform="matrix(1.0, 0.0, 0.0, 1.0, 21.25, -0.9)">
    <path d="M-15.25 7.7 L-15.85 7.4 Q-15.1 5.85 -12.65 2.95 -10.3 -0.25 -7.95 1.6 -5.05 4.5 -11.15 15.65 -11.95 17.1 -14.9 19.75 -17.8 22.4 -18.4 23.55 -18.5 21.4 -16.2 19.4 -18.35 19.15 -21.1 20.95 -20.45 18.65 -16.65 16.35 -19.6 16.95 -21.1 18.8 -22.15 17.0 -16.65 14.15 -18.85 14.0 -20.4 14.8 -19.4 12.65 -16.3 12.4 -17.3 11.55 -18.7 11.55 -17.2 10.55 -15.9 10.75 -16.55 9.85 -17.5 9.65 -16.8 8.95 -16.05 9.1 -16.15 8.4 -16.85 8.45 -16.1 7.9 -15.25 7.7" fill="#ffffff" fill-rule="evenodd" stroke="none"/>
  </g>
</svg>
