<?xml version="1.0" encoding="UTF-8" standalone="no"?>
<svg xmlns:ffdec="https://www.free-decompiler.com/flash" xmlns:xlink="http://www.w3.org/1999/xlink" ffdec:objectType="shape" height="22.6px" width="11.5px" xmlns="http://www.w3.org/2000/svg">
  <g transform="matrix(1.0, 0.0, 0.0, 1.0, 18.2, -1.1)">
    <path d="M-14.1 8.05 L-14.75 7.8 Q-14.5 6.45 -12.65 3.45 -10.8 0.1 -8.15 1.55 -5.15 3.85 -8.4 14.05 -9.35 17.05 -16.15 23.7 -16.1 21.85 -14.65 19.5 -15.9 19.75 -16.75 20.95 -17.15 21.55 -17.3 20.95 -17.3 18.6 -13.65 16.4 -16.05 16.75 -18.2 18.05 -18.5 16.1 -13.55 14.35 -15.65 13.85 -17.15 14.75 -16.25 13.0 -13.55 12.65 -14.8 11.75 -16.0 12.0 -14.95 10.75 -13.65 11.05 -14.6 10.05 -15.55 10.0 -15.1 9.4 -14.4 9.35 -14.7 8.75 -15.35 8.75 -14.75 8.1 -14.1 8.05" fill="#ffffff" fill-rule="evenodd" stroke="none"/>
  </g>
</svg>
