<?xml version="1.0" encoding="UTF-8" standalone="no"?>
<svg xmlns:ffdec="https://www.free-decompiler.com/flash" xmlns:xlink="http://www.w3.org/1999/xlink" ffdec:objectType="shape" height="22.6px" width="10.15px" xmlns="http://www.w3.org/2000/svg">
  <g transform="matrix(1.0, 0.0, 0.0, 1.0, 15.3, -1.25)">
    <path d="M-13.0 11.5 Q-12.8 10.75 -12.0 10.8 -12.5 10.3 -13.2 10.2 -12.8 9.5 -12.15 9.35 L-13.0 9.05 Q-13.3 7.75 -12.35 4.25 -11.25 0.4 -8.5 1.5 -4.1 3.2 -5.45 13.85 L-6.6 16.35 Q-8.9 19.7 -13.45 23.85 -13.2 22.2 -11.75 20.8 L-13.1 21.1 Q-14.1 21.55 -14.4 21.85 -14.85 21.15 -11.3 18.65 -13.1 19.85 -15.3 21.05 -15.15 19.55 -10.2 16.0 L-14.0 16.85 Q-12.7 15.0 -10.35 14.15 L-13.05 13.55 Q-11.75 12.65 -10.8 12.55 -11.9 11.65 -13.0 11.5" fill="#ffffff" fill-rule="evenodd" stroke="none"/>
  </g>
</svg>
