<?xml version="1.0" encoding="UTF-8" standalone="no"?>
<svg xmlns:ffdec="https://www.free-decompiler.com/flash" xmlns:xlink="http://www.w3.org/1999/xlink" ffdec:objectType="shape" height="21.65px" width="9.8px" xmlns="http://www.w3.org/2000/svg">
  <g transform="matrix(1.0, 0.0, 0.0, 1.0, 13.8, -1.5)">
    <path d="M-11.3 11.8 Q-11.7 11.35 -12.3 11.65 -12.15 10.8 -11.6 10.3 L-12.3 10.4 Q-12.8 8.95 -12.3 5.1 -11.95 1.15 -8.95 1.55 -5.1 2.55 -4.0 12.9 -4.05 14.85 -5.9 18.4 -7.6 21.75 -7.45 23.15 -9.8 22.25 -8.8 20.8 -10.2 21.25 -11.05 22.75 -10.75 20.3 -9.75 18.3 -12.45 20.55 -12.5 22.8 -14.9 22.0 -10.1 16.4 -12.15 17.45 -13.8 19.1 -13.1 16.6 -10.15 14.65 -11.3 14.55 -12.65 15.2 -11.35 13.65 -10.2 13.1 L-12.1 13.0 -11.3 11.8" fill="#ffffff" fill-rule="evenodd" stroke="none"/>
  </g>
</svg>
