<?xml version="1.0" encoding="UTF-8" standalone="no"?>
<svg xmlns:ffdec="https://www.free-decompiler.com/flash" xmlns:xlink="http://www.w3.org/1999/xlink" ffdec:objectType="shape" height="20.95px" width="11.15px" xmlns="http://www.w3.org/2000/svg">
  <g transform="matrix(1.0, 0.0, 0.0, 1.0, 11.75, -1.75)">
    <path d="M-9.35 1.75 Q-5.25 1.65 -1.65 11.4 -1.15 12.75 -1.45 17.0 -1.7 20.2 -0.6 20.6 -4.1 23.6 -5.5 19.75 -6.35 21.1 -6.0 22.05 -5.65 22.5 -6.45 22.7 -9.2 22.55 -7.1 17.8 -9.85 20.55 -9.15 22.5 -12.25 22.6 -7.9 16.25 L-11.75 19.75 Q-11.5 17.55 -8.0 14.75 -9.3 15.1 -11.0 16.05 -9.4 14.0 -8.15 13.3 -9.05 13.05 -10.3 13.75 L-9.2 12.25 -10.2 12.35 -9.7 10.9 -10.3 11.05 Q-11.2 9.7 -11.7 5.9 -12.15 2.05 -9.35 1.75" fill="#ffffff" fill-rule="evenodd" stroke="none"/>
  </g>
</svg>
