<?xml version="1.0" encoding="UTF-8" standalone="no"?>
<svg xmlns:ffdec="https://www.free-decompiler.com/flash" xmlns:xlink="http://www.w3.org/1999/xlink" ffdec:objectType="shape" height="19.0px" width="16.95px" xmlns="http://www.w3.org/2000/svg">
  <g transform="matrix(1.0, 0.0, 0.0, 1.0, 11.4, -1.7)">
    <path d="M0.85 12.05 Q2.85 17.8 5.55 17.3 1.6 21.6 0.0 17.45 -0.85 18.8 -0.5 19.9 -0.35 20.4 -1.2 20.65 -3.35 20.45 -2.5 16.05 -4.5 18.9 -3.9 20.7 -6.55 21.1 -4.15 15.1 -6.35 17.0 -7.3 18.85 -8.05 17.15 -5.15 14.05 -6.5 14.55 -8.25 15.8 -7.15 13.95 -5.8 12.85 -6.95 13.0 -8.3 13.75 -7.75 12.7 -7.2 12.2 -7.75 12.0 -8.5 12.55 L-7.7 10.9 -8.4 11.3 -10.85 6.55 Q-12.4 3.0 -9.75 1.85 -5.85 0.65 0.05 9.45 L0.85 12.05" fill="#ffffff" fill-rule="evenodd" stroke="none"/>
  </g>
</svg>
