<?xml version="1.0" encoding="UTF-8" standalone="no"?>
<svg xmlns:ffdec="https://www.free-decompiler.com/flash" xmlns:xlink="http://www.w3.org/1999/xlink" ffdec:objectType="shape" height="16.75px" width="20.5px" xmlns="http://www.w3.org/2000/svg">
  <g transform="matrix(1.0, 0.0, 0.0, 1.0, 11.2, -1.65)">
    <path d="M9.3 15.1 Q8.25 18.4 4.15 15.7 4.05 16.7 5.15 17.45 5.65 17.75 4.9 18.0 2.6 18.1 0.7 14.35 0.2 16.5 2.25 18.4 -0.35 18.35 -1.55 13.65 -2.85 15.3 -2.3 16.75 -4.45 15.65 -3.15 13.15 -4.25 13.75 -5.1 15.1 -5.1 13.6 -4.25 12.45 -5.2 12.7 -6.1 13.75 L-5.75 12.25 -6.7 12.75 -6.45 11.15 -7.05 11.7 Q-7.45 10.7 -9.85 7.3 -12.4 4.05 -10.1 2.35 -6.3 -0.4 0.9 7.85 6.2 17.2 9.3 15.1" fill="#ffffff" fill-rule="evenodd" stroke="none"/>
  </g>
</svg>
