<?xml version="1.0" encoding="UTF-8" standalone="no"?>
<svg xmlns:ffdec="https://www.free-decompiler.com/flash" xmlns:xlink="http://www.w3.org/1999/xlink" ffdec:objectType="shape" height="12.75px" width="21.35px" xmlns="http://www.w3.org/2000/svg">
  <g transform="matrix(1.0, 0.0, 0.0, 1.0, 10.8, -1.4)">
    <path d="M6.9 10.45 Q7.55 11.65 8.75 12.2 9.25 12.35 8.9 12.9 7.2 13.75 4.05 9.95 5.1 12.45 7.1 14.1 5.3 14.75 1.85 9.6 1.9 11.35 2.75 13.1 0.45 11.85 0.1 9.35 -0.5 10.35 -0.65 11.7 -1.45 10.55 -1.4 9.35 -2.15 10.15 -2.45 11.1 L-3.0 9.85 Q-3.4 10.05 -3.6 10.65 L-4.3 9.4 -4.5 9.95 -8.75 7.35 Q-11.85 5.05 -10.3 2.75 -7.4 -0.3 1.7 3.65 8.35 11.0 10.35 7.95 11.35 11.8 6.9 10.45" fill="#ffffff" fill-rule="evenodd" stroke="none"/>
  </g>
</svg>
