<?xml version="1.0" encoding="UTF-8" standalone="no"?>
<svg xmlns:ffdec="https://www.free-decompiler.com/flash" xmlns:xlink="http://www.w3.org/1999/xlink" ffdec:objectType="shape" height="10.9px" width="22.0px" xmlns="http://www.w3.org/2000/svg">
  <g transform="matrix(1.0, 0.0, 0.0, 1.0, 10.45, -0.5)">
    <path d="M10.45 9.45 Q10.8 9.85 10.35 10.2 9.2 10.8 6.45 6.75 7.4 9.55 8.5 11.35 7.2 11.85 4.5 6.7 4.65 8.6 4.95 10.3 3.4 8.85 2.85 6.55 L2.05 8.7 Q1.35 7.6 1.2 6.65 0.4 7.55 0.2 8.45 L-0.45 7.6 Q-0.9 7.9 -1.15 8.55 L-2.0 7.6 -2.25 8.2 Q-3.6 8.35 -7.35 7.25 -11.15 6.0 -10.3 3.3 -8.3 -0.4 2.35 0.75 11.4 6.35 11.1 5.15 12.55 9.95 9.2 7.15 9.65 8.6 10.45 9.45" fill="#ffffff" fill-rule="evenodd" stroke="none"/>
  </g>
</svg>
