<?xml version="1.0" encoding="UTF-8" standalone="no"?>
<svg xmlns:ffdec="https://www.free-decompiler.com/flash" xmlns:xlink="http://www.w3.org/1999/xlink" ffdec:objectType="shape" height="9.5px" width="21.4px" xmlns="http://www.w3.org/2000/svg">
  <g transform="matrix(1.0, 0.0, 0.0, 1.0, 10.4, 1.85)">
    <path d="M0.4 -1.85 Q9.15 0.25 9.7 -1.1 12.0 0.65 8.1 1.75 9.25 2.9 10.4 2.65 11.0 2.45 11.0 3.25 10.3 5.6 5.8 2.95 8.35 5.85 10.3 5.75 9.5 8.35 4.1 3.55 5.05 5.7 6.95 7.65 4.6 6.7 2.45 3.7 2.25 4.85 3.25 6.6 1.55 5.0 1.0 3.95 0.45 5.0 1.1 6.0 0.25 5.7 -0.05 5.15 L-0.05 6.3 Q-0.6 5.85 -1.35 5.6 L-1.25 6.25 -6.55 6.8 Q-10.3 6.6 -10.4 3.75 -9.4 -0.75 0.4 -1.85" fill="#ffffff" fill-rule="evenodd" stroke="none"/>
  </g>
</svg>
