<?xml version="1.0" encoding="UTF-8" standalone="no"?>
<svg xmlns:ffdec="https://www.free-decompiler.com/flash" xmlns:xlink="http://www.w3.org/1999/xlink" ffdec:objectType="shape" height="13.55px" width="20.3px" xmlns="http://www.w3.org/2000/svg">
  <g transform="matrix(1.0, 0.0, 0.0, 1.0, 10.25, 7.15)">
    <path d="M1.65 -4.3 L1.65 -4.25 Q7.8 -4.8 7.35 -7.15 11.25 -3.9 7.15 -3.2 8.35 -2.5 9.5 -2.95 10.0 -3.25 10.05 -2.7 9.9 -1.2 5.35 -1.25 8.0 -0.05 9.85 -1.0 9.85 1.4 4.0 0.2 5.35 1.6 7.1 1.95 4.85 2.55 2.55 1.1 2.8 2.15 3.65 2.95 1.85 2.65 1.2 1.9 1.0 2.75 1.55 3.55 L0.15 3.2 Q-0.2 3.6 0.3 4.15 L-1.1 3.9 -0.8 4.45 Q-1.9 5.3 -5.8 6.3 -9.55 6.95 -10.25 4.2 -10.3 0.15 -0.95 -4.15 L1.65 -4.25 1.65 -4.3" fill="#ffffff" fill-rule="evenodd" stroke="none"/>
  </g>
</svg>
