<?xml version="1.0" encoding="UTF-8" standalone="no"?>
<svg xmlns:ffdec="https://www.free-decompiler.com/flash" xmlns:xlink="http://www.w3.org/1999/xlink" ffdec:objectType="shape" height="17.85px" width="21.0px" xmlns="http://www.w3.org/2000/svg">
  <g transform="matrix(1.0, 0.0, 0.0, 1.0, 18.15, 12.6)">
    <path d="M-18.15 -4.8 Q-18.15 -6.05 -17.45 -5.5 -16.4 -4.5 -15.35 -4.85 -19.65 -9.3 -14.85 -12.6 -16.4 -5.7 -9.35 -4.6 -0.2 -3.65 2.7 0.3 3.45 2.95 -0.15 4.2 -2.85 5.1 -4.15 4.95 L-4.45 4.25 -5.0 5.25 Q-5.25 4.5 -5.9 4.15 -5.8 4.85 -6.35 5.1 -6.8 4.0 -7.7 2.95 -7.6 4.3 -8.3 5.0 -8.6 3.65 -9.5 2.3 -9.45 4.8 -11.75 4.0 -11.3 3.15 -11.4 1.25 -14.55 3.15 -16.9 0.0 -14.7 0.65 -13.45 -0.95 -17.3 -1.15 -18.15 -4.8" fill="#ffffff" fill-rule="evenodd" stroke="none"/>
  </g>
</svg>
