<?xml version="1.0" encoding="UTF-8" standalone="no"?>
<svg xmlns:ffdec="https://www.free-decompiler.com/flash" xmlns:xlink="http://www.w3.org/1999/xlink" ffdec:objectType="shape" height="85.0px" width="85.0px" xmlns="http://www.w3.org/2000/svg">
  <g transform="matrix(1.0, 0.0, 0.0, 1.0, 42.5, 42.5)">
    <path d="M34.85 -0.05 Q34.85 -11.9 24.65 -20.35 14.4 -28.7 0.0 -28.65 -14.4 -28.7 -24.6 -20.35 -34.85 -11.9 -34.85 -0.05 -34.85 11.75 -24.6 20.05 -14.4 28.55 0.0 28.6 14.4 28.55 24.65 20.05 34.85 11.75 34.85 -0.05 M30.05 -30.15 Q42.5 -17.55 42.5 0.0 42.5 17.5 30.05 29.85 17.6 42.45 0.0 42.5 -17.6 42.45 -30.05 29.85 -42.5 17.5 -42.5 0.0 -42.5 -17.55 -30.05 -30.15 -17.6 -42.5 0.0 -42.5 17.6 -42.5 30.05 -30.15" fill="#ffffff" fill-rule="evenodd" stroke="none"/>
  </g>
</svg>
