<?xml version="1.0" encoding="UTF-8" standalone="no"?>
<svg xmlns:ffdec="https://www.free-decompiler.com/flash" xmlns:xlink="http://www.w3.org/1999/xlink" ffdec:objectType="shape" height="54.25px" width="25.95px" xmlns="http://www.w3.org/2000/svg">
  <g transform="matrix(1.0, 0.0, 0.0, 1.0, 12.95, 27.1)">
    <path d="M-3.9 -3.5 Q-5.85 -3.65 -7.45 -1.15 -9.0 1.45 -9.3 5.15 -9.6 8.9 -8.45 11.65 -7.25 14.5 -5.3 14.65 -3.35 14.8 -1.8 12.2 -0.2 9.65 0.1 5.9 0.4 2.2 -0.8 -0.6 -1.95 -3.35 -3.9 -3.5 M-7.6 -7.8 Q-2.25 -19.1 -0.85 -27.1 0.8 -19.4 6.35 -8.55 11.65 1.7 12.65 7.9 14.05 16.65 9.95 22.15 6.25 27.15 0.15 27.15 -5.95 27.15 -9.55 22.2 -13.45 16.9 -12.85 7.9 -12.5 2.5 -7.6 -7.8" fill="#9ac2fe" fill-rule="evenodd" stroke="none"/>
    <path d="M-3.9 -3.5 Q-1.95 -3.35 -0.8 -0.6 0.4 2.2 0.1 5.9 -0.2 9.65 -1.8 12.2 -3.35 14.8 -5.3 14.65 -7.25 14.5 -8.45 11.65 -9.6 8.9 -9.3 5.15 -9.0 1.45 -7.45 -1.15 -5.85 -3.65 -3.9 -3.5" fill="#ffffff" fill-rule="evenodd" stroke="none"/>
  </g>
</svg>
