<?xml version="1.0" encoding="UTF-8" standalone="no"?>
<svg xmlns:ffdec="https://www.free-decompiler.com/flash" xmlns:xlink="http://www.w3.org/1999/xlink" ffdec:objectType="shape" height="20.7px" width="25.55px" xmlns="http://www.w3.org/2000/svg">
  <g transform="matrix(1.0, 0.0, 0.0, 1.0, 14.3, 10.25)">
    <path d="M-4.4 -0.35 L-4.4 -0.45 -4.3 -0.4 -4.4 -0.35 M2.7 -2.2 L3.1 -2.2 2.85 -1.65 Q2.75 -0.8 3.65 -0.65 L3.6 -0.3 3.6 0.1 Q3.35 0.1 3.2 0.25 L2.7 0.85 1.9 0.75 Q1.0 1.15 1.95 1.75 1.7 1.85 1.7 2.1 L1.45 2.7 1.2 2.55 Q0.65 1.85 0.1 2.55 -0.15 2.3 -0.5 2.4 L-0.75 2.45 -0.95 2.4 -1.3 1.85 -1.8 2.15 -2.4 2.0 -2.45 1.4 Q-2.15 1.3 -2.4 0.25 -2.5 -0.25 -2.2 -0.55 -1.25 -1.6 -1.7 -2.35 L-0.5 -3.25 -0.45 -3.2 Q0.35 -3.0 1.1 -3.2 L1.0 -2.7 Q0.95 -2.45 1.05 -2.25 L2.7 -2.2" fill="#000000" fill-rule="evenodd" stroke="none"/>
    <path d="M-4.4 -0.45 Q-5.0 -0.75 -5.05 -1.35 L-4.85 -2.05 Q-9.8 -5.8 -14.25 -9.95 L-14.05 -10.2 -13.9 -10.25 -6.0 -4.6 -5.9 -4.5 Q-6.65 -6.25 -5.2 -5.1 L-2.95 -3.5 Q-2.05 -2.95 -1.15 -3.9 L0.2 -4.0 Q1.6 -4.85 3.05 -4.9 L3.5 -5.05 Q6.6 -7.0 9.85 -8.4 L9.9 -8.25 Q9.6 -7.2 8.35 -6.55 5.8 -5.2 3.6 -3.35 4.65 -2.5 5.05 -1.25 5.3 -0.55 4.65 -0.15 L4.95 0.85 5.05 1.6 Q9.1 3.8 11.2 7.6 L11.1 7.7 8.55 6.65 Q7.35 5.9 6.2 5.4 7.75 6.85 6.25 7.0 6.0 7.05 5.8 6.75 4.3 4.6 2.3 3.35 1.95 3.8 1.4 3.75 L1.2 3.8 Q1.2 7.3 -0.2 10.4 L-0.35 10.35 Q-0.85 9.4 -0.7 8.2 -0.5 6.25 -0.9 4.5 -3.65 6.4 -6.05 9.15 -7.35 10.6 -8.85 10.45 L-8.85 10.25 Q-6.25 6.85 -3.3 3.75 -3.25 3.7 -3.35 3.6 L-3.45 3.45 Q-6.4 4.4 -9.05 3.9 L-9.05 3.75 Q-6.75 2.5 -4.1 1.9 L-4.25 1.55 -4.15 1.1 Q-4.9 1.25 -5.5 0.55 -5.95 0.0 -5.2 -0.2 L-4.4 -0.35 -4.3 -0.4 -4.4 -0.45 M2.7 -2.2 L2.85 -2.4 Q4.1 -3.65 2.3 -3.4 L2.25 -3.45 Q2.1 -3.9 1.6 -3.9 1.35 -3.9 1.25 -3.7 L1.1 -3.2 Q0.35 -3.0 -0.45 -3.2 L-0.5 -3.25 -1.7 -2.35 -1.95 -2.65 Q-2.5 -2.5 -2.85 -2.05 -4.0 -0.6 -3.25 0.6 L-3.1 1.05 Q-2.65 1.4 -2.45 1.4 L-2.4 2.0 -1.8 2.15 -2.65 3.15 Q-3.35 4.35 -2.2 4.45 -1.7 4.45 -1.45 4.1 -0.75 3.1 -0.95 2.4 L-0.75 2.45 -0.5 2.4 Q-0.15 2.3 0.1 2.55 0.65 1.85 1.2 2.55 L1.45 2.7 1.7 2.1 Q1.7 1.85 1.95 1.75 1.0 1.15 1.9 0.75 L2.7 0.85 3.2 0.25 Q3.35 0.1 3.6 0.1 L3.6 -0.3 3.65 -0.65 Q2.75 -0.8 2.85 -1.65 L3.1 -2.2 2.7 -2.2 M6.55 4.15 L6.65 4.05 Q5.65 2.7 4.0 1.8 L4.0 1.75 Q4.25 1.15 3.6 1.0 2.85 1.0 2.55 1.55 2.35 1.9 2.65 2.25 L4.15 3.5 6.55 4.15" fill="#660000" fill-rule="evenodd" stroke="none"/>
    <path d="M1.1 -3.2 L1.25 -3.7 Q1.35 -3.9 1.6 -3.9 2.1 -3.9 2.25 -3.45 L2.3 -3.4 Q4.1 -3.65 2.85 -2.4 L2.7 -2.2 1.05 -2.25 Q0.95 -2.45 1.0 -2.7 L1.1 -3.2 M-0.95 2.4 Q-0.75 3.1 -1.45 4.1 -1.7 4.45 -2.2 4.45 -3.35 4.35 -2.65 3.15 L-1.8 2.15 -1.3 1.85 -0.95 2.4 M-2.45 1.4 Q-2.65 1.4 -3.1 1.05 L-3.25 0.6 Q-4.0 -0.6 -2.85 -2.05 -2.5 -2.5 -1.95 -2.65 L-1.7 -2.35 Q-1.25 -1.6 -2.2 -0.55 -2.5 -0.25 -2.4 0.25 -2.15 1.3 -2.45 1.4 M6.55 4.15 L4.15 3.5 2.65 2.25 Q2.35 1.9 2.55 1.55 2.85 1.0 3.6 1.0 4.25 1.15 4.0 1.75 L4.0 1.8 Q5.65 2.7 6.65 4.05 L6.55 4.15" fill="#cc0000" fill-rule="evenodd" stroke="none"/>
  </g>
</svg>
