<?xml version="1.0" encoding="UTF-8" standalone="no"?>
<svg xmlns:ffdec="https://www.free-decompiler.com/flash" xmlns:xlink="http://www.w3.org/1999/xlink" ffdec:objectType="shape" height="101.3px" width="69.95px" xmlns="http://www.w3.org/2000/svg">
  <g transform="matrix(1.0, 0.0, 0.0, 1.0, 6.9, 61.9)">
    <path d="M55.4 -60.9 Q55.7 -59.45 53.65 -57.5 41.15 -45.45 54.9 -46.1 59.05 -45.7 55.85 -42.75 36.15 -23.05 61.35 -16.25 65.4 -14.65 59.9 -12.1 46.3 -5.95 42.75 3.45 39.1 12.95 46.25 24.9 48.4 28.45 47.65 29.4 46.9 30.4 44.0 28.0 22.35 10.25 9.35 28.9 8.15 30.7 11.85 31.25 15.1 31.35 13.85 33.0 16.75 34.8 23.1 33.1 20.6 41.9 10.25 38.4 8.25 39.65 7.4 38.0 3.7 40.2 4.5 34.05 3.75 32.45 5.15 29.9 9.95 7.35 -2.45 9.1 -2.35 10.4 -3.15 10.6 -4.6 13.15 -4.15 17.25 -7.8 14.85 -6.45 10.1 -7.4 9.05 -6.25 8.5 -7.25 1.95 -3.0 -2.25 8.7 -49.95 53.25 -61.75 55.15 -62.25 55.4 -60.9 M2.5 -6.65 Q14.15 -21.8 28.85 -31.6 17.55 -30.25 19.35 -39.85 5.75 -26.05 0.5 -7.9 L2.5 -6.65 M7.0 -1.5 Q22.2 -9.3 39.35 -12.0 24.3 -14.2 30.5 -29.75 15.55 -19.4 5.0 -4.5 L7.0 -1.5 M7.85 -0.15 L8.25 1.35 Q21.5 -0.55 33.4 11.1 29.55 -2.45 39.4 -10.15 23.15 -7.25 7.85 -0.15 M8.35 3.35 L6.1 5.5 Q10.5 10.1 9.95 16.2 16.15 9.9 32.0 12.15 19.8 2.35 8.35 3.35" fill="#000000" fill-rule="evenodd" stroke="none"/>
    <path d="M7.85 -0.15 Q23.15 -7.25 39.4 -10.15 29.55 -2.45 33.4 11.1 21.5 -0.55 8.25 1.35 L7.85 -0.15 M7.0 -1.5 L5.0 -4.5 Q15.55 -19.4 30.5 -29.75 24.3 -14.2 39.35 -12.0 22.2 -9.3 7.0 -1.5 M2.5 -6.65 L0.5 -7.9 Q5.75 -26.05 19.35 -39.85 17.55 -30.25 28.85 -31.6 14.15 -21.8 2.5 -6.65 M8.35 3.35 Q19.8 2.35 32.0 12.15 16.15 9.9 9.95 16.2 10.5 10.1 6.1 5.5 L8.35 3.35" fill="#ffffff" fill-rule="evenodd" stroke="none"/>
  </g>
</svg>
