<?xml version="1.0" encoding="UTF-8" standalone="no"?>
<svg xmlns:ffdec="https://www.free-decompiler.com/flash" xmlns:xlink="http://www.w3.org/1999/xlink" ffdec:objectType="shape" height="22.35px" width="38.9px" xmlns="http://www.w3.org/2000/svg">
  <g transform="matrix(1.0, 0.0, 0.0, 1.0, 19.4, 17.05)">
    <path d="M-13.7 5.3 Q-8.8 4.25 -3.3 1.35 -12.1 -0.45 -16.4 -14.95 -23.5 -4.25 -13.7 5.3" fill="#000000" fill-rule="evenodd" stroke="none"/>
    <path d="M-12.85 4.0 Q-8.75 4.25 -5.3 2.25 -12.65 -0.65 -16.85 -11.7 -19.85 -2.45 -12.85 4.0" fill="#ffffff" fill-rule="evenodd" stroke="none"/>
    <path d="M-16.85 -6.9 Q-16.1 -5.15 -15.9 -3.1 L-15.55 -2.4 Q-14.2 -1.0 -14.4 0.85 -15.25 -1.1 -16.65 -3.15 -16.6 -1.4 -15.8 0.05 L-15.8 0.1 Q-17.3 -1.6 -17.15 -4.35 L-17.15 -4.45 -16.8 -4.55 -16.9 -6.9 -16.85 -6.9 M-14.8 -5.35 Q-13.75 -3.6 -13.2 -1.65 L-12.85 -1.0 Q-12.1 -0.2 -12.1 0.75 L-13.65 -1.35 Q-13.6 -0.45 -13.1 0.2 L-13.1 0.35 Q-14.25 -0.3 -14.3 -2.25 L-14.6 -3.8 -14.9 -5.25 -14.8 -5.35" fill="#990000" fill-rule="evenodd" stroke="none"/>
    <path d="M-12.2 2.35 Q-7.4 3.7 -1.15 3.7 -8.05 -1.95 -6.35 -14.75 -15.35 -7.25 -12.2 2.35" fill="#000000" fill-rule="evenodd" stroke="none"/>
    <path d="M-10.85 1.55 Q-7.35 3.7 -3.35 3.55 -8.45 -2.45 -7.75 -11.85 -12.75 -5.85 -10.85 1.55" fill="#ffffff" fill-rule="evenodd" stroke="none"/>
    <path d="M16.2 3.45 Q11.25 2.95 5.4 0.75 13.9 -2.1 16.45 -17.05 22.65 -4.4 16.2 3.45" fill="#000000" fill-rule="evenodd" stroke="none"/>
    <path d="M15.25 2.2 Q11.2 2.95 7.5 1.4 14.45 -2.4 16.95 -12.65 19.75 -4.05 15.25 2.2" fill="#ffffff" fill-rule="evenodd" stroke="none"/>
    <path d="M10.25 2.3 Q5.25 3.15 -0.9 2.5 6.6 -2.4 5.85 -16.55 14.35 -6.85 10.25 2.3" fill="#000000" fill-rule="evenodd" stroke="none"/>
    <path d="M9.0 1.35 Q5.25 3.15 1.3 2.6 7.0 -2.85 7.3 -12.5 11.7 -5.8 9.0 1.35" fill="#ffffff" fill-rule="evenodd" stroke="none"/>
    <path d="M2.5 2.75 Q-2.1 4.0 -5.25 3.75 -5.9 -5.1 -0.8 -16.2 5.85 -6.35 2.5 2.75" fill="#000000" fill-rule="evenodd" stroke="none"/>
    <path d="M1.0 3.0 Q-2.35 3.95 -3.75 3.55 -4.0 -4.3 -0.35 -13.35 4.1 -5.0 1.0 3.0" fill="#ffffff" fill-rule="evenodd" stroke="none"/>
    <path d="M-8.85 -7.5 Q-7.45 -2.85 -5.15 1.4 L-5.15 1.45 -7.2 -1.8 Q-6.8 0.4 -6.05 2.45 L-6.1 2.55 Q-7.6 1.35 -7.6 -0.95 L-7.7 -1.8 Q-8.55 -4.75 -8.85 -7.5 M-9.95 -3.75 L-8.45 1.3 Q-8.9 1.5 -9.05 1.15 L-9.4 1.25 -9.7 0.35 -9.75 0.3 Q-10.0 0.7 -9.8 1.05 L-10.2 1.1 Q-9.85 -1.2 -10.1 -3.55 L-9.95 -3.75" fill="#990000" fill-rule="evenodd" stroke="none"/>
    <path d="M0.85 -1.9 Q1.75 -0.85 1.2 0.95 L1.0 1.7 0.9 1.8 Q0.65 1.75 0.7 1.5 L0.65 1.45 Q0.7 2.05 0.05 1.8 0.8 0.1 0.8 -1.9 L0.85 -1.9 M-0.1 -1.45 Q-0.85 0.1 -0.05 1.65 L-0.1 1.8 -0.3 1.55 -0.35 1.75 -2.2 -1.1 Q-2.0 0.4 -2.1 2.05 L-2.2 2.15 Q-3.1 0.15 -2.4 -2.3 L-2.35 -2.45 Q-3.35 -0.6 -3.3 1.55 L-3.35 1.6 Q-3.95 -0.55 -2.6 -2.9 -1.3 -5.1 -0.95 -7.5 -0.8 -4.9 -1.55 -2.3 -1.95 -1.1 -1.1 -0.25 L-0.85 0.05 -0.65 -1.05 0.25 -4.05 Q1.0 -2.55 -0.1 -1.5 L-0.1 -1.45" fill="#990000" fill-rule="evenodd" stroke="none"/>
    <path d="M8.2 -4.75 Q8.4 -2.5 6.45 -1.15 6.05 -0.85 6.05 -0.35 6.0 1.45 3.9 2.2 L5.2 0.0 5.5 -0.55 5.8 -1.15 2.75 1.6 Q3.95 -0.4 6.0 -1.8 7.65 -2.95 8.2 -4.75 M8.75 -6.5 Q9.6 -2.3 8.05 1.65 L8.0 1.65 Q7.75 1.45 7.8 1.1 L7.75 1.15 6.65 2.8 Q7.2 0.9 8.15 -1.0 6.9 0.05 6.25 1.65 L6.15 1.6 Q6.9 -0.6 8.35 -2.65 L8.55 -3.55 Q8.45 -5.15 8.75 -6.5" fill="#990000" fill-rule="evenodd" stroke="none"/>
    <path d="M17.0 -7.3 Q17.7 -3.3 15.6 0.2 L15.55 0.2 16.4 -2.35 Q15.55 -0.5 14.15 0.9 L11.85 0.6 Q13.95 -0.25 14.45 -2.9 L15.15 -5.05 Q15.35 -2.35 13.75 0.2 14.8 0.1 15.45 -1.45 16.65 -4.3 17.0 -7.3" fill="#990000" fill-rule="evenodd" stroke="none"/>
  </g>
</svg>
