<?xml version="1.0" encoding="UTF-8" standalone="no"?>
<svg xmlns:ffdec="https://www.free-decompiler.com/flash" xmlns:xlink="http://www.w3.org/1999/xlink" ffdec:objectType="shape" height="22.95px" width="47.25px" xmlns="http://www.w3.org/2000/svg">
  <g transform="matrix(1.0, 0.0, 0.0, 1.0, 24.05, 3.85)">
    <path d="M-17.6 -3.85 Q-12.95 -2.05 -8.0 1.7 -16.95 2.05 -23.5 15.75 -25.9 1.85 -17.6 -3.85" fill="#000000" fill-rule="evenodd" stroke="none"/>
    <path d="M-17.05 -2.45 Q-12.9 -2.05 -9.8 0.45 -17.55 2.2 -22.75 11.4 -23.05 2.3 -17.05 -2.45" fill="#ffffff" fill-rule="evenodd" stroke="none"/>
    <path d="M-12.0 -1.75 Q-7.1 -1.5 -1.75 0.1 -9.8 3.75 -12.5 18.4 -17.8 5.8 -12.0 -1.75" fill="#000000" fill-rule="evenodd" stroke="none"/>
    <path d="M-11.15 -0.75 Q-7.1 -1.5 -3.45 0.05 -10.3 3.85 -12.8 14.7 -15.6 5.55 -11.15 -0.75" fill="#ffffff" fill-rule="evenodd" stroke="none"/>
    <path d="M-8.5 -1.05 Q-3.2 -2.15 1.35 0.2 -3.45 4.9 -1.6 19.1 -10.8 10.4 -8.5 -1.05" fill="#000000" fill-rule="evenodd" stroke="none"/>
    <path d="M-7.05 0.05 Q-3.8 -0.65 -0.45 0.45 -4.2 5.55 -2.65 16.1 -8.1 9.45 -7.05 0.05" fill="#ffffff" fill-rule="evenodd" stroke="none"/>
    <path d="M18.5 -2.15 Q13.1 -1.45 8.0 1.9 16.95 2.9 22.7 14.9 24.7 2.55 18.5 -2.15" fill="#000000" fill-rule="evenodd" stroke="none"/>
    <path d="M17.25 -1.85 Q13.1 -1.45 10.0 1.05 17.75 2.8 22.25 12.0 23.25 2.9 17.25 -1.85" fill="#ffffff" fill-rule="evenodd" stroke="none"/>
    <path d="M12.75 -0.3 Q7.35 -0.9 2.15 1.15 9.95 4.6 11.75 18.25 17.4 7.25 12.75 -0.3" fill="#000000" fill-rule="evenodd" stroke="none"/>
    <path d="M11.35 -0.15 Q7.3 -0.9 3.65 0.65 10.5 4.45 12.3 14.5 15.8 6.15 11.35 -0.15" fill="#ffffff" fill-rule="evenodd" stroke="none"/>
    <path d="M7.7 0.1 L-3.35 -0.7 Q3.05 5.3 0.65 18.7 9.0 11.9 7.7 0.1" fill="#000000" fill-rule="evenodd" stroke="none"/>
    <path d="M5.75 0.1 L-1.45 -0.45 Q3.8 5.45 2.0 15.45 8.15 8.8 5.75 0.1" fill="#ffffff" fill-rule="evenodd" stroke="none"/>
    <path d="M-18.05 -0.35 Q-16.55 -0.65 -15.4 -1.35 -15.35 -1.05 -15.7 -0.85 L-15.9 -0.65 -15.8 -0.6 -15.7 -0.45 Q-18.65 1.8 -20.5 5.05 L-21.3 6.2 Q-21.2 3.3 -18.55 1.3 L-17.5 0.15 -17.25 0.0 Q-19.1 0.4 -19.9 2.2 -20.1 2.65 -20.55 2.55 L-18.3 -0.65 -17.15 -1.7 Q-16.9 -1.8 -16.75 -1.55 L-16.7 -1.5 -17.95 -0.55 -18.05 -0.35" fill="#990000" fill-rule="evenodd" stroke="none"/>
    <path d="M-10.05 0.1 Q-9.75 0.05 -9.7 0.4 L-9.45 -0.25 Q-9.0 2.1 -11.05 3.9 L-11.35 4.5 Q-11.7 6.4 -11.65 8.35 L-12.1 6.35 Q-12.45 4.9 -12.2 3.5 L-11.95 1.7 Q-11.9 0.55 -11.15 0.0 -11.55 1.25 -11.6 2.7 L-11.55 2.95 -10.1 0.15 -10.05 0.1 M-11.65 4.3 L-11.95 5.15 -11.95 5.2 -11.65 4.3" fill="#990000" fill-rule="evenodd" stroke="none"/>
    <path d="M-2.9 0.35 Q-1.15 2.6 -3.9 4.25 -5.15 5.0 -4.75 6.5 L-4.05 9.0 Q-6.55 6.15 -4.45 2.75 L-4.3 2.0 Q-5.75 1.75 -6.3 0.5 L-4.25 1.7 Q-3.8 1.9 -4.0 2.4 L-4.65 3.95 Q-2.9 3.15 -2.75 1.55 -2.7 1.2 -2.95 0.9 -3.25 0.55 -2.9 0.35" fill="#990000" fill-rule="evenodd" stroke="none"/>
    <path d="M4.5 0.6 Q5.75 0.6 5.1 1.9 L4.15 2.5 Q5.4 4.1 3.65 5.75 L3.05 5.85 Q4.95 3.65 2.55 2.1 1.4 1.35 1.85 0.4 2.15 1.35 3.05 1.9 L3.1 1.95 4.65 1.85 Q5.0 1.25 4.55 0.75 L4.5 0.6" fill="#990000" fill-rule="evenodd" stroke="none"/>
    <path d="M5.2 1.2 L5.5 1.15 Q6.3 4.25 4.95 7.1 L4.75 7.85 Q4.7 8.65 4.25 9.25 3.9 7.05 4.95 4.95 5.3 4.25 5.3 3.45 5.2 1.8 4.55 0.45 L4.6 0.4 5.2 1.15 5.2 1.2" fill="#990000" fill-rule="evenodd" stroke="none"/>
    <path d="M10.2 3.25 Q11.75 6.0 11.95 9.1 12.0 9.55 11.65 9.85 10.85 5.0 7.95 1.0 L7.9 0.9 10.65 2.1 Q10.45 1.1 9.6 0.05 L9.65 0.05 Q12.0 1.6 10.2 3.2 L10.2 3.25" fill="#990000" fill-rule="evenodd" stroke="none"/>
    <path d="M16.6 1.75 Q19.3 3.4 19.9 6.25 18.45 4.1 16.4 2.2 15.1 2.4 14.3 0.95 14.05 0.45 13.4 0.35 L12.65 -0.15 Q14.75 -0.2 15.85 1.9 16.0 0.0 14.05 -0.9 15.5 -0.95 16.1 0.65 16.8 -0.6 16.6 -1.95 17.5 -0.25 16.65 1.7 L16.6 1.75" fill="#990000" fill-rule="evenodd" stroke="none"/>
  </g>
</svg>
