<?xml version="1.0" encoding="UTF-8" standalone="no"?>
<svg xmlns:ffdec="https://www.free-decompiler.com/flash" xmlns:xlink="http://www.w3.org/1999/xlink" ffdec:objectType="shape" height="36.9px" width="44.0px" xmlns="http://www.w3.org/2000/svg">
  <g transform="matrix(1.0, 0.0, 0.0, 1.0, 22.0, 18.45)">
    <path d="M11.05 -10.8 L14.45 -10.8 Q13.6 -4.35 14.3 2.15 14.95 8.2 16.3 13.95 L16.55 15.95 12.45 15.95 Q13.15 9.7 12.0 3.5 11.65 1.65 10.25 0.75 10.05 0.6 9.85 0.9 8.6 3.0 9.55 18.45 L0.1 18.45 0.65 15.75 Q3.45 2.7 3.5 -4.85 L3.05 -11.55 7.6 -11.55 Q7.35 -6.2 9.6 -1.25 10.1 -0.05 10.65 -1.1 11.7 -3.0 11.45 -5.2 11.1 -8.05 11.05 -10.8 M17.55 -11.95 L17.45 -15.4 22.0 -15.4 21.1 -12.6 Q18.15 -3.65 17.95 3.8 L18.0 9.1 16.15 9.1 16.2 8.3 Q17.65 1.0 17.7 -6.5 L17.55 -11.95 M-9.65 -18.4 Q-12.25 -11.25 -10.2 -3.95 -9.5 -1.3 -7.25 -0.15 -6.8 0.05 -6.55 -0.45 -4.05 -5.35 -4.6 -11.0 L-4.75 -12.75 -2.65 -12.75 Q-2.4 -9.95 -2.5 -6.95 -2.75 0.55 -0.95 7.75 L-0.15 11.3 -2.45 11.3 Q-2.85 6.2 -6.75 2.65 -7.5 1.95 -8.15 2.8 -9.85 5.0 -9.8 7.9 L-9.45 12.5 -11.4 12.5 -11.4 12.15 Q-11.35 3.5 -13.2 -3.0 -14.85 -8.65 -17.8 -13.55 L-17.85 -13.0 Q-18.1 -9.3 -17.85 -5.6 -17.4 1.8 -15.75 9.05 L-15.5 10.15 -16.95 10.15 -17.35 8.4 Q-18.45 1.1 -19.5 -4.15 L-21.15 -11.35 -22.0 -14.45 -18.35 -14.45 -19.75 -16.5 -21.2 -18.45 -9.6 -18.45 -9.65 -18.4" fill="#ff0000" fill-rule="evenodd" stroke="none"/>
  </g>
</svg>
