<?xml version="1.0" encoding="UTF-8" standalone="no"?>
<svg xmlns:ffdec="https://www.free-decompiler.com/flash" xmlns:xlink="http://www.w3.org/1999/xlink" ffdec:objectType="shape" height="70.2px" width="74.5px" xmlns="http://www.w3.org/2000/svg">
  <g transform="matrix(1.0, 0.0, 0.0, 1.0, 37.25, 41.5)">
    <path d="M14.0 -39.9 L17.45 -39.15 20.65 -38.0 17.05 -38.3 Q21.95 -32.7 18.7 -28.5 21.1 -33.5 14.0 -39.9 M-18.0 -35.5 Q-17.65 -37.45 -17.75 -37.85 -25.65 -36.35 -29.9 -30.95 -26.1 -36.45 -19.2 -38.65 -16.95 -39.4 -14.3 -39.75 -16.85 -37.6 -18.0 -35.5 M0.0 -6.85 Q8.8 -10.45 15.75 -16.65 26.0 -25.75 22.3 -33.85 30.3 -27.35 26.8 -18.7 23.25 -10.0 8.15 -1.45 13.55 2.05 17.6 6.3 23.7 12.65 29.05 22.9 23.1 21.3 11.7 21.9 8.6 12.45 0.0 3.9 -8.6 12.4 -11.7 21.85 -23.1 21.25 -29.05 22.85 -23.7 12.6 -17.6 6.25 -13.55 2.0 -8.15 -1.5 -23.25 -10.05 -26.8 -18.75 -30.3 -27.4 -22.3 -33.9 -26.0 -25.8 -15.75 -16.7 -8.8 -10.5 0.0 -6.85" fill="#ffffff" fill-rule="evenodd" stroke="none"/>
    <path d="M14.0 -39.9 Q21.1 -33.5 18.7 -28.5 21.95 -32.7 17.05 -38.3 L20.65 -38.0 17.45 -39.15 14.0 -39.9 M17.75 -40.0 Q24.0 -38.25 28.0 -35.0 33.6 -30.45 33.8 -23.8 34.0 -17.55 29.55 -11.3 25.05 -5.05 17.5 -1.05 30.35 12.2 37.25 28.7 27.65 26.75 9.0 26.7 7.05 21.1 0.0 12.0 -7.05 21.05 -9.0 26.65 -27.65 26.7 -37.25 28.65 -30.35 12.15 -17.5 -1.1 -25.05 -5.1 -29.55 -11.35 -34.0 -17.6 -33.8 -23.85 -33.6 -30.5 -28.0 -35.05 -24.6 -37.85 -19.5 -39.5 -15.3 -40.9 -9.9 -41.5 -22.9 -32.85 -14.6 -23.75 -11.85 -20.7 -6.65 -17.6 L0.0 -13.85 6.65 -17.55 Q11.85 -20.65 14.6 -23.7 22.9 -32.8 9.9 -41.45 L17.75 -40.0 M0.0 -6.85 Q-8.8 -10.5 -15.75 -16.7 -26.0 -25.8 -22.3 -33.9 -30.3 -27.4 -26.8 -18.75 -23.25 -10.05 -8.15 -1.5 -13.55 2.0 -17.6 6.25 -23.7 12.6 -29.05 22.85 -23.1 21.25 -11.7 21.85 -8.6 12.4 0.0 3.9 8.6 12.45 11.7 21.9 23.1 21.3 29.05 22.9 23.7 12.65 17.6 6.3 13.55 2.05 8.15 -1.45 23.25 -10.0 26.8 -18.7 30.3 -27.35 22.3 -33.85 26.0 -25.75 15.75 -16.65 8.8 -10.45 0.0 -6.85 M-18.0 -35.5 Q-16.85 -37.6 -14.3 -39.75 -16.95 -39.4 -19.2 -38.65 -26.1 -36.45 -29.9 -30.95 -25.65 -36.35 -17.75 -37.85 -17.65 -37.45 -18.0 -35.5" fill="#000000" fill-rule="evenodd" stroke="none"/>
  </g>
</svg>
