<?xml version="1.0" encoding="UTF-8" standalone="no"?>
<svg xmlns:ffdec="https://www.free-decompiler.com/flash" xmlns:xlink="http://www.w3.org/1999/xlink" ffdec:objectType="shape" height="29.8px" width="74.5px" xmlns="http://www.w3.org/2000/svg">
  <g transform="matrix(1.0, 0.0, 0.0, 1.0, 37.25, 1.1)">
    <path d="M11.7 21.9 Q8.6 12.45 0.0 3.9 -8.6 12.4 -11.7 21.85 -23.1 21.25 -29.05 22.85 -23.7 12.6 -17.6 6.25 -15.6 4.15 -13.2 2.2 L-11.05 2.65 -0.5 3.45 11.05 2.65 13.2 2.25 17.6 6.3 Q23.7 12.65 29.05 22.9 23.1 21.3 11.7 21.9" fill="#ffffff" fill-rule="evenodd" stroke="none"/>
    <path d="M11.7 21.9 Q23.1 21.3 29.05 22.9 23.7 12.65 17.6 6.3 L13.2 2.25 11.05 2.65 -0.5 3.45 -11.05 2.65 -13.2 2.2 Q-15.6 4.15 -17.6 6.25 -23.7 12.6 -29.05 22.85 -23.1 21.25 -11.7 21.85 -8.6 12.4 0.0 3.9 8.6 12.45 11.7 21.9 M9.0 26.7 Q7.05 21.1 0.0 12.0 -7.05 21.05 -9.0 26.65 -27.65 26.7 -37.25 28.65 -30.35 12.15 -17.5 -1.1 -14.65 -0.1 -11.05 0.55 L-0.5 1.35 11.05 0.55 Q14.55 -0.05 17.5 -1.05 30.35 12.2 37.25 28.7 27.65 26.75 9.0 26.7" fill="#000000" fill-rule="evenodd" stroke="none"/>
  </g>
</svg>
