<?xml version="1.0" encoding="UTF-8" standalone="no"?>
<svg xmlns:ffdec="https://www.free-decompiler.com/flash" xmlns:xlink="http://www.w3.org/1999/xlink" ffdec:objectType="shape" height="42.85px" width="67.6px" xmlns="http://www.w3.org/2000/svg">
  <g transform="matrix(1.0, 0.0, 0.0, 1.0, 33.8, 41.5)">
    <path d="M18.7 -28.5 Q21.1 -33.5 14.0 -39.9 L17.45 -39.15 20.65 -38.0 17.05 -38.3 Q21.95 -32.7 18.7 -28.5 M-19.2 -38.65 Q-16.95 -39.4 -14.3 -39.75 -16.85 -37.6 -18.0 -35.5 -17.65 -37.45 -17.75 -37.85 -25.65 -36.35 -29.9 -30.95 -26.1 -36.45 -19.2 -38.65 M0.0 -6.85 Q8.8 -10.45 15.75 -16.65 26.0 -25.75 22.3 -33.85 30.3 -27.35 26.8 -18.7 23.25 -10.0 8.15 -1.45 -0.2 -0.6 -8.15 -1.5 -23.25 -10.05 -26.8 -18.75 -30.3 -27.4 -22.3 -33.9 -26.0 -25.8 -15.75 -16.7 -8.8 -10.5 0.0 -6.85" fill="#ffffff" fill-rule="evenodd" stroke="none"/>
    <path d="M18.7 -28.5 Q21.95 -32.7 17.05 -38.3 L20.65 -38.0 17.45 -39.15 14.0 -39.9 Q21.1 -33.5 18.7 -28.5 M17.75 -40.0 Q24.0 -38.25 28.0 -35.0 33.6 -30.45 33.8 -23.8 34.0 -17.55 29.55 -11.3 25.05 -5.05 17.5 -1.05 14.55 -0.05 11.05 0.55 L-0.5 1.35 -11.05 0.55 Q-14.65 -0.1 -17.5 -1.1 -25.05 -5.1 -29.55 -11.35 -34.0 -17.6 -33.8 -23.85 -33.6 -30.5 -28.0 -35.05 -24.6 -37.85 -19.5 -39.5 -15.3 -40.9 -9.9 -41.5 -22.9 -32.85 -14.6 -23.75 -11.85 -20.7 -6.65 -17.6 L0.0 -13.85 6.65 -17.55 Q11.85 -20.65 14.6 -23.7 22.9 -32.8 9.9 -41.45 L17.75 -40.0 M0.0 -6.85 Q-8.8 -10.5 -15.75 -16.7 -26.0 -25.8 -22.3 -33.9 -30.3 -27.4 -26.8 -18.75 -23.25 -10.05 -8.15 -1.5 -0.2 -0.6 8.15 -1.45 23.25 -10.0 26.8 -18.7 30.3 -27.35 22.3 -33.85 26.0 -25.75 15.75 -16.65 8.8 -10.45 0.0 -6.85 M-19.2 -38.65 Q-26.1 -36.45 -29.9 -30.95 -25.65 -36.35 -17.75 -37.85 -17.65 -37.45 -18.0 -35.5 -16.85 -37.6 -14.3 -39.75 -16.95 -39.4 -19.2 -38.65" fill="#000000" fill-rule="evenodd" stroke="none"/>
  </g>
</svg>
