<?xml version="1.0" encoding="UTF-8" standalone="no"?>
<svg xmlns:ffdec="https://www.free-decompiler.com/flash" xmlns:xlink="http://www.w3.org/1999/xlink" ffdec:objectType="shape" height="21.5px" width="56.45px" xmlns="http://www.w3.org/2000/svg">
  <g transform="matrix(1.0, 0.0, 0.0, 1.0, 28.15, 15.1)">
    <path d="M0.65 -13.9 Q1.25 -14.75 2.2 -15.1 4.0 -14.5 2.55 -12.85 L2.55 -12.8 Q4.9 -14.35 7.5 -14.5 7.0 -12.55 4.5 -12.15 2.6 -11.85 2.4 -10.25 L2.4 -9.4 Q2.8 -6.2 1.25 -3.55 L0.0 -5.4 Q-0.5 -6.4 -0.3 -7.3 L-0.15 -7.85 Q0.75 -10.5 0.5 -13.4 L0.65 -13.9 M19.25 -10.45 Q20.95 -11.7 22.25 -13.15 22.55 -13.5 23.1 -13.6 L23.85 -13.75 Q25.0 -14.1 25.25 -13.2 L25.25 -13.15 Q26.55 -13.4 28.15 -13.15 L28.3 -13.05 Q26.95 -10.45 23.95 -10.25 L23.0 -10.2 Q20.95 -7.4 16.7 -6.6 L14.6 -6.45 Q13.85 -6.5 13.35 -7.1 16.3 -8.3 19.25 -10.45 M-23.95 -6.35 Q-21.45 -6.05 -21.9 -3.55 L-21.95 -3.6 -22.55 -3.15 -22.3 -2.8 Q-23.0 -2.85 -23.9 -3.6 -24.65 -4.25 -25.7 -4.55 -27.35 -5.0 -28.05 -6.2 -28.3 -6.65 -27.95 -7.05 L-25.4 -8.9 Q-23.75 -8.7 -24.3 -6.75 -24.35 -6.4 -23.95 -6.35 M-6.8 -0.35 L-6.8 -0.3 Q-10.75 1.25 -11.0 5.6 -11.0 6.3 -11.7 6.4 -13.8 6.6 -13.65 4.55 -13.55 2.15 -11.45 0.6 -9.75 -0.7 -8.45 -2.25 -7.3 -1.7 -6.8 -0.35" fill="#ff0000" fill-rule="evenodd" stroke="none"/>
  </g>
</svg>
