<?xml version="1.0" encoding="UTF-8" standalone="no"?>
<svg xmlns:ffdec="https://www.free-decompiler.com/flash" xmlns:xlink="http://www.w3.org/1999/xlink" ffdec:objectType="shape" height="33.4px" width="70.85px" xmlns="http://www.w3.org/2000/svg">
  <g transform="matrix(1.0, 0.0, 0.0, 1.0, 33.0, 22.45)">
    <path d="M10.65 -16.85 Q10.95 -15.0 8.7 -15.35 7.45 -15.55 6.35 -14.8 5.55 -14.3 4.8 -14.3 5.7 -15.7 7.45 -16.45 L9.5 -16.95 10.6 -16.9 10.65 -16.85 M1.45 -20.1 Q1.8 -18.1 1.15 -16.35 0.55 -17.15 0.55 -18.55 L0.35 -21.6 Q0.25 -22.3 1.0 -22.45 2.7 -22.15 1.65 -20.85 1.4 -20.55 1.45 -20.1 M5.4 -13.8 Q2.7 -11.8 1.75 -8.7 L0.75 -4.7 0.55 -4.75 Q-0.65 -5.95 -0.2 -7.55 L0.6 -11.55 Q0.85 -13.7 1.4 -15.5 2.05 -14.05 2.0 -12.1 L2.0 -11.6 5.05 -14.0 5.4 -13.8 M17.1 -8.4 Q20.65 -9.25 23.8 -10.75 L27.65 -12.7 29.5 -13.8 Q31.2 -13.25 29.55 -12.45 26.25 -10.85 22.85 -9.5 L18.25 -7.85 Q15.95 -7.1 13.85 -6.9 15.15 -7.95 17.1 -8.4 M34.5 -16.25 L31.45 -15.35 30.65 -15.05 29.65 -15.1 31.45 -17.0 32.65 -17.65 Q34.6 -18.25 34.9 -16.8 35.0 -16.4 34.5 -16.25 M31.55 -13.5 Q31.1 -13.7 30.8 -14.05 L30.75 -14.1 Q31.15 -14.9 32.25 -15.1 L33.5 -15.3 Q35.8 -14.9 37.75 -13.45 38.0 -13.25 37.7 -13.15 36.0 -12.6 34.15 -13.2 32.9 -13.6 32.65 -12.1 32.45 -11.0 31.8 -12.05 31.5 -12.5 31.55 -13.1 L31.55 -13.5 M-32.95 -11.55 Q-32.7 -12.45 -31.8 -12.7 -28.75 -12.1 -27.7 -8.95 L-27.25 -8.5 Q-24.7 -7.1 -22.4 -5.3 -22.4 -5.1 -22.55 -5.05 -22.9 -4.85 -22.9 -4.45 L-22.9 -4.4 Q-25.95 -5.15 -28.6 -7.05 L-32.65 -10.4 Q-33.1 -10.85 -32.95 -11.55 M-9.15 5.45 Q-8.9 5.9 -9.25 6.2 -10.5 7.25 -11.25 5.85 L-11.75 4.85 -12.35 4.8 Q-15.5 7.2 -16.7 10.9 L-16.8 10.95 Q-18.45 10.7 -17.25 9.2 L-16.3 7.65 Q-14.95 4.9 -12.85 2.75 L-7.9 -1.7 Q-7.35 -0.25 -8.7 1.25 -10.45 3.25 -9.15 5.45" fill="#ff0000" fill-rule="evenodd" stroke="none"/>
  </g>
</svg>
