<?xml version="1.0" encoding="UTF-8" standalone="no"?>
<svg xmlns:ffdec="https://www.free-decompiler.com/flash" xmlns:xlink="http://www.w3.org/1999/xlink" ffdec:objectType="shape" height="38.05px" width="72.65px" xmlns="http://www.w3.org/2000/svg">
  <g transform="matrix(1.0, 0.0, 0.0, 1.0, 34.7, 25.35)">
    <path d="M0.25 -25.35 Q1.45 -24.7 1.35 -22.9 L1.35 -21.85 Q1.45 -20.25 1.2 -18.7 L1.0 -18.55 Q0.75 -18.55 0.65 -18.75 0.65 -21.85 -0.25 -24.85 -0.35 -25.2 0.15 -25.3 L0.25 -25.35 M11.25 -15.85 L8.7 -15.9 6.45 -15.75 6.4 -15.8 Q6.85 -16.45 7.7 -16.75 L9.15 -17.2 Q11.5 -17.75 11.7 -16.2 11.75 -15.8 11.25 -15.85 M3.35 -12.4 L3.4 -12.35 Q2.4 -10.65 1.75 -8.85 L1.05 -5.7 Q0.95 -5.25 0.5 -5.5 L0.15 -5.55 Q-0.2 -7.85 0.55 -10.35 L1.55 -15.0 Q1.9 -13.2 1.9 -11.25 L2.4 -11.95 Q2.7 -12.35 3.15 -12.55 L3.35 -12.4 M14.7 -7.25 L14.65 -7.35 Q19.5 -8.75 24.4 -10.55 L24.7 -10.4 24.75 -10.35 Q22.8 -8.95 20.15 -8.2 17.4 -7.45 14.7 -7.25 M34.55 -17.15 Q35.05 -17.8 35.85 -17.9 37.45 -18.35 37.8 -17.25 37.9 -16.85 37.6 -16.55 35.9 -14.95 34.25 -16.35 34.25 -16.8 34.55 -17.15 M31.8 -13.6 L31.65 -13.7 Q31.75 -14.25 32.35 -14.2 L33.8 -14.3 Q36.3 -14.2 37.9 -12.65 L37.75 -12.5 Q36.6 -12.5 35.65 -13.35 L34.95 -13.5 33.5 -13.2 Q33.7 -12.6 33.35 -12.05 32.8 -11.1 33.4 -10.1 L33.4 -9.9 Q32.7 -9.75 32.35 -10.7 32.0 -11.8 32.8 -12.55 L32.7 -12.8 Q32.45 -13.45 31.8 -13.6 M30.15 -13.0 Q28.0 -11.15 25.1 -10.2 L24.95 -10.2 Q24.85 -11.15 26.3 -11.55 L28.2 -12.2 29.9 -13.25 30.15 -13.05 30.15 -13.0 M-33.65 -13.55 Q-30.75 -12.55 -28.75 -10.05 -27.0 -7.85 -24.55 -6.55 L-22.2 -5.2 -25.0 -5.15 -26.45 -6.15 Q-30.0 -8.25 -33.15 -10.85 L-32.65 -10.55 -33.85 -11.5 -33.5 -11.1 -34.4 -11.85 Q-34.9 -12.35 -34.5 -12.95 L-33.65 -13.55 M-7.4 -1.7 L-7.35 -1.65 Q-7.2 0.1 -9.05 1.4 L-9.9 2.25 -10.15 2.7 -10.25 2.9 -10.35 3.3 -9.7 4.4 Q-8.9 4.95 -8.2 5.6 -8.0 5.8 -8.3 5.95 -9.4 6.55 -10.45 5.7 -11.45 5.3 -12.05 4.2 L-12.6 4.6 Q-13.45 6.25 -15.0 7.1 -16.6 10.15 -18.8 12.6 -18.95 12.8 -18.95 12.55 -19.1 11.1 -17.9 10.05 L-16.45 8.2 -15.0 6.35 Q-14.85 6.35 -14.75 6.5 L-14.75 6.55 -14.95 6.95 -13.65 5.25 -14.45 5.35 Q-11.35 1.55 -7.65 -1.8 L-7.4 -1.7 M-13.4 4.95 L-13.45 4.95 -13.45 5.0 -13.4 4.95" fill="#ff0000" fill-rule="evenodd" stroke="none"/>
  </g>
</svg>
