<?xml version="1.0" encoding="UTF-8" standalone="no"?>
<svg xmlns:ffdec="https://www.free-decompiler.com/flash" xmlns:xlink="http://www.w3.org/1999/xlink" ffdec:objectType="shape" height="43.4px" width="76.75px" xmlns="http://www.w3.org/2000/svg">
  <g transform="matrix(1.0, 0.0, 0.0, 1.0, 35.7, 27.8)">
    <path d="M11.9 -16.1 L11.2 -16.0 Q9.6 -16.6 8.0 -16.6 9.2 -17.5 10.95 -17.4 13.05 -17.2 11.9 -16.1 M0.9 -21.15 Q0.2 -22.55 -0.1 -24.5 -0.25 -25.65 -0.85 -26.7 -1.3 -27.45 -0.6 -27.8 1.1 -26.9 1.1 -24.55 L1.1 -22.0 0.9 -21.15 M1.65 -10.35 Q2.05 -11.3 2.75 -11.5 1.5 -9.0 0.8 -6.1 0.6 -5.45 0.45 -6.2 0.25 -7.0 0.3 -7.85 0.4 -10.5 1.35 -12.75 2.05 -11.75 1.65 -10.4 L1.65 -10.35 M15.4 -7.4 L21.9 -9.3 Q22.95 -9.6 23.75 -10.25 L24.05 -10.1 24.05 -10.05 Q21.7 -8.1 18.3 -7.3 L15.4 -7.4 M33.45 -12.9 L33.65 -13.15 33.75 -13.15 Q34.1 -12.1 33.7 -10.75 33.35 -9.5 33.7 -8.35 32.3 -9.55 32.95 -11.7 33.15 -12.35 32.95 -12.95 L33.45 -12.9 M33.25 -14.0 L35.75 -14.75 35.85 -14.8 Q37.5 -14.35 38.8 -13.35 37.35 -13.2 35.9 -14.0 L35.25 -13.9 33.25 -14.0 M37.55 -17.0 L38.1 -17.35 39.25 -17.7 Q41.0 -17.95 41.05 -16.8 L40.8 -16.55 38.1 -16.15 Q36.3 -15.95 37.55 -17.0 M25.5 -10.4 L25.45 -10.45 28.5 -11.6 29.25 -12.1 29.75 -12.5 30.05 -12.35 30.05 -12.3 Q28.85 -9.95 26.05 -10.1 L25.5 -10.4 M-35.2 -13.45 Q-31.75 -12.2 -29.25 -9.35 -28.3 -8.3 -27.0 -7.7 L-24.7 -6.55 -21.85 -4.75 -21.95 -4.4 -22.05 -4.2 -22.05 -4.15 Q-23.85 -4.4 -25.5 -5.8 -26.9 -6.95 -28.55 -7.75 -32.4 -9.55 -35.45 -12.45 -36.0 -12.95 -35.3 -13.4 L-35.2 -13.45 M-9.85 2.15 Q-9.95 4.5 -8.25 6.3 L-8.2 6.6 Q-10.85 6.3 -11.35 3.55 L-11.45 3.15 -12.95 3.8 -13.15 3.6 -7.8 -1.65 Q-6.85 -0.6 -8.25 0.8 L-9.85 2.15 M-18.75 11.6 L-16.75 9.25 Q-16.5 11.0 -18.2 12.7 L-19.5 14.3 Q-20.3 15.55 -21.6 15.6 -21.3 13.65 -19.45 12.3 L-18.75 11.6 M-15.1 6.4 Q-14.35 5.25 -12.8 4.4 -11.85 5.3 -13.5 6.35 -14.6 7.0 -15.55 6.75 -15.5 6.45 -15.15 6.45 L-15.1 6.4" fill="#ff0000" fill-rule="evenodd" stroke="none"/>
  </g>
</svg>
