<?xml version="1.0" encoding="UTF-8" standalone="no"?>
<svg xmlns:ffdec="https://www.free-decompiler.com/flash" xmlns:xlink="http://www.w3.org/1999/xlink" ffdec:objectType="shape" height="47.15px" width="78.8px" xmlns="http://www.w3.org/2000/svg">
  <g transform="matrix(1.0, 0.0, 0.0, 1.0, 35.35, 29.1)">
    <path d="M13.15 -15.95 Q11.5 -16.2 10.2 -16.85 L10.2 -16.9 10.2 -17.0 10.2 -17.1 10.35 -17.2 10.45 -17.25 Q12.95 -17.7 13.4 -16.05 13.45 -15.9 13.15 -15.95 M0.3 -5.85 L0.15 -5.8 Q0.15 -8.25 0.75 -10.75 L1.05 -11.05 Q1.55 -10.2 1.15 -9.05 L1.15 -9.0 Q1.45 -10.15 2.2 -10.45 1.5 -8.0 0.3 -5.85 M16.05 -7.4 Q19.8 -7.15 22.95 -9.25 L23.15 -9.1 23.2 -9.05 Q20.35 -6.55 16.25 -6.9 L16.1 -6.95 16.0 -7.3 16.05 -7.4 M36.9 -14.7 Q36.05 -14.0 35.0 -13.6 L34.9 -13.6 Q35.05 -14.4 36.05 -15.25 36.25 -15.5 36.55 -15.55 38.0 -14.7 39.35 -13.5 L39.35 -13.45 Q38.0 -13.2 36.95 -14.6 L36.9 -14.7 M29.8 -11.25 Q30.15 -11.35 30.3 -11.05 L30.35 -11.0 Q29.35 -9.65 27.75 -9.65 L26.1 -9.6 Q26.8 -10.75 28.65 -10.25 L28.85 -10.45 Q29.15 -11.05 29.8 -11.25 M33.25 -11.0 Q33.45 -11.65 33.8 -12.0 L34.05 -8.9 33.9 -7.8 Q32.6 -8.9 33.25 -11.0 M0.05 -25.25 Q0.1 -27.2 -1.85 -27.9 -2.4 -28.1 -2.05 -28.6 L-1.4 -29.1 Q0.85 -28.6 0.95 -26.05 L0.8 -22.95 Q0.05 -23.7 0.05 -25.25 M40.55 -16.9 L40.65 -17.0 40.75 -17.05 Q42.75 -17.45 43.45 -16.05 L43.45 -16.0 Q41.6 -15.35 40.55 -16.8 L40.5 -16.9 40.55 -16.9 M-34.6 -13.55 Q-32.05 -12.9 -30.6 -10.5 L-29.95 -9.8 -23.3 -5.75 -22.6 -5.05 -22.6 -5.0 -22.7 -4.9 -22.75 -4.85 -22.6 -4.65 -22.55 -4.4 -22.55 -4.3 Q-24.15 -4.85 -25.65 -6.1 -26.95 -7.25 -28.6 -7.8 L-31.15 -8.8 Q-33.85 -10.1 -35.25 -12.4 -35.5 -12.85 -35.15 -13.25 L-34.6 -13.55 M-9.05 6.85 Q-10.9 5.4 -10.5 3.45 -11.1 2.8 -10.7 2.45 L-8.35 5.75 Q-7.45 6.85 -8.6 7.0 L-9.05 6.85 M-14.9 6.8 Q-15.05 6.5 -14.75 6.25 L-13.1 5.1 Q-12.3 5.7 -13.25 6.75 L-14.9 6.8 M-18.45 12.2 L-18.4 12.25 Q-20.5 15.3 -23.0 17.95 -23.2 18.15 -23.2 17.85 -23.15 16.7 -22.25 15.8 L-19.45 12.8 -19.3 12.8 -18.65 12.1 -18.45 12.2" fill="#ff0000" fill-rule="evenodd" stroke="none"/>
  </g>
</svg>
