<?xml version="1.0" encoding="UTF-8" standalone="no"?>
<svg xmlns:ffdec="https://www.free-decompiler.com/flash" xmlns:xlink="http://www.w3.org/1999/xlink" ffdec:objectType="shape" height="49.8px" width="80.35px" xmlns="http://www.w3.org/2000/svg">
  <g transform="matrix(1.0, 0.0, 0.0, 1.0, 35.4, 29.4)">
    <path d="M0.75 -24.9 Q1.2 -24.3 0.9 -23.4 L0.85 -23.35 Q0.2 -23.95 0.5 -25.0 L0.6 -25.0 Q0.25 -25.65 0.1 -26.65 0.05 -27.3 -0.4 -27.8 -1.9 -26.75 -2.25 -28.15 -2.6 -29.35 -1.15 -29.35 L-0.75 -29.4 Q0.85 -29.1 0.9 -27.15 L0.75 -24.9 M14.2 -15.55 Q13.3 -16.1 12.3 -16.25 L12.1 -16.35 Q11.85 -16.55 11.9 -16.9 L11.9 -16.95 12.05 -17.05 12.15 -17.1 Q14.3 -17.15 14.4 -15.6 14.45 -15.4 14.2 -15.55 M1.55 -8.25 Q1.25 -6.85 0.45 -6.15 L0.25 -5.9 0.25 -6.05 0.05 -5.95 0.2 -6.35 Q0.0 -8.45 0.8 -10.4 1.35 -9.5 1.1 -8.15 L1.1 -8.1 1.3 -8.4 1.5 -8.25 1.55 -8.25 M16.6 -6.1 L19.85 -6.4 20.05 -6.25 20.1 -6.2 16.6 -6.05 16.6 -6.1 M37.35 -13.5 Q37.05 -13.15 36.65 -13.2 36.55 -13.8 37.1 -14.5 37.45 -14.95 37.85 -15.2 39.0 -14.55 40.15 -14.45 L40.2 -14.4 Q39.45 -13.35 38.0 -14.4 L37.9 -14.4 37.35 -13.5 M29.05 -8.85 Q29.15 -9.75 30.05 -10.05 L30.4 -10.15 Q30.65 -10.15 30.7 -9.95 L30.75 -9.95 28.9 -8.45 Q28.7 -8.3 28.45 -8.45 L27.15 -9.0 27.1 -9.3 27.2 -9.45 Q28.2 -9.35 29.05 -8.85 M23.25 -7.3 Q22.0 -6.1 20.4 -6.35 L23.0 -7.55 23.2 -7.35 23.25 -7.3 M33.8 -10.4 L33.85 -10.4 Q34.4 -8.8 34.3 -7.0 L34.25 -6.95 Q33.3 -8.45 33.8 -10.4 M43.25 -16.4 L43.4 -16.5 43.5 -16.55 Q44.8 -16.7 44.95 -15.8 L44.95 -15.75 Q44.9 -15.65 44.75 -15.65 44.35 -15.55 44.1 -15.8 43.95 -15.6 43.7 -15.7 43.25 -15.9 43.25 -16.35 L43.25 -16.4 M-35.3 -10.95 Q-35.8 -12.7 -34.15 -13.3 -31.05 -12.9 -29.95 -10.05 L-29.65 -9.8 Q-27.55 -9.4 -26.3 -7.7 L-25.55 -7.0 -23.05 -5.3 Q-24.15 -4.65 -25.55 -5.65 -28.75 -7.9 -32.75 -8.75 -34.8 -9.15 -35.3 -10.95 M-9.8 6.3 Q-10.25 5.05 -10.3 3.95 L-10.25 3.95 Q-8.0 5.55 -7.5 8.2 L-7.5 8.25 Q-9.05 8.1 -9.8 6.3 M-15.0 7.8 Q-15.1 7.2 -14.55 6.75 -13.85 6.25 -13.15 6.0 -12.15 7.1 -13.6 8.15 -14.75 9.0 -15.0 7.8 M-24.4 19.85 Q-25.3 21.0 -25.0 19.65 L-24.3 18.35 -21.0 14.9 Q-20.85 14.9 -20.75 15.05 L-20.75 15.1 -24.4 19.85" fill="#ff0000" fill-rule="evenodd" stroke="none"/>
  </g>
</svg>
