<?xml version="1.0" encoding="UTF-8" standalone="no"?>
<svg xmlns:ffdec="https://www.free-decompiler.com/flash" xmlns:xlink="http://www.w3.org/1999/xlink" ffdec:objectType="shape" height="51.65px" width="82.5px" xmlns="http://www.w3.org/2000/svg">
  <g transform="matrix(1.0, 0.0, 0.0, 1.0, 35.65, 29.15)">
    <path d="M0.6 -26.6 Q0.05 -26.6 -0.15 -27.4 -0.25 -27.9 -0.75 -28.0 -1.8 -26.45 -2.35 -28.25 -2.6 -28.95 -1.75 -29.1 L-1.6 -29.15 Q0.5 -28.9 0.6 -26.65 L0.6 -26.6 M0.65 -26.4 Q1.25 -25.35 0.9 -24.0 L0.85 -23.95 Q0.15 -24.85 0.6 -26.35 L0.65 -26.4 M14.3 -15.4 Q13.7 -15.65 13.55 -16.3 L13.65 -16.4 13.8 -16.45 Q15.35 -16.35 14.85 -15.5 L14.3 -15.4 M0.75 -6.2 L0.05 -6.1 Q0.2 -7.7 0.85 -9.0 1.15 -7.8 0.75 -6.25 L0.75 -6.2 M17.25 -5.15 L17.35 -5.15 20.25 -5.05 20.3 -5.0 17.1 -4.9 17.2 -5.1 17.25 -5.15 M39.9 -14.55 L41.0 -13.95 41.05 -13.95 39.2 -13.0 Q39.0 -12.85 38.9 -13.1 L39.3 -14.15 Q39.5 -14.5 39.9 -14.55 M27.7 -8.35 L27.95 -8.55 28.95 -7.75 29.0 -7.75 Q29.4 -8.55 30.1 -8.25 L30.15 -8.2 29.4 -7.2 29.2 -7.0 Q28.15 -7.35 27.7 -8.3 L27.7 -8.35 M23.45 -6.5 Q22.55 -5.05 21.1 -4.9 L23.2 -6.75 23.45 -6.55 23.45 -6.5 M33.7 -8.35 Q33.6 -8.95 34.0 -9.15 L34.9 -6.7 34.9 -6.65 Q33.9 -6.7 33.7 -8.35 M45.3 -15.75 L45.6 -15.8 Q46.35 -15.8 46.85 -15.3 45.8 -14.45 45.15 -15.55 L45.15 -15.6 45.3 -15.75 M-34.1 -13.15 L-33.75 -13.25 Q-31.2 -13.5 -31.6 -11.6 L-31.75 -10.8 Q-31.8 -9.7 -30.45 -9.55 -27.55 -9.15 -25.6 -6.95 L-24.75 -6.35 -22.4 -4.7 Q-23.5 -4.55 -24.8 -5.35 -28.95 -7.95 -33.9 -8.75 -34.35 -8.85 -34.7 -9.25 -36.7 -11.35 -34.4 -13.05 L-34.1 -13.15 M-9.65 5.65 L-9.55 5.5 -9.4 5.45 Q-7.65 6.4 -7.55 8.65 L-7.85 8.7 Q-9.2 7.45 -9.65 5.65 M-13.15 7.25 Q-11.85 8.85 -14.0 9.15 -14.55 9.25 -14.85 8.75 -15.65 7.35 -13.85 7.35 L-13.15 7.25 M-26.65 22.5 Q-26.2 20.15 -24.2 18.3 L-22.95 17.1 Q-22.75 16.85 -22.45 16.75 L-22.25 16.85 -22.2 16.9 -26.5 22.5 -26.65 22.5" fill="#ff0000" fill-rule="evenodd" stroke="none"/>
  </g>
</svg>
