<?xml version="1.0" encoding="UTF-8" standalone="no"?>
<svg xmlns:ffdec="https://www.free-decompiler.com/flash" xmlns:xlink="http://www.w3.org/1999/xlink" ffdec:objectType="shape" height="52.45px" width="84.55px" xmlns="http://www.w3.org/2000/svg">
  <g transform="matrix(1.0, 0.0, 0.0, 1.0, 36.4, 28.8)">
    <path d="M0.5 -27.1 Q1.25 -25.9 1.15 -24.4 L1.15 -24.35 Q-0.05 -25.3 0.45 -27.05 L0.5 -27.1 M14.9 -15.8 Q14.95 -15.95 15.15 -15.95 16.0 -15.75 15.95 -15.0 L15.95 -14.95 Q14.9 -14.75 14.9 -15.8 M0.6 -5.85 Q-0.15 -6.35 0.75 -7.0 L0.95 -6.85 1.0 -6.8 0.65 -5.95 0.6 -5.85 M17.9 -3.8 L19.55 -3.35 19.6 -3.3 Q18.45 -2.6 17.8 -3.7 L17.9 -3.8 M28.45 -6.8 L28.5 -7.05 28.7 -7.15 Q29.15 -7.05 29.4 -6.6 29.55 -7.15 30.0 -6.9 L30.05 -6.8 28.45 -6.75 28.45 -6.8 M21.65 -3.45 Q22.05 -4.1 22.85 -4.4 L23.05 -4.25 23.1 -4.2 Q22.55 -3.25 21.7 -3.45 L21.65 -3.45 M35.25 -6.4 L35.25 -6.35 Q34.0 -6.5 34.25 -7.75 L34.3 -7.8 35.25 -6.4 M42.6 -13.85 L42.6 -13.8 Q42.15 -13.1 41.45 -13.1 41.45 -13.7 42.1 -14.15 L42.25 -14.2 42.6 -13.85 M48.15 -14.45 L48.15 -14.4 Q47.25 -13.9 47.35 -14.9 L47.5 -15.0 Q48.1 -15.0 48.15 -14.45 M-0.1 -27.65 L-0.15 -27.6 Q-0.8 -28.05 -1.35 -27.9 -1.05 -27.3 -2.4 -27.0 -2.85 -26.9 -2.85 -27.45 L-2.65 -28.05 Q-2.5 -28.6 -1.75 -28.8 -0.1 -28.95 -0.1 -27.65 M-33.75 -12.3 Q-33.35 -12.7 -32.8 -12.8 -31.8 -12.3 -32.85 -11.0 -33.2 -10.5 -32.65 -10.25 -31.15 -9.45 -29.5 -8.85 -27.2 -8.05 -25.05 -6.8 -23.55 -5.9 -22.5 -4.65 -24.25 -4.95 -26.0 -6.1 -29.8 -8.55 -34.45 -8.45 -36.15 -8.4 -36.35 -10.0 -36.6 -11.85 -34.5 -11.95 -34.1 -11.95 -33.75 -12.3 M-8.7 6.6 Q-7.6 7.8 -7.15 9.5 L-7.15 9.55 Q-8.3 9.6 -8.95 8.25 -9.5 7.1 -8.7 6.6 M-13.3 8.7 Q-12.65 8.1 -12.55 9.15 -12.5 9.7 -13.1 9.95 -14.35 10.35 -14.8 9.2 -15.05 8.55 -14.6 8.25 L-13.95 8.8 -13.65 8.7 -13.3 8.7 M-27.4 23.65 L-27.55 23.65 -25.75 20.45 -24.95 19.5 Q-24.7 20.5 -25.55 21.75 -26.35 22.95 -27.4 23.65" fill="#ff0000" fill-rule="evenodd" stroke="none"/>
  </g>
</svg>
