<?xml version="1.0" encoding="UTF-8" standalone="no"?>
<svg xmlns:ffdec="https://www.free-decompiler.com/flash" xmlns:xlink="http://www.w3.org/1999/xlink" ffdec:objectType="shape" height="53.5px" width="80.65px" xmlns="http://www.w3.org/2000/svg">
  <g transform="matrix(1.0, 0.0, 0.0, 1.0, 36.4, 28.6)">
    <path d="M0.5 -27.1 L0.55 -27.15 Q1.2 -26.4 1.0 -25.35 L1.0 -25.3 Q0.0 -25.85 0.5 -27.1 M15.65 -15.1 L15.7 -15.3 15.9 -15.4 Q17.0 -14.55 15.75 -14.85 L15.65 -15.1 M18.1 -2.0 L18.1 -2.15 18.35 -2.4 Q18.8 -2.45 19.0 -2.1 L19.0 -2.05 18.1 -2.0 M22.2 -1.95 Q21.9 -2.55 22.7 -2.75 L22.9 -2.6 22.95 -2.55 Q22.85 -2.05 22.35 -1.95 L22.2 -1.95 M28.95 -5.4 L29.1 -5.5 29.2 -5.55 29.9 -5.4 29.95 -5.35 Q29.7 -4.15 29.0 -5.2 28.9 -5.3 28.95 -5.4 M34.75 -6.8 L35.25 -6.1 35.25 -6.05 Q34.35 -5.85 34.7 -6.75 L34.75 -6.8 M43.45 -13.2 L43.4 -13.2 Q43.55 -13.75 44.1 -13.9 44.65 -13.0 43.45 -13.2 M-2.05 -27.75 Q-0.7 -26.75 -2.3 -26.65 -2.85 -26.6 -2.8 -27.2 -2.7 -28.25 -1.65 -28.55 -0.7 -28.7 -0.9 -28.0 L-0.95 -27.95 -2.05 -27.75 M-33.3 -11.35 L-33.0 -11.45 Q-31.05 -10.5 -33.1 -9.5 L-33.6 -9.2 -28.8 -8.15 Q-26.75 -7.8 -24.95 -6.65 -23.35 -5.65 -22.45 -4.35 -25.3 -5.8 -28.65 -6.75 -31.6 -7.55 -34.65 -7.75 -37.15 -7.9 -36.05 -9.85 -35.6 -10.75 -34.65 -10.25 L-33.9 -10.3 Q-33.95 -11.05 -33.3 -11.35 M-8.35 8.35 L-8.25 8.3 Q-7.2 9.1 -7.15 10.6 -8.05 10.55 -8.4 9.2 L-8.5 8.5 -8.35 8.35 M-14.7 9.05 L-14.55 9.0 -14.3 9.05 -14.25 9.05 -14.15 9.25 -14.1 9.45 Q-13.1 9.7 -12.5 9.0 -12.05 9.2 -12.4 9.65 L-12.9 10.15 -12.9 10.2 -12.45 10.85 -12.4 10.9 Q-12.9 11.3 -13.45 10.7 L-13.85 10.25 Q-14.25 10.3 -14.45 10.8 -14.65 11.4 -15.1 11.1 L-15.15 11.05 -14.75 10.2 Q-14.5 9.7 -14.75 9.15 L-14.7 9.05 M-26.2 22.15 Q-26.7 24.25 -28.35 24.9 L-28.35 24.75 -26.45 22.0 -26.25 22.1 -26.2 22.15" fill="#ff0000" fill-rule="evenodd" stroke="none"/>
  </g>
</svg>
