<?xml version="1.0" encoding="UTF-8" standalone="no"?>
<svg xmlns:ffdec="https://www.free-decompiler.com/flash" xmlns:xlink="http://www.w3.org/1999/xlink" ffdec:objectType="shape" height="54.05px" width="67.0px" xmlns="http://www.w3.org/2000/svg">
  <g transform="matrix(1.0, 0.0, 0.0, 1.0, 36.85, 28.25)">
    <path d="M29.75 -4.05 L29.85 -4.1 Q30.25 -3.9 30.15 -3.5 L30.15 -3.45 Q29.55 -3.2 29.5 -3.9 L29.75 -4.05 M0.8 -25.8 L0.75 -25.75 Q0.1 -26.4 0.65 -27.0 1.3 -26.45 0.8 -25.8 M-1.9 -26.7 Q-2.65 -26.7 -2.6 -27.4 -2.55 -28.0 -2.0 -28.25 -1.75 -28.25 -1.65 -28.05 L-1.65 -28.0 Q-1.7 -27.75 -2.0 -27.6 -0.1 -26.8 -1.9 -26.7 M-36.55 -9.15 Q-35.95 -9.95 -35.25 -9.25 -34.85 -8.85 -34.3 -8.9 -34.55 -9.2 -34.4 -9.65 L-33.95 -10.0 Q-31.9 -9.35 -33.7 -8.1 -32.05 -8.5 -30.75 -7.75 -33.25 -7.1 -36.0 -7.65 -37.4 -7.95 -36.55 -9.15 M-25.35 -5.45 Q-27.75 -6.85 -30.35 -7.6 L-30.25 -7.75 -30.15 -7.75 Q-26.05 -7.15 -22.8 -4.65 L-22.75 -4.6 Q-23.95 -4.65 -25.35 -5.45 M-7.95 9.6 Q-6.95 10.45 -7.05 11.85 L-7.1 11.85 Q-8.45 11.3 -8.0 9.6 L-7.95 9.6 M-12.95 10.75 Q-12.25 11.85 -13.15 11.3 L-13.5 10.95 -14.8 12.05 -15.15 12.1 Q-15.45 11.55 -14.8 11.1 L-14.2 10.75 -14.45 10.55 -14.5 10.5 -14.35 10.05 -14.1 9.85 -12.45 10.1 -12.4 10.1 Q-12.4 10.45 -12.7 10.6 L-12.95 10.75 M-27.55 24.2 L-27.5 24.25 Q-27.95 25.6 -28.95 25.8 L-29.0 25.75 Q-28.65 24.75 -27.75 24.1 L-27.55 24.2" fill="#ff0000" fill-rule="evenodd" stroke="none"/>
  </g>
</svg>
