<?xml version="1.0" encoding="UTF-8" standalone="no"?>
<svg xmlns:ffdec="https://www.free-decompiler.com/flash" xmlns:xlink="http://www.w3.org/1999/xlink" ffdec:objectType="shape" height="54.6px" width="67.4px" xmlns="http://www.w3.org/2000/svg">
  <g transform="matrix(1.0, 0.0, 0.0, 1.0, 36.95, 27.8)">
    <path d="M1.2 -25.0 L1.2 -24.95 Q0.25 -25.3 0.75 -26.25 L0.8 -26.3 Q1.4 -25.8 1.2 -25.0 M30.45 -2.25 L30.45 -2.2 29.9 -2.15 Q29.7 -2.55 30.05 -2.75 L30.15 -2.8 Q30.55 -2.7 30.45 -2.25 M-1.85 -27.4 Q-0.35 -27.65 -1.35 -26.75 L-1.95 -26.7 Q-2.75 -27.25 -2.15 -27.8 -1.85 -27.7 -1.9 -27.45 L-1.85 -27.4 M-34.25 -8.45 Q-33.1 -8.3 -33.7 -7.25 L-33.7 -7.2 -32.05 -7.1 Q-34.3 -5.65 -36.8 -6.85 L-36.9 -7.25 Q-36.6 -8.3 -35.75 -7.35 -35.2 -6.75 -34.5 -7.15 L-34.5 -8.1 -34.25 -8.45 M-26.75 -5.45 Q-28.65 -6.15 -30.15 -7.1 L-30.1 -7.2 -29.9 -7.3 Q-26.35 -5.95 -22.8 -4.75 L-22.75 -4.7 Q-24.65 -4.65 -26.75 -5.45 M-7.3 11.55 Q-6.55 12.15 -6.85 13.05 L-6.9 13.1 Q-7.9 12.8 -7.4 11.6 L-7.3 11.55 M-12.9 11.75 L-13.5 11.35 Q-14.05 11.9 -14.75 11.95 -14.45 11.25 -13.7 10.75 L-13.9 10.5 Q-14.0 10.35 -13.8 10.35 -13.05 10.35 -12.6 10.7 L-13.1 10.95 Q-12.85 11.25 -12.9 11.7 L-12.9 11.75 M-28.65 25.9 Q-28.95 26.75 -29.6 26.8 -29.65 26.15 -29.05 25.75 L-28.95 25.7 Q-28.75 25.7 -28.65 25.85 L-28.65 25.9" fill="#ff0000" fill-rule="evenodd" stroke="none"/>
  </g>
</svg>
