<?xml version="1.0" encoding="UTF-8" standalone="no"?>
<svg xmlns:ffdec="https://www.free-decompiler.com/flash" xmlns:xlink="http://www.w3.org/1999/xlink" ffdec:objectType="shape" height="41.85px" width="38.5px" xmlns="http://www.w3.org/2000/svg">
  <g transform="matrix(1.0, 0.0, 0.0, 1.0, 37.05, 27.9)">
    <path d="M1.4 -23.85 L1.35 -23.8 Q0.45 -24.45 1.05 -25.4 1.6 -24.75 1.4 -23.85 M-2.0 -27.25 L-2.05 -27.5 -1.7 -27.9 Q-0.6 -26.85 -2.0 -27.25 M-34.45 -6.3 Q-34.75 -6.35 -34.6 -6.6 L-34.2 -6.95 Q-33.0 -6.1 -34.45 -6.3 M-36.95 -6.15 L-36.7 -6.4 Q-36.05 -6.2 -35.8 -5.5 L-32.5 -5.3 -32.45 -5.3 Q-34.05 -4.15 -36.5 -4.9 -37.25 -5.2 -37.0 -5.65 L-36.95 -6.15 M-29.65 -6.0 L-29.55 -6.1 -29.4 -6.15 Q-26.0 -4.7 -22.3 -4.85 L-22.2 -4.85 Q-22.1 -4.4 -22.55 -4.4 -26.45 -4.1 -29.65 -5.95 L-29.65 -6.0 M-13.75 11.5 L-13.75 11.45 -13.7 11.4 -13.5 11.25 Q-12.95 11.15 -12.8 11.6 L-12.8 11.65 -12.95 11.85 Q-12.65 12.1 -12.9 12.6 L-12.95 12.65 -13.4 12.25 -14.15 12.55 Q-14.3 12.0 -13.7 11.65 L-13.75 11.5 M-7.05 12.45 Q-6.4 13.1 -6.9 13.9 L-6.95 13.95 Q-7.55 13.3 -7.1 12.5 L-7.05 12.45" fill="#ff0000" fill-rule="evenodd" stroke="none"/>
  </g>
</svg>
