<?xml version="1.0" encoding="UTF-8" standalone="no"?>
<svg xmlns:ffdec="https://www.free-decompiler.com/flash" xmlns:xlink="http://www.w3.org/1999/xlink" ffdec:objectType="shape" height="43.0px" width="38.75px" xmlns="http://www.w3.org/2000/svg">
  <g transform="matrix(1.0, 0.0, 0.0, 1.0, 36.9, 27.75)">
    <path d="M1.25 -24.3 Q1.9 -23.3 1.85 -22.0 L1.8 -21.95 Q0.7 -22.7 1.2 -24.25 L1.25 -24.3 M-1.5 -27.25 Q-2.2 -27.15 -1.8 -27.7 L-1.75 -27.75 Q-1.4 -27.65 -1.5 -27.3 L-1.5 -27.25 M-34.6 -5.3 L-34.65 -5.6 -34.25 -5.9 Q-33.45 -4.9 -34.6 -5.3 M-36.9 -4.35 L-36.8 -4.55 -36.45 -4.7 Q-35.05 -3.7 -33.0 -3.75 -35.4 -2.7 -36.9 -4.35 M-28.8 -5.15 Q-25.9 -3.5 -22.8 -4.6 L-22.75 -4.55 Q-26.2 -2.35 -29.05 -5.0 L-28.9 -5.15 -28.8 -5.15 M-12.85 12.75 L-12.8 12.75 Q-12.75 13.7 -13.7 13.35 L-13.75 13.25 -13.4 12.75 -13.25 12.65 -12.85 12.75 M-13.6 13.8 Q-13.55 14.1 -13.8 14.3 L-13.9 14.35 Q-14.45 13.95 -13.85 13.65 L-13.65 13.75 -13.6 13.8 M-13.15 13.65 Q-12.8 13.8 -12.9 14.2 L-12.9 14.25 Q-13.4 14.45 -13.4 13.85 L-13.25 13.65 -13.15 13.65 M-6.9 13.95 Q-6.4 14.45 -6.5 15.2 L-6.5 15.25 Q-7.45 15.0 -6.95 14.0 L-6.9 13.95" fill="#ff0000" fill-rule="evenodd" stroke="none"/>
  </g>
</svg>
