<?xml version="1.0" encoding="UTF-8" standalone="no"?>
<svg xmlns:ffdec="https://www.free-decompiler.com/flash" xmlns:xlink="http://www.w3.org/1999/xlink" ffdec:objectType="shape" height="38.95px" width="38.4px" xmlns="http://www.w3.org/2000/svg">
  <g transform="matrix(1.0, 0.0, 0.0, 1.0, 36.25, 22.25)">
    <path d="M1.4 -22.25 Q2.4 -21.05 2.05 -19.6 L2.0 -19.55 Q1.1 -20.7 1.35 -22.2 L1.4 -22.25 M-36.25 -2.95 L-36.2 -3.1 -36.15 -3.15 -36.0 -3.2 -33.7 -2.75 -35.95 -2.65 -36.25 -2.95 M-34.25 -4.4 L-34.0 -4.3 -33.95 -4.3 Q-34.35 -3.3 -34.3 -4.35 L-34.25 -4.4 M-28.4 -3.5 L-26.6 -3.15 Q-25.75 -2.8 -25.0 -3.4 L-23.45 -4.7 -23.2 -4.6 -23.15 -4.55 Q-24.85 -1.7 -27.85 -3.0 L-28.4 -3.5 M-13.0 14.9 Q-13.5 14.75 -13.25 14.15 L-13.1 14.0 -12.65 14.1 Q-12.5 14.45 -12.75 14.7 L-13.0 14.9 M-13.6 15.5 Q-13.15 15.75 -13.45 16.2 L-13.5 16.25 Q-14.1 16.05 -13.65 15.55 L-13.6 15.5 M-12.55 16.0 Q-12.1 16.2 -12.2 16.65 L-12.25 16.7 Q-12.8 16.75 -12.75 16.15 L-12.65 16.0 -12.55 16.0 M-6.55 15.5 Q-6.15 15.75 -6.25 16.25 L-6.3 16.3 Q-7.05 16.25 -6.6 15.55 L-6.55 15.5" fill="#ff0000" fill-rule="evenodd" stroke="none"/>
  </g>
</svg>
