<?xml version="1.0" encoding="UTF-8" standalone="no"?>
<svg xmlns:ffdec="https://www.free-decompiler.com/flash" xmlns:xlink="http://www.w3.org/1999/xlink" ffdec:objectType="shape" height="38.2px" width="38.4px" xmlns="http://www.w3.org/2000/svg">
  <g transform="matrix(1.0, 0.0, 0.0, 1.0, 35.85, 19.6)">
    <path d="M1.85 -19.6 Q2.85 -18.75 2.4 -17.65 L2.4 -17.6 Q1.45 -18.35 1.8 -19.55 L1.85 -19.6 M-34.5 -1.5 Q-35.3 -0.9 -35.85 -1.75 L-35.7 -1.9 Q-35.0 -1.9 -34.5 -1.5 M-27.25 -1.15 Q-27.9 -1.8 -27.65 -2.45 -27.05 -1.75 -26.1 -1.5 L-25.6 -1.65 Q-24.2 -2.7 -23.05 -3.9 L-22.75 -3.75 -22.75 -3.7 Q-24.15 -1.35 -26.7 -1.0 L-27.25 -1.15 M-12.75 15.4 Q-12.6 15.4 -12.5 15.55 L-12.5 15.6 Q-12.45 15.75 -12.55 15.9 L-12.65 16.0 Q-13.05 16.0 -13.0 15.6 L-12.85 15.4 -12.75 15.4 M-13.65 17.5 Q-13.2 17.75 -13.55 18.2 L-13.55 18.25 Q-14.15 18.05 -13.7 17.55 L-13.65 17.5 M-12.5 18.0 Q-11.95 18.1 -12.25 18.6 -12.75 18.65 -12.75 18.15 L-12.6 18.05 -12.5 18.0" fill="#ff0000" fill-rule="evenodd" stroke="none"/>
  </g>
</svg>
