<?xml version="1.0" encoding="UTF-8" standalone="no"?>
<svg xmlns:ffdec="https://www.free-decompiler.com/flash" xmlns:xlink="http://www.w3.org/1999/xlink" ffdec:objectType="shape" height="38.75px" width="38.2px" xmlns="http://www.w3.org/2000/svg">
  <g transform="matrix(1.0, 0.0, 0.0, 1.0, 35.4, 17.5)">
    <path d="M2.7 -16.2 L2.7 -16.15 Q1.8 -16.7 2.3 -17.5 3.0 -17.0 2.7 -16.2 M-35.25 -1.05 Q-34.8 -1.0 -34.65 -0.65 L-34.65 -0.6 Q-35.5 -0.1 -35.4 -0.95 L-35.25 -1.05 M-27.0 -0.55 Q-24.85 -0.4 -23.55 -2.3 -23.4 -2.3 -23.3 -2.15 L-23.3 -2.1 Q-24.4 0.45 -26.9 -0.35 L-27.0 -0.55 M-12.2 20.5 L-12.1 20.5 Q-11.55 20.7 -11.9 21.2 L-11.95 21.25 Q-12.4 21.15 -12.3 20.65 L-12.2 20.5 M-13.75 19.0 Q-13.3 19.25 -13.6 19.65 L-13.65 19.7 Q-14.25 19.5 -13.8 19.05 L-13.75 19.0" fill="#ff0000" fill-rule="evenodd" stroke="none"/>
  </g>
</svg>
