<?xml version="1.0" encoding="UTF-8" standalone="no"?>
<svg xmlns:ffdec="https://www.free-decompiler.com/flash" xmlns:xlink="http://www.w3.org/1999/xlink" ffdec:objectType="shape" height="39.4px" width="38.35px" xmlns="http://www.w3.org/2000/svg">
  <g transform="matrix(1.0, 0.0, 0.0, 1.0, 35.25, 15.75)">
    <path d="M2.8 -15.75 Q3.3 -15.45 2.95 -14.95 L2.95 -14.9 Q2.3 -15.15 2.75 -15.7 L2.8 -15.75 M-23.55 -0.1 Q-25.05 1.55 -26.45 0.25 L-26.4 0.15 Q-25.05 0.55 -23.8 -0.3 L-23.55 -0.15 -23.55 -0.1 M-13.8 21.85 Q-13.35 22.1 -13.65 22.55 L-13.7 22.55 Q-14.3 22.4 -13.85 21.85 L-13.8 21.85 M-12.0 22.85 Q-11.45 23.0 -11.75 23.6 L-11.8 23.65 Q-12.25 23.6 -12.25 23.0 L-12.1 22.9 -12.0 22.85 M-35.15 0.05 Q-34.85 0.0 -34.7 0.3 L-34.7 0.35 Q-35.3 0.9 -35.25 0.15 L-35.15 0.05" fill="#ff0000" fill-rule="evenodd" stroke="none"/>
  </g>
</svg>
