<?xml version="1.0" encoding="UTF-8" standalone="no"?>
<svg xmlns:ffdec="https://www.free-decompiler.com/flash" xmlns:xlink="http://www.w3.org/1999/xlink" ffdec:objectType="shape" height="13.1px" width="11.7px" xmlns="http://www.w3.org/2000/svg">
  <g transform="matrix(1.0, 0.0, 0.0, 1.0, -3.2, 48.35)">
    <path d="M12.15 -42.4 Q11.9 -42.15 12.3 -41.65 13.4 -40.2 13.7 -38.7 11.6 -39.15 9.95 -41.1 9.4 -37.75 7.15 -35.35 6.9 -35.1 6.9 -35.65 L7.2 -39.85 Q3.85 -39.8 3.2 -41.8 3.1 -42.05 3.5 -42.0 4.8 -41.75 4.35 -42.35 3.35 -44.55 3.35 -47.05 3.35 -48.05 4.1 -48.35 5.75 -45.3 8.5 -44.4 8.85 -44.25 9.25 -44.6 12.0 -46.65 14.9 -46.75 14.0 -44.65 12.15 -42.4" fill="#aa0909" fill-rule="evenodd" stroke="none"/>
  </g>
</svg>
