<?xml version="1.0" encoding="UTF-8" standalone="no"?>
<svg xmlns:ffdec="https://www.free-decompiler.com/flash" xmlns:xlink="http://www.w3.org/1999/xlink" ffdec:objectType="shape" height="73.15px" width="11.8px" xmlns="http://www.w3.org/2000/svg">
  <g transform="matrix(1.0, 0.0, 0.0, 1.0, -2.85, 48.6)">
    <path d="M4.65 20.2 Q5.95 19.3 7.8 19.15 6.05 18.1 6.3 16.35 8.2 16.15 9.05 18.3 10.1 16.2 12.05 15.2 12.4 16.85 11.8 18.6 L11.8 18.7 Q16.2 20.25 11.6 21.75 L10.9 22.4 9.4 24.55 Q8.45 22.9 8.8 20.55 L8.8 20.45 Q6.45 21.2 4.65 20.2" fill="#aa0909" fill-rule="evenodd" stroke="none"/>
    <path d="M14.65 -40.5 L10.6 -41.4 Q11.6 -39.3 12.05 -37.15 12.15 -36.85 11.85 -36.6 9.55 -38.0 8.35 -41.05 6.2 -39.2 3.6 -38.75 4.5 -40.7 6.95 -42.15 4.25 -44.3 2.85 -47.3 5.6 -47.05 8.15 -44.8 10.75 -46.9 13.5 -48.6 13.9 -48.7 14.15 -48.35 L14.2 -48.25 12.3 -44.15 12.15 -43.75 Q14.45 -42.55 14.65 -40.5" fill="#aa0909" fill-rule="evenodd" stroke="none"/>
  </g>
</svg>
