<?xml version="1.0" encoding="UTF-8" standalone="no"?>
<svg xmlns:ffdec="https://www.free-decompiler.com/flash" xmlns:xlink="http://www.w3.org/1999/xlink" ffdec:objectType="shape" height="79.25px" width="23.8px" xmlns="http://www.w3.org/2000/svg">
  <g transform="matrix(1.0, 0.0, 0.0, 1.0, 2.65, 53.1)">
    <path d="M8.45 18.9 Q9.0 15.55 11.25 13.15 11.5 12.9 11.5 13.45 L11.2 17.65 Q14.55 17.6 15.2 19.6 L14.9 19.8 Q13.6 19.55 14.05 20.15 15.05 22.35 15.05 24.85 15.05 25.85 14.3 26.15 12.65 23.1 9.9 22.2 9.55 22.05 9.15 22.4 6.4 24.45 3.5 24.55 4.4 22.45 6.25 20.2 6.5 19.95 6.1 19.45 5.0 18.0 4.7 16.5 6.8 16.95 8.45 18.9" fill="#aa0909" fill-rule="evenodd" stroke="none"/>
    <path d="M0.6 -51.85 Q2.3 -48.4 6.1 -46.75 8.15 -49.7 9.85 -53.0 L10.0 -53.1 Q11.35 -50.1 13.05 -47.25 13.2 -47.05 13.6 -47.25 17.6 -49.15 21.15 -50.5 20.15 -47.2 16.7 -45.75 20.65 -45.35 19.65 -43.45 19.35 -42.8 18.5 -42.55 16.6 -41.95 14.95 -41.2 16.3 -38.6 17.0 -36.2 L17.0 -36.15 Q14.9 -37.25 13.0 -38.75 12.35 -35.05 9.35 -34.15 9.2 -34.1 9.15 -34.55 L8.6 -39.3 Q4.35 -35.35 0.0 -38.15 L0.35 -38.5 Q2.7 -39.55 4.45 -41.4 2.05 -41.35 -0.6 -42.2 -2.2 -42.75 -2.65 -44.3 0.6 -43.9 2.85 -45.25 -0.85 -47.65 0.45 -51.75 L0.6 -51.85" fill="#aa0909" fill-rule="evenodd" stroke="none"/>
    <path d="M10.15 -44.5 Q12.1 -45.5 14.3 -45.7 14.05 -44.85 13.1 -44.25 L15.65 -43.6 Q13.55 -42.8 11.2 -42.3 L11.65 -39.5 11.55 -39.2 Q10.4 -40.45 9.75 -42.25 L9.65 -42.55 Q7.85 -40.8 5.55 -40.85 L5.5 -41.1 5.5 -41.15 5.85 -41.35 Q5.55 -42.9 4.65 -44.25 L7.85 -44.25 Q8.6 -45.7 9.7 -47.05 10.2 -45.95 10.15 -44.55 L10.15 -44.5" fill="#fdc43e" fill-rule="evenodd" stroke="none"/>
    <path d="M11.85 -44.65 L12.5 -44.6 Q12.05 -44.2 11.35 -44.1 L13.25 -44.05 13.4 -43.95 Q12.35 -42.85 10.55 -43.45 L10.55 -43.4 10.75 -42.0 10.65 -41.85 Q10.05 -42.4 9.7 -43.3 8.35 -42.65 6.9 -42.4 6.4 -43.6 7.25 -43.95 L7.35 -43.95 8.8 -44.05 8.9 -44.1 9.5 -45.1 9.65 -44.2 9.65 -44.15 9.85 -44.3 9.9 -44.3 10.05 -44.2 10.05 -44.15 11.7 -44.85 11.85 -44.65" fill="#fefd9a" fill-rule="evenodd" stroke="none"/>
  </g>
</svg>
