<?xml version="1.0" encoding="UTF-8" standalone="no"?>
<svg xmlns:ffdec="https://www.free-decompiler.com/flash" xmlns:xlink="http://www.w3.org/1999/xlink" ffdec:objectType="shape" height="90.55px" width="43.3px" xmlns="http://www.w3.org/2000/svg">
  <g transform="matrix(1.0, 0.0, 0.0, 1.0, 10.0, 62.0)">
    <path d="M1.95 22.05 Q3.9 20.05 7.15 19.4 6.65 17.25 6.8 15.0 6.8 14.65 7.05 14.45 8.85 16.05 9.5 19.05 11.25 16.85 13.7 16.45 13.55 18.2 11.85 19.45 15.15 19.5 17.8 21.6 15.25 22.65 12.3 22.3 12.3 25.35 11.7 28.2 L11.3 28.55 Q9.8 25.65 8.6 22.05 L8.6 21.95 Q5.1 22.7 1.95 22.05" fill="#aa0909" fill-rule="evenodd" stroke="none"/>
    <path d="M4.7 -50.8 Q7.85 -55.2 12.0 -58.85 12.4 -55.65 13.5 -52.05 L13.75 -51.1 Q18.05 -54.4 21.0 -59.1 21.95 -56.1 20.15 -52.75 L19.0 -50.85 23.65 -51.5 Q25.0 -51.5 26.25 -52.2 L32.6 -55.35 Q33.0 -55.45 33.25 -55.1 L33.3 -55.0 Q29.5 -50.05 24.7 -46.3 L28.75 -45.7 28.8 -45.65 Q25.35 -41.85 20.3 -39.85 24.95 -37.9 28.15 -33.45 29.1 -32.1 30.55 -31.25 30.95 -31.0 30.8 -30.55 26.65 -30.55 23.0 -33.65 21.45 -34.95 19.8 -35.35 20.05 -34.7 20.5 -34.2 21.25 -33.45 20.8 -32.65 17.85 -33.65 15.05 -35.05 15.65 -29.1 12.0 -24.3 11.4 -23.55 10.65 -24.1 11.65 -28.95 7.1 -32.05 5.75 -31.15 4.25 -30.65 L5.45 -37.0 2.75 -36.35 -9.4 -35.25 Q-8.7 -37.55 -5.8 -38.85 -3.35 -39.95 -1.1 -41.4 -5.9 -40.65 -10.0 -43.05 -6.05 -43.45 -2.3 -45.65 L-2.0 -45.75 0.0 -45.9 Q-3.55 -48.5 -6.7 -52.0 -8.3 -53.8 -8.6 -55.7 L-8.4 -55.85 Q-4.15 -51.85 1.2 -49.8 -0.85 -51.9 -2.65 -54.65 -4.7 -57.75 -4.95 -60.9 L-5.25 -61.65 -4.95 -61.95 -4.75 -62.0 Q-1.85 -56.25 3.1 -51.65 L3.2 -51.55 Q4.3 -51.8 4.7 -50.8" fill="#aa0909" fill-rule="evenodd" stroke="none"/>
    <path d="M9.35 -51.65 L9.4 -51.7 Q11.0 -49.55 11.15 -46.75 L11.15 -46.7 Q14.2 -48.05 16.8 -50.1 L16.9 -49.4 16.9 -49.2 24.15 -49.95 Q21.5 -48.25 18.95 -46.2 18.55 -45.85 18.0 -45.6 16.7 -45.0 15.3 -44.75 L19.65 -44.4 Q18.5 -42.3 16.2 -42.55 L14.65 -42.45 Q16.75 -40.15 17.1 -37.25 15.5 -38.4 13.4 -39.1 11.95 -39.6 11.45 -41.1 11.3 -38.15 10.8 -35.25 10.7 -34.65 11.25 -34.35 10.05 -34.4 9.05 -35.65 7.8 -37.15 8.35 -38.95 8.75 -40.45 8.25 -41.8 L8.05 -42.25 Q3.55 -38.85 -2.2 -38.65 -1.35 -39.85 0.2 -40.85 1.15 -41.4 1.7 -42.35 L2.55 -43.95 Q0.55 -43.5 -1.55 -43.9 -0.7 -44.8 0.7 -45.3 2.85 -46.1 2.85 -47.85 L2.65 -48.2 1.55 -49.3 Q4.7 -49.65 6.1 -46.45 6.35 -45.9 6.75 -45.7 7.35 -47.95 8.6 -50.05 L9.35 -51.65" fill="#fdc43e" fill-rule="evenodd" stroke="none"/>
    <path d="M16.2 -48.25 L21.85 -49.1 Q17.75 -46.2 12.85 -44.65 L18.15 -44.05 Q16.45 -42.85 14.1 -43.45 L13.85 -43.35 13.3 -43.1 Q14.65 -41.85 15.3 -39.85 L15.3 -39.8 Q12.55 -40.45 11.35 -42.95 L11.2 -43.0 Q11.1 -40.05 10.1 -37.1 L10.0 -37.0 9.95 -37.35 Q8.9 -37.65 9.1 -38.95 L9.35 -40.55 Q9.5 -42.1 8.6 -43.2 L8.45 -43.1 Q4.75 -39.85 0.0 -39.55 L-0.1 -39.5 0.0 -39.55 -0.2 -39.55 0.05 -39.6 4.2 -43.45 5.5 -44.75 0.9 -44.85 Q3.5 -45.45 4.0 -47.95 L3.25 -48.6 Q3.1 -48.7 3.3 -48.75 4.9 -48.2 5.5 -46.45 L5.85 -45.8 6.25 -45.4 6.3 -45.45 6.4 -45.5 7.15 -45.55 7.7 -46.7 9.5 -50.5 Q10.35 -48.4 10.5 -45.95 L10.5 -45.9 Q13.4 -47.0 16.1 -48.65 16.35 -48.5 16.2 -48.25 M11.25 -43.25 L11.2 -43.35 11.2 -43.25 11.25 -43.25" fill="#fefd9a" fill-rule="evenodd" stroke="none"/>
    <path d="M10.95 -44.1 L10.8 -42.25 10.25 -41.0 9.85 -43.3 9.3 -44.8 Q7.7 -42.7 5.1 -41.85 L4.3 -41.95 8.15 -45.05 9.5 -47.35 Q9.95 -46.4 10.0 -45.3 L15.7 -47.15 Q15.75 -46.5 14.6 -46.0 L11.15 -44.75 Q12.4 -44.75 13.25 -44.05 L12.3 -43.9 13.4 -42.85 13.45 -42.55 Q12.2 -42.9 11.15 -44.0 L10.95 -44.1" fill="#ffffff" fill-rule="evenodd" stroke="none"/>
  </g>
</svg>
