<?xml version="1.0" encoding="UTF-8" standalone="no"?>
<svg xmlns:ffdec="https://www.free-decompiler.com/flash" xmlns:xlink="http://www.w3.org/1999/xlink" ffdec:objectType="shape" height="94.25px" width="58.1px" xmlns="http://www.w3.org/2000/svg">
  <g transform="matrix(1.0, 0.0, 0.0, 1.0, 19.9, 67.85)">
    <path d="M7.8 19.2 Q6.8 17.1 6.35 14.95 6.25 14.65 6.55 14.4 8.85 15.8 10.05 18.85 12.2 17.0 14.8 16.55 13.9 18.5 11.45 19.95 14.15 22.1 15.55 25.1 12.8 24.85 10.25 22.6 L4.9 26.4 Q4.5 26.5 4.25 26.15 L4.2 26.05 Q5.0 24.0 6.1 21.95 L6.25 21.55 Q3.95 20.35 3.75 18.3 L7.8 19.2" fill="#aa0909" fill-rule="evenodd" stroke="none"/>
    <path d="M7.75 -52.4 Q8.5 -54.45 10.3 -56.5 13.45 -60.15 15.6 -64.35 16.05 -62.15 15.45 -59.25 15.0 -57.15 14.85 -55.0 L14.75 -53.8 Q17.45 -56.8 21.2 -59.15 24.2 -61.05 24.85 -64.55 24.85 -64.75 25.1 -64.75 25.5 -63.15 25.4 -61.35 29.1 -63.7 33.25 -65.35 L33.8 -65.0 33.85 -64.9 Q30.0 -61.65 30.8 -57.45 31.15 -55.85 30.05 -54.6 34.05 -57.3 38.2 -57.5 33.35 -51.75 27.2 -46.85 32.15 -46.45 36.95 -46.65 L37.1 -46.45 Q31.35 -43.5 25.4 -40.8 30.65 -38.05 35.3 -34.3 L36.55 -33.6 Q37.45 -33.2 37.25 -32.4 L24.55 -32.95 23.35 -33.0 24.9 -29.95 24.9 -29.9 Q21.1 -30.4 17.8 -32.0 17.95 -29.3 16.5 -26.45 16.1 -25.65 16.2 -24.7 L16.2 -22.8 Q9.75 -25.95 7.45 -32.4 4.3 -29.8 1.95 -26.7 0.5 -28.6 1.9 -31.7 L3.5 -35.45 Q-1.75 -32.7 -8.15 -34.1 L-14.95 -34.5 -15.0 -34.6 -12.8 -35.5 Q-12.8 -37.5 -10.15 -39.35 L-9.25 -39.9 Q-11.1 -40.1 -13.2 -41.3 -16.1 -42.95 -18.65 -45.0 -21.65 -47.4 -17.35 -47.05 -13.3 -46.65 -9.35 -47.6 -10.15 -48.25 -10.9 -49.45 -14.1 -54.55 -14.55 -60.6 L-14.45 -60.75 Q-13.0 -60.5 -12.05 -59.1 L-10.85 -58.0 Q-12.1 -60.45 -14.25 -62.05 -15.35 -62.9 -15.7 -64.05 L-15.4 -64.35 Q-10.75 -62.6 -6.9 -59.6 L-6.95 -60.55 Q-7.0 -64.8 -4.9 -67.85 -1.25 -60.7 5.4 -55.9 L6.9 -54.15 7.75 -52.4" fill="#aa0909" fill-rule="evenodd" stroke="none"/>
    <path d="M10.7 -52.9 L11.5 -55.1 Q12.8 -52.0 12.25 -48.85 15.2 -51.15 18.95 -52.3 20.1 -52.65 21.0 -53.5 22.85 -55.1 24.0 -57.1 L23.95 -57.15 24.05 -57.25 24.1 -57.35 24.1 -57.25 24.15 -57.3 Q25.25 -54.05 23.6 -51.6 25.8 -52.45 28.2 -52.75 L29.4 -52.9 Q30.05 -53.05 30.35 -52.65 L30.4 -52.6 29.55 -52.5 Q26.0 -51.5 23.8 -48.5 22.6 -46.85 21.05 -45.6 L27.05 -45.45 27.1 -45.4 Q24.4 -42.75 20.35 -41.95 L19.6 -41.8 Q23.9 -39.15 26.45 -34.7 L26.45 -34.6 Q20.6 -37.95 14.15 -39.75 14.8 -37.5 13.9 -35.05 13.4 -33.6 13.5 -32.05 L13.9 -29.1 13.95 -29.05 13.9 -29.05 13.9 -29.0 13.85 -29.1 Q12.0 -29.65 10.8 -31.7 9.0 -34.75 8.2 -38.0 6.45 -35.55 4.15 -33.8 5.0 -36.0 5.1 -38.5 L4.9 -38.4 Q1.1 -36.55 -3.0 -38.0 L-4.75 -38.05 -7.35 -37.45 -7.15 -37.55 Q-7.35 -39.35 -5.4 -40.65 L-4.6 -41.1 Q-8.95 -42.1 -12.9 -44.55 -13.15 -44.75 -13.0 -44.85 L-13.1 -44.9 -13.0 -44.85 -12.9 -44.95 -12.7 -44.8 -2.15 -44.35 Q-5.15 -46.05 -7.4 -49.05 -9.5 -51.95 -9.8 -55.0 L-9.85 -55.15 -9.8 -55.2 Q-8.05 -52.05 -4.85 -50.05 L-6.05 -53.45 Q-6.7 -55.7 -8.15 -57.55 -8.8 -58.4 -8.65 -58.95 -6.95 -57.95 -5.55 -56.75 -5.95 -60.0 -5.05 -63.2 L-4.7 -63.8 Q-3.35 -58.65 1.45 -55.4 5.75 -52.45 7.95 -48.25 8.4 -50.1 10.0 -51.7 L10.7 -52.9" fill="#fdc43e" fill-rule="evenodd" stroke="none"/>
    <path d="M11.35 -52.7 L11.6 -48.55 11.55 -47.55 Q16.1 -49.85 20.9 -51.95 L22.2 -52.8 22.6 -52.85 19.8 -49.3 Q22.0 -50.6 24.55 -50.8 22.2 -48.2 19.1 -46.35 L17.1 -45.2 16.5 -44.8 Q19.5 -43.85 22.6 -44.0 20.0 -42.35 16.65 -43.25 19.95 -41.7 21.65 -38.45 19.75 -39.0 17.9 -40.2 15.05 -42.0 11.9 -41.7 13.35 -38.6 11.5 -35.5 11.2 -35.0 11.2 -34.35 L11.3 -33.15 Q10.35 -34.25 10.05 -36.0 9.6 -38.6 8.65 -41.0 L8.55 -41.3 Q7.55 -39.35 5.65 -38.45 L6.05 -40.85 6.1 -41.15 Q3.4 -38.75 -0.3 -39.65 L-1.95 -39.75 -4.7 -39.45 Q-3.9 -41.15 -2.0 -42.1 -4.8 -42.3 -7.3 -43.5 -4.3 -44.5 -0.85 -44.15 L0.2 -44.25 0.85 -44.35 Q-3.4 -45.45 -5.65 -49.25 L-1.6 -47.05 Q-3.75 -49.8 -4.65 -53.1 -4.85 -53.85 -5.35 -54.45 L-5.6 -54.9 Q-4.25 -54.65 -3.5 -53.25 -3.9 -55.25 -3.75 -57.35 L-3.45 -58.2 Q-2.7 -55.95 -0.8 -54.45 1.25 -52.8 3.65 -51.6 6.7 -50.1 8.35 -46.9 9.4 -49.45 10.8 -51.9 L11.35 -52.7" fill="#fefd9a" fill-rule="evenodd" stroke="none"/>
    <path d="M10.4 -49.9 Q11.05 -48.05 11.05 -46.1 14.5 -48.6 18.7 -50.05 L18.75 -50.1 18.75 -50.05 18.85 -50.1 18.95 -50.15 18.7 -49.7 17.85 -48.4 16.95 -47.6 20.75 -48.8 20.9 -48.95 20.85 -48.75 20.8 -48.6 Q20.5 -47.95 19.5 -47.4 L14.7 -44.85 Q15.65 -44.35 16.7 -44.0 L16.0 -44.05 16.5 -43.95 16.5 -43.9 13.25 -44.15 16.9 -42.65 16.9 -42.6 16.6 -42.65 16.6 -42.55 10.65 -42.9 Q12.4 -40.45 11.1 -37.55 L11.0 -37.15 10.95 -37.25 10.9 -37.15 10.85 -37.15 10.95 -37.3 Q9.8 -39.9 9.05 -42.25 L8.8 -42.15 8.8 -42.1 Q7.95 -41.0 6.95 -40.5 L6.7 -40.4 6.6 -40.35 6.65 -40.4 6.6 -40.4 6.95 -42.05 Q4.3 -41.15 1.45 -41.4 -0.55 -41.55 -1.95 -40.4 L-1.7 -40.8 Q-1.7 -41.5 -0.8 -42.05 L0.55 -42.8 -3.0 -43.4 -3.6 -43.55 -2.6 -43.9 2.65 -44.15 3.3 -44.2 3.65 -44.35 2.45 -44.75 Q0.7 -45.4 -0.65 -46.4 L-0.55 -46.4 0.05 -46.15 -0.25 -46.35 -0.15 -46.4 2.15 -45.9 Q-1.3 -47.9 -2.65 -51.85 L-2.6 -51.85 -2.7 -52.0 -2.65 -52.0 -1.25 -50.75 Q-2.25 -52.25 -2.4 -53.8 L-2.5 -54.65 -2.45 -54.6 -2.45 -54.9 -2.35 -54.45 Q0.1 -51.0 3.95 -48.6 6.0 -47.35 7.2 -45.55 L8.25 -45.8 8.35 -46.35 8.4 -45.85 8.95 -46.0 Q9.45 -47.9 10.4 -49.65 L10.35 -49.9 10.4 -49.9 M8.55 -42.6 L8.65 -42.75 8.5 -42.7 8.55 -42.6 M8.05 -43.05 L8.05 -43.0 8.05 -43.05" fill="#ffffff" fill-rule="evenodd" stroke="none"/>
  </g>
</svg>
