<?xml version="1.0" encoding="UTF-8" standalone="no"?>
<svg xmlns:ffdec="https://www.free-decompiler.com/flash" xmlns:xlink="http://www.w3.org/1999/xlink" ffdec:objectType="shape" height="107.4px" width="74.05px" xmlns="http://www.w3.org/2000/svg">
  <g transform="matrix(1.0, 0.0, 0.0, 1.0, 24.3, 76.5)">
    <path d="M9.25 12.35 L9.8 17.1 Q14.05 13.15 18.4 15.95 L18.05 16.3 Q15.7 17.35 13.95 19.2 16.35 19.15 19.0 20.0 20.6 20.55 21.05 22.1 17.8 21.7 15.55 23.05 19.25 25.45 17.95 29.55 L17.8 29.65 Q16.1 26.2 12.3 24.55 10.25 27.5 8.55 30.8 L8.4 30.9 Q7.05 27.9 5.35 25.05 5.2 24.85 4.8 25.05 0.8 26.95 -2.75 28.3 -1.75 25.0 1.7 23.55 -2.25 23.15 -1.25 21.25 -0.95 20.6 -0.1 20.35 L3.45 19.0 Q2.1 16.4 1.4 14.0 L1.4 13.95 5.4 16.55 Q6.05 12.85 9.05 11.95 L9.25 12.35" fill="#aa0909" fill-rule="evenodd" stroke="none"/>
    <path d="M6.85 17.0 Q8.0 18.25 8.65 20.05 L8.75 20.35 Q10.55 18.6 12.85 18.65 L12.9 18.9 12.9 18.95 12.55 19.15 Q12.85 20.7 13.75 22.05 L10.55 22.05 8.7 24.85 Q8.2 23.75 8.25 22.35 L8.25 22.3 Q6.3 23.3 4.1 23.5 4.35 22.65 5.3 22.05 4.05 22.05 2.75 21.4 4.85 20.6 7.2 20.1 L6.75 17.3 6.85 17.0" fill="#fdc43e" fill-rule="evenodd" stroke="none"/>
    <path d="M8.7 21.1 Q10.05 20.45 11.5 20.2 12.0 21.4 11.15 21.75 L11.05 21.75 9.6 21.85 9.5 21.9 8.9 22.9 Q8.65 22.5 8.75 22.0 L8.75 21.95 8.55 22.1 8.5 22.1 8.35 22.0 8.35 21.95 Q7.5 22.25 6.7 22.65 L6.55 22.45 5.9 22.4 Q6.35 22.0 7.05 21.9 L5.15 21.85 5.0 21.75 Q6.05 20.65 7.85 21.25 L7.85 21.2 7.65 19.8 7.75 19.65 8.7 21.1" fill="#fefd9a" fill-rule="evenodd" stroke="none"/>
    <path d="M41.45 -56.15 L36.2 -50.15 35.2 -48.6 Q39.5 -49.8 43.5 -52.25 45.0 -53.2 46.75 -53.4 48.1 -53.8 48.3 -52.7 L48.3 -52.6 Q42.15 -48.5 36.7 -43.3 35.45 -42.1 33.8 -41.55 L35.3 -40.45 Q37.1 -39.05 39.3 -39.2 44.35 -39.45 49.05 -38.2 49.65 -38.05 49.75 -37.5 40.75 -33.65 30.85 -32.7 28.85 -32.5 26.95 -33.2 29.45 -29.95 30.95 -26.1 L30.5 -26.05 Q25.05 -28.05 19.55 -30.3 19.8 -27.2 18.15 -23.9 17.95 -23.5 18.4 -23.15 21.05 -21.3 19.4 -19.95 19.15 -19.75 18.75 -19.95 11.35 -23.75 7.45 -30.55 L4.45 -28.25 Q3.95 -27.85 4.0 -27.1 4.3 -20.9 -0.85 -17.75 L-1.15 -17.75 Q0.05 -20.05 0.7 -22.75 0.85 -23.5 0.15 -24.05 -3.6 -26.85 -2.7 -30.9 L-4.3 -30.4 Q-11.05 -28.55 -17.65 -30.6 -21.75 -31.85 -23.7 -35.3 L-24.2 -35.55 Q-24.45 -35.7 -23.9 -35.95 L-23.75 -36.0 -23.5 -36.1 -23.35 -35.9 Q-17.8 -33.95 -12.4 -37.1 L-11.65 -37.5 Q-13.95 -38.45 -16.15 -40.0 -21.95 -44.15 -23.9 -51.05 L-23.65 -51.25 -23.4 -51.35 Q-19.7 -48.5 -15.3 -47.25 -15.75 -56.2 -22.5 -61.8 L-22.35 -62.1 -22.0 -62.25 Q-18.75 -61.15 -16.4 -59.15 -18.15 -63.15 -18.0 -68.0 -17.9 -71.5 -15.75 -73.85 -14.8 -66.95 -8.35 -64.3 -7.6 -70.55 -1.8 -72.6 0.05 -73.3 1.35 -74.7 L2.6 -76.25 2.7 -76.0 3.1 -76.35 Q4.45 -72.9 0.05 -71.95 L0.0 -71.9 Q1.5 -68.6 4.65 -66.1 L5.9 -64.55 Q6.6 -63.1 6.75 -61.7 L6.8 -61.8 12.5 -68.5 Q15.35 -71.75 15.7 -76.05 L15.85 -76.15 Q16.8 -74.5 16.35 -71.8 15.8 -68.75 17.0 -65.75 18.0 -63.15 18.15 -60.5 22.6 -66.45 25.35 -73.35 25.9 -74.75 25.6 -76.15 L25.75 -76.3 26.1 -76.5 Q29.45 -73.05 28.9 -67.4 L28.55 -65.1 32.65 -67.65 Q35.95 -69.35 36.5 -72.9 L36.75 -73.1 Q40.6 -67.1 36.2 -60.8 35.3 -59.6 35.1 -58.15 36.65 -58.7 38.05 -59.65 41.7 -62.1 43.75 -65.6 45.5 -60.75 41.45 -56.15" fill="#aa0909" fill-rule="evenodd" stroke="none"/>
    <path d="M13.75 -66.5 L13.65 -66.65 13.7 -66.65 13.75 -66.55 13.85 -66.7 13.85 -66.4 Q16.5 -61.6 16.45 -55.95 L16.45 -55.35 Q18.5 -56.6 20.3 -58.35 21.2 -59.15 21.8 -60.25 L24.85 -65.95 24.9 -66.05 24.9 -66.0 Q25.9 -63.35 25.75 -60.8 L29.55 -62.05 Q31.7 -62.5 33.45 -63.75 L33.45 -63.9 33.5 -63.75 33.7 -63.95 33.5 -63.3 Q33.5 -62.2 32.5 -61.05 31.4 -59.8 30.0 -58.85 27.65 -57.25 27.0 -54.4 L26.85 -53.8 Q32.8 -54.25 38.2 -56.8 L38.45 -56.65 38.5 -56.6 Q35.25 -51.4 29.45 -48.5 27.1 -47.3 24.6 -46.55 29.45 -45.3 34.6 -45.85 L34.7 -45.8 Q33.35 -44.05 30.7 -43.55 L25.9 -43.25 27.45 -40.8 Q28.45 -38.55 30.75 -37.6 32.25 -37.0 33.8 -36.7 L34.75 -36.9 Q35.55 -37.1 35.75 -36.55 L35.5 -36.45 36.2 -36.45 35.15 -36.4 Q28.6 -34.85 22.35 -36.35 24.5 -33.95 25.95 -31.0 L25.95 -30.9 Q24.4 -31.75 22.55 -32.95 18.55 -35.5 14.4 -37.55 14.8 -35.2 14.05 -32.55 13.3 -29.95 14.05 -27.65 13.35 -27.9 13.25 -28.8 12.0 -29.8 11.2 -31.65 9.85 -34.9 9.4 -38.3 L2.25 -33.95 Q1.85 -33.7 2.1 -33.25 2.95 -31.45 2.65 -29.65 L2.7 -29.65 2.75 -29.6 2.65 -29.6 2.5 -29.0 2.45 -29.65 Q1.5 -29.85 0.65 -30.9 L-1.75 -33.75 -2.0 -34.15 Q-6.15 -32.5 -10.45 -33.8 L-10.2 -33.8 -10.4 -33.95 -6.1 -36.25 Q-9.75 -37.9 -12.9 -40.95 -14.75 -42.75 -15.8 -44.9 L-15.9 -44.95 -15.9 -45.0 -15.9 -45.05 -15.8 -45.2 -15.65 -44.95 -10.8 -43.05 -10.7 -44.25 Q-10.4 -47.4 -11.3 -50.45 -12.2 -53.35 -13.8 -55.8 L-15.05 -57.7 -14.9 -57.85 -14.8 -57.9 -12.9 -56.55 -15.2 -64.15 -15.2 -65.2 -15.2 -65.35 -15.1 -65.45 Q-11.15 -60.05 -5.15 -56.8 -5.8 -59.05 -5.0 -61.45 -3.8 -65.0 -1.1 -67.55 L-1.15 -67.15 -1.0 -67.4 Q-1.05 -65.5 0.6 -64.1 5.0 -60.3 5.25 -54.9 L9.9 -59.9 12.75 -64.85 13.75 -66.5 M18.65 -45.5 L18.7 -45.5 18.65 -45.5" fill="#fdc43e" fill-rule="evenodd" stroke="none"/>
    <path d="M3.0 -56.2 Q4.75 -53.5 5.4 -50.6 L9.8 -55.2 Q13.2 -58.8 13.9 -63.45 14.9 -57.7 14.45 -51.65 L14.15 -49.65 Q20.5 -54.25 24.85 -60.9 L24.95 -60.9 Q24.9 -59.3 24.35 -57.6 27.05 -59.5 30.1 -60.4 L30.15 -60.35 28.95 -59.5 28.45 -59.05 27.4 -58.1 26.1 -56.55 26.15 -56.6 25.5 -55.6 24.2 -53.55 24.9 -54.5 24.6 -53.9 Q24.15 -52.9 23.3 -52.2 L22.7 -51.6 32.15 -52.2 Q31.15 -50.45 29.05 -49.5 24.4 -47.35 19.3 -46.8 L27.85 -44.1 20.1 -44.45 Q23.6 -41.7 26.55 -38.45 27.25 -37.7 28.25 -37.4 L28.8 -37.05 Q27.0 -36.15 24.75 -36.75 20.8 -37.85 17.15 -39.9 19.75 -37.95 21.4 -35.45 17.75 -38.05 13.6 -39.75 13.15 -37.2 12.3 -34.65 L12.45 -33.7 12.45 -33.65 12.15 -34.1 12.1 -34.05 12.05 -34.0 12.05 -34.25 Q11.75 -34.75 11.55 -35.5 11.0 -37.65 10.6 -39.9 L10.45 -40.85 Q7.9 -39.3 5.1 -38.2 2.75 -37.25 0.95 -35.6 0.45 -35.15 0.45 -34.45 -0.4 -34.55 -1.05 -35.35 -1.5 -35.9 -2.25 -35.7 L-4.0 -35.75 Q-2.65 -36.4 -2.8 -37.55 L-7.55 -40.3 -7.85 -40.45 Q-9.65 -41.3 -11.45 -41.8 L-10.75 -41.8 -10.85 -41.85 -10.65 -41.8 -9.75 -41.65 -9.85 -41.7 -9.8 -41.75 -9.3 -41.5 -6.6 -40.95 Q-8.0 -45.55 -8.4 -50.4 -9.7 -53.1 -11.6 -55.2 L-11.9 -55.45 -11.85 -55.45 -11.6 -55.25 -9.15 -52.9 Q-9.6 -54.65 -10.55 -56.15 -11.6 -57.8 -12.15 -59.45 -11.3 -58.95 -10.35 -58.05 -6.95 -54.7 -2.65 -53.1 -3.75 -56.6 -2.05 -59.9 L-1.1 -61.3 -0.85 -60.6 1.0 -58.3 1.25 -58.1 3.0 -56.2" fill="#fefd9a" fill-rule="evenodd" stroke="none"/>
    <path d="M12.1 -54.95 L12.3 -55.75 Q13.0 -52.15 12.6 -48.55 L13.2 -48.2 13.85 -48.0 Q17.0 -50.0 19.95 -52.3 L21.95 -54.15 21.95 -54.3 21.95 -54.15 22.1 -54.35 21.95 -53.8 Q21.8 -51.85 20.3 -50.25 L27.6 -50.8 27.5 -50.55 Q27.4 -50.1 26.55 -49.85 22.15 -48.55 17.65 -47.85 L16.8 -47.2 21.9 -45.35 22.0 -45.35 22.05 -45.3 22.1 -45.3 22.15 -45.25 21.95 -45.3 19.2 -45.45 17.1 -45.55 20.2 -42.95 23.8 -39.15 24.2 -38.8 Q18.9 -40.45 13.5 -42.6 L17.15 -39.2 17.35 -39.05 17.35 -39.0 Q16.15 -39.45 14.8 -40.25 13.75 -40.85 12.85 -41.4 L12.25 -38.45 Q12.0 -38.95 12.05 -39.6 11.5 -41.0 11.25 -42.6 6.35 -41.45 1.65 -39.55 L-0.45 -38.9 -0.4 -38.8 -0.35 -38.75 -0.55 -38.85 -0.7 -38.85 -0.55 -38.9 Q-2.3 -40.2 -3.65 -41.75 L-4.15 -41.95 -4.05 -42.0 -3.8 -41.95 -3.95 -42.1 -3.9 -42.1 -3.65 -41.9 -0.05 -41.55 -2.7 -44.7 -5.6 -47.65 Q-6.4 -48.05 -7.0 -48.55 L-6.95 -48.55 -6.4 -48.35 -6.55 -48.5 -6.5 -48.5 -6.2 -48.3 Q-3.9 -47.55 -1.8 -46.35 L-2.35 -47.2 Q-4.05 -50.35 -6.25 -53.05 L-6.75 -53.5 -6.65 -53.55 Q-3.35 -51.65 0.2 -50.4 -0.9 -53.5 -0.35 -56.7 L-0.3 -57.2 Q2.75 -53.95 4.55 -49.75 L4.85 -49.15 6.0 -48.7 5.0 -48.8 6.05 -47.1 Q9.2 -50.25 11.6 -54.05 L12.1 -54.95 M11.75 -44.15 L11.7 -44.2 11.7 -44.1 11.75 -44.15 M13.85 -45.5 L13.95 -45.6 13.85 -45.6 13.85 -45.5" fill="#ffffff" fill-rule="evenodd" stroke="none"/>
  </g>
</svg>
