<?xml version="1.0" encoding="UTF-8" standalone="no"?>
<svg xmlns:ffdec="https://www.free-decompiler.com/flash" xmlns:xlink="http://www.w3.org/1999/xlink" ffdec:objectType="shape" height="127.9px" width="90.5px" xmlns="http://www.w3.org/2000/svg">
  <g transform="matrix(1.0, 0.0, 0.0, 1.0, 29.0, 88.1)">
    <path d="M24.2 16.65 Q21.75 17.75 19.5 19.2 24.3 18.45 28.4 20.85 24.45 21.25 20.7 23.45 L20.4 23.55 18.4 23.7 Q21.95 26.3 25.1 29.8 26.7 31.6 27.0 33.5 L26.8 33.65 Q22.55 29.65 17.2 27.6 19.25 29.7 21.05 32.45 23.1 35.55 23.35 38.7 L23.65 39.45 23.35 39.75 23.15 39.8 Q20.25 34.05 15.3 29.45 L15.2 29.35 Q14.1 29.6 13.7 28.6 10.55 33.0 6.4 36.65 6.0 33.45 4.9 29.85 L4.65 28.9 Q0.35 32.2 -2.6 36.9 -3.55 33.9 -1.75 30.55 L-0.6 28.65 -5.25 29.3 Q-6.6 29.3 -7.85 30.0 L-14.2 33.15 Q-14.6 33.25 -14.85 32.9 L-14.9 32.8 Q-11.1 27.85 -6.3 24.1 L-10.35 23.5 -10.4 23.45 Q-6.95 19.65 -1.9 17.65 -6.55 15.7 -9.75 11.25 -10.7 9.9 -12.15 9.05 -12.55 8.8 -12.4 8.35 -8.25 8.35 -4.6 11.45 -3.05 12.75 -1.4 13.15 -1.65 12.5 -2.1 12.0 -2.85 11.25 -2.4 10.45 0.55 11.45 3.35 12.85 2.75 6.9 6.4 2.1 7.0 1.35 7.75 1.9 6.75 6.75 11.3 9.85 12.65 8.95 14.15 8.45 L12.95 14.8 15.65 14.15 27.8 13.05 Q27.1 15.35 24.2 16.65" fill="#aa0909" fill-rule="evenodd" stroke="none"/>
    <path d="M1.3 15.05 Q2.9 16.2 5.0 16.9 6.45 17.4 6.95 18.9 7.1 15.95 7.6 13.05 7.7 12.45 7.15 12.15 8.35 12.2 9.35 13.45 10.6 14.95 10.05 16.75 9.65 18.25 10.15 19.6 L10.35 20.05 Q14.85 16.65 20.6 16.45 19.75 17.65 18.2 18.65 17.25 19.2 16.7 20.15 L15.85 21.75 Q17.85 21.3 19.95 21.7 19.1 22.6 17.7 23.1 15.55 23.9 15.55 25.65 L15.75 26.0 16.85 27.1 Q13.7 27.45 12.3 24.25 L11.65 23.5 Q11.05 25.75 9.8 27.85 9.35 28.6 9.05 29.45 L9.0 29.5 Q7.4 27.35 7.25 24.55 L7.25 24.5 Q4.2 25.85 1.6 27.9 L1.5 27.2 1.5 27.0 -5.75 27.75 -0.55 24.0 0.4 23.4 Q1.7 22.8 3.1 22.55 L-1.25 22.2 Q-0.1 20.1 2.2 20.35 L3.75 20.25 Q1.65 17.95 1.3 15.05" fill="#fdc43e" fill-rule="evenodd" stroke="none"/>
    <path d="M8.45 15.15 Q9.5 15.45 9.3 16.75 L9.05 18.35 Q8.9 19.9 9.8 21.0 L9.95 20.9 Q13.65 17.65 18.4 17.35 L18.6 17.35 18.35 17.4 14.2 21.25 12.9 22.55 17.5 22.65 Q14.9 23.25 14.4 25.75 L15.15 26.4 15.1 26.55 Q13.5 26.0 12.9 24.25 L12.55 23.6 12.15 23.2 12.1 23.25 12.0 23.3 11.25 23.35 10.7 24.5 8.9 28.3 Q8.05 26.2 7.9 23.75 L7.9 23.7 Q5.0 24.8 2.3 26.45 2.05 26.3 2.2 26.05 L-3.45 26.9 Q0.65 24.0 5.55 22.45 L0.25 21.85 Q1.95 20.65 4.3 21.25 L4.55 21.15 5.1 20.9 Q3.75 19.65 3.1 17.65 L3.1 17.6 Q5.85 18.25 7.05 20.75 L7.2 20.8 Q7.3 17.85 8.3 14.9 L8.4 14.8 8.45 15.15 M7.15 21.05 L7.2 21.15 7.2 21.05 7.15 21.05" fill="#fefd9a" fill-rule="evenodd" stroke="none"/>
    <path d="M4.95 20.35 Q6.2 20.7 7.25 21.8 L7.45 21.9 Q7.45 20.95 7.6 20.05 7.75 19.3 8.15 18.8 L8.55 21.1 Q8.6 21.9 9.1 22.6 10.7 20.5 13.3 19.65 L14.1 19.75 10.25 22.85 8.9 25.15 Q8.45 24.2 8.4 23.1 L2.7 24.95 Q2.65 24.3 3.8 23.8 5.45 23.1 7.25 22.55 6.0 22.55 5.15 21.85 L6.1 21.7 5.0 20.65 4.95 20.35" fill="#ffffff" fill-rule="evenodd" stroke="none"/>
    <path d="M43.5 -76.2 Q43.05 -74.7 43.7 -73.3 45.7 -69.1 47.05 -64.75 48.15 -61.35 47.7 -57.8 53.15 -59.55 58.15 -63.0 58.55 -63.1 58.8 -62.75 L58.85 -62.65 Q53.9 -57.6 52.9 -50.05 52.65 -48.5 51.9 -47.05 50.2 -43.9 47.8 -41.85 L60.25 -42.85 Q61.05 -43.1 61.45 -42.5 L61.5 -42.4 Q48.8 -35.65 34.95 -29.75 41.85 -25.05 48.15 -19.65 L48.15 -19.4 39.25 -21.55 Q36.4 -22.1 33.7 -23.1 34.05 -21.9 33.9 -20.4 33.8 -18.7 34.5 -17.15 35.55 -14.85 37.8 -14.5 L37.9 -14.2 37.85 -13.85 37.8 -13.75 Q29.55 -11.5 23.5 -17.15 22.05 -18.5 21.2 -19.95 21.5 -17.55 19.55 -14.9 17.3 -11.85 14.55 -9.25 13.55 -8.3 12.45 -8.4 12.6 -14.2 11.8 -19.85 L9.8 -17.35 Q5.45 -12.65 -0.05 -9.7 L-0.9 -9.75 Q-0.35 -11.95 0.8 -14.25 L0.85 -14.35 Q-3.9 -13.05 -7.6 -9.85 -8.15 -12.1 -6.4 -14.8 -3.65 -19.1 -5.3 -24.3 L-5.45 -24.95 -5.8 -24.7 Q-14.4 -18.35 -23.95 -23.9 L-26.35 -24.05 -29.0 -24.0 Q-25.8 -27.65 -21.15 -28.1 -21.9 -28.75 -22.45 -30.3 -24.9 -37.55 -28.8 -43.9 -27.2 -43.6 -25.55 -41.4 -23.95 -39.35 -21.55 -38.5 -17.95 -37.25 -16.5 -40.1 -25.55 -44.4 -23.55 -53.05 -23.6 -54.1 -23.25 -55.1 -31.25 -61.95 -26.5 -71.6 L-26.1 -71.85 -25.7 -71.6 -25.65 -71.5 -25.85 -71.05 -24.45 -68.05 Q-23.4 -66.25 -22.0 -68.05 -15.95 -75.65 -21.15 -83.7 L-20.9 -84.05 -20.65 -84.15 -19.9 -83.15 Q-18.2 -82.15 -16.25 -80.45 -10.35 -75.15 -6.1 -81.05 -2.55 -85.9 3.3 -86.7 L3.75 -86.9 4.3 -86.55 4.35 -86.45 4.55 -85.95 4.55 -85.85 3.75 -85.7 Q1.65 -82.75 6.25 -81.2 11.15 -79.5 8.15 -75.4 6.3 -72.85 4.05 -70.55 1.1 -67.45 5.0 -65.5 L6.5 -64.65 Q7.35 -68.3 9.6 -71.6 14.75 -79.2 13.1 -87.75 L13.4 -88.05 13.6 -88.1 Q19.3 -80.1 19.75 -70.05 24.8 -73.55 25.25 -79.8 25.3 -80.75 24.85 -81.7 L23.2 -85.0 Q23.65 -85.5 24.4 -85.5 30.6 -83.15 31.95 -76.1 32.25 -74.65 33.4 -73.75 L36.25 -71.85 Q40.7 -75.0 43.15 -79.85 44.3 -78.5 43.5 -76.2 M-22.5 -53.2 L-21.95 -51.35 -21.9 -51.3 Q-21.15 -52.6 -22.25 -53.9 L-22.5 -53.2" fill="#aa0909" fill-rule="evenodd" stroke="none"/>
    <path d="M41.0 -70.05 Q42.4 -62.65 39.7 -55.55 39.0 -53.75 37.6 -52.35 34.7 -49.5 31.0 -47.8 L34.75 -46.8 37.7 -46.55 Q43.5 -47.55 47.15 -52.05 L46.95 -51.2 47.45 -51.95 Q47.3 -50.65 46.35 -49.2 42.1 -42.7 34.75 -40.1 L32.25 -39.45 Q37.1 -38.4 42.05 -38.35 L43.25 -38.55 43.4 -38.45 Q43.3 -37.7 41.75 -37.2 34.5 -34.9 26.95 -36.15 25.5 -36.35 24.45 -37.05 L24.2 -35.9 24.15 -35.7 Q27.75 -31.4 32.55 -28.3 L37.1 -25.4 Q31.1 -27.45 24.7 -28.95 L24.25 -29.05 Q25.0 -26.05 27.2 -23.4 L29.1 -21.9 28.1 -22.2 29.1 -21.7 Q24.55 -23.1 21.5 -27.2 19.2 -30.2 17.55 -33.55 L17.55 -33.15 17.75 -25.8 Q17.9 -21.6 16.15 -17.85 15.8 -17.1 15.3 -17.05 L15.25 -16.85 15.25 -17.05 15.05 -17.1 15.25 -17.4 Q15.05 -24.1 11.75 -30.2 L10.55 -32.4 7.3 -30.0 7.45 -28.75 Q7.35 -26.45 6.9 -24.3 4.8 -26.85 2.95 -29.9 2.2 -26.25 0.7 -22.65 -0.1 -20.8 -1.6 -20.55 L-1.65 -20.6 -1.5 -20.7 Q-0.4 -25.75 -2.0 -30.7 -6.25 -25.65 -12.95 -24.4 -17.1 -23.65 -20.95 -24.95 -21.6 -25.15 -21.8 -25.65 L-21.95 -25.75 -21.85 -25.8 -21.9 -25.85 -21.85 -25.8 Q-19.95 -27.2 -17.65 -27.75 -18.7 -29.05 -19.3 -30.8 -20.25 -33.65 -21.35 -36.05 L-21.85 -36.25 -21.4 -36.2 -21.5 -36.35 -21.45 -36.35 -21.35 -36.2 Q-17.0 -35.85 -13.3 -38.65 L-15.85 -41.45 -19.6 -46.9 Q-20.25 -47.6 -20.25 -48.25 -20.7 -48.7 -20.65 -49.25 L-20.0 -48.65 -20.0 -48.7 -19.95 -48.6 Q-16.9 -46.05 -12.35 -46.85 -12.95 -50.25 -14.25 -53.3 -19.85 -55.2 -23.1 -60.05 -23.6 -60.8 -23.5 -61.45 L-23.85 -61.85 -23.45 -61.65 -23.4 -61.85 -23.25 -61.55 -21.75 -60.8 Q-20.3 -59.95 -18.6 -60.35 -12.45 -61.65 -13.1 -67.65 -13.25 -69.35 -13.85 -70.8 L-14.35 -71.25 -13.95 -71.05 -14.05 -71.3 -14.0 -71.35 -13.75 -70.95 Q-11.7 -70.0 -9.25 -69.6 -4.15 -68.8 -2.3 -73.35 -1.7 -74.7 -1.8 -76.2 -1.85 -78.0 -0.7 -79.05 L-0.4 -79.0 -0.3 -78.9 -0.25 -78.85 -0.4 -78.65 -0.25 -77.4 Q0.0 -76.25 0.55 -75.2 1.75 -73.1 -0.15 -71.3 -3.05 -68.5 -1.65 -65.05 -1.1 -63.75 -0.05 -62.75 3.5 -59.25 5.0 -54.75 L5.25 -53.7 12.35 -63.9 Q14.9 -67.5 15.05 -71.65 L14.7 -72.55 14.75 -72.55 15.05 -71.95 15.05 -72.1 15.1 -71.85 Q18.2 -65.45 18.2 -58.25 L17.75 -52.85 Q24.6 -57.55 28.6 -65.0 30.75 -68.95 29.55 -73.25 29.35 -74.0 29.45 -74.5 L29.4 -74.6 29.5 -74.7 Q31.75 -72.65 31.3 -69.3 30.65 -64.7 34.6 -62.7 L36.45 -61.85 38.15 -63.35 Q39.05 -64.2 39.65 -65.35 40.5 -67.0 40.8 -68.65 40.7 -69.4 40.95 -69.95 L41.0 -70.05" fill="#fdc43e" fill-rule="evenodd" stroke="none"/>
    <path d="M15.3 -63.2 Q16.5 -55.7 15.05 -48.3 25.95 -52.05 30.4 -62.9 32.15 -59.3 35.85 -59.25 36.3 -59.2 36.75 -59.5 L38.8 -60.8 Q38.75 -58.65 37.05 -56.35 34.6 -53.15 31.05 -51.05 28.5 -49.55 25.8 -48.4 31.85 -44.95 39.15 -45.05 L39.3 -45.0 Q33.95 -40.4 26.55 -40.5 29.4 -38.8 32.8 -37.95 26.5 -37.5 20.45 -39.3 22.55 -34.65 26.55 -31.05 23.6 -32.05 20.9 -33.45 L22.75 -29.1 Q20.4 -30.6 18.95 -33.6 17.25 -37.15 16.45 -40.75 L14.45 -41.95 Q15.85 -36.25 15.7 -30.2 L15.6 -27.9 15.55 -27.7 15.5 -27.05 15.4 -26.9 15.35 -27.15 15.25 -27.0 Q14.45 -29.3 13.75 -32.1 13.1 -34.85 12.1 -37.4 8.25 -35.8 5.9 -32.45 5.45 -31.8 5.3 -30.95 3.3 -32.9 2.65 -36.05 2.8 -32.7 1.05 -29.8 L0.7 -29.6 Q0.15 -32.6 -0.1 -35.95 L-0.1 -36.55 Q-4.3 -31.75 -9.8 -28.3 -12.8 -26.45 -15.9 -26.85 -14.85 -27.7 -13.4 -28.3 L-16.7 -34.45 Q-12.3 -35.65 -8.7 -38.6 -11.8 -40.2 -13.6 -43.7 L-9.7 -44.15 Q-10.4 -48.75 -11.6 -53.3 L-12.0 -55.25 Q-16.45 -55.1 -18.5 -59.1 -11.0 -59.15 -9.95 -66.35 -10.4 -66.65 -10.25 -67.1 L-10.2 -67.2 Q-6.45 -66.05 -3.2 -68.7 -3.5 -67.15 -3.35 -65.05 -3.1 -62.25 -0.15 -59.6 2.75 -56.95 5.45 -49.55 12.8 -55.6 15.3 -63.2 M8.7 -45.8 L8.75 -45.7 8.85 -45.7 8.7 -45.8" fill="#fefd9a" fill-rule="evenodd" stroke="none"/>
    <path d="M13.75 -55.3 L13.7 -54.75 13.75 -54.7 13.8 -54.7 Q14.1 -51.9 12.8 -49.15 L11.05 -45.7 Q16.05 -46.45 20.8 -48.85 L23.7 -50.3 23.75 -50.35 23.85 -50.4 23.85 -50.35 24.3 -50.6 Q24.3 -50.15 23.75 -49.8 L23.0 -48.65 22.15 -47.65 Q25.35 -44.95 29.7 -44.35 L31.35 -43.9 31.9 -43.9 31.55 -43.85 32.1 -43.6 31.0 -43.75 Q25.85 -43.1 20.7 -43.9 22.35 -41.95 24.7 -40.7 L25.3 -40.8 25.3 -40.75 Q21.35 -39.75 18.2 -41.95 15.25 -42.0 12.65 -43.45 14.0 -39.75 13.65 -35.75 L13.6 -35.7 13.45 -36.1 Q13.05 -36.65 12.8 -37.65 L12.5 -38.9 10.55 -38.05 Q7.95 -37.05 4.9 -34.35 L5.05 -34.0 4.75 -34.2 4.45 -33.95 4.7 -34.2 Q4.05 -34.8 3.8 -35.95 3.35 -38.1 3.45 -40.2 L3.25 -40.05 Q2.65 -39.35 2.35 -38.45 L1.6 -36.2 1.6 -36.15 1.5 -35.9 1.55 -36.2 Q1.05 -36.7 1.05 -37.75 L1.1 -38.45 Q-2.3 -36.15 -5.9 -34.55 L-5.65 -34.4 -5.65 -34.35 -6.05 -34.45 -6.7 -34.2 -6.15 -34.5 Q-7.95 -35.15 -8.95 -36.95 L-9.4 -36.95 -9.0 -37.0 -9.0 -37.05 -8.95 -37.1 -8.9 -37.05 Q-6.45 -37.55 -4.05 -38.3 -7.15 -39.8 -9.55 -42.3 L-10.1 -42.85 -10.05 -42.85 -6.35 -41.75 Q-7.0 -42.8 -7.3 -44.3 L-9.75 -55.85 -9.85 -56.55 Q-12.15 -56.35 -14.5 -57.25 L-15.05 -57.75 -15.45 -58.0 Q-13.25 -57.9 -11.6 -59.8 L-8.55 -63.3 -8.9 -63.4 -8.45 -63.4 -8.3 -63.6 -8.3 -63.4 Q-6.55 -63.5 -4.8 -64.3 -4.75 -64.05 -5.0 -63.85 -4.5 -58.1 -0.75 -53.15 1.15 -50.7 2.55 -47.95 L3.95 -44.7 4.5 -45.2 5.05 -46.65 4.6 -44.3 12.2 -53.0 13.75 -55.3 M4.15 -44.2 L4.2 -44.3 4.15 -44.25 4.15 -44.2" fill="#ffffff" fill-rule="evenodd" stroke="none"/>
  </g>
</svg>
