<?xml version="1.0" encoding="UTF-8" standalone="no"?>
<svg xmlns:ffdec="https://www.free-decompiler.com/flash" xmlns:xlink="http://www.w3.org/1999/xlink" ffdec:objectType="shape" height="136.25px" width="93.9px" xmlns="http://www.w3.org/2000/svg">
  <g transform="matrix(1.0, 0.0, 0.0, 1.0, 32.35, 90.6)">
    <path d="M37.05 22.8 Q40.05 25.2 35.75 24.85 31.7 24.45 27.75 25.4 L29.3 27.25 Q32.5 32.35 32.95 38.4 L32.85 38.55 Q31.4 38.3 30.45 36.9 29.95 36.2 29.25 35.8 30.5 38.25 32.65 39.85 33.75 40.7 34.1 41.85 L33.8 42.15 Q29.15 40.4 25.3 37.4 L25.35 38.35 Q25.4 42.6 23.3 45.65 19.65 38.5 13.0 33.7 12.1 33.05 11.5 31.95 L10.65 30.2 Q9.9 32.25 8.1 34.3 4.95 37.95 2.8 42.15 2.35 39.95 2.95 37.05 L3.55 32.8 3.65 31.6 Q0.95 34.6 -2.8 36.95 -5.8 38.85 -6.45 42.35 L-6.7 42.55 Q-7.1 40.95 -7.0 39.15 -10.7 41.5 -14.85 43.15 L-15.4 42.8 -15.45 42.7 Q-11.6 39.45 -12.4 35.25 -12.75 33.65 -11.65 32.4 -15.65 35.1 -19.8 35.3 -14.95 29.55 -8.8 24.65 -13.75 24.25 -18.55 24.45 L-18.7 24.25 Q-12.95 21.3 -7.0 18.6 -12.25 15.85 -16.9 12.1 -17.45 11.7 -18.15 11.4 -19.05 11.0 -18.85 10.2 L-6.15 10.75 -4.95 10.8 -6.5 7.75 -6.5 7.7 Q-2.7 8.2 0.6 9.8 0.45 7.1 1.9 4.25 2.3 3.45 2.2 2.5 2.05 1.5 2.2 0.6 8.65 3.75 10.95 10.2 14.1 7.6 16.45 4.5 17.9 6.4 16.5 9.5 L14.9 13.25 Q20.15 10.5 26.55 11.9 L33.35 12.3 33.4 12.4 31.2 13.3 Q31.2 15.3 28.55 17.15 L27.65 17.7 Q29.5 17.9 31.6 19.1 34.5 20.75 37.05 22.8" fill="#aa0909" fill-rule="evenodd" stroke="none"/>
    <path d="M23.8 18.45 L23.0 18.9 Q27.35 19.9 31.3 22.35 31.55 22.55 31.4 22.65 L31.3 22.75 31.1 22.6 20.55 22.15 Q23.55 23.85 25.8 26.85 27.9 29.75 28.2 32.8 L28.25 32.95 28.2 33.0 Q26.45 29.85 23.25 27.85 L24.45 31.25 Q25.1 33.5 26.55 35.35 27.2 36.2 27.05 36.75 L23.95 34.55 Q24.35 37.8 23.45 41.0 L23.1 41.6 Q21.75 36.45 16.95 33.2 12.65 30.25 10.45 26.05 10.0 27.9 8.4 29.5 7.9 30.0 7.7 30.7 L6.9 32.9 Q5.6 29.8 6.15 26.65 3.2 28.95 -0.55 30.1 -1.7 30.45 -2.6 31.3 -4.45 32.9 -5.6 34.9 L-5.55 34.95 -5.65 35.05 -5.7 35.15 -5.7 35.05 -5.75 35.1 Q-6.85 31.85 -5.2 29.4 -7.4 30.25 -9.8 30.55 L-11.0 30.7 Q-11.65 30.85 -11.95 30.45 L-12.0 30.4 -11.15 30.3 Q-7.6 29.3 -5.4 26.3 -4.2 24.65 -2.65 23.4 L-8.65 23.25 -8.7 23.2 Q-6.0 20.55 -1.95 19.75 L-1.2 19.6 Q-5.5 16.95 -8.05 12.5 L-8.05 12.4 Q-2.2 15.75 4.25 17.55 3.6 15.3 4.5 12.85 5.0 11.4 4.9 9.85 L4.5 6.9 4.45 6.85 4.5 6.85 4.5 6.8 4.55 6.9 Q6.4 7.45 7.6 9.5 9.4 12.55 10.2 15.8 11.95 13.35 14.25 11.6 13.4 13.8 13.3 16.3 L13.5 16.2 Q17.3 14.35 21.4 15.8 L23.15 15.85 25.75 15.25 25.55 15.35 Q25.75 17.15 23.8 18.45" fill="#fdc43e" fill-rule="evenodd" stroke="none"/>
    <path d="M23.1 17.25 Q22.3 18.95 20.4 19.9 23.2 20.1 25.7 21.3 22.7 22.3 19.25 21.95 L18.2 22.05 17.55 22.15 Q21.8 23.25 24.05 27.05 22.1 25.9 20.0 24.85 22.15 27.6 23.05 30.9 23.25 31.65 23.75 32.25 L24.0 32.7 Q22.65 32.45 21.9 31.05 22.3 33.05 22.15 35.15 L21.85 36.0 Q21.1 33.75 19.2 32.25 17.15 30.6 14.75 29.4 11.7 27.9 10.05 24.7 L7.6 29.7 7.05 30.5 6.8 26.35 6.85 25.35 Q2.3 27.65 -2.5 29.75 L-3.8 30.6 -4.2 30.65 -1.4 27.1 Q-3.6 28.4 -6.15 28.6 -3.8 26.0 -0.7 24.15 L1.3 23.0 1.9 22.6 Q-1.1 21.65 -4.2 21.8 -1.6 20.15 1.75 21.05 -1.55 19.5 -3.25 16.25 -1.35 16.8 0.5 18.0 3.35 19.8 6.5 19.5 5.05 16.4 6.9 13.3 L7.2 12.15 7.1 10.95 Q8.05 12.05 8.35 13.8 8.8 16.4 9.75 18.8 L9.85 19.1 Q10.85 17.15 12.75 16.25 L12.35 18.65 12.3 18.95 Q15.0 16.55 18.7 17.45 L20.35 17.55 23.1 17.25" fill="#fefd9a" fill-rule="evenodd" stroke="none"/>
    <path d="M22.0 21.35 L21.0 21.7 15.75 21.95 15.1 22.0 14.75 22.15 15.95 22.55 Q17.7 23.2 19.05 24.2 L18.95 24.2 18.35 23.95 18.65 24.15 18.55 24.2 16.25 23.7 Q19.7 25.7 21.05 29.65 L21.0 29.65 21.1 29.8 21.05 29.8 19.65 28.55 Q20.65 30.05 20.8 31.6 L20.9 32.45 20.85 32.4 20.85 32.7 20.75 32.25 Q18.3 28.8 14.45 26.4 12.4 25.15 11.2 23.35 L10.15 23.6 10.05 24.15 10.0 23.65 9.45 23.8 8.0 27.45 8.05 27.7 8.0 27.7 Q7.35 25.85 7.35 23.9 3.9 26.4 -0.3 27.85 L-0.35 27.9 -0.35 27.85 -0.45 27.9 -0.55 27.95 -0.3 27.5 Q-0.1 26.85 0.55 26.2 L1.45 25.4 -2.35 26.6 -2.5 26.75 -2.45 26.55 -2.4 26.4 Q-2.1 25.75 -1.1 25.2 L3.7 22.65 Q2.75 22.15 1.7 21.8 L2.4 21.85 1.9 21.75 1.9 21.7 5.15 21.95 1.5 20.45 1.5 20.4 1.8 20.45 1.8 20.35 7.75 20.7 Q6.0 18.25 7.3 15.35 L7.4 14.95 7.45 15.05 7.5 14.95 7.55 14.95 7.45 15.1 Q8.6 17.7 9.35 20.05 L9.6 19.95 9.6 19.9 Q10.45 18.8 11.45 18.3 L11.7 18.2 11.8 18.15 11.75 18.2 11.8 18.2 11.45 19.85 Q14.1 18.95 16.95 19.2 18.95 19.35 20.35 18.2 L20.1 18.6 Q20.1 19.3 19.2 19.85 L17.85 20.6 21.4 21.2 22.0 21.35 M9.75 20.55 L9.9 20.5 9.85 20.4 9.75 20.55" fill="#ffffff" fill-rule="evenodd" stroke="none"/>
    <path d="M42.6 -82.65 L42.75 -82.8 42.8 -82.8 42.8 -83.15 42.95 -82.75 Q45.45 -80.85 44.95 -77.35 44.7 -75.7 45.5 -74.2 46.55 -72.15 48.4 -70.65 49.95 -69.4 49.9 -67.4 49.9 -62.15 47.15 -57.8 L49.05 -57.85 50.75 -57.95 Q55.3 -58.8 57.8 -62.35 58.05 -62.7 58.1 -63.2 L58.35 -63.45 58.55 -63.35 58.6 -63.3 58.35 -62.25 Q58.45 -61.3 57.4 -60.3 54.65 -57.7 53.0 -54.45 52.65 -53.7 52.75 -52.9 53.1 -50.05 52.6 -47.3 52.3 -45.75 51.35 -44.35 50.5 -43.1 49.35 -42.5 54.2 -40.6 59.6 -42.2 L61.55 -42.65 Q61.0 -41.95 60.0 -41.6 55.45 -35.85 48.3 -33.2 L43.6 -31.6 Q39.3 -30.3 35.05 -30.3 40.55 -26.75 44.6 -21.55 46.75 -18.75 49.95 -17.2 50.55 -16.9 50.5 -16.4 L48.9 -17.1 Q48.15 -17.4 47.35 -18.0 40.6 -23.05 32.4 -23.65 33.65 -22.25 32.9 -20.0 32.55 -19.0 32.7 -17.95 33.3 -13.3 38.15 -13.5 38.95 -13.5 39.5 -14.1 39.75 -14.35 39.9 -14.0 L39.5 -13.6 39.55 -13.55 Q36.05 -10.45 30.9 -11.65 25.2 -12.95 22.35 -17.95 L22.25 -18.15 Q22.65 -13.85 18.2 -11.1 16.65 -10.15 14.9 -9.5 12.35 -8.5 11.0 -10.2 L10.9 -10.25 Q11.95 -10.25 12.85 -11.05 15.1 -13.0 13.65 -15.65 L12.45 -17.95 12.25 -18.4 Q9.7 -13.15 3.75 -10.5 0.55 -9.1 -2.7 -9.15 -2.2 -9.55 -1.3 -9.8 -0.3 -10.8 -0.15 -12.35 0.0 -13.9 1.05 -14.7 L-1.25 -14.6 Q-2.9 -14.45 -4.3 -13.45 -6.45 -11.9 -7.5 -9.75 L-7.55 -9.45 -7.65 -9.35 Q-7.8 -9.15 -8.3 -10.25 -8.85 -11.35 -8.8 -12.05 -8.7 -15.9 -5.65 -18.55 -3.55 -20.35 -4.1 -22.8 -4.35 -24.0 -5.1 -24.8 -8.4 -20.9 -13.9 -21.0 -15.15 -21.0 -16.2 -21.75 L-20.35 -24.2 Q-24.35 -26.15 -27.8 -23.55 -29.2 -22.5 -28.45 -20.95 L-28.35 -20.45 Q-29.05 -20.55 -29.15 -21.35 -29.6 -21.75 -29.55 -22.8 -29.45 -24.75 -28.25 -26.3 -26.05 -29.25 -22.3 -29.45 L-20.55 -29.35 -21.9 -30.65 Q-25.1 -34.55 -26.4 -39.55 -26.85 -41.4 -28.05 -42.9 -29.75 -45.05 -32.35 -45.9 L-32.3 -46.05 -32.1 -46.15 -32.0 -46.1 -31.85 -46.3 Q-26.8 -45.25 -24.2 -40.55 L-23.1 -39.2 Q-18.85 -35.6 -14.85 -39.3 L-14.5 -39.6 -15.1 -39.8 Q-20.0 -41.9 -21.15 -47.3 -21.8 -50.5 -21.15 -53.8 -20.6 -56.4 -22.85 -58.05 -25.65 -60.15 -27.95 -62.65 -28.9 -63.7 -28.9 -65.1 -28.85 -69.8 -25.55 -73.05 L-25.35 -72.9 -25.3 -72.9 -25.75 -72.3 Q-27.3 -68.85 -23.7 -67.3 L-22.5 -67.4 Q-19.7 -69.2 -19.05 -72.55 -17.8 -78.75 -20.6 -84.45 L-21.75 -87.5 -21.7 -87.5 -21.2 -86.75 Q-20.4 -86.55 -19.65 -85.45 -16.1 -80.0 -10.0 -82.55 -6.65 -83.95 -3.95 -86.3 -0.15 -89.65 4.85 -89.95 L5.0 -89.95 5.6 -90.0 5.95 -89.85 5.95 -89.8 4.45 -89.35 Q3.25 -88.6 3.1 -86.95 2.9 -85.35 4.55 -84.55 7.45 -83.05 8.0 -80.05 8.35 -78.35 7.15 -77.05 L3.7 -72.7 Q2.55 -71.1 3.5 -69.4 4.3 -67.95 5.65 -67.35 5.5 -68.15 6.25 -69.5 L10.6 -77.35 Q14.3 -84.45 9.35 -90.15 L9.35 -90.25 9.6 -90.5 9.85 -90.6 Q19.35 -89.5 20.6 -79.7 21.1 -75.9 19.65 -72.3 L18.85 -71.05 Q23.7 -71.05 26.4 -75.4 27.6 -77.35 27.65 -79.65 27.85 -84.5 23.45 -86.55 L21.6 -86.7 Q20.95 -86.5 20.6 -86.9 L20.95 -87.15 Q21.45 -88.0 22.55 -88.15 L25.35 -88.5 Q30.15 -89.25 32.0 -85.15 33.1 -82.7 32.05 -80.2 30.7 -77.05 31.5 -74.0 31.65 -73.45 32.1 -73.1 34.1 -71.6 36.7 -71.5 L36.65 -71.65 Q42.2 -74.2 42.6 -80.35 L42.75 -82.35 42.6 -82.65" fill="#aa0909" fill-rule="evenodd" stroke="none"/>
    <path d="M43.35 -80.35 Q44.25 -78.25 43.9 -75.7 L43.9 -75.65 Q42.6 -76.65 42.85 -79.15 42.95 -79.95 43.35 -80.35 M43.05 -68.15 Q42.65 -65.25 43.8 -62.5 45.9 -57.4 41.95 -53.25 38.3 -49.45 33.05 -48.4 L32.75 -48.35 33.05 -48.3 Q41.3 -47.1 48.0 -52.9 L51.3 -55.85 51.35 -55.95 51.35 -55.9 52.1 -56.65 Q51.95 -55.55 50.95 -54.45 L49.6 -51.65 45.5 -44.2 Q43.6 -40.45 39.8 -39.0 46.3 -37.75 53.1 -39.0 L53.3 -39.1 53.3 -39.05 53.8 -39.15 53.9 -39.05 53.3 -38.85 Q53.15 -38.0 51.4 -37.55 41.3 -35.0 30.75 -35.95 L25.5 -36.75 Q29.45 -30.85 35.25 -26.6 L35.3 -26.55 34.85 -26.75 35.25 -26.45 35.45 -26.35 35.45 -26.25 28.05 -29.2 25.25 -30.25 Q28.05 -27.75 27.0 -23.4 25.85 -18.55 29.8 -15.65 L28.65 -16.3 Q26.0 -17.55 23.95 -20.3 21.9 -23.05 21.0 -26.35 20.95 -20.15 16.7 -15.0 L15.95 -14.15 15.85 -14.05 15.55 -14.0 15.45 -14.1 15.95 -14.7 Q17.65 -18.05 14.4 -20.25 12.05 -21.9 10.0 -23.85 L8.9 -25.25 Q8.8 -23.05 7.55 -20.8 6.95 -19.6 6.0 -19.35 5.6 -22.8 3.8 -25.7 4.9 -20.4 -0.8 -17.45 L-3.1 -16.4 -3.3 -16.35 -3.15 -16.45 -3.1 -16.5 Q-3.45 -19.6 -0.9 -22.3 -0.4 -22.85 -0.3 -23.65 -0.15 -26.75 -1.1 -29.35 -1.8 -28.25 -3.15 -27.65 -11.5 -23.95 -19.55 -27.15 L-20.9 -27.7 -21.05 -27.85 -17.3 -27.95 Q-18.95 -29.2 -20.25 -31.05 -21.9 -33.3 -22.75 -35.55 L-23.15 -36.5 Q-19.55 -33.05 -15.15 -36.4 -12.75 -38.2 -10.9 -40.55 -12.25 -40.0 -13.8 -41.35 -19.4 -46.55 -17.6 -53.35 L-17.8 -54.15 -17.6 -54.4 -17.45 -53.9 Q-16.6 -50.75 -14.2 -49.25 L-14.15 -49.25 -14.15 -49.35 Q-12.7 -55.8 -19.0 -58.35 -21.85 -59.55 -24.25 -61.35 -25.55 -62.3 -25.4 -63.45 L-25.6 -63.9 -25.35 -63.75 -25.25 -64.05 -25.1 -63.6 Q-21.3 -61.65 -17.9 -65.3 -13.4 -70.25 -15.35 -76.45 -16.0 -77.55 -15.9 -78.5 L-15.85 -78.85 -15.75 -79.1 -14.85 -77.0 Q-13.45 -74.9 -10.95 -73.75 -9.65 -73.2 -8.55 -74.05 -5.2 -76.65 -3.8 -80.9 -2.6 -84.65 1.1 -85.8 L1.1 -85.6 Q1.5 -85.15 0.4 -84.1 -0.95 -82.85 -0.5 -81.05 -0.1 -79.3 1.3 -78.0 2.6 -76.75 1.9 -75.0 0.55 -71.85 -1.9 -69.3 -6.05 -65.0 -2.4 -60.85 -1.5 -59.8 -0.1 -59.25 2.7 -58.1 5.55 -57.85 6.2 -63.75 10.45 -68.4 13.1 -71.25 13.85 -75.0 L15.1 -80.85 15.2 -81.4 15.25 -81.6 15.25 -81.45 Q20.05 -76.5 17.6 -69.65 16.55 -66.6 14.95 -64.0 20.75 -64.55 25.3 -68.7 28.05 -71.15 28.3 -74.8 28.35 -75.3 28.75 -75.5 L28.8 -74.35 Q29.3 -71.0 31.9 -68.2 35.5 -64.2 40.15 -66.9 L40.85 -67.65 Q42.6 -70.8 43.35 -74.0 L43.25 -72.1 Q43.35 -70.25 43.05 -68.15" fill="#fdc43e" fill-rule="evenodd" stroke="none"/>
    <path d="M47.1 -49.7 L47.2 -49.85 Q47.05 -48.9 46.05 -47.95 41.75 -43.75 36.2 -41.45 32.5 -39.9 28.75 -40.05 29.9 -39.5 31.2 -39.05 36.5 -37.15 42.1 -37.3 L43.45 -37.15 43.45 -37.1 43.1 -37.05 43.55 -37.1 Q34.7 -35.45 25.85 -37.85 24.1 -38.3 22.45 -38.9 24.8 -34.25 28.65 -30.5 L28.95 -30.35 28.85 -30.4 28.8 -30.35 28.65 -30.45 Q24.4 -31.95 20.95 -34.8 L20.9 -34.65 Q21.25 -33.5 22.05 -32.6 24.3 -29.8 25.15 -26.45 25.65 -24.6 25.05 -23.0 L25.3 -22.7 Q23.9 -23.55 22.85 -25.2 20.15 -29.55 20.65 -34.35 L20.5 -34.8 Q19.1 -32.75 18.85 -30.2 L18.9 -24.65 Q18.85 -22.4 18.1 -20.3 17.85 -19.4 17.2 -19.05 L17.2 -18.95 17.15 -19.05 17.0 -19.0 17.1 -19.2 Q16.1 -21.55 14.15 -23.5 L11.7 -25.7 Q9.35 -27.6 8.0 -30.2 L7.55 -25.7 Q7.35 -24.6 6.75 -24.1 L6.75 -24.05 6.75 -23.95 6.7 -24.05 6.6 -24.0 6.55 -24.05 6.6 -24.15 5.65 -25.65 Q4.55 -27.75 2.95 -29.45 L2.75 -25.3 Q2.3 -20.75 -1.3 -18.15 L-1.3 -17.9 -1.4 -18.1 -1.45 -18.15 -1.4 -18.15 Q-1.85 -19.5 -0.55 -20.8 0.05 -21.35 0.35 -22.1 2.2 -26.65 -0.15 -31.1 -4.0 -28.65 -8.55 -27.75 L-15.4 -28.0 -15.7 -28.15 -15.95 -28.3 -15.8 -28.3 -13.65 -28.55 Q-15.45 -29.05 -17.05 -30.45 L-19.9 -33.0 Q-20.4 -33.4 -20.3 -33.7 L-20.5 -33.85 -20.25 -33.8 -20.25 -33.85 -20.15 -33.75 -15.35 -34.0 Q-9.85 -35.7 -8.05 -40.95 -9.5 -40.95 -11.05 -41.5 -14.8 -42.85 -15.95 -46.65 L-16.85 -49.7 -16.7 -50.05 -16.65 -50.0 -16.65 -50.05 Q-14.3 -47.4 -11.25 -46.1 L-11.1 -47.0 Q-10.4 -50.5 -11.05 -54.0 -11.55 -56.65 -13.05 -58.85 -15.1 -61.9 -18.85 -61.25 L-20.85 -61.1 -20.9 -61.1 -20.8 -61.1 -19.4 -61.6 -15.9 -63.1 Q-11.15 -65.45 -11.45 -70.4 -11.5 -71.8 -12.5 -72.5 L-12.4 -72.5 -11.8 -72.1 Q-9.9 -71.1 -7.6 -72.05 -3.35 -73.75 -2.9 -78.3 L-2.45 -80.2 -2.35 -80.25 Q-2.1 -79.85 -1.95 -79.05 L-1.2 -76.2 Q-0.9 -75.25 -1.55 -74.5 L-6.5 -68.2 Q-7.4 -67.05 -7.55 -65.6 -8.35 -58.95 -2.1 -56.25 2.85 -54.15 8.25 -53.6 7.65 -58.35 9.85 -62.8 11.3 -65.8 13.25 -68.55 15.1 -71.2 15.7 -74.15 L15.65 -75.0 Q15.6 -75.35 15.85 -75.5 L15.9 -75.35 15.9 -75.7 15.95 -74.5 Q16.05 -72.15 15.2 -69.8 14.1 -67.0 13.45 -64.05 L13.0 -61.45 18.25 -61.65 Q23.2 -62.15 26.45 -65.95 L28.7 -68.65 28.85 -68.9 28.85 -68.85 28.9 -68.9 28.9 -68.75 Q29.1 -66.85 30.25 -65.1 31.8 -62.7 34.75 -62.25 37.55 -61.85 39.75 -63.4 L39.85 -64.2 39.85 -63.5 40.05 -63.7 39.85 -63.5 39.3 -58.6 Q38.9 -56.55 37.85 -54.75 36.0 -51.5 32.2 -50.8 28.9 -50.15 26.55 -47.85 25.45 -46.7 25.5 -45.15 L35.15 -45.6 39.35 -46.3 Q43.8 -47.2 47.15 -49.95 L47.1 -49.7" fill="#fefd9a" fill-rule="evenodd" stroke="none"/>
    <path d="M11.5 -60.4 L11.4 -57.45 Q18.7 -57.0 25.4 -60.4 26.55 -60.95 27.55 -61.65 L27.6 -61.75 27.6 -61.65 28.05 -62.0 Q28.15 -61.55 27.5 -61.15 27.4 -59.65 28.2 -58.2 28.7 -57.25 29.75 -57.1 L34.35 -57.25 34.35 -57.3 34.35 -57.25 35.0 -57.45 35.05 -57.4 34.3 -57.05 Q34.15 -56.4 33.2 -55.9 29.55 -53.8 25.45 -52.6 23.85 -52.15 22.65 -51.05 19.25 -47.9 17.85 -43.65 L20.25 -43.1 20.35 -44.15 20.4 -43.1 25.05 -42.85 33.15 -43.15 33.3 -43.2 33.3 -43.15 33.9 -43.15 33.3 -43.05 32.35 -42.3 26.05 -40.5 Q27.25 -39.55 28.85 -39.0 L29.2 -38.9 29.6 -38.8 29.6 -38.75 29.5 -38.75 Q25.4 -38.75 21.4 -39.65 L20.95 -39.6 Q21.65 -37.2 23.15 -35.05 L23.2 -34.95 22.75 -35.25 Q20.55 -36.45 18.8 -38.15 17.9 -36.65 17.55 -34.9 L16.8 -30.15 Q16.6 -28.7 15.95 -27.55 L16.0 -27.5 15.9 -27.5 15.8 -27.35 15.75 -27.35 15.8 -27.55 Q15.05 -27.75 14.15 -28.35 L10.95 -31.05 Q9.05 -32.9 7.9 -35.15 7.05 -33.5 6.5 -31.75 6.2 -30.8 5.7 -30.3 L5.7 -30.15 5.55 -29.95 5.5 -30.15 5.45 -30.15 5.5 -30.2 4.2 -35.35 Q0.9 -33.3 -2.75 -31.95 -5.35 -30.95 -7.85 -30.95 L-9.25 -30.9 -9.0 -30.95 -9.25 -31.0 -8.8 -31.0 Q-6.45 -31.85 -4.2 -33.0 L-8.7 -31.75 -14.8 -32.05 -14.75 -32.05 Q-9.85 -32.85 -6.0 -36.35 -3.45 -38.65 -1.4 -41.3 L-3.1 -41.35 Q-6.45 -41.55 -8.8 -43.45 L-8.75 -43.45 -7.8 -43.0 -8.9 -43.7 -7.5 -43.15 Q-6.9 -48.2 -8.2 -53.1 -8.8 -55.35 -10.15 -57.25 L-12.55 -60.95 -13.0 -61.15 -12.65 -61.15 -12.75 -61.35 -12.7 -61.35 -12.5 -61.15 Q-10.9 -61.15 -9.4 -61.9 L-9.3 -62.3 -9.25 -62.35 -9.15 -62.0 -9.0 -62.1 -9.1 -61.7 Q-7.75 -56.2 -3.1 -52.65 -1.1 -51.1 1.3 -50.3 5.45 -48.9 9.8 -48.8 9.55 -53.6 10.4 -58.35 10.65 -59.7 11.35 -60.75 L11.4 -61.25 11.55 -61.45 11.55 -61.05 11.55 -61.1 11.5 -60.4 M20.4 -40.3 L20.45 -40.3 20.4 -40.3" fill="#ffffff" fill-rule="evenodd" stroke="none"/>
  </g>
</svg>
