<?xml version="1.0" encoding="UTF-8" standalone="no"?>
<svg xmlns:ffdec="https://www.free-decompiler.com/flash" xmlns:xlink="http://www.w3.org/1999/xlink" ffdec:objectType="shape" height="150.75px" width="99.85px" xmlns="http://www.w3.org/2000/svg">
  <g transform="matrix(1.0, 0.0, 0.0, 1.0, 35.2, 96.45)">
    <path d="M19.55 -4.45 Q18.35 -2.15 17.7 0.55 17.55 1.3 18.25 1.85 22.0 4.65 21.1 8.7 L22.7 8.2 Q29.45 6.35 36.05 8.4 40.15 9.65 42.1 13.1 L42.6 13.35 Q42.85 13.5 42.3 13.75 L42.15 13.8 41.9 13.9 41.75 13.7 Q36.2 11.75 30.8 14.9 L30.05 15.3 Q32.35 16.25 34.55 17.8 40.35 21.95 42.3 28.85 L42.05 29.05 41.8 29.15 Q38.1 26.3 33.7 25.05 34.15 34.0 40.9 39.6 L40.75 39.9 40.4 40.05 Q37.15 38.95 34.8 36.95 36.55 40.95 36.4 45.8 36.3 49.3 34.15 51.65 33.2 44.75 26.75 42.1 26.0 48.35 20.2 50.4 18.35 51.1 17.05 52.5 L15.8 54.05 15.7 53.8 15.3 54.15 Q13.95 50.7 18.35 49.75 L18.4 49.7 Q16.9 46.4 13.75 43.9 L12.5 42.35 Q11.8 40.9 11.65 39.5 L11.6 39.6 5.9 46.3 Q3.05 49.55 2.7 53.85 L2.55 53.95 Q1.6 52.3 2.05 49.6 2.6 46.55 1.4 43.55 0.4 40.95 0.25 38.3 -4.2 44.25 -6.95 51.15 -7.5 52.55 -7.2 53.95 L-7.35 54.1 -7.7 54.3 Q-11.05 50.85 -10.5 45.2 L-10.15 42.9 Q-12.05 44.3 -14.25 45.45 -17.55 47.15 -18.1 50.7 L-18.35 50.9 Q-22.2 44.9 -17.8 38.6 -16.9 37.4 -16.7 35.95 -18.25 36.5 -19.65 37.45 -23.3 39.9 -25.35 43.4 -27.1 38.55 -23.05 33.95 L-17.8 27.95 -16.8 26.4 Q-21.1 27.6 -25.1 30.05 -26.6 31.0 -28.35 31.2 -29.7 31.6 -29.9 30.5 L-29.9 30.4 Q-23.75 26.3 -18.3 21.1 -17.05 19.9 -15.4 19.35 L-16.9 18.25 Q-18.7 16.85 -20.9 17.0 -25.95 17.25 -30.65 16.0 -31.25 15.85 -31.35 15.3 -22.35 11.45 -12.45 10.5 -10.45 10.3 -8.55 11.0 -11.05 7.75 -12.55 3.9 L-12.1 3.85 Q-6.65 5.85 -1.15 8.1 -1.4 5.0 0.25 1.7 0.45 1.3 0.0 0.95 -2.65 -0.9 -1.0 -2.25 -0.75 -2.45 -0.35 -2.25 7.05 1.55 10.95 8.35 L13.95 6.05 Q14.45 5.65 14.4 4.9 14.1 -1.3 19.25 -4.45 L19.55 -4.45" fill="#aa0909" fill-rule="evenodd" stroke="none"/>
    <path d="M28.85 11.6 L28.6 11.6 28.8 11.75 24.5 14.05 Q28.15 15.7 31.3 18.75 33.15 20.55 34.2 22.7 L34.3 22.75 34.3 22.8 34.3 22.85 34.2 23.0 34.05 22.75 29.2 20.85 29.1 22.05 Q28.8 25.2 29.7 28.25 30.6 31.15 32.2 33.6 L33.45 35.5 33.3 35.65 33.2 35.7 31.3 34.35 33.6 41.95 33.6 43.0 33.6 43.15 33.5 43.25 Q29.55 37.85 23.55 34.6 24.2 36.85 23.4 39.25 22.2 42.8 19.5 45.35 L19.55 44.95 19.4 45.2 Q19.45 43.3 17.8 41.9 13.4 38.1 13.15 32.7 L8.5 37.7 5.65 42.65 4.65 44.3 4.75 44.45 4.7 44.45 4.65 44.35 4.55 44.5 4.55 44.2 Q1.9 39.4 1.95 33.75 L1.95 33.15 -1.9 36.15 -3.4 38.05 -6.45 43.75 -6.5 43.85 -6.5 43.8 Q-7.5 41.15 -7.35 38.6 L-11.15 39.85 Q-13.3 40.3 -15.05 41.55 L-15.05 41.7 -15.1 41.55 -15.3 41.75 -15.1 41.1 Q-15.1 40.0 -14.1 38.85 -13.0 37.6 -11.6 36.65 -9.25 35.05 -8.6 32.2 L-8.45 31.6 Q-14.4 32.05 -19.8 34.6 L-20.05 34.45 -20.1 34.4 Q-16.85 29.2 -11.05 26.3 -8.7 25.1 -6.2 24.35 -11.05 23.1 -16.2 23.65 L-16.3 23.6 Q-14.95 21.85 -12.3 21.35 L-7.5 21.05 -9.05 18.6 Q-10.05 16.35 -12.35 15.4 -13.85 14.8 -15.4 14.5 L-16.35 14.7 Q-17.15 14.9 -17.35 14.35 L-17.1 14.25 -17.8 14.25 -16.75 14.2 Q-10.2 12.65 -3.95 14.15 -6.1 11.75 -7.55 8.8 L-7.55 8.7 -4.15 10.75 Q-0.15 13.3 4.0 15.35 3.6 13.0 4.35 10.35 5.1 7.75 4.35 5.45 5.05 5.7 5.15 6.6 6.4 7.6 7.2 9.45 8.55 12.7 9.0 16.1 L16.15 11.75 Q16.55 11.5 16.3 11.05 15.45 9.25 15.75 7.45 L15.7 7.45 15.65 7.4 15.75 7.4 15.9 6.8 15.95 7.45 Q16.9 7.65 17.75 8.7 L20.15 11.55 20.4 11.95 Q24.55 10.3 28.85 11.6" fill="#fdc43e" fill-rule="evenodd" stroke="none"/>
    <path d="M26.25 18.25 Q28.05 19.1 29.85 19.6 L29.15 19.6 29.25 19.65 29.05 19.6 28.15 19.45 28.25 19.5 28.2 19.55 27.7 19.3 25.0 18.75 Q26.4 23.35 26.8 28.2 28.1 30.9 30.0 33.0 L30.3 33.25 30.25 33.25 30.0 33.05 27.55 30.7 Q28.0 32.45 28.95 33.95 30.0 35.6 30.55 37.25 29.7 36.75 28.75 35.85 25.35 32.5 21.05 30.9 22.15 34.4 20.45 37.7 L19.5 39.1 19.25 38.4 17.4 36.1 17.15 35.9 15.4 34.0 Q13.65 31.3 13.0 28.4 L8.6 33.0 Q5.2 36.6 4.5 41.25 3.5 35.5 3.95 29.45 L4.25 27.45 Q-2.1 32.05 -6.45 38.7 L-6.55 38.7 Q-6.5 37.1 -5.95 35.4 -8.65 37.3 -11.7 38.2 L-11.75 38.15 -10.55 37.3 -10.05 36.85 -9.0 35.9 -7.7 34.35 -7.75 34.4 -7.1 33.4 -6.05 31.75 -6.5 32.3 -6.2 31.7 Q-5.75 30.7 -4.9 30.0 L-4.3 29.4 -13.75 30.0 Q-12.75 28.25 -10.65 27.3 -6.0 25.15 -0.9 24.6 L-9.45 21.9 -1.7 22.25 Q-5.2 19.5 -8.15 16.25 -8.85 15.5 -9.85 15.2 -10.2 15.1 -10.4 14.85 -8.6 13.95 -6.35 14.55 -2.4 15.65 1.25 17.7 -1.35 15.75 -3.0 13.25 0.65 15.85 4.8 17.55 5.25 15.0 6.1 12.45 L5.95 11.5 5.95 11.45 6.25 11.9 6.3 11.85 6.35 11.8 6.35 12.05 6.85 13.3 7.8 17.7 7.95 18.65 Q10.5 17.1 13.3 16.0 15.65 15.05 17.45 13.4 17.95 12.95 17.95 12.25 18.8 12.35 19.45 13.15 19.9 13.7 20.65 13.5 L22.4 13.55 Q21.05 14.2 21.2 15.35 L25.95 18.1 26.25 18.25" fill="#fefd9a" fill-rule="evenodd" stroke="none"/>
    <path d="M22.45 19.8 L22.2 19.75 22.35 19.9 22.3 19.9 22.05 19.7 18.45 19.35 21.1 22.5 24.0 25.45 Q24.8 25.85 25.4 26.35 L25.35 26.35 24.8 26.15 24.95 26.3 24.9 26.3 24.6 26.1 Q22.3 25.35 20.2 24.15 L20.75 25.0 Q22.45 28.15 24.65 30.85 L25.15 31.3 25.05 31.35 Q21.75 29.45 18.2 28.2 19.3 31.3 18.75 34.5 L18.7 35.0 Q15.65 31.75 13.85 27.55 L13.55 26.95 12.4 26.5 13.4 26.6 12.35 24.9 Q9.2 28.05 6.8 31.85 L6.3 32.75 6.1 33.55 Q5.4 29.95 5.8 26.35 L5.2 26.0 4.55 25.8 Q1.4 27.8 -1.55 30.1 L-3.55 31.95 -3.7 32.15 -3.55 31.6 Q-3.4 29.65 -1.9 28.05 L-9.2 28.6 -9.1 28.35 Q-9.0 27.9 -8.15 27.65 -3.75 26.35 0.75 25.65 L1.6 25.0 -3.5 23.15 -3.6 23.15 -3.65 23.1 -3.7 23.1 -3.75 23.05 -3.55 23.1 -0.8 23.25 1.3 23.35 -1.8 20.75 -5.4 16.95 -5.8 16.6 Q-0.5 18.25 4.9 20.4 L1.25 17.0 1.05 16.85 1.05 16.8 Q2.25 17.25 3.6 18.05 4.65 18.65 5.55 19.2 L6.15 16.25 6.35 17.4 7.15 20.4 Q12.05 19.25 16.75 17.35 L18.85 16.7 18.8 16.6 18.75 16.55 18.95 16.65 19.1 16.65 18.95 16.7 Q20.7 18.0 22.05 19.55 L22.55 19.75 22.45 19.8 M4.55 23.3 L4.45 23.4 4.55 23.4 4.55 23.3 M6.7 22.0 L6.7 21.9 6.65 21.95 6.7 22.0" fill="#ffffff" fill-rule="evenodd" stroke="none"/>
    <path d="M42.05 -86.45 Q46.8 -85.6 46.3 -81.05 46.15 -79.7 46.3 -78.3 46.5 -76.8 47.9 -76.05 51.7 -73.95 51.85 -69.8 51.9 -68.3 51.1 -66.95 47.6 -61.1 42.05 -56.95 L42.3 -57.0 52.25 -58.8 Q55.15 -59.4 57.15 -61.55 57.85 -62.3 57.7 -63.4 57.5 -64.5 56.85 -65.4 L57.0 -65.5 57.1 -65.55 57.25 -65.4 57.35 -65.5 57.45 -65.55 Q61.85 -63.85 61.0 -59.55 60.8 -58.55 60.1 -57.7 58.45 -55.75 55.8 -55.85 L49.8 -55.45 49.45 -55.05 Q48.85 -52.7 49.3 -50.3 49.6 -48.4 48.6 -46.65 47.6 -44.9 46.1 -43.7 47.65 -43.0 49.4 -42.75 L56.65 -43.05 Q60.5 -44.05 60.2 -47.55 60.15 -48.45 59.3 -48.85 57.95 -49.55 58.2 -50.25 L58.5 -50.1 58.7 -50.25 59.55 -50.5 Q64.5 -49.85 64.65 -45.1 64.75 -41.0 61.3 -38.55 56.45 -35.1 50.25 -36.3 44.1 -37.45 40.15 -32.85 39.05 -31.6 37.45 -31.2 33.7 -30.3 30.85 -31.95 32.85 -29.4 36.45 -28.45 40.95 -27.2 44.1 -23.8 48.15 -19.5 48.35 -13.8 L47.9 -13.9 47.85 -14.65 47.3 -16.05 Q45.6 -21.35 40.55 -23.75 35.4 -26.2 29.6 -26.75 L28.25 -26.95 Q30.95 -24.2 30.2 -19.55 29.5 -15.6 32.95 -13.45 35.9 -11.65 38.8 -13.85 L40.1 -14.75 Q40.15 -14.2 39.75 -13.75 39.65 -12.4 38.0 -11.35 33.6 -8.6 29.15 -11.5 24.5 -14.6 22.0 -19.6 L21.15 -21.5 Q21.95 -16.9 19.05 -12.55 15.8 -7.6 10.1 -8.1 8.4 -8.25 7.9 -9.8 7.5 -11.25 8.3 -12.2 8.4 -12.35 8.6 -12.1 10.35 -9.55 12.95 -11.35 13.9 -12.05 13.6 -13.3 12.9 -15.85 11.5 -18.15 11.2 -18.6 11.35 -19.2 11.75 -20.65 12.75 -21.6 9.35 -20.45 7.95 -16.85 6.5 -12.95 3.4 -10.3 1.55 -8.7 -0.9 -8.25 -2.85 -7.9 -4.1 -8.75 L-4.15 -9.0 -3.5 -8.9 Q0.3 -9.85 1.25 -13.9 1.9 -16.7 4.1 -18.3 -3.4 -17.75 -7.0 -11.05 -7.7 -9.7 -7.6 -8.15 -7.4 -5.25 -4.15 -6.1 -4.25 -5.55 -4.65 -5.4 -6.4 -3.6 -9.45 -4.55 -12.8 -5.55 -13.15 -8.95 -13.45 -11.85 -11.35 -14.0 -8.4 -16.9 -5.9 -20.25 -2.85 -24.25 -3.5 -28.65 -6.4 -23.05 -13.25 -21.55 -16.4 -20.85 -19.45 -21.9 -25.55 -23.95 -29.4 -19.4 -29.9 -18.8 -29.55 -18.1 L-29.2 -17.55 -29.1 -17.45 Q-28.5 -16.5 -27.55 -16.0 L-27.6 -15.9 Q-29.35 -16.45 -29.85 -17.5 -30.4 -17.75 -30.75 -18.65 -33.4 -25.2 -28.25 -29.85 L-27.4 -30.4 Q-26.05 -31.0 -24.55 -31.0 -21.6 -31.0 -19.55 -29.85 L-19.7 -30.45 -20.4 -35.9 Q-20.45 -36.7 -20.9 -37.35 -24.6 -43.3 -31.7 -42.05 -33.35 -41.75 -34.0 -40.4 -34.25 -39.9 -33.85 -39.45 -33.35 -38.85 -33.45 -38.2 L-34.35 -39.0 Q-35.1 -39.3 -35.2 -40.6 -35.3 -44.15 -32.2 -45.95 -30.8 -46.8 -29.15 -46.85 -22.9 -46.55 -18.05 -42.5 -16.55 -41.2 -14.55 -40.85 L-13.75 -40.75 Q-17.35 -45.35 -18.2 -51.2 -18.65 -54.25 -20.15 -56.95 -22.55 -61.2 -26.3 -64.5 -27.8 -65.8 -28.75 -67.6 -31.3 -72.3 -27.9 -76.1 -27.0 -77.1 -25.65 -77.05 -23.35 -77.15 -22.4 -75.35 L-22.35 -75.25 -22.3 -75.15 -22.3 -75.1 -22.4 -75.0 -22.9 -75.05 -22.95 -75.1 Q-25.0 -75.05 -25.0 -72.65 -24.95 -69.75 -21.85 -70.45 -20.1 -70.85 -19.5 -72.65 -18.35 -76.3 -20.05 -79.75 -21.85 -83.35 -22.65 -87.15 -23.05 -88.95 -22.2 -90.5 -20.5 -93.7 -17.55 -95.5 L-16.85 -95.9 -16.75 -95.95 -16.5 -95.75 -16.5 -95.7 -17.0 -95.35 Q-19.7 -93.05 -19.0 -89.2 -18.1 -84.15 -14.5 -80.4 -10.95 -76.7 -6.35 -78.8 -5.35 -79.25 -4.65 -80.1 L1.8 -88.55 Q4.1 -91.55 7.6 -92.5 L7.8 -92.55 8.15 -92.05 8.15 -92.0 7.05 -91.65 Q3.45 -88.85 2.65 -84.4 2.55 -84.1 2.8 -83.85 4.25 -82.35 6.05 -81.1 8.15 -79.7 6.35 -77.75 L1.8 -73.4 Q-0.2 -71.75 -0.2 -69.2 -0.25 -64.85 4.0 -63.25 L5.9 -62.5 Q4.15 -67.45 7.35 -72.2 9.8 -75.85 11.25 -79.95 11.85 -81.55 11.85 -83.3 11.8 -88.35 9.65 -93.0 L8.05 -96.25 8.15 -96.4 8.3 -96.45 8.4 -96.35 Q16.05 -94.05 19.3 -87.0 22.1 -80.9 20.1 -74.5 19.0 -71.05 16.85 -68.25 20.65 -69.6 23.95 -72.25 27.25 -74.85 28.35 -78.85 30.05 -84.7 26.15 -89.35 25.35 -90.35 24.05 -90.4 21.3 -90.5 18.95 -89.4 L18.9 -89.45 20.05 -90.35 Q20.7 -91.85 22.75 -92.5 L27.05 -93.3 Q31.45 -93.6 33.3 -90.1 33.9 -88.9 33.8 -87.55 33.55 -84.75 32.0 -82.3 28.3 -76.35 32.15 -70.7 33.0 -69.45 34.1 -68.7 39.15 -69.7 42.15 -74.25 43.85 -76.75 43.85 -79.85 43.85 -83.2 41.75 -85.85 L41.6 -86.3 41.75 -86.4 41.85 -86.45 41.95 -86.3 42.05 -86.45" fill="#aa0909" fill-rule="evenodd" stroke="none"/>
    <path d="M44.2 -85.0 Q46.1 -82.6 45.15 -80.05 45.05 -79.75 44.8 -79.9 44.35 -82.35 44.05 -84.85 L44.2 -85.0 M43.8 -63.3 Q40.3 -60.55 36.45 -58.35 33.9 -56.9 31.9 -54.85 33.3 -55.6 35.35 -55.55 L45.55 -55.85 Q46.15 -56.1 46.4 -55.65 L46.4 -55.55 46.15 -55.5 Q45.4 -52.35 45.6 -48.55 45.6 -47.65 44.95 -47.0 42.25 -44.5 39.2 -42.9 47.85 -38.6 58.1 -41.6 61.5 -42.6 61.7 -46.0 L61.95 -46.25 62.0 -45.75 62.0 -45.85 62.0 -45.75 Q61.9 -42.45 59.0 -40.05 54.6 -36.35 48.75 -38.2 44.25 -39.6 39.8 -40.45 33.35 -40.25 27.3 -38.05 L27.1 -36.25 Q26.85 -31.9 29.95 -29.35 L30.65 -28.85 31.7 -28.25 Q30.4 -28.6 29.4 -29.25 26.2 -30.65 22.7 -31.4 28.45 -25.95 27.95 -17.3 27.9 -16.4 28.5 -15.75 29.9 -14.15 31.55 -13.15 29.5 -13.55 28.35 -15.15 26.4 -16.6 24.65 -18.95 22.15 -22.35 20.85 -26.0 L20.8 -26.0 Q18.45 -25.0 18.7 -22.5 L19.35 -18.2 Q19.85 -15.25 17.8 -13.0 16.6 -11.7 15.5 -12.15 L14.95 -12.2 15.15 -12.3 14.85 -12.55 15.6 -12.6 Q17.1 -13.75 16.8 -15.4 L16.5 -15.75 Q11.55 -18.95 14.7 -24.4 L15.75 -26.3 Q9.2 -24.45 6.5 -18.05 5.6 -15.95 3.95 -14.85 L4.7 -16.0 Q5.75 -18.6 6.3 -21.3 -1.4 -20.1 -6.8 -14.0 -7.25 -13.5 -7.7 -13.8 -6.2 -15.7 -4.4 -17.15 0.95 -23.8 -0.6 -32.5 L-1.6 -31.5 Q-5.05 -28.45 -9.15 -26.45 -13.7 -24.25 -18.55 -25.95 -23.2 -27.65 -26.7 -24.35 -27.3 -23.8 -27.95 -23.6 L-27.45 -24.35 Q-27.15 -26.65 -24.2 -27.7 -21.75 -28.55 -19.05 -28.6 -17.2 -28.6 -15.35 -29.15 -16.7 -29.9 -17.2 -31.85 -18.2 -35.8 -19.85 -39.5 -20.55 -41.0 -22.05 -41.7 -22.55 -41.9 -22.05 -42.1 L-22.0 -42.05 -21.95 -42.1 Q-14.05 -36.8 -5.8 -40.4 -10.0 -40.7 -12.95 -44.6 -17.2 -50.2 -15.4 -56.65 L-14.95 -56.55 -14.9 -56.5 Q-15.2 -55.05 -14.6 -53.95 -14.0 -57.75 -16.1 -61.1 -16.7 -62.1 -17.8 -62.5 -22.9 -64.5 -26.1 -68.65 -27.4 -70.35 -26.8 -71.95 L-26.7 -71.5 -26.65 -71.55 -24.85 -69.7 Q-24.1 -69.3 -23.15 -68.85 -21.7 -68.1 -20.05 -68.45 -14.75 -69.65 -16.45 -74.6 L-19.7 -83.65 Q-20.0 -84.45 -19.5 -84.85 L-19.2 -84.15 Q-15.75 -78.0 -10.3 -73.4 -9.4 -72.65 -8.15 -72.9 -3.25 -73.75 -2.0 -78.6 L-1.25 -81.0 Q-1.3 -81.95 -0.95 -83.15 -0.3 -85.3 1.55 -86.55 1.75 -85.7 0.9 -84.3 0.3 -83.3 1.0 -82.4 2.65 -80.35 2.2 -77.85 2.0 -76.7 1.15 -75.95 -1.05 -74.05 -2.8 -71.8 -5.9 -67.8 -3.7 -63.65 -3.5 -63.2 -3.0 -62.9 3.0 -58.8 10.25 -59.1 L10.2 -59.35 Q9.85 -61.75 9.95 -64.25 10.2 -70.9 13.95 -76.6 15.0 -78.2 15.4 -80.05 16.5 -85.55 13.3 -90.45 13.15 -90.65 13.4 -90.65 L14.25 -89.3 13.7 -90.4 13.75 -90.4 Q18.1 -83.6 15.0 -75.7 13.3 -71.35 13.65 -66.85 13.7 -65.7 14.3 -64.7 L15.9 -62.4 Q22.3 -64.95 26.6 -70.75 28.15 -72.75 28.5 -74.95 28.65 -73.4 28.2 -71.95 27.6 -66.4 33.05 -64.05 L35.35 -63.95 Q42.75 -66.0 45.05 -73.1 L45.0 -73.15 45.05 -73.15 45.1 -73.3 45.1 -73.15 Q49.55 -67.8 43.8 -63.3 M54.65 -58.05 Q54.4 -58.1 54.4 -58.3 L55.35 -59.15 Q57.8 -60.0 59.3 -62.1 61.05 -59.5 57.85 -58.25 L55.3 -58.0 54.65 -58.05 M25.6 -91.55 L25.65 -91.65 25.7 -91.7 Q25.6 -91.95 25.65 -92.15 L26.15 -91.9 26.2 -91.9 26.6 -91.95 Q31.7 -92.3 32.05 -87.85 32.3 -85.15 30.45 -83.6 L30.35 -83.05 30.3 -83.0 30.3 -83.45 30.05 -83.3 30.3 -83.65 Q30.25 -85.55 29.55 -87.5 28.85 -89.4 27.05 -90.45 L25.8 -91.5 25.6 -91.55" fill="#fdc43e" fill-rule="evenodd" stroke="none"/>
    <path d="M45.2 -68.6 L44.85 -67.75 Q44.9 -67.1 44.3 -66.35 40.7 -61.45 34.95 -59.05 30.6 -57.2 26.15 -55.7 27.8 -52.8 31.75 -52.5 34.95 -52.25 38.05 -53.35 L41.0 -54.05 44.05 -53.95 44.05 -54.0 44.05 -53.95 44.8 -53.75 44.1 -53.8 44.0 -52.85 Q43.65 -50.45 42.75 -48.15 42.15 -46.7 40.7 -45.95 38.1 -44.65 35.4 -43.7 37.15 -42.75 39.1 -42.15 L39.4 -42.15 40.3 -41.85 40.95 -41.7 40.95 -41.65 40.25 -41.7 39.25 -41.65 31.45 -42.0 29.75 -42.0 29.45 -41.95 28.45 -42.0 25.5 -42.0 Q25.1 -40.25 25.0 -38.4 L24.9 -34.7 25.1 -34.55 24.9 -34.6 24.9 -34.5 24.9 -34.6 22.6 -35.9 18.75 -38.15 Q19.3 -35.85 20.5 -33.8 23.2 -29.3 25.15 -24.45 L25.75 -22.45 25.8 -21.7 25.3 -22.4 Q23.9 -23.3 22.7 -24.8 21.15 -26.8 20.1 -28.95 L19.5 -28.3 Q16.05 -25.25 17.6 -20.95 18.2 -19.4 17.95 -17.9 L18.0 -17.85 17.95 -17.85 17.85 -17.55 17.85 -17.9 Q16.8 -18.1 16.2 -19.4 14.35 -23.5 17.15 -27.25 L18.65 -28.95 17.75 -28.75 Q11.8 -27.05 8.1 -22.15 L7.7 -21.7 7.7 -21.75 Q7.65 -22.65 8.05 -23.5 2.85 -22.35 -1.5 -19.2 -1.8 -19.0 -2.05 -19.2 L-0.95 -20.0 Q1.65 -25.15 1.15 -31.1 1.0 -32.95 0.3 -34.65 0.1 -35.1 0.2 -35.45 -2.7 -32.7 -5.85 -30.35 -10.65 -26.7 -16.55 -26.85 L-17.4 -27.0 -17.75 -27.3 -17.7 -27.3 Q-14.45 -27.55 -11.5 -29.05 -12.8 -29.45 -13.95 -30.55 -15.35 -31.9 -16.1 -33.65 L-17.65 -37.2 -17.9 -38.35 -18.0 -38.4 -17.9 -38.35 -17.85 -38.4 -17.8 -38.35 Q-10.9 -36.8 -3.75 -38.8 -1.55 -39.4 0.5 -40.35 -4.45 -41.35 -8.7 -44.75 -11.8 -47.2 -13.85 -50.5 L-14.1 -51.65 -14.2 -51.75 -14.15 -51.75 -14.1 -51.7 -14.1 -51.75 -14.05 -51.65 Q-12.65 -50.5 -10.85 -50.2 -12.75 -52.2 -12.8 -55.4 -12.9 -58.3 -14.05 -60.95 -14.9 -62.95 -17.05 -63.65 -20.15 -64.65 -22.4 -66.85 L-22.9 -67.55 -23.35 -67.85 -22.95 -67.65 -23.0 -68.0 -22.45 -67.5 -20.05 -66.85 Q-16.35 -66.25 -13.55 -68.8 -12.3 -69.95 -12.15 -71.45 L-12.2 -72.15 -12.15 -72.0 -12.15 -72.15 -12.1 -72.0 Q-10.4 -68.8 -6.8 -70.7 L-6.0 -70.9 -6.0 -70.95 -6.0 -70.9 -5.8 -70.9 -5.95 -70.75 Q-5.95 -70.45 -6.3 -69.9 -6.7 -69.35 -6.75 -68.6 -7.15 -62.6 -2.65 -58.8 -1.9 -58.15 -0.95 -57.85 4.9 -56.0 10.75 -57.8 L12.1 -58.2 11.95 -58.6 Q10.65 -64.45 11.75 -70.35 L11.95 -71.1 11.95 -71.2 Q12.0 -72.25 12.75 -72.9 L12.75 -72.8 13.1 -73.3 12.75 -71.8 12.55 -71.25 Q11.8 -65.5 13.95 -60.2 17.55 -61.0 21.05 -62.8 23.1 -63.85 24.5 -65.65 L26.85 -68.6 26.65 -67.7 Q26.2 -63.45 30.8 -62.05 34.35 -61.0 37.65 -62.7 41.55 -64.65 44.5 -67.8 L44.7 -68.35 44.8 -68.1 45.2 -68.6 M30.95 -86.8 L30.9 -86.8 30.9 -87.05 30.15 -88.8 Q29.35 -90.45 28.0 -91.15 L28.05 -91.15 Q27.9 -91.3 28.1 -91.5 31.95 -90.85 31.1 -87.25 L31.1 -86.55 31.05 -86.55 30.95 -86.8 M0.3 -82.25 L0.35 -82.3 0.4 -82.1 Q2.6 -78.3 -1.3 -75.25 -2.0 -74.7 -2.5 -74.85 L-2.7 -74.7 -2.75 -74.75 -2.6 -74.85 -2.8 -74.95 -2.4 -75.15 Q-0.05 -78.05 0.25 -81.85 L0.2 -82.3 0.25 -82.3 0.3 -82.25 M55.55 -39.1 Q51.55 -38.05 48.1 -39.6 L54.85 -40.2 57.35 -40.75 Q57.3 -39.5 55.55 -39.1" fill="#fefd9a" fill-rule="evenodd" stroke="none"/>
    <path d="M9.35 -49.5 Q12.85 -52.8 13.05 -57.65 12.4 -58.75 13.25 -58.85 13.75 -55.95 17.2 -57.35 20.9 -58.8 24.05 -61.15 L24.2 -61.35 24.25 -61.25 24.45 -61.45 24.35 -61.05 Q25.4 -59.15 27.55 -58.85 L27.75 -58.95 27.85 -58.95 27.85 -58.8 27.95 -58.8 27.95 -58.75 27.85 -58.7 Q27.7 -58.05 26.45 -57.5 L22.1 -55.75 Q26.05 -50.25 33.45 -49.75 L33.55 -49.75 33.7 -49.75 33.75 -49.65 33.85 -49.5 33.85 -49.45 Q29.1 -49.1 27.55 -45.15 27.4 -44.75 27.65 -44.45 L28.3 -44.35 28.3 -44.3 27.85 -44.3 27.9 -44.05 27.4 -44.3 22.6 -44.85 23.0 -38.35 23.5 -37.75 23.45 -37.7 23.0 -38.1 23.0 -37.9 22.95 -37.85 22.9 -38.25 17.35 -43.95 16.35 -38.65 Q15.55 -34.75 15.55 -30.85 L16.05 -30.45 16.05 -30.35 15.55 -30.65 15.55 -30.45 15.45 -30.7 Q12.3 -32.75 9.8 -35.4 9.4 -33.75 8.45 -32.05 L5.3 -26.9 5.15 -26.7 4.9 -25.85 4.85 -25.85 5.0 -26.65 4.8 -26.75 5.1 -27.2 Q6.15 -34.1 5.1 -41.1 -0.85 -42.6 -6.15 -46.5 -7.25 -47.3 -7.75 -48.2 L-8.4 -48.65 -8.3 -48.65 Q-5.3 -47.15 -2.05 -47.1 -4.75 -48.85 -6.25 -52.35 -7.85 -56.05 -10.2 -59.3 L-10.6 -60.15 -11.05 -60.25 -10.6 -60.35 -10.55 -60.4 -7.55 -61.5 -7.55 -61.65 -7.5 -61.55 -7.4 -61.6 -7.3 -61.6 -7.35 -61.2 Q-3.75 -52.9 5.45 -50.35 L9.35 -49.5 M-0.9 -37.4 Q-1.15 -36.45 -2.35 -35.5 -4.95 -33.5 -7.85 -32.65 -8.3 -32.3 -8.85 -32.4 -6.35 -34.65 -10.0 -35.4 -11.15 -35.65 -11.25 -36.05 L-11.25 -36.3 -9.95 -36.15 Q-5.15 -36.65 -0.4 -38.1 -0.45 -37.7 -0.9 -37.4" fill="#ffffff" fill-rule="evenodd" stroke="none"/>
  </g>
</svg>
