<?xml version="1.0" encoding="UTF-8" standalone="no"?>
<svg xmlns:ffdec="https://www.free-decompiler.com/flash" xmlns:xlink="http://www.w3.org/1999/xlink" ffdec:objectType="shape" height="167.95px" width="113.5px" xmlns="http://www.w3.org/2000/svg">
  <g transform="matrix(1.0, 0.0, 0.0, 1.0, 43.1, 102.05)">
    <path d="M5.95 -13.8 Q5.8 -8.0 6.6 -2.35 L8.6 -4.85 Q12.95 -9.55 18.45 -12.5 L19.3 -12.45 Q18.75 -10.25 17.6 -7.95 L17.55 -7.85 Q22.3 -9.15 26.0 -12.35 26.55 -10.1 24.8 -7.4 22.05 -3.1 23.7 2.1 L23.85 2.75 24.2 2.5 Q32.8 -3.85 42.35 1.7 L44.75 1.85 47.4 1.8 Q44.2 5.45 39.55 5.9 40.3 6.55 40.85 8.1 43.3 15.35 47.2 21.7 45.6 21.4 43.95 19.2 42.35 17.15 39.95 16.3 36.35 15.05 34.9 17.9 43.95 22.2 41.95 30.85 42.0 31.9 41.65 32.9 49.65 39.75 44.9 49.4 L44.5 49.65 44.1 49.4 44.05 49.3 44.25 48.85 Q43.8 47.45 42.85 45.85 41.8 44.05 40.4 45.85 34.35 53.45 39.55 61.5 L39.3 61.85 39.05 61.95 38.3 60.95 Q36.6 59.95 34.65 58.25 28.75 52.95 24.5 58.85 20.95 63.7 15.1 64.5 L14.65 64.7 Q14.25 64.7 14.1 64.35 L14.05 64.25 13.85 63.75 13.85 63.65 14.65 63.5 Q16.75 60.55 12.15 59.0 7.25 57.3 10.25 53.2 12.1 50.65 14.35 48.35 17.3 45.25 13.4 43.3 L11.9 42.45 Q11.05 46.1 8.8 49.4 3.65 57.0 5.3 65.55 L5.0 65.85 4.8 65.9 Q-0.9 57.9 -1.35 47.85 -6.4 51.35 -6.85 57.6 -6.9 58.55 -6.45 59.5 L-4.8 62.8 Q-5.25 63.3 -6.0 63.3 -12.2 60.95 -13.55 53.9 -13.85 52.45 -15.0 51.55 -16.35 50.45 -17.85 49.65 -22.3 52.8 -24.75 57.65 -25.9 56.3 -25.1 54.0 -24.65 52.5 -25.3 51.1 -27.3 46.9 -28.65 42.55 -29.75 39.15 -29.3 35.6 -34.75 37.35 -39.75 40.8 -40.15 40.9 -40.4 40.55 L-40.45 40.45 Q-35.5 35.4 -34.5 27.85 -34.25 26.3 -33.5 24.85 -31.8 21.7 -29.4 19.65 -35.55 19.45 -41.85 20.65 -42.65 20.9 -43.05 20.3 L-43.1 20.2 Q-30.4 13.45 -16.55 7.55 -23.45 2.85 -29.75 -2.55 L-29.75 -2.8 Q-25.55 -1.55 -20.85 -0.65 -18.0 -0.1 -15.3 0.9 -15.65 -0.3 -15.5 -1.8 -15.4 -3.5 -16.1 -5.05 -17.15 -7.35 -19.4 -7.7 L-19.5 -8.0 -19.45 -8.35 -19.4 -8.45 Q-11.15 -10.7 -5.1 -5.05 L-2.8 -2.25 Q-3.1 -4.65 -1.15 -7.3 1.1 -10.35 3.85 -12.95 4.85 -13.9 5.95 -13.8 M40.9 31.0 Q40.8 30.05 40.35 29.15 L40.3 29.1 Q39.55 30.4 40.65 31.7 L40.9 31.0" fill="#aa0909" fill-rule="evenodd" stroke="none"/>
    <path d="M3.1 -5.15 L3.15 -5.35 3.15 -5.15 3.35 -5.1 3.15 -4.8 Q3.35 1.9 6.65 8.0 L7.85 10.2 11.1 7.8 Q10.9 7.35 10.95 6.55 11.05 4.25 11.5 2.1 13.6 4.65 15.45 7.7 16.2 4.05 17.7 0.45 18.5 -1.4 20.0 -1.65 L20.05 -1.6 19.9 -1.5 Q18.8 3.55 20.4 8.5 24.65 3.45 31.35 2.2 35.5 1.45 39.35 2.75 40.0 2.95 40.2 3.45 L40.35 3.55 40.25 3.6 Q38.35 5.0 36.05 5.55 37.1 6.85 37.7 8.6 38.65 11.45 39.75 13.85 L40.25 14.05 39.8 14.0 39.9 14.15 39.85 14.15 39.75 14.0 Q35.4 13.65 31.7 16.45 L34.25 19.25 38.0 24.7 Q38.65 25.4 38.65 26.05 39.1 26.5 39.05 27.05 L38.4 26.45 38.4 26.5 38.35 26.4 Q35.3 23.85 30.75 24.65 31.35 28.05 32.65 31.1 38.25 33.0 41.5 37.85 42.0 38.6 41.9 39.25 L42.25 39.65 41.85 39.45 41.8 39.65 41.65 39.35 40.15 38.6 Q38.7 37.75 37.0 38.15 30.85 39.45 31.5 45.45 31.65 47.15 32.25 48.6 L32.75 49.05 32.35 48.85 32.45 49.1 32.4 49.15 32.15 48.75 Q30.1 47.8 27.65 47.4 22.55 46.6 20.7 51.15 20.1 52.5 20.2 54.0 20.25 55.8 19.1 56.85 L18.8 56.8 18.7 56.7 18.65 56.65 18.8 56.45 18.65 55.2 17.85 53.0 Q16.65 50.9 18.55 49.1 21.45 46.3 20.05 42.85 19.5 41.55 18.45 40.55 14.9 37.05 13.4 32.55 L13.15 31.5 6.05 41.7 Q3.5 45.3 3.35 49.45 L3.7 50.35 3.65 50.35 3.35 49.75 3.35 49.9 3.3 49.65 Q0.2 43.25 0.2 36.05 0.2 33.35 0.65 30.65 -6.2 35.35 -10.2 42.8 -12.35 46.75 -11.15 51.05 -10.95 51.8 -11.05 52.3 L-11.0 52.4 -11.1 52.5 Q-13.35 50.45 -12.9 47.1 -12.25 42.5 -16.2 40.5 L-18.05 39.65 -19.75 41.15 Q-20.65 42.0 -21.25 43.15 -22.1 44.8 -22.4 46.45 -22.3 47.2 -22.55 47.75 L-22.6 47.85 Q-24.0 40.45 -21.3 33.35 -20.6 31.55 -19.2 30.15 -16.3 27.3 -12.6 25.6 L-16.35 24.6 -19.3 24.35 Q-25.1 25.35 -28.75 29.85 L-28.55 29.0 -29.05 29.75 Q-28.9 28.45 -27.95 27.0 -23.7 20.5 -16.35 17.9 L-13.85 17.25 Q-18.7 16.2 -23.65 16.15 L-24.85 16.35 -25.0 16.25 Q-24.9 15.5 -23.35 15.0 -16.1 12.7 -8.55 13.95 -7.1 14.15 -6.05 14.85 L-5.8 13.7 -5.75 13.5 Q-9.35 9.2 -14.15 6.1 L-18.7 3.2 Q-12.7 5.25 -6.3 6.75 L-5.85 6.85 Q-6.6 3.85 -8.8 1.2 -9.65 0.25 -10.7 -0.3 L-9.7 0.0 -10.7 -0.5 Q-6.15 0.9 -3.1 5.0 -0.8 8.0 0.85 11.35 L0.85 10.95 0.65 3.6 Q0.5 -0.6 2.25 -4.35 2.6 -5.1 3.1 -5.15" fill="#fdc43e" fill-rule="evenodd" stroke="none"/>
    <path d="M28.1 21.95 Q28.8 26.55 30.0 31.1 L30.4 33.05 Q34.85 32.9 36.9 36.9 29.4 36.95 28.35 44.15 28.8 44.45 28.65 44.9 L28.6 45.0 Q24.85 43.85 21.6 46.5 21.9 44.95 21.75 42.85 21.5 40.05 18.55 37.4 15.65 34.75 12.95 27.35 5.6 33.4 3.1 41.0 1.9 33.5 3.35 26.1 -7.55 29.85 -12.0 40.7 -13.75 37.1 -17.45 37.05 -17.9 37.0 -18.35 37.3 L-20.4 38.6 Q-20.35 36.45 -18.65 34.15 -16.2 30.95 -12.65 28.85 -10.1 27.35 -7.4 26.2 -13.45 22.75 -20.75 22.85 L-20.9 22.8 Q-15.55 18.2 -8.15 18.3 -11.0 16.6 -14.4 15.75 -8.1 15.3 -2.05 17.1 -4.15 12.45 -8.15 8.85 -5.2 9.85 -2.5 11.25 L-4.35 6.9 Q-2.0 8.4 -0.55 11.4 1.15 14.95 1.95 18.55 3.1 19.05 3.95 19.75 2.55 14.05 2.7 8.0 2.6 6.9 2.8 5.7 L2.85 5.5 2.9 4.85 3.0 4.7 3.05 4.95 3.15 4.8 4.65 9.9 Q5.3 12.65 6.3 15.2 10.15 13.6 12.5 10.25 L13.1 8.75 Q15.1 10.7 15.75 13.85 15.6 10.5 17.35 7.6 17.45 7.4 17.7 7.4 L18.5 13.75 18.5 14.35 Q22.7 9.55 28.2 6.1 31.2 4.25 34.3 4.65 33.25 5.5 31.8 6.1 L35.1 12.25 Q30.7 13.45 27.1 16.4 30.2 18.0 32.0 21.5 L28.1 21.95 M9.65 23.5 L9.55 23.5 9.7 23.6 9.65 23.5" fill="#fefd9a" fill-rule="evenodd" stroke="none"/>
    <path d="M24.45 12.25 L25.05 12.05 24.55 12.3 Q26.35 12.95 27.35 14.75 L27.8 14.75 27.4 14.8 27.4 14.85 27.35 14.9 27.3 14.85 22.45 16.1 Q25.55 17.6 27.95 20.1 L28.5 20.65 28.45 20.65 Q26.65 19.95 24.75 19.55 25.4 20.6 25.7 22.1 L28.15 33.65 28.25 34.35 Q30.55 34.15 32.9 35.05 L33.45 35.55 33.85 35.8 Q31.65 35.7 30.0 37.6 L26.95 41.1 27.3 41.2 26.85 41.2 26.7 41.4 26.7 41.2 Q24.95 41.3 23.2 42.1 23.15 41.85 23.4 41.65 22.9 35.9 19.15 30.95 17.25 28.5 15.85 25.75 L14.45 22.5 13.9 23.0 13.35 24.45 13.8 22.1 6.2 30.8 Q5.25 31.9 4.65 33.1 L4.7 32.55 4.65 32.5 4.6 32.5 Q4.3 29.7 5.6 26.95 L7.35 23.5 Q2.35 24.25 -2.4 26.65 L-5.3 28.1 -5.35 28.15 -5.45 28.2 -5.45 28.15 -5.9 28.4 Q-5.9 27.95 -5.35 27.6 L-4.6 26.45 -3.75 25.45 Q-6.95 22.75 -11.3 22.15 L-12.95 21.7 -13.5 21.7 -13.15 21.65 Q-13.45 21.55 -13.7 21.4 L-12.6 21.55 Q-7.45 20.9 -2.3 21.7 -3.95 19.75 -6.3 18.5 L-6.9 18.6 -6.9 18.55 Q-2.95 17.55 0.2 19.75 3.15 19.8 5.75 21.25 4.4 17.55 4.75 13.55 L4.8 13.5 4.95 13.9 Q5.35 14.45 5.6 15.45 L5.9 16.7 7.85 15.85 Q10.45 14.85 13.5 12.15 L13.35 11.8 13.65 12.0 13.95 11.75 13.7 12.0 Q14.35 12.6 14.6 13.75 15.05 15.9 14.95 18.0 L15.15 17.85 16.05 16.25 16.8 14.0 16.8 13.95 16.9 13.7 16.85 14.0 Q17.35 14.5 17.35 15.55 L17.3 16.25 Q20.7 13.95 24.3 12.35 L24.05 12.2 24.05 12.15 24.45 12.25 M14.25 22.05 L14.25 22.0 14.2 22.1 14.25 22.05" fill="#ffffff" fill-rule="evenodd" stroke="none"/>
    <path d="M7.2 -101.95 L7.45 -102.05 Q16.0 -98.0 18.75 -89.0 21.45 -80.2 17.55 -71.7 16.05 -68.5 15.45 -65.0 25.15 -68.65 29.05 -78.2 L29.15 -78.45 30.3 -80.8 Q30.55 -79.25 29.65 -77.4 28.35 -70.9 32.05 -65.5 L33.05 -65.7 Q40.95 -67.45 44.6 -74.6 L46.55 -78.8 46.4 -78.9 46.5 -79.1 46.7 -79.2 Q51.85 -75.9 49.45 -70.2 47.85 -66.4 44.65 -63.65 40.75 -60.3 40.0 -55.9 L45.35 -56.0 48.3 -56.3 49.15 -56.75 49.6 -56.55 49.6 -56.5 49.55 -56.45 49.6 -56.4 49.65 -56.35 48.75 -56.0 Q47.1 -54.85 46.9 -52.85 L46.8 -49.95 Q46.85 -46.8 44.55 -44.45 43.2 -43.1 41.6 -42.15 38.35 -39.1 38.45 -34.2 38.45 -33.25 37.75 -32.55 36.1 -30.95 33.65 -31.45 L31.55 -32.0 Q32.4 -27.35 30.85 -22.65 30.35 -21.1 30.5 -19.5 30.9 -14.45 35.7 -14.05 37.4 -13.95 38.25 -15.45 38.8 -16.4 38.7 -17.4 39.35 -17.35 39.4 -16.85 40.15 -16.0 39.9 -14.45 39.25 -10.65 35.0 -11.3 28.4 -12.35 26.5 -18.65 24.2 -26.5 16.35 -28.7 12.3 -26.6 10.45 -22.25 9.35 -19.65 7.5 -17.5 5.75 -15.45 3.55 -14.9 L4.8 -16.1 Q6.75 -18.6 8.0 -21.4 0.4 -20.8 -5.7 -15.95 -10.45 -12.2 -10.45 -6.55 -10.45 -5.85 -9.8 -5.5 -5.9 -3.4 -2.45 -5.75 L-2.15 -6.0 -2.4 -5.55 Q-2.3 -3.4 -4.45 -1.55 -8.45 1.8 -13.0 -0.75 -15.05 -1.95 -15.15 -4.25 -15.3 -8.3 -12.1 -11.1 -7.55 -15.1 -4.5 -20.2 -3.35 -22.1 -3.0 -24.35 -2.45 -28.2 -2.85 -31.9 -7.4 -24.8 -16.0 -22.95 -21.9 -21.7 -27.75 -23.25 L-30.6 -23.1 Q-34.95 -21.45 -32.7 -17.4 -31.65 -15.45 -30.3 -13.85 -31.05 -13.85 -31.7 -14.4 -33.25 -14.2 -35.0 -14.85 -40.8 -16.95 -40.8 -23.05 -40.85 -29.25 -35.1 -31.6 L-33.7 -32.0 Q-27.9 -30.45 -22.75 -26.85 -21.25 -25.8 -19.4 -26.15 L-19.45 -26.25 Q-21.25 -31.05 -20.6 -36.3 -20.05 -41.0 -23.6 -44.25 -26.8 -47.15 -30.9 -46.55 -32.25 -46.35 -33.05 -45.2 L-34.4 -42.55 Q-34.85 -43.1 -34.6 -43.95 -35.15 -44.2 -35.2 -45.4 -35.3 -52.8 -28.0 -54.8 -21.7 -54.55 -20.35 -48.5 -19.7 -45.4 -18.55 -42.4 -16.65 -37.25 -10.95 -37.15 -13.6 -42.15 -13.45 -48.2 -13.4 -49.9 -13.7 -51.55 -15.15 -59.85 -21.85 -64.95 -26.8 -68.75 -29.25 -74.35 -29.7 -75.4 -29.8 -76.5 -30.3 -81.45 -25.8 -82.85 -23.75 -82.8 -22.35 -81.9 L-21.8 -81.45 -20.85 -80.3 -20.9 -80.3 -22.7 -81.35 Q-23.65 -81.25 -24.55 -80.75 -25.05 -80.5 -25.2 -79.9 -26.0 -76.55 -22.3 -77.25 -19.15 -77.85 -19.9 -80.9 -20.8 -84.55 -22.85 -87.85 -23.7 -89.25 -23.3 -90.95 -21.75 -96.95 -15.65 -99.05 L-13.25 -99.55 -12.5 -99.6 -12.3 -99.7 Q-11.35 -99.9 -11.15 -99.3 L-10.65 -98.95 -10.65 -98.9 -11.75 -99.0 Q-16.75 -97.95 -17.65 -92.6 -19.25 -83.45 -14.45 -75.45 -10.5 -68.8 -3.05 -70.35 -1.45 -70.7 -0.4 -71.95 3.25 -76.4 2.6 -82.25 1.85 -89.05 6.1 -94.0 L7.3 -95.15 7.4 -95.15 9.4 -95.4 7.15 -94.2 Q4.35 -91.05 6.7 -86.95 8.9 -83.1 7.6 -78.9 6.05 -74.05 2.4 -70.3 -2.9 -64.8 -0.8 -57.75 -0.4 -56.5 0.6 -55.7 5.15 -52.2 10.4 -53.05 L8.65 -55.4 Q4.4 -61.3 6.7 -68.25 8.45 -73.6 10.8 -78.75 14.05 -85.85 12.05 -93.5 11.3 -96.3 9.65 -98.6 L6.75 -101.75 6.7 -101.95 6.8 -102.05 6.9 -102.05 7.2 -101.9 7.2 -101.95 M41.35 -87.45 Q45.55 -87.55 45.7 -83.5 45.8 -81.7 44.9 -80.1 44.55 -79.45 44.0 -79.15 L44.5 -80.0 Q44.3 -80.65 44.25 -81.6 44.1 -84.1 41.65 -85.0 39.45 -85.85 37.25 -85.55 37.35 -85.75 37.6 -85.75 38.9 -87.15 40.95 -87.4 L41.35 -87.45 M60.35 -68.85 Q67.8 -66.5 64.95 -60.05 64.05 -58.0 61.75 -57.6 57.15 -56.85 53.35 -57.45 L53.65 -57.7 52.75 -57.8 58.6 -60.45 Q63.85 -62.7 61.1 -66.8 L59.6 -68.6 Q59.25 -68.95 59.85 -69.0 L60.2 -68.85 60.35 -68.85 M60.65 -51.6 L60.75 -51.75 60.85 -51.8 61.15 -52.1 62.0 -52.35 Q68.45 -52.35 70.1 -46.2 70.95 -43.15 69.35 -40.3 66.05 -34.5 59.4 -36.7 57.15 -37.45 55.35 -38.95 50.55 -42.95 45.1 -40.7 L44.1 -40.5 44.05 -40.5 44.0 -40.55 Q47.5 -45.45 53.6 -43.25 60.15 -40.9 64.3 -46.05 64.75 -46.6 64.6 -47.35 64.1 -50.7 60.65 -51.55 L60.65 -51.6 M20.45 -94.85 L20.05 -94.3 Q19.35 -93.25 18.4 -93.05 19.1 -96.8 23.2 -98.85 24.7 -99.6 26.25 -99.75 35.45 -100.2 34.85 -91.5 34.5 -85.75 30.3 -82.65 L29.5 -82.3 30.8 -89.25 Q31.85 -94.95 26.2 -95.95 22.95 -96.5 20.45 -94.85 M37.35 -28.55 Q45.75 -28.85 49.6 -21.75 52.4 -16.65 49.9 -11.95 L49.25 -11.4 Q46.0 -10.1 43.6 -11.6 L43.25 -11.65 Q42.7 -11.8 42.5 -12.25 L42.75 -12.25 Q44.2 -12.25 45.65 -13.05 46.15 -13.3 46.3 -13.85 47.8 -18.8 44.15 -23.0 41.75 -25.75 38.35 -27.1 L36.95 -27.7 35.65 -27.95 35.8 -28.15 37.35 -28.55 M17.2 -25.25 Q22.95 -18.4 20.2 -9.9 19.35 -7.3 16.75 -6.5 13.1 -5.35 10.0 -6.5 L9.4 -6.6 Q7.3 -7.05 6.65 -8.45 10.15 -6.45 13.65 -8.2 14.15 -8.45 14.4 -9.0 15.95 -12.25 13.55 -15.4 12.95 -16.25 12.95 -17.3 13.05 -21.0 15.45 -23.9 L17.25 -25.85 17.5 -25.7 17.55 -25.65 17.2 -25.25 M2.2 -14.05 L2.35 -14.2 2.5 -14.25 2.8 -13.75 2.9 -13.6 2.9 -13.55 2.9 -13.5 Q3.8 -11.2 1.5 -9.05 -2.2 -5.55 -6.85 -5.55 -8.35 -5.3 -9.7 -6.15 -7.4 -5.8 -5.35 -7.2 -3.8 -8.25 -2.8 -9.9 -1.6 -11.95 0.55 -13.0 L2.3 -13.7 2.2 -14.05" fill="#aa0909" fill-rule="evenodd" stroke="none"/>
    <path d="M41.15 -86.5 L41.15 -86.6 41.2 -86.7 41.4 -86.85 41.6 -86.85 Q44.65 -86.75 45.05 -84.25 L45.05 -84.2 Q42.95 -85.2 41.15 -86.5 M43.5 -65.2 Q39.6 -59.9 33.75 -56.55 L30.5 -54.75 36.2 -53.85 41.8 -54.1 43.2 -54.4 43.25 -54.5 43.3 -54.4 44.45 -54.4 43.45 -53.95 Q44.45 -50.25 41.0 -47.25 39.9 -46.3 39.4 -44.9 38.55 -42.55 38.7 -40.35 L38.45 -40.45 38.4 -40.3 Q32.65 -39.7 28.2 -36.05 L28.8 -30.75 Q28.9 -30.05 29.3 -29.45 30.55 -27.45 29.15 -25.4 27.5 -23.0 28.75 -20.2 29.55 -18.45 30.5 -16.85 29.2 -17.7 28.55 -19.15 27.2 -20.8 26.3 -23.05 24.9 -26.6 22.05 -29.15 20.1 -30.9 17.65 -31.95 12.1 -28.85 8.3 -23.75 L8.3 -24.1 Q2.7 -22.9 -2.25 -19.75 L-2.4 -19.75 -1.6 -20.45 Q-0.3 -27.5 -2.75 -34.55 -6.65 -31.0 -10.85 -27.8 -13.45 -25.8 -16.2 -26.35 L-16.2 -26.4 -15.85 -26.45 Q-17.1 -27.45 -17.6 -29.45 -18.6 -33.35 -18.7 -37.1 -19.15 -38.2 -18.9 -39.25 L-18.65 -39.25 -18.65 -39.75 -18.6 -39.25 -18.45 -39.15 -18.4 -39.1 Q-18.6 -36.0 -15.25 -34.95 L-11.6 -34.75 -4.8 -36.3 Q-10.7 -41.3 -11.15 -49.65 -11.45 -56.25 -14.5 -61.9 -15.4 -63.65 -17.05 -64.75 -23.45 -68.9 -26.5 -75.6 -26.9 -76.55 -26.4 -77.1 L-25.7 -75.3 Q-24.45 -73.5 -21.7 -73.7 -19.75 -73.9 -19.2 -75.6 L-18.4 -77.2 -18.4 -77.4 -18.35 -77.25 -18.25 -77.45 -18.0 -77.3 -18.0 -77.25 -18.2 -76.2 Q-17.7 -73.75 -16.0 -71.55 -14.3 -69.45 -12.0 -68.05 -8.95 -66.2 -5.35 -67.15 L-2.95 -67.7 -2.55 -68.05 -2.55 -67.8 -2.05 -67.95 -1.95 -67.9 -2.65 -67.5 Q-2.9 -66.85 -3.75 -65.9 -8.7 -60.3 -5.7 -53.55 -5.1 -52.15 -3.75 -51.35 5.4 -45.65 16.3 -48.2 L18.4 -48.6 Q16.4 -49.6 14.75 -51.5 6.5 -60.75 11.45 -71.75 15.55 -80.75 14.35 -90.35 L13.75 -94.3 13.8 -94.3 Q15.1 -90.95 15.35 -87.55 16.2 -80.55 14.05 -73.35 11.9 -66.1 14.25 -59.5 23.55 -63.35 27.9 -72.15 L27.7 -70.4 27.55 -68.25 Q27.45 -64.6 28.85 -61.45 38.55 -63.45 44.65 -71.65 L46.05 -73.25 45.85 -72.1 Q46.0 -68.5 43.5 -65.2 M58.8 -59.35 L59.05 -59.45 58.95 -59.45 59.25 -59.55 Q62.2 -61.05 63.25 -64.05 63.45 -64.65 63.15 -65.25 L61.9 -67.4 61.95 -67.4 62.6 -66.8 62.0 -67.45 62.05 -67.45 Q65.1 -65.4 63.85 -62.2 63.5 -61.4 62.8 -60.9 61.0 -59.65 59.25 -59.4 L59.65 -59.5 59.3 -59.45 58.7 -59.3 58.8 -59.35 M32.75 -88.9 Q34.0 -95.15 27.6 -96.7 L24.1 -97.2 24.15 -97.3 24.9 -98.05 25.05 -98.15 26.25 -98.4 26.65 -98.45 Q33.7 -98.15 33.85 -91.4 33.85 -89.7 32.75 -88.9 M4.95 -87.7 L5.1 -87.9 5.15 -87.8 5.25 -87.95 5.25 -87.6 Q7.65 -81.65 4.4 -76.2 L4.2 -76.1 4.15 -75.95 4.05 -76.2 Q3.7 -77.3 4.1 -78.95 4.7 -81.2 4.25 -83.5 3.75 -85.8 5.0 -87.6 L4.95 -87.7 M17.05 -22.0 Q21.7 -17.15 18.35 -11.25 17.8 -10.25 16.95 -10.15 L15.9 -9.45 15.9 -9.55 Q18.15 -13.55 15.65 -18.0 14.6 -19.85 15.95 -21.45 L16.65 -22.05 16.65 -22.25 16.75 -22.3 16.85 -22.2 17.1 -22.3 17.05 -22.0 M0.5 -10.25 Q-0.55 -8.8 -2.0 -8.4 -1.35 -11.3 1.45 -12.4 1.35 -11.4 0.5 -10.25 M66.95 -48.25 L66.95 -48.3 66.95 -48.25 M66.35 -49.25 Q66.25 -49.55 66.55 -49.65 L66.65 -49.45 Q69.4 -45.75 67.25 -41.75 66.9 -41.05 66.15 -40.8 62.45 -39.3 58.5 -40.3 57.85 -40.45 57.4 -40.75 L56.7 -41.2 55.15 -41.55 56.45 -41.4 56.6 -41.4 Q59.1 -41.25 61.6 -42.1 66.05 -43.55 66.5 -47.85 L66.35 -49.25 M41.4 -27.45 Q46.1 -26.25 47.5 -21.55 47.75 -20.8 47.5 -20.0 47.4 -19.65 47.0 -19.9 45.35 -24.3 41.2 -26.8 41.0 -26.9 40.95 -27.15 L41.2 -27.45 41.4 -27.45 M-19.4 -93.55 Q-20.4 -89.85 -19.7 -86.25 -21.35 -88.0 -21.4 -91.05 -21.45 -94.25 -19.1 -96.05 -19.0 -95.05 -19.4 -93.55 M-28.0 -52.75 Q-21.55 -52.2 -21.5 -45.95 L-21.55 -45.9 -23.55 -48.35 Q-25.0 -49.9 -27.0 -50.45 -29.35 -51.1 -31.5 -49.9 L-32.35 -49.95 Q-31.8 -51.75 -29.65 -52.35 L-28.0 -52.75 M-35.6 -28.4 Q-31.2 -27.75 -26.95 -26.55 L-24.6 -26.15 -24.4 -25.95 -24.4 -25.9 -24.45 -25.6 -24.1 -25.25 -34.25 -26.1 Q-37.45 -26.15 -38.3 -23.05 -38.4 -22.65 -38.85 -22.65 -39.7 -24.0 -39.0 -25.65 -38.15 -27.85 -35.8 -28.35 L-35.6 -28.4 M-12.25 -8.7 Q-12.2 -4.05 -7.3 -3.75 L-7.25 -3.7 Q-7.9 -0.65 -11.35 -2.2 -14.0 -3.35 -13.4 -6.3 -13.15 -7.7 -12.25 -8.7" fill="#fdc43e" fill-rule="evenodd" stroke="none"/>
    <path d="M42.7 -66.5 Q42.5 -65.5 41.5 -64.55 36.0 -59.5 29.65 -55.55 L25.85 -53.35 37.15 -52.0 41.1 -52.2 41.2 -52.2 41.25 -52.25 41.25 -52.15 41.35 -52.05 41.25 -52.0 Q41.15 -50.3 39.3 -49.05 37.55 -47.8 36.75 -45.8 36.1 -44.1 36.05 -42.4 L36.05 -42.5 Q36.0 -42.2 34.9 -42.0 30.2 -41.15 25.85 -39.25 26.0 -36.65 26.5 -33.95 L27.3 -30.25 Q27.75 -28.6 27.15 -26.9 26.95 -26.3 27.05 -25.65 27.1 -24.95 27.3 -24.45 L27.0 -24.65 26.95 -24.5 Q24.55 -29.25 20.4 -33.25 L18.1 -35.3 13.0 -31.55 Q9.95 -29.05 7.6 -26.3 7.4 -25.8 6.15 -25.6 4.45 -25.35 2.9 -24.5 L0.4 -23.4 0.35 -23.3 0.25 -23.25 0.3 -23.4 0.1 -23.35 0.3 -23.5 Q1.5 -29.4 -0.9 -34.4 -3.4 -39.55 -5.05 -41.95 -6.7 -44.35 -7.4 -46.05 -9.65 -51.45 -9.75 -57.35 -9.8 -59.5 -10.95 -61.3 -13.45 -65.05 -17.2 -67.5 L-17.35 -67.65 Q-20.75 -69.55 -23.0 -72.9 L-22.95 -72.9 -23.1 -73.0 -18.6 -73.2 -18.6 -73.3 Q-15.3 -66.6 -7.55 -66.2 L-6.05 -66.05 -5.85 -66.25 -5.9 -66.0 -5.55 -65.95 -5.5 -65.85 -6.0 -65.8 -6.7 -64.5 Q-9.3 -60.55 -8.9 -56.3 L-8.75 -55.05 -8.4 -53.55 Q-8.0 -52.2 -7.0 -51.15 -1.75 -45.6 6.1 -44.9 13.8 -44.2 20.4 -47.95 L22.05 -48.9 Q20.6 -49.5 19.25 -50.4 L19.05 -50.35 19.2 -50.4 17.15 -51.9 Q12.1 -55.95 10.85 -62.05 10.1 -65.7 11.1 -68.95 11.3 -69.95 11.65 -70.75 L11.6 -70.25 11.95 -71.05 11.4 -68.25 Q11.3 -66.1 11.55 -63.85 11.75 -62.35 12.35 -61.0 L13.7 -58.5 Q20.85 -60.45 25.75 -66.1 L25.8 -66.4 25.85 -66.2 25.95 -66.35 25.85 -65.85 Q26.2 -62.35 28.55 -59.65 34.85 -61.3 40.3 -65.15 L42.6 -66.85 42.7 -67.05 42.7 -66.95 43.0 -67.25 42.7 -66.5 M31.75 -95.95 Q31.0 -96.0 30.05 -96.6 28.7 -97.5 27.35 -97.65 L27.35 -97.7 27.4 -97.85 27.6 -97.95 27.6 -98.0 Q30.0 -97.6 31.75 -95.95 M5.1 -79.6 L5.05 -79.55 Q4.8 -80.45 4.9 -81.8 L4.85 -84.75 Q4.8 -85.4 5.25 -85.7 6.2 -82.55 5.1 -79.6 M17.0 -20.65 L17.0 -20.55 Q19.45 -17.9 18.65 -14.0 L18.6 -13.95 18.55 -14.25 18.35 -13.05 Q18.3 -14.95 17.2 -16.75 16.3 -18.2 16.55 -19.75 L16.9 -20.5 16.65 -20.75 16.75 -20.8 16.95 -20.6 17.0 -20.65 M66.6 -43.1 Q65.85 -41.75 64.2 -41.3 L60.85 -41.2 Q65.35 -41.9 67.05 -45.85 67.45 -44.55 66.6 -43.1 M-30.45 -51.55 L-29.4 -51.9 Q-29.15 -51.95 -29.0 -52.05 -25.2 -52.5 -23.25 -49.95 -22.85 -49.45 -22.85 -48.9 L-25.05 -50.25 Q-27.65 -51.7 -30.65 -51.2 L-30.45 -51.55 M-17.55 -34.75 L-17.45 -34.65 Q-13.9 -32.45 -9.3 -33.9 L-6.65 -34.5 Q-5.7 -34.7 -5.0 -35.15 L-5.0 -35.0 -4.85 -35.25 Q-4.9 -34.2 -6.0 -33.0 -9.9 -28.85 -15.35 -27.9 -15.45 -27.85 -15.55 -28.0 -17.5 -31.0 -17.45 -34.55 L-17.55 -34.75 M-29.15 -26.5 L-29.15 -26.45 -36.5 -26.25 Q-38.05 -25.8 -38.35 -24.35 -39.05 -25.2 -38.3 -26.3 -37.35 -27.65 -35.6 -27.75 -32.25 -27.55 -29.15 -26.5 M-0.65 -9.7 Q-0.95 -9.65 -1.1 -9.85 -0.5 -10.8 0.5 -11.35 0.7 -10.75 -0.3 -10.15 L-0.65 -9.7 M-8.45 -3.5 L-8.45 -3.45 Q-9.4 -1.75 -11.2 -3.25 -12.8 -4.55 -12.45 -6.35 -11.45 -3.8 -8.45 -3.5" fill="#fefd9a" fill-rule="evenodd" stroke="none"/>
    <path d="M17.05 -57.05 Q20.9 -58.55 24.1 -61.3 L24.2 -61.95 24.25 -61.45 24.35 -61.55 24.3 -61.2 Q24.7 -58.75 26.4 -56.95 L26.4 -57.0 26.5 -57.05 26.5 -56.85 26.55 -56.8 26.8 -56.3 26.3 -56.35 25.1 -55.3 22.2 -53.5 21.65 -53.25 21.7 -53.2 21.7 -53.15 21.55 -53.25 21.15 -53.35 21.3 -53.4 Q18.95 -55.0 17.0 -57.0 L16.95 -57.0 17.0 -57.0 16.95 -57.05 17.05 -57.05 M26.5 -50.95 L34.6 -49.25 35.1 -49.5 35.25 -49.1 35.35 -49.1 35.35 -49.05 35.25 -49.05 34.3 -48.3 Q33.25 -47.7 32.55 -46.75 31.95 -45.9 32.0 -45.0 L31.7 -45.4 Q27.15 -44.65 23.4 -42.35 24.9 -37.65 24.5 -32.6 L24.95 -31.85 24.95 -31.75 24.45 -32.05 24.4 -31.75 Q24.4 -31.55 24.2 -31.7 L24.25 -32.2 23.15 -33.4 Q21.0 -36.3 18.35 -38.6 L17.1 -37.9 Q12.0 -36.35 7.85 -33.05 4.8 -30.65 2.4 -27.9 L2.45 -28.0 2.35 -27.85 Q3.9 -31.4 3.55 -35.25 3.45 -36.7 2.6 -37.85 0.1 -41.1 -3.05 -43.8 -4.15 -44.7 -3.8 -45.65 L-2.8 -44.5 -0.85 -43.2 Q2.65 -40.6 6.95 -39.95 14.15 -38.85 20.2 -43.0 L22.05 -44.35 Q25.15 -47.1 27.05 -50.7 L26.35 -50.95 26.5 -50.95 M-8.2 -64.4 L-8.5 -64.4 -9.65 -61.4 -9.7 -61.4 -9.75 -61.8 Q-11.35 -63.6 -12.6 -65.7 L-12.8 -65.85 -12.7 -65.85 -12.6 -65.8 -12.6 -65.85 -12.55 -65.8 -8.5 -64.55 -8.45 -64.65 -8.45 -64.55 -8.2 -64.45 -8.2 -64.4 M-14.1 -32.55 L-13.75 -32.25 -8.15 -33.0 Q-8.15 -32.65 -8.5 -32.4 -8.65 -31.6 -9.95 -30.85 -11.55 -29.95 -12.8 -30.3 L-12.75 -29.8 -12.75 -29.75 -14.0 -32.05 -14.6 -32.2 -14.05 -32.2 -14.15 -32.55 -14.1 -32.55" fill="#ffffff" fill-rule="evenodd" stroke="none"/>
  </g>
</svg>
