<?xml version="1.0" encoding="UTF-8" standalone="no"?>
<svg xmlns:ffdec="https://www.free-decompiler.com/flash" xmlns:xlink="http://www.w3.org/1999/xlink" ffdec:objectType="shape" height="175.8px" width="119.95px" xmlns="http://www.w3.org/2000/svg">
  <g transform="matrix(1.0, 0.0, 0.0, 1.0, 45.6, 107.4)">
    <path d="M7.5 -11.95 Q6.45 -11.95 5.55 -11.15 3.3 -9.2 4.75 -6.55 L5.95 -4.25 6.15 -3.8 Q8.7 -9.05 14.65 -11.7 17.85 -13.1 21.1 -13.05 20.6 -12.65 19.7 -12.4 18.7 -11.4 18.55 -9.85 18.4 -8.3 17.35 -7.5 L19.65 -7.6 Q21.3 -7.75 22.7 -8.75 24.85 -10.3 25.9 -12.45 L25.95 -12.75 26.05 -12.85 26.7 -11.95 Q27.25 -10.85 27.2 -10.15 27.1 -6.3 24.05 -3.65 21.95 -1.85 22.5 0.6 22.75 1.8 23.5 2.6 26.8 -1.3 32.3 -1.2 33.55 -1.2 34.6 -0.45 36.6 0.9 38.75 2.0 42.75 3.95 46.2 1.35 47.6 0.3 46.85 -1.25 L46.75 -1.75 Q47.45 -1.65 47.55 -0.85 48.0 -0.45 47.95 0.6 47.85 2.55 46.65 4.1 44.45 7.05 40.7 7.25 L38.95 7.15 Q39.7 7.7 40.3 8.45 43.5 12.35 44.8 17.35 45.25 19.2 46.45 20.7 48.15 22.85 50.75 23.7 L50.7 23.85 50.5 23.95 50.4 23.9 50.25 24.1 Q45.2 23.05 42.6 18.35 L41.5 17.0 Q37.25 13.4 33.25 17.1 L32.9 17.4 33.5 17.6 Q38.4 19.7 39.55 25.1 40.2 28.3 39.55 31.6 39.0 34.2 41.25 35.85 44.05 37.95 46.35 40.45 47.3 41.5 47.3 42.9 47.25 47.6 43.95 50.85 L43.75 50.7 43.7 50.7 44.15 50.1 Q45.7 46.65 42.1 45.1 L40.9 45.2 Q38.1 47.0 37.45 50.35 36.2 56.55 39.0 62.25 L40.15 65.3 40.1 65.3 39.6 64.55 Q38.8 64.35 38.05 63.25 34.5 57.8 28.4 60.35 25.05 61.75 22.35 64.1 18.55 67.45 13.55 67.75 L13.4 67.75 12.8 67.8 Q12.55 67.85 12.45 67.65 L12.45 67.6 13.95 67.15 Q15.15 66.4 15.3 64.75 15.5 63.15 13.85 62.35 10.95 60.85 10.4 57.85 10.05 56.15 11.25 54.85 L14.7 50.5 Q15.85 48.9 14.9 47.2 14.1 45.75 12.75 45.15 12.9 45.95 12.15 47.3 9.9 51.2 7.8 55.15 4.1 62.25 9.05 67.95 L9.05 68.05 8.8 68.3 8.55 68.4 Q-0.95 67.3 -2.2 57.5 -2.7 53.7 -1.25 50.1 L-0.45 48.85 Q-5.3 48.85 -8.0 53.2 -9.2 55.15 -9.25 57.45 -9.45 62.3 -5.05 64.35 L-3.2 64.5 Q-2.55 64.3 -2.2 64.7 L-2.55 64.95 Q-3.05 65.8 -4.15 65.95 L-6.95 66.3 Q-11.75 67.05 -13.6 62.95 -14.7 60.5 -13.65 58.0 -12.3 54.85 -13.1 51.8 -13.25 51.25 -13.7 50.9 -15.7 49.4 -18.3 49.3 L-18.25 49.45 Q-23.8 52.0 -24.2 58.15 L-24.35 60.15 -24.2 60.45 -24.35 60.6 -24.4 60.6 -24.4 60.95 -24.55 60.55 Q-27.05 58.65 -26.55 55.15 -26.3 53.5 -27.1 52.0 -28.15 49.95 -30.0 48.45 -31.55 47.2 -31.5 45.2 -31.5 39.95 -28.75 35.6 L-30.65 35.65 -32.35 35.75 Q-36.9 36.6 -39.4 40.15 L-39.7 41.0 -39.95 41.25 -40.15 41.15 -40.2 41.1 -39.95 40.05 Q-40.05 39.1 -39.0 38.1 -36.25 35.5 -34.6 32.25 -34.25 31.5 -34.35 30.7 -34.7 27.85 -34.2 25.1 -33.9 23.55 -32.95 22.15 -32.1 20.9 -30.95 20.3 -35.8 18.4 -41.2 20.0 L-43.15 20.45 Q-42.6 19.75 -41.6 19.4 -37.05 13.65 -29.9 11.0 L-25.2 9.4 Q-20.9 8.1 -16.65 8.1 -22.15 4.55 -26.2 -0.65 -28.35 -3.45 -31.55 -5.0 -32.15 -5.3 -32.1 -5.8 L-30.5 -5.1 -28.95 -4.2 Q-22.2 0.85 -14.0 1.45 -15.25 0.05 -14.5 -2.2 -14.15 -3.2 -14.3 -4.25 -14.9 -8.9 -19.75 -8.7 -20.55 -8.7 -21.1 -8.1 -21.35 -7.85 -21.5 -8.2 L-21.1 -8.6 -21.15 -8.65 Q-17.65 -11.75 -12.5 -10.55 -6.8 -9.25 -3.95 -4.25 L-3.85 -4.05 Q-4.25 -8.35 0.2 -11.1 1.75 -12.05 3.5 -12.7 6.05 -13.7 7.4 -12.0 L7.5 -11.95" fill="#aa0909" fill-rule="evenodd" stroke="none"/>
    <path d="M12.4 -2.85 Q12.8 0.6 14.6 3.5 13.5 -1.8 19.2 -4.75 L21.5 -5.8 21.7 -5.85 21.55 -5.75 21.5 -5.7 Q21.85 -2.6 19.3 0.1 18.8 0.65 18.7 1.45 18.55 4.55 19.5 7.15 20.2 6.05 21.55 5.45 29.9 1.75 37.95 4.95 L39.3 5.5 39.45 5.65 35.7 5.75 Q37.35 7.0 38.65 8.85 40.3 11.1 41.15 13.35 L41.55 14.3 Q37.95 10.85 33.55 14.2 31.15 16.0 29.3 18.35 30.65 17.8 32.2 19.15 37.8 24.35 36.0 31.15 L36.2 31.95 36.0 32.2 35.85 31.7 Q35.0 28.55 32.6 27.05 L32.55 27.05 32.55 27.15 Q31.1 33.6 37.4 36.15 40.25 37.35 42.65 39.15 43.95 40.1 43.8 41.25 L44.0 41.7 43.75 41.55 43.65 41.85 43.5 41.4 Q39.7 39.45 36.3 43.1 31.8 48.05 33.75 54.25 34.4 55.35 34.3 56.3 L34.25 56.65 34.15 56.9 33.25 54.8 Q31.85 52.7 29.35 51.55 28.05 51.0 26.95 51.85 23.6 54.45 22.2 58.7 21.0 62.45 17.3 63.6 L17.3 63.4 Q16.9 62.95 18.0 61.9 19.35 60.65 18.9 58.85 18.5 57.1 17.1 55.8 15.8 54.55 16.5 52.8 17.85 49.65 20.3 47.1 24.45 42.8 20.8 38.65 19.9 37.6 18.5 37.05 15.7 35.9 12.85 35.65 12.2 41.55 7.95 46.2 5.3 49.05 4.55 52.8 L3.3 58.65 3.2 59.2 3.15 59.4 3.15 59.25 Q-1.65 54.3 0.8 47.45 1.85 44.4 3.45 41.8 -2.35 42.35 -6.9 46.5 -9.65 48.95 -9.9 52.6 -9.95 53.1 -10.35 53.3 L-10.4 52.15 Q-10.9 48.8 -13.5 46.0 -17.1 42.0 -21.75 44.7 L-22.45 45.45 Q-24.2 48.6 -24.95 51.8 L-24.85 49.9 Q-24.95 48.05 -24.65 45.95 -24.25 43.05 -25.4 40.3 -27.5 35.2 -23.55 31.05 -19.9 27.25 -14.65 26.2 L-14.35 26.15 -14.65 26.1 Q-22.9 24.9 -29.6 30.7 L-32.9 33.65 -32.95 33.75 -32.95 33.7 -33.7 34.45 Q-33.55 33.35 -32.55 32.25 L-31.2 29.45 -27.1 22.0 Q-25.2 18.25 -21.4 16.8 -27.9 15.55 -34.7 16.8 L-34.9 16.9 -34.9 16.85 -35.4 16.95 -35.5 16.85 -34.9 16.65 Q-34.75 15.8 -33.0 15.35 -22.9 12.8 -12.35 13.75 L-7.1 14.55 Q-11.05 8.65 -16.85 4.4 L-16.9 4.35 -16.45 4.55 -16.85 4.25 -17.05 4.15 -17.05 4.05 -9.65 7.0 -6.85 8.05 Q-9.65 5.55 -8.6 1.2 -7.45 -3.65 -11.4 -6.55 L-10.25 -5.9 Q-7.6 -4.65 -5.55 -1.9 -3.5 0.85 -2.6 4.15 -2.55 -2.05 1.7 -7.2 L2.45 -8.05 2.55 -8.15 2.85 -8.2 2.95 -8.1 2.45 -7.5 Q0.75 -4.15 4.0 -1.95 L8.4 1.65 9.5 3.05 Q9.6 0.85 10.85 -1.4 11.45 -2.6 12.4 -2.85 M-25.5 53.5 L-25.5 53.45 Q-24.2 54.45 -24.45 56.95 -24.55 57.75 -24.95 58.15 -25.85 56.05 -25.5 53.5" fill="#fdc43e" fill-rule="evenodd" stroke="none"/>
    <path d="M1.2 -3.15 L1.2 -3.25 1.25 -3.15 1.4 -3.2 1.3 -3.0 Q2.3 -0.65 4.25 1.3 L6.7 3.5 Q9.05 5.4 10.4 8.0 L10.85 3.5 Q11.05 2.4 11.65 1.9 L11.65 1.85 11.65 1.75 11.7 1.85 11.8 1.8 11.85 1.85 11.8 1.95 12.75 3.45 Q13.85 5.55 15.45 7.25 L15.65 3.1 Q16.1 -1.45 19.7 -4.05 L19.7 -4.3 19.8 -4.1 19.85 -4.05 19.8 -4.05 Q20.25 -2.7 18.95 -1.4 18.35 -0.85 18.05 -0.1 16.2 4.45 18.55 8.9 22.4 6.45 26.95 5.55 L33.8 5.8 34.1 5.95 34.35 6.1 34.2 6.1 32.05 6.35 Q33.85 6.85 35.45 8.25 L38.3 10.8 Q38.8 11.2 38.7 11.5 L38.9 11.65 38.65 11.6 38.65 11.65 38.55 11.55 33.75 11.8 Q28.25 13.5 26.45 18.75 27.9 18.75 29.45 19.3 33.2 20.65 34.35 24.45 L35.25 27.5 35.1 27.85 35.05 27.8 35.05 27.85 Q32.7 25.2 29.65 23.9 L29.5 24.8 Q28.8 28.3 29.45 31.8 29.95 34.45 31.45 36.65 33.5 39.7 37.25 39.05 L39.2 38.9 37.8 39.4 34.3 40.9 Q29.55 43.25 29.85 48.2 29.9 49.6 30.9 50.3 L30.8 50.3 30.2 49.9 Q28.3 48.9 26.0 49.85 21.75 51.55 21.3 56.1 L20.85 58.0 20.75 58.05 Q20.5 57.65 20.35 56.85 L19.6 54.0 Q19.3 53.05 19.95 52.3 L24.9 46.0 Q25.8 44.85 25.95 43.4 26.75 36.75 20.5 34.05 15.55 31.95 10.15 31.4 10.75 36.15 8.55 40.6 7.1 43.6 5.15 46.35 3.3 49.0 2.7 51.95 L2.75 52.8 2.55 53.3 2.5 53.15 2.5 53.5 2.45 52.3 Q2.35 49.95 3.2 47.6 4.3 44.8 4.95 41.85 L5.4 39.25 0.15 39.45 Q-4.8 39.95 -8.05 43.75 L-10.3 46.45 -10.45 46.7 -10.45 46.65 -10.5 46.7 -10.5 46.55 Q-10.7 44.65 -11.85 42.9 -13.4 40.5 -16.35 40.05 -19.15 39.65 -21.35 41.2 L-21.45 42.0 -21.45 41.3 -20.9 36.4 Q-20.5 34.35 -19.45 32.55 -17.6 29.3 -13.8 28.6 -10.5 27.95 -8.15 25.65 -7.05 24.5 -7.1 22.95 L-16.75 23.4 -20.95 24.1 Q-25.4 25.0 -28.75 27.75 L-28.7 27.5 -28.8 27.65 Q-28.65 26.7 -27.65 25.75 -23.35 21.55 -17.8 19.25 -14.1 17.7 -10.35 17.85 L-12.8 16.85 Q-18.1 14.95 -23.7 15.1 L-25.05 14.95 -25.05 14.9 -24.75 14.85 Q-16.1 13.3 -7.45 15.65 L-4.05 16.7 Q-6.4 12.05 -10.25 8.3 L-10.55 8.15 -10.45 8.2 -10.4 8.15 -10.25 8.25 Q-6.0 9.75 -2.55 12.6 L-2.5 12.45 Q-2.85 11.3 -3.65 10.4 -5.9 7.6 -6.75 4.25 -7.25 2.4 -6.65 0.8 L-6.9 0.5 Q-5.5 1.35 -4.45 3.0 -1.75 7.35 -2.25 12.15 L-2.1 12.6 Q-0.7 10.55 -0.45 8.0 L-0.5 2.45 Q-0.45 0.2 0.3 -1.9 0.55 -2.8 1.2 -3.15" fill="#fefd9a" fill-rule="evenodd" stroke="none"/>
    <path d="M33.15 9.85 Q28.25 10.65 24.4 14.15 21.85 16.45 19.8 19.1 L21.5 19.15 Q24.85 19.35 27.2 21.25 L27.15 21.25 26.2 20.8 Q26.75 21.1 27.3 21.5 L25.9 20.95 Q25.3 26.0 26.6 30.9 27.2 33.15 28.55 35.05 L30.95 38.75 31.4 38.95 31.05 38.95 31.15 39.15 31.1 39.15 30.9 38.95 Q29.3 38.95 27.8 39.7 L27.7 40.1 27.65 40.15 27.55 39.8 27.4 39.9 27.5 39.5 Q26.15 34.0 21.5 30.45 19.5 28.9 17.1 28.1 12.95 26.7 8.6 26.6 8.85 31.4 8.0 36.15 7.75 37.5 7.05 38.55 L7.0 39.05 6.85 39.25 6.85 38.9 6.85 38.85 6.9 38.2 7.0 35.25 Q-0.3 34.8 -7.0 38.2 -8.15 38.75 -9.15 39.45 L-9.2 39.55 -9.2 39.45 -9.65 39.8 Q-9.75 39.35 -9.1 38.95 -9.0 37.45 -9.8 36.0 -10.3 35.05 -11.35 34.9 L-15.95 35.05 -16.6 35.25 -16.65 35.2 -15.9 34.85 Q-15.75 34.2 -14.8 33.7 -11.15 31.6 -7.05 30.4 -5.45 29.95 -4.25 28.85 -0.85 25.7 0.55 21.45 L-1.85 20.9 -1.95 21.95 -2.0 20.9 -6.65 20.65 -14.75 20.95 -14.9 21.0 -14.9 20.95 -15.5 20.95 -14.9 20.85 Q-14.8 20.45 -13.95 20.1 L-7.65 18.3 Q-8.85 17.35 -10.45 16.8 L-10.8 16.7 -11.2 16.6 -11.2 16.55 -11.1 16.55 Q-7.0 16.55 -3.0 17.45 L-2.55 17.4 Q-3.25 15.0 -4.75 12.85 L-4.8 12.75 -4.35 13.05 Q-2.15 14.25 -0.4 15.95 0.5 14.45 0.85 12.7 L1.6 7.95 Q1.8 6.5 2.45 5.35 L2.4 5.3 2.5 5.3 2.6 5.15 2.65 5.15 2.6 5.35 Q3.35 5.55 4.25 6.15 L7.45 8.85 Q9.35 10.7 10.5 12.95 L11.9 9.55 Q12.2 8.6 12.7 8.1 L12.7 7.95 12.85 7.75 12.9 7.95 12.95 7.95 12.9 8.0 14.2 13.15 Q17.5 11.1 21.15 9.75 23.75 8.75 26.25 8.75 L27.65 8.7 27.4 8.75 27.65 8.8 27.2 8.8 Q24.85 9.65 22.6 10.8 24.8 10.1 27.1 9.55 L33.2 9.85 33.15 9.85" fill="#ffffff" fill-rule="evenodd" stroke="none"/>
    <path d="M7.45 -107.35 L7.55 -107.4 7.65 -107.4 7.75 -107.4 Q20.55 -100.5 20.65 -85.8 20.75 -78.3 17.9 -71.35 16.05 -66.75 15.55 -61.95 22.0 -64.85 27.5 -69.85 L27.5 -69.95 27.65 -70.0 28.1 -69.65 28.15 -69.55 27.9 -69.25 Q29.05 -65.5 30.45 -61.7 36.6 -65.5 40.65 -71.75 42.3 -74.3 42.55 -77.3 L43.0 -82.75 43.25 -82.05 43.75 -82.25 Q51.9 -81.9 52.55 -74.5 52.7 -73.05 51.65 -71.95 47.1 -67.15 41.6 -63.3 34.55 -58.3 35.4 -50.95 39.1 -51.0 42.9 -52.1 L42.9 -52.3 43.15 -52.5 43.2 -52.2 43.4 -52.25 43.85 -51.9 43.9 -51.8 43.3 -51.45 Q43.55 -47.85 39.05 -46.2 34.4 -44.5 34.35 -39.55 34.35 -38.35 33.3 -37.75 30.65 -36.2 27.4 -36.35 30.7 -33.7 27.15 -29.6 26.15 -28.4 24.55 -28.75 L17.15 -29.75 Q10.8 -30.3 7.45 -24.7 6.6 -23.3 4.95 -22.75 2.65 -21.95 0.65 -22.8 L1.05 -22.85 Q2.75 -32.95 -4.4 -39.95 -2.7 -33.0 -9.25 -28.25 -12.75 -25.65 -16.55 -26.15 -16.75 -26.2 -16.55 -26.6 L-16.45 -26.6 -16.65 -26.85 Q-13.55 -30.15 -16.65 -33.2 -18.7 -35.15 -18.3 -37.85 -15.15 -36.0 -11.25 -35.95 -9.4 -35.9 -8.5 -37.1 -9.3 -37.85 -9.75 -39.45 -11.35 -45.15 -8.3 -50.65 -5.1 -56.45 -9.5 -60.95 -12.1 -63.6 -15.8 -64.4 -22.65 -65.8 -27.3 -70.75 -31.25 -74.95 -28.6 -80.0 -26.25 -84.55 -21.25 -85.25 -15.6 -84.65 -16.75 -78.85 -17.35 -75.95 -19.75 -74.95 L-18.9 -77.55 Q-19.2 -80.4 -22.75 -78.5 -23.5 -78.1 -23.55 -77.15 -24.0 -71.5 -17.85 -72.5 -15.45 -72.85 -13.95 -74.9 -9.95 -80.4 -15.95 -84.3 -17.65 -85.45 -19.15 -86.75 -24.45 -91.3 -19.15 -96.25 -16.35 -98.85 -12.6 -99.25 -9.15 -99.2 -7.55 -96.95 L-6.9 -95.9 -6.65 -95.15 -6.65 -95.05 -8.5 -96.3 Q-10.8 -97.0 -13.35 -95.85 -14.6 -95.3 -14.0 -93.95 -12.75 -91.2 -9.95 -89.55 -4.75 -86.5 -8.0 -81.5 -10.15 -78.2 -10.3 -74.5 -10.35 -73.1 -9.0 -72.7 -3.0 -70.9 -0.7 -76.4 0.15 -78.55 -0.75 -80.8 -3.9 -88.65 0.75 -95.4 2.6 -98.05 5.65 -99.1 L8.15 -99.6 8.75 -99.75 Q9.2 -99.8 9.35 -99.4 L9.85 -98.95 9.9 -98.9 8.0 -98.7 Q5.7 -97.5 4.25 -95.2 3.4 -93.8 4.55 -92.6 L8.2 -87.8 Q11.1 -83.05 7.15 -79.1 2.7 -74.6 -1.35 -69.7 -8.4 -61.15 -0.75 -53.6 2.9 -50.0 7.45 -49.2 3.3 -53.6 4.15 -60.3 5.05 -67.9 9.85 -74.1 17.95 -84.55 13.3 -96.9 11.15 -102.55 7.15 -106.95 L7.45 -107.35 M44.85 -84.15 L44.4 -84.6 Q40.8 -85.5 37.25 -83.75 36.6 -83.4 36.05 -83.35 L36.5 -83.75 Q37.2 -85.95 39.7 -86.55 L40.75 -86.75 Q43.85 -86.95 44.85 -84.2 L44.85 -84.15 M59.2 -59.6 Q63.3 -61.1 65.9 -64.8 67.1 -66.5 65.35 -67.85 63.95 -68.9 62.1 -68.9 L62.05 -68.9 60.85 -68.65 Q61.15 -71.3 65.35 -70.85 72.0 -69.2 68.4 -63.5 66.95 -61.25 64.55 -59.9 60.7 -57.8 57.85 -59.5 L59.2 -59.6 M64.85 -54.0 Q75.05 -53.1 74.3 -43.55 74.1 -40.95 72.35 -39.05 65.85 -31.75 58.55 -38.6 L55.55 -40.9 53.75 -41.5 48.45 -41.8 Q48.3 -41.75 48.3 -41.95 51.85 -44.35 56.6 -41.95 63.15 -38.7 67.75 -43.55 68.65 -44.5 68.65 -45.9 68.7 -51.05 63.4 -52.3 62.4 -52.5 62.0 -53.25 L62.05 -53.4 Q62.15 -53.75 62.5 -53.75 L62.75 -53.7 63.6 -53.9 64.85 -54.0 M32.25 -92.8 Q33.0 -96.05 30.1 -98.05 24.55 -101.95 20.4 -96.8 19.9 -96.15 19.3 -96.65 L19.6 -97.55 Q20.7 -102.9 27.15 -103.5 35.5 -102.0 34.1 -93.75 L33.45 -91.6 Q33.3 -90.35 32.7 -89.2 31.7 -90.35 32.25 -92.8 M29.2 -28.45 Q33.1 -25.25 30.3 -20.3 29.5 -18.8 30.4 -17.3 32.7 -13.5 35.6 -17.05 37.55 -19.45 34.85 -21.2 33.75 -21.9 33.45 -22.9 34.8 -22.8 35.7 -22.25 38.5 -22.0 40.05 -18.75 42.15 -14.4 37.55 -12.4 31.6 -9.75 27.0 -14.35 22.45 -18.95 27.25 -23.3 29.5 -25.35 28.75 -27.7 L28.7 -27.75 Q27.85 -28.25 28.35 -28.65 L28.0 -29.2 28.25 -29.4 28.5 -29.5 29.2 -28.45 M16.55 -22.05 Q16.7 -22.35 17.0 -22.35 23.55 -17.55 22.05 -9.7 21.7 -7.75 20.2 -6.4 14.2 -0.85 7.75 -6.05 L7.45 -6.45 6.65 -6.9 Q5.95 -7.3 6.45 -7.9 11.25 -4.5 15.2 -8.55 17.5 -10.8 15.65 -13.4 12.2 -18.3 16.65 -21.6 L16.5 -21.7 16.55 -22.05 M1.5 -12.65 L1.95 -12.3 2.0 -12.2 1.5 -12.1 Q0.45 -5.1 -6.95 -5.65 -10.4 -5.9 -9.75 -9.15 -9.4 -10.65 -8.5 -10.9 -8.0 -11.55 -7.2 -11.15 -9.3 -7.1 -5.5 -8.3 -5.1 -8.4 -4.9 -8.95 -3.65 -12.25 0.1 -12.65 L1.1 -12.8 1.1 -12.9 1.5 -12.65 M38.05 -10.65 L38.25 -10.75 38.5 -10.3 Q42.95 -8.85 46.15 -12.8 49.35 -16.8 46.35 -21.05 L44.7 -23.35 Q43.65 -23.9 43.25 -24.65 43.1 -24.95 43.4 -25.0 L42.4 -26.15 42.6 -26.15 45.05 -24.5 Q53.0 -21.5 51.75 -12.7 50.75 -6.05 44.2 -6.05 39.35 -6.05 38.25 -9.65 L37.7 -9.95 Q37.2 -10.2 37.45 -10.75 L38.1 -10.45 38.05 -10.65 M-29.4 -53.05 Q-35.45 -54.2 -35.25 -49.35 L-35.3 -48.6 -35.35 -48.5 -35.45 -48.35 -34.9 -48.0 Q-37.55 -47.4 -38.3 -50.85 -39.9 -58.5 -31.9 -60.1 -21.4 -60.35 -19.85 -50.9 -19.45 -48.4 -19.65 -45.9 -19.9 -42.95 -18.35 -40.85 L-18.4 -40.85 -17.4 -40.55 Q-21.9 -39.65 -24.5 -43.85 -26.65 -47.25 -27.4 -51.2 -27.7 -52.7 -29.4 -53.05 M-45.25 -27.3 Q-43.6 -33.85 -36.9 -35.0 -30.15 -35.05 -27.2 -28.7 -26.65 -27.55 -25.4 -27.1 L-23.55 -26.35 -23.45 -26.3 -22.25 -25.7 -23.85 -25.5 Q-28.25 -22.1 -33.5 -25.75 L-35.2 -25.85 Q-38.95 -24.05 -35.9 -21.4 -33.45 -19.3 -30.5 -19.55 L-30.8 -19.35 -30.55 -19.05 Q-35.3 -13.75 -41.8 -18.05 -46.8 -21.35 -45.25 -27.3 M-5.95 -16.15 L-8.75 -12.85 -8.75 -12.8 -9.05 -12.5 -9.9 -11.6 Q-12.55 -8.5 -11.45 -4.8 -11.15 -3.65 -9.95 -3.15 -7.65 -2.15 -5.65 -3.5 -4.5 -4.3 -3.5 -4.15 L-3.8 -3.7 Q-3.0 -2.5 -5.4 -0.7 -11.55 3.9 -17.6 0.15 -19.15 -0.8 -18.8 -2.65 -17.6 -8.65 -11.7 -11.75 -10.0 -12.65 -8.7 -14.15 L-6.4 -16.5 -6.0 -16.25 -5.95 -16.15" fill="#aa0909" fill-rule="evenodd" stroke="none"/>
    <path d="M40.95 -86.15 Q41.65 -86.2 41.9 -85.6 L41.9 -85.55 39.95 -85.4 Q39.95 -86.1 40.75 -86.15 L40.95 -86.15 M48.3 -79.3 Q51.3 -79.15 50.85 -76.0 50.3 -71.9 47.0 -69.2 42.4 -65.4 36.9 -62.85 L35.55 -62.25 Q30.4 -58.85 29.05 -52.95 28.85 -52.15 28.95 -51.35 L28.95 -51.3 Q30.95 -48.55 34.65 -48.85 L37.5 -48.9 37.6 -48.85 34.35 -46.45 33.25 -45.25 Q30.7 -41.45 25.75 -42.2 L23.45 -42.7 Q25.65 -39.35 26.1 -35.35 26.3 -33.1 24.05 -32.75 21.3 -32.3 19.1 -33.6 16.95 -34.15 14.95 -35.15 13.15 -34.35 11.6 -33.1 L8.9 -31.35 Q6.75 -30.25 5.05 -27.95 4.1 -26.65 3.0 -26.55 L3.25 -26.8 3.05 -26.65 Q3.5 -30.5 2.05 -34.25 -0.05 -39.55 -4.6 -42.8 -6.9 -44.45 -5.5 -47.1 -4.4 -49.25 -4.5 -51.35 1.45 -44.15 11.2 -46.25 12.8 -46.6 14.25 -47.1 L12.5 -49.0 11.95 -49.7 Q11.35 -50.1 10.85 -50.8 8.1 -54.7 8.3 -59.45 8.45 -64.25 10.75 -68.5 14.75 -75.85 17.05 -83.85 17.5 -85.3 17.5 -86.9 17.55 -91.9 15.65 -96.2 L15.55 -96.4 15.65 -96.6 15.8 -96.65 Q20.05 -88.55 16.65 -79.75 13.45 -71.5 12.85 -62.6 12.55 -59.2 14.0 -56.2 20.8 -58.35 25.6 -64.0 L25.75 -64.1 Q25.95 -63.5 25.45 -62.8 L24.95 -61.6 Q24.15 -59.75 26.2 -59.7 28.6 -59.65 30.9 -60.55 L33.55 -61.55 35.6 -63.05 37.0 -63.85 Q40.05 -66.5 42.65 -70.6 44.4 -73.4 45.1 -76.65 L45.2 -76.95 Q44.95 -77.5 45.7 -78.25 46.75 -79.3 48.3 -79.3 M62.95 -69.65 L63.0 -69.7 62.9 -69.7 63.05 -69.9 63.3 -70.0 63.5 -70.1 Q66.6 -70.45 67.95 -68.1 68.4 -67.2 68.25 -66.2 68.1 -64.95 67.15 -64.35 L67.25 -64.45 67.1 -64.4 Q68.0 -65.75 67.1 -67.15 65.65 -69.4 62.95 -69.6 L62.95 -69.65 M68.65 -51.75 L68.5 -51.85 68.6 -51.85 Q72.95 -50.25 72.35 -45.9 72.25 -44.9 71.75 -44.0 69.9 -40.4 66.3 -39.45 L65.1 -39.1 Q64.35 -38.9 63.8 -39.1 L64.1 -39.15 64.1 -39.2 64.75 -39.3 Q68.3 -40.2 70.3 -43.5 71.4 -45.35 71.0 -47.55 70.55 -50.1 68.5 -51.65 L68.65 -51.75 M2.05 -94.05 L2.05 -94.0 1.9 -93.8 Q2.05 -91.1 4.45 -89.3 7.0 -87.3 7.3 -84.3 7.4 -83.35 6.9 -82.55 5.2 -79.8 2.85 -77.8 L2.8 -77.6 2.55 -77.55 2.45 -77.65 2.5 -77.8 Q1.15 -79.4 0.5 -81.65 -0.15 -83.75 -0.3 -86.0 -0.7 -90.6 1.75 -94.15 L1.85 -94.15 1.9 -94.2 1.9 -94.15 2.05 -94.05 M17.95 -17.9 Q21.8 -12.8 17.7 -7.6 16.75 -6.35 15.65 -6.65 L14.45 -6.6 14.45 -6.65 15.2 -6.85 15.15 -6.85 Q17.0 -7.65 18.0 -9.05 18.55 -10.25 18.25 -12.0 18.0 -13.6 17.35 -15.15 16.55 -16.95 17.95 -18.05 L17.95 -17.9 M28.4 -22.15 L28.7 -18.25 Q28.8 -17.75 29.05 -17.2 30.45 -14.75 33.35 -14.6 30.8 -13.25 28.55 -15.3 27.5 -16.3 27.4 -17.8 27.3 -20.2 28.4 -22.15 M47.9 -21.15 Q51.45 -18.25 50.15 -13.8 49.7 -12.1 48.05 -11.3 L46.55 -10.8 Q46.6 -11.95 47.8 -12.65 L48.25 -13.1 Q50.55 -17.0 48.05 -20.8 L47.8 -20.85 47.75 -20.95 47.75 -21.05 47.9 -21.15 M-15.9 -96.25 L-15.85 -96.2 Q-16.9 -93.05 -14.0 -90.7 -11.05 -88.3 -13.05 -85.45 L-13.2 -84.9 -13.3 -85.25 -13.35 -85.25 -13.3 -85.3 Q-13.9 -86.8 -15.5 -87.9 -17.85 -89.55 -18.5 -92.2 -19.15 -94.95 -16.7 -96.35 L-16.75 -96.15 -16.35 -96.35 -15.9 -96.25 M-24.8 -81.65 Q-23.9 -82.3 -22.8 -82.45 L-22.4 -82.5 Q-21.05 -82.65 -20.05 -82.0 L-20.4 -82.05 -19.95 -81.8 Q-23.6 -81.9 -25.0 -78.5 -26.6 -74.7 -23.35 -72.05 -21.9 -70.9 -20.05 -70.75 L-17.0 -70.5 Q-14.65 -70.85 -13.05 -72.8 -11.3 -68.45 -6.55 -68.7 -5.7 -68.75 -5.05 -69.3 -4.45 -69.9 -3.85 -69.6 -6.55 -67.95 -6.8 -64.75 L-6.8 -61.8 -9.9 -64.2 -12.7 -66.4 -12.65 -66.3 -14.7 -67.45 Q-15.95 -68.15 -17.4 -68.2 -23.0 -68.3 -26.35 -72.4 -27.75 -74.1 -27.7 -76.3 -27.7 -79.75 -24.8 -81.65 M-35.05 -56.15 Q-33.8 -57.8 -31.7 -58.0 -25.0 -58.55 -23.55 -52.35 -23.05 -50.35 -22.25 -48.7 -25.3 -49.75 -26.2 -53.5 -26.65 -55.25 -28.55 -55.75 -32.45 -56.75 -35.6 -54.8 L-35.05 -56.15 M-42.2 -28.75 Q-40.55 -31.25 -37.5 -31.8 -33.2 -31.2 -29.9 -28.7 L-29.85 -28.6 -35.95 -28.95 -37.4 -28.8 Q-40.6 -27.3 -41.6 -23.9 -44.05 -25.9 -42.2 -28.75 M-14.55 -35.0 Q-10.55 -32.65 -7.25 -36.2 L-6.25 -37.15 Q-6.05 -33.6 -9.05 -30.9 -10.85 -29.2 -13.1 -29.5 -10.9 -32.25 -14.35 -34.35 -14.75 -34.6 -14.55 -35.0 M-16.45 -1.95 Q-16.95 -2.55 -16.75 -3.4 -16.2 -6.15 -14.25 -8.15 -14.45 -6.8 -14.25 -5.1 -14.05 -3.55 -12.65 -2.8 L-11.45 -1.85 Q-14.15 0.8 -16.45 -1.95 M-0.15 -11.05 Q-0.9 -6.95 -5.15 -7.3 L-5.15 -7.35 Q-3.65 -7.8 -2.9 -9.15 -2.1 -10.6 -0.5 -11.15 L-0.2 -11.1 -0.15 -11.05" fill="#fdc43e" fill-rule="evenodd" stroke="none"/>
    <path d="M46.6 -76.85 Q46.9 -77.2 47.35 -77.35 L48.1 -77.55 Q50.2 -77.35 49.35 -75.25 47.75 -71.25 44.15 -68.5 L42.85 -67.45 Q42.25 -66.9 41.65 -66.95 L41.25 -66.6 41.6 -66.95 41.5 -67.0 41.75 -67.1 Q45.4 -71.5 46.9 -76.9 L46.6 -76.85 M3.6 -81.05 L2.65 -80.0 Q1.8 -80.8 1.55 -82.25 0.85 -86.05 1.55 -89.75 1.65 -90.35 2.0 -90.75 2.5 -89.1 4.05 -87.95 6.05 -86.55 5.45 -84.05 5.0 -82.25 3.6 -81.05 M11.5 -65.95 Q11.3 -63.25 11.4 -60.35 11.45 -58.75 12.1 -57.25 12.75 -55.75 13.55 -54.4 18.55 -55.9 22.75 -59.25 L23.1 -59.6 23.1 -59.55 23.15 -59.6 23.05 -59.3 Q22.9 -58.7 23.45 -58.3 24.05 -57.8 24.85 -57.95 L29.3 -58.9 29.4 -59.0 29.4 -58.95 29.7 -59.05 29.4 -58.8 Q29.2 -58.15 28.4 -57.45 27.2 -56.35 26.85 -54.8 25.65 -49.7 30.5 -47.85 L31.8 -47.2 32.1 -47.2 32.0 -47.05 32.15 -47.0 31.95 -47.0 Q29.3 -43.6 24.25 -44.65 21.9 -45.15 19.75 -46.05 22.7 -42.5 23.25 -37.85 23.45 -36.0 23.2 -34.2 23.2 -33.95 22.75 -33.95 19.35 -34.15 16.2 -35.9 L14.2 -36.85 Q11.25 -35.55 8.75 -33.3 6.6 -31.35 4.0 -31.7 L3.8 -32.05 3.5 -34.6 Q1.5 -37.95 -1.0 -41.1 L-1.15 -41.2 -3.1 -43.05 Q-4.35 -44.6 -4.05 -46.4 L-3.4 -47.35 Q-2.0 -48.15 -0.95 -47.05 0.2 -45.95 1.6 -45.3 5.6 -43.5 10.05 -44.6 13.1 -45.35 16.05 -46.55 L14.75 -47.85 Q11.9 -51.05 10.75 -55.15 8.9 -61.45 11.5 -67.55 L12.15 -68.45 11.5 -65.95 M18.05 -16.3 Q19.45 -14.7 19.25 -12.45 L19.25 -12.4 19.15 -12.55 19.2 -12.2 19.15 -12.2 Q18.2 -14.05 18.0 -16.1 L17.8 -16.5 17.85 -16.5 17.95 -16.4 18.0 -16.4 18.05 -16.3 M70.95 -44.2 L70.9 -44.25 Q71.85 -46.75 71.25 -49.3 L71.3 -49.3 Q72.5 -46.65 70.95 -44.2 M-17.0 -94.95 Q-16.9 -93.0 -15.8 -91.4 L-14.3 -89.7 Q-13.4 -88.8 -13.65 -87.65 L-13.8 -88.1 -16.75 -91.55 Q-17.4 -92.3 -17.5 -93.25 -17.65 -94.3 -17.15 -95.05 L-17.1 -94.7 -17.0 -94.95 M-22.95 -71.0 L-22.9 -70.95 -22.9 -71.05 Q-21.25 -70.05 -19.35 -69.6 -17.15 -69.35 -14.8 -70.35 -13.85 -70.75 -13.45 -71.45 L-13.4 -71.55 -13.35 -71.55 Q-13.1 -71.35 -13.2 -71.05 -11.7 -67.45 -7.55 -67.65 L-7.5 -67.85 -7.4 -67.9 -7.3 -67.7 -7.2 -67.7 -7.3 -67.65 Q-7.15 -67.2 -7.4 -66.4 L-7.75 -64.15 -7.65 -64.05 -7.75 -64.1 -7.75 -63.95 -7.8 -64.15 Q-9.5 -65.05 -10.95 -66.7 -13.0 -69.1 -16.3 -69.05 L-17.8 -69.1 Q-19.9 -69.3 -21.8 -70.1 L-22.05 -70.2 -22.9 -70.9 -22.95 -70.95 -22.95 -71.0 M-31.4 -57.7 Q-27.1 -58.15 -25.45 -54.75 -24.55 -53.0 -24.0 -51.2 -25.6 -52.65 -26.35 -55.0 -26.85 -56.4 -28.45 -56.8 L-33.25 -56.95 -32.8 -57.4 -31.5 -57.7 -31.4 -57.7 M-41.65 -28.2 Q-40.6 -30.3 -38.3 -30.75 -35.75 -30.8 -33.7 -29.35 L-33.7 -29.3 Q-36.25 -29.7 -38.6 -28.6 -40.65 -27.7 -41.65 -25.7 -42.35 -26.8 -41.65 -28.2 M-12.3 -33.45 L-12.35 -33.55 Q-9.3 -33.05 -7.35 -35.25 L-7.35 -34.95 -7.3 -35.05 Q-7.25 -33.7 -8.4 -32.35 -9.6 -30.9 -11.1 -30.65 L-11.35 -30.4 -11.3 -30.6 -11.8 -30.6 -11.25 -30.85 -11.4 -32.65 Q-11.6 -33.35 -12.3 -33.45 M-1.95 -8.6 Q-2.45 -8.25 -2.8 -8.6 -2.1 -9.75 -0.9 -10.45 -0.75 -9.5 -1.95 -8.6 M-12.9 -2.3 L-12.85 -2.3 Q-14.5 -0.9 -15.5 -2.6 L-15.6 -3.3 Q-15.5 -4.6 -15.05 -5.65 -14.8 -3.55 -12.9 -2.3" fill="#fefd9a" fill-rule="evenodd" stroke="none"/>
    <path d="M47.65 -76.3 L47.65 -76.1 47.7 -76.1 Q48.9 -73.85 46.55 -72.55 L46.3 -72.25 46.2 -72.25 46.25 -72.4 46.2 -72.4 46.3 -72.45 47.6 -76.25 47.65 -76.3 M2.7 -86.25 Q2.7 -86.5 2.95 -86.55 4.55 -85.35 3.1 -83.3 L3.1 -83.25 Q2.6 -84.45 2.7 -86.25 M15.75 -52.1 L19.7 -55.05 Q20.45 -55.55 21.3 -55.8 22.8 -54.55 24.8 -55.85 L26.05 -56.35 Q26.0 -55.8 25.1 -55.3 L24.5 -54.45 Q23.45 -53.15 23.3 -51.45 23.1 -49.55 24.45 -48.5 L24.8 -48.6 25.3 -48.3 Q19.85 -46.9 16.15 -50.7 L15.55 -51.7 15.35 -51.75 15.55 -51.9 15.6 -52.35 15.75 -52.1 M17.35 -43.7 L17.9 -43.95 17.4 -43.65 Q20.3 -40.9 18.85 -37.35 L18.95 -37.35 18.8 -37.3 18.7 -37.1 18.6 -37.15 18.65 -37.25 Q16.7 -36.85 14.85 -38.4 L13.45 -39.3 Q10.0 -36.7 5.9 -35.1 L5.85 -34.95 5.8 -35.05 Q5.25 -34.8 5.25 -35.3 L5.65 -35.45 4.95 -37.25 Q4.0 -40.1 1.6 -42.05 L0.0 -43.6 Q-1.1 -44.2 -1.0 -45.0 4.0 -40.7 10.95 -41.9 14.35 -42.45 17.3 -43.65 L17.0 -44.0 17.05 -44.0 17.35 -43.7 M-10.0 -31.85 L-10.15 -31.85 -10.2 -32.65 -10.15 -32.85 -8.85 -33.35 Q-8.55 -32.45 -10.0 -31.85" fill="#ffffff" fill-rule="evenodd" stroke="none"/>
  </g>
</svg>
