<?xml version="1.0" encoding="UTF-8" standalone="no"?>
<svg xmlns:ffdec="https://www.free-decompiler.com/flash" xmlns:xlink="http://www.w3.org/1999/xlink" ffdec:objectType="shape" height="184.25px" width="123.3px" xmlns="http://www.w3.org/2000/svg">
  <g transform="matrix(1.0, 0.0, 0.0, 1.0, 48.2, 110.0)">
    <path d="M5.65 -0.6 Q9.05 -1.75 10.45 -5.35 11.9 -9.25 15.0 -11.9 16.85 -13.5 19.3 -13.95 21.25 -14.3 22.5 -13.45 L22.55 -13.2 21.9 -13.3 Q18.1 -12.35 17.15 -8.3 16.5 -5.5 14.3 -3.9 21.8 -4.45 25.4 -11.15 26.1 -12.5 26.0 -14.05 25.8 -16.95 22.55 -16.1 22.65 -16.65 23.05 -16.8 24.8 -18.6 27.85 -17.65 31.2 -16.65 31.55 -13.25 31.85 -10.35 29.75 -8.2 26.8 -5.3 24.3 -1.95 21.25 2.05 21.9 6.45 24.8 0.85 31.65 -0.65 L37.85 -0.3 Q43.95 1.75 47.8 -2.8 48.3 -3.4 47.95 -4.1 L47.6 -4.65 47.5 -4.75 Q46.9 -5.7 45.95 -6.2 L46.0 -6.3 Q47.75 -5.75 48.25 -4.7 48.8 -4.45 49.15 -3.55 51.8 3.0 46.65 7.65 L45.8 8.2 Q44.45 8.8 42.95 8.8 40.0 8.8 37.95 7.65 L38.1 8.25 38.8 13.7 Q38.85 14.5 39.3 15.15 43.0 21.1 50.1 19.85 51.75 19.55 52.4 18.2 52.65 17.7 52.25 17.25 51.75 16.65 51.85 16.0 L52.75 16.8 Q53.5 17.1 53.6 18.4 53.7 21.95 50.6 23.75 49.2 24.6 47.55 24.65 41.3 24.35 36.45 20.3 34.95 19.0 32.95 18.65 L32.15 18.55 Q35.75 23.15 36.6 29.0 37.05 32.05 38.55 34.75 40.95 39.0 44.7 42.3 46.2 43.6 47.15 45.4 49.7 50.1 46.3 53.9 45.4 54.9 44.05 54.85 41.75 54.95 40.8 53.15 L40.75 53.05 40.7 52.95 40.7 52.9 40.8 52.8 41.3 52.85 41.35 52.9 Q43.4 52.85 43.4 50.45 43.35 47.55 40.25 48.25 38.5 48.65 37.9 50.45 36.75 54.1 38.45 57.55 40.25 61.15 41.05 64.95 41.45 66.75 40.6 68.3 38.9 71.5 35.95 73.3 L35.25 73.7 35.15 73.75 34.9 73.55 34.9 73.5 35.4 73.15 Q38.1 70.85 37.4 67.0 36.5 61.95 32.9 58.2 29.35 54.5 24.75 56.6 23.75 57.05 23.05 57.9 L16.6 66.35 Q14.3 69.35 10.8 70.3 L10.6 70.35 Q10.25 70.2 10.25 69.85 L10.25 69.8 11.35 69.45 Q14.95 66.65 15.75 62.2 L15.6 61.65 12.35 58.9 Q10.25 57.5 12.05 55.55 L16.6 51.2 Q18.6 49.55 18.6 47.0 18.65 42.65 14.4 41.05 L12.5 40.3 Q14.25 45.25 11.05 50.0 8.6 53.65 7.15 57.75 6.55 59.35 6.55 61.1 6.6 66.15 8.75 70.8 L10.35 74.05 10.25 74.2 10.1 74.25 10.0 74.15 Q2.35 71.85 -0.9 64.8 -3.7 58.7 -1.7 52.3 -0.6 48.85 1.55 46.05 -2.25 47.4 -5.55 50.05 -8.85 52.65 -9.95 56.65 -11.65 62.5 -7.75 67.15 -6.95 68.15 -5.65 68.2 -2.9 68.3 -0.55 67.2 L-0.5 67.25 -1.65 68.15 Q-2.3 69.65 -4.35 70.3 L-8.65 71.1 Q-13.05 71.4 -14.9 67.9 -15.5 66.7 -15.4 65.35 -15.15 62.55 -13.6 60.1 -9.9 54.15 -13.75 48.5 -14.6 47.25 -15.7 46.5 -20.75 47.5 -23.75 52.05 -25.45 54.55 -25.45 57.65 -25.45 61.0 -23.35 63.65 -23.2 63.85 -23.2 64.1 L-23.35 64.2 -23.45 64.25 -23.55 64.1 -23.65 64.25 Q-28.4 63.4 -27.9 58.85 -27.75 57.5 -27.9 56.1 -28.1 54.6 -29.5 53.85 -33.3 51.75 -33.45 47.6 -33.5 46.1 -32.7 44.75 -29.2 38.9 -23.65 34.75 L-23.9 34.8 -33.85 36.6 Q-36.75 37.2 -38.75 39.35 -39.45 40.1 -39.3 41.2 -39.1 42.3 -38.45 43.2 L-38.6 43.3 -38.7 43.35 -38.85 43.2 -38.95 43.3 -39.05 43.35 Q-43.45 41.65 -42.6 37.35 -42.4 36.35 -41.7 35.5 -40.05 33.55 -37.4 33.65 L-31.4 33.25 -31.05 32.85 Q-30.45 30.5 -30.9 28.1 -31.2 26.2 -30.2 24.45 -29.2 22.7 -27.7 21.5 -29.25 20.8 -31.0 20.55 L-38.25 20.85 Q-42.1 21.85 -41.8 25.35 -41.75 26.25 -40.9 26.65 -39.55 27.35 -39.8 28.05 L-40.1 27.9 -40.3 28.05 -41.15 28.3 Q-46.1 27.65 -46.25 22.9 -46.35 18.8 -42.9 16.35 -38.05 12.9 -31.85 14.1 -25.7 15.25 -21.75 10.65 -20.65 9.4 -19.05 9.0 -15.3 8.1 -12.45 9.75 -14.45 7.2 -18.05 6.25 -22.55 5.0 -25.7 1.6 -29.75 -2.7 -29.95 -8.4 L-29.5 -8.3 -29.45 -7.55 -28.9 -6.15 Q-27.2 -0.85 -22.15 1.55 -17.0 4.0 -11.2 4.55 L-9.85 4.75 Q-12.55 2.0 -11.8 -2.65 -11.1 -6.6 -14.55 -8.75 -17.5 -10.55 -20.4 -8.35 L-21.7 -7.45 -21.35 -8.45 Q-21.25 -9.8 -19.6 -10.85 -15.2 -13.6 -10.75 -10.7 -6.1 -7.6 -3.6 -2.6 L-2.75 -0.7 Q-3.55 -5.3 -0.65 -9.65 2.6 -14.6 8.3 -14.1 10.0 -13.95 10.5 -12.4 10.9 -10.95 10.1 -10.0 10.0 -9.85 9.8 -10.1 8.05 -12.65 5.45 -10.85 4.5 -10.15 4.8 -8.9 5.5 -6.35 6.9 -4.05 7.2 -3.6 7.05 -3.0 6.65 -1.55 5.65 -0.6" fill="#aa0909" fill-rule="evenodd" stroke="none"/>
    <path d="M3.55 -9.65 L2.8 -9.6 Q1.3 -8.45 1.6 -6.8 L1.9 -6.45 Q6.85 -3.25 3.7 2.2 L2.65 4.1 Q9.2 2.25 11.9 -4.15 12.8 -6.25 14.45 -7.35 L13.7 -6.2 Q12.65 -3.6 12.1 -0.9 19.8 -2.1 25.2 -8.2 25.65 -8.7 26.1 -8.4 24.6 -6.5 22.8 -5.05 17.45 1.6 19.0 10.3 L20.0 9.3 Q23.45 6.25 27.55 4.25 32.1 2.05 36.95 3.75 41.6 5.45 45.1 2.15 45.7 1.6 46.35 1.4 L45.85 2.15 Q45.55 4.45 42.6 5.5 40.15 6.35 37.45 6.4 L33.75 6.95 Q35.1 7.7 35.6 9.65 36.6 13.6 38.25 17.3 38.95 18.8 40.45 19.5 40.95 19.7 40.45 19.9 L40.4 19.85 40.35 19.9 Q32.45 14.6 24.2 18.2 28.4 18.5 31.35 22.4 35.6 28.0 33.8 34.45 L33.35 34.35 33.3 34.3 Q33.6 32.85 33.0 31.75 32.4 35.55 34.5 38.9 35.1 39.9 36.2 40.3 41.3 42.3 44.5 46.45 45.8 48.15 45.2 49.75 L45.1 49.3 45.05 49.35 43.25 47.5 41.55 46.65 Q40.1 45.9 38.45 46.25 33.15 47.45 34.85 52.4 L38.1 61.45 Q38.4 62.25 37.9 62.65 L37.6 61.95 Q34.15 55.8 28.7 51.2 27.8 50.45 26.55 50.7 21.65 51.55 20.4 56.4 L19.65 58.8 Q19.7 59.75 19.35 60.95 18.7 63.1 16.85 64.35 16.65 63.5 17.5 62.1 18.1 61.1 17.4 60.2 15.75 58.15 16.2 55.65 16.4 54.5 17.25 53.75 19.45 51.85 21.2 49.6 24.3 45.6 22.1 41.45 L21.4 40.7 Q15.4 36.6 8.15 36.9 L8.2 37.15 Q8.55 39.55 8.45 42.05 8.2 48.7 4.45 54.4 3.4 56.0 3.0 57.85 1.9 63.35 5.1 68.25 5.25 68.45 5.0 68.45 L4.15 67.1 4.7 68.2 4.65 68.2 Q0.3 61.4 3.4 53.5 5.1 49.15 4.75 44.65 4.7 43.5 4.1 42.5 L2.5 40.2 Q-3.9 42.75 -8.2 48.55 -9.75 50.55 -10.1 52.75 -10.25 51.2 -9.8 49.75 -9.2 44.2 -14.65 41.85 L-16.95 41.75 Q-24.35 43.8 -26.65 50.9 L-26.6 50.95 -26.65 50.95 -26.7 51.1 -26.7 50.95 Q-31.15 45.6 -25.4 41.1 -21.9 38.35 -18.05 36.15 -15.5 34.7 -13.5 32.65 -14.9 33.4 -16.95 33.35 L-27.15 33.65 Q-27.75 33.9 -28.0 33.45 L-28.0 33.35 -27.75 33.3 Q-27.0 30.15 -27.2 26.35 -27.2 25.45 -26.55 24.8 -23.85 22.3 -20.8 20.7 -29.45 16.4 -39.7 19.4 -43.1 20.4 -43.3 23.8 L-43.55 24.05 -43.6 23.55 Q-43.5 20.25 -40.6 17.85 -36.2 14.15 -30.35 16.0 L-21.4 18.25 Q-14.95 18.05 -8.9 15.85 L-8.7 14.05 Q-8.45 9.7 -11.55 7.15 L-12.25 6.65 -13.3 6.05 Q-12.0 6.4 -11.0 7.05 -7.8 8.45 -4.3 9.2 -10.05 3.75 -9.55 -4.9 -9.5 -5.8 -10.1 -6.45 -11.5 -8.05 -13.15 -9.05 -11.1 -8.65 -9.95 -7.05 -8.0 -5.6 -6.25 -3.25 -3.75 0.15 -2.45 3.8 L-2.4 3.8 Q-0.05 2.8 -0.3 0.3 -0.55 -1.85 -0.95 -4.0 -1.45 -6.95 0.6 -9.2 1.8 -10.5 2.9 -10.05 L3.45 -10.0 3.25 -9.9 3.55 -9.65 M-36.0 36.1 L-36.95 36.95 Q-39.4 37.8 -40.9 39.9 -42.65 37.3 -39.45 36.05 L-36.9 35.8 -36.25 35.85 Q-36.0 35.9 -36.0 36.1 M-11.95 60.85 L-11.9 60.8 -11.9 61.25 -11.65 61.1 -11.9 61.45 Q-11.85 63.35 -11.15 65.3 -10.45 67.2 -8.65 68.25 -7.7 68.8 -7.4 69.3 L-7.2 69.35 -7.25 69.45 -7.3 69.5 Q-7.2 69.75 -7.25 69.95 L-7.75 69.7 -7.8 69.7 -8.2 69.75 Q-13.3 70.1 -13.65 65.65 -13.9 62.95 -12.05 61.4 L-11.95 60.85 M-26.75 57.85 Q-26.65 57.55 -26.4 57.7 -25.95 60.15 -25.65 62.65 L-25.8 62.8 Q-27.7 60.4 -26.75 57.85" fill="#fdc43e" fill-rule="evenodd" stroke="none"/>
    <path d="M10.7 -0.5 L10.7 -0.45 10.35 1.3 Q15.55 0.15 19.9 -3.0 20.2 -3.2 20.45 -3.0 L19.35 -2.2 Q16.75 2.95 17.25 8.9 17.4 10.75 18.1 12.45 L18.2 13.25 Q21.1 10.5 24.25 8.15 29.05 4.5 34.95 4.65 L35.8 4.8 36.15 5.1 36.1 5.1 Q32.85 5.35 29.9 6.85 31.2 7.25 32.35 8.35 33.75 9.7 34.5 11.45 L36.05 15.0 36.3 16.15 36.25 16.2 36.2 16.15 Q29.3 14.6 22.15 16.6 19.95 17.2 17.9 18.15 22.85 19.15 27.1 22.55 30.2 25.0 32.25 28.3 L32.5 29.45 32.6 29.55 32.55 29.55 32.5 29.5 32.5 29.55 32.45 29.45 Q31.05 28.3 29.25 28.0 31.15 30.0 31.2 33.2 31.3 36.1 32.45 38.75 33.3 40.75 35.45 41.45 38.55 42.45 40.8 44.65 L41.3 45.35 41.75 45.65 41.35 45.45 41.4 45.8 40.85 45.3 38.45 44.65 Q34.75 44.05 31.95 46.6 30.7 47.75 30.55 49.25 L30.6 49.95 30.55 49.8 30.55 49.95 30.5 49.8 Q28.8 46.6 25.2 48.5 L24.4 48.7 24.2 48.7 24.35 48.55 Q24.35 48.25 24.7 47.7 25.1 47.15 25.15 46.4 25.55 40.4 21.05 36.6 20.3 35.95 19.35 35.65 13.5 33.8 7.65 35.6 L6.3 36.0 6.45 36.4 Q7.75 42.25 6.65 48.15 L6.45 48.9 6.45 49.0 Q6.4 50.05 5.65 50.7 L5.65 50.6 5.3 51.1 Q5.3 50.45 5.65 49.6 L5.85 49.05 Q6.6 43.3 4.45 38.0 0.85 38.8 -2.65 40.6 -4.7 41.65 -6.1 43.45 L-8.45 46.4 -8.25 45.5 Q-7.8 41.25 -12.4 39.85 -15.95 38.8 -19.25 40.5 -23.15 42.45 -26.1 45.6 L-26.3 46.15 -26.4 45.9 -26.8 46.4 -26.45 45.55 Q-26.5 44.9 -25.9 44.15 -22.3 39.25 -16.55 36.85 -12.2 35.0 -7.75 33.5 -9.4 30.6 -13.35 30.3 -16.55 30.05 -19.65 31.15 L-22.6 31.85 -25.65 31.75 -26.4 31.55 -25.7 31.6 -25.6 30.65 Q-25.25 28.25 -24.35 25.95 -23.75 24.5 -22.3 23.75 -19.7 22.45 -17.0 21.5 -18.75 20.55 -20.7 19.95 L-21.0 19.95 -21.9 19.65 -22.55 19.5 -22.55 19.45 -21.85 19.5 -20.85 19.45 -13.05 19.8 -11.35 19.8 -11.05 19.75 -10.05 19.8 -7.1 19.8 Q-6.7 18.05 -6.6 16.2 L-6.5 12.5 -6.7 12.35 -6.5 12.4 Q-5.35 12.9 -4.2 13.7 -2.4 15.05 -0.35 15.95 -0.9 13.65 -2.1 11.6 -4.8 7.1 -6.75 2.25 L-7.35 0.25 -7.4 -0.5 -6.9 0.2 Q-5.5 1.1 -4.3 2.6 -2.75 4.6 -1.7 6.75 L-1.1 6.1 Q2.35 3.05 0.8 -1.25 0.2 -2.8 0.45 -4.3 L0.45 -4.35 0.55 -4.65 0.55 -4.3 Q1.6 -4.1 2.2 -2.8 4.05 1.3 1.25 5.05 L-0.25 6.75 0.65 6.55 Q6.6 4.85 10.3 -0.05 L10.7 -0.5 M21.15 52.55 L21.0 52.65 21.2 52.75 20.8 52.95 Q18.45 55.85 18.15 59.65 L18.2 60.1 18.15 60.1 18.1 60.05 18.05 60.1 18.0 59.9 Q15.8 56.1 19.7 53.05 20.4 52.5 20.9 52.65 L21.1 52.5 21.15 52.55 M-37.15 16.9 Q-33.15 15.85 -29.7 17.4 L-36.45 18.0 -38.95 18.55 Q-38.9 17.3 -37.15 16.9 M-11.75 66.6 Q-10.95 68.25 -9.6 68.95 L-9.65 68.95 Q-9.5 69.1 -9.7 69.3 -13.55 68.65 -12.7 65.05 L-12.7 64.35 -12.65 64.35 -12.55 64.6 -12.5 64.6 -12.5 64.85 -11.75 66.6" fill="#fefd9a" fill-rule="evenodd" stroke="none"/>
    <path d="M26.25 10.45 Q26.7 10.1 27.25 10.2 24.75 12.45 28.4 13.2 29.55 13.45 29.65 13.85 L29.65 14.1 28.35 13.95 Q23.55 14.45 18.8 15.9 18.85 15.5 19.3 15.2 19.55 14.25 20.75 13.3 23.35 11.3 26.25 10.45 M13.3 5.0 Q12.25 11.9 13.3 18.9 19.25 20.4 24.55 24.3 25.65 25.1 26.15 26.0 L26.8 26.45 26.7 26.45 Q23.7 24.95 20.45 24.9 23.15 26.65 24.65 30.15 26.25 33.85 28.6 37.1 L29.0 37.95 29.45 38.05 29.0 38.15 28.95 38.2 25.95 39.3 25.95 39.45 25.9 39.35 25.8 39.4 25.7 39.4 25.75 39.0 Q22.15 30.7 12.95 28.15 L9.05 27.3 Q5.55 30.6 5.35 35.45 6.0 36.55 5.15 36.65 4.65 33.75 1.2 35.15 -2.5 36.6 -5.65 38.95 -5.6 39.15 -5.8 39.15 L-5.85 39.05 -6.05 39.25 -5.95 38.85 Q-7.0 36.95 -9.15 36.65 L-9.35 36.75 -9.45 36.75 -9.45 36.6 -9.55 36.6 -9.55 36.55 -9.45 36.5 Q-9.3 35.85 -8.05 35.3 L-3.7 33.55 Q-7.65 28.05 -15.05 27.55 L-15.15 27.55 -15.3 27.55 -15.35 27.45 -15.45 27.3 -15.45 27.25 Q-10.7 26.9 -9.15 22.95 -9.0 22.55 -9.25 22.25 L-9.9 22.15 -9.9 22.1 -9.45 22.1 -9.5 21.85 -9.0 22.1 -4.2 22.65 -4.6 16.15 -5.1 15.55 -5.05 15.5 -4.6 15.9 -4.6 15.7 -4.55 15.65 -4.5 16.05 1.05 21.75 2.05 16.45 Q2.85 12.55 2.85 8.65 L2.35 8.25 2.35 8.15 2.85 8.45 2.85 8.25 2.95 8.5 Q6.1 10.55 8.6 13.2 9.0 11.55 9.95 9.85 L13.1 4.7 13.25 4.5 13.5 3.65 13.55 3.65 13.4 4.45 13.6 4.55 13.3 5.0" fill="#ffffff" fill-rule="evenodd" stroke="none"/>
    <path d="M4.35 -109.95 L4.4 -110.0 6.8 -109.55 Q18.2 -106.95 21.35 -95.4 24.05 -85.55 18.4 -77.4 L18.35 -77.3 18.2 -77.1 Q11.25 -66.1 10.55 -60.85 L10.65 -60.3 Q11.4 -55.75 16.1 -55.7 17.7 -55.65 19.05 -56.55 23.25 -59.2 25.6 -63.4 L25.65 -63.8 25.7 -63.6 25.85 -63.95 25.75 -63.25 26.95 -58.2 Q28.05 -53.85 30.8 -50.45 L37.6 -50.0 37.85 -50.0 37.85 -49.95 37.6 -49.9 Q37.55 -48.6 36.0 -47.9 33.45 -46.75 31.75 -44.65 31.25 -44.05 31.05 -43.25 29.8 -39.3 25.45 -38.45 L23.1 -38.25 Q25.8 -37.35 26.55 -34.5 26.75 -33.7 26.55 -32.95 26.25 -31.55 25.4 -30.75 L25.1 -30.5 25.3 -30.75 Q24.2 -31.0 22.9 -31.7 17.8 -34.45 12.75 -31.95 11.35 -31.25 10.2 -30.2 7.9 -28.1 5.05 -28.35 L4.9 -28.3 4.9 -28.35 4.35 -28.45 4.95 -28.45 Q5.5 -31.7 4.6 -35.0 3.85 -37.9 1.8 -40.15 -1.3 -43.45 -5.85 -43.85 -6.8 -43.95 -6.45 -44.35 -6.9 -45.1 -6.45 -46.15 L-4.35 -51.1 Q-4.1 -51.7 -4.0 -52.25 L-4.15 -52.65 -4.05 -52.8 -4.0 -52.8 Q-0.85 -49.75 3.55 -48.25 8.15 -46.6 13.05 -46.55 2.4 -52.0 1.35 -59.4 0.25 -67.1 6.35 -72.3 16.55 -81.0 18.5 -93.9 19.5 -100.4 14.45 -104.65 10.3 -108.1 5.3 -109.65 L4.05 -109.85 Q3.75 -109.9 4.15 -110.0 L4.35 -109.95 M4.15 -100.9 Q8.8 -100.85 11.7 -97.9 13.05 -96.95 13.7 -95.05 L13.65 -95.0 12.15 -96.75 Q10.65 -98.75 8.2 -98.05 3.8 -96.85 3.8 -92.4 3.8 -89.15 6.2 -86.8 8.35 -84.7 8.6 -81.85 8.75 -80.2 7.65 -78.9 3.7 -74.1 -1.3 -70.3 -4.1 -68.15 -5.55 -64.85 -7.5 -60.4 -4.75 -56.6 -6.25 -57.6 -6.55 -59.35 L-6.75 -59.05 Q-6.75 -61.65 -8.6 -63.75 -10.2 -65.6 -12.6 -66.25 L-20.45 -68.05 Q-25.35 -68.9 -28.2 -73.15 -31.55 -78.2 -27.9 -83.0 L-26.5 -84.2 Q-25.4 -84.8 -24.15 -84.85 -19.35 -84.9 -17.8 -80.65 -17.5 -79.95 -17.7 -79.15 -18.25 -76.75 -20.3 -76.35 L-21.1 -76.15 -21.2 -76.25 -21.1 -76.3 -21.15 -76.4 -20.7 -76.55 Q-19.25 -77.55 -19.9 -79.65 -20.7 -82.35 -23.7 -81.5 -26.1 -80.8 -26.05 -78.25 -26.0 -73.25 -21.05 -71.6 -16.05 -69.9 -11.9 -72.95 -9.9 -74.45 -10.3 -77.1 -10.85 -81.0 -13.6 -83.85 -15.8 -86.1 -18.35 -87.95 -21.5 -90.15 -20.3 -93.7 -18.75 -98.4 -13.85 -98.95 -8.75 -99.65 -6.75 -95.5 -6.4 -94.7 -6.6 -93.85 -6.85 -92.85 -7.35 -92.15 L-7.45 -91.9 Q-7.6 -91.45 -7.95 -91.45 -7.0 -94.95 -10.8 -95.15 -11.65 -95.25 -12.35 -94.65 -15.85 -91.8 -12.7 -88.95 -11.95 -88.3 -11.05 -87.95 -5.8 -85.9 -7.75 -80.8 L-9.15 -76.15 Q-9.6 -74.25 -7.55 -73.6 -4.7 -72.65 -2.15 -74.4 2.5 -77.5 0.75 -82.7 -0.45 -86.1 -2.85 -88.85 -5.5 -91.9 -3.6 -95.55 -2.3 -98.1 0.2 -99.5 2.05 -100.55 4.15 -100.9 M40.9 -85.5 Q38.2 -85.05 37.3 -82.45 L37.15 -81.95 37.3 -81.8 37.1 -81.8 37.05 -81.8 37.0 -81.85 Q35.85 -82.2 36.25 -83.8 36.65 -85.4 38.25 -86.05 L39.15 -86.3 Q40.6 -86.5 41.05 -85.5 L41.05 -85.45 40.9 -85.5 M40.9 -81.45 L41.0 -81.7 41.05 -81.7 Q41.75 -82.6 43.1 -82.85 L45.25 -83.2 Q49.45 -83.7 51.95 -80.7 L52.65 -79.4 Q53.9 -74.3 50.5 -69.95 46.8 -65.2 41.35 -62.4 36.15 -59.75 30.4 -59.15 L29.35 -58.6 29.1 -58.65 Q36.5 -62.45 42.25 -68.5 44.4 -70.75 44.8 -73.85 45.3 -77.7 43.0 -80.7 42.5 -81.3 41.65 -81.3 40.9 -81.25 40.9 -81.45 M65.4 -54.55 Q70.8 -54.65 74.1 -50.55 74.75 -49.7 74.95 -48.6 76.0 -42.1 70.4 -38.55 68.75 -37.5 66.8 -37.55 62.6 -37.75 58.95 -39.95 57.35 -40.5 55.85 -41.4 L55.3 -41.7 52.35 -42.0 51.9 -41.9 Q51.55 -41.8 51.35 -42.05 54.3 -42.75 57.1 -41.5 58.9 -40.9 60.65 -39.7 L60.75 -39.65 Q61.7 -39.45 62.75 -39.65 66.95 -40.5 69.3 -44.15 70.85 -46.55 70.85 -49.35 70.85 -51.95 68.5 -53.1 L66.0 -54.25 64.05 -54.25 Q64.15 -54.45 64.5 -54.5 L65.3 -54.55 65.1 -54.6 65.2 -54.6 65.4 -54.55 M28.05 -27.55 L28.25 -27.4 Q31.45 -24.4 30.7 -19.95 30.45 -18.55 30.45 -17.1 30.45 -15.6 32.0 -15.45 34.35 -15.15 35.15 -17.35 35.95 -19.6 33.9 -20.6 L32.8 -20.7 32.65 -20.6 32.7 -20.7 32.65 -20.75 32.8 -20.8 Q33.6 -21.8 35.25 -21.55 40.0 -20.7 39.35 -15.9 38.95 -12.5 35.85 -11.0 31.9 -9.05 28.6 -11.8 26.5 -13.6 26.65 -16.35 26.7 -18.2 27.55 -19.85 29.5 -23.65 28.15 -27.3 27.55 -28.05 28.05 -27.55 M25.55 -62.6 L25.55 -62.65 25.55 -62.6 M16.85 -21.15 Q22.6 -19.65 23.85 -13.8 24.95 -8.55 20.5 -5.6 19.75 -5.1 18.85 -4.9 14.25 -3.9 9.95 -5.45 L9.75 -5.55 Q8.15 -5.95 6.7 -6.85 11.15 -4.75 15.95 -6.25 L16.9 -6.85 Q20.1 -9.65 17.55 -13.0 L16.3 -14.85 Q14.55 -17.9 16.65 -20.85 L16.75 -20.95 16.85 -21.15 M34.15 -7.9 L34.55 -8.35 34.5 -8.35 34.6 -8.35 Q37.4 -11.35 41.35 -10.8 44.0 -10.45 46.05 -12.15 48.8 -14.5 48.2 -18.1 47.9 -20.2 47.0 -21.9 L47.05 -21.9 47.1 -21.85 47.2 -21.9 Q51.9 -17.25 49.4 -11.15 47.55 -6.5 42.55 -6.85 41.0 -6.95 39.6 -7.65 37.15 -8.8 34.65 -8.35 L34.15 -7.9 M-33.3 -50.95 Q-35.9 -51.25 -37.3 -53.7 -39.0 -56.8 -37.05 -59.85 -35.15 -62.75 -31.55 -62.95 L-30.1 -63.05 Q-24.35 -63.3 -20.75 -59.05 -20.3 -58.55 -20.2 -57.85 -19.55 -54.0 -22.6 -51.25 -24.95 -49.15 -23.5 -46.55 L-23.3 -46.2 Q-22.45 -45.4 -21.45 -45.05 L-22.7 -45.35 -23.15 -45.6 -23.95 -46.45 -24.0 -46.5 Q-26.4 -49.95 -23.9 -53.5 -23.5 -54.1 -23.85 -54.7 -24.95 -56.75 -27.2 -57.65 -30.5 -58.9 -33.4 -57.05 -35.1 -56.0 -34.8 -54.0 -34.5 -52.05 -33.0 -50.8 L-33.3 -50.95 M-42.0 -24.25 Q-41.4 -20.05 -37.8 -18.4 L-37.5 -18.4 -37.6 -18.35 -37.65 -18.35 Q-42.75 -16.6 -46.3 -20.9 -48.95 -24.15 -47.95 -28.2 -47.3 -30.9 -45.05 -32.65 -42.6 -34.65 -39.45 -34.75 -34.5 -34.4 -31.35 -30.35 -29.65 -28.1 -27.3 -26.95 L-26.85 -26.85 -26.65 -26.65 -27.25 -26.7 -31.45 -26.45 Q-33.9 -27.0 -36.1 -28.45 -39.15 -30.45 -41.2 -27.65 -42.3 -26.15 -42.0 -24.25 M-6.05 -37.75 L-6.05 -37.9 -5.75 -40.35 Q-5.15 -38.3 -5.8 -36.9 -6.05 -35.65 -6.8 -34.4 -8.75 -31.1 -11.65 -28.55 -12.9 -27.5 -14.2 -27.05 L-13.6 -27.45 -14.05 -27.5 Q-11.35 -28.9 -11.65 -31.7 -11.7 -32.3 -12.25 -32.55 -14.2 -33.35 -15.85 -34.6 -16.85 -35.4 -17.0 -36.2 L-17.15 -36.4 -17.05 -36.3 -17.05 -36.45 -16.85 -36.2 Q-12.75 -33.55 -7.75 -35.55 -6.55 -36.05 -6.15 -37.05 L-6.15 -37.25 -6.05 -37.75 M-24.35 -47.75 L-24.4 -47.7 -24.3 -47.45 -24.35 -47.75 M-6.05 -12.5 Q-6.95 -12.2 -7.5 -11.7 L-8.1 -11.0 Q-8.7 -10.05 -8.35 -8.65 L-7.85 -8.2 Q-5.3 -7.55 -3.9 -9.85 -2.65 -11.8 -0.7 -11.45 L-0.3 -11.35 Q-1.3 -10.75 -1.25 -9.2 -1.25 -8.45 -1.75 -7.85 -4.05 -5.15 -7.6 -6.35 -9.6 -7.0 -9.45 -9.1 -9.3 -10.75 -8.0 -11.7 -7.35 -12.35 -6.4 -12.7 L-6.05 -12.55 -6.05 -12.5 M-7.95 -15.1 L-7.95 -15.0 -7.8 -15.15 Q-7.85 -14.65 -8.2 -14.15 L-9.05 -12.65 Q-10.9 -10.0 -13.1 -7.6 -14.5 -6.0 -14.75 -3.95 -14.95 -2.05 -12.95 -1.6 -9.6 -0.8 -6.7 -2.45 L-6.35 -2.8 -6.6 -2.5 -6.6 -2.45 -6.7 -2.35 Q-10.05 1.45 -15.2 2.65 -18.0 3.3 -19.95 1.3 -20.85 0.35 -20.9 -1.0 -21.0 -4.0 -18.7 -6.0 L-12.75 -10.65 Q-11.35 -11.65 -10.15 -12.85 L-8.0 -14.95 -7.95 -15.1" fill="#aa0909" fill-rule="evenodd" stroke="none"/>
    <path d="M5.55 -99.3 Q3.3 -98.2 1.85 -95.9 -0.3 -92.4 2.2 -88.95 L4.35 -86.2 Q6.5 -83.55 5.4 -80.2 4.85 -78.55 3.75 -77.6 L3.7 -77.6 3.55 -77.2 3.25 -77.25 3.3 -77.3 2.45 -76.85 3.65 -77.9 Q5.45 -81.55 2.75 -85.1 L0.45 -87.75 Q-2.85 -90.95 -0.85 -94.95 0.1 -96.85 1.95 -98.05 4.2 -99.55 6.85 -100.2 L6.9 -100.05 6.95 -100.1 7.25 -100.0 7.25 -99.95 6.8 -99.8 Q6.55 -99.55 5.75 -99.35 L5.55 -99.3 M44.8 -81.4 L44.8 -81.55 45.0 -81.65 Q49.3 -81.5 50.0 -77.4 50.4 -75.0 49.0 -72.8 47.4 -70.3 45.15 -68.4 L44.85 -68.1 Q43.35 -66.75 41.55 -66.0 41.45 -66.1 41.5 -66.25 L41.55 -66.3 40.7 -66.05 40.65 -66.1 40.65 -66.15 40.65 -66.25 40.75 -66.4 40.8 -66.45 40.85 -66.45 40.95 -66.4 41.0 -66.3 41.0 -66.25 Q43.25 -67.25 45.05 -68.75 47.05 -71.1 47.85 -74.1 48.65 -77.1 46.7 -79.5 L45.05 -81.2 44.8 -81.4 M71.5 -52.05 Q74.55 -49.5 72.9 -45.75 72.0 -43.75 70.4 -42.45 L69.45 -41.4 69.8 -41.95 69.5 -41.8 69.45 -41.85 69.9 -42.2 Q71.0 -44.25 71.65 -46.6 72.4 -49.3 71.35 -51.85 L71.45 -52.0 71.5 -52.05 M20.05 -93.55 Q21.5 -89.75 20.15 -85.85 19.25 -81.45 16.25 -77.5 12.15 -72.05 9.15 -65.95 6.9 -61.4 9.95 -57.5 12.5 -54.15 16.15 -52.65 21.0 -54.35 24.95 -58.0 L24.9 -57.05 25.85 -55.1 25.85 -54.75 Q25.5 -53.05 25.9 -51.9 L26.05 -51.55 Q26.85 -49.85 29.6 -49.6 30.45 -49.5 30.65 -48.9 L30.25 -48.85 29.4 -47.95 Q28.45 -47.2 28.05 -46.05 26.5 -41.8 21.65 -43.15 L20.05 -43.5 19.25 -43.75 16.1 -43.2 Q19.9 -41.35 21.5 -37.5 L21.75 -35.95 14.4 -38.25 Q13.95 -38.35 13.55 -38.0 10.95 -35.7 7.85 -34.95 7.1 -39.7 3.1 -42.9 L-1.15 -46.4 Q-1.4 -46.65 -1.1 -46.9 L1.4 -46.95 Q6.9 -44.0 13.05 -44.45 14.15 -44.5 15.15 -45.0 17.0 -45.9 18.15 -47.3 L17.85 -47.4 Q11.3 -48.85 7.7 -54.45 6.1 -57.0 5.7 -59.9 4.85 -65.8 8.5 -70.55 11.7 -74.75 15.25 -78.65 18.45 -82.1 19.55 -86.25 L19.65 -87.1 Q20.0 -90.25 19.75 -93.45 L19.6 -93.75 19.7 -93.9 19.9 -94.1 20.05 -93.55 M19.2 -17.3 Q22.6 -14.15 20.7 -9.7 L20.6 -9.7 20.7 -10.45 20.5 -10.2 20.1 -9.35 20.15 -9.8 20.05 -9.75 20.0 -9.8 20.15 -10.15 19.85 -13.4 19.0 -15.6 Q18.4 -16.55 18.85 -17.25 L19.0 -17.4 19.1 -17.55 19.2 -17.3 M32.9 -14.1 Q34.95 -14.3 36.1 -15.75 35.9 -12.25 32.2 -12.55 30.1 -12.75 29.15 -14.5 28.5 -15.75 29.0 -16.9 29.25 -15.45 30.8 -14.55 31.75 -14.0 32.9 -14.1 M45.8 -8.7 Q41.85 -6.65 38.8 -9.55 L44.95 -10.3 Q45.75 -10.35 46.35 -10.85 47.55 -11.8 48.3 -13.05 48.7 -10.25 45.8 -8.7 M-15.3 -97.65 Q-12.3 -98.3 -11.1 -96.05 L-11.15 -96.0 Q-15.2 -97.3 -16.65 -93.3 -17.15 -91.95 -16.1 -91.05 -13.8 -89.05 -12.55 -86.55 -14.95 -88.55 -17.45 -91.05 -18.9 -92.5 -18.4 -94.5 -17.8 -97.0 -15.3 -97.65 M-22.1 -83.0 L-21.75 -82.75 Q-25.6 -83.4 -27.15 -80.05 L-27.45 -78.85 Q-27.85 -74.35 -24.35 -71.8 -24.0 -71.5 -23.55 -71.4 L-11.45 -71.0 Q-10.0 -71.35 -9.05 -72.1 L-9.15 -72.2 -9.05 -72.3 Q-7.4 -70.75 -5.1 -71.05 L-4.9 -71.2 -4.85 -71.1 -4.8 -71.1 -4.8 -71.05 Q-4.8 -70.7 -5.55 -70.15 L-6.45 -69.15 Q-7.1 -67.8 -7.35 -66.35 L-7.35 -66.3 -7.45 -65.8 -7.7 -66.5 -8.75 -67.45 Q-9.55 -68.5 -11.05 -68.6 L-20.5 -69.45 Q-26.5 -69.95 -28.05 -75.5 -28.7 -77.75 -28.0 -79.95 -27.2 -82.4 -24.7 -83.25 L-22.1 -83.1 -22.05 -83.0 -22.1 -83.0 M-36.7 -56.8 L-36.15 -57.65 Q-35.8 -59.25 -34.1 -60.45 -32.4 -61.6 -30.3 -61.8 -25.85 -62.0 -22.85 -59.0 -22.15 -58.3 -21.95 -57.4 -21.65 -56.35 -22.2 -55.7 L-22.25 -55.65 -22.3 -55.65 -22.3 -55.75 Q-23.0 -57.75 -25.1 -58.8 -28.95 -60.8 -32.95 -59.4 -34.7 -58.75 -35.95 -57.5 L-36.25 -56.8 -36.2 -57.25 -36.6 -56.8 -36.7 -56.8 M-43.55 -21.85 Q-45.2 -22.1 -46.0 -24.0 -46.8 -25.8 -46.1 -27.65 -44.55 -31.45 -40.5 -32.3 -37.7 -32.1 -35.2 -30.65 L-35.05 -30.55 -34.05 -30.25 -33.3 -30.3 -33.6 -30.1 -33.6 -30.05 -33.7 -30.05 Q-34.4 -29.8 -35.3 -30.25 L-37.5 -30.7 Q-41.9 -31.65 -43.85 -28.0 -45.5 -24.8 -43.65 -21.95 L-43.55 -21.85 M-18.3 -4.5 L-16.55 -6.1 Q-16.25 -5.45 -16.7 -4.0 -17.55 -1.5 -15.05 -0.45 -17.75 1.4 -18.75 -1.7 -19.2 -3.2 -18.3 -4.5 M-5.75 -7.4 Q-4.6 -7.6 -3.8 -8.5 L-2.7 -9.5 -2.25 -9.75 Q-1.85 -9.05 -2.7 -8.25 -4.05 -6.95 -5.75 -7.4" fill="#fdc43e" fill-rule="evenodd" stroke="none"/>
    <path d="M72.3 -50.15 Q73.95 -47.1 71.55 -44.9 72.55 -47.4 72.2 -50.05 L72.3 -50.15 M49.2 -75.35 Q49.0 -74.2 48.25 -73.6 49.55 -77.7 46.95 -80.65 L47.05 -80.65 Q49.85 -78.9 49.2 -75.35 M1.15 -90.45 Q2.05 -88.6 3.15 -86.9 4.15 -85.25 4.75 -83.4 3.8 -84.55 2.85 -86.2 1.8 -88.0 0.2 -89.35 -0.75 -90.2 -0.9 -91.5 -1.35 -96.0 2.65 -98.1 L3.15 -98.0 3.2 -97.95 Q-1.05 -95.05 1.15 -90.45 M11.2 -72.25 Q8.55 -69.4 7.6 -65.5 5.9 -58.5 11.2 -53.45 12.35 -52.35 13.7 -51.55 L14.6 -51.0 Q19.0 -52.2 22.75 -55.1 L22.9 -55.35 22.9 -55.2 22.9 -55.25 22.85 -54.95 Q22.6 -53.5 23.05 -51.8 23.8 -49.25 26.5 -48.95 L26.75 -48.7 26.4 -48.7 Q26.4 -47.4 25.05 -46.25 23.5 -45.0 21.3 -45.45 19.4 -45.9 17.8 -44.9 17.7 -44.85 17.65 -44.95 L17.75 -45.0 17.7 -45.0 20.15 -47.55 Q15.15 -48.9 10.9 -52.3 5.9 -56.25 6.2 -62.65 6.45 -67.9 10.0 -71.85 L11.45 -73.3 12.1 -74.0 12.1 -73.85 12.4 -74.1 11.9 -73.2 11.2 -72.25 M14.9 -42.8 Q17.95 -40.75 20.0 -37.75 L20.0 -37.65 13.65 -39.6 12.45 -38.75 Q10.5 -37.6 8.6 -37.2 L8.65 -37.1 8.65 -37.0 8.55 -37.2 8.35 -37.2 8.55 -37.25 Q6.3 -41.7 2.75 -45.05 L1.5 -45.95 1.6 -46.05 1.8 -45.9 1.4 -46.25 1.5 -46.25 3.05 -45.1 Q8.3 -42.0 14.75 -42.4 14.7 -42.65 14.9 -42.8 M19.35 -16.2 Q20.75 -15.05 20.6 -13.15 L20.6 -13.1 Q20.05 -13.5 19.9 -14.55 L19.25 -16.15 19.35 -16.2 M-13.3 -97.25 L-13.25 -97.2 -13.3 -97.0 -13.45 -96.8 Q-16.15 -96.95 -16.85 -94.5 -17.0 -94.0 -17.45 -93.95 -17.6 -95.45 -16.5 -96.45 -15.6 -97.25 -14.4 -97.5 L-13.3 -97.3 -13.3 -97.25 M-33.4 -59.85 L-34.4 -59.45 -34.45 -59.5 Q-33.6 -60.65 -32.1 -61.0 L-30.0 -61.35 Q-28.1 -61.6 -26.7 -60.8 -25.0 -60.35 -23.65 -59.05 L-23.65 -59.0 Q-25.1 -59.95 -27.1 -60.35 -29.95 -60.95 -32.2 -60.35 L-33.4 -59.85 M-8.65 -71.05 L-8.6 -70.95 -7.15 -70.15 -7.1 -70.25 -7.05 -70.25 -7.0 -70.1 -6.95 -70.1 -6.9 -70.05 -7.0 -70.05 Q-7.0 -69.7 -7.35 -69.05 L-7.7 -68.1 -7.75 -67.85 -7.9 -68.2 Q-9.9 -69.35 -12.3 -69.7 L-13.2 -69.8 -14.55 -69.85 -14.4 -69.95 -14.0 -70.0 -14.35 -70.1 -13.65 -70.0 -13.6 -70.05 -11.8 -70.0 Q-10.35 -70.2 -8.95 -70.9 L-9.0 -71.0 -8.9 -71.15 -8.75 -71.0 -8.7 -71.05 -8.65 -71.05 M-42.4 -30.4 L-43.8 -29.4 Q-46.15 -26.7 -44.65 -23.75 -45.75 -23.75 -45.8 -25.35 -45.95 -29.75 -41.75 -31.25 -41.15 -30.85 -42.4 -30.4 M-17.25 -2.75 Q-17.2 -1.9 -16.7 -1.25 -18.6 -1.2 -18.15 -3.4 -18.05 -3.95 -17.55 -4.2 L-17.25 -2.75" fill="#fefd9a" fill-rule="evenodd" stroke="none"/>
    <path d="M16.95 -50.7 L17.1 -50.8 17.3 -50.6 18.85 -50.8 Q20.2 -51.25 21.5 -51.85 21.45 -50.9 21.95 -49.6 22.6 -47.9 24.4 -47.95 L25.05 -47.5 24.7 -47.45 Q24.45 -46.95 23.25 -46.65 L22.65 -46.7 20.85 -46.85 21.8 -47.75 21.85 -47.9 16.95 -50.3 Q16.75 -50.4 16.95 -50.7 M14.15 -40.6 Q13.0 -41.1 11.8 -40.3 10.55 -39.45 9.2 -39.1 L8.6 -40.45 8.6 -40.5 7.2 -42.6 7.3 -42.65 Q8.3 -41.85 9.55 -41.9 L15.6 -41.35 16.55 -40.85 16.9 -40.2 Q15.65 -40.0 14.15 -40.6" fill="#ffffff" fill-rule="evenodd" stroke="none"/>
  </g>
</svg>
