<?xml version="1.0" encoding="UTF-8" standalone="no"?>
<svg xmlns:ffdec="https://www.free-decompiler.com/flash" xmlns:xlink="http://www.w3.org/1999/xlink" ffdec:objectType="shape" height="193.2px" width="129.0px" xmlns="http://www.w3.org/2000/svg">
  <g transform="matrix(1.0, 0.0, 0.0, 1.0, 52.0, 113.35)">
    <path d="M8.4 -15.7 L9.0 -15.6 Q11.1 -15.15 11.75 -13.75 8.25 -15.75 4.75 -14.0 L4.0 -13.2 Q2.45 -9.95 4.85 -6.8 5.45 -5.95 5.45 -4.9 5.35 -1.2 2.95 1.7 L1.15 3.65 0.9 3.5 0.85 3.45 1.2 3.05 Q-4.55 -3.8 -1.8 -12.3 -0.95 -14.9 1.65 -15.7 5.3 -16.85 8.4 -15.7 M16.1 -8.5 L16.2 -8.15 16.05 -8.0 15.9 -7.95 15.6 -8.45 15.5 -8.6 15.5 -8.7 Q14.6 -11.0 16.9 -13.15 20.6 -16.65 25.25 -16.65 26.75 -16.9 28.1 -16.05 25.8 -16.4 23.75 -15.0 22.2 -13.95 21.2 -12.3 20.0 -10.25 17.85 -9.2 L16.1 -8.5 M10.4 -0.8 Q18.0 -1.4 24.1 -6.25 28.85 -10.0 28.85 -15.65 28.85 -16.35 28.2 -16.7 24.3 -18.8 20.85 -16.45 L20.55 -16.2 20.8 -16.65 Q20.7 -18.8 22.85 -20.65 26.85 -24.0 31.4 -21.45 33.45 -20.25 33.55 -17.95 33.7 -13.9 30.5 -11.1 25.95 -7.1 22.9 -2.0 21.75 -0.1 21.4 2.15 20.85 6.0 21.25 9.7 25.8 2.6 34.4 0.75 40.3 -0.5 46.15 1.05 L49.0 0.9 Q53.35 -0.75 51.1 -4.8 L48.7 -8.35 Q49.45 -8.35 50.1 -7.8 L53.4 -7.35 Q59.2 -5.25 59.2 0.85 59.25 7.05 53.5 9.4 L52.1 9.8 Q46.3 8.25 41.15 4.65 39.65 3.6 37.8 3.95 L37.85 4.05 Q39.65 8.85 39.0 14.1 38.45 18.8 42.0 22.05 45.2 24.95 49.3 24.35 50.65 24.15 51.45 23.0 L52.8 20.35 Q53.25 20.9 53.0 21.75 53.55 22.0 53.6 23.2 53.7 30.6 46.4 32.6 40.1 32.35 38.75 26.3 38.1 23.2 36.95 20.2 35.05 15.05 29.35 14.95 32.0 19.95 31.85 26.0 31.8 27.7 32.1 29.35 33.55 37.65 40.25 42.75 45.2 46.55 47.65 52.15 48.1 53.2 48.2 54.3 48.7 59.25 44.2 60.65 42.15 60.6 40.75 59.7 L40.2 59.25 39.25 58.1 39.3 58.1 41.1 59.15 42.95 58.55 Q43.45 58.3 43.6 57.7 44.4 54.35 40.7 55.05 37.55 55.65 38.3 58.7 39.2 62.35 41.25 65.65 42.1 67.05 41.7 68.75 40.15 74.75 34.05 76.85 L31.65 77.35 30.9 77.4 30.7 77.5 Q29.75 77.7 29.55 77.1 L29.05 76.75 29.05 76.7 30.15 76.8 Q35.15 75.75 36.05 70.4 37.65 61.25 32.85 53.25 28.9 46.6 21.45 48.15 19.85 48.5 18.8 49.75 15.15 54.2 15.8 60.05 16.55 66.85 12.3 71.8 L11.1 72.95 11.0 72.95 Q10.0 73.55 9.0 73.2 L11.25 72.0 Q14.05 68.85 11.7 64.75 9.5 60.9 10.8 56.7 12.35 51.85 16.0 48.1 21.3 42.6 19.2 35.55 18.8 34.3 17.8 33.5 13.25 30.0 8.0 30.85 L9.75 33.2 Q14.0 39.1 11.7 46.05 9.95 51.4 7.6 56.55 4.35 63.65 6.35 71.3 7.1 74.1 8.75 76.4 10.05 78.15 11.65 79.55 L11.7 79.75 11.6 79.85 11.5 79.85 11.2 79.7 11.2 79.75 10.95 79.85 Q2.4 75.8 -0.35 66.8 -3.05 58.0 0.85 49.5 2.35 46.3 2.95 42.8 -6.75 46.45 -10.65 56.0 L-10.75 56.25 -11.9 58.6 Q-12.15 57.05 -11.25 55.2 -9.95 48.7 -13.65 43.3 L-14.65 43.5 Q-22.55 45.25 -26.2 52.4 L-28.15 56.6 -28.0 56.7 -28.1 56.9 -28.3 57.0 Q-33.45 53.7 -31.05 48.0 -29.45 44.2 -26.25 41.45 -22.35 38.1 -21.6 33.7 L-26.95 33.8 -29.9 34.1 -30.75 34.55 Q-31.05 34.6 -31.2 34.35 L-31.2 34.3 -31.15 34.25 -31.2 34.2 -31.25 34.15 -30.35 33.8 Q-28.7 32.65 -28.5 30.65 L-28.4 27.75 Q-28.45 24.6 -26.15 22.25 -24.8 20.9 -23.2 19.95 -19.95 16.9 -20.05 12.0 -20.05 11.05 -19.35 10.35 -17.7 8.75 -15.25 9.25 -14.15 9.45 -13.15 9.8 -14.0 5.15 -12.45 0.45 -11.95 -1.1 -12.1 -2.7 -12.5 -7.75 -17.3 -8.15 -19.0 -8.25 -19.85 -6.75 -20.4 -5.8 -20.3 -4.8 -20.95 -4.85 -21.0 -5.35 -21.75 -6.2 -21.5 -7.75 -20.85 -11.55 -16.6 -10.9 -10.0 -9.85 -8.1 -3.55 -5.8 4.3 2.05 6.5 6.1 4.4 7.95 0.05 9.05 -2.55 10.9 -4.7 12.65 -6.75 14.85 -7.3 L13.6 -6.1 Q11.65 -3.6 10.4 -0.8 M-31.5 -10.25 L-30.85 -10.8 Q-27.6 -12.1 -25.2 -10.6 L-24.85 -10.55 Q-24.3 -10.4 -24.1 -9.95 L-24.35 -9.95 Q-25.8 -9.95 -27.25 -9.15 L-27.9 -8.35 Q-29.4 -3.4 -25.75 0.8 -23.35 3.55 -19.95 4.9 L-18.55 5.5 -17.25 5.75 -17.4 5.95 -18.95 6.35 Q-27.35 6.65 -31.2 -0.45 -34.0 -5.55 -31.5 -10.25 M-26.7 18.5 L-25.7 18.3 -25.65 18.3 -25.6 18.35 Q-29.1 23.25 -35.2 21.05 -41.75 18.7 -45.9 23.85 -46.35 24.4 -46.2 25.15 -45.7 28.5 -42.25 29.35 L-42.25 29.4 -42.35 29.55 -42.45 29.6 -42.75 29.9 -43.6 30.15 Q-50.05 30.15 -51.7 24.0 -52.55 20.95 -50.95 18.1 -47.65 12.3 -41.0 14.5 -38.75 15.25 -36.95 16.75 -32.15 20.75 -26.7 18.5 M-35.25 35.5 L-34.35 35.6 -40.2 38.25 Q-45.45 40.5 -42.7 44.6 L-41.2 46.4 Q-40.85 46.75 -41.45 46.8 L-41.8 46.65 -41.95 46.65 Q-49.4 44.3 -46.55 37.85 -45.65 35.8 -43.35 35.4 -38.75 34.65 -34.95 35.25 L-35.25 35.5 M-11.1 60.1 L-12.4 67.05 Q-13.45 72.75 -7.8 73.75 -4.55 74.3 -2.05 72.65 L-1.65 72.1 Q-0.95 71.05 0.0 70.85 -0.7 74.6 -4.8 76.65 -6.3 77.4 -7.85 77.55 -17.05 78.0 -16.45 69.3 -16.1 63.55 -11.9 60.45 L-11.1 60.1 M-19.2 63.55 Q-20.5 64.95 -22.55 65.2 L-22.95 65.25 Q-27.15 65.35 -27.3 61.3 -27.4 59.5 -26.5 57.9 -26.15 57.25 -25.6 56.95 L-26.1 57.8 Q-25.9 58.45 -25.85 59.4 -25.7 61.9 -23.25 62.8 -21.05 63.65 -18.85 63.35 -18.95 63.55 -19.2 63.55" fill="#aa0909" fill-rule="evenodd" stroke="none"/>
    <path d="M17.9 -11.95 Q18.95 -13.4 20.4 -13.8 19.75 -10.9 16.95 -9.8 17.05 -10.8 17.9 -11.95 M2.75 -4.2 Q3.8 -2.35 2.45 -0.75 L1.75 -0.15 1.75 0.05 1.65 0.1 1.55 0.0 1.3 0.1 1.35 -0.2 Q-3.3 -5.05 0.05 -10.95 0.6 -11.95 1.45 -12.05 1.85 -12.55 2.5 -12.75 L2.5 -12.65 Q0.25 -8.65 2.75 -4.2 M20.8 -2.45 L20.0 -1.75 Q18.7 5.3 21.15 12.35 25.05 8.8 29.25 5.6 31.85 3.6 34.6 4.15 L34.6 4.2 34.25 4.25 Q35.5 5.25 36.0 7.25 37.0 11.15 37.1 14.9 37.55 16.0 37.3 17.05 L37.05 17.05 37.05 17.45 37.0 17.05 36.85 16.95 36.8 16.9 Q37.0 13.8 33.65 12.75 L30.0 12.55 Q26.5 13.2 23.2 14.1 29.1 19.1 29.55 27.45 29.85 34.05 32.9 39.7 33.8 41.45 35.45 42.55 41.85 46.7 44.9 53.4 45.3 54.35 44.8 54.9 L44.1 53.1 Q42.85 51.3 40.1 51.5 38.15 51.7 37.6 53.4 L36.8 55.0 36.8 55.2 36.75 55.05 36.65 55.25 36.4 55.1 36.4 55.05 36.6 54.0 Q36.1 51.55 34.4 49.35 32.7 47.25 30.4 45.85 27.35 44.0 23.75 44.95 L21.35 45.5 20.95 45.85 20.95 45.6 20.45 45.75 20.35 45.7 21.05 45.3 22.15 43.7 Q27.1 38.1 24.1 31.35 23.5 29.95 22.15 29.15 13.0 23.45 2.1 26.0 L0.0 26.4 Q2.0 27.4 3.65 29.3 11.9 38.55 6.95 49.55 2.85 58.55 4.05 68.15 L4.65 72.1 4.6 72.1 Q3.3 68.75 3.05 65.35 2.2 58.35 4.35 51.15 6.5 43.9 4.15 37.3 -5.15 41.15 -9.5 49.95 L-9.3 48.2 -9.15 46.05 Q-9.05 42.4 -10.45 39.25 -20.15 41.25 -26.25 49.45 L-27.65 51.05 -27.45 49.9 Q-27.6 46.3 -25.1 43.0 -21.2 37.7 -15.35 34.35 L-12.1 32.55 -17.8 31.65 -23.4 31.9 -24.8 32.2 -24.85 32.3 -24.9 32.2 -26.05 32.2 -25.05 31.75 Q-26.05 28.05 -22.6 25.05 -21.5 24.1 -21.0 22.7 -20.15 20.35 -20.3 18.15 L-20.05 18.25 -20.0 18.1 Q-14.25 17.5 -9.8 13.85 L-10.4 8.55 Q-10.5 7.85 -10.9 7.25 -12.15 5.25 -10.75 3.2 -9.1 0.8 -10.35 -2.0 L-12.1 -5.35 Q-10.8 -4.5 -10.15 -3.05 -8.8 -1.4 -7.9 0.85 -6.5 4.4 -3.65 6.95 -1.7 8.7 0.75 9.75 6.3 6.65 10.1 1.55 L10.1 1.9 Q15.7 0.7 20.65 -2.45 L20.8 -2.45 M30.65 -13.5 Q30.6 -18.15 25.7 -18.45 L25.65 -18.5 Q26.3 -21.55 29.75 -20.0 32.4 -18.85 31.8 -15.9 31.55 -14.5 30.65 -13.5 M57.4 3.45 Q56.55 5.65 54.2 6.15 L54.0 6.2 Q49.6 5.55 45.35 4.35 L43.0 3.95 42.8 3.75 42.8 3.7 42.85 3.4 42.5 3.05 52.65 3.9 Q55.85 3.95 56.7 0.85 56.8 0.45 57.25 0.45 58.1 1.8 57.4 3.45 M45.4 28.25 Q47.75 28.9 49.9 27.7 L50.75 27.75 Q50.2 29.55 48.05 30.15 L46.4 30.55 Q39.95 30.0 39.9 23.75 L39.95 23.7 41.95 26.15 Q43.4 27.7 45.4 28.25 M14.3 56.75 Q13.7 59.0 14.15 61.3 14.65 63.6 13.4 65.4 L13.45 65.5 13.3 65.7 13.25 65.6 13.15 65.75 13.15 65.4 Q10.75 59.45 14.0 54.0 L14.2 53.9 14.25 53.75 14.35 54.0 Q14.7 55.1 14.3 56.75 M-28.6 -2.3 Q-26.95 2.1 -22.8 4.6 -22.6 4.7 -22.55 4.95 L-22.8 5.25 -23.0 5.25 Q-27.7 4.05 -29.1 -0.65 -29.35 -1.4 -29.1 -2.2 -29.0 -2.55 -28.6 -2.3 M-38.2 19.2 Q-40.7 19.05 -43.2 19.9 -47.65 21.35 -48.1 25.65 L-47.95 27.05 Q-47.85 27.35 -48.15 27.45 L-48.25 27.25 Q-51.0 23.55 -48.85 19.55 -48.5 18.85 -47.75 18.6 -44.05 17.1 -40.1 18.1 -39.45 18.25 -39.0 18.55 L-38.3 19.0 -36.75 19.35 -38.05 19.2 -38.2 19.2 M-40.4 37.15 L-40.65 37.25 -40.55 37.25 -40.85 37.35 Q-43.8 38.85 -44.85 41.85 -45.05 42.45 -44.75 43.05 L-43.5 45.2 -43.55 45.2 -44.2 44.6 -43.6 45.25 -43.65 45.25 Q-46.7 43.2 -45.45 40.0 -45.1 39.2 -44.4 38.7 -42.6 37.45 -40.85 37.2 L-41.25 37.3 -40.9 37.25 -40.3 37.1 -40.4 37.15 M-14.35 66.7 Q-15.6 72.95 -9.2 74.5 L-5.7 75.0 -5.75 75.1 -6.5 75.85 -6.65 75.95 -7.85 76.2 -8.25 76.25 Q-15.3 75.95 -15.45 69.2 -15.45 67.5 -14.35 66.7 M-23.2 64.65 Q-26.25 64.55 -26.65 62.05 L-26.65 62.0 Q-24.55 63.0 -22.75 64.3 L-22.75 64.4 -22.8 64.5 -23.0 64.65 -23.2 64.65" fill="#fdc43e" fill-rule="evenodd" stroke="none"/>
    <path d="M1.65 -1.4 L1.45 -1.6 1.4 -1.55 1.4 -1.65 Q-1.05 -4.3 -0.25 -8.2 L-0.2 -8.25 -0.15 -7.95 0.05 -9.15 Q0.1 -7.25 1.2 -5.45 2.1 -4.0 1.85 -2.45 L1.5 -1.7 1.75 -1.45 1.65 -1.4 M17.9 -10.85 Q17.7 -11.45 18.7 -12.05 L19.05 -12.5 19.5 -12.35 Q18.9 -11.4 17.9 -10.85 M26.85 -18.7 L26.85 -18.75 Q27.8 -20.45 29.6 -18.95 31.2 -17.65 30.85 -15.85 29.85 -18.4 26.85 -18.7 M47.55 4.25 L54.9 4.05 Q56.45 3.6 56.75 2.15 57.45 3.0 56.7 4.1 55.75 5.45 54.0 5.55 50.65 5.35 47.55 4.3 L47.55 4.25 M49.05 29.0 L48.85 29.35 47.8 29.7 47.4 29.85 Q43.6 30.3 41.65 27.75 41.25 27.25 41.25 26.7 L43.45 28.05 Q46.05 29.5 49.05 29.0 M35.85 12.35 L35.95 12.55 35.85 12.45 Q32.3 10.25 27.7 11.7 L25.05 12.3 Q24.1 12.5 23.4 12.95 L23.4 12.8 23.25 13.05 Q23.3 12.0 24.4 10.8 28.3 6.65 33.75 5.7 L33.95 5.8 Q35.9 8.8 35.85 12.35 M25.8 23.85 Q28.05 29.25 28.15 35.15 28.2 37.3 29.35 39.1 31.85 42.85 35.6 45.3 L35.75 45.45 Q39.15 47.35 41.4 50.7 L41.35 50.7 41.5 50.8 37.0 51.0 37.0 51.1 Q33.7 44.4 25.95 44.0 L24.45 43.85 24.25 44.05 24.3 43.8 23.95 43.75 23.9 43.65 24.4 43.6 25.1 42.3 Q27.7 38.35 27.3 34.1 L27.15 32.85 26.8 31.35 Q26.4 30.0 25.4 28.95 20.15 23.4 12.3 22.7 4.6 22.0 -2.0 25.75 L-3.65 26.7 Q-2.2 27.3 -0.85 28.2 L-0.8 28.2 1.25 29.7 Q6.3 33.75 7.55 39.85 8.3 43.5 7.3 46.75 L6.75 48.55 6.8 48.05 6.45 48.85 7.0 46.05 6.85 41.65 Q6.65 40.15 6.05 38.8 L4.7 36.3 Q-2.45 38.25 -7.35 43.9 L-7.4 44.2 -7.45 44.0 -7.55 44.15 -7.45 43.65 Q-7.8 40.15 -10.15 37.45 -16.45 39.1 -21.9 42.95 L-24.2 44.65 -24.3 44.85 -24.3 44.75 -24.6 45.05 -24.3 44.3 Q-24.1 43.3 -23.1 42.35 -17.6 37.3 -11.25 33.35 -9.35 32.2 -7.45 31.15 L-18.75 29.8 -22.7 30.0 -22.8 30.0 -22.85 30.05 -22.85 29.95 -22.95 29.85 -22.85 29.8 Q-22.75 28.1 -20.9 26.85 -19.15 25.6 -18.35 23.6 -17.7 21.95 -17.65 20.3 -17.6 20.0 -16.5 19.8 -11.8 18.95 -7.45 17.05 -7.6 14.45 -8.1 11.75 L-8.9 8.05 Q-9.35 6.4 -8.75 4.7 -8.55 4.1 -8.65 3.45 -8.7 2.75 -8.9 2.25 L-8.6 2.45 -8.55 2.3 Q-6.15 7.05 -2.0 11.05 L0.3 13.1 5.4 9.35 Q8.45 6.85 10.8 4.1 11.0 3.6 12.25 3.4 13.95 3.15 15.5 2.3 L18.0 1.2 18.05 1.1 18.15 1.05 18.1 1.2 18.3 1.15 18.1 1.3 Q16.9 7.2 19.3 12.2 21.8 17.35 23.45 19.75 25.1 22.15 25.8 23.85 M13.15 63.5 Q12.2 60.35 13.3 57.4 L13.35 57.35 Q13.6 58.25 13.5 59.6 L13.55 62.55 Q13.6 63.2 13.15 63.5 M-48.2 20.9 Q-47.45 19.55 -45.8 19.1 L-42.45 19.0 Q-46.95 19.7 -48.65 23.65 -49.05 22.35 -48.2 20.9 M-9.2 75.8 Q-11.6 75.4 -13.35 73.75 -12.6 73.8 -11.65 74.4 -10.3 75.3 -8.95 75.45 L-8.95 75.5 -9.0 75.65 -9.2 75.75 -9.2 75.8" fill="#fefd9a" fill-rule="evenodd" stroke="none"/>
    <path d="M32.4 9.85 L33.0 10.0 32.45 10.0 32.55 10.35 32.5 10.35 32.15 10.05 26.55 10.8 Q26.55 10.45 26.9 10.2 27.05 9.4 28.35 8.65 29.95 7.75 31.2 8.1 L31.15 7.6 31.15 7.55 32.4 9.85 M21.2 22.3 L19.25 21.0 Q15.75 18.4 11.45 17.75 4.25 16.65 -1.8 20.8 L-3.65 22.15 Q-6.75 24.9 -8.65 28.5 L-7.95 28.75 -8.1 28.75 -16.2 27.05 -16.7 27.3 -16.85 26.9 -16.95 26.9 -16.95 26.85 -16.85 26.85 -15.9 26.1 Q-14.85 25.5 -14.15 24.55 -13.55 23.7 -13.6 22.8 L-13.3 23.2 Q-8.75 22.45 -5.0 20.15 -6.5 15.45 -6.1 10.4 L-6.55 9.65 -6.55 9.55 Q-6.3 9.65 -6.05 9.85 L-6.0 9.55 Q-6.0 9.35 -5.8 9.5 L-5.85 10.0 -4.75 11.2 Q-2.6 14.1 0.05 16.4 0.3 16.0 1.3 15.7 6.4 14.15 10.55 10.85 13.6 8.45 16.0 5.7 L16.0 5.75 Q14.5 9.25 14.85 13.05 14.95 14.5 15.8 15.65 18.3 18.9 21.45 21.6 22.55 22.5 22.2 23.45 L21.2 22.3 M1.35 34.85 Q-2.5 36.35 -5.7 39.1 L-5.8 39.75 -5.85 39.25 -5.95 39.35 -5.9 39.0 Q-6.3 36.55 -8.0 34.75 L-8.0 34.8 -8.1 34.85 -8.1 34.65 -8.15 34.6 -8.4 34.1 -7.9 34.15 -6.7 33.1 -3.8 31.3 -3.25 31.05 -3.3 31.0 -3.3 30.95 -3.15 31.05 -2.75 31.15 -2.9 31.2 Q-0.55 32.8 1.4 34.8 L1.45 34.85 1.35 34.85 M26.9 42.2 L28.05 39.2 28.1 39.2 28.15 39.6 Q29.75 41.4 31.0 43.5 L31.2 43.65 31.1 43.65 31.0 43.6 31.0 43.65 30.95 43.6 26.9 42.35 26.85 42.45 26.85 42.35 26.6 42.25 26.6 42.2 26.9 42.2" fill="#ffffff" fill-rule="evenodd" stroke="none"/>
    <path d="M12.0 -99.8 Q12.85 -98.4 12.65 -96.8 L12.4 -97.5 Q10.6 -99.2 8.1 -99.95 3.8 -101.25 0.2 -98.95 -0.5 -98.5 -0.7 -97.7 -1.8 -92.75 2.95 -90.9 5.85 -89.75 7.55 -87.25 8.8 -85.4 7.7 -83.45 5.5 -79.45 1.75 -76.65 1.1 -76.15 0.5 -76.0 L0.2 -75.8 0.35 -76.0 0.25 -76.0 0.35 -76.05 1.95 -79.3 Q2.5 -80.45 2.3 -81.8 1.65 -87.3 -2.85 -90.9 -5.15 -92.75 -5.95 -95.55 -6.95 -99.0 -4.2 -101.3 -0.9 -104.05 3.4 -104.0 9.1 -104.35 12.0 -99.8 M1.65 -113.35 Q5.4 -112.6 8.55 -111.0 21.0 -106.85 23.0 -94.15 23.45 -91.5 22.5 -89.0 18.55 -78.5 10.6 -70.35 3.95 -63.5 7.4 -55.4 8.75 -52.3 11.6 -50.8 L14.4 -50.0 Q7.35 -50.1 2.55 -55.7 -2.95 -62.15 2.65 -68.65 L14.55 -82.0 Q21.35 -89.25 19.15 -98.55 18.35 -101.85 16.05 -104.4 9.85 -111.2 1.4 -113.35 L1.65 -113.35 M50.95 -90.7 Q56.75 -90.7 58.1 -85.35 58.6 -83.3 57.95 -81.25 56.2 -75.4 51.45 -71.55 46.85 -67.75 41.5 -65.05 L38.55 -63.9 37.8 -63.45 37.55 -63.5 Q43.5 -67.35 48.5 -72.5 52.3 -76.45 52.65 -81.75 52.7 -82.7 52.3 -83.55 50.55 -87.2 46.5 -85.9 44.2 -85.15 42.3 -84.15 44.8 -89.75 50.75 -90.65 L50.95 -90.7 M69.0 -54.6 Q74.4 -53.7 76.35 -48.9 77.4 -46.3 76.7 -43.6 75.3 -38.1 69.8 -36.75 L67.45 -36.8 Q65.0 -37.55 62.75 -38.85 60.75 -39.95 58.65 -40.4 L57.3 -40.55 57.25 -40.6 56.25 -40.65 58.9 -40.7 Q60.75 -40.6 62.65 -39.6 L64.6 -39.1 Q69.2 -38.85 71.8 -42.65 74.55 -46.65 72.85 -51.15 72.3 -52.6 71.25 -53.5 L71.1 -53.55 Q69.8 -54.0 68.9 -54.6 L69.0 -54.6 M38.0 -84.05 L38.0 -84.0 Q37.2 -82.2 38.4 -80.75 L38.45 -80.7 38.55 -80.6 Q36.95 -79.65 36.25 -81.5 35.8 -82.7 36.75 -83.7 L37.75 -84.35 38.1 -84.2 38.1 -84.15 38.0 -84.1 38.0 -84.05 M1.2 -76.8 L1.05 -76.6 1.25 -76.75 1.2 -76.8 M16.55 -50.95 Q16.25 -51.0 16.55 -51.15 L17.0 -51.1 Q21.9 -53.5 25.05 -58.05 L24.9 -57.4 Q24.6 -55.25 25.0 -52.9 25.45 -50.2 28.05 -49.0 31.0 -47.65 29.7 -45.1 29.2 -44.1 28.1 -43.65 23.75 -41.8 19.15 -41.0 19.45 -38.6 21.9 -37.15 L22.95 -36.3 Q24.15 -34.9 23.95 -33.35 L24.15 -33.15 24.15 -33.1 23.9 -33.25 23.9 -33.2 23.9 -33.25 Q18.8 -36.7 12.55 -34.8 9.6 -33.9 7.5 -32.05 L7.35 -31.55 7.3 -35.15 Q7.15 -38.15 5.75 -40.85 4.8 -42.65 3.15 -43.85 0.0 -46.2 -3.95 -45.35 L-4.0 -45.35 -4.1 -45.25 Q-2.9 -47.4 -2.8 -49.8 L-2.8 -49.85 -2.75 -49.9 -2.7 -49.95 -2.65 -49.95 Q0.85 -46.85 5.65 -45.75 11.45 -44.45 17.4 -44.2 L19.25 -44.05 Q20.2 -45.25 20.85 -46.8 21.25 -47.7 20.65 -48.5 19.3 -50.25 17.15 -50.8 L16.35 -50.8 16.65 -50.9 16.55 -50.95 M28.9 -26.35 Q30.3 -22.15 28.95 -17.65 L28.85 -16.6 Q29.1 -13.45 32.45 -13.75 33.4 -13.85 34.1 -14.45 36.95 -17.1 34.55 -20.1 33.7 -21.15 32.7 -20.4 L32.45 -20.4 32.05 -19.95 Q33.2 -22.3 36.25 -21.55 37.8 -21.15 38.4 -19.65 40.05 -15.65 36.85 -12.65 33.85 -9.85 30.05 -11.4 26.4 -12.9 27.5 -16.55 L28.95 -21.7 Q29.15 -22.55 29.0 -23.45 L28.95 -25.2 28.9 -26.35 M18.45 -20.0 L18.6 -20.15 18.6 -20.25 18.7 -20.2 18.75 -20.25 18.75 -20.15 Q24.35 -17.1 24.5 -10.7 24.55 -6.7 20.55 -5.45 17.15 -4.35 13.95 -5.3 11.75 -5.55 9.8 -6.5 L12.3 -6.0 Q17.35 -4.5 20.75 -8.1 22.05 -9.55 21.4 -11.35 20.8 -12.95 19.5 -14.1 16.6 -16.7 18.45 -20.0 M32.7 -6.25 Q32.7 -7.55 34.15 -8.5 37.95 -11.0 42.65 -10.4 L43.85 -10.5 Q47.4 -11.7 48.2 -15.25 L48.5 -18.0 48.55 -18.05 48.75 -16.2 48.8 -16.2 48.85 -16.8 Q49.15 -14.4 48.35 -11.95 46.8 -7.05 41.75 -7.45 L39.0 -7.8 Q35.4 -8.3 32.65 -6.2 L32.7 -6.25 M-16.05 -100.0 Q-10.15 -100.6 -7.9 -95.45 -6.55 -92.35 -9.25 -90.6 -9.95 -90.1 -10.6 -90.4 L-10.2 -90.45 Q-8.0 -92.35 -10.1 -94.55 -12.65 -97.25 -14.9 -94.65 -15.95 -93.5 -15.4 -92.05 -14.55 -89.65 -11.9 -88.95 -7.7 -87.8 -6.6 -83.9 -6.3 -82.85 -6.55 -81.75 -7.3 -78.75 -9.8 -77.4 L-9.85 -77.05 -9.95 -77.3 -10.0 -77.3 -10.1 -77.4 -10.0 -77.45 -10.25 -78.75 Q-10.85 -84.15 -15.8 -86.65 L-20.1 -88.95 Q-22.35 -90.2 -23.3 -92.5 -23.8 -93.7 -23.3 -94.9 -21.8 -98.3 -18.15 -99.5 L-16.05 -100.0 M-18.75 -79.05 Q-19.15 -77.75 -20.05 -76.95 -20.7 -76.2 -21.7 -75.95 -18.1 -78.95 -20.65 -82.65 -21.05 -83.2 -21.75 -83.15 -27.35 -82.9 -27.3 -77.6 -27.25 -75.45 -25.65 -73.9 -19.9 -68.35 -12.6 -71.15 -11.05 -71.75 -9.95 -72.5 L-10.0 -72.65 -9.8 -72.6 -9.55 -72.8 -9.7 -72.55 Q-4.95 -71.3 -0.4 -74.0 L-0.4 -73.95 -0.1 -74.15 Q0.0 -73.4 -1.25 -72.55 -6.4 -69.3 -6.95 -63.55 L-6.5 -63.0 -6.95 -63.3 -7.0 -62.75 -7.3 -63.55 Q-8.85 -64.6 -10.75 -65.65 -13.2 -66.95 -15.95 -67.3 -20.8 -67.9 -25.1 -70.0 -26.4 -70.65 -27.35 -71.75 -30.75 -75.75 -29.35 -80.55 -28.2 -84.7 -23.75 -84.95 -19.55 -85.55 -18.65 -81.95 -18.3 -80.5 -18.75 -79.05 M-33.85 -53.3 Q-35.9 -53.45 -36.45 -55.7 -37.05 -58.3 -35.2 -60.15 -31.85 -63.5 -27.15 -63.65 -22.65 -64.1 -20.25 -60.65 -19.45 -59.55 -19.95 -58.25 -20.85 -55.9 -22.35 -53.8 -22.95 -52.95 -22.85 -51.8 L-22.75 -50.95 -22.7 -50.6 -23.05 -51.15 Q-23.8 -51.7 -23.55 -52.85 -23.15 -54.65 -22.35 -56.35 -20.5 -60.25 -24.75 -61.35 L-28.45 -61.45 Q-32.3 -60.65 -33.6 -57.2 -34.5 -54.85 -33.25 -52.85 L-33.85 -53.3 M-41.45 -34.35 Q-37.5 -33.8 -34.35 -31.1 L-32.4 -29.75 -32.35 -29.65 -32.55 -29.7 -33.25 -29.7 Q-34.65 -29.75 -37.3 -30.5 -39.95 -31.3 -40.6 -31.15 -44.95 -30.3 -45.95 -26.05 -46.45 -24.05 -45.55 -22.2 -44.9 -20.85 -43.85 -19.9 L-44.0 -19.95 -43.65 -19.7 Q-45.5 -20.4 -46.75 -22.3 -48.7 -25.3 -47.95 -28.75 -47.1 -32.25 -43.7 -33.8 L-41.45 -34.35 M-10.8 -12.1 L-10.6 -12.5 -10.55 -12.35 -10.15 -12.7 Q-10.2 -12.15 -10.75 -11.55 L-10.85 -11.4 Q-13.95 -6.65 -18.4 -3.1 L-19.0 -2.4 Q-20.55 0.15 -18.0 1.45 L-16.9 1.6 -13.7 0.7 Q-12.85 0.2 -12.0 -0.15 -15.8 3.3 -20.85 3.0 -22.75 2.9 -23.45 1.2 -23.65 0.7 -23.45 0.2 -21.75 -3.9 -17.85 -6.2 -14.0 -8.5 -11.05 -11.85 L-10.8 -12.1 M-1.85 -10.3 Q-2.35 -9.35 -3.0 -8.35 -3.4 -7.75 -4.1 -7.5 -7.4 -6.35 -8.9 -9.0 L-8.95 -9.7 -8.05 -11.15 Q-7.35 -12.55 -5.7 -13.0 -5.7 -12.5 -6.65 -12.1 -6.6 -11.7 -7.4 -11.15 L-8.25 -10.45 Q-9.0 -8.7 -6.8 -8.15 -5.7 -7.9 -4.9 -8.65 -3.7 -9.75 -2.35 -10.5 L-2.1 -10.55 -1.8 -10.5 -1.8 -10.45 -1.75 -10.4 -1.85 -10.3" fill="#aa0909" fill-rule="evenodd" stroke="none"/>
    <path d="M3.8 -103.15 Q6.75 -103.15 8.75 -101.1 L8.75 -101.05 8.65 -101.1 8.7 -101.05 8.7 -101.0 7.1 -101.7 Q5.0 -102.9 2.65 -102.35 -1.9 -101.3 -2.85 -97.1 L-2.8 -95.95 Q-1.2 -91.35 3.35 -89.25 5.95 -88.1 5.85 -85.25 5.8 -83.85 4.6 -83.0 L4.2 -83.05 4.05 -83.0 4.0 -83.05 Q5.6 -86.05 3.05 -88.35 1.6 -89.65 -0.25 -90.55 -4.05 -92.4 -4.8 -96.2 -5.0 -97.2 -4.55 -98.05 -2.65 -101.9 1.85 -102.8 L3.8 -103.15 M47.1 -87.7 L47.9 -88.3 Q49.5 -89.65 52.0 -89.6 56.2 -89.2 56.45 -85.2 56.55 -82.75 55.55 -80.45 54.4 -77.7 52.55 -75.5 L52.4 -75.25 52.35 -75.25 52.4 -75.3 50.95 -73.85 52.8 -76.25 Q54.25 -79.95 54.55 -84.05 54.8 -87.5 51.7 -88.4 L49.3 -88.35 47.25 -87.7 47.1 -87.7 M74.55 -50.75 L75.25 -49.15 Q76.55 -45.3 73.8 -41.55 L72.0 -39.6 Q70.9 -38.5 69.5 -38.1 74.7 -41.5 74.8 -47.6 74.8 -49.1 74.2 -50.45 74.1 -50.75 74.35 -50.85 L74.3 -50.95 74.35 -51.0 74.4 -50.95 74.55 -50.75 M21.55 -92.1 Q21.5 -88.1 19.3 -84.3 17.8 -81.7 15.95 -79.4 12.75 -75.35 8.95 -71.8 5.8 -68.9 4.5 -64.85 3.8 -62.6 4.25 -60.3 4.7 -57.8 5.65 -55.6 1.4 -58.0 2.0 -62.95 2.3 -65.8 4.05 -68.15 6.75 -71.85 10.35 -74.8 18.0 -81.05 20.65 -90.3 20.95 -91.35 21.55 -92.1 M20.8 -51.2 Q22.45 -52.0 23.8 -53.2 23.5 -50.3 25.8 -48.3 27.65 -46.65 25.35 -45.05 23.7 -43.95 21.85 -44.0 23.75 -46.55 22.55 -49.35 22.05 -50.45 20.9 -51.05 L20.8 -51.2 M18.1 -39.1 Q18.9 -38.3 19.05 -37.4 15.65 -38.9 11.9 -37.4 10.7 -36.85 9.7 -36.55 L9.7 -36.45 9.65 -36.5 9.25 -36.4 9.5 -36.75 Q8.7 -38.25 8.15 -40.2 7.6 -42.35 6.25 -44.1 L6.35 -44.2 Q6.15 -44.55 6.8 -44.5 11.65 -42.2 17.35 -42.55 L17.4 -42.5 Q17.0 -41.5 17.2 -40.5 17.4 -39.7 18.1 -39.1 M36.35 -16.3 Q36.9 -18.5 35.8 -20.3 L35.9 -20.35 Q38.4 -18.5 37.6 -15.2 37.3 -13.85 36.15 -13.2 33.8 -11.9 31.15 -12.3 L31.15 -12.55 31.25 -12.75 Q35.45 -12.65 36.35 -16.3 M22.2 -13.2 L22.15 -13.15 Q20.35 -15.1 20.25 -17.35 22.2 -15.7 22.2 -13.2 M36.4 -8.8 Q39.35 -10.75 43.2 -10.0 L44.5 -10.1 46.5 -11.2 Q46.5 -10.25 45.4 -9.5 43.05 -7.9 40.05 -8.6 L36.4 -8.8 M-18.1 -93.75 Q-18.3 -92.15 -17.1 -91.2 -19.65 -90.2 -20.75 -92.9 -22.0 -96.05 -19.1 -98.15 -17.8 -99.1 -16.1 -99.25 -12.55 -99.35 -11.15 -96.45 L-11.15 -96.4 Q-13.95 -98.3 -16.6 -96.3 -17.85 -95.35 -18.1 -93.75 M-27.9 -76.65 Q-27.25 -73.2 -24.2 -71.3 -22.9 -70.5 -21.4 -70.2 L-14.75 -69.5 -11.65 -69.8 -9.6 -70.25 -10.05 -70.5 -9.95 -70.6 -7.45 -70.3 -7.4 -70.25 Q-8.25 -69.25 -8.45 -67.85 L-8.65 -66.35 -8.5 -66.15 -8.65 -66.15 -8.65 -66.1 -8.7 -66.2 -10.75 -66.85 Q-13.5 -67.95 -16.55 -68.4 -20.65 -69.05 -24.45 -70.75 L-25.75 -71.55 Q-29.0 -74.55 -28.45 -79.15 -28.1 -82.15 -25.55 -83.75 -25.6 -83.15 -26.45 -82.4 -27.4 -81.55 -27.75 -80.4 L-27.95 -78.9 Q-28.1 -77.8 -27.9 -76.65 M-27.05 -63.05 Q-22.8 -63.6 -20.8 -60.25 L-20.85 -60.2 Q-22.25 -61.25 -24.2 -61.65 L-30.5 -61.45 Q-31.75 -61.1 -32.8 -60.25 L-34.0 -58.9 -35.05 -57.1 Q-35.35 -58.4 -34.4 -59.75 -32.6 -62.25 -29.55 -62.8 L-27.05 -63.05 M-43.55 -31.3 Q-46.85 -29.55 -47.1 -26.0 -47.1 -25.85 -47.3 -25.9 -47.45 -27.5 -46.85 -29.0 -45.75 -32.0 -42.6 -32.8 -39.3 -32.8 -36.35 -31.55 L-36.35 -31.5 -41.7 -31.8 Q-42.7 -31.8 -43.55 -31.3 M-21.0 -2.75 L-20.5 -2.7 -20.1 -3.2 -20.0 -3.25 Q-19.9 -2.3 -20.45 -1.0 -21.0 0.35 -19.9 1.15 -22.5 1.6 -21.5 -1.45 L-21.0 -2.75 M-3.25 -8.65 L-3.25 -8.6 Q-3.8 -8.0 -4.5 -8.1 L-3.6 -8.95 -3.5 -9.0 -3.25 -8.65" fill="#fdc43e" fill-rule="evenodd" stroke="none"/>
    <path d="M55.55 -82.95 L55.1 -82.05 Q55.25 -83.75 55.0 -85.7 54.7 -87.95 52.4 -88.8 52.0 -89.0 52.35 -89.15 56.7 -87.6 55.55 -82.95 M7.35 -70.1 Q3.55 -66.65 3.65 -61.45 L3.8 -58.6 Q2.9 -59.7 2.95 -61.65 3.15 -67.75 7.95 -71.35 8.25 -70.9 7.35 -70.1 M23.85 -50.1 L24.65 -48.55 Q26.0 -46.55 24.0 -45.3 23.65 -45.05 23.3 -45.15 24.05 -48.15 22.3 -50.75 L22.05 -51.05 Q22.45 -51.6 23.1 -51.75 L23.85 -50.1 M15.85 -40.35 L16.15 -39.8 Q16.35 -39.55 16.65 -39.45 L16.85 -39.1 Q14.2 -39.65 11.55 -38.55 L10.1 -38.2 9.85 -40.05 Q9.4 -41.5 8.45 -42.65 8.3 -42.85 8.55 -42.9 11.8 -41.15 15.7 -41.7 15.65 -41.0 15.85 -40.35 M-4.15 -96.45 Q-4.3 -99.0 -2.25 -100.45 -2.15 -99.85 -2.95 -98.95 -3.5 -98.3 -3.5 -97.4 -3.55 -94.6 -1.75 -92.55 -3.95 -93.7 -4.15 -96.45 M-14.35 -97.9 Q-17.85 -97.65 -18.8 -94.4 -19.05 -93.65 -18.9 -92.95 -20.6 -93.6 -19.85 -95.65 -18.95 -98.0 -16.5 -98.6 -15.15 -98.85 -14.4 -97.95 L-14.35 -97.9 M-23.75 -62.3 Q-27.65 -62.85 -31.5 -61.4 L-32.4 -61.45 Q-30.55 -62.5 -28.3 -62.6 L-26.75 -62.8 Q-25.1 -63.0 -23.75 -62.3 M-9.4 -69.0 L-9.65 -67.7 -9.75 -67.5 -9.85 -67.7 -13.05 -68.05 Q-14.8 -68.4 -16.15 -69.15 L-9.35 -69.4 Q-9.25 -69.15 -9.4 -69.0 M-41.05 -32.35 Q-43.05 -32.4 -44.55 -31.1 -45.1 -30.6 -45.55 -30.6 L-45.05 -31.35 Q-43.9 -32.2 -42.55 -32.55 -41.5 -33.0 -41.05 -32.35 M-20.75 -0.2 L-20.8 -0.15 -21.25 -0.35 Q-21.35 -1.5 -20.75 -2.25 -20.5 -1.4 -20.75 -0.2" fill="#fefd9a" fill-rule="evenodd" stroke="none"/>
    <path d="M14.75 -41.1 L14.75 -40.65 14.7 -40.5 14.6 -40.3 14.4 -39.7 10.75 -39.55 11.0 -40.0 11.05 -40.15 10.9 -41.15 10.95 -41.2 11.3 -41.35 14.7 -41.15 14.75 -41.1" fill="#ffffff" fill-rule="evenodd" stroke="none"/>
  </g>
</svg>
