<?xml version="1.0" encoding="UTF-8" standalone="no"?>
<svg xmlns:ffdec="https://www.free-decompiler.com/flash" xmlns:xlink="http://www.w3.org/1999/xlink" ffdec:objectType="shape" height="202.6px" width="135.9px" xmlns="http://www.w3.org/2000/svg">
  <g transform="matrix(1.0, 0.0, 0.0, 1.0, 55.95, 117.4)">
    <path d="M10.95 -15.75 L11.75 -15.3 Q12.45 -14.9 11.95 -14.3 7.15 -17.7 3.2 -13.65 0.9 -11.4 2.75 -8.8 6.2 -3.9 1.75 -0.6 L1.9 -0.5 1.85 -0.15 1.4 0.15 Q-5.15 -4.65 -3.65 -12.5 -3.3 -14.45 -1.8 -15.8 4.2 -21.35 10.65 -16.15 L10.95 -15.75 M16.45 -9.9 L16.4 -10.0 16.9 -10.1 Q17.95 -17.1 25.35 -16.55 28.8 -16.3 28.15 -13.05 27.8 -11.55 26.9 -11.3 26.4 -10.65 25.6 -11.05 27.7 -15.1 23.9 -13.9 L23.3 -13.25 Q22.05 -9.95 18.3 -9.55 L17.3 -9.4 17.3 -9.3 16.9 -9.55 16.45 -9.9 M37.2 -19.55 Q36.0 -13.55 30.1 -10.45 28.4 -9.55 27.1 -8.05 L24.8 -5.7 24.4 -5.95 24.35 -6.05 27.15 -9.35 27.15 -9.4 27.45 -9.7 28.3 -10.6 Q30.95 -13.7 29.85 -17.4 29.55 -18.55 28.35 -19.05 26.05 -20.05 24.05 -18.7 22.9 -17.9 21.9 -18.05 L22.2 -18.5 Q21.4 -19.7 23.8 -21.5 29.95 -26.1 36.0 -22.35 37.55 -21.4 37.2 -19.55 M48.9 -2.65 L49.2 -2.85 Q49.0 -2.9 48.95 -3.15 53.7 -8.45 60.2 -4.15 65.2 -0.85 63.65 5.1 62.0 11.65 55.3 12.8 48.55 12.85 45.6 6.5 45.05 5.35 43.8 4.9 L41.95 4.15 41.85 4.1 40.65 3.5 42.25 3.3 Q46.65 -0.1 51.9 3.55 L53.6 3.65 Q57.35 1.85 54.3 -0.8 51.85 -2.9 48.9 -2.65 M53.65 27.15 L53.7 26.4 53.75 26.3 53.85 26.15 53.3 25.8 Q55.95 25.2 56.7 28.65 58.3 36.3 50.3 37.9 39.8 38.15 38.25 28.7 37.85 26.2 38.05 23.7 38.3 20.75 36.75 18.65 L36.8 18.65 35.8 18.35 Q40.3 17.45 42.9 21.65 45.05 25.05 45.8 29.0 46.1 30.5 47.8 30.85 53.85 32.0 53.65 27.15 M34.85 4.4 L35.05 4.65 Q31.95 7.95 35.05 11.0 37.1 12.95 36.7 15.65 33.55 13.8 29.65 13.75 27.8 13.7 26.9 14.9 27.7 15.65 28.15 17.25 29.75 22.95 26.7 28.45 23.5 34.25 27.9 38.75 30.5 41.4 34.2 42.2 41.05 43.6 45.7 48.55 49.65 52.75 47.0 57.8 44.65 62.35 39.65 63.05 34.0 62.45 35.15 56.65 35.75 53.75 38.15 52.75 L37.3 55.35 Q37.6 58.2 41.15 56.3 41.9 55.9 41.95 54.95 42.4 49.3 36.25 50.3 33.85 50.65 32.35 52.7 28.35 58.2 34.35 62.1 L37.55 64.55 Q42.85 69.1 37.55 74.05 34.75 76.65 31.0 77.05 27.55 77.0 25.95 74.75 L25.3 73.7 25.05 72.95 25.05 72.85 26.9 74.1 Q29.2 74.8 31.75 73.65 33.0 73.1 32.4 71.75 31.15 69.0 28.35 67.35 23.15 64.3 26.4 59.3 28.55 56.0 28.7 52.3 28.75 50.9 27.4 50.5 21.4 48.7 19.1 54.2 18.25 56.35 19.15 58.6 22.3 66.45 17.65 73.2 15.8 75.85 12.75 76.9 L10.25 77.4 9.65 77.55 Q9.2 77.6 9.05 77.2 8.75 77.05 8.55 76.75 L8.5 76.7 10.4 76.5 Q12.7 75.3 14.15 73.0 15.0 71.6 13.85 70.4 11.8 68.15 10.2 65.6 7.3 60.85 11.25 56.9 15.7 52.4 19.75 47.5 26.8 38.95 19.15 31.4 15.5 27.8 10.95 27.0 15.1 31.4 14.25 38.1 13.35 45.7 8.55 51.9 0.45 62.35 5.1 74.7 7.25 80.35 11.25 84.75 L10.95 85.15 10.85 85.2 10.75 85.2 10.65 85.2 Q-2.15 78.3 -2.25 63.6 -2.35 56.1 0.5 49.15 2.35 44.55 2.85 39.75 -3.6 42.65 -9.1 47.65 L-9.1 47.75 -9.25 47.8 -9.7 47.45 -9.75 47.35 -9.5 47.05 Q-10.65 43.3 -12.05 39.5 -18.2 43.3 -22.25 49.55 -23.9 52.1 -24.15 55.1 L-24.6 60.55 -24.85 59.85 Q-25.05 60.05 -25.35 60.05 -33.5 59.7 -34.15 52.3 -34.3 50.85 -33.25 49.75 -28.7 44.95 -23.2 41.1 -16.15 36.1 -17.0 28.75 -20.7 28.8 -24.5 29.9 L-24.5 30.1 -24.75 30.3 -24.8 30.0 -25.0 30.05 -25.45 29.7 -25.5 29.6 -24.9 29.25 Q-25.15 25.65 -20.65 24.0 -16.0 22.3 -15.95 17.35 -15.95 16.15 -14.9 15.55 -12.25 14.0 -9.0 14.15 -12.3 11.5 -8.75 7.4 -7.75 6.2 -6.15 6.55 L1.25 7.55 Q7.6 8.1 10.95 2.5 11.8 1.1 13.45 0.55 15.75 -0.25 17.75 0.6 L17.35 0.65 Q15.65 10.75 22.8 17.75 21.1 10.8 27.65 6.05 31.15 3.45 34.95 3.95 35.15 4.0 34.95 4.4 L34.85 4.4 M-27.95 -1.15 L-26.3 1.15 Q-25.25 1.7 -24.85 2.45 -24.7 2.75 -25.0 2.8 L-24.0 3.95 -24.2 3.95 -26.65 2.3 Q-34.6 -0.7 -33.35 -9.5 -32.35 -16.15 -25.8 -16.15 -20.95 -16.15 -19.85 -12.55 L-19.3 -12.25 Q-18.8 -12.0 -19.05 -11.45 L-19.7 -11.75 -19.65 -11.55 -19.85 -11.45 -20.1 -11.9 Q-24.55 -13.35 -27.75 -9.4 -30.95 -5.4 -27.95 -1.15 M-12.0 -4.9 Q-14.3 -8.7 -17.2 -5.15 -19.15 -2.75 -16.45 -1.0 -15.35 -0.3 -15.05 0.7 -16.4 0.6 -17.3 0.05 -20.1 -0.2 -21.65 -3.45 -23.75 -7.8 -19.15 -9.8 -13.2 -12.45 -8.6 -7.85 -4.05 -3.25 -8.85 1.1 -11.1 3.15 -10.35 5.5 L-10.3 5.55 Q-9.45 6.05 -9.95 6.45 L-9.6 7.0 -9.85 7.2 -10.1 7.3 -10.8 6.25 Q-14.7 3.05 -11.9 -1.9 -11.1 -3.4 -12.0 -4.9 M-35.35 19.3 L-30.05 19.6 Q-29.9 19.55 -29.9 19.75 -33.45 22.15 -38.2 19.75 -44.75 16.5 -49.35 21.35 -50.25 22.3 -50.25 23.7 -50.3 28.85 -45.0 30.1 -44.0 30.3 -43.6 31.05 L-43.65 31.2 Q-43.75 31.55 -44.1 31.55 L-44.35 31.5 -45.2 31.7 -46.45 31.8 Q-56.65 30.9 -55.9 21.35 -55.7 18.75 -53.95 16.85 -47.45 9.55 -40.15 16.4 L-37.15 18.7 -35.35 19.3 M-46.95 45.65 Q-45.55 46.7 -43.7 46.7 L-43.65 46.7 -42.45 46.45 Q-42.75 49.1 -46.95 48.65 -53.6 47.0 -50.0 41.3 -48.55 39.05 -46.15 37.7 -42.3 35.6 -39.45 37.3 L-40.8 37.4 Q-44.9 38.9 -47.5 42.6 -48.7 44.3 -46.95 45.65 M-17.65 61.15 L-18.1 61.55 Q-18.8 63.75 -21.3 64.35 L-22.35 64.55 Q-25.45 64.75 -26.45 62.0 L-26.45 61.95 -26.0 62.4 Q-22.4 63.3 -18.85 61.55 L-17.65 61.15 M-13.85 70.6 Q-14.6 73.85 -11.7 75.85 -6.15 79.75 -2.0 74.6 -1.5 73.95 -0.9 74.45 L-1.2 75.35 Q-2.3 80.7 -8.75 81.3 -17.1 79.8 -15.7 71.55 L-15.05 69.4 Q-14.9 68.15 -14.3 67.0 -13.3 68.15 -13.85 70.6" fill="#aa0909" fill-rule="evenodd" stroke="none"/>
    <path d="M2.75 -15.55 L3.95 -15.6 3.95 -15.55 3.2 -15.35 3.25 -15.35 Q1.4 -14.55 0.4 -13.15 -0.15 -11.95 0.15 -10.2 0.4 -8.6 1.05 -7.05 1.85 -5.25 0.45 -4.15 L0.45 -4.3 Q-3.4 -9.4 0.7 -14.6 1.65 -15.85 2.75 -15.55 M18.55 -11.15 Q19.3 -15.25 23.55 -14.9 L23.55 -14.85 Q22.05 -14.4 21.3 -13.05 20.5 -11.6 18.9 -11.05 L18.6 -11.1 18.55 -11.15 M32.65 -14.05 Q32.85 -15.4 32.65 -17.1 32.45 -18.65 31.05 -19.4 L29.85 -20.35 Q32.55 -23.0 34.85 -20.25 35.35 -19.65 35.15 -18.8 34.6 -16.05 32.65 -14.05 M60.0 1.7 Q62.45 3.7 60.6 6.55 58.95 9.05 55.9 9.6 51.6 9.0 48.3 6.5 L48.25 6.4 54.35 6.75 55.8 6.6 Q59.0 5.1 60.0 1.7 M44.6 31.3 Q45.05 33.05 46.95 33.55 50.85 34.55 54.0 32.6 L53.45 33.95 Q52.2 35.6 50.1 35.8 43.4 36.35 41.95 30.15 L40.65 26.5 Q43.7 27.55 44.6 31.3 M24.65 14.95 Q24.45 11.4 27.45 8.7 29.25 7.0 31.5 7.3 29.3 10.05 32.75 12.15 33.15 12.4 32.95 12.8 28.95 10.45 25.65 14.0 L24.65 14.95 M13.35 5.75 Q14.3 4.45 15.4 4.35 L15.3 4.5 15.35 4.45 Q14.9 8.3 16.35 12.05 18.45 17.35 23.0 20.6 25.3 22.25 23.9 24.9 22.8 27.05 22.9 29.15 16.95 21.95 7.2 24.05 L4.15 24.9 5.9 26.8 6.45 27.5 7.55 28.6 Q10.3 32.5 10.1 37.25 9.95 42.05 7.65 46.3 3.65 53.65 1.35 61.65 0.9 63.1 0.9 64.7 0.85 69.7 2.75 74.0 L2.85 74.2 2.75 74.4 2.6 74.45 Q-1.65 66.35 1.75 57.55 4.95 49.3 5.55 40.4 5.85 37.0 4.4 34.0 -2.4 36.15 -7.2 41.8 L-7.35 41.9 Q-7.55 41.3 -7.05 40.6 L-6.55 39.4 Q-5.75 37.55 -7.8 37.5 -10.2 37.45 -12.5 38.35 L-15.15 39.35 -17.2 40.85 -18.6 41.65 Q-21.65 44.3 -24.25 48.4 -26.0 51.2 -26.7 54.45 L-26.8 54.75 Q-26.55 55.3 -27.3 56.05 -28.35 57.1 -29.9 57.1 -32.9 56.95 -32.45 53.8 -31.9 49.7 -28.6 47.0 -24.0 43.2 -18.5 40.65 L-17.15 40.05 Q-12.0 36.65 -10.65 30.75 -10.45 29.95 -10.55 29.15 L-10.55 29.1 Q-12.55 26.35 -16.25 26.65 L-19.1 26.7 -19.2 26.65 -15.95 24.25 -14.85 23.05 Q-12.3 19.25 -7.35 20.0 L-5.05 20.5 Q-7.25 17.15 -7.7 13.15 -7.9 10.9 -5.65 10.55 -2.9 10.1 -0.7 11.4 1.45 11.95 3.45 12.95 L6.8 10.9 9.5 9.15 Q11.65 8.05 13.35 5.75 M23.45 47.1 Q22.85 47.7 22.25 47.4 24.95 45.75 25.2 42.55 L25.2 39.6 28.3 42.0 31.1 44.2 31.05 44.1 33.1 45.25 Q34.35 45.95 35.8 46.0 41.4 46.1 44.75 50.2 46.15 51.9 46.1 54.1 46.1 57.55 43.2 59.45 42.3 60.1 41.2 60.25 L40.8 60.3 Q39.45 60.45 38.45 59.8 L38.8 59.85 38.35 59.6 Q42.0 59.7 43.4 56.3 45.0 52.5 41.75 49.85 40.3 48.7 38.45 48.55 L35.4 48.3 Q33.05 48.65 31.45 50.6 29.7 46.25 24.95 46.5 24.1 46.55 23.45 47.1 M17.9 59.45 Q18.55 61.55 18.7 63.8 19.1 68.4 16.65 71.95 L16.55 71.95 16.5 72.0 16.5 71.95 16.35 71.85 16.35 71.8 16.5 71.6 Q16.35 68.9 13.95 67.1 11.4 65.1 11.1 62.1 11.0 61.15 11.5 60.35 13.2 57.6 15.55 55.6 L15.6 55.4 15.85 55.35 15.95 55.45 15.9 55.6 Q17.25 57.2 17.9 59.45 M-29.4 -1.35 L-29.35 -1.25 -29.35 -1.15 -29.5 -1.05 Q-33.05 -3.95 -31.75 -8.4 -31.3 -10.1 -29.65 -10.9 L-28.15 -11.4 Q-28.2 -10.25 -29.4 -9.55 L-29.85 -9.1 Q-32.15 -5.2 -29.65 -1.4 L-29.4 -1.35 M-9.0 -4.4 Q-8.9 -2.0 -10.0 -0.05 L-10.3 -3.95 -10.65 -5.0 Q-12.05 -7.45 -14.95 -7.6 -12.4 -8.95 -10.15 -6.9 -9.1 -5.9 -9.0 -4.4 M-53.35 21.8 Q-51.5 18.2 -47.9 17.25 L-46.7 16.9 Q-45.95 16.7 -45.4 16.9 L-45.7 16.95 -45.7 17.0 -46.35 17.1 Q-49.9 18.0 -51.9 21.3 -53.0 23.15 -52.6 25.35 -52.15 27.9 -50.1 29.45 L-50.25 29.55 -50.1 29.65 -50.2 29.65 Q-54.55 28.05 -53.95 23.7 -53.85 22.7 -53.35 21.8 M-48.85 42.25 L-48.7 42.2 Q-49.6 43.55 -48.7 44.95 -47.25 47.2 -44.55 47.4 L-44.55 47.45 -44.6 47.5 -44.5 47.5 Q-44.5 47.7 -44.65 47.7 L-44.9 47.8 -45.1 47.9 Q-48.2 48.25 -49.55 45.9 -50.0 45.0 -49.85 44.0 -49.7 42.75 -48.75 42.15 L-48.85 42.25 M-22.35 63.95 L-22.55 63.95 Q-23.25 64.0 -23.5 63.4 L-23.5 63.35 -21.55 63.2 Q-21.55 63.9 -22.35 63.95" fill="#fdc43e" fill-rule="evenodd" stroke="none"/>
    <path d="M0.55 -5.7 L0.45 -5.8 0.4 -5.8 0.35 -5.9 Q-1.05 -7.5 -0.85 -9.75 L-0.85 -9.8 -0.75 -9.65 -0.8 -10.0 -0.75 -10.0 Q0.2 -8.15 0.4 -6.1 L0.6 -5.7 0.55 -5.7 M21.2 -13.6 Q20.5 -12.45 19.3 -11.75 19.15 -12.7 20.35 -13.6 20.85 -13.95 21.2 -13.6 M31.3 -19.9 L31.25 -19.9 Q32.9 -21.3 33.9 -19.6 L34.0 -18.9 Q33.9 -17.6 33.45 -16.55 33.2 -18.65 31.3 -19.9 M52.1 7.1 Q54.65 7.5 57.0 6.4 59.05 5.5 60.05 3.5 60.75 4.6 60.05 6.0 59.0 8.1 56.7 8.55 54.15 8.6 52.1 7.15 L52.1 7.1 M51.2 35.2 L49.9 35.5 49.8 35.5 Q45.5 35.95 43.85 32.55 42.95 30.8 42.4 29.0 44.0 30.45 44.75 32.8 45.25 34.2 46.85 34.6 L51.65 34.75 51.2 35.2 M41.35 48.75 L41.35 48.8 41.3 48.75 41.3 48.85 Q39.65 47.85 37.75 47.4 35.55 47.15 33.2 48.15 32.25 48.55 31.85 49.25 L31.8 49.35 31.75 49.35 Q31.5 49.15 31.6 48.85 30.1 45.25 25.95 45.45 L25.9 45.65 25.8 45.7 25.7 45.5 25.6 45.5 25.7 45.45 Q25.55 45.0 25.8 44.2 L26.15 41.95 26.05 41.85 26.15 41.9 26.15 41.75 26.2 41.95 Q27.9 42.85 29.35 44.5 31.4 46.9 34.7 46.85 L36.2 46.9 Q38.3 47.1 40.2 47.9 L40.45 48.0 Q41.2 48.35 41.3 48.7 L41.35 48.75 M30.75 11.35 Q27.7 10.85 25.75 13.05 L25.75 12.75 25.7 12.85 Q25.65 11.5 26.8 10.15 28.0 8.7 29.5 8.45 L29.75 8.2 29.7 8.4 30.2 8.4 Q29.95 8.5 29.65 8.65 L29.8 10.45 Q30.0 11.15 30.7 11.25 L30.75 11.35 M22.45 24.2 L21.8 25.15 Q20.4 25.95 19.35 24.85 L16.8 23.1 Q12.8 21.3 8.35 22.4 5.3 23.15 2.35 24.35 L3.65 25.65 Q6.5 28.85 7.65 32.95 9.5 39.25 6.9 45.35 L6.25 46.25 6.9 43.75 7.0 38.15 Q6.95 36.55 6.3 35.05 L4.85 32.2 Q-0.15 33.7 -4.35 37.05 L-4.7 37.4 -4.7 37.35 -4.75 37.4 -4.65 37.1 Q-4.5 36.5 -5.05 36.1 -5.65 35.6 -6.45 35.75 L-10.9 36.7 -11.0 36.8 -11.0 36.75 -11.3 36.85 -11.0 36.6 Q-10.8 35.95 -10.0 35.25 -8.8 34.15 -8.45 32.6 -7.25 27.5 -12.1 25.65 L-13.4 25.0 -13.7 25.0 -13.6 24.85 -13.75 24.8 -13.55 24.8 Q-10.9 21.4 -5.85 22.45 L-1.35 23.85 Q-4.3 20.3 -4.85 15.65 -5.05 13.8 -4.8 12.0 L-4.35 11.75 Q-0.95 11.95 2.2 13.7 3.15 14.25 4.2 14.65 7.15 13.35 9.65 11.1 11.8 9.15 14.4 9.5 14.6 9.55 14.6 9.85 14.6 11.2 14.9 12.4 16.9 15.75 19.4 18.9 L19.55 19.0 21.5 20.85 Q22.75 22.4 22.45 24.2 M16.85 67.55 L16.4 68.55 Q15.9 66.9 14.35 65.75 12.35 64.35 12.95 61.85 13.4 60.05 14.8 58.85 L15.75 57.8 Q16.6 58.6 16.85 60.05 17.55 63.85 16.85 67.55 M-23.35 44.9 Q-27.0 49.3 -28.5 54.7 L-28.2 54.65 -28.95 55.15 -29.7 55.35 Q-31.8 55.15 -30.95 53.05 -29.35 49.05 -25.75 46.3 L-24.45 45.25 Q-23.85 44.7 -23.25 44.75 L-22.85 44.4 -23.2 44.75 -23.1 44.8 -23.35 44.9 M-52.55 22.0 L-52.5 22.05 Q-53.45 24.55 -52.85 27.1 L-52.9 27.1 Q-54.1 24.45 -52.55 22.0" fill="#fefd9a" fill-rule="evenodd" stroke="none"/>
    <path d="M28.55 9.65 L28.6 10.45 28.55 10.65 Q27.85 10.85 27.25 11.15 26.95 10.25 28.4 9.65 L28.55 9.65 M1.05 21.5 L0.5 21.75 1.0 21.45 Q-1.9 18.7 -0.45 15.15 L-0.55 15.15 -0.4 15.1 -0.3 14.9 -0.2 14.95 -0.25 15.05 Q1.7 14.65 3.55 16.2 L4.95 17.1 Q8.4 14.5 12.5 12.9 L12.55 12.75 12.6 12.85 Q13.15 12.6 13.15 13.1 L12.75 13.25 13.45 15.05 Q14.4 17.9 16.8 19.85 L18.4 21.4 Q19.5 22.0 19.4 22.8 14.4 18.5 7.45 19.7 4.05 20.25 1.1 21.45 L1.4 21.8 1.35 21.8 1.05 21.5 M3.05 29.55 L2.85 29.7 2.8 30.15 2.65 29.9 -1.3 32.85 -2.9 33.6 Q-4.4 32.35 -6.4 33.65 L-7.65 34.15 Q-7.6 33.6 -6.7 33.1 L-6.1 32.25 Q-5.05 30.95 -4.9 29.25 -4.7 27.35 -6.05 26.3 L-6.4 26.4 Q-6.85 26.5 -6.9 26.1 -1.45 24.7 2.25 28.5 L2.85 29.5 3.05 29.55 M15.45 64.35 Q13.85 63.15 15.3 61.1 L15.3 61.05 Q15.8 62.25 15.7 64.05 L15.45 64.35 M-27.9 50.05 L-27.8 50.05 -27.85 50.2 -27.8 50.2 -27.9 50.25 -29.2 54.05 -29.25 54.1 -29.25 53.9 -29.3 53.9 Q-30.5 51.65 -28.15 50.35 L-27.9 50.05" fill="#ffffff" fill-rule="evenodd" stroke="none"/>
    <path d="M11.6 -100.05 Q11.7 -99.05 11.15 -98.45 L11.05 -97.5 10.3 -99.35 Q8.2 -103.55 3.25 -102.55 -1.05 -101.7 -1.2 -97.75 -1.25 -97.05 -0.65 -96.5 1.9 -94.1 4.95 -92.25 8.35 -90.1 7.8 -86.35 7.55 -84.4 6.3 -82.85 4.8 -80.95 2.9 -79.7 L2.85 -79.75 3.3 -80.1 Q5.4 -82.8 5.05 -86.2 L4.55 -87.5 Q1.55 -91.65 -4.05 -96.0 L-5.1 -96.75 Q-6.0 -97.3 -6.3 -98.4 -7.15 -101.75 -4.25 -104.05 -0.9 -106.7 3.4 -106.6 9.2 -106.9 11.25 -101.75 L11.6 -100.05 M8.05 -116.6 L8.2 -116.6 Q20.75 -111.8 21.1 -98.8 21.35 -91.55 16.55 -86.05 10.05 -78.45 4.8 -70.05 2.95 -67.1 3.15 -63.65 3.3 -60.95 4.45 -58.6 L5.85 -57.9 4.75 -58.0 5.35 -57.0 Q4.4 -57.45 3.75 -58.25 1.5 -59.05 -0.1 -61.4 -1.7 -63.8 -1.05 -66.65 0.55 -73.45 6.35 -77.85 16.55 -85.4 18.45 -97.45 19.7 -105.55 13.8 -111.35 9.7 -115.35 4.75 -117.4 L4.95 -117.4 Q7.1 -116.8 8.95 -115.9 L8.05 -116.6 M58.95 -91.15 Q61.6 -85.25 58.0 -79.9 55.8 -76.55 52.85 -73.85 51.85 -72.75 50.7 -71.8 50.3 -71.45 49.95 -71.45 L49.8 -71.35 Q49.55 -71.15 49.35 -71.35 L49.55 -71.5 51.35 -72.95 Q54.5 -75.75 56.55 -79.65 59.1 -84.5 55.9 -88.2 53.45 -91.05 50.3 -90.45 47.2 -89.85 44.55 -86.1 43.5 -87.15 43.45 -89.1 43.3 -93.25 47.95 -95.35 49.4 -96.0 51.0 -96.15 56.6 -96.2 58.95 -91.15 M73.65 -54.95 L73.7 -54.95 74.05 -54.75 Q79.4 -52.25 79.9 -46.2 80.3 -41.55 76.55 -38.75 72.6 -35.9 68.0 -37.55 66.05 -38.25 64.25 -39.35 62.3 -40.45 60.25 -40.65 L58.85 -40.45 59.6 -40.7 59.0 -40.7 60.0 -40.8 Q64.4 -42.0 68.65 -39.5 69.35 -39.1 70.2 -39.0 73.65 -38.7 75.45 -41.8 77.8 -45.85 76.85 -50.3 76.5 -51.95 75.3 -53.25 L74.05 -54.6 73.15 -55.0 Q73.0 -55.05 73.2 -55.1 L73.75 -54.85 73.7 -54.9 73.65 -54.95 M19.6 -51.4 L19.85 -51.35 Q22.1 -52.55 24.0 -54.45 L24.15 -54.55 23.95 -53.9 23.85 -52.05 Q23.8 -48.9 26.95 -47.85 L27.35 -47.4 Q27.95 -45.05 25.5 -44.0 L21.6 -43.8 21.5 -43.85 21.35 -43.75 21.5 -43.85 Q21.4 -43.9 21.45 -44.0 L21.6 -43.95 Q23.4 -45.9 22.95 -48.6 L22.6 -49.3 Q21.4 -50.6 19.9 -51.25 L19.45 -51.15 19.75 -51.3 19.5 -51.4 19.6 -51.4 M18.7 -42.65 L19.25 -42.7 18.7 -42.5 Q18.55 -42.2 17.8 -41.85 16.95 -41.45 17.0 -40.5 17.1 -38.7 18.1 -37.45 L18.6 -36.95 20.1 -36.0 Q18.7 -36.3 17.85 -37.25 L16.65 -38.0 Q13.55 -40.05 11.05 -37.45 L9.0 -34.85 8.75 -34.35 8.75 -34.45 8.7 -34.35 8.8 -34.6 Q9.0 -37.0 8.5 -39.55 7.8 -42.95 5.0 -44.7 4.85 -44.8 5.05 -44.85 L5.6 -44.5 5.2 -44.9 5.25 -44.9 Q10.45 -41.6 16.65 -42.45 L18.35 -42.65 18.65 -42.75 18.7 -42.65 M9.2 -35.6 L9.15 -35.65 9.15 -35.55 9.2 -35.6 M15.35 -5.1 L15.25 -5.15 Q18.95 -4.65 21.85 -6.95 22.75 -7.7 23.0 -8.8 23.95 -12.65 21.25 -15.8 20.0 -17.3 20.9 -18.8 L20.75 -18.9 20.8 -18.9 20.9 -18.85 20.95 -18.95 21.0 -18.85 Q24.0 -18.15 25.15 -15.5 26.15 -13.15 25.8 -10.6 25.2 -6.45 21.0 -5.2 18.8 -4.5 16.5 -4.6 14.25 -4.65 12.65 -5.9 14.0 -5.35 15.35 -5.1 M32.25 -20.8 Q34.95 -23.15 37.25 -20.4 38.55 -18.85 38.45 -16.8 38.25 -13.15 35.6 -11.15 L35.55 -11.15 34.55 -10.55 32.7 -10.3 Q27.95 -11.45 27.85 -16.1 27.85 -17.7 28.4 -19.3 L28.55 -19.7 28.95 -23.0 29.0 -21.35 29.25 -23.15 Q29.45 -21.3 29.0 -19.35 L28.8 -15.85 Q28.7 -14.6 30.0 -14.15 32.75 -13.1 34.35 -15.5 35.35 -16.95 34.65 -18.6 33.8 -20.5 32.05 -19.85 L31.85 -19.4 Q31.4 -20.05 32.25 -20.8 M30.75 -5.0 Q32.8 -8.4 37.05 -9.55 L40.7 -9.9 Q44.1 -9.65 46.3 -12.3 L47.55 -14.0 47.85 -14.9 47.9 -14.65 48.0 -14.9 47.9 -14.25 Q47.9 -12.75 47.2 -11.3 45.5 -7.6 41.25 -8.05 36.35 -8.55 32.25 -5.75 L31.1 -5.05 30.2 -4.05 30.7 -4.9 30.6 -4.9 30.75 -5.0 M-7.85 -93.8 Q-8.25 -92.3 -9.3 -91.5 -10.0 -90.7 -11.0 -90.6 L-10.65 -90.8 -10.65 -90.85 -9.9 -91.35 Q-8.1 -93.0 -9.6 -95.3 -10.05 -95.95 -10.8 -96.2 -15.45 -97.7 -17.95 -93.9 -18.3 -93.35 -18.0 -92.8 -17.1 -91.15 -15.1 -90.95 -10.8 -90.6 -7.3 -88.25 -5.95 -87.35 -5.5 -85.85 -4.55 -82.55 -6.95 -79.9 -8.2 -78.55 -9.7 -78.0 L-8.95 -78.55 -8.95 -78.6 -9.0 -78.6 Q-6.4 -80.75 -6.95 -83.85 -7.1 -84.6 -7.7 -85.05 -10.6 -87.35 -14.4 -87.7 -18.8 -88.15 -22.25 -90.65 -24.1 -92.05 -24.05 -94.3 -24.0 -96.35 -22.25 -97.5 -19.25 -99.4 -15.7 -99.55 -10.5 -100.1 -8.05 -95.75 -7.55 -94.85 -7.85 -93.8 M-19.3 -77.9 L-19.05 -79.4 Q-18.65 -80.7 -19.4 -81.75 -20.5 -83.35 -22.35 -82.95 -23.35 -82.75 -24.15 -82.1 -28.35 -78.75 -26.15 -74.1 L-25.5 -73.35 Q-22.45 -71.0 -18.6 -70.55 -13.8 -69.95 -9.6 -72.0 L-9.65 -72.05 -9.55 -72.1 Q-7.8 -71.2 -5.85 -71.2 L-5.8 -71.25 -5.8 -71.2 -5.65 -71.2 -5.65 -71.15 -5.8 -71.1 Q-5.85 -70.55 -6.45 -69.85 -7.85 -68.05 -7.85 -65.85 L-7.8 -65.8 -7.85 -65.8 -7.85 -65.7 -8.15 -65.95 -11.2 -67.5 Q-12.3 -68.0 -13.55 -68.1 -17.8 -68.35 -21.85 -69.5 -24.05 -70.15 -25.75 -71.55 -29.25 -74.55 -28.25 -79.05 -27.3 -83.5 -22.65 -84.3 -19.15 -84.4 -18.35 -81.05 -17.85 -79.0 -19.2 -77.5 L-19.3 -77.55 -19.4 -77.65 -19.4 -77.75 -19.4 -77.8 -19.3 -77.9 M-22.85 -66.15 Q-19.35 -66.5 -17.8 -63.75 -17.35 -62.95 -17.6 -62.1 -18.3 -59.2 -20.95 -57.6 -22.8 -56.5 -22.7 -54.45 L-22.9 -55.05 Q-23.35 -55.7 -22.8 -56.8 L-19.85 -61.1 Q-19.4 -61.65 -19.75 -62.25 -20.85 -64.35 -23.55 -63.85 L-27.95 -63.0 Q-31.2 -62.35 -32.9 -59.8 -33.85 -58.4 -33.75 -56.7 L-33.65 -56.0 -33.15 -55.65 -33.6 -55.6 -33.65 -55.6 Q-34.2 -55.8 -34.6 -56.7 -35.85 -59.45 -33.6 -61.8 -30.8 -64.7 -26.8 -65.65 L-22.85 -66.15 M-48.0 -26.0 L-48.0 -25.6 Q-47.9 -24.25 -47.3 -22.8 L-47.3 -22.75 -46.15 -21.25 -46.3 -21.3 -46.35 -21.3 -46.1 -20.95 Q-47.65 -21.75 -48.25 -23.7 -49.8 -28.55 -46.15 -32.1 -44.5 -33.7 -42.25 -33.9 -40.6 -34.0 -39.5 -33.0 L-38.75 -32.5 -39.35 -32.6 -39.3 -32.55 -39.3 -32.5 Q-42.85 -33.4 -45.55 -31.0 -47.85 -29.0 -48.0 -26.0 M-16.25 -6.15 L-17.05 -5.3 -21.75 -1.5 Q-22.8 -0.6 -22.75 0.7 -22.7 1.95 -21.4 2.3 L-17.8 2.55 -17.6 2.5 -17.85 2.7 Q-20.55 4.7 -23.9 3.85 -24.65 3.65 -24.9 2.95 -25.45 1.2 -24.05 -0.15 -20.7 -3.3 -17.0 -6.0 -14.6 -7.7 -12.75 -9.8 -13.0 -8.8 -14.15 -7.85 L-16.25 -6.15 M-2.4 -9.8 L-2.7 -9.4 Q-3.0 -8.5 -4.25 -8.05 L-7.3 -8.1 -7.65 -8.2 Q-8.3 -8.4 -8.45 -9.1 -8.7 -10.4 -7.8 -11.45 L-7.05 -12.1 Q-7.2 -11.4 -7.85 -10.45 -8.6 -9.4 -7.95 -8.7 -6.6 -8.05 -5.4 -8.25 L-3.05 -9.7 -2.65 -10.0 -2.65 -9.95 -2.65 -9.65 -2.45 -9.85 -2.4 -9.8" fill="#aa0909" fill-rule="evenodd" stroke="none"/>
    <path d="M7.3 -103.65 L1.0 -103.35 Q-2.95 -102.05 -2.35 -97.95 -2.0 -95.9 -0.15 -94.65 1.35 -93.65 2.45 -92.35 L2.55 -92.3 2.45 -92.3 2.6 -92.15 1.9 -92.45 Q-0.8 -93.35 -2.4 -96.0 -4.65 -99.75 -2.0 -103.05 L-1.15 -103.85 Q0.4 -104.95 2.3 -105.25 4.6 -105.65 6.3 -104.55 7.0 -104.3 7.3 -103.65 M56.15 -90.7 L56.0 -90.8 Q54.05 -93.4 50.45 -92.45 47.55 -91.7 45.45 -89.85 L45.35 -89.6 45.25 -89.5 45.25 -89.7 45.2 -89.65 45.15 -89.7 45.25 -89.8 Q45.3 -90.9 46.2 -91.95 48.1 -94.15 51.15 -94.45 55.0 -94.7 56.05 -91.3 L56.4 -90.8 56.35 -90.75 56.15 -90.7 M77.3 -51.7 L77.4 -51.45 Q80.2 -46.75 77.55 -41.8 77.05 -40.85 76.3 -40.55 L77.4 -42.3 Q77.15 -43.25 77.45 -44.55 78.35 -48.2 77.25 -51.7 L77.3 -51.7 M7.2 -75.9 Q1.1 -70.15 2.15 -61.9 0.55 -62.35 0.4 -64.5 0.2 -68.15 1.85 -71.35 4.05 -75.5 8.2 -78.0 8.35 -77.0 7.2 -75.9 M23.35 -51.8 L23.45 -51.75 23.45 -51.0 23.2 -50.25 Q22.4 -50.35 21.95 -51.2 L21.9 -51.55 21.95 -51.6 Q22.15 -51.85 22.5 -51.9 L23.35 -51.8 M24.55 -48.15 L24.7 -48.3 Q27.35 -45.95 23.8 -45.25 23.6 -45.2 23.5 -45.4 24.3 -46.65 24.55 -48.15 M10.3 -38.9 Q9.8 -39.25 9.95 -39.95 10.15 -40.95 9.5 -41.75 9.05 -42.3 9.6 -42.6 12.7 -41.8 15.95 -41.95 L16.0 -41.9 15.75 -41.1 15.65 -40.85 15.6 -40.55 15.55 -39.7 Q13.7 -40.2 11.7 -39.7 10.85 -39.5 10.3 -38.9 M37.2 -16.6 Q37.25 -13.5 34.0 -13.3 L33.45 -13.5 Q35.25 -14.8 35.85 -16.95 36.05 -17.65 35.75 -18.35 35.35 -19.5 34.5 -20.15 L34.75 -20.35 Q37.2 -19.35 37.2 -16.6 M36.35 -8.35 L34.7 -7.8 Q34.95 -8.55 36.05 -8.85 39.6 -9.75 43.4 -9.85 44.0 -9.85 44.5 -10.3 44.5 -9.4 43.1 -9.1 L36.9 -8.45 36.35 -8.35 M-19.95 -93.2 Q-21.6 -93.4 -21.15 -95.25 -20.35 -98.55 -16.7 -98.7 -14.1 -99.2 -12.15 -98.0 L-12.1 -97.95 Q-15.85 -98.55 -18.55 -95.8 -19.7 -94.7 -19.95 -93.2 M-27.1 -75.25 Q-26.75 -73.55 -25.3 -72.4 -22.0 -69.9 -17.7 -69.9 L-17.7 -70.0 -17.65 -70.1 -9.5 -70.6 -7.65 -70.55 -7.2 -70.35 Q-8.05 -69.0 -9.2 -68.05 L-9.4 -68.1 Q-11.0 -69.2 -13.05 -69.4 L-19.25 -69.8 Q-24.65 -70.2 -27.35 -74.6 L-27.6 -75.25 Q-28.15 -77.75 -27.4 -79.95 -27.55 -77.7 -27.1 -75.25 M-21.7 -65.55 Q-18.75 -65.7 -18.55 -62.95 L-20.0 -64.05 -21.0 -64.65 -24.4 -65.0 Q-29.55 -64.35 -32.95 -60.75 L-33.45 -60.65 Q-30.35 -64.75 -24.9 -65.3 L-21.7 -65.55 M-40.95 -33.25 L-40.95 -33.2 Q-44.5 -33.2 -46.65 -30.3 -46.9 -30.0 -47.2 -29.95 -46.35 -31.8 -44.35 -32.8 L-41.9 -33.45 -40.95 -33.25 M-21.05 2.85 L-21.05 2.9 Q-22.85 3.9 -23.85 2.25 L-24.0 1.7 Q-24.0 1.1 -23.6 0.75 -23.45 3.0 -21.05 2.85" fill="#fdc43e" fill-rule="evenodd" stroke="none"/>
    <path d="M54.25 -93.0 L54.1 -92.95 53.25 -93.15 53.15 -93.05 Q50.0 -93.75 47.55 -91.7 L47.5 -91.7 47.3 -91.8 47.2 -91.85 47.1 -91.95 Q49.05 -93.6 51.7 -93.85 53.6 -94.25 54.25 -93.0 M4.55 -73.15 Q3.6 -72.3 3.0 -71.1 1.45 -67.9 1.45 -64.45 0.6 -65.35 1.1 -66.95 L1.65 -68.85 Q2.7 -72.3 5.25 -74.5 5.45 -73.9 4.55 -73.15 M24.25 -46.1 L24.95 -47.15 25.05 -47.2 Q25.7 -46.1 24.3 -46.05 L24.25 -46.1 M14.95 -41.0 L14.9 -40.95 14.9 -40.9 14.75 -40.4 12.55 -40.45 10.85 -39.9 Q10.6 -39.95 10.6 -40.25 L10.6 -40.55 10.5 -41.85 14.9 -41.5 14.95 -41.5 15.0 -41.3 15.0 -41.15 14.95 -41.0 M-19.9 -95.2 Q-20.15 -94.9 -20.5 -95.05 -20.3 -96.45 -19.2 -97.45 -18.6 -98.0 -17.8 -98.2 L-16.9 -98.0 -16.85 -97.95 Q-18.65 -96.9 -19.9 -95.2 M-21.25 -65.25 Q-20.0 -65.2 -19.2 -64.3 -20.25 -64.55 -21.35 -65.2 L-21.25 -65.25 M-7.95 -70.35 L-7.9 -70.3 Q-8.75 -68.25 -10.6 -69.55 L-11.05 -69.85 -11.05 -69.9 Q-10.15 -70.5 -8.85 -70.45 L-7.95 -70.35" fill="#fefd9a" fill-rule="evenodd" stroke="none"/>
  </g>
</svg>
