<?xml version="1.0" encoding="UTF-8" standalone="no"?>
<svg xmlns:ffdec="https://www.free-decompiler.com/flash" xmlns:xlink="http://www.w3.org/1999/xlink" ffdec:objectType="shape" height="208.25px" width="138.3px" xmlns="http://www.w3.org/2000/svg">
  <g transform="matrix(1.0, 0.0, 0.0, 1.0, 56.7, 120.45)">
    <path d="M20.15 -14.35 Q22.45 -17.05 26.0 -15.85 28.0 -15.2 27.85 -13.1 27.7 -11.45 26.4 -10.5 25.75 -9.85 24.8 -9.5 24.55 -9.45 24.45 -9.65 L24.45 -9.7 25.9 -10.5 26.5 -11.2 Q27.1 -12.15 26.75 -13.55 L26.25 -14.0 Q23.7 -14.65 22.3 -12.35 21.05 -10.4 19.1 -10.75 L18.7 -10.85 Q19.7 -11.45 19.65 -13.0 19.65 -13.75 20.15 -14.35 M1.5 -15.35 Q-1.7 -12.55 0.85 -9.2 L2.1 -7.35 Q3.85 -4.3 1.75 -1.35 L1.65 -1.25 1.55 -1.05 Q-4.2 -2.55 -5.45 -8.4 -6.55 -13.65 -2.1 -16.6 L-0.45 -17.3 Q4.15 -18.3 8.45 -16.75 L8.65 -16.65 Q10.25 -16.25 11.7 -15.35 7.25 -17.45 2.45 -15.95 L1.5 -15.35 M39.3 -21.2 Q39.4 -18.2 37.1 -16.2 L31.15 -11.55 Q29.75 -10.55 28.55 -9.35 L26.4 -7.25 26.35 -7.1 26.35 -7.2 26.2 -7.05 Q26.25 -7.55 26.6 -8.05 L27.45 -9.55 Q29.3 -12.2 31.5 -14.6 32.9 -16.2 33.15 -18.25 33.35 -20.15 31.35 -20.6 28.0 -21.4 25.1 -19.75 L24.75 -19.4 25.0 -19.7 25.0 -19.75 25.1 -19.85 Q28.45 -23.65 33.6 -24.85 36.4 -25.5 38.35 -23.5 39.25 -22.55 39.3 -21.2 M64.7 -1.3 Q67.35 1.95 66.35 6.0 65.7 8.7 63.45 10.45 61.0 12.45 57.85 12.55 52.9 12.2 49.75 8.15 48.05 5.9 45.7 4.75 L45.25 4.65 45.05 4.45 45.65 4.5 49.85 4.25 Q52.3 4.8 54.5 6.25 57.55 8.25 59.6 5.45 60.7 3.95 60.4 2.05 59.8 -2.15 56.2 -3.8 L55.9 -3.8 56.0 -3.85 56.05 -3.85 Q61.15 -5.6 64.7 -1.3 M41.55 23.4 L42.35 24.25 42.4 24.3 Q44.8 27.75 42.3 31.3 41.9 31.9 42.25 32.5 43.35 34.55 45.6 35.45 48.9 36.7 51.8 34.85 53.5 33.8 53.2 31.8 52.9 29.85 51.4 28.6 L51.7 28.75 Q54.3 29.05 55.7 31.5 57.4 34.6 55.45 37.65 53.55 40.55 49.95 40.75 L48.5 40.85 Q42.75 41.1 39.15 36.85 38.7 36.35 38.6 35.65 37.95 31.8 41.0 29.05 43.35 26.95 41.9 24.35 L41.7 24.0 Q40.85 23.2 39.85 22.85 40.55 22.85 41.1 23.15 L41.55 23.4 M42.7 25.3 L42.75 25.55 42.8 25.5 42.7 25.3 M32.45 5.3 Q29.75 6.7 30.05 9.5 30.1 10.1 30.65 10.35 32.6 11.15 34.25 12.4 35.25 13.2 35.4 14.0 L35.55 14.2 35.45 14.1 35.45 14.25 35.25 14.0 Q31.15 11.35 26.15 13.35 24.95 13.85 24.55 14.85 L24.55 15.05 24.45 15.55 24.45 15.7 24.15 18.15 Q23.55 16.1 24.2 14.7 24.45 13.45 25.2 12.2 27.15 8.9 30.05 6.35 31.3 5.3 32.6 4.85 L32.0 5.25 32.45 5.3 M24.85 23.95 L22.75 28.9 Q22.5 29.5 22.4 30.05 L22.55 30.45 22.45 30.6 22.4 30.6 Q19.25 27.55 14.85 26.05 10.25 24.4 5.35 24.35 16.0 29.8 17.05 37.2 18.15 44.9 12.05 50.1 1.85 58.8 -0.1 71.7 -1.1 78.2 3.95 82.45 8.1 85.9 13.1 87.45 L14.35 87.65 Q14.65 87.7 14.25 87.8 L14.05 87.75 14.0 87.8 11.6 87.35 Q0.2 84.75 -2.95 73.2 -5.65 63.35 0.0 55.2 L0.05 55.1 0.2 54.9 Q7.15 43.9 7.85 38.65 L7.75 38.1 Q7.0 33.55 2.3 33.5 0.7 33.45 -0.65 34.35 -4.85 37.0 -7.2 41.2 L-7.25 41.6 -7.3 41.4 -7.45 41.75 -7.35 41.05 -8.55 36.0 Q-9.65 31.65 -12.4 28.25 L-19.2 27.8 -19.45 27.8 -19.45 27.75 -19.2 27.7 Q-19.15 26.4 -17.6 25.7 -15.05 24.55 -13.35 22.45 -12.85 21.85 -12.65 21.05 -11.4 17.1 -7.05 16.25 L-4.7 16.05 Q-7.4 15.15 -8.15 12.3 -8.35 11.5 -8.15 10.75 -7.85 9.35 -7.0 8.55 L-6.7 8.3 -6.9 8.55 Q-5.8 8.8 -4.5 9.5 0.6 12.25 5.65 9.75 L8.2 8.0 Q10.5 5.9 13.35 6.15 L13.5 6.1 13.5 6.15 14.05 6.25 13.45 6.25 Q12.9 9.5 13.8 12.8 14.55 15.7 16.6 17.95 19.7 21.25 24.25 21.65 25.2 21.75 24.85 22.15 25.3 22.9 24.85 23.95 M38.85 45.85 Q43.75 46.7 46.6 50.95 49.95 56.0 46.3 60.8 L44.9 62.0 Q43.8 62.6 42.55 62.65 37.75 62.7 36.2 58.45 35.9 57.75 36.1 56.95 36.65 54.55 38.7 54.15 L39.5 53.95 39.6 54.05 39.5 54.1 39.55 54.2 39.1 54.35 Q37.65 55.35 38.3 57.45 39.1 60.15 42.1 59.3 44.5 58.6 44.45 56.05 44.4 51.05 39.45 49.4 34.45 47.7 30.3 50.75 28.3 52.25 28.7 54.9 29.25 58.8 32.0 61.65 34.2 63.9 36.75 65.75 39.9 67.95 38.7 71.5 37.15 76.2 32.25 76.75 27.15 77.45 25.15 73.3 24.8 72.5 25.0 71.65 25.25 70.65 25.75 69.95 L25.85 69.7 Q26.0 69.25 26.35 69.25 25.4 72.75 29.2 72.95 30.05 73.05 30.75 72.45 34.25 69.6 31.1 66.75 30.35 66.1 29.45 65.75 24.2 63.7 26.15 58.6 L27.55 53.95 Q28.0 52.05 25.95 51.4 23.1 50.45 20.55 52.2 15.9 55.3 17.65 60.5 18.85 63.9 21.25 66.65 23.9 69.7 22.0 73.35 20.7 75.9 18.2 77.3 16.35 78.35 14.25 78.7 9.6 78.65 6.7 75.7 5.35 74.75 4.7 72.85 L4.75 72.8 6.25 74.55 Q7.75 76.55 10.2 75.85 14.6 74.65 14.6 70.2 14.6 66.95 12.2 64.6 10.05 62.5 9.8 59.65 9.65 58.0 10.75 56.7 14.7 51.9 19.7 48.1 22.5 45.95 23.95 42.65 25.9 38.2 23.15 34.4 24.65 35.4 24.95 37.15 L25.15 36.85 Q25.15 39.45 27.0 41.55 28.6 43.4 31.0 44.05 L38.85 45.85 M-21.2 -14.55 Q-18.75 -13.4 -16.25 -13.85 L-15.75 -14.3 -16.15 -13.85 -16.2 -13.85 Q-19.0 -10.85 -22.95 -11.4 -25.6 -11.75 -27.65 -10.05 -30.4 -7.7 -29.8 -4.1 -29.5 -2.0 -28.6 -0.3 L-28.65 -0.3 -28.7 -0.35 -28.8 -0.3 Q-33.5 -4.95 -31.0 -11.05 -29.15 -15.7 -24.15 -15.35 -22.6 -15.25 -21.2 -14.55 M-16.75 -4.85 Q-17.55 -2.6 -15.5 -1.6 L-14.4 -1.5 -14.25 -1.6 -14.3 -1.5 -14.25 -1.45 -14.4 -1.4 Q-15.2 -0.4 -16.85 -0.65 -21.6 -1.5 -20.95 -6.3 -20.55 -9.7 -17.45 -11.2 -13.5 -13.15 -10.2 -10.4 -8.1 -8.6 -8.25 -5.85 -8.3 -4.0 -9.15 -2.35 -11.1 1.45 -9.75 5.1 -9.15 5.85 -9.65 5.35 L-9.85 5.2 Q-13.05 2.2 -12.3 -2.25 L-12.05 -5.1 Q-12.05 -6.6 -13.6 -6.75 -15.95 -7.05 -16.75 -4.85 M-38.7 19.3 Q-40.5 18.7 -42.25 17.5 L-42.35 17.45 Q-43.3 17.25 -44.35 17.45 -48.55 18.3 -50.9 21.95 -52.45 24.35 -52.45 27.15 -52.45 29.75 -50.1 30.9 L-47.6 32.05 -45.65 32.05 Q-45.75 32.25 -46.1 32.3 L-46.9 32.35 -46.7 32.4 -46.8 32.4 -47.0 32.35 Q-52.4 32.45 -55.7 28.35 L-56.55 26.4 Q-57.6 19.9 -52.0 16.35 -50.35 15.3 -48.4 15.35 -44.2 15.55 -40.55 17.75 -38.95 18.3 -37.45 19.2 L-36.9 19.5 -33.95 19.8 -33.5 19.7 Q-33.15 19.6 -32.95 19.85 -35.9 20.55 -38.7 19.3 M-22.95 40.2 Q-17.75 37.55 -12.0 36.95 L-10.95 36.4 -10.7 36.45 Q-18.1 40.25 -23.85 46.3 -26.0 48.55 -26.4 51.65 -26.9 55.5 -24.6 58.5 -24.1 59.1 -23.25 59.1 L-22.5 59.25 -22.6 59.5 -22.65 59.5 Q-23.35 60.4 -24.7 60.65 L-26.85 61.0 Q-31.05 61.5 -33.55 58.5 L-34.25 57.2 Q-35.5 52.1 -32.1 47.75 -28.4 43.0 -22.95 40.2 M-18.75 59.75 L-18.9 59.6 -18.7 59.6 -18.65 59.6 -18.6 59.65 Q-17.45 60.0 -17.85 61.6 -18.25 63.2 -19.85 63.85 L-20.75 64.1 Q-22.2 64.3 -22.65 63.3 L-22.65 63.25 -22.5 63.3 Q-19.8 62.85 -18.9 60.25 L-18.75 59.75" fill="#aa0909" fill-rule="evenodd" stroke="none"/>
    <path d="M35.1 -18.2 Q35.95 -20.7 33.45 -21.75 36.15 -23.6 37.15 -20.5 37.6 -19.0 36.7 -17.7 36.0 -16.65 34.95 -16.1 34.65 -16.75 35.1 -18.2 M21.1 -12.7 L20.65 -12.45 Q20.25 -13.15 21.1 -13.95 22.45 -15.25 24.15 -14.8 23.0 -14.6 22.2 -13.7 L21.1 -12.7 M61.95 -0.35 Q63.6 -0.1 64.4 1.8 65.2 3.6 64.5 5.45 62.95 9.25 58.9 10.1 56.1 9.9 53.6 8.45 L53.45 8.35 52.45 8.05 51.7 8.1 52.0 7.9 52.0 7.85 52.1 7.85 Q52.8 7.6 53.7 8.05 L55.9 8.5 Q60.3 9.45 62.25 5.8 63.9 2.6 62.05 -0.25 L61.95 -0.35 M55.1 34.6 L54.55 35.45 Q54.2 37.05 52.5 38.25 50.8 39.4 48.7 39.6 44.25 39.8 41.25 36.8 40.55 36.1 40.35 35.2 40.05 34.15 40.6 33.5 L40.65 33.45 40.7 33.45 40.7 33.55 Q41.4 35.55 43.5 36.6 47.35 38.6 51.35 37.2 53.1 36.55 54.35 35.3 L54.65 34.6 54.6 35.05 55.0 34.6 55.1 34.6 M4.85 15.8 Q7.45 13.5 10.55 12.75 11.3 17.5 15.3 20.7 L19.55 24.2 Q19.8 24.45 19.5 24.7 L17.0 24.75 Q11.5 21.8 5.35 22.25 4.25 22.3 3.25 22.8 1.4 23.7 0.25 25.1 L0.55 25.2 Q7.1 26.65 10.7 32.25 12.3 34.8 12.7 37.7 13.55 43.6 9.9 48.35 L3.15 56.45 Q-0.05 59.9 -1.15 64.05 L-1.25 64.9 Q-1.6 68.05 -1.35 71.25 L-1.2 71.55 -1.3 71.7 -1.5 71.9 -1.65 71.35 Q-3.1 67.55 -1.75 63.65 -0.85 59.25 2.15 55.3 6.25 49.85 9.25 43.75 11.5 39.2 8.45 35.3 5.9 31.95 2.25 30.45 -2.6 32.15 -6.55 35.8 L-6.5 34.85 -7.45 32.9 -7.45 32.55 Q-7.1 30.85 -7.5 29.7 L-7.65 29.35 Q-8.45 27.65 -11.2 27.4 -12.05 27.3 -12.25 26.7 L-11.85 26.65 -11.0 25.75 Q-10.05 25.0 -9.65 23.85 -8.1 19.6 -3.25 20.95 L-1.65 21.3 -0.85 21.55 2.3 21.0 Q-1.5 19.15 -3.1 15.3 L-3.35 13.75 4.0 16.05 4.85 15.8 M23.95 47.95 L24.85 46.95 Q25.5 45.6 25.75 44.15 L25.75 44.1 25.85 43.6 26.1 44.3 27.15 45.25 Q27.95 46.3 29.45 46.4 L38.9 47.25 Q44.9 47.75 46.45 53.3 47.1 55.55 46.4 57.75 45.6 60.2 43.1 61.05 L40.5 60.9 40.45 60.8 40.5 60.8 40.15 60.55 Q44.0 61.2 45.55 57.85 L45.85 56.65 Q46.25 52.15 42.75 49.6 L41.95 49.2 29.85 48.8 Q28.4 49.15 27.45 49.9 L27.55 50.0 27.45 50.1 Q25.8 48.55 23.5 48.85 L23.3 49.0 23.25 48.9 23.2 48.9 23.2 48.85 Q23.2 48.5 23.95 47.95 M14.7 55.4 L14.85 55.0 15.15 55.05 15.1 55.1 15.95 54.65 14.75 55.7 Q12.95 59.35 15.65 62.9 L17.95 65.55 Q21.25 68.75 19.25 72.75 18.3 74.65 16.45 75.85 14.2 77.35 11.55 78.0 L11.5 77.85 11.45 77.9 11.15 77.8 11.15 77.75 11.6 77.6 Q11.85 77.35 12.65 77.15 L12.85 77.1 Q15.1 76.0 16.55 73.7 18.7 70.2 16.2 66.75 L14.05 64.0 Q11.9 61.35 13.0 58.0 13.55 56.35 14.65 55.4 L14.7 55.4 M-27.4 -13.5 Q-23.45 -15.55 -20.4 -12.65 L-26.55 -11.9 -27.95 -11.35 -29.9 -9.15 Q-30.3 -11.95 -27.4 -13.5 M-1.6 -12.4 L-1.75 -12.05 -1.45 -8.8 -0.6 -6.6 Q0.0 -5.65 -0.45 -4.95 L-0.6 -4.8 -0.7 -4.65 -0.8 -4.9 Q-4.2 -8.05 -2.3 -12.5 L-2.2 -12.5 -2.3 -11.75 -2.1 -12.0 -1.7 -12.85 -1.75 -12.4 -1.65 -12.45 -1.6 -12.4 M-17.7 -6.45 Q-17.5 -9.95 -13.8 -9.65 -11.7 -9.45 -10.75 -7.7 -10.1 -6.45 -10.6 -5.3 -10.85 -6.75 -12.4 -7.65 -13.35 -8.2 -14.5 -8.1 -16.55 -7.9 -17.7 -6.45 M-26.45 45.9 Q-24.95 44.55 -23.15 43.8 -23.05 43.9 -23.1 44.05 L-23.1 44.1 -22.3 43.85 -22.25 43.9 -22.25 43.95 -22.25 44.05 -22.35 44.2 -22.4 44.25 -22.45 44.25 -22.55 44.2 -22.6 44.1 -22.6 44.05 Q-24.85 45.05 -26.65 46.55 -28.65 48.9 -29.45 51.9 -30.25 54.9 -28.3 57.3 L-26.65 59.0 Q-26.45 59.0 -26.4 59.2 L-26.4 59.35 -26.6 59.45 Q-30.9 59.3 -31.6 55.2 -32.0 52.8 -30.6 50.6 -29.0 48.1 -26.75 46.2 L-26.45 45.9 M-52.0 20.25 L-51.05 19.2 -51.4 19.75 -51.1 19.6 -51.05 19.65 -51.5 20.0 Q-52.6 22.05 -53.25 24.4 -54.0 27.1 -52.95 29.65 L-53.05 29.8 -53.1 29.85 Q-56.15 27.3 -54.5 23.55 -53.6 21.55 -52.0 20.25" fill="#fdc43e" fill-rule="evenodd" stroke="none"/>
    <path d="M35.65 -19.45 L35.1 -20.95 Q37.0 -21.0 36.55 -18.8 36.45 -18.25 35.95 -18.0 L35.65 -19.45 M62.2 7.2 Q64.55 4.5 63.05 1.55 64.15 1.55 64.2 3.15 64.35 7.55 60.15 9.05 59.55 8.65 60.8 8.2 L62.2 7.2 M42.05 36.8 Q43.5 37.75 45.5 38.15 48.35 38.75 50.6 38.15 L51.8 37.65 52.8 37.25 52.85 37.3 Q52.0 38.45 50.5 38.8 L48.4 39.15 Q46.5 39.4 45.1 38.6 43.4 38.15 42.05 36.85 L42.05 36.8 M10.05 15.0 L9.85 15.05 Q12.1 19.5 15.65 22.85 L16.9 23.75 16.8 23.85 16.65 23.75 17.0 24.05 16.9 24.05 15.35 22.9 Q10.1 19.8 3.65 20.2 L3.5 20.6 Q0.45 18.55 -1.6 15.55 L-1.6 15.45 4.75 17.4 Q5.15 17.0 5.95 16.55 7.9 15.4 9.8 15.0 L9.75 14.9 9.75 14.8 9.85 15.0 10.05 15.0 M0.75 22.75 L0.65 22.8 0.7 22.8 -1.75 25.35 Q3.25 26.7 7.5 30.1 12.5 34.05 12.2 40.45 11.95 45.7 8.4 49.65 L6.95 51.1 6.3 51.8 6.3 51.65 6.0 51.9 6.5 51.0 7.2 50.05 Q9.85 47.2 10.8 43.3 12.5 36.3 7.2 31.25 L4.7 29.35 3.8 28.8 Q-0.6 30.0 -4.35 32.9 L-4.5 33.15 -4.5 33.05 -4.5 33.0 -4.45 32.75 Q-4.2 31.3 -4.65 29.6 -5.4 27.05 -8.1 26.75 L-8.35 26.5 -8.0 26.5 Q-8.0 25.2 -6.65 24.05 -5.1 22.8 -2.9 23.25 -1.0 23.7 0.6 22.7 L0.75 22.75 M26.15 45.65 L26.3 46.0 Q28.3 47.15 30.7 47.5 L31.6 47.6 32.95 47.65 32.8 47.75 32.4 47.8 32.75 47.9 32.05 47.8 32.0 47.85 30.2 47.8 Q28.75 48.0 27.35 48.7 L27.4 48.8 27.3 48.95 27.15 48.8 27.1 48.85 27.05 48.85 27.0 48.75 25.55 47.95 25.5 48.05 25.45 48.05 25.4 47.9 25.35 47.9 25.3 47.85 25.4 47.85 Q25.4 47.5 25.75 46.85 L26.1 45.9 26.15 45.65 M18.2 67.15 Q19.15 68.0 19.3 69.3 19.75 73.8 15.75 75.9 L15.25 75.8 15.2 75.75 Q19.45 72.85 17.25 68.25 L15.25 64.7 Q14.25 63.05 13.65 61.2 14.6 62.35 15.55 64.0 16.6 65.8 18.2 67.15 M-2.2 -9.05 L-2.2 -9.1 Q-1.65 -8.7 -1.5 -7.65 -1.4 -6.7 -0.85 -6.05 -0.8 -6.0 -0.95 -6.0 -2.35 -7.15 -2.2 -9.05 M-53.15 22.7 Q-54.15 25.2 -53.8 27.85 L-53.9 27.95 Q-55.55 24.9 -53.15 22.7 M-30.8 53.15 Q-30.6 52.0 -29.85 51.4 -31.15 55.5 -28.55 58.45 L-28.65 58.45 Q-31.45 56.7 -30.8 53.15" fill="#fefd9a" fill-rule="evenodd" stroke="none"/>
    <path d="M9.8 18.25 L9.8 18.3 11.2 20.4 11.1 20.45 Q10.1 19.65 8.85 19.7 L2.8 19.15 1.85 18.65 1.5 18.0 Q2.75 17.8 4.25 18.4 5.4 18.9 6.6 18.1 7.85 17.25 9.2 16.9 L9.8 18.25 M1.1 28.4 L-0.45 28.6 -3.1 29.65 Q-3.05 28.7 -3.55 27.4 -4.2 25.7 -6.0 25.75 -6.55 25.75 -6.65 25.3 L-6.3 25.25 Q-6.05 24.75 -4.85 24.45 L-4.25 24.5 -2.45 24.65 Q-3.0 24.95 -3.4 25.55 L-3.45 25.7 1.45 28.1 Q1.65 28.2 1.45 28.5 L1.3 28.6 1.1 28.4" fill="#ffffff" fill-rule="evenodd" stroke="none"/>
    <path d="M3.9 -120.45 Q7.25 -119.1 9.8 -117.15 14.05 -115.05 16.7 -110.6 20.65 -103.9 19.55 -96.3 18.5 -88.75 13.25 -83.15 L4.65 -74.5 Q0.95 -71.0 0.6 -66.25 0.6 -65.3 0.85 -64.3 -0.5 -64.8 -0.05 -67.1 1.85 -76.45 9.05 -83.05 L11.4 -85.5 Q19.1 -94.35 16.6 -105.6 15.05 -112.7 9.05 -117.0 8.4 -117.3 7.35 -118.15 L3.7 -120.4 3.9 -120.45 M12.05 -100.85 Q12.25 -98.95 11.0 -97.5 L10.95 -97.35 11.0 -97.45 Q11.15 -99.3 10.7 -101.3 10.25 -103.4 8.25 -104.15 3.35 -105.95 -1.05 -103.45 -2.55 -102.65 -2.6 -100.95 -2.7 -98.85 -0.9 -97.5 L5.8 -92.1 Q8.35 -89.8 7.7 -86.8 L7.5 -86.0 7.5 -86.05 Q6.2 -83.5 5.25 -82.65 6.9 -84.5 7.3 -86.8 L6.3 -89.3 Q5.5 -90.8 4.05 -91.75 L-4.3 -97.35 Q-5.3 -98.1 -5.85 -99.2 -7.45 -102.5 -4.7 -104.95 -1.95 -107.45 1.8 -107.7 7.5 -108.35 10.75 -104.0 11.8 -102.6 12.05 -100.85 M60.8 -86.75 Q60.5 -90.75 58.2 -93.8 56.45 -96.2 53.45 -95.6 47.75 -94.65 44.95 -89.55 L44.75 -89.35 44.75 -89.2 44.8 -89.15 44.6 -89.0 44.5 -89.0 Q43.4 -92.65 45.6 -96.0 46.85 -97.95 48.75 -99.15 53.85 -101.8 57.8 -97.85 58.8 -96.9 59.4 -95.6 61.15 -92.2 60.8 -88.5 L60.9 -87.15 60.85 -86.8 60.8 -86.75 M77.0 -54.25 L78.05 -53.45 77.8 -54.1 77.85 -54.1 78.45 -53.1 Q82.25 -49.6 81.5 -44.05 80.7 -38.55 75.3 -37.4 L73.0 -37.5 Q68.45 -38.85 63.8 -39.6 L63.05 -39.8 63.0 -39.85 64.95 -39.95 Q68.15 -40.3 71.4 -39.15 75.7 -37.65 78.55 -40.7 79.45 -41.65 79.75 -43.0 80.65 -46.9 79.1 -50.7 L78.3 -52.75 78.15 -52.9 76.95 -54.25 77.0 -54.25 M19.85 -51.4 L20.3 -51.35 Q21.6 -51.9 22.85 -52.75 L23.1 -53.2 Q22.9 -52.25 23.05 -51.05 23.25 -49.6 24.6 -48.8 26.85 -47.4 24.8 -45.7 23.65 -44.75 22.4 -44.5 L21.75 -44.0 22.15 -44.45 21.7 -44.4 22.35 -44.65 Q23.45 -46.1 23.75 -47.95 23.9 -48.75 23.3 -49.35 21.7 -50.85 19.75 -51.4 L19.85 -51.4 M10.25 -38.3 L10.05 -37.45 10.0 -37.45 10.0 -38.25 9.85 -38.3 10.0 -38.45 Q9.95 -40.1 9.4 -41.7 9.05 -41.9 9.3 -42.05 L9.25 -42.15 9.3 -42.15 9.35 -42.05 Q12.2 -40.75 15.45 -41.75 L15.8 -41.8 15.9 -41.85 15.9 -41.75 16.1 -41.65 15.9 -41.55 15.8 -40.7 Q15.7 -39.95 16.25 -39.5 15.9 -39.6 15.7 -39.75 13.0 -40.8 10.7 -38.6 L10.25 -38.3 M34.95 -21.05 Q37.7 -20.3 37.35 -17.45 36.75 -12.25 31.45 -11.6 30.2 -11.45 29.2 -12.25 27.15 -13.95 28.25 -16.55 29.4 -19.25 28.55 -21.9 L28.65 -22.0 28.8 -21.7 28.9 -21.85 Q29.95 -19.8 29.15 -17.4 28.85 -16.45 29.15 -15.5 29.85 -13.25 32.4 -13.8 35.85 -14.5 35.3 -17.7 35.25 -18.25 34.75 -18.6 33.25 -19.6 31.45 -19.4 L31.2 -19.1 Q32.35 -21.75 34.95 -21.05 M22.45 -17.35 Q22.25 -17.7 22.35 -18.0 22.2 -18.15 22.4 -18.35 L22.5 -18.3 Q26.35 -17.45 27.25 -13.85 27.5 -12.7 27.35 -11.5 26.55 -6.35 21.6 -5.0 L17.75 -5.15 Q21.05 -4.55 23.85 -6.35 26.3 -8.95 25.8 -12.4 L25.05 -13.85 Q23.35 -15.4 22.45 -17.35 M29.05 -3.25 L29.6 -3.95 Q29.55 -4.45 30.0 -5.0 33.0 -8.75 37.8 -9.3 L41.3 -9.85 Q44.0 -10.45 46.15 -12.1 L46.65 -12.6 46.65 -12.5 46.85 -12.7 46.5 -11.95 45.85 -11.1 Q42.8 -7.8 38.15 -8.05 34.35 -8.25 31.7 -5.6 L29.9 -3.9 29.7 -3.6 29.65 -3.7 29.05 -3.25 M-9.35 -93.1 Q-10.85 -91.6 -12.5 -91.65 L-11.95 -91.8 -11.9 -91.8 -11.95 -91.8 -12.5 -91.65 -12.65 -91.65 -12.65 -91.7 Q-9.8 -92.75 -10.5 -95.4 -10.6 -95.95 -11.05 -96.2 -14.4 -98.35 -18.2 -96.9 -20.0 -96.25 -20.5 -94.6 -20.9 -93.25 -19.65 -92.5 -16.75 -90.8 -13.3 -90.95 -7.4 -91.25 -2.85 -87.7 -1.35 -86.5 -2.1 -84.8 -3.35 -81.8 -6.25 -80.05 -7.65 -79.15 -9.1 -78.85 L-7.45 -79.7 Q-4.8 -81.9 -4.9 -85.3 -4.9 -85.85 -5.35 -86.2 -7.4 -87.65 -9.95 -87.65 L-20.6 -88.6 Q-24.25 -89.2 -25.75 -92.35 -26.45 -93.75 -25.9 -95.2 -25.1 -97.3 -22.9 -98.1 -20.1 -99.1 -17.15 -99.35 -12.6 -100.15 -9.4 -97.15 -7.3 -95.15 -9.35 -93.1 M-18.75 -81.7 L-18.55 -80.15 -18.6 -80.15 Q-19.1 -83.7 -22.8 -83.35 L-23.75 -83.0 Q-25.8 -81.5 -26.35 -79.05 -27.0 -76.2 -25.4 -73.7 -23.5 -70.7 -19.85 -70.35 -16.2 -70.0 -12.6 -70.45 -11.05 -70.65 -9.65 -71.2 L-9.9 -71.35 -9.8 -71.35 -9.4 -71.3 -9.35 -71.25 -7.55 -70.9 -7.45 -71.0 -7.3 -70.8 -7.3 -70.75 Q-8.95 -69.6 -9.45 -67.6 L-9.2 -67.4 -9.5 -67.4 -9.55 -67.35 -9.55 -67.25 -9.65 -67.4 Q-10.25 -67.5 -11.0 -68.0 -12.0 -68.65 -13.2 -68.85 L-22.6 -70.5 Q-26.0 -71.2 -27.15 -74.25 -29.15 -79.5 -25.2 -83.5 -24.05 -84.65 -22.45 -84.75 -18.25 -84.2 -18.45 -80.35 L-18.5 -80.3 -18.75 -81.7 M-24.35 -67.25 Q-20.9 -67.85 -18.5 -65.75 -17.5 -64.9 -17.8 -63.6 -18.6 -60.65 -20.9 -58.65 L-20.15 -59.95 -20.3 -59.85 -20.3 -59.9 -19.95 -60.25 -19.25 -61.3 Q-18.55 -62.9 -19.5 -64.7 L-20.2 -65.3 Q-23.75 -66.65 -27.5 -65.45 -32.15 -64.0 -33.4 -59.55 L-33.4 -58.7 -33.5 -58.75 Q-33.45 -58.6 -33.55 -58.55 -35.1 -60.95 -33.15 -63.45 -31.6 -65.4 -29.2 -66.15 L-24.35 -67.25 M-47.6 -31.25 L-48.4 -30.3 Q-49.85 -27.05 -48.6 -23.85 L-47.75 -22.55 Q-48.75 -22.85 -49.25 -24.1 -50.6 -27.5 -48.75 -30.6 -47.9 -32.15 -46.25 -32.75 -46.0 -32.35 -46.9 -31.85 L-47.6 -31.25 M-23.55 -1.15 L-22.1 -2.3 -21.35 -2.75 -19.8 -3.9 Q-19.75 -3.3 -20.6 -2.8 L-23.95 -0.2 Q-24.85 1.15 -25.0 2.95 -25.05 3.5 -24.5 3.8 -22.65 4.7 -20.9 3.55 L-20.35 3.45 -20.45 3.55 Q-20.25 3.6 -20.3 3.85 L-20.3 3.9 Q-23.4 6.05 -26.05 4.15 L-26.75 3.6 Q-27.0 3.4 -26.85 3.0 -26.0 0.95 -24.2 -0.55 L-24.0 -0.7 -23.55 -1.15 M-8.35 -9.85 Q-7.65 -7.6 -5.05 -8.55 L-3.15 -9.35 Q-4.75 -7.25 -7.5 -8.35 -8.75 -8.85 -8.35 -9.85" fill="#aa0909" fill-rule="evenodd" stroke="none"/>
    <path d="M6.9 -105.35 L6.7 -105.35 6.95 -105.2 6.35 -105.35 5.35 -105.55 0.6 -105.4 Q-3.2 -104.6 -3.75 -100.85 L-3.75 -99.6 -3.6 -99.45 -3.5 -99.1 -3.7 -99.25 -3.65 -99.0 -4.2 -99.75 Q-5.5 -101.25 -4.25 -103.4 -2.6 -106.2 0.8 -106.5 L2.1 -106.65 Q4.65 -106.55 6.85 -105.4 L6.9 -105.35 M55.25 -96.7 L55.25 -96.65 55.2 -96.65 55.2 -96.6 55.15 -96.55 55.05 -96.65 Q50.85 -97.2 47.5 -94.5 L46.65 -93.9 46.6 -93.85 46.5 -93.8 46.5 -93.85 46.15 -93.7 46.6 -94.2 Q46.95 -96.0 48.7 -97.1 50.2 -98.1 52.0 -98.05 54.4 -98.5 55.15 -96.8 L55.25 -96.7 M79.55 -51.25 Q81.35 -48.3 80.6 -44.8 L80.55 -44.75 Q80.75 -48.1 79.5 -51.25 L79.55 -51.25 M14.75 -87.45 L14.8 -87.4 Q11.05 -81.25 5.25 -77.2 L5.2 -77.2 Q9.2 -82.75 14.35 -87.5 L14.55 -87.6 14.75 -87.45 M36.2 -19.4 L36.2 -19.35 Q36.7 -18.7 36.7 -17.5 L36.55 -16.95 36.25 -16.4 Q35.95 -17.15 35.75 -18.2 35.4 -20.15 33.45 -19.6 L33.6 -19.85 33.85 -20.1 34.0 -20.2 Q35.25 -20.2 35.9 -19.65 L36.2 -19.4 M39.15 -9.2 Q41.05 -9.15 42.65 -10.1 43.05 -9.65 41.9 -9.3 38.9 -8.45 35.95 -8.35 37.2 -9.3 39.15 -9.2 M-18.75 -97.4 L-20.55 -97.1 -21.9 -95.8 Q-22.55 -94.85 -22.45 -93.65 L-22.95 -93.4 -23.05 -93.3 Q-24.2 -94.4 -23.05 -96.25 -21.8 -98.35 -19.25 -98.65 L-17.5 -99.05 Q-15.25 -99.35 -13.5 -98.45 L-13.5 -98.4 -18.75 -97.4 M-23.6 -66.55 L-22.55 -66.7 Q-20.0 -66.9 -18.75 -65.0 -20.8 -66.65 -23.7 -66.45 L-23.6 -66.55 M-29.2 -65.05 Q-31.4 -64.4 -32.6 -62.65 -33.05 -63.3 -32.05 -64.0 -30.25 -65.3 -28.15 -65.9 -28.1 -65.35 -29.2 -65.05 M-8.75 -70.45 Q-9.45 -69.35 -10.45 -68.75 L-10.65 -68.8 Q-12.15 -69.7 -13.7 -69.7 L-10.4 -70.55 -9.7 -70.75 -8.75 -70.5 -8.75 -70.45 M-25.35 2.25 L-25.35 2.3 -25.55 3.35 -25.6 3.5 Q-26.3 3.0 -25.8 2.0 L-25.75 2.0 Q-25.5 2.05 -25.35 2.25" fill="#fdc43e" fill-rule="evenodd" stroke="none"/>
    <path d="M10.8 -82.55 L8.9 -80.9 Q8.85 -80.85 8.8 -80.95 L12.0 -84.65 12.1 -84.7 Q11.95 -83.6 10.8 -82.55 M-11.1 -69.9 L-11.15 -69.95 -10.15 -70.25 Q-9.7 -68.95 -11.1 -69.9" fill="#fefd9a" fill-rule="evenodd" stroke="none"/>
  </g>
</svg>
