<?xml version="1.0" encoding="UTF-8" standalone="no"?>
<svg xmlns:ffdec="https://www.free-decompiler.com/flash" xmlns:xlink="http://www.w3.org/1999/xlink" ffdec:objectType="shape" height="214.7px" width="141.7px" xmlns="http://www.w3.org/2000/svg">
  <g transform="matrix(1.0, 0.0, 0.0, 1.0, 58.6, 123.55)">
    <path d="M20.15 -11.8 L20.25 -11.9 21.4 -13.85 Q21.8 -14.45 22.5 -14.7 25.8 -15.85 27.3 -13.2 27.5 -12.85 27.35 -12.5 L26.45 -11.05 Q25.75 -9.65 24.1 -9.2 24.1 -9.7 25.05 -10.1 25.0 -10.5 25.8 -11.05 L26.65 -11.75 Q27.4 -13.5 25.2 -14.05 24.1 -14.3 23.3 -13.55 22.1 -12.45 20.75 -11.7 L20.5 -11.65 20.2 -11.7 20.2 -11.75 20.15 -11.8 M8.6 -15.7 L6.1 -16.2 Q1.05 -17.7 -2.35 -14.1 -3.65 -12.65 -3.0 -10.85 -2.4 -9.25 -1.1 -8.1 1.8 -5.5 -0.05 -2.2 L-0.2 -2.05 -0.2 -1.95 -0.3 -2.0 -0.35 -1.95 -0.35 -2.05 Q-5.95 -5.1 -6.1 -11.5 -6.15 -15.5 -2.15 -16.75 1.25 -17.85 4.45 -16.9 6.65 -16.65 8.6 -15.7 M32.1 -22.9 Q31.25 -22.4 30.4 -22.05 34.2 -25.5 39.25 -25.2 41.15 -25.1 41.85 -23.4 42.05 -22.9 41.85 -22.4 40.15 -18.3 36.25 -16.0 32.4 -13.7 29.45 -10.35 L29.2 -10.1 29.0 -9.7 28.95 -9.85 28.55 -9.5 Q28.6 -10.05 29.15 -10.65 L29.25 -10.8 Q32.35 -15.55 36.8 -19.1 L37.4 -19.8 Q38.95 -22.35 36.4 -23.65 L35.3 -23.8 Q33.6 -23.55 32.1 -22.9 M62.05 -2.5 Q63.9 -1.8 65.15 0.1 67.1 3.1 66.35 6.55 65.5 10.05 62.1 11.6 L59.85 12.15 Q55.9 11.6 52.75 8.9 L50.8 7.55 50.75 7.45 50.95 7.5 51.65 7.5 55.7 8.3 59.0 8.95 Q63.35 8.1 64.35 3.85 64.85 1.85 63.95 0.0 63.3 -1.35 62.25 -2.3 L62.4 -2.25 62.05 -2.5 M-20.6 -14.4 Q-17.05 -13.9 -14.3 -15.95 -14.3 -14.65 -15.75 -13.7 -19.55 -11.2 -24.25 -11.8 L-25.45 -11.7 Q-29.0 -10.5 -29.8 -6.95 L-30.1 -4.2 -30.15 -4.15 -30.35 -6.0 -30.4 -6.0 -30.45 -5.4 Q-30.75 -7.8 -29.95 -10.25 -28.4 -15.15 -23.35 -14.75 L-20.6 -14.4 M-20.0 -2.55 Q-21.65 -6.55 -18.45 -9.55 -15.45 -12.35 -11.65 -10.8 -8.0 -9.3 -9.1 -5.65 L-10.55 -0.5 Q-10.75 0.35 -10.6 1.25 L-10.55 3.0 -10.5 4.15 Q-11.9 -0.05 -10.55 -4.55 L-10.45 -5.6 Q-10.7 -8.75 -14.05 -8.45 -15.0 -8.35 -15.7 -7.75 -18.55 -5.1 -16.15 -2.1 -15.3 -1.05 -14.3 -1.8 L-14.05 -1.8 -13.65 -2.25 Q-14.8 0.1 -17.85 -0.65 -19.4 -1.05 -20.0 -2.55 M-5.75 10.95 L-5.75 10.9 -5.5 11.05 Q-0.4 14.5 5.85 12.6 8.8 11.7 10.9 9.85 L11.05 9.35 11.1 12.95 Q11.25 15.95 12.65 18.65 13.6 20.45 15.25 21.65 18.4 24.0 22.35 23.15 L22.4 23.15 22.5 23.05 Q21.3 25.2 21.2 27.6 L21.2 27.65 21.15 27.7 21.1 27.75 21.05 27.75 Q17.55 24.65 12.75 23.55 6.95 22.25 1.0 22.0 L-0.85 21.85 Q-1.8 23.05 -2.45 24.6 -2.85 25.5 -2.25 26.3 -0.9 28.05 1.25 28.6 L2.05 28.6 1.75 28.7 1.85 28.75 Q2.15 28.8 1.85 28.95 L1.4 28.9 Q-3.5 31.3 -6.65 35.85 L-6.5 35.2 Q-6.2 33.05 -6.6 30.7 -7.05 28.0 -9.65 26.8 -12.6 25.45 -11.3 22.9 -10.8 21.9 -9.7 21.45 -5.35 19.6 -0.75 18.8 -1.05 16.4 -3.5 14.95 L-4.55 14.1 Q-5.75 12.7 -5.55 11.15 L-5.75 10.95 M-38.85 18.4 L-37.85 18.45 -40.5 18.5 Q-42.35 18.4 -44.25 17.4 -45.2 16.95 -46.2 16.9 -50.8 16.65 -53.4 20.45 -56.15 24.45 -54.45 28.95 -53.9 30.4 -52.85 31.3 L-52.7 31.35 Q-51.4 31.8 -50.5 32.4 L-50.6 32.4 Q-56.0 31.5 -57.95 26.7 -59.0 24.1 -58.3 21.4 -56.9 15.9 -51.4 14.55 L-49.05 14.6 Q-46.6 15.35 -44.35 16.65 -42.35 17.75 -40.25 18.2 L-38.9 18.35 -38.85 18.4 M-23.1 42.85 Q-21.55 42.05 -20.15 41.7 L-19.4 41.25 -19.15 41.3 Q-25.1 45.15 -30.1 50.3 -33.9 54.25 -34.25 59.55 L-33.9 61.35 Q-32.15 65.0 -28.1 63.7 L-23.9 61.95 Q-26.4 67.55 -32.35 68.45 L-32.55 68.5 Q-38.35 68.5 -39.7 63.15 -40.2 61.1 -39.55 59.05 -37.8 53.2 -33.05 49.35 -28.45 45.55 -23.1 42.85 M-20.05 58.5 L-20.15 58.4 Q-18.55 57.45 -17.85 59.3 -17.4 60.5 -18.35 61.5 -18.8 61.95 -19.35 62.15 L-19.7 62.0 -19.7 61.95 -19.6 61.9 -19.6 61.8 Q-18.8 60.0 -20.0 58.55 L-20.05 58.5 M-4.1 66.8 Q-0.15 56.3 7.8 48.15 14.45 41.3 11.0 33.2 9.65 30.1 6.8 28.6 L4.0 27.8 Q11.05 27.9 15.85 33.5 21.35 39.95 15.75 46.45 L3.85 59.8 Q-2.95 67.05 -0.75 76.35 0.05 79.65 2.35 82.2 8.55 89.0 17.0 91.15 L16.75 91.15 Q13.0 90.4 9.85 88.8 -2.6 84.65 -4.6 71.95 -5.05 69.3 -4.1 66.8 M52.25 31.1 Q54.3 31.25 54.85 33.5 55.45 36.1 53.6 37.95 50.25 41.3 45.55 41.45 41.05 41.9 38.65 38.45 37.85 37.35 38.35 36.05 39.25 33.7 40.75 31.6 41.35 30.75 41.25 29.6 L41.15 28.75 41.1 28.4 41.45 28.95 Q42.2 29.5 41.95 30.65 41.55 32.45 40.75 34.15 38.9 38.05 43.15 39.15 L46.85 39.25 Q50.7 38.45 52.0 35.0 52.9 32.65 51.65 30.65 52.05 30.8 52.25 31.1 M25.35 41.1 L25.4 40.55 25.7 41.35 Q27.25 42.4 29.15 43.45 31.6 44.75 34.35 45.1 39.2 45.7 43.5 47.8 44.8 48.45 45.75 49.55 49.15 53.55 47.75 58.35 46.6 62.5 42.15 62.75 37.95 63.35 37.05 59.75 36.7 58.3 37.15 56.85 37.55 55.55 38.45 54.75 39.1 54.0 40.1 53.75 36.5 56.75 39.05 60.45 39.45 61.0 40.15 60.95 45.75 60.7 45.7 55.4 45.65 53.25 44.05 51.7 38.3 46.15 31.0 48.95 29.45 49.55 28.35 50.3 L28.4 50.45 28.2 50.4 27.95 50.6 28.1 50.35 Q23.35 49.1 18.8 51.8 L18.8 51.75 18.5 51.95 Q18.4 51.2 19.65 50.35 24.8 47.1 25.35 41.35 L24.9 40.8 25.35 41.1 M24.35 73.35 Q25.35 76.8 22.6 79.1 19.3 81.85 15.0 81.8 9.3 82.15 6.4 77.6 5.55 76.2 5.75 74.6 L6.0 75.3 Q7.8 77.0 10.3 77.75 14.6 79.05 18.2 76.75 18.9 76.3 19.1 75.5 20.2 70.55 15.45 68.7 12.55 67.55 10.85 65.05 9.6 63.2 10.7 61.25 12.9 57.25 16.65 54.45 17.3 53.95 17.9 53.8 L18.2 53.6 18.05 53.8 18.15 53.8 18.05 53.85 16.45 57.1 Q15.9 58.25 16.1 59.6 16.75 65.1 21.25 68.7 23.55 70.55 24.35 73.35 M17.35 54.4 L17.15 54.55 17.2 54.6 17.35 54.4" fill="#aa0909" fill-rule="evenodd" stroke="none"/>
    <path d="M38.5 -19.0 L38.4 -18.95 Q38.3 -19.9 38.85 -21.2 39.4 -22.55 38.3 -23.35 40.9 -23.8 39.9 -20.75 L39.4 -19.45 38.9 -19.5 38.5 -19.0 M21.65 -13.55 L21.65 -13.6 Q22.2 -14.2 22.9 -14.1 L22.0 -13.25 21.9 -13.2 Q21.7 -13.3 21.65 -13.55 M65.25 6.8 Q64.15 9.8 61.0 10.6 57.7 10.6 54.75 9.35 L54.75 9.3 60.1 9.6 61.95 9.1 Q65.25 7.35 65.5 3.8 65.5 3.65 65.7 3.7 65.85 5.3 65.25 6.8 M48.9 39.25 Q50.15 38.9 51.2 38.05 L52.4 36.7 53.45 34.9 Q53.75 36.2 52.8 37.55 51.0 40.05 47.95 40.6 L45.45 40.85 Q41.2 41.4 39.2 38.05 L39.25 38.0 Q40.65 39.05 42.6 39.45 L48.9 39.25 M44.15 49.35 Q47.4 52.35 46.85 56.95 46.5 59.95 43.95 61.55 44.0 60.95 44.85 60.2 45.8 59.35 46.15 58.2 L46.35 56.7 Q46.5 55.6 46.3 54.45 45.65 51.0 42.6 49.1 41.3 48.3 39.8 48.0 L33.15 47.3 30.05 47.6 28.0 48.05 28.45 48.3 28.35 48.4 25.85 48.1 25.8 48.05 Q26.65 47.05 26.85 45.65 L27.05 44.15 26.9 43.95 27.05 43.95 27.05 43.9 27.1 44.0 29.15 44.65 Q31.9 45.75 34.95 46.2 39.05 46.85 42.85 48.55 43.55 48.85 44.15 49.35 M1.2 18.3 Q1.0 17.5 0.3 16.9 -0.5 16.1 -0.65 15.2 2.75 16.7 6.5 15.2 L8.7 14.35 8.7 14.25 8.75 14.3 9.15 14.2 8.9 14.55 10.25 18.0 Q10.8 20.15 12.15 21.9 L12.05 22.0 Q12.25 22.35 11.6 22.3 6.75 20.0 1.05 20.35 L1.0 20.3 Q1.4 19.3 1.2 18.3 M14.35 45.95 Q11.65 49.65 8.05 52.6 0.4 58.85 -2.25 68.1 -2.55 69.15 -3.15 69.9 -3.1 65.9 -0.9 62.1 0.6 59.5 2.45 57.2 5.65 53.15 9.45 49.6 12.6 46.7 13.9 42.65 14.6 40.4 14.15 38.1 13.7 35.6 12.75 33.4 17.0 35.8 16.4 40.75 16.1 43.6 14.35 45.95 M13.8 60.8 L14.2 60.85 14.35 60.8 14.4 60.85 Q12.8 63.85 15.35 66.15 16.8 67.45 18.65 68.35 22.45 70.2 23.2 74.0 23.4 75.0 22.95 75.85 21.05 79.7 16.55 80.6 L14.6 80.95 Q11.65 80.95 9.65 78.9 L9.65 78.85 9.75 78.9 9.7 78.85 9.7 78.8 11.3 79.5 Q13.4 80.7 15.75 80.15 20.3 79.1 21.25 74.9 L21.2 73.75 Q19.6 69.15 15.05 67.05 12.45 65.9 12.55 63.05 12.6 61.65 13.8 60.8 M-26.1 -12.1 Q-27.2 -11.7 -28.1 -11.0 -28.1 -11.95 -27.0 -12.7 -24.65 -14.3 -21.65 -13.6 L-18.0 -13.4 Q-20.95 -11.45 -24.8 -12.2 L-26.1 -12.1 M-12.75 -9.9 L-12.75 -9.65 -12.85 -9.45 Q-17.05 -9.55 -17.95 -5.9 -18.5 -3.7 -17.4 -1.9 L-17.5 -1.85 Q-20.0 -3.7 -19.2 -7.0 -18.9 -8.35 -17.75 -9.0 -15.4 -10.3 -12.75 -9.9 M-3.75 -9.05 Q-1.95 -7.1 -1.85 -4.85 -3.8 -6.5 -3.8 -9.0 L-3.75 -9.05 M-6.95 22.85 Q-5.3 21.75 -3.45 21.8 -5.35 24.35 -4.15 27.15 -3.65 28.25 -2.5 28.85 L-2.4 29.0 Q-4.05 29.8 -5.4 31.0 -5.1 28.1 -7.4 26.1 -9.25 24.45 -6.95 22.85 M-53.6 17.4 Q-52.5 16.3 -51.1 15.9 -56.3 19.3 -56.4 25.4 -56.4 26.9 -55.8 28.25 -55.7 28.55 -55.95 28.65 L-55.9 28.75 -55.95 28.8 -56.0 28.75 -56.15 28.55 -56.85 26.95 Q-58.15 23.1 -55.4 19.35 L-53.6 17.4 M-36.15 61.85 Q-36.4 65.3 -33.3 66.2 L-30.9 66.15 -28.85 65.5 -28.7 65.5 Q-28.95 65.9 -29.5 66.1 -31.1 67.45 -33.6 67.4 -37.8 67.0 -38.05 63.0 -38.15 60.55 -37.15 58.25 -36.0 55.5 -34.15 53.3 L-34.0 53.05 -33.95 53.05 -32.55 51.65 -34.4 54.05 Q-35.85 57.75 -36.15 61.85" fill="#fdc43e" fill-rule="evenodd" stroke="none"/>
    <path d="M39.65 -21.85 Q39.75 -20.7 39.15 -19.95 38.9 -20.8 39.15 -22.0 L39.2 -22.05 39.65 -21.85 M60.95 10.35 Q59.9 10.8 59.45 10.15 61.45 10.2 62.95 8.9 63.5 8.4 63.95 8.4 L63.45 9.15 Q62.3 10.0 60.95 10.35 M45.15 40.6 Q43.5 40.8 42.15 40.1 46.05 40.65 49.9 39.2 L50.8 39.25 Q48.95 40.3 46.7 40.4 L45.15 40.6 M8.3 16.0 Q8.25 16.95 8.55 17.85 9.0 19.3 9.95 20.45 10.1 20.65 9.85 20.7 6.6 18.95 2.7 19.5 L2.55 18.15 2.25 17.6 1.75 17.25 Q1.5 17.15 1.55 16.9 4.2 17.45 6.85 16.35 L8.3 16.0 M11.05 47.9 Q14.85 44.45 14.75 39.25 L14.6 36.4 Q15.5 37.5 15.45 39.45 15.25 45.55 10.45 49.15 10.15 48.7 11.05 47.9 M27.75 47.2 Q27.65 46.95 27.8 46.8 L28.05 45.5 28.15 45.3 28.25 45.5 31.45 45.85 Q33.2 46.2 34.55 46.95 L27.75 47.2 M21.9 75.2 Q21.95 72.4 20.15 70.35 22.35 71.5 22.55 74.25 22.7 76.8 20.65 78.25 20.55 77.65 21.35 76.75 21.9 76.1 21.9 75.2 M-5.6 23.1 Q-5.25 22.85 -4.9 22.95 -5.65 25.95 -3.9 28.55 L-3.65 28.85 Q-4.05 29.4 -4.7 29.55 L-5.45 27.9 -6.25 26.35 Q-7.6 24.35 -5.6 23.1 M-37.15 60.75 L-36.7 59.85 Q-36.85 61.55 -36.6 63.5 -36.3 65.75 -34.0 66.6 -33.6 66.8 -33.95 66.95 -38.3 65.4 -37.15 60.75" fill="#fefd9a" fill-rule="evenodd" stroke="none"/>
    <path d="M7.35 17.95 L7.5 18.95 7.45 19.0 7.1 19.15 3.7 18.95 3.65 18.9 Q3.5 18.7 3.65 18.45 L3.7 18.3 3.8 18.1 4.0 17.5 7.65 17.35 7.4 17.8 7.35 17.95" fill="#ffffff" fill-rule="evenodd" stroke="none"/>
    <path d="M15.8 -112.95 Q19.25 -106.7 18.8 -99.45 18.35 -91.8 13.2 -86.0 L5.75 -77.45 6.65 -78.65 Q5.0 -76.9 3.7 -74.95 L3.65 -75.0 Q6.5 -80.0 10.75 -84.2 L11.2 -84.65 11.9 -85.5 12.15 -85.85 Q16.8 -92.45 17.5 -100.45 18.0 -106.0 16.1 -111.05 14.55 -114.45 11.9 -117.3 9.3 -120.15 6.05 -122.1 L5.55 -122.4 2.95 -123.55 3.1 -123.55 4.65 -123.05 4.3 -123.35 4.4 -123.4 7.35 -121.85 Q11.85 -119.45 14.7 -114.9 L15.8 -112.95 M5.3 -108.65 Q11.05 -108.65 12.65 -103.35 13.25 -101.4 12.0 -99.8 L11.95 -99.75 11.8 -99.6 11.6 -99.5 Q12.7 -101.65 11.6 -103.75 10.95 -105.1 9.45 -105.6 5.65 -106.9 1.85 -105.3 -0.75 -104.2 -1.7 -101.65 -2.4 -99.8 -0.85 -98.5 L3.45 -95.15 Q5.45 -93.75 6.4 -91.9 L7.0 -90.75 7.35 -89.05 7.2 -89.25 7.25 -88.85 6.4 -90.9 5.4 -92.7 3.6 -94.2 Q1.75 -95.25 -1.45 -97.2 L-3.15 -98.2 Q-3.8 -98.6 -4.05 -99.3 -5.45 -102.9 -2.65 -105.55 -0.6 -107.45 2.25 -108.1 L5.3 -108.65 M45.05 -94.35 Q44.9 -95.65 45.1 -96.3 46.45 -100.35 50.7 -101.75 55.65 -102.25 57.85 -97.9 L57.85 -97.85 57.8 -97.95 57.75 -97.9 Q53.35 -98.55 49.2 -96.45 46.8 -95.2 45.25 -93.15 L45.05 -94.35 M80.15 -53.65 Q84.35 -48.75 82.55 -42.65 81.45 -38.8 77.55 -37.9 75.7 -37.5 73.95 -38.25 L71.1 -39.2 67.8 -39.25 66.45 -39.0 Q66.15 -38.9 66.0 -39.15 L67.95 -39.6 67.5 -39.6 68.9 -39.7 Q71.95 -39.95 75.05 -38.8 79.05 -37.3 80.85 -40.95 82.8 -44.95 81.9 -49.4 81.55 -51.2 80.6 -52.7 L80.25 -53.05 Q79.85 -53.45 80.15 -53.65 M2.65 -87.05 Q2.95 -85.75 2.1 -84.65 L0.2 -82.8 -1.65 -81.6 -2.75 -80.9 Q-4.45 -79.9 -6.05 -79.7 L-8.65 -79.1 -8.65 -79.15 Q-5.65 -80.0 -2.7 -81.35 0.05 -83.05 1.7 -86.05 L1.65 -86.45 Q0.95 -88.0 -0.95 -88.25 -7.05 -89.1 -13.2 -88.55 L-23.8 -88.9 Q-26.8 -89.4 -28.4 -91.75 -28.8 -92.35 -28.55 -93.0 -27.25 -96.35 -23.75 -97.75 -20.45 -99.0 -16.9 -99.15 -12.4 -99.75 -9.9 -96.4 -9.2 -95.45 -9.9 -94.5 -11.15 -92.8 -13.0 -92.3 L-13.4 -92.15 -13.5 -92.15 -13.75 -92.1 -13.5 -92.2 -13.55 -92.2 -13.45 -92.2 Q-11.35 -93.25 -11.0 -95.45 -10.8 -96.55 -11.85 -97.05 -16.95 -99.35 -21.2 -96.15 -21.9 -95.65 -21.85 -94.75 -21.6 -91.5 -18.25 -90.45 -14.65 -89.3 -10.95 -89.0 L-7.2 -88.9 -3.6 -89.25 -0.15 -89.35 Q1.85 -89.2 2.5 -87.65 L2.65 -87.05 M23.05 -50.55 Q21.85 -50.55 21.05 -51.4 22.05 -51.8 23.05 -52.45 L23.05 -50.6 23.05 -50.55 M23.8 -49.0 Q23.6 -49.15 23.85 -49.25 26.5 -48.0 24.5 -46.05 24.15 -45.75 23.8 -45.85 L23.4 -45.4 23.7 -45.9 23.6 -45.95 23.75 -46.0 Q24.3 -47.3 24.1 -48.8 L23.8 -49.0 M10.55 -41.2 L10.6 -41.25 10.7 -41.1 Q12.85 -40.5 15.1 -41.45 L15.3 -40.6 15.3 -40.55 15.15 -40.5 15.35 -40.35 Q13.0 -41.0 10.85 -39.6 L10.7 -39.6 10.8 -39.65 Q10.4 -40.15 10.55 -41.05 L10.2 -41.25 10.55 -41.15 10.55 -41.2 M31.95 -19.75 L35.0 -19.7 Q36.5 -18.6 36.0 -16.75 34.85 -12.45 30.45 -13.45 28.45 -13.85 28.35 -15.9 28.3 -17.35 28.55 -18.8 28.8 -20.15 28.55 -21.55 L28.6 -21.6 28.75 -21.0 28.75 -21.55 29.35 -17.6 29.55 -16.5 Q30.4 -13.75 33.2 -15.1 34.05 -15.5 34.4 -16.4 35.25 -18.75 33.0 -19.6 32.3 -19.85 31.7 -19.35 31.45 -19.15 31.25 -19.35 L31.95 -19.75 M24.0 -17.7 Q28.1 -17.25 29.0 -13.55 29.35 -12.0 28.65 -10.55 27.8 -8.75 26.5 -7.6 L26.35 -7.45 Q24.7 -6.1 22.35 -5.7 25.4 -6.6 27.25 -8.95 28.2 -11.1 27.6 -13.5 27.3 -14.65 26.3 -15.3 25.05 -16.1 24.45 -17.2 23.95 -17.4 24.0 -17.7 M28.9 -2.95 Q28.6 -3.7 29.4 -4.6 33.35 -8.9 39.35 -9.3 L41.6 -9.8 42.4 -10.35 42.4 -10.2 42.8 -10.45 Q42.7 -9.8 41.9 -9.55 L41.35 -9.25 Q38.95 -8.0 36.15 -7.95 L34.2 -7.35 Q31.8 -6.0 29.8 -4.45 L28.9 -2.95 M76.7 -38.1 L76.7 -38.05 76.9 -38.05 76.7 -38.1 M-23.6 -84.15 Q-23.35 -83.85 -24.0 -83.4 L-24.7 -82.5 Q-25.8 -81.45 -26.25 -79.95 -27.35 -75.95 -24.9 -72.85 -23.9 -71.6 -22.35 -71.1 L-20.7 -70.35 -20.0 -70.2 -20.5 -70.2 -20.7 -70.25 Q-24.95 -70.6 -26.6 -74.6 -27.05 -75.7 -27.15 -76.85 -27.5 -81.65 -23.6 -84.15 M-21.35 -66.8 L-21.35 -66.75 -22.65 -67.0 Q-27.85 -66.55 -32.3 -63.55 L-33.2 -62.85 -33.5 -62.3 Q-33.7 -63.25 -32.75 -64.25 -29.65 -67.55 -25.05 -67.75 -23.0 -67.9 -21.35 -66.8 M-12.9 -69.55 L-12.9 -69.6 -12.95 -69.6 -12.9 -69.55 M-9.4 -69.5 L-10.2 -68.4 Q-13.3 -69.55 -16.4 -69.65 -12.6 -69.65 -8.9 -70.7 -8.8 -70.2 -9.4 -69.5 M-24.9 0.0 L-24.0 -0.75 Q-23.9 -0.25 -24.65 0.3 L-25.5 1.05 Q-26.65 2.8 -25.4 4.5 -24.95 5.15 -24.1 5.15 L-22.35 4.85 -22.55 5.05 -21.9 4.7 -22.45 5.2 Q-24.0 6.25 -26.2 5.45 -27.6 4.9 -27.15 3.45 L-26.3 1.65 Q-25.95 0.4 -24.9 -0.35 L-24.9 0.0" fill="#aa0909" fill-rule="evenodd" stroke="none"/>
    <path d="M7.1 -107.35 L8.65 -107.2 8.7 -107.1 8.2 -107.1 8.6 -106.95 7.45 -107.05 Q4.55 -106.9 1.75 -105.9 -2.1 -104.55 -3.0 -100.95 L-2.95 -100.2 -3.0 -100.15 -3.3 -100.1 -3.4 -100.8 Q-3.8 -101.45 -3.45 -102.55 -2.4 -105.55 0.75 -106.75 2.9 -107.6 5.2 -107.5 L7.1 -107.35 M18.25 -102.75 Q19.25 -97.2 16.45 -92.1 L16.35 -92.0 Q16.1 -93.3 16.85 -94.8 18.5 -98.3 18.0 -102.3 17.95 -102.65 18.25 -102.75 M54.65 -99.45 L54.6 -99.45 Q50.35 -98.7 47.0 -96.1 L46.9 -96.05 46.8 -96.1 46.85 -96.1 Q46.55 -96.55 46.85 -97.0 47.0 -97.75 47.7 -98.4 49.9 -100.5 52.95 -100.6 54.4 -100.6 54.65 -99.6 L54.65 -99.55 54.65 -99.45 M38.55 -8.8 L36.6 -8.6 38.1 -9.0 38.55 -8.8 M35.5 -18.1 L35.35 -18.0 35.15 -18.0 Q34.9 -19.1 34.05 -19.7 L34.15 -19.7 Q35.35 -19.4 35.5 -18.1 M-22.2 -97.2 Q-22.25 -96.35 -23.3 -95.1 -23.85 -94.45 -23.6 -93.6 -23.3 -92.6 -22.4 -92.1 -25.6 -90.95 -25.8 -94.1 -25.85 -94.55 -25.5 -95.0 -24.2 -96.6 -22.2 -97.2 M-26.95 -67.0 Q-26.85 -67.25 -26.5 -67.3 L-25.55 -67.4 -25.3 -67.45 Q-24.65 -67.75 -24.4 -67.3 L-24.4 -67.25 -26.35 -66.85 Q-26.75 -66.75 -26.95 -67.0 M-29.6 -66.0 Q-29.55 -65.45 -30.55 -65.0 -31.25 -64.65 -31.85 -64.45 L-31.9 -64.5 Q-31.05 -65.5 -29.65 -66.0 L-29.6 -66.0 M-10.2 -69.9 Q-9.85 -69.05 -11.35 -69.2 L-11.6 -69.35 Q-11.25 -70.05 -10.2 -69.9" fill="#fdc43e" fill-rule="evenodd" stroke="none"/>
  </g>
</svg>
