<?xml version="1.0" encoding="UTF-8" standalone="no"?>
<svg xmlns:ffdec="https://www.free-decompiler.com/flash" xmlns:xlink="http://www.w3.org/1999/xlink" ffdec:objectType="shape" height="221.15px" width="144.75px" xmlns="http://www.w3.org/2000/svg">
  <g transform="matrix(1.0, 0.0, 0.0, 1.0, 61.55, 125.95)">
    <path d="M3.15 -17.05 Q-0.55 -17.55 -3.45 -15.25 -4.35 -14.5 -4.6 -13.4 -5.55 -9.55 -2.85 -6.4 -1.6 -4.9 -2.5 -3.4 L-2.35 -3.3 -2.4 -3.3 -2.5 -3.35 -2.55 -3.25 -2.6 -3.35 Q-5.6 -4.05 -6.75 -6.7 -7.75 -9.05 -7.4 -11.6 -6.8 -15.75 -2.6 -17.0 L1.9 -17.6 Q4.15 -17.55 5.75 -16.3 L3.05 -17.1 3.15 -17.05 M36.0 -24.7 L36.25 -24.9 Q38.95 -26.9 42.3 -26.05 43.05 -25.85 43.3 -25.15 43.85 -23.4 42.45 -22.05 39.1 -18.9 35.4 -16.2 33.0 -14.5 31.15 -12.4 31.4 -13.4 32.55 -14.35 L34.65 -16.05 35.45 -16.9 40.15 -20.7 Q41.2 -21.6 41.15 -22.9 41.1 -24.15 39.8 -24.5 L36.2 -24.75 36.0 -24.7 M21.45 -12.5 L21.05 -12.2 21.05 -12.25 21.05 -12.55 20.85 -12.35 20.8 -12.4 21.1 -12.8 Q21.4 -13.7 22.65 -14.15 L25.7 -14.1 26.05 -14.0 Q26.7 -13.8 26.85 -13.1 27.1 -11.8 26.2 -10.75 25.9 -10.35 25.45 -10.1 25.6 -10.8 26.25 -11.75 27.0 -12.8 26.35 -13.5 25.0 -14.15 23.8 -13.95 L21.45 -12.5 M64.5 -1.25 Q66.05 -0.45 66.65 1.5 68.2 6.35 64.55 9.9 62.9 11.5 60.65 11.7 59.0 11.8 57.9 10.8 L57.15 10.3 57.75 10.4 57.7 10.35 57.7 10.3 Q61.25 11.2 63.95 8.8 66.25 6.8 66.4 3.8 L66.4 3.4 Q66.3 2.05 65.7 0.6 L65.7 0.55 64.55 -0.95 64.7 -0.9 64.75 -0.9 64.5 -1.25 M52.05 33.8 L51.55 33.45 52.0 33.4 52.05 33.4 Q52.6 33.6 53.0 34.5 54.25 37.25 52.0 39.6 49.2 42.5 45.2 43.45 L41.25 43.95 Q37.75 44.3 36.2 41.55 35.75 40.75 36.0 39.9 36.7 37.0 39.35 35.4 41.2 34.3 41.1 32.25 L41.3 32.85 Q41.75 33.5 41.2 34.6 39.95 36.9 38.25 38.9 37.8 39.45 38.15 40.05 39.25 42.15 41.95 41.65 L46.35 40.8 Q49.6 40.15 51.3 37.6 52.25 36.2 52.15 34.5 L52.05 33.8 M9.7 12.15 L9.6 12.4 Q9.4 14.8 9.9 17.35 10.6 20.75 13.4 22.5 L13.35 22.65 12.8 22.3 13.2 22.7 13.15 22.7 Q7.95 19.4 1.75 20.25 L0.05 20.45 -0.25 20.55 -0.3 20.45 -0.85 20.5 -0.3 20.3 0.6 19.65 Q1.45 19.25 1.4 18.3 1.3 16.5 0.3 15.25 L-0.2 14.75 Q-0.8 14.2 -1.7 13.8 -0.3 14.1 0.55 15.05 L1.75 15.8 Q4.85 17.85 7.35 15.25 L9.4 12.65 9.65 12.15 9.65 12.25 9.7 12.15 M9.25 13.45 L9.25 13.35 9.2 13.4 9.25 13.45 M18.5 39.2 Q20.1 41.6 19.45 44.45 17.85 51.25 12.05 55.65 1.85 63.2 -0.05 75.25 -1.3 83.35 4.6 89.15 8.7 93.15 13.65 95.2 L13.45 95.2 Q11.3 94.6 9.45 93.7 L10.35 94.4 10.2 94.4 Q-2.35 89.6 -2.7 76.6 -2.95 69.35 1.85 63.85 8.35 56.25 13.6 47.85 15.45 44.9 15.25 41.45 15.1 38.75 13.95 36.4 L12.55 35.7 13.65 35.8 13.05 34.8 14.65 36.05 Q16.9 36.85 18.5 39.2 M24.2 48.9 Q24.25 48.35 24.85 47.65 26.25 45.85 26.25 43.65 L26.2 43.6 26.25 43.6 26.25 43.5 26.55 43.75 29.6 45.3 Q30.7 45.8 31.95 45.9 36.2 46.15 40.25 47.3 42.45 47.95 44.15 49.35 47.65 52.35 46.65 56.85 45.7 61.3 41.05 62.1 37.55 62.2 36.75 58.85 36.25 56.8 37.6 55.3 L37.7 55.35 37.8 55.45 37.8 55.55 37.8 55.6 37.7 55.7 37.45 57.2 Q37.05 58.5 37.8 59.55 38.9 61.15 40.75 60.75 41.75 60.55 42.55 59.9 46.75 56.55 44.55 51.9 L43.9 51.15 Q40.85 48.8 37.0 48.35 32.2 47.75 28.0 49.8 L28.05 49.85 27.95 49.9 Q26.2 49.0 24.25 49.0 L24.2 49.05 24.2 49.0 24.05 49.0 24.05 48.95 24.2 48.9 M12.1 60.65 Q13.6 58.75 15.5 57.5 L15.55 57.55 15.1 57.9 Q13.0 60.6 13.35 64.0 13.45 64.75 13.85 65.3 16.85 69.45 22.45 73.8 L23.5 74.55 Q24.4 75.1 24.7 76.2 25.55 79.55 22.65 81.85 19.3 84.5 15.0 84.4 9.2 84.7 7.15 79.55 L6.8 77.85 Q6.7 76.85 7.25 76.25 L7.35 75.3 8.1 77.15 Q10.2 81.35 15.15 80.35 19.45 79.5 19.6 75.55 19.65 74.85 19.05 74.3 16.5 71.9 13.45 70.05 10.05 67.9 10.6 64.15 10.85 62.2 12.1 60.65 M-29.15 -8.2 L-29.45 -7.3 -29.5 -7.55 -29.6 -7.3 -29.5 -7.95 Q-29.5 -9.45 -28.8 -10.9 -27.1 -14.6 -22.85 -14.15 -17.95 -13.65 -13.85 -16.45 L-12.7 -17.15 -11.8 -18.15 -12.3 -17.3 -12.2 -17.3 -12.35 -17.2 Q-14.4 -13.8 -18.65 -12.65 L-22.3 -12.3 Q-25.7 -12.55 -27.9 -9.9 L-29.15 -8.2 M-11.6 -8.05 Q-14.35 -9.1 -15.95 -6.7 -16.95 -5.25 -16.25 -3.6 -15.4 -1.7 -13.65 -2.35 L-13.45 -2.8 Q-13.0 -2.15 -13.85 -1.4 -16.55 0.95 -18.85 -1.8 -20.15 -3.35 -20.05 -5.4 -19.85 -9.05 -17.2 -11.05 L-17.15 -11.05 -16.15 -11.65 -14.3 -11.9 Q-9.55 -10.75 -9.45 -6.1 -9.45 -4.5 -10.0 -2.9 L-10.15 -2.5 -10.55 0.8 -10.6 -0.85 -10.85 0.95 Q-11.05 -0.9 -10.6 -2.85 L-10.4 -6.35 Q-10.3 -7.6 -11.6 -8.05 M-3.1 21.65 Q-3.0 21.7 -3.05 21.8 L-3.2 21.75 Q-5.0 23.7 -4.55 26.4 L-4.2 27.1 Q-3.0 28.4 -1.5 29.05 L-1.05 28.95 -1.35 29.1 -1.1 29.2 -1.2 29.2 -1.45 29.15 Q-3.7 30.35 -5.6 32.25 L-5.75 32.35 -5.55 31.7 -5.45 29.85 Q-5.4 26.7 -8.55 25.65 L-8.95 25.2 Q-9.55 22.85 -7.1 21.8 L-3.2 21.6 -3.1 21.65 M-30.95 49.15 L-31.15 49.3 -32.95 50.75 Q-36.1 53.55 -38.15 57.45 -40.7 62.3 -37.5 66.0 -35.05 68.85 -31.9 68.25 -28.8 67.65 -26.15 63.9 -25.1 64.95 -25.05 66.9 -24.9 71.05 -29.55 73.15 -31.0 73.8 -32.6 73.95 -38.2 74.0 -40.55 68.95 -43.2 63.05 -39.6 57.7 -37.4 54.35 -34.45 51.65 L-32.3 49.6 Q-31.9 49.25 -31.55 49.25 L-31.4 49.15 Q-31.15 48.95 -30.95 49.15 M-57.05 19.6 Q-59.4 23.65 -58.45 28.1 -58.1 29.75 -56.9 31.05 L-55.65 32.4 -54.75 32.8 Q-54.6 32.85 -54.8 32.9 L-55.35 32.65 -55.25 32.75 -55.3 32.75 -55.65 32.55 Q-61.0 30.05 -61.5 24.0 -61.9 19.35 -58.15 16.55 -54.2 13.7 -49.6 15.35 -47.65 16.05 -45.85 17.15 -43.9 18.25 -41.85 18.45 L-40.45 18.25 -41.2 18.5 -40.6 18.5 -41.6 18.6 Q-46.0 19.8 -50.25 17.3 -50.95 16.9 -51.8 16.8 -55.25 16.5 -57.05 19.6" fill="#aa0909" fill-rule="evenodd" stroke="none"/>
    <path d="M39.45 -25.1 Q41.25 -26.1 42.25 -24.45 L42.4 -23.9 Q42.4 -23.3 42.0 -22.95 41.85 -25.2 39.45 -25.05 L39.45 -25.1 M65.6 7.75 Q64.75 9.6 62.75 10.6 L60.3 11.25 59.35 11.05 59.35 11.0 Q62.9 11.0 65.05 8.1 65.3 7.8 65.6 7.75 M43.3 43.1 L40.1 43.35 Q37.15 43.5 36.95 40.75 L38.4 41.85 Q38.85 42.3 39.4 42.45 L42.8 42.8 Q47.95 42.15 51.35 38.55 L51.85 38.45 Q48.75 42.55 43.3 43.1 M8.45 17.75 Q8.25 18.75 8.9 19.55 9.35 20.1 8.8 20.4 5.7 19.6 2.45 19.75 L2.4 19.7 2.65 18.9 2.75 18.65 2.8 18.35 Q2.75 17.9 2.85 17.5 4.7 18.0 6.7 17.5 7.55 17.3 8.1 16.7 8.6 17.05 8.45 17.75 M16.55 49.15 Q14.35 53.3 10.2 55.8 10.05 54.8 11.2 53.7 17.3 47.95 16.25 39.7 17.85 40.15 18.0 42.3 18.2 45.95 16.55 49.15 M25.6 48.15 Q26.45 46.8 27.6 45.85 L27.8 45.9 Q29.4 47.0 31.45 47.2 L37.65 47.6 Q43.05 48.0 45.75 52.4 L46.0 53.05 Q46.55 55.55 45.8 57.75 45.95 55.5 45.5 53.05 45.15 51.35 43.7 50.2 40.4 47.7 36.1 47.7 L36.1 47.8 36.05 47.9 27.9 48.4 26.05 48.35 25.6 48.15 M16.5 70.25 Q19.2 71.15 20.8 73.8 23.05 77.55 20.4 80.85 L19.55 81.65 Q18.0 82.75 16.1 83.05 13.8 83.45 12.1 82.35 11.4 82.1 11.1 81.45 L17.4 81.15 Q21.35 79.85 20.75 75.75 20.4 73.7 18.55 72.45 L15.95 70.15 15.85 70.1 15.95 70.1 15.8 69.95 16.5 70.25 M-26.1 -11.9 Q-26.1 -12.8 -24.7 -13.1 L-18.5 -13.75 -17.95 -13.85 -16.3 -14.4 Q-16.55 -13.65 -17.65 -13.35 -21.2 -12.45 -25.0 -12.35 L-26.1 -11.9 M-17.35 -3.85 Q-16.95 -2.7 -16.1 -2.05 L-16.35 -1.85 Q-18.8 -2.85 -18.8 -5.6 -18.85 -8.7 -15.6 -8.9 L-15.05 -8.7 Q-16.85 -7.4 -17.45 -5.25 -17.65 -4.55 -17.35 -3.85 M-5.1 23.2 Q-5.9 24.45 -6.15 25.95 L-6.3 26.1 Q-8.95 23.75 -5.4 23.05 -5.2 23.0 -5.1 23.2 M-4.8 28.05 Q-4.0 28.15 -3.55 29.0 -3.45 29.15 -3.5 29.35 L-3.55 29.4 Q-3.75 29.65 -4.1 29.7 L-4.95 29.6 -5.05 29.55 -5.05 28.8 -4.8 28.05 M-58.85 29.5 L-58.9 29.5 -59.0 29.25 Q-61.8 24.55 -59.15 19.6 -58.65 18.65 -57.9 18.35 L-59.0 20.1 Q-58.75 21.05 -59.05 22.35 -59.95 26.0 -58.85 29.5 M-32.05 70.25 Q-29.15 69.5 -27.05 67.65 L-26.95 67.4 -26.85 67.3 -26.85 67.5 -26.8 67.45 -26.75 67.5 -26.85 67.6 Q-26.9 68.7 -27.8 69.75 -29.7 71.95 -32.75 72.25 -36.6 72.5 -37.65 69.1 L-38.0 68.6 -37.95 68.55 -37.75 68.5 -37.6 68.6 Q-35.65 71.2 -32.05 70.25" fill="#fdc43e" fill-rule="evenodd" stroke="none"/>
    <path d="M7.8 18.35 L7.9 19.65 3.5 19.3 3.45 19.3 3.4 19.1 3.4 18.95 3.45 18.8 3.5 18.75 3.5 18.7 3.65 18.2 5.85 18.25 Q6.8 18.2 7.55 17.7 L7.8 18.05 7.8 18.35 M16.95 42.25 Q17.8 43.15 17.3 44.75 L16.75 46.65 Q15.7 50.1 13.15 52.3 12.95 51.7 13.85 50.95 14.8 50.1 15.4 48.9 16.95 45.7 16.95 42.25 M29.0 47.35 L29.45 47.65 29.45 47.7 Q28.55 48.3 27.25 48.25 L26.35 48.15 26.3 48.1 Q27.15 46.05 29.0 47.35 M37.6 42.1 L39.75 43.0 39.65 43.05 Q38.4 43.0 37.6 42.1 M-5.9 23.85 L-5.85 23.9 -6.55 24.95 -6.65 25.0 Q-7.3 23.9 -5.9 23.85 M-34.85 70.95 L-34.75 70.85 Q-31.6 71.55 -29.15 69.5 L-29.1 69.5 -28.9 69.6 -28.8 69.65 -28.7 69.75 Q-30.65 71.4 -33.3 71.65 -35.2 72.05 -35.85 70.8 L-35.7 70.75 -34.85 70.95" fill="#fefd9a" fill-rule="evenodd" stroke="none"/>
    <path d="M4.55 -125.75 Q4.15 -126.05 5.1 -125.85 10.6 -123.25 14.4 -118.65 16.1 -116.5 17.15 -114.0 19.5 -108.4 18.75 -102.35 18.35 -99.55 17.35 -96.85 L16.9 -95.75 Q15.5 -91.6 13.1 -87.85 11.35 -85.1 9.25 -83.2 11.9 -86.6 14.0 -90.4 L15.35 -93.2 Q18.5 -99.85 18.05 -107.25 17.65 -113.65 13.15 -118.55 L9.2 -122.35 Q6.7 -124.45 4.2 -125.9 L4.3 -125.9 4.55 -125.75 M12.55 -101.65 Q12.45 -103.6 10.95 -105.1 7.4 -108.75 2.25 -107.65 0.05 -107.2 -1.9 -105.9 -4.7 -104.05 -3.35 -101.15 L-2.55 -100.05 Q0.15 -98.5 3.4 -94.25 L2.95 -94.65 Q0.85 -96.4 -1.7 -97.4 -4.55 -98.55 -5.8 -101.1 -6.45 -102.3 -5.85 -103.6 -4.4 -106.9 -0.95 -108.35 1.35 -109.3 3.8 -109.45 9.5 -109.7 12.2 -104.95 13.15 -103.2 12.65 -101.5 L12.65 -101.85 12.55 -101.65 M50.3 -102.05 Q48.2 -100.75 47.0 -98.7 L45.55 -96.1 45.6 -96.0 45.5 -96.05 45.45 -95.9 45.45 -96.0 Q44.7 -96.45 44.6 -97.65 44.45 -101.7 48.3 -103.05 L50.8 -102.8 Q51.15 -102.55 50.3 -102.05 M2.0 -88.45 L-3.7 -88.75 -1.9 -89.05 Q1.85 -89.7 4.35 -87.35 L4.5 -86.7 Q3.85 -84.8 2.0 -83.75 -0.5 -82.25 -3.05 -81.4 0.7 -83.15 3.85 -86.0 4.5 -86.6 4.0 -87.3 3.3 -88.3 2.0 -88.45 M31.35 -19.25 L31.4 -19.25 31.3 -19.35 Q33.1 -21.4 35.5 -19.65 36.15 -19.15 36.3 -18.3 36.65 -15.75 34.6 -14.45 L32.95 -13.65 Q30.2 -12.75 29.15 -15.0 28.6 -16.15 28.65 -17.45 L28.6 -20.0 28.5 -20.3 Q28.35 -20.5 28.55 -20.55 L28.65 -20.45 Q29.4 -19.6 29.15 -18.4 29.7 -16.8 30.6 -15.35 L31.7 -14.65 Q35.1 -14.2 35.15 -17.3 35.15 -19.6 32.6 -19.2 L31.35 -19.25 M28.8 -3.3 L29.25 -3.85 Q31.3 -7.1 35.2 -8.45 L37.4 -9.05 38.35 -8.85 38.35 -8.8 35.65 -8.2 Q35.5 -7.8 34.6 -7.4 32.75 -6.55 31.2 -5.25 L29.75 -4.0 29.4 -3.55 28.85 -3.15 29.05 -3.45 28.8 -3.3 M72.05 -38.45 L72.2 -38.4 71.85 -38.6 73.65 -38.3 Q78.3 -38.15 81.1 -42.2 82.2 -43.75 82.3 -45.65 82.4 -47.65 82.15 -49.3 L82.25 -49.05 82.2 -49.75 Q84.95 -43.8 80.05 -39.05 78.3 -37.4 75.9 -37.5 L73.45 -37.9 Q72.75 -38.05 72.2 -38.35 L72.05 -38.45 M-2.1 -99.7 L-2.35 -99.85 -2.1 -99.7 M-9.15 -93.1 Q-10.8 -92.2 -12.5 -92.2 -13.05 -92.0 -13.4 -92.35 -10.05 -92.95 -8.6 -95.65 -8.45 -95.9 -8.75 -96.1 -12.45 -98.4 -16.9 -98.1 -20.0 -97.9 -22.7 -96.45 -25.35 -95.0 -23.6 -92.7 -22.5 -91.3 -20.8 -90.7 L-15.45 -89.35 -14.7 -89.2 -14.75 -89.1 -15.4 -89.1 Q-21.95 -88.1 -28.2 -90.3 -30.8 -91.2 -30.05 -93.45 -29.75 -94.25 -29.05 -94.8 -24.15 -98.5 -17.9 -98.8 L-14.0 -98.95 Q-9.95 -99.5 -6.6 -97.65 -5.95 -97.25 -6.15 -96.55 -6.9 -94.25 -9.15 -93.1 M-26.3 -75.6 Q-25.55 -73.1 -23.25 -71.6 L-22.4 -70.95 Q-23.3 -70.8 -24.3 -71.6 -28.65 -75.1 -26.6 -80.25 -27.0 -78.0 -26.3 -75.6 M-9.55 -70.35 Q-9.5 -69.65 -10.4 -69.05 L-10.7 -69.05 -12.5 -69.55 -9.55 -70.35" fill="#aa0909" fill-rule="evenodd" stroke="none"/>
    <path d="M8.8 -107.65 L8.8 -107.6 Q4.15 -109.35 -0.65 -107.3 -1.0 -107.15 -1.1 -107.45 1.35 -108.75 4.4 -108.8 7.05 -109.05 8.8 -107.65 M48.1 -101.4 L48.1 -101.35 46.3 -99.45 Q46.0 -99.0 46.0 -98.5 44.9 -99.25 45.85 -100.7 46.25 -101.3 46.95 -101.5 L48.1 -101.4 M32.55 -19.75 L32.55 -19.85 32.95 -20.05 Q34.05 -20.2 34.85 -19.65 L34.9 -19.6 34.9 -19.5 34.75 -19.25 34.7 -19.25 Q33.8 -19.8 32.6 -19.7 L32.55 -19.75 M-4.3 -104.15 Q-4.75 -103.45 -4.5 -102.65 -4.25 -101.85 -4.3 -101.1 -4.55 -101.1 -4.5 -101.35 -5.7 -102.65 -4.8 -104.55 L-3.95 -105.6 Q-3.7 -105.05 -4.3 -104.15 M-25.35 -92.3 Q-28.05 -91.1 -28.1 -93.65 -28.15 -95.05 -26.65 -95.55 L-25.95 -95.7 -25.4 -95.6 -25.35 -95.55 Q-26.05 -93.95 -25.35 -92.55 L-25.35 -92.3 M-10.7 -69.25 L-10.8 -69.25 -11.05 -69.65 -10.5 -69.8 Q-10.1 -69.55 -10.7 -69.25" fill="#fdc43e" fill-rule="evenodd" stroke="none"/>
  </g>
</svg>
