<?xml version="1.0" encoding="UTF-8" standalone="no"?>
<svg xmlns:ffdec="https://www.free-decompiler.com/flash" xmlns:xlink="http://www.w3.org/1999/xlink" ffdec:objectType="shape" height="226.75px" width="146.15px" xmlns="http://www.w3.org/2000/svg">
  <g transform="matrix(1.0, 0.0, 0.0, 1.0, 63.2, 128.5)">
    <path d="M38.75 -25.65 L38.85 -25.75 Q38.65 -25.8 38.7 -26.05 L38.7 -26.1 Q41.8 -28.25 44.45 -26.35 L45.15 -25.8 Q45.4 -25.6 45.25 -25.2 44.4 -23.15 42.6 -21.65 L42.4 -21.5 41.95 -21.05 40.5 -19.9 39.75 -19.45 38.2 -18.3 Q38.15 -18.9 39.0 -19.4 40.9 -20.5 42.35 -22.0 43.25 -23.35 43.4 -25.15 43.45 -25.7 42.9 -26.0 41.05 -26.9 39.3 -25.75 L38.75 -25.65 M26.75 -12.35 Q26.05 -14.6 23.45 -13.65 L21.55 -12.85 Q23.15 -14.95 25.9 -13.85 27.15 -13.35 26.75 -12.35 M67.15 8.4 Q66.3 9.95 64.65 10.55 64.4 10.15 65.3 9.65 L66.0 9.05 66.8 8.1 Q68.25 4.85 67.0 1.65 L66.15 0.35 Q67.15 0.65 67.65 1.9 69.0 5.3 67.15 8.4 M42.75 45.05 Q39.3 45.65 36.9 43.55 35.9 42.7 36.2 41.4 37.0 38.45 39.3 36.45 L38.55 37.75 38.7 37.65 38.7 37.7 38.35 38.05 37.65 39.1 Q36.95 40.7 37.9 42.5 38.15 42.95 38.6 43.1 42.15 44.45 45.9 43.25 50.55 41.8 51.8 37.35 L51.8 36.5 51.9 36.55 Q51.85 36.4 51.95 36.35 53.5 38.75 51.55 41.25 50.0 43.2 47.6 43.95 L42.75 45.05 M8.4 16.25 Q8.45 17.9 9.0 19.5 9.35 19.7 9.1 19.85 L9.15 19.95 9.1 19.95 9.05 19.85 Q6.2 18.55 2.95 19.55 L2.6 19.6 2.5 19.65 2.5 19.55 2.3 19.45 2.5 19.35 2.6 18.5 Q2.7 17.75 2.15 17.3 L2.7 17.55 Q5.4 18.6 7.7 16.4 7.95 16.2 8.15 16.1 L8.35 15.25 8.4 15.25 8.4 16.05 8.55 16.1 8.4 16.25 M18.45 44.9 Q16.55 54.25 9.35 60.85 L7.0 63.3 Q-0.7 72.15 1.8 83.4 3.35 90.5 9.35 94.8 10.0 95.1 11.05 95.95 L14.7 98.2 14.5 98.25 Q11.15 96.9 8.6 94.95 4.35 92.85 1.7 88.4 -2.25 81.7 -1.15 74.1 -0.1 66.55 5.15 60.95 L13.75 52.3 Q17.45 48.8 17.8 44.05 L17.55 42.1 Q18.9 42.6 18.45 44.9 M27.95 45.15 L27.95 45.05 28.05 45.2 Q28.65 45.3 29.4 45.8 L31.6 46.65 41.0 48.3 Q44.4 49.0 45.55 52.05 47.55 57.3 43.6 61.3 42.45 62.45 40.85 62.55 36.65 62.0 36.85 58.15 L36.9 58.1 37.15 59.5 36.95 57.95 37.0 57.95 Q37.5 61.5 41.2 61.15 L42.15 60.8 Q44.2 59.3 44.75 56.85 45.4 54.0 43.8 51.5 41.9 48.5 38.25 48.15 34.6 47.8 31.0 48.25 29.45 48.45 28.05 49.0 L28.3 49.15 28.2 49.15 27.8 49.1 27.75 49.05 25.95 48.7 25.85 48.8 25.7 48.6 25.7 48.55 Q27.35 47.4 27.85 45.4 L27.6 45.2 27.9 45.2 27.95 45.15 M10.9 63.85 Q12.2 61.3 13.15 60.45 11.5 62.3 11.1 64.6 11.45 65.85 12.1 67.1 12.9 68.6 14.35 69.55 L22.7 75.15 Q23.7 75.9 24.25 77.0 25.85 80.3 23.1 82.75 20.35 85.25 16.6 85.5 10.9 86.15 7.65 81.8 6.6 80.4 6.35 78.65 6.15 76.75 7.4 75.3 7.25 77.15 7.7 79.1 8.15 81.2 10.15 81.95 15.05 83.75 19.45 81.25 20.95 80.45 21.0 78.75 21.1 76.65 19.3 75.3 15.8 72.75 12.6 69.9 10.05 67.6 10.7 64.6 L10.9 63.8 10.9 63.85 M-27.75 -10.1 L-28.25 -9.6 -28.25 -9.7 -28.45 -9.5 -28.1 -10.25 -27.45 -11.1 Q-24.4 -14.4 -19.75 -14.15 -15.95 -13.95 -13.3 -16.6 L-11.5 -18.3 -11.3 -18.6 -11.25 -18.5 -10.65 -18.95 -11.2 -18.25 Q-11.15 -17.75 -11.6 -17.2 -14.6 -13.45 -19.4 -12.9 L-22.9 -12.35 Q-25.6 -11.75 -27.75 -10.1 M-10.8 -9.95 Q-8.75 -8.25 -9.85 -5.65 -11.0 -2.95 -10.15 -0.3 L-10.25 -0.2 -10.4 -0.5 -10.5 -0.35 Q-11.55 -2.4 -10.75 -4.8 -10.45 -5.75 -10.75 -6.7 -11.45 -8.95 -14.0 -8.4 -17.45 -7.7 -16.9 -4.5 -16.85 -3.95 -16.35 -3.6 -14.85 -2.6 -13.05 -2.8 L-12.8 -3.1 Q-13.95 -0.45 -16.55 -1.15 -19.3 -1.9 -18.95 -4.75 -18.35 -9.95 -13.05 -10.6 -11.8 -10.75 -10.8 -9.95 M-8.85 -8.35 Q-9.1 -9.5 -8.95 -10.7 -8.15 -15.85 -3.2 -17.2 L0.65 -17.05 Q-2.65 -17.65 -5.45 -15.85 -7.9 -13.25 -7.4 -9.8 -7.25 -8.95 -6.65 -8.35 -4.95 -6.8 -4.05 -4.85 -3.85 -4.5 -3.95 -4.2 -3.8 -4.05 -4.0 -3.85 L-4.1 -3.9 Q-7.95 -4.75 -8.85 -8.35 M-3.95 22.45 Q-5.05 23.9 -5.35 25.75 -5.5 26.55 -4.9 27.15 -3.3 28.65 -1.35 29.2 L-1.45 29.2 -1.9 29.15 Q-3.2 29.7 -4.45 30.55 L-4.7 31.0 Q-4.5 30.05 -4.65 28.85 -4.85 27.4 -6.2 26.6 -8.45 25.2 -6.4 23.5 -5.25 22.55 -4.0 22.3 L-3.35 21.8 -3.75 22.25 -3.3 22.2 -3.95 22.45 M-54.6 15.3 Q-50.05 16.65 -45.4 17.4 L-44.65 17.6 -44.6 17.65 -46.55 17.75 Q-49.75 18.1 -53.0 16.95 -57.3 15.45 -60.15 18.5 -61.05 19.45 -61.35 20.8 -62.25 24.7 -60.7 28.5 L-59.9 30.55 -59.75 30.7 -58.55 32.05 -58.6 32.05 -59.65 31.25 -59.4 31.9 -59.45 31.9 -60.05 30.9 Q-63.85 27.4 -63.1 21.85 -62.3 16.35 -56.9 15.2 L-54.6 15.3 M-42.4 66.3 L-42.5 64.95 -42.45 64.6 -42.4 64.55 Q-42.1 68.55 -39.8 71.6 -38.05 74.0 -35.05 73.4 -29.35 72.45 -26.55 67.35 L-26.35 67.15 -26.35 67.0 -26.4 66.95 -26.2 66.8 -26.1 66.8 Q-25.0 70.45 -27.2 73.8 -28.45 75.75 -30.35 76.95 -35.45 79.6 -39.4 75.65 -40.4 74.7 -41.0 73.4 -42.75 70.0 -42.4 66.3" fill="#aa0909" fill-rule="evenodd" stroke="none"/>
    <path d="M43.75 -24.45 L43.75 -24.5 43.95 -25.55 44.0 -25.7 Q44.7 -25.2 44.2 -24.2 L44.15 -24.2 43.75 -24.45 M47.6 42.85 Q49.8 42.2 51.0 40.45 51.45 41.1 50.45 41.8 48.65 43.1 46.55 43.7 46.5 43.15 47.6 42.85 M40.95 44.5 Q38.4 44.7 37.15 42.8 39.2 44.45 42.1 44.25 L42.0 44.35 40.95 44.5 M32.1 47.5 L28.8 48.35 28.1 48.55 27.15 48.3 27.15 48.25 Q27.85 47.15 28.85 46.55 L29.05 46.6 Q30.55 47.5 32.1 47.5 M4.05 65.3 L3.85 65.4 3.65 65.25 3.6 65.2 Q7.35 59.05 13.15 55.0 L13.2 55.0 Q9.2 60.55 4.05 65.3 M17.8 83.2 Q21.6 82.4 22.15 78.65 L22.15 77.4 22.0 77.25 21.9 76.9 22.1 77.05 22.05 76.8 Q22.5 77.05 22.6 77.55 23.9 79.05 22.65 81.2 21.0 84.0 17.6 84.3 L16.3 84.45 Q13.75 84.35 11.55 83.2 L11.5 83.15 11.7 83.15 11.45 83.0 12.05 83.15 13.05 83.35 17.8 83.2 M-24.25 -12.1 Q-24.65 -12.55 -23.5 -12.9 -20.5 -13.75 -17.55 -13.85 -18.8 -12.9 -20.75 -13.0 -22.65 -13.05 -24.25 -12.1 M-18.15 -5.25 L-17.85 -5.8 -17.35 -4.0 Q-17.0 -2.05 -15.05 -2.6 -15.0 -2.4 -15.2 -2.35 L-15.45 -2.1 -15.6 -2.0 Q-16.85 -2.0 -17.5 -2.55 L-17.8 -2.8 -17.8 -2.85 Q-18.3 -3.5 -18.3 -4.7 L-18.15 -5.25 M-62.2 22.6 L-62.15 22.55 Q-62.35 25.9 -61.1 29.05 L-61.15 29.05 Q-62.95 26.1 -62.2 22.6 M-28.2 71.65 L-28.1 71.6 -28.1 71.65 -27.75 71.5 -28.2 72.0 Q-28.55 73.8 -30.3 74.9 -31.8 75.9 -33.6 75.85 -36.0 76.3 -36.75 74.6 L-36.85 74.5 -36.85 74.45 -36.8 74.45 -36.8 74.4 -36.75 74.35 -36.65 74.45 Q-32.45 75.0 -29.1 72.3 L-28.25 71.7 -28.2 71.65" fill="#fdc43e" fill-rule="evenodd" stroke="none"/>
    <path d="M29.5 47.7 L29.55 47.75 28.55 48.05 Q28.1 46.75 29.5 47.7 M7.6 60.35 L9.5 58.7 Q9.55 58.65 9.6 58.75 L6.4 62.45 6.3 62.5 Q6.45 61.4 7.6 60.35" fill="#fefd9a" fill-rule="evenodd" stroke="none"/>
    <path d="M5.55 -128.5 L5.65 -128.5 Q10.85 -125.5 14.1 -120.35 16.6 -116.45 17.15 -112.0 L17.6 -109.1 Q18.15 -104.4 16.8 -100.0 L17.1 -104.05 Q17.4 -107.0 17.1 -109.9 L16.5 -113.25 Q15.15 -118.9 11.15 -123.35 8.4 -126.35 5.2 -128.4 L5.25 -128.4 7.5 -127.05 5.55 -128.5 M0.5 -107.45 Q-3.3 -106.0 -4.4 -102.35 -4.75 -101.2 -4.1 -100.2 L-3.7 -99.4 -3.8 -99.45 -3.7 -99.35 Q-6.95 -101.7 -4.7 -105.25 -3.1 -107.85 -0.2 -108.8 L3.55 -109.65 Q9.15 -109.95 12.1 -105.5 L12.8 -104.25 12.8 -103.8 12.55 -104.15 12.4 -104.0 Q10.45 -107.15 6.3 -107.95 3.35 -108.55 0.5 -107.45 M45.4 -102.9 Q46.25 -103.0 46.65 -102.4 L46.65 -102.35 46.4 -102.4 Q46.35 -102.0 45.75 -101.45 44.45 -100.2 43.95 -98.6 L44.0 -98.55 43.95 -98.55 43.9 -98.45 43.9 -98.55 Q42.85 -98.65 42.8 -100.1 42.8 -102.65 45.4 -102.9 M32.25 -20.0 L33.2 -20.35 Q36.4 -20.2 35.9 -16.95 35.4 -14.2 32.45 -13.75 30.15 -13.45 29.1 -15.45 28.45 -16.7 28.95 -17.95 L28.95 -17.45 29.0 -17.6 Q29.05 -15.95 30.55 -15.05 L33.7 -15.15 Q35.9 -16.7 34.4 -18.95 L33.95 -19.25 Q32.8 -19.45 31.6 -19.25 L31.3 -19.05 31.35 -19.2 31.3 -19.2 31.3 -19.25 31.45 -19.4 32.25 -20.0 M29.0 -3.05 L29.1 -3.15 28.85 -3.05 Q29.95 -5.55 32.55 -6.8 L32.75 -6.9 Q32.7 -6.45 31.9 -5.9 L30.95 -4.85 29.05 -3.05 29.0 -3.05 M76.1 -37.6 Q80.55 -39.7 82.55 -44.1 L82.9 -45.85 Q83.15 -43.45 81.85 -41.15 80.35 -38.4 77.3 -37.35 76.05 -36.9 75.3 -37.55 L76.1 -37.6 M-12.75 -100.15 Q-8.3 -100.7 -4.25 -99.3 -3.4 -99.0 -3.4 -98.1 -3.35 -95.85 -5.55 -94.7 -7.2 -93.8 -8.95 -93.0 -11.0 -92.05 -12.9 -92.35 -10.7 -92.7 -8.7 -93.55 L-5.95 -95.5 Q-4.05 -97.0 -6.3 -97.6 L-13.65 -98.3 Q-19.8 -97.95 -25.4 -95.45 -27.85 -94.35 -28.65 -92.05 -28.85 -91.4 -28.3 -90.95 -24.75 -88.15 -20.1 -88.4 L-16.8 -88.4 -15.7 -88.4 Q-22.4 -86.75 -29.05 -88.85 -32.0 -89.75 -32.75 -92.55 -33.0 -93.6 -32.25 -94.4 -30.5 -96.3 -28.0 -97.15 -22.65 -98.9 -17.05 -99.7 L-12.75 -100.15 M-26.8 -76.15 Q-26.05 -73.75 -24.0 -72.15 L-23.95 -72.05 Q-24.8 -71.8 -25.6 -72.75 -26.65 -73.9 -26.95 -75.35 -27.05 -75.85 -26.8 -76.15 M-10.25 -69.95 L-10.1 -69.9 -10.05 -69.85 Q-10.1 -69.0 -11.05 -69.3 L-11.15 -69.65 -11.15 -69.7 -10.25 -69.95" fill="#aa0909" fill-rule="evenodd" stroke="none"/>
    <path d="M7.95 -108.3 L5.65 -108.6 2.35 -108.65 2.6 -108.9 4.4 -109.15 Q6.5 -109.4 7.95 -108.3 M44.8 -101.35 L44.8 -101.3 Q44.3 -101.05 44.05 -100.5 L43.7 -100.05 Q43.2 -100.5 43.4 -101.2 43.5 -101.6 43.9 -101.65 44.5 -101.75 44.8 -101.35 M34.3 -19.9 L34.35 -19.85 34.35 -19.75 34.25 -19.55 34.2 -19.45 32.6 -19.65 Q32.6 -20.05 33.05 -20.05 L33.35 -20.1 34.3 -19.9 M-4.55 -103.3 L-4.55 -102.85 Q-5.3 -103.1 -4.8 -104.2 L-4.3 -104.7 -4.55 -103.3 M-29.25 -93.25 L-29.35 -93.15 -29.6 -93.1 -29.7 -92.8 -29.8 -92.5 Q-30.15 -92.5 -30.5 -92.75 L-30.55 -92.8 Q-30.7 -95.95 -27.45 -96.55 L-27.3 -96.6 -26.75 -96.45 -26.75 -96.35 Q-28.3 -95.3 -29.15 -93.5 L-29.25 -93.25" fill="#fdc43e" fill-rule="evenodd" stroke="none"/>
  </g>
</svg>
