<?xml version="1.0" encoding="UTF-8" standalone="no"?>
<svg xmlns:ffdec="https://www.free-decompiler.com/flash" xmlns:xlink="http://www.w3.org/1999/xlink" ffdec:objectType="shape" height="230.65px" width="147.0px" xmlns="http://www.w3.org/2000/svg">
  <g transform="matrix(1.0, 0.0, 0.0, 1.0, 64.7, 129.3)">
    <path d="M40.75 -27.05 L40.95 -27.25 40.3 -26.9 40.85 -27.4 Q42.4 -28.45 44.6 -27.65 46.0 -27.1 45.55 -25.65 L44.7 -23.85 Q44.35 -22.6 43.3 -21.85 L43.3 -22.2 42.4 -21.45 Q42.3 -21.95 43.05 -22.5 L43.9 -23.25 Q45.05 -25.0 43.8 -26.7 43.35 -27.35 42.5 -27.35 L40.75 -27.05 M43.45 45.55 Q41.4 45.7 39.75 44.6 L39.75 44.55 41.05 44.8 Q46.25 44.35 50.7 41.35 L51.6 40.65 51.9 40.1 Q52.1 41.05 51.15 42.05 48.05 45.35 43.45 45.55 M7.7 17.4 L7.6 17.45 Q8.0 17.95 7.85 18.85 L8.2 19.05 7.85 18.95 7.85 19.0 7.8 19.05 7.7 18.9 Q5.55 18.3 3.3 19.25 L3.1 18.4 3.1 18.35 3.25 18.3 3.05 18.15 Q5.4 18.8 7.55 17.4 L7.7 17.4 M27.8 47.3 L28.6 46.2 Q31.7 47.35 34.8 47.45 31.0 47.45 27.3 48.5 27.2 48.0 27.8 47.3 M39.1 48.05 Q43.35 48.4 45.0 52.4 L45.55 54.65 Q45.9 59.45 42.0 61.95 41.75 61.65 42.4 61.2 L43.1 60.3 Q44.2 59.25 44.65 57.75 45.75 53.75 43.3 50.65 42.3 49.4 40.75 48.9 L39.1 48.15 38.4 48.0 38.9 48.0 39.1 48.05 M31.3 47.35 L31.3 47.4 31.35 47.4 31.3 47.35 M11.75 56.45 L14.7 52.75 14.75 52.8 Q11.9 57.8 7.65 62.0 L7.2 62.45 6.5 63.3 6.25 63.65 Q1.6 70.25 0.9 78.25 0.4 83.8 2.3 88.85 3.85 92.25 6.5 95.1 9.1 97.95 12.35 99.9 L12.85 100.2 Q14.1 100.85 15.45 101.35 L15.3 101.35 13.75 100.85 14.1 101.15 14.0 101.2 Q12.45 100.5 11.05 99.65 6.55 97.25 3.7 92.7 L2.6 90.75 Q-0.85 84.5 -0.4 77.25 0.05 69.6 5.2 63.8 L12.65 55.25 11.75 56.45 M11.2 67.05 L11.15 66.65 12.0 68.7 13.0 70.5 14.8 72.0 19.85 75.0 21.55 76.0 Q22.2 76.4 22.45 77.1 23.85 80.7 21.05 83.35 19.0 85.25 16.15 85.9 L13.1 86.45 Q7.35 86.45 5.75 81.15 5.15 79.2 6.4 77.6 L6.45 77.55 6.6 77.4 6.8 77.3 Q5.7 79.45 6.8 81.55 7.45 82.9 8.95 83.4 12.75 84.7 16.55 83.1 19.15 82.0 20.1 79.45 20.8 77.6 19.25 76.3 L14.95 72.95 Q12.95 71.55 12.0 69.7 L11.4 68.55 Q11.05 67.7 11.05 66.85 L11.2 67.05 M-22.95 -12.95 Q-20.55 -14.2 -17.75 -14.25 -16.7 -14.3 -15.8 -14.85 L-11.4 -17.75 -10.5 -19.25 Q-10.2 -18.5 -11.0 -17.6 -14.95 -13.3 -20.95 -12.9 L-23.2 -12.4 -24.0 -11.85 -24.0 -12.0 -24.4 -11.75 Q-24.3 -12.4 -23.5 -12.65 L-22.95 -12.95 M-8.85 -13.25 Q-9.8 -11.1 -9.2 -8.7 -8.9 -7.55 -7.9 -6.9 -6.65 -6.1 -6.05 -5.0 -5.55 -4.8 -5.6 -4.5 -9.7 -4.95 -10.6 -8.65 -10.95 -10.2 -10.25 -11.65 -9.4 -13.45 -8.1 -14.6 L-7.95 -14.75 Q-6.3 -16.1 -3.95 -16.5 -7.0 -15.6 -8.85 -13.25 M-17.6 -5.45 Q-16.45 -9.75 -12.05 -8.75 -10.05 -8.35 -9.95 -6.3 -9.9 -4.85 -10.15 -3.4 -10.4 -2.05 -10.15 -0.65 L-10.2 -0.6 -10.35 -1.2 -10.35 -0.65 -10.95 -4.6 -11.15 -5.7 Q-12.0 -8.45 -14.8 -7.1 -15.65 -6.7 -16.0 -5.8 -16.85 -3.45 -14.6 -2.6 -13.9 -2.35 -13.3 -2.85 -13.05 -3.05 -12.85 -2.85 L-13.55 -2.45 -16.6 -2.5 Q-18.1 -3.6 -17.6 -5.45 M-5.3 23.7 L-5.2 23.75 -5.35 23.8 Q-5.9 25.1 -5.7 26.6 L-5.4 26.8 Q-5.2 26.95 -5.45 27.05 -8.1 25.8 -6.1 23.85 L-5.4 23.65 -5.0 23.2 -5.3 23.7 M-4.65 28.35 Q-3.45 28.35 -2.65 29.2 -3.65 29.6 -4.65 30.25 L-4.65 28.4 -4.65 28.35 M-58.3 15.9 L-58.3 15.85 -58.5 15.85 -58.3 15.9 M-52.7 17.0 L-49.4 17.05 -48.05 16.8 Q-47.75 16.7 -47.6 16.95 L-49.55 17.4 -49.1 17.4 -50.5 17.5 Q-53.55 17.75 -56.65 16.6 -60.65 15.1 -62.45 18.75 -64.4 22.75 -63.5 27.2 -63.15 29.0 -62.2 30.5 L-61.85 30.85 Q-61.45 31.25 -61.75 31.45 -65.95 26.55 -64.15 20.45 -63.05 16.6 -59.15 15.7 -57.3 15.3 -55.55 16.05 L-52.7 17.0 M-26.65 72.15 Q-26.5 73.45 -26.7 74.1 -28.05 78.15 -32.3 79.55 -37.25 80.05 -39.45 75.7 L-39.45 75.65 -39.4 75.75 -39.35 75.7 Q-34.95 76.35 -30.8 74.25 -28.4 73.0 -26.85 70.95 L-26.65 72.15" fill="#aa0909" fill-rule="evenodd" stroke="none"/>
    <path d="M-20.15 -13.4 L-18.2 -13.6 -19.7 -13.2 Q-20.0 -13.15 -20.15 -13.4 M-17.1 -4.1 L-16.95 -4.2 -16.75 -4.2 Q-16.5 -3.1 -15.65 -2.5 L-15.75 -2.5 Q-16.95 -2.8 -17.1 -4.1 M-28.4 73.9 L-28.45 73.9 Q-28.15 74.35 -28.45 74.8 -28.6 75.55 -29.3 76.2 -31.5 78.3 -34.55 78.4 -36.0 78.4 -36.25 77.4 L-36.25 77.25 -36.2 77.25 Q-31.95 76.5 -28.6 73.9 L-28.5 73.85 -28.4 73.9 M50.25 42.25 L50.3 42.3 Q49.45 43.3 48.05 43.8 L48.0 43.8 Q47.95 43.25 48.95 42.8 49.65 42.45 50.25 42.25 M43.7 45.25 Q43.05 45.55 42.8 45.1 L42.8 45.05 44.75 44.65 Q45.15 44.55 45.35 44.8 L44.9 45.1 43.95 45.2 43.7 45.25 M28.6 47.7 Q28.25 46.85 29.75 47.0 29.9 47.0 30.0 47.15 29.65 47.85 28.6 47.7 M2.05 69.8 Q2.3 71.1 1.55 72.6 -0.1 76.1 0.4 80.1 L0.15 80.55 Q-0.85 75.0 1.95 69.9 L2.05 69.8 M16.65 83.7 Q20.5 82.35 21.4 78.75 L21.35 78.0 21.4 77.95 21.7 77.9 21.8 78.6 Q22.2 79.25 21.85 80.35 20.8 83.35 17.65 84.55 15.5 85.4 13.2 85.3 L11.3 85.15 9.75 85.0 9.7 84.9 10.2 84.9 9.8 84.75 10.95 84.85 Q13.85 84.7 16.65 83.7" fill="#fdc43e" fill-rule="evenodd" stroke="none"/>
    <path d="M10.0 -127.7 L8.6 -129.15 8.65 -129.15 Q13.6 -125.55 15.45 -119.65 16.25 -117.1 16.65 -114.55 L16.45 -114.85 16.55 -111.9 Q16.2 -112.85 16.15 -114.15 L15.95 -116.1 15.8 -116.8 15.65 -117.75 Q14.7 -121.4 12.3 -124.55 L8.05 -129.3 8.1 -129.3 10.0 -127.7 M12.05 -106.65 Q12.7 -105.65 12.6 -104.6 12.2 -105.95 11.25 -107.15 10.6 -107.45 9.9 -107.85 4.9 -110.8 -0.15 -108.05 -3.3 -106.35 -4.7 -103.05 L-4.8 -102.7 -4.8 -102.55 -4.9 -102.6 -4.95 -102.5 -5.0 -102.65 Q-5.4 -103.0 -5.2 -103.95 -4.4 -107.8 -0.5 -109.5 1.35 -110.25 3.3 -110.6 8.9 -111.3 11.85 -106.95 L12.05 -106.65 M30.7 -18.8 L30.65 -18.85 31.6 -19.85 Q32.05 -20.2 32.65 -20.3 35.25 -20.25 35.35 -17.55 35.5 -14.1 32.0 -14.2 30.6 -14.25 30.15 -15.2 33.0 -13.65 34.55 -16.2 35.15 -17.2 34.6 -18.2 33.6 -20.05 31.5 -18.95 L30.7 -18.8 M77.25 -37.85 Q80.45 -39.85 82.2 -43.05 L82.2 -42.95 82.25 -43.2 Q82.55 -41.15 80.8 -39.5 79.4 -38.15 77.65 -37.85 L77.6 -37.85 77.25 -37.85 M-4.85 -103.85 L-4.9 -103.85 -4.9 -103.8 -4.85 -103.85 M-2.7 -100.5 Q-0.1 -99.7 -1.3 -97.55 -1.85 -96.6 -2.75 -95.9 -5.6 -93.8 -8.85 -93.1 L-11.0 -92.8 Q-9.2 -93.15 -7.5 -93.75 -4.55 -95.35 -2.5 -98.1 -1.35 -99.6 -3.4 -99.8 -8.0 -100.25 -12.55 -99.65 -18.5 -98.9 -24.3 -97.15 -27.1 -96.35 -29.25 -94.35 -31.85 -92.0 -29.5 -89.55 -28.0 -87.95 -25.8 -87.5 L-20.5 -87.0 -18.35 -87.15 -18.15 -87.2 -18.25 -87.15 -17.7 -87.15 Q-22.55 -86.05 -27.65 -87.05 -32.0 -87.9 -33.95 -91.55 L-34.0 -92.45 Q-32.4 -95.65 -29.0 -97.0 L-24.5 -98.6 Q-19.35 -100.2 -14.0 -100.8 L-10.0 -101.05 Q-6.25 -101.6 -2.7 -100.5 M-26.3 -74.6 L-24.65 -72.75 -24.65 -72.7 -24.8 -72.4 -24.8 -72.35 Q-26.3 -72.9 -26.35 -74.55 L-26.3 -74.6" fill="#aa0909" fill-rule="evenodd" stroke="none"/>
    <path d="M7.4 -109.6 L4.95 -110.0 Q4.75 -110.05 5.0 -110.1 6.35 -110.25 7.4 -109.6 M33.05 -19.6 L31.8 -19.5 32.2 -19.95 32.45 -20.0 Q32.9 -20.05 33.05 -19.6" fill="#fdc43e" fill-rule="evenodd" stroke="none"/>
  </g>
</svg>
