<?xml version="1.0" encoding="UTF-8" standalone="no"?>
<svg xmlns:ffdec="https://www.free-decompiler.com/flash" xmlns:xlink="http://www.w3.org/1999/xlink" ffdec:objectType="shape" height="234.95px" width="110.45px" xmlns="http://www.w3.org/2000/svg">
  <g transform="matrix(1.0, 0.0, 0.0, 1.0, 64.8, 131.2)">
    <path d="M-10.4 -18.9 L-10.85 -18.35 Q-12.9 -15.1 -16.8 -13.75 L-19.0 -13.15 Q-19.6 -13.0 -19.95 -13.35 L-19.95 -13.4 Q-18.5 -13.55 -17.25 -14.0 -17.1 -14.4 -16.2 -14.8 -14.35 -15.65 -12.8 -16.95 L-11.35 -18.2 -11.0 -18.65 -10.45 -19.05 -10.65 -18.75 -10.4 -18.9 M-13.3 -7.55 Q-16.7 -8.0 -16.75 -4.9 -16.75 -2.6 -14.2 -3.0 L-12.95 -2.95 -13.0 -2.95 -12.9 -2.85 Q-14.7 -0.8 -17.1 -2.55 -17.75 -3.05 -17.9 -3.9 -18.25 -6.45 -16.2 -7.75 -15.45 -8.25 -14.55 -8.55 -11.8 -9.45 -10.75 -7.2 -10.2 -6.05 -10.25 -4.75 L-10.2 -2.2 -10.1 -1.9 Q-9.95 -1.7 -10.15 -1.65 L-10.25 -1.75 Q-11.0 -2.6 -10.75 -3.8 -11.3 -5.4 -12.2 -6.85 -12.55 -7.4 -13.3 -7.55 M-53.45 16.4 L-55.25 16.1 Q-59.9 15.95 -62.7 20.0 -63.8 21.55 -63.9 23.45 -64.0 25.45 -63.75 27.1 L-63.85 26.85 -63.8 27.55 Q-66.55 21.6 -61.65 16.85 -59.9 15.2 -57.5 15.3 L-55.05 15.7 -53.8 16.15 -53.65 16.25 -53.75 16.25 -53.45 16.4 M-27.05 73.7 L-27.05 73.8 Q-26.3 74.25 -26.2 75.45 -26.05 79.5 -29.9 80.85 -31.05 81.3 -32.4 80.6 -32.75 80.35 -31.9 79.85 -29.8 78.55 -28.6 76.5 L-27.15 73.9 -27.2 73.8 -27.1 73.85 -27.05 73.7 M42.7 49.4 Q47.05 52.9 45.0 58.05 45.4 55.8 44.7 53.4 43.95 50.9 41.65 49.4 L40.8 48.75 Q41.7 48.6 42.7 49.4 M27.95 48.15 Q27.9 47.45 28.8 46.85 L29.1 46.85 30.9 47.35 27.95 48.15 M15.45 72.45 Q17.55 74.2 20.1 75.2 22.95 76.35 24.2 78.9 24.85 80.1 24.25 81.4 22.8 84.7 19.35 86.15 17.05 87.1 14.6 87.25 8.9 87.5 6.2 82.75 5.25 81.0 5.75 79.3 L5.75 79.65 5.85 79.45 Q5.95 81.4 7.45 82.9 11.0 86.55 16.15 85.45 18.35 85.0 20.3 83.7 23.1 81.85 21.75 78.95 L20.95 77.85 Q18.25 76.3 15.0 72.05 L15.45 72.45 M4.4 68.2 L3.05 71.0 Q-0.1 77.65 0.35 85.05 0.75 91.45 5.25 96.35 L9.2 100.15 Q11.7 102.25 14.2 103.7 L14.1 103.7 13.95 103.6 13.3 103.65 Q7.8 101.05 4.0 96.45 2.3 94.3 1.25 91.8 -1.1 86.2 -0.35 80.15 0.05 77.35 1.05 74.65 L1.5 73.55 Q2.9 69.4 5.3 65.65 7.05 62.9 9.15 61.0 6.5 64.4 4.4 68.2" fill="#aa0909" fill-rule="evenodd" stroke="none"/>
    <path d="M-16.35 -2.95 L-16.3 -2.95 Q-15.4 -2.4 -14.2 -2.5 L-14.15 -2.45 -14.15 -2.35 Q-14.3 -2.15 -14.55 -2.15 -15.65 -2.0 -16.45 -2.55 L-16.5 -2.6 -16.5 -2.7 -16.35 -2.95 M-27.6 76.3 Q-26.5 77.05 -27.45 78.5 -27.85 79.1 -28.55 79.3 L-29.7 79.2 -29.7 79.15 Q-28.65 78.35 -27.9 77.25 -27.6 76.8 -27.6 76.3 M29.2 47.05 L29.45 47.45 28.9 47.6 Q28.5 47.35 29.1 47.05 L29.2 47.05 M14.0 86.6 Q11.35 86.85 9.6 85.45 L9.6 85.4 Q14.25 87.15 19.05 85.1 19.4 84.95 19.5 85.25 17.05 86.55 14.0 86.6 M23.2 82.35 L22.35 83.4 Q22.1 82.85 22.7 81.95 23.15 81.25 22.9 80.45 22.65 79.65 22.7 78.9 L22.9 79.15 Q24.1 80.45 23.2 82.35" fill="#fdc43e" fill-rule="evenodd" stroke="none"/>
    <path d="M9.2 -131.2 Q12.0 -128.9 13.45 -125.8 14.7 -123.55 15.25 -120.95 L15.45 -119.6 Q14.8 -120.5 14.45 -121.95 L14.05 -123.3 13.7 -124.25 13.4 -125.0 13.3 -125.25 11.5 -128.25 9.05 -130.9 9.1 -130.9 9.85 -130.25 9.15 -131.2 9.2 -131.2 M0.35 -109.3 L-2.5 -108.0 -2.55 -108.05 Q-1.65 -108.75 -0.6 -109.25 L-0.4 -109.45 0.0 -109.5 1.7 -110.0 3.7 -110.35 Q9.3 -110.85 12.35 -106.3 L12.35 -106.15 11.15 -107.05 8.65 -108.5 Q5.4 -110.4 1.4 -109.5 L0.35 -109.3 M3.0 -109.9 L1.85 -109.7 3.0 -109.85 3.0 -109.9 M31.4 -19.7 L32.5 -20.2 Q35.25 -20.2 35.25 -17.4 35.2 -16.15 34.4 -15.8 35.4 -17.75 33.85 -18.95 L33.25 -19.2 Q31.65 -19.35 30.55 -18.6 30.75 -19.25 31.4 -19.7 M0.55 -98.2 Q-1.1 -95.9 -3.8 -94.75 L-8.05 -93.15 -9.1 -93.2 -7.95 -93.5 -8.4 -93.45 Q-4.1 -94.5 -1.0 -97.75 -0.75 -97.95 -0.85 -98.3 -1.0 -99.05 -1.4 -99.65 L-3.7 -100.25 Q-5.95 -101.1 -8.35 -100.9 L-17.9 -99.65 Q-23.95 -98.7 -29.45 -96.15 -31.4 -95.2 -31.85 -93.35 L-31.85 -92.85 -31.85 -92.8 -31.8 -92.75 -31.75 -92.6 Q-33.4 -93.4 -32.4 -95.2 -31.35 -97.05 -29.35 -98.0 -24.15 -100.35 -18.55 -101.35 L-8.9 -102.5 Q-3.95 -103.0 0.05 -100.45 1.5 -99.55 0.55 -98.2" fill="#aa0909" fill-rule="evenodd" stroke="none"/>
    <path d="M31.7 -19.55 L31.7 -19.6 Q31.95 -19.9 32.45 -19.85 32.9 -19.35 31.7 -19.55" fill="#fdc43e" fill-rule="evenodd" stroke="none"/>
  </g>
</svg>
