<?xml version="1.0" encoding="UTF-8" standalone="no"?>
<svg xmlns:ffdec="https://www.free-decompiler.com/flash" xmlns:xlink="http://www.w3.org/1999/xlink" ffdec:objectType="shape" height="238.5px" width="109.95px" xmlns="http://www.w3.org/2000/svg">
  <g transform="matrix(1.0, 0.0, 0.0, 1.0, 64.55, 132.2)">
    <path d="M-10.65 -19.15 L-10.6 -19.15 -10.7 -19.05 -10.45 -19.15 Q-11.55 -16.65 -14.15 -15.4 L-14.35 -15.3 -13.5 -16.3 -12.55 -17.35 -10.65 -19.15 M-10.7 -6.75 Q-10.05 -5.5 -10.55 -4.25 L-10.55 -4.75 -10.6 -4.6 Q-10.65 -6.25 -12.15 -7.15 L-15.3 -7.05 Q-17.5 -5.5 -16.0 -3.25 L-15.55 -2.95 Q-14.4 -2.75 -13.2 -2.95 L-12.9 -3.15 -12.95 -3.0 -12.9 -3.0 -12.9 -2.95 -13.05 -2.8 -13.85 -2.2 -14.8 -1.85 Q-18.0 -2.0 -17.5 -5.25 -17.0 -8.0 -14.05 -8.45 -11.75 -8.75 -10.7 -6.75 M-58.9 15.15 Q-57.65 14.7 -56.9 15.35 L-57.7 15.4 Q-62.15 17.5 -64.15 21.9 L-64.5 23.65 Q-64.75 21.25 -63.45 18.95 -61.95 16.2 -58.9 15.15 M-25.5 76.25 L-25.5 76.35 Q-24.45 76.45 -24.4 77.9 -24.4 80.45 -27.0 80.7 -27.85 80.8 -28.25 80.2 L-28.25 80.15 -28.0 80.2 Q-27.95 79.8 -27.35 79.25 -26.05 78.0 -25.55 76.4 L-25.55 76.35 -25.5 76.25 M28.65 47.75 L28.5 47.7 28.45 47.65 Q28.5 46.8 29.45 47.1 L29.55 47.45 29.55 47.5 28.65 47.75 M17.9 85.25 Q21.7 83.8 22.8 80.15 23.15 79.0 22.5 78.0 L22.1 77.2 22.2 77.25 22.1 77.15 Q25.35 79.5 23.1 83.05 21.5 85.65 18.6 86.6 L14.85 87.45 Q9.25 87.75 6.3 83.3 L5.6 82.05 5.6 81.6 5.85 81.95 6.0 81.8 Q7.95 84.95 12.1 85.75 15.05 86.35 17.9 85.25 M1.3 81.85 Q1.0 84.8 1.3 87.7 L1.9 91.05 Q3.25 96.7 7.25 101.15 10.0 104.15 13.2 106.2 L13.15 106.2 10.9 104.85 12.85 106.3 12.75 106.3 Q7.55 103.3 4.3 98.15 1.8 94.25 1.25 89.8 L0.8 86.9 Q0.25 82.2 1.6 77.8 L1.3 81.85 M42.35 49.85 Q43.2 49.6 44.0 50.55 45.05 51.7 45.35 53.15 45.45 53.65 45.2 53.95 44.45 51.55 42.4 49.95 L42.35 49.85" fill="#aa0909" fill-rule="evenodd" stroke="none"/>
    <path d="M-15.9 -2.3 L-15.95 -2.35 -15.95 -2.45 -15.85 -2.65 -15.8 -2.75 -14.2 -2.55 Q-14.2 -2.15 -14.65 -2.15 L-14.95 -2.1 -15.9 -2.3 M-26.4 79.15 L-26.4 79.1 -25.65 78.3 -25.3 77.85 Q-24.8 78.3 -25.0 79.0 -25.1 79.4 -25.5 79.45 -26.1 79.55 -26.4 79.15 M16.05 86.45 L15.8 86.7 14.0 86.95 Q11.9 87.2 10.45 86.1 L12.75 86.4 16.05 86.45 M22.95 80.65 Q23.7 80.9 23.2 82.0 L22.7 82.5 22.95 81.1 22.95 80.65" fill="#fdc43e" fill-rule="evenodd" stroke="none"/>
    <path d="M10.2 -132.2 L10.7 -131.65 Q13.7 -129.1 14.35 -125.05 L14.35 -125.0 Q13.85 -125.55 13.55 -126.6 L12.25 -128.8 10.8 -131.25 10.1 -132.1 10.15 -132.1 10.3 -131.95 10.15 -132.2 10.2 -132.2 M3.3 -99.25 Q2.1 -97.15 0.0 -95.9 -3.45 -93.85 -7.25 -93.4 L-7.85 -93.3 -8.25 -93.35 -8.4 -93.35 -8.45 -93.4 -8.3 -93.4 -8.35 -93.5 Q-2.95 -94.35 0.75 -98.3 1.85 -99.5 0.5 -100.4 -1.85 -102.0 -4.75 -102.05 L-13.4 -101.65 -19.1 -100.55 Q-22.3 -99.75 -25.25 -99.35 L-18.5 -101.1 Q-12.65 -102.35 -6.7 -102.55 L-0.15 -101.95 2.8 -100.8 Q3.85 -100.25 3.3 -99.25 M5.4 -110.4 Q9.15 -110.15 11.5 -107.2 L11.75 -107.0 11.75 -106.95 11.7 -106.95 11.7 -106.9 11.6 -107.0 Q10.2 -107.65 8.7 -108.6 L5.9 -110.05 4.0 -110.4 4.1 -110.45 5.05 -110.45 5.15 -110.5 5.4 -110.4" fill="#aa0909" fill-rule="evenodd" stroke="none"/>
  </g>
</svg>
