<?xml version="1.0" encoding="UTF-8" standalone="no"?>
<svg xmlns:ffdec="https://www.free-decompiler.com/flash" xmlns:xlink="http://www.w3.org/1999/xlink" ffdec:objectType="shape" height="240.1px" width="108.65px" xmlns="http://www.w3.org/2000/svg">
  <g transform="matrix(1.0, 0.0, 0.0, 1.0, 63.9, 133.0)">
    <path d="M-11.75 -7.0 Q-14.6 -8.55 -16.15 -6.0 -16.75 -5.0 -16.2 -4.0 -15.2 -2.15 -13.1 -3.25 L-12.3 -3.4 -12.25 -3.35 -13.2 -2.35 Q-13.65 -2.0 -14.25 -1.9 -16.85 -1.95 -16.95 -4.65 -17.1 -8.1 -13.6 -8.0 -12.2 -7.95 -11.75 -7.0 M-62.4 17.3 Q-61.0 15.95 -59.25 15.65 L-59.2 15.65 -58.85 15.65 Q-62.05 17.65 -63.8 20.85 L-63.8 20.75 -63.85 21.0 Q-64.15 18.95 -62.4 17.3 M8.5 85.65 Q13.5 88.6 18.55 85.85 21.7 84.15 23.1 80.85 L23.2 80.5 23.2 80.35 23.3 80.4 23.35 80.3 23.4 80.45 Q23.8 80.8 23.6 81.75 22.8 85.6 18.9 87.3 17.05 88.05 15.1 88.4 9.5 89.1 6.55 84.75 L6.35 84.45 Q5.7 83.45 5.8 82.4 6.2 83.75 7.15 84.95 L8.5 85.65 M1.95 92.65 L1.85 89.7 Q2.2 90.65 2.25 91.95 L2.45 93.9 2.6 94.6 2.75 95.55 Q3.7 99.2 6.1 102.35 8.1 105.0 10.35 107.1 L10.3 107.1 8.8 105.85 9.8 106.95 9.75 106.95 Q4.8 103.35 2.95 97.45 2.15 94.9 1.75 92.35 L1.95 92.65 M23.3 81.65 L23.3 81.6 23.25 81.65 23.3 81.65 M43.2 50.2 L43.2 50.15 Q44.7 50.7 44.75 52.35 L44.7 52.4 43.05 50.55 43.05 50.5 43.2 50.2" fill="#aa0909" fill-rule="evenodd" stroke="none"/>
    <path d="M-14.65 -2.6 L-13.4 -2.7 Q-13.45 -2.35 -13.8 -2.25 L-14.05 -2.2 Q-14.5 -2.15 -14.65 -2.6 M11.0 87.4 L13.45 87.8 13.4 87.9 Q12.05 88.05 11.0 87.4" fill="#fdc43e" fill-rule="evenodd" stroke="none"/>
    <path d="M4.05 -100.45 Q2.85 -102.35 0.4 -102.45 L-1.1 -102.5 -8.2 -102.2 -14.75 -101.25 -10.8 -102.05 -8.75 -102.4 -4.95 -102.8 -3.5 -102.85 -3.0 -102.9 Q2.2 -103.6 6.25 -100.85 6.8 -100.5 6.45 -99.85 5.3 -97.85 3.15 -96.8 L-1.75 -94.7 Q-4.05 -93.8 -6.25 -93.7 -2.9 -94.55 0.35 -95.95 2.6 -97.3 4.05 -99.4 4.45 -99.9 4.05 -100.45 M13.4 -128.9 L13.4 -128.85 12.05 -130.75 10.7 -133.0 10.75 -133.0 Q12.6 -131.3 13.4 -128.9" fill="#aa0909" fill-rule="evenodd" stroke="none"/>
  </g>
</svg>
