<?xml version="1.0" encoding="UTF-8" standalone="no"?>
<svg xmlns:ffdec="https://www.free-decompiler.com/flash" xmlns:xlink="http://www.w3.org/1999/xlink" ffdec:objectType="shape" height="211.7px" width="37.8px" xmlns="http://www.w3.org/2000/svg">
  <g transform="matrix(1.0, 0.0, 0.0, 1.0, 16.85, 102.7)">
    <path d="M-13.0 -2.5 L-14.1 -2.0 Q-16.85 -2.0 -16.85 -4.8 -16.8 -6.05 -16.0 -6.4 -17.0 -4.45 -15.45 -3.25 -15.2 -3.05 -14.85 -3.0 -13.25 -2.85 -12.15 -3.6 -12.35 -2.95 -13.0 -2.5 M6.05 83.95 L7.25 84.85 9.75 86.3 Q13.0 88.2 17.0 87.3 L18.05 87.1 20.9 85.8 20.95 85.85 Q20.05 86.55 19.0 87.05 L18.8 87.25 18.4 87.3 16.7 87.8 14.7 88.15 Q9.1 88.65 6.05 84.1 L6.05 83.95 M2.95 97.4 Q3.6 98.3 3.95 99.75 L4.35 101.1 4.7 102.05 5.0 102.8 5.1 103.05 6.9 106.05 Q7.95 107.5 9.35 108.7 L9.3 108.7 8.55 108.05 9.25 109.0 9.2 109.0 Q6.4 106.7 4.95 103.6 3.7 101.35 3.15 98.75 L2.95 97.4 M16.55 87.5 L15.4 87.65 15.4 87.7 16.55 87.5" fill="#aa0909" fill-rule="evenodd" stroke="none"/>
    <path d="M-13.3 -2.65 L-13.3 -2.6 Q-13.55 -2.3 -14.05 -2.35 -14.5 -2.85 -13.3 -2.65" fill="#fdc43e" fill-rule="evenodd" stroke="none"/>
    <path d="M0.55 -102.7 Q2.55 -102.8 4.05 -102.0 L4.0 -102.05 4.05 -102.05 4.35 -101.85 Q5.3 -101.25 6.05 -100.25 6.5 -99.7 6.15 -99.05 5.1 -97.2 2.95 -96.45 L1.65 -96.0 Q0.0 -95.2 -1.6 -95.1 L-1.45 -95.1 -2.1 -95.25 Q-0.1 -95.7 1.75 -96.45 L4.9 -99.0 Q5.2 -99.3 5.15 -99.7 5.1 -100.85 4.5 -101.6 L4.1 -101.75 0.45 -102.7 0.55 -102.7" fill="#aa0909" fill-rule="evenodd" stroke="none"/>
  </g>
</svg>
