<?xml version="1.0" encoding="UTF-8" standalone="no"?>
<svg xmlns:ffdec="https://www.free-decompiler.com/flash" xmlns:xlink="http://www.w3.org/1999/xlink" ffdec:objectType="shape" height="25.3px" width="10.35px" xmlns="http://www.w3.org/2000/svg">
  <g transform="matrix(1.0, 0.0, 0.0, 1.0, -4.05, -84.7)">
    <path d="M6.7 84.7 L6.8 84.8 Q8.2 85.45 9.7 86.4 L12.5 87.85 14.4 88.2 14.3 88.25 13.35 88.25 13.25 88.3 13.0 88.2 Q9.25 87.95 6.9 85.0 L6.65 84.8 6.65 84.75 6.7 84.75 6.7 84.7 M4.05 102.8 Q4.55 103.35 4.85 104.4 L6.15 106.6 7.6 109.05 8.3 109.9 8.25 109.9 8.1 109.75 8.25 110.0 8.2 110.0 7.7 109.45 Q4.7 106.9 4.05 102.85 L4.05 102.8" fill="#aa0909" fill-rule="evenodd" stroke="none"/>
  </g>
</svg>
