<?xml version="1.0" encoding="UTF-8" standalone="no"?>
<svg xmlns:ffdec="https://www.free-decompiler.com/flash" xmlns:xlink="http://www.w3.org/1999/xlink" ffdec:objectType="shape" height="46.1px" width="74.25px" xmlns="http://www.w3.org/2000/svg">
  <g transform="matrix(1.0, 0.0, 0.0, 1.0, -1.65, 9.7)">
    <path d="M3.85 29.4 Q0.9 17.65 3.0 8.2 4.85 -0.35 10.3 -5.1 15.5 -9.7 21.95 -9.15 28.7 -8.6 34.15 -2.6 40.95 16.7 33.55 33.55 19.4 38.2 8.0 33.7 4.75 32.15 3.85 29.4 M46.85 -2.3 Q52.95 -8.45 59.55 -8.45 65.65 -8.45 70.05 -3.35 74.5 1.75 75.25 9.75 76.1 18.55 72.05 27.85 70.75 30.15 68.35 31.25 59.75 34.95 47.0 31.7 40.75 16.2 46.85 -2.3 M64.6 4.7 Q63.55 2.95 61.55 2.45 59.55 1.95 57.8 2.9 56.0 4.0 55.5 5.95 55.0 7.9 56.0 9.65 57.1 11.45 59.05 11.95 61.1 12.5 62.8 11.45 64.55 10.5 65.1 8.45 65.65 6.4 64.6 4.7 M24.65 10.2 Q25.75 12.0 27.7 12.5 29.75 13.05 31.45 12.0 33.2 11.05 33.75 9.0 34.3 6.95 33.25 5.25 32.2 3.5 30.2 3.0 28.2 2.5 26.45 3.45 24.65 4.55 24.15 6.5 23.65 8.45 24.65 10.2" fill="#ffffff" fill-rule="evenodd" stroke="none"/>
    <path d="M24.65 10.2 Q23.65 8.45 24.15 6.5 24.65 4.55 26.45 3.45 28.2 2.5 30.2 3.0 32.2 3.5 33.25 5.25 34.3 6.95 33.75 9.0 33.2 11.05 31.45 12.0 29.75 13.05 27.7 12.5 25.75 12.0 24.65 10.2 M64.6 4.7 Q65.65 6.4 65.1 8.45 64.55 10.5 62.8 11.45 61.1 12.5 59.05 11.95 57.1 11.45 56.0 9.65 55.0 7.9 55.5 5.95 56.0 4.0 57.8 2.9 59.55 1.95 61.55 2.45 63.55 2.95 64.6 4.7" fill="#000000" fill-rule="evenodd" stroke="none"/>
    <path d="M34.15 -2.6 Q28.7 -8.6 21.95 -9.15 15.5 -9.7 10.3 -5.1 4.85 -0.35 3.0 8.2 0.9 17.65 3.85 29.4" fill="none" stroke="#000000" stroke-linecap="round" stroke-linejoin="round" stroke-width="1.0"/>
    <path d="M8.0 33.7 Q19.4 38.2 33.55 33.55 M46.85 -2.3 Q52.95 -8.45 59.55 -8.45 65.65 -8.45 70.05 -3.35 74.5 1.75 75.25 9.75 76.1 18.55 72.05 27.85 M68.35 31.25 Q59.75 34.95 47.0 31.7" fill="none" stroke="#000000" stroke-linecap="round" stroke-linejoin="round" stroke-width="1.0"/>
  </g>
</svg>
