<?xml version="1.0" encoding="UTF-8" standalone="no"?>
<svg xmlns:ffdec="https://www.free-decompiler.com/flash" xmlns:xlink="http://www.w3.org/1999/xlink" ffdec:objectType="shape" height="61.05px" width="58.55px" xmlns="http://www.w3.org/2000/svg">
  <g transform="matrix(1.0, 0.0, 0.0, 1.0, 28.25, 27.2)">
    <path d="M29.3 -0.45 L29.4 11.35 29.3 23.25 29.0 23.5 29.0 23.6 28.9 23.6 16.35 23.6 16.25 23.6 15.9 23.2 15.95 14.95 Q16.05 1.35 15.7 -10.6 L12.4 2.5 7.0 23.4 7.0 23.5 7.0 23.6 6.9 23.6 -5.2 23.6 -8.6 10.65 -13.9 -10.25 -13.9 -10.35 -14.1 -10.8 -14.1 15.5 -14.1 19.35 -14.1 23.2 -14.15 23.25 -14.55 23.6 -14.65 23.6 -27.2 23.6 -27.3 23.6 -27.65 23.2 -27.7 11.35 -27.65 -0.45 -27.65 -26.75 -27.65 -26.85 Q-27.4 -26.95 -27.3 -27.2 L-27.2 -27.2 -6.65 -27.2 -6.55 -27.2 -1.2 -6.3 0.85 1.5 Q3.65 -8.45 6.3 -19.15 L8.3 -27.2 28.9 -27.2 29.0 -27.2 Q29.1 -26.95 29.3 -26.85 L29.3 -26.75 29.4 -13.75 29.3 -0.45 M17.2 27.6 L16.1 27.6 16.1 33.85 13.8 33.85 13.8 27.6 12.8 27.6 12.8 25.4 17.2 25.4 17.2 27.6 M19.3 26.5 L19.3 25.4 22.7 25.4 22.7 26.5 23.7 26.5 23.7 32.75 22.7 32.75 22.7 33.85 19.3 33.85 19.3 32.75 18.3 32.75 18.3 26.5 19.3 26.5 M10.7 26.5 L11.7 26.5 11.7 33.85 9.4 33.85 9.4 31.75 8.6 31.75 8.6 33.85 6.3 33.85 6.3 26.35 7.3 26.35 7.3 25.4 10.7 25.4 10.7 26.5 M8.6 27.6 L8.6 29.55 9.4 29.55 9.4 27.6 8.6 27.6 M21.35 27.6 L20.6 27.6 20.6 31.65 21.35 31.65 21.35 27.6 M-22.85 27.6 L-22.85 33.85 -25.15 33.85 -25.15 27.6 -25.95 27.6 -25.95 33.85 -28.25 33.85 -28.25 25.4 -20.65 25.4 -20.65 26.35 -19.65 26.35 -19.65 33.85 -21.95 33.85 -21.95 27.6 -22.85 27.6 M-7.65 26.5 L-6.7 26.5 -6.7 32.75 -7.65 32.75 -7.65 33.85 -12.05 33.85 -12.05 25.4 -7.65 25.4 -7.65 26.5 M-15.5 27.6 L-16.25 27.6 -16.25 31.65 -15.5 31.65 -15.5 27.6 M-14.15 26.5 L-13.15 26.5 -13.15 32.75 -14.15 32.75 -14.15 33.85 -17.55 33.85 -17.55 32.75 -18.55 32.75 -18.55 26.5 -17.55 26.5 -17.55 25.4 -14.15 25.4 -14.15 26.5 M-9.0 27.6 L-9.75 27.6 -9.75 31.65 -9.0 31.65 -9.0 27.6" fill="#000000" fill-rule="evenodd" stroke="none"/>
    <path d="M5.3 29.65 L4.2 29.65 4.2 30.55 5.3 30.55 5.3 33.85 2.9 33.85 2.9 30.75 2.1 30.75 2.1 33.85 -0.2 33.85 -0.2 25.4 4.2 25.4 4.2 26.35 5.3 26.35 5.3 29.65 M2.9 28.45 L2.9 27.6 2.1 27.6 2.1 28.45 2.9 28.45 M30.3 26.35 L30.3 29.65 29.2 29.65 29.2 30.55 30.3 30.55 30.3 33.85 27.85 33.85 27.85 30.75 27.1 30.75 27.1 33.85 24.8 33.85 24.8 25.4 29.2 25.4 29.2 26.35 30.3 26.35 M27.1 27.6 L27.1 28.45 27.85 28.45 27.85 27.6 27.1 27.6 M-1.2 27.6 L-3.25 27.6 -3.25 28.45 -1.2 28.45 -1.2 30.75 -3.25 30.75 -3.25 31.65 -1.2 31.65 -1.2 33.85 -5.6 33.85 -5.6 25.4 -1.2 25.4 -1.2 27.6" fill="#010101" fill-rule="evenodd" stroke="none"/>
  </g>
</svg>
