<?xml version="1.0" encoding="UTF-8" standalone="no"?>
<svg xmlns:ffdec="https://www.free-decompiler.com/flash" xmlns:xlink="http://www.w3.org/1999/xlink" ffdec:objectType="shape" height="415.7px" width="416.25px" xmlns="http://www.w3.org/2000/svg">
  <g transform="matrix(1.0, 0.0, 0.0, 1.0, 230.35, 219.95)">
    <path d="M155.0 -101.65 L151.95 -104.85 153.95 -109.8 158.85 -106.15 157.55 -100.2 162.45 -102.3 170.95 -88.4 168.55 -87.15 168.4 -84.7 162.95 -83.45 159.1 -92.95 153.25 -90.8 147.25 -96.0 155.0 -101.65 M107.6 -135.7 L109.65 -127.65 119.9 -124.75 112.4 -116.55 113.9 -109.8 107.5 -113.45 108.55 -117.55 102.95 -118.1 96.5 -129.15 101.1 -135.4 107.6 -135.7 M92.85 -167.35 L83.55 -170.75 79.7 -175.95 89.85 -182.45 93.1 -178.75 91.2 -175.3 96.5 -170.9 92.85 -167.35 M37.55 -208.1 L32.05 -219.95 38.0 -218.0 42.25 -219.6 46.15 -209.45 37.55 -208.1 M185.65 -26.3 L179.45 -20.2 173.25 -20.6 172.0 -25.0 176.95 -30.5 165.0 -29.2 163.1 -32.65 171.1 -40.05 170.05 -45.9 176.7 -43.35 175.45 -36.3 180.0 -39.1 185.9 -29.0 185.65 -26.3 M-172.7 118.8 L-178.75 122.4 -176.4 130.75 -183.4 126.9 -183.25 121.3 -190.15 121.8 Q-191.55 121.85 -192.8 121.25 -195.8 119.65 -197.6 116.5 L-194.1 105.7 -189.3 105.9 -188.7 115.8 -175.1 113.95 -172.7 118.8 M-216.3 44.15 L-209.8 43.85 -207.75 51.9 -197.5 54.8 -205.0 63.0 -203.5 69.75 -209.9 66.1 -208.85 62.0 -214.45 61.45 -220.9 50.4 -216.3 44.15 M-22.85 195.7 Q-26.6 196.0 -29.65 194.0 L-34.0 184.0 -24.0 183.0 -22.25 174.85 -20.4 173.05 -16.6 173.3 -13.0 181.2 -7.85 179.9 -4.3 182.9 -10.6 188.1 -14.75 185.45 -14.6 191.7 Q-17.8 195.55 -22.85 195.7 M-86.35 169.25 L-86.35 158.95 -72.2 158.95 -72.2 169.25 -86.35 169.25 M-137.8 177.8 L-137.8 167.9 -127.8 167.9 -127.8 177.8 -137.8 177.8 M-146.0 -183.0 L-135.35 -189.75 -126.5 -181.6 -134.5 -177.35 -134.75 -165.9 -137.65 -162.7 -142.0 -163.0 -146.0 -183.0 M-206.15 -1.8 L-210.0 -7.0 -199.85 -13.5 -196.6 -9.8 -198.5 -6.35 -193.2 -1.95 -196.85 1.6 -206.15 -1.8 M-219.7 -52.25 L-230.35 -52.25 -230.35 -63.0 -219.7 -63.0 -219.7 -52.25 M-191.55 -160.15 L-188.45 -152.1 -198.95 -147.75 -205.9 -138.5 -212.5 -138.6 -213.0 -143.0 -207.05 -155.45 -191.55 -160.15 M-11.55 -199.8 L-4.45 -198.3 -0.25 -190.1 -0.7 -187.05 -7.9 -188.65 -9.95 -184.45 -14.6 -182.45 -15.8 -197.35 -13.5 -194.5 -11.55 -199.8 M-67.5 -211.75 L-61.35 -204.25 -71.45 -187.55 -77.05 -188.5 -82.0 -209.0 -67.5 -211.75 M85.9 114.1 L90.7 114.3 91.3 124.2 104.9 122.35 107.3 127.2 101.25 130.8 103.6 139.15 96.6 135.3 96.75 129.7 89.85 130.2 87.2 129.65 Q84.2 128.05 82.4 124.9 L85.9 114.1 M132.2 114.1 L142.2 114.1 142.2 124.0 132.2 124.0 132.2 114.1 M39.45 186.2 L32.25 180.85 32.05 178.75 39.1 174.3 43.35 176.15 Q42.25 172.3 43.7 168.5 45.6 163.7 50.5 161.7 L54.3 169.25 60.9 166.7 60.05 173.05 51.85 173.15 51.25 179.95 39.45 186.2 M168.8 74.9 L175.7 73.9 178.55 71.45 Q180.35 83.05 168.55 83.85 L168.8 74.9 M165.85 25.9 L163.7 34.5 153.8 35.2 155.0 27.5 151.1 24.3 Q152.6 23.2 154.3 22.4 159.8 19.9 165.75 21.75 L162.55 24.0 165.85 25.9" fill="#000000" fill-rule="evenodd" stroke="none"/>
  </g>
</svg>
