<?xml version="1.0" encoding="UTF-8" standalone="no"?>
<svg xmlns:ffdec="https://www.free-decompiler.com/flash" xmlns:xlink="http://www.w3.org/1999/xlink" ffdec:objectType="shape" height="542.1px" width="542.0px" xmlns="http://www.w3.org/2000/svg">
  <g transform="matrix(1.0, 0.0, 0.0, 1.0, 269.95, 271.5)">
    <path d="M34.05 -271.5 Q53.5 -266.55 65.8 -250.65 78.1 -234.85 79.2 -214.75 80.35 -194.35 69.65 -177.05 61.15 -163.3 46.85 -155.9 L41.85 -153.0 39.05 -152.5 38.05 -37.5 153.05 -37.5 Q161.2 -63.2 185.8 -73.9 208.8 -83.85 232.5 -75.6 255.4 -67.8 267.2 -46.65 270.1 -41.45 272.05 -35.5 L211.05 -35.5 190.5 -15.55 190.05 13.5 210.0 34.1 272.05 34.5 Q269.1 52.5 254.85 64.35 240.1 76.6 221.25 79.5 197.45 82.85 177.15 69.75 162.5 60.4 155.65 44.4 L153.8 39.85 38.05 38.5 38.05 151.5 Q63.9 159.5 74.9 184.15 83.7 203.8 78.5 224.6 72.75 247.55 53.75 261.35 45.6 267.3 36.05 270.5 L36.05 209.5 16.15 188.95 -12.95 188.5 -33.5 208.45 -34.95 270.6 Q-55.4 265.15 -67.55 247.5 -80.85 228.1 -78.9 204.7 -77.0 181.7 -60.75 165.55 -54.35 159.2 -46.4 154.95 L-42.05 152.25 -38.95 151.5 -37.95 38.5 -150.95 38.5 Q-157.75 61.5 -178.7 72.85 -195.3 81.8 -213.95 80.45 -235.45 78.4 -251.65 64.25 -264.65 52.9 -269.95 36.5 L-208.95 36.5 -188.35 16.6 -187.95 -12.5 -207.85 -33.05 -269.3 -33.4 -269.3 -37.6 Q-265.7 -45.45 -260.6 -53.05 -253.35 -63.7 -242.25 -70.45 -222.4 -82.55 -199.5 -78.9 -177.95 -75.3 -163.3 -59.25 -155.25 -50.4 -151.35 -39.0 L-37.95 -37.5 -37.95 -152.5 Q-63.65 -160.4 -74.4 -185.15 -84.35 -208.1 -76.05 -231.8 -68.05 -254.7 -47.05 -266.45 -41.7 -269.35 -35.95 -271.5 L-35.95 -210.5 -16.0 -189.9 13.05 -189.5 33.65 -209.4 34.05 -271.5 M13.05 -149.5 L-13.0 -149.0 -15.95 -144.5 -15.95 143.5 -12.95 148.5 13.15 148.05 16.05 -144.5 13.05 -149.5 M39.05 -15.4 L39.05 16.45 148.95 16.45 148.95 -15.4 39.05 -15.4 M-146.85 -15.45 L-146.85 16.4 -38.95 16.4 -38.95 -15.45 -146.85 -15.45" fill="#000000" fill-rule="evenodd" stroke="none"/>
  </g>
</svg>
