<?xml version="1.0" encoding="UTF-8" standalone="no"?>
<svg xmlns:ffdec="https://www.free-decompiler.com/flash" xmlns:xlink="http://www.w3.org/1999/xlink" ffdec:objectType="shape" height="550.1px" width="550.0px" xmlns="http://www.w3.org/2000/svg">
  <g transform="matrix(1.0, 0.0, 0.0, 1.0, 273.5, 274.05)">
    <path d="M34.5 -270.05 L34.1 -207.95 13.5 -188.05 -15.55 -188.45 -35.5 -209.05 -35.5 -270.05 Q-41.25 -267.9 -46.6 -265.0 -67.6 -253.25 -75.6 -230.35 -83.9 -206.65 -73.95 -183.7 -63.2 -158.95 -37.5 -151.05 L-37.5 -36.05 -150.9 -37.55 Q-154.8 -48.95 -162.85 -57.8 -177.5 -73.85 -199.05 -77.45 -221.95 -81.1 -241.8 -69.0 -252.9 -62.25 -260.15 -51.6 -265.25 -44.0 -268.85 -36.15 L-268.85 -31.95 -207.4 -31.6 -187.5 -11.05 -187.9 18.05 -208.5 37.95 -269.5 37.95 Q-264.2 54.35 -251.2 65.7 -235.0 79.85 -213.5 81.9 -194.85 83.25 -178.25 74.3 -157.3 62.95 -150.5 39.95 L-37.5 39.95 -38.5 152.95 -41.6 153.7 Q-43.7 155.2 -45.95 156.4 -53.9 160.65 -60.3 167.0 -76.55 183.15 -78.45 206.15 -80.4 229.55 -67.1 248.95 -54.95 266.6 -34.5 272.05 L-33.05 209.9 -12.5 189.95 16.6 190.4 36.5 210.95 36.5 271.95 Q46.05 268.75 54.2 262.8 L55.35 261.95 Q62.85 256.25 68.2 249.15 75.7 239.05 78.95 226.05 84.15 205.25 75.35 185.6 64.35 160.95 38.5 152.95 L38.5 39.95 154.25 41.3 156.1 45.85 Q162.95 61.85 177.6 71.2 197.9 84.3 221.7 80.95 233.45 79.15 243.6 73.7 249.75 70.4 255.3 65.8 264.2 58.4 268.7 48.65 271.4 42.7 272.5 35.95 L210.45 35.55 190.5 14.95 190.95 -14.1 211.5 -34.05 272.5 -34.05 Q270.55 -40.0 267.65 -45.2 255.85 -66.35 232.95 -74.15 209.25 -82.4 186.25 -72.45 161.65 -61.75 153.5 -36.05 L38.5 -36.05 39.5 -151.05 42.3 -151.55 Q44.7 -153.15 47.3 -154.45 61.6 -161.85 70.1 -175.6 80.8 -192.9 79.65 -213.3 78.55 -233.4 66.25 -249.2 53.95 -265.1 34.5 -270.05 M13.5 -148.05 L-12.55 -147.55 -15.5 -143.05 -15.5 144.95 -12.5 149.95 13.6 149.5 16.5 -143.05 13.5 -148.05 M39.5 -13.95 L39.5 17.9 149.4 17.9 149.4 -13.95 39.5 -13.95 M-146.4 -14.0 L-146.4 17.85 -38.5 17.85 -38.5 -14.0 -146.4 -14.0 Z" fill="none" stroke="#000000" stroke-linecap="round" stroke-linejoin="round" stroke-width="8.0"/>
  </g>
</svg>
