<?xml version="1.0" encoding="UTF-8" standalone="no"?>
<svg xmlns:ffdec="https://www.free-decompiler.com/flash" xmlns:xlink="http://www.w3.org/1999/xlink" ffdec:objectType="shape" height="74.4px" width="74.4px" xmlns="http://www.w3.org/2000/svg">
  <g transform="matrix(1.0, 0.0, 0.0, 1.0, 37.55, 37.2)">
    <path d="M-17.7 15.55 Q-7.45 16.3 -0.25 8.8 -2.05 13.2 -6.2 15.3 -13.6 19.05 -21.75 16.95 -20.55 28.75 -12.2 37.2 -14.45 36.15 -16.35 34.4 -24.95 26.3 -23.7 14.15 -20.8 15.25 -17.7 15.55 M-14.5 -23.4 Q-15.6 -20.5 -15.9 -17.4 -16.65 -7.15 -9.15 0.05 -13.55 -1.75 -15.65 -5.9 -19.4 -13.3 -17.3 -21.45 -29.1 -20.25 -37.55 -11.9 -36.5 -14.15 -34.75 -16.05 -26.65 -24.65 -14.5 -23.4 M-27.0 -6.65 Q-25.7 -3.75 -23.7 -1.35 -17.05 6.4 -6.65 6.2 -10.95 8.0 -15.4 6.6 -23.3 4.05 -27.55 -3.25 -35.05 5.95 -35.1 17.9 -35.95 15.45 -36.05 12.9 -36.45 1.1 -27.0 -6.65 M5.9 6.15 Q7.7 10.45 6.3 14.9 3.75 22.8 -3.55 27.05 5.65 34.55 17.6 34.6 15.15 35.45 12.6 35.55 0.8 35.95 -6.95 26.5 -4.05 25.2 -1.65 23.2 6.1 16.55 5.9 6.15 M13.8 23.3 Q14.9 20.4 15.2 17.3 15.95 7.05 8.45 -0.15 12.85 1.65 14.95 5.8 18.7 13.2 16.6 21.35 28.4 20.15 36.85 11.8 35.8 14.05 34.05 15.95 25.95 24.55 13.8 23.3 M23.0 -14.15 Q20.1 -15.25 17.0 -15.55 6.75 -16.3 -0.45 -8.8 1.35 -13.2 5.5 -15.3 12.9 -19.05 21.05 -16.95 19.85 -28.75 11.5 -37.2 13.75 -36.15 15.65 -34.4 24.25 -26.3 23.0 -14.15 M6.15 -26.6 Q3.25 -25.3 0.85 -23.3 -6.9 -16.65 -6.7 -6.25 -8.5 -10.55 -7.1 -15.0 -4.55 -22.9 2.75 -27.15 -6.45 -34.65 -18.4 -34.7 -15.95 -35.55 -13.4 -35.65 -1.6 -36.05 6.15 -26.6 M34.2 -18.1 Q35.05 -15.65 35.15 -13.1 35.55 -1.3 26.1 6.45 24.8 3.55 22.8 1.15 16.15 -6.6 5.75 -6.4 10.05 -8.2 14.5 -6.8 22.4 -4.25 26.65 3.05 34.15 -6.15 34.2 -18.1" fill="#272828" fill-rule="evenodd" stroke="none"/>
  </g>
</svg>
