<?xml version="1.0" encoding="UTF-8" standalone="no"?>
<svg xmlns:ffdec="https://www.free-decompiler.com/flash" xmlns:xlink="http://www.w3.org/1999/xlink" ffdec:objectType="shape" height="77.8px" width="77.8px" xmlns="http://www.w3.org/2000/svg">
  <g transform="matrix(1.0, 0.0, 0.0, 1.0, 38.9, 38.9)">
    <path d="M-3.25 8.3 Q-6.55 11.65 -11.2 12.0 -19.45 12.65 -26.15 7.55 -29.6 18.95 -25.1 29.95 -26.8 28.1 -27.85 25.75 -32.75 15.0 -26.95 4.25 -24.7 6.4 -21.9 7.8 -12.75 12.45 -3.25 8.3 M-37.9 -1.55 Q-33.7 -12.65 -22.0 -16.15 -21.95 -13.0 -20.95 -10.0 -17.8 -0.25 -8.15 3.5 -12.85 3.5 -16.35 0.5 -22.7 -4.85 -23.8 -13.25 -34.3 -7.55 -38.9 3.35 -38.8 0.85 -37.9 -1.55 M-29.85 -25.1 Q-28.0 -26.8 -25.65 -27.85 -14.9 -32.75 -4.15 -26.95 -6.3 -24.7 -7.7 -21.9 -12.35 -12.75 -8.2 -3.25 -11.55 -6.55 -11.9 -11.2 -12.55 -19.45 -7.45 -26.15 -18.85 -29.6 -29.85 -25.1 M3.4 8.15 Q3.4 12.85 0.4 16.35 -4.95 22.7 -13.35 23.8 -7.65 34.3 3.25 38.9 0.75 38.8 -1.65 37.9 -12.75 33.7 -16.25 22.0 -13.1 21.95 -10.1 20.95 -0.35 17.8 3.4 8.15 M8.2 3.35 Q11.55 6.65 11.9 11.3 12.55 19.55 7.45 26.25 18.85 29.7 29.85 25.2 28.0 26.9 25.65 27.95 14.9 32.85 4.15 27.05 6.3 24.8 7.7 22.0 12.35 12.85 8.2 3.35 M16.15 -22.0 Q13.0 -21.95 10.0 -20.95 0.25 -17.8 -3.5 -8.15 -3.5 -12.85 -0.5 -16.35 4.85 -22.7 13.25 -23.8 7.55 -34.3 -3.35 -38.9 -0.85 -38.8 1.55 -37.9 12.65 -33.7 16.15 -22.0 M8.15 -3.4 Q12.85 -3.4 16.35 -0.4 22.7 4.95 23.8 13.35 34.3 7.65 38.9 -3.25 38.8 -0.75 37.9 1.65 33.7 12.75 22.0 16.25 21.95 13.1 20.95 10.1 17.8 0.35 8.15 -3.4 M25.2 -29.75 Q26.9 -27.9 27.95 -25.55 32.85 -14.8 27.05 -4.05 24.8 -6.2 22.0 -7.6 12.85 -12.25 3.35 -8.1 6.65 -11.45 11.3 -11.8 19.55 -12.45 26.25 -7.35 29.7 -18.75 25.2 -29.75" fill="#272828" fill-rule="evenodd" stroke="none"/>
  </g>
</svg>
