<?xml version="1.0" encoding="UTF-8" standalone="no"?>
<svg xmlns:ffdec="https://www.free-decompiler.com/flash" xmlns:xlink="http://www.w3.org/1999/xlink" ffdec:objectType="shape" height="383.55px" width="387.2px" xmlns="http://www.w3.org/2000/svg">
  <g transform="matrix(1.0, 0.0, 0.0, 1.0, 194.0, 191.0)">
    <path d="M17.05 -24.6 Q16.0 -70.15 55.85 -89.45 74.45 -94.0 92.15 -85.2 L92.55 -85.05 Q71.75 -55.55 100.65 -43.4 104.6 -41.7 109.0 -42.0 113.2 -47.0 119.45 -46.15 L120.8 -45.6 Q124.3 -25.75 116.05 -7.45 65.65 -9.1 17.05 -24.6" fill="#f6f6f6" fill-rule="evenodd" stroke="none"/>
    <path d="M-131.35 -106.35 Q-110.7 -120.65 -87.0 -113.0 -110.25 -96.3 -90.8 -78.95 -80.05 -69.35 -66.7 -74.25 -60.45 -58.15 -69.6 -38.05 -113.2 -36.25 -152.1 -55.8 -158.05 -87.8 -131.35 -106.35" fill="#f5f5f5" fill-rule="evenodd" stroke="none"/>
    <path d="M10.0 -13.0 Q10.0 -12.5 10.1 -12.5 66.9 -1.9 122.0 5.0 142.25 -37.05 119.35 -75.6 107.9 -94.9 81.75 -97.1 18.45 -102.5 7.0 -43.0 L6.95 -42.0 Q5.4 -24.45 10.0 -13.0 M98.0 -168.7 Q160.75 -131.25 184.0 -55.7 204.15 9.9 180.05 70.6 151.9 141.4 85.2 174.4 20.35 206.5 -59.05 181.9 -133.4 158.85 -170.35 95.8 -194.75 54.25 -194.0 -13.0 -182.6 -101.1 -129.05 -147.4 -89.3 -181.8 -23.8 -189.15 50.0 -197.4 98.0 -168.7 M109.0 41.0 Q32.05 26.45 -47.9 14.4 -90.9 7.9 -134.15 -1.85 -153.15 -6.1 -162.0 4.0 L-161.85 5.0 Q-150.05 6.55 -149.45 17.1 -144.25 109.5 -82.7 148.55 -30.75 181.45 37.2 160.7 118.25 135.95 109.0 41.0 M-164.0 -62.0 Q-164.1 -48.9 -161.0 -39.0 L-160.0 -38.9 Q-111.15 -29.85 -63.0 -25.0 -40.5 -81.6 -76.7 -118.3 -87.15 -128.85 -106.65 -126.75 -160.05 -121.05 -164.0 -63.0 L-164.0 -62.0" fill="#000000" fill-rule="evenodd" stroke="none"/>
  </g>
</svg>
