<?xml version="1.0" encoding="UTF-8" standalone="no"?>
<svg xmlns:ffdec="https://www.free-decompiler.com/flash" xmlns:xlink="http://www.w3.org/1999/xlink" ffdec:objectType="shape" height="58.65px" width="59.0px" xmlns="http://www.w3.org/2000/svg">
  <g transform="matrix(1.0, 0.0, 0.0, 1.0, 29.65, 29.15)">
    <path d="M1.45 -1.75 Q0.8 -3.35 1.0 -5.85 L1.05 -5.95 Q2.65 -14.3 11.5 -13.55 15.15 -13.25 16.75 -10.55 19.95 -5.15 17.15 0.75 9.4 -0.2 1.45 -1.7 L1.45 -1.75 M12.95 -11.9 Q10.45 -13.1 7.85 -12.45 2.3 -9.75 2.45 -3.4 9.25 -1.2 16.3 -1.0 17.45 -3.55 16.95 -6.35 L16.75 -6.4 Q15.9 -6.55 15.3 -5.85 L14.15 -6.05 Q10.1 -7.75 13.0 -11.85 L12.95 -11.9 M10.4 -27.65 Q20.4 -23.75 25.8 -15.1 30.7 -7.3 28.85 4.75 27.1 16.5 19.45 22.9 13.85 27.6 5.05 29.0 -5.25 30.6 -12.6 27.05 -22.0 22.45 -26.8 13.2 -29.75 7.4 -29.65 -1.65 -28.15 -14.1 -21.2 -21.05 -14.2 -28.0 -1.75 -29.05 5.35 -29.6 10.4 -27.65 M13.75 -23.55 Q7.05 -27.6 -3.3 -26.45 -12.45 -25.4 -18.0 -20.6 -25.5 -14.1 -27.1 -1.75 -27.2 7.65 -23.8 13.45 -18.65 22.3 -8.2 25.5 2.9 28.95 12.0 24.45 21.3 19.85 25.25 9.95 28.65 1.45 25.8 -7.75 22.55 -18.3 13.75 -23.55 M15.3 5.8 Q16.6 19.1 5.25 22.55 -4.25 25.45 -11.55 20.85 -20.15 15.4 -20.85 2.45 -20.95 0.95 -22.6 0.75 L-22.65 0.6 Q-21.4 -0.8 -18.75 -0.2 L-6.65 2.05 Q4.55 3.75 15.3 5.8 M3.7 5.7 L-19.0 2.45 Q-18.45 11.9 -13.55 17.25 -11.25 19.75 -9.9 19.5 L-9.85 19.9 -9.75 20.05 Q-3.95 23.8 4.05 21.15 6.15 20.45 8.05 19.35 L8.15 19.35 Q14.0 15.8 13.9 7.75 L3.7 5.7 M-22.9 -8.65 L-22.9 -8.75 Q-22.35 -16.9 -14.9 -17.7 -12.15 -18.0 -10.7 -16.5 -5.6 -11.35 -8.75 -3.45 L-22.35 -5.4 -22.5 -5.4 Q-22.9 -6.8 -22.9 -8.65 M-12.65 -11.0 Q-15.4 -13.45 -12.15 -15.75 -15.45 -16.85 -18.35 -14.85 -22.1 -12.25 -21.25 -7.75 -15.8 -5.0 -9.7 -5.3 -8.4 -8.1 -9.3 -10.35 -11.15 -9.65 -12.65 -11.0" fill="#000000" fill-rule="evenodd" stroke="none"/>
  </g>
</svg>
