<?xml version="1.0" encoding="UTF-8" standalone="no"?>
<svg xmlns:ffdec="https://www.free-decompiler.com/flash" xmlns:xlink="http://www.w3.org/1999/xlink" ffdec:objectType="shape" height="25.0px" width="25.0px" xmlns="http://www.w3.org/2000/svg">
  <g transform="matrix(1.0, 0.0, 0.0, 1.0, 13.0, 104.55)">
    <path d="M8.5 -92.05 Q8.5 -88.35 5.85 -85.7 3.25 -83.05 -0.5 -83.05 -4.2 -83.05 -6.85 -85.7 -9.5 -88.35 -9.5 -92.05 -9.5 -95.75 -6.85 -98.4 -4.2 -101.05 -0.5 -101.05 3.25 -101.05 5.85 -98.4 8.5 -95.75 8.5 -92.05" fill="#000000" fill-rule="evenodd" stroke="none"/>
    <path d="M8.5 -92.05 Q8.5 -88.35 5.85 -85.7 3.25 -83.05 -0.5 -83.05 -4.2 -83.05 -6.85 -85.7 -9.5 -88.35 -9.5 -92.05 -9.5 -95.75 -6.85 -98.4 -4.2 -101.05 -0.5 -101.05 3.25 -101.05 5.85 -98.4 8.5 -95.75 8.5 -92.05 Z" fill="none" stroke="#666666" stroke-linecap="round" stroke-linejoin="round" stroke-width="7.0"/>
  </g>
</svg>
