<?xml version="1.0" encoding="UTF-8" standalone="no"?>
<svg xmlns:ffdec="https://www.free-decompiler.com/flash" xmlns:xlink="http://www.w3.org/1999/xlink" ffdec:objectType="shape" height="483.2px" width="483.4px" xmlns="http://www.w3.org/2000/svg">
  <g transform="matrix(1.0, 0.0, 0.0, 1.0, 307.2, 132.6)">
    <path d="M-283.8 162.6 L-283.7 162.65 Q-283.3 163.8 -284.4 163.6 L-284.4 163.4 Q-283.6 163.6 -283.8 162.8 L-283.8 162.6" fill="#888888" fill-rule="evenodd" stroke="none"/>
    <path d="M-277.6 74.6 L-276.0 74.7 -276.0 74.8 -276.2 74.8 -277.6 74.6" fill="#808080" fill-rule="evenodd" stroke="none"/>
    <path d="M-239.6 106.2 L-239.6 106.4 Q-239.45 107.35 -239.8 107.8 L-239.8 107.6 -239.8 106.2 -239.6 106.2 M-264.4 102.4 L-264.4 102.6 Q-264.25 103.55 -264.6 104.0 L-264.6 103.8 -264.6 102.4 -264.4 102.4 M-264.6 104.4 L-264.6 104.6 Q-264.45 105.55 -264.8 106.0 L-264.8 105.8 -264.8 104.4 -264.6 104.4 M-264.8 106.4 L-264.8 106.6 Q-264.65 107.55 -265.0 108.0 L-265.0 107.8 -265.0 106.4 -264.8 106.4 M-302.0 80.8 L-300.4 80.9 -300.4 81.0 -300.6 81.0 -302.0 80.8 M-300.0 81.0 L-298.4 81.1 -298.4 81.2 -298.6 81.2 -300.0 81.0 M-281.6 74.2 L-280.0 74.3 -280.0 74.4 -280.2 74.4 -281.6 74.2 M-279.6 74.4 L-278.0 74.5 -278.0 74.6 -278.2 74.6 -279.6 74.4 M-245.6 82.0 L-245.6 82.2 Q-245.45 83.15 -245.8 83.6 L-245.8 83.4 -245.8 82.0 -245.6 82.0" fill="#7f7f7f" fill-rule="evenodd" stroke="none"/>
    <path d="M31.6 -111.6 Q27.25 -98.75 22.25 -85.7 L19.8 -80.0 12.0 -82.95 11.8 -83.0 2.05 -56.95 0.0 -52.0 Q-8.65 -54.75 -16.35 -58.5 L-16.4 -58.6 Q-11.4 -71.5 -6.55 -84.45 L-4.6 -89.6 3.4 -86.85 3.6 -86.8 9.15 -101.6 9.2 -101.8 -6.55 -107.9 -6.6 -108.0 Q-4.15 -115.75 -0.85 -123.6 L-0.8 -123.8 25.3 -114.25 31.6 -111.6 M164.2 36.0 Q151.25 40.95 138.0 45.6 L111.6 55.0 101.2 58.8 Q98.0 50.7 95.25 42.2 L95.2 42.0 121.65 32.75 134.4 28.0 131.65 20.2 131.6 20.0 Q139.35 17.05 147.35 14.3 L147.4 14.2 Q149.1 18.0 150.5 22.15 L150.6 22.2 158.0 19.65 158.2 19.6 164.15 35.8 164.2 36.0 M156.2 76.6 L156.2 76.4 154.2 60.4 170.8 58.4 171.0 58.4 174.2 83.4 174.2 83.6 174.2 83.8 Q174.4 84.6 173.6 84.4 L173.6 84.6 173.4 84.6 166.0 85.6 166.0 85.8 167.0 94.0 149.0 96.05 117.0 100.0 117.0 99.8 Q116.6 95.4 115.8 91.4 L115.6 91.4 107.6 92.4 107.6 92.2 104.6 67.4 104.6 67.2 104.6 66.4 105.15 66.3 105.2 66.2 121.4 64.4 121.6 64.4 Q122.45 72.85 123.6 81.0 L123.6 81.2 130.0 80.6 130.2 80.6 Q131.65 80.95 131.3 79.6 L131.2 79.6 131.2 79.4 129.4 63.4 146.0 61.4 146.2 61.4 148.4 78.2 148.4 78.4 155.0 77.6 155.2 77.6 Q156.4 77.9 156.2 76.8 L156.2 76.6 M151.4 115.6 L151.4 115.8 Q150.1 123.8 149.6 131.6 L149.6 131.7 157.2 132.6 157.2 132.4 159.4 115.8 159.4 115.7 176.2 117.6 176.2 117.8 173.0 143.8 172.8 143.8 164.8 143.0 164.7 143.0 163.8 151.2 145.4 148.95 113.6 145.0 113.6 144.8 114.8 136.4 110.4 136.05 Q107.9 135.9 106.4 135.0 108.2 122.5 109.6 109.6 L109.6 109.4 126.4 111.4 126.6 111.4 124.8 127.2 124.8 127.4 124.6 127.4 Q124.35 128.45 125.0 128.6 L125.2 128.6 132.2 129.4 132.4 129.4 134.5 112.8 134.6 112.8 Q136.05 112.4 138.45 112.75 L151.0 114.4 Q151.5 114.6 151.4 115.4 L151.4 115.6 M167.0 177.0 Q161.8 189.7 156.9 202.65 L154.2 209.0 Q141.45 204.55 128.55 199.25 L122.8 197.0 125.75 189.2 125.8 189.0 Q113.05 183.85 100.15 178.95 97.35 177.85 94.8 176.6 L101.15 160.6 101.2 160.4 Q114.25 165.25 127.05 170.3 L132.8 172.8 Q131.15 176.45 129.85 180.4 L129.8 180.6 144.4 186.55 144.6 186.6 Q147.95 178.95 150.9 170.85 L151.0 170.8 Q158.8 173.5 166.95 176.9 L167.0 177.0 M21.2 307.2 Q24.15 315.05 26.75 323.2 L26.8 323.4 19.05 326.1 19.0 326.2 Q19.85 329.85 21.35 333.8 L21.4 334.0 5.0 339.75 4.8 339.8 -4.35 313.2 -13.5 286.55 -17.0 276.2 Q-8.6 273.6 -0.6 270.65 L-0.4 270.6 8.8 297.2 13.2 309.8 Q16.95 308.85 21.15 307.3 L21.2 307.2 M-163.0 -102.8 L-155.2 -105.55 -155.0 -105.6 Q-156.25 -109.55 -157.75 -113.2 L-157.8 -113.4 -141.6 -119.55 -141.4 -119.6 Q-136.4 -106.7 -131.55 -93.6 L-121.8 -67.5 -118.0 -56.8 -134.2 -50.65 -134.4 -50.6 -144.1 -76.65 -149.0 -89.6 -156.8 -86.85 -157.0 -86.8 -162.95 -102.6 -163.0 -102.8 M-34.0 -121.4 L-33.8 -121.4 -26.4 -120.4 Q-27.15 -111.85 -28.25 -102.6 -30.2 -86.7 -31.8 -70.4 L-32.0 -70.4 -40.4 -71.2 -40.4 -71.0 -41.4 -63.0 -41.6 -63.0 -67.4 -66.2 -67.4 -66.4 -67.4 -67.8 Q-66.35 -75.15 -65.6 -82.8 L-65.6 -83.0 -48.8 -81.2 -48.6 -81.2 Q-47.95 -84.75 -47.6 -88.6 L-47.6 -88.8 -64.4 -90.8 -64.6 -90.8 -62.8 -107.6 -62.8 -107.8 -46.0 -106.0 -45.8 -106.0 Q-45.05 -109.45 -44.8 -113.4 L-44.8 -113.6 -61.6 -115.6 -61.8 -115.6 -60.0 -132.4 -60.0 -132.6 -34.2 -129.8 -34.0 -129.8 Q-34.15 -126.55 -34.6 -122.6 L-34.6 -122.4 -34.8 -122.4 Q-35.1 -121.3 -34.2 -121.4 L-34.0 -121.4 M-93.8 -130.0 Q-92.75 -130.25 -92.9 -129.2 L-92.8 -129.2 -92.8 -129.0 -92.0 -121.8 -91.8 -121.8 -83.4 -122.8 -80.85 -104.6 Q-78.75 -88.95 -76.8 -73.0 L-77.0 -73.0 -85.2 -71.8 -85.2 -71.6 -84.2 -63.6 -84.4 -63.6 -109.2 -60.2 -109.4 -60.2 Q-110.3 -60.1 -110.4 -60.8 L-110.4 -61.0 -112.4 -77.2 -112.2 -77.2 -95.4 -79.4 -95.4 -79.6 Q-95.8 -83.6 -96.6 -87.2 L-96.8 -87.2 -113.6 -85.0 Q-114.35 -91.55 -115.4 -97.95 -115.8 -100.4 -115.4 -101.8 L-115.4 -101.9 -98.8 -104.0 -98.8 -104.2 Q-99.05 -108.25 -99.8 -111.8 L-99.8 -111.9 -115.8 -109.8 -116.0 -109.8 Q-116.8 -109.7 -117.0 -110.2 L-117.0 -110.4 -119.0 -126.6 -94.0 -130.0 -93.8 -130.0 M-227.4 45.8 L-233.3 62.15 -233.4 62.2 -259.55 52.95 -265.0 50.8 Q-263.8 46.7 -262.25 43.0 L-262.2 42.8 -277.2 37.25 -277.4 37.2 -283.15 53.2 -283.2 53.4 Q-291.5 50.6 -299.35 47.3 L-299.4 47.2 -289.6 21.05 -287.6 14.8 Q-274.3 19.45 -261.35 24.25 L-255.8 26.2 -258.55 34.2 -258.6 34.4 -232.4 44.0 -227.4 45.8 M-242.4 86.8 L-241.0 87.0 -240.8 87.0 -238.0 87.4 -237.8 87.4 -239.2 102.0 -239.2 102.2 -239.4 102.2 -239.4 103.6 -239.4 103.8 -239.4 104.0 -239.4 104.2 -239.6 104.2 -239.6 105.6 -239.6 105.8 -239.6 106.0 -239.6 106.2 -239.8 106.2 -239.8 107.6 -239.8 107.8 -239.8 108.0 -239.8 108.2 -240.0 108.2 -240.0 109.6 -240.0 109.8 -240.0 110.0 -240.4 112.2 -240.4 112.6 -240.4 112.8 -240.4 113.0 Q-240.45 113.65 -241.4 113.4 L-241.6 113.4 -257.4 111.8 -257.4 111.6 -255.8 94.6 -256.0 94.6 -263.6 93.8 -263.6 94.0 -264.4 100.6 -264.4 102.2 -264.4 102.4 -264.6 102.4 -264.6 103.8 -264.6 104.0 -264.6 104.2 -264.6 104.4 -264.8 104.4 -264.8 105.8 -264.8 106.0 -264.8 106.2 -264.8 106.4 -265.0 106.4 -265.0 107.8 -265.0 108.0 -265.0 108.2 -265.4 111.0 -265.6 111.0 -282.2 109.4 -282.2 109.2 -282.2 107.8 -282.2 107.6 -282.2 106.8 Q-281.3 100.1 -280.8 93.0 L-280.8 92.8 -280.7 92.8 Q-280.5 91.6 -282.0 92.0 L-282.2 92.0 -288.6 91.4 -288.6 91.6 Q-289.1 98.7 -290.0 105.4 L-290.0 107.6 -290.0 107.8 -290.1 107.8 Q-290.1 108.7 -291.2 108.4 L-304.8 107.35 Q-306.75 107.25 -307.2 106.0 L-304.3 80.65 -304.0 80.6 -302.6 80.8 -302.4 80.8 -302.2 80.8 -302.0 80.8 -300.6 81.0 -300.4 81.0 -300.2 81.0 -300.0 81.0 -298.6 81.2 -298.4 81.2 -297.6 81.2 -297.4 81.2 Q-296.4 81.9 -296.2 80.8 L-296.2 80.6 -296.2 80.4 -296.2 79.6 Q-295.65 76.95 -295.6 73.8 L-295.6 73.6 Q-295.4 72.8 -294.2 73.0 L-294.0 73.0 -285.8 73.8 -285.6 73.8 -284.2 74.0 -284.0 74.0 -281.8 74.2 -281.6 74.2 -280.2 74.4 -280.0 74.4 -279.8 74.4 -279.6 74.4 -278.2 74.6 -278.0 74.6 -277.8 74.6 -277.6 74.6 -276.2 74.8 -276.0 74.8 -275.8 74.8 -275.6 74.8 -274.2 75.0 -274.0 75.0 -256.0 76.8 -255.8 76.8 -254.4 77.0 -254.2 77.0 -254.0 77.0 -253.8 77.0 -252.4 77.2 -252.2 77.2 -252.0 77.2 -251.8 77.2 -250.4 77.4 -250.2 77.4 -248.0 77.6 -247.8 77.6 -246.4 77.8 -246.2 77.8 -246.0 77.8 -245.8 77.8 Q-245.2 78.2 -245.4 79.4 L-245.4 79.6 -245.4 79.8 -245.4 80.0 -245.6 80.0 -245.6 81.4 -245.6 81.6 -245.6 81.8 -245.6 82.0 -245.8 82.0 -245.8 83.4 -245.8 83.6 -245.8 83.8 -245.8 84.0 -246.0 84.0 -246.0 85.4 -246.0 85.6 Q-246.2 87.0 -244.6 86.6 L-244.4 86.6 -243.0 86.8 -242.8 86.8 -242.6 86.8 -242.4 86.8 M-296.4 137.6 L-296.4 137.4 -297.4 130.2 -266.2 125.65 -247.4 123.0 -246.4 131.2 -246.4 131.4 -238.2 130.2 -238.0 130.2 -234.2 155.8 -234.2 156.0 -250.8 158.6 -251.0 158.6 -253.6 141.8 -253.6 141.6 -261.0 142.8 -261.2 142.8 Q-260.5 151.1 -259.0 159.6 L-259.0 159.8 -275.6 162.2 -275.8 162.2 -278.4 145.6 -278.4 145.4 Q-281.95 145.55 -285.8 146.4 L-286.0 146.4 Q-285.25 154.25 -283.8 162.4 L-283.8 162.6 -283.8 162.8 Q-283.6 163.6 -284.4 163.4 L-284.4 163.6 -284.6 163.6 -299.8 165.8 -300.0 165.8 Q-300.7 165.8 -300.8 165.2 L-300.8 165.0 -304.4 139.8 -297.2 138.8 -297.0 138.8 Q-295.85 138.95 -296.3 137.65 L-296.4 137.6 M-293.2 188.0 L-267.35 178.1 -241.55 168.15 -230.8 163.8 Q-227.4 171.7 -224.45 180.0 L-224.4 180.2 Q-237.05 185.45 -250.15 190.35 -256.6 192.8 -263.0 195.4 L-260.1 203.15 -260.0 203.2 Q-267.75 206.45 -275.8 209.35 L-276.0 209.4 -278.95 201.8 -279.0 201.6 Q-282.95 202.85 -286.6 204.35 L-286.8 204.4 -293.15 188.2 -293.2 188.0 M-74.6 334.6 L-74.6 334.8 -77.0 350.6 -77.2 350.6 -102.8 347.0 -102.8 346.8 -101.8 338.8 -102.0 338.8 -110.2 337.6 -110.2 337.4 -110.2 336.2 -105.6 304.8 -103.4 287.8 -95.0 289.0 -94.8 289.0 -93.8 280.8 -93.8 280.6 -67.8 284.2 -67.6 284.2 -70.0 301.0 -70.0 301.2 -87.0 298.9 -87.0 299.0 -88.1 306.6 -88.0 306.6 -71.4 309.0 -71.2 309.0 -73.4 325.8 -73.4 326.0 -90.2 323.6 -90.4 323.6 -91.6 331.2 -91.6 331.4 -75.6 333.6 -75.4 333.6 Q-74.65 333.65 -74.6 334.4 L-74.6 334.6 M-50.2 290.7 L-50.2 290.6 Q-50.25 286.75 -50.7 282.4 L-50.6 282.4 -25.2 279.6 -25.0 279.6 Q-23.7 287.6 -23.0 296.2 L-23.0 296.4 -39.8 298.4 -40.0 298.4 -39.2 306.0 -39.2 306.2 -22.2 304.4 -22.0 304.4 Q-21.3 313.0 -20.2 321.2 L-20.2 321.4 -37.2 323.2 -37.4 323.2 -36.6 330.8 -36.6 331.0 -19.8 329.2 -19.6 329.2 Q-18.45 337.35 -17.6 345.8 L-17.6 346.0 -43.6 349.0 -43.8 349.0 Q-44.05 344.85 -44.6 341.0 L-44.6 340.8 -52.8 341.6 -53.0 341.6 Q-55.0 325.7 -56.65 309.4 -57.55 300.45 -58.6 291.6 L-50.2 290.7 M-134.8 268.8 Q-126.65 271.85 -118.8 275.15 L-118.6 275.2 Q-123.65 288.05 -128.95 300.75 L-131.2 306.6 -139.0 303.45 -139.2 303.4 -145.15 318.2 -145.2 318.4 -129.6 324.75 -129.4 324.8 Q-132.5 332.7 -135.75 340.4 L-135.8 340.6 -161.4 330.35 -168.2 327.4 Q-162.9 314.8 -157.75 302.0 L-155.4 296.4 -147.6 299.35 -147.4 299.4 -137.15 273.95 Q-136.1 271.2 -134.8 268.8" fill="#000000" fill-rule="evenodd" stroke="none"/>
    <path d="M-34.6 -122.4 Q-34.85 -121.45 -34.0 -121.5 L-34.0 -121.4 -34.2 -121.4 Q-35.1 -121.3 -34.8 -122.4 L-34.6 -122.4" fill="#717171" fill-rule="evenodd" stroke="none"/>
    <path d="M-93.8 -130.0 L-93.8 -130.2 Q-92.6 -130.5 -92.8 -129.4 L-92.8 -129.2 -92.9 -129.2 Q-92.75 -130.25 -93.8 -130.0" fill="#8b8b8b" fill-rule="evenodd" stroke="none"/>
    <path d="M-115.8 -109.8 L-115.85 -109.7 Q-117.0 -109.3 -117.0 -110.2 -116.8 -109.7 -116.0 -109.8 L-115.8 -109.8" fill="#959595" fill-rule="evenodd" stroke="none"/>
    <path d="M174.2 83.6 L174.3 83.65 Q174.7 84.8 173.6 84.6 L173.6 84.4 Q174.4 84.6 174.2 83.8 L174.2 83.6 M125.2 128.6 L125.0 128.6 Q124.35 128.45 124.6 127.4 L124.8 127.4 Q124.55 128.35 125.2 128.5 L125.2 128.6 M-109.2 -60.2 L-109.25 -60.1 Q-110.55 -59.65 -110.4 -60.8 -110.3 -60.1 -109.4 -60.2 L-109.2 -60.2" fill="#858585" fill-rule="evenodd" stroke="none"/>
    <path d="M-295.6 73.6 L-295.6 73.4 -295.6 72.8 -294.0 72.9 -294.0 73.0 -294.2 73.0 Q-295.4 72.8 -295.6 73.6" fill="#8a8a8a" fill-rule="evenodd" stroke="none"/>
    <path d="M-239.4 104.2 L-239.4 104.4 Q-239.25 105.35 -239.6 105.8 L-239.6 105.6 -239.6 104.2 -239.4 104.2 M-239.8 108.2 L-239.8 108.4 Q-239.65 109.35 -240.0 109.8 L-240.0 109.6 -240.0 108.2 -239.8 108.2 M-304.0 80.6 L-302.4 80.7 -302.4 80.8 -302.6 80.8 -304.0 80.6 M-255.8 76.8 L-254.2 76.9 -254.2 77.0 -254.4 77.0 -255.8 76.8 M-253.8 77.0 L-252.2 77.1 -252.2 77.2 -252.4 77.2 -253.8 77.0 M-251.8 77.2 L-250.2 77.3 -250.2 77.4 -250.4 77.4 -251.8 77.2 M-245.4 80.0 L-245.4 80.2 Q-245.25 81.15 -245.6 81.6 L-245.6 81.4 -245.6 80.0 -245.4 80.0 M-245.8 84.0 L-245.8 84.2 Q-245.65 85.15 -246.0 85.6 L-246.0 85.4 -246.0 84.0 -245.8 84.0" fill="#7e7e7e" fill-rule="evenodd" stroke="none"/>
    <path d="M-297.4 81.2 Q-296.3 81.5 -296.3 80.6 L-296.2 80.6 -296.2 80.8 Q-296.4 81.9 -297.4 81.2" fill="#a7a7a7" fill-rule="evenodd" stroke="none"/>
    <path d="M-285.6 73.8 L-284.0 73.9 -284.0 74.0 -284.2 74.0 -285.6 73.8" fill="#787878" fill-rule="evenodd" stroke="none"/>
    <path d="M151.4 115.6 L151.4 115.4 Q151.5 114.6 151.0 114.4 151.9 114.4 151.5 115.55 L151.4 115.6 M-242.4 86.8 L-240.8 86.9 -240.8 87.0 -241.0 87.0 -242.4 86.8 M-275.6 74.8 L-274.0 74.9 -274.0 75.0 -274.2 75.0 -275.6 74.8 M-247.8 77.6 L-246.2 77.7 -246.2 77.8 -246.4 77.8 -247.8 77.6" fill="#868686" fill-rule="evenodd" stroke="none"/>
    <path d="M-245.8 77.8 Q-244.8 78.05 -245.3 79.55 L-245.4 79.6 -245.4 79.4 Q-245.2 78.2 -245.8 77.8" fill="#6b6b6b" fill-rule="evenodd" stroke="none"/>
    <path d="M104.6 67.4 L104.5 67.4 104.4 66.2 105.0 66.2 105.2 66.2 105.15 66.3 104.6 66.4 104.6 67.2 104.6 67.4 M-244.4 86.6 L-242.8 86.7 -242.8 86.8 -243.0 86.8 -244.4 86.6 M-299.8 165.8 L-299.85 165.9 Q-301.0 166.3 -300.8 165.2 -300.7 165.8 -300.0 165.8 L-299.8 165.8 M-75.4 333.6 Q-74.1 333.3 -74.5 334.55 L-74.6 334.6 -74.6 334.4 Q-74.65 333.65 -75.4 333.6" fill="#838383" fill-rule="evenodd" stroke="none"/>
    <path d="M-239.2 102.2 L-239.2 102.4 Q-239.05 103.35 -239.4 103.8 L-239.4 103.6 -239.4 102.2 -239.2 102.2" fill="#7b7b7b" fill-rule="evenodd" stroke="none"/>
    <path d="M-240.4 112.8 L-240.3 112.8 Q-240.25 114.15 -241.4 113.4 -240.45 113.65 -240.4 113.0 L-240.4 112.8" fill="#9c9c9c" fill-rule="evenodd" stroke="none"/>
    <path d="M-280.8 92.8 L-280.85 92.65 Q-281.2 92.1 -282.0 92.0 -280.5 91.6 -280.7 92.8 L-280.8 92.8" fill="#828282" fill-rule="evenodd" stroke="none"/>
    <path d="M-282.2 109.4 L-282.3 109.4 -282.4 107.8 -282.2 107.8 -282.2 109.2 -282.2 109.4 M-297.0 138.8 L-297.0 138.6 Q-296.15 138.75 -296.4 137.8 L-296.4 137.6 -296.3 137.65 Q-295.85 138.95 -297.0 138.8" fill="#818181" fill-rule="evenodd" stroke="none"/>
    <path d="M-290.0 107.8 L-290.0 108.0 Q-290.2 109.1 -291.2 108.4 -290.1 108.7 -290.1 107.8 L-290.0 107.8" fill="#a5a5a5" fill-rule="evenodd" stroke="none"/>
    <path d="M130.2 80.6 L130.2 80.4 Q131.3 80.7 131.2 79.8 L131.2 79.6 131.3 79.6 Q131.65 80.95 130.2 80.6" fill="#8f8f8f" fill-rule="evenodd" stroke="none"/>
    <path d="M155.2 77.6 L155.2 77.4 Q156.25 77.65 156.1 76.6 L156.2 76.6 156.2 76.8 Q156.4 77.9 155.2 77.6" fill="#949494" fill-rule="evenodd" stroke="none"/>
  </g>
</svg>
