<?xml version="1.0" encoding="UTF-8" standalone="no"?>
<svg xmlns:ffdec="https://www.free-decompiler.com/flash" xmlns:xlink="http://www.w3.org/1999/xlink" ffdec:objectType="shape" height="545.85px" width="578.85px" xmlns="http://www.w3.org/2000/svg">
  <g transform="matrix(1.0, 0.0, 0.0, 1.0, 290.1, 306.95)">
    <path d="M15.9 -300.2 Q94.3 -289.8 130.55 -236.05 148.5 -209.5 153.25 -169.9 158.35 -127.3 143.6 -93.6 130.15 -62.85 107.05 -41.0 95.45 -30.05 81.3 -22.3 51.85 -6.15 33.45 20.95 15.45 47.45 18.55 93.9 19.5 108.5 24.15 121.6 47.5 187.0 125.2 197.55 155.0 201.6 180.3 191.75 232.85 171.3 247.3 113.8 249.7 104.2 248.15 92.1 243.0 53.0 217.05 33.6 204.4 24.1 186.0 19.95 155.3 13.05 129.2 24.5 98.15 38.15 87.65 72.2 83.35 86.15 88.5 99.8 102.35 136.8 150.0 131.0 148.9 124.05 146.1 114.65 143.3 105.1 146.0 95.0 157.85 70.5 190.55 78.8 207.4 83.1 210.75 101.25 214.7 122.8 203.45 135.3 192.7 147.2 178.3 155.5 151.15 171.05 114.25 161.9 78.9 153.15 62.15 124.9 46.2 97.95 55.25 61.3 61.7 35.2 77.9 18.0 111.2 -17.3 175.95 -14.55 196.2 -13.7 212.1 -7.3 276.05 18.45 282.4 100.1 283.9 119.4 278.75 133.9 255.25 199.8 190.15 224.35 155.75 237.3 112.2 230.6 64.7 223.3 34.3 197.85 -8.2 162.2 -16.6 93.85 L-19.1 71.1 Q-22.9 30.9 -42.75 6.0 -72.6 -31.4 -134.1 -35.5 -150.6 -36.6 -164.0 -33.05 L-170.45 -31.15 Q-235.4 -10.75 -249.5 59.3 -255.9 91.05 -247.45 118.15 -231.4 169.4 -173.85 178.05 L-170.45 178.5 Q-151.35 180.7 -135.65 174.9 -86.3 156.7 -82.6 94.9 -81.95 84.45 -83.9 75.0 -92.6 33.15 -140.05 31.5 -149.35 31.15 -156.75 34.5 -164.55 38.05 -170.45 43.5 -180.35 52.6 -185.0 67.0 -179.35 70.3 -170.45 72.9 L-168.4 73.45 Q-155.45 76.95 -150.15 88.5 -143.85 102.3 -148.0 118.0 -155.4 132.9 -170.45 135.65 -179.95 137.35 -192.55 134.25 -201.15 132.15 -206.5 125.6 -208.35 123.35 -211.0 122.0 -218.5 106.1 -219.4 87.95 -221.55 44.95 -198.75 21.25 -187.35 9.4 -170.45 3.5 -154.65 -2.05 -134.0 -2.35 -112.8 -2.7 -97.8 4.55 -45.0 30.0 -48.55 109.95 -49.0 119.5 -51.85 128.75 -72.75 196.75 -147.2 210.9 -158.7 213.1 -170.45 212.55 -179.0 212.15 -187.65 210.3 -260.3 194.8 -278.75 123.95 -284.85 100.35 -284.0 70.0 -275.0 -10.5 -220.7 -46.05 -200.7 -59.2 -173.95 -65.9 L-170.45 -66.7 Q-131.95 -75.5 -95.2 -64.3 -65.7 -55.3 -39.65 -42.7 -15.95 -31.25 16.8 -35.5 55.55 -40.45 79.95 -60.85 110.65 -86.35 118.5 -133.25 122.1 -154.45 117.25 -174.55 108.75 -209.75 86.85 -232.85 56.35 -265.0 0.0 -265.85 -16.1 -266.1 -28.15 -261.35 -72.4 -243.9 -78.35 -189.8 -80.9 -166.6 -74.05 -151.0 -55.2 -108.3 -0.85 -102.65 19.5 -100.5 31.0 -108.6 49.05 -121.35 51.4 -144.15 54.0 -170.0 41.3 -182.3 39.25 -184.25 38.0 -187.0 32.7 -182.8 28.35 -177.5 23.9 -172.1 18.0 -168.0 3.85 -164.3 -10.05 -167.9 L-11.0 -168.0 Q-34.75 -179.65 -27.3 -210.6 -24.25 -223.25 -13.5 -229.05 1.05 -236.95 19.2 -232.75 84.25 -217.75 85.4 -146.0 85.7 -124.8 77.95 -110.5 58.15 -73.9 8.85 -68.4 -14.7 -65.8 -31.3 -71.1 -99.55 -92.95 -113.15 -168.15 -117.15 -190.2 -112.15 -209.05 -93.3 -279.85 -22.6 -297.4 -1.7 -302.55 15.9 -300.2" fill="#666666" fill-rule="evenodd" stroke="none"/>
    <path d="M15.9 -300.2 Q-1.7 -302.55 -22.6 -297.4 -93.3 -279.85 -112.15 -209.05 -117.15 -190.2 -113.15 -168.15 -99.55 -92.95 -31.3 -71.1 -14.7 -65.8 8.85 -68.4 58.15 -73.9 77.95 -110.5 85.7 -124.8 85.4 -146.0 84.25 -217.75 19.2 -232.75 1.05 -236.95 -13.5 -229.05 -24.25 -223.25 -27.3 -210.6 -34.75 -179.65 -11.0 -168.0 L-10.05 -167.9 Q3.85 -164.3 18.0 -168.0 23.9 -172.1 28.35 -177.5 32.7 -182.8 38.0 -187.0 39.25 -184.25 41.3 -182.3 54.0 -170.0 51.4 -144.15 49.05 -121.35 31.0 -108.6 19.5 -100.5 -0.85 -102.65 -55.2 -108.3 -74.05 -151.0 -80.9 -166.6 -78.35 -189.8 -72.4 -243.9 -28.15 -261.35 -16.1 -266.1 0.0 -265.85 56.35 -265.0 86.85 -232.85 108.75 -209.75 117.25 -174.55 122.1 -154.45 118.5 -133.25 110.65 -86.35 79.95 -60.85 55.55 -40.45 16.8 -35.5 -15.95 -31.25 -39.65 -42.7 -65.7 -55.3 -95.2 -64.3 -131.95 -75.5 -170.45 -66.7 L-173.95 -65.9 Q-200.7 -59.2 -220.7 -46.05 -275.0 -10.5 -284.0 70.0 -284.85 100.35 -278.75 123.95 -260.3 194.8 -187.65 210.3 -179.0 212.15 -170.45 212.55 -158.7 213.1 -147.2 210.9 -72.75 196.75 -51.85 128.75 -49.0 119.5 -48.55 109.95 -45.0 30.0 -97.8 4.55 -112.8 -2.7 -134.0 -2.35 -154.65 -2.05 -170.45 3.5 -187.35 9.4 -198.75 21.25 -221.55 44.95 -219.4 87.95 -218.5 106.1 -211.0 122.0 -208.35 123.35 -206.5 125.6 -201.15 132.15 -192.55 134.25 -179.95 137.35 -170.45 135.65 -155.4 132.9 -148.0 118.0 -143.85 102.3 -150.15 88.5 -155.45 76.95 -168.4 73.45 L-170.45 72.9 Q-179.35 70.3 -185.0 67.0 -180.35 52.6 -170.45 43.5 -164.55 38.05 -156.75 34.5 -149.35 31.15 -140.05 31.5 -92.6 33.15 -83.9 75.0 -81.95 84.45 -82.6 94.9 -86.3 156.7 -135.65 174.9 -151.35 180.7 -170.45 178.5 L-173.85 178.05 Q-231.4 169.4 -247.45 118.15 -255.9 91.05 -249.5 59.3 -235.4 -10.75 -170.45 -31.15 L-164.0 -33.05 Q-150.6 -36.6 -134.1 -35.5 -72.6 -31.4 -42.75 6.0 -22.9 30.9 -19.1 71.1 L-16.6 93.85 Q-8.2 162.2 34.3 197.85 64.7 223.3 112.2 230.6 155.75 237.3 190.15 224.35 255.25 199.8 278.75 133.9 283.9 119.4 282.4 100.1 276.05 18.45 212.1 -7.3 196.2 -13.7 175.95 -14.55 111.2 -17.3 77.9 18.0 61.7 35.2 55.25 61.3 46.2 97.95 62.15 124.9 78.9 153.15 114.25 161.9 151.15 171.05 178.3 155.5 192.7 147.2 203.45 135.3 214.7 122.8 210.75 101.25 207.4 83.1 190.55 78.8 157.85 70.5 146.0 95.0 143.3 105.1 146.1 114.65 148.9 124.05 150.0 131.0 102.35 136.8 88.5 99.8 83.35 86.15 87.65 72.2 98.15 38.15 129.2 24.5 155.3 13.05 186.0 19.95 204.4 24.1 217.05 33.6 243.0 53.0 248.15 92.1 249.7 104.2 247.3 113.8 232.85 171.3 180.3 191.75 155.0 201.6 125.2 197.55 47.5 187.0 24.15 121.6 19.5 108.5 18.55 93.9 15.45 47.45 33.45 20.95 51.85 -6.15 81.3 -22.3 95.45 -30.05 107.05 -41.0 130.15 -62.85 143.6 -93.6 158.35 -127.3 153.25 -169.9 148.5 -209.5 130.55 -236.05 94.3 -289.8 15.9 -300.2 Z" fill="none" stroke="#000000" stroke-linecap="round" stroke-linejoin="round" stroke-width="12.0"/>
  </g>
</svg>
