<?xml version="1.0" encoding="UTF-8" standalone="no"?>
<svg xmlns:ffdec="https://www.free-decompiler.com/flash" xmlns:xlink="http://www.w3.org/1999/xlink" ffdec:objectType="shape" height="338.45px" width="388.25px" xmlns="http://www.w3.org/2000/svg">
  <g transform="matrix(1.0, 0.0, 0.0, 1.0, 195.0, 213.8)">
    <path d="M18.25 -199.05 Q18.25 -192.95 13.9 -188.65 9.6 -184.3 3.5 -184.3 -2.6 -184.3 -6.95 -188.65 -11.25 -192.95 -11.25 -199.05 -11.25 -205.15 -6.95 -209.5 -2.6 -213.8 3.5 -213.8 9.6 -213.8 13.9 -209.5 18.25 -205.15 18.25 -199.05 M193.25 109.9 Q193.25 116.0 188.9 120.3 184.6 124.65 178.5 124.65 172.4 124.65 168.05 120.3 163.75 116.0 163.75 109.9 163.75 103.8 168.05 99.45 172.4 95.15 178.5 95.15 184.6 95.15 188.9 99.45 193.25 103.8 193.25 109.9 M-180.25 88.95 Q-174.15 88.95 -169.85 93.25 -165.5 97.6 -165.5 103.7 -165.5 109.8 -169.85 114.1 -174.15 118.45 -180.25 118.45 -186.35 118.45 -190.7 114.1 -195.0 109.8 -195.0 103.7 -195.0 97.6 -190.7 93.25 -186.35 88.95 -180.25 88.95" fill="#000000" fill-rule="evenodd" stroke="none"/>
  </g>
</svg>
