<?xml version="1.0" encoding="UTF-8" standalone="no"?>
<svg xmlns:ffdec="https://www.free-decompiler.com/flash" xmlns:xlink="http://www.w3.org/1999/xlink" ffdec:objectType="shape" height="326.15px" width="349.5px" xmlns="http://www.w3.org/2000/svg">
  <g transform="matrix(1.0, 0.0, 0.0, 1.0, 174.0, 182.5)">
    <path d="M47.25 -174.35 Q69.7 -162.85 83.7 -141.9 97.45 -120.25 98.55 -94.35 99.5 -71.8 91.7 -50.9 119.85 -46.3 141.5 -28.0 164.05 -8.95 171.5 19.7 178.85 47.85 172.7 76.1 173.95 64.85 173.2 53.45 170.9 19.8 143.8 0.25 114.35 -20.9 78.35 -11.9 51.8 -5.45 35.7 17.1 L23.2 9.2 Q24.25 0.35 20.6 -8.45 16.25 -19.05 4.7 -20.9 L4.7 -36.9 Q14.35 -37.8 23.7 -40.65 50.75 -48.8 64.85 -72.65 77.2 -93.45 75.0 -117.6 72.75 -142.0 57.25 -160.55 44.2 -176.2 24.75 -182.5 35.85 -180.2 47.25 -174.35 M-27.3 -181.9 Q-45.05 -173.65 -59.65 -154.25 -74.95 -133.9 -74.2 -108.3 -73.45 -83.45 -57.1 -63.75 -41.15 -44.65 -16.9 -38.55 -10.6 -36.8 -4.3 -35.9 L-4.3 -20.9 Q-15.55 -17.9 -19.45 -7.7 -22.65 0.75 -20.75 9.15 L-33.3 16.1 Q-48.4 -4.3 -72.7 -12.1 -93.9 -19.05 -115.95 -13.7 -144.1 -7.05 -159.3 17.3 -175.1 42.6 -171.3 72.85 -175.65 52.15 -173.0 31.25 -171.25 17.2 -165.25 4.0 -152.8 -23.4 -126.75 -38.35 -110.6 -47.7 -92.3 -51.8 -99.25 -76.35 -95.35 -105.1 -91.35 -134.85 -70.15 -156.05 -51.95 -174.25 -27.3 -181.9" fill="#000000" fill-opacity="0.9882353" fill-rule="evenodd" stroke="none"/>
    <path d="M16.65 16.55 L31.7 24.1 Q23.05 41.4 23.65 60.75 24.3 82.05 35.9 99.5 48.7 118.85 70.1 127.05 109.45 141.95 144.7 118.1 128.6 133.85 106.35 139.55 42.5 155.8 -0.35 107.55 L-3.05 110.65 Q-23.0 132.2 -51.7 139.5 -106.6 153.15 -146.3 114.1 -140.45 119.35 -133.35 122.85 -116.25 131.5 -96.95 130.4 -71.9 130.0 -52.65 114.55 -8.4 78.8 -29.3 24.1 L-16.75 16.15 Q-3.6 28.45 13.7 20.1 L16.65 16.55" fill="#000000" fill-opacity="0.9843137" fill-rule="evenodd" stroke="none"/>
  </g>
</svg>
