<?xml version="1.0" encoding="UTF-8" standalone="no"?>
<svg xmlns:ffdec="https://www.free-decompiler.com/flash" xmlns:xlink="http://www.w3.org/1999/xlink" ffdec:objectType="shape" height="178.15px" width="186.2px" xmlns="http://www.w3.org/2000/svg">
  <g transform="matrix(1.0, 0.0, 0.0, 1.0, 93.65, 92.2)">
    <path d="M92.35 -8.65 Q92.8 0.4 92.25 9.55 90.6 36.4 74.1 57.3 59.45 75.8 38.4 85.95 L30.35 63.35 Q45.95 56.85 55.3 42.95 69.15 22.3 69.35 -2.65 L92.35 -8.65" fill="#000000" fill-opacity="0.9882353" fill-rule="evenodd" stroke="none"/>
    <path d="M0.25 -69.25 Q-20.9 -69.05 -38.55 -58.05 L-55.6 -75.15 Q-48.75 -80.95 -40.0 -84.45 -16.45 -93.95 8.9 -91.8 34.1 -90.15 54.35 -74.65 L37.8 -57.7 27.75 -63.05 Q14.75 -69.35 0.25 -69.25 M-69.65 3.35 Q-68.05 19.9 -60.25 34.35 -49.85 53.45 -31.7 63.35 L-38.7 84.95 Q-47.75 81.15 -55.85 75.6 -76.05 61.95 -84.75 39.1 -93.75 15.6 -93.65 -9.65 L-70.65 -4.65 -69.65 3.35" fill="#000000" fill-opacity="0.9843137" fill-rule="evenodd" stroke="none"/>
    <path d="M-70.65 -4.65 Q-68.9 -2.4 -69.6 2.35 L-69.65 3.35 -70.65 -4.65" fill="#000000" fill-opacity="0.4627451" fill-rule="evenodd" stroke="none"/>
  </g>
</svg>
