<?xml version="1.0" encoding="UTF-8" standalone="no"?>
<svg xmlns:ffdec="https://www.free-decompiler.com/flash" xmlns:xlink="http://www.w3.org/1999/xlink" ffdec:objectType="shape" height="64.9px" width="71.0px" xmlns="http://www.w3.org/2000/svg">
  <g transform="matrix(1.0, 0.0, 0.0, 1.0, 35.85, 37.15)">
    <path d="M14.55 -7.3 Q13.2 3.05 3.9 5.95 L3.9 6.2 3.9 26.4 4.1 26.4 Q18.7 26.55 32.8 26.2 L32.65 26.1 25.8 15.35 21.05 15.45 Q18.5 15.65 16.9 14.85 L16.8 14.85 Q16.3 13.3 16.5 11.2 22.15 6.6 24.8 -0.9 26.3 -5.05 26.05 -9.65 L25.4 -14.4 24.5 -17.7 Q20.15 -30.65 6.8 -34.85 0.9 -36.75 -5.85 -35.05 -21.4 -31.2 -26.0 -16.4 -27.3 -12.35 -26.8 -7.95 -25.4 5.15 -17.15 11.6 L-17.15 11.85 Q-16.85 13.9 -17.6 14.85 L-17.65 15.0 -26.75 15.35 -26.8 15.55 -33.25 25.95 -33.25 26.05 Q-19.25 26.55 -4.8 26.4 L-4.8 26.2 -4.8 5.75 Q-13.15 3.0 -15.0 -6.05 -15.7 -9.4 -14.9 -12.85 -13.5 -18.5 -9.35 -21.7 -6.65 -23.75 -2.15 -23.9 10.05 -24.25 13.85 -15.8 15.3 -12.45 14.55 -7.3 M11.35 -17.05 Q9.25 -19.95 5.9 -21.5 0.1 -24.2 -5.9 -21.7 -14.35 -18.2 -13.65 -7.05 -13.5 -3.4 -11.8 -0.95 -9.0 3.1 -3.5 4.45 L-3.5 27.5 -3.5 27.7 -35.85 27.55 -35.85 27.5 Q-31.55 20.95 -27.75 13.85 L-27.6 13.8 -18.5 13.5 -18.5 13.35 Q-18.95 11.35 -20.3 10.15 -28.3 3.55 -28.1 -10.95 -28.05 -15.5 -26.75 -18.95 -21.4 -33.2 -5.4 -36.6 0.25 -37.8 5.6 -36.45 21.05 -32.5 26.05 -18.05 L26.2 -17.7 Q27.45 -13.8 27.45 -9.65 27.4 -6.5 26.65 -3.2 24.5 6.3 18.05 11.65 17.55 12.1 17.8 13.2 18.4 14.25 20.65 14.1 L26.65 13.8 35.1 27.35 35.15 27.5 Q19.25 27.85 2.8 27.7 L2.6 27.7 2.6 4.85 2.6 4.7 Q13.6 2.05 13.2 -10.7 13.05 -14.6 11.35 -17.05" fill="#000000" fill-opacity="0.9411765" fill-rule="evenodd" stroke="none"/>
    <path d="M7.35 -33.1 L12.65 -30.55 15.0 -29.05 16.05 -28.1 18.0 -26.15 18.9 -25.15 Q22.9 -19.7 24.25 -13.0 25.4 -7.3 23.65 -1.9 21.2 5.6 15.15 10.55 L15.8 15.85 25.0 16.6 30.05 24.85 5.15 25.1 5.15 7.1 Q10.4 5.5 13.1 0.8 15.9 -3.9 16.25 -9.15 16.65 -14.55 13.55 -19.1 11.65 -21.5 8.8 -23.0 6.6 -24.2 4.15 -24.55 L-0.15 -25.35 -2.45 -25.3 -4.5 -24.8 Q-6.3 -24.35 -8.0 -23.55 L-9.5 -22.7 Q-17.2 -17.15 -16.55 -7.8 -16.25 -3.1 -13.65 0.85 -10.9 5.15 -6.1 6.85 L-6.1 25.1 -30.85 24.85 -25.85 16.6 -16.65 16.1 -15.9 10.95 Q-22.25 5.65 -24.5 -2.3 -26.25 -8.6 -24.7 -14.85 -23.65 -19.25 -21.15 -23.2 -19.3 -26.15 -16.5 -28.3 -13.0 -31.1 -8.75 -32.75 -3.05 -34.85 2.95 -34.2 5.1 -34.05 7.35 -33.1" fill="#333333" fill-rule="evenodd" stroke="none"/>
  </g>
</svg>
