<?xml version="1.0" encoding="UTF-8" standalone="no"?>
<svg xmlns:ffdec="https://www.free-decompiler.com/flash" xmlns:xlink="http://www.w3.org/1999/xlink" ffdec:objectType="shape" height="66.4px" width="21.35px" xmlns="http://www.w3.org/2000/svg">
  <g transform="matrix(1.0, 0.0, 0.0, 1.0, 10.65, 33.3)">
    <path d="M3.6 -30.1 L3.75 -28.65 Q3.0 -25.45 1.2 -22.75 L2.95 -23.95 4.45 -24.65 Q7.95 -25.95 9.4 -22.6 10.7 -19.7 8.0 -18.05 5.4 -16.3 3.2 -18.5 1.65 -20.0 1.0 -19.3 0.9 -14.2 5.2 -11.6 L-5.05 -11.6 Q-0.8 -14.35 -0.95 -19.7 L-2.95 -18.3 Q-5.9 -15.95 -8.55 -18.55 -11.2 -21.1 -8.65 -23.9 -7.45 -25.2 -5.9 -24.9 -3.25 -24.55 -1.2 -22.75 L-2.1 -24.35 Q-3.3 -26.0 -3.8 -27.75 -4.15 -29.1 -3.55 -30.05 -1.0 -34.2 2.85 -31.45 L3.6 -30.1 M1.05 15.35 Q6.4 13.0 9.5 17.5 11.25 23.55 5.8 26.8 2.25 28.9 0.0 32.35 -3.25 27.85 -7.75 24.3 -8.85 23.45 -9.4 22.1 -10.9 18.4 -7.9 15.9 -5.35 13.8 -2.35 14.9 L-1.0 15.35 Q-1.1 11.2 -4.15 8.7 -4.6 8.3 -5.05 8.0 L5.2 8.0 Q2.05 10.0 1.3 13.65 L1.05 15.35" fill="#666666" fill-rule="evenodd" stroke="none"/>
    <path d="M3.6 -30.1 L3.75 -28.65 Q3.0 -25.45 1.2 -22.75 L2.95 -23.95 4.45 -24.65 Q7.95 -25.95 9.4 -22.6 10.7 -19.7 8.0 -18.05 5.4 -16.3 3.2 -18.5 1.65 -20.0 1.0 -19.3 0.9 -14.2 5.2 -11.6 L-5.05 -11.6 Q-0.8 -14.35 -0.95 -19.7 L-2.95 -18.3 Q-5.9 -15.95 -8.55 -18.55 -11.2 -21.1 -8.65 -23.9 -7.45 -25.2 -5.9 -24.9 -3.25 -24.55 -1.2 -22.75 L-2.1 -24.35 Q-3.3 -26.0 -3.8 -27.75 -4.15 -29.1 -3.55 -30.05 -1.0 -34.2 2.85 -31.45 L3.6 -30.1 M1.05 15.35 L1.3 13.65 Q2.05 10.0 5.2 8.0 L-5.05 8.0 Q-4.6 8.3 -4.15 8.7 -1.1 11.2 -1.0 15.35 L-2.35 14.9 Q-5.35 13.8 -7.9 15.9 -10.9 18.4 -9.4 22.1 -8.85 23.45 -7.75 24.3 -3.25 27.85 0.0 32.35 2.25 28.9 5.8 26.8 11.25 23.55 9.5 17.5 6.4 13.0 1.05 15.35 Z" fill="none" stroke="#000000" stroke-linecap="round" stroke-linejoin="round" stroke-width="1.5"/>
  </g>
</svg>
