<?xml version="1.0" encoding="UTF-8" standalone="no"?>
<svg xmlns:ffdec="https://www.free-decompiler.com/flash" xmlns:xlink="http://www.w3.org/1999/xlink" ffdec:objectType="shape" height="21.25px" width="62.6px" xmlns="http://www.w3.org/2000/svg">
  <g transform="matrix(1.0, 0.0, 0.0, 1.0, 30.7, 10.7)">
    <path d="M13.35 0.0 Q19.7 -3.8 22.25 -8.9 24.8 -3.8 31.15 0.0 24.8 3.8 22.25 8.9 19.7 3.8 13.35 0.0 M-28.9 -7.55 Q-27.85 -9.55 -25.55 -9.9 -20.0 -10.3 -16.15 -6.05 -13.15 -2.75 -9.75 0.0 -14.35 4.3 -19.45 8.1 -23.35 11.0 -27.6 8.9 -29.9 7.8 -29.95 5.15 -30.05 0.7 -25.65 0.0 -32.05 -1.75 -28.9 -7.55" fill="#cccccc" fill-rule="evenodd" stroke="none"/>
    <path d="M13.35 0.0 Q19.7 -3.8 22.25 -8.9 24.8 -3.8 31.15 0.0 24.8 3.8 22.25 8.9 19.7 3.8 13.35 0.0 M-28.9 -7.55 Q-32.05 -1.75 -25.65 0.0 -30.05 0.7 -29.95 5.15 -29.9 7.8 -27.6 8.9 -23.35 11.0 -19.45 8.1 -14.35 4.3 -9.75 0.0 -13.15 -2.75 -16.15 -6.05 -20.0 -10.3 -25.55 -9.9 -27.85 -9.55 -28.9 -7.55 Z" fill="none" stroke="#000000" stroke-linecap="round" stroke-linejoin="round" stroke-width="1.5"/>
  </g>
</svg>
