<?xml version="1.0" encoding="UTF-8" standalone="no"?>
<svg xmlns:ffdec="https://www.free-decompiler.com/flash" xmlns:xlink="http://www.w3.org/1999/xlink" ffdec:objectType="shape" height="26.2px" width="53.3px" xmlns="http://www.w3.org/2000/svg">
  <g transform="matrix(1.0, 0.0, 0.0, 1.0, 26.65, -5.45)">
    <path d="M20.8 8.85 Q21.25 8.45 21.75 8.3 21.25 8.45 20.8 8.85 M17.8 10.45 Q17.1 9.75 17.1 8.8 17.1 7.85 17.8 7.15 18.5 6.45 19.45 6.45 20.4 6.45 21.1 7.15 21.6 7.65 21.75 8.3 L22.75 8.1 Q23.95 8.1 24.8 8.95 25.65 9.8 25.65 11.0 25.65 12.2 24.8 13.05 23.95 13.9 22.75 13.9 21.55 13.9 20.7 13.05 L20.25 12.45 21.45 12.0 20.25 12.45 -12.2 23.7 Q-11.65 24.7 -11.65 25.95 -11.65 27.9 -13.05 29.25 -14.4 30.65 -16.35 30.65 -18.3 30.65 -19.7 29.25 -21.05 27.9 -21.05 25.95 L-21.05 25.85 -21.65 25.9 Q-23.3 25.85 -24.5 24.7 -25.65 23.55 -25.65 21.9 -25.65 20.25 -24.5 19.05 -23.3 17.9 -21.65 17.95 -20.0 17.9 -18.85 19.05 -18.1 19.85 -17.8 20.85 L17.8 10.45 20.1 9.8 17.8 10.45 M-20.3 23.4 L-19.7 22.6 Q-18.8 21.75 -17.7 21.45 L-16.35 21.25 Q-14.4 21.25 -13.05 22.6 -12.55 23.1 -12.2 23.7 -12.55 23.1 -13.05 22.6 -14.4 21.25 -16.35 21.25 L-17.7 21.45 Q-18.8 21.75 -19.7 22.6 L-20.3 23.4" fill="#666666" fill-rule="evenodd" stroke="none"/>
    <path d="M21.75 8.3 Q21.25 8.45 20.8 8.85 M20.25 12.45 L20.7 13.05 Q21.55 13.9 22.75 13.9 23.95 13.9 24.8 13.05 25.65 12.2 25.65 11.0 25.65 9.8 24.8 8.95 23.95 8.1 22.75 8.1 L21.75 8.3 Q21.6 7.65 21.1 7.15 20.4 6.45 19.45 6.45 18.5 6.45 17.8 7.15 17.1 7.85 17.1 8.8 17.1 9.75 17.8 10.45 L20.1 9.8 M20.25 12.45 L21.45 12.0 M-12.2 23.7 Q-12.55 23.1 -13.05 22.6 -14.4 21.25 -16.35 21.25 L-17.7 21.45 Q-18.8 21.75 -19.7 22.6 L-20.3 23.4 M17.8 10.45 L-17.8 20.85 Q-18.1 19.85 -18.85 19.05 -20.0 17.9 -21.65 17.95 -23.3 17.9 -24.5 19.05 -25.65 20.25 -25.65 21.9 -25.65 23.55 -24.5 24.7 -23.3 25.85 -21.65 25.9 L-21.05 25.85 -21.05 25.95 Q-21.05 27.9 -19.7 29.25 -18.3 30.65 -16.35 30.65 -14.4 30.65 -13.05 29.25 -11.65 27.9 -11.65 25.95 -11.65 24.7 -12.2 23.7 L20.25 12.45" fill="none" stroke="#000000" stroke-linecap="round" stroke-linejoin="round" stroke-width="2.0"/>
    <path d="M-17.8 10.45 L17.85 20.85 Q18.1 19.85 18.9 19.05 20.0 17.9 21.7 17.95 23.3 17.9 24.5 19.05 25.65 20.25 25.65 21.9 25.65 23.55 24.5 24.7 23.3 25.85 21.7 25.9 L21.05 25.85 21.05 25.95 Q21.05 27.9 19.7 29.25 18.3 30.65 16.35 30.65 14.4 30.65 13.05 29.25 11.65 27.9 11.65 25.95 11.65 24.7 12.25 23.7 L13.05 22.6 Q14.4 21.25 16.35 21.25 L17.75 21.45 Q18.8 21.75 19.7 22.6 L20.35 23.4 19.7 22.6 Q18.8 21.75 17.75 21.45 L16.35 21.25 Q14.4 21.25 13.05 22.6 L12.25 23.7 -20.2 12.45 -20.7 13.05 Q-21.55 13.9 -22.75 13.9 -23.95 13.9 -24.8 13.05 -25.65 12.2 -25.65 11.0 -25.65 9.8 -24.8 8.95 -23.95 8.1 -22.75 8.1 L-21.75 8.3 Q-21.6 7.65 -21.1 7.15 -20.4 6.45 -19.45 6.45 -18.5 6.45 -17.8 7.15 -17.1 7.85 -17.1 8.8 -17.1 9.75 -17.8 10.45 L-20.1 9.8 -17.8 10.45 M-20.8 8.85 Q-21.25 8.45 -21.75 8.3 -21.25 8.45 -20.8 8.85 M-21.45 12.0 L-20.2 12.45 -21.45 12.0" fill="#666666" fill-rule="evenodd" stroke="none"/>
    <path d="M12.25 23.7 Q11.65 24.7 11.65 25.95 11.65 27.9 13.05 29.25 14.4 30.65 16.35 30.65 18.3 30.65 19.7 29.25 21.05 27.9 21.05 25.95 L21.05 25.85 21.7 25.9 Q23.3 25.85 24.5 24.7 25.65 23.55 25.65 21.9 25.65 20.25 24.5 19.05 23.3 17.9 21.7 17.95 20.0 17.9 18.9 19.05 18.1 19.85 17.85 20.85 L-17.8 10.45 -20.1 9.8 M12.25 23.7 L13.05 22.6 Q14.4 21.25 16.35 21.25 L17.75 21.45 Q18.8 21.75 19.7 22.6 L20.35 23.4 M-17.8 10.45 Q-17.1 9.75 -17.1 8.8 -17.1 7.85 -17.8 7.15 -18.5 6.45 -19.45 6.45 -20.4 6.45 -21.1 7.15 -21.6 7.65 -21.75 8.3 -21.25 8.45 -20.8 8.85 M-21.75 8.3 L-22.75 8.1 Q-23.95 8.1 -24.8 8.95 -25.65 9.8 -25.65 11.0 -25.65 12.2 -24.8 13.05 -23.95 13.9 -22.75 13.9 -21.55 13.9 -20.7 13.05 L-20.2 12.45 -21.45 12.0 M-20.2 12.45 L12.25 23.7" fill="none" stroke="#000000" stroke-linecap="round" stroke-linejoin="round" stroke-width="2.0"/>
  </g>
</svg>
