<?xml version="1.0" encoding="UTF-8" standalone="no"?>
<svg xmlns:ffdec="https://www.free-decompiler.com/flash" xmlns:xlink="http://www.w3.org/1999/xlink" ffdec:objectType="shape" height="51.05px" width="31.95px" xmlns="http://www.w3.org/2000/svg">
  <g transform="matrix(1.0, 0.0, 0.0, 1.0, 15.95, 28.7)">
    <path d="M1.0 -6.25 Q1.95 0.05 9.4 -2.4 11.3 -6.1 10.2 -9.55 6.05 -10.25 3.75 -7.25 2.35 -5.45 1.0 -6.25 M13.8 -3.45 Q15.15 -1.05 11.65 2.4 L10.85 13.9 2.7 20.85 0.0 21.35 -2.65 20.85 -10.85 13.9 -11.6 2.4 Q-15.15 -1.05 -13.75 -3.45 -16.25 -15.0 -13.6 -20.6 -10.35 -27.45 0.0 -27.7 10.35 -27.45 13.6 -20.6 16.25 -15.0 13.8 -3.45 M-1.25 -6.45 Q-2.25 -5.45 -3.65 -7.25 -5.95 -10.25 -10.1 -9.55 -11.25 -6.1 -9.35 -2.4 -1.9 0.05 -1.25 -6.45" fill="#cccccc" fill-rule="evenodd" stroke="none"/>
    <path d="M13.8 -3.45 Q15.15 -1.05 11.65 2.4 L10.85 13.9 2.7 20.85 0.0 21.35 -2.65 20.85 -10.85 13.9 -11.6 2.4 Q-15.15 -1.05 -13.75 -3.45 -16.25 -15.0 -13.6 -20.6 -10.35 -27.45 0.0 -27.7 10.35 -27.45 13.6 -20.6 16.25 -15.0 13.8 -3.45" fill="none" stroke="#000000" stroke-linecap="round" stroke-linejoin="round" stroke-width="2.0"/>
    <path d="M1.0 -6.25 Q2.35 -5.45 3.75 -7.25 6.05 -10.25 10.2 -9.55 11.3 -6.1 9.4 -2.4 1.95 0.05 1.0 -6.25 M-1.25 -6.45 Q-1.9 0.05 -9.35 -2.4 -11.25 -6.1 -10.1 -9.55 -5.95 -10.25 -3.65 -7.25 -2.25 -5.45 -1.25 -6.45 Z" fill="none" stroke="#000000" stroke-linecap="round" stroke-linejoin="round" stroke-width="1.0"/>
    <path d="M3.4 7.3 Q4.75 6.25 6.15 6.95 7.7 5.75 8.95 6.45 L8.5 8.7 7.95 11.6 Q7.15 13.45 6.05 13.3 4.85 15.35 3.3 14.6 L0.25 15.1 -0.6 15.5 Q-1.4 15.9 -2.7 14.75 -3.95 15.15 -5.4 13.6 -6.55 13.75 -7.8 11.6 L-8.35 8.7 -8.75 6.45 Q-7.05 5.55 -5.7 7.0 -3.9 6.1 -2.7 7.35 L0.25 7.45 3.4 7.3 3.35 11.05 Q4.35 12.85 6.05 10.3 L6.15 6.95 M3.3 14.6 L3.35 11.05 0.25 11.25 0.25 15.1 M-2.7 7.35 L-2.65 11.15 0.25 11.25 0.25 7.45 M8.5 8.7 Q7.3 11.6 6.05 10.3 L6.05 13.3 M-8.35 8.7 Q-7.4 11.35 -5.55 10.45 L-5.7 7.0 M-2.7 14.75 L-2.65 11.15 Q-3.8 12.8 -5.55 10.45 L-5.4 13.6" fill="none" stroke="#000000" stroke-linecap="round" stroke-linejoin="round" stroke-width="1.0"/>
    <path d="M0.8 0.3 L1.3 3.7 M-0.75 0.3 L-1.3 3.7" fill="none" stroke="#000000" stroke-linecap="round" stroke-linejoin="round" stroke-width="1.5"/>
  </g>
</svg>
