<?xml version="1.0" encoding="UTF-8" standalone="no"?>
<svg xmlns:ffdec="https://www.free-decompiler.com/flash" xmlns:xlink="http://www.w3.org/1999/xlink" ffdec:objectType="shape" height="70.6px" width="74.25px" xmlns="http://www.w3.org/2000/svg">
  <g transform="matrix(1.0, 0.0, 0.0, 1.0, 37.1, 37.8)">
    <path d="M0.0 -36.8 L8.5 -10.65 36.15 -10.65 13.75 5.55 22.35 31.8 0.0 15.55 -22.3 31.8 -13.75 5.55 -36.1 -10.65 -8.5 -10.65 0.0 -36.8 M6.6 -7.8 L0.0 -28.05 -6.55 -7.8 -28.0 -7.8 -10.65 4.8 -17.3 25.15 0.0 12.55 17.35 25.15 10.7 4.8 28.0 -7.8 6.6 -7.8" fill="#666666" fill-rule="evenodd" stroke="none"/>
    <path d="M0.0 -36.8 L-8.5 -10.65 -36.1 -10.65 -13.75 5.55 -22.3 31.8 0.0 15.55 22.35 31.8 13.75 5.55 36.15 -10.65 8.5 -10.65 0.0 -36.8 M6.6 -7.8 L0.0 -28.05 -6.55 -7.8 -28.0 -7.8 -10.65 4.8 -17.3 25.15 0.0 12.55 17.35 25.15 10.7 4.8 28.0 -7.8 6.6 -7.8 Z" fill="none" stroke="#000000" stroke-linecap="round" stroke-linejoin="round" stroke-width="2.0"/>
  </g>
</svg>
