<?xml version="1.0" encoding="UTF-8" standalone="no"?>
<svg xmlns:ffdec="https://www.free-decompiler.com/flash" xmlns:xlink="http://www.w3.org/1999/xlink" ffdec:objectType="shape" height="79.3px" width="79.3px" xmlns="http://www.w3.org/2000/svg">
  <g transform="matrix(1.0, 0.0, 0.0, 1.0, 39.65, 39.65)">
    <path d="M21.85 -21.85 Q12.8 -30.9 0.0 -30.9 -12.8 -30.9 -21.85 -21.85 -30.9 -12.8 -30.9 0.0 -30.9 12.8 -21.85 21.85 -12.8 30.9 0.0 30.9 12.8 30.9 21.85 21.85 30.9 12.8 30.9 0.0 30.9 -12.8 21.85 -21.85 M21.75 -26.75 Q22.5 -24.95 26.2 -26.3 L31.6 -22.6 Q27.65 -22.2 27.95 -20.25 28.2 -18.3 32.1 -18.6 L36.35 -13.6 Q32.45 -14.3 32.2 -12.3 31.95 -10.35 35.8 -9.7 L38.65 -3.75 38.55 -3.8 Q35.05 -5.35 34.3 -3.55 33.55 -1.75 37.1 -0.1 L38.35 6.35 37.55 5.75 Q35.1 4.05 34.05 5.45 32.85 7.0 35.85 9.5 L35.35 16.1 Q33.05 12.8 31.5 14.05 29.95 15.3 32.2 18.5 L30.0 24.7 Q28.6 20.95 26.8 21.75 24.95 22.5 26.3 26.2 L22.65 31.6 Q22.2 27.65 20.25 27.95 18.3 28.2 18.65 32.1 L13.65 36.35 Q14.3 32.45 12.35 32.2 10.35 31.95 9.7 35.8 L3.75 38.65 Q5.4 35.05 3.6 34.3 1.75 33.55 0.1 37.1 L-6.35 38.35 Q-3.85 35.25 -5.4 34.05 -7.0 32.85 -9.5 35.85 L-16.05 35.35 Q-12.8 33.05 -14.05 31.5 -15.3 29.95 -18.45 32.2 L-24.65 30.0 Q-20.95 28.6 -21.7 26.8 -22.5 24.95 -26.15 26.3 L-31.6 22.65 Q-27.65 22.2 -27.9 20.25 -28.2 18.3 -32.05 18.65 L-36.35 13.65 Q-32.45 14.3 -32.2 12.35 -31.95 10.35 -35.8 9.7 L-38.65 3.75 Q-35.05 5.4 -34.3 3.6 -33.55 1.75 -37.1 0.1 L-38.35 -6.35 Q-35.25 -3.85 -34.05 -5.4 -32.85 -7.0 -35.85 -9.5 L-35.35 -16.05 Q-33.05 -12.8 -31.5 -14.05 -29.95 -15.3 -32.15 -18.45 L-29.95 -24.65 Q-28.6 -20.95 -26.75 -21.7 -24.95 -22.5 -26.3 -26.15 L-22.6 -31.6 Q-22.2 -27.65 -20.25 -27.9 -18.3 -28.2 -18.6 -32.05 L-13.6 -36.35 Q-14.3 -32.45 -12.3 -32.2 -10.35 -31.95 -9.7 -35.8 L-3.75 -38.65 Q-5.4 -35.05 -3.55 -34.3 -1.75 -33.55 -0.1 -37.1 L6.35 -38.35 Q3.85 -35.25 5.45 -34.05 7.0 -32.85 9.5 -35.85 L16.1 -35.35 Q12.8 -33.05 14.05 -31.5 15.3 -29.95 18.5 -32.15 L24.7 -29.95 Q20.95 -28.6 21.75 -26.75" fill="#666666" fill-rule="evenodd" stroke="none"/>
    <path d="M21.75 -26.75 Q20.95 -28.6 24.7 -29.95 L18.5 -32.15 Q15.3 -29.95 14.05 -31.5 12.8 -33.05 16.1 -35.35 L9.5 -35.85 Q7.0 -32.85 5.45 -34.05 3.85 -35.25 6.35 -38.35 L-0.1 -37.1 Q-1.75 -33.55 -3.55 -34.3 -5.4 -35.05 -3.75 -38.65 L-9.7 -35.8 Q-10.35 -31.95 -12.3 -32.2 -14.3 -32.45 -13.6 -36.35 L-18.6 -32.05 Q-18.3 -28.2 -20.25 -27.9 -22.2 -27.65 -22.6 -31.6 L-26.3 -26.15 Q-24.95 -22.5 -26.75 -21.7 -28.6 -20.95 -29.95 -24.65 L-32.15 -18.45 Q-29.95 -15.3 -31.5 -14.05 -33.05 -12.8 -35.35 -16.05 L-35.85 -9.5 Q-32.85 -7.0 -34.05 -5.4 -35.25 -3.85 -38.35 -6.35 L-37.1 0.1 Q-33.55 1.75 -34.3 3.6 -35.05 5.4 -38.65 3.75 L-35.8 9.7 Q-31.95 10.35 -32.2 12.35 -32.45 14.3 -36.35 13.65 L-32.05 18.65 Q-28.2 18.3 -27.9 20.25 -27.65 22.2 -31.6 22.65 L-26.15 26.3 Q-22.5 24.95 -21.7 26.8 -20.95 28.6 -24.65 30.0 L-18.45 32.2 Q-15.3 29.95 -14.05 31.5 -12.8 33.05 -16.05 35.35 L-9.5 35.85 Q-7.0 32.85 -5.4 34.05 -3.85 35.25 -6.35 38.35 L0.1 37.1 Q1.75 33.55 3.6 34.3 5.4 35.05 3.75 38.65 L9.7 35.8 Q10.35 31.95 12.35 32.2 14.3 32.45 13.65 36.35 L18.65 32.1 Q18.3 28.2 20.25 27.95 22.2 27.65 22.65 31.6 L26.3 26.2 Q24.95 22.5 26.8 21.75 28.6 20.95 30.0 24.7 L32.2 18.5 Q29.95 15.3 31.5 14.05 33.05 12.8 35.35 16.1 L35.85 9.5 Q32.85 7.0 34.05 5.45 35.1 4.05 37.55 5.75 L38.35 6.35 37.1 -0.1 Q33.55 -1.75 34.3 -3.55 35.05 -5.35 38.55 -3.8 L38.65 -3.75 35.8 -9.7 Q31.95 -10.35 32.2 -12.3 32.45 -14.3 36.35 -13.6 L32.1 -18.6 Q28.2 -18.3 27.95 -20.25 27.65 -22.2 31.6 -22.6 L26.2 -26.3 Q22.5 -24.95 21.75 -26.75 M21.85 -21.85 Q30.9 -12.8 30.9 0.0 30.9 12.8 21.85 21.85 12.8 30.9 0.0 30.9 -12.8 30.9 -21.85 21.85 -30.9 12.8 -30.9 0.0 -30.9 -12.8 -21.85 -21.85 -12.8 -30.9 0.0 -30.9 12.8 -30.9 21.85 -21.85 Z" fill="none" stroke="#000000" stroke-linecap="round" stroke-linejoin="round" stroke-width="2.0"/>
  </g>
</svg>
