<?xml version="1.0" encoding="UTF-8" standalone="no"?>
<svg xmlns:ffdec="https://www.free-decompiler.com/flash" xmlns:xlink="http://www.w3.org/1999/xlink" ffdec:objectType="shape" height="63.8px" width="63.8px" xmlns="http://www.w3.org/2000/svg">
  <g transform="matrix(1.0, 0.0, 0.0, 1.0, 31.9, 31.9)">
    <path d="M0.0 -30.9 Q12.8 -30.9 21.85 -21.85 30.9 -12.8 30.9 0.0 30.9 12.8 21.85 21.85 12.8 30.9 0.0 30.9 -12.8 30.9 -21.85 21.85 -30.9 12.8 -30.9 0.0 -30.9 -12.8 -21.85 -21.85 -12.8 -30.9 0.0 -30.9" fill="#cccccc" fill-rule="evenodd" stroke="none"/>
    <path d="M0.0 -30.9 Q-12.8 -30.9 -21.85 -21.85 -30.9 -12.8 -30.9 0.0 -30.9 12.8 -21.85 21.85 -12.8 30.9 0.0 30.9 12.8 30.9 21.85 21.85 30.9 12.8 30.9 0.0 30.9 -12.8 21.85 -21.85 12.8 -30.9 0.0 -30.9 Z" fill="none" stroke="#000000" stroke-linecap="round" stroke-linejoin="round" stroke-width="2.0"/>
  </g>
</svg>
