<?xml version="1.0" encoding="UTF-8" standalone="no"?>
<svg xmlns:ffdec="https://www.free-decompiler.com/flash" xmlns:xlink="http://www.w3.org/1999/xlink" ffdec:objectType="shape" height="45.9px" width="45.9px" xmlns="http://www.w3.org/2000/svg">
  <g transform="matrix(1.0, 0.0, 0.0, 1.0, 22.95, 22.95)">
    <path d="M19.3 -19.2 L22.95 -14.75 7.55 -4.85 Q8.95 -2.7 9.0 0.0 8.95 3.7 6.35 6.35 3.7 8.95 0.0 8.95 -2.7 8.95 -4.85 7.55 L-14.75 22.95 -19.25 19.25 Q-21.4 17.1 -22.95 14.75 L-7.55 4.85 Q-8.95 2.7 -8.95 0.0 -8.95 -3.7 -6.35 -6.3 -3.7 -8.95 0.0 -8.95 2.7 -8.95 4.85 -7.55 L14.75 -22.95 19.3 -19.2 M1.5 -1.55 Q0.9 -2.15 0.0 -2.15 -0.9 -2.15 -1.55 -1.55 -2.15 -0.9 -2.15 0.0 -2.15 0.9 -1.55 1.5 -0.9 2.15 0.0 2.15 0.9 2.15 1.5 1.5 2.15 0.9 2.15 0.0 2.15 -0.9 1.5 -1.55" fill="#cccccc" fill-rule="evenodd" stroke="none"/>
  </g>
</svg>
