<?xml version="1.0" encoding="UTF-8" standalone="no"?>
<svg xmlns:ffdec="https://www.free-decompiler.com/flash" xmlns:xlink="http://www.w3.org/1999/xlink" ffdec:objectType="shape" height="56.4px" width="56.5px" xmlns="http://www.w3.org/2000/svg">
  <g transform="matrix(1.0, 0.0, 0.0, 1.0, 28.25, 28.2)">
    <path d="M14.75 -22.95 L4.85 -7.55 Q2.7 -8.95 0.0 -8.95 -3.7 -8.95 -6.35 -6.3 -8.95 -3.7 -8.95 0.0 -8.95 2.7 -7.55 4.85 L-22.95 14.75 Q-27.25 8.25 -27.25 0.0 -27.25 -11.25 -19.25 -19.2 -11.3 -27.2 0.0 -27.2 8.25 -27.2 14.75 -22.95 M7.55 -4.85 L22.95 -14.75 Q27.25 -8.25 27.25 0.0 27.25 11.25 19.3 19.25 11.3 27.2 0.0 27.2 -8.25 27.2 -14.75 22.95 L-4.85 7.55 Q-2.7 8.95 0.0 8.95 3.7 8.95 6.35 6.35 8.95 3.7 9.0 0.0 8.95 -2.7 7.55 -4.85" fill="#666666" fill-rule="evenodd" stroke="none"/>
    <path d="M22.95 -14.75 L19.3 -19.2 14.75 -22.95 Q8.25 -27.2 0.0 -27.2 -11.3 -27.2 -19.25 -19.2 -27.25 -11.25 -27.25 0.0 -27.25 8.25 -22.95 14.75 -21.4 17.1 -19.25 19.25 L-14.75 22.95 Q-8.25 27.2 0.0 27.2 11.3 27.2 19.3 19.25 27.25 11.25 27.25 0.0 27.25 -8.25 22.95 -14.75 M4.85 -7.55 L6.35 -6.3 7.55 -4.85 Q8.95 -2.7 9.0 0.0 8.95 3.7 6.35 6.35 3.7 8.95 0.0 8.95 -2.7 8.95 -4.85 7.55 L-6.35 6.35 -7.55 4.85 Q-8.95 2.7 -8.95 0.0 -8.95 -3.7 -6.35 -6.3 -3.7 -8.95 0.0 -8.95 2.7 -8.95 4.85 -7.55 M1.5 -1.55 Q2.15 -0.9 2.15 0.0 2.15 0.9 1.5 1.5 0.9 2.15 0.0 2.15 -0.9 2.15 -1.55 1.5 -2.15 0.9 -2.15 0.0 -2.15 -0.9 -1.55 -1.55 -0.9 -2.15 0.0 -2.15 0.9 -2.15 1.5 -1.55 Z" fill="none" stroke="#000000" stroke-linecap="round" stroke-linejoin="round" stroke-width="2.0"/>
  </g>
</svg>
