<?xml version="1.0" encoding="UTF-8" standalone="no"?>
<svg xmlns:ffdec="https://www.free-decompiler.com/flash" xmlns:xlink="http://www.w3.org/1999/xlink" ffdec:objectType="shape" height="75.95px" width="70.85px" xmlns="http://www.w3.org/2000/svg">
  <g transform="matrix(1.0, 0.0, 0.0, 1.0, 35.4, 40.75)">
    <path d="M-6.9 -33.5 L0.0 -39.75 0.05 -34.05 Q14.15 -34.05 24.15 -24.05 34.1 -14.1 34.1 0.0 34.1 5.45 32.5 10.8 L30.55 1.55 19.9 5.05 30.55 1.55 32.5 10.8 34.45 19.9 29.5 17.1 Q22.4 29.3 8.8 32.95 -4.85 36.6 -17.05 29.55 -21.75 26.8 -25.55 22.75 L-34.4 19.9 -29.5 17.0 Q-36.55 4.75 -32.9 -8.85 -29.25 -22.5 -17.05 -29.5 -12.35 -32.25 -6.9 -33.5 L-13.95 -27.2 -5.55 -19.7 -13.95 -27.2 -6.9 -33.5 M19.9 5.05 Q20.45 2.65 20.45 0.0 20.45 -8.45 14.5 -14.4 8.5 -20.4 0.05 -20.4 L0.05 -14.7 -5.55 -19.7 Q-7.95 -19.0 -10.2 -17.7 -17.55 -13.5 -19.7 -5.3 -21.9 2.85 -17.7 10.15 L-12.75 7.3 -14.3 14.7 Q-12.5 16.4 -10.2 17.7 -2.9 21.95 5.25 19.75 13.4 17.55 17.65 10.25 L12.7 7.4 19.9 5.05 M-25.55 22.75 L-16.55 25.7 -14.3 14.7 -16.55 25.7 -25.55 22.75" fill="#cccccc" fill-rule="evenodd" stroke="none"/>
    <path d="M32.5 10.8 Q34.1 5.45 34.1 0.0 34.1 -14.1 24.15 -24.05 14.15 -34.05 0.05 -34.05 L0.0 -39.75 -6.9 -33.5 -13.95 -27.2 -5.55 -19.7 0.05 -14.7 0.05 -20.4 Q8.5 -20.4 14.5 -14.4 20.45 -8.45 20.45 0.0 20.45 2.65 19.9 5.05 L30.55 1.55 32.5 10.8 34.45 19.9 29.5 17.1 Q22.4 29.3 8.8 32.95 -4.85 36.6 -17.05 29.55 -21.75 26.8 -25.55 22.75 L-34.4 19.9 -29.5 17.0 Q-36.55 4.75 -32.9 -8.85 -29.25 -22.5 -17.05 -29.5 -12.35 -32.25 -6.9 -33.5 M19.9 5.05 L12.7 7.4 17.65 10.25 Q13.4 17.55 5.25 19.75 -2.9 21.95 -10.2 17.7 -12.5 16.4 -14.3 14.7 L-16.55 25.7 -25.55 22.75 M-14.3 14.7 L-12.75 7.3 -17.7 10.15 Q-21.9 2.85 -19.7 -5.3 -17.55 -13.5 -10.2 -17.7 -7.95 -19.0 -5.55 -19.7" fill="none" stroke="#000000" stroke-linecap="round" stroke-linejoin="round" stroke-width="2.0"/>
  </g>
</svg>
