<?xml version="1.0" encoding="UTF-8" standalone="no"?>
<svg xmlns:ffdec="https://www.free-decompiler.com/flash" xmlns:xlink="http://www.w3.org/1999/xlink" ffdec:objectType="shape" height="52.55px" width="50.05px" xmlns="http://www.w3.org/2000/svg">
  <g transform="matrix(1.0, 0.0, 0.0, 1.0, 25.0, 26.3)">
    <path d="M-10.0 -19.6 Q4.1 -19.6 14.1 -9.6 24.05 0.35 24.05 14.45 24.05 19.9 22.45 25.25 L20.5 16.0 9.85 19.5 Q10.4 17.1 10.4 14.45 10.4 6.0 4.45 0.05 -1.55 -5.95 -10.0 -5.95 L-10.0 -0.25 -24.0 -12.75 -10.05 -25.3 -10.0 -19.6" fill="#666666" fill-rule="evenodd" stroke="none"/>
    <path d="M-10.0 -19.6 Q4.1 -19.6 14.1 -9.6 24.05 0.35 24.05 14.45 24.05 19.9 22.45 25.25 L20.5 16.0 9.85 19.5 Q10.4 17.1 10.4 14.45 10.4 6.0 4.45 0.05 -1.55 -5.95 -10.0 -5.95 L-10.0 -0.25 -24.0 -12.75 -10.05 -25.3 -10.0 -19.6 Z" fill="none" stroke="#000000" stroke-linecap="round" stroke-linejoin="round" stroke-width="2.0"/>
  </g>
</svg>
