<?xml version="1.0" encoding="UTF-8" standalone="no"?>
<svg xmlns:ffdec="https://www.free-decompiler.com/flash" xmlns:xlink="http://www.w3.org/1999/xlink" ffdec:objectType="shape" height="60.4px" width="60.5px" xmlns="http://www.w3.org/2000/svg">
  <g transform="matrix(1.0, 0.0, 0.0, 1.0, 30.25, 30.2)">
    <path d="M19.3 -19.2 Q27.25 -11.25 27.25 0.0 27.25 11.25 19.3 19.25 L19.25 19.25 Q11.3 27.2 0.0 27.2 -11.3 27.2 -19.25 19.25 -27.25 11.25 -27.25 0.0 -27.25 -11.25 -19.25 -19.2 -11.3 -27.2 0.0 -27.2 11.3 -27.2 19.3 -19.2 M19.25 19.25 L0.0 0.0 0.0 27.2 M-19.25 19.25 L0.0 0.0 0.0 -27.2" fill="none" stroke="#000000" stroke-linecap="round" stroke-linejoin="round" stroke-width="6.0"/>
    <path d="M19.3 -19.2 Q27.25 -11.25 27.25 0.0 27.25 11.25 19.3 19.25 L19.25 19.25 Q11.3 27.2 0.0 27.2 -11.3 27.2 -19.25 19.25 -27.25 11.25 -27.25 0.0 -27.25 -11.25 -19.25 -19.2 -11.3 -27.2 0.0 -27.2 11.3 -27.2 19.3 -19.2 M19.25 19.25 L0.0 0.0 0.0 27.2 M-19.25 19.25 L0.0 0.0 0.0 -27.2" fill="none" stroke="#666666" stroke-linecap="round" stroke-linejoin="round" stroke-width="3.0"/>
  </g>
</svg>
