<?xml version="1.0" encoding="UTF-8" standalone="no"?>
<svg xmlns:ffdec="https://www.free-decompiler.com/flash" xmlns:xlink="http://www.w3.org/1999/xlink" ffdec:objectType="shape" height="60.4px" width="60.5px" xmlns="http://www.w3.org/2000/svg">
  <g transform="matrix(1.0, 0.0, 0.0, 1.0, 30.25, 30.2)">
    <path d="M5.7 -26.65 Q8.05 -25.6 10.05 -23.65 14.15 -19.5 14.2 -13.65 14.15 -7.8 10.05 -3.65 7.3 -0.9 0.0 0.0 -7.25 0.95 -10.0 3.7 -14.15 7.85 -14.15 13.7 -14.15 19.55 -10.0 23.7 -8.1 25.6 -5.85 26.65 L0.0 27.2 6.05 26.6 Q13.5 25.0 19.3 19.25 27.25 11.25 27.25 0.0 27.25 -11.25 19.3 -19.2 13.4 -25.1 5.7 -26.65 L0.0 -27.2 -5.7 -26.65 Q-13.4 -25.1 -19.25 -19.2 -27.25 -11.25 -27.25 0.0 -27.25 11.25 -19.25 19.25 -13.45 25.05 -5.85 26.65" fill="none" stroke="#000000" stroke-linecap="round" stroke-linejoin="round" stroke-width="6.0"/>
    <path d="M5.7 -26.65 Q8.05 -25.6 10.05 -23.65 14.15 -19.5 14.2 -13.65 14.15 -7.8 10.05 -3.65 7.3 -0.9 0.0 0.0 -7.25 0.95 -10.0 3.7 -14.15 7.85 -14.15 13.7 -14.15 19.55 -10.0 23.7 -8.1 25.6 -5.85 26.65 L0.0 27.2 6.05 26.6 Q13.5 25.0 19.3 19.25 27.25 11.25 27.25 0.0 27.25 -11.25 19.3 -19.2 13.4 -25.1 5.7 -26.65 L0.0 -27.2 -5.7 -26.65 Q-13.4 -25.1 -19.25 -19.2 -27.25 -11.25 -27.25 0.0 -27.25 11.25 -19.25 19.25 -13.45 25.05 -5.85 26.65" fill="none" stroke="#666666" stroke-linecap="round" stroke-linejoin="round" stroke-width="3.0"/>
  </g>
</svg>
