<?xml version="1.0" encoding="UTF-8" standalone="no"?>
<svg xmlns:ffdec="https://www.free-decompiler.com/flash" xmlns:xlink="http://www.w3.org/1999/xlink" ffdec:objectType="shape" height="35.1px" width="7.9px" xmlns="http://www.w3.org/2000/svg">
  <g transform="matrix(1.0, 0.0, 0.0, 1.0, 3.95, 17.55)">
    <path d="M3.2 -13.6 Q3.2 -12.25 2.25 -11.35 1.35 -10.4 0.0 -10.4 -1.35 -10.4 -2.3 -11.35 -3.2 -12.25 -3.2 -13.6 -3.2 -14.95 -2.3 -15.9 -1.35 -16.8 0.0 -16.8 1.35 -16.8 2.25 -15.9 3.2 -14.95 3.2 -13.6 M2.25 11.3 Q3.2 12.25 3.2 13.6 3.2 14.95 2.25 15.85 1.35 16.8 0.0 16.8 -1.35 16.8 -2.3 15.85 -3.2 14.95 -3.2 13.6 -3.2 12.25 -2.3 11.3 -1.35 10.4 0.0 10.4 1.35 10.4 2.25 11.3" fill="#cccccc" fill-rule="evenodd" stroke="none"/>
    <path d="M3.2 -13.6 Q3.2 -12.25 2.25 -11.35 1.35 -10.4 0.0 -10.4 -1.35 -10.4 -2.3 -11.35 -3.2 -12.25 -3.2 -13.6 -3.2 -14.95 -2.3 -15.9 -1.35 -16.8 0.0 -16.8 1.35 -16.8 2.25 -15.9 3.2 -14.95 3.2 -13.6 M2.25 11.3 Q3.2 12.25 3.2 13.6 3.2 14.95 2.25 15.85 1.35 16.8 0.0 16.8 -1.35 16.8 -2.3 15.85 -3.2 14.95 -3.2 13.6 -3.2 12.25 -2.3 11.3 -1.35 10.4 0.0 10.4 1.35 10.4 2.25 11.3 Z" fill="none" stroke="#000000" stroke-linecap="round" stroke-linejoin="round" stroke-width="1.5"/>
  </g>
</svg>
