<?xml version="1.0" encoding="UTF-8" standalone="no"?>
<svg xmlns:ffdec="https://www.free-decompiler.com/flash" xmlns:xlink="http://www.w3.org/1999/xlink" ffdec:objectType="shape" height="62.0px" width="71.25px" xmlns="http://www.w3.org/2000/svg">
  <g transform="matrix(1.0, 0.0, 0.0, 1.0, 35.6, 31.0)">
    <path d="M17.35 30.0 L-17.3 30.0 -34.6 0.0 -17.3 -30.0 17.35 -30.0 34.65 0.0 17.35 30.0 M14.8 25.6 L29.55 0.0 14.8 -25.55 -14.75 -25.55 -29.5 0.0 -14.75 25.6 14.8 25.6" fill="#666666" fill-rule="evenodd" stroke="none"/>
    <path d="M17.35 30.0 L-17.3 30.0 -34.6 0.0 -17.3 -30.0 17.35 -30.0 34.65 0.0 17.35 30.0 M14.8 25.6 L-14.75 25.6 -29.5 0.0 -14.75 -25.55 14.8 -25.55 29.55 0.0 14.8 25.6 Z" fill="none" stroke="#000000" stroke-linecap="round" stroke-linejoin="round" stroke-width="2.0"/>
  </g>
</svg>
