<?xml version="1.0" encoding="UTF-8" standalone="no"?>
<svg xmlns:ffdec="https://www.free-decompiler.com/flash" xmlns:xlink="http://www.w3.org/1999/xlink" ffdec:objectType="shape" height="63.85px" width="63.85px" xmlns="http://www.w3.org/2000/svg">
  <g transform="matrix(1.0, 0.0, 0.0, 1.0, 31.9, 31.95)">
    <path d="M7.8 -28.9 L0.1 -26.85 -7.7 -28.95 -13.35 -23.35 -21.15 -21.25 -23.2 -13.55 -28.9 -7.8 -26.85 -0.15 -28.9 7.7 -23.3 13.3 -21.15 21.1 -13.5 23.2 -7.75 28.9 -0.1 26.9 7.75 28.9 13.35 23.35 21.15 21.15 23.25 13.55 28.95 7.8 26.9 0.1 28.9 -7.7 23.35 -13.35 21.2 -21.15 13.55 -23.2 7.8 -28.9 Z" fill="none" stroke="#000000" stroke-linecap="round" stroke-linejoin="round" stroke-width="6.0"/>
    <path d="M7.8 -28.9 L0.1 -26.85 -7.7 -28.95 -13.35 -23.35 -21.15 -21.25 -23.2 -13.55 -28.9 -7.8 -26.85 -0.15 -28.9 7.7 -23.3 13.3 -21.15 21.1 -13.5 23.2 -7.75 28.9 -0.1 26.9 7.75 28.9 13.35 23.35 21.15 21.15 23.25 13.55 28.95 7.8 26.9 0.1 28.9 -7.7 23.35 -13.35 21.2 -21.15 13.55 -23.2 7.8 -28.9 Z" fill="none" stroke="#666666" stroke-linecap="round" stroke-linejoin="round" stroke-width="3.0"/>
  </g>
</svg>
