<?xml version="1.0" encoding="UTF-8" standalone="no"?>
<svg xmlns:ffdec="https://www.free-decompiler.com/flash" xmlns:xlink="http://www.w3.org/1999/xlink" ffdec:objectType="shape" height="45.3px" width="45.35px" xmlns="http://www.w3.org/2000/svg">
  <g transform="matrix(1.0, 0.0, 0.0, 1.0, 22.65, 22.65)">
    <path d="M14.45 -14.4 L15.85 -9.05 19.65 -5.2 18.3 0.05 19.7 5.3 15.8 9.2 14.4 14.4 9.1 15.85 5.3 19.65 -0.05 18.3 -5.25 19.65 -9.2 15.75 -14.4 14.35 -15.85 9.05 -19.65 5.2 -18.25 -0.1 -19.65 -5.25 -15.8 -9.2 -14.4 -14.45 -9.05 -15.9 -5.2 -19.65 0.05 -18.25 5.3 -19.65 9.2 -15.8 14.45 -14.4 Z" fill="none" stroke="#000000" stroke-linecap="round" stroke-linejoin="round" stroke-width="6.0"/>
    <path d="M9.2 -15.8 L14.45 -14.4 15.85 -9.05 19.65 -5.2 18.3 0.05 19.7 5.3 15.8 9.2 14.4 14.4 9.1 15.85 5.3 19.65 -0.05 18.3 -5.25 19.65 -9.2 15.75 -14.4 14.35 -15.85 9.05 -19.65 5.2 -18.25 -0.1 -19.65 -5.25 -15.8 -9.2 -14.4 -14.45 -9.05 -15.9 -5.2 -19.65 0.05 -18.25 5.3 -19.65 9.2 -15.8 Z" fill="none" stroke="#999999" stroke-linecap="round" stroke-linejoin="round" stroke-width="3.0"/>
  </g>
</svg>
