<?xml version="1.0" encoding="UTF-8" standalone="no"?>
<svg xmlns:ffdec="https://www.free-decompiler.com/flash" xmlns:xlink="http://www.w3.org/1999/xlink" ffdec:objectType="shape" height="58.8px" width="64.65px" xmlns="http://www.w3.org/2000/svg">
  <g transform="matrix(1.0, 0.0, 0.0, 1.0, 32.25, 23.2)">
    <path d="M0.0 -6.75 Q2.8 -6.75 4.8 -4.75 6.75 -2.8 6.75 0.0 6.75 2.8 4.8 4.8 2.8 6.75 0.0 6.75 -2.8 6.75 -4.75 4.8 -6.75 2.8 -6.75 0.0 -6.75 -2.8 -4.75 -4.75 -2.8 -6.75 0.0 -6.75 M-6.95 31.75 Q-8.2 30.5 -8.9 29.0 -9.85 27.05 -9.85 24.75 -9.85 20.65 -6.95 17.8 -4.1 14.9 0.0 14.9 4.1 14.9 7.0 17.8 9.85 20.65 9.85 24.75 9.85 27.05 8.95 29.0 8.2 30.5 7.0 31.75 4.1 34.6 0.0 34.6 -4.1 34.6 -6.95 31.75 M-11.45 -12.3 Q-11.45 -8.2 -14.35 -5.3 -17.25 -2.4 -21.35 -2.4 -25.45 -2.4 -28.35 -5.3 -31.25 -8.2 -31.25 -12.3 -31.25 -16.4 -28.35 -19.3 -25.45 -22.2 -21.35 -22.2 -17.25 -22.2 -14.35 -19.3 -11.45 -16.4 -11.45 -12.3" fill="#666666" fill-rule="evenodd" stroke="none"/>
    <path d="M-11.45 -12.3 Q-11.45 -16.4 -14.35 -19.3 -17.25 -22.2 -21.35 -22.2 -25.45 -22.2 -28.35 -19.3 -31.25 -16.4 -31.25 -12.3 -31.25 -8.2 -28.35 -5.3 -25.45 -2.4 -21.35 -2.4 -17.25 -2.4 -14.35 -5.3 -11.45 -8.2 -11.45 -12.3 M-6.95 31.75 Q-4.1 34.6 0.0 34.6 4.1 34.6 7.0 31.75 8.2 30.5 8.95 29.0 9.85 27.05 9.85 24.75 9.85 20.65 7.0 17.8 4.1 14.9 0.0 14.9 -4.1 14.9 -6.95 17.8 -9.85 20.65 -9.85 24.75 -9.85 27.05 -8.9 29.0 -8.2 30.5 -6.95 31.75" fill="none" stroke="#000000" stroke-linecap="round" stroke-linejoin="round" stroke-width="2.0"/>
    <path d="M0.0 -6.75 Q-2.8 -6.75 -4.75 -4.75 -6.75 -2.8 -6.75 0.0 -6.75 2.8 -4.75 4.8 -2.8 6.75 0.0 6.75 2.8 6.75 4.8 4.8 6.75 2.8 6.75 0.0 6.75 -2.8 4.8 -4.75 2.8 -6.75 0.0 -6.75 Z" fill="none" stroke="#000000" stroke-linecap="round" stroke-linejoin="round" stroke-width="2.0"/>
    <path d="M14.5 -19.3 Q17.4 -22.2 21.5 -22.2 25.6 -22.2 28.5 -19.3 31.4 -16.4 31.4 -12.3 31.4 -8.2 28.5 -5.3 25.6 -2.4 21.5 -2.4 17.4 -2.4 14.5 -5.3 11.6 -8.2 11.6 -12.3 11.6 -16.4 14.5 -19.3" fill="#666666" fill-rule="evenodd" stroke="none"/>
    <path d="M14.5 -19.3 Q11.6 -16.4 11.6 -12.3 11.6 -8.2 14.5 -5.3 17.4 -2.4 21.5 -2.4 25.6 -2.4 28.5 -5.3 31.4 -8.2 31.4 -12.3 31.4 -16.4 28.5 -19.3 25.6 -22.2 21.5 -22.2 17.4 -22.2 14.5 -19.3 Z" fill="none" stroke="#000000" stroke-linecap="round" stroke-linejoin="round" stroke-width="2.0"/>
  </g>
</svg>
