<?xml version="1.0" encoding="UTF-8" standalone="no"?>
<svg xmlns:ffdec="https://www.free-decompiler.com/flash" xmlns:xlink="http://www.w3.org/1999/xlink" ffdec:objectType="shape" height="59.0px" width="64.65px" xmlns="http://www.w3.org/2000/svg">
  <g transform="matrix(1.0, 0.0, 0.0, 1.0, 32.25, 35.65)">
    <path d="M28.5 19.45 Q25.6 22.35 21.5 22.35 17.4 22.35 14.5 19.45 11.6 16.55 11.6 12.45 11.6 8.35 14.5 5.45 17.4 2.55 21.5 2.55 25.6 2.55 28.5 5.45 31.4 8.35 31.4 12.45 31.4 16.55 28.5 19.45 M-11.45 12.45 Q-11.45 16.55 -14.35 19.45 -17.25 22.35 -21.35 22.35 -25.45 22.35 -28.35 19.45 -31.25 16.55 -31.25 12.45 -31.25 8.35 -28.35 5.45 -25.45 2.55 -21.35 2.55 -17.25 2.55 -14.35 5.45 -11.45 8.35 -11.45 12.45 M0.0 -34.65 Q4.1 -34.65 7.0 -31.75 9.85 -28.85 9.85 -24.75 9.85 -20.65 7.0 -17.75 4.1 -14.85 0.0 -14.85 -4.1 -14.85 -6.95 -17.75 -9.85 -20.65 -9.85 -24.75 -9.85 -28.85 -6.95 -31.75 -4.1 -34.65 0.0 -34.65" fill="#cccccc" fill-rule="evenodd" stroke="none"/>
    <path d="M0.0 -34.65 Q-4.1 -34.65 -6.95 -31.75 -9.85 -28.85 -9.85 -24.75 -9.85 -20.65 -6.95 -17.75 -4.1 -14.85 0.0 -14.85 4.1 -14.85 7.0 -17.75 9.85 -20.65 9.85 -24.75 9.85 -28.85 7.0 -31.75 4.1 -34.65 0.0 -34.65 M-11.45 12.45 Q-11.45 8.35 -14.35 5.45 -17.25 2.55 -21.35 2.55 -25.45 2.55 -28.35 5.45 -31.25 8.35 -31.25 12.45 -31.25 16.55 -28.35 19.45 -25.45 22.35 -21.35 22.35 -17.25 22.35 -14.35 19.45 -11.45 16.55 -11.45 12.45 M28.5 19.45 Q31.4 16.55 31.4 12.45 31.4 8.35 28.5 5.45 25.6 2.55 21.5 2.55 17.4 2.55 14.5 5.45 11.6 8.35 11.6 12.45 11.6 16.55 14.5 19.45 17.4 22.35 21.5 22.35 25.6 22.35 28.5 19.45 Z" fill="none" stroke="#000000" stroke-linecap="round" stroke-linejoin="round" stroke-width="2.0"/>
  </g>
</svg>
