<?xml version="1.0" encoding="UTF-8" standalone="no"?>
<svg xmlns:ffdec="https://www.free-decompiler.com/flash" xmlns:xlink="http://www.w3.org/1999/xlink" ffdec:objectType="shape" height="58.95px" width="59.05px" xmlns="http://www.w3.org/2000/svg">
  <g transform="matrix(1.0, 0.0, 0.0, 1.0, 29.55, 29.5)">
    <path d="M0.0 -26.25 L0.0 -28.0 M18.55 -18.55 L19.8 -19.8 M24.2 -10.05 L25.85 -10.7 M10.0 -24.25 L10.7 -25.9 M26.25 0.0 L28.0 0.0 M24.2 10.05 L25.8 10.7 M18.45 18.4 L19.75 19.75 M0.0 27.95 L0.0 26.25 M9.95 24.05 L10.65 25.8 M-26.0 -10.75 L-24.35 -10.05 M-18.65 -18.65 L-19.8 -19.8 M-10.15 -24.35 L-10.75 -25.85 M-10.75 25.85 L-10.05 24.25 M-28.05 0.0 L-26.3 0.0 M-24.35 10.1 L-25.95 10.7 M-18.6 18.6 L-19.8 19.8" fill="none" stroke="#666666" stroke-linecap="round" stroke-linejoin="round" stroke-width="3.0"/>
  </g>
</svg>
