<?xml version="1.0" encoding="UTF-8" standalone="no"?>
<svg xmlns:ffdec="https://www.free-decompiler.com/flash" xmlns:xlink="http://www.w3.org/1999/xlink" ffdec:objectType="shape" height="40.35px" width="40.3px" xmlns="http://www.w3.org/2000/svg">
  <g transform="matrix(1.0, 0.0, 0.0, 1.0, 20.2, 20.2)">
    <path d="M6.6 -16.05 L7.05 -17.15 M16.05 -6.65 L17.1 -7.1 M6.6 16.05 L7.05 17.1 M16.0 6.65 L17.1 7.1 M-17.2 -7.1 L-16.15 -6.65 M-6.7 -16.1 L-7.15 -17.2 M-16.15 6.7 L-17.2 7.1 M-7.15 17.15 L-6.7 16.15" fill="none" stroke="#000000" stroke-linecap="round" stroke-linejoin="round" stroke-width="6.0"/>
    <path d="M6.6 -16.05 L7.05 -17.15 M16.05 -6.65 L17.1 -7.1 M6.6 16.05 L7.05 17.1 M16.0 6.65 L17.1 7.1 M-6.7 -16.1 L-7.15 -17.2 M-17.2 -7.1 L-16.15 -6.65 M-16.15 6.7 L-17.2 7.1 M-7.15 17.15 L-6.7 16.15" fill="none" stroke="#cccccc" stroke-linecap="round" stroke-linejoin="round" stroke-width="3.0"/>
  </g>
</svg>
