<?xml version="1.0" encoding="UTF-8" standalone="no"?>
<svg xmlns:ffdec="https://www.free-decompiler.com/flash" xmlns:xlink="http://www.w3.org/1999/xlink" ffdec:objectType="shape" height="54.65px" width="16.35px" xmlns="http://www.w3.org/2000/svg">
  <g transform="matrix(1.0, 0.0, 0.0, 1.0, 9.4, 26.05)">
    <path d="M-0.05 -19.3 L-0.8 -19.6 Q-1.85 -20.2 -2.15 -21.35 -2.5 -22.55 -1.85 -23.55 -1.3 -24.6 -0.1 -24.9 L2.1 -24.65 Q3.15 -24.05 3.45 -22.85 L3.55 -21.85 4.8 -21.5 Q5.65 -21.05 5.9 -20.1 6.1 -19.2 5.65 -18.35 5.15 -17.5 4.25 -17.25 3.3 -17.0 2.45 -17.5 L2.5 -19.85 2.45 -17.5 1.65 19.65 Q2.65 19.6 3.65 20.15 5.0 20.95 5.45 22.6 5.9 24.15 5.1 25.6 4.25 27.0 2.65 27.45 1.05 27.85 -0.35 27.05 -1.8 26.2 -2.2 24.65 L-2.35 24.05 -2.45 24.05 Q-4.35 24.55 -6.0 23.6 -7.7 22.6 -8.2 20.75 -8.75 18.85 -7.7 17.2 -6.8 15.5 -4.9 15.0 L-2.55 14.95 -1.3 15.45 Q0.35 16.4 0.85 18.3 L1.05 19.7 Q1.0 20.8 0.45 21.9 L-0.2 22.7 0.45 21.9 Q1.0 20.8 1.05 19.7 L0.85 18.3 Q0.35 16.4 -1.3 15.45 L-2.55 14.95 -0.05 -19.3 0.0 -20.6 -0.05 -19.3 M3.25 -20.8 L3.55 -21.85 3.25 -20.8" fill="#666666" fill-rule="evenodd" stroke="none"/>
    <path d="M3.55 -21.85 L3.45 -22.85 Q3.15 -24.05 2.1 -24.65 L-0.1 -24.9 Q-1.3 -24.6 -1.85 -23.55 -2.5 -22.55 -2.15 -21.35 -1.85 -20.2 -0.8 -19.6 L-0.05 -19.3 0.0 -20.6 M2.45 -17.5 Q3.3 -17.0 4.25 -17.25 5.15 -17.5 5.65 -18.35 6.1 -19.2 5.9 -20.1 5.65 -21.05 4.8 -21.5 L3.55 -21.85 3.25 -20.8 M2.45 -17.5 L2.5 -19.85 M-2.55 14.95 L-1.3 15.45 Q0.35 16.4 0.85 18.3 L1.05 19.7 Q1.0 20.8 0.45 21.9 L-0.2 22.7 M-2.55 14.95 L-4.9 15.0 Q-6.8 15.5 -7.7 17.2 -8.75 18.85 -8.2 20.75 -7.7 22.6 -6.0 23.6 -4.35 24.55 -2.45 24.05 L-2.35 24.05 -2.2 24.65 Q-1.8 26.2 -0.35 27.05 1.05 27.85 2.65 27.45 4.25 27.0 5.1 25.6 5.9 24.15 5.45 22.6 5.0 20.95 3.65 20.15 2.65 19.6 1.65 19.65 L2.45 -17.5 M-0.05 -19.3 L-2.55 14.95" fill="none" stroke="#000000" stroke-linecap="round" stroke-linejoin="round" stroke-width="2.0"/>
  </g>
</svg>
