<?xml version="1.0" encoding="UTF-8" standalone="no"?>
<svg xmlns:ffdec="https://www.free-decompiler.com/flash" xmlns:xlink="http://www.w3.org/1999/xlink" ffdec:objectType="shape" height="51.05px" width="31.95px" xmlns="http://www.w3.org/2000/svg">
  <g transform="matrix(1.0, 0.0, 0.0, 1.0, 15.95, 28.7)">
    <path d="M9.4 -2.4 Q11.3 -6.1 10.2 -9.55 6.05 -10.25 3.75 -7.25 2.35 -5.45 1.0 -6.25 1.95 0.05 9.4 -2.4 M13.6 -20.6 Q16.25 -15.0 13.8 -3.45 15.15 -1.05 11.65 2.4 L10.85 13.9 2.7 20.85 0.0 21.35 -2.65 20.85 -10.85 13.9 -11.6 2.4 Q-15.15 -1.05 -13.75 -3.45 -16.25 -15.0 -13.6 -20.6 -10.35 -27.45 0.0 -27.7 10.35 -27.45 13.6 -20.6 M7.95 11.5 L8.95 6.35 Q7.7 5.65 6.15 6.85 4.75 6.15 3.4 7.2 L-2.7 7.25 Q-3.9 6.0 -5.7 6.9 -7.05 5.45 -8.75 6.35 L-7.8 11.5 Q-6.55 13.65 -5.4 13.5 -3.95 15.05 -2.7 14.65 -1.4 15.8 -0.6 15.4 L0.25 15.0 3.3 14.5 Q4.85 15.25 6.05 13.2 7.15 13.35 7.95 11.5 M-10.1 -9.55 Q-11.25 -6.1 -9.35 -2.4 -1.9 0.05 -1.25 -6.45 -2.25 -5.45 -3.65 -7.25 -5.95 -10.25 -10.1 -9.55" fill="#cccccc" fill-rule="evenodd" stroke="none"/>
    <path d="M13.6 -20.6 Q10.35 -27.45 0.0 -27.7 -10.35 -27.45 -13.6 -20.6 -16.25 -15.0 -13.75 -3.45 -15.15 -1.05 -11.6 2.4 L-10.85 13.9 -2.65 20.85 0.0 21.35 2.7 20.85 10.85 13.9 11.65 2.4 Q15.15 -1.05 13.8 -3.45 16.25 -15.0 13.6 -20.6" fill="none" stroke="#000000" stroke-linecap="round" stroke-linejoin="round" stroke-width="2.0"/>
    <path d="M9.4 -2.4 Q11.3 -6.1 10.2 -9.55 6.05 -10.25 3.75 -7.25 2.35 -5.45 1.0 -6.25 1.95 0.05 9.4 -2.4 M-10.1 -9.55 Q-11.25 -6.1 -9.35 -2.4 -1.9 0.05 -1.25 -6.45 -2.25 -5.45 -3.65 -7.25 -5.95 -10.25 -10.1 -9.55 Z" fill="none" stroke="#000000" stroke-linecap="round" stroke-linejoin="round" stroke-width="1.0"/>
    <path d="M8.95 6.45 L7.95 11.6 Q7.15 13.45 6.05 13.3 4.85 15.35 3.3 14.6 L0.25 15.1 -0.6 15.5 Q-1.4 15.9 -2.7 14.75 -3.95 15.15 -5.4 13.6 -6.55 13.75 -7.8 11.6 L-8.75 6.45 Q-7.05 5.55 -5.7 7.0 -3.9 6.1 -2.7 7.35 L3.4 7.3 Q4.75 6.25 6.15 6.95 7.7 5.75 8.95 6.45" fill="none" stroke="#000000" stroke-linecap="round" stroke-linejoin="round" stroke-width="1.0"/>
    <path d="M1.3 3.7 L0.8 0.3 M-1.3 3.7 L-0.75 0.3" fill="none" stroke="#000000" stroke-linecap="round" stroke-linejoin="round" stroke-width="1.5"/>
  </g>
</svg>
