<?xml version="1.0" encoding="UTF-8" standalone="no"?>
<svg xmlns:ffdec="https://www.free-decompiler.com/flash" xmlns:xlink="http://www.w3.org/1999/xlink" ffdec:objectType="shape" height="52.8px" width="56.5px" xmlns="http://www.w3.org/2000/svg">
  <g transform="matrix(1.0, 0.0, 0.0, 1.0, 28.25, 24.6)">
    <path d="M5.1 -5.1 L3.7 -6.25 13.7 -23.6 Q16.65 -21.85 19.3 -19.2 27.25 -11.25 27.25 0.0 L7.25 0.0 Q7.2 -3.0 5.1 -5.1 M3.65 6.25 L13.65 23.65 Q7.55 27.2 0.0 27.2 -7.55 27.2 -13.6 23.65 L-3.55 6.3 Q-2.0 7.2 0.0 7.25 2.0 7.2 3.65 6.25 M-3.6 -6.25 L-5.1 -5.1 Q-7.2 -3.0 -7.2 0.0 L-27.25 0.0 Q-27.25 -11.25 -19.25 -19.2 -16.65 -21.85 -13.6 -23.6 L-3.6 -6.25" fill="#666666" fill-rule="evenodd" stroke="none"/>
    <path d="M5.1 -5.1 Q7.2 -3.0 7.25 0.0 L27.25 0.0 Q27.25 -11.25 19.3 -19.2 16.65 -21.85 13.7 -23.6 L3.7 -6.25 5.1 -5.1 M3.65 6.25 L13.65 23.65 Q7.55 27.2 0.0 27.2 -7.55 27.2 -13.6 23.65 L-3.55 6.3 Q-2.0 7.2 0.0 7.25 2.0 7.2 3.65 6.25 M-3.6 -6.25 L-5.1 -5.1 Q-7.2 -3.0 -7.2 0.0 L-27.25 0.0 Q-27.25 -11.25 -19.25 -19.2 -16.65 -21.85 -13.6 -23.6 L-3.6 -6.25 Z" fill="none" stroke="#000000" stroke-linecap="round" stroke-linejoin="round" stroke-width="2.0"/>
  </g>
</svg>
