<?xml version="1.0" encoding="UTF-8" standalone="no"?>
<svg xmlns:ffdec="https://www.free-decompiler.com/flash" xmlns:xlink="http://www.w3.org/1999/xlink" ffdec:objectType="shape" height="9.9px" width="10.0px" xmlns="http://www.w3.org/2000/svg">
  <g transform="matrix(1.0, 0.0, 0.0, 1.0, 5.0, 4.95)">
    <path d="M2.85 -2.8 Q4.0 -1.65 4.0 0.0 4.0 1.65 2.85 2.8 1.65 3.95 0.0 3.95 -1.65 3.95 -2.8 2.8 -4.0 1.65 -4.0 0.0 -4.0 -1.65 -2.8 -2.8 -1.65 -3.95 0.0 -3.95 1.65 -3.95 2.85 -2.8 M0.05 0.05 L0.1 0.0 0.05 0.0 0.05 0.05" fill="#cccccc" fill-rule="evenodd" stroke="none"/>
    <path d="M2.85 -2.8 Q4.0 -1.65 4.0 0.0 4.0 1.65 2.85 2.8 1.65 3.95 0.0 3.95 -1.65 3.95 -2.8 2.8 -4.0 1.65 -4.0 0.0 -4.0 -1.65 -2.8 -2.8 -1.65 -3.95 0.0 -3.95 1.65 -3.95 2.85 -2.8 Z" fill="none" stroke="#000000" stroke-linecap="round" stroke-linejoin="round" stroke-width="2.0"/>
  </g>
</svg>
