<?xml version="1.0" encoding="UTF-8" standalone="no"?>
<svg xmlns:ffdec="https://www.free-decompiler.com/flash" xmlns:xlink="http://www.w3.org/1999/xlink" ffdec:objectType="shape" height="52.8px" width="52.8px" xmlns="http://www.w3.org/2000/svg">
  <g transform="matrix(1.0, 0.0, 0.0, 1.0, 26.4, 26.4)">
    <path d="M16.9 -5.05 Q21.0 -8.0 19.85 -13.2 M8.35 -15.55 Q9.2 -20.55 4.75 -23.4 M15.55 8.4 Q20.55 9.2 23.4 4.75 M5.1 16.9 Q8.0 21.0 13.25 19.85 M-15.55 -8.35 Q-20.55 -9.2 -23.4 -4.7 M-5.05 -16.9 Q-8.0 -21.0 -13.2 -19.85 M-16.9 5.1 Q-21.0 8.0 -19.85 13.25 M-8.35 15.55 Q-9.2 20.55 -4.7 23.4" fill="none" stroke="#000000" stroke-linecap="round" stroke-linejoin="round" stroke-width="6.0"/>
    <path d="M16.9 -5.05 Q21.0 -8.0 19.85 -13.2 M8.35 -15.55 Q9.2 -20.55 4.75 -23.4 M15.55 8.4 Q20.55 9.2 23.4 4.75 M5.1 16.9 Q8.0 21.0 13.25 19.85 M-15.55 -8.35 Q-20.55 -9.2 -23.4 -4.7 M-5.05 -16.9 Q-7.5 -20.3 -11.5 -20.1 L-13.2 -19.85 M-16.9 5.1 Q-21.0 8.0 -19.85 13.25 M-8.35 15.55 Q-9.2 20.55 -4.7 23.4" fill="none" stroke="#cccccc" stroke-linecap="round" stroke-linejoin="round" stroke-width="3.0"/>
  </g>
</svg>
