<?xml version="1.0" encoding="UTF-8" standalone="no"?>
<svg xmlns:ffdec="https://www.free-decompiler.com/flash" xmlns:xlink="http://www.w3.org/1999/xlink" ffdec:objectType="shape" height="75.45px" width="75.45px" xmlns="http://www.w3.org/2000/svg">
  <g transform="matrix(1.0, 0.0, 0.0, 1.0, 37.7, 37.7)">
    <path d="M17.6 -21.55 Q21.6 -24.1 25.65 -23.4 M21.6 17.6 Q24.05 21.5 23.45 25.5 M27.7 -2.8 Q32.35 -1.75 34.75 1.6 M-21.55 -17.6 Q-24.15 -21.7 -23.4 -25.75 M-2.8 -27.65 Q-2.25 -30.15 -1.05 -31.95 0.05 -33.6 1.65 -34.7 M-17.6 21.6 Q-21.6 24.1 -25.6 23.45 M-27.65 2.8 Q-32.3 1.75 -34.7 -1.6 M2.8 27.7 Q1.75 32.35 -1.6 34.75" fill="none" stroke="#000000" stroke-linecap="round" stroke-linejoin="round" stroke-width="6.0"/>
    <path d="M17.6 -21.55 Q21.6 -24.1 25.65 -23.4 M21.6 17.6 Q24.05 21.5 23.45 25.5 M27.7 -2.8 Q32.35 -1.75 34.75 1.6 M-21.55 -17.6 Q-24.15 -21.7 -23.4 -25.75 M-2.8 -27.65 Q-2.25 -30.15 -1.05 -31.95 0.05 -33.6 1.65 -34.7 M-17.6 21.6 Q-21.6 24.1 -25.6 23.45 M-27.65 2.8 Q-32.3 1.75 -34.7 -1.6 M2.8 27.7 Q1.75 32.35 -1.6 34.75" fill="none" stroke="#666666" stroke-linecap="round" stroke-linejoin="round" stroke-width="3.0"/>
  </g>
</svg>
