<?xml version="1.0" encoding="UTF-8" standalone="no"?>
<svg xmlns:ffdec="https://www.free-decompiler.com/flash" xmlns:xlink="http://www.w3.org/1999/xlink" ffdec:objectType="shape" height="70.0px" width="70.0px" xmlns="http://www.w3.org/2000/svg">
  <g transform="matrix(1.0, 0.0, 0.0, 1.0, 35.0, 35.0)">
    <path d="M31.0 -8.3 Q31.95 -4.35 32.0 0.0 31.95 4.3 31.0 8.25 M-31.0 8.3 Q-32.0 4.35 -32.0 0.0 -32.0 -4.4 -31.0 -8.4 M-8.3 -31.0 Q-4.4 -32.05 0.0 -32.0 4.35 -32.05 8.3 -31.0 M8.3 30.95 Q4.35 31.95 0.0 32.0 L-8.25 31.0" fill="none" stroke="#000000" stroke-linecap="round" stroke-linejoin="round" stroke-width="6.0"/>
    <path d="M31.0 -8.3 Q31.95 -4.35 32.0 0.0 31.95 4.3 31.0 8.25 M-31.0 8.3 Q-32.0 4.35 -32.0 0.0 -32.0 -4.4 -31.0 -8.4 M-8.3 -31.0 Q-4.4 -32.05 0.0 -32.0 4.35 -32.05 8.3 -31.0 M8.3 30.95 Q4.35 31.95 0.0 32.0 L-8.25 31.0" fill="none" stroke="#666666" stroke-linecap="round" stroke-linejoin="round" stroke-width="3.0"/>
  </g>
</svg>
