<?xml version="1.0" encoding="UTF-8" standalone="no"?>
<svg xmlns:ffdec="https://www.free-decompiler.com/flash" xmlns:xlink="http://www.w3.org/1999/xlink" ffdec:objectType="shape" height="54.0px" width="54.0px" xmlns="http://www.w3.org/2000/svg">
  <g transform="matrix(1.0, 0.0, 0.0, 1.0, 27.0, 27.0)">
    <path d="M23.25 -6.25 Q24.0 -3.3 24.0 0.0 24.0 3.2 23.25 6.1 M-23.25 6.2 Q-24.0 3.25 -24.0 0.0 -24.0 -3.35 -23.25 -6.35 M-6.2 -23.25 L0.0 -24.0 6.25 -23.25 M6.25 23.2 L0.0 24.0 -6.2 23.2" fill="none" stroke="#000000" stroke-linecap="round" stroke-linejoin="round" stroke-width="6.0"/>
    <path d="M23.25 -6.25 Q24.0 -3.3 24.0 0.0 24.0 3.2 23.25 6.1 M-23.25 6.2 Q-24.0 3.25 -24.0 0.0 -24.0 -3.35 -23.25 -6.35 M-6.2 -23.25 L0.0 -24.0 6.25 -23.25 M6.25 23.2 L0.0 24.0 -6.2 23.2" fill="none" stroke="#cccccc" stroke-linecap="round" stroke-linejoin="round" stroke-width="3.0"/>
  </g>
</svg>
