<?xml version="1.0" encoding="UTF-8" standalone="no"?>
<svg xmlns:ffdec="https://www.free-decompiler.com/flash" xmlns:xlink="http://www.w3.org/1999/xlink" ffdec:objectType="shape" height="59.6px" width="60.65px" xmlns="http://www.w3.org/2000/svg">
  <g transform="matrix(1.0, 0.0, 0.0, 1.0, 30.4, 29.85)">
    <path d="M14.95 -9.0 Q16.05 -5.6 18.8 -3.45 11.9 -4.8 10.4 -10.85 6.1 -28.5 22.1 -29.85 9.7 -24.75 14.95 -9.0 M-26.35 -17.25 Q-12.95 -10.1 -4.0 -20.1 -7.65 -6.05 -23.2 -11.2 -30.6 -13.65 -30.4 -22.95 -29.5 -18.9 -26.35 -17.25" fill="#6b6b6b" fill-rule="evenodd" stroke="none"/>
    <path d="M30.05 22.5 L30.05 22.65 Q24.95 10.3 9.2 15.5 5.75 16.65 3.65 19.5 4.85 13.25 9.95 11.55 24.9 6.45 30.2 18.75 30.3 20.8 30.05 22.5 M-21.8 29.75 Q-13.5 26.9 -13.45 14.25 -14.2 6.4 -19.55 3.1 L-19.6 3.0 -19.45 3.0 Q-11.45 4.75 -9.1 12.15 -7.9 28.45 -21.8 29.75" fill="#6c6c6c" fill-rule="evenodd" stroke="none"/>
  </g>
</svg>
