<?xml version="1.0" encoding="UTF-8" standalone="no"?>
<svg xmlns:ffdec="https://www.free-decompiler.com/flash" xmlns:xlink="http://www.w3.org/1999/xlink" ffdec:objectType="shape" height="64.5px" width="66.2px" xmlns="http://www.w3.org/2000/svg">
  <g transform="matrix(1.0, 0.0, 0.0, 1.0, 33.0, 32.6)">
    <path d="M22.1 -29.8 Q6.1 -28.45 10.4 -10.8 11.9 -4.75 18.8 -3.4 L18.95 -3.4 Q31.45 -1.25 33.2 11.6 33.45 19.05 30.05 22.8 L30.05 22.55 Q30.3 20.85 30.2 18.8 24.9 6.5 9.95 11.6 4.85 13.3 3.65 19.55 -0.35 34.7 -18.15 31.25 -20.2 30.85 -22.0 29.9 L-22.0 29.85 -21.8 29.8 Q-7.9 28.5 -9.1 12.2 -11.45 4.8 -19.45 3.05 L-19.6 3.05 Q-35.4 -0.15 -32.55 -18.05 -32.05 -21.3 -30.4 -22.9 -30.6 -13.6 -23.2 -11.15 -7.65 -6.0 -4.0 -20.05 -2.9 -24.05 -0.45 -26.7 8.5 -36.45 22.1 -30.1 L22.1 -29.8 M7.05 0.15 Q7.05 -2.8 5.0 -4.9 2.9 -6.95 -0.05 -6.95 -3.0 -6.95 -5.1 -4.9 -7.15 -2.8 -7.15 0.15 -7.15 3.1 -5.1 5.2 -3.0 7.3 -0.05 7.3 2.9 7.3 5.0 5.2 7.05 3.1 7.05 0.15" fill="#010101" fill-rule="evenodd" stroke="none"/>
    <path d="M7.05 0.15 Q7.05 -2.8 5.0 -4.9 2.9 -6.95 -0.05 -6.95 -3.0 -6.95 -5.1 -4.9 -7.15 -2.8 -7.15 0.15 -7.15 3.1 -5.1 5.2 -3.0 7.3 -0.05 7.3 2.9 7.3 5.0 5.2 7.05 3.1 7.05 0.15 Z" fill="none" stroke="#666666" stroke-linecap="round" stroke-linejoin="round" stroke-width="1.0"/>
  </g>
</svg>
