<?xml version="1.0" encoding="UTF-8" standalone="no"?>
<svg xmlns:ffdec="https://www.free-decompiler.com/flash" xmlns:xlink="http://www.w3.org/1999/xlink" ffdec:objectType="shape" height="73.7px" width="73.85px" xmlns="http://www.w3.org/2000/svg">
  <g transform="matrix(1.0, 0.0, 0.0, 1.0, 36.3, 37.55)">
    <path d="M21.4 -31.0 L21.55 -30.8 21.6 -30.55 Q21.5 -29.7 21.2 -29.3 20.75 -28.8 20.05 -29.0 L19.85 -29.15 19.8 -29.2 19.65 -29.55 19.8 -29.9 20.65 -30.9 20.85 -31.05 21.05 -31.1 21.1 -31.1 21.4 -31.0 M23.7 -29.25 L24.0 -29.15 24.2 -28.9 24.2 -28.6 Q23.7 -26.75 22.5 -27.1 L22.25 -27.25 22.1 -27.6 22.1 -27.7 22.25 -28.0 23.2 -28.95 Q23.3 -29.25 23.7 -29.25 M28.25 -24.8 L28.55 -24.7 28.75 -24.4 28.75 -24.1 Q28.1 -22.65 26.8 -22.75 26.6 -22.75 26.45 -22.9 L26.3 -23.25 26.45 -23.6 Q27.05 -24.25 27.9 -24.7 L28.15 -24.8 28.25 -24.8 M30.5 -21.65 Q30.05 -20.1 28.55 -20.4 L28.3 -20.55 28.15 -20.9 28.15 -20.95 28.2 -21.15 28.35 -21.35 29.75 -22.25 30.1 -22.35 30.4 -22.15 30.5 -21.85 30.5 -21.8 30.5 -21.65 M13.15 33.65 L12.85 33.8 12.5 33.7 Q11.65 32.95 11.45 31.75 L11.45 31.65 11.45 31.55 11.55 31.25 Q11.65 31.1 11.85 31.1 L12.2 31.1 Q13.3 31.6 13.3 33.2 L13.3 33.3 13.15 33.65 M24.2 27.15 L24.1 27.5 23.8 27.65 23.5 27.6 Q22.4 27.05 22.0 25.8 L21.95 25.65 21.95 25.55 22.1 25.25 22.35 25.05 22.7 25.15 Q23.75 25.7 24.2 26.85 L24.2 27.0 24.2 27.15 M-12.55 -34.6 L-12.45 -34.9 -12.15 -35.05 -11.85 -35.05 Q-10.6 -34.55 -11.1 -33.05 L-11.3 -32.85 -11.6 -32.75 -11.65 -32.75 -11.9 -32.8 -12.1 -33.0 -12.55 -34.4 -12.55 -34.5 -12.55 -34.6 M-13.9 -31.85 L-14.15 -31.6 -14.45 -31.55 -14.75 -31.7 -14.85 -31.9 -15.45 -33.0 -15.55 -33.35 -15.45 -33.65 -15.2 -33.8 -14.9 -33.8 Q-14.15 -33.6 -13.95 -33.1 -13.65 -32.6 -13.9 -31.85 M-29.35 -21.9 L-29.05 -21.9 Q-27.95 -21.55 -27.45 -20.6 L-27.4 -20.3 -27.55 -20.0 -27.9 -19.9 -27.95 -19.9 -28.05 -19.9 Q-29.0 -20.1 -29.55 -21.1 L-29.7 -21.4 -29.6 -21.7 -29.35 -21.9 M-25.45 21.05 L-25.5 21.35 Q-26.2 23.0 -27.4 22.65 L-27.7 22.45 -27.8 22.15 -27.8 22.1 -27.65 21.75 -26.2 20.7 -26.0 20.65 -25.95 20.65 -25.65 20.75 -25.45 21.05 M-20.9 28.3 L-20.75 28.0 -19.85 27.05 Q-19.75 26.75 -19.35 26.75 L-19.05 26.85 -18.9 27.05 -18.85 27.35 Q-19.0 28.2 -19.3 28.55 -19.75 29.0 -20.4 28.85 -20.9 28.8 -20.9 28.3 M-2.95 33.7 L-2.7 33.55 -2.25 33.65 -2.05 34.05 -2.5 35.05 -2.75 35.25 -3.1 35.25 -3.35 35.05 -3.45 34.75 -3.45 34.35 -3.3 34.0 -2.95 33.7" fill="#575757" fill-rule="evenodd" stroke="none"/>
    <path d="M24.3 -25.8 L24.45 -25.95 25.65 -27.0 26.05 -27.15 26.35 -27.05 26.55 -26.8 26.55 -26.5 Q26.0 -24.7 24.8 -25.0 24.25 -24.9 24.25 -25.6 L24.3 -25.8 M7.1 -36.65 Q7.35 -35.8 7.2 -35.35 7.0 -34.65 6.25 -34.6 L5.95 -34.65 5.75 -34.85 5.7 -35.1 Q5.75 -35.95 6.1 -36.5 L6.25 -36.8 6.55 -37.0 6.9 -36.9 7.1 -36.65 M37.0 3.0 L34.5 2.85 34.3 2.65 34.25 2.4 34.25 2.35 34.4 2.0 Q34.5 1.85 34.7 1.85 L36.75 2.05 37.05 2.15 37.25 2.45 37.2 2.75 37.0 3.0 M33.65 7.85 Q34.7 7.75 35.6 8.3 36.0 8.4 36.0 8.85 L35.9 9.2 35.6 9.35 Q34.45 9.55 33.4 8.8 L33.25 8.65 33.2 8.4 33.2 8.35 Q33.2 8.15 33.35 8.05 33.45 7.9 33.65 7.85 M24.2 24.05 L24.05 23.8 24.1 23.5 24.3 23.3 24.6 23.2 Q25.85 23.25 26.5 24.65 L26.55 24.85 26.55 24.9 26.45 25.2 26.2 25.4 25.9 25.4 Q25.05 25.05 24.25 24.1 L24.2 24.05 M26.75 20.95 Q27.85 21.1 28.55 22.25 L28.75 22.7 28.65 23.0 28.4 23.2 28.1 23.2 Q26.95 22.8 26.35 21.9 L26.15 21.45 26.25 21.2 26.45 21.0 26.75 20.95 M14.45 30.1 Q14.55 29.95 14.75 29.9 L15.1 30.0 Q16.0 30.55 16.25 32.05 L16.25 32.1 16.25 32.15 16.15 32.5 15.85 32.65 15.5 32.6 Q14.5 32.0 14.3 30.6 L14.3 30.5 14.3 30.4 Q14.3 30.2 14.45 30.1 M10.25 34.25 L10.1 34.6 9.75 34.75 Q9.55 34.75 9.4 34.6 8.7 33.95 8.6 32.65 L8.6 32.6 8.6 32.5 8.7 32.2 Q8.8 32.05 9.0 32.05 L9.3 32.05 Q10.45 32.45 10.25 34.2 L10.25 34.25 M-8.1 -34.1 L-8.1 -34.05 -8.2 -33.75 -8.4 -33.55 -8.7 -33.55 Q-8.9 -33.6 -8.95 -33.7 -9.5 -34.4 -9.65 -35.4 L-9.65 -35.45 -9.65 -35.55 -9.55 -35.8 -9.35 -36.0 -9.05 -36.05 Q-7.75 -35.9 -8.1 -34.1 M-21.9 -28.35 L-21.9 -28.3 -21.3 -27.45 -21.25 -27.25 -21.25 -27.15 -21.35 -26.85 -21.6 -26.65 -21.9 -26.65 -22.5 -27.0 -22.55 -27.0 Q-23.1 -27.4 -23.3 -28.05 L-23.4 -28.4 -23.3 -28.7 -23.0 -28.85 -22.7 -28.85 -21.9 -28.35 M-27.8 -23.8 L-27.8 -23.9 -27.7 -24.15 -27.5 -24.35 -27.2 -24.4 Q-26.2 -24.25 -25.55 -23.1 L-25.5 -22.75 -25.65 -22.45 -26.0 -22.35 -26.05 -22.35 -26.1 -22.35 Q-27.05 -22.45 -27.7 -23.5 L-27.8 -23.8 M-27.75 18.25 L-27.45 18.35 -27.25 18.65 -27.3 18.95 Q-27.95 20.5 -29.15 20.15 -29.7 20.25 -29.7 19.55 L-29.65 19.35 -29.5 19.2 -27.95 18.3 -27.8 18.25 -27.75 18.25 M-25.55 24.05 L-24.3 23.1 Q-24.2 22.85 -23.85 22.85 L-23.55 22.95 -23.35 23.25 -23.35 23.55 Q-24.05 25.25 -25.25 24.95 L-25.55 24.8 -25.7 24.45 -25.7 24.4 -25.55 24.05 M-21.35 25.05 L-21.15 25.3 -21.15 25.65 Q-21.8 27.35 -22.95 27.05 -23.4 27.0 -23.4 26.5 L-23.3 26.2 -22.05 25.1 -22.0 25.1 -21.65 24.95 -21.35 25.05" fill="#585858" fill-rule="evenodd" stroke="none"/>
    <path d="M8.65 -34.65 L9.2 -35.85 Q9.3 -36.25 9.75 -36.25 L10.1 -36.1 10.25 -35.8 Q10.35 -34.9 10.1 -34.5 9.8 -33.85 9.05 -33.95 8.85 -34.0 8.75 -34.1 L8.6 -34.45 8.6 -34.5 8.65 -34.65 M32.7 -13.45 Q33.5 -13.8 34.5 -13.95 L34.75 -13.9 35.0 -13.7 35.05 -13.45 35.05 -13.4 34.95 -13.1 Q34.05 -11.85 32.85 -12.35 32.35 -12.35 32.35 -13.0 L32.45 -13.25 32.7 -13.45 M35.85 -10.8 L36.0 -10.45 35.9 -10.15 Q34.75 -8.75 33.55 -9.65 L33.5 -9.7 33.3 -10.15 33.4 -10.45 33.7 -10.65 35.3 -10.95 35.35 -10.95 35.5 -10.95 35.85 -10.8 M-35.1 -7.5 L-33.3 -7.05 -33.05 -6.8 -33.0 -6.4 -33.25 -6.15 Q-34.5 -5.55 -35.5 -6.55 L-35.65 -6.9 -35.65 -7.0 -35.55 -7.25 -35.35 -7.45 -35.1 -7.5 M-33.45 2.35 Q-34.3 3.1 -35.55 2.7 L-36.0 2.15 -35.9 1.9 -35.75 1.75 Q-34.85 1.2 -33.85 1.45 L-33.8 1.45 -33.5 1.55 -33.3 1.8 -33.3 2.1 -33.45 2.35" fill="#5b5b5b" fill-rule="evenodd" stroke="none"/>
    <path d="M2.9 -36.95 L3.25 -37.1 Q4.15 -37.1 4.15 -36.25 L3.75 -35.0 3.55 -34.8 3.3 -34.75 3.25 -34.75 Q3.05 -34.75 2.9 -34.9 L2.75 -35.25 2.75 -36.5 2.75 -36.6 2.9 -36.95 M28.4 18.6 L28.7 18.6 Q29.95 18.95 30.55 19.85 L30.6 20.1 30.6 20.2 30.5 20.5 30.3 20.7 30.0 20.7 Q28.75 20.4 28.2 19.45 L28.05 19.05 28.15 18.75 28.4 18.6 M-18.95 -28.8 L-19.15 -28.6 -19.5 -28.55 Q-20.4 -28.7 -20.8 -29.95 L-20.9 -30.3 -20.8 -30.6 -20.5 -30.75 -20.2 -30.75 Q-19.15 -30.3 -18.9 -29.15 -18.85 -29.0 -18.95 -28.8" fill="#565656" fill-rule="evenodd" stroke="none"/>
    <path d="M0.55 -37.3 Q1.45 -35.95 0.9 -33.85 L0.7 -33.6 0.4 -33.5 0.3 -33.5 0.0 -33.6 -0.15 -33.85 Q-0.55 -35.1 -0.4 -36.9 L-0.4 -36.95 -0.4 -37.05 -0.3 -37.35 -0.05 -37.5 0.3 -37.5 0.55 -37.3" fill="#0e0e0e" fill-rule="evenodd" stroke="none"/>
    <path d="M3.25 -31.2 L3.25 -30.35 4.05 -30.35 4.05 -27.8 3.25 -27.8 3.25 -27.0 2.35 -27.0 2.35 -26.15 4.05 -26.15 4.05 -24.45 0.7 -24.45 0.7 -27.8 1.55 -27.8 1.55 -28.65 2.35 -28.65 2.35 -29.5 0.7 -29.5 0.7 -31.2 3.25 -31.2 M14.95 -28.05 L14.95 -21.3 13.3 -21.3 13.3 -25.5 12.45 -25.5 12.45 -27.2 13.3 -27.2 13.3 -28.05 14.95 -28.05 M22.95 -17.95 L25.45 -17.95 25.45 -17.1 26.35 -17.1 26.35 -14.6 25.45 -14.6 25.45 -13.75 24.65 -13.75 24.65 -12.9 26.35 -12.9 26.35 -11.25 22.95 -11.25 22.95 -14.6 23.8 -14.6 23.8 -15.45 24.65 -15.45 24.65 -16.25 22.95 -16.25 22.95 -17.95 M29.9 -2.6 L29.9 2.4 29.05 2.4 29.05 3.25 26.5 3.25 26.5 1.6 28.2 1.6 28.2 0.75 26.5 0.75 26.5 -0.95 28.2 -0.95 28.2 -1.8 26.5 -1.8 26.5 -3.45 29.05 -3.45 29.05 -2.6 29.9 -2.6 M24.0 10.2 L24.0 13.55 24.85 13.55 24.85 10.2 26.5 10.2 26.5 16.9 24.85 16.9 24.85 15.25 23.2 15.25 23.2 14.4 22.3 14.4 22.3 10.2 24.0 10.2 M12.7 24.45 L12.7 20.25 16.0 20.25 16.0 21.95 14.35 21.95 14.35 22.8 15.2 22.8 15.2 23.65 16.0 23.65 16.0 26.15 15.2 26.15 15.2 27.0 12.7 27.0 12.7 25.3 14.35 25.3 14.35 24.45 12.7 24.45 M0.1 28.65 L0.9 28.65 0.9 27.85 0.1 27.85 0.1 28.65 M1.75 25.3 L0.1 25.3 0.1 26.15 1.75 26.15 1.75 27.0 2.6 27.0 2.6 29.5 1.75 29.5 1.75 30.35 -0.8 30.35 -0.8 29.5 -1.6 29.5 -1.6 24.45 -0.8 24.45 -0.8 23.65 1.75 23.65 1.75 25.3 M-15.9 -27.8 L-14.2 -27.8 -14.2 -21.1 -15.9 -21.1 -15.9 -25.3 -16.7 -25.3 -16.7 -27.0 -15.9 -27.0 -15.9 -27.8 M-10.85 -27.8 L-10.85 -21.1 -12.5 -21.1 -12.5 -25.3 -13.4 -25.3 -13.4 -27.0 -12.5 -27.0 -12.5 -27.8 -10.85 -27.8 M-0.15 -31.2 L-0.15 -24.45 -1.85 -24.45 -1.85 -28.65 -2.65 -28.65 -2.65 -30.35 -1.85 -30.35 -1.85 -31.2 -0.15 -31.2 M-25.75 -17.55 L-24.05 -17.55 -24.05 -10.8 -25.75 -10.8 -25.75 -15.0 -26.6 -15.0 -26.6 -16.7 -25.75 -16.7 -25.75 -17.55 M-22.4 -16.7 L-22.4 -17.55 -19.85 -17.55 -19.85 -16.7 -19.05 -16.7 -19.05 -11.65 -19.85 -11.65 -19.85 -10.8 -22.4 -10.8 -22.4 -11.65 -23.25 -11.65 -23.25 -16.7 -22.4 -16.7 M-20.75 -12.5 L-20.75 -15.85 -21.55 -15.85 -21.55 -12.5 -20.75 -12.5 M-28.25 -2.6 L-28.25 -3.45 -25.75 -3.45 -25.75 -2.6 -24.95 -2.6 -24.95 2.4 -25.75 2.4 -25.75 3.25 -28.25 3.25 -28.25 1.6 -26.6 1.6 -26.6 0.75 -28.25 0.75 -28.25 -0.1 -29.15 -0.1 -29.15 -2.6 -28.25 -2.6 M-27.45 -1.8 L-27.45 -0.95 -26.6 -0.95 -26.6 -1.8 -27.45 -1.8 M-12.75 22.8 L-12.75 26.15 -14.45 26.15 -14.45 22.8 -13.55 22.8 -13.55 21.1 -15.25 21.1 -15.25 19.45 -11.9 19.45 -11.9 22.8 -12.75 22.8 M-25.35 10.6 L-24.5 10.6 -24.5 9.75 -21.95 9.75 -21.95 10.6 -21.15 10.6 -21.15 12.3 -21.95 12.3 -21.95 13.95 -21.15 13.95 -21.15 15.65 -21.95 15.65 -21.95 16.5 -24.5 16.5 -24.5 15.65 -25.35 15.65 -25.35 13.95 -24.5 13.95 -24.5 12.3 -25.35 12.3 -25.35 10.6 M-23.65 11.45 L-23.65 12.3 -22.85 12.3 -22.85 11.45 -23.65 11.45 M-22.85 14.8 L-22.85 13.95 -23.65 13.95 -23.65 14.8 -22.85 14.8" fill="#000000" fill-rule="evenodd" stroke="none"/>
    <path d="M16.0 -34.05 L16.2 -33.85 16.25 -33.6 15.9 -32.35 Q15.5 -31.85 14.9 -32.05 14.4 -32.1 14.4 -32.6 L14.45 -32.8 15.25 -33.85 Q15.35 -34.15 15.75 -34.15 L16.0 -34.05 M13.15 -35.15 L13.3 -34.8 13.1 -33.6 Q12.75 -33.05 12.1 -33.1 11.85 -33.1 11.75 -33.25 L11.6 -33.6 11.6 -33.65 11.6 -33.75 Q11.8 -34.6 12.35 -35.15 L12.7 -35.3 12.8 -35.3 13.15 -35.15 M33.65 -16.7 L33.75 -16.4 33.75 -16.35 33.7 -16.1 Q32.85 -14.65 31.6 -15.15 31.2 -15.2 31.2 -15.7 L31.3 -15.95 31.5 -16.15 33.1 -16.85 33.4 -16.85 33.65 -16.7 M36.65 5.35 L36.8 5.6 36.75 5.95 36.5 6.2 34.25 5.95 Q33.8 5.9 33.8 5.4 33.8 5.2 33.95 5.1 L34.2 4.9 Q35.35 4.7 36.4 5.2 L36.65 5.35 M32.25 11.15 L32.4 10.8 Q32.55 10.65 32.75 10.65 33.9 10.65 34.8 11.4 35.15 11.45 35.15 11.9 L35.0 12.25 34.65 12.4 Q33.6 12.4 32.7 11.8 32.25 11.8 32.25 11.15 M33.8 15.1 L33.45 15.25 Q32.1 15.35 31.2 14.25 L31.1 13.95 31.1 13.9 31.2 13.65 31.4 13.45 31.7 13.4 Q32.8 13.6 33.55 14.25 33.9 14.3 33.9 14.75 L33.8 15.1 M6.45 32.7 Q7.5 33.2 7.2 35.0 L7.1 35.3 6.9 35.5 6.6 35.5 6.35 35.35 Q5.65 34.65 5.7 33.2 L5.7 33.15 Q5.7 32.95 5.85 32.85 L6.1 32.65 6.45 32.7 M-25.7 -26.1 L-25.7 -26.2 -25.6 -26.45 -25.4 -26.65 -25.1 -26.7 Q-24.15 -26.55 -23.5 -25.4 L-23.45 -25.15 -23.45 -25.05 -23.55 -24.75 -23.75 -24.55 -24.05 -24.55 Q-25.2 -24.9 -25.65 -25.9 L-25.7 -26.1 M-30.5 -15.45 L-30.4 -15.15 -30.4 -15.1 -30.45 -14.8 -30.7 -14.65 -30.95 -14.6 Q-32.1 -14.8 -32.8 -15.5 L-32.95 -15.85 -32.95 -15.9 -32.8 -16.25 -32.45 -16.4 Q-31.35 -16.5 -30.5 -15.45 M-35.6 -4.35 L-33.8 -4.1 -33.7 -4.1 -33.5 -4.0 -33.3 -3.7 -33.35 -3.4 -33.55 -3.15 Q-34.9 -2.5 -35.9 -3.35 L-36.05 -3.5 -36.1 -3.75 -36.1 -3.85 -35.95 -4.2 -35.6 -4.35 M-8.2 33.85 L-8.65 34.35 -9.25 34.3 Q-9.65 34.2 -9.65 33.75 L-9.6 33.6 -9.05 32.2 -8.85 32.0 -8.6 31.9 -8.5 31.9 Q-8.3 31.9 -8.15 32.05 L-8.0 32.4 -8.2 33.85 M-13.9 29.9 L-13.7 30.1 -13.65 30.35 Q-13.75 31.4 -14.0 31.8 L-14.6 32.2 -15.15 32.1 Q-15.55 32.0 -15.55 31.55 L-15.45 31.25 -14.7 30.1 -14.5 29.9 -14.25 29.8 -14.15 29.8 -13.9 29.9" fill="#595959" fill-rule="evenodd" stroke="none"/>
    <path d="M19.05 -32.4 L19.05 -32.3 Q18.5 -29.25 16.7 -29.35 L16.4 -29.45 16.2 -29.75 16.25 -30.05 18.2 -32.8 18.45 -32.95 18.75 -32.9 19.0 -32.7 19.05 -32.45 19.05 -32.4" fill="#1e1e1e" fill-rule="evenodd" stroke="none"/>
    <path d="M32.45 -18.85 Q30.75 -16.8 29.0 -17.25 28.45 -17.25 28.45 -17.8 L28.5 -18.0 28.7 -18.2 Q30.15 -19.15 31.65 -19.6 L32.05 -19.7 32.4 -19.55 32.55 -19.2 32.45 -18.85 M28.4 15.7 L28.5 15.4 Q28.6 15.25 28.75 15.25 L29.05 15.25 Q31.1 15.85 32.4 17.25 L32.35 17.25 32.55 17.7 32.5 18.0 32.25 18.2 31.95 18.2 Q29.85 17.75 28.5 16.1 L28.4 15.75 28.4 15.7 M-27.65 -17.25 L-27.65 -17.2 -27.7 -16.95 -27.9 -16.75 -28.15 -16.7 Q-30.05 -16.75 -31.3 -18.45 -31.6 -18.55 -31.6 -18.95 L-31.5 -19.25 -31.25 -19.4 -30.9 -19.4 Q-29.15 -18.8 -27.8 -17.6 L-27.7 -17.45 -27.65 -17.25" fill="#1d1d1d" fill-rule="evenodd" stroke="none"/>
    <path d="M36.7 -7.05 L36.55 -6.9 Q35.4 -6.0 34.25 -6.6 34.1 -6.65 34.05 -6.75 L33.95 -7.05 33.95 -7.1 34.05 -7.4 34.3 -7.55 36.25 -7.85 36.6 -7.7 36.75 -7.35 36.75 -7.3 36.7 -7.05 M3.3 33.1 Q4.45 33.3 4.1 35.4 L3.95 35.7 3.6 35.8 3.55 35.8 3.35 35.75 3.2 35.65 Q2.6 34.95 2.65 33.65 L2.65 33.55 2.75 33.25 Q2.85 33.1 3.0 33.1 L3.3 33.1 M-2.75 -37.15 Q-1.7 -36.85 -2.1 -35.1 L-2.3 -34.85 -2.6 -34.75 -2.9 -34.85 Q-3.55 -35.4 -3.45 -36.6 L-3.45 -36.65 -3.45 -36.7 -3.35 -37.0 -3.05 -37.15 -2.75 -37.15 M-5.15 -36.1 Q-4.95 -35.7 -5.1 -34.85 L-5.1 -34.8 Q-5.1 -34.6 -5.25 -34.45 -5.4 -34.3 -5.55 -34.3 L-5.9 -34.4 Q-6.55 -34.95 -6.6 -36.05 L-6.6 -36.15 -6.45 -36.45 -6.15 -36.65 Q-5.4 -36.75 -5.15 -36.1 M-34.05 -12.7 L-34.1 -12.9 -34.1 -13.0 -33.95 -13.35 -33.6 -13.5 Q-32.6 -13.5 -31.65 -12.85 L-31.5 -12.65 -31.45 -12.45 -31.45 -12.35 -31.55 -12.0 -31.9 -11.85 Q-33.1 -11.7 -33.95 -12.5 L-34.05 -12.7 M-32.4 -9.45 L-32.4 -9.4 -32.5 -9.05 Q-32.65 -8.95 -32.85 -8.9 -33.95 -8.75 -34.85 -9.55 L-35.0 -9.75 -35.05 -9.95 -35.05 -10.05 -34.95 -10.3 -34.75 -10.5 -34.5 -10.55 Q-33.25 -10.5 -32.55 -9.8 L-32.45 -9.65 -32.4 -9.45 M-35.15 5.75 Q-35.6 5.7 -35.6 5.2 L-35.5 4.95 -35.3 4.75 Q-34.55 4.35 -33.45 4.45 -33.25 4.45 -33.1 4.65 L-33.0 5.0 -33.15 5.3 Q-34.15 6.3 -35.15 5.75 M-34.0 11.25 L-33.9 11.0 -33.75 10.85 Q-32.9 10.3 -32.0 10.25 L-31.95 10.25 Q-31.75 10.25 -31.6 10.4 L-31.45 10.7 -31.5 11.05 Q-32.2 12.1 -33.6 11.85 L-33.85 11.7 -34.0 11.35 -34.0 11.25 M-32.65 13.85 L-32.5 13.7 Q-31.8 13.25 -30.9 13.05 L-30.6 13.05 -30.4 13.25 -30.3 13.5 -30.3 13.6 -30.35 13.9 Q-31.25 15.2 -32.4 14.65 L-32.55 14.55 -32.75 14.1 -32.65 13.85 M-5.7 32.5 L-5.35 32.6 -5.2 32.9 Q-4.95 33.95 -5.1 34.45 L-5.5 35.0 -6.2 35.05 -6.4 34.9 -6.45 34.85 -6.55 34.65 -6.55 34.4 -6.25 32.9 -6.05 32.65 -5.75 32.5 -5.7 32.5 M-11.0 31.1 Q-10.85 31.2 -10.85 31.45 -10.7 33.25 -12.05 33.55 L-12.35 33.55 -12.6 33.35 -12.7 33.05 -12.7 33.0 -12.65 32.85 Q-12.35 31.9 -11.85 31.25 L-11.8 31.15 -11.35 30.95 -11.0 31.1" fill="#5a5a5a" fill-rule="evenodd" stroke="none"/>
    <path d="M33.6 -1.2 L37.1 -1.05 37.45 -0.85 37.55 -0.55 37.55 -0.45 37.45 -0.15 37.2 0.05 33.4 -0.15 33.2 -0.3 33.1 -0.6 33.1 -0.7 33.25 -1.05 33.6 -1.2" fill="#111111" fill-rule="evenodd" stroke="none"/>
    <path d="M34.35 -4.15 L34.5 -4.45 34.75 -4.65 36.75 -4.7 37.05 -4.5 37.15 -4.2 37.15 -4.15 37.1 -3.95 37.0 -3.75 Q36.1 -2.95 34.75 -3.6 34.35 -3.7 34.35 -4.15 M-32.75 7.45 Q-32.55 7.45 -32.4 7.6 L-32.25 7.95 -32.35 8.3 Q-33.2 9.15 -34.4 8.9 -34.95 8.9 -34.95 8.35 L-34.9 8.15 -34.75 7.95 Q-33.9 7.25 -32.85 7.4 L-32.65 7.45 -32.75 7.45" fill="#5c5c5c" fill-rule="evenodd" stroke="none"/>
    <path d="M16.25 27.45 L16.5 27.25 16.85 27.35 Q18.5 28.25 19.2 30.7 L19.2 30.8 19.2 30.9 19.1 31.25 18.75 31.4 18.4 31.3 Q16.85 30.05 16.15 28.0 L16.1 27.85 16.1 27.75 Q16.1 27.55 16.25 27.45 M-16.1 26.95 L-15.8 27.05 -15.65 27.25 -15.6 27.55 Q-16.15 30.9 -17.9 30.5 L-18.2 30.35 -18.35 30.05 -18.25 29.75 -16.55 27.15 -16.35 27.0 -16.15 26.95 -16.1 26.95" fill="#1f1f1f" fill-rule="evenodd" stroke="none"/>
    <path d="M19.55 27.45 L19.65 27.15 Q19.75 27.0 19.95 27.0 L20.25 27.0 Q21.4 27.5 21.7 28.85 L21.7 28.95 21.7 29.0 21.6 29.35 21.3 29.5 20.95 29.45 Q20.0 28.85 19.6 27.75 L19.55 27.55 19.55 27.45" fill="#555555" fill-rule="evenodd" stroke="none"/>
    <path d="M0.55 31.9 Q1.45 33.4 0.9 35.8 L0.7 36.05 0.4 36.15 0.3 36.15 0.0 36.05 -0.15 35.8 Q-0.55 34.25 -0.4 32.25 L-0.4 32.15 -0.3 31.85 Q-0.2 31.7 0.0 31.7 L0.3 31.7 0.55 31.9 M-36.3 -0.7 L-36.15 -1.05 -35.8 -1.2 -32.55 -1.05 Q-32.05 -1.15 -32.05 -0.45 L-32.15 -0.15 -32.4 0.05 -36.0 -0.15 -36.2 -0.3 -36.3 -0.6 -36.3 -0.7" fill="#0f0f0f" fill-rule="evenodd" stroke="none"/>
    <path d="M-17.5 -32.55 Q-16.0 -31.3 -15.6 -29.45 L-15.6 -29.15 -15.8 -28.9 -16.1 -28.85 -16.2 -28.85 -16.45 -28.95 Q-17.75 -29.8 -18.3 -31.95 L-18.35 -32.1 -18.35 -32.2 -18.2 -32.55 -17.85 -32.7 -17.5 -32.55" fill="#1b1b1b" fill-rule="evenodd" stroke="none"/>
    <path d="M-31.55 16.85 L-31.4 16.7 Q-30.1 15.5 -28.15 15.0 L-27.85 15.0 -27.65 15.15 -27.55 15.45 -27.6 15.75 Q-28.8 17.55 -31.05 17.6 L-31.35 17.55 -31.5 17.35 -31.6 17.1 -31.6 17.05 -31.55 16.85" fill="#202020" fill-rule="evenodd" stroke="none"/>
  </g>
</svg>
