<?xml version="1.0" encoding="UTF-8" standalone="no"?>
<svg xmlns:ffdec="https://www.free-decompiler.com/flash" xmlns:xlink="http://www.w3.org/1999/xlink" ffdec:objectType="shape" height="30.95px" width="22.25px" xmlns="http://www.w3.org/2000/svg">
  <g transform="matrix(1.0, 0.0, 0.0, 1.0, 11.1, 15.5)">
    <path d="M6.75 -14.35 Q7.9 -10.7 10.65 -7.65 10.6 -5.35 8.6 -5.2 L8.5 -5.2 5.9 -6.35 5.9 -6.3 Q3.65 0.9 0.35 8.55 -2.9 16.3 -9.2 14.65 -10.45 14.3 -10.5 13.2 -11.15 7.05 -6.2 2.15 -2.05 -1.95 0.35 -8.1 L-0.35 -8.1 -0.4 -8.15 -3.0 -8.8 -3.05 -8.8 Q-3.75 -9.8 -3.05 -11.15 L-3.05 -11.25 5.75 -14.95 5.8 -15.0 6.3 -14.8 6.4 -14.75 6.7 -14.35 6.75 -14.35" fill="#666666" fill-rule="evenodd" stroke="none"/>
    <path d="M6.75 -14.35 Q7.9 -10.7 10.65 -7.65 10.6 -5.35 8.6 -5.2 L8.5 -5.2 5.9 -6.35 5.9 -6.3 Q3.65 0.9 0.35 8.55 -2.9 16.3 -9.2 14.65 -10.45 14.3 -10.5 13.2 -11.15 7.05 -6.2 2.15 -2.05 -1.95 0.35 -8.1 L-0.35 -8.1 -0.4 -8.15 -3.0 -8.8 -3.05 -8.8 Q-3.75 -9.8 -3.05 -11.15 L-3.05 -11.25 5.75 -14.95 5.8 -15.0 6.3 -14.8 6.4 -14.75 6.7 -14.35 6.75 -14.35 Z" fill="none" stroke="#000000" stroke-linecap="round" stroke-linejoin="round" stroke-width="1.0"/>
  </g>
</svg>
