<?xml version="1.0" encoding="UTF-8" standalone="no"?>
<svg xmlns:ffdec="https://www.free-decompiler.com/flash" xmlns:xlink="http://www.w3.org/1999/xlink" ffdec:objectType="shape" height="42.4px" width="18.75px" xmlns="http://www.w3.org/2000/svg">
  <g transform="matrix(1.0, 0.0, 0.0, 1.0, 9.35, 21.2)">
    <path d="M3.8 -10.85 L3.8 -10.8 Q4.9 -1.45 5.0 8.9 5.15 19.4 -2.85 20.65 -4.45 20.95 -5.1 19.7 -8.95 13.05 -5.7 4.9 -3.1 -1.8 -3.4 -10.05 L-4.25 -9.75 -4.3 -9.7 -7.6 -9.15 -7.65 -9.15 Q-8.95 -9.9 -8.85 -11.85 L-8.85 -11.95 -0.7 -20.6 -0.7 -20.7 0.0 -20.7 0.1 -20.7 0.7 -20.4 0.75 -20.4 Q3.85 -16.8 8.55 -14.75 9.65 -12.1 7.4 -10.9 L7.3 -10.9 3.8 -10.85" fill="#999999" fill-rule="evenodd" stroke="none"/>
    <path d="M3.8 -10.85 L3.8 -10.8 Q4.9 -1.45 5.0 8.9 5.15 19.4 -2.85 20.65 -4.45 20.95 -5.1 19.7 -8.95 13.05 -5.7 4.9 -3.1 -1.8 -3.4 -10.05 L-4.25 -9.75 -4.3 -9.7 -7.6 -9.15 -7.65 -9.15 Q-8.95 -9.9 -8.85 -11.85 L-8.85 -11.95 -0.7 -20.6 -0.7 -20.7 0.0 -20.7 0.1 -20.7 0.7 -20.4 0.75 -20.4 Q3.85 -16.8 8.55 -14.75 9.65 -12.1 7.4 -10.9 L7.3 -10.9 3.8 -10.85 Z" fill="none" stroke="#000000" stroke-linecap="round" stroke-linejoin="round" stroke-width="1.0"/>
  </g>
</svg>
