<?xml version="1.0" encoding="UTF-8" standalone="no"?>
<svg xmlns:ffdec="https://www.free-decompiler.com/flash" xmlns:xlink="http://www.w3.org/1999/xlink" ffdec:objectType="shape" height="685.65px" width="337.45px" xmlns="http://www.w3.org/2000/svg">
  <g transform="matrix(1.0, 0.0, 0.0, 1.0, 168.7, 342.8)">
    <path d="M-54.35 -246.55 L-55.2 -246.35 Q-93.95 -223.65 -102.35 -170.55 L-102.4 -169.55 Q-107.85 -88.55 -57.35 -63.55 -54.45 -147.15 -52.85 -232.55 -52.65 -243.25 -54.35 -246.55 M51.65 38.45 L51.15 38.45 45.65 201.45 45.65 202.45 Q44.9 227.2 46.65 249.45 86.45 232.25 102.2 191.3 107.7 177.0 108.25 159.4 111.2 68.4 51.65 38.45 M19.65 27.45 L18.7 27.3 Q-3.55 20.65 -28.35 16.45 L-28.6 42.45 Q-29.65 131.65 -34.35 216.45 L-34.35 217.45 Q-35.1 235.7 -33.35 251.45 L-32.4 251.65 Q-13.7 259.3 14.65 257.45 L16.0 203.45 Q17.7 115.0 19.65 27.45 M26.65 -250.55 L25.75 -250.75 Q7.0 -259.9 -19.35 -256.55 -21.05 -256.25 -21.1 -253.55 -22.7 -166.4 -25.35 -79.55 L-25.35 -78.55 Q-26.1 -63.8 -24.35 -51.55 L-23.4 -51.4 Q-3.45 -43.95 20.65 -40.55 23.8 -55.9 24.15 -75.55 25.75 -161.95 26.65 -250.55 M29.65 -332.55 Q28.75 -338.95 32.15 -340.05 46.3 -344.7 58.65 -340.55 L59.15 -340.55 Q60.15 -311.55 59.65 -278.55 L60.6 -278.4 Q80.8 -271.2 102.65 -265.55 106.9 -267.8 109.35 -271.45 117.6 -283.6 133.65 -282.55 135.2 -281.1 135.35 -278.55 139.55 -208.95 138.65 -139.55 L137.8 -139.3 Q130.5 -134.65 117.65 -135.55 L117.55 -136.55 Q106.2 -204.1 59.65 -236.55 58.7 -222.0 58.2 -206.55 L52.65 -33.55 Q78.45 -26.35 99.25 -14.6 156.7 17.9 166.75 96.55 172.65 142.95 161.1 176.95 155.15 194.45 147.3 208.35 114.85 266.1 43.65 284.45 L43.65 285.45 Q45.05 315.85 41.65 341.45 L40.65 341.55 Q26.5 344.6 14.65 340.45 L14.15 340.4 Q12.1 315.4 13.65 288.45 L12.65 288.45 Q-12.4 288.0 -35.35 285.45 -35.75 293.05 -35.45 300.4 -34.5 324.3 -39.35 341.45 L-40.35 341.55 Q-54.5 344.6 -66.35 340.45 L-66.85 340.4 Q-69.1 309.2 -66.35 277.45 -84.85 269.95 -99.4 258.25 -113.65 246.75 -133.35 240.45 L-134.05 240.7 -152.35 261.45 -153.3 261.6 Q-159.5 263.6 -166.35 261.45 L-166.55 260.6 Q-169.55 255.65 -168.35 246.45 -162.2 193.6 -157.75 139.4 -156.2 120.6 -152.35 104.45 -140.55 101.8 -130.3 105.3 L-129.35 105.45 Q-126.7 192.3 -76.0 230.95 L-66.35 238.45 Q-62.75 152.5 -61.45 65.45 -60.95 34.35 -59.35 5.45 -127.2 -16.25 -152.4 -80.55 -165.9 -114.95 -159.65 -162.35 -157.2 -180.9 -149.65 -195.7 -119.15 -254.9 -55.15 -280.05 L-52.35 -280.55 Q-52.1 -311.8 -48.85 -340.5 L-48.35 -340.55 Q-36.05 -344.75 -21.45 -341.1 L-21.35 -340.55 Q-17.9 -330.0 -18.65 -314.5 -19.35 -300.55 -19.35 -286.55 7.85 -286.75 28.55 -287.55 L28.65 -289.55 28.65 -292.55 Q30.4 -310.8 29.65 -331.55 L29.65 -332.55" fill="#010101" fill-rule="evenodd" stroke="none"/>
  </g>
</svg>
