<?xml version="1.0" encoding="UTF-8" standalone="no"?>
<svg xmlns:ffdec="https://www.free-decompiler.com/flash" xmlns:xlink="http://www.w3.org/1999/xlink" ffdec:objectType="shape" height="65.8px" width="65.85px" xmlns="http://www.w3.org/2000/svg">
  <g transform="matrix(1.0, 0.0, 0.0, 1.0, 32.65, 32.65)">
    <path d="M1.05 -31.15 L1.05 -31.1 0.95 -28.0 1.0 -27.55 1.75 -27.35 1.8 -27.95 1.85 -31.0 1.85 -31.05 1.05 -31.15 M1.9 -32.5 L1.95 -32.6 2.45 -32.6 2.45 -31.5 3.2 -31.3 3.3 -31.4 3.75 -31.6 3.8 -31.5 3.85 -29.05 3.45 -29.0 3.45 -29.05 3.35 -29.5 2.75 -30.55 2.6 -30.65 2.45 -30.8 2.45 -30.25 2.35 -27.2 3.15 -26.9 3.4 -26.7 3.65 -26.5 4.25 -25.4 4.35 -24.9 4.25 -23.5 4.0 -22.95 Q3.45 -21.95 2.15 -21.6 L2.15 -20.6 2.1 -20.6 1.65 -20.6 1.65 -20.65 1.65 -21.55 0.8 -21.6 0.8 -21.3 0.7 -20.6 0.25 -20.6 0.25 -20.65 0.2 -20.65 0.25 -21.75 Q-0.1 -21.85 -0.35 -22.05 L-0.95 -22.4 -1.25 -22.0 -1.3 -22.0 -1.5 -22.0 -1.55 -22.0 -1.55 -22.05 -1.55 -22.3 -1.4 -24.15 -1.3 -24.8 -0.9 -24.75 -0.85 -24.75 -0.8 -24.15 -0.15 -22.75 -0.05 -22.65 0.05 -22.55 0.25 -22.4 0.3 -25.45 0.35 -26.5 Q0.05 -26.6 -0.25 -26.8 L-0.7 -27.15 -1.1 -27.65 -1.3 -28.05 -1.4 -29.5 -1.25 -30.05 Q-0.7 -31.1 0.45 -31.55 L0.5 -31.55 0.55 -32.6 1.0 -32.65 1.0 -32.6 1.05 -32.6 1.1 -32.15 1.05 -31.65 1.9 -31.7 1.9 -31.75 1.9 -32.45 1.9 -32.5 M0.2 -27.85 L0.4 -27.75 0.45 -30.7 0.45 -30.95 Q-0.25 -30.55 -0.4 -29.6 L-0.3 -28.65 0.05 -28.0 0.2 -27.85 M0.9 -26.3 L0.9 -25.85 0.8 -22.8 0.8 -22.2 1.65 -22.1 1.7 -23.05 1.75 -26.15 0.9 -26.3 M2.55 -25.8 Q2.45 -25.85 2.3 -25.95 L2.2 -23.05 2.25 -22.25 Q2.9 -22.55 3.2 -23.25 L3.3 -23.8 3.2 -24.9 2.75 -25.65 2.55 -25.8 M16.15 -27.0 L16.25 -27.25 Q15.45 -27.2 14.85 -26.5 14.05 -25.3 14.6 -24.5 L16.15 -27.0 M13.9 -26.9 L14.35 -27.3 Q15.35 -27.95 16.55 -27.75 L16.6 -27.75 17.15 -28.6 17.5 -28.45 17.6 -28.4 17.6 -28.35 17.4 -27.95 17.15 -27.55 17.85 -27.15 17.9 -27.15 17.9 -27.2 18.25 -27.8 18.3 -27.8 18.4 -27.9 18.7 -27.75 18.8 -27.7 18.8 -27.65 18.25 -26.7 18.3 -26.7 18.35 -26.65 18.8 -26.15 18.95 -26.2 19.45 -26.15 19.45 -26.05 18.25 -23.9 17.9 -24.0 17.9 -24.05 Q18.3 -25.15 17.9 -26.05 L17.6 -25.65 16.0 -23.05 16.45 -22.5 16.55 -22.35 Q17.15 -21.35 16.6 -20.05 16.3 -19.3 15.8 -18.9 L15.35 -18.5 Q14.3 -17.9 13.05 -18.25 L12.55 -17.4 12.55 -17.45 12.2 -17.6 12.15 -17.7 12.1 -17.7 12.55 -18.5 11.85 -18.95 11.75 -18.75 11.3 -18.15 10.95 -18.35 10.9 -18.4 11.45 -19.35 11.1 -19.95 10.75 -20.5 10.3 -20.35 10.25 -20.35 10.05 -20.45 10.05 -20.5 10.15 -20.7 11.25 -22.25 11.65 -22.75 11.95 -22.6 12.0 -22.55 12.0 -22.5 Q11.3 -21.15 11.7 -20.15 L11.8 -19.95 13.4 -22.55 13.95 -23.45 Q13.1 -24.35 13.3 -25.55 L13.9 -26.9 M17.15 -26.95 L16.85 -27.05 16.8 -27.05 15.25 -24.45 15.2 -24.4 15.0 -24.0 15.55 -23.45 15.95 -23.95 17.5 -26.6 17.4 -26.75 17.35 -26.75 17.15 -26.95 M22.85 -1.8 L24.75 -1.6 25.35 -1.5 25.35 -1.1 Q23.8 -1.05 23.15 -0.15 L23.0 0.0 26.05 0.1 27.1 0.15 Q27.45 -1.05 28.6 -1.5 L30.05 -1.65 30.65 -1.45 30.85 -1.35 31.4 -0.9 32.0 -0.1 32.15 0.2 32.15 0.25 33.2 0.3 33.2 0.35 33.2 0.8 32.75 0.85 32.25 0.85 32.25 1.7 32.35 1.7 33.0 1.7 33.15 1.7 33.2 1.75 33.2 2.2 33.2 2.25 32.1 2.25 31.85 3.0 31.95 3.1 32.05 3.15 32.15 3.55 32.1 3.55 29.65 3.6 29.55 3.25 29.6 3.25 Q30.75 3.05 31.35 2.25 L30.85 2.2 27.8 2.1 27.45 2.95 Q26.9 3.95 25.5 4.1 L24.1 4.0 23.55 3.8 23.35 3.7 22.95 3.35 22.3 2.35 22.2 1.95 22.15 1.95 21.2 1.9 21.2 1.45 22.1 1.4 22.15 0.55 21.9 0.55 21.2 0.5 21.2 0.45 21.2 0.0 22.3 0.0 22.65 -0.55 22.95 -1.15 22.6 -1.5 22.6 -1.75 22.85 -1.8 M23.2 -9.65 Q24.6 -10.4 24.55 -11.55 L22.0 -10.2 21.3 -9.8 Q21.9 -9.35 22.65 -9.45 L23.2 -9.65 M27.95 -15.7 L26.35 -15.75 Q25.1 -15.1 25.15 -14.15 L27.75 -15.55 27.95 -15.7 M25.45 -12.75 L26.05 -13.0 28.7 -14.5 28.4 -15.25 28.35 -15.25 25.65 -13.75 25.25 -13.5 25.45 -12.75 M24.15 -12.95 L23.8 -12.75 21.05 -11.3 20.55 -11.0 20.55 -10.95 20.85 -10.2 21.7 -10.65 24.4 -12.15 24.15 -12.95 M19.8 -12.6 L19.35 -12.7 19.3 -12.75 19.2 -12.95 19.25 -12.95 19.4 -13.1 21.15 -13.9 21.75 -14.1 21.9 -13.75 21.95 -13.75 Q20.6 -12.95 20.5 -11.8 L20.45 -11.6 23.15 -13.05 24.05 -13.55 Q23.8 -14.8 24.55 -15.75 24.95 -16.25 25.7 -16.55 L26.35 -16.7 Q27.5 -16.75 28.45 -16.0 L28.5 -15.95 29.4 -16.45 29.45 -16.45 29.45 -16.4 29.5 -16.4 29.7 -16.0 29.3 -15.75 28.85 -15.5 29.3 -14.8 29.35 -14.8 29.4 -14.85 30.0 -15.15 30.15 -15.2 30.15 -15.15 30.25 -15.1 30.4 -14.8 29.45 -14.25 29.45 -14.2 29.6 -13.45 29.75 -13.4 30.05 -13.3 30.15 -13.15 30.1 -13.1 28.0 -11.8 27.9 -11.9 27.75 -12.1 27.8 -12.1 Q28.7 -12.85 28.8 -13.85 L28.35 -13.6 25.65 -12.2 25.75 -11.3 Q25.75 -10.15 24.65 -9.3 24.0 -8.8 23.4 -8.7 L22.8 -8.6 22.2 -8.65 20.7 -9.5 Q20.25 -9.2 19.85 -9.05 L19.8 -9.1 19.75 -9.15 19.6 -9.45 19.6 -9.5 20.4 -9.95 20.0 -10.7 19.8 -10.6 19.15 -10.3 19.1 -10.3 18.9 -10.7 19.85 -11.25 19.85 -11.95 19.8 -12.6 M13.45 -18.8 Q14.2 -18.7 14.8 -19.2 L15.15 -19.6 Q16.0 -20.95 15.35 -21.95 L13.85 -19.5 13.45 -18.8 M14.4 -22.9 L14.35 -23.0 14.1 -22.6 12.5 -20.0 12.45 -20.0 12.2 -19.45 12.25 -19.4 12.3 -19.35 12.55 -19.15 12.85 -18.95 13.35 -19.75 14.95 -22.4 14.4 -22.9 M30.8 -0.45 L30.2 -0.6 Q28.75 -0.7 28.3 0.15 L31.3 0.25 31.55 0.2 31.5 0.2 31.4 0.05 31.3 -0.1 30.8 -0.45 M26.7 1.5 L26.9 0.7 26.45 0.7 23.4 0.6 23.35 0.6 22.75 0.6 22.65 1.45 23.6 1.45 26.7 1.5 M31.7 0.85 L31.7 0.8 31.65 0.8 28.6 0.75 28.1 0.75 27.9 1.55 28.5 1.6 31.6 1.65 31.7 0.85 M23.45 2.8 L23.8 3.0 24.4 3.1 Q26.0 3.15 26.5 2.1 L23.65 2.0 22.8 2.0 22.95 2.3 23.2 2.6 23.45 2.8 M20.4 12.2 L20.35 12.25 20.15 12.5 19.95 12.8 20.75 13.3 23.4 14.9 23.45 14.9 23.95 14.35 24.0 14.25 23.6 14.05 21.0 12.4 20.45 12.1 20.45 12.15 20.4 12.2 M21.5 10.7 L21.35 10.2 21.5 10.0 21.75 10.1 23.3 11.2 23.75 11.6 23.6 11.85 23.55 11.9 23.55 11.95 Q22.2 11.2 21.15 11.65 L20.95 11.75 23.55 13.3 24.45 13.9 Q25.4 13.05 26.6 13.2 27.25 13.3 27.9 13.8 L28.3 14.25 Q28.95 15.25 28.75 16.45 L28.75 16.5 29.65 17.1 29.5 17.4 29.4 17.5 28.95 17.3 28.55 17.05 28.15 17.8 28.2 17.85 28.8 18.2 28.9 18.3 28.75 18.65 28.7 18.7 28.7 18.75 28.65 18.75 27.7 18.2 27.65 18.3 27.15 18.75 27.2 18.9 27.15 19.35 27.05 19.35 24.9 18.2 24.9 18.15 25.05 17.85 Q26.2 18.25 27.1 17.85 L26.65 17.55 24.05 15.95 23.55 16.35 23.35 16.5 21.05 16.55 19.9 15.75 19.55 15.25 Q18.95 14.25 19.3 13.0 L19.25 13.0 18.45 12.45 18.6 12.15 18.7 12.05 19.5 12.5 19.95 11.8 19.75 11.65 19.15 11.25 19.15 11.2 19.35 10.85 19.4 10.8 20.35 11.4 20.95 11.05 21.5 10.7 M25.4 15.15 L25.0 14.9 25.0 14.95 24.5 15.4 24.45 15.5 24.95 15.85 27.6 17.45 27.75 17.3 27.8 17.3 27.95 17.05 28.1 16.8 28.05 16.75 25.45 15.15 25.4 15.15 M-27.25 -18.65 L-27.15 -18.75 -26.2 -18.25 -26.1 -18.3 -25.65 -18.8 -25.65 -18.95 -25.6 -19.4 -25.55 -19.4 -23.4 -18.2 -23.5 -17.85 -23.55 -17.85 Q-24.65 -18.3 -25.55 -17.85 L-25.1 -17.6 -22.55 -16.0 -22.0 -16.4 -21.85 -16.5 -19.55 -16.55 Q-18.8 -16.25 -18.35 -15.8 L-18.0 -15.3 Q-17.4 -14.3 -17.75 -13.05 L-16.9 -12.5 -17.1 -12.2 -17.15 -12.1 -17.2 -12.1 -17.95 -12.55 -18.45 -11.85 -18.2 -11.7 -17.6 -11.3 -17.65 -11.25 -17.85 -10.9 -17.9 -10.85 -18.85 -11.4 Q-19.1 -11.2 -19.45 -11.1 -19.7 -10.95 -20.0 -10.75 L-20.0 -10.7 -19.85 -10.25 -19.95 -10.05 -20.0 -10.05 -20.2 -10.15 -21.75 -11.25 -22.25 -11.65 -22.1 -11.9 -22.05 -11.95 -22.0 -11.95 -22.0 -12.0 Q-20.65 -11.25 -19.65 -11.7 L-19.45 -11.75 -22.05 -13.35 -22.95 -13.9 Q-23.85 -13.05 -25.05 -13.25 -25.7 -13.35 -26.35 -13.85 L-26.8 -14.3 Q-27.45 -15.3 -27.25 -16.5 L-27.25 -16.55 -27.45 -16.65 -28.1 -17.1 -27.95 -17.45 -27.9 -17.55 -27.85 -17.55 -27.45 -17.35 -27.0 -17.1 -26.6 -17.85 -26.7 -17.85 -27.3 -18.25 -27.4 -18.35 -27.25 -18.65 M-15.75 -26.35 L-15.75 -26.3 Q-15.1 -25.05 -14.15 -25.1 L-15.55 -27.7 -15.7 -27.9 Q-16.1 -27.2 -15.75 -26.35 M-15.25 -28.4 L-15.25 -28.3 -13.75 -25.65 -13.75 -25.6 -13.5 -25.2 -12.75 -25.45 -13.0 -26.0 -14.5 -28.7 -15.25 -28.4 M-16.45 -29.4 L-16.4 -29.4 -16.4 -29.45 -16.0 -29.65 -15.75 -29.25 -15.5 -28.85 -14.8 -29.3 -14.85 -29.35 -15.15 -29.95 -15.2 -29.95 -15.2 -30.1 -15.1 -30.2 -14.8 -30.35 -14.25 -29.4 -14.2 -29.4 -13.45 -29.6 -13.45 -29.75 -13.3 -30.0 -13.15 -30.15 -13.1 -30.1 -11.8 -28.0 -11.9 -27.85 -12.1 -27.75 Q-12.9 -28.65 -13.85 -28.75 L-13.6 -28.3 -12.15 -25.6 -11.3 -25.75 Q-10.15 -25.75 -9.3 -24.65 -8.8 -24.0 -8.65 -23.35 L-8.6 -22.75 -8.65 -22.2 -9.5 -20.7 -9.5 -20.65 -9.1 -19.95 -9.05 -19.8 -9.15 -19.7 -9.45 -19.55 -9.7 -19.95 -9.95 -20.35 -10.7 -19.95 -10.6 -19.75 -10.25 -19.1 -10.3 -19.1 -10.3 -19.05 -10.7 -18.85 -11.25 -19.8 -11.95 -19.8 -12.6 -19.8 -12.7 -19.3 -12.75 -19.3 -12.9 -19.2 -12.95 -19.2 -13.1 -19.4 -13.35 -19.95 -13.85 -21.1 -14.1 -21.7 -13.75 -21.9 -13.7 -21.9 Q-12.9 -20.6 -11.8 -20.45 L-11.6 -20.4 -13.05 -23.1 -13.55 -24.05 Q-14.75 -23.75 -15.7 -24.5 L-16.45 -25.45 -16.55 -25.7 -16.7 -26.3 Q-16.75 -27.05 -16.45 -27.7 L-16.0 -28.4 -16.0 -28.45 -15.95 -28.45 -16.45 -29.4 M1.65 30.1 Q1.7 28.7 0.85 28.25 L0.75 31.2 0.8 31.45 0.95 31.35 1.1 31.2 1.45 30.75 1.65 30.15 1.65 30.1 M0.3 28.5 L0.25 28.05 -0.55 27.85 -0.6 28.45 -0.65 31.55 -0.6 31.55 0.2 31.65 0.2 31.6 0.3 28.55 0.3 28.5 M15.5 28.65 L16.25 28.35 16.25 28.3 14.8 25.6 14.5 25.15 14.5 25.2 13.75 25.4 14.0 25.95 15.5 28.65 M16.7 27.9 L16.7 27.85 Q17.1 27.2 16.75 26.3 16.1 25.0 15.15 25.05 L16.55 27.65 16.7 27.9 M10.65 23.1 Q11.4 24.55 12.6 24.45 L11.25 21.95 11.2 21.9 10.8 21.2 Q10.35 21.8 10.45 22.55 L10.65 23.1 M12.3 21.0 L12.0 20.5 11.95 20.5 11.2 20.8 11.7 21.65 13.15 24.35 13.2 24.35 14.0 24.1 13.75 23.7 12.3 21.0 M9.6 22.7 L9.65 22.15 10.55 20.65 10.5 20.65 10.05 19.75 10.1 19.75 10.2 19.65 10.5 19.5 10.5 19.55 10.95 20.3 11.0 20.3 11.7 19.95 11.6 19.7 11.3 19.05 Q11.5 18.85 11.7 18.8 L11.75 18.8 12.3 19.8 12.95 19.8 13.6 19.75 13.65 19.75 13.7 19.25 13.75 19.25 13.95 19.15 14.1 19.35 14.9 21.1 15.1 21.65 14.75 21.85 Q13.95 20.55 12.8 20.4 L12.6 20.4 14.05 23.05 14.55 24.0 Q15.8 23.7 16.75 24.5 17.25 24.9 17.55 25.65 L17.7 26.25 Q17.75 27.45 17.0 28.4 L17.45 29.35 17.4 29.4 17.05 29.6 16.75 29.25 16.5 28.8 15.8 29.25 15.85 29.3 16.15 29.9 16.2 29.95 16.2 30.05 16.15 30.1 16.1 30.15 15.8 30.3 15.25 29.35 15.25 29.4 14.5 29.55 14.45 29.7 14.3 30.0 14.15 30.1 14.1 30.05 12.8 27.95 12.85 27.95 12.9 27.85 13.1 27.7 Q13.9 28.65 14.85 28.7 L14.65 28.25 13.2 25.6 12.3 25.7 Q11.15 25.7 10.3 24.6 L9.7 23.3 9.6 22.7 M0.45 23.3 L0.4 22.7 -0.45 22.6 -0.45 23.55 -0.5 26.65 0.3 26.85 0.3 26.4 0.45 23.3 M1.0 21.1 L1.0 21.15 1.0 22.25 1.6 22.55 2.15 22.9 2.2 22.9 2.5 22.5 2.75 22.5 2.75 22.55 2.8 22.8 2.6 24.65 2.5 25.3 2.1 25.25 Q2.05 23.75 1.15 23.05 L1.0 22.95 0.9 25.95 0.85 27.0 Q2.05 27.4 2.5 28.55 2.75 29.15 2.65 29.95 L2.45 30.55 2.35 30.8 1.9 31.35 1.1 31.9 0.8 32.05 0.75 32.05 0.7 33.1 0.2 33.15 0.2 33.1 0.15 32.65 0.15 32.15 -0.65 32.2 -0.65 32.25 -0.7 32.95 -0.7 33.1 -0.75 33.1 -1.2 33.1 -1.2 32.05 -1.25 32.05 -2.0 31.8 -2.1 31.9 -2.15 31.95 -2.5 32.1 -2.55 32.05 -2.6 29.6 -2.6 29.55 -2.25 29.5 Q-2.05 30.7 -1.2 31.3 L-1.2 30.75 -1.1 27.7 -1.9 27.4 Q-2.95 26.8 -3.1 25.45 L-3.0 24.0 -2.75 23.45 -2.65 23.3 -2.35 22.85 -1.35 22.25 -0.95 22.1 -0.9 21.1 -0.45 21.1 -0.4 21.15 -0.4 22.05 0.45 22.1 0.45 21.85 0.5 21.1 0.55 21.1 1.0 21.1 M20.55 13.75 L20.5 13.75 19.8 13.35 Q19.7 14.1 20.2 14.7 L20.65 15.1 Q22.0 15.9 22.95 15.3 L20.55 13.75 M27.5 14.75 Q26.3 14.0 25.5 14.5 L28.0 16.05 28.25 16.15 Q28.25 15.35 27.5 14.8 L27.5 14.75 M-26.2 -17.35 L-26.45 -17.1 -26.55 -16.85 -26.55 -16.8 -23.9 -15.2 -23.5 -14.95 -23.0 -15.45 -22.95 -15.55 -23.45 -15.9 -26.05 -17.5 -26.1 -17.5 -26.1 -17.45 -26.2 -17.35 M-31.6 -1.9 L-31.55 -1.9 -29.1 -1.95 -29.05 -1.95 -29.0 -1.6 Q-30.2 -1.4 -30.75 -0.6 L-30.25 -0.55 -27.2 -0.45 -26.9 -1.3 Q-26.3 -2.3 -24.9 -2.5 L-23.5 -2.4 -22.95 -2.15 -22.8 -2.05 -22.35 -1.7 -21.75 -0.7 -21.6 -0.3 -20.6 -0.3 -20.6 -0.25 -20.6 0.2 -21.55 0.2 -21.55 0.25 -21.6 1.05 -21.35 1.1 -20.6 1.15 -20.6 1.65 -21.75 1.65 -22.05 2.2 -22.4 2.8 -22.0 3.15 -22.0 3.4 -22.25 3.4 -24.15 3.25 -24.75 3.15 -24.8 3.15 -24.75 2.75 Q-23.25 2.7 -22.55 1.8 L-22.45 1.65 -25.45 1.55 -26.5 1.5 Q-26.9 2.7 -28.05 3.15 L-29.45 3.3 -30.05 3.1 -30.3 3.0 -30.85 2.55 -31.4 1.75 -31.55 1.45 -31.55 1.4 -32.6 1.35 -32.6 1.3 -32.65 0.85 -32.6 0.85 -32.15 0.8 -31.65 0.8 -31.7 -0.05 -31.75 -0.05 -32.45 -0.05 -32.6 -0.05 -32.6 -0.1 -32.6 -0.55 -32.6 -0.6 -31.55 -0.6 -31.5 -0.6 -31.3 -1.35 -31.35 -1.4 -31.4 -1.45 -31.45 -1.5 -31.6 -1.9 M-21.9 -14.95 L-21.9 -14.9 -22.4 -14.4 -22.5 -14.3 -22.1 -14.1 -19.5 -12.45 -19.45 -12.45 -18.95 -12.15 -18.85 -12.2 -18.8 -12.25 -18.6 -12.5 -18.45 -12.85 -19.25 -13.35 -21.9 -14.95 M-21.45 -15.35 L-21.45 -15.3 -19.0 -13.8 -18.25 -13.4 Q-18.2 -14.15 -18.65 -14.75 L-19.1 -15.1 Q-20.45 -15.95 -21.45 -15.35 M-26.5 -16.1 L-26.7 -16.2 Q-26.7 -15.4 -26.0 -14.8 L-25.95 -14.8 Q-24.8 -14.05 -23.95 -14.55 L-26.5 -16.1 M-23.05 -0.35 L-22.25 -0.35 -22.4 -0.7 -22.6 -0.95 -22.9 -1.15 -23.25 -1.35 -23.8 -1.45 Q-25.4 -1.5 -25.95 -0.45 L-23.1 -0.35 -23.05 -0.35 M-12.85 19.85 Q-13.6 19.75 -14.2 20.25 L-14.55 20.65 Q-15.4 22.0 -14.8 23.0 L-13.25 20.55 -12.85 19.85 M-11.65 20.45 L-11.95 20.15 -12.3 20.0 -12.8 20.8 -14.4 23.45 -14.35 23.45 -13.85 23.95 -13.75 24.05 -13.55 23.65 -11.9 21.05 -11.9 21.0 -11.6 20.5 -11.65 20.5 -11.65 20.45 M-19.95 12.55 L-19.95 12.5 -20.3 11.75 -21.15 12.2 -23.85 13.7 -23.6 14.5 -23.2 14.3 Q-21.85 13.5 -20.5 12.85 L-20.45 12.85 -19.95 12.55 M-11.95 18.45 L-11.95 18.5 -11.65 18.65 -11.55 18.7 -11.55 18.75 -12.0 19.5 -12.0 19.55 -11.3 20.0 -11.15 19.75 -10.75 19.2 -10.7 19.2 -10.35 19.4 -10.3 19.45 -10.85 20.4 -10.55 21.0 -10.2 21.55 -10.15 21.55 -9.7 21.4 -9.5 21.5 -9.5 21.55 -9.6 21.75 -10.7 23.3 -11.1 23.8 -11.35 23.65 -11.4 23.6 -11.45 23.6 -11.45 23.55 Q-10.7 22.2 -11.15 21.2 L-11.2 21.0 -12.8 23.6 -13.35 24.5 Q-12.55 25.4 -12.7 26.6 L-13.3 27.9 -13.75 28.35 Q-14.75 29.0 -15.95 28.8 L-16.0 28.8 -16.15 29.0 -16.55 29.65 -16.6 29.65 -16.9 29.5 -17.0 29.45 -17.0 29.4 -16.8 29.0 -16.55 28.6 Q-16.95 28.35 -17.3 28.2 L-17.35 28.25 -17.7 28.85 -17.8 28.95 Q-18.0 28.9 -18.15 28.8 L-18.2 28.7 -18.25 28.7 -17.7 27.75 -17.75 27.65 -18.25 27.2 -18.4 27.25 -18.85 27.2 -18.85 27.1 -17.7 24.95 -17.65 24.95 -17.3 25.05 -17.3 25.1 Q-17.75 26.2 -17.35 27.1 L-17.05 26.65 -15.45 24.1 -15.85 23.55 -16.0 23.4 Q-16.55 22.4 -16.05 21.1 L-15.25 19.9 -14.75 19.55 Q-13.75 18.95 -12.5 19.3 L-11.95 18.45 M-19.25 10.6 L-19.15 10.7 -19.0 11.0 -19.0 11.05 -19.4 11.25 -19.8 11.5 -19.45 12.25 -19.4 12.25 -19.2 12.15 -18.55 11.8 -18.55 11.85 -18.3 12.25 -19.25 12.8 -19.3 13.5 -19.25 14.15 -18.75 14.25 -18.75 14.3 -18.65 14.45 -18.65 14.5 -18.85 14.65 -19.4 14.9 -20.55 15.4 -21.15 15.65 -21.35 15.3 -21.35 15.25 Q-20.05 14.45 -19.9 13.35 L-19.9 13.15 -22.55 14.6 -23.5 15.1 Q-23.2 16.3 -24.0 17.25 -24.3 17.7 -24.9 18.0 L-25.15 18.1 -25.75 18.25 -27.15 18.0 -27.85 17.55 -27.9 17.55 -27.9 17.5 -28.85 18.0 -28.85 17.95 -28.9 17.95 -29.1 17.55 -28.75 17.3 -28.3 17.05 -28.75 16.35 -28.8 16.4 -29.4 16.7 -29.4 16.75 -29.55 16.75 -29.65 16.65 -29.8 16.35 -28.85 15.8 -28.85 15.75 -29.05 15.0 -29.2 15.0 -29.45 14.85 -29.6 14.7 -29.55 14.65 -27.45 13.35 -27.35 13.45 -27.2 13.65 Q-28.15 14.45 -28.2 15.4 L-27.75 15.15 -25.05 13.7 -25.2 12.85 Q-25.2 11.7 -24.1 10.85 -23.45 10.35 -22.8 10.2 L-22.2 10.15 -21.65 10.2 -20.15 11.05 -19.4 10.65 -19.25 10.6 M-10.65 -21.7 L-12.15 -24.4 -12.95 -24.15 -12.75 -23.75 -11.3 -21.05 -11.3 -21.0 -10.95 -20.5 Q-10.6 -20.55 -10.2 -20.85 L-10.65 -21.7 M-9.45 -22.6 L-9.65 -23.15 Q-10.4 -24.55 -11.55 -24.5 L-10.2 -22.0 -10.2 -21.95 -9.75 -21.25 Q-9.3 -21.85 -9.45 -22.6 M-15.0 24.5 L-15.35 25.0 -16.95 27.65 -16.8 27.8 -16.55 28.0 -16.3 28.1 -16.25 28.1 -14.65 25.45 -14.4 25.05 -14.45 25.05 -14.9 24.55 -15.0 24.5 M-1.55 23.1 L-1.8 23.4 -1.95 23.75 -2.05 24.3 Q-2.15 25.9 -1.1 26.45 L-1.0 23.6 -1.0 23.55 -1.0 22.75 -1.3 22.9 -1.55 23.1 M-14.25 27.5 Q-13.5 26.35 -14.0 25.5 L-15.55 28.05 -15.65 28.3 Q-14.85 28.25 -14.3 27.55 L-14.25 27.5 M-27.35 17.25 L-25.8 17.3 Q-24.5 16.65 -24.55 15.7 -25.85 16.35 -27.15 17.1 L-27.35 17.25 M-24.7 15.05 L-24.9 14.3 -25.45 14.55 -28.15 16.05 -27.85 16.8 -27.8 16.8 -25.1 15.3 -25.05 15.3 -24.65 15.05 -24.7 15.05 M-20.7 11.3 Q-21.3 10.9 -22.05 11.0 L-22.6 11.2 Q-24.0 11.95 -23.95 13.1 L-21.45 11.75 -21.4 11.75 -20.7 11.3 M-30.25 2.1 L-29.6 2.25 Q-28.2 2.35 -27.75 1.5 L-30.7 1.4 -30.95 1.45 -30.85 1.6 -30.7 1.75 -30.25 2.1 M-27.55 0.9 L-27.35 0.1 -27.95 0.05 -31.0 0.0 -31.05 0.0 -31.15 0.8 -31.1 0.85 -28.0 0.9 -27.55 0.9 M-22.2 1.0 L-22.1 0.2 -23.05 0.2 -26.15 0.1 -26.15 0.15 -26.3 0.95 -25.85 0.95 -22.8 1.05 -22.2 1.05 -22.2 1.0" fill="#010101" fill-rule="evenodd" stroke="none"/>
  </g>
</svg>
