<?xml version="1.0" encoding="UTF-8" standalone="no"?>
<svg xmlns:ffdec="https://www.free-decompiler.com/flash" xmlns:xlink="http://www.w3.org/1999/xlink" ffdec:objectType="shape" height="56.15px" width="49.4px" xmlns="http://www.w3.org/2000/svg">
  <g transform="matrix(1.0, 0.0, 0.0, 1.0, 24.7, 28.05)">
    <path d="M9.35 -19.85 L9.25 -19.6 Q13.75 -17.8 17.45 -14.1 24.7 -6.85 24.7 3.4 24.7 13.65 17.45 20.85 10.25 28.1 0.0 28.1 -10.25 28.1 -17.5 20.85 -24.7 13.65 -24.7 3.4 -24.7 -6.85 -17.5 -14.1 -14.25 -17.3 -10.45 -19.05 L-10.3 -25.3 -10.25 -25.3 Q-6.7 -27.3 -2.65 -27.35 L-2.25 -25.15 -1.25 -25.05 Q1.85 -25.2 0.95 -28.05 L1.05 -28.05 1.05 -27.95 Q5.35 -27.4 8.65 -26.0 L8.75 -26.0 9.35 -19.85" fill="#2c2c2c" fill-rule="evenodd" stroke="none"/>
  </g>
</svg>
