<?xml version="1.0" encoding="UTF-8" standalone="no"?>
<svg xmlns:ffdec="https://www.free-decompiler.com/flash" xmlns:xlink="http://www.w3.org/1999/xlink" ffdec:objectType="shape" height="76.0px" width="49.4px" xmlns="http://www.w3.org/2000/svg">
  <g transform="matrix(1.0, 0.0, 0.0, 1.0, 24.7, 37.8)">
    <path d="M-10.05 -32.55 Q-11.85 -33.05 -12.15 -33.9 L-12.2 -34.1 -12.1 -34.15 Q-11.7 -36.65 -10.8 -35.95 L-10.75 -35.8 -10.6 -35.75 -10.6 -35.25 -10.65 -35.05 Q-11.95 -32.6 -9.6 -33.6 L-9.45 -33.65 -9.25 -33.6 Q-8.6 -32.75 -9.9 -32.5 L-10.05 -32.55" fill="#424242" fill-opacity="0.6" fill-rule="evenodd" stroke="none"/>
    <path d="M-11.5 -37.8 L-8.3 -36.2 -8.35 -36.0 -8.5 -35.95 -10.6 -35.75 -10.75 -35.8 -10.8 -35.95 -10.0 -36.55 -11.5 -37.8" fill="#4b4b4b" fill-opacity="0.6" fill-rule="evenodd" stroke="none"/>
    <path d="M-10.6 -35.25 L-10.6 -35.75 -8.5 -35.95 -7.8 -35.45 -9.45 -33.65 -10.6 -35.25" fill="#b9b9b9" fill-opacity="0.6" fill-rule="evenodd" stroke="none"/>
    <path d="M-9.45 -33.65 L-9.6 -33.6 Q-11.95 -32.6 -10.65 -35.05 L-10.6 -35.25 -9.45 -33.65" fill="#7f7f7f" fill-opacity="0.6" fill-rule="evenodd" stroke="none"/>
    <path d="M-12.2 -34.1 L-11.5 -37.8 -10.0 -36.55 -10.8 -35.95 Q-11.7 -36.65 -12.1 -34.15 L-12.2 -34.1" fill="#b4b4b4" fill-opacity="0.6" fill-rule="evenodd" stroke="none"/>
    <path d="M0.3 -23.95 Q1.15 -21.0 1.1 -17.85 L1.1 -17.4 1.05 -16.85 1.0 -16.75 0.85 -15.75 0.65 -14.65 -0.35 -14.55 Q-1.5 -14.6 -2.1 -15.0 L-2.25 -15.15 Q-2.9 -15.7 -2.75 -16.75 L-2.65 -17.2 -2.55 -17.55 -2.65 -17.55 Q-2.5 -21.3 -3.95 -24.8 L-4.0 -25.0 Q-6.05 -29.65 -10.25 -32.5 L-10.05 -32.55 -9.9 -32.5 Q-8.6 -32.75 -9.25 -33.6 L-9.45 -33.65 -7.8 -35.45 -8.5 -35.95 -8.35 -36.0 -5.7 -33.75 Q-2.45 -30.65 -0.65 -26.5 L-0.3 -25.7 0.0 -25.0 0.3 -23.95 M-0.85 -24.0 L-1.15 -25.0 Q-2.05 -27.5 -4.15 -29.75 -4.35 -27.65 -2.2 -26.3 L-2.3 -25.0 Q-2.25 -23.6 -1.1 -22.5 L-1.0 -22.45 -0.75 -22.2 -0.5 -22.0 -0.6 -22.8 -0.85 -24.0 M-0.25 -21.1 L-0.6 -21.25 -0.6 -21.2 -0.6 -21.0 Q-0.95 -20.05 -0.65 -20.0 L-0.65 -19.5 0.05 -20.3 -0.25 -21.1" fill="#585858" fill-opacity="0.6" fill-rule="evenodd" stroke="none"/>
    <path d="M-0.3 -25.7 Q0.6 -28.05 2.55 -30.15 2.75 -28.05 0.6 -26.7 0.85 -25.8 0.7 -25.0 L0.3 -23.95 0.0 -25.0 -0.3 -25.7 M-1.1 -22.5 L-0.85 -24.0 -0.6 -22.8 -0.85 -22.6 -1.0 -22.45 -1.1 -22.5" fill="#b8b8b8" fill-opacity="0.6" fill-rule="evenodd" stroke="none"/>
    <path d="M2.0 -13.75 L2.0 -13.8 Q4.9 -16.45 7.95 -14.95 5.2 -13.3 2.0 -13.75" fill="#464646" fill-opacity="0.6" fill-rule="evenodd" stroke="none"/>
    <path d="M-7.2 -13.1 L-7.9 -13.35 -0.55 -12.9 -1.35 -12.7 -7.2 -13.1" fill="#505050" fill-opacity="0.6" fill-rule="evenodd" stroke="none"/>
    <path d="M1.1 -17.85 L4.85 -17.15 8.65 -15.9 8.75 -15.9 9.05 -13.1 9.35 -9.75 9.25 -9.5 9.65 -9.35 Q13.9 -7.55 17.45 -4.0 24.7 3.25 24.7 13.5 24.7 23.75 17.45 30.95 14.25 34.15 10.5 35.95 5.7 38.2 0.0 38.2 -5.7 38.2 -10.5 35.95 -14.3 34.15 -17.5 30.95 -24.7 23.75 -24.7 13.5 -24.7 3.25 -17.5 -4.0 -14.25 -7.2 -10.45 -8.95 L-10.3 -15.2 -10.25 -15.2 Q-7.4 -16.8 -4.25 -17.15 L-2.65 -17.25 -2.65 -17.2 -2.75 -16.75 Q-2.9 -15.7 -2.25 -15.15 L-2.25 -15.05 -2.1 -15.0 Q-1.5 -14.6 -0.35 -14.55 L0.65 -14.65 0.85 -15.75 Q1.25 -16.3 1.15 -17.15 L1.1 -17.4 1.1 -17.85 M2.0 -13.75 Q5.2 -13.3 7.95 -14.95 4.9 -16.45 2.0 -13.8 L2.0 -13.75 M-7.2 -13.1 L-1.35 -12.7 -0.55 -12.9 -7.9 -13.35 -7.2 -13.1 M-16.3 28.5 Q-10.4 34.4 -2.05 34.4 6.3 34.4 12.2 28.5 18.1 22.6 18.1 14.25 18.1 5.9 12.2 0.0 6.3 -5.9 -2.05 -5.9 -10.4 -5.9 -16.3 0.0 -22.2 5.9 -22.2 14.25 -22.2 22.6 -16.3 28.5" fill="#000000" fill-opacity="0.64705884" fill-rule="evenodd" stroke="none"/>
    <path d="M-16.3 28.5 Q-22.2 22.6 -22.2 14.25 -22.2 5.9 -16.3 0.0 -10.4 -5.9 -2.05 -5.9 6.3 -5.9 12.2 0.0 18.1 5.9 18.1 14.25 18.1 22.6 12.2 28.5 6.3 34.4 -2.05 34.4 -10.4 34.4 -16.3 28.5" fill="#000000" fill-opacity="0.49803922" fill-rule="evenodd" stroke="none"/>
  </g>
</svg>
