<?xml version="1.0" encoding="UTF-8" standalone="no"?>
<svg xmlns:ffdec="https://www.free-decompiler.com/flash" xmlns:xlink="http://www.w3.org/1999/xlink" ffdec:objectType="shape" height="26.3px" width="71.55px" xmlns="http://www.w3.org/2000/svg">
  <g transform="matrix(1.0, 0.0, 0.0, 1.0, 73.6, -10.2)">
    <path d="M-7.4 17.0 L-4.1 16.55 -3.8 18.6 Q-3.2 24.85 -6.85 30.25 -21.4 31.55 -33.55 35.2 -36.4 32.7 -37.6 29.15 -27.8 22.3 -17.4 19.1 L-17.5 19.5 Q-17.8 21.75 -16.4 23.6 -15.0 25.45 -12.75 25.75 -10.45 26.1 -8.55 24.7 -6.65 23.35 -6.35 21.1 -6.05 18.85 -7.4 17.0 M-56.35 20.1 Q-57.3 21.2 -57.5 22.7 -57.8 24.95 -56.4 26.8 -55.0 28.65 -52.75 28.95 -50.45 29.3 -48.55 27.9 L-47.95 27.45 -47.25 28.25 Q-48.05 31.6 -50.1 33.75 -59.1 28.45 -69.75 25.25 -72.5 19.35 -72.15 13.15 L-71.95 11.1 Q-61.6 15.6 -56.35 20.1" fill="#ffffff" fill-rule="evenodd" stroke="none"/>
    <path d="M-7.4 17.0 Q-6.05 18.85 -6.35 21.1 -6.65 23.35 -8.55 24.7 -10.45 26.1 -12.75 25.75 -15.0 25.45 -16.4 23.6 -17.8 21.75 -17.5 19.5 L-17.4 19.1 Q-12.8 17.85 -7.4 17.0 M-47.95 27.45 L-48.55 27.9 Q-50.45 29.3 -52.75 28.95 -55.0 28.65 -56.4 26.8 -57.8 24.95 -57.5 22.7 -57.3 21.2 -56.35 20.1 -51.85 23.45 -47.95 27.45" fill="#000000" fill-rule="evenodd" stroke="none"/>
    <path d="M-7.4 17.0 L-4.1 16.55 -2.55 16.35 M-4.1 16.55 L-3.8 18.6 Q-3.2 24.85 -6.85 30.25 -21.4 31.55 -33.55 35.2 L-35.95 36.0 M-7.4 17.0 Q-12.8 17.85 -17.4 19.1 -27.8 22.3 -37.6 29.15 -36.4 32.7 -33.55 35.2 M-37.6 29.15 L-39.7 31.25 M-47.95 27.45 Q-51.85 23.45 -56.35 20.1 -61.6 15.6 -71.95 11.1 L-72.15 13.15 Q-72.5 19.35 -69.75 25.25 -59.1 28.45 -50.1 33.75 -48.05 31.6 -47.25 28.25 L-47.95 27.45 M-71.95 11.1 L-73.1 10.7 M-50.1 33.75 L-48.35 34.85 M-47.25 28.25 L-45.7 30.6" fill="none" stroke="#000000" stroke-linecap="round" stroke-linejoin="round" stroke-width="1.0"/>
  </g>
</svg>
