<?xml version="1.0" encoding="UTF-8" standalone="no"?>
<svg xmlns:ffdec="https://www.free-decompiler.com/flash" xmlns:xlink="http://www.w3.org/1999/xlink" ffdec:objectType="shape" height="40.3px" width="40.3px" xmlns="http://www.w3.org/2000/svg">
  <g transform="matrix(1.0, 0.0, 0.0, 1.0, 21.45, 15.3)">
    <path d="M-4.6 -4.65 L-3.65 -3.85 Q-1.6 -1.75 -1.6 1.15 -1.6 4.05 -3.65 6.15 -5.7 8.2 -8.65 8.2 -11.55 8.2 -13.6 6.15 -15.7 4.05 -15.7 1.15 -15.7 -1.75 -13.6 -3.85 L-12.65 -4.65 Q-10.9 -5.9 -8.65 -5.9 -6.35 -5.9 -4.6 -4.65" fill="#dddddd" fill-opacity="0.4" fill-rule="evenodd" stroke="none"/>
    <path d="M4.7 -4.65 Q7.3 -1.2 7.3 3.3 7.3 6.6 5.9 9.35 4.95 11.15 3.4 12.7 -0.5 16.6 -6.0 16.6 -11.5 16.6 -15.4 12.7 -16.95 11.15 -17.85 9.35 -19.3 6.6 -19.3 3.3 -19.3 -1.2 -16.65 -4.65 L-15.4 -6.1 Q-11.5 -10.0 -6.0 -10.0 -0.5 -10.0 3.4 -6.1 L4.7 -4.65 M-4.6 -4.65 Q-6.35 -5.9 -8.65 -5.9 -10.9 -5.9 -12.65 -4.65 L-13.6 -3.85 Q-15.7 -1.75 -15.7 1.15 -15.7 4.05 -13.6 6.15 -11.55 8.2 -8.65 8.2 -5.7 8.2 -3.65 6.15 -1.6 4.05 -1.6 1.15 -1.6 -1.75 -3.65 -3.85 L-4.6 -4.65" fill="#b3b3b3" fill-opacity="0.4" fill-rule="evenodd" stroke="none"/>
    <path d="M4.7 -4.65 L3.4 -6.1 Q-0.5 -10.0 -6.0 -10.0 -11.5 -10.0 -15.4 -6.1 L-16.65 -4.65 Q-19.3 -1.2 -19.3 3.3 -19.3 6.6 -17.85 9.35 -16.95 11.15 -15.4 12.7 -11.5 16.6 -6.0 16.6 -0.5 16.6 3.4 12.7 4.95 11.15 5.9 9.35 7.3 6.6 7.3 3.3 7.3 -1.2 4.7 -4.65 M12.95 19.1 Q7.05 25.0 -1.3 25.0 -9.65 25.0 -15.55 19.1 -21.45 13.2 -21.45 4.85 -21.45 -3.5 -15.55 -9.4 -9.65 -15.3 -1.3 -15.3 7.05 -15.3 12.95 -9.4 18.85 -3.5 18.85 4.85 18.85 13.2 12.95 19.1" fill="#787878" fill-opacity="0.4" fill-rule="evenodd" stroke="none"/>
  </g>
</svg>
