<?xml version="1.0" encoding="UTF-8" standalone="no"?>
<svg xmlns:ffdec="https://www.free-decompiler.com/flash" xmlns:xlink="http://www.w3.org/1999/xlink" ffdec:objectType="shape" height="28.25px" width="25.2px" xmlns="http://www.w3.org/2000/svg">
  <g transform="matrix(1.0, 0.0, 0.0, 1.0, 13.6, 12.7)">
    <path d="M-1.55 -9.45 L2.55 -2.6 3.05 -2.6 11.2 -2.6 10.55 -1.75 11.2 -1.75 4.85 6.3 4.75 6.45 7.1 9.25 11.6 14.7 10.25 13.95 11.6 15.55 -2.05 7.8 -8.45 15.2 -8.25 14.15 -8.45 14.35 -6.75 4.4 -13.6 -1.4 -12.6 -1.4 -13.6 -2.25 -3.5 -2.25 -3.5 -12.7 -1.55 -9.45 M3.1 7.0 L3.1 6.85 3.2 6.4 3.1 6.0 Q3.1 5.55 3.35 5.25 L8.0 -0.7 2.4 -0.7 1.8 -0.85 1.4 -1.25 -1.55 -6.15 -2.55 -7.8 -2.55 -2.3 -2.55 -2.15 -2.55 -1.45 -2.55 -1.3 -2.85 -0.65 Q-3.2 -0.3 -3.7 -0.3 L-7.4 -0.3 -9.6 -0.3 -6.05 2.7 -5.75 3.2 Q-5.65 3.45 -5.7 3.75 L-5.75 4.05 Q-5.65 4.3 -5.7 4.6 L-6.65 10.2 -5.8 9.25 -3.1 6.1 -2.75 5.85 -2.4 5.75 Q-2.0 5.65 -1.65 5.9 L5.2 9.75 3.35 7.55 3.1 7.0" fill="#000000" fill-rule="evenodd" stroke="none"/>
    <path d="M3.05 -2.6 L2.55 -2.6 -1.55 -9.45 -1.55 -9.65 2.4 -3.1 2.8 -2.7 3.05 -2.6 M7.1 9.25 L4.75 6.45 4.85 6.3 7.5 9.5 7.1 9.25" fill="#000000" fill-opacity="0.49803922" fill-rule="evenodd" stroke="none"/>
    <path d="M-1.55 -6.15 L1.4 -1.25 1.8 -0.85 2.4 -0.7 8.0 -0.7 3.35 5.25 Q3.1 5.55 3.1 6.0 L3.2 6.4 3.1 6.85 3.1 7.0 -0.65 4.9 Q-1.0 4.65 -1.4 4.75 -1.8 4.8 -2.1 5.1 L-2.75 5.85 -3.1 6.1 -5.8 9.25 -4.7 2.75 -4.75 2.2 -5.05 1.7 -7.4 -0.3 -3.7 -0.3 Q-3.2 -0.3 -2.85 -0.65 L-2.55 -1.3 -2.55 -1.45 -2.55 -2.15 Q-2.15 -2.2 -1.85 -2.5 -1.55 -2.85 -1.55 -3.3 L-1.55 -6.15" fill="#000000" fill-opacity="0.64705884" fill-rule="evenodd" stroke="none"/>
  </g>
</svg>
