<?xml version="1.0" encoding="UTF-8" standalone="no"?>
<svg xmlns:ffdec="https://www.free-decompiler.com/flash" xmlns:xlink="http://www.w3.org/1999/xlink" ffdec:objectType="shape" height="70.4px" width="70.4px" xmlns="http://www.w3.org/2000/svg">
  <g transform="matrix(1.0, 0.0, 0.0, 1.0, 34.85, 34.95)">
    <path d="M9.95 -28.55 L16.35 -28.55 16.35 -22.15 22.75 -22.15 22.75 -15.75 29.15 -15.75 29.15 -9.35 22.75 -9.35 22.75 -15.75 16.35 -15.75 16.35 -22.15 9.95 -22.15 9.95 -28.55 M29.15 9.85 L29.15 16.25 22.75 16.25 22.75 22.65 16.35 22.65 16.35 29.05 9.95 29.05 9.95 22.65 16.35 22.65 16.35 16.25 22.75 16.25 22.75 9.85 29.15 9.85 M-9.25 29.05 L-15.65 29.05 -15.65 22.65 -22.05 22.65 -22.05 16.25 -28.45 16.25 -28.45 9.85 -22.05 9.85 -22.05 16.25 -15.65 16.25 -15.65 22.65 -9.25 22.65 -9.25 29.05 M-28.45 -9.35 L-28.45 -15.75 -22.05 -15.75 -22.05 -22.15 -15.65 -22.15 -15.65 -28.55 -9.25 -28.55 -9.25 -22.15 -15.65 -22.15 -15.65 -15.75 -22.05 -15.75 -22.05 -9.35 -28.45 -9.35 M9.95 -22.15 L9.95 -15.75 16.35 -15.75 16.35 -9.35 22.75 -9.35 22.75 -2.95 16.35 -2.95 16.35 -9.35 9.95 -9.35 9.95 -15.75 3.75 -15.75 3.95 -22.15 9.95 -22.15 M22.75 3.65 L22.75 9.85 16.35 9.85 16.35 16.25 9.95 16.25 9.95 22.65 3.75 22.65 3.95 16.25 9.95 16.25 9.95 9.85 16.35 9.85 16.35 3.85 22.75 3.65 M-2.85 22.65 L-9.25 22.65 -9.25 16.25 -15.65 16.25 -15.65 9.85 -22.05 9.85 -22.05 3.85 -15.65 3.65 -15.65 9.85 -9.25 9.85 -9.25 16.25 -2.85 16.25 -2.85 22.65 M-22.05 -2.95 L-22.05 -9.35 -15.65 -9.35 -15.65 -15.75 -9.25 -15.75 -9.25 -22.15 -2.85 -22.15 -2.85 -15.75 -9.25 -15.75 -9.25 -9.35 -15.65 -9.35 -15.65 -2.95 -22.05 -2.95" fill="#a7a7a7" fill-rule="evenodd" stroke="none"/>
    <path d="M29.15 -9.35 L35.55 -9.35 35.55 9.85 29.15 9.85 29.15 -9.35 M9.95 29.05 L9.95 35.45 -9.25 35.45 -9.25 29.05 9.95 29.05 M-28.45 9.85 L-34.85 9.85 -34.85 -9.35 -28.45 -9.35 -28.45 9.85 M-9.25 -28.55 L-9.25 -34.95 9.95 -34.95 9.95 -28.55 -9.25 -28.55 M22.75 -2.95 L22.75 3.65 16.35 3.85 16.35 -2.95 22.75 -2.95 M3.75 22.65 L-2.85 22.65 -2.85 16.25 3.95 16.25 3.75 22.65 M-22.05 3.85 L-22.05 -2.95 -15.65 -2.95 -15.65 3.65 -22.05 3.85 M-2.85 -22.15 L3.95 -22.15 3.75 -15.75 -2.85 -15.75 -2.85 -22.15" fill="#cdcdcd" fill-rule="evenodd" stroke="none"/>
  </g>
</svg>
