<?xml version="1.0" encoding="UTF-8" standalone="no"?>
<svg xmlns:ffdec="https://www.free-decompiler.com/flash" xmlns:xlink="http://www.w3.org/1999/xlink" ffdec:objectType="shape" height="57.6px" width="57.6px" xmlns="http://www.w3.org/2000/svg">
  <g transform="matrix(1.0, 0.0, 0.0, 1.0, 28.45, 28.7)">
    <path d="M16.35 -9.5 L16.35 -15.9 22.75 -15.9 22.75 -9.5 16.35 -9.5 M9.95 -15.9 L9.95 -22.3 16.35 -22.3 16.35 -15.9 9.95 -15.9 M22.75 -9.5 L29.15 -9.5 29.15 9.7 22.75 9.7 22.75 16.1 16.35 16.1 16.35 22.5 9.95 22.5 9.95 28.9 -9.25 28.9 -9.25 22.5 -15.65 22.5 -15.65 16.1 -22.05 16.1 -22.05 9.7 -28.45 9.7 -28.45 -9.5 -22.05 -9.5 -22.05 -15.9 -15.65 -15.9 -15.65 -22.3 -9.25 -22.3 -9.25 -28.7 9.95 -28.7 9.95 -22.3 -9.25 -22.3 -9.25 -15.9 -15.65 -15.9 -15.65 -9.5 -22.05 -9.5 -22.05 9.7 -15.65 9.7 -15.65 16.1 -9.25 16.1 -9.25 22.5 9.95 22.5 9.95 16.1 16.35 16.1 16.35 9.7 22.75 9.7 22.75 -9.5" fill="#000000" fill-rule="evenodd" stroke="none"/>
  </g>
</svg>
