<?xml version="1.0" encoding="UTF-8" standalone="no"?>
<svg xmlns:ffdec="https://www.free-decompiler.com/flash" xmlns:xlink="http://www.w3.org/1999/xlink" ffdec:objectType="shape" height="304.85px" width="264.45px" xmlns="http://www.w3.org/2000/svg">
  <g transform="matrix(1.0, 0.0, 0.0, 1.0, 128.7, 152.45)">
    <path d="M-119.55 9.3 Q-115.85 17.55 -114.15 28.0 -110.65 48.6 -115.7 68.95 -107.0 72.4 -98.55 76.85 -79.6 86.85 -65.15 102.6 L-128.3 77.15 -119.55 9.3 M-115.25 -69.3 Q-113.9 -60.0 -113.55 -50.5 -112.7 -29.05 -119.1 -8.7 L-128.7 -76.1 -65.55 -102.45 Q-70.85 -95.1 -79.05 -88.45 -95.15 -75.1 -115.25 -69.3 M3.1 137.4 Q10.45 131.55 18.55 126.5 36.65 115.05 57.5 110.45 L3.95 152.4 -50.45 110.9 Q-41.45 111.8 -31.6 115.6 -12.0 122.85 3.1 137.4 M123.1 23.25 Q124.95 16.05 128.4 9.45 126.45 38.5 133.6 67.4 L135.75 75.6 Q103.2 84.8 73.75 102.4 84.55 86.05 104.3 76.1 113.1 71.6 122.35 68.8 116.85 46.1 123.1 23.25 M127.1 -78.25 L135.3 -75.95 Q127.0 -43.15 127.5 -8.85 118.75 -26.4 120.05 -48.45 120.5 -58.35 122.75 -67.75 100.35 -74.35 83.7 -91.2 78.35 -96.4 74.4 -102.7 98.55 -86.45 127.1 -78.25 M19.3 -125.45 Q10.95 -130.85 3.95 -137.45 -13.0 -121.35 -35.9 -115.35 -43.1 -113.35 -50.5 -113.05 -24.35 -125.85 -2.95 -146.5 L3.1 -152.45 Q27.35 -128.85 57.3 -112.15 37.75 -113.35 19.3 -125.45" fill="#0a0a0a" fill-rule="evenodd" stroke="none"/>
  </g>
</svg>
