<?xml version="1.0" encoding="UTF-8" standalone="no"?>
<svg xmlns:ffdec="https://www.free-decompiler.com/flash" xmlns:xlink="http://www.w3.org/1999/xlink" ffdec:objectType="shape" height="59.55px" width="59.35px" xmlns="http://www.w3.org/2000/svg">
  <g transform="matrix(1.0, 0.0, 0.0, 1.0, 31.45, 30.4)">
    <path d="M-13.25 -23.4 L-12.55 -22.4 -14.05 -22.4 Q-13.9 -25.2 -10.75 -24.75 L-11.2 -23.75 -12.25 -24.1 -13.25 -23.4" fill="#7b7b7b" fill-rule="evenodd" stroke="none"/>
    <path d="M14.35 -22.95 Q16.6 -21.8 18.35 -19.9 L19.15 -18.95 Q20.0 -17.7 20.4 -16.25 22.7 -13.95 23.7 -10.55 L24.0 -9.55 Q24.7 -4.0 24.5 1.7 L24.4 5.5 22.65 7.9 Q22.8 10.15 21.7 12.05 21.35 12.65 21.15 12.25 19.45 14.2 19.9 17.25 12.45 21.85 4.15 25.05 1.85 25.95 -0.6 26.05 -5.15 26.25 -9.6 25.1 L-11.4 24.7 Q-21.5 22.35 -25.55 13.0 L-25.2 12.6 Q-25.4 12.8 -25.55 12.6 L-26.0 11.75 -24.9 11.0 -24.55 8.6 Q-27.0 8.9 -27.4 6.25 L-27.45 4.55 -27.05 4.4 Q-24.6 2.8 -24.85 0.35 -24.9 -0.4 -25.65 -0.55 L-26.25 -0.6 -25.85 -2.5 -26.2 -3.2 -25.0 -3.45 -24.75 -4.2 -26.8 -3.75 -27.3 -4.85 -26.35 -5.15 -26.5 -8.45 -25.05 -10.2 -26.05 -10.15 -24.5 -14.6 -23.75 -13.7 -23.95 -14.65 -22.4 -14.55 -21.7 -14.95 -21.35 -14.9 -20.2 -15.45 Q-20.4 -16.3 -19.75 -16.8 -18.8 -17.5 -18.0 -18.35 L-19.05 -19.35 -20.25 -17.2 -23.85 -16.0 Q-21.8 -20.55 -17.9 -23.7 L-17.0 -23.7 -16.95 -24.85 Q-16.2 -25.9 -14.8 -25.95 L-13.8 -25.85 Q-10.05 -28.05 -5.55 -28.35 -3.5 -28.45 -2.0 -27.1 L-3.7 -26.65 Q1.35 -26.6 7.55 -25.35 11.1 -24.65 14.35 -22.95 M3.45 -21.1 Q2.1 -21.4 2.0 -20.75 L2.8 -20.65 2.15 -20.0 Q2.45 -19.85 2.7 -19.75 L3.45 -21.1 M10.05 -0.3 L9.5 -3.7 9.05 -5.0 8.55 -6.35 7.65 -8.3 7.75 -8.3 Q7.45 -11.3 3.9 -11.1 L3.55 -10.15 Q-0.15 -12.4 -4.55 -12.25 -7.35 -12.0 -9.6 -10.4 -14.35 -7.15 -12.65 -1.4 L-15.3 -0.25 -14.8 0.15 -12.7 0.4 -12.9 0.8 Q-13.8 3.05 -12.4 4.85 -10.95 8.1 -8.45 10.5 L-6.25 11.85 Q-3.95 12.55 -1.5 12.85 L-0.75 12.5 -0.1 12.55 4.35 11.85 5.55 11.5 7.75 10.45 7.1 10.65 8.8 7.65 9.95 4.25 10.15 1.55 10.1 0.4 Q12.25 -1.8 14.5 0.2 14.35 -2.1 12.2 -2.75 L12.05 -1.5 Q10.7 -1.3 10.05 -0.3 M9.35 -10.45 L10.15 -10.95 7.6 -11.3 9.35 -10.45 M11.85 -4.25 L12.4 -4.8 11.85 -5.55 9.85 -5.2 11.0 -3.0 11.15 -3.25 Q11.1 -4.25 11.85 -4.25 M-2.05 -24.15 Q-0.65 -25.55 -4.25 -25.2 -4.05 -24.0 -3.65 -24.2 L-3.3 -24.4 Q-2.6 -23.65 -2.05 -24.15 M-13.25 -23.4 L-12.25 -24.1 -11.2 -23.75 -10.75 -24.75 Q-13.9 -25.2 -14.05 -22.4 L-12.55 -22.4 -13.25 -23.4" fill="#2e2e2e" fill-rule="evenodd" stroke="none"/>
    <path d="M3.45 -21.1 L2.7 -19.75 Q2.45 -19.85 2.15 -20.0 L2.8 -20.65 2.0 -20.75 Q2.1 -21.4 3.45 -21.1 M-2.05 -24.15 Q-2.6 -23.65 -3.3 -24.4 L-3.65 -24.2 Q-4.05 -24.0 -4.25 -25.2 -0.65 -25.55 -2.05 -24.15" fill="#808080" fill-rule="evenodd" stroke="none"/>
    <path d="M-12.4 4.85 Q-13.8 3.05 -12.9 0.8 L-12.7 0.4 -14.8 0.15 -15.3 -0.25 -12.65 -1.4 Q-14.35 -7.15 -9.6 -10.4 -7.35 -12.0 -4.55 -12.25 -0.15 -12.4 3.55 -10.15 L3.9 -11.1 Q7.45 -11.3 7.75 -8.3 L7.65 -8.3 8.55 -6.35 9.05 -5.0 9.5 -3.7 10.05 -0.3 10.1 0.4 10.15 1.55 9.95 4.25 8.8 7.65 7.1 10.65 7.75 10.45 5.55 11.5 4.35 11.85 -0.1 12.55 -0.75 12.5 Q-1.35 12.35 -1.2 12.0 L-0.95 11.65 -0.2 11.25 Q-0.55 11.25 -0.55 10.8 -0.55 10.3 0.0 10.3 -1.05 10.2 -1.2 9.9 -1.3 9.65 -2.25 9.6 L-3.15 9.3 -3.2 8.85 -3.0 8.4 Q-4.05 8.5 -4.1 7.8 -4.1 7.5 -2.8 7.25 L-2.4 7.2 Q-8.5 6.0 -9.6 0.3 L-10.7 3.2 -10.7 4.35 -10.8 4.3 Q-11.9 3.8 -12.4 4.85 M9.35 -10.45 L7.6 -11.3 10.15 -10.95 9.35 -10.45 M4.75 -5.5 L4.2 -6.1 2.6 -7.1 Q1.0 -7.85 -0.95 -7.85 L-2.25 -7.85 -2.5 -7.75 -2.5 -7.7 Q-5.15 -7.1 -6.9 -4.95 -9.7 -1.45 -7.35 2.65 -5.95 5.15 -3.35 6.2 -0.15 7.6 3.15 6.6 L3.4 6.4 4.2 6.05 Q4.35 5.9 4.75 5.85 L4.85 5.85 5.35 5.5 5.8 4.9 6.15 4.55 6.2 4.55 7.05 3.2 7.1 1.0 7.0 -1.4 Q6.75 -2.75 5.85 -3.75 L5.1 -4.9 4.75 -5.5" fill="#717171" fill-rule="evenodd" stroke="none"/>
    <path d="M10.1 0.4 L10.05 -0.3 Q10.7 -1.3 12.05 -1.5 L12.2 -2.75 Q14.35 -2.1 14.5 0.2 12.25 -1.8 10.1 0.4" fill="#777777" fill-rule="evenodd" stroke="none"/>
    <path d="M11.85 -4.25 Q11.1 -4.25 11.15 -3.25 L11.0 -3.0 9.85 -5.2 11.85 -5.55 12.4 -4.8 11.85 -4.25" fill="#767676" fill-rule="evenodd" stroke="none"/>
    <path d="M-12.4 4.85 Q-11.9 3.8 -10.8 4.3 L-10.7 4.35 -10.7 3.2 -9.6 0.3 Q-8.5 6.0 -2.4 7.2 L-2.8 7.25 Q-4.1 7.5 -4.1 7.8 -4.05 8.5 -3.0 8.4 L-3.2 8.85 -3.15 9.3 -2.25 9.6 Q-1.3 9.65 -1.2 9.9 -1.05 10.2 0.0 10.3 -0.55 10.3 -0.55 10.8 -0.55 11.25 -0.2 11.25 L-0.95 11.65 -1.2 12.0 Q-1.35 12.35 -0.75 12.5 L-1.5 12.85 Q-3.95 12.55 -6.25 11.85 L-8.45 10.5 Q-10.95 8.1 -12.4 4.85" fill="#727272" fill-rule="evenodd" stroke="none"/>
    <path d="M2.45 -30.2 Q10.55 -29.45 15.25 -25.2 L17.35 -23.6 Q26.25 -18.15 27.65 -5.1 28.05 -1.4 27.8 1.8 L27.35 5.15 Q27.0 6.85 26.95 8.4 26.4 7.35 26.25 9.15 26.1 10.6 25.4 11.75 20.1 20.8 10.95 25.95 6.35 28.55 -0.25 29.05 -7.25 29.55 -12.0 26.95 L-15.85 25.15 Q-20.9 23.1 -24.2 19.25 -28.5 14.15 -30.8 7.0 -31.5 4.7 -31.45 1.5 L-30.7 -3.45 Q-30.3 -6.4 -29.5 -9.1 -27.0 -17.4 -21.35 -22.5 L-17.5 -25.8 Q-16.45 -26.65 -15.25 -27.3 -8.05 -31.2 2.45 -30.2 M14.35 -22.95 Q11.1 -24.65 7.55 -25.35 1.35 -26.6 -3.7 -26.65 L-2.0 -27.1 Q-3.5 -28.45 -5.55 -28.35 -10.05 -28.05 -13.8 -25.85 L-14.8 -25.95 Q-16.2 -25.9 -16.95 -24.85 L-17.0 -23.7 -17.9 -23.7 Q-21.8 -20.55 -23.85 -16.0 L-20.25 -17.2 -19.05 -19.35 -18.0 -18.35 Q-18.8 -17.5 -19.75 -16.8 -20.4 -16.3 -20.2 -15.45 L-21.35 -14.9 -21.7 -14.95 -22.4 -14.55 -23.95 -14.65 -23.75 -13.7 -24.5 -14.6 -26.05 -10.15 -25.05 -10.2 -26.5 -8.45 -26.35 -5.15 -27.3 -4.85 -26.8 -3.75 -24.75 -4.2 -25.0 -3.45 -26.2 -3.2 -25.85 -2.5 -26.25 -0.6 -25.65 -0.55 Q-24.9 -0.4 -24.85 0.35 -24.6 2.8 -27.05 4.4 L-27.45 4.55 -27.4 6.25 Q-27.0 8.9 -24.55 8.6 L-24.9 11.0 -26.0 11.75 -25.55 12.6 Q-25.4 12.8 -25.2 12.6 L-25.55 13.0 Q-21.5 22.35 -11.4 24.7 L-9.6 25.1 Q-5.15 26.25 -0.6 26.05 1.85 25.95 4.15 25.05 12.45 21.85 19.9 17.25 19.45 14.2 21.15 12.25 21.35 12.65 21.7 12.05 22.8 10.15 22.65 7.9 L24.4 5.5 24.5 1.7 Q24.7 -4.0 24.0 -9.55 L23.7 -10.55 Q22.7 -13.95 20.4 -16.25 20.0 -17.7 19.15 -18.95 L18.35 -19.9 Q16.6 -21.8 14.35 -22.95 M-28.85 2.8 L-28.25 0.4 -29.35 0.85 Q-28.65 4.05 -28.85 2.8" fill="#484848" fill-rule="evenodd" stroke="none"/>
    <path d="M-28.85 2.8 Q-28.65 4.05 -29.35 0.85 L-28.25 0.4 -28.85 2.8" fill="#606060" fill-rule="evenodd" stroke="none"/>
  </g>
</svg>
