<?xml version="1.0" encoding="UTF-8" standalone="no"?>
<svg xmlns:ffdec="https://www.free-decompiler.com/flash" xmlns:xlink="http://www.w3.org/1999/xlink" ffdec:objectType="shape" height="48.95px" width="46.8px" xmlns="http://www.w3.org/2000/svg">
  <g transform="matrix(1.0, 0.0, 0.0, 1.0, 22.45, 25.55)">
    <path d="M15.15 -20.7 Q17.2 -19.65 18.75 -17.95 L19.5 -17.1 Q20.25 -16.0 20.6 -14.65 22.7 -12.6 23.6 -9.55 L23.85 -8.65 Q24.5 -3.65 24.3 1.5 L24.2 4.9 22.65 7.05 Q22.75 9.1 21.8 10.8 21.45 11.35 21.3 10.95 19.75 12.75 20.15 15.45 13.45 19.6 6.0 22.5 3.9 23.3 1.7 23.4 -2.4 23.55 -6.4 22.55 L-8.0 22.2 Q-17.1 20.05 -20.75 11.65 L-20.4 11.3 -20.75 11.3 -21.15 10.5 -20.15 9.85 -19.85 7.7 Q-22.05 7.95 -22.4 5.55 L-22.45 4.05 -22.1 3.9 Q-19.9 2.45 -20.1 0.25 -20.15 -0.4 -20.85 -0.55 L-21.35 -0.6 -21.0 -2.3 -21.3 -2.95 -20.25 -3.15 -20.0 -3.85 -21.85 -3.4 -22.3 -4.4 -21.45 -4.7 -21.6 -7.65 -20.3 -9.25 -21.2 -9.2 -19.8 -13.2 -19.1 -12.4 -19.3 -13.25 -17.9 -13.15 -17.25 -13.5 -16.95 -13.45 -15.9 -13.95 Q-16.1 -14.7 -15.5 -15.15 -14.65 -15.8 -13.95 -16.55 L-14.9 -17.45 -15.95 -15.55 -19.2 -14.45 Q-17.35 -18.55 -13.85 -21.4 L-13.05 -21.4 -13.0 -22.4 Q-12.3 -23.35 -11.05 -23.4 L-10.15 -23.3 Q-6.8 -25.3 -2.75 -25.55 -0.9 -25.65 0.45 -24.45 L-1.05 -24.05 9.05 -22.85 Q12.25 -22.25 15.15 -20.7 M5.35 -19.05 Q4.15 -19.3 4.05 -18.7 L4.75 -18.65 4.2 -18.05 4.7 -17.8 5.35 -19.05 M5.75 -10.05 L5.45 -9.2 Q2.1 -11.2 -1.85 -11.05 -4.35 -10.85 -6.4 -9.4 -10.65 -6.5 -9.15 -1.3 L-11.5 -0.25 -11.05 0.1 -9.15 0.3 -9.35 0.65 Q-10.15 2.7 -8.9 4.3 -7.6 7.25 -5.35 9.4 -4.45 10.25 -3.35 10.6 L0.9 11.5 1.6 11.2 2.15 11.25 6.15 10.6 7.25 10.3 Q8.3 10.0 9.25 9.35 L8.65 9.55 10.15 6.85 11.2 3.75 11.4 1.35 11.35 0.3 Q13.3 -1.65 15.3 0.15 15.15 -1.95 13.25 -2.5 L13.1 -1.4 Q11.9 -1.2 11.3 -0.3 L10.8 -3.4 10.4 -4.55 9.95 -5.75 Q9.6 -7.0 9.15 -7.5 L9.25 -7.5 Q8.95 -10.2 5.75 -10.05 M11.4 -9.9 L9.1 -10.2 10.65 -9.45 11.4 -9.9 M13.4 -4.35 L12.9 -5.05 11.1 -4.75 12.15 -2.75 12.3 -2.95 Q12.25 -3.85 12.9 -3.85 L13.4 -4.35 M-0.7 -22.0 Q-0.1 -21.35 0.4 -21.8 1.65 -23.05 -1.55 -22.75 -1.4 -21.65 -1.05 -21.85 L-0.7 -22.0 M-7.4 -22.3 Q-10.25 -22.75 -10.4 -20.2 L-9.05 -20.2 -9.65 -21.1 -8.75 -21.75 -7.8 -21.4 -7.4 -22.3" fill="#2b2b2b" fill-opacity="0.67058825" fill-rule="evenodd" stroke="none"/>
  </g>
</svg>
