<?xml version="1.0" encoding="UTF-8" standalone="no"?>
<svg xmlns:ffdec="https://www.free-decompiler.com/flash" xmlns:xlink="http://www.w3.org/1999/xlink" ffdec:objectType="shape" height="48.8px" width="48.55px" xmlns="http://www.w3.org/2000/svg">
  <g transform="matrix(1.0, 0.0, 0.0, 1.0, 24.3, 24.25)">
    <path d="M4.7 -22.2 Q4.6 -22.65 5.0 -22.85 L6.45 -22.85 M13.4 -15.5 L15.0 -15.5 M21.8 -8.05 L21.8 -10.05 22.6 -10.6 M16.25 -10.85 L18.45 -9.5 M7.25 -11.4 L8.6 -11.4 M9.45 -1.0 L11.65 -1.0 11.65 -0.45 12.45 -0.45 M15.45 1.55 L16.2 2.5 M22.2 -2.85 Q22.75 -2.55 23.25 -2.3 L23.25 -2.05 M20.45 3.8 L21.65 4.5 22.2 4.75 M14.2 14.1 Q14.95 14.1 15.5 14.45 16.05 14.8 16.05 15.3 M18.2 9.55 L18.45 9.55 18.45 10.9 M6.05 8.75 Q7.25 8.75 8.15 9.2 9.0 9.7 9.0 10.35 M7.0 21.8 L8.85 21.8 M11.65 16.75 L11.65 18.5 M-9.55 -22.45 L-9.55 -23.25 M-19.15 -12.6 L-20.9 -15.65 -21.15 -15.65 M-21.7 -7.25 L-22.75 -8.45 M-21.4 0.1 L-19.0 -2.45 M-1.55 -13.5 L-1.0 -14.05 0.6 -15.0 M-5.55 -19.8 L-1.95 -19.8 M-15.8 -12.85 L-14.75 -12.85 -13.95 -12.3 -13.95 -12.05 M-17.0 -17.65 L-17.0 -18.05 -17.7 -19.25 M-13.8 -19.0 L-13.8 -18.7 M-9.55 -8.85 L-9.55 -10.45 M-13.4 -2.7 L-13.4 -4.45 -13.7 -5.0 M-7.4 14.6 L-8.5 11.4 M-8.5 21.4 L-9.55 21.4 -10.75 22.1 M1.9 21.7 L1.9 22.1 1.1 23.15 0.85 23.15 0.45 23.55 M-16.35 16.1 L-18.1 16.1 M-14.35 5.95 L-14.35 3.8" fill="none" stroke="#000000" stroke-linecap="round" stroke-linejoin="round" stroke-width="2.0"/>
    <path d="M4.6 -17.65 L6.6 -17.65 M2.5 -9.0 L2.5 -9.45 3.1 -9.45 4.0 -9.95 M19.25 -4.85 L19.25 -4.05 18.65 -3.25 18.65 -2.85 18.3 -2.45 M12.65 -5.9 L15.0 -5.9 M10.85 -19.65 L13.4 -21.65 M6.45 13.95 L6.85 13.95 6.85 14.35 8.05 14.9 M12.85 4.75 L12.05 6.1 M-6.9 -13.5 L-6.9 -15.25 -7.2 -15.65 M-6.0 -9.1 L-5.75 -9.1 -5.75 -9.35 -5.4 -9.35 -4.4 -10.95 M-14.75 -19.0 L-13.8 -19.0 M-13.8 -18.7 L-13.0 -18.7 M-10.85 -4.35 L-10.85 -5.45 -11.25 -5.45 -11.25 -5.95 M-17.55 -8.05 L-16.2 -8.05 M-3.85 13.5 L-2.25 12.8 -2.0 12.8 M-9.5 7.75 L-9.5 7.4 -10.0 7.4 -10.0 6.65 -10.25 6.65 -10.25 6.15 -10.6 5.9 M-2.1 15.95 L-2.1 17.15 -2.9 18.9 M-21.8 6.2 L-23.3 6.2 -23.3 5.8 M-15.7 11.95 L-17.95 10.2" fill="none" stroke="#333333" stroke-linecap="round" stroke-linejoin="round" stroke-width="2.0"/>
  </g>
</svg>
