<?xml version="1.0" encoding="UTF-8" standalone="no"?>
<svg xmlns:ffdec="https://www.free-decompiler.com/flash" xmlns:xlink="http://www.w3.org/1999/xlink" ffdec:objectType="shape" height="108.05px" width="109.8px" xmlns="http://www.w3.org/2000/svg">
  <g transform="matrix(1.0, 0.0, 0.0, 1.0, 54.9, 54.0)">
    <path d="M23.65 -31.45 L42.1 -36.2 34.55 -18.6 52.1 -16.15 38.6 -2.3 54.9 11.15 34.85 17.25 42.7 34.65 23.55 29.75 21.85 49.95 6.55 37.3 -5.25 54.05 Q-6.25 51.7 -6.55 48.95 -7.3 42.9 -10.25 37.55 -11.15 35.85 -13.4 35.3 L-29.35 45.05 -27.25 26.0 -48.15 25.75 -36.4 10.15 Q-39.05 3.75 -46.25 2.1 L-52.0 0.95 Q-53.6 0.7 -54.9 -0.25 L-36.65 -10.35 -48.25 -26.05 -28.4 -25.45 -29.2 -45.4 Q-25.55 -41.85 -21.35 -38.9 -18.45 -36.75 -15.0 -36.5 L-11.25 -36.9 -3.95 -54.0 6.3 -38.1 21.05 -52.1 23.65 -31.45" fill="#010101" fill-rule="evenodd" stroke="none"/>
  </g>
</svg>
