<?xml version="1.0" encoding="UTF-8" standalone="no"?>
<svg xmlns:ffdec="https://www.free-decompiler.com/flash" xmlns:xlink="http://www.w3.org/1999/xlink" ffdec:objectType="shape" height="93.8px" width="94.85px" xmlns="http://www.w3.org/2000/svg">
  <g transform="matrix(1.0, 0.0, 0.0, 1.0, 46.9, 45.6)">
    <path d="M30.65 -37.2 L27.6 -19.45 44.2 -18.75 33.45 -6.05 47.45 0.4 32.75 8.5 42.9 23.8 24.7 23.85 26.85 40.2 12.2 31.35 5.7 47.7 -3.85 33.35 -17.9 44.3 Q-18.05 42.05 -17.65 39.75 -16.75 34.5 -17.85 29.35 -18.2 27.7 -19.95 26.7 L-35.6 30.8 -29.05 15.45 -46.4 10.0 -32.7 0.0 Q-33.3 -6.0 -38.85 -9.15 L-43.35 -11.6 Q-44.6 -12.2 -45.45 -13.25 L-27.7 -17.1 -33.45 -33.1 -17.1 -27.55 -12.75 -44.3 Q-10.6 -40.5 -7.9 -36.95 -6.0 -34.45 -3.15 -33.4 -1.5 -32.75 0.05 -32.75 L10.4 -45.1 14.95 -29.35 30.65 -37.2" fill="#010101" fill-rule="evenodd" stroke="none"/>
    <path d="M30.65 -37.2 L27.6 -19.45 44.2 -18.75 33.45 -6.05 47.45 0.4 32.75 8.5 42.9 23.8 24.7 23.85 26.85 40.2 12.2 31.35 5.7 47.7 -3.85 33.35 -17.9 44.3 Q-18.05 42.05 -17.65 39.75 -16.75 34.5 -17.85 29.35 -18.2 27.7 -19.95 26.7 L-35.6 30.8 -29.05 15.45 -46.4 10.0 -32.7 0.0 Q-33.3 -6.0 -38.85 -9.15 L-43.35 -11.6 Q-44.6 -12.2 -45.45 -13.25 L-27.7 -17.1 -33.45 -33.1 -17.1 -27.55 -12.75 -44.3 Q-10.6 -40.5 -7.9 -36.95 -6.0 -34.45 -3.15 -33.4 -1.5 -32.75 0.05 -32.75 L10.4 -45.1 14.95 -29.35 30.65 -37.2 Z" fill="none" stroke="#999999" stroke-linecap="round" stroke-linejoin="round" stroke-width="1.0"/>
    <path d="M26.85 -0.25 Q26.85 11.0 18.9 18.9 11.0 26.85 -0.25 26.85 -11.5 26.85 -19.45 18.9 -27.35 11.0 -27.35 -0.25 -27.35 -11.5 -19.45 -19.45 -11.5 -27.35 -0.25 -27.35 11.0 -27.35 18.9 -19.45 26.85 -11.5 26.85 -0.25" fill="url(#gradient0)" fill-rule="evenodd" stroke="none"/>
    <path d="M26.85 -0.25 Q26.85 11.0 18.9 18.9 11.0 26.85 -0.25 26.85 -11.5 26.85 -19.45 18.9 -27.35 11.0 -27.35 -0.25 -27.35 -11.5 -19.45 -19.45 -11.5 -27.35 -0.25 -27.35 11.0 -27.35 18.9 -19.45 26.85 -11.5 26.85 -0.25 Z" fill="none" stroke="#333333" stroke-linecap="round" stroke-linejoin="round" stroke-width="1.0"/>
  </g>
  <defs>
    <radialGradient cx="0" cy="0" gradientTransform="matrix(0.0335, 0.0, 0.0, 0.0335, -0.25, -0.25)" gradientUnits="userSpaceOnUse" id="gradient0" r="819.2" spreadMethod="pad">
      <stop offset="0.13333333333333333" stop-color="#ffffff"/>
      <stop offset="1.0" stop-color="#000000"/>
    </radialGradient>
  </defs>
</svg>
