<?xml version="1.0" encoding="UTF-8" standalone="no"?>
<svg xmlns:ffdec="https://www.free-decompiler.com/flash" xmlns:xlink="http://www.w3.org/1999/xlink" ffdec:objectType="shape" height="55.6px" width="54.35px" xmlns="http://www.w3.org/2000/svg">
  <g transform="matrix(1.0, 0.0, 0.0, 1.0, 26.55, 28.85)">
    <path d="M8.7 -25.7 Q3.8 -25.85 0.5 -24.35 L0.55 -24.3 Q4.35 -23.25 7.0 -21.05 L6.9 -21.05 Q3.55 -20.65 1.0 -19.45 L0.9 -19.45 -3.95 -18.85 -3.9 -18.9 Q-1.65 -20.6 1.0 -21.95 L0.95 -22.0 Q-1.8 -23.6 -5.9 -23.35 L-5.9 -23.4 Q-2.7 -25.3 1.0 -26.75 L-0.9 -27.5 Q-4.1 -28.25 -7.6 -27.55 -4.55 -28.65 -0.7 -28.8 L-0.2 -28.8 Q4.8 -27.9 8.7 -25.75 L8.7 -25.7 M18.7 -13.95 L18.95 -14.65 19.6 -15.15 20.8 -15.0 23.75 -11.8 Q24.85 -10.6 25.35 -9.05 26.15 -6.7 26.0 -4.4 24.9 -6.75 22.95 -8.35 L23.15 -3.85 21.6 -5.75 Q21.5 -7.9 20.95 -9.95 20.25 -12.25 18.7 -13.95 M16.85 -20.3 Q16.2 -19.9 15.45 -19.75 15.65 -21.35 16.9 -22.55 17.95 -23.55 19.2 -23.55 18.7 -21.45 16.85 -20.3 M27.8 1.25 Q27.8 6.2 26.5 9.95 L26.45 9.95 Q24.5 12.95 21.7 15.15 L21.65 15.15 Q23.4 11.65 23.3 6.9 21.15 9.95 18.0 11.95 L18.0 11.85 Q18.6 8.95 18.6 5.45 L18.65 5.4 20.5 0.55 20.55 0.55 21.7 5.45 Q23.2 4.15 23.9 2.2 L24.4 1.05 24.45 1.05 25.1 6.65 25.2 6.6 Q27.1 4.45 27.8 1.15 L27.8 1.25 M6.9 21.3 Q4.5 21.2 2.2 20.45 L11.8 14.6 8.2 19.25 11.65 19.2 Q13.7 18.85 15.3 18.1 L9.8 23.7 12.6 23.6 Q15.35 23.3 17.7 21.95 L16.95 22.55 14.3 24.3 12.2 25.15 7.25 25.8 2.1 25.3 5.2 24.1 Q7.75 22.95 9.4 21.35 L6.9 21.3 M-21.95 -16.9 Q-20.65 -18.5 -19.0 -19.65 -16.15 -21.6 -12.9 -22.75 -14.4 -21.25 -15.55 -19.4 -16.6 -17.8 -17.25 -16.0 L-17.45 -15.45 Q-15.7 -16.65 -13.8 -17.45 L-10.6 -18.55 -14.4 -11.35 -16.0 -8.75 -15.45 -14.35 Q-17.3 -13.55 -18.8 -12.15 L-20.8 -9.85 -18.95 -17.45 Q-21.05 -16.35 -22.7 -14.7 L-24.9 -11.85 Q-23.8 -14.6 -21.95 -16.9 M-24.8 -4.05 Q-24.2 0.65 -22.2 3.95 L-22.2 3.85 Q-21.65 -0.2 -20.1 -3.15 L-18.1 1.4 -17.7 2.4 -16.0 6.95 -16.0 7.1 Q-18.15 5.3 -19.9 2.95 -20.6 4.35 -20.45 6.55 L-20.1 10.05 -24.7 3.85 Q-25.25 5.75 -24.95 8.05 L-24.3 11.85 -25.9 7.85 Q-26.75 5.7 -26.5 3.15 -26.1 -1.0 -24.8 -4.15 L-24.8 -4.05 M-14.4 13.85 L-3.8 17.35 -9.6 17.8 Q-8.45 19.45 -6.8 20.75 L-4.1 22.45 -11.95 21.95 Q-10.55 23.8 -8.6 25.05 -7.05 26.1 -5.3 26.75 -8.1 26.0 -10.75 24.85 L-12.8 23.5 Q-15.4 21.3 -17.3 18.45 L-18.3 16.85 Q-16.55 18.05 -14.6 18.8 L-10.4 19.9 Q-11.9 18.45 -13.0 16.7 L-14.4 13.85" fill="#333333" fill-rule="evenodd" stroke="none"/>
  </g>
</svg>
