<?xml version="1.0" encoding="UTF-8" standalone="no"?>
<svg xmlns:ffdec="https://www.free-decompiler.com/flash" xmlns:xlink="http://www.w3.org/1999/xlink" ffdec:objectType="shape" height="55.9px" width="54.65px" xmlns="http://www.w3.org/2000/svg">
  <g transform="matrix(1.0, 0.0, 0.0, 1.0, 27.1, 28.2)">
    <path d="M-21.8 -6.1 L-21.75 -6.2 Q-19.8 -9.45 -16.9 -11.7 L-17.2 -8.9 -17.25 -5.8 Q-17.3 -3.3 -17.7 -0.4 L-17.7 -0.5 -19.5 -6.0 -19.5 -5.95 Q-21.85 -3.5 -22.5 0.6 L-22.55 0.55 -24.1 -7.2 -24.1 -7.15 Q-26.6 -4.2 -27.1 0.8 L-26.9 -3.8 -26.35 -6.25 Q-24.45 -11.2 -20.8 -14.5 -21.45 -12.75 -21.8 -10.6 -22.2 -8.3 -21.8 -6.1 M-6.45 -26.4 L-2.3 -26.25 -4.3 -25.35 Q-7.15 -24.0 -9.3 -21.7 L-5.5 -21.9 -2.0 -21.6 -11.0 -14.85 -7.9 -19.7 -9.95 -19.65 Q-12.5 -19.3 -14.8 -18.05 L-9.9 -24.1 -12.25 -23.75 Q-15.1 -23.2 -17.6 -21.6 -16.0 -23.1 -14.2 -24.3 -12.5 -25.4 -10.45 -25.85 L-6.45 -26.4" fill="#000000" fill-opacity="0.9764706" fill-rule="evenodd" stroke="none"/>
    <path d="M22.9 16.0 Q24.05 15.15 25.0 14.1 23.75 16.7 21.6 18.65 20.05 20.05 18.15 20.9 L16.25 21.7 12.95 22.65 Q14.8 21.1 16.25 19.15 L18.15 15.9 Q16.4 16.9 14.45 17.45 L11.1 18.2 17.3 8.9 16.2 14.6 19.9 12.55 22.1 10.4 19.55 17.9 22.9 16.0" fill="#000000" fill-opacity="0.9843137" fill-rule="evenodd" stroke="none"/>
    <path d="M21.7 -4.25 L23.6 -1.75 Q24.35 -3.5 24.25 -5.4 L24.2 -5.95 26.6 -2.0 27.1 -4.5 Q27.8 -2.4 27.45 -0.3 27.05 1.75 26.25 3.7 L25.9 4.4 Q25.8 2.3 25.2 0.35 L24.35 -1.6 23.45 1.45 22.4 3.5 21.0 -0.5 21.7 -4.25 M7.6 27.0 L1.5 27.7 -0.05 27.5 Q-5.25 26.4 -8.9 23.6 L-8.8 23.6 Q-4.2 24.25 -0.5 23.1 L-0.5 23.05 Q-4.2 21.65 -6.8 19.2 L-4.4 19.05 -0.95 18.5 4.15 18.1 Q1.85 19.55 -0.7 20.8 L-0.6 20.8 Q1.95 22.55 6.1 22.7 2.6 24.25 -1.3 25.5 L-1.2 25.5 Q2.35 27.55 7.6 27.0 M-18.85 10.05 L-19.0 6.2 -11.0 13.8 Q-13.7 13.15 -16.3 11.7 -16.05 13.65 -15.2 15.45 L-13.35 18.3 -20.2 14.4 Q-19.75 16.55 -18.75 18.5 L-16.4 21.6 Q-18.5 19.95 -20.2 17.95 -21.5 16.45 -22.25 14.6 L-23.3 10.65 -23.7 7.3 Q-22.6 9.2 -21.1 10.8 L-17.9 13.45 -18.85 10.05" fill="#000000" fill-opacity="0.98039216" fill-rule="evenodd" stroke="none"/>
    <path d="M7.25 -27.5 L5.6 -28.2 9.95 -27.5 14.95 -27.2 18.5 -26.8 Q20.65 -26.1 22.4 -24.65 23.95 -23.4 25.0 -21.65 26.15 -19.8 26.75 -17.75 27.4 -15.55 27.1 -13.2 L22.05 -14.55 21.3 -14.65 Q21.2 -14.7 21.05 -14.8 L19.7 -14.9 19.05 -14.4 17.2 -7.1 Q15.3 -8.0 13.8 -9.45 10.9 -12.25 9.2 -15.9 L7.95 -17.45 Q6.95 -18.25 5.65 -18.5 5.0 -18.65 4.5 -18.95 L10.05 -19.8 Q8.75 -21.4 7.05 -22.55 5.65 -23.45 4.1 -24.0 L12.1 -24.2 Q10.0 -26.3 7.25 -27.5 M20.1 -21.45 Q20.1 -22.55 19.3 -23.3 18.55 -24.05 17.45 -24.05 16.4 -24.05 15.6 -23.3 14.85 -22.55 14.85 -21.45 14.85 -20.35 15.6 -19.6 16.4 -18.85 17.45 -18.85 18.55 -18.85 19.3 -19.6 20.1 -20.35 20.1 -21.45" fill="#000000" fill-opacity="0.99215686" fill-rule="evenodd" stroke="none"/>
  </g>
</svg>
