<?xml version="1.0" encoding="UTF-8" standalone="no"?>
<svg xmlns:ffdec="https://www.free-decompiler.com/flash" xmlns:xlink="http://www.w3.org/1999/xlink" ffdec:objectType="shape" height="26.3px" width="71.55px" xmlns="http://www.w3.org/2000/svg">
  <g transform="matrix(1.0, 0.0, 0.0, 1.0, 73.6, -10.2)">
    <path d="M-25.7 33.15 L-25.65 32.85 Q-25.45 30.7 -26.85 28.95 -28.3 27.2 -30.5 27.0 -32.7 26.8 -34.4 28.15 -36.15 29.6 -36.35 31.75 L-36.35 31.85 -37.6 29.15 Q-21.5 19.3 -4.1 16.55 -3.6 24.85 -6.85 30.25 -16.85 31.15 -25.7 33.15 M-71.8 18.9 Q-72.3 16.05 -72.15 13.15 L-71.95 11.1 Q-63.95 15.05 -59.75 17.8 -53.8 21.75 -47.25 28.25 -48.05 31.6 -50.1 33.75 -56.95 29.7 -64.8 26.9 L-64.65 26.75 Q-62.9 25.4 -62.65 23.25 -62.45 21.1 -63.85 19.35 -65.3 17.6 -67.5 17.4 -69.7 17.2 -71.4 18.55 L-71.8 18.9" fill="#ffffff" fill-rule="evenodd" stroke="none"/>
    <path d="M-36.35 31.85 L-36.35 31.75 Q-36.15 29.6 -34.4 28.15 -32.7 26.8 -30.5 27.0 -28.3 27.2 -26.85 28.95 -25.45 30.7 -25.65 32.85 L-25.7 33.15 -33.55 35.2 Q-35.3 33.7 -36.35 31.85 M-71.8 18.9 L-71.4 18.55 Q-69.7 17.2 -67.5 17.4 -65.3 17.6 -63.85 19.35 -62.45 21.1 -62.65 23.25 -62.9 25.4 -64.65 26.75 L-64.8 26.9 Q-67.2 26.0 -69.75 25.25 -71.2 22.1 -71.8 18.9" fill="#000000" fill-rule="evenodd" stroke="none"/>
    <path d="M-4.1 16.55 L-2.55 16.35 M-36.35 31.85 Q-35.3 33.7 -33.55 35.2 L-25.7 33.15 Q-16.85 31.15 -6.85 30.25 -3.6 24.85 -4.1 16.55 -21.5 19.3 -37.6 29.15 L-36.35 31.85 M-37.6 29.15 L-39.7 31.25 M-33.55 35.2 L-35.05 35.7 -35.95 36.0 M-64.8 26.9 Q-56.95 29.7 -50.1 33.75 -48.05 31.6 -47.25 28.25 -53.8 21.75 -59.75 17.8 -63.95 15.05 -71.95 11.1 L-72.15 13.15 Q-72.3 16.05 -71.8 18.9 -71.2 22.1 -69.75 25.25 -67.2 26.0 -64.8 26.9 M-71.95 11.1 L-73.1 10.7 M-47.25 28.25 L-45.7 30.6 M-50.1 33.75 L-48.35 34.85" fill="none" stroke="#000000" stroke-linecap="round" stroke-linejoin="round" stroke-width="1.0"/>
  </g>
</svg>
