<?xml version="1.0" encoding="UTF-8" standalone="no"?>
<svg xmlns:ffdec="https://www.free-decompiler.com/flash" xmlns:xlink="http://www.w3.org/1999/xlink" ffdec:objectType="shape" height="25.75px" width="83.0px" xmlns="http://www.w3.org/2000/svg">
  <g transform="matrix(1.0, 0.0, 0.0, 1.0, 41.5, 12.85)">
    <path d="M36.55 -12.1 Q39.55 -7.25 39.6 -0.95 39.55 2.75 38.55 5.95 32.15 8.85 23.5 9.1 L9.4 9.9 Q8.4 8.2 7.8 6.4 9.85 7.2 12.7 5.7 15.65 4.2 21.9 -1.6 28.7 -8.0 31.75 -9.95 34.35 -11.6 36.55 -12.1 M-36.45 -10.0 Q-33.45 -10.05 -29.65 -8.4 -25.3 -6.55 -16.95 -0.7 -8.8 4.95 -5.8 6.15 L-0.65 6.35 Q-1.65 8.3 -3.1 10.1 L-16.3 11.6 Q-26.7 13.2 -32.6 11.65 -38.25 6.0 -38.2 -1.9 -38.25 -6.3 -36.45 -10.0" fill="#ffffff" fill-rule="evenodd" stroke="none"/>
    <path d="M36.55 -12.1 Q39.55 -7.25 39.6 -0.95 39.55 2.75 38.55 5.95 M7.8 6.4 Q8.4 8.2 9.4 9.9 M-32.6 11.65 Q-38.25 6.0 -38.2 -1.9 -38.25 -6.3 -36.45 -10.0 M-0.65 6.35 Q-1.65 8.3 -3.1 10.1" fill="none" stroke="#000000" stroke-linecap="round" stroke-linejoin="round" stroke-width="1.0"/>
    <path d="M38.55 5.95 Q39.3 5.6 40.0 5.2 M41.0 -11.8 Q39.0 -12.7 36.55 -12.1 34.35 -11.6 31.75 -9.95 28.7 -8.0 21.9 -1.6 15.65 4.2 12.7 5.7 9.85 7.2 7.8 6.4 6.5 5.9 5.5 4.55 M38.55 5.95 Q32.15 8.85 23.5 9.1 L9.4 9.9 7.0 10.2 M-36.45 -10.0 Q-33.45 -10.05 -29.65 -8.4 -25.3 -6.55 -16.95 -0.7 -8.8 4.95 -5.8 6.15 L-0.65 6.35 Q0.4 5.7 1.0 4.2 M-36.45 -10.0 Q-39.0 -10.0 -41.0 -8.8 M-32.6 11.65 L-34.0 11.2 M-3.1 10.1 L-1.0 10.2 M-3.1 10.1 L-16.3 11.6 Q-26.7 13.2 -32.6 11.65" fill="none" stroke="#000000" stroke-linecap="round" stroke-linejoin="round" stroke-width="1.0"/>
  </g>
</svg>
