<?xml version="1.0" encoding="UTF-8" standalone="no"?>
<svg xmlns:ffdec="https://www.free-decompiler.com/flash" xmlns:xlink="http://www.w3.org/1999/xlink" ffdec:objectType="shape" height="24.5px" width="77.8px" xmlns="http://www.w3.org/2000/svg">
  <g transform="matrix(1.0, 0.0, 0.0, 1.0, 38.2, 12.1)">
    <path d="M31.75 -9.95 Q34.35 -11.6 36.55 -12.1 39.55 -7.25 39.6 -0.95 39.55 2.75 38.55 5.95 32.15 8.85 23.5 9.1 L9.4 9.9 Q8.4 8.2 7.8 6.4 9.85 7.2 12.7 5.7 15.65 4.2 21.9 -1.6 28.7 -8.0 31.75 -9.95 M-16.95 -0.7 Q-8.8 4.95 -5.8 6.15 L-0.65 6.35 Q-1.65 8.3 -3.1 10.1 L-16.3 11.6 Q-26.7 13.2 -32.6 11.65 -38.25 6.0 -38.2 -1.9 -38.25 -6.3 -36.45 -10.0 -33.45 -10.05 -29.65 -8.4 -25.3 -6.55 -16.95 -0.7" fill="#ff0000" fill-rule="evenodd" stroke="none"/>
  </g>
</svg>
