<?xml version="1.0" encoding="UTF-8" standalone="no"?>
<svg xmlns:ffdec="https://www.free-decompiler.com/flash" xmlns:xlink="http://www.w3.org/1999/xlink" ffdec:objectType="shape" height="171.85px" width="548.7px" xmlns="http://www.w3.org/2000/svg">
  <g transform="matrix(1.0, 0.0, 0.0, 1.0, 655.05, 0.85)">
    <path d="M-641.0 24.0 L-647.05 111.65 -587.05 163.0" fill="none" stroke="#000000" stroke-linecap="round" stroke-linejoin="round" stroke-width="16.0"/>
    <path d="M-135.5 42.3 Q-134.4 44.45 -133.1 48.25 -131.45 50.5 -128.6 53.05 -127.15 54.8 -124.7 55.1 -121.65 55.45 -120.0 56.5 -117.95 57.8 -116.85 60.15 -115.45 63.25 -113.1 65.75 -106.35 72.75 -106.35 75.4 -106.35 76.45 -106.85 77.75 -107.4 79.25 -108.1 79.25 -131.6 59.75 -140.1 53.55 L-147.65 51.2 Q-154.35 49.2 -155.25 47.55 -155.55 47.0 -155.65 44.8 -155.7 42.5 -156.35 41.25 L-160.65 35.4 Q-164.85 29.6 -164.85 28.5 -164.85 26.25 -162.6 26.25 -160.15 26.25 -158.65 28.15 -157.75 29.25 -156.2 32.25 -152.45 38.25 -142.6 38.25 -137.6 38.25 -135.5 42.3 M-131.55 81.3 Q-127.5 83.0 -120.95 88.8 -116.5 92.7 -113.4 96.15 L-112.4 96.1 Q-108.2 97.05 -111.0 128.6 L-111.65 131.0 -112.35 131.15 -112.65 131.15 -112.8 131.2 -112.85 131.15 -113.3 131.1 Q-113.75 130.95 -116.65 127.25 L-120.2 122.25 Q-120.35 121.9 -122.4 120.05 L-124.7 118.05 Q-127.1 116.7 -134.6 115.0 L-145.85 112.55 Q-152.6 110.95 -163.55 104.05 -173.7 97.2 -174.65 96.75 L-178.95 95.7 -179.5 97.55 Q-180.35 98.75 -183.05 98.1 -195.25 95.25 -209.4 83.9 -214.6 79.7 -218.2 75.8 -221.6 72.2 -221.4 71.35 -221.3 70.9 -220.6 70.75 -219.45 70.5 -217.8 68.7 L-222.2 59.25 Q-225.35 53.25 -229.15 49.5 L-233.35 44.1 Q-235.4 42.15 -243.4 40.45 -267.9 35.1 -266.4 28.3 -264.0 24.0 -263.7 22.7 -263.05 19.65 -264.0 14.5 -264.9 9.35 -264.2 6.1 -263.6 3.2 -262.65 2.25 -259.7 -0.55 -257.9 -0.85 -256.65 -1.0 -255.15 0.3 L-252.15 2.55 Q-249.85 3.6 -246.55 2.9 L-240.2 1.45 Q-235.15 0.4 -233.2 0.9 -230.0 1.6 -227.15 6.65 -225.65 9.2 -222.3 17.3 -219.25 24.7 -217.05 28.05 -213.7 33.15 -209.65 34.15 -208.45 34.4 -203.6 34.25 -198.65 35.4 -186.35 47.35 -173.85 55.15 -174.8 59.5 -175.1 60.95 -175.75 61.3 -176.8 61.9 -179.75 61.35 L-178.4 63.55 Q-177.05 65.6 -176.45 65.75 L-170.05 65.95 Q-168.7 66.25 -155.85 71.3 -141.4 77.0 -131.55 81.3 M-139.1 137.25 Q-138.65 136.75 -136.85 136.75 -135.2 136.75 -132.85 138.65 L-129.95 140.5 -128.3 139.4 Q-126.7 138.25 -126.1 138.25 -120.4 138.25 -115.85 147.6 -115.85 149.9 -117.6 151.75 -119.55 153.75 -122.6 153.75 -125.65 153.75 -127.3 150.25 -129.25 146.05 -130.35 145.5 L-137.2 141.95 Q-139.35 140.7 -139.35 138.85 L-139.1 137.25" fill="#540101" fill-rule="evenodd" stroke="none"/>
    <path d="M-159.0 34.25 Q-162.6 29.3 -162.85 28.5 L-162.8 28.25 -162.75 28.1 -162.6 28.25 Q-161.15 28.25 -160.2 29.4 L-160.2 29.45 Q-159.4 30.45 -157.95 33.2 L-157.9 33.3 Q-153.75 40.25 -142.6 40.25 -138.85 40.2 -137.25 43.25 L-137.25 43.2 Q-136.25 45.25 -135.0 48.9 L-134.7 49.45 Q-133.0 51.75 -130.05 54.45 -128.15 56.7 -124.95 57.1 L-124.9 57.1 Q-122.45 57.35 -121.05 58.2 -119.5 59.2 -118.65 61.0 -117.15 64.4 -114.55 67.15 -112.15 69.65 -110.6 71.6 L-109.95 72.45 Q-110.3 72.75 -110.6 72.75 -134.1 53.25 -142.6 47.05 -142.8 46.9 -150.15 44.7 L-153.75 43.5 -153.95 42.15 Q-154.15 41.1 -154.6 40.3 L-154.75 40.05 -156.45 37.75 -156.5 37.7 -159.05 34.25 -159.0 34.25 M-132.3 83.15 Q-128.5 84.8 -122.25 90.3 -117.95 94.1 -114.9 97.5 L-114.2 98.0 -113.4 98.15 -112.75 98.15 Q-112.55 98.4 -112.4 99.35 -112.2 107.4 -113.5 122.1 L-114.15 124.5 -114.85 124.65 -115.15 124.65 -115.3 124.7 -115.35 124.65 -115.8 124.6 -117.45 122.85 -118.4 121.4 -118.35 121.45 Q-118.45 121.0 -120.25 119.3 L-122.7 115.75 Q-122.85 115.4 -124.9 113.55 L-127.2 111.55 Q-129.6 110.2 -137.1 108.5 L-148.35 106.05 Q-155.1 104.45 -166.05 97.55 -176.2 90.7 -177.15 90.25 L-181.45 89.2 -182.0 91.05 Q-182.85 92.25 -185.55 91.6 -197.75 88.75 -211.9 77.4 -215.45 74.55 -218.25 71.8 L-216.3 70.05 Q-215.9 69.6 -215.8 69.0 -215.75 68.4 -216.0 67.85 L-218.8 61.75 -218.85 61.7 -220.4 58.35 Q-223.4 52.65 -226.95 48.9 -229.15 45.45 -231.65 43.0 L-231.7 42.95 Q-234.55 38.85 -235.85 37.6 -237.9 35.65 -245.9 33.95 -258.3 31.2 -264.05 28.15 L-264.0 28.05 Q-262.0 24.4 -261.75 23.15 -261.0 19.8 -262.0 14.15 -262.85 9.45 -262.25 6.55 L-262.25 6.5 Q-261.8 4.4 -261.2 3.7 L-261.25 3.7 Q-258.95 1.5 -257.6 1.15 L-256.45 1.8 -256.4 1.85 -253.1 4.3 -252.95 4.4 Q-250.15 5.7 -246.1 4.85 L-246.2 4.9 -239.7 3.4 -239.8 3.4 Q-235.4 2.5 -233.7 2.85 L-233.6 2.85 Q-231.2 3.55 -228.9 7.65 L-228.85 7.7 Q-227.4 10.15 -224.15 18.1 L-224.15 18.05 Q-221.0 25.7 -218.7 29.15 -214.85 35.05 -210.1 36.1 L-210.05 36.1 -203.85 36.25 Q-199.2 37.65 -187.75 48.8 L-187.4 49.05 Q-182.1 52.4 -179.25 55.1 L-182.25 54.85 -180.9 57.05 Q-179.55 59.1 -178.95 59.25 L-176.8 59.45 -176.75 59.45 -176.7 59.55 -176.75 59.6 -179.35 59.4 -180.75 59.65 Q-181.4 60.0 -181.65 60.7 -181.9 61.4 -181.6 62.1 -181.3 62.8 -180.65 63.15 -180.85 63.3 -180.1 64.55 L-180.05 64.65 Q-178.05 67.7 -176.9 67.7 L-176.85 67.7 -170.25 67.95 Q-168.4 68.5 -156.55 73.15 -142.15 78.85 -132.35 83.15 L-132.3 83.15 M-120.1 145.25 Q-122.05 147.25 -125.1 147.25 L-126.7 147.0 Q-128.3 144.1 -129.45 143.7 L-129.9 143.5 -130.4 142.5 -129.95 142.5 Q-129.7 142.8 -127.15 141.05 L-127.1 141.05 -126.1 140.25 Q-123.0 140.4 -120.25 144.1 L-119.7 144.85 -120.1 145.25" fill="#e10404" fill-rule="evenodd" stroke="none"/>
  </g>
</svg>
