<?xml version="1.0" encoding="UTF-8" standalone="no"?>
<svg xmlns:ffdec="https://www.free-decompiler.com/flash" xmlns:xlink="http://www.w3.org/1999/xlink" ffdec:objectType="shape" height="194.75px" width="577.35px" xmlns="http://www.w3.org/2000/svg">
  <g transform="matrix(1.0, 0.0, 0.0, 1.0, 663.0, 14.75)">
    <path d="M-627.0 24.0 L-654.0 110.65 -655.0 172.0" fill="none" stroke="#000000" stroke-linecap="round" stroke-linejoin="round" stroke-width="16.0"/>
    <path d="M-255.8 -6.95 L-251.65 -1.25 Q-249.45 1.55 -247.7 2.05 -238.95 4.65 -234.55 9.55 -232.15 12.2 -229.5 18.3 -226.65 24.95 -210.1 34.45 -200.3 40.1 -197.45 42.0 -190.8 46.35 -187.75 50.25 -185.9 52.6 -183.95 59.55 -181.4 65.6 -174.95 66.8 -160.45 69.5 -152.6 73.1 -149.2 74.65 -139.95 80.8 -132.0 86.05 -120.0 97.8 -107.85 107.7 -89.75 112.7 L-89.75 112.55 -88.5 112.25 Q-87.45 112.25 -86.75 122.0 -86.75 125.15 -87.85 130.1 -89.05 135.6 -90.5 137.25 L-91.05 136.65 Q-91.5 137.25 -92.0 137.25 -95.2 133.85 -99.85 129.6 -109.3 121.0 -118.5 116.8 -125.6 113.55 -128.65 112.8 -134.55 111.3 -151.75 109.5 -157.45 108.9 -162.3 105.55 -166.95 101.65 -169.0 100.25 -173.4 97.25 -175.2 95.55 -179.75 91.25 -186.3 92.65 L-191.35 93.6 Q-194.1 93.8 -196.25 92.5 -199.6 90.5 -203.7 84.85 -207.85 79.2 -217.55 73.5 -227.3 67.8 -226.25 66.75 -225.2 65.7 -221.45 66.85 L-218.6 67.65 Q-217.2 67.9 -216.75 66.9 -214.5 61.7 -227.15 48.4 -239.8 35.05 -255.05 29.9 -268.25 25.4 -268.25 21.85 -268.25 20.85 -265.25 18.9 -262.25 16.95 -262.25 14.4 -262.25 6.45 -266.75 -2.3 -271.25 -9.65 -271.25 -10.65 -271.25 -14.75 -266.25 -14.75 -261.45 -14.75 -255.8 -6.95 M-142.65 38.75 Q-141.7 41.2 -137.0 44.05 L-128.1 48.75 Q-122.0 51.95 -118.6 59.35 -114.7 67.9 -111.5 70.65 L-85.65 92.85 -86.35 93.6 -85.65 94.35 -85.75 95.4 -85.9 95.6 -86.0 95.9 Q-85.9 96.1 -86.5 96.1 -98.5 84.55 -104.15 79.5 -107.05 76.9 -125.0 63.75 -140.0 52.75 -145.25 47.75 -146.5 46.55 -156.3 40.45 -162.9 36.4 -162.9 32.3 L-162.15 28.95 Q-162.15 27.3 -169.0 19.5 -175.9 11.7 -175.9 7.75 -175.9 5.1 -174.0 5.1 -171.2 5.1 -168.45 9.75 -166.95 12.25 -164.85 16.5 -163.8 18.05 -157.3 21.75 -149.7 26.15 -148.25 27.25 -146.05 29.0 -144.6 32.75 L-142.65 38.75 M-152.4 130.6 L-141.4 135.75 Q-140.55 135.75 -139.65 133.45 -138.75 131.1 -137.15 131.1 L-129.7 137.3 Q-121.6 143.9 -96.15 154.85 L-98.15 157.0 Q-118.15 150.1 -118.75 150.1 -119.25 150.1 -120.25 149.1 -121.3 148.0 -122.25 147.85 L-133.0 146.1 -139.25 144.4 Q-142.65 143.15 -142.65 142.25 -142.15 141.5 -142.15 140.85 -142.15 139.45 -148.0 136.85 -153.9 134.25 -153.9 132.15 -153.9 130.6 -152.4 130.6 M-176.25 63.75 Q-180.85 63.75 -182.75 57.75 L-183.75 51.35 -183.7 49.85 Q-183.3 48.75 -181.5 48.75 -175.15 48.75 -172.25 59.75 -172.25 63.75 -176.25 63.75" fill="#540101" fill-rule="evenodd" stroke="none"/>
    <path d="M-269.15 -11.4 Q-268.6 -12.75 -266.25 -12.75 -262.3 -12.5 -257.4 -5.75 -254.0 -1.0 -252.55 0.3 L-253.2 0.0 Q-250.5 3.45 -248.25 4.0 -240.15 6.4 -236.05 10.9 L-236.0 10.9 Q-233.8 13.4 -231.3 19.1 L-231.35 19.1 Q-228.5 26.2 -211.1 36.2 -201.4 41.8 -198.55 43.7 -192.25 47.8 -189.3 51.5 L-189.3 51.55 -188.6 52.6 -187.2 55.85 Q-186.55 57.7 -185.85 60.1 L-185.8 60.35 Q-182.85 67.35 -175.3 68.8 -161.1 71.4 -153.4 74.95 -150.1 76.45 -141.05 82.5 -133.2 87.65 -121.4 99.25 L-121.25 99.35 Q-108.85 109.5 -90.25 114.65 L-89.3 114.65 -89.25 115.5 Q-89.25 118.65 -90.35 123.6 -91.55 129.1 -93.0 130.75 L-93.55 130.15 Q-94.0 130.75 -94.5 130.75 -97.7 127.35 -102.35 123.1 -111.8 114.5 -121.0 110.3 -128.1 107.05 -131.15 106.3 -137.05 104.8 -154.25 103.0 -159.95 102.4 -164.8 99.05 L-171.5 93.75 Q-175.9 90.75 -177.7 89.05 -182.25 84.75 -188.8 86.15 L-193.85 87.1 Q-196.6 87.3 -198.75 86.0 -202.1 84.0 -206.2 78.35 -209.5 73.85 -216.25 69.4 -215.35 68.9 -214.9 67.75 L-214.9 67.7 Q-213.1 64.1 -217.2 57.45 -219.0 54.6 -221.95 51.15 -224.65 47.15 -229.65 41.9 -242.3 28.55 -257.55 23.4 L-264.35 20.75 -264.1 20.55 -264.15 20.6 Q-260.1 17.95 -260.25 14.4 -260.25 6.7 -264.25 -1.75 L-264.25 -1.8 -264.95 -3.2 -265.05 -3.35 Q-269.05 -9.9 -269.25 -10.65 L-269.15 -11.35 -269.15 -11.4 M-158.3 23.5 Q-151.05 27.65 -149.5 28.8 -148.4 29.75 -147.4 31.4 L-147.4 31.35 -146.45 33.45 -146.4 33.55 -146.1 34.45 -144.55 39.35 -144.5 39.5 Q-143.5 42.45 -138.0 45.75 L-137.95 45.8 -129.0 50.55 Q-123.5 53.45 -120.4 60.2 L-118.65 63.75 -127.5 57.25 Q-142.5 46.25 -147.75 41.25 -149.0 40.05 -158.8 33.95 L-160.85 32.6 -160.85 32.45 -160.65 31.65 -160.65 31.55 -160.15 28.95 Q-159.9 27.5 -163.4 23.05 L-163.45 23.0 -165.55 20.45 Q-167.15 18.0 -171.5 13.0 L-171.9 12.55 Q-173.8 9.6 -173.9 7.75 L-173.9 7.6 -173.9 7.45 -174.0 7.1 Q-172.2 7.35 -170.15 10.8 L-166.65 17.4 -166.5 17.65 Q-165.45 19.45 -158.3 23.5 M-143.05 137.2 L-141.4 137.75 Q-139.35 138.2 -137.75 134.2 -137.45 133.3 -137.15 133.1 -137.4 133.45 -130.95 138.85 L-128.4 140.75 -135.5 139.6 Q-138.55 139.1 -141.75 137.9 L-142.25 137.7 -143.05 137.2 M-181.5 50.75 Q-178.5 50.85 -176.45 54.35 L-175.6 56.1 Q-176.6 57.25 -178.75 57.25 L-180.85 56.9 -181.15 55.0 -181.15 54.95 -181.75 51.35 -181.75 50.65 -181.5 50.75" fill="#e10404" fill-rule="evenodd" stroke="none"/>
  </g>
</svg>
