<?xml version="1.0" encoding="UTF-8" standalone="no"?>
<svg xmlns:ffdec="https://www.free-decompiler.com/flash" xmlns:xlink="http://www.w3.org/1999/xlink" ffdec:objectType="shape" height="216.25px" width="608.35px" xmlns="http://www.w3.org/2000/svg">
  <g transform="matrix(1.0, 0.0, 0.0, 1.0, 680.0, 29.25)">
    <path d="M-621.95 28.05 L-664.95 120.65 -672.0 179.0" fill="none" stroke="#000000" stroke-linecap="round" stroke-linejoin="round" stroke-width="16.0"/>
    <path d="M-269.7 -20.95 L-258.75 -9.25 Q-255.95 -6.45 -248.6 -4.8 -240.4 -2.95 -239.25 -2.25 -233.95 1.0 -229.45 7.8 -227.45 10.75 -224.75 18.2 -221.9 25.85 -220.25 28.5 -218.6 31.15 -215.25 32.6 L-204.45 36.5 Q-197.6 39.05 -194.7 45.55 -190.45 54.95 -175.25 65.4 -166.45 71.45 -147.0 83.25 -141.65 86.8 -132.3 94.0 -124.15 100.3 -119.0 103.4 -103.3 112.75 -74.25 117.6 L-74.25 117.55 -73.0 117.25 Q-71.35 117.25 -71.75 121.6 -71.75 128.7 -73.2 131.3 L-73.35 131.45 -73.85 131.7 -74.0 131.75 -74.05 131.75 -74.5 131.75 Q-89.5 122.05 -109.75 114.5 -114.5 112.7 -127.85 110.3 -141.6 107.75 -145.25 106.5 -162.65 100.6 -166.75 98.5 -169.0 97.35 -172.45 93.3 -176.5 88.55 -178.45 87.0 -181.35 84.7 -191.4 81.55 -201.45 78.65 -202.75 78.0 -228.75 63.25 -228.75 57.9 -227.75 53.9 -227.75 52.65 -227.75 45.65 -238.5 40.25 -242.15 38.4 -246.1 33.65 L-251.5 27.25 Q-265.65 15.35 -268.45 12.25 -270.5 9.95 -271.15 7.35 -271.75 4.95 -271.75 -0.1 -271.75 -7.5 -278.5 -15.7 L-283.15 -21.2 Q-285.25 -23.85 -285.25 -25.4 -285.25 -29.25 -282.5 -29.25 L-281.45 -29.1 -281.0 -29.25 Q-277.95 -29.25 -269.7 -20.95 M-180.95 -0.45 Q-179.7 1.05 -175.5 7.15 -173.75 9.75 -166.75 12.55 -159.0 15.65 -157.4 17.1 -154.85 19.3 -153.35 23.45 L-151.05 30.3 Q-149.75 33.05 -144.4 36.15 -136.25 40.9 -135.55 41.45 -130.1 45.55 -126.3 54.3 -122.15 63.65 -118.25 67.35 L-111.65 73.75 Q-107.65 77.3 -102.6 79.9 -88.75 89.45 -88.65 91.5 -88.65 92.05 -88.75 91.85 L-89.4 92.1 Q-124.75 66.9 -137.5 56.85 -142.0 53.25 -146.55 46.8 -152.05 39.0 -153.6 37.4 -154.0 36.95 -166.15 30.0 -176.5 24.05 -176.6 20.55 L-175.75 15.8 Q-175.8 14.3 -182.75 7.8 -189.7 1.25 -189.8 -1.9 -189.9 -5.5 -188.0 -5.55 -185.3 -5.7 -180.95 -0.45 M-143.65 135.6 Q-141.45 135.6 -137.75 138.1 L-137.95 135.85 Q-137.85 134.1 -136.25 134.1 -135.65 134.1 -129.5 138.8 -122.75 144.0 -119.5 145.35 -111.2 148.85 -99.4 154.6 -99.85 155.35 -100.25 155.35 -101.65 155.35 -104.65 153.85 L-108.25 152.1 Q-115.9 150.4 -118.1 148.5 -120.2 146.65 -130.45 145.2 -139.15 144.0 -139.15 140.85 -139.15 140.55 -141.7 138.55 -144.25 136.5 -144.4 135.75 L-143.65 135.6 M-89.25 157.1 Q-88.65 157.1 -87.95 157.55 L-85.0 158.1 -78.5 158.6 Q-77.9 158.6 -77.9 159.15 -77.9 161.85 -79.4 161.85 -81.35 161.85 -85.75 159.85 -89.9 158.0 -89.9 157.7 L-89.75 157.25 -89.25 157.1 M-180.75 53.35 Q-181.9 51.85 -181.9 51.4 -181.9 50.8 -181.05 50.15 -180.35 49.6 -179.9 49.6 -176.45 49.6 -173.15 60.4 -173.15 60.95 -174.5 61.5 -176.0 62.1 -177.65 62.1 -179.5 62.1 -180.15 60.85 L-180.4 59.55 Q-179.65 56.85 -179.65 55.65 -179.65 54.85 -180.75 53.35" fill="#540101" fill-rule="evenodd" stroke="none"/>
    <path d="M-280.75 -27.2 Q-278.15 -26.65 -271.1 -19.55 L-260.2 -7.9 -260.15 -7.8 Q-257.15 -4.65 -249.05 -2.85 -241.4 -1.15 -240.3 -0.55 -235.35 2.5 -231.1 8.9 L-231.1 8.95 Q-229.9 10.7 -228.4 14.3 L-228.4 14.2 -227.2 17.35 -227.2 17.25 -226.6 18.9 Q-223.65 26.8 -221.95 29.55 -220.0 32.7 -216.05 34.45 L-216.0 34.45 -205.1 38.4 Q-199.1 40.65 -196.5 46.4 -192.15 56.2 -176.35 67.05 -167.55 73.1 -148.0 84.95 L-148.1 84.95 Q-142.8 88.45 -133.5 95.6 -125.25 101.95 -120.0 105.15 L-117.85 106.35 -130.35 103.8 Q-144.1 101.25 -147.75 100.0 -165.15 94.1 -169.25 92.0 -171.5 90.85 -174.95 86.8 -179.0 82.05 -180.95 80.5 -183.85 78.2 -193.9 75.05 L-205.25 71.5 Q-220.25 63.0 -226.6 57.6 L-226.35 56.5 Q-225.75 53.75 -225.75 52.65 -225.7 48.55 -228.7 45.05 L-228.7 45.0 Q-229.65 43.85 -230.9 42.8 -232.9 37.8 -241.0 33.75 -244.65 31.9 -248.6 27.15 L-254.0 20.75 -268.9 7.8 -269.2 6.9 -269.2 6.85 -269.5 4.9 -269.5 4.85 -269.75 -0.1 Q-269.7 -5.35 -272.85 -11.0 -274.5 -13.95 -276.95 -16.95 L-276.95 -17.0 -278.3 -18.55 -281.0 -22.2 -282.9 -24.4 -283.25 -25.4 -283.15 -26.55 Q-283.0 -27.2 -282.5 -27.25 L-282.0 -27.15 Q-281.5 -27.0 -280.95 -27.15 L-280.75 -27.2 M-187.9 -3.55 Q-186.0 -3.35 -182.5 0.85 L-182.45 0.85 Q-181.25 2.3 -177.15 8.3 -175.3 11.3 -167.5 14.4 -160.25 17.3 -158.75 18.6 L-158.7 18.65 Q-157.3 19.8 -156.3 21.65 L-155.2 24.15 -155.2 24.2 -154.7 25.65 -152.95 30.95 -152.85 31.15 Q-151.45 34.35 -145.4 37.9 L-136.75 43.05 Q-131.7 46.9 -128.1 55.1 L-124.75 61.85 -140.0 50.35 Q-142.55 48.3 -145.15 45.35 -150.3 38.05 -151.95 36.2 -155.0 32.05 -156.1 30.9 -156.5 30.45 -168.65 23.5 -172.15 21.5 -174.45 19.8 L-174.25 18.85 -174.2 18.75 -173.75 15.8 -173.75 15.7 Q-173.55 14.25 -177.25 10.4 L-177.25 10.35 -178.25 9.35 -178.25 9.3 Q-178.3 7.8 -185.25 1.3 L-187.45 -0.9 -187.8 -1.95 -187.7 -3.1 -187.7 -3.15 -187.9 -3.55 M-135.8 137.65 L-135.8 137.45 -135.9 136.4 -132.9 138.7 -132.95 138.7 -135.75 138.25 -135.8 137.65 M-74.4 119.6 Q-74.75 123.15 -75.7 124.8 L-75.85 124.95 -76.35 125.2 -76.5 125.25 -76.55 125.25 -77.0 125.25 Q-85.4 119.8 -95.45 115.1 -86.05 117.65 -74.6 119.6 L-74.4 119.6 M-179.3 51.95 Q-178.5 52.6 -177.45 54.6 L-177.2 55.1 -177.65 55.25 Q-177.75 54.05 -179.1 52.2 L-179.15 52.15 -179.3 51.95" fill="#e10404" fill-rule="evenodd" stroke="none"/>
  </g>
</svg>
