<?xml version="1.0" encoding="UTF-8" standalone="no"?>
<svg xmlns:ffdec="https://www.free-decompiler.com/flash" xmlns:xlink="http://www.w3.org/1999/xlink" ffdec:objectType="shape" height="243.5px" width="623.35px" xmlns="http://www.w3.org/2000/svg">
  <g transform="matrix(1.0, 0.0, 0.0, 1.0, 682.75, 57.75)">
    <path d="M-674.75 177.75 L-656.45 124.45 -611.2 42.55" fill="none" stroke="#000000" stroke-linecap="round" stroke-linejoin="round" stroke-width="16.0"/>
    <path d="M-299.5 -57.75 Q-298.95 -57.75 -296.0 -54.2 -292.85 -50.4 -291.75 -48.0 -290.9 -46.05 -288.6 -42.8 -287.25 -40.8 -287.25 -38.5 -287.25 -36.5 -287.4 -36.0 -287.85 -34.75 -289.5 -34.75 -291.35 -34.75 -296.25 -45.3 L-300.75 -56.0 -300.7 -57.5 -299.5 -57.75 M-275.0 -16.25 Q-272.65 -16.25 -262.35 -12.25 -250.2 -7.55 -248.95 -7.2 -240.55 -4.85 -236.0 4.3 -233.85 8.65 -229.0 19.85 -224.25 30.9 -224.25 31.5 L-224.25 34.3 Q-224.65 36.25 -226.75 36.25 -249.75 21.35 -261.0 12.75 L-269.9 6.35 Q-274.25 2.8 -274.95 -0.7 -278.25 -12.15 -278.25 -14.5 L-278.2 -15.7 Q-277.7 -16.25 -275.0 -16.25 M-186.65 -12.65 Q-184.2 -12.65 -184.15 -10.45 -184.15 -10.05 -185.0 -8.4 -185.9 -6.8 -185.9 -4.85 -185.9 -1.85 -185.1 -1.0 -184.4 -0.15 -180.15 3.75 L-180.75 4.35 Q-186.3 4.35 -188.5 -1.25 -189.2 -3.05 -189.5 -5.25 L-189.65 -7.3 Q-189.7 -8.8 -189.4 -10.1 -188.7 -12.65 -186.65 -12.65 M-153.85 29.55 Q-153.85 32.55 -157.0 32.55 -158.5 32.55 -160.2 31.1 L-162.2 29.15 -167.15 25.75 Q-170.95 23.4 -172.15 22.0 -173.35 20.65 -173.35 18.6 -173.35 17.8 -172.3 16.95 -171.25 16.05 -171.25 15.2 -171.25 14.3 -174.1 12.1 -177.0 9.9 -177.0 8.5 -177.0 7.55 -176.45 7.55 L-166.75 12.3 Q-163.9 13.8 -162.45 18.15 -161.85 20.45 -160.25 20.95 -156.9 21.9 -155.85 23.6 -153.85 26.75 -153.85 29.55 M-137.9 96.5 Q-134.35 100.1 -134.35 100.65 -134.35 103.65 -141.0 103.65 -143.1 103.65 -145.55 102.3 L-148.45 100.5 Q-150.55 99.35 -154.6 97.6 -161.9 94.45 -165.35 91.05 L-175.85 84.1 Q-179.95 80.55 -186.3 77.8 -206.4 69.25 -211.65 65.9 -226.95 54.15 -226.95 51.55 -226.95 49.25 -225.15 46.4 -224.45 45.15 -222.85 43.75 -221.0 41.9 -214.4 41.9 -206.65 41.9 -201.15 46.5 -196.45 50.4 -194.35 56.65 L-190.6 64.9 Q-188.75 68.95 -182.7 73.05 -179.55 75.2 -166.7 77.8 -158.95 80.35 -152.95 84.6 L-142.05 92.55 -137.9 96.5 M-113.5 72.85 Q-112.75 72.85 -109.75 75.0 -106.15 77.65 -105.9 80.0 -105.9 80.35 -106.5 80.35 L-114.15 73.75 Q-114.15 72.85 -113.5 72.85 M-103.0 81.85 Q-99.85 81.85 -93.4 87.3 -93.4 88.35 -94.75 88.35 -97.05 88.35 -100.5 85.7 -103.65 83.25 -103.65 82.4 -103.65 81.85 -103.0 81.85 M-92.4 116.6 Q-79.6 116.6 -73.5 120.0 -67.85 123.05 -63.15 123.45 L-59.9 123.75 Q-59.9 124.35 -60.4 125.6 L-59.4 129.75 Q-59.4 130.6 -60.15 130.6 -66.85 127.2 -68.4 126.75 -79.65 123.25 -90.5 123.25 -92.95 123.25 -94.75 123.8 L-97.75 124.35 Q-98.7 124.35 -102.15 122.5 -105.4 120.7 -105.4 120.5 -105.4 119.3 -102.95 118.2 -100.3 116.95 -96.5 116.75 L-92.4 116.6 M-121.4 146.35 Q-123.0 146.35 -123.65 144.75 -123.4 144.35 -122.9 144.35 -121.4 144.35 -120.65 145.6 -121.1 146.35 -121.4 146.35 M-114.25 147.6 Q-114.0 147.6 -112.2 148.35 -110.05 149.3 -109.4 150.0 L-110.0 150.6 Q-111.6 150.6 -113.4 149.5 L-114.9 148.2 -114.75 147.75 -114.25 147.6 M-135.9 136.25 Q-135.65 135.85 -135.15 135.85 -134.2 135.85 -133.9 137.25 -133.9 137.6 -134.5 137.6 -135.4 137.6 -135.9 136.25 M-136.65 139.2 L-136.5 138.75 -136.0 138.6 Q-132.1 138.6 -128.4 142.8 -128.4 143.85 -130.15 143.85 -133.75 143.85 -135.5 141.85 -136.65 140.55 -136.65 139.2 M-82.5 159.35 Q-80.4 159.35 -80.4 160.65 -80.4 161.6 -81.9 161.6 -82.75 161.6 -83.15 160.8 L-83.4 159.95 -83.25 159.5 -82.5 159.35 M-176.35 59.55 Q-177.8 59.55 -177.85 58.35 L-177.6 56.55 -178.1 53.6 Q-178.1 53.2 -177.65 53.2 -176.05 53.2 -174.95 58.2 -174.95 59.55 -176.35 59.55" fill="#540101" fill-rule="evenodd" stroke="none"/>
    <path d="M-292.0 -41.25 L-292.1 -41.25 -294.4 -46.15 -294.4 -46.05 -297.1 -52.35 Q-294.55 -49.2 -293.55 -47.15 L-293.6 -47.2 Q-292.95 -45.7 -291.4 -43.35 L-290.35 -41.8 Q-290.9 -41.25 -292.0 -41.25 M-273.0 -1.25 L-273.8 -4.1 -273.8 -4.15 Q-276.1 -12.1 -276.25 -14.25 L-275.0 -14.25 Q-272.8 -14.15 -263.05 -10.35 -250.75 -5.6 -249.5 -5.25 -241.9 -3.1 -237.8 5.2 -235.65 9.5 -230.8 20.65 L-230.85 20.65 -228.6 25.95 -227.3 29.0 Q-227.95 29.75 -229.25 29.75 -252.25 14.85 -263.5 6.25 L-272.4 -0.15 -272.8 -0.5 -273.0 -1.1 -273.0 -1.25 M-160.75 22.9 Q-158.75 23.45 -157.8 24.35 L-157.75 24.4 -157.55 24.6 -157.55 24.7 -157.15 25.35 Q-157.95 26.05 -159.5 26.05 -161.0 26.05 -162.7 24.6 L-164.7 22.65 Q-166.7 21.05 -169.65 19.25 L-170.95 18.45 Q-169.1 16.8 -169.25 15.2 -169.0 14.25 -170.35 12.75 L-167.65 14.1 -167.6 14.1 Q-165.5 15.35 -164.35 18.8 L-164.35 18.65 Q-163.45 22.2 -160.85 22.85 L-160.75 22.9 M-143.2 94.2 L-140.3 96.95 -143.5 97.15 Q-145.6 97.15 -148.05 95.8 L-150.95 94.0 Q-153.05 92.85 -157.1 91.1 -164.4 87.95 -167.85 84.55 L-178.35 77.6 -179.5 76.65 Q-175.15 78.1 -167.3 79.7 -159.85 82.15 -154.1 86.25 L-143.25 94.15 -143.2 94.2 M-202.4 48.05 Q-198.15 51.6 -196.25 57.3 L-196.2 57.35 -192.4 65.75 Q-191.1 68.8 -187.55 71.85 L-188.8 71.3 Q-208.9 62.75 -214.15 59.4 -221.05 54.1 -224.85 50.65 L-224.6 49.75 -223.45 47.5 -223.4 47.4 Q-222.8 46.4 -221.5 45.25 L-221.4 45.2 Q-219.85 43.9 -214.4 43.9 -207.4 43.9 -202.4 48.05" fill="#e10404" fill-rule="evenodd" stroke="none"/>
  </g>
</svg>
