<?xml version="1.0" encoding="UTF-8" standalone="no"?>
<svg xmlns:ffdec="https://www.free-decompiler.com/flash" xmlns:xlink="http://www.w3.org/1999/xlink" ffdec:objectType="shape" height="91.3px" width="91.85px" xmlns="http://www.w3.org/2000/svg">
  <g transform="matrix(1.0, 0.0, 0.0, 1.0, 46.35, 45.45)">
    <path d="M34.15 -34.75 Q32.3 -36.6 32.3 -39.2 32.25 -41.75 34.1 -43.6 35.95 -45.45 38.55 -45.45 41.15 -45.45 43.0 -43.6 44.8 -41.8 44.8 -39.2 44.8 -36.6 42.95 -34.75 41.1 -32.9 38.55 -32.95 35.95 -32.95 34.15 -34.75 M43.65 44.05 Q41.8 45.9 39.25 45.85 36.6 45.9 34.75 44.05 32.95 42.25 33.0 39.6 32.95 37.05 34.8 35.2 36.65 33.35 39.25 33.35 41.8 33.4 43.6 35.2 45.45 37.05 45.5 39.6 45.5 42.2 43.65 44.05 M-45.65 -39.05 Q-45.7 -41.6 -43.85 -43.45 -42.0 -45.3 -39.4 -45.3 -36.9 -45.3 -35.05 -43.45 -33.2 -41.6 -33.15 -39.05 -33.2 -36.5 -35.05 -34.65 -36.9 -32.8 -39.4 -32.8 -42.05 -32.75 -43.9 -34.6 -45.75 -36.45 -45.65 -39.05 M-33.85 39.45 Q-33.85 42.05 -35.7 43.9 -37.55 45.75 -40.1 45.7 -42.7 45.7 -44.5 43.9 -46.35 42.05 -46.35 39.45 -46.4 36.9 -44.55 35.05 -42.7 33.2 -40.1 33.2 -37.55 33.25 -35.7 35.1 -33.9 36.9 -33.85 39.45" fill="#000000" fill-rule="evenodd" stroke="none"/>
  </g>
</svg>
