<?xml version="1.0" encoding="UTF-8" standalone="no"?>
<svg xmlns:ffdec="https://www.free-decompiler.com/flash" xmlns:xlink="http://www.w3.org/1999/xlink" ffdec:objectType="shape" height="123.75px" width="123.75px" xmlns="http://www.w3.org/2000/svg">
  <g transform="matrix(1.0, 0.0, 0.0, 1.0, 61.8, 61.5)">
    <path d="M3.9 -50.85 Q2.1 -49.0 -0.5 -49.0 -3.1 -49.0 -4.95 -50.85 -6.75 -52.65 -6.75 -55.25 -6.75 -57.85 -4.95 -59.7 -3.1 -61.5 -0.5 -61.5 2.1 -61.5 3.9 -59.7 5.75 -57.85 5.75 -55.25 5.75 -52.65 3.9 -50.85 M60.15 -4.45 Q61.95 -2.6 61.95 0.0 61.95 2.6 60.15 4.4 58.3 6.25 55.7 6.25 53.1 6.25 51.3 4.4 49.45 2.6 49.45 0.0 49.45 -2.6 51.3 -4.45 53.1 -6.25 55.7 -6.25 58.3 -6.25 60.15 -4.45 M-51.1 -4.45 Q-49.3 -2.6 -49.3 0.0 -49.3 2.6 -51.1 4.4 -52.95 6.25 -55.55 6.25 -58.15 6.25 -59.95 4.4 -61.8 2.6 -61.8 0.0 -61.8 -2.6 -59.95 -4.45 -58.15 -6.25 -55.55 -6.25 -52.95 -6.25 -51.1 -4.45 M-0.5 49.75 Q2.1 49.75 3.9 51.55 5.75 53.4 5.75 56.0 5.75 58.6 3.9 60.4 2.1 62.25 -0.5 62.25 -3.1 62.25 -4.95 60.4 -6.75 58.6 -6.75 56.0 -6.75 53.4 -4.95 51.55 -3.1 49.75 -0.5 49.75" fill="#000000" fill-rule="evenodd" stroke="none"/>
  </g>
</svg>
