<?xml version="1.0" encoding="UTF-8" standalone="no"?>
<svg xmlns:ffdec="https://www.free-decompiler.com/flash" xmlns:xlink="http://www.w3.org/1999/xlink" ffdec:objectType="shape" height="312.35px" width="137.2px" xmlns="http://www.w3.org/2000/svg">
  <g transform="matrix(1.0, 0.0, 0.0, 1.0, 68.6, 156.2)">
    <path d="M53.0 -6.2 L52.4 -6.0 Q35.1 25.25 52.0 56.8 52.0 56.3 52.15 55.85 63.3 26.0 53.0 -6.2 M50.0 -56.2 Q49.5 -56.2 49.35 -55.95 35.05 -35.3 51.0 -16.2 L51.6 -16.4 Q60.85 -36.65 50.0 -56.2 M68.0 -1.2 L68.0 47.8 68.0 48.8 67.9 49.8 Q66.4 58.7 63.0 65.8 L63.15 66.75 Q65.8 75.3 67.15 84.3 70.5 106.55 66.0 131.8 L65.75 132.5 Q2.55 179.6 -62.0 132.8 L-62.05 131.8 Q-65.9 105.9 -63.05 84.3 -62.0 76.25 -60.0 68.8 -66.3 48.1 -67.95 19.0 -75.15 -108.35 -2.0 -156.2 69.1 -115.3 68.0 -2.2 L68.0 -1.2 M59.0 60.8 L58.05 60.95 Q1.15 82.2 -55.35 68.25 10.35 92.95 59.0 60.8 M23.05 84.3 Q14.3 84.95 4.7 84.3 L-2.3 83.65 Q-39.75 79.3 -58.3 84.3 L-60.0 84.8 -59.75 85.5 Q-16.5 120.35 44.0 97.8 L43.95 98.8 Q40.95 123.35 49.0 136.8 L49.55 136.65 Q59.4 109.65 60.8 84.3 61.1 78.5 61.0 72.8 44.7 82.65 23.05 84.3" fill="#000000" fill-rule="evenodd" stroke="none"/>
  </g>
</svg>
