<?xml version="1.0" encoding="UTF-8" standalone="no"?>
<svg xmlns:ffdec="https://www.free-decompiler.com/flash" xmlns:xlink="http://www.w3.org/1999/xlink" ffdec:objectType="shape" height="312.35px" width="137.2px" xmlns="http://www.w3.org/2000/svg">
  <g transform="matrix(1.0, 0.0, 0.0, 1.0, 68.95, 156.2)">
    <path d="M52.65 -6.2 Q52.15 -6.2 52.05 -6.0 34.75 25.25 51.65 56.8 L51.8 55.85 Q62.95 26.0 52.65 -6.2 M49.65 -56.2 L49.0 -55.95 Q34.7 -35.3 50.65 -16.2 L51.25 -16.4 Q60.5 -36.65 49.65 -56.2 M67.65 -1.2 L67.65 47.8 67.65 48.8 67.55 49.8 Q66.05 58.7 62.65 65.8 L62.8 66.75 Q65.45 75.3 66.8 84.3 70.15 106.55 65.65 131.8 L65.4 132.5 Q2.2 179.6 -62.35 132.8 L-62.4 131.8 Q-66.25 105.9 -63.4 84.3 -62.35 76.25 -60.35 68.8 -66.65 48.1 -68.3 19.0 -75.5 -108.35 -2.35 -156.2 68.75 -115.3 67.65 -2.2 L67.65 -1.2 M58.65 60.8 L57.7 60.95 Q0.8 82.2 -55.7 68.25 10.0 92.95 58.65 60.8 M22.7 84.3 Q13.95 84.95 4.35 84.3 L-2.65 83.65 Q-40.1 79.3 -58.65 84.3 L-60.35 84.8 -60.1 85.5 Q-16.85 120.35 43.65 97.8 L43.6 98.8 Q40.6 123.35 48.65 136.8 L49.2 136.65 Q59.05 109.65 60.45 84.3 60.75 78.5 60.65 72.8 44.35 82.65 22.7 84.3" fill="#010101" fill-rule="evenodd" stroke="none"/>
  </g>
</svg>
