<?xml version="1.0" encoding="UTF-8" standalone="no"?>
<svg xmlns:ffdec="https://www.free-decompiler.com/flash" xmlns:xlink="http://www.w3.org/1999/xlink" ffdec:objectType="shape" height="63.25px" width="63.25px" xmlns="http://www.w3.org/2000/svg">
  <g transform="matrix(1.0, 0.0, 0.0, 1.0, 30.35, 31.0)">
    <path d="M22.9 -21.0 Q31.9 -12.05 31.9 0.65 31.9 13.35 22.9 22.3 13.95 31.25 1.3 31.25 -11.4 31.25 -20.4 22.3 -29.35 13.35 -29.35 0.65 -29.35 -12.05 -20.4 -21.0 -11.4 -30.0 1.3 -30.0 13.95 -30.0 22.9 -21.0" fill="#ffffff" fill-opacity="0.6" fill-rule="evenodd" stroke="none"/>
    <path d="M22.9 -21.0 Q31.9 -12.05 31.9 0.65 31.9 13.35 22.9 22.3 13.95 31.25 1.3 31.25 -11.4 31.25 -20.4 22.3 -29.35 13.35 -29.35 0.65 -29.35 -12.05 -20.4 -21.0 -11.4 -30.0 1.3 -30.0 13.95 -30.0 22.9 -21.0 Z" fill="none" stroke="#000000" stroke-linecap="round" stroke-linejoin="round" stroke-width="2.0"/>
  </g>
</svg>
