<?xml version="1.0" encoding="UTF-8" standalone="no"?>
<svg xmlns:ffdec="https://www.free-decompiler.com/flash" xmlns:xlink="http://www.w3.org/1999/xlink" ffdec:objectType="shape" height="156.55px" width="154.25px" xmlns="http://www.w3.org/2000/svg">
  <g transform="matrix(1.0, 0.0, 0.0, 1.0, 26.5, 83.55)">
    <path d="M65.7 -81.15 Q69.05 -79.6 70.4 -78.25 L71.25 -74.85 71.75 -70.9 Q71.75 -69.15 70.25 -69.15 68.35 -69.15 68.1 -71.75 L68.0 -75.3 Q67.7 -76.5 64.5 -78.05 L63.35 -78.6 Q61.2 -72.4 58.5 -72.4 57.35 -72.4 57.0 -73.3 L56.9 -74.4 58.6 -76.85 60.65 -80.25 Q61.3 -82.15 62.7 -83.2 64.2 -84.3 64.25 -81.7 L65.7 -81.15 M27.25 -57.65 Q25.55 -57.65 23.95 -61.3 L21.65 -66.05 17.7 -70.15 Q14.15 -73.9 14.15 -74.45 14.15 -76.8 16.45 -75.7 18.45 -74.75 21.45 -71.55 28.75 -63.75 28.75 -59.3 28.75 -57.65 27.25 -57.65 M17.75 -34.05 Q17.75 -32.4 16.25 -32.4 L10.9 -35.2 Q5.15 -38.05 2.85 -38.05 -3.45 -38.05 -7.95 -34.35 L-10.3 -32.15 -9.0 -31.15 -5.75 -27.15 Q-3.2 -24.05 -1.0 -24.05 3.55 -24.05 7.0 -25.4 L10.6 -26.75 Q12.5 -26.75 12.5 -25.15 12.5 -24.3 8.9 -22.7 4.8 -20.9 0.85 -20.9 -4.9 -20.9 -7.35 -23.85 -8.7 -25.4 -10.05 -27.9 L-12.3 -29.55 Q-13.4 -30.2 -15.75 -31.05 L-19.35 -32.15 Q-20.5 -32.5 -20.5 -33.75 -20.5 -36.4 -15.2 -34.45 L-13.55 -33.8 Q-12.5 -35.6 -8.95 -37.65 -4.5 -40.2 -0.8 -40.9 4.35 -41.9 11.15 -39.2 17.75 -36.6 17.75 -34.05 M109.2 -54.15 L107.6 -53.15 Q106.5 -53.15 106.1 -53.9 L105.9 -54.75 Q105.9 -56.45 108.2 -57.35 110.5 -58.25 110.5 -55.8 110.5 -55.25 109.2 -54.15 M125.85 13.75 Q124.5 13.75 123.2 12.1 L122.15 10.5 Q122.15 7.85 124.95 9.45 127.75 11.1 127.75 12.15 127.75 13.75 125.85 13.75 M99.1 42.9 L98.75 42.25 98.4 41.5 Q98.4 39.5 100.35 40.0 102.25 40.5 102.25 42.65 102.25 49.95 96.85 53.5 L92.75 56.35 Q90.75 57.9 90.25 59.15 L89.05 62.0 Q87.85 64.25 86.75 64.25 85.6 64.25 85.25 63.4 L85.15 62.5 Q85.15 59.35 87.35 56.9 88.6 55.45 92.15 52.95 95.55 50.55 96.9 48.9 99.1 46.3 99.1 42.9 M82.85 66.0 Q82.45 66.0 79.45 63.85 L75.75 61.25 Q74.3 60.3 73.1 58.3 71.9 56.4 71.9 55.1 71.9 53.85 72.75 52.7 73.8 51.35 75.0 53.15 L75.25 55.2 Q75.35 56.4 76.1 57.1 77.65 58.55 81.95 60.85 84.5 62.25 84.5 64.3 84.5 66.0 82.85 66.0 M13.35 31.25 Q12.05 33.1 11.05 35.5 L9.4 39.75 9.0 40.95 12.1 41.6 Q13.05 41.6 16.05 40.35 18.75 39.15 19.25 38.75 21.2 37.05 22.6 36.95 24.0 36.8 24.0 38.25 24.0 40.15 19.6 42.5 15.3 44.75 12.1 44.75 L8.1 44.5 7.95 44.45 6.45 49.55 Q4.3 56.25 3.0 56.25 1.4 56.25 1.4 54.7 1.4 54.15 3.6 47.1 L6.75 37.35 Q8.75 31.3 11.5 28.75 13.2 27.15 19.5 25.95 26.0 24.7 26.0 26.75 26.0 28.15 20.2 29.25 13.95 30.4 13.35 31.25 M51.0 71.35 Q50.4 73.0 49.5 73.0 48.2 73.0 47.9 71.75 L47.9 70.25 Q47.9 67.95 49.7 67.55 51.5 67.15 51.5 69.15 51.5 70.05 51.0 71.35 M-0.9 5.3 L-1.15 6.25 Q-1.55 7.0 -2.5 7.0 L-6.25 4.45 Q-10.1 1.85 -10.85 1.85 -16.95 1.85 -21.15 3.45 L-24.85 5.0 Q-25.9 5.0 -26.3 4.25 L-26.5 3.45 Q-26.5 1.3 -22.5 0.1 -18.8 -1.0 -13.7 -0.85 -8.4 -0.65 -4.9 0.85 -0.9 2.5 -0.9 5.3" fill="#000000" fill-rule="evenodd" stroke="none"/>
  </g>
</svg>
