<?xml version="1.0" encoding="UTF-8" standalone="no"?>
<svg xmlns:ffdec="https://www.free-decompiler.com/flash" xmlns:xlink="http://www.w3.org/1999/xlink" ffdec:objectType="shape" height="93.3px" width="94.1px" xmlns="http://www.w3.org/2000/svg">
  <g transform="matrix(1.0, 0.0, 0.0, 1.0, -22.2, 56.55)">
    <path d="M106.2 11.4 Q98.9 8.3 93.9 7.15 99.1 10.95 98.8 13.55 L97.25 12.95 Q95.8 12.3 95.55 10.7 90.6 7.75 92.15 10.55 L92.7 10.7 Q94.9 15.55 99.05 18.55 L99.3 19.2 88.0 11.65 88.4 12.4 Q88.5 12.6 88.95 12.6 96.55 24.85 88.25 15.25 88.0 14.95 88.0 14.5 84.95 10.85 84.7 13.55 L85.2 13.55 Q87.6 19.6 90.65 24.9 L90.85 25.75 Q86.8 20.85 83.5 15.3 L83.3 14.5 Q83.0 20.45 85.95 27.7 L86.15 28.6 78.8 14.4 78.6 13.55 Q78.15 19.2 80.35 26.75 L80.5 27.65 Q77.95 21.7 74.85 17.75 L74.85 19.2 Q77.2 23.9 74.85 27.15 L74.85 25.75 Q73.35 21.15 73.0 15.4 L72.95 14.5 Q70.5 20.9 71.05 30.45 L71.1 31.4 Q69.55 22.15 68.25 17.75 L68.25 18.25 Q67.15 24.15 65.45 27.65 L65.35 25.75 Q65.15 21.25 66.4 18.25 63.75 16.7 61.55 25.5 61.05 27.45 60.75 30.45 60.35 23.95 62.55 15.35 L62.65 14.5 Q58.6 20.3 56.2 27.7 56.05 28.05 56.05 28.5 56.0 20.9 59.6 12.5 L59.8 11.65 52.55 21.45 Q55.0 15.5 54.0 14.7 L53.25 14.5 Q49.6 18.85 46.3 23.65 L45.7 23.9 Q48.6 17.35 52.1 11.5 L52.3 10.7 Q47.0 14.8 42.6 19.9 42.4 20.1 41.95 20.1 46.0 12.9 51.1 6.75 L51.35 6.0 41.25 13.8 41.25 13.85 Q42.9 8.55 49.25 3.85 L49.45 3.2 Q42.45 7.0 36.15 11.45 L35.35 11.65 Q41.3 6.3 47.8 1.55 47.9 1.4 48.1 1.35 41.6 2.3 34.3 6.75 L33.5 6.95 Q39.3 2.0 46.45 -1.9 46.65 -1.95 46.65 -2.45 40.7 -0.4 34.4 1.25 L33.5 1.3 Q39.35 -2.2 46.7 -4.2 L47.6 -4.3 Q39.55 -4.8 29.75 -2.9 L29.75 -3.4 45.75 -7.05 46.65 -7.15 Q38.05 -8.7 27.85 -7.6 L27.85 -8.1 43.85 -10.8 44.75 -10.9 29.75 -12.75 28.8 -12.8 Q36.05 -14.45 45.7 -14.2 L45.7 -14.65 28.9 -17.95 28.8 -18.4 Q36.5 -19.1 42.0 -17.55 L42.9 -17.5 Q39.1 -21.3 32.25 -22.05 L45.7 -21.25 44.95 -21.6 Q44.75 -21.7 44.75 -22.2 32.95 -27.75 44.8 -23.25 L45.7 -23.1 Q43.1 -27.55 35.3 -31.4 L34.9 -31.5 Q41.35 -31.05 47.8 -26.2 48.05 -25.95 48.55 -25.95 45.25 -31.1 37.5 -36.6 37.25 -36.75 37.25 -37.2 43.85 -33.95 49.6 -29.95 49.95 -29.7 50.4 -29.7 47.15 -35.4 42.2 -39.4 41.95 -39.55 41.95 -40.05 48.2 -35.95 53.95 -31.3 L54.0 -31.25 Q52.35 -36.0 48.55 -41.45 L49.45 -41.0 Q52.85 -35.15 54.65 -37.2 L54.15 -37.2 Q52.4 -42.5 49.7 -46.75 49.45 -47.1 49.45 -47.55 54.35 -42.6 58.25 -36.5 L58.85 -36.3 Q57.05 -42.45 54.35 -47.65 L54.15 -48.5 Q57.75 -45.0 61.5 -37.15 L61.65 -36.7 Q60.9 -44.4 61.2 -47.55 L61.7 -46.6 Q65.05 -36.5 64.5 -50.4 L64.5 -51.3 Q67.05 -43.5 69.2 -40.5 L69.2 -41.0 Q68.55 -50.05 70.15 -51.3 L70.4 -50.45 Q71.45 -46.05 72.05 -41.0 73.7 -43.5 74.9 -49.5 L75.8 -48.5 Q75.35 -39.8 76.55 -42.0 L76.75 -42.85 Q78.5 -46.65 79.45 -51.3 L79.55 -52.25 Q80.7 -45.5 78.7 -37.15 L78.6 -36.3 Q82.1 -44.55 85.2 -48.05 L85.2 -47.55 Q81.55 -39.35 84.25 -39.1 L84.65 -39.7 Q86.6 -42.4 88.0 -45.7 90.55 -48.75 89.15 -45.6 L88.95 -44.75 Q85.95 -38.8 86.15 -34.85 L86.15 -35.35 Q90.45 -42.65 92.15 -42.05 L92.7 -40.05 Q87.85 -34.6 90.8 -34.85 L90.85 -35.35 Q95.2 -39.9 98.35 -40.5 L98.35 -40.05 Q92.65 -34.05 93.7 -32.45 L94.85 -33.4 Q95.8 -34.1 97.4 -34.4 101.4 -36.55 94.35 -29.0 L94.3 -28.95 Q101.05 -30.9 104.0 -32.05 L104.0 -31.6 Q96.8 -28.05 98.65 -26.6 L101.15 -25.95 Q107.05 -30.85 107.3 -27.8 L106.8 -27.8 Q101.75 -24.9 97.9 -21.25 L98.35 -21.25 Q104.55 -23.95 109.15 -23.1 L108.7 -23.1 99.2 -18.6 98.35 -18.4 Q103.5 -17.55 110.6 -19.25 L111.5 -19.35 Q103.85 -16.2 101.65 -13.7 L103.05 -13.7 Q111.2 -14.1 108.55 -13.15 104.25 -11.6 99.3 -10.9 105.05 -9.1 112.4 -8.55 L112.35 -8.1 Q101.9 -8.75 98.8 -7.15 L99.3 -7.15 Q107.0 -5.45 108.2 -3.4 L106.8 -3.2 Q102.35 -2.65 100.25 -4.3 96.55 -2.6 105.8 -0.3 110.05 0.8 106.8 1.3 99.45 -1.05 98.55 0.9 98.4 1.25 100.05 1.9 102.9 2.85 104.95 5.1 106.6 6.5 99.55 3.6 L95.55 3.2 Q100.2 7.85 106.4 11.0 L106.2 11.4" fill="#999999" fill-rule="evenodd" stroke="none"/>
    <path d="M112.4 -8.55 Q105.05 -9.1 99.3 -10.9 104.25 -11.6 108.55 -13.15 111.2 -14.1 103.05 -13.7 L101.65 -13.7 Q103.85 -16.2 111.5 -19.35 L110.6 -19.25 Q103.5 -17.55 98.35 -18.4 L99.2 -18.6 108.7 -23.1 109.15 -23.1 Q104.55 -23.95 98.35 -21.25 L97.9 -21.25 Q101.75 -24.9 106.8 -27.8 L107.3 -27.8 Q107.05 -30.85 101.15 -25.95 L98.65 -26.6 Q96.8 -28.05 104.0 -31.6 L104.0 -32.05 Q101.05 -30.9 94.3 -28.95 L94.35 -29.0 Q101.4 -36.55 97.4 -34.4 95.8 -34.1 94.85 -33.4 L93.7 -32.45 Q92.65 -34.05 98.35 -40.05 L98.35 -40.5 Q95.2 -39.9 90.85 -35.35 L90.8 -34.85 Q87.85 -34.6 92.7 -40.05 L92.15 -42.05 Q90.45 -42.65 86.15 -35.35 L86.15 -34.85 Q85.95 -38.8 88.95 -44.75 L89.15 -45.6 Q90.55 -48.75 88.0 -45.7 86.6 -42.4 84.65 -39.7 L84.25 -39.1 Q81.55 -39.35 85.2 -47.55 L85.2 -48.05 Q82.1 -44.55 78.6 -36.3 L78.7 -37.15 Q80.7 -45.5 79.55 -52.25 L79.45 -51.3 Q78.5 -46.65 76.75 -42.85 L76.55 -42.0 Q75.35 -39.8 75.8 -48.5 L74.9 -49.5 Q73.7 -43.5 72.05 -41.0 71.45 -46.05 70.4 -50.45 L70.15 -51.3 Q68.55 -50.05 69.2 -41.0 L69.2 -40.5 Q67.05 -43.5 64.5 -51.3 L64.5 -50.4 Q65.05 -36.5 61.7 -46.6 L61.2 -47.55 Q60.9 -44.4 61.65 -36.7 L61.5 -37.15 Q57.75 -45.0 54.15 -48.5 L54.35 -47.65 Q57.05 -42.45 58.85 -36.3 L58.25 -36.5 Q54.35 -42.6 49.45 -47.55 49.45 -47.1 49.7 -46.75 52.4 -42.5 54.15 -37.2 L54.65 -37.2 Q52.85 -35.15 49.45 -41.0 L48.55 -41.45 Q52.35 -36.0 54.0 -31.25 L53.95 -31.3 Q48.2 -35.95 41.95 -40.05 41.95 -39.55 42.2 -39.4 47.15 -35.4 50.4 -29.7 49.95 -29.7 49.6 -29.95 43.85 -33.95 37.25 -37.2 37.25 -36.75 37.5 -36.6 45.25 -31.1 48.55 -25.95 48.05 -25.95 47.8 -26.2 41.35 -31.05 34.9 -31.5 L35.3 -31.4 Q43.1 -27.55 45.7 -23.1 L44.8 -23.25 Q32.95 -27.75 44.75 -22.2 44.75 -21.7 44.95 -21.6 L45.7 -21.25 32.25 -22.05 Q39.1 -21.3 42.9 -17.5 L42.0 -17.55 Q36.5 -19.1 28.8 -18.4 L28.9 -17.95 45.7 -14.65 45.7 -14.2 Q36.05 -14.45 28.8 -12.8 L29.75 -12.75 44.75 -10.9 43.85 -10.8 27.85 -8.1 27.85 -7.6 Q38.05 -8.7 46.65 -7.15 L45.75 -7.05 29.75 -3.4 29.75 -2.9 Q39.55 -4.8 47.6 -4.3 L46.7 -4.2 Q39.35 -2.2 33.5 1.3 L34.4 1.25 Q40.7 -0.4 46.65 -2.45 46.65 -1.95 46.45 -1.9 39.3 2.0 33.5 6.95 L34.3 6.75 Q41.6 2.3 48.1 1.35 47.9 1.4 47.8 1.55 41.3 6.3 35.35 11.65 L36.15 11.45 Q42.45 7.0 49.45 3.2 L49.25 3.85 Q42.9 8.55 41.25 13.85 L41.25 13.8 51.35 6.0 51.1 6.75 Q46.0 12.9 41.95 20.1 42.4 20.1 42.6 19.9 47.0 14.8 52.3 10.7 L52.1 11.5 Q48.6 17.35 45.7 23.9 L46.3 23.65 Q49.6 18.85 53.25 14.5 L54.0 14.7 Q55.0 15.5 52.55 21.45 L59.8 11.65 59.6 12.5 Q56.0 20.9 56.05 28.5 56.05 28.05 56.2 27.7 58.6 20.3 62.65 14.5 L62.55 15.35 Q60.35 23.95 60.75 30.45 61.05 27.45 61.55 25.5 63.75 16.7 66.4 18.25 65.15 21.25 65.35 25.75 L65.45 27.65 Q67.15 24.15 68.25 18.25 L68.25 17.75 Q69.55 22.15 71.1 31.4 L71.05 30.45 Q70.5 20.9 72.95 14.5 L73.0 15.4 Q73.35 21.15 74.85 25.75 L74.85 27.15 Q77.2 23.9 74.85 19.2 L74.85 17.75 Q77.95 21.7 80.5 27.65 L80.35 26.75 Q78.15 19.2 78.6 13.55 L78.8 14.4 86.15 28.6 85.95 27.7 Q83.0 20.45 83.3 14.5 L83.5 15.3 Q86.8 20.85 90.85 25.75 L90.65 24.9 Q87.6 19.6 85.2 13.55 L84.7 13.55 Q84.95 10.85 88.0 14.5 88.0 14.95 88.25 15.25 96.55 24.85 88.95 12.6 88.5 12.6 88.4 12.4 L88.0 11.65 99.3 19.2 99.05 18.55 Q94.9 15.55 92.7 10.7 L92.15 10.55 Q90.6 7.75 95.55 10.7 95.8 12.3 97.25 12.95 L98.8 13.55 Q99.1 10.95 93.9 7.15 98.9 8.3 106.2 11.4 L106.8 11.65 Q106.8 11.2 106.6 11.1 L106.4 11.0 Q100.2 7.85 95.55 3.2 L99.55 3.6 Q106.6 6.5 104.95 5.1 102.9 2.85 100.05 1.9 98.4 1.25 98.55 0.9 99.45 -1.05 106.8 1.3 110.05 0.8 105.8 -0.3 96.55 -2.6 100.25 -4.3 102.35 -2.65 106.8 -3.2 L108.2 -3.4 Q107.0 -5.45 99.3 -7.15 L98.8 -7.15 Q101.9 -8.75 112.35 -8.1 L112.45 -8.1 112.4 -8.55 M92.5 -52.85 Q121.7 -38.65 115.05 1.15 112.15 18.45 100.25 27.9 83.9 40.75 58.0 34.95 21.65 26.8 22.2 -18.4 32.4 -63.55 84.9 -55.3 88.6 -54.75 92.5 -52.85 M52.1 22.05 Q51.75 22.05 51.75 22.2 L51.35 22.95 52.1 22.05" fill="#161616" fill-rule="evenodd" stroke="none"/>
    <path d="M52.1 22.05 L51.35 22.95 51.75 22.2 Q51.75 22.05 52.1 22.05" fill="#ededed" fill-rule="evenodd" stroke="none"/>
  </g>
</svg>
