<?xml version="1.0" encoding="UTF-8" standalone="no"?>
<svg xmlns:ffdec="https://www.free-decompiler.com/flash" xmlns:xlink="http://www.w3.org/1999/xlink" ffdec:objectType="shape" height="18.75px" width="18.75px" xmlns="http://www.w3.org/2000/svg">
  <g transform="matrix(1.0, 0.0, 0.0, 1.0, 9.35, 9.4)">
    <path d="M1.65 -4.85 Q1.65 -5.65 1.1 -6.2 0.55 -6.75 -0.25 -6.75 -1.05 -6.75 -1.6 -6.2 -2.2 -5.65 -2.2 -4.85 -2.2 -4.05 -1.6 -3.45 -1.05 -2.9 -0.25 -2.9 0.55 -2.9 1.1 -3.45 1.65 -4.05 1.65 -4.85 M0.0 -9.4 Q3.9 -9.4 6.65 -6.6 9.4 -3.9 9.4 0.0 9.4 3.9 6.65 6.65 3.9 9.35 0.0 9.35 -3.9 9.35 -6.6 6.65 -9.35 3.9 -9.35 0.0 -9.35 -3.9 -6.6 -6.6 -3.9 -9.4 0.0 -9.4" fill="#040404" fill-rule="evenodd" stroke="none"/>
  </g>
</svg>
