<?xml version="1.0" encoding="UTF-8" standalone="no"?>
<svg xmlns:ffdec="https://www.free-decompiler.com/flash" xmlns:xlink="http://www.w3.org/1999/xlink" ffdec:objectType="shape" height="251.3px" width="626.1px" xmlns="http://www.w3.org/2000/svg">
  <g transform="matrix(1.0, 0.0, 0.0, 1.0, 679.25, 66.25)">
    <path d="M-671.25 177.05 L-652.3 123.95 -606.35 42.55" fill="none" stroke="#000000" stroke-linecap="round" stroke-linejoin="round" stroke-width="16.0"/>
    <path d="M-300.1 -60.35 Q-298.4 -57.2 -296.25 -52.2 L-296.25 -49.95 Q-296.25 -49.25 -297.5 -49.25 -298.35 -49.25 -306.75 -64.9 L-306.7 -65.7 -305.5 -66.25 Q-303.25 -66.25 -300.1 -60.35 M-269.75 -11.15 Q-257.85 -11.15 -248.85 -2.75 -245.95 -0.05 -243.75 3.15 -242.15 5.5 -242.0 6.25 -240.0 13.25 -233.8 18.0 L-230.0 21.15 Q-228.4 22.9 -228.4 25.25 -228.4 26.2 -229.15 27.25 -230.15 28.6 -231.9 28.6 -236.35 28.6 -241.4 24.75 L-246.75 19.9 Q-252.6 14.7 -257.65 11.75 -274.4 1.95 -274.4 -6.15 -274.4 -11.15 -269.75 -11.15 M-189.35 -9.35 Q-188.7 -11.6 -186.6 -11.6 -183.1 -11.6 -183.1 -9.85 -183.1 -9.5 -184.4 -8.7 L-185.85 -7.45 Q-186.2 -6.25 -186.2 -4.9 -186.2 -0.35 -183.7 1.45 L-184.0 1.8 Q-185.65 1.8 -188.0 -2.4 -189.6 -5.15 -189.6 -6.8 L-189.35 -9.35 M-158.4 22.3 Q-156.3 23.7 -155.8 24.3 -154.45 25.9 -154.45 28.75 -154.45 31.3 -157.35 31.3 -160.05 31.3 -160.35 29.8 L-160.7 28.1 Q-161.1 26.0 -163.05 25.9 -164.85 25.8 -164.85 25.0 -164.85 24.55 -163.7 22.75 -162.4 20.7 -161.55 20.7 -160.75 20.7 -158.4 22.3 M-153.8 95.6 Q-156.85 95.55 -166.35 88.55 L-177.45 80.55 -183.35 77.25 Q-187.85 74.55 -187.85 73.45 -187.85 72.7 -187.5 72.7 L-181.1 75.6 -169.05 78.2 Q-165.2 79.1 -155.35 84.35 -151.1 86.55 -145.25 91.1 -137.95 96.75 -137.95 99.35 -137.95 100.3 -139.3 101.35 -140.95 102.55 -143.4 101.85 -145.85 101.1 -147.8 99.35 -149.8 97.6 -150.25 96.65 -150.75 95.65 -153.8 95.6 M-101.75 84.4 L-100.5 84.35 Q-98.85 84.35 -96.65 86.0 -94.65 87.4 -94.65 87.9 -94.65 89.1 -95.5 89.1 -97.45 89.1 -99.75 87.35 -101.9 85.75 -101.9 84.9 L-101.75 84.4 M-112.1 75.5 L-111.5 75.35 Q-108.95 75.35 -106.9 79.75 -107.15 80.35 -107.5 80.35 -108.55 80.35 -110.4 78.5 -112.15 76.7 -112.15 76.05 L-112.1 75.5 M-87.25 122.85 Q-82.65 122.85 -77.85 124.45 -73.1 126.0 -66.3 126.0 L-55.65 125.1 Q-53.85 125.1 -53.65 130.45 L-53.25 130.5 -53.15 130.9 Q-53.15 131.3 -53.65 131.55 -53.7 131.8 -53.75 131.6 L-54.3 131.85 -54.75 131.8 -56.25 131.85 Q-57.05 131.85 -62.65 129.8 -68.25 127.75 -77.65 127.75 L-87.8 128.8 -95.9 129.85 Q-98.75 129.85 -100.8 128.5 -102.2 127.6 -102.35 127.05 -102.9 126.85 -102.9 126.4 -102.9 125.65 -97.75 124.4 -92.75 123.15 -89.85 123.0 L-87.25 122.85 M-131.5 142.85 Q-133.45 142.85 -134.5 141.4 L-135.15 139.9 -135.0 139.4 -134.5 139.35 Q-132.25 139.35 -129.65 142.0 -129.65 142.85 -131.5 142.85 M-82.6 160.75 L-82.65 160.4 Q-82.65 160.05 -81.75 159.85 L-81.0 160.0 -80.9 160.4 -81.0 160.9 -81.75 161.1 Q-82.3 161.1 -82.6 160.75 M-176.6 8.4 Q-176.6 8.05 -175.95 8.3 L-171.8 10.2 Q-168.3 11.85 -168.2 12.65 -168.1 13.45 -169.9 13.45 -172.2 13.45 -174.55 11.3 -176.6 9.4 -176.6 8.4 M-163.75 22.25 Q-165.4 24.3 -167.25 24.3 -169.75 24.3 -171.65 21.8 -173.1 19.9 -173.1 18.85 -173.1 17.95 -170.95 15.9 -168.45 13.55 -166.15 13.55 -164.15 13.55 -162.45 19.8 -162.45 20.55 -163.75 22.25 M-213.0 45.4 Q-204.75 45.4 -200.35 50.9 -197.75 54.1 -197.55 56.8 -197.35 59.05 -194.7 64.05 L-192.1 69.3 Q-192.1 71.25 -194.0 71.25 -196.1 71.25 -203.15 66.75 L-210.7 61.65 -217.9 56.65 Q-222.45 53.1 -222.45 51.15 -222.45 47.15 -218.7 45.95 L-213.0 45.4 M-177.25 58.45 L-177.25 54.8 -176.95 54.7 Q-176.3 54.7 -175.45 58.05 -175.45 59.05 -176.45 59.05 -177.1 59.05 -177.25 58.45" fill="#540101" fill-rule="evenodd" stroke="none"/>
    <path d="M-272.4 -6.15 Q-272.4 -9.1 -269.75 -9.15 -258.65 -9.15 -250.2 -1.3 L-250.2 -1.25 Q-247.5 1.25 -245.4 4.3 L-243.95 6.65 -243.9 6.8 Q-241.75 14.45 -235.0 19.6 L-232.5 21.6 Q-233.3 22.1 -234.4 22.1 -238.85 22.1 -243.9 18.25 L-249.25 13.4 Q-255.1 8.2 -260.15 5.25 -267.45 1.0 -271.55 -2.95 -272.35 -4.6 -272.4 -6.15 M-159.85 24.8 L-160.25 24.8 Q-161.05 24.15 -162.1 24.0 L-162.0 23.85 -161.55 23.25 -161.45 23.15 Q-161.3 22.85 -161.55 22.7 -161.1 22.85 -159.5 23.95 L-159.5 24.0 -158.55 24.65 -159.85 24.8 M-145.9 95.35 Q-148.35 94.6 -150.3 92.85 -152.3 91.1 -152.75 90.15 -153.25 89.15 -156.3 89.1 -159.35 89.05 -168.85 82.05 L-172.25 79.6 -169.45 80.15 -169.5 80.15 Q-165.8 81.05 -156.3 86.15 L-156.25 86.15 Q-152.15 88.25 -146.45 92.7 L-143.1 95.5 -145.9 95.35 M-166.2 15.7 L-166.25 15.75 Q-167.9 17.8 -169.75 17.8 L-170.0 17.8 -169.5 17.35 -169.55 17.35 Q-167.85 15.75 -166.35 15.6 L-166.3 15.6 -166.2 15.7 M-218.05 47.85 L-213.0 47.4 Q-205.8 47.4 -201.9 52.15 L-201.85 52.2 -201.5 52.7 -201.4 52.85 Q-199.75 55.05 -199.55 57.0 L-199.5 57.15 Q-199.3 59.55 -196.6 64.75 -198.75 64.65 -205.65 60.25 L-213.2 55.15 -220.35 50.2 -220.15 49.65 -220.1 49.55 Q-219.6 48.35 -218.1 47.85 L-218.05 47.85" fill="#e10404" fill-rule="evenodd" stroke="none"/>
  </g>
</svg>
