<?xml version="1.0" encoding="UTF-8" standalone="no"?>
<svg xmlns:ffdec="https://www.free-decompiler.com/flash" xmlns:xlink="http://www.w3.org/1999/xlink" ffdec:objectType="shape" height="68.25px" width="295.55px" xmlns="http://www.w3.org/2000/svg">
  <g transform="matrix(1.0, 0.0, 0.0, 1.0, 146.95, 34.4)">
    <path d="M136.05 -28.65 L136.3 -28.0 Q140.4 -26.85 141.9 -23.4 L142.1 -22.5 Q144.95 -18.8 146.75 -14.2 L146.9 -13.35 Q148.6 -8.6 148.6 -1.45 148.6 6.05 146.9 11.35 L146.75 12.2 Q141.9 28.05 124.65 32.35 122.95 33.9 118.85 33.85 90.35 33.25 61.8 33.25 L4.75 33.25 -52.25 33.25 Q-80.8 33.25 -109.35 33.8 -117.35 33.95 -122.9 32.35 L-123.85 32.35 -124.85 32.35 -125.8 32.3 Q-131.3 32.0 -133.6 28.7 L-134.45 28.5 Q-139.6 25.7 -142.25 20.45 -142.25 20.0 -142.5 19.7 -144.35 17.0 -145.65 13.7 L-145.65 13.5 -146.6 10.0 -146.7 9.7 -146.95 -0.15 -146.85 -0.5 -146.85 -2.65 Q-146.85 -7.5 -145.95 -15.55 L-145.95 -15.6 Q-139.35 -28.8 -123.8 -33.35 L-122.9 -33.5 -122.9 -33.6 -122.75 -33.6 -121.55 -33.85 -121.4 -33.9 -121.0 -34.0 -119.15 -34.35 -118.8 -34.4 -65.85 -34.4 -8.8 -34.4 48.25 -34.4 105.3 -34.4 Q114.5 -34.4 123.65 -34.0 124.15 -33.95 124.65 -33.5 131.6 -32.25 136.05 -28.65" fill="#000000" fill-rule="evenodd" stroke="none"/>
  </g>
</svg>
