<?xml version="1.0" encoding="UTF-8" standalone="no"?>
<svg xmlns:ffdec="https://www.free-decompiler.com/flash" xmlns:xlink="http://www.w3.org/1999/xlink" ffdec:objectType="shape" height="260.15px" width="629.25px" xmlns="http://www.w3.org/2000/svg">
  <g transform="matrix(1.0, 0.0, 0.0, 1.0, 673.55, 76.25)">
    <path d="M-665.55 175.9 L-645.55 123.1 -598.4 42.55" fill="none" stroke="#000000" stroke-linecap="round" stroke-linejoin="round" stroke-width="16.0"/>
    <path d="M-310.5 -76.25 Q-308.9 -76.25 -306.3 -71.6 -303.75 -67.0 -303.75 -64.45 -303.75 -63.75 -305.0 -63.75 -306.5 -63.75 -309.25 -69.25 -311.75 -74.2 -311.75 -74.9 L-311.7 -75.7 -310.5 -76.25 M-272.05 -8.3 Q-270.7 -10.05 -266.75 -9.5 L-264.15 -9.65 Q-250.7 -5.1 -247.55 3.8 -246.75 6.0 -246.1 9.65 -245.4 12.4 -243.75 13.0 -239.3 14.65 -234.3 19.0 -229.9 22.85 -229.9 23.85 -229.9 24.9 -231.65 25.65 L-235.2 26.1 Q-236.95 25.85 -238.35 24.5 L-241.8 21.05 Q-250.5 12.35 -264.6 4.75 -272.65 0.4 -272.65 -6.3 L-272.05 -8.3 M-183.15 -10.05 Q-182.45 -9.45 -182.45 -9.05 -182.45 -8.65 -184.5 -7.7 -186.6 -6.75 -186.6 -4.95 -186.6 -3.45 -185.6 -1.85 -185.6 -1.05 -186.2 -1.05 L-187.85 -3.75 Q-189.0 -5.0 -189.0 -6.35 -189.0 -7.1 -188.1 -8.7 -186.9 -10.85 -185.25 -10.85 -184.05 -10.85 -183.15 -10.05 M-159.6 29.6 L-159.95 28.5 -159.35 26.05 Q-159.35 25.2 -159.7 25.2 L-161.8 25.45 Q-163.45 25.45 -164.05 25.05 L-164.35 24.65 Q-164.35 23.9 -163.6 22.85 -162.6 21.45 -161.1 21.45 -158.45 21.45 -156.6 23.7 -155.1 25.5 -155.1 26.85 -155.1 30.55 -157.7 30.55 -159.0 30.55 -159.6 29.6 M-160.55 83.35 Q-160.4 82.65 -159.55 82.65 -158.6 82.65 -153.65 86.4 L-153.0 87.35 -152.15 88.25 -147.85 89.6 Q-146.2 90.3 -143.25 93.0 -140.05 95.9 -140.05 97.15 -140.05 98.3 -140.45 99.05 L-140.25 100.35 Q-140.25 101.45 -141.55 101.45 -144.2 101.45 -145.7 98.95 -145.45 96.2 -146.85 96.2 L-148.0 96.45 Q-148.85 96.45 -150.0 94.5 -151.15 92.5 -151.5 92.5 -151.8 92.5 -152.0 93.45 -152.2 94.35 -153.75 94.35 -159.0 94.35 -159.65 90.1 -159.85 88.85 -163.2 87.8 L-167.3 86.65 Q-168.75 86.1 -169.9 84.6 L-171.35 82.45 Q-172.7 80.65 -175.6 80.25 -177.95 79.9 -177.95 78.8 -177.95 77.25 -175.8 77.25 -175.1 77.25 -173.6 78.25 -172.65 78.9 -171.8 78.95 L-169.0 78.85 Q-166.15 78.85 -164.5 81.45 -162.85 84.0 -161.6 84.0 -160.7 84.0 -160.55 83.35 M-108.75 79.85 L-107.95 80.7 Q-107.15 81.2 -107.15 81.5 -107.15 82.1 -107.25 81.85 L-107.9 82.1 Q-108.5 82.1 -109.65 80.9 L-110.65 79.65 Q-110.65 78.3 -109.4 78.6 L-108.5 78.75 Q-108.4 79.1 -108.75 79.85 M-99.4 86.85 Q-98.2 86.85 -97.0 87.75 -95.9 88.55 -95.9 89.05 L-96.0 89.75 -97.0 89.85 Q-99.75 89.85 -100.65 87.25 -100.4 86.85 -99.4 86.85 M-89.4 125.35 L-75.5 126.0 -75.4 126.4 Q-75.4 127.55 -80.0 130.0 -85.4 132.85 -90.5 132.85 -91.9 132.85 -96.0 131.15 -99.9 129.55 -99.9 129.35 -99.9 128.5 -97.25 127.1 -93.95 125.35 -89.4 125.35 M-130.9 141.4 Q-130.35 142.1 -131.9 142.1 -133.1 142.1 -133.65 140.5 -133.4 140.1 -132.75 140.1 -132.3 140.1 -131.6 140.6 L-130.9 141.4 M-71.0 126.15 L-68.75 125.85 Q-65.2 125.85 -61.35 126.95 -57.55 128.0 -51.95 128.0 L-48.2 127.55 -45.5 127.1 Q-44.0 127.1 -44.4 129.55 -44.4 131.05 -44.55 131.15 -45.55 131.85 -50.9 131.85 -57.4 131.85 -59.35 130.95 -60.5 129.75 -61.5 129.25 -64.4 127.8 -71.15 126.9 L-71.0 126.15 M-174.65 9.4 Q-173.85 9.5 -171.5 10.75 -169.15 12.0 -168.8 12.65 -168.5 13.3 -169.7 13.3 -171.2 13.3 -173.4 11.8 -175.45 10.4 -175.45 9.85 -175.45 9.25 -174.65 9.4 M-168.55 15.95 L-167.3 16.1 Q-165.75 16.1 -165.05 15.6 -163.6 15.6 -162.75 19.8 -162.75 20.45 -164.2 22.15 -165.8 24.05 -167.0 24.05 -168.7 24.05 -170.7 22.05 -172.1 20.65 -172.1 19.5 -172.1 18.55 -171.2 17.4 -170.1 15.95 -168.55 15.95 M-210.75 46.3 Q-207.75 46.3 -204.85 47.8 -202.15 49.2 -201.95 50.55 L-201.85 53.5 Q-201.5 55.15 -199.25 56.45 -197.25 57.6 -196.6 59.25 L-196.0 62.2 Q-195.85 63.1 -195.85 65.15 -195.55 66.15 -194.8 66.8 -194.2 67.35 -194.2 68.0 -194.2 69.25 -196.15 69.25 -200.25 69.25 -202.55 64.55 -203.7 62.25 -204.1 62.1 -205.25 61.65 -207.85 61.4 -209.9 61.2 -210.35 60.6 L-212.4 58.15 Q-213.15 57.25 -214.9 56.7 L-217.05 55.9 Q-218.35 54.05 -219.15 53.5 L-220.95 52.35 Q-221.35 52.1 -221.35 51.35 -221.35 50.55 -220.0 49.25 -218.5 47.8 -217.0 47.8 -215.9 47.8 -215.3 48.25 -214.75 48.25 -213.85 47.3 -212.9 46.3 -210.75 46.3 M-176.5 56.2 Q-176.3 56.2 -175.85 58.0 L-176.25 58.3 -176.7 58.25 -176.85 56.85 -176.85 56.3 -176.5 56.2" fill="#540101" fill-rule="evenodd" stroke="none"/>
    <path d="M-265.25 -8.15 Q-265.2 -7.75 -264.6 -7.65 -254.65 -4.25 -250.8 1.7 -249.95 3.0 -249.4 4.5 L-248.7 6.7 -248.75 6.65 -248.05 10.0 -248.05 10.15 -247.65 11.4 Q-255.55 4.45 -267.1 -1.75 L-270.2 -3.75 Q-270.6 -4.85 -270.65 -6.05 L-270.65 -6.1 -270.65 -6.3 -270.3 -7.2 Q-269.35 -7.85 -267.0 -7.5 L-265.9 -7.65 Q-265.55 -7.85 -265.25 -8.15 M-159.0 85.0 L-155.3 87.65 -155.2 87.7 -156.25 87.85 -159.25 87.4 -160.45 86.75 -161.2 86.0 Q-159.65 85.9 -159.0 85.0 M-144.65 94.45 L-144.15 94.85 -144.05 94.95 -144.85 94.9 Q-145.8 94.75 -146.6 94.2 -147.5 93.6 -148.2 92.45 L-148.15 91.7 Q-146.8 92.45 -144.6 94.5 L-144.65 94.45 M-166.55 18.55 L-166.85 18.15 -166.85 18.1 -165.2 17.9 -165.1 17.85 -164.95 18.95 -166.55 18.55 M-240.85 18.0 L-243.65 15.2 Q-240.3 16.65 -236.6 19.65 L-237.7 19.6 Q-239.45 19.35 -240.85 18.0 M-210.75 48.3 Q-208.2 48.3 -205.75 49.6 L-204.8 50.15 -203.9 50.9 Q-203.8 51.85 -203.85 53.45 L-203.8 53.95 Q-203.45 56.35 -200.25 58.2 L-200.2 58.2 -199.55 58.65 Q-198.85 59.2 -198.5 59.9 L-197.95 62.6 -197.95 62.55 -197.95 62.7 -198.65 62.75 Q-200.3 62.75 -201.65 62.0 -202.75 60.2 -203.4 60.25 L-203.35 60.25 -203.8 60.1 -205.05 58.05 Q-206.2 55.75 -206.6 55.6 L-210.35 54.9 Q-212.4 54.7 -212.85 54.1 L-214.9 51.65 Q-215.65 50.75 -217.4 50.2 L-217.8 50.1 -217.0 49.8 -216.5 49.85 Q-215.95 50.25 -215.3 50.25 -214.1 50.5 -212.4 48.7 -211.85 48.3 -210.75 48.3" fill="#e10404" fill-rule="evenodd" stroke="none"/>
  </g>
</svg>
