<?xml version="1.0" encoding="UTF-8" standalone="no"?>
<svg xmlns:ffdec="https://www.free-decompiler.com/flash" xmlns:xlink="http://www.w3.org/1999/xlink" ffdec:objectType="shape" height="22.2px" width="331.5px" xmlns="http://www.w3.org/2000/svg">
  <g transform="matrix(1.0, 0.0, 0.0, 1.0, 103.5, 2.9)">
    <path d="M39.45 -0.5 L39.45 3.6 43.75 3.6 43.75 6.7 39.45 6.7 39.45 11.75 39.45 13.05 Q39.5 13.6 39.7 14.05 L40.3 14.75 41.6 15.0 42.55 14.85 43.35 14.6 43.75 14.6 43.75 17.7 42.2 18.05 40.2 18.15 Q37.5 18.15 36.25 17.0 35.0 15.9 35.0 13.35 L35.0 6.7 33.3 6.7 33.3 3.6 35.0 3.6 35.0 -0.5 39.45 -0.5 M87.35 -1.9 L87.35 5.15 89.5 3.7 Q90.5 3.2 91.75 3.2 93.95 3.2 95.1 4.6 96.25 5.95 96.25 8.55 L96.25 17.85 91.8 17.85 91.8 10.8 91.7 9.05 91.45 7.8 90.8 7.1 89.65 6.9 88.55 7.1 87.35 7.75 87.35 17.85 82.9 17.85 82.9 -1.9 87.35 -1.9 M133.15 -1.9 L133.15 9.15 137.35 3.6 142.6 3.6 137.6 9.75 142.95 17.85 137.7 17.85 133.85 11.65 133.15 12.55 133.15 17.85 128.7 17.85 128.7 -1.9 133.15 -1.9 M156.5 -1.9 L156.5 1.55 151.8 1.55 151.8 -1.9 156.5 -1.9 M215.6 -0.5 L215.6 3.6 219.9 3.6 219.9 6.7 215.6 6.7 215.6 11.75 215.6 13.05 215.85 14.05 Q216.0 14.5 216.45 14.75 L217.75 15.0 218.7 14.85 219.5 14.6 219.9 14.6 219.9 17.7 218.35 18.05 216.35 18.15 Q213.65 18.15 212.4 17.0 211.15 15.9 211.15 13.35 L211.15 6.7 209.45 6.7 209.45 3.6 211.15 3.6 211.15 -0.5 215.6 -0.5 M227.0 -1.05 L226.45 12.4 222.45 12.4 221.95 -1.05 227.0 -1.05 M164.5 -0.5 L164.5 3.6 168.8 3.6 168.8 6.7 164.5 6.7 164.5 11.75 164.5 13.05 164.75 14.05 Q164.9 14.5 165.35 14.75 L166.65 15.0 167.6 14.85 168.4 14.6 168.8 14.6 168.8 17.7 167.25 18.05 165.25 18.15 Q162.55 18.15 161.3 17.0 160.05 15.9 160.05 13.35 L160.05 6.7 158.35 6.7 158.35 3.6 160.05 3.6 160.05 -0.5 164.5 -0.5 M226.95 17.85 L221.95 17.85 221.95 14.5 226.95 14.5 226.95 17.85 M207.5 3.6 L207.5 17.85 203.05 17.85 203.05 16.3 200.95 17.75 198.65 18.25 Q196.5 18.25 195.35 16.9 194.15 15.55 194.15 12.85 L194.15 3.6 198.6 3.6 198.6 10.65 198.65 12.45 198.95 13.65 199.55 14.3 200.75 14.55 201.85 14.3 Q202.5 14.1 203.05 13.7 L203.05 3.6 207.5 3.6 M189.95 5.2 Q191.9 7.2 191.9 10.75 191.9 14.25 189.95 16.3 188.05 18.3 184.5 18.3 181.05 18.3 179.1 16.3 177.15 14.25 177.15 10.75 177.15 7.15 179.1 5.15 181.05 3.15 184.5 3.15 188.05 3.15 189.95 5.2 M187.15 8.65 L186.55 7.3 185.65 6.55 184.5 6.35 183.45 6.55 Q182.95 6.7 182.55 7.2 182.15 7.7 181.95 8.6 181.7 9.45 181.7 10.75 181.7 12.05 181.95 12.85 L182.5 14.15 183.4 14.9 184.55 15.1 185.65 14.9 Q186.2 14.65 186.55 14.2 L187.15 12.9 187.35 10.75 187.15 8.65 M156.4 3.6 L156.4 17.85 151.95 17.85 151.95 3.6 156.4 3.6 M126.6 8.15 L126.05 8.15 125.4 7.6 124.55 7.05 Q124.05 6.75 123.45 6.6 L122.1 6.4 Q120.4 6.4 119.45 7.6 118.5 8.75 118.5 10.8 118.5 12.9 119.5 14.0 120.5 15.05 122.15 15.05 L123.65 14.85 124.75 14.4 125.5 13.85 126.05 13.3 126.6 13.3 126.6 17.15 125.75 17.5 124.7 17.85 123.5 18.15 122.0 18.25 118.75 17.8 Q117.3 17.35 116.2 16.4 115.15 15.5 114.55 14.1 113.95 12.7 113.95 10.8 113.95 8.75 114.6 7.3 115.25 5.85 116.35 4.95 117.45 4.05 118.85 3.65 L121.85 3.2 124.25 3.5 Q125.4 3.75 126.6 4.35 L126.6 8.15 M112.7 11.55 L102.95 11.55 Q103.05 12.55 103.4 13.25 L104.3 14.3 Q104.9 14.7 105.65 14.85 L107.3 15.0 108.85 14.85 110.2 14.4 111.25 13.9 112.0 13.4 112.45 13.4 112.45 17.05 111.45 17.45 110.2 17.8 108.75 18.15 106.85 18.25 Q102.8 18.25 100.65 16.3 98.5 14.35 98.5 10.8 98.5 7.3 100.5 5.25 102.5 3.15 106.15 3.15 109.4 3.15 111.05 4.9 112.7 6.7 112.7 9.95 L112.7 11.55 M108.3 8.9 Q108.3 7.5 107.7 6.75 107.05 6.0 105.8 6.0 104.5 6.0 103.75 6.8 103.05 7.55 102.95 8.9 L108.3 8.9 M78.45 3.5 Q79.6 3.75 80.8 4.35 L80.8 8.15 80.25 8.15 79.6 7.6 78.75 7.05 Q78.25 6.75 77.65 6.6 L76.3 6.4 Q74.6 6.4 73.65 7.6 72.7 8.75 72.7 10.8 72.7 12.9 73.7 14.0 74.7 15.05 76.35 15.05 L77.85 14.85 78.95 14.4 79.7 13.85 80.25 13.3 80.8 13.3 80.8 17.15 79.95 17.5 78.9 17.85 77.7 18.15 76.2 18.25 72.95 17.8 Q71.5 17.35 70.4 16.4 69.35 15.5 68.75 14.1 68.15 12.7 68.15 10.8 68.15 8.75 68.8 7.3 69.45 5.85 70.55 4.95 71.65 4.05 73.05 3.65 L76.05 3.2 78.45 3.5 M50.8 6.55 Q50.3 6.7 49.9 7.2 49.5 7.7 49.3 8.6 49.05 9.45 49.05 10.75 49.05 12.05 49.3 12.85 49.5 13.65 49.85 14.15 L50.75 14.9 51.9 15.1 53.0 14.9 Q53.55 14.65 53.9 14.2 L54.5 12.9 54.7 10.75 54.5 8.65 53.9 7.3 53.0 6.55 51.85 6.35 50.8 6.55 M57.3 5.2 Q59.25 7.2 59.25 10.75 59.25 14.25 57.3 16.3 55.4 18.3 51.85 18.3 48.4 18.3 46.45 16.3 44.5 14.25 44.5 10.75 44.5 7.15 46.45 5.15 48.4 3.15 51.85 3.15 55.4 3.15 57.3 5.2 M24.85 11.55 L15.1 11.55 Q15.2 12.55 15.55 13.25 L16.45 14.3 17.8 14.85 19.45 15.0 21.0 14.85 22.35 14.4 23.4 13.9 24.15 13.4 24.6 13.4 24.6 17.05 23.6 17.45 22.35 17.8 20.9 18.15 19.0 18.25 Q14.95 18.25 12.8 16.3 10.65 14.35 10.65 10.8 10.65 7.3 12.65 5.25 14.65 3.15 18.3 3.15 21.55 3.15 23.2 4.9 24.85 6.7 24.85 9.95 L24.85 11.55 M15.9 6.8 Q15.2 7.55 15.1 8.9 L20.45 8.9 Q20.45 7.5 19.85 6.75 19.2 6.0 17.95 6.0 16.65 6.0 15.9 6.8 M10.0 3.6 L10.0 7.8 9.65 7.8 8.9 7.65 7.85 7.6 6.4 7.8 Q5.6 8.0 4.9 8.3 L4.9 17.85 0.45 17.85 0.45 3.6 4.9 3.6 4.9 5.65 Q5.2 5.35 5.75 4.95 L6.7 4.25 7.85 3.75 9.05 3.55 9.55 3.55 10.0 3.6 M-91.2 -1.3 L-89.45 -0.95 -88.05 -0.4 -86.85 0.15 -86.85 4.65 -87.3 4.65 -88.2 3.95 -89.35 3.1 Q-90.0 2.7 -90.8 2.4 L-92.45 2.1 -94.35 2.45 Q-95.2 2.75 -96.0 3.55 L-97.15 5.5 Q-97.6 6.75 -97.6 8.45 -97.6 10.2 -97.15 11.4 L-95.9 13.35 -94.25 14.35 -92.45 14.7 -90.65 14.35 -89.2 13.65 -88.1 12.85 -87.25 12.15 -86.85 12.15 -86.85 16.6 -88.05 17.15 -89.45 17.65 -91.1 18.1 -93.25 18.2 Q-97.5 18.2 -100.0 15.65 -102.5 13.1 -102.5 8.4 -102.5 3.9 -100.0 1.25 -97.5 -1.4 -93.25 -1.4 L-91.2 -1.3 M-71.9 -1.9 L-71.9 1.55 -76.6 1.55 -76.6 -1.9 -71.9 -1.9 M-50.45 -1.9 L-50.45 9.15 -46.25 3.6 -41.0 3.6 -46.0 9.75 -40.65 17.85 -45.9 17.85 -49.75 11.65 -50.45 12.55 -50.45 17.85 -54.9 17.85 -54.9 -1.9 -50.45 -1.9 M-27.2 -1.9 L-27.2 5.15 -25.05 3.7 Q-24.05 3.2 -22.8 3.2 -20.6 3.2 -19.45 4.6 -18.3 5.95 -18.3 8.55 L-18.3 17.85 -22.75 17.85 -22.75 10.8 -22.85 9.05 Q-22.9 8.2 -23.1 7.8 -23.3 7.3 -23.75 7.1 L-24.9 6.9 -26.0 7.1 -27.2 7.75 -27.2 17.85 -31.65 17.85 -31.65 -1.9 -27.2 -1.9 M-79.85 -1.9 L-79.85 17.85 -84.3 17.85 -84.3 -1.9 -79.85 -1.9 M-3.5 4.9 Q-1.85 6.7 -1.85 9.95 L-1.85 11.55 -11.6 11.55 -11.15 13.25 -10.25 14.3 -8.9 14.85 -7.25 15.0 -5.7 14.85 -4.35 14.4 -3.3 13.9 -2.55 13.4 -2.1 13.4 -2.1 17.05 -3.1 17.45 -4.35 17.8 -5.8 18.15 -7.7 18.25 Q-11.75 18.25 -13.9 16.3 -16.05 14.35 -16.05 10.8 -16.05 7.3 -14.05 5.25 -12.05 3.15 -8.4 3.15 -5.15 3.15 -3.5 4.9 M-8.75 6.0 Q-10.05 6.0 -10.8 6.8 -11.5 7.55 -11.6 8.9 L-6.25 8.9 Q-6.25 7.5 -6.85 6.75 -7.5 6.0 -8.75 6.0 M-60.15 6.6 L-61.5 6.4 Q-63.2 6.4 -64.15 7.6 -65.1 8.75 -65.1 10.8 -65.1 12.9 -64.1 14.0 -63.1 15.05 -61.45 15.05 L-59.95 14.85 -58.85 14.4 -58.1 13.85 -57.55 13.3 -57.0 13.3 -57.0 17.15 -57.85 17.5 -58.9 17.85 -60.1 18.15 -61.6 18.25 -64.85 17.8 Q-66.3 17.35 -67.4 16.4 -68.45 15.5 -69.05 14.1 -69.65 12.7 -69.65 10.8 -69.65 8.75 -69.0 7.3 -68.35 5.85 -67.25 4.95 -66.15 4.05 -64.75 3.65 L-61.75 3.2 -59.35 3.5 Q-58.2 3.75 -57.0 4.35 L-57.0 8.15 -57.55 8.15 -58.2 7.6 -59.05 7.05 Q-59.55 6.75 -60.15 6.6 M-72.0 3.6 L-72.0 17.85 -76.45 17.85 -76.45 3.6 -72.0 3.6" fill="#ffffff" fill-rule="evenodd" stroke="none"/>
    <path d="M39.45 -0.5 L39.45 3.6 43.75 3.6 43.75 6.7 39.45 6.7 39.45 11.75 39.45 13.05 Q39.5 13.6 39.7 14.05 L40.3 14.75 41.6 15.0 42.55 14.85 43.35 14.6 43.75 14.6 43.75 17.7 42.2 18.05 40.2 18.15 Q37.5 18.15 36.25 17.0 35.0 15.9 35.0 13.35 L35.0 6.7 33.3 6.7 33.3 3.6 35.0 3.6 35.0 -0.5 39.45 -0.5 M87.35 -1.9 L87.35 5.15 89.5 3.7 Q90.5 3.2 91.75 3.2 93.95 3.2 95.1 4.6 96.25 5.95 96.25 8.55 L96.25 17.85 91.8 17.85 91.8 10.8 91.7 9.05 91.45 7.8 90.8 7.1 89.65 6.9 88.55 7.1 87.35 7.75 87.35 17.85 82.9 17.85 82.9 -1.9 87.35 -1.9 M133.15 -1.9 L133.15 9.15 137.35 3.6 142.6 3.6 137.6 9.75 142.95 17.85 137.7 17.85 133.85 11.65 133.15 12.55 133.15 17.85 128.7 17.85 128.7 -1.9 133.15 -1.9 M156.5 -1.9 L156.5 1.55 151.8 1.55 151.8 -1.9 156.5 -1.9 M215.6 -0.5 L215.6 3.6 219.9 3.6 219.9 6.7 215.6 6.7 215.6 11.75 215.6 13.05 215.85 14.05 Q216.0 14.5 216.45 14.75 L217.75 15.0 218.7 14.85 219.5 14.6 219.9 14.6 219.9 17.7 218.35 18.05 216.35 18.15 Q213.65 18.15 212.4 17.0 211.15 15.9 211.15 13.35 L211.15 6.7 209.45 6.7 209.45 3.6 211.15 3.6 211.15 -0.5 215.6 -0.5 M227.0 -1.05 L226.45 12.4 222.45 12.4 221.95 -1.05 227.0 -1.05 M164.5 -0.5 L164.5 3.6 168.8 3.6 168.8 6.7 164.5 6.7 164.5 11.75 164.5 13.05 164.75 14.05 Q164.9 14.5 165.35 14.75 L166.65 15.0 167.6 14.85 168.4 14.6 168.8 14.6 168.8 17.7 167.25 18.05 165.25 18.15 Q162.55 18.15 161.3 17.0 160.05 15.9 160.05 13.35 L160.05 6.7 158.35 6.7 158.35 3.6 160.05 3.6 160.05 -0.5 164.5 -0.5 M226.95 17.85 L221.95 17.85 221.95 14.5 226.95 14.5 226.95 17.85 M207.5 3.6 L207.5 17.85 203.05 17.85 203.05 16.3 200.95 17.75 198.65 18.25 Q196.5 18.25 195.35 16.9 194.15 15.55 194.15 12.85 L194.15 3.6 198.6 3.6 198.6 10.65 198.65 12.45 198.95 13.65 199.55 14.3 200.75 14.55 201.85 14.3 Q202.5 14.1 203.05 13.7 L203.05 3.6 207.5 3.6 M189.95 5.2 Q191.9 7.2 191.9 10.75 191.9 14.25 189.95 16.3 188.05 18.3 184.5 18.3 181.05 18.3 179.1 16.3 177.15 14.25 177.15 10.75 177.15 7.15 179.1 5.15 181.05 3.15 184.5 3.15 188.05 3.15 189.95 5.2 M187.15 8.65 L186.55 7.3 185.65 6.55 184.5 6.35 183.45 6.55 Q182.95 6.7 182.55 7.2 182.15 7.7 181.95 8.6 181.7 9.45 181.7 10.75 181.7 12.05 181.95 12.85 L182.5 14.15 183.4 14.9 184.55 15.1 185.65 14.9 Q186.2 14.65 186.55 14.2 L187.15 12.9 187.35 10.75 187.15 8.65 M156.4 3.6 L156.4 17.85 151.95 17.85 151.95 3.6 156.4 3.6 M126.6 8.15 L126.05 8.15 125.4 7.6 124.55 7.05 Q124.05 6.75 123.45 6.6 L122.1 6.4 Q120.4 6.4 119.45 7.6 118.5 8.75 118.5 10.8 118.5 12.9 119.5 14.0 120.5 15.05 122.15 15.05 L123.65 14.85 124.75 14.4 125.5 13.85 126.05 13.3 126.6 13.3 126.6 17.15 125.75 17.5 124.7 17.85 123.5 18.15 122.0 18.25 118.75 17.8 Q117.3 17.35 116.2 16.4 115.15 15.5 114.55 14.1 113.95 12.7 113.95 10.8 113.95 8.75 114.6 7.3 115.25 5.85 116.35 4.95 117.45 4.05 118.85 3.65 L121.85 3.2 124.25 3.5 Q125.4 3.75 126.6 4.35 L126.6 8.15 M112.7 11.55 L102.95 11.55 Q103.05 12.55 103.4 13.25 L104.3 14.3 Q104.9 14.7 105.65 14.85 L107.3 15.0 108.85 14.85 110.2 14.4 111.25 13.9 112.0 13.4 112.45 13.4 112.45 17.05 111.45 17.45 110.2 17.8 108.75 18.15 106.85 18.25 Q102.8 18.25 100.65 16.3 98.5 14.35 98.5 10.8 98.5 7.3 100.5 5.25 102.5 3.15 106.15 3.15 109.4 3.15 111.05 4.9 112.7 6.7 112.7 9.95 L112.7 11.55 M108.3 8.9 Q108.3 7.5 107.7 6.75 107.05 6.0 105.8 6.0 104.5 6.0 103.75 6.8 103.05 7.55 102.95 8.9 L108.3 8.9 M78.45 3.5 Q79.6 3.75 80.8 4.35 L80.8 8.15 80.25 8.15 79.6 7.6 78.75 7.05 Q78.25 6.75 77.65 6.6 L76.3 6.4 Q74.6 6.4 73.65 7.6 72.7 8.75 72.7 10.8 72.7 12.9 73.7 14.0 74.7 15.05 76.35 15.05 L77.85 14.85 78.95 14.4 79.7 13.85 80.25 13.3 80.8 13.3 80.8 17.15 79.95 17.5 78.9 17.85 77.7 18.15 76.2 18.25 72.95 17.8 Q71.5 17.35 70.4 16.4 69.35 15.5 68.75 14.1 68.15 12.7 68.15 10.8 68.15 8.75 68.8 7.3 69.45 5.85 70.55 4.95 71.65 4.05 73.05 3.65 L76.05 3.2 78.45 3.5 M50.8 6.55 Q50.3 6.7 49.9 7.2 49.5 7.7 49.3 8.6 49.05 9.45 49.05 10.75 49.05 12.05 49.3 12.85 49.5 13.65 49.85 14.15 L50.75 14.9 51.9 15.1 53.0 14.9 Q53.55 14.65 53.9 14.2 L54.5 12.9 54.7 10.75 54.5 8.65 53.9 7.3 53.0 6.55 51.85 6.35 50.8 6.55 M57.3 5.2 Q59.25 7.2 59.25 10.75 59.25 14.25 57.3 16.3 55.4 18.3 51.85 18.3 48.4 18.3 46.45 16.3 44.5 14.25 44.5 10.75 44.5 7.15 46.45 5.15 48.4 3.15 51.85 3.15 55.4 3.15 57.3 5.2 M24.85 11.55 L15.1 11.55 Q15.2 12.55 15.55 13.25 L16.45 14.3 17.8 14.85 19.45 15.0 21.0 14.85 22.35 14.4 23.4 13.9 24.15 13.4 24.6 13.4 24.6 17.05 23.6 17.45 22.35 17.8 20.9 18.15 19.0 18.25 Q14.95 18.25 12.8 16.3 10.65 14.35 10.65 10.8 10.65 7.3 12.65 5.25 14.65 3.15 18.3 3.15 21.55 3.15 23.2 4.9 24.85 6.7 24.85 9.95 L24.85 11.55 M15.9 6.8 Q15.2 7.55 15.1 8.9 L20.45 8.9 Q20.45 7.5 19.85 6.75 19.2 6.0 17.95 6.0 16.65 6.0 15.9 6.8 M10.0 3.6 L10.0 7.8 9.65 7.8 8.9 7.65 7.85 7.6 6.4 7.8 Q5.6 8.0 4.9 8.3 L4.9 17.85 0.45 17.85 0.45 3.6 4.9 3.6 4.9 5.65 Q5.2 5.35 5.75 4.95 L6.7 4.25 7.85 3.75 9.05 3.55 9.55 3.55 10.0 3.6 M-91.2 -1.3 L-89.45 -0.95 -88.05 -0.4 -86.85 0.15 -86.85 4.65 -87.3 4.65 -88.2 3.95 -89.35 3.1 Q-90.0 2.7 -90.8 2.4 L-92.45 2.1 -94.35 2.45 Q-95.2 2.75 -96.0 3.55 L-97.15 5.5 Q-97.6 6.75 -97.6 8.45 -97.6 10.2 -97.15 11.4 L-95.9 13.35 -94.25 14.35 -92.45 14.7 -90.65 14.35 -89.2 13.65 -88.1 12.85 -87.25 12.15 -86.85 12.15 -86.85 16.6 -88.05 17.15 -89.45 17.65 -91.1 18.1 -93.25 18.2 Q-97.5 18.2 -100.0 15.65 -102.5 13.1 -102.5 8.4 -102.5 3.9 -100.0 1.25 -97.5 -1.4 -93.25 -1.4 L-91.2 -1.3 M-71.9 -1.9 L-71.9 1.55 -76.6 1.55 -76.6 -1.9 -71.9 -1.9 M-50.45 -1.9 L-50.45 9.15 -46.25 3.6 -41.0 3.6 -46.0 9.75 -40.65 17.85 -45.9 17.85 -49.75 11.65 -50.45 12.55 -50.45 17.85 -54.9 17.85 -54.9 -1.9 -50.45 -1.9 M-27.2 -1.9 L-27.2 5.15 -25.05 3.7 Q-24.05 3.2 -22.8 3.2 -20.6 3.2 -19.45 4.6 -18.3 5.95 -18.3 8.55 L-18.3 17.85 -22.75 17.85 -22.75 10.8 -22.85 9.05 Q-22.9 8.2 -23.1 7.8 -23.3 7.3 -23.75 7.1 L-24.9 6.9 -26.0 7.1 -27.2 7.75 -27.2 17.85 -31.65 17.85 -31.65 -1.9 -27.2 -1.9 M-79.85 -1.9 L-79.85 17.85 -84.3 17.85 -84.3 -1.9 -79.85 -1.9 M-3.5 4.9 Q-1.85 6.7 -1.85 9.95 L-1.85 11.55 -11.6 11.55 -11.15 13.25 -10.25 14.3 -8.9 14.85 -7.25 15.0 -5.7 14.85 -4.35 14.4 -3.3 13.9 -2.55 13.4 -2.1 13.4 -2.1 17.05 -3.1 17.45 -4.35 17.8 -5.8 18.15 -7.7 18.25 Q-11.75 18.25 -13.9 16.3 -16.05 14.35 -16.05 10.8 -16.05 7.3 -14.05 5.25 -12.05 3.15 -8.4 3.15 -5.15 3.15 -3.5 4.9 M-8.75 6.0 Q-10.05 6.0 -10.8 6.8 -11.5 7.55 -11.6 8.9 L-6.25 8.9 Q-6.25 7.5 -6.85 6.75 -7.5 6.0 -8.75 6.0 M-60.15 6.6 L-61.5 6.4 Q-63.2 6.4 -64.15 7.6 -65.1 8.75 -65.1 10.8 -65.1 12.9 -64.1 14.0 -63.1 15.05 -61.45 15.05 L-59.95 14.85 -58.85 14.4 -58.1 13.85 -57.55 13.3 -57.0 13.3 -57.0 17.15 -57.85 17.5 -58.9 17.85 -60.1 18.15 -61.6 18.25 -64.85 17.8 Q-66.3 17.35 -67.4 16.4 -68.45 15.5 -69.05 14.1 -69.65 12.7 -69.65 10.8 -69.65 8.75 -69.0 7.3 -68.35 5.85 -67.25 4.95 -66.15 4.05 -64.75 3.65 L-61.75 3.2 -59.35 3.5 Q-58.2 3.75 -57.0 4.35 L-57.0 8.15 -57.55 8.15 -58.2 7.6 -59.05 7.05 Q-59.55 6.75 -60.15 6.6 M-72.0 3.6 L-72.0 17.85 -76.45 17.85 -76.45 3.6 -72.0 3.6 Z" fill="none" stroke="#000000" stroke-linecap="round" stroke-linejoin="round" stroke-width="2.0"/>
  </g>
</svg>
