<?xml version="1.0" encoding="UTF-8" standalone="no"?>
<svg xmlns:ffdec="https://www.free-decompiler.com/flash" xmlns:xlink="http://www.w3.org/1999/xlink" ffdec:objectType="shape" height="43.5px" width="10.0px" xmlns="http://www.w3.org/2000/svg">
  <g transform="matrix(1.0, 0.0, 0.0, 1.0, 5.0, 21.75)">
    <path d="M1.0 21.75 L-1.0 21.75 -1.0 -21.75 1.0 -21.75 1.0 21.75" fill="#545667" fill-rule="evenodd" stroke="none"/>
    <path d="M3.0 -21.75 L5.0 -21.75 5.0 21.75 3.0 21.75 3.0 -21.75 M-5.0 -21.75 L-3.0 -21.75 -3.0 21.75 -5.0 21.75 -5.0 -21.75" fill="#484a59" fill-rule="evenodd" stroke="none"/>
    <path d="M3.0 -21.75 L3.0 21.75 5.0 21.75 5.0 -21.75 3.0 -21.75 M1.0 21.75 L-1.0 21.75 -1.0 -21.75 1.0 -21.75 1.0 21.75 M-5.0 -21.75 L-5.0 21.75 -3.0 21.75 -3.0 -21.75 -5.0 -21.75 Z" fill="none" stroke="#000000" stroke-linecap="round" stroke-linejoin="round" stroke-width="0.05"/>
  </g>
</svg>
