<?xml version="1.0" encoding="UTF-8" standalone="no"?>
<svg xmlns:ffdec="https://www.free-decompiler.com/flash" xmlns:xlink="http://www.w3.org/1999/xlink" ffdec:objectType="shape" height="43.5px" width="10.8px" xmlns="http://www.w3.org/2000/svg">
  <g transform="matrix(1.0, 0.0, 0.0, 1.0, 5.4, 21.75)">
    <path d="M3.4 -21.75 L5.4 -21.75 5.4 21.75 3.4 21.75 3.4 -21.75 M0.2 -21.75 L2.2 -21.75 2.2 21.75 0.2 21.75 0.2 -21.75 M-4.2 -21.75 L-2.2 -21.75 -2.2 21.75 -4.2 21.75 -4.2 -21.75" fill="#3b3b3d" fill-rule="evenodd" stroke="none"/>
    <path d="M-4.2 -21.75 L-4.2 21.75 -2.2 21.75 -2.2 -21.75 -4.2 -21.75" fill="none" stroke="#000000" stroke-linecap="round" stroke-linejoin="round" stroke-opacity="0.5019608" stroke-width="0.05"/>
    <path d="M0.2 -21.75 L0.2 21.75 2.2 21.75 2.2 -21.75 0.2 -21.75 M3.4 -21.75 L3.4 21.75 5.4 21.75 5.4 -21.75 3.4 -21.75 Z" fill="none" stroke="#000000" stroke-linecap="round" stroke-linejoin="round" stroke-opacity="0.5019608" stroke-width="0.05"/>
    <path d="M2.3 -21.75 L4.3 -21.75 4.3 21.75 2.3 21.75 2.3 -21.75" fill="#545667" fill-rule="evenodd" stroke="none"/>
    <path d="M-3.4 -21.75 L-3.4 21.75 -5.4 21.75 -5.4 -21.75 -3.4 -21.75" fill="#484a59" fill-rule="evenodd" stroke="none"/>
    <path d="M-2.2 -21.75 L-0.2 -21.75 -0.2 21.75 -2.2 21.75 -2.2 -21.75" fill="#646779" fill-rule="evenodd" stroke="none"/>
    <path d="M2.3 -21.75 L2.3 21.75 4.3 21.75 4.3 -21.75 2.3 -21.75 M-3.4 -21.75 L-3.4 21.75 -5.4 21.75 -5.4 -21.75 -3.4 -21.75 M-2.2 -21.75 L-2.2 21.75 -0.2 21.75 -0.2 -21.75 -2.2 -21.75 Z" fill="none" stroke="#000000" stroke-linecap="round" stroke-linejoin="round" stroke-width="0.05"/>
  </g>
</svg>
