<?xml version="1.0" encoding="UTF-8" standalone="no"?>
<svg xmlns:ffdec="https://www.free-decompiler.com/flash" xmlns:xlink="http://www.w3.org/1999/xlink" ffdec:objectType="shape" height="27.35px" width="14.5px" xmlns="http://www.w3.org/2000/svg">
  <g transform="matrix(1.0, 0.0, 0.0, 1.0, 7.25, 19.7)">
    <path d="M4.0 -19.7 L4.0 -17.85 -1.5 -17.85 -1.5 -19.7 4.0 -19.7 M4.0 -14.2 L4.0 -12.35 -1.5 -12.35 -1.5 -14.2 4.0 -14.2 M-3.5 -12.35 L-7.25 -12.35 -7.25 -14.2 -3.5 -14.2 -3.5 -12.35 M4.0 3.9 L4.0 7.65 -1.5 7.65 -1.5 3.9 4.0 3.9 M-3.5 -17.85 L-7.25 -17.85 -7.25 -19.7 -3.5 -19.7 -3.5 -17.85 M-3.5 3.9 L-3.5 7.65 -7.25 7.65 -7.25 3.9 -3.5 3.9" fill="#454454" fill-rule="evenodd" stroke="none"/>
    <path d="M4.0 -17.85 L4.0 -19.7 7.25 -19.7 7.25 -17.85 4.0 -17.85 M4.0 -14.2 L7.25 -14.2 7.25 -12.35 4.0 -12.35 4.0 -14.2 M4.0 7.65 L4.0 3.9 7.25 3.9 7.25 7.65 4.0 7.65" fill="#1b1c21" fill-rule="evenodd" stroke="none"/>
    <path d="M-1.5 -19.7 L-1.5 -17.85 -3.5 -17.85 -3.5 -19.7 -1.5 -19.7 M-1.5 -12.35 L-3.5 -12.35 -3.5 -14.2 -1.5 -14.2 -1.5 -12.35 M-1.5 3.9 L-1.5 7.65 -3.5 7.65 -3.5 3.9 -1.5 3.9" fill="#a2a2b3" fill-rule="evenodd" stroke="none"/>
    <path d="M4.0 -17.85 L7.25 -17.85 7.25 -19.7 4.0 -19.7 -1.5 -19.7 -3.5 -19.7 -7.25 -19.7 -7.25 -17.85 -3.5 -17.85 -1.5 -17.85 4.0 -17.85 M4.0 -12.35 L7.25 -12.35 7.25 -14.2 4.0 -14.2 -1.5 -14.2 -3.5 -14.2 -7.25 -14.2 -7.25 -12.35 -3.5 -12.35 -1.5 -12.35 4.0 -12.35 M4.0 7.65 L7.25 7.65 7.25 3.9 4.0 3.9 -1.5 3.9 -3.5 3.9 -7.25 3.9 -7.25 7.65 -3.5 7.65 -1.5 7.65 4.0 7.65 Z" fill="none" stroke="#000000" stroke-linecap="round" stroke-linejoin="round" stroke-width="0.05"/>
  </g>
</svg>
