<?xml version="1.0" encoding="UTF-8" standalone="no"?>
<svg xmlns:ffdec="https://www.free-decompiler.com/flash" xmlns:xlink="http://www.w3.org/1999/xlink" ffdec:objectType="shape" height="17.6px" width="17.7px" xmlns="http://www.w3.org/2000/svg">
  <g transform="matrix(1.0, 0.0, 0.0, 1.0, 8.85, 8.8)">
    <path d="M-6.2 0.7 Q-6.25 0.25 -6.75 0.2 L-6.75 0.15 Q-6.35 -0.3 -5.6 -0.1 L-1.95 0.55 4.65 1.7 Q5.05 5.7 1.65 6.7 -1.25 7.6 -3.4 6.2 -6.0 4.55 -6.2 0.7 M-6.7 -1.65 L-6.8 -2.65 -6.8 -2.7 Q-6.65 -5.1 -4.4 -5.35 -3.6 -5.45 -3.15 -5.0 -1.65 -3.45 -2.6 -1.1 L-6.65 -1.65 -6.7 -1.65 M-8.85 -0.55 Q-8.4 -4.3 -6.3 -6.35 -4.2 -8.45 -0.5 -8.75 L3.15 -8.35 Q6.15 -7.2 7.8 -4.6 9.25 -2.25 8.7 1.4 8.2 4.9 5.9 6.8 4.2 8.25 1.55 8.65 -1.55 9.15 -3.75 8.05 -6.55 6.7 -8.0 3.9 -8.9 2.15 -8.85 -0.55 M-3.75 -3.35 Q-4.55 -4.1 -3.6 -4.8 -4.6 -5.1 -5.45 -4.5 -6.6 -3.75 -6.35 -2.4 -4.7 -1.55 -2.85 -1.65 -2.45 -2.5 -2.75 -3.15 -3.3 -2.95 -3.75 -3.35 M0.5 -0.6 Q0.3 -1.05 0.35 -1.8 L0.35 -1.85 Q0.85 -4.35 3.5 -4.1 4.6 -4.05 5.1 -3.2 6.05 -1.6 5.2 0.2 L0.5 -0.55 0.5 -0.6 M2.4 -3.8 Q0.75 -3.0 0.8 -1.05 2.85 -0.4 4.95 -0.35 5.3 -1.1 5.15 -1.95 L5.1 -1.95 4.65 -1.8 4.3 -1.85 Q3.1 -2.4 3.95 -3.6 L2.4 -3.8 M-5.35 -6.25 Q-7.6 -4.3 -8.1 -0.6 -8.1 2.25 -7.1 4.0 -5.55 6.65 -2.4 7.6 0.9 8.65 3.65 7.3 6.45 5.9 7.65 2.95 8.65 0.4 7.8 -2.4 6.8 -5.55 4.2 -7.1 2.15 -8.35 -0.95 -8.0 -3.7 -7.65 -5.35 -6.25 M2.5 5.75 Q4.25 4.7 4.2 2.3 L1.15 1.65 -5.65 0.7 Q-5.5 3.5 -4.0 5.15 -3.35 5.9 -2.9 5.8 L-2.9 5.95 Q-1.15 7.1 1.25 6.3 L2.45 5.75 2.5 5.75" fill="#000000" fill-rule="evenodd" stroke="none"/>
  </g>
</svg>
