<?xml version="1.0" encoding="UTF-8" standalone="no"?>
<svg xmlns:ffdec="https://www.free-decompiler.com/flash" xmlns:xlink="http://www.w3.org/1999/xlink" ffdec:objectType="shape" height="261.3px" width="620.95px" xmlns="http://www.w3.org/2000/svg">
  <g transform="matrix(1.0, 0.0, 0.0, 1.0, 665.6, 79.0)">
    <path d="M-657.6 174.3 L-636.1 121.9 -587.4 42.55" fill="none" stroke="#000000" stroke-linecap="round" stroke-linejoin="round" stroke-width="16.0"/>
    <path d="M-308.25 -73.2 Q-308.25 -72.5 -309.5 -72.5 -310.55 -72.5 -312.0 -75.0 L-313.25 -77.5 -313.2 -78.75 -312.0 -79.0 Q-311.6 -79.0 -310.0 -76.95 -308.25 -74.7 -308.25 -73.2 M-257.8 -6.7 Q-255.25 -5.1 -252.0 -0.65 L-248.8 3.8 Q-247.4 6.0 -247.4 7.95 -247.45 12.6 -249.25 12.6 -250.5 12.6 -254.15 8.8 -258.6 4.2 -259.5 3.6 L-265.5 1.9 Q-267.25 1.3 -268.5 -0.35 -270.65 -3.05 -270.65 -5.2 -270.65 -8.65 -266.5 -8.65 -261.05 -8.65 -257.8 -6.7 M-187.45 -4.45 L-188.6 -6.45 Q-188.6 -9.95 -185.0 -9.95 -181.6 -9.95 -181.6 -8.0 -181.6 -6.95 -182.45 -6.95 L-184.0 -7.45 Q-186.05 -7.45 -186.75 -5.95 L-187.45 -4.45 M-161.25 25.3 Q-163.6 25.3 -163.6 24.4 -163.6 23.9 -162.95 22.95 -162.2 21.8 -161.3 21.8 -158.2 21.8 -158.2 24.0 -158.2 25.3 -161.25 25.3 M-158.65 26.35 Q-158.95 25.35 -157.2 24.9 -155.5 24.45 -155.45 27.85 -155.45 30.45 -157.7 30.45 -158.8 30.45 -159.2 28.9 -158.35 27.3 -158.65 26.35 M-160.35 86.2 Q-160.35 87.65 -162.2 87.65 -163.35 87.65 -164.15 86.85 -165.0 86.0 -165.5 86.0 L-166.9 86.45 Q-167.9 86.45 -169.8 83.9 L-171.55 81.1 Q-171.55 80.7 -170.95 80.1 -170.2 79.35 -169.3 79.35 -167.45 79.35 -166.6 79.95 -165.95 80.45 -165.05 82.2 L-163.45 83.7 -163.15 84.5 -161.7 84.85 Q-160.7 84.85 -160.35 86.2 M-159.15 83.55 Q-157.4 83.55 -156.35 85.4 L-153.75 87.1 Q-153.1 88.5 -151.6 89.2 -150.35 89.7 -150.35 90.5 -152.5 93.65 -154.4 93.65 -156.75 93.65 -158.05 92.35 -158.95 91.5 -158.95 90.8 -159.1 89.45 -159.5 88.85 -159.85 88.35 -159.85 87.5 -159.35 86.1 -159.35 85.55 L-160.05 84.2 Q-160.05 83.55 -159.15 83.55 M-149.15 89.45 Q-147.55 89.45 -143.8 92.95 -142.9 93.5 -141.9 94.75 -140.85 96.05 -140.85 96.7 L-141.05 97.85 -140.65 99.25 Q-140.65 100.35 -141.85 100.35 -143.6 100.35 -144.35 98.7 L-144.75 97.0 -144.55 95.0 Q-144.55 94.5 -145.5 94.5 -146.2 94.5 -146.35 95.0 -146.5 95.45 -147.4 95.45 -148.45 95.45 -149.75 94.0 L-150.85 92.45 Q-149.95 91.35 -149.95 90.95 L-150.15 90.2 Q-150.15 89.45 -149.15 89.45 M-107.65 81.6 Q-107.8 82.35 -108.75 82.35 L-109.85 82.25 -109.9 81.15 Q-109.9 79.6 -108.5 79.6 -108.15 79.6 -107.9 80.1 -107.85 80.8 -108.65 81.0 L-107.65 81.6 M-97.9 90.85 Q-98.7 90.85 -99.4 90.05 L-99.9 89.2 -99.75 88.75 -98.9 88.6 Q-98.35 88.6 -97.6 89.25 L-96.9 90.05 -97.0 90.75 -97.9 90.85 M-86.75 128.75 L-82.4 128.6 Q-75.65 128.6 -77.15 130.2 -77.15 130.85 -77.75 131.5 -78.45 132.35 -79.5 132.35 L-84.45 131.75 Q-87.5 131.75 -90.0 133.05 -92.55 134.35 -94.5 134.35 -97.9 134.35 -97.9 132.5 -97.9 131.35 -94.65 130.25 -91.35 129.1 -86.75 128.75 M-132.25 141.6 L-132.85 141.25 -132.9 140.9 Q-132.9 140.5 -132.25 140.35 -131.75 140.65 -131.65 140.85 L-131.85 141.4 Q-131.65 141.6 -132.25 141.6 M-65.75 128.65 L-64.15 128.6 Q-62.8 128.6 -59.95 129.95 -57.05 131.25 -52.0 131.25 -46.85 131.25 -45.4 130.1 -44.65 130.1 -44.65 131.55 -44.65 133.1 -45.0 133.4 -46.2 134.6 -51.5 134.6 -53.15 134.6 -59.65 131.95 -65.9 129.45 -65.9 129.15 L-65.75 128.65 M-174.15 10.7 Q-174.15 10.0 -173.75 10.0 -173.1 10.0 -171.1 11.15 -169.1 12.3 -169.1 12.65 -169.1 13.1 -169.95 13.1 L-172.65 12.05 Q-174.15 11.3 -174.15 10.7 M-164.75 15.95 Q-163.55 15.95 -162.95 19.6 -162.95 20.45 -164.25 22.05 -165.85 23.9 -167.5 23.9 -168.25 23.9 -170.25 22.25 -171.5 21.2 -171.5 20.0 -171.5 16.2 -168.6 16.2 -168.0 16.2 -167.55 17.15 -167.15 18.1 -166.75 18.1 -165.6 18.1 -165.55 17.05 -165.5 15.95 -164.75 15.95 M-240.85 20.0 L-245.15 15.15 Q-245.15 14.1 -244.25 14.1 -231.4 22.3 -231.4 22.4 -231.4 24.85 -234.5 24.85 -236.2 24.85 -240.85 20.0 M-204.2 55.35 Q-204.2 56.7 -200.5 57.6 -196.85 58.45 -196.85 61.05 -196.85 62.45 -198.2 64.8 -198.2 65.4 -197.6 66.0 -197.6 66.8 -198.3 66.8 -199.5 66.8 -200.2 65.15 L-201.1 63.3 Q-201.1 62.1 -201.25 61.3 -201.55 59.75 -202.95 59.75 L-205.95 60.3 Q-209.1 60.3 -209.4 57.6 -209.7 54.85 -211.85 54.85 -213.1 54.85 -213.75 55.2 L-214.85 55.55 Q-216.1 55.55 -216.1 54.05 -216.1 53.3 -217.15 52.55 -218.25 51.8 -218.25 50.8 -218.25 49.2 -216.1 49.2 -214.5 49.2 -213.2 51.9 -212.6 51.35 -212.0 49.95 -210.9 48.8 -206.65 48.8 -203.4 48.8 -203.1 52.1 -203.1 52.9 -203.65 53.8 -204.2 54.75 -204.2 55.35 M-173.2 78.65 Q-172.05 79.5 -172.05 79.85 -172.05 80.45 -173.3 80.45 -175.15 80.45 -176.35 79.6 -177.25 78.95 -177.25 78.5 -177.25 77.65 -175.85 77.65 -174.55 77.65 -173.2 78.65" fill="#540101" fill-rule="evenodd" stroke="none"/>
    <path d="M-268.55 -5.8 Q-268.15 -6.65 -266.5 -6.65 -261.75 -6.65 -258.85 -5.0 L-258.8 -4.95 Q-256.55 -3.5 -253.6 0.55 L-253.6 0.5 -251.5 3.45 -251.55 3.35 -250.5 4.9 -250.4 5.0 Q-250.9 6.1 -251.75 6.1 -253.0 6.1 -256.65 2.3 L-262.0 -2.9 -268.0 -4.6 -268.6 -4.85 -268.65 -5.2 -268.6 -5.6 -268.55 -5.8 M-157.6 87.1 L-157.55 87.0 -157.45 87.1 -157.35 87.15 -157.6 87.15 -157.6 87.1 M-205.2 51.7 L-205.1 52.2 -205.35 52.75 -205.35 52.8 -205.65 53.35 -208.45 53.8 -208.85 53.8 Q-209.75 52.95 -211.15 52.85 L-211.25 52.75 -210.35 51.25 -206.7 50.8 -206.65 50.8 Q-205.55 50.8 -205.2 51.65 L-205.2 51.7" fill="#e10404" fill-rule="evenodd" stroke="none"/>
  </g>
</svg>
