<?xml version="1.0" encoding="UTF-8" standalone="no"?>
<svg xmlns:ffdec="https://www.free-decompiler.com/flash" xmlns:xlink="http://www.w3.org/1999/xlink" ffdec:objectType="shape" height="407.35px" width="414.45px" xmlns="http://www.w3.org/2000/svg">
  <g transform="matrix(1.0, 0.0, 0.0, 1.0, 205.2, 205.8)">
    <path d="M71.25 -195.5 Q107.15 -184.1 135.3 -161.95 166.95 -137.05 185.45 -101.1 206.15 -60.85 209.05 -8.95 210.65 32.5 197.65 70.3 184.5 108.5 158.3 137.5 130.95 167.75 92.75 184.1 52.05 201.55 2.8 201.55 -35.75 201.55 -72.2 188.4 -109.95 174.8 -139.0 149.3 -170.0 122.05 -186.85 84.6 -205.2 43.95 -205.2 -5.25 -205.2 -41.65 -191.9 -76.55 -178.05 -112.95 -152.15 -141.05 -124.3 -171.3 -86.15 -187.8 -44.45 -205.8 6.0 -205.8 38.95 -205.8 71.25 -195.5" fill="#000000" fill-rule="evenodd" stroke="none"/>
  </g>
</svg>
