<?xml version="1.0" encoding="UTF-8" standalone="no"?>
<svg xmlns:ffdec="https://www.free-decompiler.com/flash" xmlns:xlink="http://www.w3.org/1999/xlink" ffdec:objectType="shape" height="396.65px" width="415.25px" xmlns="http://www.w3.org/2000/svg">
  <g transform="matrix(1.0, 0.0, 0.0, 1.0, 205.0, 194.0)">
    <path d="M40.95 -100.65 Q67.7 -170.75 77.0 -194.0 145.25 -161.65 176.8 -116.95 210.25 -69.45 210.25 2.35 210.25 41.25 195.8 77.15 181.2 113.45 154.0 141.15 125.6 170.1 87.15 185.85 46.1 202.65 -2.4 202.65 -41.25 202.65 -77.15 188.5 -113.95 174.0 -142.0 146.8 -171.6 118.05 -187.7 78.6 -205.0 36.15 -205.0 -15.0 -205.0 -43.5 -185.75 -85.95 -177.85 -103.45 -168.55 -118.7 -159.6 -133.4 -152.3 -141.2 -140.0 -154.4 -115.4 -170.9 -89.25 -188.5 -72.0 -194.0 -57.9 -161.35 -33.8 -97.85 -8.7 -31.65 3.0 -4.0 17.2 -38.55 40.95 -100.65" fill="#000000" fill-rule="evenodd" stroke="none"/>
  </g>
</svg>
