<?xml version="1.0" encoding="UTF-8" standalone="no"?>
<svg xmlns:ffdec="https://www.free-decompiler.com/flash" xmlns:xlink="http://www.w3.org/1999/xlink" ffdec:objectType="shape" height="260.95px" width="610.8px" xmlns="http://www.w3.org/2000/svg">
  <g transform="matrix(1.0, 0.0, 0.0, 1.0, 655.45, 80.75)">
    <path d="M-647.45 172.2 L-623.95 120.4 -573.25 42.55" fill="none" stroke="#000000" stroke-linecap="round" stroke-linejoin="round" stroke-width="16.0"/>
    <path d="M-314.0 -80.45 L-312.75 -80.75 Q-311.75 -80.75 -310.8 -78.95 -310.0 -77.4 -310.0 -76.45 -310.55 -75.25 -311.25 -75.25 -312.55 -75.25 -313.35 -77.6 -314.0 -79.35 -314.0 -80.45 M-264.15 -7.65 Q-258.85 -7.65 -253.1 -1.5 -247.9 4.05 -247.9 7.3 -247.9 10.6 -249.5 10.6 -253.3 10.6 -255.8 5.2 -258.8 -1.4 -260.1 -2.25 -261.4 -3.1 -260.95 -0.75 -260.5 1.6 -261.9 1.6 -263.25 1.6 -265.65 -0.85 -267.9 -3.15 -267.9 -4.1 -267.9 -7.65 -264.15 -7.65 M-186.65 -9.1 Q-185.7 -9.85 -184.6 -9.85 -181.55 -9.85 -181.7 -7.7 -181.7 -6.8 -182.5 -6.8 L-184.0 -7.45 -186.5 -7.05 Q-187.5 -7.05 -187.5 -7.95 L-186.65 -9.1 M-158.55 23.8 Q-158.55 24.95 -161.2 24.95 -162.75 24.95 -162.75 24.2 L-161.65 23.15 -161.8 22.4 Q-161.8 21.95 -160.65 21.95 -158.55 21.95 -158.55 23.8 M-157.15 30.15 Q-158.75 30.15 -158.75 29.15 L-157.05 28.35 Q-158.05 26.85 -158.05 26.4 -158.05 25.55 -157.1 25.55 -155.6 25.55 -155.55 27.55 -155.45 30.15 -157.15 30.15 M-156.75 86.35 Q-156.7 86.65 -155.75 86.95 -154.7 87.25 -154.25 87.8 -153.9 88.2 -154.05 89.5 L-152.3 89.95 Q-151.65 90.0 -151.65 90.85 -151.65 92.35 -153.5 92.35 -154.2 92.35 -154.7 91.95 L-155.3 91.4 Q-156.0 92.15 -156.9 92.15 -157.95 92.15 -158.25 91.5 L-158.35 90.8 -157.95 89.35 Q-157.95 88.75 -158.45 88.5 -158.95 88.2 -158.95 87.55 L-158.55 86.1 -158.75 85.2 Q-158.75 84.65 -157.8 84.65 -157.0 84.65 -156.8 85.4 L-156.75 86.35 M-146.75 92.25 Q-144.55 92.0 -144.5 92.8 -144.45 93.6 -143.65 94.0 -143.65 94.45 -144.25 94.45 -145.8 93.6 -146.3 93.6 L-146.9 94.2 Q-147.15 94.75 -147.65 94.75 -148.6 94.75 -148.85 93.6 -149.05 92.95 -149.55 93.1 -149.95 93.2 -149.95 92.7 -149.95 92.25 -149.45 91.9 L-148.95 91.45 -149.45 90.65 Q-149.45 90.05 -148.2 90.05 -146.8 90.05 -146.65 90.9 -146.55 91.4 -146.75 92.25 M-142.9 94.75 Q-141.8 94.75 -141.65 96.0 L-142.15 96.8 -141.05 99.0 Q-141.05 99.45 -141.9 99.45 -142.85 99.45 -143.25 98.8 L-143.45 98.15 -143.25 97.1 Q-144.35 96.3 -144.35 95.7 -144.35 94.75 -142.9 94.75 M-107.9 81.15 L-108.0 81.65 -108.9 81.85 Q-109.55 81.85 -109.85 81.5 L-109.9 80.75 -108.9 80.6 -108.0 80.75 -107.9 81.15 M-98.0 92.6 L-99.15 91.85 Q-98.75 91.1 -98.4 91.1 -97.75 91.1 -97.4 92.0 L-98.0 92.6 M-82.25 130.5 L-80.75 130.35 Q-77.4 130.35 -77.4 132.4 -77.4 134.35 -79.75 134.35 -81.9 134.35 -83.75 133.1 -85.4 132.05 -85.4 131.3 -85.4 130.55 -82.25 130.5 M-86.9 132.55 Q-86.9 133.7 -89.0 135.0 -91.2 136.35 -93.25 136.35 -94.15 136.35 -94.75 135.65 L-95.15 134.9 Q-95.15 134.4 -92.25 132.6 -89.4 130.85 -88.75 130.85 -86.75 130.85 -86.9 132.55 M-48.75 135.6 L-56.2 135.35 -57.5 134.6 Q-59.15 133.95 -59.15 133.45 L-59.0 133.0 -58.5 132.85 -56.2 133.25 -46.15 133.6 -44.75 133.75 -44.65 134.5 Q-44.65 135.1 -44.9 135.25 L-48.75 135.6 M-170.55 11.8 L-169.45 12.55 Q-169.45 12.95 -169.85 12.95 -170.65 12.95 -171.6 12.35 L-172.45 11.55 Q-172.45 11.0 -171.95 11.0 L-170.55 11.8 M-163.85 17.05 L-163.5 18.55 Q-163.25 19.25 -163.4 20.0 -163.6 20.75 -164.65 22.15 -165.7 23.5 -167.7 23.5 -168.1 23.5 -170.15 21.8 -171.15 20.95 -171.35 20.2 -171.6 19.45 -170.65 18.1 -169.65 16.6 -169.0 16.6 -168.0 16.6 -167.75 18.65 -167.75 19.75 -168.05 20.2 L-168.05 20.25 -166.4 19.4 Q-165.55 18.85 -165.3 17.7 -165.1 16.5 -164.55 16.4 -164.0 16.3 -163.85 17.05 M-206.1 54.1 L-204.75 57.05 Q-203.4 59.7 -206.1 58.8 -208.8 57.9 -208.85 55.15 -208.9 52.35 -210.05 52.35 L-211.75 52.7 -212.1 52.6 -212.1 51.95 Q-212.0 51.3 -211.0 50.45 -209.5 49.2 -207.15 49.2 -204.35 49.2 -204.45 51.35 -204.45 51.95 -205.2 52.65 -206.0 53.35 -206.1 54.1 M-213.35 52.7 Q-213.35 54.55 -214.5 54.55 -215.5 54.55 -215.5 53.4 L-215.0 52.15 Q-216.85 51.45 -216.85 50.6 -216.85 49.7 -216.2 49.7 -213.75 49.7 -213.35 52.7 M-202.05 57.85 L-201.5 57.8 Q-198.5 57.8 -197.85 61.15 -197.85 63.55 -199.35 63.55 -200.6 63.55 -200.6 60.85 -200.6 59.15 -201.35 58.65 -202.1 58.45 -202.1 58.25 L-202.05 57.85 M-168.05 82.4 Q-170.65 82.5 -170.65 81.35 L-169.65 80.45 Q-168.7 79.85 -168.15 79.85 -166.45 79.85 -166.3 81.1 L-166.05 82.6 Q-163.75 83.55 -163.55 83.85 -162.9 85.1 -162.95 85.25 -161.65 85.1 -161.65 86.25 -161.65 87.05 -162.5 87.05 -163.35 87.05 -163.8 86.1 -164.2 85.1 -165.55 85.1 L-166.9 85.85 Q-168.55 85.85 -168.55 84.5 -168.55 83.8 -168.05 82.85 L-168.05 82.4 M-174.3 79.85 Q-176.85 79.85 -176.85 78.7 -176.85 77.85 -175.4 77.85 -174.5 77.85 -174.4 78.95 L-173.8 78.75 Q-172.95 78.75 -172.95 79.4 -172.95 79.85 -174.3 79.85" fill="#540101" fill-rule="evenodd" stroke="none"/>
    <path d="M-263.6 -5.6 L-263.4 -5.55 Q-263.65 -4.9 -264.4 -4.9 -264.9 -4.9 -265.55 -5.25 -265.1 -5.65 -264.15 -5.65 L-263.75 -5.6 -263.6 -5.6 M-259.3 -4.1 L-259.7 -4.3 -259.75 -4.35 -259.3 -4.1 M-254.55 -0.15 L-254.55 -0.1 -251.95 2.9 -252.0 2.85 -251.25 3.9 -252.0 4.1 Q-253.25 4.1 -254.35 3.5 -257.2 -2.6 -258.75 -3.75 -256.7 -2.45 -254.55 -0.15" fill="#e10404" fill-rule="evenodd" stroke="none"/>
  </g>
</svg>
