<?xml version="1.0" encoding="UTF-8" standalone="no"?>
<svg xmlns:ffdec="https://www.free-decompiler.com/flash" xmlns:xlink="http://www.w3.org/1999/xlink" ffdec:objectType="shape" height="377.55px" width="415.7px" xmlns="http://www.w3.org/2000/svg">
  <g transform="matrix(1.0, 0.0, 0.0, 1.0, 205.0, 174.0)">
    <path d="M3.0 -1.0 Q21.25 -28.75 54.4 -80.2 85.8 -128.5 117.0 -174.0 158.3 -148.45 183.75 -105.4 210.7 -59.75 210.7 -8.9 210.7 40.75 192.85 82.15 176.25 120.6 145.8 148.75 117.0 175.4 79.35 189.65 42.6 203.55 3.2 203.55 -35.95 203.55 -72.35 190.15 -110.25 176.25 -139.15 149.95 -170.05 121.8 -186.8 82.7 -205.0 40.3 -205.0 -11.7 -205.0 -60.0 -174.2 -108.45 -161.15 -128.95 -144.2 -146.55 -128.4 -163.0 -112.0 -174.0 -41.95 -74.4 -24.65 -46.25 -15.4 -28.7 3.0 -1.0" fill="#000000" fill-rule="evenodd" stroke="none"/>
  </g>
</svg>
