<?xml version="1.0" encoding="UTF-8" standalone="no"?>
<svg xmlns:ffdec="https://www.free-decompiler.com/flash" xmlns:xlink="http://www.w3.org/1999/xlink" ffdec:objectType="shape" height="344.45px" width="415.35px" xmlns="http://www.w3.org/2000/svg">
  <g transform="matrix(1.0, 0.0, 0.0, 1.0, 205.0, 142.0)">
    <path d="M101.75 -91.55 L156.0 -142.0 Q180.35 -123.25 196.1 -77.8 210.35 -36.5 210.35 3.05 210.35 30.6 200.25 61.7 188.4 98.15 166.0 127.2 139.6 161.45 101.9 180.45 58.25 202.45 2.1 202.45 -37.1 202.45 -73.4 188.9 -111.1 174.85 -139.8 148.25 -170.4 119.85 -187.0 80.3 -205.0 37.5 -205.0 -15.0 -205.0 -25.2 -201.05 -41.7 -196.95 -59.0 -189.9 -77.0 -172.7 -121.2 -150.0 -142.0 L-56.7 -56.3 3.0 0.0 Q45.4 -38.9 101.75 -91.55" fill="#000000" fill-rule="evenodd" stroke="none"/>
  </g>
</svg>
