<?xml version="1.0" encoding="UTF-8" standalone="no"?>
<svg xmlns:ffdec="https://www.free-decompiler.com/flash" xmlns:xlink="http://www.w3.org/1999/xlink" ffdec:objectType="shape" height="226.0px" width="226.0px" xmlns="http://www.w3.org/2000/svg">
  <g transform="matrix(1.0, 0.0, 0.0, 1.0, 113.5, 113.05)">
    <path d="M9.5 -113.05 Q8.0 -105.2 8.75 -101.85 9.4 -98.95 12.25 -98.2 L19.15 -97.5 Q24.4 -96.95 28.5 -95.05 29.2 -97.35 31.35 -102.1 33.2 -106.15 33.5 -108.05 42.5 -103.4 49.25 -101.45 50.95 -101.0 51.25 -100.65 51.55 -100.3 51.55 -98.8 51.55 -93.05 49.3 -90.6 47.05 -89.05 47.05 -88.1 47.05 -86.35 51.3 -84.25 57.55 -81.1 59.55 -79.6 61.15 -78.45 61.5 -77.05 66.35 -80.85 69.45 -84.15 L71.5 -86.55 Q71.9 -87.05 72.5 -87.05 74.3 -87.05 75.2 -85.5 L76.7 -81.85 Q79.15 -76.05 86.5 -74.05 85.35 -71.8 80.55 -68.25 76.5 -65.25 76.5 -63.05 76.5 -61.5 77.75 -60.25 L80.65 -57.85 Q85.25 -54.0 86.5 -47.05 92.6 -50.35 96.6 -51.5 L99.5 -52.05 Q100.1 -52.05 103.8 -43.85 107.5 -35.6 107.5 -34.05 107.5 -33.05 98.6 -30.25 L94.5 -29.05 96.3 -20.85 Q97.75 -14.2 97.5 -10.05 L112.5 -10.05 112.5 9.95 97.55 9.95 Q98.95 10.0 98.55 13.45 98.0 17.8 94.5 28.95 102.8 30.25 105.3 31.35 107.5 32.3 107.5 34.2 107.5 35.65 103.8 43.8 100.1 51.95 99.5 51.95 95.5 51.95 91.95 49.55 89.15 47.15 88.65 47.15 87.85 47.15 85.85 48.15 85.5 48.35 81.0 55.1 L76.5 61.95 Q76.5 64.5 79.6 66.85 84.5 70.5 86.5 72.95 79.3 74.75 76.8 80.65 L75.25 84.35 Q74.3 85.95 72.5 85.95 71.85 86.15 70.25 85.0 67.0 82.75 61.5 75.95 L59.5 77.75 46.5 86.95 Q46.65 88.7 48.95 93.3 51.25 97.85 51.5 100.95 48.3 101.3 42.8 103.95 36.25 107.15 33.5 107.95 32.9 104.75 30.75 100.55 27.95 95.2 27.5 93.95 20.9 97.1 13.3 97.1 L9.5 96.95 9.5 112.95 -10.5 112.95 -10.5 96.95 -28.5 93.95 Q-29.05 97.15 -31.3 101.4 -34.0 106.5 -34.5 107.95 L-46.3 103.25 Q-52.5 100.6 -52.5 99.95 -52.5 96.75 -50.3 92.35 -47.75 87.4 -47.5 85.95 -53.95 84.45 -57.55 79.95 L-59.8 77.15 Q-61.0 75.95 -62.5 75.95 L-64.75 77.05 Q-67.95 79.4 -73.5 85.95 L-81.85 80.0 Q-86.5 76.2 -86.5 71.95 -86.6 71.35 -85.4 69.7 -83.05 66.5 -76.5 60.95 L-77.15 60.7 -83.25 51.3 Q-85.95 46.95 -86.5 46.95 -87.85 46.95 -91.3 48.8 -95.4 50.95 -101.5 51.95 -102.25 47.75 -104.75 42.4 L-108.5 33.95 Q-105.35 33.4 -101.05 31.15 -95.95 28.45 -94.5 27.95 -95.05 26.5 -96.05 21.65 L-97.0 16.95 -96.85 14.8 Q-96.95 12.95 -98.05 11.65 -101.35 7.75 -113.5 9.95 L-113.5 -10.05 Q-101.6 -9.7 -98.45 -11.3 -96.9 -12.1 -96.9 -15.0 -96.05 -24.5 -94.5 -28.05 -96.3 -28.95 -102.45 -31.3 -107.6 -33.3 -108.5 -34.05 L-104.75 -42.5 Q-102.2 -47.9 -101.5 -52.05 -95.45 -50.75 -91.3 -48.7 -87.95 -47.1 -86.5 -47.05 -83.1 -53.6 -80.05 -58.55 L-77.95 -61.8 Q-77.5 -62.45 -77.5 -63.05 -77.5 -64.1 -83.85 -70.15 L-86.05 -72.05 Q-86.5 -72.45 -86.5 -73.05 -86.5 -77.1 -80.9 -81.7 L-73.5 -87.05 Q-68.1 -82.65 -65.55 -79.9 L-63.5 -77.5 Q-63.1 -77.05 -62.5 -77.05 -61.1 -77.05 -59.9 -78.15 L-57.6 -80.75 Q-53.95 -84.85 -47.5 -86.05 -49.15 -92.55 -50.8 -96.15 L-52.15 -98.85 -52.5 -100.05 Q-52.5 -100.6 -44.3 -104.3 -36.05 -108.05 -34.5 -108.05 -32.75 -108.05 -31.85 -105.8 -30.75 -103.2 -29.5 -95.05 L-14.05 -96.35 Q-10.45 -96.9 -10.45 -98.65 L-10.5 -113.05 9.5 -113.05 M60.5 -60.9 Q35.4 -86.0 -0.1 -86.0 -35.6 -86.0 -60.65 -60.9 -85.75 -35.8 -85.75 -0.3 -85.75 35.2 -60.65 60.3 -35.6 85.4 -0.1 85.4 35.4 85.4 60.5 60.3 85.55 35.2 85.55 -0.3 85.55 -35.8 60.5 -60.9" fill="#030303" fill-rule="evenodd" stroke="none"/>
    <path d="M0.3 -62.05 Q-25.4 -62.05 -43.6 -43.85 -61.8 -25.65 -61.8 0.05 -61.8 25.75 -43.6 43.95 -25.4 62.15 0.3 62.15 26.0 62.15 44.2 43.95 62.4 25.75 62.4 0.05 62.4 -25.65 44.2 -43.85 26.0 -62.05 0.3 -62.05 M60.5 -60.9 Q85.55 -35.8 85.55 -0.3 85.55 35.2 60.5 60.3 35.4 85.4 -0.1 85.4 -35.6 85.4 -60.65 60.3 -85.75 35.2 -85.75 -0.3 -85.75 -35.8 -60.65 -60.9 -35.6 -86.0 -0.1 -86.0 35.4 -86.0 60.5 -60.9" fill="#797979" fill-rule="evenodd" stroke="none"/>
    <path d="M0.3 -62.05 Q26.0 -62.05 44.2 -43.85 62.4 -25.65 62.4 0.05 62.4 25.75 44.2 43.95 26.0 62.15 0.3 62.15 -25.4 62.15 -43.6 43.95 -61.8 25.75 -61.8 0.05 -61.8 -25.65 -43.6 -43.85 -25.4 -62.05 0.3 -62.05" fill="#000000" fill-rule="evenodd" stroke="none"/>
  </g>
</svg>
