<?xml version="1.0" encoding="UTF-8" standalone="no"?>
<svg xmlns:ffdec="https://www.free-decompiler.com/flash" xmlns:xlink="http://www.w3.org/1999/xlink" ffdec:objectType="shape" height="105.0px" width="105.0px" xmlns="http://www.w3.org/2000/svg">
  <g transform="matrix(1.0, 0.0, 0.0, 1.0, 52.5, 52.5)">
    <path d="M24.85 -40.25 Q27.75 -43.9 30.65 -43.9 31.15 -43.9 36.85 -38.2 42.95 -32.1 42.95 -30.0 42.95 -29.55 39.75 -26.35 36.5 -23.15 36.5 -20.5 36.5 -14.0 40.9 -10.85 43.15 -9.25 45.45 -9.0 L52.5 -9.5 52.5 10.5 Q43.5 7.1 39.2 14.35 37.05 17.95 36.65 22.35 36.65 23.95 40.0 26.0 43.35 28.05 43.35 30.05 43.35 31.4 30.6 42.95 28.3 42.95 25.4 39.75 L22.4 36.55 15.75 39.8 Q9.3 42.35 9.0 43.55 8.65 44.95 9.5 52.5 L-10.5 52.5 Q-7.4 46.75 -13.05 41.4 -17.7 36.95 -21.1 36.95 -23.9 36.95 -26.7 39.65 L-29.0 42.35 Q-30.55 42.35 -37.05 36.4 -43.35 30.65 -43.35 29.85 -43.35 27.7 -40.55 25.15 -37.75 22.55 -37.75 21.8 -37.75 14.75 -40.9 12.25 -43.3 10.4 -49.05 10.4 L-52.5 10.5 -52.5 -9.6 Q-48.4 -8.05 -43.15 -11.2 -36.85 -15.0 -36.85 -23.15 L-40.0 -25.3 Q-43.15 -27.7 -43.15 -29.55 L-42.8 -30.6 -41.9 -32.4 Q-40.8 -34.0 -30.0 -42.9 -28.9 -42.9 -25.2 -39.7 -21.55 -36.5 -20.5 -36.5 -18.8 -36.5 -14.25 -40.05 -10.0 -43.35 -10.0 -43.7 L-10.2 -46.95 -10.5 -52.5 9.5 -52.5 Q9.4 -41.75 9.8 -41.1 10.05 -40.75 11.2 -40.65 12.8 -40.55 14.2 -39.9 L20.2 -36.95 21.65 -36.65 24.85 -40.25 M0.35 -32.4 Q-13.3 -32.4 -22.95 -22.7 -32.65 -13.05 -32.65 0.65 -32.65 14.35 -22.95 24.05 -13.3 33.7 0.35 33.7 14.0 33.7 23.7 24.05 33.35 14.35 33.35 0.65 33.35 -13.05 23.7 -22.7 14.0 -32.4 0.35 -32.4" fill="#030303" fill-rule="evenodd" stroke="none"/>
    <path d="M0.5 -16.5 Q7.55 -16.5 12.55 -11.5 17.5 -6.55 17.5 0.5 17.5 7.55 12.55 12.55 7.55 17.5 0.5 17.5 -6.55 17.5 -11.5 12.55 -16.5 7.55 -16.5 0.5 -16.5 -6.55 -11.5 -11.5 -6.55 -16.5 0.5 -16.5" fill="#010101" fill-rule="evenodd" stroke="none"/>
    <path d="M0.5 -16.5 Q-6.55 -16.5 -11.5 -11.5 -16.5 -6.55 -16.5 0.5 -16.5 7.55 -11.5 12.55 -6.55 17.5 0.5 17.5 7.55 17.5 12.55 12.55 17.5 7.55 17.5 0.5 17.5 -6.55 12.55 -11.5 7.55 -16.5 0.5 -16.5 M0.35 -32.4 Q14.0 -32.4 23.7 -22.7 33.35 -13.05 33.35 0.65 33.35 14.35 23.7 24.05 14.0 33.7 0.35 33.7 -13.3 33.7 -22.95 24.05 -32.65 14.35 -32.65 0.65 -32.65 -13.05 -22.95 -22.7 -13.3 -32.4 0.35 -32.4" fill="#606060" fill-rule="evenodd" stroke="none"/>
  </g>
</svg>
