<?xml version="1.0" encoding="UTF-8" standalone="no"?>
<svg xmlns:ffdec="https://www.free-decompiler.com/flash" xmlns:xlink="http://www.w3.org/1999/xlink" ffdec:objectType="shape" height="158.05px" width="125.3px" xmlns="http://www.w3.org/2000/svg">
  <g transform="matrix(1.0, 0.0, 0.0, 1.0, 64.3, 113.2)">
    <path d="M44.2 -52.35 L37.8 -43.45 Q34.05 -38.25 34.3 -33.6 34.55 -29.35 37.3 -26.55 39.85 -23.95 43.15 -23.85 46.55 -23.8 48.55 -26.65 50.85 -29.95 50.35 -36.05 60.8 -24.2 61.0 -10.3 61.25 2.55 52.85 14.7 44.7 26.55 30.65 34.55 16.2 42.9 -0.6 44.85 -22.4 39.8 -37.8 29.15 -52.4 19.05 -59.2 5.45 -65.85 -7.95 -63.8 -22.35 -61.65 -37.15 -50.65 -50.45 -51.65 -42.55 -49.2 -37.95 -47.05 -33.85 -43.1 -33.7 -39.25 -33.6 -36.1 -37.35 -32.6 -41.45 -31.85 -48.3 -31.15 -54.65 -32.9 -63.05 L-35.4 -75.55 Q-36.0 -82.1 -32.95 -86.85 -29.3 -92.65 -19.25 -97.85 -23.25 -92.55 -22.65 -88.55 -22.1 -85.0 -18.9 -85.1 -15.6 -85.2 -13.2 -89.65 -10.35 -95.1 -10.7 -104.6 -8.3 -99.2 -5.1 -97.2 L-0.5 -97.1 Q1.25 -98.85 0.15 -102.9 -1.15 -107.65 -6.05 -113.2 8.85 -111.25 14.3 -100.2 20.0 -88.6 12.25 -72.3 9.1 -65.6 12.0 -61.5 14.7 -57.7 20.1 -58.6 25.8 -59.5 29.6 -65.25 34.05 -72.1 33.55 -83.2 43.3 -72.25 45.45 -64.25 47.15 -57.95 44.2 -52.35" fill="#000000" fill-opacity="0.9019608" fill-rule="evenodd" stroke="none"/>
  </g>
</svg>
