<?xml version="1.0" encoding="UTF-8" standalone="no"?>
<svg xmlns:ffdec="https://www.free-decompiler.com/flash" xmlns:xlink="http://www.w3.org/1999/xlink" ffdec:objectType="shape" height="159.0px" width="132.35px" xmlns="http://www.w3.org/2000/svg">
  <g transform="matrix(1.0, 0.0, 0.0, 1.0, 68.85, 114.15)">
    <path d="M5.1 -114.15 Q17.05 -109.75 19.05 -90.35 19.75 -83.65 19.3 -74.1 L18.4 -60.0 Q18.05 -53.25 23.5 -48.9 28.6 -44.85 34.6 -45.6 41.0 -46.4 43.05 -52.4 45.45 -59.55 40.2 -71.65 52.1 -60.65 53.95 -50.25 55.3 -42.45 50.95 -33.05 45.25 -22.9 43.2 -18.0 39.7 -9.7 42.75 -3.2 45.45 2.55 52.0 1.55 58.95 0.45 63.5 -8.1 60.75 12.85 42.55 26.7 26.45 38.9 -0.6 44.85 -31.0 39.3 -50.45 21.8 -68.8 5.25 -68.85 -13.5 -63.8 -4.25 -55.25 -6.6 -51.9 -7.5 -49.3 -10.0 -46.75 -12.4 -46.2 -14.95 -45.5 -18.25 -49.1 -27.7 -53.7 -39.8 -54.85 -46.0 -59.65 -71.95 -34.0 -90.7 -37.25 -82.8 -35.85 -77.0 -34.6 -71.9 -30.4 -70.2 -26.3 -68.55 -22.1 -71.1 -17.5 -73.9 -15.4 -80.5 -14.1 -84.65 -14.9 -88.25 -15.35 -90.3 -17.2 -93.85 -18.9 -97.1 -19.15 -99.05 -19.5 -102.1 -17.5 -105.55 -18.55 -101.55 -16.3 -99.8 -14.2 -98.15 -11.5 -99.4 -8.65 -100.7 -8.4 -104.1 -8.1 -108.2 -12.15 -113.55 -6.25 -113.5 -3.9 -109.95 -1.85 -106.8 -3.1 -101.85 -3.9 -98.75 -1.65 -97.35 0.5 -96.05 3.1 -97.4 6.0 -98.95 6.8 -102.75 7.8 -107.45 5.1 -114.15" fill="#000000" fill-opacity="0.9019608" fill-rule="evenodd" stroke="none"/>
  </g>
</svg>
