<?xml version="1.0" encoding="UTF-8" standalone="no"?>
<svg xmlns:ffdec="https://www.free-decompiler.com/flash" xmlns:xlink="http://www.w3.org/1999/xlink" ffdec:objectType="shape" height="115.65px" width="86.25px" xmlns="http://www.w3.org/2000/svg">
  <g transform="matrix(1.0, 0.0, 0.0, 1.0, 44.95, 74.6)">
    <path d="M24.25 -25.9 Q22.0 -21.3 21.9 -18.15 21.9 -15.4 24.15 -13.25 26.4 -11.1 29.15 -11.05 32.2 -10.95 34.0 -13.6 36.15 -16.75 35.85 -23.05 40.75 -17.5 41.25 -9.0 41.65 -1.25 38.45 7.4 35.4 15.65 29.95 22.1 24.35 28.75 18.1 31.25 18.85 32.95 20.25 34.35 22.0 36.05 24.2 36.75 19.85 39.7 13.3 40.65 6.75 41.55 -0.95 40.35 -7.8 40.95 -16.3 39.1 -25.3 37.1 -32.3 33.1 -29.0 33.3 -26.4 32.5 -24.15 31.8 -22.85 30.45 -31.3 27.1 -37.0 19.3 -42.5 11.9 -44.25 2.35 -46.0 -7.3 -43.45 -16.65 -40.75 -26.55 -33.75 -33.8 -35.5 -29.35 -34.25 -26.3 -33.15 -23.6 -30.35 -23.1 -27.55 -22.65 -25.1 -24.65 -22.4 -26.9 -21.8 -31.2 -21.15 -35.75 -22.2 -41.45 L-23.9 -50.1 Q-24.4 -54.6 -22.65 -57.8 -20.5 -61.7 -14.35 -65.15 -16.0 -60.95 -15.3 -58.75 -14.7 -56.9 -12.85 -57.25 -11.0 -57.55 -9.6 -59.6 -8.05 -61.9 -8.3 -65.0 -6.0 -61.5 -4.0 -61.0 -2.15 -60.5 -1.45 -62.45 -0.75 -64.45 -1.75 -67.6 -2.95 -71.2 -5.95 -74.6 4.3 -71.75 7.9 -64.95 11.95 -57.35 6.55 -46.35 4.45 -42.05 6.5 -39.85 8.35 -37.85 12.05 -39.0 15.95 -40.25 18.5 -44.4 21.55 -49.35 21.15 -56.65 31.3 -44.2 27.9 -33.8 L24.25 -25.9" fill="#000000" fill-opacity="0.9019608" fill-rule="evenodd" stroke="none"/>
  </g>
</svg>
