<?xml version="1.0" encoding="UTF-8" standalone="no"?>
<svg xmlns:ffdec="https://www.free-decompiler.com/flash" xmlns:xlink="http://www.w3.org/1999/xlink" ffdec:objectType="shape" height="118.65px" width="87.8px" xmlns="http://www.w3.org/2000/svg">
  <g transform="matrix(1.0, 0.0, 0.0, 1.0, 46.15, 79.2)">
    <path d="M3.55 -54.95 Q1.35 -50.3 3.2 -47.55 4.95 -45.1 8.25 -46.0 11.85 -47.05 13.65 -51.4 15.85 -56.65 14.3 -64.7 23.7 -58.65 22.45 -44.6 L20.7 -32.95 Q19.45 -25.9 19.65 -22.2 19.85 -19.2 22.7 -17.3 25.45 -15.55 28.5 -16.1 31.9 -16.7 33.35 -19.85 35.1 -23.6 33.4 -29.95 39.25 -24.85 40.95 -16.95 42.5 -9.85 40.55 -1.35 38.65 6.6 34.1 13.95 29.65 21.3 23.8 26.05 25.45 28.15 27.1 29.1 29.1 30.3 31.55 30.3 26.65 36.0 17.2 38.0 11.1 39.3 -1.1 39.45 -17.65 38.35 -25.15 36.35 -38.5 32.7 -42.5 23.95 -38.55 25.55 -35.1 24.7 -31.55 23.8 -29.95 20.6 -37.9 15.5 -42.15 6.5 -46.15 -1.9 -46.15 -11.8 -46.15 -21.5 -42.4 -29.8 -38.45 -38.5 -31.45 -43.2 -32.95 -38.95 -31.85 -35.85 -30.85 -33.05 -28.45 -32.35 -26.05 -31.7 -24.0 -33.7 -21.7 -36.0 -21.15 -40.7 -20.7 -45.15 -21.15 -50.85 L-21.7 -58.9 Q-21.65 -62.8 -20.1 -65.15 -18.25 -68.0 -13.7 -69.95 -15.35 -66.0 -13.25 -65.15 -11.3 -64.3 -8.35 -66.3 -5.15 -68.4 -4.4 -71.55 -3.45 -75.5 -6.95 -79.2 3.5 -77.85 6.15 -72.25 9.0 -66.4 3.55 -54.95" fill="#000000" fill-opacity="0.8" fill-rule="evenodd" stroke="none"/>
  </g>
</svg>
