<?xml version="1.0" encoding="UTF-8" standalone="no"?>
<svg xmlns:ffdec="https://www.free-decompiler.com/flash" xmlns:xlink="http://www.w3.org/1999/xlink" ffdec:objectType="shape" height="115.45px" width="90.2px" xmlns="http://www.w3.org/2000/svg">
  <g transform="matrix(1.0, 0.0, 0.0, 1.0, 49.25, 75.35)">
    <path d="M0.2 -59.05 Q-1.3 -54.15 0.35 -51.2 1.85 -48.5 4.5 -49.25 7.3 -50.05 8.6 -54.35 10.2 -59.5 8.65 -67.55 16.9 -63.9 16.9 -49.7 L16.25 -37.3 Q15.7 -29.5 16.15 -25.3 16.4 -22.25 19.75 -20.65 22.95 -19.1 26.3 -20.05 30.0 -21.05 31.15 -24.7 32.55 -29.1 29.75 -36.05 35.65 -30.9 38.35 -23.6 40.9 -16.8 40.35 -9.1 39.75 -1.65 36.3 5.05 32.8 11.95 27.05 16.65 30.15 19.0 33.9 20.15 L40.95 20.4 Q36.5 27.5 22.0 33.9 8.25 40.0 -1.65 40.1 -7.5 39.7 -14.95 37.5 -23.0 35.15 -29.95 31.55 -47.25 22.6 -49.25 11.3 -46.0 13.95 -41.4 14.35 -36.75 14.75 -34.3 12.5 -40.75 4.85 -43.65 -4.75 -46.35 -13.7 -45.45 -22.75 -44.6 -31.6 -40.5 -38.35 -36.2 -45.35 -29.45 -48.5 -31.35 -44.6 -30.3 -41.25 -29.3 -38.25 -26.7 -37.15 -24.05 -36.0 -21.8 -37.6 -19.25 -39.45 -18.7 -44.2 -18.1 -49.25 -19.05 -57.25 -19.1 -63.45 -14.5 -66.3 -16.1 -61.95 -14.35 -61.0 -12.8 -60.15 -10.2 -62.3 -7.5 -64.5 -6.7 -67.8 -5.8 -71.8 -8.55 -75.35 -0.95 -75.45 1.0 -71.5 2.9 -67.75 0.2 -59.05" fill="#000000" fill-opacity="0.7019608" fill-rule="evenodd" stroke="none"/>
  </g>
</svg>
