<?xml version="1.0" encoding="UTF-8" standalone="no"?>
<svg xmlns:ffdec="https://www.free-decompiler.com/flash" xmlns:xlink="http://www.w3.org/1999/xlink" ffdec:objectType="shape" height="111.3px" width="92.65px" xmlns="http://www.w3.org/2000/svg">
  <g transform="matrix(1.0, 0.0, 0.0, 1.0, 49.0, 70.3)">
    <path d="M3.95 -62.3 Q4.65 -65.6 2.75 -70.3 11.15 -67.2 12.55 -53.65 13.0 -48.95 12.7 -42.25 L12.1 -32.4 Q11.85 -27.65 15.65 -24.65 19.2 -21.8 23.4 -22.3 27.9 -22.9 29.35 -27.1 31.0 -32.1 27.35 -40.55 35.65 -32.85 36.95 -25.55 37.9 -20.1 34.85 -13.55 30.85 -6.45 29.45 -3.0 27.0 2.8 29.1 7.35 31.0 11.4 35.6 10.7 40.45 9.9 43.65 3.95 41.7 18.6 29.0 28.3 17.7 36.85 -1.2 41.0 -22.5 37.1 -36.1 24.85 -48.95 13.25 -49.0 0.15 -45.45 6.65 -39.45 5.0 -37.15 4.35 -35.3 2.6 -33.5 0.9 -33.15 -0.85 -32.65 -3.15 -35.15 -9.8 -38.4 -18.25 -39.2 -22.6 -42.55 -40.75 -24.6 -53.9 -26.85 -48.35 -25.9 -44.3 -25.0 -40.75 -22.1 -39.55 -19.2 -38.4 -16.25 -40.15 -13.05 -42.15 -11.6 -46.75 -10.65 -49.65 -11.25 -52.15 -11.55 -53.6 -12.85 -56.1 -14.05 -58.35 -14.2 -59.75 -14.45 -61.85 -13.05 -64.3 -13.8 -61.5 -12.2 -60.25 -10.75 -59.1 -8.85 -60.0 -6.85 -60.9 -6.7 -63.25 -6.45 -66.15 -9.3 -69.9 -5.15 -69.85 -3.55 -67.35 -2.1 -65.15 -2.95 -61.7 -3.55 -59.5 -1.95 -58.55 -0.45 -57.65 1.35 -58.6 3.4 -59.65 3.95 -62.3" fill="#000000" fill-opacity="0.8" fill-rule="evenodd" stroke="none"/>
  </g>
</svg>
