<?xml version="1.0" encoding="UTF-8" standalone="no"?>
<svg xmlns:ffdec="https://www.free-decompiler.com/flash" xmlns:xlink="http://www.w3.org/1999/xlink" ffdec:objectType="shape" height="107.0px" width="89.1px" xmlns="http://www.w3.org/2000/svg">
  <g transform="matrix(1.0, 0.0, 0.0, 1.0, 46.95, 65.1)">
    <path d="M11.5 -53.05 Q13.9 -43.45 10.65 -33.2 9.75 -30.35 12.4 -28.3 15.0 -26.3 18.35 -26.9 22.2 -27.55 24.15 -31.25 26.55 -35.75 25.3 -43.65 31.3 -37.45 32.1 -32.1 32.65 -28.2 30.25 -23.15 L26.4 -14.45 Q24.85 -9.15 27.0 -3.7 27.8 -1.8 29.75 -0.65 31.75 0.4 34.0 0.2 39.7 -0.4 41.95 -7.45 43.8 9.95 30.15 24.4 17.5 37.8 -1.1 41.9 -13.0 39.95 -23.25 34.0 -33.05 28.3 -39.3 20.25 -45.6 12.15 -46.7 3.6 -47.9 -5.5 -42.9 -13.15 -42.75 -8.2 -40.55 -5.85 -38.6 -3.65 -35.85 -4.25 -33.05 -4.9 -31.15 -7.85 -29.0 -11.15 -29.0 -15.85 -28.9 -22.45 -30.15 -30.05 L-31.5 -39.85 Q-31.55 -44.3 -29.1 -47.9 -26.35 -51.95 -19.2 -57.05 -21.4 -50.55 -20.75 -48.15 -20.25 -46.0 -17.9 -47.7 -15.5 -49.4 -13.0 -53.7 -10.15 -58.6 -8.6 -64.35 -7.2 -62.1 -5.3 -60.85 -3.5 -59.65 -2.0 -59.6 1.5 -59.55 0.55 -65.1 8.8 -63.65 11.5 -53.05" fill="#000000" fill-opacity="0.9019608" fill-rule="evenodd" stroke="none"/>
  </g>
</svg>
