<?xml version="1.0" encoding="UTF-8" standalone="no"?>
<svg xmlns:ffdec="https://www.free-decompiler.com/flash" xmlns:xlink="http://www.w3.org/1999/xlink" ffdec:objectType="shape" height="136.0px" width="154.35px" xmlns="http://www.w3.org/2000/svg">
  <g transform="matrix(1.0, 0.0, 0.0, 1.0, 72.85, 116.5)">
    <path d="M66.9 -85.1 Q66.9 -89.9 71.6 -95.65 74.0 -98.55 76.45 -100.5 77.35 -100.5 79.3 -97.45 81.5 -94.05 81.5 -91.25 81.5 -87.6 77.85 -79.65 75.65 -79.35 72.15 -81.0 68.4 -82.75 66.9 -85.1" fill="#000000" fill-opacity="0.72156864" fill-rule="evenodd" stroke="none"/>
    <path d="M64.15 -74.15 Q63.95 -75.95 62.65 -79.15 L61.4 -82.35 Q61.4 -82.9 63.85 -83.95 L66.9 -85.1 Q68.4 -82.75 72.15 -81.0 75.65 -79.35 77.85 -79.65 77.85 -78.5 77.05 -77.7 76.25 -76.9 75.1 -76.9 72.7 -76.5 69.35 -75.2 66.7 -74.15 64.15 -74.15 M58.65 -63.2 L58.65 -68.65 64.15 -68.65 Q67.15 -67.9 68.5 -66.45 69.3 -65.55 69.3 -64.85 69.3 -64.0 68.2 -62.4 L66.9 -60.45 Q65.4 -60.65 58.65 -63.2" fill="#000000" fill-opacity="0.53333336" fill-rule="evenodd" stroke="none"/>
    <path d="M-7.1 -96.05 L2.0 -95.35 12.0 -94.75 12.1 -93.35 -7.1 -93.35 -7.1 -96.05" fill="#a6a297" fill-opacity="0.9490196" fill-rule="evenodd" stroke="none"/>
    <path d="M10.45 -71.45 Q12.25 -71.45 13.5 -70.7 14.75 -70.0 14.75 -69.0 14.75 -68.0 13.5 -67.25 12.25 -66.55 10.45 -66.55 8.65 -66.55 7.4 -67.25 6.15 -68.0 6.15 -69.0 6.15 -70.0 7.4 -70.7 8.65 -71.45 10.45 -71.45" fill="#a38a68" fill-rule="evenodd" stroke="none"/>
    <path d="M28.55 -76.9 Q29.0 -75.3 30.55 -72.4 31.4 -70.8 31.4 -66.55 31.4 -58.7 28.55 -57.7 L28.55 -62.85 28.55 -76.9" fill="#a69f94" fill-opacity="0.98039216" fill-rule="evenodd" stroke="none"/>
    <path d="M53.2 -46.75 Q53.1 -45.75 51.65 -45.1 48.4 -43.65 44.95 -41.25 44.95 -43.55 42.55 -45.15 40.15 -46.75 36.75 -46.75 35.5 -47.0 34.95 -47.45 34.0 -48.1 34.0 -49.5 34.0 -50.1 36.2 -50.7 L38.8 -51.2 43.4 -50.4 47.7 -49.5 51.4 -46.9 53.2 -46.75" fill="#000000" fill-opacity="0.8" fill-rule="evenodd" stroke="none"/>
    <path d="M6.6 -19.35 L7.3 -18.05 8.0 -16.6 6.6 -16.6 1.15 -16.6 1.15 -11.15 -0.15 -11.1 Q-0.4 -3.0 -3.55 -3.0 -4.1 -3.0 -5.0 -3.6 -6.05 -4.35 -7.1 -5.65 -5.7 -6.95 -4.05 -11.2 -2.05 -16.3 -3.0 -19.35 L-1.6 -19.35 Q-0.5 -21.7 1.1 -23.0 2.15 -23.85 2.7 -23.85 3.9 -23.85 4.6 -21.8 5.35 -19.6 6.6 -19.35" fill="#000000" fill-opacity="0.5568628" fill-rule="evenodd" stroke="none"/>
    <path d="M6.6 -16.6 Q6.75 -12.35 5.8 -9.35 5.15 -7.3 4.3 -6.45 3.65 -6.95 2.7 -8.2 1.55 -9.8 1.15 -11.15 L1.15 -16.6 6.6 -16.6" fill="#000000" fill-opacity="0.62352943" fill-rule="evenodd" stroke="none"/>
    <path d="M66.9 -54.95 L65.5 -54.9 Q64.9 -50.7 64.15 -49.3 63.25 -47.5 61.15 -47.5 L59.1 -47.9 Q57.4 -48.4 55.95 -49.5 55.45 -52.45 50.45 -57.7 53.95 -60.1 57.15 -61.55 58.55 -62.15 58.65 -63.2 65.4 -60.65 66.9 -60.45 L66.9 -54.95" fill="#000000" fill-opacity="0.78039217" fill-rule="evenodd" stroke="none"/>
    <path d="M-67.6 -114.75 L-62.2 -116.5 Q-58.5 -116.5 -56.0 -111.65 -54.0 -107.65 -54.0 -103.8 -54.0 -101.65 -55.35 -100.15 -56.7 -98.65 -56.7 -97.3 -56.7 -95.9 -52.85 -89.7 -49.05 -83.55 -49.05 -82.2 -49.05 -81.2 -50.05 -79.85 -51.1 -78.4 -52.1 -78.4 -52.85 -78.4 -54.65 -80.35 L-61.15 -87.35 Q-64.85 -91.1 -68.7 -98.25 -72.85 -105.85 -72.85 -109.75 -72.85 -112.5 -67.6 -114.75" fill="#000000" fill-opacity="0.7647059" fill-rule="evenodd" stroke="none"/>
    <path d="M-18.05 -87.85 Q-18.1 -93.85 -14.15 -95.35 L-7.1 -96.05 -7.1 -93.35 Q-9.45 -92.95 -13.2 -90.95 -16.65 -89.15 -18.05 -87.85" fill="#0c0c0b" fill-opacity="0.49411765" fill-rule="evenodd" stroke="none"/>
    <path d="M-23.55 -76.9 L-23.55 -65.95 -23.55 -60.45 -23.55 -57.7 -24.95 -57.8 -26.25 -76.9 -23.55 -76.9" fill="#aba7a2" fill-opacity="0.99607843" fill-rule="evenodd" stroke="none"/>
    <path d="M-12.55 -68.65 L-12.55 -71.55 -9.3 -71.9 Q-6.2 -71.9 -5.1 -70.2 -4.3 -68.95 -4.35 -65.95 L-4.35 -63.2 -12.55 -63.2 -12.55 -68.65" fill="#af9b77" fill-rule="evenodd" stroke="none"/>
    <path d="M-23.55 -52.25 Q-9.4 -41.25 -7.1 -41.25 L-7.1 -38.55 Q-15.35 -38.1 -20.5 -41.55 -24.8 -44.45 -26.25 -49.5 -24.85 -49.3 -24.15 -50.35 -23.9 -50.8 -23.55 -52.25" fill="#151312" fill-opacity="0.99215686" fill-rule="evenodd" stroke="none"/>
    <path d="M75.1 -76.9 L75.3 -72.55 Q75.3 -65.5 73.8 -60.6 71.6 -53.55 66.9 -54.95 L66.9 -60.45 68.2 -62.4 Q69.3 -64.0 69.3 -64.85 69.3 -65.55 68.5 -66.45 67.15 -67.9 64.15 -68.65 L63.0 -71.7 Q62.1 -73.55 61.4 -74.15 L64.15 -74.15 Q66.7 -74.15 69.35 -75.2 72.7 -76.5 75.1 -76.9" fill="#000000" fill-opacity="0.7137255" fill-rule="evenodd" stroke="none"/>
    <path d="M55.95 -49.5 Q55.95 -48.35 55.15 -47.55 54.35 -46.75 53.2 -46.75 L51.4 -46.9 47.7 -49.5 47.7 -57.7 50.45 -57.7 Q55.45 -52.45 55.95 -49.5" fill="#000000" fill-opacity="0.6039216" fill-rule="evenodd" stroke="none"/>
    <path d="M23.05 -85.1 Q25.35 -85.1 26.95 -82.7 28.55 -80.3 28.55 -76.9 L28.55 -62.85 Q28.35 -54.0 18.1 -47.65 7.65 -41.25 -7.1 -41.25 -9.4 -41.25 -23.55 -52.25 L-23.55 -57.7 -23.55 -60.45 Q-1.8 -46.55 2.85 -46.55 3.1 -46.55 6.1 -48.25 9.85 -50.4 12.85 -52.7 22.35 -60.0 20.3 -65.95 17.7 -60.2 10.3 -56.45 3.7 -53.1 -2.5 -53.1 -6.7 -53.1 -9.0 -55.0 -11.95 -57.45 -12.55 -63.2 L-4.35 -63.2 Q-4.65 -61.7 -5.5 -60.95 -6.25 -60.25 -7.1 -60.45 L-4.75 -57.7 Q-3.6 -56.6 -2.55 -56.6 -0.95 -56.6 1.15 -59.95 3.4 -63.6 3.4 -67.4 L3.25 -68.25 3.1 -68.7 1.95 -68.8 Q1.3 -68.8 -1.0 -67.8 -3.35 -66.75 -4.35 -65.95 -4.3 -68.95 -5.1 -70.2 -6.2 -71.9 -9.3 -71.9 L-12.55 -71.55 -12.55 -68.65 -18.3 -68.35 Q-21.1 -67.85 -23.55 -65.95 L-23.55 -76.9 Q-23.55 -80.3 -21.95 -82.7 -20.35 -85.1 -18.05 -85.1 L-8.6 -85.55 4.0 -86.25 Q6.85 -86.25 10.75 -83.45 14.65 -80.65 15.85 -80.65 20.45 -80.65 23.05 -85.1 M10.45 -71.45 Q8.65 -71.45 7.4 -70.7 6.15 -70.0 6.15 -69.0 6.15 -68.0 7.4 -67.25 8.65 -66.55 10.45 -66.55 12.25 -66.55 13.5 -67.25 14.75 -68.0 14.75 -69.0 14.75 -70.0 13.5 -70.7 12.25 -71.45 10.45 -71.45" fill="#e4e3e1" fill-opacity="0.99607843" fill-rule="evenodd" stroke="none"/>
    <path d="M12.1 -93.35 Q16.65 -93.35 19.85 -90.9 23.05 -88.5 23.05 -85.1 20.45 -80.65 15.85 -80.65 14.65 -80.65 10.75 -83.45 6.85 -86.25 4.0 -86.25 L-8.6 -85.55 -18.05 -85.1 -18.05 -87.85 Q-16.65 -89.15 -13.2 -90.95 -9.45 -92.95 -7.1 -93.35 L12.1 -93.35" fill="#eff2f5" fill-opacity="0.99607843" fill-rule="evenodd" stroke="none"/>
    <path d="M-23.55 -65.95 Q-21.1 -67.85 -18.3 -68.35 L-12.55 -68.65 -12.55 -63.2 Q-11.95 -57.45 -9.0 -55.0 -6.7 -53.1 -2.5 -53.1 3.7 -53.1 10.3 -56.45 17.7 -60.2 20.3 -65.95 22.35 -60.0 12.85 -52.7 9.85 -50.4 6.1 -48.25 3.1 -46.55 2.85 -46.55 -1.8 -46.55 -23.55 -60.45 L-23.55 -65.95" fill="#f3f0e4" fill-rule="evenodd" stroke="none"/>
    <path d="M28.55 -57.7 Q28.45 -56.9 27.4 -54.85 26.3 -52.75 25.8 -49.5 24.2 -49.4 21.05 -46.0 17.5 -42.25 14.85 -41.25 10.85 -39.85 6.35 -38.8 -2.6 -36.75 -7.1 -38.55 L-7.1 -41.25 Q7.65 -41.25 18.1 -47.65 28.35 -54.0 28.55 -62.85 L28.55 -57.7" fill="#b7babb" fill-opacity="0.99607843" fill-rule="evenodd" stroke="none"/>
    <path d="M36.75 -44.0 L36.75 -46.75 Q40.15 -46.75 42.55 -45.15 44.95 -43.55 44.95 -41.25 L39.8 -40.6 Q36.6 -40.6 36.75 -44.0" fill="#000000" fill-opacity="0.34509805" fill-rule="evenodd" stroke="none"/>
    <path d="M44.95 -41.25 Q44.45 -38.9 39.55 -36.95 34.7 -35.05 29.35 -35.05 L20.3 -35.8 17.05 -35.7 Q14.4 -35.7 14.4 -38.7 L14.85 -41.25 Q17.5 -42.25 21.05 -46.0 24.2 -49.4 25.8 -49.5 26.05 -44.55 26.8 -42.7 27.65 -40.7 29.6 -40.7 30.05 -40.7 32.95 -42.3 35.85 -43.95 36.75 -44.0 36.6 -40.6 39.8 -40.6 L44.95 -41.25" fill="#080707" fill-opacity="0.73333335" fill-rule="evenodd" stroke="none"/>
    <path d="M20.3 -35.8 Q21.2 -31.55 19.3 -29.35 18.0 -27.85 14.45 -26.65 10.3 -25.25 9.1 -24.45 6.6 -22.7 6.6 -19.35 5.35 -19.6 4.6 -21.8 3.9 -23.85 2.7 -23.85 2.15 -23.85 1.1 -23.0 -0.5 -21.7 -1.6 -19.35 -3.1 -22.8 -5.25 -24.5 -7.7 -26.45 -12.55 -27.55 -11.05 -29.9 -12.7 -31.0 -14.35 -32.1 -18.6 -31.7 -21.2 -31.45 -26.0 -35.5 L-48.2 -54.95 -42.7 -54.95 Q-41.55 -54.95 -40.75 -55.75 -39.95 -56.55 -39.95 -57.7 L-37.25 -57.7 -35.9 -56.9 -34.55 -56.6 Q-32.75 -56.6 -31.9 -58.6 -31.05 -60.65 -31.05 -65.2 L-31.75 -74.15 Q-29.45 -74.15 -27.85 -77.35 -26.25 -80.55 -26.25 -85.1 L-22.55 -86.55 Q-19.25 -87.7 -18.05 -87.85 L-18.05 -85.1 Q-20.35 -85.1 -21.95 -82.7 -23.55 -80.3 -23.55 -76.9 L-26.25 -76.9 -24.95 -57.8 -23.55 -57.7 -23.55 -52.25 Q-23.9 -50.8 -24.15 -50.35 -24.85 -49.3 -26.25 -49.5 -24.8 -44.45 -20.5 -41.55 -15.35 -38.1 -7.1 -38.55 -2.6 -36.75 6.35 -38.8 10.85 -39.85 14.85 -41.25 L14.4 -38.7 Q14.4 -35.7 17.05 -35.7 L20.3 -35.8" fill="#010101" fill-opacity="0.80784315" fill-rule="evenodd" stroke="none"/>
    <path d="M3.9 0.7 Q6.15 2.75 6.15 5.3 L4.35 8.35 Q3.0 10.75 2.65 12.05 L2.5 12.85 Q2.5 15.1 3.35 19.5 L-7.4 19.5 -7.45 19.3 -8.45 16.25 -8.1 12.05 Q-7.4 8.0 -5.45 3.65 -3.45 -0.7 -1.6 -2.9 L3.9 0.7" fill="#000000" fill-opacity="0.76862746" fill-rule="evenodd" stroke="none"/>
    <path d="M-34.5 -74.15 Q-34.5 -78.65 -31.3 -81.85 -29.2 -83.95 -26.25 -85.1 -26.25 -80.55 -27.85 -77.35 -29.45 -74.15 -31.75 -74.15 L-34.5 -74.15" fill="#000000" fill-opacity="0.34117648" fill-rule="evenodd" stroke="none"/>
    <path d="M-37.25 -57.7 Q-37.4 -69.2 -36.1 -71.1 L-35.15 -71.9 Q-34.6 -72.4 -34.5 -74.15 L-31.75 -74.15 -31.05 -65.2 Q-31.05 -60.65 -31.9 -58.6 -32.75 -56.6 -34.55 -56.6 L-35.9 -56.9 -37.25 -57.7" fill="#000000" fill-opacity="0.40392157" fill-rule="evenodd" stroke="none"/>
    <path d="M-4.35 -65.95 Q-3.35 -66.75 -1.0 -67.8 1.3 -68.8 1.95 -68.8 L3.1 -68.7 3.25 -68.25 3.4 -67.4 Q3.4 -63.6 1.15 -59.95 -0.95 -56.6 -2.55 -56.6 -3.6 -56.6 -4.75 -57.7 L-7.1 -60.45 Q-6.25 -60.25 -5.5 -60.95 -4.65 -61.7 -4.35 -63.2 L-4.35 -65.95" fill="#f3eee4" fill-rule="evenodd" stroke="none"/>
    <path d="M-42.7 -54.95 L-42.7 -56.35 Q-49.05 -55.25 -53.25 -61.25 -56.8 -66.35 -56.4 -71.45 -48.55 -72.05 -44.1 -67.35 -40.5 -63.6 -39.95 -57.7 -39.95 -56.55 -40.75 -55.75 -41.55 -54.95 -42.7 -54.95" fill="#000000" fill-opacity="0.7882353" fill-rule="evenodd" stroke="none"/>
  </g>
</svg>
