<?xml version="1.0" encoding="UTF-8" standalone="no"?>
<svg xmlns:ffdec="https://www.free-decompiler.com/flash" xmlns:xlink="http://www.w3.org/1999/xlink" ffdec:objectType="shape" height="132.0px" width="137.55px" xmlns="http://www.w3.org/2000/svg">
  <g transform="matrix(1.0, 0.0, 0.0, 1.0, 72.85, 112.5)">
    <path d="M25.8 -54.95 L28.55 -54.1 Q30.9 -53.45 32.15 -53.45 49.3 -53.45 49.3 -93.6 49.3 -94.35 52.85 -95.2 56.35 -96.05 56.35 -98.65 L54.35 -103.8 54.4 -104.35 54.6 -104.3 Q64.7 -99.25 64.7 -94.75 L60.6 -71.45 Q59.95 -67.8 56.65 -61.95 53.55 -56.5 53.55 -55.85 53.55 -54.85 52.25 -53.2 50.1 -50.55 45.35 -47.95 31.2 -40.25 27.45 -35.65 L26.05 -33.85 Q25.65 -33.45 23.9 -33.45 22.25 -33.45 19.85 -34.45 L17.7 -35.45 15.05 -28.4 Q13.65 -25.6 11.5 -25.6 8.55 -25.75 6.6 -27.55 L6.6 -24.85 5.15 -23.65 4.1 -22.35 Q2.7 -21.15 -1.6 -22.1 -2.25 -25.7 -4.9 -25.7 -8.3 -24.95 -12.55 -22.1 -12.55 -25.5 -16.55 -27.9 -20.6 -30.3 -26.25 -30.3 -26.25 -35.95 -28.65 -39.95 -31.1 -44.0 -34.5 -44.0 L-33.4 -45.65 Q-32.65 -46.7 -32.65 -48.4 L-33.35 -51.25 -34.5 -54.95 -34.5 -79.65 Q-23.45 -90.1 -20.8 -90.6 L-20.8 -87.85 Q-23.05 -87.85 -24.65 -85.45 -26.25 -83.05 -26.25 -79.65 L-29.0 -79.65 -29.0 -71.4 -31.75 -71.4 -30.45 -57.8 -29.0 -57.7 Q-28.45 -49.05 -22.45 -43.9 -16.5 -38.85 -7.15 -38.85 L1.75 -39.3 Q3.75 -39.75 3.85 -41.25 9.0 -41.9 17.15 -48.4 25.3 -54.9 25.8 -54.95 M-10.9 -29.8 Q-9.8 -28.65 -8.2 -28.65 -6.75 -28.65 -4.5 -29.65 -1.95 -30.75 -1.15 -32.15 -1.8 -32.75 -2.6 -33.0 L-6.35 -33.35 -12.55 -33.05 Q-11.85 -30.8 -10.9 -29.8" fill="#010101" fill-opacity="0.7294118" fill-rule="evenodd" stroke="none"/>
    <path d="M20.3 -87.85 Q22.6 -87.85 24.2 -85.45 25.8 -83.05 25.8 -79.65 L25.8 -65.6 Q25.6 -56.75 15.35 -50.4 4.9 -44.0 -9.85 -44.0 -16.65 -44.0 -21.45 -48.8 -26.25 -53.65 -26.25 -60.45 L-26.25 -63.2 Q-4.7 -49.3 0.1 -49.3 0.5 -49.3 3.25 -51.1 6.55 -53.25 9.45 -55.75 18.1 -63.15 17.55 -68.65 14.95 -62.95 7.55 -59.2 0.95 -55.85 -5.25 -55.85 -9.4 -55.85 -11.75 -57.75 -14.65 -60.15 -15.3 -65.95 L-7.1 -65.95 Q-7.35 -64.65 -7.75 -64.05 -8.45 -63.0 -9.85 -63.2 L-7.5 -60.45 Q-6.3 -59.35 -5.3 -59.35 -3.65 -59.35 -1.6 -62.7 0.65 -66.35 0.65 -70.15 L0.35 -71.0 Q0.0 -71.5 -0.75 -71.5 -1.45 -71.5 -3.7 -70.5 L-7.1 -68.65 Q-7.05 -71.65 -7.85 -72.95 -8.95 -74.65 -12.05 -74.65 L-15.3 -74.3 -15.3 -71.4 -21.05 -71.05 Q-23.85 -70.55 -26.25 -68.65 L-26.25 -79.65 Q-26.25 -83.05 -24.65 -85.45 -23.05 -87.85 -20.8 -87.85 L-11.3 -88.25 1.3 -88.95 Q4.1 -88.95 8.0 -86.15 11.9 -83.35 13.1 -83.35 14.95 -83.35 16.65 -84.25 18.85 -85.4 20.3 -87.85 M12.0 -71.75 Q12.0 -72.75 10.75 -73.45 9.5 -74.2 7.7 -74.2 5.9 -74.2 4.65 -73.45 3.4 -72.75 3.4 -71.75 3.4 -70.75 4.65 -70.0 5.9 -69.3 7.7 -69.3 9.5 -69.3 10.75 -70.0 12.0 -70.75 12.0 -71.75" fill="#e4e3e1" fill-opacity="0.99607843" fill-rule="evenodd" stroke="none"/>
    <path d="M9.35 -96.05 Q13.9 -96.05 17.1 -93.65 20.3 -91.25 20.3 -87.85 18.85 -85.4 16.65 -84.25 14.95 -83.35 13.1 -83.35 11.9 -83.35 8.0 -86.15 4.1 -88.95 1.3 -88.95 L-11.3 -88.25 -20.8 -87.85 -20.8 -90.6 Q-19.35 -91.9 -15.95 -93.65 -12.15 -95.65 -9.85 -96.05 L9.35 -96.05" fill="#eff2f5" fill-opacity="0.99607843" fill-rule="evenodd" stroke="none"/>
    <path d="M-9.85 -98.8 L-0.75 -98.1 9.25 -97.45 9.35 -96.05 -9.85 -96.05 -9.85 -98.8" fill="#a6a297" fill-opacity="0.9490196" fill-rule="evenodd" stroke="none"/>
    <path d="M-15.3 -65.95 Q-14.65 -60.15 -11.75 -57.75 -9.4 -55.85 -5.25 -55.85 0.95 -55.85 7.55 -59.2 14.95 -62.95 17.55 -68.65 18.1 -63.15 9.45 -55.75 6.55 -53.25 3.25 -51.1 0.5 -49.3 0.1 -49.3 -4.7 -49.3 -26.25 -63.2 L-26.25 -68.65 Q-23.85 -70.55 -21.05 -71.05 L-15.3 -71.4 -15.3 -65.95" fill="#f3f0e4" fill-rule="evenodd" stroke="none"/>
    <path d="M12.0 -71.75 Q12.0 -70.75 10.75 -70.0 9.5 -69.3 7.7 -69.3 5.9 -69.3 4.65 -70.0 3.4 -70.75 3.4 -71.75 3.4 -72.75 4.65 -73.45 5.9 -74.2 7.7 -74.2 9.5 -74.2 10.75 -73.45 12.0 -72.75 12.0 -71.75" fill="#a38a68" fill-rule="evenodd" stroke="none"/>
    <path d="M25.8 -60.45 L25.8 -54.95 Q25.3 -54.9 17.15 -48.4 9.0 -41.9 3.85 -41.25 L-0.05 -40.8 -2.75 -40.5 Q-8.05 -40.5 -9.85 -44.0 4.9 -44.0 15.35 -50.4 25.6 -56.75 25.8 -65.6 L25.8 -60.45" fill="#b1b5b5" fill-opacity="0.99607843" fill-rule="evenodd" stroke="none"/>
    <path d="M25.8 -79.65 Q27.65 -76.9 28.2 -74.5 28.65 -72.7 28.65 -69.3 28.65 -61.45 25.8 -60.45 L25.8 -65.6 25.8 -79.65" fill="#a69f94" fill-opacity="0.98039216" fill-rule="evenodd" stroke="none"/>
    <path d="M3.85 -41.25 Q3.75 -39.75 1.75 -39.3 L-7.15 -38.85 Q-16.5 -38.85 -22.45 -43.9 -28.45 -49.05 -29.0 -57.7 L-29.0 -60.45 -26.25 -60.45 Q-26.25 -53.65 -21.45 -48.8 -16.65 -44.0 -9.85 -44.0 -8.05 -40.5 -2.75 -40.5 L-0.05 -40.8 3.85 -41.25" fill="#0c0c0c" fill-opacity="0.9764706" fill-rule="evenodd" stroke="none"/>
    <path d="M6.6 -24.85 Q6.45 -22.6 4.55 -18.75 2.65 -14.95 1.15 -13.85 L-0.75 -15.9 Q-2.05 -17.1 -2.05 -19.45 L-1.6 -22.1 Q2.7 -21.15 4.1 -22.35 L5.15 -23.65 6.6 -24.85" fill="#000000" fill-opacity="0.36862746" fill-rule="evenodd" stroke="none"/>
    <path d="M1.15 -13.85 Q-0.15 -13.75 -2.25 -12.35 L-4.65 -10.95 Q-6.0 -10.95 -6.55 -13.0 -7.0 -14.8 -7.1 -19.35 L-4.55 -20.8 Q-2.25 -22.0 -1.6 -22.1 L-2.05 -19.45 Q-2.05 -17.1 -0.75 -15.9 L1.15 -13.85" fill="#000000" fill-opacity="0.74509805" fill-rule="evenodd" stroke="none"/>
    <path d="M-1.6 -2.9 L2.5 2.55 1.15 2.55 -4.35 2.55 -4.35 5.3 Q-7.6 3.8 -7.1 -2.9 L-4.35 -2.9 -1.6 -2.9" fill="#000000" fill-opacity="0.49803922" fill-rule="evenodd" stroke="none"/>
    <path d="M1.15 2.55 Q2.6 7.2 5.0 19.5 L-6.95 19.5 -7.1 19.0 -3.4 18.6 Q-2.1 18.2 -1.45 17.6 -1.55 17.05 -2.75 15.8 -4.05 14.45 -4.35 13.55 L-3.0 13.55 -3.7 11.5 Q-4.35 8.95 -4.35 5.3 L-4.35 2.55 1.15 2.55" fill="#000000" fill-opacity="0.8" fill-rule="evenodd" stroke="none"/>
    <path d="M-70.1 -98.8 Q-70.25 -100.25 -71.25 -103.25 -72.25 -106.5 -72.85 -107.05 -70.0 -106.55 -67.9 -109.1 -65.25 -112.3 -64.65 -112.5 -64.6 -111.6 -63.2 -107.95 L-61.8 -103.95 Q-61.8 -101.5 -63.85 -100.4 -65.35 -99.6 -70.1 -98.8" fill="#000000" fill-opacity="0.5568628" fill-rule="evenodd" stroke="none"/>
    <path d="M-50.95 -52.25 L-53.75 -53.05 Q-56.6 -53.6 -58.3 -54.3 -64.55 -56.8 -65.75 -64.05 -65.5 -64.45 -63.0 -64.45 -61.55 -64.45 -60.85 -64.95 -60.4 -65.25 -60.4 -65.5 L-62.95 -69.9 Q-65.5 -74.4 -65.5 -75.35 -65.5 -76.55 -63.7 -79.35 -61.85 -82.3 -61.75 -82.7 L-61.65 -82.85 -62.2 -82.9 -63.1 -82.55 Q-64.3 -81.8 -66.0 -81.0 -66.15 -81.8 -69.25 -89.85 L-72.85 -98.8 -70.1 -98.8 Q-65.35 -99.6 -63.85 -100.4 -61.8 -101.5 -61.8 -103.95 L-63.2 -107.95 Q-64.6 -111.6 -64.65 -112.5 -59.15 -110.45 -56.75 -105.45 -55.05 -101.9 -55.05 -97.45 -55.05 -95.7 -56.35 -91.45 -57.65 -87.2 -57.65 -86.25 -57.65 -82.75 -54.4 -71.05 -50.7 -57.85 -48.2 -59.1 L-48.2 -57.7 Q-48.35 -56.55 -49.3 -54.65 -50.25 -52.75 -50.95 -52.25" fill="#000000" fill-opacity="0.7647059" fill-rule="evenodd" stroke="none"/>
    <path d="M-20.8 -90.6 Q-20.8 -97.25 -17.3 -98.25 L-13.8 -98.55 -9.85 -98.8 -9.85 -96.05 Q-12.15 -95.65 -15.95 -93.65 -19.35 -91.9 -20.8 -90.6" fill="#0c0c0b" fill-opacity="0.49411765" fill-rule="evenodd" stroke="none"/>
    <path d="M-37.25 -71.4 L-37.25 -79.65 -34.5 -79.65 -34.5 -54.95 -35.9 -55.05 Q-35.9 -58.5 -36.55 -63.55 -37.2 -68.85 -37.25 -71.4 M-7.1 19.0 L-8.65 18.1 Q-9.6 16.9 -9.85 13.55 L-4.35 13.55 Q-4.05 14.45 -2.75 15.8 -1.55 17.05 -1.45 17.6 -2.1 18.2 -3.4 18.6 L-7.1 19.0" fill="#000000" fill-opacity="0.45490196" fill-rule="evenodd" stroke="none"/>
    <path d="M-29.0 -71.4 L-29.0 -79.65 -26.25 -79.65 -26.25 -68.65 -26.25 -63.2 -26.25 -60.45 -29.0 -60.45 -29.0 -71.4" fill="#aba7a2" fill-opacity="0.99607843" fill-rule="evenodd" stroke="none"/>
    <path d="M-29.0 -57.7 L-30.45 -57.8 -31.75 -71.4 -29.0 -71.4 -29.0 -60.45 -29.0 -57.7" fill="#000000" fill-opacity="0.95686275" fill-rule="evenodd" stroke="none"/>
    <path d="M-39.95 -44.0 L-39.95 -46.75 -38.6 -46.75 -38.6 -48.4 Q-38.2 -49.6 -40.0 -53.25 -41.65 -56.65 -42.7 -57.7 -41.0 -59.25 -39.7 -63.05 -38.5 -66.5 -38.5 -68.9 L-38.6 -71.4 -37.25 -71.4 Q-37.2 -68.85 -36.55 -63.55 -35.9 -58.5 -35.9 -55.05 L-34.5 -54.95 -33.35 -51.25 -32.65 -48.4 Q-32.65 -46.7 -33.4 -45.65 L-34.5 -44.0 -39.95 -44.0" fill="#000000" fill-opacity="0.30588236" fill-rule="evenodd" stroke="none"/>
    <path d="M-7.1 -68.65 L-3.7 -70.5 Q-1.45 -71.5 -0.75 -71.5 0.0 -71.5 0.35 -71.0 L0.65 -70.15 Q0.65 -66.35 -1.6 -62.7 -3.65 -59.35 -5.3 -59.35 -6.3 -59.35 -7.5 -60.45 L-9.85 -63.2 Q-8.45 -63.0 -7.75 -64.05 -7.35 -64.65 -7.1 -65.95 L-7.1 -68.65" fill="#f3eee4" fill-rule="evenodd" stroke="none"/>
    <path d="M-7.1 -65.95 L-15.3 -65.95 -15.3 -71.4 -15.3 -74.3 -12.05 -74.65 Q-8.95 -74.65 -7.85 -72.95 -7.05 -71.65 -7.1 -68.65 L-7.1 -65.95" fill="#af9b77" fill-rule="evenodd" stroke="none"/>
    <path d="M-39.95 -46.75 L-43.0 -46.25 -45.75 -45.85 Q-48.6 -45.85 -49.85 -47.1 -51.0 -48.25 -51.0 -50.8 L-50.95 -52.25 Q-50.25 -52.75 -49.3 -54.65 -48.35 -56.55 -48.2 -57.7 L-42.7 -57.7 Q-41.65 -56.65 -40.0 -53.25 -38.2 -49.6 -38.6 -48.4 L-38.6 -46.75 -39.95 -46.75" fill="#000000" fill-opacity="0.6745098" fill-rule="evenodd" stroke="none"/>
    <path d="M-10.9 -29.8 Q-11.85 -30.8 -12.55 -33.05 L-6.35 -33.35 -2.6 -33.0 Q-1.8 -32.75 -1.15 -32.15 -1.95 -30.75 -4.5 -29.65 -6.75 -28.65 -8.2 -28.65 -9.8 -28.65 -10.9 -29.8" fill="#000000" fill-opacity="0.25882354" fill-rule="evenodd" stroke="none"/>
    <path d="M-34.5 -35.8 Q-35.65 -36.05 -36.7 -36.9 -39.05 -38.8 -42.7 -44.0 L-39.95 -44.0 -34.5 -44.0 -31.3 -40.3 Q-30.55 -39.2 -30.55 -38.2 -30.55 -37.2 -31.3 -36.7 -32.2 -36.05 -34.5 -35.8" fill="#000000" fill-opacity="0.7490196" fill-rule="evenodd" stroke="none"/>
    <path d="M-26.25 -30.3 Q-29.65 -30.3 -32.05 -31.9 -34.5 -33.5 -34.5 -35.8 -32.2 -36.05 -31.3 -36.7 -30.55 -37.2 -30.55 -38.2 -30.55 -39.2 -31.3 -40.3 L-34.5 -44.0 Q-31.1 -44.0 -28.65 -39.95 -26.25 -35.95 -26.25 -30.3" fill="#000000" fill-opacity="0.27058825" fill-rule="evenodd" stroke="none"/>
    <path d="M-7.1 -19.35 L-8.8 -19.5 -12.55 -22.1 Q-8.3 -24.95 -4.9 -25.7 -2.25 -25.7 -1.6 -22.1 -2.25 -22.0 -4.55 -20.8 L-7.1 -19.35" fill="#000000" fill-opacity="0.2784314" fill-rule="evenodd" stroke="none"/>
    <path d="M-4.35 -2.9 Q-4.4 -8.65 -1.65 -10.0 -0.25 -10.75 1.7 -10.4 L2.8 -9.2 Q1.2 -3.5 -1.6 -2.9 L-4.35 -2.9" fill="#000000" fill-opacity="0.70980394" fill-rule="evenodd" stroke="none"/>
  </g>
</svg>
