<?xml version="1.0" encoding="UTF-8" standalone="no"?>
<svg xmlns:ffdec="https://www.free-decompiler.com/flash" xmlns:xlink="http://www.w3.org/1999/xlink" ffdec:objectType="shape" height="140.25px" width="126.1px" xmlns="http://www.w3.org/2000/svg">
  <g transform="matrix(1.0, 0.0, 0.0, 1.0, 78.35, 120.75)">
    <path d="M39.5 -104.3 Q37.15 -104.8 35.6 -108.6 33.7 -113.15 34.0 -120.75 L40.55 -120.15 Q43.2 -119.6 44.2 -118.8 44.05 -118.15 42.3 -116.85 L40.1 -115.1 41.25 -114.0 Q42.15 -113.0 42.15 -112.0 L41.9 -110.25 Q41.3 -108.25 39.5 -107.05 L39.5 -104.3" fill="#000000" fill-opacity="0.69803923" fill-rule="evenodd" stroke="none"/>
    <path d="M39.5 -104.3 L39.5 -107.05 Q42.9 -103.85 45.5 -98.0 47.75 -92.95 47.75 -90.5 47.75 -63.4 40.9 -56.15 38.8 -53.9 35.6 -53.3 32.25 -52.65 31.95 -52.4 L24.15 -43.55 Q18.95 -37.85 14.85 -38.55 14.85 -41.9 17.9 -44.9 20.7 -47.75 20.3 -52.25 L20.3 -57.7 23.05 -57.7 Q28.2 -61.45 31.65 -64.35 33.4 -65.8 34.0 -65.95 L35.15 -64.95 35.75 -64.55 Q36.75 -64.55 36.2 -64.7 36.5 -65.25 36.8 -67.15 L37.1 -69.8 36.75 -76.9 35.35 -84.45 Q34.0 -92.05 34.0 -96.05 34.0 -97.75 34.85 -98.05 L36.75 -98.15 Q39.5 -98.25 39.5 -104.3" fill="#000000" fill-opacity="0.7254902" fill-rule="evenodd" stroke="none"/>
    <path d="M34.0 -65.95 L34.0 -76.9 36.75 -76.9 37.1 -69.8 36.8 -67.15 Q36.5 -65.25 36.2 -64.7 36.75 -64.55 35.75 -64.55 L35.15 -64.95 34.0 -65.95" fill="#000000" fill-opacity="0.41960785" fill-rule="evenodd" stroke="none"/>
    <path d="M14.85 -85.1 Q17.1 -85.1 18.7 -82.7 20.3 -80.3 20.3 -76.9 L20.3 -63.2 19.05 -63.15 Q20.6 -58.4 15.15 -53.05 L11.2 -49.45 Q9.35 -47.7 9.35 -46.75 L-1.5 -43.4 Q-10.15 -40.8 -15.3 -41.25 -22.1 -41.25 -26.9 -46.05 -31.75 -50.9 -31.75 -57.7 L-31.75 -60.45 Q-10.2 -46.55 -5.35 -46.55 -4.95 -46.55 -2.2 -48.35 1.05 -50.5 3.9 -52.95 12.6 -60.4 12.1 -65.95 9.5 -60.2 2.1 -56.45 -4.5 -53.1 -10.7 -53.1 -14.85 -53.1 -17.2 -55.0 -20.1 -57.4 -20.8 -63.2 L-12.55 -63.2 Q-12.85 -61.7 -13.75 -60.95 -14.5 -60.25 -15.3 -60.45 L-12.95 -57.7 Q-11.8 -56.6 -10.75 -56.6 -9.25 -56.6 -7.1 -59.95 -4.8 -63.65 -4.8 -67.4 -4.8 -67.95 -4.95 -68.25 L-5.1 -68.7 -6.25 -68.8 Q-6.9 -68.8 -9.15 -67.8 -11.55 -66.75 -12.55 -65.95 -12.0 -69.65 -13.95 -71.05 -15.15 -71.9 -17.5 -71.9 L-20.8 -71.7 -20.8 -68.65 -26.55 -68.35 Q-29.35 -67.85 -31.75 -65.95 L-31.75 -76.9 Q-31.75 -80.3 -30.15 -82.7 -28.55 -85.1 -26.25 -85.1 L-16.8 -85.55 -4.2 -86.25 Q-1.4 -86.25 2.5 -83.45 6.4 -80.65 7.6 -80.65 12.4 -80.65 14.85 -85.1 M6.55 -69.0 Q6.55 -70.0 5.3 -70.7 4.05 -71.45 2.25 -71.45 0.45 -71.45 -0.8 -70.7 -2.05 -70.0 -2.05 -69.0 -2.05 -68.0 -0.8 -67.25 0.45 -66.55 2.25 -66.55 4.05 -66.55 5.3 -67.25 6.55 -68.0 6.55 -69.0" fill="#e4e3e1" fill-opacity="0.99607843" fill-rule="evenodd" stroke="none"/>
    <path d="M3.85 -93.35 Q8.05 -93.15 11.65 -89.75 14.5 -87.05 14.85 -85.1 12.4 -80.65 7.6 -80.65 6.4 -80.65 2.5 -83.45 -1.4 -86.25 -4.2 -86.25 L-16.8 -85.55 -26.25 -85.1 -26.25 -87.85 Q-24.75 -89.2 -21.3 -90.95 -17.55 -92.95 -15.3 -93.35 L3.85 -93.35" fill="#eff2f5" fill-opacity="0.99607843" fill-rule="evenodd" stroke="none"/>
    <path d="M-15.3 -96.05 L-6.2 -95.35 3.8 -94.75 3.85 -93.35 -15.3 -93.35 -15.3 -96.05" fill="#a6a297" fill-opacity="0.9490196" fill-rule="evenodd" stroke="none"/>
    <path d="M-20.8 -63.2 Q-20.1 -57.4 -17.2 -55.0 -14.85 -53.1 -10.7 -53.1 -4.5 -53.1 2.1 -56.45 9.5 -60.2 12.1 -65.95 12.6 -60.4 3.9 -52.95 1.05 -50.5 -2.2 -48.35 -4.95 -46.55 -5.35 -46.55 -10.2 -46.55 -31.75 -60.45 L-31.75 -65.95 Q-29.35 -67.85 -26.55 -68.35 L-20.8 -68.65 -20.8 -63.2" fill="#f3f0e4" fill-rule="evenodd" stroke="none"/>
    <path d="M20.3 -76.9 L22.8 -72.7 Q23.75 -70.6 23.75 -66.95 L23.05 -57.7 20.3 -57.7 20.3 -63.2 20.3 -76.9" fill="#a69f94" fill-opacity="0.98039216" fill-rule="evenodd" stroke="none"/>
    <path d="M9.35 -46.75 Q9.35 -47.7 11.2 -49.45 L15.15 -53.05 Q20.6 -58.4 19.05 -63.15 L20.3 -63.2 20.3 -57.7 20.3 -52.25 18.3 -50.7 16.65 -48.8 Q14.3 -46.5 9.35 -46.75" fill="#bbbebf" fill-opacity="0.99607843" fill-rule="evenodd" stroke="none"/>
    <path d="M14.85 -38.55 L12.1 -38.55 9.35 -38.55 3.85 -38.55 3.85 -41.25 8.1 -40.95 Q9.45 -41.45 9.45 -43.45 L9.35 -46.75 Q14.3 -46.5 16.65 -48.8 L18.3 -50.7 20.3 -52.25 Q20.7 -47.75 17.9 -44.9 14.85 -41.9 14.85 -38.55" fill="#221e1c" fill-opacity="0.91764706" fill-rule="evenodd" stroke="none"/>
    <path d="M-15.3 -41.25 Q-10.15 -40.8 -1.5 -43.4 L9.35 -46.75 9.45 -43.45 Q9.45 -41.45 8.1 -40.95 L3.85 -41.25 3.85 -38.55 -5.4 -37.75 Q-7.75 -37.75 -10.6 -38.65 -13.8 -39.7 -15.3 -41.25" fill="#afb2b2" fill-rule="evenodd" stroke="none"/>
    <path d="M-18.05 -27.55 L-26.25 -27.55 Q-26.3 -29.1 -29.55 -35.75 -32.9 -42.5 -34.5 -44.0 L-34.5 -46.75 -34.5 -54.95 -34.5 -57.7 -31.75 -57.7 Q-31.75 -50.9 -26.9 -46.05 -22.1 -41.25 -15.3 -41.25 -13.8 -39.7 -10.6 -38.65 -7.75 -37.75 -5.4 -37.75 L3.85 -38.55 9.35 -38.55 Q8.85 -37.25 8.25 -36.95 6.6 -36.05 1.15 -35.8 L-4.35 -35.8 -4.35 -27.55 -7.1 -27.55 Q-7.35 -29.9 -7.85 -30.6 -8.55 -31.5 -10.55 -31.5 L-14.35 -31.1 Q-18.1 -30.15 -18.05 -27.55" fill="#060505" fill-opacity="0.92156863" fill-rule="evenodd" stroke="none"/>
    <path d="M12.1 -38.55 Q11.7 -34.45 10.6 -32.65 9.55 -30.95 7.8 -30.95 7.05 -30.95 6.0 -31.6 L3.85 -33.05 3.85 -30.3 Q2.6 -30.75 2.3 -31.2 1.4 -32.35 1.15 -35.8 6.6 -36.05 8.25 -36.95 8.85 -37.25 9.35 -38.55 L12.1 -38.55" fill="#000000" fill-opacity="0.49803922" fill-rule="evenodd" stroke="none"/>
    <path d="M3.85 -30.3 Q3.0 -29.1 2.2 -26.95 L1.6 -24.95 Q1.6 -24.6 3.45 -22.95 5.25 -21.25 5.25 -20.7 5.25 -16.95 3.0 -13.05 0.85 -9.35 -1.6 -8.4 -1.9 -9.7 -2.75 -10.5 -3.6 -11.3 -4.35 -11.15 L-4.35 -5.65 Q-5.5 -5.75 -5.9 -6.85 -6.75 -9.05 -7.1 -16.6 -3.8 -17.1 -2.5 -17.95 -1.25 -18.75 -1.25 -20.35 -1.25 -21.25 -2.55 -23.95 L-4.35 -27.55 -4.35 -35.8 1.15 -35.8 Q1.4 -32.35 2.3 -31.2 2.6 -30.75 3.85 -30.3" fill="#000000" fill-opacity="0.6666667" fill-rule="evenodd" stroke="none"/>
    <path d="M3.85 2.55 Q7.25 2.4 7.25 5.6 L6.6 10.8 3.35 10.85 Q1.6 10.85 1.0 9.7 0.7 9.1 0.7 7.9 L1.15 5.3 Q2.25 5.3 3.05 4.5 3.85 3.7 3.85 2.55" fill="#000000" fill-opacity="0.5176471" fill-rule="evenodd" stroke="none"/>
    <path d="M-1.6 -8.4 L1.35 -3.6 Q3.85 0.25 3.85 2.55 3.85 3.7 3.05 4.5 2.25 5.3 1.15 5.3 1.15 4.15 0.35 3.35 -0.45 2.55 -1.6 2.55 -1.75 1.4 -2.9 -1.8 L-4.35 -5.65 -4.35 -11.15 Q-3.6 -11.3 -2.75 -10.5 -1.9 -9.7 -1.6 -8.4" fill="#000000" fill-opacity="0.8235294" fill-rule="evenodd" stroke="none"/>
    <path d="M6.6 10.8 L7.5 12.35 Q8.15 13.8 8.15 15.15 8.15 16.9 7.55 19.5 L-3.7 19.5 -3.55 17.3 Q-3.55 16.9 -4.7 12.3 L-5.85 7.1 Q-5.85 5.0 -5.0 4.0 -4.05 2.9 -1.6 2.55 -0.45 2.55 0.35 3.35 1.15 4.15 1.15 5.3 L0.7 7.9 Q0.7 9.1 1.0 9.7 1.6 10.85 3.35 10.85 L6.6 10.8 M-72.85 -71.4 L-72.85 -76.9 Q-61.65 -74.45 -61.65 -69.9 -61.65 -66.95 -64.65 -65.95 -64.65 -68.2 -67.05 -69.8 -69.45 -71.4 -72.85 -71.4" fill="#000000" fill-opacity="0.7764706" fill-rule="evenodd" stroke="none"/>
    <path d="M-26.25 -87.85 Q-26.3 -93.85 -22.35 -95.35 L-15.3 -96.05 -15.3 -93.35 Q-17.55 -92.95 -21.3 -90.95 -24.75 -89.2 -26.25 -87.85" fill="#0c0c0b" fill-opacity="0.49411765" fill-rule="evenodd" stroke="none"/>
    <path d="M-34.5 -85.1 Q-33.9 -85.6 -30.7 -86.65 L-26.25 -87.85 -26.25 -85.1 Q-28.55 -85.1 -30.15 -82.7 -31.75 -80.3 -31.75 -76.9 L-34.5 -76.9 -34.5 -68.65 -37.25 -68.65 Q-38.05 -63.05 -38.0 -60.3 -37.95 -55.35 -34.5 -54.95 L-34.5 -46.75 Q-38.7 -47.65 -40.2 -54.0 -41.6 -60.15 -39.95 -68.65 -40.0 -72.25 -37.0 -78.15 -34.2 -83.65 -34.5 -85.1" fill="#050505" fill-opacity="0.78039217" fill-rule="evenodd" stroke="none"/>
    <path d="M-31.75 -60.45 L-31.75 -57.7 -34.5 -57.7 -34.5 -68.65 -34.5 -76.9 -31.75 -76.9 -31.75 -65.95 -31.75 -60.45" fill="#aba7a2" fill-opacity="0.99607843" fill-rule="evenodd" stroke="none"/>
    <path d="M-42.7 -68.65 Q-40.4 -78.75 -37.5 -82.75 -36.35 -84.3 -34.5 -85.1 -34.2 -83.65 -37.0 -78.15 -40.0 -72.25 -39.95 -68.65 L-42.7 -68.65" fill="#000000" fill-opacity="0.38431373" fill-rule="evenodd" stroke="none"/>
    <path d="M-20.8 -68.65 L-20.8 -71.7 -17.5 -71.9 Q-15.15 -71.9 -13.95 -71.05 -12.0 -69.65 -12.55 -65.95 L-12.55 -63.2 -20.8 -63.2 -20.8 -68.65" fill="#af9b77" fill-rule="evenodd" stroke="none"/>
    <path d="M-34.5 -54.95 Q-37.95 -55.35 -38.0 -60.3 -38.05 -63.05 -37.25 -68.65 L-34.5 -68.65 -34.5 -57.7 -34.5 -54.95" fill="#000000" fill-opacity="0.95686275" fill-rule="evenodd" stroke="none"/>
    <path d="M-12.55 -65.95 Q-11.55 -66.75 -9.15 -67.8 -6.9 -68.8 -6.25 -68.8 L-5.1 -68.7 -4.95 -68.25 Q-4.8 -67.95 -4.8 -67.4 -4.8 -63.65 -7.1 -59.95 -9.25 -56.6 -10.75 -56.6 -11.8 -56.6 -12.95 -57.7 L-15.3 -60.45 Q-14.5 -60.25 -13.75 -60.95 -12.85 -61.7 -12.55 -63.2 L-12.55 -65.95" fill="#f3eee4" fill-rule="evenodd" stroke="none"/>
    <path d="M-77.4 -101.8 Q-77.95 -103.35 -78.35 -107.05 L-75.35 -107.75 -72.85 -108.3 Q-68.45 -108.3 -66.25 -105.0 -63.4 -100.7 -63.4 -90.15 -63.4 -87.2 -64.6 -82.7 -65.4 -79.65 -66.0 -78.25 -71.55 -81.05 -74.85 -85.75 -77.95 -90.15 -77.95 -94.4 -77.95 -95.9 -77.2 -96.75 -76.25 -97.9 -74.2 -97.45 -76.55 -99.65 -77.4 -101.8" fill="#000000" fill-opacity="0.77254903" fill-rule="evenodd" stroke="none"/>
    <path d="M-72.85 -65.95 L-72.85 -71.4 Q-69.45 -71.4 -67.05 -69.8 -64.65 -68.2 -64.65 -65.95 L-72.85 -65.95" fill="#000000" fill-opacity="0.3647059" fill-rule="evenodd" stroke="none"/>
    <path d="M-48.2 -35.8 Q-50.75 -37.7 -56.05 -39.75 -61.6 -41.9 -63.9 -43.4 -72.4 -49.1 -72.85 -65.95 L-64.65 -65.95 Q-62.75 -57.8 -55.2 -49.9 L-50.3 -44.95 Q-48.2 -42.65 -48.2 -41.25 L-48.2 -35.8" fill="#000000" fill-opacity="0.76862746" fill-rule="evenodd" stroke="none"/>
    <path d="M-42.7 -54.95 Q-46.15 -55.35 -46.2 -60.3 -46.2 -63.05 -45.45 -68.65 L-42.7 -68.65 -42.7 -54.95" fill="#000000" fill-opacity="0.24313726" fill-rule="evenodd" stroke="none"/>
    <path d="M-39.95 -44.0 L-41.8 -46.8 Q-43.2 -48.75 -43.2 -50.9 L-42.7 -54.95 -42.7 -68.65 -39.95 -68.65 Q-41.6 -60.15 -40.2 -54.0 -38.7 -47.65 -34.5 -46.75 L-34.5 -44.0 -34.5 -41.25 -36.2 -41.4 Q-37.0 -41.7 -39.95 -44.0" fill="#000000" fill-opacity="0.4745098" fill-rule="evenodd" stroke="none"/>
    <path d="M-34.5 -35.8 L-37.8 -36.75 -41.85 -37.55 -48.2 -35.8 -48.2 -41.25 Q-44.25 -39.1 -42.65 -40.8 -41.3 -43.35 -39.95 -44.0 -37.0 -41.7 -36.2 -41.4 L-34.5 -41.25 -34.5 -35.8" fill="#000000" fill-opacity="0.85490197" fill-rule="evenodd" stroke="none"/>
    <path d="M-9.85 -27.55 Q-11.15 -26.95 -12.85 -24.6 -14.35 -22.6 -15.25 -22.6 -16.15 -22.6 -16.75 -23.4 -17.55 -24.55 -18.05 -27.55 -18.1 -30.15 -14.35 -31.1 L-10.55 -31.5 Q-8.55 -31.5 -7.85 -30.6 -7.35 -29.9 -7.1 -27.55 L-9.85 -27.55 M-26.25 -27.55 L-26.25 -26.2 -42.7 -33.05 -40.65 -33.1 Q-37.45 -33.3 -36.0 -34.05 -35.0 -34.6 -34.5 -35.8 L-34.5 -41.25 -34.5 -44.0 Q-32.9 -42.5 -29.55 -35.75 -26.3 -29.1 -26.25 -27.55" fill="#000000" fill-opacity="0.6117647" fill-rule="evenodd" stroke="none"/>
    <path d="M-7.1 -16.6 Q-6.9 -21.35 -7.55 -23.6 -8.1 -25.4 -9.85 -27.55 L-7.1 -27.55 -4.35 -27.55 -2.55 -23.95 Q-1.25 -21.25 -1.25 -20.35 -1.25 -18.75 -2.5 -17.95 -3.8 -17.1 -7.1 -16.6" fill="#000000" fill-opacity="0.34901962" fill-rule="evenodd" stroke="none"/>
    <path d="M6.55 -69.0 Q6.55 -68.0 5.3 -67.25 4.05 -66.55 2.25 -66.55 0.45 -66.55 -0.8 -67.25 -2.05 -68.0 -2.05 -69.0 -2.05 -70.0 -0.8 -70.7 0.45 -71.45 2.25 -71.45 4.05 -71.45 5.3 -70.7 6.55 -70.0 6.55 -69.0" fill="#a38a68" fill-rule="evenodd" stroke="none"/>
  </g>
</svg>
