<?xml version="1.0" encoding="UTF-8" standalone="no"?>
<svg xmlns:ffdec="https://www.free-decompiler.com/flash" xmlns:xlink="http://www.w3.org/1999/xlink" ffdec:objectType="shape" height="140.25px" width="125.8px" xmlns="http://www.w3.org/2000/svg">
  <g transform="matrix(1.0, 0.0, 0.0, 1.0, 86.55, 120.75)">
    <path d="M23.05 -120.75 Q32.8 -118.3 33.4 -116.65 32.75 -115.8 30.15 -114.95 27.9 -114.2 26.95 -114.2 25.15 -114.2 23.95 -115.55 22.4 -117.35 23.05 -120.75" fill="#000000" fill-opacity="0.627451" fill-rule="evenodd" stroke="none"/>
    <path d="M28.55 -71.4 L27.15 -72.8 27.85 -73.1 Q28.55 -73.5 28.55 -74.15 28.55 -81.9 26.45 -93.2 24.65 -102.95 23.05 -107.05 24.15 -106.45 26.7 -105.8 L29.45 -105.2 Q33.05 -105.2 35.4 -108.4 37.5 -100.05 38.25 -94.6 39.0 -89.45 39.0 -83.65 L38.1 -76.05 36.75 -68.65 Q36.3 -67.4 35.85 -67.05 34.65 -66.15 31.25 -65.95 31.35 -66.95 32.75 -68.15 34.15 -69.35 34.2 -69.85 L33.05 -70.75 Q31.5 -71.45 28.55 -71.4" fill="#000000" fill-opacity="0.7137255" fill-rule="evenodd" stroke="none"/>
    <path d="M14.85 -87.85 Q17.1 -87.85 18.7 -85.45 20.3 -83.05 20.3 -79.65 20.2 -77.95 18.85 -76.1 L17.55 -74.15 18.8 -70.9 Q20.1 -67.7 20.3 -65.95 20.3 -65.6 17.55 -62.3 14.8 -59.05 14.85 -54.95 L14.85 -52.25 Q12.85 -53.05 11.9 -53.05 7.65 -49.9 2.5 -47.15 -7.65 -41.8 -15.3 -44.0 -17.05 -44.1 -23.5 -49.5 -29.95 -54.9 -31.75 -57.7 L-31.75 -60.45 -31.75 -63.2 Q-10.2 -49.3 -5.35 -49.3 -4.95 -49.3 -2.2 -51.1 1.05 -53.25 3.9 -55.75 12.6 -63.15 12.1 -68.65 9.5 -62.95 2.1 -59.2 -4.5 -55.85 -10.7 -55.85 -14.85 -55.85 -17.2 -57.75 -20.1 -60.15 -20.8 -65.95 L-12.55 -65.95 Q-12.85 -64.5 -13.75 -63.7 -14.55 -63.0 -15.3 -63.2 L-12.95 -60.45 Q-11.8 -59.35 -10.75 -59.35 -9.25 -59.35 -7.1 -62.7 -4.8 -66.4 -4.8 -70.15 -4.8 -70.65 -5.1 -71.0 -5.5 -71.5 -6.25 -71.5 -6.9 -71.5 -9.15 -70.5 -11.55 -69.45 -12.55 -68.65 -12.0 -72.4 -13.95 -73.8 -15.15 -74.65 -17.5 -74.65 L-20.8 -74.45 -20.8 -71.4 -26.55 -71.05 Q-29.35 -70.55 -31.75 -68.65 L-31.75 -79.65 Q-31.75 -83.05 -30.15 -85.45 -28.55 -87.85 -26.25 -87.85 L-16.8 -88.25 -4.2 -88.95 Q-1.4 -88.95 2.5 -86.15 6.4 -83.35 7.6 -83.35 9.4 -83.35 11.15 -84.25 13.45 -85.4 14.85 -87.85 M5.3 -73.45 Q4.05 -74.2 2.25 -74.2 0.45 -74.2 -0.8 -73.45 -2.05 -72.75 -2.05 -71.75 -2.05 -70.75 -0.8 -70.0 0.45 -69.3 2.25 -69.3 4.05 -69.3 5.3 -70.0 6.55 -70.75 6.55 -71.75 6.55 -72.75 5.3 -73.45" fill="#e4e3e1" fill-opacity="0.99607843" fill-rule="evenodd" stroke="none"/>
    <path d="M3.85 -96.05 Q8.4 -96.05 11.65 -93.65 14.85 -91.25 14.85 -87.85 13.45 -85.4 11.15 -84.25 9.4 -83.35 7.6 -83.35 6.4 -83.35 2.5 -86.15 -1.4 -88.95 -4.2 -88.95 L-16.8 -88.25 -26.25 -87.85 -26.25 -90.6 Q-24.7 -91.9 -21.3 -93.65 -17.55 -95.65 -15.3 -96.05 L3.85 -96.05" fill="#eff2f5" fill-opacity="0.99607843" fill-rule="evenodd" stroke="none"/>
    <path d="M-15.3 -98.8 L-6.2 -98.1 3.8 -97.45 3.85 -96.05 -15.3 -96.05 -15.3 -98.8" fill="#a6a297" fill-opacity="0.9490196" fill-rule="evenodd" stroke="none"/>
    <path d="M-31.75 -68.65 Q-29.35 -70.55 -26.55 -71.05 L-20.8 -71.4 -20.8 -65.95 Q-20.1 -60.15 -17.2 -57.75 -14.85 -55.85 -10.7 -55.85 -4.5 -55.85 2.1 -59.2 9.5 -62.95 12.1 -68.65 12.6 -63.15 3.9 -55.75 1.05 -53.25 -2.2 -51.1 -4.95 -49.3 -5.35 -49.3 -10.2 -49.3 -31.75 -63.2 L-31.75 -68.65" fill="#f3f0e4" fill-rule="evenodd" stroke="none"/>
    <path d="M20.3 -79.65 Q23.8 -77.9 23.8 -72.55 L23.05 -65.95 20.3 -65.95 Q20.1 -67.7 18.8 -70.9 L17.55 -74.15 18.85 -76.1 Q20.2 -77.95 20.3 -79.65" fill="#b5aea2" fill-opacity="0.9843137" fill-rule="evenodd" stroke="none"/>
    <path d="M-15.3 -44.0 Q-7.65 -41.8 2.5 -47.15 7.65 -49.9 11.9 -53.05 12.85 -53.05 14.85 -52.25 14.55 -50.0 12.2 -47.2 8.8 -43.2 3.85 -44.0 L3.85 -41.25 -5.4 -40.5 Q-7.75 -40.5 -10.6 -41.4 -13.8 -42.45 -15.3 -44.0" fill="#a3a3a3" fill-opacity="0.99607843" fill-rule="evenodd" stroke="none"/>
    <path d="M20.3 -44.0 Q19.4 -39.75 13.35 -34.85 8.05 -30.6 1.15 -27.55 1.05 -29.1 1.6 -31.55 L2.5 -34.4 1.6 -33.95 Q-0.45 -33.1 -1.4 -33.1 -2.85 -33.1 -3.55 -34.0 -4.2 -34.85 -4.35 -36.7 L-4.35 -38.6 Q1.1 -38.85 2.75 -39.65 3.3 -39.95 3.85 -41.25 L3.85 -44.0 Q8.8 -43.2 12.2 -47.2 14.55 -50.0 14.85 -52.25 L14.85 -54.95 20.3 -54.95 20.3 -44.0" fill="#0b0909" fill-opacity="0.8039216" fill-rule="evenodd" stroke="none"/>
    <path d="M14.85 -54.95 Q14.8 -59.05 17.55 -62.3 20.3 -65.6 20.3 -65.95 L23.05 -65.95 23.05 -63.2 23.05 -60.45 20.3 -60.45 20.3 -54.95 14.85 -54.95" fill="#827976" fill-opacity="0.99607843" fill-rule="evenodd" stroke="none"/>
    <path d="M31.25 -65.95 Q34.65 -66.15 35.85 -67.05 36.3 -67.4 36.75 -68.65 37.95 -68.25 38.65 -67.0 39.25 -65.9 39.25 -64.65 39.25 -63.55 38.1 -63.05 L34.0 -63.2 34.0 -60.45 Q32.85 -60.45 32.05 -62.05 31.25 -63.65 31.25 -65.95" fill="#000000" fill-opacity="0.8235294" fill-rule="evenodd" stroke="none"/>
    <path d="M28.55 -71.4 Q31.5 -71.45 33.05 -70.75 L34.2 -69.85 Q34.15 -69.35 32.75 -68.15 31.35 -66.95 31.25 -65.95 L28.75 -63.5 Q27.3 -62.3 23.05 -63.2 L23.05 -65.95 Q26.3 -67.5 27.65 -69.3 28.35 -70.2 28.55 -71.4" fill="#030202" fill-opacity="0.8392157" fill-rule="evenodd" stroke="none"/>
    <path d="M34.0 -60.45 Q34.0 -58.15 32.4 -56.55 30.8 -54.95 28.55 -54.95 L28.6 -58.2 Q28.6 -60.05 27.25 -60.65 L23.05 -60.45 23.05 -63.2 Q27.3 -62.3 28.75 -63.5 L31.25 -65.95 Q31.25 -63.65 32.05 -62.05 32.85 -60.45 34.0 -60.45" fill="#010000" fill-opacity="0.5372549" fill-rule="evenodd" stroke="none"/>
    <path d="M28.55 -54.95 Q28.55 -53.55 27.05 -50.85 24.75 -46.7 20.3 -44.0 L20.3 -54.95 20.3 -60.45 23.05 -60.45 27.25 -60.65 Q28.6 -60.05 28.6 -58.2 L28.55 -54.95" fill="#0a0706" fill-opacity="0.69411767" fill-rule="evenodd" stroke="none"/>
    <path d="M1.15 -27.55 Q1.15 -26.45 0.35 -25.65 -0.45 -24.85 -1.6 -24.85 L-3.65 -26.7 Q-5.0 -28.05 -8.5 -28.05 L-10.2 -27.95 -12.55 -27.85 -12.55 -24.85 -18.05 -24.85 -18.05 -27.55 Q-16.9 -27.55 -13.1 -29.95 -9.05 -32.5 -9.05 -33.9 -9.05 -35.15 -11.0 -35.6 L-18.05 -35.8 Q-23.25 -36.15 -26.3 -37.45 -29.1 -38.6 -31.75 -41.25 -32.0 -43.2 -34.5 -49.5 L-34.5 -57.7 -31.75 -57.7 Q-29.95 -54.9 -23.5 -49.5 -17.05 -44.1 -15.3 -44.0 -13.8 -42.45 -10.6 -41.4 -7.75 -40.5 -5.4 -40.5 L3.85 -41.25 Q3.3 -39.95 2.75 -39.65 1.1 -38.85 -4.35 -38.6 L-4.35 -36.7 Q-4.2 -34.85 -3.55 -34.0 -2.85 -33.1 -1.4 -33.1 -0.45 -33.1 1.6 -33.95 L2.5 -34.4 1.6 -31.55 Q1.05 -29.1 1.15 -27.55" fill="#040404" fill-opacity="0.84705883" fill-rule="evenodd" stroke="none"/>
    <path d="M1.15 -19.35 L2.45 -19.3 2.7 -16.05 2.95 -12.05 2.8 -9.7 2.5 -7.8 2.25 -7.65 Q0.85 -9.15 -0.2 -12.1 L-1.6 -16.6 Q-0.45 -16.6 0.35 -17.4 1.15 -18.2 1.15 -19.35" fill="#000000" fill-opacity="0.62352943" fill-rule="evenodd" stroke="none"/>
    <path d="M-1.6 -24.85 Q-1.6 -22.55 -0.8 -20.95 0.0 -19.35 1.15 -19.35 1.15 -18.2 0.35 -17.4 -0.45 -16.6 -1.6 -16.6 -6.15 -16.6 -9.35 -19.0 -12.55 -21.45 -12.55 -24.85 L-12.55 -27.85 -10.2 -27.95 -8.5 -28.05 Q-5.0 -28.05 -3.65 -26.7 L-1.6 -24.85" fill="#000000" fill-opacity="0.6117647" fill-rule="evenodd" stroke="none"/>
    <path d="M3.35 16.85 L4.65 19.5 -5.4 19.5 Q-3.4 15.7 -2.6 13.2 L-2.1 11.05 Q-2.05 10.8 -1.6 10.8 0.25 10.8 3.35 16.85" fill="#000000" fill-opacity="0.78039217" fill-rule="evenodd" stroke="none"/>
    <path d="M3.85 2.55 Q1.6 2.55 0.0 4.15 -1.6 5.75 -1.6 8.05 -4.15 7.55 -5.55 3.65 L-7.1 -2.9 Q-4.55 -4.6 -2.7 -4.6 0.2 -4.6 2.25 -1.25 3.6 0.9 3.85 2.55 M-72.85 -79.65 Q-70.6 -79.35 -69.65 -78.1 -68.9 -77.15 -68.9 -75.4 -69.45 -68.65 -69.0 -63.75 -68.2 -54.8 -63.25 -45.4 L-67.1 -44.1 -70.15 -43.5 Q-75.6 -43.5 -79.1 -48.55 -83.15 -54.4 -83.8 -65.95 -81.15 -65.95 -79.55 -67.5 -78.2 -68.9 -78.2 -70.9 L-78.35 -74.15 -74.1 -73.85 Q-72.75 -74.35 -72.75 -76.35 L-72.85 -79.65 M-45.45 -30.3 L-39.6 -28.75 Q-38.7 -28.45 -37.9 -27.65 -38.6 -27.15 -40.95 -26.7 L-45.45 -26.2 -45.45 -27.55 -45.45 -30.3" fill="#000000" fill-opacity="0.7058824" fill-rule="evenodd" stroke="none"/>
    <path d="M3.85 2.55 L5.0 6.55 6.1 10.75 5.4 11.75 5.1 12.15 Q1.35 10.55 -1.6 8.05 -1.6 5.75 0.0 4.15 1.6 2.55 3.85 2.55" fill="#000000" fill-opacity="0.7647059" fill-rule="evenodd" stroke="none"/>
    <path d="M-81.05 -90.6 Q-82.0 -90.7 -82.65 -92.15 -83.95 -95.2 -86.55 -98.8 -82.9 -97.55 -80.9 -97.55 -78.8 -97.55 -75.8 -98.4 -73.1 -99.2 -71.9 -99.95 -71.1 -98.95 -70.8 -97.15 -70.3 -94.05 -70.1 -85.1 -74.65 -85.1 -77.85 -86.7 -81.05 -88.3 -81.05 -90.6" fill="#000000" fill-opacity="0.77254903" fill-rule="evenodd" stroke="none"/>
    <path d="M-26.25 -90.6 Q-26.3 -96.55 -22.35 -98.05 L-15.3 -98.8 -15.3 -96.05 Q-17.55 -95.65 -21.3 -93.65 -24.7 -91.9 -26.25 -90.6" fill="#0c0c0b" fill-opacity="0.49411765" fill-rule="evenodd" stroke="none"/>
    <path d="M-34.5 -87.85 Q-33.9 -88.35 -30.7 -89.4 L-26.25 -90.6 -26.25 -87.85 Q-28.55 -87.85 -30.15 -85.45 -31.75 -83.05 -31.75 -79.65 L-34.5 -79.65 -34.5 -71.4 -37.25 -71.4 -35.9 -57.8 -34.5 -57.7 -34.5 -49.5 Q-38.8 -50.3 -40.25 -56.75 -41.6 -62.8 -39.95 -71.4 -40.0 -75.0 -37.0 -80.9 -34.2 -86.4 -34.5 -87.85" fill="#050505" fill-opacity="0.78039217" fill-rule="evenodd" stroke="none"/>
    <path d="M-42.7 -71.4 Q-43.4 -78.45 -40.15 -83.15 -37.9 -86.4 -34.5 -87.85 -34.2 -86.4 -37.0 -80.9 -40.0 -75.0 -39.95 -71.4 L-42.7 -71.4" fill="#000000" fill-opacity="0.38431373" fill-rule="evenodd" stroke="none"/>
    <path d="M-31.75 -79.65 L-31.75 -68.65 -31.75 -63.2 -31.75 -60.45 Q-32.9 -60.55 -33.3 -61.65 -34.15 -63.85 -34.5 -71.4 L-34.5 -79.65 -31.75 -79.65" fill="#aba7a2" fill-opacity="0.99607843" fill-rule="evenodd" stroke="none"/>
    <path d="M-20.8 -71.4 L-20.8 -74.45 -17.5 -74.65 Q-15.15 -74.65 -13.95 -73.8 -12.0 -72.4 -12.55 -68.65 L-12.55 -65.95 -20.8 -65.95 -20.8 -71.4" fill="#af9b77" fill-rule="evenodd" stroke="none"/>
    <path d="M-31.75 -60.45 L-31.75 -57.7 -34.5 -57.7 -35.9 -57.8 -37.25 -71.4 -34.5 -71.4 Q-34.15 -63.85 -33.3 -61.65 -32.9 -60.55 -31.75 -60.45" fill="#060607" fill-opacity="0.9647059" fill-rule="evenodd" stroke="none"/>
    <path d="M-34.5 -41.25 Q-37.5 -41.95 -39.95 -46.9 -42.35 -51.75 -42.7 -57.7 L-42.7 -71.4 -39.95 -71.4 Q-41.6 -62.8 -40.25 -56.75 -38.8 -50.3 -34.5 -49.5 -32.0 -43.2 -31.75 -41.25 L-34.5 -41.25" fill="#000000" fill-opacity="0.49411765" fill-rule="evenodd" stroke="none"/>
    <path d="M-12.55 -68.65 Q-11.55 -69.45 -9.15 -70.5 -6.9 -71.5 -6.25 -71.5 -5.5 -71.5 -5.1 -71.0 -4.8 -70.65 -4.8 -70.15 -4.8 -66.4 -7.1 -62.7 -9.25 -59.35 -10.75 -59.35 -11.8 -59.35 -12.95 -60.45 L-15.3 -63.2 Q-14.55 -63.0 -13.75 -63.7 -12.85 -64.5 -12.55 -65.95 L-12.55 -68.65" fill="#f3eee4" fill-rule="evenodd" stroke="none"/>
    <path d="M-70.1 -85.1 L-68.95 -84.9 Q-68.15 -84.65 -68.15 -83.3 -68.15 -81.8 -69.95 -81.8 -71.2 -81.8 -72.85 -82.35 L-72.85 -79.65 -78.35 -79.65 -80.15 -82.4 Q-81.55 -84.4 -81.55 -86.5 L-81.05 -90.6 Q-81.05 -88.3 -77.85 -86.7 -74.65 -85.1 -70.1 -85.1" fill="#000000" fill-opacity="0.5686275" fill-rule="evenodd" stroke="none"/>
    <path d="M-78.35 -74.15 L-79.9 -75.05 Q-80.8 -76.2 -81.05 -79.65 L-78.35 -79.65 -72.85 -79.65 -72.75 -76.35 Q-72.75 -74.35 -74.1 -73.85 L-78.35 -74.15" fill="#000000" fill-opacity="0.43529412" fill-rule="evenodd" stroke="none"/>
    <path d="M-42.7 -57.7 L-44.15 -57.8 -45.45 -71.4 -42.7 -71.4 -42.7 -57.7" fill="#000000" fill-opacity="0.24313726" fill-rule="evenodd" stroke="none"/>
    <path d="M-45.45 -27.55 Q-47.2 -27.9 -48.8 -29.55 -51.35 -32.15 -51.0 -36.7 L-50.95 -38.55 Q-49.35 -37.0 -47.5 -34.35 -45.45 -31.45 -45.45 -30.3 L-45.45 -27.55" fill="#000000" fill-opacity="0.6509804" fill-rule="evenodd" stroke="none"/>
    <path d="M-55.25 -36.5 Q-55.25 -34.5 -57.0 -33.1 -58.8 -31.7 -61.3 -31.7 -63.8 -31.7 -65.55 -33.1 -67.35 -34.5 -67.35 -36.5 -67.35 -38.5 -65.55 -39.9 -63.8 -41.3 -61.3 -41.3 -58.8 -41.3 -57.0 -39.9 -55.25 -38.5 -55.25 -36.5" fill="#000000" fill-opacity="0.5529412" fill-rule="evenodd" stroke="none"/>
    <path d="M-18.05 -24.85 Q-18.25 -21.95 -18.5 -21.1 -18.9 -19.85 -19.85 -19.85 -20.4 -19.85 -21.55 -20.55 L-23.55 -22.1 -23.55 -27.55 -18.05 -27.55 -18.05 -24.85" fill="#000000" fill-opacity="0.7882353" fill-rule="evenodd" stroke="none"/>
    <path d="M-18.05 -35.8 L-11.0 -35.6 Q-9.05 -35.15 -9.05 -33.9 -9.05 -32.5 -13.1 -29.95 -16.9 -27.55 -18.05 -27.55 L-18.05 -35.8" fill="#000000" fill-opacity="0.4862745" fill-rule="evenodd" stroke="none"/>
    <path d="M-31.75 -35.8 L-31.9 -37.5 -34.5 -41.25 -31.75 -41.25 Q-29.1 -38.6 -26.3 -37.45 -23.25 -36.15 -18.05 -35.8 L-18.05 -27.55 -23.55 -27.55 Q-23.8 -28.75 -24.65 -29.8 -26.55 -32.15 -31.75 -35.8" fill="#000000" fill-opacity="0.29411766" fill-rule="evenodd" stroke="none"/>
    <path d="M-23.55 -22.1 L-27.65 -26.2 Q-28.0 -25.05 -29.05 -24.4 L-30.05 -24.0 Q-31.7 -24.0 -33.7 -26.35 -35.95 -28.95 -37.25 -33.05 L-34.7 -34.5 -31.75 -35.8 Q-26.55 -32.15 -24.65 -29.8 -23.8 -28.75 -23.55 -27.55 L-23.55 -22.1" fill="#000000" fill-opacity="0.6156863" fill-rule="evenodd" stroke="none"/>
    <path d="M5.3 -73.45 Q6.55 -72.75 6.55 -71.75 6.55 -70.75 5.3 -70.0 4.05 -69.3 2.25 -69.3 0.45 -69.3 -0.8 -70.0 -2.05 -70.75 -2.05 -71.75 -2.05 -72.75 -0.8 -73.45 0.45 -74.2 2.25 -74.2 4.05 -74.2 5.3 -73.45" fill="#a38a68" fill-rule="evenodd" stroke="none"/>
  </g>
</svg>
