<?xml version="1.0" encoding="UTF-8" standalone="no"?>
<svg xmlns:ffdec="https://www.free-decompiler.com/flash" xmlns:xlink="http://www.w3.org/1999/xlink" ffdec:objectType="shape" height="83.2px" width="60.45px" xmlns="http://www.w3.org/2000/svg">
  <g transform="matrix(1.0, 0.0, 0.0, 1.0, 29.75, 43.1)">
    <path d="M-5.65 -32.65 Q-4.55 -33.45 -1.65 -34.65 L5.35 -34.65 Q5.9 -34.55 7.5 -33.3 L9.35 -31.65 7.55 -30.5 Q6.6 -30.0 6.1 -30.0 L1.15 -30.75 -5.65 -31.65 -5.65 -32.65" fill="#eff2f5" fill-opacity="0.99607843" fill-rule="evenodd" stroke="none"/>
    <path d="M9.35 -31.65 Q10.2 -31.65 10.8 -30.75 11.35 -29.9 11.35 -28.65 L11.35 -23.4 Q11.3 -20.2 7.55 -17.95 L7.05 -17.65 Q5.15 -16.6 2.9 -16.1 L-1.65 -15.65 -3.9 -16.75 Q-6.05 -17.95 -7.65 -19.65 L-7.65 -21.65 -7.65 -22.65 Q-3.8 -19.5 1.7 -17.5 2.3 -17.5 3.25 -18.4 L8.0 -23.6 8.35 -24.65 Q7.6 -22.85 4.0 -21.25 1.05 -19.95 -0.2 -19.95 -1.4 -19.95 -2.35 -20.6 -3.7 -21.6 -3.65 -23.65 L-0.9 -23.65 -1.1 -21.65 Q-0.8 -21.2 0.15 -21.2 1.05 -21.2 1.8 -22.3 2.65 -23.65 2.2 -25.5 L2.05 -25.75 0.4 -24.1 Q-0.4 -23.25 -0.65 -24.65 L-1.25 -25.7 -2.15 -26.8 Q-3.65 -26.75 -3.65 -25.65 -5.7 -25.4 -7.65 -24.65 L-7.65 -28.65 Q-7.65 -29.9 -7.05 -30.75 -6.5 -31.65 -5.65 -31.65 L1.15 -30.75 6.1 -30.0 Q6.6 -30.0 7.55 -30.5 L9.35 -31.65 M4.75 -26.65 L3.65 -26.35 3.2 -25.75 Q3.2 -25.4 3.65 -25.1 L4.75 -24.85 5.85 -25.1 6.3 -25.75 5.85 -26.35 4.75 -26.65" fill="#e4e3e1" fill-opacity="0.99607843" fill-rule="evenodd" stroke="none"/>
    <path d="M4.75 -26.65 L5.85 -26.35 6.3 -25.75 5.85 -25.1 4.75 -24.85 3.65 -25.1 Q3.2 -25.4 3.2 -25.75 L3.65 -26.35 4.75 -26.65" fill="#a38a68" fill-rule="evenodd" stroke="none"/>
    <path d="M10.35 -18.65 L9.25 -17.65 8.15 -16.65 Q7.25 -15.95 6.35 -15.65 L2.9 -14.8 0.45 -14.25 -1.65 -14.65 -1.65 -15.65 2.9 -16.1 Q5.15 -16.6 7.05 -17.65 L7.55 -17.95 Q11.3 -20.2 11.35 -23.4 L11.35 -21.65 10.35 -18.65" fill="#b7babb" fill-opacity="0.99607843" fill-rule="evenodd" stroke="none"/>
    <path d="M-3.65 -23.65 Q-3.7 -21.6 -2.35 -20.6 -1.4 -19.95 -0.2 -19.95 1.05 -19.95 4.0 -21.25 7.6 -22.85 8.35 -24.65 L8.0 -23.6 3.25 -18.4 Q2.3 -17.5 1.7 -17.5 -3.8 -19.5 -7.65 -22.65 L-7.65 -24.65 Q-5.7 -25.4 -3.65 -25.65 L-3.65 -23.65" fill="#f3f0e4" fill-rule="evenodd" stroke="none"/>
    <path d="M6.35 -15.65 Q6.45 -14.5 6.8 -14.2 7.1 -13.9 8.35 -13.65 L7.85 -12.15 Q7.3 -11.1 6.1 -10.05 L5.4 -9.5 3.35 -7.65 1.95 -9.25 0.35 -7.65 -1.7 -9.25 -2.0 -9.5 -3.65 -10.65 -2.95 -12.4 Q-4.95 -12.4 -7.7 -13.75 -11.85 -15.85 -16.65 -20.65 L-14.65 -20.65 Q-14.25 -20.65 -13.95 -20.95 -13.65 -21.25 -13.65 -21.65 L-12.65 -21.65 -11.35 -21.4 Q-10.1 -22.95 -10.65 -27.65 -9.8 -27.65 -9.2 -28.8 -8.65 -30.0 -8.65 -31.65 L-5.65 -32.65 -5.65 -31.65 Q-6.5 -31.65 -7.05 -30.75 -7.65 -29.9 -7.65 -28.65 L-8.65 -28.65 Q-8.5 -28.65 -7.65 -21.65 L-7.65 -19.65 Q-7.65 -17.6 -5.9 -16.1 -4.15 -14.65 -1.65 -14.65 L0.45 -14.25 2.9 -14.8 6.35 -15.65" fill="#010101" fill-opacity="0.80784315" fill-rule="evenodd" stroke="none"/>
    <path d="M3.35 -7.65 L3.35 -6.65 1.35 -6.65 1.35 -4.65 Q0.05 -4.55 0.15 -3.75 0.3 -2.35 -0.2 -1.65 -0.6 -1.7 -1.65 -2.65 0.3 -4.9 -0.15 -7.65 L0.35 -7.65 1.95 -9.25 3.35 -7.65" fill="#000000" fill-opacity="0.5568628" fill-rule="evenodd" stroke="none"/>
    <path d="M3.35 -6.65 Q3.05 -3.25 2.55 -2.9 L1.35 -4.65 1.35 -6.65 3.35 -6.65" fill="#000000" fill-opacity="0.62352943" fill-rule="evenodd" stroke="none"/>
    <path d="M-0.65 -24.65 Q-0.4 -23.25 0.4 -24.1 L2.05 -25.75 2.2 -25.5 Q2.65 -23.65 1.8 -22.3 1.05 -21.2 0.15 -21.2 -0.8 -21.2 -1.1 -21.65 L-0.9 -23.65 -0.65 -24.65" fill="#f3eee4" fill-rule="evenodd" stroke="none"/>
    <path d="M-23.6 18.15 L-23.55 18.1 Q-18.65 14.05 -10.05 11.8 L-3.3 10.2 Q-1.4 9.6 -1.4 8.3 -1.4 7.8 -1.75 6.85 L-2.15 5.35 Q-2.15 3.4 -1.55 1.9 L-0.7 0.1 0.35 -1.65 2.5 0.1 2.7 0.4 3.25 1.5 1.85 4.1 3.35 14.0 Q3.35 15.2 2.1 17.85 L1.95 18.15 -2.55 18.15 -1.8 16.25 Q-2.0 16.05 -2.95 15.7 L-4.65 15.35 Q-9.5 15.35 -13.5 18.15 L-23.6 18.15" fill="#000000" fill-opacity="0.76862746" fill-rule="evenodd" stroke="none"/>
    <path d="M-16.95 -30.85 Q-16.95 -30.2 -17.2 -29.8 L-17.65 -29.25 -18.0 -29.1 Q-20.55 -31.0 -22.8 -34.0 -25.65 -37.75 -25.65 -40.65 -25.65 -41.15 -24.65 -42.0 -23.4 -43.1 -21.75 -43.1 -18.8 -43.1 -18.95 -40.25 L-19.7 -36.1 -18.3 -34.75 Q-16.95 -33.1 -16.95 -30.85" fill="#000000" fill-opacity="0.7647059" fill-rule="evenodd" stroke="none"/>
    <path d="M-7.65 -22.65 L-7.65 -21.65 Q-8.5 -28.65 -8.65 -28.65 L-7.65 -28.65 -7.65 -24.65 -7.65 -22.65" fill="#aba7a2" fill-opacity="0.99607843" fill-rule="evenodd" stroke="none"/>
    <path d="M-0.65 -24.65 L-0.9 -23.65 -3.65 -23.65 -3.65 -25.65 Q-3.65 -26.75 -2.15 -26.8 L-1.25 -25.7 -0.65 -24.65" fill="#af9b77" fill-rule="evenodd" stroke="none"/>
    <path d="M-7.65 -19.65 Q-6.05 -17.95 -3.9 -16.75 L-1.65 -15.65 -1.65 -14.65 Q-4.15 -14.65 -5.9 -16.1 -7.65 -17.6 -7.65 -19.65" fill="#151312" fill-opacity="0.99215686" fill-rule="evenodd" stroke="none"/>
    <path d="M-14.65 -20.65 L-14.65 -21.15 Q-16.1 -21.15 -17.55 -22.15 -19.8 -23.65 -19.65 -26.65 -17.1 -27.0 -15.3 -24.95 -14.05 -23.5 -13.65 -21.65 -13.65 -21.25 -13.95 -20.95 -14.25 -20.65 -14.65 -20.65" fill="#000000" fill-opacity="0.7882353" fill-rule="evenodd" stroke="none"/>
    <path d="M10.35 -18.65 L10.45 -17.65 10.7 -16.0 Q10.9 -15.4 11.6 -15.4 L11.9 -15.45 12.65 -15.8 Q13.7 -16.25 14.35 -16.65 L14.35 -17.65 13.8 -18.05 13.35 -18.65 14.15 -19.1 15.1 -19.25 15.4 -19.2 18.35 -18.65 18.35 -21.65 19.35 -21.65 Q22.15 -23.2 22.35 -23.65 L22.35 -25.65 24.35 -25.65 Q24.25 -26.55 23.35 -27.65 L24.35 -27.65 Q23.55 -27.9 23.15 -28.6 22.7 -29.35 22.9 -30.15 23.1 -30.95 23.85 -31.35 24.55 -31.8 25.35 -31.65 25.75 -32.85 26.8 -34.4 L27.3 -35.1 28.95 -37.25 30.5 -34.4 30.7 -33.9 30.25 -32.2 29.35 -29.65 29.05 -28.95 Q28.75 -28.65 28.35 -28.65 28.5 -24.0 27.25 -22.05 26.7 -21.25 25.35 -20.65 L24.85 -20.6 Q24.85 -17.85 23.45 -17.85 L22.4 -18.0 21.35 -18.65 21.05 -17.95 Q20.75 -17.65 20.35 -17.65 20.15 -17.2 17.35 -15.65 16.85 -15.3 15.4 -14.85 L12.6 -14.25 11.9 -14.1 8.35 -13.65 Q7.1 -13.9 6.8 -14.2 6.45 -14.5 6.35 -15.65 7.25 -15.95 8.15 -16.65 L9.25 -17.65 10.35 -18.65" fill="#010101" fill-opacity="0.8117647" fill-rule="evenodd" stroke="none"/>
    <path d="M1.95 18.15 Q1.05 20.2 0.1 23.4 L-1.65 30.35 1.35 32.35 5.5 33.6 Q9.3 34.9 9.3 36.0 9.3 38.1 8.3 39.2 7.55 40.1 6.5 40.1 5.65 40.1 2.8 38.5 L-6.65 33.35 -5.55 31.9 Q-5.25 31.5 -5.25 30.9 L-6.15 30.1 Q-7.05 29.2 -7.05 27.85 L-5.4 24.25 -4.95 23.4 -2.55 18.15 1.95 18.15 M-13.5 18.15 L-16.3 20.55 -18.95 23.4 -20.75 25.4 Q-23.65 28.4 -26.65 30.35 L-29.5 30.45 -29.75 29.55 -29.55 28.4 -28.65 28.35 Q-28.8 25.75 -27.75 23.4 -26.55 20.6 -23.6 18.15 L-13.5 18.15" fill="#000000" fill-opacity="0.77254903" fill-rule="evenodd" stroke="none"/>
  </g>
</svg>
