<?xml version="1.0" encoding="UTF-8" standalone="no"?>
<svg xmlns:ffdec="https://www.free-decompiler.com/flash" xmlns:xlink="http://www.w3.org/1999/xlink" ffdec:objectType="shape" height="65.25px" width="50.5px" xmlns="http://www.w3.org/2000/svg">
  <g transform="matrix(1.0, 0.0, 0.0, 1.0, 24.65, 33.65)">
    <path d="M-6.65 -31.65 L-4.8 -32.7 -2.65 -33.65 4.35 -33.65 Q6.8 -33.45 8.35 -30.65 7.25 -28.15 5.85 -28.15 4.7 -28.15 2.15 -28.9 L-6.65 -30.65 -6.65 -31.65" fill="#eef2f6" fill-opacity="0.99607843" fill-rule="evenodd" stroke="none"/>
    <path d="M4.35 -25.65 L2.35 -25.65 1.35 -25.65 1.35 -24.65 Q0.45 -24.55 -0.65 -23.65 L-1.65 -23.65 -1.65 -24.65 0.85 -29.15 Q0.5 -27.8 1.2 -27.4 3.45 -28.75 4.35 -25.65" fill="#eae3d6" fill-rule="evenodd" stroke="none"/>
    <path d="M2.35 -25.65 L4.35 -25.65 5.35 -25.65 Q5.25 -24.65 4.35 -23.65 L3.0 -23.55 2.25 -24.35 2.2 -24.7 2.35 -25.65" fill="#a18867" fill-rule="evenodd" stroke="none"/>
    <path d="M2.35 -25.65 L2.2 -24.7 2.25 -24.35 3.0 -23.55 4.35 -23.65 Q4.35 -23.25 3.8 -22.95 L2.35 -22.65 Q1.95 -22.65 1.65 -23.2 1.35 -23.8 1.35 -24.65 L1.35 -25.65 2.35 -25.65" fill="#d4c7ac" fill-rule="evenodd" stroke="none"/>
    <path d="M5.35 -25.65 L4.35 -25.65 Q3.45 -28.75 1.2 -27.4 0.5 -27.8 0.85 -29.15 L-1.65 -24.65 Q-1.65 -24.9 -2.6 -25.2 L-4.65 -25.65 -4.65 -26.15 Q-5.0 -25.95 -6.7 -25.3 -8.4 -24.7 -8.65 -24.65 L-8.65 -27.65 Q-8.65 -28.9 -8.05 -29.75 -7.5 -30.65 -6.65 -30.65 L2.15 -28.9 Q4.7 -28.15 5.85 -28.15 7.25 -28.15 8.35 -30.65 9.2 -30.65 9.8 -29.75 10.35 -28.9 10.35 -27.65 L10.35 -21.65 8.7 -19.85 Q7.75 -18.6 7.35 -15.65 6.45 -15.55 5.35 -14.65 3.6 -13.95 1.0 -13.95 -2.9 -13.95 -5.6 -15.9 -8.15 -17.75 -8.65 -20.65 L-6.65 -20.65 Q-3.55 -16.55 -0.15 -16.55 0.7 -16.55 6.35 -19.65 L7.7 -20.6 Q8.55 -21.45 8.55 -22.6 8.55 -25.0 5.35 -25.65" fill="#dedee0" fill-opacity="0.99607843" fill-rule="evenodd" stroke="none"/>
    <path d="M10.35 -21.65 L10.35 -18.65 Q9.5 -18.65 8.95 -17.75 8.35 -16.9 8.35 -15.65 L7.35 -15.65 Q7.75 -18.6 8.7 -19.85 L10.35 -21.65" fill="#b5b7b7" fill-opacity="0.99215686" fill-rule="evenodd" stroke="none"/>
    <path d="M4.35 -23.65 Q5.25 -24.65 5.35 -25.65 8.55 -25.0 8.55 -22.6 8.55 -21.45 7.7 -20.6 L6.35 -19.65 6.35 -20.65 Q5.15 -20.7 3.0 -19.55 0.85 -18.35 -0.8 -18.35 -1.8 -18.35 -3.25 -19.05 -5.55 -20.2 -6.65 -22.65 L-6.65 -20.65 -8.65 -20.65 -8.65 -24.65 Q-8.4 -24.7 -6.7 -25.3 -5.0 -25.95 -4.65 -26.15 L-4.65 -25.65 -4.75 -24.35 -4.6 -23.05 -4.1 -22.75 -3.35 -22.7 Q-2.35 -22.7 -1.65 -23.1 L-1.65 -23.65 -0.65 -23.65 Q-0.75 -22.95 -0.45 -21.85 -0.2 -20.75 0.4 -20.35 0.95 -19.95 1.55 -20.5 2.1 -21.05 2.35 -22.65 L3.8 -22.95 Q4.35 -23.25 4.35 -23.65" fill="#eee9df" fill-rule="evenodd" stroke="none"/>
    <path d="M-6.65 -20.65 L-6.65 -22.65 Q-5.55 -20.2 -3.25 -19.05 -1.8 -18.35 -0.8 -18.35 0.85 -18.35 3.0 -19.55 5.15 -20.7 6.35 -20.65 L6.35 -19.65 Q0.7 -16.55 -0.15 -16.55 -3.55 -16.55 -6.65 -20.65" fill="#f6f4eb" fill-rule="evenodd" stroke="none"/>
    <path d="M-0.65 -23.65 Q0.45 -24.55 1.35 -24.65 1.35 -23.8 1.65 -23.2 1.95 -22.65 2.35 -22.65 2.1 -21.05 1.55 -20.5 0.95 -19.95 0.4 -20.35 -0.2 -20.75 -0.45 -21.85 -0.75 -22.95 -0.65 -23.65" fill="#f4f1ea" fill-rule="evenodd" stroke="none"/>
    <path d="M-6.65 -12.65 L-6.95 -13.35 Q-7.25 -13.65 -7.65 -13.65 L-8.65 -14.75 Q-9.35 -15.55 -9.65 -16.65 L-9.65 -19.65 -9.65 -20.65 -8.65 -20.65 Q-8.15 -17.75 -5.6 -15.9 -2.9 -13.95 1.0 -13.95 3.6 -13.95 5.35 -14.65 5.35 -13.4 4.2 -12.5 3.0 -11.65 1.35 -11.65 L-2.85 -10.75 -4.35 -11.25 Q-5.75 -11.9 -6.65 -12.65" fill="#0a0a09" fill-opacity="0.9254902" fill-rule="evenodd" stroke="none"/>
    <path d="M8.35 -15.65 L8.35 -14.65 7.4 -13.6 Q6.7 -12.75 6.35 -11.65 L5.35 -11.65 3.9 -10.75 1.35 -10.65 1.35 -11.65 Q3.0 -11.65 4.2 -12.5 5.35 -13.4 5.35 -14.65 6.45 -15.55 7.35 -15.65 L8.35 -15.65" fill="#040303" fill-opacity="0.5647059" fill-rule="evenodd" stroke="none"/>
    <path d="M6.35 -11.65 Q6.7 -10.45 7.45 -9.85 7.95 -9.45 8.35 -9.45 9.35 -9.45 10.3 -10.2 L10.65 -9.8 10.35 -8.65 Q11.15 -7.1 12.5 -6.9 13.1 -6.9 13.65 -7.25 L14.35 -7.65 15.45 -6.9 16.65 -6.6 Q17.95 -6.6 19.75 -11.3 21.55 -16.0 23.7 -16.0 L24.95 -15.7 25.85 -15.15 Q24.45 -13.5 23.8 -10.75 L23.0 -6.2 Q21.95 -1.2 17.0 -1.2 6.55 -8.45 5.35 -11.65 L6.35 -11.65" fill="#000000" fill-opacity="0.8" fill-rule="evenodd" stroke="none"/>
    <path d="M-1.65 -4.65 Q-1.75 -5.55 -2.65 -6.65 -2.3 -6.7 -2.0 -7.0 L-1.65 -7.65 0.35 -7.65 0.6 -6.0 Q0.6 -5.0 0.3 -4.7 L-1.65 -4.65" fill="#000000" fill-opacity="0.5019608" fill-rule="evenodd" stroke="none"/>
    <path d="M0.35 -7.65 Q2.7 -7.1 2.7 -5.7 2.7 -3.9 1.85 -3.15 1.4 -2.75 0.9 -2.75 -0.55 -2.75 -2.65 -4.65 L-1.65 -4.65 0.3 -4.7 Q0.6 -5.0 0.6 -6.0 L0.35 -7.65" fill="#000000" fill-opacity="0.7490196" fill-rule="evenodd" stroke="none"/>
    <path d="M1.35 -10.65 L-0.65 -10.65 0.35 -7.65 -1.65 -7.65 Q-1.8 -8.9 -2.35 -9.3 L-2.55 -9.4 -3.65 -7.5 Q-4.65 -6.15 -6.25 -6.15 L-7.1 -6.35 -7.8 -6.85 -8.65 -7.65 Q-7.25 -7.8 -6.85 -8.65 -6.45 -9.45 -6.65 -11.65 L-6.65 -12.65 Q-5.75 -11.9 -4.35 -11.25 L-2.85 -10.75 1.35 -11.65 1.35 -10.65" fill="#000000" fill-opacity="0.72156864" fill-rule="evenodd" stroke="none"/>
    <path d="M-1.65 2.35 L-0.65 2.35 Q-0.15 3.75 0.85 4.8 L2.35 6.35 Q2.45 8.15 2.7 9.75 L3.0 11.35 3.35 11.35 4.1 13.75 4.5 15.35 Q4.5 18.2 2.95 21.15 2.95 24.3 7.1 26.4 12.0 28.9 12.25 29.3 L11.85 31.35 9.6 31.6 Q5.95 31.6 1.45 28.7 -2.65 26.1 -2.65 24.8 L-0.65 18.65 -0.9 16.2 -1.65 15.35 Q-2.6 16.25 -6.05 17.8 -9.45 19.3 -11.1 20.95 -10.5 21.85 -8.9 25.3 -7.15 29.1 -7.15 29.85 -7.15 31.25 -9.5 31.2 -11.45 31.2 -14.55 26.75 -17.65 22.3 -17.65 19.35 -17.65 17.0 -15.2 15.8 L-9.85 14.0 Q-2.05 11.4 -2.05 3.15 L-2.0 2.55 -1.65 2.35" fill="#000000" fill-opacity="0.78431374" fill-rule="evenodd" stroke="none"/>
    <path d="M-1.65 2.35 L-1.35 0.95 Q-0.95 -0.55 -2.65 -1.65 -1.65 -1.95 -1.65 -2.1 L0.65 -1.95 0.8 -0.75 0.75 0.3 Q0.95 1.35 2.25 2.4 L-0.65 2.35 -1.65 2.35" fill="#000000" fill-opacity="0.6745098" fill-rule="evenodd" stroke="none"/>
    <path d="M-9.65 -16.65 Q-12.7 -19.4 -11.65 -24.65 L-10.45 -27.45 Q-9.45 -29.4 -9.65 -30.65 L-6.65 -31.65 -6.65 -30.65 Q-7.5 -30.65 -8.05 -29.75 -8.65 -28.9 -8.65 -27.65 L-9.65 -27.65 -9.65 -24.65 -10.65 -24.65 -10.3 -22.2 -10.0 -19.65 -9.65 -19.65 -9.65 -16.65" fill="#050505" fill-opacity="0.78431374" fill-rule="evenodd" stroke="none"/>
    <path d="M-8.65 -27.65 L-8.65 -24.65 -8.65 -20.65 -9.65 -20.65 -9.65 -24.65 -9.65 -27.65 -8.65 -27.65" fill="#a9a49f" fill-opacity="0.99607843" fill-rule="evenodd" stroke="none"/>
    <path d="M-1.65 -24.65 L-1.65 -23.65 -1.65 -23.1 Q-2.35 -22.7 -3.35 -22.7 L-4.1 -22.75 -4.6 -23.05 -4.75 -24.35 -4.65 -25.65 -2.6 -25.2 Q-1.65 -24.9 -1.65 -24.65" fill="#ae9975" fill-rule="evenodd" stroke="none"/>
    <path d="M-21.65 -12.65 L-21.65 -14.65 Q-16.2 -11.15 -15.65 -8.65 L-16.0 -7.85 -16.65 -6.65 Q-17.05 -5.55 -17.65 -5.45 L-20.15 -9.15 Q-18.9 -9.25 -18.3 -10.1 -18.45 -11.05 -21.65 -12.65" fill="#000000" fill-opacity="0.6117647" fill-rule="evenodd" stroke="none"/>
    <path d="M-21.65 -14.65 L-21.65 -12.65 Q-23.35 -12.75 -24.25 -13.55 -24.55 -14.1 -24.65 -14.95 L-24.65 -15.65 Q-22.6 -14.8 -21.65 -14.65 M-16.65 -6.65 L-16.0 -7.85 -15.65 -8.65 Q-14.2 -8.95 -11.35 -7.8 -8.25 -6.55 -8.25 -5.15 -8.4 -3.05 -10.2 -2.15 L-16.65 -6.65" fill="#000000" fill-opacity="0.7607843" fill-rule="evenodd" stroke="none"/>
    <path d="M-9.65 -20.65 L-9.65 -19.65 -10.0 -19.65 -10.3 -22.2 -10.65 -24.65 -9.65 -24.65 -9.65 -20.65" fill="#000000" fill-opacity="0.9607843" fill-rule="evenodd" stroke="none"/>
  </g>
</svg>
