<?xml version="1.0" encoding="UTF-8" standalone="no"?>
<svg xmlns:ffdec="https://www.free-decompiler.com/flash" xmlns:xlink="http://www.w3.org/1999/xlink" ffdec:objectType="shape" height="53.3px" width="36.4px" xmlns="http://www.w3.org/2000/svg">
  <g transform="matrix(1.0, 0.0, 0.0, 1.0, 14.05, 20.65)">
    <path d="M4.35 -12.65 Q3.45 -15.75 1.2 -14.4 0.5 -14.8 0.85 -16.15 L-1.65 -11.65 Q-1.65 -11.9 -2.6 -12.2 L-4.65 -12.65 -4.65 -13.15 Q-5.0 -12.95 -6.7 -12.3 -8.4 -11.7 -8.65 -11.65 L-8.65 -14.65 Q-8.65 -15.9 -8.05 -16.75 -7.5 -17.65 -6.65 -17.65 L2.15 -15.9 Q4.7 -15.15 5.85 -15.15 7.25 -15.15 8.35 -17.65 9.2 -17.65 9.8 -16.75 10.35 -15.9 10.35 -14.65 L10.35 -8.65 8.65 -6.9 Q7.75 -5.65 7.35 -2.65 6.45 -2.55 5.35 -1.65 L0.6 -0.65 Q-3.65 -0.85 -5.65 -2.65 L-7.05 -4.45 -8.65 -5.65 -8.65 -7.65 -6.65 -7.65 Q-4.65 -5.0 -2.65 -4.05 -1.55 -3.55 -0.15 -3.55 0.7 -3.55 6.35 -6.65 L7.7 -7.6 Q8.55 -8.4 8.55 -9.6 8.55 -12.05 5.35 -12.65 L4.35 -12.65" fill="#dedee0" fill-opacity="0.99607843" fill-rule="evenodd" stroke="none"/>
    <path d="M8.35 -17.65 Q7.25 -15.15 5.85 -15.15 4.7 -15.15 2.15 -15.9 L-6.65 -17.65 -6.65 -18.65 -4.8 -19.7 -2.65 -20.65 4.35 -20.65 Q6.8 -20.45 8.35 -17.65" fill="#eef2f6" fill-opacity="0.99607843" fill-rule="evenodd" stroke="none"/>
    <path d="M-1.65 -11.65 L0.85 -16.15 Q0.5 -14.8 1.2 -14.4 3.45 -15.75 4.35 -12.65 L2.35 -12.65 1.35 -12.65 1.35 -11.65 Q0.45 -11.55 -0.65 -10.65 L-1.65 -10.65 -1.65 -11.65" fill="#eae3d6" fill-rule="evenodd" stroke="none"/>
    <path d="M2.35 -12.65 L4.35 -12.65 5.35 -12.65 Q5.25 -11.65 4.35 -10.65 L3.0 -10.55 2.25 -11.35 2.2 -11.7 2.35 -12.65" fill="#a18867" fill-rule="evenodd" stroke="none"/>
    <path d="M1.35 -11.65 L1.35 -12.65 2.35 -12.65 2.2 -11.7 2.25 -11.35 3.0 -10.55 4.35 -10.65 Q4.35 -10.25 3.8 -9.95 L2.35 -9.65 Q1.95 -9.65 1.65 -10.2 1.35 -10.8 1.35 -11.65" fill="#d4c7ac" fill-rule="evenodd" stroke="none"/>
    <path d="M-1.65 -10.65 L-0.65 -10.65 Q-0.75 -9.95 -0.45 -8.85 -0.2 -7.75 0.4 -7.35 0.95 -6.95 1.55 -7.5 2.1 -8.05 2.35 -9.65 L3.8 -9.95 Q4.35 -10.25 4.35 -10.65 5.25 -11.65 5.35 -12.65 8.55 -12.05 8.55 -9.6 8.55 -8.4 7.7 -7.6 L6.35 -6.65 6.35 -7.65 Q5.15 -7.65 3.0 -6.5 0.85 -5.35 -0.8 -5.35 -1.85 -5.35 -3.25 -6.05 -5.55 -7.2 -6.65 -9.65 L-6.65 -7.65 -8.65 -7.65 -8.65 -11.65 Q-8.4 -11.7 -6.7 -12.3 -5.0 -12.95 -4.65 -13.15 L-4.65 -12.65 -4.75 -11.35 -4.6 -10.05 -4.1 -9.75 -3.35 -9.7 Q-2.35 -9.7 -1.65 -10.1 L-1.65 -10.65" fill="#eee9df" fill-rule="evenodd" stroke="none"/>
    <path d="M6.35 -6.65 Q0.7 -3.55 -0.15 -3.55 -1.55 -3.55 -2.65 -4.05 -4.65 -5.0 -6.65 -7.65 L-6.65 -9.65 Q-5.55 -7.2 -3.25 -6.05 -1.85 -5.35 -0.8 -5.35 0.85 -5.35 3.0 -6.5 5.15 -7.65 6.35 -7.65 L6.35 -6.65" fill="#f6f4eb" fill-rule="evenodd" stroke="none"/>
    <path d="M-0.65 -10.65 Q0.45 -11.55 1.35 -11.65 1.35 -10.8 1.65 -10.2 1.95 -9.65 2.35 -9.65 2.1 -8.05 1.55 -7.5 0.95 -6.95 0.4 -7.35 -0.2 -7.75 -0.45 -8.85 -0.75 -9.95 -0.65 -10.65" fill="#f4f1ea" fill-rule="evenodd" stroke="none"/>
    <path d="M7.35 -2.65 Q7.75 -5.65 8.65 -6.9 L10.35 -8.65 10.35 -5.65 Q9.5 -5.65 8.95 -4.75 8.35 -3.9 8.35 -2.65 L7.35 -2.65" fill="#b5b7b7" fill-opacity="0.99215686" fill-rule="evenodd" stroke="none"/>
    <path d="M-8.65 -7.65 L-8.65 -5.65 Q-8.65 -4.4 -7.75 -3.5 -6.9 -2.65 -5.65 -2.65 -3.65 -0.85 0.6 -0.65 L5.35 -1.65 Q5.25 -0.65 4.35 0.35 L4.6 1.1 5.35 1.35 5.0 2.0 4.35 2.35 Q5.45 3.25 6.35 3.35 6.35 4.2 7.25 4.8 8.1 5.35 9.35 5.35 10.8 7.25 12.55 7.15 13.9 7.15 14.5 5.7 15.3 3.9 16.35 3.35 17.1 4.75 17.7 5.2 L19.35 6.35 Q18.7 6.4 17.85 6.85 L18.85 8.1 19.45 9.0 Q19.45 9.8 18.45 10.3 17.5 10.8 16.0 10.8 9.6 10.8 6.85 8.85 3.65 5.75 0.35 3.35 -1.7 3.0 -4.85 1.45 -8.45 -0.3 -9.65 -0.65 L-9.65 1.35 -10.65 1.35 -11.7 -0.1 Q-12.55 -1.4 -12.65 -2.65 L-11.65 -2.65 -10.4 -2.35 -10.1 -2.45 -10.95 -4.55 Q-11.85 -6.8 -11.85 -8.9 L-11.65 -11.65 Q-11.65 -13.1 -10.8 -14.8 -9.8 -16.85 -9.65 -17.65 L-6.65 -18.65 -6.65 -17.65 Q-7.5 -17.65 -8.05 -16.75 -8.65 -15.9 -8.65 -14.65 L-9.65 -14.65 -9.5 -7.7 -8.65 -7.65" fill="#020202" fill-opacity="0.81960785" fill-rule="evenodd" stroke="none"/>
    <path d="M5.35 -1.65 Q6.45 -2.55 7.35 -2.65 L8.35 -2.65 8.35 -1.65 6.95 0.1 5.35 1.35 4.6 1.1 4.35 0.35 Q5.25 -0.65 5.35 -1.65" fill="#060504" fill-opacity="0.5647059" fill-rule="evenodd" stroke="none"/>
    <path d="M16.35 3.35 Q16.25 2.45 15.35 1.35 16.95 1.7 17.25 0.55 17.5 -0.5 16.85 -1.65 L17.35 -1.65 Q18.6 -1.65 19.5 -0.45 20.35 0.7 20.35 2.35 L20.65 4.85 Q20.65 5.5 19.35 6.35 L17.7 5.2 Q17.1 4.75 16.35 3.35" fill="#000000" fill-opacity="0.58431375" fill-rule="evenodd" stroke="none"/>
    <path d="M17.35 -1.65 L17.35 -2.65 Q21.1 -3.55 21.1 0.55 L20.85 2.35 20.35 2.35 Q20.35 0.7 19.5 -0.45 18.6 -1.65 17.35 -1.65 M0.35 4.35 Q0.65 5.55 0.4 6.05 -1.3 6.05 -3.85 8.1 L-6.5 10.15 Q-7.85 10.15 -9.65 7.35 -8.4 7.5 -8.4 6.25 L-8.5 5.3 -8.65 4.35 -3.65 5.35 Q-1.8 4.35 0.35 4.35" fill="#000000" fill-opacity="0.78431374" fill-rule="evenodd" stroke="none"/>
    <path d="M6.35 3.35 L6.35 2.35 Q8.0 2.35 9.1 3.55 9.95 4.5 9.85 5.35 L9.35 5.35 Q8.1 5.35 7.25 4.8 6.35 4.2 6.35 3.35" fill="#000000" fill-opacity="0.5176471" fill-rule="evenodd" stroke="none"/>
    <path d="M0.35 3.35 L0.35 4.35 Q-1.8 4.35 -3.65 5.35 -4.2 4.55 -5.5 3.7 -7.0 2.75 -8.65 2.35 L-9.35 2.05 -9.65 1.35 -9.65 -0.65 Q-8.45 -0.3 -4.85 1.45 -1.7 3.0 0.35 3.35" fill="#000000" fill-opacity="0.30980393" fill-rule="evenodd" stroke="none"/>
    <path d="M6.85 10.65 Q12.75 16.15 12.75 18.7 12.75 20.3 11.5 23.2 L10.25 26.15 Q12.2 27.7 16.45 27.7 19.15 27.75 20.35 26.35 L21.35 27.35 Q22.35 28.5 22.35 29.4 22.35 31.0 20.6 31.8 L18.85 32.3 13.8 30.95 10.6 31.8 5.55 32.65 Q0.45 32.65 -0.95 30.5 -1.85 27.4 -2.65 25.35 L-1.15 25.6 Q-0.25 25.6 0.35 25.15 1.0 24.6 1.35 24.35 3.75 23.4 4.05 22.5 4.3 22.2 3.8 21.85 3.1 21.35 1.35 21.35 L1.35 22.35 Q-5.2 21.8 -6.8 20.85 -8.45 19.9 -6.9 18.95 -5.4 17.95 -1.55 17.55 L3.35 17.35 Q4.8 19.1 5.5 19.3 L5.6 18.85 Q5.45 18.85 5.35 17.35 L7.85 16.85 6.6 15.35 6.25 14.6 Q6.25 14.1 6.7 13.55 L7.15 12.5 6.9 11.9 Q6.45 11.4 5.5 11.35 L5.8 11.0 Q6.25 10.65 6.85 10.65" fill="#000000" fill-opacity="0.8" fill-rule="evenodd" stroke="none"/>
    <path d="M-8.65 -14.65 L-8.65 -11.65 -8.65 -7.65 -9.5 -7.7 -9.65 -14.65 -8.65 -14.65" fill="#a9a49f" fill-opacity="0.99607843" fill-rule="evenodd" stroke="none"/>
    <path d="M-1.65 -11.65 L-1.65 -10.65 -1.65 -10.1 Q-2.35 -9.7 -3.35 -9.7 L-4.1 -9.75 -4.6 -10.05 -4.75 -11.35 -4.65 -12.65 -2.6 -12.2 Q-1.65 -11.9 -1.65 -11.65" fill="#ae9975" fill-rule="evenodd" stroke="none"/>
    <path d="M-8.65 -5.65 L-7.05 -4.45 -5.65 -2.65 Q-6.9 -2.65 -7.75 -3.5 -8.65 -4.4 -8.65 -5.65" fill="#1e1e1d" fill-opacity="0.99607843" fill-rule="evenodd" stroke="none"/>
    <path d="M-8.65 4.35 L-8.65 2.35 Q-7.0 2.75 -5.5 3.7 -4.2 4.55 -3.65 5.35 L-8.65 4.35" fill="#000000" fill-opacity="0.05490196" fill-rule="evenodd" stroke="none"/>
    <path d="M-8.65 4.35 L-9.6 5.35 -10.5 6.2 -11.1 5.15 Q-11.6 3.8 -11.65 1.35 L-10.65 1.35 -9.65 1.35 -9.35 2.05 -8.65 2.35 -8.65 4.35" fill="#000000" fill-opacity="0.654902" fill-rule="evenodd" stroke="none"/>
    <path d="M-14.05 20.05 L-14.05 16.05 -10.1 16.05 -10.1 20.05 -14.05 20.05" fill="#000000" fill-opacity="0.8509804" fill-rule="evenodd" stroke="none"/>
    <path d="M-8.65 25.35 Q-10.8 24.85 -10.8 23.85 L-10.65 22.35 -9.15 23.6 -8.35 23.95 -7.25 23.7 -6.65 23.35 Q-6.2 24.2 -6.15 25.3 L-6.25 26.35 -6.65 26.35 Q-6.65 25.95 -7.2 25.65 -7.8 25.35 -8.65 25.35" fill="#000000" fill-opacity="0.8117647" fill-rule="evenodd" stroke="none"/>
    <path d="M-6.55 15.55 Q-6.05 15.95 -6.05 16.5 -6.05 17.05 -6.55 17.45 -7.1 17.85 -7.85 17.85 -8.6 17.85 -9.1 17.45 -9.65 17.05 -9.65 16.5 -9.65 15.95 -9.1 15.55 -8.6 15.15 -7.85 15.15 -7.1 15.15 -6.55 15.55" fill="#000000" fill-opacity="0.6313726" fill-rule="evenodd" stroke="none"/>
    <path d="M-6.65 26.35 L-5.75 27.2 Q-5.15 27.9 -5.15 28.8 -5.15 29.8 -5.25 29.35 L-5.65 29.35 -6.65 28.95 -8.1 28.6 -8.95 28.8 -9.65 29.35 -10.4 29.3 -10.65 28.35 Q-10.25 28.2 -9.55 27.05 L-8.65 25.35 Q-7.8 25.35 -7.2 25.65 -6.65 25.95 -6.65 26.35" fill="#000000" fill-opacity="0.74509805" fill-rule="evenodd" stroke="none"/>
  </g>
</svg>
