<?xml version="1.0" encoding="UTF-8" standalone="no"?>
<svg xmlns:ffdec="https://www.free-decompiler.com/flash" xmlns:xlink="http://www.w3.org/1999/xlink" ffdec:objectType="shape" height="187.15px" width="598.65px" xmlns="http://www.w3.org/2000/svg">
  <g transform="matrix(1.0, 0.0, 0.0, 1.0, 643.05, 9.45)">
    <path d="M-635.05 169.7 L-609.2 118.55 -556.0 42.55" fill="none" stroke="#000000" stroke-linecap="round" stroke-linejoin="round" stroke-width="16.0"/>
    <path d="M-266.6 -4.75 L-266.55 -5.75 Q-266.25 -6.35 -264.6 -6.35 -258.25 -6.35 -253.25 -0.3 -249.35 4.45 -249.35 6.8 -249.35 8.55 -250.35 8.55 -253.0 8.55 -256.1 1.55 -257.7 -5.05 -260.35 -5.05 -261.15 -5.05 -261.8 -3.25 -262.45 -1.45 -263.45 -1.45 -264.8 -1.45 -265.85 -3.1 L-266.6 -4.75 M-182.0 -5.95 Q-182.4 -5.95 -183.85 -7.1 -185.55 -7.75 -185.75 -7.95 -185.5 -8.2 -185.4 -8.9 -185.1 -9.45 -183.95 -9.4 L-183.35 -9.45 Q-180.9 -9.45 -181.1 -7.2 -181.1 -5.95 -182.0 -5.95 M-161.35 22.5 Q-161.35 22.0 -160.6 22.0 -158.9 22.0 -158.9 23.55 -158.9 24.75 -161.4 24.75 L-162.3 24.35 Q-162.3 24.0 -161.5 23.95 -160.7 23.85 -160.7 23.55 -161.35 23.05 -161.35 22.5 M-157.15 25.8 Q-155.7 25.8 -155.7 27.4 -155.7 29.85 -157.55 29.85 -158.3 29.85 -158.3 29.4 -158.3 29.0 -157.3 28.95 -156.3 28.85 -156.3 28.45 -157.6 27.15 -157.6 26.5 -157.6 25.8 -157.15 25.8 M-158.05 86.15 L-157.7 85.95 Q-156.85 85.95 -156.85 87.2 -156.85 87.9 -154.95 88.2 -154.5 88.45 -154.4 89.45 L-153.05 90.6 Q-153.05 91.15 -153.9 91.15 -154.8 91.15 -155.25 90.3 -156.15 91.15 -157.15 91.15 -157.85 91.15 -158.05 90.6 L-158.15 90.05 Q-157.55 89.15 -157.55 88.65 -158.15 87.6 -158.15 87.1 L-157.85 86.5 -158.05 86.15 M-148.35 92.0 L-148.6 91.15 Q-148.6 90.55 -147.8 90.55 -147.15 90.55 -147.15 90.9 -147.15 91.4 -147.7 91.6 L-147.15 92.5 -145.9 92.25 Q-144.95 92.25 -144.95 93.2 -144.95 93.75 -145.6 93.75 -146.25 93.35 -146.85 93.35 -147.35 93.85 -147.8 93.85 L-148.65 93.35 -148.85 92.8 Q-148.35 92.5 -148.35 92.0 M-142.2 95.05 Q-141.9 95.05 -141.75 95.75 -141.75 96.3 -142.35 96.55 -142.35 97.65 -141.4 98.45 -141.4 99.0 -142.05 99.0 L-142.6 98.95 -143.15 98.1 -142.9 97.25 Q-142.9 96.8 -143.35 96.55 L-143.85 96.0 Q-143.85 95.25 -143.2 95.25 L-142.9 95.45 -142.2 95.05 M-93.4 138.4 Q-93.4 137.4 -91.5 136.25 -89.6 135.1 -88.0 135.1 -86.5 135.1 -86.65 136.15 -86.65 136.7 -88.75 137.85 -91.05 139.1 -92.65 139.1 L-93.15 139.0 -93.4 138.4 M-83.25 136.25 L-82.75 136.1 Q-82.55 136.1 -81.75 136.75 L-77.75 137.35 Q-76.65 137.5 -76.65 138.9 -76.65 140.35 -78.75 140.35 -80.9 140.35 -82.35 138.75 -83.4 137.55 -83.4 136.7 L-83.25 136.25 M-44.4 135.55 Q-44.4 136.15 -46.0 136.75 -48.05 137.5 -51.25 137.5 L-55.05 137.25 Q-55.0 136.8 -55.65 136.25 L-55.65 135.65 -54.9 135.5 -51.4 136.15 Q-45.85 136.15 -45.25 135.0 L-44.5 135.15 -44.4 135.55 M-171.0 11.85 Q-170.5 11.85 -169.7 12.45 -169.7 12.55 -170.35 12.85 -171.35 12.85 -171.35 12.05 -171.35 11.85 -171.0 11.85 M-164.3 18.45 L-164.0 19.8 Q-164.0 20.75 -165.1 21.65 -166.15 23.15 -167.2 23.15 -167.8 23.15 -168.6 22.5 L-169.35 21.7 Q-169.35 21.35 -167.95 20.6 L-166.25 19.8 Q-165.7 19.6 -165.25 18.35 -164.85 17.2 -164.4 17.2 -163.9 17.2 -163.9 17.55 L-164.3 18.45 M-168.85 16.9 Q-167.95 16.9 -167.95 19.15 -167.95 21.15 -169.85 21.15 -171.0 21.15 -171.0 19.75 -171.0 19.05 -170.2 18.0 -169.4 16.9 -168.85 16.9 M-206.7 53.55 L-206.2 55.75 Q-206.2 56.7 -207.15 56.7 -208.3 56.7 -208.1 53.9 -208.1 52.8 -209.4 52.25 -210.75 51.75 -210.75 51.35 -210.75 50.9 -209.5 50.25 -208.2 49.55 -207.0 49.55 -205.1 49.55 -205.1 50.7 L-205.9 51.85 Q-206.7 52.8 -206.7 53.55 M-213.6 52.6 Q-213.6 53.95 -214.5 53.95 L-214.85 53.85 -214.85 53.1 Q-214.5 52.75 -214.5 52.2 -216.25 51.1 -216.1 50.45 L-215.65 50.3 Q-214.15 50.3 -213.6 52.6 M-198.45 61.95 Q-198.45 62.95 -199.2 62.95 -199.85 62.95 -200.1 62.15 L-200.25 61.35 -199.85 59.6 Q-199.85 59.3 -199.5 59.3 -198.5 59.3 -198.45 61.95 M-169.95 81.5 L-169.3 80.75 Q-168.6 80.25 -168.05 80.25 -166.85 80.25 -166.65 81.3 -166.65 82.15 -167.75 82.15 L-169.8 81.85 -169.95 81.5 M-163.75 85.95 Q-163.75 85.35 -162.8 85.35 -161.95 85.35 -161.95 86.05 -161.95 86.75 -162.65 86.75 -162.9 86.75 -163.35 86.4 L-163.75 85.95 M-165.2 83.05 Q-164.1 83.65 -163.85 84.25 L-163.85 84.7 -167.05 85.45 Q-168.25 85.45 -168.25 84.5 -168.25 82.55 -166.8 82.55 L-165.2 83.05 M-176.35 78.85 Q-176.35 78.15 -175.35 78.15 -174.45 78.15 -174.45 79.0 -174.45 79.55 -175.25 79.55 -176.35 79.55 -176.35 78.85 M-173.45 78.95 L-173.2 79.0 -173.15 79.2 -173.5 79.85 -174.05 79.35 Q-174.05 78.85 -173.45 78.95" fill="#540101" fill-rule="evenodd" stroke="none"/>
  </g>
</svg>
