<?xml version="1.0" encoding="UTF-8" standalone="no"?>
<svg xmlns:ffdec="https://www.free-decompiler.com/flash" xmlns:xlink="http://www.w3.org/1999/xlink" ffdec:objectType="shape" height="36.35px" width="51.0px" xmlns="http://www.w3.org/2000/svg">
  <g transform="matrix(1.0, 0.0, 0.0, 1.0, 18.65, 3.65)">
    <path d="M-6.65 -1.65 Q-5.55 -2.45 -2.65 -3.65 L4.35 -3.65 6.5 -2.3 8.35 -0.65 Q7.8 1.85 5.55 1.85 L-6.65 -0.65 -6.65 -1.65" fill="#eef2f6" fill-opacity="0.99607843" fill-rule="evenodd" stroke="none"/>
    <path d="M17.35 18.35 L17.35 17.35 18.35 17.35 Q19.2 19.2 19.4 19.25 L19.65 19.2 Q19.8 16.55 18.35 13.35 17.45 12.7 15.95 9.95 14.5 7.4 14.35 6.35 17.8 6.35 19.0 7.55 L17.6 9.35 Q23.4 13.25 23.4 18.0 23.4 18.7 22.25 20.6 L20.35 23.35 17.65 22.7 Q15.95 22.05 15.35 21.35 16.9 21.35 17.35 20.45 L17.55 19.45 17.35 18.35" fill="#000000" fill-opacity="0.84313726" fill-rule="evenodd" stroke="none"/>
    <path d="M30.35 15.35 L30.85 16.85 28.05 17.35 Q27.9 17.35 27.1 16.8 L25.35 15.35 27.35 13.35 Q28.7 15.15 29.25 15.15 29.85 15.15 29.85 14.8 L29.85 13.85 30.35 15.35" fill="#000000" fill-opacity="0.6392157" fill-rule="evenodd" stroke="none"/>
    <path d="M27.35 13.35 L27.85 12.7 Q28.5 12.0 29.1 12.0 30.05 12.0 30.9 12.55 32.2 13.45 32.35 15.35 L30.35 15.35 29.85 13.85 29.85 14.8 Q29.85 15.15 29.25 15.15 28.7 15.15 27.35 13.35" fill="#000000" fill-opacity="0.827451" fill-rule="evenodd" stroke="none"/>
    <path d="M8.35 -0.65 Q9.2 -0.65 9.8 0.25 10.35 1.1 10.35 2.35 L10.35 8.35 Q7.7 12.55 7.35 14.35 L5.7 15.65 4.35 15.35 4.35 16.35 Q-1.05 16.35 -4.85 14.3 -8.65 12.25 -8.65 9.35 L-6.65 9.35 Q-3.85 12.65 0.0 13.45 L2.4 12.4 6.35 10.35 8.1 8.95 Q8.55 8.35 8.55 7.4 8.55 5.5 5.35 4.35 L4.35 4.35 Q3.55 2.7 2.4 2.25 L0.8 2.0 0.85 0.85 -1.65 5.35 Q-2.0 4.95 -4.65 4.35 L-6.4 4.65 -8.65 5.35 -8.65 2.35 Q-8.65 1.1 -8.05 0.25 -7.5 -0.65 -6.65 -0.65 L5.55 1.85 Q7.8 1.85 8.35 -0.65" fill="#dedee0" fill-opacity="0.99607843" fill-rule="evenodd" stroke="none"/>
    <path d="M10.35 8.35 L10.35 11.35 Q9.5 11.35 8.95 12.25 8.35 13.1 8.35 14.35 L7.35 14.35 Q7.7 12.55 10.35 8.35" fill="#b5b7b7" fill-opacity="0.99215686" fill-rule="evenodd" stroke="none"/>
    <path d="M4.35 4.35 L5.35 4.35 Q5.05 5.35 4.35 6.35 2.5 6.25 2.25 5.65 L2.35 4.35 4.35 4.35" fill="#a18867" fill-rule="evenodd" stroke="none"/>
    <path d="M-4.65 4.35 L-4.75 5.65 -4.6 6.95 -4.35 7.2 -3.6 7.3 -1.65 7.2 -1.65 6.35 -0.65 6.35 Q-0.75 7.1 -0.45 8.4 -0.2 9.65 0.4 10.1 0.95 10.55 1.55 9.95 2.1 9.3 2.35 7.35 L3.8 7.05 4.35 6.35 Q5.05 5.35 5.35 4.35 8.55 5.5 8.55 7.4 8.55 8.35 8.1 8.95 L6.35 10.35 6.35 9.35 Q5.25 9.5 2.25 10.6 L-1.05 11.65 -3.2 10.6 Q-5.55 9.2 -6.65 7.35 L-6.65 9.35 -8.65 9.35 -8.65 5.35 -6.4 4.65 -4.65 4.35" fill="#eee9df" fill-rule="evenodd" stroke="none"/>
    <path d="M-1.65 6.35 L-1.65 5.35 0.85 0.85 0.8 2.0 2.4 2.25 Q3.55 2.7 4.35 4.35 L2.35 4.35 1.35 4.35 1.35 5.35 -0.65 6.35 -1.65 6.35" fill="#eae3d6" fill-rule="evenodd" stroke="none"/>
    <path d="M2.35 7.35 Q1.95 7.35 1.65 6.8 1.35 6.2 1.35 5.35 L1.35 4.35 2.35 4.35 2.25 5.65 Q2.5 6.25 4.35 6.35 L3.8 7.05 2.35 7.35" fill="#d4c7ac" fill-rule="evenodd" stroke="none"/>
    <path d="M2.35 7.35 Q2.1 9.3 1.55 9.95 0.95 10.55 0.4 10.1 -0.2 9.65 -0.45 8.4 -0.75 7.1 -0.65 6.35 L1.35 5.35 Q1.35 6.2 1.65 6.8 1.95 7.35 2.35 7.35" fill="#f4f1ea" fill-rule="evenodd" stroke="none"/>
    <path d="M6.35 10.35 L2.4 12.4 0.0 13.45 Q-3.85 12.65 -6.65 9.35 L-6.65 7.35 Q-5.55 9.2 -3.2 10.6 L-1.05 11.65 2.25 10.6 Q5.25 9.5 6.35 9.35 L6.35 10.35" fill="#f6f4eb" fill-rule="evenodd" stroke="none"/>
    <path d="M8.35 14.35 L8.35 15.35 7.95 15.95 7.35 16.35 17.35 18.35 17.55 19.45 17.35 20.45 Q16.9 21.35 15.35 21.35 15.95 22.05 17.65 22.7 L20.35 23.35 Q18.75 25.95 16.45 25.95 11.3 25.95 8.95 22.95 L9.15 23.05 Q10.85 23.8 12.1 23.35 L11.85 19.85 11.2 21.0 9.5 21.35 Q8.4 21.35 7.55 20.6 6.7 19.75 6.35 18.35 6.3 16.7 5.8 16.45 L4.35 16.35 4.35 15.35 5.7 15.65 7.35 14.35 8.35 14.35" fill="#010101" fill-opacity="0.76862746" fill-rule="evenodd" stroke="none"/>
    <path d="M6.35 18.35 L3.35 19.35 -4.65 19.35 Q-5.55 19.25 -6.65 18.35 L-6.65 17.35 Q-2.15 18.35 0.2 18.35 L2.15 17.9 Q3.75 17.25 4.35 16.35 L5.8 16.45 Q6.3 16.7 6.35 18.35" fill="#000000" fill-opacity="0.5686275" fill-rule="evenodd" stroke="none"/>
    <path d="M-8.65 9.35 Q-8.65 12.25 -4.85 14.3 -1.05 16.35 4.35 16.35 3.75 17.25 2.15 17.9 L0.2 18.35 Q-2.15 18.35 -6.65 17.35 -6.65 16.95 -6.95 16.65 -7.25 16.35 -7.65 16.35 L-9.65 13.35 -9.65 10.35 -9.65 9.35 -8.65 9.35" fill="#0a0a0a" fill-opacity="0.9372549" fill-rule="evenodd" stroke="none"/>
    <path d="M3.35 19.35 L3.6 19.65 1.75 20.2 -0.3 20.45 -4.65 19.35 3.35 19.35" fill="#000000" fill-opacity="0.24313726" fill-rule="evenodd" stroke="none"/>
    <path d="M-3.65 23.35 L-3.65 22.35 1.35 22.35 1.35 23.35 0.6 24.35 -0.75 24.6 -1.75 24.25 -3.65 23.35" fill="#000000" fill-opacity="0.5254902" fill-rule="evenodd" stroke="none"/>
    <path d="M-6.65 25.35 L-9.1 25.4 Q-9.3 24.65 -9.65 24.35 L-7.7 24.2 -7.7 23.6 Q-7.75 23.05 -8.15 22.35 L-7.65 22.35 -5.55 22.7 -3.65 23.35 -1.75 24.25 -0.75 24.6 0.6 24.35 1.35 23.35 Q2.45 24.25 3.35 24.35 L3.35 25.35 2.35 25.35 2.35 26.35 Q0.1 27.15 -2.65 27.35 L-2.65 26.35 -4.55 24.85 -6.65 23.35 -6.65 25.35 M24.35 25.35 L24.6 24.8 Q25.1 24.2 26.35 24.05 L26.95 24.6 27.4 25.15 Q26.7 27.25 25.35 28.35 25.9 26.35 25.4 25.9 L24.35 25.35" fill="#000000" fill-opacity="0.8235294" fill-rule="evenodd" stroke="none"/>
    <path d="M3.35 24.35 L3.35 21.35 4.55 22.85 4.95 23.7 Q4.95 24.7 3.35 25.35 L3.35 24.35" fill="#000000" fill-opacity="0.7607843" fill-rule="evenodd" stroke="none"/>
    <path d="M9.35 29.35 L9.35 28.35 11.2 28.2 12.35 27.85 12.35 28.35 12.35 30.35 11.35 30.35 Q10.45 30.25 9.35 29.35" fill="#000000" fill-opacity="0.3372549" fill-rule="evenodd" stroke="none"/>
    <path d="M2.35 26.35 Q4.5 26.2 5.85 26.8 7.15 27.35 9.35 29.35 10.45 30.25 11.35 30.35 12.55 30.65 12.85 31.05 13.1 31.45 12.75 31.8 12.35 32.15 11.55 32.3 L10.35 32.35 7.4 32.35 Q6.7 32.25 5.35 31.35 L5.35 30.85 1.7 30.25 Q-0.95 29.85 -1.75 30.55 -1.35 31.45 -0.7 31.55 L1.35 31.35 Q-0.1 32.7 -0.75 32.7 -2.5 31.8 -3.65 30.35 L-3.2 29.3 -2.65 28.35 -0.15 27.75 Q1.7 27.15 2.35 26.35" fill="#000000" fill-opacity="0.8117647" fill-rule="evenodd" stroke="none"/>
    <path d="M12.35 28.35 Q13.55 28.35 14.85 28.9 L16.7 30.2 16.5 31.45 13.35 31.35 13.05 30.65 Q12.75 30.35 12.35 30.35 L12.35 28.35" fill="#000000" fill-opacity="0.5294118" fill-rule="evenodd" stroke="none"/>
    <path d="M9.85 27.1 L7.25 27.1 7.25 25.6 9.85 25.6 9.85 27.1" fill="#000000" fill-opacity="0.69803923" fill-rule="evenodd" stroke="none"/>
    <path d="M-6.65 18.35 Q-7.9 18.35 -8.75 17.8 -9.65 17.2 -9.65 16.35 L-7.65 16.35 Q-7.25 16.35 -6.95 16.65 -6.65 16.95 -6.65 17.35 L-6.65 18.35" fill="#000000" fill-opacity="0.42352942" fill-rule="evenodd" stroke="none"/>
    <path d="M24.35 28.35 L25.85 29.9 24.15 31.1 23.7 31.35 Q23.2 31.35 21.35 29.35 L21.65 29.5 22.7 29.65 24.35 28.35" fill="#000000" fill-opacity="0.69411767" fill-rule="evenodd" stroke="none"/>
    <path d="M25.35 28.35 L24.35 28.35 22.7 29.65 21.65 29.5 21.35 29.35 20.5 28.85 19.35 27.35 Q21.3 27.7 22.5 27.0 L24.35 25.35 25.4 25.9 Q25.9 26.35 25.35 28.35" fill="#000000" fill-opacity="0.4392157" fill-rule="evenodd" stroke="none"/>
    <path d="M-9.65 -0.65 L-6.65 -1.65 -6.65 -0.65 Q-7.5 -0.65 -8.05 0.25 -8.65 1.1 -8.65 2.35 L-9.65 2.35 -9.65 5.35 -10.65 5.35 Q-10.35 6.95 -10.0 10.35 L-9.65 10.35 -9.65 13.35 Q-11.9 11.45 -11.9 7.85 L-11.65 5.35 -10.55 2.45 Q-9.6 -0.05 -9.65 -0.65" fill="#050505" fill-opacity="0.78431374" fill-rule="evenodd" stroke="none"/>
    <path d="M-12.65 5.35 Q-12.65 2.85 -11.75 1.1 -10.9 -0.65 -9.65 -0.65 -9.6 -0.05 -10.55 2.45 L-11.65 5.35 -12.65 5.35" fill="#000000" fill-opacity="0.3882353" fill-rule="evenodd" stroke="none"/>
    <path d="M-4.65 4.35 Q-2.0 4.95 -1.65 5.35 L-1.65 6.35 -1.65 7.2 -3.6 7.3 -4.35 7.2 -4.6 6.95 -4.75 5.65 -4.65 4.35" fill="#ae9975" fill-rule="evenodd" stroke="none"/>
    <path d="M-9.65 5.35 L-9.65 2.35 -8.65 2.35 -8.65 5.35 -8.65 9.35 -9.65 9.35 -9.65 5.35" fill="#a9a49f" fill-opacity="0.99607843" fill-rule="evenodd" stroke="none"/>
    <path d="M-9.65 5.35 L-9.65 9.35 -9.65 10.35 -10.0 10.35 Q-10.35 6.95 -10.65 5.35 L-9.65 5.35" fill="#000000" fill-opacity="0.9607843" fill-rule="evenodd" stroke="none"/>
    <path d="M-9.65 16.35 Q-10.9 16.35 -11.75 14.9 -12.65 13.4 -12.65 11.35 L-12.65 5.35 -11.65 5.35 -11.9 7.85 Q-11.9 11.45 -9.65 13.35 L-7.65 16.35 -9.65 16.35" fill="#000000" fill-opacity="0.50980395" fill-rule="evenodd" stroke="none"/>
    <path d="M-4.95 27.75 L-5.6 27.65 Q-6.2 27.4 -6.45 26.7 -6.75 26.0 -6.65 25.35 L-6.65 23.35 -4.55 24.85 -2.65 26.35 -3.65 26.35 Q-3.9 27.2 -4.45 27.55 L-4.95 27.75" fill="#000000" fill-opacity="0.30588236" fill-rule="evenodd" stroke="none"/>
    <path d="M-3.65 30.35 L-6.75 31.9 -7.85 31.2 Q-8.85 30.3 -9.5 29.0 L-9.65 28.35 Q-8.15 29.1 -7.35 29.1 -6.3 29.1 -5.05 27.85 L-4.95 27.75 -4.45 27.55 Q-3.9 27.2 -3.65 26.35 L-2.65 26.35 -2.65 27.35 -2.65 28.35 -3.2 29.3 -3.65 30.35" fill="#000000" fill-opacity="0.67058825" fill-rule="evenodd" stroke="none"/>
    <path d="M-15.4 28.1 L-16.15 28.85 -17.85 26.6 -18.65 25.35 Q-16.6 25.15 -15.6 26.1 -14.65 26.95 -15.4 28.1" fill="#000000" fill-opacity="0.72156864" fill-rule="evenodd" stroke="none"/>
  </g>
</svg>
