<?xml version="1.0" encoding="UTF-8" standalone="no"?>
<svg xmlns:ffdec="https://www.free-decompiler.com/flash" xmlns:xlink="http://www.w3.org/1999/xlink" ffdec:objectType="shape" height="34.25px" width="64.7px" xmlns="http://www.w3.org/2000/svg">
  <g transform="matrix(1.0, 0.0, 0.0, 1.0, 29.6, -2.35)">
    <path d="M28.05 19.5 Q27.7 17.9 27.35 17.35 L30.2 15.75 Q32.5 14.3 32.85 13.85 L34.4 15.65 Q35.1 16.65 35.1 17.45 35.1 18.7 33.6 19.5 31.95 20.4 29.0 20.4 28.25 20.4 28.05 19.5" fill="#000000" fill-opacity="0.6745098" fill-rule="evenodd" stroke="none"/>
    <path d="M22.05 18.9 Q26.2 21.95 26.2 21.75 26.2 26.45 21.35 23.8 16.8 21.3 13.35 15.9 L16.6 15.65 Q17.6 15.65 22.05 18.9" fill="#000000" fill-opacity="0.7647059" fill-rule="evenodd" stroke="none"/>
    <path d="M15.35 2.35 L18.15 2.8 19.85 3.15 19.4 3.55 16.9 3.9 Q16.65 3.9 15.35 2.35" fill="#000000" fill-opacity="0.73333335" fill-rule="evenodd" stroke="none"/>
    <path d="M15.95 5.0 Q16.35 5.4 16.35 6.0 16.35 6.6 15.95 7.05 15.5 7.45 14.9 7.45 14.3 7.45 13.9 7.05 13.45 6.6 13.45 6.0 13.45 5.4 13.9 5.0 14.3 4.55 14.9 4.55 15.5 4.55 15.95 5.0" fill="#000000" fill-opacity="0.69803923" fill-rule="evenodd" stroke="none"/>
    <path d="M8.35 14.35 L7.6 15.75 Q6.75 16.9 5.85 16.85 6.1 15.3 4.55 14.5 3.2 13.8 0.9 13.8 L-2.95 14.4 Q-4.8 14.85 -6.65 14.35 -6.65 13.1 -5.45 12.25 -4.3 11.35 -2.65 11.35 L4.35 11.35 Q6.75 11.5 8.35 14.35" fill="#f1f4f7" fill-opacity="0.99607843" fill-rule="evenodd" stroke="none"/>
    <path d="M-6.65 14.35 Q-4.8 14.85 -2.95 14.4 L0.9 13.8 Q3.2 13.8 4.55 14.5 6.1 15.3 5.85 16.85 6.75 16.9 7.6 15.75 L8.35 14.35 Q9.2 14.35 9.8 15.25 10.35 16.1 10.35 17.35 L10.35 21.35 9.85 21.35 Q10.1 23.15 9.1 24.3 L7.35 26.35 Q7.35 27.6 6.5 28.5 5.6 29.35 4.35 29.35 3.1 29.35 2.25 28.8 1.35 28.2 1.35 27.4 L1.35 27.35 3.85 24.85 0.2 25.7 Q-1.95 25.7 -3.4 23.9 -4.4 22.7 -4.65 21.35 -3.5 21.35 -1.7 20.35 -1.7 19.85 -4.65 19.35 L-4.65 20.35 -8.65 20.35 -8.65 17.35 -8.65 15.35 Q-7.55 14.45 -6.65 14.35 M1.35 20.35 L4.55 19.75 -0.65 19.35 -0.65 20.35 Q-0.65 20.5 -1.15 20.65 -1.65 20.8 -1.65 21.35 L-1.4 22.85 -1.0 23.6 0.35 22.15 1.35 20.35 M5.8 21.9 L4.35 23.35 Q5.35 24.15 5.9 24.25 6.25 23.9 6.45 22.6 L6.55 21.25 5.8 21.9" fill="#e6e4e3" fill-opacity="0.99607843" fill-rule="evenodd" stroke="none"/>
    <path d="M-0.65 20.35 L-0.65 19.35 4.55 19.75 1.35 20.35 -0.65 20.35" fill="#bfab8f" fill-rule="evenodd" stroke="none"/>
    <path d="M-0.65 20.35 L1.35 20.35 0.35 22.15 -1.0 23.6 -1.4 22.85 -1.65 21.35 Q-1.65 20.8 -1.15 20.65 -0.65 20.5 -0.65 20.35" fill="#f6f2e9" fill-rule="evenodd" stroke="none"/>
    <path d="M5.8 21.9 L6.55 21.25 6.45 22.6 Q6.25 23.9 5.9 24.25 5.35 24.15 4.35 23.35 L5.8 21.9" fill="#f5f2e9" fill-rule="evenodd" stroke="none"/>
    <path d="M12.9 11.1 Q13.7 11.55 14.1 11.9 13.85 12.85 12.85 13.85 L10.35 10.35 11.7 10.5 12.9 11.1" fill="#000000" fill-opacity="0.7921569" fill-rule="evenodd" stroke="none"/>
    <path d="M10.35 23.35 L11.35 23.35 14.5 26.05 Q15.8 27.25 15.8 27.9 L15.3 29.45 Q14.8 30.5 14.8 31.0 L15.85 32.85 15.35 33.15 15.25 33.3 12.35 33.35 12.75 32.9 Q13.1 32.6 13.1 32.0 L12.9 30.75 12.35 29.35 11.45 27.2 10.35 25.35 10.35 23.35" fill="#020101" fill-opacity="0.72156864" fill-rule="evenodd" stroke="none"/>
    <path d="M7.35 26.35 L9.1 24.3 Q10.1 23.15 9.85 21.35 L10.35 21.35 10.35 23.35 10.35 25.35 9.35 25.35 9.35 26.35 7.35 26.35" fill="#c2c5c6" fill-opacity="0.99607843" fill-rule="evenodd" stroke="none"/>
    <path d="M10.35 25.35 L11.45 27.2 12.35 29.35 10.85 30.85 9.35 26.35 9.35 25.35 10.35 25.35" fill="#040303" fill-opacity="0.30588236" fill-rule="evenodd" stroke="none"/>
    <path d="M4.35 29.35 Q5.6 29.35 6.5 28.5 7.35 27.6 7.35 26.35 L9.35 26.35 10.85 30.85 12.35 29.35 12.9 30.75 13.1 32.0 Q13.1 32.6 12.75 32.9 L12.35 33.35 Q11.2 33.15 9.25 31.95 7.05 30.6 6.35 30.35 L4.35 30.35 4.35 29.35" fill="#151312" fill-opacity="0.87058824" fill-rule="evenodd" stroke="none"/>
    <path d="M-8.65 20.35 L-4.65 20.35 -4.65 21.35 Q-4.4 22.7 -3.4 23.9 -1.95 25.7 0.2 25.7 L3.85 24.85 1.35 27.35 1.35 27.4 Q1.35 28.2 0.2 28.8 -1.0 29.35 -2.65 29.35 L-4.8 28.4 -6.65 27.35 Q-7.5 27.35 -8.05 26.2 -8.65 25.0 -8.65 23.35 L-8.65 20.35" fill="#ecebe3" fill-rule="evenodd" stroke="none"/>
    <path d="M1.35 27.4 Q1.35 28.2 2.25 28.8 3.1 29.35 4.35 29.35 L4.35 30.35 4.3 30.35 -2.65 30.35 -2.65 29.35 Q-1.0 29.35 0.2 28.8 1.35 28.2 1.35 27.4" fill="#9b9b99" fill-rule="evenodd" stroke="none"/>
    <path d="M4.3 30.35 Q3.05 30.4 2.25 31.55 1.35 32.7 1.35 34.35 L0.1 35.8 Q-0.95 36.6 -2.7 36.6 -3.3 36.6 -4.5 36.0 -6.35 35.1 -7.65 33.35 L-6.65 33.35 Q-3.95 33.3 -3.5 32.45 L-4.65 30.35 -2.65 30.35 4.3 30.35" fill="#000000" fill-opacity="0.7411765" fill-rule="evenodd" stroke="none"/>
    <path d="M-8.65 15.35 L-8.65 17.35 -9.65 17.35 -9.65 23.35 -10.15 24.15 Q-10.65 24.8 -10.65 25.35 -10.65 27.25 -9.75 27.95 -8.8 28.65 -6.65 28.35 -5.75 29.45 -5.65 30.35 L-6.45 31.35 Q-7.1 31.9 -8.65 31.35 -7.9 32.6 -6.65 33.35 L-7.65 33.35 -9.5 33.4 Q-12.95 33.4 -14.35 32.0 -15.35 31.0 -16.65 27.35 L-12.65 26.35 Q-11.75 25.35 -11.65 24.35 -12.85 18.9 -11.65 17.2 -10.0 16.25 -9.65 15.35 L-8.65 15.35 M-23.65 18.35 L-21.15 18.8 -20.2 19.4 -20.85 20.0 -21.65 20.35 Q-22.5 20.35 -23.05 19.8 -23.65 19.2 -23.65 18.35" fill="#000000" fill-opacity="0.83137256" fill-rule="evenodd" stroke="none"/>
    <path d="M-8.65 17.35 L-8.65 20.35 -8.65 23.35 -9.65 23.35 -9.65 17.35 -8.65 17.35" fill="#a29f9c" fill-opacity="0.99607843" fill-rule="evenodd" stroke="none"/>
    <path d="M-9.65 23.35 L-8.65 23.35 Q-8.65 25.0 -8.05 26.2 -7.5 27.35 -6.65 27.35 L-6.65 28.35 Q-8.8 28.65 -9.75 27.95 -10.65 27.25 -10.65 25.35 -10.65 24.8 -10.15 24.15 L-9.65 23.35" fill="#0b0a0a" fill-opacity="0.99215686" fill-rule="evenodd" stroke="none"/>
    <path d="M-4.65 20.35 L-4.65 19.35 Q-1.7 19.85 -1.7 20.35 -3.5 21.35 -4.65 21.35 L-4.65 20.35" fill="#ab9775" fill-rule="evenodd" stroke="none"/>
    <path d="M-21.65 20.35 L-21.65 20.85 Q-23.05 21.0 -24.9 19.85 -27.05 18.5 -27.65 16.35 L-26.2 15.45 -24.55 14.7 Q-23.95 15.1 -23.3 16.05 -22.65 16.95 -22.65 17.35 -22.65 17.95 -23.15 18.1 L-23.65 18.35 Q-23.65 19.2 -23.05 19.8 -22.5 20.35 -21.65 20.35" fill="#000000" fill-opacity="0.6" fill-rule="evenodd" stroke="none"/>
    <path d="M-28.85 23.7 Q-28.15 22.95 -27.15 22.95 -26.15 22.95 -25.4 23.7 -24.7 24.4 -24.7 25.4 -24.7 26.4 -25.4 27.15 -26.15 27.85 -27.15 27.85 -28.15 27.85 -28.85 27.15 -29.6 26.4 -29.6 25.4 -29.6 24.4 -28.85 23.7" fill="#000000" fill-opacity="0.6784314" fill-rule="evenodd" stroke="none"/>
    <path d="M-2.65 29.35 L-2.65 30.35 -4.65 30.35 -5.65 30.35 Q-5.75 29.45 -6.65 28.35 L-6.65 27.35 -4.8 28.4 -2.65 29.35" fill="#1a1a18" fill-opacity="0.99215686" fill-rule="evenodd" stroke="none"/>
  </g>
</svg>
