<?xml version="1.0" encoding="UTF-8" standalone="no"?>
<svg xmlns:ffdec="https://www.free-decompiler.com/flash" xmlns:xlink="http://www.w3.org/1999/xlink" ffdec:objectType="shape" height="23.0px" width="23.0px" xmlns="http://www.w3.org/2000/svg">
  <g transform="matrix(1.0, 0.0, 0.0, 1.0, 13.65, 3.65)">
    <path d="M-7.65 -1.65 L-5.8 -2.7 -3.65 -3.65 3.35 -3.65 Q5.8 -3.45 7.35 -0.65 6.25 1.85 4.85 1.85 3.7 1.85 1.15 1.1 -2.25 0.1 -7.65 -0.65 L-7.65 -1.65" fill="#eef2f6" fill-opacity="0.99607843" fill-rule="evenodd" stroke="none"/>
    <path d="M-7.65 -0.65 Q-2.25 0.1 1.15 1.1 3.7 1.85 4.85 1.85 6.25 1.85 7.35 -0.65 8.2 -0.65 8.8 0.25 9.35 1.1 9.35 2.35 L9.35 8.35 7.7 10.1 Q6.75 11.4 6.35 14.35 L5.15 15.3 3.35 16.35 Q-2.05 16.35 -5.85 14.3 -9.65 12.25 -9.65 9.35 L-7.65 9.35 Q-5.65 12.0 -3.65 12.95 L-1.15 13.45 Q-0.15 13.45 5.35 10.35 L6.7 9.4 Q7.55 8.55 7.55 7.4 7.55 4.95 4.35 4.35 L3.35 4.35 Q2.45 1.15 0.2 2.6 -0.5 2.2 -0.15 0.85 L-2.65 5.35 Q-2.65 5.1 -3.6 4.8 -4.5 4.45 -5.65 4.35 L-5.65 3.85 -7.7 4.7 -9.65 5.35 -9.65 2.35 Q-9.65 1.1 -9.05 0.25 -8.5 -0.65 -7.65 -0.65" fill="#dddddf" fill-opacity="0.99607843" fill-rule="evenodd" stroke="none"/>
    <path d="M3.35 4.35 L1.35 4.35 0.35 4.35 0.35 5.35 Q-0.55 5.45 -1.65 6.35 L-2.65 6.35 -2.65 5.35 -0.15 0.85 Q-0.5 2.2 0.2 2.6 2.45 1.15 3.35 4.35" fill="#eae3d6" fill-rule="evenodd" stroke="none"/>
    <path d="M1.35 4.35 L3.35 4.35 4.35 4.35 Q4.25 5.35 3.35 6.35 L2.0 6.45 1.25 5.65 1.2 5.3 1.35 4.35" fill="#a18867" fill-rule="evenodd" stroke="none"/>
    <path d="M1.35 4.35 L1.2 5.3 1.25 5.65 2.0 6.45 3.35 6.35 Q3.35 6.75 2.8 7.05 L1.35 7.35 0.65 6.8 Q0.35 6.2 0.35 5.35 L0.35 4.35 1.35 4.35" fill="#d4c7ac" fill-rule="evenodd" stroke="none"/>
    <path d="M3.35 6.35 Q4.25 5.35 4.35 4.35 7.55 4.95 7.55 7.4 7.55 8.55 6.7 9.4 L5.35 10.35 5.35 9.35 Q4.2 9.35 2.05 10.5 -0.15 11.65 -1.8 11.65 L-4.2 10.95 Q-6.55 9.8 -7.65 7.35 L-7.65 9.35 -9.65 9.35 -9.65 5.35 -7.7 4.7 -5.65 3.85 -5.65 4.35 -5.75 5.65 -5.6 6.95 -5.1 7.25 -4.35 7.3 -2.65 6.9 -2.65 6.35 -1.65 6.35 Q-1.75 7.05 -1.45 8.15 -1.2 9.2 -0.6 9.6 -0.05 10.0 0.55 9.45 1.1 8.9 1.35 7.35 L2.8 7.05 Q3.35 6.75 3.35 6.35" fill="#eee9df" fill-rule="evenodd" stroke="none"/>
    <path d="M-1.65 6.35 Q-0.55 5.45 0.35 5.35 0.35 6.2 0.65 6.8 L1.35 7.35 Q1.1 8.9 0.55 9.45 -0.05 10.0 -0.6 9.6 -1.2 9.2 -1.45 8.15 -1.75 7.05 -1.65 6.35" fill="#f4f1ea" fill-rule="evenodd" stroke="none"/>
    <path d="M9.35 8.35 L9.35 11.35 Q8.5 11.35 7.95 12.25 7.35 13.1 7.35 14.35 L6.35 14.35 Q6.75 11.4 7.7 10.1 L9.35 8.35" fill="#b5b7b7" fill-opacity="0.99215686" fill-rule="evenodd" stroke="none"/>
    <path d="M5.35 10.35 Q-0.15 13.45 -1.15 13.45 L-3.65 12.95 Q-5.65 12.0 -7.65 9.35 L-7.65 7.35 Q-6.55 9.8 -4.2 10.95 L-1.8 11.65 Q-0.15 11.65 2.05 10.5 4.2 9.35 5.35 9.35 L5.35 10.35" fill="#f6f4eb" fill-rule="evenodd" stroke="none"/>
    <path d="M7.35 14.35 L7.35 15.35 5.65 17.55 Q4.05 19.05 2.35 19.35 L-5.65 19.35 Q-6.55 19.25 -7.65 18.35 L-7.65 17.35 -2.85 18.25 -0.6 18.45 Q1.8 18.25 3.35 16.35 L5.15 15.3 6.35 14.35 7.35 14.35" fill="#020201" fill-opacity="0.5411765" fill-rule="evenodd" stroke="none"/>
    <path d="M-7.65 17.35 Q-7.65 16.95 -7.95 16.65 -8.25 16.35 -8.65 16.35 L-9.65 15.25 Q-10.35 14.45 -10.65 13.35 L-10.65 10.35 -10.65 9.35 -9.65 9.35 Q-9.65 12.25 -5.85 14.3 -2.05 16.35 3.35 16.35 1.8 18.25 -0.6 18.45 L-2.85 18.25 -7.65 17.35" fill="#0a0a0a" fill-opacity="0.93333334" fill-rule="evenodd" stroke="none"/>
    <path d="M-13.65 5.35 Q-13.65 2.85 -12.75 1.1 -11.9 -0.65 -10.65 -0.65 -10.45 0.6 -11.45 2.5 -12.6 4.65 -12.65 5.35 L-13.65 5.35" fill="#000000" fill-opacity="0.3882353" fill-rule="evenodd" stroke="none"/>
    <path d="M-7.65 -1.65 L-7.65 -0.65 Q-8.5 -0.65 -9.05 0.25 -9.65 1.1 -9.65 2.35 L-10.65 2.35 -10.65 5.35 -11.65 5.35 -11.15 10.35 -10.65 10.35 -10.65 13.35 Q-13.7 10.65 -12.65 5.35 -12.6 4.65 -11.45 2.5 -10.45 0.6 -10.65 -0.65 L-7.65 -1.65" fill="#050505" fill-opacity="0.78431374" fill-rule="evenodd" stroke="none"/>
    <path d="M-2.65 5.35 L-2.65 6.35 -2.65 6.9 -4.35 7.3 -5.1 7.25 -5.6 6.95 -5.75 5.65 -5.65 4.35 Q-4.5 4.45 -3.6 4.8 -2.65 5.1 -2.65 5.35" fill="#ae9975" fill-rule="evenodd" stroke="none"/>
    <path d="M-9.65 5.35 L-9.65 9.35 -10.65 9.35 -10.65 5.35 -10.65 2.35 -9.65 2.35 -9.65 5.35" fill="#a9a49f" fill-opacity="0.99607843" fill-rule="evenodd" stroke="none"/>
    <path d="M-10.65 9.35 L-10.65 10.35 -11.15 10.35 -11.65 5.35 -10.65 5.35 -10.65 9.35" fill="#000000" fill-opacity="0.9607843" fill-rule="evenodd" stroke="none"/>
    <path d="M-8.65 16.35 L-10.65 16.35 Q-12.0 16.05 -12.8 14.25 L-13.65 11.35 -13.65 5.35 -12.65 5.35 Q-13.7 10.65 -10.65 13.35 -10.35 14.45 -9.65 15.25 L-8.65 16.35" fill="#000000" fill-opacity="0.50980395" fill-rule="evenodd" stroke="none"/>
  </g>
</svg>
