<?xml version="1.0" encoding="UTF-8" standalone="no"?>
<svg xmlns:ffdec="https://www.free-decompiler.com/flash" xmlns:xlink="http://www.w3.org/1999/xlink" ffdec:objectType="shape" height="203.0px" width="229.35px" xmlns="http://www.w3.org/2000/svg">
  <g transform="matrix(1.0, 0.0, 0.0, 1.0, 114.7, 101.5)">
    <path d="M-113.7 34.5 L-114.2 34.45 Q-114.7 29.5 -114.7 24.5 -80.0 8.7 -55.8 -17.5 -50.75 -23.05 -46.7 -29.5 -26.05 -62.85 -1.8 -92.75 -1.2 -93.5 0.15 -93.95 L25.3 -101.5 Q46.65 -101.35 54.1 -87.4 L54.3 -86.5 Q79.55 -86.25 100.35 -81.75 107.95 -80.15 112.3 -75.5 117.75 -60.55 110.55 -49.35 L110.3 -48.5 Q115.95 -31.95 106.55 -21.3 106.3 -21.0 106.3 -20.5 113.75 -5.0 101.55 4.8 101.3 5.0 101.3 5.5 106.2 12.5 103.45 22.55 103.3 23.0 103.3 23.5 82.3 53.0 38.55 60.8 L21.35 63.05 Q4.0 64.7 -12.55 68.25 -27.3 71.4 -38.3 78.6 -56.95 90.75 -76.7 101.5 -83.3 97.1 -88.45 91.3 L-88.7 90.5 Q-68.8 87.9 -55.3 78.65 -35.55 65.15 -8.95 57.7 5.8 53.55 25.3 53.0 L38.25 52.15 Q73.9 48.6 93.4 28.6 98.1 23.8 99.15 16.35 99.5 13.75 96.3 13.5 86.45 18.95 91.7 9.7 L92.3 9.5 Q103.55 0.75 104.3 -13.5 L104.3 -14.5 Q100.35 -20.25 92.6 -20.2 L94.05 -20.95 Q100.85 -24.45 105.3 -30.5 111.85 -47.2 91.3 -46.5 L90.3 -46.5 Q82.05 -53.15 92.45 -51.55 102.3 -50.0 107.3 -54.5 111.75 -64.0 106.9 -73.3 L106.3 -73.5 Q96.6 -81.8 77.35 -80.0 L77.3 -79.5 Q58.75 -80.45 42.25 -83.05 36.3 -84.0 30.55 -83.05 13.6 -80.2 -1.7 -79.5 -0.35 -80.65 5.95 -82.6 19.5 -86.8 37.25 -86.1 49.0 -85.65 48.3 -89.5 L48.1 -90.1 Q27.45 -101.45 2.3 -91.5 -2.05 -89.35 -4.35 -85.3 -17.95 -61.75 -34.15 -41.05 -40.8 -32.6 -47.15 -23.55 -72.5 12.2 -113.7 32.5 L-113.7 33.5 -113.7 34.5" fill="#241f1f" fill-opacity="0.9647059" fill-rule="evenodd" stroke="none"/>
    <path d="M-113.7 34.5 L-113.7 33.5 -113.7 32.5 Q-72.5 12.2 -47.15 -23.55 -40.8 -32.6 -34.15 -41.05 -17.95 -61.75 -4.35 -85.3 -2.05 -89.35 2.3 -91.5 27.45 -101.45 48.1 -90.1 L48.3 -89.5 Q49.0 -85.65 37.25 -86.1 19.5 -86.8 5.95 -82.6 -0.35 -80.65 -1.7 -79.5 13.6 -80.2 30.55 -83.05 36.3 -84.0 42.25 -83.05 58.75 -80.45 77.3 -79.5 78.8 -79.5 79.1 -78.9 L80.3 -77.3 Q91.45 -63.3 78.3 -51.5 78.5 -48.8 78.8 -48.05 81.25 -41.45 90.3 -35.5 92.85 -24.25 89.0 -17.65 88.35 -16.45 87.35 -15.7 76.9 -7.65 88.3 -2.5 89.75 -0.45 88.9 2.0 83.8 16.7 83.3 32.5 79.2 34.9 74.25 36.3 L46.4 43.85 Q24.2 49.65 9.3 47.5 L9.05 46.85 Q-5.4 37.75 -18.7 32.5 L-19.4 32.75 Q-50.45 67.95 -98.7 77.5 -98.7 77.0 -98.95 76.65 -110.3 59.6 -113.7 34.5" fill="#ffffff" fill-rule="evenodd" stroke="none"/>
    <path d="M77.3 -79.5 L77.35 -80.0 Q96.6 -81.8 106.3 -73.5 L106.9 -73.3 Q111.75 -64.0 107.3 -54.5 102.3 -50.0 92.45 -51.55 82.05 -53.15 90.3 -46.5 L91.3 -46.5 Q111.85 -47.2 105.3 -30.5 100.85 -24.45 94.05 -20.95 L92.6 -20.2 Q100.35 -20.25 104.3 -14.5 L104.3 -13.5 Q103.55 0.75 92.3 9.5 L91.7 9.7 Q86.45 18.95 96.3 13.5 99.5 13.75 99.15 16.35 98.1 23.8 93.4 28.6 73.9 48.6 38.25 52.15 L25.3 53.0 Q5.8 53.55 -8.95 57.7 -35.55 65.15 -55.3 78.65 -68.8 87.9 -88.7 90.5 L-89.4 90.25 Q-94.25 84.05 -98.7 77.5 -50.45 67.95 -19.4 32.75 L-18.7 32.5 Q-5.4 37.75 9.05 46.85 L9.3 47.5 Q24.2 49.65 46.4 43.85 L74.25 36.3 Q79.2 34.9 83.3 32.5 83.8 16.7 88.9 2.0 89.75 -0.45 88.3 -2.5 76.9 -7.65 87.35 -15.7 88.35 -16.45 89.0 -17.65 92.85 -24.25 90.3 -35.5 81.25 -41.45 78.8 -48.05 78.5 -48.8 78.3 -51.5 91.45 -63.3 80.3 -77.3 L79.1 -78.9 Q78.8 -79.5 77.3 -79.5" fill="#d0d0d0" fill-rule="evenodd" stroke="none"/>
  </g>
</svg>
