<?xml version="1.0" encoding="UTF-8" standalone="no"?>
<svg xmlns:ffdec="https://www.free-decompiler.com/flash" xmlns:xlink="http://www.w3.org/1999/xlink" ffdec:objectType="shape" height="203.0px" width="229.15px" xmlns="http://www.w3.org/2000/svg">
  <g transform="matrix(1.0, 0.0, 0.0, 1.0, 132.65, 60.65)">
    <path d="M-131.65 75.35 L-132.5 75.3 -132.65 65.35 Q-132.65 65.25 -107.65 49.95 -81.75 34.1 -79.05 32.05 -74.25 28.4 -66.35 14.5 -55.7 -4.25 -45.8 -17.15 -40.7 -23.8 -31.4 -40.75 -25.7 -51.15 -20.2 -52.6 L-1.1 -58.0 Q8.35 -60.65 11.85 -60.65 14.8 -60.65 22.5 -57.3 30.05 -54.05 32.4 -51.85 33.55 -50.8 34.9 -47.95 L36.35 -44.65 Q50.4 -44.9 60.8 -44.1 79.2 -42.75 84.95 -40.6 96.5 -36.3 96.5 -23.85 96.5 -17.5 94.65 -12.1 92.8 -6.7 92.8 -5.4 92.8 -1.2 94.75 6.45 94.75 11.05 91.75 14.7 88.75 18.35 88.75 19.4 88.75 20.3 90.05 22.8 91.35 25.3 91.35 29.85 91.35 32.65 87.35 38.05 83.35 43.45 83.35 46.35 83.35 47.45 84.95 50.85 86.55 54.25 86.55 57.85 86.55 63.4 79.75 71.7 73.2 79.75 64.7 85.0 61.75 86.8 45.1 92.2 L21.9 99.85 Q16.3 101.95 -7.7 105.15 L-32.1 108.6 Q-43.15 113.65 -69.5 129.95 -89.55 142.35 -95.65 142.35 -96.65 142.35 -106.4 132.1 L-106.65 131.35 -92.8 129.5 Q-89.2 128.9 -86.55 127.5 -76.85 121.15 -55.5 110.5 -43.55 104.55 -29.5 99.4 L-17.65 95.35 13.1 94.3 Q28.95 92.55 48.35 86.3 57.2 83.45 70.25 71.45 82.1 60.55 82.1 58.0 82.1 56.95 81.15 55.9 79.8 54.35 77.1 54.35 76.6 54.35 75.1 55.15 73.45 56.1 72.35 57.15 L71.75 56.05 71.35 54.35 Q71.35 53.75 78.75 44.25 L86.4 34.35 87.05 32.75 87.35 30.9 Q87.35 22.1 79.05 22.1 L74.35 22.85 Q83.45 15.65 86.65 11.2 89.5 7.2 89.5 2.35 89.5 -1.9 86.2 -3.75 83.85 -5.05 78.9 -5.5 L71.6 -6.3 Q68.3 -7.1 68.3 -9.55 68.3 -10.55 68.6 -11.2 L69.95 -11.3 74.25 -10.2 78.75 -9.15 Q83.55 -9.15 86.95 -11.95 91.4 -15.6 91.4 -22.85 91.4 -33.05 83.95 -36.75 78.35 -39.55 65.2 -39.55 L62.45 -39.25 59.35 -38.65 55.1 -38.5 Q49.55 -38.5 38.3 -41.15 27.05 -43.85 18.35 -43.85 8.55 -43.85 -2.75 -40.8 -14.0 -37.8 -15.95 -37.8 L-17.55 -37.65 Q-19.3 -37.85 -20.65 -39.3 -14.1 -39.35 -9.85 -40.5 -7.7 -41.1 -3.55 -43.0 4.2 -46.6 17.35 -46.6 L23.3 -45.95 27.9 -45.35 Q29.7 -45.35 30.5 -46.1 31.35 -46.9 31.35 -48.65 31.35 -51.4 24.4 -53.75 18.0 -55.95 12.2 -55.95 -2.55 -55.95 -10.8 -52.8 -17.9 -50.1 -22.45 -44.0 -24.3 -41.55 -30.25 -30.55 -35.7 -20.6 -41.7 -13.5 L-57.45 9.25 Q-71.1 29.25 -78.0 36.2 -79.45 37.7 -103.3 54.4 -127.4 71.3 -131.65 75.35" fill="#241f1f" fill-opacity="0.9647059" fill-rule="evenodd" stroke="none"/>
    <path d="M59.35 -38.65 L62.45 -39.25 65.2 -39.55 Q78.35 -39.55 83.95 -36.75 91.4 -33.05 91.4 -22.85 91.4 -15.6 86.95 -11.95 83.55 -9.15 78.75 -9.15 L74.25 -10.2 69.95 -11.3 68.6 -11.2 Q68.3 -10.55 68.3 -9.55 68.3 -7.1 71.6 -6.3 L78.9 -5.5 Q83.85 -5.05 86.2 -3.75 89.5 -1.9 89.5 2.35 89.5 7.2 86.65 11.2 83.45 15.65 74.35 22.85 L79.05 22.1 Q87.35 22.1 87.35 30.9 L87.05 32.75 86.4 34.35 78.75 44.25 Q71.35 53.75 71.35 54.35 L71.75 56.05 72.35 57.15 Q73.45 56.1 75.1 55.15 76.6 54.35 77.1 54.35 79.8 54.35 81.15 55.9 82.1 56.95 82.1 58.0 82.1 60.55 70.25 71.45 57.2 83.45 48.35 86.3 28.95 92.55 13.1 94.3 L-17.65 95.35 -29.5 99.4 Q-43.55 104.55 -55.5 110.5 -76.85 121.15 -86.55 127.5 -89.2 128.9 -92.8 129.5 L-106.65 131.35 Q-110.55 130.3 -113.0 125.85 -115.25 120.55 -116.65 118.35 -87.25 114.35 -59.9 93.65 -54.25 89.35 -43.45 79.9 -36.55 73.9 -34.85 73.9 -33.3 73.9 -29.6 76.2 L-21.8 81.25 Q-10.0 88.55 -1.65 88.55 3.05 88.55 24.85 84.3 L47.4 80.0 Q55.7 80.0 61.35 75.0 65.75 71.1 65.75 68.15 65.75 67.4 68.85 55.8 71.95 44.25 71.95 42.1 71.95 39.8 70.45 37.75 68.3 34.75 63.85 33.85 64.75 32.05 68.55 26.5 72.6 20.5 73.35 20.35 L73.45 9.1 Q73.45 4.7 65.9 0.1 L60.7 -3.0 Q58.35 -4.55 58.35 -5.65 58.35 -9.15 62.9 -16.05 L67.45 -22.45 Q67.45 -23.85 64.55 -30.35 L61.6 -36.65 Q61.6 -37.15 62.0 -37.3 62.35 -37.5 62.35 -38.0 L62.25 -38.55 62.1 -38.5 59.35 -38.65" fill="#d0d0d0" fill-rule="evenodd" stroke="none"/>
    <path d="M-131.65 75.35 Q-127.4 71.3 -103.3 54.4 -79.45 37.7 -78.0 36.2 -71.1 29.25 -57.45 9.25 L-41.7 -13.5 Q-35.7 -20.6 -30.25 -30.55 -24.3 -41.55 -22.45 -44.0 -17.9 -50.1 -10.8 -52.8 -2.55 -55.95 12.2 -55.95 18.0 -55.95 24.4 -53.75 31.35 -51.4 31.35 -48.65 31.35 -46.9 30.5 -46.1 29.7 -45.35 27.9 -45.35 L23.3 -45.95 17.35 -46.6 Q4.2 -46.6 -3.55 -43.0 -7.7 -41.1 -9.85 -40.5 -14.1 -39.35 -20.65 -39.3 -19.3 -37.85 -17.55 -37.65 L-15.95 -37.8 Q-14.0 -37.8 -2.75 -40.8 8.55 -43.85 18.35 -43.85 27.05 -43.85 38.3 -41.15 49.55 -38.5 55.1 -38.5 L59.35 -38.65 62.1 -38.5 62.25 -38.55 62.35 -38.0 Q62.35 -37.5 62.0 -37.3 61.6 -37.15 61.6 -36.65 L64.55 -30.35 Q67.45 -23.85 67.45 -22.45 L62.9 -16.05 Q58.35 -9.15 58.35 -5.65 58.35 -4.55 60.7 -3.0 L65.9 0.1 Q73.45 4.7 73.45 9.1 L73.35 20.35 Q72.6 20.5 68.55 26.5 64.75 32.05 63.85 33.85 68.3 34.75 70.45 37.75 71.95 39.8 71.95 42.1 71.95 44.25 68.85 55.8 65.75 67.4 65.75 68.15 65.75 71.1 61.35 75.0 55.7 80.0 47.4 80.0 L24.85 84.3 Q3.05 88.55 -1.65 88.55 -10.0 88.55 -21.8 81.25 L-29.6 76.2 Q-33.3 73.9 -34.85 73.9 -36.55 73.9 -43.45 79.9 -54.25 89.35 -59.9 93.65 -87.25 114.35 -116.65 118.35 -116.75 117.4 -118.8 113.35 L-123.4 104.0 Q-130.2 89.0 -131.65 75.35" fill="#ffffff" fill-rule="evenodd" stroke="none"/>
  </g>
</svg>
