<?xml version="1.0" encoding="UTF-8" standalone="no"?>
<svg xmlns:ffdec="https://www.free-decompiler.com/flash" xmlns:xlink="http://www.w3.org/1999/xlink" ffdec:objectType="shape" height="218.0px" width="260.1px" xmlns="http://www.w3.org/2000/svg">
  <g transform="matrix(1.0, 0.0, 0.0, 1.0, 132.65, 75.65)">
    <path d="M53.35 -43.65 Q55.45 -43.9 56.5 -45.2 57.35 -46.25 57.35 -47.7 57.35 -48.35 54.9 -51.8 52.0 -55.95 48.45 -59.65 37.85 -70.65 28.35 -70.65 20.75 -70.65 1.5 -61.85 -15.5 -54.05 -17.95 -51.6 L-25.45 -38.65 Q-33.65 -24.25 -41.7 -13.5 L-57.3 9.4 Q-70.85 29.0 -78.0 36.2 -79.45 37.7 -103.3 54.4 -127.4 71.3 -131.65 75.35 L-132.5 75.3 -132.65 65.35 Q-132.65 63.2 -130.35 62.05 L-122.4 59.0 Q-105.05 52.25 -82.9 35.55 -78.4 32.15 -72.0 22.85 -66.85 15.4 -61.4 5.5 -54.25 -7.5 -43.35 -23.15 -31.05 -40.85 -28.95 -44.3 -27.4 -46.9 -19.05 -53.7 -10.7 -60.45 -7.65 -61.6 -3.2 -63.25 9.05 -69.9 20.9 -75.65 28.35 -75.65 31.3 -75.65 36.65 -73.3 42.2 -70.85 47.4 -67.05 60.7 -57.4 60.7 -47.85 L60.35 -44.65 86.35 -41.35 Q97.0 -39.7 102.05 -37.6 107.55 -35.3 109.7 -31.1 111.75 -27.15 111.75 -19.55 111.75 -16.1 109.35 -12.8 106.95 -10.1 106.95 -9.7 106.95 -9.1 107.25 -8.85 L107.5 -8.65 Q117.25 -7.95 121.0 -6.1 127.45 -2.95 127.45 5.85 127.45 13.2 121.5 15.45 L115.75 17.35 Q112.05 18.65 109.55 20.65 109.55 22.6 112.4 26.85 115.25 31.1 115.25 31.95 115.25 37.35 110.9 40.8 104.85 44.6 101.35 47.35 106.1 49.35 107.6 53.15 108.35 55.05 108.35 58.9 108.35 65.15 100.25 70.0 93.9 73.75 83.5 76.2 82.55 76.4 77.6 79.25 L65.9 85.5 Q46.65 95.0 26.3 98.85 L-4.25 104.9 -10.7 106.1 -16.9 106.35 Q-21.65 106.35 -24.0 104.75 -24.7 104.25 -29.7 107.2 -57.0 123.45 -72.1 131.7 -91.65 142.35 -95.65 142.35 -96.65 142.35 -106.4 132.1 L-106.65 131.35 -92.8 129.5 Q-89.2 128.9 -86.55 127.5 -76.85 121.15 -55.5 110.5 -43.55 104.55 -29.5 99.4 L-17.65 95.35 Q-1.8 95.35 19.9 91.95 45.15 88.0 59.1 81.9 70.4 76.95 83.35 71.9 93.9 67.75 96.25 66.6 100.3 64.6 101.4 62.3 102.35 60.4 102.35 55.35 102.35 53.8 98.4 51.9 93.75 49.65 87.5 49.65 L79.8 50.2 Q78.45 50.2 77.35 47.35 81.95 45.8 97.35 43.85 110.45 41.0 110.45 33.45 110.45 28.65 108.95 26.4 107.45 24.2 103.75 23.15 101.15 22.4 93.85 21.5 L78.35 19.35 83.7 17.6 Q87.0 16.75 91.6 16.75 112.05 16.75 117.25 14.6 120.0 13.45 120.95 11.25 121.65 9.55 121.65 5.75 122.0 3.3 121.85 2.0 121.65 -0.2 119.35 -1.65 113.1 -5.55 87.65 -5.55 L72.8 -5.05 71.3 -5.25 71.25 -6.45 Q71.25 -8.0 72.25 -9.0 73.7 -10.45 77.05 -10.45 L87.95 -10.2 97.25 -10.8 Q106.15 -12.7 106.15 -22.8 106.15 -27.7 105.7 -29.25 104.75 -32.3 101.1 -34.05 92.65 -38.15 60.35 -38.65 L55.9 -38.4 34.9 -40.95 14.9 -43.5 Q8.1 -43.5 1.6 -41.7 L-3.8 -39.95 Q-4.3 -39.95 -5.1 -40.45 -6.25 -41.25 -6.65 -42.65 -3.7 -43.75 9.75 -46.75 22.95 -49.65 25.35 -50.65 32.45 -50.9 38.9 -47.0 45.2 -43.2 53.35 -43.65" fill="#231e1e" fill-opacity="0.96862745" fill-rule="evenodd" stroke="none"/>
    <path d="M-116.65 118.35 Q-87.25 114.35 -59.9 93.65 -54.25 89.35 -43.45 79.9 -36.55 73.9 -34.85 73.9 -33.3 73.9 -29.6 76.2 L-21.8 81.25 Q-10.0 88.55 -1.65 88.55 3.05 88.55 24.85 84.3 L47.4 80.0 Q55.7 80.0 61.35 75.0 65.75 71.1 65.75 68.15 65.75 67.4 68.85 55.8 71.95 44.25 71.95 42.1 71.95 39.8 70.45 37.75 68.3 34.75 63.85 33.85 64.75 32.05 68.55 26.5 72.6 20.5 73.35 20.35 L73.45 9.1 Q73.45 4.7 65.9 0.1 L60.7 -3.0 Q58.35 -4.55 58.35 -5.65 58.35 -9.25 62.85 -15.5 L67.35 -21.15 Q67.35 -27.6 64.9 -32.15 L60.35 -38.65 Q92.65 -38.15 101.1 -34.05 104.75 -32.3 105.7 -29.25 106.15 -27.7 106.15 -22.8 106.15 -12.7 97.25 -10.8 L87.95 -10.2 77.05 -10.45 Q73.7 -10.45 72.25 -9.0 71.25 -8.0 71.25 -6.45 L71.3 -5.25 72.8 -5.05 87.65 -5.55 Q113.1 -5.55 119.35 -1.65 121.65 -0.2 121.85 2.0 122.0 3.3 121.65 5.75 121.65 9.55 120.95 11.25 120.0 13.45 117.25 14.6 112.05 16.75 91.6 16.75 87.0 16.75 83.7 17.6 L78.35 19.35 93.85 21.5 Q101.15 22.4 103.75 23.15 107.45 24.2 108.95 26.4 110.45 28.65 110.45 33.45 110.45 41.0 97.35 43.85 81.95 45.8 77.35 47.35 78.45 50.2 79.8 50.2 L87.5 49.65 Q93.75 49.65 98.4 51.9 102.35 53.8 102.35 55.35 102.35 60.4 101.4 62.3 100.3 64.6 96.25 66.6 93.9 67.75 83.35 71.9 70.4 76.95 59.1 81.9 45.15 88.0 19.9 91.95 -1.8 95.35 -17.65 95.35 L-29.5 99.4 Q-43.55 104.55 -55.5 110.5 -76.85 121.15 -86.55 127.5 -89.2 128.9 -92.8 129.5 L-106.65 131.35 Q-110.55 130.3 -113.0 125.85 -115.25 120.55 -116.65 118.35 M25.35 -50.65 L25.35 -51.65 Q28.5 -52.15 37.35 -54.65 37.9 -54.65 42.1 -51.6 L49.1 -46.7 52.7 -44.4 53.35 -43.65 Q45.2 -43.2 38.9 -47.0 32.45 -50.9 25.35 -50.65" fill="#d0d0d0" fill-rule="evenodd" stroke="none"/>
    <path d="M-131.65 75.35 Q-127.4 71.3 -103.3 54.4 -79.45 37.7 -78.0 36.2 -70.85 29.0 -57.3 9.4 L-41.7 -13.5 Q-33.65 -24.25 -25.45 -38.65 L-17.95 -51.6 Q-15.5 -54.05 1.5 -61.85 20.75 -70.65 28.35 -70.65 37.85 -70.65 48.45 -59.65 52.0 -55.95 54.9 -51.8 57.35 -48.35 57.35 -47.7 57.35 -46.25 56.5 -45.2 55.45 -43.9 53.35 -43.65 L52.7 -44.4 49.1 -46.7 42.1 -51.6 Q37.9 -54.65 37.35 -54.65 28.5 -52.15 25.35 -51.65 L25.35 -50.65 Q22.95 -49.65 9.75 -46.75 -3.7 -43.75 -6.65 -42.65 -6.25 -41.25 -5.1 -40.45 -4.3 -39.95 -3.8 -39.95 L1.6 -41.7 Q8.1 -43.5 14.9 -43.5 L34.9 -40.95 55.9 -38.4 60.35 -38.65 64.9 -32.15 Q67.35 -27.6 67.35 -21.15 L62.85 -15.5 Q58.35 -9.25 58.35 -5.65 58.35 -4.55 60.7 -3.0 L65.9 0.1 Q73.45 4.7 73.45 9.1 L73.35 20.35 Q72.6 20.5 68.55 26.5 64.75 32.05 63.85 33.85 68.3 34.75 70.45 37.75 71.95 39.8 71.95 42.1 71.95 44.25 68.85 55.8 65.75 67.4 65.75 68.15 65.75 71.1 61.35 75.0 55.7 80.0 47.4 80.0 L24.85 84.3 Q3.05 88.55 -1.65 88.55 -10.0 88.55 -21.8 81.25 L-29.6 76.2 Q-33.3 73.9 -34.85 73.9 -36.55 73.9 -43.45 79.9 -54.25 89.35 -59.9 93.65 -87.25 114.35 -116.65 118.35 -116.75 117.4 -118.8 113.35 L-123.4 104.0 Q-130.2 89.0 -131.65 75.35" fill="#ffffff" fill-rule="evenodd" stroke="none"/>
  </g>
</svg>
