<?xml version="1.0" encoding="UTF-8" standalone="no"?>
<svg xmlns:ffdec="https://www.free-decompiler.com/flash" xmlns:xlink="http://www.w3.org/1999/xlink" ffdec:objectType="shape" height="221.0px" width="280.15px" xmlns="http://www.w3.org/2000/svg">
  <g transform="matrix(1.0, 0.0, 0.0, 1.0, 132.65, 78.65)">
    <path d="M14.35 -46.65 L20.9 -46.95 Q22.65 -47.5 26.75 -49.75 35.45 -54.55 44.05 -54.55 L55.65 -53.7 62.55 -52.9 Q68.3 -52.9 70.75 -54.1 71.9 -54.65 72.35 -55.65 73.8 -57.15 73.8 -57.6 72.5 -61.65 65.35 -65.65 51.05 -73.65 21.65 -73.65 19.55 -73.65 12.9 -70.25 5.3 -66.4 -2.6 -60.75 -24.45 -45.0 -32.85 -26.85 -37.4 -17.0 -51.35 2.2 -61.5 16.15 -75.0 32.85 -77.4 35.8 -101.85 53.1 -127.35 71.15 -131.65 75.35 L-132.5 75.3 -132.65 65.35 Q-132.65 63.05 -129.45 61.75 L-119.75 58.45 Q-100.85 51.5 -80.95 33.8 -74.2 27.8 -68.85 18.8 -61.85 6.0 -55.15 -4.6 -31.15 -42.7 -10.85 -60.45 9.9 -78.65 30.3 -78.65 L39.1 -77.8 Q47.85 -76.65 55.2 -74.7 77.6 -68.9 77.6 -58.75 77.6 -56.25 75.1 -53.2 72.2 -49.65 68.35 -49.65 L52.7 -50.5 38.05 -49.5 Q30.2 -48.5 28.35 -47.65 29.75 -46.8 36.9 -45.15 44.95 -43.25 49.25 -43.25 69.05 -43.25 90.15 -45.95 L107.35 -48.65 Q113.75 -48.65 118.35 -44.65 123.35 -40.35 123.35 -33.65 123.35 -26.75 111.6 -20.65 107.65 -18.6 100.3 -15.6 L88.35 -10.65 92.6 -10.15 Q94.3 -10.15 112.6 -13.85 130.9 -17.6 134.9 -17.6 140.55 -17.6 144.0 -12.7 147.5 -7.7 147.5 0.65 147.5 3.6 146.45 5.2 145.25 6.9 141.95 8.3 139.85 9.2 115.35 16.35 L118.75 16.75 121.8 16.95 134.0 16.0 Q140.65 16.0 142.35 17.35 145.85 20.15 145.85 31.15 145.85 36.4 144.7 38.45 143.3 40.95 138.45 42.7 134.5 44.1 128.15 44.35 122.7 44.55 120.9 45.8 123.75 49.25 126.2 53.55 128.55 57.7 128.55 59.05 128.55 65.75 126.6 67.7 124.5 69.85 114.65 72.45 L83.4 80.75 Q56.25 88.45 23.55 100.05 9.0 105.15 -9.1 106.05 L-21.3 106.55 Q-27.35 106.95 -30.8 108.15 -33.65 109.1 -64.8 125.9 L-95.65 142.35 Q-96.65 142.35 -106.4 132.1 L-106.65 131.35 -92.8 129.5 Q-89.2 128.9 -86.55 127.5 -76.85 121.15 -55.5 110.5 -43.55 104.55 -29.5 99.4 L-17.65 95.35 Q-3.6 95.35 25.8 90.7 63.1 84.8 87.55 75.85 96.15 72.7 105.0 70.55 L116.2 68.0 Q120.65 66.85 122.2 65.25 124.0 63.4 124.0 59.3 124.0 53.7 119.25 51.55 116.15 50.15 110.6 50.15 L92.2 52.1 78.65 54.0 Q76.35 54.0 76.35 51.7 76.35 48.3 86.7 46.2 93.25 44.85 123.3 41.0 134.9 39.5 138.85 36.45 142.2 33.85 142.2 27.9 142.2 23.5 139.1 21.6 136.65 20.05 131.95 20.05 L124.85 20.65 114.1 21.25 101.1 22.7 88.2 24.1 85.7 23.5 Q83.5 22.65 82.35 21.35 106.25 14.25 130.4 8.95 137.35 7.0 139.85 4.85 142.55 2.55 142.55 -1.95 142.55 -8.0 139.45 -10.5 136.85 -12.65 131.2 -12.65 L126.0 -11.8 115.2 -9.75 Q101.65 -7.7 95.7 -5.0 92.95 -3.75 77.0 -3.75 74.75 -5.55 74.75 -9.15 74.75 -11.3 81.6 -14.2 85.7 -15.9 96.65 -19.8 118.5 -27.9 118.5 -35.4 118.5 -38.0 116.5 -40.8 114.45 -43.65 112.35 -43.65 100.6 -43.65 82.4 -41.45 L60.35 -38.65 34.15 -40.5 Q12.4 -42.7 3.35 -44.65 L4.2 -45.3 Q5.55 -46.7 10.15 -46.85 L14.35 -46.65" fill="#221d1d" fill-opacity="0.9647059" fill-rule="evenodd" stroke="none"/>
    <path d="M72.35 -55.65 Q71.9 -54.65 70.75 -54.1 68.3 -52.9 62.55 -52.9 L55.65 -53.7 44.05 -54.55 Q35.45 -54.55 26.75 -49.75 22.65 -47.5 20.9 -46.95 L14.35 -46.65 14.35 -47.15 Q12.6 -46.8 10.95 -47.5 9.65 -48.0 9.35 -48.65 12.05 -48.7 14.75 -50.15 L20.1 -53.25 Q28.5 -57.75 43.2 -57.75 56.15 -57.75 72.35 -55.65 M60.35 -38.65 L82.4 -41.45 Q100.6 -43.65 112.35 -43.65 114.45 -43.65 116.5 -40.8 118.5 -38.0 118.5 -35.4 118.5 -27.9 96.65 -19.8 85.7 -15.9 81.6 -14.2 74.75 -11.3 74.75 -9.15 74.75 -5.55 77.0 -3.75 92.95 -3.75 95.7 -5.0 101.65 -7.7 115.2 -9.75 L126.0 -11.8 131.2 -12.65 Q136.85 -12.65 139.45 -10.5 142.55 -8.0 142.55 -1.95 142.55 2.55 139.85 4.85 137.35 7.0 130.4 8.95 106.25 14.25 82.35 21.35 83.5 22.65 85.7 23.5 L88.2 24.1 101.1 22.7 114.1 21.25 124.85 20.65 131.95 20.05 Q136.65 20.05 139.1 21.6 142.2 23.5 142.2 27.9 142.2 33.85 138.85 36.45 134.9 39.5 123.3 41.0 93.25 44.85 86.7 46.2 76.35 48.3 76.35 51.7 76.35 54.0 78.65 54.0 L92.2 52.1 110.6 50.15 Q116.15 50.15 119.25 51.55 124.0 53.7 124.0 59.3 124.0 63.4 122.2 65.25 120.65 66.85 116.2 68.0 L105.0 70.55 Q96.15 72.7 87.55 75.85 63.1 84.8 25.8 90.7 -3.6 95.35 -17.65 95.35 L-29.5 99.4 Q-43.55 104.55 -55.5 110.5 -76.85 121.15 -86.55 127.5 -89.2 128.9 -92.8 129.5 L-106.65 131.35 Q-110.55 130.3 -113.0 125.85 -115.25 120.55 -116.65 118.35 -87.25 114.35 -59.9 93.65 -54.25 89.35 -43.45 79.9 -36.55 73.9 -34.85 73.9 -33.3 73.9 -29.6 76.2 L-21.8 81.25 Q-10.0 88.55 -1.65 88.55 3.05 88.55 24.85 84.3 L47.4 80.0 Q55.7 80.0 61.35 75.0 65.75 71.1 65.75 68.15 65.75 64.9 69.15 54.3 72.55 43.7 72.55 43.1 72.55 41.05 70.35 37.8 67.55 33.7 63.85 33.85 65.4 28.7 67.35 25.75 L70.45 22.2 Q73.45 18.95 73.45 9.1 73.45 5.9 67.2 1.15 L58.35 -5.65 Q64.3 -20.7 66.75 -20.95 67.25 -21.05 67.45 -20.5 L67.45 -22.95 Q67.45 -29.8 63.55 -32.7 61.45 -34.25 61.05 -34.75 60.05 -36.15 60.35 -38.65 M76.35 -27.55 Q77.85 -24.7 80.85 -24.7 91.65 -24.7 97.4 -28.5 102.35 -31.75 102.35 -36.65 102.35 -39.2 91.8 -39.2 84.75 -39.2 80.45 -37.65 75.3 -35.8 75.3 -32.0 75.3 -29.55 76.35 -27.55 M110.05 -5.1 L104.2 -4.1 92.55 -0.85 Q87.35 0.7 87.35 1.35 87.35 6.5 88.25 8.2 89.05 9.65 91.2 9.65 114.8 9.65 120.3 2.1 122.35 -0.75 120.5 -3.15 118.6 -5.5 114.4 -5.5 L110.05 -5.1 M85.35 36.4 Q87.35 38.25 88.65 38.25 106.8 38.25 114.85 34.9 120.35 32.65 120.35 29.35 120.35 27.95 118.15 27.1 116.4 26.45 114.35 26.45 86.15 26.45 83.85 32.35 83.1 34.3 85.35 36.4 M82.6 66.55 Q83.75 67.2 86.95 67.2 93.05 67.2 96.9 65.65 101.6 63.7 103.35 59.35 97.3 55.4 89.45 56.2 81.05 57.05 81.05 63.2 81.05 65.7 82.6 66.55" fill="#d0d0d0" fill-rule="evenodd" stroke="none"/>
    <path d="M14.35 -46.65 L10.15 -46.85 Q5.55 -46.7 4.2 -45.3 L3.35 -44.65 Q12.4 -42.7 34.15 -40.5 L60.35 -38.65 Q60.05 -36.15 61.05 -34.75 61.45 -34.25 63.55 -32.7 67.45 -29.8 67.45 -22.95 L67.45 -20.5 Q67.25 -21.05 66.75 -20.95 64.3 -20.7 58.35 -5.65 L67.2 1.15 Q73.45 5.9 73.45 9.1 73.45 18.95 70.45 22.2 L67.35 25.75 Q65.4 28.7 63.85 33.85 67.55 33.7 70.35 37.8 72.55 41.05 72.55 43.1 72.55 43.7 69.15 54.3 65.75 64.9 65.75 68.15 65.75 71.1 61.35 75.0 55.7 80.0 47.4 80.0 L24.85 84.3 Q3.05 88.55 -1.65 88.55 -10.0 88.55 -21.8 81.25 L-29.6 76.2 Q-33.3 73.9 -34.85 73.9 -36.55 73.9 -43.45 79.9 -54.25 89.35 -59.9 93.65 -87.25 114.35 -116.65 118.35 -116.75 117.4 -118.8 113.35 L-123.4 104.0 Q-130.2 89.0 -131.65 75.35 -127.35 71.15 -101.85 53.1 -77.4 35.8 -75.0 32.85 -61.5 16.15 -51.35 2.2 -37.4 -17.0 -32.85 -26.85 -24.45 -45.0 -2.6 -60.75 5.3 -66.4 12.9 -70.25 19.55 -73.65 21.65 -73.65 51.05 -73.65 65.35 -65.65 72.5 -61.65 73.8 -57.6 73.8 -57.15 72.35 -55.65 56.15 -57.75 43.2 -57.75 28.5 -57.75 20.1 -53.25 L14.75 -50.15 Q12.05 -48.7 9.35 -48.65 9.65 -48.0 10.95 -47.5 12.6 -46.8 14.35 -47.15 L14.35 -46.65 M76.35 -27.55 Q75.3 -29.55 75.3 -32.0 75.3 -35.8 80.45 -37.65 84.75 -39.2 91.8 -39.2 102.35 -39.2 102.35 -36.65 102.35 -31.75 97.4 -28.5 91.65 -24.7 80.85 -24.7 77.85 -24.7 76.35 -27.55 M82.6 66.55 Q81.05 65.7 81.05 63.2 81.05 57.05 89.45 56.2 97.3 55.4 103.35 59.35 101.6 63.7 96.9 65.65 93.05 67.2 86.95 67.2 83.75 67.2 82.6 66.55 M85.35 36.4 Q83.1 34.3 83.85 32.35 86.15 26.45 114.35 26.45 116.4 26.45 118.15 27.1 120.35 27.95 120.35 29.35 120.35 32.65 114.85 34.9 106.8 38.25 88.65 38.25 87.35 38.25 85.35 36.4 M110.05 -5.1 L114.4 -5.5 Q118.6 -5.5 120.5 -3.15 122.35 -0.75 120.3 2.1 114.8 9.65 91.2 9.65 89.05 9.65 88.25 8.2 87.35 6.5 87.35 1.35 87.35 0.7 92.55 -0.85 L104.2 -4.1 110.05 -5.1" fill="#ffffff" fill-rule="evenodd" stroke="none"/>
  </g>
</svg>
