<?xml version="1.0" encoding="UTF-8" standalone="no"?>
<svg xmlns:ffdec="https://www.free-decompiler.com/flash" xmlns:xlink="http://www.w3.org/1999/xlink" ffdec:objectType="shape" height="245.9px" width="325.4px" xmlns="http://www.w3.org/2000/svg">
  <g transform="matrix(1.0, 0.0, 0.0, 1.0, 132.65, 103.55)">
    <path d="M-131.65 75.35 L-132.5 75.3 -132.65 65.35 Q-132.65 64.05 -119.9 57.1 -101.95 47.5 -91.5 41.65 -81.6 36.05 -73.8 26.25 -70.45 22.05 -67.55 16.5 -63.0 7.75 -57.35 -1.35 -53.0 -8.4 -44.2 -18.85 -37.45 -26.9 -34.65 -33.6 -28.3 -48.9 -12.65 -60.2 L-0.05 -68.55 Q7.25 -73.3 10.95 -76.8 16.1 -81.7 39.35 -93.1 50.95 -98.8 61.6 -103.55 67.25 -103.55 69.7 -100.45 71.8 -97.8 71.8 -92.3 71.8 -84.3 58.9 -69.75 44.75 -53.75 28.35 -46.65 L38.15 -44.5 Q43.8 -43.1 47.9 -43.1 L58.35 -44.05 Q62.95 -44.05 75.25 -47.5 L100.5 -55.05 Q136.8 -66.1 150.0 -66.1 158.85 -66.1 164.5 -62.3 169.5 -58.95 169.5 -54.75 169.5 -50.5 168.9 -48.7 168.1 -46.35 165.5 -44.45 162.3 -42.15 140.95 -33.0 L110.3 -19.25 Q98.2 -13.9 88.35 -11.65 L89.65 -11.4 92.4 -11.3 130.15 -19.5 Q168.65 -27.75 175.55 -27.75 186.3 -27.75 189.9 -23.7 192.75 -20.55 192.75 -11.95 192.75 -5.5 189.7 -2.45 186.9 0.3 178.95 2.6 L158.25 7.95 Q141.65 12.4 125.35 18.35 L133.05 18.55 154.7 16.7 173.15 14.85 Q182.1 14.85 185.9 16.65 191.2 19.15 191.2 26.25 191.2 35.0 182.2 40.1 174.5 44.4 159.0 46.6 148.4 48.1 127.5 49.2 L93.35 51.35 Q101.05 53.55 117.4 54.85 L145.3 56.1 Q153.1 56.2 157.95 61.85 161.35 65.85 161.35 68.35 161.35 77.7 149.95 82.1 141.65 85.35 130.15 85.35 L108.6 84.15 89.35 82.95 Q87.45 82.95 72.65 86.45 56.1 90.4 39.6 95.05 14.4 102.2 3.0 103.4 -11.4 104.15 -28.65 106.35 -43.75 108.3 -68.45 125.65 L-84.75 137.2 Q-92.5 142.35 -95.65 142.35 -96.65 142.35 -106.4 132.1 L-106.65 131.35 -93.55 129.55 Q-89.2 128.65 -85.2 126.75 -72.85 119.55 -55.5 110.5 -43.65 104.4 -29.55 99.25 L-17.65 95.35 Q14.3 95.35 48.5 86.95 L72.15 81.15 Q84.5 78.5 94.1 78.5 L111.05 79.65 134.85 80.8 Q145.45 80.8 151.3 77.25 156.35 74.15 156.35 69.6 156.35 61.05 115.3 58.2 L87.05 56.5 Q74.2 55.55 74.2 53.8 74.2 51.95 77.15 50.1 81.05 47.7 87.7 47.7 L125.95 44.0 168.55 39.15 Q178.7 38.2 183.2 34.65 186.6 32.0 186.6 28.15 186.6 24.35 183.8 21.45 180.6 18.2 175.35 18.2 L160.75 20.45 Q143.45 22.65 129.85 22.65 119.05 22.65 110.1 23.15 101.1 23.65 85.55 23.65 83.45 23.65 82.35 21.35 123.25 10.6 166.1 2.6 178.85 -0.3 183.4 -3.2 188.5 -6.45 188.5 -12.5 188.5 -18.3 185.65 -20.3 182.7 -22.4 174.15 -22.4 168.95 -22.4 124.45 -12.9 L80.75 -3.45 Q78.85 -3.45 77.15 -4.7 74.9 -6.4 74.9 -9.5 74.9 -13.65 98.9 -22.65 L129.35 -33.6 Q148.15 -42.0 161.45 -46.9 164.45 -48.25 165.0 -49.5 165.35 -50.25 165.35 -53.65 165.35 -57.45 161.7 -59.8 158.15 -62.1 152.6 -62.1 148.2 -62.1 105.3 -50.4 62.3 -38.7 60.35 -38.65 L41.1 -40.75 21.4 -42.9 14.75 -42.9 Q12.35 -43.25 11.35 -45.65 L12.35 -45.65 Q21.8 -45.6 32.25 -50.95 41.75 -55.8 50.3 -64.05 58.45 -71.9 63.4 -80.45 68.45 -89.15 68.45 -95.55 68.45 -96.9 67.0 -98.35 65.15 -100.2 62.3 -100.2 61.25 -100.2 59.7 -99.45 58.05 -98.6 57.35 -97.65 53.55 -94.05 50.5 -92.5 L43.35 -89.4 Q29.6 -83.4 3.65 -65.25 -9.75 -55.9 -12.95 -53.15 -26.15 -42.05 -30.1 -31.55 -33.85 -21.55 -48.1 -2.3 -56.1 8.55 -72.15 29.4 -81.6 42.3 -102.35 55.55 L-118.3 65.5 Q-126.95 71.05 -131.65 75.35" fill="#231e1f" fill-opacity="0.972549" fill-rule="evenodd" stroke="none"/>
    <path d="M-131.65 75.35 Q-126.95 71.05 -118.3 65.5 L-102.35 55.55 Q-81.6 42.3 -72.15 29.4 -56.1 8.55 -48.1 -2.3 -33.85 -21.55 -30.1 -31.55 -26.15 -42.05 -12.95 -53.15 -9.75 -55.9 3.65 -65.25 29.6 -83.4 43.35 -89.4 L50.5 -92.5 Q53.55 -94.05 57.35 -97.65 60.3 -97.05 60.15 -92.95 59.45 -88.4 59.45 -87.3 59.45 -75.8 38.15 -61.35 32.15 -57.25 22.25 -51.6 13.6 -46.65 12.35 -45.65 L11.35 -45.65 Q12.35 -43.25 14.75 -42.9 L21.4 -42.9 41.1 -40.75 60.35 -38.65 Q60.05 -36.15 61.05 -34.75 61.45 -34.25 63.55 -32.7 67.45 -29.8 67.45 -22.95 L67.45 -20.5 Q67.25 -21.05 66.75 -20.95 64.3 -20.7 58.35 -5.65 L67.2 1.15 Q73.45 5.9 73.45 9.1 73.45 18.95 70.45 22.2 L67.35 25.75 Q65.4 28.7 63.85 33.85 67.55 33.7 70.35 37.8 72.55 41.05 72.55 43.1 72.55 43.7 69.15 54.3 65.75 64.9 65.75 68.15 65.75 71.1 61.35 75.0 55.7 80.0 47.4 80.0 L24.85 84.3 Q3.05 88.55 -1.65 88.55 -10.0 88.55 -21.8 81.25 L-29.6 76.2 Q-33.3 73.9 -34.85 73.9 -36.55 73.9 -43.45 79.9 -54.25 89.35 -59.9 93.65 -87.25 114.35 -116.65 118.35 -116.75 117.4 -118.8 113.35 L-123.4 104.0 Q-130.2 89.0 -131.65 75.35 M77.4 -29.4 Q75.35 -30.85 75.35 -34.65 75.35 -37.5 83.55 -41.65 91.95 -45.9 98.25 -45.9 102.75 -45.9 105.0 -44.4 107.5 -42.75 107.5 -39.1 107.5 -36.25 102.9 -32.6 96.75 -27.7 86.8 -27.7 79.85 -27.7 77.4 -29.4 M132.25 63.7 Q136.85 63.7 140.1 65.2 143.35 66.7 143.35 68.85 143.35 71.0 140.1 72.5 136.85 74.0 132.25 74.0 127.65 74.0 124.4 72.5 121.15 71.0 121.15 68.85 121.15 66.7 124.4 65.2 127.65 63.7 132.25 63.7 M105.7 63.55 Q110.6 66.15 110.6 68.9 110.6 70.9 108.0 72.25 105.3 73.7 101.05 73.7 88.95 73.7 84.35 70.6 81.25 68.45 81.25 64.15 81.25 62.2 84.05 61.25 86.45 60.45 90.6 60.45 99.8 60.45 105.7 63.55 M126.05 35.1 Q125.55 37.3 124.2 38.0 120.75 39.85 93.35 39.85 90.0 39.85 88.4 38.5 86.35 36.75 86.35 32.35 86.35 30.4 91.1 28.85 97.6 26.8 110.75 26.8 114.5 26.8 120.65 28.15 126.05 29.35 128.35 30.35 126.7 32.3 126.05 35.1 M173.35 23.85 Q174.25 23.85 175.2 24.45 176.35 25.2 176.35 26.35 176.35 30.15 170.35 32.95 163.55 36.15 152.45 36.15 145.95 36.15 144.0 34.85 142.35 33.8 142.35 30.35 142.35 27.95 147.35 26.35 155.1 23.85 173.35 23.85 M138.35 -8.65 Q138.35 -10.6 148.45 -12.9 157.6 -15.0 162.35 -15.0 164.45 -15.0 165.95 -14.05 168.05 -12.75 168.05 -10.05 168.05 -6.25 144.25 -1.0 141.95 -1.0 140.25 -2.85 138.35 -5.0 138.35 -8.65 M88.85 -0.7 Q93.1 -2.85 98.45 -3.35 L113.0 -6.35 118.75 -7.25 Q121.9 -7.25 124.5 -5.7 127.35 -4.05 127.35 -1.65 127.35 1.0 125.55 2.75 124.0 4.25 121.45 4.8 L118.15 5.0 Q117.05 4.95 107.25 7.75 L95.25 11.45 92.0 11.7 Q89.9 11.7 87.45 10.0 84.35 7.8 84.35 4.35 84.35 1.6 88.85 -0.7 M125.3 -52.0 Q133.25 -56.35 142.15 -56.35 L145.9 -56.0 Q147.35 -55.5 147.35 -54.0 147.35 -48.55 143.4 -45.2 137.5 -40.15 123.35 -40.15 121.0 -40.15 119.8 -41.1 118.3 -42.3 118.3 -45.2 118.3 -48.15 125.3 -52.0" fill="#ffffff" fill-rule="evenodd" stroke="none"/>
    <path d="M57.35 -97.65 Q58.05 -98.6 59.7 -99.45 61.25 -100.2 62.3 -100.2 65.15 -100.2 67.0 -98.35 68.45 -96.9 68.45 -95.55 68.45 -89.15 63.4 -80.45 58.45 -71.9 50.3 -64.05 41.75 -55.8 32.25 -50.95 21.8 -45.6 12.35 -45.65 13.6 -46.65 22.25 -51.6 32.15 -57.25 38.15 -61.35 59.45 -75.8 59.45 -87.3 59.45 -88.4 60.15 -92.95 60.3 -97.05 57.35 -97.65 M60.35 -38.65 Q62.3 -38.7 105.3 -50.4 148.2 -62.1 152.6 -62.1 158.15 -62.1 161.7 -59.8 165.35 -57.45 165.35 -53.65 165.35 -50.25 165.0 -49.5 164.45 -48.25 161.45 -46.9 148.15 -42.0 129.35 -33.6 L98.9 -22.65 Q74.9 -13.65 74.9 -9.5 74.9 -6.4 77.15 -4.7 78.85 -3.45 80.75 -3.45 L124.45 -12.9 Q168.95 -22.4 174.15 -22.4 182.7 -22.4 185.65 -20.3 188.5 -18.3 188.5 -12.5 188.5 -6.45 183.4 -3.2 178.85 -0.3 166.1 2.6 123.25 10.6 82.35 21.35 83.45 23.65 85.55 23.65 101.1 23.65 110.1 23.15 119.05 22.65 129.85 22.65 143.45 22.65 160.75 20.45 L175.35 18.2 Q180.6 18.2 183.8 21.45 186.6 24.35 186.6 28.15 186.6 32.0 183.2 34.65 178.7 38.2 168.55 39.15 L125.95 44.0 87.7 47.7 Q81.05 47.7 77.15 50.1 74.2 51.95 74.2 53.8 74.2 55.55 87.05 56.5 L115.3 58.2 Q156.35 61.05 156.35 69.6 156.35 74.15 151.3 77.25 145.45 80.8 134.85 80.8 L111.05 79.65 94.1 78.5 Q84.5 78.5 72.15 81.15 L48.5 86.95 Q14.3 95.35 -17.65 95.35 L-29.55 99.25 Q-43.65 104.4 -55.5 110.5 -72.85 119.55 -85.2 126.75 -89.2 128.65 -93.55 129.55 L-106.65 131.35 Q-110.55 130.3 -113.0 125.85 -115.25 120.55 -116.65 118.35 -87.25 114.35 -59.9 93.65 -54.25 89.35 -43.45 79.9 -36.55 73.9 -34.85 73.9 -33.3 73.9 -29.6 76.2 L-21.8 81.25 Q-10.0 88.55 -1.65 88.55 3.05 88.55 24.85 84.3 L47.4 80.0 Q55.7 80.0 61.35 75.0 65.75 71.1 65.75 68.15 65.75 64.9 69.15 54.3 72.55 43.7 72.55 43.1 72.55 41.05 70.35 37.8 67.55 33.7 63.85 33.85 65.4 28.7 67.35 25.75 L70.45 22.2 Q73.45 18.95 73.45 9.1 73.45 5.9 67.2 1.15 L58.35 -5.65 Q64.3 -20.7 66.75 -20.95 67.25 -21.05 67.45 -20.5 L67.45 -22.95 Q67.45 -29.8 63.55 -32.7 61.45 -34.25 61.05 -34.75 60.05 -36.15 60.35 -38.65 M77.4 -29.4 Q79.85 -27.7 86.8 -27.7 96.75 -27.7 102.9 -32.6 107.5 -36.25 107.5 -39.1 107.5 -42.75 105.0 -44.4 102.75 -45.9 98.25 -45.9 91.95 -45.9 83.55 -41.65 75.35 -37.5 75.35 -34.65 75.35 -30.85 77.4 -29.4 M125.3 -52.0 Q118.3 -48.15 118.3 -45.2 118.3 -42.3 119.8 -41.1 121.0 -40.15 123.35 -40.15 137.5 -40.15 143.4 -45.2 147.35 -48.55 147.35 -54.0 147.35 -55.5 145.9 -56.0 L142.15 -56.35 Q133.25 -56.35 125.3 -52.0 M88.85 -0.7 Q84.35 1.6 84.35 4.35 84.35 7.8 87.45 10.0 89.9 11.7 92.0 11.7 L95.25 11.45 107.25 7.75 Q117.05 4.95 118.15 5.0 L121.45 4.8 Q124.0 4.25 125.55 2.75 127.35 1.0 127.35 -1.65 127.35 -4.05 124.5 -5.7 121.9 -7.25 118.75 -7.25 L113.0 -6.35 98.45 -3.35 Q93.1 -2.85 88.85 -0.7 M138.35 -8.65 Q138.35 -5.0 140.25 -2.85 141.95 -1.0 144.25 -1.0 168.05 -6.25 168.05 -10.05 168.05 -12.75 165.95 -14.05 164.45 -15.0 162.35 -15.0 157.6 -15.0 148.45 -12.9 138.35 -10.6 138.35 -8.65 M173.35 23.85 Q155.1 23.85 147.35 26.35 142.35 27.95 142.35 30.35 142.35 33.8 144.0 34.85 145.95 36.15 152.45 36.15 163.55 36.15 170.35 32.95 176.35 30.15 176.35 26.35 176.35 25.2 175.2 24.45 174.25 23.85 173.35 23.85 M126.05 35.1 Q126.7 32.3 128.35 30.35 126.05 29.35 120.65 28.15 114.5 26.8 110.75 26.8 97.6 26.8 91.1 28.85 86.35 30.4 86.35 32.35 86.35 36.75 88.4 38.5 90.0 39.85 93.35 39.85 120.75 39.85 124.2 38.0 125.55 37.3 126.05 35.1 M105.7 63.55 Q99.8 60.45 90.6 60.45 86.45 60.45 84.05 61.25 81.25 62.2 81.25 64.15 81.25 68.45 84.35 70.6 88.95 73.7 101.05 73.7 105.3 73.7 108.0 72.25 110.6 70.9 110.6 68.9 110.6 66.15 105.7 63.55 M132.25 63.7 Q127.65 63.7 124.4 65.2 121.15 66.7 121.15 68.85 121.15 71.0 124.4 72.5 127.65 74.0 132.25 74.0 136.85 74.0 140.1 72.5 143.35 71.0 143.35 68.85 143.35 66.7 140.1 65.2 136.85 63.7 132.25 63.7" fill="#d0d0d0" fill-rule="evenodd" stroke="none"/>
  </g>
</svg>
