<?xml version="1.0" encoding="UTF-8" standalone="no"?>
<svg xmlns:ffdec="https://www.free-decompiler.com/flash" xmlns:xlink="http://www.w3.org/1999/xlink" ffdec:objectType="shape" height="17.95px" width="17.7px" xmlns="http://www.w3.org/2000/svg">
  <g transform="matrix(1.0, 0.0, 0.0, 1.0, 8.85, 8.9)">
    <path d="M-6.45 -0.15 L-6.35 -0.35 Q-6.75 -2.1 -6.0 -3.65 -4.9 -5.85 -3.35 -7.65 L-2.65 -7.95 -0.85 -8.7 3.5 -8.5 5.25 -7.7 5.4 -7.65 Q7.5 -6.4 8.65 -3.9 L8.8 -2.65 8.65 -0.55 8.5 -0.3 Q7.75 2.15 5.85 3.95 L5.85 4.0 5.55 4.45 Q4.45 5.55 2.8 5.8 L1.55 5.95 1.5 5.85 1.55 5.55 Q4.45 3.55 6.5 0.55 6.9 -0.05 6.95 -0.7 7.25 -5.3 3.05 -7.55 L2.95 -7.45 2.15 -7.55 -0.8 -6.8 -2.15 -6.05 Q-4.8 -4.3 -5.45 -1.0 L-5.45 -0.75 -5.55 -0.45 Q-5.75 -0.1 -6.1 0.1 L-6.45 -0.15" fill="#999999" fill-rule="evenodd" stroke="none"/>
    <path d="M5.55 -0.5 L5.45 -0.6 3.7 -3.1 3.3 -3.1 3.05 -3.2 Q2.3 -2.85 2.2 -2.0 L1.85 -0.75 2.0 -0.15 2.65 0.65 2.65 0.85 3.65 1.85 Q1.55 3.5 -1.1 4.2 L-2.6 4.4 -2.75 4.25 -3.05 3.95 -3.25 3.8 -3.35 3.7 -3.6 3.5 -4.05 3.15 -4.25 3.05 -4.4 1.8 Q-4.4 0.45 -3.9 -0.75 L-4.0 -0.9 -3.1 -2.85 -2.55 -3.4 -1.25 -2.2 -0.45 -2.25 Q1.3 -2.55 2.15 -3.9 L2.0 -4.45 1.05 -5.15 -0.2 -5.65 -0.1 -5.8 1.55 -6.05 Q4.1 -5.45 5.35 -2.95 6.0 -1.7 5.55 -0.5 M-1.1 -0.55 L-1.25 -0.45 Q-2.5 -0.4 -3.25 0.6 L-3.1 1.35 -1.35 2.9 -0.55 2.7 -0.45 2.35 0.05 0.5 Q-0.1 -0.6 -1.1 -0.55" fill="#ffffff" fill-rule="evenodd" stroke="none"/>
    <path d="M3.65 1.85 L2.65 0.85 2.65 0.65 2.0 -0.15 1.85 -0.75 2.2 -2.0 Q2.3 -2.85 3.05 -3.2 L3.3 -3.1 3.7 -3.1 5.45 -0.6 5.55 -0.5 Q5.65 1.05 4.55 2.05 L4.3 2.25 3.9 2.05 3.65 1.85 M-0.2 -5.65 L1.05 -5.15 2.0 -4.45 2.15 -3.9 Q1.3 -2.55 -0.45 -2.25 L-1.25 -2.2 -2.55 -3.4 -2.85 -3.95 -2.85 -4.2 -2.0 -5.2 -1.15 -5.45 -0.2 -5.65 M1.0 -4.9 L-0.45 -5.2 -0.8 -5.2 Q-1.85 -4.9 -2.45 -4.1 -2.1 -3.1 -1.1 -2.5 -0.2 -5.15 1.75 -3.8 L1.0 -4.9 M3.55 -2.65 L2.9 -2.7 2.3 -0.85 Q2.8 0.85 4.3 1.8 L5.05 1.05 5.05 0.2 4.9 0.1 4.8 -0.8 4.9 -1.05 3.55 -2.65 M-1.1 -0.55 Q-0.1 -0.6 0.05 0.5 L-0.45 2.35 -0.55 2.7 -1.35 2.9 -3.1 1.35 -3.25 0.6 Q-2.5 -0.4 -1.25 -0.45 L-1.1 -0.55 M-0.95 -0.2 L-1.3 0.1 -1.5 -0.05 Q-2.35 0.05 -2.8 0.7 L-2.6 1.15 -1.25 2.5 -0.85 2.35 -0.4 0.5 -0.6 -0.05 -0.95 -0.2 M-0.4 7.7 L-0.55 7.9 -0.3 7.2 -0.4 7.7" fill="#333333" fill-rule="evenodd" stroke="none"/>
    <path d="M-6.45 -0.15 L-6.1 0.1 Q-5.75 -0.1 -5.55 -0.45 L-5.45 -0.75 -5.45 -1.0 Q-4.8 -4.3 -2.15 -6.05 L-0.8 -6.8 2.15 -7.55 2.95 -7.45 3.05 -7.55 Q7.25 -5.3 6.95 -0.7 6.9 -0.05 6.5 0.55 4.45 3.55 1.55 5.55 L1.5 5.85 1.55 5.95 1.25 6.1 0.8 6.85 0.2 6.6 0.65 6.95 0.25 7.7 -1.1 9.05 -2.35 9.0 Q-3.95 9.1 -5.1 8.15 L-7.9 5.45 Q-9.0 4.3 -8.8 2.8 L-8.25 2.25 -6.45 -0.15 M5.55 -0.5 Q6.0 -1.7 5.35 -2.95 4.1 -5.45 1.55 -6.05 L-0.1 -5.8 -0.2 -5.65 -1.15 -5.45 -2.0 -5.2 -2.85 -4.2 -2.85 -3.95 -2.55 -3.4 -3.1 -2.85 -4.0 -0.9 -3.9 -0.75 Q-4.4 0.45 -4.4 1.8 L-4.25 3.05 -4.65 2.8 -4.95 2.7 -5.4 2.6 -6.05 2.7 -6.6 2.9 -6.95 3.1 -7.1 3.2 -7.1 3.3 -6.8 3.4 -6.5 3.5 Q-5.55 3.8 -4.75 4.4 L-4.25 4.85 -3.7 5.55 -2.65 6.75 -2.7 8.05 -2.3 7.55 -2.3 7.5 -2.2 7.35 -2.05 7.1 -1.65 6.3 -1.55 6.15 -1.65 6.05 -1.65 5.9 -1.7 5.45 -1.65 5.35 -2.6 4.4 -1.1 4.2 Q1.55 3.5 3.65 1.85 L3.9 2.05 4.3 2.25 4.55 2.05 Q5.65 1.05 5.55 -0.5 M-8.7 4.7 L-7.6 6.3 -8.2 5.45 -8.7 4.7 M-0.4 7.7 L-0.3 7.2 -0.55 7.9 -0.4 7.7 M-3.0 7.85 L-3.35 7.65 -3.2 7.85 -3.0 7.85" fill="#cccccc" fill-rule="evenodd" stroke="none"/>
    <path d="M-3.6 3.5 L-3.35 3.7 -3.25 3.8 -3.05 3.95 -2.75 4.25 -2.6 4.4 -1.7 5.45 -1.65 5.9 -1.65 6.05 -1.55 6.15 -1.65 6.3 -2.05 7.1 -2.2 7.35 -2.3 7.5 -2.3 7.55 -2.7 8.05 -2.65 6.75 -3.7 5.55 -4.25 4.85 -4.75 4.4 Q-5.55 3.8 -6.5 3.5 L-6.8 3.4 -7.1 3.3 -7.1 3.2 -6.95 3.1 -6.6 2.9 -6.05 2.7 -5.4 2.6 -4.95 2.7 -4.65 2.8 -4.25 3.05 -4.05 3.2 Q-3.85 3.3 -3.6 3.5 M3.55 -2.65 L4.9 -1.05 4.8 -0.8 4.9 0.1 5.05 0.2 5.05 1.05 4.3 1.8 Q2.8 0.85 2.3 -0.85 L2.9 -2.7 3.55 -2.65 M1.0 -4.9 L1.75 -3.8 Q-0.2 -5.15 -1.1 -2.5 -2.1 -3.1 -2.45 -4.1 -1.85 -4.9 -0.8 -5.2 L-0.45 -5.2 1.0 -4.9 M-0.95 -0.2 L-0.6 -0.05 -0.4 0.5 -0.85 2.35 -1.25 2.5 -2.6 1.15 -2.8 0.7 Q-2.35 0.05 -1.5 -0.05 L-1.3 0.1 -0.95 -0.2 M-3.0 7.85 L-3.2 7.85 -3.35 7.65 -3.0 7.85" fill="#000000" fill-rule="evenodd" stroke="none"/>
  </g>
</svg>
