<?xml version="1.0" encoding="UTF-8" standalone="no"?>
<svg xmlns:ffdec="https://www.free-decompiler.com/flash" xmlns:xlink="http://www.w3.org/1999/xlink" ffdec:objectType="shape" height="161.8px" width="71.7px" xmlns="http://www.w3.org/2000/svg">
  <g transform="matrix(1.0, 0.0, 0.0, 1.0, 36.5, 11.2)">
    <path d="M0.25 -11.2 Q19.45 -11.2 28.6 -0.35 35.2 7.5 35.2 18.35 35.2 26.3 32.15 39.8 30.6 46.85 23.55 73.75 L17.0 96.9 6.0 135.6 4.0 143.15 Q2.9 146.85 2.05 147.5 -2.25 150.6 -5.65 150.6 -8.9 150.6 -12.75 147.9 -17.2 144.8 -17.2 140.85 -17.2 139.85 -12.8 125.8 L2.7 70.8 Q12.45 37.0 17.15 22.0 17.15 16.9 14.05 12.65 10.15 7.3 3.15 7.3 -5.2 7.3 -9.3 10.75 -12.0 12.95 -14.0 18.3 -16.15 24.0 -17.85 25.8 -21.1 29.25 -27.95 29.25 -32.2 29.25 -34.4 26.5 -36.5 23.9 -36.5 19.25 -36.5 9.4 -25.55 -0.55 -13.8 -11.2 0.25 -11.2 M13.65 -2.0 L13.45 1.05 Q13.0 4.2 11.7 5.8 L18.6 11.35 Q20.95 11.2 21.65 9.9 22.85 7.7 22.85 0.35 22.85 -0.6 20.6 -2.9 17.4 -6.2 12.45 -7.0 13.65 -3.4 13.65 -2.0 M0.5 -9.5 L-7.2 -7.85 Q-3.05 -4.7 -1.8 -1.75 -1.4 -0.85 -1.05 2.1 -0.85 3.65 0.8 4.15 L9.55 4.75 Q10.7 4.75 11.05 2.5 11.45 0.25 10.6 -2.35 8.25 -9.5 0.5 -9.5 M-13.65 -6.2 L-16.45 -5.0 -20.1 -2.45 Q-19.05 -1.9 -14.8 2.0 -10.6 5.9 -10.0 6.8 -6.55 5.4 -2.95 4.15 -2.95 2.15 -5.65 -1.95 -8.8 -6.7 -11.75 -6.7 L-13.65 -6.2 M-13.55 6.1 Q-14.7 3.6 -17.1 1.85 -19.65 0.05 -22.45 0.05 -23.05 0.05 -23.9 1.05 L-25.8 3.25 -28.6 6.8 Q-26.15 7.55 -23.1 9.3 -19.0 11.65 -17.45 14.15 -14.2 13.2 -13.25 10.8 -12.4 8.7 -13.55 6.1 M-19.55 17.0 Q-21.3 10.05 -29.55 10.05 L-31.25 13.0 -33.15 16.65 -26.6 20.3 Q-22.65 22.4 -22.3 25.45 -20.45 24.7 -19.65 22.2 -18.85 19.75 -19.55 17.0 M-34.45 20.6 Q-33.35 24.6 -32.25 25.95 -30.6 27.9 -27.0 27.9 L-24.05 27.2 Q-24.3 24.65 -27.0 22.5 -30.2 20.0 -34.45 20.6 M-7.85 123.05 L-9.85 129.85 -8.3 130.7 Q-6.75 131.35 -4.6 131.35 -0.1 131.35 2.55 128.55 5.4 125.5 6.6 118.6 2.6 120.95 -7.0 119.9 L-7.85 123.05 M-1.2 117.85 Q3.75 117.85 6.2 115.35 9.95 111.5 11.7 100.35 10.0 101.65 6.1 102.3 1.5 103.05 -2.05 101.85 -3.85 105.45 -4.75 109.75 -5.8 114.9 -6.3 116.2 -7.35 116.25 -4.9 117.05 -2.45 117.85 -1.2 117.85 M-10.55 146.05 Q-8.3 147.3 -4.45 147.3 -2.15 147.3 -0.85 145.0 1.05 141.8 2.8 132.2 L-3.75 132.65 -10.4 132.9 -13.5 143.2 Q-12.1 145.2 -10.55 146.05 M24.45 7.7 Q23.15 12.45 19.05 14.45 L19.05 22.2 Q21.6 22.2 26.85 20.2 33.0 17.85 33.0 15.5 33.0 10.55 30.15 5.7 27.7 1.4 25.3 0.35 L24.45 7.7 M15.95 35.85 Q18.35 37.25 19.95 37.25 25.75 37.25 29.2 33.55 33.5 28.95 33.2 19.45 19.8 24.85 18.7 25.0 L15.95 35.85 M15.15 39.95 L11.15 52.7 11.2 53.5 16.5 53.75 Q20.85 53.75 23.85 50.9 28.4 46.6 29.3 36.3 L26.0 38.15 Q24.35 38.95 22.75 39.35 L19.1 39.85 15.15 39.95 M24.65 53.05 Q22.55 54.75 18.65 56.0 15.5 56.95 13.4 57.1 L10.55 56.35 Q9.05 63.65 7.45 67.35 L10.1 68.3 13.05 68.8 Q19.25 68.8 21.35 64.3 23.15 57.55 24.65 53.05 M6.6 70.9 Q6.45 70.9 2.35 85.85 L4.7 86.4 7.8 86.85 Q12.1 86.85 15.2 83.85 19.7 79.5 20.25 69.65 L13.45 70.35 6.6 70.9 M1.75 89.05 L-1.2 98.6 1.65 99.55 4.85 99.75 Q8.95 99.75 11.75 97.1 15.35 93.75 15.4 86.95 11.45 88.7 9.2 89.3 L1.75 89.05" fill="#010101" fill-opacity="0.9882353" fill-rule="evenodd" stroke="none"/>
    <path d="M0.5 -9.5 Q8.25 -9.5 10.6 -2.35 11.45 0.25 11.05 2.5 10.7 4.75 9.55 4.75 L0.8 4.15 Q-0.85 3.65 -1.05 2.1 -1.4 -0.85 -1.8 -1.75 -3.05 -4.7 -7.2 -7.85 L0.5 -9.5 M-13.55 6.1 Q-12.4 8.7 -13.25 10.8 -14.2 13.2 -17.45 14.15 -19.0 11.65 -23.1 9.3 -26.15 7.55 -28.6 6.8 L-25.8 3.25 -23.9 1.05 Q-23.05 0.05 -22.45 0.05 -19.65 0.05 -17.1 1.85 -14.7 3.6 -13.55 6.1 M-34.45 20.6 Q-30.2 20.0 -27.0 22.5 -24.3 24.65 -24.05 27.2 L-27.0 27.9 Q-30.6 27.9 -32.25 25.95 -33.35 24.6 -34.45 20.6 M24.45 7.7 L25.3 0.35 Q27.7 1.4 30.15 5.7 33.0 10.55 33.0 15.5 33.0 17.85 26.85 20.2 21.6 22.2 19.05 22.2 L19.05 14.45 Q23.15 12.45 24.45 7.7 M-10.55 146.05 Q-12.1 145.2 -13.5 143.2 L-10.4 132.9 -3.75 132.65 2.8 132.2 Q1.05 141.8 -0.85 145.0 -2.15 147.3 -4.45 147.3 -8.3 147.3 -10.55 146.05 M-1.2 117.85 Q-2.45 117.85 -4.9 117.05 -7.35 116.25 -6.3 116.2 -5.8 114.9 -4.75 109.75 -3.85 105.45 -2.05 101.85 1.5 103.05 6.1 102.3 10.0 101.65 11.7 100.35 9.95 111.5 6.2 115.35 3.75 117.85 -1.2 117.85 M15.15 39.95 L19.1 39.85 22.75 39.35 Q24.35 38.95 26.0 38.15 L29.3 36.3 Q28.4 46.6 23.85 50.9 20.85 53.75 16.5 53.75 L11.2 53.5 11.15 52.7 15.15 39.95 M6.6 70.9 L13.45 70.35 20.25 69.65 Q19.7 79.5 15.2 83.85 12.1 86.85 7.8 86.85 L4.7 86.4 2.35 85.85 Q6.45 70.9 6.6 70.9" fill="#ffffff" fill-rule="evenodd" stroke="none"/>
    <path d="M13.65 -2.0 Q13.65 -3.4 12.45 -7.0 17.4 -6.2 20.6 -2.9 22.85 -0.6 22.85 0.35 22.85 7.7 21.65 9.9 20.95 11.2 18.6 11.35 L11.7 5.8 Q13.0 4.2 13.45 1.05 L13.65 -2.0 M-13.65 -6.2 L-11.75 -6.7 Q-8.8 -6.7 -5.65 -1.95 -2.95 2.15 -2.95 4.15 -6.55 5.4 -10.0 6.8 -10.6 5.9 -14.8 2.0 -19.05 -1.9 -20.1 -2.45 L-16.45 -5.0 -13.65 -6.2 M-19.55 17.0 Q-18.85 19.75 -19.65 22.2 -20.45 24.7 -22.3 25.45 -22.65 22.4 -26.6 20.3 L-33.15 16.65 -31.25 13.0 -29.55 10.05 Q-21.3 10.05 -19.55 17.0 M-7.85 123.05 L-7.0 119.9 Q2.6 120.95 6.6 118.6 5.4 125.5 2.55 128.55 -0.1 131.35 -4.6 131.35 -6.75 131.35 -8.3 130.7 L-9.85 129.85 -7.85 123.05 M15.95 35.85 L18.7 25.0 Q19.8 24.85 33.2 19.45 33.5 28.95 29.2 33.55 25.75 37.25 19.95 37.25 18.35 37.25 15.95 35.85 M24.65 53.05 Q23.15 57.55 21.35 64.3 19.25 68.8 13.05 68.8 L10.1 68.3 7.45 67.35 Q9.05 63.65 10.55 56.35 L13.4 57.1 Q15.5 56.95 18.65 56.0 22.55 54.75 24.65 53.05 M1.75 89.05 L9.2 89.3 Q11.45 88.7 15.4 86.95 15.35 93.75 11.75 97.1 8.95 99.75 4.85 99.75 L1.65 99.55 -1.2 98.6 1.75 89.05" fill="#ff0000" fill-rule="evenodd" stroke="none"/>
  </g>
</svg>
