<?xml version="1.0" encoding="UTF-8" standalone="no"?>
<svg xmlns:ffdec="https://www.free-decompiler.com/flash" xmlns:xlink="http://www.w3.org/1999/xlink" ffdec:objectType="shape" height="188.4px" width="197.6px" xmlns="http://www.w3.org/2000/svg">
  <g transform="matrix(1.0, 0.0, 0.0, 1.0, 98.8, 94.2)">
    <path d="M75.95 -50.45 Q70.65 -65.9 54.5 -69.95 13.35 -80.15 0.85 -45.2 -1.3 -50.5 -4.05 -55.25 -12.25 -69.55 -30.7 -71.75 -72.95 -76.7 -78.85 -37.55 -78.9 -30.9 -77.4 -25.35 -68.35 8.55 -43.2 27.25 -18.5 45.65 1.2 69.4 12.15 54.75 25.85 42.85 49.2 22.65 69.15 -0.85 86.05 -20.75 75.95 -50.45 M61.15 -74.75 Q76.1 -69.2 82.1 -54.15 93.3 -26.05 77.9 -3.4 60.5 22.3 36.7 42.1 16.25 59.2 0.85 81.4 -16.85 55.6 -41.4 36.85 -66.1 17.95 -80.5 -10.85 -85.95 -21.7 -85.75 -37.9 -80.25 -75.85 -42.25 -78.65 -10.85 -80.95 0.85 -60.45 21.2 -89.65 61.15 -74.75" fill="#040101" fill-rule="evenodd" stroke="none"/>
    <path d="M75.95 -50.45 Q86.05 -20.75 69.15 -0.85 49.2 22.65 25.85 42.85 12.15 54.75 1.2 69.4 -18.5 45.65 -43.2 27.25 -68.35 8.55 -77.4 -25.35 -78.9 -30.9 -78.85 -37.55 -72.95 -76.7 -30.7 -71.75 -12.25 -69.55 -4.05 -55.25 -1.3 -50.5 0.85 -45.2 13.35 -80.15 54.5 -69.95 70.65 -65.9 75.95 -50.45 M-15.9 -64.8 Q-20.75 -67.95 -26.95 -68.95 -69.8 -75.65 -76.3 -36.1 -72.55 2.95 -47.4 21.05 -23.65 38.05 -5.55 59.6 -23.5 36.9 -39.95 12.8 -48.85 -0.2 -51.05 -17.8 -56.4 -60.3 -15.9 -64.8" fill="#e50000" fill-rule="evenodd" stroke="none"/>
    <path d="M63.5 -85.1 Q24.5 -98.0 0.85 -76.1 -17.15 -95.15 -53.85 -86.95 -87.8 -79.4 -94.85 -43.0 -96.25 -16.3 -86.45 -0.4 -70.05 26.25 -46.05 45.8 -22.15 65.3 -3.9 90.5 L-3.55 90.5 6.3 90.15 24.85 68.95 Q45.25 46.0 69.35 26.95 93.85 7.6 94.55 -32.8 95.25 -74.65 63.5 -85.1 M64.7 -89.0 Q96.5 -78.45 98.6 -38.9 100.95 4.9 77.2 24.9 53.75 44.65 32.6 66.9 20.1 80.1 8.1 93.8 1.85 94.4 -5.35 94.15 L-5.7 94.15 Q-24.3 69.25 -48.0 49.55 -71.75 29.8 -89.0 3.8 -100.65 -13.7 -98.45 -44.8 -91.2 -81.0 -58.4 -90.65 -31.5 -98.6 -10.1 -88.85 -3.55 -85.9 0.85 -80.85 25.3 -102.05 64.7 -89.0" fill="#060606" fill-rule="evenodd" stroke="none"/>
    <path d="M61.15 -74.75 Q21.2 -89.65 0.85 -60.45 -10.85 -80.95 -42.25 -78.65 -80.25 -75.85 -85.75 -37.9 -85.95 -21.7 -80.5 -10.85 -66.1 17.95 -41.4 36.85 -16.85 55.6 0.85 81.4 16.25 59.2 36.7 42.1 60.5 22.3 77.9 -3.4 93.3 -26.05 82.1 -54.15 76.1 -69.2 61.15 -74.75 M63.5 -85.1 Q95.25 -74.65 94.55 -32.8 93.85 7.6 69.35 26.95 45.25 46.0 24.85 68.95 L6.3 90.15 -3.55 90.5 -3.9 90.5 Q-22.15 65.3 -46.05 45.8 -70.05 26.25 -86.45 -0.4 -96.25 -16.3 -94.85 -43.0 -87.8 -79.4 -53.85 -86.95 -17.15 -95.15 0.85 -76.1 24.5 -98.0 63.5 -85.1" fill="#fcfcfc" fill-rule="evenodd" stroke="none"/>
    <path d="M-15.9 -64.8 Q-56.4 -60.3 -51.05 -17.8 -48.85 -0.2 -39.95 12.8 -23.5 36.9 -5.55 59.6 -23.65 38.05 -47.4 21.05 -72.55 2.95 -76.3 -36.1 -69.8 -75.65 -26.95 -68.95 -20.75 -67.95 -15.9 -64.8" fill="#e69292" fill-rule="evenodd" stroke="none"/>
  </g>
</svg>
