<?xml version="1.0" encoding="UTF-8" standalone="no"?>
<svg xmlns:ffdec="https://www.free-decompiler.com/flash" xmlns:xlink="http://www.w3.org/1999/xlink" ffdec:objectType="shape" height="183.6px" width="583.55px" xmlns="http://www.w3.org/2000/svg">
  <g transform="matrix(1.0, 0.0, 0.0, 1.0, 628.45, 8.85)">
    <path d="M-620.45 166.75 L-591.8 116.35 -535.7 42.55" fill="none" stroke="#000000" stroke-linecap="round" stroke-linejoin="round" stroke-width="16.0"/>
    <path d="M-255.4 -1.2 Q-254.7 -1.2 -252.35 2.25 -250.0 4.9 -250.0 5.6 -250.0 6.95 -251.0 6.95 -253.55 6.95 -254.2 2.95 -255.6 0.3 -255.7 -1.1 L-255.4 -1.2 M-265.05 -3.65 L-265.35 -4.45 Q-265.35 -6.1 -264.0 -6.1 -262.25 -6.1 -262.25 -4.55 -262.25 -2.95 -263.6 -2.95 -264.6 -2.95 -265.05 -3.65 M-181.6 -5.45 Q-182.0 -5.45 -182.4 -6.0 -182.8 -6.5 -183.25 -6.55 -184.1 -6.65 -184.1 -7.8 -184.1 -8.85 -183.0 -8.85 -180.7 -8.85 -180.85 -6.8 -180.85 -5.45 -181.6 -5.45 M-161.15 22.6 Q-161.15 22.05 -160.45 22.05 -159.05 22.05 -159.05 23.6 -159.05 24.65 -161.8 24.45 L-161.8 24.35 Q-161.8 24.1 -159.5 23.75 -159.95 23.45 -160.8 23.2 -161.15 23.05 -161.15 22.6 M-156.45 29.3 Q-156.45 29.85 -157.45 29.85 L-157.8 29.5 Q-157.8 29.05 -156.85 29.05 -156.35 29.05 -156.45 29.3 M-156.25 27.95 Q-157.2 27.95 -157.2 26.6 -157.2 26.05 -156.7 26.05 -155.95 26.05 -155.95 26.95 L-156.15 27.9 -156.25 27.95 M-153.75 90.6 L-154.05 90.65 Q-154.9 90.65 -155.05 89.7 L-154.8 89.55 -153.75 90.35 -153.75 90.6 M-156.55 90.65 L-157.7 90.45 -157.65 89.9 Q-157.15 89.55 -156.95 88.95 -156.85 88.55 -156.05 88.55 -155.15 88.55 -155.25 89.1 -155.75 90.65 -156.55 90.65 M-157.65 87.45 L-157.4 86.75 -156.65 87.85 Q-156.65 88.35 -157.1 88.35 -157.65 88.35 -157.65 87.45 M-145.9 92.4 Q-145.15 92.4 -145.15 92.95 -145.15 93.4 -145.7 93.4 -146.7 93.4 -146.7 92.8 -146.7 92.4 -145.9 92.4 M-147.35 91.05 Q-147.35 91.4 -148.15 91.8 L-148.3 91.3 Q-148.3 90.7 -147.65 90.7 -147.35 90.7 -147.35 91.05 M-147.95 93.5 L-148.1 93.55 -148.5 93.05 -147.85 92.15 Q-147.1 92.15 -147.1 93.0 -147.1 93.25 -147.95 93.5 M-142.05 95.75 Q-142.05 96.55 -142.85 96.55 -143.45 96.55 -143.45 95.85 -143.45 95.5 -143.1 95.5 L-142.8 95.6 -142.3 95.45 Q-142.0 95.45 -142.05 95.75 M-142.95 97.25 L-142.7 96.95 -141.55 98.55 -141.75 98.7 -142.05 98.8 Q-142.95 98.8 -142.95 98.0 L-142.85 97.55 -142.95 97.25 M-87.15 141.25 Q-87.15 141.8 -88.0 142.5 -88.95 143.35 -90.15 143.35 -91.6 143.35 -91.9 142.6 -91.85 141.2 -87.75 140.35 L-87.15 141.25 M-76.65 146.25 Q-76.65 147.35 -78.15 147.35 -80.3 147.35 -81.9 144.85 -81.45 144.1 -81.0 144.1 -77.5 144.1 -76.65 146.25 M-52.65 139.7 Q-52.65 139.0 -45.9 138.4 L-45.0 138.55 -44.9 138.95 Q-44.9 139.4 -46.75 139.9 L-50.75 140.4 -52.6 140.05 -52.65 139.7 M-164.25 17.35 Q-164.0 17.35 -164.05 17.6 L-164.8 18.65 -165.05 18.2 Q-165.05 17.35 -164.25 17.35 M-171.0 12.45 Q-171.0 12.15 -170.6 12.15 -169.9 12.15 -169.9 12.5 -169.9 12.9 -170.4 12.9 -171.0 12.9 -171.0 12.45 M-168.05 21.1 Q-167.0 21.0 -166.4 20.35 -165.6 19.25 -164.75 19.25 -164.5 19.25 -164.45 19.9 -164.45 20.4 -165.15 20.7 -165.85 20.95 -165.85 21.35 L-165.7 21.85 Q-165.7 22.7 -167.35 22.7 -168.85 22.7 -168.85 21.7 -168.85 21.15 -168.05 21.1 M-205.45 50.9 Q-205.45 51.45 -206.8 52.2 L-207.0 53.55 -207.45 53.7 -209.1 51.15 Q-209.1 50.05 -206.65 50.05 -205.2 50.05 -205.45 50.9 M-214.35 52.2 Q-214.35 51.45 -215.6 51.05 -215.75 50.55 -215.2 50.55 -213.95 50.55 -213.75 52.25 -213.75 53.1 -214.05 53.3 -214.35 53.3 -214.35 52.2 M-198.7 61.55 Q-198.7 62.45 -199.35 62.45 L-199.7 62.35 -199.75 61.6 Q-199.75 60.55 -199.25 60.55 -198.55 60.55 -198.7 61.55 M-167.4 83.6 Q-166.85 82.95 -166.3 82.95 -165.65 82.95 -165.0 83.45 -164.45 83.9 -164.45 84.1 -164.45 84.95 -166.7 84.95 -167.85 84.95 -167.85 84.45 L-167.4 83.6 M-167.75 80.65 Q-167.05 80.65 -167.05 81.15 -167.05 81.95 -168.05 81.95 -169.15 81.95 -169.15 81.3 -169.15 80.65 -167.75 80.65 M-163.05 85.75 Q-162.65 85.75 -162.25 86.15 L-162.25 86.7 -162.7 86.75 -163.55 86.2 Q-163.55 85.75 -163.05 85.75 M-175.2 78.55 Q-174.35 78.55 -174.35 79.15 -174.35 79.65 -175.05 79.65 -175.85 79.65 -175.85 79.0 -175.85 78.55 -175.2 78.55 M-173.4 79.3 L-173.35 79.6 Q-173.4 79.75 -173.6 79.75 L-173.85 79.7 -173.95 79.45 -173.65 79.25 -173.4 79.3" fill="#540101" fill-rule="evenodd" stroke="none"/>
  </g>
</svg>
