<?xml version="1.0" encoding="UTF-8" standalone="no"?>
<svg xmlns:ffdec="https://www.free-decompiler.com/flash" xmlns:xlink="http://www.w3.org/1999/xlink" ffdec:objectType="shape" height="25.9px" width="25.9px" xmlns="http://www.w3.org/2000/svg">
  <g transform="matrix(1.0, 0.0, 0.0, 1.0, 13.2, 12.85)">
    <path d="M11.2 -0.2 L11.2 0.05 11.2 0.1 11.2 0.2 11.2 0.3 11.2 0.4 Q11.1 4.95 7.85 8.2 4.9 11.15 0.95 11.5 L0.05 11.55 -0.25 11.55 -1.4 11.5 Q-5.4 11.15 -8.35 8.2 -11.6 4.95 -11.7 0.4 L-11.7 0.3 -11.7 0.2 -11.7 0.1 -11.7 0.05 -11.7 -0.2 Q-11.55 -4.8 -8.35 -8.0 -5.0 -11.35 -0.25 -11.35 L0.05 -11.35 Q4.6 -11.25 7.85 -8.0 11.05 -4.8 11.2 -0.2 M0.05 -4.85 L0.05 -11.35 M-5.0 0.05 L-11.7 0.05 M0.05 11.55 L0.05 4.95 M11.2 0.05 L5.0 0.05" fill="none" stroke="#000000" stroke-linecap="round" stroke-linejoin="round" stroke-width="3.0"/>
    <path d="M0.05 4.95 L0.05 0.05 -5.0 0.05 M5.0 0.05 L0.05 0.05 0.05 -4.85" fill="none" stroke="#ffffff" stroke-linecap="round" stroke-linejoin="round" stroke-width="0.5"/>
  </g>
</svg>
