<?xml version="1.0" encoding="UTF-8" standalone="no"?>
<svg xmlns:ffdec="https://www.free-decompiler.com/flash" xmlns:xlink="http://www.w3.org/1999/xlink" ffdec:objectType="shape" height="46.05px" width="53.05px" xmlns="http://www.w3.org/2000/svg">
  <g transform="matrix(1.0, 0.0, 0.0, 1.0, 26.65, 27.7)">
    <path d="M2.7 -21.2 L2.7 -25.55 2.7 -27.7 6.25 -21.65 9.75 -15.5 13.3 -9.35 16.85 -3.3 20.45 2.85 23.9 8.95 26.4 13.2 Q26.15 13.35 25.65 12.95 L25.45 12.8 20.85 10.15 2.7 -21.2 M-21.1 9.85 L-23.1 11.0 -26.25 12.75 -26.45 12.8 Q-26.7 12.9 -26.6 12.55 L-23.0 6.5 -19.4 0.35 -15.95 -5.75 -12.5 -11.9 -8.9 -18.0 -5.35 -24.1 -3.35 -27.7 Q-3.1 -26.75 -3.1 -25.4 L-3.15 -21.6 -21.1 9.85" fill="#d80707" fill-opacity="0.9843137" fill-rule="evenodd" stroke="none"/>
    <path d="M17.3 14.85 L19.1 15.9 23.0 18.1 20.65 18.35 11.05 18.25 1.4 18.25 -8.25 18.25 -17.95 18.25 -23.65 18.15 -23.8 18.1 -18.15 14.85 17.3 14.85" fill="#da0707" fill-opacity="0.99215686" fill-rule="evenodd" stroke="none"/>
    <path d="M20.85 10.15 L19.3 9.35 Q17.55 8.4 16.15 7.1 L16.0 6.95 15.45 6.0 15.4 5.85 15.3 5.65 14.45 4.2 12.95 1.6 12.5 0.85 12.0 0.05 11.75 -0.4 10.9 -1.85 8.9 -5.25 8.5 -5.95 8.15 -6.55 7.7 -7.35 5.9 -10.4 4.65 -12.65 2.9 -15.6 2.7 -15.9 2.7 -21.2 20.85 10.15 M-3.15 -21.6 L-3.2 -16.05 -5.3 -12.2 -6.35 -10.45 -6.5 -10.2 -6.65 -9.95 -8.4 -7.05 -9.8 -4.5 -10.25 -3.8 -13.8 2.25 -15.95 6.1 -16.35 6.75 -16.35 6.85 -16.9 7.35 -16.95 7.5 -21.1 9.85 -3.15 -21.6" fill="#ffffff" fill-opacity="0.9843137" fill-rule="evenodd" stroke="none"/>
    <path d="M-18.15 14.85 L-17.65 14.55 -13.85 12.4 -13.5 12.4 -10.3 12.45 -4.8 12.45 0.7 12.45 6.1 12.45 11.55 12.5 12.75 12.4 13.0 12.4 17.3 14.85 -18.15 14.85" fill="#ffffff" fill-opacity="0.99215686" fill-rule="evenodd" stroke="none"/>
  </g>
</svg>
