<?xml version="1.0" encoding="UTF-8" standalone="no"?>
<svg xmlns:ffdec="https://www.free-decompiler.com/flash" xmlns:xlink="http://www.w3.org/1999/xlink" ffdec:objectType="shape" height="22.6px" width="22.6px" xmlns="http://www.w3.org/2000/svg">
  <g transform="matrix(1.0, 0.0, 0.0, 1.0, 11.3, 11.3)">
    <path d="M6.65 1.15 L1.7 1.15 1.7 -1.15 6.65 -1.15 6.65 1.15 M1.15 -6.65 L1.15 -1.7 -1.15 -1.7 -1.15 -6.65 1.15 -6.65 M-1.15 6.65 L-1.15 1.7 1.15 1.7 1.15 6.65 -1.15 6.65 M-6.65 -1.15 L-1.7 -1.15 -1.7 1.15 -6.65 1.15 -6.65 -1.15" fill="#000000" fill-rule="evenodd" stroke="none"/>
    <path d="M6.65 -1.15 L11.3 -1.15 11.3 1.15 6.65 1.15 6.65 -1.15 M-1.15 -6.65 L-1.15 -11.3 1.15 -11.3 1.15 -6.65 -1.15 -6.65 M1.15 6.65 L1.15 11.3 -1.15 11.3 -1.15 6.65 1.15 6.65 M-6.65 1.15 L-11.3 1.15 -11.3 -1.15 -6.65 -1.15 -6.65 1.15" fill="#000000" fill-opacity="0.5019608" fill-rule="evenodd" stroke="none"/>
  </g>
</svg>
