<?xml version="1.0" encoding="UTF-8" standalone="no"?>
<svg xmlns:ffdec="https://www.free-decompiler.com/flash" xmlns:xlink="http://www.w3.org/1999/xlink" ffdec:objectType="shape" height="25.0px" width="25.0px" xmlns="http://www.w3.org/2000/svg">
  <g transform="matrix(1.0, 0.0, 0.0, 1.0, 12.45, 12.45)">
    <path d="M4.15 -12.45 L6.25 -11.25 8.4 -10.05 8.8 -9.75 7.25 -7.95 5.7 -6.15 5.1 -5.55 3.05 -6.85 2.35 -7.1 1.65 -7.3 1.1 -4.55 1.1 -4.25 Q2.35 -3.85 3.2 -3.0 3.95 -2.2 4.3 -0.95 L7.1 -1.5 7.35 -1.6 6.35 -3.95 5.6 -5.0 6.05 -5.4 7.8 -7.0 9.6 -8.55 9.8 -8.75 11.1 -6.65 12.3 -4.55 12.55 -4.1 Q11.7 -3.7 10.7 -3.45 L10.7 -3.4 10.85 -2.85 10.9 -2.85 11.0 -2.1 11.1 -1.45 Q11.3 0.1 11.1 1.65 L10.65 3.45 12.5 4.1 12.55 4.15 11.3 6.25 10.1 8.4 9.8 8.8 8.0 7.25 6.2 5.7 5.6 5.1 6.9 3.05 7.15 2.35 7.35 1.65 4.6 1.15 4.3 1.0 Q3.95 2.35 3.1 3.15 2.3 3.95 1.1 4.3 L1.1 4.65 1.65 7.35 4.0 6.35 5.05 5.6 5.45 6.05 7.05 7.8 8.6 9.6 8.8 9.8 6.7 11.1 Q5.65 11.65 4.6 12.3 L4.15 12.55 3.5 10.7 3.45 10.7 2.9 10.85 2.9 10.9 2.15 11.0 1.55 11.1 Q0.0 11.3 -1.6 11.1 L-3.4 10.65 -4.05 12.5 -4.1 12.55 -6.2 11.3 -8.35 10.1 -8.75 9.8 -7.15 8.0 -5.65 6.2 -5.05 5.6 -3.0 6.9 -2.3 7.15 -1.6 7.35 -1.1 4.6 -0.95 4.3 Q-2.25 3.95 -3.1 3.1 -3.85 2.25 -4.25 1.1 L-4.6 1.1 -7.3 1.65 -6.3 4.0 -5.55 5.05 -5.95 5.45 -7.75 7.05 -9.55 8.6 -9.75 8.8 -11.05 6.7 -12.25 4.6 -12.45 4.15 -10.65 3.5 -10.65 3.45 -10.8 2.9 -10.85 2.9 -10.95 2.15 -11.05 1.55 Q-11.25 0.0 -11.05 -1.6 L-10.6 -3.4 -12.45 -4.1 -12.45 -4.15 -11.25 -6.25 -10.0 -8.4 -9.75 -8.75 -7.95 -7.15 -6.15 -5.65 -5.55 -5.05 -6.85 -3.0 -7.1 -2.3 -7.3 -1.6 -4.55 -1.05 -4.25 -1.0 -3.65 -2.4 -3.65 -2.45 -2.45 -3.6 -2.45 -3.65 -1.05 -4.2 -1.0 -4.25 -1.0 -4.6 -1.6 -7.3 -3.95 -6.3 -5.0 -5.55 -5.4 -5.95 -7.0 -7.75 -8.55 -9.55 -8.75 -9.75 -6.65 -11.05 -4.55 -12.25 -4.1 -12.45 -3.45 -10.65 -3.4 -10.65 -2.85 -10.8 -2.85 -10.85 -2.1 -10.95 -1.45 -11.05 Q0.1 -11.25 1.65 -11.05 L3.45 -10.6 4.1 -12.45 4.15 -12.45 M0.8 -1.3 L0.0 -1.5 -0.9 -1.25 -0.9 -1.2 -1.25 -0.9 -1.25 -0.85 -1.55 -0.25 -1.55 -0.15 Q-1.5 0.9 -0.85 1.35 L-0.8 1.35 -0.3 1.6 -0.25 1.6 0.9 1.35 0.9 1.3 1.35 0.9 1.35 0.85 Q1.65 0.45 1.6 -0.3 L1.55 -0.3 1.35 -0.85 0.8 -1.3" fill="url(#gradient0)" fill-rule="evenodd" stroke="none"/>
  </g>
  <defs>
    <radialGradient cx="0" cy="0" gradientTransform="matrix(0.0161, 0.0, 0.0, 0.0161, 0.05, 0.05)" gradientUnits="userSpaceOnUse" id="gradient0" r="819.2" spreadMethod="pad">
      <stop offset="0.0" stop-color="#ff0000"/>
      <stop offset="1.0" stop-color="#000000"/>
    </radialGradient>
  </defs>
</svg>
