<?xml version="1.0" encoding="UTF-8" standalone="no"?>
<svg xmlns:ffdec="https://www.free-decompiler.com/flash" xmlns:xlink="http://www.w3.org/1999/xlink" ffdec:objectType="shape" height="19.05px" width="43.25px" xmlns="http://www.w3.org/2000/svg">
  <g transform="matrix(1.0, 0.0, 0.0, 1.0, 30.15, 9.6)">
    <path d="M1.75 -4.3 L1.25 -3.55 1.25 -3.5 0.75 -2.75 0.25 -2.0 0.1 -1.75 -0.05 -1.55 -0.15 -1.75 -0.3 -2.0 -0.75 -2.75 -0.95 -3.05 -1.2 -3.5 -1.5 -3.9 -1.5 -7.85 -0.9 -7.0 -0.7 -6.75 -0.6 -6.55 -0.55 -6.5 -0.1 -5.75 -0.05 -5.55 0.15 -5.75 0.7 -6.5 0.85 -6.75 1.0 -7.0 1.55 -7.85 1.65 -8.0 1.75 -8.15 1.75 -4.3 M-3.9 -2.0 L-3.7 -1.75 -3.5 -1.5 -2.55 -0.35 -2.6 -0.25 -2.75 0.0 -3.1 0.5 -3.25 0.65 -3.75 1.25 -4.0 1.5 -6.65 1.5 -6.45 1.25 -6.05 0.85 -5.5 0.35 -5.35 0.2 -5.35 0.0 -5.35 -0.25 -5.35 -0.35 -6.2 -1.5 -6.4 -1.75 -6.6 -2.0 -3.9 -2.0 M-1.5 3.55 L-0.05 1.25 0.05 1.35 1.75 3.9 1.75 8.0 1.55 7.75 0.85 6.75 0.25 5.5 0.15 5.25 0.1 5.05 -0.05 5.25 -0.2 5.5 -1.05 6.75 -1.5 7.4 -1.5 3.55 M4.2 1.5 L2.75 -0.35 2.75 -0.4 4.0 -2.0 6.65 -2.0 5.4 -0.4 5.4 -0.35 6.85 1.5 4.2 1.5" fill="#1286b4" fill-rule="evenodd" stroke="none"/>
    <path d="M4.0 -2.0 L5.4 -3.85 5.95 -4.5 6.95 -5.75 7.25 -6.1 7.6 -6.5 7.95 -7.0 8.1 -7.25 7.5 -7.25 5.9 -7.25 3.6 -7.25 3.45 -7.0 3.3 -6.75 3.15 -6.5 2.7 -5.75 2.0 -4.7 1.9 -4.5 1.75 -4.3 1.75 -8.15 2.0 -8.55 2.6 -9.6 12.55 -9.6 6.65 -2.0 4.0 -2.0 M-1.5 -3.9 L-1.85 -4.5 -2.15 -5.0 -2.25 -5.1 -2.65 -5.75 -3.1 -6.5 -3.25 -6.75 -3.45 -7.0 -3.6 -7.25 -4.85 -7.3 -6.05 -7.25 -7.5 -7.2 -8.05 -7.15 -7.85 -7.0 -7.8 -6.95 -7.65 -6.75 -7.45 -6.5 -6.9 -5.75 -6.65 -5.4 -5.9 -4.5 -5.25 -3.65 -5.1 -3.5 -4.5 -2.75 -3.9 -2.0 -6.6 -2.0 -7.2 -2.75 -8.55 -4.5 -9.5 -5.75 -10.1 -6.5 -10.3 -6.75 -10.45 -7.0 -10.6 -7.15 -11.25 -8.0 -12.2 -9.15 -12.5 -9.45 -7.5 -9.55 -5.15 -9.6 -2.55 -9.6 -2.25 -9.1 -1.55 -8.0 -1.5 -7.85 -1.5 -3.9 M-4.0 1.5 L-4.2 1.75 -5.6 3.45 -8.55 7.2 -7.75 7.25 -7.5 7.25 -6.8 7.25 -4.85 7.35 -3.85 7.2 -1.5 3.55 -1.5 7.4 -1.85 8.0 -2.1 8.35 -2.25 8.6 -2.65 9.25 -2.7 9.3 -2.85 9.45 -13.05 9.4 -11.15 7.05 -11.1 7.0 -10.9 6.75 -9.7 5.25 -8.65 4.0 -7.35 2.35 -7.05 2.0 -6.85 1.75 -6.65 1.5 -4.0 1.5 M1.75 3.9 L4.0 7.25 5.9 7.25 6.95 7.25 8.55 7.2 4.2 1.5 6.85 1.5 12.85 9.25 12.95 9.3 13.1 9.4 9.3 9.45 7.75 9.45 6.85 9.45 2.9 9.45 2.75 9.25 2.0 8.35 1.75 8.0 1.75 3.9 M5.2 -9.0 L2.85 -9.0 2.55 -8.35 2.3 -8.15 2.1 -8.0 2.0 -7.7 2.25 -7.85 2.45 -8.0 2.6 -8.15 2.8 -8.35 3.0 -8.6 5.2 -8.75 5.2 -9.0 M-10.25 -8.2 L-10.15 -8.1 -10.05 -8.0 -9.45 -7.4 -9.45 -7.45 -9.75 -8.0 -9.8 -8.1 -9.85 -8.55 -9.85 -8.6 -8.2 -8.7 -7.5 -8.7 -6.15 -8.9 -10.75 -8.9 -10.25 -8.2" fill="#000000" fill-rule="evenodd" stroke="none"/>
    <path d="M-30.1 1.45 L-26.65 6.55 -26.7 6.55 -30.15 1.4 -30.1 1.45" fill="#ffffff" fill-rule="evenodd" stroke="none"/>
  </g>
</svg>
