<?xml version="1.0" encoding="UTF-8" standalone="no"?>
<svg xmlns:ffdec="https://www.free-decompiler.com/flash" xmlns:xlink="http://www.w3.org/1999/xlink" ffdec:objectType="shape" height="6.9px" width="6.9px" xmlns="http://www.w3.org/2000/svg">
  <g transform="matrix(1.0, 0.0, 0.0, 1.0, 3.45, 3.5)">
    <path d="M2.05 -2.15 Q2.95 -1.25 2.95 -0.05 2.95 1.15 2.05 2.0 1.2 2.9 0.0 2.9 -1.2 2.9 -2.1 2.0 -2.95 1.15 -2.95 -0.05 -2.95 -1.25 -2.1 -2.15 -1.2 -3.0 0.0 -3.0 1.2 -3.0 2.05 -2.15" fill="#000000" fill-rule="evenodd" stroke="none"/>
    <path d="M2.05 -2.15 Q2.95 -1.25 2.95 -0.05 2.95 1.15 2.05 2.0 1.2 2.9 0.0 2.9 -1.2 2.9 -2.1 2.0 -2.95 1.15 -2.95 -0.05 -2.95 -1.25 -2.1 -2.15 -1.2 -3.0 0.0 -3.0 1.2 -3.0 2.05 -2.15 Z" fill="none" stroke="#ffffff" stroke-linecap="round" stroke-linejoin="round" stroke-width="1.0"/>
  </g>
</svg>
