<?xml version="1.0" encoding="UTF-8" standalone="no"?>
<svg xmlns:ffdec="https://www.free-decompiler.com/flash" xmlns:xlink="http://www.w3.org/1999/xlink" ffdec:objectType="shape" height="335.65px" width="338.75px" xmlns="http://www.w3.org/2000/svg">
  <g transform="matrix(1.0, 0.0, 0.0, 1.0, 168.3, 168.1)">
    <path d="M6.95 1.0 L2.95 1.0 2.45 1.0 Q2.25 7.75 1.75 9.4 1.55 8.85 1.25 6.75 L0.85 3.45 -1.05 3.2 -1.05 2.0 -10.1 2.0 -41.05 0.9 -40.75 13.5 -41.1 20.5 Q-41.55 27.65 -42.05 31.0 -42.65 18.2 -44.05 11.0 L-44.05 2.0 -44.05 1.5 -65.05 1.0 Q-65.15 0.3 -65.9 -0.85 L-64.3 -1.0 -43.05 -1.0 -43.05 -31.0 Q-41.75 -33.05 -41.75 -36.65 -41.75 -40.5 -44.15 -42.2 -46.35 -43.75 -51.05 -43.75 L-55.8 -43.2 -64.8 -42.7 -70.35 -43.1 Q-75.75 -43.75 -78.05 -45.0 L-71.9 -44.85 -60.55 -44.35 Q-52.75 -44.9 -48.25 -46.45 L-48.0 -46.45 -43.5 -45.75 Q-42.2 -45.5 -42.05 -49.0 L-42.05 -59.0 Q-41.15 -60.0 -41.05 -61.0 -39.95 -64.95 -38.65 -66.5 -38.4 -66.0 -38.2 -64.35 L-38.0 -61.95 -38.05 -58.0 -37.75 -53.95 Q-37.75 -52.45 -38.35 -50.2 -38.95 -47.85 -39.05 -46.0 L-30.25 -45.35 -23.6 -45.0 -16.95 -45.35 -8.25 -46.0 -1.05 -46.0 -1.05 -47.1 Q0.8 -47.75 0.95 -48.25 L0.95 -49.0 2.4 -47.6 2.95 -47.0 2.95 -46.0 3.45 -45.95 Q3.5 -44.85 2.75 -42.35 L1.95 -40.0 Q2.2 -24.05 2.95 -8.15 L2.95 -2.0 3.4 -2.0 3.55 -1.05 Q6.4 -1.1 7.8 -0.45 L6.95 1.0 M-40.05 -42.9 L-40.05 -2.0 -0.05 -2.0 -0.05 -42.9 -40.05 -42.9" fill="#e6e6e6" fill-opacity="0.99607843" fill-rule="evenodd" stroke="none"/>
    <path d="M-43.05 -31.0 L-43.05 -1.0 -64.3 -1.0 -50.35 -1.8 -43.9 -2.0 -43.55 -31.0 -43.05 -31.0 M-65.9 -0.85 Q-65.15 0.3 -65.05 1.0 L-71.85 1.3 -83.05 0.45 Q-84.05 -6.4 -84.05 -14.0 L-84.05 -23.0 Q-83.2 -27.65 -81.65 -32.0 -80.65 -35.0 -80.05 -36.0 L-80.05 -30.0 -79.75 -23.75 Q-79.75 -21.55 -80.65 -16.55 -81.6 -11.55 -81.6 -8.8 -81.6 -4.05 -78.55 -1.9 -74.6 0.85 -65.9 -0.85" fill="#b8b8b8" fill-opacity="0.99607843" fill-rule="evenodd" stroke="none"/>
    <path d="M86.0 -122.1 L99.95 -122.0 Q92.05 -131.9 86.4 -136.65 75.75 -145.65 65.95 -145.0 L67.4 -143.15 76.2 -133.7 82.95 -126.3 86.0 -122.5 86.0 -122.1 M93.5 -110.05 L105.95 -87.0 113.15 -86.7 118.75 -87.05 124.95 -88.0 Q123.5 -88.3 119.65 -95.0 113.25 -106.0 103.95 -118.0 L89.95 -118.0 Q90.25 -116.1 93.5 -110.05 M117.15 -103.1 Q123.55 -91.95 126.3 -89.8 127.5 -89.0 130.05 -88.1 134.2 -86.6 137.45 -87.0 137.65 -88.6 134.55 -93.35 129.85 -100.65 127.5 -105.35 124.45 -111.45 120.15 -114.7 115.2 -118.45 107.95 -119.0 L117.15 -103.1 M111.95 -122.0 Q96.0 -136.5 93.35 -138.4 88.9 -141.65 78.95 -145.0 L98.7 -127.85 Q106.55 -121.8 111.95 -122.0 M19.05 -156.3 Q22.0 -152.1 22.95 -150.0 27.4 -148.7 32.15 -148.7 L35.45 -148.9 38.0 -149.4 Q37.15 -152.25 33.15 -155.75 26.45 -161.55 15.95 -162.0 16.55 -159.85 19.05 -156.3 M9.5 -148.7 L14.6 -149.0 Q19.95 -149.45 19.95 -150.0 L18.25 -153.6 Q16.6 -157.1 15.15 -158.1 10.05 -161.75 2.95 -162.0 L2.95 -149.0 9.5 -148.7 M21.95 -145.0 L2.95 -145.0 2.95 -122.0 12.65 -121.7 20.7 -122.05 26.1 -122.5 26.1 -122.0 42.7 -121.7 49.85 -122.05 57.95 -123.0 Q57.6 -123.05 55.7 -125.85 L42.95 -145.0 25.95 -145.0 26.05 -134.0 21.95 -145.0 M36.85 -107.7 L40.95 -87.0 53.85 -86.7 61.1 -87.05 71.95 -88.0 71.4 -88.15 59.95 -118.0 34.95 -118.0 36.85 -107.7 M4.75 -87.0 L36.95 -87.0 30.95 -118.0 2.95 -118.0 2.95 -88.1 Q1.95 -89.0 1.95 -98.5 0.05 -96.85 -0.15 -92.1 L-0.05 -87.0 -26.25 -84.5 Q-30.55 -84.5 -32.4 -85.85 -33.75 -86.85 -35.05 -90.0 L-34.05 -90.0 Q-31.55 -87.8 -30.1 -87.15 -27.35 -85.85 -22.8 -85.85 L-1.05 -87.0 -1.05 -118.0 -28.05 -118.0 -30.8 -105.5 -31.55 -101.6 Q-31.75 -101.0 -32.05 -101.0 L-31.75 -105.55 Q-31.75 -107.15 -32.1 -107.6 L-32.3 -107.7 Q-33.45 -106.15 -35.05 -101.0 -34.9 -104.35 -33.9 -109.5 L-32.05 -118.0 Q-34.8 -117.55 -39.05 -120.05 L-42.7 -122.25 -31.05 -122.0 -30.9 -145.0 -41.05 -145.0 Q-41.65 -141.55 -48.5 -132.75 -55.0 -124.35 -55.05 -122.5 -56.9 -120.0 -58.35 -115.25 -60.1 -109.45 -65.05 -99.0 L-64.85 -100.9 Q-64.85 -101.9 -65.0 -102.6 -66.1 -102.6 -67.05 -102.0 L-62.05 -118.0 -83.05 -118.0 Q-83.15 -117.0 -87.0 -109.65 -92.2 -99.7 -99.05 -88.0 L-92.1 -87.4 -86.65 -87.1 -80.4 -87.1 -85.6 -86.55 -96.05 -85.0 -74.35 -81.6 Q-74.2 -82.3 -74.2 -81.3 -74.2 -79.95 -75.05 -79.0 -75.45 -82.0 -82.15 -82.75 L-94.05 -83.1 -101.05 -83.05 Q-101.4 -79.2 -103.05 -74.8 L-106.05 -68.0 -106.05 -69.5 -107.8 -67.75 -111.05 -63.0 Q-110.65 -65.45 -107.95 -73.65 -105.2 -81.8 -105.05 -83.0 L-124.6 -82.85 -129.05 -69.5 Q-131.3 -63.3 -138.05 -47.0 L-133.6 -46.15 -127.8 -45.6 -121.35 -46.6 -115.05 -48.0 Q-115.45 -46.2 -116.2 -45.45 -117.4 -44.25 -119.75 -44.7 L-121.05 -45.0 Q-116.0 -43.2 -116.0 -36.85 L-116.25 -33.2 Q-116.55 -30.75 -117.05 -32.0 L-117.1 -37.8 Q-117.25 -38.35 -119.9 -39.7 -120.75 -40.3 -124.55 -41.2 -129.1 -42.3 -132.65 -42.3 L-139.05 -42.2 Q-139.4 -31.65 -140.8 -25.25 -141.85 -17.55 -143.05 -10.0 L-143.15 -7.3 Q-143.15 -3.75 -140.7 -1.85 -138.45 -0.1 -134.7 -0.1 -131.0 -0.1 -126.7 -1.4 -122.4 -2.75 -121.3 -4.25 -120.7 -5.1 -120.4 -7.65 -120.15 -10.0 -119.05 -11.0 -118.35 -6.9 -118.35 -5.9 -118.35 -0.6 -123.1 -0.95 L-124.05 -1.0 -121.15 0.55 Q-120.25 1.15 -119.65 2.0 L-143.05 2.0 Q-142.7 9.05 -141.35 20.45 -139.8 33.6 -138.05 42.0 L-129.95 42.3 -120.5 41.65 -116.55 41.0 -117.8 27.9 Q-119.15 13.55 -119.55 2.15 L-118.95 3.25 Q-117.2 7.5 -117.05 23.0 L-116.5 18.5 -116.25 15.2 Q-116.25 12.4 -117.05 7.3 L-118.05 1.0 -85.05 1.15 -85.05 2.0 -116.05 2.0 -113.1 42.0 -107.05 42.15 -93.7 41.4 -83.4 39.6 Q-83.05 39.45 -83.05 31.0 -82.6 31.75 -82.1 33.65 L-81.65 35.55 Q-81.65 39.4 -84.5 41.05 -89.3 43.85 -103.05 43.0 L-81.15 47.45 -81.05 49.0 Q-84.55 46.7 -91.15 46.15 -93.95 45.9 -104.05 45.9 L-112.05 46.0 Q-101.2 82.0 -101.05 83.0 L-75.05 83.0 Q-76.7 71.85 -78.7 60.1 L-77.85 61.55 Q-76.7 63.0 -75.05 63.0 L-72.1 71.75 Q-70.55 77.3 -70.55 83.0 L-39.05 83.0 Q-39.55 83.0 -40.0 68.85 L-39.85 69.8 Q-39.6 71.7 -39.0 72.4 -38.45 73.05 -37.85 72.1 -37.3 71.15 -37.05 68.0 L-36.55 68.0 Q-36.5 71.2 -35.95 75.2 -35.25 80.55 -34.05 83.0 L-1.05 83.0 -1.05 46.0 -39.05 46.0 -39.05 47.0 Q-39.35 46.95 -39.65 46.35 L-40.05 45.0 -0.05 45.0 Q-0.1 48.5 0.25 55.25 0.6 61.55 0.95 64.0 1.5 61.65 1.9 57.8 L2.25 52.2 1.95 45.0 Q7.95 45.45 16.75 44.85 L27.95 44.0 14.35 42.75 Q6.55 42.35 2.95 42.5 L2.95 42.0 41.95 42.0 42.95 2.0 2.95 2.0 2.95 1.0 6.95 1.0 44.1 1.0 44.45 18.0 45.15 18.0 Q45.6 10.05 47.15 4.9 L47.25 7.9 46.7 13.05 45.95 19.0 45.95 42.0 81.95 42.0 82.85 2.0 48.4 2.0 49.95 0.0 48.45 -0.9 47.25 -2.0 83.95 -2.0 82.7 -22.05 Q82.0 -33.45 82.3 -42.0 L47.75 -42.0 Q48.3 -42.5 49.0 -42.75 L49.95 -43.0 Q47.3 -43.7 45.75 -45.95 L60.35 -45.7 80.95 -46.55 Q80.85 -48.8 79.2 -56.0 L72.95 -83.0 41.95 -83.0 Q42.3 -75.95 43.4 -63.3 L44.55 -48.45 Q44.05 -50.0 43.8 -51.9 L43.15 -57.4 Q42.55 -60.15 40.95 -61.0 L40.95 -56.0 40.45 -56.0 38.85 -69.2 36.95 -83.0 2.95 -83.0 2.95 -83.5 Q6.7 -83.25 13.45 -83.6 21.55 -84.0 25.95 -85.0 22.9 -86.65 20.75 -86.2 L12.8 -85.3 9.3 -85.55 Q6.0 -86.0 4.75 -87.0 M76.15 -128.85 Q70.6 -134.8 59.95 -145.0 L47.95 -145.0 Q48.75 -140.5 55.2 -131.75 L62.95 -122.0 70.15 -121.7 75.75 -122.05 81.95 -123.0 80.85 -123.9 76.15 -128.85 M70.0 -100.65 L75.95 -87.0 85.3 -86.7 93.1 -87.05 101.95 -88.0 Q101.55 -88.05 101.35 -88.2 L84.95 -118.0 63.95 -118.0 Q64.9 -112.65 70.0 -100.65 M46.95 -2.65 Q46.35 -4.25 45.85 -10.35 45.4 -15.75 45.4 -19.25 L46.15 -32.0 46.95 -2.65 M149.1 -84.05 L160.95 -53.0 Q157.5 -59.65 152.2 -73.1 149.8 -79.25 144.95 -83.0 155.65 -52.95 158.15 -49.95 159.1 -48.85 160.45 -48.25 L162.6 -47.35 Q165.0 -45.95 166.0 -39.85 168.65 -24.05 168.95 -9.85 L168.95 -5.0 166.15 -31.0 Q165.1 -37.5 160.95 -43.0 161.9 -37.7 162.85 -25.5 163.95 -11.45 164.35 -8.25 164.6 -6.35 166.45 -4.1 168.55 -1.55 170.45 -2.0 170.25 4.4 168.8 16.6 167.05 31.35 164.95 40.0 L166.95 22.4 Q168.35 10.4 168.35 8.9 167.45 2.45 166.95 1.0 166.1 1.9 165.0 6.4 163.9 11.1 163.45 16.0 162.85 22.65 161.65 29.65 L160.6 35.75 Q160.6 40.6 164.95 42.0 164.95 49.3 149.95 79.0 L154.1 68.05 Q158.65 55.25 160.95 45.0 147.95 73.95 147.5 75.25 146.65 77.9 146.65 79.25 L147.1 80.85 Q147.65 82.35 148.45 83.0 L128.95 110.0 Q128.4 109.95 127.95 109.0 125.15 110.1 123.3 114.65 120.9 120.3 115.7 124.75 99.9 138.2 83.75 146.85 64.7 157.0 46.45 162.0 25.95 167.55 3.3 167.55 -42.3 167.55 -84.45 144.1 -103.15 133.65 -117.6 120.15 -131.85 106.95 -139.55 93.0 L-138.3 91.3 Q-138.3 90.0 -139.7 88.5 L-143.9 83.75 Q-151.65 73.4 -160.05 49.0 L-159.45 49.2 -143.25 82.55 Q-145.0 78.75 -147.05 71.95 L-150.75 60.05 Q-155.4 46.5 -161.55 45.9 -163.9 35.9 -165.65 21.25 -167.15 8.45 -167.05 3.0 -164.75 13.95 -162.95 29.05 -162.05 36.85 -159.05 42.0 L-161.05 23.8 Q-162.9 8.55 -163.15 7.9 -163.8 6.4 -166.2 3.35 -168.3 0.15 -168.3 -3.65 L-168.05 -8.0 Q-166.45 -6.4 -165.4 -4.6 -164.7 -3.4 -164.15 -3.3 L-162.85 -4.75 Q-162.15 -6.25 -161.75 -9.95 L-160.2 -21.4 Q-159.25 -28.7 -159.25 -33.0 -159.25 -36.3 -160.05 -38.65 -161.05 -41.55 -163.05 -42.0 -163.05 -43.0 -158.35 -54.85 -152.45 -69.8 -146.05 -82.0 -146.35 -79.6 -150.3 -69.05 -153.45 -60.7 -155.05 -57.0 L-157.9 -50.85 Q-158.7 -49.1 -158.7 -47.8 -158.7 -46.85 -158.05 -46.0 L-151.65 -59.0 Q-146.75 -68.9 -145.1 -74.7 -144.4 -77.1 -144.4 -79.25 -144.4 -80.55 -145.2 -82.35 L-146.05 -84.0 Q-146.0 -84.8 -145.2 -86.4 -143.65 -89.45 -139.7 -93.6 L-126.8 -108.7 Q-119.15 -114.65 -118.45 -117.65 -117.65 -121.1 -110.15 -127.7 -89.75 -145.5 -58.65 -156.95 -28.45 -168.1 -2.5 -168.1 51.55 -168.1 93.1 -141.2 120.95 -123.2 138.85 -96.65 L137.45 -97.0 Q139.85 -90.25 145.05 -87.0 L147.65 -85.45 149.1 -84.05 M131.55 -81.3 L134.45 -73.8 Q138.4 -63.35 142.95 -48.0 L146.5 -46.65 Q149.25 -45.55 151.2 -45.55 L156.95 -46.0 Q152.8 -55.55 149.7 -65.55 L146.1 -76.7 Q144.45 -80.5 141.4 -81.75 138.5 -82.9 130.95 -83.0 L131.55 -81.3 M112.6 -63.45 L118.95 -46.0 127.05 -45.7 133.6 -46.05 140.95 -47.0 Q140.6 -47.0 140.4 -47.15 L126.95 -83.0 107.95 -83.0 Q108.9 -74.15 112.6 -63.45 M114.95 -47.0 L114.4 -47.15 103.95 -83.0 76.95 -83.0 84.95 -46.0 97.45 -45.7 104.45 -46.05 114.95 -47.0 M86.1 -26.45 Q86.95 -17.1 87.65 -2.0 L118.95 -2.0 Q119.3 -3.85 117.8 -19.75 116.2 -36.2 114.95 -42.0 L84.95 -42.0 Q85.25 -35.95 86.1 -26.45 M121.05 -2.0 L131.7 -1.7 138.85 -2.05 146.6 -2.95 146.45 -3.05 Q146.25 -3.5 145.95 -6.6 L142.75 -42.0 118.95 -42.0 121.05 -2.0 M144.95 -43.0 Q145.45 -33.05 146.75 -23.95 L148.2 -14.4 Q149.0 -4.45 149.2 -4.25 151.8 -1.65 157.15 -1.65 L162.45 -2.0 Q160.25 -24.0 159.2 -43.0 L144.95 -43.0 M162.95 5.0 Q163.75 2.5 161.5 1.35 159.95 0.55 157.5 0.55 L154.55 0.9 151.85 1.45 144.95 37.5 Q144.95 40.3 146.4 41.5 147.75 42.6 150.6 42.6 L153.5 42.2 156.05 41.5 159.15 28.6 Q160.65 21.5 162.4 5.0 L162.95 5.0 M144.8 11.1 Q145.45 1.0 145.95 1.0 L122.95 1.0 Q122.6 7.8 120.7 20.1 118.95 31.2 118.95 37.0 118.95 39.0 121.5 40.25 126.9 43.0 141.95 42.0 L144.2 21.2 144.8 11.1 M129.45 45.3 L117.95 45.0 Q117.2 52.45 112.45 65.6 107.95 78.2 107.95 79.0 107.95 80.25 110.55 81.45 114.3 83.2 121.8 83.2 L127.5 83.0 130.75 73.45 Q131.6 70.9 137.05 58.3 140.95 49.3 140.95 45.5 L129.45 45.3 M146.15 45.6 L130.95 81.0 Q131.8 83.6 134.65 83.6 137.65 83.6 139.3 81.9 141.4 79.65 146.5 70.4 L152.75 57.85 Q156.3 50.0 156.3 47.05 156.3 44.9 152.95 44.7 150.15 44.5 146.15 45.6 M86.2 20.25 Q84.95 30.95 84.95 37.0 L84.95 38.55 Q85.25 39.35 86.9 39.9 91.0 41.25 107.8 42.15 L115.95 42.15 117.5 2.0 87.95 2.0 Q87.65 7.8 86.2 20.25 M106.3 44.85 L84.45 46.05 Q84.45 50.05 80.7 63.45 76.95 76.85 76.95 80.0 L77.1 82.2 103.95 83.0 Q104.95 76.5 109.6 61.75 L114.95 45.0 106.3 44.85 M101.7 94.55 Q96.3 104.55 88.95 117.0 L89.0 117.9 103.95 118.0 104.6 117.95 104.6 117.8 Q124.95 87.45 124.95 86.5 L124.9 86.5 105.95 86.0 Q105.85 86.85 101.7 94.55 M88.95 86.3 L75.95 86.0 70.0 101.6 63.95 116.0 Q67.05 118.3 71.5 118.5 L80.05 118.25 85.95 118.0 86.15 117.1 96.95 96.35 101.95 86.5 88.95 86.3 M138.65 88.15 Q138.65 86.0 132.95 86.0 131.55 86.15 128.75 89.75 L108.95 116.0 108.85 117.2 Q108.85 118.4 110.45 118.4 112.75 118.4 115.7 115.8 121.25 110.95 135.25 94.25 L137.45 91.45 Q138.65 89.6 138.65 88.15 M44.95 46.0 Q44.95 53.35 41.95 75.5 41.95 80.15 42.3 80.45 L46.15 81.5 61.45 83.0 66.15 82.75 72.95 82.0 73.45 81.9 80.95 46.0 44.95 46.0 M37.95 83.0 Q38.25 76.75 39.5 63.6 40.6 52.0 40.7 46.0 L2.95 46.0 2.95 83.0 37.95 83.0 M2.95 86.0 L2.95 118.0 30.95 118.0 Q31.55 111.75 33.7 102.05 L36.95 86.0 2.95 86.0 M49.0 86.3 L40.95 87.0 Q34.95 112.0 34.95 113.0 34.95 114.85 38.6 116.25 43.0 117.95 50.75 117.95 L60.5 117.0 66.15 101.8 71.95 86.5 57.8 86.05 49.0 86.3 M45.95 121.3 L33.95 121.0 Q33.4 126.55 30.6 132.9 L25.95 143.0 Q28.0 144.9 31.35 145.2 L38.3 145.25 41.0 145.05 Q43.0 144.85 43.05 144.55 43.2 144.15 50.65 133.2 L54.3 127.55 57.95 121.5 45.95 121.3 M47.0 144.9 L60.95 145.0 Q61.4 145.0 62.8 143.25 66.0 139.25 71.7 133.25 L78.8 125.5 81.95 121.5 61.95 121.0 Q61.15 125.5 54.6 134.3 L46.95 144.0 47.0 144.9 M67.55 145.4 Q69.75 145.4 71.25 144.8 L74.1 143.0 85.55 134.5 Q95.2 127.3 98.2 125.25 97.6 125.45 100.0 122.55 98.75 121.0 95.95 121.0 92.9 121.0 87.65 124.05 80.95 127.9 73.75 135.2 66.65 142.4 65.95 143.45 64.55 145.4 67.55 145.4 M79.95 144.85 L80.6 145.0 81.35 144.8 81.6 144.45 91.15 138.4 Q96.8 134.75 100.25 131.85 103.35 129.3 108.95 125.25 110.55 124.15 110.55 122.7 110.55 122.1 109.85 121.5 109.25 121.0 108.95 121.0 L107.75 121.15 106.55 121.75 86.55 138.45 Q79.95 144.25 80.0 144.7 L79.95 144.85 M2.95 148.0 L2.25 154.0 Q2.25 157.8 3.8 160.0 5.2 162.0 7.2 162.0 10.3 162.0 14.5 157.35 18.6 152.9 19.9 148.5 L11.45 148.3 2.95 148.0 M25.5 133.25 Q29.0 124.4 29.95 121.0 L2.95 121.0 2.95 145.0 21.95 145.0 Q22.65 140.45 25.5 133.25 M28.05 148.35 Q19.9 151.1 15.95 161.5 23.4 161.1 30.35 155.9 36.4 150.4 37.5 149.65 36.55 148.2 33.95 147.75 31.2 147.3 28.05 148.35 M53.05 148.55 L52.95 148.0 Q50.35 148.15 42.0 152.05 32.1 156.6 27.95 161.0 35.7 161.4 44.75 155.7 52.1 151.05 53.05 148.55 M-22.05 -149.0 Q-21.1 -149.0 -18.65 -153.0 -15.9 -157.6 -15.05 -162.0 -17.2 -161.65 -26.0 -156.5 -35.15 -151.1 -35.0 -149.5 L-22.05 -149.0 M-11.5 -157.7 Q-15.3 -153.7 -17.0 -149.5 L-0.05 -149.0 0.75 -155.6 Q0.75 -158.15 -0.75 -160.1 -2.25 -162.0 -4.05 -162.0 -7.3 -162.0 -11.5 -157.7 M-46.85 -145.0 L-52.05 -145.0 Q-53.95 -144.85 -57.4 -142.4 -64.4 -137.35 -79.05 -123.0 L-79.0 -122.1 -60.05 -122.0 Q-50.6 -134.05 -49.15 -136.3 -47.95 -138.15 -46.85 -142.65 L-46.85 -145.0 M-66.05 -145.0 Q-70.3 -145.4 -84.1 -134.3 -91.0 -128.75 -97.05 -123.0 L-97.0 -122.1 -84.05 -122.0 -76.85 -129.3 -68.35 -137.85 Q-67.4 -138.85 -66.5 -140.45 -65.45 -142.25 -65.45 -143.2 -65.45 -143.85 -65.6 -144.15 L-66.05 -145.0 M-20.05 -145.0 Q-20.7 -138.65 -24.0 -132.35 -27.05 -126.5 -27.05 -124.0 -27.05 -123.25 -20.65 -122.5 L-7.2 -121.75 -0.05 -121.8 -0.05 -145.0 -20.05 -145.0 M-108.0 -122.35 Q-107.25 -122.0 -106.55 -122.0 -102.35 -122.0 -94.2 -128.95 -86.55 -135.5 -79.05 -145.0 -80.8 -144.5 -86.7 -139.9 -98.35 -130.75 -109.05 -123.0 -108.7 -122.65 -108.0 -122.35 M-107.65 -112.25 Q-107.4 -113.05 -107.4 -115.55 -107.4 -119.9 -112.85 -115.75 -120.35 -110.05 -136.05 -89.0 -135.75 -87.55 -135.2 -87.0 -134.65 -86.5 -133.75 -86.5 -131.35 -86.5 -127.9 -88.6 -122.95 -91.65 -118.9 -97.8 -113.7 -105.65 -109.05 -110.35 -107.9 -111.5 -107.65 -112.25 M-88.65 -115.0 L-88.5 -114.9 -88.4 -115.6 Q-88.4 -117.2 -89.8 -117.75 L-94.45 -118.4 Q-100.15 -118.75 -111.65 -103.5 -117.4 -95.8 -122.05 -88.0 L-122.0 -87.1 -103.05 -87.0 Q-102.4 -90.55 -99.75 -94.75 L-95.75 -101.2 Q-89.25 -115.0 -88.65 -115.0 M-128.9 -80.85 Q-128.9 -82.6 -131.35 -83.0 -133.75 -83.4 -136.65 -82.1 -146.9 -65.5 -154.05 -48.0 -152.65 -45.4 -148.9 -45.4 -146.55 -45.4 -145.05 -46.0 L-143.7 -46.75 Q-141.35 -51.15 -136.85 -62.55 -132.8 -73.0 -129.45 -78.55 -128.9 -79.55 -128.9 -80.85 M-150.5 -42.15 L-153.2 -41.5 Q-157.0 -26.65 -160.05 -9.0 L-160.1 -7.45 Q-160.1 -3.85 -158.5 -2.45 -157.15 -1.3 -154.2 -1.3 -149.3 -1.3 -148.3 -3.05 L-147.1 -10.2 -144.35 -27.55 Q-143.3 -34.4 -143.0 -38.7 -143.0 -40.4 -144.1 -41.4 -145.3 -42.5 -147.5 -42.5 L-150.5 -42.15 M-72.05 -89.0 L-72.05 -87.5 -72.95 -87.5 Q-72.5 -87.6 -72.55 -88.05 -72.6 -88.6 -72.05 -89.0 M-1.05 86.5 L-34.05 86.0 Q-33.3 93.3 -31.4 102.55 L-28.05 118.0 -0.05 118.0 0.25 105.2 Q0.25 101.25 -0.4 93.9 L-1.05 86.5 M-69.05 86.0 Q-67.85 93.7 -63.9 102.85 L-57.05 118.0 -32.05 118.0 Q-32.8 110.5 -35.0 101.35 L-39.05 86.0 -69.05 86.0 M-161.05 2.0 Q-158.15 13.3 -157.15 23.25 L-156.45 35.45 Q-156.25 39.85 -154.95 41.05 -153.55 42.35 -148.55 42.35 L-143.55 42.0 -144.75 25.65 -146.45 2.0 -161.05 2.0 M-154.05 46.0 Q-152.6 50.2 -148.0 64.75 -145.55 72.45 -144.0 75.3 -142.15 78.85 -139.2 80.45 -136.6 81.9 -130.55 83.0 -131.1 78.4 -134.3 67.55 -138.0 55.0 -142.05 46.0 L-154.05 46.0 M-138.05 45.05 Q-137.65 46.8 -124.05 83.0 L-116.85 83.3 -105.05 82.45 Q-105.1 81.65 -106.35 77.7 L-116.05 46.0 -124.1 46.3 -133.2 45.75 -138.05 45.05 M-138.05 86.0 Q-122.4 109.75 -118.15 113.75 -115.8 115.95 -113.05 116.65 L-106.55 118.0 -127.05 86.0 -138.05 86.0 M-94.8 94.85 Q-89.75 104.6 -82.05 118.0 L-74.25 118.3 -68.0 117.95 -61.05 117.0 -61.6 116.85 -74.05 86.0 -99.05 86.0 Q-98.95 86.8 -94.8 94.85 M-122.95 86.5 L-101.05 118.0 -95.1 118.3 -90.75 117.95 -86.05 117.0 -86.65 116.8 -104.05 86.0 Q-123.05 86.0 -122.95 86.5 M-99.05 121.0 Q-85.1 135.4 -79.05 139.75 -72.1 144.75 -64.55 145.0 L-84.05 121.0 -99.05 121.0 M-26.6 133.25 L-31.05 122.0 -54.05 122.0 Q-53.9 122.95 -52.65 125.1 L-40.05 145.0 -33.5 145.3 -28.5 144.95 -23.05 144.0 Q-23.8 139.8 -26.6 133.25 M-37.05 148.0 Q-34.2 150.05 -26.3 156.9 -18.9 162.6 -14.55 162.0 -14.65 160.3 -16.65 156.2 -19.05 151.45 -22.05 148.0 L-37.05 148.0 M-17.05 148.0 Q-16.45 151.35 -13.1 156.2 -8.9 162.25 -4.75 162.25 0.7 162.25 0.7 155.9 0.7 152.1 -1.55 150.1 -4.45 147.5 -11.5 147.5 L-17.05 148.0 M-0.05 145.0 L-0.05 122.0 -27.05 122.0 Q-26.35 126.45 -23.4 133.45 -19.95 141.85 -19.05 145.0 L-0.05 145.0 M-66.45 137.95 Q-60.7 144.9 -47.05 145.05 L-46.55 145.0 Q-46.95 141.85 -50.75 134.95 -55.1 127.05 -60.05 122.0 L-78.05 122.0 Q-74.65 125.45 -71.35 130.65 L-66.45 137.95 M-53.05 148.0 Q-52.9 148.8 -45.15 153.05 -36.15 158.0 -26.05 162.0 -26.1 161.65 -28.15 159.85 -31.05 157.3 -42.05 148.0 L-53.05 148.0" fill="#4b4b4b" fill-opacity="0.972549" fill-rule="evenodd" stroke="none"/>
    <path d="M2.95 -88.1 L2.95 -87.0 4.75 -87.0 Q6.0 -86.0 9.3 -85.55 L12.8 -85.3 20.75 -86.2 Q22.9 -86.65 25.95 -85.0 21.55 -84.0 13.45 -83.6 6.7 -83.25 2.95 -83.5 L2.95 -83.0 2.95 -47.0 2.4 -47.6 0.95 -49.0 0.95 -48.25 Q0.8 -47.75 -1.05 -47.1 L-1.05 -83.0 -34.05 -83.0 Q-35.55 -78.3 -36.6 -69.45 -37.55 -61.95 -37.55 -58.0 L-38.05 -58.0 -38.0 -61.95 -38.2 -64.35 Q-38.4 -66.0 -38.65 -66.5 -39.95 -64.95 -41.05 -61.0 L-41.0 -83.0 -70.55 -82.9 Q-72.8 -69.55 -74.8 -61.15 L-76.8 -53.9 -78.05 -49.0 Q-78.05 -48.3 -75.8 -46.75 -73.5 -45.15 -71.9 -44.85 L-78.05 -45.0 Q-75.75 -43.75 -70.35 -43.1 L-64.8 -42.7 -55.8 -43.2 -51.05 -43.75 Q-46.35 -43.75 -44.15 -42.2 -41.75 -40.5 -41.75 -36.65 -41.75 -33.05 -43.05 -31.0 -43.5 -37.65 -42.8 -39.7 L-43.5 -39.65 Q-44.65 -39.5 -46.5 -40.25 -50.05 -41.65 -56.5 -42.0 L-65.4 -42.15 Q-74.85 -42.15 -76.95 -39.7 -77.9 -38.6 -78.6 -36.0 -79.35 -32.4 -80.05 -30.0 L-80.05 -36.0 Q-80.65 -35.0 -81.65 -32.0 -83.2 -27.65 -84.05 -23.0 L-83.15 -31.6 Q-82.55 -37.45 -82.95 -42.0 L-113.05 -42.0 -114.65 -25.9 Q-116.3 -11.2 -116.3 -8.75 -116.3 0.2 -106.35 0.2 -102.5 0.2 -96.85 -0.9 -91.35 -2.0 -87.4 -3.5 -85.15 -4.35 -85.35 -6.95 -85.6 -11.0 -84.05 -14.0 -84.05 -6.4 -83.05 0.45 L-71.85 1.3 -65.05 1.0 -44.05 1.5 -44.05 2.0 -81.05 2.0 -79.05 42.0 -43.05 42.0 Q-43.8 26.75 -44.05 11.0 -42.65 18.2 -42.05 31.0 -41.55 27.65 -41.1 20.5 L-40.75 13.5 -41.05 0.9 -10.1 2.0 -40.05 2.0 -40.2 13.5 -38.65 42.0 -1.05 42.0 -1.05 3.2 0.85 3.45 1.25 6.75 Q1.55 8.85 1.75 9.4 2.25 7.75 2.45 1.0 L2.95 1.0 2.95 2.0 2.95 42.0 2.95 42.5 Q6.55 42.35 14.35 42.75 L27.95 44.0 16.75 44.85 Q7.95 45.45 1.95 45.0 L2.25 52.2 1.9 57.8 Q1.5 61.65 0.95 64.0 0.6 61.55 0.25 55.25 -0.1 48.5 -0.05 45.0 L-40.05 45.0 -39.65 46.35 Q-39.35 46.95 -39.05 47.0 -38.25 50.75 -37.65 56.85 -37.05 63.25 -37.05 68.0 -37.3 71.15 -37.85 72.1 -38.45 73.05 -39.0 72.4 -39.6 71.7 -39.85 69.8 L-40.0 68.85 -40.05 67.0 -40.55 67.0 Q-40.55 61.85 -41.3 55.35 -42.15 48.15 -42.2 46.0 L-78.05 46.0 -76.0 57.1 -75.05 63.0 Q-76.7 63.0 -77.85 61.55 L-78.7 60.1 -79.05 58.0 -79.55 58.0 -81.05 49.0 -81.15 47.45 -103.05 43.0 Q-89.3 43.85 -84.5 41.05 -81.65 39.4 -81.65 35.55 L-82.1 33.65 Q-82.6 31.75 -83.05 31.0 L-84.2 14.8 -85.05 2.0 -85.05 1.15 -118.05 1.0 -117.05 7.3 Q-116.25 12.4 -116.25 15.2 L-116.5 18.5 -117.05 23.0 Q-117.2 7.5 -118.95 3.25 L-119.55 2.15 -119.55 2.0 -119.65 2.0 Q-120.25 1.15 -121.15 0.55 L-124.05 -1.0 -123.1 -0.95 Q-118.35 -0.6 -118.35 -5.9 -118.35 -6.9 -119.05 -11.0 -119.25 -19.65 -118.05 -25.0 -117.1 -29.2 -117.55 -32.0 L-117.05 -32.0 Q-116.55 -30.75 -116.25 -33.2 L-116.0 -36.85 Q-116.0 -43.2 -121.05 -45.0 L-119.75 -44.7 Q-117.4 -44.25 -116.2 -45.45 -115.45 -46.2 -115.05 -48.0 -115.05 -48.85 -113.05 -54.95 -111.05 -61.0 -111.05 -63.0 L-107.8 -67.75 -106.05 -69.5 -106.05 -68.0 Q-106.5 -63.45 -108.45 -57.3 L-112.05 -47.0 -105.4 -46.3 -94.45 -45.7 -82.05 -46.0 Q-79.35 -61.05 -77.15 -70.3 L-75.05 -79.0 Q-74.2 -79.95 -74.2 -81.3 -74.2 -82.3 -74.35 -81.6 L-96.05 -85.0 -85.6 -86.55 -80.4 -87.1 -72.95 -87.5 -72.05 -87.5 -72.05 -89.0 Q-72.05 -91.1 -69.8 -95.65 -67.3 -100.6 -67.05 -102.0 -66.1 -102.6 -65.0 -102.6 -64.85 -101.9 -64.85 -100.9 L-65.05 -99.0 Q-65.05 -97.1 -66.3 -94.05 -67.5 -91.0 -69.05 -89.0 -66.25 -87.45 -65.0 -87.05 -62.4 -86.2 -58.35 -86.2 L-39.05 -87.0 Q-37.6 -89.35 -36.5 -94.35 -35.55 -98.6 -35.55 -100.95 L-35.05 -101.0 Q-33.45 -106.15 -32.3 -107.7 L-32.1 -107.6 Q-31.75 -107.15 -31.75 -105.55 L-32.05 -101.0 Q-32.05 -99.65 -33.05 -95.1 L-34.05 -90.0 -35.05 -90.0 Q-33.75 -86.85 -32.4 -85.85 -30.55 -84.5 -26.25 -84.5 L-0.05 -87.0 -0.15 -92.1 Q0.05 -96.85 1.95 -98.5 1.95 -89.0 2.95 -88.1 M40.95 -56.0 L40.95 -61.0 Q42.55 -60.15 43.15 -57.4 L43.8 -51.9 Q44.05 -50.0 44.55 -48.45 L44.65 -46.0 45.75 -45.95 Q47.3 -43.7 49.95 -43.0 L49.0 -42.75 Q48.3 -42.5 47.75 -42.0 L45.95 -42.0 46.15 -32.0 45.4 -19.25 Q45.4 -15.75 45.85 -10.35 46.35 -4.25 46.95 -2.65 L47.25 -2.0 48.45 -0.9 49.95 0.0 48.4 2.0 46.95 2.0 47.15 4.9 Q45.6 10.05 45.15 18.0 L44.45 18.0 44.1 1.0 6.95 1.0 7.8 -0.45 Q6.4 -1.1 3.55 -1.05 L3.4 -2.0 42.95 -2.0 42.55 -42.0 2.95 -42.0 2.95 -8.15 Q2.2 -24.05 1.95 -40.0 L2.75 -42.35 Q3.5 -44.85 3.45 -45.95 11.95 -45.35 25.4 -46.5 L40.65 -47.8 40.95 -56.0 M-8.25 -46.0 L-16.95 -45.35 -23.6 -45.0 -30.25 -45.35 -39.05 -46.0 -8.25 -46.0 M-42.05 -49.0 Q-42.2 -45.5 -43.5 -45.75 L-48.0 -46.45 Q-46.85 -46.6 -45.05 -47.4 L-42.05 -49.0" fill="#959595" fill-opacity="0.99607843" fill-rule="evenodd" stroke="none"/>
  </g>
</svg>
