<?xml version="1.0" encoding="UTF-8" standalone="no"?>
<svg xmlns:ffdec="https://www.free-decompiler.com/flash" xmlns:xlink="http://www.w3.org/1999/xlink" ffdec:objectType="shape" height="337.6px" width="337.6px" xmlns="http://www.w3.org/2000/svg">
  <g transform="matrix(1.0, 0.0, 0.0, 1.0, 168.05, 169.1)">
    <path d="M66.95 -124.0 L71.5 -122.7 Q75.6 -121.6 78.1 -121.6 L81.95 -122.05 86.95 -123.0 Q86.65 -123.05 85.75 -123.85 L80.85 -128.8 Q73.6 -136.15 63.95 -145.0 L52.95 -145.0 Q58.1 -136.3 62.85 -129.9 65.85 -125.8 65.95 -125.0 L64.35 -126.4 Q63.15 -127.4 61.95 -128.0 L61.95 -126.0 Q61.6 -126.05 59.8 -128.5 L47.95 -145.0 31.95 -145.0 31.95 -143.0 31.1 -143.85 30.25 -144.9 Q31.15 -145.45 33.05 -146.0 34.9 -146.5 35.55 -146.95 34.25 -147.85 28.95 -149.0 L36.25 -148.75 Q40.55 -149.0 42.95 -150.0 L42.55 -150.05 33.45 -155.95 Q25.85 -160.55 19.95 -162.0 L24.6 -155.9 Q27.4 -152.4 27.95 -150.0 L26.85 -151.25 Q25.9 -152.1 23.95 -152.0 L23.95 -151.0 Q22.3 -152.35 17.6 -157.75 12.4 -162.4 5.95 -162.0 L6.8 -160.1 7.1 -158.25 6.95 -155.0 6.45 -155.0 Q6.7 -156.2 6.15 -157.15 5.5 -158.25 3.95 -158.0 L3.95 -157.0 Q3.15 -157.9 1.65 -160.35 0.15 -162.4 -1.65 -162.4 -2.5 -162.4 -4.5 -161.35 L-8.05 -159.0 -8.05 -159.35 -9.1 -159.45 -11.05 -159.0 Q-10.45 -160.2 -10.45 -161.25 L-10.45 -161.5 -11.05 -161.65 Q-14.4 -161.65 -18.65 -160.15 -22.4 -158.8 -24.5 -156.85 L-24.1 -157.35 Q-22.65 -159.15 -22.3 -160.25 L-22.6 -160.85 -23.05 -161.0 -23.05 -161.35 -24.65 -161.55 -28.8 -160.7 Q-31.85 -159.8 -33.05 -159.0 L-33.05 -159.5 Q-44.05 -155.55 -48.3 -153.4 L-56.05 -149.0 -57.55 -149.0 Q-57.0 -150.2 -54.4 -151.9 L-50.05 -154.5 -62.6 -150.35 Q-68.05 -148.55 -71.85 -148.55 L-75.35 -148.15 -80.05 -147.0 Q-77.15 -146.65 -75.8 -146.0 L-74.2 -144.6 -76.05 -143.0 -76.85 -144.5 Q-77.2 -144.9 -77.8 -144.9 L-79.55 -144.2 -82.05 -143.0 -82.05 -144.0 Q-87.25 -141.7 -94.5 -135.45 L-104.5 -126.8 Q-106.85 -125.05 -111.0 -123.35 -114.55 -121.35 -116.95 -116.6 L-122.3 -108.9 Q-127.7 -101.0 -129.9 -96.05 -130.75 -94.15 -135.1 -91.15 -139.2 -88.35 -141.05 -88.0 -136.7 -92.25 -131.5 -99.95 -127.15 -106.45 -125.55 -110.0 L-126.05 -110.0 Q-125.95 -111.6 -111.5 -125.0 -96.7 -138.75 -90.05 -143.0 L-88.0 -144.35 Q-86.5 -145.0 -85.05 -144.0 -84.8 -144.95 -82.25 -146.6 -79.45 -148.4 -72.8 -151.75 -51.15 -161.1 -49.3 -161.65 -42.0 -163.9 -29.6 -166.15 -13.55 -169.1 -2.7 -169.1 49.8 -169.1 90.0 -144.6 121.5 -125.45 143.25 -92.85 161.95 -64.8 167.4 -32.1 169.2 -21.1 169.5 -9.35 L169.45 5.05 Q169.45 15.2 168.75 22.9 167.9 32.0 166.45 32.0 166.9 33.55 166.35 35.2 165.65 37.15 163.95 37.0 L164.65 42.8 Q161.6 51.9 149.35 77.2 144.2 87.95 137.1 98.2 127.95 111.35 119.45 119.85 113.4 125.85 101.6 135.05 81.8 150.5 57.75 159.05 31.15 168.5 1.75 168.5 -15.2 168.5 -38.15 163.5 -61.7 158.35 -71.9 152.1 -80.1 147.1 -95.9 138.95 -107.1 132.25 -105.05 127.0 -107.25 127.4 -109.4 125.45 -113.45 121.8 -116.9 119.75 -122.15 116.65 -127.2 110.45 -133.45 102.75 -140.5 89.2 L-115.05 118.0 Q-130.2 94.55 -134.6 90.25 -136.7 88.2 -138.85 87.65 L-143.65 86.8 Q-163.1 42.85 -163.1 42.0 L-165.8 18.75 -168.05 -5.0 -164.9 -21.15 Q-162.1 -35.45 -163.55 -43.95 L-162.05 -44.0 -162.05 -42.0 -162.0 -36.35 Q-162.0 -34.5 -164.0 -20.2 -166.05 -5.9 -166.05 -4.0 -166.05 -3.25 -162.35 -2.6 -160.6 -2.6 -159.85 -5.05 -159.0 -7.75 -159.55 -13.0 L-159.05 -13.0 Q-158.2 -8.7 -158.2 -7.7 -158.2 -3.9 -159.95 -2.2 -161.8 -0.4 -165.7 -0.8 L-166.05 -0.85 Q-164.65 -0.4 -162.75 1.55 -160.65 3.65 -160.05 5.0 L-162.05 2.65 Q-163.1 1.6 -164.3 1.6 L-167.05 2.0 -158.15 41.6 -155.65 42.1 -155.0 41.85 Q-154.85 42.15 -154.85 41.15 L-154.9 40.4 -155.05 40.0 -154.5 40.05 -154.35 40.45 -154.25 41.5 Q-154.25 42.5 -154.4 42.9 L-155.5 43.1 -156.95 43.25 -158.05 43.0 Q-157.6 44.1 -156.15 45.25 L-154.05 47.0 -156.35 46.2 -157.9 45.8 -160.05 46.0 Q-154.75 60.1 -149.65 69.55 -144.1 79.75 -139.55 82.85 -139.15 82.75 -139.05 82.0 -138.15 81.0 -138.05 80.0 L-137.0 80.9 -136.8 81.2 Q-136.8 82.2 -137.05 83.0 L-138.05 83.0 Q-137.15 84.75 -133.85 85.4 -131.05 85.95 -129.05 85.5 L-129.05 86.0 -135.05 86.0 Q-128.8 94.4 -122.05 102.3 -108.6 118.05 -104.3 118.05 L-102.15 117.75 Q-101.55 117.5 -101.55 116.8 -101.55 116.3 -102.5 115.05 L-104.05 113.0 -102.1 113.5 -101.05 113.4 -101.05 113.0 Q-97.7 116.05 -95.75 117.1 -93.4 118.35 -90.3 118.35 -87.4 118.55 -85.7 118.35 -82.6 118.0 -81.05 116.0 L-80.65 116.1 -80.45 116.65 Q-82.0 120.45 -89.65 119.25 L-91.05 119.0 Q-81.8 121.05 -79.05 121.95 -76.25 122.9 -76.05 124.0 L-80.55 122.75 Q-84.5 121.65 -88.1 121.65 L-93.05 122.0 Q-84.4 131.45 -73.9 138.75 -64.95 145.0 -62.4 145.0 -61.1 145.0 -60.45 144.3 L-60.05 143.45 Q-60.05 142.15 -60.3 142.0 -61.05 141.8 -61.95 141.2 -66.1 138.45 -74.05 126.0 -72.3 125.95 -72.05 125.3 L-73.05 123.0 Q-59.25 138.3 -51.2 142.95 -47.3 145.15 -42.4 145.15 L-41.2 145.05 -40.35 144.9 Q-40.05 144.8 -40.05 143.8 -40.05 142.9 -41.85 140.6 -44.65 137.0 -48.05 129.0 -47.6 129.25 -47.05 129.65 L-45.95 129.95 -45.3 129.8 -45.4 129.65 -45.75 128.15 -46.05 127.0 -39.7 134.85 Q-36.0 139.9 -35.05 145.0 L-18.95 145.0 -18.05 145.0 -6.85 145.3 4.95 144.45 5.65 141.4 Q6.35 136.1 6.8 122.0 L-19.05 122.0 -18.95 139.95 -20.0 134.55 -21.05 129.0 Q-20.3 128.25 -19.9 127.2 L-19.65 126.15 Q-19.65 125.15 -20.2 123.3 L-21.05 121.0 Q-12.5 121.55 -1.2 120.55 8.7 119.65 12.8 118.45 L11.25 117.05 Q10.0 115.75 10.0 114.8 10.0 113.7 10.95 112.0 11.85 116.35 14.05 118.0 16.15 119.55 20.6 119.55 L25.15 119.05 Q27.55 118.7 33.05 119.0 37.7 118.7 39.0 115.2 40.65 110.7 42.65 102.45 44.45 94.8 44.45 93.05 L44.95 93.0 45.25 95.75 44.95 97.05 Q44.55 97.8 43.95 98.0 L44.7 99.35 44.7 99.5 45.4 99.6 Q45.95 99.6 46.65 97.15 L47.95 93.0 Q47.8 94.55 41.95 117.0 L50.5 117.95 57.95 118.3 66.95 118.0 73.45 104.35 Q79.0 92.45 79.95 87.0 L59.1 85.8 50.95 86.0 Q51.95 85.3 53.5 84.8 L52.7 84.35 Q51.85 83.65 50.75 81.4 49.55 78.95 49.95 78.0 L50.95 78.0 Q51.7 81.2 53.95 82.95 56.15 84.6 59.2 84.6 L68.25 83.55 Q76.6 82.6 89.85 83.0 L89.85 82.6 110.95 83.0 121.95 45.0 115.45 44.95 103.05 45.75 Q95.15 46.55 93.45 47.1 93.25 49.65 89.9 61.45 L89.95 46.5 72.95 45.75 63.65 46.3 54.95 47.0 54.95 45.0 Q63.35 45.45 76.0 44.9 L91.95 44.0 72.05 42.75 Q61.0 42.35 55.95 42.5 L55.95 42.0 Q80.8 42.6 88.3 40.75 92.1 39.85 90.9 38.7 90.9 32.3 91.95 30.0 L91.7 37.4 Q91.7 38.7 91.9 39.0 L94.95 26.0 Q95.1 29.05 94.55 33.75 L93.95 40.0 Q93.95 41.2 97.75 42.1 L103.9 42.8 123.55 42.0 Q124.6 27.5 125.85 14.85 L126.95 1.95 119.05 1.9 104.2 3.1 98.65 4.15 Q97.05 4.6 97.1 5.35 97.65 11.35 95.95 13.0 L95.95 0.9 Q102.3 0.5 103.0 -0.1 102.4 -0.6 100.55 -0.95 L97.0 -1.25 96.95 -2.0 126.95 -2.0 125.85 -14.7 Q124.65 -27.0 123.55 -42.0 L93.95 -42.0 96.65 -42.85 100.45 -43.6 101.95 -43.8 Q100.1 -43.6 97.35 -44.75 94.35 -46.05 92.95 -48.0 93.9 -47.3 95.15 -47.0 L108.65 -46.1 121.95 -46.55 121.9 -57.15 125.95 -46.0 133.45 -45.7 139.4 -46.05 145.95 -47.0 145.4 -47.15 131.95 -83.0 84.95 -83.0 Q86.45 -84.2 88.75 -84.0 L92.4 -83.5 92.65 -83.45 Q86.65 -85.75 82.95 -88.0 L89.0 -87.25 95.95 -86.7 101.55 -87.25 107.95 -88.0 Q107.6 -89.9 103.95 -95.7 L89.95 -118.0 70.95 -118.0 Q71.9 -116.65 71.95 -114.0 L71.6 -114.0 Q71.25 -116.3 70.3 -118.7 68.95 -122.25 66.95 -124.0 M97.3 -113.6 L112.95 -87.0 119.5 -86.7 124.5 -87.05 129.95 -88.0 Q129.55 -88.05 129.3 -88.25 L107.95 -118.0 94.95 -118.0 Q95.0 -117.6 97.3 -113.6 M111.95 -118.0 Q121.05 -104.95 128.3 -93.0 130.7 -89.75 133.1 -88.5 135.45 -87.3 139.95 -87.0 L140.95 -87.0 Q140.1 -89.2 137.35 -92.9 133.0 -98.8 127.2 -108.6 125.9 -110.95 120.95 -114.55 115.15 -118.8 111.95 -118.0 M103.05 -122.45 Q97.7 -127.1 86.3 -138.25 76.35 -146.7 69.95 -145.0 L78.35 -134.45 Q82.1 -129.8 84.55 -127.7 90.0 -122.95 100.9 -122.0 L102.95 -122.0 103.05 -122.45 M134.95 -83.0 Q140.9 -68.05 145.25 -53.3 146.95 -49.1 149.15 -47.6 151.45 -46.0 156.2 -46.0 156.8 -46.0 157.25 -46.45 158.1 -47.25 158.1 -49.4 158.1 -51.15 157.0 -53.55 L153.85 -60.85 Q151.7 -65.9 150.45 -71.15 L149.3 -76.1 Q146.15 -83.05 136.6 -83.05 L134.95 -83.0 M158.9 -41.6 Q157.35 -42.65 154.4 -42.65 L149.95 -42.45 Q151.85 -25.6 152.8 -9.55 153.45 -5.1 154.9 -3.55 156.35 -1.95 159.85 -1.95 L164.45 -2.0 163.4 -16.6 Q162.65 -27.0 162.05 -38.0 L160.8 -38.0 Q160.5 -40.5 158.9 -41.6 M128.0 -26.35 Q128.9 -16.25 129.6 -2.0 L138.75 -1.7 145.0 -2.05 151.95 -3.0 Q151.75 -3.1 149.6 -19.8 147.3 -37.6 145.95 -42.0 L126.95 -42.0 Q127.2 -34.85 128.0 -26.35 M163.35 2.15 Q160.2 0.35 155.45 1.15 154.95 7.4 152.3 20.55 149.95 32.05 149.95 39.0 149.95 40.75 151.5 41.7 152.65 42.4 154.05 42.4 157.0 42.4 159.3 40.9 161.85 39.25 162.15 36.35 163.75 22.75 165.45 14.65 166.65 8.75 166.65 7.9 166.65 4.0 163.35 2.15 M128.45 22.8 L126.95 33.0 Q126.95 42.4 142.55 42.4 L146.95 42.3 Q147.25 41.8 147.8 37.1 148.9 27.65 150.25 1.05 L129.95 1.95 Q129.95 11.5 128.45 22.8 M156.95 45.9 Q154.9 44.55 151.2 45.6 L135.95 80.0 Q135.85 81.9 136.75 82.65 137.4 83.15 138.7 83.15 146.25 83.15 150.8 68.75 154.7 56.55 157.25 52.65 L158.35 51.1 158.65 49.2 Q158.65 47.05 156.95 45.9 M125.95 45.0 Q124.9 55.45 119.2 66.5 116.3 72.15 115.55 74.1 113.95 78.15 113.95 82.0 L114.0 82.9 131.95 83.0 Q132.25 80.5 135.85 72.05 140.65 60.95 144.95 45.0 L125.95 45.0 M110.15 90.65 L107.9 94.5 94.95 116.0 Q94.95 117.6 96.85 118.25 L99.2 118.6 Q105.95 118.6 118.05 102.7 124.1 94.75 128.95 86.5 L120.45 86.3 111.95 86.0 Q111.6 88.0 110.15 90.65 M83.95 86.0 Q83.4 91.45 77.7 103.1 L70.95 116.0 Q73.6 118.15 77.6 118.4 L85.55 118.25 90.0 118.35 Q91.45 118.1 92.85 115.85 98.55 104.3 107.95 86.0 L83.95 86.0 M140.55 91.1 L140.6 88.65 Q140.6 85.9 139.8 85.8 138.85 85.65 136.05 88.6 133.9 90.8 111.95 117.0 L113.0 117.65 Q113.75 118.0 114.45 118.0 115.9 118.0 118.7 116.3 122.85 113.75 126.4 108.95 133.5 99.25 139.3 92.9 L140.55 91.1 M45.8 121.9 L40.6 123.05 Q40.05 123.2 35.45 133.55 30.95 143.7 30.95 144.0 L31.0 144.9 47.95 145.0 Q48.55 145.0 48.4 144.7 L48.2 144.2 Q63.95 122.15 63.95 121.5 L55.9 121.0 Q50.8 121.0 45.8 121.9 M52.0 144.9 L64.95 145.0 Q76.7 133.95 86.95 121.0 L68.95 121.0 Q67.15 121.45 66.15 123.8 L64.65 127.35 Q62.6 130.35 56.45 137.35 51.95 142.5 51.95 144.0 L52.0 144.9 M71.75 144.95 Q74.5 144.95 87.8 135.2 100.8 125.65 103.55 122.1 101.7 121.0 100.95 121.0 97.85 121.0 94.85 122.3 89.0 124.85 81.55 132.25 72.4 141.3 70.9 143.65 70.2 144.6 70.6 144.85 L71.75 144.95 M29.3 121.8 L10.95 122.35 Q10.95 123.6 9.95 129.05 8.95 134.4 8.95 138.0 8.95 141.0 11.45 142.9 14.7 145.4 21.65 145.4 L27.5 145.0 29.8 139.0 Q32.45 132.3 36.95 122.0 L29.3 121.8 M16.35 148.05 L8.45 149.05 Q8.2 151.8 7.05 155.85 5.95 159.65 5.95 160.35 L6.0 161.25 6.25 162.0 7.5 162.25 Q11.8 162.25 18.1 157.8 24.85 153.0 24.95 148.65 L21.0 148.3 16.35 148.05 M3.5 149.55 Q0.8 147.85 -7.3 147.85 L-12.05 148.0 Q-11.8 150.45 -9.55 155.55 -6.7 162.0 -4.05 162.0 2.25 162.0 4.6 155.9 6.35 151.4 3.5 149.55 M18.95 161.5 Q23.85 162.85 33.6 156.0 L42.6 148.65 Q42.55 148.45 41.45 148.2 L39.65 148.0 Q34.0 148.0 27.4 151.65 19.75 155.85 18.95 161.5 M-107.0 122.05 L-92.35 135.3 Q-89.15 138.3 -85.6 140.6 -78.95 145.0 -74.05 145.0 -73.5 145.0 -73.15 144.55 L-72.9 143.95 Q-76.4 139.6 -81.3 134.95 -90.95 125.7 -97.65 123.65 L-103.4 122.65 -107.0 122.05 M-32.05 148.0 Q-29.4 153.35 -23.3 157.7 -16.85 162.35 -11.55 162.0 -11.25 160.2 -12.65 156.15 -14.3 151.35 -17.05 148.0 L-32.05 148.0 M-29.1 155.6 Q-34.0 150.55 -38.05 148.0 L-49.05 148.0 Q-48.75 148.85 -36.55 155.45 -24.45 162.0 -23.55 162.0 -25.35 159.45 -29.1 155.6" fill="#363636" fill-opacity="0.92156863" fill-rule="evenodd" stroke="none"/>
    <path d="M65.95 -125.0 L66.65 -124.7 66.95 -124.0 Q68.95 -122.25 70.3 -118.7 71.25 -116.3 71.6 -114.0 L71.95 -114.0 78.35 -101.65 Q82.0 -94.2 82.95 -88.0 86.65 -85.75 92.65 -83.45 L92.4 -83.5 88.75 -84.0 Q86.45 -84.2 84.95 -83.0 L89.55 -66.1 Q92.15 -56.05 92.95 -48.0 94.35 -46.05 97.35 -44.75 100.1 -43.6 101.95 -43.8 L100.45 -43.6 96.65 -42.85 93.95 -42.0 95.95 -22.9 Q96.95 -11.55 96.95 -2.0 L97.0 -1.25 100.55 -0.95 Q102.4 -0.6 103.0 -0.1 102.3 0.5 95.95 0.9 L95.95 13.0 96.25 18.0 Q96.25 20.5 95.7 22.8 L94.95 26.0 91.9 39.0 Q91.7 38.7 91.7 37.4 L91.95 30.0 Q91.95 25.9 92.5 15.05 L92.95 8.55 Q93.45 2.0 93.95 2.0 L83.8 1.85 Q76.75 1.85 57.95 2.35 57.7 14.6 56.8 28.75 L55.95 42.0 55.95 42.5 Q61.0 42.35 72.05 42.75 L91.95 44.0 76.0 44.9 Q63.35 45.45 54.95 45.0 L54.95 47.0 52.9 60.85 Q50.95 73.35 50.95 78.0 L49.95 78.0 Q49.55 78.95 50.75 81.4 51.85 83.65 52.7 84.35 L53.5 84.8 Q51.95 85.3 50.95 86.0 48.9 88.1 48.25 90.25 47.95 91.25 47.95 93.0 L46.65 97.15 Q45.95 99.6 45.4 99.6 L44.7 99.5 44.7 99.35 43.95 98.0 Q44.55 97.8 44.95 97.05 L45.25 95.75 44.95 93.0 Q44.95 91.1 45.4 89.05 45.7 87.55 45.95 87.05 L37.7 86.6 25.35 86.4 12.95 86.0 11.85 97.65 Q10.95 106.8 10.95 112.0 10.0 113.7 10.0 114.8 10.0 115.75 11.25 117.05 L12.8 118.45 Q8.7 119.65 -1.2 120.55 -12.5 121.55 -21.05 121.0 L-20.2 123.3 Q-19.65 125.15 -19.65 126.15 L-19.9 127.2 Q-20.3 128.25 -21.05 129.0 -22.45 128.5 -23.05 127.0 L-24.35 124.2 Q-27.3 120.7 -40.9 120.7 L-48.05 121.0 Q-47.9 122.65 -46.95 124.8 L-46.05 127.0 -45.75 128.15 -45.4 129.65 -45.3 129.8 -45.95 129.95 -47.05 129.65 Q-47.6 129.25 -48.05 129.0 -48.7 127.45 -49.65 125.85 -51.45 122.65 -54.05 121.0 L-74.05 121.0 Q-73.15 122.1 -73.05 123.0 L-72.05 125.3 Q-72.3 125.95 -74.05 126.0 L-76.05 124.0 Q-76.25 122.9 -79.05 121.95 -81.8 121.05 -91.05 119.0 L-89.65 119.25 Q-82.0 120.45 -80.45 116.65 L-80.65 116.1 -81.05 116.0 -81.65 115.8 Q-88.75 100.6 -97.05 86.0 L-118.05 86.0 -104.65 105.95 Q-101.25 111.15 -101.05 113.0 L-101.05 113.4 -102.1 113.5 -104.05 113.0 Q-110.45 104.4 -115.85 93.1 -118.15 89.4 -120.8 87.85 -123.85 86.05 -129.05 86.0 L-129.05 85.5 Q-131.05 85.95 -133.85 85.4 -137.15 84.75 -138.05 83.0 L-137.05 83.0 -131.45 83.3 -127.35 83.0 -123.05 82.0 -123.6 81.85 -136.05 46.0 -151.05 46.0 -142.15 68.85 Q-138.15 79.25 -138.05 80.0 -138.15 81.0 -139.05 82.0 -141.25 81.45 -142.15 78.4 -142.85 74.8 -143.6 73.45 L-148.65 61.05 -154.05 47.0 -156.15 45.25 Q-157.6 44.1 -158.05 43.0 L-156.95 43.25 -155.5 43.1 -154.4 42.9 Q-154.25 42.5 -154.25 41.5 L-154.35 40.45 -154.5 40.05 -155.05 40.0 -157.6 25.1 Q-159.75 12.85 -160.05 5.0 -160.65 3.65 -162.75 1.55 -164.65 -0.4 -166.05 -0.85 L-165.7 -0.8 Q-161.8 -0.4 -159.95 -2.2 -158.2 -3.9 -158.2 -7.7 -158.2 -8.7 -159.05 -13.0 L-156.4 -29.95 Q-155.55 -34.65 -155.55 -36.15 -155.55 -38.5 -156.9 -40.1 -158.65 -42.15 -162.05 -42.0 L-162.05 -44.0 Q-162.05 -48.85 -146.8 -78.15 -131.05 -108.45 -126.05 -110.0 L-125.55 -110.0 Q-127.15 -106.45 -131.5 -99.95 -136.7 -92.25 -141.05 -88.0 -139.2 -88.35 -135.1 -91.15 -130.75 -94.15 -129.9 -96.05 -127.7 -101.0 -122.3 -108.9 L-116.95 -116.6 Q-114.55 -121.35 -111.0 -123.35 -106.85 -125.05 -104.5 -126.8 L-94.5 -135.45 Q-87.25 -141.7 -82.05 -144.0 L-82.05 -143.0 Q-82.1 -142.65 -85.15 -140.05 L-106.05 -123.0 -101.8 -122.55 Q-98.1 -122.55 -96.1 -123.4 -94.2 -124.15 -92.0 -126.45 -85.1 -134.55 -76.05 -143.0 L-74.2 -144.6 -75.8 -146.0 Q-77.15 -146.65 -80.05 -147.0 L-75.35 -148.15 -71.85 -148.55 Q-68.05 -148.55 -62.6 -150.35 L-50.05 -154.5 -54.4 -151.9 Q-57.0 -150.2 -57.55 -149.0 L-56.05 -149.0 -48.3 -153.4 Q-44.05 -155.55 -33.05 -159.5 L-33.05 -159.0 -33.25 -158.35 -47.05 -150.0 -41.75 -149.4 Q-35.5 -149.4 -31.1 -152.15 -26.85 -154.85 -23.05 -161.0 L-22.6 -160.85 -22.3 -160.25 Q-22.65 -159.15 -24.1 -157.35 L-24.5 -156.85 -26.05 -155.0 Q-26.45 -153.4 -28.15 -151.95 L-31.05 -150.0 -29.8 -149.45 -29.65 -149.25 -22.6 -148.7 Q-17.8 -148.7 -16.7 -149.8 -16.2 -150.3 -11.05 -159.0 L-9.1 -159.45 -8.05 -159.35 -8.05 -159.0 Q-8.05 -157.5 -9.2 -155.0 -10.5 -152.25 -12.05 -151.0 -10.9 -150.45 -7.6 -149.6 L-4.35 -148.9 -0.1 -149.4 Q4.0 -150.1 4.0 -151.05 L3.95 -157.0 3.95 -158.0 Q5.5 -158.25 6.15 -157.15 6.7 -156.2 6.45 -155.0 L6.95 -155.0 Q8.5 -150.7 11.1 -149.15 13.45 -147.75 18.25 -147.75 24.9 -147.75 24.9 -149.55 L24.6 -150.45 23.95 -151.0 23.95 -152.0 Q25.9 -152.1 26.85 -151.25 L27.95 -150.0 28.65 -149.7 28.95 -149.0 Q34.25 -147.85 35.55 -146.95 34.9 -146.5 33.05 -146.0 31.15 -145.45 30.25 -144.9 L31.1 -143.85 31.95 -143.0 36.95 -133.45 Q39.95 -127.4 40.95 -122.0 L47.1 -121.8 Q54.75 -121.8 62.45 -124.0 L61.95 -126.0 61.95 -128.0 Q63.15 -127.4 64.35 -126.4 L65.95 -125.0 M27.95 -145.0 L8.95 -145.0 9.8 -133.35 10.4 -122.0 20.3 -121.7 28.1 -122.05 36.95 -123.0 Q36.6 -126.25 32.65 -134.75 L27.95 -145.0 M4.95 -145.0 L-14.05 -145.0 Q-13.7 -144.0 -16.85 -133.25 L-20.05 -122.5 6.95 -122.0 6.95 -123.2 6.7 -128.65 Q5.85 -145.0 4.95 -145.0 M8.95 -88.2 L7.9 -103.5 Q7.05 -113.15 6.95 -117.35 L-5.6 -118.0 -12.05 -118.2 -18.8 -118.25 Q-20.9 -118.05 -21.55 -116.55 -22.05 -115.3 -22.4 -110.35 -23.0 -102.15 -23.55 -97.0 L-24.05 -97.0 Q-24.1 -101.7 -24.9 -102.65 -26.0 -101.05 -27.05 -97.0 L-25.9 -107.85 Q-25.05 -114.75 -25.0 -118.0 L-51.05 -118.0 Q-51.55 -113.15 -53.8 -107.05 L-58.05 -97.0 -57.85 -98.9 Q-57.85 -99.9 -58.0 -100.6 -59.1 -100.6 -60.05 -100.0 -59.6 -102.7 -57.7 -108.55 -55.65 -114.75 -55.05 -118.0 L-77.05 -118.0 Q-77.4 -116.1 -80.35 -110.5 L-92.05 -89.0 Q-89.75 -87.05 -85.85 -86.3 L-78.9 -85.9 -89.05 -85.0 -70.6 -83.7 Q-66.05 -83.35 -65.1 -81.9 -65.4 -81.05 -66.05 -80.0 L-66.1 -81.5 -80.05 -82.6 -94.05 -83.0 Q-94.35 -79.8 -95.75 -75.9 L-98.05 -70.0 -98.3 -71.3 Q-98.65 -72.65 -99.1 -73.25 L-100.15 -71.6 -101.05 -70.0 Q-100.65 -74.25 -98.05 -83.0 L-120.05 -83.0 Q-120.7 -76.65 -125.9 -63.05 L-132.05 -48.0 Q-130.2 -47.2 -124.2 -46.1 L-115.9 -45.0 -109.95 -45.6 Q-112.05 -44.4 -114.0 -44.15 L-115.3 -44.05 Q-111.1 -43.8 -109.5 -42.25 -108.05 -40.8 -108.05 -37.5 L-108.3 -35.4 -108.65 -34.0 -109.05 -34.0 Q-109.05 -38.75 -112.2 -39.95 L-126.55 -42.05 -133.05 -42.05 Q-133.45 -32.6 -134.95 -21.9 -135.8 -15.8 -138.05 -3.0 L-132.35 -2.25 -128.35 -1.95 -117.15 -2.35 Q-112.2 -2.95 -112.2 -4.8 -112.2 -9.6 -111.05 -11.0 L-110.4 -6.25 Q-110.4 0.45 -117.7 -0.75 L-119.05 -1.0 Q-115.8 -0.2 -114.2 2.0 L-137.05 2.0 -135.4 23.0 Q-134.3 35.3 -134.25 42.0 L-109.05 42.0 Q-109.15 35.65 -109.85 26.45 -110.65 16.6 -111.75 9.7 L-109.0 24.4 Q-108.3 28.25 -108.0 28.75 -107.4 27.7 -107.05 23.0 -105.05 34.6 -105.05 42.0 L-73.05 42.0 -73.05 42.9 -97.05 43.0 -86.0 45.3 Q-79.1 46.5 -72.05 46.5 L-72.05 47.0 -93.8 45.85 -104.05 46.0 -94.05 83.0 -66.05 83.0 -71.05 55.0 -69.45 59.35 Q-68.75 60.9 -68.0 61.25 L-67.3 60.7 -67.05 58.0 -64.15 70.3 Q-62.6 77.55 -62.05 83.0 L-29.05 83.0 Q-30.0 77.7 -30.55 69.25 -31.05 62.25 -31.05 57.0 L-30.05 65.95 Q-29.65 62.05 -29.35 55.55 -29.05 49.0 -29.05 44.9 L-1.6 46.0 -28.05 46.0 Q-28.05 49.3 -26.55 62.6 -25.05 76.0 -25.05 82.5 L8.95 83.0 9.95 47.8 10.95 49.05 11.75 50.35 13.9 48.0 Q15.5 45.75 16.7 45.1 18.65 44.0 20.05 43.55 L21.1 43.2 Q17.8 43.6 16.1 43.25 12.95 42.65 12.95 39.0 L13.45 10.0 13.95 10.0 13.95 42.0 51.95 42.0 53.05 2.0 13.95 2.0 13.95 1.5 Q17.15 1.75 28.3 1.3 L45.95 0.45 45.95 -0.5 33.85 -0.5 13.95 -2.0 53.95 -2.0 51.65 -42.0 13.95 -42.0 13.95 -19.0 13.1 -19.0 12.95 -43.1 44.95 -43.5 44.95 -44.35 13.95 -45.5 13.95 -46.0 51.95 -46.0 49.25 -64.55 Q47.65 -75.3 48.1 -83.0 L13.65 -83.0 Q14.9 -84.05 16.7 -84.1 L18.65 -84.35 17.15 -85.2 Q15.75 -85.9 14.4 -87.0 L45.95 -87.0 Q45.25 -94.1 42.65 -103.1 L37.95 -118.0 10.95 -118.0 12.85 -88.25 11.45 -89.15 9.95 -90.0 Q9.85 -89.05 8.95 -88.2 M-25.05 -90.0 Q-22.55 -87.8 -21.1 -87.15 -18.35 -85.85 -13.8 -85.85 L-9.95 -86.05 4.1 -86.95 -16.95 -84.2 Q-20.0 -84.2 -22.45 -85.4 -25.6 -87.0 -26.05 -90.0 L-25.05 -90.0 M45.65 -102.5 L49.95 -87.0 62.45 -86.7 69.45 -87.05 79.95 -88.0 Q79.3 -91.65 76.8 -96.2 73.55 -102.1 73.15 -103.2 L66.95 -118.0 41.95 -118.0 Q42.9 -111.8 45.65 -102.5 M50.95 -83.0 Q51.25 -76.95 53.05 -63.7 54.65 -52.2 54.55 -46.0 L89.95 -46.0 Q89.1 -54.65 86.2 -65.2 L80.95 -83.0 50.95 -83.0 M12.95 -67.0 Q10.65 -69.95 10.65 -75.35 10.65 -80.0 12.95 -82.4 L12.95 -67.0 M57.35 -2.0 L93.95 -2.0 Q92.1 -22.6 91.1 -42.0 L55.95 -42.0 Q55.95 -34.35 56.65 -21.35 57.35 -8.05 57.35 -2.0 M51.95 46.0 L24.25 44.9 Q17.95 44.9 15.1 47.85 12.7 50.45 12.7 55.45 L12.95 83.0 46.95 83.0 49.45 46.0 51.95 46.0 M8.3 86.0 L-25.05 86.0 Q-24.7 93.55 -23.05 102.7 L-20.05 118.0 7.95 118.0 8.3 86.0 M-40.75 -141.95 Q-40.2 -142.55 -40.2 -143.6 L-40.3 -144.35 -40.6 -144.8 -43.05 -145.0 Q-51.55 -145.0 -63.1 -133.9 -66.85 -130.35 -70.25 -126.2 L-73.05 -122.5 Q-62.55 -122.1 -52.05 -122.0 -51.1 -127.25 -47.8 -132.45 -45.9 -135.5 -41.6 -141.05 L-40.75 -141.95 M-48.05 -124.0 Q-47.85 -122.55 -45.7 -122.45 L-42.15 -122.5 -35.15 -122.0 -29.7 -121.75 -23.05 -121.8 Q-22.65 -127.65 -20.75 -134.65 L-18.05 -145.0 -36.05 -145.0 Q-37.05 -139.35 -40.65 -133.55 -43.3 -129.3 -48.05 -124.0 M-61.1 -141.95 L-60.6 -143.25 Q-60.6 -144.1 -61.4 -144.6 L-65.4 -144.35 Q-67.95 -143.55 -80.75 -133.2 L-93.05 -123.0 -93.0 -122.1 -78.05 -122.0 Q-77.5 -122.0 -74.0 -126.5 L-68.05 -133.7 -62.4 -139.35 Q-61.75 -140.1 -61.1 -141.95 M-103.65 -113.5 L-103.05 -115.0 -103.8 -116.85 Q-105.05 -118.4 -107.65 -117.5 -115.85 -114.55 -134.05 -88.0 L-134.0 -87.1 -121.05 -87.0 -113.45 -98.15 -105.4 -110.1 Q-104.5 -111.3 -103.65 -113.5 M-97.65 -117.95 L-97.7 -117.8 -107.6 -102.55 Q-117.05 -88.0 -117.05 -87.5 -106.55 -87.1 -96.05 -87.0 -95.05 -92.45 -88.75 -103.95 L-81.05 -117.5 -97.05 -118.0 -97.65 -117.95 M-124.05 -81.75 Q-124.05 -82.95 -126.75 -83.05 -129.5 -83.2 -134.5 -82.15 L-151.05 -47.0 -151.0 -46.1 -135.85 -46.0 -135.3 -46.05 -135.5 -46.1 -124.95 -79.45 -124.45 -80.35 Q-124.05 -81.15 -124.05 -81.75 M-143.75 -82.5 L-151.8 -64.95 Q-159.45 -48.0 -159.0 -47.55 L-158.8 -46.85 Q-158.6 -46.4 -157.3 -46.4 -155.25 -46.4 -148.55 -62.15 -141.75 -78.05 -142.05 -83.0 L-143.75 -82.5 M-137.05 -39.0 Q-139.15 -42.35 -146.6 -42.35 L-151.55 -41.95 -154.6 -27.2 Q-157.05 -14.95 -157.05 -7.0 -157.05 -4.95 -155.6 -3.3 -153.8 -1.25 -150.6 -1.25 L-146.3 -1.65 Q-144.1 -2.45 -142.65 -5.5 -139.1 -12.8 -137.55 -39.0 L-137.05 -39.0 M-64.05 -88.0 L-64.05 -87.5 -69.4 -86.85 -64.05 -88.0 M-61.05 86.0 Q-59.85 93.75 -56.4 102.75 L-50.05 118.0 -24.05 118.0 -26.6 86.0 -61.05 86.0 M-143.4 42.45 L-137.55 42.0 Q-137.4 38.9 -138.8 25.45 L-141.1 2.0 -157.05 2.0 Q-154.45 31.0 -151.5 38.0 -150.15 41.25 -148.05 42.05 L-143.4 42.45 M-111.25 83.3 L-98.05 82.45 Q-98.65 75.1 -102.15 64.3 L-108.05 46.0 -132.05 46.0 Q-131.8 47.45 -119.05 83.0 L-111.25 83.3 M-54.75 115.95 L-57.05 109.0 Q-59.8 100.35 -65.05 86.0 L-92.05 86.0 Q-90.95 92.15 -84.05 104.45 L-76.05 118.0 -67.95 118.3 -61.4 117.95 -54.05 117.0 -54.75 115.95" fill="#636363" fill-opacity="0.99607843" fill-rule="evenodd" stroke="none"/>
    <path d="M8.95 -88.2 Q9.85 -89.05 9.95 -90.0 L11.45 -89.15 12.85 -88.25 12.95 -87.0 14.4 -87.0 Q15.75 -85.9 17.15 -85.2 L18.65 -84.35 16.7 -84.1 Q14.9 -84.05 13.65 -83.0 L12.95 -82.4 Q10.65 -80.0 10.65 -75.35 10.65 -69.95 12.95 -67.0 L13.9 -59.95 14.2 -53.7 13.95 -46.0 13.95 -45.5 44.95 -44.35 44.95 -43.5 12.95 -43.1 13.1 -19.0 13.95 -19.0 13.95 -2.0 33.85 -0.5 45.95 -0.5 45.95 0.45 28.3 1.3 Q17.15 1.75 13.95 1.5 L13.95 2.0 13.95 10.0 13.45 10.0 12.95 39.0 Q12.95 42.65 16.1 43.25 17.8 43.6 21.1 43.2 L20.05 43.55 Q18.65 44.0 16.7 45.1 15.5 45.75 13.9 48.0 L11.75 50.35 10.95 49.05 9.95 47.8 9.95 46.0 -1.6 46.0 -29.05 44.9 Q-29.05 49.0 -29.35 55.55 -29.65 62.05 -30.05 65.95 L-31.05 57.0 Q-31.45 56.25 -31.8 52.2 L-32.1 47.5 -51.6 46.8 -69.05 46.0 Q-68.35 47.95 -67.7 51.85 -67.05 55.8 -67.05 58.0 L-67.3 60.7 -68.0 61.25 Q-68.75 60.9 -69.45 59.35 L-71.05 55.0 -71.55 52.1 -72.05 47.0 -72.05 46.5 Q-79.1 46.5 -86.0 45.3 L-97.05 43.0 -73.05 42.9 -73.05 42.0 -74.2 22.5 Q-74.9 10.9 -75.05 2.3 L-72.9 5.85 -72.05 7.5 Q-72.5 4.75 -72.2 3.3 -72.0 2.0 -71.05 1.0 L-34.05 1.0 Q-33.55 2.85 -32.55 11.45 -31.5 20.05 -31.5 22.5 L-31.55 26.0 -30.6 26.0 -29.75 14.85 -30.05 8.0 -29.55 8.0 -29.15 42.0 9.95 42.0 9.95 2.0 -30.05 2.0 -30.05 1.5 Q-26.75 1.75 -15.2 1.3 L2.95 0.45 2.95 -0.5 -9.45 -0.5 -30.05 -2.0 9.95 -2.0 9.95 -42.0 -29.05 -42.0 -29.05 -42.5 Q-21.85 -42.15 -11.85 -42.8 L-0.05 -44.0 -1.6 -44.35 -6.9 -44.85 -20.05 -43.4 Q-29.1 -43.4 -29.1 -51.7 L-29.05 -54.0 -28.05 -54.0 Q-28.05 -51.1 -27.0 -49.75 -25.9 -48.35 -22.9 -47.7 L0.05 -45.85 9.95 -45.85 9.5 -83.0 -26.05 -83.0 -26.0 -78.7 Q-26.0 -76.55 -26.85 -68.1 -27.7 -59.9 -28.05 -58.0 L-27.6 -62.55 Q-30.1 -60.05 -30.9 -56.05 -31.45 -51.4 -32.05 -49.0 -32.05 -55.8 -31.1 -66.8 -30.15 -78.6 -30.05 -83.0 L-62.05 -83.0 Q-62.95 -74.1 -64.95 -64.4 -66.3 -57.8 -69.05 -47.0 L-49.1 -45.95 -32.05 -46.0 -39.75 -45.0 -46.6 -44.65 -58.2 -44.9 -73.05 -45.1 -73.05 -42.0 -105.05 -42.0 -106.7 -26.25 Q-108.3 -11.55 -108.3 -8.75 -108.3 -0.2 -99.2 -0.2 L-75.75 -2.0 -78.05 -1.0 -75.25 2.0 -108.05 2.0 Q-107.05 18.5 -107.05 23.0 -107.4 27.7 -108.0 28.75 -108.3 28.25 -109.0 24.4 L-111.75 9.7 -112.05 8.15 -114.2 2.0 Q-115.8 -0.2 -119.05 -1.0 L-117.7 -0.75 Q-110.4 0.45 -110.4 -6.25 L-111.05 -11.0 Q-111.25 -21.8 -110.05 -27.15 -109.1 -31.15 -109.55 -34.0 L-109.05 -34.0 -108.65 -34.0 -108.3 -35.4 -108.05 -37.5 Q-108.05 -40.8 -109.5 -42.25 -111.1 -43.8 -115.3 -44.05 L-114.0 -44.15 Q-112.05 -44.4 -109.95 -45.6 L-109.4 -45.8 Q-108.25 -46.3 -107.15 -47.85 L-107.05 -48.0 Q-107.05 -51.2 -105.55 -55.95 L-103.95 -60.5 -103.6 -66.0 Q-103.45 -69.6 -101.05 -70.0 L-100.15 -71.6 -99.1 -73.25 Q-98.65 -72.65 -98.3 -71.3 L-98.05 -70.0 Q-98.55 -65.05 -100.45 -58.7 L-104.05 -48.0 Q-102.5 -47.05 -98.0 -46.05 -94.2 -45.15 -93.35 -45.15 L-73.05 -46.0 -66.55 -79.95 -66.05 -80.0 Q-65.4 -81.05 -65.1 -81.9 -66.05 -83.35 -70.6 -83.7 L-89.05 -85.0 -78.9 -85.9 -77.05 -86.05 -69.4 -86.85 -64.05 -87.5 -64.05 -88.0 Q-64.05 -89.9 -60.05 -100.0 -59.1 -100.6 -58.0 -100.6 -57.85 -99.9 -57.85 -98.9 L-58.05 -97.0 Q-58.2 -95.7 -59.5 -91.95 -60.7 -88.55 -61.05 -88.0 L-53.9 -87.3 -49.05 -87.05 Q-30.2 -87.05 -28.05 -90.8 -27.5 -91.7 -27.8 -94.05 -28.1 -96.1 -27.05 -97.0 -26.0 -101.05 -24.9 -102.65 -24.1 -101.7 -24.05 -97.0 -23.7 -94.55 -23.7 -93.55 -23.7 -92.45 -25.05 -90.0 L-26.05 -90.0 Q-25.6 -87.0 -22.45 -85.4 -20.0 -84.2 -16.95 -84.2 L4.1 -86.95 8.95 -87.0 8.95 -88.2 M-75.05 -2.6 L-74.55 -18.95 -74.05 -19.0 -73.5 -13.15 -73.05 -8.8 Q-73.05 -7.05 -73.45 -5.45 -74.0 -3.35 -75.05 -2.6 M-35.05 2.0 L-71.05 2.0 Q-71.05 10.75 -70.55 23.05 L-69.8 42.0 -33.05 42.0 -32.65 30.45 Q-32.65 22.2 -33.2 15.65 -34.2 2.0 -35.05 2.0" fill="#999999" fill-opacity="0.99607843" fill-rule="evenodd" stroke="none"/>
    <path d="M-30.05 -2.0 L-9.45 -0.5 2.95 -0.5 2.95 0.45 -15.2 1.3 Q-26.75 1.75 -30.05 1.5 L-30.05 2.0 -30.05 8.0 -29.75 14.85 -30.6 26.0 -31.55 26.0 -31.5 22.5 Q-31.5 20.05 -32.55 11.45 -33.55 2.85 -34.05 1.0 L-71.05 1.0 Q-72.0 2.0 -72.2 3.3 -72.5 4.75 -72.05 7.5 L-72.9 5.85 -75.05 2.3 -75.25 2.0 -78.05 -1.0 -75.75 -2.0 -75.05 -2.6 Q-74.0 -3.35 -73.45 -5.45 -73.05 -7.05 -73.05 -8.8 L-73.5 -13.15 -74.05 -19.0 -74.05 -36.0 Q-73.5 -36.25 -73.1 -37.3 -72.75 -38.2 -72.75 -38.9 L-73.05 -42.0 -73.05 -45.1 -58.2 -44.9 -46.6 -44.65 -39.75 -45.0 -32.05 -46.0 -32.05 -49.0 Q-31.45 -51.4 -30.9 -56.05 -30.1 -60.05 -27.6 -62.55 L-28.05 -58.0 -28.05 -54.0 -29.05 -54.0 -29.1 -51.7 Q-29.1 -43.4 -20.05 -43.4 L-6.9 -44.85 -1.6 -44.35 -0.05 -44.0 -11.85 -42.8 Q-21.85 -42.15 -29.05 -42.5 L-29.05 -42.0 -28.75 -27.6 -29.4 -14.4 -30.05 -2.0 M-72.05 -2.5 L-33.05 -2.0 -33.05 -42.0 -43.2 -42.15 -69.05 -41.0 Q-69.05 -35.05 -70.85 -21.75 -72.45 -9.7 -72.05 -2.5" fill="#e6e6e6" fill-rule="evenodd" stroke="none"/>
  </g>
</svg>
