<?xml version="1.0" encoding="UTF-8" standalone="no"?>
<svg xmlns:ffdec="https://www.free-decompiler.com/flash" xmlns:xlink="http://www.w3.org/1999/xlink" ffdec:objectType="shape" height="336.25px" width="336.0px" xmlns="http://www.w3.org/2000/svg">
  <g transform="matrix(1.0, 0.0, 0.0, 1.0, 167.05, 168.3)">
    <path d="M90.6 -125.85 Q92.75 -124.2 96.05 -123.55 L105.95 -122.0 106.2 -122.7 Q99.95 -127.8 89.9 -137.85 81.25 -145.25 72.95 -145.0 L84.55 -132.0 Q88.7 -127.3 90.6 -125.85 M87.6 -121.2 Q91.95 -121.15 91.95 -123.0 90.1 -123.45 85.55 -127.9 L67.95 -145.0 56.95 -145.0 57.75 -143.75 61.85 -138.75 74.95 -122.0 81.5 -121.7 87.6 -121.2 M117.45 -117.9 L115.95 -119.0 Q118.15 -114.3 123.85 -105.55 129.4 -97.05 131.3 -95.2 134.9 -91.75 137.65 -90.25 139.15 -89.4 141.25 -88.65 144.3 -87.25 149.45 -77.65 148.0 -79.8 144.3 -81.5 141.1 -82.9 138.95 -83.0 144.4 -66.9 151.85 -55.15 157.5 -46.2 158.15 -45.95 L159.6 -46.2 162.95 -46.0 164.6 -36.6 Q163.85 -39.7 159.85 -41.65 157.6 -42.75 155.7 -42.95 155.4 -36.95 157.85 -24.5 160.45 -11.2 160.45 -2.1 L168.95 -2.0 Q168.75 -2.0 168.45 3.35 L168.2 7.6 Q168.15 5.3 166.45 3.25 164.6 1.0 162.95 1.0 161.4 1.0 157.9 16.5 154.5 31.65 154.5 37.25 154.5 42.15 159.25 42.15 160.85 42.15 162.25 41.5 L160.2 48.95 160.1 47.7 159.5 46.2 Q158.8 45.0 157.95 45.0 L156.5 45.25 155.55 45.8 Q147.5 62.85 139.95 80.0 L139.8 81.45 Q139.8 82.45 140.05 82.6 L141.9 82.85 Q142.9 82.85 143.55 82.1 L157.7 56.85 Q154.25 70.35 142.75 89.7 131.3 108.9 121.95 117.0 131.3 102.0 138.1 94.0 142.05 89.3 142.05 88.55 142.05 87.45 140.95 86.0 139.85 86.1 139.25 86.45 L115.95 116.0 Q115.95 117.75 117.25 118.2 L120.95 118.0 120.9 118.45 105.2 131.25 Q89.95 144.0 89.45 144.0 89.6 141.85 88.9 141.5 87.8 142.2 86.65 144.85 85.65 147.2 82.45 148.45 54.6 159.5 36.6 163.9 19.9 167.95 4.6 167.95 -30.85 167.95 -65.0 153.85 -94.35 141.7 -108.95 125.85 L-108.8 125.6 -108.65 125.55 -104.05 128.5 -104.55 127.0 Q-106.8 123.5 -109.2 122.4 -110.1 122.0 -115.05 121.0 -125.5 111.6 -138.35 92.2 -150.4 74.0 -153.35 64.55 L-157.35 52.5 Q-160.1 44.1 -161.85 37.15 -167.05 16.45 -167.05 -5.0 -167.05 -15.75 -163.25 -31.85 -159.15 -49.45 -151.9 -66.85 -133.7 -110.65 -106.4 -130.4 -77.6 -151.2 -48.8 -160.35 -23.95 -168.3 3.7 -168.3 32.0 -168.3 62.65 -156.7 95.15 -144.45 110.95 -126.0 L99.95 -132.5 Q99.95 -130.55 108.3 -126.25 116.15 -122.25 118.95 -122.0 128.7 -109.15 138.4 -96.85 143.4 -90.4 143.95 -88.0 132.55 -101.85 123.8 -111.3 L117.45 -117.9 M99.95 -118.0 Q100.3 -116.1 104.2 -110.05 L118.95 -87.0 124.9 -86.7 129.25 -87.05 133.95 -88.0 132.8 -89.1 127.85 -95.8 110.95 -118.0 99.95 -118.0 M10.0 -156.25 L9.3 -153.55 Q9.1 -152.7 10.05 -152.05 10.9 -151.5 14.6 -149.9 19.65 -148.8 23.05 -148.8 L27.45 -149.0 Q27.85 -153.3 22.15 -157.5 16.5 -161.7 9.95 -162.0 10.45 -158.7 10.0 -156.25 M9.45 -150.0 Q9.4 -155.1 7.35 -158.4 5.05 -162.0 0.95 -162.0 -0.9 -162.0 -3.7 -158.9 -7.05 -155.25 -7.05 -151.0 -7.05 -149.95 -2.7 -149.3 L2.55 -148.85 8.5 -149.5 Q11.65 -150.15 9.45 -150.0 M22.95 -162.0 Q22.15 -158.0 30.8 -152.8 39.55 -147.45 45.45 -149.0 41.65 -153.4 37.5 -155.95 32.35 -159.05 22.95 -162.0 M32.95 -145.0 L14.95 -145.0 Q15.2 -139.9 16.5 -133.1 L18.95 -122.0 28.0 -121.7 35.45 -122.05 43.95 -123.0 Q43.45 -126.65 38.7 -135.1 L32.95 -145.0 M39.6 -139.1 L48.95 -122.0 56.75 -121.7 63.0 -122.05 69.95 -123.0 69.0 -123.9 65.25 -128.9 Q60.4 -135.45 51.95 -145.0 L36.95 -145.0 Q37.2 -143.65 39.6 -139.1 M-10.85 -123.3 L4.2 -122.2 14.95 -122.6 Q14.8 -126.05 13.3 -133.0 11.4 -141.95 10.95 -145.0 L5.0 -145.2 -8.05 -144.65 Q-8.05 -141.65 -10.15 -134.35 -12.2 -127.35 -12.0 -124.2 -13.0 -124.75 -13.75 -124.75 L-14.55 -124.55 -15.05 -124.0 -14.6 -129.3 Q-14.1 -135.8 -13.7 -145.0 L-30.05 -145.0 Q-30.95 -139.95 -34.35 -134.5 -38.4 -128.75 -40.05 -126.0 L-40.05 -126.35 -41.1 -126.45 -43.05 -126.0 Q-41.7 -133.35 -37.6 -137.7 L-35.1 -140.6 Q-34.05 -142.2 -34.05 -144.5 L-50.05 -145.0 Q-51.1 -140.55 -58.4 -132.7 L-67.05 -124.0 -61.9 -122.65 -56.55 -121.45 -75.05 -120.0 Q-73.55 -119.45 -73.55 -118.0 -73.55 -117.3 -74.15 -116.7 L-75.05 -116.0 Q-77.25 -117.85 -80.7 -118.15 -82.85 -118.35 -88.05 -118.15 L-93.05 -118.0 Q-93.8 -113.85 -99.85 -105.45 -102.95 -101.1 -107.05 -96.0 L-107.05 -96.5 -112.05 -93.0 Q-104.7 -106.2 -100.55 -111.3 -98.6 -113.75 -98.6 -114.5 -98.6 -115.8 -99.55 -116.85 -100.6 -118.0 -102.05 -118.0 L-104.2 -117.75 Q-105.5 -117.2 -107.8 -114.95 -112.85 -110.0 -130.05 -89.0 -128.6 -88.25 -125.45 -87.25 -122.55 -86.35 -121.95 -86.35 -119.8 -86.35 -117.7 -87.6 L-113.05 -91.0 Q-112.75 -88.15 -114.2 -86.8 -115.75 -85.35 -119.05 -86.0 L-118.25 -83.6 -117.55 -81.0 -118.05 -81.0 Q-119.7 -82.7 -122.6 -83.05 L-128.8 -83.15 -132.8 -82.75 Q-133.65 -82.25 -134.6 -79.2 -139.05 -64.6 -147.05 -48.0 -144.3 -46.05 -138.5 -45.65 L-129.05 -46.0 -129.05 -45.5 -132.2 -45.3 -139.05 -45.0 Q-135.0 -44.5 -132.3 -41.15 -130.2 -38.55 -130.2 -36.75 -130.2 -35.65 -131.05 -35.0 -131.25 -37.95 -131.0 -39.25 -131.1 -39.6 -133.4 -40.35 L-137.35 -41.3 -144.05 -42.1 -149.05 -42.05 Q-149.05 -38.9 -151.05 -25.1 -153.05 -11.35 -153.05 -8.0 -153.05 -3.9 -150.7 -2.15 -148.8 -0.75 -145.0 -0.75 L-142.65 -1.0 -134.05 -2.0 -134.05 -1.5 -136.55 -1.3 -142.05 -1.0 Q-139.75 -0.1 -137.15 2.05 -134.4 4.35 -134.05 6.0 L-138.5 3.75 Q-143.2 1.7 -147.65 1.7 L-153.05 1.8 Q-153.05 11.85 -151.3 22.55 L-148.15 40.0 -148.05 41.45 -136.85 42.3 -130.05 42.0 Q-131.4 36.65 -132.25 27.9 -133.0 20.45 -133.05 15.0 L-129.05 41.0 -128.95 37.2 Q-128.95 35.2 -129.5 26.15 L-130.05 17.0 Q-127.55 30.65 -127.05 42.0 L-100.05 42.0 -100.05 42.5 -108.5 42.7 -127.05 43.0 -116.0 44.65 -99.1 46.0 -99.05 47.0 -117.35 45.85 -126.05 46.0 -119.15 63.75 Q-115.45 74.1 -114.05 83.0 L-91.05 83.0 -93.0 72.55 -94.05 67.0 -91.8 71.65 -89.05 76.5 -89.05 75.0 Q-88.7 80.35 -84.05 82.9 -80.4 84.85 -74.75 84.85 L-69.55 84.45 -63.65 85.45 -61.05 86.0 -85.05 86.0 -81.2 94.5 Q-76.65 104.35 -71.05 118.0 L-62.3 118.3 -47.05 117.45 Q-47.2 115.45 -49.1 109.5 L-56.55 87.4 Q-55.1 87.75 -54.65 88.3 L-54.05 89.0 -53.1 87.5 -52.05 86.3 Q-50.8 94.35 -48.15 103.05 L-43.05 118.0 -16.05 118.0 -17.15 108.15 -19.9 87.05 Q-18.55 87.65 -18.25 88.0 -17.95 88.3 -18.05 89.0 L-16.05 87.05 Q-12.9 106.65 -12.9 111.7 -12.9 115.5 -12.15 116.8 -11.45 117.95 -9.5 117.95 L-4.4 117.6 3.6 118.15 9.2 117.7 15.45 117.0 16.85 86.0 3.6 85.95 -15.2 86.65 -11.1 84.65 Q-14.0 85.15 -15.85 83.05 -17.5 81.15 -17.5 78.1 L-17.2 74.95 -17.1 73.85 -17.05 74.95 Q-16.9 80.6 -12.6 83.2 -10.1 84.7 -7.65 84.7 L3.6 83.95 7.35 83.7 19.7 83.0 20.0 70.35 20.25 70.7 21.25 71.1 22.05 68.05 22.45 65.0 22.95 65.0 22.95 83.0 57.25 83.0 Q59.3 59.9 60.85 51.35 L61.95 46.5 43.45 45.75 33.55 46.3 23.95 47.0 24.0 46.5 24.0 45.1 Q36.45 45.1 48.95 44.55 L48.95 43.5 23.95 43.15 23.95 14.0 24.95 14.0 24.95 42.0 40.1 42.3 61.95 41.45 Q62.1 35.9 62.95 23.05 63.8 10.65 63.95 3.35 L64.85 3.45 Q65.1 5.85 65.55 6.4 L66.0 2.6 66.25 -1.15 65.4 -14.3 Q64.5 -26.9 64.5 -28.75 L64.8 -37.55 64.95 -47.0 82.45 -45.7 98.95 -47.0 98.45 -47.1 88.95 -83.0 61.1 -83.0 Q62.1 -68.6 63.95 -53.0 L63.4 -53.0 Q63.65 -56.35 62.25 -60.0 61.1 -63.0 59.95 -64.0 L59.95 -61.0 59.45 -61.0 Q59.45 -65.9 58.1 -72.95 56.85 -79.7 56.95 -83.0 L32.2 -83.0 48.95 -84.15 48.95 -85.5 Q42.05 -85.35 38.7 -85.5 L21.95 -87.0 37.4 -86.95 50.1 -87.45 50.1 -87.0 71.1 -86.7 77.85 -87.05 87.95 -88.0 87.35 -88.2 73.95 -118.0 49.95 -118.0 50.05 -104.45 45.95 -118.0 18.95 -118.0 Q19.95 -110.8 19.95 -105.0 L19.45 -105.0 Q20.0 -108.15 18.95 -111.05 18.1 -113.6 16.95 -114.0 L16.95 -106.0 15.85 -106.05 15.9 -110.55 Q15.9 -114.2 13.65 -115.8 11.4 -117.45 3.4 -119.6 L6.95 -120.0 -2.15 -120.8 Q-9.0 -121.5 -10.85 -123.3 M22.95 -81.2 L22.95 -71.0 Q21.65 -73.2 21.65 -76.5 21.65 -79.9 22.95 -81.2 M-13.9 -110.85 Q-13.65 -115.0 -14.05 -116.4 L-13.4 -116.45 Q-12.35 -116.45 -10.75 -117.25 -12.3 -116.15 -13.3 -113.2 L-13.9 -110.85 M68.4 -2.0 L102.95 -2.0 Q102.95 -9.15 100.95 -22.35 98.95 -35.4 98.95 -41.5 L82.45 -41.7 Q65.95 -41.9 65.95 -42.0 L68.4 -2.0 M152.3 -72.25 L161.8 -48.95 161.95 -48.0 Q160.1 -49.45 157.3 -55.7 154.05 -62.9 152.8 -70.15 L152.3 -72.25 M113.95 -88.0 Q113.85 -88.75 109.2 -96.2 L94.95 -118.0 77.95 -118.0 Q78.95 -112.3 84.95 -100.25 L91.95 -87.0 100.05 -86.7 106.6 -87.05 113.95 -88.0 M92.95 -83.0 Q93.2 -81.5 102.95 -46.0 L112.3 -45.7 120.1 -46.05 128.95 -47.0 128.4 -47.15 116.95 -83.0 92.95 -83.0 M105.75 -2.0 L133.95 -2.0 132.85 -14.7 Q131.65 -27.0 130.55 -42.0 L102.95 -42.0 Q103.25 -35.4 104.55 -21.0 105.65 -8.6 105.75 -2.0 M150.95 -43.0 L132.95 -42.05 133.65 -36.15 Q134.7 -26.55 136.65 -2.0 L145.15 -1.7 150.75 -2.05 156.95 -3.0 Q156.6 -3.0 156.2 -8.0 L153.75 -43.0 150.95 -43.0 M150.4 -47.2 L135.95 -83.0 119.95 -83.0 Q120.15 -81.7 132.95 -46.0 L139.8 -45.7 145.15 -46.05 Q148.75 -46.45 150.95 -47.0 150.6 -47.05 150.4 -47.2 M165.95 -28.2 Q167.25 -19.65 168.9 -4.0 L168.95 -3.0 Q167.9 -4.55 166.85 -9.7 165.7 -15.2 165.7 -20.0 L165.95 -28.2 M154.9 1.0 L136.95 1.0 Q136.95 4.1 134.95 19.15 132.95 34.2 132.95 38.0 132.95 39.25 135.5 40.45 139.25 42.2 146.8 42.2 L151.95 42.15 Q152.25 33.7 153.75 19.3 155.05 7.15 154.9 1.0 M129.95 42.15 L132.05 1.15 105.95 2.0 104.45 20.05 102.95 37.0 102.95 39.05 Q103.2 39.85 104.65 40.35 107.4 41.2 122.8 42.15 L129.95 42.15 M131.95 45.0 Q131.1 53.45 125.4 67.6 119.95 81.15 119.95 82.0 L120.0 82.9 136.5 83.0 139.8 73.3 Q144.1 60.85 149.95 45.0 L131.95 45.0 M99.45 41.0 Q100.85 21.0 101.85 2.0 L67.95 2.0 66.95 17.85 65.95 35.0 Q65.95 39.1 66.3 39.35 66.8 39.75 70.4 40.5 L78.95 41.45 86.65 42.0 99.45 41.0 M88.6 93.9 L76.95 117.0 77.0 117.9 95.95 118.0 Q97.3 110.9 106.5 101.45 110.75 97.0 112.35 94.55 114.95 90.6 114.95 86.5 L103.45 86.3 91.95 86.0 Q91.65 87.85 88.6 93.9 M116.95 83.2 Q117.2 80.55 119.65 73.1 L128.95 45.0 101.95 45.0 Q101.1 53.75 98.2 63.95 L92.95 81.0 Q96.5 83.3 101.3 83.5 L110.55 83.25 116.95 83.2 M93.8 62.45 Q98.0 47.5 97.95 45.5 L64.95 45.65 Q64.85 50.15 63.55 59.1 L61.6 67.45 Q59.95 74.45 59.95 78.0 59.95 79.8 64.05 81.2 69.1 82.95 78.2 82.95 L89.5 82.0 Q89.5 77.6 93.8 62.45 M125.95 86.3 L117.95 86.0 Q116.9 92.0 109.15 103.4 105.15 109.3 99.95 116.0 100.8 118.6 103.65 118.6 113.1 118.6 133.95 86.5 L125.95 86.3 M54.45 2.0 L24.95 2.0 24.95 0.9 32.65 0.9 54.45 2.0 M20.05 67.25 L20.45 49.0 20.95 49.0 Q21.1 52.45 20.55 59.65 L20.05 67.25 M58.15 89.75 L49.95 115.0 Q52.65 117.45 56.8 118.1 L66.35 118.45 70.25 118.2 73.55 117.8 87.95 86.0 58.95 86.0 58.15 89.75 M21.95 86.0 Q21.7 91.25 20.25 100.5 18.95 108.95 18.95 113.0 L19.0 114.55 Q19.3 115.35 20.8 115.9 24.45 117.3 38.8 118.15 L45.95 118.15 Q46.7 111.7 49.85 102.15 54.2 89.0 54.95 86.0 L21.95 86.0 M42.95 148.0 Q34.85 148.0 21.95 161.0 L22.45 161.7 Q22.75 162.1 23.25 162.1 25.7 162.1 35.3 156.7 44.95 151.3 46.7 148.85 46.6 148.6 45.15 148.3 L42.95 148.0 M50.5 145.1 L52.65 144.75 Q69.95 121.95 69.95 121.5 L47.95 121.0 Q46.5 129.1 41.5 135.0 L38.3 138.85 Q36.95 140.85 36.95 143.0 36.95 143.8 40.35 144.5 L47.8 145.25 50.5 145.1 M57.0 144.9 L68.95 145.0 70.25 143.95 Q72.0 141.7 75.1 138.65 82.85 131.1 91.95 121.0 L74.95 121.0 Q74.0 121.25 70.6 126.5 65.25 134.7 56.95 144.0 L57.0 144.9 M73.2 144.45 L73.6 144.75 74.5 144.9 Q77.25 144.9 90.7 135.05 103.35 125.75 106.6 122.15 L106.0 121.5 102.95 121.0 Q99.85 121.0 85.8 132.45 81.1 136.3 76.9 140.3 73.0 144.1 73.2 144.45 M17.45 142.9 Q20.9 145.4 27.65 145.4 L32.1 145.35 Q33.4 145.05 34.35 143.2 37.65 134.35 43.95 121.0 L36.5 120.8 18.45 122.05 Q18.0 125.6 16.35 131.45 14.95 136.35 14.95 139.0 14.95 141.1 17.45 142.9 M11.05 122.0 L-12.05 122.0 -11.95 145.0 10.95 145.0 11.05 122.0 M19.1 147.7 Q10.1 149.2 8.95 161.5 12.6 162.85 20.2 158.9 27.95 154.85 27.95 151.0 27.95 149.4 25.25 148.3 22.35 147.15 19.1 147.7 M7.9 156.6 Q10.3 151.85 9.95 148.0 L-7.05 148.0 Q-8.0 152.4 -5.05 157.25 -2.15 162.0 1.2 162.0 5.15 162.0 7.9 156.6 M-162.4 -2.8 Q-160.25 -1.95 -159.35 -1.95 -157.65 -1.95 -156.25 -4.25 -154.65 -6.85 -154.4 -11.1 -153.55 -24.5 -152.5 -31.45 L-151.7 -36.85 Q-151.7 -39.4 -153.15 -40.9 -154.85 -42.6 -157.65 -41.65 L-165.05 -4.0 -162.4 -2.8 M-21.05 -162.0 Q-23.6 -161.6 -32.3 -156.65 -39.95 -152.3 -43.05 -150.0 -41.25 -149.2 -39.8 -149.2 -36.2 -149.2 -31.4 -152.0 -25.3 -155.6 -21.05 -162.0 M-20.0 -157.8 Q-26.3 -153.35 -26.0 -149.5 L-11.05 -149.0 Q-10.75 -149.0 -8.95 -153.35 -7.15 -157.7 -7.15 -158.2 -7.15 -159.35 -8.1 -160.65 -9.1 -162.0 -10.05 -162.0 -14.1 -162.0 -20.0 -157.8 M-44.05 -124.0 L-43.85 -123.45 -43.8 -122.6 Q-43.8 -121.55 -44.9 -121.45 L-54.35 -121.5 Q-52.35 -121.65 -48.9 -122.65 L-44.05 -124.0 M-57.4 -144.55 Q-58.85 -145.45 -61.4 -144.35 -63.95 -143.55 -76.75 -133.2 L-89.05 -123.0 -89.0 -122.1 -73.05 -122.0 Q-71.05 -124.75 -64.9 -131.25 -58.7 -137.8 -57.45 -139.5 -56.9 -140.3 -56.3 -142.8 -56.3 -143.9 -57.4 -144.55 M-72.75 -144.45 L-73.05 -145.0 Q-74.0 -144.9 -81.8 -139.75 -90.9 -133.75 -104.05 -123.0 -102.65 -122.25 -101.7 -122.25 -99.55 -122.25 -86.7 -130.35 -72.65 -139.25 -72.65 -143.65 L-72.75 -144.45 M-121.25 -112.05 Q-127.45 -105.2 -140.05 -88.0 L-140.0 -87.4 Q-139.95 -87.1 -139.35 -87.1 -136.75 -88.55 -131.0 -94.5 -120.65 -105.25 -114.05 -118.0 -116.45 -117.4 -121.25 -112.05 M-138.25 -81.9 Q-139.35 -84.6 -141.85 -82.4 L-158.05 -48.0 Q-158.1 -45.85 -156.2 -45.85 -153.6 -45.85 -150.65 -48.2 -147.4 -50.75 -146.75 -54.0 -145.5 -60.3 -141.35 -69.25 -137.65 -77.3 -137.65 -78.7 L-138.25 -81.9 M-51.4 86.0 Q-50.1 85.25 -49.45 85.15 L-42.15 84.9 -35.5 85.25 -30.4 85.6 -25.7 86.0 -51.4 86.0 M-56.15 80.4 L-58.15 81.5 -57.05 80.0 Q-56.35 80.05 -56.15 80.3 L-56.15 80.4 M-154.6 8.0 Q-155.45 5.05 -157.95 3.9 L-165.05 2.0 Q-162.95 17.3 -162.15 28.15 L-161.55 36.05 Q-160.7 38.3 -159.05 39.9 -156.75 42.1 -153.55 42.0 L-153.55 39.15 -153.6 18.4 Q-153.75 10.9 -154.6 8.0 M-159.05 45.0 Q-152.75 60.3 -147.75 74.7 -145.95 78.8 -143.95 80.5 -141.95 82.25 -138.05 83.0 -137.25 81.6 -137.25 80.2 -137.25 77.5 -139.45 71.4 L-144.65 56.8 Q-145.4 53.0 -150.15 49.05 -155.0 44.95 -159.05 45.0 M-147.05 46.0 Q-139.2 65.25 -134.65 79.0 -133.25 82.15 -131.25 82.8 L-124.7 83.2 -119.55 83.0 -130.05 46.0 -147.05 46.0 M-131.8 89.55 Q-133.55 88.35 -142.05 86.0 L-127.75 105.0 Q-118.25 117.25 -113.05 118.0 -113.9 115.0 -116.65 111.15 -121.5 104.15 -125.55 97.25 -130.05 90.75 -131.8 89.55 M-110.05 90.1 L-92.05 118.0 -85.5 118.3 -80.5 117.95 -75.05 117.0 Q-76.1 111.25 -82.45 99.4 L-90.05 86.0 -112.05 86.0 Q-111.85 87.1 -110.05 90.1 M-131.05 86.0 L-112.9 114.55 Q-111.7 115.75 -109.55 116.05 -106.2 116.6 -102.85 118.0 L-98.55 118.0 Q-104.75 105.7 -107.05 101.75 -108.75 98.8 -117.05 86.0 L-131.05 86.0 M-83.5 140.75 Q-80.85 142.3 -77.5 143.2 L-70.55 145.0 -95.05 121.0 -105.05 121.0 Q-90.15 136.9 -83.5 140.75 M-34.05 144.0 L-34.8 143.15 -37.2 138.1 Q-40.4 131.3 -46.05 122.0 L-67.05 122.0 Q-66.6 123.6 -63.0 128.05 L-49.05 145.0 -43.1 145.3 -38.75 144.95 -34.05 144.0 M-28.15 143.65 Q-25.05 145.0 -12.05 145.0 -12.25 140.1 -13.6 133.35 L-14.6 128.6 -16.05 122.0 -41.05 122.0 Q-40.95 122.8 -35.5 134.0 -31.55 142.1 -28.15 143.65 M-27.05 148.0 Q-24.65 154.05 -18.3 158.1 -13.4 161.2 -8.65 162.0 L-8.45 161.15 -8.35 159.55 Q-8.35 156.4 -9.1 153.55 L-11.05 148.0 -27.05 148.0 M-66.6 143.45 Q-61.5 145.2 -58.7 145.0 L-55.55 145.0 -73.05 121.0 -90.05 121.0 Q-84.75 125.55 -80.95 129.65 L-74.85 138.0 Q-72.8 141.25 -66.6 143.45 M-20.55 162.0 Q-21.65 159.55 -25.1 155.4 -29.2 150.45 -33.05 148.0 L-45.05 148.0 Q-44.0 151.45 -34.45 156.65 -25.3 161.7 -20.55 162.0" fill="#464646" fill-opacity="0.9647059" fill-rule="evenodd" stroke="none"/>
    <path d="M-12.0 -124.2 L-11.95 -123.45 -10.85 -123.3 Q-9.0 -121.5 -2.15 -120.8 L6.95 -120.0 3.4 -119.6 1.35 -119.8 -1.3 -119.95 Q-7.6 -119.95 -10.75 -117.25 -12.35 -116.45 -13.4 -116.45 L-14.05 -116.4 Q-13.65 -115.0 -13.9 -110.85 L-14.05 -109.15 Q-14.05 -100.95 -14.2 -98.05 -14.6 -91.6 -16.05 -88.0 L4.05 -86.7 17.95 -87.0 17.0 -87.0 16.95 -106.0 16.95 -114.0 Q18.1 -113.6 18.95 -111.05 20.0 -108.15 19.45 -105.0 L19.95 -105.0 Q20.7 -101.95 21.35 -96.5 21.95 -90.95 21.95 -87.0 L38.7 -85.5 Q42.05 -85.35 48.95 -85.5 L48.95 -84.15 32.2 -83.0 22.95 -83.0 22.95 -81.2 Q21.65 -79.9 21.65 -76.5 21.65 -73.2 22.95 -71.0 L24.1 -58.1 24.95 -46.55 46.9 -45.7 61.95 -46.0 Q59.95 -54.5 59.95 -61.0 L59.95 -64.0 Q61.1 -63.0 62.25 -60.0 63.65 -56.35 63.4 -53.0 L63.95 -53.0 64.85 -51.35 65.25 -50.05 64.95 -47.0 64.8 -37.55 64.5 -28.75 Q64.5 -26.9 65.4 -14.3 L66.25 -1.15 66.0 2.6 65.55 6.4 Q65.1 5.85 64.85 3.45 L63.95 3.35 63.95 2.0 54.45 2.0 32.65 0.9 24.95 0.9 24.95 2.0 24.95 14.0 23.95 14.0 23.95 43.15 48.95 43.5 48.95 44.55 Q36.45 45.1 24.0 45.1 L24.0 46.5 23.95 47.0 24.25 53.85 23.95 59.2 Q23.55 62.85 22.95 65.0 L22.45 65.0 22.05 68.05 21.25 71.1 20.25 70.7 20.0 70.35 19.95 70.0 20.05 67.25 20.55 59.65 Q21.1 52.45 20.95 49.0 L20.95 47.5 1.45 46.4 -18.05 46.0 Q-17.5 54.15 -17.25 64.35 -17.0 72.55 -17.1 73.85 L-17.2 74.95 -17.5 78.1 Q-17.5 81.15 -15.85 83.05 -14.0 85.15 -11.1 84.65 L-15.2 86.65 -16.05 86.7 -16.05 87.05 -18.05 89.0 Q-17.95 88.3 -18.25 88.0 -18.55 87.65 -19.9 87.05 L-20.05 86.0 -25.7 86.0 -30.4 85.6 -35.5 85.25 -42.15 84.9 -49.45 85.15 Q-50.1 85.25 -51.4 86.0 L-52.05 86.3 -53.1 87.5 -54.05 89.0 -54.65 88.3 Q-55.1 87.75 -56.55 87.4 -56.9 86.4 -57.85 86.2 L-61.05 86.0 -63.65 85.45 -69.55 84.45 -70.4 84.35 -68.45 84.3 -67.05 84.2 -61.3 82.65 -58.15 81.5 -56.15 80.4 -55.95 83.0 -20.05 83.0 -20.0 74.95 Q-20.1 70.6 -21.0 61.1 -22.2 48.25 -23.05 46.0 L-59.05 46.0 -56.15 80.3 Q-56.35 80.05 -57.05 80.0 L-57.55 80.0 Q-57.55 72.5 -59.65 61.55 -61.7 51.15 -61.5 46.0 L-96.05 46.0 -89.05 75.0 -89.05 76.5 -91.8 71.65 -94.05 67.0 -94.6 66.9 -99.05 47.0 -99.1 46.0 -116.0 44.65 -127.05 43.0 -108.5 42.7 -100.05 42.5 -100.05 42.0 -102.9 21.75 Q-104.45 10.1 -104.05 2.5 L-131.05 2.0 Q-130.15 8.8 -130.05 17.0 L-129.5 26.15 Q-128.95 35.2 -128.95 37.2 L-129.05 41.0 -133.05 15.0 -133.55 15.0 -134.05 6.0 Q-134.4 4.35 -137.15 2.05 -139.75 -0.1 -142.05 -1.0 L-136.55 -1.3 -134.05 -1.5 -134.05 -2.0 -134.8 -2.95 Q-135.25 -3.6 -135.25 -4.5 L-135.15 -5.3 -131.05 -35.0 Q-130.2 -35.65 -130.2 -36.75 -130.2 -38.55 -132.3 -41.15 -135.0 -44.5 -139.05 -45.0 L-132.2 -45.3 -129.05 -45.5 -129.05 -46.0 Q-129.05 -48.6 -124.7 -60.6 -119.8 -74.05 -118.6 -80.85 L-118.05 -81.0 -117.55 -81.0 -118.25 -83.6 -119.05 -86.0 Q-115.75 -85.35 -114.2 -86.8 -112.75 -88.15 -113.05 -91.0 L-113.05 -93.0 -112.05 -93.0 -107.05 -96.5 -107.05 -96.0 Q-107.05 -94.75 -108.15 -92.55 -109.45 -90.0 -111.05 -89.0 -108.85 -87.75 -104.6 -87.05 L-98.3 -86.55 -91.05 -86.95 Q-89.8 -87.0 -86.15 -93.85 -81.4 -102.65 -78.4 -111.2 -76.85 -115.55 -75.05 -116.0 L-74.15 -116.7 Q-73.55 -117.3 -73.55 -118.0 -73.55 -119.45 -75.05 -120.0 L-56.55 -121.45 -54.35 -121.5 -44.9 -121.45 Q-43.8 -121.55 -43.8 -122.6 L-43.85 -123.45 -44.05 -124.0 -44.05 -126.0 -43.05 -126.0 -41.1 -126.45 -40.05 -126.35 -40.05 -126.0 Q-40.15 -125.0 -41.05 -124.0 -39.6 -122.95 -36.05 -121.85 -32.1 -120.65 -29.1 -120.65 -18.1 -120.65 -15.05 -124.0 L-14.55 -124.55 -13.75 -124.75 Q-13.0 -124.75 -12.0 -124.2 M-18.05 -46.0 L20.0 -46.0 20.0 -54.3 19.45 -67.8 Q18.95 -77.45 18.95 -83.05 L9.8 -83.1 -3.35 -82.4 -15.75 -81.25 -15.95 -77.55 Q-16.25 -74.2 -17.05 -73.0 L-17.05 -78.0 Q-18.05 -76.6 -19.3 -71.65 -20.8 -66.0 -21.05 -61.0 -20.45 -83.0 -20.05 -83.0 L-33.65 -83.8 -41.5 -84.45 Q-47.0 -84.45 -50.05 -82.6 -53.15 -80.65 -55.05 -76.0 -56.7 -76.0 -57.85 -74.25 -58.75 -72.95 -58.95 -71.3 -58.6 -75.6 -57.05 -83.0 L-87.05 -83.0 Q-87.9 -74.25 -90.8 -64.05 L-96.05 -47.0 -88.7 -46.2 -83.7 -45.9 -68.95 -46.6 Q-63.95 -47.4 -62.05 -50.0 -62.3 -47.5 -65.85 -46.45 -71.3 -44.85 -86.85 -44.85 L-93.05 -45.0 -91.8 -44.15 Q-90.6 -43.0 -87.1 -42.55 L-83.4 -42.35 -73.6 -43.2 Q-68.1 -43.65 -63.05 -42.0 L-97.05 -42.0 Q-97.05 -38.15 -98.55 -24.6 -100.05 -11.1 -100.05 -5.0 -100.05 -4.15 -96.75 -2.65 -93.4 -1.1 -91.3 -1.0 L-97.05 -1.0 Q-92.6 2.2 -87.8 1.95 L-75.0 0.95 -65.05 2.0 -100.05 2.0 -97.05 42.0 -63.05 42.0 -63.75 36.7 -64.2 31.95 -64.05 27.0 Q-62.25 36.15 -62.05 41.0 -61.5 38.3 -61.1 34.05 -60.75 30.2 -60.75 27.8 L-61.05 20.0 Q-60.5 23.1 -60.1 27.45 -59.75 31.4 -59.75 33.95 L-60.05 42.0 -22.05 42.0 -22.05 19.0 -21.15 19.0 -21.05 43.0 -55.05 43.0 -42.2 43.95 -33.7 44.1 -20.05 43.5 -19.4 36.95 Q-18.75 30.35 -18.75 26.8 L-19.05 15.0 -18.55 15.0 -18.15 42.0 20.95 42.0 20.95 2.0 -19.05 2.0 -19.05 1.5 Q-14.9 1.75 -0.35 1.3 L22.95 0.45 22.95 -0.5 7.25 -0.5 -19.05 -2.0 21.95 -2.0 21.05 -16.5 Q20.75 -23.45 20.8 -42.0 L-18.05 -42.0 -17.75 -32.3 Q-17.75 -29.25 -18.1 -24.25 -18.5 -18.7 -19.05 -15.0 L-19.05 -43.1 20.95 -43.5 20.95 -44.35 Q-12.1 -45.75 -18.05 -45.5 L-18.05 -46.0 M24.95 -2.0 L63.5 -2.0 63.5 -42.0 24.95 -42.0 24.95 -2.0 M-77.8 -101.0 L-85.05 -87.5 -56.05 -87.0 Q-56.25 -87.45 -51.7 -102.45 L-47.05 -117.5 Q-71.05 -117.85 -71.05 -118.0 -72.0 -112.55 -77.8 -101.0 M-47.55 -103.7 L-52.05 -89.0 -52.0 -87.95 -40.2 -87.2 -27.7 -86.75 -19.05 -86.8 -17.2 -118.0 -43.05 -118.0 -47.55 -103.7 M-120.8 -64.75 Q-123.4 -60.75 -124.45 -57.75 -126.05 -53.1 -126.05 -46.5 L-100.05 -46.0 -96.95 -57.0 Q-93.4 -70.45 -91.05 -83.0 L-114.05 -83.0 Q-114.7 -76.5 -116.75 -71.75 -117.85 -69.25 -120.8 -64.75 M-127.35 -3.5 Q-123.0 -2.0 -114.05 -2.0 L-104.05 -2.4 -102.65 -14.6 Q-101.2 -28.75 -101.05 -42.0 L-127.05 -42.0 -131.05 -7.0 Q-131.05 -4.8 -127.35 -3.5 M-83.5 -1.1 L-70.8 -1.8 -65.05 -2.0 -65.05 -1.5 -83.5 -1.1" fill="#818181" fill-opacity="0.99607843" fill-rule="evenodd" stroke="none"/>
    <path d="M-18.05 -46.0 L-18.05 -45.5 Q-12.1 -45.75 20.95 -44.35 L20.95 -43.5 -19.05 -43.1 -19.05 -15.0 -19.05 -2.0 7.25 -0.5 22.95 -0.5 22.95 0.45 -0.35 1.3 Q-14.9 1.75 -19.05 1.5 L-19.05 2.0 -19.05 15.0 -18.75 26.8 Q-18.75 30.35 -19.4 36.95 L-20.05 43.5 -33.7 44.1 -42.2 43.95 -55.05 43.0 -21.05 43.0 -21.15 19.0 -22.05 19.0 -22.85 13.85 Q-23.5 8.2 -23.2 2.0 L-61.05 2.0 -61.05 20.0 -60.75 27.8 Q-60.75 30.2 -61.1 34.05 -61.5 38.3 -62.05 41.0 -62.25 36.15 -64.05 27.0 L-64.65 15.5 -65.05 2.0 -75.0 0.95 -87.8 1.95 Q-92.6 2.2 -97.05 -1.0 L-91.3 -1.0 Q-86.75 -0.75 -83.5 -1.1 L-65.05 -1.5 -65.05 -2.0 Q-65.45 -9.5 -64.25 -22.15 -62.9 -35.7 -63.05 -42.0 -68.1 -43.65 -73.6 -43.2 L-83.4 -42.35 -87.1 -42.55 Q-90.6 -43.0 -91.8 -44.15 L-93.05 -45.0 -86.85 -44.85 Q-71.3 -44.85 -65.85 -46.45 -62.3 -47.5 -62.05 -50.0 -62.05 -52.4 -61.0 -57.5 -59.65 -63.9 -59.05 -70.0 L-58.95 -71.3 Q-58.75 -72.95 -57.85 -74.25 -56.7 -76.0 -55.05 -76.0 -55.1 -74.6 -57.1 -61.7 L-59.05 -49.0 Q-59.05 -47.4 -56.1 -46.05 -53.05 -44.65 -49.2 -44.65 L-34.0 -45.7 -21.05 -46.0 -21.05 -61.0 Q-20.8 -66.0 -19.3 -71.65 -18.05 -76.6 -17.05 -78.0 L-17.05 -73.0 -16.75 -65.8 Q-16.75 -63.05 -17.35 -57.2 -17.95 -51.0 -18.05 -46.0 M-60.4 -2.0 L-22.05 -2.0 -22.05 -41.5 -60.4 -41.5 -60.4 -2.0" fill="#e6e6e6" fill-rule="evenodd" stroke="none"/>
  </g>
</svg>
