<?xml version="1.0" encoding="UTF-8" standalone="no"?>
<svg xmlns:ffdec="https://www.free-decompiler.com/flash" xmlns:xlink="http://www.w3.org/1999/xlink" ffdec:objectType="shape" height="336.8px" width="339.05px" xmlns="http://www.w3.org/2000/svg">
  <g transform="matrix(1.0, 0.0, 0.0, 1.0, 168.05, 168.7)">
    <path d="M115.0 -123.8 Q122.2 -120.2 125.3 -114.9 133.65 -103.3 139.15 -96.1 L141.95 -92.0 121.5 -115.3 117.95 -119.0 Q120.1 -112.65 128.85 -101.75 136.2 -92.6 138.35 -91.15 140.5 -89.7 144.15 -88.2 147.2 -86.55 148.9 -82.4 L153.9 -70.5 160.15 -55.25 162.95 -48.0 144.8 -82.4 142.95 -83.0 Q155.4 -50.0 156.3 -48.3 157.35 -46.4 158.8 -46.0 161.7 -45.1 163.2 -44.25 167.35 -41.85 170.35 -5.9 L170.25 -4.6 Q170.0 -3.6 168.95 -3.0 L162.75 -37.95 Q162.15 -41.55 161.65 -42.35 161.25 -43.0 159.95 -43.0 159.05 -43.0 158.0 -38.2 L157.7 -42.0 138.95 -42.0 Q142.95 -5.45 142.9 -2.0 L150.3 -1.7 154.9 -1.9 Q159.4 -2.2 160.95 -3.0 160.55 -3.55 160.15 -8.6 L158.85 -26.05 Q162.35 -4.1 167.2 -1.2 L169.95 0.2 Q171.0 1.35 171.0 6.25 171.0 9.1 169.7 15.75 L164.95 39.0 167.9 1.15 167.75 0.9 166.9 0.85 Q163.9 0.85 161.85 6.7 159.8 12.6 159.8 21.45 159.8 24.1 160.3 31.2 L160.9 41.9 163.4 41.9 163.6 47.6 Q163.6 50.1 160.1 57.5 154.25 69.8 149.95 81.0 L160.45 45.0 Q156.9 44.55 154.15 50.4 152.6 53.6 150.85 60.3 149.6 65.05 146.9 71.5 144.7 76.75 144.7 77.8 L146.95 83.0 Q146.95 84.25 141.6 92.4 L132.95 104.65 Q125.3 114.55 123.95 115.0 L143.45 86.0 Q140.55 87.2 133.85 95.6 128.7 102.1 127.2 104.65 125.0 108.5 122.55 113.05 L121.55 114.85 Q120.55 116.6 120.5 116.9 L119.9 117.75 Q119.65 118.3 120.95 118.0 113.95 124.65 104.05 132.1 95.15 138.8 90.15 141.55 86.95 143.3 77.75 149.75 67.7 156.25 57.0 160.05 49.75 162.65 36.2 165.1 19.65 168.1 6.5 168.1 -48.75 168.1 -89.95 141.5 -124.7 119.05 -145.65 80.75 -153.35 66.55 -159.4 47.4 -168.05 19.75 -168.05 -5.0 -168.05 -11.5 -165.45 -24.45 -162.8 -37.7 -162.75 -40.7 -162.7 -45.35 -160.9 -49.85 L-149.95 -73.7 Q-143.05 -88.35 -131.7 -102.9 -118.0 -120.5 -100.55 -133.95 -55.5 -168.7 3.55 -168.7 45.1 -168.7 78.45 -151.2 90.0 -145.15 98.7 -137.9 105.5 -132.25 107.05 -129.2 108.05 -127.25 115.0 -123.8 M35.15 -46.9 L55.9 -46.2 70.95 -46.6 Q70.7 -57.3 68.15 -68.4 66.8 -74.35 63.95 -83.0 L31.95 -83.0 Q32.95 -73.65 32.95 -66.0 L32.45 -66.0 Q32.6 -68.2 31.0 -76.05 L28.95 -85.5 -7.15 -85.85 -7.6 -105.65 -7.65 -105.45 Q-7.95 -104.55 -8.1 -104.55 -8.8 -99.5 -9.05 -99.0 L-9.05 -118.0 -14.15 -118.05 Q-29.0 -118.05 -33.85 -116.1 -38.35 -114.35 -38.95 -109.0 L-39.2 -110.35 Q-39.55 -111.35 -40.2 -111.6 -40.85 -111.85 -41.35 -111.15 L-41.9 -109.95 -41.6 -111.8 Q-41.25 -113.9 -41.25 -114.5 -41.25 -115.45 -45.15 -116.7 -50.1 -118.3 -57.15 -118.3 L-64.05 -118.0 Q-67.05 -109.3 -68.1 -107.4 L-72.05 -101.0 Q-73.55 -100.8 -75.4 -98.4 L-77.05 -96.0 Q-73.85 -106.45 -72.15 -109.85 L-68.05 -118.0 -88.05 -118.0 -89.1 -115.2 -89.8 -113.75 -105.05 -89.0 Q-104.2 -88.45 -96.9 -87.2 L-88.25 -86.0 -96.95 -85.0 -98.05 -85.0 -89.15 -83.85 Q-85.45 -83.0 -82.15 -80.25 -82.3 -79.95 -83.05 -80.0 -86.8 -82.35 -91.2 -83.0 L-100.85 -83.35 -108.05 -83.25 Q-110.35 -70.0 -113.05 -63.3 L-117.05 -55.0 -117.05 -55.5 -117.9 -54.7 Q-119.15 -53.55 -122.05 -50.0 -120.75 -57.4 -112.05 -83.0 -120.7 -82.0 -126.7 -82.95 L-129.25 -83.3 Q-130.0 -83.3 -130.3 -82.55 -130.95 -78.85 -132.55 -73.4 -135.7 -62.6 -143.05 -47.0 -142.4 -46.5 -140.15 -46.1 L-134.6 -45.6 Q-130.85 -45.6 -122.05 -48.0 -122.25 -43.6 -124.75 -26.2 -127.05 -9.9 -127.05 -5.0 -127.05 -2.7 -125.1 -0.8 -122.5 1.8 -117.35 1.8 L-111.2 1.0 -102.85 0.2 Q-100.05 0.2 -97.2 2.0 -94.85 3.5 -94.05 5.0 -96.7 3.15 -103.0 2.45 L-116.3 1.9 -120.1 1.95 -120.1 42.15 -113.0 42.15 -102.1 41.3 Q-95.3 40.4 -94.2 39.85 -91.3 38.3 -92.05 33.0 L-91.5 33.05 -91.25 36.9 Q-91.25 44.05 -99.8 44.05 L-106.05 43.0 -94.4 46.2 Q-90.6 47.3 -90.05 49.0 -92.45 47.15 -98.7 46.45 L-111.55 45.9 -119.05 46.0 Q-108.5 80.15 -108.05 83.0 L-83.05 83.0 -84.55 75.3 -88.05 59.0 -85.9 61.5 -85.05 60.55 Q-84.9 59.9 -85.05 57.0 -83.35 63.75 -82.25 66.6 -81.5 69.25 -79.4 83.0 L-48.9 83.0 -50.05 68.0 -48.9 70.85 -47.2 73.95 Q-46.55 72.1 -47.05 65.0 L-46.2 65.05 -45.2 78.4 -44.8 83.0 -10.05 83.0 Q-10.75 63.25 -11.05 46.0 L-49.05 46.0 -49.05 49.0 -49.6 49.0 -50.05 45.0 -10.05 45.0 -10.15 51.5 Q-10.15 57.65 -9.75 61.85 L-9.05 70.0 -7.95 61.05 Q-7.55 55.7 -8.05 45.0 L2.05 45.25 16.35 44.85 30.95 44.0 16.2 43.1 Q7.5 42.7 -8.05 43.0 L-8.05 24.0 -7.15 24.05 -7.15 42.3 31.1 41.45 Q31.5 28.2 31.95 22.75 L32.25 17.7 32.15 2.0 -8.05 2.0 -8.05 1.0 8.95 1.0 32.95 1.0 32.95 40.0 Q34.7 28.8 34.9 25.9 35.5 18.1 34.95 0.9 L51.95 0.5 Q51.25 -0.1 48.6 -0.6 L35.95 -1.45 35.95 -2.0 74.0 -2.0 74.0 -11.65 Q73.1 -28.4 71.7 -42.0 L34.95 -42.0 34.95 -42.5 Q37.9 -42.25 43.1 -42.65 49.05 -43.05 51.95 -44.0 51.25 -44.35 51.0 -44.6 L50.85 -44.75 42.3 -43.8 Q38.55 -43.8 36.65 -45.2 35.75 -45.9 35.15 -46.9 M78.95 -118.0 L56.95 -118.0 Q58.15 -114.0 67.95 -87.0 L78.5 -86.7 94.95 -88.0 94.6 -88.05 Q94.0 -88.4 86.65 -102.8 L78.95 -118.0 M58.25 -103.05 L52.95 -118.0 29.4 -118.0 29.4 -86.7 47.0 -86.7 63.95 -88.0 Q63.6 -88.1 58.25 -103.05 M55.95 -122.0 L64.05 -121.7 70.2 -122.3 75.95 -123.0 75.6 -123.15 Q75.2 -123.4 70.85 -128.65 L56.95 -145.0 41.95 -145.0 55.95 -122.0 M36.95 -145.0 L19.95 -145.0 Q21.75 -135.25 23.95 -129.3 L26.95 -122.0 36.45 -121.7 43.95 -122.3 50.95 -123.0 50.9 -123.15 46.65 -130.6 Q41.75 -138.85 36.95 -145.0 M21.95 -122.0 Q21.6 -124.75 19.25 -134.4 16.7 -145.0 15.95 -145.0 L7.7 -145.05 Q3.6 -144.95 1.4 -143.9 -4.05 -141.3 -4.05 -129.5 L-3.9 -122.75 21.95 -122.0 M12.95 -162.0 Q14.9 -153.75 18.8 -150.9 21.65 -148.8 27.6 -148.8 L32.95 -149.0 32.65 -149.85 Q31.55 -153.05 25.95 -157.5 19.05 -162.9 12.95 -162.0 M6.9 -161.4 L4.8 -161.7 Q1.7 -161.7 -0.1 -159.6 -2.05 -157.3 -2.05 -153.0 -2.05 -150.75 2.25 -149.7 5.25 -148.95 8.95 -148.95 L10.9 -149.15 14.95 -150.0 Q10.9 -151.35 10.4 -152.65 10.15 -153.45 11.5 -154.9 12.9 -156.45 12.8 -157.4 12.65 -158.95 9.1 -160.7 L6.9 -161.4 M49.45 -149.0 Q47.45 -150.5 44.85 -153.2 40.45 -156.25 25.95 -162.0 26.45 -154.5 37.05 -150.85 42.35 -149.0 47.65 -148.65 48.95 -148.65 49.45 -149.0 M120.55 -111.9 Q117.75 -115.15 114.15 -116.45 110.7 -117.65 103.95 -118.0 114.55 -102.25 121.85 -90.6 123.85 -87.9 125.6 -87.25 L130.55 -86.8 135.95 -87.0 126.7 -102.7 Q122.8 -109.35 120.55 -111.9 M84.95 -115.05 L86.0 -112.8 98.95 -87.0 107.4 -86.7 113.9 -87.3 119.95 -88.0 Q119.35 -88.15 109.8 -102.75 L99.95 -118.0 83.95 -118.0 Q84.3 -116.65 84.95 -115.05 M87.25 -121.7 L91.25 -121.9 Q95.45 -122.2 96.95 -123.0 91.1 -127.2 82.0 -137.2 73.6 -145.05 64.5 -145.05 L61.95 -145.0 Q62.7 -143.8 63.6 -142.75 L70.3 -134.65 Q76.5 -127.05 79.3 -124.4 81.9 -121.95 83.6 -121.85 L87.25 -121.7 M86.8 -133.9 L93.25 -127.2 Q96.1 -124.75 99.6 -123.65 103.05 -122.6 109.95 -122.0 89.55 -140.45 84.5 -142.7 83.3 -143.25 81.0 -143.4 78.85 -143.55 75.95 -145.0 L86.8 -133.9 M33.95 -54.0 L34.75 -52.45 Q35.15 -51.2 35.15 -48.95 L35.1 -46.95 Q33.65 -49.45 33.95 -54.0 M68.95 -83.0 Q70.55 -66.75 72.85 -57.45 L75.95 -46.0 89.35 -45.7 106.95 -46.55 102.55 -62.5 96.95 -83.0 68.95 -83.0 M27.95 -87.55 L26.3 -97.75 Q24.75 -107.75 24.1 -118.0 L-4.75 -118.0 Q-4.45 -110.5 -5.3 -106.1 -6.25 -101.05 -6.05 -86.7 16.7 -87.0 27.95 -87.55 M76.25 -35.6 L76.55 -26.35 Q76.95 -26.35 77.25 -14.35 L77.8 -2.0 110.05 -2.0 Q109.25 -20.65 107.75 -42.0 L75.95 -42.0 76.25 -35.6 M-69.3 -141.5 Q-67.1 -144.95 -70.75 -144.95 -72.6 -144.95 -78.9 -140.25 L-101.05 -123.0 Q-101.0 -122.45 -95.05 -122.15 L-89.05 -122.0 Q-72.65 -136.35 -69.3 -141.5 M-54.1 -138.2 Q-51.1 -142.25 -51.1 -142.9 -51.1 -149.95 -66.8 -138.35 -72.45 -134.2 -78.05 -129.15 -83.2 -124.45 -84.05 -123.0 L-65.05 -122.0 Q-59.2 -131.3 -54.1 -138.2 M-45.05 -145.0 Q-46.55 -141.55 -53.65 -132.15 L-61.05 -122.5 -38.05 -122.0 -33.85 -132.35 Q-30.25 -141.15 -29.05 -145.0 L-45.05 -145.0 M-24.65 -151.1 Q-22.5 -153.8 -18.05 -162.0 -19.95 -160.9 -31.9 -154.95 -39.05 -151.4 -39.05 -150.0 L-39.0 -149.3 -39.0 -149.35 -27.05 -149.0 -24.65 -151.1 M-17.25 -156.1 Q-21.7 -151.2 -22.0 -149.15 -10.2 -148.95 -8.55 -149.35 -3.95 -150.4 -3.95 -156.15 -3.95 -158.15 -4.75 -159.95 -5.65 -162.0 -7.05 -162.0 -11.85 -162.0 -17.25 -156.1 M-162.8 -10.05 L-163.05 -6.0 Q-163.05 -1.7 -159.3 -1.7 -150.5 -1.7 -150.55 -13.4 -150.6 -19.25 -148.7 -27.75 L-146.85 -36.3 Q-146.85 -38.25 -148.05 -39.85 -149.65 -41.95 -152.7 -41.95 L-155.2 -41.45 Q-161.65 -16.0 -162.8 -10.05 M108.6 122.75 Q108.6 122.1 107.75 121.45 106.7 120.65 105.15 120.65 99.0 124.8 92.45 129.9 79.4 140.05 77.05 144.95 90.6 140.1 100.8 131.3 108.6 124.65 108.6 122.75 M24.95 161.0 Q37.05 160.1 44.25 155.45 49.6 152.0 49.6 149.5 49.6 148.0 47.95 148.0 43.5 148.0 38.55 151.45 L24.95 161.0 M17.95 161.5 Q23.8 159.05 32.95 150.0 31.85 149.2 29.8 148.6 27.4 147.9 24.95 147.9 21.75 147.9 17.4 152.3 12.95 156.8 12.95 160.35 12.95 163.55 17.95 161.5 M4.2 162.0 Q7.5 162.0 10.8 158.2 14.45 153.95 14.95 148.0 L-2.25 148.0 Q-2.85 154.55 -0.65 158.55 1.25 162.0 4.2 162.0 M16.95 145.0 Q21.55 124.4 21.95 121.0 L-4.05 121.0 -4.05 125.2 Q-3.8 133.45 -3.35 137.55 L-2.55 145.0 16.95 145.0 M19.95 143.0 Q19.95 143.8 24.1 144.5 L34.6 145.3 Q38.1 145.3 41.1 139.6 48.95 124.7 50.95 121.5 L25.95 121.0 Q24.85 128.65 22.2 135.0 19.95 140.4 19.95 143.0 M23.35 117.1 L23.7 114.9 25.05 104.4 Q26.25 94.95 26.95 86.0 L-5.55 86.0 -5.55 118.3 Q10.0 117.7 20.6 117.75 22.9 117.65 23.35 117.1 M84.8 121.15 L80.95 121.0 Q80.6 121.0 77.4 126.0 71.85 133.45 60.95 144.0 66.45 146.2 80.95 135.25 93.5 125.75 95.95 121.5 L84.8 121.15 M75.05 123.15 Q74.6 123.3 75.95 121.5 L54.95 121.0 Q54.0 126.8 41.95 144.0 42.0 144.9 56.95 145.0 L62.05 138.9 75.05 123.15 M67.95 86.0 L67.0 89.65 61.8 102.85 Q58.25 111.9 56.95 116.0 58.2 116.85 61.05 117.65 64.3 118.55 67.0 118.55 L76.35 118.55 Q79.2 118.25 80.85 115.85 81.95 114.25 85.4 106.4 90.1 95.65 94.95 86.0 L67.95 86.0 M32.05 76.8 Q31.5 79.0 31.7 79.75 32.05 80.8 34.15 81.35 L56.3 83.15 64.95 83.15 Q67.35 75.5 69.7 46.0 L34.95 46.0 32.05 76.8 M24.45 82.75 Q27.25 82.6 27.9 82.15 L28.45 80.55 Q29.8 70.55 30.55 46.0 L-7.2 46.0 -6.4 83.3 24.45 82.75 M41.9 86.35 L31.45 87.05 Q31.55 96.45 29.3 105.15 L26.95 113.0 Q26.95 114.6 30.55 116.0 36.05 118.15 47.75 118.15 53.5 118.15 54.0 116.7 54.1 113.65 55.55 110.3 57.3 106.4 60.25 96.15 62.8 87.25 62.95 86.0 L54.0 85.85 41.9 86.35 M73.15 28.0 Q73.9 17.7 73.9 6.5 L73.75 2.0 35.95 2.0 Q36.05 20.05 35.55 27.75 L34.95 36.0 35.05 41.25 72.25 42.0 73.15 28.0 M135.45 86.35 L131.9 85.95 Q128.1 85.95 126.85 86.95 L121.95 92.5 Q120.35 94.25 115.15 101.45 L108.9 109.15 Q103.95 115.35 103.95 117.0 103.95 117.35 104.25 117.75 104.7 118.4 105.6 118.4 109.75 118.4 115.65 113.1 123.95 105.6 136.75 87.15 135.6 86.4 135.45 86.35 M104.55 67.1 Q100.95 74.95 100.95 79.0 100.95 81.2 104.5 81.95 L117.05 83.15 122.95 83.15 Q123.75 79.5 129.05 63.2 L134.95 45.0 110.95 45.0 Q108.9 57.55 104.55 67.1 M119.95 86.5 L98.95 86.0 Q98.9 86.85 93.8 97.15 L87.6 108.15 Q82.95 116.25 82.95 117.0 L83.0 118.0 100.6 118.0 119.95 86.5 M96.95 83.15 Q97.55 77.1 102.3 60.6 L106.95 45.0 75.8 45.0 Q74.65 53.05 71.4 63.8 68.95 72.0 68.95 79.0 68.95 81.3 73.65 82.05 L96.95 83.15 M107.95 42.0 L109.45 2.0 77.95 2.0 Q78.1 6.8 77.3 16.35 L75.95 29.0 75.95 42.0 107.95 42.0 M143.2 44.65 L140.2 45.55 135.1 58.1 129.5 71.8 Q125.95 80.5 125.95 81.0 125.95 82.2 128.4 82.95 L132.9 83.6 Q135.7 83.6 136.75 82.9 138.5 81.65 140.6 76.8 L147.7 61.25 Q152.95 49.7 152.95 48.0 152.95 46.0 150.15 44.85 L143.2 44.65 M139.85 3.2 L139.75 0.8 114.95 1.25 Q114.4 13.95 112.55 25.55 110.95 35.8 110.95 40.0 110.95 41.2 119.25 41.85 L127.7 42.25 136.0 42.2 138.75 18.95 Q139.85 9.25 139.85 3.2 M159.0 1.0 L159.95 1.0 Q154.1 0.9 142.95 1.25 142.95 4.85 140.95 21.45 138.95 38.0 138.95 40.0 138.95 40.55 140.7 41.2 143.25 42.15 147.95 42.15 L155.3 41.8 156.4 41.1 155.45 41.0 Q156.6 33.65 157.75 19.45 L159.0 1.0 M113.1 -42.0 L113.1 -1.95 124.75 -1.75 Q133.85 -1.75 140.95 -3.0 L140.1 -3.15 Q139.85 -3.25 139.7 -4.35 L138.75 -19.85 137.3 -42.0 113.1 -42.0 M101.85 -79.2 L101.6 -78.5 102.5 -73.8 Q104.6 -65.4 106.25 -60.7 L109.05 -52.25 110.95 -46.0 120.05 -45.7 134.95 -46.55 Q134.35 -50.6 129.5 -63.45 L121.95 -83.0 Q108.85 -83.0 103.9 -80.75 102.35 -80.05 101.85 -79.2 M135.3 -83.65 L125.95 -83.0 Q133.7 -63.85 137.6 -50.05 138.9 -46.85 140.85 -46.2 L147.8 -45.75 152.45 -46.0 Q150.95 -54.8 147.2 -64.05 143.25 -73.7 142.75 -76.3 142.45 -80.9 140.2 -82.5 138.65 -83.65 135.3 -83.65 M-93.3 -117.4 L-93.6 -117.8 Q-99.65 -120.15 -108.65 -111.0 -113.9 -105.65 -126.05 -89.0 L-121.4 -86.9 -117.05 -86.75 -111.7 -86.75 Q-110.0 -86.9 -109.1 -87.95 L-101.85 -100.85 Q-93.2 -115.8 -93.2 -116.55 L-93.3 -117.4 M-111.3 -114.7 Q-111.3 -115.75 -112.05 -118.0 -113.3 -117.85 -116.9 -114.0 L-122.05 -108.05 Q-124.75 -104.9 -132.6 -96.65 -139.05 -89.6 -139.05 -88.0 -138.95 -86.6 -137.45 -86.6 -133.05 -86.6 -130.15 -89.75 L-126.75 -94.7 Q-122.3 -100.5 -114.95 -108.65 -111.3 -112.7 -111.3 -114.7 M-29.5 -132.0 L-34.05 -124.0 Q-32.35 -123.05 -30.55 -122.7 L-16.6 -121.75 -7.85 -121.8 Q-7.05 -136.4 -7.05 -145.0 L-25.05 -145.0 Q-25.45 -140.05 -29.5 -132.0 M-80.4 -88.35 L-80.05 -89.0 -80.15 -88.55 -80.4 -88.35 M-148.2 -3.45 Q-147.55 -2.15 -145.1 -1.9 L-138.25 -1.85 -128.05 -2.4 Q-127.4 -4.25 -126.55 -14.25 -125.65 -25.3 -124.85 -42.0 L-144.3 -42.0 -146.35 -19.45 -147.25 -14.45 -148.65 -9.6 Q-149.55 -6.25 -148.2 -3.45 M-134.55 -81.7 Q-135.75 -83.0 -137.05 -83.0 -139.05 -83.0 -144.1 -73.2 L-150.2 -60.3 -154.75 -50.95 -156.1 -48.0 Q-156.1 -45.45 -153.4 -45.45 -149.6 -45.45 -141.4 -59.45 -133.35 -73.25 -133.35 -78.7 -133.35 -80.35 -134.55 -81.7 M-10.05 86.0 L-43.05 86.0 -36.05 118.0 -8.05 118.0 Q-8.1 114.4 -8.75 106.45 -9.6 96.65 -10.05 86.0 M-44.05 98.75 L-48.05 86.0 -77.05 86.0 Q-75.8 93.95 -64.05 118.0 L-40.05 118.0 Q-40.0 112.5 -44.05 98.75 M-126.8 87.8 L-126.25 88.6 Q-118.45 97.25 -115.15 102.2 -112.2 106.55 -109.5 111.25 -107.05 116.0 -106.7 116.15 L-102.15 117.55 -98.8 118.45 -93.55 118.0 Q-95.05 113.45 -95.85 111.6 -97.8 107.3 -102.6 99.05 L-107.8 90.3 Q-110.85 86.0 -113.9 85.85 L-123.75 85.45 -126.1 85.65 Q-127.1 85.9 -127.1 86.7 L-126.8 87.8 M-138.0 85.75 L-140.05 86.0 Q-133.0 94.25 -130.7 97.55 -129.1 99.85 -127.5 103.4 -124.5 110.1 -118.35 114.4 -113.85 117.5 -111.9 117.5 -111.25 117.5 -111.05 117.2 L-110.9 116.55 Q-119.35 100.7 -123.45 95.3 -130.7 85.75 -138.0 85.75 M-123.05 46.0 L-143.05 46.0 -140.8 51.35 Q-137.25 60.1 -129.05 83.0 L-111.05 83.0 Q-111.2 82.15 -115.3 70.65 -119.9 57.85 -123.05 46.0 M-153.65 45.8 L-157.05 45.95 -143.7 78.35 Q-142.05 81.4 -140.05 82.2 L-134.55 83.0 Q-134.5 82.35 -136.35 75.8 -138.7 67.45 -140.0 61.05 -141.65 53.05 -144.35 49.7 -147.5 45.8 -153.65 45.8 M-150.2 20.55 Q-150.95 11.25 -151.9 7.5 -153.05 2.9 -155.5 1.65 -157.95 0.4 -163.05 1.75 L-161.85 1.75 Q-159.15 21.7 -158.95 36.9 -158.55 40.6 -156.9 41.5 L-150.45 42.2 -148.55 42.0 -150.2 20.55 M-148.95 2.0 L-146.65 13.8 Q-144.7 24.2 -144.7 36.35 L-144.95 42.0 -124.9 42.0 Q-125.6 23.5 -126.9 2.0 L-148.95 2.0 M-4.85 160.8 Q-3.45 159.5 -3.45 156.35 -3.45 150.4 -6.15 149.15 -9.0 147.8 -22.05 148.0 -19.05 153.4 -15.8 157.25 -11.75 162.0 -9.05 162.0 -6.15 162.0 -4.85 160.8 M-30.8 157.0 Q-20.5 163.0 -16.55 162.0 L-27.05 148.0 -41.05 148.0 Q-40.95 151.05 -30.8 157.0 M-68.5 140.6 Q-65.65 143.25 -61.85 144.2 L-50.55 145.0 Q-52.15 141.5 -54.0 138.6 -57.1 133.65 -67.05 121.0 L-85.05 121.0 Q-80.3 126.2 -74.8 133.2 -70.3 138.9 -68.5 140.6 M-29.05 144.0 Q-29.25 142.95 -33.55 132.65 L-38.05 122.0 -61.05 122.0 -51.45 135.65 -47.3 141.65 Q-45.8 143.85 -44.45 144.65 -43.65 145.1 -42.4 145.15 L-38.75 145.3 -34.7 145.15 Q-30.6 144.8 -29.05 144.0 M-27.9 138.95 L-25.05 145.0 -6.05 145.0 -6.25 142.15 -7.95 122.0 -34.05 122.0 Q-30.95 132.0 -27.9 138.95 M-101.1 120.8 Q-103.2 121.05 -101.4 122.45 -100.25 123.4 -95.7 126.4 -91.2 129.7 -88.75 133.0 -86.25 136.35 -83.8 138.35 L-80.35 140.8 Q-74.65 144.7 -67.55 145.0 L-90.05 121.0 Q-98.95 120.5 -101.1 120.8 M-106.05 86.0 Q-105.45 88.0 -103.65 91.45 -100.55 97.45 -94.95 105.45 -90.0 112.55 -88.45 117.2 -87.85 118.15 -86.2 118.3 L-80.0 118.3 Q-71.2 118.3 -68.05 117.0 L-68.35 117.0 -72.8 106.85 Q-78.05 94.75 -82.05 86.0 L-106.05 86.0" fill="#4b4b4b" fill-opacity="0.9647059" fill-rule="evenodd" stroke="none"/>
    <path d="M35.15 -46.9 Q35.75 -45.9 36.65 -45.2 38.55 -43.8 42.3 -43.8 L50.85 -44.75 51.0 -44.6 Q51.25 -44.35 51.95 -44.0 49.05 -43.05 43.1 -42.65 37.9 -42.25 34.95 -42.5 L34.95 -42.0 36.0 -25.7 35.95 -2.0 35.95 -1.45 48.6 -0.6 Q51.25 -0.1 51.95 0.5 L34.95 0.9 Q35.5 18.1 34.9 25.9 34.7 28.8 32.95 40.0 L32.95 1.0 8.95 1.0 9.45 0.0 -8.05 -2.0 32.95 -2.0 32.2 -14.65 Q31.8 -21.2 31.8 -31.6 L31.95 -42.0 -8.05 -42.0 -8.0 -42.85 7.45 -43.0 Q5.4 -44.95 -0.05 -45.45 L-6.7 -46.0 28.95 -47.0 28.95 -73.0 28.85 -73.0 28.85 -82.35 28.35 -82.35 Q27.9 -82.4 27.95 -82.5 -4.0 -82.8 -7.05 -83.0 L-6.7 -46.0 -7.05 -46.6 Q-8.5 -50.6 -8.5 -55.05 L-8.05 -60.5 Q-8.65 -59.7 -9.65 -57.0 -10.9 -53.6 -11.05 -50.8 -10.75 -67.35 -10.05 -83.0 L-44.1 -83.0 Q-43.95 -80.0 -45.1 -73.6 -46.05 -68.4 -47.05 -65.0 -47.65 -66.15 -48.25 -66.25 L-49.7 -63.75 -51.05 -60.0 -49.65 -83.0 -79.55 -83.0 Q-79.65 -77.25 -83.35 -62.6 L-87.05 -49.0 Q-87.05 -47.2 -82.85 -45.5 -79.85 -44.3 -77.15 -44.25 L-80.05 -44.0 -68.7 -42.75 Q-62.65 -42.25 -53.05 -42.5 L-53.05 -42.0 -88.05 -42.0 Q-88.05 -34.55 -88.35 -30.65 -88.9 -24.65 -90.2 -17.1 -91.05 -12.35 -91.05 -6.0 -91.05 -4.25 -88.8 -2.5 -86.4 -0.6 -83.4 -0.55 L-79.1 1.1 -74.1 1.65 -62.25 0.8 -59.15 1.2 -55.05 2.0 -91.05 2.0 -88.05 42.0 -53.95 42.0 -53.9 32.7 Q-53.9 26.45 -54.05 22.0 L-53.15 28.05 -52.8 29.15 Q-51.65 27.5 -51.0 23.35 -50.25 18.7 -51.05 15.0 L-50.55 15.0 -50.15 42.0 -11.05 42.0 -11.6 2.0 -51.05 2.0 -51.05 1.0 -10.95 1.0 -10.05 24.0 Q-9.65 22.1 -9.05 11.9 L-8.55 1.0 -8.05 1.0 -8.05 2.0 -8.05 24.0 -8.05 43.0 Q7.5 42.7 16.2 43.1 L30.95 44.0 16.35 44.85 2.05 45.25 -8.05 45.0 Q-7.55 55.7 -7.95 61.05 L-9.05 70.0 -9.75 61.85 Q-10.15 57.65 -10.15 51.5 L-10.05 45.0 -50.05 45.0 -49.6 49.0 -49.05 49.0 Q-48.55 50.9 -47.85 55.55 -46.9 61.8 -47.05 65.0 -46.55 72.1 -47.2 73.95 L-48.9 70.85 -50.05 68.0 -51.15 61.65 Q-52.2 54.0 -52.35 46.0 L-87.05 46.0 -85.05 57.0 Q-84.9 59.9 -85.05 60.55 L-85.9 61.5 -88.05 59.0 -89.7 53.4 Q-90.1 51.4 -90.05 49.0 -90.6 47.3 -94.4 46.2 L-106.05 43.0 -99.8 44.05 Q-91.25 44.05 -91.25 36.9 L-91.5 33.05 -92.05 33.0 Q-92.6 30.1 -93.35 18.35 L-94.05 5.0 Q-94.85 3.5 -97.2 2.0 -100.05 0.2 -102.85 0.2 L-111.2 1.0 -117.35 1.8 Q-122.5 1.8 -125.1 -0.8 -127.05 -2.7 -127.05 -5.0 -127.05 -9.9 -124.75 -26.2 -122.25 -43.6 -122.05 -48.0 L-122.05 -50.0 Q-119.15 -53.55 -117.9 -54.7 L-117.05 -55.5 -117.05 -55.0 -118.05 -51.35 -119.05 -48.0 Q-116.75 -46.7 -115.5 -46.15 -113.35 -45.2 -109.15 -45.2 L-99.95 -45.45 Q-91.0 -45.85 -90.85 -46.65 L-88.6 -55.3 Q-87.45 -59.4 -85.2 -69.65 -83.1 -79.15 -83.05 -80.0 -82.3 -79.95 -82.15 -80.25 -85.45 -83.0 -89.15 -83.85 L-98.05 -85.0 -96.95 -85.0 -88.25 -86.0 -83.75 -86.25 Q-82.4 -86.45 -80.4 -88.35 L-80.15 -88.55 -80.05 -89.0 Q-79.8 -91.65 -78.75 -93.5 L-77.05 -96.0 -75.4 -98.4 Q-73.55 -100.8 -72.05 -101.0 -71.9 -99.1 -73.85 -94.8 -75.5 -91.15 -77.05 -89.0 L-69.15 -86.7 -66.45 -86.2 -47.05 -87.0 -42.05 -109.0 -41.9 -109.95 -41.35 -111.15 Q-40.85 -111.85 -40.2 -111.6 -39.55 -111.35 -39.2 -110.35 L-38.95 -109.0 -39.0 -108.4 Q-40.45 -100.0 -41.95 -95.8 L-43.05 -92.0 Q-43.05 -89.55 -41.05 -87.7 -38.15 -85.0 -31.95 -85.0 -26.75 -85.0 -20.6 -86.3 L-13.8 -88.1 -11.45 -88.85 Q-11.0 -89.05 -10.95 -89.8 -10.85 -93.8 -9.05 -99.0 -8.8 -99.5 -8.1 -104.55 -7.95 -104.55 -7.65 -105.45 L-7.6 -105.65 -7.15 -85.85 28.95 -85.5 31.0 -76.05 Q32.6 -68.2 32.45 -66.0 L32.95 -66.0 Q33.3 -65.0 33.65 -59.6 L33.95 -54.0 Q33.65 -49.45 35.1 -46.95 L35.1 -46.9 35.15 -46.9 M-124.05 -7.0 Q-124.05 -4.6 -117.75 -3.15 -112.55 -2.0 -106.15 -2.0 L-94.95 -2.4 -92.05 -42.0 -120.05 -42.0 Q-120.3 -38.25 -122.25 -22.6 L-124.05 -7.0 M-54.05 -16.0 L-54.05 -1.0 -76.85 -1.0 -54.9 -1.95 -54.9 -15.95 -54.05 -16.0 M-52.05 -50.0 Q-50.4 -49.3 -50.35 -48.75 -50.3 -48.2 -51.1 -47.8 -51.9 -47.4 -53.1 -47.35 L-54.45 -47.35 Q-53.45 -47.35 -52.75 -48.1 -52.05 -48.9 -52.05 -50.0" fill="#949494" fill-opacity="0.99607843" fill-rule="evenodd" stroke="none"/>
    <path d="M8.95 1.0 L-8.05 1.0 -8.55 1.0 -9.05 11.9 Q-9.65 22.1 -10.05 24.0 L-10.95 1.0 -51.05 1.0 -51.05 2.0 -51.05 15.0 Q-50.25 18.7 -51.0 23.35 -51.65 27.5 -52.8 29.15 L-53.15 28.05 -54.05 22.0 Q-54.75 11.95 -55.05 2.0 L-59.15 1.2 -62.25 0.8 -74.1 1.65 -79.1 1.1 -83.4 -0.55 -76.85 -1.0 -54.05 -1.0 -54.05 -16.0 Q-54.05 -31.45 -53.65 -37.6 -53.5 -40.6 -53.05 -42.0 L-53.05 -42.5 Q-62.65 -42.25 -68.7 -42.75 L-80.05 -44.0 -77.15 -44.25 -74.9 -44.45 -63.55 -45.8 -54.45 -47.35 -53.1 -47.35 Q-51.9 -47.4 -51.1 -47.8 -50.3 -48.2 -50.35 -48.75 -50.4 -49.3 -52.05 -50.0 -51.9 -56.45 -51.05 -60.0 L-49.7 -63.75 -48.25 -66.25 Q-47.65 -66.15 -47.05 -65.0 -47.25 -62.65 -48.2 -56.15 L-49.05 -50.0 Q-49.05 -47.85 -46.6 -46.15 -43.8 -44.2 -39.15 -44.2 -20.7 -44.2 -14.3 -46.9 -11.75 -48.0 -11.05 -50.4 L-11.05 -50.8 Q-10.9 -53.6 -9.65 -57.0 -8.65 -59.7 -8.05 -60.5 L-8.5 -55.05 Q-8.5 -50.6 -7.05 -46.6 L-6.7 -46.0 -0.05 -45.45 Q5.4 -44.95 7.45 -43.0 L-8.0 -42.85 -8.05 -42.0 -8.05 -2.0 9.45 0.0 8.95 1.0 M-44.25 -41.45 L-51.05 -41.0 -51.05 -2.0 -11.05 -2.0 -11.05 -42.15 Q-36.25 -41.85 -44.25 -41.45" fill="#e6e6e6" fill-rule="evenodd" stroke="none"/>
  </g>
</svg>
