<?xml version="1.0" encoding="UTF-8" standalone="no"?>
<svg xmlns:ffdec="https://www.free-decompiler.com/flash" xmlns:xlink="http://www.w3.org/1999/xlink" ffdec:objectType="shape" height="19.15px" width="78.75px" xmlns="http://www.w3.org/2000/svg">
  <g transform="matrix(1.0, 0.0, 0.0, 1.0, 1.35, -12.85)">
    <path d="M76.9 15.0 Q62.85 19.05 55.75 24.7 63.35 21.3 74.65 21.45 58.2 22.4 47.1 30.95 56.4 19.4 76.9 15.0 M28.6 25.7 L31.8 26.5 36.3 27.2 36.45 28.1 Q36.45 29.15 35.7 29.9 L34.7 30.55 Q33.3 29.85 31.5 29.3 L28.75 28.5 Q27.75 27.25 28.6 25.7" fill="#000000" fill-rule="evenodd" stroke="none"/>
    <path d="M1.15 14.25 Q5.35 18.05 20.55 23.2 L28.6 25.7 Q27.75 27.25 28.75 28.5 19.65 26.25 2.4 25.8 0.15 20.15 1.15 14.25 M36.3 27.2 L38.15 27.25 Q37.25 29.45 36.0 31.25 L34.7 30.55 35.7 29.9 Q36.45 29.15 36.45 28.1 L36.3 27.2" fill="#ffffff" fill-rule="evenodd" stroke="none"/>
    <path d="M76.9 15.0 Q56.4 19.4 47.1 30.95 58.2 22.4 74.65 21.45 63.35 21.3 55.75 24.7 62.85 19.05 76.9 15.0 M52.35 22.45 Q47.95 24.75 45.5 27.65 44.8 25.5 45.5 22.75 M0.3 13.35 L1.15 14.25 Q5.35 18.05 20.55 23.2 L28.6 25.7 31.8 26.5 36.3 27.2 38.15 27.25 Q39.8 27.15 40.5 26.55 M34.7 30.55 Q33.3 29.85 31.5 29.3 L28.75 28.5 Q19.65 26.25 2.4 25.8 L-0.85 25.75 M36.65 31.5 L36.0 31.25 34.7 30.55 M38.15 27.25 Q37.25 29.45 36.0 31.25 M1.15 14.25 Q0.15 20.15 2.4 25.8" fill="none" stroke="#000000" stroke-linecap="round" stroke-linejoin="round" stroke-width="1.0"/>
  </g>
</svg>
