<?xml version="1.0" encoding="UTF-8" standalone="no"?>
<svg xmlns:ffdec="https://www.free-decompiler.com/flash" xmlns:xlink="http://www.w3.org/1999/xlink" ffdec:objectType="shape" height="123.55px" width="125.35px" xmlns="http://www.w3.org/2000/svg">
  <g transform="matrix(1.0, 0.0, 0.0, 1.0, 69.15, 67.4)">
    <path d="M44.05 -59.65 Q45.75 -59.25 48.25 -51.65 51.0 -43.25 51.0 -35.55 L50.7 -30.65 Q50.35 -26.5 50.0 -26.5 53.4 -18.25 54.75 -12.45 56.2 -5.95 56.2 2.2 56.2 18.65 53.4 33.6 50.95 46.75 49.2 46.75 L48.4 46.7 48.0 46.5 Q44.35 45.25 42.95 45.25 40.05 45.25 35.85 48.2 31.65 51.1 29.0 51.1 27.1 51.1 26.6 49.85 L25.45 47.5 25.05 47.65 Q24.65 48.4 23.75 51.8 22.85 55.3 23.0 55.85 L4.6 56.15 Q-22.85 56.15 -46.75 51.5 -62.95 48.35 -67.1 46.45 -68.75 45.65 -69.05 44.85 L-69.15 43.4 Q-69.15 42.15 -65.95 36.1 -61.75 28.25 -59.6 22.6 -58.35 19.3 -56.8 9.5 -55.25 -0.4 -55.5 -3.75 -56.0 -10.65 -53.8 -25.2 -51.1 -42.75 -46.55 -50.45 -45.1 -52.9 -42.9 -57.65 -40.85 -62.05 -40.7 -62.7 -40.25 -64.55 -36.5 -65.55 L-28.55 -66.65 -17.15 -67.15 -9.25 -67.4 Q1.3 -67.4 19.35 -64.6 35.5 -62.1 44.05 -59.65 M44.25 30.15 Q42.95 27.45 41.1 26.15 L39.4 25.45 Q37.45 25.45 35.15 27.9 33.0 30.25 33.0 32.0 33.0 37.65 41.85 37.65 45.3 37.65 45.5 36.25 L44.25 30.15 M6.9 31.3 Q7.25 30.45 1.0 26.5 L-6.5 25.85 Q-9.55 25.85 -13.8 27.1 -18.1 28.35 -21.5 28.35 -29.15 28.35 -35.65 29.85 L-44.0 32.0 -56.0 27.5 Q-56.0 29.0 -59.25 35.0 -62.4 40.75 -64.0 42.5 L-63.9 43.05 Q-43.1 47.35 -33.55 48.6 -12.25 51.35 18.0 51.55 L19.7 44.7 Q21.0 39.9 21.0 36.5 20.25 34.75 12.65 32.75 L6.9 31.3" fill="#5f5f5f" fill-opacity="0.99607843" fill-rule="evenodd" stroke="none"/>
    <path d="M44.25 30.15 L45.5 36.25 Q45.3 37.65 41.85 37.65 33.0 37.65 33.0 32.0 33.0 30.25 35.15 27.9 37.45 25.45 39.4 25.45 L41.1 26.15 Q42.95 27.45 44.25 30.15" fill="#1a1a1a" fill-opacity="0.99607843" fill-rule="evenodd" stroke="none"/>
    <path d="M6.9 31.3 L12.65 32.75 Q20.25 34.75 21.0 36.5 21.0 39.9 19.7 44.7 L18.0 51.55 Q-12.25 51.35 -33.55 48.6 -43.1 47.35 -63.9 43.05 L-64.0 42.5 Q-62.4 40.75 -59.25 35.0 -56.0 29.0 -56.0 27.5 L-44.0 32.0 -35.65 29.85 Q-29.15 28.35 -21.5 28.35 -18.1 28.35 -13.8 27.1 -9.55 25.85 -6.5 25.85 L1.0 26.5 Q7.25 30.45 6.9 31.3" fill="#171717" fill-opacity="0.99607843" fill-rule="evenodd" stroke="none"/>
  </g>
</svg>
