<?xml version="1.0" encoding="UTF-8" standalone="no"?>
<svg xmlns:ffdec="https://www.free-decompiler.com/flash" xmlns:xlink="http://www.w3.org/1999/xlink" ffdec:objectType="shape" height="63.5px" width="57.3px" xmlns="http://www.w3.org/2000/svg">
  <g transform="matrix(1.0, 0.0, 0.0, 1.0, 30.3, 24.1)">
    <path d="M21.9 17.95 Q21.65 16.4 22.25 14.35 L23.75 10.2 Q26.2 3.8 26.2 -2.25 26.2 -12.35 21.55 -17.85 17.25 -22.9 10.0 -22.9 L7.25 -22.5 Q5.1 -21.9 3.75 -20.9 L16.35 -18.7 Q18.3 -15.45 19.65 -9.0 21.15 -2.0 21.15 5.25 21.15 10.8 20.15 15.6 19.55 18.75 17.8 24.2 L16.1 24.0 Q14.05 24.0 13.4 24.5 L12.35 25.7 Q10.2 27.4 -1.8 27.4 -12.6 27.4 -20.95 25.7 -26.8 24.5 -30.3 22.75 L-24.8 13.9 Q-21.4 8.1 -21.4 6.1 -21.4 5.75 -23.1 3.1 L-23.7 2.2 Q-23.85 2.05 -24.0 2.05 -21.25 -7.3 -18.55 -14.75 -16.95 -19.2 -16.95 -20.15 L-5.75 -21.05 1.15 -20.75 5.15 -23.1 Q7.35 -24.1 10.4 -24.1 17.2 -24.1 21.7 -19.05 27.0 -13.2 27.0 -2.55 27.0 4.3 25.2 9.4 L23.75 13.0 Q22.95 15.0 22.65 16.45 L22.45 17.5 21.9 17.95 M16.1 -12.3 Q15.55 -14.8 14.5 -16.1 12.15 -17.35 5.8 -18.2 L-4.25 -18.9 -12.8 -18.5 Q-15.15 -18.3 -16.15 -15.55 L-16.65 -13.55 -16.9 -12.4 Q-18.5 -9.55 -19.2 -7.35 -20.15 -4.45 -20.15 -1.25 L-19.9 3.35 Q-19.9 8.2 -22.7 14.7 L-24.6 18.8 -25.45 20.9 Q-25.45 22.45 -12.5 23.65 L4.15 24.65 6.35 24.6 Q8.15 17.8 12.95 3.4 16.45 -7.0 16.45 -9.8 L16.1 -12.3 M18.3 3.75 Q17.9 -0.8 17.1 -3.15 L13.55 6.8 Q9.95 17.15 9.7 21.25 L9.7 22.0 Q11.5 20.4 14.1 20.4 L15.2 20.45 16.15 20.7 16.65 20.1 17.45 18.45 Q18.55 15.2 18.55 8.25 L18.3 3.75" fill="#010101" fill-opacity="0.98039216" fill-rule="evenodd" stroke="none"/>
    <path d="M22.65 16.45 L25.4 20.3 26.3 21.8 Q26.3 22.5 25.75 23.25 L24.85 24.2 24.75 23.95 24.5 23.85 Q24.5 21.4 23.7 19.65 22.95 17.95 21.9 17.95 L22.45 17.5 22.65 16.45" fill="#000000" fill-opacity="0.79607844" fill-rule="evenodd" stroke="none"/>
    <path d="M18.2 30.15 Q18.35 31.0 19.35 31.45 L20.7 31.85 Q20.25 33.1 17.85 36.2 15.3 39.4 14.5 39.4 L13.95 39.2 12.15 37.95 Q9.6 36.25 6.35 33.45 L11.8 30.6 13.4 29.4 Q14.35 30.05 16.15 30.1 L17.2 29.95 18.2 29.75 18.2 30.15 M12.35 31.35 L10.8 31.6 Q10.6 32.25 9.85 32.6 L8.55 33.1 Q9.05 34.65 11.0 35.8 L14.5 37.55 16.95 35.3 Q18.85 33.5 19.3 32.35 L16.25 31.65 14.2 31.2 12.35 31.35" fill="#000000" fill-opacity="0.9490196" fill-rule="evenodd" stroke="none"/>
    <path d="M24.85 24.2 Q24.75 25.2 21.95 27.45 L18.2 30.15 18.2 29.75 21.45 26.6 Q23.75 24.05 24.5 23.85 L24.75 23.95 24.85 24.2" fill="#000000" fill-opacity="0.8392157" fill-rule="evenodd" stroke="none"/>
  </g>
</svg>
