<?xml version="1.0" encoding="UTF-8" standalone="no"?>
<svg xmlns:ffdec="https://www.free-decompiler.com/flash" xmlns:xlink="http://www.w3.org/1999/xlink" ffdec:objectType="shape" height="25.7px" width="22.05px" xmlns="http://www.w3.org/2000/svg">
  <g transform="matrix(1.0, 0.0, 0.0, 1.0, 11.0, 12.85)">
    <path d="M1.4 -11.25 L1.4 -6.0 0.7 -5.85 -1.6 -5.8 -10.45 -5.7 -10.45 5.7 -8.2 5.7 -2.75 5.7 1.5 6.0 1.5 7.35 1.7 11.0 1.7 10.9 2.05 10.4 10.25 0.05 9.65 -0.6 1.5 -11.0 1.4 -11.25 M0.95 -8.75 L0.9 -12.85 9.1 -2.5 11.05 0.05 5.6 7.05 1.1 12.85 1.05 12.85 1.05 10.45 0.9 6.3 -11.0 6.3 -11.0 -6.35 0.8 -6.35 0.95 -8.75 M2.15 -7.55 L2.15 -9.1 2.2 -9.1 7.55 -2.3 9.1 -0.3 9.35 0.05 4.1 6.85 2.5 8.8 2.2 9.1 2.25 7.9 2.25 7.0 2.1 5.7 1.8 5.35 1.4 5.05 -9.85 5.05 -9.85 -5.05 0.7 -5.25 1.85 -5.45 2.0 -5.7 2.15 -7.55" fill="#000000" fill-opacity="0.99607843" fill-rule="evenodd" stroke="none"/>
  </g>
</svg>
