<?xml version="1.0" encoding="UTF-8" standalone="no"?>
<svg xmlns:ffdec="https://www.free-decompiler.com/flash" xmlns:xlink="http://www.w3.org/1999/xlink" ffdec:objectType="shape" height="161.95px" width="581.7px" xmlns="http://www.w3.org/2000/svg">
  <g transform="matrix(1.0, 0.0, 0.0, 1.0, 625.6, 7.85)">
    <path d="M-606.35 145.45 L-617.6 96.25 -524.95 42.55" fill="none" stroke="#000000" stroke-linecap="round" stroke-linejoin="round" stroke-width="16.0"/>
    <path d="M-263.7 -3.95 Q-264.35 -3.95 -264.35 -4.6 -264.35 -5.3 -263.55 -5.3 -262.85 -5.3 -262.85 -4.8 -262.85 -3.95 -263.7 -3.95 M-180.6 -6.0 Q-180.6 -4.8 -181.25 -4.8 L-183.25 -6.65 Q-183.25 -7.85 -182.25 -7.85 -180.45 -7.85 -180.6 -6.0 M-159.8 24.0 Q-159.4 24.0 -159.5 24.15 -159.5 24.55 -160.55 24.55 -161.15 24.55 -161.15 24.25 L-159.8 24.0 M-160.4 22.45 Q-159.25 22.45 -159.25 23.55 -159.25 23.85 -159.6 23.85 L-160.4 23.4 -160.95 22.8 Q-160.95 22.45 -160.4 22.45 M-156.35 29.75 Q-156.35 30.05 -156.9 30.05 L-157.45 30.0 -157.5 29.7 Q-157.5 29.3 -156.95 29.45 L-156.45 29.5 -156.35 29.75 M-156.55 26.8 Q-156.1 26.8 -156.1 27.25 -156.1 27.85 -156.4 27.85 L-156.9 27.2 Q-156.9 26.8 -156.55 26.8 M-156.9 88.35 Q-157.55 88.35 -157.55 87.9 L-157.5 87.7 -157.25 87.65 Q-156.85 87.65 -156.65 88.2 L-156.9 88.35 M-155.35 89.5 Q-155.35 90.15 -156.55 90.15 L-156.8 90.1 -156.85 89.8 Q-156.85 88.45 -156.2 88.45 -155.6 88.45 -155.35 89.5 M-154.55 89.95 Q-154.15 89.95 -153.95 90.5 L-154.15 90.65 -154.85 90.25 -154.55 89.95 M-147.45 91.05 Q-147.45 91.5 -147.8 91.5 L-148.05 91.2 Q-148.05 90.9 -147.65 90.9 -147.4 90.9 -147.45 91.05 M-147.3 92.7 Q-147.3 93.25 -147.95 93.25 L-148.1 93.0 Q-148.1 92.35 -147.5 92.35 -147.25 92.35 -147.3 92.7 M-142.5 95.75 L-142.3 96.0 Q-142.3 96.35 -142.8 96.35 -143.2 96.35 -143.2 95.95 -143.2 95.7 -143.0 95.7 L-142.75 95.9 -142.5 95.75 M-146.2 92.85 Q-146.2 92.6 -145.75 92.6 -145.3 92.6 -145.3 92.9 L-145.75 93.2 Q-146.2 93.2 -146.2 92.85 M-142.15 98.7 Q-142.7 98.7 -142.7 97.9 L-142.5 97.45 Q-141.85 97.8 -141.85 98.45 L-142.15 98.7 M-88.65 145.85 Q-87.65 145.85 -87.65 146.9 -87.65 147.85 -89.65 147.85 L-91.1 147.5 -91.15 147.15 Q-91.15 146.75 -89.95 146.25 L-88.65 145.85 M-43.9 142.35 Q-45.05 144.1 -47.9 144.1 -48.55 144.1 -48.85 143.75 L-48.9 143.4 -44.5 141.85 Q-44.15 141.85 -43.9 142.35 M-76.4 153.4 Q-77.1 154.1 -77.5 154.1 -79.4 154.1 -80.35 153.0 L-80.4 152.65 Q-80.4 152.1 -79.0 152.1 -77.35 152.1 -76.4 153.4 M-164.45 17.65 Q-164.25 17.65 -164.2 18.0 -164.2 18.65 -164.8 18.65 L-164.95 18.6 -164.95 17.9 Q-164.8 17.65 -164.45 17.65 M-170.5 12.95 L-170.8 12.65 -170.35 12.4 Q-170.05 12.4 -170.05 12.6 -170.05 12.95 -170.5 12.95 M-168.4 21.85 Q-168.4 21.7 -167.45 21.25 L-166.3 20.8 Q-166.1 20.8 -165.85 21.7 -165.85 22.4 -167.3 22.4 L-168.4 21.85 M-166.0 20.4 Q-166.0 19.5 -165.0 19.5 -164.7 19.5 -164.7 19.95 L-165.9 20.75 -166.0 20.4 M-206.6 51.55 Q-207.15 51.8 -207.25 52.55 -207.3 52.7 -207.55 52.7 L-208.6 51.0 Q-208.6 50.3 -207.0 50.3 -205.8 50.3 -206.1 50.8 -206.1 51.25 -206.6 51.55 M-199.75 61.6 Q-199.75 61.05 -199.2 61.05 -198.7 61.05 -198.7 61.75 -198.7 62.3 -199.1 62.3 L-199.75 61.6 M-167.35 84.1 Q-167.35 83.55 -166.25 83.55 -165.2 83.55 -165.25 84.15 -165.25 84.25 -166.2 84.95 -166.9 84.95 -167.2 84.55 L-167.35 84.1 M-168.15 81.95 Q-168.75 81.95 -168.75 81.5 L-167.7 80.85 -167.4 80.9 -167.35 81.2 Q-167.35 81.95 -168.15 81.95 M-163.1 86.05 Q-162.6 86.05 -162.65 86.65 L-162.9 86.75 -163.45 86.35 -163.1 86.05 M-175.4 79.1 L-174.95 79.05 -174.5 79.1 -174.45 79.3 Q-174.45 79.65 -175.1 79.65 L-175.4 79.6 -175.45 79.35 -175.4 79.1 M-173.65 79.95 L-173.9 79.9 -173.95 79.65 -173.7 79.45 -173.45 79.65 -173.45 79.9 -173.65 79.95 M-254.05 0.8 L-250.85 5.15 Q-250.85 5.95 -251.65 5.95 -252.25 5.95 -253.35 3.55 L-254.35 1.15 -254.3 0.85 -254.05 0.8" fill="#540101" fill-rule="evenodd" stroke="none"/>
  </g>
</svg>
