<?xml version="1.0" encoding="UTF-8" standalone="no"?>
<svg xmlns:ffdec="https://www.free-decompiler.com/flash" xmlns:xlink="http://www.w3.org/1999/xlink" ffdec:objectType="shape" height="27.4px" width="39.65px" xmlns="http://www.w3.org/2000/svg">
  <g transform="matrix(1.0, 0.0, 0.0, 1.0, 23.05, 46.0)">
    <path d="M14.7 -39.25 L14.55 -39.25 Q11.85 -40.65 8.85 -40.85 L8.65 -40.8 Q8.7 -41.8 9.8 -41.8 L10.0 -41.8 Q12.9 -41.05 15.5 -40.0 L15.7 -40.05 Q17.35 -36.65 15.95 -32.7 L15.95 -32.5 Q15.15 -32.0 14.7 -31.1 L14.55 -31.05 Q13.0 -30.1 10.9 -30.5 L10.7 -30.5 8.25 -28.2 8.2 -28.0 Q4.3 -26.45 0.7 -24.55 L0.65 -24.4 -6.15 -23.2 -6.4 -23.2 -6.75 -22.8 Q-7.35 -22.1 -8.15 -21.55 L-8.2 -21.4 -11.4 -20.65 -11.4 -20.75 Q-8.5 -21.85 -6.8 -23.75 L-6.75 -23.75 -6.6 -23.8 -5.4 -23.75 -5.25 -23.7 Q-3.05 -24.5 -0.45 -24.9 L-0.45 -24.8 Q3.75 -26.35 7.55 -28.35 L7.75 -28.45 10.75 -31.35 10.9 -31.4 13.65 -31.6 13.9 -31.65 Q15.85 -33.5 15.5 -37.45 L15.5 -37.7 Q14.85 -38.15 14.7 -39.25 M11.15 -39.15 Q12.95 -39.4 14.2 -37.9 L14.35 -37.9 Q14.9 -35.55 13.8 -33.8 L13.65 -33.7 Q12.4 -32.65 10.25 -32.95 L10.0 -32.9 Q9.05 -31.8 7.5 -31.15 L7.3 -31.1 3.65 -31.3 3.4 -31.3 2.3 -30.0 2.25 -29.8 Q0.6 -28.6 -1.85 -28.1 L-2.05 -28.1 -5.25 -28.25 -5.5 -28.25 -6.75 -27.7 Q-9.45 -26.15 -12.55 -24.8 L-12.75 -24.75 Q-14.05 -24.95 -15.5 -24.35 L-16.2 -23.8 -16.4 -23.7 -17.5 -21.9 -17.55 -21.65 -20.55 -19.1 -20.75 -19.0 Q-22.2 -18.35 -22.95 -18.7 L-23.05 -18.8 Q-20.2 -19.95 -18.0 -22.55 L-17.8 -22.7 Q-16.95 -24.3 -15.5 -25.6 L-15.3 -25.65 Q-10.75 -26.2 -6.75 -28.35 L-5.1 -29.05 -3.0 -29.45 -1.15 -29.5 0.9 -30.3 1.15 -30.4 2.15 -31.8 2.25 -31.85 Q4.65 -33.25 7.75 -32.55 L7.95 -32.55 Q8.7 -33.45 9.8 -34.0 L10.0 -34.05 12.75 -33.95 12.75 -34.1 Q13.55 -35.0 13.65 -36.65 L13.65 -36.85 Q12.6 -38.35 11.05 -39.15 L11.15 -39.15 M-8.9 -45.55 Q-8.15 -45.25 -8.9 -44.7 L-9.15 -44.6 -15.5 -44.9 -18.2 -44.65 -18.25 -44.75 -15.5 -45.8 -13.4 -45.45 Q-11.7 -44.9 -9.9 -45.9 -9.2 -46.25 -8.9 -45.55 M-8.0 -41.3 L-10.45 -41.15 -10.5 -41.3 -11.85 -40.95 -12.1 -40.85 -15.5 -40.7 -15.75 -40.45 Q-16.6 -41.2 -18.7 -39.85 L-18.7 -39.7 -22.05 -39.55 -22.1 -39.65 Q-20.45 -41.0 -19.35 -40.55 -19.25 -40.5 -19.15 -40.65 L-16.85 -41.95 Q-16.75 -41.95 -16.65 -42.05 L-15.5 -42.35 -11.9 -42.15 -11.85 -42.05 -10.5 -42.65 -10.25 -42.7 Q-8.95 -42.35 -8.05 -41.45 L-8.0 -41.3 M-12.1 -36.95 Q-10.9 -36.55 -13.25 -35.55 L-13.45 -35.45 -15.35 -36.05 -15.5 -36.1 -19.15 -33.85 -19.4 -33.65 -22.3 -33.45 -22.35 -33.55 Q-20.7 -34.8 -19.2 -34.6 L-19.15 -34.5 Q-17.15 -35.55 -15.5 -36.75 L-15.3 -36.85 -12.3 -36.9 -12.1 -36.95 M-15.75 -30.45 L-15.5 -30.65 Q-12.4 -31.2 -10.05 -32.1 L-9.95 -32.1 Q-12.05 -30.1 -15.5 -29.85 L-15.75 -29.75 -15.95 -29.6 Q-18.75 -26.55 -21.9 -24.65 L-22.1 -24.65 Q-22.6 -24.5 -22.8 -24.9 L-21.65 -25.35 -21.45 -25.4 -21.2 -25.6 -15.75 -30.45" fill="#000000" fill-opacity="0.49803922" fill-rule="evenodd" stroke="none"/>
  </g>
</svg>
