<?xml version="1.0" encoding="UTF-8" standalone="no"?>
<svg xmlns:ffdec="https://www.free-decompiler.com/flash" xmlns:xlink="http://www.w3.org/1999/xlink" ffdec:objectType="shape" height="28.5px" width="40.05px" xmlns="http://www.w3.org/2000/svg">
  <g transform="matrix(1.0, 0.0, 0.0, 1.0, 23.2, 45.3)">
    <path d="M14.05 -37.6 Q14.75 -35.65 13.9 -33.95 L13.85 -33.75 Q12.15 -32.65 10.2 -31.85 L10.0 -31.8 Q8.2 -32.05 7.4 -31.15 L7.25 -31.1 Q4.45 -31.5 1.8 -30.35 L1.55 -30.3 Q1.15 -29.45 0.4 -28.9 L0.2 -28.8 Q-5.1 -28.3 -8.6 -26.1 L-8.65 -25.95 -11.4 -25.95 -11.6 -25.9 -12.25 -25.6 -13.0 -24.95 Q-13.1 -24.8 -13.2 -24.8 -13.75 -23.55 -14.8 -22.6 L-15.0 -22.5 Q-15.9 -22.0 -17.25 -21.75 L-17.5 -21.6 -17.75 -21.55 Q-20.25 -17.9 -23.15 -16.8 L-23.2 -16.85 Q-20.7 -19.25 -18.7 -21.8 L-18.65 -22.0 -17.25 -23.0 -15.45 -23.5 -15.25 -23.5 Q-14.2 -25.45 -12.25 -26.7 L-8.85 -27.3 -8.65 -27.35 Q-5.3 -29.5 0.0 -29.95 L0.2 -29.95 1.3 -31.25 1.35 -31.45 Q4.2 -32.75 6.85 -32.35 7.45 -32.25 7.7 -32.7 8.65 -33.05 9.75 -32.7 L10.0 -32.7 Q12.05 -33.25 13.2 -34.55 L13.4 -34.6 Q13.35 -37.3 11.4 -37.9 L11.35 -38.05 Q12.6 -38.35 13.85 -37.65 L14.05 -37.6 M11.55 -39.9 Q10.25 -40.15 9.35 -40.9 L9.3 -41.0 Q12.35 -40.75 15.45 -39.4 L15.65 -39.35 Q17.05 -37.9 16.8 -34.7 L16.8 -34.45 15.7 -32.5 15.65 -32.3 7.25 -28.4 7.05 -28.35 5.95 -27.25 5.9 -27.1 Q4.35 -26.55 2.5 -26.35 L2.25 -26.3 Q0.75 -25.15 -1.35 -24.45 L-1.4 -24.35 -6.4 -23.7 -6.6 -23.65 -8.0 -22.65 -8.2 -22.6 -8.2 -22.5 -10.7 -21.9 -10.75 -21.8 Q-11.75 -21.3 -11.85 -22.05 L-11.15 -22.1 -10.9 -22.15 -10.9 -22.35 Q-10.3 -22.7 -9.35 -22.7 L-9.1 -22.75 -9.1 -22.95 Q-7.5 -23.45 -6.2 -24.2 L-6.15 -24.35 -2.75 -24.7 -2.5 -24.7 Q1.3 -26.55 5.65 -27.95 L5.9 -28.0 Q5.95 -28.6 6.55 -28.85 L6.55 -28.95 Q8.15 -29.9 10.2 -30.45 L10.45 -30.5 11.3 -31.55 11.35 -31.7 Q13.35 -32.4 15.0 -33.35 L15.2 -33.4 Q16.55 -35.9 15.25 -38.0 L15.2 -38.15 Q14.15 -38.95 12.5 -39.05 L12.25 -39.05 11.65 -39.75 11.55 -39.9 M-7.95 -44.65 Q-9.4 -44.2 -10.85 -44.95 L-10.9 -45.1 Q-11.45 -44.8 -12.25 -44.65 L-13.2 -44.35 -13.4 -44.25 Q-14.05 -44.35 -14.5 -44.6 L-14.55 -44.75 -17.0 -44.95 -17.05 -45.1 -13.7 -45.0 -13.65 -44.85 -12.25 -45.15 -12.0 -45.05 -11.85 -45.0 Q-10.05 -45.75 -8.15 -44.7 L-7.95 -44.65 M-7.75 -40.8 Q-9.75 -39.7 -11.8 -40.75 L-11.85 -40.9 -12.25 -40.75 Q-13.75 -39.9 -14.75 -40.15 L-14.8 -40.3 Q-15.5 -40.35 -16.6 -39.6 L-16.85 -39.5 -17.25 -39.7 -17.95 -39.35 -17.95 -39.45 -19.8 -38.15 -20.0 -38.05 -22.45 -38.1 -22.5 -38.25 -17.25 -40.9 -15.0 -41.4 -14.8 -41.45 Q-14.55 -41.15 -13.9 -41.2 L-13.85 -41.15 -12.25 -41.85 Q-9.7 -42.1 -7.8 -40.95 L-7.75 -40.8 M-11.4 -36.75 L-11.35 -36.6 -12.25 -36.05 Q-14.0 -34.8 -15.85 -35.0 L-15.9 -35.1 -17.25 -34.4 -18.65 -33.15 -18.85 -32.95 -23.15 -31.8 -23.2 -31.85 Q-20.9 -34.15 -18.95 -33.8 L-18.85 -33.65 -17.25 -35.0 Q-14.75 -36.2 -12.25 -36.8 L-11.4 -36.75 M-12.25 -32.2 L-10.25 -32.3 -10.25 -32.2 Q-10.65 -31.7 -12.2 -31.05 L-12.25 -31.0 -15.25 -29.35 Q-16.3 -28.85 -17.05 -29.0 L-17.25 -28.85 Q-18.3 -27.8 -18.8 -26.6 L-18.85 -26.4 Q-21.4 -24.7 -23.1 -23.9 L-23.2 -24.15 Q-21.45 -25.9 -19.55 -26.8 L-19.3 -26.95 Q-18.65 -28.45 -17.25 -29.75 L-16.8 -30.0 -16.6 -30.05 Q-15.8 -29.45 -14.75 -30.25 L-14.55 -30.45 Q-13.5 -31.6 -12.25 -32.2" fill="#000000" fill-opacity="0.49803922" fill-rule="evenodd" stroke="none"/>
  </g>
</svg>
