<?xml version="1.0" encoding="UTF-8" standalone="no"?>
<svg xmlns:ffdec="https://www.free-decompiler.com/flash" xmlns:xlink="http://www.w3.org/1999/xlink" ffdec:objectType="shape" height="27.55px" width="37.75px" xmlns="http://www.w3.org/2000/svg">
  <g transform="matrix(1.0, 0.0, 0.0, 1.0, 22.0, 45.8)">
    <path d="M13.65 -40.05 L13.85 -40.0 Q14.35 -39.5 14.95 -39.15 L15.1 -39.1 15.6 -37.95 15.75 -37.9 15.75 -36.0 15.75 -35.8 Q14.55 -34.25 13.75 -32.3 L13.65 -32.25 Q11.0 -29.8 7.15 -28.4 L6.95 -28.35 5.5 -27.05 5.45 -26.9 Q2.75 -25.95 -0.4 -25.4 L-0.6 -25.4 Q-2.4 -24.0 -5.0 -24.05 L-5.25 -24.05 Q-7.1 -22.95 -9.4 -22.2 L-9.4 -22.1 -11.7 -22.2 -11.7 -22.3 -10.05 -22.65 -9.85 -22.7 Q-9.55 -23.25 -8.8 -23.5 L-8.8 -23.65 -7.1 -23.85 -6.9 -23.85 -5.25 -24.75 -5.25 -24.85 -2.9 -24.95 -2.7 -24.95 Q-1.2 -26.05 0.85 -26.0 L1.05 -26.0 Q2.55 -27.2 4.85 -27.7 L5.05 -27.7 Q6.55 -29.55 9.45 -30.05 L9.65 -30.15 Q10.8 -31.7 13.0 -32.45 L13.0 -32.6 13.6 -34.15 13.65 -34.35 Q14.75 -34.6 14.8 -35.9 L14.9 -35.95 Q15.0 -38.3 13.7 -39.05 L13.65 -39.15 Q11.3 -39.9 9.05 -40.8 L9.0 -40.95 Q10.85 -41.25 12.3 -40.2 L12.4 -40.05 13.65 -40.05 M11.55 -38.3 Q13.35 -38.4 13.8 -37.05 L13.85 -36.85 Q14.0 -34.55 12.4 -33.7 L12.4 -33.55 9.85 -32.9 9.65 -32.85 8.05 -31.35 8.0 -31.2 5.45 -31.05 5.25 -31.1 Q2.0 -29.5 -1.9 -28.65 L-4.6 -28.55 -7.3 -26.9 -7.3 -26.75 -11.1 -26.3 -11.3 -26.3 -11.75 -25.85 Q-13.1 -24.3 -14.85 -23.0 L-14.85 -22.85 -16.0 -22.4 Q-16.85 -21.95 -17.4 -21.85 L-17.6 -21.75 Q-19.15 -19.35 -21.55 -18.25 L-21.55 -18.35 Q-20.85 -19.7 -19.25 -20.85 L-19.05 -20.95 -18.0 -22.45 -17.8 -22.65 -16.0 -23.6 -15.5 -23.65 -15.3 -23.7 -11.75 -27.15 -11.35 -27.4 -11.3 -27.55 -7.95 -27.9 -7.75 -27.95 Q-6.35 -29.0 -4.6 -29.75 L-4.4 -29.8 Q0.7 -29.6 4.85 -32.05 L5.05 -32.1 6.95 -31.95 7.15 -31.95 Q8.2 -33.15 9.8 -34.0 L9.85 -34.1 Q12.15 -33.95 12.7 -35.45 L12.8 -35.5 Q12.7 -37.5 11.3 -38.1 11.2 -38.2 11.55 -38.3 M-10.05 -39.65 L-11.5 -39.65 -11.75 -39.9 -12.75 -40.2 -12.75 -40.3 Q-14.3 -40.15 -15.9 -39.2 L-16.0 -39.15 -16.1 -39.1 Q-17.85 -38.7 -19.9 -37.5 -20.8 -37.05 -20.95 -37.85 -18.55 -39.45 -16.0 -40.35 L-15.95 -40.35 -15.9 -40.2 Q-13.35 -41.7 -11.75 -41.1 L-11.35 -40.85 -11.3 -40.75 -6.9 -40.6 -6.7 -40.65 Q-7.6 -39.5 -10.05 -39.65 M-9.8 -44.55 L-9.85 -44.7 -11.75 -44.9 -13.4 -44.7 -13.6 -44.65 -15.25 -45.6 -15.3 -45.7 -11.75 -45.7 -10.8 -45.4 -10.25 -45.5 Q-8.8 -44.7 -7.15 -44.05 L-7.1 -43.95 Q-8.3 -43.35 -9.8 -44.55 M-10.55 -36.0 L-10.65 -36.0 -11.75 -35.85 -13.65 -35.95 -13.8 -36.0 -16.0 -34.4 -17.8 -32.7 -18.0 -32.55 -20.5 -32.6 -20.5 -32.7 Q-18.75 -34.45 -17.65 -34.0 L-17.15 -34.2 -16.0 -35.5 Q-14.85 -36.35 -13.4 -36.95 L-13.2 -37.05 -11.75 -37.0 -10.55 -36.0 M-11.75 -31.3 Q-13.35 -29.55 -15.45 -29.6 L-15.5 -29.7 -16.0 -29.35 -17.15 -28.65 -17.15 -28.5 Q-18.85 -25.35 -21.6 -24.35 -22.1 -24.15 -22.0 -24.95 -21.0 -25.65 -20.3 -25.8 L-20.1 -25.9 Q-18.3 -27.3 -17.5 -29.1 L-17.4 -29.2 -16.0 -30.2 -14.45 -30.35 -14.25 -30.35 -11.75 -32.35 -9.85 -32.75 -9.65 -32.75 Q-9.15 -31.7 -11.1 -31.75 L-11.3 -31.75 -11.75 -31.3" fill="#000000" fill-opacity="0.49803922" fill-rule="evenodd" stroke="none"/>
  </g>
</svg>
