<?xml version="1.0" encoding="UTF-8" standalone="no"?>
<svg xmlns:ffdec="https://www.free-decompiler.com/flash" xmlns:xlink="http://www.w3.org/1999/xlink" ffdec:objectType="shape" height="16.5px" width="25.3px" xmlns="http://www.w3.org/2000/svg">
  <g transform="matrix(1.0, 0.0, 0.0, 1.0, 14.7, 48.8)">
    <path d="M7.6 -36.0 L7.35 -35.9 Q6.2 -35.25 4.5 -34.85 L4.3 -34.8 2.45 -34.3 2.25 -34.25 Q-3.45 -32.85 -8.6 -32.3 L-8.55 -32.55 -8.75 -37.85 -9.0 -38.35 Q-10.05 -41.85 -11.6 -44.85 L-11.7 -44.95 Q-13.7 -45.55 -14.7 -48.05 L-14.5 -48.1 Q-11.7 -46.6 -8.4 -46.05 -3.5 -45.1 0.55 -42.4 2.45 -41.05 4.1 -39.4 L7.6 -36.0" fill="#000000" fill-opacity="0.9882353" fill-rule="evenodd" stroke="none"/>
    <path d="M-14.5 -48.1 Q-13.35 -49.05 -11.5 -48.7 -10.75 -48.45 -9.95 -48.7 1.55 -45.55 10.55 -37.45 L10.6 -37.3 Q9.8 -36.25 7.8 -36.05 L7.6 -36.0 4.1 -39.4 Q2.45 -41.05 0.55 -42.4 -3.5 -45.1 -8.4 -46.05 -11.7 -46.6 -14.5 -48.1" fill="#626262" fill-opacity="0.9764706" fill-rule="evenodd" stroke="none"/>
  </g>
</svg>
