<?xml version="1.0" encoding="UTF-8" standalone="no"?>
<svg xmlns:ffdec="https://www.free-decompiler.com/flash" xmlns:xlink="http://www.w3.org/1999/xlink" ffdec:objectType="shape" height="19.5px" width="28.85px" xmlns="http://www.w3.org/2000/svg">
  <g transform="matrix(1.0, 0.0, 0.0, 1.0, 16.8, 50.45)">
    <path d="M8.5 -37.5 Q6.5 -40.3 4.0 -42.1 -2.5 -46.9 -11.25 -48.45 L-13.9 -48.5 Q-8.65 -43.75 -8.0 -34.35 -7.8 -32.35 -8.6 -31.2 L-8.9 -30.95 Q-10.1 -33.05 -10.1 -36.1 -10.25 -38.6 -11.0 -40.4 -13.1 -45.75 -16.6 -49.05 L-16.8 -49.45 Q-12.65 -51.1 -8.4 -50.0 1.4 -47.6 8.55 -40.9 11.1 -38.55 12.05 -35.4 10.05 -35.3 8.5 -37.5" fill="#000000" fill-opacity="0.93333334" fill-rule="evenodd" stroke="none"/>
  </g>
</svg>
