<?xml version="1.0" encoding="UTF-8" standalone="no"?>
<svg xmlns:ffdec="https://www.free-decompiler.com/flash" xmlns:xlink="http://www.w3.org/1999/xlink" ffdec:objectType="shape" height="44.45px" width="53.95px" xmlns="http://www.w3.org/2000/svg">
  <g transform="matrix(1.0, 0.0, 0.0, 1.0, 27.35, 23.25)">
    <path d="M9.3 -10.9 L12.35 -9.4 13.6 -7.7 Q14.1 -6.6 14.25 -5.35 14.1 -3.2 14.9 -2.85 L15.9 -2.55 17.4 -2.1 Q19.2 -1.35 19.7 0.8 L20.1 2.3 Q20.45 3.0 21.2 3.25 23.45 4.0 25.15 6.55 26.6 8.75 26.6 10.25 26.6 16.1 18.1 19.0 11.65 21.2 2.8 21.2 -10.7 21.2 -19.25 16.9 -23.15 14.95 -25.25 12.4 -27.35 9.9 -27.35 7.15 -27.35 4.25 -24.2 2.35 L-21.95 1.3 -20.8 0.75 -20.45 -0.35 -20.25 -1.7 Q-20.3 -2.85 -19.25 -3.45 -18.4 -4.0 -17.05 -4.0 L-17.45 -7.15 Q-17.45 -9.0 -16.8 -10.25 -16.05 -11.75 -14.6 -11.75 L-11.4 -11.3 -9.4 -10.95 -7.6 -11.05 -6.05 -11.25 Q-7.75 -12.5 -8.6 -14.85 -9.35 -16.9 -9.35 -19.4 L-9.1 -21.8 Q-8.7 -22.8 -7.25 -23.25 -6.45 -21.5 -5.75 -19.25 L-5.05 -16.65 9.3 -10.9" fill="#976230" fill-opacity="0.99607843" fill-rule="evenodd" stroke="none"/>
  </g>
</svg>
