<?xml version="1.0" encoding="UTF-8" standalone="no"?>
<svg xmlns:ffdec="https://www.free-decompiler.com/flash" xmlns:xlink="http://www.w3.org/1999/xlink" ffdec:objectType="shape" height="81.75px" width="34.0px" xmlns="http://www.w3.org/2000/svg">
  <g transform="matrix(1.0, 0.0, 0.0, 1.0, 14.65, 44.55)">
    <path d="M6.2 -26.9 Q9.4 -23.9 13.0 -21.0 L16.7 -18.3 Q17.45 -17.7 17.45 -17.15 17.45 -12.9 13.2 -6.4 11.05 -3.15 8.65 -0.5 3.75 4.25 0.65 6.55 -0.85 7.65 -1.45 7.85 -1.45 9.95 8.95 15.3 14.15 18.0 19.35 20.35 19.35 27.95 11.95 32.9 5.55 37.2 -1.55 37.2 L-8.05 36.85 Q-7.3 35.1 -1.9 28.95 L3.1 22.8 Q3.1 22.65 -14.65 11.85 L-14.65 3.85 Q-14.65 2.1 -6.15 -5.5 2.35 -13.1 2.35 -13.9 2.35 -15.15 -5.4 -21.95 -12.4 -28.15 -12.75 -31.15 -12.75 -37.2 -3.15 -41.55 5.65 -45.6 10.45 -44.15 L10.65 -40.3 Q10.65 -39.7 2.35 -31.15 2.35 -30.45 6.2 -26.9" fill="#000000" fill-opacity="0.93333334" fill-rule="evenodd" stroke="none"/>
  </g>
</svg>
