<?xml version="1.0" encoding="UTF-8" standalone="no"?>
<svg xmlns:ffdec="https://www.free-decompiler.com/flash" xmlns:xlink="http://www.w3.org/1999/xlink" ffdec:objectType="shape" height="89.0px" width="23.5px" xmlns="http://www.w3.org/2000/svg">
  <g transform="matrix(1.0, 0.0, 0.0, 1.0, 9.1, 46.65)">
    <path d="M9.05 -26.75 Q13.9 -19.65 14.3 -19.65 L14.3 -10.65 Q8.55 -5.45 5.8 -1.85 2.6 2.3 2.6 5.35 2.6 7.9 8.55 15.3 14.4 22.65 14.4 24.4 14.4 32.8 7.95 37.35 3.35 40.55 -5.75 42.35 L-6.2 38.5 Q-6.2 36.5 -2.6 33.15 0.95 29.75 0.95 27.35 0.95 25.2 -3.95 19.05 L-9.1 12.35 -9.1 -0.65 -3.95 -7.15 Q0.95 -13.1 0.95 -13.65 L-9.1 -37.65 Q-9.1 -40.05 -4.25 -43.25 0.95 -46.65 5.95 -46.65 7.05 -46.65 8.15 -44.65 8.95 -42.95 8.95 -41.9 8.95 -41.25 6.6 -38.3 4.3 -35.35 4.3 -34.65 4.3 -33.9 9.05 -26.75" fill="#000000" fill-opacity="0.93333334" fill-rule="evenodd" stroke="none"/>
  </g>
</svg>
