<?xml version="1.0" encoding="UTF-8" standalone="no"?>
<svg xmlns:ffdec="https://www.free-decompiler.com/flash" xmlns:xlink="http://www.w3.org/1999/xlink" ffdec:objectType="shape" height="87.95px" width="29.3px" xmlns="http://www.w3.org/2000/svg">
  <g transform="matrix(1.0, 0.0, 0.0, 1.0, 13.65, 46.4)">
    <path d="M10.95 -46.4 Q12.35 -43.65 12.35 -41.7 12.35 -40.85 8.6 -37.45 4.8 -34.1 4.8 -32.4 4.8 -26.75 8.9 -19.1 L13.0 -11.4 Q13.0 -8.25 6.85 1.95 0.7 12.15 0.7 13.6 0.7 14.6 8.15 20.65 15.65 26.7 15.65 29.25 15.65 33.2 12.8 36.9 9.2 41.55 3.15 41.55 1.4 41.55 -1.55 40.65 -5.45 39.4 -5.45 37.6 -5.45 36.5 -2.7 34.0 0.1 31.45 0.1 30.85 0.1 30.05 -0.35 28.65 -0.85 27.2 -1.35 26.6 -2.2 25.55 -7.8 22.05 -12.75 19.0 -13.65 16.6 L-13.65 5.6 Q-13.65 2.6 -9.05 -2.65 L-3.4 -8.4 Q-3.4 -9.0 -5.85 -14.5 L-8.45 -19.9 Q-11.6 -31.0 -11.6 -33.4 -11.6 -37.0 -2.5 -41.7 5.8 -45.95 10.95 -46.4" fill="#000000" fill-opacity="0.92941177" fill-rule="evenodd" stroke="none"/>
  </g>
</svg>
