<?xml version="1.0" encoding="UTF-8" standalone="no"?>
<svg xmlns:ffdec="https://www.free-decompiler.com/flash" xmlns:xlink="http://www.w3.org/1999/xlink" ffdec:objectType="shape" height="89.0px" width="25.05px" xmlns="http://www.w3.org/2000/svg">
  <g transform="matrix(1.0, 0.0, 0.0, 1.0, 9.9, 46.65)">
    <path d="M9.45 -26.75 Q14.6 -19.65 15.05 -19.65 L15.05 -10.65 Q8.9 -5.45 5.95 -1.85 2.6 2.3 2.6 5.35 2.6 7.9 8.9 15.3 15.15 22.65 15.15 24.4 15.15 32.8 8.25 37.35 3.4 40.55 -6.3 42.35 L-6.75 38.5 Q-6.75 36.5 -2.95 33.15 0.8 29.75 0.8 27.35 0.8 25.2 -4.35 19.05 L-9.9 12.35 -9.9 -0.65 -4.35 -7.15 Q0.8 -13.1 0.8 -13.65 L-9.9 -37.65 Q-9.9 -40.05 -4.7 -43.25 0.8 -46.65 6.15 -46.65 7.3 -46.65 8.45 -44.65 9.35 -42.95 9.35 -41.9 9.35 -41.25 6.85 -38.3 4.35 -35.35 4.35 -34.65 4.35 -33.9 9.45 -26.75" fill="#000000" fill-opacity="0.92941177" fill-rule="evenodd" stroke="none"/>
  </g>
</svg>
