<?xml version="1.0" encoding="UTF-8" standalone="no"?>
<svg xmlns:ffdec="https://www.free-decompiler.com/flash" xmlns:xlink="http://www.w3.org/1999/xlink" ffdec:objectType="shape" height="125.25px" width="204.7px" xmlns="http://www.w3.org/2000/svg">
  <g transform="matrix(1.0, 0.0, 0.0, 1.0, 105.05, 40.35)">
    <path d="M9.95 -30.1 L10.95 -30.1 10.95 -31.1 10.95 -32.1 Q13.95 -45.35 20.3 -37.35 26.55 -29.55 21.95 -20.1 15.75 -15.5 11.2 -21.3 10.95 -21.6 10.95 -22.1 L10.45 -22.15 Q9.95 -26.1 9.95 -30.1 M40.95 -21.1 Q50.65 -22.85 44.8 -16.1 43.95 -15.1 42.45 -15.95 40.5 -17.15 40.95 -21.1 M91.95 35.9 Q102.5 31.25 98.55 43.45 97.9 45.35 94.45 43.8 91.05 42.3 91.95 35.9 M51.95 17.9 L51.95 16.9 Q64.55 14.35 59.7 27.45 58.7 30.1 55.95 27.9 51.65 25.2 51.95 17.9 M4.95 34.9 Q16.4 34.25 8.9 41.9 7.25 43.6 6.25 42.6 3.95 40.4 4.95 34.9 M3.95 74.9 Q2.45 83.65 -6.1 81.05 L-7.05 80.9 Q-11.4 79.75 -11.1 73.9 L-11.05 72.9 Q-2.25 56.2 3.8 73.95 L3.95 74.9 M36.05 50.25 Q34.95 48.4 34.95 45.9 44.9 40.05 39.45 50.05 37.75 53.15 36.05 50.25 M53.95 83.9 L53.8 84.45 Q48.25 86.1 47.95 81.9 L47.95 80.9 47.95 77.9 Q55.95 66.9 57.35 80.05 57.45 80.9 56.05 82.0 L53.95 83.9 M-68.15 -31.1 L-68.05 -32.1 Q-56.2 -38.6 -56.95 -24.15 -57.05 -21.6 -61.05 -21.6 -61.55 -21.6 -62.05 -21.1 -70.2 -20.95 -68.15 -31.1 M-32.05 -25.1 Q-23.4 -30.55 -29.2 -19.75 L-30.55 -19.8 Q-32.5 -21.15 -32.05 -25.1 M-26.0 36.6 Q-29.55 35.9 -29.05 30.9 -20.6 26.5 -24.35 36.4 -24.55 36.9 -26.0 36.6 M-16.05 10.9 Q-5.5 6.15 -11.1 15.25 -12.85 18.15 -14.9 15.1 -16.05 13.4 -16.05 10.9 M-70.05 17.9 Q-61.1 10.9 -63.9 21.65 -66.05 29.8 -69.35 21.6 -70.05 19.9 -70.05 17.9 M-43.05 68.9 Q-32.05 64.4 -38.5 75.0 -39.05 75.9 -40.9 75.35 -44.05 74.4 -43.05 68.9 M-92.6 33.9 Q-92.55 35.9 -93.05 37.9 -104.1 39.45 -105.0 30.9 L-105.05 29.9 Q-92.95 21.35 -92.6 33.9 M-83.05 32.9 Q-72.15 37.7 -81.95 37.2 -83.75 37.1 -83.05 32.9" fill="#000000" fill-opacity="0.92941177" fill-rule="evenodd" stroke="none"/>
  </g>
</svg>
