<?xml version="1.0" encoding="UTF-8" standalone="no"?>
<svg xmlns:ffdec="https://www.free-decompiler.com/flash" xmlns:xlink="http://www.w3.org/1999/xlink" ffdec:objectType="shape" height="46.05px" width="55.65px" xmlns="http://www.w3.org/2000/svg">
  <g transform="matrix(1.0, 0.0, 0.0, 1.0, 28.1, 23.45)">
    <path d="M11.95 -10.45 L13.7 -8.4 14.2 -7.0 14.55 -5.4 Q15.05 -3.55 16.35 -3.2 17.65 -2.85 19.35 -0.2 L20.6 1.7 21.75 2.85 Q23.75 3.9 25.8 7.25 27.45 9.95 27.55 10.85 L27.55 12.3 Q26.6 18.35 15.3 20.9 15.2 21.7 12.45 22.1 L7.45 22.35 7.45 22.6 1.4 22.6 Q-5.35 22.6 -12.3 20.4 -17.7 18.75 -22.3 16.1 -25.55 14.25 -26.9 11.5 -28.1 9.2 -28.1 5.95 -28.1 5.1 -25.75 3.0 -23.25 0.75 -21.45 0.8 -21.55 -1.3 -20.4 -2.8 -19.35 -4.15 -18.05 -4.35 -18.8 -7.65 -17.25 -10.1 L-15.9 -11.65 -14.6 -12.2 -10.65 -11.7 -6.75 -11.2 Q-9.05 -14.05 -9.6 -15.3 -10.2 -16.6 -10.2 -18.8 -10.2 -20.5 -9.2 -22.0 -8.3 -23.45 -7.25 -23.45 -6.7 -23.45 -6.3 -22.35 -5.9 -21.4 -5.9 -20.4 L-5.65 -18.2 Q-5.3 -17.2 -4.0 -16.45 -1.55 -14.95 8.9 -12.25 10.4 -11.85 11.95 -10.45 M9.5 -3.6 Q9.2 -4.2 9.15 -5.05 L10.55 -4.0 10.95 -3.75 11.2 -4.0 11.55 -4.9 11.6 -4.15 Q11.6 -3.6 11.15 -3.25 10.75 -2.95 10.35 -2.95 9.8 -2.95 9.5 -3.6 M5.35 -8.6 Q6.25 -7.8 6.25 -6.95 6.25 -5.15 5.45 -4.35 4.85 -3.8 3.7 -3.8 3.0 -3.8 2.6 -4.3 2.2 -4.75 2.05 -5.55 L2.3 -5.3 3.25 -4.65 3.9 -4.45 Q4.35 -4.45 4.9 -4.9 5.5 -5.35 5.5 -5.8 5.5 -7.0 4.7 -8.6 L3.75 -10.2 3.95 -10.1 Q4.2 -9.55 5.35 -8.6 M17.25 -1.15 Q16.1 -1.7 15.3 -2.15 13.6 0.5 11.65 1.4 9.2 2.6 4.15 2.6 L-1.4 1.8 -0.55 1.2 0.05 1.0 1.75 1.2 3.9 1.3 10.1 0.45 Q13.9 -0.75 13.9 -3.2 13.9 -6.85 11.95 -8.8 9.5 -11.2 3.05 -12.55 -5.4 -14.3 -6.6 -17.8 -6.9 -18.55 -6.9 -20.35 -6.9 -21.7 -7.5 -22.25 L-8.05 -22.05 -8.45 -21.7 Q-8.75 -21.05 -8.75 -18.4 -8.75 -15.25 -7.25 -13.25 -5.95 -11.5 -4.05 -11.5 L-2.65 -11.35 Q-1.5 -11.15 -1.15 -10.85 L-2.2 -10.65 -4.55 -10.3 -7.9 -10.1 -9.0 -10.15 -11.15 -10.35 -14.35 -10.95 Q-15.6 -10.95 -16.35 -9.75 -16.95 -8.7 -16.95 -7.3 -16.95 -6.5 -16.6 -5.95 L-15.95 -5.5 Q-15.35 -5.5 -14.65 -6.2 -14.0 -6.9 -13.9 -7.5 L-13.55 -6.85 -13.55 -6.2 Q-13.55 -4.5 -15.45 -4.1 -14.25 -0.7 -12.25 -0.7 L-11.5 -0.5 Q-11.1 -0.25 -11.15 0.25 L-11.15 0.8 Q-14.6 0.8 -16.3 -1.05 -17.15 -1.95 -17.3 -2.85 -18.55 -2.85 -19.3 -1.65 -19.9 -0.6 -19.9 0.7 -19.9 2.0 -19.2 3.55 L-18.35 4.85 Q-18.1 4.85 -17.8 4.45 L-17.3 3.5 -16.75 3.7 -17.1 4.75 -17.35 5.4 -17.1 5.8 -16.55 5.95 -16.35 5.7 -15.6 5.15 -15.55 5.15 -15.5 5.3 -15.9 6.25 -16.2 7.5 Q-16.2 8.5 -13.35 10.0 -8.35 12.65 -6.55 13.9 -12.6 13.0 -16.75 9.4 -20.2 6.4 -21.7 2.3 -24.65 3.8 -25.8 4.9 -26.9 5.95 -26.9 7.25 L-26.9 8.1 -26.8 8.2 -26.7 8.35 -26.6 8.4 Q-26.55 7.1 -26.1 6.5 -25.6 5.9 -24.7 5.9 -24.15 5.9 -23.7 6.4 L-24.7 6.75 Q-25.55 7.1 -25.55 7.7 -25.55 8.5 -24.85 9.0 L-23.3 8.75 -22.85 8.8 -22.8 8.85 -22.8 9.05 -23.2 9.8 Q-23.8 10.45 -24.5 10.45 L-25.45 10.15 -26.5 9.0 Q-26.65 10.8 -24.55 12.9 -22.55 14.9 -19.0 16.7 -15.5 18.5 -11.4 19.55 -7.05 20.65 -3.1 20.65 L-2.65 20.35 -2.75 20.1 -3.2 19.55 -3.35 19.45 -3.2 19.2 -2.35 19.65 -1.2 19.9 Q-0.25 19.9 0.1 19.45 L0.25 18.95 0.1 17.5 -0.1 16.45 -0.05 15.85 0.1 15.25 Q1.5 16.5 1.5 18.35 L1.25 19.5 Q0.85 20.5 0.1 20.65 L-0.3 20.65 4.95 21.1 Q9.9 21.1 12.1 20.15 13.45 19.6 13.45 18.95 L12.85 17.7 14.0 17.25 Q14.8 17.25 14.55 19.2 L14.7 19.25 15.0 19.3 Q16.45 19.3 19.7 17.85 L23.35 16.0 Q24.8 14.9 25.5 13.3 26.1 12.0 26.1 10.45 26.1 9.65 24.8 7.75 23.25 5.5 21.15 4.0 L21.05 4.0 Q20.95 6.0 19.75 8.3 18.5 10.65 17.1 11.35 18.3 9.0 18.75 7.05 19.15 5.3 19.15 2.75 19.15 0.35 18.45 -0.4 L17.25 -1.15 M-21.15 8.2 Q-20.95 7.9 -20.75 7.9 L-20.35 8.2 -20.15 8.9 -20.35 9.6 -20.75 9.9 -21.15 9.6 -21.3 8.9 -21.15 8.2 M-10.6 19.1 L-11.2 17.45 Q-10.45 17.7 -9.85 18.15 L-9.4 18.55 -9.15 18.1 -8.85 17.15 -8.8 17.15 -8.55 17.4 -8.5 18.2 -9.15 19.05 -9.9 19.5 Q-10.3 19.5 -10.6 19.1 M-6.85 7.5 L-6.8 8.05 -6.7 8.75 -6.1 9.4 -6.2 9.45 -6.5 9.5 Q-7.25 9.5 -7.6 9.2 -8.0 8.85 -8.0 7.9 L-7.65 7.45 -7.15 7.35 Q-6.95 7.35 -6.85 7.5 M-3.85 1.9 L-3.4 1.75 -3.25 1.8 -3.3 1.8 -3.6 2.25 -4.1 2.75 Q-4.1 4.05 -4.3 4.35 L-4.4 4.3 -4.7 3.7 -5.05 2.75 -4.55 2.5 -3.85 1.9 M-8.7 -6.25 L-8.05 -6.85 Q-7.7 -6.45 -7.65 -5.6 L-7.5 -4.6 -7.0 -5.3 -6.6 -5.2 -6.4 -5.1 -6.4 -5.05 Q-7.4 -4.1 -8.0 -4.1 -8.4 -4.1 -8.65 -4.45 -9.0 -4.85 -9.0 -5.55 L-8.7 -6.25 M1.6 11.05 L1.5 11.05 0.75 10.45 Q0.3 9.85 0.3 9.05 0.3 8.4 0.65 8.4 1.05 8.45 1.35 9.4 L1.65 10.85 1.6 11.05 M10.4 11.2 L10.55 11.6 10.35 12.5 Q9.95 13.35 9.05 13.35 L8.4 12.95 7.95 12.3 9.6 12.15 Q10.35 11.6 10.15 10.6 L10.4 11.2 M11.75 5.9 Q11.5 5.15 11.65 4.65 11.85 4.1 12.45 4.1 12.7 4.1 12.85 4.6 L13.2 6.4 Q13.3 6.8 13.85 7.05 L14.55 7.4 Q14.4 7.5 14.3 7.55 L14.25 7.6 13.6 7.65 Q13.0 7.65 12.45 7.1 11.95 6.6 11.75 5.9 M21.8 9.0 Q21.95 8.7 22.3 8.7 22.65 8.7 22.85 9.8 23.05 10.85 23.3 10.85 L24.05 10.45 24.6 9.85 24.7 10.15 24.75 10.6 Q24.8 11.85 22.95 11.85 21.65 11.85 21.65 10.0 21.65 9.3 21.8 9.0" fill="#000000" fill-rule="evenodd" stroke="none"/>
  </g>
</svg>
