<?xml version="1.0" encoding="UTF-8" standalone="no"?>
<svg xmlns:ffdec="https://www.free-decompiler.com/flash" xmlns:xlink="http://www.w3.org/1999/xlink" ffdec:objectType="shape" height="167.95px" width="520.05px" xmlns="http://www.w3.org/2000/svg">
  <g transform="matrix(1.0, 0.0, 0.0, 1.0, 595.95, 6.85)">
    <path d="M-579.5 143.1 L-587.95 95.45 -497.15 42.55" fill="none" stroke="#000000" stroke-linecap="round" stroke-linejoin="round" stroke-width="16.0"/>
    <path d="M-180.35 -5.85 Q-180.35 -4.55 -181.1 -4.55 -181.65 -4.55 -182.25 -5.35 L-182.75 -6.4 Q-182.35 -6.85 -181.6 -6.85 -179.95 -6.85 -180.35 -5.85 M-160.7 24.6 L-160.75 24.35 -160.6 24.3 -159.7 24.3 -159.6 24.4 -160.3 24.65 -160.7 24.6 M-160.2 22.65 Q-159.35 22.65 -159.35 23.3 -159.35 23.85 -159.75 23.85 L-160.55 23.0 Q-160.55 22.65 -160.2 22.65 M-156.65 30.35 L-157.0 30.45 -157.3 30.3 -157.35 30.1 Q-157.35 29.8 -157.0 29.8 L-156.7 29.85 -156.6 30.1 -156.65 30.35 M-156.7 27.4 L-156.4 27.1 Q-156.2 27.1 -156.05 27.45 L-156.35 27.85 -156.7 27.4 M-155.55 89.5 Q-155.55 89.95 -156.0 89.95 -156.55 89.95 -156.55 89.5 -156.55 89.2 -156.05 89.15 L-155.6 89.2 -155.55 89.5 M-156.85 88.6 L-157.05 88.65 -157.3 88.6 -157.35 88.35 -157.1 88.15 -156.85 88.35 -156.85 88.6 M-154.55 90.65 L-154.3 90.45 -154.05 90.65 -154.05 90.9 -154.25 90.95 -154.5 90.9 -154.55 90.65 M-147.45 91.35 L-147.7 91.65 -147.9 91.4 -147.7 91.15 Q-147.45 91.15 -147.45 91.35 M-147.8 93.35 L-148.0 93.05 Q-148.0 92.7 -147.65 92.7 -147.3 92.7 -147.35 93.1 L-147.8 93.35 M-145.8 92.85 Q-145.45 92.85 -145.45 93.05 L-145.8 93.3 -146.05 93.1 -145.8 92.85 M-143.0 96.05 L-142.85 95.9 -142.35 96.15 -142.6 96.3 -142.95 96.25 -143.0 96.05 M-142.05 98.4 L-142.25 98.45 -142.45 98.4 -142.55 98.05 -142.55 97.75 -142.4 97.75 Q-142.0 97.75 -142.0 98.25 L-142.05 98.4 M-89.65 152.1 L-90.15 152.0 -90.4 151.4 -88.75 150.1 -88.15 150.65 Q-88.15 151.6 -89.65 152.1 M-78.9 160.5 L-79.15 159.8 Q-79.15 159.1 -78.25 159.1 -77.65 159.1 -76.75 159.6 -75.9 160.15 -75.9 160.5 -75.9 161.1 -76.0 160.85 L-76.65 161.1 Q-78.3 161.1 -78.9 160.5 M-170.5 13.0 L-170.6 12.8 -170.55 12.6 -170.25 12.6 -170.2 12.75 -170.5 13.0 M-167.2 21.45 L-166.5 21.15 Q-166.25 21.15 -166.2 21.75 -166.2 22.25 -167.05 22.25 -167.75 22.25 -167.75 21.9 L-167.2 21.45 M-207.25 50.55 L-206.75 50.6 -206.7 51.0 Q-206.7 51.5 -207.45 51.8 -207.85 51.45 -207.85 51.1 L-207.8 50.75 Q-207.7 50.45 -207.25 50.55 M-165.55 84.45 Q-165.55 84.85 -166.25 85.05 L-166.75 84.5 Q-166.75 84.05 -166.2 84.05 -165.55 84.05 -165.55 84.45 M-167.9 82.05 L-168.45 81.8 Q-168.25 81.25 -167.7 81.25 L-167.45 81.6 Q-167.45 82.05 -167.9 82.05 M-174.95 79.7 L-175.05 79.45 -174.75 79.25 -174.5 79.3 -174.45 79.6 -174.7 79.75 -174.95 79.7 M-253.05 2.55 Q-252.2 2.55 -251.5 4.85 L-251.6 5.35 -251.8 5.45 -253.35 3.1 -253.35 2.65 -253.05 2.55" fill="#540101" fill-rule="evenodd" stroke="none"/>
  </g>
</svg>
