<?xml version="1.0" encoding="UTF-8" standalone="no"?>
<svg xmlns:ffdec="https://www.free-decompiler.com/flash" xmlns:xlink="http://www.w3.org/1999/xlink" ffdec:objectType="shape" height="18.5px" width="85.4px" xmlns="http://www.w3.org/2000/svg">
  <g transform="matrix(1.0, 0.0, 0.0, 1.0, 42.7, 9.25)">
    <path d="M3.4 -6.9 L2.65 -6.7 -10.35 -8.6 -10.25 -8.9 -10.25 -8.95 -8.5 -8.75 -4.5 -8.1 3.4 -6.9 M9.95 -5.95 L35.5 -2.1 41.6 -1.15 42.7 -1.0 42.2 -0.8 9.35 -5.75 9.95 -5.95" fill="#8283a2" fill-rule="evenodd" stroke="none"/>
    <path d="M2.65 -6.7 L3.4 -6.9 3.85 -6.65 1.35 -5.85 -0.25 -5.8 -0.3 -5.8 0.6 -6.05 2.65 -6.7" fill="#b5b7bd" fill-rule="evenodd" stroke="none"/>
    <path d="M-0.25 -5.8 L1.35 -5.85 5.0 -5.3 4.7 -5.05 -0.25 -5.8" fill="#cbccd1" fill-rule="evenodd" stroke="none"/>
    <path d="M4.7 -5.05 L5.0 -5.3 6.8 -5.3 7.6 -5.2 4.7 -5.05" fill="#ebeced" fill-rule="evenodd" stroke="none"/>
    <path d="M1.35 -5.85 L3.85 -6.65 8.7 -5.9 6.8 -5.3 5.0 -5.3 1.35 -5.85 M5.1 -3.65 L6.15 -3.55 29.25 -0.1 27.5 -0.3 5.1 -3.65 M6.6 -4.05 L5.5 -4.15 -5.85 -5.85 -5.85 -5.9 -5.9 -5.9 -6.35 -6.0 -6.4 -6.0 -7.8 -5.95 -19.9 -7.8 -20.0 -8.05 -6.35 -6.0 6.6 -4.05 M-33.9 -2.0 Q-34.4 -1.9 -33.6 -1.85 L-33.2 -1.85 Q-32.05 -1.95 -32.8 -2.05 L-32.55 -2.05 -32.05 -1.85 -32.1 -1.8 -32.95 -1.7 -33.9 -1.75 -34.6 -1.85 -34.45 -1.95 -33.9 -2.0 M-16.25 -5.5 L-15.75 -5.35 -15.75 -5.25 -15.75 -5.2 -16.55 -5.2 -18.25 -5.35 -18.05 -5.45 -17.3 -5.55 -17.25 -5.55 -17.4 -5.4 -16.75 -5.35 Q-16.05 -5.4 -16.25 -5.5" fill="#dbdbdf" fill-rule="evenodd" stroke="none"/>
    <path d="M6.8 -5.3 L8.7 -5.9 9.95 -5.95 9.35 -5.75 7.6 -5.2 6.8 -5.3 M-32.8 -2.05 Q-32.05 -1.95 -33.2 -1.85 L-33.6 -1.85 Q-34.4 -1.9 -33.9 -2.0 L-33.55 -2.1 -32.8 -2.05 M-17.25 -5.55 L-16.4 -5.55 -16.25 -5.5 Q-16.05 -5.4 -16.75 -5.35 L-17.4 -5.4 -17.25 -5.55" fill="#ffffff" fill-rule="evenodd" stroke="none"/>
    <path d="M-10.35 -8.6 L2.65 -6.7 0.6 -6.05 -6.1 -7.05 -6.9 -6.75 -0.3 -5.8 -0.25 -5.8 4.7 -5.05 7.6 -5.2 9.35 -5.75 42.2 -0.8 39.3 0.1 34.25 -0.7 29.25 -0.35 7.55 -3.65 8.0 -4.2 -17.75 -8.0 -10.35 -8.6" fill="url(#gradient0)" fill-rule="evenodd" stroke="none"/>
    <path d="M7.55 -3.65 L6.15 -3.55 6.6 -4.05 8.0 -4.2 7.55 -3.65" fill="#4a4b64" fill-rule="evenodd" stroke="none"/>
    <path d="M38.8 8.1 L37.85 7.95 37.85 0.1 34.0 -0.45 34.25 -0.7 39.3 0.1 38.8 0.25 38.8 8.1 M-3.15 6.8 L-3.15 6.85 -5.05 6.95 -18.15 5.3 -22.15 5.4 -22.15 -2.45 -18.15 -2.55 -5.05 -0.9 -3.15 -1.0 -3.15 6.8 M6.15 -3.55 L7.55 -3.65 29.25 -0.35 29.25 -0.1 6.15 -3.55 M8.0 -4.2 L6.6 -4.05 -6.35 -6.0 -20.0 -8.05 -17.75 -8.0 8.0 -4.2 M37.85 0.1 L38.8 0.25 37.85 0.1 M-4.75 -3.75 Q0.4 -2.8 -1.9 -2.15 -5.6 -1.45 -11.9 -2.05 -17.6 -3.1 -14.15 -3.85 -11.75 -4.4 -6.45 -3.9 -10.95 -3.0 -7.9 -2.35 -9.65 -3.15 -4.75 -3.75" fill="#1a1a22" fill-rule="evenodd" stroke="none"/>
    <path d="M5.1 -3.65 L27.5 -0.3 26.1 0.05 -8.0 -5.1 -5.9 -5.9 -5.85 -5.9 -5.85 -5.85 5.5 -4.15 5.1 -3.65" fill="url(#gradient1)" fill-rule="evenodd" stroke="none"/>
    <path d="M6.6 -4.05 L6.15 -3.55 5.1 -3.65 5.5 -4.15 6.6 -4.05" fill="#c8c9ce" fill-rule="evenodd" stroke="none"/>
    <path d="M34.0 -0.45 L30.9 -0.3 29.25 -0.1 29.25 -0.35 34.25 -0.7 34.0 -0.45" fill="#0d0d11" fill-rule="evenodd" stroke="none"/>
    <path d="M29.25 -0.1 L30.9 -0.3 34.0 -0.45 37.85 0.1 34.55 1.2 27.95 0.15 29.25 -0.1" fill="url(#gradient2)" fill-rule="evenodd" stroke="none"/>
    <path d="M27.5 -0.3 L29.25 -0.1 27.95 0.15 27.05 0.4 26.4 0.55 26.35 0.55 26.1 0.05 27.5 -0.3 M-6.4 -6.0 L-9.4 -4.85 Q-8.6 -5.2 -8.85 -5.55 L-7.8 -5.95 -6.4 -6.0" fill="#91919d" fill-rule="evenodd" stroke="none"/>
    <path d="M0.6 -6.05 L-0.3 -5.8 -6.9 -6.75 -6.1 -7.05 0.6 -6.05 M35.5 -2.1 L41.85 -1.5 41.6 -1.15 35.5 -2.1 M-22.15 -2.45 L-9.4 -4.85 5.25 -2.6 Q-2.15 -2.3 -3.15 -1.0 L-5.05 -0.9 -18.15 -2.55 -22.15 -2.45 M-6.45 -3.9 Q-11.75 -4.4 -14.15 -3.85 -17.6 -3.1 -11.9 -2.05 -5.6 -1.45 -1.9 -2.15 0.4 -2.8 -4.75 -3.75 L-6.45 -3.9" fill="#262633" fill-rule="evenodd" stroke="none"/>
    <path d="M42.7 -1.0 L42.7 6.85 38.8 8.1 38.8 0.25 39.3 0.1 42.2 -0.8 42.7 -1.0 M37.85 7.95 L33.9 9.25 33.9 1.4 34.55 1.2 37.85 0.1 37.85 7.95 M41.75 2.4 Q41.35 2.05 40.75 2.15 40.15 2.2 39.8 2.7 39.4 3.15 39.4 3.75 39.4 4.3 39.8 4.7 L40.75 4.95 Q41.35 4.85 41.75 4.4 L42.15 3.35 41.75 2.4" fill="#343543" fill-rule="evenodd" stroke="none"/>
    <path d="M41.75 2.4 L42.15 3.35 41.75 4.4 Q41.35 4.85 40.75 4.95 L39.8 4.7 Q39.4 4.3 39.4 3.75 39.4 3.15 39.8 2.7 40.15 2.2 40.75 2.15 41.35 2.05 41.75 2.4" fill="#000000" fill-rule="evenodd" stroke="none"/>
    <path d="M33.9 9.25 L27.05 8.25 27.05 0.4 27.95 0.15 34.55 1.2 33.9 1.4 33.9 9.25 M33.9 1.4 L27.05 0.4 33.9 1.4" fill="#101014" fill-rule="evenodd" stroke="none"/>
    <path d="M-8.0 -5.1 L26.1 0.05 26.35 0.55 5.25 -2.6 -9.4 -4.85 Q-8.75 -5.35 -11.0 -5.9 L-12.35 -6.25 -16.9 -6.95 -20.95 -7.35 -19.95 -7.55 Q-11.85 -6.75 -8.85 -5.55 -8.6 -5.2 -9.4 -4.85 L-8.0 -5.1" fill="#555560" fill-rule="evenodd" stroke="none"/>
    <path d="M26.4 8.4 L26.35 8.4 5.25 5.25 5.25 -2.6 26.35 0.55 26.4 0.55 26.4 8.4" fill="#3d3d43" fill-rule="evenodd" stroke="none"/>
    <path d="M27.05 8.25 L26.4 8.4 26.4 0.55 27.05 0.4 27.05 8.25" fill="#a6a6ae" fill-rule="evenodd" stroke="none"/>
    <path d="M5.25 5.25 Q-2.05 5.55 -3.15 6.8 L-3.15 -1.0 Q-2.15 -2.3 5.25 -2.6 L5.25 5.25" fill="#30303f" fill-rule="evenodd" stroke="none"/>
    <path d="M-41.05 6.35 L-42.7 5.75 -42.7 -2.1 -41.05 -1.5 -41.05 6.35 M-31.65 0.0 L-30.8 -0.2 -30.8 0.1 -31.65 0.0" fill="#94959e" fill-rule="evenodd" stroke="none"/>
    <path d="M-42.7 -2.1 L-41.0 -2.5 -38.6 -2.0 -39.9 -1.7 -41.05 -1.5 -42.7 -2.1" fill="#b8b8c0" fill-rule="evenodd" stroke="none"/>
    <path d="M-37.55 -2.1 Q-30.1 -3.95 -18.2 -6.0 -17.05 -6.4 -16.9 -6.95 L-12.35 -6.25 -11.0 -5.9 Q-10.95 -5.55 -11.55 -5.35 -24.35 -3.25 -32.8 -0.9 -33.15 -1.2 -32.65 -1.55 L-32.2 -1.65 -32.05 -1.75 -32.0 -1.75 -32.0 -1.8 -32.05 -1.85 -32.55 -2.05 -32.8 -2.05 -33.55 -2.1 -33.9 -2.0 -34.45 -1.95 -37.55 -2.1 M-39.9 -1.1 L-38.85 -1.4 -34.25 -0.3 -33.6 -0.2 -34.5 0.05 Q-37.3 -0.3 -39.9 -1.1 M-16.25 -5.5 L-16.4 -5.55 -17.25 -5.55 -17.3 -5.55 -18.05 -5.45 -18.25 -5.35 -18.3 -5.3 -18.25 -5.25 -17.85 -5.05 -17.1 -5.0 -16.85 -5.0 -15.95 -5.15 -15.85 -5.15 -15.75 -5.2 -15.75 -5.25 -15.75 -5.35 -16.25 -5.5" fill="#333345" fill-rule="evenodd" stroke="none"/>
    <path d="M-41.0 -2.5 Q-35.8 -3.95 -20.3 -6.45 -20.05 -6.85 -20.95 -7.35 L-16.9 -6.95 Q-17.05 -6.4 -18.2 -6.0 -30.1 -3.95 -37.55 -2.1 L-41.0 -2.5 M-41.05 -1.5 L-39.9 -1.7 -38.85 -1.4 -39.9 -1.1 -41.05 -1.5" fill="#414256" fill-rule="evenodd" stroke="none"/>
    <path d="M-4.5 -8.1 L-8.5 -8.75 Q-7.3 -9.25 -5.4 -9.25 -6.3 -8.75 -5.65 -8.55 L-4.5 -8.1 M-39.9 -1.7 L-38.6 -2.0 -34.65 -1.75 -34.6 -1.75 -34.1 -1.55 -33.05 -1.5 -32.65 -1.55 Q-33.15 -1.2 -32.8 -0.9 L-32.6 -0.75 -34.25 -0.3 -38.85 -1.4 -39.9 -1.7 M-6.45 -3.9 L-4.75 -3.75 Q-9.65 -3.15 -7.9 -2.35 -10.95 -3.0 -6.45 -3.9" fill="#a5a4ae" fill-rule="evenodd" stroke="none"/>
    <path d="M-32.65 -1.55 L-33.05 -1.5 -34.1 -1.55 -34.6 -1.75 -34.65 -1.75 -34.6 -1.85 -33.9 -1.75 -32.95 -1.7 -32.1 -1.8 -32.05 -1.85 -32.0 -1.8 -32.0 -1.75 -32.05 -1.75 -32.2 -1.65 -32.65 -1.55 M-15.75 -5.2 L-15.85 -5.15 -15.95 -5.15 -16.85 -5.0 -17.1 -5.0 -17.85 -5.05 -18.25 -5.25 -18.3 -5.3 -18.25 -5.35 -16.55 -5.2 -15.75 -5.2" fill="#666666" fill-rule="evenodd" stroke="none"/>
    <path d="M-21.7 -7.75 L-20.0 -8.05 -19.9 -7.8 -20.45 -7.7 -21.7 -7.75 M-5.9 -5.9 L-8.0 -5.1 -9.4 -4.85 -6.4 -6.0 -6.35 -6.0 -5.9 -5.9 M-38.6 -2.0 L-41.0 -2.5 -37.55 -2.1 -34.45 -1.95 -34.6 -1.85 -34.65 -1.75 -38.6 -2.0" fill="#c5c5cb" fill-rule="evenodd" stroke="none"/>
    <path d="M-34.25 -0.3 L-32.6 -0.75 Q-32.0 -0.4 -30.8 -0.2 L-31.65 0.0 -33.6 -0.2 -34.25 -0.3" fill="#9898a3" fill-rule="evenodd" stroke="none"/>
    <path d="M-32.6 -0.75 L-32.8 -0.9 Q-24.35 -3.25 -11.55 -5.35 -10.95 -5.55 -11.0 -5.9 -8.75 -5.35 -9.4 -4.85 L-22.15 -2.45 -30.8 -0.2 Q-32.0 -0.4 -32.6 -0.75 M-33.6 -0.2 L-31.65 0.0 -30.8 0.1 -30.3 0.2 -31.05 0.45 -34.5 0.05 -33.6 -0.2" fill="#242431" fill-rule="evenodd" stroke="none"/>
    <path d="M-20.95 -7.35 L-21.7 -7.75 -20.45 -7.7 -19.95 -7.55 -20.95 -7.35" fill="#7d7d8c" fill-rule="evenodd" stroke="none"/>
    <path d="M-22.15 5.4 L-30.3 7.5 -30.3 8.05 -31.05 8.3 -31.05 0.45 -30.3 0.2 -30.3 7.5 -30.3 0.2 -30.8 0.1 -30.8 -0.2 -22.15 -2.45 -22.15 5.4" fill="#414158" fill-rule="evenodd" stroke="none"/>
    <path d="M-10.25 -8.95 L-10.25 -8.9 -10.35 -8.6 -17.75 -8.0 -20.0 -8.05 -19.1 -8.2 -10.25 -8.95" fill="#595975" fill-rule="evenodd" stroke="none"/>
    <path d="M-19.95 -7.55 L-20.45 -7.7 -19.9 -7.8 -7.8 -5.95 -8.85 -5.55 Q-11.85 -6.75 -19.95 -7.55" fill="url(#gradient3)" fill-rule="evenodd" stroke="none"/>
    <path d="M-39.15 7.0 L-41.05 6.35 -41.05 -1.5 -39.9 -1.1 Q-40.25 3.25 -39.15 7.0" fill="#343643" fill-rule="evenodd" stroke="none"/>
    <path d="M-33.95 8.0 L-34.5 7.9 -39.15 7.0 Q-40.25 3.25 -39.9 -1.1 -37.3 -0.3 -34.5 0.05 L-34.5 0.1 Q-35.65 4.4 -33.95 8.0" fill="#272736" fill-rule="evenodd" stroke="none"/>
    <path d="M-31.05 8.3 L-33.95 8.0 Q-35.65 4.4 -34.5 0.1 L-34.5 0.05 -31.05 0.45 -31.05 8.3" fill="#1d1d27" fill-rule="evenodd" stroke="none"/>
    <path d="M2.65 -6.7 L3.4 -6.9 -4.5 -8.1 -8.5 -8.75 -10.25 -8.95 -19.1 -8.2 -20.0 -8.05 -6.35 -6.0 6.6 -4.05 6.15 -3.55 29.25 -0.1 27.95 0.15 27.05 0.4 33.9 1.4 34.55 1.2 37.85 0.1 34.0 -0.45 30.9 -0.3 29.25 -0.1 M2.65 -6.7 L0.6 -6.05 -0.3 -5.8 M3.85 -6.65 L3.4 -6.9 M8.7 -5.9 L3.85 -6.65 M8.7 -5.9 L9.95 -5.95 35.5 -2.1 41.85 -1.5 41.6 -1.15 42.7 -1.0 42.2 -0.8 39.3 0.1 38.8 0.25 37.85 0.1 M-42.7 -2.1 L-41.0 -2.5 Q-35.8 -3.95 -20.3 -6.45 -20.05 -6.85 -20.95 -7.35 L-21.7 -7.75 -20.0 -8.05 M9.35 -5.75 L7.6 -5.2 4.7 -5.05 -0.25 -5.8 M9.95 -5.95 L9.35 -5.75 M35.5 -2.1 L41.6 -1.15 M26.4 0.55 L26.35 0.55 5.25 -2.6 Q-2.15 -2.3 -3.15 -1.0 L-5.05 -0.9 -18.15 -2.55 -22.15 -2.45 -9.4 -4.85 Q-8.75 -5.35 -11.0 -5.9 L-12.35 -6.25 -16.9 -6.95 -20.95 -7.35 M27.05 0.4 L26.4 0.55 M-42.7 -2.1 L-41.05 -1.5 -39.9 -1.7 -38.85 -1.4 -34.25 -0.3 -33.6 -0.2 -31.65 0.0 -30.8 -0.2 -22.15 -2.45 M-4.75 -3.75 Q0.4 -2.8 -1.9 -2.15 -5.6 -1.45 -11.9 -2.05 -17.6 -3.1 -14.15 -3.85 -11.75 -4.4 -6.45 -3.9 L-4.75 -3.75 Q-9.65 -3.15 -7.9 -2.35 -10.95 -3.0 -6.45 -3.9 M-8.5 -8.75 Q-7.3 -9.25 -5.4 -9.25 -6.3 -8.75 -5.65 -8.55 L-4.5 -8.1 M-9.4 -4.85 L5.25 -2.6 M-39.9 -1.1 L-41.05 -1.5 M-30.3 0.2 L-31.05 0.45 -34.5 0.05 Q-37.3 -0.3 -39.9 -1.1 M-31.65 0.0 L-30.8 0.1 -30.3 0.2" fill="none" stroke="#000000" stroke-linecap="round" stroke-linejoin="round" stroke-opacity="0.6" stroke-width="0.05"/>
    <path d="M42.7 -1.0 L42.7 6.85 38.8 8.1 37.85 7.95 33.9 9.25 27.05 8.25 26.4 8.4 26.35 8.4 5.25 5.25 Q-2.05 5.55 -3.15 6.8 L-3.15 6.85 -5.05 6.95 -18.15 5.3 -22.15 5.4 -30.3 7.5 -30.3 8.05 -31.05 8.3 -33.95 8.0 -34.5 7.9 -39.15 7.0 -41.05 6.35 -42.7 5.75 -42.7 -2.1 M37.85 0.1 L37.85 7.95 M38.8 0.25 L38.8 8.1 M33.9 1.4 L33.9 9.25 M26.4 8.4 L26.4 0.55 M5.25 -2.6 L5.25 5.25 M27.05 0.4 L27.05 8.25 M-3.15 -1.0 L-3.15 6.8 M-22.15 -2.45 L-22.15 5.4 M-41.05 -1.5 L-41.05 6.35 M-30.3 7.5 L-30.3 0.2 M-31.05 0.45 L-31.05 8.3 M-30.8 0.1 L-30.8 -0.2" fill="none" stroke="#000000" stroke-linecap="round" stroke-linejoin="round" stroke-opacity="0.6" stroke-width="0.05"/>
  </g>
  <defs>
    <linearGradient gradientTransform="matrix(-0.0079, -0.0069, 0.0098, -5.0E-4, 9.45, -4.1)" gradientUnits="userSpaceOnUse" id="gradient0" spreadMethod="pad" x1="-819.2" x2="819.2">
      <stop offset="0.0" stop-color="#333345"/>
      <stop offset="0.11372549019607843" stop-color="#5a5b73"/>
      <stop offset="0.16470588235294117" stop-color="#8283a2"/>
      <stop offset="0.2823529411764706" stop-color="#585971"/>
      <stop offset="0.5294117647058824" stop-color="#333345"/>
      <stop offset="0.7372549019607844" stop-color="#5b5b74"/>
      <stop offset="0.8117647058823529" stop-color="#7d7e9c"/>
      <stop offset="1.0" stop-color="#333345"/>
    </linearGradient>
    <linearGradient gradientTransform="matrix(0.0102, 0.0035, -0.0075, 0.0011, 7.0, -2.7)" gradientUnits="userSpaceOnUse" id="gradient1" spreadMethod="pad" x1="-819.2" x2="819.2">
      <stop offset="0.0" stop-color="#a5a4ae"/>
      <stop offset="0.19607843137254902" stop-color="#dbdbdf"/>
      <stop offset="1.0" stop-color="#a5a4ae"/>
    </linearGradient>
    <linearGradient gradientTransform="matrix(0.004, 6.0E-4, -0.002, 7.0E-4, 25.05, -1.05)" gradientUnits="userSpaceOnUse" id="gradient2" spreadMethod="pad" x1="-819.2" x2="819.2">
      <stop offset="0.0" stop-color="#3a3c49"/>
      <stop offset="1.0" stop-color="#262633"/>
    </linearGradient>
    <linearGradient gradientTransform="matrix(0.0048, 0.0013, -0.0022, 4.0E-4, -13.65, -6.7)" gradientUnits="userSpaceOnUse" id="gradient3" spreadMethod="pad" x1="-819.2" x2="819.2">
      <stop offset="0.0" stop-color="#a5a4ae"/>
      <stop offset="0.19607843137254902" stop-color="#dbdbdf"/>
      <stop offset="1.0" stop-color="#a5a4ae"/>
    </linearGradient>
  </defs>
</svg>
