<?xml version="1.0" encoding="UTF-8" standalone="no"?>
<svg xmlns:ffdec="https://www.free-decompiler.com/flash" xmlns:xlink="http://www.w3.org/1999/xlink" ffdec:objectType="shape" height="69.0px" width="69.0px" xmlns="http://www.w3.org/2000/svg">
  <g transform="matrix(1.0, 0.0, 0.0, 1.0, 34.5, 34.5)">
    <path d="M-2.0 -34.45 Q-5.65 -34.25 -9.1 -33.3 -12.45 -32.35 -15.6 -30.8 -18.65 -29.25 -21.35 -27.15 -24.0 -25.05 -26.2 -22.5 -28.4 -19.9 -30.1 -16.95 -31.75 -13.95 -32.8 -10.7 -33.9 -7.4 -34.3 -3.95 -34.7 -0.35 -34.35 3.25 -34.15 5.2 -33.75 7.1 -33.4 9.0 -32.75 10.85 -32.15 12.7 -31.35 14.45 -30.55 16.2 -29.55 17.85 -28.55 19.5 -27.35 21.05 -26.15 22.6 -24.8 24.0 -23.45 25.4 -21.95 26.65 -20.45 27.9 -18.8 28.95 -16.35 30.55 -13.65 31.7 -11.0 32.85 -8.25 33.5 -5.5 34.2 -2.65 34.4 0.15 34.6 2.95 34.4 5.75 34.15 8.5 33.45 11.25 32.75 13.85 31.65 16.45 30.5 18.85 28.9 21.3 27.35 23.45 25.35 26.25 22.75 28.4 19.6 30.5 16.55 31.9 13.15 33.3 9.85 33.95 6.3 34.6 2.75 34.5 -0.8 34.4 -4.4 33.6 -7.9 32.8 -11.4 31.25 -14.65 29.7 -18.0 27.45 -20.95 25.15 -23.95 22.2 -26.45 21.15 -27.3 20.1 -28.1 19.0 -28.85 17.85 -29.55 16.75 -30.25 15.55 -30.85 14.35 -31.45 13.15 -31.95 11.9 -32.45 10.6 -32.85 9.35 -33.25 8.05 -33.55 6.7 -33.9 5.4 -34.1 4.0 -34.3 2.65 -34.4 2.15 -34.45 0.35 -34.5 -1.4 -34.5 -2.0 -34.45 M2.2 -32.1 Q4.75 -32.0 4.75 -31.85 4.75 -31.8 4.4 -31.75 3.5 -31.6 2.65 -31.3 1.8 -31.0 1.0 -30.65 0.2 -30.25 -0.55 -29.8 -1.3 -29.3 -1.95 -28.7 -2.65 -28.15 -3.3 -27.45 -3.9 -26.75 -4.45 -26.0 -5.05 -25.2 -5.55 -24.35 -6.05 -23.5 -6.45 -22.55 -6.85 -21.7 -7.15 -20.8 -7.5 -19.9 -7.8 -18.95 -8.1 -17.95 -8.3 -16.95 -8.55 -15.9 -8.75 -14.75 -8.95 -13.65 -9.1 -12.4 -9.25 -11.15 -9.4 -9.8 -9.5 -8.45 -9.55 -6.95 -9.65 -5.5 -9.7 -3.8 -9.75 -1.75 -10.15 0.0 -10.5 1.75 -11.15 3.25 -11.85 4.75 -12.8 6.0 -13.8 7.2 -15.05 8.15 -16.3 9.05 -17.85 9.7 -19.4 10.35 -21.2 10.7 -23.0 11.05 -25.1 11.1 -27.2 11.15 -29.5 10.9 -29.55 10.9 -29.8 10.85 -29.95 10.85 -30.05 10.85 -30.15 10.85 -30.2 10.8 -30.25 10.8 -30.3 10.75 -30.35 10.75 -30.35 10.7 -30.4 10.65 -30.4 10.6 -30.45 10.55 -30.45 10.45 -30.5 10.3 -30.55 10.25 -31.35 7.9 -31.75 5.45 -32.15 3.05 -32.2 0.6 -32.25 -1.8 -31.95 -4.2 -31.6 -6.6 -30.95 -8.9 -30.25 -11.25 -29.25 -13.4 -28.25 -15.6 -26.95 -17.65 -25.6 -19.7 -23.95 -21.5 -22.3 -23.35 -20.35 -24.95 -19.3 -25.8 -18.25 -26.55 -17.15 -27.3 -16.0 -27.95 -14.9 -28.6 -13.7 -29.15 -12.55 -29.7 -11.3 -30.15 -10.1 -30.6 -8.85 -30.95 -7.6 -31.3 -6.3 -31.6 -5.0 -31.85 -3.65 -32.0 -2.3 -32.15 -0.95 -32.2 -0.5 -32.2 0.55 -32.2 1.7 -32.15 2.2 -32.1 M6.65 -31.5 Q8.2 -31.15 9.75 -30.7 11.25 -30.2 12.7 -29.6 14.15 -29.0 15.5 -28.2 16.85 -27.45 18.15 -26.6 19.45 -25.7 20.65 -24.7 21.85 -23.7 22.95 -22.55 24.05 -21.45 25.05 -20.2 26.05 -19.0 26.95 -17.65 28.3 -15.6 29.3 -13.4 30.3 -11.2 30.95 -8.9 31.6 -6.6 31.9 -4.25 32.25 -1.9 32.2 0.45 32.15 2.85 31.8 5.2 31.4 7.55 30.65 9.8 29.95 12.1 28.9 14.25 27.8 16.45 26.4 18.45 25.4 19.85 25.35 19.85 25.35 19.8 25.45 19.45 25.75 18.6 25.9 17.75 26.05 16.85 26.05 15.95 26.1 15.05 26.0 14.1 25.9 13.2 25.65 12.25 25.45 11.3 25.1 10.35 24.75 9.4 24.3 8.45 23.8 7.5 23.25 6.55 22.65 5.6 21.95 4.65 21.35 3.85 20.65 3.05 19.95 2.25 19.15 1.45 18.35 0.65 17.5 -0.1 16.65 -0.85 15.7 -1.6 14.75 -2.35 13.75 -3.1 12.7 -3.8 11.65 -4.5 10.6 -5.2 9.45 -5.85 8.35 -6.5 7.2 -7.1 7.1 -7.15 6.95 -7.2 6.85 -7.3 6.7 -7.4 6.55 -7.5 6.4 -7.6 6.25 -7.7 6.1 -7.85 5.9 -7.95 5.75 -8.1 5.6 -8.25 5.4 -8.4 5.25 -8.55 5.05 -8.7 4.9 -8.85 4.75 -9.05 3.75 -10.0 3.05 -11.0 2.3 -12.05 1.8 -13.1 1.25 -14.2 1.0 -15.35 0.7 -16.55 0.7 -17.75 0.65 -19.0 0.85 -20.3 1.0 -21.6 1.45 -22.95 1.85 -24.3 2.55 -25.75 3.2 -27.15 4.1 -28.65 4.45 -29.3 5.25 -30.5 6.0 -31.65 6.05 -31.65 6.05 -31.65 6.65 -31.5 M0.8 -4.55 Q1.45 -4.45 2.05 -4.15 2.6 -3.85 3.1 -3.45 3.55 -3.0 3.85 -2.5 4.2 -2.0 4.35 -1.4 4.55 -0.8 4.6 -0.2 4.6 0.4 4.5 1.0 4.35 1.65 4.05 2.2 3.7 2.75 3.25 3.25 2.7 3.8 2.1 4.1 1.45 4.4 0.8 4.55 0.15 4.65 -0.5 4.55 -1.15 4.5 -1.75 4.25 -2.35 4.0 -2.85 3.6 -3.4 3.15 -3.75 2.65 -4.15 2.1 -4.35 1.45 -4.6 0.75 -4.6 0.0 -4.6 -0.55 -4.5 -1.05 -4.35 -1.55 -4.15 -2.0 -3.95 -2.4 -3.65 -2.8 -3.35 -3.2 -2.95 -3.5 -2.6 -3.85 -2.15 -4.05 -1.7 -4.3 -1.25 -4.4 -0.75 -4.55 -0.25 -4.6 0.25 -4.6 0.8 -4.55 M10.4 8.25 Q11.45 8.35 12.5 8.65 13.55 8.9 14.5 9.35 15.5 9.8 16.4 10.4 17.3 11.05 18.2 11.8 19.05 12.6 19.85 13.55 20.6 14.5 21.35 15.55 22.05 16.65 22.7 17.9 23.3 19.15 23.85 20.55 L24.15 21.25 24.1 21.35 Q23.85 21.65 23.5 22.05 23.15 22.4 22.75 22.85 22.3 23.25 21.85 23.65 21.35 24.1 20.85 24.55 20.3 24.95 19.75 25.4 19.2 25.8 18.7 26.2 18.1 26.6 17.6 26.95 17.05 27.3 16.55 27.6 13.4 29.5 10.0 30.6 6.65 31.7 3.2 32.05 -0.25 32.35 -3.65 31.95 -7.05 31.6 -10.25 30.5 -13.5 29.4 -16.4 27.7 -19.4 25.95 -21.9 23.6 -24.45 21.25 -26.45 18.4 -28.5 15.4 -29.9 12.05 -29.9 12.0 -29.85 12.05 -29.8 12.1 -29.7 12.2 -28.45 13.55 -27.05 14.55 -25.6 15.55 -24.0 16.2 -22.4 16.8 -20.6 17.1 -18.8 17.35 -16.85 17.25 -14.9 17.15 -12.75 16.7 -10.65 16.25 -8.35 15.4 -6.05 14.6 -3.65 13.4 -1.2 12.2 1.4 10.65 1.85 10.4 2.25 10.15 2.65 9.95 3.1 9.75 3.5 9.55 3.9 9.35 4.35 9.2 4.75 9.05 5.15 8.9 5.55 8.75 5.95 8.65 6.35 8.55 6.75 8.45 7.15 8.4 7.55 8.35 7.95 8.3 8.05 8.3 8.45 8.25 8.6 8.2 9.4 8.25 10.15 8.25 10.4 8.25" fill="#040404" fill-rule="evenodd" stroke="none"/>
    <path d="M-0.95 -32.2 Q-4.6 -32.05 -8.1 -31.15 -11.45 -30.3 -14.55 -28.7 -17.6 -27.2 -20.25 -25.05 -22.85 -22.95 -25.0 -20.3 -27.1 -17.7 -28.65 -14.7 -30.2 -11.7 -31.1 -8.45 -32.0 -5.1 -32.15 -1.6 -32.35 1.95 -31.7 5.55 -31.5 6.8 -31.0 8.7 -30.5 10.65 -30.35 10.8 -30.1 10.95 -27.15 11.1 -24.3 11.2 -24.15 11.05 -24.1 11.05 -24.3 10.65 -24.8 9.55 -25.15 8.4 -25.55 7.3 -25.8 6.1 -26.1 4.95 -26.25 3.75 -26.4 2.55 -26.5 1.35 -26.55 0.15 -26.5 -1.1 -26.45 -2.3 -26.3 -3.5 -26.15 -4.7 -25.85 -5.85 -25.6 -7.05 -25.25 -8.15 -24.7 -9.85 -23.9 -11.5 -23.15 -13.1 -22.15 -14.55 -21.2 -16.05 -20.05 -17.35 -18.9 -18.7 -17.6 -19.85 -16.3 -21.0 -14.85 -21.95 -13.4 -22.95 -11.85 -23.75 -10.25 -24.5 -8.6 -25.1 -6.9 -25.65 -5.1 -26.05 -4.6 -26.15 -4.5 -26.15 -4.4 -26.15 -4.45 -26.1 -4.45 -26.05 -3.95 -26.65 -3.55 -27.15 -3.1 -27.6 -2.7 -28.05 -2.2 -28.5 -1.75 -28.9 -1.25 -29.3 -0.75 -29.65 -0.2 -29.95 0.3 -30.3 0.85 -30.55 1.45 -30.85 2.0 -31.05 2.6 -31.3 3.2 -31.45 3.8 -31.65 4.4 -31.75 4.75 -31.8 4.7 -31.85 4.7 -31.85 4.3 -31.9 4.0 -31.95 3.65 -32.0 3.3 -32.0 2.95 -32.05 2.6 -32.1 2.25 -32.1 1.9 -32.15 1.55 -32.15 1.2 -32.15 0.9 -32.2 0.55 -32.2 0.2 -32.2 -0.1 -32.2 -0.4 -32.2 -0.7 -32.2 -0.95 -32.2 M5.65 -31.05 Q5.45 -30.75 5.25 -30.45 5.05 -30.15 4.85 -29.85 4.65 -29.6 4.5 -29.3 4.3 -29.0 4.1 -28.7 3.95 -28.4 3.8 -28.15 3.6 -27.85 3.45 -27.55 3.3 -27.3 3.15 -27.0 3.0 -26.75 2.9 -26.45 2.8 -26.25 2.75 -26.15 2.7 -26.05 2.8 -26.25 2.85 -26.3 2.85 -26.35 2.85 -26.35 2.9 -26.35 2.9 -26.35 2.95 -26.35 3.0 -26.35 3.45 -26.3 6.2 -25.95 8.8 -25.05 11.35 -24.15 13.65 -22.75 15.9 -21.4 17.9 -19.6 19.8 -17.8 21.4 -15.65 22.95 -13.5 24.05 -11.1 25.15 -8.7 25.8 -6.1 26.45 -3.5 26.5 -0.8 26.6 2.0 26.1 4.75 25.85 6.05 25.35 7.8 24.85 9.55 24.75 9.4 24.7 9.35 24.95 9.95 25.2 10.55 25.4 11.2 25.55 11.8 25.7 12.4 25.85 13.05 25.95 13.65 26.0 14.25 26.05 14.85 26.1 15.45 26.05 16.05 26.05 16.65 25.95 17.2 25.9 17.8 25.8 18.35 25.65 18.9 25.45 19.45 25.45 19.55 25.4 19.7 25.35 19.85 25.35 19.85 25.4 19.85 26.4 18.45 27.85 16.4 28.95 14.1 30.05 11.85 30.75 9.5 31.5 7.15 31.85 4.7 32.2 2.3 32.2 -0.15 32.2 -2.6 31.8 -5.05 31.4 -7.45 30.65 -9.8 29.9 -12.15 28.8 -14.4 27.7 -16.65 26.2 -18.7 25.35 -19.85 24.45 -20.95 23.5 -22.05 22.5 -23.05 21.5 -24.0 20.4 -24.9 19.3 -25.8 18.1 -26.6 16.95 -27.4 15.7 -28.1 14.5 -28.8 13.2 -29.4 11.9 -29.95 10.55 -30.4 9.25 -30.9 7.85 -31.25 6.05 -31.65 6.05 -31.65 6.05 -31.65 5.65 -31.05 M-4.55 -25.95 Q-4.6 -25.85 -4.6 -25.85 -4.6 -25.85 -4.5 -25.95 -4.45 -26.05 -4.45 -26.05 -4.5 -26.05 -4.55 -25.95 M-4.85 -25.5 Q-5.15 -25.1 -5.05 -25.15 -4.55 -25.8 -4.65 -25.8 -4.65 -25.8 -4.7 -25.7 -4.8 -25.6 -4.85 -25.5 M0.7 -19.35 Q0.7 -19.3 0.75 -19.3 0.75 -19.3 0.75 -19.35 0.75 -19.4 0.75 -19.45 0.7 -19.45 0.7 -19.35 M0.7 -18.9 Q0.7 -18.85 0.7 -18.8 0.7 -18.75 0.7 -18.8 0.7 -18.85 0.7 -18.9 0.7 -18.95 0.7 -19.0 0.7 -19.05 0.7 -18.9 M0.7 -17.5 Q0.7 -17.45 0.7 -17.4 0.7 -17.4 0.7 -17.45 0.7 -17.45 0.7 -17.5 0.7 -17.55 0.7 -17.6 0.7 -17.65 0.7 -17.5 M1.7 -13.2 Q1.7 -13.2 1.75 -13.1 1.8 -13.05 1.8 -13.05 1.8 -13.05 1.8 -13.1 1.8 -13.15 1.75 -13.15 1.7 -13.4 1.7 -13.2 M2.0 -12.65 Q2.2 -12.3 2.45 -11.9 2.7 -11.5 3.0 -11.05 3.3 -10.65 3.65 -10.25 4.0 -9.85 4.35 -9.45 4.7 -9.05 5.1 -8.7 5.45 -8.35 5.8 -8.0 6.2 -7.7 6.55 -7.5 6.9 -7.25 7.2 -7.1 8.3 -6.5 9.75 -5.65 11.25 -4.75 12.25 -4.1 12.65 -3.85 12.55 -3.9 12.5 -3.95 12.5 -3.95 12.45 -4.0 12.45 -4.0 12.45 -4.0 12.45 -4.0 12.45 -4.0 12.4 -4.05 12.4 -4.1 12.35 -4.15 12.35 -4.2 12.3 -4.3 12.05 -5.1 11.65 -5.9 11.25 -6.65 10.8 -7.35 10.3 -8.05 9.7 -8.7 9.15 -9.3 8.5 -9.9 7.85 -10.45 7.1 -10.9 6.4 -11.4 5.6 -11.75 4.8 -12.15 4.0 -12.4 3.15 -12.7 2.3 -12.85 1.95 -12.9 1.9 -12.9 1.85 -12.95 2.0 -12.65 M-9.4 -9.95 Q-9.4 -9.85 -9.4 -9.9 -9.35 -9.9 -9.4 -10.0 -9.4 -10.0 -9.4 -9.95 M-9.45 -9.55 Q-9.4 -9.45 -9.4 -9.5 -9.4 -9.5 -9.4 -9.55 -9.4 -9.55 -9.4 -9.6 -9.45 -9.65 -9.45 -9.55 M-9.45 -9.1 Q-9.5 -8.8 -9.45 -9.05 -9.45 -9.1 -9.45 -9.15 -9.45 -9.15 -9.45 -9.2 -9.45 -9.3 -9.45 -9.1 M-9.75 -8.65 Q-10.35 -7.95 -10.85 -7.2 -11.35 -6.45 -11.75 -5.65 -12.15 -4.8 -12.4 -3.95 -12.7 -3.1 -12.85 -2.25 -13.0 -1.35 -13.05 -0.45 -13.05 0.45 -13.0 1.3 -12.9 2.2 -12.7 3.1 -12.45 3.95 -12.1 4.8 -12.1 4.85 -12.1 4.9 -12.1 4.9 -12.1 4.95 -12.1 5.0 -12.15 5.05 -13.85 7.9 -11.85 4.6 -11.55 4.15 -11.35 3.7 -11.1 3.2 -10.9 2.7 -10.7 2.25 -10.55 1.7 -10.4 1.2 -10.25 0.65 -10.1 0.1 -10.0 -0.5 -9.9 -1.1 -9.85 -1.8 -9.8 -2.45 -9.75 -3.15 -9.7 -3.85 -9.65 -4.65 -9.65 -6.3 -9.5 -8.35 -9.45 -8.9 -9.45 -8.9 -9.45 -8.9 -9.5 -8.9 -9.55 -8.85 -9.6 -8.8 -9.65 -8.75 -9.75 -8.65 M-0.8 -4.55 Q-1.45 -4.45 -2.0 -4.15 -2.55 -3.9 -3.0 -3.5 -3.45 -3.1 -3.8 -2.6 -4.1 -2.1 -4.3 -1.55 -4.5 -0.95 -4.55 -0.4 -4.65 0.2 -4.55 0.8 -4.45 1.4 -4.15 1.95 -3.9 2.55 -3.45 3.0 -2.95 3.6 -2.3 3.95 -1.7 4.3 -1.0 4.45 -0.35 4.6 0.35 4.55 1.0 4.5 1.6 4.3 2.25 4.05 2.8 3.65 3.35 3.25 3.7 2.7 4.15 2.15 4.35 1.5 4.6 0.75 4.6 0.0 4.6 -0.55 4.5 -1.05 4.35 -1.5 4.15 -2.0 3.95 -2.4 3.65 -2.8 3.35 -3.2 2.95 -3.5 2.6 -3.85 2.15 -4.05 1.7 -4.3 1.25 -4.4 0.75 -4.55 0.25 -4.6 -0.25 -4.6 -0.8 -4.55 M17.7 0.1 Q17.7 0.1 17.85 0.2 L17.95 0.3 17.85 0.2 Q17.7 0.05 17.7 0.1 M18.2 0.55 Q18.25 0.6 18.35 0.65 18.4 0.7 18.4 0.7 18.4 0.7 18.35 0.65 18.3 0.6 18.25 0.55 18.1 0.35 18.05 0.35 18.05 0.4 18.2 0.55 M19.1 1.4 Q19.65 1.9 19.65 1.9 19.65 1.9 19.15 1.4 18.65 0.9 18.65 0.9 18.6 0.9 19.1 1.4 M19.95 2.3 Q20.0 2.35 20.1 2.4 20.15 2.45 20.15 2.45 20.15 2.45 20.1 2.4 20.05 2.35 20.0 2.3 19.85 2.1 19.8 2.1 19.8 2.15 19.95 2.3 M20.3 2.7 Q20.35 2.7 20.35 2.75 20.4 2.75 20.4 2.8 20.45 2.8 20.45 2.8 20.45 2.8 20.35 2.7 20.25 2.55 20.2 2.55 20.3 2.65 20.3 2.7 M-13.2 6.45 L-13.3 6.55 -13.2 6.45 Q-13.05 6.3 -13.1 6.3 -13.1 6.3 -13.2 6.45 M-13.65 6.9 Q-13.9 7.15 -13.9 7.15 -13.85 7.15 -13.6 6.9 -13.4 6.65 -13.4 6.65 -13.4 6.65 -13.45 6.7 -13.55 6.8 -13.65 6.9 M23.95 7.75 Q23.95 7.8 24.0 7.8 24.0 7.85 24.0 7.85 24.0 7.85 23.95 7.75 23.95 7.7 23.95 7.7 23.9 7.65 23.9 7.65 23.9 7.65 23.95 7.75 M8.45 8.25 Q8.4 8.25 7.95 8.3 7.55 8.35 7.15 8.4 6.75 8.45 6.35 8.55 5.95 8.65 5.55 8.8 5.15 8.9 4.75 9.05 4.35 9.2 3.9 9.35 3.5 9.55 3.1 9.75 2.65 9.95 2.25 10.2 1.8 10.4 1.4 10.65 0.75 11.05 -0.1 11.55 -0.95 12.0 -1.65 12.35 -1.85 12.45 -2.15 12.65 -2.4 12.8 -2.4 12.8 -2.4 12.85 -1.3 13.0 -0.9 13.05 0.05 13.0 1.05 13.0 1.45 12.95 2.05 12.9 2.7 12.75 3.3 12.6 3.85 12.45 4.45 12.25 5.0 12.05 5.55 11.8 6.1 11.55 6.6 11.25 7.1 10.95 7.6 10.6 8.1 10.25 8.55 9.85 9.0 9.45 9.45 9.0 9.85 8.55 10.1 8.3 10.15 8.25 10.2 8.25 9.4 8.25 8.6 8.25 8.45 8.25 M24.45 8.8 Q24.45 8.8 24.5 8.9 24.55 8.95 24.55 8.95 24.55 8.95 24.55 8.9 24.55 8.85 24.5 8.85 24.45 8.7 24.45 8.8 M-23.55 11.0 Q-23.5 11.0 -23.4 11.0 -23.35 11.0 -23.5 11.0 -23.7 10.95 -23.55 11.0 M-23.95 11.05 Q-23.85 11.05 -23.85 11.05 -23.8 11.0 -23.9 11.05 -23.95 11.05 -24.0 11.05 -24.0 11.05 -23.95 11.05 M17.9 11.55 Q17.9 11.6 18.0 11.7 L18.1 11.8 18.0 11.65 Q17.9 11.55 17.9 11.55 M18.7 12.35 Q19.2 12.85 19.25 12.85 19.25 12.85 18.75 12.35 18.25 11.85 18.25 11.85 18.2 11.85 18.7 12.35 M-29.9 12.05 Q-29.15 13.9 -28.15 15.65 -27.2 17.4 -26.0 19.0 -24.8 20.6 -23.45 22.05 -22.1 23.5 -20.55 24.75 -19.05 26.05 -17.4 27.1 -15.7 28.2 -13.9 29.05 -12.1 29.9 -10.25 30.55 -8.35 31.2 -6.35 31.55 -4.4 31.95 -2.45 32.1 -0.5 32.25 1.45 32.15 3.4 32.05 5.3 31.75 7.2 31.45 9.05 30.9 10.9 30.35 12.7 29.6 14.45 28.85 16.15 27.85 17.85 26.9 19.4 25.7 20.95 24.5 22.4 23.15 23.8 21.75 24.1 21.35 L24.15 21.25 23.85 20.55 Q23.75 20.25 23.6 19.95 23.5 19.65 23.35 19.35 23.25 19.1 23.1 18.8 23.0 18.5 22.85 18.25 22.7 18.0 22.6 17.7 22.45 17.45 22.3 17.2 22.15 16.9 22.0 16.65 21.85 16.4 21.7 16.15 21.4 15.7 21.4 15.7 21.35 15.7 21.15 16.0 20.1 17.4 18.9 18.65 17.65 19.9 16.3 20.95 14.9 22.0 13.4 22.9 11.9 23.75 10.3 24.45 8.7 25.1 7.0 25.55 5.3 26.05 3.6 26.25 1.85 26.5 0.05 26.5 -1.7 26.5 -3.45 26.3 -4.6 26.15 -5.8 25.9 -6.95 25.6 -8.1 25.25 -9.25 24.9 -10.35 24.4 -11.45 23.95 -12.5 23.4 -13.55 22.85 -14.5 22.2 -15.5 21.55 -16.45 20.85 -17.35 20.1 -18.2 19.3 -19.05 18.5 -19.8 17.65 -20.1 17.3 -20.2 17.2 -20.2 17.2 -20.2 17.2 -20.25 17.2 -20.25 17.15 -20.25 17.15 -20.3 17.15 -20.3 17.15 -20.3 17.15 -20.35 17.15 -20.35 17.15 -20.4 17.1 -20.45 17.1 -20.45 17.1 -20.5 17.1 -20.5 17.1 -20.55 17.1 -21.25 17.0 -21.9 16.85 -22.55 16.7 -23.15 16.5 -23.8 16.3 -24.4 16.05 -25.0 15.75 -25.55 15.45 -26.15 15.15 -26.7 14.8 -27.25 14.45 -27.75 14.05 -28.25 13.6 -28.75 13.15 -29.25 12.7 -29.7 12.2 -29.9 11.95 -29.9 12.05 M19.35 13.0 Q19.35 13.0 19.45 13.15 L19.55 13.2 19.45 13.1 Q19.35 13.0 19.35 13.0 M19.55 13.3 Q19.55 13.3 19.7 13.4 L19.8 13.5 19.7 13.4 Q19.55 13.25 19.55 13.3 M20.7 14.7 Q20.8 14.8 20.8 14.8 20.95 15.0 20.75 14.7 20.75 14.7 20.7 14.65 20.65 14.6 20.65 14.6 20.65 14.65 20.7 14.7 M-19.85 17.2 Q-19.8 17.2 -19.8 17.2 -19.75 17.2 -19.7 17.2 -19.65 17.2 -19.8 17.2 -20.25 17.1 -19.85 17.2 M-16.0 17.2 Q-15.95 17.2 -15.9 17.2 -15.7 17.2 -15.95 17.2 -16.2 17.15 -16.0 17.2 M-19.45 17.25 Q-19.35 17.25 -19.3 17.25 -19.25 17.2 -19.4 17.2 -19.5 17.25 -19.45 17.25 M-16.4 17.25 Q-16.3 17.25 -16.3 17.25 -16.25 17.2 -16.35 17.2 -16.45 17.25 -16.4 17.25 M-18.95 17.25 Q-18.9 17.25 -18.85 17.3 -18.8 17.3 -18.75 17.25 -18.75 17.25 -18.85 17.25 -19.0 17.25 -18.95 17.25 M-17.0 17.25 Q-16.95 17.25 -16.9 17.3 -16.85 17.3 -16.8 17.25 -16.8 17.25 -16.9 17.25 -17.05 17.25 -17.0 17.25" fill="#a80404" fill-rule="evenodd" stroke="none"/>
    <path d="M2.75 -26.1 Q2.65 -25.9 2.55 -25.7 2.45 -25.45 2.35 -25.2 2.2 -25.0 2.1 -24.75 2.0 -24.5 1.9 -24.2 1.8 -23.95 1.7 -23.7 1.65 -23.45 1.55 -23.2 1.45 -22.95 1.4 -22.7 1.3 -22.45 1.25 -22.25 1.15 -21.9 1.15 -21.85 1.15 -21.75 1.25 -21.7 1.3 -21.7 1.6 -21.7 1.85 -21.7 2.15 -21.65 2.45 -21.6 2.75 -21.6 3.05 -21.55 3.35 -21.5 3.65 -21.45 4.0 -21.35 4.3 -21.3 4.6 -21.25 4.95 -21.15 5.25 -21.1 5.55 -21.0 5.85 -20.95 6.2 -20.85 6.45 -20.75 8.35 -20.15 10.1 -19.25 11.85 -18.3 13.4 -17.1 14.9 -15.95 16.2 -14.5 17.45 -13.1 18.45 -11.45 19.45 -9.85 20.2 -8.1 20.9 -6.3 21.3 -4.45 21.7 -2.5 21.75 -0.6 21.8 1.4 21.5 3.4 L21.4 3.9 21.5 4.05 Q21.7 4.3 21.95 4.6 22.15 4.9 22.4 5.2 22.6 5.55 22.85 5.85 23.05 6.2 23.25 6.55 23.45 6.9 23.65 7.25 23.85 7.55 24.05 7.9 24.25 8.25 24.4 8.55 24.55 8.9 24.65 9.2 L24.8 9.45 24.85 9.3 Q25.05 8.85 25.35 7.8 25.65 6.7 25.85 6.0 26.05 5.1 26.2 4.15 26.35 3.25 26.4 2.35 26.5 1.4 26.5 0.5 26.55 -0.45 26.5 -1.4 26.45 -2.3 26.3 -3.2 26.2 -4.15 26.05 -5.05 25.85 -5.95 25.6 -6.85 25.4 -7.75 25.1 -8.6 24.5 -10.35 23.65 -12.05 22.8 -13.7 21.7 -15.2 20.65 -16.7 19.4 -18.05 18.15 -19.4 16.75 -20.55 15.35 -21.7 13.75 -22.65 12.2 -23.6 10.55 -24.35 8.85 -25.1 7.1 -25.55 5.3 -26.05 3.45 -26.3 3.1 -26.35 2.95 -26.35 2.9 -26.35 2.85 -26.35 2.8 -26.3 2.75 -26.1 M-4.8 -26.1 Q-7.4 -25.6 -9.8 -24.65 -12.15 -23.7 -14.3 -22.35 -16.4 -21.0 -18.2 -19.3 -20.0 -17.6 -21.45 -15.6 -22.9 -13.6 -23.95 -11.4 -25.0 -9.15 -25.65 -6.75 -26.3 -4.35 -26.45 -1.8 -26.65 0.75 -26.3 3.35 -26.25 3.8 -26.15 4.3 -26.1 4.75 -26.0 5.25 -25.9 5.7 -25.8 6.15 -25.7 6.65 -25.55 7.1 -25.45 7.55 -25.3 8.0 -25.15 8.45 -25.0 8.9 -24.8 9.35 -24.65 9.8 -24.45 10.25 -24.25 10.7 -24.2 10.85 -24.15 10.9 -24.15 11.0 -24.1 11.0 -24.1 11.05 -24.05 11.05 -24.05 11.05 -24.0 11.05 -23.95 11.0 -23.6 11.0 -23.1 10.95 -22.4 10.85 -21.65 10.75 -21.05 10.65 -19.25 10.25 -19.25 10.15 -19.25 10.15 -19.5 9.55 -19.8 8.95 -20.05 8.4 -20.3 7.8 -20.5 7.2 -20.75 6.6 -20.9 6.0 -21.1 5.4 -21.2 4.75 -21.35 4.15 -21.45 3.5 -21.55 2.9 -21.6 2.25 -21.7 1.6 -21.7 0.95 -21.75 0.3 -21.7 -0.35 -21.7 -1.25 -21.7 -1.65 -21.65 -2.05 -21.55 -2.8 -21.4 -4.1 -21.05 -5.4 -20.7 -6.7 -20.25 -7.95 -19.75 -9.15 -19.15 -10.3 -18.5 -11.5 -17.75 -12.55 -17.0 -13.65 -16.1 -14.6 -15.2 -15.6 -14.2 -16.45 -13.2 -17.3 -12.1 -18.05 -11.0 -18.8 -9.8 -19.4 -9.35 -19.65 -8.75 -19.9 -8.2 -20.15 -7.8 -20.3 -7.4 -20.45 -7.35 -20.45 -7.3 -20.4 -7.3 -20.45 -7.35 -20.45 -7.3 -20.5 -7.3 -20.55 -7.1 -21.1 -6.95 -21.4 -6.85 -21.75 -6.7 -22.05 -6.55 -22.4 -6.4 -22.7 -6.25 -23.0 -6.1 -23.3 -5.95 -23.6 -5.8 -23.9 -5.65 -24.2 -5.5 -24.45 -5.35 -24.75 -5.2 -25.0 -5.0 -25.25 -4.85 -25.5 -4.7 -25.75 -4.5 -25.95 -4.45 -26.1 -4.4 -26.15 -4.5 -26.15 -4.55 -26.15 -4.8 -26.1 M1.3 -14.3 Q1.75 -13.05 1.9 -12.95 1.9 -12.9 2.3 -12.85 3.15 -12.7 4.0 -12.4 4.8 -12.15 5.6 -11.75 6.4 -11.4 7.1 -10.9 7.85 -10.45 8.5 -9.9 9.15 -9.35 9.7 -8.7 10.3 -8.05 10.8 -7.35 11.25 -6.65 11.65 -5.9 12.05 -5.1 12.3 -4.3 L12.4 -4.05 12.65 -3.85 Q12.95 -3.65 13.5 -3.25 14.0 -2.9 14.3 -2.7 14.55 -2.5 14.6 -2.5 14.6 -2.55 14.55 -2.9 14.35 -4.0 13.95 -5.05 13.55 -6.1 13.05 -7.1 12.5 -8.05 11.85 -8.95 11.2 -9.8 10.4 -10.6 9.6 -11.35 8.7 -12.0 7.85 -12.65 6.85 -13.15 5.85 -13.65 4.8 -14.05 3.75 -14.4 2.65 -14.6 1.55 -14.8 1.2 -14.8 1.15 -14.8 1.2 -14.7 1.2 -14.6 1.3 -14.3 M-9.7 -11.25 Q-10.6 -10.45 -11.4 -9.5 -12.15 -8.6 -12.75 -7.6 -13.35 -6.55 -13.8 -5.5 -14.2 -4.4 -14.45 -3.25 -14.75 -2.1 -14.8 -0.95 -14.9 0.25 -14.75 1.4 -14.65 2.6 -14.35 3.75 -14.05 4.9 -13.55 6.05 -13.35 6.5 -13.35 6.55 -13.5 6.95 -12.45 5.5 -12.35 5.3 -12.25 5.25 -12.2 5.15 -12.15 5.05 -12.15 5.0 -12.1 4.95 -12.1 4.9 -12.1 4.9 -12.1 4.85 -12.1 4.8 -12.45 3.95 -12.65 3.05 -12.9 2.15 -13.0 1.3 -13.05 0.4 -13.05 -0.5 -13.0 -1.4 -12.85 -2.3 -12.65 -3.15 -12.4 -4.0 -12.1 -4.9 -11.7 -5.7 -11.3 -6.55 -10.75 -7.3 -10.25 -8.1 -9.6 -8.85 L-9.45 -9.0 -9.4 -9.6 Q-9.4 -10.05 -9.3 -10.9 -9.2 -11.6 -9.25 -11.6 -9.3 -11.55 -9.7 -11.25 M10.0 8.35 Q9.5 9.0 8.85 9.55 8.25 10.15 7.55 10.6 6.9 11.1 6.1 11.5 5.35 11.9 4.55 12.2 3.75 12.5 2.9 12.7 2.1 12.9 1.25 12.95 0.4 13.05 -0.45 13.05 -1.35 13.0 -2.15 12.85 L-2.4 12.8 -3.15 13.2 Q-3.4 13.3 -3.85 13.5 -4.3 13.75 -4.4 13.8 -4.85 14.0 -4.85 14.0 -4.75 14.1 -3.95 14.3 -3.2 14.5 -2.65 14.6 -2.35 14.65 -2.0 14.7 -1.7 14.75 -1.35 14.75 -1.0 14.8 -0.7 14.8 -0.35 14.8 0.0 14.8 0.35 14.8 0.7 14.8 1.0 14.8 1.35 14.75 1.7 14.75 2.0 14.7 2.35 14.65 2.65 14.6 3.35 14.45 4.0 14.3 4.65 14.1 5.3 13.85 5.95 13.6 6.6 13.3 7.2 13.0 7.8 12.65 8.35 12.25 8.9 11.85 9.45 11.45 10.0 11.0 10.5 10.5 10.95 10.0 11.4 9.5 11.85 8.95 L12.15 8.55 12.0 8.5 Q10.7 8.25 10.2 8.25 10.15 8.25 10.15 8.25 10.1 8.3 10.05 8.3 10.05 8.35 10.0 8.35 M17.9 12.35 Q17.05 13.6 16.0 14.75 14.95 15.85 13.8 16.8 12.65 17.75 11.35 18.55 10.05 19.3 8.7 19.9 7.3 20.5 5.85 20.95 4.4 21.35 2.9 21.55 1.4 21.75 -0.1 21.75 -1.65 21.75 -3.2 21.5 -3.85 21.4 -4.55 21.25 -5.2 21.1 -5.85 20.95 -6.5 20.75 -7.15 20.55 -7.75 20.3 -8.4 20.05 -9.0 19.8 -9.65 19.5 -10.25 19.2 -10.8 18.85 -11.4 18.5 -12.0 18.15 -12.55 17.75 -13.1 17.35 -13.65 16.95 -13.65 16.9 -13.65 16.9 -13.8 16.9 -13.95 16.95 -14.1 16.95 -14.45 17.0 -14.85 17.05 -15.2 17.1 -15.6 17.15 -16.0 17.2 -16.4 17.25 -16.8 17.25 -17.2 17.25 -17.6 17.3 -17.95 17.3 -18.35 17.3 -18.7 17.3 -19.05 17.25 -19.4 17.25 -19.7 17.2 -20.0 17.2 -20.2 17.15 -20.2 17.15 -20.25 17.25 -18.75 18.75 -17.45 20.05 -15.95 21.2 -14.5 22.3 -12.9 23.2 -11.3 24.05 -9.6 24.7 -7.95 25.35 -6.15 25.8 -4.4 26.2 -2.6 26.4 -0.8 26.55 1.0 26.5 2.85 26.45 4.65 26.1 6.45 25.8 8.25 25.2 9.2 24.9 10.1 24.5 11.05 24.15 11.95 23.7 12.85 23.25 13.7 22.7 14.55 22.2 15.35 21.6 16.2 21.05 16.95 20.4 17.7 19.75 18.45 19.05 19.15 18.35 19.8 17.65 20.5 16.9 21.1 16.1 L21.4 15.7 21.15 15.35 Q20.6 14.5 19.5 13.2 18.4 11.9 18.25 11.9 18.2 11.9 17.9 12.35" fill="#b40404" fill-rule="evenodd" stroke="none"/>
    <path d="M1.1 -21.65 Q1.05 -21.4 1.0 -21.15 0.95 -20.9 0.9 -20.7 0.85 -20.45 0.85 -20.25 0.8 -20.0 0.8 -19.8 0.75 -19.6 0.75 -19.4 0.7 -19.2 0.7 -19.0 0.7 -18.8 0.7 -18.6 0.65 -18.4 0.65 -18.2 0.65 -18.0 0.7 -18.0 0.7 -17.9 0.75 -17.9 0.8 -17.9 1.0 -17.9 1.35 -17.9 2.15 -17.8 3.0 -17.7 3.55 -17.55 5.1 -17.25 6.5 -16.65 7.95 -16.1 9.25 -15.35 10.5 -14.6 11.65 -13.6 12.8 -12.65 13.75 -11.5 14.7 -10.4 15.45 -9.1 16.2 -7.85 16.7 -6.45 17.25 -5.0 17.55 -3.55 17.85 -2.0 17.9 -0.45 L17.95 0.25 18.35 0.6 Q18.95 1.2 19.75 2.05 20.6 2.9 21.1 3.55 21.45 3.95 21.2 3.7 21.25 3.75 21.3 3.75 21.3 3.8 21.35 3.8 21.35 3.8 21.4 3.8 21.4 3.8 21.4 3.75 21.45 3.7 21.45 3.6 21.45 3.55 21.45 3.45 21.35 4.1 21.5 3.2 21.6 2.6 21.65 2.0 21.7 1.35 21.7 0.75 21.75 0.15 21.75 -0.45 21.7 -1.05 21.65 -1.65 21.6 -2.3 21.55 -2.9 21.45 -3.5 21.35 -4.05 21.25 -4.65 21.1 -5.25 20.95 -5.85 20.8 -6.4 20.3 -8.0 19.55 -9.5 18.85 -10.95 17.9 -12.3 16.95 -13.65 15.85 -14.85 14.75 -16.05 13.45 -17.05 12.2 -18.05 10.8 -18.9 9.4 -19.7 7.9 -20.3 6.4 -20.9 4.85 -21.25 3.25 -21.6 1.6 -21.7 1.55 -21.7 1.5 -21.7 1.45 -21.7 1.4 -21.7 1.4 -21.7 1.35 -21.7 1.3 -21.7 1.3 -21.7 1.25 -21.7 1.2 -21.7 1.2 -21.7 1.2 -21.7 1.2 -21.7 1.2 -21.7 1.1 -21.75 1.1 -21.65 M-7.85 -20.3 Q-9.25 -19.75 -10.55 -19.05 -11.8 -18.3 -13.0 -17.45 -14.15 -16.55 -15.2 -15.55 -16.25 -14.55 -17.1 -13.4 -18.0 -12.25 -18.75 -11.05 -19.5 -9.8 -20.05 -8.45 -20.6 -7.1 -21.0 -5.7 -21.35 -4.3 -21.55 -2.8 -21.65 -2.1 -21.7 -1.65 -21.7 -1.3 -21.7 -0.35 -21.7 0.3 -21.7 0.95 -21.65 1.6 -21.6 2.25 -21.55 2.9 -21.45 3.5 -21.35 4.1 -21.25 4.7 -21.1 5.35 -20.95 5.95 -20.75 6.55 -20.55 7.15 -20.35 7.75 -20.1 8.3 -19.85 8.9 -19.55 9.5 L-19.25 10.15 -18.75 10.0 Q-18.6 9.95 -18.4 9.9 -18.25 9.8 -18.1 9.75 -17.9 9.7 -17.75 9.6 -17.6 9.55 -17.45 9.5 -17.25 9.4 -17.1 9.35 -16.95 9.25 -16.8 9.15 -16.65 9.1 -16.5 9.0 -16.35 8.9 -16.2 8.85 L-15.75 8.6 -16.0 8.0 Q-16.5 7.0 -16.9 5.9 -17.3 4.85 -17.5 3.75 -17.75 2.65 -17.85 1.5 -17.95 0.4 -17.9 -0.7 -17.85 -1.85 -17.7 -2.95 -17.5 -4.05 -17.15 -5.15 -16.85 -6.2 -16.4 -7.25 -15.9 -8.3 -15.35 -9.3 -15.05 -9.75 -14.75 -10.2 -14.45 -10.65 -14.1 -11.1 -13.75 -11.55 -13.35 -11.95 -13.0 -12.35 -12.6 -12.75 -12.2 -13.15 -11.8 -13.5 -11.35 -13.85 -10.95 -14.2 -10.5 -14.55 -10.05 -14.85 -9.55 -15.15 -9.1 -15.45 -8.6 -15.75 -8.55 -15.8 -8.55 -15.85 -8.45 -16.45 -8.4 -16.65 -8.35 -16.9 -8.3 -17.1 -8.25 -17.3 -8.2 -17.55 -8.15 -17.75 -8.05 -18.0 -8.0 -18.2 -7.95 -18.45 -7.9 -18.65 -7.8 -18.9 -7.75 -19.1 -7.7 -19.3 -7.65 -19.55 -7.55 -19.75 -7.5 -19.95 -7.3 -20.5 -7.3 -20.5 -7.3 -20.5 -7.85 -20.3 M0.85 -16.2 Q0.85 -16.0 1.0 -15.4 1.15 -14.8 1.2 -14.8 1.3 -14.8 1.5 -14.8 1.65 -14.75 1.85 -14.75 2.05 -14.7 2.25 -14.65 2.5 -14.65 2.75 -14.6 3.0 -14.55 3.2 -14.45 3.45 -14.4 3.7 -14.35 3.95 -14.3 4.15 -14.25 4.4 -14.2 4.55 -14.1 5.5 -13.8 6.4 -13.35 7.3 -12.95 8.15 -12.4 9.0 -11.85 9.75 -11.2 10.45 -10.55 11.15 -9.8 11.8 -9.05 12.35 -8.25 12.9 -7.4 13.3 -6.55 13.75 -5.65 14.1 -4.7 14.4 -3.75 14.55 -2.8 L14.65 -2.45 14.95 -2.2 Q15.2 -2.05 15.8 -1.6 16.35 -1.1 16.25 -1.2 16.25 -1.2 16.2 -1.4 16.2 -1.65 16.15 -1.85 16.0 -3.15 15.65 -4.4 15.3 -5.65 14.75 -6.8 14.25 -7.95 13.55 -9.0 12.85 -10.05 12.0 -11.0 11.15 -11.95 10.15 -12.75 9.15 -13.5 8.05 -14.15 6.95 -14.8 5.75 -15.25 4.5 -15.7 3.2 -15.95 0.85 -16.45 0.85 -16.2 M-9.35 -13.3 Q-10.55 -12.45 -11.6 -11.4 -12.6 -10.4 -13.45 -9.2 -14.25 -8.0 -14.8 -6.7 -15.4 -5.4 -15.75 -4.0 -16.1 -2.6 -16.2 -1.2 -16.35 0.25 -16.2 1.65 -16.05 3.1 -15.65 4.45 -15.25 5.9 -14.6 7.2 L-14.4 7.6 -14.05 7.25 Q-13.35 6.65 -13.35 6.55 -13.35 6.5 -13.55 6.05 -13.85 5.35 -14.1 4.65 -14.3 3.95 -14.5 3.25 -14.65 2.5 -14.7 1.8 -14.8 1.05 -14.85 0.3 -14.85 -0.4 -14.8 -1.15 -14.75 -1.9 -14.6 -2.6 -14.45 -3.35 -14.25 -4.05 -14.05 -4.8 -13.8 -5.45 -13.65 -5.9 -13.4 -6.3 -13.2 -6.75 -13.0 -7.15 -12.75 -7.6 -12.45 -8.0 -12.2 -8.45 -11.9 -8.8 -11.6 -9.2 -11.3 -9.6 -11.0 -9.95 -10.65 -10.3 -10.35 -10.65 -10.0 -10.95 -9.65 -11.3 -9.3 -11.55 -9.25 -11.6 -9.25 -11.65 -9.25 -11.7 -9.2 -11.8 -9.2 -11.9 -9.15 -12.25 -9.05 -13.05 -9.0 -13.2 -8.95 -13.55 -9.0 -13.55 -9.05 -13.55 -9.35 -13.3 M11.9 8.85 Q11.25 9.8 10.4 10.6 9.6 11.4 8.65 12.05 7.7 12.7 6.7 13.25 5.7 13.75 4.6 14.1 3.5 14.45 2.35 14.65 1.25 14.8 0.1 14.85 -1.05 14.85 -2.2 14.65 -3.35 14.5 -4.45 14.15 L-4.9 14.0 -5.3 14.2 Q-5.75 14.4 -6.25 14.6 L-6.75 14.8 -6.45 14.95 Q-5.85 15.2 -5.25 15.4 -4.6 15.65 -3.95 15.8 -3.35 15.95 -2.7 16.05 -2.05 16.15 -1.35 16.2 -0.7 16.25 -0.05 16.25 0.6 16.25 1.3 16.2 1.95 16.15 2.6 16.05 3.25 15.95 3.9 15.8 4.6 15.65 5.3 15.4 5.95 15.15 6.65 14.85 7.3 14.55 7.9 14.2 8.55 13.85 9.15 13.45 9.75 13.05 10.3 12.6 10.85 12.15 11.4 11.6 11.9 11.1 12.4 10.55 12.85 10.0 13.3 9.4 L13.6 9.0 13.25 8.85 Q12.2 8.55 12.15 8.55 12.1 8.55 11.9 8.85 M14.85 10.05 Q13.95 11.35 12.85 12.45 11.8 13.55 10.55 14.45 9.35 15.35 8.0 16.05 6.65 16.7 5.25 17.15 3.8 17.6 2.35 17.75 0.85 17.95 -0.65 17.9 -2.2 17.85 -3.7 17.55 -5.2 17.2 -6.65 16.65 -8.85 15.75 -8.8 15.6 -8.75 15.6 -8.85 15.6 -8.85 15.6 -8.95 15.65 -9.0 15.65 -9.1 15.7 -9.2 15.75 -9.3 15.75 -9.55 15.85 -9.8 15.9 -10.0 16.0 -10.25 16.05 -10.5 16.15 -10.75 16.2 -11.0 16.25 -11.25 16.35 -11.5 16.4 -11.75 16.45 -12.0 16.55 -12.2 16.6 -12.45 16.65 -12.65 16.7 -12.9 16.75 -13.1 16.8 -13.65 16.9 -13.65 16.9 -13.65 16.95 -13.1 17.35 -12.1 18.1 -11.05 18.7 -10.0 19.35 -8.9 19.85 -7.75 20.35 -6.6 20.7 -5.45 21.1 -4.25 21.3 -3.1 21.55 -1.85 21.65 -0.65 21.75 0.55 21.75 1.8 21.7 3.0 21.55 4.2 21.35 5.4 21.05 6.35 20.8 7.25 20.5 8.2 20.15 9.1 19.75 9.95 19.35 10.8 18.85 11.65 18.35 12.45 17.8 13.25 17.25 14.0 16.6 14.75 16.0 15.45 15.3 16.15 14.6 16.75 13.85 17.4 13.1 17.95 12.3 L18.2 11.9 17.85 11.55 Q17.7 11.4 17.5 11.3 17.35 11.15 17.15 11.0 16.95 10.85 16.75 10.7 16.55 10.55 16.35 10.45 16.15 10.3 16.0 10.15 15.8 10.05 15.65 9.95 15.5 9.85 15.35 9.8 15.25 9.7 15.15 9.7 15.15 9.7 15.1 9.7 15.05 9.75 15.0 9.8 14.95 9.9 14.85 10.05" fill="#bc0404" fill-rule="evenodd" stroke="none"/>
    <path d="M0.7 -17.7 Q0.7 -17.6 0.7 -17.2 0.7 -17.1 0.75 -16.7 0.8 -16.4 0.85 -16.3 0.85 -16.25 0.9 -16.25 0.95 -16.25 1.2 -16.25 2.6 -16.15 4.0 -15.8 5.3 -15.5 6.6 -14.9 7.85 -14.3 9.05 -13.55 10.2 -12.75 11.2 -11.8 12.2 -10.8 13.05 -9.7 13.9 -8.6 14.5 -7.35 15.15 -6.1 15.55 -4.75 16.0 -3.4 16.15 -1.95 16.15 -1.8 16.2 -1.6 16.25 -1.35 16.2 -1.35 16.2 -1.3 16.25 -1.25 16.25 -1.25 16.3 -1.15 16.35 -1.1 16.5 -1.0 16.55 -0.95 16.75 -0.75 16.95 -0.6 17.25 -0.35 17.45 -0.2 17.6 -0.05 L17.95 0.25 17.9 -0.45 Q17.85 -2.2 17.45 -3.9 17.1 -5.55 16.45 -7.1 15.8 -8.6 14.85 -10.0 13.95 -11.35 12.8 -12.55 11.65 -13.7 10.35 -14.65 9.0 -15.6 7.45 -16.3 5.95 -17.0 4.3 -17.4 2.65 -17.8 0.9 -17.9 L0.65 -17.9 0.7 -17.7 M-9.15 -15.4 Q-10.65 -14.5 -11.95 -13.35 -13.2 -12.25 -14.2 -10.9 -15.25 -9.6 -16.0 -8.1 -16.75 -6.65 -17.2 -5.05 -17.65 -3.45 -17.85 -1.85 -18.0 -0.2 -17.85 1.45 -17.7 3.15 -17.25 4.8 -16.8 6.45 -16.05 8.0 -15.95 8.15 -15.85 8.4 -15.75 8.55 -15.75 8.55 -15.7 8.6 -15.05 8.1 -14.4 7.6 -14.4 7.55 -14.4 7.55 -14.6 7.15 -15.25 5.85 -15.65 4.45 -16.05 3.05 -16.2 1.6 -16.35 0.2 -16.2 -1.25 -16.1 -2.65 -15.75 -4.05 -15.4 -5.4 -14.8 -6.7 -14.25 -8.0 -13.45 -9.2 -12.6 -10.4 -11.6 -11.4 -10.6 -12.45 -9.4 -13.3 -9.05 -13.5 -9.0 -13.6 -8.95 -13.6 -8.85 -14.3 -8.75 -15.05 -8.65 -15.4 -8.6 -15.7 -8.6 -15.7 -8.6 -15.75 -9.15 -15.4 M13.4 9.2 Q12.6 10.35 11.65 11.4 10.65 12.35 9.55 13.2 8.4 14.0 7.15 14.6 5.9 15.2 4.6 15.6 3.25 16.0 1.9 16.15 0.5 16.3 -0.85 16.25 -2.25 16.2 -3.6 15.9 -5.0 15.55 -6.3 15.0 L-6.75 14.8 -7.45 15.1 Q-7.65 15.15 -8.0 15.3 -8.35 15.45 -8.45 15.45 -8.5 15.5 -8.65 15.55 -8.75 15.6 -8.75 15.6 -8.8 15.65 -7.95 16.05 -7.15 16.45 -6.65 16.65 -5.3 17.2 -3.9 17.5 -2.5 17.8 -1.1 17.9 0.3 17.95 1.65 17.85 3.05 17.7 4.4 17.35 5.75 17.05 7.0 16.5 8.3 15.95 9.5 15.2 10.7 14.45 11.75 13.55 12.85 12.6 13.75 11.5 15.2 9.75 15.1 9.65 15.05 9.6 14.35 9.3 13.65 9.0 13.6 9.0 13.55 9.0 13.4 9.2" fill="#c40404" fill-rule="evenodd" stroke="none"/>
  </g>
</svg>
