<?xml version="1.0" encoding="UTF-8" standalone="no"?>
<svg xmlns:ffdec="https://www.free-decompiler.com/flash" xmlns:xlink="http://www.w3.org/1999/xlink" ffdec:objectType="shape" height="18.05px" width="4.0px" xmlns="http://www.w3.org/2000/svg">
  <g transform="matrix(1.0, 0.0, 0.0, 1.0, 2.0, 15.85)">
    <path d="M0.5 -15.85 L2.0 -15.85 2.0 -0.6 1.5 -0.6 0.5 -0.6 -0.5 -0.6 -1.5 -0.6 -2.0 -0.6 -2.0 -15.85 -0.5 -15.85 0.0 -13.35 0.5 -15.85 M2.0 0.6 L2.0 2.2 -2.0 2.2 -2.0 0.6 -1.5 0.6 -0.5 0.6 0.5 0.6 1.5 0.6 2.0 0.6" fill="#3c0057" fill-rule="evenodd" stroke="none"/>
    <path d="M0.5 -0.6 L1.5 -0.6 1.5 0.6 0.5 0.6 0.5 -0.6 M-0.5 0.6 L-1.5 0.6 -1.5 -0.6 -0.5 -0.6 -0.5 0.6" fill="#66666f" fill-rule="evenodd" stroke="none"/>
    <path d="M2.0 -0.6 L2.0 0.6 1.5 0.6 1.5 -0.6 2.0 -0.6 M-2.0 0.6 L-2.0 -0.6 -1.5 -0.6 -1.5 0.6 -2.0 0.6 M0.5 -0.6 L0.5 0.6 -0.5 0.6 -0.5 -0.6 0.5 -0.6" fill="#333333" fill-rule="evenodd" stroke="none"/>
    <path d="M0.0 -15.85 L0.5 -15.85 0.0 -13.35 0.0 -15.85" fill="#262633" fill-rule="evenodd" stroke="none"/>
    <path d="M-0.5 -15.85 L0.0 -15.85 0.0 -13.35 -0.5 -15.85" fill="#3c3c51" fill-rule="evenodd" stroke="none"/>
    <path d="M0.5 -15.85 L0.0 -13.35 -0.5 -15.85 -2.0 -15.85 -2.0 -0.6 -1.5 -0.6 -0.5 -0.6 0.5 -0.6 1.5 -0.6 2.0 -0.6 2.0 -15.85 0.5 -15.85 -0.5 -15.85 M2.0 0.6 L1.5 0.6 0.5 0.6 -0.5 0.6 -1.5 0.6 -2.0 0.6 -2.0 2.2 2.0 2.2 2.0 0.6 2.0 -0.6 M1.5 0.6 L1.5 -0.6 M0.5 0.6 L0.5 -0.6 M-1.5 0.6 L-1.5 -0.6 M-0.5 -0.6 L-0.5 0.6 M-2.0 -0.6 L-2.0 0.6" fill="none" stroke="#000000" stroke-linecap="round" stroke-linejoin="round" stroke-width="0.05"/>
  </g>
</svg>
