<?xml version="1.0" encoding="UTF-8" standalone="no"?>
<svg xmlns:ffdec="https://www.free-decompiler.com/flash" xmlns:xlink="http://www.w3.org/1999/xlink" ffdec:objectType="shape" height="69.0px" width="69.0px" xmlns="http://www.w3.org/2000/svg">
  <g transform="matrix(1.0, 0.0, 0.0, 1.0, 34.5, 34.5)">
    <path d="M-27.3 -24.35 Q-25.75 -26.2 -23.8 -27.6 -21.95 -28.95 -19.65 -29.95 -17.55 -30.9 -15.0 -31.5 -12.65 -32.1 -9.9 -32.45 -7.4 -32.75 -4.45 -32.9 -1.9 -33.0 1.25 -33.0 3.5 -33.0 7.1 -32.9 12.05 -32.8 12.95 -32.8 13.2 -32.8 13.5 -32.8 13.75 -32.8 14.1 -32.85 14.25 -32.85 14.65 -32.9 15.0 -32.9 15.25 -32.9 15.55 -32.95 15.8 -32.95 16.1 -32.95 16.35 -32.95 16.65 -32.95 16.85 -32.9 17.15 -32.85 17.35 -32.8 17.75 -32.7 18.2 -32.45 18.6 -32.25 19.05 -31.9 19.5 -31.55 19.9 -31.15 20.35 -30.7 20.75 -30.25 21.15 -29.75 21.5 -29.25 21.85 -28.75 22.2 -28.2 22.55 -27.7 22.85 -27.15 23.15 -26.65 23.35 -26.15 23.85 -25.15 24.45 -22.8 25.1 -20.5 25.5 -19.7 25.9 -18.8 26.6 -17.85 27.1 -17.15 27.9 -16.25 27.65 -16.5 29.25 -14.75 30.1 -13.85 30.6 -13.2 31.25 -12.3 31.7 -11.45 32.25 -10.45 32.5 -9.4 32.8 -8.2 32.85 -6.85 32.85 -5.4 32.55 -3.7 32.4 -2.9 32.1 -2.2 31.85 -1.5 31.5 -0.85 31.15 -0.25 30.7 0.4 30.3 0.85 29.75 1.55 21.6 11.5 28.8 2.7 28.25 3.4 27.85 3.9 27.35 4.6 26.95 5.25 26.5 6.0 26.2 6.75 25.85 7.55 25.45 9.15 25.05 10.75 24.75 11.4 24.3 12.35 23.7 13.3 23.15 14.2 22.35 15.05 21.65 15.9 20.8 16.7 19.95 17.5 19.0 18.25 18.15 18.95 17.1 19.7 16.2 20.35 15.15 21.05 14.2 21.6 13.15 22.25 12.25 22.8 11.2 23.4 10.5 23.8 9.7 24.3 9.05 24.7 8.2 25.25 8.0 25.4 6.7 26.25 5.75 26.85 5.15 27.25 4.35 27.75 3.65 28.15 2.85 28.65 2.2 29.0 1.4 29.45 0.75 29.75 0.0 30.1 -0.65 30.3 -2.1 30.8 -5.0 31.5 -9.9 32.65 -10.2 32.75 -11.2 33.0 -12.15 33.2 -13.15 33.45 -14.15 33.6 -15.15 33.75 -16.1 33.85 -17.15 33.95 -18.1 33.95 -19.1 34.0 -20.0 33.9 -21.0 33.85 -21.85 33.7 -22.75 33.5 -23.6 33.2 -24.45 32.95 -25.2 32.55 -25.6 32.35 -26.0 32.05 -26.4 31.75 -26.8 31.4 -27.2 31.05 -27.55 30.65 -27.95 30.3 -28.3 29.85 -28.65 29.4 -28.95 28.95 -29.25 28.5 -29.45 28.0 -29.7 27.55 -29.9 27.05 -30.05 26.55 -30.15 26.1 -30.35 25.0 -30.35 23.65 -30.4 22.45 -30.3 20.9 -30.2 19.65 -30.0 17.95 -29.95 17.4 -29.65 14.85 -29.45 12.9 -29.3 11.7 -29.15 9.95 -29.1 8.55 -29.05 6.95 -29.1 5.55 -29.2 4.05 -29.45 2.75 -29.6 1.9 -29.9 0.95 -30.15 0.2 -30.5 -0.7 -30.65 -1.1 -31.15 -2.35 -31.6 -3.4 -31.8 -4.0 -32.15 -4.95 -32.35 -5.7 -32.6 -6.65 -32.75 -7.55 -32.85 -8.5 -32.85 -9.5 -32.8 -10.6 -32.6 -11.7 -32.45 -12.6 -32.1 -13.4 -31.75 -14.1 -31.3 -14.8 -30.95 -15.25 -30.4 -15.95 -29.5 -17.0 -29.4 -17.1 -28.9 -17.75 -28.55 -18.35 -28.1 -19.05 -27.8 -19.85 -27.5 -20.75 -27.35 -21.8 -27.25 -22.95 -27.3 -24.35 L-27.3 -24.35" fill="#ffffff" fill-rule="evenodd" stroke="none"/>
    <path d="M0.75 -24.35 Q0.55 -24.15 0.4 -23.95 0.2 -23.75 0.05 -23.55 -0.1 -23.3 -0.2 -23.1 -0.35 -22.85 -0.5 -22.6 -0.6 -22.3 -0.7 -22.05 -0.8 -21.7 -0.85 -21.4 -0.95 -21.05 -0.95 -20.7 -1.0 -20.3 -1.0 -19.9 -1.15 -20.25 -1.2 -20.6 -1.25 -20.95 -1.25 -21.35 -1.25 -21.7 -1.2 -22.05 -1.1 -22.4 -1.0 -22.75 -0.85 -23.05 -0.7 -23.35 -0.5 -23.6 -0.3 -23.85 -0.05 -24.05 0.2 -24.2 0.45 -24.3 0.75 -24.35 L0.75 -24.35" fill="#000000" fill-rule="evenodd" stroke="none"/>
    <path d="M-11.05 -21.7 Q-10.8 -21.9 -10.55 -21.85 -10.35 -21.8 -10.15 -21.55 -10.0 -21.35 -9.85 -20.95 -9.75 -20.6 -9.7 -20.15 -9.6 -19.75 -9.6 -19.25 -9.6 -18.8 -9.6 -18.4 -9.65 -17.95 -9.75 -17.6 -9.85 -17.25 -10.0 -17.0 -10.0 -17.45 -9.95 -17.8 -9.95 -18.2 -9.95 -18.55 -10.0 -18.95 -10.0 -19.25 -10.05 -19.6 -10.1 -19.9 -10.15 -20.25 -10.25 -20.5 -10.3 -20.8 -10.45 -21.0 -10.55 -21.2 -10.7 -21.4 -10.85 -21.55 -11.05 -21.7 L-11.05 -21.7" fill="#000000" fill-rule="evenodd" stroke="none"/>
    <path d="M14.35 -14.35 Q14.15 -14.05 13.85 -13.85 13.65 -13.65 13.35 -13.55 13.1 -13.5 12.8 -13.5 12.55 -13.5 12.25 -13.6 12.0 -13.65 11.65 -13.8 11.6 -13.8 11.0 -14.0 10.65 -14.15 10.4 -14.2 10.05 -14.3 9.75 -14.35 9.1 -14.45 8.4 -14.45 7.75 -14.45 7.05 -14.35 6.45 -14.25 5.75 -14.05 5.15 -13.9 4.5 -13.65 3.9 -13.4 3.3 -13.15 2.75 -12.9 2.15 -12.6 1.65 -12.35 1.05 -12.0 1.35 -12.15 0.05 -11.45 -1.0 -12.1 -1.55 -12.9 -2.0 -13.6 -2.05 -14.4 -2.1 -15.1 -1.7 -15.85 -1.35 -16.55 -0.65 -17.2 0.05 -17.85 0.95 -18.35 1.9 -18.9 2.95 -19.25 4.0 -19.65 5.1 -19.8 6.25 -20.0 7.3 -19.9 8.0 -19.85 8.7 -19.75 9.35 -19.6 9.95 -19.4 10.55 -19.15 11.1 -18.9 11.6 -18.6 12.05 -18.25 12.5 -17.85 12.9 -17.45 13.25 -17.0 13.55 -16.5 13.85 -16.05 14.05 -15.5 14.25 -14.95 14.35 -14.35 L14.35 -14.35 M4.45 -18.15 Q4.15 -17.95 3.75 -17.75 3.45 -17.6 2.95 -17.4 2.25 -17.1 2.2 -17.1 1.75 -16.9 1.45 -16.7 1.05 -16.5 0.75 -16.25 0.45 -16.0 0.25 -15.65 0.0 -15.25 -0.15 -14.8 -0.3 -14.3 -0.3 -13.7 0.15 -13.65 0.55 -13.75 0.9 -13.8 1.25 -13.95 1.55 -14.1 1.9 -14.3 2.1 -14.4 2.45 -14.7 2.85 -14.95 3.0 -15.05 3.35 -15.3 3.65 -15.4 4.0 -15.55 4.35 -15.65 4.75 -15.7 5.15 -15.7 5.1 -15.85 5.1 -16.0 5.05 -16.15 5.05 -16.35 5.05 -16.3 5.0 -16.75 4.95 -16.95 4.95 -17.1 4.9 -17.25 4.9 -17.4 4.85 -17.6 4.8 -17.7 4.75 -17.85 4.65 -17.95 4.6 -18.05 4.45 -18.15 L4.45 -18.15 M12.6 -15.25 Q12.55 -15.45 12.5 -15.6 12.45 -15.75 12.35 -15.9 12.3 -16.05 12.2 -16.15 12.1 -16.25 11.95 -16.35 11.85 -16.4 11.7 -16.5 11.55 -16.55 11.4 -16.55 11.2 -16.6 11.05 -16.6 10.85 -16.6 10.65 -16.6 10.65 -16.35 10.7 -16.15 10.7 -16.0 10.85 -15.85 10.9 -15.75 11.05 -15.7 11.2 -15.65 11.35 -15.6 11.5 -15.6 11.7 -15.55 11.95 -15.5 12.05 -15.5 12.2 -15.45 12.35 -15.4 12.5 -15.35 12.6 -15.25 L12.6 -15.25" fill="#000000" fill-rule="evenodd" stroke="none"/>
    <path d="M-8.95 -14.35 Q-8.85 -14.4 -8.65 -14.45 -8.45 -14.5 -8.35 -14.55 -8.15 -14.6 -8.05 -14.65 -7.85 -14.65 -7.75 -14.7 -7.6 -14.7 -7.45 -14.7 -7.3 -14.7 -7.2 -14.65 -7.05 -14.6 -6.9 -14.55 -6.8 -14.45 -6.65 -14.35 -6.65 -14.05 -6.75 -13.8 -6.8 -13.6 -6.9 -13.4 -7.05 -13.25 -7.2 -13.1 -7.35 -13.0 -7.5 -12.9 -7.65 -12.8 -7.9 -12.7 -9.25 -12.1 -8.25 -12.55 -8.5 -12.45 -8.6 -12.35 -8.8 -12.25 -8.95 -12.15 -8.95 -10.75 -8.95 -7.9 -9.1 -7.7 -9.35 -7.5 -9.55 -7.35 -9.75 -7.15 -9.9 -7.05 -10.2 -6.8 -10.5 -6.6 -10.65 -6.5 -10.9 -6.3 -11.05 -6.15 -11.3 -5.95 -11.45 -5.75 -11.65 -5.55 -11.8 -5.3 -12.0 -5.05 -12.15 -4.8 -12.05 -4.45 -11.9 -4.1 -11.75 -3.8 -11.6 -3.45 -11.45 -3.15 -11.3 -2.85 -11.1 -2.6 -10.9 -2.35 -10.75 -2.05 -10.5 -1.85 -10.3 -1.6 -10.1 -1.35 -9.85 -1.15 -9.6 -0.95 -9.4 -0.75 -9.15 -0.6 -9.0 -0.6 -8.85 -0.65 -8.7 -0.7 -8.55 -0.8 -8.45 -0.9 -8.3 -1.0 -8.1 -1.15 -8.1 -1.2 -7.95 -1.3 -7.85 -1.35 -7.75 -1.4 -7.6 -1.45 -7.45 -1.45 -7.35 -1.4 -7.15 -1.35 -7.0 -1.25 -7.25 -0.25 -7.6 0.3 -7.9 0.85 -8.3 1.0 -8.7 1.2 -9.15 1.05 -9.6 0.95 -10.05 0.6 -10.5 0.25 -10.95 -0.25 -11.4 -0.7 -11.8 -1.25 -12.2 -1.75 -12.6 -2.3 -12.85 -2.75 -13.2 -3.25 -13.3 -3.2 -13.35 -3.1 -13.45 -3.05 -13.5 -2.95 -13.5 -2.95 -13.65 -2.8 -13.7 -2.7 -13.8 -2.65 -13.85 -2.6 -13.95 -2.5 -14.0 -2.45 -14.1 -2.4 -14.2 -2.35 -14.35 -2.35 -14.45 -2.35 -14.6 -2.35 -14.6 -2.5 -14.6 -2.6 -14.6 -2.7 -14.6 -2.8 -14.6 -2.9 -14.65 -2.95 -14.65 -3.05 -14.7 -3.1 -14.75 -3.15 -14.75 -3.25 -14.85 -3.35 -14.85 -3.4 -14.9 -3.45 -14.9 -3.55 -14.95 -3.6 -14.95 -3.7 -15.2 -3.65 -15.45 -3.5 -15.65 -3.4 -15.85 -3.25 -16.05 -3.1 -16.25 -2.95 -16.6 -2.7 -16.65 -2.65 -16.9 -2.45 -17.1 -2.35 -17.3 -2.2 -17.55 -2.1 -17.8 -2.0 -18.05 -1.95 -18.35 -1.9 -18.65 -1.9 -18.05 -2.25 -17.5 -2.65 -16.95 -3.0 -16.4 -3.45 -15.9 -3.85 -15.35 -4.35 -14.9 -4.75 -14.35 -5.25 -14.0 -5.65 -13.35 -6.2 -12.6 -6.95 -12.4 -7.2 -11.85 -7.7 -11.4 -8.1 -10.85 -8.6 -10.35 -9.0 -10.35 -10.05 -10.35 -12.15 -10.75 -12.55 -11.35 -12.8 -11.85 -13.05 -12.5 -13.2 -13.05 -13.35 -13.8 -13.45 -14.35 -13.55 -15.2 -13.6 -16.3 -13.7 -16.6 -13.75 -17.35 -13.85 -17.95 -13.95 -18.65 -14.1 -19.15 -14.25 -19.8 -14.5 -20.25 -14.8 -19.95 -15.75 -19.4 -16.4 -18.85 -17.05 -18.1 -17.4 -17.35 -17.75 -16.45 -17.85 -15.65 -17.9 -14.7 -17.8 -13.8 -17.65 -12.9 -17.35 -12.05 -17.05 -11.25 -16.55 -10.5 -16.1 -9.9 -15.55 -9.3 -14.95 -8.95 -14.35 L-8.95 -14.35 M-17.8 -15.7 Q-17.65 -15.6 -17.45 -15.55 -17.25 -15.5 -17.05 -15.5 -16.85 -15.45 -16.65 -15.45 -16.45 -15.45 -16.25 -15.5 -16.05 -15.5 -15.8 -15.55 -15.6 -15.6 -15.45 -15.65 -15.25 -15.7 -15.1 -15.75 -14.9 -15.85 -14.8 -15.9 -14.95 -16.0 -15.15 -16.05 -15.3 -16.1 -15.5 -16.1 -15.7 -16.15 -15.9 -16.15 -16.1 -16.15 -16.35 -16.1 -16.55 -16.1 -16.75 -16.05 -16.95 -16.0 -17.1 -15.95 -17.3 -15.9 -17.45 -15.85 -17.65 -15.75 -17.8 -15.7 L-17.8 -15.7" fill="#000000" fill-rule="evenodd" stroke="none"/>
    <path d="M15.05 -15.9 Q15.2 -16.0 15.35 -16.0 15.5 -16.0 15.7 -16.0 15.85 -15.95 16.05 -15.9 16.15 -15.85 16.4 -15.75 16.7 -15.65 16.8 -15.6 17.0 -15.55 17.2 -15.5 17.45 -15.45 17.65 -15.45 17.85 -15.45 18.05 -15.45 18.05 -15.25 18.0 -15.05 17.95 -14.9 17.8 -14.75 17.7 -14.65 17.55 -14.55 17.4 -14.45 17.2 -14.4 17.0 -14.35 16.85 -14.35 16.65 -14.3 16.45 -14.35 16.25 -14.35 16.1 -14.45 15.9 -14.5 15.75 -14.6 15.75 -14.7 15.8 -14.75 15.85 -14.8 15.95 -14.85 16.05 -14.85 16.15 -14.85 16.25 -14.85 16.4 -14.8 16.55 -14.8 16.6 -14.75 16.75 -14.75 16.8 -14.8 16.9 -14.8 16.95 -14.85 17.0 -14.9 17.0 -15.0 16.9 -15.05 16.75 -15.1 16.65 -15.15 16.5 -15.2 16.4 -15.25 16.25 -15.3 16.05 -15.35 16.0 -15.4 15.85 -15.45 15.7 -15.5 15.6 -15.55 15.45 -15.6 15.35 -15.65 15.25 -15.75 15.15 -15.8 15.05 -15.9 L15.05 -15.9" fill="#000000" fill-rule="evenodd" stroke="none"/>
    <path d="M-20.95 -15.0 Q-21.8 -15.1 -22.6 -15.05 -23.45 -15.0 -24.25 -14.85 -25.05 -14.65 -25.8 -14.35 -26.55 -14.05 -27.2 -13.65 -27.9 -13.2 -28.45 -12.6 -29.0 -12.05 -29.4 -11.35 -29.8 -10.6 -30.05 -9.75 -30.3 -8.9 -30.3 -7.9 -30.3 -7.75 -30.3 -7.55 -30.3 -7.4 -30.3 -7.15 -30.3 -6.95 -30.3 -6.7 -30.25 -6.5 -30.25 -6.25 -30.2 -6.0 -30.2 -5.75 -30.15 -5.5 -30.1 -5.25 -30.05 -5.0 -29.95 -4.8 -29.9 -4.55 -29.8 -4.35 -29.65 -4.05 -29.45 -3.85 -29.25 -3.65 -29.0 -3.5 -28.75 -3.35 -28.45 -3.25 -28.7 -3.3 -27.95 -3.0 -27.65 -2.9 -27.45 -2.8 -27.15 -2.65 -26.95 -2.45 -26.7 -2.25 -26.55 -1.95 -26.35 -1.65 -26.25 -1.25 -26.85 -1.45 -27.4 -1.7 -27.9 -1.95 -28.35 -2.25 -28.8 -2.55 -29.15 -2.95 -29.55 -3.3 -29.8 -3.75 -30.1 -4.2 -30.25 -4.75 -30.45 -5.25 -30.55 -5.85 -30.7 -6.45 -30.7 -7.15 -30.75 -7.8 -30.65 -8.6 -30.55 -9.65 -30.3 -10.55 -30.05 -11.4 -29.65 -12.15 -29.25 -12.85 -28.7 -13.4 -28.15 -13.95 -27.5 -14.4 -26.8 -14.75 -26.05 -15.0 -25.3 -15.25 -24.5 -15.35 -23.65 -15.4 -22.75 -15.35 -21.85 -15.25 -20.95 -15.0 L-20.95 -15.0" fill="#000000" fill-rule="evenodd" stroke="none"/>
    <path d="M28.85 -11.0 Q28.6 -11.55 28.3 -12.05 28.0 -12.5 27.65 -12.9 27.3 -13.3 26.85 -13.6 26.45 -13.95 25.95 -14.15 25.45 -14.4 24.9 -14.55 24.35 -14.7 23.75 -14.8 23.15 -14.85 22.45 -14.85 21.8 -14.85 21.05 -14.8 21.6 -14.95 22.25 -15.05 22.85 -15.1 23.45 -15.1 24.1 -15.1 24.7 -14.95 25.35 -14.85 25.9 -14.6 26.45 -14.4 26.95 -14.05 27.45 -13.75 27.8 -13.3 28.2 -12.85 28.45 -12.3 28.75 -11.7 28.85 -11.0 L28.85 -11.0" fill="#000000" fill-rule="evenodd" stroke="none"/>
    <path d="M15.05 -13.7 Q15.1 -13.8 15.15 -13.85 15.2 -13.9 15.3 -13.95 15.35 -13.95 15.45 -13.9 15.5 -13.9 15.6 -13.85 15.65 -13.8 15.75 -13.75 14.25 -14.9 15.85 -13.6 15.95 -13.55 16.0 -13.5 16.05 -13.5 16.1 -13.45 16.05 -13.35 16.0 -13.25 15.95 -13.2 15.85 -13.2 15.8 -13.2 15.7 -13.2 15.65 -13.25 15.55 -13.3 15.5 -13.3 15.4 -13.4 15.35 -13.45 15.25 -13.5 15.25 -13.55 15.15 -13.6 15.1 -13.65 15.05 -13.7 L15.05 -13.7" fill="#000000" fill-rule="evenodd" stroke="none"/>
    <path d="M6.95 -13.45 Q7.3 -13.4 7.6 -13.2 7.9 -13.1 8.2 -12.85 8.45 -12.65 8.75 -12.4 8.8 -12.35 9.25 -11.85 9.6 -11.55 9.85 -11.35 10.15 -11.1 10.45 -10.9 10.75 -10.7 11.1 -10.55 11.5 -10.4 11.9 -10.35 12.4 -10.3 12.85 -10.35 13.3 -10.4 13.75 -10.55 14.1 -10.7 14.5 -10.95 14.85 -11.1 15.3 -11.4 15.5 -11.55 16.0 -11.9 16.5 -12.25 16.75 -12.4 17.2 -12.7 17.55 -12.9 18.0 -13.1 18.4 -13.25 19.6 -13.65 20.75 -13.6 21.9 -13.6 22.9 -13.2 23.9 -12.8 24.75 -12.1 25.55 -11.45 26.1 -10.5 26.7 -9.55 26.95 -8.5 27.25 -7.35 27.2 -6.2 27.1 -4.95 26.65 -3.75 26.2 -2.45 25.3 -1.25 25.15 -1.65 25.1 -2.05 25.05 -2.4 25.1 -2.75 25.1 -3.05 25.2 -3.4 25.25 -3.65 25.35 -4.05 25.55 -4.75 25.55 -4.75 25.7 -5.15 25.75 -5.5 25.8 -5.9 25.85 -6.3 25.85 -6.75 25.85 -7.25 25.8 -7.85 25.65 -8.35 25.5 -8.9 25.25 -9.4 25.05 -9.85 24.7 -10.25 24.4 -10.65 24.05 -10.95 23.65 -11.3 23.25 -11.5 22.8 -11.75 22.35 -11.85 21.9 -12.0 21.4 -12.0 20.9 -12.0 20.35 -11.9 20.2 -11.85 20.0 -11.8 19.85 -11.7 19.65 -11.6 19.5 -11.5 19.35 -11.35 19.2 -11.2 19.0 -11.05 17.95 -10.1 18.65 -10.75 18.45 -10.55 18.3 -10.4 18.1 -10.25 17.9 -10.15 17.7 -10.0 17.55 -9.9 16.85 -9.55 16.0 -9.3 15.15 -9.05 14.3 -8.9 13.4 -8.75 12.55 -8.8 11.65 -8.8 10.85 -8.95 10.0 -9.15 9.3 -9.5 8.6 -9.85 8.1 -10.4 7.55 -10.95 7.25 -11.7 6.95 -12.5 6.95 -13.45 L6.95 -13.45" fill="#000000" fill-rule="evenodd" stroke="none"/>
    <path d="M-25.9 -13.0 Q-26.0 -12.75 -26.2 -12.5 -26.35 -12.3 -26.65 -12.0 -27.05 -11.6 -27.15 -11.5 -27.4 -11.2 -27.6 -10.9 -27.85 -10.55 -28.0 -10.15 -28.2 -9.75 -28.3 -9.3 -28.4 -8.75 -28.4 -8.15 -28.35 -7.55 -28.2 -6.8 -28.35 -7.0 -28.45 -7.2 -28.55 -7.45 -28.55 -7.7 -28.6 -7.95 -28.6 -8.3 -28.55 -8.55 -28.55 -8.9 -28.5 -9.05 -28.45 -9.55 -28.4 -9.95 -28.35 -10.2 -28.35 -10.55 -28.35 -10.85 -28.35 -11.2 -28.35 -11.45 -27.9 -11.7 -27.1 -12.25 -26.3 -12.8 -25.9 -13.0 L-25.9 -13.0" fill="#000000" fill-rule="evenodd" stroke="none"/>
    <path d="M-18.5 -8.8 Q-18.35 -8.85 -18.25 -8.95 -18.1 -9.0 -18.0 -9.1 -17.9 -9.2 -17.8 -9.35 -17.65 -9.45 -17.55 -9.55 -17.45 -9.65 -17.35 -9.7 -17.2 -9.8 -17.05 -9.85 -16.9 -9.9 -16.75 -9.95 -16.55 -9.95 -16.35 -9.9 -16.2 -9.4 -16.25 -8.95 -16.25 -8.55 -16.45 -8.25 -16.6 -7.95 -16.85 -7.7 -17.1 -7.5 -17.45 -7.35 -17.8 -7.2 -18.2 -7.15 -18.6 -7.05 -19.05 -7.05 -19.45 -7.0 -19.95 -7.0 -20.3 -7.0 -20.8 -7.0 -20.85 -7.2 -20.85 -7.4 -20.9 -7.6 -20.95 -7.8 -21.0 -8.0 -21.1 -8.15 -21.15 -8.3 -21.2 -8.45 -21.3 -8.65 -21.4 -8.75 -21.45 -8.9 -21.55 -9.05 -21.65 -9.15 -21.75 -9.25 -21.9 -9.4 -22.0 -9.45 -22.35 -9.5 -22.75 -9.5 -23.05 -9.5 -23.4 -9.5 -23.7 -9.45 -24.0 -9.4 -24.3 -9.35 -24.6 -9.25 -24.75 -9.25 -25.15 -9.15 -25.55 -9.05 -25.75 -9.0 -26.05 -8.9 -26.35 -8.9 -26.65 -8.8 -26.95 -8.8 -26.8 -9.65 -26.4 -10.2 -26.0 -10.75 -25.45 -11.05 -24.95 -11.3 -24.3 -11.4 -23.7 -11.45 -23.0 -11.3 -22.35 -11.2 -21.65 -10.95 -21.0 -10.7 -20.35 -10.35 -19.75 -10.0 -19.3 -9.6 -18.8 -9.2 -18.5 -8.8 L-18.5 -8.8" fill="#000000" fill-rule="evenodd" stroke="none"/>
    <path d="M24.75 -4.15 Q24.6 -4.05 24.4 -4.05 24.25 -4.0 24.1 -4.0 23.95 -3.95 23.75 -4.0 23.65 -4.0 23.45 -4.05 23.3 -4.05 23.15 -4.1 23.7 -3.95 22.8 -4.2 22.6 -4.25 22.5 -4.3 22.3 -4.35 22.1 -4.35 22.0 -4.25 21.9 -4.1 21.75 -3.95 21.7 -3.75 21.6 -3.55 21.5 -3.35 21.4 -3.15 21.35 -2.95 21.3 -2.7 21.3 -2.5 21.25 -2.25 21.25 -2.0 21.25 -1.75 21.3 -1.5 21.35 -1.25 21.4 -1.0 21.0 -0.55 20.6 0.0 20.25 0.5 19.85 1.15 19.5 1.7 19.1 2.4 18.8 2.95 18.4 3.75 17.35 5.75 17.7 5.1 17.3 5.9 17.0 6.45 16.6 7.2 16.25 7.75 15.8 8.45 15.4 9.0 14.35 10.4 13.15 11.65 11.9 12.85 10.5 13.9 9.1 14.9 7.5 15.75 5.95 16.55 4.15 17.2 2.4 17.85 0.5 18.3 -1.4 18.7 -3.45 18.95 -5.55 19.2 -7.75 19.25 -9.95 19.35 -12.3 19.2 -13.15 19.15 -13.85 19.1 -14.7 19.05 -15.4 18.95 -16.25 18.85 -16.95 18.7 -17.75 18.6 -18.45 18.4 -19.2 18.2 -19.85 18.0 -20.55 17.75 -21.1 17.45 -21.7 17.1 -22.2 16.75 -22.7 16.35 -23.05 15.85 -23.65 15.1 -24.1 13.95 -24.55 12.9 -24.9 11.5 -25.2 10.15 -25.35 8.55 -25.55 7.05 -25.6 5.45 -25.6 3.8 -25.5 2.25 -25.4 0.65 -25.15 -0.8 -24.9 -2.3 -24.5 -3.5 -24.1 -4.8 -23.6 -5.7 -23.55 -5.8 -23.55 -6.0 -23.5 -6.15 -23.5 -6.35 -23.5 -6.45 -23.5 -6.7 -23.45 -6.95 -23.45 -7.05 -23.45 -7.3 -23.45 -7.45 -23.4 -7.6 -23.4 -7.75 -23.35 -7.9 -23.25 -8.0 -23.2 -8.1 -23.05 -8.15 -22.8 -8.05 -22.6 -7.85 -22.45 -7.65 -22.35 -7.35 -22.25 -7.1 -22.2 -6.8 -22.2 -6.5 -22.15 -6.15 -22.15 -5.85 -22.15 -5.45 -22.15 -4.9 -22.15 -4.75 -22.15 -4.35 -22.1 -4.05 -22.1 -3.7 -22.0 -3.45 -21.85 -2.9 -21.5 -2.35 -21.2 -1.85 -20.7 -1.35 -20.25 -0.9 -19.65 -0.5 -19.05 -0.1 -18.4 0.25 -17.75 0.6 -17.0 0.9 -16.35 1.2 -15.6 1.45 -14.9 1.65 -14.2 1.8 -13.5 2.0 -12.85 2.1 -10.5 2.45 -8.1 2.35 -5.85 2.3 -3.55 1.85 -1.4 1.4 0.8 0.7 2.8 0.0 5.0 -0.9 6.8 -1.7 8.95 -2.8 10.3 -3.5 12.65 -4.7 15.2 -6.05 16.2 -6.55 18.05 -7.55 19.5 -8.15 19.55 -8.3 19.55 -8.45 19.6 -8.6 19.65 -8.8 19.65 -8.85 19.7 -9.15 19.7 -9.35 19.75 -9.5 19.75 -9.65 19.8 -9.8 19.85 -10.0 19.9 -10.1 19.95 -10.25 20.0 -10.4 20.1 -10.5 20.2 -10.6 20.4 -10.5 20.5 -10.4 20.65 -10.3 20.75 -10.15 20.8 -10.0 20.85 -9.85 20.9 -9.7 20.95 -9.5 20.95 -9.4 21.0 -9.15 21.0 -8.95 21.05 -8.8 21.05 -8.6 21.1 -8.45 21.15 -8.3 21.25 -8.15 21.4 -7.8 21.65 -7.5 21.9 -7.25 22.15 -7.0 22.4 -6.75 22.7 -6.55 22.7 -6.55 23.3 -6.15 23.6 -5.9 23.8 -5.75 24.05 -5.5 24.25 -5.3 24.45 -5.05 24.6 -4.8 24.75 -4.5 24.75 -4.15 L24.75 -4.15 M14.0 -2.8 Q14.0 -1.7 14.0 0.55 14.65 0.4 15.2 0.25 15.85 0.05 16.35 -0.15 16.95 -0.4 17.4 -0.65 17.95 -0.95 18.35 -1.3 18.8 -1.7 19.15 -2.15 19.5 -2.65 19.75 -3.25 20.0 -3.85 20.15 -4.55 20.35 -5.3 20.35 -6.15 19.85 -6.15 19.35 -6.0 18.9 -5.9 18.45 -5.7 18.1 -5.5 17.7 -5.25 17.35 -5.05 16.95 -4.75 16.85 -4.65 16.25 -4.2 15.85 -3.85 15.55 -3.65 15.2 -3.4 14.85 -3.2 14.4 -2.95 14.0 -2.8 L14.0 -2.8 M-23.6 -0.35 Q-23.5 -0.35 -23.45 -0.45 -23.35 -0.5 -23.3 -0.6 -23.25 -0.7 -23.15 -0.8 -23.1 -0.95 -23.05 -1.05 -23.05 -1.2 -23.0 -1.35 -23.0 -1.45 -23.0 -1.6 -22.95 -1.7 -23.0 -1.8 -23.0 -1.85 -23.05 -1.9 -23.1 -1.8 -23.1 -1.7 -23.15 -1.6 -23.2 -1.55 -23.25 -1.45 -23.3 -1.35 -23.35 -1.25 -23.35 -1.2 -23.4 -1.1 -23.45 -1.0 -23.5 -0.9 -23.5 -0.8 -23.55 -0.7 -23.55 -0.6 -23.6 -0.5 -23.6 -0.35 L-23.6 -0.35 M4.3 1.0 Q4.3 1.25 4.3 1.55 4.35 1.75 4.35 2.0 4.4 2.2 4.45 2.45 4.45 2.65 4.55 2.9 4.65 3.5 4.6 3.35 4.65 3.6 4.7 3.8 4.75 4.05 4.8 4.25 4.8 4.5 4.8 4.75 5.3 4.45 6.0 4.2 6.45 4.05 7.25 3.75 8.15 3.45 8.5 3.3 9.2 3.05 9.7 2.8 10.35 2.5 10.8 2.15 11.3 1.75 11.7 1.25 12.1 0.65 12.3 0.0 12.55 -0.75 12.6 -1.7 12.1 -1.65 11.6 -1.55 11.1 -1.45 10.6 -1.3 10.1 -1.15 9.55 -0.95 9.1 -0.8 8.5 -0.55 8.95 -0.7 7.45 -0.1 6.85 0.15 6.4 0.3 5.85 0.5 5.35 0.7 4.8 0.85 4.3 1.0 L4.3 1.0 M-21.85 5.2 Q-21.8 4.9 -21.75 4.55 -21.7 4.3 -21.65 3.9 -21.55 3.4 -21.5 3.2 -21.45 2.8 -21.4 2.45 -21.35 2.1 -21.35 1.8 -21.3 1.4 -21.35 1.1 -21.35 0.75 -21.45 0.45 -21.5 0.15 -21.65 -0.15 -21.75 0.1 -21.9 0.35 -22.05 0.7 -22.2 1.05 -22.35 1.45 -22.45 1.85 -22.6 2.25 -22.65 2.65 -22.75 3.1 -22.75 3.45 -22.75 3.9 -22.65 4.2 -22.6 4.55 -22.4 4.8 -22.15 5.05 -21.85 5.2 L-21.85 5.2 M14.2 7.0 Q14.3 6.9 14.35 6.8 14.45 6.75 14.55 6.65 14.65 6.6 14.75 6.45 14.9 6.35 14.95 6.3 15.05 6.2 15.15 6.1 15.25 6.0 15.35 5.9 15.5 5.8 15.55 5.7 15.7 5.55 15.75 5.4 15.9 5.2 16.05 4.95 16.2 4.7 16.35 4.35 16.55 4.05 16.7 3.7 16.85 3.4 17.0 3.05 17.15 2.7 17.25 2.45 17.4 2.15 17.45 1.9 17.55 1.7 17.55 1.55 17.6 1.4 17.55 1.4 17.15 1.5 16.75 1.65 16.3 1.8 15.9 2.05 15.5 2.3 15.15 2.6 14.75 2.9 14.5 3.25 14.15 3.65 14.0 4.05 13.8 4.5 13.75 4.95 13.65 5.4 13.75 5.9 13.9 6.45 14.2 7.0 L14.2 7.0 M-19.9 6.1 Q-19.75 6.05 -19.6 6.05 -19.45 6.0 -19.3 6.05 -19.15 6.1 -19.0 6.15 -18.9 6.2 -18.75 6.25 -18.6 6.35 -18.5 6.35 -18.4 6.4 -18.3 6.45 -18.2 6.45 -18.1 6.45 -18.05 6.4 -17.95 6.3 -18.05 6.05 -18.1 5.85 -18.15 5.6 -18.1 5.4 -18.1 5.2 -18.05 4.95 -18.0 4.8 -17.9 4.55 -18.0 4.8 -17.7 4.15 -17.6 3.9 -17.55 3.7 -17.5 3.45 -17.45 3.25 -17.4 3.0 -17.4 2.75 -17.6 2.75 -17.75 2.7 -17.95 2.65 -18.1 2.6 -18.25 2.55 -18.4 2.45 -18.5 2.4 -18.65 2.3 -18.75 2.25 -18.9 2.15 -19.1 2.0 -19.15 1.95 -19.3 1.85 -19.45 1.8 -19.6 1.7 -19.7 1.65 -19.9 1.8 -20.0 2.05 -20.1 2.25 -20.15 2.55 -20.2 2.8 -20.2 3.1 -20.25 3.35 -20.2 3.65 -20.2 3.95 -20.15 4.25 -20.1 4.45 -20.05 4.9 -20.0 5.3 -19.95 5.5 -19.9 5.85 -19.9 6.1 L-19.9 6.1 M2.55 1.85 Q1.6 2.15 -0.75 2.75 -2.9 3.25 -4.0 3.65 -4.0 4.75 -4.0 7.0 -3.45 7.05 -2.9 7.05 -2.4 7.05 -1.9 7.0 -1.4 6.95 -0.95 6.85 -0.5 6.75 -0.05 6.65 0.35 6.55 0.85 6.4 1.15 6.3 1.7 6.15 2.3 5.95 2.55 5.9 3.05 5.75 3.4 5.65 3.35 5.4 3.35 5.1 3.35 5.05 3.3 4.6 3.25 4.25 3.2 4.05 3.2 3.75 3.15 3.5 3.1 3.25 3.05 3.05 3.0 2.8 2.95 2.6 2.85 2.35 2.75 2.2 2.65 2.0 2.55 1.85 L2.55 1.85 M-16.7 6.3 Q-16.4 6.4 -16.15 6.5 -15.85 6.6 -15.55 6.65 -15.2 6.75 -14.9 6.8 -14.6 6.85 -14.25 6.9 -13.95 6.95 -13.6 6.95 -13.25 7.0 -12.9 7.0 -12.55 7.0 -12.15 7.0 -11.8 7.0 -11.4 7.0 -11.45 6.45 -11.4 5.3 -11.35 4.3 -11.4 4.1 -11.65 4.05 -12.0 4.05 -12.25 4.0 -12.65 3.95 -13.1 3.95 -13.25 3.9 -13.6 3.9 -13.9 3.85 -14.2 3.8 -14.45 3.75 -14.75 3.7 -15.05 3.65 -15.3 3.55 -15.55 3.45 -15.8 3.35 -16.0 3.2 -16.05 3.4 -16.1 3.6 -16.1 3.8 -16.15 4.0 -16.15 4.1 -16.2 4.45 -16.25 4.7 -16.3 4.85 -16.35 5.05 -16.35 5.25 -16.4 5.45 -16.45 5.65 -16.5 5.85 -16.55 6.0 -16.65 6.15 -16.7 6.3 L-16.7 6.3 M-9.65 4.1 Q-9.65 4.3 -9.65 4.5 -9.65 4.7 -9.7 4.85 -9.75 5.0 -9.8 5.2 -9.8 5.3 -9.85 5.5 -9.85 5.4 -9.95 5.8 -10.0 5.95 -10.05 6.1 -10.1 6.25 -10.15 6.4 -10.15 6.6 -10.2 6.75 -9.95 6.85 -9.65 6.9 -9.4 6.95 -9.1 7.0 -8.8 7.0 -8.45 7.0 -8.2 7.0 -7.8 7.0 -7.6 7.0 -7.15 7.0 -6.7 6.95 -6.5 6.95 -6.15 6.95 -5.85 6.95 -5.5 6.95 -5.25 7.0 -5.25 5.85 -5.25 3.65 -5.55 3.65 -5.85 3.65 -6.1 3.65 -6.4 3.7 -6.6 3.75 -6.9 3.8 -7.0 3.8 -7.4 3.9 -7.75 4.0 -7.95 4.0 -8.2 4.05 -8.45 4.1 -8.75 4.15 -9.05 4.15 -9.35 4.15 -9.65 4.1 L-9.65 4.1 M5.55 7.85 Q5.5 8.35 5.5 8.85 5.55 9.25 5.6 9.65 5.7 10.0 5.8 10.35 5.9 10.65 6.05 11.0 6.1 11.1 6.3 11.6 6.45 12.0 6.55 12.2 6.7 12.55 6.8 12.9 6.9 13.25 6.95 13.65 7.4 13.45 7.85 13.15 8.25 12.9 8.7 12.6 9.1 12.3 9.5 11.95 9.9 11.65 10.3 11.3 10.6 11.0 11.05 10.6 11.25 10.45 11.8 9.9 12.25 9.45 12.55 9.2 12.95 8.85 13.3 8.55 13.1 8.45 12.95 8.25 12.85 8.1 12.75 7.85 12.65 7.65 12.55 7.4 12.5 7.15 12.4 6.85 12.35 6.6 12.35 6.3 12.3 6.15 12.25 5.7 12.2 5.3 12.15 5.1 12.1 4.8 12.05 4.55 11.7 4.8 11.35 5.1 10.95 5.35 10.6 5.55 10.2 5.8 9.8 6.05 9.4 6.25 9.0 6.45 8.6 6.65 8.15 6.85 7.75 7.05 7.3 7.25 6.9 7.4 6.45 7.55 6.0 7.7 5.55 7.85 L5.55 7.85 M-2.6 10.75 Q-2.6 11.15 -2.65 11.55 -2.65 11.9 -2.6 12.3 -2.6 12.6 -2.6 13.0 -2.55 13.25 -2.55 13.65 -2.5 14.25 -2.5 14.35 -2.45 14.75 -2.45 15.05 -2.4 15.45 -2.4 15.75 -2.4 16.15 -2.4 16.55 -1.8 16.6 -1.2 16.6 -0.6 16.55 -0.05 16.5 0.45 16.4 0.95 16.3 1.45 16.15 1.95 16.0 2.35 15.85 2.85 15.65 3.25 15.5 3.75 15.3 3.15 15.55 4.65 14.9 5.15 14.7 5.55 14.55 5.45 14.15 5.35 13.75 5.25 13.4 5.1 13.0 5.0 12.75 4.85 12.3 4.65 11.8 4.6 11.6 4.45 11.2 4.35 10.85 4.25 10.5 4.15 10.1 4.05 9.7 4.0 9.25 3.95 8.8 3.95 8.3 3.55 8.55 3.2 8.7 2.85 8.95 2.5 9.15 2.1 9.35 1.7 9.5 1.3 9.7 0.95 9.85 0.5 10.0 0.1 10.15 -0.3 10.3 -0.75 10.4 -1.2 10.55 -1.65 10.6 -2.1 10.7 -2.6 10.75 L-2.6 10.75 M-22.0 13.85 Q-22.0 13.55 -22.05 13.25 -22.1 12.95 -22.15 12.7 -22.2 12.45 -22.3 12.2 -22.35 12.0 -22.45 11.75 -22.55 11.55 -22.7 11.35 -22.8 11.2 -22.9 11.0 -23.05 10.85 -23.15 10.65 -23.25 10.55 -23.45 10.3 -23.4 10.6 -23.3 10.8 -23.25 11.1 -23.2 11.3 -23.1 11.6 -23.05 11.8 -22.95 12.05 -22.85 12.3 -22.8 12.5 -22.7 12.7 -22.6 12.95 -22.5 13.15 -22.4 13.35 -22.25 13.5 -22.15 13.7 -22.0 13.85 L-22.0 13.85 M-18.65 15.85 Q-18.75 15.4 -18.8 15.15 -18.9 14.8 -18.95 14.5 -19.05 14.15 -19.15 13.85 -19.25 13.5 -19.4 13.2 -19.5 12.9 -19.65 12.65 -19.8 12.4 -19.95 12.15 -20.15 11.95 -20.35 11.75 -20.55 11.55 -20.8 11.4 -20.8 11.65 -20.8 11.85 -20.8 12.0 -20.75 12.2 -20.7 12.35 -20.65 12.5 -20.6 12.65 -20.55 12.8 -20.45 13.05 -20.45 13.1 -20.4 13.25 -20.35 13.4 -20.3 13.55 -20.3 13.7 -20.25 13.9 -20.25 14.1 -20.25 14.25 -20.3 14.35 -20.35 14.45 -20.45 14.5 -20.5 14.55 -20.6 14.6 -20.7 14.6 -20.8 14.65 -20.85 14.65 -20.95 14.65 -21.1 14.65 -21.1 14.65 -21.2 14.7 -21.25 14.7 -21.3 14.7 -21.3 14.75 -21.2 14.9 -21.05 15.0 -20.9 15.1 -20.75 15.2 -20.6 15.25 -20.45 15.35 -20.3 15.4 -20.1 15.5 -19.95 15.55 -19.75 15.6 -19.6 15.65 -19.4 15.7 -19.25 15.7 -19.05 15.8 -18.75 15.85 -18.65 15.85 L-18.65 15.85 M-9.3 12.1 Q-9.3 12.45 -9.25 12.8 -9.25 13.1 -9.2 13.4 -9.15 13.7 -9.1 14.0 -9.1 14.15 -9.0 14.6 -8.95 15.0 -8.9 15.2 -8.85 15.55 -8.85 15.85 -8.8 16.15 -8.8 16.5 -8.75 16.85 -8.75 17.2 -8.45 17.2 -8.15 17.2 -7.85 17.2 -7.5 17.2 -7.45 17.2 -6.85 17.2 -6.45 17.2 -6.2 17.2 -5.85 17.2 -5.55 17.2 -5.25 17.2 -4.95 17.2 -4.65 17.15 -4.35 17.1 -4.1 17.05 -3.85 17.0 -3.8 18.0 -4.0 14.55 -4.1 12.6 -4.0 11.4 -4.35 11.5 -4.6 11.55 -4.95 11.65 -5.3 11.75 -5.65 11.85 -5.95 11.9 -6.3 11.95 -6.65 12.0 -7.0 12.1 -7.35 12.1 -7.7 12.15 -8.0 12.15 -8.35 12.2 -8.65 12.15 -9.0 12.15 -9.3 12.1 L-9.3 12.1 M-17.05 16.1 Q-17.05 16.1 -16.8 16.2 -16.65 16.3 -16.55 16.35 -16.4 16.4 -16.3 16.45 -16.15 16.5 -16.05 16.55 -15.9 16.6 -15.75 16.65 -15.6 16.7 -15.45 16.7 -15.3 16.75 -15.1 16.75 -14.95 16.75 -14.8 16.75 -14.85 16.5 -14.9 16.25 -14.95 16.0 -15.05 15.75 -15.1 15.55 -15.2 15.3 -15.55 14.45 -15.4 14.85 -15.5 14.6 -15.55 14.4 -15.65 14.15 -15.7 13.9 -15.75 13.65 -15.8 13.35 -15.85 13.05 -15.85 12.75 -16.0 12.75 -16.15 12.7 -16.3 12.7 -16.45 12.65 -16.55 12.6 -16.7 12.5 -16.75 12.5 -16.95 12.4 -17.1 12.3 -17.2 12.25 -17.35 12.2 -17.5 12.15 -17.65 12.1 -17.8 12.1 -17.95 12.05 -18.15 12.1 -18.1 12.35 -18.05 12.65 -17.95 12.85 -17.85 13.1 -17.75 13.3 -17.6 13.6 -17.4 13.95 -17.35 14.05 -17.2 14.3 -17.15 14.5 -17.05 14.75 -17.0 14.95 -16.95 15.25 -16.95 15.5 -17.0 15.8 -17.05 16.1 L-17.05 16.1 M-14.4 12.55 Q-14.35 12.85 -14.25 13.15 -14.2 13.4 -14.1 13.7 -14.0 13.95 -13.9 14.25 -13.85 14.4 -13.7 14.75 -13.55 15.1 -13.5 15.25 -13.4 15.55 -13.3 15.8 -13.2 16.1 -13.15 16.35 -13.05 16.65 -13.0 17.0 -12.85 17.0 -12.65 17.05 -12.55 17.05 -12.3 17.1 -12.0 17.15 -11.9 17.15 -11.65 17.2 -11.5 17.2 -11.25 17.25 -11.05 17.25 -10.85 17.25 -10.7 17.25 -10.5 17.2 -10.3 17.15 -10.15 17.1 -10.0 17.0 -10.05 16.4 -10.1 15.9 -10.2 15.35 -10.35 14.85 -10.5 14.35 -10.7 13.95 -10.9 13.5 -11.2 13.2 -11.45 12.85 -11.8 12.65 -12.15 12.4 -12.55 12.35 -12.95 12.25 -13.4 12.3 -13.9 12.35 -14.4 12.55 L-14.4 12.55" fill="#000000" fill-rule="evenodd" stroke="none"/>
    <path d="M2.9 -5.7 Q2.95 -5.15 2.95 -4.65 2.95 -4.15 2.9 -3.65 2.85 -3.15 2.75 -2.75 2.65 -2.3 2.55 -1.95 2.4 -1.6 2.2 -1.35 2.0 -1.1 1.75 -1.0 1.45 -0.85 1.15 -0.85 0.8 -0.85 0.4 -1.0 0.35 -1.35 0.4 -1.65 0.45 -1.9 0.55 -2.15 0.65 -2.35 0.8 -2.55 0.9 -2.65 1.05 -2.85 1.3 -3.05 1.35 -3.15 1.5 -3.3 1.55 -3.5 1.65 -3.65 1.7 -3.85 1.7 -4.1 1.65 -4.35 1.6 -4.6 1.45 -4.8 1.35 -4.95 1.2 -5.05 1.05 -5.15 0.85 -5.2 0.7 -5.25 0.45 -5.3 0.35 -5.3 0.0 -5.35 -0.35 -5.35 -0.5 -5.4 -0.8 -5.4 -1.0 -5.5 -1.3 -5.55 -1.55 -5.7 -1.5 -6.2 -1.3 -6.5 -1.1 -6.8 -0.8 -7.0 -0.55 -7.15 -0.2 -7.2 0.15 -7.25 0.5 -7.15 0.85 -7.1 1.25 -6.95 1.6 -6.8 1.9 -6.6 2.25 -6.4 2.5 -6.15 2.75 -5.9 2.9 -5.7 L2.9 -5.7" fill="#000000" fill-rule="evenodd" stroke="none"/>
    <path d="M3.4 -7.0 Q3.55 -7.0 3.6 -7.0 3.7 -7.0 3.75 -6.95 3.75 -6.9 3.75 -6.85 3.75 -6.8 3.75 -6.75 3.7 -6.7 3.65 -6.65 3.6 -6.6 3.55 -6.55 3.6 -6.55 3.45 -6.45 3.45 -6.4 3.4 -6.35 3.5 -5.9 3.8 -5.65 4.0 -5.4 4.4 -5.35 4.7 -5.25 5.15 -5.3 5.45 -5.3 6.0 -5.35 6.6 -5.45 6.85 -5.45 7.3 -5.5 7.65 -5.45 8.0 -5.4 8.3 -5.2 8.55 -5.0 8.7 -4.6 8.4 -4.85 8.0 -4.95 7.6 -5.05 7.1 -5.05 6.75 -5.05 6.1 -5.0 5.4 -4.95 5.15 -4.95 4.65 -4.95 4.3 -5.0 3.9 -5.1 3.65 -5.3 3.4 -5.55 3.35 -5.95 3.25 -6.35 3.4 -7.0 L3.4 -7.0" fill="#000000" fill-rule="evenodd" stroke="none"/>
    <path d="M-28.55 -6.6 Q-28.45 -6.45 -28.3 -6.3 -28.2 -6.2 -28.05 -6.0 -29.2 -7.5 -27.8 -5.7 -27.65 -5.5 -27.55 -5.35 -27.45 -5.2 -27.3 -5.1 -27.2 -4.95 -27.05 -4.8 -26.9 -4.65 -26.75 -4.55 -26.6 -4.45 -26.45 -4.35 -26.65 -4.25 -26.85 -4.2 -27.0 -4.2 -27.2 -4.25 -27.4 -4.3 -27.55 -4.45 -27.7 -4.55 -27.85 -4.75 -28.0 -4.9 -28.1 -5.1 -28.25 -5.3 -28.35 -5.55 -28.4 -5.8 -28.5 -6.05 -28.55 -6.3 -28.55 -6.6 L-28.55 -6.6" fill="#000000" fill-rule="evenodd" stroke="none"/>
    <path d="M-0.3 -3.7 Q-0.3 -3.6 -0.3 -3.45 -0.3 -3.3 -0.3 -3.15 -0.3 -2.8 -0.3 -2.85 -0.3 -2.7 -0.3 -2.55 -0.3 -2.4 -0.3 -2.3 -0.3 -2.15 -0.35 -2.05 -0.35 -1.95 -0.4 -1.85 -0.4 -1.75 -0.5 -1.7 -0.7 -1.9 -0.95 -2.0 -1.2 -2.15 -1.5 -2.15 -1.75 -2.2 -2.05 -2.2 -2.3 -2.2 -2.7 -2.2 -3.4 -2.15 -3.35 -2.15 -3.7 -2.1 -4.0 -2.1 -4.35 -2.1 -4.65 -2.15 -4.95 -2.25 -5.25 -2.35 -5.2 -2.8 -5.05 -3.1 -4.9 -3.45 -4.6 -3.65 -4.35 -3.85 -4.0 -4.0 -3.65 -4.1 -3.25 -4.15 -2.9 -4.15 -2.5 -4.15 -2.1 -4.1 -1.7 -4.05 -1.3 -4.0 -0.95 -3.9 -0.6 -3.8 -0.3 -3.7 L-0.3 -3.7" fill="#000000" fill-rule="evenodd" stroke="none"/>
    <path d="M14.35 14.75 Q14.4 14.85 14.35 14.95 14.35 15.0 14.25 15.1 14.15 15.15 14.0 15.25 13.9 15.3 13.75 15.35 13.6 15.4 13.4 15.5 13.05 15.6 13.05 15.6 12.85 15.65 12.7 15.75 12.55 15.8 12.4 15.85 11.55 16.3 10.45 17.05 10.2 17.2 8.45 18.35 7.2 19.15 6.35 19.65 5.2 20.4 4.2 20.9 3.0 21.55 1.9 22.0 0.65 22.5 -0.55 22.8 -1.85 23.15 -3.15 23.25 -4.55 23.35 -5.95 23.2 -4.35 23.15 -2.85 22.85 -1.45 22.55 -0.1 22.1 1.15 21.65 2.45 21.05 3.55 20.5 4.85 19.8 5.65 19.35 7.15 18.45 8.7 17.5 9.45 17.1 10.75 16.35 11.8 15.8 13.15 15.2 14.35 14.75 L14.35 14.75" fill="#000000" fill-rule="evenodd" stroke="none"/>
    <path d="M-22.2 19.2 Q-21.85 19.75 -21.45 20.25 -21.05 20.7 -20.55 21.1 -20.1 21.45 -19.55 21.8 -19.0 22.1 -18.4 22.3 -17.85 22.55 -17.15 22.75 -16.55 22.9 -15.85 23.05 -15.2 23.15 -14.45 23.25 -13.8 23.35 -13.0 23.4 -13.75 23.5 -14.45 23.5 -15.25 23.55 -15.95 23.5 -16.7 23.45 -17.4 23.35 -18.15 23.25 -18.75 23.05 -19.45 22.85 -20.0 22.5 -20.55 22.15 -21.0 21.7 -21.45 21.25 -21.75 20.6 -22.05 20.0 -22.2 19.2 L-22.2 19.2" fill="#000000" fill-rule="evenodd" stroke="none"/>
    <path d="M-4.0 20.75 Q-4.4 20.8 -5.0 20.85 -5.35 20.85 -6.1 20.95 -6.9 21.0 -7.3 21.05 -7.95 21.1 -8.5 21.15 -9.15 21.2 -9.7 21.2 -10.35 21.25 -10.95 21.25 -11.55 21.2 -12.1 21.15 -12.7 21.1 -13.2 21.0 -13.15 21.0 -13.2 21.0 -13.2 21.0 -13.25 21.05 -13.35 21.05 -13.4 21.05 -13.5 21.05 -13.55 21.05 -13.65 21.05 -13.7 21.05 -13.75 21.0 -13.75 21.0 -13.75 20.95 -13.7 20.9 -13.65 20.85 -13.55 20.75 -12.0 20.85 -8.6 20.7 -5.5 20.6 -4.0 20.75 L-4.0 20.75" fill="#000000" fill-rule="evenodd" stroke="none"/>
    <path d="M-10.35 23.4 Q-10.25 23.3 -10.1 23.25 -9.95 23.2 -9.75 23.2 -9.6 23.15 -9.35 23.15 -9.2 23.15 -8.95 23.15 -8.85 23.15 -8.55 23.2 -8.3 23.2 -8.15 23.2 -7.9 23.25 -7.75 23.25 -7.55 23.2 -7.35 23.2 -7.45 23.3 -7.65 23.35 -7.8 23.4 -7.95 23.45 -8.15 23.45 -8.35 23.45 -8.5 23.45 -8.75 23.45 -8.9 23.45 -9.15 23.4 -9.45 23.4 -9.6 23.4 -9.8 23.4 -10.0 23.4 -10.2 23.4 -10.35 23.4 L-10.35 23.4" fill="#000000" fill-rule="evenodd" stroke="none"/>
    <path d="M-27.3 -24.35 Q-25.75 -26.2 -23.8 -27.6 -21.95 -28.95 -19.65 -29.95 -17.55 -30.9 -15.0 -31.5 -12.65 -32.1 -9.9 -32.45 -7.4 -32.75 -4.45 -32.9 -1.9 -33.0 1.25 -33.0 3.5 -33.0 7.1 -32.9 12.05 -32.8 12.95 -32.8 13.2 -32.8 13.5 -32.8 13.75 -32.8 14.1 -32.85 14.25 -32.85 14.65 -32.9 15.0 -32.9 15.25 -32.9 15.55 -32.95 15.8 -32.95 16.1 -32.95 16.35 -32.95 16.65 -32.95 16.85 -32.9 17.15 -32.85 17.35 -32.8 17.75 -32.7 18.2 -32.45 18.6 -32.25 19.05 -31.9 19.5 -31.55 19.9 -31.15 20.35 -30.7 20.75 -30.25 21.15 -29.75 21.5 -29.25 21.85 -28.75 22.2 -28.2 22.55 -27.7 22.85 -27.15 23.15 -26.65 23.35 -26.15 23.85 -25.15 24.45 -22.8 25.1 -20.5 25.5 -19.7 25.9 -18.8 26.6 -17.85 27.1 -17.15 27.9 -16.25 27.65 -16.5 29.25 -14.75 30.1 -13.85 30.6 -13.2 31.25 -12.3 31.7 -11.45 32.25 -10.45 32.5 -9.4 32.8 -8.2 32.85 -6.85 32.85 -5.4 32.55 -3.7 32.4 -2.9 32.1 -2.2 31.85 -1.5 31.5 -0.85 31.15 -0.25 30.7 0.4 30.3 0.85 29.75 1.55 21.6 11.5 28.8 2.7 28.25 3.4 27.85 3.9 27.35 4.6 26.95 5.25 26.5 6.0 26.2 6.75 25.85 7.55 25.45 9.15 25.05 10.75 24.75 11.4 24.3 12.35 23.7 13.3 23.15 14.2 22.35 15.05 21.65 15.9 20.8 16.7 19.95 17.5 19.0 18.25 18.15 18.95 17.1 19.7 16.2 20.35 15.15 21.05 14.2 21.6 13.15 22.25 12.25 22.8 11.2 23.4 10.5 23.8 9.7 24.3 9.05 24.7 8.2 25.25 8.0 25.4 6.7 26.25 5.75 26.85 5.15 27.25 4.35 27.75 3.65 28.15 2.85 28.65 2.2 29.0 1.4 29.45 0.75 29.75 0.0 30.1 -0.65 30.3 -2.1 30.8 -5.0 31.5 -9.9 32.65 -10.2 32.75 -11.2 33.0 -12.15 33.2 -13.15 33.45 -14.15 33.6 -15.15 33.75 -16.1 33.85 -17.15 33.95 -18.1 33.95 -19.1 34.0 -20.0 33.9 -21.0 33.85 -21.85 33.7 -22.75 33.5 -23.6 33.2 -24.45 32.95 -25.2 32.55 -25.6 32.35 -26.0 32.05 -26.4 31.75 -26.8 31.4 -27.2 31.05 -27.55 30.65 -27.95 30.3 -28.3 29.85 -28.65 29.4 -28.95 28.95 -29.25 28.5 -29.45 28.0 -29.7 27.55 -29.9 27.05 -30.05 26.55 -30.15 26.1 -30.35 25.0 -30.35 23.65 -30.4 22.45 -30.3 20.9 -30.2 19.65 -30.0 17.95 -29.95 17.4 -29.65 14.85 -29.45 12.9 -29.3 11.7 -29.15 9.95 -29.1 8.55 -29.05 6.95 -29.1 5.55 -29.2 4.05 -29.45 2.75 -29.6 1.9 -29.9 0.95 -30.15 0.2 -30.5 -0.7 -30.65 -1.1 -31.15 -2.35 -31.6 -3.4 -31.8 -4.0 -32.15 -4.95 -32.35 -5.7 -32.6 -6.65 -32.75 -7.55 -32.85 -8.5 -32.85 -9.5 -32.8 -10.6 -32.6 -11.7 -32.45 -12.6 -32.1 -13.4 -31.75 -14.1 -31.3 -14.8 -30.95 -15.25 -30.4 -15.95 -29.5 -17.0 -29.4 -17.1 -28.9 -17.75 -28.55 -18.35 -28.1 -19.05 -27.8 -19.85 -27.5 -20.75 -27.35 -21.8 -27.25 -22.95 -27.3 -24.35 L-27.3 -24.35 M30.95 -3.45 Q31.3 -4.7 31.4 -5.95 31.45 -7.2 31.25 -8.35 31.1 -9.45 30.65 -10.5 30.2 -11.5 29.55 -12.35 28.9 -13.25 28.1 -13.9 27.25 -14.6 26.3 -15.05 25.3 -15.55 24.25 -15.75 23.1 -15.95 21.95 -15.9 22.15 -16.0 22.4 -16.05 22.6 -16.1 22.85 -16.1 23.05 -16.15 23.3 -16.15 23.5 -16.15 23.75 -16.1 23.95 -16.1 24.25 -16.05 24.75 -16.0 24.7 -16.0 24.95 -15.95 25.2 -15.95 25.45 -15.9 25.65 -15.9 25.1 -16.7 24.6 -17.9 24.2 -18.8 23.65 -20.2 25.2 -16.1 22.75 -22.65 22.2 -24.05 21.8 -25.05 21.25 -26.3 20.65 -27.3 20.0 -28.4 19.3 -29.15 18.5 -30.05 17.55 -30.55 16.6 -31.1 15.4 -31.25 13.8 -31.45 11.95 -31.55 10.25 -31.65 8.35 -31.65 6.55 -31.65 4.6 -31.6 2.8 -31.5 0.8 -31.4 -1.0 -31.25 -3.0 -31.05 -4.7 -30.9 -6.7 -30.7 -8.2 -30.55 -10.2 -30.3 24.7 -34.35 -13.55 -29.9 -12.5 -29.55 -11.3 -29.4 -10.25 -29.25 -9.05 -29.3 -7.95 -29.3 -6.7 -29.45 -5.75 -29.55 -4.4 -29.8 -262.8 11.95 -2.05 -30.15 -0.65 -30.4 0.3 -30.5 1.6 -30.65 2.65 -30.7 3.9 -30.7 5.0 -30.6 6.05 -30.45 7.1 -30.15 8.05 -29.9 9.0 -29.45 9.9 -29.05 10.8 -28.5 11.6 -28.0 12.45 -27.35 13.2 -26.8 13.95 -26.1 14.65 -25.5 15.35 -24.8 15.95 -24.2 16.7 -23.45 17.1 -23.0 17.9 -22.15 17.3 -22.6 16.5 -23.2 16.0 -23.6 15.1 -24.4 14.0 -25.3 13.65 -25.6 12.8 -26.35 12.1 -26.85 11.25 -27.5 10.45 -28.0 9.6 -28.55 8.75 -28.95 7.8 -29.4 6.85 -29.7 5.85 -30.0 4.8 -30.15 3.95 -30.25 3.1 -30.25 2.35 -30.25 1.55 -30.2 0.8 -30.15 0.0 -30.05 -0.65 -29.95 -1.45 -29.8 -1.9 -29.7 -2.85 -29.5 -3.8 -29.3 -4.25 -29.2 -5.05 -29.05 -5.7 -28.95 -6.5 -28.85 -7.2 -28.8 -7.75 -28.75 -8.4 -28.75 -8.95 -28.8 -9.6 -28.85 -10.15 -28.85 -10.8 -28.95 -11.15 -28.95 -12.0 -29.1 -12.75 -29.15 -13.2 -29.2 -13.85 -29.25 -14.35 -29.3 -14.95 -29.35 -15.45 -29.3 -16.05 -29.3 -16.55 -29.25 -17.15 -29.15 -17.85 -28.95 -18.6 -28.75 -19.35 -28.4 -20.1 -28.05 -20.85 -27.65 -21.6 -27.2 -22.3 -26.7 -23.05 -26.2 -23.7 -25.65 -24.35 -25.1 -24.85 -24.5 -25.4 -23.9 -25.75 -23.35 -26.1 -22.7 -26.25 -22.15 -26.3 -21.95 -26.35 -21.7 -26.35 -21.5 -26.4 -21.25 -26.4 -21.05 -26.4 -20.75 -26.4 -20.65 -26.4 -20.3 -26.4 -20.0 -26.4 -19.8 -26.4 -19.5 -26.45 -19.3 -26.45 -19.05 -26.5 -18.8 -26.55 -18.6 -26.6 -18.35 -26.85 -17.6 -27.25 -16.85 -27.6 -16.25 -28.1 -15.55 -28.25 -15.35 -29.05 -14.3 -29.6 -13.55 -29.95 -13.05 -30.45 -12.3 -30.75 -11.65 -31.1 -10.85 -31.25 -9.95 -31.4 -9.0 -31.35 -7.95 -31.35 -6.8 -31.0 -5.45 -30.9 -5.1 -30.8 -4.75 -30.7 -4.4 -30.55 -4.05 -30.4 -3.8 -30.2 -3.45 -30.1 -3.2 -29.9 -2.9 -29.8 -2.8 -29.55 -2.35 -29.35 -2.05 -29.25 -1.85 -29.1 -1.55 -28.95 -1.35 -28.8 -1.05 -28.7 -0.8 -28.4 -0.05 -28.2 0.9 -28.0 1.8 -27.9 2.8 -27.8 3.75 -27.75 4.85 -27.7 5.85 -27.7 7.0 -27.7 8.0 -27.75 9.15 -27.8 10.15 -27.9 11.3 -27.95 12.25 -28.05 13.4 -28.05 13.5 -28.2 15.4 -28.25 15.95 -28.3 16.65 -28.35 17.1 -28.45 17.9 -28.55 18.9 -28.6 19.2 -28.7 19.9 -28.75 20.45 -28.8 21.15 -28.85 21.75 -28.9 22.4 -28.9 23.0 -28.9 23.65 -28.85 24.25 -28.8 24.85 -28.7 25.4 -28.45 26.9 -27.75 28.05 -27.05 29.15 -25.9 29.95 -24.85 30.7 -23.45 31.15 -22.15 31.6 -20.55 31.8 -19.05 31.95 -17.4 31.9 -15.9 31.9 -14.25 31.7 -12.8 31.5 -11.3 31.2 -9.95 30.9 -8.75 30.55 -8.35 30.45 -7.95 30.25 -7.6 30.1 -7.2 29.95 -6.85 29.8 -6.45 29.6 -5.5 29.2 -5.7 29.25 -5.3 29.1 -5.0 28.95 -4.6 28.8 -4.3 28.65 -3.95 28.55 -3.6 28.45 -3.25 28.35 -2.95 28.3 -2.8 28.3 -2.65 28.3 -2.5 28.3 -2.35 28.3 -2.25 28.3 -2.05 28.35 -1.75 28.35 -1.7 28.35 -1.5 28.4 -1.35 28.4 -1.15 28.4 -0.95 28.4 -0.75 28.4 -0.55 28.4 -0.35 28.35 -0.1 28.3 0.2 28.25 0.55 28.05 0.9 27.9 1.3 27.7 1.65 27.5 2.05 27.2 2.4 26.95 2.85 26.65 3.15 26.4 3.65 26.05 4.35 25.55 4.5 25.4 4.95 25.1 5.3 24.85 5.7 24.55 6.05 24.3 7.05 23.7 8.4 22.9 8.7 22.7 10.85 21.45 12.4 20.6 13.35 20.0 14.75 19.15 15.8 18.45 17.1 17.6 18.15 16.75 19.3 15.85 20.25 14.9 21.3 13.9 22.1 12.85 22.95 11.7 23.55 10.55 23.7 10.25 23.85 9.85 23.95 9.55 24.1 9.1 24.2 8.75 24.3 8.35 24.4 8.0 24.5 7.55 24.85 6.15 24.7 6.75 24.8 6.3 24.9 6.0 25.0 5.6 25.1 5.35 25.2 5.0 25.3 4.75 25.35 4.6 25.5 4.4 25.6 4.3 25.75 4.15 25.8 4.05 26.0 3.9 26.15 3.7 26.25 3.65 26.35 3.5 26.45 3.4 26.55 3.25 26.65 3.1 26.7 2.95 26.7 2.75 26.75 2.55 26.7 2.3 26.7 2.35 26.7 2.45 26.7 2.5 26.65 2.55 26.6 2.6 26.55 2.65 26.45 2.7 26.4 2.75 26.35 2.8 26.25 2.8 26.2 2.8 26.15 2.75 26.1 2.75 26.05 2.7 26.0 2.65 26.0 2.55 26.4 2.3 26.8 2.05 27.2 1.75 27.6 1.45 27.95 1.1 28.35 0.75 28.7 0.35 29.05 0.0 29.35 -0.4 29.65 -0.85 29.95 -1.25 30.2 -1.7 30.45 -2.15 30.65 -2.55 30.8 -3.05 30.95 -3.45 L30.95 -3.45" fill="#000000" fill-rule="evenodd" stroke="none"/>
    <path d="M-19.9 -25.9 Q-19.65 -26.45 -19.25 -26.85 -18.85 -27.15 -18.35 -27.35 -17.9 -27.5 -17.3 -27.5 -16.8 -27.5 -16.1 -27.45 -15.6 -27.35 -14.85 -27.2 -16.15 -27.5 -13.5 -26.95 -12.7 -26.75 -12.2 -26.7 -11.45 -26.6 -10.9 -26.6 -10.0 -26.6 -9.05 -26.65 -8.2 -26.7 -7.2 -26.85 -6.4 -26.95 -5.4 -27.15 -5.0 -27.2 -3.6 -27.5 -2.5 -27.7 -1.8 -27.8 -0.85 -27.95 -0.05 -28.05 0.9 -28.15 1.7 -28.2 2.6 -28.2 3.4 -28.15 4.4 -28.05 5.4 -27.85 6.4 -27.65 7.35 -27.3 8.3 -27.0 9.25 -26.55 10.15 -26.1 11.0 -25.6 11.8 -25.1 12.6 -24.5 13.35 -23.9 14.05 -23.2 14.75 -22.55 15.35 -21.85 15.95 -21.1 16.45 -20.35 15.75 -21.05 15.05 -21.65 14.3 -22.35 13.55 -22.95 12.7 -23.65 11.85 -24.2 10.95 -24.85 10.0 -25.35 9.05 -25.9 8.05 -26.3 6.95 -26.75 5.9 -27.05 4.75 -27.35 3.6 -27.55 2.35 -27.7 1.1 -27.7 0.45 -27.7 -0.25 -27.6 -0.9 -27.55 -1.6 -27.4 -2.2 -27.3 -3.05 -27.1 -7.15 -26.25 -4.45 -26.8 -5.35 -26.6 -5.95 -26.5 -6.8 -26.35 -7.55 -26.25 -8.4 -26.15 -9.15 -26.15 -10.05 -26.1 -10.9 -26.15 -11.5 -26.2 -12.2 -26.25 -12.75 -26.35 -13.5 -26.45 -14.95 -26.7 -14.7 -26.65 -15.4 -26.8 -15.85 -26.85 -16.5 -26.9 -17.0 -26.9 -17.55 -26.9 -18.05 -26.8 -18.55 -26.7 -19.0 -26.5 -19.5 -26.25 -19.9 -25.9 L-19.9 -25.9" fill="#000000" fill-rule="evenodd" stroke="none"/>
    <path d="M0.05 -25.0 Q-0.05 -25.0 -0.1 -25.0 -0.15 -25.0 -0.15 -25.05 -0.2 -25.05 -0.2 -25.1 -0.25 -25.1 -0.2 -25.15 -0.2 -25.15 -0.2 -25.2 -0.15 -25.2 -0.15 -25.25 -0.1 -25.25 -0.05 -25.25 0.0 -25.25 0.05 -25.25 1.2 -25.4 2.3 -25.4 3.45 -25.45 4.55 -25.4 5.65 -25.3 6.65 -25.15 7.7 -24.95 8.6 -24.65 9.6 -24.3 10.4 -23.85 11.25 -23.4 11.95 -22.8 12.7 -22.2 13.25 -21.4 13.8 -20.65 14.2 -19.7 13.7 -20.5 13.1 -21.2 12.45 -21.85 11.75 -22.4 11.05 -22.95 10.2 -23.35 9.4 -23.75 8.5 -24.1 7.6 -24.4 6.6 -24.6 5.65 -24.8 4.55 -24.9 3.5 -25.0 2.35 -25.05 1.25 -25.05 0.05 -25.0 L0.05 -25.0" fill="#000000" fill-rule="evenodd" stroke="none"/>
    <path d="M-9.15 -23.0 Q-9.8 -23.25 -10.55 -23.5 -11.35 -23.7 -12.15 -23.85 -13.05 -23.95 -13.9 -24.0 -14.8 -24.0 -15.65 -23.9 -16.5 -23.75 -17.25 -23.5 -18.05 -23.2 -18.7 -22.75 -19.35 -22.25 -19.75 -21.55 -20.25 -20.85 -20.45 -19.9 -20.55 -20.45 -20.45 -21.0 -20.35 -21.5 -20.05 -21.95 -19.8 -22.4 -19.35 -22.8 -18.95 -23.15 -18.4 -23.5 -17.9 -23.75 -17.3 -24.0 -16.65 -24.2 -16.0 -24.35 -15.3 -24.5 -14.6 -24.55 -13.9 -24.6 -13.2 -24.6 -12.85 -24.6 -12.6 -24.55 -12.25 -24.55 -12.0 -24.5 -11.65 -24.45 -11.35 -24.4 -11.05 -24.35 -10.8 -24.25 -10.5 -24.2 -10.25 -24.05 -9.95 -23.95 -9.75 -23.8 -9.55 -23.65 -9.4 -23.45 -9.2 -23.25 -9.15 -23.0 L-9.15 -23.0" fill="#000000" fill-rule="evenodd" stroke="none"/>
    <path d="M25.15 0.75 Q25.8 0.6 26.35 0.25 26.9 -0.1 27.3 -0.6 27.75 -1.15 28.05 -1.8 28.35 -2.5 28.55 -3.3 28.75 -4.1 28.9 -5.0 29.0 -5.85 29.05 -6.85 29.05 -7.8 29.0 -8.8 28.95 -9.8 28.85 -10.8 29.05 -10.25 29.15 -9.6 29.25 -9.05 29.3 -8.45 29.35 -7.85 29.35 -7.25 29.3 -6.7 29.25 -6.05 29.2 -5.55 29.1 -4.85 29.1 -4.5 28.95 -3.65 28.85 -2.9 28.8 -2.45 28.7 -1.8 28.65 -1.25 28.45 -1.1 28.25 -0.95 28.1 -0.8 27.9 -0.6 27.6 -0.35 27.5 -0.25 27.3 -0.1 27.15 0.05 26.9 0.2 26.7 0.35 26.5 0.45 26.25 0.55 26.0 0.65 25.75 0.7 25.45 0.75 25.15 0.75 L25.15 0.75" fill="#000000" fill-rule="evenodd" stroke="none"/>
    <path d="M-25.55 19.85 Q-25.5 19.9 -25.45 20.0 -25.4 20.1 -25.35 20.25 -25.35 20.35 -25.35 20.5 -25.35 20.65 -25.35 20.85 -25.35 20.95 -25.35 21.15 -25.4 21.4 -25.4 21.5 -25.4 21.7 -25.4 21.8 -25.4 21.95 -25.35 22.1 -24.15 23.4 -22.45 24.25 -20.9 25.05 -18.95 25.5 -17.1 25.9 -15.0 26.0 -13.0 26.05 -10.8 25.85 -8.75 25.65 -6.55 25.25 -4.5 24.85 -2.4 24.25 -0.5 23.75 1.35 23.1 3.1 22.5 4.65 21.85 6.95 20.9 11.6 18.15 15.85 15.6 18.25 14.75 16.85 15.95 15.1 17.1 13.35 18.3 11.25 19.4 9.15 20.55 6.85 21.5 4.5 22.55 2.05 23.35 -0.5 24.25 -3.05 24.85 -5.7 25.5 -8.25 25.9 -10.95 26.3 -13.55 26.4 -16.2 26.55 -18.65 26.3 -19.25 26.25 -19.9 26.15 -20.55 26.0 -21.15 25.85 -21.8 25.65 -22.4 25.35 -23.05 25.05 -23.55 24.7 -24.1 24.35 -24.5 23.85 -24.95 23.35 -25.2 22.8 -25.5 22.15 -25.6 21.45 -25.65 20.7 -25.55 19.85 L-25.55 19.85" fill="#000000" fill-rule="evenodd" stroke="none"/>
  </g>
</svg>
