<?xml version="1.0" encoding="UTF-8" standalone="no"?>
<svg xmlns:ffdec="https://www.free-decompiler.com/flash" xmlns:xlink="http://www.w3.org/1999/xlink" ffdec:objectType="shape" height="176.05px" width="487.9px" xmlns="http://www.w3.org/2000/svg">
  <g transform="matrix(1.0, 0.0, 0.0, 1.0, 562.8, 5.95)">
    <path d="M-549.5 140.5 L-554.8 94.55 -466.05 42.55" fill="none" stroke="#000000" stroke-linecap="round" stroke-linejoin="round" stroke-width="16.0"/>
    <path d="M-181.2 -4.45 Q-182.0 -4.95 -182.0 -5.0 -182.0 -5.95 -180.95 -5.95 -180.15 -5.95 -180.35 -5.45 -180.35 -4.45 -181.2 -4.45 M-160.6 24.45 L-159.9 24.45 -159.8 24.55 -160.2 24.8 -160.6 24.6 -160.6 24.45 M-160.15 22.95 L-160.0 22.95 Q-159.35 22.95 -159.35 23.55 -159.35 23.8 -159.7 23.8 L-160.15 23.5 -160.15 22.95 M-156.1 27.6 Q-156.1 27.9 -156.4 27.9 L-156.55 27.85 -156.55 27.5 -156.3 27.45 -156.1 27.6 M-155.55 89.9 L-155.75 90.05 Q-156.25 90.05 -156.35 89.75 L-156.0 89.45 Q-155.7 89.45 -155.55 89.9 M-147.4 93.15 L-147.65 93.4 -147.85 93.15 -147.6 92.95 -147.4 93.15 M-145.8 93.0 Q-145.5 93.0 -145.5 93.4 L-145.7 93.5 -145.95 93.35 -145.95 93.0 -145.8 93.0 M-142.55 96.25 L-142.8 96.4 -142.9 96.15 -142.65 96.15 -142.55 96.25 M-87.9 157.9 Q-87.9 158.65 -89.25 158.85 L-89.9 158.75 -90.15 158.15 Q-90.15 157.4 -88.65 157.35 L-88.0 157.5 -87.9 157.9 M-77.5 168.1 L-74.9 169.35 Q-75.0 170.1 -75.9 170.1 -78.4 170.1 -78.4 168.7 -78.4 168.1 -77.5 168.1 M-167.0 22.2 L-167.35 21.9 Q-167.35 21.5 -166.65 21.5 -166.3 21.5 -166.35 21.75 -166.35 22.2 -167.0 22.2 M-167.55 82.0 L-167.85 82.05 -168.2 82.0 -168.25 81.75 -167.9 81.55 -167.6 81.6 -167.55 82.0 M-166.35 84.9 L-166.45 84.65 -166.15 84.45 -165.9 84.5 -165.85 84.8 Q-165.9 84.95 -166.1 84.95 L-166.35 84.9" fill="#540101" fill-rule="evenodd" stroke="none"/>
  </g>
</svg>
