<?xml version="1.0" encoding="UTF-8" standalone="no"?>
<svg xmlns:ffdec="https://www.free-decompiler.com/flash" xmlns:xlink="http://www.w3.org/1999/xlink" ffdec:objectType="shape" height="69.0px" width="69.0px" xmlns="http://www.w3.org/2000/svg">
  <g transform="matrix(1.0, 0.0, 0.0, 1.0, 34.5, 34.5)">
    <path d="M39.15 5.5 Q39.15 -8.45 29.3 -18.3 19.45 -28.15 5.5 -28.15 -8.45 -28.15 -18.3 -18.3 -28.15 -8.45 -28.15 5.5 -28.15 19.45 -18.3 29.3 -8.45 39.15 5.5 39.15 19.45 39.15 29.3 29.3 39.15 19.45 39.15 5.5 L39.15 5.5" fill="#000000" fill-rule="evenodd" stroke="none"/>
    <path d="M5.5 38.3 Q-8.1 38.3 -17.7 28.7 -27.25 19.1 -27.25 5.5 -27.25 -8.1 -17.7 -17.7 -8.1 -27.25 5.5 -27.25 12.3 -27.25 17.1 -22.5 21.9 -17.7 21.9 -10.9 21.9 -4.1 17.1 0.7 12.3 5.5 5.5 5.5 -1.3 5.5 -6.1 10.3 -10.9 15.1 -10.9 21.9 -10.9 28.7 -6.1 33.5 -1.3 38.25 5.5 38.3" fill="#ffffff" fill-rule="evenodd" stroke="none"/>
    <path d="M9.8 21.9 Q9.8 20.1 8.55 18.85 7.3 17.6 5.5 17.6 3.7 17.6 2.45 18.85 1.2 20.1 1.2 21.9 1.2 23.65 2.45 24.95 3.7 26.2 5.5 26.2 7.3 26.2 8.55 24.95 9.8 23.65 9.8 21.9 L9.8 21.9" fill="#ffffff" fill-rule="evenodd" stroke="none"/>
    <path d="M9.8 -10.9 Q9.8 -12.65 8.55 -13.95 7.3 -15.2 5.5 -15.2 3.7 -15.2 2.45 -13.95 1.2 -12.65 1.2 -10.9 1.2 -9.1 2.45 -7.85 3.7 -6.55 5.5 -6.55 7.3 -6.55 8.55 -7.85 9.8 -9.1 9.8 -10.9 L9.8 -10.9" fill="#000000" fill-rule="evenodd" stroke="none"/>
  </g>
</svg>
