<?xml version="1.0" encoding="UTF-8" standalone="no"?>
<svg xmlns:ffdec="https://www.free-decompiler.com/flash" xmlns:xlink="http://www.w3.org/1999/xlink" ffdec:objectType="shape" height="185.3px" width="451.05px" xmlns="http://www.w3.org/2000/svg">
  <g transform="matrix(1.0, 0.0, 0.0, 1.0, 526.2, 5.45)">
    <path d="M-516.35 137.6 L-518.2 93.55 -431.65 42.55" fill="none" stroke="#000000" stroke-linecap="round" stroke-linejoin="round" stroke-width="16.0"/>
    <path d="M-180.35 -4.9 Q-180.35 -4.3 -180.85 -4.3 -181.4 -4.3 -181.5 -4.6 L-181.5 -4.9 Q-181.5 -5.45 -180.85 -5.45 -180.35 -5.45 -180.35 -4.9 M-160.0 23.55 Q-160.0 23.3 -159.6 23.3 -159.2 23.3 -159.3 23.55 -159.3 23.85 -159.6 23.85 L-160.0 23.55 M-160.0 24.7 Q-160.05 24.85 -160.25 24.85 L-160.4 24.75 -160.4 24.6 -160.1 24.6 -160.0 24.7 M-156.1 90.2 L-156.15 89.95 -155.9 89.75 -155.65 89.95 -155.65 90.2 -155.85 90.25 -156.1 90.2 M-87.65 167.9 Q-87.65 168.6 -88.75 168.6 -89.55 168.6 -89.85 168.25 L-89.9 167.9 Q-89.9 167.45 -88.75 167.35 L-87.75 167.5 -87.65 167.9 M-77.35 179.25 L-77.4 178.5 -76.4 178.35 Q-75.9 178.35 -75.15 179.25 L-75.75 179.85 Q-76.85 179.85 -77.35 179.25 M-166.55 22.0 L-166.9 22.15 -167.2 21.85 Q-167.2 21.65 -166.85 21.65 L-166.35 21.9 Q-166.3 22.0 -166.55 22.0" fill="#540101" fill-rule="evenodd" stroke="none"/>
  </g>
</svg>
