<?xml version="1.0" encoding="UTF-8" standalone="no"?>
<svg xmlns:ffdec="https://www.free-decompiler.com/flash" xmlns:xlink="http://www.w3.org/1999/xlink" ffdec:objectType="shape" height="408.2px" width="651.0px" xmlns="http://www.w3.org/2000/svg">
  <g transform="matrix(1.0, 0.0, 0.0, 1.0, 270.05, 36.25)">
    <path d="M-261.05 172.0 L-177.05 185.0 -152.05 262.05" fill="none" stroke="#000000" stroke-linecap="round" stroke-linejoin="round" stroke-width="16.0"/>
    <path d="M-261.05 172.0 L-250.05 265.65 -262.05 363.95" fill="none" stroke="#000000" stroke-linecap="round" stroke-linejoin="round" stroke-width="16.0"/>
    <path d="M22.4 57.2 L-112.05 41.5 -188.65 4.15" fill="none" stroke="#000000" stroke-linecap="round" stroke-linejoin="round" stroke-width="16.0"/>
    <path d="M38.5 57.55 L38.65 55.7 Q38.65 41.25 4.05 31.05 -30.55 20.85 -79.5 20.9 -128.45 20.85 -163.05 31.05 -174.45 34.4 -182.1 38.25 L-70.9 -35.9 Q-55.85 -36.25 -40.25 -36.25 100.4 -36.25 199.85 -10.55 297.3 14.65 299.25 50.1 L38.5 57.55" fill="url(#gradient0)" fill-rule="evenodd" stroke="none"/>
    <path d="M299.25 50.1 L380.45 47.75 M38.5 57.55 L29.05 57.8 M299.25 50.1 L38.5 57.55" fill="none" stroke="#00ffff" stroke-linecap="round" stroke-linejoin="round" stroke-width="1.0"/>
  </g>
  <defs>
    <linearGradient gradientTransform="matrix(0.0869, 0.1882, -0.0968, 0.0447, -203.6, 253.1)" gradientUnits="userSpaceOnUse" id="gradient0" spreadMethod="pad" x1="-819.2" x2="819.2">
      <stop offset="0.0" stop-color="#ffffff" stop-opacity="0.0"/>
      <stop offset="1.0" stop-color="#ffffff"/>
    </linearGradient>
  </defs>
</svg>
