<?xml version="1.0" encoding="UTF-8" standalone="no"?>
<svg xmlns:ffdec="https://www.free-decompiler.com/flash" xmlns:xlink="http://www.w3.org/1999/xlink" ffdec:objectType="shape" height="408.2px" width="569.35px" xmlns="http://www.w3.org/2000/svg">
  <g transform="matrix(1.0, 0.0, 0.0, 1.0, 270.05, 36.25)">
    <path d="M-222.5 171.5 L-132.3 207.2 -93.05 293.05" fill="none" stroke="#000000" stroke-linecap="round" stroke-linejoin="round" stroke-width="16.0"/>
    <path d="M-222.5 171.5 L-231.45 261.75 -262.05 363.95" fill="none" stroke="#000000" stroke-linecap="round" stroke-linejoin="round" stroke-width="16.0"/>
    <path d="M-46.1 79.2 L-91.05 42.5 -166.65 2.15" fill="none" stroke="#000000" stroke-linecap="round" stroke-linejoin="round" stroke-width="16.0"/>
    <path d="M-40.25 -36.25 Q100.4 -36.25 199.85 -10.55 299.3 15.15 299.3 51.55 299.3 87.95 199.85 113.65 131.65 131.3 44.05 136.85 L-38.65 88.5 Q-15.1 85.95 4.05 80.3 38.65 70.1 38.65 55.7 38.65 41.25 4.05 31.05 -30.55 20.85 -79.5 20.9 L-115.05 22.4 -108.05 -34.65 Q-75.45 -36.25 -40.25 -36.25" fill="url(#gradient0)" fill-rule="evenodd" stroke="none"/>
  </g>
  <defs>
    <linearGradient gradientTransform="matrix(-0.0163, 0.1845, -0.106, -0.0094, -220.0, 115.0)" gradientUnits="userSpaceOnUse" id="gradient0" spreadMethod="pad" x1="-819.2" x2="819.2">
      <stop offset="0.0" stop-color="#ffffff" stop-opacity="0.0"/>
      <stop offset="1.0" stop-color="#ffffff"/>
    </linearGradient>
  </defs>
</svg>
