<?xml version="1.0" encoding="UTF-8" standalone="no"?>
<svg xmlns:ffdec="https://www.free-decompiler.com/flash" xmlns:xlink="http://www.w3.org/1999/xlink" ffdec:objectType="shape" height="408.2px" width="569.35px" xmlns="http://www.w3.org/2000/svg">
  <g transform="matrix(1.0, 0.0, 0.0, 1.0, 270.05, 36.25)">
    <path d="M-197.6 170.15 L-104.05 209.95 -67.05 326.0" fill="none" stroke="#000000" stroke-linecap="round" stroke-linejoin="round" stroke-width="16.0"/>
    <path d="M-197.6 170.15 L-218.45 266.75 -262.05 363.95" fill="none" stroke="#000000" stroke-linecap="round" stroke-linejoin="round" stroke-width="16.0"/>
    <path d="M-77.6 87.2 L-106.55 42.0 -153.65 0.15" fill="none" stroke="#000000" stroke-linecap="round" stroke-linejoin="round" stroke-width="16.0"/>
    <path d="M-40.25 -36.25 Q100.4 -36.25 199.85 -10.55 299.3 15.15 299.3 51.55 299.3 87.95 199.85 113.65 100.4 139.4 -40.25 139.4 L-90.0 139.1 -76.95 90.5 Q-29.65 90.25 4.05 80.3 38.65 70.1 38.65 55.7 38.65 41.25 4.05 31.05 -30.55 20.85 -79.5 20.9 -90.3 20.85 -100.35 21.4 L-83.45 -35.6 Q-62.35 -36.25 -40.25 -36.25" fill="url(#gradient0)" fill-rule="evenodd" stroke="none"/>
  </g>
  <defs>
    <linearGradient gradientTransform="matrix(0.0073, 0.1673, -0.1059, 0.0046, 142.65, 181.05)" gradientUnits="userSpaceOnUse" id="gradient0" spreadMethod="pad" x1="-819.2" x2="819.2">
      <stop offset="0.0" stop-color="#ffffff" stop-opacity="0.0"/>
      <stop offset="1.0" stop-color="#ffffff"/>
    </linearGradient>
  </defs>
</svg>
