<?xml version="1.0" encoding="UTF-8" standalone="no"?>
<svg xmlns:ffdec="https://www.free-decompiler.com/flash" xmlns:xlink="http://www.w3.org/1999/xlink" ffdec:objectType="shape" height="28.7px" width="72.35px" xmlns="http://www.w3.org/2000/svg">
  <g transform="matrix(1.0, 0.0, 0.0, 1.0, 74.9, -6.7)">
    <path d="M-22.45 17.35 Q-18.45 14.3 -15.65 12.8 -10.35 9.95 -5.7 10.0 -3.55 14.0 -3.55 18.85 -3.55 25.55 -7.6 30.5 -14.35 33.2 -32.75 34.75 L-35.85 32.2 Q-37.7 30.3 -38.9 28.2 -37.6 28.4 -35.9 27.6 L-33.8 26.3 -29.6 23.1 -28.5 24.75 Q-27.1 26.15 -25.1 26.15 -23.1 26.15 -21.7 24.75 -20.3 23.35 -20.3 21.35 -20.3 19.35 -21.7 17.95 L-22.45 17.35 M-56.7 18.3 L-56.6 18.45 Q-50.8 25.3 -49.2 26.65 L-46.9 28.05 Q-47.8 31.25 -49.65 33.7 -65.6 29.55 -70.25 25.6 -71.5 21.65 -71.5 17.1 -71.5 11.6 -69.65 7.5 -67.6 8.0 -65.35 9.65 L-63.1 11.55 -64.2 12.35 Q-65.6 13.75 -65.6 15.75 L-65.3 17.5 -64.2 19.15 Q-62.8 20.55 -60.8 20.55 -58.8 20.55 -57.4 19.15 L-56.7 18.3" fill="#ffffff" fill-rule="evenodd" stroke="none"/>
    <path d="M-29.6 23.1 L-26.9 20.9 -26.25 20.35 Q-24.25 18.7 -22.45 17.35 L-21.7 17.95 Q-20.3 19.35 -20.3 21.35 -20.3 23.35 -21.7 24.75 -23.1 26.15 -25.1 26.15 -27.1 26.15 -28.5 24.75 L-29.6 23.1 M-56.7 18.3 L-57.4 19.15 Q-58.8 20.55 -60.8 20.55 -62.8 20.55 -64.2 19.15 L-65.3 17.5 -65.6 15.75 Q-65.6 13.75 -64.2 12.35 L-63.1 11.55 Q-60.35 14.0 -56.7 18.3" fill="#000000" fill-rule="evenodd" stroke="none"/>
    <path d="M-5.7 10.0 L-3.05 10.3 M-22.45 17.35 Q-18.45 14.3 -15.65 12.8 -10.35 9.95 -5.7 10.0 -3.55 14.0 -3.55 18.85 -3.55 25.55 -7.6 30.5 L-5.1 29.2 M-22.45 17.35 Q-24.25 18.7 -26.25 20.35 L-26.9 20.9 -29.6 23.1 -33.8 26.3 -35.9 27.6 Q-37.6 28.4 -38.9 28.2 -40.75 27.95 -41.85 25.75 M-32.75 34.75 L-34.8 34.9 M-32.75 34.75 L-35.85 32.2 Q-37.7 30.3 -38.9 28.2 M-7.6 30.5 Q-14.35 33.2 -32.75 34.75 M-63.1 11.55 L-65.35 9.65 Q-67.6 8.0 -69.65 7.5 -71.5 11.6 -71.5 17.1 -71.5 21.65 -70.25 25.6 -65.6 29.55 -49.65 33.7 -47.8 31.25 -46.9 28.05 L-49.2 26.65 Q-50.8 25.3 -56.6 18.45 L-56.7 18.3 Q-60.35 14.0 -63.1 11.55 M-69.65 7.5 Q-72.2 6.8 -74.4 7.8 M-70.25 25.6 L-70.95 24.95 M-49.65 33.7 L-48.7 33.95 M-46.9 28.05 Q-45.2 28.55 -44.25 26.85" fill="none" stroke="#000000" stroke-linecap="round" stroke-linejoin="round" stroke-width="1.0"/>
  </g>
</svg>
