<?xml version="1.0" encoding="UTF-8" standalone="no"?>
<svg xmlns:ffdec="https://www.free-decompiler.com/flash" xmlns:xlink="http://www.w3.org/1999/xlink" ffdec:objectType="shape" height="3.1px" width="46.75px" xmlns="http://www.w3.org/2000/svg">
  <g transform="matrix(1.0, 0.0, 0.0, 1.0, 23.8, 1.75)">
    <path d="M-23.8 -1.75 Q-22.6 -0.45 -21.1 -0.4 2.7 1.05 22.35 0.55 L22.95 1.15 Q-0.35 1.75 -20.85 0.3 -22.85 0.15 -23.8 -1.75" fill="url(#gradient0)" fill-rule="evenodd" stroke="none"/>
    <path d="M22.35 0.55 Q2.7 1.05 -21.1 -0.4 -22.6 -0.45 -23.8 -1.75 0.1 -0.45 21.05 -0.8 L22.35 0.55" fill="url(#gradient1)" fill-rule="evenodd" stroke="none"/>
    <path d="M-23.8 -1.75 Q-22.85 0.15 -20.85 0.3 -0.35 1.75 22.95 1.15 L22.35 0.55 21.05 -0.8 Q0.1 -0.45 -23.8 -1.75 Z" fill="none" stroke="#000000" stroke-linecap="round" stroke-linejoin="round" stroke-opacity="0.5019608" stroke-width="0.05"/>
  </g>
  <defs>
    <linearGradient gradientTransform="matrix(0.0301, 0.0019, -1.0E-4, 0.0019, 1.25, -1.05)" gradientUnits="userSpaceOnUse" id="gradient0" spreadMethod="pad" x1="-819.2" x2="819.2">
      <stop offset="0.0" stop-color="#aaaaaa"/>
      <stop offset="0.2980392156862745" stop-color="#ffffff"/>
      <stop offset="1.0" stop-color="#dddddd"/>
    </linearGradient>
    <linearGradient gradientTransform="matrix(0.0293, 0.0056, -3.0E-4, 0.0016, 1.4, -1.75)" gradientUnits="userSpaceOnUse" id="gradient1" spreadMethod="pad" x1="-819.2" x2="819.2">
      <stop offset="0.0" stop-color="#c7c7c7"/>
      <stop offset="0.23529411764705882" stop-color="#666666"/>
      <stop offset="0.2901960784313726" stop-color="#b5b5b5"/>
      <stop offset="0.6666666666666666" stop-color="#6e6e6e"/>
      <stop offset="0.7058823529411765" stop-color="#b3b3b3"/>
      <stop offset="1.0" stop-color="#6a6a6a"/>
    </linearGradient>
  </defs>
</svg>
