<?xml version="1.0" encoding="UTF-8" standalone="no"?>
<svg xmlns:ffdec="https://www.free-decompiler.com/flash" xmlns:xlink="http://www.w3.org/1999/xlink" ffdec:objectType="shape" height="6.6px" width="19.75px" xmlns="http://www.w3.org/2000/svg">
  <g transform="matrix(1.0, 0.0, 0.0, 1.0, 10.2, 3.1)">
    <path d="M6.55 -0.95 L6.15 -0.15 6.65 0.55 7.05 -0.25 6.55 -0.95 M5.0 -0.9 L4.6 -0.1 5.1 0.6 5.5 -0.2 5.0 -0.9 M3.95 -0.1 L3.45 -0.8 3.05 0.0 3.55 0.7 3.95 -0.1 M8.85 -1.25 L8.95 0.7 -0.9 1.15 -0.9 0.8 -0.55 0.1 -0.95 -0.5 -1.0 -0.8 8.85 -1.25 M0.05 0.15 L0.55 0.85 0.95 0.05 0.45 -0.65 0.05 0.15 M1.55 0.1 L2.05 0.8 2.45 0.0 1.95 -0.7 1.55 0.1 M8.15 -1.0 L7.75 -0.2 8.25 0.5 8.65 -0.3 8.15 -1.0" fill="#000000" fill-rule="evenodd" stroke="none"/>
    <path d="M3.95 -0.1 L3.55 0.7 3.05 0.0 3.45 -0.8 3.95 -0.1 M5.0 -0.9 L5.5 -0.2 5.1 0.6 4.6 -0.1 5.0 -0.9 M6.55 -0.95 L7.05 -0.25 6.65 0.55 6.15 -0.15 6.55 -0.95 M-0.9 1.15 L-2.3 1.2 -2.35 -0.75 -1.0 -0.8 -0.95 -0.5 -0.9 0.8 -0.95 -0.5 -0.55 0.1 -0.9 0.8 -0.9 1.15 M8.15 -1.0 L8.65 -0.3 8.25 0.5 7.75 -0.2 8.15 -1.0 M1.55 0.1 L1.95 -0.7 2.45 0.0 2.05 0.8 1.55 0.1 M0.05 0.15 L0.45 -0.65 0.95 0.05 0.55 0.85 0.05 0.15" fill="url(#gradient0)" fill-rule="evenodd" stroke="none"/>
    <path d="M8.85 -1.25 L9.3 -1.3 Q9.8 -0.35 9.35 0.65 L8.95 0.7 8.85 -1.25" fill="url(#gradient1)" fill-rule="evenodd" stroke="none"/>
    <path d="M-2.3 1.2 L-8.3 1.4 -8.9 0.8 -4.05 0.6 -2.3 1.2" fill="url(#gradient2)" fill-rule="evenodd" stroke="none"/>
    <path d="M-8.9 0.8 L-10.2 -0.55 -2.35 -0.75 -2.3 1.2 -4.05 0.6 -8.9 0.8" fill="url(#gradient3)" fill-rule="evenodd" stroke="none"/>
    <path d="M8.95 0.7 L9.35 0.65 Q9.8 -0.35 9.3 -1.3 L8.85 -1.25 -1.0 -0.8 -2.35 -0.75 -2.3 1.2 -8.3 1.4 -8.9 0.8 -10.2 -0.55 -2.35 -0.75 M8.95 0.7 L-0.9 1.15 -2.3 1.2 M-0.95 -0.5 L-1.0 -0.8 M-0.9 1.15 L-0.9 0.8 -0.95 -0.5" fill="none" stroke="#000000" stroke-linecap="round" stroke-linejoin="round" stroke-opacity="0.5019608" stroke-width="0.05"/>
    <path d="M-2.5 1.35 L-5.3 1.4 -5.4 -0.85 -2.6 -0.9 -2.5 1.35" fill="url(#gradient4)" fill-rule="evenodd" stroke="none"/>
    <path d="M-2.6 -0.9 L-2.7 -3.05 -1.75 -3.1 -1.45 3.45 -2.4 3.5 -2.5 1.35 -2.6 -0.9" fill="url(#gradient5)" fill-rule="evenodd" stroke="none"/>
    <path d="M-2.5 1.35 L-5.3 1.4 -5.4 -0.85 -2.6 -0.9 -2.7 -3.05 -1.75 -3.1 -1.45 3.45 -2.4 3.5 -2.5 1.35 -2.6 -0.9" fill="none" stroke="#000000" stroke-linecap="round" stroke-linejoin="round" stroke-opacity="0.5019608" stroke-width="0.05"/>
  </g>
  <defs>
    <linearGradient gradientTransform="matrix(0.0, 0.0012, -9.0E-4, 0.0, -1.6, 0.2)" gradientUnits="userSpaceOnUse" id="gradient0" spreadMethod="pad" x1="-819.2" x2="819.2">
      <stop offset="0.0" stop-color="#ffcc00"/>
      <stop offset="0.07058823529411765" stop-color="#ffffff"/>
      <stop offset="0.1803921568627451" stop-color="#fffeda"/>
      <stop offset="0.4" stop-color="#fff200"/>
      <stop offset="0.803921568627451" stop-color="#ffcc00"/>
      <stop offset="0.9450980392156862" stop-color="#653d01"/>
    </linearGradient>
    <linearGradient gradientTransform="matrix(0.0, 0.0012, -4.0E-4, 0.0, 9.2, -0.3)" gradientUnits="userSpaceOnUse" id="gradient1" spreadMethod="pad" x1="-819.2" x2="819.2">
      <stop offset="0.0" stop-color="#ffcc00"/>
      <stop offset="0.07058823529411765" stop-color="#ffffff"/>
      <stop offset="0.1803921568627451" stop-color="#fffeda"/>
      <stop offset="0.4" stop-color="#fff200"/>
      <stop offset="0.803921568627451" stop-color="#ffcc00"/>
      <stop offset="0.9450980392156862" stop-color="#653d01"/>
    </linearGradient>
    <linearGradient gradientTransform="matrix(0.0301, 0.0019, -1.0E-4, 0.0019, -30.0, -0.8)" gradientUnits="userSpaceOnUse" id="gradient2" spreadMethod="pad" x1="-819.2" x2="819.2">
      <stop offset="0.0" stop-color="#aaaaaa"/>
      <stop offset="0.2980392156862745" stop-color="#ffffff"/>
      <stop offset="1.0" stop-color="#dddddd"/>
    </linearGradient>
    <linearGradient gradientTransform="matrix(0.0293, 0.0056, -3.0E-4, 0.0016, -29.85, -1.5)" gradientUnits="userSpaceOnUse" id="gradient3" spreadMethod="pad" x1="-819.2" x2="819.2">
      <stop offset="0.0" stop-color="#c7c7c7"/>
      <stop offset="0.23529411764705882" stop-color="#666666"/>
      <stop offset="0.2901960784313726" stop-color="#b5b5b5"/>
      <stop offset="0.6666666666666666" stop-color="#6e6e6e"/>
      <stop offset="0.7058823529411765" stop-color="#b3b3b3"/>
      <stop offset="1.0" stop-color="#6a6a6a"/>
    </linearGradient>
    <linearGradient gradientTransform="matrix(0.0, 0.0015, -0.0015, 0.0, -4.0, 0.25)" gradientUnits="userSpaceOnUse" id="gradient4" spreadMethod="pad" x1="-819.2" x2="819.2">
      <stop offset="0.0" stop-color="#ffcc00"/>
      <stop offset="0.07058823529411765" stop-color="#ffffff"/>
      <stop offset="0.1803921568627451" stop-color="#fffeda"/>
      <stop offset="0.4" stop-color="#fff200"/>
      <stop offset="0.803921568627451" stop-color="#ffcc00"/>
      <stop offset="0.9450980392156862" stop-color="#653d01"/>
    </linearGradient>
    <linearGradient gradientTransform="matrix(1.0E-4, 0.004, -0.0015, 0.0, -3.95, 0.3)" gradientUnits="userSpaceOnUse" id="gradient5" spreadMethod="pad" x1="-819.2" x2="819.2">
      <stop offset="0.0" stop-color="#ffcc00"/>
      <stop offset="0.054901960784313725" stop-color="#fff200"/>
      <stop offset="0.11764705882352941" stop-color="#ffffff"/>
      <stop offset="0.5098039215686274" stop-color="#fff200"/>
      <stop offset="0.7098039215686275" stop-color="#ffcc00"/>
      <stop offset="1.0" stop-color="#3a2301"/>
    </linearGradient>
  </defs>
</svg>
