<?xml version="1.0" encoding="UTF-8" standalone="no"?>
<svg xmlns:ffdec="https://www.free-decompiler.com/flash" xmlns:xlink="http://www.w3.org/1999/xlink" ffdec:objectType="shape" height="31.2px" width="77.6px" xmlns="http://www.w3.org/2000/svg">
  <g transform="matrix(1.0, 0.0, 0.0, 1.0, 39.45, 15.75)">
    <path d="M22.0 -12.35 Q27.25 -16.55 35.35 -15.55 38.15 -10.55 38.15 -4.15 38.15 3.2 34.35 8.75 16.6 9.8 9.95 12.25 L8.35 10.5 8.3 10.45 Q9.9 10.55 11.1 8.4 L14.9 -1.6 Q17.85 -9.0 22.0 -12.35 M-38.95 -7.4 Q-31.05 -14.4 -24.4 -12.3 -19.25 -10.7 -13.9 -2.85 L-6.2 8.85 Q-4.25 11.2 -2.45 11.5 L-4.4 14.2 Q-12.55 12.15 -32.95 15.45 L-33.5 14.8 Q-39.45 7.85 -39.45 -1.95 -39.45 -4.8 -38.95 -7.4" fill="#ff0000" fill-rule="evenodd" stroke="none"/>
  </g>
</svg>
