<?xml version="1.0" encoding="UTF-8" standalone="no"?>
<svg xmlns:ffdec="https://www.free-decompiler.com/flash" xmlns:xlink="http://www.w3.org/1999/xlink" ffdec:objectType="shape" height="225.1px" width="356.4px" xmlns="http://www.w3.org/2000/svg">
  <g transform="matrix(1.0, 0.0, 0.0, 1.0, 178.2, 112.55)">
    <path d="M124.95 -100.35 Q119.5 -94.95 111.9 -80.35 103.4 -64.8 99.2 -65.85 98.05 -67.7 96.4 -73.0 94.65 -78.8 92.35 -88.7 76.65 -93.85 72.0 -92.0 L88.15 -17.5 88.9 -14.3 89.1 -13.5 Q91.3 -4.5 93.35 -3.1 95.95 -7.05 98.55 -13.35 L100.45 -18.3 101.0 -19.85 101.5 -21.4 100.45 -46.3 101.1 -47.15 102.95 -49.15 Q105.7 -51.85 110.4 -54.9 L112.0 -46.9 112.45 -44.5 112.8 -42.7 Q114.85 -31.25 116.55 -18.45 L116.65 -17.45 116.95 -15.05 117.15 -13.45 118.5 -1.3 Q128.8 6.9 139.05 11.2 L142.9 12.65 Q139.15 -0.95 134.8 -14.65 L133.9 -17.5 Q129.45 -31.3 124.45 -45.25 L122.9 -49.5 118.25 -61.8 Q126.0 -69.1 133.0 -72.45 129.25 -83.2 127.4 -102.45 L124.95 -100.35 M46.55 -2.1 L52.7 -1.8 Q59.65 -3.15 64.4 -12.15 L66.25 -16.15 Q67.6 -19.4 68.7 -23.4 L53.5 -35.6 Q49.2 -21.9 44.8 -29.4 44.0 -30.7 43.45 -32.15 41.8 -36.5 41.95 -42.45 41.95 -44.9 42.3 -47.6 L42.75 -50.55 42.9 -51.3 Q44.8 -60.7 50.95 -53.65 L58.95 -56.05 66.95 -58.5 Q65.5 -73.5 58.1 -78.85 54.55 -81.45 49.7 -81.85 39.1 -82.6 33.45 -76.0 31.95 -74.25 30.8 -72.0 24.05 -58.7 23.5 -46.75 L23.45 -45.25 23.5 -42.4 23.55 -41.6 Q24.0 -35.5 26.1 -29.8 28.9 -22.25 31.95 -16.75 L32.25 -16.2 33.65 -13.8 34.2 -12.95 Q39.65 -4.5 45.85 -2.3 M-16.4 -84.9 Q-11.25 -86.3 -4.95 -84.85 5.1 -82.5 15.35 -77.55 L15.1 -66.25 13.85 -17.8 13.8 -15.55 3.65 -6.9 2.45 -12.3 2.3 -13.1 1.5 -16.5 1.35 -17.2 -4.25 -40.6 -4.5 -41.55 -5.2 -44.2 -5.55 -45.7 Q-10.6 -65.3 -16.4 -84.9 M-36.05 -62.35 Q-38.7 -54.8 -41.0 -46.5 L-42.25 -41.9 Q-45.45 -29.65 -48.0 -15.95 L-48.6 -12.4 -50.2 -2.85 Q-57.4 -2.65 -64.65 0.45 L-62.95 -12.2 -62.85 -13.0 -62.55 -15.45 -62.4 -16.75 Q-61.05 -28.1 -59.95 -40.2 L-59.85 -41.2 -59.6 -44.1 -59.4 -46.3 -57.8 -67.65 -77.95 -66.85 -85.5 -66.6 Q-88.4 -85.9 -85.25 -94.05 -83.65 -96.85 -79.4 -94.3 L-31.65 -74.45 -15.9 -67.9 Q-15.9 -64.85 -18.45 -61.8 -21.95 -63.55 -26.1 -64.6 -30.1 -65.65 -34.7 -66.1 L-36.05 -62.35 M-94.85 -65.6 Q-88.3 -54.6 -86.35 -44.75 L-86.05 -43.15 -85.65 -40.25 Q-84.45 -29.5 -86.75 -15.9 L-87.05 -14.2 -87.75 -10.75 Q-90.85 2.9 -97.2 7.4 -103.2 11.55 -109.0 10.15 L-111.3 9.4 Q-116.9 6.95 -124.9 -10.7 L-125.25 -11.5 -126.6 -14.5 -126.9 -15.2 -128.95 -20.15 -122.95 -27.65 -118.05 -33.85 Q-113.15 -21.25 -107.3 -19.8 -101.45 -18.35 -103.45 -30.95 -104.15 -35.55 -105.0 -39.2 L-105.2 -39.9 -106.0 -43.0 -106.35 -44.05 Q-107.3 -47.05 -108.4 -49.1 -112.45 -46.55 -116.6 -44.25 L-118.4 -43.25 Q-121.15 -41.8 -123.95 -40.45 L-126.05 -39.45 -128.55 -38.3 Q-136.8 -34.55 -145.45 -31.8 -149.6 -35.25 -152.7 -38.95 L-153.75 -40.3 -155.7 -43.05 Q-162.85 -53.9 -161.75 -67.0 -161.3 -72.65 -159.95 -76.1 -156.4 -85.1 -146.8 -79.2 -133.55 -71.0 -127.9 -59.75 L-133.9 -56.2 Q-138.85 -64.55 -143.95 -64.4 -149.1 -64.3 -146.3 -56.0 -145.25 -52.95 -144.1 -51.0 -142.25 -47.8 -140.1 -47.85 -136.75 -47.9 -130.45 -51.75 -118.7 -59.2 -107.5 -64.9 L-97.5 -69.75 -94.85 -65.6 M-6.75 -104.8 Q-5.0 -107.75 -1.25 -108.4 5.9 -109.65 9.15 -100.4 12.35 -91.15 1.95 -89.3 L-2.25 -89.1 Q-8.5 -89.7 -8.45 -97.3 -8.45 -102.1 -6.75 -104.8 M137.6 47.3 L130.6 46.95 Q129.8 36.15 131.7 34.8 136.65 34.4 137.6 47.3 M113.95 19.8 Q123.05 18.9 134.1 20.2 145.65 19.45 155.45 21.8 157.7 22.75 156.95 24.7 153.65 28.8 152.95 32.3 L147.35 33.3 Q159.35 66.35 174.2 98.8 167.75 97.7 143.7 81.05 143.05 69.4 140.6 55.95 136.15 54.3 130.45 54.45 130.55 67.3 130.2 78.65 L129.85 87.8 120.45 87.2 Q118.7 86.25 117.8 68.85 116.9 51.45 113.95 19.8 M109.8 85.75 L112.1 102.7 Q108.25 106.35 94.35 108.55 91.25 108.35 90.7 107.2 77.85 77.25 67.0 46.95 67.25 65.0 68.5 85.3 63.7 81.7 60.75 77.2 58.9 53.0 55.35 28.05 L64.1 24.2 65.65 27.4 Q77.3 51.3 91.6 73.8 86.65 47.2 78.85 21.55 89.65 15.75 97.45 15.95 101.45 15.65 103.5 19.3 L103.8 23.9 Q105.9 55.05 109.8 85.75 M8.45 66.2 L8.1 77.45 Q4.15 78.2 0.65 76.85 -4.65 74.8 -9.05 68.05 -15.75 56.45 -15.05 47.05 -13.35 37.2 2.6 20.45 11.6 13.55 30.5 16.2 41.9 18.75 46.5 30.9 48.25 35.6 49.0 41.7 50.35 58.25 45.0 73.45 L42.7 72.65 Q30.7 68.2 21.5 62.3 10.4 55.3 3.5 55.05 1.65 63.2 8.45 66.2 M-24.2 74.75 Q-16.1 89.8 -6.45 104.15 L-7.8 106.05 Q-20.3 103.75 -29.8 100.85 L-32.95 99.85 Q-41.2 78.8 -46.75 60.05 L-55.25 59.15 -59.15 57.8 -58.45 101.75 Q-59.05 102.05 -60.75 100.95 L-63.0 99.3 -71.2 92.45 Q-71.15 60.85 -73.9 30.05 L-81.3 27.85 -83.25 20.45 Q-69.85 12.6 -50.0 11.85 -30.2 11.05 -23.7 25.0 -21.25 30.35 -22.05 36.2 -23.15 44.05 -30.05 52.85 L-33.3 56.6 -29.4 64.7 -24.2 74.75 M-84.15 96.15 L-81.2 105.0 -83.75 106.05 -104.25 95.7 Q-106.6 80.05 -111.65 62.3 L-121.95 64.0 -124.05 64.35 -129.6 89.65 Q-134.55 88.95 -138.2 86.4 -133.9 57.35 -131.45 30.3 -117.95 24.1 -104.95 20.55 -102.8 25.8 -102.65 32.5 L-106.05 34.6 Q-97.15 58.4 -88.2 84.35 L-84.15 96.15 M33.05 48.2 Q32.95 52.95 31.1 56.7 26.15 52.85 19.7 50.6 L17.85 49.95 Q16.55 47.9 17.85 45.3 22.7 40.45 27.95 41.95 33.15 43.45 33.05 48.2 M-58.65 29.05 Q-47.4 26.0 -43.25 32.95 -40.65 40.4 -46.9 45.05 L-53.0 44.7 -54.95 44.95 Q-58.25 45.65 -58.5 42.55 -57.9 36.75 -58.4 31.0 L-58.65 29.05 M-121.8 40.25 Q-123.6 46.85 -123.55 54.0 -118.55 55.65 -113.55 54.0 -115.7 47.15 -116.5 39.75 L-121.8 40.25" fill="none" stroke="#fce669" stroke-linecap="round" stroke-linejoin="round" stroke-width="8.0"/>
    <path d="M124.95 -100.35 Q118.05 -94.5 107.2 -87.95 105.4 -87.25 103.55 -84.05 100.25 -77.4 96.4 -73.0 M45.85 -2.3 L46.55 -2.1 M42.9 -51.3 L50.95 -53.65 M72.0 -92.0 Q64.75 -87.75 58.1 -78.85 M15.1 -66.25 Q26.4 -71.55 33.45 -76.0 M13.85 -17.8 L14.75 -15.6 Q15.6 -13.7 16.7 -11.95 L18.7 -9.15 Q32.5 -4.8 45.85 -2.3 M3.65 -6.9 Q-6.85 -10.45 -18.1 -12.8 L-18.2 -13.4 -18.7 -15.75 Q-21.4 -28.4 -24.6 -39.95 L-25.9 -44.7 Q-28.8 -54.6 -32.0 -63.65 L-36.05 -62.35 M-64.65 0.45 Q-73.05 -1.15 -84.25 -1.1 L-83.45 -11.65 -83.15 -15.55 -80.95 -40.25 -80.5 -44.4 -77.95 -66.85 M-85.5 -66.6 Q-89.9 -64.8 -94.85 -65.6 M-109.0 10.15 Q-124.0 13.7 -137.8 12.85 -142.55 6.65 -145.75 0.45 -140.45 -5.15 -136.25 -10.25 L-132.95 -14.45 -128.95 -20.15 M-122.95 -27.65 Q-124.8 -33.8 -128.55 -38.3 M-145.45 -31.8 Q-151.75 -28.35 -159.75 -25.7 -165.05 -28.0 -170.45 -39.8 L-171.05 -41.1 -172.15 -43.5 Q-174.6 -49.25 -174.1 -53.15 L-159.95 -76.1 M-133.9 -56.2 Q-133.65 -53.5 -144.1 -51.0 M-107.5 -64.9 Q-109.35 -68.25 -108.05 -73.25 -95.8 -86.2 -85.25 -94.05 M-31.65 -74.45 Q-21.5 -79.4 -16.4 -84.9 M58.95 -56.05 Q61.65 -51.3 63.8 -45.55 L65.0 -42.15 Q68.55 -31.15 70.15 -16.85 L70.45 -14.0 70.85 -8.8 Q71.75 -4.4 76.35 -3.65 90.45 -1.45 93.35 -3.1 M53.5 -35.6 L43.45 -32.15 M101.0 -19.85 L101.5 -17.85 102.3 -14.5 Q103.85 -7.65 105.15 1.1 106.25 5.85 109.85 6.4 126.65 7.55 139.05 11.2 M-2.25 -89.1 Q-8.9 -87.85 -17.35 -88.0 -19.4 -90.2 -20.1 -93.4 -12.55 -98.95 -6.75 -104.8 M174.2 98.8 Q163.05 98.35 151.0 94.65 147.4 93.35 141.35 92.45 137.55 91.7 135.45 89.05 131.85 85.65 130.2 78.65 M120.45 87.2 Q115.4 87.4 109.8 85.75 M90.7 107.2 Q86.0 108.5 69.35 102.55 67.8 102.05 67.6 100.55 66.35 91.35 63.75 84.35 54.25 82.55 42.6 81.45 35.75 80.65 38.2 72.7 L17.5 72.05 Q12.7 68.0 8.45 66.2 M0.65 76.85 Q-14.0 77.1 -24.2 74.75 M-29.8 100.85 Q-36.3 102.6 -46.9 98.95 -49.8 98.15 -50.0 93.7 -51.15 66.05 -55.25 59.15 M-60.75 100.95 Q-71.1 99.7 -84.15 96.15 M-83.75 106.05 Q-100.25 103.1 -119.25 95.05 -120.05 93.6 -119.9 83.8 -120.15 72.6 -121.95 64.0 M-138.2 86.4 Q-144.7 86.5 -152.9 82.3 -154.0 80.65 -152.9 76.25 -148.9 62.2 -147.45 45.85 -147.15 44.35 -146.1 43.6 -137.25 36.95 -131.45 30.3 M-88.2 84.35 Q-87.8 57.1 -89.4 40.45 -89.7 38.95 -91.4 38.45 L-95.75 39.8 Q-98.4 36.8 -99.65 33.45 -90.0 26.95 -83.25 20.45 M-22.05 36.2 Q-9.05 26.9 2.6 20.45 M46.5 30.9 Q52.3 28.3 55.35 28.05 M65.65 27.4 Q72.4 25.9 78.85 21.55 M103.8 23.9 Q109.55 20.9 113.95 19.8 M42.7 72.65 L38.2 72.7 M68.5 85.3 L63.75 84.35 M19.7 50.6 Q20.7 47.0 17.85 45.3 M-32.0 -63.65 L-26.1 -64.6 M-53.0 44.7 Q-50.9 36.55 -58.4 31.0 M-29.4 64.7 Q-30.9 57.85 -30.05 52.85" fill="none" stroke="#fce669" stroke-linecap="round" stroke-linejoin="round" stroke-width="8.0"/>
  </g>
</svg>
