<?xml version="1.0" encoding="UTF-8" standalone="no"?>
<svg xmlns:ffdec="https://www.free-decompiler.com/flash" xmlns:xlink="http://www.w3.org/1999/xlink" ffdec:objectType="shape" height="98.75px" width="329.15px" xmlns="http://www.w3.org/2000/svg">
  <g transform="matrix(1.0, 0.0, 0.0, 1.0, 164.3, 49.35)">
    <path d="M10.35 -17.1 Q13.9 -19.25 17.6 -18.2 19.05 -17.8 20.1 -17.1 22.25 -15.7 22.65 -13.25 22.25 -15.7 20.1 -17.1 28.1 -16.15 30.8 -17.0 35.1 -17.5 38.8 -16.15 L38.9 -13.6 Q29.35 -12.8 22.65 -13.25 L22.7 -12.2 Q15.15 -12.95 9.55 -12.05 9.25 -13.8 7.5 -14.85 8.9 -16.25 10.35 -17.1 8.9 -16.25 7.5 -14.85 7.05 -13.9 6.9 -13.0 0.2 -13.2 -2.85 -12.25 -7.05 -11.4 -12.0 -12.05 -19.35 -9.7 -25.45 -11.7 L-25.4 -13.1 -24.45 -16.5 -25.4 -13.1 -25.45 -11.7 Q-31.95 -11.15 -37.45 -11.45 L-38.05 -10.55 Q-44.85 -11.8 -54.35 -12.05 -74.15 -12.15 -77.25 -13.35 -78.9 -14.45 -82.7 -13.4 L-82.95 -13.35 -83.15 -16.55 -82.95 -13.35 -99.2 -12.7 -99.45 -16.6 -83.15 -16.55 -82.7 -16.5 Q-76.65 -15.9 -68.6 -16.45 -67.9 -14.65 -65.3 -15.2 L-63.35 -15.45 -57.25 -15.1 -55.4 -16.75 Q-43.9 -16.8 -35.4 -14.95 L-37.45 -11.45 -35.4 -14.95 Q-28.95 -15.05 -24.45 -16.5 -9.65 -16.5 -3.25 -17.85 L10.35 -17.1 M-23.65 -1.25 Q-13.45 -0.35 -7.25 -2.1 L-7.2 -0.75 4.85 -1.45 6.4 -0.65 38.25 -1.6 37.9 0.6 37.7 1.8 37.9 0.6 Q44.05 0.45 48.8 -1.15 53.75 -1.15 56.85 -3.55 L56.9 -1.45 57.0 1.7 56.9 -1.45 Q58.8 -1.2 60.7 -2.1 66.9 -1.75 71.25 -2.85 L71.9 -1.75 Q76.1 -1.05 78.0 -2.35 L78.25 -1.25 79.05 2.35 78.25 -1.25 Q89.5 -1.25 96.2 -3.1 102.3 -1.4 106.8 -2.3 114.5 -3.85 120.15 -3.3 L120.15 0.75 120.15 -3.3 Q126.8 -2.7 130.25 -4.2 L130.5 -2.95 Q137.85 -1.85 145.55 -4.3 L147.0 -0.65 Q140.5 2.8 131.1 0.8 123.55 1.65 120.15 0.75 112.55 2.55 106.95 0.35 L106.8 -2.3 106.95 0.35 107.05 1.85 Q101.3 1.2 96.75 2.05 L96.2 -3.1 96.75 2.05 Q85.6 0.45 79.05 2.35 L74.95 3.4 74.2 2.15 71.9 -1.75 74.2 2.15 Q66.75 1.85 62.65 3.1 L62.05 1.5 57.0 1.7 57.05 2.8 Q54.5 1.3 49.05 1.7 L48.8 -1.15 49.05 1.7 Q42.05 3.45 37.4 3.3 L37.7 1.8 Q28.0 3.5 12.4 2.95 1.25 1.4 -6.6 1.6 L-6.15 2.5 -22.4 1.95 Q-32.7 2.45 -39.75 4.55 L-40.5 0.1 Q-30.6 0.1 -23.65 -1.25 L-22.4 1.95 -23.65 -1.25 M38.9 -11.0 L38.9 -13.6 38.8 -16.15 Q44.3 -16.3 46.95 -17.65 54.45 -16.45 63.05 -17.6 L63.75 -16.3 66.5 -11.25 63.75 -16.3 Q69.25 -15.3 74.75 -16.2 L75.55 -12.9 74.75 -16.2 Q81.25 -16.45 85.25 -15.35 89.5 -14.8 95.0 -16.2 L95.35 -12.15 95.0 -16.2 Q101.35 -14.1 105.8 -15.7 L106.05 -12.65 105.8 -15.7 120.15 -14.95 120.25 -13.2 106.05 -12.65 Q102.4 -11.15 95.35 -12.15 88.6 -11.6 82.55 -12.45 L75.55 -12.9 Q69.8 -12.65 66.5 -11.25 62.05 -13.9 56.65 -13.2 50.7 -13.1 47.6 -11.95 L46.95 -17.65 47.6 -11.95 Q41.75 -13.05 38.9 -11.0 M140.95 -16.25 L142.35 -12.6 Q136.05 -11.15 127.25 -12.85 L127.0 -15.65 140.95 -16.25 M157.35 24.1 L159.05 27.9 Q153.2 29.15 149.0 26.8 145.15 27.45 145.3 28.9 L142.45 27.05 139.5 25.1 142.45 27.05 Q130.8 27.0 125.1 28.9 123.55 27.45 122.4 25.4 L138.75 24.6 139.5 25.1 Q150.0 25.4 157.35 24.1 M119.65 24.8 L119.5 27.65 110.1 27.05 Q109.5 26.75 109.05 24.55 114.25 24.15 119.65 24.8 M99.45 25.6 L99.85 28.5 Q88.6 29.4 83.45 27.55 79.9 29.4 72.5 28.2 L71.4 25.6 72.5 28.2 Q62.85 30.0 55.1 29.45 L54.1 26.15 71.4 25.6 Q76.5 26.3 84.4 25.6 91.15 24.5 99.45 25.6 M-28.4 25.5 L-26.5 28.7 Q-37.15 30.6 -47.45 28.75 -55.35 29.25 -60.5 30.4 L-60.7 26.7 Q-55.95 27.4 -48.15 26.95 L-48.65 25.55 Q-37.95 26.85 -28.4 25.5 M-69.5 -1.6 L-69.4 3.8 -82.1 2.9 -82.25 -0.5 -82.1 2.9 -82.05 4.2 -82.7 4.15 Q-89.85 3.65 -98.55 4.25 L-98.65 0.25 -82.7 -0.45 -82.25 -0.5 -82.3 -1.6 -78.25 -0.95 -69.5 -1.6 M-69.0 26.65 L-68.95 30.3 Q-76.65 31.6 -81.55 29.5 L-82.7 29.6 Q-91.85 30.3 -96.95 28.9 -104.5 31.55 -110.55 29.9 -114.6 29.55 -115.45 30.4 L-130.15 31.1 -130.25 27.25 Q-121.5 28.6 -116.1 26.8 -113.65 27.6 -108.05 27.0 -103.35 25.6 -97.6 27.0 L-82.7 25.85 -81.55 25.6 -81.55 29.5 -81.55 25.6 Q-77.05 26.7 -69.0 26.65 M-139.3 26.7 L-139.95 29.5 Q-144.9 28.8 -148.55 26.25 L-148.4 25.2 Q-142.65 27.15 -139.3 26.7 M-160.2 3.05 L-159.8 0.9 -145.0 0.2 Q-125.25 0.5 -107.15 -0.3 L-106.1 2.7 -121.65 3.4 -122.0 2.15 -127.15 3.0 Q-133.8 2.5 -145.35 2.8 -151.2 3.7 -160.2 3.05 M-157.8 -14.3 Q-157.5 -15.8 -156.45 -16.55 L-153.7 -18.65 Q-151.0 -17.1 -142.95 -17.85 L-143.3 -14.75 -142.95 -17.85 Q-138.8 -16.3 -132.6 -18.05 L-133.55 -12.75 -132.6 -18.05 Q-129.2 -17.3 -126.55 -18.05 L-126.3 -16.3 Q-121.85 -14.85 -113.4 -17.45 L-112.2 -14.25 Q-115.9 -11.8 -118.85 -13.0 -121.85 -14.2 -125.6 -12.55 L-125.8 -13.6 -126.3 -16.3 -125.8 -13.6 Q-129.1 -12.15 -133.55 -12.75 -139.95 -11.9 -143.45 -13.25 L-143.3 -14.75 -157.8 -14.3 M60.7 -2.1 L62.05 1.5 60.7 -2.1 M12.4 2.95 L11.15 2.15 Q8.65 0.6 6.4 -0.65 8.65 0.6 11.15 2.15 L12.4 2.95 M130.5 -2.95 L131.1 0.8 130.5 -2.95 M-57.1 -0.1 Q-48.5 -0.75 -42.1 -0.25 L-40.55 2.95 -55.95 3.65 -57.1 -0.1 M-48.15 26.95 L-47.45 28.75 -48.15 26.95 M-116.1 26.8 L-115.45 30.4 -116.1 26.8 M-96.95 28.9 L-97.6 27.0 -96.95 28.9 M-145.0 0.2 L-145.35 2.8 -145.0 0.2 M-7.2 -0.75 L-6.6 1.6 -7.2 -0.75" fill="#6581fe" fill-rule="evenodd" stroke="none"/>
    <path d="M9.55 -12.05 Q15.15 -12.95 22.7 -12.2 L22.7 -11.95 Q22.6 -7.2 20.75 -3.45 15.8 -7.3 9.35 -9.55 9.75 -10.95 9.55 -12.05 M38.8 -16.15 L38.65 -18.45 Q37.9 -24.55 36.15 -29.25 41.95 -31.85 45.0 -32.1 L46.95 -17.65 Q44.3 -16.3 38.8 -16.15 M-7.75 -39.7 Q-21.1 -25.7 -24.45 -16.5 -28.95 -15.05 -35.4 -14.95 -33.0 -19.6 -32.4 -23.95 -19.4 -33.25 -7.75 -39.7 M-25.45 -11.7 Q-25.55 -6.75 -23.65 -1.25 -30.6 0.1 -40.5 0.1 -40.95 -4.0 -40.4 -7.3 L-38.05 -10.55 -37.45 -11.45 Q-31.95 -11.15 -25.45 -11.7 M-7.25 -2.1 L-6.85 -5.1 Q-2.05 -4.95 4.85 -1.45 L-7.2 -0.75 -7.25 -2.1 M38.25 -1.6 Q38.85 -6.25 38.9 -11.0 41.75 -13.05 47.6 -11.95 L48.8 -1.15 Q44.05 0.45 37.9 0.6 L38.25 -1.6 M55.3 -32.75 Q62.05 -34.25 68.5 -38.6 71.9 -27.5 74.75 -16.2 69.25 -15.3 63.75 -16.3 L63.05 -17.6 Q59.05 -25.1 55.3 -32.75 M93.45 -36.25 Q99.2 -39.25 103.6 -40.35 L105.8 -15.7 Q101.35 -14.1 95.0 -16.2 94.1 -26.2 93.45 -36.25 M163.85 38.65 Q152.7 38.2 140.65 34.5 137.05 33.2 131.0 32.3 127.2 31.55 125.1 28.9 130.8 27.0 142.45 27.05 L145.3 28.9 Q159.15 37.85 163.85 38.65 M122.4 25.4 Q120.8 22.55 119.85 18.5 L120.15 0.75 Q123.55 1.65 131.1 0.8 132.8 11.45 133.35 20.9 L138.75 24.6 122.4 25.4 M110.1 27.05 Q105.05 27.25 99.45 25.6 97.95 13.85 96.75 2.05 101.3 1.2 107.05 1.85 L107.45 8.7 Q108.05 20.25 109.05 24.55 109.5 26.75 110.1 27.05 M80.35 47.05 Q75.65 48.35 59.0 42.4 57.45 41.9 57.25 40.4 56.45 34.45 55.1 29.45 62.85 30.0 72.5 28.2 L80.35 47.05 M54.1 26.15 L53.4 24.2 Q43.9 22.4 32.25 21.3 25.4 20.5 27.85 12.55 L7.15 11.9 Q2.35 7.85 -1.9 6.05 -4.85 4.75 -6.15 2.5 L-6.6 1.6 Q1.25 1.4 12.4 2.95 21.15 8.35 32.35 12.5 L34.65 13.3 Q36.4 8.35 37.4 3.3 42.05 3.45 49.05 1.7 L50.4 17.05 Q53.35 21.55 58.15 25.15 57.45 13.6 57.05 2.8 L57.0 1.7 62.05 1.5 62.65 3.1 71.4 25.6 54.1 26.15 M-9.7 16.7 Q-24.35 16.95 -34.55 14.6 L-39.75 4.55 Q-32.7 2.45 -22.4 1.95 L-19.4 7.9 Q-15.0 14.65 -9.7 16.7 M-40.15 40.7 Q-46.65 42.45 -57.25 38.8 -60.15 38.0 -60.35 33.55 L-60.5 30.4 Q-55.35 29.25 -47.45 28.75 L-43.3 39.7 -40.15 40.7 M-60.7 26.7 Q-61.65 11.3 -63.7 3.8 L-55.95 3.65 Q-52.75 14.25 -48.65 25.55 L-48.15 26.95 Q-55.95 27.4 -60.7 26.7 M-71.1 40.8 L-82.7 38.9 -94.5 36.0 -96.95 28.9 Q-91.85 30.3 -82.7 29.6 L-81.55 29.5 -81.55 32.3 -73.35 39.15 -71.1 40.8 M-94.1 45.9 Q-110.6 42.95 -129.6 34.9 -130.0 34.15 -130.15 31.1 L-115.45 30.4 -114.6 35.55 -94.1 45.9 M-130.25 27.25 L-130.25 23.65 Q-130.5 12.45 -132.3 3.85 L-127.15 3.0 -122.0 2.15 -121.65 3.4 Q-118.25 15.6 -116.1 26.8 -121.5 28.6 -130.25 27.25 M-148.55 26.25 Q-155.05 26.35 -163.25 22.15 -164.35 20.5 -163.25 16.1 -161.45 9.8 -160.2 3.05 -151.2 3.7 -145.35 2.8 L-148.4 25.2 -148.55 26.25 M-159.8 0.9 Q-158.5 -6.45 -157.8 -14.3 L-143.3 -14.75 -143.45 -13.25 -145.0 0.2 -159.8 0.9 M-153.7 -18.65 Q-146.7 -24.25 -141.8 -29.85 L-142.95 -17.85 Q-151.0 -17.1 -153.7 -18.65 M-98.55 24.2 Q-98.4 13.4 -98.55 4.25 -89.85 3.65 -82.7 4.15 L-82.05 4.2 Q-81.65 14.85 -81.55 25.6 L-82.7 25.85 -97.6 27.0 -98.55 24.2 M-98.65 0.25 Q-98.8 -6.75 -99.2 -12.7 L-82.95 -13.35 -82.7 -8.8 -82.3 -1.6 -82.25 -0.5 -82.7 -0.45 -98.65 0.25 M-99.45 -16.6 L-99.75 -19.7 Q-100.05 -21.2 -101.75 -21.7 L-106.1 -20.35 Q-108.75 -23.35 -110.0 -26.7 -100.35 -33.2 -93.6 -39.7 L-91.65 -32.3 -84.25 -30.1 -83.15 -16.55 -99.45 -16.6 M56.85 -3.55 L56.65 -13.2 60.7 -2.1 Q58.8 -1.2 56.9 -1.45 L56.85 -3.55 M71.25 -2.85 Q68.8 -7.0 66.5 -11.25 69.8 -12.65 75.55 -12.9 L78.0 -2.35 Q76.1 -1.05 71.9 -1.75 L71.25 -2.85 M74.95 3.4 L79.05 2.35 81.25 13.65 74.95 3.4 M95.35 -12.15 Q102.4 -11.15 106.05 -12.65 L106.8 -2.3 Q102.3 -1.4 96.2 -3.1 L95.35 -12.15 M120.25 -13.2 L120.15 -14.95 Q119.65 -24.1 121.35 -25.35 125.7 -25.7 127.0 -15.65 L127.25 -12.85 120.25 -13.2 M58.15 25.15 L53.4 24.2 58.15 25.15 M32.35 12.5 L27.85 12.55 32.35 12.5 M-125.8 -13.6 L-125.6 -12.55 -123.9 -6.15 Q-128.9 -4.5 -133.9 -6.15 -133.9 -9.5 -133.55 -12.75 -129.1 -12.15 -125.8 -13.6 M-55.4 -16.75 L-57.25 -15.1 -63.35 -15.45 Q-61.25 -23.6 -68.75 -29.15 L-69.0 -31.1 Q-57.75 -34.15 -53.6 -27.2 -51.4 -21.0 -55.4 -16.75" fill="#56b8fe" fill-rule="evenodd" stroke="none"/>
    <path d="M20.1 -17.1 Q19.05 -17.8 17.6 -18.2 13.9 -19.25 10.35 -17.1 L-3.25 -17.85 Q-9.65 -16.5 -24.45 -16.5 -21.1 -25.7 -7.75 -39.7 1.25 -46.6 20.15 -43.95 31.55 -41.4 36.15 -29.25 37.9 -24.55 38.65 -18.45 L38.8 -16.15 Q35.1 -17.5 30.8 -17.0 28.1 -16.15 20.1 -17.1 M45.0 -32.1 L53.75 -35.95 55.3 -32.75 Q59.05 -25.1 63.05 -17.6 54.45 -16.45 46.95 -17.65 L45.0 -32.1 M68.5 -38.6 Q79.3 -44.4 87.1 -44.2 91.1 -44.5 93.15 -40.85 L93.45 -36.25 Q94.1 -26.2 95.0 -16.2 89.5 -14.8 85.25 -15.35 81.25 -16.45 74.75 -16.2 71.9 -27.5 68.5 -38.6 M103.6 -40.35 Q112.7 -41.25 123.75 -39.95 135.3 -40.7 145.1 -38.35 147.35 -37.4 146.6 -35.45 143.3 -31.35 142.6 -27.85 L137.0 -26.85 140.95 -16.25 127.0 -15.65 Q125.7 -25.7 121.35 -25.35 119.65 -24.1 120.15 -14.95 L105.8 -15.7 103.6 -40.35 M147.0 -0.65 Q151.95 11.75 157.35 24.1 150.0 25.4 139.5 25.1 L138.75 24.6 133.35 20.9 Q132.8 11.45 131.1 0.8 140.5 2.8 147.0 -0.65 M119.85 18.5 L119.65 24.8 Q114.25 24.15 109.05 24.55 108.05 20.25 107.45 8.7 L107.05 1.85 106.95 0.35 Q112.55 2.55 120.15 0.75 L119.85 18.5 M-1.9 6.05 L-2.25 17.3 Q-6.2 18.05 -9.7 16.7 -15.0 14.65 -19.4 7.9 L-22.4 1.95 -6.15 2.5 Q-4.85 4.75 -1.9 6.05 M-34.55 14.6 L-28.4 25.5 Q-37.95 26.85 -48.65 25.55 -52.75 14.25 -55.95 3.65 L-40.55 2.95 -39.75 4.55 -34.55 14.6 M-69.4 3.8 L-69.0 26.65 Q-77.05 26.7 -81.55 25.6 -81.65 14.85 -82.05 4.2 L-82.1 2.9 -69.4 3.8 M-132.3 3.85 L-134.4 4.2 -139.3 26.7 Q-142.65 27.15 -148.4 25.2 L-145.35 2.8 Q-133.8 2.5 -127.15 3.0 L-132.3 3.85 M-141.8 -29.85 Q-128.3 -36.05 -115.3 -39.6 -113.15 -34.35 -113.0 -27.65 L-116.4 -25.55 -113.4 -17.45 Q-121.85 -14.85 -126.3 -16.3 L-126.55 -18.05 -126.85 -20.4 -132.15 -19.9 -132.6 -18.05 Q-138.8 -16.3 -142.95 -17.85 L-141.8 -29.85 M-106.1 2.7 L-98.55 24.2 -97.6 27.0 Q-103.35 25.6 -108.05 27.0 -113.65 27.6 -116.1 26.8 -118.25 15.6 -121.65 3.4 L-106.1 2.7 M-93.6 -39.7 Q-88.6 -42.65 -82.7 -44.55 -72.8 -47.85 -60.35 -48.3 -40.55 -49.1 -34.05 -35.15 -31.6 -29.8 -32.4 -23.95 -33.0 -19.6 -35.4 -14.95 -43.9 -16.8 -55.4 -16.75 -51.4 -21.0 -53.6 -27.2 -57.75 -34.15 -69.0 -31.1 L-68.75 -29.15 Q-68.25 -23.4 -68.85 -17.6 L-68.6 -16.45 Q-76.65 -15.9 -82.7 -16.5 L-83.15 -16.55 -84.25 -30.1 -91.65 -32.3 -93.6 -39.7 M49.05 1.7 Q54.5 1.3 57.05 2.8 57.45 13.6 58.15 25.15 53.35 21.55 50.4 17.05 L49.05 1.7 M74.2 2.15 L74.95 3.4 81.25 13.65 79.05 2.35 Q85.6 0.45 96.75 2.05 97.95 13.85 99.45 25.6 91.15 24.5 84.4 25.6 76.5 26.3 71.4 25.6 L62.65 3.1 Q66.75 1.85 74.2 2.15 M37.7 1.8 L37.4 3.3 Q36.4 8.35 34.65 13.3 L32.35 12.5 Q21.15 8.35 12.4 2.95 28.0 3.5 37.7 1.8" fill="#c8d0d5" fill-rule="evenodd" stroke="none"/>
    <path d="M22.7 -12.2 L22.65 -13.25 Q29.35 -12.8 38.9 -13.6 L38.9 -11.0 Q38.85 -6.25 38.25 -1.6 L6.4 -0.65 4.85 -1.45 Q-2.05 -4.95 -6.85 -5.1 L-7.25 -2.1 Q-13.45 -0.35 -23.65 -1.25 -25.55 -6.75 -25.45 -11.7 -19.35 -9.7 -12.0 -12.05 -7.05 -11.4 -2.85 -12.25 0.2 -13.2 6.9 -13.0 6.7 -11.5 7.5 -10.2 L9.35 -9.55 Q15.8 -7.3 20.75 -3.45 22.6 -7.2 22.7 -11.95 L22.7 -12.2 M142.35 -12.6 L145.55 -4.3 Q137.85 -1.85 130.5 -2.95 L130.25 -4.2 Q125.8 -5.85 120.1 -5.7 L120.15 -3.3 Q114.5 -3.85 106.8 -2.3 L106.05 -12.65 120.25 -13.2 127.25 -12.85 Q136.05 -11.15 142.35 -12.6 M159.05 27.9 L163.85 38.65 Q159.15 37.85 145.3 28.9 145.15 27.45 149.0 26.8 153.2 29.15 159.05 27.9 M99.85 28.5 L101.75 42.55 Q97.9 46.2 84.0 48.4 80.9 48.2 80.35 47.05 L72.5 28.2 Q79.9 29.4 83.45 27.55 88.6 29.4 99.85 28.5 M-26.5 28.7 Q-21.85 36.45 -16.8 44.0 L-18.15 45.9 Q-30.65 43.6 -40.15 40.7 L-43.3 39.7 -47.45 28.75 Q-37.15 30.6 -26.5 28.7 M-65.6 -1.0 Q-67.85 -1.55 -69.5 -2.35 L-69.5 -1.6 -78.25 -0.95 -82.3 -1.6 -82.7 -8.8 -82.95 -13.35 -82.7 -13.4 Q-78.9 -14.45 -77.25 -13.35 -74.15 -12.15 -54.35 -12.05 -44.85 -11.8 -38.05 -10.55 L-40.4 -7.3 -43.65 -3.55 -42.1 -0.25 Q-48.5 -0.75 -57.1 -0.1 -62.1 -0.2 -65.6 -1.0 M-68.95 30.3 L-68.8 41.6 Q-69.4 41.9 -71.1 40.8 L-73.35 39.15 -81.55 32.3 -81.55 29.5 Q-76.65 31.6 -68.95 30.3 M-94.5 36.0 L-91.55 44.85 -94.1 45.9 -114.6 35.55 -115.45 30.4 Q-114.6 29.55 -110.55 29.9 -104.5 31.55 -96.95 28.9 L-94.5 36.0 M-112.2 -14.25 L-107.15 -0.3 Q-125.25 0.5 -145.0 0.2 L-143.45 -13.25 Q-139.95 -11.9 -133.55 -12.75 -133.9 -9.5 -133.9 -6.15 -128.9 -4.5 -123.9 -6.15 L-125.6 -12.55 Q-121.85 -14.2 -118.85 -13.0 -115.9 -11.8 -112.2 -14.25 M56.85 -3.55 Q53.75 -1.15 48.8 -1.15 L47.6 -11.95 Q50.7 -13.1 56.65 -13.2 L56.85 -3.55 M60.7 -2.1 L56.65 -13.2 Q62.05 -13.9 66.5 -11.25 68.8 -7.0 71.25 -2.85 66.9 -1.75 60.7 -2.1 M78.25 -1.25 L78.0 -2.35 75.55 -12.9 82.55 -12.45 Q88.6 -11.6 95.35 -12.15 L96.2 -3.1 Q89.5 -1.25 78.25 -1.25" fill="#5f6660" fill-rule="evenodd" stroke="none"/>
    <path d="M7.5 -14.85 Q9.25 -13.8 9.55 -12.05 9.75 -10.95 9.35 -9.55 M55.3 -32.75 Q62.05 -34.25 68.5 -38.6 M93.45 -36.25 Q99.2 -39.25 103.6 -40.35 M163.85 38.65 Q152.7 38.2 140.65 34.5 137.05 33.2 131.0 32.3 127.2 31.55 125.1 28.9 123.55 27.45 122.4 25.4 120.8 22.55 119.85 18.5 M110.1 27.05 Q105.05 27.25 99.45 25.6 M80.35 47.05 Q75.65 48.35 59.0 42.4 57.45 41.9 57.25 40.4 56.45 34.45 55.1 29.45 L54.1 26.15 53.4 24.2 Q43.9 22.4 32.25 21.3 25.4 20.5 27.85 12.55 L7.15 11.9 Q2.35 7.85 -1.9 6.05 M-9.7 16.7 Q-24.35 16.95 -34.55 14.6 M-40.15 40.7 Q-46.65 42.45 -57.25 38.8 -60.15 38.0 -60.35 33.55 L-60.5 30.4 -60.7 26.7 Q-61.65 11.3 -63.7 3.8 -64.55 0.75 -65.6 -1.0 M-71.1 40.8 L-82.7 38.9 -94.5 36.0 M-94.1 45.9 Q-110.6 42.95 -129.6 34.9 -130.0 34.15 -130.15 31.1 L-130.25 27.25 -130.25 23.65 Q-130.5 12.45 -132.3 3.85 M-148.55 26.25 Q-155.05 26.35 -163.25 22.15 -164.35 20.5 -163.25 16.1 -161.45 9.8 -160.2 3.05 L-159.8 0.9 Q-158.5 -6.45 -157.8 -14.3 -157.5 -15.8 -156.45 -16.55 L-153.7 -18.65 Q-146.7 -24.25 -141.8 -29.85 M-98.55 24.2 Q-98.4 13.4 -98.55 4.25 L-98.65 0.25 Q-98.8 -6.75 -99.2 -12.7 L-99.45 -16.6 -99.75 -19.7 Q-100.05 -21.2 -101.75 -21.7 L-106.1 -20.35 Q-108.75 -23.35 -110.0 -26.7 -100.35 -33.2 -93.6 -39.7 M-32.4 -23.95 Q-19.4 -33.25 -7.75 -39.7 M45.0 -32.1 Q41.95 -31.85 36.15 -29.25 M53.4 24.2 L58.15 25.15 M27.85 12.55 L32.35 12.5 M-39.75 4.55 L-40.5 0.1 Q-40.95 -4.0 -40.4 -7.3 M-63.35 -15.45 Q-61.25 -23.6 -68.75 -29.15" fill="none" stroke="#000000" stroke-linecap="round" stroke-linejoin="round" stroke-width="1.0"/>
    <path d="M20.1 -17.1 Q19.05 -17.8 17.6 -18.2 13.9 -19.25 10.35 -17.1 8.9 -16.25 7.5 -14.85 7.05 -13.9 6.9 -13.0 6.7 -11.5 7.5 -10.2 L9.35 -9.55 Q15.8 -7.3 20.75 -3.45 22.6 -7.2 22.7 -11.95 L22.7 -12.2 22.65 -13.25 Q22.25 -15.7 20.1 -17.1 M38.8 -16.15 L38.65 -18.45 Q37.9 -24.55 36.15 -29.25 31.55 -41.4 20.15 -43.95 1.25 -46.6 -7.75 -39.7 -21.1 -25.7 -24.45 -16.5 L-25.4 -13.1 -25.45 -11.7 Q-25.55 -6.75 -23.65 -1.25 L-22.4 1.95 -19.4 7.9 Q-15.0 14.65 -9.7 16.7 -6.2 18.05 -2.25 17.3 L-1.9 6.05 Q-4.85 4.75 -6.15 2.5 L-6.6 1.6 -7.2 -0.75 -7.25 -2.1 -6.85 -5.1 Q-2.05 -4.95 4.85 -1.45 L6.4 -0.65 Q8.65 0.6 11.15 2.15 L12.4 2.95 Q21.15 8.35 32.35 12.5 L34.65 13.3 Q36.4 8.35 37.4 3.3 L37.7 1.8 37.9 0.6 38.25 -1.6 Q38.85 -6.25 38.9 -11.0 L38.9 -13.6 38.8 -16.15 M45.0 -32.1 L53.75 -35.95 55.3 -32.75 Q59.05 -25.1 63.05 -17.6 L63.75 -16.3 66.5 -11.25 Q68.8 -7.0 71.25 -2.85 L71.9 -1.75 74.2 2.15 74.95 3.4 81.25 13.65 79.05 2.35 78.25 -1.25 78.0 -2.35 75.55 -12.9 74.75 -16.2 Q71.9 -27.5 68.5 -38.6 79.3 -44.4 87.1 -44.2 91.1 -44.5 93.15 -40.85 L93.45 -36.25 Q94.1 -26.2 95.0 -16.2 L95.35 -12.15 96.2 -3.1 96.75 2.05 Q97.95 13.85 99.45 25.6 L99.85 28.5 101.75 42.55 Q97.9 46.2 84.0 48.4 80.9 48.2 80.35 47.05 L72.5 28.2 71.4 25.6 62.65 3.1 62.05 1.5 60.7 -2.1 56.65 -13.2 56.85 -3.55 56.9 -1.45 57.0 1.7 57.05 2.8 Q57.45 13.6 58.15 25.15 53.35 21.55 50.4 17.05 L49.05 1.7 48.8 -1.15 47.6 -11.95 46.95 -17.65 45.0 -32.1 M103.6 -40.35 Q112.7 -41.25 123.75 -39.95 135.3 -40.7 145.1 -38.35 147.35 -37.4 146.6 -35.45 143.3 -31.35 142.6 -27.85 L137.0 -26.85 140.95 -16.25 142.35 -12.6 145.55 -4.3 147.0 -0.65 Q151.95 11.75 157.35 24.1 L159.05 27.9 163.85 38.65 Q159.15 37.85 145.3 28.9 L142.45 27.05 139.5 25.1 138.75 24.6 133.35 20.9 Q132.8 11.45 131.1 0.8 L130.5 -2.95 130.25 -4.2 Q125.8 -5.85 120.1 -5.7 L120.15 -3.3 120.15 0.75 119.85 18.5 119.65 24.8 119.5 27.65 110.1 27.05 Q109.5 26.75 109.05 24.55 108.05 20.25 107.45 8.7 L107.05 1.85 106.95 0.35 106.8 -2.3 106.05 -12.65 105.8 -15.7 103.6 -40.35 M-34.55 14.6 L-28.4 25.5 -26.5 28.7 Q-21.85 36.45 -16.8 44.0 L-18.15 45.9 Q-30.65 43.6 -40.15 40.7 L-43.3 39.7 -47.45 28.75 -48.15 26.95 -48.65 25.55 Q-52.75 14.25 -55.95 3.65 L-57.1 -0.1 Q-62.1 -0.2 -65.6 -1.0 -67.85 -1.55 -69.5 -2.35 L-69.5 -1.6 -69.4 3.8 -69.0 26.65 -68.95 30.3 -68.8 41.6 Q-69.4 41.9 -71.1 40.8 L-73.35 39.15 -81.55 32.3 -81.55 29.5 -81.55 25.6 Q-81.65 14.85 -82.05 4.2 L-82.1 2.9 -82.25 -0.5 -82.3 -1.6 -82.7 -8.8 -82.95 -13.35 -83.15 -16.55 -84.25 -30.1 -91.65 -32.3 -93.6 -39.7 Q-88.6 -42.65 -82.7 -44.55 -72.8 -47.85 -60.35 -48.3 -40.55 -49.1 -34.05 -35.15 -31.6 -29.8 -32.4 -23.95 -33.0 -19.6 -35.4 -14.95 L-37.45 -11.45 -38.05 -10.55 -40.4 -7.3 -43.65 -3.55 -42.1 -0.25 -40.55 2.95 -39.75 4.55 -34.55 14.6 M-94.5 36.0 L-91.55 44.85 -94.1 45.9 -114.6 35.55 -115.45 30.4 -116.1 26.8 Q-118.25 15.6 -121.65 3.4 L-122.0 2.15 -127.15 3.0 -132.3 3.85 -134.4 4.2 -139.3 26.7 -139.95 29.5 Q-144.9 28.8 -148.55 26.25 L-148.4 25.2 -145.35 2.8 -145.0 0.2 -143.45 -13.25 -143.3 -14.75 -142.95 -17.85 -141.8 -29.85 Q-128.3 -36.05 -115.3 -39.6 -113.15 -34.35 -113.0 -27.65 L-116.4 -25.55 -113.4 -17.45 -112.2 -14.25 -107.15 -0.3 -106.1 2.7 -98.55 24.2 -97.6 27.0 -96.95 28.9 -94.5 36.0 M120.25 -13.2 L120.15 -14.95 Q119.65 -24.1 121.35 -25.35 125.7 -25.7 127.0 -15.65 L127.25 -12.85 120.25 -13.2 M-133.55 -12.75 L-132.6 -18.05 -132.15 -19.9 -126.85 -20.4 -126.55 -18.05 -126.3 -16.3 -125.8 -13.6 -125.6 -12.55 -123.9 -6.15 Q-128.9 -4.5 -133.9 -6.15 -133.9 -9.5 -133.55 -12.75 M-55.4 -16.75 L-57.25 -15.1 -63.35 -15.45 -65.3 -15.2 Q-67.9 -14.65 -68.6 -16.45 L-68.85 -17.6 Q-68.25 -23.4 -68.75 -29.15 L-69.0 -31.1 Q-57.75 -34.15 -53.6 -27.2 -51.4 -21.0 -55.4 -16.75" fill="none" stroke="#000000" stroke-linecap="round" stroke-linejoin="round" stroke-width="2.0"/>
    <path d="M20.1 -17.1 Q28.1 -16.15 30.8 -17.0 35.1 -17.5 38.8 -16.15 44.3 -16.3 46.95 -17.65 54.45 -16.45 63.05 -17.6 M-24.45 -16.5 Q-9.65 -16.5 -3.25 -17.85 L10.35 -17.1 M-23.65 -1.25 Q-13.45 -0.35 -7.25 -2.1 M6.4 -0.65 L38.25 -1.6 M48.8 -1.15 Q53.75 -1.15 56.85 -3.55 M56.9 -1.45 Q58.8 -1.2 60.7 -2.1 66.9 -1.75 71.25 -2.85 M74.75 -16.2 Q69.25 -15.3 63.75 -16.3 M74.75 -16.2 Q81.25 -16.45 85.25 -15.35 89.5 -14.8 95.0 -16.2 101.35 -14.1 105.8 -15.7 L120.15 -14.95 M78.0 -2.35 Q76.1 -1.05 71.9 -1.75 M96.2 -3.1 Q102.3 -1.4 106.8 -2.3 114.5 -3.85 120.15 -3.3 126.8 -2.7 130.25 -4.2 M130.5 -2.95 Q137.85 -1.85 145.55 -4.3 M127.0 -15.65 L140.95 -16.25 M78.25 -1.25 Q89.5 -1.25 96.2 -3.1 M139.5 25.1 Q150.0 25.4 157.35 24.1 M122.4 25.4 L138.75 24.6 M109.05 24.55 Q114.25 24.15 119.65 24.8 M99.45 25.6 Q91.15 24.5 84.4 25.6 76.5 26.3 71.4 25.6 L54.1 26.15 M48.8 -1.15 Q44.05 0.45 37.9 0.6 M-153.7 -18.65 Q-151.0 -17.1 -142.95 -17.85 -138.8 -16.3 -132.6 -18.05 -129.2 -17.3 -126.55 -18.05 M-126.3 -16.3 Q-121.85 -14.85 -113.4 -17.45 M-68.6 -16.45 Q-76.65 -15.9 -82.7 -16.5 L-83.15 -16.55 -99.45 -16.6 M-35.4 -14.95 Q-43.9 -16.8 -55.4 -16.75 M-82.25 -0.5 L-82.7 -0.45 -98.65 0.25 M-82.3 -1.6 L-78.25 -0.95 -69.5 -1.6 M-57.1 -0.1 Q-48.5 -0.75 -42.1 -0.25 M-35.4 -14.95 Q-28.95 -15.05 -24.45 -16.5 M-7.2 -0.75 L4.85 -1.45 M-48.65 25.55 Q-37.95 26.85 -28.4 25.5 M-48.15 26.95 Q-55.95 27.4 -60.7 26.7 M-116.1 26.8 Q-121.5 28.6 -130.25 27.25 M-116.1 26.8 Q-113.65 27.6 -108.05 27.0 -103.35 25.6 -97.6 27.0 L-82.7 25.85 -81.55 25.6 Q-77.05 26.7 -69.0 26.65 M-148.4 25.2 Q-142.65 27.15 -139.3 26.7 M-145.0 0.2 L-159.8 0.9 M-40.5 0.1 Q-30.6 0.1 -23.65 -1.25 M-107.15 -0.3 Q-125.25 0.5 -145.0 0.2" fill="none" stroke="#07a7fc" stroke-linecap="round" stroke-linejoin="round" stroke-width="0.5"/>
  </g>
</svg>
